<?xml version="1.0" ?><svg height="257.13" viewBox="0 0 257.13 257.13" width="257.13" xmlns="http://www.w3.org/2000/svg"><path d="M236.88,75.65c-2.57-5.58-4-7.16-10.18-6.78-2.07.13-4.12.44-6.59.72a19.08,19.08,0,0,0-.77-5.42,24.67,24.67,0,0,0-4.05-7.85A13,13,0,0,0,214.16,55a6.31,6.31,0,0,0-5-2.12c-4,.07-8-.08-11.94.16-5.18.31-9.19-.78-10.3-6.7-.2-1.07-1.25-2-1.65-3-1.28-3.42-4.07-4.64-7.33-5a11.42,11.42,0,0,0-4.82.58c-5,1.81-9.77,3.8-11.12,10A148.34,148.34,0,0,1,157.63,64c-2.32,7-4.85,14-7.33,20.91-.59,1.66-1.35,3.25-2.06,4.93-7.15-4.36-13.39-5.64-21.19-4-5.94,1.23-12,2.34-17.63,4.47-4,1.52-8.36,2.81-11.29,6.75a103.7,103.7,0,0,1-11.41,12.92c-6,5.7-7,13.34-8.33,20.61-1.07,5.86-.22,12.06-.22,18.43-1.21.61-2.66,1.39-4.15,2.09-5.67,2.65-11.26,5.5-17,7.84a39.72,39.72,0,0,1-10.41,2.59c-4.41.49-8.91.17-13.35.37s-6.91,2.78-7,7.21a48.79,48.79,0,0,0-.19,5,6.91,6.91,0,0,0,1.08,3.71c3.58,4.2,7.65,7.57,13.55,8.14,5.19.5,10.33,1.47,15.68,2.27-.72,3.8-1.43,7.17-2,10.57-.86,5.32,1.62,8.26,6.87,8.07a15.94,15.94,0,0,0,5.27-1c3.19-1.28,6.24-2.89,9.67-4.52l3.28,1c.26,2.72.57,5.47.77,8.23.32,4.4,0,8.89,2.58,12.88,1.74,2.65,6,4.68,8.84,3.49,3.64-1.51,7.29-3.08,9.1-7.12.87-1.93,2.49-3.52,3.41-5.44,2.14-4.41,4.73-8.78,5.84-13.47a37.59,37.59,0,0,1,3.28-9.66c3.71.89,6.89,2.23,10.1,2.32,9.9.28,19.94,1,29.26-3.55,1.87-.93,3.54-2.27,5.45-3.09a24.42,24.42,0,0,0,9.84-7.93c2-2.62,4.26-5.08,6.29-7.7,1.88-2.43,4.11-4.75,5.32-7.5,4.25-9.65,6.48-19.69,3.78-30.24-1-3.81-2.23-7.55-3.39-11.48,4-3.79,8.88-6.3,13.73-8.73,9.26-4.65,17.93-10.38,27.57-14.39,5.87-2.44,11.32-6.06,14.67-11.94C237.93,83.38,238.6,79.37,236.88,75.65Zm-60.77,40.86c-4.26-3.08-5.79-8.66-11.53-9.37a5.41,5.41,0,0,0,.76,5.33c3.3,4.76,6.32,9.72,9.16,14.76a10.28,10.28,0,0,1,.95,5.3l-.15,2.75q-.42,8.06-1.18,16.09a17.19,17.19,0,0,1-1.58,5.11c-1,2.43-2.25,4.8-3.5,7.14-4,7.57-10.58,12.75-17.38,17.53A33.82,33.82,0,0,1,143.4,185l-1.18.42a8.92,8.92,0,0,1-2.57.57,6.18,6.18,0,0,1-4.1-1.12c-.64-.44-1.79-.19-2.71-.17-5.09.13-10.24,1-15.48-1.26.82-1.57,1.33-3.4,2.5-4.58,2.23-2.26,2.49-5.26,2.66-7.86A34.56,34.56,0,0,0,121,160.3c-1-3.93-2.94-4.71-7.7-3.86l.24,1.73.72,5.2c.2,1.41.4,2.82.59,4.24a5,5,0,0,1,.11,2.45c-1.91,4.19-1.81,8.89-4.25,13.09-2.61,4.5-3.65,9.91-5.55,14.85-1.12,2.93-2.31,5.83-3.52,8.71-.78,1.84-1.55,3.67-2.37,5.48a7,7,0,0,1-3.58,3.55,11.52,11.52,0,0,1-2.7.86,3.47,3.47,0,0,1-1.68,0,2.74,2.74,0,0,1-1.79-2.46,13.33,13.33,0,0,1-.32-3.91c.59-4.56-1.4-8.47-3.21-12.31-.79-1.69-2.9-2.77-4.64-4.32,3.47-7.15,10.37-10.64,17.67-13.95v-7.45c-2,.11-3.77-.31-4.93.38-5.93,3.52-11.92,7-15.86,13-1.91,2.9-4.22,5.54-6.24,8.37a11.24,11.24,0,0,1-9.3,4.84c-1.08-2.43-.38-4.57.4-6.79a34.5,34.5,0,0,0,2-7.11c.43-3.37-.25-4.37-3.27-5.46l-.3-.11a13.24,13.24,0,0,0-3.68-.5h-.21c-3-.17-6.09-.35-9.14-.51-3.37-.17-6.74-.33-10.12-.4-3-.06-3.81-3-6-3.8.22-4.47,1.58-6,5.3-5,4.56,1.2,8.72-.17,13-1,2.43-.49,4.85-1,7.25-1.65,1.07-.27,2.12-.59,3.16-.93s2.21-.77,3.27-1.22a40.66,40.66,0,0,0,10.7-6.5c4.89-4.14,10.6-5.85,17-5.95a59.83,59.83,0,0,0,8.78-1.23,5.19,5.19,0,0,0,1.53-.8c-1-3-2.58-4-5.1-3.93-3.48.13-7,0-10.74,0a7.79,7.79,0,0,1-.77-2.32c.15-8.09.27-16.23,4.29-23.59a34.54,34.54,0,0,1,4.18-5.38c4.89-5.83,9.61-11.92,16.85-15a56.91,56.91,0,0,1,9.34-3C126.18,95.09,131.88,93,138,94s12.21.92,17.27,4.74c2.14-2.78-.43-3.91-1.1-5.43a184.5,184.5,0,0,0,13.28-34.56c.56-2,.68-4.21,1.5-6.1a11.52,11.52,0,0,1,7.85-6.7c4.65,3.07,2.76,8.7,4.91,13.59l1.56.32c1.6.34,3.36.72,5.15.93,3.61.42,7.35,1.28,10.83.73a26,26,0,0,1,7.82.35c2.93.38,3.95,1.67,4.13,4.62.1,1.49-.07,3,.09,4.49.2,1.91.34,3,0,3.71s-1.19,1.3-3.16,2.11l-.07,0c-7.92,3.29-14.18,8.94-20.74,14.15-1,.76-1.92,1.51-2.9,2.25-.77.57-1,1.8-1.77,3.14,3.2.19,5.37-1,7.45-2.15,4.06-2.21,8-4.68,12-7,1.86-1.08,3.74-2.17,5.69-3.08,5.1-2.36,10.23-4.62,15.36-6.9,1.66-.73,3.26-1.46,5.21-.56A6.29,6.29,0,0,1,231.1,79a4.82,4.82,0,0,1-.78,6.17,13.68,13.68,0,0,1-3.62,2.55c-11.84,6.29-23.57,12.83-35.63,18.66a58.61,58.61,0,0,0-9,5.44C180.09,113.26,178.11,114.84,176.11,116.51Z" fill="#1d1d1b"/></svg>