<svg height="511pt" viewBox="0 -14 511.99988 511" width="511pt" xmlns="http://www.w3.org/2000/svg"><path d="m278.871094 123.019531c-2.523438-3.621093-5.382813-6.972656-8.144532-10.207031-4.824218-5.660156-9.382812-11-11.875-17.292969-3.613281-9.113281-2.675781-19.554687-1.1875-31.269531 3.265626-25.730469-1.371093-43.410156-14.175781-54.042969-8.316406-6.90625-20.144531-10.1562498-35.152343-9.65625-7.960938.265625-16.019532.730469-23.808594 1.183594-7.632813.441406-15.523438.898437-23.269532 1.160156l-46.972656 1.597657c-11.800781.402343-24.003906.816406-35.789062 4.714843-13.730469 4.539063-24.253906 13.484375-28.863282 24.539063-4.464843 10.699218-3.304687 22.160156-2.183593 33.238281 1.136719 11.226563 2.210937 21.828125-2.71875 30.339844-2.933594 5.058593-7.777344 8.910156-12.90625 12.988281-3.878907 3.082031-7.886719 6.269531-11.316407 10.183594-12.523437 14.308594-14.121093 33.75-14.75 54.089844l-5.488281 178.566406c-.53125 17.214844-1.1875 38.636718 7.84375 56.660156 12.328125 24.582031 40.523438 40.183594 83.800781 46.367188 19.738282 2.816406 39.621094 4.230468 59.503907 4.230468 19.382812 0 38.769531-1.34375 58.023437-4.023437 21.335938-2.972657 47.96875-8.828125 64.65625-27.914063 16.507813-18.882812 18.992188-45.109375 20.117188-70.355468 2.421875-54.347657 2.875-109.476563 1.34375-163.851563-.734375-25.980469-2.5625-50.980469-16.6875-71.246094zm-31.128906-60.03125c-.898438 7.097657-2.023438 16.035157-.945313 24.96875-.339844.019531-.6875.070313-1.03125.167969-60.800781 16.625-127.367187 15.273438-187.441406-3.8125.3125-6.066406-.308594-12.25-.925781-18.332031-.875-8.636719-.746094-16.84375 1.226562-24.050781 19.363281 7.097656 39.96875 9.3125 59.472656 10.609374 9.867188.65625 20.46875 1.152344 31.507813 1.152344 31.257812 0 65.992187-3.980468 97.257812-19.507812 2.480469 9.378906 1.996094 20.019531.878907 28.804687zm-166.105469-44.289062c10.417969-3.445313 21.890625-3.835938 32.988281-4.210938l46.972656-1.597656c7.867188-.269531 15.820313-.730469 23.507813-1.175781 7.730469-.449219 15.726562-.910156 23.566406-1.171875 12.492187-.410157 22.050781 2.058593 28.429687 7.359375 2.429688 2.015625 4.386719 4.390625 5.949219 7.003906-40.3125 20.265625-87.542969 20.097656-124.289062 17.65625-18.570313-1.238281-38.125-3.324219-56.183594-9.847656 3.835937-6.117188 9.894531-10.984375 19.058594-14.015625zm-53.605469 108.382812c2.835938-3.234375 6.320312-6.007812 10.015625-8.945312 5.632813-4.476563 11.453125-9.105469 15.332031-15.800781 1.515625-2.613282 2.597656-5.304688 3.371094-8.046876 32.753906 10.234376 67.34375 15.382813 101.914062 15.382813 30.351563 0 60.683594-3.957031 89.738282-11.902344.195312-.054687.371094-.140625.558594-.214843.1875.550781.378906 1.101562.59375 1.648437 3.105468 7.835937 8.421874 14.070313 13.566406 20.097656 2.722656 3.195313 5.300781 6.214844 7.546875 9.433594 10.085937 14.472656 12.574219 31.953125 13.480469 49.160156.082031 1.566407.164062 3.128907.246093 4.691407-9.367187-1.714844-19.304687-.160157-27.71875 4.296874-1.574219-9.550781-7.328125-18.382812-15.785156-23.328124-7.253906-4.246094-16.027344-5.363282-24.121094-3.503907 1.714844-3.917969 3.132813-8.214843 2.910157-12.953125-.554688-11.820312-12.285157-21.761718-25.074219-21.300781-7.988281.292969-15.976563 4.300781-22.132813 10.84375-8.425781-11.964844-24.5-18.097656-38.785156-13.714844-14.058594 4.316407-23.839844 18.035157-24.394531 32.417969-9.738281-3.128906-20.535157-3.21875-30.226563-.074219-10.445312 3.390625-19.730468 10.589844-25.792968 19.792969-10.863282-8.050781-25.585938-10.617188-38.539063-6.730469.625-15.175781 3.40625-29.953125 13.296875-41.25zm256.191406 230.589844c-1.046875 23.472656-3.269531 47.765625-17.652344 64.21875-14.511718 16.59375-38.890624 21.859375-58.507812 24.589844-38.074219 5.304687-76.675781 5.234375-114.734375-.203125-39.839844-5.691406-65.5-19.46875-76.273437-40.949219-7.902344-15.757813-7.308594-34.941406-6.789063-51.867187.8125-26.398438 1.621094-52.796876 2.433594-79.191407.710937-23.082031 1.417969-46.160156 2.128906-69.238281.25-8.136719-.171875-17.023438-.238281-26.019531 11.996094-5.027344 27.375-2.035157 36.425781 7.316406 1.136719 1.179687 2.78125 1.722656 4.402344 1.457031 1.613281-.265625 3-1.304687 3.703125-2.785156 4.488281-9.433594 13.101562-16.992188 23.035156-20.21875 9.9375-3.226562 21.347656-2.167969 30.519531 2.832031 1.742188.949219 3.878907.777344 5.449219-.433593 1.570312-1.214844 2.273438-3.238282 1.796875-5.164063-3-12.078125 4.804687-25.878906 16.703125-29.53125s26.101562 3.394531 30.390625 15.078125c.660156 1.800781 2.292969 3.0625 4.199219 3.253906 1.910156.1875 3.757812-.730468 4.757812-2.363281 4.625-7.550781 11.90625-12.402344 19-12.664063 7.257813-.261718 14.421875 5.453126 14.71875 11.773438.183594 3.878906-1.75 7.894531-3.792968 12.148438-1.367188 2.847656-2.785157 5.789062-3.746094 9-.625 2.09375.179687 4.355468 1.992187 5.578124 1.816407 1.222657 4.210938 1.125 5.921875-.238281 7.097656-5.671875 17.9375-6.457031 25.773438-1.867187 7.839844 4.585937 12.464844 14.421875 10.996094 23.386718-.34375 2.101563.679687 4.191407 2.550781 5.207032.75.40625 1.570312.601562 2.382812.601562 1.21875 0 2.429688-.445312 3.371094-1.304687 7.890625-7.207031 19.507813-9.882813 29.789063-7.128907.679687 13.628907 1.246093 27.214844 1.390624 40.953126.433594 41.265624-.257812 82.546874-2.097656 123.773437zm0 0"/><path d="m250.644531 224.554688c-6.019531-10.296876-16.128906-10.410157-24.25-10.503907l-7.519531-.101562c-9.148438-.128907-18.605469-.261719-27.921875-.300781-22.960937-.105469-46.246094.121093-69.210937.664062-12.988282.308594-26.144532.726562-39.101563 1.238281-10.996094.4375-23.367187 1.664063-31.003906 10.8125-5.207031 6.238281-6.472657 14.3125-7.0625 22.109375-.914063 12.039063-.832031 24.242188.238281 36.273438.988281 11.074218 3.113281 23.664062 11.359375 33.085937 9.703125 11.085938 24.519531 14.300781 39.085937 16.121094 16.800782 2.101563 33.6875 3.152344 50.574219 3.152344 20.65625 0 41.3125-1.574219 61.78125-4.710938 12.394531-1.902343 25.042969-4.914062 33.640625-14.007812 8.199219-8.675781 10.625-20.457031 12.027344-31.902344 1.660156-13.558594 2.308594-27.363281 1.929688-41.023437-.1875-6.65625-.710938-14.3125-4.566407-20.90625zm-7.289062 60.714843c-1.195313 9.75-3.15625 19.675781-9.367188 26.246094-6.851562 7.25-17.988281 9.472656-27.890625 10.992187-36.292968 5.566407-73.167968 6.082032-109.601562 1.523438-12.601563-1.578125-25.300782-4.21875-32.800782-12.785156-6.355468-7.261719-8.078124-17.921875-8.921874-27.390625-1.023438-11.484375-1.101563-23.132813-.230469-34.628907.539062-7.09375 1.554687-12.605468 4.765625-16.453124 5.011718-6.003907 14.875-6.882813 23.726562-7.234376 12.90625-.507812 26.007813-.925781 38.945313-1.230468 22.867187-.542969 46.058593-.765625 68.925781-.664063 9.269531.042969 18.703125.175781 27.828125.300781l7.546875.101563c8.261719.09375 12.710938.382813 15.734375 5.554687 2.660156 4.550782 3.039063 10.46875 3.199219 16.136719.367187 13.164063-.261719 26.464844-1.859375 39.53125zm0 0"/><path d="m510.628906 337.820312c-2.671875-6.367187-8.976562-9.554687-13.148437-11.664062l-26.601563-13.433594c-1.417968-.71875-2.957031-1.609375-4.585937-2.554687-5.976563-3.460938-12.742188-7.390625-20.113281-6.691407-4.117188.386719-8.539063 1.039063-13.40625 1.96875-3.023438-5.113281-8.457032-7.863281-12.183594-9.742187-8.484375-4.296875-16.984375-8.59375-25.480469-12.890625l-1.109375-.558594c-1.417969-.71875-2.957031-1.609375-4.585938-2.554687-5.980468-3.460938-12.746093-7.386719-20.109374-6.691407-12.433594 1.175782-25.183594 4.492188-37.515626 7.695313-6.46875 1.683594-12.582031 3.273437-18.648437 4.574219-2.269531.488281-3.90625 2.476562-3.949219 4.800781-.34375 19.378906-.6875 38.75-1.019531 58.117187-.074219 3.832032-.179687 9.082032 2.734375 13.597657 2.601562 4.039062 6.808594 6.167969 9.882812 7.726562l3.441407 1.742188c-2.921875.722656-5.800781 1.40625-8.667969 2.023437-2.273438.488282-3.910156 2.476563-3.953125 4.800782l-1.03125 58.117187c-.0625 3.835937-.148437 9.089844 2.738281 13.582031 2.597656 4.0625 6.816406 6.191406 9.890625 7.738282l48.988281 24.796874c.707032.359376 1.480469.539063 2.257813.539063.640625 0 1.277344-.125 1.886719-.371094l54.035156-21.980469c1.75-.714843 2.953125-2.355468 3.097656-4.242187l2.882813-36.699219c3.4375 1.730469 6.867187 3.464844 10.296875 5.203125.707031.359375 1.484375.539063 2.261718.539063.636719 0 1.273438-.121094 1.878907-.367188 9.011719-3.660156 18.015625-7.324218 27.019531-10.984375 9.003906-3.664062 18.011719-7.328125 27.019531-10.984375 1.753907-.714844 2.953125-2.355468 3.101563-4.242187.648437-8.3125 1.304687-16.617188 1.957031-24.921875l1.886719-24.015625c.273437-3.472657.617187-7.789063-1.148438-11.972657zm-82.414062-21.199218c.855468-.191406 1.714844-.394532 2.5625-.578125 6.140625-1.296875 11.488281-2.152344 16.34375-2.613281 4.175781-.394532 9.480468 2.679687 14.15625 5.390624 1.679687.972657 3.414062 1.976563 5.089844 2.824219 9.890624 4.996094 22.410156 8.007813 30.625 15.917969l-37.570313 8.730469c-1.558594.363281-3.027344.703125-4.253906.664062-1.492188-.050781-3.167969-.667969-5.207031-1.472656-16.28125-6.421875-32.1875-14.070313-47.40625-22.757813 2.863281-.589843 5.734374-1.132812 8.570312-1.871093 2.371094-.617188 4.773438-1.234375 7.183594-1.847657 2.519531-.640624 5.046875-1.273437 7.566406-1.863281.78125-.183593 1.558594-.347656 2.339844-.523437zm-47.863282 95.910156c-.472656-.082031-1.3125-.558594-2.058593-.976562l-52.511719-29.679688c3.296875-1.785156 7.46875-2.59375 10.621094-3.414062.035156-.011719 3.183594-.828126 3.183594-.828126 11.398437-2.945312 22.507812-5.675781 33.082031-6.667968 4.136719-.394532 9.417969 2.652344 14.074219 5.34375l.910156.523437c1.585937.921875 2.914062 1.671875 4.253906 2.347657 0 0 12.632812 6.382812 12.65625 6.394531 5.917969 2.988281 13.820312 5.765625 18.042969 11.492187-12.808594 5.453125-25.972657 10.429688-39.167969 14.785156-.957031.320313-2.402344.796876-3.085938.679688zm-15.613281-86.089844c.46875-.007812.910157-.023437 1.3125-.039062 1.679688-.070313 3.394531-.128906 5.128907-.191406 4.84375-.171876 9.785156-.347657 14.648437-.734376-.589844 4.1875 0 8.683594-.074219 12.890626-.050781 2.707031-2.039062 24.996093-.453125 25.769531-.074219-.039063-.152343-.070313-.230469-.109375-.34375-.164063-.6875-.324219-1.039062-.480469-.144531-.066406-.289062-.136719-.4375-.199219-.472656-.207031-.949219-.40625-1.425781-.59375-.144531-.058594-.289063-.105468-.429688-.160156-.351562-.132812-.707031-.261719-1.0625-.378906-.1875-.0625-.378906-.125-.566406-.183594-.335937-.105469-.671875-.203125-1.007813-.292969-.179687-.050781-.359374-.101562-.539062-.144531-.492188-.125-.988281-.234375-1.488281-.324219-.121094-.023437-.246094-.039062-.367188-.058593-.398437-.066407-.796875-.121094-1.199219-.164063-.1875-.019531-.375-.03125-.566406-.046875-3.453125-.269531-7.332031.105469-11.246094.757812-.121093-11.746093.226563-23.601562 1.042969-35.316406zm5.503907-43.480468c4.179687-.402344 9.476562 2.679687 14.15625 5.390624 1.679687.972657 3.414062 1.980469 5.089843 2.824219l1.105469.558594c8.496094 4.296875 16.996094 8.59375 25.488281 12.890625 2.042969 1.03125 4 2.070312 5.558594 3.246094-.441406.109375-.875.222656-1.3125.328125-1.4375.351562-2.871094.707031-4.300781 1.070312-.601563.152344-1.203125.300781-1.804688.457031-1.886718.484376-3.761718.96875-5.621094 1.453126-4.125 1.074218-9.898437 1.492187-14.476562 3.292968-.117188.011719-.230469.003906-.347656.023438-7.179688 1.164062-15.195313 1.449218-22.949219 1.722656-1.757813.0625-3.492187.121094-5.195313.191406-.953124.039063-2.136718.089844-2.859374-.113281-.785157-.222656-1.785157-.933594-2.847657-1.691406-11.371093-8.097657-23.132812-15.90625-35.042969-23.265625 12.996094-3.210938 42.242188-8.085938 45.359376-8.378906zm-50.929688 73.414062c-1.167969-1.808594-1.210938-4.683594-1.144531-8 .324219-16.382812.433593-32.746094.511719-49.113281 12.050781 7.417969 23.953124 15.304687 35.445312 23.488281.265625.1875.550781.386719.839844.589844-.015625.101562-.046875.199218-.058594.308594-.988281 13.324218-1.386719 26.847656-1.1875 40.214843-1.699219.40625-3.34375.804688-4.878906 1.167969-.796875.183594-1.589844.371094-2.386719.5625-.636719.152344-1.273437.3125-1.90625.46875-.820313.203125-1.640625.402344-2.457031.609375-.617188.15625-1.234375.3125-1.851563.472656-.441406.109375-.882812.21875-1.328125.335938l-13.609375-6.890625c-2.277343-1.148438-4.855469-2.453125-5.988281-4.214844zm26.953125 101.609375c-6.183594-3.128906-12.367187-6.257813-18.550781-9.386719-2.273438-1.148437-4.851563-2.449218-5.980469-4.210937-1.164063-1.8125-1.214844-4.585938-1.15625-8.011719.191406-10.824219.382813-21.648438.574219-32.472656.066406-3.675782-1.058594-9.199219-.789063-13.601563l52.066407 29.425781c-1.644532 16.769532-2.800782 33.789063-3.445313 50.65625-3.046875-1.453124-6.105469-3.988281-8.71875-5.3125-4.667969-2.359374-9.332031-4.722656-14-7.085937zm80.15625-39.628906c-.867187 11.351562-1.785156 22.699219-2.675781 34.050781-13.765625 5.597656-29.664063 15.050781-44.746094 18.191406.621094-16.039062 1.695312-32.203125 3.226562-48.160156 1.699219-.214844 3.199219-.710938 4.347657-1.085938 13.378906-4.417968 26.722656-9.460937 39.710937-14.984374.015625.105468.035156.210937.050782.316406.5625 3.84375.375 7.847656.085937 11.671875zm10.78125-9.570313c0-.003906.113281-1.457031.113281-1.457031.070313-.863281.140625-1.785156.183594-2.738281.132812-2.871094-.007812-6.082032-1.332031-9.234375-2.007813-4.78125-6.0625-7.765625-9.722657-9.851563-1.222656-.691406-2.398437-1.285156-3.441406-1.8125-4.640625-2.339844-9.28125-4.6875-13.925781-7.039062l-12.664063-6.394532c-.351562-.179687-.714843-.371093-1.085937-.574218-.039063-.019532-.078125-.042969-.117187-.0625-1.480469-.800782.339843-19.632813.382812-22.050782.101562-5.878906-.023438-11.652343-.296875-17.488281 16.328125 9.476563 33.449219 17.78125 50.992187 24.703125.886719.351563 1.90625.75 3.023438 1.113282-2.121094 16.707031-3.699219 33.652343-4.675781 50.429687-.109375 1.867187-.226563 3.96875-.121094 6.171875-3.929687-.882812-7.429687-2.203125-7.3125-3.714844zm62.71875-35.761718c-.574219 7.28125-1.144531 14.558593-1.714844 21.84375-8.054687 3.273437-16.109375 6.546874-24.160156 9.824218-6.1875 2.515625-13.148437 7.054688-19.332031 8.84375-.019532.003906-.046875.007813-.066406.015625-.257813-1.933593-.175782-4.121093-.027344-6.640625.976562-16.753906 2.558594-33.6875 4.691406-50.367187.824219-.15625 1.621094-.332031 2.371094-.507813l40.355468-9.378906c.136719.75.242188 1.519531.3125 2.304688.664063 7.8125-1.886718 17.152343-2.429687 24.0625zm0 0"/><path d="m212.753906 251.574219c-40.8125 3.808593-82.1875 3.710937-122.980468-.285157-2.761719-.269531-5.195313 1.738282-5.464844 4.488282-.269532 2.746094 1.738281 5.191406 4.488281 5.460937 21.21875 2.082031 42.59375 3.121094 63.96875 3.121094 20.351563 0 40.703125-.941406 60.917969-2.828125 2.75-.257812 4.769531-2.695312 4.511718-5.445312-.253906-2.746094-2.683593-4.761719-5.441406-4.511719zm0 0"/><path d="m194.753906 281.171875c-32.5625 3.582031-65.464844 2.707031-97.792968-2.601563-2.722657-.445312-5.296876 1.402344-5.746094 4.125-.445313 2.726563 1.398437 5.296876 4.125 5.746094 19.863281 3.257813 39.9375 4.890625 60.019531 4.890625 13.511719 0 27.027344-.738281 40.488281-2.214843 2.746094-.304688 4.726563-2.773438 4.421875-5.519532-.300781-2.746094-2.773437-4.722656-5.515625-4.425781zm0 0"/></svg>