<svg height="511pt" viewBox="-132 0 511 511.99925" width="511pt" xmlns="http://www.w3.org/2000/svg"><path d="m246.046875 158.546875c-6.054687-22.769531-25.347656-41.769531-48.175781-47.582031 1.660156-8.90625.320312-18.03125-4.035156-25.535156-.296876-.507813-.679688-.929688-1.105469-1.289063 2.3125-5.332031 3.464843-11.613281 3.351562-18.5625-.25-15.734375-7.324219-36.46875-22.554687-47.328125-34.929688-24.902344-62.886719-18.9375-76.445313-13.164062-13.015625 5.542968-24.125 15.363281-31.273437 27.644531-.527344.910156-1.039063 1.839843-1.515625 2.757812-1.378907 2.664063-2.996094 6.230469-3.253907 10.234375-.40625 6.335938 2.203126 10.058594 4.464844 12.066406.144532.125.296875.230469.441406.347657-.082031.136719-.171874.261719-.242187.410156-8.121094 17.875-10.371094 33.988281-6.679687 47.890625.152343.574219.335937 1.144531.507812 1.714844-18.664062 7.472656-33.921875 18.636718-44.234375 32.425781-12.652344 16.917969-17.605469 38.113281-13.246094 56.695313 4.148438 17.664062 17.167969 32.441406 33.046875 38.441406 8.707032 89.296875 31.074219 176.355468 66.507813 258.800781 1.996093 4.644531 6.671875 15.527344 16.773437 17.269531.839844.144532 1.691406.214844 2.550782.214844 5.140624 0 10.46875-2.546875 14.390624-7.003906 3.71875-4.226563 5.800782-9.484375 7.476563-13.710938 34.242187-86.378906 63.128906-175.855468 85.855469-265.949218.203125-.792969.179687-1.585938.007812-2.332032 16.367188-16.421875 23.347656-42.039062 17.386719-64.457031zm-175.027344-112.183594c.136719-2.132812 1.164063-4.367187 2.148438-6.273437.402343-.777344.835937-1.558594 1.28125-2.328125 6.074219-10.433594 15.503906-18.769531 26.550781-23.472657 11.632812-4.953124 35.765625-9.964843 66.722656 12.105469 12.324219 8.785157 18.15625 26.554688 18.363282 39.34375.089843 5.570313-.773438 13.433594-5.382813 19.257813-3.964844 5.015625-10.503906 7.375-15.542969 5.609375-3.003906-1.054688-5.8125-3.644531-7.710937-7.105469-1.6875-3.085938-2.785157-6.894531-3.457031-11.980469-.617188-4.707031-1.769532-13.46875-9.511719-15.882812-5.769531-1.796875-11.972657 1.394531-16.605469 8.53125-6.046875 9.3125-9.988281 20.058593-11.402344 31.070312-.074218.554688-.140625 1.109375-.203125 1.667969-.253906 2.167969-.492187 4.214844-1.105469 5.9375-.589843 1.644531-1.613281 2.925781-2.613281 3.273438-1.179687.402343-3.027343-.351563-4.21875-1.710938-1.355469-1.550781-2.296875-3.90625-2.960937-7.414062-1.21875-6.398438-1.09375-13.140626.355468-19.496094.171876-.753906.363282-1.507813.550782-2.257813.589844-2.339843 1.199218-4.753906 1.398437-7.410156.355469-4.855469-.933593-9.203125-3.625-12.242187-3.515625-3.960938-8.4375-4.953126-12.671875-4.953126-2.984375 0-5.628906.492188-7.195312.785157-5.414063 1.007812-10.144532.574219-12.042969-1.113281-.355469-.3125-1.300781-1.148438-1.121094-3.941407zm3.789063 16.324219c.140625-.3125.246094-.632812.320312-.953125 4.066406.5 8.113282.03125 10.886719-.484375 5.597656-1.042969 9.050781-.722656 10.550781.972656.878906.988282 1.289063 2.761719 1.136719 4.871094-.132813 1.785156-.613281 3.6875-1.121094 5.695312-.207031.828126-.417969 1.652344-.605469 2.480469-1.753906 7.691407-1.902343 15.847657-.433593 23.59375.640625 3.347657 1.875 8.25 5.257812 12.121094 2.933594 3.355469 7.050781 5.234375 11.058594 5.234375 1.339844 0 2.667969-.210938 3.933594-.640625 3.941406-1.355469 7.144531-4.769531 8.789062-9.371094.996094-2.792969 1.328125-5.632812 1.621094-8.140625.058594-.519531.121094-1.035156.1875-1.550781 1.226563-9.535156 4.640625-18.835937 9.875-26.902344 2.046875-3.15625 4.273437-4.726562 5.242187-4.425781 1.636719.507812 2.339844 5.875 2.574219 7.640625.835938 6.347656 2.296875 11.265625 4.597657 15.472656 3.109374 5.6875 7.792968 9.855469 13.179687 11.742188 8.25 2.890625 18.050781.140625 24.75-6.671875 3.007813 7.421875 2.472656 16.714844-1.597656 24.550781-4.316407 8.316406-12.265625 15.164063-22.378907 19.28125-8.707031 3.542969-18.867187 5.148437-31.054687 4.914063-15.203125-.296876-28.269531-3.40625-38.835937-9.25-12.179688-6.734376-20.949219-17.300782-24.050782-28.996094-3.085937-11.613282-1.027344-25.46875 6.117188-41.183594zm-63.019532 132.304688c-3.691406-15.742188.609376-33.84375 11.515626-48.421876 9.234374-12.351562 23.0625-22.402343 40.085937-29.191406 5.273437 9.792969 13.796875 18.316406 24.515625 24.242188 12.003906 6.636718 26.632812 10.164062 43.476562 10.492187.847657.015625 1.6875.023438 2.519532.023438 3 0 5.894531-.113281 8.691406-.328125.054688.035156.097656.078125.152344.113281 1.542968.917969 2.664062 3.207031 3.648437 5.539063 8.53125 20.265624 9.738281 43.734374 10.902344 66.433593l.011719.207031c1.292968 25.121094-.140625 48.917969-4.265625 70.730469-.773438 4.097657-1.691407 8.390625-3.628907 11.902344-1.808593 3.28125-4.527343 5.617187-7.273437 6.25-4.839844 1.113281-10.058594-2.859375-12.316406-7.335937-2.816407-5.585938-2.835938-12.460938-2.441407-19.0625.066407-1.125.148438-2.25.226563-3.378907.449219-6.496093.914063-13.210937-.5625-19.984375-1.375-6.304687-5.097656-10.378906-9.957031-10.898437-4.265625-.453125-8.527344 2.117187-10.625 6.402343-1.476563 3.007813-1.660156 6.070313-1.828125 8.835938-.242188 3.972656-.542969 7.511719-1.808594 10.519531-1.152344 2.742188-3.164063 4.738281-5.246094 5.214844-3.546875.808594-7.558593-2.75-9.089843-6.578125-1.660157-4.148438-1.714844-9.007812-1.769532-14.152344-.011718-1.046875-.023437-2.089844-.046875-3.125-.15625-6.636718-1.042969-15.054687-6.558593-21.285156-4.050782-4.578125-10.171876-7.449219-18.1875-8.535156-2.757813-.371094-5.488282-.527344-8.125-.675782-3.015626-.171874-5.859376-.332031-8.617188-.792968-15.699219-2.628906-29.433594-16.265625-33.398438-33.160156zm33.613282 43.289062c2.65625.34375 5.28125.503906 7.832031.648438 2.5625.144531 4.980469.28125 7.355469.601562 5.570312.753906 9.621094 2.519531 12.035156 5.253906 3.367188 3.800782 3.933594 9.957032 4.050781 14.894532.023438.992187.03125 1.992187.042969 2.996093.132812 12.292969 6.523438 34.164063 23.085938 30.371094 5.25-1.199219 9.820312-5.34375 12.238281-11.089844 1.871093-4.453125 2.285156-9.0625 2.578125-13.855469.117187-1.933593.226562-3.765624.820312-4.976562.167969-.339844.402344-.59375.585938-.738281.339844.394531.898437 1.375 1.246094 2.964843 1.175781 5.378907.777343 11.105469.355468 17.164063-.082031 1.160156-.160156 2.316406-.230468 3.472656-.355469 5.898438-.402344 11.871094.804687 17.289063-19.960937 6.898437-42.054687 8.140625-62.640625 3.484375-1.203125-7.039063-2.183594-14.113281-3.449219-21.121094-.78125-4.335937-5.765625-47.238281-6.710937-47.359375zm12.222656 79.113281c7.5625 1.425781 15.277344 2.144531 23 2.144531 14.105469 0 28.230469-2.359374 41.476562-7.015624 1.832032 2.640624 4.296876 4.964843 7.601563 6.832031 9.117187 5.152343 16.285156 5.632812 24.277344-1.40625 5.921875-5.214844 8.144531-13.179688 9.636719-20.832031.441406-.007813.886718-.066407 1.332031-.199219 13.328125-3.914063 26.214843-9.238281 38.433593-15.828125-6.050781 21.421875-12.445312 42.746094-19.167968 63.964844-.746094.023437-1.5.195312-2.203125.570312-27.5 14.75-58.527344 22.980469-89.722657 23.800781-6.675781.171875-14.460937.0625-21.601562-2.097656-.722656-.21875-1.453125-.253906-2.15625-.152344-4.230469-16.304687-7.113281-33.035156-10.839844-49.472656-.023437-.101563-.042968-.203125-.066406-.308594zm75.875 170.207031c-1.53125 3.867188-3.117188 7.867188-5.6875 10.789063-2.261719 2.570313-5.304688 3.957031-7.734375 3.539063-4.214844-.726563-7.175781-6.453126-9.285156-11.363282-7.671875-17.84375-14.816407-36.222656-21.351563-54.855468 7.699219 1.804687 15.601563 2.699218 23.511719 2.699218 14.414063 0 28.835937-2.96875 42.027344-8.753906-1.800781 5.3125-3.550781 10.636719-5.214844 15.976562-4.402344 14.144532-10.785156 28.148438-16.265625 41.96875zm26.195312-71.5c-22.175781 12.769532-49.742187 15.804688-74.171874 8.179688-5.164063-15.402344-9.894532-30.933594-14.144532-46.453125 5.777344 1.308594 11.582032 1.652344 16.925782 1.652344 1.453124 0 2.871093-.023438 4.246093-.058594 30.277344-.796875 60.394531-8.253906 87.582031-21.609375-.195312.605469-.386718 1.214844-.585937 1.820312-6.160156 18.980469-13.199219 37.6875-19.851563 56.46875zm53.078126-169.335937c-1.839844 6.964844-3.722657 13.914063-5.636719 20.855469-.363281.113281-.71875.261718-1.0625.464844-12.765625 7.648437-26.421875 13.75-40.617188 18.207031 1.953125-13.941407 2.195313-28.09375 2.296875-42.152344 3.300782.460937 6.585938.699219 9.84375.699219 13.714844 0 26.945313-4.046875 38.769532-11.847656-1.851563 1.222656-2.972657 11.425781-3.59375 13.773437zm7.5625-29.609375c-14.960938 14.019531-33.585938 19.960938-52.660157 16.867188-.078125-3.453126-.199219-6.929688-.378906-10.433594l-.011719-.210938c-1.15625-22.460937-2.464844-47.917968-11.675781-69.796875-.476563-1.140625-1.003906-2.28125-1.597656-3.390625 4.375-.917968 8.5-2.144531 12.390625-3.726562 12.3125-5.011719 22.074218-13.511719 27.484375-23.933594.34375-.664062.664062-1.339844.96875-2.015625 19.65625 4.765625 36.328125 21.050781 41.527343 40.601563 5.222657 19.628906-1.230468 42.152343-16.046874 56.039062zm0 0"/></svg>