<?xml version="1.0" ?><!DOCTYPE svg  PUBLIC '-//W3C//DTD SVG 1.1//EN'  'http://www.w3.org/Graphics/SVG/1.1/DTD/svg11.dtd'><svg height="512px" style="enable-background:new 0 0 512 512;" version="1.1" viewBox="0 0 512 512" width="512px" xml:space="preserve" xmlns="http://www.w3.org/2000/svg" xmlns:xlink="http://www.w3.org/1999/xlink"><g id="_x37_13_x2C__love_x2C__card_x2C__valentine_x2C__heart"><g><path d="M441,112.911c6.67,6.67,7.11,17.04,1,23.16c-11.08,11.08-29.47,5.31-52.63,4.31    c-1-23.16-6.78-41.56,4.3-52.64c6.11-6.12,16.49-5.67,23.17,1.02c6.04,6.03,6.29,11.82,3.771,20.38    C429.17,106.621,434.96,106.871,441,112.911z" style="fill:#EF3E5C;"/><g><g><g><path d="M401.499,95.741c4.944-4.953,12.684-5.599,18.997-2.122c-0.846-1.641-2.037-3.242-3.656-4.858       c-6.68-6.69-17.06-7.14-23.17-1.02c-11.08,11.08-5.3,29.48-4.3,52.64c2.507,0.108,4.955,0.274,7.347,0.467       C395.121,121.228,391.649,105.59,401.499,95.741z" style="fill:#E42A53;"/></g></g></g><path d="M358.62,47.011c10.16,10.15,4.85,27.02,3.939,48.25c-21.229,0.92-38.09,6.21-48.239-3.95    c-5.61-5.6-5.2-15.11,0.92-21.23c5.529-5.53,10.84-5.76,18.68-3.45c-2.31-7.85-2.08-13.15,3.46-18.69    C343.51,41.811,353.01,41.401,358.62,47.011z" style="fill:#EF3E5C;"/><g><g><g><path d="M358.62,47.011c-5.61-5.61-15.11-5.2-21.24,0.93c-3.28,3.28-4.688,6.48-4.82,10.171       c6.095-4.815,14.559-4.769,19.727,0.399c8.307,8.298,6.272,21.091,4.757,37.083c1.805-0.136,3.643-0.252,5.517-0.333       C363.47,74.031,368.78,57.161,358.62,47.011z" style="fill:#E42A53;"/></g></g></g><path d="M196.76,70.081c6.12,6.12,6.53,15.63,0.92,21.23c-10.15,10.16-27.01,4.87-48.24,3.95    c-0.91-21.23-6.22-38.1,3.94-48.25c5.61-5.61,15.11-5.2,21.24,0.93c5.54,5.54,5.77,10.84,3.46,18.69    C185.92,64.321,191.23,64.551,196.76,70.081z" style="fill:#EF3E5C;"/><g><g><g><path d="M161.38,55.185c4.401-4.4,11.189-5.08,16.873-2.217c-0.781-1.704-1.961-3.355-3.633-5.026       c-6.13-6.13-15.63-6.54-21.24-0.93c-10.16,10.15-4.85,27.02-3.94,48.25c2.564,0.111,5.064,0.287,7.497,0.491       C155.452,78.129,152.479,64.077,161.38,55.185z" style="fill:#E42A53;"/></g></g></g><path d="M118.33,87.741c11.08,11.08,5.3,29.48,4.3,52.64c-23.16,1-41.55,6.77-52.63-4.31    c-6.11-6.12-5.67-16.49,1-23.16c6.04-6.04,11.83-6.29,20.39-3.77c-2.52-8.56-2.27-14.35,3.77-20.38    C101.85,82.071,112.22,81.621,118.33,87.741z" style="fill:#EF3E5C;"/><g><g><g><path d="M118.33,87.741c-6.11-6.12-16.48-5.67-23.17,1.02c-2.443,2.439-3.926,4.842-4.674,7.401       c6.505-4.241,14.901-3.85,20.154,1.412c9.537,9.537,6.584,24.5,4.938,43.25c2.298-0.183,4.647-0.339,7.051-0.443       C123.63,117.221,129.41,98.821,118.33,87.741z" style="fill:#E42A53;"/></g></g></g><path d="M287.57,160.771c-24.19,2.09-48.61-0.79-71.72-8.5c6.01-5.75,11.65-11.95,16.85-18.56    c5.2-6.61,9.96-13.63,14.24-21.03C257.68,131.291,271.52,147.481,287.57,160.771z" style="fill:#924B35;"/><g><g><g><path d="M286.16,160.875c0.47-0.037,0.94-0.063,1.41-0.104c-5.542-4.589-10.813-9.531-15.792-14.792       C276.297,151.24,281.102,156.21,286.16,160.875z" style="fill:#743629;"/></g><g><path d="M238.45,140.086c4.841-6.155,9.284-12.679,13.33-19.519c-1.673-2.58-3.292-5.205-4.84-7.886       c-4.28,7.4-9.04,14.42-14.24,21.03c-5.2,6.61-10.84,12.81-16.85,18.56c3.088,1.03,6.202,1.968,9.333,2.825       C229.858,150.363,234.3,145.361,238.45,140.086z" style="fill:#743629;"/></g></g></g><path d="M401.2,201.751c-10.74,18.61-17.851,38.68-21.33,59.229c-13.91-19.91-23.62-42.5-28.5-66.37    C367.35,199.271,384.1,201.751,401.2,201.751z" style="fill:#924B35;"/><g><g><g><path d="M397.124,209.23c1.296-2.517,2.652-5.012,4.076-7.479c-17.101,0-33.851-2.48-49.83-7.14       c0.586,2.865,1.245,5.71,1.969,8.536C367.461,206.938,382.149,209.033,397.124,209.23z" style="fill:#743629;"/></g><g><path d="M379.633,260.633c0.08,0.115,0.156,0.232,0.237,0.348c0.394-2.322,0.839-4.637,1.325-6.945       C380.634,256.227,380.109,258.426,379.633,260.633z" style="fill:#743629;"/></g></g></g><path d="M382.46,333.15c1.98,8.09,4.53,16.061,7.65,23.871c3.12,7.809,6.81,15.439,11.09,22.85    c-21.49,0-42.42,3.891-61.96,11.141C349.53,369.021,364.23,349.311,382.46,333.15z" style="fill:#924B35;"/><path d="M375.585,340.15c1.98,8.09,4.53,16.061,7.65,23.871c2.191,5.484,4.682,10.877,7.442,16.172    c3.49-0.207,6.998-0.322,10.522-0.322c-4.28-7.41-7.97-15.041-11.09-22.85c-3.12-7.811-5.67-15.781-7.65-23.871    c-4.323,3.834-8.441,7.873-12.356,12.088C371.896,343.51,373.717,341.807,375.585,340.15z" style="fill:#743629;"/><path d="M278.03,429.352c-6.011,5.75-11.65,11.949-16.851,18.549c-5.2,6.611-9.959,13.631-14.24,21.041    c-10.75-18.611-24.58-34.801-40.63-48.09C230.5,418.762,254.92,421.641,278.03,429.352z" style="fill:#924B35;"/><path d="M206.31,420.852c1.374,1.137,2.726,2.305,4.067,3.484c18.398,0.219,36.717,3.281,54.278,9.141    c-6.011,5.75-11.65,11.949-16.851,18.549c-2.132,2.711-4.17,5.508-6.151,8.354c1.833,2.795,3.602,5.645,5.287,8.563    c4.28-7.41,9.04-14.43,14.24-21.041c5.2-6.6,10.84-12.799,16.851-18.549C254.92,421.641,230.5,418.762,206.31,420.852z" style="fill:#743629;"/><path d="M114.01,320.641c13.9,19.91,23.62,42.5,28.5,66.371c-15.98-4.66-32.73-7.141-49.84-7.141    C103.42,361.262,110.52,341.191,114.01,320.641z" style="fill:#924B35;"/><g><g><g><path d="M114.807,321.814c-0.268-0.391-0.526-0.785-0.797-1.174c-1.304,7.68-3.113,15.293-5.428,22.787       C111.124,336.332,113.193,329.113,114.807,321.814z" style="fill:#743629;"/></g><g><path d="M96.752,372.385c-1.298,2.52-2.656,5.016-4.083,7.486c17.11,0,33.86,2.48,49.84,7.141       c-0.6-2.938-1.275-5.854-2.021-8.748C126.378,374.545,111.708,372.52,96.752,372.385z" style="fill:#743629;"/></g></g></g><path d="M154.64,190.611c-10.29,21.99-24.99,41.7-43.23,57.86c-1.97-8.09-4.52-16.06-7.64-23.87    c-3.12-7.81-6.82-15.44-11.1-22.85C114.17,201.751,135.1,197.861,154.64,190.611z" style="fill:#924B35;"/><path d="M115.02,231.351c-3.12-7.81-6.82-15.44-11.1-22.85c15.18,0,30.074-1.948,44.397-5.64    c2.262-3.996,4.373-8.082,6.323-12.25c-19.54,7.25-40.47,11.14-61.97,11.14c4.28,7.41,7.98,15.04,11.1,22.85    c3.12,7.81,5.67,15.78,7.64,23.87c2.511-2.225,4.947-4.522,7.322-6.878C117.595,238.152,116.372,234.734,115.02,231.351z" style="fill:#743629;"/><path d="M291.75,218.321c24.81,0,44.89,20.08,44.89,44.839c0,44.84-44.89,70.371-89.729,115.211    c-44.84-44.84-89.67-70.371-89.67-115.211c0-24.759,20.08-44.839,44.83-44.839c22.42,0,33.63,11.21,44.84,33.63    C258.12,229.531,269.33,218.321,291.75,218.321z" style="fill:#EF3E5C;"/><g><g><g><path d="M174.439,270.654c0-24.759,20.08-44.839,44.83-44.839c3.296,0,6.344,0.249,9.191,0.734       c-6.96-5.482-15.303-8.229-26.39-8.229c-24.75,0-44.83,20.08-44.83,44.839c0,44.84,44.83,70.371,89.67,115.211       c1.557-1.557,3.113-3.088,4.667-4.6C211.283,336.086,174.439,311.305,174.439,270.654z" style="fill:#E42A53;"/></g></g></g><path d="M379.87,260.98c11.93,17.08,26.93,32.201,44.6,44.43c-15.47,7.311-29.55,16.711-42.01,27.74    c-18.229,16.16-32.93,35.871-43.22,57.861c-4.42,9.439-8.021,19.299-10.74,29.469c-2.72,10.18-4.56,20.67-5.44,31.381    c-14.06-9.74-29.239-17.24-45.029-22.51c-23.11-7.711-47.53-10.59-71.72-8.5c-10.38,0.889-20.72,2.699-30.89,5.43    s-20.18,6.379-29.89,10.969c1.4-17.039,0.31-33.939-3.02-50.238c-4.88-23.871-14.6-46.461-28.5-66.371    c-5.97-8.539-12.7-16.59-20.15-24.029c-7.45-7.451-15.62-14.291-24.45-20.4c15.46-7.311,29.55-16.711,42-27.74    c18.24-16.16,32.94-35.87,43.23-57.86c4.42-9.44,8.02-19.3,10.74-29.47c2.72-10.18,4.56-20.67,5.44-31.38    c14.06,9.74,29.24,17.24,45.03,22.51c23.11,7.71,47.53,10.59,71.72,8.5c10.38-0.89,20.72-2.7,30.89-5.43s20.18-6.38,29.89-10.97    c-1.399,17.04-0.31,33.94,3.021,50.24C356.25,218.481,365.96,241.071,379.87,260.98z M336.64,263.16    c0-24.759-20.08-44.839-44.89-44.839c-22.42,0-33.63,11.21-44.84,33.63c-11.21-22.42-22.42-33.63-44.84-33.63    c-24.75,0-44.83,20.08-44.83,44.839c0,44.84,44.83,70.371,89.67,115.211C291.75,333.531,336.64,308,336.64,263.16z" style="fill:#FFC592;"/><g><g><g><path d="M116.411,263.5c18.24-16.16,32.94-35.87,43.23-57.86c4.42-9.44,8.02-19.3,10.74-29.47       c2.72-10.18,4.56-20.67,5.44-31.38c14.06,9.74,29.24,17.24,45.03,22.51c23.11,7.71,47.53,10.59,71.72,8.5       c10.381-0.89,20.721-2.7,30.891-5.43c8.239-2.212,16.371-5.039,24.325-8.469c-0.098-5.815,0.082-11.664,0.563-17.531       c-9.71,4.59-19.72,8.24-29.89,10.97s-20.51,4.54-30.89,5.43c-24.19,2.09-48.61-0.79-71.72-8.5       c-15.79-5.27-30.97-12.77-45.03-22.51c-0.88,10.71-2.72,21.2-5.44,31.38c-2.72,10.17-6.32,20.03-10.74,29.47       c-10.29,21.99-24.99,41.7-43.23,57.86c-12.45,11.029-26.54,20.43-42,27.74c4.783,3.309,9.365,6.84,13.751,10.559       C95.214,280.23,106.355,272.408,116.411,263.5z" style="fill:#EFA873;"/></g></g></g><path d="M256,283.65h-54.37c-2.761,0-5-2.238-5-5s2.239-5,5-5H256c2.762,0,5,2.238,5,5    S258.762,283.65,256,283.65z" style="fill:#FFC230;"/><path d="M292.25,310.84h-81.56c-2.761,0-5-2.238-5-5s2.239-5,5-5h81.56c2.762,0,5,2.238,5,5    S295.012,310.84,292.25,310.84z" style="fill:#FFC230;"/></g></g><g id="Layer_1"/></svg>