<?xml version="1.0" ?><!DOCTYPE svg  PUBLIC '-//W3C//DTD SVG 1.1//EN'  'http://www.w3.org/Graphics/SVG/1.1/DTD/svg11.dtd'><svg height="512px" style="enable-background:new 0 0 512 512;" version="1.1" viewBox="0 0 512 512" width="512px" xml:space="preserve" xmlns="http://www.w3.org/2000/svg" xmlns:xlink="http://www.w3.org/1999/xlink"><g id="_x36_41_x2C__ring_x2C__merraige_x2C__wedding_x2C__love"><g><path d="M152.09,107.768c7.67,7.67,3.64,20.439,2.92,36.5c-16.05,0.71-28.81,4.739-36.48-2.931    c-4.239-4.24-3.909-11.43,0.721-16.06c4.189-4.2,8.21-4.38,14.14-2.641c-1.74-5.93-1.56-9.949,2.63-14.14    C140.67,103.857,147.859,103.527,152.09,107.768z" style="fill:#EF3E5C;"/><g><g><path d="M152.09,107.768c-4.23-4.24-11.42-3.91-16.07,0.729c-1.661,1.661-2.684,3.298-3.214,5.035      c3.869-1.237,8.087-0.469,10.95,2.401c6.417,6.417,4.646,16.404,3.474,28.9c2.496-0.235,5.091-0.447,7.78-0.566      C155.729,128.207,159.76,115.438,152.09,107.768z" style="fill:#E42A53;"/></g></g><path d="M242.729,88.567c6.78,6.779,7.25,17.279,1.061,23.46c-11.19,11.2-29.83,5.31-53.28,4.27    c-1.05-23.45-6.92-42.069,4.28-53.27c6.18-6.181,16.689-5.71,23.45,1.05c6.119,6.12,6.38,11.98,3.84,20.64    C230.75,82.188,236.609,82.447,242.729,88.567z" style="fill:#EF3E5C;"/><g><g><path d="M202.649,72.193c5.199-5.199,13.455-5.673,19.973-1.674c-0.839-2.202-2.247-4.308-4.382-6.442      c-6.761-6.76-17.271-7.23-23.45-1.05c-11.2,11.2-5.33,29.819-4.28,53.27c2.479,0.11,4.901,0.276,7.271,0.469      C196.103,97.402,192.872,81.971,202.649,72.193z" style="fill:#E42A53;"/></g></g><polygon points="383.14,109.707 401.38,139.677 378.54,172.537 369.58,185.438 360.99,197.797     359.92,199.337 344.13,222.067 326.76,198.747 326.12,197.877 316.52,184.987 306.89,172.058 282.78,139.677 301.03,109.707     340.56,109.707   " style="fill:#CAE8FB;"/><polygon points="308.649,121.017 348.179,121.017 390.022,121.017 383.14,109.707 340.56,109.707     301.03,109.707 282.78,139.677 290.76,150.395   " style="fill:#A8CFE2;"/><path d="M106.49,299.997c0,40.03,32.449,72.49,72.489,72.49c22.061,0,41.8-9.87,55.101-25.41    c6.27,14.351,15.31,27.221,26.45,37.92c-21.16,20.311-49.9,32.801-81.551,32.801c-65.06,0-117.8-52.74-117.8-117.801    c0-65.06,52.74-117.8,117.8-117.8c31.65,0,60.391,12.49,81.551,32.8c-11.141,10.7-20.19,23.561-26.461,37.92    c-13.29-15.55-33.029-25.41-55.09-25.41C138.939,227.507,106.49,259.957,106.49,299.997z" style="fill:#415A6B;"/><g><g><path d="M179.817,199.991c27.062,0,51.991,9.138,71.879,24.48c2.773-3.315,5.719-6.482,8.834-9.475      c-21.16-20.31-49.9-32.8-81.551-32.8c-65.06,0-117.8,52.74-117.8,117.8c0,4.902,0.305,9.733,0.887,14.479      C63.823,250.949,115.866,199.991,179.817,199.991z" style="fill:#324C5B;"/><path d="M234.08,347.077c-13.301,15.54-33.04,25.41-55.101,25.41c-35.836,0-65.572-26.01-71.425-60.169      c-0.136,1.809-0.228,3.63-0.228,5.474c0,40.029,32.45,72.49,72.49,72.49c22.06,0,41.8-9.871,55.1-25.41      c4.378,10.019,10.109,19.313,16.96,27.654c3.005-2.371,5.896-4.882,8.653-7.529C249.39,374.298,240.35,361.428,234.08,347.077z" style="fill:#324C5B;"/></g></g><path d="M326.76,198.747l17.37,23.32l15.79-22.73l1.07-1.54l8.59-12.359    c51.79,12.39,90.3,58.97,90.3,114.56c0,65.061-52.74,117.801-117.8,117.801c-31.65,0-60.38-12.49-81.55-32.801    c-11.141-10.699-20.181-23.569-26.45-37.92c-6.301-14.42-9.79-30.34-9.79-47.08c0-16.739,3.489-32.66,9.779-47.08    c6.271-14.359,15.32-27.22,26.461-37.92c15.3-14.67,34.55-25.26,55.989-30.01l9.601,12.89L326.76,198.747z M414.57,299.997    c0-40.04-32.45-72.49-72.49-72.49c-40.03,0-72.49,32.45-72.49,72.49c0,40.03,32.46,72.49,72.49,72.49    C382.12,372.487,414.57,340.027,414.57,299.997z" style="fill:#49BAA5;"/><g><g><path d="M346.858,381.836c40.04,0,72.49-32.46,72.49-72.49c0-13.741-3.823-26.588-10.462-37.536      c3.659,8.665,5.684,18.189,5.684,28.188c0,40.03-32.45,72.49-72.49,72.49c-26.295,0-49.321-14.007-62.029-34.964      C291.049,363.56,316.822,381.836,346.858,381.836z" style="fill:#3A9B88;"/><path d="M238.858,356.426c-6.301-14.42-9.79-30.34-9.79-47.08c0-16.739,3.489-32.66,9.779-47.079      c6.271-14.36,15.32-27.221,26.461-37.921c15.3-14.67,34.55-25.26,55.989-30.01l9.601,12.89l0.64,0.87l14.544,19.526      c1.729,0.094,3.436,0.265,5.13,0.478l13.486-19.414l1.07-1.54l8.59-12.359c32.131,7.687,59.139,28.539,75.022,56.533      c-14.85-32.671-44.185-57.361-79.801-65.882l-8.59,12.359l-1.07,1.54l-15.79,22.73l-17.37-23.32l-0.64-0.87l-9.601-12.89      c-21.439,4.75-40.689,15.34-55.989,30.01c-11.141,10.7-20.19,23.561-26.461,37.92c-6.29,14.42-9.779,30.341-9.779,47.08      c0,16.74,3.489,32.66,9.79,47.08c1.661,3.802,3.521,7.496,5.559,11.077C239.377,357.579,239.111,357.006,238.858,356.426z" style="fill:#3A9B88;"/></g></g><path d="M364.95,145.228h-72.49c-2.762,0-5-2.239-5-5c0-2.762,2.238-5,5-5h72.49c2.762,0,5,2.238,5,5    C369.95,142.988,367.712,145.228,364.95,145.228z" style="fill:#A8CFE2;"/><path d="M468.94,426.127H88.37c-2.762,0-5-2.238-5-5s2.238-5,5-5h380.57c2.762,0,5,2.238,5,5    S471.702,426.127,468.94,426.127z" style="fill:#743629;"/><path d="M423.63,453.317H43.06c-2.761,0-5-2.238-5-5s2.239-5,5-5h380.57c2.762,0,5,2.238,5,5    S426.392,453.317,423.63,453.317z" style="fill:#743629;"/></g></g><g id="Layer_1"/></svg>