<?xml version="1.0" ?><svg viewBox="0 0 64 64" xmlns="http://www.w3.org/2000/svg"><title/><g data-name="11 flirt" id="_11_flirt"><path d="M25.61,41.61a1,1,0,0,0,2,0,1.7,1.7,0,1,1,3.39,0,1,1,0,0,0,2,0,1.7,1.7,0,1,1,3.39,0,1,1,0,0,0,2,0A3.68,3.68,0,0,0,32,39.1a3.68,3.68,0,0,0-6.39,2.51ZM32,46c-7.43,0-13.54-5.06-14.12-11.48H46.12C45.54,40.94,39.43,46,32,46Z" style="fill:#b59b98"/><path d="M42.5,26A1.5,1.5,0,1,0,41,24.5,1.5,1.5,0,0,0,42.5,26Zm3.77-3.18a1.678,1.678,0,0,1-.48,1.89l-2.52,2.21a.916.916,0,0,1-1.22,0l-2.57-2.24a1.7,1.7,0,0,1,1.16-2.98,2.311,2.311,0,0,1,1.41.48,1,1,0,0,0,1.21,0,2.311,2.311,0,0,1,1.41-.48A1.672,1.672,0,0,1,46.27,22.82Z" style="fill:#c9c9df"/><path d="M29.42,22.75l-3.98,3.48a2.011,2.011,0,0,1-2.66,0L18.73,22.7a3.256,3.256,0,0,1,2.2-5.7,4.323,4.323,0,0,1,2.58.88.99.99,0,0,0,1.2,0A4.316,4.316,0,0,1,27.28,17a3.284,3.284,0,0,1,2.14,5.75ZM23,22.5A1.5,1.5,0,1,0,24.5,21,1.5,1.5,0,0,0,23,22.5Z" style="fill:#c9c9df"/><path d="M60.98,19.19a1.108,1.108,0,0,0,.02.19A26.668,26.668,0,0,1,53.75,37.5L33.36,59.25a1.907,1.907,0,0,1-2.72,0L10.25,37.5A26.761,26.761,0,0,1,3,19.38a1.108,1.108,0,0,0,.02-.19,15.48,15.48,0,0,1,28.16-8.42,1.045,1.045,0,0,0,1.64,0,15.48,15.48,0,0,1,28.16,8.42ZM47.11,26.22a3.718,3.718,0,0,0-2.43-6.52,4.285,4.285,0,0,0-2.02.5,4.448,4.448,0,0,0-2.09-.5,3.693,3.693,0,0,0-2.4,6.48l2.56,2.25a2.933,2.933,0,0,0,3.85,0ZM32,48c8.91,0,16.16-6.49,16.16-14.48a1,1,0,0,0-1-1H16.84a1,1,0,0,0-1,1C15.84,41.51,23.09,48,32,48ZM30.73,24.26A5.28,5.28,0,0,0,27.29,15a6.171,6.171,0,0,0-3.18.88A6.291,6.291,0,0,0,20.83,15a5.19,5.19,0,0,0-4.88,3.42,5.219,5.219,0,0,0,1.47,5.78l4.04,3.54a4.042,4.042,0,0,0,5.3,0Z" style="fill:#d83037"/><circle cx="42.5" cy="24.5" r="1.5" style="fill:#5c5cb3"/><circle cx="24.5" cy="22.5" r="1.5" style="fill:#5c5cb3"/><path d="M55.2,24.02a1,1,0,0,1,.78,1.18l-1,5A1,1,0,0,1,54,31a1.5,1.5,0,0,1-.2-.02,1,1,0,0,1-.78-1.18l1-5A1,1,0,0,1,55.2,24.02Z" style="fill:#f2ed8c"/><path d="M51.98,25.2l-1,5A1,1,0,0,1,50,31a1.5,1.5,0,0,1-.2-.02,1,1,0,0,1-.78-1.18l1-5a1,1,0,1,1,1.96.4Z" style="fill:#f2ed8c"/><path d="M14.98,29.8a1,1,0,0,1-.78,1.18A1.5,1.5,0,0,1,14,31a1,1,0,0,1-.98-.8l-1-5a1,1,0,1,1,1.96-.4Z" style="fill:#f2ed8c"/><path d="M9.98,24.8l1,5a1,1,0,0,1-.78,1.18A1.5,1.5,0,0,1,10,31a1,1,0,0,1-.98-.8l-1-5a1,1,0,1,1,1.96-.4Z" style="fill:#f2ed8c"/></g></svg>