<?xml version="1.0" ?><svg viewBox="0 0 64 64" xmlns="http://www.w3.org/2000/svg"><title/><g data-name="25 roll eyes" id="_25_roll_eyes"><path d="M26.9,26.02v.15a9.666,9.666,0,0,1-1.55-.37,14.8,14.8,0,0,0-4.28-.78,14.861,14.861,0,0,0-4.28.78,9.835,9.835,0,0,1-1.54.37.662.662,0,0,1-.01-.15c0-2.03,2.64-6.02,5.83-6.02S26.9,23.99,26.9,26.02ZM23,22.5A1.5,1.5,0,1,0,21.5,24,1.5,1.5,0,0,0,23,22.5Z" style="fill:#d0d0e0"/><path d="M48.76,26.02a.662.662,0,0,1-.01.15,9.835,9.835,0,0,1-1.54-.37,14.861,14.861,0,0,0-4.28-.78,14.8,14.8,0,0,0-4.28.78,9.666,9.666,0,0,1-1.55.37v-.15c0-2.03,2.64-6.02,5.83-6.02S48.76,23.99,48.76,26.02ZM44,22.5A1.5,1.5,0,1,0,42.5,24,1.5,1.5,0,0,0,44,22.5Z" style="fill:#d0d0e0"/><path d="M60.97,18.54a15.473,15.473,0,0,0-28.15-8.42,1.045,1.045,0,0,1-1.64,0A15.473,15.473,0,0,0,3.03,18.54c-.01.07-.02.13-.03.2a26.8,26.8,0,0,0,7.25,18.12l4.59,4.9L30.64,58.6a1.907,1.907,0,0,0,2.72,0l15.8-16.84,4.59-4.9A26.711,26.711,0,0,0,61,18.73C60.99,18.67,60.98,18.61,60.97,18.54ZM18,8a1,1,0,0,1,2,0v5a1,1,0,0,1-2,0ZM14,7a1,1,0,0,1,2,0v7a1,1,0,0,1-2,0Zm-.02,20.81a2.1,2.1,0,0,1-.74-1.79c0-3.17,3.51-8.02,7.83-8.02s7.83,4.85,7.83,8.02a2.1,2.1,0,0,1-.74,1.79c-.86.64-1.97.32-3.38-.1a13.292,13.292,0,0,0-3.71-.69,13.292,13.292,0,0,0-3.71.69,8.324,8.324,0,0,1-2.2.46A1.9,1.9,0,0,1,13.98,27.81ZM47.33,41a2.736,2.736,0,0,0-1.94.79A4.651,4.651,0,0,1,42.22,43a4.7,4.7,0,0,1-3.18-1.21A2.7,2.7,0,0,0,37.1,41a2.736,2.736,0,0,0-1.94.79,4.757,4.757,0,0,1-6.34,0,2.765,2.765,0,0,0-3.87,0,4.771,4.771,0,0,1-6.35,0A2.694,2.694,0,0,0,16.67,41a1,1,0,0,1-.71-.29,1.014,1.014,0,0,1-.29-.71,1,1,0,0,1,1-1,4.651,4.651,0,0,1,3.17,1.21,2.765,2.765,0,0,0,3.87,0,4.757,4.757,0,0,1,6.34,0,2.777,2.777,0,0,0,3.88,0,4.771,4.771,0,0,1,6.35,0,2.7,2.7,0,0,0,1.94.79,2.736,2.736,0,0,0,1.94-.79A4.651,4.651,0,0,1,47.33,39a1,1,0,0,1,1,1,1.014,1.014,0,0,1-.29.71A1,1,0,0,1,47.33,41Zm2.69-13.19a1.9,1.9,0,0,1-1.18.36,8.324,8.324,0,0,1-2.2-.46,13.292,13.292,0,0,0-3.71-.69,13.292,13.292,0,0,0-3.71.69c-1.41.42-2.52.74-3.38.1a2.1,2.1,0,0,1-.74-1.79c0-3.17,3.51-8.02,7.83-8.02s7.83,4.85,7.83,8.02A2.1,2.1,0,0,1,50.02,27.81Z" style="fill:#d83037"/><circle cx="42.5" cy="22.5" r="1.5" style="fill:#5c5cb3"/><circle cx="21.5" cy="22.5" r="1.5" style="fill:#5c5cb3"/><path d="M20,8v5a1,1,0,0,1-2,0V8a1,1,0,0,1,2,0Z" style="fill:#f2ed8c"/><path d="M16,7v7a1,1,0,0,1-2,0V7a1,1,0,0,1,2,0Z" style="fill:#f2ed8c"/></g></svg>