<?xml version="1.0" ?><!DOCTYPE svg  PUBLIC '-//W3C//DTD SVG 1.1//EN'  'http://www.w3.org/Graphics/SVG/1.1/DTD/svg11.dtd'><svg height="512px" style="enable-background:new 0 0 512 512;" version="1.1" viewBox="0 0 512 512" width="512px" xml:space="preserve" xmlns="http://www.w3.org/2000/svg" xmlns:xlink="http://www.w3.org/1999/xlink"><g id="_x36_29_x2C__frame_x2C___love_x2C__heart_x2C__wedding"><g><path d="M410.04,101.965v154.04H219.75v-154.04H410.04z M368.79,191.645c6.68-6.69,6.68-17.53,0-24.21    c-6.06-6.05-12.11-6.05-21.18-3.03c3.02-9.07,3.02-15.12-3.03-21.17c-6.69-6.7-17.54-6.7-24.22-0.02    c-12.101,12.1-6.88,31.11-6.88,55.32C337.69,198.535,356.68,203.745,368.79,191.645z M291.54,221.465    c0-15.23,3.28-27.18-4.33-34.8c-4.21-4.2-11.03-4.2-15.229,0c-3.811,3.81-3.811,7.62-1.91,13.33c-5.71-1.9-9.521-1.9-13.32,1.9    c-4.22,4.22-4.22,11.04-0.01,15.24C264.35,224.755,276.31,221.465,291.54,221.465z" style="fill:#FFECB2;"/><g><polygon points="229.5,112.125 410.04,112.125 410.04,101.965 219.75,101.965 219.75,256.005      229.5,256.005    " style="fill:#E5CF93;"/></g><path d="M368.79,167.435c6.68,6.68,6.68,17.52,0,24.21c-12.11,12.1-31.1,6.89-55.31,6.89    c0-24.21-5.221-43.22,6.88-55.32c6.68-6.68,17.529-6.68,24.22,0.02c6.05,6.05,6.05,12.1,3.03,21.17    C356.68,161.385,362.73,161.385,368.79,167.435z" style="fill:#EF3E5C;"/><g><g><g><path d="M354.36,173.991c7.89-2.627,13.495-2.964,18.809,0.975c-0.761-2.758-2.213-5.364-4.379-7.531       c-3.908-3.902-7.817-5.277-12.53-4.958C356.588,165.827,355.841,169.544,354.36,173.991z" style="fill:#E42A53;"/></g><g><path d="M327.11,152.801c6.013-6.014,15.396-6.595,22.092-1.767c-0.638-2.745-2.097-5.274-4.622-7.799       c-6.69-6.7-17.54-6.7-24.22-0.02c-12.101,12.1-6.88,31.11-6.88,55.32c2.218,0,4.392,0.044,6.521,0.114       C319.139,178.929,316.636,163.275,327.11,152.801z" style="fill:#E42A53;"/></g></g></g><path d="M287.21,186.665c7.61,7.62,4.33,19.57,4.33,34.8c-15.23,0-27.19,3.29-34.8-4.33    c-4.21-4.2-4.21-11.02,0.01-15.24c3.8-3.8,7.61-3.8,13.32-1.9c-1.9-5.71-1.9-9.52,1.91-13.33    C276.18,182.465,283,182.465,287.21,186.665z" style="fill:#EF3E5C;"/><g><g><g><path d="M262.792,206.962c-1.041-3.127-1.505-5.682-1.093-7.981c-1.745,0.394-3.349,1.314-4.949,2.914       c-1.199,1.199-2.046,2.612-2.563,4.112C256.646,205.378,259.378,205.826,262.792,206.962z" style="fill:#E42A53;"/></g><g><path d="M287.21,186.665c-4.21-4.2-11.03-4.2-15.229,0c-1.39,1.39-2.268,2.78-2.736,4.261       c3.663-1.084,7.792-0.182,10.688,2.706c6.443,6.452,5.08,16.008,4.511,28.03c2.278-0.111,4.646-0.197,7.098-0.197       C291.54,206.235,294.82,194.285,287.21,186.665z" style="fill:#E42A53;"/></g></g></g><path d="M437.22,310.375v36.24h-80.1H192.57v-144.98v-80.76v-46.1h109.8h2.87H437.22V310.375z     M410.04,256.005v-154.04H219.75v154.04H410.04z" style="fill:#FFC230;"/><g><polygon points="201.82,210.705 201.82,129.944 201.82,83.845 311.62,83.845 314.49,83.845 437.22,83.845      437.22,74.775 305.24,74.775 302.37,74.775 192.57,74.775 192.57,120.875 192.57,201.635 192.57,346.615 201.82,346.615    " style="fill:#E5A423;"/></g><path d="M364.73,382.865c10.01,0,18.13,8.109,18.13,18.119s-8.12,18.121-18.13,18.121    c-10,0-18.12-8.111-18.12-18.121S354.73,382.865,364.73,382.865z" style="fill:#FFECB2;"/><path d="M351.61,411.318c0-10.01,8.12-18.121,18.12-18.121c5.083,0,9.672,2.098,12.965,5.467    c-1.142-8.91-8.743-15.799-17.965-15.799c-10,0-18.12,8.109-18.12,18.119c0,4.928,1.975,9.389,5.165,12.654    C351.678,412.877,351.61,412.105,351.61,411.318z" style="fill:#E5CF93;"/><path d="M92.9,400.984c10.01,0,18.12,8.109,18.12,18.121c0,10.01-8.11,18.119-18.12,18.119    s-18.12-8.109-18.12-18.119C74.78,409.094,82.891,400.984,92.9,400.984z" style="fill:#FFC230;"/><path d="M95.4,411.484c6.622,0,12.396,3.561,15.558,8.863c0.027-0.412,0.063-0.824,0.063-1.242    c0-10.012-8.11-18.121-18.12-18.121s-18.12,8.109-18.12,18.121c0,3.387,0.945,6.545,2.563,9.258    C77.983,418.934,85.81,411.484,95.4,411.484z" style="fill:#E5A423;"/><path d="M101.96,83.845c10.011,0,18.12,8.11,18.12,18.12c0,10.01-8.109,18.12-18.12,18.12    c-10.01,0-18.12-8.11-18.12-18.12C83.84,91.955,91.95,83.845,101.96,83.845z" style="fill:#EF3E5C;"/><path d="M87.898,111.035c0-10.01,8.11-18.12,18.12-18.12c5.562,0,10.531,2.509,13.854,6.451    c-1.264-8.774-8.788-15.521-17.913-15.521c-10.01,0-18.12,8.11-18.12,18.12c0,4.448,1.607,8.516,4.266,11.668    C87.983,112.783,87.898,111.919,87.898,111.035z" style="fill:#E42A53;"/><polygon points="93.12,201.545 79.23,168.465 192.57,120.875 192.57,201.635 147.271,210.695     165.391,256.005 138.2,301.314 135.49,302.455 119.16,263.555   " style="fill:#924B35;"/><polygon points="129.91,271.471 103.87,209.46 89.98,176.38 192.57,133.303 192.57,120.875 79.23,168.465     93.12,201.545 119.16,263.555 135.49,302.455 138.2,301.314 140.694,297.158   " style="fill:#743629;"/><polygon points="357.12,346.615 309.87,366.455 184.46,419.105 135.49,302.455 138.2,301.314     165.391,256.005 147.271,210.695 192.57,201.635 192.57,346.615   " style="fill:#743629;"/><g><polygon points="202.265,351.619 345.2,351.619 357.12,346.615 202.265,346.615    " style="fill:#60281E;"/><polygon points="145.186,307.459 147.896,306.32 175.085,261.01 156.965,215.7 192.57,208.579      192.57,201.635 147.271,210.695 165.391,256.005 138.2,301.314 135.49,302.455 184.46,419.105 190.916,416.395    " style="fill:#60281E;"/></g><path d="M97.903,205.612c-1.972,0-3.841-1.174-4.631-3.113c-1.044-2.557,0.184-5.475,2.74-6.518l0.221-0.09    l63.129-27.057c2.538-1.091,5.478,0.088,6.565,2.626s-0.088,5.478-2.626,6.565L99.79,205.24    C99.172,205.492,98.532,205.612,97.903,205.612z" style="fill:#743629;"/><path d="M378.79,315.375H197.57c-2.762,0-5-2.238-5-5s2.238-5,5-5h181.22c2.762,0,5,2.238,5,5    S381.552,315.375,378.79,315.375z" style="fill:#E5A423;"/></g></g><g id="Layer_1"/></svg>