<?xml version="1.0" ?><svg viewBox="0 0 64 64" xmlns="http://www.w3.org/2000/svg"><title/><g data-name="23 joke" id="_23_joke"><path d="M32,33.64a62.252,62.252,0,0,0,9.09-.83c.98-.14,1.9-.27,2.77-.37A3.066,3.066,0,0,1,40.8,35.5H23.2a3.066,3.066,0,0,1-3.06-3.06c.86.1,1.8.23,2.77.37A62.252,62.252,0,0,0,32,33.64Z" style="fill:#b59b98"/><path d="M18.14,32.44A5.066,5.066,0,0,0,23.2,37.5H40.8a5.066,5.066,0,0,0,5.06-5.06v-.15a3.964,3.964,0,0,1,2.58.53c.14.12.56.48.56,1.75,0,5.48-7.63,9.93-17,9.93s-17-4.45-17-9.93c0-1.27.42-1.63.56-1.75a3.572,3.572,0,0,1,2.29-.54c.09,0,.2.01.29.01Z" style="fill:#eb979a"/><path d="M60.97,18.87a15.478,15.478,0,0,0-28.15-8.43,1.033,1.033,0,0,1-1.64,0A15.485,15.485,0,0,0,3.02,18.87a1.225,1.225,0,0,1-.02.19,26.78,26.78,0,0,0,7.25,18.12l4.35,4.64L30.64,58.93a1.907,1.907,0,0,0,2.72,0L49.4,41.82l4.35-4.64A26.711,26.711,0,0,0,61,19.05ZM11.71,22.64c0-3.44,3.83-6.14,8.72-6.14s8.71,2.7,8.71,6.14a1,1,0,0,1-2,0c0-2.24-3.07-4.14-6.71-4.14s-6.72,1.9-6.72,4.14a1,1,0,0,1-2,0Zm8.61,6.31A1.248,1.248,0,0,1,20,29a1,1,0,0,1-.95-.68l-1-3a1,1,0,1,1,1.9-.64l1,3A1.011,1.011,0,0,1,20.32,28.95Zm-4,0A1.248,1.248,0,0,1,16,29a1,1,0,0,1-.95-.68l-1-3a1,1,0,0,1,1.9-.64l1,3A1.011,1.011,0,0,1,16.32,28.95Zm31.93,11.8C44.91,44.2,38.88,46.5,32,46.5s-12.91-2.3-16.25-5.75A8.909,8.909,0,0,1,13,34.57a4.091,4.091,0,0,1,1.25-3.26c1.75-1.52,4.77-1.08,8.94-.48a60.817,60.817,0,0,0,8.81.81,60.817,60.817,0,0,0,8.81-.81c4.17-.6,7.19-1.04,8.94.48A4.091,4.091,0,0,1,51,34.57,8.909,8.909,0,0,1,48.25,40.75Zm-5.2-13.07,1-3a1,1,0,0,1,1.9.64l-1,3A1,1,0,0,1,44,29a1.248,1.248,0,0,1-.32-.05A1.011,1.011,0,0,1,43.05,27.68Zm4,0,1-3a1,1,0,0,1,1.9.64l-1,3A1,1,0,0,1,48,29a1.248,1.248,0,0,1-.32-.05A1.011,1.011,0,0,1,47.05,27.68Zm4.24-4.04a.99.99,0,0,1-1-1c0-2.24-3.08-4.14-6.72-4.14s-6.71,1.9-6.71,4.14a1,1,0,0,1-2,0c0-3.44,3.82-6.14,8.71-6.14s8.72,2.7,8.72,6.14A1,1,0,0,1,51.29,23.64Z" style="fill:#d83037"/><path d="M49.95,25.32l-1,3A1,1,0,0,1,48,29a1.248,1.248,0,0,1-.32-.05,1.011,1.011,0,0,1-.63-1.27l1-3a1,1,0,0,1,1.9.64Z" style="fill:#f2ed8c"/><path d="M45.95,25.32l-1,3A1,1,0,0,1,44,29a1.248,1.248,0,0,1-.32-.05,1.011,1.011,0,0,1-.63-1.27l1-3a1,1,0,0,1,1.9.64Z" style="fill:#f2ed8c"/><path d="M18.05,25.32a1,1,0,1,1,1.9-.64l1,3a1.011,1.011,0,0,1-.63,1.27A1.248,1.248,0,0,1,20,29a1,1,0,0,1-.95-.68Z" style="fill:#f2ed8c"/><path d="M16.95,27.68a1.011,1.011,0,0,1-.63,1.27A1.248,1.248,0,0,1,16,29a1,1,0,0,1-.95-.68l-1-3a1,1,0,0,1,1.9-.64Z" style="fill:#f2ed8c"/></g></svg>