<?xml version="1.0" ?><!DOCTYPE svg  PUBLIC '-//W3C//DTD SVG 1.1//EN'  'http://www.w3.org/Graphics/SVG/1.1/DTD/svg11.dtd'><svg enable-background="new 0 0 56 56" height="56px" id="Layer_1" version="1.1" viewBox="0 0 56 56" width="56px" xml:space="preserve" xmlns="http://www.w3.org/2000/svg" xmlns:xlink="http://www.w3.org/1999/xlink"><g><path clip-rule="evenodd" d="M42.779,27.648c-0.35-0.063-0.715-0.045-1.072-0.036   c-4.014,0.125-8.035-0.044-12.038,0.42c-0.635,0.08-1.225,0.144-1.332-0.813c-0.491-4.477-1.027-8.954-1.546-13.422   c0.045-0.009,0.099-0.009,0.143-0.019c0-0.67,0.018-1.341,0-2.011c-0.018-0.401-0.063-0.938-0.581-0.884   c-0.796,0.08-1.582-0.224-2.386-0.019c-5.604,1.483-9.616,4.906-12.136,10.09c-0.617,1.287-1.037,2.663-1.153,4.102   c-0.554,6.828,1.877,12.431,7.131,16.738c2.484,2.028,5.139,3.852,8.66,3.683c2.396-0.116,4.468-1.216,6.694-1.823   c5.782-1.572,9.759-7.417,9.731-12.869c0-0.652,0.019-1.296,0.465-1.895C43.816,28.274,43.521,27.773,42.779,27.648z    M31.867,42.591c-1.296,0.313-2.529,0.894-3.816,1.215c-2.02,0.519-3.95,0.232-5.827-0.741c-4.594-2.359-7.596-6.096-9.455-10.823   c-0.661-1.68-0.787-3.467-0.715-5.191c-0.554-5.335,4.987-12.708,10.349-14.075c3.021-0.777,2.859-0.894,3.137,2.162   c0.393,4.353,1.001,8.687,1.492,13.03c0.134,1.161,0.84,1.447,1.877,1.341c3.78-0.367,7.569-0.42,11.368-0.456   c0.974-0.01,1.26,0.205,1.25,1.251C41.501,36.022,37.676,41.161,31.867,42.591z" fill-rule="evenodd"/><path clip-rule="evenodd" d="M35.809,10.079c-1.377-0.697-2.824-1.082-4.29-1.027   c-2.351-0.027-2.333-0.036-2.028,2.242c0.205,1.511,0.286,3.021,0.215,4.54c-0.135,2.636-0.188,5.264-0.26,7.892   c-0.026,0.866,0.26,1.438,1.251,1.546c4.63,0.518,9.276-0.251,13.905,0.286c0.732,0.089,1.064-0.331,0.966-1.064   C44.727,18.05,41.733,13.073,35.809,10.079z M42.913,23.993c-3.602-0.286-7.212,0.313-10.822-0.08   c-0.992-0.107-1.269-0.402-1.243-1.367c0.126-3.781,0.546-7.569,0.082-11.358c-0.082-0.697,0.33-0.689,0.813-0.697   c1.725-0.045,3.227,0.643,4.629,1.527c4.084,2.529,6.613,6.148,7.471,10.903C44.039,24.002,44.004,24.074,42.913,23.993z" fill-rule="evenodd"/></g></svg>