<svg id="Capa_1" enable-background="new 0 0 512.014 512.014" height="512" viewBox="0 0 512.014 512.014" width="512" xmlns="http://www.w3.org/2000/svg"><g><g><path d="m510.044 216.764c-1.34-.652-2.949-.382-4.005.672-27.248 31.243-93.503-.348-137.355-.85 17.474-6.839 41.659-19.319 69.995-42.038 24.25-19.443 38.772-47.549 41.997-81.278 2.378-24.874-2.107-43.967-2.466-45.438-.689-3.592-6.203-3.526-6.839.059-6.027 25.688-22.005 46.367-48.845 63.22-13.818 8.677-29.794 15.843-45.883 21.832 13.172-15.052 22.486-36.965 27.252-64.473 4.647-26.823 3.428-49.211 3.373-50.151-.147-3.959-6.16-4.412-6.917-.53-.087.404-9.156 40.547-48.981 51.717-31.836 8.93-50.54 27.275-58.518 36.841-11.079-43.674-23.484-82.114-33.677-103.207-1.15-2.614-5.172-2.613-6.322 0-9.853 20.742-20.508 52.863-31.684 95.508-2.277-3.581-5.427-7.989-9.448-12.364-12.149-13.218-26.381-19.631-41.182-18.557-30.489 2.222-52.608-18.306-61.001-39.636-1.188-3.261-6.29-2.688-6.718.759-.101.67-2.439 16.64.392 38.373 2.251 17.282 8.308 41.095 23.983 62.544-38.435-14.118-79.216-42.979-86.538-81.877-.633-3.592-6.147-3.638-6.839-.06-.357 1.467-4.844 20.562-2.466 45.438 3.225 33.729 17.747 61.835 41.997 81.278 28.334 22.719 52.52 35.199 69.994 42.038-5.727.272-11.551.835-17.447 1.742-14.898 2.292-27.858 4.723-39.293 6.867-40.85 7.66-61.351 11.505-80.614-7.758-2.208-2.357-6.442-.297-5.949 2.894.179 1.484 4.556 36.76 19.94 72.657 16.986 39.633 40.806 63.918 69.608 71.357l4.902 143.109c.064 1.885 1.611 3.38 3.498 3.38h22.338c1.952.041 3.643-1.745 3.495-3.692l-7.715-140.403c67.648-1.23 117.429-20.073 134.801-27.649 3.256-1.42 6.948-1.425 10.205-.005 17.952 7.831 70.567 27.719 141.763 27.719 37.641 0 68.477-25.526 89.174-73.817 15.385-35.897 19.762-71.172 19.94-72.657.178-1.48-.602-2.912-1.945-3.564zm-35.715-135.058c6.911 78.875-98.953 131.326-133.747 135.76-32.183 3.463-58.937 14.503-73.815 21.867 17.679-19.325 31.435-28.592 65.387-45.323l34.242 5.372c4.45.783 5.597-6.278 1.084-6.915l-23.536-3.692c16.404-7.493 40.448-13.794 57.52-22.178l24.707.719c4.531.203 4.748-6.933.203-6.997l-12.559-.365c30.669-17.711 52.937-47.587 60.514-78.248zm-221.815-60.038v194.892c-1.176-3.375-2.545-6.884-4.144-10.464-8.251-18.475-20.181-33.242-35.195-43.791 3.012-14.049 20.056-91.597 39.339-140.637zm46.339 140.637c-15.014 10.55-26.944 25.316-35.195 43.791-1.599 3.58-2.968 7.089-4.144 10.464v-194.892c19.283 49.04 36.327 126.588 39.339 140.637zm127.397-45.266c19.559-12.281 33.699-26.553 42.733-43.217-1.405 6.743-3.61 14.434-7.052 22.521-5.235 12.304-12.299 23.339-21.133 33.088v-8.97c.066-4.542-7.067-4.54-7 0v16.08c-16.08 15.436-39.52 27.411-64.277 34.973l7.689-18.589c1.797-4.172-4.794-6.895-6.469-2.676l-10.105 24.428c-20.799 7.612-37.698 15.461-51.378 23.069l7.768-22.268c1.557-4.266-5.173-6.615-6.609-2.306l-10.467 30.007c-19.505 11.948-31.259 22.976-38.15 31.099 6.932-36.169 33.339-71.117 70.019-79.794 29.022-8.051 65.983-19.583 94.431-37.445zm-98.361 31.299c40.454-37.456 56.54-65.66 71.803-103.567-2.171 28.631-10.413 73.29-39.825 94.009zm25.372-72.093c15.45-4.333 26.649-12.432 34.699-21.194-16.103 34.457-35.83 66.655-82.911 102.781-1.706-7.847-5.255-23.746-10.019-42.862 3.953-5.478 22.425-28.682 58.231-38.725zm-187.274-1.351c22.154-2.26 44.328 15.264 52.686 33.42-5.698 22.405-9.929 41.382-11.784 49.932-3.872-2.296-7.923-4.337-12.146-6.113-34.165-22.244-58.933-65.203-72.674-94.222 11.25 10.07 26.283 18.781 43.918 16.983zm-57.11-29.266c4.519 10.763 11.572 26.142 20.975 42.401 14.056 24.304 29.082 43.569 44.92 57.646-10.91-3.121-22.666-6.728-34.488-10.954-27.087-29.601-31.382-67.947-31.407-89.093zm-23.098 71.411c15.409 9.676 33.315 17.481 51.105 23.895 58.926 18.382 97.536 25.525 113.335 93.333-6.892-8.122-18.645-19.145-38.14-31.087l-10.467-30.008c-1.433-4.311-8.168-1.959-6.609 2.306l7.768 22.269c-13.681-7.608-30.58-15.457-51.379-23.069l-10.105-24.428c-1.678-4.222-8.265-1.494-6.469 2.676l7.69 18.589c-23.396-7.196-47.141-18.608-64.277-34.974v-16.081c.066-4.542-7.067-4.54-7 0v8.968c-8.761-9.668-15.78-20.601-21.003-32.782-3.505-8.173-5.742-15.964-7.165-22.794 9.034 16.653 23.168 30.912 42.716 43.187zm-47.437-24.208c-.375-3.86-.573-7.586-.643-11.125 7.571 30.652 29.851 60.545 60.514 78.247l-12.56.365c-4.546.066-4.327 7.199.203 6.997l24.707-.719c7.097 3.442 14.856 6.61 23.354 9.41 12.661 4.172 24.011 8.459 34.18 12.766l-23.55 3.694c-4.514.639-3.365 7.697 1.084 6.915l34.241-5.371c37.269 17.392 56.167 34.511 65.25 45.254-14.906-7.365-41.596-18.35-73.688-21.8-9.277-1.549-45.556-9.77-93.707-48.377-23.006-18.448-36.258-44.104-39.385-76.256zm63.028 411.002-4.728-138.024c4.064.647 8.214.991 12.456.993l7.53 137.031zm384.188-213.474c-16.408 38-41.924 69.208-82.684 69.445-45.014-.156-91.522-5.117-132.271-24.419-11.085-5.251-15.533-5.719-27.371-.672-13.765 5.868-28.297 9.899-42.815 13.575-44.015 9.946-106.375 25.09-142.58-9.869-12.079-11.545-22.633-27.714-31.368-48.059-10.396-24.212-15.713-48.688-18.016-61.581 19.861 14.468 42.229 10.275 79.439 3.296 11.382-2.134 24.282-4.554 39.067-6.828 66.95-10.3 126.597 26.528 127.192 26.901 1.129.705 2.629.707 3.75-.017 1.272-.79 60.528-37.134 127.165-26.883 39.784 4.658 92.358 24.664 118.506 3.531-2.301 12.891-7.618 37.368-18.014 61.58z"/><path d="m447.003 263.522c2.168-3.393-2.697-7.2-5.471-4.285-15.426 15.424-38.304 9.478-64.792 2.595-17.004-4.419-34.587-8.988-53.032-8.988-32.624-.667-49.189 19.722-48.162 42.224.066.828.426 1.605 1.014 2.192 59.449 64.501 133.775 26.381 170.443-33.738zm-91.329 60.333c-24.879 3.013-49.492-7.269-73.177-30.565.821-45.423 61.933-33.966 92.483-24.684 20.412 5.304 39.979 10.389 56.182 5.071-13.838 17.527-41.219 46.026-75.488 50.178z"/><path d="m188.32 252.845c-37.38-3.043-89.17 32.386-117.824 6.393-2.774-2.918-7.638.894-5.471 4.285 36.752 60.214 111.008 98.188 170.443 33.739.588-.587.947-1.364 1.014-2.192 2.252-20.774-17.321-44.085-48.162-42.225zm-31.966 71.01c-34.268-4.153-61.649-32.651-75.487-50.176 16.202 5.315 35.771.232 56.181-5.072 30.528-9.292 91.689-20.718 92.483 24.684-23.685 23.296-48.301 33.581-73.177 30.564z"/><path d="m52.076 265.267c0-7.591-6.175-13.766-13.766-13.766s-13.766 6.175-13.766 13.766c0 7.59 6.175 13.766 13.766 13.766s13.766-6.176 13.766-13.766zm-13.766 6.765c-3.73 0-6.766-3.035-6.766-6.766s3.035-6.766 6.766-6.766 6.766 3.035 6.766 6.766-3.035 6.766-6.766 6.766z"/><path d="m69.062 295c0-7.591-6.175-13.766-13.766-13.766s-13.765 6.175-13.765 13.766c0 7.59 6.175 13.766 13.766 13.766s13.765-6.176 13.765-13.766zm-13.766 6.766c-3.73 0-6.766-3.035-6.766-6.766s3.035-6.766 6.766-6.766c3.73 0 6.766 3.035 6.766 6.766 0 3.73-3.035 6.766-6.766 6.766z"/><path d="m77.522 307.859c-7.591 0-13.766 6.175-13.766 13.766s6.175 13.766 13.766 13.766 13.766-6.175 13.766-13.766-6.175-13.766-13.766-13.766zm0 20.532c-3.73 0-6.766-3.035-6.766-6.766 0-3.73 3.035-6.766 6.766-6.766s6.766 3.035 6.766 6.766c0 3.73-3.036 6.766-6.766 6.766z"/><path d="m108.253 326.298c-7.591 0-13.766 6.175-13.766 13.766 0 7.59 6.175 13.766 13.766 13.766s13.767-6.175 13.767-13.766-6.176-13.766-13.767-13.766zm0 20.532c-3.73 0-6.766-3.035-6.766-6.766s3.035-6.766 6.766-6.766 6.767 3.035 6.767 6.766c0 3.73-3.035 6.766-6.767 6.766z"/><path d="m459.953 265.267c0 7.59 6.175 13.766 13.766 13.766s13.766-6.175 13.766-13.766-6.175-13.766-13.766-13.766-13.766 6.175-13.766 13.766zm13.765-6.767c3.73 0 6.766 3.035 6.766 6.766 0 3.73-3.035 6.766-6.766 6.766s-6.766-3.035-6.766-6.766c.001-3.73 3.036-6.766 6.766-6.766z"/><path d="m456.732 281.234c-7.591 0-13.766 6.175-13.766 13.766 0 7.59 6.175 13.766 13.766 13.766s13.766-6.175 13.766-13.766-6.175-13.766-13.766-13.766zm0 20.532c-3.73 0-6.766-3.035-6.766-6.766s3.035-6.766 6.766-6.766c3.73 0 6.766 3.035 6.766 6.766 0 3.73-3.036 6.766-6.766 6.766z"/><path d="m434.506 307.859c-7.591 0-13.766 6.175-13.766 13.766s6.175 13.766 13.766 13.766 13.766-6.175 13.766-13.766-6.175-13.766-13.766-13.766zm0 20.532c-3.73 0-6.766-3.035-6.766-6.766 0-3.73 3.035-6.766 6.766-6.766s6.766 3.035 6.766 6.766c0 3.73-3.035 6.766-6.766 6.766z"/><path d="m403.775 326.298c-7.591 0-13.767 6.175-13.767 13.766 0 7.59 6.176 13.766 13.767 13.766s13.766-6.175 13.766-13.766-6.175-13.766-13.766-13.766zm0 20.532c-3.731 0-6.767-3.035-6.767-6.766s3.035-6.766 6.767-6.766c3.73 0 6.766 3.035 6.766 6.766 0 3.73-3.036 6.766-6.766 6.766z"/></g></g></svg>