<svg id="Capa_1" enable-background="new 0 0 512 512" height="512" viewBox="0 0 512 512" width="512" xmlns="http://www.w3.org/2000/svg"><g><g><path d="m448.612 347.801c-1.588-2.542-3.653-4.583-5.951-6.18-1.845-14.661-10.58-31.739-27.993-22.018-7.995-21.477-37.063-8.496-26.595 11.863 11.964 24.065-12.063 47.24-40.094 64.629 3.178-22.037-.351-49.5-11.237-59.422-4.125-3.76-8.99-4.804-14.072-3.021-5.891 2.067-13.925 10.695-15.686 61.543-.917 27.443.366 53.292.439 54.109 3.433 21.372 22.448 49.969 58.429 57.47 5.796-.269 2.459-2.981 9.785-8.174 4.057-3.17 11.477-7.419 23.787-9.666 23.014-3.007 61.946-36.766 62.411-60.344.315-7.829-3.433-15.478-8.945-21.475 12.434-26.199 4.872-44.664-4.278-59.314zm-1.151 54.36c-5.193-3.888-10.652-6.468-16.72-6.917 1.238-7.852 2.217-24.327-7.283-39.514-2.292-3.665-3.443-7.055-1.977-8.652 18.673-20.346 38.924 33.106 25.98 55.083zm-28.48-76.942c9.605-5.119 14.022 4.664 15.914 12.814-2.451-.661-4.891-.941-7.108-.862-5.032.175-9.119 2.014-11.505 5.108-1.898-10.472-2.007-14.789 2.699-17.06zm-20.813 156.831c-20.715 3.78-29.807 12.903-33.105 17.328-44.044-11.398-50.263-47.991-50.684-50.857-.106-2.186-1.291-27.465-.4-53.123 1.715-49.409 9.471-54.603 11.008-55.142 2.609-.916 4.846-.411 7.041 1.59 9.367 8.537 13.065 38.912 7.466 61.322-.527 2.035.997 4.14 3.078 4.333.117.011 11.747 1.193 18.286 9.814 4.259 5.615 5.542 13.29 3.814 22.813-.876 4.456 6.142 5.727 6.885 1.25 2.099-11.566.359-21.106-5.172-28.355-4.43-5.805-10.417-8.938-15.203-10.617 33.037-20.114 56.461-46.732 43.495-73.245-2.482-7.12-2.745-9.022.38-11.355 7.313-6.483 12.547 1.421 14.315 7.571-2.362 5.339-1.054 12.392.311 19.718 2.85 15.299 6.397 34.34-15.41 53.228-3.478 2.925 1.202 8.311 4.582 5.289 16.456-14.253 20.123-29.173 19.9-42.055 7.731 14.118 5.715 29.428 4.701 34.609-14.959 6.55-13.886 22.803-1.32 27.734 6.309 3.709 9.785 5.751 4.868 14.574-2.267 3.935 3.961 7.401 6.113 3.406 13.897-24.839-19.811-20.857-12.523-34.454 11.494-15.996 35.537 7.856 34.249 20.884-.771 19.203-32.552 49.338-56.675 53.74z"/><path d="m51.433 407.115c-5.512 5.997-9.26 13.646-8.945 21.475.465 23.578 39.397 57.337 62.411 60.344 12.31 2.246 19.73 6.496 23.787 9.666 7.326 5.193 3.989 7.905 9.785 8.174 35.981-7.501 54.996-36.098 58.429-57.47.072-.817 1.355-26.667.439-54.109-1.761-50.848-9.796-59.476-15.686-61.543-5.081-1.782-9.947-.739-14.072 3.021-10.886 9.922-14.415 37.384-11.237 59.422-28.03-17.389-52.057-40.564-40.094-64.629 10.468-20.359-18.6-33.34-26.595-11.863-17.414-9.721-26.148 7.357-27.993 22.018-2.297 1.597-4.363 3.638-5.951 6.18-9.15 14.65-16.712 33.115-4.278 59.314zm31.41-60.037c1.466 1.597.315 4.987-1.977 8.652-9.5 15.187-8.521 31.663-7.283 39.514-6.069.449-11.528 3.029-16.72 6.917-12.945-21.977 7.306-75.429 25.98-55.083zm5.198-4.799c-2.387-3.094-6.473-4.933-11.505-5.108-2.216-.079-4.656.201-7.108.862 1.892-8.15 6.309-17.934 15.914-12.814 4.706 2.271 4.597 6.588 2.699 17.06zm-38.561 86.03c-1.288-13.027 22.755-36.88 34.25-20.884 7.288 13.598-26.421 9.616-12.523 34.454 2.152 3.995 8.381.529 6.113-3.406-4.916-8.823-1.44-10.865 4.868-14.574 12.566-4.931 13.64-21.184-1.32-27.734-1.014-5.181-3.03-20.491 4.701-34.609-.223 12.882 3.444 27.802 19.9 42.055 3.38 3.022 8.06-2.364 4.581-5.289-21.808-18.888-18.26-37.929-15.41-53.228 1.365-7.327 2.673-14.379.311-19.718 1.768-6.15 7.002-14.054 14.315-7.571 3.125 2.333 2.861 4.235.38 11.355-12.966 26.513 10.458 53.131 43.495 73.245-4.786 1.679-10.774 4.812-15.203 10.617-5.531 7.249-7.271 16.789-5.172 28.355.744 4.478 7.762 3.207 6.885-1.25-1.728-9.522-.445-17.198 3.814-22.813 6.538-8.621 18.169-9.803 18.286-9.814 2.081-.193 3.605-2.298 3.078-4.333-5.599-22.41-1.9-52.785 7.466-61.322 2.195-2 4.432-2.506 7.041-1.59 1.537.539 9.293 5.733 11.008 55.142.891 25.658-.293 50.936-.4 53.123-.42 2.866-6.639 39.459-50.684 50.857-3.298-4.424-12.391-13.547-33.105-17.328-24.123-4.401-55.904-34.536-56.675-53.74z"/><path d="m73.666 270.473c34.051-27.265 69.504-80.901 75.05-117.843 1.118-7.338 1.028-14.457-.615-20.191-22.528-57.289 75.901-89.945 23.53-122.182-31.83-19.593-42.278 22.727-50.483 46.532-14.303 36.895-31.777 27.51-59.883 48.458-28.174 24.6-54.704 81.99-60.031 124.722-8.836 59.278 31.304 75.847 72.432 40.504zm40.579-188.482c4.335-4.799 7.61-10.037 10.255-15.448 4.012 7.602 14.079 14.484 23.701 13.585-2.956 4.697-5.51 9.77-7.292 15.408l-27.214 15.904zm26.603-57.574c11.332-23.093 47.797-5.492 35.489 18.274-5.531 10.491-15.192 19.738-22.661 29.615-11.652 4.357-23.609-5.988-25.502-14.272 4.299-11.048 7.18-23.757 12.674-33.617zm-59.088 76.597c10.71-3.028 18.915-7.306 25.361-12.376l-.54 28.903c-.132 2.645 3.021 4.493 5.264 3.087l26.953-15.751c-1.187 8.478-.631 18.15 2.569 29.467 1.233 4.362 1.396 9.648.646 15.587l-32.409 25.386-4.517-43.925c-.177-2.379-2.98-3.903-5.073-2.757l-39.23 20.054 6.329-39.218c5.022-4.202 9.965-7.134 14.647-8.457zm-23.043 16.564-5.94 36.809c-.532 2.728 2.614 5.018 5.047 3.673l40.826-20.869 4.643 45.146c.191 2.662 3.582 4.109 5.638 2.397l30.992-24.276c-8.599 32.73-37.851 78.07-70.03 104.072-34.271 9.128-57.808-28.4-61.567-34.866 5.284-40.035 27.616-87.217 50.391-112.086zm-37.602 161.856c-9.815-5.488-14.599-18.996-13.797-38.468 3.142 4.388 7.536 9.823 13.076 14.977 11.831 11.007 24.684 16.739 37.79 17.004-14.932 9.312-27.851 11.641-37.069 6.487z"/><path d="m31.353 220.548 22.366.578 12.203 18.752c1.466 2.41 5.378 1.936 6.231-.742l7.461-21.092 21.606-5.812c2.739-.642 3.507-4.518 1.22-6.155l-17.755-13.614 1.149-22.344c.236-2.803-3.213-4.73-5.477-3.063l-18.434 12.679-20.896-7.998c-2.592-1.092-5.492 1.594-4.605 4.262l6.362 21.45-14.062 17.401c-1.838 2.13-.181 5.716 2.631 5.698zm18.032-20.13c.724-.896.961-2.09.633-3.194l-4.869-16.417 15.993 6.121c1.075.412 2.284.267 3.233-.385l14.108-9.704-.88 17.101c-.059 1.15.451 2.256 1.365 2.956l13.589 10.42-16.536 4.448c-1.112.299-2.006 1.126-2.39 2.212l-5.71 16.143-9.34-14.352c-.628-.965-1.691-1.56-2.842-1.589l-17.118-.442z"/><path d="m509.756 235.71c-12.23-49.304-42.52-117.231-89.316-130.008-44.424-12.129-43.168-42.243-61.408-70.008-12.333-19.371-42.748-11.8-48.223 8.942-5.914 40.725 53.935 46.346 44.618 104.507-8.188 51.112 69.854 141.801 125.211 147.186 28.904-1.828 35.533-25.905 29.118-60.619zm-75.411-115.874 9.412 38.594-40.694-16.887c-2.176-.976-4.851.765-4.839 3.15l-1.027 44.145-34.316-22.741c-1.218-5.861-1.473-11.143-.589-15.589 2.294-11.535 2.084-21.221.229-29.578l28.115 13.569c2.343 1.225 5.345-.867 5.003-3.493l-2.825-28.769c6.827 4.543 15.344 8.159 26.26 10.33 4.773.947 9.933 3.479 15.271 7.269zm-49.157-23.663 2.879 29.314-28.388-13.7c-2.221-5.477-5.167-10.33-8.483-14.777 9.732.057 19.12-7.492 22.546-15.424 3.065 5.184 6.745 10.147 11.446 14.587zm-64.265-33.115c-15.569-19.873 16.918-45.311 32.412-23.298 6.826 9.692 10.673 22.494 16.072 33.633-1.243 8.426-12.324 19.657-24.293 16.245-7.888-8.856-17.9-17.198-24.191-26.58zm44.876 113.367 32.816 21.748c2.181 1.545 5.452-.166 5.431-2.835l1.055-45.372 42.35 17.574c2.531 1.146 5.486-1.383 4.74-4.061l-8.834-36.223c24.671 22.989 50.667 68.255 59.104 107.745-3.234 6.739-23.719 46.013-58.615 39.629-34.136-23.375-66.884-66.258-78.047-98.205zm127.851 109.203c-10.752 7.185-25.624 2.559-37.428-3.538 18.355-.68 39.056-19.309 48.127-35.884 1.65 13.886 1.013 31.595-10.699 39.422z"/><path d="m445.852 249.741 10.681-19.659 22.251-2.346c2.806-.203 4.172-3.911 2.172-5.887l-15.397-16.233 4.645-21.887c.673-2.732-2.429-5.175-4.928-3.885l-20.197 9.627-19.38-11.181c-2.389-1.484-5.674.711-5.217 3.487l2.914 22.183-16.622 14.977c-2.15 1.814-1.077 5.617 1.704 6.04l21.998 4.083 9.107 20.436c.542 1.216 1.728 2.019 3.059 2.072.046.002.092.003.138.003 1.277-.001 2.459-.7 3.072-1.83zm-9.734-25.211c-.469-1.052-1.425-1.806-2.557-2.016l-16.836-3.125 12.722-11.462c.856-.771 1.277-1.913 1.127-3.055l-2.23-16.977 14.832 8.557c.998.576 2.214.623 3.254.128l15.457-7.368-3.554 16.75c-.239 1.127.092 2.299.884 3.134l11.783 12.424-17.03 1.796c-1.145.121-2.158.797-2.707 1.809l-8.175 15.046z"/><path d="m232.685 265.91-.072 22.374c-.099 2.81 3.431 4.572 5.618 2.795l17.802-13.552 21.256 6.982c2.643.965 5.409-1.856 4.395-4.479l-7.388-21.119 13.209-18.058c1.742-2.214-.112-5.721-2.902-5.564l-22.368.5-13.092-18.144c-1.573-2.333-5.467-1.677-6.188 1.041l-6.437 21.428-21.3 6.845c-2.705.773-3.284 4.681-.923 6.207zm7.725-19.696c1.096-.352 1.949-1.221 2.281-2.325l4.927-16.4 10.02 13.886c.674.933 1.771 1.463 2.915 1.45l17.12-.383-10.11 13.821c-.68.929-.859 2.134-.479 3.221l5.654 16.163-16.268-5.344c-1.095-.359-2.295-.157-3.211.54l-13.625 10.372.055-17.124c.004-1.151-.559-2.231-1.506-2.887l-14.075-9.753z"/><path d="m302.482 303.518c8.732-49.803 8.913-123.657-28.376-154.234-25.985-21.307-26.764-41.897-26.174-63.565 2.195-22.956-3.107-50.565-31.975-46.44-28.626 5.546-24.605 33.376-15.019 54.345 7.646 20.283 15.552 41.256-3.938 68.629-3.374 4.739-5.74 10.903-7.225 18.084-8.838 43.366 18.29 170.773 78.501 169.971 16.09-2.474 28.322-19.676 34.206-46.79zm-87.972-190.559c8.763 4.056 20.55 1.015 26.889-4.827.669 5.989 1.991 12.027 4.46 18.009l-9.392 27.917-20.275-24.134c.219-5.91-.479-11.547-1.682-16.965zm-13.69-43.37c-5.231-25.933 34.067-33.667 39.113-7.97 2.254 11.641.514 24.897.871 37.272-4.587 7.176-19.3 12.876-28.818 4.859-3.563-11.311-9.276-23.026-11.166-34.161zm1.88 96.723c6.822-9.581 10.601-18.502 12.336-26.885l20.081 23.903c1.648 2.083 5.228 1.397 5.995-1.135l9.218-27.399c6.16 12.353 22.88 19.149 30.664 33.079l-7.238 39.061-30.194-32.085c-1.582-1.783-4.739-1.291-5.705.889l-19.034 39.843-21.976-34.811c1.292-5.845 3.224-10.768 5.853-14.46zm-7.427 25.076 21.016 33.29c1.357 2.304 5.041 2.083 6.116-.359l19.563-40.951 31.423 33.391c1.836 2.086 5.571.987 5.988-1.76l6.793-36.661c13.078 31.084 18.231 83.03 9.734 122.509-5.704 4.827-40.448 32.279-69.708 12.112-21.553-35.316-33.841-87.857-30.925-121.571zm71.842 152.018c-10.407 1.753-21.789-4.784-32.715-18.572 18.925 6.968 43.05-1.746 58.652-13.009-5.798 18.607-14.848 29.716-25.937 31.581z"/></g></g></svg>