<?xml version="1.0" encoding="iso-8859-1"?>
<!-- Generator: Adobe Illustrator 19.0.0, SVG Export Plug-In . SVG Version: 6.00 Build 0)  -->
<svg version="1.1" id="Capa_1" xmlns="http://www.w3.org/2000/svg" xmlns:xlink="http://www.w3.org/1999/xlink" x="0px" y="0px"
	 viewBox="0 0 511.99 511.99" style="enable-background:new 0 0 511.99 511.99;" xml:space="preserve">
<g>
	<g>
		<g>
			<path d="M390.899,70.725c0.098-0.015,0.185-0.046,0.281-0.065c-0.859,1.98-0.395,4.776,0.318,6.576
				c1.054,2.66,3.163,4.941,6.105,5.273c0.405,0.046,0.56-0.507,0.315-0.761c-1.629-1.693-3.446-3.182-4.327-5.439
				c-0.379-0.973-0.447-1.919-0.435-2.855c1.166,2.327,3.271,4.174,5.949,4.823c2.708,0.656,6.948-0.222,9.404-2.394
				c-0.616,2.473-2.356,4.658-3.884,6.71c-0.249,0.334,0.161,0.689,0.486,0.632c4.261-0.755,5.451-5.326,4.808-9.114
				c0.008-0.015,0.018-0.029,0.025-0.044c3.649,1.685,7.8,1.877,10.543-2.089c3.216-4.649-1.535-11.708-6.733-11.686
				c-0.926,0.004-1.602,1.298-0.811,1.958c1.709,1.426,4.726,2.8,4.926,5.328c-1.481,3.919-3.791,5-6.93,3.241
				c-1.124-0.774-2.066-1.729-2.825-2.863c-1.679-1.828-3.068-3.626-5.535-4.395c-3.02-0.941-5.79,0.188-8.478,1.547
				c-2.648,1.339-8.074,5.178-8.84-1.24c-0.377-3.155,3.105-5.73,5.067-7.642c0.6-0.584-0.189-1.666-0.912-1.182
				c-4.109,2.748-9.354,8.283-5.394,13.411C385.72,70.656,388.3,71.129,390.899,70.725z M396.24,68.768
				c1.77-0.76,3.279-0.872,4.673-0.514c-0.089,0.264-0.176,0.529-0.266,0.787c-0.265,0.756-0.205,1.736-0.568,2.437
				c-0.323,0.625,0.537,1.405,1.032,0.796c0.612-0.753,1.454-1.149,1.935-2.048c0.134-0.25,0.258-0.517,0.373-0.791
				c0.622,0.423,1.239,0.926,1.864,1.499c0.395,0.362,0.826,0.716,1.274,1.06c-1.648,1.582-2.917,3.322-5.793,3.333
				c-3.401,0.014-5.862-2.57-6.608-5.634C394.84,69.395,395.521,69.077,396.24,68.768z"/>
			<path d="M400.967,86.799c-6.405-1.748-15.155-3.674-14.013-12.304c0.079-0.596-0.921-0.724-1.048-0.142
				c-1.982,9.052,6.613,15.136,15.061,13.628C401.583,87.872,401.519,86.949,400.967,86.799z"/>
			<path d="M457.653,106.355c1.796-0.426,2.335-2.319,2.147-3.942c-0.092-0.796-0.374-1.593-1.092-1.965
				c-0.117-0.166-0.24-0.328-0.375-0.482c-0.442-0.501-1.173-0.482-1.722-0.222c-1.343,0.634-2.24,2.104-2.225,3.588
				C454.404,105.028,455.812,106.792,457.653,106.355z"/>
			<path d="M455.922,96.203c2.974,0.361,4.895,1.596,5.112,4.75c0.137,1.995-0.274,3.975,0.512,5.863
				c0.203,0.488,0.872,0.675,1.179,0.154c1.41-2.393,1.089-6.528-0.049-9.045c-1.272-2.813-3.94-3.168-6.754-2.965
				C455.11,95.02,455.139,96.108,455.922,96.203z"/>
			<path d="M508.034,121.256c-2.44-3.182-5.181-6.122-7.999-8.971c-1.002-1.013-3.059-0.306-2.953,1.223
				c0.205,2.986,0.499,5.968,0.797,8.948c-1.556-0.663-3.227-0.978-5.068-0.792c-4.839,0.488-8.741,4.6-13.852,2.511
				c-3.995-1.633-6.265-6.007-10.337-7.876c-0.477-0.219-0.967-0.41-1.461-0.586c1.119-0.765,2.129-1.828,2.979-3.232
				c2.588-4.277,3.888-11.928,2.564-17.28c4-1.827,5.728-9.754,6.429-13.206c1.808-8.901,1.845-17.919,1.277-26.95
				c-0.099-1.575-1.949-2.449-3.142-1.302c-3.599,3.461-6.874,7.169-10.797,10.291c-2.027,1.612-4.168,3.076-6.353,4.464
				c-0.508,0.322-4.901,3.418-6.398,4.041c-1.901-1.254-4.235-1.968-6.634-2.527c0.961-2.455,1.285-5.784,1.604-7.379
				c1.132-5.652,1.628-11.379,1.638-17.139c0.003-1.647-2.141-2.598-3.307-1.37c-5.29,5.565-11.211,10.408-17.513,14.776
				c-2.643-3.054-5.624-5.778-8.822-8.248c-3.935-3.038-8.161-5.709-12.623-7.895c-3.253-9.391-12.428-16.325-20.132-21.943
				C377.214,13,365.354,6.015,353.443,0.213c-1.668-0.813-3.485,0.848-2.565,2.566c4.642,8.674,8.364,18.022,12.417,26.992
				c0.259,0.572,0.654,1.686,1.164,3.028c-2.808-3.027-5.525-6.14-8.559-8.969c-5.89-5.492-12.503-7.809-20.316-9.315
				c-8.759-1.688-16.908-5.785-25.699-7.065c-8.739-1.273-17.785,0.1-25.965,3.312c-1.619,0.636-2.056,3.297,0,3.743
				c5.562,1.208,11.23,2.442,16.326,5.075c5.098,2.634,9.17,6.705,13.337,10.565c3.531,3.271,7.919,5.798,11.294,9.154
				c1.827,1.817,3.377,4.072,4.816,6.433c-5.246-2.643-11.435-3.981-16.797-4.718c-5.313-0.73-10.676-0.905-16.033-0.897
				c-4.019,0.007-7.974,0.009-11.381,2.389c-1.438,1.005-1.381,2.793,0,3.807c7.358,5.407,16.923,5.075,24.027,11.427
				c1.966,1.758,3.887,3.417,5.82,5.003c-6.259,0.368-13.449,3.599-18.789,5.475c-1.194,0.419-2.088,1.904-1.263,3.106l7.898,11.506
				c-5.182,2.415-9.829,5.489-14.151,9.355c-0.773,0.692-0.853,2.28,0,2.955c3.183,2.52,5.883,5.25,8.213,8.522
				c-3.561,4.173-6.998,8.437-10.291,12.829c-0.646,0.862-0.174,2.386,0.747,2.848c2.882,1.446,5.606,3.04,8.26,4.819
				c-2.885,4.484-5.246,9.187-7.277,14.14c-0.439,1.069,0.485,2.295,1.471,2.59c3.021,0.902,6.037,1.819,9.054,2.733
				c-2.846,5.014-5.143,10.348-7.295,15.684c-0.501,1.243,0.759,2.579,1.957,2.568c4.876-0.041,9.643,0.308,14.418,1.114
				c-3.068,5.317-5.859,10.767-8.365,16.38c-0.598,1.34,0.073,3.21,1.797,3.131c5.557-0.252,11.024,0.014,16.481,0.818
				c-3.948,3.096-7.895,6.193-11.827,9.311c-0.709,0.563-0.807,1.872-0.336,2.603c3.994,6.201,7.706,12.546,11.17,19.045
				c-0.209-0.106-0.425-0.212-0.632-0.318c-6.336-3.268-12.169-7.315-17.417-12.023c-2.27-5.002-4.905-9.805-6.476-15.19
				c-2.137-7.322-3.671-14.857-4.955-22.37c-2.811-16.456-4.045-33.377-3.385-50.066c0.334-8.452,1.217-16.837,2.562-25.188
				c1.061-6.59,2.258-13.292,2.174-19.99c-0.091-7.271-2.284-13.472-6.113-18.563c1.714-5.009,0.228-11.262-1.155-16.169
				c-1.673-5.934-4.451-11.452-7.991-16.485c-1.056-1.502-3.596-1.46-4.104,0.536c-0.949,3.729-2.804,6.9-4.591,10.161
				c-0.521-1.874-1.389-3.717-2.099-5.354c-1.511-3.481-3.775-8.145-7.03-10.364c-2.224-1.516-3.764-0.408-5.113,1.566
				c-2.678,3.919-5.647,7.722-8.241,11.687c-6.174-2.475-12.59-4.411-18.445-6.134c-14.031-4.129-28.501-6.608-43.042-8.053
				c-15.857-1.576-31.812-1.891-47.736-1.747c-7.768,0.07-15.552,0.441-23.32,0.274c-8.004-0.172-15.87-2.068-23.88-1.787
				c-1.75,0.061-3.098,2.46-1.554,3.752c7.044,5.898,14.252,11.629,21.675,17.051c-30.439-0.74-61.066,1.672-90.012,11.604
				c-2.001,0.686-2.533,3.438-0.599,4.584c29.409,17.436,44.293,53.769,34.573,86.775c-0.346,1.173,0.419,2.859,1.735,3.055
				c26.446,3.949,46.772,28.713,44.509,55.564c-0.164,1.951,2.181,2.933,3.695,2.12c18.042-9.679,39.837,0.206,44.631,20.006
				c0.36,1.486,2.275,2.288,3.575,1.454c10.649-6.825,22.112-14.395,35.045-15.583c10.568-0.971,21.972,2.631,27.656,12.074
				c0.794,1.32,2.613,1.547,3.717,0.479c9.467-9.164,23.381-5.154,32.834,1.733c5.666,4.128,10.888,8.972,15.964,13.965
				c0.092,0.104,0.176,0.215,0.269,0.319c0.106,0.118,0.222,0.208,0.342,0.285c2.661,2.629,5.287,5.291,7.917,7.91
				c0.434,0.561,0.883,1.11,1.338,1.654c-0.772-0.923-7.592,0.38-8.654,0.455c-1.94,0.135-4.069-0.115-5.47-1.463
				c-0.605-0.583-1.027-1.326-1.439-2.058c-2.516-4.465-5.208-8.602-7.999-12.874c-1.029-1.574-1.933-3.498-4.056-3.564
				c-2.154-0.067-2.673,1.59-3.566,3.315c-1.409,2.72-2.682,5.525-3.941,8.33c-2.405-5.633-5.182-10.999-9.676-15.388
				c-0.936-0.913-2.67-0.796-3.314,0.427c-2.096,3.975-4.397,7.79-6.801,11.583c-0.312,0.501-0.626,1.001-0.939,1.5
				c-2.797-5.83-7.086-12.093-12.132-15.136c-0.642-0.387-1.517-0.393-2.158,0c-1.913,1.173-1.832,2.465-2.264,4.592
				c-0.671,3.303-1.766,6.159-3.559,8.811c-2.485-5.499-5.327-10.747-9.949-14.82c-0.912-0.804-2.553-0.822-3.17,0.409
				c-2.129,4.245-5.044,8.837-6.771,13.532c-2.54-5.461-6.892-10.557-10.789-14.626c-0.897-0.936-2.841-0.84-3.426,0.441
				l-7.44,16.293c-6.959-8.045-14.318-15.556-24.379-19.682c-1.689-0.693-2.997,1.258-2.707,2.707
				c1.306,6.542,2.225,13.13,2.822,19.762c-6.317-5.701-13.474-10.18-21.413-13.525c-1.047-0.441-2.504,0.686-2.368,1.804
				c0.869,7.129,0.97,15.255,2.757,22.443c-3.186-2.525-8.641-3.279-12.001-3.744c-4.391-0.608-8.814-1.031-13.229-1.425
				c-3.03-0.271-6.997-1.54-9.264,1.025c-0.705,0.798-0.888,1.873-0.364,2.823c3.368,6.105,6.104,12.376,8.685,18.811
				c-3.8-2.268-8.871-3.044-12.955-3.609c-6.375-0.882-12.695-0.648-19.033,0.4c-1.311,0.217-2.152,2.188-1.328,3.264
				c4.368,5.702,8.037,11.783,10.952,18.307c-10.483-1.679-21.027-1.079-31.33,1.85c-1.613,0.459-2.048,2.424-0.955,3.616
				c4.801,5.232,9.138,10.79,13.058,16.682c-9.61,0.116-18.911,2.101-27.835,5.894c-1.372,0.583-1.276,2.507-0.442,3.429
				c4.63,5.12,9.075,10.38,13.347,15.797c-8.865,2.977-16.994,9.358-24.018,15.333c-1.009,0.858-0.634,2.548,0.408,3.167
				c5.048,2.998,9.524,6.572,13.55,10.782c-6.294,5.519-12.026,11.542-17.223,18.124c-0.902,1.143-0.728,3.004,0.901,3.414
				c4.224,1.064,9.169,2.65,13.845,3.11c-4.047,4.088-7.629,8.876-11.77,12.823c-0.877,0.836-0.6,2.257,0.37,2.868
				c5.578,3.514,11.406,6.445,17.515,8.857c-4.079,6.317-7.447,12.948-10.266,19.945c-0.37,0.919,0.413,2.34,1.406,2.476
				c4.788,0.657,10.195,2.115,15.222,2.113c-0.88,2.552-0.905,5.47-1.299,8.139c-0.612,4.147-1.213,8.294-1.804,12.444
				c-0.226,1.587,0.854,2.754,2.477,2.477c4.686-0.798,9.354-1.176,14.081-1.225c-0.449,5.506-0.718,11.015-0.785,16.542
				c-0.017,1.41,1.364,2.363,2.68,2.042c5.11-1.246,10.615-2.095,15.56-3.988c-0.004,3.689,0.184,7.385,0.331,11.068
				c0.08,2.001-0.489,5.542,1.471,6.986c1.825,1.345,4.106-0.033,5.865-0.739c3.563-1.432,7.119-2.877,10.676-4.324
				c1.534,5.382,3.245,10.703,5.145,15.971c0.588,1.63,2.405,2.127,3.724,0.983c3.324-2.881,6.624-5.789,9.928-8.693
				c1.048,3.096,2.14,6.173,3.297,9.238c0.737,1.954,1.356,5.565,3.715,6.404c2.14,0.761,4.064-1.108,5.64-2.245
				c3.007-2.167,5.981-4.38,8.95-6.6c1.957,5.311,4.669,12.794,9.414,14.627c2.051,0.792,3.566,0.08,5.179-1.135
				c2.697-2.031,5.264-4.588,7.687-7.1c1.101,2.892,2.886,5.51,4.502,8.159c0.942,1.544,2.05,4.422,4.017,5.009
				c1.463,0.437,2.246-0.236,3.388-0.98c3.092-2.016,5.936-5.221,8.638-8.012c3.085,3.972,7.924,9.435,12.32,9.67
				c1.691,0.09,2.344-0.64,3.477-1.81c2.061-2.13,4.049-4.855,5.735-7.537c2.617,3.384,5.413,6.39,8.838,9.171
				c1.062,0.863,2.288,0.695,3.098-0.399c1.868-2.524,4.356-8.349,7.8-7.296c3.54,1.082,6.015,5.507,9.827,6.438
				c1.822,0.445,3.06,0.105,4.339-1.202c1.987-2.03,3.46-5.156,4.879-7.968c2.966,3.079,6.765,5.54,10.998,6.163
				c5.34,0.787,7.959-4.645,10.22-9.12c2.43,2.634,5.259,4.682,8.689,6.167c1.11,0.481,2.12,0.26,2.844-0.746
				c2.683-3.727,5.511-7.394,7.964-11.277c0.061-0.096,0.103-0.194,0.144-0.292c9.632-2.069,19.274-4.014,29.144-4.623
				c-3.126,5.226-6.138,10.522-9.19,15.792c-0.801,1.382,0.191,3.646,1.983,3.455c23.759-2.529,46.811-8.579,68.693-18.185
				c1.675-0.735,1.235-3.033,0-3.88c-17.135-11.764-35.911-20.669-55.835-26.577c-1.334-0.396-2.919,0.713-2.834,2.159
				c0.322,5.483-0.43,11.777,0.455,17.332c-18.863-7.201-41.932-1.846-61.256-0.008c-21.279,2.024-42.946,2.844-64.153-0.371
				c-21.088-3.197-42.603-10.518-59.049-24.511c-15.769-13.417-25.332-33.289-25.809-54.02c-0.261-11.331,2.315-22.735,7.238-32.936
				c4.163-8.627,10.005-15.672,16.541-22.407c-1.257,3.802-2.19,7.661-2.814,11.397c-0.334,1.998,1.969,3.748,3.599,2.095
				c7.356-7.457,19.166-7.653,27.476-13.371c-1.014,10.638-6.084,19.787-17.044,24.14c-2.162,0.859-2.163,4.641,0.601,4.438
				c8.146-0.598,15.646-2.856,22.868-6.652c2.269-1.193,4.59-2.474,6.75-3.955c-2.939,8.384-3.804,17.897,0.793,25.225
				c0.93,1.482,3.431,1.328,3.868-0.506c2.296-9.624,8.379-17.413,16.9-22.056c-1.633,9.616-4.806,17.857-14.092,23.095
				c-2.264,1.277-0.661,4.442,1.687,4c6.136-1.155,12.498-1.946,18.506-3.671c2.228-0.64,4.866-1.56,7.223-2.858
				c-1.783,3.68-4.262,7.089-5.833,10.867c-2.373,5.705-3.672,11.718-5.134,17.698c-1.494,6.109-3.266,11.984-6.138,17.606
				c-2.463,4.822-5.387,9.437-7.436,14.464c-3.306,8.11-0.436,14.708,7.833,17.647c4.668,1.659,9.78,2.03,14.661,2.671
				c6.5,0.854,13.019,1.561,19.551,2.113c7.841,0.662,15.697,1.133,23.563,1.372c4.254,0.129,11.865,1.707,15.513-1.413
				c3.516,2.319,10.138,0.631,13.927,0.096c1.125-0.159,1.611-1.531,1.41-2.483c-0.204-0.966-0.479-1.927-0.825-2.862
				c0.017-0.005,0.031-0.009,0.048-0.014c2.303-0.656,4.46-0.964,6.858-0.862c1.504,0.064,2.222-1.391,2.031-2.666
				c-0.244-1.63-0.855-3.345-1.716-5.014c5.901,0.481,11.865,0.719,17.771,0.484c2.193-0.087,4.067-0.355,5.339-1.346
				c2.002,0.667,4.31,0.413,6.408,0.43c1.743,0.014,4.138,0.483,5.778-0.317c2.36-1.153,1.551-4.015,0.625-6.181
				c1.376-0.785,2.3-2.336,2.545-4.027c0.438-3.018-1.391-5.909-3.26-8.115c-3.545-4.184-9.544-7.201-14.849-4.971
				c-0.693-0.764-1.496-1.434-2.387-1.948c-2.694-1.555-5.92-1.802-8.951-1.945c-5.156-0.244-10.133-0.404-15.2-1.586
				c-5.413-1.262-12.285-3.083-10.965-10.231c0.789-4.277,3.584-8.213,5.775-11.865c3.184-5.306,7.859-12.869,5.835-19.343
				c2.501-0.144,5-0.327,7.494-0.572c9.441-0.927,20.352-1.737,29.29-5.314c0.005,0.929,0.026,1.849,0.066,2.753
				c0.061,1.394,1.786,2.816,3.12,1.79c3.869-2.976,7.955-5.536,12.292-7.69c-1.004,4.321-2.02,8.64-3.037,12.958
				c-0.378,1.608,1.008,2.979,2.61,2.61c3.341-0.77,6.602-1.731,9.838-2.863c0.046-0.016,0.082-0.04,0.126-0.058
				c1.812,3.99,3.466,8.049,4.909,12.168c3.57,10.185,6.034,20.746,7.513,31.435c1.143,8.262,0.064,17.743,9.65,20.724
				c3.969,1.234,8.421,1.231,12.523,1.44c6.157,0.314,12.35,0.395,18.471-0.45c4.956-0.685,9.875-2.598,14.913-2.454
				c5.234,0.149,10.035,2.773,15.275,2.975c3.676,0.142,7.061-1.042,9.452-3.169c5.736-0.258,10.888,0.476,16.158,2.88
				c1.31,0.598,2.71,0.131,3.183-1.295c0.689-2.077,0.176-4.596-0.901-7.041c0.573-0.095,1.194-0.197,2.014-0.287
				c1.314-0.145,2.283-1.171,1.947-2.556c-1.635-6.734-5.39-12.732-11.852-15.732c-3.674-1.706-9.902-3.069-13.699-0.691
				c-7.037-6.544-21.568-3.278-29.972-6.269c-9.081-3.232-11.091-13.928-12.352-22.277c-1.29-8.537-2.488-16.333-5.889-24.34
				c-2.604-6.131-4.073-11.966-4.59-18.17c6.181-1.872,11.982-6.064,16.879-11.298c-0.997,4.669-2.074,9.31-3.45,13.898
				c-0.584,1.948,1.782,2.921,3.136,1.826c3.626-2.934,7.486-5.417,11.596-7.521c-0.832,3.722-1.197,7.508-0.901,11.365
				c0.221,2.881,0.105,6.226,3.095,7.43c0.645,0.26,1.584-0.038,2.035-0.538c2.387-2.646,3.794-6.279,5.978-9.15
				c2.64-3.47,5.689-6.505,8.964-9.372c0.038-0.033,0.063-0.069,0.097-0.103c3.965,0.763,7.679,2.038,10.367,5
				c-4.185,2.711-8.268,5.794-10.768,10.178c-3.499,6.135-1.643,12.475-1.286,19.08c0.315,5.83-0.838,12.082,2.903,17.105
				c2.74,3.679,7.08,5.32,11.381,6.402c5.679,1.429,11.709,1.934,16.157,6.14c2.993,2.83,6.067,5.963,10.195,4.918
				c3.333,2.902,7.296,5.037,10.602,8.062c1.126,1.03,2.977,0.623,3.41-0.9c1.209-4.25,2.462-8.943,1.519-13.312
				c0.437-0.131,0.895-0.325,1.566-0.554c1.856-0.634,3.657-0.661,5.574-0.331c1.312,0.225,2.536-0.541,2.574-1.961
				c0.13-4.82-0.101-9.571-3.816-13.128c-2.653-2.541-6.499-3.466-10.038-2.654c-0.474-1.075-1.193-2.091-2.224-3.008
				c-3.422-3.042-8.255-3.26-12.575-3.617c-2.7-0.223-7.245-0.423-9.088-2.834c-3.05-3.991,1.86-11.047,3.785-14.471
				c3.52-6.262,6.826-12.566,9.488-19.248c2.161-5.424,3.882-11.187,0.942-16.673c-2.681-5.003-7.831-8.117-12.428-11.125
				c-6.096-3.989-11.874-8.361-17.239-13.298c-5.122-4.714-9.491-10.144-14.466-14.973c0.315-0.962,0.619-1.928,0.902-2.902
				c4.608-15.878,3.356-32.358-0.334-48.283c-3.95-17.046-10.552-33.339-14.531-50.377c-4.072-17.439-4.507-34.112,0.864-51.168
				c2.568-1.785,5.149-3.551,7.727-5.318c0.651,3.781,1.353,7.724,2.719,11.205c0.687,1.752,1.606,3.672,3.801,3.712
				c2.733,0.05,4.908-3.713,6.373-5.54c1.778-2.218,3.43-4.526,5.056-6.853c0.626,4.884,1.185,9.778,1.837,14.659
				c0.185,1.38,1.657,2.773,3.092,1.774c4.829-3.363,8.633-7.587,12.179-12.13c0.114,5.347-0.349,10.65-1.022,16.003
				c-0.183,1.453,1.516,2.368,2.724,2.076c8.703-2.105,16.77-6.535,22.6-13.411c0.105-0.124,0.189-0.252,0.259-0.381
				c1.052,0.067,2.108,0.076,3.173-0.023c6.676-0.619,13.251-5.752,13.383-12.643c3.898,1.37,7.777,2.705,12.015,2.115
				c2.454-0.342,4.585-1.28,6.825-2.264c2.619-1.151,6.004-3.547,6.671,1.424c0.182,1.357-0.852,3.622-1.142,4.923
				c-0.33,1.48,1.414,3.339,2.882,2.215c3.495-2.674,6.829-5.515,9.836-8.737c1.586-1.699,4.604-4.255,4.737-6.752
				C511.903,125.538,509.3,122.908,508.034,121.256z M477.154,59.882c0.158,2.896,0.128,5.795-0.071,8.684
				c-0.379-0.428-0.779-0.811-1.137-1.105c-1.164-0.957-2.697-1.796-4.259-2.24C473.637,63.568,475.488,61.793,477.154,59.882z
				 M470.71,66.028c1.303,0.646,2.727,1.082,3.933,1.929c0.775,0.544,1.468,1.229,1.983,2.025c0.114,0.176,0.207,0.361,0.294,0.548
				c-0.228,2.387-0.566,4.767-1.015,7.131c-0.14-0.297-0.283-0.593-0.455-0.871c-0.819-1.319-2.077-2.437-3.28-3.39
				c-2.053-1.627-4.366-2.8-6.863-3.359C467.138,68.796,468.956,67.456,470.71,66.028z M464.303,70.733
				c3.156,1.042,6.11,2.525,8.498,4.932c1.436,1.447,1.802,2.829,2.569,4.577c0.003,0.007,0.006,0.011,0.009,0.018
				c-0.647,2.967-1.449,6.003-2.886,8.667c-0.124,0.23-0.254,0.448-0.387,0.657c-0.59-6.803-6.151-13.084-12.267-15.897
				C461.567,72.67,463.167,71.528,464.303,70.733z M458.999,74.168c3.191,2.131,6.341,4.265,8.592,7.475
				c2.051,2.925,2.908,6.02,3.007,9.367c-1.175-1.322-2.705-2.247-4.475-2.873c-1.514-0.535-3.367-0.536-4.798-1.226
				c-3.344-1.613-2.789-5.049-3.471-8.25c-0.279-1.309-0.753-2.394-1.352-3.332C457.325,75.025,458.17,74.619,458.999,74.168z
				 M446.302,50.441c-0.165,3.124-0.476,6.234-1.029,9.329c-0.02,0.111-0.045,0.221-0.065,0.331
				c-0.978-1.826-2.991-3.413-4.997-4.058C442.373,54.279,444.426,52.334,446.302,50.441z M439.209,56.843
				c1.008,0.423,1.987,0.88,2.854,1.615c1.356,1.15,1.778,2.558,2.691,3.952c-0.2,0.94-0.415,1.878-0.648,2.81
				c-0.299,1.192-0.625,2.377-0.978,3.555c-1.08-3.997-4.159-8.001-7.989-9.145C436.525,58.821,437.884,57.87,439.209,56.843z
				 M433.766,60.383c1.88,0.884,3.706,1.706,5.215,3.34c1.426,1.545,2.244,3.26,2.734,5.118c-0.303-0.07-0.617-0.133-0.91-0.209
				c-4.414-1.135-6.679-4.028-9.244-7.263C432.3,61.089,433.035,60.755,433.766,60.383z M402.732,40.439
				c-1.713-0.652-3.45-1.245-5.224-1.735c-3.997-1.105-8.164-1.7-12.298-1.139c-3.687,0.501-9.871,3.581-13.014,0.986
				c-0.305-0.251-0.583-0.529-0.841-0.825c1.642-0.958,3.153-2.196,4.805-3.131c2.39-1.352,4.956-2.386,7.635-2.997
				c2.543-0.58,5.172-0.752,7.769-0.485c1.383,0.142,2.731,0.44,4.074,0.763C398.382,34.506,400.593,37.418,402.732,40.439z
				 M388.189,25.893c1.89,1.303,3.725,2.682,5.475,4.184c-3.258-0.509-6.602-0.475-9.791,0.237
				c-4.272,0.955-9.984,3.191-12.965,6.819c-1.261-1.736-1.982-3.962-2.83-5.928C373.284,25.938,380.987,24.454,388.189,25.893z
				 M381.99,21.956c1.302,0.771,2.582,1.569,3.849,2.383c-2.466-0.323-4.957-0.361-7.424,0.001c-4.091,0.6-8.137,2.418-11.02,5.417
				c-0.785-1.556-1.585-3.107-2.376-4.662c1.561-1.74,2.856-3.481,5.117-4.687c2.162-1.153,4.253-1.302,6.465-1.594
				C378.402,19.854,380.201,20.897,381.99,21.956z M356.421,6.753c1.87,1.224,3.765,2.408,5.673,3.57
				c-1.162,0.541-2.248,1.369-3.062,2.292C358.13,10.673,357.25,8.721,356.421,6.753z M359.567,13.758
				c0.711-0.697,1.443-1.34,2.356-1.833c0.559-0.302,1.145-0.494,1.735-0.67c1.281,0.769,2.56,1.54,3.85,2.295
				c-1.079,0.413-2.117,1.028-2.906,1.552c-1.108,0.736-2.247,1.672-3.081,2.785C360.868,16.516,360.215,15.139,359.567,13.758z
				 M364.3,23.639c-0.426-0.854-0.861-1.704-1.268-2.566c-0.304-0.645-0.613-1.293-0.921-1.94c1.05-1.102,2.02-2.214,3.376-3.064
				c1.176-0.736,2.546-1.005,3.8-1.476c1.647,0.956,3.296,1.907,4.947,2.857C370.435,18.064,366.228,20.606,364.3,23.639z
				 M359.635,33.77c1.795,1.851,3.626,3.652,5.633,5.251c-6.866-1.069-13.185-1.811-19.768,1.871
				c-3.685,2.061-6.673,5.095-8.446,8.753c-1.072-1.749-2.143-3.564-3.267-5.341c0.781-1.811,1.4-3.594,2.811-5.197
				c1.881-2.138,4.348-3.794,7.009-4.798C348.892,32.316,354.264,32.919,359.635,33.77z M299.716,15.163
				c-2.02-0.878-4.104-1.601-6.222-2.225c2.557-0.406,5.119-0.713,7.685-0.848c-0.197,0.262-0.371,0.518-0.505,0.728
				C300.212,13.548,299.864,14.341,299.716,15.163z M302.153,16.315c-0.447-0.234-0.905-0.442-1.36-0.656
				c0.277-0.755,0.59-1.494,1.053-2.155c0.365-0.521,1.013-0.978,1.53-1.481c2.265-0.021,4.534,0.111,6.807,0.476
				c-1.98,1.477-3.451,3.87-4.152,6.196C304.791,17.826,303.507,17.021,302.153,16.315z M312.736,24.195
				c-1.815-1.658-3.672-3.269-5.638-4.732c0.442-1.501,1.149-2.895,2.189-4.1c0.956-1.108,2.062-1.755,3.231-2.413
				c2.096,0.482,4.154,1.057,6.196,1.666C315.45,16.629,313.236,20.366,312.736,24.195z M315.041,26.325
				c-0.411-0.383-0.824-0.767-1.236-1.149c0.462-1.96,0.815-3.937,1.901-5.712c1.366-2.233,3.273-3.086,5.22-4.177
				c3.05,0.94,6.086,1.913,9.187,2.728c-4.772,2.251-8.996,7.716-9.961,12.484C318.388,29.173,316.646,27.821,315.041,26.325z
				 M321.488,31.502c1.078-3.113,2.005-5.862,4.431-8.455c1.596-1.706,3.896-3.524,6.344-4.488c0.968,0.226,1.945,0.432,2.931,0.612
				c3.601,0.659,6.806,1.55,9.775,2.857c-1.066,0.152-2.129,0.447-3.026,0.693c-2.706,0.743-5.287,1.965-7.577,3.586
				c-2.644,1.872-6.71,5.531-7.721,9.268C325.01,34.139,323.252,32.82,321.488,31.502z M328.222,37.039
				c-0.133-0.131-0.275-0.253-0.41-0.382c0.709-1.792,1.415-3.459,2.733-5.078c1.456-1.787,3.194-3.342,5.117-4.612
				c3.613-2.386,7.62-3.614,11.884-3.662c2.586,1.432,5.014,3.252,7.395,5.619c1.032,1.026,2.037,2.077,3.041,3.127
				c-5.343-0.971-11.079-0.731-15.93,1.441c-3.414,1.528-8.014,5.048-9.369,9.118C331.329,40.592,329.876,38.674,328.222,37.039z
				 M330.259,51.179c1.859,0.813,3.677,1.797,4.752,3.413c1.587,2.385,0.361,7.533-0.822,9.979
				c-0.708,1.464-1.741,2.762-2.567,4.165c-2.046-1.054-4.111-2.114-6.127-3.249c0.031-2.495-0.249-4.974,0.402-7.5
				c0.361-1.4,0.919-2.742,1.715-3.951C328.372,52.879,329.354,52.118,330.259,51.179z M370.166,130.04
				c-2.049-0.642-3.947-0.938-5.726-2.478c-0.957-0.828-1.735-1.832-2.504-2.845c0.21-0.957,0.411-1.918,0.555-2.882
				c1.093,1.379,2.294,2.641,3.942,3.448c1.588,0.778,3.089,0.823,4.795,1.025c0.973,0.115,1.822,0.313,2.615,0.57
				C372.633,127.955,371.413,129.012,370.166,130.04z M375.215,130.772c-0.464,2.545-0.722,5.042-0.761,7.579
				c-0.761-0.646-1.818-1.089-2.629-1.495c-0.928-0.464-1.863-0.84-2.832-1.141C371.136,134.162,373.221,132.516,375.215,130.772z
				 M364.478,129.184c1.184,0.865,2.727,1.686,4.283,1.994c-0.592,0.466-1.191,0.923-1.801,1.371
				c-0.925,0.678-1.875,1.323-2.825,1.965c-0.562-0.213-1.106-0.467-1.613-0.795c-0.797-0.515-1.494-1.189-2.081-1.947
				c0.311-1.487,0.651-2.911,0.873-4.108c0.097-0.524,0.207-1.048,0.321-1.573C362.425,127.236,363.289,128.314,364.478,129.184z
				 M361.871,134.686c0.304,0.225,0.662,0.461,1.053,0.68c-0.736,0.546-2.166,1.66-3.209,2.3c-0.038-1.467,0.187-3.089,0.487-4.686
				C360.663,133.611,361.202,134.191,361.871,134.686z M367.04,137.096c0.324-0.222,0.642-0.455,0.964-0.681
				c1.169,0.489,2.338,0.997,3.449,1.599c0.967,0.524,1.942,1.452,3.01,1.744c0.037,2.151,0.224,4.34,0.591,6.623
				c0.193,1.198,1.959,1.907,2.93,1.192c1.306-0.962,2.621-1.911,3.943-2.852c-1.117,2.676-1.993,5.396-2.669,8.149
				c-1.671-1.954-4.15-3.538-6.228-4.691c-2.985-1.658-6.266-2.787-9.621-3.4c-6.99-1.278-14.043-0.352-20.787,1.623
				c0.455-5.153,1.768-9.949,3.651-14.862c2.012,0.145,4.012,0.136,6.025,0.596c1.537,0.352,2.957,0.963,4.398,1.53
				c-0.472,2.294-0.822,4.691-0.374,6.753c0.129,0.594,0.7,1.168,1.295,1.295C360.796,142.391,364.621,138.757,367.04,137.096z
				 M351.127,158.096c3.436-0.466,6.904-0.767,10.373-0.615c6.036,0.264,11.346,2.21,16.128,5.659
				c-0.183,2.363-0.258,4.741-0.217,7.132c-4.167-3.236-10.46-3.617-15.325-2.355c-3.152,0.817-6.277,2.018-9.27,3.298
				c-1.882,0.805-3.867,1.738-5.484,3.064c-1.718-4.548-3.101-9.226-3.956-14.003C345.666,158.7,348.257,158.485,351.127,158.096z
				 M343.06,158.415c-0.27-1.821-0.459-3.656-0.553-5.504c-0.096-1.873-0.076-3.681,0.038-5.445
				c6.679-1.757,13.698-2.732,20.53-1.471c3.25,0.6,6.42,1.676,9.311,3.286c2.523,1.406,4.374,3.401,6.508,5.193
				c-0.517,2.393-0.894,4.808-1.134,7.242c-4.383-4.058-10.903-5.564-16.736-5.769c-4.215-0.148-8.416,0.352-12.576,0.985
				C346.863,157.174,344.594,157.425,343.06,158.415z M361.032,169.46c2.985-0.906,6.044-1.36,9.141-0.801
				c2.76,0.498,4.937,1.804,7.286,3.149c0.122,3.455,0.447,6.93,0.94,10.411c-3.245-1.942-8.671-1.512-11.848-1.053
				c-4.934,0.713-9.686,2.727-13.522,5.912c-1.772-3.527-3.444-7.103-4.917-10.775c-0.123-0.306-0.235-0.616-0.355-0.923
				C351.972,172.86,356.226,170.919,361.032,169.46z M365.293,182.653c4.299-0.862,9.556-1.046,13.382,1.353
				c0.571,3.632,1.299,7.267,2.15,10.888c-3.357-1.94-7.898-2.463-11.431-2.399c-3.516,0.064-9.128,0.427-11.77,3.339
				c-1.389-2.568-2.761-5.143-4.084-7.742C357.037,185.444,360.939,183.527,365.293,182.653z M357.498,129.928
				c-0.147,0.759-0.331,1.569-0.515,2.403c-3.007-1.482-7.017-2.243-10.28-1.893c0.38-0.954,0.775-1.913,1.195-2.882
				c0.004-0.009,0.003-0.018,0.006-0.027c3.903-1.99,7.751-4.116,11.611-6.19C358.498,124.09,358.035,127.153,357.498,129.928z
				 M353.762,119.993c-0.768-0.09-1.517,0.066-2.301-0.046c-1.208-0.172-2.329-0.76-3.137-1.684
				c-1.246-1.425-1.85-3.458-2.672-5.256c0.436-1.225,0.899-2.44,1.389-3.646c0.651,1.539,1.437,2.989,2.932,4.094
				c2.731,2.019,5.797,2.056,8.415,3.789C357.279,117.902,355.607,118.915,353.762,119.993z M348.147,120.011
				c0.765,0.622,1.944,1.201,3.124,1.41c-1.495,0.838-2.998,1.641-4.338,2.278c-0.359-0.121-0.714-0.273-1.064-0.494
				c-1.239-0.782-2.097-1.91-2.492-3.302c0.446-1.382,0.884-2.612,1.001-3.006c0.236-0.793,0.507-1.57,0.768-2.351
				C345.731,116.629,346.621,118.77,348.147,120.011z M345.47,124.35c-1.52,0.626-2.664,0.899-3.058,0.532
				c-0.316-0.294,0.012-1.792,0.485-3.422c0.507,1.052,1.248,1.982,2.22,2.664C345.227,124.201,345.349,124.276,345.47,124.35z
				 M338.402,105.893c-1.823-1.125-3.479-2.147-4.75-4.11c-1.028-1.586-1.467-3.222-1.782-4.965
				c0.755-1.085,1.548-2.149,2.359-3.196c0.535,1.362,1.339,2.614,2.439,3.773c2.317,2.442,5.603,3.966,7.706,6.611
				C342.386,104.644,340.391,105.261,338.402,105.893z M329.701,105.98c-0.65-0.885-1.094-1.813-1.465-2.783
				c0.736-1.722,1.652-3.377,2.688-4.977c0.51,3.235,2.633,6.637,5.392,8.332c-1.561,0.494-3.124,0.985-4.685,1.481
				C330.938,107.392,330.259,106.74,329.701,105.98z M330.279,108.46c-1.245,0.394-2.489,0.793-3.736,1.181
				c0.158-1.737,0.56-3.394,1.127-4.994C328.213,106.109,329.123,107.48,330.279,108.46z M320.992,81.831
				c0.605-0.471,1.144-0.889,1.548-1.224c1.004-0.834,2.037-1.631,3.076-2.419c-0.777,3.118-0.596,6.976,0.921,9.917
				c-0.714-0.052-1.428-0.101-2.141-0.156c-0.439-0.034-1.042-0.04-1.732-0.042c-0.388-0.736-0.757-1.483-1.013-2.303
				C321.262,84.365,321.089,83.107,320.992,81.831z M321.169,87.901c-2.057-0.018-4.432-0.114-5.902-0.71
				c0.995-1.515,3.012-3.218,4.777-4.616C320.053,84.348,320.414,86.265,321.169,87.901z M326.934,77.191
				c0.916-0.688,1.833-1.375,2.737-2.078c0.035,0.647,0.146,1.3,0.388,1.961c0.552,1.508,1.75,2.303,2.46,3.63
				c1.407,2.627,0.933,5.164,0.893,7.902c-1.669-0.13-3.338-0.248-5.008-0.366c-0.754-1.141-1.422-2.309-1.787-3.775
				C326.013,82.031,326.168,79.557,326.934,77.191z M327.075,49.827c0.561,0.259,1.167,0.508,1.785,0.762
				c-1.938,1.324-3.259,3.91-3.946,5.959c-0.812,2.423-1.179,5.405-0.814,8.129c-1.168-0.692-2.319-1.406-3.421-2.186
				c-1.1-0.778-2.118-1.642-3.103-2.54c-0.146-1.622-0.099-3.095,0.722-4.838c1.228-2.608,3.37-4.667,5.409-6.737
				C324.841,48.83,325.964,49.314,327.075,49.827z M297.248,44.867c-0.255,0.661-0.391,1.335-0.429,2.012
				c-1.919-0.534-3.832-1.085-5.584-1.949c1.977-0.418,4.084-0.411,6.138-0.365C297.33,44.667,297.285,44.769,297.248,44.867z
				 M302.984,48.954c-0.522-0.227-1.046-0.452-1.58-0.656c-1.07-0.41-2.183-0.741-3.305-1.058c0.084-0.65,0.248-1.29,0.502-1.902
				c0.106-0.256,0.244-0.499,0.395-0.736c0.277,0.006,0.553,0.011,0.826,0.013c1.473,0.012,2.948,0.051,4.424,0.108
				c-0.342,0.653-0.55,1.422-0.746,2.047C303.279,47.478,303.102,48.212,302.984,48.954z M309.486,49.939
				c-0.176,0.675-0.352,1.526-0.421,2.397c-1.563-1.099-3.219-2.039-4.94-2.859c0.097-0.472,0.196-0.943,0.328-1.41
				c0.234-0.826,0.63-2.93,1.446-3.277c1.999,0.108,3.995,0.274,5.979,0.525C310.705,46.603,309.909,48.319,309.486,49.939z
				 M310.604,53.47c-0.028-0.954-0.087-1.927,0.13-2.849c0.491-2.082,1.593-3.491,2.849-5.079c0.127,0.02,0.255,0.03,0.381,0.051
				c2.967,0.479,5.84,1.309,8.638,2.359c-2.131,1.898-4.184,3.889-5.463,6.486c-0.714,1.448-0.948,2.825-0.965,4.2
				C314.352,56.88,312.586,55.064,310.604,53.47z M300.428,71.353c2.947-1.009,5.907-1.971,8.905-2.824
				c2.371-0.675,4.949-1.077,7.291-1.938c-4.15,3.679-7.353,9.228-9.728,14.071C304.741,77.559,302.585,74.456,300.428,71.353z
				 M293.736,93.689c3.21-2.541,6.658-4.679,10.316-6.488c-1.67,4.432-2.884,9.012-3.756,13.669
				C298.329,98.26,296.172,95.867,293.736,93.689z M291.896,116.885c2.4-3.061,4.843-6.086,7.331-9.076
				c-0.515,4.192-0.773,8.606-0.714,13.097C296.357,119.48,294.156,118.138,291.896,116.885z M293.59,137.513
				c1.545-3.438,3.305-6.762,5.246-9.99c0.341,4.064,0.955,8.128,1.888,12.088C298.345,138.914,295.967,138.215,293.59,137.513z
				 M296.864,157.812c1.708-4.157,3.598-8.216,5.49-12.288c1.385,4.576,3.526,9.006,5.946,13.283
				C304.509,158.212,300.707,157.871,296.864,157.812z M305.002,178.258c2.139-4.536,4.462-8.971,6.961-13.32
				c1.719,2.763,3.452,5.456,5.053,8.076c1.246,2.039,2.477,4.204,3.623,6.455C315.453,178.624,310.257,178.215,305.002,178.258z
				 M310.713,194.626c4.137-3.266,8.264-6.544,12.382-9.834c4.09,9.951,5.642,20.902-0.791,29.929
				C318.704,207.87,314.843,201.17,310.713,194.626z M282.993,58.5c2.459,6.933,1.72,14.677,0.733,21.817
				c-2.092,15.136-3.559,30.201-3.615,45.502c-0.057,15.547,1.555,31.084,4.563,46.334c1.08,5.475,2.259,12.49,4.407,19.019
				c-1.003-1.28-1.975-2.59-2.908-3.931c-17.479-25.126-21.083-55.125-17.395-84.888c1.139-9.194,3.093-18.21,4.709-27.322
				c0.627-3.534,0.986-7.248-0.09-10.521c3.683-5.401,3.112-11.74,0.627-17.679C277.822,50.044,281.242,53.564,282.993,58.5z
				 M271.658,56.437c0.017,0.026,0.041,0.038,0.06,0.06c-0.072,1.373-0.254,2.751-0.542,4.15c-0.208-0.232-0.425-0.46-0.661-0.682
				c-3.668-3.441-9.467-5.017-14.733-6.359c0.566-0.791,1.087-1.594,1.587-2.403C262.893,50.6,268.182,51.249,271.658,56.437z
				 M258.105,49.979c1.141-1.99,2.1-4.036,2.899-6.15c1.57-0.003,3.08,0.145,4.737,0.724c1.366,0.477,2.66,1.135,3.896,1.89
				c0.102,0.209,0.211,0.414,0.309,0.627c1.155,2.533,1.68,4.963,1.785,7.382C268.52,50.518,263.043,48.958,258.105,49.979z
				 M279.445,46.635c-2.553-2.432-5.547-4.537-8.93-6.292c-0.433-0.655-0.885-1.291-1.344-1.918
				c1.391-0.315,2.794-0.539,4.251-0.535c1.64,0.006,3.21,0.466,4.802,0.679C278.727,41.239,278.97,43.974,279.445,46.635z
				 M272.388,23.966c1.309,2.197,2.437,4.481,3.412,6.843c-1.937-0.66-4.359-0.91-6.558-0.587
				C270.434,28.215,271.482,26.122,272.388,23.966z M268.304,31.737c0.762-0.159,1.53-0.304,2.325-0.335
				c1.998-0.078,3.826,0.399,5.744,0.814c0.417,1.103,0.805,2.222,1.146,3.366c0.148,0.496,0.276,0.998,0.394,1.502
				c-2.838-0.975-6.559-0.615-9.512,0.308c-0.726-0.94-1.472-1.839-2.223-2.692C266.941,33.749,267.639,32.753,268.304,31.737z
				 M262.945,37.257c2.005,2.11,3.87,4.351,5.391,6.822c-0.937-0.485-1.924-0.89-2.966-1.214c-1.076-0.335-2.432-0.713-3.746-0.794
				C262.143,40.504,262.582,38.902,262.945,37.257z M253.457,18.45c1.1-1.971,0.778-1.193,2.053,0.445
				c0.261,0.335,0.497,0.687,0.742,1.034c-1.234-0.22-2.601-0.129-3.911,0.148C252.756,19.54,253.153,18.994,253.457,18.45z
				 M250.895,21.901c0.031-0.041,0.067-0.084,0.099-0.125c1.139-0.306,2.294-0.554,3.463-0.553c1.115,0,2.077,0.283,3.042,0.618
				c0.857,1.432,1.617,2.922,2.278,4.459c-3.671-1.731-8.798-0.778-12.705,0.372C248.428,25.151,249.667,23.506,250.895,21.901z
				 M254.328,26.526c2.433,0.057,4.286,0.82,6.259,1.819c0.303,0.866,0.588,1.74,0.924,2.58c-0.986,0.09-1.87,0.909-1.964,2.056
				c-0.062,0.76-0.158,1.511-0.273,2.257c-3.852-2.997-8.333-5.464-13.053-7.57C248.888,27.077,251.589,26.462,254.328,26.526z
				 M92.194,13.366c5.652,0.489,11.265,1.491,16.953,1.665c7.083,0.217,14.189-0.137,21.273-0.223
				c15.596-0.191,31.214-0.032,46.763,1.285c14.595,1.236,29.113,3.534,43.24,7.451c6.618,1.835,13.131,4.028,19.499,6.6
				c6.323,2.554,12.266,6.074,18.647,8.446c-0.899,3.41-2.318,6.653-4.139,9.688c-1.675-5.44-4.632-10.276-8.689-14.455
				c-0.954-0.982-2.673-0.747-3.35,0.432c-2.733,4.756-6.044,8.879-9.546,13.074c-0.002,0.002-0.003,0.005-0.005,0.007
				c-2.054-0.53-4.111-1.049-6.17-1.555c-32.73-8.052-66.193-13.193-99.83-15.348c-4.682-0.3-9.378-0.548-14.082-0.727
				c-0.124-0.405-0.378-0.785-0.811-1.081C105.037,23.904,98.448,18.87,92.194,13.366z M247.151,42.526
				c0.678,1.106,1.292,2.245,1.833,3.421c-1.169-0.496-2.482-0.778-3.462-0.971c-1.494-0.295-3.224-0.485-4.863-0.317
				c0.717-0.942,1.408-1.906,2.075-2.885C244.336,41.653,245.775,41.822,247.151,42.526z M243.338,40.84
				c0.42-0.638,0.845-1.273,1.244-1.922c0.504,0.61,0.974,1.236,1.424,1.872C245.143,40.694,244.227,40.733,243.338,40.84z
				 M243.341,45.902c1.21,0.107,4.812,0.643,6.396,1.811c0.592,1.509,1.094,3.069,1.491,4.693c-0.102-0.029-0.209-0.058-0.309-0.087
				c-4.484-1.316-8.986-2.571-13.501-3.777c0.759-0.811,1.482-1.657,2.184-2.522C240.841,45.931,242.076,45.791,243.341,45.902z
				 M23.382,44.735c12.913,0.147,25.872-0.779,38.797-0.647c13.37,0.137,26.73,0.753,40.075,1.548
				c27.275,1.625,54.521,4.228,81.709,6.92c13.383,1.325,26.765,2.964,39.882,6.002c6.037,1.398,13.22,2.614,18.535,5.944
				c0.352,0.221,0.686,0.453,1.006,0.696c-32.175,7.34-63.64,17.565-94.673,28.722c-16.15,5.806-32.205,11.88-48.187,18.132
				c-8.097,3.168-16.179,6.375-24.238,9.638c-6.619,2.68-14.469,5.126-20.483,9.186C63.162,99.224,49.918,63.615,23.382,44.735z
				 M57.62,131.556c6.596-1.522,13.255-4.856,19.378-7.287c8.077-3.206,16.167-6.376,24.277-9.498
				c16.012-6.163,32.067-12.221,48.228-17.984c29.176-10.404,58.747-19.56,88.908-26.594c-24.115,15.91-47.367,33.179-69.604,51.613
				c-12.403,10.282-24.499,20.942-36.209,32.007c-5.745,5.429-11.404,10.947-16.975,16.556c-4.693,4.724-9.799,9.405-14.053,14.61
				C100.679,160.026,81.963,137.197,57.62,131.556z M148.212,207.622c-6.698-17.859-26.193-27.005-44.098-21.337
				c4.77-4.327,9.114-9.266,13.682-13.741c5.647-5.532,11.374-10.985,17.176-16.355c11.604-10.742,23.487-21.182,35.679-31.252
				c21.057-17.392,43.016-33.571,65.732-48.692c-17.768,15.893-32.505,34.834-45.675,54.731
				c-8.174,12.349-15.944,24.994-23.453,37.757C160.05,180.981,152.29,193.863,148.212,207.622z M211.826,204.068
				c-0.018,0.056-0.02,0.116-0.03,0.174c-6.406-6.939-15.982-10.263-25.526-10.122c-12.947,0.19-24.63,6.52-35.433,13.268
				c5.949-11.886,11.51-23.879,18.279-35.388c7.386-12.558,15.079-24.966,23.145-37.1c14.94-22.475,31.724-44.003,52.697-61.132
				c-3.866,8.481-7.002,17.398-10.169,26.094c-4.273,11.731-8.23,23.575-11.641,35.586
				C216.793,157.829,212.453,180.781,211.826,204.068z M244.08,205.897c-8.777-4.617-19.664-5.802-28.195-0.861
				c0.531-23.588,4.909-46.795,11.345-69.454c3.147-11.079,6.741-22.035,10.523-32.912c3.488-10.032,7.578-20.039,10.525-30.275
				c0.804,2.441,1.145,5.094,1.218,7.735c0.366,13.223-2.641,26.695-4.831,39.672c-2.06,12.207-4.095,24.494-4.462,36.892
				c-0.552,18.644,3.354,38.028,12.304,54.591C249.805,209.269,247.009,207.438,244.08,205.897z M246.213,222.833
				c1.198,1.557,3.164,5.269,3.57,5.896c1.476,2.277,2.893,4.59,4.401,6.846c0.173,0.259,0.376,0.455,0.596,0.603
				c-4.62-0.542-9.226-1.203-13.829-1.908C242.647,230.494,244.178,226.413,246.213,222.833z M222.023,228.267
				c2.109-2.826,3.953-5.84,5.659-8.926c3.503,4.133,5.782,9.019,7.766,14.073c-5.162-0.812-10.328-1.632-15.515-2.349
				C220.727,230.214,221.381,229.128,222.023,228.267z M203.415,224.354c0.295-0.646,1.095-4.731,1.662-6.816
				c3.87,3.124,6.66,8.179,8.965,12.766c-4.447-0.538-8.92-1.007-13.407-1.38C201.706,227.51,202.654,226.019,203.415,224.354z
				 M186.761,216.065c3.304,3.603,5.482,7.888,7.417,12.397c-4.563-0.277-9.135-0.436-13.704-0.452
				C183.027,224.424,184.896,220.063,186.761,216.065z M165.901,216.029c3.1,3.821,5.338,7.922,7.866,12.051
				c-4.624,0.138-9.238,0.451-13.83,0.957C161.925,224.702,163.913,220.366,165.901,216.029z M152.694,230.023
				c-5.538,0.886-10.996,2.102-16.347,3.65c-0.38-6.785-1.178-13.499-2.362-20.179C141.38,217.454,147.228,223.666,152.694,230.023z
				 M131.14,235.297c-5.823,1.95-11.496,4.31-16.982,7.088c0.39-6.799-1.074-14.12-2.052-20.956
				C119.241,224.926,125.589,229.587,131.14,235.297z M81.201,239.629c2.096,0.057,5.414,0.735,6.243,0.814
				c3.259,0.308,6.518,0.645,9.767,1.042c2.569,0.314,5.158,0.668,7.623,1.49c1.532,0.511,2.931,1.353,4.384,2.028
				c-2.678,1.514-5.311,3.121-7.882,4.847c-4.059,2.724-8.051,5.584-11.979,8.546C87.175,251.953,84.316,245.683,81.201,239.629z
				 M57.128,258.883c5.116-0.561,10.281-0.484,15.375,0.374c3.995,0.673,8.014,2.419,12.058,2.854
				c-6.018,4.752-11.848,9.756-17.427,14.982C64.451,270.646,61.152,264.574,57.128,258.883z M35.408,281.784
				c9.076-2.081,18.299-2.298,27.478-0.596c-0.831,0.814-1.681,1.612-2.5,2.435c-4.502,4.526-8.803,9.276-12.838,14.239
				C43.873,292.211,39.831,286.861,35.408,281.784z M19.908,307.459c7.604-2.778,15.426-4.247,23.52-4.325
				c-2.875,3.838-5.587,7.795-8.084,11.883c-1.448,1.997-2.778,4.064-4.005,6.186C27.635,316.532,23.828,311.948,19.908,307.459z
				 M8.894,340.433c6.087-4.799,12.66-8.425,19.09-12.673c-3.293,7.219-5.528,14.937-6.874,22.847
				C17.432,346.72,13.37,343.338,8.894,340.433z M5.858,371.439c4.43-5.335,9.23-10.29,14.417-14.899
				c-0.682,5.903-0.924,11.862-0.778,17.75C15.285,372.796,10.407,372.285,5.858,371.439z M7.996,391.599
				c4.136-3.959,8.748-8.327,11.668-13.203c0.129,2.39,0.312,4.764,0.555,7.111c0.444,4.288,1.062,8.62,1.866,12.944
				C17.204,396.531,12.526,394.25,7.996,391.599z M16.141,421.183c2.196-5.145,4.761-10.095,7.639-14.883
				c1.395,5.709,3.164,11.337,5.362,16.771C25.082,421.833,20.403,421.614,16.141,421.183z M29.139,445.642
				c0.413-3.039,0.826-6.078,1.226-9.119c0.342-2.593,1.093-5.412,1.133-8.105c2.709,5.748,5.95,11.207,9.807,16.219
				C37.222,444.712,33.175,445.05,29.139,445.642z M44.914,462.522c0.077-4.304,0.27-8.599,0.578-12.893
				c0.643,0.701,1.286,1.401,1.958,2.079c2.796,2.818,5.782,5.474,8.893,8.006C52.509,460.329,48.673,461.486,44.914,462.522z
				 M70.477,474.495c-1.405,0.583-2.807,1.171-4.21,1.757c-0.561,0.235-1.123,0.469-1.684,0.704
				c-1.488,1.137-1.99,1.165-1.507,0.083c-0.215-0.31-0.059-3.053-0.116-3.637c-0.165-1.676-0.329-3.352-0.511-5.026
				c-0.158-1.459-0.317-2.915-0.5-4.369c4.228,3.07,8.657,5.917,13.228,8.548C73.61,473.201,72.042,473.845,70.477,474.495z
				 M85.487,487.882c-1.389-3.893-2.664-7.819-3.832-11.784c3.664,1.904,7.389,3.688,11.151,5.346
				C90.363,483.585,87.923,485.731,85.487,487.882z M111.029,491.276c-2.232,1.868-4.359,3.785-7.018,5.12
				c-1.674-2.898-2.013-5.922-3.315-8.975c-0.473-1.109-0.973-2.205-1.479-3.298c4.75,1.911,9.521,3.653,14.256,5.211
				C112.625,489.957,111.82,490.614,111.029,491.276z M133.718,497.727c-0.891,0.849-1.782,1.698-2.674,2.548
				c-0.824,1.599-1.833,1.705-3.026,0.316c-2.798-1.099-4.591-5.056-5.907-8.627c4.635,1.31,9.311,2.462,14.02,3.467
				C135.324,496.193,134.523,496.96,133.718,497.727z M153.231,502.812c-0.924,0.865-1.886,2.094-2.945,2.779
				c-2.083,1.346-0.942,1.537-1.913-0.852c-1.085-2.67-3.361-5.699-5.742-8.035c4.9,0.899,9.829,1.636,14.777,2.229
				C156.014,500.223,154.619,501.513,153.231,502.812z M172.794,506.413c-2.759,0.611-6.646-3.756-8.962-6.793
				c4.753,0.445,9.518,0.756,14.288,0.937C176.456,503.126,174.59,506.016,172.794,506.413z M191.672,507.165
				c-2.604-2.024-5.152-4.171-7.543-6.451c3.555,0.058,7.111,0.064,10.663-0.02c0.36-0.008,0.721-0.027,1.081-0.037
				C194.291,502.52,192.932,505.021,191.672,507.165z M214.777,502.721c-1.501,2.582-1.249,3.777-4.03,2.304
				c-2.206-1.169-4.131-3.169-6.186-4.74c4.065-0.232,8.125-0.546,12.178-0.94C216.085,500.471,215.431,501.596,214.777,502.721z
				 M231.167,502.859c-2.563-0.164-5.169-2.195-7.131-4.299c4.707-0.566,9.4-1.238,14.078-1.999
				C236.543,499.707,234.58,503.077,231.167,502.859z M251.012,499.801c-2.237-1.17-4.193-2.62-5.905-4.448
				c3.516-0.66,7.017-1.392,10.513-2.143C254.049,495.381,252.533,497.595,251.012,499.801z M195.827,483.655
				c0.005-0.019,0-0.035,0.003-0.053c3.709,0.07,7.384,0.058,11.003-0.031c-3.762,0.757-7.538,1.425-11.346,1.948
				C195.549,484.888,195.661,484.268,195.827,483.655z M184.163,483.103c3.531,0.239,7.049,0.387,10.541,0.468
				c-0.168,0.657-0.294,1.321-0.355,1.997c-0.003,0.033-0.006,0.069-0.01,0.103c-2.943,0.38-5.907,0.673-8.904,0.838
				c-0.537,0.03-1.074,0.048-1.612,0.071c-0.026-0.181-0.049-0.362-0.055-0.543C183.733,484.998,183.903,484.062,184.163,483.103z
				 M174.299,482.219c2.906,0.332,5.814,0.597,8.716,0.809c-0.296,0.834-0.467,1.72-0.52,2.591
				c-0.018,0.292-0.036,0.653-0.025,1.022c-3.17,0.109-6.344,0.118-9.516,0.036c0.098-0.449,0.188-0.901,0.304-1.338
				C173.54,484.275,173.902,483.241,174.299,482.219z M172.988,482.073c-0.38,0.955-0.733,1.919-1.011,2.912
				c-0.151,0.539-0.314,1.096-0.42,1.658c-4.734-0.164-9.461-0.536-14.164-1.104c1.242-1.649,2.318-3.469,2.851-5.44
				C164.461,480.913,168.72,481.556,172.988,482.073z M150.264,477.842c2.879,0.753,5.792,1.412,8.723,2.002
				c-0.971,1.824-1.81,3.721-2.799,5.544c-2.974-0.381-5.938-0.834-8.885-1.37c-0.197-0.036-0.394-0.076-0.591-0.113
				c0.848-1.154,1.511-2.459,2.207-3.701C149.338,479.455,149.843,478.663,150.264,477.842z M148.763,477.445
				c-0.387,0.686-0.733,1.395-1.083,2.036c-0.744,1.367-1.587,2.734-2.114,4.206c-3.532-0.678-7.048-1.458-10.527-2.363
				c0.601-0.77,1.111-1.686,1.492-2.226c0.94-1.334,2.341-2.868,3.143-4.46C142.656,475.68,145.693,476.607,148.763,477.445z
				 M138.208,474.114c-0.598,0.798-1.091,1.707-1.62,2.502c-0.214,0.321-1.847,2.917-2.772,4.378
				c-3.483-0.937-6.931-1.989-10.32-3.183c1.57-1.047,2.919-2.335,4.075-3.854c0.665-0.874,1.607-2.026,2.304-3.219
				C132.595,471.97,135.381,473.085,138.208,474.114z M128.399,470.051c-0.428,0.778-0.814,1.589-1.256,2.24
				c-1.346,1.982-2.89,3.749-4.897,5.068c-3.574-1.301-7.09-2.739-10.506-4.37c1.212-0.707,2.376-1.814,3.086-2.414
				c1.57-1.326,3.5-3.127,4.904-5.102C122.535,467.136,125.433,468.654,128.399,470.051z M110.54,459.277
				c2.503,1.924,5.104,3.708,7.79,5.362c-0.665,0.972-1.332,1.947-2.125,2.805c-0.852,0.921-3.588,3.987-5.667,4.968
				c-3.714-1.83-7.318-3.868-10.777-6.146c2.244-0.728,4.369-1.966,6.272-3.285C107.479,461.977,109.365,460.775,110.54,459.277z
				 M109.424,458.407c-1.622,1.201-3.086,2.917-4.701,4.002c-1.869,1.256-3.876,2.217-5.835,3.292
				c-3.414-2.303-6.687-4.837-9.783-7.636c4.474-1.051,9.463-3.254,12.98-6.204C104.413,454.202,106.868,456.375,109.424,458.407z
				 M101.084,450.821c-1.802,1.171-3.539,2.436-5.472,3.43c-2.391,1.229-4.874,2.127-7.384,3.031
				c-1.211-1.126-2.401-2.284-3.554-3.494c-1.854-1.944-3.62-3.973-5.298-6.075c5.031-0.143,10.861-2.144,14.777-5.112
				C96.305,445.538,98.63,448.265,101.084,450.821z M93.432,441.595c-2.538,1.288-4.924,2.709-7.677,3.623
				c-2.299,0.763-4.665,1.177-7.022,1.672c-2.626-3.365-5.031-6.908-7.186-10.602c2.167,0.771,4.811,0.194,7.002-0.251
				c2.992-0.607,6.812-1.696,9.301-3.675C89.482,435.57,91.35,438.655,93.432,441.595z M87.287,431.199
				c-2.132,1.545-4.855,2.526-7.336,3.232c-2.645,0.753-6.505,1.855-9.111,0.577c-1.91-3.393-3.636-6.891-5.125-10.49
				c2.846,0.307,5.965-0.265,8.64-0.712c2.632-0.44,6.375-0.859,8.992-2.245C84.442,424.858,85.765,428.078,87.287,431.199z
				 M68.368,385.847c3.811,0.825,7.854,1.742,11.688,0.766c0,0.001-0.001,0.003-0.001,0.005c-0.474,3.297-0.701,6.622-0.726,9.948
				c-1.167,0.174-2.339,0.492-3.479,0.644c-2.123,0.282-4.26,0.421-6.402,0.388c-3.815-0.058-7.347-0.484-10.674-2.217
				c-0.29-4.376-0.241-8.729,0.125-13.041C61.524,384.355,65.352,385.194,68.368,385.847z M58.995,381.154
				c0.351-3.576,0.911-7.124,1.666-10.632c2.827,2.67,5.958,4.527,9.716,5.715c3.413,1.079,7.541,2.006,11.356,2.163
				c-0.592,2.264-1.076,4.531-1.449,6.785c-4.012,1.047-7.982,0.256-11.998-0.597c-1.625-0.345-3.255-0.717-4.832-1.246
				C61.799,382.788,60.436,381.976,58.995,381.154z M68.054,398.814c2.475,0.152,4.963,0.096,7.427-0.179
				c1.233-0.138,2.584-0.237,3.844-0.549c0.05,3.937,0.408,7.871,1.061,11.755c-3.068,0.802-6.012,1.607-9.267,1.765
				c-3.172,0.153-6.907,0.197-9.972-0.981c-0.965-3.958-1.682-7.973-2.113-12.019c-0.069-0.645-0.103-1.287-0.156-1.931
				C61.487,398.363,65.105,398.633,68.054,398.814z M70.22,412.973c3.422-0.054,7.147-0.49,10.436-1.692
				c0.568,3.031,1.332,6.024,2.253,8.967c-0.983,0.253-1.936,0.666-2.927,0.954c-1.659,0.483-3.342,0.883-5.04,1.206
				c-3.186,0.606-6.465,1.004-9.718,0.935c-1.495-3.752-2.755-7.597-3.763-11.504C64.111,413.008,67.537,413.015,70.22,412.973z
				 M82.165,376.781c-3.397-0.542-6.904-0.613-10.261-1.513c-3.961-1.063-8.038-2.875-11.024-5.754
				c1.243-5.497,2.949-10.896,5.049-16.156c2.159,3.182,5.537,5.874,8.529,8.005c1.957,1.394,4.031,2.629,6.191,3.682
				c1.493,0.728,3.242,1.68,4.958,2.041C84.247,370.263,83.094,373.513,82.165,376.781z M86.144,365.835
				c-1.519-0.778-3.311-1.22-4.824-1.939c-2.05-0.974-4.021-2.117-5.893-3.4c-3.48-2.386-6.051-5.451-9.04-8.269
				c1.595-3.879,3.388-7.685,5.372-11.394c2.18,3.781,4.767,7.296,7.785,10.466c2.754,2.893,6.118,6.167,9.734,8.293
				C88.139,361.624,87.096,363.712,86.144,365.835z M90.091,358.198c-3.182-2.423-6.464-4.619-9.318-7.54
				c-3.23-3.305-5.997-7.005-8.408-10.939c1.223-2.234,2.507-4.436,3.852-6.598c0.954-1.534,1.939-3.055,2.947-4.564
				c1.197,1.654,2.151,3.643,3.165,5.181c1.425,2.163,2.919,4.285,4.559,6.29c1.663,2.033,3.49,3.944,5.533,5.598
				c1.294,1.048,2.817,2.35,4.467,2.927C94.366,351.543,92.101,354.789,90.091,358.198z M97.709,347.594
				c-1.663-1.446-3.912-2.417-5.576-3.882c-2.163-1.904-4.067-4.085-5.817-6.37c-1.694-2.211-3.223-4.534-4.755-6.858
				c-0.634-0.962-1.223-1.853-1.919-2.637c2.272-3.36,4.684-6.64,7.237-9.798c1.322,2.766,3.339,5.417,5.393,7.803
				c-0.445,1.383-0.802,2.789-1.028,4.221c-0.282,1.782,1.688,3.225,3.147,1.832c0.609-0.582,1.249-1.126,1.903-1.654
				c3.194,3.294,6.795,6.397,10.697,8.807C103.616,341.518,100.517,344.4,97.709,347.594z M124.447,318.091
				c-1.397-0.031-2.756,0.018-4.099,0.103c1.336-2.199,0.744-5.776-0.002-8.061c-0.813-2.491-2.305-4.701-4.155-6.542
				c3.656-2.358,8.286-4.358,12.045-7.087c-1.705,4.594-2.907,9.367-3.584,14.096C124.272,313.249,124.218,315.733,124.447,318.091z
				 M103.811,318.087c-0.524-0.521-1.063-0.931-1.632-1.256c1.467-2.031,3.093-3.941,4.87-5.752c1.26,0.955,2.321,2.195,3.013,3.579
				c0.788,1.574,1.007,3.285,1.455,4.935c-1.893,0.492-3.749,1.085-5.568,1.796c-0.131-0.423-0.385-0.857-0.527-1.129
				C105.003,319.458,104.451,318.724,103.811,318.087z M104.729,321.879c-2.633,1.104-5.204,2.422-7.744,3.934
				c1.32-2.901,2.846-5.601,4.591-8.128c0.957,0.733,1.796,1.632,2.382,2.586C104.073,320.458,104.366,321.271,104.729,321.879z
				 M119.403,318.261c-2.219,0.185-4.378,0.506-6.476,0.982c-0.283-3.622-2.3-6.85-5.265-8.781c2.285-2.251,4.823-4.343,7.647-6.291
				c1.397,1.86,2.824,3.678,3.583,5.94c0.498,1.485,0.737,3.058,0.71,4.624C119.582,315.971,119.237,317.06,119.403,318.261z
				 M119.706,322.047c-1.828,1.865-3.472,3.932-4.961,6.129c-1.352-0.872-2.538-1.811-3.491-3.227
				c-0.289-0.43-0.526-1.001-0.805-1.537C113.489,322.643,116.611,322.188,119.706,322.047z M120.108,296.495
				c-0.111,0.061-0.218,0.126-0.329,0.187c-0.306-1.572-1.209-3.059-2.217-4.285c4.76-2.364,9.802-4.239,15.163-5.477
				c-0.159,0.278-0.325,0.551-0.48,0.832C129.386,292.008,124.52,294.079,120.108,296.495z M118.653,297.324
				c-2.858,1.639-5.625,3.434-8.256,5.415c-0.353-0.851-1-1.624-1.493-2.374c-0.445-0.676-0.908-1.34-1.371-2.003
				c2.834-1.989,5.789-3.797,8.866-5.395C117.505,294.309,118.043,295.775,118.653,297.324z M107.967,301.193
				c0.466,0.774,0.879,1.629,1.498,2.287c-0.699,0.544-1.402,1.084-2.081,1.654c-2.189,1.837-4.349,3.9-6.35,6.146
				c-0.335-0.417-0.667-0.833-0.964-1.254c-0.815-1.157-1.54-2.471-2.469-3.563c2.879-2.695,5.907-5.202,9.084-7.491
				C107.105,299.716,107.526,300.46,107.967,301.193z M99.119,310.935c0.301,0.459,0.614,0.961,0.948,1.46
				c-3.04,3.603-5.637,7.637-7.275,11.958c-0.755-0.939-1.49-1.895-2.191-2.874c-1.019-1.425-1.918-2.964-2.918-4.417
				c2.902-3.518,5.988-6.869,9.263-9.99C97.451,308.45,98.339,309.746,99.119,310.935z M109.28,337.476
				c-0.381,0.246-0.755,0.504-1.129,0.761c-3.835-2.709-7.498-5.484-10.817-8.793c3.564-2.635,7.688-4.503,12.012-5.721
				c0.19,0.458,0.35,0.943,0.532,1.278c0.405,0.746,0.908,1.435,1.47,2.07c0.75,0.847,1.657,1.631,2.655,2.216
				c-1.614,2.526-3.024,5.214-4.235,7.992C109.607,337.308,109.443,337.37,109.28,337.476z M110.058,349.776
				c0.603-2.499,1.35-4.957,2.234-7.369c0.982,0.482,1.778,1.329,2.302,2.325c0.35,0.666,0.597,1.381,0.799,2.105
				c0.018,0.064,0.029,0.117,0.044,0.177C113.577,347.815,111.767,348.703,110.058,349.776z M116.789,346.447
				c-0.315-1.21-1.07-2.48-1.661-3.23c-0.671-0.851-1.508-1.47-2.452-1.793c0.685-1.778,1.429-3.537,2.287-5.255
				c0.255-0.511,0.524-1.013,0.795-1.514c1.467,0.798,2.568,2.076,3.769,3.523c1.676,2.019,2.4,3.868,2.807,6.179
				C120.475,345.038,118.613,345.71,116.789,346.447z M123.808,343.816c-0.191-2.29-1.722-4.577-3.108-6.225
				c-1.478-1.757-2.73-3.174-4.436-3.845c1.173-2.073,2.466-4.065,3.801-6.031c2.566,1.936,4.777,4.26,6.305,7.135
				c0.847,1.593,1.466,3.301,1.831,5.069c0.126,0.609,0.134,1.341,0.209,2.051C126.902,342.637,125.36,343.238,123.808,343.816z
				 M129.694,341.38c-0.165-1.103-0.234-2.266-0.534-3.268c-0.514-1.716-1.264-3.375-2.207-4.897
				c-1.611-2.599-3.741-4.768-6.367-6.257c1.126-1.641,2.27-3.269,3.398-4.913c0.306,0.014,0.614,0.02,0.919,0.039
				c0.08,0.005,0.15-0.005,0.225-0.008c1.48,5.831,4.905,10.867,9.878,15.631c0.11,0.106,0.226,0.206,0.337,0.311
				C133.573,339.353,131.67,340.437,129.694,341.38z M129.742,365.796c1.596-1.408,3.046-2.973,4.329-4.653
				c0.906,0.243,1.707,0.691,2.103,1.702c0.088,0.225,0.146,0.473,0.204,0.721C134.199,364.464,131.963,365.211,129.742,365.796z
				 M137.473,363.093c-0.212-0.672-0.411-1.264-0.957-1.824c-0.447-0.458-1.085-0.852-1.76-1.061
				c1.303-1.844,2.395-3.819,3.24-5.884c0.855,0.349,1.707,0.72,2.397,1.486c0.85,0.944,1.51,2.09,2.013,3.252
				c0.178,0.41,0.298,0.832,0.434,1.243C141.127,361.336,139.331,362.276,137.473,363.093z M144.112,359.527
				c-0.478-1.506-1.571-3.086-2.342-4.023c-0.665-0.808-1.458-1.562-2.441-1.962c-0.3-0.122-0.615-0.192-0.936-0.244
				c0.656-1.802,1.12-3.668,1.365-5.571c3.874,1.796,6.453,5.295,7.632,9.402C146.356,357.974,145.263,358.777,144.112,359.527z
				 M148.528,356.151c-1.029-4.349-4.521-7.744-8.702-9.111c0.166-1.652,0.175-3.329-0.012-5.02
				c4.054,3.459,8.346,6.642,12.821,9.542C151.497,353.207,150.103,354.737,148.528,356.151z M151.337,379.232
				c-0.578-2.416-0.712-5.016-0.538-7.664c0.697,0.186,1.378,0.492,2.089,0.874c0.493,0.265,0.998,0.548,1.44,0.902
				C153.169,375.206,152.166,377.174,151.337,379.232z M154.978,372.34c-0.369-0.272-0.745-0.499-1.037-0.653
				c-0.92-0.486-1.992-0.954-3.068-1.132c0.174-1.825,0.491-3.664,0.908-5.474c1.481,0.223,2.916,0.625,4.213,1.423
				c0.809,0.498,1.402,1.221,2.02,1.898C156.92,369.647,155.901,370.958,154.978,372.34z M159,367.318
				c-0.742-0.849-1.775-1.549-2.605-2.001c-1.379-0.751-2.879-1.156-4.407-1.074c0.499-2.004,1.118-3.96,1.799-5.816
				c2.07,0.243,4.255,0.802,5.813,1.867c1.396,0.953,2.147,2.384,2.917,3.798C161.281,365.1,160.095,366.166,159,367.318z
				 M163.721,363.142c-0.954-1.579-2.213-3.038-3.513-3.884c-1.992-1.297-4.034-1.517-6.182-1.467
				c0.21-0.551,0.422-1.098,0.642-1.627c0.595-0.726,1.146-1.488,1.631-2.304c2.145,1.291,4.324,2.523,6.534,3.691
				c1.527,0.807,3.371,1.708,5.338,2.712C166.606,361.116,165.128,362.088,163.721,363.142z M165.803,385.213
				c1.463-1.507,2.801-3.172,3.963-4.944c0.814,0.438,1.538,1.034,2.076,1.801c0.367,0.523,0.647,1.109,0.821,1.724
				c0.005,0.018,0.007,0.036,0.011,0.054C170.4,384.358,168.105,384.799,165.803,385.213z M174.053,383.523
				c-0.279-0.908-0.864-1.823-1.305-2.355c-0.669-0.807-1.492-1.415-2.424-1.782c1.232-2.02,2.222-4.169,2.899-6.38
				c1.338,0.63,2.536,1.484,3.447,2.776c1.247,1.771,1.74,3.939,2.327,6.025C177.404,382.513,175.768,383.084,174.053,383.523z
				 M182.034,380.244c-0.575,0.348-1.157,0.662-1.743,0.961c-1.12-3.851-3.018-8.161-6.729-9.408
				c0.688-2.752,0.873-5.582,0.393-8.374c6.124,3.66,11.753,8.389,11.738,14.568C184.444,378.594,183.359,379.442,182.034,380.244z
				 M245.905,464.191c-1.373,0.037-2.621-0.106-3.802,0.114c0.165-2.031-0.894-4.234-2.107-5.998
				c-0.191-0.278-0.4-0.528-0.603-0.789c1.909-0.846,3.767-1.367,6.201-0.389c2.953,1.186,4.692,3.837,5.663,6.733
				C249.477,464.019,247.695,464.142,245.905,464.191z M253.057,458.501c1.479-0.855-8.082-5.637-8.247-5.818
				c-1.335-1.466-0.595-3.751-0.575-5.494c2.564-1.132,5.641-1.183,8.1,0.329c2.759,1.697,5.857,5.909,6.983,9.552
				C257.189,457.12,254.821,457.481,253.057,458.501z M293.775,448.852c-1.043-0.024-2.087-0.055-3.13-0.073
				c-1.203-0.021-2.425-0.125-3.618-0.037c0.087-1.854-0.221-3.924-0.939-5.816c1.537-0.205,3.155-0.352,4.607,0.235
				c1.446,0.585,2.38,1.789,2.992,3.194c0.221,0.507,0.662,1.576,0.886,2.516C294.307,448.864,294.041,448.858,293.775,448.852z
				 M284.351,432.477c2.705-0.154,5.208,0.328,7.535,2.069c2.111,1.579,5.826,5.603,4.009,8.26c-1.36-1.756-3.157-3.055-5.519-3.428
				c-1.463-0.232-4.085-0.19-5.86,0.665c-0.168-0.226-0.358-0.429-0.542-0.639C285.352,437.271,285.304,434.734,284.351,432.477z
				 M250.65,393.772c-1.851,3.692-4.279,7.066-6.279,10.674c-2.789,5.034-5.952,11.896-2.245,17.311
				c3.396,4.962,10.8,6.307,16.254,7.208c4.985,0.823,25.271-0.662,22.234,8.158c-1.071-0.36-2.203-0.514-3.38-0.608
				c-4.55-0.364-7.652-0.942-11.492-3.593c-0.839-0.579-1.57,0.631-1.013,1.313c1.872,2.293,4.195,3.8,7.07,4.532
				c1.723,0.439,3.508,0.241,5.224,0.618c3.838,0.843,6.313,3.229,6.114,7.359c-0.239,4.96-6.942,3.278-10.641,3.195
				c-4.344-0.098-8.678-0.38-13.009-0.723c-0.114-0.009-0.217,0-0.321,0.006c-1.716-2.018-3.721-3.718-5.747-4.742
				c-2.934-1.483-7.986-2.042-11.056-0.068c-5.886-6.379-20.127-2.311-28.171-2.203c-1.486-4.027-3.709-7.008-2.206-11.931
				c1.494-4.894,4.899-9.189,7.194-13.727c3.499-6.92,6.252-14.713,5.363-22.524c3.402-3.809,6.881-7.546,10.277-11.367
				c3.862,0.555,7.952,0.392,11.769,0.376c2.508-0.011,5.015-0.082,7.52-0.192C253.118,386.571,252.444,390.196,250.65,393.772z
				 M208.414,441.59c-4.165-0.815-9.195-2.517-10.341-5.659c-1.572-4.307,2.955-10.551,5.138-13.951
				c4.831-7.527,10.163-14.717,15.851-21.615c0.785-0.952,1.596-1.88,2.4-2.815c-0.771,4.758-2.086,9.287-4.225,13.801
				c-2.336,4.93-5.694,9.275-8.054,14.174C207.173,429.699,205.926,436.959,208.414,441.59z M242.635,343.763
				c-1.469-3.474-3.009-6.919-4.609-10.335c2.445,0.667,5.077,0.915,7.739,0.923c0.939,3.356,2.09,6.64,2.825,10.059
				c0.897,4.17,1.413,8.418,1.526,12.681c0.109,4.111-0.146,8.234-0.788,12.297c-0.53,3.353-1.546,6.532-2.387,9.782
				c-0.118,0.003-0.236,0.009-0.354,0.011c-2.846,0.062-5.754-0.095-8.642-0.097c3.97-4.689,7.884-10.018,9.429-15.854
				C249.131,356.592,245.143,349.695,242.635,343.763z M248.612,379.117c2.529-6.814,3.084-15.016,2.888-22.026
				c-0.208-7.475-1.327-15.932-4.762-22.75c4.168-0.075,8.363-0.682,11.987-1.152c2.071,7.379,3.999,14.924,4.71,22.561
				c0.348,3.733,0.391,7.507,0.012,11.239c-0.198,1.95-0.511,3.886-0.958,5.794c-0.398,1.703-1.131,3.366-1.245,5.111
				c-0.013,0.197,0.077,0.328,0.207,0.398C257.181,378.698,252.899,378.979,248.612,379.117z M274.633,365.71
				c-0.21,3.729-0.956,7.38-1.355,11.072c-3.683,0.588-7.381,1.081-11.094,1.449c-0.053,0.005-0.107,0.008-0.161,0.013
				c0.042-0.03,0.079-0.066,0.11-0.109c1.933-2.687,2.299-6.991,2.664-10.216c0.456-4.038,0.401-8.131-0.009-12.17
				c-0.789-7.777-2.89-15.23-5.124-22.683c3.312-0.429,6.768-0.881,10.229-1.452c2.407,7.122,3.992,14.581,4.593,22.06
				C274.81,357.677,274.859,361.7,274.633,365.71z M284.927,374.483c-1.65,0.398-3.298,0.796-4.95,1.12
				c-1.691,0.332-3.387,0.634-5.086,0.92c0.774-3.348,0.965-6.998,1.145-10.351c0.232-4.319,0.144-8.655-0.26-12.961
				c-0.702-7.492-2.378-14.732-4.977-21.751c4.594-0.789,9.178-1.809,13.433-3.335c-2.427,3.604-5.078,7.036-6.733,11.178
				c-1.986,4.972-1.794,10.177,1.757,14.326c0.766,0.895,2.404,0.631,2.934-0.378c0.521-0.992,1.1-1.918,1.727-2.789
				c0.574,3.571,1.207,7.115,1.402,10.762C285.555,365.658,285.372,370.073,284.927,374.483z M279.645,315.453
				c1.015-0.436,2.051-0.802,3.101-1.06c0.423-0.104,0.84-0.156,1.253-0.176c1.622,1.61,1.593,4.109,1.352,6.504
				c-1.229-0.211-2.459-0.415-3.69-0.612C281.612,318.262,280.979,316.338,279.645,315.453z M280.429,319.913
				c-1.123-0.179-2.245-0.36-3.366-0.55c-0.69-0.117-1.857-0.503-2.966-0.77c0.086-0.059,0.167-0.123,0.254-0.18
				c1.442-0.977,3.001-1.902,4.624-2.657C280.234,316.526,280.409,318.216,280.429,319.913z M283.383,342.348
				c-0.77-0.789-1.751-1.302-2.795-1.467c0.926-2.073,2.357-4.137,3.846-6.21c1.743,1.198,3.381,2.535,3.692,4.781
				c0.099,0.713,0.011,1.46-0.035,2.189c-1.242,0.74-2.395,1.577-3.467,2.505C284.284,343.453,283.848,342.824,283.383,342.348z
				 M283.606,345.082c-1.165,1.137-2.222,2.396-3.156,3.795c-1.257-2.43-1.095-4.819-0.193-7.195
				c1.163,0.288,2.168,1.132,2.81,2.176C283.305,344.246,283.468,344.66,283.606,345.082z M284.994,333.894
				c1.493-2.072,2.986-4.154,4.028-6.264c0.224,4.143,0.981,8.265,2.409,12.324c-0.681,0.288-1.335,0.605-1.975,0.936
				c-0.06-1.317-0.309-2.624-0.882-3.656C287.761,335.771,286.455,334.688,284.994,333.894z M288.092,321.26
				c-0.137-0.056-0.288-0.102-0.454-0.133c-0.348-0.066-0.697-0.123-1.045-0.185c0.471-2.424,0.009-4.958-1.573-6.714
				c0.894,0.048,1.774,0.178,2.661,0.201c0.105,2.001,0.357,3.959,0.81,5.828C288.367,320.597,288.23,320.929,288.092,321.26z
				 M293.525,372.818c-2.362,0.24-4.701,0.741-7.031,1.291c0.826-8.037,0.711-17.102-1.561-24.947
				c1.357-1.607,2.924-2.98,4.734-4.089c-1.011,5.036-0.828,10.084,0.576,15.193c0.376,1.366,2.279,1.983,3.281,0.866
				c0.895-0.998,1.828-1.843,2.82-2.587C294.61,363.023,293.789,367.97,293.525,372.818z M292.983,351.553
				c0.549,0.45,1.031,0.976,1.421,1.602c0.306,0.493,0.509,0.995,0.655,1.509c-0.59,0.385-1.167,0.792-1.718,1.239
				C293.111,354.448,292.996,352.999,292.983,351.553z M296.091,354.033c-0.562-1.469-1.737-2.772-3.103-3.516
				c0.049-1.8,0.264-3.595,0.648-5.39c1.357,2.703,2.949,5.292,4.655,7.824C297.525,353.264,296.797,353.632,296.091,354.033z
				 M297.57,375.529c0.048-1.836,0.218-3.623,0.445-5.392c0.837,0.647,1.573,1.413,2.108,2.343c0.198,0.344,0.331,0.708,0.44,1.078
				C299.552,374.188,298.552,374.841,297.57,375.529z M301.671,372.883c-0.201-0.428-0.428-0.827-0.646-1.156
				c-0.736-1.107-1.717-1.975-2.903-2.486c0.312-2.187,0.73-4.346,1.21-6.515c2.07,0.853,3.49,2.594,4.341,4.762
				c0.454,1.157,0.584,2.504,0.88,3.75C303.579,371.764,302.62,372.315,301.671,372.883z M305.965,370.482
				c-0.31-1.954-1.309-4.074-2.158-5.407c-1.035-1.623-2.475-2.847-4.253-3.345c0.391-1.71,0.81-3.43,1.24-5.181
				c2.909,4.084,5.925,8.109,8.468,12.347C308.143,369.397,307.047,369.929,305.965,370.482z M310.746,384.295
				c0.283-1.239,0.57-2.477,0.854-3.715c0.262,0.239,0.503,0.501,0.72,0.781c0.445,0.576,0.786,1.231,0.969,1.938
				c0.022,0.085,0.031,0.172,0.044,0.259C312.473,383.813,311.612,384.062,310.746,384.295z M314.535,383.187
				c-0.222-0.799-0.656-1.582-1.061-2.112c-0.29-0.38-0.95-1.041-1.648-1.479c0.34-1.477,0.677-2.955,1.019-4.431
				c1.322,2.418,2.589,4.869,3.795,7.351C315.94,382.751,315.238,382.968,314.535,383.187z M414.136,444.415
				c0.558-1.778,0.662-3.793,0.148-5.992c-0.228-0.976-0.558-1.86-0.943-2.691c3.117-0.298,5.988,0.318,8.46,3.064
				c1.157,1.286,3.988,5.163,4.722,7.969C422.587,445.149,418.383,444.338,414.136,444.415z M420.467,428.552
				c4.389,2.296,7.349,6.385,8.677,11.041c-0.508,0.124-0.986,0.289-1.459,0.507c-1.251-1.903-2.688-3.578-3.937-4.707
				c-3.178-2.872-8.091-4.339-12.017-2.719c0.06-0.256,0.075-0.534,0.026-0.835c-0.296-1.81-0.822-3.329-1.519-4.627
				C413.631,427.267,416.932,426.703,420.467,428.552z M356.058,374.256c3.3,7.967,4.078,16.079,5.48,24.497
				c1.079,6.478,2.775,13.208,7.202,18.273c4.409,5.045,10.675,6.514,17.143,6.666c6.888,0.161,17.338-1.144,20.924,5.665
				c-3.898-1.788-8.685-2.06-13.048-1.193c-1.665,0.331-1.266,2.96,0.397,2.933c4.444-0.071,9.845,0.503,13.196,3.8
				c3.684,3.624,3.624,10.511-1.891,12.253c-4.138,1.307-8.646-0.641-12.619-1.624c-3.74-0.926-7.262-1.203-11.095-0.615
				c-4.2,0.645-8.261,1.923-12.479,2.482c-4.744,0.628-9.513,0.59-14.287,0.38c-4.057-0.179-8.698-0.022-12.6-1.256
				c-6.263-1.979-5.701-8.354-6.376-13.749c-1.985-15.865-6.413-31.284-12.526-46.04c-3.093-7.466-6.768-14.65-10.983-21.545
				c-4.213-6.892-9.435-13.123-13.552-20.058c-11.11-18.71-3.079-40.321,3.31-59.12c0.464-1.364-1.756-2.337-2.358-0.994
				c-3.192,7.117-6.332,14.706-8.428,22.474c0.067-0.719,0.139-1.441,0.25-2.182c0.95-6.309,2.761-12.428,4.022-18.674
				c0.147-0.731-0.88-1.267-1.266-0.534c-3.46,6.571-6.432,15.73-6.805,24.479c-1.429-0.612-3.302-0.658-4.7-0.482
				c-4.64,0.583-9.236,3.339-12.873,6.136c-1.802,1.385-4.058,4.078-1.147,5.81c1.857,1.105,4.941,0.904,7.032,1.251
				c1.926,0.319,3.849,0.663,5.772,1c-7.279,1.499-14.469,3.732-21.862,4.797c-4.809,0.693-9.719,1.293-14.584,1.341
				c-3.065,0.031-6.071-0.436-9.093-0.78c-1.402-2.878-2.839-5.739-4.349-8.561c-8.937-16.703-19.753-31.336-31.813-45.845
				c-0.471-0.567-1.487,0.203-1.032,0.796c9.891,12.89,18.495,27.378,26.21,41.658c3.838,7.105,7.416,14.36,10.677,21.748
				c3.345,7.576,9.533,17.629,5.646,25.781c-3.809,7.987-9.193,13.35-14.893,19.764c-5.347,6.017-10.543,12.141-15.435,18.537
				c-4.939,6.458-10.068,13.021-14.186,20.044c-2.686,4.581-5.834,11.762-1.873,16.517c4.141,4.971,13.007,6.716,19.12,6.83
				c6.621,0.124,13.264-3.211,19.901-1.955c2.132,0.403,6.612,1.965,7.232,4.421c0.442,1.751-2.688,6.925-4.849,5.301
				c-2.203-1.656-4.824-2.589-7.81-2.655c-1.545-0.034-1.631,2.037-0.343,2.534c2.332,0.9,4.77,2.194,6.547,3.983
				c0.482,0.485,2.557,2.859,2.514,3.923c-0.103,2.53-1.269,1.659-2.718,1.987c-2.322,0.526-5.492-0.055-7.867-0.111
				c-2.95-0.069-5.899-0.171-8.846-0.303c-10.81-0.484-21.597-1.401-32.333-2.758c-7.215-0.912-26.059-1.017-22.692-12.686
				c2.619-9.076,9.151-16.719,12.015-25.833c3.002-9.552,3.953-19.871,8.671-28.83c3.535-6.712,9.014-13.256,5.743-21.22
				c-2.775-6.755-9.704-11.386-15.826-14.807c-8.326-4.653-16.768-8.741-24.482-14.433c-8.973-6.62-20.24-15.035-20.592-27.185
				c-0.354-12.238,5.087-24.316,9.818-35.292c0.283-0.657-0.564-1.544-1.107-0.854c-0.944,1.2-1.838,2.45-2.683,3.74
				c-0.175-0.078-0.375-0.118-0.605-0.096c-22.882,2.215-40.98,19.807-53.988,37.436c-14.569,19.746-25.101,43.467-25.042,68.359
				c0.051,21.647,7.811,43.043,21.162,60.022c14.948,19.009,36.233,30.108,59.428,35.82c27.293,6.721,60.361,8.963,86.761-2.644
				c9.969-0.757,19.897-1.904,29.853-2.917c6.985-0.711,13.999-1.318,21.026-1.257c7.455,0.065,14.675,1.337,22.028,2.39
				c0.183,0.026,0.364,0.016,0.536-0.024c0.608,0.043,1.264-0.301,1.521-0.967c1.908-4.935,1.435-11.286,1.011-16.854
				c17.062,5.329,33.214,13.005,48.145,22.818c-18.771,7.706-38.457,12.944-58.587,15.483c2.693-4.626,5.39-9.251,7.975-13.938
				c0.865-1.569-0.273-3.011-1.61-3.271c-0.28-0.304-0.683-0.521-1.215-0.56c-12.933-0.938-25.716,2.427-38.265,5.086
				c-13.935,2.953-28.033,5.149-42.231,6.339c-26.939,2.257-54.266,0.965-80.605-5.349c-4.114-0.986-8.199-2.102-12.25-3.328
				c-0.38-0.27-0.824-0.423-1.277-0.38c-19.456-6.024-38.041-14.858-54.629-26.734c-10.71-7.667-19.578-16.785-25.846-28.444
				c-5.709-10.621-9.262-22.309-11.501-34.122c-2.933-15.47-3.254-31.513-0.43-47.024c6.512-35.768,33.287-62.785,60.953-84.11
				c3.98-3.068,8.03-6.045,12.131-8.95c21.642-15.33,47.794-22.658,74.059-24.223c27.737-1.653,53.497,4.952,80.717,8.43
				c7.647,0.977,15.382,1.454,23.078,0.798c0.147-0.013,0.283-0.041,0.414-0.075c2.779,2.751,5.814,5.253,8.992,7.503
				c8.367,5.924,25.258,21.677,36.146,13.83c0.761-0.548,0.317-1.73-0.644-1.528c-5.25,1.099-10.73-0.693-15.841-3.168
				c6.791,1.448,13.971,1.162,19.435-2.804c1.179-0.856,0.443-2.467-0.957-2.271c-11.562,1.619-21.27,1.194-31.516-5.145
				c-5.901-3.65-10.531-8.761-15.559-13.361c-4.416-4.347-8.844-9.044-13.468-13.518c-13.117-20.473-20.216-42.489-18.978-67.314
				c0.711-14.261,3.469-28.297,5.761-42.36c1.871-11.48,4.582-24.043,3.026-35.695c-1.379-10.32-7.787-15.611-17.349-18.572
				c-12.599-3.903-25.718-6.04-38.782-7.654c-27.619-3.412-55.517-5.448-83.284-7.217c-16.012-1.02-32.043-1.669-48.089-1.726
				c-10.546-0.037-21.373-0.215-32.034,0.536c25.84-6.326,52.69-7.45,79.287-6.402c33.206,1.309,66.289,5.61,98.738,12.775
				c15.719,3.471,31.303,7.592,46.665,12.406c4.568,1.431,9.359,2.637,10.348,7.967c0.731,3.946-0.804,8.566-1.466,12.455
				c-1.299,7.638-2.512,15.302-3.435,22.995c-3.284,27.376-0.801,55.23,13.26,79.459c6.774,11.673,15.895,22.036,27.104,29.619
				c4.606,3.117,10.43,5.469,16.014,8.165c0.311,0.261,0.675,0.445,1.065,0.521c6.966,3.447,13.407,7.548,16.435,14.507
				c0.473,1.086,1.97,0.255,1.79-0.755c-1.458-8.221-7.667-12.761-14.5-16.415c8.585-10.766,6.715-25.89,1.137-37.804
				c-3.749-8.007-9.001-15.12-13.661-22.592c-0.248-0.397-0.473-0.799-0.713-1.198c-2.69-6.68-5.587-13.169-7.171-20.288
				c-1.993-8.958-2.263-18.129-1.283-27.235c0.865-8.035,2.656-16.043,5.462-23.625c1.427-3.855,3.125-7.563,5.402-10.991
				c1.83-2.754,4.169-5.113,6.114-7.76c2.434,1.752,4.965,3.399,7.707,4.951c-3.42,1.699-6.497,3.975-9.446,6.437
				c-2.325,1.941-7.945,5.617-8.251,9.021c-0.216,2.409,1.814,3.168,3.809,3.442c5.262,0.722,10.679,1.014,16.022,1.396
				c-4.466,5.922-8.268,12.318-7.894,20.05c0.057,1.183,1.169,2.206,2.395,1.825c6.06-1.883,12.114-3.785,18.168-5.686
				c-1.374,3.289-2.59,6.638-3.56,10.077c-0.77,2.729-3.095,7.876-1.097,10.481c1.552,2.024,4.06,1.146,5.995,0.244
				c-6.706,10.081-6.638,24.16-4.375,35.537c3.177,15.976,11.951,30.165,19.579,44.315c4.26,7.903,8.501,15.863,10.364,24.725
				c1.718,8.17,1.707,16.813,0.764,25.086c-1.742,15.29-7.404,30.011-16.943,42.076c0.247-8.324-5.092-18.923-10.958-23.118
				c-0.542-0.388-1.109,0.345-0.85,0.85c2.314,4.499,5.174,8.485,6.694,13.39c0.319,1.03,0.534,2.073,0.701,3.121
				c-2.835-4.696-6.537-8.935-11.134-12.592c-0.75-0.597-1.811,0.385-1.081,1.081c12.405,11.822,15.9,27.589,14.664,44.152
				c-0.623,8.348-1.904,16.684-1.508,25.078C350.875,360.56,353.141,367.211,356.058,374.256z M360.71,298.958
				c1.995-2.972,3.803-6.097,5.425-9.334c4.845,0.541,9.549,1.504,14.039,3.576c2.311,1.066,4.542,2.354,6.574,3.887
				c2.158,1.629,3.276,3.39,4.371,5.665c-2.219,5.02-4.786,9.899-7.475,14.712C379.671,308.044,370.562,301.175,360.71,298.958z
				 M382.689,319.164c-0.77,1.362-1.547,2.72-2.326,4.075c-1.481,1.964-2.855,4.015-4.246,6.057
				c-1.099-4.748-4.637-9.348-7.819-12.661c-3.906-4.066-8.536-7.182-13.222-10.241c1.848-2.152,3.583-4.422,5.204-6.788
				c4.614,1.297,9.074,3.594,12.72,6.537C377.421,309.711,380.368,314.115,382.689,319.164z M381.628,292.429
				c-4.622-2.252-9.81-3.731-14.988-3.829c1.682-3.469,3.14-7.068,4.371-10.75c2.144-0.048,4.256-0.077,6.425,0.316
				c3.007,0.545,5.919,1.572,8.604,3.03c3.922,2.129,6.93,5.07,9.84,8.277c-1.049,3.873-2.385,7.637-3.93,11.319
				C390.355,296.903,384.772,293.961,381.628,292.429z M354.955,348.464c-0.007-1.174,0.017-2.365,0.072-3.58
				c0.094-2.065,0.238-4.127,0.397-6.189c1.44,2.364,2.688,4.861,3.588,7.461C357.702,346.948,356.354,347.711,354.955,348.464z
				 M360.397,345.296c-0.477-1.165-1.183-2.324-1.538-3.028c-0.92-1.819-2.047-3.47-3.321-5.016
				c0.379-4.735,0.805-9.468,0.886-14.216c1.869,2.325,3.528,4.829,5.155,7.319c1.256,1.922,2.485,3.887,3.409,5.995
				c0.541,1.233,0.987,2.519,1.261,3.839c0.043,0.234,0.073,0.47,0.11,0.704C364.464,342.536,362.481,343.967,360.397,345.296z
				 M370.64,336.644c-0.934,1.073-1.893,2.045-2.869,2.969c-0.611-3.409-3.299-7.208-4.864-9.534
				c-2.005-2.981-4.037-5.973-6.483-8.587c0-0.59,0.008-1.18-0.004-1.771c-0.094-4.374-0.693-8.58-1.768-12.582
				c4.265,2.977,8.525,6.102,12.171,9.8c2.008,2.037,3.804,4.274,5.258,6.74c1.314,2.227,2.06,4.655,3.101,6.978
				C373.756,332.72,372.287,334.751,370.64,336.644z M373.659,351.553c0.394-1.597,0.738-3.201,1.049-4.813
				c1.015,0.225,2.044,0.421,2.786,1.179c0.235,0.24,0.426,0.512,0.577,0.804C376.569,349.615,375.095,350.551,373.659,351.553z
				 M379.061,348.14c-0.139-0.253-0.282-0.483-0.416-0.644c-0.963-1.162-2.367-1.405-3.782-1.537
				c0.373-2.034,0.677-4.081,0.889-6.146c2.394,2.364,5.286,4.263,8.37,5.698C382.388,346.321,380.705,347.201,379.061,348.14z
				 M386.413,362.977c-0.09-2.389-0.02-6.233,0.014-6.805c0.015-0.257,0.049-0.506,0.07-0.76c1.278,0.293,2.883,0.425,3.927,1.083
				C388.951,358.52,387.77,360.857,386.413,362.977z M391.195,355.475c-0.207-0.1-0.417-0.19-0.62-0.264
				c-1.131-0.412-2.646-0.887-3.982-0.842c0.118-1.062,0.29-2.107,0.496-3.146c2.434,0,4.874-0.313,6.351,1.678
				C392.669,353.736,391.914,354.587,391.195,355.475z M394.567,351.716c-1.331-1.68-4.787-2.018-7.227-1.659
				c0.226-0.978,0.479-1.953,0.78-2.93c0.003-0.011,0.004-0.021,0.007-0.031c0.558,0.184,1.116,0.363,1.673,0.518
				c2.38,0.663,5.012,1.004,7.674,1.355C396.468,349.848,395.502,350.767,394.567,351.716z M453.618,396.302
				c2.121,0.467,4.413,0.349,6.297,1.94c2.551,2.153,3.618,5.676,3.249,8.962c-2.556-0.308-5.662-0.061-7.574,1.399
				c-0.891-1.466-2.267-3.03-3.857-4.008C453.05,401.96,453.925,399.035,453.618,396.302z M453.51,413.057
				c0.466,2.837-0.092,5.654-0.88,8.395c-2.147-1.974-4.521-3.885-7.07-5.196c2.505-2.507,3.623-6.397,2.834-9.813
				c-0.008-0.036-0.021-0.07-0.03-0.107C450.928,407.963,452.902,409.355,453.51,413.057z M421.489,321.853
				c4.928,3.741,10.891,6.653,15.21,11.115c6.471,6.686,1.766,15.329-1.575,22.463c-2.837,6.057-6.573,11.638-9.384,17.697
				c-1.985,4.278-3.97,9.504-0.789,13.698c2.457,3.24,6.748,4.35,10.593,4.778c2.851,0.318,5.759,0.122,8.559,0.852
				c5.806,1.516,5.259,6.1,3.873,10.98c-0.023,0.082-0.031,0.161-0.044,0.241c-0.175,0.029-0.35,0.081-0.524,0.134
				c-1.839-3.474-5.414-5.772-9.036-7.227c-2.482-0.997-3.617,3.074-1.111,4.032c2.584,0.988,4.97,2.451,6.483,4.852
				c2.308,3.663,0.112,11.125-5.623,8.441c-3.049-1.427-4.97-5.016-8.076-6.659c-5.355-2.831-11.568-2.88-17.162-4.978
				c-9.456-3.545-7.338-13.612-8.254-21.777c-0.623-5.548-1.212-10.691,2.654-15.284c2.781-3.304,6.564-5.629,10.19-7.883
				c1.016-0.631,1.51-2.071,0.822-3.135c-4.127-6.385-11.046-8.338-18.229-9.264c-4.91-0.633-9.71-1.085-14.314-3.022
				c-3.351-1.41-6.215-3.443-9.063-5.579c2.098-2.881,3.936-5.91,5.426-8.945c6.269-9.182,11.904-18.849,15.784-29.26
				C403.682,307.458,412.983,315.396,421.489,321.853z M396.325,287.828c-5.565-7.16-15.777-12.501-24.781-11.612
				c0.987-3.149,1.795-6.358,2.436-9.597c4.01-0.927,7.987-1.549,12.203-1.179c2.515,0.22,5.074,0.705,7.459,1.552
				c2.099,0.746,3.344,1.815,4.694,3.196C398.349,276.091,397.76,281.99,396.325,287.828z M398.307,267.929
				c-2.631-2.292-7.53-3.131-10.198-3.5c-4.5-0.622-9.468-0.43-13.902,1.017c0.597-3.237,1.005-6.505,1.24-9.776
				c1.281-1.056,6.273-1.254,7.152-1.303c2.23-0.123,4.49-0.015,6.67,0.501c3.228,0.765,6.116,2.344,8.423,4.649
				C398.013,262.316,398.228,265.122,398.307,267.929z M397.438,257.605c-2.355-2.175-5.365-3.589-8.564-4.227
				c-2.681-0.535-5.447-0.563-8.157-0.259c-1.449,0.163-3.581,0.211-5.157,0.874c0.165-3.16,0.151-6.319-0.039-9.458
				c2.615-1.235,5.184-2.378,8.144-2.905c3.681-0.655,7.29-0.561,10.802,0.565C395.713,247.277,396.752,252.426,397.438,257.605z
				 M392.364,234.29c0.61,2.131,1.19,4.279,1.738,6.439c-3.05-1.12-6.924-0.821-9.902-0.368c-2.903,0.441-6.076,1.331-8.767,2.841
				c-0.272-3.533-0.785-7.032-1.531-10.469c2.609-0.974,5.189-2.018,7.882-2.768c3.521-0.98,6.335-0.092,9.523,0.724
				C391.668,231.899,392.024,233.102,392.364,234.29z M390.837,229.124c-5.726-1.726-11.804-0.162-17.174,2.531
				c-0.826-3.549-1.909-7.027-3.272-10.396c-0.023-0.056-0.048-0.112-0.071-0.168c2.901-1.635,6.95-1.59,10.119-1.368
				c2.875,0.201,5.927,0.734,8.251,2.465C389.423,224.529,390.145,226.844,390.837,229.124z M388.054,220.156
				c-2.178-1.362-5.285-1.7-7.614-1.88c-2.628-0.203-5.303-0.032-7.886,0.499c-0.999,0.206-2.018,0.431-2.815,0.935
				c-1.508-3.572-3.19-7.058-4.955-10.504c0.987-0.557,1.956-1.153,2.987-1.631c1.954-0.906,4.01-1.597,6.055-2.264
				c1.859-0.606,3.834-1.379,5.815-1.348c1.507,0.024,2.643,0.572,3.853,1.146C384.942,210.204,386.512,215.237,388.054,220.156z
				 M382.982,203.285c-2.391-0.965-5.47-0.441-7.8,0.295c-3.397,1.074-7.915,2.252-10.901,4.649
				c-1.93-3.726-3.951-7.408-5.954-11.097c2.875-3.081,8.816-3.36,12.663-3.219c2.3,0.084,4.597,0.475,6.779,1.216
				c1.227,0.417,2.357,1.008,3.494,1.586C381.802,198.913,382.378,201.104,382.982,203.285z M378.462,142.478
				c-0.337-2.467-0.535-4.978-0.6-7.489c1.75,1.777,4.504,2.999,7.001,3.155C382.74,139.605,380.609,141.054,378.462,142.478z
				 M386.895,136.734c-1.944-0.015-3.714,0.028-5.642-0.909c-1.473-0.716-2.424-1.768-3.413-2.858
				c0.009-1.321,0.048-2.64,0.148-3.948c0.328,0.217,0.65,0.428,0.998,0.671c3.626,2.527,7.334,3.465,11.674,4.057
				c0.151,0.021,0.303,0.038,0.454,0.058C389.711,134.785,388.302,135.759,386.895,136.734z M400.981,146.378
				c-1.366,0.092-1.114-0.792-1.51-2.264c-0.057-0.213-0.107-0.427-0.163-0.64c1.159,0.775,2.591,1.233,3.985,1.27
				C402.463,145.659,401.645,146.333,400.981,146.378z M404.379,143.43c-0.863,0.057-1.724,0.045-2.581-0.169
				c-1.109-0.277-2.019-0.793-2.901-1.395c-0.101-0.404-0.211-0.806-0.309-1.211c-0.248-1.031-0.479-2.065-0.698-3.102
				c1.794,1.247,3.731,2.112,5.983,2.465c0.815,0.128,1.835,0.254,2.786,0.165C406.081,141.042,405.26,142.283,404.379,143.43z
				 M407.781,138.6c-1.583,0.091-3.048,0.448-4.781,0.071c-1.92-0.418-3.742-1.259-5.362-2.372
				c-0.117-0.575-0.237-1.149-0.349-1.725c4.105,0.482,8.227,0.931,12.339,1.446C409.022,136.888,408.402,137.744,407.781,138.6z
				 M417.088,149.927c-0.173-1.072-0.349-2.144-0.524-3.215c0.945,0.491,2.07,0.803,3.118,0.833
				C418.843,148.364,417.986,149.167,417.088,149.927z M421.376,145.827c-0.957,0.164-1.9,0.485-2.937,0.303
				c-0.839-0.147-1.487-0.501-2.116-0.901c-0.236-1.439-0.47-2.879-0.704-4.318c1.219,0.849,2.681,1.352,4.21,1.59
				c1.124,0.174,2.849,0.357,4.389,0.173C423.296,143.751,422.348,144.801,421.376,145.827z M425.538,141.109
				c-3.751,0.351-6.976,0.502-10.137-1.551c-0.151-0.938-0.307-1.876-0.454-2.814c4.135,0.603,8.243,1.325,12.29,2.285
				C426.678,139.73,426.108,140.419,425.538,141.109z M432.437,156.458c0.116-1.275,0.187-2.55,0.239-3.825
				c0.936,1.084,2.118,1.988,3.402,2.504C434.899,155.63,433.689,156.076,432.437,156.458z M438.43,154.066
				c-0.992-0.03-1.967-0.163-2.952-0.645c-1.132-0.553-2.057-1.405-2.743-2.428c0.036-1.613,0.034-3.226,0-4.84
				c1.542,1.338,3.519,2.351,5.187,3.038c1.982,0.817,4.084,1.3,6.21,1.432C442.313,151.923,440.419,153.074,438.43,154.066z
				 M445.715,149.439c-2.429,0.007-4.796-0.339-7.123-1.217c-2.295-0.865-4.014-2.325-5.887-3.68
				c-0.043-1.289-0.104-2.579-0.179-3.87c5.347,2.016,10.72,4.845,16.226,6.209C447.762,147.786,446.747,148.631,445.715,149.439z
				 M445.866,140.771c-8.04-3.116-15.399-6.254-23.996-7.694c-8.428-1.411-16.956-2.296-25.431-3.37
				c-4.134-0.524-8.865-0.592-12.654-2.555c-2.928-1.517-5.172-4.124-8.423-5.049c-3.833-1.09-6.759-0.118-9.586-3.635
				c-1.705-2.12-3.116-4.583-5.46-6.091c-3.026-1.946-6.904-1.45-9.017-4.724c-1.625-2.518-1.983-5.254-4.128-7.534
				c-1.88-1.999-4.373-3.277-6.329-5.176c-3.804-3.692-2.103-7.376-2.595-12.041c-0.353-3.348-3.279-4.72-3.92-7.618
				c-0.692-3.13,3.262-6.882,4.499-9.55c1.461-3.148,1.002-5.714,1.265-9.102c0.297-3.819,2.173-7.099,5.134-9.504
				c7.133-5.794,15.027-3.514,23.294-2.523c8.648,1.037,16.369-3.573,25.003-1.978c7.717,1.426,15.285,5.14,21.649,9.662
				c6.658,4.731,10.783,11.305,16.593,16.797c2.005,1.895,4.383,3.145,7.047,3.828c3.764,0.965,8.49,0.473,11.81,2.759
				c3.743,2.577,1.894,7.155,3.239,10.842c0.883,2.422,2.666,3.912,5,4.878c3.349,1.386,7.975,0.69,9.368,4.917
				c1.025,3.11,0.137,7.849-0.828,10.873c-3.678,11.521-13.084,0.602-20.126-0.372c-4.348-0.601-7.993,1.957-12.175-0.331
				c-2.923-1.599-5.152-4.195-8.244-5.546c-3.749-1.638-7.269-0.609-11.177-0.498c-4.611,0.132-7.392-4.486-11.404-6.315
				c-5.733-2.612-12.255-1.981-18.324-0.773c-3.532,0.191-7.043,0.771-10.581,1.701c-1.882,0.495-2.132,2.647-1.053,3.988
				c9.894,12.29,27.85,9.646,40.594,17.033c7.843,4.547,15.103,9.196,23.724,12.234c8.836,3.114,17.922,4.896,27.044,6.843
				C465.314,144.34,451.994,143.146,445.866,140.771z M452.356,113.869c-0.3,0.273-0.605,0.576-0.939,0.904
				c-0.742,0.731-1.479,1.467-2.218,2.202c-0.148,0.148-0.556,0.642-0.974,1.095c-0.016-0.529-0.009-1.055-0.032-1.266
				c-0.092-0.862-0.207-1.719-0.37-2.571c-0.165-0.863-0.364-1.738-0.619-2.595c0.639,0.1,1.299,0.272,2.007,0.559
				C450.308,112.64,451.336,113.245,452.356,113.869z M433.071,110.606c-0.363,0.358-0.724,0.717-1.082,1.081
				c-0.236-0.757-0.49-1.508-0.756-2.256c0.497,0.349,1.005,0.692,1.547,1.015C432.878,110.504,432.974,110.55,433.071,110.606z
				 M425.746,105.594c-0.229,0.22-0.456,0.457-0.691,0.711c-0.463,0.501-0.897,1.027-1.331,1.553
				c-0.276-1.038-0.563-2.074-0.874-3.104c-0.028-0.094-0.057-0.186-0.086-0.278C423.856,104.713,424.833,105.102,425.746,105.594z
				 M435.565,121.693c1.371-0.998,2.82-2.093,3.493-2.728c0.255,1.438,0.322,3.004,0.605,4.452
				C438.27,122.876,436.903,122.302,435.565,121.693z M453.197,127.706c0.231-0.228,0.461-0.457,0.694-0.683
				c0.619-0.603,1.23-1.208,1.83-1.83c0.45-0.467,1.698-1.402,2.008-2.061c0.029,0.131,0.062,0.261,0.09,0.393
				c0.181,0.817,0.352,1.636,0.528,2.454c0.24,1.117,0.431,2.23,0.827,3.272C457.176,128.76,455.182,128.246,453.197,127.706z
				 M503.072,133.221c-1.118,1.117-2.279,2.183-3.468,3.215c0.282-1.639,0.293-3.237-0.398-4.49
				c-1.391-2.523-4.655-2.809-7.206-2.351c-4.751,0.854-8.433,4.099-13.546,3.708c-4.579-0.35-8.219-3.546-12.902-2.682
				c-0.068,0.012-0.115,0.048-0.176,0.068c-0.857-0.192-1.712-0.376-2.569-0.575c0.011-0.062,0.037-0.114,0.042-0.18
				c0.212-2.464-1.048-4.991-1.781-7.307c-0.486-1.537-0.81-3.21-2.64-3.514c-2.015-0.334-3.361,1.729-4.556,3.012
				c-1.322,1.419-2.928,2.941-4.081,4.624c-2.101-0.612-4.189-1.257-6.256-1.944c0.068-1.684-0.678-3.49-1.037-5.088
				c-0.344-1.531-0.392-3.868-2.215-4.425c-1.542-0.471-2.869,0.796-3.808,1.808c-1.069,1.153-2.012,2.388-2.96,3.62
				c-5.493-2.668-10.661-5.798-16.106-8.931c-10.971-6.314-26.829-5.075-36.698-13.12c1.02,0.832,9.614-1.595,11.193-1.929
				c1.728-0.365,3.461-0.679,5.157-0.773c3.034-0.168,5.95,0.367,8.504,2.566c1.672,1.438,2.758,3.499,4.647,4.705
				c3.102,1.98,6.373,1.056,9.748,0.986c0.396,0.976,0.413,2.46,0.569,3.264c0.278,1.435,0.624,2.858,0.948,4.283
				c0.329,1.452,2.131,1.375,2.876,0.376c0.987-1.324,2.064-2.565,3.215-3.748c0.06-0.062,0.116-0.119,0.174-0.179
				c0.106,0.657,0.315,1.323,0.441,1.929c0.369,1.776,0.864,3.521,1.33,5.273c0.344,1.294,1.95,1.629,2.885,0.762
				c1.475-1.369,2.99-2.713,4.422-4.13c1.324,0.266,2.698,0.295,4.191,0.082c1.125-0.16,2.131-0.359,3.104-0.485
				c0.161,2.003,0.514,4.019,0.65,6.003c0.124,1.813-0.066,4.278,2.192,4.791c2.109,0.479,3.84-1.956,5.14-3.201
				c1.217-1.165,2.6-2.201,3.486-3.536c1.818,0.874,3.694,1.412,5.512,1.537c3.436,0.582,6.699,1.336,9.444,3.833
				c2.475,2.252,3.792,5.042,7.038,6.371c2.314,0.947,4.891,1.061,7.326,0.585c4.988-0.975,8.912-4.943,13.837-0.919
				c1.066,0.871,3.247,0.442,3.079-1.276c-0.252-2.572-0.49-5.149-0.758-7.722c0.592,0.63,1.173,1.271,1.726,1.944
				c1.069,1.299,4.962,5.201,5.055,7.041C507.946,129.084,504.343,131.951,503.072,133.221z"/>
		</g>
	</g>
</g>
<g>
</g>
<g>
</g>
<g>
</g>
<g>
</g>
<g>
</g>
<g>
</g>
<g>
</g>
<g>
</g>
<g>
</g>
<g>
</g>
<g>
</g>
<g>
</g>
<g>
</g>
<g>
</g>
<g>
</g>
</svg>
