<?xml version="1.0" encoding="iso-8859-1"?>
<!-- Generator: Adobe Illustrator 19.0.0, SVG Export Plug-In . SVG Version: 6.00 Build 0)  -->
<svg version="1.1" id="Capa_1" xmlns="http://www.w3.org/2000/svg" xmlns:xlink="http://www.w3.org/1999/xlink" x="0px" y="0px"
	 viewBox="0 0 511.999 511.999" style="enable-background:new 0 0 511.999 511.999;" xml:space="preserve">
<g>
	<g>
		<g>
			<path d="M448.572,49.392c-0.536,0.412-0.58,1.367,0.203,1.556c2.215,0.535,3.574,2.293,3.975,4.552
				c0.258,1.456-0.343,3.122-1.517,3.599c-2.484-1.615-5.154-2.756-7.526-4.639c-1.779-1.413-3.444-2.655-5.801-2.883
				c-2.682-0.259-5.186,0.834-7.727,1.472c-1.276,0.424-2.595,0.648-3.956,0.672c-2.979-2.947-3.432-5.19-1.36-6.729
				c1.175-1.748,3.948-2.695,5.774-3.66c0.855-0.452,0.399-1.675-0.467-1.723c-6.968-0.38-15.875,10.423-7.218,14.887
				c1.817,0.937,3.585,0.989,5.34,0.7c-0.622,1.965-0.343,4.354,0.662,5.968c1.609,2.583,4.943,4.101,7.914,4.126
				c0.396,0.003,0.676-0.552,0.344-0.831c-1.641-1.379-3.711-2.215-5.238-3.74c-1.092-1.091-1.619-2.355-1.481-3.917
				c0.005-0.06,0.024-0.114,0.031-0.173c1.061,2.487,3.066,4.564,5.794,5.313c2.828,0.776,7.819-0.061,10.211-2.492
				c-0.292,0.739-0.683,1.438-0.978,1.926c-0.776,1.283-1.592,2.369-2.229,3.741c-0.172,0.37,0.112,0.835,0.55,0.715
				c2.496-0.685,3.708-2.727,4.497-5.066c0.138-0.41,0.303-0.978,0.416-1.583c2.897,2.117,6.682-1.046,6.939-4.383
				c0.166-2.158-0.797-4.428-2.177-6.057C452.401,49.391,450.211,48.134,448.572,49.392z M437.975,60.863
				c-2.738-0.315-4.145-2.559-5.616-4.699c1.578-0.451,3.171-0.825,4.802-0.778c-0.024,0.96,0.174,1.94,0.509,2.737
				c0.448,1.064,2.126,1.352,2.463,0c0.06-0.239,0.094-0.472,0.122-0.709c0.146-0.365,0.276-0.753,0.391-1.165
				c1.361,0.653,2.583,1.569,3.826,2.424C442.394,59.492,440.506,61.155,437.975,60.863z"/>
			<path d="M484.192,74.337c-0.168-0.322-0.402-0.647-0.652-0.905c-0.128-0.132-0.269-0.235-0.416-0.348
				c-0.142-0.141-0.309-0.238-0.501-0.292c-0.164-0.067-0.241-0.1-0.254-0.107c-0.702-0.283-1.482-0.225-2.098,0.251
				c-0.698,0.539-0.924,1.362-0.754,2.212c-0.161-0.805,0.06,0.419,0.143,0.639c0.113,0.297,0.246,0.59,0.38,0.878
				c0.039,0.077,0.076,0.155,0.112,0.233c0.074,0.161,0.05,0.103-0.072-0.172c0.12,0.118,0.163,0.494,0.219,0.654
				c0.408,1.16,1.629,2.057,2.899,1.646c1.326-0.429,1.854-1.59,1.646-2.899C484.749,75.52,484.472,74.874,484.192,74.337z"/>
			<path d="M482.609,72.772c-0.106-0.041-0.168-0.064-0.208-0.078C482.47,72.723,482.542,72.736,482.609,72.772z"/>
			<path d="M481.425,69.186c-1.257,0.097-1.288,1.941,0,1.979c2.951,0.085,6.979,1.303,5.728,5.085
				c-0.313,0.947,0.915,1.5,1.572,0.915c1.793-1.596,1.204-4.361-0.257-5.979C486.708,69.237,483.877,68.997,481.425,69.186z"/>
			<path d="M506.088,34.845c-0.748-4.076-1.557-9.349-4.306-12.616c-0.966-1.148-2.99-0.499-3.323,0.877
				c-2.842,11.754-7.788,20.93-15.989,28.998c1.855-7.447,0.16-15.028-0.931-23.015c-0.204-1.497-2.258-1.393-2.94-0.384
				c-2.631,3.892-4.905,8.014-7.714,11.787c-2.34,3.143-5.181,5.845-7.587,8.91c-1.724-1.613-3.295-3.495-4.976-5.664
				c-2.997-3.865-6.148-6.856-10.753-8.669c-0.102-0.04-0.208-0.075-0.31-0.115c-0.035-0.171-0.096-0.344-0.202-0.516
				c-4.913-7.984-12.4-14.046-20.072-19.284c-7.937-5.417-16.783-11.005-25.927-14.099c-1.964-0.665-3.256,1.967-1.944,3.339
				c4.788,5.006,8.573,12.605,11.225,19.792c-7.754-6.144-17.539-9.881-26.777-12.834c-10.923-3.492-25.69-9.623-36.702-3.873
				c-1.429,0.746-1.57,3.263,0,3.965c11.346,5.077,20.79,13.327,27.57,23.582c-10.833-4.579-22.561-6.452-34.382-6.33
				c-1.557,0.016-2.489,2.032-1.305,3.15c7.748,7.317,14.777,15.291,21.32,23.683c-8.681-0.949-17.532-0.124-25.985,2.042
				c-1.29,0.33-1.902,2.198-0.824,3.12c6.68,5.714,13.228,11.574,19.78,17.434c-7.63,1.693-14.786,4.801-21.613,8.688
				c-1.244,0.708-1.181,2.509,0,3.231c6.184,3.783,12.368,7.566,18.55,11.352c-6.158,4.076-11.515,9.107-16.139,14.931
				c-0.967,1.217-0.684,2.948,0.912,3.456c6.62,2.106,13.325,3.687,20.17,4.674c-1.252,1.645-2.473,3.315-3.713,4.967
				c-1.149,1.532-3.395,3.534-2.78,5.653c0.622,2.142,2.819,2.237,4.622,2.653c3.851,0.887,7.449,1.716,10.97,3.336
				c-1.796,2.11-3.57,4.24-5.333,6.376c-1.088,1.318-2.582,2.739-2.021,4.591c0.491,1.618,1.993,1.992,3.395,2.498
				c2.784,1.004,5.591,1.946,8.418,2.822c2.501,0.774,4.393,0.528,5.203,3.434c0.9,3.226,0.875,6.958,0.739,10.279
				c-0.295,7.208-2.178,14.36-5.465,20.781c-5.072,5.703-8.555,12.619-14.099,18.001c-2.837,2.754-5.999,5.141-9.358,7.219
				c-16.479-20.525-29.217-42.898-35.957-68.534c-6.932-26.364-6.747-52.765-1.623-79.388c1.854-9.635,3.279-20.339-0.213-29.627
				c1.637-5.907-0.374-12.768-1.788-18.492c-1.475-5.97-2.905-16.07-8.014-20.108c-1.052-0.831-2.98-1.039-3.667,0.473
				c-2.431,5.345-5.635,10.014-9.609,14.234c-1.883-3.333-4.009-6.519-6.325-9.573c-1.404-1.852-3.042-5.015-5.319-5.791
				c-1.894-0.645-2.794-0.017-4.277,1.054c-3.82,2.76-7.143,6.998-10.484,10.404c-22.823-4.876-46.593-5.038-69.813-4.988
				C152.78,6.808,117.525,5.487,82.246,0.152c-2.116-0.32-4.595,2.401-2.414,4.147c7.083,5.672,14.361,11.085,21.871,16.17
				c-31.857,0.017-63.755,3.058-94.968,9.341c-2.101,0.423-2.403,3.554-0.593,4.539c29.833,16.227,54.344,45.301,52.243,81.026
				c-0.267,4.543-1.561,8.791-2.143,13.249c-0.269,2.059-0.267,4.232,1.388,5.772c2.052,1.91,5.342,1.307,7.867,1.541
				c4.207,0.391,8.408,1.629,12.178,3.523c16.212,8.144,22.661,27.189,16.316,43.851c-0.738,1.938,1.407,3.487,3.121,3.121
				c10.617-2.265,22.556-3.365,32.567,1.765c8.442,4.325,14.419,12.839,13.591,22.505c-0.185,2.163,2.286,2.942,3.892,2.234
				c18.779-8.282,44.636-11.342,58.204,7.697c0.74,1.039,2.239,1.729,3.436,0.901c10.747-7.436,24.32-9.33,36.806-5.519
				c12.316,3.759,19.278,12.687,26.094,22.502c0.014,0.025,0.03,0.05,0.044,0.075c-7.827-1.146-15.831-1.611-23.673-2.442
				c-10.062-1.065-20.126-2.129-30.218-2.87c-30.985-2.275-64.397-2.117-93.511,9.781c-14.588,5.961-28.158,14.217-40.053,24.565
				c-21.259,18.495-40.1,45.985-43.803,74.589c-3.363,10.24-5.284,21.082-5.966,31.551c-1.124,17.266,0.715,33.22,8.687,48.727
				c7.121,13.852,16.592,26.7,28.956,36.309c6.195,4.815,12.962,8.737,20.31,11.507c2.048,0.772,4.205,1.532,6.417,2.161
				c-2.632,0.945-4.991,2.447-6.775,4.953c-2.872,4.035-2.896,10.196,1.254,13.426c1.029,0.801,2.286,1.01,3.319,1.721
				c2.109,0.317,3.038,1.722,2.785,4.213c-0.117,0.667-0.152,1.34-0.105,2.018c0.464,2.53,1.038,4.604,2.683,6.687
				c4.719,5.975,12.626,6.516,19.501,4.644c5.162-1.405,10.779-5.731,15.704-1.836c2.521,1.994,4.243,3.825,7.733,3.697
				c7.64-0.281,13.494-7.325,20.556-9.461c4.838-1.463,9.121,1.05,13.877,0.293c3.346-0.532,5.785-2.738,8.453-4.663
				c7.965-5.748,16.748-10.045,26.183-12.772c1.719-0.497,2.473-2.828,1.085-4.111c-7.771-7.188-20.671-7.489-23.019-19.408
				c-0.765-3.881-1.676-7.568-5.305-9.716c-1.57-0.929-3.43-1.236-5.155-1.729c-3.54-1.011-5.946-2.693-8.032-5.807
				c-3.037-4.534-3.36-9.89-5.495-14.751c-1.303-2.967-3.644-4.953-7.056-4.337c-5.045,0.91-8.608,9.514-13.861,5.323
				c-4.605-3.673-7.746-10.984-10.723-15.957c-0.525-0.877-1.859-1.358-2.761-0.724c-11.79,8.288-14.582,23.543-14.139,37.26
				c-0.495-0.196-0.99-0.392-1.485-0.589c-0.219-0.238-0.468-0.369-0.721-0.419c-5.767-3.828-12.17-6.813-17.884-10.738
				c-7.973-5.478-15.132-12.049-20.401-20.218c-9.843-15.262-12.9-34.371-6.789-51.633c6.242-17.634,20.951-30.102,39.155-34.087
				c19.149-4.193,39.351,1.366,56.109,10.737c16.234,9.078,30.932,22.914,48.78,28.856c-5.576,5.829-8.186,11.796-7.123,20.341
				c1.387,11.159,6.29,20.936,5.165,32.488c-0.568,5.835-2.531,10.857-4.658,16.241c-1.286,3.255-1.781,6.534,0.923,9.223
				c2.087,2.075,5.014,2.508,7.805,2.889c6.094,0.831,12.237,1.418,18.346,2.14c6.795,0.803,13.592,1.591,20.385,2.413
				c4.493,0.543,10.23,2.102,14.588,0.036c0.078-0.037,0.146-0.078,0.222-0.116c1.888,1.009,4.252,0.033,6.517-0.295
				c3.822-0.555,7.69-0.595,11.54-0.364c1.359,0.081,2.603-1.488,2.129-2.795c-0.357-0.983-0.78-1.935-1.253-2.855
				c1.77-0.546,3.406-1.377,5.277-1.738c1.159-0.224,1.767-1.588,1.501-2.644c-0.104-0.413-0.224-0.817-0.342-1.222
				c6.971,1.683,14.891,1.195,21.918,1.53c4.567,0.218,10.034,0.862,14.2-1.34c2.165,0.682,4.637,0.618,6.85,1.191
				c2.177,0.564,4.297,1.396,6.505,1.837c3.301,0.66,4.821-0.582,5.053-3.896c0.096-1.376-0.007-2.639-0.274-3.786
				c2.532-0.409,4.988-0.816,7.599-0.824c1.453-0.004,2.411-1.379,2.092-2.746c-1.124-4.821-2.764-9.234-7.342-11.728
				c-3.648-1.988-7.825-2.206-11.736-1.114c-2.442-4.689-10.292-3.942-14.561-5.701c-16.053-6.614-10.012-30.33-6.142-43.335
				c29.85-8.481,57.512-25.113,78.442-47.747c33.376-36.095,49.702-87.877,43.332-136.626c-1.933-14.793-5.842-28.633-13.579-41.453
				c-4.654-7.712-8.532-15.279-6.592-24.577c1.256-6.019,4.099-11.535,7.251-16.812c0.003,1.876,0.115,3.733,0.439,5.499
				c0.285,1.556,0.532,2.948,2.101,3.659c2.004,0.908,3.597-0.41,5.018-1.686c1.64-1.473,3.12-3.255,4.55-5.078
				c-0.174,3.196-0.274,6.394-0.271,9.602c0.001,1.809,2.146,2.534,3.411,1.413c2.436-2.159,4.643-4.479,6.686-6.964
				c-0.226,3.299-1.613,6.664-2.655,9.673c-0.495,1.43,1.354,2.878,2.618,2.012c3.247-2.224,6.453-4.504,9.63-6.825
				c-0.28,4.646-2.686,8.927-4.938,12.974c-0.653,1.174,0.144,3.094,1.681,2.928c7.134-0.771,17.913-6.937,18.263-15.187
				c1.208-0.197,2.401-0.537,3.554-1.077c4.867-2.278,6.755-5.901,8.107-10.823c0.015-0.056,0.011-0.115,0.016-0.173
				c0.776-1.061,1.125-2.549,1.491-3.757c0.668-2.201,1.029-4.467,1.209-6.756c0.064-0.819-0.867-1.459-1.614-1.229
				c-3.594,1.106-6.275,4.081-9.55,5.718c-0.094-0.54-0.221-1.075-0.324-1.58c-0.317-1.543-0.742-3.049-1.277-4.53
				c-0.345-0.955-1.382-1.214-2.153-0.568c-0.968,0.811-1.94,1.617-2.9,2.437c-0.512,0.437-0.97,0.803-1.324,1.263
				c-0.401-0.192-0.8-0.388-1.201-0.581c-0.045-0.685-0.186-1.383-0.285-2.042c-0.28-1.861-0.763-3.668-1.15-5.507
				c-0.208-0.991-1.37-1.046-2.028-0.536c-1.169,0.906-2.346,1.803-3.487,2.745c-0.485,0.4-0.993,0.772-1.392,1.216
				c-0.186-0.096-0.375-0.186-0.561-0.283c-0.084-0.855-0.243-1.725-0.25-2.462c-0.014-1.656-0.049-3.294-0.539-4.888
				c-0.227-0.738-1.038-1.06-1.714-0.697c-1.906,1.021-3.795,2.175-5.392,3.643c-0.406-0.241-0.819-0.468-1.223-0.711
				c-0.409-1.594-0.633-3.043-0.694-4.754c-0.055-1.542-0.135-3.459-1.049-4.774c-0.751-1.08-1.863-1.186-2.922-0.464
				c-1.583,1.081-3.063,2.58-4.425,3.972c-3.208-2.379-6.237-5.094-9.424-7.538c4.79,0.82,9.865,0.732,14.583,1.564
				c1.652,0.292,3.288,0.629,4.918,0.974c0.372,2.426,0.845,4.836,1.264,7.258c0.138,0.801,1.339,1.324,2.003,0.815
				c1.805-1.385,3.609-2.773,5.412-4.162c0.445,2.38,0.609,4.741,0.543,7.208c-0.036,1.354,1.534,1.728,2.437,1.01
				c1.999-1.588,3.853-3.27,5.613-5.079c0.559,3.145,0.595,6.189,0.078,9.48c-0.134,0.85,0.383,2.067,1.469,1.928
				c3.429-0.437,5.917-3.593,8.071-6.649c-0.006,2.431-0.04,4.862-0.133,7.295c-0.046,1.222,1.336,1.864,2.329,1.337
				c4.784-2.536,8.627-6.146,11.216-10.864c0.934-0.333,1.767-0.918,2.424-1.89c1.759-2.607,1.832-6.5,1.113-10.31
				c6.287-6.679,8.48-16.611,9.077-25.491C507.228,46.055,507.105,40.385,506.088,34.845z M501.398,29.685
				c0.974,3.323,1.373,7.359,1.556,9.582c0,0.002,0,0.004,0,0.007c-0.337-0.356-0.7-0.687-1.1-0.969
				c-0.817-0.576-1.997-0.992-3.108-0.996C499.873,34.838,500.774,32.281,501.398,29.685z M479.203,34.406
				c0.25,1.871,0.393,3.751,0.424,5.625c-0.213-0.141-0.433-0.269-0.663-0.368c-0.767-0.331-1.677-0.451-2.606-0.444
				C477.382,37.614,478.332,35.987,479.203,34.406z M475.578,40.396c1.648,0.065,3.269,0.263,4.038,1.547
				c-0.057,2.042-0.254,4.072-0.634,6.068c-0.849-1.334-2.013-2.539-3.127-3.283c-0.677-0.452-1.608-0.878-2.576-1.108
				C474.086,42.582,474.844,41.495,475.578,40.396z M472.122,45.041c0.127,0.002,0.251-0.006,0.381,0.008
				c1.311,0.15,2.497,0.746,3.476,1.63c1.058,0.955,1.712,2.277,2.547,3.408c-0.402,1.56-0.911,3.096-1.563,4.594
				c-0.666-2.068-1.503-3.693-3.783-5.053c-1.234-0.736-2.634-1.25-4.071-1.463C470.165,47.217,471.168,46.162,472.122,45.041z
				 M467.911,49.177c1.607,0.215,3.149,0.66,4.615,1.571c1.439,0.894,2.591,2.061,3.048,3.716c0.127,0.46,0.218,0.885,0.323,1.299
				c-1.212-0.381-2.432-0.757-3.66-1.15c-2.83-0.904-5.072-2.099-7.037-3.593C466.139,50.494,467.039,49.868,467.911,49.177z
				 M441.175,32.997c-4.65-1.237-9.539-2.022-14.407-2.64c0.881-0.54,1.8-1.024,2.807-1.388c2.176-0.786,4.246-0.765,6.459-0.896
				C437.782,29.665,439.493,31.304,441.175,32.997z M434.564,26.752c-1.801-0.076-3.797,0.548-5.292,1.117
				c-1.485,0.565-2.874,1.345-4.147,2.28c-2.868-0.343-5.712-0.638-8.492-0.937c1.86-1.509,3.843-2.859,6.008-3.905
				c2.386-1.154,4.904-1.572,7.35-2.34C431.552,24.19,433.08,25.446,434.564,26.752z M423.298,18.198
				c1.76,1.125,3.444,2.313,5.086,3.541c-2.119,0.429-4.262,1.371-6.047,2.24c-2.459,1.197-4.682,2.743-6.646,4.613
				c-0.797-1.858-1.578-3.715-2.378-5.565c1.487-1.33,3.107-2.484,4.907-3.364c1.583-0.773,3.241-1.103,4.87-1.593
				C423.159,18.114,423.23,18.154,423.298,18.198z M405.796,8.59c2.366,1.329,4.788,2.579,7.205,3.837
				c-0.458,0.248-0.896,0.511-1.297,0.771c-0.673,0.437-1.577,1.005-2.235,1.695C408.324,12.766,407.045,10.684,405.796,8.59z
				 M410.064,16.031c0.081-0.072,0.161-0.144,0.256-0.225c0.706-0.593,1.454-1.141,2.247-1.613c0.648-0.386,1.332-0.666,2.021-0.929
				c2.246,1.178,4.481,2.373,6.652,3.666c-3.108,0.79-6.179,2.889-8.407,4.985C411.963,19.934,411.053,17.969,410.064,16.031z
				 M408.62,28.529c-8.969-0.318-17.384,1.341-24.645,7.521c-0.86,0.732-1.727,1.486-2.595,2.255
				c-0.025-0.042-0.053-0.08-0.078-0.122c2.536-3.791,5.569-7.249,9.347-9.846c1.876-1.289,3.904-2.381,6.022-3.216
				c1.557-0.614,3.164-0.965,4.759-1.375C403.893,25.196,406.292,26.773,408.62,28.529z M399.51,22.636
				c-3.541,0.903-7.078,2.9-9.801,4.863c-3.707,2.672-6.779,6.024-8.774,10.111c-0.921-1.5-1.89-2.957-2.892-4.382
				c1.436-3.364,3.32-6.476,5.919-9.096c1.368-1.379,2.883-2.598,4.53-3.628c1.009-0.631,2.108-1.103,3.176-1.62
				C394.371,20.001,396.98,21.246,399.51,22.636z M353.931,10.313c2.992-0.39,6.148-0.229,9.335,0.242
				c-0.275,0.302-0.533,0.622-0.781,0.943c-0.75,0.969-1.553,2.131-2.129,3.334C358.293,13.237,356.154,11.727,353.931,10.313z
				 M361.19,15.502c0.643-0.947,1.209-1.965,1.899-2.863c0.54-0.703,1.17-1.272,1.818-1.824c2.174,0.39,4.353,0.909,6.495,1.49
				c-1.065,0.895-2.009,2.013-2.763,2.948c-1.073,1.331-1.965,2.784-2.626,4.346C364.463,18.173,362.846,16.816,361.19,15.502z
				 M366.699,20.236c0.919-1.646,1.932-3.22,3.203-4.642c0.943-1.056,2.135-1.883,3.198-2.815c2.166,0.622,4.284,1.288,6.306,1.924
				c-1.514,1.251-2.899,2.738-4.049,4.006c-1.692,1.865-3.188,3.904-3.989,6.258C369.875,23.325,368.313,21.753,366.699,20.236z
				 M372.219,25.885c0.927-2.664,2.607-4.871,4.6-6.926c1.331-1.373,2.925-2.487,4.419-3.683c0.656,0.204,1.303,0.404,1.933,0.594
				c2.246,0.676,4.409,1.442,6.532,2.259c-2.528,1.236-4.889,3.272-6.669,5.076c-2.541,2.576-4.547,5.64-5.713,9.05
				C375.718,30.039,374.014,27.916,372.219,25.885z M377.896,41.492c-4.516,4.291-8.827,9.076-12.052,14.31
				c-0.653-0.831-1.338-1.632-2.003-2.451c1.087-2.854,2.247-5.58,4.2-8.05c1.092-1.381,2.326-2.642,3.695-3.751
				c0.788-0.637,1.683-1.155,2.544-1.707C375.492,40.371,376.698,40.919,377.896,41.492z M344.746,32.5
				c2.006,0.11,3.993,0.307,5.964,0.576c-0.849,0.989-1.546,2.163-2.093,3.3C347.341,35.071,346.054,33.777,344.746,32.5z
				 M349.51,37.299c0.578-1.172,1.299-2.265,2.174-3.244c0.225-0.251,0.459-0.489,0.697-0.722c1.535,0.243,3.063,0.517,4.578,0.846
				c-0.722,0.705-1.351,1.49-1.812,2.116c-1.049,1.427-1.749,2.975-2.184,4.626C351.826,39.702,350.671,38.498,349.51,37.299z
				 M353.81,41.828c0.505-1.922,1.441-3.739,2.724-5.252c0.652-0.769,1.514-1.353,2.333-1.96c2.338,0.567,4.655,1.225,6.946,1.983
				c-2.229,0.889-4.238,1.959-5.775,4.031c-1.075,1.45-2.116,3.563-2.275,5.565C356.465,44.723,355.143,43.27,353.81,41.828z
				 M358.999,47.595c0.491-2.097,0.588-4.112,1.92-6.036c1.426-2.061,3.55-3.489,5.754-4.658c1.991,0.681,3.967,1.417,5.924,2.229
				c-2.213,1.432-4.225,3.712-5.587,5.474c-1.741,2.253-3.271,4.919-3.992,7.738C361.7,50.739,360.357,49.161,358.999,47.595z
				 M363.323,60.515c-0.156,0.342-0.32,0.682-0.466,1.028c-2.145,5.092-2.78,10.574-3.854,15.949
				c-1.114-0.926-2.225-1.854-3.339-2.779c-0.272-1.125-0.505-2.171-0.369-3.403c0.165-1.493,0.62-2.939,1.111-4.355
				c0.842-2.425,1.957-4.778,3.258-7C360.878,60.116,362.095,60.297,363.323,60.515z M343.115,64.189
				c-1.496-1.264-3.001-2.518-4.488-3.795c1.745-0.331,3.475-0.568,5.199-0.742C343.256,61.082,342.91,62.734,343.115,64.189z
				 M347.992,68.313c-1.075-0.9-2.139-1.813-3.212-2.716c-0.077-1.04-0.365-2.068-0.327-3.13c0.037-1.035,0.267-2.003,0.638-2.93
				c1.725-0.139,3.446-0.215,5.168-0.214c-0.924,1.729-1.484,3.653-1.928,5.593C348.085,65.991,347.824,67.227,347.992,68.313z
				 M349.759,69.787c-0.955-3.031,0.071-7.373,1.804-10.453c2.297,0.047,4.599,0.206,6.924,0.48
				c-1.628,2.659-2.961,5.431-3.875,8.448c-0.433,1.43-0.914,3.289-0.755,4.946C352.489,72.07,351.125,70.927,349.759,69.787z
				 M342.74,92.247c-2.16-1.245-4.32-2.49-6.48-3.736c2.469-1.202,4.988-2.227,7.551-3.115
				C343.056,87.596,342.432,90.126,342.74,92.247z M348.638,95.648c-1.4-0.807-2.8-1.614-4.201-2.422
				c-0.22-1.501-0.393-2.915-0.124-4.557c0.209-1.271,0.534-2.519,0.916-3.75c1.942-0.632,3.908-1.191,5.898-1.689
				c-1.06,2.354-1.766,4.805-2.147,7.451C348.77,92.147,348.432,94.002,348.638,95.648z M352.316,82.932
				c1.898-0.45,3.817-0.85,5.757-1.209c-1.193,5.059-2.57,10.072-3.233,15.244c-0.091,0.713-0.159,1.424-0.212,2.134
				c-1.414-0.814-2.827-1.63-4.24-2.444C349.203,92.466,350.431,87.037,352.316,82.932z M338.908,116.777
				c1.346-1.481,2.756-2.881,4.208-4.23c-0.116,1.857-0.26,3.994,0.518,5.505C342.053,117.668,340.477,117.25,338.908,116.777z
				 M345.802,118.547c-0.774-1.114-1.55-1.991-1.637-3.564c-0.066-1.185,0.128-2.359,0.166-3.542
				c1.516-1.346,3.078-2.639,4.701-3.865c-0.368,2.764-0.287,5.583,0.086,8.36c0.153,1.138,0.427,2.34,0.886,3.435
				C348.597,119.13,347.198,118.849,345.802,118.547z M351.873,119.668c-1.118-1.919-1.534-3.958-1.731-6.517
				c-0.167-2.167-0.203-4.331,0.083-6.469c1.402-1.018,2.841-1.996,4.319-2.936c0.198,5.686,1.48,11.24,3.337,16.648
				C355.861,120.212,353.861,119.967,351.873,119.668z M353.223,133.676c-0.064-0.009-0.12-0.011-0.176-0.014
				c0.862-1.289,1.853-2.506,2.774-3.754c0.341-0.462,0.683-0.924,1.024-1.386c0.202,1.593,0.584,3.152,1.202,4.676
				c0.224,0.553,0.463,1.132,0.742,1.681C356.956,134.367,355.097,133.955,353.223,133.676z M360.967,135.559
				c-1.824-2.415-2.799-5.385-3.121-8.4c0.519-0.709,1.037-1.42,1.543-2.139c0.075,0.008,0.15,0.019,0.225,0.026
				c0.25,0.622,0.506,1.243,0.766,1.861c1.444,3.422,3.05,6.801,4.647,10.189C363.704,136.516,362.342,136.018,360.967,135.559z
				 M361.265,150.852c0.932-1.461,2.098-2.872,3.303-4.249c0.254,2.155,0.895,4.365,2.038,6.141
				C364.529,152.185,362.425,151.538,361.265,150.852z M368.771,153.304c-0.846-1.312-1.745-2.556-2.305-4.083
				c-0.461-1.255-0.707-2.542-0.809-3.848c0.717-0.804,1.428-1.599,2.093-2.386c1.642,3.67,3.159,7.384,4.336,11.209
				C371.463,153.974,370.219,153.669,368.771,153.304z M296.541,6.644c0.818,1.484,1.379,3.219,1.927,4.802
				c-1.217-0.882-2.566-1.508-3.947-1.694C295.214,8.731,295.891,7.698,296.541,6.644z M293.391,11.375
				c2.392,0.034,4.307,1.13,6.044,2.761c0.871,2.369,1.668,4.754,2.38,7.179c-1.282-1.151-2.833-2.057-4.305-2.713
				c-2.678-1.194-5.492-1.799-8.336-1.809C290.662,15.047,292.061,13.238,293.391,11.375z M288.202,17.885
				c5.789,0.148,11.592,2.099,14.613,7.092c0.683,2.766,1.192,5.488,1.535,8.249c-0.122-0.17-0.225-0.347-0.352-0.516
				c-4.254-5.664-10.916-9.546-17.926-12.487C286.807,19.461,287.503,18.673,288.202,17.885z M270.477,5.808
				c1.448-1.645,0.576-1.276,1.54-0.553c1.796,1.346,3.399,3.363,4.856,5.589c-2.883-1.606-6.315-2.222-9.608-1.836
				C268.34,7.955,269.485,6.935,270.477,5.808z M266.014,10.242c2.141-0.377,4.328-0.365,6.48,0.194
				c2.369,0.615,4.157,1.959,6.09,3.201c0.927,1.602,1.792,3.215,2.608,4.69c-3.234-1.166-6.443-2.179-9.428-3.105
				c-2.791-0.866-5.604-1.625-8.431-2.325C264.227,12.013,265.121,11.128,266.014,10.242z M172.805,11.514
				c28.538-0.084,57.567-1.235,85.607,5.074c6.397,1.439,12.713,3.256,18.864,5.532c7.059,2.612,15.278,5.655,20.764,10.978
				c11.415,11.076,6.352,28.629,3.904,42.179c-4.364,24.154-3.334,49.116,2.727,72.892c6.559,25.73,18.977,51.397,37.377,70.825
				c-0.483,0.251-0.951,0.506-1.378,0.801c-2.651-2.189-5.561-4.071-8.374-5.607c-13.381-7.305-24.497-15.5-32.952-28.457
				c-18.367-28.148-19.711-61.57-19.023-94.154c0.225-10.659,3.095-24.582-2.867-33.799c4.332-13.14-2.674-24.861-10.671-35.694
				c-1.108-1.5-3.417-1.395-4.02,0.525c-1.951,6.212-5.245,11.571-9.669,16.148c-1.136-5.797-3.934-10.957-8.339-15.209
				c-1.11-1.072-2.646-0.705-3.488,0.449c-0.96,1.318-1.983,2.568-3.038,3.785c-0.096-0.052-0.192-0.104-0.302-0.144
				c-23.329-8.438-47.946-11.745-72.502-14.318c-8.202-0.86-16.414-1.646-24.617-2.51C151.453,11.313,162.119,11.546,172.805,11.514
				z M269.133,37.594c1.634,0.78,2.861,1.867,4.021,3.06c1.104,2.56,1.934,5.189,2.324,7.86c-0.578-0.835-1.234-1.611-2.052-2.258
				c-1.739-1.376-3.86-2.26-5.91-3.067c-2.374-0.934-4.865-1.672-7.427-1.783c-1.601-0.07-2.918,0.314-4.225,0.768
				c1.707-1.741,3.247-3.602,4.639-5.561C263.492,36.37,266.225,36.205,269.133,37.594z M261.695,34.853
				c1.449-2.25,2.714-4.623,3.782-7.119c2.128,2.977,4.264,6.169,6.034,9.508C268.634,35.344,264.916,34.418,261.695,34.853z
				 M259.656,42.378c2.595,0.069,5.111,0.887,7.49,1.865c2.083,0.856,4.33,1.806,6.008,3.351c1.141,1.051,1.781,2.422,2.569,3.702
				c0.033,1.311-0.042,2.629-0.262,3.953c-1.099-1.164-2.387-2.223-3.916-3.145c-5.429-3.274-11.419-5.867-17.62-8.06
				c0.301-0.273,0.583-0.56,0.876-0.84C256.381,42.792,257.932,42.332,259.656,42.378z M243.193,32.412
				c1.338,0.304,2.567,0.863,3.714,1.574c0.827,1.753,1.444,3.603,1.833,5.548c-2.42-3.516-6.801-5.125-11.042-4.804
				c0.858-0.824,1.681-1.681,2.492-2.55C241.189,32.21,242.195,32.185,243.193,32.412z M241.588,30.605
				c0.595-0.684,1.2-1.358,1.767-2.073c0.931,1.078,1.742,2.217,2.454,3.403C244.484,31.222,243.006,30.708,241.588,30.605z
				 M243.497,36.876c2.434,1.252,3.886,3.226,5.303,5.453c-4.951-1.566-9.973-2.929-14.906-4.212
				c0.975-0.789,1.912-1.609,2.826-2.448C239.039,35.448,241.473,35.834,243.497,36.876z M90.032,6.237
				c1.609,0.217,3.22,0.404,4.83,0.607c3.754,1.275,7.799,1.97,11.581,2.744c6.102,1.249,12.251,2.216,18.42,3.074
				c12.244,1.703,24.541,2.916,36.834,4.198c24.902,2.597,49.827,5.819,73.56,14.098c-1.722,1.709-3.534,3.331-5.471,4.846
				c-0.412,0.322-0.639,0.69-0.725,1.064c-1.057-0.272-2.108-0.542-3.15-0.812c-33.465-8.668-67.84-13.659-102.374-15.13
				c-4.712-0.201-9.429-0.333-14.147-0.402c-0.16-0.417-0.457-0.803-0.922-1.106C102.125,15.279,95.974,10.903,90.032,6.237z
				 M62.495,123.721c0.658-3.892,1.017-7.83,1.01-11.778c-0.06-33.356-21.672-60.874-48.696-78.163
				c57.275-6.495,115.238-3.662,171.426,9.456c13.688,3.195,27.325,6.89,40.591,11.556c6.367,2.24,13.7,4.914,19.08,9.173
				c0.296,0.201,0.591,0.402,0.887,0.602c-32.338,6.527-64.334,15.733-95.462,26.571c-15.497,5.396-30.813,11.308-45.925,17.702
				c-7.636,3.23-15.231,6.564-22.74,10.08c-6.973,3.265-14.523,6.352-21.064,10.575C61.124,127.754,62.249,125.178,62.495,123.721z
				 M88.466,140.777c-5.845-5.082-13.067-8.523-20.74-9.663c-0.689-0.102-2.332-0.015-3.646-0.084
				c5.987-2.371,11.778-5.523,17.571-8.18c7.829-3.591,15.698-7.1,23.63-10.459c15.73-6.661,31.693-12.774,47.839-18.35
				c28.2-9.739,56.847-17.394,85.917-23.81c-3.785,2.425-7.438,5.136-10.936,7.373c-7.712,4.932-15.377,9.939-23.053,14.928
				c-14.166,9.206-28.36,18.382-42.378,27.812c-23.05,15.505-45.621,32.623-61.607,55.596
				C102.873,163.044,98.544,149.54,88.466,140.777z M133.601,184.484c-9.155-5.333-19.923-5.728-30.236-4.299
				c16.325-24.365,40.252-41.9,64.349-58.032c13.65-9.138,27.416-18.107,41.176-27.08c7.385-4.816,14.797-9.592,22.164-14.435
				c2.794-1.837,5.897-3.629,8.941-5.539c-15.777,18.979-30.549,38.915-44.892,58.927c-8.611,12.015-16.986,24.199-25.121,36.541
				c-7.509,11.393-15.411,22.829-21.654,35.005C147.213,196.751,141.351,188.999,133.601,184.484z M207.44,215.21
				c-14.035-16.497-36.81-16.084-56.17-9.368c7.293-10.337,13.701-21.35,20.652-31.91c8.128-12.348,16.498-24.537,25.101-36.559
				c15.017-20.985,31.078-41.053,47.285-61.079c-3.602,8.552-6.782,17.336-10.166,25.902c-4.913,12.44-10.09,24.833-14.066,37.615
				c-3.849,12.373-6.44,25.106-8.365,37.909C209.858,190.048,207.943,202.722,207.44,215.21z M211.785,213.967
				c1.59-11.665,2.189-23.492,3.891-35.154c1.871-12.816,4.411-25.559,8.205-37.953c6.715-21.937,16.959-42.723,24.431-64.396
				c-0.731,3.431-1.48,6.859-2.209,10.291c-2.872,13.51-5.587,27.345-5.234,41.225c0.338,13.275,4.267,24.99,10.187,36.745
				c3.564,7.077,7.155,14.071,9.135,21.791c2.097,8.174,2.767,16.61,3.912,24.946c0.515,3.754,1.137,7.647,2.003,11.502
				C252.042,208.822,229.615,205.164,211.785,213.967z M125.942,436.369c0.59-3.157,1.44-6.28,2.786-9.205
				c0.373-0.811,5.482-8.388,5.637-8.144c2.659,4.208,5.111,8.632,8.17,12.523c2.236,2.844,5.311,5.413,9.168,4.868
				c1.555-0.22,2.829-0.938,4.063-1.863c0.989-0.741,1.724-1.893,2.736-2.559c0.684-0.899,1.672-1.174,2.964-0.822
				c2.005-1.043,3.043-0.514,3.114,1.587c1.371,2.116,1.624,5.939,2.498,8.375c0.802,2.234,1.746,4.44,3.056,6.427
				c2.326,3.528,5.529,6.1,9.572,7.344c3.41,1.049,5.957,1.624,7.192,5.453c0.657,2.037,0.669,4.25,1.344,6.296
				c3.017,9.135,12.568,10.998,19.908,15.526c-5.03,1.79-9.921,3.945-14.58,6.574c-3.071,1.733-6.01,3.656-8.854,5.738
				c-1.735,1.27-3.113,2.433-5.222,3.014c-2.529,0.697-4.5,0.004-7.023-0.375c-5.887-0.884-10.988,1.318-16.005,4.195
				c-2.908,1.667-6.011,4.122-9.263,5.064c-4.307,1.247-5.864-1.984-8.958-3.771c-5.654-3.266-11.691,0.752-17.121,2.376
				c-4.22,1.262-9.113,1.911-12.995-0.644c-4.15-2.732-3.113-5.489-3.418-9.615c-0.146-1.984-0.734-3.518-2.283-4.818
				c-1.873-1.574-5.403-1.728-6.796-3.809c-5.964-8.908,14.162-10.877,18.093-11.483c0.862-0.133,1.727-0.266,2.599-0.271
				c1.092-0.007,2.174,0.186,3.248,0.379c9.642,1.727,19.281,3.449,28.945,5.048c9.821,1.625,20.591,4.512,30.557,4.512
				c1.904,0.235,2.201-2.438,0.898-3.315c-9.429-6.345-19.005-11.264-29.6-15.381c-4.392-1.706-8.766-3.462-13.092-5.329
				c-3.737-1.612-8.805-3.055-12.054-5.482C122.301,452.597,125.316,439.722,125.942,436.369z M123.367,458.544
				c-3.9-1.327-7.802-2.649-11.693-4.002c-0.979-0.34-1.956-0.69-2.932-1.045c0.126-0.117,0.252-0.233,0.377-0.35
				c0.448-0.415,0.966-0.83,1.437-1.277C114.735,454.155,118.998,456.34,123.367,458.544z M109.279,451.167
				c-0.37,0.36-0.725,0.737-1.077,1.062c-0.273,0.253-0.546,0.506-0.82,0.759c-2.784-1.041-5.549-2.148-8.261-3.367
				c0.591-0.53,1.213-1.026,1.87-1.477c0.474-0.326,1.015-0.601,1.53-0.905C104.74,448.609,107,449.901,109.279,451.167z
				 M93.099,440.831c2.607,1.978,5.268,3.791,7.97,5.506c-0.41,0.277-0.797,0.574-1.143,0.836c-0.75,0.567-1.432,1.196-2.078,1.864
				c-3.193-1.485-6.311-3.121-9.294-4.983c0.342-0.378,0.706-0.737,1.11-1.06c1.012-0.807,2.235-1.209,3.275-1.952
				C93.017,440.987,93.063,440.91,93.099,440.831z M91.086,439.266c0.388,0.31,0.779,0.609,1.169,0.911
				c-1.86,0.191-3.594,1.586-4.863,3.146c-1.328-0.865-2.637-1.762-3.903-2.726c-1.287-0.98-2.524-2.015-3.733-3.08
				c1.444-1.64,3.272-2.646,5.062-3.857C86.8,435.636,88.888,437.511,91.086,439.266z M84.058,432.894
				c-2.098,0.47-3.9,2.035-5.256,3.744c-2.644-2.419-5.117-5.014-7.366-7.792c1.115-1.099,2.28-2.112,3.65-2.885
				c0.723-0.408,1.492-0.714,2.257-1.031C79.379,427.746,81.63,430.401,84.058,432.894z M76.544,423.783
				c-2.292,0.667-4.441,2.479-5.747,4.284c-2.158-2.74-4.122-5.632-5.876-8.647c0.035-0.025,0.072-0.04,0.105-0.077
				c1.93-2.103,4.174-2.958,6.63-3.764C73.083,418.445,74.734,421.172,76.544,423.783z M71.011,414.309
				c-2.575,0.397-5.035,2.152-6.695,4.054c-1.498-2.674-2.84-5.437-4.006-8.275c2.284-1.871,4.891-2.651,7.759-3.263
				C68.879,409.344,69.852,411.844,71.011,414.309z M61.373,374.764c1.888,0.318,3.252,1.186,4.675,2.181
				c-0.393,2.175-0.664,4.378-0.821,6.599c-3.298-1.208-7.861-0.977-10.545,1.261c-0.143-3.232-0.077-6.447,0.185-9.631
				C57.024,374.816,59.142,374.389,61.373,374.764z M54.966,374.111c0.269-2.785,0.67-5.549,1.232-8.277
				c1.985-0.419,4.046-0.596,6.053-0.454c2.551,0.181,4.208,1.4,6.155,2.48c-0.834,2.417-1.502,4.896-2.029,7.412
				C63.496,372.915,58.542,372.92,54.966,374.111z M59.498,384.472c1.961-0.408,3.818-0.143,5.656,0.4
				c-0.149,3.051-0.073,6.133,0.239,9.22c-2.436-1.225-6.937,1.302-9.162,2.807c-0.206-0.969-0.402-1.94-0.569-2.917
				c-0.409-2.385-0.694-4.766-0.864-7.137C56.288,385.908,57.594,384.868,59.498,384.472z M65.596,395.832
				c0.421,3.244,1.112,6.488,2.07,9.705c-2.851,0.155-5.586,1.618-7.76,3.513c-1.417-3.596-2.578-7.295-3.436-11.069
				C58.823,396.515,63.265,394.048,65.596,395.832z M68.889,366.528c-1.77-1.625-4.266-2.441-6.638-2.595
				c-1.419-0.092-3.752-0.241-5.674,0.199c0.814-3.562,1.861-7.066,3.137-10.493c2.103,0.559,4.123,1.354,6.009,2.517
				c1.377,0.849,2.645,1.867,3.767,3.033c0.607,0.632,1.112,1.347,1.638,2.041C70.292,362.956,69.557,364.729,68.889,366.528z
				 M71.914,359.661c-1.382-1.832-3.453-3.393-5.182-4.467c-2.045-1.27-4.302-2.129-6.652-2.489
				c1.486-3.853,3.237-7.612,5.25-11.239c2.523,0.863,4.972,1.68,7.172,3.363c2.218,1.697,3.662,3.778,4.946,6.121
				C75.351,353.691,73.502,356.608,71.914,359.661z M78.485,349.637c-2.446-4.92-7.436-7.841-12.73-8.918
				c1.509-2.661,3.148-5.255,4.913-7.767c2.345,0.598,4.597,1.497,6.678,2.81c3.171,2.001,5.059,4.608,7.079,7.56
				C82.277,345.284,80.3,347.401,78.485,349.637z M85.564,342.3c-2.525-5.228-8.391-9.11-14.237-10.268
				c2.58-3.582,5.404-7,8.449-10.216c3.159,1.114,6.393,5.138,8.175,7.264c2.128,2.539,3.521,5.162,4.415,8.147
				C89.954,338.762,87.687,340.462,85.564,342.3z M93.779,336.35c-1.012-3.34-3.17-6.389-5.468-8.905
				c-2.052-2.247-4.698-5.388-7.812-6.382c2.485-2.572,5.104-5.018,7.847-7.311c1.072,0.49,2.157,0.963,3.145,1.651
				c1.881,1.309,3.534,2.941,4.982,4.712c2.88,3.521,4.894,7.564,6.358,11.835C99.633,333.175,96.617,334.658,93.779,336.35z
				 M110.333,329.605c-2.175,0.525-4.276,1.168-6.317,1.901c-0.825-4.405-3.556-8.733-6.256-12.12
				c-1.862-2.335-4.757-5.374-7.9-6.891c3.464-2.783,7.106-5.334,10.892-7.621c4.212,1.476,7.819,7.571,9.434,10.845
				c2.093,4.243,2.862,8.623,3.087,13.257C112.293,329.166,111.312,329.369,110.333,329.605z M123.929,327.752
				c-3.06,0.116-6.124,0.441-9.184,0.964c0.089-5.518-1.747-11.198-4.58-15.849c-1.813-2.975-4.781-7.178-8.4-8.608
				c2-1.175,4.038-2.279,6.11-3.302c0.817-0.403,1.639-0.794,2.465-1.174c1.481,0.926,3.082,1.723,4.375,2.969
				c2.069,1.995,3.721,4.384,4.984,6.959c1.432,2.92,2.335,6.094,2.955,9.277C123.147,321.512,124.073,324.892,123.929,327.752z
				 M125.198,327.708c0.261-2.382-0.484-5.257-0.811-7.29c-0.592-3.693-1.529-7.352-3.089-10.761
				c-1.297-2.835-3.054-5.479-5.259-7.691c-0.978-0.981-2.267-2.185-3.672-3.084c5.452-2.371,11.078-4.268,16.816-5.721
				c3.148,4.77,5.294,10.188,6.197,15.834c1.06,6.625,0.111,12.743-1.782,19.02C130.81,327.754,128.007,327.651,125.198,327.708z
				 M135.15,328.174c4.522-11.384,1.994-25.363-4.97-35.274c4.52-1.102,9.107-1.934,13.73-2.505
				c0.859,1.319,2.172,2.361,3.065,3.681c0.951,1.406,1.724,2.931,2.323,4.518c1.3,3.445,1.838,7.145,1.88,10.815
				c0.083,7.354-1.896,14.187-4.425,20.944C142.933,329.353,139.057,328.618,135.15,328.174z M147.698,330.613
				c3.548-6.871,5.084-15.177,4.727-22.759c-0.169-3.578-0.815-7.16-2.181-10.481c-0.943-2.291-2.519-5.512-4.729-7.174
				c5.803-0.641,11.656-0.88,17.501-0.741c1.487,7.495,3.319,14.677,2.975,22.471c-0.359,8.132-2.375,16.187-8.13,22.105
				C154.533,332.695,151.137,331.555,147.698,330.613z M167.928,338.738c-2.824-1.508-5.718-2.872-8.659-4.108
				c2.616-1.963,4.19-5.275,5.31-8.241c1.527-4.044,2.369-8.332,2.689-12.636c0.583-7.831-0.283-16.717-3.031-24.263
				c3.243,0.106,6.482,0.314,9.707,0.647c0.135,0.478,0.287,0.951,0.464,1.414c-0.046,0.807-0.079,1.613-0.083,2.416
				c-0.019,4.578,0.909,8.865,2.459,12.935c-0.017,5.3-0.237,10.623-0.846,15.868c-0.342,2.943-0.871,5.893-1.819,8.706
				c-1.067,3.164-2.826,5.413-4.565,8.161C169.012,339.338,168.475,339.03,167.928,338.738z M170.66,340.25
				c4.296-3.553,5.756-10.455,6.464-15.643c0.674-4.943,0.905-9.942,0.819-14.932c1.661,3.623,3.781,7.079,6.134,10.418
				c1.365,1.937,2.771,3.846,4.195,5.743c-0.053,3.568-0.592,7.19-1.604,10.531c-0.699,2.31-1.655,4.541-2.841,6.644
				c-0.722,1.28-1.781,2.467-2.603,3.734C177.766,344.476,174.259,342.286,170.66,340.25z M190.696,353.125
				c-2.68-1.83-5.361-3.662-8.066-5.457c1.014-1.182,1.805-2.7,2.481-3.907c1.24-2.212,2.226-4.581,2.941-7.013
				c0.954-3.249,1.321-6.436,1.172-9.656c2.728,3.586,5.542,7.11,8.447,10.557c-0.279,2.273-0.963,4.606-1.614,6.51
				C194.959,347.371,193.252,350.817,190.696,353.125z M201.92,360.455c-2.794-1.712-5.564-3.477-8.299-5.335
				c-0.577-0.392-1.153-0.786-1.729-1.179c2.734-1.579,4.457-6.352,5.388-8.997c0.517-1.471,1.254-3.689,1.582-5.874
				c1.607,1.882,3.234,3.746,4.887,5.584c0.952,1.059,1.932,2.091,2.9,3.135c-0.18,2.06-0.515,4.095-1.196,6.102
				c-0.614,1.81-1.453,3.556-2.482,5.167C202.656,359.55,202.29,360.005,201.92,360.455z M203.4,361.354
				c1.47-1.887,2.525-4.728,3.093-6.3c0.688-1.904,1.176-3.925,1.358-5.964c2.274,2.424,4.574,4.822,6.93,7.167
				c0.101,0.1,0.21,0.201,0.315,0.302c-0.205,1.499-0.509,2.979-1.035,4.422c-0.529,1.451-1.421,3.539-2.536,5.121
				C208.794,364.554,206.087,362.975,203.4,361.354z M212.636,366.732c1.059-1.376,1.887-3.245,2.309-4.278
				c0.646-1.579,1.066-3.236,1.214-4.913c1.455,1.304,3.046,2.659,4.083,4.158c2.292,3.315,1.092,6.158-1.035,8.682
				C217.005,369.17,214.814,367.958,212.636,366.732z M279.539,454.012c-1.123,0.134-2.333,0.23-3.537,0.384
				c0.532-1.984,0.174-4.188-0.791-6.204c2.337-1.582,6.026-0.496,8.087,0.99c1.631,1.176,2.772,2.77,3.587,4.541
				C284.436,453.637,281.998,453.719,279.539,454.012z M275.373,433.543c-5.189-3.197-11.716-1.289-17.394-0.37
				c-4.67,0.756-9.675,0.939-13.775-1.766c-5.688-3.753-4.087-9.916-1.139-14.825c4.44-7.395,10.28-14.163,15.415-21.087
				c3.037-4.094,6.077-8.186,9.115-12.28c0.09,0.014,0.174,0.036,0.27,0.042c5.007,0.291,10.025,0.32,15.037,0.124
				c0.614,4.095,1.586,8.105,1.759,12.303c0.238,5.777-0.513,11.523-2.292,17.028C280.246,419.284,275.011,426.406,275.373,433.543z
				 M297.293,338.189c3.874-0.567,7.728-1.405,11.535-2.491c3.065,5.379,5.081,11.401,5.95,17.498
				c0.522,3.667,0.632,7.388,0.328,11.079c-0.275,3.336-1.179,6.424-1.894,9.616c-4.9,1.142-9.852,2.056-14.839,2.76
				c1.159-2.631,1.582-5.588,1.893-8.426c0.418-3.814,0.658-7.675,0.662-11.512C300.934,350.159,300.019,343.994,297.293,338.189z
				 M299.496,357.158c-0.092,6.75-0.715,13.334-2.816,19.722c-3.095,0.406-6.207,0.702-9.326,0.943
				c0.528-2.164,0.494-4.654,0.517-6.712c0.038-3.407-0.305-6.809-0.864-10.167c-0.498-2.986-1.175-5.939-1.979-8.858
				c0.046-4.32-1.103-8.829-2.508-13.24c4.617,0.311,9.251,0.096,13.86-0.523C298.934,344.177,299.582,350.872,299.496,357.158z
				 M284.643,355.864c0.264,1.174,0.514,2.352,0.731,3.538c0.621,3.395,1.012,6.83,1.054,10.283
				c0.033,2.741-0.637,5.541-0.732,8.264c-4.815,0.327-9.652,0.479-14.505,0.408c1.339-1.809,2.681-3.615,4.015-5.426
				C279.034,367.735,283.34,362.282,284.643,355.864z M288.852,449.414c-1.523-1.889-3.436-3.428-5.84-4.368
				c-0.945-0.37-1.937-0.641-2.924-0.78c0.843-2.036,0.54-4.198-0.444-6.136c3.044-0.389,5.996-0.271,8.755,1.57
				c2.789,1.86,3.993,4.491,4.714,7.48C291.511,447.583,290.039,448.246,288.852,449.414z M342.989,428.621
				c2.99-0.182,5.996,0.008,8.685,1.542c2.905,1.658,4.134,4.275,4.875,7.196c-2.284,0.075-4.505,0.592-6.525,1.697
				c-2.025-2.792-5.44-4.263-9.264-4.162C342.224,433.057,343.219,430.892,342.989,428.621z M346.568,440.203
				c1.402,1.435,1.557,3.231,1.436,5.133c-0.095,0.248-0.163,0.46-0.216,0.651c-0.099-0.027-0.197-0.058-0.297-0.084
				c-2.699-0.759-6.497-2.42-9.919-2.672c0.826-1.659,1.006-3.481,0.584-5.205C341.157,437.882,344.337,437.919,346.568,440.203z
				 M315.253,413.28c1.353,4.878,4.48,8.106,8.964,10.325c2.739,1.355,5.682,2.32,8.677,2.905c1.823,0.356,3.096,0.175,4.514,1.605
				c2.188,2.206,0.195,4.109-1.627,5.901c-3.978-3.703-11.177-3.598-16.11-2.621c-1.108,0.22-0.924,1.751,0,2.064
				c3.463,1.176,10.928,0.508,13.301,3.432c4.316,5.32-3.38,7.389-6.178,7.6c-2.146,0.161-4.343-0.023-6.492-0.056
				c-7.577-0.116-16.151-1.221-23.681,0.324c-1.337-3.47-3.396-6.472-6.851-8.432c-2.965-1.683-6.689-2.296-10-1.438
				c0.414-5.036,1.807-9.095,4.014-13.919c2.066-4.514,3.648-9.119,4.434-14.037c1.175-7.354,1.325-16.562-1.875-23.71
				c10.74-0.654,21.426-2.397,31.868-5.136C313.499,388.602,312.242,402.423,315.253,413.28z M328.98,369.396
				c-4.558,1.55-9.174,2.894-13.837,4.04c2.03-6.132,1.905-13.649,1.087-19.691c-0.891-6.586-3.084-12.693-6.363-18.345
				c3.959-1.175,7.865-2.592,11.687-4.19c3.762,5.089,5.981,11.649,7.24,17.668c0.761,3.638,1.144,7.352,1.132,11.07
				C329.917,363.148,329.299,366.251,328.98,369.396z M342.883,361.82c-0.047,0.749-0.15,1.499-0.252,2.25
				c-3.881,1.722-7.819,3.275-11.799,4.682c0.648-3.148,0.65-6.662,0.584-9.677c-0.085-3.843-0.566-7.683-1.441-11.426
				c-0.874-3.739-2.148-7.38-3.798-10.847c-0.907-1.907-1.947-4.255-3.399-6.106c3.179-1.367,6.3-2.849,9.34-4.419
				c4.035,5.6,7.201,11.848,9.005,18.52c0.993,3.671,1.604,7.436,1.795,11.235C343.014,357.958,343.004,359.894,342.883,361.82z
				 M357.699,356.427c-2.793,1.612-5.64,3.147-8.546,4.595c-1.571,0.783-3.153,1.536-4.743,2.264
				c0.213-2.463,0.059-5.062-0.054-7.255c-0.21-4.059-0.879-8.098-1.99-12.007c-1.897-6.67-5.012-12.875-9.422-18.175
				c2.936-1.537,5.797-3.148,8.567-4.799c0.761-0.453,1.51-0.924,2.262-1.391c4.967,4.814,8.884,10.8,11.295,17.257
				c1.351,3.617,2.271,7.407,2.678,11.248C358.04,350.954,357.807,353.683,357.699,356.427z M359.564,355.329
				c0.134-2.423-0.086-4.925-0.335-7.165c-0.457-4.105-1.444-8.142-2.945-11.99c-2.573-6.595-6.495-12.335-11.655-17.042
				c3.471-2.191,6.847-4.524,10.117-6.994c2.014,1.783,4.045,3.527,5.851,5.562c2.573,2.898,4.777,6.13,6.568,9.566
				c1.79,3.435,3.154,7.092,4.038,10.864c0.685,2.921,0.715,5.891,1.065,8.82C368.182,349.929,363.942,352.724,359.564,355.329z
				 M373.917,345.746c-0.078-2.711-0.714-5.564-1.3-8.005c-0.902-3.758-2.277-7.404-4.051-10.838
				c-2.927-5.668-7.34-11.796-12.872-15.495c2.256-1.732,4.466-3.523,6.62-5.379c5.817,2.928,11.051,7.044,15.226,12.034
				c2.394,2.862,4.441,6.017,6.088,9.365c1.258,2.557,2.079,5.196,2.909,7.86C382.519,338.975,378.305,342.463,373.917,345.746z
				 M387.872,334.051c-1.56-6.11-5.29-12.065-9.116-16.672c-4.287-5.163-9.562-9.264-15.561-12.112
				c2.663-2.333,5.252-4.75,7.743-7.267c5.533,3.018,10.477,7.357,14.203,12.362c2.223,2.986,4.084,6.268,5.458,9.728
				c1.135,2.858,1.563,5.933,2.516,8.821C391.408,330.664,389.658,332.375,387.872,334.051z M394.347,327.623
				c-0.28-2.967-1.508-6.018-2.612-8.625c-1.507-3.557-3.478-6.895-5.849-9.943c-3.924-5.045-8.715-8.891-14.292-11.7
				c2.961-3.031,5.793-6.19,8.482-9.471c12.057,4.453,21.301,14.926,25.264,26.979C401.901,319.3,398.225,323.554,394.347,327.623z
				 M406.461,313.429c-1.995-6.029-5.568-11.588-9.998-16.08c-2.504-2.539-5.328-4.778-8.386-6.615
				c-2.501-1.502-4.99-2.476-7.635-3.301c1.231-1.514,2.441-3.047,3.611-4.612c0.949-1.268,1.868-2.561,2.77-3.868
				c11.475,2.576,25.374,8.433,29.594,19.761C413.363,303.799,410.036,308.709,406.461,313.429z M417.405,297.046
				c-2.118-5.007-6.81-8.898-11.266-11.739c-5.737-3.657-12.094-6.148-18.776-7.162c2.126-3.133,4.131-6.361,5.992-9.686
				c6.804,0.817,13.745,2.51,19.622,6.096c4.734,2.889,7.9,6.686,10.397,11.322C421.527,289.681,419.532,293.405,417.405,297.046z
				 M424.27,283.99c-2.315-4.309-6.299-7.937-10.267-10.406c-6.116-3.806-13.083-5.362-20.156-6.005
				c1.677-3.05,3.243-6.171,4.692-9.353c6.143,0.188,12.152,1.738,17.499,4.829c5.301,3.064,8.801,7.172,12.128,11.989
				C426.957,278.07,425.651,281.05,424.27,283.99z M428.889,273.216c-2.812-4.62-7.379-8.494-11.846-11.123
				c-5.491-3.233-11.763-4.987-18.119-4.731c0.94-2.102,1.845-4.223,2.681-6.373c6.001-1.122,12.386-0.394,17.869,2.288
				c2.784,1.362,5.325,3.186,7.516,5.378c1.892,1.893,3.115,4.333,4.836,6.314C430.921,267.75,429.937,270.498,428.889,273.216z
				 M432.429,263.117c-1.13-2.178-3.137-4.205-4.733-5.724c-2.421-2.305-5.23-4.204-8.285-5.562
				c-5.603-2.49-11.606-2.995-17.447-1.781c1.231-3.234,2.35-6.515,3.341-9.837c5.697-1.316,11.554-1.513,17.269,0.095
				c3.069,0.864,6.018,2.19,8.637,4.016c2.038,1.421,3.457,3.125,4.9,4.945C435.083,253.956,433.849,258.575,432.429,263.117z
				 M436.56,247.223c-3.174-4.013-8.761-6.705-13.227-7.997c-5.778-1.671-12.025-1.771-17.747,0.021
				c0.984-3.391,1.848-6.819,2.573-10.275c5.108-1.416,10.496-1.861,15.743-1.096c5.882,0.858,10.732,2.985,14.663,7.215
				C438.048,239.179,437.382,243.23,436.56,247.223z M438.792,233.026c-3.524-3.906-9.732-5.669-14.556-6.364
				c-5.387-0.777-10.736-0.355-15.85,1.176c0.746-3.71,1.357-7.445,1.792-11.198c10.502-0.577,20.8,0.08,29.465,6.546
				C439.464,226.482,439.163,229.762,438.792,233.026z M439.73,221.501c-8.182-6.208-19.381-7.051-29.427-5.86
				c0.18-1.661,0.331-3.325,0.448-4.99c8.767-4.204,20.906-4.223,29.124,0.669C439.936,214.717,439.88,218.113,439.73,221.501z
				 M439.842,209.577c-1.545-1.121-3.579-1.644-5.397-2.045c-2.973-0.656-6.031-1.037-9.075-1.098
				c-5.155-0.104-10.051,0.815-14.543,3.075c0.153-2.478,0.261-4.957,0.271-7.435c1.648-0.535,3.278-1.154,4.979-1.523
				c2.881-0.624,5.831-0.902,8.777-0.856c5.232,0.081,9.779,1.557,14.655,2.96C439.677,204.958,439.776,207.266,439.842,209.577z
				 M439.41,201.294c-4.348-2.282-9.812-3.042-14.556-3.116c-4.206-0.065-9.533,0.31-13.76,2.042
				c-0.03-2.784-0.145-5.563-0.36-8.333c4.626-0.371,9.226-1.164,13.827-1.727c2.333-0.286,4.683-0.523,7.036-0.447
				c2.367,0.077,4.421,0.7,6.627,1.303C438.738,194.421,439.13,197.851,439.41,201.294z M437.978,189.507
				c-3.76-1.682-8.676-1.202-12.539-0.744c-4.917,0.583-9.916,1.205-14.788,2.18c-0.245-2.852-0.579-5.693-1.027-8.515
				c4.166,0.551,8.441,0.059,12.548-0.734c2.588-0.5,5.137-1.167,7.665-1.911c1.866-0.549,3.977-0.987,5.799-1.818
				C436.579,181.763,437.349,185.618,437.978,189.507z M433.862,171.454c0.519,1.712,0.995,3.44,1.446,5.177
				c-1.819,0.369-3.609,1.15-5.365,1.675c-2.21,0.661-4.437,1.272-6.687,1.781c-4.606,1.043-9.136,1.354-13.809,1.291
				c-0.567-3.369-1.272-6.712-2.139-10.015c4.464,0.3,8.893,0.032,13.306-0.866c3.809-0.775,8.006-1.948,11.61-3.809
				C432.813,168.254,433.371,169.835,433.862,171.454z M431.643,165.202c-3.575,1.51-7.065,3.014-10.945,3.878
				c-4.479,0.997-9.106,1.367-13.694,1.194c-0.565-2.065-1.174-4.118-1.86-6.15c-0.474-1.403-0.966-2.804-1.468-4.205
				c8.002,1.471,16.734,0.361,23.962-3.514C429.114,159.279,430.45,162.205,431.643,165.202z M422.916,147.643
				c0.743,1.444,1.529,2.874,2.329,4.303c0.582,1.041,1.146,2.086,1.699,3.134c-7.472,3.486-15.297,4.966-23.625,3.854
				c-1.283-3.552-2.616-7.104-3.892-10.675c3.226,1.503,6.92,1.443,10.475,1.307C414.161,149.405,418.788,149.003,422.916,147.643z
				 M404.611,130.796c4.253,0.844,9.508,1.575,13.991,0.891c-0.029,1.235,0.017,2.481,0.162,3.742c0.017,0.148,0.05,0.29,0.07,0.437
				c-3.103,1.076-6.307,1.914-9.529,2.5c-2.104,0.383-4.225,0.641-6.359,0.778c-1.133,0.073-5.698,0.739-6.468-0.213
				c-0.057-0.07-0.123-0.117-0.192-0.149c-1.154-3.907-2.112-7.861-2.721-11.888c-0.017-0.113-0.029-0.225-0.045-0.338
				C396.835,128.738,400.755,130.031,404.611,130.796z M393.353,125.314c-0.536-4.407-0.5-8.643,0.092-12.74
				c3.268,3.799,7.225,6.801,11.851,8.894c2.5,1.131,5.138,1.98,7.833,2.501c1.971,0.381,4.332,0.854,6.47,0.705
				c-0.468,1.824-0.787,3.68-0.928,5.566c-1.846-0.011-3.727,0.199-5.563,0.16c-2.737-0.057-5.475-0.298-8.168-0.802
				C400.77,128.818,397.013,127.282,393.353,125.314z M398.229,140.745c2.675,0.044,5.351-0.104,8.006-0.434
				c4.433-0.552,8.653-1.667,12.792-3.24c0.595,3.27,1.786,6.306,3.225,9.255c-3.766,0.887-7.45,1.649-11.389,1.88
				c-3.951,0.231-8.134,0.459-11.848-1.101c-0.748-2.122-1.471-4.251-2.14-6.394C397.287,140.755,397.749,140.737,398.229,140.745z
				 M420.002,123.229c-2.146-0.251-4.378-0.129-6.521-0.538c-2.718-0.52-5.374-1.376-7.893-2.52
				c-4.534-2.058-8.623-5.096-11.954-8.797c1.022-5.926,3.221-11.567,6.586-17.019c0.019-0.004,0.039-0.007,0.058-0.01
				c-2.382,4.996-3.733,10.283-4.048,15.93c-0.082,1.462,1.714,2.433,2.922,1.677c2.572-1.61,5.092-3.289,7.583-5.01
				c2.326,1.885,4.786,3.714,7.508,4.871c0.578,0.246,1.188,0.467,1.808,0.678c0.178,1.019,1.406,1.925,2.41,1.508
				c0.386-0.16,0.754-0.343,1.12-0.528c1.429,0.315,2.878,0.547,4.279,0.696C422.294,117.087,420.941,120.108,420.002,123.229z
				 M390.968,88.776c-0.518-1.36-0.699-2.835-0.74-4.3c1.129-0.968,2.265-1.929,3.411-2.88c0.537,1.166,1.162,2.308,1.89,3.412
				c1.346,2.041,2.949,3.866,4.768,5.437c-2.248,0.448-4.501,0.797-6.757,1.101C392.416,90.939,391.537,90.271,390.968,88.776z
				 M391.37,91.83c-1.499,0.17-3.002,0.306-4.507,0.415c-0.315-0.41-0.599-0.847-0.799-1.364c-0.283-0.731-0.431-1.499-0.517-2.277
				c1.189-1.073,2.387-2.136,3.598-3.186c0.048,1.943,0.374,3.931,1.441,5.487C390.806,91.228,391.073,91.543,391.37,91.83z
				 M392.023,76.869c-1.091-0.563-2.179-1.141-3.261-1.737c-0.524-1.578-1.102-2.946-1.026-4.656
				c0.054-1.212,0.245-2.727,0.69-4.017c1.192-0.342,2.377-0.699,3.547-1.092C391.121,69.153,391.124,73.077,392.023,76.869z
				 M409.13,100.625c-1.407-0.152-2.713-0.46-3.945-1.571c-0.716-0.645-1.295-1.405-1.811-2.211c0.482-1.08,1.015-2.147,1.604-3.202
				c0.603,0.317,1.218,0.616,1.851,0.885c2.434,1.034,4.977,1.652,7.555,2.143C412.659,98.027,410.903,99.338,409.13,100.625z
				 M416.995,99.389c-0.296,3.91-0.593,7.821-0.892,11.731c-0.466-0.147-0.928-0.309-1.384-0.498
				c-2.557-1.059-4.848-2.696-7.167-4.24C410.764,104.14,413.914,101.813,416.995,99.389z M407.618,101.726
				c-0.802,0.569-1.615,1.121-2.426,1.677c-1.37-0.328-2.596-0.887-3.513-1.947c0.347-1.16,0.736-2.307,1.195-3.434
				C404.141,99.781,405.672,101.174,407.618,101.726z M403.708,104.414c-1.051,0.703-2.108,1.399-3.177,2.08
				c0.193-1.257,0.46-2.487,0.775-3.702C402.001,103.48,402.827,104.052,403.708,104.414z M421.342,106.872
				c0.257,0.141,0.547,0.258,0.848,0.361c-0.67,0.557-1.353,1.097-2.074,1.581c0.064-0.893,0.129-1.785,0.193-2.678
				C420.618,106.417,420.964,106.665,421.342,106.872z M420.418,104.628c0.082-1.134,0.163-2.269,0.245-3.403
				c0.795,0.839,1.817,1.503,2.804,1.931c0.694,0.301,1.603,0.592,2.513,0.708c-0.825,0.736-1.636,1.489-2.459,2.225
				c-0.513-0.024-1.032-0.118-1.583-0.365C421.338,105.456,420.846,105.072,420.418,104.628z M424.52,112.962
				c-0.973-0.261-1.961-0.465-2.953-0.648c2.421-1.601,4.513-3.633,6.736-5.488C426.984,108.814,425.701,110.861,424.52,112.962z
				 M427.666,102.425c-1.214-0.135-2.478,0.033-3.708-0.434c-1.336-0.507-2.269-1.35-3.186-2.288
				c0.046-0.629,0.09-1.258,0.136-1.888c2.085,0.391,4.152,0.858,6.162,1.555c1.085,0.377,2.153,0.792,3.213,1.226
				C429.358,101.136,428.496,101.759,427.666,102.425z M435.157,114.624c-1.134-0.589-1.193-3.82-0.986-6.963
				c0.347,0.489,0.725,0.959,1.179,1.383c0.798,0.746,1.919,1.584,3.08,1.987C436.77,113.024,435.309,114.703,435.157,114.624z
				 M439.456,109.792c-1.065-0.531-2.195-0.895-3.165-1.689c-0.761-0.623-1.429-1.374-1.98-2.198
				c0.12-1.301,0.261-2.492,0.358-3.348c2.527,1.225,4.998,2.571,7.44,3.979C441.367,107.454,440.416,108.626,439.456,109.792z
				 M446.261,117.176c0.014-0.782,0.048-1.564,0.074-2.346c0.169,0.096,0.337,0.195,0.524,0.264c0.354,0.131,0.728,0.185,1.104,0.2
				C447.404,115.929,446.846,116.565,446.261,117.176z M449.212,113.836c-0.604,0.064-1.192,0.225-1.81,0.075
				c-0.368-0.09-0.723-0.258-1.022-0.493c0.061-1.405,0.138-2.81,0.239-4.215c1.418,0.855,2.834,1.715,4.25,2.572
				C450.335,112.483,449.773,113.159,449.212,113.836z M454.634,122.022c0.273-1.066,0.498-2.167,0.634-3.255
				c0.634,0.495,1.371,0.945,2.132,1.256C456.478,120.689,455.555,121.354,454.634,122.022z M458.881,118.952
				c-0.326-0.055-0.65-0.118-0.961-0.216c-0.948-0.3-1.793-0.787-2.533-1.423c0.039-1.059-0.034-2.083-0.284-3.019
				c1.904,1.114,3.818,2.203,5.763,3.223C460.203,117.995,459.543,118.474,458.881,118.952z M462.194,132.523
				c0.478-1.016,0.909-2.04,1.307-3.071c0.609,0.605,1.271,1.166,2.012,1.57C464.462,131.635,463.358,132.149,462.194,132.523z
				 M469.122,128.227c-0.707,0.722-1.478,1.344-2.276,1.917c-0.086-0.02-0.169-0.036-0.26-0.066
				c-1.044-0.348-1.867-1.092-2.623-1.875c0.424-1.228,0.786-2.47,1.044-3.739c0.641,0.815,1.464,1.462,2.503,1.851
				c0.794,0.297,1.794,0.509,2.77,0.506C469.944,127.304,469.565,127.775,469.122,128.227z M471.199,125.301
				c-0.717,0.061-1.438,0.168-2.171,0.064c-1.576-0.224-3.001-1.052-3.754-2.451c0.142-1.031,0.223-2.078,0.219-3.151
				c0.711,0.322,1.417,0.653,2.138,0.952c1.641,0.68,3.36,1.141,5.095,1.343C472.213,123.145,471.76,124.24,471.199,125.301z
				 M488.511,101.331c-0.246,1.534-0.611,3.042-1.137,4.513c-0.273,0.764-0.641,1.448-0.919,2.141
				c-1.664-0.891-3.34-1.758-5.028-2.601C483.889,104.234,486.021,102.484,488.511,101.331z M475.218,101.357
				c0.477-0.357,0.939-0.732,1.409-1.097c0.229,0.81,0.426,1.629,0.563,2.461c0.035,0.212,0.06,0.423,0.082,0.635
				c-0.957-0.462-1.914-0.926-2.872-1.384C474.665,101.779,474.932,101.57,475.218,101.357z M465.375,96.739
				c0.706-0.485,1.399-0.986,2.09-1.491c0.149,1.186,0.258,2.378,0.384,3.564c-1.061-0.518-2.115-1.051-3.17-1.582
				C464.909,97.07,465.139,96.902,465.375,96.739z M459.343,90.707c0.14,1.243,0.031,2.479,0,3.754
				c-0.459-0.249-0.922-0.49-1.378-0.744c-0.602-0.335-1.189-0.695-1.786-1.039C457.234,92.024,458.281,91.354,459.343,90.707z
				 M447.329,85.212c0.333-0.285,1.217-1.296,1.865-1.815c0.62,1.484,0.291,3.775,0.411,5.171c0.005,0.053,0.011,0.105,0.016,0.158
				c-1.228-0.789-2.441-1.601-3.639-2.436C446.432,85.934,446.89,85.588,447.329,85.212z M457.384,84.288
				c-0.297-1.338-0.619-2.666-0.975-3.986c1.074,0.228,2.147,0.451,3.223,0.66c0.483,0.145,0.972,0.307,1.455,0.455
				C459.852,82.373,458.617,83.33,457.384,84.288z M465.908,87.861c-0.12-1.732-0.357-3.435-0.698-5.154
				c0.175,0.056,0.346,0.106,0.521,0.163c1.304,0.423,2.604,0.866,3.903,1.313C468.441,85.463,467.202,86.687,465.908,87.861z
				 M474.536,94.308c0.219-2.912,0.058-5.754-0.511-8.624c1.974,0.666,3.958,1.3,5.958,1.872
				C478.49,89.736,476.447,92.806,474.536,94.308z M483.85,96.102c0.06-2.515,0.076-5.029,0.039-7.546
				c1.251,0.284,2.508,0.544,3.781,0.741c0.887,0.137,1.815,0.287,2.735,0.372C488.601,92.229,486.47,94.35,483.85,96.102z
				 M494.2,86.073c-0.623,0.468-1.834,0.19-2.545,0.109c-3.044-0.345-6.068-1.216-9.017-2.014
				c-5.576-1.509-11.074-3.275-16.58-5.019c-7.447-2.359-15.077-4.353-22.88-5.049c-4.354-0.385-10.916-0.706-14.83,1.489
				c-0.366,0.205-0.754,0.505-0.768,0.925c-0.011,0.306,0.184,0.576,0.374,0.816c3.45,4.352,8.316,7.381,12.785,10.564
				c4.838,3.446,9.783,6.783,14.869,9.853c9.348,5.643,19.641,10.765,30.446,12.845c-2.159,4.244-7.676,7.243-12.23,7.038
				c-5.787-0.26-11.701-4.504-16.633-7.261c-8.94-4.998-17.575-11.235-27.127-15.011c-9.496-3.755-20.27-2.315-28.359-9.427
				c-6.436-5.659-8.642-14-7.09-21.904c0.105-0.213,0.153-0.445,0.142-0.675c0.572-2.549,1.525-5.045,2.869-7.378
				c0.408-0.708-0.608-1.255-1.071-0.626c-1.581,2.144-2.806,4.465-3.676,6.879c-6.184,0.041-12.472,2.092-18.215,4.184
				c-1.502,0.547-1.866,2.518-0.446,3.414c5.251,3.316,10.332,6.804,15.669,9.964c-5.175,4.106-10.048,8.546-14.674,13.273
				c-1.184,1.21-0.316,3.303,1.376,3.323c6.572,0.075,13.077-0.368,19.531-1.344c-10.325,12.434-7.013,32.983-2.566,47.044
				c3.35,10.594,7.556,20.787,9.895,31.688c2.275,10.605,3.273,21.458,2.918,32.3c-0.265,8.104-1.313,16.065-3.069,23.841
				c-7.351,32.512-27.199,61.247-54.833,80.72c-18.993,13.384-43.669,25.334-67.434,23.162c-0.067-0.006-0.125,0.003-0.189,0.002
				c-0.589-1.744-1.158-3.454-1.637-5.106c-2.658-9.151-5.347-18.292-8.062-27.427c-1.005-3.382-2.087-7.093-3.409-10.764
				c1.44-8.918-4.95-19.818-12.35-23.746c-0.518-0.275-1.113,0.413-0.649,0.84c3.608,3.32,6.516,7.611,8.105,12.258
				c0.013,0.037,0.02,0.074,0.032,0.111c-4.055-6.637-9.826-11.534-18.756-11.448c-0.852,0.008-0.839,1.262,0,1.314
				c11.904,0.739,17.559,12.363,20.473,22.347c2.982,10.217,5.534,20.566,8.352,30.83c1.441,5.25,2.876,10.502,4.328,15.749
				c1.407,5.084,3.759,10.682,2.725,16.034c-0.961,4.977-4.319,9.256-7.255,13.234c-3.178,4.305-6.388,8.586-9.574,12.885
				c-6.372,8.596-12.743,17.193-19.115,25.789c-4.481,6.046-10.681,13.469-8.234,21.591c2.066,6.858,9.304,10.077,15.963,10.206
				c5.958,0.115,28.043-7.206,24.249,6.017c-0.011,0.037-0.013,0.071-0.021,0.108c-0.787,0.297-1.508,0.756-2.133,1.391
				c-1.21-1.587-2.798-2.91-4.577-3.687c-1.534-0.67-3.069,1.037-1.842,2.388c1.27,1.399,3.266,3.431,3.72,5.3
				c0.344,1.414-1.018,4.419-2.536,5.233c-0.805,0.432-2.781,0.152-3.837,0.108c-4.893-0.202-9.865-1.095-14.728-1.665
				c-9.852-1.157-19.717-2.235-29.558-3.486c-2.507-0.319-5.196-0.162-6.223-2.712c-0.936-2.322,0.555-4.226,1.456-6.427
				c1.632-3.99,2.704-8.136,3.275-12.408c1.111-8.297-0.126-16.129-2.598-24.054c-2.782-8.916-5.824-18.782,1.605-26.288
				c4.304-4.348,10.481-8.809,8.206-15.874c-0.928-2.882-3.2-4.948-5.317-6.991c-3.389-3.271-6.722-6.596-9.961-10.017
				c-6.039-6.378-11.802-13.032-17.266-19.91c-6.903-8.69-15.163-18.507-15.156-30.195c0.006-10.239,3.465-18.902,6.397-28.569
				c0.382-1.26-1.391-1.928-2.068-0.872c-2.014,3.145-3.731,6.578-5.09,10.167c0.473-3.038,1.001-6.075,1.655-9.059
				c0.16-0.73-0.899-1.272-1.267-0.534c-2.718,5.445-5.265,12.789-4.89,19.472c-40.791-3.953-83.444,10.897-106.855,45.819
				c-0.116,0.04-0.171,0.132-0.158,0.232c-0.153,0.23-0.314,0.45-0.466,0.681c-20.999,32.106-19.528,76.915,8.178,104.879
				c16.708,16.864,41.458,22.764,64.003,28.221c2.932,1.178,6.032,2.045,9.018,3.084c8.382,2.918,16.893,5.782,24.51,10.431
				c-21.052-3.886-42.206-7.165-63.346-10.572c-13.078-2.108-23.937-6.557-34.24-15.037c-11.334-9.328-20.067-21.516-26.752-34.499
				c-7.481-14.53-9.501-30.141-8.66-46.346c0.79-15.21,4.336-29.18,9.078-43.437c3.303-8.318,6.944-16.474,11.581-24.235
				c7.636-12.78,17.303-24.345,28.545-34.108c11.889-10.324,25.676-18.559,40.357-24.243c28.781-11.143,59.421-11.563,89.789-9.24
				c18.973,1.452,38.025,5.102,57.025,5.769c0.339,0.435,0.685,0.864,1.047,1.283c6.87,9.683,15.373,17.257,27.233,20.077
				c1.253,0.298,2.514,0.53,3.776,0.719c8.976,9.873,25.995,4.16,34.876-2.855c0.662-0.523-0.065-1.527-0.781-1.342
				c-5.66,1.465-10.891,4.275-16.648,5.332c-4.1,0.753-7.951,0.498-11.657-0.656c8.509,0.145,16.906-2.186,24.129-7.037
				c2.24-1.505,0.224-5.074-2.136-3.655c-11.565,6.952-26.509,7.701-38.631,1.621c-9.974-5.002-15.56-14.312-21.62-23.195
				c-3.467-8.346-5.054-17.231-6.173-26.66c-1.67-14.068-4.027-27.019-10.38-39.813c-3.205-6.456-6.748-12.758-8.95-19.656
				c-2.398-7.511-3.326-15.381-3.257-23.249c0.128-14.824,3.535-29.349,6.655-43.762c0.919-4.246,3.835-11.029,1.988-15.283
				c-2.258-5.202-10.718-8.421-15.565-10.585c-12.771-5.701-26.58-9.308-40.059-12.907c-28.018-7.48-56.681-12.417-85.589-14.725
				c-5.46-0.436-10.928-0.772-16.4-1.026c37.066-0.449,74.141,3.082,110.684,10.781c15.696,3.307,31.393,7.129,46.422,12.795
				c6.407,2.415,16.839,5.309,20.311,12c1.907,3.674,1.534,8.261,1.502,12.271c-0.033,4.278-0.101,8.556-0.155,12.833
				c-0.371,29.806-0.174,60.896,12.14,88.639c5.642,12.711,14.041,24.534,25.097,33.089c11.108,8.596,38.989,15.679,34.257,34.446
				c-0.409,1.622,1.889,2.192,2.463,0.679c2.195-5.792,1.162-11.049-1.569-15.606c3.988,3.748,5.422,9.114,6.362,14.62
				c0.085,0.499,0.929,0.631,1.134,0.148c3.214-7.591-2.623-15.643-9.505-18.603c-0.292-0.126-0.571-0.104-0.807-0.004
				c-0.423-0.486-0.866-0.96-1.32-1.424c0.887-0.392,1.774-0.893,2.695-1.364c3.975-2.032,7.636-4.669,10.911-7.695
				c5.795-5.354,11.458-12.33,14.018-19.958c8.185-12.781,9.789-28.188,4.545-43.174c-6.668-19.056-21.652-36.804-15.993-58.06
				c1.405-5.278,3.281-10.388,4.301-15.767c1.124-5.93,2.076-11.648,5.142-16.959c2.678-4.639,6.305-8.622,10.042-12.424
				c4.116-4.188,8.377-8.879,13.771-11.389c10.621-4.942,23.825-1.5,34.874,0.001c5.109,0.694,10.428,0.837,15.431,2.108
				c6.43,1.633,9.267,5.406,12.737,10.633c2.15,3.24,4.619,5.411,7.319,7.041c-2.172,2.145-3.458,5.497-1.056,7.663
				c0.276,0.249,0.795,0.177,0.881-0.233c0.3-1.431,0.26-2.916,0.841-4.281c0.332-0.782,0.818-1.452,1.412-2.01
				c1.138,0.559,2.315,1.046,3.52,1.498c-1.14,1.109-2.01,2.453-2.614,4.068c-0.638,1.707-1.513,5.044,1.023,5.582
				c0.371,0.079,0.785-0.171,0.77-0.586c-0.114-3.149,1.037-5.951,3.008-8.285c0.936,0.317,1.891,0.625,2.856,0.936
				c-1.159,1.6-2.066,3.38-2.622,5.282c-0.304,1.04-1.298,3.992,0.287,4.549c1.532,0.538,1.808-1.699,2.035-2.641
				c0.546-2.273,1.388-4.414,2.462-6.487c1.638,0.54,3.31,1.119,5.007,1.805c4.501,1.818,8.165,5.239,10.46,9.499
				c1.189,2.206,2.009,4.606,2.469,7.068C494.552,80.48,495.613,85.011,494.2,86.073z M387.261,74.272
				c-1.33-0.76-2.645-1.55-3.935-2.373c-0.247-1.355-0.502-2.739-0.21-4.006c1.343-0.355,2.687-0.709,4.025-1.078
				c-0.391,1.208-0.537,2.559-0.609,3.661C386.445,71.797,386.573,73.209,387.261,74.272z M381.882,70.946
				c-0.944-0.634-1.878-1.283-2.782-1.966c0.927-0.261,1.859-0.506,2.791-0.755C381.706,69.112,381.719,70.034,381.882,70.946z
				 M385.286,92.344c-1.311,0.075-2.623,0.132-3.94,0.156c1.019-0.977,2.057-1.932,3.098-2.884
				C384.617,90.572,384.882,91.522,385.286,92.344z M497.581,69.796c-0.395,0.728-0.811,1.45-1.262,2.164
				c-0.617-1.659-1.322-3.147-2.017-4.308c-3.328-5.561-8.213-8.278-13.654-10.291c1.105-0.61,2.178-1.292,3.227-2.019
				c3.597,0.773,6.678,2.752,9.608,4.964c1.719,1.298,3.27,2.595,3.862,4.771C497.772,66.643,497.656,68.215,497.581,69.796z
				 M499.065,66.734c-0.326-2.522-1.503-4.844-3.648-6.528c-3.126-2.454-6.668-5.003-10.645-5.505
				c1.466-1.078,2.866-2.268,4.194-3.547c6.209-0.237,9.537,5.589,11.736,11.079C500.238,63.765,499.703,65.267,499.065,66.734z
				 M502.699,51.665c-0.273,2.885-0.715,5.633-1.366,8.277c-0.897-2.273-2.267-4.399-3.792-6.139
				c-1.704-1.943-4.275-3.936-6.936-4.313c1.062-1.138,2.053-2.348,2.998-3.596c1.994,0.071,3.97,0.306,5.744,1.288
				c1.122,0.621,2.527,1.431,3.516,2.469C502.811,50.323,502.762,50.996,502.699,51.665z M502.977,48.025
				c-0.409-0.306-0.824-0.593-1.208-0.861c-2.607-1.82-4.855-2.172-7.514-2.121c1.368-1.897,2.583-3.906,3.643-5.984
				c1.376-0.249,2.555-0.118,3.863,0.98c0.438,0.367,0.893,0.801,1.314,1.277C503.164,43.548,503.111,45.791,502.977,48.025z"/>
		</g>
	</g>
</g>
<g>
</g>
<g>
</g>
<g>
</g>
<g>
</g>
<g>
</g>
<g>
</g>
<g>
</g>
<g>
</g>
<g>
</g>
<g>
</g>
<g>
</g>
<g>
</g>
<g>
</g>
<g>
</g>
<g>
</g>
</svg>
