<?xml version="1.0" encoding="iso-8859-1"?>
<!-- Generator: Adobe Illustrator 19.0.0, SVG Export Plug-In . SVG Version: 6.00 Build 0)  -->
<svg version="1.1" id="Capa_1" xmlns="http://www.w3.org/2000/svg" xmlns:xlink="http://www.w3.org/1999/xlink" x="0px" y="0px"
	 viewBox="0 0 511.999 511.999" style="enable-background:new 0 0 511.999 511.999;" xml:space="preserve">
<g>
	<g>
		<g>
			<path d="M410.648,98.448c-1.535,2.537-1.562,5.672-1.122,8.73c0.444,3.081,1.954,6.714,5.604,6.487
				c0.342-0.021,0.632-0.492,0.312-0.753c-2.519-2.056-3.568-4.367-3.92-7.587c-0.284-2.598,0.17-4.567,0.92-6.771
				c0.023,0.002,0.047,0.002,0.07,0.004c-1.025,2.916,0.7,7.502,2.236,9.434c3.114,3.919,8.175,4.985,12.736,3.571
				c-0.384,0.577-0.861,1.11-1.409,1.616c-0.77,0.71-3.104,2.981-4.297,2.266c-0.442-0.265-1.077,0.072-1.054,0.605
				c0.05,1.152,0.665,1.978,1.863,2.072c1.523,0.119,2.867-0.971,3.965-1.897c1.34-1.129,2.428-2.606,3.05-4.245
				c0.922,1.055,1.949,2.042,3.185,2.913c1.661,1.171,3.257-1.295,2.06-2.669c-4.309-4.945-6.547-11.906-12.477-15.327
				c-4.439-2.561-9.807-2.607-14.754-1.549c-1.402-0.03-3.269-0.123-3.742-1.034c-0.624-1.201,0.712-3.624,1.726-4.343
				c0.796-0.564,1.707-0.951,2.633-1.241c3.112-0.975,6.273-0.397,9.447-0.296c0.627,0.02,0.787-0.816,0.306-1.128
				c-5.084-3.297-13.669-2.914-17.027,2.795c-1.222,2.078-0.782,5.03,0.788,6.817C404.071,99.565,407.542,98.341,410.648,98.448z
				 M421.47,101.724c-0.25,0.288-0.496,0.581-0.747,0.864c-0.474,0.535-0.527,1.344,0,1.871c0.495,0.494,1.38,0.522,1.871,0
				c0.272-0.29,0.555-0.576,0.833-0.866c0.2,0.231,0.402,0.458,0.594,0.71c0.866,1.137,1.641,2.287,2.409,3.42
				c-3.336,1.223-7.33,0.09-9.264-2.961c-0.843-1.329-1.192-2.885-1.362-4.434c-0.046-0.42-0.042-0.839-0.039-1.254
				C417.816,99.558,419.742,100.381,421.47,101.724z"/>
			<path d="M462.791,131.306c-0.025,0.137-0.039,0.275-0.042,0.415c-0.04,0.703,0.823,1.006,1.325,0.626
				c0.057-0.008,0.134-0.021,0.253-0.043c0.108-0.045,0.218-0.079,0.332-0.103c-0.095,0.02-0.046,0.02,0.145,0.001
				c-0.236-0.059-0.109-0.046,0.379,0.04c0.39,0.03,0.248-0.022,0.491,0.064c-0.187-0.066,0.145,0.083,0.327,0.179
				c-0.006,0.041,0.211,0.316,0.239,0.375c-0.007-0.014,0.036,0.232,0.044,0.357c0.046,0.706-0.136,1.049-0.2,1.895
				c-0.12,1.6,2.19,2.562,3.241,1.342c1.891-2.195,1.167-6.031-1.415-7.392c-1.086-0.573-2.705-0.656-3.763,0.037
				c-0.465,0.304-0.883,0.71-1.162,1.193c-0.144,0.249-0.243,0.504-0.254,0.797C462.751,131.461,462.771,131.534,462.791,131.306z"
				/>
			<path d="M501.01,347.32c-8.808-21.054-24.1-40.715-42.682-55.283c-7.498-8.846-18.654-14.504-29.054-19.185
				c-11.314-5.093-23.161-8.895-35.224-11.759c-26.576-6.309-53.909-7.958-81.038-10.27c-15.171-1.293-30.348-2.784-45.345-5.474
				c-13.972-2.506-29.038-5.398-41.387-12.737c-14.155-8.411-20.804-21.987-17.184-38.246c2.688-12.074,8.17-23.559,15.741-33.332
				c18.716-24.161,48.23-34.44,78.107-32.269c0.321,0.526,0.64,1.046,0.955,1.552c4.168,6.687,7.041,14.464,12.13,20.529
				c5.375,6.405,13.384,8.769,20.152,13.261c3.259,2.163,5.952,5.074,9.295,7.113c3.614,2.204,7.733,3.574,11.719,4.918
				c9.313,3.139,17.441,7.964,25.773,13.071c7.894,4.839,16.152,9.189,25.234,11.309c3.887,0.907,7.941,1.461,11.937,1.222
				c4.669-0.278,9.172-1.852,13.858-1.875c5.479-0.028,16.891,2.721,17.295-6.435c0.206-4.663-4.016-6.449-7.889-5.928
				c-0.174-0.077-0.37-0.124-0.587-0.13c-4.096-0.105-8.148-0.557-12.061-1.47c1.316-5.395,1.817-10.809,1.791-16.403
				c-0.008-1.729-2.066-2.455-3.284-1.36c-3.211,2.888-6.421,5.776-9.631,8.664c0.762-3.532,1.493-7.085,1.922-10.629
				c0.31-2.558,0.421-4.46-1.5-6.354c-0.714-0.704-1.894-0.704-2.61,0c-2.784,2.737-5.698,5.306-8.782,7.67
				c0.872-4.182,1.08-8.409,0.732-12.808c-0.107-1.35-1.951-2.532-3.001-1.243c-2.556,3.137-5.366,5.794-8.565,8.075
				c0.636-3.534,0.879-7.092,0.73-10.749c-0.061-1.496-1.518-2.215-2.808-1.611c-2.786,1.305-5.5,2.71-8.172,4.204
				c0.819-2.448,1.641-4.895,2.452-7.346c0.417-1.261-0.938-2.644-2.209-2.209c-4.202,1.44-8.51,2.559-12.705,3.999
				c-1.808-1.029-3.6-2.086-5.278-3.322c-5.508-4.054-9.478-9.643-14.144-14.555c4.087,0.621,8.193,1.05,12.316,1.321
				c6.006,3.846,13.191,5.173,20.135,6.723c4.997,1.116,9.735,2.495,14.215,5.053c4.227,2.414,8.046,5.363,12.571,7.249
				c4.654,1.94,9.369,3.244,13.516,6.246c4.182,3.027,7.555,6.979,11.503,10.28c7.633,6.383,15.436,11.066,21.291,19.379
				c5.16,7.327,8.925,15.527,12.994,23.479c1.702,3.326,6.481,16.927,12.168,14.248c6.466-3.046-0.729-15.554-1.284-19.716
				c-0.501-3.754,0.446-3.665,3.308-4.365c1.995-0.489,4.023-0.873,5.98-1.508c3.268-1.061,6.069-2.589,8.372-5.165
				c0.967-1.082,0.813-2.699-0.449-3.486c-4.362-2.722-8.701-1.375-13.523-1.8c-7.156-0.631-12.404-6.768-17.242-11.437
				c-8.473-8.176-17.388-16.073-26.829-23.119c-13.861-10.346-30.537-18.939-47.834-23.062c3.297-0.328,6.597-0.649,9.919-0.87
				c5.305-0.352,10.534-0.118,15.535,1.841c1.246,0.488,2.46,1.058,3.666,1.645c1.742,3.026,3.08,6.386,4.332,9.555
				c0.449,1.136,2.015,1.538,2.709,0.354c1.272-2.168,2.755-3.98,4.514-5.633c0.152,0.02,0.303,0.04,0.455,0.057
				c1.955,3.326,1.34,8.035,4.455,11.048c0.752,0.727,2.244,0.896,2.97,0c2.037-2.514,4.034-5.069,5.897-7.717
				c0.586,4.395-0.09,9.008,1.359,13.331c0.448,1.336,2.358,2.152,3.412,0.901c2.219-2.635,4.512-5.208,6.821-7.768
				c-0.183,4.002-0.359,8.001-0.441,12.01c-0.03,1.496,1.808,2.676,3.113,1.786c3.681-2.509,8.304-5.248,11.732-8.612
				c1.234,0.627,2.55,0.883,3.929,0.232c4.719-2.228,5.209-12.845,4.392-17.119c-1.575-8.239-9.137-13.021-15.188-17.987
				c-3.848-3.157-7.662-6.35-11.453-9.576c-4.377-3.726-7.232-7.312-10.361-12.132c-7.321-11.276-18.781-22.693-32.23-24.538
				c-0.027-0.104-0.047-0.207-0.09-0.316c-4.808-12.102-10.419-23.791-17.139-34.953c-2.946-4.893-6.162-9.601-9.513-14.221
				c-0.018-0.267-0.185-0.534-0.57-0.787c-0.224-0.306-0.442-0.617-0.667-0.922c-2.088-2.837-4.18-5.672-6.28-8.501
				c-2.258-3.041-5.378-6.177-6.713-9.713c-1.024-2.711-4.848-1.669-4.336,1.196c2.106,11.78,5.675,23.472,8.789,35.022
				c1.517,5.625,2.918,11.312,4.719,16.854c0.113,0.347,0.226,0.685,0.341,1.014c-2.674-0.822-5.364-1.031-7.631,0.054
				c-3.886-3.645-7.919-7.083-11.526-10.448c-5.802-5.414-11.611-10.82-17.438-16.208c-5.997-5.546-11.884-11.834-18.713-16.35
				c-1.814-1.2-3.814,1.115-2.857,2.857c3.899,7.091,6.193,15.445,9.201,22.964c0.954,2.384,1.923,4.763,2.893,7.141
				c-2.398-1.786-5.25-3.16-8.228-4.256c-1.335-3.465-4.493-6.389-6.946-9.032c-3.831-4.129-7.915-8.034-12.249-11.634
				c-3.759-3.123-7.684-6.066-11.768-8.751c-3.559-2.339-6.781-4.913-11.16-4.202c-1.398,0.227-1.896,2.048-1.276,3.136
				c4.899,8.593,8.645,17.633,11.287,27.134c-1.646,0.229-3.289,0.502-4.926,0.855c-2.997,0.645-5.94,1.65-9.053,1.556
				c-0.888-0.027-1.761-0.148-2.626-0.313c-8.459-12.954-20.742-25.378-34.973-31.727c-1.822-0.813-4.286,0.969-2.989,2.989
				c5.023,7.818,8.597,16.481,12.002,25.105c-5.548,0.18-11.019,1.012-16.346,2.566c-2.398,0.341-4.794,0.908-7.167,1.632
				c-8.407,0.289-16.64-1.844-24.967-4.249c-12.113-3.497-24.218-7.026-36.268-10.737c-24.175-7.445-47.391-16.603-70.969-25.66
				c-2.109-0.81-3.728,1.879-2.774,3.608c5.721,10.374,9.915,21.35,7.521,33.415c-1.915,9.652-7.231,18.019-13.685,25.282
				c-6.43,7.236-13.907,13.558-22.006,18.848c-8.263,5.398-17.208,8.601-25.872,13.102c-1.889,0.981-1.429,3.958,0.535,4.524
				c0.075,0.249,0.275,0.444,0.62,0.419c0.208-0.015,0.415-0.041,0.622-0.058c13.779,4.192,24.596,19.108,14.165,32.154
				c-8.261,10.332-19.034,19.235-28.409,28.559c-1.54,1.532-0.679,3.874,1.202,4.552c10.721,3.864,23.288,8.51,29.749,18.559
				c9.436,14.676-1.172,29.91-7.419,43.293c-0.362,0.775-0.698,1.751-0.169,2.423c0.37,0.469,1.021,0.585,1.613,0.668
				c11.151,1.562,24.664,2.829,32.32,12.278c5.103,6.299,5.715,14.699,6.037,22.472c0.063,1.533,1.69,3.286,3.381,2.576
				c9.766-4.103,18.407,2.189,25.821,8.04c6.527,5.151,12.882,11.378,20.08,15.555c0.345,0.2,0.687,0.281,1.011,0.279
				c11.45,9.773,24.257,18.392,37.116,25.831c16.385,9.479,33.916,16.253,52.575,19.592c38.292,6.852,77.186,0.844,115.695,4.697
				c17.767,1.777,37.021,5.019,52.566,14.341c15.954,9.568,24.134,27.059,14.916,44.56c-9.419,17.882-30.789,24.825-49.8,25.361
				c-21.183,0.597-41.674-5.758-61.665-12c-21.518-6.719-43.131-13.205-65.905-12.812c-18.622,0.322-37.464,3.788-55.052,10.109
				c-17.34,4.958-34.617,10.132-51.929,15.189c-22.111,6.459-47.735,12.354-67.082-4.081
				c-17.541-14.901-22.891-38.379-21.226-60.493c1.759-23.369,12.799-45.934,10.618-69.599
				c-0.998-10.821-4.833-21.024-12.471-28.908c-7.774-8.024-18.233-13.456-28.387-17.829c-2.105-0.907-5.077,1.125-3.501,3.502
				c9.789,14.767,17.204,31.282,17.957,49.236c0.689,16.44-4.944,32.072-11.107,47.049c-6.11,14.85-12.969,29.664-15.374,45.68
				c-2.052,13.663-0.192,27.42,5.098,40.167c11.012,26.533,33.871,46.233,60.618,55.893c32.189,11.626,67.556,9.366,100.444,2.127
				c20.74-4.565,41.189-10.631,62.485-12.011c13.443-0.871,27.342-0.164,40.575,2.427c12.727,2.491,24.983,6.865,37.049,11.533
				c12.845,4.97,25.569,10.325,38.775,14.292c30.403,9.131,65.925,11.629,95.14-2.682c26.338-12.902,46.467-37.723,58.045-64.26
				C513.483,408.536,513.227,376.522,501.01,347.32z M504.871,383.865c-3.981,1.258-7.835,2.775-12,3.535
				c-4.467,0.815-8.94,0.893-13.404,0.338c-0.763-3.809-1.79-7.524-3.05-11.041c8.876,1.538,18.842,0.385,27.161-3.17
				C504.17,376.955,504.599,380.405,504.871,383.865z M503.291,371.933c-4.227,1.622-8.455,2.953-13.045,3.574
				c-4.74,0.641-9.469,0.578-14.206,0.191c-1.592-4.272-3.509-8.419-5.704-12.429c4.552,1.498,9.584,1.592,14.249,0.706
				c4.89-0.929,11.368-3.237,14.81-7.235C501.043,361.728,502.332,366.807,503.291,371.933z M498.927,355.338
				c-2.192,1.369-4.078,3.141-6.41,4.355c-2.494,1.299-5.161,2.237-7.91,2.819c-5.046,1.067-9.957,0.716-14.888-0.362
				c-1.763-3.126-3.683-6.172-5.752-9.121c6.127,1.518,12.459,0.883,18.496-1.181c4.361-1.491,9.028-3.604,12.295-7.002
				C496.315,348.289,497.706,351.791,498.927,355.338z M492.709,340.53c0.481,0.962,0.947,1.93,1.402,2.902
				c-3.425,3.673-8.135,5.907-12.928,7.463c-5.797,1.881-12.027,2.589-17.954,1.085c-2.456-3.421-5.099-6.715-7.89-9.872
				c6.04,0.788,12.743-0.996,17.933-3.601c3.881-1.948,10.35-6.265,11.735-11.285C487.826,331.499,490.409,335.935,492.709,340.53z
				 M483.701,325.288c-1.031,2.628-1.923,4.897-4.189,7.083c-2.356,2.273-5.215,4.076-8.176,5.456
				c-5.586,2.603-11.153,2.982-17.06,3.094c-2.45-2.704-5-5.31-7.637-7.799c6.34-0.089,12.428-2.828,17.567-6.573
				c4.11-2.995,9.202-7.319,10.95-12.525C478.191,317.636,481.04,321.397,483.701,325.288z M466.899,304.961
				c2.384,2.407,4.677,4.899,6.891,7.458c-1.81,5.722-6.051,9.857-11.074,13.403c-5.325,3.759-11.001,5.765-17.288,6.183
				c-1.528-1.41-3.075-2.791-4.649-4.125c-1.036-0.878-2.084-1.739-3.142-2.585c6.052-0.96,11.531-4.337,16.395-8.059
				c4.876-3.731,9.276-8.889,9.879-15.172C464.919,303.014,465.92,303.972,466.899,304.961z M462.652,300.887
				c-0.709,7.088-5.186,12.295-10.792,16.336c-4.458,3.214-9.605,6.428-15.137,7.358c-2.764-2.176-5.594-4.256-8.496-6.225
				c5.553-1.699,10.725-6.144,14.472-9.954c4.383-4.456,8.068-10.226,9.362-16.456C455.699,294.783,459.24,297.744,462.652,300.887z
				 M438.091,282.813c3.217,1.797,6.336,3.759,9.465,5.7c1.014,0.755,2.022,1.519,3.025,2.288
				c-1.298,6.309-4.25,11.824-8.893,16.591c-3.996,4.103-9.139,8.341-14.84,10.049c-3.664-2.426-7.424-4.698-11.281-6.795
				c5.506-2.609,9.7-7.563,13.291-12.415c3.52-4.757,6.484-10.973,6.118-17.067C436.016,281.71,437.065,282.24,438.091,282.813z
				 M413.643,271.966c0.639,0.223,1.284,0.43,1.921,0.66c6.044,2.184,11.963,4.717,17.692,7.627
				c0.51,6.358-1.643,12.026-5.539,17.311c-3.343,4.535-7.706,9.995-12.974,12.627c-3.343-1.79-6.75-3.463-10.224-4.998
				c4.612-2.797,7.399-9.589,8.738-14.202C414.898,285.335,415.541,277.973,413.643,271.966z M411.609,271.268
				c0.632,2.403,1.3,4.749,1.502,7.306c0.265,3.346,0.061,6.705-0.644,9.989c-0.703,3.277-1.891,6.45-3.534,9.372
				c-1.301,2.314-3.096,5.201-5.516,6.767c-3.143-1.359-6.336-2.614-9.575-3.761c3.588-5.942,4.876-12.763,3.895-19.737
				c-0.662-4.712-1.415-10.847-4.276-15.122C399.583,267.55,405.642,269.266,411.609,271.268z M391.885,265.702
				c2.988,4.817,3.916,11.162,4.524,16.583c0.721,6.437-0.708,12.708-4.073,18.141c-0.628-0.215-1.254-0.436-1.886-0.643
				c-4.149-1.361-8.32-2.476-12.51-3.398c6.256-10.112,5.579-24.478-1.739-33.853C381.456,263.443,386.69,264.492,391.885,265.702z
				 M369.214,261.387c1.888,0.287,3.776,0.592,5.661,0.911c3.227,4.933,5.523,10.315,5.859,16.32
				c0.355,6.334-1.473,11.994-4.455,17.412c-4.209-0.873-8.436-1.556-12.683-2.07c5.984-10.736,3.723-24.726-4.069-33.906
				C362.76,260.461,365.99,260.896,369.214,261.387z M358.48,259.918c3.292,4.106,5.671,8.903,6.634,14.12
				c1.289,6.984-0.239,13.407-3.066,19.735c-3.753-0.419-7.52-0.728-11.301-0.919c2.767-6.033,2.927-13.63,1.497-19.801
				c-0.902-3.896-2.102-8.51-4.49-11.796c-0.759-1.044-1.691-1.992-2.721-2.838C349.522,258.868,354.004,259.363,358.48,259.918z
				 M342.769,258.195c1.653,1.264,3.229,2.595,4.365,4.444c1.991,3.241,3.098,7.594,3.869,11.288
				c0.812,3.892,0.865,7.909,0.153,11.822c-0.451,2.476-1.309,4.746-2.237,7.017c-4.55-0.19-9.119-0.238-13.707-0.179
				c2.983-6.207,2.084-14.192,0.064-20.456c-1.293-4.009-3.113-7.885-5.129-11.578c-0.712-1.304-1.487-2.599-2.436-3.71
				C332.733,257.269,337.753,257.709,342.769,258.195z M326.139,256.709c3.932,4.413,6.26,10.992,7.879,16.294
				c2.089,6.84,1.915,13.162-0.669,19.613c-2.459,0.047-4.923,0.118-7.393,0.217c-2.171,0.087-4.341,0.182-6.512,0.279
				c3.048-5.661,3.361-12.595,1.92-18.833c-1.521-6.585-4.733-14.037-9.909-18.815C316.349,255.891,321.245,256.296,326.139,256.709
				z M310.043,255.339c4.814,4.964,8.04,11.824,9.719,18.391c1.727,6.755,1.185,13.569-2.2,19.467
				c-5.441,0.247-10.883,0.499-16.326,0.669c4.319-5.578,5.605-13.952,4.377-20.584c-0.825-4.455-2.649-8.782-4.57-12.871
				c-1.093-2.327-2.358-4.497-4.049-6.305C301.339,254.556,305.69,254.955,310.043,255.339z M295.562,253.956
				c1.895,2.043,3.271,4.513,4.437,7.066c1.764,3.862,3.408,7.947,4.206,12.13c0.749,3.927,0.573,7.977-0.496,11.83
				c-0.947,3.411-2.662,6.089-4.514,8.942c-3.783,0.102-7.566,0.164-11.351,0.142c-1.858-0.01-3.699-0.068-5.528-0.158
				c9.527-11.312,7.645-29.452-0.13-41.535C286.637,252.968,291.097,253.483,295.562,253.956z M274.698,251.305
				c1.99,0.307,3.983,0.596,5.977,0.87c3.268,6.6,6.275,13.029,6.619,20.652c0.35,7.749-2.027,14.934-6.82,20.973
				c-5.41-0.34-10.723-0.982-16.027-1.792c-1.002-0.221-2.005-0.431-3.008-0.646c1.3-1.269,2.429-2.766,3.151-3.737
				c2.742-3.689,4.535-8.048,5.463-12.537c1.117-5.398,1.091-10.978,0.528-16.441c-0.293-2.84-0.627-5.73-1.77-8.273
				C270.823,250.701,272.801,251.013,274.698,251.305z M267.636,250.186c1.446,3.032,1.548,6.847,1.783,10.041
				c0.342,4.659,0.301,9.378-0.616,13.974c-1.237,6.199-4.281,12.788-9.433,16.718c-5.54-1.172-11.087-2.32-16.575-3.759
				c-1.591-0.417-3.174-0.869-4.753-1.34c1.425-0.583,2.809-1.333,4.138-2.131c4.066-2.441,7.715-5.592,10.605-9.36
				c5.531-7.211,8.045-16.938,5.681-25.775C261.586,249.164,264.655,249.696,267.636,250.186z M256.836,248.236
				c2.164,8.254,0.666,16.84-4.257,23.984c-2.47,3.584-5.667,6.678-9.25,9.14c-2.074,1.425-4.545,3-7.132,3.9
				c-5.612-1.755-11.132-3.844-16.499-6.256c7.483-0.715,14.175-4.933,18.85-10.969c4.313-5.568,8.773-14.785,7.421-22.348
				C249.584,246.671,253.233,247.505,256.836,248.236z M244.212,245.196c0.396,4.032,0.054,7.724-1.34,11.725
				c-1.347,3.868-3.306,7.589-5.872,10.792c-4.687,5.851-11.479,9.767-18.902,10.569c-2.494-1.158-4.956-2.381-7.374-3.679
				c-2.593-1.391-5.102-2.905-7.537-4.515c7.043-0.715,13.949-4.346,18.815-9.286c4.964-5.038,9.066-12.824,9.24-20.236
				C235.388,242.405,239.763,243.917,244.212,245.196z M229.781,239.886c-0.396,3.314-0.819,6.518-2.09,9.726
				c-1.562,3.943-3.918,7.578-6.926,10.57c-5.309,5.28-11.895,7.829-19.044,8.921c-4.258-2.928-8.262-6.177-11.972-9.719
				c6.906,0.232,13.991-2.599,19.636-6.301c6.103-4.003,11.288-9.991,13.077-17.162
				C224.778,237.389,227.238,238.694,229.781,239.886z M221.105,235.038c-3.813,13.79-18.393,23.438-32.594,23.125
				c-2.866-2.839-5.569-5.835-8.048-9.015c2.639-0.143,5.419-1.228,7.613-2.234c4.059-1.861,7.891-4.428,11.459-7.096
				c4.16-3.111,9.842-7.773,12.131-13.15C214.373,229.882,217.567,232.646,221.105,235.038z M210.628,225.377
				c-2.856,5.731-7.74,10.24-12.935,13.966c-2.755,1.976-5.637,3.868-8.649,5.43c-1.911,0.991-3.905,1.847-6,2.361
				c-1.242,0.305-2.49,0.363-3.737,0.467c-4.411-5.905-8.153-12.331-11.086-19.205c7.043,2.128,14.443,1.782,21.726,0.44
				c6.109-1.126,13.343-3.408,17.335-8.558C208.266,222.093,209.395,223.782,210.628,225.377z M204.246,192.449
				c-0.35,1.598-0.634,3.207-0.847,4.819c-6.503,3.739-14.186,4.82-21.618,4.537c-4.274-0.163-8.631-0.604-12.822-1.472
				c-3.282-0.679-5.718-1.958-8.324-3.765c-0.366-5.18-0.352-10.386,0.034-15.572C172.863,190.913,188.654,195.188,204.246,192.449z
				 M160.756,179.914c0.395-4.671,1.079-9.324,2.055-13.924c1.499,2.013,3.625,3.756,5.339,5.106
				c3.925,3.092,8.383,5.601,12.874,7.768c4.534,2.187,9.318,3.962,14.293,4.82c3.457,0.596,7.649,1.08,11.325,0.337
				c-0.786,2.271-1.483,4.605-2.058,6.969C189.347,193.885,172.778,189.803,160.756,179.914z M167.702,201.702
				c4.224,0.973,8.676,1.424,12.998,1.654c7.873,0.419,15.697-0.589,22.511-4.457c-0.419,4.211-0.284,8.419,0.635,12.465
				c-6.307,3.91-13.362,5.471-20.865,5.344c-4.083-0.069-8.206-0.51-12.218-1.265c-2.737-0.515-5.516-1.31-7.731-2.972
				c-1.044-4.488-1.781-9.03-2.206-13.599C162.821,200.346,165.435,201.179,167.702,201.702z M182.465,218.029
				c7.494,0.265,15.401-0.987,21.766-5.109c0.177,0.629,0.373,1.253,0.592,1.872c0.472,1.336,1.025,2.605,1.618,3.838
				c-4.643,5.361-10.743,7.698-17.833,8.943c-6.861,1.205-14.083,1.464-20.867-0.312c-0.488-1.187-0.962-2.382-1.402-3.594
				c-1.161-3.194-2.138-6.434-2.952-9.704C168.66,217.525,176.544,217.82,182.465,218.029z M209.396,176.964
				c-0.765,1.764-1.5,3.6-2.189,5.479c-1.579,0.121-3.159,0.338-4.746,0.347c-2.59,0.014-5.178-0.269-7.717-0.773
				c-4.661-0.926-9.134-2.613-13.391-4.702c-3.78-1.854-7.519-3.945-10.931-6.42c-1.843-1.337-3.611-2.819-5.133-4.518
				c-0.719-0.802-1.336-1.701-1.981-2.573c0.908-3.903,2-7.768,3.308-11.567c0.864-2.509,1.819-5.012,2.86-7.485
				c0.908,3.206,2.658,6.333,4.344,9.003c2.637,4.176,6.001,7.901,9.875,10.963c7.12,5.628,17.495,10.083,26.914,9.607
				C210.194,175.199,209.781,176.075,209.396,176.964z M211.428,172.658c-4.563-0.363-8.937-0.622-13.393-2.049
				c-5.05-1.618-9.821-4.157-13.939-7.503c-3.522-2.861-6.555-6.281-9.04-10.074c-2.051-3.129-3.313-6.561-4.904-9.876
				c2.157-4.89,4.715-9.621,7.822-13.94c0.808,8.987,7.382,17.582,13.945,23.064c4.087,3.414,8.673,6.274,13.481,8.558
				c3.163,1.503,7.089,3.149,10.861,3.365C214.492,166.931,212.885,169.759,211.428,172.658z M217.36,162.534
				c-1.825-0.149-3.633-0.32-5.448-0.833c-2.444-0.69-4.783-1.702-7.049-2.84c-4.481-2.252-8.781-4.961-12.585-8.238
				c-3.68-3.17-6.898-6.88-9.268-11.132c-2.105-3.777-3.115-7.67-3.927-11.775c1.771-2.309,3.708-4.488,5.843-6.491
				c2.396-2.247,5.015-4.245,7.762-6.078c-0.083,4.527,0.679,9.255,1.682,13.556c1.241,5.321,3.251,10.54,6.306,15.091
				c4.577,6.818,11.783,12.639,20.019,14.144C219.536,159.434,218.424,160.968,217.36,162.534z M221.812,156.491
				c-8.787-1.816-15.992-7.104-20.725-14.854c-2.674-4.377-4.431-9.257-5.538-14.251c-0.958-4.319-1.162-8.682-1.68-13.035
				c5.43-3.467,11.367-6.25,17.338-8.641c-2.343,8.541-1.734,17.848,1.171,26.183c2.365,6.782,7.188,16.181,14.712,18.627
				C225.243,152.429,223.482,154.422,221.812,156.491z M231.237,146.477c-0.985,0.891-1.939,1.817-2.883,2.754
				c-8.19-3.279-12.8-11.608-15.259-19.846c-2.365-7.922-2.375-16.121-0.735-24.131c1.622-0.636,3.245-1.248,4.858-1.836
				c2.946-1.073,5.938-2.056,8.948-2.998c-2.833,7.187-3.139,15.468-1.456,22.912c0.931,4.118,2.521,8.104,4.648,11.75
				c1.486,2.546,3.461,5.805,5.886,8.001C233.875,144.174,232.536,145.303,231.237,146.477z M236.706,141.955
				c-1.833-2.285-4.023-4.341-5.585-6.869c-2.236-3.618-3.898-7.573-4.898-11.708c-1.926-7.964-1-15.747,1.34-23.388
				c5.333-1.629,10.737-3.08,16.183-4.308c-2.003,6.834-3.033,13.964-2.001,21.072c0.82,5.648,3.173,13.161,7.801,17.088
				C245.043,136.168,240.742,138.885,236.706,141.955z M250.923,133.138c-1.697-2.45-3.647-4.581-4.959-7.338
				c-1.462-3.073-2.383-6.406-2.839-9.773c-0.941-6.939,0.14-13.923,1.953-20.638c4.097-0.898,8.208-1.696,12.316-2.365
				c1.424-0.232,2.848-0.43,4.273-0.62c-2.228,6.241-3.179,13.289-2.924,19.783c0.2,5.107,1.104,11.751,4.635,15.935
				C259.107,129.464,254.942,131.152,250.923,133.138z M265.094,127.606c-8.024-9.787-4.619-23.839-2.1-35.379
				c4.93-0.616,9.869-1.014,14.816-1.278c-3.046,4.798-4.093,10.819-4.706,16.367c-0.64,5.789-0.399,12.823,3.026,17.839
				C272.402,125.717,268.716,126.549,265.094,127.606z M277.638,124.943c-2.873-5.592-3.824-11.172-3.156-17.628
				c0.593-5.731,1.753-11.505,4.748-16.437c3.274-0.16,6.552-0.274,9.834-0.358c-4.621,10.322-8.197,23.53-2.549,33.72
				C283.544,124.304,280.582,124.554,277.638,124.943z M288.355,124.226c-2.661-5.131-3.718-10.497-3.105-16.432
				c0.625-6.047,2.802-11.707,5.052-17.305c2.301-0.055,4.602-0.104,6.907-0.149c0.081,0.262,0.169,0.521,0.275,0.774
				c0.052,0.124,0.141,0.229,0.247,0.309c-0.951,1.702-1.814,3.166-2.098,4.973c-4.205,9.057,0.2,19.938,5.248,28.865
				C296.727,124.567,292.538,124.234,288.355,124.226z M428.492,174.031c-0.312,3.618-0.964,7.168-1.87,10.709
				c-2.309-0.77-4.552-1.732-6.707-2.913C422.775,179.228,425.633,176.63,428.492,174.031z M418.085,164.305
				c0.13,2.617-1.325,6.702-1.636,8.142c-0.451,2.09-0.876,4.186-1.297,6.282c-0.08-0.061-0.163-0.117-0.243-0.179
				c-2.358-1.833-4.245-4.147-6.273-6.301C411.925,169.754,415.079,167.14,418.085,164.305z M405.95,159.198
				c-0.134,3.168-0.668,6.25-1.532,9.32c-1.834-1.254-3.798-2.161-5.756-3.093C401.281,163.561,403.714,161.497,405.95,159.198z
				 M394.827,153.71c-0.083,3.015-0.455,5.951-1.119,8.899c-0.438-0.32-0.871-0.652-1.29-1.026
				c-1.528-1.366-2.953-2.837-4.395-4.289C390.256,156.03,392.521,154.838,394.827,153.71z M385.457,148.345
				c-0.562,1.663-1.124,3.325-1.683,4.989c-0.276-0.227-0.55-0.457-0.834-0.676c-1.194-0.917-2.455-1.73-3.74-2.503
				C381.304,149.635,383.39,149.007,385.457,148.345z M444.797,158.498c10.092,7.098,17.885,15.643,26.47,24.345
				c3.42,3.467,7.403,6.786,12.082,8.373c4.173,1.416,9.39,0.063,13.637,0.994c-2.89,1.833-6.286,2.53-9.714,3.431
				c-2.187,0.575-5.262,1.088-6.654,3.155c-2.095,3.109,1.225,7.385,2.246,10.214c0.842,2.334,1.648,4.813,1.814,7.298
				c0.276,4.115-0.389,2.327-1.71-0.04c-7.737-13.862-13.424-29.707-25.17-40.856c-6.327-6.005-14.094-10.001-20.392-16.121
				c-3.054-2.968-6.076-6.13-9.746-8.358c-3.452-2.096-7.378-3.059-11.1-4.532c-4.375-1.732-8.164-4.454-12.345-6.557
				c-3.764-1.894-7.801-3.027-11.888-3.993c-6.296-1.489-12.535-2.39-18.546-4.349c1.213,0.03,2.424,0.068,3.641,0.066
				c1.259-0.002,2.515-0.029,3.768-0.075C404.45,136.162,425.259,144.756,444.797,158.498z M431.93,138.938
				c-0.862-1.623-1.832-3.133-2.876-4.599c1.598,0.767,3.218,1.482,4.913,2.014C433.229,137.164,432.556,138.019,431.93,138.938z
				 M443.932,143.418c-1.112-1.796-1.733-3.984-2.588-6.045c1.445,0.001,2.904-0.078,4.393-0.176
				c1.093-0.073,2.118-0.079,3.114-0.047C447.209,139.236,445.571,141.327,443.932,143.418z M455.788,149.162
				c-0.603-3.657-0.568-7.414-1.238-11.084c1.885,0.594,3.735,1.471,5.689,2.725c0.683,0.438,1.372,0.869,2.06,1.302
				C460.154,144.481,457.984,146.834,455.788,149.162z M466.692,154.826c0.037-3.288,0.075-6.576,0.152-9.863
				c2.064,1.303,4.114,2.624,6.11,4.017c0.204,0.142,0.414,0.302,0.627,0.468C471.219,151.097,468.958,153.02,466.692,154.826z
				 M411.02,69.859c-2.395-0.358-4.846-0.54-7.089-1.757c-1.245-0.675-2.381-1.524-3.478-2.437c1.191-0.245,2.374-0.737,3.524-1.261
				c1.261-0.574,2.673-1.309,3.787-2.293C408.89,64.678,409.979,67.26,411.02,69.859z M406.99,60.377
				c-2.02,1.978-4.907,4.031-7.61,4.37c-1.566-1.372-3.093-2.807-4.779-3.982c-0.911-0.635-1.981-1.334-3.135-2.022
				c1.505,0.197,3.133,0.032,4.696-0.282c2.519-0.506,6.144-1.563,8.319-3.568C405.337,56.712,406.17,58.542,406.99,60.377z
				 M399.583,44.968c1.418,2.723,2.774,5.478,4.101,8.247c-1.874,1.141-3.566,2.507-5.821,3.202
				c-2.62,0.808-6.163,1.591-8.785,0.363c-1.201-2.983-1.471-6.747-2.083-9.836C391.07,48.606,396.18,47.782,399.583,44.968z
				 M395.255,36.98c1.227,2.177,2.417,4.377,3.585,6.588c-1.469,1.211-3.074,2.178-5.061,2.61c-2.482,0.54-4.779,0.198-7.062-0.52
				c-0.556-2.398-1.125-4.793-1.708-7.186c1.273,0.631,2.628,0.935,4.199,0.624c1.786-0.354,4.242-1.314,5.758-2.618
				C395.061,36.646,395.16,36.812,395.255,36.98z M379.87,17.351c-0.665-2.71-1.347-5.415-2.092-8.097
				c1.952,2.322,3.708,4.967,5.32,7.513c-0.234,0.169-0.468,0.328-0.707,0.417C381.569,17.494,380.704,17.551,379.87,17.351z
				 M380.175,18.592c0.799,0.144,1.62,0.144,2.424-0.069c0.369-0.098,0.849-0.265,1.289-0.501c0.716,1.145,1.406,2.257,2.069,3.291
				c0.259,0.404,0.508,0.815,0.764,1.221c-1.174,0.414-2.568,0.638-3.074,0.713c-0.797,0.118-1.565,0.14-2.33,0.114
				C380.939,21.772,380.561,20.182,380.175,18.592z M381.589,24.489c1.788,0.205,3.627-0.015,5.324-0.628
				c0.135-0.049,0.311-0.121,0.508-0.211c0.951,1.527,1.866,3.076,2.785,4.622c-2.375,1.233-4.85,2.486-7.306,1.621
				C382.458,28.096,382.02,26.297,381.589,24.489z M384.716,37.283c-0.491-2.006-0.984-4.012-1.483-6.016
				c-0.029-0.116-0.056-0.234-0.085-0.35c2.514,0.938,5.51,0.257,7.915-1.223c1.101,1.873,2.177,3.761,3.251,5.649
				c-1.488,0.502-2.835,1.552-4.317,2.082C388.122,38.096,386.443,37.834,384.716,37.283z M381.485,67.133
				c-0.03,0.038-0.068,0.07-0.082,0.117c-0.805,2.651-1.124,4.896-3.093,7.058c-1.658,1.82-3.713,3.433-5.806,4.719
				c-3.12,1.917-7.693,2.034-11.699,1.185c-1.891-2.31-3.511-5.048-4.947-7.998c-0.607-1.248-1.223-2.492-1.834-3.738
				c3.354,1.078,7.025,0.9,10.361-0.723c2.442-1.188,4.525-3.053,6.067-5.283c0.517-0.747,1.682-2.375,2.126-3.799
				C375.586,61.453,378.559,64.264,381.485,67.133z M382.501,68.138c1.948,1.928,3.88,3.877,5.772,5.88
				c0.252,0.835,0.474,1.678,0.625,2.539c1.146,6.527-5.052,9.208-10.373,10.261c-7.193,1.423-12.449-0.931-16.514-5.234
				c3.976,0.863,8.154,0.682,11.625-1.489C377.171,77.882,383.584,73.042,382.501,68.138z M371.139,57.344
				c0.012,0.043,0.024,0.087,0.045,0.123c0.012,0.022,0.025,0.043,0.037,0.065c-0.159,0.121-0.245,0.359-0.244,0.741
				c-0.266,0.708-0.583,1.392-0.951,2.051c-0.5,0.897-1.084,1.753-1.75,2.535c-1.36,1.597-3.077,2.949-4.993,3.815
				c-3.195,1.443-6.817,1.488-10.01,0.272c-1.629-3.31-3.264-6.618-4.893-9.929c3.411,1.285,6.6,1.84,10.176-0.613
				c2.012-1.38,3.951-3.554,5.011-5.987C366.101,52.73,368.628,55.033,371.139,57.344z M361.331,48.371
				c0.28,0.256,0.559,0.511,0.839,0.767c-0.943,2.445-2.195,4.602-4.679,6.242c-3.221,2.128-6.456,1.429-9.734,0.368
				c-1.314-2.676-2.622-5.354-3.909-8.042c2.497,0.788,5.135,0.887,7.652-0.313c1.59-0.758,3.378-2.303,4.291-4.102
				C357.637,44.985,359.484,46.678,361.331,48.371z M354.458,42.069c-0.747,1.808-1.693,3.294-3.934,4.235
				c-2.305,0.968-4.859,0.866-7.249,0.211c-0.248-0.521-0.503-1.039-0.749-1.56c-0.659-1.396-1.35-2.832-2.042-4.275
				c2.211,0.497,4.522,0.206,6.605-1.066c0.688-0.42,1.637-1.161,2.461-2.044C351.186,39.07,352.822,40.57,354.458,42.069z
				 M332.565,22.041c1.941,1.92,3.978,3.77,6.021,5.594c-0.138,0.136-0.284,0.262-0.447,0.369c-1.039,0.684-2.282,0.677-3.345,0.155
				C333.973,26.131,333.216,24.089,332.565,22.041z M335.348,29.486c1.076,0.303,2.24,0.227,3.253-0.352
				c0.265-0.151,0.583-0.396,0.893-0.691c1.007,0.896,2.008,1.788,3.002,2.68c-1.371,1.44-3.446,2.158-5.524,2.077
				C336.417,31.97,335.87,30.732,335.348,29.486z M337.479,34.307c1.871,0.173,3.738-0.344,5.332-1.523
				c0.168-0.124,0.444-0.379,0.745-0.7c0.325,0.296,0.657,0.591,0.978,0.887c1.329,1.225,2.665,2.442,3.997,3.665
				c-0.99,1.048-2.284,1.926-3.083,2.305c-1.708,0.809-3.606,1-5.446,0.729C339.159,37.907,338.309,36.117,337.479,34.307z
				 M321.134,36.373c0.885,0.958,1.738,2.014,2.618,3.056c-1.873-0.434-3.707-0.787-5.421-1.07
				c-4.366-0.721-8.741-0.967-13.106-0.804c3.922-2.304,8.289-3.347,12.861-4.337C319.112,34.26,320.141,35.299,321.134,36.373z
				 M311.672,27.09c0.261,0.233,0.527,0.462,0.787,0.697c1.523,1.378,3.013,2.79,4.471,4.235
				c-4.976,0.857-10.063,2.443-13.963,5.576c-0.594-1.973-1.231-3.928-1.902-5.869C304.303,29.339,307.83,27.98,311.672,27.09z
				 M293.011,12.73c2.115,1.001,4.418,2.785,6.339,4.332c-1.234,0.301-2.442,0.84-3.556,1.484
				C294.909,16.59,293.986,14.65,293.011,12.73z M296.237,19.549c0.726-0.313,1.465-0.595,2.213-0.836
				c0.735-0.237,1.489-0.396,2.24-0.568c0.498,0.401,0.964,0.774,1.353,1.063c0.859,0.637,1.692,1.308,2.534,1.967
				c-2.263,0.411-4.613,1.356-6.503,2.673C297.485,22.405,296.868,20.974,296.237,19.549z M298.477,24.833
				c1.088-0.582,2.175-1.159,3.348-1.597c1.323-0.494,2.674-0.766,4.032-1.068c1.551,1.246,3.08,2.518,4.578,3.827
				c-3.543,0.789-6.862,2.559-9.685,4.83C300.039,28.808,299.271,26.815,298.477,24.833z M276.297,38.792h-0.001
				c-4.129-1.014-8.326-1.717-12.568-2.042c-0.828-0.063-1.654-0.095-2.479-0.128c0.8-0.572,1.615-1.125,2.503-1.594
				c2.121-1.119,4.402-1.62,6.583-2.53C272.316,34.569,274.287,36.677,276.297,38.792z M269.431,31.567
				c-3.062,0.367-6.658,2.022-9.381,4.145c-0.842-2.308-1.766-4.575-2.739-6.817c1.355-0.851,2.689-1.714,4.131-2.42
				c0.623-0.305,1.358-0.531,2.075-0.789C265.531,27.588,267.491,29.555,269.431,31.567z M251.062,15.789
				c2.563,1.627,4.947,3.416,7.235,5.299c-1.305,0.235-2.604,1.038-3.637,2.006C253.493,20.646,252.287,18.215,251.062,15.789z
				 M255.222,24.283c0.502-0.446,1.046-0.841,1.655-1.159c0.864-0.452,1.803-0.642,2.693-0.985c0.96,0.82,1.904,1.656,2.832,2.51
				c-0.465,0.21-0.911,0.438-1.311,0.639c-1.502,0.757-2.897,1.759-4.044,2.994C256.458,26.94,255.845,25.609,255.222,24.283z
				 M173.781,32.453c12.577,3.745,25.189,7.474,37.874,10.837c3.051,0.809,6.212,1.572,9.398,2.101
				c-2.255,1.091-4.453,2.24-6.568,3.385c-2.836,1.535-5.607,3.206-8.318,4.977c-0.124-0.085-0.26-0.162-0.412-0.224
				c-17.326-7.137-34.441-14.606-51.212-22.977c-6.476-3.233-12.831-6.701-19.168-10.203
				C148.116,24.813,161.091,28.675,173.781,32.453z M74.37,84.506c8.803-6.177,17.088-13.47,23.627-22.044
				c5.848-7.669,10.561-16.69,11.389-26.436c0.818-9.629-1.961-19.363-5.263-28.496c3.732,1.823,7.534,3.538,11.381,5.174
				c12.086,8.129,25.195,14.949,38.064,21.552c15.849,8.131,32.115,15.643,48.719,22.125c-3.851,2.725-7.556,5.66-11.088,8.75
				c-3.392,2.969-6.415,6.157-9.274,9.469c-4.71-0.956-10.054,0.556-14.759,1.174c-5.589,0.734-11.172,1.507-16.752,2.304
				c-11.875,1.695-23.731,3.518-35.567,5.468c-11.471,1.89-22.88,4.108-34.3,6.281c-7.17,1.364-14.495,2.568-21.698,4.17
				C64.382,91.223,69.684,87.795,74.37,84.506z M178.709,78.454c-2.442,3.009-4.828,6.094-7.254,9.188
				c-20.492-0.211-41.14,1.091-61.562,2.648c-7.876,0.601-15.752,1.25-23.611,2.043c9.152-1.575,18.321-3.033,27.486-4.539
				c11.48-1.887,22.98-3.653,34.496-5.3c6.656-0.952,13.318-1.857,19.983-2.737C171.572,79.316,175.302,79.24,178.709,78.454z
				 M55.601,143.011c4.969-5.036,10.396-10.433,12.057-17.565c1.506-6.469-0.622-13.203-4.508-18.43
				c-2.738-3.682-6.17-6.184-9.858-8.416c19.247-1.379,38.426-3.522,57.684-4.797c19.121-1.265,38.228-1.647,57.365-2.286
				c-6.527,7.808-14.684,14.058-21.36,21.738c-2.426,2.791-4.664,5.729-6.705,8.79c-0.369-0.292-0.85-0.434-1.385-0.281
				c-18.262,5.23-36.054,13.316-53.808,20.067c-15.35,5.837-31.378,10.976-46.268,18.047
				C44.42,154.265,50.03,148.656,55.601,143.011z M137.91,125.816c-2.431,4.078-4.523,8.348-6.271,12.755
				c-2.888,0.375-5.653,1.458-8.488,2.281c-4.133,1.2-8.277,2.365-12.43,3.496c-8.651,2.355-17.343,4.56-26.07,6.614
				c-10.995,2.588-22.069,5.098-33.16,7.436c12.35-4.232,24.509-9.333,36.627-13.838
				C104.616,138.429,121.865,133.119,137.91,125.816z M66.963,181.886c-5.398-9.65-15.403-15.249-25.487-19.49
				c14.807-2.145,29.463-4.675,44.124-7.996c8.396-1.902,16.761-3.944,25.089-6.125c4.164-1.09,8.318-2.215,12.463-3.374
				c2.235-0.625,4.606-1.131,6.855-1.886c-2.608,7.753-4.153,15.872-4.537,24.101c-0.146,3.131-0.11,6.265-0.079,9.399
				c-5.692,1.487-11.608,6.769-16.34,9.851c-6.224,4.055-12.369,8.232-18.432,12.525c-9.082,6.432-18.782,12.974-27.072,20.65
				C69.596,207.683,73.886,194.264,66.963,181.886z M59.908,226.227c0.198-0.347,0.397-0.697,0.595-1.048
				c11.674-7.264,22.28-16.523,33.542-24.426c6.081-4.266,12.246-8.413,18.489-12.438c3.879-2.501,9.152-4.758,12.873-7.959
				c-0.004,2.146-0.043,4.291-0.187,6.435c-0.182,2.727-0.519,5.435-0.902,8.139c-4.984,1.954-9.708,4.964-14.455,7.361
				c-5.954,3.007-11.916,6.012-17.921,8.917c-10.608,5.131-21.5,9.706-32.018,15.018C59.919,226.227,59.914,226.227,59.908,226.227z
				 M87.866,234.213c-6.004-4.649-13.911-7.283-21.78-7.906c8.717-3.356,17.212-7.332,25.672-11.252
				c5.743-2.661,11.479-5.33,17.146-8.15c4.765-2.372,10.064-4.547,14.736-7.361c-0.281,1.878-0.558,3.756-0.795,5.639
				c-0.933,7.419-1.115,14.88-0.546,22.312c-0.007,0.009-0.018,0.014-0.025,0.023c-7.577,10.225-16.462,19.335-23.124,30.167
				C98.136,248.661,95.591,240.194,87.866,234.213z M124.249,241.39c-7.394,4.402-14.385,9.709-21.199,15.08
				c3.246-4.207,6.508-8.392,10.121-12.318c3.333-3.621,7.114-7.34,9.635-11.681c0.082,0.669,0.155,1.339,0.249,2.008
				C123.375,236.743,123.779,239.054,124.249,241.39z M133.417,276.619c-4.08-3.307-8.088-6.748-12.352-9.819
				c-5.824-4.195-12.657-7.202-19.649-6.407c8.03-4.879,16.178-9.9,23.549-15.693c3.061,13.301,8.543,27.183,16.597,38.389
				C138.902,280.853,136.073,278.772,133.417,276.619z M19.477,252.79c7.184,3.597,14.221,7.442,19.946,13.252
				c8.838,8.968,11.836,21.318,11.546,33.607c-0.301,12.806-4.027,25.201-6.781,37.619c-2.609,11.764-4.395,23.833-4.058,35.912
				c0.556,19.897,7.421,40.303,23.291,53.176c17.247,13.99,39.296,12.701,59.648,7.347c23.061-6.067,45.947-13.468,68.649-21.036
				c16.317-3.564,32.573-7.222,49.443-7.27c22.286-0.064,43.389,6.603,64.423,13.235c20.065,6.327,40.846,12.487,62.11,11.854
				c17.702-0.527,36.821-5.979,48.774-19.832c10.186-11.805,13.779-29.178,5.85-43.147c-7.54-13.284-22.618-20.707-36.765-24.771
				c-39.076-11.226-81.099-6.345-121.201-8.438c-23.918-1.248-47.287-5.481-68.919-16.125c-14.601-7.185-27.499-16.789-40.73-25.951
				c-5.253-7.468-10.89-14.499-15.158-22.644c-4.577-8.734-7.899-18.09-9.947-27.734c-2.042-9.617-2.834-19.49-2.231-29.306
				c0.691-11.235,3.274-22.079,3.129-33.393c-0.139-10.823,0.068-21.121,3.155-31.588c2.862-9.705,7.507-18.829,13.741-26.803
				c6.251-7.996,14.324-14.181,21.264-21.525c7.035-7.446,12.219-16.368,19.094-23.964c7.344-8.115,15.663-15.072,25.067-20.687
				c5.908-3.528,12.131-6.038,18.379-8.552c3.117-0.202,6.174-0.839,9.09-2.116c7.69-1.708,15.577-2.517,23.442-1.756
				c8.599,0.832,16.854,5.095,25.555,3.557c9.048-1.599,17.28-3.595,26.576-2.502c4.534,0.533,9.026,1.614,13.334,3.116
				c3.937,1.373,7.534,3.481,11.608,4.432c0.065,0.015,0.122,0.007,0.184,0.014c0.938,2.26,1.874,4.52,2.835,6.77
				c4.6,10.765,8.819,26.43,20.286,31.852c7.782,3.68,20.27,3.159,26.793-3.069c7.814-7.462-1.51-19.263-7.811-24.803
				c-0.252-0.274-0.515-0.54-0.771-0.811c1.746,0.492,3.486,1.034,5.171,1.909c3.957,2.053,7.085,4.943,10.554,7.667
				c4.525,3.554,10.204,4.702,15.701,3.421c3.051,0.46,6.039,1.227,8.81,2.643c4.836,2.47,8.57,6.617,12.353,10.415
				c6.655,6.681,10.919,15.163,17.922,21.427c8.048,7.198,17.771,13.679,24.808,21.89c2.94,3.43,5.148,11.078,2.324,15.276
				c-3.119,4.636-10.083-3.455-12.908-5.517c-3.555-2.595-7.145-5.738-11.426-7.072c-4.509-1.406-9.055-0.433-13.654-0.51
				c-9.672-0.162-17.361-7.406-27.088-8.282c-10.63-0.957-21.453,1.743-32.089,2.101c-11.429,0.385-22.91-0.408-34.245-1.851
				c-2.329-0.296-2.76,3.035-1.111,4.101c8.552,5.531,13.621,14.858,21.961,20.649c4.966,3.448,10.121,6.012,14.4,10.404
				c3.275,3.36,6.291,7.083,10.336,9.572c1.845,1.135,3.91,1.723,5.802,2.745c2.57,1.388,4.291,3.442,6.198,5.583
				c3.093,3.473,6.65,6.456,10.687,8.78c7.806,4.495,17.124,6.348,25.958,4.462c0.836,0.108,1.582,0.251,1.903,0.466
				c-0.234,3.715-1.6,5.216-4.095,4.502c-1.076-0.093-2.146-0.238-3.209-0.435c-3.676-0.459-6.89-0.021-10.471,0.734
				c-10.839,2.285-19.735,0.904-29.52-4.386c-7.383-3.992-14.219-8.891-21.477-13.096c-7.589-4.397-15.34-6.439-23.474-9.419
				c-7.604-2.786-12.912-9.494-20.107-13.26c-7.997-4.186-12.994-8.596-17.273-16.646c-6.978-13.129-24.1-31.36-12.957-46.535
				c0.172-0.234,0.247-0.471,0.256-0.699c1.391-2.111,2.489-4.393,2.991-7.326c0.241-1.406,0.454-2.73,0.781-3.988
				c0.015-0.016,0.021-0.024,0.013-0.044c0.5-1.905,1.272-3.66,2.858-5.305c1.853-1.923,3.953-3.457,5.531-5.636
				c0.29-0.401-0.187-0.84-0.586-0.763c-5.404,1.055-9.993,5.326-12.075,10.35c-0.299,0.721-0.531,1.443-0.743,2.165
				c0.155-0.76,0.328-1.515,0.556-2.248c1.409-4.522,4.216-8.472,5.521-12.973c0.143-0.494-0.474-1.059-0.934-0.718
				c-3.613,2.675-5.522,7.142-7.029,11.274c-1.062,2.913-2.341,6.557-2.474,9.986c-24.943-3.012-51.989,1.715-75.03,11.051
				c-11.594,4.698-23.411,10.123-33.796,17.145c-9.656,6.53-16.453,15.462-21.509,25.884
				c-21.812,44.958-10.313,102.19,31.384,131.361c21.372,14.952,47.523,22.392,73.177,25.474
				c28.432,3.416,56.755-1.233,85.238,0.545c4.8,0.3,9.59,0.78,14.344,1.514c38.353,5.927,74.384,29.842,93.94,63.507
				c5.922,10.195,10.189,21.522,11.196,33.33c0.974,11.421-1.384,22.046-5.61,32.472c-4.092,5.637-9.843,10.055-15.793,13.941
				c-8.937,5.837-18.675,10.553-28.803,13.92c-21.362,7.102-43.873,7.82-65.882,3.492c-22.014-4.329-43.013-12.613-64.713-18.16
				c-20.976-5.362-42.593-7.766-64.236-6.98c-24.171,0.878-48.031,5.653-70.42,14.741c-7.079,1.274-14.087,3.16-21.14,4.461
				c-10.333,1.906-20.781,3.186-31.293,3.421c-20.139,0.451-41.411-2.675-59.335-12.33c-17.962-9.676-24.885-28.244-26.426-47.697
				c-0.806-10.171-0.161-20.415,2.009-30.389c2.153-9.896,6.341-18.98,9.452-28.564c5.593-17.227,7.265-40.631-2.571-56.774
				C28.444,271.772,24.321,262.034,19.477,252.79z M33.29,306.785c0.086,1.542,0.142,3.091,0.124,4.656
				c-0.084,7.471-1.237,14.656-3.18,21.716c-0.667-0.184-1.415-0.122-2.114-0.072c-0.204,0.015-0.401,0.04-0.598,0.065
				C30.428,324.563,32.638,315.784,33.29,306.785z M27.096,334.387c0.342-0.012,0.684-0.027,1.024-0.021
				c0.562,0.009,1.166,0.133,1.747,0.148c-0.742,2.555-1.585,5.095-2.523,7.626c-0.459,1.238-0.906,2.475-1.34,3.712
				c-0.829-0.571-1.864-0.778-2.934-0.754C24.487,341.56,25.847,337.99,27.096,334.387z M22.611,346.239
				c0.135-0.004,0.269-0.017,0.404-0.012c1.111,0.038,1.755,0.56,2.49,1.086c-1.131,3.292-2.18,6.581-3.112,9.874
				c-0.711-0.473-1.611-0.764-2.355-1.013c-0.458-0.153-0.918-0.243-1.378-0.3C19.981,352.654,21.315,349.446,22.611,346.239z
				 M18.209,356.974c0.342,0.057,0.686,0.135,1.033,0.249c0.682,0.225,2.101,0.689,2.762,1.371
				c-1.346,4.925-2.451,9.864-3.232,14.853c-0.799-0.894-1.773-1.615-2.954-2.036c-0.815-0.29-1.998-0.474-3.046-0.315
				C14.429,366.338,16.298,361.643,18.209,356.974z M12.141,372.912c1.128-0.191,2.125-0.518,3.425-0.001
				c1.184,0.471,2.123,1.341,2.934,2.317c-0.366,2.595-0.646,5.203-0.829,7.83c-2.914-0.99-5.718-0.92-8.509,0.065
				C9.994,379.676,11.013,376.279,12.141,372.912z M7.803,389.737c0.305-1.847,0.674-3.678,1.091-5.496
				c1.6-0.517,3.234-0.921,4.899-0.842c1.361,0.064,2.558,0.706,3.788,1.087c-0.254,4.516-0.23,9.088,0.136,13.743
				c-3.026-2.232-7.477-3.902-10.666-2.157C7.212,393.956,7.455,391.842,7.803,389.737z M6.929,397.875
				c1.888-0.709,3.605-1.173,5.751-0.641c1.895,0.471,3.54,1.511,5.179,2.535c0.089,0.944,0.175,1.888,0.293,2.84
				c0.231,1.874,0.525,3.741,0.851,5.603c-3.955-1.008-8.307-0.016-11.63,2.319C6.858,406.344,6.711,402.109,6.929,397.875z
				 M7.494,411.43c1.533-0.905,3.194-1.621,4.905-1.994c2.399-0.524,4.537-0.231,6.848,0.084c0.685,3.63,1.547,7.218,2.682,10.689
				c-0.95,0.019-1.894,0.036-2.862,0.301c-1.296,0.355-2.528,0.921-3.678,1.611c-1.673,1.004-3.117,2.295-4.429,3.715
				C9.31,421.154,8.158,416.326,7.494,411.43z M14.456,434.11c-1.178-2.363-2.212-4.783-3.12-7.242
				c1.59-1.424,3.204-2.841,5.072-3.858c1.862-1.014,3.861-1.347,5.839-1.879c1.101,3.215,2.411,6.332,3.998,9.287
				c-1.764,0.609-3.683,1.816-4.478,2.334c-2.132,1.387-3.895,3.113-5.305,5.139C15.765,436.654,15.096,435.393,14.456,434.11z
				 M17.028,438.844c1.043-1.358,2.222-2.616,3.552-3.688c0.997-0.804,2.088-1.504,3.223-2.097c0.341-0.178,1.845-0.981,3.126-1.392
				c1.731,3.028,3.751,5.881,6.119,8.492c-2.22,0.841-4.271,2.383-5.946,3.938c-1.25,1.16-2.8,2.698-3.613,4.412
				C21.144,445.455,18.99,442.227,17.028,438.844z M24.338,449.599c2.105-3.993,5.801-6.282,9.768-8.314
				c2.076,2.135,4.384,4.107,6.985,5.854c0.453,0.305,0.926,0.581,1.387,0.875c-2.723,1.328-5.346,3.282-7.101,5.669
				c-1.046,1.422-2.129,3.328-2.56,5.248C29.79,456.027,26.962,452.908,24.338,449.599z M33.999,460.059
				c0.768-2.134,1.306-4.268,2.883-6.171c1.883-2.271,4.503-3.423,6.796-5.118c3.614,2.199,7.435,4.098,11.407,5.717
				c-5.372,2.622-8.544,8.668-9.49,14.799C41.505,466.498,37.625,463.42,33.999,460.059z M47.06,470.269
				c0.492-3.111,1.11-6.115,2.771-8.972c1.545-2.657,3.921-4.934,6.741-6.207c3.483,1.348,7.065,2.498,10.707,3.46
				c-3.37,1.671-5.962,4.969-7.451,8.34c-1.143,2.589-2.195,6.372-1.937,9.634C54.153,474.648,50.539,472.555,47.06,470.269z
				 M73.47,482.955c-4.84-1.587-9.56-3.492-14.12-5.695c0.001-0.781-0.03-1.567,0.013-2.357c0.13-2.397,0.619-4.738,1.526-6.961
				c1.589-3.894,4.259-6.368,7.636-8.719c0.107-0.075,0.171-0.181,0.209-0.295c4.348,1.086,8.768,1.919,13.184,2.53
				c-2.797,2.48-4.898,5.757-6.32,9.191c-0.964,2.327-1.616,4.766-1.926,7.266C73.487,479.408,73.25,481.273,73.47,482.955z
				 M87.122,486.554c-4.037-0.813-8.026-1.836-11.946-3.055c0.034-1.445-0.198-2.949-0.104-4.368
				c0.165-2.505,0.709-4.995,1.581-7.349c1.454-3.925,3.84-7.176,6.651-10.147c4.427,0.567,8.842,0.928,13.167,1.096
				c-2.899,3.435-4.691,8.347-5.372,12.363c-0.56,3.301-0.967,8.82,0.921,12.344C90.389,487.173,88.757,486.883,87.122,486.554z
				 M93.844,487.705c-2.424-3.996-1.95-10.046-0.877-14.259c0.603-2.367,1.534-4.651,2.776-6.755
				c0.846-1.434,1.911-2.652,2.961-3.888c4.778,0.117,9.556,0.01,14.322-0.3c-6.131,6.905-7.851,17.717-5.2,26.591
				C103.18,488.859,98.52,488.398,93.844,487.705z M109.602,489.168c-1.025-5.879-2.009-11.385-0.21-17.42
				c1.035-3.471,2.872-6.715,5.332-9.376c4.49-0.336,8.969-0.832,13.427-1.477c-5.932,7.339-6.931,19.955-2.316,28.116
				C120.441,489.318,115.031,489.378,109.602,489.168z M127.699,488.901c-0.921-1.987-1.848-3.936-2.385-6.109
				c-0.757-3.065-0.969-6.246-0.596-9.381c0.58-4.885,2.699-8.789,5.167-12.775c1.111-0.17,2.223-0.34,3.331-0.527
				c4.933-0.83,9.998-1.744,15.011-2.903c-3.096,3.952-5.144,8.409-5.782,13.624c-0.629,5.142,0.024,11.457,2.684,16.198
				C139.334,487.868,133.525,488.513,127.699,488.901z M146.88,486.76c-0.866-1.948-1.78-3.855-2.316-5.958
				c-0.78-3.059-1.047-6.273-0.725-9.417c0.523-5.108,2.572-10.314,5.716-14.482c5.646-1.361,11.203-3.069,16.397-5.403
				c-2.861,5.665-5.398,11.59-5.516,18.032c-0.087,4.733,1.294,9.969,4.045,14.072C158.623,484.799,152.757,485.87,146.88,486.76z
				 M166.423,483.206c-2.932-4.353-4.752-9.008-4.513-14.635c0.264-6.202,2.804-12.085,5.372-17.686
				c0.103-0.049,0.209-0.095,0.312-0.144c0.079-0.038,0.134-0.095,0.194-0.148c2.199-0.619,4.405-1.205,6.614-1.766
				c-2.522,5.478-3.564,11.542-2.696,17.592c0.681,4.744,2.618,10.31,5.857,14.357C173.852,481.616,170.139,482.432,166.423,483.206
				z M192.263,477.365c-4.254,0.999-8.507,1.998-12.762,2.97c-1.073-1.366-2.128-2.743-2.99-4.287
				c-1.589-2.847-2.706-5.944-3.309-9.148c-1.177-6.255-0.197-12.718,2.541-18.4c5.673-1.411,11.375-2.651,17.102-3.694
				c-3.602,4.658-4.573,10.925-4.283,16.758c0.242,4.866,1.601,11.471,5.152,15.474
				C193.232,477.149,192.747,477.252,192.263,477.365z M195.589,476.616c-1.195-1.637-2.428-3.213-3.28-5.124
				c-1.387-3.112-2.078-6.539-2.257-9.928c-0.31-5.872,0.643-12.402,4.46-17.062c5.919-1.039,11.86-1.886,17.818-2.518
				c-2.978,4.685-4.3,10.277-4.186,15.878c0.076,3.741,0.704,7.509,1.781,11.09c0.441,1.467,0.988,3.131,1.791,4.599
				C206.331,474.392,200.953,475.426,195.589,476.616z M213.605,473.269c-0.941-1.597-1.807-3.176-2.377-5.117
				c-0.982-3.339-1.595-6.807-1.686-10.29c-0.148-5.696,1.202-11.229,4.139-16.026c4.985-0.502,9.979-0.864,14.979-1.071
				c-2.039,4.953-3.018,10.272-2.78,15.666c0.143,3.233,0.704,6.468,1.681,9.553c0.532,1.681,1.184,3.734,2.124,5.489
				C224.324,471.862,218.962,472.477,213.605,473.269z M231.627,471.347c-0.867-1.909-2.008-3.75-2.666-5.749
				c-0.975-2.963-1.563-6.053-1.745-9.167c-0.315-5.393,0.574-10.751,2.615-15.717c6.862-0.252,13.731-0.222,20.596,0.102
				c-3.41,4.237-5.732,9.559-6.506,14.867c-0.701,4.8-0.222,10.973,2.531,15.302C241.515,470.905,236.572,471.037,231.627,471.347z
				 M248.219,471.01c-1.133-2.355-2.294-4.554-2.798-7.21c-0.598-3.153-0.559-6.408,0.064-9.554
				c0.992-5.014,3.442-9.231,6.21-13.378c4.151,0.218,8.3,0.54,12.444,0.976c-3.251,3.254-5.196,8.263-5.832,12.47
				c-0.861,5.698,0.214,12.228,2.895,17.53C256.882,471.396,252.553,471.123,248.219,471.01z M262.864,472.041
				c-2.137-5.411-3.95-10.668-3.265-16.717c0.326-2.878,1.219-5.732,2.622-8.267c1.098-1.986,2.528-3.478,4.067-4.966
				c6.122,0.701,12.233,1.615,18.32,2.809c-4.477,3.47-7.729,8.315-9.148,13.878c-1.096,4.296-1.294,10.841,1.001,15.404
				C271.943,473.255,267.408,472.56,262.864,472.041z M295.012,479.254c-5.353-1.848-10.738-3.356-16.145-4.558
				c-1.062-2.034-2.1-3.989-2.505-6.448c-0.542-3.292-0.297-6.697,0.585-9.906c1.441-5.241,4.558-9.884,8.801-13.214
				c4.6,0.926,9.187,1.986,13.756,3.201c0.331,0.088,0.659,0.186,0.989,0.275c-3.885,3.639-6.315,9.342-7.222,14.406
				c-0.991,5.533-0.338,11.328,2.044,16.412C295.217,479.363,295.132,479.295,295.012,479.254z M296.76,479.969
				c-2.218-5.564-3.188-11.513-1.921-17.453c1.154-5.411,3.956-9.252,7.155-13.496c4.467,1.225,8.917,2.518,13.356,3.858
				c-4.704,4.767-8.044,10.727-9.466,17.321c-0.808,3.747-1.092,9.508,1.034,13.411C303.546,482.33,300.161,481.107,296.76,479.969z
				 M309.952,484.774c-1.666-2.152-2.95-4.146-3.254-7.217c-0.319-3.223,0.281-6.505,1.188-9.59
				c1.629-5.542,4.635-10.555,8.57-14.751c4.208,1.275,8.41,2.569,12.618,3.841c-4.903,4.408-8.684,10.448-9.979,16.875
				c-0.975,4.84-0.604,10.629,1.775,15.177C317.237,487.648,313.599,486.192,309.952,484.774z M323.007,489.965
				c-2.591-5.134-3.728-10.536-2.327-16.479c1.518-6.436,5.422-11.438,10.002-15.943c3.395,1.02,6.794,2.02,10.206,2.973
				c-4.22,4.38-6.236,11.016-7.198,16.785c-0.932,5.594-0.911,12.238,1.715,17.508C331.264,493.262,327.135,491.621,323.007,489.965
				z M337.631,495.63c-2.84-6.044-3.586-12.047-2.361-18.798c1.069-5.893,3.185-11.448,7.087-15.906
				c2.732,0.752,5.47,1.482,8.222,2.157c-2.395,2.37-3.993,5.96-5.117,9.013c-1.293,3.515-1.972,7.29-1.951,11.038
				c0.032,5.772,1.649,11.221,4.559,16.027C344.575,498.088,341.098,496.894,337.631,495.63z M349.78,499.657
				c-3.13-5.076-4.894-11.025-4.813-16.985c0.047-3.475,0.715-6.925,1.911-10.186c1.25-3.408,3.377-5.99,5.109-9.065
				c4.801,1.147,9.635,2.157,14.525,2.943c-4.32,5.893-8.021,12.633-9.286,19.827c-0.649,3.69-0.681,7.519,0.175,11.179
				c0.324,1.386,0.782,3.202,1.548,4.763C355.848,501.383,352.793,500.548,349.78,499.657z M361.036,502.632
				c-1.789-2.516-2.508-6.168-2.744-9.011c-0.284-3.407,0.108-6.861,0.998-10.155c1.678-6.207,5.066-11.54,8.453-16.901
				c0.176,0.027,0.35,0.06,0.526,0.086c2.648,0.396,5.302,0.698,7.959,0.926c-2.622,6.232-2.873,14.11-1.869,20.39
				c1.083,6.775,3.936,12.852,8.113,18.149C375.232,505.44,368.043,504.236,361.036,502.632z M384.051,506.248
				c-4.175-5.254-7.059-11.636-8.188-18.232c-0.684-3.994-0.706-8.135-0.099-12.14c0.435-2.872,1.368-5.485,2.288-8.147
				c5.293,0.379,10.591,0.431,15.868,0.159c-1.648,6.828-1.859,14.328-1.738,21.158c0.072,4.057,0.357,8.123,0.915,12.144
				c0.247,1.783,0.514,3.743,1.109,5.542C390.821,506.697,387.432,506.527,384.051,506.248z M396.092,506.748
				c-0.733-2.488-1.432-4.909-1.761-7.609c-0.472-3.879-0.726-7.784-0.77-11.691c-0.074-6.655,0.911-13.09,1.629-19.63
				c3.681-0.227,7.351-0.594,10.998-1.142c1.255,7.006,1.795,14.149,2.73,21.202c0.466,3.519,0.982,7.032,1.635,10.522
				c0.412,2.201,0.692,4.871,1.374,7.261C406.704,506.382,401.408,506.726,396.092,506.748z M413.905,505.365
				c-0.502-2.492-1.408-5.05-1.85-7.38c-0.746-3.933-1.344-7.894-1.885-11.86c-0.86-6.3-1.026-13.394-2.908-19.622
				c3.65-0.581,7.279-1.315,10.874-2.222c1.134,2.435,2.48,4.792,3.578,7.239c1.623,3.616,3.035,7.333,4.202,11.121
				c1.043,3.386,1.888,6.835,2.527,10.319c0.548,2.989,0.711,5.844,0.811,8.755C424.254,503.349,419.119,504.546,413.905,505.365z
				 M444.639,494.997c-0.245,0.137-0.483,0.287-0.729,0.421c-4.129,2.256-8.409,4.124-12.794,5.662
				c-0.072-2.251-0.512-4.553-0.858-6.625c-0.665-3.971-1.592-7.896-2.775-11.746c-1.897-6.175-4.355-13.268-8.22-18.712
				c4.066-1.067,8.09-2.336,12.054-3.826c0.69-0.259,1.372-0.538,2.057-0.809c4.211,4.955,7.665,10.321,9.685,16.632
				c1.124,3.512,1.822,7.16,2.03,10.843C445.246,489.62,444.878,492.288,444.639,494.997z M459.224,485.112
				c-3.988,3.226-8.197,6.142-12.587,8.73c0.293-2.623,0.164-5.392-0.037-7.835c-0.313-3.813-1.112-7.586-2.373-11.198
				c-2.043-5.854-5.293-11.523-9.796-15.86c3.702-1.504,7.338-3.181,10.882-5.035c4.324,3.489,8.14,7.764,10.796,12.608
				c1.55,2.828,2.695,5.883,3.313,9.051C460.089,478.987,459.779,481.905,459.224,485.112z M461.526,483.171
				c0.811-5.407-1.452-12.002-3.653-16.248c-2.819-5.437-6.917-9.866-11.794-13.412c3.466-1.846,6.846-3.853,10.102-6.048
				c9.811,4.739,15.972,13.741,16.624,24.709C469.281,476.094,465.507,479.769,461.526,483.171z M474.268,470.526
				c-0.82-10.404-7.671-19.805-17.368-23.553c1.64-1.125,3.259-2.279,4.832-3.497c2.405-1.862,4.731-3.914,6.815-6.158
				c4.719,1.072,8.864,3.473,11.894,7.542c2.65,3.558,3.649,7.418,4.53,11.47C481.727,461.29,478.149,466.048,474.268,470.526z
				 M486.252,454.314c-0.927-4.146-3.008-8.192-5.581-11.233c-3.121-3.688-6.931-5.73-11.294-6.681
				c2.602-2.966,4.758-6.256,6.09-9.896c3.846-0.291,8.106,2.035,11.083,4.043c3.856,2.6,5.958,5.734,7.473,9.7
				C491.73,445.053,489.121,449.756,486.252,454.314z M498.278,430.344c-1.006,2.625-2.105,5.235-3.287,7.822
				c-1.586-3.742-4.929-6.929-8.165-8.983c-3.099-1.967-7.162-4.001-10.94-3.765c1.095-2.223,1.987-4.535,2.704-6.91
				c3.568-0.186,6.953-0.387,10.575,0.66c4.313,1.246,7.452,3.59,10.834,6.273C499.465,427.083,498.901,428.719,498.278,430.344z
				 M500.385,424.2c-4.571-5.53-14.159-8.941-21.33-7.334c0.662-2.501,1.144-5.061,1.447-7.658
				c7.663-0.634,16.974-1.011,22.583,4.504C502.375,417.234,501.464,420.731,500.385,424.2z M503.415,412.065
				c-2.275-2.342-5.931-3.29-9.045-3.832c-4.461-0.776-9.21-1.005-13.733-0.258c0.229-2.407,0.329-4.835,0.282-7.269
				c4.209-0.496,8.484-0.607,12.706-0.526c2.07,0.039,4.143,0.09,6.21,0.195c1.794,0.092,3.37,0.472,5.011,0.898
				C504.555,404.883,504.077,408.483,503.415,412.065z M494.689,398.777c-4.68-0.056-9.246,0.107-13.804,0.969
				c-0.123-3.661-0.53-7.32-1.193-10.9c3.965,0.781,8.028,0.73,12.076,0.165c4.345-0.606,9.053-1.661,13.215-3.456
				c0.297,4.682,0.298,9.38-0.008,14.067C501.924,398.332,497.602,398.812,494.689,398.777z"/>
			<path d="M416.958,117.523c-2.647-1.519-5.902-2.031-8.153-4.201c-2.583-2.491-3.024-6.17-3.322-9.559
				c-0.101-1.148-1.883-1.179-1.816,0c0.206,3.639,0.537,7.66,2.929,10.6c2.378,2.923,6.396,4.36,10.096,4.143
				C417.196,118.477,417.433,117.796,416.958,117.523z"/>
			<path d="M423.673,87.759c6.75,3.52,8.028,10.786,12.299,16.302c0.353,0.456,1.225,0.082,1.167-0.483
				c-0.759-7.334-6.721-13.455-13.047-16.536C423.616,86.81,423.196,87.51,423.673,87.759z"/>
		</g>
	</g>
</g>
<g>
</g>
<g>
</g>
<g>
</g>
<g>
</g>
<g>
</g>
<g>
</g>
<g>
</g>
<g>
</g>
<g>
</g>
<g>
</g>
<g>
</g>
<g>
</g>
<g>
</g>
<g>
</g>
<g>
</g>
</svg>
