<?xml version="1.0" encoding="iso-8859-1"?>
<!-- Generator: Adobe Illustrator 19.0.0, SVG Export Plug-In . SVG Version: 6.00 Build 0)  -->
<svg version="1.1" id="Capa_1" xmlns="http://www.w3.org/2000/svg" xmlns:xlink="http://www.w3.org/1999/xlink" x="0px" y="0px"
	 viewBox="0 0 512.001 512.001" style="enable-background:new 0 0 512.001 512.001;" xml:space="preserve">
<g>
	<g>
		<g>
			<path d="M487.549,97.999c0.805-2.299,1.48-4.742,1.389-7.201c-0.135-3.643-2.155-6.149-3.249-9.479
				c-2.151-6.548,10.096-35.871-2.635-38.04C480.936,27.278,473,13.884,462.137,2.069c-1.506-1.638-3.965,0.179-3.883,2.02
				c0.568,12.79,0.522,25.688-3.723,37.931c-3.807,10.98-11.093,19.574-20.573,26.079c-3.433,2.356-6.419,4.843-8.514,8.503
				c-2.66,4.647-3.939,9.759-7.436,13.954c-2.599,3.118-5.786,5.727-9.313,7.734c0.407-2.641,1.178-5.259,1.602-7.864
				c0.391-2.405,0.628-4.928,0.109-7.333c-0.77-3.563-3.197-5.678-4.856-8.765c-3.263-6.071,3.67-37.084-9.244-36.993
				c-4.881-15.385-15.037-27.186-27.798-36.92c-1.769-1.349-3.872,0.87-3.47,2.668c2.794,12.494,5.004,25.201,2.965,37.998
				c-1.829,11.477-7.501,21.211-15.698,29.273c-2.969,2.92-5.473,5.89-6.897,9.861c-1.807,5.04-2.172,10.297-4.882,15.039
				c-0.539,0.944-1.14,1.85-1.769,2.736c-3.433,0.669-6.122,2.554-9.913,2.385c-4.101-0.182-7.926-1.811-11.696-3.29
				c-3.498-1.373-8.841-3.873-12.721-2.454c-0.167-0.319-0.343-0.633-0.537-0.937c-1.961-3.073-4.973-4.211-7.603-6.528
				c-5.171-4.556-9.462-36.043-21.538-31.465c-9.929-12.725-23.557-20.255-38.907-24.94c-2.128-0.65-3.328,2.163-2.325,3.708
				c6.967,10.741,13.46,21.885,16.001,34.592c2.279,11.396,0.349,22.496-4.531,32.906c-1.767,3.77-3.082,7.427-3.035,11.644
				c0.026,2.325,0.318,4.593,0.571,6.858c-5.531,10.745-17.272,12.59-28.572,15.63c-10.337,2.781-19.428,8.028-26.274,16.351
				c-1.119,1.36-0.114,4.231,1.969,3.382c3.306-1.348,6.56-2.152,9.876-2.358c-9.154,4.855-17.3,11.62-23.727,19.771
				c-1.201,1.523,0.345,4.248,2.274,2.947c2.771-1.869,5.691-3.055,8.763-3.667c-10.188,7.283-17.506,17.935-20.706,30.221
				c-0.497,1.908,1.831,3.192,3.237,1.885c3.37-3.132,7.079-5.596,11.199-7.446c-3.16,6.377-3.804,13.279,1.095,20.262
				c0.811,1.156,2.32,0.77,2.963-0.289c0.46-0.757,0.957-1.495,1.481-2.221c-17.74,35.136-9.186,82.096,17.231,110.639
				c14.56,15.732,33.98,26.161,53.907,34.061c11.196,4.439,22.724,8.189,34.599,10.315c8.832,1.581,17.727,3.341,26.266,6.204
				c-3.782,2.176-3.703,7.709-1.81,11.813c0.161,0.349,0.338,0.684,0.515,1.02c-0.014,0.455,0.157,0.904,0.6,1.247
				c0.066,0.051,0.137,0.095,0.203,0.145c2.648,4.199,6.626,7.273,11.034,9.552c2.49,25.412-40.286,25.663-56.772,26.276
				c-23.387,0.869-46.9-1.689-69.481-7.869c-21.489-5.881-42.262-14.805-60.818-27.198c-18.291-12.217-37.239-29.017-45.55-49.927
				c-7.89-19.849-3.233-40.148,5.045-58.814c7.786-15.353,16.37-30.347,22.906-46.264c8.511-20.729,12.628-44.381,2.598-65.341
				c-8.337-17.423-23.765-30.073-32.831-47.014c-5.182-9.683-7.443-20.454-5.061-31.31c1.489-6.787,4.372-13.204,8.069-19.124
				c4.54,4.557,11.676,5.272,18.158,4.423c5.329-0.698,10.619-2.295,16.032-1.73c5.57,0.582,9.993,4.328,15.345,5.698
				c2.039,0.522,3.036-1.8,1.897-3.259c-2.469-3.163-4.836-6.41-7.204-9.653c10.945,1.643,21.89,3.282,32.836,4.916
				c2.05,0.306,3.268-2.158,1.436-3.405c-2.476-1.687-5.003-3.268-7.574-4.78c10.66-0.803,21.315-0.37,31.908,1.394
				c2.075,0.345,3.559-1.891,2.071-3.558c-3.11-3.484-6.591-6.393-10.492-8.761c4.092-1.233,7.83-3.137,10.564-6.795
				c4.542-6.078,7.496-13.705,11.064-20.378c0.688-1.286-0.462-3.087-1.991-2.59c-10.582,3.444-21.567-5.877-31.795-8.057
				c-5.845-1.246-11.527-1.089-16.901,0.65c1.124-1.182,2.358-2.284,3.771-3.321c1.434-1.052,1.123-3.708-0.983-3.63
				c-11.873,0.44-23.286,2.886-33.614,8.6c0.5-2.512,1.703-4.77,3.264-7.112c0.852-1.277-0.564-3.077-2.007-2.61
				c-11.271,3.644-21.647,9.672-29.757,18.283c0.298-2.482,1.199-4.74,2.858-6.918c1.328-1.743-1.133-3.332-2.66-2.66
				c-14.445,6.352-23.756,23.863-24.79,38.97c-0.012,0.173,0.01,0.332,0.046,0.482c-5.68,4.694-10.842,9.85-15.15,15.322
				c-13.233,16.808-16.854,38.404-12.029,59.043c2.561,10.955,7.309,21.353,13.286,30.853c5.944,9.447,14.861,17.913,17.853,28.919
				c5.171,19.021-5.473,35.617-16.866,50.982c-30.919,31.706-43.513,78.652-42.177,122.1c0.751,24.427,5.207,50.57,17.286,72.085
				c12.112,21.573,32.879,37.799,54.44,49.25c43.522,23.114,94.66,27.584,143.121,25.41c47.726-2.141,96.557-10.308,139.573-31.974
				c42.324-21.318,99.845-70.227,78.582-123.639c3.221,0.819,6.486,1.462,9.792,1.914c1.539,0.21,3.21-0.917,2.676-2.676
				c-4.083-13.434-11.778-26.175-22.89-34.93c1.242-4.51,1.293-9.668,1.652-14.245c0.455-5.8,0.459-11.602,0.579-17.412
				c0.02-0.956-1.072-1.973-2.057-1.567c-7.292,3.003-14.084,6.516-20.736,10.775c-5.333,3.415-13.485,7.616-16.64,13.372
				c-2.421-0.022-4.843,0.067-7.26,0.249c-7.352-7.893-20.924-9.276-30.733-12.146c-12.155-3.556-24.639-8.25-33.263-17.966
				c-8.634-9.726-12.053-24.151-8.939-36.748c1.462-5.912,4.258-11.449,8.088-16.18c1.88-2.322,3.982-4.468,6.274-6.384
				c0.873-0.73,1.819-1.376,2.763-2.024c-0.4,1.177-0.821,2.33-1.219,3.444c-0.679,1.903,1.634,3.262,3.193,2.455
				c5.249-2.717,9.672-6.532,13.1-11.182c-0.392,9.012-2.456,17.77-6.183,26.142c-0.716,1.608,0.517,4.216,2.614,3.4
				c10.342-4.024,18.509-12.055,22.112-22.646c0.878-2.581,1.152-6.279,2.923-8.437c2.6-3.168,7.366-1.98,10.865-3.448
				c4.39-1.841,7.274-5.682,8.513-10.189c0.371-1.348-0.499-2.529-1.732-2.85c0.188-0.566,0.341-1.132,0.499-1.698
				c2.262,1.037,3.869,3.072,4.375,6.519c0.838,5.711-2.538,11.166-5.248,15.913c-1.001,1.755,1.039,3.497,2.715,2.975
				c5.643-1.758,10.665-4.741,14.853-8.72c-1.961,8.804-5.525,17.066-10.657,24.659c-0.986,1.458-0.228,4.241,1.979,3.804
				c10.886-2.154,20.331-8.634,25.73-18.432c1.316-2.388,2.231-5.981,4.353-7.796c3.114-2.665,7.599-0.662,11.3-1.496
				c4.644-1.046,8.155-4.323,10.163-8.544c0.6-1.262-0.049-2.578-1.207-3.109c3.248-5.995,4.529-12.348,4.277-19.38
				c-0.054-1.516-1.975-1.505-2.633-0.467c-3.037,4.787-6.95,8.996-11.324,12.603c1.246-4.925,1.245-9.998,0.445-15.19
				c-0.254-1.652-2.288-1.949-3.108-0.552c-1.528,2.604-2.983,5.221-4.955,7.527c-0.627,0.733-1.78,2.215-3.009,3.464
				c0.807-4.426,1.009-8.883,0.581-13.389c-0.147-1.547-2.169-1.78-2.871-0.51c-1.531,2.77-3.537,5.037-6.04,6.784
				c0.164-2.497-0.123-5.077-1.268-7.208c-0.291-0.541-0.947-0.677-1.494-0.693c-2.532-0.071-5.104,4.257-6.434,6.759
				c-6.439-1.935-13.262-2.661-19.343-5.669c-1.346-0.666-2.629-1.43-3.858-2.264c1.824-2.681,3.362-5.511,4.546-8.504
				c1.38,0,2.761-0.027,4.143-0.1c4.577-0.241,8.904-1.029,13.179-2.141c1.062,2.695,1.664,5.357,1.277,8.499
				c-0.161,1.309,1.285,2.371,2.436,1.556c3.786-2.682,6.194-6.55,7.214-10.927c2.293,2.576,3.631,5.702,3.939,9.322
				c0.101,1.193,1.297,1.814,2.37,1.493c2.673-0.802,3.869-4.592,4.898-6.862c0.849-1.874,1.471-3.749,1.84-5.675
				c1.336,4.348,1.767,8.877,2.061,13.507c0.083,1.313,1.933,1.934,2.754,0.869c3.554-4.611,6.17-9.62,7.534-15.109
				c1.66,6.111,1.686,12.372,0.056,18.757c-0.329,1.291,1.497,2.573,2.544,1.625c4.851-4.394,8.779-9.53,11.231-15.638
				c1.078-2.686,3.52-7.849,2.847-11.328c4.149-2.206,6.359-6.104,6.64-10.873c0.239-4.066-0.957-8.241,0.518-12.183
				c1.283-3.428,3.789-6.224,4.375-9.944c0.492-3.125-0.562-6.24-0.222-9.363C484.081,105.456,486.223,101.784,487.549,97.999z
				 M459.608,186.852c-0.744,4.522-2.49,8.851-4.967,12.733c-1.874-0.581-3.669-1.252-5.403-2.019
				C453.327,194.546,456.72,190.967,459.608,186.852z M447.141,183.164c0.568,4.205-0.316,8.341-2.211,12.237
				c-1.81-1.025-3.576-2.165-5.321-3.443C442.512,190.091,445.292,186.354,447.141,183.164z M435.973,180.024
				c0.014,2.858-0.223,5.693-0.73,8.531c-1.576-1.231-3.161-2.396-4.796-3.471C432.545,183.675,434.391,181.97,435.973,180.024z
				 M426.386,177.84c0.247,1.493,0.111,3.287-0.097,4.827c-0.785-0.394-1.586-0.767-2.414-1.103
				C424.618,180.387,425.608,178.815,426.386,177.84z M414.739,183.262c4.363,0.968,8.697,2.096,12.554,4.428
				c3.668,2.218,6.713,5.324,10.033,7.998c4.991,4.019,10.604,7.036,16.747,8.681c-1.504,2.034-3.648,3.479-6.355,3.827
				c-2.752,0.354-5.488-0.688-8.235-0.018c-3.432,0.838-5.523,3.581-7.147,6.546c-2.529,4.617-4.587,8.962-8.513,12.62
				c-3.157,2.942-6.828,5.156-10.815,6.629c5.13-9,8.306-18.862,9.396-29.274c0.201-1.92-2.469-3.726-3.793-1.787
				c-3.365,4.929-7.625,8.675-12.764,11.216c3.548-7.733,5.569-17.256-2.213-23.001c-0.729-0.538-1.476-0.942-2.237-1.258
				c-0.041,0.201-0.093,0.406-0.159,0.615c-0.095,0.298-0.199,0.592-0.297,0.888c0.684-4.054,0.633-8.155-0.069-12.393
				C405.15,180.828,409.807,182.168,414.739,183.262z M314.343,100.733c3.897,1.447,7.732,2.985,11.904,3.442
				c2.019,0.221,4.765,0.21,7.285-0.363c-2.653,2.35-5.657,4.3-8.887,5.727c-4.687,1.077-9.697,1.284-14.922,2.237
				c-0.377,0.069-0.75,0.151-1.121,0.236c-1.462-3.589-1.522-7.64-2.263-11.406c-0.088-0.449-0.186-0.899-0.291-1.349
				C308.862,99.286,311.351,99.623,314.343,100.733z M182.599,192.103c-3.877,1.406-7.436,3.242-10.729,5.536
				c4.372-11.024,12.437-20.057,23.051-25.789c1.696-0.916,0.801-3.33-0.93-3.432c-3.114-0.184-6.11,0.115-9,0.838
				c7.092-6.445,15.095-11.464,24.156-15.336c2.25-0.962,0.796-3.973-1.124-4.15c-3.919-0.361-7.818-0.284-11.653,0.28
				c2.935-2.314,6.089-4.326,9.523-5.962c6.702-3.192,14.125-4.177,21.142-6.432c5.544-1.782,12.096-5.256,15.804-10.308
				c-0.044,0.683-0.117,1.37-0.231,2.063c-1.182,7.148-4.742,13.886-9.917,18.917c-4.02,2.641-8.645,4.578-13.211,7.29
				c-8.577,5.093-13.702,14.124-20.928,20.78c-4.659,4.291-10.589,9.648-14.865,15.638
				C183.367,191.952,183.005,191.956,182.599,192.103z M183.696,213.34c-2.723-8.669,1.898-17.349,7.964-23.753
				c6.273-6.623,13.325-12.039,19.004-19.262c2.937-3.736,5.815-7.449,9.726-10.235c4.102-2.923,8.887-4.684,13.095-7.429
				c4.03-2.628,8.047-6.245,9.279-10.88c1.063-1.698,1.973-3.496,2.683-5.395c1.682-4.494,2.419-9.262,2.15-14.051
				c-0.205-3.653-1.192-7.319-0.699-10.994c0.414-3.084,1.887-5.948,3.139-8.755c9.76-21.892,3.46-46.784-9.33-66.117
				c10.382,2.647,19.541,9.002,26.565,17.125c3.039,5.263,6.277,10.165,7.24,16.563c1.126,7.485,2.359,15.033,3.987,22.435
				c0.135,0.613,0.996,0.568,0.988-0.086c-0.107-8.574,0.147-18.144-1.949-26.499c-0.452-1.801-1.188-3.631-2.095-5.438
				c6.089-3.58,11.387,19.12,12.62,22.344c0.491,1.284,1.065,2.536,1.748,3.72c1.28,4.492,2.712,8.957,3.642,13.541
				c1.371,6.758,1.817,13.681,3.406,20.39c0.168,0.708,1.315,0.555,1.395-0.127c0.875-7.498-0.61-15.121-2.245-22.424
				c-0.448-2.001-0.921-4.046-1.448-6.09c3.262,2.571,5.96,4.303,7.01,9.098c1.45,6.621,1.663,11.921,5.492,17.705
				c2.99,4.517,2.416,7.949,3.142,12.937c0.481,3.305,2.019,5.939,3.797,8.7c2.735,4.248,5.135,8.009,1.792,12.774
				c-1.825,2.602-4.473,4.713-7.055,6.502c-6.678,4.627-13.491,8.893-19.466,14.452c-6.161,5.733-11.084,12.589-17.946,17.574
				c-7.34,5.333-15.713,9.176-23.898,13.007c-2.019,0.945-1.986,3.364-0.167,4.477c12.913,7.903,25.736,6.299,39.483,1.853
				c4.253-1.375,8.56-2.598,13.068-2.54c4.286,0.055,8.484,1.191,12.702,1.815c6.339,0.938,12.707,0.696,18.836-0.997
				c-0.267,2.515-1.384,4.847-3.541,6.518c-2.194,1.699-5.08,2.186-7.109,4.155c-2.536,2.461-2.949,5.885-2.847,9.265
				c0.158,5.261,0.584,10.05-0.948,15.193c-1.232,4.135-3.276,7.904-5.968,11.194c-0.135-10.358-2.392-20.471-6.725-30.001
				c-0.799-1.757-4.016-1.962-4.175,0.381c-0.405,5.955-2.181,11.342-5.325,16.136c-0.857-8.464-3.937-17.7-13.558-18.712
				c-5.732-0.603-9.574,3.397-13.596,6.799c-4.592,3.883-9.566,7.188-14.865,9.971c0.246-2.591,0.495-5.183,0.735-7.775
				c0.144-1.556-1.409-3.522-3.143-2.618c-3.664,1.911-7.161,4.011-10.515,6.347c1.173-3.277,2.519-6.483,4.079-9.626
				c1.042-2.098-1.572-3.669-3.158-2.615c-1.137-0.01-11.063,2.117-11.135,2.542c0.384-2.26,0.745-4.693-0.257-6.754
				c-3.25-6.687-16.258,3.402-15.287,6.608c-1.531-5.058-1.459-10.45,0.565-15.508c0.853-2.13-1.734-3.596-3.281-2.049
				c-3.844,3.843-7.481,7.961-10.887,12.242c1.487-8.258,4.3-16.149,8.491-23.512c0.315,1.466,0.673,2.91,1.031,4.301
				c0.384,1.487,2.827,1.934,3.666,0.613c1.485-2.339,3.124-4.538,5.034-6.552c0.771-0.813,1.58-1.529,2.346-2.271
				c-0.373,2.751-0.357,5.576-0.091,8.337c0.159,1.643,2.31,2.338,3.368,1.042c0.831-1.018,1.744-1.91,2.768-2.653
				c-0.859,3.762,0.34,9.235,1.734,11.529c1.002,1.648,2.674,1.659,4.167,0.672c2.449-1.619,6.258-3.956,7.431-6.718
				c0.498-1.173-0.314-2.294-1.598-2.079c-1.657,0.277-2.682,1.148-3.968,2.185c-0.681,0.549-1.361,1.098-2.042,1.647
				c-0.248,0.2-0.767,0.756-1.218,1.177c-0.693-1.76-0.746-4.699-0.781-5.955c-0.038-1.378,0.18-2.89-0.157-4.232
				c1.587-0.483,3.106-0.673,4.509-1.707c0.457-0.337,0.517-1.077,0.045-1.438c-3.374-2.58-8.164-0.219-11.412,2.615
				c-0.855-4.95,0.557-9.866,2.74-14.444c0.341-0.714-0.684-1.368-1.18-0.737c-1.38,1.756-2.391,3.68-3.111,5.703
				c-0.057,0.002-0.113-0.008-0.171,0.003c-3.887,0.745-7.07,4.181-9.517,7.688c-1.693-6.036-1.391-12.312,1.912-17.993
				c0.3-0.516-0.425-1.039-0.867-0.713c-4.988,3.673-5.98,9.02-5.5,14.537c-0.624-0.104-1.274-0.016-1.817,0.351
				c-3.909,2.645-7.329,5.596-10.568,8.699c-0.056,0.042-0.115,0.066-0.168,0.122c-0.072,0.076-0.137,0.16-0.208,0.237
				C191.319,205.249,187.628,209.296,183.696,213.34z M318.289,157.529c2.139,2.392,2.434,10.717,2.51,12.927
				c0.099,2.86-0.126,5.656-0.617,8.419c-2.608-5.813-6.503-10.865-11.508-14.901C312.059,162.073,315.597,160.249,318.289,157.529z
				 M307.799,181.124c-2.838-3.654-6-6.95-10.246-8.861c-0.062-0.107-0.117-0.217-0.181-0.323c2.452-2.076,5.019-4.02,7.709-5.805
				C307.131,170.965,307.947,175.949,307.799,181.124z M297.303,184.952c-2.373-2.31-5.231-3.919-8.47-4.761
				c1.833-2.006,3.748-3.931,5.742-5.77c1.163,2.084,1.784,4.22,2.161,6.679C296.839,181.772,297.174,183.434,297.303,184.952z
				 M285.965,192.337c-1.256-1.593-2.743-2.937-4.521-3.867c1.281-1.347,2.536-2.737,3.777-4.165
				C286.126,186.958,286.341,189.609,285.965,192.337z M293.759,204.909c0.045-1.39,0.102-3.247,0.28-4.482
				c0.969,1.163,1.761,2.779,2.361,4.211C295.523,204.696,294.644,204.78,293.759,204.909z M301.209,204.617
				c1.096-2.278,1.825-4.683,2.202-7.162c1.46,2.457,2.691,5.022,3.691,7.726C305.12,204.917,303.163,204.715,301.209,204.617z
				 M312.59,205.903c1.558-3.08,2.062-7.711,2.041-11.397c2.619,3.338,3.952,7.352,4.291,11.671
				C316.842,206.21,314.742,206.122,312.59,205.903z M323.733,205.863c1.997-4.676,3.109-9.481,3.515-14.491
				c1.649,4.276,2.335,8.893,2.166,13.495C327.504,205.315,325.617,205.646,323.733,205.863z M445.08,352.262
				c0.74,0.298,1.477,0.605,2.224,0.885c0.533,0.199,1.069,0.385,1.604,0.573c-4.501,14.974-14.846,26.905-26.711,36.873
				c-14.949,12.56-32.79,17.283-52.133,15.706c-9.342-0.761-18.522-2.828-27.523-5.383c-2.958-0.84-6.047-1.817-8.993-3.091
				c7.28,2.023,15.032,2.95,22.029,3.678c14.72,1.531,29.931,0.555,43.982-4.315C419.079,390.422,440.777,373.615,445.08,352.262z
				 M434.738,347.455c1.779,0.468,3.532,1.787,5.277,2.613c0.857,0.406,1.728,0.783,2.597,1.162
				c-2.053,4.752-4.31,9.363-6.996,13.702C435.373,359.11,435.203,353.259,434.738,347.455z M452.102,359.433
				c1.654,4.554,2.626,9.178,3.013,13.809c-3.406-0.379-6.965-0.142-10.414,0.331C447.713,369.131,450.246,364.41,452.102,359.433z
				 M384.425,380.667c5.129,4.522,11.458,8.159,17.675,11.321c-1.431,0.551-2.873,1.072-4.33,1.541
				c-8.272,2.664-16.897,4.003-25.565,4.297c1.001-2.904,2.159-5.745,3.537-8.495c0.738-1.472,1.529-2.916,2.37-4.332
				c0.439-0.74,1.216-1.652,1.215-2.586c-0.001-1.969-2.956-4.527-4.141-5.818c-1.548-1.687-3.206-3.283-4.977-4.74
				c5.479-3.265,10.895-7.049,15.974-11.272c-0.67,3.616-1.298,7.239-1.913,10.865C383.8,374.216,381.967,378.499,384.425,380.667z
				 M373.463,377.061c0.92,0.965,1.806,1.964,2.645,2.999c1.464,1.807,1.565,2.592,0.428,4.539
				c-2.391,4.096-4.307,8.435-5.842,12.917c-3.707-3.634-7.415-7.266-11.125-10.897c2.031-3.654,3.725-7.494,4.862-11.514
				c0.805-0.425,1.606-0.857,2.398-1.297c0.638-0.354,1.275-0.72,1.912-1.089C370.381,374.095,371.979,375.504,373.463,377.061z
				 M357.992,386.379c-0.164,0.287-0.121,0.674,0.117,0.908c3.59,3.536,7.182,7.071,10.775,10.604
				c-3.185,0.011-6.371-0.114-9.542-0.365c-3.988-0.315-7.955-0.837-11.895-1.519c0.416-0.85,0.696-1.871,0.961-2.453
				c0.654-1.437,2.032-3.346,2.05-4.971c0.015-1.355-1.382-2.333-2.291-3.161c-0.907-0.827-1.882-1.658-2.908-2.404
				c6-1.748,11.849-4.186,17.422-7.016C361.401,379.583,359.894,383.048,357.992,386.379z M348.035,387.375
				c0.59,0.861,0.759,1.299,0.442,2.499c-0.189,0.716-0.644,1.432-0.946,2.105c-0.215,0.479-1.198,3.419-1.645,3.753
				c-0.18-0.033-0.36-0.069-0.539-0.103c-0.834-0.455-2.115-1.956-2.509-2.321c-0.565-0.522-1.13-1.043-1.695-1.564
				c-0.835-0.771-0.927-0.69-0.948-1.893c-0.037-2.165,1.711-4.023,2.393-6.103c0.256-0.065,0.514-0.124,0.77-0.192
				C345.038,384.689,346.957,385.802,348.035,387.375z M409.103,363.666c2.862-1.597,5.677-3.278,8.424-5.067
				c0.286-0.186,0.564-0.383,0.848-0.571c4.575,4.074,9.966,7.127,15.694,9.286c-2.308,3.424-4.92,6.655-7.965,9.617
				c-5.348,5.202-11.618,9.38-18.348,12.601C408.955,380.962,409.409,372.327,409.103,363.666z M419.399,357.34
				c1.869-1.256,3.718-2.542,5.505-3.915c2.172-1.668,4.272-4.288,6.621-5.615c0.575-0.324,1.145-0.478,1.713-0.514
				c0.125,6.173,0.596,12.367,0.951,18.532C428.782,363.79,423.927,360.889,419.399,357.34z M426.405,346.516
				c-2.779,2.483-5.677,4.865-8.671,7.084c-4.595,3.407-9.5,6.261-14.64,8.705c0.659-8.374,2.287-16.485,4.725-24.545
				c5.283,5.22,13.163,7.722,20.453,6.914C427.617,345.321,427,345.984,426.405,346.516z M407.56,364.508
				c0.252,8.643-0.238,17.269-1.49,25.821c-0.667,0.3-1.342,0.579-2.016,0.86c-5.586-2.877-10.964-6.12-16.085-9.774
				c-0.589-0.42-1.4-0.824-1.886-1.37c-1.702-1.914-1.226-3.315-0.919-5.249c0.315-1.98,0.633-3.96,0.945-5.941
				c0.493-3.128,0.968-6.258,1.405-9.395c1.595-1.367,3.148-2.783,4.66-4.235c0.971,0.616,2.181,0.999,3.154,1.482
				c1.285,0.638,2.559,1.299,3.836,1.953c-0.235,2.328-0.406,4.664-0.503,7.009c-0.071,1.7,1.815,2.486,3.17,1.819
				C403.763,366.538,405.669,365.536,407.56,364.508z M393.529,353.904c2.797-2.784,5.425-5.711,7.813-8.773
				c-0.881,3.927-1.541,7.899-2.001,11.899c-1.052-0.594-2.116-1.168-3.195-1.721C395.343,354.897,394.449,354.311,393.529,353.904z
				 M367.773,368.981c-7.331,4.327-15.154,7.88-23.281,10.423c-4.466,1.398-9.095,2.46-13.787,2.639
				c-3.146,0.12-6.043-0.672-8.994-1.236c0.436-0.221,0.941-0.413,1.539-0.567c1.8-0.463,4.175-0.143,6.077-0.36
				c3.946-0.45,7.83-1.305,11.615-2.503c7.478-2.367,14.553-5.948,21.207-10.07c7.548-4.676,14.859-9.946,21.699-15.61
				c5.886-4.874,11.519-10.366,14.416-17.508c1.585,0.773,3.138,1.521,4.636,2.269C392.714,349.315,382.182,360.476,367.773,368.981
				z M236.825,243.986c3.644-2.917,7.454-5.531,11.484-7.83c-0.265,2.559-0.532,5.118-0.791,7.678
				c-0.169,1.665,1.428,3.498,3.212,2.675c2.795-1.29,5.431-2.719,7.979-4.255c3.211,2.369,7.888,3.707,11.849,3.748
				c-1.308,2.959-2.39,6.021-3.252,9.159c-1.489,0.456-2.888,1.163-4.453,1.479c-1.977,0.4-4.019,0.544-6.034,0.566
				c-3.599,0.04-7.19-0.391-10.681-1.268c-6.676-1.676-12.943-5.034-18.216-9.471c3.065-6.332,6.896-12.238,10.16-18.533
				c0.141-0.062,0.281-0.128,0.423-0.19c-2.108,4.535-3.837,9.192-5.207,14.031C232.763,243.664,235.366,245.154,236.825,243.986z
				 M290.198,270.393c0.146,1.065,0.349,2.111,0.579,3.146c-3.715,1.803-7.633,2.372-11.757,1.985
				c-2.624-0.246-6.778-0.703-9.251-2.568c-0.059-5.299,0.587-10.572,1.81-15.73c5.081,4.006,12.825,5.178,18.69,2.522
				C289.795,263.408,289.736,267.02,290.198,270.393z M290.461,258.395c-6.71,2.196-12.952,1.534-18.634-2.178
				c1.055-4.188,2.477-8.298,4.2-12.279c3.541,3.263,10.216,4.002,14.632,3.421c0.003,0.294,0.006,0.587,0.01,0.875
				c0.014,1.124,0.838,1.766,1.77,1.892C291.56,252.843,290.898,255.625,290.461,258.395z M282.111,245.482
				c-2.165-0.524-3.874-1.495-5.608-2.635c2.139-4.765,4.691-9.341,7.543-13.64c1.066,0.561,2.102,1.419,3.089,2.647
				c3.189,3.97,3.449,9.429,3.513,14.412C287.813,245.892,284.945,246.168,282.111,245.482z M276.626,235.245
				c-1.071-0.366-2.357-0.269-3.448-0.684c-0.712-0.271-1.408-0.65-2.062-1.092c0.713-0.572,1.426-1.138,2.138-1.727
				c2.892-2.391,5.924-3.767,8.806-3.236C280.077,230.635,278.272,232.891,276.626,235.245z M272.483,235.561
				c0.889,0.383,2.192,0.872,3.333,0.858c-1.756,2.635-3.31,5.391-4.651,8.248c-2.398-0.238-4.746-0.473-7.082-1.279
				c-1.444-0.498-2.763-1.205-4.079-1.92c3.544-2.218,6.912-4.664,10.245-7.299C270.898,234.721,271.62,235.19,272.483,235.561z
				 M246.585,257.369c3.741,0.895,7.605,1.306,11.45,1.174c2.589-0.089,6.259-0.202,8.808-1.566
				c-0.92,3.76-1.519,7.621-1.787,11.546c-3.874,0.728-7.583,1.68-11.597,1.766c-4.319,0.093-8.619-0.493-12.856-1.287
				c-6.949-1.303-13.362-3.821-17.25-9.74c0.35-1.606,0.779-3.207,1.296-4.801c0.823-2.533,1.831-4.958,2.949-7.323
				C232.911,252.188,239.397,255.65,246.585,257.369z M239.31,270.232c8.06,1.637,17.645,2.751,25.647-0.094
				c-0.007,0.152-0.022,0.302-0.028,0.453c-0.115,2.985,0.031,5.913,0.419,8.77c-7.216,4.711-14.873,5.627-23.388,4.593
				c-6.398-0.777-12.922-1.786-18.378-5.15c-1.49-5.903-1.631-11.897-0.564-17.843C226.375,266.383,233.27,269.006,239.31,270.232z
				 M240.993,285.232c8.046,1.085,17.934,1.086,24.609-4.316c0.765,4.539,2.149,8.885,4.097,12.982
				c-5.554,3.478-11.49,5.935-18.032,6.879c-5.572,0.804-11.041,0.363-16.458-0.763c-4.488-5.088-8.15-10.837-10.496-17.408
				c-0.227-0.635-0.417-1.274-0.611-1.912C228.999,283.729,235.681,284.516,240.993,285.232z M270.328,295.208
				c3,5.867,7.167,11.191,12.323,15.777c0.009,0.008,0.019,0.016,0.028,0.024c-4.181,2.37-8.087,4.721-12.796,6.129
				c-3.502,1.046-7.008,1.389-10.552,1.784c-8.152-4.778-16.109-10.372-22.578-17.22
				C248.042,304.267,260.969,301.666,270.328,295.208z M270.656,318.281c4.489-1.354,9.387-3.363,13.076-6.376
				c5.023,4.285,10.547,7.764,16.376,10.681c-0.01,0.006-0.02,0.006-0.03,0.013c-2.73,1.846-5.119,4.017-8.033,5.622
				c-2.363,1.302-4.852,2.31-7.377,3.235c-6.507-2.724-12.904-5.703-19.13-9.044c-1.371-0.736-2.745-1.496-4.117-2.274
				C264.592,319.898,267.802,319.142,270.656,318.281z M300.786,323.517c0.135-0.159,0.159-0.358,0.118-0.539
				c5.685,2.784,11.64,5.059,17.677,7.069c-2.455,1.039-4.793,2.399-6.977,3.853c-2.241,1.492-4.706,3.188-6.679,5.206
				c-6.24-2.147-12.434-4.429-18.534-6.934C291.758,330.578,297.387,327.51,300.786,323.517z M312.276,335.049
				c2.728-1.797,5.534-3.141,8.51-4.278c1.766,0.568,3.535,1.119,5.306,1.653c4.225,1.275,8.477,2.472,12.718,3.706
				c-0.022,0.005-0.044,0.006-0.067,0.011c-2.31,0.508-4.517,1.459-6.568,2.625c-2.987,1.698-6.014,3.884-8.489,6.432
				c-1.063-0.331-2.123-0.66-3.172-0.988c-4.708-1.476-9.41-2.997-14.088-4.589C308.352,338.068,310.211,336.408,312.276,335.049z
				 M333.918,339.299c2.46-1.241,5.081-2.052,7.834-2.254c0.048-0.003,0.095-0.005,0.142-0.008
				c3.656,1.088,7.297,2.222,10.895,3.484c2.603,0.912,5.183,1.914,7.686,3.077c-5.576,2.118-12.33,5.07-15.412,10.226
				c-6.069-3.666-13.071-6.026-19.935-8.177C327.945,343.382,330.626,340.959,333.918,339.299z M352.541,348.928
				c3.05-1.878,6.383-3.213,9.731-4.459c1.151,0.584,2.283,1.204,3.387,1.878c3.288,2.006,5.949,4.729,9.019,6.974
				c-5.718,4.314-11.792,8.176-17.915,11.544c-2.741-4.264-6.293-7.531-10.31-10.161
				C348.143,352.481,349.873,350.571,352.541,348.928z M389.483,340.079c-0.021-0.035-0.032-0.07-0.055-0.106
				c-1.533-2.341-3.193-4.522-4.953-6.575c1.075-0.755,2.109-1.597,3.277-2.206c0.865-0.451,1.878-0.738,2.844-1.086
				c1.599,0.969,3.261,1.867,4.934,2.719C393.67,335.331,391.643,337.749,389.483,340.079z M385.167,342.465
				c0.295,0.461,0.669,0.758,1.073,0.937c-2.923,2.872-6.04,5.596-9.295,8.168c-0.971-2.115-2.474-3.958-4.252-5.572
				c0.022-0.027,0.041-0.055,0.064-0.082c0.923-1.1,1.94-2.115,3.042-3.036c2.128-1.778,4.448-2.85,6.894-3.968
				C383.556,340.059,384.384,341.241,385.167,342.465z M375.118,341.647c-1.047,0.866-2.466,2.063-3.536,3.404
				c-2.467-2.002-5.305-3.63-7.916-4.989c-2.829-1.472-5.769-2.727-8.76-3.861c0.636-0.537,1.263-1.087,1.93-1.566
				c1.659-1.192,3.434-2.218,5.289-3.073c3.527-1.626,7.167-2.449,10.975-2.789c3.155,2.693,6.065,5.665,8.665,8.945
				C379.34,338.554,377.035,340.061,375.118,341.647z M362.182,330.049c-2.72,1.192-6.504,3.078-8.773,5.593
				c-3.825-1.391-7.721-2.6-11.583-3.788c-1.749-0.538-3.506-1.062-5.266-1.584c2.957-2.194,5.721-4.744,8.519-7.069
				c1.785-1.483,3.543-3.03,5.474-4.323c1.299-0.869,2.731-1.37,4.118-1.964c6.005,2.946,11.736,6.419,16.889,10.574
				C368.329,327.849,365.146,328.751,362.182,330.049z M346.35,320.398c-3.716,3.055-7.775,6.038-11.245,9.442
				c-7.208-2.128-14.457-4.224-21.485-6.842c0.341-0.145,0.676-0.285,0.998-0.411c2.674-1.049,5.305-2.255,7.758-3.756
				c3.524-2.157,8.558-6.008,9.67-10.357c6.768,2.153,13.571,4.237,20.02,7.203c0.198,0.091,0.392,0.187,0.589,0.279
				C350.298,317.015,348.062,318.991,346.35,320.398z M327.741,312.736c-1.618,1.857-3.564,3.427-5.636,4.748
				c-2.004,1.278-4.143,2.331-6.32,3.278c-1.159,0.504-2.407,1.105-3.684,1.66c-6.174-2.381-12.161-5.198-17.773-8.847
				c-0.691-0.449-1.363-0.922-2.035-1.393c7.694-1.051,14.981-5.467,19.879-11.378c0.052,0.027,0.102,0.058,0.155,0.085
				c5.896,3.028,12.163,5.163,18.482,7.187C329.783,309.619,328.996,311.296,327.741,312.736z M290.751,311.064
				c-5.898-4.394-10.952-9.658-14.62-15.726c7.439,1.702,16.257-1.383,22.227-5.895c3.382,4.29,7.641,7.911,12.535,10.661
				c0.007,0.008,0.014,0.016,0.021,0.024C305.615,306.389,298.548,309.787,290.751,311.064z M285.475,293.944
				c-3.511,0.782-6.944,0.653-10.266-0.194c-3.203-5.806-5.167-12.295-5.416-19.42c2.098,1.394,5.092,1.895,7.32,2.257
				c4.716,0.765,9.679,0.453,13.976-1.724c1.265,4.899,3.451,9.422,6.372,13.418C293.667,290.653,290.007,292.934,285.475,293.944z
				 M303.66,253.318c0.876,0.303,1.782,0.557,2.64,0.551c0.082,2.375,0.058,4.765-0.094,7.172c-0.111,1.756,1.951,3.773,3.633,2.278
				c2.977-2.645,5.502-5.681,7.515-8.998c1.651,0.432,3.526,0.477,5.109-0.026c0.024,4.011,0.579,8.016,1.662,11.898
				c-5.628,2.724-11.062,4.782-17.512,3.836c-4.711-0.691-9.125-2.898-12.531-6.201c-0.034-3.06,0.29-6.135,1.014-9.186
				c0.4-1.685,0.933-3.301,1.539-4.881C298.825,251.222,301.167,252.456,303.66,253.318z M297.077,248.67
				c1.879-4.591,4.315-8.898,6.043-13.57c1.767,5.679,2.799,11.508,3.115,17.446C303.018,252.251,299.779,250.373,297.077,248.67z
				 M305.545,367.455c-11.614-2.201-23.14-4.871-34.54-7.999c-3.397-0.932-6.786-1.906-10.098-3.108
				c-6.451-2.34-12.558-5.526-18.599-8.781c-12.811-6.902-25.63-14.318-35.638-24.883c-9.79-10.335-16.375-23.292-20.379-36.873
				c-3.879-13.155-6.941-29.323-5.132-43.074c0.567-4.31,1.459-8.58,2.692-12.754c2.676-9.056,7.317-16.679,11.871-24.715
				c1.741-1.362,3.542-2.655,5.375-3.865c-3.953,8.687-6.042,18.016-6.143,27.732c-0.026,2.49,3.213,2.364,4.222,0.732
				c2.898-4.688,6.128-8.953,9.714-12.986c-0.686,5.096,0.075,10.205,2.466,15.179c0.897,1.866,3.214,1.936,4.246,0.159
				c2.447-4.212,5.74-7.714,9.684-10.435c-0.191,3.551,0.147,7.04,0.99,10.643c0.428,1.829,2.755,1.644,3.795,0.634
				c0.808-0.784,1.67-1.477,2.567-2.11c-6.921,10.101-12.602,22.114-13.663,34.153c-1.233,13.989,4.933,27.414,14.099,37.681
				c9.752,10.923,22.709,18.676,35.637,25.257c13.727,6.988,28.17,12.486,42.758,17.379c14.222,4.771,32.823,7.912,41.565,21.428
				c-0.897,0.464-1.793,0.922-2.688,1.364c-4.502,2.226-9.184,4.068-14.051,5.325c-3.486,0.9-6.887,1.121-10.333,1.34
				C321.007,369.786,312.029,368.685,305.545,367.455z M321.485,388.391c-0.255-0.403-0.503-0.811-0.73-1.24
				c-0.801-1.512-1.174-2.866-0.973-3.992c5.565,3.667,14.943,2.404,20.72,1.108c0.192-0.043,0.382-0.098,0.574-0.143
				c-0.805,1.28-1.379,2.786-1.989,4.082c-0.492,1.044-1.041,1.973-0.408,3.064c0.819,1.412,2.632,2.68,3.98,3.826
				c-1.408-0.292-2.812-0.599-4.211-0.928C332.742,392.822,326.594,391.429,321.485,388.391z M89.403,36.645
				c3.028-4.724,6.779-8.207,10.893-11.539c-0.368,1.988-0.489,4.022-0.316,6.221c0.091,1.162,1.456,1.857,2.355,0.975
				c7.754-7.61,16.435-13.754,26.414-17.77c-1.474,2.65-2.486,5.436-2.149,8.644c0.168,1.596,1.816,2.941,3.39,1.945
				c8.9-5.627,18.748-9.551,29.174-10.492c-1.975,1.985-3.631,4.261-4.841,6.871c-0.931,2.008,1.29,3.696,3,2.315
				c8.878-7.173,21.369-4.402,30.941-0.356c6.409,2.708,12.772,6.19,19.66,5.572c-2.307,4.233-4.633,8.464-7.065,12.618
				c-3.915,6.687-8.947,8.77-16.262,10.165c-1.741,0.332-2.153,3.152-0.511,3.912c3.657,1.693,6.965,3.773,9.978,6.282
				c-10.8-1.136-21.618-1.036-32.444,0.409c-1.643,0.219-2.758,2.505-0.938,3.463c1.767,0.93,3.498,1.913,5.212,2.926
				c-9.528-1.441-19.056-2.883-28.586-4.316c-1.407-0.212-3.228,1.285-2.131,2.772c1.952,2.646,3.928,5.279,5.877,7.929
				c-1.914-0.975-3.833-1.935-5.896-2.559c-3.525-1.066-7.255-1.025-10.879-0.614c-7.878,0.893-19.368,4.645-24.911-2.588
				c2.002-2.821,4.169-5.517,6.442-8.061c9.094-10.18,19.565-17.88,33.314-20.017c15.084-2.345,30.502-0.622,45.609,0.444
				c1.208,0.085,1.494-1.799,0.387-2.146c-0.062-0.392-0.299-0.764-0.724-0.913c-21.463-7.532-47.392-9.306-69.127-2.027
				c-11.256,3.77-22.707,9.897-32.83,17.517C83.701,47.997,85.946,42.037,89.403,36.645z M88.578,54.29
				c5.22-3.639,10.667-6.852,16.076-9.626c12.644-6.487,26.212-8.331,40.289-8.046c2.401,0.049,4.789,0.188,7.169,0.387
				c-2.158,0.069-4.31,0.164-6.445,0.313c-11.26,0.785-22.372,3.487-31.598,10.235c-17.223,12.596-32.013,33.602-31.133,55.761
				c0.79,19.898,15.026,35.023,26.668,49.827c6.695,8.513,13.106,17.548,16.104,28.094c3.702,13.024,2.21,26.892-1.473,39.738
				c-5.686,19.832-17.338,37.191-25.547,55.882c-9.381,17.794-14.691,38.042-10.103,57.956c5.33,23.134,24.795,42.412,43.432,55.853
				c40.889,29.491,94.45,42.955,144.451,40.387c12.897-0.662,27.474-1.523,39.528-6.515c9.157-3.792,17.7-12.549,16.73-22.745
				c0.443,0.176,0.887,0.348,1.332,0.511c9.535,3.503,19.75,5.9,29.786,7.388c11.688,1.733,23.81,1.652,35.134-1.338
				c-7.725,8.272-15.673,16.218-24.589,23.314c-10.932,8.7-22.836,16.151-35.201,22.633c-26.64,13.967-55.89,23.761-85.5,28.976
				c-58.339,10.275-123.774-0.758-165.943-45.361c-18.269-19.323-29.493-42.868-34.287-68.449c-0.62-4.694-1.036-9.427-1.092-14.244
				c-0.175-15.137,2.137-30.265,6.857-44.65c4.693-14.301,12.171-26.959,20.267-39.547c3.426-5.326,7.153-10.812,10.451-16.521
				c0.038-0.04,0.077-0.073,0.114-0.119c16.372-20.65,20.942-55.362,9.927-79.335c-10.712-23.312-40.412-43.373-39.15-70.832
				c0.017-0.053,0.041-0.097,0.055-0.153c0.02-0.087-0.001-0.159-0.036-0.222c0.141-2.504,0.533-5.068,1.228-7.703
				C66.125,80.784,77.514,65.916,88.578,54.29z M86.972,210.109c0.561-2.682,0.885-5.367,0.978-8.035
				c2.38-0.108,4.784-0.018,7.128,0.367c1.206,0.198,2.401,0.473,3.573,0.818c0.401,0.118,1.465,0.367,2.475,0.719
				c-0.048,4.073-0.415,8.025-1.032,11.893c-3.853-2.519-9.207-3.425-13.641-3.527C86.639,211.605,86.815,210.861,86.972,210.109z
				 M86.683,190.342c2.012-0.102,4.024-0.16,6.036,0.031c2.625,0.249,5.062,0.904,7.516,1.708c0.478,2.749,0.774,5.579,0.866,8.507
				c0.021,0.655,0.028,1.305,0.033,1.953c-1.357-0.435-2.762-0.692-3.474-0.859c-3.237-0.758-6.451-0.911-9.693-0.489
				C88.018,197.519,87.62,193.882,86.683,190.342z M73.054,67.326c-3.093,3.948-5.91,8.095-8.286,12.404
				c-0.076-0.039-0.155-0.069-0.23-0.112c-0.333-0.192-0.632-0.412-0.92-0.642C66.349,74.828,69.533,70.94,73.054,67.326z
				 M63.019,79.889c0.272,0.208,0.551,0.405,0.838,0.583c0.125,0.077,0.254,0.155,0.385,0.232c-1.278,2.399-2.412,4.847-3.381,7.337
				c-0.197-0.105-0.389-0.202-0.554-0.299c-0.413-0.242-0.817-0.48-1.232-0.693C60.233,84.583,61.552,82.195,63.019,79.889z
				 M58.603,88.073c0.349,0.256,0.71,0.497,1.078,0.743c0.222,0.148,0.461,0.336,0.711,0.509c-0.77,2.118-1.409,4.268-1.912,6.441
				c-0.316-0.016-0.63-0.043-0.938-0.107c-0.547-0.112-1.052-0.291-1.537-0.506C56.711,92.763,57.567,90.398,58.603,88.073z
				 M55.646,96.386c0.785,0.424,1.658,0.751,2.51,0.875c-0.445,2.226-0.734,4.479-0.857,6.753c-1.013-0.266-1.982-0.803-3.009-1.258
				C54.628,100.618,55.073,98.492,55.646,96.386z M54.113,103.904c1.009,0.623,1.979,1.321,3.129,1.622
				c-0.062,3.04,0.195,6.118,0.797,9.223c-0.764,0.097-1.526,0.182-2.318,0.131c-0.745-0.049-1.471-0.175-2.186-0.355
				C53.45,110.972,53.624,107.422,54.113,103.904z M53.574,115.512c1.51,0.54,3.179,0.744,4.722,0.46
				c0.536,2.397,1.276,4.808,2.262,7.232c0.306,0.752,0.63,1.493,0.962,2.229c-1.114,0.148-2.261,0.771-3.377,0.923
				c-1.123,0.153-2.244,0.133-3.355-0.011C54.13,122.756,53.711,119.135,53.574,115.512z M55.016,127.51
				c1.074,0.214,2.167,0.287,3.304,0.156c1.158-0.133,2.746-0.353,3.698-1.168c1.411,2.99,3.023,5.852,4.772,8.626
				c-3.141,0.439-6.081,1.787-9.262,1.999C56.517,133.964,55.66,130.754,55.016,127.51z M57.899,138.304
				c0.952,0.03,1.923-0.123,2.916-0.328c2.176-0.448,4.617-0.845,6.731-1.682c2.201,3.39,4.6,6.654,7.068,9.874
				c-1.882,0.387-3.756,1.348-5.602,1.724c-1.572,0.32-3.168,0.436-4.771,0.46c-0.598,0.009-1.441,0.117-2.257,0.112
				C60.446,145.163,59.061,141.774,57.899,138.304z M65.708,155.728c-1.114-1.96-2.146-3.984-3.136-6.034
				c1.559,0.109,3.239-0.098,4.395-0.195c2.529-0.211,6.115-0.829,8.536-2.172c2.239,2.894,4.514,5.766,6.762,8.654
				c-2.369,0.875-4.693,1.821-7.189,2.413c-2.085,0.494-4.627,1.152-7.01,1.177C67.247,158.311,66.452,157.037,65.708,155.728z
				 M68.835,160.719c1.474-0.053,2.991-0.383,4.335-0.618c3.281-0.574,6.915-1.423,10.027-2.92c0.432,0.559,0.874,1.113,1.301,1.675
				c2.081,2.736,4.008,5.503,5.773,8.318c-2.692-0.289-5.984,0.635-8.38,1.297c-1.973,0.545-4.034,1.261-6.018,2.059
				C73.504,167.279,71.076,164.061,68.835,160.719z M76.753,171.745c1.287-0.454,2.558-1.097,3.666-1.442
				c1.819-0.567,3.683-1.019,5.563-1.329c1.64-0.27,3.42-0.191,5.025-0.625c1.817,2.997,3.431,6.058,4.811,9.208
				c-1.769-0.187-3.894,0.167-5.206,0.357c-2.857,0.413-5.579,1.288-8.275,2.271C80.634,177.274,78.731,174.487,76.753,171.745z
				 M83.345,181.939c-0.18-0.332-0.378-0.653-0.564-0.981c2.6-0.774,5.226-1.522,7.908-1.9c1.564-0.22,3.178-0.362,4.755-0.19
				c0.303,0.033,0.664,0.152,1.033,0.256c1.504,3.679,2.67,7.492,3.465,11.47c-4.249-1.465-9.115-1.981-13.514-1.134
				C85.683,186.892,84.668,184.376,83.345,181.939z M86.191,213.326c2.683,0.725,5.499,0.878,8.191,1.586
				c2.084,0.548,3.761,1.489,5.417,2.605c-1.003,5.596-2.533,11.026-4.405,16.394c-0.543-0.51-1.081-1.025-1.575-1.578
				c-1.25-1.399-2.476-2.594-4.128-3.509c-2.633-1.458-5.539-2.329-8.499-2.802C83.26,221.994,84.981,217.789,86.191,213.326z
				 M80.688,226.988c3.129,0.733,6.381,1.699,9.028,3.414c2.036,1.319,3.44,3.333,5.169,4.97c-1.655,3.205-3.35,6.362-5.086,9.484
				c-2.05-1.832-4.707-3.299-6.938-4.578c-2.376-1.362-5.196-3.032-8.006-3.728C76.966,233.451,78.942,230.279,80.688,226.988z
				 M74.218,237.47c2.524,1.482,5.466,2.466,7.986,3.93c2.381,1.383,4.527,3.292,6.832,4.805c-2.253,4.013-4.582,7.969-6.967,11.905
				c-1.998-2.58-5.065-4.618-7.776-6.323c-2.414-1.518-4.978-3.007-7.648-4.122C69.248,244.315,71.815,240.936,74.218,237.47z
				 M65.908,248.607c2.305,1.32,4.721,2.461,6.983,3.861c3.148,1.948,5.684,4.422,8.556,6.679
				c-2.257,3.701-4.586,7.384-6.961,11.071c-4.68-4.521-10.614-8.685-16.559-11.298C60.529,255.464,63.227,252.045,65.908,248.607z
				 M52.98,265.197c0.325-0.115,0.63-0.332,0.872-0.681c1.155-1.662,2.359-3.304,3.58-4.938c2.663,1.802,5.408,3.478,8.042,5.326
				c2.886,2.024,5.514,4.318,8.233,6.531c-0.197,0.304-0.387,0.608-0.585,0.913c-2.82,4.337-5.483,8.744-7.947,13.244
				c-5.028-4.381-11.41-7.981-17.851-9.904C49.092,272.138,50.974,268.638,52.98,265.197z M46.95,276.449
				c2.846,1.341,5.697,2.694,8.427,4.245c3.222,1.831,6.121,4.014,9.09,6.192c-1.961,3.655-3.777,7.378-5.438,11.176
				c-2.181-1.977-5.587-3.13-8.153-4.038c-3.268-1.157-6.82-2.434-10.3-3.064C42.488,286.042,44.61,281.199,46.95,276.449z
				 M40.204,291.917c2.848,1.403,6.198,2.038,9.148,3.044c1.982,0.676,3.934,1.44,5.789,2.416c1.144,0.602,2.177,1.41,3.28,2.07
				c-1.777,4.184-3.349,8.467-4.689,12.866c-5.869-2.486-12.22-4.469-18.571-5.25C36.625,301.946,38.301,296.891,40.204,291.917z
				 M34.867,308.09c6.267,1.636,12.387,3.307,18.458,5.633c-1.094,3.74-2.021,7.531-2.801,11.353c-1.557-0.07-3.081-0.175-4.63-0.55
				c-1.784-0.432-3.521-0.973-5.341-1.248c-1.509-0.228-3.033-0.353-4.545-0.56c-1.517-0.208-2.941-0.638-4.401-0.995
				C32.525,317.136,33.609,312.587,34.867,308.09z M31.4,322.807c2.636,1.548,6.358,1.43,9.206,1.916
				c3.28,0.559,6.348,1.812,9.644,1.803c-0.935,4.834-1.618,9.718-2.052,14.622c-1.461-0.025-2.96,0.204-4.417,0.206
				c-2.051,0.003-4.104-0.154-6.129-0.485c-2.923-0.477-5.829-1.302-8.606-2.392C29.615,333.212,30.395,327.984,31.4,322.807z
				 M28.926,339.588c2.808,1.25,5.71,2.143,8.814,2.649c3.075,0.501,7.127,1.094,10.342,0.312
				c-0.364,4.633-0.503,9.281-0.405,13.923c-3.923,0.798-7.381,1.179-11.429,0.367c-2.875-0.576-5.564-1.603-8.247-2.707
				C28.128,349.259,28.433,344.408,28.926,339.588z M27.98,355.217c3.016,1.602,6.401,2.603,9.73,3.143
				c3.202,0.52,6.983,0.747,9.996-0.702c0.157,5.532,0.551,11.196,1.375,16.795c-3.967,0.814-7.709,1.601-11.843,0.696
				c-3.413-0.747-6.458-2.41-8.948-4.798C27.997,365.293,27.88,360.243,27.98,355.217z M29.046,379.787
				c-0.288-2.684-0.498-5.365-0.673-8.045c5.315,5.11,13.985,6.552,20.912,4.02c0.769,4.81,1.885,9.553,3.448,14.116
				c-1.107,0.416-2.206,0.887-3.314,1.215c-2.472,0.732-5.012,1.258-7.592,1.367c-4.191,0.177-7.79-1.071-11.461-2.632
				C29.843,386.485,29.405,383.134,29.046,379.787z M30.577,391.146c3.365,1.65,6.891,2.707,10.79,2.647
				c2.379-0.037,4.754-0.424,7.055-1.012c1.516-0.387,3.24-0.8,4.823-1.417c1.082,2.939,2.364,5.793,3.885,8.527
				c0.138,0.247,0.329,0.371,0.531,0.414c0.783,1.884,1.628,3.742,2.5,5.587c-3.756,1.916-7.614,3.005-11.87,3.77
				c-2.57,0.462-5.175,0.802-7.791,0.752c-2.102-0.04-3.97-0.516-5.892-1.049C32.909,403.39,31.584,397.289,30.577,391.146z
				 M35.057,410.95c3.959,1.34,8.884,0.729,12.703,0.114c4.305-0.693,9.171-1.538,13.043-3.833
				c2.67,5.485,5.714,10.775,9.052,15.803c-8.499,5.236-18.208,6.949-28.02,5.681C39.104,423.005,36.87,417.052,35.057,410.95z
				 M55.795,450.169c-5.374-6.162-9.747-12.935-13.306-20.114c9.625,1.569,19.872-0.775,28.135-5.885
				c1.652,2.436,3.365,4.816,5.146,7.115c2.543,3.281,5.242,6.414,8.055,9.429c-4.332,3.491-8.805,6.296-14.318,7.923
				c-2.987,0.882-6.064,1.404-9.174,1.564c-1.449,0.074-2.902,0.07-4.351-0.022C55.925,450.175,55.859,450.172,55.795,450.169z
				 M56.978,451.484c3.552,0.171,7.119-0.169,10.584-0.965c6.12-1.406,12.585-4.328,17.305-8.71
				c3.991,4.185,8.238,8.101,12.692,11.764c-3.718,3.607-7.496,6.853-12.167,9.304c-3.54,1.857-7.445,3.347-11.409,4.332
				C67.869,462.453,62.145,457.224,56.978,451.484z M74.952,467.958c8.98-1.931,17.771-6.452,23.734-13.461
				c4.583,3.694,9.388,7.11,14.37,10.256c-5.359,6.549-12.477,12.497-20.766,14.653C86.271,475.965,80.452,472.161,74.952,467.958z
				 M113.53,489.726c-6.621-2.693-13.141-5.797-19.451-9.302c3.372-1.056,6.722-3.058,9.196-4.653
				c4.19-2.703,8.083-6.177,11.029-10.241c4.432,2.741,9.009,5.257,13.692,7.567c-1.206,3.883-4.657,7.787-7.267,10.677
				c-2.066,2.288-4.518,4.107-6.802,6.108C113.795,489.829,113.662,489.78,113.53,489.726z M115.828,490.632
				c2.639-2.057,5.01-4.778,6.987-7.139c2.307-2.757,5.361-6.239,6.181-9.9c4.421,2.145,8.942,4.094,13.538,5.855
				c-0.624,3.056-1.809,6.267-2.89,9.109c-0.681,1.789-1.481,3.538-2.485,5.17c-0.72,1.169-1.703,2.167-2.503,3.27
				C128.295,495.164,122.01,493.059,115.828,490.632z M136.257,497.46c2.049-2.055,3.386-5.419,4.311-7.826
				c1.102-2.869,2.68-6.623,2.697-9.912c0.88,0.332,1.757,0.671,2.642,0.989c4.002,1.438,8.042,2.716,12.108,3.862
				c0.824,5.98-3.833,11.501-6.188,16.659C146.596,500.141,141.399,498.9,136.257,497.46z M169.707,504.297
				c-5.511-0.764-10.996-1.675-16.437-2.777c2.261-2.548,3.714-6.363,4.767-9.456c0.777-2.281,1.525-4.827,1.096-7.193
				c4.757,1.308,9.557,2.404,14.383,3.332c0.675,2.878,0.006,6.395-0.691,8.996c-0.461,1.719-1.095,3.384-1.896,4.973
				C170.557,502.91,170.096,503.588,169.707,504.297z M171.44,504.545c1.616-2.373,2.481-5.879,2.946-8.233
				c0.484-2.445,0.854-5.315,0.306-7.875c5.796,1.077,11.637,1.872,17.502,2.433c0.337,2.577-0.342,5.512-0.698,7.856
				c-0.411,2.706-1.213,5.135-2.047,7.647C183.426,505.932,177.417,505.336,171.44,504.545z M191.108,506.497
				c1.245-2.918,1.625-6.386,1.95-9.404c0.214-1.982,0.574-4.137,0.266-6.115c5.517,0.497,11.057,0.765,16.606,0.833
				c0.064,5.253-0.725,10.379-2.212,15.412C202.177,507.102,196.636,506.874,191.108,506.497z M209.336,507.25
				c1.493-5.003,2-10.214,1.66-15.42c5.805,0.044,11.619-0.146,17.429-0.54c0.306,2.61,0.133,5.255-0.325,7.857
				c-0.474,2.695-1.51,5.34-1.806,8.051C220.65,507.323,214.994,507.349,209.336,507.25z M245.662,506.381
				c-5.98,0.366-11.991,0.633-18.02,0.784c2.085-4.671,2.773-10.768,1.73-15.939c4.266-0.306,8.528-0.731,12.782-1.258
				C245.761,494.638,245.999,500.585,245.662,506.381z M264.23,504.908c-4.409,0.434-8.815,0.807-13.214,1.121
				c-1.301,0.093-2.606,0.174-3.91,0.257c0.526-5.817-0.222-11.895-3.806-16.466c5.585-0.718,11.152-1.625,16.69-2.699
				c0.811,0.926,1.518,1.883,2.022,3.203c0.716,1.873,1.244,3.846,1.634,5.809c0.411,2.066,0.634,4.159,0.677,6.265
				C264.342,503.227,264.285,504.068,264.23,504.908z M287.13,502.043c-7.031,1.074-14.085,1.964-21.136,2.685
				c0.213-3.321-0.473-6.994-1.146-9.889c-0.658-2.829-1.509-5.857-3.415-8.008c6.993-1.396,13.934-3.072,20.8-4.985
				c1.548,2.939,3.167,5.753,4.035,9.119c0.566,2.193,0.92,4.436,1.028,6.699C287.364,499.129,287.212,500.588,287.13,502.043z
				 M288.812,501.786c0.471-3.671-0.28-7.898-1.174-11.198c-0.808-2.985-2.042-6.411-3.938-9.147
				c5.432-1.544,10.808-3.254,16.127-5.092c2.195,3.202,4.92,5.916,6.029,9.817c1.152,4.051,1.302,8.108,1.396,12.246
				C301.137,499.695,294.984,500.815,288.812,501.786z M308.813,498.071c0.219-4.235-0.45-8.825-1.711-12.753
				c-1.121-3.493-3.512-6.719-6.189-9.341c6.206-2.17,12.314-4.549,18.326-7.077c0.831,1.098,1.688,2.179,2.433,3.338
				c1.458,2.265,2.683,4.68,3.649,7.194c0.839,2.183,1.483,4.442,1.918,6.739c0.466,2.46,0.331,4.831,0.456,7.255
				C321.456,495.167,315.155,496.709,308.813,498.071z M329.218,492.991c0.364-1.496-0.011-3.296-0.208-4.755
				c-0.404-3.002-1.148-5.949-2.222-8.782c-1.403-3.701-3.45-7.971-6.303-11.082c3.576-1.522,7.127-3.082,10.619-4.722
				c2.062-0.968,4.129-1.97,6.197-3c1.425,1.273,2.939,2.458,4.303,3.795c2.117,2.075,4.031,4.347,5.694,6.801
				c2.909,4.293,4.624,8.826,6.072,13.662C345.455,487.971,337.395,490.664,329.218,492.991z M354.9,484.321
				c-1.193-5.038-3.704-9.976-6.6-14.114c-2.478-3.541-5.811-7.742-9.775-10.167c5.544-2.794,11.076-5.827,16.516-9.084
				c1.509,1.376,3.113,2.662,4.544,4.124c2.259,2.308,4.271,4.839,6.024,7.551c2.872,4.441,4.862,9.237,6.177,14.305
				C366.25,479.613,360.616,482.069,354.9,484.321z M382.152,471.586c-2.949,1.623-5.934,3.168-8.947,4.651
				c-1.307-5.215-3.556-10.234-6.516-14.696c-2.635-3.971-6.18-8.564-10.405-11.331c4.603-2.795,9.128-5.765,13.52-8.911
				c5.163,2.355,9.942,5.479,14.042,9.431c2.362,2.277,4.489,4.8,6.319,7.524c1.379,2.052,2.355,4.335,3.552,6.474
				C389.929,467.142,386.068,469.43,382.152,471.586z M395.052,463.864c-0.972-2.488-2.622-4.893-4.077-6.973
				c-1.876-2.685-4.023-5.18-6.403-7.431c-4.005-3.788-8.631-6.838-13.701-8.933c5.282-3.837,10.357-7.942,15.133-12.318
				c5.683,2.551,11.077,5.792,15.774,9.891c2.573,2.245,4.952,4.714,7.087,7.379c1.365,1.705,2.464,3.723,3.706,5.58
				C406.986,455.66,401.12,459.931,395.052,463.864z M413.969,449.904c-1.18-1.98-2.772-3.856-4.066-5.464
				c-2.306-2.866-4.884-5.51-7.691-7.885c-4.601-3.893-9.736-7.029-15.337-9.148c4.253-3.959,8.255-8.142,11.935-12.558
				c5.638,2.455,11.21,4.687,16.418,8.139c5.367,3.558,10.023,7.579,13.492,12.886C424.107,440.848,419.171,445.528,413.969,449.904
				z M435.255,428.362c-1.751,2.16-3.569,4.263-5.439,6.322c-2.925-4.917-7.865-8.777-12.424-11.948
				c-5.233-3.639-11.439-7.2-17.783-8.868c1.992-2.441,3.892-4.947,5.673-7.532c2.713-1.02,5.363-2.231,7.933-3.644
				c4.685,1.484,9.274,3.207,13.662,5.487c5.592,2.906,10.524,6.533,15.339,10.527C440.069,422.076,437.732,425.307,435.255,428.362
				z M443.001,417.45c-7.76-7.165-17.931-12.819-28.313-15.598c1.269-0.747,2.519-1.541,3.742-2.396
				c4.336-3.033,8.608-6.434,12.626-10.164c3.158,0.726,6.364,1.287,9.45,2.366c2.347,0.821,4.653,1.768,6.89,2.853
				c1.66,0.805,3.242,1.857,4.937,2.586C450.169,404.198,446.939,411.062,443.001,417.45z M452.738,395.722
				c-3.166-2.48-7.763-4.036-11.432-5.272c-2.776-0.935-5.863-1.919-8.94-2.406c4.228-4.06,8.142-8.491,11.505-13.257
				c3.787-0.188,7.552-0.056,11.34-0.123C455.621,381.748,454.693,388.838,452.738,395.722z M445.897,326.341
				c0.037,1.104,4.381,4.588,5.222,5.574c1.718,2.014,3.334,4.116,4.819,6.307c2.854,4.211,6.115,9.37,7.214,14.378
				c-2.746-0.96-5.506-1.29-8.373-1.738c-6.97-1.089-12.085-4.56-18.193-7.626c-0.409-0.205-0.808-0.397-1.206-0.562
				c3.276-1.576,6.129-4.031,8.142-7.462C445.283,332.21,445.994,329.209,445.897,326.341z M427.36,301.51
				c5.61-3.506,11.376-6.827,17.151-10.072c-0.334,4.525-0.83,9.047-1.282,13.557c-0.358,3.572-1.083,7.363-1.397,11.077
				c-3.98-4.962-10.361-8.462-16.809-9.103c-1.948-0.193-3.888-0.039-5.765,0.404C422.057,305.331,424.762,303.134,427.36,301.51z
				 M409.703,319.143c2.816-4.56,8.122-7.438,13.461-7.376c10.289,0.118,22.482,10.221,16.3,21.074
				c-5.437,9.545-18.235,9.343-26.617,4.07c-3.02-1.9-4.708-4.459-5.358-7.235C407.34,326.067,407.509,322.695,409.703,319.143z
				 M407.285,315.209c-3.752,4.749-5.551,10.913-3.75,16.822c-6.883-3.143-15.542-6.746-19.039-13.108
				C392.047,317.315,399.623,316.179,407.285,315.209z M394.609,312.12c-4.685,0.689-9.324,1.713-13.862,3.001
				c-1.097,0.311-2.01,1.624-1.578,2.779c1.807,4.836,5.518,8.36,9.883,11.231c-0.693,0.316-1.353,0.676-1.931,0.979
				c-1.15,0.604-2.469,1.336-3.535,2.259c-4.241-4.746-9.062-8.743-14.269-12.201c0.822-0.753,1.61-1.553,2.442-2.273
				c1.865-1.613,3.829-3.106,5.894-4.454c1.874-1.223,3.824-2.328,5.835-3.311c1.098-0.536,2.259-0.967,3.4-1.429
				C389.564,309.612,392.159,310.68,394.609,312.12z M377.231,305.881c2.482,0.696,4.946,1.348,7.36,2.083
				c-2.841,1.259-5.609,3.072-7.924,4.624c-2.726,1.828-6.199,4.119-8.421,6.876c-4.624-2.975-9.539-5.541-14.616-7.835
				c1.734-0.499,3.421-1.182,5.04-2.059c2.88-1.561,6.199-3.839,7.881-6.815C370.089,303.868,373.661,304.879,377.231,305.881z
				 M348.25,295.248c2.794,1.549,5.705,2.928,8.704,4.129c2.796,1.12,5.638,2.11,8.504,3.03c-2.378,2.169-4.438,4.514-7.389,6.136
				c-1.918,1.054-3.962,1.825-6.068,2.36c-7.475-3.273-15.266-5.995-22.972-8.596c2.74-0.244,5.46-0.643,8.125-1.354
				C340.817,299.975,345.676,298.302,348.25,295.248z M347.047,294.576c-1.576,1.012-3.017,2.214-4.737,3.052
				c-2.025,0.986-4.165,1.715-6.351,2.251c-3.265,0.8-6.607,1.163-9.959,1.381c-7.852-2.803-15.175-6.357-20.863-11.753
				c3.384,0.992,7.006,1.208,10.586,0.799c6.002-0.685,12.774-3.009,18.01-6.424C337.527,288.168,342.069,291.679,347.047,294.576z
				 M327.798,275.378c1.411,2.65,3.068,5.071,4.911,7.303c-2.193,1.127-4.323,2.39-6.604,3.359
				c-2.994,1.272-6.116,2.274-9.333,2.794c-4.501,0.728-9.114,0.372-13.376-1.099c-2.975-3.234-5.41-7.073-7.103-11.715
				c-1.286-3.527-2.007-7.15-2.186-10.803c7.944,7.441,21.293,8.562,30.422,2.292C325.371,270.212,326.453,272.852,327.798,275.378z
				 M325.649,237.595c-2.006,4.916-3.042,10.109-3.173,15.316c-0.854,0.214-1.699,0.456-2.615,0.505
				c-0.645,0.034-1.297,0.005-1.948-0.05c3.234-5.7,4.962-12.184,4.776-18.971c-0.055-1.985-0.608-4.41-0.558-6.603
				c0.633,0.578,1.344,1.09,2.21,1.539c1.337,0.693,3.174,1.521,4.785,1.433C327.785,232.945,326.613,235.232,325.649,237.595z
				 M335.227,222.926c-2.027,2.059-3.84,4.333-5.426,6.757c-1.5-0.683-3.254-0.752-4.782-1.51c-0.926-0.46-1.881-1.029-2.781-1.662
				c0.059-0.36,0.142-0.709,0.257-1.043c1.335-3.875,6.217-4.42,8.986-7.013c1.777-1.664,2.995-3.683,3.715-5.88
				c1.079,0.898,2.218,1.711,3.511,2.428c1.129,0.626,2.427,1.345,3.759,1.813C339.735,218.53,337.247,220.874,335.227,222.926z
				 M346.881,214.803c-0.956,0.264-1.899,0.631-2.819,1.1c-1.53-0.725-3.235-1.186-4.725-1.978c-1.31-0.696-2.613-1.495-3.862-2.357
				c0.457-1.809,0.609-3.711,0.442-5.628c-0.122-1.393-1.348-2.197-2.616-2.069c-0.022-0.626-0.076-1.24-0.129-1.855
				c0.159-0.053,0.318-0.105,0.478-0.161c5.72-1.994,10.867-1.393,12.974,4.935C347.492,209.398,347.404,212.116,346.881,214.803z
				 M390.341,205.889c-2.648,0.83-5.523,0.282-8.111,1.422c-3.233,1.425-4.812,4.491-5.893,7.695
				c-1.683,4.987-2.95,9.625-6.176,13.914c-2.594,3.448-5.822,6.271-9.49,8.418c3.478-9.758,4.88-20.024,4.134-30.466
				c-0.138-1.925-3.083-3.237-4.047-1.096c-2.452,5.442-5.992,9.875-10.607,13.275c2.142-8.234,2.467-17.964-6.2-22.26
				c-3.931-1.949-7.764-1.012-11.556,0.334c-0.983-4.219-2.733-8.217-5.223-12.128c-0.815-1.28-2.465-0.298-2.507,0.931
				c-0.194,5.665-1.436,11.277-3.381,16.602c-1.42-4.878-3.99-9.252-7.309-13.324c-1.056-1.295-2.96-0.522-2.96,1.099
				c0.001,3.019,0.072,6.013-0.46,9c-0.169,0.95-0.413,2.812-0.84,4.511c-1.546-4.225-3.629-8.171-6.28-11.839
				c-0.91-1.259-2.772-0.436-2.734,1.015c0.083,3.164-0.499,6.135-1.772,8.909c-1.124-2.236-2.678-4.316-4.744-5.573
				c-0.524-0.319-1.16-0.104-1.639,0.16c-2.22,1.221-2.245,6.256-2.124,9.087c-6.532,1.593-12.782,4.423-19.55,4.908
				c-5.966,0.428-11.875-0.782-17.225-3.324c5.464-2.513,10.855-5.171,15.886-8.494c3.825-2.526,7.157-5.397,10.279-8.521
				c2.281,1.786,4.148,3.776,5.405,6.682c0.524,1.21,2.309,1.394,2.888,0.108c1.906-4.23,2.023-8.785,0.686-13.076
				c3.282,1.06,6.019,3.077,8.118,6.043c0.691,0.977,2.037,0.908,2.799,0.087c1.899-2.045,1.01-5.918,0.748-8.397
				c-0.217-2.046-0.63-3.977-1.288-5.825c3.354,3.073,6.02,6.759,8.618,10.603c0.737,1.09,2.646,0.689,2.815-0.645
				c0.729-5.776,0.448-11.42-1.157-16.844c4.526,4.428,7.719,9.814,9.548,16.144c0.37,1.279,2.592,1.461,3.016,0.114
				c0.598-1.898,0.335-4.557,1.445-6.27c0.465-0.717,0.803-0.978,1.208-0.863c0.321,0.091,0.683,0.418,1.185,0.94
				c1.105,1.152,1.839,1.942,3.318,2.718c7.472,3.918,16.019,5.087,24.346,5.442c4.465,0.19,8.929,0.543,13.135,2.166
				c3.999,1.543,7.54,4.069,11.276,6.121c5.617,3.085,11.671,5.074,18.006,5.62C394.804,203.276,392.946,205.073,390.341,205.889z
				 M362.21,183.835c0.526-1.288,1.226-3.009,1.822-4.105c0.504,1.426,0.684,3.217,0.748,4.769
				C363.938,184.248,363.085,184.021,362.21,183.835z M369.295,186.152c1.82-1.754,3.34-3.755,4.557-5.949
				c0.514,2.812,0.775,5.645,0.772,8.528C372.858,187.795,371.093,186.924,369.295,186.152z M379.518,191.319
				c2.533-2.345,4.616-6.511,5.879-9.975c1.294,4.04,1.148,8.268-0.038,12.435C383.398,193.086,381.459,192.272,379.518,191.319z
				 M395.652,196.201c-1.947-0.245-3.831-0.591-5.673-1.043c3.499-3.689,6.213-7.806,8.338-12.362
				C398.375,187.379,397.412,191.946,395.652,196.201z M397.534,177.379c-2.141,5.016-5.151,9.647-8.69,13.801
				c0.366-5.067-0.522-10.062-2.217-15.034c-0.539-1.582-2.594-1.519-3.157,0c-1.05,2.831-2.025,5.662-3.563,8.277
				c-0.489,0.832-1.366,2.492-2.357,3.937c0.021-4.498-0.559-8.923-1.768-13.284c-0.415-1.497-2.447-1.374-2.916,0
				c-1.023,2.995-2.602,5.578-4.761,7.736c-0.275-2.487-1.009-4.978-2.509-6.875c-0.381-0.482-1.051-0.501-1.592-0.421
				c-2.506,0.372-4.282,5.083-5.153,7.78c-6.678-0.779-13.523-0.301-20.036-2.201c-2.626-0.766-5.152-1.863-7.512-3.247
				c-1.22-0.715-2.395-1.506-3.519-2.364c-0.627-0.479-2.688-1.334-2.826-2.073c-0.505-2.695,5.158-1.982,6.536-2.144
				c3.419-0.402,6.824-0.938,10.178-1.717c4.465-1.037,8.587-2.569,12.602-4.411c1.517,2.468,2.575,4.984,2.743,8.145
				c0.07,1.317,1.68,2.11,2.67,1.106c3.259-3.302,4.953-7.532,5.193-12.02c2.708,2.136,4.572,4.979,5.508,8.49
				c0.308,1.157,1.594,1.56,2.594,1.055c2.492-1.257,3.007-5.197,3.623-7.612c0.509-1.993,0.793-3.948,0.82-5.909
				c2.075,4.048,3.292,8.432,4.39,12.939c0.311,1.278,2.241,1.566,2.863,0.374c0.841-1.612,1.572-3.248,2.21-4.905
				c-0.137,0.635-0.283,1.269-0.442,1.9c1.95,2.256,4.109,4.17,6.439,5.824c0.242,0.621,0.926,1.053,1.596,1.076
				C395.471,176.234,396.488,176.828,397.534,177.379z M356.385,164.138c1.669-0.817,3.329-1.683,4.99-2.591
				c-0.075,2.801-0.796,5.363-2.097,7.789C358.655,167.405,357.728,165.628,356.385,164.138z M366.192,158.946
				c2.416-1.243,4.882-2.381,7.391-3.411c0.365,2.358,0.204,4.577-0.298,7.014c-0.137,0.666-0.401,2.341-0.809,3.809
				C371.055,163.366,368.936,160.863,366.192,158.946z M377.069,154.182c3.021-1.093,6.104-2.022,9.247-2.76
				c0.241,5.241-0.727,10.198-2.667,14.999c-1.389-4.413-3.207-8.604-6.522-11.872C377.105,154.426,377.092,154.305,377.069,154.182
				z M387.55,164.956c1.022-3.069,1.685-6.213,1.905-9.443c1.972,4.178,3.09,8.589,3.368,13.22
				c-0.899-0.874-1.753-1.792-2.554-2.757C389.339,165.694,388.432,165.35,387.55,164.956z M399.548,160.944
				c-0.902,2.714-2.086,5.257-3.508,7.677c-0.422-6.357-2.316-12.449-5.604-17.974c3.835-0.604,7.786-1.083,11.257-2.696
				C402.866,150.938,400.246,158.845,399.548,160.944z M400.883,142.963c-2.617,1.804-5.833,2.862-8.877,3.641
				c-7.871,2.014-15.743,3.643-23.279,6.776c-7.771,3.231-14.772,7.945-22.939,10.232c-7.108,1.99-14.514,2.813-21.879,3.453
				c-0.044-0.367-0.077-0.733-0.133-1.1c-0.431-2.862-0.94-8.551-3.282-11.209c1.815-2.953,2.25-6.165,1.483-9.355
				c0.303-0.544,0.095-1.297-0.452-1.67c-0.026-0.018-0.051-0.034-0.078-0.052c-0.21-0.556-0.454-1.11-0.735-1.661
				c-0.793-1.552-1.819-2.99-2.794-4.45c0.407-2.12,1.638-3.982,2.383-5.994c0.177-0.478-0.432-0.88-0.835-0.642
				c-1.358,0.803-2.563,1.985-3.478,3.355c-0.452-0.956-0.81-1.956-0.999-3.036c-0.63-3.606,0.115-7.286-1.264-10.79
				c-0.67-1.704-1.785-3.143-2.855-4.608c4.296-0.889,8.731-1.002,13.014-1.97c4.691-1.066,9.715-3.06,12.483-6.976
				c1.587-1.222,3.066-2.591,4.393-4.124c3.141-3.628,5.49-7.841,6.905-12.425c1.078-3.496,1.429-7.277,3.17-10.55
				c1.461-2.748,3.839-4.92,5.989-7.116c16.768-17.128,19.523-42.657,14.259-65.232c8.813,6.094,15.188,15.239,18.947,25.298
				c1.018,5.992,2.348,11.714,1.024,18.047c-1.549,7.409-3.019,14.914-4.068,22.42c-0.087,0.622,0.737,0.879,0.956,0.264
				c2.883-8.075,6.451-16.959,7.393-25.521c0.203-1.846,0.15-3.817-0.09-5.825c0.006-0.001,0.012-0.001,0.018-0.002
				c6.954-1.238,4.023,21.888,4.057,25.339c0.013,1.374,0.115,2.748,0.344,4.095c-0.363,4.657-0.574,9.341-1.297,13.962
				c-1.066,6.813-3.057,13.458-3.901,20.301c-0.089,0.722,1.04,0.978,1.352,0.366c3.43-6.725,4.69-14.389,5.698-21.804
				c0.276-2.031,0.544-4.114,0.761-6.213c2.163,3.545,4.09,6.108,3.406,10.968c-0.944,6.711-2.589,11.755-1.012,18.51
				c1.231,5.275-0.501,8.293-1.556,13.221c-0.699,3.265-0.174,6.27,0.533,9.477C404.734,135.297,405.676,139.658,400.883,142.963z
				 M423.522,166.775c-0.276-2.009-0.878-3.922-1.94-5.623c1.787-0.513,3.572-1.075,5.366-1.679
				C426.385,162.218,425.228,164.614,423.522,166.775z M438.5,162.542c-0.251,0.632-0.804,2.234-1.462,3.608
				c-0.876-3.194-2.526-6.028-4.892-8.395c2.596-0.801,5.223-1.491,7.873-2.067C439.967,158.073,439.42,160.23,438.5,162.542z
				 M448.027,168.165c-0.596-4.588-1.653-9.032-4.347-12.829c0.001-0.124,0.009-0.246,0.007-0.371
				c3.166-0.548,6.363-0.924,9.587-1.101C452.597,159.067,450.777,163.777,448.027,168.165z M464.639,165.551
				c-1.363,2.515-2.973,4.813-4.796,6.946c0.695-6.333-0.104-12.662-2.376-18.677c3.882,0.076,7.856,0.294,11.555-0.687
				C469.655,156.279,465.693,163.607,464.639,165.551z M483.227,95.94c-2.103,6.443-4.604,11.122-4.232,18.048
				c0.29,5.409-1.943,8.078-3.843,12.746c-1.259,3.093-1.267,6.143-1.132,9.424c0.207,5.048,0.372,9.507-4.925,11.922
				c-2.892,1.319-6.244,1.798-9.376,2.033c-8.102,0.607-16.137,0.835-24.104,2.602c-8.216,1.823-15.933,5.241-24.375,6.064
				c-2.547,0.248-5.105,0.337-7.667,0.337c0.112-0.45,0.233-0.895,0.329-1.352c0.592-2.834,2.094-8.344,0.823-11.651
				c1.911-1.497,3.223-3.353,3.978-5.447c3.426-0.263,6.837-2.086,8.457-5.068c-0.456,3.235-3.596,6.113-5.187,8.731
				c-0.225,0.37,0.254,0.916,0.65,0.712c3.852-1.988,6.708-5.927,6.14-9.939c1.744,0.596,3.598,0.858,5.972,0.642
				c0.566-0.051,0.719-0.862,0.196-1.102c-5.906-2.718-10.903-7.767-17.323-9.412c-0.079-1.012-0.055-2.033,0.136-3.069
				c0.101-0.55,0.239-1.088,0.39-1.622c2.184,0.632,4.348,1.449,6.448,2.168c0.514,0.176,1.169-0.367,0.756-0.892
				c-1.529-1.945-3.732-3.421-6.204-4.368c0.639-1.883,1.219-3.776,1.179-5.842c-0.054-2.763-1.268-5.313-1.714-8.002
				c1.204-0.612,2.322-1.356,3.279-2.302c1.776-0.926,3.472-2.016,5.046-3.292c3.727-3.023,6.776-6.761,8.97-11.027
				c1.673-3.254,2.68-6.915,4.965-9.834c1.919-2.45,4.64-4.173,7.141-5.96c19.503-13.933,26.679-38.588,25.442-61.735
				c7.612,7.541,12.29,17.66,14.233,28.22c-0.045,6.078,0.264,11.944-2.146,17.948c-2.821,7.024-5.579,14.157-7.925,21.364
				c-0.194,0.597,0.572,0.994,0.896,0.427c4.25-7.447,9.316-15.57,11.74-23.836c0.523-1.782,0.815-3.732,0.93-5.751
				c0.006,0,0.012,0.001,0.018,0.001c7.063-0.003,0.135,22.254-0.435,25.658c-0.227,1.355-0.367,2.726-0.377,4.092
				c-1.172,4.522-2.198,9.096-3.718,13.52c-2.241,6.522-5.363,12.717-7.39,19.306c-0.214,0.695,0.853,1.145,1.267,0.597
				c4.553-6.022,7.133-13.347,9.422-20.472c0.627-1.952,1.255-3.955,1.836-5.985C483.301,88.414,484.75,91.274,483.227,95.94z
				 M409.362,134.248c-0.175-1.493-0.546-2.968-0.905-4.441c1.366,0.526,2.703,1.266,4.019,2.047
				c0.719,0.426,1.39,0.827,2.037,1.201c-1.614,1.656-3.105,3.191-5.081,3.85C409.476,136.039,409.468,135.157,409.362,134.248z"/>
			<path d="M411.378,115.285c-0.674-0.361-1.181,0.711-0.51,1.07c4.187,2.245,7.748,5.494,11.746,8.042
				c0.378,0.241,0.829-0.327,0.559-0.66C419.997,119.811,415.743,117.626,411.378,115.285z"/>
			<path d="M447.914,136.125c-2.194-0.4-4.395,0.985-5.31,2.951c-0.966,2.075-0.478,4.626,1.386,6.026
				c1.326,0.996,2.996,1.168,4.371,0.547c2.156-0.534,4.051-2.445,3.848-4.868C452.017,138.505,450.139,136.531,447.914,136.125z"/>
			<path d="M452.841,131.171c-4.962-3.091-9.585,0.022-14.833-0.289c-0.525-0.031-0.922,0.773-0.315,0.982
				c3.611,1.24,7.245,0.376,10.843,1.36c4.25,1.162,4.52,5.105,7.371,7.603c0.757,0.664,1.775,0.141,2.014-0.724
				C458.861,136.694,455.567,132.868,452.841,131.171z"/>
			<path d="M449.627,97.05c11.351-11.036,17.093-27.98,20.378-43.087c0.122-0.56-0.795-0.878-0.982-0.315
				c-2.489,7.498-5.719,14.734-9.228,21.808c-3.52,7.096-8.143,13.542-11.679,20.615C447.63,97.045,448.925,97.732,449.627,97.05z"
				/>
			<path d="M444.197,77.674c-8.151,9.531-17.751,18.887-28.127,25.992c-0.619,0.424,0.04,1.36,0.665,0.952
				c9.468-6.188,17.816-12.665,25.495-20.669c-3.351,9.827-8.645,18.684-12.126,28.501c-0.328,0.925,0.732,1.666,1.45,0.939
				c8.888-9.007,12.255-22.604,15.081-34.567C446.962,77.441,445.063,76.662,444.197,77.674z"/>
			<path d="M464.916,87.539c-1.876,4.885-7.355,9.569-10.804,13.504c-3.79,4.324-7.884,8.389-12.389,11.967
				c-1.198,0.952,0.123,2.888,1.371,1.963c4.358-3.228,8.305-6.812,11.96-10.817c1.785-1.957,3.51-3.968,5.136-6.059
				c1.177-1.515,2.258-3.345,3.456-5.042c-0.986,4.885-1.706,9.835-2.363,14.763c-0.711,5.336-2.293,11.548-0.701,16.808
				c0.272,0.898,1.498,0.815,1.893,0.087c2.691-4.954,2.438-11.649,3.102-17.159c0.767-6.363,1.63-12.748,2.062-19.143
				C467.738,86.93,465.55,85.889,464.916,87.539z"/>
			<path d="M453.851,68.527c9.468-8.517,13.453-23.848,12.849-36.19c-0.032-0.651-1.058-0.697-1.15-0.047
				c-0.913,6.445-2.237,12.968-4.602,19.046c-2.218,5.701-5.636,10.713-8.258,16.208C452.377,68.202,453.241,69.075,453.851,68.527z
				"/>
			<path d="M355.047,137.452c-6.644-1.736-12.74-6.236-19.821-6.311c-7.356-0.078-9.144,6.544-11.971,12.134
				c-0.873,1.726,1.613,3.215,2.611,1.526c0.158-0.267,0.319-0.565,0.483-0.877c0.336,1.731,0.939,3.385,2.098,4.793
				c1.669,2.027,4.914,4.103,7.255,1.979c0.511-0.464,0.322-1.273-0.208-1.615c-1.885-1.216-3.922-1.267-5.379-3.236
				c-0.827-1.117-1.395-2.39-1.87-3.702c1.824,2.582,5.515,4.165,8.482,4.395c4.451,0.344,9.401-2.482,10.837-6.786
				c0.116,3.265-2.472,6.648-3.581,9.503c-0.157,0.404,0.41,0.857,0.764,0.587c3.445-2.631,5.569-7.009,4.309-10.859
				c1.822,0.282,3.693,0.216,5.992-0.412C355.595,138.422,355.604,137.598,355.047,137.452z M336.727,143.226
				c-3.615,0.015-5.347-2.365-7.457-4.618c0.341-0.473,0.694-0.902,1.068-1.225c1.413-1.219,2.88-1.808,4.376-1.987
				c0.029,1.804-0.142,5.194,1.78,6.024c0.551,0.238,1.177,0.253,1.627-0.21c1.403-1.442,0.418-3.906-0.312-5.677
				c1.494,0.271,2.998,0.79,4.488,1.35c0.783,0.294,1.513,0.571,2.215,0.827C342.538,140.615,340.807,143.209,336.727,143.226z"/>
			<path d="M342.772,127.509c0.537,0.084,1.087-0.565,0.588-1.011c-5.461-4.875-15.986-4.846-21.117,0.669
				c-0.379,0.408,0.003,0.985,0.518,0.89c3.357-0.62,6.467-1.707,9.938-1.755C336.026,126.257,339.489,126.999,342.772,127.509z"/>
			<path d="M338.005,121.904c4.515,1.479,8.589,4.056,12.971,5.865c0.415,0.171,0.759-0.467,0.435-0.748
				c-3.814-3.311-8.384-4.718-13.091-6.26C337.593,120.523,337.282,121.668,338.005,121.904z"/>
			<path d="M377.936,134.894c-2.23-0.01-4.155,1.738-4.713,3.834c-0.589,2.212,0.338,4.638,2.418,5.691
				c1.48,0.749,3.154,0.627,4.399-0.226c2.03-0.902,3.562-3.116,2.937-5.466C382.392,136.52,380.198,134.904,377.936,134.894z"/>
			<path d="M381.921,129.154c-5.425-2.176-9.433,1.698-14.654,2.309c-0.523,0.061-0.773,0.922-0.138,1.021
				c3.772,0.59,7.199-0.896,10.913-0.556c4.388,0.402,5.342,4.236,8.586,6.197c0.862,0.521,1.773-0.172,1.856-1.065
				C388.813,133.54,384.901,130.349,381.921,129.154z"/>
			<path d="M371.135,95.421c-0.309,1.043,1.086,1.494,1.658,0.699c9.247-12.85,11.939-30.537,12.533-45.986
				c0.022-0.573-0.936-0.726-1.022-0.138c-1.14,7.818-3.055,15.507-5.273,23.086C376.806,80.684,373.38,87.839,371.135,95.421z"/>
			<path d="M364.06,77.991C357.701,88.8,349.884,99.69,340.909,108.5c-0.535,0.526,0.277,1.333,0.821,0.822
				c8.24-7.748,15.328-15.584,21.49-24.808c-1.581,10.261-5.246,19.907-6.958,30.182c-0.161,0.968,1.012,1.512,1.592,0.671
				c7.177-10.422,8.115-24.398,8.807-36.671C366.741,77.279,364.736,76.843,364.06,77.991z"/>
			<path d="M389.018,84.465c-0.16-1.476-2.497-2.118-2.832-0.383c-0.994,5.138-5.569,10.707-8.277,15.184
				c-2.976,4.92-6.296,9.638-10.107,13.949c-1.015,1.149,0.624,2.824,1.692,1.695c3.727-3.94,6.987-8.159,9.885-12.741
				c1.416-2.239,2.763-4.52,3.998-6.864c0.894-1.697,1.639-3.688,2.521-5.568c-0.118,4.982,0.039,9.982,0.254,14.948
				c0.233,5.378-0.239,11.771,2.248,16.672c0.424,0.836,1.617,0.54,1.879-0.246c1.784-5.348,0.364-11.896,0.055-17.437
				C389.977,97.275,389.711,90.838,389.018,84.465z"/>
			<path d="M371.965,67.299c7.834-10.041,9.077-25.832,6.325-37.879c-0.145-0.636-1.163-0.501-1.14,0.154
				c0.228,6.505,0.065,13.16-1.201,19.557c-1.188,6.001-3.677,11.534-5.297,17.402C370.457,67.236,371.461,67.945,371.965,67.299z"
				/>
			<path d="M250.127,164.899c-6.923,2.487-6.296,9.317-7.001,15.541c-0.218,1.922,2.63,2.453,2.979,0.522
				c0.055-0.305,0.103-0.641,0.148-0.991c0.917,1.506,2.059,2.847,3.635,3.763c2.27,1.32,6.035,2.137,7.49-0.67
				c0.318-0.613-0.141-1.305-0.757-1.441c-2.19-0.484-4.118,0.177-6.169-1.162c-1.164-0.76-2.139-1.755-3.041-2.82
				c2.609,1.786,6.62,1.986,9.481,1.169c4.292-1.226,7.95-5.598,7.798-10.133c1.245,3.021-0.004,7.093-0.051,10.156
				c-0.007,0.433,0.683,0.661,0.921,0.285c2.315-3.665,2.782-8.508,0.261-11.68c1.806-0.37,3.537-1.082,5.474-2.471
				c0.462-0.331,0.184-1.107-0.389-1.05C264.072,164.602,256.792,162.505,250.127,164.899z M261.118,167.825
				c-0.84,3.411-1.56,6.445-5.379,7.881c-3.384,1.272-5.836-0.357-8.598-1.735c0.156-0.562,0.337-1.087,0.575-1.52
				c0.9-1.635,2.071-2.697,3.411-3.385c0.655,1.681,1.674,4.919,3.765,5.028c0.599,0.031,1.191-0.172,1.452-0.763
				c0.813-1.84-0.967-3.808-2.268-5.214c1.495-0.265,3.086-0.302,4.677-0.295C259.589,167.824,260.371,167.829,261.118,167.825z"/>
			<path d="M242.394,183.444c0.644-0.732,0.113-1.767-0.734-1.978c-2.494-0.621-4.572-0.864-5.368-3.769
				c-0.649-2.368-0.008-4.803-0.01-7.202c0-0.51-0.712-0.675-1.006-0.311c-2.402,2.961-3.35,7.653-1.242,11.032
				C235.694,183.878,239.829,186.359,242.394,183.444z"/>
			<path d="M237.367,166.345c2.932-1.75,5.469-3.851,8.706-5.103c3.103-1.2,6.609-1.71,9.864-2.373
				c0.533-0.109,0.822-0.909,0.2-1.152c-6.817-2.67-16.673,1.019-19.564,7.975C236.359,166.204,236.918,166.613,237.367,166.345z"/>
			<path d="M263.867,155.404c-4.728-1.777-9.502-1.505-14.451-1.313c-0.764,0.03-0.658,1.211,0.102,1.181
				c4.747-0.185,9.464,0.813,14.201,0.985C264.168,156.273,264.269,155.555,263.867,155.404z"/>
			<path d="M291.474,153.555c-2.094,0.767-3.291,3.075-3.084,5.234c0.218,2.279,1.931,4.231,4.247,4.494
				c1.648,0.187,3.175-0.51,4.046-1.743c1.589-1.552,2.255-4.16,0.852-6.146C296.216,153.529,293.598,152.778,291.474,153.555z"/>
			<path d="M280.277,154.051c-0.469,0.239-0.403,1.134,0.226,1.006c3.742-0.76,6.437-3.345,10.038-4.319
				c4.253-1.15,6.482,2.113,10.206,2.822c0.989,0.189,1.602-0.778,1.37-1.645c-0.916-3.415-5.694-5.045-8.904-5.128
				C287.369,146.636,284.959,151.661,280.277,154.051z"/>
			<path d="M271.362,118.916c0.073,1.085,1.538,1.022,1.798,0.078c4.197-15.265,0.567-32.783-4.251-47.473
				c-0.179-0.545-1.13-0.355-1.006,0.226c1.651,7.726,2.531,15.601,3.089,23.478C271.551,103.126,270.829,111.026,271.362,118.916z"
				/>
			<path d="M248.632,142.179c5.03-10.131,8.948-19.944,11.515-30.735c2.088,10.171,2.009,20.489,3.979,30.717
				c0.186,0.963,1.475,1.066,1.726,0.075c3.102-12.269-0.882-25.697-4.503-37.444c-0.418-1.356-2.45-1.067-2.684,0.245
				c-2.201,12.346-5.74,25.276-11.088,36.658C247.258,142.374,248.3,142.848,248.632,142.179z"/>
			<path d="M276.605,137.758c2.123-4.991,3.711-10.08,4.834-15.384c0.548-2.591,1.017-5.199,1.36-7.826
				c0.248-1.902,0.253-4.028,0.426-6.097c1.623,4.712,3.51,9.345,5.44,13.926c2.089,4.961,3.872,11.119,7.908,14.848
				c0.689,0.636,1.704-0.056,1.676-0.884c-0.189-5.634-3.798-11.279-6.016-16.366c-2.562-5.875-5.05-11.817-7.917-17.55
				c-0.664-1.328-3.078-1.117-2.789,0.626c0.856,5.163-1.495,11.976-2.477,17.116c-1.078,5.648-2.549,11.227-4.621,16.594
				C273.877,138.187,275.997,139.188,276.605,137.758z"/>
			<path d="M260.858,92.001c0.063,0.727,1.25,1.042,1.498,0.26c3.85-12.139-0.478-27.376-7.25-37.713
				c-0.357-0.545-1.265-0.065-1.016,0.542c2.478,6.02,4.64,12.315,5.679,18.753C260.744,79.883,260.335,85.936,260.858,92.001z"/>
			<path d="M432.646,330.809c4.539-5.661,0.62-14.257-5.751-16.567c-4.112-1.491-9.791,0.141-12.171,3.878
				c-0.386,0.607-0.694,1.259-1.001,1.909c-1.753,3.715-2.089,7.611,0.475,11.094C418.759,337.319,428.049,336.542,432.646,330.809z
				 M415.313,322.577c2.503-2.864,4.977-6.233,9.328-5.02c4.408,1.229,8.087,6.794,4.98,10.919c-2.877,3.821-9.093,4.869-12.7,1.445
				C414.529,327.65,414.368,325.027,415.313,322.577z"/>
		</g>
	</g>
</g>
<g>
</g>
<g>
</g>
<g>
</g>
<g>
</g>
<g>
</g>
<g>
</g>
<g>
</g>
<g>
</g>
<g>
</g>
<g>
</g>
<g>
</g>
<g>
</g>
<g>
</g>
<g>
</g>
<g>
</g>
</svg>
