<?xml version="1.0" ?><svg data-name="Layer 1" id="Layer_1" viewBox="0 0 128 128" xmlns="http://www.w3.org/2000/svg"><defs><style>.cls-1{fill:#7a9970;}.cls-2{fill:#efd99c;}.cls-3{fill:#f7e4a6;}.cls-4{fill:#fff0b9;}.cls-5{fill:#d14a4a;}.cls-6{fill:#dd5e58;}.cls-7{fill:#e56c6c;}</style></defs><title/><path class="cls-1" d="M107.59326,40.37331a16.30677,16.30677,0,0,1-3.64746-1.72363,16.59533,16.59533,0,0,1-6.28418-20.61377,1.00019,1.00019,0,0,0-1.67285-1.05664,16.5944,16.5944,0,0,1-21.31641,3.167,16.32733,16.32733,0,0,1-3.12207-2.55566,1.00017,1.00017,0,0,0-1.67383,1.00683,16.50267,16.50267,0,0,1-13.96094,21.688.99978.99978,0,0,0-.19433,1.94971,16.21808,16.21808,0,0,1,3.85742,1.79,16.5918,16.5918,0,0,1,6.29,20.606,1.00015,1.00015,0,0,0,1.67285,1.05664,16.58881,16.58881,0,0,1,21.31055-3.1587,16.3216,16.3216,0,0,1,3.28125,2.72168.99988.99988,0,0,0,1.67676-1.01416,16.49486,16.49486,0,0,1,13.59179-21.91943,1,1,0,0,0,.19141-1.94385Z"/><path class="cls-1" d="M76.24267,40.28542a16.504,16.504,0,0,1-13.96093-21.688,1.00017,1.00017,0,0,0-1.67383-1.00683,16.28948,16.28948,0,0,1-3.1211,2.55566,16.59612,16.59612,0,0,1-21.31738-3.16748.99986.99986,0,0,0-1.67187,1.05713A16.59446,16.59446,0,0,1,28.2124,38.64968a16.28942,16.28942,0,0,1-3.64746,1.72363,1,1,0,0,0,.1914,1.94385A16.49608,16.49608,0,0,1,38.34912,64.23659a.99957.99957,0,0,0,1.67676,1.01368,16.30771,16.30771,0,0,1,3.28027-2.7212,16.589,16.589,0,0,1,21.31152,3.1587,1.00019,1.00019,0,0,0,1.67285-1.05664,16.59035,16.59035,0,0,1,6.29-20.606,16.2455,16.2455,0,0,1,3.85645-1.79.99978.99978,0,0,0-.19434-1.94971Z"/><circle class="cls-2" cx="35.34778" cy="88.4074" r="7.88521"/><path class="cls-2" d="M59.73484,47.82276a14.24246,14.24246,0,0,0-19.54439,4.87245L37.70991,56.8233A27.38918,27.38918,0,0,1,23.43244,68.5392q-.87108.31748-1.75875.56831a7.22152,7.22152,0,0,0-.638,12.71838L47.87755,97.955A7.22151,7.22151,0,0,0,58.808,91.4213q-.19521-.90155-.3238-1.81971a27.38914,27.38914,0,0,1,3.64254-18.10636l2.48055-4.12809a14.24245,14.24245,0,0,0-4.87246-19.54438"/><path class="cls-3" d="M18.56619,71.92034a7.218,7.218,0,0,0,2.46949,9.90552L47.87753,97.955A7.22153,7.22153,0,0,0,58.808,91.42126q-.19519-.90153-.3238-1.8197L23.43247,68.53918q-.87112.3175-1.75879.5683A7.203,7.203,0,0,0,18.56619,71.92034Z"/><circle class="cls-2" cx="89.93065" cy="99.5801" r="9.43954"/><path class="cls-3" d="M72.824,45.54181A17.04993,17.04993,0,0,0,61.71445,66.94319l1.74,5.49653a32.78809,32.78809,0,0,1-.795,22.09545q-.40512,1.03333-.88318,2.02873a8.645,8.645,0,0,0,10.90961,10.64787l35.73984-11.314a8.645,8.645,0,0,0,2.79475-14.9862q-.96379-.539-1.88974-1.15091a32.78816,32.78816,0,0,1-13.3653-17.61278l-1.74-5.49653A17.04992,17.04992,0,0,0,72.824,45.54181"/><path class="cls-4" d="M61.77626,96.56386a8.645,8.645,0,0,0,10.9096,10.64789l35.73981-11.314a8.64492,8.64492,0,0,0,2.79468-14.98621q-.96369-.539-1.88965-1.15094L62.65943,94.53518Q62.25431,95.56844,61.77626,96.56386Z"/><path class="cls-5" d="M57.28783,45.7859a30.61332,30.61332,0,0,0-4.77344.376A30.40576,30.40576,0,0,1,78.14127,76.18622c0,.53208-.01708,1.06011-.0441,1.58547l4.56071-3.49932,4.9891,3.49932q.04044-.78773.04116-1.58547A30.40032,30.40032,0,0,0,57.28783,45.7859Z"/><path class="cls-5" d="M74.87077,45.7859a30.61332,30.61332,0,0,1,4.77344.376A30.40577,30.40577,0,0,0,54.01733,76.18622c0,.53208.01709,1.06011.0441,1.58547l-4.5607-3.49932-4.98911,3.49932q-.04044-.78773-.04116-1.58547A30.40032,30.40032,0,0,1,74.87077,45.7859Z"/><path class="cls-6" d="M70.51785,43.13047s-14.752,11.07084-20.86628,11.07084a11.07084,11.07084,0,0,1,0-22.14168C55.76583,32.05963,70.51785,43.13047,70.51785,43.13047Z"/><path class="cls-6" d="M61.64075,43.13047S76.39277,32.05963,82.507,32.05963a11.07084,11.07084,0,1,1,0,22.14168C76.39277,54.20131,61.64075,43.13047,61.64075,43.13047Z"/><path class="cls-7" d="M66.0793,34.55579A4.17418,4.17418,0,0,0,61.90512,38.73v8.34841a4.17418,4.17418,0,1,0,8.34836,0V38.73A4.17417,4.17417,0,0,0,66.0793,34.55579Z"/></svg>