<?xml version="1.0" ?><svg data-name="Layer 1" id="Layer_1" viewBox="0 0 128 128" xmlns="http://www.w3.org/2000/svg"><defs><style>.cls-1{fill:#eddfca;}.cls-2{fill:#d14a4a;}.cls-3{fill:#f6ecd9;}.cls-4{fill:#dd5e58;}</style></defs><title/><path class="cls-1" d="M31.01953,63.18262V114a1.50008,1.50008,0,0,0,1.5,1.5H95.48047a1.50008,1.50008,0,0,0,1.5-1.5V63.18262"/><path class="cls-2" d="M78.72949,12.5A16.23753,16.23753,0,0,0,64,21.957a16.222,16.222,0,1,0-14.72949,23.0025h29.459a16.22974,16.22974,0,0,0,0-32.45947ZM56.7207,34.6792a1.50007,1.50007,0,0,1-1.5,1.5H49.33789a7.38208,7.38208,0,1,1,7.38281-7.38232Zm21.94141,1.50049H72.78027a1.50008,1.50008,0,0,1-1.5-1.5V28.79736a7.38233,7.38233,0,1,1,7.38184,7.38233Z"/><rect class="cls-3" height="21.72314" rx="1.5" ry="1.5" width="77.37109" x="25.31445" y="41.95947"/><rect class="cls-4" height="73.54053" width="15.87982" x="56.06009" y="41.95947"/></svg>