<?xml version="1.0" encoding="iso-8859-1"?>
<!-- Generator: Adobe Illustrator 18.0.0, SVG Export Plug-In . SVG Version: 6.00 Build 0)  -->
<!DOCTYPE svg PUBLIC "-//W3C//DTD SVG 1.1//EN" "http://www.w3.org/Graphics/SVG/1.1/DTD/svg11.dtd">
<svg version="1.1" id="Capa_1" xmlns="http://www.w3.org/2000/svg" xmlns:xlink="http://www.w3.org/1999/xlink" x="0px" y="0px"
	 viewBox="0 0 239.372 239.372" style="enable-background:new 0 0 239.372 239.372;" xml:space="preserve">
<g>
	<path d="M70.56,120.147c-1.199-5.334-6.997-10.61-12.326-8.65c-5.779-0.142-10.875,5.033-10.85,11.013
		c0.029,6.881,6.195,12.627,13.066,11.728C67.277,133.345,72.085,126.933,70.56,120.147z M59.832,131.194
		c-4.977,0.483-9.33-3.692-9.415-8.684c-0.065-3.817,2.529-6.585,5.746-8.143c0.297,0.318,0.694,0.536,1.141,0.371
		C68.46,110.616,71.948,130.018,59.832,131.194z"/>
	<path d="M63.846,124.437c-0.625-0.798-1.514-1.382-2.431-1.918c0.985-1.229,1.951-2.477,2.534-3.946
		c0.375-0.945-0.905-1.38-1.521-0.886c-1.227,0.985-2.133,2.329-3.017,3.655c-1.552-0.966-3.078-1.97-4.608-2.969
		c-0.925-0.604-1.711,0.829-0.852,1.457c1.442,1.055,2.887,2.107,4.308,3.191c-1.137,1.639-2.275,3.279-3.412,4.918
		c-0.582,0.839,0.789,1.918,1.43,1.103c1.225-1.559,2.45-3.117,3.674-4.676c0.898,0.731,1.83,1.43,2.909,1.766
		C63.924,126.464,64.417,125.164,63.846,124.437z"/>
	<path d="M151.844,119.088c-1.851-6.182-9.88-12.417-16.14-8.053c-5.888,1.457-9.989,7.303-8.943,13.588
		c1.204,7.229,8.852,12.45,15.982,10.41C149.553,133.085,153.904,125.97,151.844,119.088z M142.953,131.757
		c-5.403,2.122-11.523-1.011-13.139-6.656c-1.434-5.009,1.698-9.684,5.905-12.17c0.151,0.082,0.305,0.166,0.53,0.14
		c5.155-0.593,9.566,0.427,12.033,5.377C150.844,123.59,148.268,129.669,142.953,131.757z"/>
	<path d="M146.583,125.134c-0.976-1.112-2.183-1.987-3.388-2.853c0.842-0.55,1.675-1.098,2.583-1.631
		c0.902-0.53,0.312-2.032-0.723-1.715c-1.295,0.396-2.582,1.092-3.766,1.942c-1.445-1.077-2.887-2.157-4.33-3.236
		c-0.735-0.55-1.702,0.692-0.988,1.281c1.235,1.018,2.48,2.157,3.748,3.276c-0.773,0.74-1.485,1.526-2.016,2.378
		c-0.451,0.724,0.518,1.318,1.102,0.85c0.845-0.678,1.681-1.271,2.522-1.869c1.349,1.115,2.733,2.163,4.211,2.932
		C146.419,126.948,147.231,125.873,146.583,125.134z"/>
	<path d="M44.308,164.138c-3.354-0.173-6.735-0.024-10.092-0.022c-0.697,0-0.694,1.058,0,1.081c3.357,0.111,6.733,0.37,10.092,0.307
		C45.191,165.486,45.183,164.183,44.308,164.138z"/>
	<path d="M191.118,98.061c4.014-0.53,7.68-2.571,10.32-5.707c2.525-3,5.493-8.383,3.755-12.322c-0.265-0.6-1.019-0.74-1.611-0.527
		c-1.133-1.714-2.38-3.307-3.678-4.845c0.521-0.442,0.852-1.11,0.661-1.965c-7.213-32.394-34.685-51.929-65.875-56.652
		c1.769-2.652,1.391-6.747,0.184-9.498c-1.707-3.892-5.42-6.343-9.655-6.535c-7.672-0.348-14.242,8.129-10.358,15.082
		C89.44,16.577,62.255,28.824,56.82,54.512c-0.475,0.159-0.528,0.793-0.234,1.149c-0.444,2.42-0.767,4.912-0.811,7.566
		c-0.005,0.299,0.163,0.499,0.376,0.645c-0.674,0.582-1.383,1.134-2.006,1.756c-0.358-0.17-0.782-0.195-1.164,0.182
		c-5.751,5.663-5.414,16.224-0.537,22.433c-30.675,27.497-33.911,73.992-8.458,106.478c-1.14,0.856-2.192,1.789-3.003,2.842
		c-4.072,5.289-5.644,12.42-6.917,18.815c-1.249,6.275-4.017,16.124-1.924,22.202c0.142,0.413,0.437,0.592,0.85,0.647
		c0.059,0.008,0.119,0.016,0.178,0.024c0.114,0.039,0.197,0.124,0.344,0.107c0.066-0.008,0.13-0.026,0.196-0.034
		c0.108,0.014,0.215,0.029,0.323,0.043c0.206,0.028,0.339-0.057,0.438-0.177c12.691-1.943,24.238-13.194,33.875-23.225
		c34.327,21.046,91.84,16.289,121.246-11.612C220.379,175.14,219.209,128.345,191.118,98.061z M124.753,3.654
		c2.77,0.04,5.291,1.493,6.536,3.986c1.406,2.815,0.395,5.015-0.014,7.827c-0.007,0.046,0.022,0.083,0.019,0.129
		c-2.815-0.327-5.646-0.577-8.5-0.663c-1.809-0.054-3.644-0.046-5.49,0.012c-0.174-0.758-0.256-1.529-0.285-2.297
		c2.245-0.104,4.485-0.198,6.719-0.462c0.79-0.093,0.834-1.314,0-1.271c-2.245,0.116-4.467,0.401-6.695,0.676
		c0.059-1.16,0.304-2.276,0.708-3.3c2.438-0.23,4.844-0.241,7.313-0.215c0.753,0.008,0.949-1.181,0.181-1.341
		c-2.201-0.46-4.449-0.406-6.652-0.022C119.848,4.862,121.86,3.612,124.753,3.654z M59.425,55.69
		c3.123-0.253,6.273-0.483,9.321-1.143c0.859-0.186,0.665-1.547-0.207-1.527c-2.835,0.066-5.675,0.507-8.496,0.954
		c0.605-1.7,1.292-3.329,2.046-4.897c7.966,0.496,15.968,0.869,23.946,0.872c1.092,0,1.079-1.632,0-1.688
		c-7.748-0.4-15.535-0.446-23.298-0.374c1.008-1.952,2.167-3.761,3.392-5.505c3.825,0.027,7.653-0.363,11.319-1.476
		c0.623-0.189,0.546-1.269-0.161-1.192c-3.335,0.364-6.655,0.755-9.993,1.04c1.786-2.326,3.781-4.437,5.924-6.376
		c5.268,0.454,10.664,0.288,15.751-1.25c1.059-0.32,0.605-1.802-0.449-1.627c-4.523,0.75-8.95,1.322-13.493,1.312
		c3.179-2.612,6.694-4.819,10.435-6.683c2.891-0.095,5.77-0.228,8.653-0.549c0.839-0.093,0.887-1.359,0-1.346
		c-1.626,0.023-3.241,0.112-4.855,0.221c11.124-4.645,23.976-6.41,36.837-5.499c31.936,2.264,60.432,20.044,69.535,51.21
		c-15.591-14.685-39.145-20.04-60.037-21.796c-21.735-1.827-58.443-0.983-77.9,14.15C58.13,60.127,58.733,57.872,59.425,55.69z
		 M52.12,81.257c-0.295-1.784-0.324-3.54-0.111-5.313c3.709,0.109,7.439,0.305,11.143,0.131c0.976-0.046,0.977-1.471,0-1.517
		c-3.639-0.171-7.303,0.015-10.948,0.125c0.249-1.357,0.671-2.744,1.175-4.154c3.784-0.321,7.578-0.591,11.328-1.195
		c0.883-0.142,0.68-1.618-0.212-1.564c-3.527,0.212-7.03,0.726-10.531,1.208c0.078-0.188,0.127-0.366,0.209-0.555
		c38.68-29.358,117.877-23.818,148.059,14.007c-0.13,0.757-0.236,1.523-0.467,2.289c-0.609,2.024-1.671,3.959-3.014,5.591
		c-2.589,3.147-6.111,5.096-10.023,6.088c-0.007,0.002-0.008,0.01-0.016,0.012c-38.065-25.656-90.698-30.487-131.806-9.11
		c-0.463-0.906-1.773-1.483-2.801-0.615c-0.073,0.062-0.133,0.131-0.206,0.193c-0.648-1.394-1.079-2.738-1.412-4.067
		c0.638-0.046,1.276-0.079,1.914-0.129c0.069-0.006,0.097-0.054,0.155-0.073c1.967,0.123,3.951,0.269,5.902,0.149
		c0.914-0.057,0.916-1.366,0-1.422c-1.951-0.121-3.935,0.026-5.902,0.149c-0.057-0.02-0.086-0.068-0.155-0.073
		C53.643,81.352,52.882,81.305,52.12,81.257z M33.828,237.209c-1.217-4.702,3.959-23.323,4.701-26.03
		c2.703-9.862,10.412-21.992,21.597-13.554c0.948,0.715,1.992-0.628,1.518-1.518c-2.896-5.432-8.728-5.777-13.765-3.683
		c1.811-7.653,5.076-15.121,9.045-21.91c4.803-8.215,11.317-9.914,20.233-9.444c1.174,0.062,1.745-1.791,0.622-2.297
		c-3.157-1.422-6.099-1.733-8.847-1.317c3.651-9.389,10-19.785,20.559-21.111c12.133-1.523,19.262,8.615,24.482,18.244
		c0.067,0.123,0.177,0.146,0.266,0.222c-0.148,0.118-0.298,0.235-0.419,0.415c-10.609,15.717-22.055,30.7-35.033,44.55
		C67.143,212.203,50.506,232.236,33.828,237.209z M180.431,206.802c-29.686,22.259-77.885,23.74-110.511,7.52
		c2.032-2.127,3.98-4.178,5.822-6.032c15.482-15.585,29.273-32.797,41.206-51.234c0.788-1.217-0.1-2.355-1.197-2.598
		c0.092-0.193,0.151-0.41,0.095-0.656c-2.518-11.043-14.36-23.085-26.544-21.776c-12.12,1.302-19.917,15.275-22.682,25.767
		c-0.022,0.085,0.031,0.133,0.026,0.211c-12.196,3.946-19.717,23.522-20.814,34.411c-0.038,0.381,0.173,0.615,0.442,0.775
		c-0.258,0.139-0.473,0.334-0.724,0.484c-2.664-4.635-4.987-9.36-6.981-14.131c1.902,0.276,3.811,0.574,5.726,0.677
		c0.503,0.027,0.633-0.824,0.121-0.894c-2.019-0.276-4.067-0.342-6.103-0.441c-0.77-1.876-1.48-3.76-2.138-5.648
		c3.392,0.218,6.752,0.636,10.138,0.967c0.592,0.058,0.728-0.932,0.141-1.043c-3.477-0.659-7.041-0.799-10.578-0.834
		c-1.84-5.432-3.204-10.901-4.043-16.354c4.373,0.357,8.758,0.822,13.144,0.768c0.764-0.01,0.719-1.069,0-1.157
		c-4.397-0.535-8.85-0.548-13.278-0.674c-0.395-2.793-0.641-5.58-0.75-8.356c2.389,0.315,4.965,0.418,7.303,0.122
		c0.888-0.112,0.89-1.272,0-1.384c-2.351-0.297-4.935-0.194-7.333,0.124c-0.077-3.068,0.05-6.115,0.344-9.138
		c3.686-0.337,7.305-0.18,11.023-0.244c0.84-0.015,1.102-1.381,0.207-1.527c-3.622-0.591-7.426-0.255-11.084,0.319
		c0.364-3.089,0.997-6.135,1.774-9.154c2.369,0.091,4.723,0.235,7.088,0.017c0.731-0.067,0.732-1.07,0-1.138
		c-2.27-0.209-4.53-0.083-6.803,0.007c0.815-2.958,1.849-5.872,3.082-8.739c3.034,0.051,6.073,0.135,9.105,0.059
		c1.098-0.028,1.1-1.679,0-1.707c-2.788-0.07-5.582-0.004-8.372,0.046c1.877-4.069,4.231-8.022,7.021-11.849
		c3.595,0.088,7.176,0.179,10.773-0.027c1-0.057,1.001-1.498,0-1.555c-3.181-0.182-6.351-0.126-9.528-0.052
		c1.35-1.745,2.809-3.458,4.356-5.144c3.485,0.513,7.046,0.648,10.556,0.713c1.043,0.02,1.001-1.493,0-1.593
		c-3.034-0.301-6.114-0.522-9.179-0.52c1.352-1.401,2.72-2.798,4.238-4.146c44.838-17.81,89.85-16.097,131.458,9.371
		c0.178,0.109,0.344,0.121,0.515,0.164c0.085,0.182,0.171,0.365,0.329,0.536C217.094,131.581,215.736,180.328,180.431,206.802z"/>
</g>
<g>
</g>
<g>
</g>
<g>
</g>
<g>
</g>
<g>
</g>
<g>
</g>
<g>
</g>
<g>
</g>
<g>
</g>
<g>
</g>
<g>
</g>
<g>
</g>
<g>
</g>
<g>
</g>
<g>
</g>
</svg>
