<?xml version="1.0" encoding="iso-8859-1"?>
<!-- Generator: Adobe Illustrator 19.0.0, SVG Export Plug-In . SVG Version: 6.00 Build 0)  -->
<svg version="1.1" id="Layer_1" xmlns="http://www.w3.org/2000/svg" xmlns:xlink="http://www.w3.org/1999/xlink" x="0px" y="0px"
	 viewBox="0 0 512.003 512.003" style="enable-background:new 0 0 512.003 512.003;" xml:space="preserve">
<g>
	<g>
		<g>
			<path d="M349.82,273.127c-2.064-6.547-5.434-12.801-9.723-18.071c-0.786-0.982-1.605-1.865-2.488-2.718
				c-1.016-1.014-2.227-1.865-3.504-2.75c-2.684-1.899-5.795-2.784-7.89-3.307c-1.341-0.393-2.684-0.49-3.208-0.524
				c-0.558-0.065-1.113-0.099-1.67-0.099c-0.392,0.001-0.785,0.001-1.309,0.067c-0.752,0.065-1.538,0.196-2.292,0.425
				c-1.31,0.228-2.619,0.851-4.617,1.865c-1.669,0.818-3.176,1.964-4.583,3.077c-4.027,3.077-7.071,7.202-9.789,11.229
				c-1.178,1.67-2.129,3.502-3.109,5.303l-0.523,1.014c-1.212,2.292-2.325,4.617-3.273,7.039l-0.95,2.587
				c-2.095-0.327-4.06-1.081-6.057-1.801l-3.962-1.375l-2.258-0.785c-1.474-0.49-2.914-1.048-4.353-1.605l-1.276-0.524
				c-2.095-0.819-4.256-1.571-6.416-2.258c-4.353-1.375-8.643-2.357-12.768-2.914c-4.289-0.589-8.576-0.95-12.997-1.309
				c-1.736-0.163-3.471-0.294-5.206-0.393l-0.917-0.032c-1.44,0-2.914,0.131-4.353,0.359c-3.928,0.294-7.956,1.081-11.95,2.357
				c-2.292,0.72-4.648,1.865-6.972,3.438c-1.932,1.343-3.339,3.109-4.517,4.682c-1.147,1.603-2.063,3.797-2.75,6.482
				c-0.296,1.048-0.296,2.26-0.296,3.307c0,0.327,0,0.621,0.032,0.95c-0.065,0.393-0.131,0.818-0.163,1.212
				c-0.066,0.72-0.131,1.407-0.131,2.063c0,0.393,0,0.786,0.032,1.212c0.065,0.917,0.261,1.834,0.523,2.75
				c0.49,2.226,1.474,4.353,2.292,5.926c0.982,1.964,2.456,3.962,4.158,5.827c1.341,1.474,2.75,2.881,4.19,4.289l1.93,2.718
				c2.292,3.208,5.008,6.482,8.284,10.051c3.732,4.027,8.184,7.89,13.914,12.081c3.077,2.258,6.646,4.583,10.9,7.136l2.849,1.669
				l1.048,0.655l0.851,0.49l1.539,0.917l2.816,1.474c2.815,1.506,5.662,2.98,8.576,4.353c2.718,1.244,5.434,2.488,8.152,3.765
				c1.637,0.72,3.274,1.375,4.945,1.998l2.063,0.786l5.466,2.095c1.244,0.458,2.52,0.851,3.798,1.212l2.75,0.851
				c3.896,1.212,7.823,2.292,11.786,3.371l0.947,0.262c3.929,1.048,7.858,2.095,11.754,3.273l1.899,0.556
				c1.506,0.459,3.045,0.917,4.583,1.309c0.688,0.163,1.407,0.262,2.129,0.262c1.44,0,2.881-0.327,4.19-0.95l1.081-0.524
				l1.013-0.754l0.983-0.752c0.686-0.655,1.31-1.375,1.865-2.129c0.523-0.621,0.982-1.244,1.407-1.899
				c0.589-0.819,1.048-1.734,1.669-2.946c0.851-1.669,1.407-2.847,1.932-4.059c1.145-2.52,2.063-5.14,2.881-7.759
				c1.147-3.633,2.03-7.301,2.881-10.999l0.95-4.093l0.982-4.125c0.23-0.982,0.393-1.932,0.557-2.881l0.196-0.982l0.328-1.964
				l0.294-1.539c0.328-1.637,0.621-3.339,0.82-5.008l0.523-4.19l0.49-4.19c0.197-1.637,0.262-3.242,0.328-4.845l0.032-0.982
				l0.163-3.601c0.032-0.621,0.032-1.212,0.032-1.834c0.032-1.865-0.066-3.7-0.163-5.533
				C352.897,285.895,351.753,279.248,349.82,273.127z M299.668,357.099l0.163-1.081h0.004c0.008,0.196-0.016,0.394-0.069,0.589
				c0.448,0.363,0.918,0.637,1.404,0.855L299.668,357.099z M321.601,253.655v-0.006c0.01,0.003,0.022,0.005,0.03,0.009
				C321.62,253.656,321.61,253.656,321.601,253.655z M326.61,363.547v0.099c-1.049-0.275-2.1-0.54-3.148-0.8
				c1.039,0.222,2.078,0.436,3.115,0.637c0-0.017,0.279-0.017,0.558-0.017L326.61,363.547z"/>
			<path d="M479.395,216.592c-0.191-8.253-1.565-16.273-3.073-24.36c-0.785-4.125-1.964-8.216-3.142-12.244
				c-2.75-9.363-5.762-18.89-11.524-26.91c-3.764-5.238-8.249-9.821-13.455-13.684c-5.238-3.896-11.162-6.613-17.449-8.38
				c-6.123-1.734-12.702-2.389-19.053-2.488c-0.131,0-0.262,0-0.425,0c-4.026,0-8.021,0.425-12.015,0.982
				c-4.976,0.621-9.789,1.54-14.601,2.849c-4.42,1.212-8.741,2.619-13.062,4.059c-4.845,1.605-9.559,3.732-14.242,5.795
				c-3.896,1.736-7.791,3.536-11.555,5.597c-8.447,4.649-16.86,9.593-24.293,15.78c-3.47,2.881-6.972,5.762-10.213,8.904
				c-3.339,3.274-6.482,6.712-9.559,10.214c-4.06,4.617-7.922,9.396-11.59,14.307c-1.075,1.422-2.028,2.936-2.998,4.435
				c-0.051-0.352-0.101-0.698-0.152-1.049c-0.728-5.482-1.476-10.965-2.076-16.478c-0.721-6.45-1.375-12.898-2.258-19.315
				c0.012,0.065,0.023,0.134,0.034,0.2c-0.176-1.319-0.34-2.642-0.524-3.985c-0.429-3.102-0.877-6.206-1.326-9.328
				c0.005,0.049,0.012,0.099,0.016,0.149c-0.021-0.148-0.038-0.297-0.057-0.445c-0.036-0.244-0.073-0.488-0.106-0.733
				c0.017,0.099,0.032,0.196,0.048,0.294c-1.149-8.84-1.973-17.712-2.798-26.582c-0.785-8.774-1.637-17.515-2.389-26.322
				c-0.327-4.026-0.558-8.085-0.917-12.112c-0.425-4.353-0.916-8.708-1.44-13.095c-0.121-0.991-0.224-1.995-0.331-2.989
				c2.601,3.614,5.958,6.491,9.555,9.044c3.928,2.815,8.512,4.748,13.062,6.22c2.554,0.851,5.271,1.375,7.956,1.212
				c2.257-0.099,4.32-0.786,6.285-1.865c0.589-0.425,1.179-0.851,1.768-1.31c0.916-0.785,1.734-1.603,2.553-2.488
				c1.703-1.8,2.946-4.026,4.093-6.22c0.948-1.833,1.637-3.798,2.292-5.762c0.819-2.423,1.244-4.944,1.145-7.529
				c-0.032-1.834-0.885-3.601-1.637-5.206c-0.425-0.885-1.178-1.637-1.865-2.292c-0.655-0.621-1.669-1.244-2.52-1.474
				c-1.113-0.294-2.226-0.294-3.338-0.163c-1.114,0.163-2.227,0.459-3.209,1.016c-1.865,1.113-3.438,2.422-4.945,3.928
				c-1.505,1.506-1.505,4.027,0,5.533c1.54,1.571,3.929,1.44,5.5,0c0.608-0.554,1.24-1.06,1.876-1.579
				c0.508-0.349,1.035-0.66,1.58-0.934c0.031-0.01,0.065-0.019,0.097-0.029c0.121,0.2,0.23,0.406,0.328,0.619
				c0.121,0.327,0.226,0.656,0.31,0.995c0.035,0.568,0.026,1.136-0.031,1.703c-0.37,1.863-0.935,3.609-1.588,5.367
				c-0.933,2.081-2.002,4.017-3.308,5.852c-0.837,0.96-1.705,1.841-2.688,2.679c-0.414,0.275-0.848,0.521-1.309,0.742
				c-0.279,0.091-0.562,0.167-0.852,0.232c-0.899,0.084-1.741,0.087-2.648,0.032c-3.069-0.646-5.958-1.57-8.842-2.78
				c-1.304-0.593-2.585-1.203-3.845-1.899c-1.42-0.769-2.733-1.753-4.036-2.707c-1.872-1.477-3.57-3.043-5.112-4.85
				c-2.24-3.067-4.065-6.433-5.631-9.891c-0.089-0.231-0.182-0.462-0.27-0.694c0.641-0.082,1.288-0.208,1.896-0.515
				c2.784-1.407,5.271-3.242,7.66-5.206c2.095-1.703,4.224-3.339,6.319-5.042c5.958-4.811,11.295-10.541,15.452-16.991
				c1.996-3.077,3.436-6.482,4.648-9.918c1.244-3.47,2.064-7.236,1.54-10.902c-0.359-2.718-1.736-5.238-4.517-6.122
				C305.545,0.123,304.481,0,303.409,0c-1.749,0-3.518,0.326-5.261,0.59c-6.843,1.048-12.637,5.173-17.484,9.887
				c-2.847,2.75-5.238,6.057-7.529,9.265c-2.227,3.109-4.093,6.45-5.697,9.887c-1.557,3.335-2.496,6.793-3.089,10.405
				c-0.17-0.281-0.341-0.564-0.514-0.846c-0.916-1.506-1.899-3.012-2.881-4.486c-2.095-3.24-4.452-6.154-7.234-8.807
				c-1.703-1.605-3.7-2.946-5.664-4.19c-1.736-1.113-3.601-1.998-5.5-2.75c-2.063-0.851-4.059-1.44-6.253-1.768
				c-0.883-0.163-1.767-0.23-2.684-0.197c-0.458,0.066-0.916,0.131-1.407,0.197c-0.819,0.065-1.637,0.228-2.422,0.49
				c-0.72,0.196-1.407,0.459-2.095,0.754c-1.081,0.589-1.768,1.145-2.651,2.029c-0.459,0.524-0.851,1.145-1.147,1.801
				c-0.131,0.294-0.262,0.621-0.393,0.917c-0.132,0.785-0.23,1.571-0.327,2.389c0.097,0.786,0.195,1.571,0.294,2.389
				c0.393,1.145,0.819,2.129,1.409,3.208c1.079,1.932,2.651,3.601,4.125,5.206c1.93,2.129,4.189,3.962,6.383,5.827
				c1.375,1.179,2.815,2.325,4.255,3.438c2.816,2.226,5.762,4.093,8.839,5.926c1.771,1.078,3.668,1.88,5.614,2.531
				c-0.018,0.419-0.026,0.841-0.066,1.262c-0.441,2.814-1,5.599-1.727,8.355c-0.619,2.308-1.465,4.565-2.374,6.774
				c-0.883,1.917-1.882,3.719-3.125,5.463c-1.804,2.105-3.783,3.977-5.919,5.726c-3.087,2.223-6.465,3.864-9.912,5.425
				c-0.333,0.114-0.673,0.206-1.017,0.279c-0.281,0.016-0.56,0.021-0.835,0.012c-0.183-0.042-0.363-0.079-0.551-0.113
				c-0.231-0.202-0.449-0.42-0.655-0.65c-0.457-0.712-0.848-1.397-1.199-2.12c-0.305-0.937-0.523-1.858-0.708-2.807
				c-0.082-1.148-0.079-2.264,0.01-3.413c0.201-1.094,0.471-2.129,0.833-3.177c0.624-1.304,1.339-2.519,2.164-3.751
				c1.061-1.366,2.135-2.712,3.421-3.835c0.166-0.099,0.336-0.206,0.512-0.315c0.355-0.127,0.715-0.239,1.088-0.322
				c1.375-0.393,2.357-1.669,2.357-3.109c0-0.851-0.328-1.703-0.95-2.292c-0.524-0.524-1.474-1.048-2.258-0.95
				c-1.54,0.23-3.044,0.393-4.453,1.145c-1.865,0.982-3.373,2.389-4.878,3.831c-1.54,1.474-2.784,3.209-3.928,5.008
				c-1.474,2.325-2.194,5.042-2.554,7.759c-0.296,2.127-0.262,4.256,0.163,6.351c0.393,2.029,1.081,3.863,2.029,5.696
				c0.818,1.669,2.161,3.176,3.601,4.289c0.851,0.621,1.833,1.244,2.847,1.472c1.113,0.296,2.194,0.425,3.308,0.524
				c0.785,0.032,1.539-0.032,2.258-0.163c1.309-0.23,2.456-0.621,3.666-1.145c2.258-0.982,4.453-2.029,6.613-3.176
				c2.129-1.113,4.026-2.587,5.926-4.059c2.258-1.801,4.289-3.863,6.089-6.089c3.143-3.831,4.944-8.414,6.547-13.029
				c1.375-3.969,2.179-8.154,2.642-12.356c0.367,3.327,0.573,6.675,0.869,9.998c0.393,4.387,0.917,8.774,1.375,13.128
				c0.948,8.61,1.474,17.253,2.258,25.895c0.785,8.642,1.572,17.285,2.357,25.928c0.426,4.551,0.785,9.101,1.375,13.619
				c0.621,4.944,1.31,9.887,1.998,14.863c0,0.032,0,0.065,0,0.099c-0.032-0.393-0.099-0.786-0.163-1.179
				c1.244,9.429,2.257,18.89,3.307,28.35c0.49,4.517,1.145,9.003,1.734,13.521c0.285,2.204,0.637,4.403,0.96,6.6
				c-6.892-5.968-14.125-11.479-22.154-15.901c-5.337-2.914-11.131-5.075-16.829-7.136c-5.107-1.833-10.345-3.438-15.614-4.78
				c-9.069-2.226-18.104-4.551-27.27-6.383c-4.256-0.851-8.48-1.833-12.768-2.52c-5.075-0.819-10.148-1.571-15.256-2.161
				c-10.345-1.212-20.723-1.506-31.1-0.72c-13.03,0.982-25.797,4.518-37.647,9.887c-22.557,10.247-42.068,27.303-54.181,49.041
				c-6.22,11.164-9.855,23.57-11.818,36.143c-0.95,5.958-1.605,11.948-1.865,17.94c-0.262,6.841,0.359,13.652,1.341,20.428
				c0.885,6.253,2.651,12.44,4.583,18.431c2.095,6.547,5.075,12.801,8.414,18.758c3.109,5.533,6.579,10.934,10.245,16.107
				c7.498,10.607,16.861,19.576,26.158,28.58c6.515,6.319,12.898,12.801,19.707,18.791c6.778,5.992,13.65,11.917,20.755,17.515
				c7.497,5.892,15.027,11.917,23.081,17.056c7.628,4.845,15.288,9.559,23.211,13.914c7.988,4.387,15.943,8.807,24.16,12.768
				c8.412,4.059,16.891,7.988,25.241,12.146c8.021,3.994,15.975,8.216,23.996,12.212c8.085,3.994,16.14,8.021,24.227,12.047
				c8.249,4.125,16.695,7.694,25.6,10.214c1.964,0.556,3.994,0.95,5.958,1.375c3.308,0.655,6.744,1.016,10.083,0.754
				c3.994-0.327,7.857-1.212,11.589-2.619c6.777-2.553,13.161-6.285,19.118-10.345c2.292-1.605,4.551-3.176,6.712-4.911
				c1.833-1.407,3.732-2.75,5.434-4.289c3.502-3.208,6.941-6.383,10.247-9.756c6.906-7.071,13.519-14.437,19.544-22.295
				c0.004,0,0.005,0,0.008,0c-0.514,0.676-0.999,1.321-1.514,1.998c0.524-0.678,1.049-1.357,1.571-2.035
				c5.839-7.58,11.546-15.205,16.926-23.107c5.238-7.726,10.051-15.682,14.831-23.702c4.551-7.694,8.838-15.583,13.193-23.407
				c4.29-7.726,8.545-15.486,12.539-23.408c8.25-16.269,16.075-32.967,22.098-50.219c3.209-9.101,6.22-18.267,9.101-27.499
				c2.651-8.512,4.453-17.253,6.024-26.026c0.819-4.518,1.31-9.2,1.605-13.815c0.294-5.008,0.589-9.985,0.785-14.994
				C479.395,226.511,479.493,221.568,479.395,216.592z M313.738,59.618c0.23-0.036,0.462-0.06,0.703-0.07
				c-0.21,0.039-0.423,0.065-0.636,0.087C313.782,59.631,313.76,59.625,313.738,59.618z M303.706,8.748c0.003,0,0.005,0,0.005,0
				c-0.019,0.003-0.039,0.005-0.058,0.008C303.671,8.754,303.688,8.751,303.706,8.748z M275.316,35.167
				c2.185-4.85,5.046-9.293,8.235-13.558c2.216-2.764,4.605-5.33,7.32-7.622c1.78-1.339,3.618-2.471,5.608-3.438
				c2.072-0.758,4.187-1.297,6.359-1.664c0.004,0.275-0.001,0.551-0.014,0.83c-0.457,2.76-1.237,5.425-2.253,8.061
				c-1.343,2.993-2.95,5.736-4.889,8.368c-3.489,4.373-7.519,8.154-11.925,11.607c-2.098,1.479-4.173,2.924-6.333,4.251
				c-1.437,0.863-2.942,1.623-4.418,2.432C273.473,41.26,274.196,38.177,275.316,35.167z M228.62,87.315
				c0.047,0.017,0.096,0.034,0.143,0.052c-0.017-0.001-0.034-0.003-0.051-0.004C228.681,87.346,228.651,87.331,228.62,87.315z
				 M228.748,87.381c0.025,0.003,0.049,0.006,0.074,0.009c0.249,0.1,0.492,0.209,0.73,0.318
				C229.272,87.623,229.005,87.513,228.748,87.381z M259.251,47.481c-1.539-0.294-2.998-0.72-4.447-1.278
				c-2.544-1.204-4.999-2.613-7.334-4.2c-1.906-1.231-3.705-2.593-5.494-3.969c-3.257-2.759-6.508-5.469-9.307-8.739
				c-0.594-0.859-1.132-1.706-1.647-2.62c-0.058-0.174-0.117-0.349-0.175-0.521c-0.01-0.143-0.019-0.284-0.029-0.427
				c0.005-0.032,0.012-0.065,0.018-0.096c0.048-0.022,0.096-0.044,0.144-0.067c0.693-0.209,1.407-0.372,2.144-0.489
				c0.479-0.032,0.953-0.031,1.433,0.003c0.802,0.128,1.588,0.301,2.37,0.525c0.93,0.232,1.825,0.645,2.715,1.035
				c2.266,1.077,4.409,2.304,6.479,3.748c2.064,1.668,3.902,3.475,5.607,5.518c2.081,2.805,3.982,5.761,5.856,8.72
				c0.591,0.953,1.164,1.907,1.718,2.865C259.284,47.487,259.267,47.484,259.251,47.481z M461.361,236.035
				c-0.261,6.908-0.948,13.783-1.571,19.577c-0.982,5.403-2.129,10.771-3.339,16.14c-0.425,1.899-1.014,3.764-1.571,5.631
				l-0.819,2.75c-0.558,2.063-1.213,4.091-1.867,6.121l-0.621,1.899c-2.914,9.297-6.417,19.184-11.295,31.788l-2.946,6.94
				l-0.556,1.276l-0.688,1.506c-3.339,7.268-6.777,14.765-10.573,22.032c-3.831,7.497-8.152,15.42-13.979,25.666l-1.833,3.242
				c-3.536,6.253-7.105,12.571-10.869,18.694l-1.801,2.946c-4.026,6.547-8.152,13.291-12.703,19.61
				c-3.763,5.337-7.628,10.573-11.589,15.747c-5.172,6.285-10.803,12.997-16.761,19.38c-3.209,3.438-6.482,6.744-9.855,10.018
				c-2.554,2.52-5.271,4.878-8.021,7.268l-0.721,0.621c-5.696,4.157-13.324,9.46-21.803,13.291c-2.029,0.754-4.125,1.343-6.286,1.8
				c-0.557,0.032-1.113,0.032-1.669,0.032c-0.557,0-1.112,0-1.67-0.032c-6.841-1.244-13.259-3.47-18.626-5.533
				c-5.5-2.456-10.869-5.075-16.238-7.694l-6.22-3.044l-6.089-2.946c-6.057-2.914-12.113-5.861-18.104-8.872
				c-7.988-3.962-15.975-7.922-24.094-11.557c-8.774-3.895-16.664-7.432-25.045-11.753c-9.722-4.976-19.773-10.116-29.234-15.878
				c-4.748-2.881-9.625-5.893-14.242-9.2c-4.453-3.208-8.839-6.416-13.193-9.724c-9.56-7.563-19.742-15.779-29.594-24.683
				l-7.301-6.646l-7.301-6.647c-6.057-5.5-13.063-12.178-19.217-19.838c-7.53-9.952-13.095-19.118-16.991-27.957
				c-3.209-8.119-5.402-16.172-6.548-23.964c-0.764-7.093-0.826-14.462-0.086-22.347c0.151-1.813,0.34-3.628,0.56-5.446
				l-0.145,0.457c1.341-9.429,3.503-17.908,6.646-25.895c3.077-7.17,7.202-14.11,12.57-21.247
				c4.748-5.958,10.738-11.851,18.366-17.94c7.234-5.5,15.517-10.279,24.652-14.241c8.053-3.273,16.598-5.565,25.338-6.908
				c5.238-0.621,10.803-0.95,16.598-0.95c5.304,0,10.803,0.262,16.827,0.785c4.617,0.393,9.2,0.982,13.75,1.605
				c8.381,1.474,16.664,3.044,25.045,4.746c16.009,3.208,28.023,6.678,38.891,11.229c6.482,2.914,12.768,6.712,19.217,11.589
				c3.731,2.978,7.692,6.416,12.44,10.803c0.982,0.917,2.258,1.407,3.569,1.407c1.081,0,2.129-0.327,3.044-0.982
				c0.785,0.294,1.603,0.425,2.488,0.425c2.619,0,5.008-1.343,6.286-3.536c2.488-4.452,5.565-8.545,8.249-12.212
				c4.353-5.466,8.97-10.64,13.291-15.485c5.108-5.631,10.968-10.541,16.041-14.634c4.976-3.569,9.918-6.744,15.125-9.724
				c4.78-2.75,9.787-5.042,14.503-7.17c5.533-2.258,11.426-4.617,17.383-6.383c3.536-1.081,7.039-2.095,10.64-2.978
				c3.012-0.786,5.99-1.31,9.003-1.801c1.603-0.163,3.24-0.327,4.845-0.459c1.932-0.163,3.895-0.262,5.859-0.262
				c3.046,0,6.123,0.196,9.135,0.557c4.878,0.785,9.101,1.898,12.997,3.405c2.718,1.343,5.108,2.75,7.268,4.321
				c2.98,2.456,5.73,5.173,8.119,8.152c1.932,2.684,3.635,5.696,5.337,9.461c2.226,5.566,4.222,11.785,5.892,18.464
				c1.147,4.486,2.422,9.821,3.273,15.289C462.148,216.098,461.723,226.214,461.361,236.035z"/>
			<path d="M282.175,160.831c-0.001-0.008-0.003-0.016-0.004-0.023c0,0.004,0.001,0.008,0.001,0.013
				C282.173,160.823,282.173,160.827,282.175,160.831z"/>
			<path d="M280.845,151.492c-0.026-0.245-0.06-0.489-0.1-0.734c0.019,0.147,0.038,0.292,0.058,0.438
				C280.818,151.294,280.831,151.394,280.845,151.492z"/>
			<path d="M102.199,241.633c0.621-1.244,0.262-2.685-0.883-3.339c-0.361-0.196-0.786-0.294-1.213-0.294
				c-0.916,0-1.734,0.458-2.094,1.178c-3.012,5.958-5.99,11.884-8.939,17.875l-1.505,2.978c-1.014,2.03-1.932,4.093-2.849,6.155
				l-0.654,1.375c-1.409,3.012-2.685,6.089-3.962,9.166c-0.361,0.885,0.261,2.063,1.048,2.52c0.359,0.196,0.785,0.327,1.178,0.327
				l0.557-0.065c0.523-0.163,1.147-0.557,1.376-1.048c5.237-11.851,11.162-23.539,16.925-34.865L102.199,241.633z"/>
			<path d="M102.92,256.529c-0.885,0-1.669,0.621-1.932,1.506c-1.081,3.47-2.129,6.972-3.143,10.509l-0.655,2.292l-0.686,2.325
				c-0.23,0.785-0.393,1.603-0.655,2.651l-0.557,2.456l-0.623,2.488c-0.162,0.688-0.294,1.407-0.458,2.127l-0.262,1.343
				c-0.621,3.176-1.145,6.351-1.506,9.56c-0.065,0.524,0.23,1.081,0.558,1.407c0.359,0.393,0.916,0.589,1.44,0.589
				c0.523,0,1.048-0.196,1.407-0.589c0.425-0.425,0.557-0.917,0.589-1.407c0.066-0.721,0.163-1.441,0.328-2.554
				c0.163-1.081,0.327-2.161,0.523-3.208c0.196-1.081,0.425-2.129,0.655-3.176l0.196-1.081c0.557-2.52,1.178-5.042,1.801-7.563
				c0.361-1.603,0.819-3.208,1.31-4.811l0.523-1.8c1.016-3.536,2.063-7.039,3.143-10.509c0.132-0.49,0.066-1.014-0.196-1.506
				C104.458,257.118,104,256.758,102.92,256.529z"/>
			<path d="M114.182,268.641c-0.393,0-0.786,0.099-1.147,0.262c-0.393,0.262-0.885,0.752-0.982,1.309l-0.523,3.667l-0.95,6.71
				c0,0,0.066-0.359,0.099-0.524c-0.394,2.784-0.786,5.533-1.147,8.283l-0.459,3.109c-0.23,1.703-0.49,3.438-0.655,5.14
				c-0.327,2.847-0.589,5.696-0.851,8.872c-0.097,0.885-0.163,1.768-0.195,2.651l-0.032,0.883c-0.165,2.226-0.296,4.453-0.425,6.678
				c-0.032,0.49,0.131,0.982,0.49,1.343c0.393,0.425,0.95,0.655,1.506,0.655c1.081,0,1.932-0.851,1.996-1.998
				c0.099-1.964,0.231-3.928,0.394-5.892c0.097-1.44,0.196-2.881,0.359-4.322l0.49-4.222l0.427-4.158l1.833-12.833l1.833-12.833
				c0.097-0.654,0.097-1.145-0.196-1.734C115.753,269.231,115.263,268.838,114.182,268.641z"/>
			<path d="M127.931,287.434c-0.328,0-0.655,0.099-0.983,0.262c-0.393,0.23-0.85,0.72-0.916,1.212
				c-0.296,2.129-0.558,4.224-0.818,6.351c0,0.032-0.132,0.851-0.132,0.851c-0.654,4.845-1.31,9.724-1.93,14.568
				c-0.754,5.631-1.244,11.262-1.703,16.925c-0.066,0.459,0.131,0.95,0.459,1.31c0.393,0.425,0.982,0.688,1.538,0.688
				c0.524,0,1.014-0.196,1.409-0.589c0.424-0.425,0.557-0.917,0.589-1.407c0.359-4.289,0.72-8.577,1.212-12.833
				c0.294-2.52,0.621-4.976,0.948-7.464l0.425-3.47l0.393-2.815l0.558-3.797c0.032-0.296,0.097-0.59,0.131-0.917
				c0.131-0.458,0.163-0.95,0.131-1.44l0.361-2.587l0.294-2.292c0.066-0.621,0.099-1.081-0.163-1.571
				C129.436,287.957,128.979,287.63,127.931,287.434z"/>
			<path d="M141.452,307.861c-0.621,0-1.212,0.262-1.669,0.688c-0.425,0.458-0.655,1.014-0.621,1.603
				c0.131,8.185,0.296,16.336,0.785,24.487c0.066,1.276,1.014,2.226,2.226,2.226c0.621,0,1.244-0.262,1.703-0.721
				c0.393-0.426,0.589-0.948,0.558-1.506c-0.394-8.119-0.524-16.303-0.655-24.487C143.744,308.876,142.728,307.861,141.452,307.861z
				"/>
			<path d="M200.673,358.014c-0.556,0-1.113,0.196-1.474,0.59c-0.359,0.393-0.557,0.851-0.621,1.472
				c-0.294,3.569-0.523,7.105-0.752,10.706c-0.099,1.734-0.196,3.502-0.327,5.271l-0.066,1.244l-0.066,1.212l-0.131,4.748
				l-0.066,4.222c-0.032,0.754-0.032,1.538-0.032,2.292l0.032,1.145c0.032,2.161,0.099,4.289,0.23,6.416
				c0.032,1.179,0.916,2.063,2.063,2.063c0.557,0,1.113-0.23,1.506-0.621c0.393-0.425,0.589-0.917,0.557-1.441
				c-0.131-3.24-0.131-6.482-0.131-9.756c0-2.161,0.066-4.321,0.097-6.482l0.066-2.587c0.065-1.571,0.163-3.142,0.262-4.682
				l0.131-2.258c0.23-3.831,0.492-7.66,0.785-11.491c0.066-0.49-0.131-0.948-0.49-1.343
				C201.853,358.276,201.262,358.014,200.673,358.014z"/>
			<path d="M221.005,406.268c-0.263-0.489-0.427-1.046-0.558-1.929l-0.032-0.032h0.032c-0.032-0.099-0.032-0.196-0.066-0.294
				c-0.359-3.405-0.49-6.875-0.588-10.509c-0.066-1.603-0.132-3.176-0.165-4.78c-0.131-6.581-0.262-13.128-0.359-19.708
				c-0.032-1.276-1.048-2.291-2.292-2.291s-2.292,1.047-2.292,2.291c0.131,6.908,0.294,13.849,0.459,20.755
				c0.031,2.03,0.163,4.059,0.327,6.417c0.066,1.212,0.132,2.456,0.262,3.732c0.097,1.212,0.196,2.456,0.425,3.666
				c0.131,0.982,0.327,1.899,0.589,2.815c0.196,0.621,0.425,1.212,0.655,1.801c0.23,0.49,0.458,0.917,0.948,1.212
				c0.328,0.164,0.688,0.262,1.048,0.262l0.492-0.066c0.523-0.163,1.014-0.557,1.31-1.081c0.228-0.459,0.261-0.95,0.131-1.375
				C221.201,406.858,221.103,406.563,221.005,406.268z"/>
			<path d="M237.799,401.587c-0.296-4.582-0.655-9.198-1.016-13.814l-0.558-6.908c-0.032-0.688-0.228-1.179-0.655-1.605
				c-0.393-0.425-0.948-0.655-1.571-0.655c-0.623,0-1.276,0.296-1.703,0.754c-0.425,0.459-0.621,0.982-0.556,1.506
				c0.524,6.875,1.048,13.75,1.54,20.657c0.195,2.554,0.393,5.107,0.557,7.66c0.163,2.423,0.425,4.813,0.72,7.202l0.197,1.768
				c0.097,0.655,0.195,1.113,0.621,1.54c0.394,0.393,0.95,0.621,1.54,0.621s1.212-0.262,1.637-0.754
				c0.393-0.393,0.589-0.885,0.524-1.407C238.551,412.653,238.158,407.12,237.799,401.587z"/>
			<path d="M255.312,415.599l-0.59-9.361l-0.589-9.363c-0.065-1.179-0.885-1.998-1.996-1.998c-0.524,0-1.113,0.23-1.506,0.655
				c-0.359,0.393-0.523,0.851-0.49,1.343l0.359,6.122c0.261,4.19,0.523,8.38,0.819,12.604c0.294,4.976,0.785,9.952,1.276,14.928
				c0.032,0.623,0.196,1.048,0.557,1.407c0.359,0.393,0.917,0.589,1.44,0.589c0.557,0,1.145-0.262,1.539-0.688
				c0.328-0.393,0.524-0.851,0.459-1.31C256.097,425.551,255.605,420.575,255.312,415.599z"/>
			<path d="M273.384,413.767c-1.081,0-1.998,0.917-1.998,1.998c-0.032,4.976-0.065,9.952-0.065,14.928
				c0,1.081,0.916,1.998,1.996,1.998s1.996-0.917,1.996-1.998c0-4.976,0.032-9.952,0.066-14.928
				C275.38,414.684,274.463,413.767,273.384,413.767z"/>
			<path d="M391.828,341.188l-1.572-8.022c-0.131-0.883-1.014-1.407-2.258-1.407c-0.065,0-0.131,0-0.196,0
				c-1.048,0.327-1.637,1.343-1.375,2.52c1.44,7.563,2.914,15.158,4.42,22.721c0.162,0.95,1.112,1.474,1.93,1.474l0.492-0.065
				c1.079-0.327,1.669-1.343,1.407-2.52C393.728,351.011,392.777,346.1,391.828,341.188z"/>
			<path d="M399.129,318.14c-0.361-0.359-0.885-0.557-1.441-0.557s-1.048,0.196-1.407,0.557c-0.359,0.361-0.655,0.95-0.589,1.441
				c0.885,6.646,1.768,13.324,2.62,19.97c0.031,0.524,0.131,0.982,0.556,1.44c0.359,0.359,0.883,0.556,1.44,0.556
				c0.556,0,1.048-0.197,1.407-0.556c0.361-0.327,0.655-0.95,0.589-1.44c-0.851-6.646-1.734-13.324-2.619-19.97
				C399.652,319.057,399.555,318.599,399.129,318.14z"/>
			<path d="M412.943,309.006c-0.032-0.982-0.752-1.996-1.996-1.996c-0.524,0-1.081,0.228-1.474,0.654
				c-0.393,0.393-0.558,0.851-0.524,1.343l0.459,6.581c0.327,4.256,0.621,8.479,0.917,12.735c0.032,0.982,0.752,1.996,1.996,1.996
				c0.524,0,1.081-0.228,1.474-0.654c0.393-0.393,0.557-0.851,0.523-1.343c-0.261-4.256-0.588-8.48-0.883-12.735L412.943,309.006z"
				/>
			<path d="M425.841,298.596c-0.296-0.785-0.688-1.571-1.112-2.292c-0.328-0.589-0.95-0.95-2.129-0.95c-0.032,0-0.099,0-0.163,0.032
				c-0.558,0.066-0.983,0.196-1.409,0.425c-0.359,0.099-0.654,0.262-0.883,0.524c-0.754,0.72-1.081,1.734-1.572,3.109l-0.819,2.095
				c-0.23,0.621-0.425,1.244-0.589,1.865c-0.328,1.048-0.655,2.095-0.917,3.143c-0.23,1.081,0.394,2.194,1.44,2.488l0.492,0.131
				v-0.066c0.917,0,1.768-0.621,1.996-1.506c0.372-1.462,0.803-2.894,1.35-4.269c0.244-0.717,0.505-1.432,0.778-2.147
				c0,0.032,0,0.099,0.032,0.131c0.005,0.058,0.008,0.115,0.013,0.174c0.029-0.057,0.056-0.115,0.086-0.174
				c0.163,1.998,0.261,4.027,0.294,5.992c0.032,1.113,0.917,1.998,1.998,1.998c0.523,0,1.081-0.23,1.44-0.621
				c0.393-0.393,0.589-0.885,0.556-1.375c-0.066-2.129-0.163-4.289-0.361-6.417C426.333,300.332,426.203,299.808,425.841,298.596z"
				/>
		</g>
	</g>
</g>
<g>
</g>
<g>
</g>
<g>
</g>
<g>
</g>
<g>
</g>
<g>
</g>
<g>
</g>
<g>
</g>
<g>
</g>
<g>
</g>
<g>
</g>
<g>
</g>
<g>
</g>
<g>
</g>
<g>
</g>
</svg>
