<?xml version="1.0" encoding="iso-8859-1"?>
<!-- Generator: Adobe Illustrator 19.0.0, SVG Export Plug-In . SVG Version: 6.00 Build 0)  -->
<svg version="1.1" id="Layer_1" xmlns="http://www.w3.org/2000/svg" xmlns:xlink="http://www.w3.org/1999/xlink" x="0px" y="0px"
	 viewBox="0 0 511.993 511.993" style="enable-background:new 0 0 511.993 511.993;" xml:space="preserve">
<g>
	<g>
		<g>
			<path d="M497.901,275.189c-0.592-3.321-1.183-6.608-2.006-9.862c-1.315-5.129-3.354-10.125-5.654-14.892
				c-1.052-2.136-2.006-4.306-3.189-6.376c-2.203-4.011-4.471-7.956-7.068-11.737c-2.762-4.043-5.72-7.954-9.008-11.637
				c-4.603-5.228-9.796-9.829-15.123-14.333c-2.761-2.399-5.555-4.765-8.316-7.166c-2.465-2.136-4.866-4.34-7.429-6.346
				c-3.288-2.563-6.51-5.129-9.993-7.462c-2.696-1.808-5.49-3.518-8.384-5.063c-5.654-3.024-11.277-6.016-17.161-8.547
				c-5.03-2.171-10.158-4.109-15.385-5.72c-4.427-1.404-8.994-2.445-13.519-3.586c2.109-7.41,3.918-14.928,4.775-22.582
				c0.494-4.438,0.92-8.843,1.019-13.282c0.132-4.569,0.033-9.106-0.197-13.675c-0.23-4.405-0.724-8.975-1.644-13.281
				c-0.986-4.57-2.203-9.041-3.518-13.545c-0.553-1.878-1.235-3.712-1.92-5.541c1.956,0.021,3.92-0.685,5.438-2.118
				c0.428-0.427,0.854-0.79,1.249-1.15c1.94-1.413,3.879-2.794,5.753-4.208c2.103-1.578,4.24-3.157,6.148-4.932
				c1.578-1.446,2.827-3.353,4.076-5.063c1.15-1.512,2.07-3.156,2.959-4.832c1.94-3.549,3.354-7.462,4.635-11.341
				c1.183-3.617,1.677-7.693,1.381-11.506c-0.263-3.091-1.118-6.049-2.039-8.975c-0.788-2.564-1.611-5.096-2.761-7.528
				c-1.348-2.794-3.025-5.294-5.031-7.66c-1.052-1.248-2.5-2.2-3.78-3.186c-1.447-1.084-3.156-1.842-4.767-2.63
				c-3.419-1.577-7.068-2.629-10.816-2.992c-0.757-0.098-1.545-0.131-2.302-0.131c-3.222,0-6.345,0.592-9.501,1.512
				c-3.288,0.92-6.508,2.235-9.567,3.78c-3.189,1.644-6.082,4.175-8.384,6.905c-2.432,2.86-4.175,6.312-5.786,9.664
				c-0.974,2.045-1.769,4.166-2.617,6.267c-3.57-3.185-7.286-6.205-11.222-8.864c-7.233-4.866-14.827-9.073-22.782-12.789
				c-4.24-1.973-8.58-3.714-13.051-5.096c-4.208-1.282-8.712-1.808-13.051-2.498C273.699,0.395,268.998,0,264.296,0
				c-5.162,0-10.322,0.493-15.451,1.447c-0.92,0.164-1.841,0.329-2.728,0.559c-2.597,0.197-5.162,0.427-7.726,0.724
				c-6.016,0.658-11.966,1.907-17.818,3.518c-3.288,0.92-6.543,2.103-9.796,3.221c-1.973,0.658-3.945,1.479-5.885,2.236
				c-2.432,0.92-4.931,1.905-7.265,3.057c-2.006,0.986-4.012,1.971-6.016,2.958c-0.953,0.494-1.874,1.084-2.827,1.611
				c-0.953,0.56-2.006,1.085-2.926,1.71c-2.302,1.545-4.635,3.057-6.837,4.734c-1.204,0.885-2.274,1.927-3.4,2.905
				c-0.796-1.091-1.582-2.193-2.419-3.234c-1.512-1.874-3.156-3.452-4.964-5.03c-3.288-2.828-6.936-5.259-10.717-7.331
				c-3.747-2.072-7.462-3.979-11.341-5.72c-2.236-0.986-4.306-1.678-6.74-1.907c-0.625-0.033-1.216-0.066-1.841-0.066
				c-1.611,0-3.222,0.164-4.899,0.427c-2.236,0.362-4.438,1.315-6.541,2.138c-2.761,1.15-5.424,2.53-8.022,4.043
				c-4.045,2.368-7.199,5.688-9.928,9.436c-1.348,1.874-2.169,4.044-3.025,6.147c-1.052,2.63-1.644,5.424-2.136,8.185
				c-0.823,4.767-1.052,9.73-0.165,14.497c0.986,5.16,3.123,9.96,5.457,14.629c2.926,5.917,6.707,11.472,11.505,16.042
				c4.307,4.043,9.304,7.758,14.892,9.73c1.808,0.625,3.582,1.248,5.391,1.808c1.422,0.434,2.828,0.878,4.25,1.289
				c-2.707,11.966-4.709,24.092-5.237,36.352c-0.428,9.862,0,19.923,1.94,29.62c0.301,1.48,0.75,2.934,1.171,4.392
				c-3.792,1.604-7.557,3.26-11.197,5.142c-5.885,3.057-11.473,6.641-17.028,10.191c-4.668,2.959-9.238,6.082-13.84,9.14
				c-7.495,4.997-14.629,10.586-21.566,16.338c-1.414,1.15-2.893,2.269-4.24,3.518c-2.138,1.973-4.307,3.944-6.444,5.917
				c-3.419,3.189-6.575,6.641-9.829,9.993c-6.214,6.51-11.934,13.511-17.456,20.579c-3.057,3.88-5.95,7.824-8.81,11.835
				c-2.039,2.892-3.979,5.818-5.786,8.843c-3.255,5.489-5.72,11.505-7.89,17.488c-1.907,5.294-3.354,10.751-4.273,16.306
				c-0.494,2.893-0.691,5.786-0.691,8.678c0.033,3.65,0.691,7.266,1.479,10.816c0.625,2.663,1.545,5.094,2.663,7.594
				c1.118,2.597,3.09,4.866,5.03,6.87c2.138,2.171,4.702,4.01,7.265,5.654c2.696,1.742,5.851,2.86,8.909,3.747
				c2.926,0.854,6.016,1.217,9.041,1.48c2.827,0.296,5.753,0.132,8.612-0.099c6.477-0.526,12.755-2.136,18.805-4.504
				c4.964-1.971,9.829-4.306,14.662-6.575c2.498-1.151,4.997-2.302,7.429-3.551c4.175-2.103,8.152-4.635,11.9-7.429
				c2.138-1.611,4.405-3.123,6.411-4.899c1.622-1.433,3.263-2.865,4.892-4.298c-1.225,5.871-2.397,11.755-3.281,17.711
				c-0.658,4.306-1.249,8.58-1.841,12.919c-0.23,1.94-0.494,3.911-0.724,5.884c-0.099,0.887-0.165,1.742-0.197,2.597
				c-0.013,0.461,0.127,0.868,0.178,1.306c-5.365,1.084-10.564,2.937-15.564,5.104c-5.162,2.236-10.158,4.833-14.53,8.417
				c-4.635,3.78-8.022,9.238-10.948,14.366c-5.358,9.468-8.152,20.054-8.646,30.901c-0.428,9.271-0.526,18.705,1.085,27.876
				c0.625,3.617,1.348,7.133,2.465,10.651c1.874,6.082,4.668,11.934,8.318,17.129c4.109,5.851,9.336,10.618,14.859,15.056
				c3.88,3.156,7.857,6.147,12.032,8.876c3.846,2.531,7.792,4.866,11.868,7.035c4.076,2.136,8.218,4.108,12.46,5.917
				c2.399,1.018,4.8,1.971,7.265,2.892c1.183,0.428,2.368,0.854,3.584,1.249c3.386,1.084,6.837,1.709,10.322,2.203
				c8.481,1.216,17.094,1.315,25.609,0.36c3.057-0.329,6.115-0.854,9.106-1.611c2.728-0.658,5.325-1.775,7.923-2.892
				c3.518-1.513,6.674-3.846,9.862-5.951c3.979-2.629,7.627-5.852,10.816-9.369c2.121-2.381,3.948-4.991,5.695-7.657
				c6.036,0.33,12.07,1.018,18.073,1.674c3.222,0.493,6.411,1.15,9.631,1.742c3.813,0.689,7.693,1.183,11.539,1.644
				c5.49,0.821,11.013,1.742,16.602,2.137c4.931,0.36,9.895,0.36,14.859,0.492c5.195,0.132,10.388,0.23,15.583-0.132
				c2.926-0.23,5.885-0.492,8.81-0.986c3.123-0.559,6.016-1.446,8.909-2.827c0.751-0.357,1.389-0.875,1.92-1.495
				c2.951,2.576,6.098,4.929,9.487,6.886c4.339,2.498,9.008,4.503,13.709,6.246c4.01,1.479,8.088,2.663,12.361,3.353
				c5.096,0.854,10.289,0.953,15.451,0.461c3.683-0.362,7.364-0.79,11.013-1.479c6.082-1.183,11.802-3.683,17.194-6.608
				c2.498-1.381,4.866-2.992,7.166-4.636c1.677-1.216,3.354-2.465,4.898-3.78c1.742-1.545,3.617-2.992,5.292-4.602
				c1.709-1.71,3.452-3.386,5.162-5.063c1.644-1.611,3.156-3.386,4.734-5.063c1.414-1.545,2.696-3.221,4.076-4.8
				c0.92-1.085,1.742-2.302,2.597-3.42c0.658-0.853,1.348-1.709,1.94-2.597c1.183-1.841,2.399-3.615,3.452-5.522
				c1.15-2.072,2.335-4.109,3.386-6.214c4.241-8.384,8.646-16.898,10.619-26.167c1.94-9.041,3.518-18.311,2.761-27.582
				c-0.395-4.602-0.986-9.139-2.432-13.545c-0.823-2.498-1.907-4.997-3.189-7.297c-2.138-3.879-4.8-7.462-7.857-10.651
				c-1.381-1.447-2.762-2.86-4.241-4.208c-2.006-1.842-4.142-3.486-6.345-5.063c-3.879-2.828-8.318-4.669-12.822-6.28
				c-0.944-0.341-1.915-0.595-2.881-0.868c0.111-0.541,0.325-1.055,0.284-1.629c-0.263-3.65-0.296-7.331-0.395-11.014
				c-0.09-2.505-0.291-5.011-0.474-7.516c0.364,0.046,0.725,0.087,1.099,0.153c4.701,0.724,9.271,1.775,13.906,2.992
				c2.169,0.559,4.339,1.183,6.477,1.808c5.489,1.545,11.046,2.104,16.7,1.545c5.72-0.592,11.145-2.597,16.042-5.621
				c3.057-1.907,5.917-4.438,8.547-6.872c4.273-4.01,7.791-8.744,10.849-13.708c3.321-5.36,5.259-11.506,5.983-17.752
				C499.084,285.085,498.755,280.088,497.901,275.189z M346.581,37.674l0.724-1.776l1.38-3.452c1.809-3.977,3.518-7.1,5.358-9.862
				c0.92-1.118,1.907-2.07,2.992-3.024c1.381-0.953,2.794-1.808,4.306-2.531c2.761-1.118,5.72-1.973,9.106-2.663
				c0.953-0.066,1.874-0.132,2.827-0.132l1.413,0.032c1.94,0.362,3.846,0.889,5.885,1.677c1.611,0.79,3.156,1.678,4.669,2.665
				c0.526,0.46,1.018,0.953,1.512,1.545c0.823,1.216,1.578,2.498,2.203,3.845c1.151,2.959,2.006,6.181,2.63,9.862
				c0.099,1.348,0.099,2.665,0,4.045c-0.428,2.268-1.118,4.504-2.203,7.101c-1.227,2.794-2.675,5.415-4.303,7.841
				c0.083-0.106,0.169-0.209,0.26-0.313c-0.099,0.133-0.207,0.265-0.32,0.403c-0.23,0.341-0.464,0.679-0.7,1.011
				c-1.183,1.414-2.432,2.728-4.076,4.144l-1.018,0.755c-1.545,1.15-3.09,2.335-4.603,3.549c-0.821,0.658-1.611,1.315-2.399,2.006
				c-1.314,1.105-2.354,2.397-3.322,3.561c-0.075,0.099-0.145,0.201-0.219,0.302c-0.003-0.005-0.005-0.012-0.008-0.017
				c-0.033,0.032-0.033,0.032-0.066,0.066c-1.282-2.236-2.663-4.405-4.044-6.575l-0.461-0.755
				c-2.268-3.549-4.701-7.035-7.232-10.388c-3.057-4.109-5.851-7.759-9.073-11.046l-0.263-0.395
				c-0.347-0.359-0.737-0.688-1.087-1.046c0.053-0.128,0.133-0.226,0.182-0.358L346.581,37.674z M169.094,62.956l0.393-0.919
				c1.118-2.531,2.236-5.096,3.683-7.43c2.431-4.113,4.567-7.499,7.001-10.752c2.432-2.992,5.162-5.753,8.81-8.811
				c1.446-1.15,2.926-2.269,4.504-3.255c2.236-1.446,4.471-2.892,6.839-4.174c4.8-2.762,9.73-4.997,13.906-6.804
				c1.183-0.494,2.366-0.955,3.683-1.414c0.953,1.118,2.366,1.776,3.714,1.776c0.46,0,0.887-0.066,1.282-0.197l1.085-0.362
				c4.833-1.512,9.631-3.056,14.464-4.437c3.617-1.084,7.298-1.842,10.948-2.564l1.249-0.263c1.381-0.195,2.794-0.395,4.175-0.46
				c1.94-0.132,3.88-0.165,5.852-0.198h1.512c3.057,0,6.115,0.231,9.172,0.593c8.514,1.413,14.925,3.024,20.809,5.258
				c11.341,4.931,21.828,10.849,31.132,17.555c3.879,3.123,7.232,6.049,10.191,8.877c3.452,3.287,6.903,7.034,10.553,11.407
				c2.827,3.813,5.621,7.594,8.185,11.538l0.658,0.953c1.216,1.875,2.432,3.714,3.518,5.654c1.348,2.368,2.597,4.734,3.78,7.167
				c1.611,4.208,2.992,8.448,4.306,12.789c1.151,3.65,1.973,7.594,2.794,12.789c0.461,4.833,0.691,9.895,0.757,15.911
				c0.066,4.997-0.428,9.895-1.019,15.32c-0.625,3.747-1.315,7.462-2.169,11.211c-0.592,2.761-1.413,5.555-2.235,8.349l-0.953,3.255
				c-2.203,7.626-5.096,14.892-7.627,21.006c-0.197,0.395-0.362,0.757-0.559,1.151c-0.033,0.032-0.033,0.098-0.066,0.164
				c-1.874,3.912-3.813,7.791-5.95,11.604c-2.006,3.551-4.438,7.2-7.66,11.572c-3.747,4.438-8.185,9.567-13.446,13.94
				c-3.879,2.827-8.351,5.358-14.071,7.954c-1.545,0.625-3.057,1.183-4.668,1.644c-0.441,0.145-0.919,0.202-1.365,0.341
				c2.426-2.983,4.36-5.739,6-8.428c0.592-1.052,1.216-2.104,1.841-3.123c0.395-0.689,0.757-1.413,1.118-2.136l0.395-0.821
				c0.953-1.874,1.808-3.846,2.564-5.786c0.854-2.203,1.677-4.373,2.465-6.608c0.79-2.335,1.545-4.668,2.302-7.035
				c1.315-4.241,2.465-8.547,3.518-12.853c0.461-2.105,0.854-4.208,1.249-6.312c0.953-4.832,1.48-9.534,1.545-13.972
				c0.099-4.405-0.033-9.073-0.395-14.267c-0.395-5.457-1.183-12.59-3.747-20.087c-0.658-1.905-1.315-3.813-2.103-5.687
				c-0.92-2.269-1.94-4.504-2.959-6.74c-1.644-3.615-4.076-7.298-7.232-10.948l-0.757-0.887c-1.249-1.447-2.498-2.926-3.944-4.208
				l-2.465-2.203c-0.559-0.526-1.183-0.986-1.809-1.447l-0.887-0.658c-1.743-1.381-3.65-2.531-5.556-3.65
				c-3.584-2.037-7.561-3.615-11.539-4.602c-2.202-0.526-4.372-1.018-6.574-1.479c-2.171-0.461-4.405-0.92-6.641-1.118
				c-4.372-0.427-8.81-0.625-13.61-0.79c-1.216,0-2.465,0.099-3.681,0.197l-1.578,0.165c-2.07,0.197-4.109,0.559-6.18,0.953
				l-0.854,0.165c-3.683,0.656-7.627,1.742-12.032,3.221c-1.677,0.625-3.321,1.348-4.998,2.105l-0.755,0.329
				c-1.48,0.656-2.992,1.38-4.471,2.103c-2.169,1.052-4.372,2.5-6.903,4.504c-1.973,1.512-3.65,3.386-5.259,5.16l-0.92,1.052
				c-0.493,0.56-0.953,1.183-1.413,1.776l-0.79,1.084c-1.249,1.578-2.366,3.189-3.452,4.866c-1.611,2.5-2.86,5.228-4.045,7.891
				l-0.494,1.018c-0.953,2.137-1.775,4.339-2.531,6.542c-2.531,7.331-4.142,13.051-5.162,18.476
				c-0.953,5.03-1.282,10.586-1.018,16.962c0.099,2.696,0.427,5.36,0.788,8.022l0.197,1.513c0.165,1.643,0.526,3.287,0.854,4.931
				l0.362,1.742c0.099,0.592,0.23,1.183,0.526,2.269l0.263,1.052c0.23,0.821,0.428,1.677,0.658,2.465
				c1.545,5.063,3.683,11.703,6.51,18.114c1.084,2.432,2.399,4.898,4.01,7.495c1.151,1.809,2.465,3.518,3.747,5.294
				c0.318,0.351,0.605,0.73,0.891,1.083c-0.045-0.022-0.091-0.042-0.136-0.065c0.033,0.033,0.065,0.099,0.098,0.132
				c-9.271-4.569-16.47-8.843-22.716-13.478c-4.767-3.88-9.172-8.22-13.018-12.954c-2.959-3.944-5.391-7.626-7.397-11.244
				c-2.236-3.977-4.24-8.086-6.181-12.196c-1.018-2.465-2.006-4.964-2.827-7.528c-1.117-3.452-1.742-7.068-2.235-10.125
				c-0.724-6.707-0.986-12.69-0.854-18.311c0.197-6.246,0.691-12.59,1.513-19.33c0.953-6.181,2.037-12.296,3.354-18.377
				c0.033-0.033,0.066-0.099,0.099-0.132c0-0.003,0-0.005,0.001-0.008c0.277-0.349,0.523-0.696,0.754-1.044
				c1.043-1.801,1.343-3.911,0.901-6.028c0.007-0.029,0.015-0.057,0.021-0.086c0-0.032-0.033-0.098-0.033-0.164l0.625-2.531
				c0.658-2.728,1.315-5.424,2.006-8.154C166.399,71.274,167.647,67.066,169.094,62.956z M215.775,109.01
				c0,0,0.132-0.132,0.132-0.164l0.033,0.032l0.197-0.23l0.132-0.132l0.625-0.724l1.151-1.315c1.315-1.447,2.761-2.794,4.372-4.043
				c3.419-2.434,7.265-4.175,10.979-5.852l0.92-0.362c1.38-0.526,2.794-1.084,4.208-1.578c1.677-0.559,3.386-1.018,5.096-1.446
				c3.452-0.889,7.002-1.545,10.52-2.039c1.381-0.132,2.761-0.263,4.175-0.329l1.545-0.032c0.854,0,1.709,0.032,2.531,0.066
				l1.973,0.132c2.63,0.164,5.226,0.296,8.055,0.559c6.246,0.986,11.769,2.335,17.095,4.273c1.413,0.626,2.893,1.249,4.24,2.07
				l0.854,0.461c0.592,0.362,1.216,0.691,1.775,1.118l2.531,1.71c0.757,0.625,1.545,1.249,2.335,1.808
				c0.494,0.427,1.019,0.887,1.513,1.381l1.051,0.986c0.526,0.493,0.986,1.018,1.48,1.545l1.048,1.085
				c1.052,1.15,2.072,2.399,3.025,3.65c1.874,2.531,3.551,5.292,5.162,8.448c0.395,0.724,0.724,1.479,1.052,2.234l0.724,1.776
				l1.051,2.465c0.329,0.79,0.625,1.578,1.118,3.123l0.329,0.887c0.329,0.986,0.658,1.973,0.92,2.992
				c0.823,2.893,1.48,5.852,1.973,8.975c0.428,3.584,0.854,7.101,1.019,10.684c0.099,2.07,0.165,4.144,0.197,6.214
				c0.033,1.38,0.066,2.794,0.033,4.174c-0.026,2.332-0.178,4.643-0.539,6.95c-0.049,0.436-0.102,0.873-0.16,1.309l0.139-0.401
				c-0.986,6.707-2.399,13.314-4.273,19.66l-0.461,1.545c-0.691,2.366-1.38,4.734-2.236,7.035l-1.775,4.997
				c-0.329,0.919-0.724,1.841-1.085,2.761l-0.494,1.118l-0.428,0.887c-1.117,2.399-2.236,4.767-3.615,6.969
				c-1.71,2.761-3.485,5.391-5.588,8.218c-1.842,2.335-3.78,4.734-5.983,6.675c-0.658,0.59-1.348,1.117-2.07,1.709
				c-3.025,0.165-6.082,0.231-9.172,0.231c-2.269,0-4.537-0.033-6.804-0.066l-4.339-0.033c-6.345-0.066-12.656-0.755-18.542-1.447
				l-2.465-0.426c-4.669-0.821-9.501-1.677-14.168-2.892c-3.125-0.825-6.182-1.777-9.24-2.797c-0.953-0.297-1.907-0.658-2.892-1.052
				c-4.307-4.471-8.088-8.745-11.506-13.018c-1.249-1.677-2.432-3.386-3.551-5.195c-1.348-2.136-2.399-4.471-3.386-6.74
				c-2.302-5.358-4.076-11.079-5.556-16.009c-1.052-3.288-1.71-6.575-2.399-10.027l-0.23-1.15c-0.23-1.94-0.461-3.879-0.724-5.852
				c-0.362-3.123-0.395-6.279-0.395-9.402c0.033-2.696,0.296-5.391,0.625-8.119c0.526-3.189,1.216-6.346,2.103-9.469l1.677-5.785
				c0.296-1.118,0.691-2.203,1.052-3.321l0.658-1.842c0.362-1.084,0.79-2.171,1.183-3.221l0.395-0.986l0.691-1.545l0.691-1.578
				c0.854-1.973,1.874-3.813,2.992-5.654c1.183-2.006,2.597-3.846,4.01-5.687l0.625-0.854l0.099-0.099H215.775z M140.404,41.355
				c-0.058,0.022-0.116,0.044-0.174,0.066c0.049-0.022,0.098-0.044,0.148-0.066c-0.061,0-0.121,0-0.181,0
				c0.689-0.329,1.348-0.559,2.006-0.658c-0.059,0-0.118,0-0.178-0.003c-0.061,0.011-0.123,0.022-0.184,0.036
				c0.059-0.014,0.119-0.025,0.178-0.037c-0.07-0.003-0.14-0.012-0.211-0.028c0.461-0.132,0.953-0.197,1.479-0.197l0.691,0.066
				c0.724,0.164,1.414,0.329,2.136,0.559c0.691,0.197,1.381,0.494,2.037,0.757l1.348,0.59c2.399,1.019,4.273,2.039,5.917,3.157
				c0.689,0.625,1.348,1.282,2.006,2.037c0.526,0.724,1.052,1.513,1.545,2.368c-0.004,0.008-0.008,0.015-0.012,0.021
				c0,0.001,0,0.001,0,0.001c-2.09,3.642-3.784,7.532-5.426,11.281c-0.217,0.523-0.43,1.048-0.644,1.574
				c-0.012-0.013-0.016-0.03-0.028-0.044c-0.013,0.028-0.026,0.058-0.038,0.086c-0.724-0.821-1.743-1.282-2.86-1.282
				c-1.151,0.032-2.335,0.032-3.485,0.032c-1.15,0-2.335,0-3.485-0.066c-0.92-0.197-1.775-0.427-2.663-0.724
				c-0.887-0.459-1.742-0.953-2.63-1.545c-1.084-0.953-2.103-2.006-3.024-3.156c-0.362-0.526-0.724-1.052-1.019-1.611
				c-0.329-0.955-0.592-1.842-0.724-2.828c-0.033-0.526-0.033-1.052,0-1.611c0.165-0.854,0.395-1.545,0.494-1.677
				c0.592-1.018,1.216-2.006,1.907-2.992l0.757-0.92c0.526-0.559,1.085-1.118,1.742-1.578c0.775-0.553,1.552-1.037,2.406-1.431
				c0.108-0.061,0.217-0.123,0.326-0.185C140.505,41.355,140.454,41.355,140.404,41.355z M144.208,75.612
				c-2.893-0.724-5.786-1.447-8.613-2.5c-2.959-1.381-5.588-2.86-7.989-4.537c-1.526-1.282-2.962-2.678-4.252-4.149
				c0.05,0.069,0.098,0.137,0.143,0.203c-0.074-0.095-0.148-0.193-0.222-0.294c-0.238-0.272-0.471-0.547-0.699-0.824
				c-2.498-3.386-4.635-7.035-6.508-11.143c-0.691-1.875-1.216-3.714-1.611-5.688c-0.132-2.335-0.099-4.569,0.099-6.87
				c0.526-3.287,1.315-6.279,2.399-9.106c0.592-1.216,1.282-2.366,2.039-3.485c1.084-1.283,2.269-2.399,3.582-3.486
				c0.203-0.144,0.409-0.288,0.615-0.428c2.144-1.462,4.429-2.657,6.378-3.598c-0.052,0.017-0.103,0.033-0.154,0.049
				c0.088-0.038,0.177-0.071,0.265-0.103c0.28-0.136,0.555-0.265,0.82-0.391c1.907-0.755,3.813-1.413,5.852-1.841
				c0.461-0.033,0.986-0.033,1.479-0.033l1.085,0.033c0.953,0.23,1.874,0.526,2.827,0.887c7.594,3.321,13.051,6.378,17.719,9.895
				c2.269,1.874,3.913,3.45,5.325,5.129l0.854,1.15l1.084,1.447c0.277,0.4,0.559,0.746,0.864,1.14
				c-0.003,0.004-0.007,0.007-0.009,0.011c0.033,0.032,0.033,0.032,0.066,0.066l-0.757,1.018c-1.38,1.874-2.728,3.749-4.043,5.654
				c0,0-0.033-0.032-0.066-0.032c-0.001,0.003-0.004,0.005-0.005,0.008c-0.011-0.012-0.017-0.028-0.028-0.041
				c-0.099-0.066-0.197-0.164-0.197-0.164c-0.033,0-0.296-0.329-0.329-0.329c-0.526-0.626-1.084-1.217-1.644-1.776
				c-0.658-0.658-1.48-1.249-2.531-1.971c-1.151-0.79-2.432-1.414-3.683-2.007l-0.854-0.395c-1.841-0.887-3.78-1.611-5.72-2.335
				c-1.447-0.526-2.926-0.658-4.471-0.788c-0.788,0.098-1.578,0.197-2.335,0.296c-1.15,0.329-2.136,0.689-3.255,1.183
				c-1.808,0.755-3.353,2.07-5.063,3.549c-0.722,0.689-1.38,1.447-1.973,2.269c-0.757,0.955-1.38,1.907-2.006,2.959
				c-0.724,1.15-1.216,2.465-1.578,4.273c-0.393,1.808-0.197,3.518,0.099,5.588c0.296,2.037,1.348,3.911,2.335,5.523
				c1.15,1.808,2.728,3.419,3.977,4.635c1.085,1.085,2.531,1.973,3.78,2.728c1.775,1.085,3.911,1.578,5.556,1.842
				c2.07,0.395,4.306,0.592,7.693,0.689c0.04-0.007,0.071-0.03,0.111-0.038c-0.003,0.013-0.009,0.026-0.012,0.038
				c0.033,0,0.066,0,0.099,0l-0.953,3.42l-0.92,3.254l-0.066-0.032c-0.05,0.177-0.09,0.358-0.14,0.532
				c-0.198-0.058-0.382-0.148-0.581-0.21l-0.1,0.044c-0.757-0.23-1.578-0.427-2.368-0.59L144.208,75.612z M216.429,450.479
				c-0.132,1.249-0.296,2.498-0.461,3.714c-0.823,4.766-1.611,9.007-3.189,13.117c-1.742,3.747-4.142,7.626-7.298,11.9
				c-2.134,2.56-4.401,4.829-6.932,6.901c-4.306,3.157-8.678,5.818-13.084,7.857c-2.63,0.953-5.523,1.677-8.843,2.236
				c-3.288,0.329-6.543,0.426-9.862,0.492h-1.578c-3.714,0-7.462-0.197-11.079-0.592c-5.226-0.79-9.106-1.709-12.59-3.057
				l-0.854-0.329c-1.15-0.46-2.302-0.92-3.485-1.348c-3.255-1.446-6.51-2.926-9.699-4.504c-3.32-1.611-6.542-3.419-9.763-5.258
				c-3.123-1.776-6.246-3.617-9.205-5.688c-2.959-2.07-5.819-4.208-8.646-6.345l-1.513-1.283l-2.465-2.037
				c-2.136-1.808-4.208-3.913-6.542-6.641c-2.399-3.221-4.471-6.773-6.312-10.88c-1.479-3.747-2.696-7.693-3.813-12.427
				c-0.395-1.841-0.691-3.681-0.953-5.523c-0.592-6.87-1.183-15.943-0.197-25.116c0.658-4.142,1.742-8.185,3.386-12.524
				c2.169-4.866,4.767-9.501,7.791-13.742c1.348-1.577,2.761-3.057,4.339-4.437c3.584-2.63,7.758-4.899,13.149-7.199
				c5.424-2.203,9.732-3.486,14.038-4.21c1.742-0.164,3.485-0.263,5.226-0.263c1.775,0,3.518,0.099,5.259,0.263
				c2.959,0.428,5.917,1.019,8.909,1.842c-0.099,1.907,1.183,3.681,2.991,4.208c2.926,0.724,5.819,1.677,8.712,2.597l3.945,1.283
				c3.582,1.117,7.068,2.335,10.553,3.681c3.386,1.545,6.674,3.156,9.993,4.8c3.255,1.578,6.246,3.747,9.139,5.852
				c4.373,3.615,8.646,7.989,12.656,13.017l2.203,2.992l1.348,1.907l1.513,2.037c0.953,1.283,1.874,2.533,2.728,3.846
				c2.432,3.78,4.405,7.825,6.016,11.277c1.052,2.86,1.94,5.687,2.728,8.645c0.823,3.091,1.249,6.378,1.644,9.535v0.098
				c0.042,0.429,0.081,0.854,0.112,1.277c0.005,0.045,0.012,0.091,0.018,0.137c-0.005-0.032-0.01-0.065-0.016-0.096
				C216.662,445.284,216.657,447.919,216.429,450.479z M422.487,363.852c1.611,0.887,3.123,1.907,4.668,2.992
				c4.142,3.386,8.22,7.429,12.098,11.999c2.169,3.09,3.747,5.818,4.997,8.58c0.986,2.629,1.611,4.898,1.94,7.133
				c0.066,0.658,0.165,1.315,0.263,1.973c0.197,2.3,0.362,4.537,0.428,6.87c0.033,1.842-0.132,3.747-0.296,5.654l-0.132,1.479
				c-0.428,2.892-0.953,5.786-1.545,8.712c-0.296,1.216-0.592,2.465-0.92,3.681l-0.263,0.92c-0.263,0.953-0.592,1.907-0.953,2.892
				l-0.526,1.447c-0.854,1.907-1.71,3.813-2.597,5.72c-1.282,2.663-2.63,5.294-3.979,7.891c-1.051,2.037-2.169,4.043-3.714,6.705
				c-0.951,1.701-1.997,3.306-3.152,4.861c-0.269,0.391-0.541,0.782-0.815,1.173l0.184-0.166c0.173-0.203,0.35-0.411,0.528-0.606
				c-0.16,0.176-0.312,0.359-0.464,0.547l0.529-0.481l-1.019,1.249c-1.315,1.677-2.663,3.321-4.043,4.931
				c-2.103,2.399-4.274,4.668-6.477,6.969c-3.419,3.518-7.199,6.674-10.849,9.763l-0.755,0.658
				c-4.767,3.486-9.271,6.181-13.84,8.284c-1.874,0.755-3.747,1.446-5.654,2.006c-2.399,0.689-4.898,1.084-7.364,1.447
				c-3.354,0.395-6.575,0.625-9.631,0.625c-2.269,0-4.57-0.132-6.839-0.395c-3.518-0.592-6.51-1.381-9.205-2.368
				c-1.513-0.59-3.025-1.15-4.537-1.709c-6.147-2.728-10.619-5.195-14.563-8.055c-2.663-2.235-5.162-4.833-7.627-7.923
				c-2.465-3.452-4.537-7.035-6.312-10.98c-1.545-4.044-2.597-7.891-3.288-11.769c-0.625-6.081-0.099-12.065,0.559-17.752
				c0.559-3.45,1.118-6.903,2.006-10.257l0.296-1.216c0.296-1.315,0.625-2.597,1.052-3.879c0.92-2.794,1.841-5.556,2.926-8.251
				c2.235-4.899,5.096-9.6,8.678-14.432c1.907-2.399,3.88-4.668,6.016-6.87c2.006-2.136,4.372-4.241,7.627-6.74
				c2.926-2.203,5.983-4.208,9.041-6.017c1.709-0.985,3.485-1.874,5.259-2.761c2.564-1.348,5.195-2.531,7.857-3.747l5.917-2.335
				c4.931-2.039,10.355-3.551,16.141-4.538c2.171-0.23,4.34-0.393,6.51-0.426c2.432,0.099,4.898,0.362,7.824,0.689
				c2.302,0.428,4.602,0.823,6.936,1.381c2.07,0.461,4.076,1.249,6.081,2.039C419.166,362.175,420.843,362.931,422.487,363.852z
				 M483.896,288.997c-0.428,2.3-1.052,4.668-1.94,7.232c-1.578,3.551-3.617,6.969-6.246,10.52
				c-2.794,3.321-5.917,6.409-9.271,9.139c-1.644,1.183-3.386,2.171-5.195,3.057c-1.742,0.626-3.518,1.151-5.358,1.447
				c-1.216,0.099-2.434,0.165-3.65,0.165c-0.92,0-1.874-0.033-2.794-0.099c-3.78-0.689-7.528-1.842-11.145-2.926l-4.339-1.282
				c-5.325-1.447-10.849-2.039-15.616-2.434v-0.098l-1.052,0.032c0-0.004-0.001-0.008-0.001-0.012
				c-0.757-4.631-1.74-9.328-2.923-14.024c-0.92-3.617-1.94-7.2-3.123-11.44l-1.084-3.749c-0.658-2.366-1.315-4.765-2.07-7.133
				c-1.381-4.142-2.86-7.954-4.602-11.702c-0.625-1.348-1.348-2.63-2.039-3.912l-0.689-1.284c-1.578-2.958-4.044-7.265-7.364-10.257
				c-0.953-0.887-2.169-1.348-3.419-1.348c-1.183,0-2.302,0.461-3.222,1.348c-0.92,0.889-1.414,2.171-1.381,3.518
				c0.033,1.249,0.526,2.335,1.381,3.123c0.592,0.526,1.151,1.118,1.709,1.776c2.335,3.321,4.044,6.804,5.786,10.717
				c0.953,2.531,1.907,5.16,2.432,7.857c0.691,3.452,1.216,6.87,1.743,10.289l1.018,6.246c0.602,3.8,1.224,7.577,1.719,11.37
				c0.103,0.687,0.203,1.371,0.302,2.057l0.011-0.145c-0.022-0.177-0.044-0.354-0.061-0.526c0.022,0.168,0.041,0.337,0.062,0.504
				l0.036-0.504c0.854,6.639,1.447,13.314,2.006,19.988c0.132,1.71,0.296,3.419,0.494,5.129c0.458,4.516,0.944,9.194,0.592,13.84
				c0,0.032,0,0.032,0,0.066l-2.335-0.033c-0.658-0.032-1.315-0.032-1.973-0.032c-2.597,0-5.195,0.066-7.758,0.296
				c-1.578,0.099-3.156,0.362-4.701,0.592l-1.414,0.231c-2.169,0.296-4.997,0.755-7.594,1.742
				c-5.556,2.136-11.473,4.734-18.606,8.185c-6.345,3.09-11.703,6.837-16.042,11.178c-1.611,1.018-3.189,2.07-4.734,3.188
				c-4.833,3.42-9.238,7.529-13.511,12.526c-3.617,4.273-6.773,8.744-9.403,13.314c-2.366,4.174-4.076,8.547-5.588,12.688
				c-1.447,3.912-2.63,8.022-3.518,12.23l-0.329,1.513c-0.362,1.677-0.724,3.353-0.986,4.997c-0.46,2.827-0.821,5.654-1.15,8.481
				c-0.461,4.273-0.494,8.22-0.066,12.065c0.296,2.992,0.887,6.148,1.677,9.304c0.887,3.485,2.269,6.707,3.584,9.699
				c0.92,2.006,1.973,3.911,3.09,5.852c0.122,0.197,0.293,0.363,0.419,0.56c-0.033,0.008-0.067,0.013-0.102,0.02
				c0.015,0.028,0.03,0.053,0.045,0.078l-0.92,0.197l-2.169,0.461c-7.298,0.823-14.728,0.854-21.927,0.92l-7.133,0.066h-2.136
				c-5.129,0-9.666-0.263-13.873-0.755c-5.096-0.626-10.191-1.183-15.287-1.742l-1.183-0.197c-4.767-0.757-9.697-1.513-14.596-1.875
				l-5.95-0.524l-2.905-0.337c-0.143-0.012-0.284-0.018-0.427-0.03c0.003-0.009,0.008-0.018,0.012-0.028h-0.099l0.494-1.381
				c1.085-3.189,1.709-6.575,2.268-9.829l0.263-1.513c0.494-2.761,0.823-5.587,1.118-8.349c0.395-3.979,0-7.923-0.526-11.967
				c-0.658-5.555-1.48-9.73-2.597-13.478c-1.348-4.471-3.156-8.777-5.753-13.479c-0.854-1.577-1.709-3.188-2.728-4.701
				c-1.348-1.973-2.827-3.813-4.306-5.688l-0.79-0.985l-0.953-1.249c-2.169-2.762-4.339-5.556-6.804-8.088
				c-0.854-0.887-1.742-1.742-2.663-2.597l-1.315-1.282c-1.512-1.479-3.057-2.958-4.701-4.273c-3.419-2.728-7.1-5.226-10.948-7.364
				c-2.302-1.282-4.668-2.366-7.068-3.45l-3.255-1.513c-1.446-0.691-2.893-1.315-4.372-1.907l-1.677-0.953
				c-4.373-2.564-8.876-5.228-13.577-7.265c-5.49-2.335-11.506-4.142-19.001-5.588c-1.841-0.362-3.65-0.658-5.523-0.92
				c-0.018-0.003-0.037-0.001-0.055-0.003c0-0.007,0.001-0.012,0.003-0.018c-0.026-0.004-0.052-0.008-0.078-0.012
				c0.132-1.381,0.197-2.794,0.263-4.175l0.066-1.348l0.23-3.486c0.099-1.577,0.197-3.189,0.23-4.766
				c0.197-4.57,0.526-10.619,1.216-16.734c0.757-5.391,1.611-10.75,2.434-16.108c0.755-4.668,1.479-9.336,2.137-14.003l0.197-1.216
				c0.755-4.997,1.512-10.158,2.696-15.156c0.658-2.86,1.413-5.654,2.269-8.481c0.722-2.531,1.709-5.063,2.696-7.562l0.559-1.381
				c0.36-1.018,0.263-2.169-0.263-3.254c-0.658-1.315-1.874-2.335-3.156-2.696c-0.362-0.098-0.757-0.132-1.249-0.132
				c-0.854,0-1.709,0.197-2.498,0.625c-1.216,0.724-1.808,1.842-2.235,2.926c-1.808,4.603-3.452,9.206-4.964,13.94
				c-1.085,3.452-1.973,6.968-2.86,10.486l-0.395,1.513l-0.92,3.78l-0.729,2.916l-0.028,0.108c-0.022,0.011-0.045,0.021-0.067,0.03
				c0,0.003-0.001,0.005-0.001,0.008c-0.732,0.329-1.441,0.809-2.428,1.672c-6.148,5.292-12.296,10.586-18.573,15.68l-1.742,1.249
				c-1.578,1.084-3.189,2.203-4.8,3.288c-3.977,2.663-8.415,5.129-14.365,7.989l-2.169,1.084c-4.109,2.006-8.185,4.01-12.361,5.852
				c-4.898,1.971-9.567,3.287-14.234,4.01c-0.4,0.034-0.799,0.066-1.199,0.095c-1.474,0.106-2.947,0.168-4.422,0.168
				c-1.414,0-2.86-0.066-4.306-0.165c-2.467-0.427-4.669-1.018-6.74-1.775c-1.775-0.823-3.419-1.842-5.096-2.959
				c-1.151-0.985-2.235-2.006-3.255-3.189c-0.689-1.018-1.282-2.07-1.775-3.156c-0.92-2.465-1.644-5.16-2.169-8.055
				c-0.296-3.09-0.296-6.213,0.033-9.567c1.15-7.199,3.189-14.497,6.114-21.729c2.401-5.523,4.932-10.191,7.726-14.3l5.358-7.954
				c0.854-1.249,1.776-2.434,2.663-3.617l0.986-1.314c1.48-2.006,2.992-4.045,4.504-6.017c1.809-2.203,3.65-4.405,5.49-6.575
				l1.545-1.842c1.018-1.249,2.006-2.5,3.09-3.681l2.203-2.368c3.287-3.615,6.608-7.199,10.092-10.586l1.874-1.842
				c1.216-1.216,2.432-2.465,3.747-3.582l4.076-3.518l4.076-3.518c2.925-2.564,6.049-4.899,9.139-7.233l2.926-2.203
				c4.635-3.189,9.336-6.378,14.005-9.534c3.78-2.597,7.693-5.03,11.604-7.462c5.226-3.255,10.948-6.246,17.456-9.139
				c0,0,0,0,0.033,0c0,0,0,0,0.033,0l0.033,0.032c0,0.004,0.001,0.007,0.003,0.009c0.886,2.167,1.871,4.332,2.955,6.664
				c1.743,3.78,3.584,7.693,5.819,11.244c2.959,4.636,6.575,10.059,11.013,15.287c3.846,4.471,8.547,8.81,14.005,12.853
				c2.037,1.578,4.175,3.123,6.345,4.471c8.251,5.063,15.977,9.172,23.636,12.625c4.931,2.203,9.895,4.306,14.925,6.312
				c1.348,0.559,2.794,0.953,4.24,1.38l2.006,0.626c1.381,0.427,2.794,0.788,4.241,1.117l2.236,0.56
				c1.512,0.36,3.09,0.658,4.635,0.92l2.399,0.427c1.578,0.329,3.156,0.559,4.734,0.821l2.366,0.362
				c5.096,0.821,10.388,1.249,15.485,1.611c3.78,0.296,7.594,0.426,11.407,0.426c4.34,0,8.679-0.132,13.018-0.296l2.203-0.066
				c5.753-0.164,11.407-1.018,16.733-2.564c5.72-1.742,11.802-4.471,18.542-8.349c9.895-5.818,17.161-14.433,22.387-21.334
				c5.228-6.905,9.732-14.662,13.38-23.044c2.913-6.708,5.333-12.762,7.463-18.62c0.011-0.028,0.021-0.058,0.032-0.086l2.63,0.689
				c3.254,0.821,6.542,1.644,9.796,2.563c5.129,1.381,10.026,3.354,13.742,4.899c3.78,1.677,7.528,3.485,11.143,5.489l1.743,0.92
				c1.512,0.79,2.992,1.578,4.438,2.465l1.644,0.986l4.175,2.564c1.249,0.755,2.465,1.611,3.683,2.498l1.183,0.854
				c5.063,4.142,10.026,8.481,14.991,12.822l6.213,5.423c3.681,3.189,7.199,6.51,10.684,9.961c2.893,2.86,5.424,6.147,7.89,9.369
				l0.362,0.592c0.005,0.011,0.013,0.02,0.019,0.028c0.137,0.178,0.273,0.355,0.409,0.531c-0.115-0.144-0.23-0.29-0.345-0.438
				c2.109,3.083,4.215,6.169,6.065,9.445c2.958,5.16,5.325,9.862,7.265,14.332c2.103,5.457,3.584,11.145,4.537,17.456
				C484.094,282.818,484.16,285.972,483.896,288.997z"/>
			<path d="M184.61,96.586c0.23,0.296,0.46,0.592,0.722,0.887c0.461,0.395,0.953,0.755,1.48,1.118
				c0.986,1.282,2.366,2.3,3.846,2.892l0.887,0.329l0.953,0.165l0.953,0.132c1.151-0.066,2.006-0.197,2.959-0.494
				c1.808-0.526,3.189-1.874,4.471-3.221l0.887-0.79l0.494-0.658l0.92-1.216c0.393-0.691,0.755-1.413,1.117-2.399l0.329-1.052
				l0.132-0.854l0.165-0.887c0.165-0.724,0.296-1.315,0.296-1.874c0-0.428,0.033-0.854,0.066-1.348c0-0.524-0.132-1.117-0.296-1.808
				c-0.23-0.92-0.823-1.775-1.315-2.531c-0.46-0.625-1.051-1.15-1.578-1.545c-0.658-0.79-1.315-1.315-2.399-1.71
				c-0.625-0.329-1.282-0.461-2.07-0.493c-1.085-0.329-2.171-0.559-3.354-0.724c-0.526-0.066-1.052-0.098-1.578-0.098
				c-1.381,0-2.63,0.263-3.747,0.788c-0.395,0.165-0.79,0.362-1.151,0.56l-1.512,1.183c-0.592,0.46-1.052,1.084-1.874,2.3
				c-0.592,0.755-1.052,1.578-1.348,2.5c-0.494,1.15-0.724,2.234-0.724,3.189c0,1.808,0.132,3.911,1.118,5.851
				C183.722,95.433,184.084,96.026,184.61,96.586z M196.772,90.733c0.001-0.003,0.003-0.005,0.004-0.008
				c-0.003,0.013-0.004,0.026-0.004,0.04C196.772,90.733,196.772,90.733,196.772,90.733z"/>
			<path d="M312.556,92.015c0.887,0.953,1.907,1.742,3.419,2.629c1.413,1.71,3.287,2.696,5.195,2.696
				c0.428,0,0.821-0.066,1.216-0.132c1.052-0.263,2.268-0.625,3.354-1.513c0.691-0.493,1.216-1.052,1.677-1.742
				c0.428-0.492,0.854-1.118,1.282-1.841l0.329-0.79c0.197-0.461,0.395-0.889,0.559-1.348c0.296-0.722,0.526-1.545,0.722-2.498
				c0.395-1.677,0.461-3.518,0.099-4.997c-0.23-1.118-0.592-2.136-1.282-3.485c-0.23-0.494-0.559-0.955-0.92-1.348
				c-0.592-0.724-1.183-1.15-2.037-1.677c-1.216-0.755-2.761-0.755-4.109-0.755c-2.103,0-4.076,1.117-5.785,2.203
				c-0.986,0.625-1.874,1.479-2.696,2.3l-0.658,0.626c-0.395,0.461-0.823,0.986-1.183,1.446l-0.395,0.889l-0.394,0.92
				c-0.197,0.656-0.263,1.282-0.329,1.971c-0.099,0.658-0.099,1.348,0.066,2.07C310.88,89.418,311.57,90.963,312.556,92.015z"/>
			<path d="M355.49,48.095c0.461,0.263,0.953,0.395,1.512,0.395l0.757-0.066c0.658-0.197,1.446-0.724,1.742-1.348
				c0.395-0.887,0.79-1.742,1.216-2.564c0.625-1.314,1.348-2.498,2.169-3.681c0.986-1.183,2.006-2.203,3.222-3.189
				c0.986-0.658,1.94-1.248,2.959-1.775c0.559-0.197,1.117-0.395,1.709-0.526c0.757-0.197,1.512-0.329,2.103-0.329
				c0.046,0,0.092,0,0.139,0c0.117-0.013,0.236-0.025,0.354-0.033c-0.078,0.011-0.154,0.02-0.232,0.029l1.021-0.062
				c0.459,0.263,0.92,0.658,1.315,1.118l0.279,0.465c0.016,0.008,0.017,0.028,0.017,0.028c0.033,0.032,0.066,0.066,0.099,0.099
				c-0.025-0.026-0.052-0.05-0.077-0.062l0.273,0.457c0.165,0.427,0.296,0.821,0.428,1.413c0.033,0.395,0.066,0.853,0.033,1.446
				c-0.526,2.368-1.249,4.57-2.105,6.839c-0.36,0.823-0.755,1.578-1.216,2.368c-0.124,0.139-0.256,0.28-0.396,0.415
				c0.012-0.007,0.022-0.015,0.034-0.021c-0.013,0.008-0.025,0.017-0.038,0.026c-0.155,0.149-0.317,0.297-0.489,0.433
				c-0.788,0.56-1.611,1.019-3.156,1.71c-1.051,0.395-1.709,0.887-2.169,1.644c-0.46,0.854-0.592,1.874-0.362,2.794
				c0.231,0.92,0.823,1.71,1.644,2.203c0.559,0.296,1.118,0.461,1.742,0.461c0.592,0,1.249-0.165,1.94-0.461
				c2.072-0.986,3.945-2.399,5.588-4.273c1.611-1.808,2.465-4.208,3.288-6.707c0.395-1.183,0.757-2.366,1.085-3.584
				c0.36-1.447,0.526-2.86,0.625-4.372c-0.066-0.724-0.132-1.447-0.23-2.171c-0.165-0.887-0.428-1.677-0.79-2.434
				c-0.526-1.282-1.282-2.203-2.86-3.714c-0.559-0.56-1.216-0.92-2.037-1.217c-1.019-0.461-1.973-0.625-3.419-0.625
				c-0.428,0-0.92,0.032-1.447,0.066c-0.854,0.066-1.709,0.23-2.531,0.427c-1.446,0.263-2.761,0.92-4.076,1.578
				c-0.953,0.493-1.841,1.118-2.63,1.776c-1.414,1.118-2.63,2.335-3.813,3.681c-1.907,2.203-3.156,4.833-4.273,7.331
				c-0.329,0.821-0.494,1.479-0.296,2.268C354.339,47.044,354.833,47.7,355.49,48.095z"/>
			<path d="M243.915,145.237c0.395,0.92,0.823,1.809,1.282,2.696c1.413,2.794,3.287,4.997,5.785,6.707
				c2.86,2.006,6.246,3.221,9.796,3.516c0.92,0.099,1.841,0.132,2.761,0.132s1.841-0.032,2.761-0.132
				c1.183-0.132,2.335-0.296,3.485-0.493c0.724-0.132,1.48-0.395,2.302-0.724c1.151-0.493,2.171-1.018,3.288-1.611
				c2.926-1.677,5.358-4.373,7.002-7.791c0.823-1.776,1.348-3.78,1.644-6.345c0.23-1.776,0.23-3.42,0.066-5.063
				c-0.23-2.368-1.052-4.636-2.366-6.74c-1.447-2.234-3.584-3.747-5.259-4.8l-1.842-1.084l-1.808-1.118
				c-1.183-0.724-2.663-1.314-4.471-1.775c-0.494-0.395-1.151-0.724-1.842-0.986c-1.183-0.526-2.432-0.788-4.306-0.788
				c-0.132,0-0.23,0.032-0.362,0.032c-1.413,0.033-2.794,0.494-4.24,0.955c-0.436,0.153-0.856,0.327-1.284,0.514
				c-0.015,0.001-0.03,0-0.046,0.003c-0.104,0.045-0.209,0.091-0.314,0.141l-0.329,0.048l-1.249,0.182
				c-0.494,0.197-0.986,0.395-1.479,0.625c-0.757,0.297-1.381,0.658-1.973,1.118c-1.018,0.724-1.94,1.578-2.892,2.63
				c-0.823,0.899-1.553,2.078-2.353,3.589c-0.057,0.09-0.128,0.174-0.184,0.265c-0.158,0.306-0.32,0.631-0.489,0.977
				c-0.026,0.045-0.05,0.09-0.075,0.136c-0.261,0.614-0.506,1.239-0.747,1.87c-0.012,0.03-0.012,0.067-0.022,0.096
				c-0.842,2.094-1.423,4.383-1.522,7.268c-0.066,1.381,0.23,2.794,0.526,4.01C243.388,143.957,243.651,144.614,243.915,145.237z"/>
			<path d="M242.797,195.602c1.216,0.986,2.434,1.94,3.78,2.761c0.953,0.56,1.973,1.019,3.222,1.612
				c4.866,2.169,9.763,3.485,14.497,3.911c0.461,0.066,0.953,0.066,1.414,0.066c1.446,0,2.926-0.164,4.306-0.426
				c2.432-0.428,4.668-1.118,6.839-2.105c1.874-0.854,3.615-1.874,5.358-2.958c3.09-1.907,5.588-4.504,7.857-7.035
				c1.578-1.742,2.827-3.485,3.813-5.226c1.118-1.941,0.79-4.373-0.79-5.951c-0.92-0.887-2.235-1.413-3.549-1.413
				c-1.348,0-2.564,0.493-3.354,1.413l-1.249,1.381c-1.94,2.236-3.747,4.307-5.917,6.181c-1.783,1.286-3.643,2.261-5.444,3.129
				c0.073-0.028,0.145-0.054,0.218-0.073c-0.091,0.045-0.181,0.074-0.273,0.099c-0.206,0.099-0.412,0.197-0.615,0.296
				c-1.578,0.592-3.156,1.018-4.866,1.348c-0.625,0.032-1.249,0.032-1.841,0.032c-0.953,0-1.907-0.032-2.86-0.098
				c-3.189-0.592-6.543-1.513-9.961-2.762c-1.315-0.625-2.564-1.314-3.813-2.136c-1.118-0.985-2.169-2.006-3.156-3.123
				c-0.887-0.985-2.136-1.545-3.584-1.545c-1.446,0-2.86,0.56-3.813,1.545c-2.006,1.973-2.006,5.162,0,7.398
				C240.199,193.234,241.417,194.518,242.797,195.602z"/>
			<path d="M340.532,315.264c-0.722-8.283-1.94-16.733-3.09-24.887l-0.23-1.413c-0.428-2.958-0.854-5.884-1.348-8.843
				c-0.362-2.006-0.724-4.01-1.15-5.983c-0.691-3.254-1.842-6.475-3.419-9.631c-1.512-2.959-3.452-5.063-5.621-6.115
				c-1.052-0.494-2.235-0.724-3.485-0.724c-1.381,0-2.893,0.263-4.504,0.821c-1.019,0.329-2.006,0.691-2.992,1.118
				c-1.084,0.526-2.136,1.183-3.386,2.136c-1.512,1.217-2.991,2.465-4.306,3.879c-4.866,4.997-8.646,9.303-11.933,13.576
				c-3.123,4.109-6.214,8.284-9.271,12.493l-0.939,1.264l-0.015,0.018c0,0-0.032,0.033-0.065,0.033c0,0-0.033,0-0.033-0.033
				c-0.691-0.36-1.414-0.689-2.105-1.051l-1.15-0.56c-0.79-0.395-1.611-0.755-2.432-1.118l-0.986-0.461
				c-0.691-0.296-1.249-0.427-1.775-0.46c-1.151-0.56-2.268-1.085-3.452-1.578c-1.019-0.428-2.07-0.854-3.09-1.249
				c-0.788-0.263-1.709-0.36-3.189-0.526c-0.559-0.098-1.084-0.132-1.644-0.132c-1.841,0-3.714,0.362-5.325,0.757
				c-2.794,0.559-5.391,1.808-7.133,2.695c-1.71,0.854-3.189,2.136-4.701,3.452c-0.428,0.36-0.823,0.755-1.315,1.183
				c-0.691-0.461-1.348-0.92-2.037-1.414c-2.564-2.136-4.964-4.437-7.364-6.705c-1.611-1.546-3.222-3.057-4.866-4.537
				c-3.78-3.42-7.397-6.312-10.979-8.843c-3.584-2.465-7.331-4.702-11.605-7.265c-4.866-2.893-8.974-5.031-12.952-6.707
				c-0.953-0.395-1.94-0.56-3.057-0.56c-1.084,0-2.136,0.165-3.09,0.494c-2.432,0.821-4.109,2.992-5.292,4.8
				c-0.427,0.689-0.722,1.479-1.018,2.236l-0.362,0.853c-0.526,1.249-0.887,2.564-1.282,4.044
				c-0.887,3.419-1.446,7.002-2.037,10.849c-0.79,5.259-1.249,10.52-1.709,15.814c-0.724,8.711-0.92,17.258-1.085,26.726
				c-0.165,7.462,0.428,15.385,1.743,23.537c0.559,3.65,1.874,7.463,4.076,12c0.854,1.742,2.07,3.386,3.714,5.03
				c0.689,0.56,1.38,1.085,2.07,1.578c0.823,0.658,1.907,1.018,3.714,1.677c0.854,0.197,1.776,0.395,2.728,0.461
				c1.315,0.165,2.564,0.231,4.57,0.231c0.099,0,0.23,0,0.329,0c2.695-0.033,5.391-0.461,7.726-0.889
				c3.78-0.625,7.495-2.335,10.914-4.076c3.321-1.677,6.378-3.549,9.304-5.687c2.432-1.776,4.833-3.683,7.166-5.556l1.907-1.513
				c2.531-1.971,5.031-4.273,7.923-7.265c1.633-1.602,3.236-3.234,4.929-4.898c0.025-0.026,0.048-0.052,0.071-0.078
				c0.001,0,0.001,0.003,0.004,0.003c0.02-0.018,0.038-0.038,0.058-0.057l1.447,1.018c1.479,0.953,3.222,1.611,5.654,2.531
				c0.854,0.296,1.742,0.559,2.63,0.755c1.315,0.297,2.696,0.526,4.043,0.658c0.79,0.099,1.513,0.165,2.235,0.165
				c0.362,0,0.757-0.033,1.151-0.066c1.183-0.066,2.399-0.297,3.584-0.526c2.854-0.552,5.508-1.589,7.756-2.975
				c0.003,0.001,0.007,0.004,0.009,0.005c0.03-0.018,0.061-0.036,0.091-0.055l4.339,2.039c2.498,1.118,4.964,2.268,7.429,3.485
				c0.953,0.461,1.973,0.724,2.992,0.724c0.302,0,0.606-0.036,0.91-0.083c0.007,0.003,0.015,0.007,0.022,0.009
				c0.05-0.008,0.102-0.016,0.153-0.025l0.129,0.045l3.026,1.074c1.94,0.656,3.846,1.348,5.753,2.07l2.037,0.755
				c1.249,0.493,2.5,0.986,3.747,1.413c4.537,1.479,9.172,2.663,13.84,3.815c2.335,0.59,4.273,0.853,6.016,0.853
				c0.757,0,1.48-0.032,2.235-0.164c1.183-0.165,2.104-0.428,3.156-0.92l0.823-0.395c0.724-0.492,1.348-0.986,2.037-1.513
				c0.724-0.887,1.414-1.775,1.973-2.794c0.658-1.183,0.92-2.597,1.183-3.977c0.263-1.447,0.395-2.959,0.526-4.57
				c0.395-4.241,0.165-8.514-0.066-12.688C341.288,324.337,340.926,319.799,340.532,315.264z M242.337,332.687
				c-0.823,0.689-1.578,1.479-2.366,2.234l-0.92,0.92c-1.414,1.381-2.794,2.696-4.24,4.044c-1.118,0.986-2.269,1.907-3.452,2.827
				c-3.025,2.302-6.049,4.57-9.139,6.806c-3.025,2.136-6.674,4.174-11.143,6.18c-2.696,1.052-5.391,1.776-8.218,2.235
				c-1.578,0.132-3.189,0.23-4.767,0.23c-0.318,0-0.666,0-0.986,0c-0.011,0-0.022,0-0.033,0c-0.296,0-0.559,0-0.854-0.032
				c-0.559-0.132-1.051-0.296-1.545-0.461c-0.296-0.132-0.592-0.296-0.887-0.461c-0.362-0.329-0.691-0.658-1.018-1.052
				c-1.085-1.577-1.973-3.255-2.794-5.063c-1.282-3.287-2.105-6.279-2.531-9.796l-0.592-4.076l-0.165-2.07l-0.329-4.142
				c-0.132-1.71-0.132-3.42-0.132-5.129l-0.033-1.941c-0.099-3.32,0-6.639,0.099-9.96l0.099-3.584
				c0.132-4.045,0.296-8.086,0.625-12.131l0.592-7.364c0.132-1.479,0.329-2.926,0.526-4.405l0.263-2.136
				c0.395-2.399,0.79-4.833,1.315-7.133c0.658-3.354,1.315-5.852,2.236-8.119c0.296-0.658,0.625-1.249,0.986-1.842l0.263-0.263
				c0.033,0,0.033-0.032,0.066-0.032l0.033,0.032c1.842,0.889,3.65,1.94,5.424,3.025l1.611,0.953l3.615,2.136l2.236,1.348
				c2.368,1.447,4.734,2.893,7.068,4.373c1.512,0.92,2.992,1.94,4.438,2.958l0.625,0.526c0.099,0.099,0.23,0.165,0.329,0.263
				l-0.132-0.164l-0.428-0.461l4.471,3.549c1.183,0.955,2.335,2.006,3.518,3.057l1.545,1.381c1.118,1.018,2.203,2.039,3.288,3.09
				l1.644,1.546l1.611,1.479l1.644,1.479c1.644,1.545,3.452,2.892,5.358,4.273c-0.526,0.986-0.953,2.006-1.315,3.057
				c-0.526,1.545-0.823,2.958-1.052,4.504c-0.197,1.479-0.263,2.86-0.23,4.372c0,1.973,0.362,3.979,0.724,5.951l0.197,1.084
				c0.461,2.728,1.677,5.423,2.663,7.562c0.494,1.018,1.084,2.006,1.742,3.024L242.337,332.687z M285.206,309.673
				c-0.23,1.545-0.559,3.091-0.953,4.602c-0.395,1.479-0.953,2.893-1.513,4.307c-1.051,2.203-2.203,4.273-3.549,6.312
				c-1.578,1.905-2.992,3.386-4.438,4.602c-0.296,0.23-0.592,0.395-1.282,0.79c-1.48,0.495-2.959,0.857-4.537,1.12
				c-0.592,0.066-1.216,0.098-2.434,0.098c-0.033,0-0.066,0-0.098,0c-2.268-0.461-4.537-1.15-6.707-2.006
				c-0.986-0.461-1.907-1.018-2.827-1.644c-1.446-1.183-2.794-2.465-4.043-3.912c-0.953-1.446-1.809-2.926-2.597-4.471
				c-1.019-2.663-1.71-5.195-2.171-7.791c-0.098-1.118-0.065-2.203,0-3.353c0.395-1.71,0.887-3.255,1.545-4.866
				c0.79-1.842,1.775-3.584,2.893-5.162c0.887-1.051,1.874-2.037,2.992-2.926c1.183-0.821,2.399-1.512,3.714-2.136
				c1.414-0.526,2.761-0.92,4.274-1.282c0.854-0.098,1.677-0.164,2.531-0.164l1.249,0.066c1.447,0.327,2.827,0.853,4.471,1.479
				l1.513,0.724c0.263,0.656,0.757,1.216,2.037,1.971c2.269,1.315,4.602,2.63,6.773,4.076c0.46,0.395,0.92,0.823,1.348,1.284
				c0.395,0.592,0.757,1.183,1.085,1.808c0.329,1.052,0.592,2.037,0.821,3.123C285.371,307.471,285.305,308.555,285.206,309.673z
				 M331.36,343.766c0,0.022,0,0.044,0,0.066c-0.066,0.428-0.099,0.854-0.132,1.249c-0.033,0.164-0.066,0.329-0.23,0.592
				c0,0.098-0.033,0.164-0.066,0.263c-0.066,0.098-0.099,0.164-0.132,0.263c-0.033,0-0.033,0-0.033,0.032
				c-0.066,0.033-0.165,0.066-0.23,0.099c-0.033,0.032-0.033,0.032-0.066,0.032c-0.033,0.033-0.066,0.066-0.099,0.099h-0.461
				l-1.15,0.032c-3.747-0.658-7.462-1.742-11.079-2.761l-1.216-0.362c-2.959-0.821-5.819-1.841-8.679-2.958
				c-2.926-1.118-5.95-2.136-8.975-3.189c-0.033-0.033-0.033-0.066-0.066-0.099c-0.018-0.003-0.037-0.013-0.055-0.018
				c-0.482-0.751-1.079-1.389-1.851-1.789c-1.545-0.755-3.123-1.512-4.668-2.3c-1.553-0.718-3.16-1.331-4.731-2.008
				c0.112-0.168,0.25-0.322,0.358-0.491c-0.033,0-0.033-0.032-0.066-0.032c0.592-0.986,1.085-2.039,1.71-3.321
				c0.526-1.052,1.018-2.171,1.611-3.846s1.183-3.386,1.545-5.16c0.46-2.138,0.722-4.34,0.887-6.575
				c0.263-3.157-0.099-6.346-1.084-9.468c-0.395-1.151-0.953-2.335-1.677-3.551l0.033-0.032c-0.001-0.003-0.003-0.004-0.004-0.007
				c2.949-3.997,5.9-7.964,9.341-12.486c2.202-2.761,4.405-5.555,7.397-8.777c3.025-3.353,6.214-6.837,9.763-9.796
				c0.165-0.132,0.362-0.23,0.526-0.361c0.066-0.033,0.099-0.066,0.165-0.132c-0.033,0.032-0.066,0.066-0.099,0.098
				c1.315-0.887,2.728-1.611,4.109-2.366l0.953-0.297l0.197-0.032l0.691,0.36c0.428,0.395,0.788,0.823,0.722,0.823c0,0,0,0-0.033,0
				c0.033,0.098,0.099,0.164,0.132,0.261c0.132,0.132,0.23,0.263,0.329,0.428c-0.066-0.066-0.099-0.132-0.165-0.197
				c0.428,0.689,0.823,1.413,1.183,2.136c1.183,2.827,1.841,5.752,2.236,8.58c0.099,0.559,0.197,1.15,0.296,1.776v-0.099
				c0-0.164-0.033-0.329-0.033-0.493c0.033,0.164,0.033,0.296,0.066,0.461l0.033-0.461c1.38,11.999,2.103,24.129,2.696,34.583
				c0.296,5.424,0.395,10.882,0.494,16.339C331.853,334.724,331.755,339.361,331.36,343.766z"/>
			<path d="M191.908,417.601c-0.887-1.709-2.169-3.353-3.222-4.602c-2.269-2.695-4.964-4.833-7.791-6.969
				c-0.887-0.689-1.94-1.282-2.959-1.841c-2.006-1.118-3.88-1.907-5.72-2.434c-1.348-0.36-2.992-0.492-4.142-0.492
				c-0.691-0.033-1.381-0.033-2.037-0.033h-0.854c-1.479,0-3.123,0.231-5.063,0.691c-0.033,0.032-0.033,0.032-0.033,0.032
				l-1.348-0.132l-1.315-0.098c-0.757-0.099-1.479-0.132-2.203-0.132c-0.79,0-1.611,0.032-2.432,0.132
				c-2.335,0.197-4.734,0.79-6.905,1.709c-2.663,1.183-5.226,2.663-7.726,4.471c-2.136,1.612-4.24,3.486-6.409,5.819
				c-2.663,2.827-5.063,6.444-7.561,11.308c-1.151,2.268-2.203,4.569-3.156,6.936c-1.743,4.438-2.597,9.271-2.465,14.398
				c0.033,2.5,0.592,5.162,1.611,8.154c0.296,0.854,0.691,1.677,1.052,2.498l0.395,0.887c0.755,1.612,1.709,2.959,2.564,4.078
				c1.249,1.611,2.564,3.156,3.879,4.701l0.823,0.986l0.691,0.823l0.689,0.788c0.887,1.052,1.907,1.941,2.992,2.86
				c0.724,0.626,1.513,1.151,2.597,1.874c1.282,0.823,2.663,1.612,4.045,2.235c3.714,1.677,7.528,3.386,11.703,3.88
				c1.381,0.165,2.761,0.263,4.109,0.263c1.677,0,3.386-0.132,5.096-0.36c3.025-0.362,5.884-1.15,8.448-2.335
				c1.315-0.626,2.597-1.315,3.879-2.07c1.085-0.658,2.07-1.447,3.057-2.236c1.907-1.413,3.78-3.09,5.786-5.129
				c1.611-1.611,3.123-3.549,4.635-5.917c0.592-0.953,1.117-1.94,1.677-2.926l0.625-1.118c1.019-1.874,1.874-3.879,2.696-5.852
				c1.413-3.419,1.907-7.199,2.366-10.848l0.197-1.513c0.263-1.94,0.461-3.846,0.658-5.786c0.099-0.658,0.165-1.315,0.23-1.973
				l0.066-1.018c0.197-2.236,0-4.537-0.592-7.035C193.978,421.973,192.926,419.706,191.908,417.601z M187.24,434.301
				c-0.165,1.447-0.362,2.86-0.526,3.979l-0.263,1.808l-0.23,1.776c-0.428,2.827-1.085,5.489-2.235,8.579l-0.494,1.183
				c-0.23,0.56-0.494,1.084-0.79,1.644l-0.492,0.887c-1.381,2.762-2.728,4.965-4.175,6.936c-2.269,2.564-4.504,4.702-6.804,6.543
				c-1.809,1.348-3.683,2.465-5.786,3.485c-0.953,0.395-1.874,0.724-2.893,1.018c-1.151,0.329-2.335,0.526-3.617,0.757
				c-1.117,0.066-2.236,0.132-3.353,0.132c-1.183,0-2.399-0.066-3.617-0.165c-0.823-0.132-1.578-0.329-2.335-0.559
				c-1.447-0.362-2.827-0.92-4.208-1.479l0.887,0.395c-0.92-0.395-1.841-0.79-2.761-1.217c-1.775-0.724-3.582-1.775-5.786-3.255
				c-1.249-1.084-2.335-2.169-3.452-3.353l-0.953-1.052l-0.953-1.052l-3.287-3.813c-0.461-0.592-0.854-1.216-1.249-1.842
				c-0.691-1.15-1.249-2.366-1.644-3.221c-0.329-0.79-0.592-1.611-0.854-2.434c-0.263-0.853-0.461-1.709-0.559-2.597
				c-0.165-1.413-0.23-2.793-0.263-4.208c0-1.314,0.165-2.629,0.23-3.123c0.428-2.531,1.085-5.03,2.072-7.692
				c0.296-0.887,0.658-1.742,1.018-2.5l0.658-1.38l0.986-2.039c1.282-2.696,2.958-5.391,4.898-7.954
				c2.037-2.467,4.24-4.636,6.213-6.246c1.183-0.889,2.366-1.71,3.584-2.465c1.019-0.658,2.136-1.183,3.255-1.71l0.755-0.36
				c0.79-0.297,1.578-0.526,2.368-0.79c0.821-0.165,1.611-0.329,2.531-0.461l0.263,0.066l-0.033-0.066
				c0.065,0,0.197,0.427,0.197,0.461c0.362,1.248,1.48,2.137,3.419,2.137c0.132,0,0.23,0,0.329-0.033
				c2.006-0.461,3.979-0.92,5.95-1.216c0.625-0.033,1.282-0.066,1.907-0.066c1.019,0,2.07,0.066,3.189,0.132
				c1.15,0.197,2.235,0.461,3.354,0.821c1.775,0.823,3.549,1.875,5.621,3.321c2.531,2.006,4.471,3.846,6.246,5.917l0.625,0.887
				c0.691,0.955,1.348,2.105,2.268,4.241c0.494,1.447,0.92,2.926,1.216,4.438C187.832,429.765,187.503,432.065,187.24,434.301z"/>
			<path d="M409.93,420.527c-0.658-2.006-1.709-3.879-2.663-5.523c-0.92-1.578-1.907-3.09-2.959-4.602
				c-1.052-1.447-2.366-2.695-3.681-3.944c-1.677-1.545-3.485-2.926-5.36-4.175c-0.658-0.427-1.38-0.79-2.794-1.479
				c-0.854-0.428-1.71-0.823-2.597-1.216c-1.677-0.79-3.386-1.48-5.162-2.105c-1.019-0.329-2.07-0.559-3.123-0.79l-1.118-0.263
				c-1.644-0.361-3.288-0.724-4.964-0.92c-1.413-0.164-2.827-0.23-5.063-0.23c-1.677,0-3.354,0.197-4.997,0.427
				c-0.823,0.099-1.611,0.231-2.366,0.395c-0.033,0-0.033,0-0.033,0l-0.033-0.032c-0.197-0.099-0.461-0.165-0.92-0.165
				c-0.099,0-0.197,0-0.329,0.033c-0.625,0.032-1.249,0.132-2.103,0.23c-0.494,0.132-1.019,0.297-1.512,0.461l-0.953,0.428
				l-0.986,0.427c-0.92,0.427-1.742,1.052-3.123,2.006c-0.691,0.461-1.381,1.018-2.138,1.644c-3.485,2.761-6.707,6.575-9.862,11.67
				c-1.084,1.776-2.037,3.65-2.959,5.523c-1.018,2.039-1.907,4.109-2.696,6.246c-0.722,1.94-1.315,3.879-1.742,5.917
				c-0.296,1.512-0.526,3.09-0.724,4.668c-0.395,2.992,0,5.95,0.494,8.744c0.099,0.691,0.263,1.381,0.625,2.893
				c0.526,2.234,1.38,4.569,2.597,7.068c1.051,2.103,2.63,4.01,4.208,5.72c0.79,0.919,1.677,1.709,2.564,2.531l0.92,0.79
				c0.79,0.689,1.677,1.38,2.531,2.037l2.268,1.644c1.611,1.15,3.321,2.203,5.03,3.221l3.419,2.07
				c2.037,1.183,4.306,2.137,6.903,2.893c1.216,0.36,2.498,0.526,3.747,0.658c1.545,0.132,3.09,0.197,4.898,0.197
				c3.189,0,6.378-0.691,8.481-1.217c3.419-0.92,6.575-2.465,9.567-3.977c1.94-0.986,3.747-2.203,5.391-3.584
				c0.887-0.689,1.709-1.447,2.531-2.203c1.249-1.183,2.335-2.531,3.386-3.879c2.236-2.827,3.977-5.916,5.588-8.876
				c0.494-0.887,0.887-1.841,1.282-2.794c0.395-0.92,0.724-1.842,1.019-2.794c0.395-1.282,0.559-2.597,0.724-3.879
				c0.426-3.846,0.755-7.331,0.658-10.915c-0.033-1.611-0.263-3.255-0.494-4.866C410.949,424.603,410.62,422.532,409.93,420.527z
				 M354.471,403.532c0,0,0,0,0.033,0c-0.033,0-0.066,0.032-0.099,0.066C354.438,403.563,354.438,403.563,354.471,403.532z
				 M407.005,435.388c-0.1,2.3-0.297,4.601-0.56,6.902c-0.296,1.545-0.625,2.992-1.183,4.537c-1.578,3.615-3.747,7.298-6.181,10.553
				c-0.788,1.018-1.644,1.971-2.498,2.926c-0.986,1.051-2.103,2.006-3.255,2.925c-1.644,1.183-3.321,2.27-5.096,3.157
				c-1.15,0.592-2.269,1.15-3.419,1.644c-1.479,0.592-2.958,1.117-4.471,1.611c-1.611,0.493-3.321,0.79-4.339,0.92
				c-1.019,0.132-2.037,0.197-3.057,0.23h-0.854c-1.282,0-2.564-0.098-3.156-0.098c-1.052-0.132-2.07-0.329-3.156-0.592
				c-0.79-0.231-1.545-0.461-2.302-0.724c-3.288-1.413-6.411-3.321-9.567-5.294c-2.269-1.38-4.339-2.926-6.475-4.503l-1.71-1.479
				c-1.545-1.315-2.86-2.86-4.142-4.472c-0.428-0.625-0.854-1.282-1.216-1.94c-0.361-0.625-0.689-1.282-0.986-1.94
				c-0.625-1.578-1.183-3.123-1.578-4.766c-0.263-1.217-0.526-2.401-0.722-3.584c-0.132-1.217-0.197-2.368-0.23-3.584
				c-0.033-1.183,0.066-2.335,0.23-3.485c0.263-1.71,0.592-3.386,1.249-5.588c0.165-0.626,0.329-1.249,0.559-1.875l0.461-1.248
				l0.461-1.249l1.183-2.728c0.395-0.887,0.854-1.776,1.545-3.024c0.296-0.626,0.625-1.217,0.986-1.842l0.461-0.79
				c0.953-1.71,1.973-3.353,3.485-5.423c0.788-0.986,1.578-1.941,2.432-2.926c0,0,0.821-0.297,0.854-0.297l1.841-1.183
				c2.366-1.479,4.734-2.992,7.232-4.24c1.249-0.461,2.498-0.79,3.88-1.085c1.677-0.23,3.386-0.427,5.096-0.427h0.395
				c1.611,0,3.254,0.132,4.898,0.329c1.841,0.296,3.714,0.724,5.556,1.183c1.117,0.263,2.203,0.524,3.287,0.854
				c0.658,0.164,1.315,0.427,2.696,0.953l2.63,1.216l1.381,0.658c0.493,0.23,1.018,0.493,1.512,0.755
				c1.085,0.526,2.169,1.249,3.485,2.268c0.79,0.658,1.578,1.315,2.366,2.039c1.019,0.986,2.006,1.973,2.926,3.09
				c0.788,1.118,1.578,2.302,2.366,3.486c0.953,1.577,1.907,3.156,2.663,4.832c0.986,2.564,1.413,5.129,1.808,7.791
				C406.972,431.706,407.071,433.514,407.005,435.388z"/>
			<path d="M67.84,301.128l-0.757-5.162l-0.986-7.297c-0.165-1.447-0.362-2.893-0.559-4.34c-0.066-0.559-0.165-1.051-0.592-1.479
				c-0.395-0.395-0.953-0.592-1.479-0.592c-0.526,0-1.085,0.197-1.48,0.592c-0.329,0.329-0.658,0.955-0.592,1.479
				c0.329,2.696,0.689,5.391,1.084,8.088l0.592,4.307c0.263,2.037,0.592,4.076,0.92,6.147l0.755,4.964
				c0.033,0.461,0.494,0.92,0.887,1.183c0.296,0.165,0.658,0.263,0.986,0.263l0.559-0.066c0.494-0.132,0.953-0.461,1.249-0.92
				c0.296-0.559,0.263-1.117,0.165-1.577L67.84,301.128z"/>
			<path d="M76.521,288.57h-0.001c0-3.747,0-7.495-0.033-11.209c0-1.085-0.92-2.006-2.006-2.006s-2.006,0.919-2.006,2.006
				c0.033,3.714,0.033,7.462,0.033,11.209v1.315c-0.033,3.057-0.033,6.115,0.165,9.172c0.066,1.15,0.92,2.006,2.006,2.006
				c0.559,0,1.118-0.231,1.513-0.658c0.362-0.362,0.526-0.854,0.494-1.348c-0.165-3.057-0.165-6.115-0.165-9.172V288.57z"/>
			<path d="M85.263,274.468c0-0.495-0.098-1.021-0.592-1.447c-0.395-0.395-0.887-0.592-1.414-0.592
				c-0.559,0-1.051,0.197-1.446,0.592c-0.329,0.296-0.658,0.887-0.592,1.446l0.296,2.794c0.494,4.702,0.986,9.37,1.38,14.071
				c0.066,0.559,0.165,1.051,0.592,1.446c0.395,0.362,0.887,0.56,1.414,0.56c0.559,0,1.15-0.263,1.545-0.691
				c0.329-0.36,0.526-0.853,0.461-1.314C86.446,285.711,85.855,280.09,85.263,274.468z"/>
			<path d="M99.627,277.459c-0.194-2.434-0.425-4.899-0.721-7.332l-0.625-4.964l-0.592-4.767l-0.165-1.249
				c-0.066-0.625-0.197-1.183-0.691-1.709c-0.461-0.461-1.052-0.691-1.677-0.691c-0.625,0-1.216,0.231-1.677,0.691
				c-0.296,0.296-0.494,0.625-0.658,1.084c-0.066,0.395-0.066,0.821,0.033,1.282l0.296,2.105l0.23,1.742l-0.066-0.526l0.461,3.65
				l0.494,3.65c0.23,1.94,0.461,3.88,0.658,5.786l0.329,3.055c0.066,0.658,0.197,1.151,0.658,1.612
				c0.395,0.427,1.019,0.656,1.578,0.656c0.625,0,1.282-0.296,1.709-0.755c0.426-0.459,0.625-0.986,0.559-1.513L99.627,277.459z"/>
			<path d="M430.706,259.838c0.165-0.461,0.033-1.118-0.197-1.546c-0.296-0.427-0.757-0.788-1.742-0.985
				c-0.362,0-0.757,0.098-1.052,0.263c-0.494,0.296-0.691,0.656-1.051,1.611c-2.893,7.034-5.852,14.3-7.824,21.729
				c-0.263,1.084,0.362,2.203,1.446,2.5l0.494,0.132v-0.066c0.92,0,1.742-0.626,1.973-1.513c1.94-7.199,4.767-14.267,7.528-21.105
				L430.706,259.838z"/>
			<path d="M438.004,262.797c-0.36-0.625-0.887-1.018-2.235-1.282c-1.117,0-2.169,0.79-2.498,1.874l-1.052,3.813l-1.216,4.405
				c-0.461,1.612-0.92,3.189-1.348,4.8l-1.282,5.259c-0.395,1.612-0.724,3.288-1.019,4.965l-0.36,1.874
				c-0.263,1.15,0.263,2.564,1.709,2.992l0.559,0.132v-0.066c1.15,0,2.169-0.79,2.399-1.808l0.755-3.287l0.79-3.321
				c0.263-1.118,0.559-2.268,0.887-3.42l0.526-1.971c0.757-2.893,1.578-5.786,2.399-8.679l1.249-4.339
				C438.432,264.078,438.333,263.389,438.004,262.797z"/>
			<path d="M442.113,272.987c-0.296,0-0.691,0.099-1.052,0.263c-0.395,0.263-0.854,0.724-0.887,1.183
				c-0.724,4.273-1.611,8.547-2.531,12.754c-0.263,1.118,0.329,2.171,1.413,2.5l0.494,0.132v-0.066c0.823,0,1.775-0.526,1.973-1.513
				c0.92-4.208,1.808-8.415,2.498-12.656c0.099-0.526,0.132-1.052-0.165-1.611C443.559,273.514,443.099,273.185,442.113,272.987z"/>
			<path d="M249.437,420.692c-1.413,0-2.564,1.15-2.564,2.597c-0.165,10.684-0.23,21.401-0.132,32.086
				c0.033,1.38,1.118,2.465,2.465,2.465c1.315,0,2.399-1.085,2.432-2.465c0.099-6.411,0.165-12.822,0.23-19.231L252,423.291
				c0.033-0.691-0.23-1.315-0.724-1.809C250.785,420.955,250.128,420.692,249.437,420.692z"/>
			<path d="M259.07,419.277c-1.084,0-2.006,0.92-2.006,2.006c0.066,11.277,0.033,22.585-0.066,33.862
				c0,1.084,0.92,2.006,2.006,2.006c1.085,0,2.006-0.92,2.006-2.006c0.099-11.275,0.132-22.585,0.066-33.862
				C261.076,420.198,260.154,419.277,259.07,419.277z"/>
			<path d="M272.45,425.886c-1.084,0-2.006,0.919-2.037,2.169c-0.132,7.857-0.23,15.713-0.296,23.571
				c0,1.084,0.92,2.006,2.006,2.006c1.085,0,2.006-0.92,2.006-2.006c0.066-7.857,0.197-15.713,0.329-23.735
				C274.454,426.806,273.534,425.886,272.45,425.886z"/>
			<path d="M122.543,404.221c0.033,0.033,0.066,0.033,0.099,0.033v-0.099c1.085,0,2.136-0.098,3.945-0.296
				c1.15-0.099,2.366-0.231,3.386-0.79l1.052-0.592l1.085-0.854c0.526-0.395,0.986-0.92,1.446-1.447l0.724-0.887
				c0.592-0.658,1.117-1.479,1.775-2.86c0.395-0.821,0.658-1.611,0.854-2.399c0.329-1.183,0.428-2.531,0.461-3.681
				c0.132-1.808-0.428-3.486-0.92-4.767c-0.658-1.677-1.742-2.892-2.827-3.944c-0.986-1.018-2.136-1.808-3.386-2.399
				c-1.018-0.461-2.203-0.689-3.648-0.689h-1.052c-0.428-0.56-0.986-0.854-1.644-0.854c-0.757,0-1.414,0.098-2.86,0.329
				c-0.953,0.132-1.808,0.559-2.86,1.084c-0.658,0.329-1.381,0.79-2.203,1.513l-0.066-0.066l-0.986,0.985
				c-0.625,0.626-1.183,1.283-1.709,1.973c-0.559,0.724-1.019,1.513-1.447,2.335c-0.362,0.757-0.559,1.545-0.854,2.63
				c-0.165,0.821-0.23,1.742-0.296,2.761c-0.099,0.79-0.066,1.578-0.033,2.335h-0.099c0,0.033,0.033,0.066,0.033,0.099l0.197,0.953
				c0.099,1.084,0.362,2.105,0.755,3.09c0.263,0.79,0.658,1.546,1.216,2.204l0.887,1.117c0.329,0.329,0.689,0.626,1.018,0.889
				c0.691,0.492,1.381,0.887,2.169,1.248c1.644,0.724,3.452,0.889,5.162,0.955L122.543,404.221z M118.533,399.29
				c-0.526-0.263-1.052-0.559-1.578-0.887c-0.526-0.494-0.92-0.953-0.92-1.052l-0.11-0.206c-0.063-0.083-0.127-0.166-0.188-0.254
				c0.049,0.049,0.094,0.104,0.137,0.158l-0.498-0.948c-0.296-0.689-0.494-1.413-0.592-2.103c-0.066-1.249-0.033-2.465,0.132-4.438
				c0.121-0.464,0.244-0.909,0.54-1.656c0.103-0.261,0.227-0.56,0.382-0.908c0.329-0.656,0.788-1.314,0.986-1.545
				c0.592-0.689,1.216-1.315,2.465-2.3c0.494-0.329,1.052-0.626,1.578-0.889c0.329-0.098,0.658-0.23,1.051-0.296
				c0.033,0,0.066,0.032,0.066,0.066c0.395,0.559,0.953,0.854,1.644,0.854h0.033c0.854-0.066,1.677-0.099,2.959-0.197
				c0.658,0.032,1.183,0.164,1.742,0.36c0.662,0.317,1.274,0.685,1.504,0.948c0.127,0.085,0.25,0.173,0.374,0.263
				c0.011,0.003,0.021,0.005,0.028,0.005h0.013c-0.094-0.074-0.191-0.145-0.276-0.23c0.094,0.082,0.189,0.156,0.283,0.23h0.013
				c0.066,0,0.428,0.231,0.461,0.263c0.395,0.329,0.79,0.691,1.348,1.381c0.165,0.263,0.296,0.526,0.46,0.889
				c0.362,0.755,0.592,1.479,0.724,2.3c0.066,0.559,0.066,1.118,0.033,1.71c0,0.395-0.066,0.79-0.132,1.248
				c0,0-0.165,0.92-0.197,0.92c-0.165,0.79-0.461,1.578-0.658,1.907c-0.428,0.854-0.953,1.677-1.249,1.973
				c-0.658,0.821-1.38,1.512-2.169,2.203l-0.757,0.395c-0.428,0.132-0.953,0.296-1.413,0.36c-1.085,0.099-2.138,0.164-3.222,0.164
				c-0.79,0-1.611-0.032-2.432-0.098C120.242,399.784,119.388,399.553,118.533,399.29z"/>
			<path d="M114.094,415.498c-0.393-0.79-0.887-1.578-1.446-2.335c-0.854-1.183-2.136-2.171-3.78-2.926
				c-0.755-0.329-1.545-0.56-2.335-0.757l-0.854-0.132l-1.611-0.098c-0.461,0-0.92,0-1.348,0.066
				c-1.216,0.132-2.399,0.492-3.386,0.854c-0.854,0.296-1.446,0.985-1.545,1.841c-1.578,0.854-3.025,1.94-4.438,3.42
				c-0.526,0.493-0.92,1.183-1.709,2.563l-0.494,1.183c-0.263,0.625-0.461,1.282-0.691,2.103c-0.197,0.889-0.329,1.776-0.427,2.696
				l-0.099,1.183c-0.033,0.755,0,1.479,0.066,2.234c0.099,0.79,0.296,1.545,0.46,2.335c0.329,1.085,0.92,2.007,1.48,2.762
				c0.953,1.348,2.302,2.3,3.321,2.958c0.953,0.592,2.006,0.889,3.254,1.249c0.658,0.099,1.348,0.164,2.006,0.197
				c0.559,0,1.117,0,1.677-0.066c0.625-0.032,1.216-0.099,1.808-0.197c1.151-0.132,2.136-0.559,3.025-0.986
				c0.658-0.329,1.249-0.755,2.037-1.381c1.183-0.887,2.039-1.742,2.663-2.563c0.526-0.755,1.118-1.578,1.578-2.563
				c0.23-0.461,0.461-0.92,0.658-1.381c0.426-1.019,0.788-2.006,1.117-3.025c0.395-1.413,0.362-3.024,0.296-4.537
				C115.376,418.72,114.916,417.14,114.094,415.498z M111.301,422.992c-0.215,1.019-0.561,1.995-0.931,2.695
				c-0.124,0.326-0.253,0.654-0.384,0.986c0.044-0.108,0.087-0.232,0.131-0.351l-0.294,0.779c-0.395,0.79-0.854,1.479-1.348,2.234
				c-0.526,0.592-1.151,1.183-1.776,1.678c-0.689,0.492-1.38,0.953-2.103,1.314l-1.052,0.362c-0.46,0.066-0.887,0.098-1.348,0.132
				l-0.953,0.032c-0.526,0-1.084-0.066-1.644-0.098l-1.183-0.362c-0.493-0.23-0.953-0.492-1.446-0.788
				c-0.625-0.526-1.183-1.019-2.104-2.171c-0.329-0.79-0.559-1.513-0.79-3.057c-0.033-0.658,0-1.315,0.099-2.269
				c0.066-0.559,0.165-1.118,0.329-1.71c0.165-0.658,0.395-1.348,0.461-1.611c0.23-0.625,0.559-1.282,1.315-2.432
				c0.494-0.494,0.986-0.955,1.513-1.414c0.854-0.592,1.677-1.15,2.663-1.611c0.526-0.263,0.887-0.854,1.051-1.578l0.92-0.098
				c-0.033,0-0.033,0-0.066,0c0.021-0.003,0.04-0.005,0.061-0.008l-0.061-0.091c0.461-0.066,0.887-0.098,1.348-0.132l0.757-0.032
				c0.494,0,1.019,0.066,1.216,0.132c0.459,0.132,0.953,0.23,1.446,0.395c0.526,0.197,1.019,0.492,1.578,0.887
				c0.23,0.197,0.427,0.395,0.625,0.658c0.658,0.92,1.183,1.842,1.644,2.893c0.132,0.393,0.263,0.853,0.329,1.314
				C111.399,420.757,111.399,421.842,111.301,422.992z"/>
			<path d="M415.683,374.701c-0.92-1.742-2.399-3.288-4.339-4.504c-0.494-0.329-1.151-0.461-1.776-0.592
				c-0.461-0.887-1.348-1.413-3.123-1.446c-1.216,0-2.399,0.032-3.714,0.131c-1.216,0.099-2.335,0.395-3.518,0.691
				c-0.986,0.263-2.006,0.755-3.354,1.381c-1.282,0.559-2.564,1.348-3.582,2.234l-1.183,1.018c-0.722,0.658-1.38,1.381-1.973,2.105
				c-0.986,1.084-1.677,2.302-2.432,3.747c-0.362,0.691-0.625,1.414-1.151,2.762c-0.427,1.183-0.559,2.498-0.689,4.142
				c-0.099,0.92-0.033,1.808,0.132,2.86c0.132,0.887,0.263,1.776,0.559,2.695c0.494,1.644,1.578,3.157,3.123,4.373
				c1.644,1.381,3.747,2.039,5.391,2.465c0.887,0.197,1.841,0.362,2.794,0.428c0.691,0.066,1.381,0.098,2.037,0.098
				c0.823,0,1.611-0.032,2.432-0.197v0.099l1.315-0.263c0.854-0.197,1.709-0.428,2.531-0.724c0.625-0.231,1.249-0.494,1.874-0.755
				l0.823-0.329l1.644-0.823c0.92-0.492,1.973-1.018,2.761-1.775c0.823-0.757,1.644-1.578,2.302-2.5
				c0.691-1.018,1.315-2.006,1.842-3.09c0.263-0.56,0.493-1.118,0.722-1.678c0.197-0.625,0.296-1.117,0.296-1.545
				c0.099-0.592,0.165-1.183,0.296-2.498c0.099-1.052,0.197-2.137,0-3.189c-0.066-0.395-0.132-0.724-0.197-1.118
				c-0.165-0.592-0.395-1.183-0.658-1.776C416.504,376.311,416.109,375.489,415.683,374.701z M413.249,385.484
				c-0.119,0.503-0.264,0.924-0.387,1.005c-0.069,0.18-0.148,0.359-0.238,0.54l-0.099,0.263c-0.461,0.854-0.953,1.578-1.512,2.366
				c-0.494,0.56-0.986,1.085-1.578,1.578c-0.79,0.526-1.545,0.953-2.432,1.348c-0.263,0.165-0.559,0.297-1.315,0.626l-1.71,0.625
				c-1.249,0.428-2.564,0.691-3.944,0.821l-1.479,0.067c-0.395,0-0.757,0-1.151-0.033c-1.94-0.329-3.386-0.724-4.767-1.315
				c-0.461-0.23-0.854-0.461-1.611-1.052c-0.263-0.296-0.459-0.59-0.658-0.985c-0.263-0.79-0.494-1.546-0.625-1.907
				c-0.066-0.625-0.099-1.216-0.099-1.874c0-0.592,0.033-1.183,0.099-1.742c0,0,0.23-1.151,0.263-1.151
				c0.197-0.755,0.461-1.512,0.526-1.577c0.559-1.118,1.118-2.136,1.381-2.696c0.526-0.724,1.084-1.38,1.709-2.006
				c0.592-0.658,1.216-1.249,1.907-1.776c0.625-0.46,1.249-0.853,2.399-1.446c0.351-0.19,0.705-0.376,1.202-0.494
				c0.05-0.021,0.098-0.044,0.147-0.066c0.197-0.098,0.395-0.164,0.592-0.263c-0.132,0.066-0.296,0.132-0.428,0.197l1.15-0.493
				c0.724-0.263,1.447-0.428,2.663-0.592l0.428-0.032c0.032,0,0.131,0.066,0.131,0.098c0.296,0.296,0.79,0.625,1.48,0.625
				c0.033,0,0.033,0,0.066,0c0.427-0.032,0.854-0.098,1.282-0.164c0.296-0.033,0.625-0.033,0.92-0.033s0.625,0,0.92,0.033
				l0.327,0.125c0.09,0.011,0.184,0.02,0.264,0.038c-0.066,0-0.141-0.008-0.218-0.021l0.743,0.284
				c0.592,0.526,1.118,1.019,1.644,1.612c0.658,1.018,1.216,2.037,1.874,3.287c0.263,0.689,0.428,1.315,0.395,1.315
				C413.578,382.229,413.448,383.839,413.249,385.484z"/>
			<path d="M415.156,402.906l-0.461,1.019c-0.23,0.526-0.461,1.052-0.658,1.577c-0.23,0.724-0.395,1.513-0.46,2.302
				c-0.132,0.724-0.165,1.249-0.132,1.776c-0.033,0.821,0.033,1.775,0.23,2.761c0.164,1.018,0.361,2.039,0.821,2.926l0.658,1.183
				c0.395,0.526,0.854,1.018,1.381,1.479c0.36,0.297,0.722,0.56,1.117,0.821c0.526,0.329,1.052,0.592,1.611,0.823
				c1.512,0.658,3.221,1.018,4.964,1.018c1.874,0,3.78-0.427,5.457-1.15c2.663-1.183,4.965-3.057,6.707-5.457
				c0.526-0.689,1.052-1.447,1.413-2.368c0.362-0.919,0.658-1.841,0.887-2.827c0.23-1.118,0.494-2.268,0.625-3.452
				c0.099-1.018,0.165-2.039,0.197-3.057c0-0.592-0.033-1.15-0.066-1.71c-0.066-1.084-0.395-2.103-0.691-2.926
				c-0.395-0.985-0.887-1.94-1.775-3.32c-0.428-0.56-0.92-1.052-1.48-1.447c-0.428-0.428-0.986-0.724-1.578-0.854
				c-0.592-0.296-1.15-0.427-2.399-0.492c-0.395,0-0.724,0.066-1.052,0.23c-0.492,0.296-0.854,0.755-1.084,1.413
				c-0.329,0-0.625,0.033-0.92,0.066c-1.052,0.099-2.103,0.494-3.09,0.854c-2.169,0.79-3.944,2.236-5.819,3.78
				c-1.841,1.545-3.287,3.518-4.339,5.063L415.156,402.906z M417.753,408.594c0.066-0.419,0.148-0.824,0.342-1.41
				c0.096-0.289,0.218-0.622,0.382-1.022c0.395-0.724,0.821-1.413,1.216-2.006c0.428-0.559,0.854-1.052,1.315-1.578
				c0.658-0.755,1.413-1.413,2.696-2.498l0.823-0.625c0.625-0.494,1.38-0.889,2.465-1.348c0.625-0.23,1.249-0.427,2.728-0.625
				c0.722,0,1.446,0,2.268,0.032c0.427,0,0.887-0.164,1.249-0.459c0.033,0,0.033,0,0.066,0h0.033c0.033,0,0.066,0.066,0.066,0.098
				c0.512,0.754,0.935,1.553,1.468,2.776c0.026,0.05,0.052,0.1,0.077,0.151c0,0,0.033,0.032,0.033,0.066
				c0.003,0.021,0.007,0.038,0.011,0.058c0.081,0.19,0.165,0.388,0.252,0.599c0.164,1.479,0.164,2.86,0.066,4.307
				c-0.066,0.393-0.132,0.755-0.297,1.709c-0.296,1.249-0.658,2.434-1.117,3.617c-0.234,0.494-0.518,0.936-0.716,1.031
				c-0.029,0.04-0.058,0.082-0.089,0.12l-0.708,0.985c-0.658,0.755-1.381,1.38-2.039,1.874c-0.724,0.493-1.479,0.92-2.269,1.315
				c-0.724,0.261-1.413,0.46-2.202,0.656c-0.559,0.033-1.084,0.099-2.037,0.099c-0.165,0-0.329,0-0.494,0
				c-0.79-0.132-1.513-0.362-2.268-0.625c-0.592-0.263-1.151-0.592-1.71-0.955c-0.032,0-0.722-0.724-0.722-0.724l-0.395-0.821
				c-0.23-0.526-0.362-1.118-0.494-2.105C417.72,410.368,417.72,409.546,417.753,408.594z"/>
			<path d="M164.359,137.052c0.132,0.494,0.461,0.92,0.92,1.217c0.296,0.164,0.658,0.23,1.019,0.23c0.788,0,1.479-0.36,1.775-0.953
				c2.236-4.8,4.504-9.567,6.804-14.332l1.118-2.336c0.165-0.426,0.362-0.985,0.197-1.577c-0.132-0.461-0.494-0.92-0.92-1.216
				c-0.296-0.165-0.625-0.231-1.051-0.231c-0.79,0-1.447,0.362-1.743,0.953l-3.944,8.351l-3.979,8.318
				C164.391,135.902,164.194,136.462,164.359,137.052z"/>
			<path d="M174.615,132.45c-2.498,5.096-5.096,10.388-6.837,15.911c-0.23,0.854,0.197,1.874,0.953,2.335
				c0.296,0.165,0.689,0.263,1.084,0.263c0.79,0,1.513-0.395,1.776-1.018l1.611-3.549l2.235-4.899
				c1.48-3.255,3.057-6.475,4.635-9.699c0.296-0.656,0.362-1.216,0.23-1.775c-0.165-0.592-0.559-1.085-1.084-1.413
				c-0.362-0.197-0.724-0.263-1.151-0.263c-0.887,0-1.677,0.427-2.006,1.084L174.615,132.45z"/>
			<path d="M178.133,146.29l-1.611,4.702l-1.644,4.701c-0.92,2.696-1.775,5.424-2.465,8.185c-0.132,0.494-0.033,1.052,0.23,1.513
				c0.263,0.461,0.691,0.79,1.216,0.953l0.494,0.132v-0.066c0.92,0,1.742-0.625,1.973-1.479c0.658-2.597,1.512-5.16,2.498-8.185
				c1.051-3.123,2.137-6.279,3.222-9.402c0.165-0.461,0.099-0.953-0.132-1.413c-0.263-0.526-0.757-0.92-1.776-1.118
				C179.251,144.811,178.429,145.403,178.133,146.29z"/>
		</g>
	</g>
</g>
<g>
</g>
<g>
</g>
<g>
</g>
<g>
</g>
<g>
</g>
<g>
</g>
<g>
</g>
<g>
</g>
<g>
</g>
<g>
</g>
<g>
</g>
<g>
</g>
<g>
</g>
<g>
</g>
<g>
</g>
</svg>
