<?xml version="1.0" encoding="iso-8859-1"?>
<!-- Generator: Adobe Illustrator 19.0.0, SVG Export Plug-In . SVG Version: 6.00 Build 0)  -->
<svg version="1.1" id="Capa_1" xmlns="http://www.w3.org/2000/svg" xmlns:xlink="http://www.w3.org/1999/xlink" x="0px" y="0px"
	 viewBox="0 0 512 512" style="enable-background:new 0 0 512 512;" xml:space="preserve">
<g>
	<g>
		<path d="M495.751,252.597c3.408-4.299,9.56-10.809,9.846-16.683c0.208-4.268-2.073-7.182-5.872-8.645
			c-7.784-2.997-17.594-3.013-25.768-5.343c-3.687-1.051-7.322-2.232-10.926-3.484c9.96-10.568,18.034-24.563,25.577-36.416
			c6.367-10.004,14.892-23.751,11.859-36.304c-3.2-13.248-16.853-11.449-27.672-10.848c-14.484,0.805-30.947,1.99-44.734,7.609
			c6.498-22.205,9.444-45.094,13.453-67.834c0.822-4.665-3.471-8.119-7.808-6.003c-19.527,9.526-40.206,16.461-60.208,24.868
			c0.564-12.586-2.258-26.196-4.123-38.15c-1.732-11.096-4.092-29.443-17.036-33.425c-11.405-3.508-23.287,9.564-30.799,16.163
			c-8.775,7.708-20.541,17.011-27.114,27.648c-11.058-23.91-26.701-45.557-45.657-64.27c-1.915-1.891-5.369-2.055-7.264,0
			c-19.57,21.224-34.617,46.993-43.203,74.673c-9.485-8.344-22.191-13.777-33.248-19.071c-11.372-5.445-28.431-15.718-41.567-11.379
			c-11.031,3.643-7.274,22.75-6.708,31.309c0.75,11.322,1.596,25.982,7.112,36.76c-27.3-4.851-53.904-9.317-80.384-18.572
			c-4.558-1.593-7.803,3.89-5.871,7.637c12.549,24.347,17.25,51.16,24.693,77.195c-10.503-0.247-23.745,3.833-32.463,8.685
			c-8.525,4.745-8.64,12.96-6.118,21.409c5.118,17.146,16.737,33.521,32.813,41.846c-14.364,5.977-29.076,10.876-44.832,12.64
			c-4.746,0.532-7.075,5.511-3.84,9.271c14.574,16.942,32.612,30.59,52.67,39.978c-10.521,5.539-19.947,15.758-28.545,23.035
			c-7.261,6.146-17.722,11.945-13.256,22.798c4.131,10.039,15.891,15.119,25.319,18.736c10.743,4.122,24.647,8.794,36.608,8.094
			c-7.195,23.814-11.247,49.125-16.729,69.949c-0.968,3.678,2.664,8.221,6.674,6.674c22.831-8.81,47.188-10.845,70.942-15.998
			c0.678-0.147,1.386-0.303,2.086-0.457c-1.013,10.758,1.038,22.319,2.828,32.612c1.531,8.805,2.601,21.645,12.107,25.702
			c10.357,4.42,20.036-4.824,27.475-10.76c8.242-6.576,16.482-13.253,23.684-20.933c2.569,9.252,5.238,18.471,8.227,27.546
			c4.524,13.735,18.27,12.348,30.08,8.553c14.703-4.724,26.898-14.809,35.979-27.108c2.554-3.459,4.901-7.077,7.074-10.809
			c5.732,9.969,14.765,18.902,22.537,26.688c8.546,8.562,18.996,15.042,31.248,10.26c11.5-4.488,17.288-16.007,19.912-27.366
			c3.424-14.824,4.562-30.815,3.942-46.074c26.991,4.223,52.914,8.807,78.767,19.745c3.969,1.679,8.273-0.239,8.512-4.884
			c1.322-25.76,6.571-52.617-5.429-76.146c11.408-3.06,22.44-7.037,33.206-12.04c9.197-4.274,16.904-9.308,13.116-20.66
			c-3.415-10.224-12.343-18.022-19.583-25.525c-8.643-8.958-16.283-19.141-24.83-28.234c9.959-5.057,19.366-11.227,27.964-18.684
			C486.061,263.729,491.157,258.392,495.751,252.597z M460.486,147.03c6.143-0.504,12.314-0.831,18.474-0.984
			c8.844-0.219,11.617,3.408,9.042,12.068c-6.392,21.492-25.425,37.172-36.563,56.046c-16.398-6.376-32.379-13.544-49.281-17.539
			c11.509-11.62,18.53-30.766,23.402-45.934C437.209,150.757,448.89,147.98,460.486,147.03z M429.962,82.634
			c-2.474,19.454-6.203,38.97-11.961,57.646c-3.229,10.475-7.195,20.731-12.333,30.427c-4.368,8.243-10.752,15.509-14.973,23.762
			c-5.69-0.78-11.509-1.133-17.508-0.902c-16.223,0.623-34.032,4.563-49.79,12.089c11.327-9.298,23.231-17.848,36.112-25.352
			c2.83-1.649,0.324-5.89-2.558-4.377c-24.111,12.66-46.348,29.561-63.256,51.07c-0.947-3.56-2.312-7.002-4.182-10.132
			c20.682-15.69,39.187-38.218,51.47-60.87c0.949-1.751-1.474-3.867-2.877-2.22c-11.947,14.029-24.139,28.023-36.088,42.152
			c6.825-15.114,9.944-31.657,10.295-48.415c6.86-5.722,12.633-13.293,19.564-18.841c9.699-7.764,20.74-13.777,31.975-18.987
			C385.409,99.686,408.624,93.129,429.962,82.634z M317.598,55.902c3.829-3.432,7.748-6.753,11.715-10.025
			c3.221-2.657,10.914-11.225,14.799-11.739c18.602-2.463,16.372,46.617,18.265,64.26c-3.373,1.559-6.716,3.184-10.019,4.895
			c-12.134,6.285-30.458,16.553-40.394,29.826c-0.63-9.226-2.001-18.412-3.971-27.35c-2.453-11.13-5.903-21.894-10.183-32.273
			C305.122,68.971,311.307,61.54,317.598,55.902z M201.085,112.571c3.893-37.433,20.665-71.296,44.428-99.951
			c47.526,47.281,78.335,136.72,36.955,196.093c-2.607-2.008-5.519-3.443-8.599-4.484c7.314-15.218,11.743-31.995,9.516-48.94
			c-0.435-3.311-4.739-3.326-5.169,0c-2.12,16.403-4.3,32.142-10.095,47.466c-2.941-0.536-5.965-0.814-8.989-0.919
			c0.944-13.944,0.8-28.275,0.049-42.107c-0.206-3.787-5.47-3.699-5.822,0c-1.305,13.733-1.34,28.188,0.248,42.07
			c-1.529,0.029-3.043,0.083-4.53,0.151c-0.71,0.032-1.418,0.081-2.123,0.144c-1.628,0.016-3.238,0.192-4.824,0.488
			c-4.378-13.009-5.151-26.563-6.348-40.224c-0.265-3.02-4.663-3.112-4.768,0c-0.481,14.272,0.254,28.551,6.2,41.603
			c-2.224,0.839-4.359,1.931-6.349,3.277c-0.061,0.041-0.123,0.081-0.184,0.122c-0.493,0.339-0.977,0.692-1.451,1.059
			c-0.053,0.042-0.109,0.079-0.163,0.121c-2.097,1.644-3.99,3.579-5.645,5.736c-6.412-15.612-14.584-30.097-18.671-46.792
			C200.366,149.57,199.178,130.912,201.085,112.571z M284.897,259.34c3.938,11.373,6.822,21.848-6.022,28.466
			c-3.507,1.807-6.647,3.776-9.99,5.755c-4.65,2.753,0.19,2.668-8.65,2.515c-7.593-0.131-4.71-0.277-9.533-2.775
			c-8.431-4.366-17.312,2.171-26.027,0.089c-14.414-3.442-5.484-17.665-11.258-26.865c-3.279-5.224-6.619-9.21-6.021-15.984
			c0.773-8.759,7.564-14.921,15.589-17.22c1.442-0.413,2.929-1.665,3.213-3.213c1.194-6.5,4.144-11.425,8.173-14.775
			c7.698-4.52,17.635-4.02,26.726-2.864c12.893,1.639,20.72,7.816,22.818,21.017C285.31,242.261,281.952,250.834,284.897,259.34z
			 M127.368,58.974c0.043-0.23,0.095-0.459,0.158-0.688c0.991-3.621,2.675-2.661,5.755-2.061
			c23.31,4.535,42.454,18.927,61.757,31.773c-1.653,6.94-2.915,13.97-3.714,21.059c-1.273,11.286-1.352,22.701-0.342,34.019
			c-14.534-16.829-37.3-23.915-58.731-27.805c-0.321-0.058-0.64-0.115-0.961-0.173c0.575-9.213-2.27-19.04-2.947-28.132
			c-0.493-6.621-0.789-13.292-0.738-19.934C127.622,64.354,126.872,61.635,127.368,58.974z M51.023,109.2
			c22.102,7.891,44.723,11.872,68.122,15.352c26.109,3.883,50.42,10.149,71.122,27.32c0.538,0.446,1.171,0.654,1.808,0.692
			c0.772,5.293,1.772,10.551,3.039,15.746c4.332,17.765,11.442,38.304,24.956,51.371c-0.862,1.75-1.593,3.589-2.139,5.523
			c-0.732,0.239-1.425,0.548-2.13,0.835c-17.385-16.401-30.211-34.557-42.943-55.028c-1.334-2.145-5.071-0.793-4.219,1.779
			c7.286,21.991,23.666,41.768,42.489,55.559c-2.097,1.294-4.019,2.826-5.729,4.57c-11.903-16.185-30.359-28.142-48.7-35.374
			c-2.797-1.103-4.727,3.514-2.049,4.861c10.944,5.508,20.543,12.062,29.741,19.27c-20.049-6.218-44.501-2.938-62.813,2.771
			c-5.041,1.572-9.999,3.383-14.909,5.33c-0.357-0.448-0.771-0.877-1.307-1.252c-20.474-14.33-28.869-35.451-35.113-58.921
			C64.733,148.879,58.355,129.12,51.023,109.2z M38.305,216.042c-1.462-3.136-4.35-8.403-4.263-12.052
			c0.148-6.19,5.466-6.905,10.338-8.503c6.908-2.266,14.162-3.171,20.951-5.606c5.665,17.013,14.608,34.387,29.375,44.923
			c-9.968,4.398-19.808,9.147-29.753,13.561C54.282,238.93,44.445,229.217,38.305,216.042z M22.438,273.803
			c30.385-5.908,57.148-21.548,85.788-33.189c15.802-6.423,32.578-11.649,49.764-11.979c15.733-0.303,29.049,4.118,42.785,10.521
			c-0.914,1.715-1.705,3.524-2.255,5.49c-0.146,0.522-0.268,1.048-0.383,1.576c-9.969-8.546-24.225-12.654-36.824-8.176
			c-2.485,0.883-2.194,4.704,0.64,4.732c13.393,0.129,24.952,2.486,35.571,10.621c0.081,2.083,0.367,4.159,0.873,6.186
			c0.124,0.498,0.274,0.979,0.435,1.453c-15.108-1.966-31.831,2.058-44.177,10.529c-2.117,1.453-0.89,5.331,1.856,4.403
			c15.209-5.142,29.111-7.863,44.918-9.407c1.16,2.085,2.332,4.113,3.082,6.323c-4.845,1.394-9.574,6.189-13.663,8.649
			c-6.541,3.936-13.414,7.083-20.256,10.437c-2.641,1.294-0.689,4.997,1.895,4.495c8.107-1.576,15.861-5.206,22.605-9.94
			c3.154-2.214,7.633-5.063,10.217-8.595c-0.098,4.661,0.295,8.934,1.679,12.678c-30.979,18.513-62.893,30.322-99.839,25.938
			C74.72,312.701,44.897,297.131,22.438,273.803z M58.009,370.953c-7.858-1.974-22.964-4.961-27.566-12.548
			c-4.629-7.631,12.412-17.968,17.887-22.952c6.372-5.801,13.983-11.381,18.617-18.772c12.272,5.08,25.207,8.612,38.531,10.303
			c2.721,0.345,5.485,0.589,8.266,0.78c-14.152,12.663-23.293,30.124-29.931,49.122C75.868,373.285,66.471,373.079,58.009,370.953z
			 M133.622,437.925c-18.953,3.903-38.059,6.636-56.651,11.917c5.465-21.557,9.078-43.573,15.681-64.84
			c6.591-21.232,16.685-39.381,29.719-56.906c31.949,0.378,66.105-9.113,90.475-29.283c0.163,0.132,0.362,0.248,0.532,0.377
			c-7.469,5.956-14.208,12.946-20.996,19.58c-9.627,9.408-19.366,18.734-27.871,29.188c-2.106,2.588,1.116,5.92,3.691,3.691
			c10.176-8.813,19.353-18.681,28.837-28.221c6.998-7.038,14.456-13.871,20.868-21.503c0.065,0.027,0.13,0.053,0.194,0.082
			c-19.497,22.898-28.912,53.386-27.659,83.429c0.402,9.635,1.785,19.162,3.71,28.594c-0.905-0.085-1.897,0.068-2.933,0.555
			c-9.481,4.456-17.492,10.987-27.43,14.892C154.057,433.299,143.844,435.82,133.622,437.925z M189.507,476.907
			c-3.712,3.228-7.521,6.348-11.359,9.425c-5.219,4.185-7.506,8.175-14.034,5.583c-5.953-2.364-5.437-5.559-6.799-11.614
			c-0.985-4.377-1.824-8.782-2.533-13.211c-1.173-7.321-1.516-14.959-2.944-22.276c15.883-3.859,34.369-9.851,44.406-21.403
			c1.588,6.632,3.368,13.22,5.215,19.76c1.652,5.848,3.252,11.732,4.854,17.621C200.811,466.278,195.382,471.799,189.507,476.907z
			 M257.997,492.92c-6.662,4.366-23.273,13.492-29.828,5.129c-2.337-2.981-2.946-10.217-4.016-13.926l-4.016-13.926
			c-5.705-19.783-12.117-39.55-16.284-59.733c-7.953-38.523-0.132-74.167,21.193-106.469c2.455,0.355,4.958,0.407,7.382,0.211
			c1.135-0.092,2.317-0.416,3.497-0.738c-8.867,14.077-13.8,33.139-11.128,48.866c0.412,2.428,4.372,2.361,4.839,0
			c1.803-9.107,2.26-18.382,4.668-27.396c2.035-7.615,5.272-14.708,8.289-21.934c2.498,0.479,4.71,1.535,6.92,2.632
			c-3.847,14.681-5.957,31.317-3.537,45.841c0.406,2.435,4.642,2.5,4.984,0c1.965-14.355,2.496-28.974,3.851-43.475
			c2.414,0.839,4.559,1.073,6.532,0.897c3.559,13.501,4.592,27.234,8.193,40.779c0.755,2.838,4.651,2.031,4.88-0.66
			c1.161-13.689-3.3-28.315-7.934-41.584c3.032-1.458,5.757-3.751,8.636-5.983c16.59,29.932,26.867,60.308,25.512,95.288
			C299.327,430.371,287.805,473.388,257.997,492.92z M355.368,464.874c-1.293,10.451-2.961,27.721-14.436,32.162
			c-11.422,4.421-21.365-8.656-28.768-15.923c-5.622-5.519-11.012-11.68-17.365-16.427c8.274-16.395,13.282-34.719,15.478-53.014
			c9.822,12.313,29.033,18.735,43.018,20.928c1.201,0.188,2.396,0.373,3.592,0.559C356.842,443.773,356.674,454.316,355.368,464.874
			z M446.74,408.739c-0.453,10.993-1.043,21.982-1.609,32.971c-22.239-8.7-45.338-14.581-69.105-17.431
			c-13.556-1.626-27.697-1.852-40.583-6.863c-11.263-4.38-18.408-11.389-23.961-21.083c0.056-1.546,0.109-3.092,0.126-4.629
			c0.374-32.769-8.056-68.659-27.214-95.883c1.087-0.533,2.102-1.112,3.082-1.714c7.866,6.4,13.721,18.635,19.049,26.695
			c5.679,8.59,11.257,17.234,17.028,25.763c2.153,3.183,7.113,0.381,5.2-3.04c-6.613-11.823-14.097-23.018-22.163-33.901
			c-4.517-6.094-8.934-13.779-15.292-18.256c0.651-0.557,1.269-1.139,1.85-1.748c27.932,16.127,61.08,18.969,92.751,15.928
			c0.164,0.81,0.508,1.626,1.126,2.4c17.013,21.3,34.982,41.562,49.72,64.61C444.269,384.326,447.316,394.759,446.74,408.739z
			 M477.98,331.755c3.287,3.686,7.94,8.277,7.692,13.538c-0.249,5.313-7.41,6.701-12.179,8.698
			c-9.353,3.917-19.006,7.108-28.776,9.821c-13.343-21.172-29.445-42.206-47.247-59.661c16.271-2.393,32.257-6.653,47.203-13.206
			C453.128,306.183,466.587,318.982,477.98,331.755z M462.101,269.135c-15.547,10.595-33.194,17.522-51.501,21.638
			c-36.433,8.193-79.014,8.424-112.134-10.75c0.363-1.383,0.659-2.826,0.807-4.401c0.127-1.346,0.148-2.687,0.089-4.02
			c10.443,3.96,20.899,7.031,32.352,7.644c3.418,0.183,4.202-5.292,0.814-6.013c-11.245-2.394-22.744-4.117-33.871-7.12
			c-0.369-1.757-0.859-3.493-1.45-5.199c13.02-1.448,25.846-0.098,38.969-1.389c2.446-0.241,2.833-3.287,0.567-4.189
			c-12.691-5.053-27.561-3.053-40.917,0.38c-0.279-1.566-0.432-3.085-0.509-4.6c13.734-6.502,27.334-10.637,42.428-14.272
			c2.904-0.699,2.259-5.189-0.7-5.175c-14.491,0.066-29.263,4.993-41.754,12.742c0.035-1.499,0.071-3.039,0.067-4.68
			c-0.003-1.011-0.037-2.03-0.1-3.054c12.517-9.156,24.599-18.306,39.16-24.195c15.267-6.174,31.827-9.052,48.277-8.283
			c20.07,0.938,38.178,8.635,56.419,16.365c8.152,3.453,16.334,6.807,24.753,9.563c7.965,2.607,18.966,7.202,27.45,6.705
			c0.754,0.337,1.37,0.567,1.896,0.728c-0.801,1.255-1.59,2.518-2.444,3.739c-2.264,3.221-4.73,6.289-7.356,9.221
			C477.104,257.569,469.916,263.809,462.101,269.135z"/>
	</g>
</g>
<g>
</g>
<g>
</g>
<g>
</g>
<g>
</g>
<g>
</g>
<g>
</g>
<g>
</g>
<g>
</g>
<g>
</g>
<g>
</g>
<g>
</g>
<g>
</g>
<g>
</g>
<g>
</g>
<g>
</g>
</svg>
