<?xml version="1.0" encoding="iso-8859-1"?>
<!-- Generator: Adobe Illustrator 19.0.0, SVG Export Plug-In . SVG Version: 6.00 Build 0)  -->
<svg version="1.1" id="Layer_1" xmlns="http://www.w3.org/2000/svg" xmlns:xlink="http://www.w3.org/1999/xlink" x="0px" y="0px"
	 viewBox="0 0 512 512" style="enable-background:new 0 0 512 512;" xml:space="preserve">
<g>
	<g>
		<path d="M479.875,74.621c-1.283-4.271-2.42-8.994-5.017-12.732c-1.232-1.772-2.821-3.047-4.031-4.856
			c-1.409-2.106-3.155-3.753-4.992-5.505c-3.693-3.522-7.698-6.848-12.46-8.809c-5.346-2.202-11.633-2.06-17.307-1.471
			c-5.984,0.621-12.19,2.37-17.343,5.519c-2.604,1.591-4.008,4.018-6.311,5.922c-2.344,1.938-4.194,3.766-6.125,6.169
			c-2.387,2.97-3.934,5.792-5.127,8.852c-0.311,0.607-0.601,1.212-0.866,1.812c-1.984,4.485-3.066,9.439-3.644,14.29
			c-0.669,5.614,0.991,11.225,2.382,16.651c2.576,10.043,11.748,18.262,20.71,22.658c10.193,5.001,22.456,4.18,33.257,1.943
			c5.124-1.061,11.238-2.461,15.529-5.654c3.974-2.958,7.249-8.625,9.439-12.988c2.44-4.861,2.737-9.69,3.478-14.978
			C482.273,85.541,481.555,80.213,479.875,74.621z M474.461,96.443c-0.412,5.326-2.989,9.239-5.919,13.633
			c-3.089,4.632-6.775,6.34-12.093,7.958c-9.613,2.926-19.416,3.582-29.298,1.834c-8.828-1.561-17.9-9.47-22.036-17.24
			c-1.332-2.502-1.656-5.274-2.268-7.998c-0.599-2.665-1.676-5.17-1.657-7.938c0.013-1.632,0.174-3.358,0.437-5.102
			c0.399-1.071,0.836-2.137,1.224-3.268c1.79-5.229,2.676-10.132,6.221-14.575c2.338-2.929,4.803-5.106,7.651-7.46
			c1.647-1.361,2.656-2.773,4.221-3.962c0.346-0.221,0.686-0.453,1.024-0.683c0.12-0.07,0.229-0.145,0.356-0.214
			c2.518-1.353,5.06-2.299,7.861-2.887c9.978-2.095,19.576-2.539,27.857,4.258c3.305,2.713,6.114,5.577,8.369,9.151
			c0.88,1.395,2.089,1.878,3.13,3.045c0.961,1.078,1.612,2.997,2.174,4.314c1.583,3.707,3.426,8.69,3.827,12.722
			C476.033,86.934,474.833,91.622,474.461,96.443z"/>
	</g>
</g>
<g>
	<g>
		<path d="M66.899,326.378c-4.873-8.511-11.576-15.52-21.324-18.326c-9.711-2.794-20.857-1.506-29.742,3.378
			c-9.281,5.102-13.837,16.174-14.762,26.157c-0.238,2.574-1.272,4.601-1.036,7.294c0.219,2.503,0.914,5.038,1.434,7.492
			c0.666,3.143,1.495,6.226,3.368,8.535c0.442,1.023,0.914,2.033,1.42,3.018c8.585,16.754,33.204,23.807,49.36,13.855
			C72.834,367.172,76.645,343.402,66.899,326.378z M66.032,348.158c-0.538,8.99-3.7,16.674-10.696,22.421
			c-12.712,10.442-33.889,6.159-43.181-6.783c-6.865-9.562-7.971-21.09-4.335-32.114c1.68-5.095,5.677-12.053,10.368-14.937
			c13.018-8.004,33.705-4.07,41.344,9.285C63.554,333.062,66.53,339.848,66.032,348.158z"/>
	</g>
</g>
<g>
	<g>
		<path d="M283.395,62.53c-0.066-2.767-0.17-5.348-1.448-7.865c-1.256-2.477-2.968-5.257-4.711-7.418
			c-1.986-2.464-4.091-2.981-6.916-4.037c-6.027-2.254-12.961-2.726-18.95,0.404c-6.019,3.146-9.5,9.485-11.667,15.671
			c-1.244,3.551-1.57,7.634-1.188,11.362c0.11,1.067,0.264,2.162,0.549,3.214c0.206,0.756,0.478,1.489,0.85,2.174
			c0.637,1.169,2.421,1.972,2.966,2.812c2.63,4.051,6.878,7.45,11.272,9.146c6.065,2.343,11.898,0.913,17.599-1.736
			c5.91-2.747,8.754-7.674,10.989-13.602C283.948,69.456,283.475,65.869,283.395,62.53z M277.791,67.521
			c-0.105,3.018-1.751,5.119-2.834,7.829c-1.382,3.461-3.696,4.948-7.037,6.392c-6.553,2.833-11.377,2.101-16.993-2.199
			c-5.64-4.319-7.481-9.948-6.455-15.572c0.682-3.74,2.632-7.478,5.575-10.826c1.147-1.305,1.885-3.115,3.154-4.23
			c5.07-4.456,16.916-1.976,20.555,3.234c1.3,1.86,3.113,4.373,3.691,6.589C278.138,61.387,277.885,64.802,277.791,67.521z"/>
	</g>
</g>
<g>
	<g>
		<path d="M54.439,237.101c-0.554-3.375-2.757-6.247-4.494-9.098c-1.439-2.363-2.819-4.548-5.184-6.091
			c-2.325-1.517-5.196-3.071-7.787-4.072c-2.951-1.142-5.032-0.538-8.008-0.042c-6.348,1.059-12.59,4.114-16.214,9.818
			c-3.642,5.732-3.491,12.962-2.277,19.403c0.772,4.097,1.926,6.614,4.338,8.91c0.9,0.857,1.975,1.683,3.271,2.549
			c4.414,2.951,12.129,6.649,17.585,6.384c6.959-0.338,12.229-5.059,16.046-10.489C55.462,249.041,55.464,243.353,54.439,237.101z
			 M46.139,252.375c-4.261,5.728-8.806,7.504-15.818,6.585c-13.466-1.765-18.151-16.478-12.734-27.918
			c0.269-0.569,0.596-1.122,0.971-1.651c3.682-5.201,12.06-8.278,17.851-5.566c2.056,0.963,4.881,2.234,6.489,3.864
			c1.922,1.949,3.41,5.035,4.686,7.438c1.416,2.668,1.041,5.309,1.456,8.197C49.572,247.012,48.31,249.455,46.139,252.375z"/>
	</g>
</g>
<g>
	<g>
		<path d="M508.926,343.079c-0.903-1.508-1.405-3.079-2.721-4.314c-1.687-1.583-4.075-2.598-6.022-3.795
			c-4.378-2.695-9.437-3.852-14.322-5.335c-6.186-1.878-12.763-2.323-19.325-2.728c0.505-0.379,1.004-0.765,1.493-1.164
			c2.322-1.894,3.593-4.292,5.384-6.623c4.182-5.444,8.164-10.845,11.78-16.698c1.724-2.791,3.718-5.388,5.473-8.154
			c1.942-3.059,3.357-6.425,5.285-9.48c2.391-3.791,4.936-9.397,1.962-13.625c-3.34-4.751-9.851-3.099-14.515-1.549
			c-6.669,2.215-12.678,6.085-19.668,7.487c-2.187,0.438-4.595,0.688-6.925,1.168c0.479-6.247-0.487-12.694-2.612-17.985
			c-1.928-4.803-4.606-9.052-7.097-13.56c-1.388-2.512-3.052-4.694-4.551-7.121c-1.63-2.639-2.491-5.488-4.379-8.004
			c-3.347-4.46-7.03-8.69-10.048-13.389c-3.413-5.313-6.248-11.017-8.969-16.707c-2.737-5.724-4.337-11.955-7.031-17.744
			c-2.605-5.596-5.232-10.839-8.705-15.965c-3.269-4.826-6.931-9.03-10.975-13.206c-4.57-4.721-8.635-9.33-14.582-12.326
			c-10.905-5.495-21.322-10.507-33.32-13.305c-7.706-1.797-15.735-3.642-23.673-3.753c-7.749-0.108-15.509,0.062-23.26,0.024
			c-7.434-0.035-14.686,1.092-22.084,1.487c-7.302,0.389-14.501,1.472-21.658,2.966c-14.943,3.118-29.647,7.734-43.461,14.279
			c-6.374,3.021-13.251,5.403-19.264,9.073c-2.695,1.645-5.544,3.206-8.143,4.98c-0.23,0.157-0.454,0.322-0.677,0.489
			c0.509-7.942,1.677-15.827,3.322-23.357c0.848-3.886,1.45-7.795,2.195-11.7c0.986-5.171,2.851-10.132,3.759-15.317
			c1.291-7.371,2.273-15.774,0.93-23.158c-1.421-7.804-5.399-15.514-10.162-21.819c-2.032-2.69-5.081-4.4-7.566-6.627
			c-3.099-2.779-6.182-3.689-9.892-5.353c-6.596-2.958-13.94-5.481-21.027-6.973c-8.391-1.767-17.608-4.232-26.22-2.961
			c-8.251,1.219-16.876,2.157-24.652,5.318c-3.486,1.417-6.855,3.113-10.347,4.522c-3.523,1.421-6.697,2.415-9.837,4.707
			c-3.03,2.211-6.321,4.018-9.306,6.265c-3.169,2.385-5.839,5.316-8.68,8.064c-2.528,2.446-3.941,5.566-5.831,8.5
			c-2.273,3.529-4.004,7.741-5.132,11.777c-1.999,7.15-3.782,15.149-1.693,22.51c1.011,3.564,1.817,7.262,3.68,10.463
			c1.998,3.434,4.353,6.099,6.986,9.052c5.535,6.205,12.496,9.684,19.636,13.714c7.312,4.126,16.267,6.081,24.639,6.937
			c-0.913,1.997-1.934,3.929-2.244,6.273c-0.592,4.48,0.514,8.813,0.566,13.25c0.11,9.615,0.821,18.985,2.643,28.465
			c3.781,19.68,9.956,39.792,18.544,57.926c1.711,3.612,4.458,7.535,6.995,10.629c2.755,3.358,5.288,6.967,8.128,10.252
			c2.602,3.008,5.993,5.183,8.686,8.131c1.686,1.846,3.199,3.782,4.612,5.795c-12.018,10.804-17.606,27.064-22.906,42.009
			c-3.339,9.414-6.841,18.369-7.883,28.401c-0.974,9.369-0.674,19.708,0.399,29.05c0.921,8.017,1.912,18.534,7.944,24.47
			c6.343,6.241,15.524,9.25,23.705,12.029c4.194,1.425,8.216,2.245,12.634,2.647c4.442,0.405,8.789-1.292,12.862-2.892
			c8.357-3.283,12.371-8.468,15.384-16.772c1.666-4.591,2.773-9.347,4.406-13.961c1.738-4.912,3.897-10.041,5.041-15.106
			c1.081-4.792,2.3-9.843,3.102-14.656c0.248-1.489,0.453-3.102,0.622-4.694c3.269,1.535,6.612,2.821,10.131,3.802
			c2.526,0.704,5.042,1.454,7.667,1.692c3.07,0.279,6.109-0.134,9.187,0.258c0.009,0.001,0.016,0,0.025,0.001
			c0.516,4.758,1.243,9.468,2.229,14.038c2.458,11.388,6.831,22.625,11.447,33.263c2.431,5.601,4.48,11.411,6.804,17.074
			c2.626,6.399,6.002,12.003,9.909,17.72c3.386,4.954,6.478,10.345,11.593,13.717c4.742,3.126,10.733,4.82,16.36,5.188
			c6.335,0.415,13.988-1.305,19.956-3.37c5.942-2.056,12.078-4.217,17.79-6.845c9.849-4.532,18.143-13.285,21.506-23.602
			c3.818-11.71-0.535-25.445-4.936-36.348c-1.19-2.949-2.488-5.847-3.862-8.706c1.579,0.387,3.168,0.745,4.703,0.987
			c7.859,1.237,16.343,0.692,24.152-0.563c7.739-1.243,15.038-2.505,22.288-5.615c4.065-1.744,9.982-3.175,13.501-6.463
			c2.681,4.729,5.375,9.463,8.845,13.584c3.393,4.03,7.528,7.374,11.387,10.936c3.693,3.408,7.454,6.656,12.231,8.432
			c9.367,3.483,22.142,3.88,31.369-0.223c9.815-4.363,18.211-9.138,25.572-17.038c7.059-7.574,12.603-16.297,17.364-25.463
			c1.839-3.541,3.785-8.353,4.16-12.326C512.327,352.208,512.14,348.444,508.926,343.079z M406.073,195.273
			c3.145,7.379,6.148,14.774,10.273,21.778c2.725,4.627,5.722,8.907,9.08,13.092c1.589,1.98,3.227,3.927,4.781,5.936
			c0.712,0.921,1.265,1.846,1.766,2.784c-4.604,1.594-8.298,4.524-11.506,8.074c-1.073-5.079-3.269-9.721-5.677-14.359
			c-2.581-4.971-5.217-9.385-9.853-12.862c-2.707-2.032-5.393-4.094-8.215-5.92c0.675-1.219,1.109-2.426,1.304-4.334
			c0.453-4.406,0.914-9.324,4.592-12.385C403.322,196.489,404.634,195.915,406.073,195.273z M334.473,281.699
			c2.377-6.391,4.779-13.408,5.763-20.173c0.064-0.441,0.115-0.887,0.174-1.33c1.982-6.75,3.769-13.601,6.928-19.866
			c4.609-9.144,12.481-20.164,22.64-23.602c4.775-1.616,11.499-2.357,16.321-0.638c5.176,1.845,9.399,5.416,13.73,8.691
			c4.318,3.267,6.81,7.817,9.142,12.532c0.937,1.896,1.701,4.092,2.516,6.055c1.175,2.831,1.132,5.941,2.941,8.456
			c0.31,0.43,0.725,0.766,1.193,1.014c-0.981,1.399-1.93,2.832-2.861,4.267c-6.096,9.387-13.57,20.825-24.744,24.548
			c-5.767,1.922-11.933,0.819-17.283-1.588c-5.242-2.358-11.034-2.279-16.51-0.804c-4.954,1.334-9.561,3.716-14.142,5.971
			c-2.719,1.338-5.461,3.012-8.283,4.463C332.894,286.968,333.567,284.134,334.473,281.699z M327.592,278.145
			c-0.766,2.144-1.26,4.284-1.954,6.358c-0.743,2.218-1.778,6.367-3.253,8.079c-0.097,0.112-0.163,0.227-0.244,0.342
			c-5.752,0.422-11.099-3.045-15.047-7.056c-2.44-2.479-4.003-5.828-5.907-8.725c-1.781-2.712-3.433-5.435-4.823-8.369
			c-2.003-4.227-4.053-8.483-6.424-12.512c-2.722-4.627-6.864-7.785-10.914-11.172c-3.812-3.189-8.582-4.437-12.944-6.753
			c-4.096-2.176-8.466-3.499-12.907-4.708c1.413-1.035,2.752-2.182,4.117-3.275c2.283-1.829,4.634-3.277,6.28-5.765
			c3.264-4.937,6.736-9.824,9.152-15.274c2.464-1.321,5.191-2.465,7.796-3.193c6.51-1.817,12.766-1.737,19.453-1.661
			c5.78,0.066,13.41,2.907,18.218,6.267c4.653,3.25,8.326,9.357,10.652,14.397c2.596,5.626,4.352,11.536,4.283,17.788
			c-0.065,5.85,0.666,12.348-0.547,18.094C331.368,266.743,329.562,272.623,327.592,278.145z M388.54,165.763
			c1.762,1.891,3.453,3.846,4.965,5.965c3.306,4.635,6.027,9.23,8.475,14.358c0.426,0.893,0.832,1.793,1.241,2.691
			c-0.738,0.394-1.446,0.782-2.08,1.106c-3.278,1.678-5.625,4.721-7.081,8.052c-1.495,3.421-2.256,7.785-1.99,11.524
			c0.041,0.572,0.067,1.147,0.103,1.717c-1.38-0.691-2.801-1.312-4.29-1.818c-5.472-1.86-12.78-1.146-18.282,0.383
			c-12.338,3.43-20.786,14.69-26.858,25.206c-0.235,0.408-0.455,0.833-0.68,1.253c0.402-1.178,0.712-2.391,0.969-3.556
			c0.893-4.041,1.702-7.818,2.937-11.806c1.357-4.383,2.177-8.894,4.012-13.124c1.906-4.394,4.236-8.776,6.721-12.867
			c4.5-7.408,9.703-14.545,16.643-19.788c3.39-2.561,6.772-5.475,10.554-7.431C385.274,166.92,386.945,166.398,388.54,165.763z
			 M323.155,153.774c2.058-5.717,3.224-11.452,3.302-17.332c9.295,0.991,18.618,3.4,27.355,6.284
			c9.74,3.214,20.767,8.638,27.908,16.033c0.886,0.917,1.782,1.822,2.678,2.727c-1.306,0.571-2.598,1.172-3.845,1.866
			c-4.212,2.34-8.05,5.715-11.891,8.612c-2.05,1.546-3.937,3.312-5.696,5.216c-0.73,0.27-1.447,0.589-2.182,0.913
			c-2.748,1.213-5.246,2.018-8.256,2.378c-5.02,0.598-10.658-1.212-15.073-3.879c-5.582-3.373-10.401-6.144-12.807-12.618
			c-1.178-3.168-1.447-6.34-1.721-9.569C323.002,154.193,323.08,153.982,323.155,153.774z M334.258,180.612
			c3.271,2.05,6.22,3.613,10.004,4.513c2.301,0.547,5.258,1.678,7.578,1.379c1.369-0.177,2.965-0.481,4.527-0.896
			c-1.339,1.956-2.613,3.942-3.844,5.905c-5.059,8.072-8.511,16.518-11.01,25.657c-1.142,4.174-2.568,8.077-3.1,12.367
			c-1.056-3.533-2.436-6.954-4.203-10.192c-2.881-5.279-7.296-11.469-12.455-14.716c-2.774-1.746-5.977-2.7-9.008-3.878
			c-3.718-1.445-7.06-2.863-11.113-2.921c-7.882-0.111-15.006,0.932-22.449,3.447c-1.566,0.53-3.091,1.203-4.553,1.993
			c0.024-0.12,0.035-0.243,0.058-0.364c2.84-1.389,5.776-2.299,8.693-3.585c3.05-1.346,5.976-3.118,8.739-5.023
			c7.676-5.295,14.451-12.181,20.351-19.351c2.896-3.521,5.249-7.908,7.222-12.388c0.43,1.853,1.092,3.673,1.731,5.304
			C323.808,173.953,328.972,177.299,334.258,180.612z M243.408,143.116c24.311-6.609,48.877-7.032,73.881-7.159
			c1.222-0.007,2.449,0.026,3.677,0.078c0.057,0.77,0.103,1.548,0.089,2.331c-0.08,4.246-1.492,8.544-2.889,12.518
			c-2.758,7.85-6.122,16.387-11.566,22.757c-5.453,6.382-11.615,13.581-19.003,17.792c-2.954,1.682-5.528,3.789-8.671,5.159
			c-1.43,0.624-2.605,1.143-3.685,1.764c0.105-1.89,0.074-3.776-0.105-5.606c-0.264-2.709-0.259-5.71-0.979-8.353
			c-0.86-3.163-2.374-6.308-3.524-9.388c-4.131-11.071-12.285-19.438-23.004-24.201c-4.601-2.044-8.409-3.779-13.544-4.57
			c-0.157-0.024-0.318-0.057-0.476-0.085C236.832,145.045,240.09,144.017,243.408,143.116z M192.186,164.035
			c5.133-3.137,10.461-5.171,15.94-7.577c5.633-2.474,11.245-4.909,16.931-7.145c1.849,0.415,3.615,1.014,5.561,1.412
			c2.511,0.512,5.038,0.831,7.492,1.627c2.177,0.707,3.707,1.871,5.684,2.917c4.109,2.174,8.062,4.1,11.391,7.481
			c4.481,4.55,7.334,9.669,9.452,15.647c0.912,2.573,2.289,5.177,2.914,7.823c0.522,2.213,0.556,4.806,0.759,7.077
			c0.478,5.354-0.634,10.443-2.922,15.253c-1.169,2.459-2.489,4.473-4.176,6.609c-1.512,1.914-2.276,4.242-3.769,6.138
			c-3.004,3.813-8.12,5.613-10.814,9.757c-0.177,0.273-0.288,0.546-0.365,0.819c-4.272-1.013-8.819-2.224-11.744-5.071
			c-4.387-4.271-4.862-9.534-6.608-15.03c-3.916-12.328-12.466-21.474-22.498-29.212c-4.322-3.334-9.085-5.374-13.633-8.14
			c-2.45-1.489-5.446-3.357-8.507-4.373C186.326,168.199,189.153,165.889,192.186,164.035z M189.517,179.219
			c2.144,1.502,4.558,2.268,6.651,3.834c2.283,1.707,4.525,3.434,6.661,5.325c9.181,8.126,16.014,17.243,18.621,29.367
			c1.028,4.782,2.626,9.462,5.886,13.191c4.315,4.935,8.972,6.058,15.139,7.584c5.272,1.304,10.778,2.121,15.962,3.727
			c2.512,0.778,4.801,2.134,7.189,3.206c2.913,1.309,6.309,2.223,8.809,4.23c4.18,3.356,7.873,6.422,10.554,11.093
			c2.872,5.004,5.093,10.349,7.937,15.371c5.276,9.322,11.535,19.569,22.462,22.969c11.206,3.486,21.899-4.384,31.492-8.951
			c5.343-2.544,11.29-5.237,17.342-4.292c2.801,0.437,4.912,2.037,7.526,2.95c2.69,0.939,5.895,1.045,8.722,1.271
			c12.96,1.038,23.844-7.833,31.09-17.722c3.782-5.161,7.539-10.326,11.362-15.457c1.769-2.372,3.617-4.713,5.673-6.848
			c2.209-2.294,4.473-3.224,7.304-3.975c4.832,7.655,11.632,15.56,11.688,24.798c0.03,4.888,0.19,10.424-2.216,14.813
			c-2.06,3.756-7.722,9.375-12.106,8.934c-2.36-0.237-4.82-1.111-7.285-1.259c-2.544-0.153-5.035,0.413-7.54,0.808
			c-5.484,0.864-10.289,2.788-15.323,5.103c-4.067,1.87-8.81,4.494-12.278,7.288c-4.873,3.926-10.262,8.7-16.488,10.319
			c-5.773,1.501-11.8-0.37-17.485-1.483c-5.407-1.059-10.029,0.396-15.34,1.293c-2.787,0.471-5.414,0.631-8.123,1.468
			c-2.912,0.9-5.865,1.801-8.859,2.394c-2.896,0.574-6.14,1.414-9.088,1.377c-2.725-0.034-5.815-0.676-8.539-0.974
			c-10.84-1.186-20.959-7.199-28.11-15.304c-4.161-4.716-7.653-10.117-10.647-15.61c-2.669-4.896-5.497-10.353-9.192-14.565
			c-3.893-4.438-9.312-8.053-14.198-11.331c-2.649-1.778-5.318-3.666-8.244-4.951c-2.711-1.19-5.466-1.998-8.105-3.362
			c-5.132-2.655-11.039-5.216-15.299-9.218c-4.753-4.465-8.765-9.758-11.801-15.365c-1.049-1.939-2.133-3.862-3.216-5.783
			c-1.534-3.211-3.213-6.338-4.693-9.556c-3.644-7.917-6.871-16.298-8.824-24.812c-1.28-5.576-2.033-11.347-2.357-17.189
			C184.788,175.545,187.22,177.61,189.517,179.219z M166.733,224.979c-2.38-5.528-3.159-9.895,0.327-15.323
			c0.465-0.586,0.95-1.154,1.444-1.699c0.624-0.688,1.488-1.676,2.492-2.717c1.287-1.081,2.692-2.031,4.167-2.86
			c0.98-0.551,2.538-1.571,3.973-2.251c0.248-0.002,0.494,0.012,0.736,0.055c0.199,0.546,0.399,1.091,0.604,1.636
			c1.456,3.87,2.981,7.599,4.681,11.241c0.369,1.524,0.785,3.032,1.438,4.37c0.155,0.318,0.429,0.676,0.678,1.027
			c-0.032,0.236,0.088,0.955,0.153,1.266c0.52,2.539,2.306,5.297,3.299,7.746c1.085,2.679,2.781,5.026,3.993,7.651
			c1.258,2.723,2.336,5.379,4.105,7.827c1.87,2.589,3.947,5.306,6.228,7.786c-0.837,0.87-1.547,2.057-2.242,2.777
			c-1.873,1.939-4.434,3.426-6.765,4.765c-4.378,2.514-10.277,5.01-15.37,3.204c-3.649-1.294-7.255-4.948-9.25-8.165
			C165.817,244.274,170.726,234.254,166.733,224.979z M174.51,165.419c-0.214,0.785-0.19,1.611,0.03,2.396
			c0.037,2.502,0.089,5.002,0.114,7.49c0.025,2.558,0.242,5.073,0.601,7.557c-0.161-0.047-0.329-0.089-0.508-0.113
			c-8.095-1.055-17.776-5.53-17.639-15.276c0.121-8.574,7.193-13.622,10.459-20.794c2.554-5.606-1.233-10.486-1.544-16.032
			c-0.24-4.253,0.592-8.063,4.049-10.776c1.691-1.327,3.421-1.869,5.426-2.317c-0.81,0.181,3.26-0.402,4.949-0.85
			c-0.504,2.507-0.984,5.027-1.343,7.589c-1.115,7.976-2.596,15.894-3.733,23.873C174.562,153.862,174.457,159.643,174.51,165.419z
			 M150.3,55.286c2.668,0.885,5.384,1.68,8.011,2.637c2.672,0.974,6.171,2.129,8.561,3.63c6.373,4.002,10.448,9.878,13.708,16.514
			c1.572,3.2,2.839,6.506,3.3,10.077c0.111,0.856,0.156,1.698,0.159,2.531c-0.385,0.204-0.733,0.534-0.994,1.037
			c-2.757,5.314-11.934,10.654-17.832,10.646c-6.162-0.009-11.013-3.684-11.936-9.882c-0.371-2.495,0.002-5.01-0.731-7.472
			c-1.698-5.701-8.256-7.049-9.964-12.558c-0.452-1.458-0.626-2.834-0.589-4.142c0.498-1.875,1.29-3.73,1.89-5.664
			c0.163-0.523,0.353-1.018,0.559-1.495c1.127-1.735,2.538-3.355,4.022-4.907C149.035,55.871,149.64,55.543,150.3,55.286z
			 M124.932,50.028c3.184,0.298,6.385,0.719,9.569,1.255c-4.156,6.239-10.501,12.06-18.597,9.202
			c-3.692-1.304-5.377-4.824-7.178-8.106c-0.092-0.301-0.175-0.594-0.241-0.87C113.947,50.349,119.696,49.538,124.932,50.028z
			 M64.754,73.037c2.526-2.516,5.075-4.326,8.083-6.194c2.982-1.853,5.515-4.462,8.758-5.851c0.834,1.913,2.298,3.717,2.844,5.688
			c1.564,5.649-0.562,12.144-3.594,16.887c-2.609,4.081-10.476,8.063-15.369,5.745c-4.656-2.205-4.509-6.914-5.162-11.222
			C61.694,76.314,63.171,74.614,64.754,73.037z M128.376,342.809c1.226-3.486,2.449-6.969,3.696-10.442
			c1.187,3.126,3.07,6.023,5.463,8.355c2.267,2.207,5.312,3.107,7.902,4.816c4.025,2.654,6.361,7.297,6.017,12.185
			c-0.434,6.175-6.394,18.916-14.406,14.285c-4.589-2.652-8.953-6.483-14.353-5.977C123.024,357.937,125.709,350.39,128.376,342.809
			z M183.594,395.607c-1.25,3.683-2.366,7.286-3.379,11.036c-0.941,3.483-2.118,7.684-4.543,10.435
			c-4.831,5.483-14.45,6.266-21.093,5.136c-7.637-1.301-15.47-4.984-22.015-9.022c-5.258-3.244-7.181-9.503-8.18-15.663
			c0.026-0.098,0.06-0.191,0.088-0.288c3.052-5.157,7.796-12.523,13.644-10.463c4.63,1.631,6.537,8.06,11.783,8.553
			c5.755,0.542,10.87-4.422,15.849-6.315c6.57-2.499,13.84,0.672,18.13,5.754C183.782,395.049,183.69,395.328,183.594,395.607z
			 M187.555,383.892c-0.497,1.428-0.978,2.863-1.461,4.297c-3.544-2.996-9.169-5.046-12.137-5.508
			c-3.644-0.567-7.53,0.01-10.931,1.39c-4.186,1.7-8.082,6.195-12.866,4.836c-3.474-0.987-5.339-4.71-8.466-6.473
			c-2.303-1.298-6.65-1.861-9.21-0.946c-3.253,1.164-6.641,4.257-9.085,7.871c-0.575-5.999-0.749-12.081-0.753-18.129
			c0.07-0.018,0.142-0.027,0.212-0.042c1.449,0.23,2.911,0.371,4.316,0.896c2.095,0.782,4.338,2.37,6.141,3.658
			c2.124,1.516,3.659,2.344,5.91,2.421c0.956,0.266,1.905,0.387,2.843,0.288c4.553-0.483,7.708-3.538,9.912-7.288
			c1.287-1.856,2.311-3.944,3.091-6.108c2.666-7.406,2.276-16.794-4.053-22.307c-3.175-2.766-7.54-3.718-10.433-6.758
			c-2.343-2.46-4.365-5.554-5.966-8.754c-0.038-0.569-0.056-1.136-0.035-1.708c1.352-3.588,2.757-7.155,4.259-10.691
			c1.659-3.904,4.573-7.172,6.704-10.835c0.953-1.638,1.92-3.262,2.873-4.894c1.179,2.066,2.254,4.198,3.303,6.348
			c-2.444,2.147-3.925,5.859-4.706,8.687c-1.527,5.533-2.346,11.457-0.381,16.997c1.121,3.159,3.063,5.443,5.46,7.01
			c4.801,4.059,12.166,4.365,17.901,1.425c0.475-0.157,0.935-0.333,1.392-0.515c0.754,0.967,1.536,1.926,2.339,2.881
			c-2.845,2.206-4.215,6.426-4.916,9.946c-1.38,6.939-8.052,10.556-6.649,18.551c1.163,6.622,5.353,9.757,11.761,10.761
			c4.193,0.658,9.47-0.4,13.609-1.145c0.363-0.066,0.71-0.136,1.045-0.215C188.324,381.22,188.01,382.583,187.555,383.892z
			 M153.568,309.278c1.832,3.86,3.659,7.734,5.813,11.432c2.855,4.904,5.669,9.506,8.781,13.942
			c-3.051,0.828-5.831,1.798-9.189,0.889c-5.092-1.378-8.003-4.786-8.416-10.078C150.206,320.964,150.9,313.947,153.568,309.278z
			 M192.143,361.895c-1.202,3.581-1.773,7.634-2.499,11.38c-0.069,0.359-0.125,0.725-0.187,1.088
			c-0.704,0.129-1.422,0.305-2.296,0.452c-2.39,0.399-4.862,0.415-7.289,0.777c-3.935,0.587-9.464,1.319-11.889-3.222
			c-1.158-2.169-1.165-5.898-0.281-7.942c0.176-0.407,0.381-0.796,0.599-1.178c1.052-1.328,2.17-2.636,2.872-4.103
			c1.025-1.421,1.944-2.906,2.328-4.713c0.74-3.47,1.071-6.632,2.901-9.428c2.974,3.29,5.855,6.256,9.347,9.129
			c2.244,1.845,4.58,3.937,7.022,5.761C192.576,360.517,192.382,361.182,192.143,361.895z M247.679,407.525
			c-3.011-7.314-5.618-14.722-8.109-22.305c-1.855-5.649-2.155-11.554-3.141-17.386c-0.434-2.562-0.764-5.159-1.039-7.763
			c0.253,0.054,0.5,0.111,0.749,0.167c3.482,1.534,6.881,3.353,10.126,5.255c5.609,3.286,9.35,7.182,12.451,12.972
			c3.7,6.906,2.413,16.006-2.398,21.935C253.996,403.262,250.541,405.193,247.679,407.525z M311.655,449.713
			c-0.754,2.269-2.012,4.848-2.846,7.409c-5.255,1.643-10.085,2.867-15.679,3.631c-5.571,0.761-11.76-0.327-16.77-3.022
			c-4.784-2.573-7.511-7.999-10.455-12.358c-2.58-3.819-5.095-7.601-7.129-11.698c1.236-3.772,2.047-7.705,3.611-11.391
			c1.905-4.494,3.939-9.331,7.023-13.162c4.645-5.769,10.572-6.987,14.994-0.712c2.313,3.283,4.212,5.997,8.104,7.531
			c4.289,1.691,9.151,1.601,13.041,4.316c4.792,3.345,9.061,9.843,8.838,15.823C314.22,440.579,313.073,445.444,311.655,449.713z
			 M337.735,421.695c1.581,6.316,1.366,11.411-1.513,17.279c-1.686,3.435-4.406,5.958-7.33,8.34
			c-0.416-2.216-0.386-4.567-0.626-6.756c-0.399-3.635-0.382-7.77-0.156-11.4c0.401-6.447,4.159-11.491,6.633-17.101
			C335.893,415.204,336.912,418.406,337.735,421.695z M400.305,367.153c-2.106-2.715-3.949-5.44-5.814-8.288
			c1.654-1.719,3.043-3.875,4.954-5.116c3.877-2.516,8.542-0.289,10.566,3.675c3.34,6.545-0.826,12.366-3.935,18.183
			C404.239,372.704,402.38,369.826,400.305,367.153z M442.84,406.907c-9.849-1.183-17.234-8.32-24.302-14.754
			c-0.52-0.474-1.017-0.968-1.506-1.469c2.76-2.618,4.935-5.93,8.197-8.008c6.92-4.407,10.249,1.805,16.032,4.079
			c6.448,2.535,13.166-2.307,19.374,1.944c5.131,3.514,3.01,9.556,4.854,14.409C458.367,406.424,450.985,407.885,442.84,406.907z
			 M476.325,396.515c-1.911,1.459-3.917,2.826-6.052,4.084c0.411-5.162-1.416-11.661-4.59-14.898
			c-2.592-2.645-6.499-3.927-10.095-4.358c-1.488-0.178-3.045-0.001-4.609,0.23c-0.849-0.071-1.684-0.132-2.476-0.186
			c-2.054-0.141-4.237,0.319-6.293-0.008c-2.941-1.4-4.574-4.048-7.884-5.02c-3.146-0.924-6.46-0.693-9.507,0.604
			c-4.198,1.789-8.472,5.862-10.867,10.22c-1.706-2.133-3.269-4.396-4.771-6.71c0.783-1.773,1.692-3.47,2.59-5.166
			c1.843-3.06,3.449-6.263,3.917-9.674c0.037-0.272,0.06-0.541,0.081-0.809c0.038-0.255,0.082-0.507,0.11-0.767
			c0.615-5.68-0.993-9.98-5.446-13.518c-6.336-5.032-15.51-2.262-18.278,4.841c-2.698-3.718-6.081-7.264-6.985-11.793
			c-0.368-1.844-3.032-1.022-2.772,0.764c0.62,4.261,2.983,7.693,4.679,11.57c2.016,4.61,3.938,9.466,6.9,13.536
			c0.839,1.153,1.634,2.345,2.402,3.557c-1.058,0.555-2.049,1.308-3.136,1.893c-2.847,1.533-5.93,2.609-8.901,3.864
			c-6.744,2.851-13.571,4.14-20.719,5.544c-6.986,1.372-15.683,2.438-22.779,1.381c-2.398-0.357-5.696-1.228-8.738-1.35
			c-3.818-6.91-8.13-13.549-12.867-19.891c-2.037-2.727-3.991-5.517-6.278-8.046c-2.379-2.63-5.336-4.45-7.817-6.93
			c-4.88-4.876-9.862-9.903-15.325-14.172c-2.532-1.977-5.668,1.027-3.558,3.558c1.687,2.021,2.932,4.342,4.587,6.385
			c1.814,2.237,4.095,3.919,6.043,6.01c2.236,2.401,4.717,4.698,7.045,7.09c-6.751,4.375-13.199,11.732-15.67,19.253
			c-1.357,4.131-2.582,8.652-1.079,12.921c1.388,3.94,4.462,5.368,7.943,7.042c3.674,1.768,4.653,3.733,6.161,7.154
			c0.637,1.445,1.283,2.741,2.5,3.769c1.167,0.985,2.466,1.527,3.826,1.81c1.825,0.513,3.804,0.592,5.594,0.314
			c4.209-0.653,7.874-2.199,10.826-4.579c2.16-1.593,4.034-3.59,5.584-5.964c1.349,2.805,2.613,5.647,3.774,8.53
			c-2.838,1.666-4.727,5.969-6.197,8.608c-2.047,3.675-3.516,8.089-4.103,12.25c-0.701,4.973-0.667,10.394-0.498,15.406
			c0.071,2.128,0.207,4.448,1.056,6.382c-2.406,1.491-5.004,2.587-7.676,3.53c1.323-3.251,2.14-6.821,2.88-10.031
			c0.219-0.95,0.363-1.909,0.474-2.869c0.767-4.275,0.919-8.546-0.559-12.793c-0.392-1.128-0.9-2.239-1.479-3.325
			c-0.781-2.029-1.923-3.611-3.323-4.875c-1.506-1.786-3.203-3.396-5.008-4.709c-4.994-3.631-11.308-2.708-16.246-5.777
			c-4.628-2.877-5.731-8.789-11.215-10.707c-5.065-1.771-9.628,0.487-13.388,4.084c-4.238,4.057-6.763,9.771-9.072,15.057
			c-1.112,2.545-2.337,5.373-3.122,8.268c-1.724-4.251-3.402-8.545-5.294-12.692c-0.176-0.386-0.343-0.774-0.515-1.161
			c2.149-1.1,4.241-2.606,6.154-4.319c2.302-1.373,4.39-3.308,6.385-5.975c4.397-5.875,5.397-14.282,3.157-21.204
			c-0.266-0.822-0.591-1.654-0.96-2.485c-0.256-0.761-0.534-1.516-0.854-2.254c-2.427-5.594-6.867-11.535-12.293-14.48
			c-5.172-2.806-10.692-6.351-16.689-6.667c-0.198-2.644-0.34-5.291-0.382-7.921c-0.111-6.779,0.282-13.782-0.802-20.478
			c-0.501-3.096-0.775-6.251-1.165-9.366c-0.386-3.077-0.978-6.185-0.037-9.203c0.872-2.797-3.282-3.804-4.306-1.188
			c-1.881,4.805-1.732,10.98-2.018,16.071c-0.416,7.364,0.135,14.951,0.036,22.361c-0.067,4.994,0.03,10.111,0.326,15.236
			c-8.185-2.051-16.283-3.335-23.906-7.27c-3.281-1.694-6.361-4.363-9.287-6.632c-3.416-2.648-6.564-5.285-9.4-8.552
			c-2.93-3.374-6.238-6.309-8.789-10.007c-2.573-3.728-4.656-7.766-6.96-11.66c-4.363-7.371-7.424-15.287-11.415-22.715
			c-3.359-6.25-7.395-12.077-12.765-16.881c-6.059-5.419-11.357-11.982-15.88-18.76c-5.272-7.9-8.238-16.986-11.536-25.862
			c-3.373-9.08-5.919-18.424-8.355-27.804c-2.579-9.927-4.117-20.263-4.361-30.496c-0.114-4.795-0.725-9.524-1.082-14.319
			c-0.17-2.293,0.14-4.653,0.031-6.944c8.917,0.346,18.007-0.648,26.569-2.947c4.495-1.208,9.272-2.851,13.17-5.449
			c3.837-2.557,6.822-6.606,9.542-10.278c1.289-1.74-1.223-4.109-2.95-2.95c-6.896,4.628-14.005,8.224-22.082,10.263
			c-8.569,2.162-16.965,2.316-25.758,2.036c-7.495-0.238-15.04-2.283-22.015-5.006c-6.539-2.552-12.116-6.742-17.535-10.941
			c-2.369-1.836-4.943-4.613-6.658-7.093c-0.082-0.119-0.142-0.232-0.218-0.349c6.265,4.678,14.427,7.141,21.978,7.183
			c6.377,0.035,12.271-1.46,18.256-3.566c4.376-1.541,8.717-4.157,11.443-7.997c2.024,1.078,4.521,1.692,6.432,1.004
			c3.03-1.091,2.924-4.938,0-6.069c-1.661-0.643-3.271-0.426-4.801-1.537c-1.476-1.072-3.271-2.54-4.322-4.037
			c-1.376-1.961-4.316-0.77-3.847,1.622c0.307,1.564,1.087,3.271,2.079,4.782c-0.959,2.155-1.91,4.028-4.045,5.444
			c-2.021,1.342-4.386,2.131-6.692,2.824c-5.167,1.553-9.818,2.885-15.306,2.796c-5.093-0.082-10.43-1.604-15.136-3.572
			c-3.41-1.426-6.254-4.075-8.957-6.708c-0.037-0.103-0.067-0.201-0.108-0.307c-2.703-7.048-1.025-14.888,1.347-21.888
			c0.911-2.689,2.143-5.242,3.581-7.671c0.157,1.398,0.513,2.763,1.064,4.05c0.548,1.965,1.631,3.779,3.53,5.299
			c4.238,3.391,10.797,2.644,15.346,0.208c0.423-0.165,0.843-0.334,1.252-0.509c6.634-2.85,10.03-10.624,11.014-17.489
			c0.879-6.129-1.174-10.271-3.871-15.089c5.52-2.262,10.934-5.028,16.706-6.488c0.801-0.203,1.621-0.405,2.449-0.605
			c0.211,2.25,1.734,4.61,2.886,6.234c2.966,4.182,5.008,6.124,10.233,6.73c9.684,1.123,17.679-4.74,21.78-13.197
			c2.096,0.455,4.18,0.963,6.23,1.564c-1.925,1.247-3.677,2.621-5.098,4.895c-2.234,3.575-3.339,8.282-2.848,12.474
			c0.41,3.497,1.857,6.918,4.504,9.241c0.067,0.058,0.132,0.109,0.198,0.166c0.953,1.176,2.04,2.103,3.278,3.101
			c0.524,0.422,0.958,0.844,1.333,1.268c0.331,0.543,0.614,1.145,0.819,1.868c0.668,2.362,0.308,5.255,0.756,7.705
			c1.466,7.995,9.753,14.113,17.931,13.248c1.655-0.175,3.439-0.608,5.249-1.23c4.271-0.997,8.751-3.096,11.6-6.25
			c-0.391,4.459-1.257,8.783-2.146,13.112c-5.235-4.023-14.942,2.021-17.974,6.556c-2.372,3.547-2.674,8.621-2.095,12.771
			c0.286,2.048,1.179,3.984,1.713,5.981c0.887,3.313,0.529,5.001-1.066,7.827c-0.123,0.219-0.25,0.437-0.378,0.656
			c-1.034,1.5-1.971,3.093-3.003,4.604c-0.644,0.944-1.228,1.921-1.759,2.922c-3.517,5.683-6.283,11.682-3.556,18.663
			c0.867,2.218,2.083,4.271,3.567,6.098c1.793,2.774,4.633,4.965,7.86,6.302c3.173,1.583,6.701,2.448,10.316,2.368
			c0.57-0.013,1.032-0.157,1.411-0.378c0.593,2.681,1.331,5.333,2.178,7.964c-4.249,0.679-10.163,5.369-11.96,6.996
			c-5.463,4.945-8.527,13.403-5.876,20.399c1.335,3.523,3.156,6.421,3.077,10.311c-0.09,4.497-1.113,9.035-0.064,13.502
			c1.712,7.29,5.138,11.997,10.693,16.634c6.284,5.247,14.196,3.958,21.267,1.091c2.65-1.075,11.256-5.405,13.88-9.802
			c0.534,0.431,1.076,0.844,1.631,1.227c4.562,3.161,9.121,6.013,14.071,8.535c2.599,1.324,5.448,2.018,8.051,3.299
			c3.127,1.537,6.381,3.89,9.084,6.069c4.707,3.794,9.259,6.84,12.407,12.157c2.905,4.906,5.477,10.098,8.731,14.756
			c7.429,10.636,14.884,19.263,26.678,25.257c9.856,5.009,22.98,5.658,33.54,3.507c5.832-1.188,11.39-3.538,17.228-4.443
			c3.005-0.466,5.919-1.278,8.886-1.892c3.415-0.708,6.314,0.131,9.714,0.697c6.207,1.032,12.511,2.272,18.649,0.248
			c5.735-1.891,11.283-5.453,15.969-9.207c8.92-7.146,21.943-12.811,33.473-11.24c0.41,0.056,0.953,0.075,1.468,0.118
			c-0.032,0.114,1.999,0.792,2.016,0.798c2.822,0.982,5.58,0.489,8.255-0.659c5.183-2.226,9.857-6.302,12.955-11.009
			c1.448-2.201,2.538-4.684,3.315-7.318c1.09-0.029,2.191-0.152,3.25-0.254c4.424-0.427,8.818-1.397,13.07-2.659
			c5.174-1.536,9.92-4.422,15.074-5.806c0.565-0.152,3.437-1.028,3.986-0.856c1.158,0.365,0.669,0.362,0.57,1.572
			c-0.187,2.287-3.116,5.664-4.211,7.654c-5.209,9.468-12.292,18.875-19.303,27.097c-1.45,1.701-2.617,3.626-4.063,5.313
			c-1.486,1.733-3.549,2.799-5.104,4.456c-1.052,1.121-2.1,2.429-3.094,3.775c-1.469-0.181-2.925-0.401-4.364-0.677
			c-5.94-1.138-11.883-1.678-17.827-2.654c-5.282-0.867-12.311-1.628-17.091-4.094c-2.591-1.336-5.113,1.846-3.111,4.031
			c4.003,4.368,10.813,6.064,16.954,7.518c-4.642,5.182-8.254,12.178-9.404,19.034c-0.138,0.437-0.279,0.874-0.4,1.317
			c-0.799,2.927-0.368,6.115,0.781,8.955c1.246,4.338,4.106,7.905,9.328,8.9c6.914,1.32,11.823-1.211,15.837-6.987
			c2.684-3.863,4.614-7.476,6.17-11.861c1.31-2.838,2.239-5.753,2.948-9.075c0.252-1.182,0.536-2.499,0.63-3.787
			c0.136-0.498,0.281-0.991,0.426-1.484c1.731,0.083,3.462-0.008,5.195,0.175c1.925,0.201,3.828,0.413,5.722,0.639
			c-2.629,1.876-4.849,4.698-6.341,7.05c-3.293,5.19-5.471,12.07-3.085,18.071c0.282,0.709,0.628,1.377,1.015,2.018
			c1.658,3.697,4.736,6.118,8.049,8.227c1.617,1.379,3.18,2.776,4.462,4.323c3.063,3.695,5.506,7.988,5.564,12.902
			C477.14,391.26,476.307,393.875,476.325,396.515z M327.396,395.597c-3.647,4.379-7.511,8.542-13.293,9.592
			c-4.374,0.794-7.069,0.714-8.733-3.702c-0.934-2.478-1.472-5.532-3.655-7.295c-3.37-2.721-8.1-0.437-10.041-5.641
			c-0.653-1.749-0.389-4.29,0.264-6.793c0.052-0.118,0.102-0.237,0.153-0.353c1.815-4.125,4.296-8.185,7.29-11.55
			c1.341-1.506,2.813-2.863,4.286-4.234c0.884-0.822,2.345-2.549,3.725-3.427c7.017,8.66,12.148,18.78,17.432,28.511
			C325.705,392.328,326.555,393.961,327.396,395.597z M451.78,334.322c-0.284,1.289-0.457,2.612-0.749,3.928
			c-0.839,3.773-2.329,7.731-3.705,11.335c-1.428,3.741-3.358,6.748-5.806,9.889c-2.195,2.817-4.173,3.612-7.596,3.679
			c-16.531,0.327-4.313-22.832,0.446-31.986c0.452,0.118,0.903,0.236,1.334,0.359c4.363,1.253,8.829,1.19,13.299,2.099
			C449.939,333.817,450.859,334.072,451.78,334.322z M502.405,358.498c-2.095,8.46-7.687,16.855-12.647,23.926
			c-2.224,3.17-4.635,6.053-7.259,8.686c0.127-2.661-0.175-5.335-0.676-7.157c-0.367-1.337-0.858-2.624-1.433-3.872
			c-0.537-1.758-1.442-3.237-2.578-4.524c-1.547-2.283-3.343-4.411-5.231-6.385c-5.584-5.84-12.748-8.628-9.923-18.404
			c1.48-5.12,5.212-9.251,8.613-13.355c0.453-0.302,0.909-0.574,1.366-0.759c5.152,0.743,10.238,1.71,15.341,3.186
			c3.952,1.144,9.034,2.689,11.931,5.795C503.078,349.03,503.478,354.164,502.405,358.498z"/>
	</g>
</g>
<g>
	<g>
		<path d="M285.133,352.506c0.018-4.525-1.394-8.922-4.632-11.432c-3.605-2.794-8.106-2.828-11.543-0.915
			c-0.676,0.181-1.331,0.415-1.957,0.711c-0.995,0.219-1.873,0.847-2.638,1.76c-1.906,1.818-3.48,4.772-3.218,7.377
			c-0.978,4.02-1.248,8.22-0.938,10.02c0.615,3.572,2.489,6.121,4.938,7.653c2.089,2.215,4.925,3.717,8.051,3.15
			c4.001-0.725,6.975-4.407,9.196-7.532C284.654,360.112,285.538,356.226,285.133,352.506z M278.669,360.022
			c-1.876,2.952-5.659,5.209-9.141,4.264c-3.891-1.056-5.102-4.84-5.127-8.621c-0.022-3.306,0.949-6.472,2.459-9.376
			c2.184-1.758,5.099-3.169,7.485-3.015c0.685,0.044,1.302,0.174,1.865,0.367c0.93,0.439,1.827,1.054,2.671,1.862
			C281.858,349.149,281.021,356.318,278.669,360.022z"/>
	</g>
</g>
<g>
	<g>
		<path d="M112.061,73.63c-3.693,0.461-6.317,3.446-7.626,6.759c-1.305,3.306-0.52,6.342,1.706,9.008
			c2.425,2.903,6.575,4.661,10.063,2.482c0.961-0.601,1.802-1.453,2.48-2.441c0.727-0.62,1.372-1.324,1.868-2.117
			C124.234,81.428,119.16,72.743,112.061,73.63z"/>
	</g>
</g>
<g>
	<g>
		<path d="M145.48,91.709c-2.405-4.097-10.067-7.204-13.708-3.086c-3.015,1.933-4.907,7.079-4.641,10.197
			c0.515,6.05,6.726,10.939,12.809,8.828c2.769-0.961,4.756-3.807,5.465-6.545C146.205,98.008,147.208,94.651,145.48,91.709z
			 M139.724,103.007c-3.725,3.067-8.966-0.304-9.294-4.672c-0.048-0.642,0.003-1.267,0.123-1.876c0.98-2.392,3.19-4.721,5.459-5.74
			c1.807-0.129,3.573,0.046,5.106,1.412c0.391,0.348,0.68,0.805,0.896,1.322c0.053,0.164,0.108,0.325,0.155,0.503
			c0.099,0.377,0.185,0.783,0.26,1.201C142.707,97.968,141.502,101.543,139.724,103.007z"/>
	</g>
</g>
<g>
	<g>
		<path d="M156.995,190.723c-1.352-2.924-3.672-6.66-7.02-7.587c-0.92-0.255-1.646-0.277-2.257-0.151
			c-1.309-0.791-3.181,0.832-4.05,1.771c-0.686,0.741-1.442,1.391-2.133,2.123c-0.265,0.281-0.502,0.587-0.725,0.904
			c-3.915,3.47-6.462,8.677-4.665,13.806c0.383,1.096,0.988,2.134,1.745,3.081c0.263,0.464,0.55,0.918,0.892,1.353
			c2.784,3.539,6.885,4.659,10.413,3.553c1.167-0.169,2.292-0.56,3.313-1.224C158.855,204.226,160.048,197.331,156.995,190.723z
			 M153.068,201.119c-0.079,0.368-0.194,0.704-0.311,1.038c-0.53,0.643-1.157,1.254-1.914,1.817
			c-3.281,2.441-7.631,0.863-10.068-2.254c-3.683-4.709,0.293-9.804,4.167-13.34c1.18-0.658,2.435-0.975,3.707-0.709
			C154.135,188.815,153.979,196.903,153.068,201.119z"/>
	</g>
</g>
<g>
	<g>
		<path d="M208.349,271.333c-2.755-1.943-6.338-3.029-9.66-2.157c-1.755,0.46-3.114,1.339-4.275,2.769
			c-0.524,0.645-0.721,1.214-0.9,1.807c-1.071,1.241-1.998,2.676-2.599,4.143c-1.371,3.35-1.193,7.581,0.165,10.912
			c1.442,3.534,4.963,5.263,8.729,5.509c1.147,0.226,2.203,0.152,3.223-0.148c2.469-0.38,4.82-1.356,6.528-2.871
			c2.949-2.616,3.925-6.715,3.963-10.526C213.566,276.429,211.784,273.756,208.349,271.333z M207.399,287.594
			c-1.553,1.781-3.647,2.185-5.895,2.427c-3.445,0.371-6.214-0.14-7.263-3.918c-1.643-5.925,1.32-8.854,4.702-12.388
			c1.275-0.549,2.687-0.726,4.735-0.039C209.348,275.582,211.468,282.928,207.399,287.594z"/>
	</g>
</g>
<g>
</g>
<g>
</g>
<g>
</g>
<g>
</g>
<g>
</g>
<g>
</g>
<g>
</g>
<g>
</g>
<g>
</g>
<g>
</g>
<g>
</g>
<g>
</g>
<g>
</g>
<g>
</g>
<g>
</g>
</svg>
