<?xml version="1.0" encoding="iso-8859-1"?>
<!-- Generator: Adobe Illustrator 16.0.0, SVG Export Plug-In . SVG Version: 6.00 Build 0)  -->
<!DOCTYPE svg PUBLIC "-//W3C//DTD SVG 1.1//EN" "http://www.w3.org/Graphics/SVG/1.1/DTD/svg11.dtd">
<svg version="1.1" id="Capa_1" xmlns="http://www.w3.org/2000/svg" xmlns:xlink="http://www.w3.org/1999/xlink" x="0px" y="0px"
	 width="191.894px" height="191.894px" viewBox="0 0 191.894 191.894" style="enable-background:new 0 0 191.894 191.894;"
	 xml:space="preserve">
<g>
	<path d="M84.376,50.56c-5.158-0.652-10.3-0.234-15.417,0.541c-4.622,0.699-9.245,0.631-13.277,3.29
		c-4.936,3.256-3.136,8.682,0.981,11.477c9.005,6.115,22.543,0.385,32.475,1.641c1.32,0.167,1.978-1.25,1.745-2.364
		c0.058-0.139,0.168-0.234,0.188-0.398C91.921,57.878,92.368,51.57,84.376,50.56z M72.926,63.918
		c-3.226,0.222-6.347,0.193-9.553-0.322c-4.436-0.712-8.888-4-3.514-7.316c5.369-3.313,13.427-2.045,19.384-1.773
		c1.91,0.087,6.842-0.392,7.742,2.082c0.805,2.212,0.531,4.76,0.916,7.147C82.9,63.241,77.96,63.572,72.926,63.918z"/>
	<path d="M136.501,54.154c-5.547-6.724-19.328-3.244-26.403-2.394c-2.463,0.296-5.653-0.494-7.285,1.992
		c-2.241,3.413-2.331,7.473-1.416,11.363c0.165,0.703,0.83,1.004,1.463,0.954c0.172,0.054,0.343,0.11,0.56,0.105
		c9.605-0.232,18.926,3.217,27.853-1.723C135.208,62.271,140.285,58.741,136.501,54.154z M131.387,61.486
		c-1.84,0.726-3.854,1.193-5.775,1.656c-6.651,1.603-14.541,1.039-21.209-0.142c0.121-0.935,0.217-1.874,0.301-2.831
		c0.441-5.047,2.821-4.763,6.884-5.148c6.235-0.591,12.514-0.849,18.644,0.714C133.903,56.672,135.978,59.674,131.387,61.486z"/>
	<path d="M190.487,26.476c-0.295-1.456-1.515-2.646-3.28-1.964C157.74,35.894,122.976,35.067,91.75,35.846
		c-31.285,0.78-58.373,0.717-88.798-7.71C2.461,28,2.184,28.322,2.137,28.697c-6.988,7.788,4.866,19.371,11.174,23.147
		c7.402,4.431,14.811,2.867,22.839,4.252c0.593,0.181,1.186,0.362,1.778,0.543c1.575,4.8,0.279,6.898-3.887,6.292
		c-2.186,0.163-4.401,0.002-6.584-0.112c-4.275-0.224-8.959,0.89-13.124-0.165c-1.436-0.364-2.359,0.816-2.385,1.955
		c-1.908,3.62-0.52,7.456-0.744,11.425c-0.057,1.005,0.821,1.586,1.694,1.694c4.348,0.541,8.775,0.369,13.151,0.474
		c3.091,0.075,6.362,0.608,9.454,0.238c-1.002,10.376,0.424,20.569,1.142,30.991c0.821,11.916,1.854,34.454-6.507,43.925
		c-5.436-1.996-12.25-1.207-17.684,0.299c-2.883,0.799-1.738,7.635-1.586,9.443c0.095,1.127,0.853,1.997,2.03,2.03
		c22.927,0.636,46.139,0.45,69.098,0.102c1.195-0.018,2.484-1.063,2.362-2.361c-0.361-3.848-0.624-6.02-1.169-9.836
		c-0.091-0.639-0.83-1.085-1.423-1.084c-5.085,0.011-9.86,0.361-14.87,1.067c-16.908-14.996-5.308-55.353-6.728-75.229
		c11.921,1.735,24.155,0.875,36.176,1.559c11.377,0.648,22.511,2.587,33.768,0.966c-0.157,12.013-0.395,24.014-0.121,36.029
		c0.194,8.513,3.13,30.148-5.64,36.162c-1.831-0.185-3.89,0.042-5.656,0.541c-0.682,0.193-1.392,0.259-2.103,0.315
		c-3.48-0.425-5.905-0.273-7.47,0.599c-0.377,0.067-0.699,0.253-0.854,0.671c-0.01,0.028-0.021,0.056-0.031,0.083
		c-1.927,1.859-2.171,5.372-1.934,10.919c0.044,1.045,0.853,1.97,1.949,1.949c23.272-0.443,47.616-0.003,70.711-2.649
		c1.499-0.172,2.585-1.331,2.212-2.903c-0.721-3.048-1.342-5.278-2.799-7.748c0.084-0.49-0.128-1.014-0.732-1.229
		c-0.072-0.026-0.153-0.03-0.226-0.054c-0.044-0.018-0.085-0.021-0.131-0.031c-4.409-1.379-9.995,0.438-14.45-0.918
		c-14.825-14.501-8.088-49.008-9.082-67.508c-0.49-9.123,20.022-3.897,24.746-6.664c4.716-2.763,3.368-7.724,3.022-12.436
		c-0.177-2.417-2.763-3.173-4.353-2.308c-3.79,0.522-7.457,0.804-11.3,0.718c-1.397-0.031-16.598-3.026-11.295-6.754
		c2.277-1.602,5.741-1.983,8.402-2.555c4.314-0.928,8.536-2.297,12.634-3.924c6.235-2.476,12.717-6.617,15.095-13.283
		C191.867,34.088,192.753,29.31,190.487,26.476z M186.691,33.585c-1.305,8.194-11.671,12.975-18.544,15.003
		c-5.918,1.746-13.631,1.376-18.287,5.944c-4.464,4.38,1.824,10.289,5.571,12.13c5.881,2.891,13.966,2.454,20.48,0.662
		c-0.828,10.972-16.355,3.793-23.713,8.102c-6.934,4.062-1.675,20.766-1.741,25.902c-0.187,14.205-5.431,46.635,12.092,53.389
		c0.267,0.104,0.517,0.071,0.733-0.037c4.1,1.831,8.991,2.105,13.213,0.842c0.241,5.251-1.965,4.312-8.388,4.566
		c-9.079,0.359-18.15,0.849-27.222,1.382c-9.072,0.534-18.138,1.166-27.206,1.769c-4.899,0.616-5.769-1.458-2.61-6.226
		c3.175,0.302,3.454,0.178,6.378-0.381c0.206-0.039,0.314-0.202,0.469-0.312c0.477,0.085,0.947,0.176,1.396,0.292
		c2.112,0.549,4.914-0.029,6.273-1.752c0.081-0.104,0.093-0.213,0.146-0.318c6.448-2.384,7.766-11.291,8.624-17.506
		c2.626-19.008-0.668-39.313,0.381-58.555c0.414-1.305-0.394-3.06-2.065-3.073c-24.235-0.194-50.086-4.497-74.107-0.412
		c-0.347-0.05-0.697-0.009-1.022,0.14c-0.013,0.002-0.025,0.003-0.038,0.005c-0.135,0.024-0.201,0.13-0.304,0.197
		c-0.037,0.028-0.079,0.043-0.114,0.074c-0.118,0.104-0.211,0.205-0.273,0.351c-0.183,0.264-0.331,0.568-0.379,0.962
		c-2.25,18.617-1.262,37.977-0.986,56.737c0.114,7.754,1.452,19.964,10.578,21.777c0.442,0.088,0.854-0.131,1.145-0.438
		c1.614,0.279,3.232,0.533,4.855,0.748c1.632-0.038,3.265-0.075,4.897-0.113c4.284,1.75,4.364,3.456,0.238,5.118
		c-9.759,0.099-19.496,0.077-29.251,0.484c-10.031,0.418-19.885-0.694-29.942,0.059c-7.604,0.57-0.768-4.938,2.994-4.546
		c3.452,0.36,6.798,0.392,10.245,0.216c0.577,0.141,1.215,0.038,1.782-0.529c7.155-7.175,6.232-16.61,7.048-26.192
		c1.454-17.076,1.125-36.295-1.078-53.309c0.273-0.773,0.157-1.651-0.729-2.035c-3.817-1.653-8.066-1.121-12.177-1.108
		c-3.831,0.013-7.691,0.039-11.495,0.519c-0.001-2.524,0.224-5.052-0.051-7.554c2.988,0.45,5.924,0.068,8.972-0.182
		c4.329-0.355,8.856,0.925,13.15-0.177c3.495-0.896,8.828-3.873,6.815-8.417c-3.499-7.897-13.773-4.673-20.433-6.421
		C14.597,49.153,1.716,40.656,3.499,30.173C25.617,46.204,58.2,41.75,83.841,40.939c33.427-1.056,70.646,0.946,102.708-10.312
		C186.674,31.825,186.799,32.912,186.691,33.585z"/>
</g>
<g>
</g>
<g>
</g>
<g>
</g>
<g>
</g>
<g>
</g>
<g>
</g>
<g>
</g>
<g>
</g>
<g>
</g>
<g>
</g>
<g>
</g>
<g>
</g>
<g>
</g>
<g>
</g>
<g>
</g>
</svg>
