<?xml version="1.0" encoding="iso-8859-1"?>
<!-- Generator: Adobe Illustrator 19.0.0, SVG Export Plug-In . SVG Version: 6.00 Build 0)  -->
<svg version="1.1" id="Capa_1" xmlns="http://www.w3.org/2000/svg" xmlns:xlink="http://www.w3.org/1999/xlink" x="0px" y="0px"
	 viewBox="0 0 512.001 512.001" style="enable-background:new 0 0 512.001 512.001;" xml:space="preserve">
<g>
	<g>
		<path d="M436.984,223.741c-7.14-34.066-32.793-60.282-61.508-78.648c-14.268-9.126-30.448-14.193-45.91-20.804
			c-10.321-4.413-20.998-11.829-18.156-24.667c2.06-9.307,8.084-17.694,11.854-26.369c5.906-13.591,8.646-31.25,2.459-45.149
			c-6.228-13.991-20.5-22.544-35.013-25.847c-19.196-4.369-40.427-2.548-57.446,6.809c-15.385,7.059-27.707,20.518-30.126,37.515
			c-2.146,15.076,1.157,29.484,10.425,41.723c5.699,7.526,16.068,14.904,5.331,22.959c-7.729,5.798-17.593,9.276-26.403,13.114
			c-16.521,7.196-32.957,15.935-46.504,27.978c-12.896,11.465-23.629,25.116-33.077,39.494
			c-18.995,28.905-34.891,61.283-40.459,95.726c-2.236,13.829-0.73,25.956,11.271,34.738c12.23,8.952,27.309,11.638,39.771,1.865
			c12.293-9.64,16.424-27.194,20.386-41.452c4.976-17.907,9.831-35.968,18.501-52.523c2.161-4.126,4.456-7.939,7.478-11.516
			c0.748-0.886,2.394-3.287,3.348-3.632c2.881-1.044,1.675-0.775,3.23,1.018c2.732,3.15,2.122,13.006,2.227,16.929
			c0.14,5.259,0.02,10.528-0.175,15.784c-0.676,18.214-2.121,36.286-4.313,54.377c-2.376,19.603-5.759,39.064-8.597,58.6
			c-2.56,17.623-3.197,35.737-4.312,53.507c-1.748,27.828-9.821,72.098,21.728,85.725c16.493,7.123,36.278,8.134,54.023,9.354
			c20.964,1.441,42.075,1.905,63.087,1.525c13.93-0.252,32.98-1.057,41.849-13.731c8.7-12.432,7.807-33.458,8.23-47.998
			c1.073-36.907,1.337-74.572-0.199-111.478c-0.767-18.418-1.053-36.879-1.396-55.316c-0.35-18.778-2.568-37.719-1.84-56.503
			c0.132-3.395-0.557-9.73,1.311-12.547c4.758-7.175,9.976-1.947,12.504,2.713c5.033,9.281,4.863,21.684,4.853,31.953
			c-0.021,19.589-0.455,38.164,2.224,57.637c1.619,11.767,3.865,22.789,17.513,23.839c14.277,1.098,32.756-0.444,43.355-11.465
			c10.077-10.479,10.474-27.904,11.335-41.459C440.973,259.758,440.65,241.222,436.984,223.741z M114.925,315.505
			c-8.654,5.908-19.708,1.186-26.718-5.233c-6.967-6.378-5.861-15.458-4.38-23.946c10.555,10.142,25.777,16.65,39.478,20.1
			C121.021,310.064,118.291,313.207,114.925,315.505z M420.053,310.577c-5.888,6.157-15.554,8.113-23.752,8.51
			c-4.139,0.2-9.681,0.952-13.135-1.458c-3.267-2.28-3.359-6.424-3.969-10.266c-0.477-3.003-0.883-5.984-1.257-8.958
			c8.42,1.07,17.186-0.594,25.591-1.509c7.697-0.838,15.831-1.453,23.34-3.728C425.924,299.605,424.036,306.414,420.053,310.577z
			 M427.674,285.126c0,0.005-0.001,0.011-0.001,0.017c-16.232,5.222-33.544,5.666-50.38,7.753
			c-1.349-12.697-1.843-25.28-1.727-38.287c0.128-14.209,0.453-31.25-7.086-43.915c-4.496-7.553-14.296-14.503-23.153-10.14
			c-12.179,5.999-12.015,22.245-11.832,33.84c0.268,16.946,1.649,33.863,1.863,50.803c0.414,32.704,1.429,65.326,1.394,98.04
			c-0.018,16.929,0.304,33.774-0.014,50.704c-0.308,16.352,1.474,35.321-3.391,51.161c-5.085,16.555-31.14,14.315-46.846,13.814
			c-0.781-71.532,5.973-143.053,8.274-214.52c1.163-36.137,3.645-72.224,1.784-108.404c-0.791-15.388-0.067-31.937-4.222-46.951
			c-1.485-5.364-4.163-11.681-8.76-15.093c-0.503-0.373-1.014-0.686-1.529-0.965c5.697-2.996,7.361-8.834,8.215-15.65
			c1.656-13.209,13.443-20.146,17.204-32.12c2.992-9.527,2.807-24.655-2.383-33.463c-5.299-8.992-16.359-12.922-26.157-13.063
			c-22.039-0.316-49.364,11.097-57.139,33.486c-4.289,12.352,1.703,21.14,10.713,29.104c4.844,4.281,10.212,8.549,15.467,12.968
			c3.167,3.671,6.398,7.286,9.666,10.806c5.14,5.535,9.682,10.353,17.244,9.862c4.582,2.328,8.55,5.132,10.75,10.573
			c3.103,7.673,3.108,16.338,3.55,24.51c0.892,16.478,1.082,32.887,0.946,49.393c-0.281,34.021-0.972,68.166-3.245,102.107
			c-2.243,33.498-4.13,67.234-5.229,100.776c-1.058,32.258-3.53,64.249-3.478,96.554c-16.985-0.048-34.067-0.51-50.965-2.179
			c-15.681-1.548-43.737-1.269-51.117-18.198c-6.578-15.089-3.284-34.745-2.894-50.718c0.805-32.958,4.365-65.713,9.008-98.313
			c4.734-33.238,9.93-68.346,7.135-101.995c-0.69-8.309-1.741-25.868-13.613-25.158c-10.558,0.63-18.359,14.355-22.591,22.535
			c-6.963,13.456-12.154,27.921-16.529,42.392c-2.828,9.354-5.141,22.154-9.875,32.766c-6.546-3.12-14.286-4.566-20.954-7.465
			c-7.469-3.247-14.125-7.821-20.789-12.415c3.1-15.961,8.302-32.008,15.208-46.67c13.4-28.448,30.845-59.797,57.145-78.288
			c15.079-10.601,31.516-17.196,48.484-24.081c10.686-4.336,26.815-9.458,31.298-21.474c4.762-12.761-8.18-21.269-15.098-29.721
			c-9.976-12.189-12.365-27.982-6.552-41.833c3.65-6.24,8.918-12.183,14.731-15.836c12.712-7.988,29.113-12.204,44.025-11.037
			c17.568,1.376,38.754,8.082,43.106,27.535c4.056,18.132-7.643,35.207-14.454,50.912c-4.946,11.403-4.718,22.632,3.028,32.727
			c8.613,11.222,24.151,15.198,36.843,20.016c17.156,6.513,31.895,15.754,45.534,27.988c12.755,11.441,26.339,22.977,32.416,39.516
			c6.154,16.75,6.826,33.097,7.721,50.637C428.842,268.706,428.177,276.905,427.674,285.126z M273.111,107.361
			c-1.884-0.13-3.266-0.7-4.928-1.517c-1.916-0.942-3.824-2.343-5.657-3.892c-4.413-5.238-9.425-10.224-13.87-15.106
			c-7.663-8.417-23.649-18.001-19.57-31.215c3.928-12.721,17.597-22.137,29.655-25.828c13.261-4.059,32.397-7.458,40.138,7.172
			c7.492,14.161,1.627,27.423-6.719,39.111c-2.561,3.587-5.229,7.335-6.972,11.41c-1.603,3.749-1.114,7.567-2.353,11.322
			C281.31,103.44,279.966,107.835,273.111,107.361z"/>
	</g>
</g>
<g>
	<g>
		<path d="M282.322,162.59c-1.174-2.132-3.279-4.18-5.713-4.682c-2.799-0.578-5.478,1.673-6.793,3.978
			c-1.498,2.625-1.101,5.936,0.848,8.219c1.496,1.75,4.007,2.61,6.232,2.004c1.888,0.064,3.441-0.801,4.608-2.513
			C282.957,167.464,283.63,164.967,282.322,162.59z"/>
	</g>
</g>
<g>
	<g>
		<path d="M282.832,198.196c-1.175-2.132-3.28-4.18-5.714-4.682c-2.799-0.578-5.478,1.673-6.793,3.977
			c-1.498,2.625-1.101,5.936,0.849,8.219c1.496,1.751,4.007,2.611,6.232,2.005c1.888,0.064,3.441-0.801,4.608-2.513
			C283.467,203.07,284.14,200.573,282.832,198.196z"/>
	</g>
</g>
<g>
	<g>
		<path d="M280.796,236.346c-1.174-2.132-3.279-4.18-5.713-4.682c-2.799-0.578-5.478,1.673-6.794,3.978
			c-1.498,2.625-1.101,5.936,0.848,8.219c1.497,1.75,4.009,2.609,6.233,2.004c1.888,0.064,3.441-0.801,4.608-2.513
			C281.431,241.22,282.104,238.723,280.796,236.346z"/>
	</g>
</g>
<g>
	<g>
		<path d="M279.27,270.426c-1.174-2.132-3.279-4.18-5.713-4.682c-2.799-0.578-5.478,1.673-6.794,3.978
			c-1.498,2.625-1.101,5.936,0.849,8.219c1.496,1.75,4.008,2.61,6.232,2.004c1.888,0.065,3.441-0.801,4.608-2.513
			C279.905,275.3,280.578,272.802,279.27,270.426z"/>
	</g>
</g>
<g>
	<g>
		<path d="M277.236,312.645c-1.174-2.132-3.279-4.18-5.713-4.682c-2.799-0.578-5.478,1.673-6.793,3.978
			c-1.498,2.625-1.101,5.936,0.848,8.219c1.495,1.75,4.007,2.61,6.232,2.004c1.888,0.065,3.441-0.801,4.608-2.513
			C277.871,317.519,278.544,315.022,277.236,312.645z"/>
	</g>
</g>
<g>
	<g>
		<path d="M275.71,350.794c-1.174-2.132-3.279-4.18-5.713-4.682c-2.799-0.578-5.478,1.673-6.793,3.978
			c-1.498,2.625-1.101,5.936,0.848,8.219c1.495,1.751,4.007,2.61,6.232,2.004c1.888,0.064,3.441-0.801,4.608-2.513
			C276.345,355.668,277.018,353.171,275.71,350.794z"/>
	</g>
</g>
<g>
	<g>
		<path d="M271.641,388.944c-1.174-2.132-3.279-4.18-5.713-4.682c-2.799-0.578-5.478,1.673-6.793,3.978
			c-1.498,2.625-1.101,5.936,0.848,8.219c1.495,1.75,4.007,2.61,6.232,2.004c1.887,0.064,3.441-0.801,4.608-2.513
			C272.275,393.818,272.949,391.321,271.641,388.944z"/>
	</g>
</g>
<g>
	<g>
		<path d="M271.132,428.62c-1.174-2.133-3.279-4.18-5.713-4.683c-2.799-0.578-5.478,1.673-6.793,3.978
			c-1.498,2.625-1.101,5.936,0.848,8.219c1.496,1.751,4.007,2.61,6.232,2.005c1.887,0.064,3.441-0.801,4.608-2.513
			C271.767,433.494,272.44,430.997,271.132,428.62z"/>
	</g>
</g>
<g>
	<g>
		<path d="M269.606,472.874c-1.174-2.134-3.279-4.181-5.713-4.683c-2.799-0.578-5.478,1.673-6.793,3.978
			c-1.498,2.625-1.101,5.936,0.848,8.219c1.496,1.751,4.007,2.611,6.232,2.005c1.888,0.065,3.441-0.801,4.608-2.513
			C270.24,477.748,270.914,475.251,269.606,472.874z"/>
	</g>
</g>
<g>
	<g>
		<path d="M255.127,122.375l-0.097-0.034c-2.318-0.8-5.428,1.366-5.151,3.924c0.004,0.033,0.007,0.066,0.011,0.099
			c0.15,1.388,0.686,2.643,1.875,3.434c-2.173,17.344-3.209,34.857-6.2,52.071c-0.61,3.511-0.896,6.447-2.762,9.181
			c-0.534,0.782-1.72,1.011-2.284,1.871c-1.513,2.307-2.682,5.277-0.549,7.672c3.637,4.084,12.238-0.18,10.341-5.683
			c-0.467-1.356-1.162-2.223-1.955-2.725c3.807-19.639,6.973-41.572,5.512-61.745c0.949,0.025,1.9-0.235,2.666-0.826
			C259.273,127.497,258.234,123.448,255.127,122.375z"/>
	</g>
</g>
<g>
	<g>
		<path d="M316.607,197.542c-0.077-0.077-0.19-0.139-0.28-0.212c-0.009-0.166-0.003-0.339-0.037-0.491
			c-2.83-12.689-1.433-26.175-4.384-38.885c-1.516-6.528-3.398-16.359-7.05-23.1c0.938-0.809,1.503-2.061,1.323-3.394
			c-0.376-2.8-3.248-3.899-5.638-2.77c-1.905,0.899-2.773,3.15-2.215,5.124c0.483,1.706,2.009,2.337,3.461,2.028
			c3.335,10.862,6.147,22.793,7.13,33.877c0.534,6.014,0.751,12.042,1.434,18.042c0.983,8.63,0.931,5.04-2.33,9.866
			c-2.868,4.244-1.383,10.951,4.89,10.558C318.595,207.829,320.238,201.151,316.607,197.542z"/>
	</g>
</g>
<g>
</g>
<g>
</g>
<g>
</g>
<g>
</g>
<g>
</g>
<g>
</g>
<g>
</g>
<g>
</g>
<g>
</g>
<g>
</g>
<g>
</g>
<g>
</g>
<g>
</g>
<g>
</g>
<g>
</g>
</svg>
