<?xml version="1.0" encoding="iso-8859-1"?>
<!-- Generator: Adobe Illustrator 19.0.0, SVG Export Plug-In . SVG Version: 6.00 Build 0)  -->
<svg version="1.1" id="Capa_1" xmlns="http://www.w3.org/2000/svg" xmlns:xlink="http://www.w3.org/1999/xlink" x="0px" y="0px"
	 viewBox="0 0 512 512" style="enable-background:new 0 0 512 512;" xml:space="preserve">
<g>
	<g>
		<path d="M511.996,370.727c-0.036-13.778-2.598-27.956-4.312-41.614c-2.653-21.142-8.926-45.759-25.802-60.118
			c-8.384-7.133-17.338-11.93-28.266-13.742c-11.953-1.982-30.011,0.605-37.648-10.634c-5.996-8.827-7.823-22.476-11.731-32.405
			c-4.764-12.102-10.476-23.944-17.086-35.143c-11.481-19.451-25.386-36.652-43.83-49.99
			c-20.646-14.931-44.071-23.045-68.654-29.105C173.193,72.963,65.8,144.457,25.029,234.838
			C4.616,280.089-4.278,334.899,1.964,384.29c1.091,8.631,3.149,18.641,10.016,24.668c7.994,7.018,20.651,6.972,30.622,6.986
			c27.461,0.037,54.856,3.527,82.285,3.086c31.493-0.507,62.951-3.702,94.465-4.189c31.97-0.494,64.147-0.012,95.994-3.42
			c29.741-3.184,59.94-5.348,89.854-5.657c3.068-0.032,6.141-0.001,9.216,0.061c13.062,1.243,26.108,2.782,39.005,4.33
			c17.293,2.076,45.445,9.588,54.889-10.875C512.071,391.134,512.018,379.451,511.996,370.727z M482.32,288.412
			c11.551,18.608,14.612,44.083,16.176,66.551c-5.072,1.736-10.114,3.472-15.343,4.943c-2.824,0.794-5.64,1.271-8.342,2.044
			c-0.04-5.873-0.396-11.673-1.203-17.233c-1.888-13.003-7.74-32.737-22.054-36.647c1.065-4.91,1.055-11.403,1.014-12.515
			c-0.27-7.302-0.799-19.677-4.337-28.334C462.071,269.176,474.758,276.23,482.32,288.412z M430.539,266.848
			c2.79-0.09,5.589-0.234,8.335-0.547c0.424,0.035,0.829,0.078,1.252,0.113c0.739,6.24,3.591,12.681,4.505,18.725
			c0.74,4.896,1.55,9.909,1.841,14.859c0.047,0.794,0.398,4.275,0.592,7.405c-0.192-0.008-0.378-0.027-0.573-0.028
			c-10.305-0.085-19.445,7.194-26.356,16.069c-5.797-7.924-15.174-15.191-22.27-20.817c-4.68-3.711-8.737-5.772-13.023-6.909
			c7.548-9.537,16.441-17.607,27.496-23.525C418.278,269.014,424.357,267.66,430.539,266.848z M430.017,362.488
			c-5.293,0.102-10.668,0.384-15.892,1.265c0.561-3.781,1.325-7.513,2.355-11.079c1.211-4.195,3.71-10.492,7.157-16.635
			C426.547,344.737,429.092,353.227,430.017,362.488z M310.164,204.572c-7.369,1.238-14.768,2.355-22.186,3.336
			c-2.147-10.818-4.953-21.479-8.371-32.411c-2.662-8.514-6.226-17.261-10.544-25.59c8.289-0.891,16.561-2.063,24.838-3.69
			c2.177-0.428,4.36-0.874,6.541-1.335c6.452,6.078,12.323,12.787,17.465,20.324c7.502,10.998,13.434,22.196,18.895,33.906
			C327.998,201.18,319.192,203.055,310.164,204.572z M340.347,206.889c0.917,2.067,1.827,4.152,2.735,6.256
			c5.252,12.169,9.955,27.323,10.84,41.145c-20.784,1.047-42.254,5.172-59.906,15.991c-0.193-2.695-0.585-5.434-0.63-8.148
			c-0.139-8.475-0.739-17.075-1.406-25.539c-0.539-6.839-1.379-13.473-2.443-20.017
			C306.672,214.395,323.717,211.162,340.347,206.889z M299.509,280.404c19.382-10.562,41.438-14.27,63.381-14.842
			c-8.298,3.171-16.269,6.611-23.766,11.512c-6.436,4.207-12.416,9.212-17.946,14.7c-13.633,0.169-27.34,0.632-40.871,2.273
			C285.983,288.866,292.375,284.291,299.509,280.404z M345.932,281.104c6.644-4.073,13.745-6.974,20.873-10.074
			c3.687-1.603,8.394-3.089,12.199-5.38c7.08,0.237,14.171,0.561,21.263,0.827c-9.878,6.165-18.657,14.843-26.099,24.561
			c-4.403-1.007-8.988-0.682-13.532-0.478c-9.586,0.434-19.235,1.021-28.834,1.109C336.263,287.742,340.969,284.148,345.932,281.104
			z M389.717,209.804c5.826,13.229,8.295,34.544,18.962,46.007c-13.723-1.014-27.478-1.724-41.238-1.811
			c-2.116-0.013-4.255,0.01-6.403,0.05c-0.216-1.917-0.6-3.835-0.797-5.563c-1.171-10.275-3.546-20.583-7.256-30.237
			c-1.73-4.503-3.561-8.922-5.477-13.283c11.793-3.264,23.365-7.02,34.568-11.316C384.793,198.987,387.335,204.393,389.717,209.804z
			 M332.365,134.739c7.991,5.425,15.429,11.543,22.038,18.418c9.505,9.887,17.296,21.391,23.971,33.497
			c-4.008,1-11.073,4.146-12.448,4.569c-5.43,1.67-10.945,3.404-16.441,4.798c-1.823,0.462-3.634,0.9-5.45,1.348
			c-5.852-12.302-12.582-24.074-20.541-35.43c-4.896-6.987-10.247-13.083-16.039-18.64c6.147-1.479,12.232-3.219,18.106-5.482
			C327.85,136.937,330.431,136.12,332.365,134.739z M324.131,129.535c-0.896,0.393-1.792,0.784-2.688,1.108
			c-6.993,2.523-14.203,4.396-21.466,5.996c-6.339-5.256-13.155-10.066-20.556-14.683c-8.928-5.57-19.03-9.497-28.833-13.225
			c-2.644-1.005-5.46-2.027-8.355-3.008C270.487,106.931,299.534,115.031,324.131,129.535z M272.274,124.266
			c7.295,4.148,14.122,8.763,20.473,13.882c-0.338,0.068-0.675,0.142-1.013,0.209c-8.97,1.766-17.928,3.028-26.914,3.98
			c-2.994-5.006-6.244-9.792-9.783-14.134c-4.546-5.579-9.475-10.631-15.045-15.167c-1.081-0.881-2.134-1.836-3.181-2.811
			C248.732,114.547,261.115,117.919,272.274,124.266z M230.941,111.64c4.774,4.847,9.787,9.219,14.17,14.424
			c4.416,5.245,8.517,10.972,12.221,16.997c-7.813,0.678-15.658,1.146-23.555,1.504c-1.827-11.726-3.696-23.455-5.248-35.142
			C229.39,110.177,230.226,110.913,230.941,111.64z M175.002,159.801c-10.316,15.029-19.954,30.709-28.475,46.936
			c-0.154-0.016-0.31-0.031-0.465-0.048c-12.996-1.403-25.919-3.124-38.543-6.481c12.932-17.962,27.768-34.523,44.138-49.446
			c3.432,0.401,6.87,0.751,10.32,0.971c5.999,0.384,11.968,0.678,17.925,0.9C178.271,155.017,176.644,157.409,175.002,159.801z
			 M187.708,152.831c6.051,0.153,12.098,0.211,18.152,0.203c-2.437,7.598-4.823,15.217-7.519,22.719
			c-4.12,11.463-7.912,22.931-11.439,34.469c-10.921-0.714-21.832-1.606-32.669-2.69c7.792-14.736,16.417-29.054,25.553-42.896
			C182.405,160.669,185.044,156.738,187.708,152.831z M131.431,212.223c3.829,0.568,7.669,1.077,11.514,1.55
			c-4.155,8.316-8.037,16.756-11.508,25.34c-4.299,10.631-8.379,21.54-12.183,32.636c-6.68-0.656-13.359-1.358-20.045-2.077
			c-9.132-0.982-18.21-2.3-27.306-3.519c3.345-9.145,7.173-18.142,11.688-26.946c5.923-11.55,12.618-22.664,19.945-33.335
			C112.658,208.569,121.854,210.803,131.431,212.223z M136.975,244.66c4.038-10.192,8.604-20.198,13.562-30.024
			c11.355,1.23,22.763,2.121,34.176,2.856c-3.71,12.589-7.105,25.281-10.199,38.182c-1.53,6.38-3.004,12.834-4.401,19.345
			c-0.676-0.014-1.351-0.014-2.026-0.029c-13.851-0.305-27.628-1.278-41.392-2.536C129.94,263.024,133.379,253.736,136.975,244.66z
			 M180.488,259.221c3.271-13.85,6.62-27.666,10.383-41.363c9.056,0.544,18.111,1.03,27.138,1.507
			c5.696,0.301,11.437,0.46,17.204,0.5c0.412,6.711,0.722,13.407,0.88,20.064c0.271,11.415,0.781,22.797,1.24,34.181
			c-20.078,0.868-40.172,1.259-60.289,1.009C178.115,269.802,179.242,264.498,180.488,259.221z M225.616,211.876
			c-10.864-0.187-21.79-0.644-32.715-1.284c2.722-9.464,5.678-18.863,8.995-28.16c3.459-9.698,6.474-19.57,9.482-29.431
			c5.765-0.058,11.543-0.195,17.345-0.422c0.412,4.346,0.842,8.688,1.352,13.016c1.8,15.268,3.466,30.798,4.609,46.301
			C231.661,211.925,228.639,211.928,225.616,211.876z M226.719,131.233c0.458,4.517,0.867,9.044,1.278,13.571
			c-4.764,0.197-9.523,0.397-14.268,0.538c0.256-0.83,0.507-1.662,0.765-2.491c2.981-9.595,6.171-19.942,9.862-29.737
			C224.877,119.281,226.152,125.643,226.719,131.233z M212.153,134.531c-1.354,3.62-2.614,7.275-3.836,10.943
			c-5.204,0.118-10.407,0.195-15.618,0.165c3.899-5.492,7.927-10.893,12.237-16.133c5.113-6.215,11.209-12.369,16.264-19.027
			C217.698,118.33,215,126.918,212.153,134.531z M217.554,106.429c-6.573,6.328-12.549,13.891-18.183,20.282
			c-5.283,5.993-9.997,12.334-14.546,18.81c-2.862-0.072-5.728-0.165-8.601-0.307c-5.602-0.277-11.569-0.399-17.651-0.627
			c16.576-14.273,34.615-26.861,53.716-37.597C214.04,106.773,215.797,106.599,217.554,106.429z M196.679,109.556
			c-7.818,4.873-15.307,10.617-22.172,15.341c-8.796,6.052-17.248,12.355-25.281,19.224c-9.208-0.608-18.4-1.761-26.749-4.35
			C145.204,125.353,170.351,114.906,196.679,109.556z M117.121,143.293c5.482,3.256,11.779,4.005,18.495,5.144
			c2.47,0.418,4.944,0.811,7.422,1.183c-2.003,1.847-3.989,3.722-5.931,5.663c-13.41,13.404-25.586,27.712-36.458,42.978
			c-10.722-3.079-22.989-5.568-32.937-10.525C82.01,170.726,98.705,155.692,117.121,143.293z M64.965,191.069
			c5.716,5.901,16.467,7.575,23.614,10.012c2.728,0.93,5.448,1.824,8.167,2.694c-6.95,10.219-13.31,20.872-19.017,32.006
			c-4.935,9.626-9.081,19.477-12.692,29.493c-1.072-0.135-2.141-0.281-3.213-0.409c-6.815-0.811-13.626-1.704-20.399-2.823
			c-4.091-0.675-10.293-0.887-14.726-2.3C35.223,234.831,48.354,211.578,64.965,191.069z M41.578,371.829
			c-0.722,9.596-2.16,20.452-1.026,30.431c-8.055,0.248-16.629-0.218-21.166-4.499c-8.103-7.648-7.152-25.822-7.585-36.05
			c-0.414-9.776-0.005-19.471,0.873-29.124c9.679,4.737,21.38,6.983,32.407,8.721C43.393,351.423,42.336,361.755,41.578,371.829z
			 M46.207,335.072c-11.226-1.894-22.289-4.367-33.017-7.741c1.328-12.215,3.347-24.366,5.474-36.512
			c1.616-9.232,3.876-18.309,6.721-27.184c5.529,3.892,13.935,4.46,20.111,5.585c5.715,1.041,11.467,1.897,17.225,2.724
			c-6.314,18.823-10.931,38.176-15.367,57.699C46.945,331.44,46.566,333.251,46.207,335.072z M93.177,403.944
			c-13.155-0.994-26.306-2.163-39.504-2.233c-1.572-0.009-3.405,0.074-5.38,0.178c0.442-19.961,0.783-39.713,3.874-59.487
			c1.977,0.3,3.917,0.598,5.788,0.903c13.546,2.216,27.354,3.629,41.167,4.734C95.778,366.682,93.686,385.41,93.177,403.944z
			 M53.231,336.179c0.378-2.019,0.777-4.039,1.222-6.059c4.267-19.373,8.765-38.564,15.067-57.197
			c4.538,0.647,9.075,1.302,13.594,2.044c11.028,1.811,22.259,3.297,33.538,4.5c-6.553,19.996-12.09,40.569-16.168,61.304
			C84.762,339.75,68.869,338.476,53.231,336.179z M131.175,405.189c-10.217,0.406-20.403-0.032-30.58-0.714
			c0.464-18.499,2.549-37.226,5.91-55.869c7.451,0.542,14.892,1.025,22.28,1.505c10.042,0.652,20.075,1.041,30.11,1.312
			c-1.173,17.638-1.198,35.253,0.392,52.556C149.917,404.394,140.547,404.816,131.175,405.189z M126.653,342.383
			c-6.191-0.392-12.451-0.757-18.748-1.143c4.089-20.657,9.652-41.139,16.189-61.017c12.097,1.148,24.217,1.966,36.179,2.433
			c2.737,0.107,5.471,0.187,8.204,0.256c-4.05,19.972-7.283,40.42-9.025,60.901C148.507,343.547,137.567,343.074,126.653,342.383z
			 M236.719,401.338c-9.829,0.097-19.657,0.235-29.484,0.608c-13.606,0.518-27.207,1.119-40.808,1.725
			c-0.074-7.307-0.963-14.871-1.012-21.832c-0.073-10.203,0.222-20.164,0.97-30.219c11.246,0.221,22.496,0.281,33.764,0.253
			c9.246-0.023,18.59,0.062,27.782-0.892c2.779-0.289,5.928-0.493,9.03-0.926c-0.35,8.054-0.625,16.098-0.584,24.103
			c-0.028,0.585-0.076,1.176-0.098,1.76C236.007,383.293,234.187,393.631,236.719,401.338z M237.326,341.914
			c-5.332,1.031-11.553,1.109-16.131,1.414c-9.611,0.641-19.212,0.522-28.839,0.654c-8.42,0.115-16.852,0.07-25.283-0.058
			c0.079-0.806,0.131-1.604,0.216-2.412c2.044-19.568,4.631-39.12,8.221-58.471c19.268,0.276,38.469-0.236,57.765-0.725
			c1.456-0.037,2.912-0.103,4.368-0.154c0.358,9.729,0.633,19.464,0.633,29.23C238.276,321.526,237.802,331.72,237.326,341.914z
			 M237.42,169.235c-0.757-5.632-1.586-11.274-2.447-16.919c8.947-0.406,17.838-0.902,26.697-1.683
			c4.339,8.071,7.963,16.517,10.63,24.985c3.497,11.104,6.354,22.056,8.476,33.186c-12.978,1.538-26.013,2.585-39.073,2.959
			C240.69,197.495,239.298,183.211,237.42,169.235z M243.251,241.633c-0.209-7.205-0.568-14.481-1.003-21.773
			c13.262-0.147,26.648-0.961,40.008-2.423c0.96,6.284,1.7,12.643,2.132,19.156c0.753,11.364,0.402,23.11,1.451,34.544
			c-13.784,1.086-27.574,1.984-41.371,2.66C244.037,263.089,243.563,252.382,243.251,241.633z M245.461,313.304
			c0-10.506-0.297-20.969-0.682-31.424c8.69-0.408,17.381-0.965,26.06-1.461c3.427-0.197,6.842-0.41,10.252-0.703
			c-16.281,13.424-27.892,28.37-35.597,48.345C245.498,323.142,245.461,318.222,245.461,313.304z M284.165,400.384
			c-0.826,0.037-1.649,0.087-2.474,0.122c-11.213,0.473-22.424,0.618-33.633,0.724c1.071-6.699-0.517-15.212-0.547-21.081
			c-0.056-11.033,0.76-22.555,3.159-33.502c12.358,0.414,24.678,0.34,37.026,0.365C282.674,364.398,281.384,382.96,284.165,400.384z
			 M273.509,340.237c-7.064,0.446-14.46,0.094-21.534,1.115c0.234-0.855,0.449-1.719,0.705-2.564
			c4.68-15.389,12.271-28.852,22.752-39.938c12.712,1.485,25.863,0.757,38.835,0.273c-4.227,4.869-8.12,10.008-11.633,15.286
			c-5.2,7.808-9.399,16.403-12.602,25.409C284.522,339.817,279.014,339.888,273.509,340.237z M291.402,400.027
			c-0.842-10.509-1.803-20.815-0.274-31.595c1.011-7.129,2.544-14.326,4.631-21.364c2.327,0.018,4.652,0.023,6.982,0.061
			c15.734,0.261,31.572,0.751,47.237-0.72c-0.262,1.286-0.54,2.568-0.776,3.859c-1.985,10.876-2.734,23.067-1.229,34.008
			c0.516,3.75,0.796,8.264,2.198,12.093C330.573,397.644,311.009,399.038,291.402,400.027z M329.327,339.836
			c-9.511-0.041-19.022,0.067-28.532,0.022c-0.883-0.004-1.766-0.009-2.649-0.015c2.574-7.069,5.768-13.885,9.775-20.142
			c4.676-7.3,10.19-14.394,16.36-20.847c1.559-0.023,3.12-0.051,4.668-0.044c9.24,0.044,18.526-0.388,27.763-0.68
			c4.295-0.135,8.412,0.125,12.507-0.217c-0.143,0.215-0.298,0.421-0.44,0.635c-8.176,12.328-13.541,26.054-17.093,40.301
			C344.301,338.747,336.715,339.868,329.327,339.836z M358.237,395.903c-0.053-1.432-0.183-2.693-0.179-2.459
			c-0.054-3.079-0.162-6.079-0.262-9.167c-0.33-10.162,0.488-20.992,2.228-31.023c0.431-2.488,0.937-4.957,1.482-7.416
			c7.465,2.825,14.735,9.426,20.896,12.487c6.786,3.37,13.893,8.224,21.414,9.49c-0.175,2.408-0.277,4.8-0.269,7.14
			c0.019,5.726-0.003,13.431,1.943,19.646C389.734,394.562,374.03,394.991,358.237,395.903z M409.399,342.174
			c-2.323,5.893-3.922,12.4-4.859,18.953c-1.729-0.919-3.589-1.667-5.378-2.485c-7.417-3.392-15.241-6.543-22.293-10.633
			c-4.365-2.532-9.169-5.904-14.182-7.178c3.093-12.008,7.693-23.543,14.367-34.102c1.506-2.382,3.09-4.674,4.715-6.921
			c5.925,2.337,10.72,6.226,15.32,10.72c5.905,5.77,11.78,14.051,18.742,19.069C413.12,333.913,410.926,338.294,409.399,342.174z
			 M429.167,387.307c-0.274,2.261-0.939,5.063-1.111,7.7c-1.055-0.041-2.109-0.105-3.163-0.135
			c-4.511-0.127-9.008-0.185-13.503-0.23c0.646-4.714,1.465-9.189,1.5-14.271c0.026-3.726,0.217-7.562,0.594-11.398
			c5.625,0.253,11.268,0.084,16.912,0.039C430.461,375.094,429.895,381.291,429.167,387.307z M460.944,397.313
			c-8.345-0.697-16.696-1.426-25.05-1.928c0.446-8.899,1.972-17.472,1.978-26.307c8.612,0.221,17.933,0.658,26.436-0.765
			C463.361,378.001,461.007,387.788,460.944,397.313z M464.713,361.686c-0.002,0.219-0.024,0.439-0.028,0.656
			c-8.818-1.454-18.194-0.353-27.183-0.005c-0.074-0.716-0.116-1.428-0.219-2.15c-1.146-8.066-3.035-22.982-10.255-29.638
			c5.872-8.581,13.588-15.347,22.114-13.133C464.375,321.372,464.83,349.833,464.713,361.686z M488.897,399.072
			c-5.921-0.162-11.846-0.521-17.775-0.955c1.977-9.541,3.257-19.757,3.603-29.892c5.193-0.322,10.453-1.704,15.366-2.873
			c2.563-0.609,5.854-1.078,8.946-1.966c0.034,0.56,0.07,1.135,0.102,1.69C499.824,376.576,500.995,394.627,488.897,399.072z"/>
	</g>
</g>
<g>
</g>
<g>
</g>
<g>
</g>
<g>
</g>
<g>
</g>
<g>
</g>
<g>
</g>
<g>
</g>
<g>
</g>
<g>
</g>
<g>
</g>
<g>
</g>
<g>
</g>
<g>
</g>
<g>
</g>
</svg>
