<?xml version="1.0" encoding="iso-8859-1"?>
<!-- Generator: Adobe Illustrator 19.0.0, SVG Export Plug-In . SVG Version: 6.00 Build 0)  -->
<svg version="1.1" id="Capa_1" xmlns="http://www.w3.org/2000/svg" xmlns:xlink="http://www.w3.org/1999/xlink" x="0px" y="0px"
	 viewBox="0 0 512.001 512.001" style="enable-background:new 0 0 512.001 512.001;" xml:space="preserve">
<g>
	<g>
		<path d="M511.731,458.327c-2.225-15.035-15.713-24.841-29.665-28.883c3.563-6.423,5.651-14.052,6.565-22.867
			c2.728-26.287,0.634-54.035-2.82-80.21c-3.236-24.513-8.622-49.345-18.871-71.936c-2.242-4.942-4.719-9.706-7.364-14.334
			c0.093-0.1,0.194-0.179,0.285-0.289c9.709-11.916,6.239-36.137,6.096-50.399c-0.204-20.32-1.581-42.596-7.345-62.127
			c-6.066-20.557-11.591-41.242-22.48-59.919c-10.702-18.355-24.721-32.444-41.562-45.112C359.671-4.001,308.117-4.48,268.024,8.991
			c-40.091,13.47-79.764,32.843-100.992,71.458c-22.138,40.27-29.766,95.197-19.044,139.935
			c-6.787,7.761-13.067,16.002-18.824,24.653c-1.507,2.152-2.957,4.338-4.363,6.551c-7.017-10.646-17.896-18.219-27.056-26.965
			c-8.181-7.811-16.558-17.794-27.553-21.653c-26.649-9.354-46.215,26.926-55.682,45.884c-3.587,7.183-6.661,14.619-9.803,22.003
			c-2.063,4.85-4.951,10.193-4.69,15.609c0.554,11.495,13.32,21.429,21.549,27.943c11.074,8.765,23.373,15.37,35.808,21.948
			c9.679,5.121,20.848,11.529,31.854,13.98c-3.257,15.009-5.913,30.111-6.854,45.513c-0.914,14.957-1.458,34.309,6.542,48.017
			c-7.467,4.789-12.549,14.458-12.628,22.722c-0.155,16.167,19.219,23.053,32.263,26.218c41.299,10.02,83.12,13.592,125.452,16.592
			c43.977,3.117,88.334,2.171,132.393,2.266c37.617,0.081,77.832,0.861,112.473-16.055
			C493.562,488.436,514.63,477.93,511.731,458.327z M168.348,109.882c7.041-19.055,17.268-38.018,32.923-51.387
			c14.649-12.51,33.005-23.469,51.084-30.174c37.214-13.8,84.865-23.277,121.969-3.329c35.727,19.207,54.954,53.376,65.785,91.022
			c3.082,10.714,6.866,21.233,8.146,32.354c1.064,9.244,1.578,18.521,2.411,27.78c0.978,10.864,0.768,21.918,0.634,32.825
			c-0.06,4.911,0.053,11.534-0.468,17.427c-4.209-5.95-8.79-11.566-13.684-16.867c1.597-9.663-0.052-20.566-0.299-29.756
			c-0.42-15.625-1.627-31.662-5.047-46.937c-6.879-30.724-21.02-70.504-50.615-85.908c-13.008-6.771-26.669-13.105-41.343-14.762
			c-17.533-1.98-35.547-1.6-52.618,3.327c-33.671,9.716-62.602,27.158-83.836,55.369c-20.067,26.66-31.864,66.971-24.057,100.279
			c-8.647,6.549-16.757,13.741-24.266,21.548C157.062,177.786,155.899,143.574,168.348,109.882z M365.581,163.33
			c-47.276-16.245-100.052-15.319-146.088,4.369c-11.387,4.87-22.031,10.813-32.006,17.595c0.326-4.833,0.278-9.716,0.842-14.593
			c1.102-9.515,1.96-19.352,4.91-28.442c6.348-19.558,12.977-36.301,26.655-52.109c26.746-30.911,69.242-48.451,109.965-46.428
			c17.816,0.885,39.297,8.25,53.813,19.169c15.217,11.447,24.43,35.981,30.044,53.229c6.089,18.705,8.176,37.184,9.105,56.697
			c0.368,7.738,0.977,15.929,0.954,23.737C407.029,182.05,387.379,170.82,365.581,163.33z M396.26,193.012
			c-32.046,14.06-66.979,16.819-101.852,13.331c-18.388-1.84-37.094-3.493-55.034-8.046c-10.495-2.663-21.628-6.21-32.645-8.366
			C263.578,158.993,341.478,157.567,396.26,193.012z M192.9,198.306c2.043-1.381,4.123-2.717,6.236-4.011
			c11.821,6.742,27.245,8.991,39.831,12.317c19.351,5.115,40.06,7.15,59.946,9.035c21.296,2.018,41.702,0.893,62.818-2.002
			c13.959-1.913,31.462-5.513,42.97-14.761c5.937,4.472,11.555,9.412,16.769,14.858c5.653,5.905,10.188,12.326,14.839,18.983
			c26.667,38.167,36.183,85.642,36.913,131.696c0.288,18.162,6.333,49.966-9.237,63.581c-8.449,7.387-24.175,10.224-34.973,11.339
			c-10.867,1.123-21.961,1.563-32.866,2.255c-11.269,0.715-22.583,0.393-33.842-0.262c-11.36-0.66-22.74,0.627-34.102,1.096
			c-22.571,0.931-45.081,2.112-67.631,3.035c-43.815,1.793-88.61,4.793-132.041-3.086c-6.402-1.161-19.078-1.126-23.814-5.015
			c-2.377-1.952-3.808-4.922-4.784-8.175c-1.351-8.18-0.885-17.464-1.058-25.332c-0.246-11.191-0.594-22.49,0.312-33.664
			c0.003-0.034,0.007-0.068,0.011-0.102c1.496-8.735,3.37-17.304,5.15-25.359c3.107-14.061,6.26-28.224,10.228-42.124
			C129.027,262.144,157.184,222.447,192.9,198.306z M14.216,285.596c-0.361-5.122,4.463-12.344,6.537-17.09
			c2.384-5.456,4.894-10.84,7.688-16.1c5.129-9.656,10.793-20.072,18.65-27.783c4.526-4.441,10.994-10.234,17.957-8.822
			c4.822,0.978,9.329,5.487,12.931,8.589c-7.832,13.171-16.737,25.852-24.809,38.906c-8.075,13.058-14.005,28.258-22.265,41.222
			C23.729,299.446,14.682,292.217,14.216,285.596z M64.484,324.195c-9.51-4.875-19.036-9.64-27.845-15.723
			c-0.271-0.187-0.576-0.396-0.875-0.599c9.989-11.905,16.631-27.309,24.799-40.256c7.551-11.971,17.57-24.221,24.271-37.073
			c10.829,10.017,21.342,19.98,32.04,30.147c0.549,0.521,1.117,1.033,1.695,1.526c-1.564,2.853-3.084,5.733-4.511,8.67
			c-1.325,2.592-2.627,5.198-3.872,7.837c-8.151,17.282-13.396,35.937-17.111,54.793c-0.229,0.966-0.453,1.933-0.681,2.898
			C83.421,335.018,72.395,328.251,64.484,324.195z M477.332,478.625c-16.828,9.116-35.082,13.73-54.045,15.554
			c-38.911,3.741-78.324,2.217-117.409,2.302c-40.139,0.087-80.238-1.963-120.218-5.492c-20.06-1.771-40.408-3.855-60.008-8.607
			c-8.836-2.142-18.679-2.86-26.835-7.092c-5.097-2.643-10.653-5.492-9.013-12.84c0.696-3.112,3.248-7.629,6.362-10.493
			c4.599,2.814,10.342,3.55,15.812,4.322c12.132,1.712,24.218,4.025,36.457,5.087c25.813,2.241,51.069,2.84,76.965,1.436
			c50.956-2.763,102.231-4.96,153.226-4.703c25.583,0.129,52.867-0.918,77.378-8.625c5.853-1.84,10.755-4.303,14.878-7.324
			c0.156,0.062,0.295,0.146,0.459,0.198c8.697,2.763,17.852,5.486,22.829,13.932C500.721,467.395,485.233,474.344,477.332,478.625z"
			/>
	</g>
</g>
<g>
</g>
<g>
</g>
<g>
</g>
<g>
</g>
<g>
</g>
<g>
</g>
<g>
</g>
<g>
</g>
<g>
</g>
<g>
</g>
<g>
</g>
<g>
</g>
<g>
</g>
<g>
</g>
<g>
</g>
</svg>
