<?xml version="1.0" encoding="iso-8859-1"?>
<!-- Generator: Adobe Illustrator 19.0.0, SVG Export Plug-In . SVG Version: 6.00 Build 0)  -->
<svg version="1.1" id="Capa_1" xmlns="http://www.w3.org/2000/svg" xmlns:xlink="http://www.w3.org/1999/xlink" x="0px" y="0px"
	 viewBox="0 0 512 512" style="enable-background:new 0 0 512 512;" xml:space="preserve">
<g>
	<g>
		<path d="M508.4,210.246c2.982-12.462,1.135-26.947-5.402-38.063c-3.276-5.571-8.243-9.301-12.428-14.043
			c-7.875-8.926-2.071-15.156,0.892-24.751c8.635-27.977-16.934-42.738-39.828-51.058c-5.117-1.86-16.592-3.09-19.962-7.707
			c-3.897-5.338-1.354-16.298-3.899-22.803c-4.223-10.797-18.003-19.774-28.744-22.962c-13.901-4.125-27.817,0.935-40.944,5.163
			c-4.83,1.556-9.026,3.971-13.944-0.054c-2.634-2.156-4.65-6.749-6.535-9.615c-3.487-5.303-7.063-10.402-12.111-14.348
			c-20.391-15.941-54.646-8.577-76.006,1.264c-11.854,5.461-22.491,12.76-32.863,20.625c0.284-0.215-7.14,4.217-8.066,6.56
			c-0.138-1.611,0.138-4.409,0.144-4.897c0.059-4.615,0.845-9.592-0.446-14.125c-2.219-7.793-9.254-10.389-16.62-7.752
			c-8.668,3.103-15.143,10.753-20.302,18.448c0.392-3.791,0.689-7.61,0.599-11.376c-0.201-8.374-3.183-18.803-13.42-18.752
			c-11.881,0.059-21.899,16.387-26.813,25.338c-3.762,6.854-6.638,14.28-8.905,21.751c-0.325,1.069-0.606,2.193-0.865,3.35
			c-0.484-3.527-0.907-7.061-1.505-10.57c-1.229-7.211-4.071-17.546-13.18-17.612c-11.092-0.08-14.72,13.887-17.146,22.218
			c-2.215,7.606-3.314,15.416-3.493,23.333c-0.078,3.468,0.021,6.956,0.122,10.432c-6.516-11.092-11.799-24.66-23.784-27.995
			c-11.931-3.322-16.645,9.547-17.164,19.24c-0.391,7.303,1.019,14.788,3.542,21.622c3.136,8.492,16.055,21.831,10.493,31.061
			c-3.185,5.286-10.615,8.451-14.534,13.43c-2.006,2.549-3.496,6.442-6.16,8.418c-3.109,2.306-8.333,3.719-11.791,5.704
			c-9.199,5.281-21.772,12.398-23.641,23.876c-0.995,6.112,1.593,10.764,5.225,15.427c4.95,6.357,15.905,12.088,9.486,20.779
			C9.977,221.21,0.278,229.391,2.55,245.087c1.665,11.494,9.117,22.107,18.963,28.439c-7.749,8.784-11.37,19.83-9.985,31.693
			c1.517,12.994,7.843,26.107,20.237,31.694c5.472,2.466,11.687,3.433,17.664,3.206c2.78-0.105,8.317-2.02,12.002-2.639
			c6.563,17.735,14.934,35.092,23.797,51.795c6.668,12.566,15.912,28.281,29.61,34.576c-0.21,0.118-0.422,0.24-0.632,0.358
			c-17.684,9.955-34.783,20.887-52.025,31.54c-7.566,4.675-13.945,3.316-22.37,4.315c-8.42,0.999-16.463,4.866-22.312,11.101
			c-8.901,9.489-6.976,24.01,1.928,32.64c9.348,9.061,25.627,10.36,37.177,5.121c6.702-3.04,11.476-8.798,14.841-15.233
			c1.688-3.228,2.422-7.625,4.796-10.401c2.26-2.642,6.852-5.047,9.8-6.747c18.361-10.577,37.314-20.242,55.684-30.892
			c2.146-1.244,4.254-2.533,6.384-3.796c6.097,9.973,19.576,13.651,29.782,17.927c18.068,7.569,35.129,11.424,54.518,13.704
			c19.068,2.242,36.785,2.865,55.733-0.606c19.779-3.623,37.116-8.894,55.706-16.644c33.179-13.831,63.863-37.015,85.158-66.064
			c10.436-14.234,15.299-31.16,17.906-48.353c0.654-4.313,0.418-7.041,3.395-8.971c3.201-2.075,10.173-2.448,13.899-3.876
			c8.026-3.077,16.051-7.884,22.46-13.648c10.332-9.294,19.203-26.926,11.344-40.257c-3.429-5.816-9.413-9.078-15.616-11.229
			c-2.332-0.809-4.833-1.477-7.42-2.086C489.907,247.658,503.826,229.366,508.4,210.246z M75.684,472.117
			c-4.093,2.503-7.368,3.661-9.75,7.93c-4.822,8.641-6.723,17.89-17.873,20.53c-9.617,2.277-22.093-0.845-24.581-11.323
			c-2.966-12.489,11.849-18.044,21.795-18.531c5.783-0.283,10.381,0.256,15.648-2.291c7.489-3.621,13.956-9.109,21.026-13.441
			c13.955-8.552,27.891-17.25,42.027-25.5c16.758-9.78,33.629-19.32,50.561-28.793c7.531-4.214,15.049-8.482,22.616-12.621
			c2.374-1.299,4.995-2.444,7.614-3.641c2.953-0.827,5.885-1.996,8.886-2.573c6.237-1.2,12.51-1.936,18.83-2.146
			c-7.449,4.546-14.765,9.456-22.425,13.51c-14.968,7.924-28.962,17.728-43.112,27.019
			C137.652,439.482,105.456,453.911,75.684,472.117z M484.403,279.904c5.287,6.27,2.392,14.186-1.788,20.241
			c-5.617,8.135-15.903,14.324-25.275,17.398c-6.669,2.188-15.367,0.66-20.036,6.839c-5.473,7.243-4.459,18.843-6.583,27.247
			c-2.194,8.681-5.685,17.303-10.173,25.036c-10.088,17.382-26.445,31.27-42.19,43.339c-31.387,24.058-71.931,38.588-111.29,41.558
			c-18.959,1.43-40.489-1.418-59.126-5.243c-10.56-2.167-20.51-6.631-30.66-10.163c-7.508-2.612-15.422-4.325-22.215-8.432
			c15.486-9.371,30.661-19.13,45.989-28.865c15.585-9.9,31.48-17.76,46.303-28.669c13.301,1.268,25.375,4.936,36.785,12.623
			c3.774,2.542,6.877-2.777,4.483-5.81c-15.834-20.062-70.137-24.224-88.868-6.057c-16.843,5.704-32.816,13.674-48.393,22.183
			c-5.851,3.197-15.419,11.554-21.898,12.406c-5.992,0.786-9.164-4.468-13.571-7.786c-3.899-2.936-6.38-6.288-9.235-10.196
			c-5.785-7.921-10.378-16.608-14.555-25.49c-4.589-9.754-9.593-19.439-14.076-29.204c-2.401-5.232-3.171-14.49-8.263-17.964
			c-5.002-3.412-11.277,0.307-16.419,1.289c-10.43,1.993-20.631,0.415-26.558-9.331c-8.356-13.74-5.242-30.077,4.466-42.253
			c8.494-10.653,22.125-9.266,26.524,4.616c0.193,1.365,0.337,2.784,0.404,4.332c0.14,3.248,0.3,6.683,1.629,9.717
			c2.384,5.439,8.252,9.294,14.226,8.902c16.947-1.11,18.026-19.63,15.792-32.106c-0.902-5.037-2.223-9.978-3.253-14.987
			c-0.172-0.837-1.121-6.076-1.711-6.95c0.494,0.049,1.691,0.06,3.106,0.137c7.109,0.386,13.729-0.207,19.78-4.359
			c6.192-4.248,10.078-10.963,11.271-18.292c0.993-6.103-0.362-10.459-2.408-15.142c7.008-2.183,13.862-7.091,16.621-13.397
			c3.061-6.995,0.488-13.784-1.465-20.691c-0.963-3.404-1.638-7.362-2.901-10.659c-2.026-5.291-2.607-4.013,0.978-2.49
			c10.709,4.549,20.947-0.835,28.561-8.887c4.155-4.394,6.784-9.989,8.817-15.628c0.761-2.112,2.032-9.668,3.6-15.522
			c-0.157,6.387-1.601,13.795-1.542,18.02c0.114,8.148,1.207,16.085,3.243,23.975c2.851,11.05,9.835,31.225,23.967,31.256
			c14.886,0.032,22.083-18.694,25.566-30.352c2.482-8.308,3.941-16.72,5.118-25.289c0.962,9.126,1.742,18.395,3.694,27.373
			c2.363,10.872,8.653,29.875,21.172,32.909c15.437,3.741,22.965-15.979,26.417-27.082c1.708-5.495,2.795-11.067,3.509-16.682
			c6.356,16.071,16.047,30.001,32.989,31.682c11.373,1.127,17.627-6.833,20.068-17.15c1.37-5.792,1.786-11.819,1.553-17.779
			c1.017,1.423,2.061,2.825,3.186,4.165c6.78,8.08,14.054,13.711,24.454,16.103c9.021,2.074,17.786,2.003,25.874-2.934
			c4.082-2.492,7.655-5.892,10.825-9.442c0.1-0.111,0.206-0.265,0.309-0.394c-0.06,6.013-0.82,13.258-0.99,16.648
			c-0.336,6.702-0.879,13.491,1.159,20.014c3.271,10.465,10.391,12.971,18.85,13.059c-2.933,12.053-2.12,25.378,2.989,36.573
			c6.968,15.266,23.583,27.134,40.333,28.648C471.186,277.198,478.492,272.895,484.403,279.904z M467.709,247.005
			c-3.367,3.585-5.439,7.43-7.589,11.451c-12.185-3.042-23.348-7.944-26.33-22.376c-2.051-9.933-2.491-19.38,2.119-28.779
			c2.011-4.101-0.307-10.961-5.901-10.285c-6.358,0.769-12.798,3.82-16.368-3.066c-2.822-5.445-1.157-14.063-1.134-20.004
			c0.029-7.668,2.569-24.472-4.19-30.274c-2.164-1.858-4.846-2.294-7.402-0.955c-4.795,2.511-7.453,8.54-11.535,12.202
			c-8.236,7.39-16.266,9.357-26.846,5.365c-16.076-6.065-21.658-25.057-31.875-37.091c-3.768-4.439-10.682-0.619-10.864,4.5
			c-0.303,8.522,10.3,57.817-10.358,44.658c-17.878-11.389-20.887-38.522-26.03-57.075c-1.986-7.164-12.576-5.584-12.794,1.732
			c-0.353,11.852,0.168,23.448-1.22,35.405c-0.87,7.497-2.135,14.816-4.763,21.909c-0.723,1.949-4.166,11.973-6.713,13.278
			c-4.073,2.088-8.021-3.149-9.74-5.683c-14.144-20.844-8.803-48.54-16.474-71.38c-0.928-2.764-4.988-4.569-7.166-1.892
			c-6.879,8.455-7.611,23.223-9.906,33.576c-1.693,7.64-7.433,42.03-18.357,40.475c-11.739-1.672-15.173-32.666-16.108-41.483
			c-0.997-9.399,1.797-23.603-3.184-31.957c-1.083-1.817-3.103-2.475-5.096-2.074c-8.666,1.744-8.982,12.38-10.941,19.301
			c-2.259,7.981-4.87,15.847-10.821,21.885c-3.356,3.405-6.314,5.481-11.059,6.513c-5.023,1.093-5.685-0.474-10.007-1.579
			c-6.709-1.715-10.023,1.941-9.917,8.714c0.195,12.43,12.792,40.032-9.334,40.138c-3.332,0.016-5.125,3.02-4.598,6.036
			c1.341,7.681,2.861,15.434-2.206,22.357c-4.868,6.65-10.734,5.025-17.722,5.798c-10.119,1.12-11.223,5.826-9.059,14.437
			c1.791,7.13,3.413,14.49,4.737,21.725c1.045,5.709,2.729,11.979-1.503,17.098c-6.488,7.85-12.355-1.335-13.072-7.882
			c-0.598-5.458-1.709-9.528-3.729-12.787c-2.82-8.779-7.981-14.888-21.057-10.714c-5.256,1.678-9.666,4.493-13.285,8.056
			c-13.897-9.774-18.752-28.477-6.823-42.041c6.519-7.413,15.335-12.123,13.21-23.47c-0.835-4.459-3.021-8.278-6.008-11.646
			c-3.07-3.462-11.376-8.746-10.78-14.05c1.118-9.962,22.405-15.923,29.013-20.423c4.003-2.726,5.158-6.273,7.872-10.038
			c3.522-4.887,8.819-8.098,13.094-12.236c8.434-8.163,9.303-16.185,3.896-26.428c-3.401-6.441-7.933-12.192-10.733-18.949
			c-1.74-4.2-6.788-18.361-3.17-22.651c6.288-7.454,16.037,13.629,18.089,17.306c3.29,5.895,6.259,11.99,11.379,16.5
			c2.477,2.182,5.99,2.34,8.464,0c6.143-5.812,3.362-18.526,3.468-25.98c0.1-7.062,0.399-13.882,2.127-20.781
			c0.361-1.443,3.77-15.289,4.899-15.524c1.08-0.225,2.76,16.047,3.173,19.052c1.091,7.952,1.087,20.689,7.053,26.942
			c3.231,3.387,8.263,2.098,10.689-1.378c6.939-9.938,7.258-25.134,11.445-36.527c2.279-6.201,5.203-12.181,8.898-17.667
			c2.064-3.065,4.436-5.777,6.91-8.506c3.087-3.406,2.294-3.744,3.679-1.159c3.506,6.539-10.169,47.626,10.607,38.457
			c6.63-2.927,9.915-13.005,13.617-18.494c2.515-3.728,7.136-10.409,11.826-12.13c3.601-1.321,1.831-1.614,2.204,2.47
			c0.198,2.163-0.287,4.452-0.365,6.628c-0.209,5.91-0.234,13.206,5.732,16.472c8.678,4.751,19.095-4.943,25.635-9.587
			c22.514-15.989,49.672-29.86,78.191-23.848c15.103,3.184,18.445,15.439,26.94,26.322c6.889,8.826,15.64,9.82,26.065,7.042
			c16.029-4.272,28.703-11.891,44.585-2.361c7.65,4.591,11.564,8.455,12.351,18.026c0.446,5.418-0.037,10.765,2.921,15.626
			c5.419,8.907,17.073,10.759,26.089,13.808c10.376,3.51,27.854,9.584,33.352,19.761c7.435,13.765-10.923,28.619-4.825,43.557
			c1.983,4.859,5.813,8.334,9.479,11.938c6.25,6.147,10.627,12.626,12.13,21.509c2.72,16.083-5.787,30.327-15.665,42.169
			C475.307,238.447,471.685,242.771,467.709,247.005z"/>
	</g>
</g>
<g>
	<g>
		<path d="M179.143,251.277c-1.976-1.545-4.556-1.913-6.51,0c-2.638,2.583-2.745,5.21-4.221,8.48
			c-1.752,3.881-4.362,5.964-8.421,7.322c-8.567,2.864-17.987-1.673-20.489-10.391c-0.764-2.664-4.476-3.173-5.895-0.771
			c-8.823,14.937,12.965,26.896,25.317,26.165c7.319-0.434,15.099-4.039,19.884-9.627
			C183.751,266.684,185.845,256.519,179.143,251.277z"/>
	</g>
</g>
<g>
	<g>
		<path d="M366.455,251.533c-1.047-4.261-6.625-5.533-9.635-2.545c-5.441,5.401-5.418,15.141-14.113,17.417
			c-3.759,0.983-7.84-0.205-11.056-2.167c-4.968-3.029-5.819-7.121-7.604-12.273c-0.461-1.331-2.173-1.276-2.655,0
			c-4.961,13.128,4.572,26.958,18.603,28.321C355.404,281.782,370.282,267.106,366.455,251.533z"/>
	</g>
</g>
<g>
	<g>
		<path d="M298.165,281.26c-2.641-1.57-5.673,1.545-4.167,4.167c2.712,4.718,9.514,8.207,10.728,13.579
			c2.46,10.895-10.478,13.185-17.668,14.942c-4.473,1.092-6.718,2.316-9.278,6.061c-2.786,4.076-2.775,6.77-7.995,9.772
			c-5.379,3.093-12.55,2.273-18.274,1.11c-9.874-2.007-14.776-6.046-21.579-12.969c-2.86-2.911-5.5-4.568-9.519-5.464
			c-7.862-1.751-17.577,0.181-18.396-10.937c-0.486-6.59,7.499-20.439,15.349-20.781c1.102-0.048,1.78-1.724,0.613-2.26
			c-14.078-6.466-29.805,18.534-23.902,30.534c4.52,9.188,12.591,9.747,21.348,11.943c7.751,1.942,10.247,7.284,16.227,11.715
			c3.549,2.63,7.494,4.2,11.693,5.513c10.467,3.273,22.914,5.134,32.443-1.383c4.182-2.861,5.646-6.24,8.823-9.881
			c4.232-4.851,9.266-4.459,15.157-6.84c8.259-3.338,14.438-10.214,14.306-19.629C313.935,290.575,305.544,285.646,298.165,281.26z"
			/>
	</g>
</g>
<g>
	<g>
		<path d="M465.949,285.665c-5.176-2.921-10.498-3.387-15.79-0.38c-4.677,2.657-8.417,7.647-8.534,13.181
			c-0.099,4.677,3.066,11.709,8.788,10.51c2.451-0.513,3.195-2.56,5.086-3.784c2.122-1.374,4.868-0.543,7.172-1.657
			c2.081-1.007,2.012-3.802,0.684-5.31c-2.215-2.516-5.606-2.87-8.716-2.027c-1.553,0.421-3.119,1.13-4.419,2.075
			c-0.137,0.099-0.255,0.235-0.383,0.354c0.013-0.848,0.108-1.679,0.164-1.922c0.455-1.966,1.696-3.573,3.238-4.831
			c1.357-1.108,3.054-2.142,4.724-2.679c0.657-0.211,6.271-1.029,6.271-1.029c0.53,0.819,2.132,0.85,2.312-0.301
			c0.028-0.176,0.055-0.353,0.083-0.529C466.731,286.686,466.564,286.011,465.949,285.665z"/>
	</g>
</g>
<g>
	<g>
		<path d="M55.76,299.562c-0.455-2.356-1.103-4.727-1.93-6.98c-1.451-3.953-3.831-8.086-8.165-9.327
			c-6.503-1.861-17.417,7.756-10.336,13.213c1.626,1.253,3.509-1.103,2.648-2.648c-0.939-1.687,3.941-4.418,5.123-4.246
			c2.164,0.314,3.233,3.759,3.772,5.555c0.477,1.588,0.905,3.24,1.196,4.876c-1.608-0.285-3.287-0.196-5.183,0.621
			c-4.096,1.765-5.701,4.744-6.812,8.776c-0.609,2.208,1.777,3.781,3.678,2.827c1.912-0.96,3.158-2.701,5.073-3.54
			c2.627-1.152,4.591,0.371,7.054,1.318c2.693,1.035,4.734-1.551,5.032-3.833C57.189,304.032,56.167,301.675,55.76,299.562z"/>
	</g>
</g>
<g>
	<g>
		<path d="M161.691,209.205c-1.353,5.407-4.561,21.931-12.148,22.673c-10.692,1.046-1.279-11.767,1.872-15.014
			c2.22-2.29,4.331-4.733,6.316-7.225c5.845-7.338,10.061-15.018,6.941-24.423c-0.775-2.336-4.193-1.394-3.684,1.016
			c2.861,13.52-12.048,22.991-19.74,31.747c-4.509,5.134-5.726,11.956-1.07,17.464c13.101,15.501,25.26-16.437,25.316-25.723
			C165.507,207.558,162.228,207.063,161.691,209.205z"/>
	</g>
</g>
<g>
	<g>
		<path d="M133.184,334.447c-1.353,5.407-4.561,21.93-12.148,22.672c-10.693,1.046-1.28-11.767,1.872-15.015
			c2.22-2.289,4.332-4.733,6.317-7.224c5.845-7.338,10.061-15.018,6.941-24.423c-0.775-2.336-4.193-1.394-3.684,1.016
			c2.861,13.52-12.048,22.99-19.74,31.747c-4.509,5.134-5.726,11.956-1.07,17.464c13.1,15.501,25.259-16.436,25.315-25.723
			C137,332.8,133.721,332.304,133.184,334.447z"/>
	</g>
</g>
<g>
	<g>
		<path d="M394.408,361.252c-7.693-8.756-22.602-18.227-19.741-31.747c0.51-2.409-2.908-3.352-3.683-1.016
			c-3.12,9.405,1.096,17.085,6.941,24.423c1.985,2.492,4.097,4.935,6.316,7.225c3.151,3.247,12.564,16.06,1.872,15.014
			c-7.587-0.741-10.794-17.265-12.148-22.672c-0.536-2.142-3.816-1.647-3.802,0.514c0.056,9.286,12.215,41.224,25.315,25.723
			C400.133,373.208,398.917,366.386,394.408,361.252z"/>
	</g>
</g>
<g>
	<g>
		<path d="M47.692,485.619c-0.396-2.955-2.886-5.913-6.115-5.729c-0.381,0.022-0.75,0.096-1.112,0.193
			c-0.74,0.077-1.477,0.28-2.175,0.649c-2.565,1.355-3.998,4.479-3.223,7.3c0.127,0.465,0.328,0.894,0.559,1.307
			c0.038,0.083,0.06,0.167,0.103,0.251c1.334,2.576,4.928,4.017,7.739,3.672c1.718-0.211,2.931-1.004,3.512-2.674
			c0.244-0.702,0.375-1.474,0.448-2.259C47.707,487.468,47.817,486.548,47.692,485.619z"/>
	</g>
</g>
<g>
</g>
<g>
</g>
<g>
</g>
<g>
</g>
<g>
</g>
<g>
</g>
<g>
</g>
<g>
</g>
<g>
</g>
<g>
</g>
<g>
</g>
<g>
</g>
<g>
</g>
<g>
</g>
<g>
</g>
</svg>
