<svg viewBox="-65 0 512 512.00151" xmlns="http://www.w3.org/2000/svg"><path d="m333.320312 114.457031c-11.613281-3.410156-23.710937-4.003906-35.480468-4.414062l-.742188-37.601563c-.082031-4.167968-.21875-11.152344-5.007812-15.636718-3.804688-3.5625-8.832032-4.121094-13.65625-4.386719-.804688-.046875-1.609375-.082031-2.414063-.125l-.578125-36.429688c-.050781-3.136719-.125-7.871093-3.335937-11.398437-3.433594-3.773438-8.40625-4.128906-12.800781-4.164063l-38.714844-.29687475c-2.230469-.01953125-5.601563-.04296875-8.421875 2.07031275-4.308594 3.234375-4.171875 8.933593-4.105469 11.675781l.085938 3.664062-96.445313-1.671874c-14.035156-.246094-28.542969-.496094-42.761719 2.523437-11.429687 2.429687-27.34375 8.144531-38.230468 21.574219-12.167969 15.011718-14.457032 35.375-16.292969 51.742187-.332031 2.929688-1.015625 9.027344 3.363281 12.765625 2.414062 2.0625 5.355469 2.488282 7.8125 2.488282 1.011719 0 1.941406-.070313 2.71875-.132813l23.339844-1.820313c1.164062-.089843 2.230468-.679687 2.925781-1.621093.695313-.9375.949219-2.128907.695313-3.269531-3.796876-17.121094 5.019531-36.230469 20.511718-44.449219 11.898438-6.3125 26.582032-6.46875 39.53125-6.601563l93.570313-.992187.074219 3.050781c-.960938.011719-1.925782.019531-2.886719.035156-3.800781.066406-10.878907.1875-14.988281 5.347656-2.980469 3.742188-3.039063 8.582032-3.082032 11.785157l-.457031 36.453125c-32.429687 2.988281-55.285156 14.203125-69.480469 34.054687-14.089844 19.703125-15.964844 44.242188-16.757812 69.765625-2.171875 70.132813-.78125 141.183594 4.128906 211.1875 1.433594 20.445313 3.957031 41.679688 17.375 56.835938 11.78125 13.308594 29.292969 18.945312 46.464844 23.050781 34.722656 8.300781 70.242187 12.484375 105.882812 12.484375 7.109375 0 14.226563-.164062 21.339844-.5 18.746094-.878906 38.164062-3.300781 53.171875-14.984375 13.789063-10.734375 20.128906-26.65625 23.019531-38.125 3.605469-14.292969 3.992188-29.023437 4.367188-43.269531l4.90625-187.007813c.835937-32.007812 2.585937-98.605469-48.644532-113.65625zm-116.3125-105.933593c.636719-.476563 2.445313-.464844 3.515626-.457032l38.71875.300782c2.6875.019531 5.65625.15625 6.898437 1.523437 1.074219 1.179687 1.199219 3.660156 1.238281 6.101563l.324219 20.265624-51.011719.941407-.570312-23.644531c-.023438-1.058594-.101563-4.289063.886718-5.03125zm-170.011718 75.683593c-.050782-.007812-.097656-.019531-.148438-.023437l-23.277344-1.1875c.449219-3.351563.992188-6.777344 1.679688-10.199219l23.425781 4.363281c-.726562 2.308594-1.292969 4.664063-1.679687 7.046875zm-19.308594 14.457031c-1.328125.105469-3.796875.296876-4.667969-.445312-1.125-.964844-.722656-4.558594-.589843-5.738281.199218-1.777344.40625-3.609375.628906-5.472657l23.445312 1.195313c-.238281 2.992187-.199218 6 .140625 8.984375zm87.546875-57.789062c-13.871094.148438-29.59375.3125-43.226563 7.542969-10.011718 5.3125-17.695312 14.417969-21.945312 24.902343l-23.945312-4.460937c2.078124-8.667969 5.3125-17.097656 10.859374-23.941406 9.398438-11.597657 23.480469-16.601563 33.640626-18.761719 13.320312-2.832031 27.367187-2.585938 40.945312-2.351562l96.78125 1.679687.347656 14.402344zm101.554687.351562 50.976563-.9375.183594 11.609376c-16.925781-.757813-33.980469-1.085938-50.925781-.984376zm-19.398437 20.179688c1.53125-1.921875 5.148437-2.246094 8.824219-2.308594 23.828125-.410156 47.976562.050782 71.773437 1.371094 3.480469.191406 6.757813.507812 8.589844 2.222656 2.128906 1.992188 2.382813 5.988282 2.460937 9.910156l.421876 21.421876c-31.042969-4.40625-62.535157-4.910157-93.695313-1.507813l.304687-24.246094c.035157-2.890625.160157-5.402343 1.320313-6.863281zm-1.675781 35.171875c31.203125-3.449219 62.746094-2.941406 93.828125 1.527344l.226562 11.636719c-.75-.03125-1.503906-.050782-2.253906-.085938-11.3125-.523438-22.828125-1.660156-33.960937-2.753906-10.972657-1.082032-22.316407-2.199219-33.5625-2.746094-3.96875-.195312-7.65625-.308594-11.28125-.347656-4.519532-.046875-8.875.042968-13.089844.246094zm88.773437 33.449219c.082031 2.039062.074219 3.964844-.890625 5.085937-.9375 1.089844-2.753906 1.347657-4.582031 1.410157l.644531-19.242188c1.445313.09375 2.890625.183594 4.335938.261719zm-42.238281 70.871094c18.773438 6.132812 33.925781 7.707031 47.671875 4.945312 6.621094-1.328125 12.894531-3.707031 18.960937-6.003906 5.238282-1.984375 10.183594-3.859375 15.335938-5.121094 9.097656-2.222656 24.222656-2.273438 27.792969 4.671875 1.316406 2.5625 1.191406 9.019531 1.109375 13.292969-.039063 1.890625-.074219 3.679687-.015625 5.164062.308593 7.808594.171875 15.609375 0 22.207032l-4.160157 158.554687c-.304687 11.675781-.621093 23.742187-3.476562 35.0625-2.164062 8.589844-6.851562 20.464844-16.871094 28.265625-11.082031 8.628906-26.183594 10.457031-40.851562 11.144531-35.566406 1.667969-71.15625-1.6875-105.785156-9.96875-13.371094-3.195312-26.929688-7.496093-35.550782-17.234375-9.835937-11.113281-11.703125-27.046875-12.875-43.773437-4.148437-59.097657-5.320312-119.085938-3.488281-178.300781.054687-1.691407.066406-3.304688.078125-4.867188.050781-7.28125.085938-12.539062 4.183594-18.75 4.707031-7.136719 12.386718-12.902344 21.066406-15.816406 5.507812-1.84375 11.558594-2.769532 18.128906-2.769532 7.710938 0 16.132813 1.273438 25.195313 3.820313.429687.121094.859375.246094 1.289062.371094 7.941407 2.308593 15.878907 5.351562 23.554688 8.292969 1.722656.660156 3.46875 1.328124 5.226562 1.992187-1.5 18.519531-2.453125 37.089844-2.890625 55.609375-.949218 0-1.902344.003906-2.851562.003906-.011719 0-.019532 0-.03125 0-4.886719 0-10.019532-.265625-15.453125-.550781-7.363281-.382813-14.976563-.777344-22.390625-.5-6.050782.238281-11.234375.890625-15.84375 2-8.246094 1.964844-14.816406 6.726563-18.015625 13.058594-2.792969 5.503906-2.875 11.585937-2.714844 17.34375.476563 16.945312 2.527344 33.949219 4.507813 50.394531.628906 5.164062 1.339843 11.019531 4.3125 16.226562 5.292968 9.230469 15.4375 9.957032 23.585937 10.542969l.132813.007813c15.898437 1.152344 32.160156 1.886718 48.363281 2.203125 1.800781 20.054687 4.21875 40.148437 7.214843 59.785156.835938 5.46875 1.90625 10.683594 5.761719 14.351563 1.949219 1.847656 4.722657 2.886718 7.488281 2.886718.761719 0 1.523438-.078125 2.265626-.238281 2.726562-.59375 4.753906-2.21875 5.699218-4.578125.152344-.386719.183594-.808594.089844-1.214844-5.476562-23.199218-9.816406-47.003906-12.9375-70.820312.972656.003906 1.941406.007812 2.914062.007812 14.296876 0 28.882813-.34375 43.433594-1.035156 8.644532-.40625 16.976563-1.179688 23.882813-6.078125 8.453125-6 11.804687-16.535156 13.589843-23.941406 0-.003907 0-.003907.003907-.003907 3.398437-14.144531 4.433593-28.722656 3.082031-43.332031-.144531-1.542969-.257812-3.113281-.375-4.699219-.527344-7.25-1.074219-14.75-4.269531-21.632812-5.445313-11.71875-18.339844-11.28125-27.746094-10.960938-1.0625.035157-2.105469.070313-3.121094.089844-18.796875.351563-38.058593.566406-57.292969.644532.402344-16.941407 1.417969-33.898438 3.023438-50.773438.019531.007812.039062.015625.0625.023438zm-5.1875 58.824218c19.976562-.070312 40.011719-.292968 59.542969-.65625 1.058593-.019531 2.144531-.054687 3.242187-.09375 10.25-.351562 17.191406-.097656 20.160156 6.300782 2.574219 5.542968 3.066407 12.292968 3.542969 18.824218.121094 1.636719.238281 3.261719.386719 4.855469 1.273438 13.722656.296875 27.417969-2.894531 40.699219-.214844.894531-.453125 1.816406-.710938 2.753906-4.40625-2.425781-10.316406-4.207031-15.105469-3.527344-.402343.058594-.789062.132813-1.167968.222656 1.113281-4.617187.988281-9.160156-.410156-13.175781-2.308594-6.644531-8.378907-11.449219-14.757813-11.679687-3.578125-.128906-7.300781 1.386718-9.972656 4.050781-.589844.589844-1.113281 1.214844-1.566407 1.867187-2.371093-3.871093-6.636718-6.738281-11.394531-7.140624-6.523437-.542969-13.445312 3.425781-16.78125 9.667968-2.003906 3.746094-2.808593 8.144532-2.390625 12.640625-5.066406-3.398437-11.578125-4.648437-17.515625-3.054687-6.683593 1.789062-12.191406 7.0625-14.535156 13.519531-5.992187-6.699219-15.917969-9.679687-24.613281-7.441406 1.992187-5.113281 3.675781-11.84375.6875-17.644531-3.65625-7.089844-12.6875-9.25-19.347656-7.671876-4.394532 1.039063-8.644532 3.449219-12.894532 7.316407-.933594-9.164063-1.675781-18.386719-1.933594-27.535157-.132812-4.917968-.09375-9.648437 1.851563-13.476562 2.128906-4.21875 6.753906-7.445312 12.695313-8.863281 4.097656-.984375 8.773437-1.566407 14.277343-1.785157 1.621094-.058593 3.261719-.085937 4.914063-.085937 5.535156 0 11.214844.296875 16.75.582031 5.539062.289063 10.773437.5625 15.871094.5625 1.605468 0 3.210937 0 4.792968-.011718 3.089844.003906 6.191406.003906 9.277344-.019532zm3.929688 102.855469c3.113281 23.886719 7.445312 47.769531 12.917968 71.054687-.636718 1.011719-1.710937 1.445313-2.558594 1.628907-2.113281.460937-4.625-.210938-6.117187-1.628907-2.933594-2.789062-3.828125-7.285156-4.554687-12.035156-2.960938-19.414062-5.355469-39.273437-7.148438-59.097656 2.335938.03125 4.867188.0625 7.460938.078125zm1.511718-8.058594c-4.011718-.011719-7.960937-.066406-11.289062-.121093-16.578125-.296876-33.238282-1.042969-49.515625-2.222657l-.136719-.007812c-8.464844-.609375-14.234375-1.390625-17.167969-6.507813-2.164062-3.789062-2.742187-8.570312-3.304687-13.191406-.675782-5.609375-1.355469-11.292969-1.984375-17.003906 4.488281-4.65625 8.851562-7.453125 13.285156-8.503906 5.164063-1.21875 12.121094.328124 14.835937 5.597656 2.832032 5.496094.101563 12.449218-2.675781 18.539062-.359375.785156-.179687 1.707032.449219 2.300782.621094.589843 1.554688.71875 2.320312.320312 8.929688-4.683594 21.601563-.96875 26.59375 7.785156.363282.640625 1.039063 1.019532 1.753907 1.019532.128906 0 .265625-.011719.398437-.039063.851563-.171875 1.496094-.871094 1.601563-1.734375.824219-6.808594 6.023437-12.804688 12.648437-14.582031 6.621094-1.773438 14.125.816406 18.242188 6.300781.601562.800781 1.695312 1.039062 2.574218.5625.875-.472656 1.277344-1.519531.933594-2.457031-1.992187-5.503907-1.742187-11.476563.664063-15.980469 2.601562-4.867188 7.902343-7.972656 12.890625-7.550781 5.054687.425781 9.488281 4.847656 9.660156 9.550781 0 .121094.003906.246094.007812.371094.035157 1.097656.921876 1.945312 2.042969 1.945312 1.101563-.015625 1.980469-.910156 1.984375-2.007812 0-.121094 0-.242188-.003906-.359375.019531-1.921875.882812-3.824219 2.453125-5.390625 1.894531-1.894532 4.507813-2.992188 6.976563-2.878906 4.757812.175781 9.324218 3.863281 11.101562 8.976562 1.601562 4.609375 1.128906 10.15625-1.332031 15.617188-.425781.941406-.066407 2.054687.828125 2.574218.890625.519532 2.035156.273438 2.640625-.5625.789062-1.082031 2.070312-1.757812 3.816406-2.007812 3.992187-.578125 9.492187 1.207031 13.304687 3.472656-1.71875 4.832031-4.277343 9.582031-8.476562 12.5625-5.128906 3.636719-12.195312 4.253906-19.597656 4.601562-16.285156.773438-32.605469 1.117188-48.523438 1.011719zm-7.375-102.855469c-1.738281.007813-3.476562.011719-5.214844.011719.425782-18.023437 1.347657-36.097656 2.785157-54.125 1.84375.679688 3.699219 1.34375 5.5625 1.992188-1.671875 17.324219-2.71875 34.730469-3.132813 52.121093zm-1.707031-62.453124c1.457031-16.488282 3.320313-32.921876 5.609375-49.210938 2.488281.078125 4.980469.152344 7.46875.214844-3.070312 16.867187-5.539062 33.925781-7.394531 51.078125-1.902344-.679688-3.796875-1.375-5.683594-2.082031zm-30.449219-77.324219c1.054688-.015625 2.113282-.027344 3.1875-.027344.816406 0 1.636719.003906 2.464844.011719.824219.011718 1.652344.023437 2.484375.039062l.707031 22.824219c-.761718-.042969-1.527344-.082031-2.292968-.128906-2.15625-.128907-4.359376-.359375-5.484376-1.597657-1.070312-1.179687-1.152343-3.226562-1.140624-5.398437zm12.886719 23.074219-.714844-22.9375c1.453125.050781 2.929688.109374 4.453125.183593 1.621094.078125 3.25.191407 4.875.292969l.257813 22.90625c-2.960938-.136719-5.917969-.285156-8.871094-.445312zm12.90625.621093-.257813-22.828125c3.285157.238282 6.570313.511719 9.847657.804688l-.480469 22.367187c-3.039062-.101562-6.074219-.214843-9.109375-.34375zm21.332031.6875c-2.730468-.058593-5.460937-.132812-8.191406-.214843l.472656-22.128907c2.984375.277344 5.949219.5625 8.890625.851563zm5.1875-21.097656c2.945313.289063 5.910156.574219 8.894532.851563l-.121094 20.46875c-3.304688-.03125-6.617188-.074219-9.929688-.136719zm12.921875 1.214844c2.472657.214843 4.949219.417969 7.429688.605469l-.65625 19.550781c-2.292969 0-4.589844-.003907-6.890625-.015625zm105.695313 111.515625-4.90625 187.007812c-.359375 13.804688-.734375 28.082032-4.121094 41.511719-2.582031 10.238281-8.171875 24.402344-20.15625 33.730469-13.230469 10.300781-31.175781 12.476562-48.59375 13.292968-42.015625 1.96875-84.058594-1.988281-124.96875-11.773437-15.886719-3.800781-32.003906-8.921875-42.304688-20.554687-11.753906-13.277344-13.976562-32.199219-15.367187-52.058594-4.894531-69.730469-6.277344-140.507813-4.113281-210.371094.75-24.230469 2.480468-47.464844 15.253906-65.320312 14.21875-19.878907 38.585938-30.191407 74.316406-31.390626l-.074218 15.613282c-.007813 2.265625-.023438 5.6875 2.191406 8.128906 2.320312 2.554688 6.015625 2.777344 8.222656 2.910156 8.53125.511719 17.109375.921875 25.699219 1.230469-2.21875 15.851563-4.039063 31.835937-5.472657 47.871094-1.03125-.390625-2.0625-.785157-3.082031-1.175781-7.828125-3-15.925781-6.101563-24.183593-8.507813 0 0 0 0-.003907 0-.453125-.128906-.90625-.261719-1.359375-.386719-18.359375-5.160156-34.53125-5.476562-48.066406-.933594-10.355469 3.476563-19.550781 10.40625-25.230469 19.019532-5.414062 8.203125-5.464843 15.457031-5.519531 23.132812-.011719 1.5-.023438 3.050782-.070312 4.671875-1.84375 59.488281-.664063 119.75 3.5 179.117188 1.222656 17.441406 3.378906 35.558593 14.882812 48.554687 10.101562 11.410156 25.058594 16.226563 39.710938 19.734375 29.488281 7.050781 59.648437 10.601563 89.917968 10.601563 6.035156 0 12.082032-.140625 18.121094-.425782 15.996094-.75 32.570312-2.824218 45.425781-12.832031 11.828125-9.210937 17.261719-22.84375 19.738281-32.660156 3.070313-12.183594 3.402344-24.707031 3.71875-36.820313l4.160157-158.554687c.175781-6.730469.3125-14.691406-.003907-22.734375-.046874-1.25-.015624-2.921875.015626-4.691406.117187-5.980469.25-12.765625-1.996094-17.136719-6.4375-12.527344-26.9375-11.246094-36.875-8.816406-5.636719 1.378906-11.046875 3.429687-16.28125 5.410156-6.027344 2.285156-11.71875 4.445313-17.691406 5.640625-12.332032 2.476562-26.179688.980469-43.582032-4.707031-.578125-.1875-1.15625-.394531-1.734375-.589844 1.875-17.574219 4.398438-35.050781 7.558594-52.324219 7.9375.171875 15.871094.261719 23.765625.261719 1.203125 0 2.40625 0 3.609375-.003906 2.195313-.007813 6.285156-.023438 8.703125-2.835938 1.917969-2.230469 1.96875-5.113281 1.859375-7.875l-.480469-12.121093c2.4375.105468 4.875.199218 7.320313.28125 11.957031.410156 24.324219.832031 35.695312 4.171874 39.789063 11.6875 44.109375 57.710938 42.851563 105.707032zm0 0"/><path d="m36.625 237.773438c.285156 0 .566406-.003907.851562-.015626 9.542969-.289062 18.710938-5.46875 23.933594-13.527343 4.539063-7.011719 6.269532-16.394531 4.867188-26.421875-1.207032-8.636719-4.367188-16.632813-7.425782-24.363282l-7.15625-18.097656c-.394531-.992187-.800781-2.3125-1.234374-3.710937-1.507813-4.878907-3.21875-10.40625-7.167969-13.324219-2.566407-1.890625-5.429688-2.476562-8.050781-1.648438-2.554688.800782-4.570313 2.90625-5.53125 5.773438-.75 2.230469-1.359376 4.4375-1.949219 6.570312-1.003907 3.644532-1.957031 7.089844-3.515625 10.429688-1.625 3.492188-3.488282 7.007812-5.292969 10.410156-3.378906 6.367188-6.871094 12.957032-9.21875 20.070313-4.460937 13.539062-3.335937 26.515625 3.09375 35.597656 5.386719 7.613281 14.441406 12.257813 23.796875 12.257813zm-19.230469-45.328126c2.128907-6.46875 5.3125-12.46875 8.683594-18.820312 1.847656-3.492188 3.761719-7.097656 5.476563-10.78125 1.84375-3.949219 2.929687-7.882812 3.980468-11.6875.585938-2.125 1.140625-4.128906 1.816406-6.148438.125-.371093.257813-.554687.324219-.632812.121094.023438.402344.109375.828125.425781 1.820313 1.34375 3.226563 5.894531 4.253906 9.21875.480469 1.550781.933594 3.015625 1.4375 4.296875l7.15625 18.09375c2.886719 7.292969 5.867188 14.832032 6.941407 22.515625 1.132812 8.109375-.164063 15.539063-3.652344 20.921875-3.742187 5.78125-10.578125 9.648438-17.40625 9.855469-6.894531.195313-13.878906-3.261719-17.824219-8.839844-7.011718-9.90625-3.746094-23.171875-2.015625-28.417969zm0 0"/><path d="m63.8125 299.273438-9.109375-23.03125c-.515625-1.300782-1.039063-3.003907-1.597656-4.808594-1.871094-6.042969-3.988281-12.894532-8.722657-16.390625-2.972656-2.195313-6.261718-2.882813-9.269531-1.933594-2.949219.929687-5.195312 3.289063-6.324219 6.648437-.941406 2.808594-1.714843 5.601563-2.460937 8.300782-1.292969 4.6875-2.515625 9.113281-4.535156 13.449218-2.082031 4.46875-4.460938 8.953126-6.761719 13.289063-4.277344 8.070313-8.703125 16.414063-11.660156 25.386719-5.570313 16.894531-4.1875 33.050781 3.789062 44.324218 6.648438 9.398438 17.832032 15.128907 29.386719 15.128907.347656 0 .703125-.003907 1.054687-.015625 11.785157-.355469 23.117188-6.761719 29.566407-16.714844 5.632812-8.699219 7.777343-20.375 6.03125-32.878906-1.519531-10.859375-5.519531-20.972656-9.386719-30.753906zm-3.414062 59.25c-5.027344 7.765624-13.859376 12.761718-23.042969 13.039062-9.132813.277344-18.382813-4.320312-23.613281-11.714844-9.210938-13.011718-4.964844-30.308594-2.714844-37.140625 2.742187-8.324219 6.816406-16 11.128906-24.132812 2.347656-4.425781 4.773438-9.003907 6.945312-13.660157 2.304688-4.949218 3.675782-9.910156 5-14.707031.714844-2.597656 1.457032-5.285156 2.332032-7.882812.273437-.8125.695312-1.398438 1.105468-1.527344.363282-.113281 1.089844.019531 2.054688.734375 2.601562 1.921875 4.457031 7.910156 5.808594 12.285156.605468 1.957032 1.175781 3.800782 1.804687 5.390625l9.105469 23.03125c3.695312 9.339844 7.515625 18.996094 8.898438 28.902344 1.480468 10.585937-.230469 20.308594-4.8125 27.382813zm0 0"/><path d="m202.386719 269.136719c-2.675781.363281-5.367188.875-7.96875 1.371093-6.328125 1.203126-12.304688 2.339844-18.320313 1.605469-.683594-.082031-1.332031.171875-1.773437.683594-.4375.507813-.59375 1.203125-.414063 1.851563 4.949219 17.964843 20.625 32.117187 39 35.21875.070313.011718.140625.011718.214844.015624 1.1875 1.015626 2.804688 1.867188 5.007812 2.308594 1.777344.355469 3.589844.519532 5.410157.519532 9.226562 0 18.65625-4.222657 24.667969-9.085938 8.667968-7.011719 14.152343-17.84375 14.671874-28.976562.023438-.550782-.175781-1.085938-.550781-1.484376-.378906-.398437-.902343-.625-1.453125-.625-8.078125-.050781-16.433594-.097656-24.582031 1.78125-2.09375.484376-4.449219 1.171876-6.875 2.140626-.039063-.050782-.070313-.109376-.113281-.15625-7.363282-8.425782-20.027344-8.109376-26.921875-7.167969zm34.820312 9.113281c6.980469-1.609375 14.3125-1.730469 21.484375-1.691406-1.007812 9.25-5.773437 18.078125-13.015625 23.933594-6.257812 5.058593-17.296875 9.644531-26.753906 7.75-.929687-.1875-1.730469-.480469-2.40625-.875 7.785156-8.328126 17.464844-14.886719 28.097656-19.007813 1.039063-.402344 1.554688-1.570313 1.152344-2.605469-.40625-1.042968-1.578125-1.554687-2.609375-1.152344-10.980469 4.253907-20.992188 10.972657-29.105469 19.503907-1.203125-4.152344 1.011719-10.621094 3.910157-14.464844 4.085937-5.425781 10.921874-9.46875 19.246093-11.390625zm-11.640625-.015625c-3.835937 2.007813-7.609375 4.816406-10.632812 8.734375-6.164063-3.820312-13.433594-6.015625-20.675782-6.160156-1.105468-.003906-2.035156.859375-2.054687 1.972656-.023437 1.113281.859375 2.035156 1.972656 2.058594 6.503907.128906 13.03125 2.089844 18.574219 5.515625-2.410156 4.515625-3.847656 10.300781-2.597656 14.789062-14.222656-3.6875-26.574219-14.949219-31.484375-28.796875 5.601562.195313 11.128906-.859375 16.503906-1.878906 2.550781-.484375 5.1875-.988281 7.757813-1.339844 5.871093-.792968 16.394531-1.128906 22.636718 5.105469zm0 0"/><path d="m276.089844 291.636719c1.789062 1.535156 4.375 2.121093 7.097656 1.605469.875-.164063 1.710938-.429688 2.511719-.746094.355469 3.710937 2.78125 7.308594 6.40625 8.90625 1.488281.65625 3.105469.976562 4.742187.976562 3.261719 0 6.609375-1.269531 9.191406-3.640625 3.328126-3.058593 5.285157-7.742187 5.367188-12.84375.082031-5.285156-1.839844-10.25-5.265625-13.621093-3.242187-3.183594-7.320313-4.714844-11.816406-4.472657-7.347657.425781-13.792969 5.324219-17.378907 9.765625-1.839843 2.28125-2.878906 4.324219-3.261718 6.433594-.542969 2.964844.378906 5.894531 2.40625 7.636719zm1.558594-6.914063c.261718-1.417968 1.035156-2.890625 2.433593-4.625 3.824219-4.738281 9.503907-7.984375 14.472657-8.269531 3.371093-.199219 6.316406.921875 8.757812 3.324219 2.648438 2.597656 4.125 6.492187 4.058594 10.679687-.0625 4-1.542969 7.625-4.0625 9.941407-2.667969 2.453124-6.605469 3.253906-9.578125 1.941406-3.042969-1.34375-4.796875-5.042969-3.75-7.914063.285156-.785156.058593-1.664062-.570313-2.210937-.375-.328125-.847656-.496094-1.324218-.496094-.320313 0-.644532.078125-.941407.234375-1.535156.8125-3.121093 1.652344-4.710937 1.953125-1.484375.285156-2.878906.019531-3.714844-.703125-.917969-.789063-1.347656-2.335937-1.070312-3.855469zm0 0"/></svg>