<?xml version="1.0" ?><!DOCTYPE svg  PUBLIC '-//W3C//DTD SVG 1.1//EN'  'http://www.w3.org/Graphics/SVG/1.1/DTD/svg11.dtd'><svg enable-background="new -204.594 -302.575 40.357 37.366" height="37.366px" id="Layer_1" version="1.1" viewBox="-204.594 -302.575 40.357 37.366" width="40.357px" xml:space="preserve" xmlns="http://www.w3.org/2000/svg" xmlns:xlink="http://www.w3.org/1999/xlink"><g><g><path d="M-184.062-265.209c-4.856,0-10.016-1.232-15.543-3.698c-2.595-1.155-4.309-2.942-4.824-5.031    c-0.478-1.93,0.088-4.044,1.592-5.955c1.027-1.305,2.5-2.199,3.925-3.064c0.609-0.37,1.239-0.752,1.808-1.152    c0.338-0.239,0.806-0.158,1.045,0.18s0.158,0.807-0.181,1.045c-0.609,0.431-1.262,0.827-1.893,1.209    c-1.372,0.833-2.667,1.619-3.525,2.71c-1.229,1.562-1.683,3.176-1.313,4.667c0.409,1.653,1.785,3.044,3.979,4.022    c11.017,4.913,20.474,4.738,28.908-0.535l0.232-0.146c0.694-0.434,1.416-0.881,1.955-1.424c1.541-1.554,2.246-2.851,2.151-3.965    c-0.094-1.106-0.985-2.253-2.733-3.508c-0.896-0.643-1.924-1.106-3.015-1.597c-0.514-0.229-1.024-0.461-1.522-0.711    c-0.371-0.185-0.521-0.636-0.336-1.006c0.186-0.369,0.635-0.521,1.008-0.334c0.479,0.24,0.973,0.462,1.467,0.685    c1.109,0.5,2.258,1.016,3.273,1.745c2.153,1.548,3.221,3.011,3.354,4.602c0.135,1.6-0.686,3.234-2.582,5.146    c-0.662,0.667-1.459,1.163-2.227,1.642l-0.23,0.143C-173.91-266.653-178.809-265.209-184.062-265.209z"/></g><g><path d="M-183.112-276.598c-0.458,0-0.929-0.038-1.402-0.115c-2.551-0.413-4.958-1.917-6.439-4.022    c-2.442-3.471-2.018-8.5,1.034-12.232c0.285-0.348,0.573-0.693,0.861-1.039c2.065-2.478,4.018-4.817,4.646-7.965    c0.082-0.406,0.476-0.672,0.883-0.588c0.405,0.081,0.669,0.476,0.588,0.882c-0.138,0.684-0.329,1.334-0.564,1.955    c0.017-0.016,0.034-0.029,0.053-0.042c0.333-0.245,0.805-0.172,1.049,0.163c0.649,0.89,1.31,1.773,1.969,2.659    c1.459,1.957,2.968,3.979,4.354,6.045c3.023,4.495,0.888,10.24-2.828,12.986C-180.076-277.047-181.534-276.598-183.112-276.598z     M-183.759-299.104c-1.007,2.293-2.597,4.198-4.148,6.059c-0.284,0.342-0.569,0.685-0.852,1.027    c-2.627,3.213-3.026,7.498-0.969,10.42c1.253,1.783,3.292,3.056,5.453,3.405c1.707,0.276,3.296-0.052,4.473-0.924    c3.159-2.336,5.003-7.185,2.476-10.943c-1.366-2.035-2.864-4.043-4.313-5.985c-0.663-0.888-1.325-1.775-1.979-2.671    C-183.703-298.834-183.75-298.969-183.759-299.104z"/></g><g><path d="M-184.983-268.902c-2.74,0-5.492-0.404-8.237-1.215c-2.872-0.847-4.766-2.445-5.334-4.501    c-0.575-2.082,0.252-4.47,2.33-6.725c0.279-0.306,0.755-0.325,1.06-0.043c0.306,0.28,0.324,0.755,0.043,1.06    c-1.713,1.859-2.419,3.744-1.986,5.309c0.425,1.538,1.957,2.767,4.313,3.462c5.213,1.537,10.451,1.536,15.565-0.004l0.387-0.114    c0.539-0.158,1.047-0.306,1.51-0.521c2.228-1.034,3.459-2.178,3.566-3.305c0.108-1.157-0.935-2.561-3.021-4.061    c-0.336-0.242-0.412-0.711-0.17-1.047c0.242-0.335,0.709-0.414,1.047-0.171c2.613,1.881,3.804,3.653,3.636,5.42    c-0.164,1.735-1.611,3.215-4.427,4.522c-0.565,0.264-1.153,0.435-1.723,0.601l-0.375,0.11    C-179.501-269.309-182.236-268.902-184.983-268.902z"/></g><g><path d="M-185.055-271.898c-2.791,0-5.556-0.493-8.07-2.699c-0.465-0.408-0.73-1.162-0.632-1.793l0.342-2.225    c0.063-0.409,0.448-0.689,0.855-0.627c0.41,0.063,0.689,0.446,0.627,0.855l-0.342,2.226c-0.021,0.129,0.066,0.373,0.139,0.437    c3.066,2.69,6.618,2.437,10.378,2.168c1.009-0.072,2.053-0.147,3.07-0.157c0.877-0.008,1.473-0.226,1.821-0.665    c0.595-0.747,0.634-2.304,0.119-4.626c-0.09-0.404,0.166-0.805,0.57-0.895c0.402-0.089,0.803,0.166,0.895,0.569    c0.636,2.864,0.505,4.733-0.409,5.883c-0.64,0.806-1.644,1.22-2.982,1.232c-0.971,0.009-1.945,0.079-2.977,0.153    C-182.779-271.98-183.919-271.898-185.055-271.898z"/></g><g><path d="M-183.178-280.746c-0.063,0-0.126-0.001-0.191-0.003c-0.414-0.014-0.738-0.36-0.725-0.773    c0.014-0.414,0.367-0.745,0.774-0.726c1.486,0.04,2.279-0.628,2.969-2.498c0.684-1.855,0.007-3.46-0.71-5.158    c-0.235-0.558-0.471-1.115-0.662-1.685c-0.133-0.392,0.078-0.818,0.47-0.951c0.395-0.133,0.818,0.078,0.951,0.471    c0.181,0.533,0.402,1.057,0.623,1.581c0.762,1.804,1.626,3.849,0.735,6.261C-179.543-282.599-180.566-280.747-183.178-280.746z"/></g></g></svg>