<?xml version="1.0" ?><!DOCTYPE svg  PUBLIC '-//W3C//DTD SVG 1.1//EN'  'http://www.w3.org/Graphics/SVG/1.1/DTD/svg11.dtd'><svg height="512px" style="enable-background:new 0 0 512 512;" version="1.1" viewBox="0 0 512 512" width="512px" xml:space="preserve" xmlns="http://www.w3.org/2000/svg" xmlns:xlink="http://www.w3.org/1999/xlink"><g id="_x31_66"><g><g><g><g><g><g><g><path d="M259.261,115.369c-0.261-0.071-0.167,0.693-0.206,0.829          C259.486,116.038,259.251,115.171,259.261,115.369z" style="fill:#202020;"/><polygon points="263.636,113.75 263.545,114.057 264.226,113.334         " style="fill:#202020;"/><path d="M267.709,114.047c-0.271-1.348-1.493,0.075-2.184-0.42l-0.101-0.302l-0.394,1.023          C265.916,114.234,267.122,113.604,267.709,114.047z" style="fill:#202020;"/><path d="M269.551,117.06c-0.071-0.516,0.504-0.387-0.472-0.208c0.041,0.06,0.052,0.093,0.074,0.136          C269.239,116.99,269.356,117.003,269.551,117.06z" style="fill:#202020;"/><path d="M269.153,116.988C268.736,116.982,269.378,117.439,269.153,116.988L269.153,116.988z" style="fill:#202020;"/><path d="M271.099,116.931l-0.6,0.368c0.075,0.313,0.544,0.45,0.338,0.639          C271.42,117.773,271.35,117.462,271.099,116.931z" style="fill:#202020;"/><path d="M271.744,116.067l-0.311,0.147C271.467,116.346,271.535,116.399,271.744,116.067z" style="fill:#202020;"/><path d="M270.78,116.526l0.653-0.312c-0.051-0.22-0.004-0.638-0.295,0.104          C271.238,115.944,271.069,116.293,270.78,116.526z" style="fill:#202020;"/><path d="M270.466,116.28c-0.272-0.318-0.656-0.531-0.044-0.922          C269.335,115.428,269.395,116.348,270.466,116.28z" style="fill:#202020;"/><path d="M268.041,112.73l-0.396-0.423l-0.408,0.396C267.441,112.507,268.03,113.138,268.041,112.73z" style="fill:#202020;"/><path d="M274.357,118.111c0.082-0.266-0.052-0.76-0.032-1.117l-0.452,0.238          C274.047,117.455,274.402,117.703,274.357,118.111z" style="fill:#202020;"/><path d="M274.325,116.994l0.681-0.352C274.479,116.484,274.343,116.688,274.325,116.994z" style="fill:#202020;"/><polygon points="272.044,114.652 270.902,115.493 272.241,114.667         " style="fill:#202020;"/><polygon points="276.6,118.574 276.14,119.138 276.928,118.304         " style="fill:#202020;"/><path d="M278.104,118.789c-0.358,0.459,0.133,0.954-0.194,1.211c0.414,0.001,0.855-0.361,1.259-0.686          C278.789,119.458,278.459,119.319,278.104,118.789z" style="fill:#202020;"/><path d="M279.829,118.858c-0.195,0.084-0.419,0.265-0.66,0.456          C279.371,119.236,279.584,119.106,279.829,118.858z" style="fill:#202020;"/><path d="M276.003,116.972c0.015,0.173,0.021,0.62,0.317,0.864l-0.083-0.807          C276.166,117.011,276.085,116.992,276.003,116.972z" style="fill:#202020;"/><path d="M276.233,117.002l0.004,0.026c0.251,0.07,0.426,0.118,0.501,0.139          C276.674,117.146,276.522,117.097,276.233,117.002z" style="fill:#202020;"/><path d="M275.944,116.957c0.021,0.005,0.037,0.009,0.059,0.015          C275.995,116.893,275.986,116.865,275.944,116.957z" style="fill:#202020;"/><path d="M273.55,115.583c0.427-0.38,1.266-0.72,0.639-1.487          C273.842,114.583,274.197,115.016,273.55,115.583z" style="fill:#202020;"/><path d="M275.832,115.946l-0.612-0.298c-0.023,0.204,0.038,0.521-0.176,0.7L275.832,115.946z" style="fill:#202020;"/><polygon points="276.195,115.764 275.832,115.946 276.059,116.056         " style="fill:#202020;"/><path d="M278.933,117.896c0.348-0.265,0.653-0.222,1.003-0.195c-0.324-0.234-0.68-0.403-1.035-0.486          C278.795,117.441,278.542,117.832,278.933,117.896z" style="fill:#202020;"/><path d="M277.646,117.367c0.021-0.009,0.05-0.021,0.07-0.029          C277.692,117.265,277.667,117.237,277.646,117.367z" style="fill:#202020;"/><path d="M283.213,118.6c-0.004-0.052-0.008-0.098-0.013-0.151c-0.017,0.042-0.031,0.079-0.05,0.125          L283.213,118.6z" style="fill:#202020;"/><path d="M278.873,117.06c-0.239-0.211-0.445-0.065-0.651,0.133c0.22-0.028,0.446-0.027,0.679,0.023          C278.948,117.113,278.969,117.043,278.873,117.06z" style="fill:#202020;"/><path d="M280.831,118.725c-0.096-0.197-0.222-0.362-0.357-0.527          C280.55,118.47,280.732,118.903,280.831,118.725z" style="fill:#202020;"/><path d="M277.761,117.57c-0.017,0.009-0.031,0.02-0.048,0.024          C277.766,117.778,277.772,117.696,277.761,117.57z" style="fill:#202020;"/><path d="M277.761,117.57c0.163-0.077,0.313-0.237,0.461-0.377c-0.179,0.02-0.35,0.065-0.506,0.145          C277.737,117.4,277.753,117.49,277.761,117.57z" style="fill:#202020;"/><path d="M285.689,114.117c-0.27,0.672-1.196,1.099-1.619,0.173c-0.783,0.336-1.01,2.739-0.87,4.158          c0.109-0.296,0.188-0.576,0.936-0.804c-0.1-0.438-1.131-1.283-0.416-1.756c0.95-0.114,0.62,0.443,0.914,0.924          c-0.082-0.976,1.454-0.912,1.68-2.218c0,0-0.889,0.195-0.889,0.196C285.472,114.59,285.845,114.357,285.689,114.117z" style="fill:#202020;"/><path d="M282.049,118.041l-0.277,0.013c0.255,0.205,0.385,0.542,0.604,1.192          c0.514-0.218,0.678-0.45,0.774-0.671l-1.217-0.455L282.049,118.041z" style="fill:#202020;"/><path d="M280.63,117.747c0.396-0.721,1.103-0.867,0.939-1.794c-0.784-0.139-0.704,0.503-1.243,0.724          c1.277,0.104-0.458,0.34,0.316,0.981c-0.272,0.072-0.497,0.061-0.707,0.044c0.195,0.145,0.377,0.309,0.538,0.496          c-0.006-0.021-0.01-0.036-0.016-0.053l-0.006,0.001l0.004-0.012c-0.027-0.107-0.03-0.169,0.015-0.1          c0.007-0.009,0.022-0.009,0.029-0.009c0.035-0.104,0.081-0.191,0.129-0.274c0.311,0.24,0.004,0.21-0.129,0.274          c-0.014,0.036-0.032,0.069-0.044,0.109l0.002,0.011c0,0,0.332-0.041,0.658-0.056c0.328-0.018,0.655-0.035,0.655-0.035          C281.544,117.883,281.227,117.788,280.63,117.747z" style="fill:#202020;"/><path d="M275.155,112.552c0.028,0.076,0.017,0.131,0.01,0.187          C275.266,112.661,275.309,112.602,275.155,112.552z" style="fill:#202020;"/><path d="M275.603,113.12c-0.112,0.089-0.245,0.384-0.533,0.246c-0.223-0.282,0.065-0.37,0.096-0.627          c-0.22,0.17-0.733,0.433-0.228,0.917l0.108-0.088c0.471,0.364,0.944,1.451,0.834,1.54          C275.862,114.387,275.824,113.867,275.603,113.12z" style="fill:#202020;"/><path d="M278.271,115.2l1.126-0.126l-0.383-0.789l-0.063,0.404          C278.391,114.391,278.412,114.912,278.271,115.2z" style="fill:#202020;"/><polygon points="283.216,119.006 282.849,119.762 283.757,118.806         " style="fill:#202020;"/><polygon points="284.529,119.298 284.264,119.969 284.729,119.668         " style="fill:#202020;"/><path d="M285.507,150.704l-1.339-0.811C284.775,150.302,285.188,150.543,285.507,150.704z" style="fill:#202020;"/><path d="M292.584,159.445c0,0,0.115,0.014,0.229,0.029c0.11,0.019,0.221,0.037,0.221,0.037          C292.596,159.147,292.342,159.051,292.584,159.445z" style="fill:#202020;"/><path d="M277.018,263.316c-1.706,2.028-3.875,4.168-3.011,4.235l1.051-0.372          C275.697,265.5,276.365,264.298,277.018,263.316z" style="fill:#202020;"/><path d="M260.254,245.029c-0.232,0.113-0.475,0.231-0.714,0.349          c-0.131,0.311-0.257,0.612-0.379,0.901c-0.054,0.138-0.105,0.273-0.156,0.405c-0.046,0.131-0.023,0.303-0.035,0.442          c0.028-0.403,0.327-0.663,0.538-1.02C259.747,245.76,259.998,245.399,260.254,245.029z" style="fill:#202020;"/><path d="M259.285,241.439l2.84-2.004C261.444,239.838,260.527,240.478,259.285,241.439z" style="fill:#202020;"/><path d="M230.83,158.888l-0.583,1.989C232.119,158.573,230.983,159.323,230.83,158.888z" style="fill:#202020;"/><path d="M327.468,171.8c-0.04,1.063-0.046,2.009-0.027,2.872c0.007,0.864-0.005,1.651,0.029,2.382          C327.806,174.507,328.167,172.388,327.468,171.8z" style="fill:#202020;"/><path d="M294.952,148.314c-0.887-0.807-1.401-1.019-1.491-0.884          C294.436,148.183,294.968,148.637,294.952,148.314z" style="fill:#202020;"/><path d="M327.65,183.087c0.099-0.342,0.132-0.706,0.188-1.086c-0.179-1.537-0.264-3.081-0.368-4.947          C327.285,178.923,327.089,181.083,327.65,183.087z" style="fill:#202020;"/><path d="M240.529,109.436c0.046,0.023,0.093,0.027,0.138,0.058          C240.645,109.388,240.594,109.397,240.529,109.436z" style="fill:#202020;"/><path d="M255.385,114.554c-0.121,0.054-0.323,0.063-0.514,0.082          C254.969,114.686,255.124,114.674,255.385,114.554z" style="fill:#202020;"/><path d="M307.339,132.56C306.184,131.574,307.103,132.463,307.339,132.56L307.339,132.56z" style="fill:#202020;"/><path d="M303.339,125.392c0.325,0.129,0.6,0.189,0.737,0.065          C303.859,125.533,303.609,125.5,303.339,125.392z" style="fill:#202020;"/><path d="M329.849,199.326c-0.016,0.046-0.027,0.083-0.045,0.136          C330.098,199.038,330.044,199.109,329.849,199.326z" style="fill:#202020;"/><path d="M305.842,130.787c0.391,0.427,0.839,0.917,1.326,1.449          C306.977,131.977,306.601,131.51,305.842,130.787z" style="fill:#202020;"/><path d="M305.842,131.268c-0.387-0.355-0.691-0.634-0.98-0.9          C304.631,130.349,304.708,130.521,305.842,131.268z" style="fill:#202020;"/><path d="M308.922,133.965c-0.631-0.597-1.22-1.155-1.754-1.729c0.186,0.242,0.247,0.359,0.171,0.324          C307.671,132.856,308.161,133.252,308.922,133.965z" style="fill:#202020;"/><path d="M200.478,142.875c0.088-0.072,0.18-0.163,0.28-0.237          C201.547,141.103,201.129,141.72,200.478,142.875z" style="fill:#202020;"/><path d="M266.828,306.948c0.106-0.044,0.155-0.081,0.25-0.122c-0.113,0.028-0.256,0.063-0.358,0.088          L266.828,306.948z" style="fill:#202020;"/><path d="M259.365,308.674c1.409-0.531,2.482-0.848,3.5-1.043l0.38-0.073l0.481-0.078l0.975-0.166          c0.65-0.112,1.323-0.217,2.019-0.399c0,0-0.233-0.074-0.583-0.186c-0.348-0.126-0.795-0.311-1.207-0.5          c-0.841-0.396-1.521-0.857-1.521-0.857s-0.063,0.056-0.174,0.153c-0.114,0.098-0.283,0.238-0.45,0.4          c-0.351,0.332-0.831,0.747-1.333,1.164C260.455,307.914,259.365,308.674,259.365,308.674z" style="fill:#202020;"/><path d="M260.132,142.226l3.758,0.879c-4.713,0.843-7.376,0.801-4.256,1.598          c0.081-0.66,1.062-0.912,2.451-1.033c0.696-0.056,1.501-0.079,2.355-0.073c0.836,0.098,1.724,0.202,2.61,0.306          c0.444,0.052,0.89,0.104,1.327,0.155c0.44,0.046,0.847,0.175,1.258,0.247c0.815,0.167,1.587,0.3,2.274,0.374          c0.698,0.043,1.258,0.161,1.717,0.126c0.454-0.027,0.789-0.157,0.953-0.426c0,0,0.531,0.328,1.062,0.656          c0.263,0.161,0.524,0.323,0.722,0.444c0.184,0.143,0.307,0.238,0.307,0.238c-0.608-0.328-0.796-0.176-1.422-0.444          c1.02,0.627,1.678,1.059,2.296,1.234c0.612,0.182,1.15,0.165,1.751,0.149c0.616-0.041,1.236,0.015,2.044,0.284          c0.405,0.133,0.855,0.321,1.364,0.588c0.254,0.134,0.523,0.288,0.809,0.463c0.271,0.194,0.538,0.44,0.83,0.699          c1.585,1.511,2.48,2.707,1.165,2.014c0,0,0.063,0.039,0.176,0.106c0.111,0.068,0.277,0.158,0.445,0.303          c0.353,0.275,0.822,0.642,1.293,1.009c0.478,0.37,0.955,0.74,1.313,1.018c0.347,0.292,0.551,0.516,0.551,0.516          c0.836,1.131,0.284,1.128-0.533,0.02c0,0,0.292,0.348,0.729,0.871c0.429,0.529,1.048,1.199,1.598,1.928          c0.514,0.76,1.026,1.52,1.411,2.09c0.194,0.285,0.355,0.522,0.469,0.688c0.12,0.163,0.164,0.271,0.164,0.271l-0.088-0.014          c0.403,0.375,1.009,1.032,1.616,1.725c0.303,0.352,0.606,0.706,0.886,1.03c0.272,0.331,0.464,0.665,0.639,0.918          c0.374,1.942-0.593-0.806-0.695-0.219c0,0,0.519,0.922,1.037,1.845c0.263,0.466,0.525,0.933,0.723,1.282          c0.166,0.365,0.276,0.609,0.276,0.609c-0.066,0.932-0.494,0.587-0.983-0.317c-0.584-0.868-1.271-2.277-1.747-3.623          c-0.443,2.286,0.006,2.941,0.754,4.169c0.616,1.25,1.735,3.041,1.742,7.288c0,0-0.266-0.938-0.532-1.876          c-0.131-0.467-0.262-0.934-0.359-1.284c-0.089-0.353-0.181-0.576-0.181-0.576c-0.409,1.376-0.398,2.747-0.233,4.316          c0.019,0.799,0.038,1.655,0.059,2.584c0.013,0.924,0.013,1.917-0.203,3.012c0.088-0.258,0.315-0.948,0.449-1.748          c0.145-0.802,0.319-1.741,0.519-2.525c0.194-0.782,0.433-1.414,0.653-1.564c0.24-0.155,0.521,0.159,0.792,1.275          c-0.059,1.311,0.14,2.959,0.661,5.431c-0.438,0.028-0.582,0.641-0.594,1.62c0.012,0.503-0.013,1.044-0.022,1.651          c0.001,0.608-0.002,1.28-0.081,1.99l-1.14-0.299c0.044,1.493,0.119,2.22,0.288,2.803c0.175,0.585,0.371,1.025,0.413,1.987          c-0.937,3.412-2.152,3.803-3.102,4.316c-1.063,2.554-0.405,1.801,0.295,1.163c0.688-0.637,1.404-1.173,0.252,2.034          c-2.333,4.211-3.523,7.392-6.311,12.705c-2.323,2.612-0.233-0.907-1.222-0.08c0,0-0.24,0.763-0.518,1.514          c-0.273,0.758-0.546,1.516-0.546,1.516c-0.483,0.585-0.559,0.218-0.598,0.033c-1.323,2.271,0.825,0.898-1.557,4.307          c0.13,0.837-1.603,2.192-3.72,3.818c-2.117,1.635-4.599,3.532-5.973,5.8c-1.146,0.613-0.041-0.936-0.632-1.002          c-2.228,2.725-3.214,3.691-4.175,4.845c-0.926,1.09-1.704,2.108-3.543,4.562c0,0-1.091,0.701-2.182,1.402          c-1.058,0.744-2.116,1.488-2.116,1.488c3.322-1.958,0.532,2.128-1.871,5.594c1.251-0.61,2.32-1.118,2.986-1.509          c0,0-1.085,1.25-2.17,2.5c-0.252,0.294-0.505,0.588-0.741,0.864c-0.104,0.125-0.206,0.246-0.302,0.36          c-0.046,0.058-0.098,0.11-0.135,0.167c-0.022,0.066-0.044,0.13-0.065,0.192c-0.161,0.482-0.269,0.804-0.269,0.804          c-0.505,0.627-0.595-0.125-0.589-1.282c-0.105,0.452-0.178,0.828-0.243,1.177c-1.387,1.944-1.505,0.612-1.329-1.294          l0.446-0.542c0.152-0.172,0.269-0.363,0.503-0.455c0.402-0.214,0.801-0.426,1.193-0.635          c0.688-1.632,1.265-3.264,0.541-3.515c-0.224,0.398-0.751,1.061-1.374,1.744c0.179-0.436,0.26-0.75,0.032-0.693          c-0.126,0.035-0.271,0.22-0.458,0.517c-0.092,0.153-0.199,0.331-0.321,0.533c-0.161,0.241-0.342,0.51-0.539,0.804          c0,0-0.152,0.034-0.382,0.084c-0.228,0.055-0.57,0.105-0.791,0.283c-0.498,0.299-1.029,0.667-1.029,0.667          c0,0,0.226,0.732,0.235,0.714l-4.418,7.512c-1.452,6.176-2.002,11.881-5.699,21.031c0.175-2.617-1.185-1.135-2.149-1.734          c2.223-1.928,2.779-7.125,5.167-11.646c-1.245,2.359-1.482,1.602-1.365,0.908l-2.882,8.708          c-0.747-0.578-1.446,1.457-2.801,3.45c2.414-0.855-1.782,6.662-2.849,10.255c-0.652-0.052-0.84-1.121,1.212-5.152          c-0.84,0.983-1.31,1.897-1.591,2.775c-0.141,0.439-0.234,0.869-0.303,1.296c-0.069,0.426-0.094,0.805-0.232,1.431          l-0.156,0.826l-0.077,0.403c-0.003,0.138,0.042,0.286,0.06,0.428c0.097,0.551,0.173,1.188,0.22,1.669          c0.098,0.921,0.047,1.937-0.307,3.16c0.042-1.116,0.166-1.712-0.122-2.17c0.206,1.319,0.121,3.561-0.072,5.288          c-0.092,0.887-0.231,1.55-0.339,2.075c-0.103,0.551-0.224,0.724-0.363,0.227c0.005,0.027-0.021-0.436-0.001-0.672          c0.011-0.279,0.022-0.559,0.022-0.559c-0.018,0.232-0.036,0.472-0.055,0.719c-0.002,0.323-0.004,0.656-0.006,0.997          c0.002,0.696,0.004,1.427,0.007,2.184c0.014,0.755-0.007,1.548,0.042,2.34c0.188,0.756,0.716,1.463,1.322,2.013          c1.223,1.126,2.886,1.802,4.588,2.272c0.852,0.216,1.756,0.382,2.583,0.491c0.704,0.082,1.379,0.128,2.047,0.154          c0.665,0.017,1.314,0.015,1.941-0.017c0.613-0.026,1.135-0.07,1.675-0.11c1.06-0.083,2.029-0.183,2.866-0.299          c1.673-0.233,2.814-0.536,3.088-0.923c0.073,0.199-0.961,1.865-1.404,2.178c0,0,0.817-0.325,2.043-0.813          c1.182-0.486,2.998-1.123,4.592-1.961c0.789-0.398,1.623-0.869,2.281-1.306c0.656-0.45,1.159-0.888,1.522-1.281          c0.73-0.787,0.891-1.443,0.891-1.443c0.114,0.389,0.508,0.718,1.05,0.996c0.572,0.312,1.114,0.401,1.623,0.645          c0.484,0.229,0.883,0.58,0.788,1.296c-0.113,0.688-0.774,1.743-2.813,2.671c1.252-0.357,2.695-0.839,3.926-2.153          c0.306-0.333,0.565-0.733,0.688-1.187c0.071-0.505,0.146-1.036,0.225-1.597c0.145-1.121,0.276-2.361,0.376-3.705          c-0.237,0.866-0.868,1.824-1.378,2.176c-0.514,0.362-0.932,0.202-0.866-0.77c0.49-1.172,0.819-1.958,1.074-2.568          c0.215-0.529,0.391-0.944,0.533-1.37c0.3-0.859,0.593-1.855,1.612-4.437c-0.269,0.845-0.848,0.71-1.3,0.014          c-0.227-0.339-0.416-0.854-0.529-1.393c-0.062-0.234-0.101-0.496-0.111-0.772c0.037-0.258,0.15-0.514,0.276-0.772          c0.064,0.228,0.561,0.384,1.017,0.594c0.458,0.208,0.885,0.452,0.882,0.712c0,0-0.007-0.061-0.019-0.166          c-0.005-0.055-0.011-0.122-0.018-0.198c-0.003-0.04-0.006-0.082-0.009-0.127c0.012-0.074,0.023-0.153,0.035-0.234          c0.109-0.677,0.254-1.579,0.398-2.482c0.29-1.805,0.579-3.609,0.579-3.609c-0.417,1.741,1.435,1.023,2.631-0.147          c-0.674,0.486,2.634-5.467,3.252-7.245l-1.703,2.485c3.668-7.013,0.77-8.341,4.202-15.329          c-0.006,0.261,0.083,0.576,0.246,0.855c0.155,0.298,0.385,0.561,0.676,0.682c0.146,0.061,0.307,0.085,0.481,0.062          c0.177-0.028,0.371-0.112,0.525-0.148c0.342-0.1,0.589-0.412,1.032-0.628c-0.134-0.231,0.268-1.19,0.603-2.208          c0.366-1.046,0.836-2.303,1.424-3.656c1.179-2.708,2.824-5.795,5.119-8.394l1.395-0.446c0,0,0.871-1.009,1.741-2.019          c0.396-0.51,0.79-1.021,1.086-1.404c0.296-0.394,0.494-0.656,0.494-0.656c-0.298,0.855-0.726,2.062-1.401,3.39          c-0.675,1.347-1.48,2.879-2.34,4.447c-1.718,3.135-3.657,6.422-5.149,8.626c2.543-1.642,1.087-0.025,4.397-3.064          c1.559-0.644-1.258,2.271-2.225,3.182l8.058-6.736c-0.296-0.146-0.123-0.61,0.287-1.23c0.204-0.31,0.469-0.66,0.763-1.028          c0.148-0.183,0.303-0.372,0.46-0.564l0.26-0.315l0.253-0.32c1.301-1.669,2.497-3.325,1.993-3.531          c0,0-0.442,0.574-1.105,1.435c-0.343,0.429-0.742,0.93-1.17,1.467c-0.111,0.136-0.226,0.274-0.341,0.414l-0.364,0.419          c-0.233,0.262-0.47,0.527-0.707,0.793c-1.899,2.129-3.799,4.258-3.799,4.258c-0.582-0.297,0.056-2.036,1.531-4.284          c0.721-1.129,1.721-2.345,2.771-3.722c1.056-1.346,2.234-2.734,3.521-4.06c1.634-1.066,0.656,2.515,1.044,2.682          c0.389-0.985,4.153-5.815,4.791-6.172c0,0-0.39,0.711-0.778,1.421c-0.398,0.707-0.798,1.414-0.798,1.414          c3.102-2.874,3.169-6.196,7.125-9.443c1.105-1.316,4.341-3.252,3.923-3.924c-2.804,1.515-6.569-0.649-6.368-2.725          c0.213-0.206,1.754-1.787,3.402-3.524c1.651-1.732,3.399-3.634,4.187-4.284c1.179-0.913,1.212,0.313,1.18,1.598          c-0.048,1.268-0.156,2.595,0.888,1.816c-0.224-0.264,0.255-1.813,0.465-2.448c1.159-1.421,0.531,1.196,2.369-2.32          c-0.711-1.151,3.861-7.057-0.007-2.136c0.729-1.794,1.284-2.651,1.845-3.612c0.574-0.953,1.239-1.96,2.12-4.058          c-0.675,0.494-0.835-0.698-0.809-2.476c0.061-1.769,0.314-4.104,0.727-5.934c0.233,0.31,0.876-0.37,1.178-0.71          c1.176-3.69,2.011-6.57,2.559-9.458c0.564-2.87,0.945-5.788,0.813-9.422c0.139-0.338,0.296-1.391,0.455-2.179          c0.145-0.786,0.335-1.31,0.65-0.568c-0.307-1.047-0.726-1.991-0.988-4.234c0.295-2.233,0.473-0.988,0.693,0.4          c0.206,1.384,0.367,2.917,0.911,1.183c-0.686-0.242-1.56-5.794-2.618-8.875c-0.428,0.587-0.221,2.418,0.247,4.502          c0.187,1.048,0.43,2.163,0.676,3.216c0.249,1.053,0.418,2.051,0.594,2.849c-1.557,0.092-3.331-5.352-5.571-12.335          c-1.744-5.553,0.353-2.704-0.095-3.631c-0.675-2.676-1.423-4.509-2.178-5.863c-0.708-1.375-1.455-2.261-2.116-3.106          c-0.646-0.854-1.313-1.616-1.976-2.703c-0.638-1.103-1.382-2.466-2.259-4.532c-1.059-3.528,1.566-1.166,1.75-2.201          c0.742,0.967,1.274,1.902,1.705,2.782c0.442,0.874,0.799,1.684,1.059,2.483c0.272,0.789,0.53,1.533,0.786,2.272          c0.233,0.748,0.481,1.481,0.811,2.228c0,0-0.287-0.972-0.573-1.943c-0.307-0.966-0.66-1.919-0.66-1.918          c0.489,0.618,1.148,1.634,1.668,2.749c0.553,1.1,1.024,2.269,1.174,3.157c-0.092-1.611-1.811-6.1-4.557-10.845          c-2.745-4.754-6.623-9.583-9.483-12.936c-1.318-0.898-3.563-2.385-2.878-1.26c0,0,0.528,0.436,1.057,0.872          c0.54,0.425,1.031,0.903,1.031,0.903c0.596,1.184-0.478,0.431-1.47-0.195c-1.006-0.618-1.873-1.183-0.746,0.094          c-3.02-2.058-6.588-3.849-10.594-6.8l-0.244-1.433c-0.042,0.178,0.607,0.706,1.39,1.314c0.78,0.611,1.74,1.236,2.43,1.486          c-1.032-0.349-2.383-1.793-3.987-2.969c-1.549-1.253-3.331-2.233-4.666-2.122c0,0,0.699,0.577,1.398,1.154          c0.346,0.287,0.691,0.573,0.95,0.788c0.261,0.21,0.426,0.364,0.426,0.363c-3.422-1.232-7.812-1.923-11.813-3.613          c1.496,1.695,1.037,0.154,3.414,2.488c-0.942-1.225,1.644-0.248,3.952,0.862c2.291,1.117,4.378,2.237,2.872,0.5          c0.54,0.683,1.071,1.238,1.613,1.741c0.547,0.495,1.125,0.905,1.722,1.339c1.151,0.921,2.464,1.845,3.682,3.578          c0.104-0.348-0.703-1.455,1.997,0.883c0.191,0.018,0.571,0.153,0.811,0.244c0.077,0.079,0.104,0.106,0.17,0.174          c-0.045-0.057-0.08-0.101-0.125-0.158c0.155,0.056,0.173,0.055-0.048-0.059c-0.559-0.663-0.975-1.259-1.07-1.598          c0.479,0.114,1.115,0.438,1.836,0.867c0.359,0.216,0.745,0.453,1.129,0.718c0.37,0.283,0.754,0.575,1.138,0.867          c1.564,1.151,2.947,2.537,3.82,3.078c1.314,1.759-0.912-0.397-0.414,0.763l2.435,1.777c-0.428,0.782,2.464,5.31-1.017,1.677          c0,0,0.688,0.886,1.377,1.772c0.643,0.92,1.285,1.841,1.285,1.841c0.298,0.598,0.619,1.25,0.938,1.93          c0.327,0.675,0.703,1.345,1.06,2.011c0.67,1.359,1.455,2.59,2.068,3.54c0.818,1.934,3.005,4.547,1.712,3.078          c0,0,0.848,1.562,1.541,3.21c0.366,0.814,0.742,1.629,0.968,2.263c0.243,0.628,0.405,1.046,0.405,1.046l-0.176,0.123          c0.963,3.386,2.14,6.865,2.824,10.625c0.693,3.744,1.044,7.737,0.311,11.845c0.079,0.615,0.098,1.179,0.129,1.787          c0.021,0.606,0.072,1.24,0.044,1.925c-0.037,0.686-0.091,1.42-0.171,2.223c-0.094,0.802-0.284,1.672-0.479,2.626          c0,0-0.202,0.157-0.405,0.313c-0.21,0.154-0.42,0.307-0.42,0.307c-0.097,0.739-0.291,1.65-0.548,2.615          c-0.306,0.961-0.622,1.981-0.967,2.943c-0.365,0.959-0.676,1.872-0.915,2.632c-0.253,0.757-0.389,1.37-0.325,1.74          c-1.439,1.218-2.867,4.558-4.575,8.149c-1.673,3.594-3.609,7.436-5.225,9.649l0.671,0.669          c-2.081,3.164-3.921,6.315-6.508,10.317l0.828,0.263c-1.97,3.696-7.045,7.952-11.444,12.663          c0.079-0.53,1.262-1.663,2.183-2.401c-1.644,1.12-3.112,2.458-4.483,3.854c-0.692,0.7-1.389,1.402-2.084,2.105          c-0.71,0.733-1.404,1.483-2.092,2.233c-2.748,2.997-5.408,6-8.504,7.874c-0.282,0.353-0.559,0.667-0.83,0.949          c-0.153,0.157-0.231,0.24-0.443,0.437c-0.224,0.202-0.441,0.397-0.653,0.589c-0.219,0.187-0.432,0.368-0.642,0.546          l-0.318,0.261c-0.084,0.1-0.129,0.221-0.195,0.328c-0.247,0.441-0.498,0.867-0.757,1.292          c0.111-0.238,0.199-0.459,0.265-0.655c-0.123,0.252-0.305,0.627-0.492,1.012c-0.467,0.657-0.965,1.326-1.463,2.07          c0.502-0.595,0.959-1.177,1.296-1.711c-0.579,1.261-1.389,3.205-2.088,5.155l-1.168,0.419          c-0.063,0.154-0.115,0.279-0.182,0.441c-1.159,1.689-0.322,1.647,0.736,0.954c-0.315,1-0.566,1.934-0.691,2.691          c-1.982,0.879-1.888,5.092-4.212,6.473c0.034,0.785-0.951,3.187-1.829,5.598c-0.22,0.604-0.433,1.207-0.621,1.786          c-0.09,0.291-0.178,0.574-0.263,0.848c-0.038,0.138-0.076,0.272-0.113,0.403c-0.053,0.173-0.104,0.342-0.154,0.506          c-0.104,0.343-0.192,0.663-0.263,0.954c0.012,0.31,0.041,0.591,0.077,0.837s0.083,0.458,0.143,0.633          c0.063,0.143,0.138,0.254,0.223,0.339c-0.206,0.02-0.399,0.671-0.235-0.525c-0.527,2.351-1.034,4.572-0.909,6.709          c0,0-0.317,0.2-0.619,0.425c-0.302,0.229-0.604,0.457-0.604,0.457s0.061,0.347,0.151,0.866          c0.115,0.274,0.266,0.676,0.409,1.138c0.145,0.458,0.283,0.976,0.384,1.392c0.124,0.424,0.065,0.69,0.066,0.691          c-0.505,0.337-1.076,0.392-1.475,0.416c-0.415,0.007-0.708-0.048-0.884-0.15c-0.364-0.21-0.187-0.551,0.128-1.22          c-0.518,0.665-1.182,0.972-1.692,1.2c-0.216,0.096-0.617,0.214-0.959,0.286c-0.339,0.076-0.644,0.143-0.947,0.192          c-0.611,0.104-1.191,0.204-1.975,0.338c-0.8,0.139-1.923,0.324-3.464,0.653l0.303-0.72          c-2.199,0.022-5.828,1.004-7.063,0.386c-0.567-0.179-1.332-0.355-2.237-0.561c-0.215-0.052-0.44-0.105-0.674-0.162          c-0.165-0.049-0.335-0.1-0.513-0.152c-0.348-0.112-0.712-0.226-1.082-0.378c-0.37-0.146-0.751-0.321-1.109-0.565          c-0.347-0.235-0.729-0.577-0.741-1.069c0.069-1.107,0.142-2.286,0.218-3.506c0.1-1.751,0.203-3.563,0.307-5.392          c0.049-0.757,0.099-1.518,0.148-2.278c0.038-0.266,0.215-0.479,0.315-0.717l0.588-1.185          c1.657-3.324,3.343-6.531,4.985-9.286c-2.972,1.342,3.378-4.968,2.104-6.123c0.769-0.461,1.781-1.951,1.299,0.105          c2.318-6.106,4.873-8.522,5.526-13.184c0.772-0.461,0.074,1.575,0.626,1.101c0.123-0.52,0.482-2.059,1.042-2.545          c0.552-0.474-0.024,1.042-0.263,2.069c2.747-6.061,1.632-7.326,0.523-8.38c0.436-0.604,0.815-1.131,1.159-1.607          c0.065-0.086,0.108-0.18,0.182-0.256c0.087-0.07,0.172-0.139,0.255-0.206c0.167-0.145,0.288-0.262,0.452-0.438          c0.778-0.82,1.328-1.707,1.871-2.881c1.173-0.462,2.906-1.427,0.079,1.502c0.429-0.379,1.299-1.147,2.365-2.089          c1.064-0.942,2.297-2.087,3.545-3.118c2.452-2.108,4.61-4.167,4.328-4.692c0.379-0.131,0.953-0.615,1.585-1.192          c0.63-0.57,1.17-1.165,1.362-1.426c2.019-1.761,3.076-2.747,4.121-3.737c1.031-1.002,2.043-2.008,3.781-3.964l-1.13,0.928          c0.38-2.458,2.73-3.362,5.27-6.737l0.035,0.185c1.72-1.711,2.676-2.842,3.283-3.631c0.613-0.786,0.863-1.248,1.116-1.699          c0.248-0.457,0.521-0.886,1.09-1.688c0.578-0.795,1.487-1.928,2.967-3.857l-1.013,0.006c-0.584-0.875,0.732-2.504,2.33-4.72          c1.608-2.193,3.444-5.081,3.974-7.898c0,0-0.28,0.442-0.562,0.883c-0.275,0.442-0.572,0.869-0.572,0.869          c0.119-0.769,0.468-1.61,0.994-2.486c0.476-0.895,1.133-1.829,1.744-2.812c0.607-0.984,1.26-1.986,1.727-2.98          c0.243-0.493,0.472-0.975,0.647-1.438c0.157-0.467,0.279-0.913,0.351-1.323c0.219-0.712,0.186,1.177,0.117,2.19          c1.12-4.284,0.658-4.667,0.245-4.665c-0.229-0.011-0.502,0.044-0.722-0.299c-0.225-0.34-0.352-1.096-0.498-2.603          c0.574-1.154,1.624,1.452,1.582-2.755c0.05-0.266,0.058-0.654,0.01-1.141c-0.072-0.487-0.189-1.073-0.338-1.731          c-0.326-1.314-0.63-2.925-1.23-4.608c-0.547-1.688-1.039-3.478-1.652-5.17c-0.276-0.852-0.518-1.69-0.706-2.502          c-0.222-0.803-0.448-1.566-0.565-2.298c0.021,1.372,0.015,2.663-1.356,0.117c-0.22-0.504-0.425-1.064-0.624-1.667          c-0.194-0.604-0.485-1.213-0.725-1.87c-0.516-1.297-0.961-2.748-1.696-4.054c-1.267-2.716-3.131-5.118-5.005-6.145          c-0.305-0.494-0.368-0.734-0.299-0.832c-0.68-0.548-1.538-1.292-2.481-2.096c-1.022-0.705-2.138-1.474-3.219-2.218          c-1.095-0.708-2.267-1.216-3.217-1.675c-0.482-0.219-0.924-0.407-1.311-0.548c-0.406-0.104-0.754-0.171-1.026-0.192          c-0.646-2.028-5.75-4.146-10.582-4.619c-0.6-0.081-1.184-0.216-1.765-0.245c-0.579-0.038-1.145-0.075-1.688-0.11          c-1.082-0.078-2.069-0.168-2.902-0.292c-1.668-0.116-2.735-0.39-2.688-1.088c0,0-0.645-0.02-1.611-0.048          c-0.949-0.073-2.299,0.045-3.625,0.118c-0.666,0.021-1.326,0.111-1.943,0.212c-0.617,0.093-1.193,0.179-1.688,0.253          c-0.496,0.062-0.899,0.164-1.181,0.233c-0.283,0.067-0.445,0.106-0.445,0.106l0.215-0.339          c-0.84,0.164-1.61,0.33-2.318,0.494c-0.696,0.2-1.322,0.425-1.899,0.628c-1.164,0.386-2.064,0.862-2.824,1.298          c-1.543,0.829-2.412,1.725-3.301,2.52c-1.435,0.542-0.586-0.213-0.536-0.397c-1.099,0.521-2.045,1.04-2.914,1.489          c-0.839,0.489-1.567,0.956-2.237,1.379c-1.32,0.87-2.312,1.682-3.231,2.495c-1.764,1.694-3.251,3.442-5.409,6.791          c0,0-0.306-0.003-0.611-0.007c-0.303,0.002-0.605,0.004-0.605,0.004c-0.511,0.98-3.07,3.268-5.817,6.582          c-2.758,3.292-5.718,7.586-7.431,11.87c-0.045-0.127-0.119-0.381,0.13-1.078c-2.046,4.772-5.233,10.012-7.496,14.997          c-0.14,0.319-0.279,0.635-0.417,0.947l-0.207,0.498l-0.128,0.241c-0.146,0.326-0.345,0.62-0.531,0.903          c-0.373,0.569-0.807,1.057-1.22,1.502c-0.811,0.92-1.568,1.638-1.944,2.649c0,0-0.281,0.13-0.701,0.326          c-0.433,0.163-1.029,0.374-1.654,0.472c-0.312,0.053-0.629,0.104-0.927,0.106c-0.302,0.03-0.583,0.021-0.825,0.003          c-0.233-0.005-0.452-0.018-0.65-0.051c-0.181-0.023-0.284-0.037-0.284-0.037c0.552,0.169,0.87,0.237,1.178,0.328          c0.306,0.087,0.574,0.112,0.793,0.174c0.442,0.09,0.716,0.136,0.857,0.223c0.284,0.158,0.038,0.34-0.382,0.535          c-0.807,0.396-2.434,0.577-0.765,1.057c-0.836,0.008-1.746-0.295-2.607-0.598c-0.857-0.31-1.649-0.653-2.211-0.95          c-1.124-0.592-1.33-0.994,0.692-0.561l0.585,0.32c0.948-0.64-1.586-1.449-4.292-2.232c-0.664-0.195-1.394-0.392-1.981-0.578          c-0.24-0.094-0.48-0.168-0.694-0.264c-0.205-0.109-0.398-0.212-0.578-0.308c-0.673-0.449-0.963-0.893-0.757-1.09          c-1.1-0.842-1.883-2.053-2.078-3.409c-0.106-0.673-0.088-1.369,0.041-2.06c0.148-0.704,0.391-1.28,0.842-2.287          c1.659-3.667,3.551-7.264,5.529-10.744c3.979-6.96,8.339-13.531,12.931-19.667l-2.131,0.645c0,0,0.817-1.074,1.635-2.148          c0.804-1.085,1.667-2.121,1.667-2.121c1.123-0.919,1.972-0.85-0.403,2.135c0.899-0.581,1.772-1.915,2.384-3.174          c0.624-1.245,1.045-2.365,0.964-2.505c1.3-1.363,1.926-1.815,2.135-1.781c0.208,0.034-0.023,0.529-0.339,1.164          c-0.635,1.267-1.723,2.974-0.98,2.111c0,0,0.477-0.609,0.953-1.217c0.239-0.305,0.477-0.609,0.656-0.838          c0.186-0.222,0.31-0.37,0.31-0.37l-0.577,0.422c0.619-1.121,0.875-1.809,1.351-2.651c0.467-0.852,1.202-1.813,2.825-3.434          c2.218-1.882,1.632-0.46,2.473-1.222c0.061,0.072,0.367-0.159,1.279-1.17c0,0,0.307-0.281,0.767-0.703          c0.475-0.402,1.109-0.938,1.743-1.473c1.248-1.098,2.575-2.08,2.575-2.08s-0.685,0.208-1.371,0.416          c-0.683,0.218-1.352,0.47-1.352,0.47c1.926-2.325,4.96-3.906,1.771-2.924c0.597-0.171,1.339-0.558,2.23-1.041          c0.452-0.232,0.934-0.499,1.44-0.792c0.251-0.149,0.511-0.303,0.778-0.461l0.369-0.222l0.089-0.026          c0.474-0.153,0.957-0.438,1.43-0.717c0.933-0.579,1.75-1.275,2.113-1.167c0.234-1.076,0.907-1.436,1.772-1.794          c-0.31-0.081-1.017-1.039-0.227-1.308c0.917,2.278,1.812,0.215,3.174,1.467c-1.052-0.807,1.895-1.214,0.362-2.32          c0.693-0.104,0.434,0.805,1.135,1.112c0.509-0.753,1.362-0.994,2.28-1.148c0.938-0.108,1.928-0.153,2.766-0.644          c-0.08-0.312-0.553-0.655-0.325-1.252l1.482,1.145c0.303-0.26-0.249-1.853,0.762-0.996          c-0.175-0.229-0.443-0.573-0.227-0.744c1.034,0.101,1.978-0.06,2.9-0.337c0.929-0.247,1.856-0.526,2.791-0.812          c0.468-0.138,0.94-0.266,1.417-0.364c0.479-0.082,0.971-0.09,1.464-0.072c0.985,0.046,1.992,0.293,2.985,0.901          c-0.56-0.546-0.232-0.67,0.159-0.718c-0.268-0.138-0.06-0.788-0.146-1.219l1.691,1.136c0.236-1.215,1.707-0.155,1.853-1.314          l-0.511,0.23c0.675-1.389-1.063-2.977-1.054-4.722c-0.384,0.79-0.949,0.241-1.606-0.219          c-0.327-0.227-0.676-0.445-1.015-0.44c-0.338,0.018-0.669,0.236-0.953,0.83c-0.34-0.315,0.2-0.592-0.004-0.973          c-0.275,0.788-0.667,0.995-1.488,0.762l0.064-0.195c-1.082,0.246-1.891,0.161-2.739,0.117          c-0.849-0.048-1.756-0.17-3.047-0.145l0.375,0.802c-0.549,0-0.723-0.24-1.021-0.396c-0.292,1.399,1.493-0.244,1.268,1.278          c-0.529-0.762-1.479-0.637-2.355-0.386c-0.886,0.224-1.749,0.411-2.273-0.472c-0.803,0.229,0.524,0.885-0.271,1.11          l-0.373-0.452l0.012,0.722c-0.55,0.044-1.028-0.517-1.194-0.943c0.145,0.013,0.323-0.23,0.448-0.309          c-0.903-0.43-1.82,0.891-2.12,0.765l0.863,0.028c-0.978,0.641-2.168,1.041-3.327,1.509c-1.133,0.516-2.21,1.147-2.954,2.091          l0.325,0.298c-1.152,1.359-1.395,0.147-2.815,1.322l0.012-0.116c-0.125,0.53-0.444,0.938-0.895,1.132          c0.167-0.635-1.205-0.395-0.94-1.142c-1.165,1.568-0.479,0.964-0.689,2.876l-0.575-0.435          c-0.018,0.731,0.124,1.023-0.525,1.638c0.305-0.876-1.029-0.567-0.744-1.651c-1.191-0.122-1.593,0.573-1.915,1.115          c-0.166,0.267-0.295,0.525-0.516,0.619c-0.11,0.048-0.24,0.059-0.403,0.017c-0.041-0.01-0.084-0.024-0.129-0.041          l-0.069-0.028l-0.221,0.071c-0.298,0.093-0.604,0.17-0.923,0.231c-0.692,1.067-0.538,1.323,0.034,1.15          c0.498-0.12,1.905-1.019,1.776-0.88c0.409-0.198,0.754-0.576,0.67-0.271c0.334,0.138,0.383,0.529,0.283,0.907          c-0.051,0.189-0.14,0.375-0.251,0.524c-0.028,0.038-0.057,0.072-0.088,0.105c-0.176,0.132-0.35,0.263-0.52,0.391          c-0.37,0.269-0.729,0.515-1.062,0.723c-1.33,0.881-2.717,1.284-4.65,2.054c-0.979,0.372-2.009,0.928-3.221,1.691          c-1.225,0.75-2.535,1.804-4,3.229c0.594-0.556,0.537-0.696,1.129-1.252c-1.271,0.887-2.263,2.031-3.253,3.272          c-0.505,0.613-1.03,1.233-1.627,1.837c-0.585,0.613-1.221,1.226-1.992,1.792c-0.577,2.28-3.198,3.648-2.485,5.016          c0,0,1.125-1.469,2.249-2.938c1.174-1.436,2.349-2.871,2.349-2.871c-2.569,3.39-3.808,7.386-8.516,12.373          c0.09-0.593,0.965-2.485,1.686-3.712c-1.589,1.326-2.106,3.263-3.685,4.693c-0.43-0.668,0.842-2.532,2.467-4.743          c1.643-2.203,3.706-4.689,4.775-6.768c-0.95,0.629-2.126,2.455-3.027,3.763c-0.866,1.333-1.482,2.156-1.392,0.776          c-0.116,0.955-0.497,1.808-1.025,2.647c-0.512,0.85-1.183,1.679-1.908,2.559c-1.427,1.769-3.046,3.771-3.906,6.474          l-0.522-0.775c-0.379,0.793-0.995,2.53-1.857,3.866l0.597-3.046c-1.593,4.244-5.228,6.875-6.839,10.896          c4.368-7.808,1.883-1.243,4.297-4.192c-2.253,5.009-3.424,6.139-4.835,7.372c-1.371,1.25-2.998,2.566-5.401,8.333          c0.568-1.615,3.163-5.485,2.384-2.954c-1.193,2.061-2.729,4.695-3.756,6.048c-0.509,1.426-0.719,2.543-0.789,3.348          c-0.071,0.807-0.058,1.288-0.002,1.536c0.1,0.492,0.203,0.021,0.387-0.63c0.192-0.653,0.461-1.481,0.705-1.808          c0.236-0.333,0.313-0.209,0.238,0.986c-0.79,1.838-0.574,3.437,0.074,4.882c0.68,1.449,1.684,2.88,3.356,4.556l-0.639,0.603          c1.036,1.303,2.11,2.075,2.977,2.585c0.876,0.517,1.578,0.74,2.107,0.89c0.534,0.126,0.911,0.133,1.193,0.119          c0.142-0.009,0.261-0.029,0.368-0.054c0.089-0.032,0.16-0.072,0.234-0.11c0.583-0.307,1.053-0.628,4.923,0.72l-3.646,0.318          l4.202,0.757l-1.1,0.748c4.153,0.205,7.253,1.963,13.157,0.039c-0.804-0.031-0.706-0.472,0.098-1.157          c0.783-0.729,2.291-1.703,4.045-3.505c0.697-0.52,0.975-0.708,1.112-0.717c0.138-0.011,0.123,0.143,0.166,0.191          c0.043,0.047,0.149-0.011,0.527-0.461c0.351-0.465,1.019-1.328,1.72-3.109c-0.022,0.457-0.075,0.924-0.193,1.409          c-0.098,0.497-0.271,1-0.536,1.517c-0.514,1.03-1.436,2.129-2.988,2.899c-0.051,0.462-1.036,1.496-1.211,1.924          c1.951-0.831,4.006-2.75,5.299-4.995c0.317-0.562,0.599-1.139,0.837-1.706c0.106-0.29,0.211-0.574,0.313-0.853          c0.048-0.137,0.095-0.271,0.141-0.405l0.063-0.215c0.191-0.641,0.395-1.25,0.565-1.7c-0.297,0.675-0.665,1.527-0.9,1.827          c-0.035,0.081,0.336-1.858,0.822-3.811c0.473-1.951,1.03-3.904,1.03-3.904c0.836-1.005,0.639,0.01,0.481,1.016          c0.573-1.507,0.681-2.694,1.674-4.863c0.366,0.869,1.065,1.063-0.045,4.209c0,0,0.604-1.787,1.273-3.559          c0.665-1.773,1.395-3.525,1.395-3.525c0.507-0.307,2.633-2.941,2.378-1.963c1.225-1.675,2.238-4.006,3.484-6.419          c1.25-2.399,2.732-4.889,4.683-6.789c0.077-0.301,0.35-0.807,1.035-1.74c1.761-1.835,3.617-3.344,5.548-4.843          c1.916-1.54,3.902-3.048,6.106-4.95c0,0,0.854-0.132,1.709-0.263c0.85-0.064,1.7-0.129,1.7-0.129          c0.923-0.564,1.135-0.754,0.987-0.888c-0.146-0.134-0.638-0.153-1.046-0.173c-0.41-0.033-0.75-0.108-0.578-0.414          c0.087-0.151,0.3-0.367,0.703-0.653c0.413-0.255,1.017-0.579,1.868-0.993c2.45-1.063,3.018-0.917,3.168-0.58          c0.154,0.342-0.062,0.865,0.846,0.847c0.575-0.277,1.253-0.69,2.059-1.012c0.81-0.281,1.719-0.674,2.736-0.857          c1.98-0.458,4.531-0.341,6.985,0.295C262.973,142.441,261.684,142.211,260.132,142.226z M298.248,175.721          c-0.238-1.122-1.324-3.149-0.944-4.057c0.614,0.516,0.854,1.055,0.949,1.695c0.048,0.321,0.06,0.667,0.065,1.053          C298.313,174.8,298.261,175.236,298.248,175.721z M254.161,252.196c0.117-0.934,0.835-2.129,1.8-3.404          C255.544,249.851,254.969,251.001,254.161,252.196z M318.519,144.97c0.038,0.033,0.064,0.056,0.101,0.079          c0.521,1.15,0.627,1.554,0.59,1.431C319.151,146.368,318.927,145.74,318.519,144.97z M315.936,140.415          c-0.402-0.358-0.479-0.252-0.449,0c0.387,0.164,1.076,1.118,1.796,2.243C317.26,142.229,316.995,141.581,315.936,140.415z           M216.546,133.764l-0.919,0.561C217.17,132.501,216.846,133.126,216.546,133.764z" style="fill:#202020;"/><path d="M259.369,241.882c0.354-0.133,0.538-0.082,0.712-0.019          C260.326,241.425,260.216,241.294,259.369,241.882z" style="fill:#202020;"/><path d="M230.944,158.521l-0.123,0.126c-0.021,0.11-0.013,0.185,0.008,0.241L230.944,158.521z" style="fill:#202020;"/><path d="M323.534,221.313c-0.707,0.957-1.202,1.423-1.573,1.707          C322.1,223.182,322.568,222.845,323.534,221.313z" style="fill:#202020;"/><path d="M294.178,124.045c0,0,0.76,0.327,1.52,0.653c0.758,0.333,1.49,0.715,1.49,0.715          c-1.39-0.784-1.83-1.171-2.482-1.677C294.679,123.953,295.101,124.504,294.178,124.045z" style="fill:#202020;"/><path d="M282.991,113.956c-0.121,0.077-0.199-0.044-0.319,0.034l-0.081,0.4          C282.987,114.477,283.351,114.24,282.991,113.956z" style="fill:#202020;"/><path d="M292.615,120.069c0.025-0.39-0.479-0.768-1.288-1.127c-0.819-0.336-1.931-0.67-3.085-1.053          c0.137,0.051,0.268,0.096,0.399,0.158c-0.512,0.353-0.138,0.687,0.672,1.008          C290.124,119.377,291.388,119.67,292.615,120.069z" style="fill:#202020;"/><path d="M287.698,117.732c-0.359-0.109-0.722-0.22-1.083-0.33l-0.533-0.182l-0.249-0.091          l-0.044-0.026c-0.045,0.094-0.059,0.149-0.051,0.18c0.012,0.031-0.013,0.018,0.254,0.085          C286.412,117.465,287.047,117.566,287.698,117.732z" style="fill:#202020;"/><path d="M311.35,135.632c-0.635-0.922-1.168,0.158-1.385-0.492c-0.772-0.092,0.739,0.954,1.776,1.678          C312.811,137.514,313.534,137.741,311.35,135.632z" style="fill:#202020;"/><path d="M291.753,117.037c0,0,0.12,0.292,0.24,0.584c0.114,0.299,0.229,0.599,0.229,0.599          l1.565-0.098c0,0-0.506-0.277-1.011-0.554C292.274,117.279,291.752,117.037,291.753,117.037z" style="fill:#202020;"/><path d="M308.233,127.671c0,0-0.728-0.677-1.456-1.354c-0.762-0.639-1.524-1.277-1.524-1.277          c-0.042,0.159-0.501-0.066-1.038-0.375c0.968,0.742,1.989,1.509,2.723,2.128          C307.671,127.414,308.183,127.804,308.233,127.671z" style="fill:#202020;"/><path d="M304.215,124.666c-1.031-0.742-2.071-1.365-2.735-1.631          C302.054,123.409,303.32,124.167,304.215,124.666z" style="fill:#202020;"/><path d="M296.841,119.09l0.967,0.712c0,0,0.155,0.084,0.389,0.211c0.235,0.122,0.54,0.302,0.84,0.491          c0.603,0.37,1.205,0.74,1.205,0.74s-0.836-0.56-1.673-1.12C297.705,119.607,296.841,119.09,296.841,119.09z" style="fill:#202020;"/><path d="M329.556,163.577c0,0,0.281,1.046,0.562,2.092c0.14,0.524,0.278,1.049,0.383,1.443          c0.086,0.397,0.145,0.662,0.145,0.662c0.372,0.388,0.407-0.825-0.064-2.388          C330.157,164.406,329.717,162.858,329.556,163.577z" style="fill:#202020;"/><path d="M327.813,150.19c0.299,1.188,0.142,1.339,0.128,2.073l1.103-0.292L327.813,150.19z" style="fill:#202020;"/><path d="M332.138,162.494c0.42,0.344,2.201,6.221,0.988,0.623          C332.756,162.72,331.356,158.439,332.138,162.494z" style="fill:#202020;"/><polygon points="317.243,225.445 317.845,224.506 316.211,223.617         " style="fill:#202020;"/><path d="M283.853,270.957c2.62-4.488-0.506-1.602,2-5.591c0.124-1.286-2.048,3.261-1.855,1.973          C283.075,270.36,282.137,271.731,283.853,270.957z" style="fill:#202020;"/><path d="M283.997,267.339c0.148-0.484,0.295-1.001,0.429-1.562          C284.143,266.645,284.04,267.067,283.997,267.339z" style="fill:#202020;"/><polygon points="257.51,115.461 258.078,115.823 257.702,115.216         " style="fill:#202020;"/><path d="M258.573,114.039l0.144,1.175l0.338-1.084C258.925,114.188,258.675,114.301,258.573,114.039z          " style="fill:#202020;"/><path d="M296.374,184.25l0.277,0.218c0.161-0.208,0.253-0.477,0.318-0.856          c0.054-0.393,0.036-0.941,0.038-1.649c0,0-0.144,0.594-0.286,1.188c-0.062,0.306-0.161,0.568-0.231,0.767          C296.42,184.117,296.374,184.25,296.374,184.25z" style="fill:#202020;"/><path d="M281.928,149.387c0,0,0.556,0.36,0.539,0.382c0.001,0-0.015-0.111-0.059-0.25          c-0.042-0.144-0.098-0.336-0.153-0.528c-0.119-0.39-0.237-0.78-0.237-0.78L281.928,149.387z" style="fill:#202020;"/><path d="M250.95,146.01c0.607-0.154,1.233-0.444,1.881-0.654c0.651-0.191,1.306-0.389,1.922-0.511          C252.164,145.558,250.208,144.887,250.95,146.01z" style="fill:#202020;"/></g></g></g><g><g><g><path d="M268.699,367.895c0.272,0.066,0.175-0.696,0.216-0.833          C268.46,367.23,268.711,368.093,268.699,367.895z" style="fill:#202020;"/><polygon points="264.205,369.625 264.285,369.314 263.623,370.077         " style="fill:#202020;"/><path d="M260.003,369.611c0.397,1.299,1.522-0.21,2.271,0.252l0.124,0.296l0.337-1.045          C261.825,369.279,260.644,369.974,260.003,369.611z" style="fill:#202020;"/><path d="M257.762,366.801c0.139,0.506-0.484,0.436,0.523,0.158c-0.051-0.055-0.065-0.087-0.095-0.127          C258.1,366.839,257.975,366.838,257.762,366.801z" style="fill:#202020;"/><path d="M258.19,366.832C258.633,366.796,257.9,366.406,258.19,366.832L258.19,366.832z" style="fill:#202020;"/><path d="M256.146,367.121l0.583-0.451c-0.122-0.299-0.641-0.366-0.448-0.583          C255.683,366.334,255.806,366.631,256.146,367.121z" style="fill:#202020;"/><path d="M255.593,368.069l0.302-0.191C255.843,367.753,255.763,367.709,255.593,368.069z" style="fill:#202020;"/><path d="M256.536,367.475l-0.641,0.403c0.084,0.21,0.093,0.631,0.294-0.146          C256.137,368.117,256.264,367.748,256.536,367.475z" style="fill:#202020;"/><path d="M256.899,367.673c0.327,0.282,0.75,0.461,0.165,0.91          C258.179,368.404,258.014,367.491,256.899,367.673z" style="fill:#202020;"/><path d="M259.788,370.955l0.438,0.38l0.378-0.436C260.415,371.115,259.762,370.548,259.788,370.955z" style="fill:#202020;"/><path d="M252.515,366.448c-0.037,0.276,0.196,0.737,0.239,1.091l0.431-0.317          C252.963,367.032,252.544,366.858,252.515,366.448z" style="fill:#202020;"/><path d="M252.754,367.539l-0.644,0.475C252.685,368.069,252.791,367.844,252.754,367.539z" style="fill:#202020;"/><polygon points="255.489,369.512 256.548,368.515 255.286,369.525         " style="fill:#202020;"/><polygon points="250.054,366.414 250.419,365.774 249.769,366.74         " style="fill:#202020;"/><path d="M248.824,366.505c0.132-0.528-0.066-0.896,0.059-1.221c-0.137,0.101-0.306,0.5-0.522,0.9          C248.55,365.959,248.644,366.082,248.824,366.505z" style="fill:#202020;"/><path d="M247.998,366.705c0.111-0.106,0.238-0.294,0.363-0.521          C248.263,366.295,248.155,366.434,247.998,366.705z" style="fill:#202020;"/><path d="M251.012,367.877c-0.05-0.168-0.146-0.605-0.507-0.79l0.253,0.778          C250.836,367.868,250.923,367.872,251.012,367.877z" style="fill:#202020;"/><path d="M250.768,367.89l-0.009-0.024c-0.275-0.021-0.466-0.037-0.548-0.043          C250.281,367.83,250.449,367.851,250.768,367.89z" style="fill:#202020;"/><path d="M251.076,367.88c-0.023-0.001-0.041-0.002-0.064-0.003          C251.037,367.953,251.051,367.979,251.076,367.88z" style="fill:#202020;"/><path d="M253.8,368.809c-0.378,0.434-1.167,0.9-0.404,1.563          C253.668,369.84,253.231,369.462,253.8,368.809z" style="fill:#202020;"/><path d="M251.391,368.853l0.685,0.178c-0.013-0.206-0.137-0.505,0.051-0.721L251.391,368.853z" style="fill:#202020;"/><polygon points="251.056,369.099 251.391,368.853 251.137,368.786         " style="fill:#202020;"/><path d="M248.414,367.528c-0.197,0.3-0.396,0.334-0.601,0.316c0.173,0.227,0.407,0.301,0.627,0.353          C248.501,367.961,248.631,367.539,248.414,367.528z" style="fill:#202020;"/><path d="M249.229,367.802l-0.065,0.045C249.204,367.912,249.236,367.934,249.229,367.802z" style="fill:#202020;"/><path d="M245.958,367.032c-0.015,0.041-0.033,0.09-0.05,0.134l0.081-0.108L245.958,367.032z" style="fill:#202020;"/><path d="M248.462,368.348c0.163,0.164,0.292-0.028,0.398-0.261c-0.129,0.066-0.275,0.13-0.42,0.11          C248.413,368.305,248.401,368.376,248.462,368.348z" style="fill:#202020;"/><path d="M247.444,366.912c0.014,0.178,0.051,0.341,0.103,0.499          C247.542,367.145,247.538,366.729,247.444,366.912z" style="fill:#202020;"/><path d="M249.087,367.629c0.008-0.012,0.015-0.025,0.023-0.032          C249.061,367.425,249.067,367.507,249.087,367.629z" style="fill:#202020;"/><path d="M249.087,367.629c-0.081,0.104-0.151,0.292-0.227,0.458c0.116-0.056,0.18-0.129,0.303-0.24          C249.121,367.792,249.098,367.707,249.087,367.629z" style="fill:#202020;"/><path d="M242.238,370.461c0.251-0.25,0.638-0.384,0.958-0.35c0.32,0.042,0.566,0.267,0.655,0.759          c0.848-0.113,1.575-2.454,2.057-3.704c-0.192,0.254-0.332,0.51-0.957,0.571c-0.053,0.198,0.013,0.559,0.047,0.887          c0.031,0.323,0.009,0.656-0.369,0.808c-0.845-0.108-0.363-0.576-0.402-1.064c-0.163,0.437-0.552,0.567-1.002,0.657          c-0.45,0.104-0.995,0.193-1.387,0.728l0.904,0.194C242.625,370.116,242.19,370.165,242.238,370.461z" style="fill:#202020;"/><path d="M246.529,367.601l0.184-0.01c-0.104-0.203-0.118-0.49,0-1.102          c-0.371,0.184-0.577,0.378-0.723,0.568c0,0,0.623,0.49,0.637,0.47L246.529,367.601z" style="fill:#202020;"/><path d="M247.383,367.856c-0.337,0.704-0.921,0.85-0.939,1.745c0.608,0.176,0.62-0.486,1.027-0.722          c-0.901-0.022,0.342-0.367-0.109-0.936c0.186-0.09,0.324-0.102,0.451-0.1c-0.106-0.128-0.197-0.271-0.266-0.434          c0,0.019,0.001,0.032,0.001,0.05l0.004-0.002l-0.004,0.012c0.001,0.101-0.006,0.159-0.023,0.098          c-0.005,0.009-0.015,0.011-0.02,0.012c-0.038,0.104-0.079,0.191-0.12,0.272c-0.152-0.235,0.033-0.205,0.12-0.272          c0.014-0.035,0.028-0.07,0.043-0.109v-0.01c0.018,0.001-0.829,0.16-0.834,0.13          C246.806,367.777,247.024,367.806,247.383,367.856z" style="fill:#202020;"/><path d="M252.692,372.059c-0.041-0.069-0.039-0.125-0.042-0.182          C252.565,371.973,252.532,372.038,252.692,372.059z" style="fill:#202020;"/><path d="M252.149,371.585c0.096-0.109,0.176-0.424,0.488-0.342c0.271,0.235-0.001,0.376,0.013,0.634          c0.188-0.209,0.658-0.563,0.069-0.944l-0.094,0.106c-0.531-0.27-1.214-1.247-1.121-1.355          C251.659,370.39,251.796,370.893,252.149,371.585z" style="fill:#202020;"/><path d="M249.081,370.053c0,0-0.218,0.084-0.436,0.168c-0.223,0.09-0.456,0.16-0.456,0.16          s0.091,0.19,0.196,0.36c0.108,0.175,0.216,0.35,0.216,0.35v-0.408C249.124,370.869,249.018,370.363,249.081,370.053z" style="fill:#202020;"/><path d="M246.125,366.667l0.525-0.64c0,0-0.218,0.197-0.455,0.386          c-0.233,0.188-0.485,0.366-0.485,0.366L246.125,366.667z" style="fill:#202020;"/><polygon points="245.468,366.258 245.977,365.746 245.536,365.938         " style="fill:#202020;"/><path d="M242.083,340.051l0.04-0.261C242.087,339.885,242.078,339.97,242.083,340.051z" style="fill:#202020;"/><path d="M241.059,340.624l0.177,0.311C241.168,340.741,241.106,340.608,241.059,340.624z" style="fill:#202020;"/><path d="M243.647,357.875c0.673-0.164,1.715-0.349,0.906-0.328l-0.79,0.051          C243.905,357.712,243.817,357.801,243.647,357.875z" style="fill:#202020;"/><path d="M239.405,349.46c-0.079-0.009-0.163-0.017-0.245-0.025c0.249,0.118,0.48,0.228,0.694,0.328          C239.716,349.67,239.564,349.567,239.405,349.46z" style="fill:#202020;"/><path d="M236.343,348.326l0.58-0.105C236.732,348.221,236.541,348.251,236.343,348.326z" style="fill:#202020;"/><path d="M248.12,337.397l0.157-0.813C247.948,336.605,248.121,337.003,248.12,337.397z" style="fill:#202020;"/><path d="M243.654,363.834c0.278-0.16,0.39-0.246,0.414-0.305          C243.649,363.717,243.015,363.985,243.654,363.834z" style="fill:#202020;"/><path d="M246.052,347.442c-0.039-0.144-0.105-0.292-0.197-0.442          C245.886,347.141,245.943,347.281,246.052,347.442z" style="fill:#202020;"/><path d="M244.012,363.325c-0.066,0.028-0.116,0.05-0.178,0.076c0.145,0.026,0.265,0.054,0.233,0.128          C244.382,363.385,244.556,363.289,244.012,363.325z" style="fill:#202020;"/><path d="M273.423,354.907c-0.036,0.034-0.053,0.074-0.095,0.104          C273.436,355.022,273.44,354.976,273.423,354.907z" style="fill:#202020;"/><path d="M267.038,365.493c-0.101-0.127-0.224-0.259-0.341-0.382          C266.716,365.126,266.817,365.219,267.038,365.493z" style="fill:#202020;"/><path d="M244.907,365.078C244.977,365.097,244.985,365.037,244.907,365.078L244.907,365.078z" style="fill:#202020;"/><path d="M242.55,367.143c-0.082,0.038-0.182,0.094-0.331,0.199          C242.377,367.235,242.482,367.174,242.55,367.143z" style="fill:#202020;"/><path d="M239.042,363.221l0.002-0.01C238.892,363.257,238.922,363.249,239.042,363.221z" style="fill:#202020;"/><path d="M244.655,365.35c0.064-0.071,0.12-0.138,0.155-0.192          C244.766,365.201,244.708,365.266,244.655,365.35z" style="fill:#202020;"/><path d="M244.956,365.13c-0.018,0.034-0.024,0.058-0.033,0.08          C245.035,365.141,245.1,365.089,244.956,365.13z" style="fill:#202020;"/><path d="M244.835,365.036c0.026,0.021,0.009,0.065-0.025,0.121c0.039-0.038,0.074-0.067,0.097-0.079          C244.89,365.071,244.865,365.061,244.835,365.036z" style="fill:#202020;"/><path d="M255.981,340.12c0.007,0.024,0.013,0.045,0.022,0.074          C256.111,339.867,256.064,339.92,255.981,340.12z" style="fill:#202020;"/><polygon points="235.448,355.116 235.486,355.128 235.513,355.112         " style="fill:#202020;"/><path d="M234.859,354.735c0.983,0.162,0.862,0.254,0.654,0.377l2.277-0.126L234.859,354.735z" style="fill:#202020;"/><path d="M244.576,338.697l-0.607-0.534c0.078-1.271,0.603-1.024-0.107-1.834          c0.348,1.187-0.013,1.382-0.373,1.584c-0.363,0.193-0.709,0.427-0.22,1.563l-0.45-0.361          c0.078-0.011,0.027-0.147,0.105-0.157c-0.981-0.842,0.432,1.773-0.245,1.718c-0.267-0.062-0.579-0.293-0.596-0.625          c0,0-0.028,0.195-0.055,0.39c-0.023,0.192-0.045,0.386-0.045,0.386c-0.142,0.029-0.341-0.351-0.196-0.385          c0,0-0.514,0.556-0.514,0.556l-0.036-0.063c0.132,0.383,0.297,1.005,0.366,1.272c-0.347-0.183-0.085-0.263-0.302-0.486          l0.057,0.705c-0.518-0.41-0.64-1.099-0.357-1.194c-0.877-0.886-0.87-0.696-0.811-0.386c0.056,0.322,0.157,0.733-0.622,0.466          c0,0,0.025-0.127,0.049-0.254c0.03-0.124,0.061-0.248,0.061-0.248c-1.104-0.923-1.024-0.298-1.991-0.604          c0.427,0.226,2.177,1.004,2.233,1.779c-0.213-0.059-0.402-0.008-0.235,0.514c-0.601-0.638-0.638-0.323-0.809-0.076          l-0.814-0.833c0.004,0.487,0.454,0.875,0.711,1.37c-0.318,0.179-1.047-0.357-1.686-0.783          c-0.547,0.338,1.369,0.636,1.077,1.295c-0.634,0.091-0.479,0.679-0.217,1.501c-0.503,0.046-0.562-0.446-0.899-0.534          l0.623,0.756c-0.055,0.046-0.284-0.126-0.399-0.214c0.179,0.396,0.969,0.645,1.059,1.105          c0.526,0.369,0.039,0.268-0.467,0.244c-0.498-0.026-1.001,0.051-0.445,0.568c-0.346-0.044-0.619-0.358-1.039-0.525          c0.591,0.984,0.374,0.799,1.4,1.731c0,0-0.213,0.026-0.427,0.053c-0.215,0.032-0.43,0.064-0.43,0.064          c0.926,0.013,1.761,0.739,2.483,1.239c0.424,0.049,0.792,0.092,0.988,0.114c0,0,0.115,0.139,0.229,0.278          c0.125,0.135,0.251,0.271,0.251,0.271c-0.194-0.012-0.57-0.155-1.02-0.36c0.089,0.055,0.175,0.106,0.25,0.151          c-0.449,0.02-1.08-0.224-1.673-0.527c0.235,0.009,0.484,0.026,0.729,0.048c-0.641-0.313-1.341-0.671-1.998-0.861          c0.116,0.075,0.203,0.173,0.241,0.26c-0.172-0.09-0.327-0.163-0.443-0.183c-0.123-0.021,0.1,0.112,0.364,0.282l-1.276-0.251          l0.487,0.176c0,0-0.243,0.125-0.486,0.251c-0.245,0.138-0.489,0.274-0.489,0.274c1.133,0.845,2.99,1.564,3.445,2.23          c-0.939-0.251-1.545-0.184-2.668-0.291c1.199-0.088-0.421-0.674-0.115-1.088c-0.159,0.199-0.681,0.068-0.857-0.024          c0,0,0.238,0.239,0.476,0.479c0.242,0.224,0.483,0.447,0.483,0.447c-0.918-0.116-0.706,0.091-1.096,0.271          c1.825-0.002,1.179,0.655,1.726,0.96c-0.612,0.013-1.235-0.07-1.069-0.454c-1.392,0.404,2.111,0.596,0.948,0.876          c-0.014-0.071,0.08-0.109-0.231-0.138c0.544,0.166,0.113,0.571-0.42,0.476l-0.012-0.07          c-0.216,0.471-0.014,1.433,1.534,1.503c-0.2,0.005-1.866-0.062-2.179-0.09l5.209,0.84c-1.33-0.074-4.496,0.21-5.247-0.181          c-0.189,0.112-0.41,0.251,0.058,0.487c0.189-0.076,1.923-0.19,2.044-0.086c-1.48,0.287-0.792,0.199-2.054,0.553          c0.285-0.114,2.37,0.013,2.303,0.193c-0.312-0.028-2.058,0.016-2.275-0.051l2.047,0.451          c-0.369-0.113-1.735-0.021-2.313,0.081c0.4-0.047-0.037,0.39,0.166,0.51l0.474-0.191c-0.31,0.509,2.878,0.503,2.771,1.008          c-0.423-0.061-2.602-0.15-2.859,0.106c1.048,0.117,5.041,0.521,5.849,0.968l-0.599,0.086l0.683,0.343          c-1.577-0.214-4.896-0.813-6.188-1.14c-0.475,0.19-0.706,0.053-0.652,0.338c-0.562,0.101-0.852-0.155-0.885-0.239          l-0.363,0.664c1.225-0.029,1.228,0.508,2.247,0.482l-1.269-0.722c1.222-0.028,3.474,0.418,3.257,0.889          c-0.487,0.119-2.178-0.09-2.586-0.08c0.421,0.061,0.804,0.446,0.506,0.49l-0.655-0.2c-0.46,0.262,1.622,0.428,0.454,0.742          c-0.078,0.109-1.576,0.325-0.851,0.344c1.396-0.178,5.714-0.212,6.764-0.094c-0.094,0.038-1.335,0.57-2.024,0.694          c-1.095,0.179-2.609-0.269-3.549-0.116c0.334,0.007,0.746,0.105,0.879,0.146c-0.286,0.114-1.036-0.047-0.884,0.201          c1.241,0.041-0.105,0.504,1.048,0.117c0.353,0.235-0.253,0.263-0.183,0.615c0.796-0.115,2.742,0.192,3.104,0.359          c-0.315,0.012-0.722,0.099-0.907,0.143c-0.059,0.502-0.567,0.871-0.487,1.372c-0.283,0.104-0.573,0.437-1.12,0.452          c0.234,0.028,0.66-0.003,0.729,0.146c-0.955,0.592-0.256-0.324-1.442,0.236c0.706-0.149,1.076,0.191,1.567,0.277          c1.042-0.398,0.076-0.548-0.425-0.686c1.503-0.345,3.132-0.39,3.921-0.28c0.464,0.149-0.89,0.454-0.666,0.43          c-0.031,0.712,2.646-0.589,1.812,0.24c-0.796,0.604-1.729,0.895-2.342,1.249c-0.466-0.113,0.361-0.681,0.246-0.827          l-0.318,0.404c-0.335,0.053-0.66-0.04-0.429-0.256c-0.739,0.537,0.334,1.163-0.03,2.063          c0.334-0.083,0.706-0.126,0.991-0.412l-0.204-0.072c0.592-0.546,1.072-0.335,1.278-0.706          c0.563-0.119,1.401-0.501,1.182-0.035l-0.85,0.728c0.25-0.209,0.421-0.548,0.103-0.404c0.452-0.23-0.93,1.295,0.293,0.461          c0,0,0.117-0.158,0.233-0.317c0.124-0.158,0.247-0.316,0.247-0.316c0.55-0.197,1.57-0.868,1.419-0.498          c0.752-0.812-0.126,0.047,0.751-0.904c-1.131,1.144-0.222-0.344-1.407,0.859c1.089-1.046,0.357-0.591,1.299-1.457          c-0.297,0.217-0.54,0.45-0.472,0.244c-0.088,0.051-0.21,0.12-0.285,0.162c0.007-0.01,0.01-0.014,0.017-0.022l-0.031,0.03          c-0.049,0.026-0.059,0.032-0.011,0.011c-0.112,0.116-0.254,0.249-0.414,0.377c-0.747,0.436-0.86,0.178-1.284,0.326          c0.095-0.181,0.383-0.184,0.689-0.437l-0.633,0.22c0.693-0.436,1.054-0.869,1.574-0.945c0,0-0.061-0.155-0.054-0.158          c0.365-0.307,0.485-0.481,0.138-0.405c0.132-0.131-0.917,0.193-0.298-0.001c-0.009,0.011-0.561-0.06-0.561-0.06l0.19-0.074          c0.012-0.142-0.384-0.151-0.568-0.259c-0.194-0.099-0.237-0.279,0.442-0.573c-0.211-0.043-0.473-0.102-0.267-0.287          l0.695-0.126c-0.275-0.081,0.668-0.359-0.063-0.346c0.948-0.118,1.047-0.206,0.941-0.314          c-0.092-0.262-0.379-0.558-0.211-0.738l-0.923-0.015c0.052-0.253-0.209-0.495-0.58-0.809l-0.816,0.02          c-0.67-0.271,0.58-0.695,0.497-1.124c0.312,0.029,0.23,0.138,0.042,0.215c1.843-0.512-1.341-1.078,0.002-1.542          c-0.297-0.116-0.196-0.199,0.009-0.28c0.002,0.011,0.017,0.021,0.042,0.028c0.011-0.012,0.012-0.029,0.011-0.047          c0.14-0.052,0.303-0.104,0.434-0.161c-0.198,0.049-0.362,0.095-0.438,0.136c-0.017-0.09-0.118-0.225-0.322-0.357          l0.876-0.056c-0.011-0.011-0.01-0.02-0.025-0.031c0.324-0.13-0.415-0.104-1.074-0.035c-0.144-0.066-0.317-0.128-0.528-0.175          c1.414-0.105-0.477-0.348,1.032-0.492c-0.736-0.089-0.554-0.666-2.102-0.736c0.201-0.004,0.297-0.043,0.311,0.028          c0.176-0.147,0.352-0.296-0.083-0.428l1.113-0.063l-1.498-0.323c0.68-0.195,1.074-0.276,1.932-0.082          c-1.319-0.47-0.497-0.381-1.804-0.78l0.72,0.02c-0.028-0.144-0.993-0.371-0.397-0.457c0.685-0.16,0.732-0.555,0.767-1.013          c0.025-0.517,0.085-0.855,0.725-1.064c-1.059-0.036-0.819-0.084-0.521-0.138c0.308-0.052,0.678-0.091-0.135-0.208          c0.503,0.029,0.794,0.005,1.214,0.14c-0.436-0.329,0.811-0.193-0.486-0.647c0.499,0.086,0.704,0.213,1.001,0.254          c-0.102-0.039-0.406-0.169-0.108-0.122c0.296,0.049,0.4,0.131,0.605,0.209c-0.03-0.203-1.516-0.649-2.906-1.068          c0.7,0.022,0.62-0.056-0.233-0.478c0.473,0.09,0.973,0.177,1.067,0.406c0.117-0.091,0.853-0.331-0.196-0.803          c0.286,0.087,0.147-0.104,0.04-0.188c0.177-0.2,0.27-0.172,0.289-0.444l-0.202-0.031c-1.18-0.766-0.155-0.346-0.192-0.609          l0.119,0.081c1.099,0.144-0.296-0.476,0.93-0.184l-0.719-0.496c-0.745-0.571-0.443-0.512-0.024-0.367          c0.417,0.136,0.949,0.384,0.774,0.052l-0.447-0.25c-0.353-0.564,2.188,1.393,2.396,1.505          c0.131,0.098,0.163,0.212,0.23,0.318c0.964,0.584-0.799-0.827-0.809-1.182c0.455,0.42,1.05,1.164,1.224,1.163          c0.192,0.163-0.083-0.263-0.263-0.665c-0.186-0.397-0.246-0.744,0.187-0.335c-0.317-0.355-0.652-0.697-0.768-1.058          c0.028-0.124,0.388,0.156,0.639,0.331c0.258,0.177,0.398,0.229,0.08-0.454c0.087,0.1,0.157,0.202,0.219,0.303          c-0.094-0.41,0.061-0.779-0.206-1.543c0.74,1.323,0.734,0.899,0.782,0.456c0.043-0.434,0.111-0.914,0.558,0.402          c-0.006-0.012,0.343-0.274,0.349-0.264l0.066,0.276c0.289,0.117,0.216-0.557,0.188-1.239          c0.106,0.176,0.107,0.438,0.132,0.581c0.515,0.501,0.449,0.366,0.695-1.047l0.115,0.897c0.025-0.264,0.209,0.083,0.392,0.36          c0.134,0.27,0.497,0.496,0.776-0.03c-0.005,0.103-0.017,0.277-0.063,0.404c0.643-1.059,1.54,2.503,1.775-0.782l0.424-0.81          c-0.549-0.256,0.082-1.426-0.144-1.972c0.216-0.193,0.559,0.99,0.293,1.159l-0.042-0.164          c-0.098,1.713,0.683,0.607,0.667,1.773c1.081-0.084,2.134,0.863,3.146,0.937l-0.117-1.331l0.353,0.076          c0.093,0.31,0.125,1.041-0.127,0.986c0.133,0.755,0.422-0.632,0.43-0.921c0.493,0.539-0.192,1.552-0.042,1.583l0.206-0.099          l-0.046-0.155c0.167-0.544,0.182-1.121,0.484-1.055c0.192,0.266,0.099,0.82,0.174,0.872          c-0.001,0.094,0.024,0.139,0.115,0.038l0.445,0.114l-0.179-1.052c0.197-0.518,0.419,0.056,0.213-1.136          c0.038,0.229,0.093,0.412,0.158,0.557c0.033,0.072,0.069,0.136,0.108,0.19c0.06,0.054,0.028,0.101,0.188,0.14          c0.246,0.078,0.516,0.128,0.794,0.159c0.199,0.045,0.402,0.067,0.605,0.077c0.796,0.087,1.612,0.15,1.684,0.508          c0.79-0.558,1.38-0.225,1.943,0.234c-0.039-0.258,0.501-1.377,1.021-0.804c-0.825,0.914-0.725,1.292-0.572,1.664          c0.074,0.192,0.181,0.376,0.204,0.609c0.009,0.246-0.06,0.532-0.32,0.896c0.304-0.525,0.631-0.303,0.953-0.064          c0.347,0.201,0.675,0.462,1.197-0.301c0.114,0.568-0.751,0.525-1.054,1.127c0.674,0.244,0.828,0.934,0.734,1.6          c-0.012,0.329-0.134,0.669-0.159,0.982c-0.083,0.338-0.082,0.551-0.013,1.148c0.32,0.031,0.81-0.311,1.286,0.128l-1.6,1.078          c0.156,0.403,1.847,0.372,0.735,1.109c0.27-0.104,0.676-0.26,0.778,0.011c-0.78,2.001-0.461,4.046-0.313,6.099l0.045,0.77          l0.021,0.564c0.008,0.348,0,0.668-0.019,0.936c-0.033,0.54-0.128,0.829,0.023,0.721c0.104,0.21,0.367,0.394,0.596,0.655          c-0.046-0.042,0.51,0.61,0.755,0.917c0,0-0.047,0.068,0.007,0.114c0.045,0.048,0.174,0.1,0.174,0.1          c0.304,0.674,0.454,1.009,0.679,1.508c0.177,0.415,0.33,0.833,0.401,1.493c0,0-0.043-0.183-0.086-0.365          c-0.049-0.18-0.097-0.36-0.097-0.36c0.209,1.015,0.194,1.528,0.341,1.992c0.121,0.469,0.441,0.863,0.685,1.752          c-0.097-1.183,0.175-1.189,0.697-1.52c0.248-0.16,0.538-0.404,0.702-0.84c0.162-0.431,0.192-1.055-0.156-1.842          c0.377-0.199,0.367,0.693,0.733,0.724c-0.455-0.974-0.512-1.553-0.063-2.489l0.154,0.194          c0.113-1.567,0.263-2.548,0.506-3.601c0.117-0.58,0.246-0.925,0.383-1.38c0.135-0.448,0.273-0.947,0.396-1.536l-0.862,0.175          c0.115-0.507,0.386-0.613,0.602-0.851c-1.307-0.581-0.073,1.423-1.515,0.893c1.754-0.671,0.026-3.571,2.02-4.025          c0.011-0.779-0.998,0.229-0.986-0.551l0.539-0.207l-0.695-0.196c0.115-0.511,0.79-0.769,1.247-0.788          c-0.055,0.124,0.128,0.353,0.167,0.485c0.635-0.662-0.217-1.868-0.01-2.096l-0.333,0.749          c-0.233-0.854-0.196-2.793-0.626-4.321c-0.401-1.581-1.184-3.088-2.407-3.924l-0.237,0.393          c-0.853-0.641-1.015-0.978-1.157-1.419c-0.164-0.408-0.291-0.943-1.252-1.55l0.124-0.019          c-0.59-0.013-1.183-0.166-1.624-0.559c0.752-0.077-0.401-1.347,0.522-1.386c-1.214-0.288-1.539-0.218-1.812-0.086          c-0.269,0.158-0.5,0.374-1.41,0.84l-0.058-0.74c-0.646,0.408-0.773,0.697-1.768,0.629c0.455-0.183,0.374-0.469,0.285-0.78          c-0.083-0.31-0.18-0.648,0.413-0.893c-1.005-1.015-2.052-0.725-2.761-0.459c-0.398,0.122-0.613,0.25-0.841,0.201          c-0.205-0.049-0.508-0.268-0.518-0.808c-0.072,0.467-0.074,0.766-0.039,0.956c0.048,0.191,0.049,0.275,0.324,0.313          c0.417,0.071,0.95-0.025,0.688,0.169c0.24,0.316,0.003,0.649-0.27,0.902c-0.146,0.125-0.32,0.225-0.494,0.281          c-0.044,0.014-0.088,0.025-0.131,0.034c-0.029,0.009-0.033,0.014-0.051,0.017c-0.029,0.005-0.057-0.004-0.082-0.027          c-0.201-0.042-0.343-2.389-0.851-2.354c0.051,0.008,0.054-0.133,0.104-0.125c-0.19-0.477-0.372,0.646-0.605-0.129          c-0.13,1.13-0.302-0.064-0.34,1.376l0.465-0.333c-0.264,0.376-0.511,2.063-0.946,1.245c0.034-0.291,0.163-0.673,0.252-0.887          c-0.127-0.425-0.245,0.282-0.377-0.155c0.038-1.441,0.566-0.313,0.849-1.412c-0.136-0.608-0.535,1.044-0.393-0.518          c-0.205,1.986-0.5-0.25-0.844,1.266l0.023-0.863c-0.055,0.136-0.167,0.543-0.268,0.521l0.182-1.12          c-0.278,0.956-0.537-0.835-0.804-0.315c0.559-0.026,0.125,1.04,0.362,1.672c-0.689,1.155-0.396-2.26-1.168-1.846          c0.104-0.122,0.392,0.519,0.229,0.919c-0.147-0.178-0.341-0.51-0.431-0.962c-0.511,0.179,0.079,0.888-0.139,1.419          c-0.174-1.053-0.251,0.428-0.475,0.766l-0.001-0.879c-0.583-0.563-0.155,1.83-0.679,1.149l0.222-1.218l-0.273,0.314          l0.056-0.998c-0.297,0.74-0.39,0.549-0.682,0.269c0.068,0.619-0.038,1.594-0.296,1.621          c-0.176-0.521,0.098-0.835-0.268-0.709c0.083-0.55,0.173-1.239,0.333-0.43c0.016-0.287,0.082-0.552,0.098-0.834          c-0.189-0.6-0.477-0.137-0.609-0.129c0.051,0.032,0.112,0.08,0.143,0.205l-0.53,1.217c-0.083-0.33-0.017-0.595,0.048-0.854          c-0.107,0.095-0.182,0.498-0.34,0.573c0.041-0.714,0.031-1.45,0.255-1.786l-0.505,0.792          c-0.034-0.311-0.259-0.853-0.194-1.115c-0.165-0.208-0.255,0.131-0.551,0.472c-0.28,0.34-0.546,0.665-0.841,0.404          c-0.02,0.14-0.068,0.275-0.175,0.384c-0.503-0.141-1.127-0.904-1.568,0.15c0,0-0.149-0.299-0.298-0.598          c-0.155-0.293-0.311-0.586-0.311-0.586c-0.414,0.401,0.788,1.465,0.142,2.122c-0.414,0.527-0.464-1.008-0.749-1.302          c-0.14,0.696-0.155,2.065-0.961,1.264C244.269,338.707,244.458,338.841,244.576,338.697z M239.938,341.989          c-0.043-0.208-0.242-0.795,0.151-0.448C240.637,342.397,240.268,342.083,239.938,341.989z M237.615,349.626          c-0.264-0.138-0.098-0.211,0.253-0.235C237.916,349.493,237.861,349.575,237.615,349.626z M243.98,364.891          c-0.014,0.006-0.024,0.01-0.04,0.016C244.204,364.665,244.099,364.756,243.98,364.891z M243.735,365.261          c0.12-0.04,0.225-0.102,0.328-0.168c-0.204,0.097-0.242,0.061-0.207-0.02C243.661,365.193,243.527,365.3,243.735,365.261z           M257.113,346.029l-0.069-0.229C257.201,345.548,257.157,345.776,257.113,346.029z" style="fill:#202020;"/><path d="M236.695,348.464c0.15,0.019,0.309,0.063,0.467,0.109          C237.036,348.49,236.875,348.434,236.695,348.464z" style="fill:#202020;"/><path d="M248.093,337.547c0.006,0.008,0.012,0.005,0.019,0.01c0.007-0.053,0.009-0.106,0.008-0.159          L248.093,337.547z" style="fill:#202020;"/><path d="M235.533,361.781c0.127-0.074,0.287-0.115,0.454-0.143          C235.771,361.635,235.59,361.668,235.533,361.781z" style="fill:#202020;"/><path d="M245.542,365.274l-0.242,0.055c0.065,0.017-0.074,0.154-0.164,0.267          C245.293,365.463,245.509,365.259,245.542,365.274z" style="fill:#202020;"/><path d="M244.838,371.433c0.132-0.056,0.189,0.078,0.319,0.021l0.141-0.385          C244.941,370.925,244.532,371.093,244.838,371.433z" style="fill:#202020;"/><path d="M243.409,367.257c-0.55,0.494-0.278,0.419-0.093,0.42c-0.007-0.004-0.017-0.005-0.015-0.017          C244.084,366.984,243.754,367.129,243.409,367.257z" style="fill:#202020;"/><path d="M243.354,367.682c0.06,0.015,0.073,0,0.111,0.096c0.169-0.121,0.143-0.184,0.097-0.169          C243.517,367.622,243.417,367.672,243.354,367.682z" style="fill:#202020;"/><path d="M244.302,365.242c-0.139,0.138,0.816-0.475,0.572-0.297          C245.704,364.498,243.761,365.305,244.302,365.242z" style="fill:#202020;"/><polygon points="241.657,368.947 242.303,368.303 241.691,368.723         " style="fill:#202020;"/><path d="M241.42,367.574l-0.06,0.34c0.122-0.092,0.213-0.12,0.291-0.131          C241.586,367.646,241.64,367.418,241.42,367.574z" style="fill:#202020;"/><path d="M241.651,367.783c0.031,0.072,0.091,0.119,0.235,0.062          C241.854,367.817,241.777,367.766,241.651,367.783z" style="fill:#202020;"/><polygon points="241.21,368.862 241.309,368.681 241.252,368.492         " style="fill:#202020;"/><path d="M240.444,365.218c0,0-0.34-0.162-0.333-0.167c-0.304,0.063-0.476,0.195-0.318,0.253          C240.024,365.299,240.172,365.352,240.444,365.218z" style="fill:#202020;"/><path d="M238.428,366.938c0.136-0.154,0.32-0.239,0.581-0.4l-1.045,0.428L238.428,366.938z" style="fill:#202020;"/><path d="M237.839,366.132c-0.306,0.077-1.027-0.2-0.807,0.204          C237.34,366.276,237.702,366.508,237.839,366.132z" style="fill:#202020;"/><polygon points="238.633,361.348 238.647,361.419 240.5,361.408         " style="fill:#202020;"/><path d="M234.198,357.62c-0.444,0.332,1.144,0.079,0.589,0.38c0.439,0.077,0.453-0.246,0.831-0.166          C235.156,357.633,235.417,357.527,234.198,357.62z" style="fill:#202020;"/><path d="M235.618,357.834c0.073,0.032,0.162,0.066,0.282,0.103          C235.784,357.878,235.695,357.851,235.618,357.834z" style="fill:#202020;"/><path d="M268.03,366.271l0.307,0.171c-0.006-0.001-0.144,0.255-0.137,0.255L268.03,366.271z" style="fill:#202020;"/><path d="M268.749,368.736l0.004-1.039c0,0,0.046,0.357,0.093,0.715          c0.018,0.18,0.036,0.359,0.05,0.493c0.006,0.067,0.011,0.124,0.015,0.163c0.001,0.02,0.003,0.035,0.004,0.046          c0.001,2.094,0.001,3.211,0.001,3.211c0-1.062,0-2.128-0.001-3.197v-0.003l-0.001-0.004l-0.002-0.01l-0.005-0.019          l-0.01-0.041l-0.021-0.087l-0.05-0.165C268.792,368.705,268.76,368.654,268.749,368.736z" style="fill:#202020;"/><path d="M237.66,340.851l0.181,0.221c0.254,0.183,0.327,0.146,0.476,0.074L237.66,340.851z" style="fill:#202020;"/><polygon points="241.876,338.843 241.796,338.856 242.423,339.737         " style="fill:#202020;"/><path d="M245.068,336.178c-0.175-0.001-0.304,0.279-0.477,0.279          C244.899,336.174,245.434,337.46,245.068,336.178z" style="fill:#202020;"/></g></g></g><g><g><g><path d="M79.199,416.28c0.05-0.392-0.706-0.25-0.845-0.311          C78.548,416.66,79.396,416.252,79.199,416.28z" style="fill:#202020;"/><path d="M82.319,421.735l-0.322,0.049c0,0,0.263,0.103,0.525,0.204          c0.272,0.082,0.543,0.165,0.543,0.165s-0.19-0.099-0.381-0.197C82.497,421.853,82.319,421.735,82.319,421.735z" style="fill:#202020;"/><path d="M85.642,425.852c0.208-0.657-0.144-0.922-0.64-1.16c-0.461-0.264-1.081-0.521-1.176-1.045          l0.143-0.303c0,0-0.271,0.073-0.543,0.146c-0.276,0.066-0.553,0.133-0.553,0.133          C83.696,424.56,85.266,425.072,85.642,425.852z" style="fill:#202020;"/><path d="M86.797,429.896c0.035-0.555,0.854-0.05-0.644-0.509c0.04,0.087,0.044,0.127,0.064,0.186          C86.345,429.632,86.517,429.719,86.797,429.896z" style="fill:#202020;"/><path d="M86.217,429.573C85.603,429.261,86.407,430.166,86.217,429.573L86.217,429.573z" style="fill:#202020;"/><path d="M89.223,430.52c0.001,0.021-0.996,0.133-0.996,0.133c0.072,0.348,0.844,0.688,0.485,0.793          C89.724,431.478,89.583,431.121,89.223,430.52z" style="fill:#202020;"/><path d="M90.263,429.813l-0.469,0.076C89.833,430.028,89.941,430.103,90.263,429.813z" style="fill:#202020;"/><path d="M88.775,429.995c0,0,0.255-0.017,0.51-0.034c0.254-0.036,0.508-0.071,0.508-0.071          c-0.065-0.235,0.051-0.639-0.455,0.027C89.523,429.571,89.245,429.879,88.775,429.995z" style="fill:#202020;"/><path d="M88.34,429.624c-0.357-0.427-0.801-0.836,0.118-0.928c-0.738-0.213-1.153-0.14-1.206,0.096          C87.206,429.008,87.534,429.425,88.34,429.624z" style="fill:#202020;"/><path d="M86.682,424.953c0,0-0.154-0.592-0.143-0.599l-0.601,0.043          C86.223,424.389,86.443,425.302,86.682,424.953z" style="fill:#202020;"/><path d="M94.324,431.847c0.037-0.276-0.196-0.737-0.24-1.091l-0.43,0.317          C93.875,431.263,94.294,431.437,94.324,431.847z" style="fill:#202020;"/><path d="M94.084,430.756l0.645-0.475C94.153,430.226,94.048,430.451,94.084,430.756z" style="fill:#202020;"/><path d="M90.733,428.444c0,0-0.398,0.154-0.797,0.309c-0.413,0.16-0.835,0.255-0.835,0.255          s0.492-0.077,0.969-0.227c0.477-0.136,0.92-0.286,0.92-0.286L90.733,428.444z" style="fill:#202020;"/><polygon points="96.784,431.881 96.419,432.521 97.07,431.555         " style="fill:#202020;"/><path d="M98.417,431.77c-0.27,0.529,0.371,0.896,0.085,1.223c0.443-0.095,0.822-0.55,1.163-0.959          C99.302,432.262,98.916,432.203,98.417,431.77z" style="fill:#202020;"/><path d="M100.236,431.437c-0.181,0.127-0.368,0.354-0.572,0.597          C99.856,431.911,100.046,431.735,100.236,431.437z" style="fill:#202020;"/><path d="M95.826,430.418c0.05,0.168,0.146,0.605,0.507,0.79l-0.253-0.778          C96.002,430.427,95.915,430.423,95.826,430.418z" style="fill:#202020;"/><path d="M96.071,430.405l0.009,0.024c0.275,0.021,0.466,0.037,0.547,0.043          C96.557,430.465,96.39,430.444,96.071,430.405z" style="fill:#202020;"/><path d="M95.762,430.415c0.023,0.001,0.041,0.002,0.064,0.003          C95.802,430.342,95.787,430.316,95.762,430.415z" style="fill:#202020;"/><path d="M92.835,429.451c0.263-0.204,0.673-0.408,0.833-0.66c0.134-0.258,0.189-0.527-0.26-0.877          C93.054,428.43,93.619,428.836,92.835,429.451z" style="fill:#202020;"/><path d="M95.447,429.442l-0.684-0.178c0.013,0.206,0.137,0.505-0.051,0.721L95.447,429.442z" style="fill:#202020;"/><polygon points="95.782,429.196 95.447,429.442 95.701,429.509         " style="fill:#202020;"/><path d="M99.064,430.709c0.295-0.338,0.619-0.367,0.984-0.422c-0.391-0.152-0.796-0.234-1.181-0.233          C98.813,430.299,98.645,430.736,99.064,430.709z" style="fill:#202020;"/><path d="M97.609,430.493c0.021-0.014,0.047-0.031,0.066-0.045          C97.635,430.383,97.603,430.361,97.609,430.493z" style="fill:#202020;"/><path d="M103.645,430.293c-0.02-0.049-0.038-0.091-0.058-0.142c-0.005,0.046-0.008,0.081-0.014,0.135          L103.645,430.293z" style="fill:#202020;"/><path d="M98.802,429.909c-0.294-0.15-0.47,0.04-0.638,0.28c0.22-0.078,0.453-0.13,0.703-0.136          C98.893,429.943,98.897,429.87,98.802,429.909z" style="fill:#202020;"/><path d="M101.24,431.073c-0.153-0.162-0.327-0.3-0.51-0.428          C100.88,430.892,101.186,431.276,101.24,431.073z" style="fill:#202020;"/><path d="M97.774,430.664c-0.015,0.012-0.028,0.026-0.044,0.034          C97.827,430.865,97.815,430.783,97.774,430.664z" style="fill:#202020;"/><path d="M97.774,430.664c0.151-0.113,0.271-0.305,0.39-0.475c-0.179,0.061-0.345,0.145-0.489,0.259          C97.712,430.504,97.748,430.587,97.774,430.664z" style="fill:#202020;"/><path d="M104.734,425.301c-0.052,0.721-0.825,1.387-1.493,0.614          c-0.657,0.539-0.228,2.911,0.346,4.236c0.021-0.314,0.021-0.604,0.697-1.03c-0.237-0.394-1.501-0.921-0.93-1.573          c0.896-0.371,0.734,0.255,1.169,0.637c-0.37-0.898,1.14-1.308,0.945-2.628l-0.786,0.465          C104.667,425.816,104.952,425.488,104.734,425.301z" style="fill:#202020;"/><path d="M102.298,430.078l-0.278,0.089c0.317,0.126,0.544,0.414,0.962,0.979          c0.463-0.353,0.559-0.619,0.591-0.859l-1.37-0.101L102.298,430.078z" style="fill:#202020;"/><path d="M100.771,430.171c0.217-0.784,0.886-1.118,0.477-1.967c-0.817,0.054-0.572,0.654-1.061,0.995          c1.318-0.194-0.378,0.437,0.574,0.882c-0.259,0.133-0.492,0.174-0.712,0.206c0.237,0.096,0.466,0.214,0.682,0.358          c-0.012-0.019-0.021-0.032-0.03-0.048l-0.006,0.002l0.001-0.013c-0.057-0.098-0.075-0.157-0.011-0.1          c0.004-0.011,0.021-0.015,0.027-0.017c0.009-0.109,0.033-0.204,0.06-0.296c0.382,0.162,0.06,0.204-0.06,0.296          c-0.004,0.038-0.015,0.075-0.016,0.116l0.005,0.011l1.32-0.431C101.741,430.058,101.391,430.081,100.771,430.171z" style="fill:#202020;"/><path d="M94.146,426.236c0.041,0.069,0.039,0.125,0.042,0.182          C94.273,426.322,94.306,426.257,94.146,426.236z" style="fill:#202020;"/><path d="M94.689,426.71c-0.096,0.109-0.176,0.424-0.488,0.342c-0.271-0.235,0.001-0.376-0.013-0.634          c-0.188,0.209-0.658,0.563-0.068,0.944l0.093-0.106c0.532,0.27,1.214,1.247,1.122,1.355          C95.18,427.905,95.042,427.402,94.689,426.71z" style="fill:#202020;"/><path d="M97.768,428.24l1.1-0.385l-0.56-0.679l0.028,0.407          C97.71,427.425,97.846,427.927,97.768,428.24z" style="fill:#202020;"/><polygon points="103.771,430.684 103.625,431.512 104.259,430.342         " style="fill:#202020;"/><polygon points="105.199,430.584 105.146,431.305 105.523,430.87         " style="fill:#202020;"/><path d="M222.319,87.063l-3.473,0.205C220.489,87.204,221.545,87.136,222.319,87.063z" style="fill:#202020;"/><path d="M247.461,87.112l0.616-0.355C246.912,86.953,246.434,87.097,247.461,87.112z" style="fill:#202020;"/><path d="M431.385,372.005c0.673-5.059,1.716-10.71,0.906-10.099l-0.79,1.553          C431.643,366.994,431.555,369.702,431.385,372.005z" style="fill:#202020;"/><path d="M426.67,113.673c-0.078,0.482-0.159,0.984-0.24,1.481c0.271,1.228,0.527,2.383,0.756,3.416          C427.03,117.098,426.854,115.426,426.67,113.673z" style="fill:#202020;"/><path d="M423.403,110.105l0.509-6.669C423.734,104.936,423.564,107.081,423.403,110.105z" style="fill:#202020;"/><path d="M89.954,89.606c0,0-0.051,0.123-0.091,0.319c-0.063,0.182-0.091,0.445-0.125,0.684          c-0.038,0.5,0.027,0.938,0.027,0.938c0.199-0.599,0.414-0.959,0.537-1.196c0.114-0.245,0.149-0.365,0.118-0.439          C90.358,89.758,90.022,89.819,89.954,89.606z" style="fill:#202020;"/><path d="M256.61,430.293c4.366,0.309,7.839,0.438,10.892,0.477          C262.242,430.316,258.001,429.636,256.61,430.293z" style="fill:#202020;"/><path d="M232.212,78.684c-2.126,0.143-3.034,0.304-2.972,0.48          C231.429,79.029,232.666,78.878,232.212,78.684z" style="fill:#202020;"/><path d="M280.109,430.767c-0.77-0.079-1.524-0.119-2.308-0.186c-3.191,0.133-6.401,0.239-10.3,0.188          C271.386,431.107,275.834,431.315,280.109,430.767z" style="fill:#202020;"/><path d="M88.123,398.552c-0.035,0.034-0.052,0.074-0.094,0.104          C88.136,398.667,88.141,398.62,88.123,398.552z" style="fill:#202020;"/><path d="M80.155,412.046c-0.049-0.133-0.05-0.35-0.06-0.554          C80.04,411.592,80.045,411.759,80.155,412.046z" style="fill:#202020;"/><path d="M161.106,430.928C157.849,430.98,160.591,431.016,161.106,430.928L161.106,430.928z" style="fill:#202020;"/><path d="M145.266,427.806c0.693-0.089,1.218-0.202,1.299-0.384          C146.297,427.612,145.844,427.732,145.266,427.806z" style="fill:#202020;"/><path d="M312.555,425.853c0.096,0.001,0.173,0.002,0.282,0.003          C311.867,425.7,312.034,425.73,312.555,425.853z" style="fill:#202020;"/><path d="M156.205,430.569c1.223,0.097,2.632,0.178,4.166,0.234          C159.697,430.742,158.431,430.666,156.205,430.569z" style="fill:#202020;"/><path d="M156.864,430.942c-1.123-0.03-2.006-0.054-2.847-0.076          C153.606,430.998,153.97,431.08,156.864,430.942z" style="fill:#202020;"/><path d="M165.645,430.887c-1.863,0.012-3.602-0.025-5.274-0.083c0.64,0.054,0.908,0.099,0.736,0.124          C162.062,430.919,163.409,430.907,165.645,430.887z" style="fill:#202020;"/><path d="M86.009,316.822c-0.022,0.215-0.049,0.463-0.074,0.697          C86.263,320.807,86.21,319.364,86.009,316.822z" style="fill:#202020;"/><path d="M423.185,287.226c0.016,0.152,0.024,0.234,0.038,0.373c0.009-0.153,0.021-0.344,0.028-0.482          L423.185,287.226z" style="fill:#202020;"/><path d="M422.597,275.526c0.982,4.982,0.862,7.815,0.654,11.59l2.277-3.87L422.597,275.526z" style="fill:#202020;"/><path d="M162.118,87.291L170.334,88c-9.917,1.167-17.093,0.765-9.377,1.763          c1.161-2.473,31.935-0.254,33.077-2.723l5.417,0.52c-1.552-0.024-1.801,0.121-3.334,0.097          c10.534,1.184,7.825-1.788,21.397-1.435c4.729,0.189,8.03,0.548,4.806,0.841l10.538-0.611          c3.067,0.049,2.317,0.478-0.735,0.431l16.075-0.198l-0.119,0.072c2.293-0.388,7.49-0.987,10.027-1.241          c4.084,0.354-2.05,0.262-1.004,0.57l8.9-0.599c3.626,0.64-3.75,1.262-9.898,1.17c8.313,2.468,7.386-0.622,25.323,0.819          l-8.402,0.314c5.417,1.401,11.976,0.893,21.478,1.768c-2.255-0.457-19.022-2.204-9.363-2.819          c2.723,0.187,6.311,0.275,11.522-0.222c0.048,0.879,5.136,0.663,11.503,0.613l-0.435,1.164          c6.884-0.336,6.34-0.929,10.391-1.453c7.672,0.115,9.263,1.016,11.068,1.776c12.287,0.185-8.484-1.446,6.058-1.665          c10.218,0.445,17.394-0.03,29.618-0.728c7.151,0.401-1.252,0.712,1.313,1.045l6.339-0.929          c1.553,0.022,1.051,0.308,0.798,0.452c5.341-0.36,0.439-1.163,8.838-1.479c2.265-1.283,17.24,1.874,27.636,0.417          c2.561,0.331-1.237,0.713-0.454,1.164c3.471-0.223,5.95-0.383,7.895-0.508c1.284-0.068,2.218,0.25,3.062,0.612          c0.837,0.391,1.604,0.889,2.44,1.765c0.386,0.458,0.819,0.999,1.178,1.732c0.164,0.371,0.346,0.777,0.469,1.244          c0.135,0.48,0.221,0.92,0.3,1.72l-0.764,9.975c0.874-7.328,1.908,2.035,2.758,10.237c0.423-2.599,0.792-4.82,0.968-6.311          l0.625,13.089c-0.191,1.581-0.591,0.263-1.077-1.882c0.104,0.893,0.202,1.738,0.279,2.398          c-0.431,4.682-1.102,2.255-1.753-1.099c0.243-1.594,0.483-3.176,0.718-4.715c-0.707-3.234-1.489-6.258-2.171-5.584          c0.134,0.851,0.249,2.489,0.314,4.29c-0.192-0.846-0.363-1.385-0.479-0.994c-0.123,0.444,0.134,1.811,0.432,3.951          l-1.298,2.976l0.516,0.721l-0.813,17.126c1.307,12.253,3.229,22.911,3.766,42.359c-0.952-4.825-1.555-1.037-2.683-1.3          c1.194-5.307-0.507-15.062-0.265-25.142c-0.126,5.259-0.662,4.104-0.851,2.766l1.086,17.977          c-0.922-0.406-0.691,3.817-1.072,8.513c1.822-3.549,1.214,13.4,1.772,20.713c-0.612,0.454-1.236-1.299-1.089-10.223          c-1.372,9.845,2.141,12.721,0.975,22.385c-0.015-2.178,0.079-3.354-0.231-4.213c0.544,5.088,0.113,17.532-0.421,14.604          l-0.013-2.173c-0.216,14.465-0.013,44.035,1.534,46.194c-0.199,0.144-1.865-1.896-2.178-2.771l5.209,25.811          c-1.33-2.273-4.497,6.454-5.248-5.541c-0.188,3.444-0.41,7.705,0.059,14.967c0.189-2.351,1.923-5.857,2.045-2.646          c-1.481,8.813-0.793,6.119-2.054,16.982c0.285-3.521,2.37,0.392,2.303,5.957c-0.312-0.87-2.058,0.463-2.274-1.572          l2.046,13.854c-0.368-3.459-1.734-0.612-2.313,2.488c0.4-1.438-0.038,11.977,0.165,15.669l0.475-5.871          c-0.31,15.641,2.878,15.449,2.771,30.965c-0.424-1.877-2.603-4.638-2.86,3.254c1.049,3.616,5.042,16.013,5.849,29.742          l-0.599,2.632c0,0,0.043,0.658,0.106,1.646c0.021,0.225,0.024,0.554,0.024,0.901c0.003,0.345,0.006,0.709-0.043,1.084          c-0.058,0.753-0.205,1.554-0.433,2.334c-0.442,1.57-1.257,3.023-2,4.015c-0.755,0.983-1.378,1.545-1.378,1.545          c1.307-1.62,2.782-4.372,2.771-7.613c0.008-0.784-0.097-1.646-0.24-2.382c-0.142-0.75-0.288-1.521-0.437-2.308          c-0.287-1.577-0.587-3.219-0.891-4.888c-1.188-6.678-2.341-13.792-2.986-18.817c-0.475,5.852-0.706,1.629-0.652,10.395          c-0.562,3.096-0.852-4.776-0.886-7.356l-0.362,20.408c0.307-0.228,0.536,0.635,0.725,2.043          c0.038,0.323,0.08,0.678,0.124,1.056c0.024,0.224,0.074,0.471,0.056,0.721c0.018,0.511-0.082,1.061-0.26,1.601          c-0.33,1.102-1.108,2.063-1.741,2.702c-0.646,0.628-1.147,0.985-0.927,1.184c-0.002-0.004,0.058-0.016,0.15-0.079          c0.095-0.056,0.234-0.139,0.412-0.244c0.345-0.224,0.826-0.565,1.296-1.083c0.979-0.988,1.814-2.718,1.75-4.444          c-0.304-5.396-0.606-10.793-0.606-10.793c0.61-0.449,1.479,2.755,2.167,7.879c0.08,0.642,0.163,1.312,0.249,2.009          c0.047,0.376,0.066,0.657,0.089,0.944c0.039,0.296,0.014,0.594,0.006,0.902c-0.055,1.229-0.464,2.55-1.247,3.738          c-0.761,1.205-1.934,2.228-3.322,2.9c-0.704,0.309-1.448,0.578-2.233,0.674c-0.387,0.083-0.786,0.071-1.182,0.1          l-1.342-0.009c-1.84-0.243-1.151-0.788-0.041-1.322c0.277-0.134,0.581-0.267,0.878-0.395          c0.147-0.063,0.293-0.127,0.433-0.188c0.095-0.067,0.186-0.132,0.271-0.192c0.331-0.229,0.517-0.438,0.458-0.54          c-0.136,0.088-0.38,0.12-0.701,0.203c-0.462,0.056-1.116,0.1-1.804,0.146c-1.396,0.091-3.094,0.168-4.775,0.224          c-3.362,0.111-6.656,0.133-7.32-0.017l6.134-0.654c-8.049-0.46-13.137,1.622-22.811,0.454          c-3.339-0.078-9.97-1.575-10.548-0.852c5.446,1.396,6.512,5.715,2.881,6.764c-1.171-0.094-17.532-1.335-21.344-2.024          c-5.499-1.095,8.254-2.608,3.573-3.549c-0.201,0.334-3.239,0.746-4.505,0.879c-3.507-0.285,1.452-1.035-6.168-0.885          c-1.271,1.241-15.496-0.104-3.602,1.049c-7.452,0.354-7.921-0.255-16.672-0.201c2.785,0.802-7.858,2.729-15.325,3.082          c0.439-0.314-1.237-0.727-2.05-0.913c-15.276-0.112-23.479-0.675-37.725-0.687c-1.313-0.301-8.188-0.663-5.26-1.197          c-2.049,0.219-3.932,0.64-8.326,0.669c-8.503-1.072,9.798-0.166,3.315-1.455c-0.554,0.721-11.365,0.995-17.623,1.445          c1.925,1.113,14.46,0.213,20.728-0.236c0.028,1.535-10.883,3.144-25.773,3.854c-11.833,0.381-5.13-0.992-7.185-0.774          c-22.228-0.269-18.937,2.682-37.396,1.573c-7.323-0.978-0.33-1.946-1.954-2.652c9.64-0.37,14.799,0.621,21.334,0.582          l-8.044-0.463c3.067-0.325,9.501-0.572,13.008-0.288c-6.139-0.88-37.553-0.17-54.703-0.981          c-3.048,0.329-8.307,0.668-5.818,1.062l5.427-0.137c4.987,0.789-10.213,1.091-3.344,1.46          c-7.28,0.555-15.439,1.427-25.687,0.98l-1.925-1.116c0.22,0.326,6.697,0.665,9.578,0.325          c-4.271,0.494-15.712-1.511-20.394-0.05l7.185,0.773c-7.309,0.561-16.342,1.745-25.424,1.394          c4.132,1.102,2.093-0.127,8.546,1.163c-5.594-1.604,23.231,0.067,14.246-1.618c6.621,1.496,11.46,0.635,20.116,1.91          c-0.268-0.368-3.067-0.704,4.557-0.522c0.344-0.107,1.156-0.244,1.672-0.324c0.234,0.013,0.315,0.017,0.516,0.027          c-0.153-0.016-0.268-0.027-0.42-0.043c0.33-0.056,0.358-0.067-0.158-0.016c-1.815-0.161-3.287-0.354-3.884-0.56          c3.784-0.846,15.908-0.818,20.007-1.256c4.524,0.175-1.892,0.422,0.578,0.814l6.124-0.653          c0.607,0.817,12.019,1.357,1.361,1.837l9.593,0.036c5.646,0.459,13.414,0.641,18.206,0.297          c4.524,0.177,11.427-0.904,7.485-0.265l15.043-0.507l0.138,0.204c14.843,0.104,30.554-1.354,47.523,0.122          c4.997-0.206,10.161-0.459,18.521-0.227l1.629,0.707c6.416-0.247,19.267,0.708,22.022-0.029          c6.923,1.903,31.138,0.416,42.421,0.753l0.426-0.923c7.768,0.052,15.215-0.21,24.854-0.581l-0.592-0.815          c4.156-0.335,9.498-0.19,15.444,0.028c2.973,0.106,6.098,0.218,9.3,0.332c1.602,0.037,3.223,0.074,4.854,0.111          c0.165,0.009,0.522-0.009,0.787-0.018c0.285-0.013,0.571-0.021,0.856-0.046c0.565-0.087,1.142-0.136,1.698-0.285          c1.123-0.253,2.211-0.661,3.23-1.192c-0.479,0.419-1.83,1.139-3.572,1.488c-0.436,0.072-0.89,0.138-1.351,0.193          c-0.462,0.027-0.932,0.036-1.397,0.04c-0.706-0.023-1.322-0.068-1.923-0.114l1.478,0.159l0.373,0.034l0.529,0.012          c0.354,0.001,0.711,0.016,1.066-0.011c1.429-0.082,2.856-0.416,4.215-0.949c2.704-1.1,5.076-3.079,6.615-5.62          c0.785-1.258,1.365-2.656,1.695-4.11c0.193-0.721,0.268-1.468,0.345-2.204l0.034-1.111c0.006-0.207,0.001-0.334-0.004-0.454          l-0.014-0.383c-0.09-2.038-0.179-4.075-0.268-6.101c-0.398-8.103-0.858-16.021-0.187-23.145          c-0.298-3.549-0.196-6.119,0.009-8.608c0.002,0.33,0.018,0.626,0.042,0.879c0.003-0.362,0.007-0.902,0.011-1.457          c0.141-1.566,0.304-3.181,0.435-4.93c-0.198,1.485-0.361,2.909-0.438,4.146c-0.017-2.737-0.118-6.889-0.322-10.958          l0.876-1.734c-0.009-0.33-0.016-0.598-0.024-0.941c0.323-3.993-0.415-3.21-1.075-1.079c-0.144-2.05-0.316-3.927-0.528-5.384          c1.415-3.244-0.477-10.677,1.032-15.105c-0.735-2.742-0.554-20.461-2.101-22.629c0.2-0.139,0.297-1.338,0.31,0.859          c0.177-4.538,0.353-9.071-0.083-13.142l1.113-1.925l-1.498-9.908c0.68-6.02,1.074-8.513,1.932-2.537          c-1.318-14.432-0.497-11.708-1.804-23.98l0.72,0.597c-0.027-4.385-0.992-11.398-0.396-14.044          c1.369-9.812,0.188-48.554,1.462-73.744c-2.122,4.887,0.95-11.708-0.693-12.707c0.501-1.467,0.784-4.978,1.221-0.898          c-0.493-12.855,0.796-19.314-0.591-28.19c0.504-1.471,0.735,2.751,1.033,1.443c-0.108-1.032-0.437-4.084-0.137-5.422          c0.299-1.309,0.421,1.882,0.641,3.917c-0.085-13.132-1.632-14.46-3.083-15.416c0.688-6.655,0.591-9.975-0.361-14.781          c0.475-2.317,0.972-6.182,1.142,1.978c0.035-2.295,0.209-9.306,0.229-15.801c0-0.406,0.001-0.81,0.001-1.21v-0.598          l-0.032-0.754c-0.039-1.029-0.245-2.026-0.514-2.956c-0.554-1.863-1.503-3.418-2.504-4.549          c-2.042-2.278-4.032-2.941-4.254-2.769c-0.702-0.559-2.604-1.396-4.596-1.53c-0.472-0.018-1.034-0.043-1.406-0.028          c-0.376,0.016-0.735,0.032-1.065,0.046c-0.659,0.034-1.196,0.072-1.499,0.105c-10.299-0.069-11.207-0.174-21.32-0.064          l2.805,0.19c-3.994,1.403-8.408,0.313-16.563,0.482l0.234-0.144c-18.698-1.012-8.073,0.485-26.518-0.67l1.003,0.873          c-1.72,1.877-16.343-1.108-27.048-0.39l3.864,0.499c-5.847,0.642-16.343-2.554-22.214-2.789          c-1.28-0.164,2.021-0.262,3.808-0.383c-15.372-1.107-1.992,1.144-13.447,1.409c-2.111-0.617,2.723-1.568-4.987-1.683          c-3.841-0.499-22.361,2.002-32.881,0.819c2.316,0.476,4.619,0.95-0.702,1.307c-8.155,0.17-22.046-1.796-29.413-0.298          c-1.037-0.13-1.429-0.254-1.472-0.372c-6.234,0.386-20.26,0.642-24.014,1.455c-5.761-3.016-38.757,1.466-38.618-1.314          l-19.175,0.149l0.501-0.284c-12.258-0.184-16.591,0.482-20.9,1.15c-2.833-0.189-0.764-0.449-0.53-0.595          c-8.955-0.28-13.877-0.391-18.438-0.258c-2.28,0.066-4.47,0.193-7.029,0.39c-1.279,0.107-2.65,0.222-4.171,0.35          c-0.76,0.068-1.558,0.14-2.4,0.216c-0.753,0.078-1.956,0.148-3.033,0.453c0,0-0.128-0.035-0.319-0.087          c-0.196-0.037-0.457-0.087-0.717-0.137c-0.536-0.11-1.086-0.135-1.086-0.135c-1.166,0.56-3.837,1.631-6.158,4.618          c-1.148,1.47-2.137,3.438-2.53,5.766c-0.127,0.578-0.14,1.178-0.193,1.79c-0.019,0.468-0.038,0.946-0.057,1.431          c-0.036,0.962-0.072,1.956-0.109,2.976c-0.288,8.16-0.509,18.007,0.017,26.79c-0.102-0.172-0.277-0.535-0.405-1.93          c1.06,19.763-2.502,47.313,0.783,54.555l0.81,13.042c0.255-16.873,1.426,2.513,1.971-4.428c0.193,6.635-0.99,17.154-1.16,9          l0.165-1.275c-1.712-2.996-0.607,20.966-1.773,20.513c0.084,33.201-0.864,65.561-0.937,96.66l1.331-3.582l-0.077,10.849          c-0.31,2.847-1.041,3.821-0.986-3.918c-0.755,4.07,0.631,12.979,0.921,13.199c-0.54,15.153-1.552-5.919-1.584-1.271          l0.099,6.311l0.156-1.424c0.544,5.117,1.121,5.57,1.054,14.871c-0.266,5.886-0.82,3.02-0.872,5.337          c-0.094-0.015-0.139,0.769-0.038,3.554l-0.114,13.667l1.051-5.465c0.518,6.058-0.055,12.851,1.136,6.545          c-0.229,1.157-0.412,2.821-0.557,4.859c-0.073,1.02-0.135,2.132-0.19,3.32c-0.024,0.595-0.05,1.209-0.076,1.839          c-0.011,0.286-0.022,0.575-0.034,0.868l-0.031,0.092c-0.157,0.493-0.2,1.075-0.203,1.647          c-0.006,1.144,0.146,2.246-0.14,2.511c0.767,0.789,0.753,1.567,0.661,2.533c0.219-0.24,1.4-0.384,1.256,0.448          c-2.438-0.305-1.059,1.524-2.813,2.197c1.164-0.602,0.288,2.365,1.94,1.422c-0.197,0.695-0.913,0.043-1.487,0.569          c0.945,1.653-0.614,3.643-0.295,5.687c0.32,0.031,0.81-0.311,1.286,0.128l-1.6,1.078c0.156,0.403,1.847,0.372,0.736,1.109          c0.269-0.104,0.675-0.26,0.777,0.011c-1.56,4.003,1.278,8.179-1.653,12.243c0.621-0.55,0.682-0.183,0.706,0.237          c0.148-0.273,0.79,0.006,1.224-0.048l-1.205,1.702c1.204,0.311,0.082,1.824,1.233,2.002l-0.208-0.539          c1.359,0.717,3.02-1.003,4.763-0.897c-1.545-0.803,2.288-2.116,0.077-3.433c0.355-0.291,0.562,0.248,0.966,0.092          c-0.748-0.333-0.903-0.736-0.568-1.483l0.185,0.085c-0.182-2.099,0.555-2.998,1.046-5.355l-0.863,0.175          c0.115-0.507,0.386-0.613,0.602-0.851c-1.308-0.581-0.074,1.423-1.516,0.893c1.754-0.671,0.027-3.571,2.02-4.025          c0.01-0.779-0.998,0.229-0.986-0.551l0.54-0.207l-0.695-0.196c0.115-0.511,0.79-0.769,1.246-0.788          c-0.054,0.124,0.128,0.353,0.167,0.485c0.636-0.662-0.216-1.868-0.01-2.096l-0.332,0.749          c-0.505-2.127,0.204-4.724-0.893-6.778l-0.408,0.156c-0.752-1.569,0.447-1.257,0.1-2.979l0.096,0.063          c-0.405-0.345-0.609-0.805-0.563-1.276c0.476,0.436,0.926-0.818,1.453-0.248c-0.808-1.701-0.635-0.841-2.147-1.965          l0.674-0.259c-0.609-0.384-0.932-0.415-1.106-1.275c0.579,0.705,1.028-0.55,1.793,0.241          c0.738-0.903,0.366-1.573,0.079-2.121c-0.144-0.274-0.266-0.518-0.218-0.744c0.024-0.113,0.091-0.223,0.22-0.329          c0.032-0.027,0.068-0.054,0.108-0.08l0.063-0.039l0.069-0.42c0.097-0.563,0.212-1.121,0.347-1.678          c-0.467-2.229-0.766-2.293-0.957-1.214c-0.096,0.539-0.164,1.364-0.214,2.348c-0.011,0.246-0.022,0.502-0.034,0.766          l-0.007,0.198l-0.007,0.019l-0.013,0.038c-0.016,0.052-0.028,0.105-0.038,0.16c-0.076,0.436,0.032,0.918-0.168,0.686          c-0.305,0.194-0.654,0.023-0.903-0.268c-0.125-0.145-0.224-0.32-0.281-0.494c-0.014-0.044-0.025-0.087-0.034-0.13          c-0.005-0.425-0.011-0.845-0.017-1.254c-0.004-0.89,0.004-1.736,0.027-2.498c0.042-6.2,2.389-10.543,2.354-26.141          c-0.008,1.553,0.132,1.658,0.125,3.206c0.477-5.838-0.646-11.437,0.129-18.598c-1.13-4.013,0.064-9.296-1.376-10.452          l0.333,14.308c-0.376-8.111-2.063-15.717-1.245-29.078c0.291,1.041,0.673,5.016,0.886,7.748          c0.425-3.907-0.282-7.523,0.155-11.575c1.442,1.156,0.313,17.389,1.413,26.079c0.609-4.194-1.044-16.438,0.517-12.072          c-1.986-6.277,0.25-15.368-1.266-25.93l0.864,0.697c-0.136-1.672-0.543-5.136-0.522-8.212l1.12,5.57          c-0.955-8.552,0.835-16.486,0.315-24.688c0.027,17.174-1.04,3.855-1.671,11.116c-1.156-21.182,2.259-12.182,1.845-35.895          c0.122,3.21-0.519,12.053-0.919,7.032c0.178-4.514,0.51-10.476,0.962-13.247c-0.179-15.712-0.888,2.412-1.418-4.276          c1.052-5.35-0.428-7.715-0.766-14.604l0.878-0.048c0.563-17.904-1.83-4.748-1.149-20.866l1.218,6.812l-0.314-8.403          l0.999,1.734c-0.74-9.144-0.549-11.991-0.269-20.948c-0.619,2.083-1.593-1.17-1.621-9.101          c0.522-5.408,0.834,3.029,0.709-8.212c0.549,2.537,1.239,5.317,0.43,10.209c0.287,0.501,0.551,2.503,0.834,3.019          c0.599-5.823,0.136-14.637,0.129-18.707c-0.033,1.567-0.08,3.439-0.206,4.399l-1.216-16.294          c0.33-2.565,0.594-0.53,0.854,1.485c-0.095-3.301-0.498-5.584-0.573-10.438c0.713,1.257,1.45,0.956,1.786,7.825          l-0.792-15.526c0.31-1.037,0.852-7.968,1.115-5.952c0.209-4.304-0.137-9.583-0.466-15.212          c-0.165-2.815-0.325-5.717-0.41-8.629l-0.028-1.092l0.006-0.622l0.07-0.547c0.058-0.174,0.083-0.357,0.144-0.53          c0.236-0.694,0.656-1.331,1.197-1.813c0.1-0.303,0.422-0.912,1.563-1.564c0.667-0.267,1.367-0.376,2.063-0.339          c1.303,0.042,2.595,0.083,3.886,0.123c2.598,0.081,5.188,0.16,7.84,0.242c5.305,0.117,10.858,0.091,17.214-0.398          l7.213,1.279c9.956-0.291-9.764-1.612,6.813-2.094c11.737-0.409,4.38,1.091,8.498,1.447          c5.838-0.646,15.984-1.958,26.767-0.916C168.251,87.385,165.452,87.196,162.118,87.291z M284.903,86.724          c-2.379,0.184-7.122,0.753-8.861,0.235C278.751,85.952,280.848,86.434,284.903,86.724z M424.982,131.75          c-0.29-1.768-0.146-4.505,0.186-7.591C425.24,126.4,425.208,128.937,424.982,131.75z M196.811,430.214          c0.101-0.014,0.172-0.024,0.253-0.043C202.371,430.513,200.489,430.379,196.811,430.214z M185.79,429.832          c-1.108,0.123-1.032,0.245-0.564,0.368c0.769-0.223,3.244-0.237,6.062-0.176          C190.505,429.795,189.081,429.636,185.79,429.832z M80.1,351.614l0.229-2.146C80.582,354.313,80.354,352.956,80.1,351.614z" style="fill:#202020;"/><path d="M423.781,110.587c0.148-0.673,0.313-0.86,0.478-1.018          C424.111,108.634,423.94,108.615,423.781,110.587z" style="fill:#202020;"/><path d="M90.094,89.228l-0.131,0.136c-0.03,0.113-0.028,0.187-0.009,0.243L90.094,89.228z" style="fill:#202020;"/><path d="M356.5,422.389c2.269,0.126,3.535,0.287,4.376,0.453          C361,422.627,359.968,422.445,356.5,422.389z" style="fill:#202020;"/><path d="M127.39,431.325l7.061-0.229c-3.416,0.043-4.634-0.148-6.358-0.288          C128.25,431.014,129.597,431.311,127.39,431.325z" style="fill:#202020;"/><path d="M102.111,425.892c-0.096,0.107-0.203,0.012-0.298,0.121l0.026,0.407          C102.249,426.394,102.534,426.064,102.111,425.892z" style="fill:#202020;"/><path d="M120.854,428.408c-0.559-0.74-4.987-0.488-9.932-0.352c0.296-0.003,0.578-0.009,0.875,0          C110.34,429.09,115.609,428.748,120.854,428.408z" style="fill:#202020;"/><path d="M109.776,428.082c-0.762,0.012-1.532,0.023-2.298,0.035c-0.383,0-0.765,0-1.145,0          l-0.534-0.007l-0.052-0.011c-0.013,0.104-0.009,0.161,0.008,0.187c0.009,0.014,0.021,0.019,0.036,0.018          c0.13-0.005,0.287-0.012,0.463-0.019C107.13,428.242,108.417,428.134,109.776,428.082z" style="fill:#202020;"/><path d="M171.812,430.322c-2.346-0.19-1.471,0.944-2.799,0.644          C166.395,431.906,184.648,429.828,171.812,430.322z" style="fill:#202020;"/><polygon points="116.852,425.975 118.624,426.886 121.395,426.15         " style="fill:#202020;"/><path d="M155.895,426.644l-7.901-0.253c0.12,0.153-0.884,0.243-2.116,0.312          C150.745,426.732,156.081,426.913,155.895,426.644z" style="fill:#202020;"/><path d="M145.877,426.702c-2.537-0.019-4.949,0.002-6.358,0.151          C140.89,426.844,143.842,426.813,145.877,426.702z" style="fill:#202020;"/><polygon points="127.652,425.7 129.988,425.891 135.568,425.958         " style="fill:#202020;"/><path d="M240.832,426.819l8.623-0.262c0.879-0.312-1.471-0.504-4.681-0.379          C242.709,426.396,239.508,426.518,240.832,426.819z" style="fill:#202020;"/><path d="M214.753,424.322c2.331,0.189,2.489,0.393,3.803,0.692l0.263-1.13L214.753,424.322z" style="fill:#202020;"/><path d="M239.9,424.059c0.86-0.314,12.516-0.9,1.586-0.829          C240.612,423.54,231.975,423.801,239.9,424.059z" style="fill:#202020;"/><polygon points="369.833,425.488 367.64,425.503 367.955,427.356         " style="fill:#202020;"/><path d="M421.936,364.161c-0.444,10.218,1.144,2.427,0.589,11.661          c0.438,2.397,0.452-7.548,0.831-5.088C422.894,364.567,423.154,361.328,421.936,364.161z" style="fill:#202020;"/><path d="M423.355,370.734c0.073,0.989,0.162,2.035,0.282,3.148          C423.521,372.096,423.433,371.255,423.355,370.734z" style="fill:#202020;"/><polygon points="79.16,414.285 78.773,414.896 79.396,414.502         " style="fill:#202020;"/><path d="M80.534,415.459l-1.181,0.144l1.069,0.367C80.37,415.832,80.268,415.563,80.534,415.459z" style="fill:#202020;"/><path d="M303.157,89.104l0.501-0.285c-1.018-0.307-2.556-0.33-5.637-0.378L303.157,89.104z" style="fill:#202020;"/><polygon points="214.04,88.219 215.574,88.244 212.708,87.175         " style="fill:#202020;"/><path d="M139.245,89.582c3.052,0.044,6.64-0.194,9.707-0.148          C142.297,89.626,138.418,88.25,139.245,89.582z" style="fill:#202020;"/></g></g></g></g></g></g></g></g><g id="Layer_1"/></svg>