<?xml version="1.0" encoding="iso-8859-1"?>
<!-- Generator: Adobe Illustrator 19.0.0, SVG Export Plug-In . SVG Version: 6.00 Build 0)  -->
<svg version="1.1" id="Capa_1" xmlns="http://www.w3.org/2000/svg" xmlns:xlink="http://www.w3.org/1999/xlink" x="0px" y="0px"
	 viewBox="0 0 512 512" style="enable-background:new 0 0 512 512;" xml:space="preserve">
<g>
	<g>
		<path d="M485.897,28.64c-17.103-11.083-35.963-14.898-54.574-10.108c-22.136,2.696-43.204,12.963-61.026,25.953
			c-42.535,31.002-75.074,73.44-113.172,109.303c-39.364,37.056-77.491,74.69-119.344,109.051
			c-22.007,18.068-45.249,34.658-68.086,51.655c-21.197,15.775-40.438,31.417-53.703,54.762
			C3.807,390.7-4.889,419.125,3.055,443.526c7.571,23.254,25.732,36.589,47.984,44.771c22.013,8.094,51.884,10.246,74.102,1.858
			c23.53-8.883,43.287-25.969,60.519-43.833c17.829-18.481,34.584-37.304,50.237-57.682c17.224-22.423,31.514-46.762,50.387-67.996
			c34.956-39.328,71.572-75.832,114.695-106.294c44.181-31.209,100.379-64.734,109.887-122.963
			C514.995,66.108,508.11,43.034,485.897,28.64z M209.36,400.96c-14.772,18.716-32.241,37.904-50.571,53.169
			c-19.148,15.945-38.732,27.935-64.326,28.225c-23.741,0.268-54.009-5.262-69.939-24.633
			c-17.488-21.264-13.102-50.547-1.755-73.641c0.998-0.622,1.966-1.245,2.9-1.801c6.959-4.141,13.863-8.391,20.787-12.593
			c15.348-9.314,31.855-21.499,49.669-25.439c7.976-1.765,7.892,1.853,5.031,8.783c-1.482,3.59-4.294,7.241-6.389,10.487
			c-4.949,7.667-10.048,15.325-14.594,23.243c-6.604,11.503-15.926,26.049-18.292,39.358c-4.883,27.465,47.286,2.469,57.198-1.913
			c16.317-7.216,32.658-14.585,49.292-21.074c13.588-5.302,30.185-10.527,44.954-7.332
			C211.997,397.515,210.707,399.252,209.36,400.96z M218.395,389.196c-0.232-0.016-0.461-0.01-0.687,0.016
			c-27.924-8.307-60.022,10.548-84.812,21.014c-8.831,3.729-17.32,8.129-26.362,11.328c-7.252,2.566-26.809,14.78-33.606,8.545
			c-6.066-5.564,2.166-16.715,4.78-21.92c3.808-7.583,7.584-15.173,12.029-22.406c4.513-7.343,9.246-14.567,13.643-21.978
			c2.689-4.531,7.527-11.877,7.959-17.487c0.725-9.422-7.81-10.525-15.249-9.073c-15.832,3.093-31.033,13.142-44.362,21.741
			c-7.654,4.938-15.347,9.976-22.756,15.268c-0.448,0.32-0.9,0.674-1.352,1.024c7.987-13.075,18.259-23.729,29.745-33.473
			c8.829-3.225,17.65-8.444,26.304-11.487c11.196-3.937,21.838-9.396,33.126-13.101c7.128-2.34,20.722-8.404,23.222,3.12
			c1.763,8.125-5.556,19.991-9.146,26.814c-5.854,11.127-14.75,20.912-18.725,32.961c-8.646,26.202,27.425,14.179,38.799,9.291
			c27.013-11.607,55.787-26.315,85.749-25.289C230.695,372.542,224.637,380.921,218.395,389.196z M390.919,205.094
			c-35.768,25.728-68.103,55.068-97.536,87.794c-14.979,16.655-29.964,33.204-42.845,51.582c-2.802,3.998-5.6,7.985-8.403,11.962
			c-0.156-0.029-0.302-0.072-0.469-0.086c-28.624-2.376-55.606,9.877-81.396,21.13c-7.946,3.467-15.85,7.629-24.139,10.199
			c-3.301,1.108-10.852,3.95-14.101,2.056c-6.953-4.053-1.217-12.523,1.404-17.082c7.292-12.696,15.794-23.961,20.851-37.917
			c2.829-7.806,6.028-21.28-2.533-26.974c-7.426-4.94-21.215,0.709-28.472,3.317c-11.98,4.305-23.925,9.233-35.493,14.826
			c17.41-12.841,35.018-25.476,51.985-38.882c36.815-29.089,73.444-59.621,106.052-93.435
			c20.785-21.553,41.752-42.917,62.643-64.358c7.93-2.66,16.134-9.38,22.623-12.877c11.581-6.24,23.252-12.354,34.963-18.344
			c12.933-6.618,26.899-12.444,40.967-16.094c2.587-0.671,5.132-2.568,6.121,0c0.87,2.259-1.793,5.052-3.032,6.943
			c-3.68,5.618-7.558,11.115-11.257,16.728c-3.965,6.016-12.266,16.962-8.172,24.79c4.443,8.495,17.966,5.796,25.322,4.878
			c26.348-3.288,51.53-11.174,78.296-11.498C462.932,159.012,423.495,181.664,390.919,205.094z M491.459,109.861
			c-0.949,2.232-1.985,4.403-3.071,6.541c-0.504-0.262-1.096-0.426-1.798-0.423c-25.589,0.113-50.533,6.052-75.466,11.163
			c-7.048,1.445-28.384,4.971-21.636-8.899c2.976-6.116,7.36-11.875,11.175-17.488c3.669-5.398,14.561-16.813,11.758-24.263
			c-2.688-7.147-12.499-3.236-17.444-1.996c-11.821,2.963-23.229,7.873-34.282,13c-11.832,5.488-23.568,11.928-34.894,18.403
			c-3.683,2.105-7.346,4.245-10.949,6.475c10.181-10.513,20.332-21.059,30.402-31.684c0.705-0.744,1.424-1.479,2.14-2.216
			c2.055-1.014,4.04-2.022,5.858-2.795c11.584-4.927,23.525-8.954,35.551-12.683c10.873-3.372,21.665-6.331,32.907-8.33
			c6.222-1.107,22.452-4.121,26.108,3.674c3.235,6.898-7.777,18.214-11.28,22.719c-6.745,8.672-21.853,26.363-1.869,29.063
			c9.96,1.345,20.516-1.583,30.125-3.835c9.846-2.306,19.929-4.618,30.077-5.673C493.879,103.771,492.732,106.868,491.459,109.861z
			 M496.723,93.806c-8.185-0.081-16.07,1.182-24.668,2.973c-6.23,1.298-12.348,3.202-18.578,4.466
			c-3.26,0.66-14.48,3.801-17.746,1.544c-10.01-6.921,34.818-37.232,14.526-53.073c-7.115-5.554-18.653-4.31-26.885-3.007
			c-11.983,1.897-23.519,5.209-35.041,8.847c-8.86,2.797-17.842,5.695-26.507,9.214c13.302-11.565,28.07-21.529,44.207-28.263
			c12.681-5.292,25.814-9.034,39.726-8.348c5.692,0.281,12.097,1.196,18.32,2.955c7.055,2.885,13.75,6.958,19.906,12.332
			C499.043,56.59,500.882,75.713,496.723,93.806z"/>
	</g>
</g>
<g>
	<g>
		<path d="M337.622,137.053c-13.179,5.71-25.004,18.944-33.868,29.981c-5.153,6.417-13.036,15.854-12.229,24.639
			c-0.243,7.299,3.977,13.866,11.328,19.356c10.26,7.664,23.783,10.203,35.201,3.665c12.844-7.353,27.155-21.271,33.53-34.812
			C381.393,159.043,362.26,126.378,337.622,137.053z M360.571,180.914c-11.287,17.089-34.996,39.964-54.958,21.705
			c-13.903-12.717,0.754-25.731,9.533-35.573c3.411-3.825,6.862-7.553,10.375-11.216c0.828-0.716,1.645-1.439,2.491-2.146
			c9.077-7.585,19.813-13.998,29.889-4.158C367.36,158.763,367.627,170.232,360.571,180.914z"/>
	</g>
</g>
<g>
	<g>
		<path d="M348.702,154.981c-11.646-1.822-23.6,8.893-30.781,18.934c-4.819,4.47-9.617,9.083-8.603,16.303
			c2.502,17.824,24.767,11.772,33.993,3.787C350.769,187.549,368.008,158.001,348.702,154.981z M350.531,170.898
			c-1.817,5.553-5.963,12.835-9.996,16.903c-4.372,4.41-10.493,8.327-16.948,7.857c-11.802-0.859-8.178-11.451-3.002-17.475
			c1.031-1.2,2.098-2.454,3.183-3.721c4.22-4.059,8.45-8.1,13.746-10.88c2.1-1.103,4.599-2.721,7.077-2.259
			C349.526,162.244,352.06,166.224,350.531,170.898z"/>
	</g>
</g>
<g>
	<g>
		<path d="M206.079,265.294c-13.179,5.71-25.004,18.944-33.868,29.981c-5.153,6.416-13.036,15.854-12.229,24.639
			c-0.243,7.299,3.977,13.866,11.328,19.356c10.26,7.664,23.783,10.203,35.201,3.665c12.844-7.353,27.155-21.271,33.53-34.812
			C249.85,287.284,230.717,254.618,206.079,265.294z M229.028,309.155c-11.287,17.089-34.996,39.964-54.958,21.705
			c-13.903-12.717,0.754-25.731,9.533-35.573c3.411-3.825,6.862-7.553,10.375-11.216c0.828-0.716,1.645-1.439,2.491-2.146
			c9.077-7.585,19.813-13.998,29.889-4.158C235.817,287.004,236.084,298.473,229.028,309.155z"/>
	</g>
</g>
<g>
	<g>
		<path d="M217.159,283.221c-11.646-1.822-23.6,8.893-30.781,18.934c-4.819,4.47-9.617,9.083-8.603,16.303
			c2.502,17.824,24.767,11.772,33.993,3.787C219.226,315.79,236.465,286.242,217.159,283.221z M218.988,299.138
			c-1.817,5.553-5.963,12.835-9.995,16.903c-4.372,4.409-10.493,8.327-16.948,7.857c-11.803-0.859-8.178-11.451-3.002-17.475
			c1.031-1.2,2.098-2.454,3.183-3.722c4.22-4.059,8.45-8.1,13.746-10.88c2.1-1.103,4.599-2.721,7.077-2.259
			C217.983,290.485,220.517,294.464,218.988,299.138z"/>
	</g>
</g>
<g>
</g>
<g>
</g>
<g>
</g>
<g>
</g>
<g>
</g>
<g>
</g>
<g>
</g>
<g>
</g>
<g>
</g>
<g>
</g>
<g>
</g>
<g>
</g>
<g>
</g>
<g>
</g>
<g>
</g>
</svg>
