<?xml version="1.0" encoding="iso-8859-1"?>
<!-- Generator: Adobe Illustrator 19.0.0, SVG Export Plug-In . SVG Version: 6.00 Build 0)  -->
<svg version="1.1" id="Capa_1" xmlns="http://www.w3.org/2000/svg" xmlns:xlink="http://www.w3.org/1999/xlink" x="0px" y="0px"
	 viewBox="0 0 511.999 511.999" style="enable-background:new 0 0 511.999 511.999;" xml:space="preserve">
<g>
	<g>
		<path d="M511.117,209.805c-0.843-16.04-1.354-32.071-2.109-48.103c-0.622-13.207-1.969-29.742-7.631-41.829
			c-12.372-26.411-56.66-24.009-80.71-24.84c-18.303-0.633-36.619,0.329-54.922-0.437c-16.133-0.675-32.069-3.229-48.232-3.14
			c-16.816,0.092-33.792-0.357-50.582,0.403c-10.406,0.471-20.737,1.489-31.092,2.301c-23.877,0.403-47.733,0.969-71.61,2.058
			c-15.363,0.701-30.728,1.322-46.096,1.914c-15.155,0.583-30.262-0.634-45.43,0.222c-12.058,0.681-24.488,0.237-36.425,2.182
			c-13.731,2.238-17.334,8.863-20.969,21.554c-8.111,28.318-9.512,58.769-12.034,87.961c-2.706,31.332-4.58,61.853-2.151,93.227
			c1.08,13.959,1.049,27.872,1.641,41.833c0.574,13.546-0.088,29.224,3.561,42.339c2.672,9.604,9.758,13.996,18.861,16.886
			c14.708,4.67,30.248,6.337,45.598,7.179c30.162,1.655,60.359,2.175,90.546,2.981c60.625,1.619,120.933,6.988,181.664,5.97
			c27.958-0.469,56.277,0.518,84.156-1.078c14.083-0.806,29.987,0.253,43.214-5.435c10.848-4.664,18.833-14.558,24.019-24.897
			c13.688-27.289,14.542-60.579,16.073-90.54C511.977,268.745,512.684,239.636,511.117,209.805z M498.097,258.634
			c-0.584,27.168-2.463,54.81-5.601,81.8c-1.779,15.291-4.547,31.116-12.306,44.651c-8.709,15.192-21.734,18.408-38.265,19.414
			c-25.349,1.542-51.062,1.893-76.466,1.759c-28.601-0.152-57.165,1.143-85.78,0.088c-26.572-0.98-53.049-2.18-79.595-4.004
			c-26.197-1.799-52.624-1.554-78.866-2.055c-28.534-0.546-59.444,0.205-87.145-7.182c-5.96-1.589-12.556-2.652-15.046-9.158
			c-2.326-6.079-1.791-15.143-2.159-21.578c-0.737-12.875-1.008-25.74-1.479-38.624c-0.479-13.119-1.888-26.154-2.696-39.253
			c-0.88-14.269,0.272-28.27,1.241-42.49c1.987-29.178,4.103-58.538,8.364-87.485c0.939-6.375,2.115-12.65,3.522-18.936
			c1.105-4.935,1.97-15.378,5.533-19.174c3.818-4.069,11.761-3.252,16.868-3.557c6.947-0.414,13.896-0.61,20.843-1.013
			c14.198-0.823,28.285,0.094,42.458-0.301c16.232-0.453,32.481-1.5,48.699-2.338c31.629-1.634,63.224-2.637,94.89-3.132
			c34.359-0.537,68.703,0.346,103.049,1.112c6.465,0.505,12.941,0.891,19.463,1.025c28.415,0.585,57.711-1.038,85.766,4.539
			c7.045,1.4,15.439,3.289,20.942,8.237c4.731,4.254,5.852,11.28,6.969,17.25c2.361,12.618,2.976,25.078,3.277,37.88
			C495.223,203.6,498.689,231.105,498.097,258.634z"/>
	</g>
</g>
<g>
	<g>
		<path d="M459.323,218.069c-1.95,1.329-5.264,1.648-7.424,2.54c-1.683,0.723-3.333,1.516-4.974,2.329
			c0.115-4.336-0.493-8.7-0.781-13.009c-0.021-0.75-0.056-1.508-0.121-2.298c-0.323-3.966-6.117-4.071-6.248,0
			c-0.088,2.731,0.167,5.808,0.296,8.916c-0.318,3.562-0.897,7.173-0.92,10.614c-0.225,0.713-0.47,1.417-0.798,2.079
			c-1.982,4-6.897,8.071-9.683,11.575c-1.991,2.504-3.795,5.108-5.499,7.766c-2.914-4.934-6.379-9.547-10.71-12.66
			c6.425-9.052,8.561-21.752,1.697-31.032c0.696-1.119,1.335-2.287,1.876-3.525c2.739-6.267,3.367-12.655,2.343-18.617
			c1.844-8.608-0.223-20.439-0.762-27.17c-0.862-10.78-3.862-23.399-15.408-27.285c-10.056-3.384-25.094,3.445-32.069,10.773
			c-7.222,7.59-14.622,22.033-12.498,32.835c-6.558,9.651-9.049,21.424-2.211,29.948c0.231,0.288,0.468,0.567,0.701,0.851
			c-6.022,4.852-8.372,14.687-6.976,22.582c-6.809,2.802-13.815,10.247-18.846,15.997c-2.464-4.836-5.151-9.543-6.86-13.937
			c-1.942-4.995-5.187-10.925-5.462-16.288c-0.292-5.666-0.229-11.163-0.798-16.908c-0.431-4.346-7.064-4.538-6.928,0
			c0.042,1.414,0.126,2.951,0.215,4.544c0.157,4.004,0.21,7.921,0.171,11.957c-2.219-0.765-4.635-2.001-6.481-2.381
			c-4.153-0.854-7.821-1.326-11.834,0.237c-2.549,0.993-2.58,4.247,0,5.232c4.895,1.87,10.33,1.726,15.421,3.217
			c1.527,0.447,2.72,1.022,4.009,1.223c1.173,3.29,3.005,6.439,4.218,9.65c2.457,6.505,5.319,13.599,8.692,20.28
			c-6.768,9.178-10.826,19.583-13.784,30.709c-4.803,18.062-3.494,40.038,4.844,57.941c-17.146-6.498-38.422-2.252-54.433,4.608
			c-15.432,6.612-28.607,8.933-45.28,5.836c-12.78-2.374-25.176-7.528-38.294-7.708c-13.076-0.179-22.967,5.77-34.868,9.836
			c-15.319,5.235-27.228,3.563-42.895,1.82c-11.943-1.328-23.294-0.733-34.477,4.147c-5.188,2.263-15.471,7.841-14.08,15.153
			c1.286,6.764,13.837,9.352,18.93,10.115c13.417,2.011,27.779,1.3,41.325,1.531c30.521,0.521,60.81,4.021,91.376,4.164
			c14.726,0.069,29.34-0.406,44.048-1.033c16.14-0.688,31.669,1.245,47.615,3.533c29.667,4.257,59.24-0.296,88.77,4.835
			c15.384,2.673,31.15,0.571,46.65,0.46c10.658-0.076,20.863-3.549,26.781-13.458c4.464-7.475,2.116-17.069-4.597-22.245
			c-8.096-6.242-18.542-7.882-28.605-7.464c9.053-12.475,14.048-28.44,15.104-43.189c1.104-15.437-2.122-31.613-8.718-45.517
			c-0.996-2.101-2.054-4.367-3.198-6.678c3.87-5.5,7.696-11.039,12.03-16.089c2.485-2.895,4.999-5.189,6.464-8.322
			c2.426-0.551,4.742-1.99,7.06-2.939c3.321-1.361,9.789-1.782,11.426-5.541C465.042,219.903,462.383,215.985,459.323,218.069z
			 M369.704,150.113c5.426-8.961,20.721-21.394,32.642-15.228c9.615,4.974,8.412,19.322,8.743,28.236
			c0.051,1.392,0.138,2.816,0.232,4.25c-6.319-7.753-16.085-12.845-27.253-12.684c-7.258,0.105-15.187,4.611-21.424,11.073
			C364.746,160.448,366.688,155.094,369.704,150.113z M373.647,165.689c2.349-1.287,4.957-2.22,7.884-2.597
			c16.696-2.152,31.629,13.3,28.115,29.883c-3.94,18.598-29.468,24.941-42.338,10.916
			C356.322,191.921,362.202,174.964,373.647,165.689z M397.609,217.548c4.063-1.36,7.851-3.438,11.048-6.223
			c1.38,6.232,2.136,11.604-1.229,17.804c-1.855,3.416-4.225,6.05-6.985,7.999C400.985,230.516,399.848,223.746,397.609,217.548z
			 M364.389,273.524c-0.567-0.067-1.104-0.191-1.546-0.463c-4.153-2.551-5.199-7.024-4.564-11.312
			c0.935-6.308,2.157-13.23,3.888-19.568c1.608,0.96,3.289,1.817,5.007,2.566C365.389,254.208,364.011,263.839,364.389,273.524z
			 M365.309,235.874c-0.488-2.702-0.594-5.78-0.413-8.486c0.313-4.665,1.996-9.086,2.986-13.629
			c3.398,2.261,7.11,3.941,11.245,4.857c-2.035,7.274-3.796,14.224-2.673,21.701C372.681,239.368,368.725,237.85,365.309,235.874z
			 M371.45,260.921c0.102-4.684,0.29-9.669,0.097-14.513c2.388,0.78,4.779,1.376,7.066,1.767c3.834,0.654,7.572,0.862,11.151,0.57
			c0.068,0.109,0.129,0.22,0.211,0.323c3.49,4.408,3.034,16.498,2.818,22.139c-0.134,3.5-0.308,7.686-3.183,9.811
			c-2.51,1.855-10.936,1.485-13.61,0.156C369.63,278.01,371.309,267.352,371.45,260.921z M382.724,241.371
			c-0.365-0.026-0.751-0.079-1.13-0.12c-0.837-3.816-1.31-7.592-1.155-11.6c0.141-3.657,1.136-7.045,1.371-10.566
			c1.492,0.2,3.03,0.318,4.635,0.314c2.693-0.006,5.371-0.349,7.977-0.955c-0.729,5.868,0.658,12.552,0.17,18.258
			c-0.073,0.856-0.463,2.199-0.792,3.626C390.401,241.336,386.667,241.655,382.724,241.371z M358.637,205.614
			c2.288,2.521,4.699,4.807,7.288,6.763c-3.271,4.54-4.978,10.753-5.318,16.093c-0.071,1.118-0.214,2.418-0.298,3.762
			c-0.251-0.236-0.505-0.47-0.737-0.713C352.837,224.477,354.634,213.645,358.637,205.614z M451.284,369.044
			c5.765,17.777-24.938,18.209-35.107,18.387c-11.594,0.203-22.7,0.892-34.191-1.121c-11.468-2.009-22.639-2.771-34.3-2.385
			c-11.568,0.383-23.253,1.789-34.81,0.642c-11.575-1.148-23.026-3.316-34.579-4.632c-23.689-2.699-47.462,0.294-71.214,0.241
			c-24.159-0.053-48.094-0.739-72.217-2.194c-11.356-0.685-22.655-0.911-34.026-1.198c-11.151-0.281-30.369,3.023-39.755-4.079
			c-11.204-8.478,19.068-15.196,24.73-15.288c11.519-0.188,22.609,3.352,34.075,3.491c21.17,0.257,38.68-15.102,59.581-13.946
			c12.826,0.709,25.345,5.981,37.963,8.328c11.005,2.046,20.934,1.865,31.736-1.434c10.946-3.342,20.696-10.448,31.952-12.621
			c12.032-2.324,26.134-1.755,38.121,2.172c2.727,4.49,5.96,8.618,9.743,12.214c19.617,18.649,45.725,23.886,70.942,14.212
			c6.91-2.651,12.847-6.837,17.895-11.984C428.503,357.616,447.549,357.525,451.284,369.044z M429.855,309.562
			c-3.193,32.712-27.305,60.861-62.166,56.394c-33.351-4.273-52.62-35.348-52.403-67.358c0.096-14.078,4.893-30.302,12.277-42.284
			c0.279-0.453,0.603-0.881,0.893-1.328c1.4,2.325,2.863,4.565,4.43,6.619c1.02,1.338,3.164,0.968,3.25-0.88
			c0.194-4.164-0.945-8.408-2.652-12.619c2.46-3.01,5.097-5.884,7.805-8.606c2.452-2.464,5.855-7.005,9.14-9.833
			c0.072,0.17,0.131,0.351,0.207,0.517c1.844,4.023,4.928,7.36,8.615,10.056c-1.812,2.458-2.803,5.71-3.727,8.468
			c-2.122,6.335-5.276,14.02-4.169,20.878c0.966,5.981,7.819,11.025,14.235,11.428c2.624,6.864,9.408,8.727,18.177,8.303
			c10.561-0.511,15.139-4.013,16.143-14.688c0.615-6.534,1.156-20.04-3-27.235c3.453-1.07,6.685-2.737,9.615-5.1
			c4.771,3.369,8.496,9.103,11.492,14.863c-2.816,4.893-5.564,9.822-8.691,14.549c-1.141,1.726,1.39,3.576,2.816,2.172
			c3.253-3.203,6.161-6.736,8.937-10.394c0.495,1.083,0.966,2.134,1.414,3.132C428.384,279.734,431.262,295.145,429.855,309.562z"/>
	</g>
</g>
<g>
	<g>
		<path d="M373.96,180.457c-0.071-0.021-0.141-0.042-0.212-0.063c-2.819-0.84-5.701,1.473-5.701,4.343
			c0.001,2.798,2.898,5.281,5.701,4.341c0.071-0.024,0.142-0.048,0.212-0.071c1.792-0.601,3.345-2.268,3.255-4.275
			C377.126,182.747,375.896,181.033,373.96,180.457z"/>
	</g>
</g>
<g>
	<g>
		<path d="M398.47,182.226c-2.407,0-4.713,2.117-4.602,4.602c0.112,2.494,2.022,4.603,4.602,4.603c2.407,0,4.714-2.117,4.602-4.603
			C402.96,184.335,401.05,182.226,398.47,182.226z"/>
	</g>
</g>
<g>
	<g>
		<path d="M391.838,192.531c-2.01,1.297-4.13,2.979-6.658,3.157c-2.081,0.147-3.972-1.826-4.798-3.563
			c-0.553-1.163-2.549-1.182-3.096,0c-2.089,4.51,2.348,8.821,6.535,9.573c4.486,0.806,11.425-1.925,11.803-6.995
			C395.764,192.819,393.374,191.539,391.838,192.531z"/>
	</g>
</g>
<g>
	<g>
		<path d="M369.599,298.502c-0.044,0.031-0.088,0.062-0.132,0.093c-2.055,1.438-2.836,3.426-2.388,5.869
			c0.014,0.074,0.027,0.148,0.04,0.222c0.388,2.114,2.858,3.868,4.957,3.774c2.312-0.104,4.275-1.532,4.958-3.774
			c0.167-0.551,0.229-1.192,0.262-1.767C377.513,299.211,372.722,296.316,369.599,298.502z"/>
	</g>
</g>
<g>
	<g>
		<path d="M374.127,320.479l-0.236-0.114c-1.87-0.907-4.007-0.642-5.325,1.064c-1.306,1.69-1.045,3.85,0.323,5.42l0.172,0.197
			c1.657,1.902,4.815,1.421,6.239-0.423C376.719,324.786,376.41,321.586,374.127,320.479z"/>
	</g>
</g>
<g>
	<g>
		<path d="M197.968,146.892c-23.549-0.159-47.186,0.394-70.781,0.403c-12.4,0.005-24.798,0.084-37.197,0.232
			c-11.165,0.133-22.342-1.057-33.437-0.91c0.002,0.017,0.005,0.033,0.007,0.05c-1.778,0.08-2.929,2.768-0.996,3.6
			c20.912,9.007,47.397,4.736,69.697,4.8c24.393,0.071,49.456,2.392,73.57-1.799C202.509,152.629,201.534,146.916,197.968,146.892z"
			/>
	</g>
</g>
<g>
	<g>
		<path d="M197.968,174.796c-23.549-0.159-47.186,0.394-70.781,0.403c-12.4,0.005-24.798,0.084-37.197,0.231
			c-11.165,0.133-22.342-1.057-33.437-0.91c0.002,0.017,0.005,0.034,0.007,0.051c-1.778,0.081-2.929,2.769-0.996,3.601
			c20.912,9.007,47.397,4.736,69.697,4.8c24.393,0.071,49.456,2.392,73.57-1.8C202.509,180.533,201.534,174.82,197.968,174.796z"/>
	</g>
</g>
<g>
	<g>
		<path d="M197.968,202.702c-23.549-0.159-47.186,0.394-70.781,0.403c-12.4,0.005-24.798,0.084-37.197,0.232
			c-11.165,0.133-22.342-1.057-33.437-0.91c0.002,0.017,0.005,0.034,0.007,0.05c-1.778,0.08-2.929,2.768-0.996,3.6
			c20.912,9.007,47.397,4.736,69.697,4.8c24.393,0.071,49.456,2.392,73.57-1.799C202.509,208.439,201.534,202.726,197.968,202.702z"
			/>
	</g>
</g>
<g>
	<g>
		<path d="M197.968,230.606c-23.549-0.159-47.186,0.393-70.781,0.403c-12.4,0.005-24.798,0.084-37.197,0.231
			c-11.165,0.133-22.342-1.057-33.437-0.91c0.002,0.017,0.005,0.033,0.007,0.051c-1.778,0.081-2.929,2.769-0.996,3.601
			c20.912,9.007,47.397,4.736,69.697,4.8c24.393,0.071,49.456,2.392,73.57-1.8C202.509,236.343,201.534,230.63,197.968,230.606z"/>
	</g>
</g>
<g>
	<g>
		<path d="M197.968,258.512c-23.549-0.159-47.186,0.394-70.781,0.403c-12.4,0.005-24.798,0.084-37.197,0.232
			c-11.165,0.133-22.342-1.057-33.437-0.91c0.002,0.017,0.005,0.034,0.007,0.05c-1.778,0.08-2.929,2.768-0.996,3.6
			c20.912,9.007,47.397,4.736,69.697,4.8c24.393,0.071,49.456,2.392,73.57-1.799C202.509,264.249,201.534,258.536,197.968,258.512z"
			/>
	</g>
</g>
<g>
	<g>
		<path d="M197.968,286.416c-23.549-0.159-47.186,0.393-70.781,0.403c-12.4,0.005-24.798,0.084-37.197,0.232
			c-11.165,0.133-22.342-1.057-33.437-0.91c0.002,0.017,0.005,0.034,0.007,0.051c-1.778,0.08-2.929,2.768-0.996,3.6
			c20.912,9.007,47.397,4.736,69.697,4.8c24.393,0.071,49.456,2.392,73.57-1.8C202.509,292.153,201.534,286.44,197.968,286.416z"/>
	</g>
</g>
<g>
	<g>
		<path d="M197.968,314.322c-23.549-0.159-47.186,0.394-70.781,0.403c-12.4,0.005-24.798,0.084-37.197,0.232
			c-11.165,0.133-22.342-1.057-33.437-0.91c0.002,0.017,0.005,0.034,0.007,0.05c-1.778,0.08-2.929,2.768-0.996,3.6
			c20.912,9.007,47.397,4.736,69.697,4.8c24.393,0.071,49.456,2.392,73.57-1.799C202.509,320.059,201.534,314.346,197.968,314.322z"
			/>
	</g>
</g>
<g>
	<g>
		<path d="M307.731,142.222c-3.1-13.826-9.1-14.674-22.852-15.28c-9.412-0.414-18.439,0.206-27.48,1.361
			c-8.613,0.146-19.555-0.612-21.572,10.161c-1.465,7.829-1.804,15.952-1.399,23.892c0.228,4.496-0.398,13.078,2.871,16.989
			c2.434,2.911,6.919,2.782,10.365,3.208c7.577,0.937,15.196,1.417,22.82,1.834c9.239,0.505,27.082,3.959,33.997-3.877
			C312.553,171.363,310.138,152.958,307.731,142.222z M296.701,175.201c-7.557,4.814-20.727,2.438-29.543,1.885
			c-4.028-0.253-8.077-0.385-12.099-0.711c-6.427-0.521-11.366,0.276-13.133-6.871c-1.732-7.006-2.791-29.671,3.5-33.429
			c3.075-1.836,10.924-0.826,14.587-1.1c4.944-0.37,9.894-0.847,14.843-1.132c5.327-0.307,10.669,0.012,16.004,0.118
			c4.517,1.256,7.93,3.495,9.383,7.268C303.736,150.296,305.537,169.572,296.701,175.201z"/>
	</g>
</g>
<g>
</g>
<g>
</g>
<g>
</g>
<g>
</g>
<g>
</g>
<g>
</g>
<g>
</g>
<g>
</g>
<g>
</g>
<g>
</g>
<g>
</g>
<g>
</g>
<g>
</g>
<g>
</g>
<g>
</g>
</svg>
