<?xml version="1.0" encoding="iso-8859-1"?>
<!-- Generator: Adobe Illustrator 19.0.0, SVG Export Plug-In . SVG Version: 6.00 Build 0)  -->
<svg version="1.1" id="Capa_1" xmlns="http://www.w3.org/2000/svg" xmlns:xlink="http://www.w3.org/1999/xlink" x="0px" y="0px"
	 viewBox="0 0 512 512" style="enable-background:new 0 0 512 512;" xml:space="preserve">
<g>
	<g>
		<path d="M503.417,145.974c-1.999-18.038-4.741-36.07-7.686-53.975c-0.665-4.044-1.23-8.445-1.904-12.909
			c0.026-1.681-0.051-3.415-0.259-5.215c-0.866-7.506-3.412-14.189-7.129-20.165c-0.13-0.227-0.229-0.48-0.365-0.703
			c-0.108-0.179-0.246-0.298-0.373-0.44c-11.66-17.74-33.745-29.066-52.817-36.786C399.042,2.083,358.691,0.385,322.665,0.06
			c-35.375-0.319-70.999,0.543-106.231,4.528c-11.38,0.461-23.043,2.497-33.253,3.561c-12.794,1.333-32.311-0.761-42.318,9.157
			c-12.795-1.032-41.102-1.657-46.629,11.303c-3.497,8.199,4.478,12.223,13.891,14.477c-12.874,3.125-25.587,8.496-21.713,18.101
			c2.278,5.647,11.362,7.687,17.751,8.603c-6.736,2.412-17.162,5.364-19.148,13.286c-2.491,9.937,6.262,13.899,17.174,15.277
			c-1.762,0.675-3.509,1.356-5.22,2.042c-5.764,2.307-15.795,5.796-17.912,12.454c-2.947,9.268,7.883,13.303,20.837,14.716
			c-6.529,1.997-13.458,4.459-17.271,10.239c-5.692,8.63,0.459,14.791,8.804,18.574c-20.055,8.859-39.487,19.756-55.668,34.269
			c-7.576,6.794-14.122,15.723-16.523,24.773c-3.178,5.427-5.777,11.104-7.653,16.808c-11.224,34.113-8.497,72.55-8.223,108.017
			c0.263,34.022,2.165,70.37,11.734,103.128c4.396,15.051,10.846,26.745,20.474,38.942c8.972,11.367,23.869,18.462,37.433,23.155
			c35.632,12.328,77.093,3.804,113.7,1.696c39.141-2.254,78.579-2.755,117.358-9.027c22.928-3.708,47.704-8.031,66.67-21.025
			c14.302-1.525,28.58-4.539,42.414-8.138c10.438-2.717,27.586-6.843,34.628-15.811c7.408-9.434-2.773-17.554-11.711-19.694
			c-1.128-0.27-2.251-0.477-3.372-0.653c5.934-2.531,14.27-7.384,11.968-15.198c-2.015-6.837-10.896-9.943-18.374-11.525
			c9.93-3.622,17.835-8.811,16.888-16.745c-0.421-3.522-2.614-6.043-5.444-7.877c21.154-5.44,40.456-22.069,51.562-39.292
			c17.724-27.485,15.793-61.267,18.672-92.534C511.139,215.156,507.214,180.244,503.417,145.974z M361.747,15.37
			c33.697,4.075,69.431,11.148,97.389,31.444c12.148,8.818,26.472,26.953,16.068,42.256c-8.65,12.724-28.699,16.735-42.498,19.678
			c-53.837,11.478-108.93,9.264-163.696,11.058c-2.756-3.619-5.429-7.357-8.151-10.912c-6.473-8.457-5.073-15.168,0.461-22.81
			c8.631-11.922,19.681-22.493,26.597-35.569c4.632-8.758,3.867-13.916-2.604-21.426c-4.322-5.017-9.111-9.524-13.821-14.162
			c-0.928-0.914-1.828-1.929-2.729-2.974C299.61,11.137,331.333,11.692,361.747,15.37z M256.193,12.357
			c1.644-0.063,3.307-0.104,4.958-0.16c1.644,2.699,3.215,5.507,5.22,7.851c4.186,4.895,9.514,9.561,12.927,15.055
			c8.359,13.458-16.114,32.821-23.704,43.021c-6.205,8.338-12.172,16.657-7.686,27.452c2.28,5.486,6.678,9.99,10.312,14.633
			c-8.069,0.354-16.128,0.815-24.173,1.451c-1.721-2.927-3.118-6.605-4.141-8.437c-3.895-6.973-11.313-13.233-8.752-22.153
			c1.637-5.7,10.868-13.819,14.388-18.587c3.752-5.082,7.315-10.426,10.7-15.765c5.13-8.092,7.671-14.379,1.152-22.48
			c-6.497-8.073-15.156-15.433-24.394-20.626C234.058,13.072,245.127,12.778,256.193,12.357z M191.564,17.236
			c8.304-1.223,16.902-1.964,25.421-3.079c0.884,1.491,2.291,2.5,3.974,4.095c5.991,5.681,12.015,11.406,17.406,17.673
			c7.723,8.975,0.577,15.816-4.857,23.639c-5.218,7.51-11.03,14.491-16.549,21.791c-6.703,8.867-8.838,15.86-2.446,25.549
			c3.438,5.212,6.577,10.314,9.67,15.631c-2.977,0.29-5.953,0.597-8.925,0.944c-7.693,0.897-15.339,1.975-22.943,3.225
			c-3.247-6.922-9.027-29.141-9.362-33.206c-1.246-15.129,9.915-22.65,14.998-35.534c2.924-7.41,2.456-15.015-2.873-21.182
			c-3.642-4.215-8.691-6.701-13.35-9.556c-2.56-1.568-7.747-4.115-11.162-6.864C177.582,19.484,184.584,18.263,191.564,17.236z
			 M145.238,39.482c0.459-3.705,0.6-9.7,2.666-12.927c3.685-5.756,10.004-4.972,15.81-5.464c0.205-0.017,0.41-0.047,0.615-0.065
			c3.245,8.054,17.789,12.86,22.632,18.766c12.231,14.913-13.034,32.123-13.584,47.873c-0.455,13.036,4.247,28.409,9.861,40.616
			c-11.132,2.056-22.166,4.514-33.091,7.431c-0.38-11.114-2.973-22.501-3.753-33.479C144.939,81.775,142.706,59.906,145.238,39.482z
			 M107.968,34.559c-3.323-2.025-4.675-2.662-2.216-5.386c2.887-3.198,12.337-3.293,16.435-3.942
			c4.907-0.777,9.817-1.516,14.727-2.262c-0.203,0.435-0.443,0.826-0.622,1.288c-1.841,4.748-2.68,10.156-3.136,15.554
			c-0.367-0.297-0.783-0.542-1.279-0.675c-5.426-1.454-10.89-0.872-16.382-2.138C113.191,36.469,110,35.799,107.968,34.559z
			 M98.395,57.814c-0.605-7.819,27.036-9.955,33.481-11.175c0.335-0.064,0.598-0.209,0.87-0.342
			c-0.086,1.938-0.155,3.846-0.229,5.674c-0.134,3.362-0.261,6.749-0.368,10.143c-3.776-0.104-7.473,0.531-11.111,1.551
			C110.932,63.747,98.733,62.195,98.395,57.814z M95.013,87.966c-1.08-7.133,14.336-13.513,26.237-16.412
			c3.655,0.154,7.297,0.031,10.695-0.671c-0.078,6.307,0.009,12.611,0.422,18.833c0.012,0.181,0.019,0.363,0.031,0.544
			c-4.574,0.414-9.098,1.272-13.675,1.619C116.175,92.072,95.623,91.994,95.013,87.966z M92.355,117.541
			c-8.083-3.273-4.17-3.739,0.229-6.243c11.02-6.272,27.773-11.801,40.241-13.164c0.3,6.557,0.494,13.13,0.772,19.692
			c0.004,0.105,0.014,0.211,0.019,0.316c-0.427-0.023-0.874,0-1.358,0.124c-7.966,2.44-18.024,1.947-26.269,1.582
			C101.372,119.643,96.717,119.305,92.355,117.541z M96.822,137.614c2.804-1.885,7.864-2.65,11.04-3.638
			c8.81-2.743,17.563-5.224,26.464-7.667c0.502,4.592,1.03,9.204,0.861,13.737c-7.384,2.282-14.725,4.746-22.004,7.486
			c-3.589,1.351-7.188,2.753-10.782,4.205c-4.292-0.788-8.687-2.197-10.15-4.777C90.491,143.856,94.637,139.083,96.822,137.614z
			 M181.939,490.313c-39.273,2.46-82.996,11.662-119.251-8.019c-33.272-18.062-37.632-60.702-40.895-94.771
			c-3.434-35.85-4.406-73.501-1.657-109.346c0.974-12.706,2.462-26.118,5.631-38.861c1.568,1.48,3.404,2.894,5.539,4.223
			c12.356,7.697,28.266,9.909,42.356,12.216c17.593,2.88,35.216,4.533,53.057,4.528c24.717-0.007,49.316-1.988,73.871-4.503
			c-4.028,6.856-7.066,14.417-10.378,21.515c-4.757,10.196-12.481,21.077-12.602,32.767c-0.105,10.175,7.529,18.579,14.582,25.135
			c4.97,4.619,10.031,8.637,14.58,13.738c6.494,7.282,10.095,12.217,5.862,22.15c-8.953,21.011-30.762,40.17-25.061,64.962
			c4.485,19.506,17.573,36.278,29.611,52.451C205.418,489.048,193.658,489.579,181.939,490.313z M228.531,487.95
			c-2.041-2.912-4.794-5.577-6.883-8.335c-7.994-10.554-15.576-22.509-21.307-34.457c-14.107-29.407,14.008-51.218,24.402-76.357
			c3.107-7.516,0.709-12.875-4.484-18.574c-7.872-8.639-16.827-15.683-25.077-23.806c-7.284-7.172-10.669-14.454-8.203-24.792
			c1.742-7.299,6.125-14.081,8.932-21.004c3.403-8.394,7.373-16.841,10.544-25.447c8.277-0.875,16.55-1.794,24.821-2.712
			c6.786-0.752,13.561-1.6,20.335-2.46c-4.235,10.421-9.986,20.352-13.944,30.865c-3.513,9.331-9.912,22.526-4.851,32.328
			c4.731,9.162,17.421,15.988,25.168,22.392c3.8,3.142,10.792,6.324,12.374,11.097c2.357,7.105-3.897,15.106-6.985,21.061
			c-10.061,19.404-33.686,45.863-24.353,69.099c4.272,10.636,12.366,16.949,19.851,25.251c4.422,4.903,8.64,9.624,10.931,15.82
			c0.349,0.943,1.25,4.297,2.031,7.026C257.448,486.369,242.992,487.228,228.531,487.95z M292.702,482.471
			c-3.526,0.512-7.063,0.939-10.6,1.362c-1.98-9.467-10.149-20.613-14.089-25.151c-11.651-13.415-27.663-23.892-19.586-44.035
			c5.966-14.876,15.304-28.208,22.639-42.4c4.022-7.782,10.914-17.74,8.351-27.113c-2.474-9.044-14.071-14.978-20.631-20.351
			c-4.77-3.906-11.031-7.373-15.19-11.958c-7.794-8.593-1.24-22.427,2.106-32.081c3.389-9.78,10.115-20.749,11.661-31.463
			c7.903-1.007,15.806-2.014,23.725-2.902c7.297-0.818,14.745-1.896,22.238-2.812c-4.029,6.18-7.401,12.715-10.904,19.315
			c-4.773,8.99-9.768,19.691-8.853,30.107c0.818,9.315,6.381,16.61,12.166,23.577c5.162,6.218,10.632,11.498,15.212,18.299
			c2.405,3.571,5.655,7.94,5.594,12.405c-0.058,4.238-4.165,9.887-6.42,13.316c-11.089,16.859-29.28,36.363-24.098,58.404
			c2.592,11.027,10.094,21.641,16.572,30.736c3.804,5.339,7.534,10.577,10.13,16.63c2.052,4.785,1.634,8.016,1.961,12.777
			C306.907,480.495,299.379,481.503,292.702,482.471z M380.832,434.881c-5.425,25.989-30.382,36.609-55.518,42.169
			c0.208-14.984-14.313-30.465-21.013-41.682c-8.013-13.414-12.128-23.818-5.96-39.06c4.885-12.072,13.902-21.854,20.75-32.796
			c4.8-7.669,8.233-14.902,4.831-23.877c-3.828-10.098-12.518-18.424-19.66-26.193c-11.852-12.892-14.647-23.824-8.254-40.649
			c3.69-9.711,7.648-20.469,12.728-29.846c10.626-1.15,21.291-1.774,31.695-0.663c7.534,0.804,15.254,2.616,20.354,8.709
			c5.473,6.541,7.428,17.788,9.649,25.887c5.034,18.364,6.745,37.268,7.895,56.22c0.97,15.986,0.563,31.952,1.679,47.958
			C381.218,398.422,384.439,417.602,380.832,434.881z M395.229,343.484c-0.162-7.709-0.621-15.433-1.287-23.138
			c11.024-0.507,22.167-2.154,33.08-0.127c6.897,1.282,19.735,5.241,7.991,12.476C423.297,339.912,408.354,339.864,395.229,343.484z
			 M430.852,365.302c-2.195,3.319-15.808,6.175-19.308,7.416c-4.927,1.748-10.171,2.941-15.163,4.508
			c-0.537-7.756-0.95-15.519-1.042-23.309c4.13-0.665,8.259-1.355,12.475-1.506C412.667,352.237,438.996,352.986,430.852,365.302z
			 M412.2,305.771c-6.211,1.824-12.705,4.187-19.135,5.573c-0.59-5.468-1.268-10.921-2.034-16.345
			c-0.301-2.126-0.63-4.321-0.986-6.554c14.814-1.124,41.976-2.114,39.889,7.745C428.675,302.141,417.369,304.254,412.2,305.771z
			 M405.332,274.449c-5.704,1.767-11.342,3.047-17.029,4.317c-1.125-5.654-2.496-11.362-4.24-16.857
			c13.059-0.207,44.017,0.001,42.653,3.835C425.547,269.032,407.803,273.684,405.332,274.449z M398.091,246.869
			c-5.846,1.91-11.738,3.657-17.589,5.536c-1.126-2.588-2.322-5.106-3.686-7.437c-1.549-2.649-3.328-4.96-5.283-7.001
			c9.753-1.709,19.503-3.929,29.394-2.676c4.602,0.583,11.942,1.661,8.025,7.413C407.456,244.9,401.099,245.887,398.091,246.869z
			 M433.88,441.382c5.624,5.78,5.867,9.361,0.73,10.745c-2.785,3.216-10.103,4.628-14.232,5.976
			c-12.165,3.975-24.757,6.018-37.302,8.25c3.228-3.585,6.149-7.594,8.674-12.132c1.607-2.887,2.858-5.902,3.852-8.996
			c9.489-1.759,18.221-4.528,28.161-4.446C427.149,440.702,430.522,440.903,433.88,441.382z M431.913,424.131
			c-3.445,3.102-12.294,4.452-16.515,5.791c-5.764,1.83-11.73,3.416-17.498,5.389c1.11-7.321,1.153-14.875,0.871-22.238
			c2.02-0.443,4.328-0.919,6.808-1.447c3.929,0.3,7.908,1.085,10.268,1.38C420.612,413.603,441.197,415.768,431.913,424.131z
			 M433.183,390.916c-1.393,6.194-16.332,8.556-22.123,10.279c-2.622,0.78-5.276,1.4-7.933,1.998
			c-1.652,0.015-3.285,0.115-4.859,0.357c-0.346-5.524-0.759-11.04-1.177-16.554C408.152,386.168,435.088,382.449,433.183,390.916z
			 M493.212,228.893c-0.251,15.69-2.396,31.236-3.328,46.887c-0.837,14.048-1.56,27.722-6.205,41.146
			c-4.973,14.372-14.199,28.121-26.312,37.457c-4.869,3.753-10.375,7.728-16.119,11.452c0.645-1.484,0.984-3.152,0.892-5.046
			c-0.439-9.001-6.865-13.344-15.285-15.234c12.751-3.652,23.501-9.291,22.727-19.914c-0.733-10.054-12.871-13.478-26.136-14.396
			c0.961-0.386,1.927-0.77,2.858-1.162c6.242-2.627,15.022-6.853,14.268-15.031c-0.952-10.32-10.953-14.432-22.671-15.78
			c1.844-0.686,3.684-1.405,5.518-2.183c5.086-2.16,15.242-5.939,15.105-12.979c-0.13-6.674-8.899-8.397-13.884-9.33
			c-5.127-0.959-10.247-1.529-15.369-1.863c9.038-4.042,15.583-9.526,11.541-16.895c-9.128-16.642-38.088-8.296-56.343-3.787
			c-21.519-13.407-56.079-5.478-78.759-2.846c-38.017,4.411-76.025,10.559-114.22,13.237c-39.664,2.78-82.159,4.448-120.578-7.723
			c-7.432-2.354-18.906-6.554-16.368-16.247c1.715-6.55,7.938-12.077,12.82-16.409c12.908-11.449,28.773-20.105,44.268-27.513
			c35.268-16.861,73.344-26.668,111.881-32.369c78.773-11.653,160.2,0.783,237.957-18.775c14.398-3.621,31.112-9.674,41.712-20.243
			c1.377,11.077,3.011,22.115,4.274,32.999C490.993,166.844,493.703,198.174,493.212,228.893z"/>
	</g>
</g>
<g>
</g>
<g>
</g>
<g>
</g>
<g>
</g>
<g>
</g>
<g>
</g>
<g>
</g>
<g>
</g>
<g>
</g>
<g>
</g>
<g>
</g>
<g>
</g>
<g>
</g>
<g>
</g>
<g>
</g>
</svg>
