<?xml version="1.0" encoding="iso-8859-1"?>
<!-- Generator: Adobe Illustrator 19.0.0, SVG Export Plug-In . SVG Version: 6.00 Build 0)  -->
<svg version="1.1" id="Capa_1" xmlns="http://www.w3.org/2000/svg" xmlns:xlink="http://www.w3.org/1999/xlink" x="0px" y="0px"
	 viewBox="0 0 512.001 512.001" style="enable-background:new 0 0 512.001 512.001;" xml:space="preserve">
<g>
	<g>
		<path d="M481.974,87.869c-8.177-9.703-22.097-15.617-34.3-18.095c-17.623-3.578-36.042-5.853-53.927-7.751
			c-22.688-2.408-45.437-3.376-68.217-3.597c1.454-16.621-1.855-36.26-15.469-45.383c-10.802-7.238-24.646-8.702-37.218-10.474
			c-13.366-1.885-26.838-2.408-40.321-2.558c-12.402-0.138-24.779,1.099-37.109,2.384c-9.258,0.964-19.881,2.761-27.041,9.339
			c-7.026,6.453-9.381,15.951-8.706,25.129c0.546,7.418,1.299,16.286,3.519,24.042c-10.413,0.072-20.823,0.097-31.224-0.05
			c-15.764-0.224-30.99,0.157-46.715,0.666c-13.709,0.443-28.177,2.521-39.997,10.133c-25.619,16.5-23.33,44.767-24.951,71.43
			c-1.991,32.707,0.977,65.802,0.967,98.595c-0.009,33.186-0.943,66.297-0.79,99.484c0.147,31.939-1.031,64.116,3.277,95.929
			c3.307,24.426,24.229,34.958,46.345,39.27c-0.29,2.917-0.524,5.84-0.813,8.797c-0.438,4.486-1.585,9.025-0.193,13.47
			c3.174,10.132,13.639,11.093,22.706,11.891c8.84,0.778,21.073,2.006,26.517-6.761c3.418-5.503,3.235-14.584,1.235-21.979
			c18.397,1.443,36.834,2.579,55.166,4.134c65.615,5.566,131.62,5.282,197.285,0.906c0.021-0.001,0.043-0.002,0.063-0.004
			c-1.636,6.802-2.111,14.039,3.419,19.077c7.509,6.841,20.907,6.182,30.35,6.009c8.647-0.158,15.867-2.281,19.364-10.908
			c2.146-5.294,2.598-13.123,0.48-19.301c11.081-2.644,21.396-7.013,29.726-14.582c21.29-19.341,27.21-53.429,27.942-80.893
			c1.771-66.485,7.216-132.692,7.248-199.216c0.009-18.739,1.872-37.415,1.797-56.095C492.33,116.452,491.735,99.452,481.974,87.869
			z M180.799,21.954c6.742-4.955,16.684-4.896,24.64-5.7c9.066-0.916,17.956-1.646,27.083-1.556
			c19.353,0.189,39.544,0.81,58.367,5.795c12.996,3.441,17.974,10.666,19.299,24.047c0.457,4.614,0.278,9.235,0.311,13.835
			c-5.306,0.019-10.615,0.098-15.924,0.177c-2.463-6.502-0.49-14.113-4.182-20.487c-2.41-4.158-6.055-6.255-10.416-8.035
			c-15.8-6.45-30.298-6.938-47.088-5.863c-11.218,0.719-26.05,0.089-35.063,8.079c-6.435,5.705-7.872,18.678-6.568,28.364
			c-5.122,0.066-10.243,0.135-15.365,0.193c0.662-3.668,0.708-7.449,0.479-11.389C175.844,40.345,171.849,28.532,180.799,21.954z
			 M283.009,58.749c-19.073,0.394-38.155,1.012-57.232,1.508c-8.315,0.04-16.633,0.129-24.953,0.232
			c1.555-9.143,2.234-20.493,10.841-22.853c9.868-2.706,20.884-3.03,31.048-3.525c10.928-0.532,23.904,0.663,33.737,6.09
			C283.789,44.252,282.19,51.653,283.009,58.749z M105.418,500.027c-3.399,1.588-8.705,0.5-12.307,0.287
			c-4.426-0.261-11.504,0.581-14.501-3.65c-1.74-2.457-0.611-6.524-0.7-9.239c-0.102-3.123-0.12-6.518-0.408-9.849
			c0.431,0.059,0.862,0.132,1.292,0.187c9.488,1.205,19.02,2.16,28.568,3.001c-0.021,2.144,0.494,4.45,0.956,6.957
			C109.11,492.025,111.222,497.316,105.418,500.027z M415.154,496.759c-1.364,4.662-5.241,4.467-9.322,4.742
			c-6.068,0.41-15.37,0.751-21.028-1.417c-5.687-2.18-5.014-8.21-4.579-13.72c10.962-0.528,22.712-0.923,34.112-2.549
			c0.228,1.167,0.505,2.409,0.698,3.845C415.398,490.366,415.923,494.129,415.154,496.759z M474.751,149.754
			c-2.528,29.412,0.484,59.087-0.897,88.543c-0.661,14.116-2.471,28.17-3.022,42.294c-0.623,15.996-0.198,32.053-1.273,48.035
			c-2.024,30.089-0.165,61.509-7.576,90.848c-3.466,13.725-7.196,26.374-18.046,36.171c-12.318,11.122-32.197,12.209-47.953,13.406
			c-57.725,4.383-115.748,7.003-173.633,4.229c-30.39-1.456-60.818-3.462-91.125-6.356c-14.169-1.353-28.328-2.709-42.519-3.823
			c-13.308-1.044-30.868-3.685-41.786-12.197c-11.434-8.913-8.619-28.168-9.438-41.026c-1.008-15.852-2.492-31.391-1.667-47.258
			c1.479-28.486,0.85-57.63,0.913-86.156c0.07-30.999-0.078-61.97-0.796-92.94c-0.315-13.595-1.133-26.835-0.26-40.44
			c0.925-14.418-1.317-29.698,5.203-43.162C48.48,84.22,65.124,77.845,81.742,77.15c15.523-0.649,30.513-1.356,46.06-0.931
			c35.473,0.972,71.226-0.874,106.729-0.9c34.267-0.024,68.377,0.838,102.616,1.892c22.34,0.688,44.853,2.156,67.31,2.382
			c11.861,1.441,23.706,3.023,35.46,5.221c11.348,2.122,26.404,6.765,32.005,17.931
			C478.606,116.068,475.984,135.413,474.751,149.754z"/>
	</g>
</g>
<g>
	<g>
		<path d="M447.898,206.619c-0.434-11.965,1.387-26.293-4.259-37.382c-11.342-22.275-41.935-19.194-62.548-19.363
			c-43.575-0.357-87.099,0.893-130.625,0.893c-45.707-1.011-91.37-2.326-137.117-2.484c-9.387-0.033-20.969-0.249-29.417,4.696
			c-7.098,4.155-10.391,12.608-13.224,19.892c-9.366,24.09-9.697,47.021-10.001,72.471c-0.311,25.995-2.424,51.831-1.715,77.867
			c0.653,23.977-2.994,49.253,0.316,73.035c2.759,19.826,20.395,30.92,38.323,36.025c22.62,6.441,46.469,8.47,69.862,10.311
			c51.316,4.04,102.418,4.86,153.826,6.643c13.503,0.468,26.918-0.15,40.399-0.984c11.553-0.715,24.083-1.266,34.966-5.595
			c18.497-7.357,29.868-25.276,34.911-43.717c6.338-23.182,8.538-45.99,10.263-69.972c1.883-26.187,4.376-52.467,5.501-78.686
			C447.985,235.688,448.429,221.212,447.898,206.619z M433.428,227.065c-0.917,44.609-4.734,89.764-8.877,134.195
			c-1.889,20.258-6.403,46.209-22.105,60.622c-16.629,15.264-46.853,13.174-68.06,13.4c-44.277,0.471-89.437-0.607-133.573-4.068
			c-22.25-1.745-44.448-3.721-66.672-5.643c-19.249-1.665-55.037-4.565-61.863-27.179c-2.974-9.855-1.472-22.087-1.433-32.264
			c0.043-11.223,0.937-22.253,0.421-33.501c-1.045-22.783-0.9-45.534,0.185-68.308c1.106-23.203-1.391-46.335,4.037-69.159
			c2.049-8.616,5.625-17.658,10.947-24.848c7.75-10.469,22.227-8.096,34.028-8.151c98.193-0.463,196.252,5.728,294.461,4.51
			c13.759-0.171,17.439,12.506,17.8,24.189C433.095,202.903,433.676,215.016,433.428,227.065z"/>
	</g>
</g>
<g>
	<g>
		<path d="M405.916,194.528c-2.05-8.726-12.836-11.864-20.368-13.307c-30.69-5.88-62.143-4.398-93.188-5.522
			c-25.041-0.907-50.106-1.048-75.16-0.739c-24.01,0.297-48.14-0.915-72.116,0.157c-12.542,0.56-29.594,0.334-41.236,6.017
			c-5.393,2.632-12.102,9.121-8.753,15.724c3.678,7.252,16.77,6.603,23.335,7.291c65.343,6.844,131.184,8.108,196.84,8.223
			c14.159,0.025,28.284,0.044,42.443,0.097c11.787,0.044,28.577,2.903,39.65-2.418C402.859,207.41,407.402,200.855,405.916,194.528z
			 M388.9,203.73c-8.731,3.459-24.028,0.772-33.243,0.779c-12.829,0.009-25.637,0.051-38.465,0.1
			c-52.519,0.2-104.908-1.419-157.387-3.898c-12.545-0.592-24.812-2.258-37.278-3.623c-2.726-0.298-5.472-0.413-8.196-0.716
			c-7.651-0.851-10.401,0.825-7.014-5.286c3.687-6.652,15.662-6.22,22.497-6.96c26.404-2.858,52.657-0.775,79.091,0.022
			c29.326,0.883,58.792,2.791,88.129,2.838c26.36,0.042,52.618,1.858,78.948,1.272c3.724,0.46,7.46,1.07,10.885,2.072
			c1.436,0.419,5.417,1.378,6.302,2.718C395.506,196.583,392.742,202.208,388.9,203.73z"/>
	</g>
</g>
<g>
	<g>
		<path d="M405.916,247.011c-2.05-8.726-12.836-11.864-20.368-13.307c-30.69-5.88-62.143-4.398-93.188-5.522
			c-25.041-0.907-50.106-1.048-75.16-0.739c-24.01,0.296-48.14-0.915-72.116,0.157c-12.542,0.56-29.594,0.334-41.236,6.017
			c-5.393,2.632-12.102,9.121-8.753,15.724c3.678,7.252,16.77,6.603,23.335,7.291c65.343,6.844,131.184,8.108,196.84,8.223
			c14.159,0.025,28.284,0.044,42.443,0.097c11.787,0.044,28.577,2.903,39.65-2.418C402.859,259.893,407.402,253.338,405.916,247.011
			z M388.9,256.214c-8.731,3.459-24.028,0.772-33.243,0.779c-12.829,0.009-25.637,0.051-38.465,0.1
			c-52.519,0.2-104.908-1.419-157.387-3.898c-12.545-0.592-24.812-2.258-37.278-3.623c-2.726-0.298-5.472-0.413-8.196-0.716
			c-7.651-0.85-10.401,0.825-7.014-5.286c3.687-6.652,15.662-6.22,22.497-6.96c26.404-2.858,52.657-0.775,79.091,0.022
			c29.326,0.883,58.792,2.791,88.129,2.838c26.36,0.042,52.618,1.858,78.948,1.272c3.724,0.46,7.46,1.07,10.885,2.072
			c1.436,0.419,5.417,1.378,6.302,2.718C395.506,249.067,392.742,254.691,388.9,256.214z"/>
	</g>
</g>
<g>
	<g>
		<path d="M405.916,299.493c-2.05-8.726-12.836-11.863-20.368-13.307c-30.69-5.879-62.143-4.398-93.188-5.522
			c-25.041-0.907-50.106-1.048-75.16-0.739c-24.01,0.296-48.14-0.915-72.116,0.157c-12.542,0.56-29.594,0.334-41.236,6.017
			c-5.393,2.632-12.102,9.121-8.753,15.724c3.678,7.252,16.77,6.603,23.335,7.291c65.343,6.844,131.184,8.108,196.84,8.223
			c14.159,0.025,28.284,0.044,42.443,0.097c11.787,0.044,28.577,2.903,39.65-2.418C402.859,312.376,407.402,305.821,405.916,299.493
			z M388.9,308.697c-8.731,3.459-24.028,0.772-33.243,0.779c-12.829,0.009-25.637,0.051-38.465,0.099
			c-52.519,0.2-104.908-1.419-157.387-3.898c-12.545-0.592-24.812-2.258-37.278-3.623c-2.726-0.298-5.472-0.413-8.196-0.716
			c-7.651-0.85-10.401,0.825-7.014-5.286c3.687-6.652,15.662-6.22,22.497-6.961c26.404-2.858,52.657-0.775,79.091,0.022
			c29.326,0.883,58.792,2.791,88.129,2.838c26.36,0.042,52.618,1.858,78.948,1.272c3.724,0.46,7.46,1.07,10.885,2.072
			c1.436,0.419,5.417,1.378,6.302,2.718C395.506,301.55,392.742,307.175,388.9,308.697z"/>
	</g>
</g>
<g>
	<g>
		<path d="M405.916,351.978c-2.05-8.726-12.836-11.864-20.368-13.307c-30.69-5.88-62.143-4.398-93.188-5.522
			c-25.041-0.907-50.106-1.048-75.16-0.739c-24.01,0.297-48.14-0.915-72.116,0.157c-12.542,0.56-29.594,0.334-41.236,6.017
			c-5.393,2.632-12.102,9.121-8.753,15.724c3.678,7.252,16.77,6.603,23.335,7.291c65.343,6.844,131.184,8.108,196.84,8.223
			c14.159,0.025,28.284,0.044,42.443,0.097c11.787,0.044,28.577,2.903,39.65-2.418C402.859,364.86,407.402,358.305,405.916,351.978z
			 M388.9,361.18c-8.731,3.459-24.028,0.772-33.243,0.779c-12.829,0.009-25.637,0.051-38.465,0.099
			c-52.519,0.2-104.908-1.419-157.387-3.898c-12.545-0.592-24.812-2.258-37.278-3.623c-2.726-0.298-5.472-0.413-8.196-0.716
			c-7.651-0.85-10.401,0.825-7.014-5.286c3.687-6.652,15.662-6.22,22.497-6.961c26.404-2.858,52.657-0.775,79.091,0.022
			c29.326,0.883,58.792,2.791,88.129,2.838c26.36,0.043,52.618,1.858,78.948,1.272c3.724,0.46,7.46,1.07,10.885,2.072
			c1.436,0.419,5.417,1.378,6.302,2.718C395.506,354.033,392.742,359.658,388.9,361.18z"/>
	</g>
</g>
<g>
	<g>
		<path d="M405.916,404.461c-2.05-8.726-12.836-11.864-20.368-13.307c-30.69-5.88-62.143-4.398-93.188-5.522
			c-25.041-0.907-50.106-1.048-75.16-0.739c-24.01,0.297-48.14-0.915-72.116,0.157c-12.542,0.56-29.594,0.334-41.236,6.017
			c-5.393,2.632-12.102,9.121-8.753,15.724c3.678,7.252,16.77,6.603,23.335,7.291c65.343,6.844,131.184,8.107,196.84,8.223
			c14.159,0.025,28.284,0.044,42.443,0.097c11.787,0.044,28.577,2.903,39.65-2.418C402.859,417.343,407.402,410.788,405.916,404.461
			z M388.9,413.664c-8.731,3.459-24.028,0.772-33.243,0.779c-12.829,0.009-25.637,0.05-38.465,0.099
			c-52.519,0.2-104.908-1.419-157.387-3.898c-12.545-0.592-24.812-2.258-37.278-3.623c-2.726-0.298-5.472-0.413-8.196-0.716
			c-7.651-0.85-10.401,0.825-7.014-5.286c3.687-6.652,15.662-6.22,22.497-6.961c26.404-2.858,52.657-0.775,79.091,0.022
			c29.326,0.883,58.792,2.791,88.129,2.838c26.36,0.043,52.618,1.858,78.948,1.272c3.724,0.46,7.46,1.07,10.885,2.072
			c1.436,0.419,5.417,1.378,6.302,2.718C395.506,406.517,392.742,412.141,388.9,413.664z"/>
	</g>
</g>
<g>
	<g>
		<path d="M159.72,87.459c-14.377-3.149-28.991-1.145-43.573-0.994C104,86.591,84.749,82.986,74.075,89.894
			c-1.639,1.061-1.579,3.995,0.581,4.446c14.091,2.938,29.364,2.085,43.686,1.998c13.16-0.08,28.605,0.876,41.378-2.194
			C162.982,93.361,163.068,88.192,159.72,87.459z"/>
	</g>
</g>
<g>
	<g>
		<path d="M159.72,107.736c-14.377-3.149-28.991-1.145-43.573-0.994c-12.147,0.126-31.399-3.479-42.072,3.429
			c-1.639,1.062-1.579,3.996,0.581,4.446c14.091,2.938,29.364,2.086,43.686,1.998c13.16-0.08,28.605,0.876,41.378-2.194
			C162.982,113.638,163.068,108.469,159.72,107.736z"/>
	</g>
</g>
<g>
	<g>
		<path d="M159.72,128.014c-14.377-3.149-28.991-1.145-43.573-0.994c-12.147,0.126-31.399-3.479-42.072,3.429
			c-1.639,1.062-1.579,3.995,0.581,4.446c14.091,2.938,29.364,2.086,43.686,1.998c13.16-0.08,28.605,0.876,41.378-2.194
			C162.982,133.916,163.068,128.747,159.72,128.014z"/>
	</g>
</g>
<g>
	<g>
		<path d="M422.733,89.844c-14.377-3.149-28.991-1.145-43.573-0.994c-12.147,0.126-31.399-3.479-42.072,3.429
			c-1.639,1.062-1.58,3.996,0.581,4.446c14.091,2.938,29.364,2.086,43.686,1.998c13.16-0.08,28.605,0.876,41.378-2.194
			C425.995,95.746,426.082,90.577,422.733,89.844z"/>
	</g>
</g>
<g>
	<g>
		<path d="M422.733,110.122c-14.377-3.149-28.991-1.145-43.573-0.994c-12.147,0.126-31.399-3.479-42.072,3.429
			c-1.639,1.062-1.58,3.995,0.581,4.446c14.091,2.938,29.364,2.086,43.686,1.998c13.16-0.08,28.605,0.876,41.378-2.194
			C425.995,116.024,426.082,110.855,422.733,110.122z"/>
	</g>
</g>
<g>
	<g>
		<path d="M422.733,130.4c-14.377-3.149-28.991-1.145-43.573-0.994c-12.147,0.126-31.399-3.479-42.072,3.429
			c-1.639,1.061-1.58,3.995,0.581,4.446c14.091,2.938,29.364,2.085,43.686,1.998c13.16-0.08,28.605,0.876,41.378-2.194
			C425.995,136.302,426.082,131.133,422.733,130.4z"/>
	</g>
</g>
<g>
	<g>
		<path d="M289.099,102.576c-13.979-4.172-28.734-4.007-43.141-4.574c-15.077-0.594-46.956-6.87-52.528,13.774
			c-3.081,11.416,11.697,15.649,19.731,16.812c17.626,2.553,35.632,5.187,53.422,3.404c9.898-0.991,23.844-2.589,30.89-10.689
			C305.768,111.768,298.225,105.3,289.099,102.576z M266.583,124.339c-11.131,1.261-22.189,0.444-33.267-0.974
			c-4.507-0.577-9.024-1.059-13.535-1.604c-2.71-0.327-6.467-0.087-8.936-1.093c-8.73,0.417-5.021-11.309,0.397-13.63
			c5.124-2.195,11.962-1.333,17.271-1.162c6.666,0.213,13.294-0.129,19.958-0.185c11.015-0.093,22.036,0.444,33.053,0.594
			c2.676,0.718,5.086,1.74,6.977,3.212C300.466,118.811,272.29,123.693,266.583,124.339z"/>
	</g>
</g>
<g>
</g>
<g>
</g>
<g>
</g>
<g>
</g>
<g>
</g>
<g>
</g>
<g>
</g>
<g>
</g>
<g>
</g>
<g>
</g>
<g>
</g>
<g>
</g>
<g>
</g>
<g>
</g>
<g>
</g>
</svg>
