<svg xmlns="http://www.w3.org/2000/svg" height="511pt" version="1.1" viewBox="-64 0 511 511.99974" width="511pt">
<g id="surface1">
<path d="M 154.785156 157.144531 C 164.726562 161.484375 175.570312 163.65625 186.355469 163.65625 C 196.960938 163.65625 207.507812 161.554688 217.066406 157.351562 C 237 148.585938 252.328125 131.078125 258.074219 110.515625 C 263.917969 89.59375 259.320312 66.207031 246.070312 49.488281 C 235.09375 35.632812 218.945312 26.855469 200.601562 24.769531 C 179.917969 22.421875 158.71875 28.53125 142.441406 41.542969 C 133.492188 48.699219 126.25 57.730469 121.5 67.664062 C 111.9375 87.664062 112.300781 111.167969 122.449219 129.007812 C 129.292969 141.039062 140.777344 151.03125 154.785156 157.144531 Z M 128.773438 71.144531 C 133 62.300781 139.46875 54.242188 147.476562 47.84375 C 159.902344 37.910156 176.136719 32.355469 192.113281 32.355469 C 194.648438 32.355469 197.183594 32.496094 199.691406 32.78125 C 215.890625 34.621094 230.117188 42.335938 239.753906 54.496094 C 251.425781 69.230469 255.46875 89.863281 250.308594 108.347656 C 245.207031 126.609375 231.566406 142.167969 213.820312 149.972656 C 196.566406 157.558594 175.703125 157.480469 158.011719 149.757812 C 145.585938 144.335938 135.445312 135.550781 129.457031 125.019531 C 120.59375 109.441406 120.332031 88.796875 128.773438 71.144531 Z M 128.773438 71.144531 " style=" stroke:none;fill-rule:nonzero;fill:rgb(0%,0%,0%);fill-opacity:1;" />
<path d="M 161.011719 144.960938 C 169.058594 148.476562 177.839844 150.234375 186.566406 150.234375 C 195.148438 150.230469 203.679688 148.535156 211.410156 145.132812 C 227.523438 138.046875 239.914062 123.902344 244.550781 107.289062 C 249.269531 90.398438 245.5625 71.527344 234.875 58.039062 C 226.023438 46.871094 212.996094 39.789062 198.1875 38.105469 C 181.4375 36.203125 164.28125 41.152344 151.105469 51.6875 C 143.863281 57.476562 138.007812 64.777344 134.167969 72.808594 C 126.453125 88.949219 126.734375 107.902344 134.910156 122.269531 C 140.425781 131.964844 149.695312 140.023438 161.011719 144.960938 Z M 137.808594 74.546875 C 141.386719 67.0625 146.855469 60.246094 153.625 54.835938 C 164.234375 46.355469 177.597656 41.738281 191.101562 41.738281 C 193.3125 41.738281 195.527344 41.863281 197.734375 42.113281 C 211.464844 43.675781 223.535156 50.21875 231.714844 60.542969 C 241.617188 73.039062 245.046875 90.539062 240.671875 106.207031 C 236.351562 121.667969 224.808594 134.839844 209.789062 141.445312 C 195.203125 147.859375 177.574219 147.792969 162.625 141.269531 C 152.101562 136.675781 143.503906 129.222656 138.414062 120.277344 C 130.882812 107.035156 130.648438 89.515625 137.808594 74.546875 Z M 137.808594 74.546875 " style=" stroke:none;fill-rule:nonzero;fill:rgb(0%,0%,0%);fill-opacity:1;" />
<path d="M 188.554688 57.671875 C 188.59375 57.671875 188.636719 57.675781 188.679688 57.675781 C 189.734375 57.675781 190.625 56.851562 190.6875 55.78125 L 191.226562 47.027344 C 191.292969 45.914062 190.449219 44.957031 189.335938 44.890625 C 188.238281 44.820312 187.269531 45.667969 187.203125 46.777344 L 186.664062 55.535156 C 186.597656 56.648438 187.441406 57.601562 188.554688 57.671875 Z M 188.554688 57.671875 " style=" stroke:none;fill-rule:nonzero;fill:rgb(0%,0%,0%);fill-opacity:1;" />
<path d="M 145.5 101.515625 C 145.53125 101.519531 145.566406 101.519531 145.597656 101.519531 C 146.667969 101.519531 147.558594 100.679688 147.609375 99.601562 C 147.664062 98.488281 146.804688 97.542969 145.695312 97.488281 L 138.902344 97.160156 C 137.78125 97.105469 136.847656 97.960938 136.792969 99.074219 C 136.738281 100.1875 137.59375 101.132812 138.707031 101.1875 Z M 145.5 101.515625 " style=" stroke:none;fill-rule:nonzero;fill:rgb(0%,0%,0%);fill-opacity:1;" />
<path d="M 227.761719 100.125 C 227.765625 101.234375 228.667969 102.128906 229.777344 102.128906 C 229.78125 102.128906 229.785156 102.128906 229.789062 102.128906 L 237.652344 102.078125 C 238.765625 102.070312 239.664062 101.164062 239.65625 100.050781 C 239.648438 98.941406 238.746094 98.046875 237.640625 98.046875 C 237.636719 98.046875 237.632812 98.046875 237.625 98.046875 L 229.761719 98.097656 C 228.648438 98.101562 227.753906 99.007812 227.761719 100.125 Z M 227.761719 100.125 " style=" stroke:none;fill-rule:nonzero;fill:rgb(0%,0%,0%);fill-opacity:1;" />
<path d="M 212.101562 64.707031 C 212.414062 64.882812 212.753906 64.964844 213.085938 64.964844 C 213.792969 64.964844 214.476562 64.597656 214.847656 63.9375 L 218.378906 57.660156 C 218.925781 56.691406 218.582031 55.460938 217.613281 54.914062 C 216.640625 54.367188 215.410156 54.714844 214.867188 55.683594 L 211.332031 61.960938 C 210.785156 62.929688 211.128906 64.160156 212.101562 64.707031 Z M 212.101562 64.707031 " style=" stroke:none;fill-rule:nonzero;fill:rgb(0%,0%,0%);fill-opacity:1;" />
<path d="M 223.90625 82.019531 C 224.328125 82.019531 224.753906 81.886719 225.117188 81.613281 L 232.976562 75.710938 C 233.867188 75.042969 234.046875 73.78125 233.378906 72.890625 C 232.710938 72 231.449219 71.820312 230.558594 72.488281 L 222.695312 78.390625 C 221.804688 79.058594 221.625 80.320312 222.292969 81.210938 C 222.691406 81.738281 223.292969 82.019531 223.90625 82.019531 Z M 223.90625 82.019531 " style=" stroke:none;fill-rule:nonzero;fill:rgb(0%,0%,0%);fill-opacity:1;" />
<path d="M 162.996094 64.230469 C 163.386719 64.605469 163.890625 64.792969 164.394531 64.792969 C 164.921875 64.792969 165.449219 64.585938 165.847656 64.171875 C 166.621094 63.371094 166.59375 62.09375 165.789062 61.324219 L 161.6875 57.382812 C 160.882812 56.613281 159.609375 56.640625 158.835938 57.441406 C 158.066406 58.246094 158.09375 59.523438 158.894531 60.292969 Z M 162.996094 64.230469 " style=" stroke:none;fill-rule:nonzero;fill:rgb(0%,0%,0%);fill-opacity:1;" />
<path d="M 143.792969 83.589844 L 150.046875 86.089844 C 150.292969 86.191406 150.546875 86.238281 150.792969 86.238281 C 151.59375 86.238281 152.351562 85.757812 152.667969 84.96875 C 153.082031 83.9375 152.578125 82.761719 151.542969 82.347656 L 145.289062 79.847656 C 144.253906 79.429688 143.082031 79.9375 142.667969 80.972656 C 142.253906 82.003906 142.757812 83.175781 143.792969 83.589844 Z M 143.792969 83.589844 " style=" stroke:none;fill-rule:nonzero;fill:rgb(0%,0%,0%);fill-opacity:1;" />
<path d="M 186.125 131.265625 C 186.367188 131.265625 186.613281 131.257812 186.859375 131.25 C 192.191406 131.042969 196.886719 128.652344 199.738281 124.695312 C 202.5625 120.78125 203.316406 115.867188 201.863281 110.863281 C 201.371094 109.167969 200.644531 107.695312 199.726562 106.429688 L 217.980469 86.125 C 219.46875 84.46875 219.335938 81.921875 217.679688 80.433594 C 216.023438 78.945312 213.472656 79.078125 211.984375 80.734375 L 193.019531 101.832031 C 190.398438 101.113281 187.332031 101.082031 183.9375 101.804688 C 178.097656 103.046875 173.242188 107.34375 171.5625 112.753906 L 171.5625 112.757812 C 170.023438 117.714844 171.28125 123.234375 174.769531 126.8125 C 177.546875 129.664062 181.652344 131.265625 186.125 131.265625 Z M 175.414062 113.949219 C 176.667969 109.910156 180.34375 106.6875 184.777344 105.746094 C 186.199219 105.441406 188.007812 105.214844 189.84375 105.367188 L 184.136719 111.71875 C 182.648438 113.375 182.78125 115.921875 184.4375 117.410156 C 185.207031 118.101562 186.171875 118.445312 187.132812 118.445312 C 188.234375 118.445312 189.335938 117.992188 190.132812 117.105469 L 196.949219 109.523438 C 197.363281 110.230469 197.71875 111.042969 197.992188 111.984375 C 199.09375 115.773438 198.550781 119.449219 196.46875 122.335938 C 194.347656 125.28125 190.785156 127.0625 186.703125 127.222656 C 183.136719 127.363281 179.757812 126.15625 177.660156 124 C 175.226562 121.5 174.324219 117.464844 175.414062 113.949219 Z M 175.414062 113.949219 " style=" stroke:none;fill-rule:nonzero;fill:rgb(0%,0%,0%);fill-opacity:1;" />
<path d="M 374.65625 134.671875 C 366.351562 121.363281 350.832031 111.511719 332.070312 107.644531 C 316.335938 104.40625 300.371094 105.269531 284.867188 106.292969 C 288.972656 80.828125 282.308594 53.886719 266.527344 33.96875 C 251.738281 15.304688 229.976562 3.480469 205.25 0.667969 C 177.3125 -2.507812 148.675781 5.75 126.6875 23.324219 C 114.601562 32.984375 104.828125 45.175781 98.421875 58.578125 C 90.828125 74.460938 87.878906 91.976562 89.527344 108.597656 C 75.972656 108.597656 62.007812 108.730469 48.398438 112.101562 C 32.121094 116.132812 18.90625 124.601562 11.191406 135.941406 C 0.339844 151.886719 0.4375 172.269531 0.511719 188.644531 L 1.683594 439.289062 C 1.75 452.851562 1.835938 471.433594 12.246094 484.921875 C 24.023438 500.191406 44.585938 504.074219 65.050781 506.003906 C 107.519531 510 150.339844 512 193.144531 512 C 226.015625 512 258.882812 510.820312 291.550781 508.457031 C 310.90625 507.058594 330.996094 504.578125 345.222656 491.296875 C 359.914062 477.585938 363.550781 456.671875 366.015625 436.429688 C 376.066406 353.875 382.121094 269.863281 384.011719 186.726562 C 384.4375 167.875 384.042969 149.710938 374.65625 134.671875 Z M 105.695312 62.058594 C 111.582031 49.742188 120.582031 38.527344 131.722656 29.625 C 152.046875 13.375 178.515625 5.746094 204.335938 8.679688 C 226.917969 11.246094 246.761719 22.003906 260.207031 38.976562 C 276.484375 59.523438 282.128906 88.292969 274.929688 114.058594 C 267.824219 139.492188 248.832031 161.164062 224.125 172.027344 C 200.117188 182.585938 171.09375 182.476562 146.484375 171.738281 C 129.179688 164.183594 115.042969 151.929688 106.679688 137.230469 C 94.304688 115.476562 93.925781 86.671875 105.695312 62.058594 Z M 167.109375 503.679688 C 164.734375 503.632812 162.363281 503.578125 159.992188 503.519531 C 162.675781 491.558594 154.097656 479.71875 144.3125 474.445312 C 133.726562 468.738281 121.3125 468.21875 110.359375 467.757812 C 99.710938 467.3125 87.648438 466.808594 77.089844 471.9375 C 67.8125 476.445312 60.085938 487.042969 61.734375 497.566406 C 58.898438 497.265625 56.035156 496.910156 53.183594 496.464844 C 53.230469 489.839844 53.355469 483.042969 55.015625 476.757812 C 56.847656 469.824219 60.46875 464.375 65.214844 461.417969 C 71.621094 457.429688 79.957031 457.660156 89.402344 458.332031 L 135.886719 461.632812 C 144.816406 462.269531 152.664062 463.15625 158.230469 467.59375 C 162.269531 470.816406 165.171875 476.191406 166.394531 482.722656 C 167.570312 488.984375 167.222656 495.671875 166.882812 502.140625 C 166.855469 502.679688 166.9375 503.195312 167.109375 503.679688 Z M 65.921875 497.984375 C 63.917969 489.21875 70.625 479.5625 78.851562 475.5625 C 88.496094 470.875 100.023438 471.359375 110.191406 471.785156 C 120.707031 472.226562 132.628906 472.726562 142.398438 477.992188 C 153.996094 484.242188 157.960938 495.699219 155.855469 503.410156 C 125.789062 502.589844 95.765625 500.792969 65.921875 497.984375 Z M 203.566406 503.136719 C 197.195312 493.058594 199.972656 477.933594 209.507812 470.773438 C 217.28125 464.9375 228.054688 464.070312 237.539062 463.714844 C 253.316406 463.128906 269.28125 463.605469 284.996094 465.132812 C 292.085938 465.824219 300.054688 466.96875 304.847656 471.835938 C 310.78125 477.863281 310.683594 487.960938 310.074219 497.789062 C 310.066406 497.957031 310.085938 498.117188 310.09375 498.28125 C 306.625 498.882812 303.082031 499.332031 299.519531 499.6875 C 301.847656 494.589844 301.203125 487.976562 297.613281 482.898438 C 294.121094 477.964844 288.214844 474.476562 280.980469 473.082031 C 274.714844 471.875 268.390625 472.285156 262.261719 472.679688 C 253.667969 473.234375 244.78125 473.808594 236.050781 474.742188 C 228.699219 475.53125 220.347656 476.816406 214.253906 482.101562 C 210.609375 485.265625 208.296875 490.234375 208.222656 495.0625 C 208.167969 498.457031 209.25 501.515625 211.277344 503.800781 C 208.832031 503.832031 206.382812 503.863281 203.933594 503.882812 C 203.839844 503.628906 203.71875 503.375 203.566406 503.136719 Z M 290.96875 500.414062 C 265.847656 502.234375 240.613281 503.328125 215.351562 503.738281 C 215.578125 503.019531 215.394531 502.199219 214.800781 501.652344 C 212.640625 499.660156 212.222656 497 212.253906 495.125 C 212.3125 491.464844 214.136719 487.546875 216.898438 485.148438 C 222.109375 480.625 229.738281 479.476562 236.480469 478.753906 C 245.128906 477.828125 253.96875 477.253906 262.53125 476.703125 C 268.394531 476.324219 274.460938 475.933594 280.21875 477.042969 C 286.425781 478.238281 291.433594 481.144531 294.320312 485.230469 C 297.523438 489.753906 297.710938 496.046875 294.753906 499.867188 C 294.6875 499.953125 294.636719 500.046875 294.585938 500.140625 C 293.378906 500.238281 292.171875 500.328125 290.96875 500.414062 Z M 375.949219 186.542969 C 374.066406 269.417969 368.03125 353.164062 358.011719 435.453125 C 355.726562 454.222656 352.429688 473.539062 339.722656 485.40625 C 333.757812 490.972656 326.332031 494.351562 318.226562 496.515625 C 318.792969 485.839844 318.421875 474.128906 310.59375 466.179688 C 303.90625 459.390625 294.277344 457.9375 285.777344 457.109375 C 269.707031 455.546875 253.375 455.058594 237.238281 455.660156 C 225.746094 456.089844 213.84375 457.4375 204.667969 464.328125 C 192.8125 473.230469 188.789062 490.570312 194.863281 503.925781 C 188.128906 503.9375 181.390625 503.890625 174.652344 503.796875 C 174.804688 503.410156 174.914062 502.996094 174.933594 502.558594 C 175.296875 495.617188 175.671875 488.441406 174.320312 481.234375 C 172.738281 472.800781 168.808594 465.71875 163.257812 461.289062 C 155.28125 454.929688 144.398438 454.15625 136.457031 453.589844 L 89.972656 450.289062 C 81.585938 449.691406 70.097656 448.875 60.949219 454.574219 C 54.457031 458.621094 49.578125 465.769531 47.21875 474.699219 C 45.4375 481.441406 45.199219 488.265625 45.132812 494.921875 C 34.621094 492.464844 24.953125 488.195312 18.628906 479.996094 C 10.546875 469.519531 9.824219 455.34375 9.75 439.25 L 8.582031 189.191406 L 8.578125 188.605469 C 8.488281 169.863281 9.125 153.308594 17.859375 140.476562 C 24.453125 130.777344 35.988281 123.480469 50.335938 119.925781 C 63.390625 116.691406 77.269531 116.652344 90.699219 116.65625 C 92.382812 125.34375 95.375 133.660156 99.671875 141.214844 C 108.886719 157.417969 124.367188 170.878906 143.261719 179.125 C 156.6875 184.988281 171.339844 187.917969 185.902344 187.917969 C 200.222656 187.917969 214.460938 185.082031 227.367188 179.410156 C 254.261719 167.582031 274.945312 143.964844 282.695312 116.226562 C 282.855469 115.648438 283 115.070312 283.152344 114.488281 C 298.820312 113.441406 315.019531 112.367188 330.441406 115.542969 C 347.050781 118.964844 360.671875 127.492188 367.816406 138.941406 C 376.027344 152.09375 376.347656 168.960938 375.949219 186.542969 Z M 375.949219 186.542969 " style=" stroke:none;fill-rule:nonzero;fill:rgb(0%,0%,0%);fill-opacity:1;" />
<path d="M 133.363281 192.25 C 124.78125 186.863281 113.398438 180.953125 101.402344 183.085938 C 89.003906 185.292969 78.617188 195.304688 71.882812 202.640625 C 59.804688 215.796875 53.84375 232.492188 49.996094 245.566406 C 37.148438 289.246094 36.277344 335.65625 47.472656 379.785156 C 50.476562 391.621094 55.746094 408.960938 66.761719 422.824219 C 77.867188 436.796875 93.601562 445.125 108.886719 445.125 C 108.933594 445.125 108.984375 445.125 109.03125 445.125 C 125.339844 445.070312 141.714844 435.71875 152.835938 420.117188 C 163.351562 405.359375 167.882812 387.460938 170.660156 373.515625 C 177.886719 337.207031 178.523438 300.269531 172.550781 263.734375 C 168.878906 241.300781 160.828125 209.484375 133.363281 192.25 Z M 162.753906 371.941406 C 160.132812 385.097656 155.894531 401.929688 146.269531 415.433594 C 136.796875 428.726562 122.515625 437.015625 109.003906 437.058594 C 108.964844 437.058594 108.925781 437.058594 108.886719 437.058594 C 96.042969 437.058594 82.664062 429.867188 73.078125 417.804688 C 65.320312 408.046875 59.835938 395.707031 55.289062 377.800781 C 44.449219 335.070312 45.292969 290.132812 57.734375 247.839844 C 61.332031 235.601562 66.867188 220.027344 77.824219 208.089844 C 83.765625 201.613281 92.824219 192.800781 102.816406 191.023438 C 104.078125 190.796875 105.335938 190.695312 106.59375 190.695312 C 114.53125 190.695312 122.332031 194.84375 129.078125 199.078125 C 140.90625 206.5 157.460938 221.414062 164.59375 265.035156 C 170.410156 300.613281 169.789062 336.582031 162.753906 371.941406 Z M 162.753906 371.941406 " style=" stroke:none;fill-rule:nonzero;fill:rgb(0%,0%,0%);fill-opacity:1;" />
<path d="M 327.414062 245.566406 C 323.566406 232.492188 317.601562 215.796875 305.527344 202.640625 C 298.792969 195.300781 288.402344 185.292969 276.003906 183.085938 C 264.015625 180.949219 252.628906 186.863281 244.046875 192.25 C 216.582031 209.484375 208.527344 241.300781 204.859375 263.734375 C 198.886719 300.269531 199.519531 337.203125 206.75 373.515625 C 209.523438 387.457031 214.058594 405.355469 224.574219 420.113281 C 235.691406 435.71875 252.070312 445.066406 268.378906 445.121094 C 268.425781 445.121094 268.472656 445.121094 268.523438 445.121094 C 283.804688 445.121094 299.542969 436.792969 310.644531 422.824219 C 321.667969 408.953125 326.933594 391.617188 329.933594 379.785156 C 341.132812 335.65625 340.257812 289.246094 327.414062 245.566406 Z M 322.121094 377.800781 C 317.578125 395.707031 312.089844 408.042969 304.332031 417.808594 C 294.746094 429.871094 281.371094 437.058594 268.523438 437.058594 C 268.484375 437.058594 268.445312 437.058594 268.40625 437.058594 C 254.890625 437.015625 240.613281 428.726562 231.140625 415.433594 C 221.515625 401.925781 217.273438 385.09375 214.65625 371.941406 C 207.621094 336.582031 207 300.613281 212.816406 265.035156 C 216.230469 244.144531 223.628906 214.582031 248.332031 199.078125 C 255.078125 194.847656 262.878906 190.695312 270.816406 190.695312 C 272.070312 190.695312 273.332031 190.800781 274.59375 191.023438 C 284.585938 192.804688 293.644531 201.617188 299.585938 208.09375 C 310.542969 220.027344 316.078125 235.605469 319.675781 247.84375 C 332.117188 290.132812 332.960938 335.074219 322.121094 377.800781 Z M 322.121094 377.800781 " style=" stroke:none;fill-rule:nonzero;fill:rgb(0%,0%,0%);fill-opacity:1;" />
<path d="M 158.367188 280.054688 C 158.371094 279.894531 158.351562 279.730469 158.3125 279.570312 C 157.96875 276.632812 157.597656 273.695312 157.167969 270.761719 C 155.765625 261.25 153.539062 249.765625 149.074219 238.820312 C 149.070312 238.8125 149.066406 238.800781 149.0625 238.792969 C 149.0625 238.785156 149.058594 238.78125 149.054688 238.777344 C 146.515625 232.558594 143.253906 226.519531 139.007812 221.121094 C 138.917969 220.980469 138.8125 220.847656 138.691406 220.734375 C 135.472656 216.707031 131.699219 213.039062 127.257812 209.941406 C 125.84375 208.957031 124.332031 207.953125 122.738281 207 C 122.707031 206.980469 122.671875 206.960938 122.636719 206.941406 C 116.882812 203.511719 110.082031 200.777344 103.058594 202.167969 C 93.816406 203.996094 86.242188 211.964844 80.679688 218.703125 C 71.46875 229.863281 66.902344 244.09375 63.949219 255.242188 C 54.4375 291.203125 53.449219 329.316406 61.003906 365.796875 C 61.019531 365.921875 61.046875 366.046875 61.085938 366.171875 C 61.386719 367.613281 61.675781 369.058594 62.003906 370.496094 C 64.308594 380.59375 68.34375 395.378906 76.757812 407.148438 C 80.824219 412.839844 85.714844 417.40625 90.984375 420.625 C 91.027344 420.652344 91.070312 420.679688 91.113281 420.703125 C 96.726562 424.105469 102.769531 425.96875 108.722656 425.96875 L 108.832031 425.96875 C 121.203125 425.921875 133.628906 418.03125 142.066406 404.863281 C 143.8125 402.144531 145.332031 399.289062 146.679688 396.367188 C 146.730469 396.277344 146.773438 396.179688 146.8125 396.082031 C 151.578125 385.648438 154.050781 374.390625 155.707031 365.15625 C 160.746094 337.011719 161.625 308.429688 158.367188 280.054688 Z M 155.027344 322.3125 C 154.707031 332.5 154.09375 342.6875 152.816406 352.808594 C 150.964844 367.457031 147.6875 382.019531 142.03125 395.695312 C 139.3125 402.269531 136.039062 407.328125 130.820312 412.21875 C 126.277344 416.476562 120.757812 419.863281 114.644531 421.253906 C 112.734375 421.691406 110.777344 421.929688 108.816406 421.9375 L 108.722656 421.9375 C 98.542969 421.9375 86.191406 415.660156 81.070312 406.652344 C 78.019531 401.28125 75.417969 395.640625 73.167969 389.890625 C 68.699219 378.476562 65.679688 366.527344 63.71875 354.4375 C 58.707031 323.496094 58.949219 292.851562 66.375 262.332031 C 67.894531 256.105469 69.726562 249.941406 72.085938 243.976562 C 75.207031 236.089844 79.300781 228.53125 84.582031 221.878906 C 87.28125 218.472656 90.292969 215.3125 93.621094 212.515625 C 96.863281 209.789062 99.546875 206.96875 103.839844 206.121094 C 104.878906 205.914062 105.914062 205.820312 106.941406 205.820312 C 118.707031 205.820312 129.679688 217.128906 136.167969 225.976562 C 142.78125 234.984375 146.96875 245.589844 149.683594 256.429688 C 151.5625 263.945312 152.765625 271.609375 153.757812 279.285156 C 154.222656 282.851562 154.738281 286.433594 155.28125 289.957031 C 155.902344 293.976562 155.453125 297.449219 155.382812 301.398438 C 155.28125 307.175781 155.273438 312.957031 155.128906 318.734375 C 155.097656 319.925781 155.0625 321.117188 155.027344 322.3125 Z M 155.027344 322.3125 " style=" stroke:none;fill-rule:nonzero;fill:rgb(0%,0%,0%);fill-opacity:1;" />
<path d="M 220.859375 365.15625 C 222.511719 374.390625 224.984375 385.648438 229.753906 396.078125 C 229.789062 396.179688 229.835938 396.273438 229.886719 396.367188 C 231.234375 399.285156 232.753906 402.140625 234.5 404.863281 C 242.9375 418.03125 255.363281 425.921875 267.734375 425.964844 L 267.84375 425.964844 C 273.796875 425.96875 279.839844 424.101562 285.449219 420.703125 C 285.496094 420.679688 285.539062 420.652344 285.578125 420.625 C 290.851562 417.40625 295.738281 412.835938 299.808594 407.148438 C 308.222656 395.378906 312.257812 380.59375 314.5625 370.496094 C 314.890625 369.058594 315.179688 367.613281 315.480469 366.167969 C 315.519531 366.046875 315.546875 365.921875 315.558594 365.792969 C 323.113281 329.316406 322.128906 291.203125 312.613281 255.242188 C 309.664062 244.089844 305.097656 229.863281 295.886719 218.703125 C 290.320312 211.964844 282.75 203.996094 273.507812 202.167969 C 266.484375 200.773438 259.683594 203.507812 253.925781 206.941406 C 253.894531 206.960938 253.859375 206.980469 253.828125 207 C 252.234375 207.953125 250.71875 208.957031 249.308594 209.941406 C 244.867188 213.039062 241.09375 216.707031 237.875 220.734375 C 237.753906 220.847656 237.648438 220.976562 237.558594 221.121094 C 233.3125 226.519531 230.050781 232.558594 227.511719 238.773438 C 227.507812 238.78125 227.503906 238.785156 227.503906 238.789062 C 227.5 238.800781 227.496094 238.8125 227.492188 238.820312 C 223.027344 249.761719 220.800781 261.25 219.398438 270.757812 C 218.96875 273.695312 218.597656 276.632812 218.253906 279.570312 C 218.214844 279.730469 218.195312 279.890625 218.199219 280.050781 C 214.941406 308.429688 215.820312 337.011719 220.859375 365.15625 Z M 221.4375 318.734375 C 221.296875 312.957031 221.285156 307.175781 221.183594 301.398438 C 221.113281 297.449219 220.664062 293.976562 221.285156 289.957031 C 221.832031 286.433594 222.347656 282.851562 222.808594 279.285156 C 223.800781 271.609375 225.003906 263.945312 226.886719 256.429688 C 229.601562 245.589844 233.789062 234.988281 240.398438 225.976562 C 246.886719 217.128906 257.859375 205.820312 269.625 205.820312 C 270.65625 205.820312 271.6875 205.914062 272.726562 206.121094 C 277.023438 206.96875 279.703125 209.789062 282.945312 212.515625 C 286.273438 215.3125 289.285156 218.476562 291.988281 221.878906 C 297.269531 228.53125 301.359375 236.089844 304.480469 243.976562 C 306.839844 249.941406 308.675781 256.101562 310.191406 262.332031 C 317.621094 292.851562 317.863281 323.496094 312.847656 354.4375 C 310.890625 366.527344 307.871094 378.476562 303.402344 389.890625 C 301.148438 395.640625 298.546875 401.28125 295.496094 406.652344 C 290.375 415.660156 278.023438 421.9375 267.84375 421.9375 L 267.75 421.9375 C 265.789062 421.929688 263.832031 421.691406 261.921875 421.253906 C 255.808594 419.863281 250.289062 416.476562 245.746094 412.21875 C 240.527344 407.328125 237.253906 402.269531 234.535156 395.695312 C 228.878906 382.019531 225.601562 367.457031 223.75 352.808594 C 222.472656 342.6875 221.859375 332.5 221.539062 322.3125 C 221.503906 321.117188 221.46875 319.925781 221.4375 318.734375 Z M 221.4375 318.734375 " style=" stroke:none;fill-rule:nonzero;fill:rgb(0%,0%,0%);fill-opacity:1;" />
</g>
</svg>