<?xml version="1.0" ?><!DOCTYPE svg  PUBLIC '-//W3C//DTD SVG 1.1//EN'  'http://www.w3.org/Graphics/SVG/1.1/DTD/svg11.dtd'><svg enable-background="new 0 0 64 64" height="64px" id="Layer_1" version="1.1" viewBox="0 0 64 64" width="64px" xml:space="preserve" xmlns="http://www.w3.org/2000/svg" xmlns:xlink="http://www.w3.org/1999/xlink"><g><path d="M46.085,40.582c-0.01-0.389-0.001-0.777,0.007-1.165c0.019-0.854,0.037-1.737-0.119-2.649   c-0.208-1.202-0.596-1.958-1.295-2.419c1.956-1.768,2.271-4.422,0.78-6.604c-0.807-1.182-1.927-1.963-2.915-2.653   c-0.478-0.333-0.975-0.556-1.455-0.772c-0.393-0.177-0.764-0.343-1.093-0.557c-0.441-0.285-0.877-0.58-1.313-0.875   c-0.902-0.612-1.836-1.245-2.817-1.79c-0.9-0.501-1.5-1.182-1.886-2.089c0.138-0.072,0.277-0.162,0.418-0.276   c0.123-0.1,0.192-0.233,0.233-0.375c0.02-0.04,0.026-0.083,0.039-0.126c0-0.001,0.001-0.002,0.001-0.004   c0.016-0.058,0.038-0.113,0.04-0.175c0.012-0.405-0.15-0.945-1.031-1.229c-0.525-0.182-0.9-0.538-1.294-1.232   c-0.831-1.46-0.987-2.492-0.541-3.565c0.117-0.283,0.147-0.583,0.124-0.891c0.019-0.064,0.041-0.126,0.041-0.196   c0.003-0.415-0.331-0.752-0.745-0.755c-0.007,0-0.013,0-0.019,0c-1.448,0-2.225,1.045-2.793,1.808l-0.098,0.132   c-0.556,0.743-0.758,1.709-0.62,2.953c0.225,2.061,1.453,3.467,3.45,3.959c0.009,0.003,0.016,0.01,0.025,0.015   c-0.62,1.236-1.443,2.176-2.584,2.884c-1.605,0.996-3.304,1.705-5.102,2.455c-0.394,0.165-0.787,0.329-1.18,0.496   c-1.239,0.527-2.976,1.476-3.749,3.617c-0.754,2.081-0.389,3.746,1.148,5.238l0.248,0.233c0.114,0.106,0.216,0.205,0.312,0.305   c-1.111,1.132-1.173,2.604-1.224,3.925c-0.031,0.823-0.053,1.646-0.074,2.471c-0.037,1.419-0.074,2.886-0.165,4.317   c-0.088,1.378-0.104,2.768-0.119,4.111c-0.008,0.613-0.015,1.228-0.028,1.84c-0.009,0.364,0.024,0.828,0.362,1.182   c0.34,0.355,0.818,0.411,1.196,0.42c0.54,0.013,1.08,0.067,1.62,0.122c0.685,0.068,1.398,0.129,2.107,0.131   c0.304-0.002,0.604,0.001,0.904,0.006c0.236,0.004,0.474,0.008,0.712,0.008c0.821,0,1.656-0.046,2.48-0.295   c0.042-0.001,0.143,0.016,0.212,0.028c0.17,0.029,0.323,0.053,0.513,0.051c0.695-0.019,1.391-0.032,2.086-0.046   c1.895-0.038,3.854-0.078,5.785-0.2c0.532-0.033,1.067-0.021,1.633-0.012c0.89,0.019,1.811,0.037,2.743-0.131   c1.08-0.192,2.166-0.195,3.315-0.198l0.481-0.002c0.849-0.005,1.298-0.5,1.334-1.47l0.006-0.121   c0.152-2.439,0.064-4.899-0.02-7.278C46.135,42.285,46.104,41.434,46.085,40.582z M29.226,14.913   c-0.094-0.85,0.015-1.469,0.331-1.891l0.101-0.136c0.204-0.274,0.383-0.493,0.562-0.681c-0.374,1.622,0.244,3.038,0.862,4.126   c0.288,0.507,0.689,1.097,1.366,1.537c-0.078,0.012-0.152,0.026-0.211,0.045c-0.021-0.008-0.082-0.046-0.126-0.074   c-0.133-0.084-0.313-0.198-0.557-0.259C30.165,17.239,29.382,16.342,29.226,14.913z M20.006,29.012   c0.443-1.228,1.346-2.074,2.927-2.747l1.17-0.491c1.773-0.74,3.607-1.506,5.314-2.565c1.407-0.873,2.443-2.072,3.191-3.611   c0.517,1.212,1.335,2.147,2.529,2.81c0.923,0.514,1.829,1.127,2.705,1.721c0.443,0.301,0.888,0.602,1.338,0.894   c0.425,0.275,0.866,0.474,1.293,0.665c0.438,0.197,0.851,0.383,1.212,0.635c0.926,0.646,1.883,1.314,2.535,2.269   c1.064,1.561,0.85,3.384-0.546,4.645c-0.164,0.146-0.344,0.355-0.506,0.6c-0.134-0.02-0.26-0.043-0.405-0.057   c-4.643-0.428-9.386-0.43-13.914-0.427h-0.364c-0.712,0.001-1.413,0.077-2.091,0.151c-0.825,0.09-1.605,0.177-2.38,0.131   l-0.433-0.029c-0.605-0.045-1.226-0.081-1.868,0.021c-0.217-0.295-0.469-0.535-0.701-0.751l-0.222-0.208   C19.684,31.59,19.456,30.531,20.006,29.012z M30.856,51.049c-0.698,0.014-1.396,0.028-2.09,0.046   c-0.037-0.001-0.08-0.01-0.122-0.016l-0.007-1.383c-0.01-1.474-0.021-2.997,0.021-4.488c0.01-0.346,0.032-0.691,0.055-1.036   c0.055-0.825,0.111-1.678-0.001-2.555c-0.015-0.117-0.011-0.12,0.045-0.17c1.081-0.969,2.229-1.862,3.411-2.656   c0.273-0.184,0.36-0.113,0.441-0.05c0.321,0.255,0.665,0.479,1.009,0.703c0.378,0.245,0.734,0.477,1.052,0.75   c0.301,0.257,0.682,0.454,1.2,0.623c0.186,0.06,0.297,0.101,0.363,0.129c-0.005,0.143-0.035,0.382-0.053,0.527   c-0.033,0.272-0.021,0.536-0.006,0.738l0.058,0.716c0.2,2.505,0.407,5.096,0.313,7.631l-0.007,0.115   c-0.003,0.056-0.006,0.118-0.008,0.181C34.647,50.972,32.72,51.011,30.856,51.049z M44.687,50.324L44.68,50.48   c0,0.008-0.001,0.017-0.001,0.026l-0.319,0.001c-1.163,0.003-2.365,0.006-3.576,0.222c-0.785,0.142-1.593,0.124-2.449,0.108   c-0.099-0.002-0.201-0.002-0.301-0.004c0.001-0.023,0.002-0.047,0.003-0.068l0.008-0.147c0.098-2.627-0.113-5.262-0.316-7.81   l-0.057-0.711c-0.011-0.147-0.02-0.299-0.002-0.439c0.168-1.324-0.002-1.838-1.337-2.268c-0.319-0.104-0.544-0.214-0.686-0.335   c-0.392-0.337-0.809-0.607-1.211-0.869c-0.305-0.198-0.609-0.395-0.894-0.62c-0.654-0.52-1.46-0.526-2.211-0.021   c-1.24,0.832-2.443,1.769-3.575,2.784c-0.427,0.382-0.606,0.877-0.532,1.474c0.094,0.736,0.045,1.48-0.007,2.27   c-0.024,0.364-0.048,0.729-0.059,1.094c-0.041,1.517-0.03,3.054-0.021,4.539l0.008,1.484c-0.716,0.13-1.459,0.125-2.237,0.112   c-0.233-0.004-0.467-0.008-0.699-0.008c-0.083,0-0.166,0.001-0.248,0.002c-0.63,0-1.267-0.056-1.938-0.124   c-0.578-0.058-1.156-0.115-1.736-0.129c-0.036-0.001-0.066-0.002-0.094-0.004c0-0.019,0-0.04,0.001-0.063   c0.014-0.619,0.021-1.237,0.028-1.856c0.015-1.325,0.031-2.695,0.115-4.033c0.093-1.461,0.131-2.941,0.168-4.374   c0.021-0.818,0.043-1.636,0.073-2.452c0.049-1.241,0.091-2.323,0.932-3.063c0.028-0.005,0.057-0.012,0.085-0.021   c0.579-0.171,1.209-0.125,1.877-0.077l0.457,0.031c0.9,0.05,1.778-0.046,2.627-0.138c0.668-0.073,1.299-0.142,1.93-0.143h0.363   c4.489-0.003,9.203-0.001,13.777,0.421c1.353,0.123,1.632,0.385,1.868,1.751c0.132,0.769,0.115,1.543,0.099,2.362   c-0.009,0.411-0.018,0.822-0.008,1.232c0.02,0.857,0.051,1.715,0.081,2.572C44.749,45.532,44.835,47.955,44.687,50.324z"/><path d="M43.278,40.868c-0.334-0.433-0.68-0.88-1.178-1.243c-0.145-0.105-0.308-0.15-0.479-0.144   c-0.199-0.014-0.398,0.058-0.554,0.205c-0.916,0.869-1.948,2.11-1.801,4.008c0.037,0.46,0.026,0.929,0.015,1.425   c-0.011,0.496-0.022,1.01,0.016,1.528c0.092,1.261,0.367,1.807,1.807,1.738c0.213-0.013,0.447,0.031,0.701,0.075   c0.229,0.04,0.458,0.078,0.692,0.094c0.053,0.003,0.109,0.005,0.169,0.005c0.283,0,0.632-0.053,0.913-0.313   c0.369-0.339,0.379-0.815,0.382-0.976l0.075-4.733c0.009-0.477-0.138-0.916-0.409-1.231C43.507,41.164,43.393,41.017,43.278,40.868   z M42.461,47.045c-0.134-0.015-0.268-0.039-0.4-0.062c-0.27-0.047-0.57-0.099-0.892-0.099c-0.047,0-0.094,0.001-0.141,0.003   c-0.079,0.004-0.146,0.007-0.203,0.008c-0.011-0.09-0.021-0.21-0.032-0.357c-0.033-0.447-0.022-0.903-0.012-1.385   c0.012-0.513,0.023-1.042-0.019-1.577c-0.066-0.849,0.194-1.556,0.886-2.337c0.151,0.168,0.295,0.354,0.443,0.546   c0.128,0.166,0.256,0.331,0.394,0.494c0.021,0.025,0.053,0.107,0.051,0.233L42.461,47.045z"/><path d="M25.727,43.543c0.097-0.622,0.206-1.327-0.116-1.932c-0.407-0.764-1.119-1.454-1.954-1.896   c-0.126-0.065-0.259-0.098-0.39-0.086c-0.158-0.018-0.348,0.041-0.494,0.155c-0.844,0.651-1.945,1.734-1.785,3.618   c0.066,0.788,0.07,1.574,0.075,2.406c0.002,0.391,0.004,0.781,0.013,1.171c0.031,1.354,0.516,1.837,1.854,1.846   c0.011,0,0.022,0,0.033,0c0.444,0,0.869-0.049,1.28-0.096l0.326-0.036c0.177-0.019,0.715-0.074,1.044-0.517   c0.21-0.281,0.276-0.636,0.198-1.053c-0.106-0.575-0.115-1.167-0.125-1.792c-0.004-0.281-0.009-0.563-0.023-0.891   c-0.007-0.148-0.015-0.286,0-0.438C25.678,43.855,25.702,43.7,25.727,43.543z M24.167,44.558c0.012,0.266,0.016,0.531,0.02,0.798   c0.009,0.591,0.019,1.2,0.118,1.859l-0.232,0.025c-0.386,0.044-0.75,0.086-1.108,0.086c-0.182,0.003-0.296-0.008-0.366-0.016   c-0.009-0.069-0.019-0.182-0.022-0.363c-0.009-0.382-0.011-0.764-0.013-1.146c-0.005-0.825-0.009-1.678-0.081-2.525   c-0.066-0.786,0.183-1.391,0.85-2.004c0.407,0.288,0.75,0.66,0.955,1.044c0.087,0.164,0.01,0.665-0.042,0.997   c-0.028,0.184-0.056,0.366-0.073,0.541C24.148,44.083,24.155,44.288,24.167,44.558z"/></g></svg>