<?xml version="1.0" ?><!DOCTYPE svg  PUBLIC '-//W3C//DTD SVG 1.1//EN'  'http://www.w3.org/Graphics/SVG/1.1/DTD/svg11.dtd'><svg enable-background="new 0 0 64 64" height="64px" id="Layer_1" version="1.1" viewBox="0 0 64 64" width="64px" xml:space="preserve" xmlns="http://www.w3.org/2000/svg" xmlns:xlink="http://www.w3.org/1999/xlink"><g><path d="M54.416,29.882c-0.161-1.58-0.395-3.257-1.008-4.817l-0.27-0.692c-0.773-1.992-1.574-4.05-2.976-5.885   c-2.071-2.708-4.851-4.42-7.538-6.075l-0.1-0.062c-1.441-0.888-3.094-1.564-5.203-2.13c-0.525-0.141-1.031-0.161-1.535-0.181   c-0.461-0.02-0.896-0.038-1.268-0.161c-0.523-0.173-0.98-0.078-1.349-0.004c-0.186,0.039-0.348,0.074-0.473,0.061   c-3.087-0.253-6.006,0.361-8.697,1.068c-0.861,0.227-1.532,0.753-2.125,1.218l-0.234,0.183c-0.601,0.463-1.325,0.983-2.146,1.324   c-1.473,0.609-2.39,1.766-3.094,2.818c-0.15,0.225-0.33,0.368-0.609,0.553c-0.655,0.434-1.219,1.101-1.675,1.983   c-0.272,0.528-0.565,1.045-0.857,1.562c-0.601,1.061-1.221,2.159-1.678,3.359c-0.993,2.608-1.961,5.755-1.616,9.318   c0.18,1.859,0.583,3.634,1.232,5.423c0.488,1.347,1.025,2.788,1.646,4.208c1.178,2.688,3.068,4.876,5.617,6.502l0.888,0.572   c1.721,1.117,3.5,2.271,5.578,2.935c1.509,0.482,3.054,0.728,4.384,0.921c1.468,0.211,2.942,0.25,4.209,0.269   c0.41,0.007,0.823,0.013,1.236,0.013c1.941,0,3.906-0.139,5.75-1.064c1.701-0.854,3.629-1.823,5.152-3.41   c0.19-0.198,0.427-0.379,0.675-0.571c0.422-0.325,0.894-0.688,1.243-1.22c0.55-0.166,0.916-0.57,1.231-0.918   c1.898-2.088,3.234-4.399,3.969-6.869c0.147-0.497,0.338-0.979,0.539-1.49c0.287-0.73,0.584-1.486,0.757-2.303   C54.527,34.178,54.639,32.072,54.416,29.882z M52.607,36.01c-0.146,0.695-0.408,1.359-0.686,2.063   c-0.203,0.519-0.414,1.054-0.58,1.612c-0.67,2.252-1.895,4.367-3.69,6.342c-0.154,0.17-0.266,0.283-0.365,0.355   c-0.565-0.6-1.142-1.191-1.722-1.778c-0.66-0.669-1.321-1.337-1.957-2.024c-1.067-1.154-2.205-2.254-3.307-3.318   c-1.054-1.02-2.144-2.074-3.154-3.159c-0.281-0.304-0.756-0.319-1.06-0.038c-0.303,0.283-0.319,0.758-0.038,1.061   c1.037,1.113,2.142,2.182,3.209,3.215c1.086,1.05,2.209,2.136,3.248,3.259c0.648,0.699,1.32,1.38,1.992,2.06   c0.542,0.549,1.079,1.104,1.609,1.664c-0.194,0.209-0.419,0.404-0.686,0.609c-0.283,0.217-0.574,0.441-0.843,0.721   c-1.345,1.4-3.151,2.309-4.744,3.109c-1.908,0.958-4.137,0.923-6.29,0.892c-1.22-0.019-2.638-0.054-4.017-0.253   c-1.27-0.184-2.742-0.418-4.143-0.865c-1.886-0.602-3.504-1.652-5.218-2.764l-0.898-0.58c-2.294-1.463-3.993-3.427-5.049-5.838   c-0.604-1.381-1.131-2.795-1.61-4.117c-0.606-1.67-0.982-3.324-1.149-5.057c-0.315-3.255,0.594-6.195,1.525-8.641   c0.417-1.094,0.982-2.095,1.582-3.154c0.302-0.533,0.603-1.067,0.885-1.612c0.337-0.652,0.73-1.13,1.17-1.421   c0.017-0.011,0.032-0.023,0.049-0.034c0.177,0.162,0.363,0.325,0.593,0.477c0.682,0.448,1.265,0.995,1.783,1.672   c0.787,1.029,1.707,1.93,2.596,2.8c0.571,0.559,1.163,1.138,1.699,1.734c0.795,0.883,1.635,1.745,2.447,2.579l0.944,0.977   c0.237,0.297,0.513,0.446,0.822,0.446c0.081,0,0.164-0.011,0.25-0.031c0.402-0.097,0.65-0.502,0.553-0.905   c-0.067-0.279-0.282-0.483-0.542-0.551c-0.008-0.009-0.015-0.016-0.018-0.02l-0.935-0.963c-0.802-0.823-1.63-1.674-2.406-2.535   c-0.568-0.631-1.176-1.227-1.764-1.803c-0.891-0.872-1.732-1.695-2.454-2.64c-0.614-0.801-1.337-1.479-2.149-2.013   c-0.12-0.079-0.232-0.188-0.346-0.291c0.565-0.828,1.28-1.702,2.328-2.136c0.984-0.408,1.811-0.999,2.489-1.523l0.244-0.19   c0.524-0.411,1.019-0.8,1.58-0.947c2.164-0.569,4.474-1.079,6.867-1.079c0.438,0,0.88,0.017,1.324,0.054   c0.34,0.027,0.638-0.033,0.9-0.087c0.269-0.055,0.438-0.085,0.574-0.042c0.569,0.19,1.132,0.213,1.736,0.239   c0.404,0.016,0.786,0.032,1.15,0.129c1.964,0.527,3.49,1.149,4.804,1.958l0.101,0.062c2.69,1.657,5.23,3.221,7.133,5.709   c1.272,1.665,1.999,3.536,2.769,5.517l0.271,0.698c0.547,1.391,0.762,2.947,0.912,4.42C53.131,32.067,53.027,34.021,52.607,36.01z"/><path d="M46.192,22.688c-0.557-0.427-1.044-0.965-1.56-1.535c-0.281-0.31-0.561-0.619-0.854-0.913   c-0.151-0.152-0.244-0.295-0.056-0.765c0.021-0.056,0.053-0.109,0.082-0.163c0.151-0.277,0.404-0.741,0.189-1.341   c-0.141-0.39-0.571-0.626-0.962-0.486c-0.39,0.14-0.595,0.536-0.454,0.926c-0.008,0.033-0.058,0.124-0.09,0.183   c-0.059,0.106-0.115,0.214-0.158,0.323c-0.379,0.944-0.248,1.746,0.387,2.382c0.275,0.277,0.539,0.569,0.804,0.861   c0.538,0.594,1.095,1.208,1.759,1.718c0.471,0.361,0.736,0.763,0.789,1.196c0.081,0.652-0.307,1.298-0.662,1.745   c-0.205,0.258-0.437,0.55-0.645,0.658c-0.768,0.398-0.767,1.064-0.766,1.384v0.107c-0.012,0.414,0.313,0.759,0.728,0.771   c0.007,0,0.015,0,0.022,0c0.404,0,0.737-0.322,0.748-0.729l0.002-0.154c0-0.024-0.001-0.048-0.001-0.071   c0.47-0.259,0.812-0.688,1.103-1.054c0.742-0.934,1.074-1.916,0.96-2.841C47.455,24.056,46.982,23.294,46.192,22.688z"/><path d="M43.78,28.528c-0.077-0.263-0.302-0.446-0.56-0.508c-0.053-0.212-0.072-0.354-0.024-0.475   c0.3-0.76,1.212-3.071-1.171-4.591c-0.506-0.324-0.45-0.601-0.432-0.691c0.082-0.406-0.18-0.802-0.586-0.884   c-0.403-0.082-0.803,0.179-0.885,0.586c-0.177,0.874,0.222,1.694,1.094,2.253c0.991,0.632,1.145,1.358,0.584,2.776   c-0.244,0.617-0.096,1.169,0.012,1.572l0.04,0.155c0.095,0.381,0.315,0.578,0.485,0.675c0.174,0.1,0.348,0.132,0.506,0.132   c0.195,0,0.362-0.049,0.467-0.08C43.709,29.331,43.896,28.925,43.78,28.528z"/><path d="M47.184,32.573c-0.065-0.224-0.122-0.417-0.12-0.585c0.007-0.7-0.513-1.081-0.683-1.206   c-0.816-0.598-2.662-0.285-3.299,0.379c-0.13,0.136-0.195,0.304-0.199,0.475c-0.007,0.047-0.01,0.095-0.008,0.145l0.021,0.636   c0.019,0.509,0.037,1.019,0.051,1.529c0.027,0.938,0.645,1.545,1.572,1.545c0.222-0.025,0.515-0.016,0.772-0.029l0.38-0.019   c0.611-0.024,1.053-0.21,1.351-0.567c0.423-0.508,0.383-1.188,0.315-1.652C47.308,33.004,47.248,32.789,47.184,32.573z    M45.881,33.9c-0.022,0.01-0.098,0.037-0.268,0.043l-0.404,0.02c-0.229,0.014-0.461,0.026-0.689,0.027   c-0.039-0.008-0.044-0.002-0.057-0.002c-0.004,0-0.006,0-0.008,0c-0.004-0.02-0.007-0.047-0.008-0.086   c-0.015-0.513-0.033-1.026-0.051-1.54l-0.01-0.275c0.346-0.121,0.923-0.18,1.107-0.095c0.032,0.024,0.055,0.042,0.07,0.056   c0.008,0.358,0.1,0.67,0.18,0.947c0.043,0.146,0.088,0.29,0.109,0.439C45.9,33.764,45.873,33.891,45.881,33.9z"/><path d="M42.177,31.618c0.074-0.12,0.126-0.253,0.122-0.405c-0.01-0.414-0.348-0.749-0.769-0.73   c-2.882,0.072-5.189-0.083-7.864-0.267c-0.934-0.064-1.899-0.13-2.93-0.188c-3.353-0.189-6.101-0.258-8.65-0.224   c-0.507,0.009-1.031,0.016-1.488-0.072c-0.749-0.145-1.457-0.011-2.168,0.404c-0.317,0.186-0.433,0.566-0.312,0.9   c-0.017,0.063-0.039,0.124-0.04,0.192c-0.002,0.43,0.035,0.859,0.074,1.289c0.035,0.39,0.072,0.782,0.068,1.174   c-0.005,0.543,0.145,0.97,0.445,1.27c0.308,0.309,0.739,0.458,1.317,0.458c0.009,0,0.019,0,0.028,0   c0.741-0.006,1.483-0.007,2.225-0.009c1.875-0.003,3.813-0.006,5.723-0.087c0.794-0.034,1.589-0.041,2.383-0.048   c1.136-0.011,2.31-0.021,3.471-0.11c1.543-0.118,3.316-0.134,5.029-0.147c0.962-0.008,1.902-0.016,2.776-0.042   c0.001,0,0.002,0,0.003,0s0.002-0.001,0.004-0.001c0.006,0,0.012,0,0.018,0c0.013,0,0.023-0.008,0.036-0.009   c0.077-0.006,0.151-0.022,0.223-0.051c0.027-0.012,0.052-0.026,0.078-0.041c0.053-0.029,0.101-0.063,0.146-0.104   c0.023-0.021,0.044-0.042,0.064-0.066c0.038-0.045,0.067-0.095,0.095-0.149c0.015-0.029,0.03-0.056,0.041-0.087   c0.004-0.013,0.013-0.022,0.017-0.035c0.252-0.883,0.074-1.685-0.082-2.392C42.229,31.899,42.204,31.759,42.177,31.618z    M38.83,33.518c-1.739,0.015-3.538,0.029-5.133,0.152c-1.11,0.085-2.259,0.096-3.37,0.105c-0.811,0.008-1.623,0.015-2.433,0.049   c-1.88,0.08-3.803,0.083-5.663,0.086c-0.745,0.002-1.49,0.003-2.234,0.009c-0.005,0-0.011,0-0.016,0   c-0.148,0.001-0.227-0.014-0.243-0.012c-0.008-0.028-0.02-0.089-0.019-0.202c0.003-0.443-0.035-0.884-0.075-1.323   c-0.034-0.376-0.067-0.751-0.067-1.127c0.244-0.081,0.479-0.1,0.735-0.051c0.61,0.118,1.214,0.11,1.794,0.1   c2.517-0.033,5.228,0.034,8.543,0.222c1.025,0.058,1.984,0.124,2.914,0.187c2.154,0.147,4.21,0.289,6.53,0.289   c0.204,0,0.42-0.006,0.629-0.008c0.024,0.124,0.045,0.248,0.072,0.371c0.09,0.405,0.163,0.772,0.165,1.125   C40.273,33.503,39.563,33.512,38.83,33.518z"/></g></svg>