<?xml version="1.0" ?><svg height="32" id="svg8" version="1.1" viewBox="0 0 8.4666665 8.4666669" width="32" xmlns="http://www.w3.org/2000/svg" xmlns:cc="http://creativecommons.org/ns#" xmlns:dc="http://purl.org/dc/elements/1.1/" xmlns:inkscape="http://www.inkscape.org/namespaces/inkscape" xmlns:rdf="http://www.w3.org/1999/02/22-rdf-syntax-ns#" xmlns:sodipodi="http://sodipodi.sourceforge.net/DTD/sodipodi-0.dtd" xmlns:svg="http://www.w3.org/2000/svg"><defs id="defs2"/><g id="layer1" transform="translate(0,-288.53332)"><g id="g13551" style="display:inline" transform="translate(739.83491,68.702719)"><path d="m -736.95312,220.33789 c -0.21873,-0.0227 -0.47645,-0.0407 -0.67774,0.01 -0.25831,0.0647 -0.49781,0.21012 -0.67773,0.40429 -0.29576,0.31918 -0.55937,0.85942 -0.75977,1.32617 -0.2004,0.46676 -0.33203,0.85938 -0.33203,0.85938 a 0.13230489,0.13230489 0 0 0 0.0781,0.16602 l 1.22852,0.47265 a 0.13230489,0.13230489 0 0 0 0.13477,-0.0254 l 0.30664,-0.27148 a 0.13230489,0.13230489 0 1 0 -0.17578,-0.19727 l -0.2461,0.21875 -1.03125,-0.39648 c 0.0299,-0.0868 0.11274,-0.33018 0.28125,-0.72266 0.19578,-0.45599 0.46395,-0.98555 0.70899,-1.25 0.14399,-0.1554 0.34486,-0.27508 0.54882,-0.32617 0.12741,-0.0319 0.37909,-0.0254 0.58594,-0.004 0.18304,0.019 0.29759,0.041 0.33008,0.0469 0.19321,0.56325 0.66207,0.85885 1.12695,0.83984 0.45721,-0.0187 0.86707,-0.3398 0.97852,-0.8418 0.0372,-0.007 0.14362,-0.0264 0.32226,-0.0449 0.20685,-0.0215 0.45854,-0.028 0.58594,0.004 0.20397,0.0511 0.40483,0.17077 0.54883,0.32617 0.24504,0.26445 0.5132,0.79401 0.70898,1.25 0.16849,0.39243 0.2494,0.63579 0.2793,0.72266 l -0.97851,0.375 -0.0957,-0.26172 a 0.13230489,0.13230489 0 1 0 -0.24805,0.0898 l 0.14063,0.39063 a 0.13230489,0.13230489 0 0 0 0.17187,0.0781 l 1.22852,-0.47265 a 0.13230489,0.13230489 0 0 0 0.0781,-0.16602 c 0,0 -0.13163,-0.39262 -0.33204,-0.85938 -0.2004,-0.46675 -0.46401,-1.00699 -0.75976,-1.32617 -0.17993,-0.19417 -0.42137,-0.33959 -0.67969,-0.40429 -0.2013,-0.0505 -0.45705,-0.0325 -0.67578,-0.01 -0.21873,0.0227 -0.39453,0.0566 -0.39453,0.0566 a 0.13230489,0.13230489 0 0 0 -0.10742,0.11719 c -0.0433,0.45342 -0.39728,0.69711 -0.78321,0.71289 -0.38592,0.0158 -0.7866,-0.19633 -0.91992,-0.73242 a 0.13230489,0.13230489 0 0 0 -0.10351,-0.0977 c 0,0 -0.17581,-0.0339 -0.39453,-0.0566 z" id="path13521" style="color:#000000;font-style:normal;font-variant:normal;font-weight:normal;font-stretch:normal;font-size:medium;line-height:normal;font-family:sans-serif;font-variant-ligatures:normal;font-variant-position:normal;font-variant-caps:normal;font-variant-numeric:normal;font-variant-alternates:normal;font-feature-settings:normal;text-indent:0;text-align:start;text-decoration:none;text-decoration-line:none;text-decoration-style:solid;text-decoration-color:#000000;letter-spacing:normal;word-spacing:normal;text-transform:none;writing-mode:lr-tb;direction:ltr;text-orientation:mixed;dominant-baseline:auto;baseline-shift:baseline;text-anchor:start;white-space:normal;shape-padding:0;clip-rule:nonzero;display:inline;overflow:visible;visibility:visible;opacity:1;isolation:auto;mix-blend-mode:normal;color-interpolation:sRGB;color-interpolation-filters:linearRGB;solid-color:#000000;solid-opacity:1;vector-effect:none;fill:#000000;fill-opacity:1;fill-rule:nonzero;stroke:none;stroke-width:0.26458332px;stroke-linecap:round;stroke-linejoin:round;stroke-miterlimit:4;stroke-dasharray:none;stroke-dashoffset:0;stroke-opacity:1;color-rendering:auto;image-rendering:auto;shape-rendering:auto;text-rendering:auto;enable-background:accumulate"/><path d="m -736.96484,220.43945 -0.26368,0.0274 c 0,0 0.0168,0.15998 0.0547,0.35156 0.0379,0.19158 0.0902,0.41323 0.19922,0.57226 0.21432,0.31266 0.54403,0.5862 0.92969,0.67383 0.46495,0.10566 0.97233,-0.0199 1.37109,-0.25195 0.26156,-0.15225 0.42449,-0.41144 0.55078,-0.64844 0.0616,-0.11561 0.1031,-0.26597 0.13477,-0.39648 0.0317,-0.13052 0.0508,-0.23828 0.0508,-0.23828 l -0.25977,-0.0469 c 0,0 -0.0192,0.10064 -0.0488,0.22266 -0.0296,0.12202 -0.0737,0.26904 -0.10938,0.33594 -0.11806,0.22155 -0.26367,0.43382 -0.45117,0.54296 -0.3485,0.20284 -0.80148,0.3086 -1.17969,0.22266 -0.29838,-0.0678 -0.58918,-0.30046 -0.77148,-0.56641 -0.0592,-0.0863 -0.12104,-0.2965 -0.15625,-0.47461 -0.0352,-0.1781 -0.0508,-0.32617 -0.0508,-0.32617 z" id="path13523" style="color:#000000;font-style:normal;font-variant:normal;font-weight:normal;font-stretch:normal;font-size:medium;line-height:normal;font-family:sans-serif;font-variant-ligatures:normal;font-variant-position:normal;font-variant-caps:normal;font-variant-numeric:normal;font-variant-alternates:normal;font-feature-settings:normal;text-indent:0;text-align:start;text-decoration:none;text-decoration-line:none;text-decoration-style:solid;text-decoration-color:#000000;letter-spacing:normal;word-spacing:normal;text-transform:none;writing-mode:lr-tb;direction:ltr;text-orientation:mixed;dominant-baseline:auto;baseline-shift:baseline;text-anchor:start;white-space:normal;shape-padding:0;clip-rule:nonzero;display:inline;overflow:visible;visibility:visible;opacity:1;isolation:auto;mix-blend-mode:normal;color-interpolation:sRGB;color-interpolation-filters:linearRGB;solid-color:#000000;solid-opacity:1;vector-effect:none;fill:#000000;fill-opacity:1;fill-rule:nonzero;stroke:none;stroke-width:0.26458332px;stroke-linecap:butt;stroke-linejoin:miter;stroke-miterlimit:4;stroke-dasharray:none;stroke-dashoffset:0;stroke-opacity:1;color-rendering:auto;image-rendering:auto;shape-rendering:auto;text-rendering:auto;enable-background:accumulate"/><path d="m -733.19922,223.27148 a 0.13230489,0.13230489 0 0 0 -0.11523,0.13477 l 0.0449,4.13867 c -1.50746,-0.0435 -2.86778,-0.23531 -4.625,-0.0781 -0.17002,-1.30014 -0.13213,-2.62915 -0.0449,-3.97071 a 0.13230489,0.13230489 0 1 0 -0.26367,-0.0176 c -0.09,1.38382 -0.14328,2.77066 0.0488,4.13671 a 0.13230489,0.13230489 0 0 0 0.14453,0.11329 c 1.85605,-0.18755 3.23935,0.0481 4.8711,0.084 a 0.13230489,0.13230489 0 0 0 0.13672,-0.13477 l -0.0488,-4.27343 a 0.13230489,0.13230489 0 0 0 -0.14844,-0.13282 z" id="path13525" style="color:#000000;font-style:normal;font-variant:normal;font-weight:normal;font-stretch:normal;font-size:medium;line-height:normal;font-family:sans-serif;font-variant-ligatures:normal;font-variant-position:normal;font-variant-caps:normal;font-variant-numeric:normal;font-variant-alternates:normal;font-feature-settings:normal;text-indent:0;text-align:start;text-decoration:none;text-decoration-line:none;text-decoration-style:solid;text-decoration-color:#000000;letter-spacing:normal;word-spacing:normal;text-transform:none;writing-mode:lr-tb;direction:ltr;text-orientation:mixed;dominant-baseline:auto;baseline-shift:baseline;text-anchor:start;white-space:normal;shape-padding:0;clip-rule:nonzero;display:inline;overflow:visible;visibility:visible;opacity:1;isolation:auto;mix-blend-mode:normal;color-interpolation:sRGB;color-interpolation-filters:linearRGB;solid-color:#000000;solid-opacity:1;vector-effect:none;fill:#000000;fill-opacity:1;fill-rule:nonzero;stroke:none;stroke-width:0.26458332px;stroke-linecap:round;stroke-linejoin:round;stroke-miterlimit:4;stroke-dasharray:none;stroke-dashoffset:0;stroke-opacity:1;color-rendering:auto;image-rendering:auto;shape-rendering:auto;text-rendering:auto;enable-background:accumulate"/><path d="m -737.80664,227.12109 a 0.06615245,0.06615245 0 0 0 -0.0176,0.12696 l 0.16602,0.0664 a 0.06618579,0.06618579 0 1 0 0.0488,-0.12304 l -0.16601,-0.0664 a 0.06615245,0.06615245 0 0 0 -0.0312,-0.004 z" id="path13527" style="color:#000000;font-style:normal;font-variant:normal;font-weight:normal;font-stretch:normal;font-size:medium;line-height:normal;font-family:sans-serif;font-variant-ligatures:normal;font-variant-position:normal;font-variant-caps:normal;font-variant-numeric:normal;font-variant-alternates:normal;font-feature-settings:normal;text-indent:0;text-align:start;text-decoration:none;text-decoration-line:none;text-decoration-style:solid;text-decoration-color:#000000;letter-spacing:normal;word-spacing:normal;text-transform:none;writing-mode:lr-tb;direction:ltr;text-orientation:mixed;dominant-baseline:auto;baseline-shift:baseline;text-anchor:start;white-space:normal;shape-padding:0;clip-rule:nonzero;display:inline;overflow:visible;visibility:visible;opacity:1;isolation:auto;mix-blend-mode:normal;color-interpolation:sRGB;color-interpolation-filters:linearRGB;solid-color:#000000;solid-opacity:1;vector-effect:none;fill:#000000;fill-opacity:1;fill-rule:nonzero;stroke:none;stroke-width:0.13229167;stroke-linecap:round;stroke-linejoin:round;stroke-miterlimit:4;stroke-dasharray:none;stroke-dashoffset:0;stroke-opacity:1;color-rendering:auto;image-rendering:auto;shape-rendering:auto;text-rendering:auto;enable-background:accumulate"/><path d="m -737.78906,226.92188 a 0.06615245,0.06615245 0 0 0 -0.0176,0.1289 l 0.375,0.15625 a 0.06656189,0.06656189 0 1 0 0.0508,-0.12305 l -0.375,-0.15625 a 0.06615245,0.06615245 0 0 0 -0.0332,-0.006 z" id="path13529" style="color:#000000;font-style:normal;font-variant:normal;font-weight:normal;font-stretch:normal;font-size:medium;line-height:normal;font-family:sans-serif;font-variant-ligatures:normal;font-variant-position:normal;font-variant-caps:normal;font-variant-numeric:normal;font-variant-alternates:normal;font-feature-settings:normal;text-indent:0;text-align:start;text-decoration:none;text-decoration-line:none;text-decoration-style:solid;text-decoration-color:#000000;letter-spacing:normal;word-spacing:normal;text-transform:none;writing-mode:lr-tb;direction:ltr;text-orientation:mixed;dominant-baseline:auto;baseline-shift:baseline;text-anchor:start;white-space:normal;shape-padding:0;clip-rule:nonzero;display:inline;overflow:visible;visibility:visible;opacity:1;isolation:auto;mix-blend-mode:normal;color-interpolation:sRGB;color-interpolation-filters:linearRGB;solid-color:#000000;solid-opacity:1;vector-effect:none;fill:#000000;fill-opacity:1;fill-rule:nonzero;stroke:none;stroke-width:0.13229167;stroke-linecap:round;stroke-linejoin:round;stroke-miterlimit:4;stroke-dasharray:none;stroke-dashoffset:0;stroke-opacity:1;color-rendering:auto;image-rendering:auto;shape-rendering:auto;text-rendering:auto;enable-background:accumulate"/><path d="m -737.76758,226.70703 a 0.06615245,0.06615245 0 0 0 -0.0254,0.12695 l 0.58399,0.28125 a 0.06615245,0.06615245 0 1 0 0.0566,-0.11914 l -0.58399,-0.28125 a 0.06615245,0.06615245 0 0 0 -0.0312,-0.008 z" id="path13531" style="color:#000000;font-style:normal;font-variant:normal;font-weight:normal;font-stretch:normal;font-size:medium;line-height:normal;font-family:sans-serif;font-variant-ligatures:normal;font-variant-position:normal;font-variant-caps:normal;font-variant-numeric:normal;font-variant-alternates:normal;font-feature-settings:normal;text-indent:0;text-align:start;text-decoration:none;text-decoration-line:none;text-decoration-style:solid;text-decoration-color:#000000;letter-spacing:normal;word-spacing:normal;text-transform:none;writing-mode:lr-tb;direction:ltr;text-orientation:mixed;dominant-baseline:auto;baseline-shift:baseline;text-anchor:start;white-space:normal;shape-padding:0;clip-rule:nonzero;display:inline;overflow:visible;visibility:visible;opacity:1;isolation:auto;mix-blend-mode:normal;color-interpolation:sRGB;color-interpolation-filters:linearRGB;solid-color:#000000;solid-opacity:1;vector-effect:none;fill:#000000;fill-opacity:1;fill-rule:nonzero;stroke:none;stroke-width:0.13229167;stroke-linecap:round;stroke-linejoin:round;stroke-miterlimit:4;stroke-dasharray:none;stroke-dashoffset:0;stroke-opacity:1;color-rendering:auto;image-rendering:auto;shape-rendering:auto;text-rendering:auto;enable-background:accumulate"/><path d="m -737.79688,226.50391 a 0.06615245,0.06615245 0 0 0 -0.0137,0.12695 l 0.86719,0.38281 a 0.06615245,0.06615245 0 1 0 0.0527,-0.12109 l -0.86719,-0.38281 a 0.06615245,0.06615245 0 0 0 -0.0391,-0.006 z" id="path13533" style="color:#000000;font-style:normal;font-variant:normal;font-weight:normal;font-stretch:normal;font-size:medium;line-height:normal;font-family:sans-serif;font-variant-ligatures:normal;font-variant-position:normal;font-variant-caps:normal;font-variant-numeric:normal;font-variant-alternates:normal;font-feature-settings:normal;text-indent:0;text-align:start;text-decoration:none;text-decoration-line:none;text-decoration-style:solid;text-decoration-color:#000000;letter-spacing:normal;word-spacing:normal;text-transform:none;writing-mode:lr-tb;direction:ltr;text-orientation:mixed;dominant-baseline:auto;baseline-shift:baseline;text-anchor:start;white-space:normal;shape-padding:0;clip-rule:nonzero;display:inline;overflow:visible;visibility:visible;opacity:1;isolation:auto;mix-blend-mode:normal;color-interpolation:sRGB;color-interpolation-filters:linearRGB;solid-color:#000000;solid-opacity:1;vector-effect:none;fill:#000000;fill-opacity:1;fill-rule:nonzero;stroke:none;stroke-width:0.13229167;stroke-linecap:round;stroke-linejoin:round;stroke-miterlimit:4;stroke-dasharray:none;stroke-dashoffset:0;stroke-opacity:1;color-rendering:auto;image-rendering:auto;shape-rendering:auto;text-rendering:auto;enable-background:accumulate"/><path d="m -733.64844,220.85547 a 0.06615245,0.06615245 0 0 0 -0.0234,0.125 c 0.19809,0.10515 0.37163,0.27956 0.48047,0.47656 a 0.0668717,0.0668717 0 1 0 0.11719,-0.0644 c -0.12163,-0.22014 -0.31232,-0.41101 -0.53516,-0.5293 a 0.06615245,0.06615245 0 0 0 -0.0391,-0.008 z" id="path13535" style="color:#000000;font-style:normal;font-variant:normal;font-weight:normal;font-stretch:normal;font-size:medium;line-height:normal;font-family:sans-serif;font-variant-ligatures:normal;font-variant-position:normal;font-variant-caps:normal;font-variant-numeric:normal;font-variant-alternates:normal;font-feature-settings:normal;text-indent:0;text-align:start;text-decoration:none;text-decoration-line:none;text-decoration-style:solid;text-decoration-color:#000000;letter-spacing:normal;word-spacing:normal;text-transform:none;writing-mode:lr-tb;direction:ltr;text-orientation:mixed;dominant-baseline:auto;baseline-shift:baseline;text-anchor:start;white-space:normal;shape-padding:0;clip-rule:nonzero;display:inline;overflow:visible;visibility:visible;opacity:1;isolation:auto;mix-blend-mode:normal;color-interpolation:sRGB;color-interpolation-filters:linearRGB;solid-color:#000000;solid-opacity:1;vector-effect:none;fill:#000000;fill-opacity:1;fill-rule:nonzero;stroke:none;stroke-width:0.13229167;stroke-linecap:round;stroke-linejoin:round;stroke-miterlimit:4;stroke-dasharray:none;stroke-dashoffset:0;stroke-opacity:1;color-rendering:auto;image-rendering:auto;shape-rendering:auto;text-rendering:auto;enable-background:accumulate"/><path d="m -736.66406,223.81445 c -0.22347,0.009 -0.45319,0.11513 -0.58789,0.31055 -0.17622,0.25565 -0.1596,0.58237 -0.1211,0.84375 0.0213,0.14516 0.10617,0.27207 0.21094,0.40234 0.10477,0.13028 0.23565,0.26039 0.36328,0.37696 0.12764,0.11656 0.25178,0.22027 0.34766,0.29687 0.0479,0.0383 0.0899,0.0692 0.11914,0.0918 0.0146,0.0113 0.0249,0.0209 0.0332,0.0273 0.008,0.006 0.0205,0.0157 0.01,0.006 a 0.13230489,0.13230489 0 0 0 0.11328,0.0312 c 0,0 0.0263,-0.006 0.043,-0.0137 0.0166,-0.008 0.0369,-0.0201 0.0625,-0.0371 0.0512,-0.034 0.12591,-0.091 0.23828,-0.19531 a 0.13230489,0.13230489 0 1 0 -0.17969,-0.19336 c -0.0931,0.0864 -0.14512,0.12279 -0.18164,0.14844 -0.0264,-0.0205 -0.0543,-0.0423 -0.0918,-0.0723 -0.0929,-0.0742 -0.21445,-0.17421 -0.33593,-0.28516 -0.12149,-0.11094 -0.24279,-0.23426 -0.33399,-0.34765 -0.0912,-0.11339 -0.14829,-0.22128 -0.15625,-0.27539 -0.0348,-0.2365 -0.0307,-0.49927 0.0762,-0.6543 0.0752,-0.10904 0.24185,-0.1919 0.38086,-0.19727 0.0267,-0.001 0.1411,0.036 0.22852,0.082 0.0874,0.0461 0.15625,0.0918 0.15625,0.0918 a 0.13230489,0.13230489 0 0 0 0.13867,0.008 c 0,0 0.072,-0.0407 0.16602,-0.082 0.0913,-0.0401 0.20396,-0.0762 0.25586,-0.0801 0.16254,0.0119 0.2387,0.0384 0.38867,0.16211 a 0.13241469,0.13241469 0 1 0 0.16992,-0.20313 c -0.17884,-0.14752 -0.34486,-0.21057 -0.54688,-0.22461 a 0.13230489,0.13230489 0 0 0 -0.0137,0 c -0.12862,0.005 -0.2533,0.0569 -0.35937,0.10352 -0.0669,0.0294 -0.0857,0.0411 -0.11914,0.0586 -0.0324,-0.0208 -0.0492,-0.0346 -0.11328,-0.0684 -0.10266,-0.0541 -0.22096,-0.11705 -0.36133,-0.11133 z" id="path13537" style="color:#000000;font-style:normal;font-variant:normal;font-weight:normal;font-stretch:normal;font-size:medium;line-height:normal;font-family:sans-serif;font-variant-ligatures:normal;font-variant-position:normal;font-variant-caps:normal;font-variant-numeric:normal;font-variant-alternates:normal;font-feature-settings:normal;text-indent:0;text-align:start;text-decoration:none;text-decoration-line:none;text-decoration-style:solid;text-decoration-color:#000000;letter-spacing:normal;word-spacing:normal;text-transform:none;writing-mode:lr-tb;direction:ltr;text-orientation:mixed;dominant-baseline:auto;baseline-shift:baseline;text-anchor:start;white-space:normal;shape-padding:0;clip-rule:nonzero;display:inline;overflow:visible;visibility:visible;opacity:1;isolation:auto;mix-blend-mode:normal;color-interpolation:sRGB;color-interpolation-filters:linearRGB;solid-color:#000000;solid-opacity:1;vector-effect:none;fill:#000000;fill-opacity:1;fill-rule:nonzero;stroke:none;stroke-width:0.26458332px;stroke-linecap:round;stroke-linejoin:round;stroke-miterlimit:4;stroke-dasharray:none;stroke-dashoffset:0;stroke-opacity:1;color-rendering:auto;image-rendering:auto;shape-rendering:auto;text-rendering:auto;enable-background:accumulate"/><path d="m -736.69922,224.28906 a 0.06615245,0.06615245 0 0 0 -0.0234,0.008 c -0.0639,0.0327 -0.12054,0.0783 -0.16211,0.13867 -0.0532,0.0772 -0.0856,0.17071 -0.0977,0.26562 a 0.06615245,0.06615245 0 1 0 0.13086,0.0156 c 0.01,-0.0765 0.0374,-0.14872 0.0762,-0.20508 0.0267,-0.0387 0.066,-0.0735 0.11328,-0.0977 a 0.06615245,0.06615245 0 0 0 -0.0371,-0.125 z" id="path13539" style="color:#000000;font-style:normal;font-variant:normal;font-weight:normal;font-stretch:normal;font-size:medium;line-height:normal;font-family:sans-serif;font-variant-ligatures:normal;font-variant-position:normal;font-variant-caps:normal;font-variant-numeric:normal;font-variant-alternates:normal;font-feature-settings:normal;text-indent:0;text-align:start;text-decoration:none;text-decoration-line:none;text-decoration-style:solid;text-decoration-color:#000000;letter-spacing:normal;word-spacing:normal;text-transform:none;writing-mode:lr-tb;direction:ltr;text-orientation:mixed;dominant-baseline:auto;baseline-shift:baseline;text-anchor:start;white-space:normal;shape-padding:0;clip-rule:nonzero;display:inline;overflow:visible;visibility:visible;opacity:1;isolation:auto;mix-blend-mode:normal;color-interpolation:sRGB;color-interpolation-filters:linearRGB;solid-color:#000000;solid-opacity:1;vector-effect:none;fill:#000000;fill-opacity:1;fill-rule:nonzero;stroke:none;stroke-width:0.13229167;stroke-linecap:round;stroke-linejoin:round;stroke-miterlimit:4;stroke-dasharray:none;stroke-dashoffset:0;stroke-opacity:1;color-rendering:auto;image-rendering:auto;shape-rendering:auto;text-rendering:auto;enable-background:accumulate"/><path d="m -734.57617,224.33008 c -0.10842,-0.0217 -0.23326,0.0245 -0.32617,0.0605 -0.0603,0.0234 -0.0783,0.0344 -0.10743,0.0488 -0.0289,-0.0122 -0.0465,-0.0217 -0.10546,-0.041 -0.0914,-0.03 -0.19748,-0.0653 -0.31641,-0.0469 -0.1606,0.0249 -0.28547,0.12239 -0.37695,0.22656 -0.0765,0.0871 -0.0846,0.18161 -0.0977,0.24219 -0.0131,0.0606 -0.0231,0.0712 -0.0215,0.0703 -0.01,0.005 -0.12733,0.0116 -0.23047,-0.0137 -0.0683,-0.0137 -0.13323,-0.0426 -0.1896,-0.0606 -0.0863,-0.0347 -0.18047,0.0281 -0.18164,0.12109 10e-4,0.0786 0.0686,0.13679 0.11751,0.18294 0.22355,0.21111 0.40162,0.37134 0.65227,0.44399 0.22882,0.0625 0.43374,-0.0594 0.57813,-0.17187 0.0872,-0.0679 0.10457,-0.0963 0.14648,-0.14258 0.12519,0.12648 0.45393,0.42412 0.93946,0.27539 0.15838,-0.0485 0.28873,-0.17015 0.39843,-0.27734 0.10971,-0.1072 0.18946,-0.20508 0.18946,-0.20508 0.0785,-0.0986 -0.0123,-0.24069 -0.13477,-0.21094 0,0 -0.0877,0.0213 -0.19336,0.0332 -0.10564,0.0119 -0.22733,-0.003 -0.24414,-0.0137 10e-4,8.3e-4 -0.009,-0.0106 -0.0234,-0.0625 -0.0144,-0.0519 -0.0266,-0.13359 -0.0937,-0.21094 -0.12387,-0.15398 -0.23103,-0.21814 -0.37904,-0.24781 z m -0.041,0.26172 c 0.0891,0.0178 0.16659,0.0871 0.22071,0.16015 0.0226,0.0304 0.0199,0.0455 0.0371,0.10743 0.0172,0.0619 0.0445,0.15778 0.14063,0.21679 0.0888,0.0546 0.17796,0.0377 0.26758,0.0352 -0.0829,0.0708 -0.17702,0.14813 -0.22266,0.16211 -0.40338,0.12357 -0.76953,-0.28516 -0.76953,-0.28516 -0.0541,-0.0623 -0.15149,-0.0604 -0.20312,0.004 0,0 -0.0812,0.10102 -0.19727,0.1914 -0.11609,0.0904 -0.2529,0.15088 -0.34766,0.125 -0.1279,-0.0349 -0.24678,-0.14148 -0.34063,-0.20113 0.0558,0.0146 0.19331,0.016 0.2455,-0.0134 0.11026,-0.0618 0.12469,-0.14619 0.14006,-0.21727 0.0154,-0.0711 0.01,-0.0889 0.0352,-0.12304 0.0522,-0.0699 0.14988,-0.12964 0.22071,-0.14063 0.0183,-0.003 0.11688,0.012 0.19335,0.0371 0.0765,0.0251 0.13672,0.0527 0.13672,0.0527 0.0376,0.017 0.0809,0.0155 0.11719,-0.004 0,0 0.06,-0.0327 0.13672,-0.0625 0.0592,-0.028 0.12579,-0.0576 0.1894,-0.0448 z" id="path13541" style="color:#000000;font-style:normal;font-variant:normal;font-weight:normal;font-stretch:normal;font-size:medium;line-height:normal;font-family:sans-serif;font-variant-ligatures:normal;font-variant-position:normal;font-variant-caps:normal;font-variant-numeric:normal;font-variant-alternates:normal;font-feature-settings:normal;text-indent:0;text-align:start;text-decoration:none;text-decoration-line:none;text-decoration-style:solid;text-decoration-color:#000000;letter-spacing:normal;word-spacing:normal;text-transform:none;writing-mode:lr-tb;direction:ltr;text-orientation:mixed;dominant-baseline:auto;baseline-shift:baseline;text-anchor:start;white-space:normal;shape-padding:0;clip-rule:nonzero;display:inline;overflow:visible;visibility:visible;opacity:1;isolation:auto;mix-blend-mode:normal;color-interpolation:sRGB;color-interpolation-filters:linearRGB;solid-color:#000000;solid-opacity:1;vector-effect:none;fill:#000000;fill-opacity:1;fill-rule:nonzero;stroke:none;stroke-width:0.26458332;stroke-linecap:round;stroke-linejoin:round;stroke-miterlimit:4;stroke-dasharray:none;stroke-dashoffset:0;stroke-opacity:1;color-rendering:auto;image-rendering:auto;shape-rendering:auto;text-rendering:auto;enable-background:accumulate"/><path d="m -735.33398,224.6875 a 0.06615245,0.06615245 0 0 0 -0.004,0.002 c -0.0281,0.005 -0.0566,0.0102 -0.0859,0.0254 -0.078,0.0392 -0.1283,0.10831 -0.1582,0.17578 a 0.06615245,0.06615245 0 1 0 0.12109,0.0527 c 0.0207,-0.0467 0.0578,-0.0913 0.0977,-0.11133 0.005,-0.003 0.0244,-0.008 0.0469,-0.0117 a 0.06698555,0.06698555 0 0 0 -0.0176,-0.13281 z" id="path13543" style="color:#000000;font-style:normal;font-variant:normal;font-weight:normal;font-stretch:normal;font-size:medium;line-height:normal;font-family:sans-serif;font-variant-ligatures:normal;font-variant-position:normal;font-variant-caps:normal;font-variant-numeric:normal;font-variant-alternates:normal;font-feature-settings:normal;text-indent:0;text-align:start;text-decoration:none;text-decoration-line:none;text-decoration-style:solid;text-decoration-color:#000000;letter-spacing:normal;word-spacing:normal;text-transform:none;writing-mode:lr-tb;direction:ltr;text-orientation:mixed;dominant-baseline:auto;baseline-shift:baseline;text-anchor:start;white-space:normal;shape-padding:0;clip-rule:nonzero;display:inline;overflow:visible;visibility:visible;opacity:1;isolation:auto;mix-blend-mode:normal;color-interpolation:sRGB;color-interpolation-filters:linearRGB;solid-color:#000000;solid-opacity:1;vector-effect:none;fill:#000000;fill-opacity:1;fill-rule:nonzero;stroke:none;stroke-width:0.13229167;stroke-linecap:round;stroke-linejoin:round;stroke-miterlimit:4;stroke-dasharray:none;stroke-dashoffset:0;stroke-opacity:1;color-rendering:auto;image-rendering:auto;shape-rendering:auto;text-rendering:auto;enable-background:accumulate"/><path d="m -734.69922,224.70898 a 0.03969147,0.03969147 0 0 0 -0.0215,0.008 0.03969147,0.03969147 0 0 0 -0.006,0.006 0.03969147,0.03969147 0 0 0 -0.006,0.0469 0.03969147,0.03969147 0 0 0 0.008,0.01 0.03969147,0.03969147 0 0 0 0.01,0.006 0.03969147,0.03969147 0 0 0 0.008,0.002 l 0.19336,0.0527 a 0.03969147,0.03969147 0 0 0 0.0391,-0.0117 0.03969147,0.03969147 0 0 0 0.006,-0.006 0.03969147,0.03969147 0 0 0 -0.002,-0.0449 0.03969147,0.03969147 0 0 0 -0.006,-0.006 0.03969147,0.03969147 0 0 0 -0.01,-0.008 0.03969147,0.03969147 0 0 0 -0.008,-0.002 l -0.19336,-0.0508 a 0.03969147,0.03969147 0 0 0 -0.0117,-0.002 z" id="path13545" style="color:#000000;font-style:normal;font-variant:normal;font-weight:normal;font-stretch:normal;font-size:medium;line-height:normal;font-family:sans-serif;font-variant-ligatures:normal;font-variant-position:normal;font-variant-caps:normal;font-variant-numeric:normal;font-variant-alternates:normal;font-feature-settings:normal;text-indent:0;text-align:start;text-decoration:none;text-decoration-line:none;text-decoration-style:solid;text-decoration-color:#000000;letter-spacing:normal;word-spacing:normal;text-transform:none;writing-mode:lr-tb;direction:ltr;text-orientation:mixed;dominant-baseline:auto;baseline-shift:baseline;text-anchor:start;white-space:normal;shape-padding:0;clip-rule:nonzero;display:inline;overflow:visible;visibility:visible;opacity:1;isolation:auto;mix-blend-mode:normal;color-interpolation:sRGB;color-interpolation-filters:linearRGB;solid-color:#000000;solid-opacity:1;vector-effect:none;fill:#000000;fill-opacity:1;fill-rule:nonzero;stroke:none;stroke-width:0.079375;stroke-linecap:round;stroke-linejoin:round;stroke-miterlimit:4;stroke-dasharray:none;stroke-dashoffset:0;stroke-opacity:1;color-rendering:auto;image-rendering:auto;shape-rendering:auto;text-rendering:auto;enable-background:accumulate"/><path d="m -734.66602,224.85742 a 0.03969147,0.03969147 0 0 0 -0.0332,0.0195 0.03969147,0.03969147 0 0 0 0.002,0.0449 0.03969147,0.03969147 0 0 0 0.006,0.006 0.03969147,0.03969147 0 0 0 0.006,0.004 0.03969147,0.03969147 0 0 0 0.0117,0.004 l 0.20508,0.0547 a 0.03969147,0.03969147 0 0 0 0.0449,-0.0176 0.03969147,0.03969147 0 0 0 -0.002,-0.0449 0.03969147,0.03969147 0 0 0 -0.0117,-0.01 0.03969147,0.03969147 0 0 0 -0.01,-0.004 l -0.20703,-0.0547 a 0.03969147,0.03969147 0 0 0 -0.0117,-0.002 z" id="path13547" style="color:#000000;font-style:normal;font-variant:normal;font-weight:normal;font-stretch:normal;font-size:medium;line-height:normal;font-family:sans-serif;font-variant-ligatures:normal;font-variant-position:normal;font-variant-caps:normal;font-variant-numeric:normal;font-variant-alternates:normal;font-feature-settings:normal;text-indent:0;text-align:start;text-decoration:none;text-decoration-line:none;text-decoration-style:solid;text-decoration-color:#000000;letter-spacing:normal;word-spacing:normal;text-transform:none;writing-mode:lr-tb;direction:ltr;text-orientation:mixed;dominant-baseline:auto;baseline-shift:baseline;text-anchor:start;white-space:normal;shape-padding:0;clip-rule:nonzero;display:inline;overflow:visible;visibility:visible;opacity:1;isolation:auto;mix-blend-mode:normal;color-interpolation:sRGB;color-interpolation-filters:linearRGB;solid-color:#000000;solid-opacity:1;vector-effect:none;fill:#000000;fill-opacity:1;fill-rule:nonzero;stroke:none;stroke-width:0.079375;stroke-linecap:round;stroke-linejoin:round;stroke-miterlimit:4;stroke-dasharray:none;stroke-dashoffset:0;stroke-opacity:1;color-rendering:auto;image-rendering:auto;shape-rendering:auto;text-rendering:auto;enable-background:accumulate"/><path d="m -734.57031,225.05859 c -0.008,10e-4 -0.0155,0.005 -0.0215,0.01 l -0.006,0.006 c -0.01,0.0131 -0.0107,0.031 -0.002,0.0449 0.002,0.004 0.005,0.007 0.008,0.01 0.002,0.002 0.004,0.003 0.006,0.004 0.005,0.003 0.01,0.005 0.0156,0.006 l 0.20898,0.0332 c 0.012,0.002 0.0242,-0.002 0.0332,-0.01 0.004,-0.003 0.007,-0.007 0.01,-0.0117 0.0141,-0.0197 -0.006,-0.0578 -0.0297,-0.0569 l -0.21093,-0.0332 c -0.004,-0.001 -0.008,-0.002 -0.0117,-0.002 z" id="path13549" style="color:#000000;font-style:normal;font-variant:normal;font-weight:normal;font-stretch:normal;font-size:medium;line-height:normal;font-family:sans-serif;font-variant-ligatures:normal;font-variant-position:normal;font-variant-caps:normal;font-variant-numeric:normal;font-variant-alternates:normal;font-feature-settings:normal;text-indent:0;text-align:start;text-decoration:none;text-decoration-line:none;text-decoration-style:solid;text-decoration-color:#000000;letter-spacing:normal;word-spacing:normal;text-transform:none;writing-mode:lr-tb;direction:ltr;text-orientation:mixed;dominant-baseline:auto;baseline-shift:baseline;text-anchor:start;white-space:normal;shape-padding:0;clip-rule:nonzero;display:inline;overflow:visible;visibility:visible;opacity:1;isolation:auto;mix-blend-mode:normal;color-interpolation:sRGB;color-interpolation-filters:linearRGB;solid-color:#000000;solid-opacity:1;vector-effect:none;fill:#000000;fill-opacity:1;fill-rule:nonzero;stroke:none;stroke-width:0.079375;stroke-linecap:round;stroke-linejoin:round;stroke-miterlimit:4;stroke-dasharray:none;stroke-dashoffset:0;stroke-opacity:1;color-rendering:auto;image-rendering:auto;shape-rendering:auto;text-rendering:auto;enable-background:accumulate"/></g></g></svg>