<?xml version="1.0" ?><svg height="32" id="svg8" version="1.1" viewBox="0 0 8.4666665 8.4666669" width="32" xmlns="http://www.w3.org/2000/svg" xmlns:cc="http://creativecommons.org/ns#" xmlns:dc="http://purl.org/dc/elements/1.1/" xmlns:inkscape="http://www.inkscape.org/namespaces/inkscape" xmlns:rdf="http://www.w3.org/1999/02/22-rdf-syntax-ns#" xmlns:sodipodi="http://sodipodi.sourceforge.net/DTD/sodipodi-0.dtd" xmlns:svg="http://www.w3.org/2000/svg"><defs id="defs2"/><g id="layer1" transform="translate(0,-288.53332)"><g id="g13647" style="display:inline" transform="translate(796.54899,44.26375)"><path d="m -795.96141,244.33823 a 0.13230489,0.13230489 0 0 0 -0.11328,0.125 l -0.0117,0.18164 a 0.13230489,0.13230489 0 1 0 0.26368,0.0176 l 0.0117,-0.18164 a 0.13230489,0.13230489 0 0 0 -0.1504,-0.14258 z" id="path13585" style="color:#000000;font-style:normal;font-variant:normal;font-weight:normal;font-stretch:normal;font-size:medium;line-height:normal;font-family:sans-serif;font-variant-ligatures:normal;font-variant-position:normal;font-variant-caps:normal;font-variant-numeric:normal;font-variant-alternates:normal;font-feature-settings:normal;text-indent:0;text-align:start;text-decoration:none;text-decoration-line:none;text-decoration-style:solid;text-decoration-color:#000000;letter-spacing:normal;word-spacing:normal;text-transform:none;writing-mode:lr-tb;direction:ltr;text-orientation:mixed;dominant-baseline:auto;baseline-shift:baseline;text-anchor:start;white-space:normal;shape-padding:0;clip-rule:nonzero;display:inline;overflow:visible;visibility:visible;opacity:1;isolation:auto;mix-blend-mode:normal;color-interpolation:sRGB;color-interpolation-filters:linearRGB;solid-color:#000000;solid-opacity:1;vector-effect:none;fill:#000000;fill-opacity:1;fill-rule:nonzero;stroke:none;stroke-width:0.26458332px;stroke-linecap:round;stroke-linejoin:round;stroke-miterlimit:4;stroke-dasharray:none;stroke-dashoffset:0;stroke-opacity:1;color-rendering:auto;image-rendering:auto;shape-rendering:auto;text-rendering:auto;enable-background:accumulate"/><path d="m -795.94578,245.06284 a 0.13230489,0.13230489 0 0 0 -0.11523,0.15821 l 0.0293,0.15234 a 0.13230489,0.13230489 0 1 0 0.25977,-0.0488 l -0.0293,-0.15234 a 0.13230489,0.13230489 0 0 0 -0.14453,-0.10938 z" id="path13587" style="color:#000000;font-style:normal;font-variant:normal;font-weight:normal;font-stretch:normal;font-size:medium;line-height:normal;font-family:sans-serif;font-variant-ligatures:normal;font-variant-position:normal;font-variant-caps:normal;font-variant-numeric:normal;font-variant-alternates:normal;font-feature-settings:normal;text-indent:0;text-align:start;text-decoration:none;text-decoration-line:none;text-decoration-style:solid;text-decoration-color:#000000;letter-spacing:normal;word-spacing:normal;text-transform:none;writing-mode:lr-tb;direction:ltr;text-orientation:mixed;dominant-baseline:auto;baseline-shift:baseline;text-anchor:start;white-space:normal;shape-padding:0;clip-rule:nonzero;display:inline;overflow:visible;visibility:visible;opacity:1;isolation:auto;mix-blend-mode:normal;color-interpolation:sRGB;color-interpolation-filters:linearRGB;solid-color:#000000;solid-opacity:1;vector-effect:none;fill:#000000;fill-opacity:1;fill-rule:nonzero;stroke:none;stroke-width:0.26458332px;stroke-linecap:round;stroke-linejoin:round;stroke-miterlimit:4;stroke-dasharray:none;stroke-dashoffset:0;stroke-opacity:1;color-rendering:auto;image-rendering:auto;shape-rendering:auto;text-rendering:auto;enable-background:accumulate"/><path d="m -796.40672,244.80112 a 0.13230489,0.13230489 0 0 0 0.002,0.26368 l 0.1875,0.0176 a 0.13235448,0.13235448 0 1 0 0.0234,-0.26367 l -0.18554,-0.0176 a 0.13230489,0.13230489 0 0 0 -0.0274,0 z" id="path13589" style="color:#000000;font-style:normal;font-variant:normal;font-weight:normal;font-stretch:normal;font-size:medium;line-height:normal;font-family:sans-serif;font-variant-ligatures:normal;font-variant-position:normal;font-variant-caps:normal;font-variant-numeric:normal;font-variant-alternates:normal;font-feature-settings:normal;text-indent:0;text-align:start;text-decoration:none;text-decoration-line:none;text-decoration-style:solid;text-decoration-color:#000000;letter-spacing:normal;word-spacing:normal;text-transform:none;writing-mode:lr-tb;direction:ltr;text-orientation:mixed;dominant-baseline:auto;baseline-shift:baseline;text-anchor:start;white-space:normal;shape-padding:0;clip-rule:nonzero;display:inline;overflow:visible;visibility:visible;opacity:1;isolation:auto;mix-blend-mode:normal;color-interpolation:sRGB;color-interpolation-filters:linearRGB;solid-color:#000000;solid-opacity:1;vector-effect:none;fill:#000000;fill-opacity:1;fill-rule:nonzero;stroke:none;stroke-width:0.26458332px;stroke-linecap:round;stroke-linejoin:round;stroke-miterlimit:4;stroke-dasharray:none;stroke-dashoffset:0;stroke-opacity:1;color-rendering:auto;image-rendering:auto;shape-rendering:auto;text-rendering:auto;enable-background:accumulate"/><path d="m -795.6782,244.73081 a 0.13283006,0.13283006 0 0 0 -0.004,0.26563 l 0.16211,0.0117 a 0.13317349,0.13317349 0 1 0 0.0195,-0.26563 l -0.16406,-0.0117 a 0.13230489,0.13230489 0 0 0 -0.0137,0 z" id="path13591" style="color:#000000;font-style:normal;font-variant:normal;font-weight:normal;font-stretch:normal;font-size:medium;line-height:normal;font-family:sans-serif;font-variant-ligatures:normal;font-variant-position:normal;font-variant-caps:normal;font-variant-numeric:normal;font-variant-alternates:normal;font-feature-settings:normal;text-indent:0;text-align:start;text-decoration:none;text-decoration-line:none;text-decoration-style:solid;text-decoration-color:#000000;letter-spacing:normal;word-spacing:normal;text-transform:none;writing-mode:lr-tb;direction:ltr;text-orientation:mixed;dominant-baseline:auto;baseline-shift:baseline;text-anchor:start;white-space:normal;shape-padding:0;clip-rule:nonzero;display:inline;overflow:visible;visibility:visible;opacity:1;isolation:auto;mix-blend-mode:normal;color-interpolation:sRGB;color-interpolation-filters:linearRGB;solid-color:#000000;solid-opacity:1;vector-effect:none;fill:#000000;fill-opacity:1;fill-rule:nonzero;stroke:none;stroke-width:0.26458332px;stroke-linecap:round;stroke-linejoin:round;stroke-miterlimit:4;stroke-dasharray:none;stroke-dashoffset:0;stroke-opacity:1;color-rendering:auto;image-rendering:auto;shape-rendering:auto;text-rendering:auto;enable-background:accumulate"/><path d="m -788.69531,245.61914 a 0.13230489,0.13230489 0 0 0 -0.11133,0.125 l -0.0117,0.18164 a 0.13230489,0.13230489 0 1 0 0.26367,0.0156 l 0.0117,-0.18164 a 0.13230489,0.13230489 0 0 0 -0.15234,-0.14063 z" id="path13593" style="color:#000000;font-style:normal;font-variant:normal;font-weight:normal;font-stretch:normal;font-size:medium;line-height:normal;font-family:sans-serif;font-variant-ligatures:normal;font-variant-position:normal;font-variant-caps:normal;font-variant-numeric:normal;font-variant-alternates:normal;font-feature-settings:normal;text-indent:0;text-align:start;text-decoration:none;text-decoration-line:none;text-decoration-style:solid;text-decoration-color:#000000;letter-spacing:normal;word-spacing:normal;text-transform:none;writing-mode:lr-tb;direction:ltr;text-orientation:mixed;dominant-baseline:auto;baseline-shift:baseline;text-anchor:start;white-space:normal;shape-padding:0;clip-rule:nonzero;display:inline;overflow:visible;visibility:visible;opacity:1;isolation:auto;mix-blend-mode:normal;color-interpolation:sRGB;color-interpolation-filters:linearRGB;solid-color:#000000;solid-opacity:1;vector-effect:none;fill:#000000;fill-opacity:1;fill-rule:nonzero;stroke:none;stroke-width:0.26458332px;stroke-linecap:round;stroke-linejoin:round;stroke-miterlimit:4;stroke-dasharray:none;stroke-dashoffset:0;stroke-opacity:1;color-rendering:auto;image-rendering:auto;shape-rendering:auto;text-rendering:auto;enable-background:accumulate"/><path d="m -788.67773,246.34375 a 0.13230489,0.13230489 0 0 0 -0.11524,0.1582 l 0.0293,0.15235 a 0.13234037,0.13234037 0 1 0 0.25976,-0.0508 l -0.0293,-0.1504 a 0.13230489,0.13230489 0 0 0 -0.14453,-0.10937 z" id="path13595" style="color:#000000;font-style:normal;font-variant:normal;font-weight:normal;font-stretch:normal;font-size:medium;line-height:normal;font-family:sans-serif;font-variant-ligatures:normal;font-variant-position:normal;font-variant-caps:normal;font-variant-numeric:normal;font-variant-alternates:normal;font-feature-settings:normal;text-indent:0;text-align:start;text-decoration:none;text-decoration-line:none;text-decoration-style:solid;text-decoration-color:#000000;letter-spacing:normal;word-spacing:normal;text-transform:none;writing-mode:lr-tb;direction:ltr;text-orientation:mixed;dominant-baseline:auto;baseline-shift:baseline;text-anchor:start;white-space:normal;shape-padding:0;clip-rule:nonzero;display:inline;overflow:visible;visibility:visible;opacity:1;isolation:auto;mix-blend-mode:normal;color-interpolation:sRGB;color-interpolation-filters:linearRGB;solid-color:#000000;solid-opacity:1;vector-effect:none;fill:#000000;fill-opacity:1;fill-rule:nonzero;stroke:none;stroke-width:0.26458332px;stroke-linecap:round;stroke-linejoin:round;stroke-miterlimit:4;stroke-dasharray:none;stroke-dashoffset:0;stroke-opacity:1;color-rendering:auto;image-rendering:auto;shape-rendering:auto;text-rendering:auto;enable-background:accumulate"/><path d="m -789.13867,246.08203 a 0.13230489,0.13230489 0 0 0 0,0.26367 l 0.1875,0.0176 a 0.1324453,0.1324453 0 1 0 0.0254,-0.26367 l -0.1875,-0.0176 a 0.13230489,0.13230489 0 0 0 -0.0254,0 z" id="path13597" style="color:#000000;font-style:normal;font-variant:normal;font-weight:normal;font-stretch:normal;font-size:medium;line-height:normal;font-family:sans-serif;font-variant-ligatures:normal;font-variant-position:normal;font-variant-caps:normal;font-variant-numeric:normal;font-variant-alternates:normal;font-feature-settings:normal;text-indent:0;text-align:start;text-decoration:none;text-decoration-line:none;text-decoration-style:solid;text-decoration-color:#000000;letter-spacing:normal;word-spacing:normal;text-transform:none;writing-mode:lr-tb;direction:ltr;text-orientation:mixed;dominant-baseline:auto;baseline-shift:baseline;text-anchor:start;white-space:normal;shape-padding:0;clip-rule:nonzero;display:inline;overflow:visible;visibility:visible;opacity:1;isolation:auto;mix-blend-mode:normal;color-interpolation:sRGB;color-interpolation-filters:linearRGB;solid-color:#000000;solid-opacity:1;vector-effect:none;fill:#000000;fill-opacity:1;fill-rule:nonzero;stroke:none;stroke-width:0.26458332px;stroke-linecap:round;stroke-linejoin:round;stroke-miterlimit:4;stroke-dasharray:none;stroke-dashoffset:0;stroke-opacity:1;color-rendering:auto;image-rendering:auto;shape-rendering:auto;text-rendering:auto;enable-background:accumulate"/><path d="m -788.42383,246.01172 a 0.13230489,0.13230489 0 0 0 0.008,0.26367 l 0.16407,0.0117 a 0.13230489,0.13230489 0 1 0 0.0195,-0.26367 l -0.16406,-0.0117 a 0.13230489,0.13230489 0 0 0 -0.0273,0 z" id="path13599" style="color:#000000;font-style:normal;font-variant:normal;font-weight:normal;font-stretch:normal;font-size:medium;line-height:normal;font-family:sans-serif;font-variant-ligatures:normal;font-variant-position:normal;font-variant-caps:normal;font-variant-numeric:normal;font-variant-alternates:normal;font-feature-settings:normal;text-indent:0;text-align:start;text-decoration:none;text-decoration-line:none;text-decoration-style:solid;text-decoration-color:#000000;letter-spacing:normal;word-spacing:normal;text-transform:none;writing-mode:lr-tb;direction:ltr;text-orientation:mixed;dominant-baseline:auto;baseline-shift:baseline;text-anchor:start;white-space:normal;shape-padding:0;clip-rule:nonzero;display:inline;overflow:visible;visibility:visible;opacity:1;isolation:auto;mix-blend-mode:normal;color-interpolation:sRGB;color-interpolation-filters:linearRGB;solid-color:#000000;solid-opacity:1;vector-effect:none;fill:#000000;fill-opacity:1;fill-rule:nonzero;stroke:none;stroke-width:0.26458332px;stroke-linecap:round;stroke-linejoin:round;stroke-miterlimit:4;stroke-dasharray:none;stroke-dashoffset:0;stroke-opacity:1;color-rendering:auto;image-rendering:auto;shape-rendering:auto;text-rendering:auto;enable-background:accumulate"/><path d="m -789.0906,245.00984 c 0,0.0731 -0.0644,0.12299 -0.13746,0.12299 -0.0731,0 -0.13126,-0.0758 -0.13126,-0.14883 0,-0.0731 0.0582,-0.11575 0.13126,-0.11575 0.0731,0 0.13746,0.0685 0.13746,0.14159 z" id="path13601" style="opacity:1;fill:#000000;fill-opacity:1;stroke:none;stroke-width:0.13229166;stroke-linecap:round;stroke-linejoin:round;stroke-miterlimit:4;stroke-dasharray:none;stroke-opacity:1"/><path d="m -788.67719,247.34148 c 0,0.0731 -0.0644,0.12299 -0.13746,0.12299 -0.0731,0 -0.13126,-0.0758 -0.13126,-0.14883 0,-0.0731 0.0582,-0.11575 0.13126,-0.11575 0.0731,0 0.13746,0.0685 0.13746,0.14159 z" id="path13603" style="opacity:1;fill:#000000;fill-opacity:1;stroke:none;stroke-width:0.13229166;stroke-linecap:round;stroke-linejoin:round;stroke-miterlimit:4;stroke-dasharray:none;stroke-opacity:1"/><path d="m -796.06825,246.428 c 0,0.0731 -0.0644,0.12299 -0.13746,0.12299 -0.0731,0 -0.13126,-0.0758 -0.13126,-0.14883 0,-0.0731 0.0582,-0.11575 0.13126,-0.11575 0.0731,0 0.13746,0.0685 0.13746,0.14159 z" id="path13605" style="opacity:1;fill:#000000;fill-opacity:1;stroke:none;stroke-width:0.13229166;stroke-linecap:round;stroke-linejoin:round;stroke-miterlimit:4;stroke-dasharray:none;stroke-opacity:1"/><path d="m -795.62391,245.94859 c 0,0.0731 -0.0644,0.12299 -0.13746,0.12299 -0.0731,0 -0.13126,-0.0758 -0.13126,-0.14883 0,-0.0731 0.0582,-0.11575 0.13126,-0.11575 0.0731,0 0.13746,0.0685 0.13746,0.14159 z" id="path13607" style="opacity:1;fill:#000000;fill-opacity:1;stroke:none;stroke-width:0.13229166;stroke-linecap:round;stroke-linejoin:round;stroke-miterlimit:4;stroke-dasharray:none;stroke-opacity:1"/><path d="m -789.91602,246.9082 c -0.1132,0.002 -0.17138,0.1365 -0.0957,0.22071 l 1.00781,1.15234 c 0.005,0.0239 0.13157,0.59653 0.20899,1.32813 0.079,0.74662 0.0935,1.63396 -0.10742,2.13867 -0.0693,0.17406 -0.22189,0.35338 -0.36524,0.38281 -1.80773,0.37137 -4.05539,0.28588 -6.07031,0.19531 -0.0988,-0.004 -0.21979,-0.0245 -0.3125,-0.0625 -0.0927,-0.038 -0.14661,-0.0873 -0.16211,-0.14062 -0.15075,-0.51893 -0.20608,-1.45955 -0.21094,-2.27149 -0.002,-0.40596 0.006,-0.78181 0.0195,-1.06054 0.007,-0.13937 0.0155,-0.25443 0.0234,-0.33594 0.005,-0.0315 0.004,-0.0638 0.006,-0.0957 0.22305,-0.37372 0.5594,-0.63675 1.02344,-0.99219 0.14063,-0.10807 -0.0215,-0.31901 -0.16211,-0.21094 -0.4648,0.35602 -0.83338,0.63998 -1.08789,1.06641 -0.0398,0.0674 -0.031,0.13985 -0.043,0.20703 -0.009,0.0882 -0.0164,0.20543 -0.0234,0.34765 -0.014,0.28445 -0.0239,0.66515 -0.0215,1.07618 0.005,0.82205 0.0537,1.76207 0.22265,2.34375 0.0464,0.15969 0.18039,0.25552 0.31446,0.31054 0.13406,0.055 0.2795,0.0765 0.40234,0.082 2.01614,0.0906 4.27724,0.18044 6.13477,-0.20117 0.28426,-0.0584 0.46643,-0.31143 0.55859,-0.54297 0.23959,-0.60193 0.20571,-1.50102 0.125,-2.26367 -0.0807,-0.76265 -0.2168,-1.38476 -0.2168,-1.38476 -0.005,-0.0217 -0.0148,-0.0418 -0.0293,-0.0586 l -1.03516,-1.18359 c -0.0257,-0.0304 -0.0637,-0.0476 -0.10352,-0.0469 z" id="path13609" style="color:#000000;font-style:normal;font-variant:normal;font-weight:normal;font-stretch:normal;font-size:medium;line-height:normal;font-family:sans-serif;font-variant-ligatures:normal;font-variant-position:normal;font-variant-caps:normal;font-variant-numeric:normal;font-variant-alternates:normal;font-feature-settings:normal;text-indent:0;text-align:start;text-decoration:none;text-decoration-line:none;text-decoration-style:solid;text-decoration-color:#000000;letter-spacing:normal;word-spacing:normal;text-transform:none;writing-mode:lr-tb;direction:ltr;text-orientation:mixed;dominant-baseline:auto;baseline-shift:baseline;text-anchor:start;white-space:normal;shape-padding:0;clip-rule:nonzero;display:inline;overflow:visible;visibility:visible;opacity:1;isolation:auto;mix-blend-mode:normal;color-interpolation:sRGB;color-interpolation-filters:linearRGB;solid-color:#000000;solid-opacity:1;vector-effect:none;fill:#000000;fill-opacity:1;fill-rule:nonzero;stroke:none;stroke-width:0.26458332px;stroke-linecap:round;stroke-linejoin:round;stroke-miterlimit:4;stroke-dasharray:none;stroke-dashoffset:0;stroke-opacity:1;color-rendering:auto;image-rendering:auto;shape-rendering:auto;text-rendering:auto;enable-background:accumulate"/><path d="m -795.00977,245.13281 a 0.13230489,0.13230489 0 0 0 -0.11914,0.125 c -0.0828,1.3924 -0.0101,2.62364 0,3.91016 l 0.26563,-0.002 c -0.01,-1.25348 -0.0698,-2.4468 0,-3.76758 1.49775,0.27626 3.08691,0.2121 4.68555,0.0957 0.0911,1.3119 0.12747,2.46319 0.1914,3.69727 l 0.26563,-0.0137 c -0.0658,-1.27079 -0.10069,-2.44919 -0.19922,-3.82226 a 0.13230489,0.13230489 0 0 0 -0.14258,-0.12305 c -1.69516,0.12551 -3.36958,0.21244 -4.9082,-0.0976 a 0.13230489,0.13230489 0 0 0 -0.0391,-0.002 z" id="path13611" style="color:#000000;font-style:normal;font-variant:normal;font-weight:normal;font-stretch:normal;font-size:medium;line-height:normal;font-family:sans-serif;font-variant-ligatures:normal;font-variant-position:normal;font-variant-caps:normal;font-variant-numeric:normal;font-variant-alternates:normal;font-feature-settings:normal;text-indent:0;text-align:start;text-decoration:none;text-decoration-line:none;text-decoration-style:solid;text-decoration-color:#000000;letter-spacing:normal;word-spacing:normal;text-transform:none;writing-mode:lr-tb;direction:ltr;text-orientation:mixed;dominant-baseline:auto;baseline-shift:baseline;text-anchor:start;white-space:normal;shape-padding:0;clip-rule:nonzero;display:inline;overflow:visible;visibility:visible;opacity:1;isolation:auto;mix-blend-mode:normal;color-interpolation:sRGB;color-interpolation-filters:linearRGB;solid-color:#000000;solid-opacity:1;vector-effect:none;fill:#000000;fill-opacity:1;fill-rule:nonzero;stroke:none;stroke-width:0.26458332px;stroke-linecap:butt;stroke-linejoin:round;stroke-miterlimit:4;stroke-dasharray:none;stroke-dashoffset:0;stroke-opacity:1;color-rendering:auto;image-rendering:auto;shape-rendering:auto;text-rendering:auto;enable-background:accumulate"/><path d="m -795.95117,248.20312 -0.16406,0.20704 c 0.85468,0.68194 1.74518,1.31046 2.19726,2.01953 l 0.22461,-0.14258 c -0.49756,-0.7804 -1.41227,-1.40933 -2.25781,-2.08399 z" id="path13613" style="color:#000000;font-style:normal;font-variant:normal;font-weight:normal;font-stretch:normal;font-size:medium;line-height:normal;font-family:sans-serif;font-variant-ligatures:normal;font-variant-position:normal;font-variant-caps:normal;font-variant-numeric:normal;font-variant-alternates:normal;font-feature-settings:normal;text-indent:0;text-align:start;text-decoration:none;text-decoration-line:none;text-decoration-style:solid;text-decoration-color:#000000;letter-spacing:normal;word-spacing:normal;text-transform:none;writing-mode:lr-tb;direction:ltr;text-orientation:mixed;dominant-baseline:auto;baseline-shift:baseline;text-anchor:start;white-space:normal;shape-padding:0;clip-rule:nonzero;display:inline;overflow:visible;visibility:visible;opacity:1;isolation:auto;mix-blend-mode:normal;color-interpolation:sRGB;color-interpolation-filters:linearRGB;solid-color:#000000;solid-opacity:1;vector-effect:none;fill:#000000;fill-opacity:1;fill-rule:nonzero;stroke:none;stroke-width:0.26458332px;stroke-linecap:butt;stroke-linejoin:miter;stroke-miterlimit:4;stroke-dasharray:none;stroke-dashoffset:0;stroke-opacity:1;color-rendering:auto;image-rendering:auto;shape-rendering:auto;text-rendering:auto;enable-background:accumulate"/><path d="m -789,248.13867 -2.19336,2.20313 0.18945,0.1875 2.19141,-2.20508 z" id="path13615" style="color:#000000;font-style:normal;font-variant:normal;font-weight:normal;font-stretch:normal;font-size:medium;line-height:normal;font-family:sans-serif;font-variant-ligatures:normal;font-variant-position:normal;font-variant-caps:normal;font-variant-numeric:normal;font-variant-alternates:normal;font-feature-settings:normal;text-indent:0;text-align:start;text-decoration:none;text-decoration-line:none;text-decoration-style:solid;text-decoration-color:#000000;letter-spacing:normal;word-spacing:normal;text-transform:none;writing-mode:lr-tb;direction:ltr;text-orientation:mixed;dominant-baseline:auto;baseline-shift:baseline;text-anchor:start;white-space:normal;shape-padding:0;clip-rule:nonzero;display:inline;overflow:visible;visibility:visible;opacity:1;isolation:auto;mix-blend-mode:normal;color-interpolation:sRGB;color-interpolation-filters:linearRGB;solid-color:#000000;solid-opacity:1;vector-effect:none;fill:#000000;fill-opacity:1;fill-rule:nonzero;stroke:none;stroke-width:0.26458332px;stroke-linecap:butt;stroke-linejoin:miter;stroke-miterlimit:4;stroke-dasharray:none;stroke-dashoffset:0;stroke-opacity:1;color-rendering:auto;image-rendering:auto;shape-rendering:auto;text-rendering:auto;enable-background:accumulate"/><path d="m -792.41406,249.25 c -0.16574,-0.001 -0.33381,0.043 -0.46289,0.14648 -0.38103,0.3054 -1.11761,0.98986 -1.7793,1.59961 -0.33084,0.30488 -0.64293,0.59056 -0.87695,0.79688 -0.11701,0.10316 -0.2138,0.18736 -0.28321,0.24219 -0.0347,0.0274 -0.064,0.0483 -0.0801,0.0586 -0.008,0.005 -0.0124,0.007 -0.01,0.006 10e-4,-5.9e-4 0.005,-0.002 0.0137,-0.004 0.004,-0.001 0.009,-0.003 0.0176,-0.004 0.008,-5.1e-4 0.0341,0.004 0.0332,0.004 l -0.0547,0.25782 c 8.9e-4,1.9e-4 0.0285,0.005 0.0391,0.004 0.0106,-6.5e-4 0.0182,-0.002 0.0254,-0.004 0.0144,-0.003 0.0243,-0.008 0.0332,-0.0117 0.0178,-0.008 0.0322,-0.016 0.0469,-0.0254 0.0294,-0.0189 0.0612,-0.0439 0.0996,-0.0742 0.0767,-0.0606 0.17615,-0.14529 0.29492,-0.25 0.23754,-0.20942 0.54974,-0.49566 0.88086,-0.80078 0.66223,-0.61025 1.40585,-1.29953 1.76562,-1.58789 0.0656,-0.0526 0.18065,-0.0888 0.29492,-0.0879 0.11428,9e-4 0.22138,0.0375 0.2793,0.0918 0.81454,0.76399 2.97266,2.68164 2.97266,2.68164 l 0.17578,-0.19922 c 0,0 -2.16138,-1.92035 -2.9668,-2.67578 -0.12404,-0.11634 -0.29324,-0.16276 -0.45898,-0.16406 z" id="path13617" style="color:#000000;font-style:normal;font-variant:normal;font-weight:normal;font-stretch:normal;font-size:medium;line-height:normal;font-family:sans-serif;font-variant-ligatures:normal;font-variant-position:normal;font-variant-caps:normal;font-variant-numeric:normal;font-variant-alternates:normal;font-feature-settings:normal;text-indent:0;text-align:start;text-decoration:none;text-decoration-line:none;text-decoration-style:solid;text-decoration-color:#000000;letter-spacing:normal;word-spacing:normal;text-transform:none;writing-mode:lr-tb;direction:ltr;text-orientation:mixed;dominant-baseline:auto;baseline-shift:baseline;text-anchor:start;white-space:normal;shape-padding:0;clip-rule:nonzero;display:inline;overflow:visible;visibility:visible;opacity:1;isolation:auto;mix-blend-mode:normal;color-interpolation:sRGB;color-interpolation-filters:linearRGB;solid-color:#000000;solid-opacity:1;vector-effect:none;fill:#000000;fill-opacity:1;fill-rule:nonzero;stroke:none;stroke-width:0.26458332px;stroke-linecap:butt;stroke-linejoin:miter;stroke-miterlimit:4;stroke-dasharray:none;stroke-dashoffset:0;stroke-opacity:1;color-rendering:auto;image-rendering:auto;shape-rendering:auto;text-rendering:auto;enable-background:accumulate"/><path d="m -792.4707,249.85938 c -0.073,0.007 -0.13282,0.0215 -0.13282,0.0215 a 0.06615245,0.06615245 0 1 0 0.0273,0.12891 c 0,0 0.0522,-0.0109 0.11719,-0.0176 0.065,-0.007 0.14349,-0.005 0.16992,0.006 a 0.06615245,0.06615245 0 0 0 0.002,0 c 0.0823,0.0327 0.20414,0.14852 0.29688,0.25586 0.0927,0.10733 0.16015,0.20507 0.16015,0.20507 a 0.06665288,0.06665288 0 1 0 0.10938,-0.0762 c 0,0 -0.072,-0.10146 -0.16992,-0.21484 -0.098,-0.11339 -0.21712,-0.24114 -0.34766,-0.29297 -0.0748,-0.0299 -0.15942,-0.0231 -0.23242,-0.0156 z" id="path13619" style="color:#000000;font-style:normal;font-variant:normal;font-weight:normal;font-stretch:normal;font-size:medium;line-height:normal;font-family:sans-serif;font-variant-ligatures:normal;font-variant-position:normal;font-variant-caps:normal;font-variant-numeric:normal;font-variant-alternates:normal;font-feature-settings:normal;text-indent:0;text-align:start;text-decoration:none;text-decoration-line:none;text-decoration-style:solid;text-decoration-color:#000000;letter-spacing:normal;word-spacing:normal;text-transform:none;writing-mode:lr-tb;direction:ltr;text-orientation:mixed;dominant-baseline:auto;baseline-shift:baseline;text-anchor:start;white-space:normal;shape-padding:0;clip-rule:nonzero;display:inline;overflow:visible;visibility:visible;opacity:1;isolation:auto;mix-blend-mode:normal;color-interpolation:sRGB;color-interpolation-filters:linearRGB;solid-color:#000000;solid-opacity:1;vector-effect:none;fill:#000000;fill-opacity:1;fill-rule:nonzero;stroke:none;stroke-width:0.13229167;stroke-linecap:round;stroke-linejoin:round;stroke-miterlimit:4;stroke-dasharray:none;stroke-dashoffset:0;stroke-opacity:1;color-rendering:auto;image-rendering:auto;shape-rendering:auto;text-rendering:auto;enable-background:accumulate"/><path d="m -789.69727,251.01953 a 0.06615245,0.06615245 0 0 0 -0.0352,0.11524 l 0.54492,0.51171 a 0.06615245,0.06615245 0 1 0 0.0898,-0.0957 l -0.54492,-0.51367 a 0.06615245,0.06615245 0 0 0 -0.0547,-0.0176 z" id="path13621" style="color:#000000;font-style:normal;font-variant:normal;font-weight:normal;font-stretch:normal;font-size:medium;line-height:normal;font-family:sans-serif;font-variant-ligatures:normal;font-variant-position:normal;font-variant-caps:normal;font-variant-numeric:normal;font-variant-alternates:normal;font-feature-settings:normal;text-indent:0;text-align:start;text-decoration:none;text-decoration-line:none;text-decoration-style:solid;text-decoration-color:#000000;letter-spacing:normal;word-spacing:normal;text-transform:none;writing-mode:lr-tb;direction:ltr;text-orientation:mixed;dominant-baseline:auto;baseline-shift:baseline;text-anchor:start;white-space:normal;shape-padding:0;clip-rule:nonzero;display:inline;overflow:visible;visibility:visible;opacity:1;isolation:auto;mix-blend-mode:normal;color-interpolation:sRGB;color-interpolation-filters:linearRGB;solid-color:#000000;solid-opacity:1;vector-effect:none;fill:#000000;fill-opacity:1;fill-rule:nonzero;stroke:none;stroke-width:0.13229167;stroke-linecap:round;stroke-linejoin:round;stroke-miterlimit:4;stroke-dasharray:none;stroke-dashoffset:0;stroke-opacity:1;color-rendering:auto;image-rendering:auto;shape-rendering:auto;text-rendering:auto;enable-background:accumulate"/><path d="m -789.68164,250.64648 a 0.06615245,0.06615245 0 0 0 -0.043,0.11524 l 0.57031,0.54492 a 0.0663056,0.0663056 0 1 0 0.0918,-0.0957 l -0.57227,-0.54492 a 0.06615245,0.06615245 0 0 0 -0.0469,-0.0195 z" id="path13623" style="color:#000000;font-style:normal;font-variant:normal;font-weight:normal;font-stretch:normal;font-size:medium;line-height:normal;font-family:sans-serif;font-variant-ligatures:normal;font-variant-position:normal;font-variant-caps:normal;font-variant-numeric:normal;font-variant-alternates:normal;font-feature-settings:normal;text-indent:0;text-align:start;text-decoration:none;text-decoration-line:none;text-decoration-style:solid;text-decoration-color:#000000;letter-spacing:normal;word-spacing:normal;text-transform:none;writing-mode:lr-tb;direction:ltr;text-orientation:mixed;dominant-baseline:auto;baseline-shift:baseline;text-anchor:start;white-space:normal;shape-padding:0;clip-rule:nonzero;display:inline;overflow:visible;visibility:visible;opacity:1;isolation:auto;mix-blend-mode:normal;color-interpolation:sRGB;color-interpolation-filters:linearRGB;solid-color:#000000;solid-opacity:1;vector-effect:none;fill:#000000;fill-opacity:1;fill-rule:nonzero;stroke:none;stroke-width:0.13229167;stroke-linecap:round;stroke-linejoin:round;stroke-miterlimit:4;stroke-dasharray:none;stroke-dashoffset:0;stroke-opacity:1;color-rendering:auto;image-rendering:auto;shape-rendering:auto;text-rendering:auto;enable-background:accumulate"/><path d="m -789.59766,250.39844 a 0.06615245,0.06615245 0 0 0 -0.041,0.11914 l 0.62109,0.49609 a 0.06615245,0.06615245 0 1 0 0.082,-0.10351 l -0.62109,-0.4961 a 0.06615245,0.06615245 0 0 0 -0.041,-0.0156 z" id="path13625" style="color:#000000;font-style:normal;font-variant:normal;font-weight:normal;font-stretch:normal;font-size:medium;line-height:normal;font-family:sans-serif;font-variant-ligatures:normal;font-variant-position:normal;font-variant-caps:normal;font-variant-numeric:normal;font-variant-alternates:normal;font-feature-settings:normal;text-indent:0;text-align:start;text-decoration:none;text-decoration-line:none;text-decoration-style:solid;text-decoration-color:#000000;letter-spacing:normal;word-spacing:normal;text-transform:none;writing-mode:lr-tb;direction:ltr;text-orientation:mixed;dominant-baseline:auto;baseline-shift:baseline;text-anchor:start;white-space:normal;shape-padding:0;clip-rule:nonzero;display:inline;overflow:visible;visibility:visible;opacity:1;isolation:auto;mix-blend-mode:normal;color-interpolation:sRGB;color-interpolation-filters:linearRGB;solid-color:#000000;solid-opacity:1;vector-effect:none;fill:#000000;fill-opacity:1;fill-rule:nonzero;stroke:none;stroke-width:0.13229167;stroke-linecap:round;stroke-linejoin:round;stroke-miterlimit:4;stroke-dasharray:none;stroke-dashoffset:0;stroke-opacity:1;color-rendering:auto;image-rendering:auto;shape-rendering:auto;text-rendering:auto;enable-background:accumulate"/><path d="m -789.50195,250.18359 a 0.06615245,0.06615245 0 0 0 -0.0352,0.1211 l 0.5957,0.4375 a 0.06615245,0.06615245 0 1 0 0.0781,-0.10547 l -0.5957,-0.43945 a 0.06615245,0.06615245 0 0 0 -0.043,-0.0137 z" id="path13627" style="color:#000000;font-style:normal;font-variant:normal;font-weight:normal;font-stretch:normal;font-size:medium;line-height:normal;font-family:sans-serif;font-variant-ligatures:normal;font-variant-position:normal;font-variant-caps:normal;font-variant-numeric:normal;font-variant-alternates:normal;font-feature-settings:normal;text-indent:0;text-align:start;text-decoration:none;text-decoration-line:none;text-decoration-style:solid;text-decoration-color:#000000;letter-spacing:normal;word-spacing:normal;text-transform:none;writing-mode:lr-tb;direction:ltr;text-orientation:mixed;dominant-baseline:auto;baseline-shift:baseline;text-anchor:start;white-space:normal;shape-padding:0;clip-rule:nonzero;display:inline;overflow:visible;visibility:visible;opacity:1;isolation:auto;mix-blend-mode:normal;color-interpolation:sRGB;color-interpolation-filters:linearRGB;solid-color:#000000;solid-opacity:1;vector-effect:none;fill:#000000;fill-opacity:1;fill-rule:nonzero;stroke:none;stroke-width:0.13229167;stroke-linecap:round;stroke-linejoin:round;stroke-miterlimit:4;stroke-dasharray:none;stroke-dashoffset:0;stroke-opacity:1;color-rendering:auto;image-rendering:auto;shape-rendering:auto;text-rendering:auto;enable-background:accumulate"/><path d="m -789.38281,249.91992 a 0.06615245,0.06615245 0 0 0 -0.0312,0.11914 l 0.49609,0.38086 a 0.0662192,0.0662192 0 1 0 0.0801,-0.10547 l -0.49609,-0.38086 a 0.06615245,0.06615245 0 0 0 -0.0488,-0.0137 z" id="path13629" style="color:#000000;font-style:normal;font-variant:normal;font-weight:normal;font-stretch:normal;font-size:medium;line-height:normal;font-family:sans-serif;font-variant-ligatures:normal;font-variant-position:normal;font-variant-caps:normal;font-variant-numeric:normal;font-variant-alternates:normal;font-feature-settings:normal;text-indent:0;text-align:start;text-decoration:none;text-decoration-line:none;text-decoration-style:solid;text-decoration-color:#000000;letter-spacing:normal;word-spacing:normal;text-transform:none;writing-mode:lr-tb;direction:ltr;text-orientation:mixed;dominant-baseline:auto;baseline-shift:baseline;text-anchor:start;white-space:normal;shape-padding:0;clip-rule:nonzero;display:inline;overflow:visible;visibility:visible;opacity:1;isolation:auto;mix-blend-mode:normal;color-interpolation:sRGB;color-interpolation-filters:linearRGB;solid-color:#000000;solid-opacity:1;vector-effect:none;fill:#000000;fill-opacity:1;fill-rule:nonzero;stroke:none;stroke-width:0.13229167;stroke-linecap:round;stroke-linejoin:round;stroke-miterlimit:4;stroke-dasharray:none;stroke-dashoffset:0;stroke-opacity:1;color-rendering:auto;image-rendering:auto;shape-rendering:auto;text-rendering:auto;enable-background:accumulate"/><path d="m -789.26758,249.63086 a 0.06615245,0.06615245 0 0 0 -0.0352,0.11523 l 0.33789,0.31446 a 0.06635008,0.06635008 0 1 0 0.0898,-0.0977 l -0.33789,-0.31445 a 0.06615245,0.06615245 0 0 0 -0.0547,-0.0176 z" id="path13631" style="color:#000000;font-style:normal;font-variant:normal;font-weight:normal;font-stretch:normal;font-size:medium;line-height:normal;font-family:sans-serif;font-variant-ligatures:normal;font-variant-position:normal;font-variant-caps:normal;font-variant-numeric:normal;font-variant-alternates:normal;font-feature-settings:normal;text-indent:0;text-align:start;text-decoration:none;text-decoration-line:none;text-decoration-style:solid;text-decoration-color:#000000;letter-spacing:normal;word-spacing:normal;text-transform:none;writing-mode:lr-tb;direction:ltr;text-orientation:mixed;dominant-baseline:auto;baseline-shift:baseline;text-anchor:start;white-space:normal;shape-padding:0;clip-rule:nonzero;display:inline;overflow:visible;visibility:visible;opacity:1;isolation:auto;mix-blend-mode:normal;color-interpolation:sRGB;color-interpolation-filters:linearRGB;solid-color:#000000;solid-opacity:1;vector-effect:none;fill:#000000;fill-opacity:1;fill-rule:nonzero;stroke:none;stroke-width:0.13229167;stroke-linecap:round;stroke-linejoin:round;stroke-miterlimit:4;stroke-dasharray:none;stroke-dashoffset:0;stroke-opacity:1;color-rendering:auto;image-rendering:auto;shape-rendering:auto;text-rendering:auto;enable-background:accumulate"/><path d="m -790.42188,251.49805 a 0.06615245,0.06615245 0 0 0 -0.043,0.11523 l 0.54687,0.51367 a 0.0663486,0.0663486 0 1 0 0.0898,-0.0976 l -0.54493,-0.51172 a 0.06615245,0.06615245 0 0 0 -0.0488,-0.0195 z" id="path13633" style="color:#000000;font-style:normal;font-variant:normal;font-weight:normal;font-stretch:normal;font-size:medium;line-height:normal;font-family:sans-serif;font-variant-ligatures:normal;font-variant-position:normal;font-variant-caps:normal;font-variant-numeric:normal;font-variant-alternates:normal;font-feature-settings:normal;text-indent:0;text-align:start;text-decoration:none;text-decoration-line:none;text-decoration-style:solid;text-decoration-color:#000000;letter-spacing:normal;word-spacing:normal;text-transform:none;writing-mode:lr-tb;direction:ltr;text-orientation:mixed;dominant-baseline:auto;baseline-shift:baseline;text-anchor:start;white-space:normal;shape-padding:0;clip-rule:nonzero;display:inline;overflow:visible;visibility:visible;opacity:1;isolation:auto;mix-blend-mode:normal;color-interpolation:sRGB;color-interpolation-filters:linearRGB;solid-color:#000000;solid-opacity:1;vector-effect:none;fill:#000000;fill-opacity:1;fill-rule:nonzero;stroke:none;stroke-width:0.13229167;stroke-linecap:round;stroke-linejoin:round;stroke-miterlimit:4;stroke-dasharray:none;stroke-dashoffset:0;stroke-opacity:1;color-rendering:auto;image-rendering:auto;shape-rendering:auto;text-rendering:auto;enable-background:accumulate"/><path d="m -790.62109,251.6875 a 0.06615245,0.06615245 0 0 0 -0.0371,0.11523 l 0.40625,0.38672 a 0.0663056,0.0663056 0 1 0 0.0918,-0.0957 l -0.40625,-0.38672 a 0.06615245,0.06615245 0 0 0 -0.0547,-0.0195 z" id="path13635" style="color:#000000;font-style:normal;font-variant:normal;font-weight:normal;font-stretch:normal;font-size:medium;line-height:normal;font-family:sans-serif;font-variant-ligatures:normal;font-variant-position:normal;font-variant-caps:normal;font-variant-numeric:normal;font-variant-alternates:normal;font-feature-settings:normal;text-indent:0;text-align:start;text-decoration:none;text-decoration-line:none;text-decoration-style:solid;text-decoration-color:#000000;letter-spacing:normal;word-spacing:normal;text-transform:none;writing-mode:lr-tb;direction:ltr;text-orientation:mixed;dominant-baseline:auto;baseline-shift:baseline;text-anchor:start;white-space:normal;shape-padding:0;clip-rule:nonzero;display:inline;overflow:visible;visibility:visible;opacity:1;isolation:auto;mix-blend-mode:normal;color-interpolation:sRGB;color-interpolation-filters:linearRGB;solid-color:#000000;solid-opacity:1;vector-effect:none;fill:#000000;fill-opacity:1;fill-rule:nonzero;stroke:none;stroke-width:0.13229167;stroke-linecap:round;stroke-linejoin:round;stroke-miterlimit:4;stroke-dasharray:none;stroke-dashoffset:0;stroke-opacity:1;color-rendering:auto;image-rendering:auto;shape-rendering:auto;text-rendering:auto;enable-background:accumulate"/><path d="m -790.79492,251.8457 a 0.06615245,0.06615245 0 0 0 -0.0352,0.11524 l 0.27539,0.26172 a 0.06630921,0.06630921 0 1 0 0.0918,-0.0957 l -0.27734,-0.26172 a 0.06615245,0.06615245 0 0 0 -0.0547,-0.0195 z" id="path13637" style="color:#000000;font-style:normal;font-variant:normal;font-weight:normal;font-stretch:normal;font-size:medium;line-height:normal;font-family:sans-serif;font-variant-ligatures:normal;font-variant-position:normal;font-variant-caps:normal;font-variant-numeric:normal;font-variant-alternates:normal;font-feature-settings:normal;text-indent:0;text-align:start;text-decoration:none;text-decoration-line:none;text-decoration-style:solid;text-decoration-color:#000000;letter-spacing:normal;word-spacing:normal;text-transform:none;writing-mode:lr-tb;direction:ltr;text-orientation:mixed;dominant-baseline:auto;baseline-shift:baseline;text-anchor:start;white-space:normal;shape-padding:0;clip-rule:nonzero;display:inline;overflow:visible;visibility:visible;opacity:1;isolation:auto;mix-blend-mode:normal;color-interpolation:sRGB;color-interpolation-filters:linearRGB;solid-color:#000000;solid-opacity:1;vector-effect:none;fill:#000000;fill-opacity:1;fill-rule:nonzero;stroke:none;stroke-width:0.13229167;stroke-linecap:round;stroke-linejoin:round;stroke-miterlimit:4;stroke-dasharray:none;stroke-dashoffset:0;stroke-opacity:1;color-rendering:auto;image-rendering:auto;shape-rendering:auto;text-rendering:auto;enable-background:accumulate"/><path d="m -791.04688,251.95508 a 0.06615245,0.06615245 0 0 0 -0.0371,0.11523 l 0.18945,0.17774 a 0.06630921,0.06630921 0 0 0 0.0918,-0.0957 l -0.18946,-0.17968 a 0.06615245,0.06615245 0 0 0 -0.0547,-0.0176 z" id="path13639" style="color:#000000;font-style:normal;font-variant:normal;font-weight:normal;font-stretch:normal;font-size:medium;line-height:normal;font-family:sans-serif;font-variant-ligatures:normal;font-variant-position:normal;font-variant-caps:normal;font-variant-numeric:normal;font-variant-alternates:normal;font-feature-settings:normal;text-indent:0;text-align:start;text-decoration:none;text-decoration-line:none;text-decoration-style:solid;text-decoration-color:#000000;letter-spacing:normal;word-spacing:normal;text-transform:none;writing-mode:lr-tb;direction:ltr;text-orientation:mixed;dominant-baseline:auto;baseline-shift:baseline;text-anchor:start;white-space:normal;shape-padding:0;clip-rule:nonzero;display:inline;overflow:visible;visibility:visible;opacity:1;isolation:auto;mix-blend-mode:normal;color-interpolation:sRGB;color-interpolation-filters:linearRGB;solid-color:#000000;solid-opacity:1;vector-effect:none;fill:#000000;fill-opacity:1;fill-rule:nonzero;stroke:none;stroke-width:0.13229167;stroke-linecap:round;stroke-linejoin:round;stroke-miterlimit:4;stroke-dasharray:none;stroke-dashoffset:0;stroke-opacity:1;color-rendering:auto;image-rendering:auto;shape-rendering:auto;text-rendering:auto;enable-background:accumulate"/><path d="m -793.35742,246.5293 c -0.21366,0.009 -0.43303,0.11156 -0.5625,0.29882 -0.16319,0.23608 -0.19977,0.55528 -0.10938,0.82422 0.0951,0.28314 0.36149,0.53486 0.60157,0.73633 0.24008,0.20147 0.46093,0.34375 0.46093,0.34375 a 0.13230489,0.13230489 0 0 0 0.10157,0.0176 c 0,0 0.0527,-0.015 0.11523,-0.0508 0.0625,-0.0358 0.14832,-0.096 0.25781,-0.19727 a 0.13230489,0.13230489 0 1 0 -0.17969,-0.19336 c -0.096,0.0888 -0.16438,0.1356 -0.20703,0.16016 -0.0432,-0.0286 -0.1813,-0.11738 -0.3789,-0.2832 -0.22616,-0.18979 -0.46344,-0.4444 -0.52149,-0.61719 -0.061,-0.18141 -0.0292,-0.43735 0.0762,-0.58984 0.0696,-0.10073 0.22718,-0.1783 0.35742,-0.1836 0.0226,-9.1e-4 0.13033,0.0328 0.21289,0.0762 0.0826,0.0434 0.14648,0.0859 0.14648,0.0859 a 0.13230489,0.13230489 0 0 0 0.13867,0.008 c 0,0 0.0694,-0.0391 0.15821,-0.0781 0.0867,-0.0381 0.19361,-0.0711 0.24023,-0.0742 0.0676,0.006 0.14324,0.0246 0.20703,0.0566 a 0.13230489,0.13230489 0 1 0 0.11719,-0.23633 c -0.10002,-0.0503 -0.20682,-0.0787 -0.3125,-0.0859 a 0.13230489,0.13230489 0 0 0 -0.0137,0 c -0.12441,0.004 -0.2447,0.0533 -0.34571,0.0977 -0.0613,0.0269 -0.0771,0.0359 -0.10937,0.0527 -0.0313,-0.02 -0.0456,-0.0301 -0.10352,-0.0606 -0.0978,-0.0514 -0.21172,-0.11294 -0.34765,-0.10742 z" id="path13641" style="color:#000000;font-style:normal;font-variant:normal;font-weight:normal;font-stretch:normal;font-size:medium;line-height:normal;font-family:sans-serif;font-variant-ligatures:normal;font-variant-position:normal;font-variant-caps:normal;font-variant-numeric:normal;font-variant-alternates:normal;font-feature-settings:normal;text-indent:0;text-align:start;text-decoration:none;text-decoration-line:none;text-decoration-style:solid;text-decoration-color:#000000;letter-spacing:normal;word-spacing:normal;text-transform:none;writing-mode:lr-tb;direction:ltr;text-orientation:mixed;dominant-baseline:auto;baseline-shift:baseline;text-anchor:start;white-space:normal;shape-padding:0;clip-rule:nonzero;display:inline;overflow:visible;visibility:visible;opacity:1;isolation:auto;mix-blend-mode:normal;color-interpolation:sRGB;color-interpolation-filters:linearRGB;solid-color:#000000;solid-opacity:1;vector-effect:none;fill:#000000;fill-opacity:1;fill-rule:nonzero;stroke:none;stroke-width:0.26458332px;stroke-linecap:round;stroke-linejoin:round;stroke-miterlimit:4;stroke-dasharray:none;stroke-dashoffset:0;stroke-opacity:1;color-rendering:auto;image-rendering:auto;shape-rendering:auto;text-rendering:auto;enable-background:accumulate"/><path d="m -793.34766,246.93555 a 0.06615245,0.06615245 0 0 0 -0.0234,0.008 c -0.0612,0.0312 -0.11645,0.0752 -0.15625,0.13281 -0.0509,0.0737 -0.0803,0.16163 -0.0918,0.25195 a 0.06615245,0.06615245 0 1 0 0.13086,0.0156 c 0.009,-0.0718 0.0338,-0.14062 0.0703,-0.19336 0.0249,-0.036 0.063,-0.0672 0.10742,-0.0898 a 0.06615245,0.06615245 0 0 0 -0.0371,-0.125 z" id="path13643" style="color:#000000;font-style:normal;font-variant:normal;font-weight:normal;font-stretch:normal;font-size:medium;line-height:normal;font-family:sans-serif;font-variant-ligatures:normal;font-variant-position:normal;font-variant-caps:normal;font-variant-numeric:normal;font-variant-alternates:normal;font-feature-settings:normal;text-indent:0;text-align:start;text-decoration:none;text-decoration-line:none;text-decoration-style:solid;text-decoration-color:#000000;letter-spacing:normal;word-spacing:normal;text-transform:none;writing-mode:lr-tb;direction:ltr;text-orientation:mixed;dominant-baseline:auto;baseline-shift:baseline;text-anchor:start;white-space:normal;shape-padding:0;clip-rule:nonzero;display:inline;overflow:visible;visibility:visible;opacity:1;isolation:auto;mix-blend-mode:normal;color-interpolation:sRGB;color-interpolation-filters:linearRGB;solid-color:#000000;solid-opacity:1;vector-effect:none;fill:#000000;fill-opacity:1;fill-rule:nonzero;stroke:none;stroke-width:0.13229167;stroke-linecap:round;stroke-linejoin:round;stroke-miterlimit:4;stroke-dasharray:none;stroke-dashoffset:0;stroke-opacity:1;color-rendering:auto;image-rendering:auto;shape-rendering:auto;text-rendering:auto;enable-background:accumulate"/><path d="m -791.33203,246.9707 c -0.12248,-0.0192 -0.22395,0.0224 -0.3125,0.0566 -0.0569,0.022 -0.0737,0.0331 -0.10156,0.0469 -0.0279,-0.0117 -0.043,-0.0212 -0.0977,-0.0391 -0.0871,-0.0285 -0.18739,-0.0609 -0.30273,-0.043 -0.15454,0.0239 -0.27569,0.11735 -0.36329,0.21679 -0.0745,0.0846 -0.0794,0.17345 -0.0918,0.23047 -0.0124,0.057 -0.022,0.065 -0.0176,0.0625 -0.006,0.003 -0.11557,0.0101 -0.21289,-0.0137 -0.0973,-0.0238 -0.17969,-0.0566 -0.17969,-0.0566 -0.0869,-0.0365 -0.18297,0.0269 -0.18359,0.12109 2.1e-4,0.0168 0.004,0.0333 0.01,0.0488 0.0801,0.18437 0.47757,0.52677 0.75196,0.55494 0.19192,0.0145 0.35781,-0.0919 0.49804,-0.18555 0.0893,-0.0596 0.11297,-0.0851 0.15625,-0.12109 0.11493,0.11705 0.4327,0.41104 0.90235,0.26758 0.1527,-0.0466 0.27647,-0.16197 0.38086,-0.26367 0.10438,-0.10171 0.18164,-0.19532 0.18164,-0.19532 0.0825,-0.0987 -0.0102,-0.24521 -0.13477,-0.21289 0,0 -0.0838,0.0222 -0.18359,0.0332 -0.0998,0.011 -0.21548,-0.006 -0.22852,-0.0137 0.004,0.002 -0.004,-0.006 -0.0176,-0.0547 -0.0136,-0.0488 -0.0245,-0.12612 -0.0898,-0.20118 -0.082,-0.0941 -0.1943,-0.21173 -0.36328,-0.23828 z m -0.041,0.26172 c 0.0573,0.009 0.13518,0.0727 0.20313,0.15039 0.004,0.004 0.0187,0.0388 0.0352,0.0977 0.0164,0.0589 0.0431,0.15361 0.13672,0.21094 0.0807,0.0495 0.15957,0.0299 0.24024,0.0293 -0.0738,0.0611 -0.15653,0.13073 -0.19531,0.14258 -0.37813,0.11551 -0.72266,-0.26758 -0.72266,-0.26758 -0.0486,-0.0566 -0.13429,-0.0619 -0.18945,-0.0117 0,0 -0.094,0.0841 -0.2168,0.16602 -0.12278,0.082 -0.21161,0.14517 -0.33203,0.14258 -0.14253,-0.003 -0.3018,-0.13253 -0.38536,-0.18548 0.36534,0.0488 0.40143,-0.0813 0.48887,-0.32438 0.0274,-0.0763 0.12541,-0.11576 0.20508,-0.13086 0.06,-0.0114 0.1075,0.0115 0.17969,0.0352 0.0722,0.0236 0.12891,0.0488 0.1289,0.0488 0.0372,0.0176 0.0806,0.0169 0.11719,-0.002 0,0 0.0565,-0.0306 0.12891,-0.0586 0.0724,-0.028 0.16679,-0.0447 0.17773,-0.043 z" id="path13645" style="color:#000000;font-style:normal;font-variant:normal;font-weight:normal;font-stretch:normal;font-size:medium;line-height:normal;font-family:sans-serif;font-variant-ligatures:normal;font-variant-position:normal;font-variant-caps:normal;font-variant-numeric:normal;font-variant-alternates:normal;font-feature-settings:normal;text-indent:0;text-align:start;text-decoration:none;text-decoration-line:none;text-decoration-style:solid;text-decoration-color:#000000;letter-spacing:normal;word-spacing:normal;text-transform:none;writing-mode:lr-tb;direction:ltr;text-orientation:mixed;dominant-baseline:auto;baseline-shift:baseline;text-anchor:start;white-space:normal;shape-padding:0;clip-rule:nonzero;display:inline;overflow:visible;visibility:visible;opacity:1;isolation:auto;mix-blend-mode:normal;color-interpolation:sRGB;color-interpolation-filters:linearRGB;solid-color:#000000;solid-opacity:1;vector-effect:none;fill:#000000;fill-opacity:1;fill-rule:nonzero;stroke:none;stroke-width:0.26458332;stroke-linecap:round;stroke-linejoin:round;stroke-miterlimit:4;stroke-dasharray:none;stroke-dashoffset:0;stroke-opacity:1;color-rendering:auto;image-rendering:auto;shape-rendering:auto;text-rendering:auto;enable-background:accumulate"/></g></g></svg>