<?xml version="1.0" encoding="iso-8859-1"?>
<!-- Generator: Adobe Illustrator 16.0.0, SVG Export Plug-In . SVG Version: 6.00 Build 0)  -->
<!DOCTYPE svg PUBLIC "-//W3C//DTD SVG 1.1//EN" "http://www.w3.org/Graphics/SVG/1.1/DTD/svg11.dtd">
<svg version="1.1" id="Capa_1" xmlns="http://www.w3.org/2000/svg" xmlns:xlink="http://www.w3.org/1999/xlink" x="0px" y="0px"
	 width="380.026px" height="380.026px" viewBox="0 0 380.026 380.026" style="enable-background:new 0 0 380.026 380.026;"
	 xml:space="preserve">
<g>
	<g>
		<g>
			<path d="M334.426,359.104c-0.611-1.836-1.836-2.447-3.672-3.06c0,0,0-0.612-0.611-0.612
				c-41.616-62.424-88.74-121.788-130.356-184.211c0-1.224,0-3.06-0.611-4.284c11.628,3.672,25.093,1.836,27.54-12.24
				c3.061-15.912-12.853-26.316-27.54-28.152c2.448-3.06,4.284-6.12,6.12-9.792c9.792-20.808,7.956-48.348,0-69.768
				C188.771,2.308,137.975-9.932,96.358,7.816C54.13,26.176,32.71,76.36,52.294,119.2c14.688,31.824,53.244,50.184,86.292,39.78
				c-8.568,14.076-12.852,35.496,5.508,43.452c13.464,5.509,24.48-5.508,28.152-17.749c0.612,0.612,1.836,1.836,2.448,2.448
				c41.004,64.873,88.128,128.521,137.088,187.884c0.612,0.612,1.225,0.612,1.836,0.612c-0.611,1.836-0.611,4.284,1.836,4.284
				c5.509,0.611,11.018-1.226,14.688-4.896S336.262,364.611,334.426,359.104z M64.535,106.959
				c-12.852-38.556,11.016-78.948,49.572-89.352c43.452-11.628,78.336,14.076,84.457,57.528c4.283,28.764-6.732,48.348-33.66,60.588
				c-6.732,3.06-9.792,4.284-14.076,8.568C116.555,153.471,76.773,144.291,64.535,106.959z M166.739,169.383
				c-3.06,7.956-7.344,33.661-21.42,21.42c-10.404-9.181-2.448-25.092,1.836-34.884l0,0c1.224-0.612,1.836-1.224,3.06-1.224
				c0.612,0,1.224,0.612,1.224,0.612c-0.612,6.732-1.836,12.852-3.672,19.584c-0.612,3.06,3.672,4.284,4.284,1.224
				c2.448-6.732,3.06-13.464,3.06-20.808l0,0c1.836-1.224,3.672-1.836,4.896-3.06c0,0.612,0,1.224,0.612,1.836
				c3.672,4.284,5.508,8.568,7.344,14.076C167.961,167.547,167.351,168.159,166.739,169.383z M174.694,173.055
				c0-1.224,0-1.836-0.612-2.448l0,0c0-0.612,0-0.612,0-1.224c0-0.612,0-0.612,0-1.224c-1.224-6.732-5.508-12.852-9.792-17.748
				c0,0,0,0-0.612,0c6.12-3.06,12.24-6.12,17.748-8.568c6.12,3.672,12.24,6.732,19.583,7.344c3.061,0,3.673-4.284,0.611-4.896
				c-4.896-1.224-9.792-3.06-14.688-5.508c1.836-1.224,3.672-2.448,5.508-4.284c9.792,3.06,22.645,4.896,25.092,15.912
				c3.061,13.464-14.075,12.852-22.031,9.792c-1.225-1.836-3.061-3.06-5.508-4.284c-2.448-1.224-6.732,1.224-4.284,4.284
				c3.672,5.508,8.568,11.628,4.284,17.748C185.709,184.071,173.471,182.235,174.694,173.055z M324.022,369.508
				c-1.836,2.448-4.284,4.284-7.956,4.284c-0.612,0-0.612,0-1.225,0c0-0.612,0-1.225,0-1.225
				c-42.229-62.425-86.292-124.235-132.191-183.601c3.06,0,6.12-0.612,9.18-1.836c3.672-1.836,6.12-5.508,7.344-9.18
				c33.66,63.647,75.275,130.355,126.685,180.541c0,0.611,0,1.224,0,1.836C325.858,363.388,325.858,366.447,324.022,369.508z"/>
			<path d="M148.991,46.983c-14.688-3.672-26.928,6.732-30.6,19.584c-4.896-3.06-11.016-3.672-17.136-0.612
				c-9.18,4.896-11.628,16.524-6.12,25.092c11.016,18.36,44.064,23.256,58.752,7.344C166.125,85.539,173.471,53.103,148.991,46.983z
				"/>
		</g>
	</g>
</g>
<g>
</g>
<g>
</g>
<g>
</g>
<g>
</g>
<g>
</g>
<g>
</g>
<g>
</g>
<g>
</g>
<g>
</g>
<g>
</g>
<g>
</g>
<g>
</g>
<g>
</g>
<g>
</g>
<g>
</g>
</svg>
