<?xml version="1.0" encoding="iso-8859-1"?>
<!-- Generator: Adobe Illustrator 16.0.0, SVG Export Plug-In . SVG Version: 6.00 Build 0)  -->
<!DOCTYPE svg PUBLIC "-//W3C//DTD SVG 1.1//EN" "http://www.w3.org/Graphics/SVG/1.1/DTD/svg11.dtd">
<svg version="1.1" id="Capa_1" xmlns="http://www.w3.org/2000/svg" xmlns:xlink="http://www.w3.org/1999/xlink" x="0px" y="0px"
	 width="319.225px" height="319.226px" viewBox="0 0 319.225 319.226" style="enable-background:new 0 0 319.225 319.226;"
	 xml:space="preserve">
<g>
	<g>
		<g>
			<path d="M246.222,36.842c-0.611-4.284-5.508-4.896-7.344-2.448c-0.613-0.612-1.836-1.224-3.061-1.224
				c-52.021-1.224-105.264-0.612-157.284,5.508c0-0.612,0-1.224,0-1.224c0-2.448-4.284-3.06-4.284,0
				c-5.508,78.948-2.448,159.12-3.672,238.066c0,3.673,3.672,4.896,6.12,3.673c-1.224,0.611-1.836,3.061,0,3.673
				c26.316,3.672,53.244,0.61,80.172-0.612c28.763-1.224,58.14-0.612,86.903-1.224c4.283,0,5.51-7.346,1.225-7.956
				c-52.02-7.956-116.892-6.12-167.688,6.73c1.224-0.611,1.836-1.836,1.836-3.672c1.224-39.78,1.224-79.56,1.224-119.34
				c0-17.748,0-35.496,0-53.856c0-15.912,3.672-42.84-3.06-58.14h0.612c52.632,0,105.263-1.836,157.896-1.836
				c1.225,0,1.836-0.612,2.447-0.612c4.896,77.724,6.732,155.448,9.791,233.171c0,4.284,6.121,4.284,6.121,0
				C258.462,196.574,254.177,115.178,246.222,36.842z"/>
			<path d="M287.837,279.806C287.837,279.194,287.837,279.194,287.837,279.806c2.449-3.06,1.225-7.956-2.447-7.344
				c-4.896,0.612-11.016-1.224-9.793-7.956c1.227-6.731,8.568-7.956,13.465-10.404c0.611-0.61,1.225-1.224,1.225-1.836
				c0.611-0.61,1.225-1.836,1.225-3.06c0-3.672-1.225-7.344-1.836-11.017c0-3.673,0-7.345,0-11.017c0-0.612,0-0.612-0.613-1.224
				c0-1.836-1.836-3.672-3.672-3.672c-6.119,0.61-12.238,0.61-13.463-7.346c-0.613-6.119,3.672-12.852,9.791-14.075l0,0
				c1.225,1.225,3.062,1.225,4.285,0c1.836,0,3.672-2.447,2.447-4.283c0.611-3.672,0-7.345,0-11.018c0-5.508,1.225-10.402,0-15.911
				c0-1.837-2.447-2.447-4.283-1.837c-3.061-2.446-8.568,2.448-11.629-1.836c-5.508-6.731,4.896-14.076,9.793-16.523
				c2.447-1.224,1.836-4.284,0-5.508c0-1.836-0.613-4.284-1.225-6.12c-0.611-4.284-0.611-9.18-1.225-13.464
				c1.225-2.448,0.611-4.896-1.836-6.12c-2.449-0.612-4.896,0-7.344-1.224c-2.449-1.224-4.285-4.284-4.285-7.344
				c0.613-6.732,7.957-10.404,13.465-11.016c1.836,0,3.061-2.448,2.447-3.672c0.611-4.284,0.611-8.568,0-12.852
				c0-4.896,0-9.792-1.225-15.3c0-2.448-1.836-3.06-3.672-3.06c-0.611,0-1.225-0.612-1.836-0.612c-4.896,0-11.629,0-14.076-5.508
				c-2.447-6.12,2.447-11.016,7.346-12.852c1.836-0.612,1.836-3.06,0.609-4.896c0.613-3.672-0.609-7.956-1.223-11.628
				c-1.225-4.896-2.449-9.792-3.672-14.688c-0.613-1.836-3.061-1.836-4.285-0.612c-0.611,0-0.611-0.612-1.223-0.612
				c-5.51,0-10.404,3.06-15.912,3.06c-6.732,0-15.912-2.448-15.912-11.016c0-3.06-3.672-3.672-4.896-1.836
				c-2.447-1.224-4.896-0.612-7.957-0.612s-6.119-1.224-9.18-1.836c-2.447-0.612-3.672,1.224-3.672,3.06
				c-1.225,0.612-1.836,1.224-2.449,2.448c-1.836,4.896-4.895,10.404-10.402,11.016c-6.119,1.224-11.629-4.284-12.24-9.792
				c0-1.836-1.836-3.06-3.672-3.06c-3.061-1.224-6.732,0-10.404,0c-3.06,0-6.12,0-9.179,0l0,0c-1.224-1.836-4.284-1.836-5.508,0
				c-1.836,0-2.448,2.448-1.836,3.672c-1.224,3.672-2.448,7.956-7.344,9.792c-2.448,1.224-5.508,1.224-7.956,0.612
				c-1.224-0.612-3.06-0.612-4.284-1.836c-0.612,0-0.612-0.612-1.224-0.612c-0.612-1.224-0.612-1.836-1.224-1.836
				c1.224-1.224,1.224-3.06-0.612-3.672C122.598,9.3,121.374,9.3,120.762,9.3l-0.612-0.612c-3.06-1.224-6.732-0.612-10.404-0.612
				c-3.672,0-7.344,0-11.016-0.612c-0.612,0-0.612,0-1.224,0c-1.224,0-2.448,0.612-3.06,1.836c-0.612,4.284-3.06,8.568-7.344,10.404
				c-1.836,0.612-4.284,1.224-6.12,0.612c-1.224,0-6.12-3.061-6.12-2.448c1.836-1.224,1.224-4.284-1.224-3.672
				c-1.836,0-3.06,1.224-3.672,3.06c0-0.612-0.612-0.612-0.612-1.224c-3.672-3.06-8.568-2.448-12.852-1.836
				c-4.284,0-9.18,0-11.628,3.06v0.612c-2.448-0.612-4.284,0-6.12,1.836c-1.224,1.836-1.224,3.672,0,5.508
				c2.448,2.448,6.12,1.836,8.568,4.284c2.448,2.448,4.284,6.12,3.06,9.18c-1.836,6.732-11.628,7.344-15.912,3.672
				c-2.448-1.836-5.508,0-4.896,2.448c-1.836,2.448-1.836,5.508-1.836,8.568c0,4.284,0.612,7.956,1.224,12.24v0.612
				c-2.448,2.448-1.224,7.956,3.06,7.344s9.18-1.836,13.464-1.224c2.448,0.612,6.12,3.06,5.508,6.12
				c-0.612,4.284-6.732,4.896-9.792,4.896c-3.06,0-6.12-1.836-9.18,0c-1.836,1.224-1.836,3.672,0,4.896
				c-0.612,2.448,0.612,5.508,0.612,8.568c0.612,4.284,0.612,9.18,2.448,12.24l0.612,0.612c-2.448,1.836-4.896,4.896-2.448,7.956
				c3.06,4.284,8.568-2.448,12.852-2.448c7.344,0,9.18,9.18,4.896,13.464c-2.448,1.836-5.508,3.06-8.568,4.284
				c3.06,0,2.448,0,2.448,0c0-0.612,0-0.612,0-1.224c-0.612-3.06-4.284-2.448-5.508-0.612c-2.448,3.06-2.448,8.568-2.448,12.24
				s0,7.956,0.612,11.628c0,0.612-0.612,0.612-0.612,1.224c-1.224,1.836,0.612,4.896,3.06,4.896c3.672,0,6.12-1.836,9.18-3.06
				c4.284-1.224,9.792,0,7.956,5.508c-1.836,6.118-7.956,13.464-14.688,14.074c-0.612,0-0.612,0-1.224,0
				c-1.224,0-2.448,0-3.06,1.226c-1.224,3.06-0.612,6.12-0.612,9.792s0.612,7.344,0.612,11.016c0,1.225,0.612,1.836,1.224,2.448
				v0.612c0,1.836,1.224,4.282,3.672,3.672c4.896-1.836,12.24-6.12,14.688,1.836c2.448,9.18-8.568,12.239-15.3,9.792
				c-2.448-0.612-4.896,1.224-4.896,3.672c0,6.73-3.672,20.196,3.06,23.868c0,0.61,0,1.224,0.612,2.446
				c0.612,2.448,3.06,3.062,4.896,1.226c1.224-1.226,3.06-3.672,4.896-4.284c4.896-1.836,7.956,4.284,6.732,7.956
				c-1.836,8.568-12.24,10.404-19.584,11.628c-2.448,0-3.672,1.836-3.672,3.672c0,7.344-1.224,14.688,2.448,21.42l0.612,0.612
				c-0.612,0.612-0.612,0.612-1.224,1.224c-2.448,3.062,0.612,7.956,4.896,6.12c7.344-3.672,14.076-6.73,21.42-2.448
				c7.344,4.284,10.404,12.24,9.18,20.196c0,1.836,1.836,3.062,3.672,3.062c1.224,0.61,2.448,1.224,3.672,0.61
				c4.284-1.224,8.568-2.447,12.852-3.672c0.612,0.612,0.612,0.612,1.224,1.225c1.836,1.225,4.284,0,4.284-2.447
				c0-4.284,1.224-8.568,3.672-12.24c1.836-2.448,6.12-7.956,8.568-3.061c1.224,2.447,1.224,6.12,2.448,8.567
				c1.224,3.062,2.448,6.12,4.896,7.956c0.612,0.612,0.612,0.612,1.224,0.612c0.612,1.836,1.836,3.06,4.284,2.448
				c4.284-0.612,8.568-2.448,11.628-5.51c0.612,0,0.612,0.612,1.224,0.612c1.836,0.612,3.672-1.224,3.672-3.06
				c0-2.448-1.224-4.896-0.612-7.346c0.612-3.06,3.672-4.896,6.732-4.896c7.344,0,11.628,6.73,13.464,12.852
				c0,0.612,0.612,1.226,1.224,1.836c1.224,1.836,3.06,3.062,4.896,3.062c3.672,0,7.957-0.612,11.629-1.836
				c3.672-0.612,6.119-1.226,7.955-3.672c0.611,0,1.836,0,2.447,0c3.061-0.612,3.674-4.284,3.061-6.732
				c-0.611-3.06-0.611-6.12,2.449-8.567c3.059-2.447,6.73-1.837,9.791,0c3.061,2.447,4.283,5.509,5.508,8.567
				c-0.611,1.224,0,2.448,0.613,3.672c3.059,3.062,6.119,1.836,10.402,0.612c1.836-0.612,3.672-1.225,5.508-1.836
				c1.836,1.224,5.51,0.611,7.346-1.836c3.059-4.284,4.283-9.182,10.402-10.404c6.119-1.224,11.629,3.061,14.689,7.956
				c0.611,0.612,1.223,1.224,1.836,1.224c1.225,1.836,3.061,2.448,5.508,1.836c3.672-1.224,6.732-3.672,10.404-4.896
				c3.672-1.225,7.955-1.836,11.627-1.836c3.061,0,5.508-3.062,4.285-6.12C289.062,289.598,288.451,284.702,287.837,279.806z
				 M280.494,290.822c-7.344,0-14.688,2.446-20.809,6.119c-3.672-6.731-11.016-11.629-19.584-11.017
				c-7.957,0.612-16.523,6.732-17.748,14.688c-1.836,0-3.672,0-5.508,0c-1.225,0-3.061,0-4.285,0
				c-0.609-3.062-1.836-6.732-4.283-9.182c-3.672-4.896-9.791-7.344-15.91-6.73c-9.182,1.224-15.301,11.016-13.465,20.195
				c-1.836-0.611-3.061-0.611-5.51-0.611c-3.672,0-7.955,0-11.627,0.611c-3.059-9.793-12.239-17.137-22.643-14.688
				c-4.896,1.224-9.18,5.508-10.404,10.404c-0.612,1.836-0.612,3.672-0.612,6.119c-2.448,0.611-4.284,1.836-7.344,1.836
				c-0.612,0-1.224,0-1.836,0.611c-2.448-4.284-1.836-9.792-3.06-14.075c-1.836-4.896-6.12-7.956-11.628-7.345
				c-6.731,0.615-16.523,12.243-16.523,20.811c-3.672,0-7.344,0.611-11.016,1.225c0-8.568-4.284-17.748-11.628-22.032
				c-7.344-4.284-18.36-4.896-25.704,0c1.224-4.896,1.224-10.403,1.224-15.3c13.464-2.448,30.6-12.853,22.032-28.152
				c-3.672-6.73-15.912-7.956-21.42-4.283c0-3.673,1.224-9.181,1.836-13.465c12.24,1.226,24.48-7.344,20.808-20.808
				c-1.836-6.12-6.12-10.404-12.24-11.016c-3.06-0.612-6.12,0-9.18,1.836c0-2.448,0.612-4.896,0.612-7.956c0-1.226,0-3.062,0-4.284
				c11.016,0.612,22.032-14.688,21.42-23.868c-0.612-11.016-14.076-13.464-22.644-9.18c0-2.448,0-5.508,0.612-7.956
				c0-1.836,0.612-3.06,1.224-4.896c3.672,0,7.344-0.612,10.404-1.836c4.284-1.836,8.568-5.508,9.792-10.404
				c3.672-12.24-7.956-22.644-19.584-18.972c-0.612,0-0.612,0-1.224,0.612l0,0c0.612-3.672,0.612-7.344,0.612-11.016
				c0-1.836,0-4.284,0-6.12c1.224,0,2.448,0.612,2.448,0.612c3.06,0,5.508,0,7.956-1.224c4.896-2.448,8.568-7.344,8.568-12.852
				c-0.612-11.628-13.464-14.688-23.868-12.852c0-3.672,0-6.732,0.612-10.404c0-1.224,0.612-1.836,0.612-3.06
				c7.956,3.06,18.972-0.612,22.032-9.18c2.448-5.508,0.612-12.24-3.06-17.136c-0.612-0.612-1.224-1.836-2.448-2.448
				c1.224,0,2.448,0,3.672,0c4.284,0,9.792,1.224,12.852-1.836l0.612-0.612c0,0.612,0,0.612,0,1.224
				c1.836,4.284,7.344,6.732,11.016,7.344c9.18,1.224,17.136-5.508,18.36-14.076c4.896,1.836,10.404,3.06,15.912,2.448
				c0,0.612,0,0.612,0,1.224c1.224,6.12,8.568,9.792,14.076,10.404c6.732,1.224,13.464-0.612,17.748-5.508
				c3.06-3.06,5.508-7.344,5.508-12.24c2.448,0.612,4.895,0.612,7.956,1.224c2.449,0,4.896,0.612,6.732,0.612
				c1.836,8.568,9.18,15.3,18.359,15.3s18.359-8.568,17.137-17.748c4.283,2.448,9.791,3.672,14.688,2.448
				c0.613,13.464,30.6,22.032,40.393,9.18c0,3.06,0,6.732,0.611,9.792c0,3.672,0,7.344,1.225,10.404
				c-7.957,3.06-12.238,12.852-9.793,20.808c2.449,7.956,12.854,14.076,20.811,12.24c0,3.06-0.613,6.12-0.613,9.18
				c0,3.672-0.611,7.956,0,11.628c-8.566,1.224-17.135,6.732-17.135,16.524c0,5.508,3.059,11.628,7.344,14.688
				c2.447,1.836,6.119,3.06,9.18,3.06c-0.611,3.672-0.611,7.344-0.611,11.016c0,2.448,0,4.284,0.611,6.732
				c-8.566,3.672-14.688,11.016-12.852,21.42c1.223,7.956,11.016,15.3,18.971,12.239c-0.609,2.447-0.609,4.896-0.609,7.345
				c0,2.447-0.613,4.896-0.613,7.344c-9.18,0.612-17.135,12.24-17.135,21.42c0,6.732,3.672,12.853,9.791,15.912
				c3.061,1.836,6.73,2.448,10.402,1.224c-1.223,4.896-1.223,11.018,0,15.302c-8.566,1.224-17.135,9.792-17.135,18.358
				c0,7.345,7.955,15.912,15.299,15.912C280.494,285.314,280.494,287.762,280.494,290.822z"/>
			<path d="M217.458,102.326c-4.285-11.628-15.301-16.524-27.541-11.628c-14.688,6.12-24.479,24.48-30.6,40.392
				c-6.12-13.464-15.3-29.376-28.152-32.436c-14.688-4.284-26.928,9.18-29.988,22.032c-7.344,31.212,25.092,69.156,55.692,77.112
				c0,0,0,0,0.612,0.612l0,0c0.612,3.06,4.283,5.508,7.344,3.672C189.917,183.722,230.921,137.21,217.458,102.326z"/>
		</g>
	</g>
</g>
<g>
</g>
<g>
</g>
<g>
</g>
<g>
</g>
<g>
</g>
<g>
</g>
<g>
</g>
<g>
</g>
<g>
</g>
<g>
</g>
<g>
</g>
<g>
</g>
<g>
</g>
<g>
</g>
<g>
</g>
</svg>
