<?xml version="1.0" encoding="iso-8859-1"?>
<!-- Generator: Adobe Illustrator 16.0.0, SVG Export Plug-In . SVG Version: 6.00 Build 0)  -->
<!DOCTYPE svg PUBLIC "-//W3C//DTD SVG 1.1//EN" "http://www.w3.org/Graphics/SVG/1.1/DTD/svg11.dtd">
<svg version="1.1" id="Capa_1" xmlns="http://www.w3.org/2000/svg" xmlns:xlink="http://www.w3.org/1999/xlink" x="0px" y="0px"
	 width="360.096px" height="360.096px" viewBox="0 0 360.096 360.096" style="enable-background:new 0 0 360.096 360.096;"
	 xml:space="preserve">
<g>
	<g>
		<g>
			<path d="M322.016,146.358c-1.225-20.196-15.911-32.436-33.049-37.944c13.465-7.956,22.032-20.196,14.688-37.332
				c-2.448-6.12-6.732-10.404-11.017-14.076c-3.061-3.672-6.731-6.732-11.629-7.956c-2.446-0.612-4.896,0.612-6.119,1.836
				c-7.345-0.612-15.911,1.224-23.257,3.672c4.284-44.676-56.916-58.752-80.171-21.42c-26.928-31.824-66.096-24.48-79.56,14.688
				c-11.628-13.464-31.824-18.36-47.736-6.732C23.971,55.782,24.583,79.65,36.823,98.01c-19.584,3.672-34.884,16.524-36.72,37.944
				c-1.224,17.136,8.568,38.556,26.316,39.78c-33.048,24.48,0.612,72.215,35.496,56.916c-2.448,14.076-0.612,29.988,13.464,36.108
				c14.076,6.12,37.332,0.611,50.184-10.404c-2.448,38.557,62.425,44.064,75.889,14.688c14.076,17.747,40.392,22.644,58.752,6.73
				c13.464-11.628,15.912-30.6,9.792-45.899c15.3,4.896,32.437,4.896,41.004-11.628c7.344-14.075,0.612-32.437-11.628-42.839
				C312.835,176.346,323.239,162.27,322.016,146.358z M290.803,225.918c-10.402,4.283-23.867-3.062-33.048-7.346
				c-4.896-1.836-7.956,4.896-4.896,8.568c12.852,13.464,14.075,36.72-3.673,47.736c-16.523,10.402-31.823,0-44.676-9.792
				c-0.611,0-0.611-0.612-1.225-0.612c0-1.836,0-3.06,0-4.896c0-2.447-4.284-3.673-4.284-0.611
				c-2.447,16.522-19.583,25.092-34.883,24.479c-17.748-0.61-26.316-12.238-31.824-27.54c-1.224-3.06-6.12-3.672-6.732,0l0,0
				c-9.18,1.226-17.748,4.284-26.928,4.896c-22.032,1.836-31.212-12.24-26.928-33.66c0.612-3.06-3.06-6.732-6.12-4.284
				c-12.24,9.182-28.152,8.568-37.944-3.672c-9.792-12.852-6.732-26.928,4.284-37.944c1.224-1.224,1.224-3.06,0-4.284
				c1.224-1.224,1.224-3.672-0.612-4.284c-42.84-12.24-18.972-63.036,13.464-64.872c4.284,0,6.12-4.896,3.06-7.956
				C19.075,68.021,61.915,22.121,88.23,59.453c0,0.612,0,0.612,0,0.612c-0.612,2.448,1.224,4.284,3.672,4.284
				c0,0.612,0.612,0.612,0.612,1.224c1.836,3.672,7.956,1.224,6.732-3.06c-0.612-1.836-1.224-4.284-2.448-6.12
				c3.672-10.404,7.956-15.912,17.748-23.868c7.344-10.404,15.912-11.628,26.928-3.672c12.852,0,21.42,6.12,26.316,18.36
				c2.448,3.672,7.956,3.06,9.792-1.224c16.525-42.84,67.932-19.584,66.096,18.972c0,3.672,5.508,4.284,6.119,0.612c0,0,0,0,0-0.612
				c0,0,0,0,0.612,0c10.404-4.284,17.748-4.284,28.764-0.612c0,0,0,0,0.612,0c3.672,3.672,5.508,7.344,6.731,13.464
				c1.225,9.18,0.611,24.48-11.628,25.704c-2.447,0-3.673,1.224-3.673,3.06c-3.06,3.06-1.224,7.956,3.673,8.568
				c13.465,1.224,28.151,6.12,34.271,19.584c7.344,17.748,0.612,36.108-20.809,38.556c-0.611,0-1.225,0.612-1.836,0.612
				c-3.673,0-4.896,5.508-0.611,7.344C299.371,186.138,311.611,216.737,290.803,225.918z"/>
			<path d="M358.123,274.878c-6.12-11.628-20.196-13.464-29.376-7.346c0-9.792-6.731-18.358-17.748-18.972
				c-11.628-0.612-22.645,12.854-15.912,23.256c-10.403,0-22.031,6.12-23.868,17.138c-1.224,8.566,3.062,17.136,10.404,20.194
				c-8.568,11.018-17.748,28.152-4.284,36.722c11.628,7.344,23.257-2.448,28.152-13.466c6.12,7.346,16.523,11.018,25.704,6.12
				c10.403-5.508,13.464-17.748,9.18-28.15C353.228,306.701,364.854,288.342,358.123,274.878z M348.331,288.342
				c-1.836,5.508-9.18,14.076-16.523,13.464c-4.896-0.612-8.567,4.284-4.896,8.567c14.076,14.075-10.404,30.601-19.584,13.465
				c0-0.612-0.612-1.836-1.225-1.836c-1.225-2.448-6.119-2.448-5.508,0.61v0.612c-1.225,1.836-2.448,4.284-3.673,6.12
				c-4.283,6.731-6.73,13.464-13.464,4.896c-4.283-6.119-3.672-6.73,0-12.238c2.448-4.284,6.12-8.568,9.181-12.24
				c2.447-3.061,0.611-7.956-3.061-7.956c-14.688,0.612-9.18-17.748-2.448-22.032c3.673-2.447,8.568-3.06,12.854-3.672
				c0.611,0,1.224-0.612,1.224-1.836c1.225-0.612,1.836-2.448,1.225-3.672c-1.836-6.12,0.611-13.464,8.567-12.24
				c9.181,1.225,10.404,11.017,8.568,18.36c-0.612,1.836,0.611,3.672,1.836,4.283c1.224,2.447,4.283,2.447,6.12,0
				C336.091,268.146,354.451,272.43,348.331,288.342z"/>
			<path d="M116.996,176.346c-6.732-1.836-13.464-1.836-20.196-1.836c0.612-10.404,1.224-21.42,1.836-31.824
				c0-6.732,0.612-12.852,0.612-19.584c0-0.612-1.224-7.956-0.612-9.792c0-0.612,0-1.224-0.612-1.836
				c-0.612-0.612-1.224-1.224-1.836-1.224c-1.224-1.224-3.672-0.612-4.896,0c-8.568,4.896-7.344,17.748-8.568,26.316
				c-1.836,15.912-3.672,31.212-4.896,47.124c-0.612,5.508,4.896,9.181,9.792,9.792c10.404,0.612,20.808,1.225,29.988-2.448
				C123.728,188.586,124.952,178.794,116.996,176.346z"/>
			<path d="M142.7,132.282c-4.284-1.836-7.956,0-10.404,3.06c-0.612,1.224-1.836,2.448-2.448,3.672
				c-0.612-1.224-1.836-3.06-2.448-4.284c-4.896-9.18-20.196,0-14.076,8.568c3.06,6.12,6.732,12.24,9.792,18.972
				c3.06,5.508,11.628,5.508,14.076,0c3.06-6.12,7.344-12.852,9.18-19.584C148.208,137.79,146.372,133.506,142.7,132.282z"/>
			<path d="M189.823,113.922c-4.284,21.42-10.404,41.616-18.36,61.2c-3.06-19.584-5.508-39.168-7.956-58.752
				c-0.612-4.896-9.18-3.672-9.18,1.224c1.224,27.54,4.896,54.468,7.344,82.008c0.612,6.732,9.792,11.016,13.464,3.672
				c13.464-27.54,23.256-55.692,29.376-85.068C206.348,108.414,191.659,104.13,189.823,113.922z"/>
			<path d="M249.188,128.61c-14.688-7.344-32.438,1.836-39.78,15.3c-7.344,13.464-9.181,33.048,0.611,46.512
				c8.567,11.016,28.151,16.522,36.721,3.06c3.672-4.896-2.448-10.403-7.345-9.18c-7.345,1.224-14.075,1.836-18.359-5.508
				c-3.061-4.896-3.061-11.628-1.836-17.136c4.896,1.224,10.404,1.836,15.3,3.06c5.508,1.224,12.24,3.672,17.748,1.224
				c2.448-1.224,4.284-3.672,4.284-6.12C265.711,149.417,260.203,134.118,249.188,128.61z M224.707,149.417
				c2.448-4.284,6.12-7.344,11.017-8.568c8.567-1.836,13.464,3.672,12.853,11.016c-3.061-0.612-6.732-0.612-9.792-1.224
				C233.275,150.03,228.991,150.03,224.707,149.417z"/>
		</g>
	</g>
</g>
<g>
</g>
<g>
</g>
<g>
</g>
<g>
</g>
<g>
</g>
<g>
</g>
<g>
</g>
<g>
</g>
<g>
</g>
<g>
</g>
<g>
</g>
<g>
</g>
<g>
</g>
<g>
</g>
<g>
</g>
</svg>
