<?xml version="1.0" encoding="iso-8859-1"?>
<!-- Generator: Adobe Illustrator 16.0.0, SVG Export Plug-In . SVG Version: 6.00 Build 0)  -->
<!DOCTYPE svg PUBLIC "-//W3C//DTD SVG 1.1//EN" "http://www.w3.org/Graphics/SVG/1.1/DTD/svg11.dtd">
<svg version="1.1" id="Capa_1" xmlns="http://www.w3.org/2000/svg" xmlns:xlink="http://www.w3.org/1999/xlink" x="0px" y="0px"
	 width="402.849px" height="402.85px" viewBox="0 0 402.849 402.85" style="enable-background:new 0 0 402.849 402.85;"
	 xml:space="preserve">
<g>
	<g>
		<g>
			<path d="M139.688,81.447c4.284-3.06-1.224-8.568-5.508-6.732c-34.272,16.524-76.5,45.9-99.144,78.336c0,0-0.612,0-0.612-0.612
				c-0.612,0-1.836,0.612-1.836,1.224c-1.224,6.732,1.224,9.792,4.284,16.524c9.18,19.584,18.972,38.556,28.764,57.529
				c18.972,36.107,37.332,73.439,57.528,108.937c2.448,4.896,9.792,0.612,7.344-4.284c-28.764-58.14-57.528-121.176-93.636-175.032
				c17.748-10.404,33.048-24.48,49.572-37.332C104.192,106.54,122.552,94.912,139.688,81.447z"/>
			<path d="M254.745,246.076c-28.764-61.2-69.157-121.176-109.549-175.645c-1.836-3.06-6.732-0.612-4.896,3.06
				c33.048,58.14,67.933,119.34,106.489,173.81c-44.064,16.522-77.725,55.079-113.833,83.844c-2.448,2.448,0.612,5.508,3.672,4.284
				c44.064-18.974,70.993-64.262,117.503-79.562C259.64,254.645,259.029,247.301,254.745,246.076z"/>
			<path d="M399.176,294.426c0-3.062-3.672-4.896-6.12-2.448c-2.446,2.448-7.956,2.448-9.792-0.612
				c-1.224-1.836-1.224-4.896,0-7.344c0.612-1.226,1.226-2.448,2.448-3.672c0.612-0.612,1.224-1.226,1.836-1.836
				c0,0,0,0.61,0.612,0.61c1.836,2.448,5.508,1.836,6.12-0.61c1.224-4.284,0-8.568,0-12.854c0-3.672,0.61-7.344,1.836-11.016
				c0.611-0.612,1.224-1.226,1.836-1.836c3.06-3.062-0.612-7.345-4.284-5.508c-4.284,1.836-10.404-0.612-11.016-5.51
				c-0.612-2.446,0.61-5.508,1.836-7.344c0.61-1.224,1.836-2.448,2.447-3.06c0.611-0.612,2.447-1.226,3.061-1.836
				c0.612,0.61,0.612,1.224,1.224,1.836c1.836,2.446,4.896,0,4.896-1.836c0-3.673-1.225-7.956-1.836-11.628
				c0-3.674,0-7.346-0.612-10.404c0-1.226-1.836-1.836-2.448-1.226c-0.61,0-1.224,0-1.836,0c-5.508,3.062-10.402-2.446-9.18-7.956
				c0.612-3.06,1.836-5.508,4.896-7.344c1.226-0.612,1.838-1.224,3.062-1.224c0,0.612,0.612,1.224,0.612,2.448
				c1.224,2.448,4.896,1.836,5.508-0.612c0,0,0,0,0-0.612l0,0l0,0c0.611-4.284-0.612-8.568-0.612-12.852
				c0-5.508,0.612-11.016,1.836-15.912c0.612-1.836-1.224-3.672-3.06-3.06c-0.612,0-0.612,0-1.226,0
				c-4.896,0-11.628-1.224-12.238-7.344c-0.612-2.448,0-5.508,1.836-7.344c0.61-0.612,2.446-1.836,3.672-2.448c0,0,0,0,0,0.612
				c1.224,3.06,5.508,3.06,6.73,0c1.226-3.672,0.612-7.344,0-11.016c0-3.672-0.61-7.344-0.61-11.016c0-0.612,0-0.612-0.612-1.224
				c0.612-2.448-1.224-4.284-3.672-3.672c-4.284,1.224-10.404,1.224-12.24-3.672s3.672-8.568,7.956-9.18l0,0
				c1.224,1.224,3.672,1.224,4.896-0.612l0,0c0-0.612,0-0.612,0-1.224c1.225-4.284,0-7.956-0.611-12.24c0-4.896,0-10.404,0.611-15.3
				v-0.612c0.611-1.836-0.611-4.284-2.447-4.284c-6.12-0.612-12.854,4.896-18.973-0.612c-3.061-2.448-2.447-6.732-0.611-10.404l0,0
				c1.224-0.612,1.836-1.836,2.447-2.448c0.611,0,0.611-0.612,1.225-0.612c2.448-1.224,1.224-4.896-1.225-4.284
				c-1.225,0-3.061,0.612-4.283,1.224c-3.062-0.612-6.12,0-9.181,0c-3.673,0-7.956,0.612-11.629,0.612
				c-2.447,0-3.06,2.448-2.447,3.672c-3.061,4.284-7.345,10.404-13.464,9.18c-5.509-0.612-7.956-7.344-6.12-11.628
				c1.225-2.448-2.447-4.284-4.283-3.06c0-0.612-0.612-1.224-1.225-1.224c-2.447-1.224-4.896-0.612-7.345-0.612
				c-2.447,0-5.508,0.612-7.956,0.612c-1.224,0-1.836,0.612-1.836,1.224c-1.836-1.836-4.284,0-4.284,1.836
				c-0.61,6.12-3.06,13.464-10.402,12.852c-6.12-0.612-9.792-6.732-10.404-12.852c0.612-0.612,0.612-1.224,0-1.836v-0.612
				c0.612-1.836-1.836-3.06-3.061-1.836c-2.447-0.612-4.896,0-7.345,0c-3.672,0-7.956,0-11.628-0.612
				c-1.836,0-2.447,0.612-3.06,1.836c-2.448-1.224-4.284,1.224-4.284,3.06c0.612,3.06,1.224,5.508-0.612,8.568
				c-1.224,2.448-3.672,4.284-6.73,3.672c-5.509-0.612-7.956-7.344-6.12-12.24c0,0,0.611,0,0.611-0.612
				c0.611-0.612,0.611-1.836,0.611-2.448c0,0,0-0.612-0.611-0.612l0,0l0,0c0,0-0.611-0.612-1.225-0.612
				c-3.672-1.224-7.344,0.612-10.403,1.836c-4.283,1.224-7.956,2.448-12.239,3.672c-0.612,0-1.226,0.612-1.226,1.224
				c-1.224-0.612-2.447-1.224-4.283-0.612c-1.224,0-1.836,1.224-1.836,2.448c0,4.284,4.283,6.732,4.283,11.016
				c0,5.508-4.896,9.792-9.792,10.404h-0.612c-0.612,0-1.224,0-1.224,0l-0.612-0.612c0-0.612-0.612-1.224-1.224-1.836
				c-4.896-3.06-8.568-6.12-10.404-11.628c-0.612-1.836-3.06-2.448-4.284-1.836c-0.612-0.612-1.836-0.612-3.06-0.612
				c-3.672,1.836-7.344,6.12-12.24,3.06c-4.284-3.06-3.06-9.18,0.612-12.24c3.06-2.448-0.612-6.732-3.672-4.896l-0.612,0.612
				c0,0,0,0,0-0.612c-3.06-3.672-7.344-4.896-9.792-8.568c-1.224-1.836-3.672-3.06-6.12-1.836c-6.12,3.06-12.24,4.896-18.36,7.344
				c-1.224,0.612-1.836,1.224-1.836,2.448c-2.448-1.224-5.508,0.612-4.896,3.672c2.448,6.12,5.508,12.852-0.612,18.36
				c-5.508,4.896-13.464,2.448-14.076-4.896v-0.612v-0.612c0-1.836-3.06-2.448-3.672-1.224c-3.672,1.224-6.12,4.284-8.568,6.732
				c-3.06,2.448-6.732,4.284-10.404,6.12c-0.612,0-0.612,0.612-1.224,1.224c-0.612,0-1.224,0-1.836,0
				c-1.224,0-2.448,1.836-2.448,3.062c0,2.448,1.224,3.672,1.836,5.508c0.612,1.836-0.612,4.896-1.224,6.12
				c-1.224,2.448-2.448,4.284-4.284,5.508s-8.568,3.672-7.344-1.224c0.612-3.06-3.06-4.284-4.896-1.836
				c0,0.612-0.612,0.612-0.612,1.224c-2.448,0-4.284,1.836-6.732,3.672c-3.06,1.836-6.12,3.672-9.18,4.896l-0.612,0.612
				c-1.224-0.612-2.448-1.224-4.284-1.224s-3.672,1.836-3.06,4.284c0.612,3.06,3.06,4.284,4.896,6.732
				c1.836,3.06,2.448,6.12,1.224,9.18c-3.06,7.344-12.852,7.344-15.3-0.612c0-1.224-1.224-1.836-2.448-1.836
				c-1.224-0.612-2.448-0.612-3.672,0c-4.284,2.448-6.732,7.344-9.792,11.628c-2.448,3.672-4.896,6.732-6.12,11.016
				c-1.224,4.896-1.224,9.792,1.836,13.464c-0.612,0.612-1.224,1.224-1.224,1.836c-0.612,1.836-0.612,3.06,1.224,4.284
				c2.448,1.836,4.896,0.612,7.344,1.224c3.672,0.612,6.732,2.448,8.568,5.508c3.06,4.896,1.224,15.912-4.896,16.524l-0.612-0.612
				c-1.224-0.612-1.836-0.612-3.06,0c-1.836,0-3.06,3.06-1.836,4.284c0,2.448,1.224,5.508,2.448,7.344
				c1.224,3.06,3.06,6.12,5.508,8.568c-0.612,0.612-0.612,1.226-0.612,2.448c-0.612,2.448,2.448,4.896,4.284,3.672
				c5.508-3.672,12.24-8.568,17.748-2.446c6.12,6.73,0.612,15.3-7.956,14.688c-2.448,0-3.06,2.448-1.224,3.672
				c-0.612,0.612-0.612,0.612-1.224,1.226c-0.612,3.672,2.448,6.118,4.284,9.18c1.836,3.672,3.06,7.344,3.672,11.016
				c0,1.226,1.224,1.836,1.836,1.836c0,0.612,0,1.226,0.612,1.836c0.612,2.448,3.672,3.674,5.508,1.226
				c1.836-1.836,2.448-4.284,4.896-5.508c3.06-1.836,6.12-0.612,7.956,1.836c4.896,6.12,0,13.464-6.732,15.912
				c-1.224,0-3.06,0.61-3.06,1.836c-0.612,4.282,1.836,7.344,3.672,11.628c2.448,4.283,4.896,8.566,7.344,12.852
				c0,0.612,0.612,0.612,1.224,1.224c0,0.612,0.612,1.226,1.224,2.448c1.836,2.448,5.508,1.836,6.12-0.61
				c0.612-2.448,1.224-4.284,3.672-5.51c2.448-1.224,5.508,0,7.344,1.836c1.836,1.838,3.06,4.284,3.672,6.732
				c1.224,3.672-0.612,10.404-6.12,8.568c-1.836-0.612-2.448,1.224-2.448,2.446c-1.224,0.612-2.448,2.448-1.836,4.284
				c1.836,5.508,6.732,11.018,11.016,14.688l0,0c0.612,1.224,1.836,2.447,3.672,1.836c2.448-0.612,4.284-3.062,6.732-3.672
				c2.448-0.612,5.508,0,7.956,1.836c1.836,1.836,3.06,4.896,2.448,7.344c0,3.06-1.224,4.284-3.672,4.896
				c-0.612-1.225-2.448-1.225-2.448,0c0,0.611,0,1.225,0,1.836s0.612,1.225,1.224,1.836h0.612c-1.836,0-4.284,1.225-3.672,3.061
				c0.612,4.284,4.284,6.732,7.344,9.181c3.06,2.447,6.12,4.896,9.792,7.345c0,0.61,0.612,1.224,1.224,1.836
				c1.836,2.447,6.12,2.447,6.732-0.612c0.612-4.896,1.836-9.792,7.344-11.017c6.12-1.225,11.016,2.448,14.688,7.345
				c-0.612,3.06,3.06,6.12,6.732,4.896c4.284-1.836,8.568-5.508,12.24-9.18c0.612,0,1.836,0.612,3.06,0.612
				c1.836,0,3.06-1.836,2.448-3.673c-0.612-3.061-3.06-4.896-3.672-7.955c-0.612-2.448-0.612-4.896,0-7.345
				c6.12-0.611,12.24,1.225,17.748,4.283c0.612,0.612,0.612,1.226,1.224,1.226c1.224,0.61,3.06,1.224,4.284,0
				c2.448-1.837,4.896-4.284,7.344-6.732c1.224-1.224,1.836-2.448,3.06-3.672c1.836-0.612,3.06-1.836,2.448-3.672l0,0
				c0,0,0-0.612,0.612-0.612c0.612-1.224,0.612-2.448-0.612-3.06c-0.612-5.509-0.612-13.465,4.895-12.24
				c2.448,0.611,4.284,1.836,6.12,3.06c0.612,3.673,1.226,7.345,1.226,11.018c0,4.284-0.612,7.956-1.836,12.239
				c-0.612,2.447,1.224,5.509,3.672,4.896c3.672,0,7.344-0.612,11.628-1.224c0,0,0.612,0.61,1.224,0.61
				c1.226,0.612,2.448,0.612,3.062-0.61c1.836-1.837,1.224-4.284,2.446-6.732c1.226-3.06,4.284-6.12,7.956-6.12
				c7.346-0.611,9.182,7.345,10.404,12.854c0,0.61,0,1.224-0.612,1.224c0,1.224,0.612,1.836,1.226,3.061
				c0.61,1.225,3.06,1.837,4.284,1.225c4.282-1.836,8.566-3.062,13.464-3.672c0,0,0,0,0.61,0c1.836,0.61,4.284-1.226,4.284-3.062
				c0.612-4.896,3.062-9.18,8.568-7.956c3.672,0.612,6.73,3.673,9.18,6.12c-0.612,0.612-0.612,1.836,0,2.448
				c0.612,1.836,1.836,3.06,4.284,3.06c6.12,0,11.016-1.836,15.3-4.896c1.836,0,3.672-0.612,3.672-2.448
				c1.226-4.896,0-11.628,4.896-15.3c8.566-6.12,7.956,6.731,7.344,11.016c-0.612,3.673,3.06,7.346,6.732,5.509
				c4.282-2.447,8.566-4.896,13.464-6.731l0,0c1.836,1.836,4.284,2.448,5.508,0c3.06-4.896,0-12.853,5.508-16.523
				c4.896-3.061,7.956,3.061,10.404,6.731c-0.612,3.06,2.448,6.732,5.508,5.508c4.284-1.836,6.731-4.896,11.016-6.73
				c4.284-1.226,8.568-0.612,12.854-0.612c3.672,0,4.896-3.061,4.284-6.12c-0.612-6.12,0.61-12.24,2.446-17.748
				C401.012,296.261,399.789,295.036,399.176,294.426z M188.037,83.896c0.612,1.836,1.224,3.672,2.448,6.12
				c1.224,3.06,1.836,6.12,2.448,9.18l0,0h-0.612c-3.672,1.224-7.956,0.612-9.18-3.672C181.917,91.24,184.977,86.956,188.037,83.896
				z M389.997,310.336c-7.344-1.224-17.136,1.226-22.646,6.12c-2.446-6.12-7.954-11.016-15.3-9.18
				c-4.284,1.224-7.956,4.896-9.792,9.18c-1.224,2.448-1.836,6.12-1.836,9.792c-3.06,0.612-6.12,1.836-8.566,2.448
				c0-8.568-3.674-17.748-14.688-16.523c-11.628,1.225-16.523,13.465-13.464,23.867c-4.284,1.226-8.568,1.226-12.24,0.612l0,0
				c-3.06-6.731-9.792-12.852-17.748-11.628c-6.73,1.224-13.464,8.567-11.628,14.688c-3.672-0.611-6.73-0.611-11.016,0
				c2.447-7.956-6.732-17.137-14.076-17.748c-5.508-0.611-11.016,3.061-14.076,7.345c-1.224,1.836-2.448,4.283-2.448,7.344
				c-1.224,0-3.06-0.612-4.283-0.612c1.225-6.12,1.837-12.239,0-18.358h0.611c1.226,0,1.836,0,2.448-0.612
				c3.061-2.448,6.12-5.508,9.18-7.956c1.836,0,3.673-1.836,3.673-3.672c0-4.284-3.673-7.956,1.225-11.016
				c4.284-3.674,11.016,0.61,13.464,4.282c1.224,2.448,4.284,1.836,5.508,0c0.612,0,0.612,0,1.225-0.61
				c2.447-1.226,2.447-3.672,3.673-5.51c1.224-1.836,3.06-2.446,4.896-2.446c3.062,0,4.284-4.896,0.612-5.509h-0.612
				c-0.611-4.896-1.836-9.793,3.062-13.465c4.283-3.672,9.18-2.446,13.464,0c1.224,1.836,3.06,2.448,5.508,1.836
				c4.284-1.836,6.731-5.508,9.792-8.566c3.06-3.672,6.731-6.732,9.792-10.404c1.224-1.224,1.836-3.672,0.612-4.896
				c-3.673-4.896-7.346-9.792-11.018-14.076c-1.224-1.836-3.672-1.226-4.896,0c-2.448,0-4.284,1.836-6.732,1.836
				c-3.06,0-6.12-0.612-8.567-3.062c-4.896-4.896,0-12.852,6.12-14.688c0.611,0,1.225,0,2.447,0c0,0,0,0,0.612-0.612l0,0
				c0.611,0,1.224,0,1.224-0.611c15.301,6.119,31.824-11.017,41.616-20.809c10.404-10.404,13.464-29.376-2.448-36.72
				c-10.403-4.896-19.584-0.612-26.314,6.12c-4.896-11.016-13.465-18.972-27.54-12.852c-8.568,3.672-11.018,12.24-10.404,21.42
				c-1.224-1.836-3.672-3.06-4.896-4.896c-2.447-2.448-4.283-5.508-6.731-8.568c-1.836-2.448-5.508,0-4.896,3.06
				c1.225,3.672,3.673,7.344,6.119,10.404c0.612,1.224,1.837,2.448,2.448,3.06c-7.956,3.672-13.464,12.24-8.567,21.42
				c2.447,4.896,7.345,7.958,12.853,7.958c3.672,0,7.956-1.836,10.404-5.51c1.224,3.062,2.446,6.121,4.896,9.182
				c0.612,0.612,1.225,1.836,1.836,2.448c-7.956,4.283-12.852,14.688-7.344,23.256c3.061,5.508,9.18,8.567,15.3,8.567
				c3.061,0,7.956-1.225,11.017-3.673c1.836,2.448,3.061,4.896,4.896,7.956c-2.448,2.448-5.508,4.896-7.956,7.346
				c-2.448,2.446-5.508,4.282-7.344,6.73c-5.509-4.284-14.076-4.896-20.196-1.224c-6.731,4.284-10.403,15.3-6.731,22.644
				c-0.611,0-1.225,0.612-1.225,0.612c-1.224,0.612-2.447,1.836-3.672,3.06c-5.508-6.12-14.076-8.566-21.42-3.672
				c-4.284,3.062-6.731,7.956-6.731,12.854c0,2.446,0.611,4.896,1.836,6.73c-2.447,1.226-5.509,2.448-7.956,3.672
				c-0.611,0.612-1.225,0.612-1.225,1.226c-5.508-4.896-11.627-10.404-19.583-6.732c-7.956,3.672-9.18,16.524-6.12,23.868
				c-0.612,0.612-1.224,0.612-1.836,1.224c-2.448,1.836-5.508,3.673-7.344,5.509c-2.448-2.447-5.508-4.283-9.18-5.509
				c-4.896-1.224-12.852-3.06-15.912,1.226c-3.06,4.283-3.06,12.852,0,18.972c-3.06,1.224-6.12,3.06-9.18,4.896
				c-4.284-7.345-12.24-13.465-20.808-11.628c-5.508,1.225-11.628,6.119-13.464,12.239c-1.224-1.836-3.06-3.06-4.284-4.896
				c-1.836-2.448-4.284-5.509-6.732-6.732c3.672,0.612,6.732-1.836,8.568-4.896c2.448-4.896,1.836-10.404-0.612-15.302
				c-3.06-4.282-7.956-7.344-13.464-6.73c-3.06,0-7.344,1.224-9.792,3.672c-1.224-1.224-1.836-3.061-3.06-4.284
				c-1.224-1.836-1.836-4.284-3.06-6.73c3.672,0,6.732-2.448,8.568-6.12c2.448-6.12,0.612-13.464-3.672-18.36
				c-4.284-4.896-10.404-7.344-16.524-4.896c-1.836,0.61-4.284,2.446-5.508,4.282c-1.224-2.446-1.836-5.508-3.06-7.955
				s-1.836-4.896-3.06-7.345c9.792-4.284,15.3-16.522,7.956-25.704c-3.672-4.896-9.792-6.73-15.3-4.896
				c-1.836,0.611-4.284,1.836-5.508,3.672c-0.612-3.061-1.224-5.508-2.448-7.956c-0.612-1.836-1.836-4.284-3.672-6.12
				c9.792-0.611,15.912-13.464,11.016-22.644c-4.896-9.182-18.36-11.018-25.704-4.898c-1.224-2.448-1.836-4.284-3.06-6.732
				c0-0.612-0.612-1.836-0.612-2.448c7.956-1.836,12.852-12.24,11.628-20.196c-1.224-6.12-4.896-11.016-11.016-14.076
				c-2.448-1.224-6.12-2.448-9.792-1.836c-4.284-6.12,6.732-17.136,11.628-25.092c4.284,7.344,15.3,9.18,22.032,2.448
				c4.284-4.284,6.12-10.404,4.896-15.912c-1.224-1.836-2.448-5.508-4.284-7.956c3.06,0,6.12-0.612,9.18-1.836
				c1.836-0.612,3.672-1.224,4.896-2.448c0.612,1.224,1.836,1.836,3.06,2.448c5.508,3.06,11.628,0,15.3-3.672
				c3.672-3.672,6.732-9.18,7.344-14.688c0-2.448-0.612-5.508-1.836-7.344c3.672-1.224,7.344-2.448,11.016-4.284
				c1.836-1.224,3.672-2.448,5.508-3.672c3.06,6.732,11.016,10.404,18.36,6.732c9.792-4.284,13.464-18.36,7.344-26.928
				c6.12,0,12.24-1.224,17.748-3.672c3.06,3.06,6.732,6.12,10.404,6.732c-3.06,5.508-1.836,12.852,3.06,17.136
				c3.672,3.06,8.568,3.672,13.464,2.448c2.448-0.612,5.508-2.448,7.344-4.896c1.836,4.284,4.896,8.568,8.568,11.016
				c-6.12,4.284-9.792,12.24-6.12,19.584c3.672,7.344,17.136,12.24,20.808,1.836c0-0.612,0-1.224,0-1.836
				c1.224,3.06,3.06,5.508,4.896,8.568c0.611,0.612,1.224,1.836,1.836,2.448c-2.448,1.224-4.896,3.06-6.732,5.508
				c-3.06,4.284-4.284,9.792-1.836,14.688c4.284,7.956,14.688,7.956,22.032,4.284v0.612c0.612,1.836,3.061,1.836,3.061,0
				c0.611,2.448,1.836,4.896,3.672,7.344c0.611,0.612,0.611,0.612,1.225,1.224c-6.731,3.672-11.017,11.016-7.344,18.972
				c1.836,4.896,6.73,8.568,12.239,8.568c5.508,0,10.403-3.06,11.628-8.568c0.611-3.06-3.061-6.12-6.12-3.672
				c-3.061,3.06-8.567,3.672-9.18-1.836c-1.225-4.284,1.836-7.344,4.896-9.18c1.224,0.612,2.447,0.612,3.672,0
				c1.225-0.612,3.061-1.836,2.448-3.672c0-4.284-4.284-5.508-6.732-7.956c-2.447-2.448-4.896-5.508-6.12-8.568
				c-0.611-1.224-2.447-1.836-3.672-1.224c0-0.612-0.611-1.224-1.224-1.224c-0.612-6.12-1.225-12.852-1.836-18.972
				c-0.612-6.12-1.226-13.464-3.673-19.584c45.899,6.12,92.412-4.284,138.925-2.448c0.611,0,1.224,0,1.224,0
				c-2.447,34.884,0,69.768,1.836,104.652c1.836,30.6,1.836,62.424,7.345,93.025c-42.841,13.465-83.845,18.973-128.521,22.031
				c-3.061,0-4.284,4.896-0.612,6.12c43.452,7.956,91.801-1.224,130.969-22.032c1.225,1.226,3.672,0,3.672-1.836c0,0,0,0,0-0.61
				c1.225-1.226,1.225-3.062,0-4.284c1.225-32.438-2.447-66.097-3.672-98.534c-1.225-34.272-1.225-69.156-4.283-103.428
				c-0.612-3.06-3.673-3.672-5.509-1.836c-0.611,0-0.611-0.612-1.225-0.612c-47.735-6.12-97.308,7.344-145.655,6.12
				c-2.447,0-3.061,3.672-1.837,4.896c-0.61,6.732,1.226,12.852,2.448,18.972c-1.224-0.612-1.836-1.836-3.06-2.448
				c-2.448-2.448-4.896-5.508-6.733-8.568c-0.612-0.612-1.836-1.224-2.448-1.224c0-2.448-0.612-5.508-1.224-7.956
				c-0.612-1.836-0.612-3.672-1.836-5.508c6.732-0.612,12.241-4.896,14.077-11.628c0.611-3.06,0-8.568-1.836-12.852
				c4.283-0.612,7.955-1.224,12.239-1.836c1.836,0,3.061-0.612,4.896-0.612c-1.836,7.344,3.061,16.524,11.016,17.748
				c5.509,0.612,11.018-3.06,13.465-7.956c1.836-3.672,2.447-7.956,1.225-11.628c3.672,0.612,7.344,1.836,11.016,1.836
				c2.448,0,4.284,0.612,6.732,0c0,8.568,6.119,17.136,15.3,17.136c8.567,0,18.972-9.792,15.912-18.36l0,0
				c2.447,0,5.508,0.612,7.956,0.612c1.836,0,3.672,0.612,5.508,0c-2.448,6.732,3.061,15.912,9.792,17.748
				c10.403,3.672,21.42-4.896,23.256-14.688c2.448,0,5.508,0.612,7.956,0.612c0.612,0,1.225,0,1.836,0
				c-1.836,4.284-1.224,9.792,1.225,14.076c3.061,4.896,8.567,7.956,14.688,7.956c2.448,0,6.12,0,9.18-1.836
				c-0.61,3.06-1.224,6.732-1.836,10.404c0,3.06-0.611,6.12,0,8.568c-7.956-0.612-15.3,6.732-14.075,15.3
				c1.225,7.956,11.628,14.688,18.973,11.628c0,2.448-0.612,4.284-0.612,6.732c0,1.836-0.611,3.672-0.611,5.508h-0.611
				c-5.509-0.612-10.404,4.284-12.24,9.792c-3.672,11.016,6.12,23.256,17.136,20.808c-1.836,5.508-2.447,11.628-2.447,17.748
				c-0.611,0-1.225,0-1.836,0c-6.12,0.612-10.403,6.12-12.24,11.628c-1.836,6.12,0,12.854,5.509,16.524
				c3.06,1.836,6.731,2.448,10.403,1.836c-0.611,3.062-0.611,6.12,0,9.18h-0.611c-6.732,1.226-12.24,7.346-13.464,13.466
				c-2.448,9.792,6.73,19.584,15.3,19.584c-0.612,2.446-1.225,4.896-1.836,7.344c-0.612,1.836-0.612,4.284-0.612,6.73
				c-0.611,0-1.224,0-1.836,0.612c-6.12,2.448-10.403,9.18-10.403,15.912c0,9.792,10.403,15.912,18.359,13.464
				C391.22,304.828,390.609,307.889,389.997,310.336z M260.252,182.427c1.224,4.284,2.448,8.568,4.896,11.628
				c0,0-0.612,0-0.612,0.612c-1.226-0.612-2.448-0.612-3.672,0c-3.062,1.836-7.956,5.508-9.792-0.612
				C248.625,187.936,254.745,183.652,260.252,182.427L260.252,182.427z M203.949,121.228c1.224-1.836,3.672-3.06,5.508-4.284
				c0.612,0,0.612,0,1.224,0c0.612,0,0.612,0,1.226,0c1.224,4.284,1.836,7.956,3.06,12.24c-4.284,0.612-9.18,1.836-11.628-0.612
				C201.5,126.736,202.113,123.064,203.949,121.228z"/>
			<path d="M153.765,154.276c-23.256-11.016-33.048,12.852-33.048,33.048c-13.464-0.612-27.54,4.284-29.988,18.362
				c-3.06,16.522,12.24,23.256,27.54,25.092c1.224,0.612,3.06,0.612,4.284,1.224c7.344,1.836,16.524,3.672,23.868,0.612
				c3.672,0.612,6.732-1.224,9.18-4.896C166.004,208.744,180.081,167.128,153.765,154.276z"/>
		</g>
	</g>
</g>
<g>
</g>
<g>
</g>
<g>
</g>
<g>
</g>
<g>
</g>
<g>
</g>
<g>
</g>
<g>
</g>
<g>
</g>
<g>
</g>
<g>
</g>
<g>
</g>
<g>
</g>
<g>
</g>
<g>
</g>
</svg>
