<?xml version="1.0" encoding="iso-8859-1"?>
<!-- Generator: Adobe Illustrator 16.0.0, SVG Export Plug-In . SVG Version: 6.00 Build 0)  -->
<!DOCTYPE svg PUBLIC "-//W3C//DTD SVG 1.1//EN" "http://www.w3.org/Graphics/SVG/1.1/DTD/svg11.dtd">
<svg version="1.1" id="Capa_1" xmlns="http://www.w3.org/2000/svg" xmlns:xlink="http://www.w3.org/1999/xlink" x="0px" y="0px"
	 width="338.823px" height="338.823px" viewBox="0 0 338.823 338.823" style="enable-background:new 0 0 338.823 338.823;"
	 xml:space="preserve">
<g>
	<g>
		<g>
			<path d="M288.862,172.188c-6.12-0.611-11.016,1.837-15.3,5.509c0-3.672-0.612-7.345-1.836-9.793
				c-4.284-7.344-11.628-5.508-17.748-0.612c-0.612-5.508-2.448-11.016-6.732-15.3c-3.672-3.06-8.566-4.284-13.464-3.672
				c18.973-27.54,29.988-64.26,18.36-91.8c6.73-0.612,12.24-3.06,14.076-10.404c1.836-5.508-1.226-11.628-6.732-14.688
				c-3.672-1.836-6.73-1.836-9.792-1.224c1.836-9.18,0-17.748-9.18-22.032c-4.896-1.836-9.792-0.612-13.464,2.448
				c-6.732-8.568-15.912-14.688-25.094-7.344c-6.118,4.896-7.344,10.404-6.118,15.912c-45.902-6.12-85.07,23.256-105.878,62.424
				c-3.672-1.224-7.956-1.836-12.24-2.448c-6.12-0.612-12.24-1.224-17.748-2.448c-4.896-0.612-5.508,5.508-3.672,8.568
				c4.284,4.896,9.18,11.016,15.3,15.3c-6.732-0.612-14.076,0.612-20.808,1.224c-4.284,0.612-6.12,6.12-2.448,8.568
				c7.956,5.508,17.136,9.792,26.316,11.628c-0.612,2.448-0.612,4.284-1.224,6.732c-9.792,62.424,12.852,134.028,81.396,148.104
				c10.404,1.836,20.81,2.448,31.824,1.836c-1.224,19.584,1.226,39.168,8.568,57.528c1.836,4.283,8.567,3.06,7.344-1.837
				c-3.672-18.972-7.956-36.72-9.792-55.691c46.512-6.12,93.024-37.332,104.652-82.62c0.61,0,1.224-0.611,1.836-1.224
				C307.833,185.653,299.878,172.802,288.862,172.188z M76.498,88.958c3.06,0,6.732,0.612,9.792,0.612
				c-1.224,3.06-2.448,6.12-3.672,8.568c-2.448-2.448-4.896-4.284-7.344-6.732c-1.224-1.224-2.448-2.448-3.06-3.06
				C73.438,88.346,75.273,88.958,76.498,88.958z M77.109,115.272c-3.672-1.836-7.344-3.06-11.016-4.896
				c4.284,0,8.568-0.612,12.24-1.224C78.333,110.99,77.721,113.438,77.109,115.272z M291.31,189.325
				c-22.032,40.393-53.244,74.053-99.756,78.948c-1.226-0.612-2.448-0.612-3.062,0.611c-4.284,0.611-8.566,0.611-12.852,0.611
				c-61.814-1.836-94.25-55.079-93.025-111.385c0.612-54.468,27.54-111.384,85.68-123.624c12.854-3.06,25.705-2.448,37.333,1.224
				c-6.731,2.448-12.853,7.344-17.747,14.076c-3.062,4.284,0,11.628,4.896,12.24c6.12,1.224,11.628,0.612,16.524-1.224
				c0,7.956,2.446,14.076,11.628,14.688c11.016,0.612,13.464-10.404,13.464-20.196c0.611,0,0.611,0,1.224,0
				c6.732,8.568,10.404,19.584,11.018,33.048c0.61,27.54-15.301,52.02-31.213,73.44c-1.836,3.06,2.447,6.12,4.896,3.672
				c0.612-0.612,0.612-0.612,1.224-1.224c1.226,1.224,4.284,0.612,4.896-1.224c3.06-9.18,14.076-8.568,18.36-0.612
				c4.282,7.956-1.226,14.076-4.896,20.809c-1.836,3.061,1.836,6.731,4.896,4.896c3.672-2.447,6.73-6.12,7.955-9.792
				c1.225-1.836,3.061-3.06,4.896-4.283c1.836-1.225,3.672-2.448,6.12-1.225c3.06,1.225,2.448,3.061,1.836,6.12
				c-0.612,3.672-1.836,7.344-3.672,10.403c-1.836,3.061-4.284,4.896-4.896,7.956c-0.61,2.447,1.226,3.672,3.672,3.672
				c1.837,0,3.062-1.225,4.896-2.447c0.612,0,1.224,0,1.836-0.612c4.284-5.508,12.24-18.972,21.42-14.688
				c3.062,1.225,3.062,3.673,3.062,6.12C291.922,189.325,291.922,189.325,291.31,189.325z"/>
			<path d="M246.022,329.474c-4.284-8.567-9.792-16.523-12.853-25.703c-3.673-9.181-4.896-18.973-6.119-28.152
				c-0.612-4.283-6.12-4.283-6.12,0c-2.448,20.196,3.672,45.288,19.584,58.141C243.574,336.205,247.246,333.146,246.022,329.474z"/>
			<path d="M72.825,31.429c-1.836-5.508-7.956-6.731-12.24-3.06c-2.448,2.448-3.672,5.508-4.284,8.568
				c-3.06-2.448-5.508-4.284-8.568-6.732c-6.12-4.896-15.3,4.284-10.404,10.404c4.896,6.732,11.016,12.852,18.36,15.3
				c4.284,3.06,11.016,2.448,12.852-3.672C70.988,46.118,75.273,37.549,72.825,31.429z"/>
			<path d="M160.953,75.494c-10.404-4.896-23.868,4.284-21.42,15.912c0.612,3.672,6.732,3.06,6.12-0.612
				c-0.612-5.508,7.344-10.404,11.628-6.732c4.896,4.284,2.448,10.404,0.612,15.3c-1.224,3.06,1.836,7.956,5.508,5.508
				C173.194,97.524,171.358,80.39,160.953,75.494z"/>
			<path d="M202.57,184.43c-3.06-1.836-6.731,1.836-4.896,4.896c3.672,5.509,11.016,15.912-1.226,14.688
				c-7.956-0.611-14.688-4.896-18.972-11.016c-0.612-1.226-2.448-1.226-3.061-1.226c-0.611-0.611-1.225-0.611-1.837-1.224
				c-3.06-1.225-5.508,1.224-4.284,4.284c2.448,4.283,14.076,18.359,2.448,20.195c-7.956,1.225-11.016-11.628-12.852-16.523
				c-1.224-4.284-7.956-4.896-8.568,0c-1.224,7.344-6.732,20.808-16.524,11.628c-7.344-6.731-3.672-18.36-1.224-26.929
				c1.224-3.672-4.284-4.896-5.508-1.225c-4.896,12.854-9.18,32.438,7.956,38.557c9.18,3.673,15.912-1.836,20.196-8.567
				c4.896,8.567,12.852,15.912,23.257,10.403c6.12-3.061,7.956-8.567,7.344-14.075c6.732,4.284,14.688,6.731,21.42,4.284
				c5.508-1.837,8.568-7.345,8.568-13.465C213.586,192.386,208.078,187.489,202.57,184.43z"/>
		</g>
	</g>
</g>
<g>
</g>
<g>
</g>
<g>
</g>
<g>
</g>
<g>
</g>
<g>
</g>
<g>
</g>
<g>
</g>
<g>
</g>
<g>
</g>
<g>
</g>
<g>
</g>
<g>
</g>
<g>
</g>
<g>
</g>
</svg>
