<?xml version="1.0" encoding="iso-8859-1"?>
<!-- Generator: Adobe Illustrator 16.0.0, SVG Export Plug-In . SVG Version: 6.00 Build 0)  -->
<!DOCTYPE svg PUBLIC "-//W3C//DTD SVG 1.1//EN" "http://www.w3.org/Graphics/SVG/1.1/DTD/svg11.dtd">
<svg version="1.1" id="Capa_1" xmlns="http://www.w3.org/2000/svg" xmlns:xlink="http://www.w3.org/1999/xlink" x="0px" y="0px"
	 width="314.597px" height="314.597px" viewBox="0 0 314.597 314.597" style="enable-background:new 0 0 314.597 314.597;"
	 xml:space="preserve">
<g>
	<g>
		<g>
			<path d="M246.565,2.478c-1.836-3.061-4.895-3.061-6.73-1.225h-0.611C164.56,2.478,90.508,11.045,17.68,26.345
				c-2.448,0.612-4.896,4.284-3.672,6.732c31.212,86.904,45.288,176.255,50.796,268.056c0,2.447,2.448,3.061,3.672,1.836
				c0,1.225,0,2.448,1.224,2.448c31.824,8.567,67.32,4.896,100.367,6.119c37.332,1.225,74.053,3.061,111.385,3.061
				c2.447,0,3.672-1.225,4.283-2.447c1.836,0,3.672-1.225,4.283-3.673C314.499,208.108,296.751,93.054,246.565,2.478z
				 M69.699,301.744C69.087,301.744,69.087,301.744,69.699,301.744C69.087,301.744,69.087,301.133,69.699,301.744
				C71.535,224.02,59.295,147.521,37.875,73.47c-2.448-8.568-7.956-18.973-8.568-27.54c-0.612-13.465,2.448-9.792,13.464-14.076
				c20.196-7.345,47.124-7.956,67.932-10.404c42.84-5.508,85.681-7.956,128.521-9.18c0.611,0,0.611,0,1.225,0
				c41.615,94.859,53.855,188.495,40.393,291.311c-36.721-1.836-74.053-2.447-110.773-3.06
				C137.019,299.908,101.523,294.4,69.699,301.744z"/>
			<path d="M215.966,36.137c-47.736,8.568-94.248,21.421-142.596,28.765c-1.836,0.612-1.224,3.672,0.612,3.672
				c47.124,0.612,98.531-14.076,143.82-25.092C223.31,42.257,220.862,35.525,215.966,36.137z"/>
			<path d="M228.206,73.469c-48.35,9.181-97.308,21.421-146.268,26.929c-1.836,0-1.836,3.06,0,3.06
				c48.348,1.836,100.979-12.24,148.104-22.032C235.55,80.813,233.714,72.857,228.206,73.469z"/>
			<path d="M236.163,118.757c-48.35,5.509-96.697,13.465-145.045,22.032c-3.06,0.612-2.448,5.508,0.612,4.896
				c48.348-5.509,97.308-11.017,145.042-19.584C241.058,125.489,240.446,118.146,236.163,118.757z"/>
			<path d="M239.222,165.881c-47.123-1.836-93.022,20.809-139.535,18.359c-3.06,0-2.448,4.284,0,4.284
				c20.808,2.447,39.78-3.061,59.976-7.345c26.928-4.896,53.855-6.12,80.783-10.403
				C242.894,171.389,242.282,166.492,239.222,165.881z"/>
			<path d="M245.343,212.393c-45.289,3.061-90.577,9.181-135.864,17.748c-3.672,0.612-1.836,5.509,1.224,4.896
				c44.676-6.731,89.353-11.016,134.026-14.075C250.851,220.349,250.851,211.78,245.343,212.393z"/>
			<path d="M233.714,242.381c-8.568-5.509-16.523,1.836-20.195,10.403c-1.225-1.225-2.447-1.836-4.285-2.447
				c-4.895-1.837-11.016,0.611-13.463,5.508c-2.447,6.12,2.447,12.239,6.732,15.912c4.283,3.672,8.566,6.12,14.074,7.344
				c1.225,4.896,9.182,6.12,10.404,0c1.836-7.956,10.404-12.853,12.854-20.809C241.058,252.784,239.222,245.44,233.714,242.381z"/>
		</g>
	</g>
</g>
<g>
</g>
<g>
</g>
<g>
</g>
<g>
</g>
<g>
</g>
<g>
</g>
<g>
</g>
<g>
</g>
<g>
</g>
<g>
</g>
<g>
</g>
<g>
</g>
<g>
</g>
<g>
</g>
<g>
</g>
</svg>
