<?xml version="1.0" encoding="iso-8859-1"?>
<!-- Generator: Adobe Illustrator 16.0.0, SVG Export Plug-In . SVG Version: 6.00 Build 0)  -->
<!DOCTYPE svg PUBLIC "-//W3C//DTD SVG 1.1//EN" "http://www.w3.org/Graphics/SVG/1.1/DTD/svg11.dtd">
<svg version="1.1" id="Capa_1" xmlns="http://www.w3.org/2000/svg" xmlns:xlink="http://www.w3.org/1999/xlink" x="0px" y="0px"
	 width="418.25px" height="418.25px" viewBox="0 0 418.25 418.25" style="enable-background:new 0 0 418.25 418.25;"
	 xml:space="preserve">
<g>
	<g>
		<g>
			<path d="M398.023,284.23c10.403-3.672,17.748-14.076,17.748-25.094c0-8.566-7.345-20.195-16.523-25.092
				c11.016-3.672,19.584-14.688,18.971-26.928c-0.61-8.568-7.344-18.36-15.299-22.644c9.18-4.284,14.688-17.136,14.688-27.54
				c0-11.628-6.732-31.824-20.81-32.436c12.24-9.18,10.404-32.436-1.836-41.616c-9.18-7.344-22.645-9.792-33.047-4.284
				c-3.061,1.224-5.51,3.06-7.346,5.508c-3.06-8.568-13.463-13.464-22.031-12.852c-10.404,0.612-18.359,7.344-22.646,15.912
				c-3.059-9.792-12.852-16.524-23.866-15.912c-9.793,0.612-17.748,8.568-19.584,17.748c-3.062-7.344-11.017-13.464-18.359-14.688
				c-10.404-1.224-19.584,4.896-23.869,14.076c-3.672-9.792-13.463-17.748-23.256-17.136c-10.404,0.612-19.584,7.956-22.644,17.748
				c-3.06-6.732-10.404-12.24-17.748-12.852c-11.016-0.612-17.748,6.12-21.42,15.3c-1.224-2.448-2.448-4.284-3.672-6.12
				c-4.896-5.508-12.24-9.18-19.584-7.956c-10.404,1.224-17.136,10.404-18.36,19.584c-3.06-11.016-12.24-22.032-23.256-19.584
				c-9.792,2.448-18.36,9.792-22.032,18.972c-3.06-6.12-4.896-11.628-12.852-12.852c-8.568-1.224-17.136,3.672-22.032,10.404
				c-6.732,8.568-6.732,23.256,0,31.824c-8.568,0.612-15.912,5.508-17.136,14.688c-1.836,11.016,7.956,17.136,18.36,18.972
				c-7.956,5.508-14.076,13.464-12.24,23.256c0.612,5.508,4.896,10.404,9.792,12.852c-3.672,1.836-7.344,3.672-10.404,7.344
				c-3.672,4.896-4.284,11.015-2.448,16.525c1.836,6.119,6.732,10.402,12.24,12.852c-3.06,1.225-5.508,3.061-8.568,5.508
				c-4.896,4.896-7.344,12.24-5.508,19.584c1.224,5.51,5.508,9.182,9.792,11.629c-6.12,4.896-11.016,11.627-9.792,17.748
				c0.612,5.508,5.508,8.568,11.016,10.404c-11.628,13.463-17.136,33.66,1.224,44.676c14.688,8.568,31.824,1.836,41.616-11.016
				c1.836,6.73,7.956,12.238,15.3,14.074c11.628,1.838,22.644-4.896,27.54-14.688c1.836,6.73,9.18,12.24,17.136,12.852
				c12.24,1.225,27.54-5.508,34.272-16.523c1.836,8.568,9.792,15.301,18.36,16.523c11.016,1.836,23.868-4.283,29.988-14.074
				c3.06,8.566,10.404,15.299,20.197,17.746c13.463,2.449,29.375-6.73,33.66-19.584c4.283,9.182,13.463,15.912,23.256,16.523
				c9.791,0.613,19.584-4.283,25.093-11.627c3.061,6.73,9.18,11.627,17.135,13.463c14.688,2.449,27.541-6.119,33.049-18.971
				c9.793,18.971,42.84,23.256,58.752,9.791c11.016-9.18,10.404-23.256,5.508-35.496
				C410.264,292.799,404.756,286.678,398.023,284.23z M406.592,256.078c2.447,12.24-8.567,20.809-19.584,22.645
				c0.611-13.465,0.611-26.314,0.611-39.779c3.061,1.225,6.119,1.836,9.18,3.061C401.695,245.674,405.367,250.57,406.592,256.078z
				 M409.039,207.118c0.611,11.628-10.404,20.197-20.809,19.585c0,0,0,0-0.611,0c0-12.854,0-26.317,0-39.169
				c0,0.612,0.611,0.612,0.611,0.612C397.412,192.43,408.428,194.877,409.039,207.118z M391.902,130.618
				c9.182,4.284,14.688,9.792,16.524,19.584c2.447,12.24-2.449,30.6-18.36,28.152c-0.611,0-1.224,0-1.836,0
				c0-16.524-0.611-33.66-0.611-50.184c1.225,0,2.447-0.612,3.061-0.612C390.066,128.782,390.68,130.006,391.902,130.618z
				 M327.031,79.822c8.567-3.06,20.194,1.224,20.194,11.628c0,1.224,0.613,2.448,1.837,3.06c0,1.224,0,2.448,0,3.06
				c-12.24,0-24.479,0-36.72,0.612C313.566,90.226,319.074,82.881,327.031,79.822z M271.951,98.182
				c0-8.568,4.896-17.748,14.076-18.36c9.18-0.612,15.912,7.956,17.137,16.524c0,1.224,1.223,2.448,2.447,2.448
				C294.596,98.793,283.58,98.793,271.951,98.182C271.951,98.793,271.951,98.182,271.951,98.182z M248.084,82.27
				c7.955,2.448,10.402,9.18,11.627,16.524c-10.404,0-20.809,0-31.211,0C228.5,89.001,237.066,79.209,248.084,82.27z
				 M205.855,79.209c9.18,3.06,9.18,12.852,12.852,20.196c-12.24,0-24.48,0-36.72,0.612
				C183.823,87.778,191.779,74.313,205.855,79.209z M155.671,82.881c4.896-0.612,10.404,1.224,12.852,4.896
				c2.448,3.672,2.448,7.344,2.448,11.628c-9.792,0-19.584,0-29.376,0.612C144.043,92.674,147.103,84.105,155.671,82.881z
				 M115.891,83.494c4.896-0.612,9.792,2.448,12.852,6.12s3.06,7.344,4.284,11.016c-10.404,0-20.196,0.612-30.6,1.224
				C101.815,93.286,107.323,84.105,115.891,83.494z M72.439,86.554c10.404-3.06,15.912,6.12,19.584,15.3
				c-11.628,0.612-23.256,1.224-34.884,1.836C58.363,96.346,65.095,89.001,72.439,86.554z M25.315,97.57
				c4.284-5.508,12.24-9.792,17.748-2.448c2.448,3.06,3.06,6.12,5.508,9.18c-3.672,0-7.344,0.612-11.016,0.612
				c-0.612,0-1.224,0.612-1.836,1.224c-1.224-1.224-3.672-1.224-3.672,1.224c-0.612,5.508-1.224,11.628-1.836,17.136
				C21.031,117.766,17.359,107.362,25.315,97.57z M8.791,139.798c1.836-8.568,12.852-7.956,20.808-7.956
				c-0.612,6.12-1.224,12.852-1.836,18.972C19.807,150.202,6.955,147.753,8.791,139.798z M13.075,175.906
				c1.224-7.344,6.732-12.24,12.852-16.524c0.612,0,1.224,0,1.224,0c-0.612,9.792-1.224,19.584-1.224,29.376
				C17.359,191.206,11.239,183.862,13.075,175.906z M9.403,214.463c-2.448-10.405,9.18-12.853,15.3-18.973c0,0,0,0,0.612,0
				c-0.612,9.792-0.612,19.584-0.612,29.989C17.971,224.867,11.239,222.418,9.403,214.463z M8.179,253.631
				c-1.836-10.404,7.956-15.912,16.524-18.359c0,7.955,0,16.523,0,24.479c-0.612,0-1.224,0-1.836,0
				c-1.224,0.611-3.06,1.836-4.284,3.061C13.075,262.197,9.403,259.139,8.179,253.631z M11.239,279.945
				c2.448-3.672,4.896-6.73,7.956-9.791c1.836,0,3.672-0.611,4.896-1.225c0,6.119,0,12.24,0,18.359
				c-0.612-0.611-1.836-0.611-2.448,0c-1.836,1.225-3.06,1.836-4.284,3.061c-0.612,0-1.224,0-1.836-0.611
				C10.015,288.516,7.567,285.455,11.239,279.945z M21.031,335.639c-18.972-6.73-10.404-25.703-1.224-37.332
				c1.836,0,3.672,0,4.896,0c0,4.896,0,10.404,0,15.301c0,1.836,0.612,3.061,1.836,3.672c-1.224,2.447,0,6.119,3.06,5.508
				c6.732-0.611,13.464-0.611,20.196-1.225C43.675,331.967,33.883,340.535,21.031,335.639z M77.335,337.475
				c-10.404,2.447-19.584-6.121-17.748-15.912c12.24-0.611,23.868-1.225,36.108-1.836C91.411,327.682,86.515,335.025,77.335,337.475
				z M148.327,318.502c-0.612,0-1.836,0-2.448,0.611c-6.12,5.51-11.016,11.629-19.584,14.688
				c-8.568,3.061-29.988,0.613-22.644-14.074v-0.613C118.951,318.502,133.639,318.502,148.327,318.502
				C148.327,317.891,148.327,317.891,148.327,318.502z M194.839,319.727c-1.224,0-1.836,0-2.448,0.611
				c-6.12,6.119-11.628,13.463-20.808,14.076c-9.792,0.611-17.136-7.346-16.524-17.137c13.464-0.611,26.928-0.611,40.392-0.611
				C194.839,317.891,194.839,318.502,194.839,319.727z M221.768,335.025c-10.403,0.611-17.749-8.566-18.359-18.359
				c13.464,0,26.929,0,40.392-0.611C238.902,324.623,233.395,334.414,221.768,335.025z M296.432,316.666
				c-3.672,9.18-11.629,17.137-22.032,16.523c-9.791-0.611-15.3-7.955-17.748-16.523
				C269.504,316.055,282.967,316.666,296.432,316.666L296.432,316.666z M323.971,334.414c-11.627,2.447-22.03-6.73-19.584-17.748
				c12.853,0,26.316,0.611,39.168,0.611C338.658,324.623,333.15,332.578,323.971,334.414z M33.271,314.83
				c0-0.611,0.612-0.611,0.612-1.225c6.732-66.096,11.016-138.924,3.672-205.02c0,0,0,0,0.612,0
				c111.996,4.284,224.604-1.224,336.601-3.06c5.509,0,5.509-8.568,0-8.568c-6.12,0-11.629,0-17.748,0
				c3.062-15.3,23.867-15.3,33.66-5.508c10.404,9.792,6.732,22.644-4.285,29.376c0-4.896,0-9.792,0-14.688c0-6.12-9.18-6.12-9.18,0
				c-1.836,66.708-3.061,134.028,0,200.737c-0.61,0-1.223-0.613-1.223-0.613C263.996,296.471,144.655,298.918,33.271,314.83z
				 M391.291,331.967c-12.852,2.447-33.049-1.225-38.557-14.076c7.957,0,15.301,0.611,23.256,0.611c1.838,0,3.674-0.611,4.285-1.836
				c2.446,1.225,5.508,0,5.508-3.672c0.61-7.344,0.61-15.301,1.225-22.645c0,0,0,0,0.611,0
				C412.711,287.902,415.158,326.459,391.291,331.967z"/>
			<path d="M137.923,259.139c0-0.611-0.612-1.225-0.612-1.225c-2.448-4.283-7.956-5.508-12.24-3.061
				c-2.448,1.225-12.24,1.225-19.584,0.611c-1.224-12.238,1.224-26.928,3.06-39.779c0-1.836,0-3.061,0-4.283c0,0,0,0,0-0.611
				c0.612-3.062,0.612-6.122,0.612-8.569c0.612-16.524-0.612-33.048-2.448-49.572l0,0l0,0c0-1.224,0-1.836-0.612-3.06
				c-1.836-12.24-20.196-8.568-20.808,3.06c-1.224,17.748-0.612,35.496,1.836,52.632c0,3.672,0,6.732-0.612,10.404
				c-1.224,16.523-5.508,35.496-1.836,52.021c0.612,3.672,4.284,6.73,7.956,7.955c10.404,2.447,28.764,3.672,38.556-0.611
				C137.923,272.602,141.595,265.871,137.923,259.139z"/>
			<path d="M170.971,182.638l-0.612-0.612c-3.06-1.836-7.956-1.836-11.016,0c-6.12,4.284-9.18,11.016-12.24,18.36
				c-0.612-1.836-1.836-4.284-2.448-6.12c-1.836-5.508-7.344-9.18-13.464-7.344c-5.508,1.224-9.18,7.956-7.344,13.464
				c2.448,7.344,5.508,14.688,7.956,22.032c3.06,6.732,7.344,12.24,15.3,11.629s11.628-7.344,14.688-13.465
				c3.06-6.119,5.508-12.853,9.18-18.972C178.315,197.326,177.091,186.31,170.971,182.638z"/>
			<path d="M259.1,149.59c0-0.612,0-0.612,0-1.224c0-9.18-12.239-14.688-18.36-7.956c-10.402,11.628-11.017,33.66-13.463,48.96
				c-1.836,11.016-2.447,21.421-4.285,32.437c-6.119-23.869-12.853-47.736-22.031-70.38c-1.836-4.284-8.568-1.836-8.568,2.448
				c2.448,37.332,12.24,75.276,19.583,111.997c1.836,8.568,15.912,11.016,19.584,2.447c7.957-15.91,11.63-32.436,14.076-50.184
				c1.226-10.404,2.449-20.809,4.285-31.212c1.223-6.732,1.836-22.644,5.508-29.376C257.264,155.709,259.1,153.262,259.1,149.59z"/>
			<path d="M327.031,146.53c-28.765-12.852-44.676,12.24-50.797,36.72c-6.73,24.48-8.566,64.26,12.854,83.233
				c15.299,13.463,41.004,12.238,48.959-7.346c3.062-7.344-7.344-15.91-14.076-11.016c-23.867,17.748-29.987-14.688-29.987-36.721
				c15.301,1.836,30.602,1.225,45.289,1.836c4.896,0,8.567-3.672,10.403-7.956C358.855,183.25,349.062,156.322,327.031,146.53z
				 M319.074,166.114c10.403,3.06,12.854,15.3,12.24,25.092c-11.628,0-23.257,0.612-34.884,1.836
				c0.611-4.896,1.836-9.18,3.672-13.464C302.551,172.234,309.283,163.054,319.074,166.114z"/>
		</g>
	</g>
</g>
<g>
</g>
<g>
</g>
<g>
</g>
<g>
</g>
<g>
</g>
<g>
</g>
<g>
</g>
<g>
</g>
<g>
</g>
<g>
</g>
<g>
</g>
<g>
</g>
<g>
</g>
<g>
</g>
<g>
</g>
</svg>
