<?xml version="1.0" encoding="iso-8859-1"?>
<!-- Generator: Adobe Illustrator 16.0.0, SVG Export Plug-In . SVG Version: 6.00 Build 0)  -->
<!DOCTYPE svg PUBLIC "-//W3C//DTD SVG 1.1//EN" "http://www.w3.org/Graphics/SVG/1.1/DTD/svg11.dtd">
<svg version="1.1" id="Capa_1" xmlns="http://www.w3.org/2000/svg" xmlns:xlink="http://www.w3.org/1999/xlink" x="0px" y="0px"
	 width="317.121px" height="317.121px" viewBox="0 0 317.121 317.121" style="enable-background:new 0 0 317.121 317.121;"
	 xml:space="preserve">
<g>
	<g>
		<g>
			<path d="M306.559,31.386c-15.91,9.18-32.436,15.912-49.57,22.032c-7.346,2.448-6.732,15.3,1.836,14.076
				c1.836,0,3.672,0,5.508-0.612c-3.06,3.06-6.12,5.508-9.18,8.568c-6.12,6.12-13.464,12.24-18.36,19.584
				c-29.988-28.152-83.844-22.032-94.248,25.092c-20.196-55.08-97.308-34.884-115.056,13.464
				c-14.076,37.943-1.224,70.992,22.644,97.919c-6.732,5.509-12.852,11.017-19.584,16.523c-1.224-0.611-1.836-0.611-3.06-1.224
				c-7.344-0.612-14.688-2.448-22.032-1.836c-6.732,0-7.344,8.567-1.224,11.016c4.896,1.836,9.792,3.061,14.688,4.284
				c-1.836,8.567-2.448,20.195,4.284,23.256c1.836,0.612,4.284,1.225,6.12,0c4.284-3.672,4.284-6.731,4.284-12.239
				c0-4.896,0.612-9.181,1.224-14.076c7.956-5.508,15.912-10.403,23.256-16.523l0.612-0.611
				c21.42,20.808,49.572,36.72,74.664,46.512c3.06,1.225,4.896-1.225,5.508-3.672c0.612,0,1.836,0,2.448-0.611
				c52.632-33.66,143.208-88.129,110.771-165.24c-2.447-6.12-6.12-11.628-9.792-16.524c7.345-3.672,14.076-10.404,20.196-15.912
				c6.12-4.896,12.24-9.792,18.36-14.076c1.836,6.732,4.282,13.464,7.344,19.584c2.448,5.508,7.344,10.404,13.464,7.344
				c7.344-3.06,6.732-14.076,7.956-20.196c2.448-12.852,4.896-25.092,7.344-37.944C318.187,33.222,312.067,27.714,306.559,31.386z
				 M238.627,181.325c-20.808,42.841-65.484,65.484-102.204,92.412c-1.224,1.225-1.836,1.836-2.448,3.061
				c-42.228-19.584-86.292-44.676-97.92-93.023c-6.732-28.152,0.612-59.977,25.092-76.5c28.764-20.196,63.036-7.344,78.336,22.032
				c1.224,2.448,4.284,1.224,5.508-0.612c1.224,0,2.448-0.612,3.06-1.836c9.792-33.66,47.736-53.856,77.725-28.764
				C250.867,117.678,252.091,153.174,238.627,181.325z"/>
			<path d="M96.031,117.065c-9.18-10.404-25.704,4.284-32.436,11.628c-9.18,9.792-18.972,28.152-11.628,41.003
				c2.448,4.896,8.568,3.061,10.404-1.225c3.672-9.18,2.448-18.359,8.568-26.928c4.284-5.508,15.912-20.196,23.256-19.584
				C96.643,121.961,97.867,118.289,96.031,117.065z"/>
		</g>
	</g>
</g>
<g>
</g>
<g>
</g>
<g>
</g>
<g>
</g>
<g>
</g>
<g>
</g>
<g>
</g>
<g>
</g>
<g>
</g>
<g>
</g>
<g>
</g>
<g>
</g>
<g>
</g>
<g>
</g>
<g>
</g>
</svg>
