<?xml version="1.0" encoding="iso-8859-1"?>
<!-- Generator: Adobe Illustrator 16.0.0, SVG Export Plug-In . SVG Version: 6.00 Build 0)  -->
<!DOCTYPE svg PUBLIC "-//W3C//DTD SVG 1.1//EN" "http://www.w3.org/Graphics/SVG/1.1/DTD/svg11.dtd">
<svg version="1.1" id="Capa_1" xmlns="http://www.w3.org/2000/svg" xmlns:xlink="http://www.w3.org/1999/xlink" x="0px" y="0px"
	 width="308.172px" height="308.172px" viewBox="0 0 308.172 308.172" style="enable-background:new 0 0 308.172 308.172;"
	 xml:space="preserve">
<g>
	<g>
		<g>
			<path d="M304.197,91.597c-20.81-69.156-106.488-81.396-152.389-31.824c-0.612,0.612-1.225,0.612-1.225,1.224
				c-0.611,0.612-1.224,1.224-1.836,2.448C107.132,4.082,17.78,65.281,3.092,119.137c-22.644,85.067,84.456,132.802,146.269,155.448
				c0.612,0,0.612,0,1.224,0c-1.224,1.836,1.225,4.896,3.672,3.672c15.912-6.732,33.048-15.912,49.572-26.316
				c0.612,0,0.612,0.612,1.224,0.612c1.226,0,2.448-1.225,1.836-2.448c6.12-4.284,12.24-7.956,18.36-12.852c0,0,0,0,0.612,0
				c1.836,1.224,3.672-1.226,3.06-2.448c17.748-12.853,34.272-27.54,47.736-42.229C300.525,165.036,315.825,128.317,304.197,91.597z
				 M297.465,95.269c-9.18,4.284-18.358,8.568-28.151,11.628c-0.611,0-0.611,0.612-0.611,0.612
				c-0.612-5.508-2.448-11.628-5.508-17.136c9.18-4.284,17.748-9.792,24.479-16.524C291.957,79.969,295.018,87.313,297.465,95.269z
				 M261.357,48.757c8.566,4.896,16.522,11.628,22.644,18.972c-7.956,5.508-15.3,11.628-23.256,17.136
				c-1.225-1.836-1.836-3.672-3.061-5.508c-2.447-3.672-4.896-6.732-7.956-9.18C254.013,63.445,258.297,56.713,261.357,48.757
				C261.357,49.369,261.357,49.369,261.357,48.757z M233.205,38.354c8.568,1.836,16.523,4.284,23.868,7.956l0,0
				c-4.896,6.12-8.568,12.852-12.24,19.584c-4.284-3.672-9.18-6.12-14.076-8.568C232.593,51.205,233.205,45.085,233.205,38.354z
				 M228.31,37.741c-1.225,6.12-1.836,12.24-1.836,18.36c-6.731-2.448-13.465-3.06-20.195-3.06c0-2.448,0.61-4.896,0.61-7.344
				c0-2.448,0-5.508-1.224-7.344C213.009,37.129,220.354,37.129,228.31,37.741z M200.157,38.965
				c-1.225,1.836-1.225,4.284-1.225,6.732c0,2.448,0,5.508,0.611,7.956c-3.672,0.612-7.344,1.836-11.016,3.672
				c-3.062,1.224-5.509,3.06-7.956,4.896c0-1.224-0.612-1.836-0.612-3.06c-0.611-2.448-1.224-5.508-1.836-8.568
				c-0.611-3.06-4.896-2.448-5.508,0.612c-0.612,4.896,1.224,9.792,4.284,13.464c-9.182,7.956-15.301,19.584-19.584,31.824
				c0-11.016,0-22.032-0.612-33.048C168.945,49.981,184.245,42.025,200.157,38.965z M145.077,72.625
				C145.689,72.625,145.689,72.625,145.077,72.625c1.836,1.836,3.06,1.836,4.284,1.224c-0.612,11.628-0.612,23.256,0,34.272
				c-2.448-6.732-5.508-12.852-9.18-18.36c0-3.672,0.611-6.732,1.836-9.792C143.241,77.521,144.465,75.073,145.077,72.625z
				 M131.613,60.385c3.672,2.448,7.344,5.508,10.404,8.568c-4.284,3.06-6.12,8.568-6.732,14.076c-3.06-3.06-6.12-5.508-9.792-7.956
				c1.836-3.06,3.06-6.12,4.284-9.792C130.39,64.057,131.001,62.221,131.613,60.385z M113.252,68.953
				c0.612-4.896,1.225-11.016,0.612-16.524c4.284,1.224,7.956,2.448,11.628,4.896c-1.224,1.836-1.836,4.284-2.448,6.12
				c-1.224,3.06-2.447,6.12-3.672,9.18C117.537,70.79,115.701,69.565,113.252,68.953L113.252,68.953z M105.909,50.593
				c-1.224,5.508-0.612,11.016,0,16.524c-3.06-0.612-6.12-1.224-9.18-1.224c0-1.836-1.225-3.06-1.836-4.896
				c-1.225-3.06-1.836-6.12-3.061-8.568c0-0.612-0.611-1.224-0.611-1.224C96.729,49.981,101.625,49.981,105.909,50.593z
				 M85.102,51.205c-0.612,0.612-0.612,1.836,0,2.448c0.611,3.06,1.836,6.732,3.672,9.792c0.611,0.612,0.611,1.224,1.224,2.448
				c-7.344,0.612-14.076,2.448-20.196,4.896c-2.447-3.672-4.896-6.732-7.344-9.792c0,0-0.611,0-0.611-0.612
				C69.189,56.101,77.146,53.042,85.102,51.205z M57.562,62.221c0,0.612,0,0.612,0,1.224c1.836,3.672,3.672,6.732,5.508,9.792
				c-4.284,2.448-8.568,5.508-12.24,9.792c-2.448-3.06-5.508-6.12-7.956-9.18C47.77,69.565,52.665,65.893,57.562,62.221z
				 M40.425,76.297c2.448,3.06,4.896,6.12,7.956,9.18c0,0,0.612,0,0.612,0.612c-2.448,3.06-5.508,6.12-7.344,9.792
				c-0.612,1.224-1.225,2.448-1.836,3.672c0,0,0,0,0-0.612c-1.836-2.448-4.896-3.672-7.345-4.896
				c-1.836-0.612-3.06-1.836-4.896-2.448C31.245,86.089,35.529,80.582,40.425,76.297z M25.737,93.433
				c1.836,1.224,3.06,1.836,4.896,3.06c2.448,1.836,4.896,3.672,7.956,4.284h0.612c-1.836,4.284-3.672,9.18-4.896,13.464
				c-6.12-1.224-12.24-1.224-18.36-1.224C18.394,106.285,21.453,100.166,25.737,93.433z M14.109,117.301
				c6.12,0.612,12.852,1.836,18.972,1.836c-0.612,4.896-1.224,9.18-0.612,14.076l0,0c-7.344,1.224-14.688,2.448-22.031,2.448
				C10.438,129.542,11.661,123.421,14.109,117.301z M29.409,193.801c7.344-1.836,13.464-6.732,18.972-11.017
				c2.448-1.836-0.611-6.12-3.672-4.283c-6.12,4.283-12.852,7.344-18.972,11.628c-4.284-6.12-7.956-12.24-11.016-18.973
				c7.955-1.225,15.3-3.061,21.42-7.956c2.447-1.836,0.611-6.12-2.448-4.283c-6.732,3.672-13.464,6.73-20.809,7.955
				c-3.06-7.955-4.283-16.523-3.672-25.091c7.956,0,15.301-0.612,22.645-3.06c2.448,19.583,13.464,38.554,28.764,54.466
				c-0.612-0.611-1.836-0.611-2.448,0.612c-4.283,5.508-9.792,11.016-15.3,15.3C37.978,203.593,33.081,198.695,29.409,193.801z
				 M80.205,232.969c-4.284-2.448-8.567-4.896-12.852-7.345c4.896-3.061,9.18-6.731,11.628-11.628
				c1.224-2.447-1.836-4.283-3.061-1.836c-3.06,4.896-6.731,8.567-11.628,11.628c-6.12-4.283-12.24-7.955-17.748-12.853
				c6.732-3.672,11.628-8.567,15.912-15.3c0.612-0.612,0-1.225,0-2.448c9.792,9.792,20.809,18.973,32.437,26.316
				c-3.061,4.283-7.345,8.567-12.24,10.403C80.205,230.521,79.593,231.744,80.205,232.969z M82.653,234.192L82.653,234.192
				c6.12-2.447,12.24-6.119,15.3-12.239c4.896,3.061,10.404,6.12,15.3,9.181c-1.836,5.508-3.672,10.403-7.344,15.3
				C97.953,242.148,90.609,238.477,82.653,234.192z M125.493,255.611c-4.896-2.447-9.18-4.283-14.076-6.73
				c3.672-4.284,6.732-9.792,7.344-15.301c4.284,2.447,8.568,4.284,12.853,6.12C128.553,244.597,127.329,250.104,125.493,255.611
				L125.493,255.611z M147.525,256.837c0,3.06-0.612,6.73,0,9.792c-5.508-3.062-11.017-6.12-16.524-8.568c0,0,0,0,0-0.611
				c2.448-4.896,4.896-10.403,6.732-15.912c3.06,1.225,6.731,2.447,9.792,3.672c0,1.225,0,1.837,0.611,3.061
				C147.525,251.328,147.525,254.389,147.525,256.837z M150.584,240.925l-0.611-0.612c-3.673-1.836-7.956-4.283-11.629-6.12
				c-0.611-0.611-0.611-0.611-1.224-0.611c-34.884-17.748-69.156-37.943-85.68-75.889c-14.076-33.046-3.672-80.782,39.168-82.006
				c37.943-1.224,48.348,33.66,57.527,62.424c1.225,3.672,7.346,3.672,7.956,0c0.612-0.612,0.612-0.612,0.612-1.224
				c4.896-24.48,14.688-63.036,42.84-70.38c41.004-10.404,60.588,37.332,53.244,69.156
				C239.938,184.62,187.917,212.772,150.584,240.925z M155.481,270.912c0-0.611,0.61-0.611,0.61-1.225
				c1.226-4.283,0.612-8.567,0-12.852c0-2.448-0.61-4.896-0.61-7.345c4.283-1.836,7.955-4.283,12.852-7.345l0,0
				c1.836,3.672,3.672,7.345,5.508,10.404c0.612,1.224,1.226,3.06,2.448,4.284C168.945,262.345,161.602,266.629,155.481,270.912z
				 M180.573,255.001c-0.612-1.226-1.836-2.448-2.448-3.673c-2.448-3.061-4.896-6.731-6.731-9.792l0,0
				c4.283-2.447,9.181-5.509,14.075-9.181c4.284,3.672,6.732,9.181,10.404,13.465C190.365,248.881,185.469,251.94,180.573,255.001z
				 M199.545,243.372c-3.672-4.896-6.73-9.792-11.016-13.464c4.896-3.672,10.403-7.345,15.3-11.017c0,0.612,0,1.836,0.612,2.448
				c4.283,3.672,7.956,7.344,12.239,11.016C210.562,235.417,205.053,239.7,199.545,243.372z M221.577,228.072
				c-4.284-3.673-9.18-7.345-13.464-11.017c-0.612-0.612-1.226-0.612-1.836-0.612c5.508-4.283,11.016-9.18,15.911-14.075
				c3.061,2.447,6.12,5.509,9.181,7.956c1.836,1.836,3.672,3.672,6.12,5.509C232.593,220.729,227.085,224.4,221.577,228.072z
				 M261.969,195.637c-2.446-1.836-4.283-3.061-6.73-4.284c-3.672-2.447-7.956-4.896-11.628-7.344
				c-3.062-1.836-5.509,2.447-2.448,4.283c3.672,2.448,7.344,5.509,11.016,7.956c1.837,1.225,3.673,2.447,4.896,3.673
				c-4.896,4.283-9.792,9.18-15.3,13.464c-1.836-2.448-4.284-4.284-6.732-6.12c-3.06-2.448-6.12-5.508-9.18-7.956
				c8.567-7.956,16.522-17.136,23.256-26.315c0.612,0.611,0.612,0.611,1.224,0.611c8.568,1.836,16.524,4.896,24.48,7.345
				C270.537,185.845,266.253,190.74,261.969,195.637z M278.493,175.44c-7.956-4.283-17.136-6.119-26.316-7.344
				c3.062-4.284,5.509-9.18,7.956-14.075c9.181,1.834,18.974,3.67,28.765,3.67C285.837,164.425,282.777,169.933,278.493,175.44z
				 M291.345,152.185c-9.18-2.448-18.972-3.06-28.764-3.672c1.836-4.284,3.061-9.18,4.284-13.464h0.611
				c6.731-0.612,12.853-1.224,18.973-2.448c3.672-0.612,7.344-0.612,10.403-1.224C296.854,138.721,294.405,145.453,291.345,152.185z
				 M299.301,123.421c-10.403,0.612-21.42,3.672-30.6,6.12c0.611-6.12,1.224-11.628,0.611-17.748h0.611
				c9.792-0.612,20.196-3.672,28.765-9.18C299.913,108.733,299.913,116.077,299.301,123.421z"/>
		</g>
	</g>
</g>
<g>
</g>
<g>
</g>
<g>
</g>
<g>
</g>
<g>
</g>
<g>
</g>
<g>
</g>
<g>
</g>
<g>
</g>
<g>
</g>
<g>
</g>
<g>
</g>
<g>
</g>
<g>
</g>
<g>
</g>
</svg>
