<?xml version="1.0" encoding="iso-8859-1"?>
<!-- Generator: Adobe Illustrator 16.0.0, SVG Export Plug-In . SVG Version: 6.00 Build 0)  -->
<!DOCTYPE svg PUBLIC "-//W3C//DTD SVG 1.1//EN" "http://www.w3.org/Graphics/SVG/1.1/DTD/svg11.dtd">
<svg version="1.1" id="Capa_1" xmlns="http://www.w3.org/2000/svg" xmlns:xlink="http://www.w3.org/1999/xlink" x="0px" y="0px"
	 width="291.451px" height="291.451px" viewBox="0 0 291.451 291.451" style="enable-background:new 0 0 291.451 291.451;"
	 xml:space="preserve">
<g>
	<g>
		<g>
			<path d="M122.429,81.619c-4.896-1.836-10.404-1.836-16.524-1.836c0.612-0.612,1.224-1.836,1.224-3.061
				c-1.836-26.315-10.404-69.155-45.9-65.483c-33.66,3.06-42.228,42.228-40.392,70.38c-4.284,0-8.568,0-13.464,0
				c-3.06,0-4.284,2.448-3.672,4.896c-1.224,0-3.06,0.612-3.06,2.448c-1.836,29.376,0.612,58.14,3.06,87.516
				c0,2.448,1.836,4.284,4.284,4.284c18.972,0.612,38.556,0.612,57.528,1.225c15.912,0,34.884,3.061,50.184,0.611
				c22.032-3.672,15.912-28.151,15.912-45.287C131.609,120.787,140.177,87.126,122.429,81.619z M58.781,21.643
				c31.824-8.568,39.168,33.048,40.392,54.468c0,1.836,1.224,2.448,1.836,3.06c-5.508,0-11.016,0.612-15.912,1.225
				c3.672-15.912-1.224-42.841-22.032-41.004c-18.36,1.836-26.928,25.092-19.584,41.004c-4.896,0-9.792,0-14.688,0
				C30.629,58.363,32.465,28.374,58.781,21.643z M77.141,81.006c-0.612,0-1.836,0-2.448,0c-9.18,0-17.748,0-26.928,0l0,0
				c3.06-11.016,0-26.315,14.076-31.212c17.136-5.508,17.136,20.809,15.3,30.601V81.006L77.141,81.006z M113.249,171.582
				c-10.404,4.283-31.212-0.612-42.84-0.612c-13.464,0-26.316-0.611-39.78-0.611c-22.032,0-19.584-10.403-21.42-29.987
				c-1.224-17.748-1.836-34.884-3.06-52.632c0.612,0.612,1.224,0.612,1.836,0.612c29.988,0,65.484-5.509,94.86,0
				c11.016,1.836,17.136,1.224,20.196,15.3c1.224,6.12,0,15.912,0,22.032C122.429,139.147,127.937,165.462,113.249,171.582z"/>
			<path d="M231.365,75.498c-1.836-29.988-36.721-46.512-59.977-25.704c-26.316,24.48-9.792,64.26,17.137,79.561
				c-22.645,39.167-44.676,80.171-64.26,120.563c-0.612,1.836-0.612,3.672,0.612,4.283c-1.224,1.225-1.224,3.061,0.612,3.673
				c8.568,3.06,17.136,5.508,25.092,9.18c5.509,2.448,11.017,5.508,16.523,7.956c-1.836,3.672,3.673,7.344,6.12,4.284
				c3.061-4.284,6.12-8.568,9.181-12.853c1.225-1.837,0-4.896-2.448-5.509c-8.567-2.447-17.136-5.508-25.092-9.18l3.672-8.568
				c5.509,3.672,11.629,7.345,17.137,11.017c1.836,1.225,4.896,0.611,5.508-1.225c2.448-4.283,5.508-7.344,7.345-11.016
				c0.611-0.612,0.611-1.836,0-2.448c1.225-0.611,1.836-2.448,0.611-3.672c-1.836-3.061-4.896-3.672-7.956-4.284
				c-2.447-0.611-4.896-1.836-6.731-2.447l0,0c0.611-1.225,1.225-3.061,2.447-4.284c6.732,3.673,13.465,7.345,20.196,11.017
				c1.836,1.224,4.284,0.612,5.508-1.225c2.448-4.283,4.896-8.567,7.956-12.853c1.225-1.836,0.612-4.896-1.836-6.12
				c-8.567-4.283-17.136-7.955-26.315-10.403c15.3-17.137,31.212-36.721,33.66-59.976c26.928,3.06,74.663-13.464,75.275-43.452
				C293.789,66.93,254.621,60.811,231.365,75.498z M275.43,114.054c-17.136,15.912-41.615,17.137-62.424,22.032
				c-1.836,0.612-3.061,2.448-2.448,4.284c-0.611,0.612-0.611,0.612-1.224,1.224c-7.345,22.644-18.973,40.392-32.438,59.976
				c0,0.611-0.611,0.611-0.611,1.225c-3.061,1.836-3.672,6.731,0.611,7.956c7.956,3.06,16.524,5.508,24.48,9.18
				c-1.225,1.836-1.837,3.672-3.061,5.508c-6.731-3.06-13.465-6.119-20.809-8.566c-1.225-0.612-2.448,0.61-3.061,1.224
				c-1.836,3.061-3.672,6.12-4.284,9.181v0.611c-0.611,1.225-0.611,3.061,1.225,4.284c1.836,1.836,5.508,3.06,7.956,4.284
				c1.225,0.61,1.836,0.61,3.061,1.224c-2.448,1.836-4.284,4.284-5.509,6.731c-5.508-3.061-11.628-6.731-17.747-9.792
				c-1.837-1.225-4.284,0-5.509,1.837c-1.225,4.283-3.061,7.955-4.283,12.239c-2.449-0.611-4.286,2.447-1.837,3.672
				c0.612,0.611,1.225,0.611,1.837,1.225c0,0,0,0,0.611,0c7.344,4.896,15.3,8.567,23.868,12.239
				c-0.612,0.611-1.225,1.225-1.836,1.837c-5.509-3.062-11.629-4.896-17.748-7.345c-7.957-3.061-16.525-5.509-24.481-6.731
				l0.612-0.612c25.705-38.556,49.572-83.23,65.484-127.294c1.225-2.448-2.447-4.284-4.283-3.061
				c-15.301-13.464-28.152-31.824-20.809-53.855c3.672-11.017,14.688-20.196,26.928-19.584c16.523,0,22.032,15.911,26.929,28.764
				c0.611,1.224,1.225,1.836,1.836,1.836c0,2.448,2.448,4.896,5.509,3.06c11.016-6.12,24.479-10.403,36.107-4.896
				C282.773,85.903,287.058,103.038,275.43,114.054z"/>
			<path d="M255.233,85.29c-4.284,0-8.567,1.224-12.853,3.061c-10.404,3.672-15.912,6.731-26.315,3.672v-0.612
				c4.283-22.644-26.315-34.272-37.944-14.076c-13.464,22.645,22.645,46.512,41.616,48.96c0.611,0,1.225,0,1.225,0
				c10.403,1.836,22.031-2.448,31.823-6.12c8.567-3.672,19.584-9.792,18.973-20.808C271.758,89.575,263.802,85.29,255.233,85.29z
				 M259.518,109.159c-3.672,3.06-9.792,4.896-14.075,6.12c-7.956,3.06-15.912,4.284-24.479,6.12
				c-12.853-5.508-25.704-11.017-34.271-23.256c-6.732-9.792-5.509-23.257,7.956-25.704c10.403-1.836,16.523,7.956,15.911,17.748
				c0,0.611,0,1.224,0.612,1.836c-0.612,1.224-0.612,2.447,0,3.06c12.239,12.853,26.315,0,39.168-3.672
				C262.577,88.351,270.533,99.979,259.518,109.159z"/>
			<path d="M83.873,117.115c2.448-3.061,0.612-7.956-1.836-10.404c-3.672-2.448-7.344-1.836-10.404,0.612
				c-3.672,3.06-7.344,6.12-11.016,8.568c-1.836-1.837-4.284-3.061-6.732-4.284c-6.12-3.061-15.912,3.672-11.016,11.016
				c3.06,3.672,6.732,7.956,11.016,9.792c0.612,0.612,1.836,1.224,2.448,1.836c0,1.225,0.612,1.836,1.224,2.448
				c-1.836,4.284-3.06,8.567-4.284,13.463c-0.612,2.448,0.612,6.12,3.06,7.345c8.568,3.672,17.136-1.836,18.972-10.404
				c0.612-4.283,0-9.18-2.448-13.463l0.612-0.611C76.529,127.519,80.201,122.01,83.873,117.115z"/>
		</g>
	</g>
</g>
<g>
</g>
<g>
</g>
<g>
</g>
<g>
</g>
<g>
</g>
<g>
</g>
<g>
</g>
<g>
</g>
<g>
</g>
<g>
</g>
<g>
</g>
<g>
</g>
<g>
</g>
<g>
</g>
<g>
</g>
</svg>
