<?xml version="1.0" encoding="iso-8859-1"?>
<!-- Generator: Adobe Illustrator 16.0.0, SVG Export Plug-In . SVG Version: 6.00 Build 0)  -->
<!DOCTYPE svg PUBLIC "-//W3C//DTD SVG 1.1//EN" "http://www.w3.org/Graphics/SVG/1.1/DTD/svg11.dtd">
<svg version="1.1" id="Capa_1" xmlns="http://www.w3.org/2000/svg" xmlns:xlink="http://www.w3.org/1999/xlink" x="0px" y="0px"
	 width="392.19px" height="392.189px" viewBox="0 0 392.19 392.189" style="enable-background:new 0 0 392.19 392.189;"
	 xml:space="preserve">
<g>
	<g>
		<g>
			<path d="M341.37,201.402c-13.465-6.731-34.271-6.731-45.899,3.06c-2.448,2.448,0,6.12,3.06,5.508
				c10.404-1.836,19.584-6.119,30.602-3.672c11.628,3.062,20.808,11.628,22.644,23.256c1.836,10.404-2.447,21.421-12.852,24.48
				c-9.792,3.06-21.42-1.225-25.093-11.016c-0.611-2.448-3.672-2.448-4.896-0.612c0-0.612,0-1.836-0.612-2.448
				c-0.61-2.448-4.896-3.06-6.119-0.611c-6.12,14.075-14.076,26.315-31.823,25.093c-3.062,0-6.12-1.226-9.182-1.836
				c-0.61-1.837-2.446-3.062-4.283-1.837c-6.731-3.673-12.239-9.181-16.523-15.301c0.612-2.446,0-4.896,0-7.344
				c-0.612-3.06-4.284-2.448-5.508,0l0,0c-1.836-3.06-5.509-0.612-4.284,2.448c0.611,1.224,1.224,2.448,1.836,3.672
				c-4.896,12.24-11.016,23.256-25.704,27.54c-17.137,4.284-34.271-4.896-42.229-20.196c0.612-2.448,0.612-4.896,0-7.344
				s-4.284-2.448-4.896,0c-4.283,17.136-15.911,25.092-33.047,25.092c-12.852,0-44.064-6.73-31.212-26.314
				c1.836-3.062-3.06-6.12-4.896-3.062c0,0,0,0.612-0.612,1.226c-1.224-0.612-3.06-0.612-4.284,0.61
				c-3.06,4.284-7.344,7.344-12.24,9.792l0,0c-1.224-1.836-4.284-0.61-3.672,1.226l0,0c-9.18,2.446-18.972,1.224-25.704-6.732
				c-11.628-14.076,0-36.108,16.524-39.78c3.672-0.61,2.448-6.12-0.612-6.12c-23.256,1.838-37.332,31.214-23.256,50.186
				c7.956,10.404,23.256,13.464,35.496,9.792c11.628,37.944,22.644,77.112,37.944,113.22c1.836,4.896,9.18,3.062,7.956-2.448
				c-7.956-38.556-23.868-77.724-41.004-113.22c3.672-1.836,7.344-4.284,9.792-7.956c0,13.464,18.36,22.646,31.824,24.48
				c0.612,0,1.836,0,2.448,0c3.06,28.15,9.18,56.304,19.584,82.62c1.224,2.446,4.896,1.836,4.284-1.226
				c-7.344-26.928-13.464-53.854-17.136-81.396c11.016-0.612,22.644-3.672,30.6-10.404c2.448,34.272,6.12,68.544,11.628,102.204
				c0.612,1.836,3.061,1.224,3.061-0.612c-1.225-35.496-4.896-71.604-9.792-107.1c0-0.612,0-0.612-0.612-1.226
				c0-0.61,0.612-1.224,1.224-1.836c8.568,14.076,23.256,23.257,40.392,21.42c-1.836,26.93-0.61,55.08,0.612,82.01
				c0,3.06,4.284,3.06,4.284,0c1.224-26.93,2.448-55.692,0.611-82.62l0,0c12.239-3.062,24.479-12.854,29.377-25.092
				c4.282,5.508,9.791,10.402,15.911,14.074c-9.792,31.213-14.688,61.813-14.075,92.412c0,3.062,4.283,3.062,4.283,0
				c2.447-29.986,7.345-58.752,14.688-87.516c5.508,2.448,11.628,3.672,18.36,2.448c5.508-0.612,11.628-3.062,17.136-6.12
				c-15.3,31.824-26.929,67.932-29.376,102.204c-52.021,15.3-103.429,17.748-157.285,9.18c-3.06-0.612-4.284,3.672-1.224,4.284
				c55.08,15.912,113.833,12.852,167.688-6.12c4.284-1.224,4.284-6.732,1.225-8.568c10.403-39.168,18.359-77.724,33.049-115.668
				c0.61-1.224,0-2.448-0.612-3.06c0-0.612,0-1.836,0-3.062c7.956,27.54,48.96,18.974,52.021-7.956
				C362.79,222.822,354.834,208.134,341.37,201.402z"/>
			<path d="M103.914,58.808c-7.956-3.061-16.524,1.836-20.808,7.956c-6.12,8.567-3.672,19.584-0.612,29.376
				c-8.568,0-17.748,0.611-23.868,6.731c-5.508,5.508-7.344,13.464-4.284,20.196c8.568,16.524,33.66,12.852,48.96,7.344
				c1.836,1.836,5.508,1.225,6.12-1.836c4.284-15.912,4.896-34.884,4.896-51.408C113.706,69.823,111.87,61.867,103.914,58.808z
				 M71.478,124.902c-9.18-3.06-12.852-10.404-4.284-16.524c6.12-4.896,12.24-4.283,19.584-4.283c2.448,0,4.284-2.448,3.672-4.284
				c-3.06-9.18-6.732-20.809-0.612-29.376c4.896-6.12,13.464-1.225,15.912,4.896c1.224,2.448-0.612,7.345-0.612,9.792
				c-1.224,13.464-4.284,26.929-4.284,41.004C91.674,126.739,80.659,127.963,71.478,124.902z"/>
			<path d="M209.79,81.451c-7.955-6.12-18.973-4.896-25.704,2.448c-4.896,4.896-6.732,11.628-6.732,18.36
				c-4.283-3.672-9.792-6.12-15.912-4.896c-7.344,1.836-11.016,8.568-11.628,15.3c-0.611,19.584,20.809,31.212,37.944,31.824
				c1.836,0,2.448-1.224,2.448-2.448c1.836,1.836,4.284,3.061,6.731,0.612C213.462,127.963,234.882,99.812,209.79,81.451z
				 M191.43,135.918c-1.224,1.225-1.224,2.448-1.224,3.673c-0.612-0.612-1.225-0.612-1.836-0.612
				c-9.792-1.224-18.973-6.12-24.48-14.076c-1.836-3.06-5.508-8.568-4.284-12.24c4.896-1.224,9.792-2.447,15.301-3.672
				c1.836,1.836,3.672,3.672,4.896,5.508c1.836,2.448,6.732,0.612,6.12-2.447c-0.612-5.509-0.612-11.628,1.224-16.524
				c4.896-12.24,18.972-9.792,23.256,1.224C217.134,112.663,201.834,126.739,191.43,135.918z"/>
			<path d="M319.95,73.495C296.083,27.596,245.286,1.891,194.491,0.056C144.307-1.169,82.495,17.804,55.566,63.703
				c-24.48,42.229-22.032,97.309,6.732,136.475c2.448,3.062,7.344,0.612,5.508-3.06c-23.256-36.72-28.152-86.292-6.732-124.848
				c18.36-33.048,53.856-51.408,91.188-58.752c-1.224,0.612-2.448,1.836-3.672,3.06c-5.508,6.732-6.732,16.524-2.448,23.868
				c4.896,10.404,16.524,14.688,27.54,15.3h0.612c0.612,0.612,1.224,0.612,1.836,0.612c20.808-1.224,42.841-26.316,26.929-45.9
				l-0.612-0.611c29.988,2.447,56.916,14.076,77.112,31.823c-6.12,3.061-10.404,7.956-11.628,14.076
				c-4.284-4.896-10.404-8.567-17.136-8.567c-8.568,0-14.076,6.731-14.688,15.3c-2.448,22.644,23.256,27.54,40.393,26.928
				c3.673,0,3.673-5.508,0-6.12c-11.017-1.224-28.765-1.836-31.823-15.3c-1.225-4.896,0-11.016,6.12-12.24
				c7.956-1.224,13.464,7.956,17.747,12.853c1.837,1.836,3.673,1.224,4.896,0c0.612-0.612,1.225-1.836,1.225-3.061
				c-0.611-6.12,1.836-12.239,7.345-15.3c9.18,12.24,7.344,28.764-2.448,40.393c-3.061,3.672,1.836,9.18,5.508,5.508
				c11.017-10.404,12.854-25.092,9.181-38.557c30.601,36.108,37.943,88.128,3.673,135.864c-3.062,4.284,3.672,8.567,6.73,5.507
				C336.474,166.52,340.146,113.274,319.95,73.495z M178.578,10.458c-2.448,2.448-4.284,4.896-4.896,8.568
				c-1.224-1.224-2.448-3.06-3.672-4.284c-1.836-1.224-3.672-2.448-5.508-3.06C169.397,11.07,174.293,10.458,178.578,10.458z
				 M173.681,49.626C173.681,49.626,173.681,50.239,173.681,49.626c-11.016-1.836-22.644-7.956-22.032-20.195
				c0-4.896,2.448-10.404,7.345-11.628c7.344-1.836,13.464,6.731,10.403,12.852c-1.224,2.448,1.836,4.896,3.673,3.061
				c1.836-1.837,2.447-3.673,2.447-6.12c0.612,0.611,0.612,1.224,1.225,1.224c1.224,1.836,3.672-0.612,3.06-2.448
				c-4.284-6.731,2.448-15.3,9.792-14.688c7.344,0.611,11.016,8.567,10.404,15.3C199.386,41.67,184.699,45.343,173.681,49.626z"/>
			<path d="M288.126,148.771c-10.404-8.568-23.868-2.448-28.152,6.731c-6.732-8.567-20.808-12.239-29.376-4.896
				c-7.956,6.732-8.568,18.972-4.896,28.152c4.896,11.628,17.138,17.748,28.766,20.808c2.448,0.61,4.896-3.672,1.836-4.896
				c-12.24-5.509-27.54-15.301-23.868-30.601c1.836-7.344,7.956-12.24,15.3-9.792c7.345,2.448,9.792,8.568,10.404,15.912
				c0,1.836,2.448,3.06,3.672,1.224c0-0.611,0.612-1.224,0.612-1.224c0.61,0.612,1.224,1.224,1.836,1.836
				c3.06,3.06,6.73-1.224,4.284-4.284c-9.182-11.628,9.18-18.972,17.136-11.016c6.73,6.731,4.896,16.523,0.611,23.868
				c-6.119,11.016-18.359,17.135-28.151,24.479c-4.284,3.06,0,10.403,4.284,7.344c12.239-8.567,26.928-17.747,33.048-32.436
				C299.142,168.967,297.306,156.728,288.126,148.771z"/>
			<path d="M130.842,152.442c-7.956-1.224-14.076,4.284-15.912,10.404c-1.224-1.225-2.448-2.448-3.06-3.061
				c-7.956-5.508-18.36-1.224-23.256,6.12c-5.508,8.568-3.672,19.584,3.06,26.928c9.18,10.404,23.256,10.404,35.496,9.792
				c3.672,0,3.672-4.896,0-5.508c-12.24-0.611-31.212-2.448-33.66-17.748c-1.224-6.12,3.06-14.076,9.792-14.688
				c7.956-0.612,8.568,7.344,8.568,12.852c0,2.448,3.06,3.672,4.896,1.836c0.612-0.611,1.224-1.224,1.836-2.448l0.612,0.612
				c2.448,1.836,4.896-1.224,3.06-3.06c-3.06-3.672-2.448-9.792,0.612-13.464c4.896-4.896,11.628-1.836,15.3,3.06
				c6.732,10.404,0,22.032-3.672,31.824c-1.224,3.672,4.896,6.73,6.732,3.06C148.589,185.491,154.098,155.502,130.842,152.442z"/>
		</g>
	</g>
</g>
<g>
</g>
<g>
</g>
<g>
</g>
<g>
</g>
<g>
</g>
<g>
</g>
<g>
</g>
<g>
</g>
<g>
</g>
<g>
</g>
<g>
</g>
<g>
</g>
<g>
</g>
<g>
</g>
<g>
</g>
</svg>
