<?xml version="1.0" encoding="iso-8859-1"?>
<!-- Generator: Adobe Illustrator 19.0.0, SVG Export Plug-In . SVG Version: 6.00 Build 0)  -->
<svg version="1.1" id="Layer_1" xmlns="http://www.w3.org/2000/svg" xmlns:xlink="http://www.w3.org/1999/xlink" x="0px" y="0px"
	 viewBox="0 0 511.997 511.997" style="enable-background:new 0 0 511.997 511.997;" xml:space="preserve">
<g>
	<g>
		<path d="M405.363,65.442c-0.315-0.864-1.484-1.106-1.996-0.261c-7.599,12.573-13.729,25.848-20.233,39.012
			c-6.644,13.448-15.546,27.498-28.662,35.467c-3.005,1.825-5.503,3.053-9.105,3.083c-4.34,0.036-6.964-1.393-10.564-3.339
			c-1.758-0.95-3.623-1.344-5.335-2.461c-1.404-0.917-2.621-2.069-3.971-3.054c-3.385-2.473-7.136-3.878-9.735-7.322
			c-5.413-7.173-6.63-14.408-5.839-23.278c0.777-8.71,3.21-17.335,6.191-25.527c3.479-9.561,7.617-19.099,12.531-28.012
			c2.046-3.711,4.673-7,6.828-10.631c1.957-3.298,2.757-7.213,5.006-10.334c0.698-0.967-0.656-2.216-1.609-1.608
			c-2.73,1.741-4.396,3.923-6.095,6.626c-2.485,3.952-5.459,7.553-7.928,11.51c-5.54,8.879-9.744,18.618-13.795,28.244
			c-6.602,15.685-14.345,38.569-3.675,54.135c4.91,7.163,11.765,11.594,19.035,16.222c2.63,1.674,5.594,2.951,8.369,4.345
			c3.801,1.909,8.528,2.252,12.706,1.804c7.209-0.772,13.251-4.946,18.249-10.007c3.373-3.415,6.693-6.805,9.725-10.529
			c2.785-3.421,4.697-7.278,7.306-10.84c5.845-7.981,9.484-18.249,13.77-27.151c2.052-4.262,3.56-8.594,5.35-12.967
			C403.549,74.513,406.972,69.855,405.363,65.442z"/>
	</g>
</g>
<g>
	<g>
		<path d="M475.368,172.654c-0.798-7.014-7.494-13.298-13.073-16.986c-9.083-6.006-19.025-10.545-29.382-13.828
			c-3.759-3.103-12.092-4.656-14.359-5.031c-4.71-0.78-9.38-1.479-14.048-2.364c-1.556-0.295-3.242-0.636-4.961-0.885
			c4.064-7.707,8.67-15.105,12.273-23.039c3.802-8.373,7.882-16.512,11.838-24.791c4.367-9.139,8.858-17.851,11.604-27.665
			c1.839-6.569,3.216-15.153-3.585-19.293c-3.524-2.145-7.526-3.391-11.222-5.179c-4.477-2.166-8.739-4.521-13.349-6.434
			c-7.975-3.308-15.37-7.674-23.148-11.187c-1.782-0.804-3.199-2.18-5.014-2.981c-1.858-0.82-3.748-1.514-5.596-2.361
			c-3.943-1.807-8.142-2.928-12.172-4.534c-4.212-1.679-8.39-3.525-12.818-4.568c-3.333-0.785-7.908-1.961-11.312-1.37
			c-6.972,1.209-13.098,9.65-15.927,15.599c-3.944,8.293-9.88,15.558-14.65,23.45c-9.911,16.398-18.525,34.47-24.392,52.724
			c-2.189,6.811-4.226,14.016-4.758,21.232c0.048-0.652-20.653,0.298-22.174,0.494c-3.063,0.393-6.481,1.851-9.56,1.623
			c-7.061-0.523-3.147-11.867-3.46-16.185c-0.887-12.258-2.897-24.315-4.613-36.507c-1.816-12.908-4.568-25.277-7.449-37.97
			c-2.143-9.437-5.221-22.28-16.852-23.516c-10.635-1.13-17.356,10.372-18.06,19.517c-0.912,11.856,2.461,23.177,3.699,34.788
			c0.711,6.66,1.027,13.249,1.012,19.947c-0.013,5.253,1.585,13.602-3.38,17.224c-5.438,3.967-9.089-6.878-9.809-10.46
			c-1.483-7.384-1.718-14.805-2.318-22.279c-1.006-12.51-2.26-24.311-5.482-36.474c-2.518-9.508-11.59-18.363-21.722-14.125
			c-25.883,10.825-10.841,45.825-7.518,65.563c1.051,6.241,2.117,12.452,1.738,18.806c-0.223,3.737-1.136,15.405-6.271,15.598
			c-5.022,0.189-6.694-7.6-7.767-11.359c-2.015-7.058-2.499-14.293-3.411-21.544c-0.961-7.644-2.972-15.175-3.804-22.8
			c-0.749-6.867-2.099-14.615-4.744-21.024c-2-4.848-5.595-10.559-10.423-12.965c-5.693-2.837-11.079,0.768-15.555,4.124
			c-4.967,3.724-7.129,8.156-7.36,14.326c-0.222,5.894,0.96,11.079,1.501,16.856c0.334,3.578,0.943,7.112,1.549,10.649
			c0.485,5.39,0.948,10.788,1.36,16.173c0.626,8.184,1.608,16.349,1.545,24.555c-0.076,9.773,1.782,19.654,3.351,29.274
			c0.29,1.777,0.676,3.602,1.176,5.415c-4.759-0.594-9.594,1.424-14.079,2.926c-5.974,2-11.958,4.151-17.851,6.371
			c-4.513,1.701-9.591,3.61-13.233,6.832c-8.381,4.477-15.205,10.596-17.647,21.038c-1.581,6.753-1.976,14.221-2.422,21.129
			c-0.487,7.548-0.891,15.012-0.959,22.606c-0.072,8.049,0.076,16.039,1.702,23.955c1.438,7.001,5.714,12.309,11.125,16.853
			c4.722,3.965,10.42,5.968,16.108,7.93c0.215,2.072-0.052,4.249,0.135,6.301c0.217,2.384,0.227,4.714,0.325,7.101
			c0.209,5.066,0.102,10.411,0.722,15.436c1.157,9.368,0.76,18.887,1.441,28.311c0.733,10.147,0.434,20.257,0.433,30.456
			c-0.001,10.617,1.256,21.22,1.306,31.869c0.044,9.649,1.43,19.492,2.174,29.133c0.762,9.871,2.542,20.446,5.636,29.861
			c2.759,8.401,7.448,15.615,13.16,22.265c3.171,3.691,7.366,6.29,11.327,9.035c4.089,2.832,7.888,5.911,12.471,7.928
			c8.733,3.843,17.158,8.413,26.485,10.725c11.222,2.782,22.281,5.869,33.785,7.244c9.954,1.189,19.855,2.042,29.853,2.831
			c10.393,0.82,20.857,0.892,31.214,1.845c9.938,0.914,20.222,0.944,30.207,0.934c10.749-0.011,21.713,0.635,32.414-0.401
			c10.66-1.033,21.43-1.314,32.08-2.47c10.377-1.127,21.109-3.273,31.326-5.45c5.85-1.247,11.637-2.966,17.015-5.624
			c5.079-2.51,8.585-6.19,12.222-10.419c7.276-8.462,11.512-18.491,14.484-29.191c3.205-11.538,3.458-23.5,4.896-35.313
			c1.215-9.986,2.778-20.614,1.143-30.61c3.179-3.068,6.493-6.042,9.319-9.439c2.989-3.592,5.342-7.644,8.186-11.332
			c2.837-3.68,4.462-8.293,6.763-12.347c2.405-4.238,4.547-8.432,6.489-12.895c3.219-7.399,5.666-15.344,7.936-23.152
			c1.237-4.251,1.461-9.06,2.029-13.445c0.572-4.412,1.31-8.848,1.714-13.274c0.396-4.336-0.277-8.74-0.656-13.044
			c-0.421-4.776-0.446-10.197-2.118-14.754c-0.828-2.257-2.105-3.805-3.646-4.835c1.274-0.72,2.517-1.49,3.877-2.121
			c6.677-3.102,11.834-7.552,14.741-14.39c3.149-7.408,2.769-15.742,3.804-23.631c1.105-8.417,1.846-16.818,3.449-25.167
			C474.979,190.28,476.323,181.035,475.368,172.654z M290.267,95.176c2.987-9.278,6.789-18.086,10.998-26.861
			c3.749-7.817,7.409-15.625,11.868-23.083c2.193-3.67,4.455-7.298,6.785-10.883c2.362-3.634,5.427-6.901,7.335-10.802
			c1.776-3.632,3.272-6.984,5.975-10.074c0.94-1.075,1.984-2.385,3.139-3.231c2.233-1.637,4.275-1.082,6.9-0.683
			c8.09,1.23,15.853,5.162,23.534,7.878c3.513,1.243,7.635,2.875,10.611,5.057c2.987,2.19,6.674,3.171,9.889,5.204
			c7.228,4.571,15.582,6.914,23.157,10.815c3.658,1.883,7.212,3.687,10.968,5.366c1.54,0.688,3.992,1.507,5.186,2.696
			c1.356,1.35,1.069,3.198,0.702,5.112c-1.774,9.267-5.793,17.825-9.868,26.242c-7.372,15.228-14.535,30.474-22.607,45.342
			c-8.384,15.441-18.089,39.166-38.947,38.339c-3.622-0.144-6.97,0.325-10.372,1.497c-3.647,1.257-6.21,4.846-8.526,7.818
			c-2.416,3.102-4.898,6.603-6.803,10.033c-0.934,1.683-1.028,2.583-2.139,4.033c-0.907,1.184-1.509,2.989-2.519,4.008
			c-0.286,0.289-0.503,0.591-0.687,0.898c-5.428,0.357-10.859,0.71-16.3,1.134c-7.135,0.557-14.273,1.191-21.414,1.786
			c2.445-3.726,4.456-7.735,6.934-11.58c4.104-6.37,8.277-12.564,9.131-20.307c0.819-7.433,0.581-13.971-4.574-19.881
			c-2.384-2.733-5.212-4.853-6.922-8.079c-1.943-3.666-4.189-6.803-5.027-10.932C284.879,113.205,287.544,103.632,290.267,95.176z
			 M384.331,157.321c2.788,0.488,5.926,0.471,8.324,0.856c4.509,0.724,9.405,0.615,13.959,1.01c2.044,0.177,4.014,0.411,5.958,0.717
			c1.377,0.745,2.753,1.497,4.303,2c3.313,1.074,6.449,1.846,9.566,3.499c1.256,0.666,5.217,2.112,6.008,3.389
			c1.634,2.64-3.481,4.137-5.071,4.975c-11.122,5.86-25.154,9.029-37.519,10.101c-13.116,1.137-26.115,2.657-39.213,4.006
			c-4.851,0.5-9.691,0.896-14.532,1.251c0.218-0.252,0.423-0.517,0.594-0.816c0.73-1.275,1.064-2.688,1.792-3.959
			c1.026-1.792,2.293-3.579,3.477-5.276c2.386-3.418,4.747-6.854,8.785-7.938c3.831-1.028,7.871-0.038,11.831-0.548
			c4.003-0.514,6.881-2.749,10.384-4.535c4.516-2.302,7.665-4.266,10.968-8.246C384.076,157.647,384.199,157.482,384.331,157.321z
			 M279.673,193.42c-3.574,0.274-7.148,0.53-10.723,0.743c-6.34,0.379-12.731,0.428-19.077,0.773
			c-7.269,0.396-14.492-0.756-21.749-0.611c-2.45,0.049-4.909,0.057-7.373,0.049c-1.135-5.562-1.344-11.265-2.803-16.733
			c-1.635-6.125-3.557-12.411-3.651-18.817c-0.037-2.519,0.247-6.703,1.674-8.802c0.695-1.022,1.75-1.914,2.896-2.721
			c0.785-0.111,1.517-0.253,2.131-0.352c9.605-1.555,19.818-1.68,29.551-2.602c7.188-0.681,14.405-0.404,21.611-0.302
			c5.322,0.074,11.457-0.609,16.455,1.612c10.022,4.455,5.544,19.928,0.7,27.046C284.814,179.317,282.203,186.037,279.673,193.42z
			 M239.761,124.917c2.044,0.644,4.439,0.736,6.354,0.711c1.695-0.023,3.264-0.567,4.938-0.633c2.191-0.087,4.159,0.146,6.36-0.18
			c4.338-0.642,9.055-0.137,13.456-0.348c2.568-0.123,4.886,0.414,7.089,0.151c0.901,4.245,2.603,8.257,4.853,11.941
			c-4.472-0.204-9.095,0.21-13.057,0.217c-7.415,0.013-14.824,0.171-22.191,0.703c-3.463,0.251-6.92,0.983-10.365,1.416
			c-2.276,0.285-4.581,0.235-6.878,0.235c1.75-1.624,3.38-3.415,4.966-5.542C237.242,130.96,238.689,128.022,239.761,124.917z
			 M101.397,53.087c-0.618-3.91-1.7-7.71-2.02-11.658c-0.036-0.443-0.091-0.88-0.161-1.31c0.048-3.447,0.781-6.832,3.043-8.966
			c1.477-1.394,5.298-4.465,7.394-4.71c3.228-0.379,5.347,3.795,6.63,6.053c3.382,5.946,4.659,14.242,5.313,21.018
			c0.562,5.819,1.833,11.474,2.714,17.263c1.049,6.89,1.7,13.82,2.696,20.718c1.246,8.632,4.097,22.659,13.674,25.8
			c3.513,1.153,7.583,0.911,10.822-0.952c4.282-2.463,5.305-6.549,6.667-10.957c7.479-24.207-6.347-48.84-6.888-73.065
			c-0.131-5.862,2.361-12.125,7.743-14.888c3.185-1.636,5.121-1.792,7.916,0.827c2.658,2.491,3.726,5.307,4.563,8.694
			c2.96,11.983,3.731,24.37,4.455,36.704c0.675,11.496,0.472,24.215,8.221,33.538c6.403,7.702,16.651,6.207,21.72-2.178
			c2.712-4.487,2.983-9.198,2.912-14.309c-0.089-6.332-0.042-12.57-0.593-18.88c-1.006-11.511-3.99-22.727-4.563-34.282
			c-0.277-5.583-0.711-11.224,3.415-15.573c6.165-6.498,10.554-0.152,13.119,5.697c2.313,5.276,2.939,11.873,4.11,17.513
			c1.275,6.14,2.425,12.166,3.405,18.364c2.149,13.588,3.011,27.351,4.9,40.893c1.771,12.701,1.564,29.466-8.79,38.738
			c-4.405,3.944-10.208,5.942-14.372,10.314c-3.626,3.805-4.315,10.254-4.121,15.332c0.252,6.563,1.709,13.329,3.483,19.621
			c1.444,5.121,1.828,10.498,2.686,15.79c-9.14-0.252-18.308-0.793-27.363-1.423c-3.63-0.252-7.251-0.569-10.871-0.914
			c-0.049-0.748-0.338-1.538-0.94-2.332c-1.641-2.165-1.591-7.601-2.259-10.276c-1.135-4.54-2.173-9.003-3.991-13.347
			c-2.921-6.978-7.852-12.87-15.543-14.44c-9.817-2.003-20.046,1.209-29.735-1.872c-7.025-2.234-8.902-10.128-10.085-16.731
			c-1.683-9.392-3.4-18.815-3.453-28.371c-0.046-8.276-1.244-16.597-2.123-24.83C104.18,70.816,102.789,61.89,101.397,53.087z
			 M162.438,190.818c-7.149-0.723-14.301-1.414-21.491-1.794c-14.917-0.787-30.085-2.67-44.641-6.211
			c-3.867-0.941-7.928-1.688-11.723-2.866c-1.581-0.491-2.957-1.05-4.324-1.992c-0.579-0.399-3.301-2.306-4.016-3.348
			c0.608,0.158,2.572-1.854,2.837-2.044c1.714-1.224,3.434-2.234,5.31-3.181c0.587-0.296,1.16-0.578,1.727-0.853
			c2.94-0.761,5.915-1.437,8.842-2.246c7.038-1.948,15.966-3.367,22.611-7.174c5.461,1.708,11.778,1.679,17.024,1.662
			c4.668-0.016,10.249-0.955,14.781,0.4c4.693,1.404,6.919,6.053,8.495,10.322c1.592,4.312,2.8,8.94,3.736,13.427
			C161.998,186.802,162.038,188.876,162.438,190.818z M400.821,403.305c-0.059,5.09-0.448,10.031-1.151,15.078
			c-0.657,4.719-0.931,9.453-1.727,14.136c-0.936,5.509-0.746,11.118-1.961,16.587c-1.964,8.833-4.952,18.52-10.044,26.079
			c-2.289,3.398-5.265,7.185-8.426,9.84c-3.949,3.316-9.493,4.913-14.384,6.192c-19.698,5.149-40.463,6.947-60.694,8.306
			c-9.931,0.668-19.8,0.666-29.763,0.666c-9.644,0.001-19.233-0.671-28.844-0.681c-19.241-0.02-38.536-1.921-57.682-3.509
			c-10.37-0.861-20.746-2.612-30.807-5.276c-9.158-2.425-18.585-4.489-27.104-8.751c-4.033-2.018-8.41-3.584-12.261-5.91
			c-3.978-2.404-7.733-5.352-11.536-8.028c-6.832-4.809-12.376-12.681-15.304-20.468c-6.526-17.357-6.569-37.193-8.101-55.408
			c-0.441-5.245-0.152-10.602-0.497-15.875c-0.356-5.422-0.942-10.951-0.946-16.373c-0.008-10.782,0.152-21.51-0.811-32.222
			c-0.868-9.638-0.736-19.285-2.113-28.871c-0.783-5.444-0.986-11.233-1.326-16.737c-0.165-2.681-0.218-5.67-0.517-8.582
			c2.214,0.442,4.469,0.767,6.62,1.205c2.359,0.479,4.013,0.483,5.579,0.001c1.056,3.321,2.467,6.376,4.264,9.448
			c2.479,4.237,5.368,6.337,9.167,9.319c7.528,5.91,11.078,12.781,14.814,21.376c3.646,8.386,6.458,17.481,11.395,25.246
			c2.435,3.832,4.894,7.391,7.166,11.319c2.507,4.335,5.585,8.506,8.53,12.554c5.989,8.233,12.584,16.027,20.027,22.986
			c7.347,6.869,14.704,13.138,22.664,19.262c7.071,5.439,16.078,9.204,24.226,12.76c9.025,3.937,18.547,6.411,27.869,9.484
			c9.58,3.159,19.894,3.423,29.814,5.149c20.894,3.634,41.922,1.988,62.751-0.904c10.198-1.416,20.333-4.604,29.893-8.381
			c4.831-1.909,9.799-3.763,14.486-5.999c4.316-2.059,8.126-5.123,12.376-7.31c5.192-2.673,9.95-5.787,14.448-9.294
			C400.861,402.237,400.827,402.764,400.821,403.305z M442.503,304.314c-0.527,4.035-1.321,8.037-1.703,12.084
			c-0.396,4.182-2.106,8.007-3.163,12.065c-0.94,3.609-2.805,6.575-3.955,10.032c-1.328,3.988-2.697,7.861-4.741,11.612
			c-2.077,3.81-4.463,7.455-6.259,11.415c-1.768,3.899-4.724,7.384-7.152,10.959c-4.949,7.284-12.406,13.788-19.124,19.432
			c-7.459,6.267-16.025,10.194-24.247,15.271c-7.818,4.828-17.493,7.939-26.247,10.624c-9.554,2.93-19.075,4.524-28.911,6.133
			c-19.108,3.123-38.797,0.584-57.782-1.862c-9.048-1.166-17.673-2.661-26.336-5.534c-8.61-2.855-17.649-5.265-25.654-9.623
			c-3.622-1.972-7.419-3.558-11.063-5.491c-4.018-2.129-7.409-5.111-11.132-7.691c-7.531-5.22-14.451-12.289-20.874-18.822
			c-7.038-7.159-13.215-15.033-18.854-23.327c-2.184-3.212-3.844-6.635-5.924-9.87c-2.552-3.967-5.462-7.272-7.504-11.603
			c-3.518-7.462-6.964-15.148-9.721-22.921c-2.582-7.275-6.513-14.233-12.403-19.346c-3.103-2.693-6.936-4.752-9.182-8.214
			c-2.33-3.59-3.723-7.372-4.8-11.501c-2.179-8.349-1.763-17.366,2.752-24.888c0.583-0.97,1.235-1.906,1.942-2.799
			c0.472-0.419,0.977-0.827,1.571-1.207c3.116-1.996,6.362-3.182,9.579-4.798c2.62-0.319,5.25-0.487,7.463-0.784
			c0.678-0.091,1.35-0.134,2.018-0.153c0.74,0.298,1.491,0.286,2.181,0.061c5.736,0.443,11.138,3.113,16.479,5.319
			c6.279,5.608,9.839,14.824,11.088,22.778c0.742,4.727-0.013,9.445-1.182,14.04c-1.181,4.637-3.262,8.849-3.24,13.733
			c0.036,7.837,3.919,14.62,8.517,20.637c2.329,3.048,4.088,6.394,6.55,9.415c2.832,3.476,5.199,7.275,8.172,10.656
			c2.755,3.134,5.473,6.382,8.372,9.381c3.203,3.313,7.003,6.012,10.381,9.148c6.738,6.259,13.284,12.32,20.785,17.681
			c13.419,9.591,28.984,15.853,44.205,21.87c3.883,1.535,7.807,2.055,11.831,3.02c4.731,1.133,9.054,2.251,13.928,2.664
			c9.735,0.826,19.288,1.178,29.061,0.575c9.343-0.575,17.999-2.69,27.021-4.993c7.52-1.92,15.768-4.039,22.716-7.466
			c3.569-1.761,7.262-3.312,10.801-5.147c4.38-2.271,8.22-5.22,12.398-7.792c7.216-4.442,13.373-10.127,19.131-16.364
			c5.945-6.439,11.031-12.811,14.996-20.643c3.918-7.739,6.063-16.023,7.96-24.442c2.053-9.119,3.671-18.292,6.505-27.217
			c1.363-4.292,2.438-7.495,7.322-7.933c0.609-0.055,2.337-0.473,3.59-0.566c0.459,0.523,0.682,1.092,1.133,1.78
			c0.128,0.195,0.259,0.381,0.39,0.566c0.206,2.042,0.465,4.825,0.503,5.211C443.53,288,443.612,295.829,442.503,304.314z
			 M157.725,281.031c1.071,0.535,2.133,1.049,3.587,1.323c2.996,0.566,5.96,0.964,8.986,1.435c7.88,1.226,15.762,2.624,23.761,2.55
			c8.002-0.073,16.037,0.689,23.979,1.448c3.882,0.37,7.807-0.107,11.698,0.11c4.065,0.225,8.157,0.834,12.226,1.167
			c4.012,0.328,7.946-0.057,11.956,0.046c4.43,0.114,8.772,1.091,13.23,1.151c8.692,0.117,17.385-0.406,26.082-0.152
			c8.489,0.248,16.758-1.081,25.257-0.769c7.997,0.292,15.962-0.098,23.937-0.517c16.413-0.859,32.702-4.395,48.858-7.163
			c8.139-1.395,16.135-4.034,24.012-6.371c2.983-0.886,5.865-1.455,8.805-2.407c-1.946,3.956-3.028,8.52-4.008,12.62
			c-4.522,18.911-7.599,39.419-20.988,54.476c-6.107,6.869-12.616,14.685-20.513,19.504c-8.33,5.084-16.367,10.587-25.523,14.169
			c-8.572,3.355-17.52,5.535-26.403,7.984c-10.252,2.826-20.634,3.221-31.211,3.344c-19.702,0.23-38.747-5.072-56.323-13.587
			c-8.257-4-16.526-7.927-24.057-13.22c-8.558-6.014-15.561-13.447-23.516-20.149c-7.449-6.276-14.122-13.467-19.776-21.42
			c-4.904-6.9-11.277-13.364-14.638-21.213C154.923,290.206,156.097,286.072,157.725,281.031z M464.878,184.081
			c-0.489,3.935-0.719,7.739-1.541,11.652c-1.569,7.478-2.487,14.979-3.535,22.53c-0.515,3.718-1.297,7.418-1.688,11.148
			c-0.416,3.984-0.152,8.282-1.46,12.08c-2.445,7.106-8.74,9.892-15.099,12.92c-0.996,0.475-2.112,0.61-3.18,1.076
			c-1.122,0.489-1.942,1.445-3.013,1.933c-2.384,1.086-5.435,1.629-7.991,2.674c-6.295,2.574-12.763,4.109-19.144,6.266
			c-3.815,1.29-7.83,1.57-11.68,2.676c-3.924,1.127-7.664,2.042-11.691,2.745c-3.823,0.668-7.598,1.27-11.433,1.803
			c-3.681,0.512-7.11,1.735-10.838,2.088c-7.565,0.716-15.024,2.531-22.648,2.521c-7.493-0.01-14.849,0.775-22.383,0.542
			c-7.894-0.246-15.57,1.184-23.444,0.935c-8.055-0.255-16.118,0.076-24.172,0.206c-7.659,0.123-15.154-0.991-22.826-0.875
			c-8.202,0.125-16.311-1.333-24.528-1.275c-8.337,0.059-16.733-1.786-25.09-1.42c-8.217,0.36-16.051-0.337-24.201-1.338
			c-3.193-0.392-6.393-0.646-9.557-1.052c-1.248-0.161-2.627-0.388-4.007-0.531c0.477-2.503,0.769-5.039,0.787-7.508
			c0.066-9.247-3.194-19.868-8.707-27.329c-5.169-6.995-11.984-12.439-20.495-14.812c-4.519-1.26-9.632-1.324-14.27-0.925
			c-1.836,0.158-3.424,0.55-4.939,1.073c-10.902,1.247-21.543,12.144-25.101,21.648c-2.228,5.952-2.767,12.341-2.142,18.625
			c-1.792-0.321-3.602-0.567-5.36-0.874c-3.488-0.609-6.357-1.598-9.667-2.696c-3.645-1.209-6.968-1.727-10.457-3.598
			c-3.361-1.803-6.084-4.461-8.606-7.302c-5.518-6.213-4.646-18.359-4.727-26.133c-0.083-7.877,0.023-15.646,0.52-23.477
			c0.467-7.347,0.686-15.476,2.874-22.51c2.556-8.216,11.119-13.022,18.709-15.821c7.077-2.609,13.884-5.956,21.25-7.733
			c2.189-0.529,4.033-1.215,5.778-1.845c0.587-0.211,1.189-0.475,1.781-0.779c2.944-0.729,5.8-1.656,8.206-3.458
			c1.082,2.166,2.413,4.177,4.01,5.944c-0.291,0.087-0.584,0.174-0.87,0.261c-5.136,1.558-10.204,3.359-15.322,4.981
			c-1.491,0.472-3.014,0.931-4.541,1.412c-4.134,0.195-7.87,1.77-12.018,4.43c-4.316,2.767-10.715,6.919-7.507,12.878
			c3.448,6.406,10.966,9.46,17.561,11.013c8.176,1.926,16.277,3.984,24.547,5.526c15.398,2.871,31.371,3.821,46.965,4.84
			c8.417,0.55,16.757,1.716,25.19,2.328c9.008,0.653,17.977,0.678,26.983,1.109c3.88,0.185,7.662,0.937,11.559,0.922
			c4.634-0.019,9.169-0.25,13.799,0.104c8.263,0.633,16.197-0.157,24.419-0.182c15.725-0.048,31.348-1.8,47.018-2.814
			c4.045-0.261,8.235-0.304,12.25-0.871c3.947-0.557,7.87-0.183,11.825-0.626c8.259-0.923,16.741-1.823,25.064-2.277
			c8.269-0.452,16.474-1.801,24.69-2.694c7.483-0.813,14.907-0.938,22.19-2.912c2.26-0.612,4.631-0.553,6.889-1.242
			c1.801-0.55,3.458-1.237,5.306-1.662c3.817-0.881,7.55-2.459,11.191-3.914c6.542-2.615,15.271-5.479,15.556-13.668
			c0.295-8.465-5.717-10.972-12.579-13.866c-1.934-0.816-4.087-1.596-6.322-2.193c-3.825-1.976-7.873-3.213-12.373-3.559
			c-2.582-0.199-5.126-0.562-7.7-0.747c-3.161-0.227-6.359,0.503-9.521,0.185c-1.22-0.123-2.474-0.288-3.723-0.394
			c1.595-2.281,3.113-4.607,4.542-6.992c1.696,0.628,3.52,1.018,5.322,1.297c4.439,0.688,8.825,1.835,13.236,2.734
			c3.006,0.612,6.604,1.722,10.053,2.274c9.999,2.705,20.083,5.271,28.889,10.952c4.906,3.167,12.629,7.286,13.824,13.59
			C466.167,177.248,465.268,180.943,464.878,184.081z"/>
	</g>
</g>
<g>
</g>
<g>
</g>
<g>
</g>
<g>
</g>
<g>
</g>
<g>
</g>
<g>
</g>
<g>
</g>
<g>
</g>
<g>
</g>
<g>
</g>
<g>
</g>
<g>
</g>
<g>
</g>
<g>
</g>
</svg>
