<?xml version="1.0" encoding="iso-8859-1"?>
<!-- Generator: Adobe Illustrator 19.0.0, SVG Export Plug-In . SVG Version: 6.00 Build 0)  -->
<svg version="1.1" id="Layer_1" xmlns="http://www.w3.org/2000/svg" xmlns:xlink="http://www.w3.org/1999/xlink" x="0px" y="0px"
	 viewBox="0 0 511.998 511.998" style="enable-background:new 0 0 511.998 511.998;" xml:space="preserve">
<g>
	<g>
		<path d="M364.51,151.611c-1.053-5.211-1.513-10.276-2.869-15.429c-1.541-5.858-3.082-11.293-5.567-16.852
			c-8.154-18.241-19.288-37.025-34.135-50.577c-7.953-7.26-15.685-16.179-24.874-21.887c-9.337-5.799-18.624-11.723-28.21-17.162
			c-2.271-1.289-4.594-1.863-6.929-2.915c-2.021-0.91-3.896-2.446-5.738-3.628c-4.28-2.747-10.217-4.151-15.01-6.053
			c-11.608-4.608-23.263-7.329-35.283-10.5c-5.304-1.4-10.485-1.701-15.948-1.709c-5.922-0.009-11.915-1.086-17.821-0.548
			c-10.593,0.967-21.096,0.618-31.422,3.647c-10.579,3.103-22.235,6.062-32.116,11.019c-7.068,3.546-13.847,7.496-20.617,11.559
			c-0.364,0.204-0.734,0.396-1.095,0.605c-1.339,0.767-2.628,1.58-3.9,2.409c-0.74,0.447-1.479,0.895-2.221,1.342
			c-2.506,1.516-4.851,3.197-7.119,4.966C66.848,44.397,60.7,50.432,54.854,56.317c-6.842,5.945-13.693,11.97-18.565,19.722
			c-0.116,0.184-0.238,0.365-0.354,0.548c-1.856,2.417-3.554,4.909-4.987,7.487c-0.253,0.455-0.528,0.891-0.793,1.336
			c-0.944,1.448-1.87,2.906-2.758,4.385c-1.067,1.628-2.132,3.248-3.102,4.927c-2.374,4.105-4.037,9.035-5.824,13.481
			c-2.151,5.345-4.782,10.498-6.67,15.951c-1.933,5.583-2.931,11.413-4.428,17.116c-2.964,11.292-6.443,21.841-6.514,33.656
			c-0.065,10.894-1.702,21.586-0.279,32.487c0.602,4.605,1.42,9.214,2.179,13.798c0.914,5.509,1.634,11.2,3.298,16.533
			c1.623,5.2,2.476,10.591,4.131,15.781c1.755,5.503,3.802,10.924,5.846,16.316c1.634,4.314,4.369,8.235,6.463,12.326
			c2.247,4.391,5.284,8.753,8.207,12.705c5.425,7.334,12.072,16.417,19.861,21.354c9.733,6.17,17.58,14.846,27.627,20.661
			c4.057,2.349,8.043,4.75,12.092,7.061c4.251,2.426,8.792,4.271,13.338,6.194c10.29,4.354,20.214,8.154,31.279,10.032
			c8.075,1.37,16.09,2.512,24.134,3.603c-1.082,6.758-2.721,13.48-3.064,20.323c-0.221,4.417-0.015,8.877-0.085,13.3
			c-0.064,4.139-0.789,8.159-0.961,12.283c-0.186,4.457,0.011,8.925-0.14,13.384c-0.121,3.558-0.773,7.048-0.989,10.594
			c-1.599-0.016-3.311-0.158-4.581-0.146c-4.068,0.041-8.058,0.432-12.072,1.124c-8.205,1.411-16.191,3.722-24.29,5.521
			c-6.787,1.509-14.088,3.989-20.465,6.807c-3.152,1.393-5.99,3.307-9.046,4.877c-3.466,1.781-6.949,3.195-9.606,6.131
			c-4.078,4.508-7.62,8.998-5.926,15.42c1.674,6.347,7.151,10.285,12.754,12.995c14.317,6.924,29.552,11.369,45.199,14.15
			c15.53,2.76,31.732,6.319,47.529,6.422c8.709,0.057,17.352,0.954,26.116,0.822c8.275-0.126,16.417-0.478,24.654-0.985
			c7.687-0.474,15.953-1.086,23.478-2.72c7.231-1.57,14.527-1.776,21.443-4.859c11.359-5.065,26.343-13.417,25.98-27.688
			c-0.206-8.123-5.677-12.806-11.826-17.07c-6.993-4.85-15.646-8.645-24-10.517c-4.34-0.973-8.719-1.279-13.054-2.333
			c-4.086-0.993-7.989-1.332-12.168-1.611c-7.554-0.504-14.774-1.323-22.266-0.953c0.313-5.853-0.036-11.809,0.008-16.711
			c0.093-10.185-0.77-20.273-0.733-30.472c0.034-9.244,0.028-19.141-1.52-28.27c20.306-2.453,40.34-8.215,58.983-16.544
			c4.569-2.041,9.137-4.351,13.603-6.921c0.459-0.186,0.896-0.442,1.308-0.772c13.269-7.825,25.523-17.985,33.95-30.458
			c6.267-9.277,13.623-17.896,19.278-27.551c2.747-4.692,6.062-8.961,8.645-13.771c2.584-4.816,4.941-9.788,7.241-14.745
			c9.781-21.079,15.033-44.079,14.91-67.383C367.26,174.073,366.769,162.783,364.51,151.611z M342.903,117.884
			c1.176,2.363,2.305,4.752,3.377,7.17c4.336,9.787,5.44,20.136,7.479,30.507c0.402,2.045,0.733,4.107,1.029,6.177
			c-3.499,1.638-6.91,3.591-10.495,5.055c-2.737,1.119-5.465,2.186-8.208,3.209c-1.418-3.018-3.205-5.681-5.241-8.686
			c-2.318-3.421-5.031-6.409-8.016-9.052c-0.409-7.556-1.145-15.047-2.1-22.525c2.57-1.08,5.105-2.242,7.578-3.564
			c3.309-1.77,6.561-3.578,9.808-5.466c0.631-0.367,1.305-0.808,2.003-1.274C340.845,119.05,341.836,118.478,342.903,117.884z
			 M323.207,164.769c0.168,0.239,0.346,0.47,0.509,0.714c1.731,2.59,3.249,4.82,4.489,7.304c-0.339,0.113-0.672,0.233-1.013,0.344
			c-1.395,0.46-2.785,0.935-4.174,1.415c0.113-3.137,0.196-6.267,0.195-9.372C323.214,165.039,323.207,164.905,323.207,164.769z
			 M330.578,179.357c1.178,4.812,1.361,9.127,1.081,14.207c-0.589,10.682-4.305,24.306-11.724,32.148
			c-0.764,0.808-1.538,1.571-2.321,2.305c0.375-2.448,0.682-4.907,0.959-7.37c1.807-12.597,3.327-25.596,4.095-38.497
			C325.319,181.249,327.958,180.322,330.578,179.357z M314.616,77.38c7.658,6.901,13.061,15.218,18.704,23.786
			c2.346,3.563,4.522,7.224,6.565,10.96c-2.396,1.414-4.723,3.106-6.954,4.403c-4.276,2.487-8.608,4.723-13.076,6.774
			c-0.955-6.655-2.04-13.313-3.219-20.017c-1.457-8.288-4.379-16.159-7.6-23.949c-1.651-3.992-3.346-8.266-5.271-12.454
			C307.431,70.43,310.984,74.108,314.616,77.38z M200.836,374.125c0.356,4.577,0.724,9.175,0.767,13.768
			c0.089,9.468,0.777,18.875,0.916,28.305c0.08,5.452-0.048,10.904-0.053,16.358c-0.006,4.747,0.278,9.372-1.06,13.98
			c-1.41,4.857-3.064,7.053-8.092,8.396c-3.725,0.995-9.884,1.787-13.732,1.253c-8.539-1.184-14.696-5.866-16.71-14.436
			c-1.068-4.545-0.344-9.137,0.161-13.687c0.499-4.494,0.186-9.072,0.064-13.588c-0.245-9.156,0.457-18.273,0.232-27.468
			c-0.106-4.319,0.222-8.725,0.561-13.027c0.276-3.515,0.107-6.348-0.421-9.605c2.243,0.299,4.486,0.598,6.738,0.896
			c10.443,1.384,20.49,0.269,30.783-0.793C199.867,367.555,200.555,370.499,200.836,374.125z M179.602,337.525
			c-0.902-0.028-1.801-0.073-2.692-0.156c-8.741-0.812-14.919-7.136-18.535-14.554c5.103,0.339,10.229,0.075,15.342,0.111
			c3.603,0.024,7.197-0.173,10.786-0.424C182.832,327.505,181.34,332.54,179.602,337.525z M156.039,315.499
			c-0.113,0.003-0.226-0.003-0.339-0.001c-4.169-18.412,15.631-32.978,24.525-46.911c0.085-0.134,0.167-0.278,0.253-0.414
			c5.382,0.072,10.752,0.146,16.13,0.092c-1.013,6.441-2.08,12.87-3.07,19.332c-0.999,6.514-2.197,12.909-3.676,19.255
			c-1.036,3.122-2.103,6.231-3.182,9.328c-0.446,0.02-0.892,0.045-1.339,0.062C175.558,316.605,165.797,315.298,156.039,315.499z
			 M147.649,314.951c-0.638-0.099-1.278-0.189-1.915-0.298c-6.767-1.159-13.604-1.939-20.429-2.773
			c3.025-8.465,5.709-17.054,7.813-25.861c1.541-6.448,2.869-12.925,4.033-19.428c11.068,1.107,22.353,1.481,33.426,1.494
			c0.122,0,0.243,0.003,0.365,0.003c-1.706,2.448-3.561,4.863-5.51,7.329c-6.698,8.466-14.318,16.427-17.14,27.201
			C147.27,306.518,147.106,310.757,147.649,314.951z M57.173,194.168c7.375,1.995,14.907,3.381,22.519,4.375
			c-0.285,8.647-0.54,17.3-0.676,25.941c-0.068,4.319-0.303,8.569-0.641,12.801c-12.782-2.907-24.417-9.313-31.884-20.641
			c-5.357-8.125-7.466-17.522-8.227-27.085C44.506,191.213,50.828,192.452,57.173,194.168z M37.959,183.702
			c-0.225-11.28,2.353-21.811,13.3-27.377c9.051-4.601,18.28-3.797,26.708,0.27c1.755,11.372,2.368,22.921,1.962,34.502
			c-0.008,0.199-0.013,0.396-0.019,0.595c-4.621-0.66-9.242-1.366-13.878-2.089c-5.861-0.914-11.755-2.163-17.563-3.442
			c-2.651-0.584-5.479-1.091-8.229-1.736C39.48,184.186,38.72,183.948,37.959,183.702z M81.314,267.727
			c0.528-3.642,0.989-7.277,1.41-10.911c15.859,3.728,31.862,6.991,48.029,9.046c-0.882,4.839-1.833,9.67-2.837,14.496
			c-2.169,10.423-5.289,20.685-8.837,30.735c-2.678-0.357-5.349-0.747-8.011-1.186c-5.778-1.256-11.52-2.693-17.219-4.192
			c-6.461-1.699-12.902-3.365-19.324-5.107c0.617-2.365,1.232-4.732,1.844-7.095C78.606,284.886,80.037,276.536,81.314,267.727z
			 M137.9,111.255c1.552,12.08,5.487,24.266,13.027,33.929c0.677,0.867,1.361,1.734,2.054,2.594
			c-2.08-0.078-4.159-0.142-6.236-0.162c-2.287-0.024-4.572-0.138-6.856-0.299c-0.127-1.479-0.244-2.96-0.402-4.435
			c-0.719-7.927-1.572-15.86-3.729-23.534c-0.001-0.006-0.004-0.011-0.005-0.018c-1.898-8.979-4.342-17.843-7.283-26.582
			c2.984,0.274,5.97,0.509,8.96,0.705C136.995,99.518,137.166,105.545,137.9,111.255z M223.37,195.261
			c0.351-2.775,0.386-5.559,0.044-8.265c-0.742-5.859-3.013-11.348-6.386-15.963c2.35-3.607,5.363-7.452,8.26-10.437
			c3.289-3.39,8.279-5.974,12.364-8.343c0.299-0.173,0.621-0.323,0.926-0.49c10.221-1.249,20.353-3.493,30.414-5.577
			c0.92-0.19,1.827-0.415,2.741-0.623c1.978,14.145,2.695,28.6,2.262,42.855C257.373,192.178,240.358,194.432,223.37,195.261z
			 M273.717,195.078c-0.136,2.458-0.293,4.91-0.496,7.349c-0.586,6.987-1.328,14.006-2.247,21.02
			c-1.535-1.848-3.02-3.742-4.466-5.619c-3.273-4.251-8.021-7.018-12.281-10.177c-4.076-3.024-7.918-5.639-12.89-6.982
			c-0.398-0.108-0.806-0.187-1.21-0.27C251.441,199.218,262.692,197.449,273.717,195.078z M209.245,206.864
			c0.096-1.497,0.181-2.996,0.253-4.501c0.75-0.04,1.499-0.079,2.247-0.114c-0.054,0.126-0.104,0.251-0.16,0.376
			C210.916,204.137,210.121,205.541,209.245,206.864z M218.028,247.073c1.481,4.49,2.431,8.921,3.167,13.38l-0.054,0.008
			c-5.504,0.716-11.051,1.195-16.61,1.497c0.17-1.186,0.339-2.373,0.509-3.562c0.764-5.368,0.802-10.88,1.136-16.291
			c0.319-5.167,1.114-10.272,1.65-15.418c1.566,2.111,2.944,4.547,3.645,5.706C214.273,237.034,216.333,241.934,218.028,247.073z
			 M209.734,195.794c0.181-7.065,0.116-14.172-0.256-21.253c1.165,1.662,1.981,3.463,2.991,5.631
			c2.407,5.167,2.631,10.321,1.468,15.471C212.536,195.692,211.136,195.743,209.734,195.794z M211.261,164.91
			c-0.852-0.708-1.751-1.355-2.669-1.973c-0.303-3.004-0.667-5.99-1.088-8.961c4.807-0.269,9.625-0.529,14.444-0.824
			C217.953,156.584,214.368,160.462,211.261,164.91z M235.799,143.905c-1.507,0.755-2.947,1.575-4.364,2.419
			c-6.387,0.675-12.796,1.106-19.218,1.228c-1.899,0.036-3.798,0.099-5.697,0.16c-0.473-2.745-0.987-5.474-1.572-8.173
			c-0.909-4.197-1.914-8.377-2.959-12.55c3-4.872,5.037-10.329,7.96-15.279c3.396-5.753,6.894-11.435,9.991-17.361
			c0.554-1.06,1.122-2.153,1.692-3.26c2.843-0.255,5.685-0.53,8.526-0.856c8.56-0.984,16.457-3.122,24.731-5.448
			c0.721-0.202,1.44-0.421,2.161-0.636c4.851,14.728,8.535,29.875,11.796,44.974c0.493,2.284,0.939,4.586,1.361,6.895
			C258.392,136.276,246.417,138.585,235.799,143.905z M186.793,243.023c-0.689-5.325-1.126-10.295-2.81-15.442
			c-0.24-0.735-0.429-1.55-0.661-2.331c4.961,1.452,10.31,1.673,15.727,0.298c0.896-0.228,1.77-0.515,2.629-0.835
			c-0.804,10.002-1.768,20.014-3.07,29.957c-0.332,2.531-0.696,5.054-1.071,7.574c-3.338,0.099-6.676,0.15-10.008,0.152
			c-1.346,0.001-2.701,0.003-4.06,0.005C186.113,256.289,187.602,249.28,186.793,243.023z M194.907,216.571
			c-8.404,1.541-14.628-1.093-20.558-7.021c-2.034-2.034-3.754-4.219-5.06-6.552c2.735-0.059,5.469-0.131,8.193-0.128
			c6.529,0.005,13.06,0.011,19.589,0.018c2.021,0.003,4.034-0.077,6.045-0.175c-0.157,3.655-0.363,7.291-0.61,10.906
			C200.28,215.029,197.752,216.048,194.907,216.571z M174.141,164.285c-3.112,2.672-5.775,5.983-7.888,9.625
			c-0.126-0.003-0.255,0.011-0.39,0.058c-4.574,1.615-8.704,4.786-13.338,6.546c-3.473,1.318-6.93,2.279-10.451,2.913
			c-0.189-4.6-0.41-9.196-0.671-13.789c-0.185-5.266-0.471-10.529-0.934-15.812c1.756,0.088,3.512,0.18,5.265,0.283
			c4.332,0.253,8.691,0.319,13.057,0.309C163.122,158.834,168.032,162.509,174.141,164.285z M170.257,154.495
			c0.039,0.005,0.077,0.006,0.116,0.01c5.947,0.69,12.222,0.711,18.466,0.489c0.368,0.916,0.763,1.815,1.193,2.62
			c-0.028,0.001-0.054,0-0.08,0.003c-4.709,0.227-9.058,1.863-12.888,4.433c-2.245-2.355-4.254-5.039-6.577-7.327
			C170.411,154.648,170.334,154.571,170.257,154.495z M158.852,195.807c-5.472,0.119-10.941,0.259-16.401,0.197
			c-0.038-1.884-0.073-3.768-0.129-5.652c4.418-0.729,8.257-2.006,12.636-4.07c2.305-1.087,4.703-2.43,6.71-4.073
			C159.645,186.575,158.625,191.182,158.852,195.807z M142.535,202.127c4.96,0.008,9.717,0.456,14.728,0.769
			c0.997,0.062,1.995,0.101,2.993,0.128c0.143,0.405,0.294,0.809,0.46,1.212c0.61,1.481,1.339,2.897,2.122,4.276
			c-5.076,7.634-12.234,13.067-19.832,18.213c-0.371,0.251-0.752,0.484-1.134,0.714c0.083-1.325,0.181-2.648,0.248-3.975
			C142.48,216.359,142.582,209.245,142.535,202.127z M141.169,236.703c0.576-0.244,1.161-0.47,1.726-0.733
			c9.464-4.385,18.511-12.131,24.831-20.694c2.61,2.869,5.626,5.316,8.945,7.172c0.343,0.861,0.725,1.734,0.72,1.719
			c0.481,1.636,0.464,3.351,0.749,5.022c0.936,5.496,1.981,11.9,1.438,17.456c-0.583,5.968-2.443,11.019-5.046,15.724
			c-7.997-0.073-16.054-0.327-23.846-1.183c-4.134-0.454-8.308-0.552-12.478-0.787C139.47,252.541,140.458,244.64,141.169,236.703z
			 M178.727,195.951c-3.978-0.232-7.96-0.28-11.943-0.258c-0.332-2.388-0.227-4.899,0.429-7.539
			c1.545-6.214,5.344-12.526,10.036-17.434c4.448-3.875,9.733-5.745,16.235-5.114c3.274,0.317,6.441,1.479,9.299,3.142
			c0.652,9.064,0.763,18.195,0.539,27.27C195.1,196.288,186.868,196.428,178.727,195.951z M198.609,114.205
			c-0.47-1.685-0.956-3.366-1.442-5.048c-1.414-5.357-2.956-10.683-4.63-15.969c0.177-0.014,0.353-0.033,0.53-0.048
			c2.999-0.129,5.996-0.285,8.988-0.515c3.23-0.248,6.456-0.485,9.68-0.729c-2.487,4.366-5.066,8.685-7.693,13.044
			C202.22,107.966,200.387,111.061,198.609,114.205z M201.921,159.496c-0.975-0.365-1.966-0.698-2.984-0.959
			c-0.62-1.32-1.306-2.57-1.822-3.945c1.393-0.083,2.771-0.166,4.14-0.251C201.496,156.055,201.724,157.772,201.921,159.496z
			 M195.424,143.746c0.148-2.722,0.985-5.57,2.13-8.32c0.2,0.809,0.414,1.615,0.608,2.426c0.802,3.329,1.467,6.699,2.063,10.086
			c-1.53,0.062-3.06,0.119-4.59,0.183C195.442,146.619,195.349,145.121,195.424,143.746z M219.738,76.738
			c-1.45,3.038-2.985,5.999-4.561,8.929c-1.088,0.084-2.178,0.163-3.269,0.236c-7.121,0.474-14.261,0.831-21.404,1.135
			c-0.557-1.643-1.112-3.285-1.692-4.922c-1.37-4.217-2.751-8.426-4.141-12.617c-2.04-6.147-5.609-11.832-8.327-17.709
			c-1.147-2.482-2.365-4.99-3.641-7.468c5.068-3.596,9.785-5.228,15.961-5.961c11.034-1.31,22.279-0.101,30.132,8.531
			c3.353,3.686,3.514,8.692,3.701,13.504c0.08,2.069,0.64,4.136,0.596,6.204C223.015,70.288,221.287,73.498,219.738,76.738z
			 M178.324,70.771c2.211,5.46,4.053,10.976,5.765,16.534c-8.171,0.302-16.339,0.529-24.487,0.706
			c-3.686,0.08-7.488,0.053-11.295-0.062c0.31-1.788,0.657-3.578,1.083-5.369c2.519-10.593,5.585-20.068,12.753-28.483
			c1.802-2.115,3.776-4.091,5.853-5.947C171.888,55.5,175.271,63.233,178.324,70.771z M186.001,93.65
			c0.855,2.918,1.694,5.848,2.548,8.788c1.932,6.66,3.833,13.34,5.652,20.045c-1.892,3.798-3.611,7.654-5.001,11.563
			c-1.74,4.895-2.851,9.372-2.153,14.411c-1.927,0.07-3.855,0.142-5.784,0.191c-5.627,0.146-11.274-0.074-16.926-0.347
			c-1.239-1.44-2.414-2.949-3.48-4.6c-2.487-3.857-5.495-7.418-7.17-11.74c-1.942-5.007-4.036-10.28-5.119-15.547
			c-1.551-7.542-1.854-14.993-1.11-22.433c0.27,0.011,0.542,0.026,0.812,0.038C160.752,94.52,173.431,94.424,186.001,93.65z
			 M128.221,233.038c-5.96,1.997-11.738,4.222-17.994,5.146c-8.308,1.227-17.172,1.41-25.749,0.202
			c0.553-7.364,0.956-14.743,1.242-22.175c0.026-0.685,0.036-1.372,0.058-2.059c0.547-4.918,0.905-9.852,1.097-14.793
			c9.159,0.917,18.394,1.369,27.58,1.695c7.243,0.647,14.558,1.154,21.765,1.125c0.04,4.88,0.03,9.759-0.062,14.631
			c-0.087,4.58-0.319,9.14-0.662,13.683C133.1,231.427,130.644,232.226,128.221,233.038z M134.7,239.179
			c-0.743,6.915-1.727,13.799-2.884,20.663c-4.345-0.583-8.584-1.561-12.959-2.051c-11.697-1.308-22.763-4.522-34.253-6.95
			c-0.403-0.085-0.807-0.173-1.21-0.259c0.187-1.849,0.373-3.698,0.538-5.546c6.245,0.861,12.682,1.178,19.146,1.107
			c7.09-0.078,14.013-1.307,20.758-3.476C127.409,241.517,131.085,240.415,134.7,239.179z M84.9,160.787
			c3.602,2.701,6.513,6.104,9.643,9.338c3.998,4.131,6.943,9.517,11.437,13.11c8.773,7.013,19.376,8.471,30.052,7.796
			c0.044,1.62,0.068,3.24,0.097,4.859c-10.477-0.227-21.046-0.476-31.471-1.327c-5.919-0.483-11.782-1.144-17.627-1.903
			C87.11,182.003,86.384,171.342,84.9,160.787z M135.811,184.178c-1.54,0.107-3.091,0.177-4.678,0.158
			c-6.723-0.08-13.608-2.482-19.135-6.282c-5.168-3.552-8.77-10.216-13.217-14.704c-4.737-4.782-9.742-9.406-15.472-12.736
			c-0.069-0.363-0.147-0.725-0.219-1.087c16.849,2.729,33.925,3.246,50.944,3.998C134.812,163.709,135.429,173.938,135.811,184.178z
			 M190.971,326.218c0.459-1.415,0.916-2.852,1.374-4.286c3.753-0.255,7.505-0.439,11.263-0.364c2.942,0.059,5.898-0.029,8.861-0.21
			c-2.221,3.459-4.929,6.588-8.493,9.176c-4.768,3.463-10.525,5.594-16.457,6.499C188.692,333.433,189.808,329.812,190.971,326.218z
			 M208.107,314.889c-2.074,0.166-4.154,0.332-6.238,0.493c-0.327,0.014-0.654,0.033-0.982,0.047
			c-2.206,0.087-4.413,0.212-6.621,0.342c2.355-7.814,4.388-15.802,5.169-23.764c0.184-1.876,0.434-3.747,0.704-5.614
			c1.478-6.043,2.543-12.145,3.481-18.288c2.372-0.087,4.747-0.199,7.128-0.372c3.796-0.279,7.574-0.706,11.347-1.175
			c0.421,3.2,0.798,6.429,1.227,9.727c0.676,5.216-0.401,10.245-0.792,15.455c-0.392,5.23-1.346,10.16-3.212,15.075
			c-0.941,2.479-1.915,4.916-2.981,7.283C213.597,314.395,210.854,314.668,208.107,314.889z M215.853,223.613
			c-1.174-1.589-2.563-3.499-4.154-5.164c3.735-3.488,6.737-7.883,8.8-12.665c3.7-1.35,11.092,0.16,14.357,0.298
			c6.456,0.273,10.956,3.831,15.864,7.568c4.918,3.744,8.809,7.048,12.386,12.061c1.871,2.622,4.096,5.113,6.477,7.42
			c-1.117,7.151-2.451,14.274-4.014,21.334c-11.953,1.761-23.923,3.333-35.916,4.89c-1.144-6.177-2.7-12.276-4.836-18.237
			C222.615,234.968,219.747,228.883,215.853,223.613z M226.125,311.655c1.934-4.598,3.396-9.279,4.075-14.231
			c0.813-5.92,2.03-12.633,1.724-18.601c-0.229-4.482-0.646-8.94-1.259-13.363c4.023-0.509,8.049-0.982,12.095-1.292
			c5.321-0.409,10.702-1.785,15.977-2.57c1.789-0.266,3.569-0.499,5.347-0.727c-1.648,6.751-3.52,13.431-5.663,19.995
			c-3.156,9.671-6.8,19.137-10.61,28.551c-7.39,1.297-14.799,2.514-22.229,3.528C225.762,312.516,225.945,312.088,226.125,311.655z
			 M260.214,297.007c4.792-11.956,8.412-24.436,11.269-37.12c1.543-0.228,3.089-0.476,4.644-0.769
			c7.838-1.478,15.636-2.254,23.316-4.53c2.431-0.721,4.864-1.433,7.299-2.137c-0.978,4.855-2.003,9.69-3.087,14.491
			c-2.392,10.581-6.18,20.698-9.484,30.991c-6.913,1.884-13.935,3.442-20.789,5.502c-4.411,1.326-8.866,2.617-13.35,3.799
			c-1.341,0.243-2.683,0.483-4.026,0.725C257.41,304.267,258.781,300.58,260.214,297.007z M306.23,246.001
			c-6.479,1.79-12.825,3.958-19.464,5.102c-4.63,0.798-9.263,1.542-13.898,2.259c1.021-4.997,1.951-10.013,2.776-15.038
			c8.613,6.203,18.884,5.69,29.047,4.452c1.376-0.167,2.729-0.435,4.057-0.772c-0.214,1.169-0.432,2.336-0.652,3.503
			C307.47,245.668,306.845,245.832,306.23,246.001z M306.121,234.293c-5.379,0.994-11.224,1.92-16.676,1.24
			c-4.938-0.616-8.954-2.835-12.458-5.817c0.754-5.146,1.434-10.284,2.062-15.398c0.848-6.909,1.372-13.847,1.63-20.794
			c5.916-1.395,11.828-2.866,17.705-4.461c5.93-1.469,11.861-3.033,17.678-4.807c-1.057,16.292-3.042,32.599-5.729,48.723
			C309.026,233.554,307.641,234.012,306.121,234.293z M309.069,179.431c-6.705,2.281-13.623,3.342-20.422,5.28
			c-2.59,0.739-5.197,1.425-7.813,2.088c0.163-14.173-0.777-28.362-2.61-42.41c13.842,0.876,28.415,4.505,38.696,13.434
			c0.009,6.327-0.152,12.672-0.451,19.024C314.003,177.718,311.541,178.59,309.069,179.431z M295.356,138.616
			c4.985-1.682,9.959-3.41,14.979-5.036c1.664-0.539,3.314-1.107,4.953-1.702c0.66,5.254,1.164,10.511,1.419,15.703
			C310.284,143.376,302.975,140.468,295.356,138.616z M302.243,77.932c3.045,7.508,5.315,14.548,7.214,22.417
			c1.963,8.137,3.686,16.681,4.988,25.309c-10.477,4.341-21.66,7.765-32.591,10.749c-1.611-0.146-3.219-0.245-4.82-0.314
			c-1.494-9.552-3.466-19.143-6.098-28.401c-2.416-8.496-4.619-17.213-7.615-25.567c11.568-4.014,22.892-9.495,33.29-15.954
			C298.617,70.044,300.619,73.928,302.243,77.932z M240.055,28.724c4.15,1.665,8.036,3.213,11.878,5.365
			c4.222,2.367,8.738,3.913,12.879,6.352c8.948,5.269,17.803,10.63,26.545,16.188c0.27,0.172,0.529,0.37,0.797,0.548
			c0.466,1.027,0.958,2.047,1.455,3.065c-0.949,0.593-1.884,1.219-2.807,1.846c-0.877,0.347-1.734,0.685-2.505,1.061
			c-3.476,1.698-6.5,4.172-9.944,5.924c-5.09,2.231-10.394,4.121-15.454,6.229c-0.628,0.261-1.261,0.507-1.893,0.757
			c-4.672-11.841-8.159-24.008-15.613-34.563c-3.309-4.687-6.994-9.079-10.368-13.693c-0.338-0.464-0.68-0.92-1.019-1.38
			C236.024,27.157,238.039,27.915,240.055,28.724z M209.02,18.969c4.872,1.142,9.635,2.421,14.341,3.862
			c1.383,1.228,2.709,2.522,3.988,3.954c2.935,3.86,5.437,7.978,8.322,11.896c1.317,1.79,2.53,3.613,3.695,5.455
			c2.193,4.176,3.98,8.415,6.46,12.447c0.557,0.905,1.095,1.817,1.618,2.736c1.366,3.015,2.666,6.081,3.929,9.209
			c1.295,3.206,2.486,6.451,3.64,9.713c-9.829,3.275-19.986,5.266-30.275,6.492c3.089-6.825,5.414-14.15,4.386-21.286
			c-0.77-5.343-1.091-10.116-2.834-15.284c-1.332-3.953-5.166-7.293-8.525-9.631c-9.749-6.783-21.307-6.773-32.696-5.861
			c-5.71,0.459-11.051,2.389-15.962,5.173c-0.704-1.165-1.415-2.323-2.168-3.435c0.297-0.068,0.595-0.129,0.891-0.197
			c7.07-0.983,14.088-2.726,20.781-4.947c4.398-1.458,9.054-2.756,12.966-5.323C203.969,22.371,206.622,20.776,209.02,18.969z
			 M159.548,16.169c5.07-0.225,10.289-0.698,15.351-0.747c7.72-0.075,15.433,0.349,23.034,1.442
			c-3.561,1.605-7.262,2.925-10.865,4.419c-7.508,3.116-15.283,6.404-23.321,7.962c-1.64-2.817-3.228-5.653-5.128-8.343
			c-0.813-1.151-1.604-2.834-2.505-4.516C157.263,16.298,158.412,16.22,159.548,16.169z M145.554,18.104
			c0.876-0.244,1.768-0.45,2.666-0.638c1.078,1.121,2.179,2.23,3.153,3.451c0.182,0.229,0.359,0.473,0.54,0.705
			c0.995,1.729,2.168,3.323,3.221,5.021c0.737,1.188,1.458,2.379,2.177,3.571c-6.493,0.754-12.967,0.892-19.489,0.024
			c-3.432-0.457-6.842-0.965-10.265-1.472c-1.858-0.275-5.362-1.16-8.151-2.443C128.034,23.317,136.741,20.551,145.554,18.104z
			 M113.863,28.287c2.09,3.546,9.934,5.543,12.933,6.105c9.189,1.722,17.84,2.991,27.223,2.104c2.205-0.209,4.398-0.507,6.583-0.861
			c0.542,0.876,1.088,1.751,1.65,2.622c0.606,0.939,1.188,1.903,1.771,2.866c-2.406,1.745-4.691,3.659-6.827,5.681
			c-10.902,10.316-16.996,25.289-19.125,40.565c-1.302-0.108-2.613-0.205-3.89-0.342c-2.639-0.284-5.304-0.514-7.971-0.76
			c-3.899-10.59-8.588-21.188-13.653-31.218c-2.603-5.153-6.278-9.433-9.035-14.476c-1.036-1.894-1.746-4.041-2.737-5.978
			C105.018,32.223,109.319,30.001,113.863,28.287z M55.423,66.485c3.219-2.654,6.533-5.205,9.666-7.882
			c7.667-6.548,15.004-12.367,23.851-17.251c2.198-1.214,4.371-2.475,6.544-3.734c0.92,1.176,1.736,2.463,2.52,3.769
			c0.219,0.705,0.452,1.383,0.739,1.976c2.059,4.256,4.737,7.8,7.037,11.882c5.299,9.405,9.479,20.126,13.382,30.269
			c-3.336-0.424-6.649-0.974-9.891-1.81c-9.885-2.546-19.55-5.594-29.433-8.172c-5.342-1.393-10.889-2.543-16.104-4.356
			c-3.125-1.087-6.597-1.869-9.788-3.092C54.437,67.549,54.924,67.013,55.423,66.485z M50.279,72.232
			c0.155-0.186,0.315-0.367,0.475-0.548c3.999,2.495,8.851,4.07,13.473,5.42c0.76,0.32,1.517,0.659,2.26,1.037
			c8.056,4.107,16.812,6.164,25.515,8.461c9.728,2.568,19.626,4.276,29.594,5.433c6.296,17.656,10.16,36.074,11.872,54.737
			c-4.831-0.45-9.66-0.933-14.498-1.046c-11.274-0.263-23.15-0.842-34.267-2.891c-1.076-0.199-2.148-0.41-3.22-0.621
			c-2.433-10.75-5.622-21.324-9.557-31.591c-3.406-8.886-8.614-16.075-14.207-23.693c-1.116-1.519-2.291-2.979-3.474-4.429
			c-1.104-1.802-2.212-3.603-3.304-5.408c-0.685-1.132-1.277-2.301-1.937-3.395C49.433,73.211,49.868,72.726,50.279,72.232z
			 M27.768,106.772c1.457-3.573,3.28-7.291,5.531-10.395c2.803-3.864,4.373-8.436,7.046-12.385c1.566-2.313,3.442-4.462,5.352-6.58
			c1.284,2.499,2.431,5.167,3.566,7.356c2.231,4.306,4.761,8.449,7.008,12.743c5.235,10.001,11.19,20.474,14.86,31.167
			c1.376,4.011,2.578,8.063,3.62,12.146c-8.11-1.745-16.178-3.646-24.35-5.066c-9.89-1.719-21.52-3.642-30.531-8.751
			C22.193,120.174,25.004,113.552,27.768,106.772z M16.745,137.709c0.517-2.25,1.129-4.451,1.788-6.629
			c1.466,0.654,2.911,1.362,4.359,2.065c0.298,0.15,0.598,0.295,0.9,0.436c1.873,0.9,3.763,1.767,5.726,2.465
			c5.432,1.929,11.073,3.108,16.541,4.929c5.651,1.882,11.41,3.386,17.216,4.693c-8.844,0.425-17.885,3.853-23.869,10.256
			c-6.678,7.145-8.549,16.059-8.563,25.338c-3.897-1.424-7.745-2.995-11.489-4.758c-0.411-0.226-0.825-0.445-1.23-0.689
			c-2.942-1.761-5.673-4.341-8.641-6.313C10.042,158.638,14.333,148.22,16.745,137.709z M11.103,215.297
			c-0.557-4.905-2.103-9.493-2.349-14.489c-0.41-8.342,0.098-16.82,0.473-25.208c1.198,0.997,2.398,1.99,3.651,2.916
			c4.807,3.554,10.167,5.9,15.68,7.997c0.833,0.317,1.672,0.599,2.509,0.886c0.724,10.853,2.652,21.85,8.402,31.225
			c9.12,14.871,22.868,22.176,38.287,25.374c-0.18,1.739-0.383,3.485-0.586,5.232c-10.002-2.221-19.952-4.73-29.662-8.21
			c-6.895-2.471-13.274-6.194-19.951-9.142c-1.068-0.471-12.722-5.798-14.945-6.542C12.036,221.998,11.485,218.655,11.103,215.297z
			 M63.217,313.543c-3.112-2.232-6.333-4.29-9.302-6.647c-3.9-3.098-7.557-7.068-10.85-11.263c0.431,0.186,0.861,0.372,1.277,0.564
			c4.717,2.167,9.532,4.2,14.324,6.189c2.414,1.002,4.873,1.84,7.355,2.583C65.076,307.822,64.128,310.676,63.217,313.543z
			 M58.751,296.072c-5.143-1.597-10.138-3.466-15.163-5.353c-1.482-0.667-3.069-1.434-4.657-1.939
			c-0.402-0.186-0.807-0.373-1.214-0.558c-0.598-0.9-1.178-1.792-1.734-2.672c-1.117-1.767-2.673-3.245-3.808-5.01
			c-1.313-2.039-2.115-4.335-3.323-6.431c-2.61-4.531-4.707-8.953-6.61-13.834c-1.866-4.789-3.552-9.728-4.784-14.718
			c-1.239-5.02-3.029-10.072-3.957-15.146c2.127,1.21,4.303,2.319,6.498,3.399c2.647,1.809,5.648,3.038,8.645,4.266
			c0.201,0.104,0.406,0.2,0.607,0.304c11.018,5.725,22.484,10.761,34.622,13.828c4.18,1.056,8.372,2.091,12.572,3.111
			c-0.052,0.422-0.103,0.845-0.157,1.268c-0.765,6.097-1.471,12.105-2.398,18.081c-1.008,5.902-2.262,11.767-3.877,17.557
			c-0.617,2.211-1.287,4.406-1.983,6.597C64.932,297.94,61.838,297.032,58.751,296.072z M107.258,340.62
			c-1.489-0.65-2.977-1.306-4.457-1.99c-7.922-3.66-15.44-7.704-22.925-12.346c-3.559-2.207-6.825-4.853-10.057-7.523
			c0.354-2.01,1.462-4.004,1.963-5.966c0.503-1.968,0.762-3.982,1.175-5.968c4.933,1.2,9.911,2.24,14.823,3.573
			c8.587,2.331,17.064,4.776,25.91,6.138c1.071,0.165,2.144,0.307,3.216,0.46c-1.712,4.435-3.591,8.77-5.397,13.181
			C110.116,333.587,108.369,337.044,107.258,340.62z M149.961,352.063c-5.776-1.016-11.628-1.732-17.366-2.949
			c-6.786-1.44-13.331-3.6-19.746-6.157c3.579-8.318,7.061-16.663,10.253-25.11c6.033,0.779,12.073,1.487,18.1,2.348
			c2.646,0.378,5.271,0.887,7.901,1.364c1.146,3.631,2.814,7.063,4.926,10.012c5.677,7.924,14.01,12.137,22.959,13.33
			c-1.104,3.313-2.232,6.761-3.755,9.85c-2.196-0.185-4.399-0.442-6.62-0.836C161.055,352.929,155.528,353.042,149.961,352.063z
			 M210.445,448.032c5.601,0.303,11.202,0.711,16.765,1.222c6.466,0.593,12.656,1.148,18.983,2.649
			c6.348,1.508,12.161,2.108,18.361,4.408c6.213,2.305,13.638,5.058,18.271,10.086c9.986,10.84-12.366,22.29-20.196,24.966
			c-5.727,1.957-11.809,2.1-17.651,3.429c-6.833,1.553-14.836,2.215-21.864,2.511c-27.957,1.179-56.024,1.736-83.729-3.517
			c-6.215-1.179-12.405-2.446-18.604-3.704c-7.221-1.467-13.664-3.287-20.6-5.682c-5.934-2.049-11.806-3.646-17.435-6.538
			c-2.419-1.242-5.218-2.906-6.405-5.499c-1.663-3.635,2.012-7.547,4.683-9.744c2.96-2.435,7.031-3.87,10.359-5.784
			c3.292-1.893,6.639-3.278,10.245-4.473c6.058-2.008,11.998-3.949,18.145-5.643c7.666-2.113,15.552-4.262,23.359-5.774
			c3.681-0.713,7.353-1.092,10.679-2.424c0.363,5.626,1.897,11.259,5.2,15.897c4.275,5.999,10.417,8.592,17.272,10.072
			c6.982,1.508,15.875,0.341,22.539-2.104C205.607,459.894,208.889,454.466,210.445,448.032z M235.078,337.282
			c-1.125,2.481-2.363,5.406-3.724,7.717c-0.504,0.857-1.11,2.079-1.746,3.233c-10.633,2.994-20.9,4.194-31.81,5.553
			c-5.822,0.725-11.534,1.22-17.262,1.234c1.223-3.059,2.715-6.091,3.83-8.978c0.108-0.28,0.202-0.567,0.309-0.85
			c8.728-0.444,17.49-3.468,24.516-8.511c6.117-4.391,9.899-10.003,12.998-16.243c7.584-0.96,15.178-2.402,22.696-3.866
			c-0.523,1.269-1.046,2.538-1.572,3.806c-1.271,3.063-3.251,5.692-4.83,8.582C237.027,331.627,236.327,334.529,235.078,337.282z
			 M288.181,313.63c-1.063,2.844-2.426,5.519-3.592,8.313c-0.39,0.934-0.671,2.382-1.093,3.676
			c-7.745,4.986-16.143,9.654-24.554,13.061c-4.585,1.858-9.179,3.866-13.795,5.614c-2.093,0.793-4.263,1.356-6.455,1.853
			c2.546-5.335,4.269-11.109,7.312-16.176c2.819-4.694,5.132-9.803,7.253-15.019c2.55-0.484,5.089-0.951,7.61-1.38
			c10.136-1.723,20.358-3.816,30.149-7.065C290.056,308.88,289.073,311.245,288.181,313.63z M307.01,303.77
			c-3.649,5.494-8.632,10.657-13.972,15.028c0.954-2.339,1.88-4.689,2.813-7.063c1.047-2.667,2.055-5.344,3.049-8.026
			c3.46-1.2,7.209-2.424,10.832-3.877C308.806,301.133,307.892,302.443,307.01,303.77z M325.423,277.965
			c-2.34,3.715-4.919,7.287-7.55,10.83c-5.364,1.525-10.633,3.98-15.878,6.333c1.404-4.034,2.758-8.089,4.018-12.184
			c3.256-10.578,5.71-21.49,7.756-32.471c2.38-0.65,4.763-1.284,7.155-1.878c5.787-1.437,11.571-4.33,17.088-6.561
			c2.898-1.171,5.785-2.466,8.647-3.811C341.217,252.238,333.279,265.493,325.423,277.965z M351.668,221.867
			c-0.495,2.297-1.088,4.575-1.748,6.836c-2.211,1.092-4.454,2.114-6.607,3.141c-3.688,1.76-7.247,3.656-10.903,5.431
			c-3.131,1.296-6.265,2.583-9.375,3.903c-2.543,1.08-5.281,1.888-8.055,2.609c0.249-1.457,0.49-2.913,0.73-4.371
			c6.068-3.019,11.304-7.753,15.092-13.555c2.926-4.482,4.359-10.752,5.996-15.791c2.069-6.363,2.947-12.617,3.192-19.281
			c0.195-5.288-0.382-9.536-1.674-14.475c0.833-0.349,1.672-0.688,2.5-1.053c2.618-1.153,5.157-2.221,7.58-3.622
			c2.383-1.158,4.767-2.329,7.156-3.411C357.221,186.099,355.397,204.571,351.668,221.867z"/>
	</g>
</g>
<g>
	<g>
		<path d="M194.942,397.306c-0.049-2.354,0.021-6.337-1.244-8.347c-1.472-2.336-3.494-1.713-5.848-1.919
			c-1.697-0.148-3.456-0.177-5.141,0.04c-2.794-0.146-5.549,0.731-7.516,3.267c-2.03,2.615-2.31,6.527-2.177,10.414
			c-0.033,2.12,0.145,4.261,0.378,6.382c0.033,0.666,0.054,1.307,0.052,1.905c-0.031,5.489-1.122,12.21,5.687,13.48
			c5.254,0.979,11.817,1.474,14.581-3.934C196.74,412.67,195.074,403.734,194.942,397.306z M190.127,415.674
			c-1.161,3.37-3.167,2.913-6.057,2.874c-2.152-0.029-4.897,0.568-6.365-1.776c-0.96-1.533-0.19-5.942-0.195-7.726
			c-0.001-0.706-0.021-1.414-0.039-2.122c2.436,0.941,4.977,0.559,7.792,0.682c1.776,0.077,3.566,0.28,5.294,0.116
			c-0.008,0.486-0.014,0.972-0.014,1.45C190.545,411.258,190.817,413.672,190.127,415.674z M190.652,403.626
			c-1.885,0.383-3.879,0.08-5.798,0.08c-2.43,0-5.029,0.44-7.479,0.206c-0.079-2.068-0.157-4.134-0.128-6.189
			c0.008-0.528,0.047-1.002,0.101-1.45c1.243-3.803,3.857-5.226,8.68-5.112c1.726,0.042,2.835-0.256,3.822,1.093
			c0.148,0.202,0.452,2.627,0.485,2.857C190.725,397.853,190.716,400.75,190.652,403.626z"/>
	</g>
</g>
<g>
	<g>
		<path d="M471.936,111.36c-7.54,0.01-12.689,4.495-15.097,11.584c-2.72,8.01-0.897,13.546,7.079,16.308
			c3.083,1.067,4.975-3.639,2.198-5.212c-4.713-2.672-4.207-7.134-1.717-11.402c2.501-4.287,6.733-5.198,11.447-3.972
			c8.073,2.101,13.448,11.445,12.029,19.321c-1.496,8.309-8.347,12.912-15.853,15.762c-7.554,2.869-16.78,1.641-24.363-0.419
			c-7.026-1.909-13.516-5.244-19.384-9.582c-6.066-4.486-11.297-9.325-18.435-12.248c-6.606-2.706-15.087-2.594-22.056-1.658
			c-6.97,0.936-15.723,3.409-20.27,8.993c-0.845,1.039-0.434,3.18,1.247,3.008c3.725-0.381,7.368-2.059,11.005-3.069
			c4.689-1.303,8.662-2.599,13.61-2.575c4.864,0.024,9.709-0.292,14.251,1.684c4.062,1.766,8.27,4.317,11.622,7.217
			c5.685,4.918,11.625,9.816,18.712,12.371c7.799,2.813,15.164,5.198,23.597,5.203c13.788,0.009,29.943-7.415,33.124-21.936
			C497.802,126.498,486.978,111.339,471.936,111.36z"/>
	</g>
</g>
<g>
	<g>
		<path d="M495.921,315.024c-5.051-10.639-16.732-13.281-27.696-12.499c-10.305,0.734-22.71,3.429-27.104,13.898
			c-4.321,10.297,1.082,25.574,13.99,25.19c5.259-0.157,10.136-3.282,12.57-7.924c2.778-5.301,0.186-10.363-5.87-10.394
			c-2.612-0.014-3.679,3.122-2.046,4.941c1.484,1.653-0.99,3.847-2.553,4.621c-2.384,1.181-5.215,0.646-7.077-1.159
			c-3.314-3.213-3.91-9.381-1.673-13.248c4.884-8.446,19.662-9.546,28.181-8.208c8.927,1.401,15.36,8.256,13.011,17.568
			c-2.28,9.04-10.785,16.374-19.231,19.902c-8.926,3.728-19.234,6.665-28.89,7.294c-4.535,0.295-9.245,0.568-13.653-0.649
			c-4.975-1.375-9.413-3.806-13.775-6.493c-4.588-2.825-9.511-5.386-13.784-8.674c-3.698-2.847-7.375-5.091-11.7-6.919
			c-7.698-3.253-15.611-5.538-23.736-7.437c-9.914-2.319-22.088-2.848-32.095-0.895c-9.717,1.895-19.65,4.766-27.223,11.357
			c-1.98,1.723,0.588,5.005,2.795,3.622c5.523-3.458,12.886-5.286,19.25-6.674c7.218-1.574,14.015-1.776,21.389-1.626
			c7.262,0.147,13.441,1.952,20.421,3.451c5.599,1.204,11.598,3.361,16.867,5.687c6.28,2.774,11.524,7.366,17.361,10.958
			c5.57,3.429,11.065,7.153,17.182,9.539c11.767,4.593,25.231,3.298,37.185-0.183c5.876-1.711,12.008-3.312,17.561-5.932
			c5.864-2.768,10.449-7.008,14.879-11.627C497.426,335.245,500.402,324.456,495.921,315.024z"/>
	</g>
</g>
<g>
	<g>
		<path d="M396.94,367.36c-5.499-16.677-26.218-19.797-40.99-22.902c-8.479-1.782-17.145-2.04-25.701-0.753
			c-5.716,0.86-14.923,1.579-18.534,6.827c-0.672,0.977,0.454,2.482,1.586,2.064c3.924-1.45,9.054-1.313,13.189-1.731
			c5.409-0.547,10.818-1.718,16.295-1.217c5.633,0.515,11.153,1.413,16.639,2.815c6.091,1.557,12.929,2.147,18.513,5.119
			c5.642,3.003,11.762,6.74,12.689,13.721c0.862,6.494-4.063,13.065-10.243,14.919c-5.585,1.675-13.568,1.457-18.469-1.853
			c-3.593-2.426-4.566-6.629-1.68-9.919c1.082-1.233,2.448-1.9,3.846-2.69c0.024-0.039,0.047-0.078,0.07-0.117
			c0.074,0.17,0.15,0.302,0.224,0.429c-0.76,1.86,0.456,4.396,2.954,4.609c5.656,0.481,5.13-5.715,2.823-8.939
			c-3.933-5.494-9.118-3.332-13.823,0.245c-5.577,4.239-6.915,12.35-2.916,18.173c4.149,6.04,12.257,8.255,19.2,8.063
			c7.121-0.197,14.636-1.717,19.637-7.265C396.914,381.785,399.137,374.024,396.94,367.36z"/>
	</g>
</g>
<g>
	<g>
		<path d="M413.247,154.534c-5.981-3.215-11.89-3.17-18.341-4.099c-7.2-1.037-12.439,0.442-19.06,3.24
			c-0.532,0.225-0.94,1-0.895,1.56l0.049,0.596c0.123,1.503,2.231,2.369,3.048,0.826c-0.32,0.605,8.983-0.76,9.185-0.781
			c3.536-0.357,6.88,0.701,10.379,0.817c7.585,0.253,12.972,3.187,18.63,7.986c2.388,2.025,6.029,5.697,3.782,9.23
			c-1.869,2.937-6.7,3.577-9.742,4.111c-3.108,0.546-7.903-0.035-10.153-2.765c-0.931-1.13-1.555-3.068-0.096-4.017
			c1.155-0.753,2.291,0.069,3.799-0.07c1.706-0.157,3.249-2.012,2.119-3.691c-6.302-9.361-16.952,2.804-11.601,10.669
			c6.328,9.303,21.371,7.462,28.944,1.125C433.193,170.989,421.1,158.754,413.247,154.534z"/>
	</g>
</g>
<g>
	<g>
		<path d="M509.001,223.123c-7.204-13.124-32.002-20.331-38.945-2.941c-3.279,8.212-2.357,18.497,7.765,20.625
			c6.707,1.409,17.083-2.479,16.501-10.534c-0.357-4.937-8.036-5.016-7.759,0c0.209,3.779-8.229,3.846-10.077,2.045
			c-3.59-3.497,0.108-11.509,3.536-13.612c7.596-4.659,18.185,0.392,22.244,7.365c5.436,9.341,0.103,19.924-8.445,25.068
			c-9.273,5.58-19.844,6.342-30.32,4.615c-4.844-0.798-9.826-1.442-14.489-3.015c-4.937-1.667-9.307-4.078-13.921-6.414
			c-7.452-3.773-15.562-7.873-23.746-9.695c-4.785-1.066-9.416-0.904-14.29-0.808c-4.114,0.08-8.195-0.117-12.195,1
			c-3.363,0.94-6.958,1.897-10.007,3.397c-3.425,1.685-5.687,5.104-8.929,6.771c-1.17,0.602-0.66,2.649,0.688,2.54
			c3.552-0.288,6.937-3.349,10.217-4.624c3.515-1.366,8.26-2.663,12.073-3.064c11.837-1.242,23.435,0.804,33.944,6.181
			c18.878,9.661,39.748,19.235,61.531,14.627C501.719,258.982,519.134,241.58,509.001,223.123z"/>
	</g>
</g>
<g>
	<g>
		<path d="M430.595,267.247c-1.614-2.887-2.745-6.137-5.266-8.34c-5.149-4.501-13.863-7.755-20.619-8.371
			c-6.895-0.63-12.895-1.352-19.78-0.038c-6.136,1.173-14.584,3.378-18.097,9.127c-0.461,0.755-0.035,1.856,0.84,2.064
			c2.76,0.657,5.019-0.862,7.576-1.76c3.641-1.277,7.625-2.457,11.457-2.995c6.889-0.968,14.771-0.784,21.523,1.049
			c3.587,0.974,8.094,2.609,11.062,4.86c2.476,1.878,8.22,9.586,6.034,12.873c-2.223,3.343-8.8,5.722-12.347,4.953
			c-1.701-0.368-3.414-1.168-4.913-2.021c-0.922-0.425-1.758-0.984-2.507-1.677c-0.377-2.726,0.161-5.169,1.616-7.332
			c0.356,3.972,5.887,4.011,6.205,0c0.519-6.551-7.518-5.716-11.046-2.989c-4.87,3.767-5.568,10.185-1.194,14.738
			c4.256,4.429,12.602,6.911,18.438,5.142c4.867-1.476,12.018-5.612,13.216-11.08C433.472,272.345,432.053,269.855,430.595,267.247z
			"/>
	</g>
</g>
<g>
</g>
<g>
</g>
<g>
</g>
<g>
</g>
<g>
</g>
<g>
</g>
<g>
</g>
<g>
</g>
<g>
</g>
<g>
</g>
<g>
</g>
<g>
</g>
<g>
</g>
<g>
</g>
<g>
</g>
</svg>
