<?xml version="1.0" encoding="iso-8859-1"?>
<!-- Generator: Adobe Illustrator 19.0.0, SVG Export Plug-In . SVG Version: 6.00 Build 0)  -->
<svg version="1.1" id="Layer_1" xmlns="http://www.w3.org/2000/svg" xmlns:xlink="http://www.w3.org/1999/xlink" x="0px" y="0px"
	 viewBox="0 0 511.999 511.999" style="enable-background:new 0 0 511.999 511.999;" xml:space="preserve">
<g>
	<g>
		<path d="M388.57,101.477c-0.073-6.941-1.944-13.627-2.124-20.54c-0.589-22.546-7.322-49.501-27.996-61.951
			c-10.665-6.423-21.836-9.967-33.833-12.995c-6.013-1.519-12.279-2.843-18.504-2.926c-6.727-0.09-13.143-1.856-19.855-1.913
			c-5.696-0.048-11.306-0.924-17.034-0.912c-6.85,0.014-13.677,0.007-20.523-0.216c-5.947-0.192-11.91,0.839-17.821,1.36
			c-3.041,0.269-5.913,1.098-8.911,1.586c-3.338,0.544-6.784,0.652-10.013,1.746c-4.73,1.602-9.24,3.902-13.906,5.762
			c-2.964,0.838-5.907,1.758-8.773,2.838c-5.275,1.987-10.276,4.977-15.33,7.473c-2.024,0.999-4.061,2.225-6.064,3.536
			c-1.101,0.549-2.2,1.108-3.296,1.679c-0.249,0.122-0.501,0.233-0.749,0.357c-1.067,0.534-2.104,1.121-3.126,1.733
			c-3.593,2.008-7.087,4.184-10.344,6.67c-4.953,3.779-8.961,8.432-12.588,13.499c-8.541,11.931-13.897,27.932-14.262,42.61
			c-0.351,14.132-0.217,28.9,6.754,41.636c2.553,4.664,5.634,8.122,9.247,11.511c-0.55,2.799-1.158,5.603-1.559,8.457
			c-0.657,4.685,0.046,9.18-0.158,13.875c-0.209,4.789,0.403,9.5,0.3,14.305c-0.126,5.938,0.308,11.745,0.405,17.647
			c0.159,9.748-1.501,19.497-1.562,29.247c-0.068,11.003-0.156,22.007-0.211,33.009c-0.026,5.268-0.516,10.591-0.364,15.85
			c0.139,4.838,0.889,9.502,0.873,14.377c-0.037,10.898-1.086,22.342,0.409,33.148c1.337,9.658,3.855,19.454,11.372,26.224
			c7.312,6.585,16.133,8.725,25.331,11.22c3.706,1.005,7.542,1.584,11.421,1.964c-1.599,4.599-1.122,9.556-1.718,14.376
			c-0.686,5.545-1.477,11.081-1.756,16.667c-0.449,8.959-0.463,17.947-1.202,26.89c-0.463,5.589-0.395,11.126-0.915,16.72
			c-0.574,6.183-0.498,12.974-0.131,19.165c0.286,4.823,0.948,9.587,1.507,14.365c0.671,5.75,0.58,12.085,2.404,17.621
			c3.077,9.334,11.497,18.61,20.971,21.71c9.516,3.114,20.23-0.398,27.137-7.346c7.641-7.688,9.318-19.396,10.758-29.627
			c1.573-11.175,2.016-22.582,3.069-33.79c1.225-13.049,3.484-26.122,3.316-39.234c-0.081-6.285,0.632-12.592,0.67-18.896
			c0.036-5.896-0.053-11.739,0.467-17.567c4.807-0.417,9.533-0.424,14.392-0.391c4.045,0.029,8.071,0.059,12.092,0.112
			c-0.477,3.668-1.083,7.308-1.468,11.001c-0.609,5.843-0.814,11.533-1.1,17.418c-0.546,11.208-1.962,22.419-2.316,33.602
			c-0.37,11.693,0.277,23.54,0.268,35.254c-0.008,10.42-0.001,20.599,3.792,30.43c6.695,17.354,34.105,28.509,47.234,12.065
			c6.056-7.586,7.912-19.004,9.285-28.348c1.651-11.236,0.934-23.02,1.005-34.389c0.161-25.887,1.393-51.747,1.483-77.649
			c0.675-0.085,1.351-0.162,2.025-0.254c-0.006-0.07-0.005-0.141-0.014-0.21c6.662-1.12,13.201-2.717,19.487-4.924
			c19.828-6.962,22.877-31.223,24.995-49.355c2.815-24.093-0.356-48.544-0.339-72.678c0.003-5.317-0.718-10.489-0.656-15.837
			c0.057-4.863-0.725-9.653-0.674-14.526c0.057-5.466-0.489-11.253-1.109-16.682c-0.288-2.517,0.026-4.881-0.026-7.386
			c-0.045-2.224-0.829-4.221-0.967-6.405c-0.023-0.377-0.092-0.756-0.181-1.135c5.087-4.133,7.836-9.606,8.995-17.163
			c1.922-12.535,2.044-24.699,1.967-37.33C388.489,113.57,388.634,107.523,388.57,101.477z M239.175,392.589
			c-0.352,4.926-0.031,9.806-0.313,14.714c-0.287,5.008-0.958,10.12-1.399,15.122c-0.881,9.963-1.856,20.008-2.974,29.911
			c-1.136,10.069-1.122,20.141-3.291,30.103c-2.036,9.349-7.63,19.16-18.37,19.188c-9.512,0.026-18.426-9.602-19.763-18.707
			c-0.681-4.642-0.924-9.323-1.439-13.976c-0.57-5.15-1.484-10.144-1.434-15.362c0.097-10.235,0.216-20.399,0.624-30.602
			c0.459-11.458,0.489-22.944,0.721-34.371c0.061-3.025,0.851-5.968,1.046-8.985c0.185-2.864-0.283-5.672-0.449-8.523
			c-0.147-2.542,0.097-4.898,0.108-7.274c3.777,0.217,7.55,0.358,11.24,0.625c10.159,0.733,19.957-0.014,30.109-0.297
			c2.011-0.056,3.992,0.099,5.966,0.266C238.869,373.76,239.845,383.207,239.175,392.589z M323.429,424.006
			c-1.145,10.724-0.022,22.113,0.046,32.909c0.059,9.4-0.289,18.651-2.686,27.768c-1.093,4.156-1.935,8.593-4.336,12.294
			c-2.593,3.997-7.125,5.427-11.786,5.47c-4.645,0.042-9.046-2.764-12.634-5.399c-3.726-2.736-6.279-6.703-7.749-10.911
			c-3.155-9.025-2.583-18.77-2.591-28.262c-0.009-10.535-0.685-21.222-0.325-31.738c0.385-11.205,1.87-22.346,2.094-33.602
			c0.111-5.624,0.286-11.082,0.578-16.676c0.233-4.46,0.961-8.504,0.752-12.874c7.048-0.718,14.823,0.638,21.08,1.243
			c6.186,0.599,12.421,0.625,18.648,0.256c-0.006,4.38-0.021,8.761,0.043,13.141c0.07,4.736-0.699,9.32-0.674,14.057
			C323.95,402.383,324.565,413.375,323.429,424.006z M369.334,314.622c-0.76,4.833-1.777,9.602-3.083,14.318
			c-1.084,3.917-2.039,8.591-4.131,12.119c-4.528,7.639-16.952,10.185-24.97,11.669c-9.974,1.847-19.791,2.515-29.916,2.563
			c-9.323,0.044-18.493-0.647-27.817-0.628c-9.896,0.02-20.138-0.814-29.976,0.279c-4.696,0.522-8.869-0.399-13.513-0.532
			c-5.252-0.151-10.462,0.58-15.702,0.62c-9.587,0.074-19.012-1.085-28.529-2.109c-8.644-0.93-17.301-2.007-25.385-5.552
			c-9.087-3.985-13.932-10.033-16.243-19.575c-2.431-10.036-1.366-20.983-1.433-31.242c-0.061-9.291-1.133-18.439-0.86-27.7
			c0.346-11.707-0.078-23.473-0.133-35.185c-0.05-10.485,0.574-20.863,1.077-31.314c0.272-5.659-0.764-11.196-0.881-16.846
			c-0.111-5.379-0.47-10.528-1.026-15.854c-0.515-4.923-1.002-9.715-1.635-14.623c-0.283-2.2-0.406-4.394-0.486-6.583
			c0.751,0.504,1.566,0.974,2.428,1.358c4.89,2.788,10.396,4.055,16.708,2.945c10.834-1.907,19.137-8.514,24.998-17.627
			c2.69-4.181,5.304-8.14,6.844-12.921c1.803-5.598,2.323-11.527,5.001-16.854c1.761-3.502,4.474-8.365,8.075-9.952
			c5.597-2.465,8.452,2.778,8.592,7.655c0.297,10.327-4.967,20.521-8.274,30.028c-0.224,0.645-0.429,1.29-0.63,1.936
			c-8.492,1.667-15.583,9.006-17.988,17.263c-0.834,2.862-1.361,5.698-1.688,8.525c-0.57,3.294-0.925,6.606-1.332,10.013
			c-0.72,6.029,0.271,11.664,0.32,17.615c0.046,5.76,0.412,11.503,0.803,17.249c-0.656,19.603-2.024,39.232,0.241,58.781
			c1.404,12.114,2.672,24.223,5.761,36.082c2.437,9.357,7.485,21.379,17.875,23.977c10.439,2.611,23.05-3.083,28.174-12.463
			c3.755-6.874,5.029-15.816,5.642-24.297c0.537-4.113,0.888-8.311,1.237-12.628c1.217-15.068,1.103-30.182,1.188-45.303
			c0.021-3.699-0.233-7.428-0.572-11.14c-0.082-8.516-0.366-17.02-0.348-25.58c0-0.035-0.008-0.063-0.009-0.097
			c3.955-6.834,5.731-14.846,7.057-22.809c1.089-6.534,1.431-13.278,2.051-19.873c0.581-6.177,1.167-12.63,0.946-18.825
			c-0.175-4.897,2.323-13.046,8.588-13.356c2.951-0.146,6.077,2.905,8.23,4.621c2.967,2.364,3.6,5.334,4.128,8.966
			c0.619,4.247,0.954,8.497,1.128,12.748c-15.393,2.83-16.128,30.872-16.61,42.609c-0.289,7.037-0.458,14.076-0.596,21.114
			c-0.073,2.648-0.121,5.297-0.148,7.948c-0.19,10.751-0.374,21.499-0.849,32.24c-0.416,9.43-0.63,18.643,0.074,28.078
			c0.649,8.704,0.316,17.799,2.315,26.334c2.119,9.05,5.878,16.852,13.307,22.714c6.929,5.467,15.249,6.871,23.853,6.762
			c8.666-0.11,16.636-2.45,22.134-9.651c5.356-7.019,5.212-18.224,4.083-26.253c2.098-2.286,4.072-4.692,5.419-7.371
			c4.89-9.726,3.618-21.571,4.447-32.104c2.045-25.984-4.946-51.622-3.909-77.549c0.261-6.522,0.82-13.092,1.613-19.573
			c0.676-5.528,2.439-10.683,7.242-14.033c0.147-0.102,1.745-0.802,2.176-1.199c0.094,0.153,0.23,0.361,0.344,0.601
			c0.694,1.448,0.747,3.391,0.991,4.976c0.875,5.668,1.523,11.273,3.341,16.744c2.908,8.751,8.881,14.706,17.478,12.843
			c0.214,1.749,0.4,3.486,0.35,5.377c-0.126,4.773,0.304,10.063,0.893,14.805c1.012,8.15,1.151,16.722,1.053,24.944
			c-0.052,4.342,0.813,8.533,0.769,12.886c-0.05,5.018,0.289,9.92,0.575,14.924c0.562,9.829,0.718,19.68,0.729,29.521
			C370.961,293.07,371.034,303.816,369.334,314.622z M241.125,256.194c-0.009,10.741-0.62,21.58-1.545,32.291
			c-0.953,11.033-2.909,22.951-14.058,28c-24.767,11.218-28.023-32.152-29.569-47.09c-0.511-4.94-0.897-9.888-1.2-14.842
			c0.16-5.997,0.512-12.006-0.122-17.953c-0.453-4.263-0.574-8.464-0.713-12.721c0.008-6.236,0.093-12.472,0.238-18.704
			c0.153-6.551,0.336-13.14,0.064-19.701c-0.238-5.705-1.141-11.286-0.902-17.017c0.451-10.82,3.268-22.97,13.666-27.828
			c-2.139,9.926-2.033,19.977-1.834,30.318c0.185,9.595,2.597,21.695,9.56,28.726c7.587,7.661,17.399,9.187,25.84,2.05
			c0.471,7.827,1.239,15.642,0.705,23.486C240.556,235.481,241.134,245.9,241.125,256.194z M277.488,250.865
			c1.494,11.306,3.512,24.476,10.303,33.973c5.58,7.803,12.197,16.268,21.749,18.976c3.989,1.128,7.932,1.528,11.226-0.729
			c0.002,4.437-0.529,9.524-2.199,12.857c-3.725,7.431-11.775,8.729-19.195,8.756c-8.09,0.031-15.235-2.36-20.778-8.456
			c-5.518-6.069-7.391-14.06-8.241-22.055c-3.276-30.827-0.075-61.629-0.112-92.531c-0.012-9.487,0.09-18.887,1.453-28.282
			c0.562-3.878,1.228-7.735,2.458-11.474c1.33-4.046,3.255-6.637,5.866-8.962c-0.023,5.535-0.231,11.079-0.46,16.636
			c-0.577,14.001-2.188,27.903-3.731,41.821C274.41,224.177,275.806,238.142,277.488,250.865z M378.836,137.641
			c-0.348,5.837-0.955,11.761-1.883,17.534c-0.682,4.248-1.353,8.384-4.989,11.12c-3.428,2.58-9.241,6.234-11.821,1.198
			c-2.358-4.605-3.035-10.32-3.693-15.353c-0.889-6.811-1.381-17.076-10.114-18.202c-9.054-1.167-18.058,8.977-20.467,16.831
			c-1.325,4.321-1.56,9.1-2.006,13.575c-0.683,6.868-1.302,13.759-1.295,20.666c0.012,11.717,1.33,23.757,2.709,35.39
			c1.426,12.021,2.17,24.41,1.199,36.498c-0.451,5.611-0.532,11.197-0.866,16.806c-0.282,4.729-1.295,9.698-4.475,13.371
			c-1.035,1.195-2.208,2.229-3.331,3.321c-1.889,1.018-3.979,1.683-6.002,1.964c-0.622,0.087-1.213,0.111-1.776,0.086
			c-3.442-1.659-5.808-4.495-8.365-7.562c-3.028-3.634-6.238-7.03-8.033-11.489c-2.124-5.276-3.399-11.059-4.494-16.621
			c-2.359-11.992-3.313-24.856-3.51-37.077c-0.211-13.078,2.315-26.333,3.087-39.399c0.364-6.168,0.572-12.341,0.596-18.52
			c0.023-6.059,0.626-12.246-0.042-18.278c-1.063-9.598-1.718-21.275-10.272-27.211c-3.323-2.306-6.91-4.964-11.09-5.269
			c-4.809-0.35-9.38,2.273-12.498,5.791c-2.553,2.88-4.651,6.687-5.236,10.5c-0.376,2.451-0.067,4.929-0.262,7.393
			c-0.261,3.311-0.944,6.646-1.333,9.952c-1.47,12.454-2.488,25.117-6.408,37.1c-1.687,5.154-4.487,9.894-9.081,12.998
			c-4.729,3.195-8.717,0.674-12.069-3.253c-3.139-3.677-3.878-9.239-4.849-13.839c-1.222-5.789-0.716-11.736-0.745-17.622
			c-0.03-6.051-0.234-11.799,1.257-17.722c1.407-5.589,3.563-10.95,5.467-16.378c2.881-8.206,5.865-17.687,4.6-26.495
			c-1.198-8.338-8.645-16.81-17.765-15.128c-9.374,1.73-15.384,8.98-19.051,17.412c-2.021,4.645-3.119,9.476-4.244,14.392
			c-1.231,5.374-3.766,10.251-6.5,15.012c-5.016,8.733-16.567,16.552-26.836,11.863c-9.541-4.356-14.924-15.546-16.714-25.265
			c-1.05-5.706-0.552-12.04-0.601-17.833c-0.057-6.735,0.306-13.352,1.979-19.901c2.861-11.205,7.102-22.355,14.827-31.034
			c3.695-4.152,7.608-8.154,11.816-11.799c4.504-2.81,9.706-5.05,14.602-7.021c5.027-2.023,9.487-4.582,14.324-6.94
			c5.021-2.449,10.618-3.965,15.832-5.983c2.64-1.023,5.127-2.534,7.868-3.236c3.008-0.771,6.175-0.822,9.224-1.382
			c5.339-0.981,10.673-1.287,16.057-1.996c6.498-0.857,13.28,0.006,19.832,0.028c12.107,0.041,23.955,0.662,35.859,2.668
			c5.444,0.917,10.928,0.233,16.407,1.22c6.374,1.149,12.571,3.07,18.799,4.809c10.785,3.013,22.087,7.903,29.547,16.56
			c7.219,8.376,10.615,19.04,12.48,29.76c1.05,6.041,1.55,11.894,2.071,17.978c0.514,6.01,2.052,11.79,2.115,17.85
			C378.795,113.43,379.546,125.719,378.836,137.641z"/>
	</g>
</g>
<g>
</g>
<g>
</g>
<g>
</g>
<g>
</g>
<g>
</g>
<g>
</g>
<g>
</g>
<g>
</g>
<g>
</g>
<g>
</g>
<g>
</g>
<g>
</g>
<g>
</g>
<g>
</g>
<g>
</g>
</svg>
