<?xml version="1.0" encoding="iso-8859-1"?>
<!-- Generator: Adobe Illustrator 16.0.0, SVG Export Plug-In . SVG Version: 6.00 Build 0)  -->
<!DOCTYPE svg PUBLIC "-//W3C//DTD SVG 1.1//EN" "http://www.w3.org/Graphics/SVG/1.1/DTD/svg11.dtd">
<svg version="1.1" id="Capa_1" xmlns="http://www.w3.org/2000/svg" xmlns:xlink="http://www.w3.org/1999/xlink" x="0px" y="0px"
	 width="194.133px" height="194.132px" viewBox="0 0 194.133 194.132" style="enable-background:new 0 0 194.133 194.132;"
	 xml:space="preserve">
<g>
	<path d="M186.688,50.972c-12.801-23.923-42.501-33.121-67.833-33.274c-30.896-0.186-60.538,15.1-75.058,42.661
		c-6.789,12.886-8.678,27.217-10.256,41.454c-1.624,14.653-3.828,32.44-18.097,38.488c-0.8,0.021-1.568,0.069-2.444,0.018
		c-0.999-0.06-1.661,0.57-1.957,1.361c-0.434,0.096-0.832,0.229-1.285,0.307c-0.849,0.146-1.412,0.567-1.774,1.105
		c-5.074,1.928-7.394,9.653-7.915,15.475c-1.068,11.914,10.342,16.821,19.968,17.663c17.1,1.496,34.494-5.649,51.699-5.728
		c13.413-0.062,26.688,1.256,40.083-0.126c5.634-0.581,11.188-1.664,16.753-2.466c5.525-0.21,11.051-0.448,16.575-0.712
		c0.908,0.088,1.814,0.146,2.728,0.294c2.58,0.415,4.546-1,5.468-2.852c0.682-0.137,1.331-0.415,1.838-1.015
		c3.847-4.555,0.784-13.86-0.269-19.164c-0.184-0.921-0.426-1.818-0.706-2.694c3.274-0.989,4.092-6.508-0.04-7.6
		c-1.988-0.525-3.984-0.764-5.984-0.826c-1.617-1.036-3.495-1.75-5.735-1.93c-9.332-0.748-21.239,6.133-29.627,0.902
		c-5.329-3.322-6.438-9.605-3.688-14.846c1.953-3.721,5.801-4.47,9.635-4.951c3.431,3.896,9.176-1.179,6.941-5.456
		c-2.187-4.184-3.521-5.426,1.751-5.806c3.616-0.261,7.299,0.213,10.838,0.914c10.619,2.104,17.501,14.232,24.706,21.769
		c0.103,3.551,3.742,6.98,7.672,4.562C196.084,112.865,199.908,75.68,186.688,50.972z M139.917,141.478
		c2.455,0.322,3.841,1.483,4.613,3.145c0.438,4.359,0.075,8.574-0.99,12.661c-7.777-0.5-15.448,0.74-23.288,2.022
		c-0.644,0.105-1.283,0.165-1.925,0.26c-35.352,1.03-70.73,1.038-106.097,1.21c-0.368-3.422-0.411-7.047,1.186-9.926
		c0.574-1.033,0.514-1.986,0.138-2.766c4.501-0.247,8.293-1.54,11.505-3.588c8.672-2.398,13.49-10.202,15.797-21.568
		c4.793-23.615,8.584-49.681,24.74-68.684c17.184-20.212,54.532-28.07,79.185-20.951c17.226,4.974,28.016,22.051,31.278,40.562
		c-5.046-2.957-11.184-3.55-17.183-1.143c-5.524-10.831-19.617-12.222-26.939-1.913c-3.199-3.09-8.23-4.964-11.961-4.899
		c-5.713,0.101-10.05,3.89-12.196,8.767c-1.59-1.156-3.383-2.052-4.998-2.619c-4.236-1.486-9.031-0.043-12.362,2.731
		c-4.934,4.11-6.55,11.257-4.292,16.947c-1.003,0.279-1.995,0.62-2.944,1.055c-6.04,0.022-12.373,2.693-16.129,6.974
		c-5.253,5.986-5.504,14.474-3.648,21.828c3.499,13.862,20.399,29.098,34.286,18.56c0.239-0.035,0.472-0.045,0.711-0.087
		C109.456,151.993,125.208,143.583,139.917,141.478z M170.667,112.621c-5.251-12.169-17.982-20.87-29.931-25.657
		c-7.424-2.975-15.522-3.105-22.718,0.345c-2.758,1.323-4.668,4.004-6.37,6.409c-3.608,5.102-0.486,4.903-6.937,6.169
		c-17.097,3.354-17.357,21.967-10.229,34.691c0.134,0.238,0.274,0.452,0.41,0.68c-0.887,0.137-1.755,0.229-2.597,0.264
		c-8.627-2.496-14.607-9.401-15.085-19.638c-0.22-4.725,1.063-9.705,3.903-13.54c3.12-0.426,6.504-0.268,9.184-1.029
		c1.516-0.431,2.395-1.765,2.574-3.173c0.453-0.062,0.865-0.251,1.239-0.515c0.305-0.051,0.605-0.077,0.915-0.151
		c2.345-0.556,2.197-3.386,0.602-4.603c-0.088-0.067-0.183-0.113-0.274-0.172c-0.132-0.285-0.249-0.568-0.365-0.851
		c0.603-0.303,1.053-0.937,0.863-1.735c-0.397-1.665-1.955-7.096,0.983-7.433c1.894-0.217,3.819,0.393,5.592,0.971
		c0.639,0.208,1.278,0.487,1.92,0.782c1.047,0.924,2.036,1.482,3.869,1.598c0.081,0.005,0.161-0.033,0.243-0.035
		c0.565,0.109,1.138,0.164,1.719,0.103c0.562-0.059,1.078-0.3,1.492-0.641c0.016,0.184,0.034,0.373,0.048,0.548
		c0.059,0.754,1.292,1.044,1.414,0.191c0.435-3.049,2.004-6.779,3.981-9.22c2.79-3.443,9.747,5.242,11.115,6.798
		c1.118,1.272,3.456,1.255,4.577,0c3.299-3.692,7.742-9.096,13.352-8.17c3.5,0.578,5.124,5.401,7.398,7.701
		c0.669,0.676,1.628,0.822,2.485,0.602c0.214,1.296,1.739,2.317,2.808,1.051c3.04-3.601,6.709-4.369,10.018-0.787
		c1.767,1.911,2.607,4.543,3.163,7.019c0.745,3.316-0.427,6.806,1.151,9.855c0.338,0.653,1.007,1.052,1.731,1.264
		C173.871,105.967,172.462,109.439,170.667,112.621z"/>
</g>
<g>
</g>
<g>
</g>
<g>
</g>
<g>
</g>
<g>
</g>
<g>
</g>
<g>
</g>
<g>
</g>
<g>
</g>
<g>
</g>
<g>
</g>
<g>
</g>
<g>
</g>
<g>
</g>
<g>
</g>
</svg>
