<?xml version="1.0" ?><svg id="Layer_1" style="enable-background:new 0 0 52 52;" version="1.1" viewBox="0 0 52 52" xml:space="preserve" xmlns="http://www.w3.org/2000/svg" xmlns:xlink="http://www.w3.org/1999/xlink"><style type="text/css">
	.st0{fill:#231F20;}
</style><g><g><path class="st0" d="M4.3021789,25.4540329c6.4390559-0.0000935,12.8781109-0.0001869,19.3171673-0.0002804    c3.9268703-0.0000572,6.626276,0.7512684,6.6608334,5.2470055c0.0227814,2.9637852-0.0129261,5.9296017-0.0211658,8.8934574    c-0.0060501,2.1760483,0.5568047,3.5065536-2.4099426,4.453289c-0.9772263,0.3118515-2.6261253-0.0034332-3.6597729-0.0047874    c-3.0490112-0.0039902-6.1006737-0.0443115-9.1494312-0.0119743c-4.8127861,0.0510483-5.3958521,2.4759331-9.2766476,5.1401215    c0.5642695,0.3238029,1.1285396,0.6476021,1.6928091,0.971405c-0.0298648-3.4760323,0.4990373-4.1969109-1.9318881-5.9593849    c-1.8893297-1.3698082-1.5943978-1.1062889-2.013876-3.4062767c-0.2622135-1.4377098-0.0008683-3.1334-0.0012712-4.5869675    c-0.0002618-0.9448128-0.201479-10.7192726,0.5075927-10.6701603c1.4451551,0.1000957,1.4389262-2.1503353,0-2.25    c-1.8700943-0.129528-2.392859,0.8276787-2.7202034,2.5297565c-0.7270602,3.7804623-0.0379498,8.3676567-0.0368807,12.2251892    c0.0005463,1.9709129-0.7573656,5.6190033,0.6842191,7.3348351c0.8351719,0.9940567,1.3784959,0.3710098,2.1169362,1.0833435    c1.2998142,1.2538567,1.1290169,1.7961121,1.1453714,3.6996651c0.0068998,0.8031082,0.9690337,1.4682808,1.6928091,0.971405    c1.2651367-0.8685226,2.3336296-1.9705391,3.5670042-2.8520813c2.1132011-1.5103912,3.7276869-1.811657,6.4039106-1.9784546    c3.905098-0.2433891,8.3634968,0.7293701,12.2049637-0.0527267c4.8559246-0.9886322,3.4333668-6.3016052,3.4441738-10.1890259    c0.0096207-3.4593964,1.8243866-11.6882-2.8053226-12.797533c-3.5440865-0.8492031-8.2756138-0.0400696-11.8893719-0.0400162    c-4.5073385,0.0000668-9.014678,0.0001316-13.5220165,0.0001965C2.8544121,23.2040558,2.8520122,25.4540558,4.3021789,25.4540329    L4.3021789,25.4540329z"/></g><g><path class="st0" d="M7.0524726,31.5924358c6.2777438,0.0340099,12.5554867,0.0680199,18.833231,0.1020317    c1.4480629,0.0078449,1.4497833-2.2421455,0-2.25c-6.2777443-0.0340118-12.5554876-0.0680218-18.833231-0.1020317    C5.6044092,29.3345909,5.6026883,31.5845814,7.0524726,31.5924358L7.0524726,31.5924358z"/></g><g><path class="st0" d="M6.8857131,35.9344978c6.6389117,0.0205345,13.2778225,0.041069,19.9167328,0.0616074    c1.4479485,0.0044785,1.4499588-2.2455177,0-2.25c-6.6389103-0.0205383-13.2778215-0.0410728-19.9167328-0.0616074    C5.4377666,33.6800194,5.4357553,35.9300117,6.8857131,35.9344978L6.8857131,35.9344978z"/></g><g><path class="st0" d="M7.2191076,40.8138695c6.3333282-0.0287895,12.6666574-0.057579,18.9999847-0.0863724    c1.4474545-0.0065765,1.4504204-2.2565918,0-2.25c-6.3333282,0.0287933-12.6666574,0.0575829-18.9999847,0.0863724    C5.7716532,38.5704498,5.7686872,40.8204651,7.2191076,40.8138695L7.2191076,40.8138695z"/></g><g><path class="st0" d="M29.1361885,3.3114245c4.2489357-0.0199273,8.4978752-0.0398548,12.7468109-0.0597823    c1.9067497-0.0089426,4.8042412-0.690836,6.17173,0.7179124c1.3340797,1.3743289,0.7075348,4.0882444,0.7068253,5.9422054    c-0.0006638,1.730258,0.047924,3.4687901-0.0019875,5.1986723c0.078537,0.9265738,0.0312691,1.8444681-0.1418037,2.7536821    c-0.4764175-0.0219936-0.9216805,0.0676746-1.3357925,0.2690048c-1.95438,2.0403824-0.8671608,2.0046768-1.6115341,5.4967384    c0.5508766-0.2241135,1.1017494-0.448225,1.6526222-0.6723366c-1.6572685-1.2215137-2.2064743-3.5690937-3.9078445-4.6014118    c-1.6590118-1.0066185-4.3454094-0.4969578-6.1321793-0.4907703c-2.7449379,0.0095062-8.2802448,1.1314526-9.6498165-2.0716877    c-0.7108517-1.6625357-0.3502026-12.4031,1.7512379-12.5141439c1.4404507-0.0761154,1.4494267-2.3265896,0-2.25    c-2.5298271,0.1336797-3.8011436,0.9115767-4.0631428,3.5439534c-0.2733917,2.7468362,0.0311966,5.6541557,0.0464287,8.415143    c0.0090866,1.6468897-0.3320179,3.6876173,0.5098228,5.2139978c1.4815159,2.686203,5.1361485,1.9344482,7.7343197,1.9254513    c3.3814926-0.0117111,7.0429306-0.8515167,9.6357193,1.6737804c1.0585747,1.0310211,1.6819496,2.1713524,2.9398384,3.0984974    c0.5704155,0.420435,1.5120049-0.0126648,1.6526222-0.6723347c0.1676254-0.7863827,0.1336632-2.1758709,0.4051819-2.8957672    c0.4871864-1.2917175,0.3934212-1.0758648,1.9370613-1.6712017c0.4692688-0.1809826,0.8257294-0.5542583,0.8259315-1.0848141    c0.001545-4.0420227,0.0604401-8.0885201,0.0046425-12.1302357c-0.0223999-1.6223054,0.2890053-3.6636877-1.1572914-4.8356924    c-1.9124069-1.5497135-5.8338127-0.6186748-7.9725914-0.6086439c-4.2489357,0.0199274-8.4978752,0.0398549-12.7468109,0.0597824    C27.6887455,1.0682131,27.6857624,3.3182271,29.1361885,3.3114245L29.1361885,3.3114245z"/></g><g><path class="st0" d="M36.5987167,8.1623554c-0.0385132-1.2022524,1.2567253-1.6556039,1.9494209-0.6564903    c0.382328,0.5514507-0.0217094,1.2228012-0.3499107,1.7530508c-0.6974678,1.1268396-0.9143944,2.127017-1.1183052,3.4419546    c-0.2196655,1.4165354,1.9480629,2.0269194,2.1696281,0.5981398c0.1195679-0.7710295,0.1536446-1.6278954,0.5089417-2.3258429    c0.3410263-0.66992,0.8077278-1.2109003,1.032505-1.9481735c0.3713913-1.2181845,0.2401886-2.1941195-0.6518669-3.1101189    c-0.9476433-0.9730806-2.2842331-1.6598883-3.631134-1.1099401c-1.3761902,0.5619068-2.2056274,1.9105215-2.1592789,3.3574204    C34.3949852,9.6066427,36.6451874,9.6130381,36.5987167,8.1623554L36.5987167,8.1623554z"/></g><g><path class="st0" d="M37.5523186,16.6205845c1.4477692,0,1.4501686-2.249999,0-2.249999    C36.1045532,14.3705854,36.1021538,16.6205845,37.5523186,16.6205845L37.5523186,16.6205845z"/></g></g></svg>