<?xml version="1.0" ?><svg id="Layer_1" style="enable-background:new 0 0 52 52;" version="1.1" viewBox="0 0 52 52" xml:space="preserve" xmlns="http://www.w3.org/2000/svg" xmlns:xlink="http://www.w3.org/1999/xlink"><style type="text/css">
	.st0{fill:#231F20;}
</style><g><g><path class="st0" d="M11.852932,2.8217931c6.2921524-0.0018454,12.5843048-0.0036907,18.8764553-0.0055358    c2.1878071-0.0006416,7.0365772-1.0214487,8.9414806-0.0026224c2.362545,1.2635956,1.3666077,6.3617458,1.3688164,8.6557341    c0.0060501,6.2813902,0.0120964,12.5627813,0.0181465,18.8441734c0.0028648,2.9753952,0.0057297,5.9507904,0.0085945,8.9261894    c0.0018997,1.9746361,0.8412285,8.1089516-0.5643806,9.4600449c-1.4496727,1.3934441-6.1984634,0.5348969-8.1329994,0.5352554    c-2.8350124,0.0005226-5.670023,0.0010452-8.5050335,0.0015717c-2.6500702,0.0004883-5.8813057,0.4633675-8.5050316,0.0015717    c-1.5950251,0.5038109-2.6541243-0.066452-3.1773005-1.7107887c-1.053319-0.6891937-1.4833946-1.5876808-1.2902279-2.6954613    c-0.3252726-1.5092392-0.0100079-3.356308-0.0146761-4.9216156c-0.0176105-5.905941-0.0352221-11.8118839-0.0528336-17.7178249    c-0.0056181-1.884016-0.2490358-19.2744083,0.6710615-19.1463089c1.41611,0.197155,2.028388-1.9705043,0.5981388-2.1696279    C6.7666159,0.1349714,8.532403,8.262373,8.5416555,11.3649254c0.0283737,9.5151272,0.0567474,19.0302544,0.0851202,28.5453835    c0.0121508,4.07481-1.3402429,10.2749825,3.7365055,11.5302544c3.6712856,0.9077606,8.7014675,0.0465546,12.445734,0.0458641    c4.4080849-0.0008163,8.822794,0.0682793,13.230051-0.0024452c6.428318-0.103157,5.2858505-3.424839,5.2802238-9.268856    c-0.0089149-9.2567863-0.0178261-18.5135746-0.026741-27.7703629c-0.0034866-3.6216965,2.1095505-12.4910269-2.7549934-13.8348083    c-3.7038765-1.0231587-8.9198666-0.043959-12.78866-0.0428244c-5.2986546,0.001554-10.5973091,0.0031079-15.8959637,0.0046619    C10.4051828,0.5722176,10.4027481,2.8222184,11.852932,2.8217931L11.852932,2.8217931z"/></g><g><path class="st0" d="M9.8527575,10.7090816c10.6111841-0.0283928,21.2223663-0.0567856,31.8335533-0.0851784    c1.4475899-0.0038729,1.4503212-2.2538805,0-2.25C31.0751247,8.4022961,20.4639416,8.4306889,9.8527575,8.4590816    C8.4051666,8.4629555,8.4024343,10.7129631,9.8527575,10.7090816L9.8527575,10.7090816z"/></g><g><path class="st0" d="M10.1858692,42.0493279c10.3336296-0.0517082,20.6672611-0.1034126,31.0008907-0.155117    c1.4474182-0.0072441,1.4504433-2.2572594,0-2.25c-10.3336296,0.0517044-20.6672611,0.1034088-31.0008907,0.155117    C8.7384501,39.8065681,8.7354259,42.0565834,10.1858692,42.0493279L10.1858692,42.0493279z"/></g><g><path class="st0" d="M25.8530521,6.9858088c1.4477673,0,1.4501648-2.25,0-2.25    C24.4052849,4.7358088,24.4028854,6.9858088,25.8530521,6.9858088L25.8530521,6.9858088z"/></g><g><path class="st0" d="M24.7697182,46.1733093c0.7708263,0,1.5416508,0,2.3124771,0c1.4477673,0,1.4501648-2.25,0-2.25    c-0.7708263,0-1.5416508,0-2.3124771,0C23.3219509,43.9233093,23.3195534,46.1733093,24.7697182,46.1733093L24.7697182,46.1733093    z"/></g><g><path class="st0" d="M23.0980015,29.1367435c0.5701866-1.023201,1.6173916-1.285284,2.7470512-1.232563    c1.0787926,0.0503483,1.609869,0.6754055,2.4258823,1.3321762c1.1177444,0.899622,2.7195511-0.682663,1.5909901-1.5909901    c-1.5236359-1.2263031-2.474474-2.0788002-4.533123-1.9931622c-1.7338791,0.0721264-3.3091526,0.7976532-4.1736088,2.3489208    C20.4496498,29.2672215,22.3922844,30.4031544,23.0980015,29.1367435L23.0980015,29.1367435z"/></g><g><path class="st0" d="M20.6922207,26.5990982c1.1709862-2.5170269,3.4615097-2.65839,5.9412708-2.6381416    c2.0445824,0.016695,4.4637165,0.0433273,5.8304672,1.7933121c0.890377,1.1400318,2.472477-0.4623413,1.590992-1.5909901    c-1.9222794-2.4612808-5.4751835-2.494503-8.3376217-2.4434319c-3.0632973,0.0546532-5.5875301,0.7765007-6.9679184,3.7436333    C18.1424541,26.7681293,20.0813503,27.9121609,20.6922207,26.5990982L20.6922207,26.5990982z"/></g><g><path class="st0" d="M18.3910713,23.414814c2.0950317-2.1806507,3.9453049-4.3677959,7.2904301-4.2518196    c2.3275585,0.080698,6.1543961,2.3594818,8.0071926,3.9654713c1.0894623,0.9443378,2.687561-0.6404934,1.590992-1.5909901    c-1.3085518-1.1342411-2.8842125-1.8953323-4.3357792-2.8256645c-1.7708092-1.134943-3.0964508-1.7562809-5.2624054-1.7988167    c-4.0106201-0.0787621-6.2686138,2.1912441-8.8814201,4.9108295    C15.7966776,22.8682327,17.3855247,24.4614544,18.3910713,23.414814L18.3910713,23.414814z"/></g></g></svg>