<?xml version="1.0" ?><svg id="Layer_1" style="enable-background:new 0 0 52 52;" version="1.1" viewBox="0 0 52 52" xml:space="preserve" xmlns="http://www.w3.org/2000/svg" xmlns:xlink="http://www.w3.org/1999/xlink"><style type="text/css">
	.st0{fill:#231F20;}
</style><g><g><path class="st0" d="M47.948452,19.7580757c1.3772507,5.3058987,1.5142365,11.9513798-0.3349876,17.1677513    c-2.6302338,7.4194832-8.4243202,7.8660545-14.8676147,10.1495056    C22.2890873,50.7811279,9.872901,44.8382416,4.6454759,35.2767868c-2.9412525-5.3798294-1.7498307-13.9589005-0.558475-19.7656155    C5.4690151,8.7751808,11.7686043,4.6533427,18.2630596,4.1199884c5.8938484-0.48403,12.0944214-0.5166793,17.868681,0.8594565    c7.3632469,1.7548256,9.9957657,8.5820065,11.3655624,15.4008904c0.2849503,1.4184761,2.4541245,0.8180809,2.1696281-0.5981388    c-1.1504326-5.7268734-3.4720573-13.126317-9.2016029-15.7923565c-7.1072693-3.3071136-17.2549095-2.9558284-24.8150463-1.9120529    C10.8464985,2.7410119,5.303174,6.6665282,3.0705171,11.0144358c-1.8149902,3.5345383-2.0289998,8.5958185-2.210773,12.4978056    c-0.170615,3.6624603-0.3879462,7.9635029,0.9355096,11.4620018c2.1584446,5.7057571,7.3581018,9.4381561,12.4481268,12.1820183    c5.8258333,3.1405182,12.048213,4.7279243,18.4732475,2.3529472c6.6867218-2.4717102,12.5967064-2.6863213,16.1060295-9.7237625    c3.0355377-6.0873299,2.9734039-14.1610317,1.2954216-20.6255093    C49.7545662,17.7594948,47.5837936,18.3532124,47.948452,19.7580757L47.948452,19.7580757z"/></g><g><path class="st0" d="M1.9565133,25.6605625c15.6691294-0.3027592,31.3379631-0.2157192,47.0027657,0.2611027    c1.4483223,0.0440845,1.4469185-2.2059574,0-2.25c-15.6647987-0.4768219-31.3336334-0.5638618-47.0027657-0.2611027    C0.5104908,23.4385033,0.5056796,25.6885967,1.9565133,25.6605625L1.9565133,25.6605625z"/></g><g><path class="st0" d="M6.0800824,39.4085884c13.7985992,0.188015,27.5876694,0.6652641,41.3662529,1.4317169    c1.4467583,0.0804787,1.4422188-2.1697731,0-2.25c-13.7785797-0.7664528-27.5676498-1.2437019-41.3662529-1.4317169    C4.6317334,37.138855,4.6310387,39.3888435,6.0800824,39.4085884L6.0800824,39.4085884z"/></g><g><path class="st0" d="M4.0800962,12.9850292c14.4591246-0.1499071,28.9177399-0.091321,43.3751755,0.1757574    c1.4484253,0.0267572,1.448513-2.2232409,0-2.25c-14.4574356-0.2670784-28.91605-0.3256645-43.3751755-0.1757574    C2.6331308,10.7500315,2.6294374,13.0000696,4.0800962,12.9850292L4.0800962,12.9850292z"/></g><g><path class="st0" d="M30.1030121,3.4042728c3.3367348,7.0989552,3.3773041,15.4915972,3.6006203,23.2041721    c0.2059555,7.1129189,0.9332581,14.9154549-3.1733665,21.0893593c-0.8042049,1.2090454,1.1437244,2.3369637,1.9428101,1.1356201    c4.3992653-6.6138649,3.7013702-14.5988159,3.4805565-22.2249794c-0.2360992-8.1539955-0.380497-16.8353767-3.9078102-24.3397903    C31.4303207,0.9591722,29.489996,2.1000733,30.1030121,3.4042728L30.1030121,3.4042728z"/></g><g><path class="st0" d="M17.902298,3.3482797c-1.5594921,8.484148-3.1389599,17.3782082-3.1869469,26.0255928    c-0.0350695,6.3196735,0.7015448,14.3699741,4.9385319,19.3691082c0.9375095,1.1061516,2.5223389-0.4921074,1.5909901-1.5909882    c-4.4646187-5.2677155-4.5876312-14.6647797-4.1166553-21.1933632c0.532896-7.3869247,1.6054878-14.7318487,2.9437084-22.0122108    C20.332119,2.5308795,18.1641159,1.9238995,17.902298,3.3482797L17.902298,3.3482797z"/></g></g></svg>