<?xml version="1.0" ?><svg id="Layer_1" style="enable-background:new 0 0 52 52;" version="1.1" viewBox="0 0 52 52" xml:space="preserve" xmlns="http://www.w3.org/2000/svg" xmlns:xlink="http://www.w3.org/1999/xlink"><style type="text/css">
	.st0{fill:#231F20;}
</style><g><g><path class="st0" d="M7.1692104,18.8675919c10.6383495,0.0031662,21.276701,0.0063343,31.9150486,0.0095005    c3.946743,0.0011749,6.7895546-0.7918167,8.3554993,3.7948303c0.7064743,2.069252,0.3233376,5.2164173,0.4026909,7.4038067    c0.0896072,2.4699135,0.1345901,4.9419823,0.1348877,7.4135208c0.0001488,1.2356644-0.0086403,2.4719429-0.0330658,3.7073784    c-0.059742,3.0218506,0.1354523,2.9520302-2.5824471,5.3469429c-2.6653214,2.3485832-2.4904823,2.1908989-5.4317093,2.2040482    c-1.3090477,0.0058556-2.6180954,0.0117073-3.9271431,0.0175591c-2.6180954,0.0117073-5.2361889,0.0234108-7.8542843,0.0351181    c-5.2361908,0.0234108-10.4723816,0.0468216-15.7085714,0.0702324c-1.0454283,0.0046768-2.5613689,0.2965012-3.5650187,0.0046654    c-1.6419282-0.4774361-4.4545012-3.9653168-4.8153219-5.6519966c-0.4661705-2.179142,0.0911274-5.0443001,0.1021204-7.283989    c0.0127578-2.5994034-1.7449291-16.5394783,2.247232-16.8870201c1.431488-0.1246204,1.4446669-2.3757668,0-2.25    c-5.6194949,0.489212-4.6576328,6.4818459-4.5671024,10.6927109c0.094146,4.3790359,0.0753773,8.7561722,0.0134472,13.1355095    c-0.0307713,2.1759682-0.3496611,4.6267014,0.5059154,6.6952209c2.3099222,5.5846863,10.2544155,3.794117,14.9876575,3.772953    c8.6950111-0.0388756,17.6260223,0.5092697,26.2931709-0.1408386c4.997406-0.3748436,6.2661057-3.3150864,6.5103836-7.9078026    c0.2288704-4.3030701,0.0959053-8.6726875-0.0601501-12.9742126c-0.1184006-3.2635994,0.1687202-7.0514145-0.6863327-10.2119446    c-1.4754677-5.453764-10.0271988-3.2366047-14.3112373-3.2378807c-9.3085556-0.0027695-18.6171131-0.0055408-27.9256687-0.0083122    C5.7214246,16.6171608,5.7190638,18.8671608,7.1692104,18.8675919L7.1692104,18.8675919z"/></g><g><path class="st0" d="M38.2044907,25.7036762c-2.0643883,2.4297638-4.1973648,4.7881851-6.4616814,7.0342007    c-3.5484848,3.5198021-5.6113987,0.4806366-8.6021175-2.3129711c-0.4428768-0.4136868-1.1501923-0.4436932-1.5909901,0    c-3.0595188,3.0796299-6.2158642,6.0302715-9.4943886,8.8756237c-1.0955276,0.9507828,0.5015707,2.5364723,1.590991,1.590992    c3.2785234-2.845356,6.4348688-5.7959976,9.4943876-8.8756256c-0.5303288,0-1.0606594,0-1.5909901,0    c1.8565617,1.7341995,4.8357887,6.2190056,7.6210556,5.8579063c1.6036282-0.207901,3.0985298-2.4890289,4.163044-3.5449371    c2.2651062-2.2467995,4.3963318-4.6033058,6.4616814-7.0341988C40.7279053,26.197216,39.1437912,24.5981331,38.2044907,25.7036762    L38.2044907,25.7036762z"/></g><g><path class="st0" d="M27.2176018,3.1143477c0.4672642,0.4768455,0.5286694,1.6626298,0.196497,2.250613    c-0.4124832,0.730145-1.5614281,1.4332733-2.1131744,0.5725021c-0.1804428-0.2815056-0.2694168-0.6648111-0.3235188-0.9934978    c-0.0479755-0.2914634-0.2102757-1.3481765-0.0245934-1.6114571c0.2715569-0.3850412,1.7117023-0.6995299,1.9598122-0.2571712    c0.7083988,1.2630117,2.6526623,0.1299858,1.9428101-1.135618c-1.0084858-1.7980405-3.755043-1.584898-5.2273426-0.4597744    c-1.6026115,1.2247058-1.1002197,4.3861356-0.1027451,5.8562531c1.3633213,2.0093198,3.7449265,1.3729568,5.2312431-0.1210017    c1.4426727-1.4500904,1.5088921-4.2050734,0.052002-5.6918383C27.7934723,0.4874229,26.2029228,2.0788636,27.2176018,3.1143477    L27.2176018,3.1143477z"/></g><g><path class="st0" d="M27.8238239,7.2714815c4.2017078,3.4077091,8.4034176,6.8154173,12.6051273,10.2231264    c1.1149979,0.904295,2.7164154-0.6782379,1.590992-1.5909901C37.8182335,12.4959087,33.6165237,9.0881996,29.414814,5.680491    C28.2998161,4.7761955,26.6983986,6.3587289,27.8238239,7.2714815L27.8238239,7.2714815z"/></g><g><path class="st0" d="M23.092371,5.2410502c-4.609623,3.6129489-9.2192469,7.2258983-13.8288698,10.8388481    c-1.1386528,0.8924561,0.4635391,2.4746666,1.5909901,1.5909901c4.609623-3.6129494,9.2192469-7.2258987,13.8288698-10.8388481    C25.8220139,5.9395833,24.2198219,4.3573723,23.092371,5.2410502L23.092371,5.2410502z"/></g></g></svg>