<?xml version="1.0" ?><svg id="Layer_1" style="enable-background:new 0 0 52 52;" version="1.1" viewBox="0 0 52 52" xml:space="preserve" xmlns="http://www.w3.org/2000/svg" xmlns:xlink="http://www.w3.org/1999/xlink"><style type="text/css">
	.st0{fill:#231F20;}
</style><g><g><path class="st0" d="M47.9118423,8.9042387c0.9950104,2.4746475,1.4474564,5.6091318-0.7862778,7.5899649    c-1.9764061,1.7526379-5.1870842,0.8298569-6.9565163-0.8410358c-1.4329376-1.3531342-1.1408081-4.2549868-0.9935799-6.1284571    c0.3397179-4.3228927,7.1775017-3.2198892,9.0785522-0.7489529c0.870697,1.1317081,2.826088,0.0124416,1.9428101-1.1356177    c-2.3821411-3.0962453-7.962925-4.5746593-11.3960991-2.2115884c-1.5029793,1.0345073-1.8195457,2.7421188-1.8831635,4.4499683    c-0.0727463,1.9528513-0.3586845,4.3469524,0.6454086,6.1237879c1.6409035,2.9037304,6.4185562,4.5840912,9.433239,3.2192116    c4.2804222-1.937933,4.6406174-7.0471411,3.0852547-10.9154196C49.5480461,6.9794397,47.3708458,7.5587463,47.9118423,8.9042387    L47.9118423,8.9042387z"/></g><g><path class="st0" d="M45.2393456,10.6756268c0.2087898-1.9338045-3.027565-2.1420298-3.1456718-0.0847301    c-0.0663986,1.1566267,0.4027176,1.3518448,1.4280167,1.5319128c0.2633133,0.0462446,0.7645988,0.0337114,1.0012131,0.1758375    c0.539196,0.3238754,0.5655174,1.4648542,0.1866837,1.9316139c-0.2579536,0.3178186-1.1118011,0.2886772-1.4772491,0.1685047    c-0.6571083-0.2160797-0.5690002-0.7556477-0.5538445-1.3146973c0.0130844-0.4827976-0.7369232-0.4824686-0.75,0    c-0.0236359,0.8718643-0.1831551,1.817337,0.8337479,2.0199442c1.0235825,0.2039375,2.2419205,0.2768221,2.7828255-0.7849598    c0.361515-0.7096462,0.263504-1.957428-0.3576813-2.5147762c-0.3390579-0.3042116-0.871315-0.3001795-1.2994461-0.37537    c-0.3720703-0.0653448-0.7248344-0.0271444-0.9370537-0.3393145c-0.7197685-1.0587606,1.7041206-1.9483051,1.5384598-0.4139652    C44.437603,11.1548738,45.1879959,11.1512184,45.2393456,10.6756268L45.2393456,10.6756268z"/></g><g><path class="st0" d="M43.2370224,15.0217667c0,0.322917,0,0.645833,0,0.96875c0,0.4825897,0.75,0.4833889,0.75,0    c0-0.322917,0-0.645833,0-0.96875C43.9870224,14.5391779,43.2370224,14.5383778,43.2370224,15.0217667L43.2370224,15.0217667z"/></g><g><path class="st0" d="M43.1745224,8.0217667c0,0.458333,0,0.916667,0,1.375c0,0.4825888,0.75,0.4833889,0.75,0    c0-0.458333,0-0.916667,0-1.375C43.9245224,7.5391774,43.1745224,7.5383782,43.1745224,8.0217667L43.1745224,8.0217667z"/></g><g><path class="st0" d="M36.0763206,24.5663548c1.685318,3.4856892-1.3857498,8.9846401-5.3275948,9.2453136    c-3.2371407,0.2140732-7.2318039-2.4926548-8.1919308-5.575779c-1.0300674-3.3077145,1.6793251-7.229948,4.8023624-8.4050465    c3.3248138-1.2510223,7.6765251,1.734396,9.2608147,4.6674194c0.6884041,1.2744522,2.6316948,0.1397324,1.9428101-1.1356182    c-2.1420403-3.9655952-7.748003-7.7731333-12.2371674-5.6093826c-4.1793537,2.0144234-8.0373306,7.5002861-5.6158657,12.136095    c1.9951763,3.8197002,7.7269878,7.55966,12.1206303,5.7985897c4.552494-1.8247452,7.3522758-7.7824593,5.1887474-12.2572098    C37.3890114,22.1274872,35.4481583,23.267149,36.0763206,24.5663548L36.0763206,24.5663548z"/></g><g><path class="st0" d="M32.6190529,24.8291283c-0.0707092-1.5007191-0.6209488-2.8026962-2.2706699-2.9924316    c-1.6452351-0.1892204-2.7811337,0.5201588-3.6029625,1.9354115c-0.6578426,1.1328526-0.2516518,2.3926964,0.9276485,2.9282722    c0.7169819,0.3256149,1.5647144,0.2992802,2.2615223,0.6846924c1.6465359,0.9107227-1.3484421,1.4477119-1.1638908,0.5161018    c0.2801533-1.4142132-1.8880539-2.0195217-2.1696281-0.5981388c-0.6523933,3.2932701,4.7635384,4.8721733,5.8485966,1.7738934    c0.4350014-1.2421131,0.1641998-2.7368412-0.9876766-3.4381275c-0.5812187-0.353857-1.9278564-0.9982967-2.6232185-0.9131947    c-0.3053799-0.1619205-0.381258-0.145752-0.2276344,0.0485039c0.1224537,0.3083687,0.2788467,0.1922283,0.4691772-0.3484211    c0.5385227-0.4897842,1.2468758-0.4849815,1.2887344,0.4034386C30.4369774,26.2707577,32.6873665,26.279026,32.6190529,24.8291283    L32.6190529,24.8291283z"/></g><g><path class="st0" d="M28.1408424,30.690834c0.0259438,0.1293716,0.0088387,0.2618446-0.0030537,0.392664    c-0.0550823,0.6059132,0.556488,1.1250019,1.125,1.1250019c0.6543293,0,1.0697613-0.5173588,1.125-1.1250019    c0.0305767-0.3363609-0.0110302-0.6602535-0.0773182-0.9908028c-0.1195259-0.596014-0.8278675-0.9385452-1.3838844-0.7857437    C28.3057156,29.4775753,28.0209713,30.0930977,28.1408424,30.690834L28.1408424,30.690834z"/></g><g><path class="st0" d="M28.177494,21.0819893c0.0382423,0.6258335,0.0458508,1.2504616,0.0228634,1.8770485    c-0.0531254,1.4481087,2.1969547,1.4459229,2.25,0c0.0229874-0.6265793,0.015379-1.2512074-0.0228634-1.8770485    c-0.0370636-0.6065598-0.4905262-1.125-1.125-1.125C28.7221584,19.9569893,28.1402473,20.4724159,28.177494,21.0819893    L28.177494,21.0819893z"/></g><g><path class="st0" d="M32.0385704,34.6666374c0.0005989,3.2787437,1.6597366,12.8802109-1.7416897,14.5324211    c-1.6261101,0.7898674-5.8162708,0.0036621-7.6594753,0.0048218c-2.5531578,0.0016098-5.1063175,0.0032158-7.6594753,0.0048218    c-2.1073065,0.0013275-5.6877604,0.6917686-7.6594763,0.0048256c-4.4224205-1.5407639-3.5444493-4.8490028-3.5527644-8.2575989    c-0.0124841-5.117775,0.0318398-10.2363873,0.0494745-15.3541508c0.0176356-5.1180458,0.0364151-10.2360888,0.0563388-15.3541269    c0.004981-1.2795095,0.0100334-2.5590186,0.0151575-3.8385277C4.1597338,3.6299584,5.4151487,2.4903812,7.652905,2.990392    c2.1844296-0.5608704,5.2421756-0.0767686,7.5043855-0.0962224c2.5015821-0.0215125,5.0032549-0.0324628,7.5049295-0.032851    c1.8857479-0.0002925,5.8070755-0.7304976,7.5049419,0.0305231c4.4769459,2.0066679,2.6883259,12.465354,2.5888538,16.4432144    c-0.0362206,1.4484215,2.2137985,1.4476948,2.25,0c0.1150665-4.6015606,0.1215477-9.2110872-0.1433983-13.8084412    c-0.0848083-1.4716058,0.092701-3.2724609-1.1039467-4.3695192c-1.3731384-1.2588633-4.8217316-0.525517-6.4058323-0.5336318    c-4.0651627-0.0208244-8.1304798-0.0146723-12.1955481,0.0207056C11.7503214,0.6738201,4.1087861-1.0145439,1.9863472,2.588449    C0.6294999,4.8917952,1.6241109,9.5557661,1.614085,12.1669159c-0.015967,4.1584072-0.0311426,8.3168163-0.0455877,12.4752293    C1.5427518,32.0536919,0.344546,40.5608902,1.7782778,47.853466c1.0468556,5.3247566,7.0126414,3.6091347,11.2847834,3.6064415    c3.8297386-0.0024109,7.6594753-0.0048218,11.4892139-0.0072327c2.2614918-0.0014229,6.5322456,0.9275169,8.5561581-0.7462692    c1.1199036-0.9261665,0.9931984-2.0166321,1.182476-3.2811317c0.6030464-4.0287514-0.0015945-8.6958961-0.0023384-12.7586365    C34.2883034,33.2188797,32.0383034,33.2164612,32.0385704,34.6666374L32.0385704,34.6666374z"/></g><g><path class="st0" d="M2.9965909,12.1460323c10.5555964-0.1346045,21.111166-0.1605625,31.6672993-0.0778761    c1.4481659,0.011343,1.449585-2.2386456,0-2.25C24.1077576,9.7354698,13.552187,9.7614279,2.9965909,9.8960323    C1.5498539,9.9144802,1.5458627,12.1645317,2.9965909,12.1460323L2.9965909,12.1460323z"/></g><g><path class="st0" d="M16.5807743,8.3759336c1,0,2,0,3,0c1.4477673,0,1.4501648-2.2500005,0-2.2500005c-1,0-2,0-3,0    C15.1330061,6.1259332,15.1306086,8.3759336,16.5807743,8.3759336L16.5807743,8.3759336z"/></g><g><path class="st0" d="M2.7473578,42.3371964c9.944458-0.0212135,19.888916-0.0424271,29.8333759-0.0636406    c1.447628-0.0030899,1.4502907-2.2530937,0-2.25c-9.9444599,0.0212135-19.8889179,0.0424271-29.8333759,0.0636406    C1.2997299,40.0902863,1.2970654,42.3402901,2.7473578,42.3371964L2.7473578,42.3371964z"/></g><g><path class="st0" d="M17.9141064,46.9592667c1.4477692,0,1.4501667-2.25,0-2.25    C16.4663391,44.7092667,16.4639416,46.9592667,17.9141064,46.9592667L17.9141064,46.9592667z"/></g></g></svg>