<?xml version="1.0" ?><svg id="Layer_1" style="enable-background:new 0 0 52 52;" version="1.1" viewBox="0 0 52 52" xml:space="preserve" xmlns="http://www.w3.org/2000/svg" xmlns:xlink="http://www.w3.org/1999/xlink"><style type="text/css">
	.st0{fill:#231F20;}
</style><g><g><path class="st0" d="M14.2956285,3.0475314c5.4912672,0.0008008,10.9825354,0.0016019,16.4738007,0.0024028    c2.208189,0.0003221,5.6688976-0.6734388,7.7523785,0.0011306c4.0747719,1.3192914,3.5360374,6.2522879,3.5319977,9.9135628    c-0.0062408,5.6611528-0.0256805,11.32232-0.0610657,16.9833641c-0.0315056,5.0407047,1.6754494,17.1731853-4.9029922,19.0042667    c-4.2670135,1.1877022-10.1314087,0.1944313-14.535593,0.1882553c-3.3867683-0.0047493-6.7531281,0.4066162-9.867568-0.9687996    c-2.6394205-1.165638-2.1680241-1.0038948-2.4740744-3.6699753c-0.1819572-1.5850716-0.2877073-3.1476898-0.3384323-4.7407303    c-0.1754427-5.509861-0.0591145-11.0395756-0.0630732-16.5521851C9.8078613,18.8282394,7.6400881,3.1369488,14.723175,2.8158691    c1.4419765-0.0653656,1.4500237-2.3157303,0-2.25C9.4746656,0.8037865,7.8463674,5.265655,7.568027,9.9117966    c-0.5315161,8.8722172-0.0895538,18.0138149,0.0057545,26.9015198c0.046802,4.3644028-1.0963883,12.2787323,4.1308894,14.1701584    c3.2037821,1.1592522,7.5035887,0.4019241,10.8494844,0.4070396c4.5577545,0.0069656,9.1905651,0.2098083,13.7380009-0.1335182    c5.8112297-0.4387398,7.1261101-2.4444351,7.5660362-8.0637932c0.7067909-9.0280876,0.4229355-18.1825619,0.4408493-27.231493    c0.0078087-3.9440298,1.9793053-12.9403381-3.0162735-14.9432182c-3.2817307-1.3157459-8.9360237-0.2183276-12.4514313-0.2188403    c-4.8452358-0.0007067-9.6904716-0.0014133-14.5357084-0.00212C12.8478518,0.7973202,12.8454723,3.0473199,14.2956285,3.0475314    L14.2956285,3.0475314z"/></g><g><path class="st0" d="M8.9634523,11.5488777c11.1111116,0,22.2222214,0,33.3333359,0c1.4477654,0,1.4501648-2.25,0-2.25    c-11.1111126,0-22.2222233,0-33.3333359,0C7.5156846,9.2988777,7.5132866,11.5488777,8.9634523,11.5488777L8.9634523,11.5488777z"/></g><g><path class="st0" d="M9.1301193,42.3822098c10.9444447,0,21.8888893,0,32.8333321,0c1.4477692,0,1.4501648-2.25,0-2.25    c-10.9444427,0-21.8888874,0-32.8333321,0C7.6823511,40.1322098,7.6799531,42.3822098,9.1301193,42.3822098L9.1301193,42.3822098z    "/></g><g><path class="st0" d="M24.0467854,46.7155457c0.916666,0,1.833334,0,2.75,0c1.4477673,0,1.4501667-2.25,0-2.25    c-0.916666,0-1.833334,0-2.75,0C22.5990181,44.4655457,22.5966206,46.7155457,24.0467854,46.7155457L24.0467854,46.7155457z"/></g><g><path class="st0" d="M15.6299553,37.9793167c6.7500343,0.080368,13.5000706,0.1607323,20.2501068,0.2410965    c1.4483032,0.0172424,1.4492149-2.2327461,0-2.25c-6.7500362-0.0803642-13.5000725-0.1607285-20.2501068-0.2410965    C14.1816502,35.7120743,14.1807404,37.9620628,15.6299553,37.9793167L15.6299553,37.9793167z"/></g><g><path class="st0" d="M25.7463303,20.8136864c0.1673756,0.139782,0.1484299,0.668499,0.0755806,0.8663483    c-0.1252079,0.3400459-0.2671299,0.3083591-0.6420898,0.3034115c-0.6686554-0.0088215-1.438673-0.2257423-1.6387596-0.9445572    c-0.1128578-0.4054413-0.0266857-0.8467674,0.0725307-1.2464542c0.0236549-0.102396,0.0512981-0.2037067,0.0829258-0.3039265    c0.0945797-0.2022953,0.0458393-0.2103329-0.1462193-0.0241089c0.2158966-0.05303,0.5108757-0.007782,0.734005-0.0107193    c0.3132439-0.0041218,0.7049007-0.0769958,0.9830132,0.1002274c0.2967854,0.1891212,0.4944878,0.6873722,0.6515102,0.9821968    c0.6809292,1.2785149,2.6238785,0.1431599,1.9428082-1.1356182c-0.4262943-0.8004112-0.9474049-1.583643-1.8033695-1.9643497    c-0.8383102-0.3728542-2.2008476-0.3730831-3.0801449-0.1648846c-1.9874058,0.4705696-2.0860386,3.8673229-1.2153053,5.2760372    c0.9358845,1.5141163,3.1622124,2.0570946,4.7794075,1.4667339c1.7044182-0.6222019,2.1941128-3.6229477,0.7950974-4.7913265    C26.2332134,18.3006096,24.6332741,19.8841248,25.7463303,20.8136864L25.7463303,20.8136864z"/></g><g><path class="st0" d="M35.296917,31.7186127c-3.7124634-0.0041065-8.6507587,1.0888062-11.0414314-2.0995255    c-2.2234993-2.9653797-6.0492649-8.7065849-2.8274517-11.9279079c1.8664761-1.86619,5.0886135-2.2389488,7.2877979-0.6767673    c3.6457863,2.5897655,0.8391075,5.9446526-1.1224174,8.1804733c-1.5358772,1.7506523-2.9007568,3.2305393-3.7293682,5.4400215    c-0.509058,1.3573971,1.6650009,1.9437218,2.1696281,0.5981388c1.6698971-4.4527664,9.0058994-8.1389389,6.0778484-13.7807293    c-1.9459972-3.7495661-7.9541759-4.9121504-11.1510448-2.3505316c-4.9612017,3.9753599-2.9417496,8.4543505-0.1060753,13.0637484    c1.0366211,1.6850281,1.7602081,4.2832165,3.5638447,5.2949543c1.1640835,0.6529846,2.5641518,0.4879913,3.8418446,0.5003433    c2.345129,0.0226707,4.6915798,0.005188,7.0368252,0.007782C36.744751,33.9702148,36.7470131,31.7202168,35.296917,31.7186127    L35.296917,31.7186127z"/></g><g><path class="st0" d="M25.7134514,7.5488777c1.4477692,0,1.4501667-2.25,0-2.25    C24.2656841,5.2988777,24.2632866,7.5488777,25.7134514,7.5488777L25.7134514,7.5488777z"/></g></g></svg>