<?xml version="1.0" ?><svg id="Layer_1" style="enable-background:new 0 0 52 52;" version="1.1" viewBox="0 0 52 52" xml:space="preserve" xmlns="http://www.w3.org/2000/svg" xmlns:xlink="http://www.w3.org/1999/xlink"><style type="text/css">
	.st0{fill:#231F20;}
</style><g><g><path class="st0" d="M29.4541721,17.4770584c3.3194637,1.9956703,2.4099636,6.1960869-1.0824986,7.292057    c-1.6469116,0.5168171-4.5370426,0.9062157-6.1238995,0.1417675c-2.5513592-1.2290859-1.9059811-5.521183-0.7481976-7.4344406    c1.5249653-2.5200367,5.452879-2.13134,7.4851913-0.3455315c1.0838623,0.9523983,2.6812916-0.6329346,1.5909901-1.590991    c-2.7975979-2.458271-8.0054283-3.1800909-10.486248,0.0299749c-2.083971,2.6965599-2.8947945,8.3709335,0.0983124,10.7924442    c2.7618771,2.2344398,8.9891567,1.332346,11.5408669-0.8885593c3.3211651-2.8906059,2.4511547-7.7811813-1.1388988-9.9395313    C29.3456993,14.7862968,28.2132225,16.7309952,29.4541721,17.4770584L29.4541721,17.4770584z"/></g><g><path class="st0" d="M41.9870796,17.2566185c0.5942192,5.880167-3.2085571,11.4828529-5.8912964,16.5009384    c-3.0651474,5.733387-6.6409111,11.0413284-11.2125187,15.6877899c0.5889664,0.0758934,1.1779346,0.1517906,1.766901,0.227684    c-2.9583969-5.1344376-6.4107304-9.9332542-9.8290977-14.7663918c-3.968873-5.6114826-8.3143835-11.0888233-6.9999847-18.4306107    c1.2497568-6.9807253,8.0032978-13.1076441,15.1917076-13.3285513c6.740118-0.2071307,17.940731,6.5524778,17.2139816,14.4101114    c-0.133297,1.4412098,2.1175423,1.4321251,2.25,0c0.3233414-3.4959841-0.9770126-6.2410765-3.3894005-8.7408609    c-2.3642426-2.4498982-5.7319145-5.6394486-8.9184189-7.0070567c-6.6085243-2.8362963-14.3950081-0.2045405-19.1952572,4.5945835    C-1.8405164,21.2149925,17.138895,37.6732178,24.7073555,50.808651c0.3597202,0.6243095,1.2605839,0.7422905,1.766901,0.227684    c5.1083908-5.1920357,8.9740391-11.1612511,12.3324947-17.6020317c2.6566124-5.0948029,6.0324669-10.2191525,5.4303284-16.1776848    C44.0928879,15.8297272,41.8413849,15.8148499,41.9870796,17.2566185L41.9870796,17.2566185z"/></g></g></svg>