<?xml version="1.0" ?><svg id="Layer_1" style="enable-background:new 0 0 52 52;" version="1.1" viewBox="0 0 52 52" xml:space="preserve" xmlns="http://www.w3.org/2000/svg" xmlns:xlink="http://www.w3.org/1999/xlink"><style type="text/css">
	.st0{fill:#231F20;}
</style><g><g><path class="st0" d="M6.4101443,3.6904938c6.4344172-0.0016241,12.8688354-0.0032482,19.3032532-0.0048723    c6.2183094-0.0015695,13.1596184-0.8836107,19.3032532-0.0048723c4.7273064,0.6761582,4.0059967,3.8975012,4.0207825,7.9492168    c0.0119858,3.2849131,0.01474,6.5698671,0.0082588,9.8547945s-0.0221939,6.5698471-0.0471382,9.8546867    c-0.0190811,2.5125771,0.6314468,5.2186813-2.3843918,6.619976c-1.1316719,0.5258255-3.6131973-0.0195236-4.8249893-0.0260735    c-6.4333191-0.0347633-12.8666382-0.0695267-19.2999573-0.10429c-3.2166595-0.0173798-6.4333191-0.0347633-9.6499796-0.0521431    c-3.6168861-0.0195465-8.5390902,1.0921211-9.573822-3.3213959c-1.3114736-5.5939178-0.350728-12.4062805-0.3550906-18.1332893    c-0.0022986-3.0175486-0.0045974-6.0350971-0.006896-9.0526457C2.9000263,2.8049848,4.6303086,3.5690727,8.5803165,3.4867418    c1.4458389-0.0301361,1.45084-2.2802403,0-2.25C6.6698442,1.2765621,2.9664829,0.5336604,1.3999006,2.139492    C0.0195361,3.55444,0.6528797,6.5507464,0.6541168,8.1748505c0.0065828,8.6416435-0.9380257,18.0318298,0.34856,26.604187    c1.0405103,6.9327927,6.9782648,5.2216263,12.8015575,5.2530937c9.3283129,0.0504074,18.6566277,0.100811,27.9849396,0.1512184    c6.7484627,0.0364647,9.3101387,0.1464691,9.443306-6.8730049c0.0996628-5.2533379,0.0680084-10.5133915,0.0665588-15.7675056    c-0.0011101-4.0138617,0.9373817-9.3216543-0.1508865-13.1748905c-0.4424324-1.5665247-1.037323-2.266258-2.5562553-2.8006701    c-3.5891266-1.2627784-9.4274406-0.1350518-13.2268715-0.1340929C25.713398,1.4356215,16.0617714,1.4380577,6.4101443,1.4404938    C4.9623923,1.4408592,4.9599628,3.6908598,6.4101443,3.6904938L6.4101443,3.6904938z"/></g><g><path class="st0" d="M20.6403027,13.4214897c-1.1593113-4.279355-5.8867302-4.4720297-7.9396105-0.6544809    c-0.7968788,1.4818802-0.2349615,2.8816938,1.2417898,3.5506315c1.0816374,0.4899597,3.1059189,0.2106609,3.9551067,1.0420666    c0.7132244,0.6982899,1.0778561,2.3766499,0.3544922,3.1752186c-1.0563679,1.166193-2.6864691,0.1443405-2.5719023-1.2983856    c0.1146383-1.4436188-2.1359558-1.4361382-2.25,0c-0.3394318,4.2744122,5.8791342,5.7225895,7.2960596,1.6228771    c0.6145363-1.7780914,0.1056709-4.1975918-1.472929-5.2870216c-0.9266529-0.6395054-1.991106-0.7646475-3.0712528-0.9698668    c-1.0418081-0.1979351-1.6021996-0.5579576-0.7000799-1.7123547c1.3784609-1.7639484,2.6446733-0.1404419,2.9886999,1.1294556    C18.8488712,15.4156599,21.0200348,14.8231888,20.6403027,13.4214897L20.6403027,13.4214897z"/></g><g><path class="st0" d="M15.6178751,22.6453896c0,0.25,0,0.5,0,0.75c0,1.4477692,2.250001,1.4501667,2.250001,0c0-0.25,0-0.5,0-0.75    C17.8678761,21.1976223,15.6178751,21.1952248,15.6178751,22.6453896L15.6178751,22.6453896z"/></g><g><path class="st0" d="M15.6178751,9.4787235c0,0.333333,0,0.666667,0,1c0,1.4477682,2.250001,1.4501657,2.250001,0    c0-0.333333,0-0.666667,0-1C17.8678761,8.0309563,15.6178751,8.0285578,15.6178751,9.4787235L15.6178751,9.4787235z"/></g><g><path class="st0" d="M26.6595421,12.6037235c3.333334,0,6.6666679,0,10,0c1.4477692,0,1.4501648-2.25,0-2.25    c-3.3333321,0-6.666666,0-10,0C25.2117748,10.3537235,25.2093773,12.6037235,26.6595421,12.6037235L26.6595421,12.6037235z"/></g><g><path class="st0" d="M35.5761528,16.0205364c-0.8545418-0.000103-1.7090874-0.0002041-2.5636292-0.0003052    c-0.7414589-0.0000877-1.6068325-0.1152754-2.2007523,0.4317455c-0.5538597,0.5101223-0.5028496,1.3068905-0.5209103,1.9905949    c-0.0230637,0.8731194-0.0461273,1.7462406-0.069191,2.61936c-0.0382595,1.4484043,2.2117634,1.4475021,2.2500019,0    c0.0158539-0.6002693,0.0317116-1.2005405,0.0475655-1.8008099c0.0093575-0.3542366-0.0919228-1.2400951,0.059433-1.4458408    c-0.2241096,0.1723347-0.4482231,0.3446693-0.6723347,0.5170059c0.4873676-0.2049904,1.2154865-0.0620422,1.7470951-0.0619793    c0.6409073,0.0000763,1.2818146,0.0001526,1.9227219,0.0002289    C37.0239296,18.2707081,37.0263138,16.0207081,35.5761528,16.0205364L35.5761528,16.0205364z"/></g><g><path class="st0" d="M31.074213,19.0682297c1.339304,1.3808289,2.6095638,2.905262,4.2415485,3.9507809    c1.2228394,0.7834053,2.3524399-1.1632576,1.1356163-1.9428082c-1.4514999-0.9298935-2.5939865-2.3698139-3.7861748-3.5989647    C31.6552429,16.4359665,30.0651302,18.0278625,31.074213,19.0682297L31.074213,19.0682297z"/></g><g><path class="st0" d="M2.4095581,31.0136528c15.7221994,0.0374298,31.4444008,0.0748577,47.1665993,0.1122856    c1.4479065,0.0034485,1.4500084-2.2465477,0-2.25c-15.7221985-0.0374279-31.4443989-0.0748558-47.1665993-0.1122856    C0.9616502,28.7602062,0.9595498,31.0102024,2.4095581,31.0136528L2.4095581,31.0136528z"/></g><g><path class="st0" d="M25.7428761,35.8537254c1.4477673,0,1.4501648-2.25,0-2.25    C24.2951069,33.6037254,24.2927094,35.8537254,25.7428761,35.8537254L25.7428761,35.8537254z"/></g><g><path class="st0" d="M23.8269901,46.6196327c1.5417747-0.0522232,3.1063156-0.1634407,4.648819-0.1180954    c2.8565845,0.0839767,4.2282543,1.2875443,5.8454609,3.4522171c0.3238029-0.56427,0.6476059-1.12854,0.971405-1.6928101    c-3.6498127,0.0938911-7.2996254,0.1877823-10.9494381,0.2816734c-0.5646648,0.0145264-5.2855396,0.4860001-5.47472,0.1408386    c-0.8182774-1.4929543,4.6091232-1.9318733,5.1903954-1.8875999c1.4441414,0.1099968,1.4370613-2.1405449,0-2.25    c-2.0977612-0.1597786-10.4335938,1.9083748-7.6146545,5.4963531c1.1959496,1.5222206,4.2314911,0.8447533,5.8459587,0.8032227    c4.3341522-0.111496,8.6683064-0.2229919,13.0024586-0.3344879c0.7716675-0.0198517,1.509182-0.9729805,0.971405-1.6928101    c-1.1511688-1.5408669-2.3395348-3.1457443-4.1352959-3.9679527c-2.4684868-1.1302261-5.6780262-0.5694199-8.3017941-0.4805489    C22.3829918,44.4185448,22.3763676,46.6687698,23.8269901,46.6196327L23.8269901,46.6196327z"/></g><g><path class="st0" d="M19.8418503,40.1505203c0.7269382,0.7218895,1.5656776,1.4891548,1.8371372,2.5180893    c0.2601891,0.9862137,0.1007538,2.1356392,0.0775967,3.1410904c-0.0333614,1.4484329,2.21665,1.4479523,2.25,0    c0.0314007-1.3633652,0.1768856-2.822155-0.2850227-4.1310883c-0.4366322-1.2373047-1.376873-2.2135658-2.2887211-3.1190796    C20.4042454,37.5380745,18.8125076,39.1283264,19.8418503,40.1505203L19.8418503,40.1505203z"/></g><g><path class="st0" d="M30.4389591,39.3300934c-0.512764,1.7296143-0.7540016,3.5110703-0.7204609,5.3147697    c0.0268936,1.446106,2.2769814,1.4508286,2.25,0c-0.0300541-1.6161766,0.1807098-3.1670914,0.6400909-4.716629    C33.0210075,38.5370941,30.8502388,37.9427986,30.4389591,39.3300934L30.4389591,39.3300934z"/></g></g></svg>