<?xml version="1.0" ?><svg id="Layer_1" style="enable-background:new 0 0 52 52;" version="1.1" viewBox="0 0 52 52" xml:space="preserve" xmlns="http://www.w3.org/2000/svg" xmlns:xlink="http://www.w3.org/1999/xlink"><style type="text/css">
	.st0{fill:#231F20;}
</style><g><g><path class="st0" d="M25.8119678,27.1713505c0.3665829,0.6165447,1.8844967,1.6696854,0.6676254,2.2423382    c-0.5105839,0.2402763-0.8549328,0.1695728-1.2931004-0.2199993c-0.1977119-0.1757851-0.1922092-0.1927624-0.142992-0.5532341    c0.0483322-0.3539925,0.1936626-0.7633896,0.380619-1.066864c-0.2241116,0.1723347-0.4482231,0.3446693-0.6723347,0.517004    c0.6618843-0.2578335,1.4184875-0.1424484,2.0813847,0.0483551c1.3940773,0.4012623,1.9892941-1.7692051,0.5981388-2.1696262    c-0.8816872-0.2537804-1.7753391-0.325058-2.6831532-0.1870174c-1.0279808,0.1563148-1.4017315,0.7374954-1.7114067,1.68466    c-0.2696781,0.8248348-0.4248447,1.8081322-0.0341263,2.6216545c0.3425465,0.7132187,1.0954933,1.1307182,1.7829227,1.4722176    c1.3208084,0.6561527,3.3164539,0.0006237,4.0632591-1.2838917c0.3998604-0.687767,0.4098473-1.5890007,0.2082958-2.3427315    c-0.2281094-0.8530598-0.8878193-1.2013378-1.3023224-1.8984833    C27.0153961,24.7921829,25.0694828,25.9225826,25.8119678,27.1713505L25.8119678,27.1713505z"/></g><g><path class="st0" d="M35.3543587,17.4167557c-2.6770973,3.0706043-5.6035423,5.8826714-8.7783432,8.4352627    c-1.1284981,0.9073296,0.4723988,2.4903564,1.5909901,1.5909901c3.1748352-2.5526199,6.1012783-5.3646927,8.7783451-8.4352627    C37.8931274,17.9206543,36.3080826,16.3228436,35.3543587,17.4167557L35.3543587,17.4167557z"/></g><g><path class="st0" d="M18.0466022,22.6699219c1.7526455,1.7647572,3.4422245,3.5907898,5.1443462,5.4039612    c0.9931469,1.0579414,2.5818958-0.5354366,1.5909901-1.5909901c-1.7021217-1.8131714-3.3917007-3.639204-5.1443462-5.4039612    C18.6157951,20.0500736,17.0246658,21.6409245,18.0466022,22.6699219L18.0466022,22.6699219z"/></g><g><path class="st0" d="M45.3438911,25.8726215c0.7997131,6.4046841-1.1511078,11.0188656-5.2073288,15.8763065    c-1.2939491,1.5495377-2.7354546,3.3410568-4.3637352,4.5524712c-2.6258163,1.9535675-5.7489433,1.8613625-8.873867,1.925808    c-3.0984573,0.0639038-6.1421185,0.2703438-8.8209438-1.6755981c-0.8261261-0.6001129-1.4380112-1.6445961-2.2723885-2.2988892    c-2.2939405-1.7988281-4.5280914-2.1131134-6.0791397-5.0682487c-0.9257336-1.7637558-1.5025873-4.2576904-2.099391-6.1725693    c-1.1753731-3.7712536-1.9217448-7.261961,0.2717657-10.8421669c1.2472887-2.0358009,3.1142864-3.812315,4.706049-5.5838108    c3.4831848-3.8764906,6.3161526-6.3882799,11.8326035-6.9770718c4.1868343-0.4468775,7.6760559-0.1797743,11.335434,1.981988    c5.0485077,2.9823847,9.8674583,9.0180635,9.3119659,14.9906015c-0.1340332,1.441103,2.1168175,1.4319553,2.25,0    c0.6240234-6.7093563-4.0389061-12.1501493-9.1480598-15.9827423c-3.878315-2.9092898-7.1495266-3.7752981-11.9238815-3.4042158    c-7.0761204,0.5499849-10.539917,2.5633755-15.249052,7.8004494c-4.0384331,4.4911795-7.7841921,8.3938551-6.5840421,14.9122419    c0.8852243,4.8079281,2.495863,11.2698574,6.7574983,14.1707211c1.4219599,0.9679184,2.9594879,1.6590614,4.2584438,2.820858    c0.958456,0.8572502,1.5502434,1.9781342,2.7014446,2.6287384c2.6896133,1.5200424,6.7370434,1.0241547,9.670475,0.9157753    c6.7179565-0.2481995,9.5931168-1.9419174,13.9098091-7.1033516c4.6319847-5.5384254,6.7717667-10.2159805,5.8663406-17.4672947    C47.416851,24.4547501,45.1646385,24.4370213,45.3438911,25.8726215L45.3438911,25.8726215z"/></g><g><path class="st0" d="M40.4247704,44.0780907c0.9699287,0.6189919,1.711483,2.0691299,2.4016457,2.9823494    c0.668499,0.884552,1.459774,1.7462349,1.8945274,2.775116c0.5616837,1.329277,2.5003319,0.183815,1.9428101-1.1356163    c-0.5459938-1.292141-1.6112823-2.4003296-2.4515533-3.5121689c-0.7963829-1.0537643-1.5216751-2.3312569-2.6518135-3.0524902    C40.3361855,41.3540192,39.2064095,43.3005562,40.4247704,44.0780907L40.4247704,44.0780907z"/></g><g><path class="st0" d="M9.7786617,42.6849632c-0.02672,0.4939613-0.9384317,1.13937-1.2630186,1.4551048    c-0.4629393,0.4503098-0.922287,0.8984261-1.337214,1.3946724c-0.8240647,0.9855728-1.4926252,2.0648003-2.021462,3.2348099    c-0.5917387,1.3091736,1.3466997,2.4544601,1.9428086,1.1356201c0.7013164-1.5516052,1.6409764-2.8398933,2.8557744-4.0285988    c0.9294739-0.9095116,1.9986572-1.8151817,2.0731115-3.1916084C12.1069269,41.2380562,9.8566923,41.2424049,9.7786617,42.6849632    L9.7786617,42.6849632z"/></g><g><path class="st0" d="M21.74296,3.6430535c2.9444447,0,5.8888893,0,8.833334,0c1.4477692,0,1.4501648-2.25,0-2.25    c-2.9444447,0-5.8888893,0-8.833334,0C20.2951927,1.3930534,20.2927952,3.6430535,21.74296,3.6430535L21.74296,3.6430535z"/></g><g><path class="st0" d="M24.6935177,2.9346228c-0.0146084,1.7530541,0.0584259,3.5000796,0.2192974,5.2457743    c0.1317692,1.4298763,2.3830395,1.443675,2.25,0c-0.1608734-1.7457175-0.2339058-3.4927435-0.2192974-5.2457743    C26.9555855,1.4864359,24.7055969,1.4850796,24.6935177,2.9346228L24.6935177,2.9346228z"/></g></g></svg>