<?xml version="1.0" ?><svg id="Layer_1" style="enable-background:new 0 0 52 52;" version="1.1" viewBox="0 0 52 52" xml:space="preserve" xmlns="http://www.w3.org/2000/svg" xmlns:xlink="http://www.w3.org/1999/xlink"><style type="text/css">
	.st0{fill:#231F20;}
</style><g><g><path class="st0" d="M22.4292488,34.0598793c-4.7265816,0.1184044-11.6231585,1.0698814-15.5015755-1.8351212    C4.22194,30.1981144,3.3616922,26.659502,4.4905639,23.4092159c1.4287224-4.1136265,5.4152875-4.3458138,9.2349472-4.0530415    c0.6081705,0.0466156,1.123332-0.553236,1.125-1.125c0.0192575-6.5998888,0.4697418-12.7808199,7.9998522-14.7024279    c2.16189-0.5516925,5.2405968-0.6148057,7.4788284-0.2815413c4.5544376,0.678138,4.3589039,3.4146221,4.4318027,7.0116873    c0.0159225,0.785655,0.9695015,1.4909487,1.6928101,0.971405c4.2848358-3.0777521,9.5423355,3.2009201,10.8919678,6.5730686    c0.9346275,2.3352261,1.048954,7.0623035,0.3028908,9.481123c-2.228653,7.2255135-11.8023796,6.496479-17.8013096,6.4486122    c-1.4481735-0.0115547-1.4495735,2.2384338,0,2.25c9.4446545,0.0753632,20.5961132-0.6654434,20.4060001-12.6600685    c-0.0819321-5.1692924-1.4727516-9.2804031-5.5374336-12.6657591c-2.6875725-2.2384024-6.324894-3.5769753-9.3977356-1.3697853    c0.56427,0.323801,1.12854,0.647603,1.6928101,0.9714041c-0.0471573-2.3269048,0.649498-6.4730282-1.3718758-8.2364721    c-2.4502258-2.1375749-8.7822475-1.2942138-11.689764-0.9289812c-4.0811081,0.5126549-7.1292744,2.3341713-9.601367,5.6008778    c-2.5291271,3.3420739-1.7358084,7.5380988-1.7474766,11.5368576c0.375-0.375,0.75-0.75,1.125-1.125    C5.960331,16.5109825,0.2646635,20.1759758,2.0854168,28.7601757c1.9801526,9.3357105,13.0106812,7.7334042,20.343832,7.5497036    C23.8745461,36.273674,23.8800716,34.0235329,22.4292488,34.0598793L22.4292488,34.0598793z"/></g><g><path class="st0" d="M20.2525291,29.117033c2.2604904-2.3024597,4.5009289-4.6239128,6.7216778-6.9647293    c-0.3648548,0.0964394-0.7297096,0.1928787-1.0945644,0.2893181c2.0066166,0.7563076,3.804285,3.2662392,4.9340191,4.9854279    c0.7919388,1.205143,2.741106,0.0791988,1.9428082-1.1356182c-1.5695305-2.3884563-3.5364609-4.9858723-6.2786884-6.0194378    c-0.3587513-0.1352158-0.8394718,0.0204334-1.0945644,0.28932c-2.220747,2.3408146-4.4611874,4.6622677-6.7216778,6.9647274    C17.6462612,28.5601692,19.236021,30.1524124,20.2525291,29.117033L20.2525291,29.117033z"/></g><g><path class="st0" d="M25.3159847,22.2107983c-0.0064297,9.3611259-0.0128613,18.7222538-0.0192928,28.0833759    c-0.0009937,1.4478111,2.2490044,1.4501228,2.25,0c0.0064316-9.3611221,0.0128632-18.72225,0.0192928-28.0833759    C27.5669804,20.762989,25.3169823,20.7606773,25.3159847,22.2107983L25.3159847,22.2107983z"/></g></g></svg>