<?xml version="1.0" ?><svg id="Layer_1" style="enable-background:new 0 0 52 52;" version="1.1" viewBox="0 0 52 52" xml:space="preserve" xmlns="http://www.w3.org/2000/svg" xmlns:xlink="http://www.w3.org/1999/xlink"><style type="text/css">
	.st0{fill:#231F20;}
</style><g><g><path class="st0" d="M15.0456257,2.979167c5.7842369-0.0123584,11.5685024-0.0310988,17.3527508-0.0370755    c1.1455574-0.0011835,2.4931679-0.1924429,3.6231956,0.0041623c2.6210938,0.4560258,5.1919823,2.9335165,5.8206558,5.6128588    c0.6000099,2.5571671,0.043045,5.9506168,0.0584488,8.5592289c0.0339165,5.743494,0.0717545,11.4869823,0.1017494,17.2304974    c0.0153122,2.9313583,0.0406532,5.8638039-0.022316,8.7947807c-0.0233231,1.0855827,0.1364136,2.6062317-0.2276192,3.6366005    c-0.8349495,2.3632545-2.2551651,2.4510117-4.7331009,2.6825714c-5.3536987,0.5002975-10.9851856-0.0205956-16.3652134-0.0306778    c-2.5019493-0.0046921-6.3169937,0.4865112-8.53582-0.9986534c-3.0869436-2.0662308-2.3855762-6.9921799-2.3557634-10.1358376    c0.0550261-5.8024635,0.1100521-11.6049252,0.1650791-17.4073906c0.0473814-4.9963207-1.8356123-18.7926826,6.0240202-18.6804829    c1.4483624,0.0206761,1.4489765-2.229315,0-2.25c-5.3174076-0.0759087-7.6310272,4.495079-8.0893822,9.2019987    c-0.8387132,8.6128807-0.2401943,17.5868149-0.3222041,26.2346439    c-0.0493002,5.1986694-1.4296322,12.9847527,4.5635185,15.5068283c2.3197269,0.9762039,5.141758,0.7655602,7.5878925,0.7770844    c4.8131847,0.0226822,9.6266632,0.0180473,14.4398956,0.0270729c2.1272926,0.0039864,6.5809135,1.001152,8.3859482-0.4706383    c1.5117226-1.2326317,1.5054512-3.952816,1.6439323-5.7031784c0.7162971-9.0538063,0.0486183-18.3846779-0.0049629-27.4579697    c-0.0242653-4.108964,0.3312531-8.4358625-0.2359543-12.51231c-0.2994957-2.1524405-0.5683212-3.2464426-2.5998154-4.1469903    c-3.095974-1.3724207-7.5746727-0.7270797-10.8502693-0.7200812C25.3287354,0.7071964,20.1871815,0.7181817,15.0456257,0.729167    C13.5979977,0.7322599,13.5953331,2.9822657,15.0456257,2.979167L15.0456257,2.979167z"/></g><g><path class="st0" d="M9.0442104,11.5424767c11.5,0,22.9999981,0,34.5,0c1.4477692,0,1.4501686-2.25,0-2.25    c-11.5,0-22.9999981,0-34.5,0C7.5964422,9.2924767,7.5940442,11.5424767,9.0442104,11.5424767L9.0442104,11.5424767z"/></g><g><path class="st0" d="M26.4608765,7.2091432c1.4477673,0,1.4501667-2.25,0-2.25    C25.0131092,4.9591432,25.0107117,7.2091432,26.4608765,7.2091432L26.4608765,7.2091432z"/></g><g><path class="st0" d="M8.960803,41.9974518c11.2500162-0.0184059,22.5000305-0.0368118,33.7500458-0.0552177    c1.4476624-0.0023689,1.450264-2.2523727,0-2.25C31.4608345,39.71064,20.2108192,39.7290459,8.960803,39.7474518    C7.5131412,39.7498207,7.5105391,41.9998245,8.960803,41.9974518L8.960803,41.9974518z"/></g><g><path class="st0" d="M15.2942181,35.5344162c7.500021,0.0076866,15.000042,0.0153732,22.5000629,0.0230598c0-0.75,0-1.5,0-2.25    c-7.500021-0.0076866-15.000042-0.0153732-22.5000629-0.0230598    C13.8463879,33.2829323,13.8441181,35.5329323,15.2942181,35.5344162    c7.500021,0.0076866,15.000042,0.0153732,22.5000629,0.0230598c1.4478302,0.0014839,1.4500999-2.2485123,0-2.25    c-7.500021-0.0076866-15.000042-0.0153732-22.5000629-0.0230598    C13.8463879,33.2829323,13.8441181,35.5329323,15.2942181,35.5344162z"/></g><g><path class="st0" d="M32.3539772,17.1444016c-4.2125626,4.1203651-8.425127,8.2407284-12.6376915,12.3610916    c-1.0368938,1.0142002,0.5546284,2.6046715,1.5909901,1.5909901c4.2125645-4.1203632,8.4251289-8.2407265,12.6376934-12.3610916    C34.9818611,17.7211933,33.3903389,16.130722,32.3539772,17.1444016L32.3539772,17.1444016z"/></g><g><path class="st0" d="M32.055645,26.8346386c1.1393929-0.1441002,0.8627968,1.1581192,0.3712463,1.7429314    c-0.424511,0.5050526-1.0917892,0.9862976-1.7488804,1.0679665c-0.1739368,0.0061779-0.3478775,0.0064659-0.5218258,0.0008621    c-0.2611485-0.086319-0.27145-0.0292969-0.0309029,0.1710682c-0.0672894-0.3089371,0.0065479-0.7052612,0.068203-1.0038567    c0.1577225-0.763855,0.671402-1.9789886,1.5959301-1.9208603c1.4459743,0.0909138,1.4405346-2.1594276,0-2.25    c-2.1082497-0.132555-3.5109234,2.039711-3.8269482,3.8948383c-0.1534729,0.9009018-0.2198334,2.0448112,0.4903736,2.7410412    c0.6087856,0.5968056,1.5569592,0.6663094,2.3608265,0.6072674c1.8126945-0.1331367,3.7281799-1.6958084,4.1891403-3.4625187    c0.4927597-1.8885994-0.8116722-4.1088181-2.9471626-3.8387394C30.6384354,24.7638779,30.6205177,27.0161438,32.055645,26.8346386    L32.055645,26.8346386z"/></g><g><path class="st0" d="M23.4193592,17.4307442c1.2091331,0.1207218,0.7776489,1.8474026,0.2871494,2.469305    c-0.6716137,0.8515339-1.9221954,1.1966572-2.9624786,1.1850281c-0.6447659-0.0072079-1.6889668-0.0702629-1.3408966-1.0610981    c0.1292439-0.3679123,0.847435-0.833313,1.1320591-1.1090679C21.4976177,17.9824734,21.9940071,17.348135,23.4193592,17.4307442    c1.4465237,0.0838356,1.4416943-2.1664448,0-2.25c-1.2328815-0.071454-2.267128,0.0819149-3.2104397,0.9209385    c-0.9360695,0.8325844-2.1878834,1.8176994-2.8402233,2.8950996c-1.4547348,2.4026394,1.1638298,4.3427868,3.3753338,4.338295    c2.2870007-0.0046463,4.7058735-1.1505299,5.4700432-3.4327602c0.7517071-2.2450027-0.4060211-4.4830818-2.794714-4.7215729    C21.9797134,15.0370073,21.9896946,17.2880039,23.4193592,17.4307442z"/></g><g><path class="st0" d="M24.7942104,46.4591446c0.9722214,0,1.9444447,0,2.916666,0c1.4477673,0,1.4501667-2.25,0-2.25    c-0.9722214,0-1.9444447,0-2.916666,0C23.3464432,44.2091446,23.3440437,46.4591446,24.7942104,46.4591446    c0.9722214,0,1.9444447,0,2.916666,0c1.4477673,0,1.4501667-2.25,0-2.25c-0.9722214,0-1.9444447,0-2.916666,0    C23.3464432,44.2091446,23.3440437,46.4591446,24.7942104,46.4591446z"/></g></g></svg>