<?xml version="1.0" ?><!DOCTYPE svg  PUBLIC '-//W3C//DTD SVG 1.1//EN'  'http://www.w3.org/Graphics/SVG/1.1/DTD/svg11.dtd'><svg height="512px" style="enable-background:new 0 0 512 512;" version="1.1" viewBox="0 0 512 512" width="512px" xml:space="preserve" xmlns="http://www.w3.org/2000/svg" xmlns:xlink="http://www.w3.org/1999/xlink"><g id="_x35_51_x2C__Lips__x2C__mouth_x2C__Valentine_x27_s_x2C__face_x2C__beauty"><g><path d="M253.85,337.551c70.811,0,94.94-33.87,137.061-64.94C382.71,339.84,325.44,391.92,256,391.92    c-71.73,0-130.47-55.569-135.56-126c39.64,33.41,60.02,71.511,130.46,71.511L253.85,337.551z" style="fill:#FFC592;"/><path d="M124.439,279.551c39.64,33.41,60.02,71.511,130.46,71.511l2.95,0.12    c66.273,0,91.658-29.669,129.17-58.943c1.759-6.369,3.072-12.921,3.891-19.628c-42.12,31.07-66.25,64.94-137.061,64.94l-2.95-0.12    c-70.44,0-90.82-38.101-130.46-71.511c0.886,12.257,3.4,24.062,7.321,35.203C126.1,294.125,124.972,286.921,124.439,279.551z" style="fill:#EFA873;"/><path d="M386.87,219.17c-39.22-19.02-77.93-44.72-98.42-44.72c-31.451,0-34.421,24.39-34.591,26.14    c-0.01,0.08-0.02,0.15-0.04,0.22l-0.56,2.13c0,0-4.34-28.49-36.96-28.49c-19.63,0-53.12,20.15-88.49,36.3    c18.64-52.82,68.99-90.67,128.19-90.67C318.3,120.08,370.81,162,386.87,219.17z" style="fill:#FFC592;"/><g><g><g><path d="M265.041,130.747c39.054,0,74.258,16.475,99.05,42.851       C339.256,141.071,300.081,120.08,256,120.08c-59.2,0-109.55,37.85-128.19,90.67c5.873-2.682,11.692-5.474,17.406-8.265       C168.128,159.785,213.188,130.747,265.041,130.747z" style="fill:#EFA873;"/></g><g><path d="M249.434,192.53c3.095,5.638,3.825,10.411,3.825,10.411l0.56-2.13       c0.02-0.07,0.03-0.14,0.04-0.22c0.033-0.339,0.175-1.538,0.606-3.238C253.049,195.673,251.385,194.037,249.434,192.53z" style="fill:#EFA873;"/></g></g></g><path d="M253.37,240.65c52.35,0,66.9,11.6,111.361,18.12c-44.461,6.52-59.011,24.41-111.361,24.41    c-41.64,0-107.97-23.99-106.1-24.41C168.689,253.95,211.379,240.65,253.37,240.65z" style="fill:#743629;"/><path d="M259.703,250.983c39.23,0,57.233,6.515,82.504,12.523c6.741-1.854,14.094-3.5,22.523-4.736    c-44.461-6.52-59.011-18.12-111.361-18.12c-41.99,0-84.68,13.3-106.1,18.12c-0.659,0.148,7.162,3.226,19.382,7.148    C189.91,260.044,225.039,250.983,259.703,250.983z" style="fill:#632A21;"/><path d="M288.45,174.45c20.49,0,59.2,25.7,98.42,44.72c20.51,9.95,41.16,18.08,59.42,19.75    c1.6,0.14,1.91,2.25,0.41,2.82c-22.99,8.77-40.57,19.64-55.79,30.87c-42.12,31.07-66.25,64.94-137.061,64.94l-2.95-0.12    c-70.44,0-90.82-38.101-130.46-71.511c-14.6-12.31-31.83-23.99-55.14-32.879c-1.5-0.58-1.19-2.69,0.42-2.83    c19.71-1.8,41.22-9.93,62.09-19.46c35.37-16.15,68.86-36.3,88.49-36.3c32.62,0,36.96,28.49,36.96,28.49l0.56-2.13    c0.02-0.07,0.03-0.14,0.04-0.22C254.029,198.84,257,174.45,288.45,174.45z M364.73,258.771    c-44.461-6.52-59.011-18.12-111.361-18.12c-41.99,0-84.68,13.3-106.1,18.12c-1.87,0.42,64.46,24.41,106.1,24.41    C305.72,283.181,320.27,265.29,364.73,258.771z" style="fill:#EF3E5C;"/><g><g><g><path d="M140.106,269.168c-14.6-12.31-31.83-23.99-55.14-32.879c-1.5-0.58-1.19-2.69,0.42-2.83       c19.71-1.8,41.22-9.93,62.09-19.46c33.968-15.51,66.194-34.698,86.083-36.196c-4.621-2.045-10.291-3.353-17.26-3.353       c-19.63,0-53.12,20.15-88.49,36.3c-20.87,9.53-42.38,17.66-62.09,19.46c-1.61,0.14-1.92,2.25-0.42,2.83       c23.31,8.89,40.54,20.57,55.14,32.879c36.447,30.719,56.616,65.399,114.38,70.788       C191.529,326.112,172.08,296.117,140.106,269.168z" style="fill:#E42A53;"/></g></g></g></g></g><g id="Layer_1"/></svg>