<?xml version="1.0" ?><!DOCTYPE svg  PUBLIC '-//W3C//DTD SVG 1.1//EN'  'http://www.w3.org/Graphics/SVG/1.1/DTD/svg11.dtd'><svg height="512px" style="enable-background:new 0 0 512 512;" version="1.1" viewBox="0 0 512 512" width="512px" xml:space="preserve" xmlns="http://www.w3.org/2000/svg" xmlns:xlink="http://www.w3.org/1999/xlink"><g id="_x35_56_x2C__Heart_x2C__Emoji_x2C__Smiley_x2C__Face_x2C__smile"><g><path d="M360.11,61.18c57.64,0,104.3,48.9,104.3,109.16c0,109.16-104.3,171.32-208.47,280.48    C151.77,341.66,47.59,279.5,47.59,170.34c0-60.26,46.66-109.16,104.18-109.16c52.08,0,78.13,27.29,104.17,81.87    C281.98,88.47,308.03,61.18,360.11,61.18z" style="fill:#EF3E5C;"/><g><g><g><path d="M78.839,185.952c0-60.261,46.66-109.16,104.18-109.16c10.618,0,20.139,1.154,28.814,3.423       c-15.92-12.677-34.964-19.035-60.063-19.035c-57.52,0-104.18,48.9-104.18,109.16c0,109.16,104.18,171.32,208.35,280.48       c2.628-2.754,5.255-5.47,7.882-8.166C167.996,347.699,78.839,286.934,78.839,185.952z" style="fill:#E42A53;"/></g></g></g><path d="M399.75,166.39c15.92,15.931,13.05,44.61-6.41,64.07c-19.46,19.47-48.149,22.34-64.07,6.41    c-15.93-15.92-13.06-44.61,6.4-64.07C355.14,153.34,383.82,150.47,399.75,166.39z" style="fill:#FFD15C;"/><path d="M338.56,243.203c-15.93-15.92-13.06-44.609,6.4-64.069c15.938-15.93,38.044-20.734,54.279-13.224    c-16.024-15.366-44.303-12.367-63.569,6.89c-19.46,19.46-22.33,48.15-6.4,64.07c2.893,2.894,6.21,5.159,9.813,6.825    C338.91,243.529,338.729,243.374,338.56,243.203z" style="fill:#EFBE52;"/><path d="M185.39,172.8c19.46,19.46,22.33,48.15,6.4,64.07c-15.92,15.93-44.61,13.06-64.07-6.41    c-19.46-19.46-22.33-48.14-6.41-64.07C137.24,150.47,165.92,153.34,185.39,172.8z" style="fill:#FFD15C;"/><path d="M139.207,230.46c-19.46-19.46-22.33-48.14-6.41-64.07c5.587-5.583,12.745-8.846,20.521-9.902    c-12.056-1.543-23.747,1.646-32.008,9.902c-15.92,15.931-13.05,44.61,6.41,64.07c12.634,12.641,29.156,18.275,43.551,16.319    C160.08,245.346,148.575,239.833,139.207,230.46z" style="fill:#EFBE52;"/><path d="M385.28,167.49c8.85,8.85,8.85,23.189,0,32.04c-8.84,8.84-23.19,8.84-32.03,0    c-8.85-8.851-8.85-23.19,0-32.04C362.09,158.64,376.44,158.64,385.28,167.49z" style="fill:#743629;"/><path d="M358.235,177.49c8.84-8.851,23.19-8.851,32.03,0c0.401,0.401,0.764,0.825,1.128,1.248    c-0.884-4.12-2.91-8.045-6.113-11.248c-8.84-8.851-23.19-8.851-32.03,0c-8.448,8.448-8.811,21.889-1.128,30.791    C350.563,191.017,352.589,183.138,358.235,177.49z" style="fill:#662C22;"/><path d="M166.16,166.39c8.85,8.851,8.85,23.19,0,32.04c-8.84,8.841-23.19,8.841-32.03,0    c-8.85-8.85-8.85-23.189,0-32.04C142.97,157.55,157.32,157.55,166.16,166.39z" style="fill:#743629;"/><path d="M142.463,174.39c7.311-7.311,18.381-8.557,26.996-3.775c-0.917-1.5-2.001-2.927-3.299-4.225    c-8.84-8.84-23.19-8.84-32.03,0c-8.85,8.851-8.85,23.19,0,32.04c1.529,1.53,3.232,2.776,5.034,3.776    C133.827,193.481,134.911,181.942,142.463,174.39z" style="fill:#662C22;"/><path d="M260.53,283.181h58.899c0,32.31-26.59,58.899-58.899,58.899c-32.31,0-58.9-26.59-58.9-58.899    H260.53z" style="fill:#FFC592;"/><path d="M213.963,293.181h58.9h45.688c0.566-3.255,0.879-6.593,0.879-10H260.53h-58.9    c0,21.226,11.476,39.98,28.51,50.353C220.14,322.958,213.963,308.738,213.963,293.181z" style="fill:#EFA873;"/><path d="M424.16,419.57H288.25c-2.762,0-5-2.238-5-5s2.238-5,5-5h135.91c2.762,0,5,2.238,5,5    S426.922,419.57,424.16,419.57z" style="fill:#EF3E5C;"/><path d="M388.98,374.271h-54.37c-2.762,0-5-2.238-5-5s2.238-5,5-5h54.37c2.762,0,5,2.238,5,5    S391.742,374.271,388.98,374.271z" style="fill:#EF3E5C;"/><path d="M225.75,419.57H80.78c-2.761,0-5-2.238-5-5s2.239-5,5-5h144.97c2.761,0,5,2.238,5,5    S228.511,419.57,225.75,419.57z" style="fill:#E42A53;"/><path d="M177.39,374.271h-54.37c-2.761,0-5-2.238-5-5s2.239-5,5-5h54.37c2.761,0,5,2.238,5,5    S180.151,374.271,177.39,374.271z" style="fill:#E42A53;"/></g></g><g id="Layer_1"/></svg>