<?xml version="1.0" ?><!DOCTYPE svg  PUBLIC '-//W3C//DTD SVG 1.1//EN'  'http://www.w3.org/Graphics/SVG/1.1/DTD/svg11.dtd'><svg height="512px" style="enable-background:new 0 0 512 512;" version="1.1" viewBox="0 0 512 512" width="512px" xml:space="preserve" xmlns="http://www.w3.org/2000/svg" xmlns:xlink="http://www.w3.org/1999/xlink"><g id="_x36_56_x2C__gift_x2C__love_x2C__heart_x2C__wedding"><g><path d="M80.39,378.33c10.01,0,18.13,8.11,18.13,18.12s-8.12,18.12-18.13,18.12    c-10.01,0-18.12-8.11-18.12-18.12S70.38,378.33,80.39,378.33z" style="fill:#FFC230;"/><path d="M66.109,407.116c0-10.01,8.11-18.12,18.12-18.12c5.796,0,10.946,2.729,14.266,6.963    c-0.263-9.78-8.261-17.629-18.105-17.629c-10.01,0-18.12,8.11-18.12,18.12c0,4.216,1.451,8.085,3.864,11.163    C66.13,407.446,66.109,407.284,66.109,407.116z" style="fill:#EAA51C;"/><path d="M379.41,61.18c10.01,0,18.12,8.12,18.12,18.131c0,10-8.11,18.119-18.12,18.119    s-18.12-8.119-18.12-18.119C361.29,69.3,369.4,61.18,379.41,61.18z" style="fill:#FFC230;"/><path d="M383.41,74.159c5.666,0,10.721,2.604,14.043,6.679c0.042-0.505,0.077-1.012,0.077-1.527    c0-10.011-8.11-18.131-18.12-18.131s-18.12,8.12-18.12,18.131c0,4.339,1.53,8.321,4.077,11.443    C366.148,81.463,373.919,74.159,383.41,74.159z" style="fill:#EAA51C;"/><path d="M442.84,142.73c10.01,0,18.12,8.119,18.12,18.13c0,10.01-8.11,18.12-18.12,18.12    s-18.12-8.11-18.12-18.12C424.72,150.85,432.83,142.73,442.84,142.73z" style="fill:#FFC230;"/><path d="M446.173,154.063c6.088,0,11.46,3.014,14.745,7.619c0.013-0.274,0.042-0.545,0.042-0.822    c0-10.011-8.11-18.13-18.12-18.13s-18.12,8.119-18.12,18.13c0,3.922,1.258,7.542,3.375,10.507    C428.529,161.743,436.442,154.063,446.173,154.063z" style="fill:#EAA51C;"/><path d="M143.82,414.57v-116.56l97.24-64.661h201.78V450.82H143.82V414.57z M407.25,365.271    c11.93-11.931,11.06-32.16-1.98-45.19c-11.77-11.779-23.069-12.27-39.76-7.359c4.91-16.69,4.42-27.98-7.359-39.771    c-13-13-33.23-13.88-45.17-1.95c-21.601,21.61-10.351,57.48-8.4,102.65C349.75,375.601,385.65,386.88,407.25,365.271z     M249.29,367.07c1.36-31.54,9.24-56.61-5.85-71.7c-8.33-8.33-22.46-7.72-31.57,1.38c-8.22,8.23-8.56,16.11-5.13,27.78    c-11.66-3.44-19.55-3.1-27.78,5.13c-9.08,9.09-9.69,23.22-1.36,31.55C192.69,376.301,217.74,368.44,249.29,367.07z" style="fill:#415A6B;"/><g><polygon points="152.153,420.904 152.153,304.345 249.394,239.684 442.84,239.684 442.84,233.35      241.06,233.35 143.82,298.011 143.82,414.57 143.82,450.82 152.153,450.82    " style="fill:#304956;"/><path d="M257.623,373.404c1.36-31.54,9.24-56.61-5.85-71.7c-1.904-1.903-4.12-3.317-6.5-4.292     c12.565,15.258,5.317,39.496,4.017,69.658c-26.838,1.166-48.969,7.019-64.27-0.547c0.299,0.344,0.587,0.694,0.914,1.021     C201.023,382.635,226.074,374.774,257.623,373.404z" style="fill:#304956;"/><path d="M415.584,371.604c11.93-11.931,11.059-32.16-1.98-45.19c-2.937-2.939-5.844-5.175-8.813-6.8     c0.159,0.156,0.318,0.306,0.479,0.466c13.04,13.03,13.91,33.26,1.98,45.19c-20.305,20.313-53.249,11.565-94.648,8.823     c0.118,1.948,0.227,3.907,0.313,5.891C358.084,381.935,393.984,393.214,415.584,371.604z" style="fill:#304956;"/><path d="M358.377,273.184c11.554,11.706,12.011,22.957,7.133,39.537c3.738-1.1,7.204-1.926,10.467-2.418     c2.207-12.136,0.106-21.411-9.492-31.019C364.009,276.809,361.27,274.775,358.377,273.184z" style="fill:#304956;"/></g><path d="M405.27,320.08c13.04,13.03,13.91,33.26,1.98,45.19c-21.6,21.609-57.5,10.33-102.67,8.38    c-1.95-45.17-13.2-81.04,8.4-102.65c11.939-11.93,32.17-11.05,45.17,1.95c11.779,11.79,12.27,23.08,7.359,39.771    C382.2,307.811,393.5,308.301,405.27,320.08z" style="fill:#EF3E5C;"/><g><g><g><path d="M321.313,281.587c11.571-11.562,30.93-11.092,43.947,0.782c-1.647-3.178-3.976-6.281-7.11-9.419       c-13-13-33.23-13.88-45.17-1.95c-21.601,21.61-10.351,57.48-8.4,102.65c2.612,0.113,5.189,0.26,7.739,0.427       C309.434,333.688,301.359,301.55,321.313,281.587z" style="fill:#E42A53;"/></g></g></g><path d="M243.44,295.37c15.09,15.09,7.21,40.16,5.85,71.7c-31.55,1.37-56.6,9.23-71.69-5.86    c-8.33-8.33-7.72-22.46,1.36-31.55c8.23-8.229,16.12-8.57,27.78-5.13c-3.43-11.67-3.09-19.55,5.13-27.78    C220.98,287.65,235.11,287.04,243.44,295.37z" style="fill:#EF3E5C;"/><path d="M187.293,337.762c8.23-8.229,16.12-8.57,27.78-5.13c-3.43-11.67-3.09-19.55,5.13-27.78    c7.619-7.61,18.738-9.258,27.05-4.729c-1.069-1.677-2.326-3.265-3.813-4.752c-8.33-8.33-22.46-7.72-31.57,1.38    c-8.22,8.23-8.56,16.11-5.13,27.78c-11.66-3.44-19.55-3.1-27.78,5.13c-9.08,9.09-9.69,23.22-1.36,31.55    c1.647,1.647,3.42,3.007,5.301,4.146C177.979,356.989,179.526,345.537,187.293,337.762z" style="fill:#E42A53;"/><polygon points="71.11,302.84 51.04,272.66 330.21,87.01 370.35,147.37 241.06,233.35 143.82,298.011     91.18,333.021   " style="fill:#FFC230;"/><polygon points="85.054,306.484 64.984,276.305 336.166,95.967 330.21,87.01 51.04,272.66 71.11,302.84     91.18,333.021 99.168,327.708   " style="fill:#EAA51C;"/><path d="M192.33,176.76c-4.75-16.109-20.67-49.35-18.21-61.569c3.43-17.051,19.46-28.24,35.76-24.96    c16.34,3.29,26.79,19.81,23.36,36.859C230.77,139.39,203.17,163.51,192.33,176.76z" style="fill:#415A6B;"/><path d="M180.937,124.711c3.43-17.051,19.46-28.24,35.76-24.96c5.532,1.113,10.385,3.747,14.257,7.401    c-3.914-8.489-11.475-14.989-21.074-16.922c-16.3-3.28-32.33,7.909-35.76,24.96c-2.46,12.22,13.46,45.46,18.21,61.569    c0.75-0.916,1.587-1.89,2.483-2.903C188.387,156.816,179.007,134.297,180.937,124.711z" style="fill:#304956;"/><path d="M142.61,136.15c12.21,2.449,36.7,29.989,49.72,40.609c-16.41,4.87-49.32,20.99-61.62,18.511    c-17.05-3.431-28.25-19.46-24.96-35.801C109.03,143.17,125.55,132.72,142.61,136.15z" style="fill:#415A6B;"/><path d="M105.75,170.717c3.28-16.3,19.8-26.75,36.86-23.32c9.751,1.957,27.331,19.91,40.649,32.474    c3.348-1.245,6.426-2.325,9.071-3.11c-13.02-10.62-37.51-38.16-49.72-40.609c-17.06-3.431-33.58,7.02-36.86,23.319    c-0.775,3.851-0.737,7.683-0.016,11.338C105.74,170.777,105.744,170.747,105.75,170.717z" style="fill:#304956;"/><path d="M79.98,307.841c-1.618,0-3.205-0.784-4.168-2.232c-1.529-2.3-0.904-5.403,1.395-6.932l173.54-115.4    c2.298-1.527,5.403-0.905,6.933,1.396c1.528,2.299,0.904,5.402-1.396,6.932L82.744,307.003    C81.893,307.569,80.931,307.841,79.98,307.841z" style="fill:#EAA51C;"/><path d="M375.35,419.57H148.82c-2.761,0-5-2.238-5-5s2.239-5,5-5h226.53c2.762,0,5,2.238,5,5    S378.111,419.57,375.35,419.57z" style="fill:#304956;"/></g></g><g id="Layer_1"/></svg>