<?xml version="1.0" ?><!DOCTYPE svg  PUBLIC '-//W3C//DTD SVG 1.1//EN'  'http://www.w3.org/Graphics/SVG/1.1/DTD/svg11.dtd'><svg height="512px" style="enable-background:new 0 0 512 512;" version="1.1" viewBox="0 0 512 512" width="512px" xml:space="preserve" xmlns="http://www.w3.org/2000/svg" xmlns:xlink="http://www.w3.org/1999/xlink"><g id="_x36_99_x2C__Hearts_x2C__love_x2C__loving_x2C__wedding"><g><path d="M57.32,180.08c-1.279,0-2.559-0.487-3.535-1.463c-1.953-1.952-1.954-5.118-0.002-7.071    l76.881-76.892c1.953-1.952,5.118-1.952,7.071,0c1.953,1.953,1.953,5.119,0,7.071l-76.879,76.89    C59.88,179.592,58.601,180.08,57.32,180.08z" style="fill:#924B35;"/><path d="M392.81,54.15c6.78,0,12.271,5.04,12.271,11.239c0,11.24-12.271,17.641-24.53,28.891    c-12.26-11.25-24.51-17.65-24.51-28.891c0-6.199,5.489-11.239,12.25-11.239c6.13,0,9.199,2.81,12.26,8.43    C383.609,56.96,386.68,54.15,392.81,54.15z" style="fill:#EF3E5C;"/><g><g><g><path d="M368.61,71.061c0-5.61,4.5-10.257,10.364-11.093c-2.617-3.874-5.595-5.817-10.685-5.817       c-6.761,0-12.25,5.04-12.25,11.239c0,11.24,12.25,17.641,24.51,28.891c0.965-0.886,1.929-1.738,2.888-2.568       C375.143,84.895,368.61,79.267,368.61,71.061z" style="fill:#E42A53;"/></g></g></g><path d="M455.71,335.05v54.37c0,15.01-12.17,27.18-27.181,27.18h-18.13h-9.06H120.45h-9.07H93.26    c-15.01,0-27.18-12.17-27.18-27.18v-54.37c0-15.01,12.17-27.18,27.18-27.18c7.51,0,14.3,3.04,19.22,7.96    c4.931,4.92,7.971,11.71,7.971,19.22c0,15.01,12.17,27.18,27.18,27.18h27.18l18.12-72.489H138.57c-7.511,0-14.311-3.04-19.23-7.96    s-7.96-11.721-7.96-19.221c0-15.01,12.17-27.18,27.19-27.18h70.659c-10.979-14.43-17.649-33.479-17.649-54.37    c0-11.05,1.87-21.59,5.25-31.199c-7.771-4.79-12.96-13.37-12.96-23.171c0-15.01,12.17-27.18,27.189-27.18    c7.63,0,14.53,3.15,19.471,8.22c9.17-5.26,19.47-8.22,30.359-8.22c10.9,0,21.2,2.96,30.37,8.22c4.939-5.069,11.83-8.22,19.47-8.22    c15.01,0,27.18,12.17,27.18,27.18c0,9.801-5.18,18.381-12.96,23.171c3.391,9.609,5.261,20.149,5.261,31.199    c0,20.891-6.681,39.94-17.65,54.37h70.66c7.51,0,14.3,3.04,19.22,7.96s7.96,11.72,7.96,19.22c0,15.011-12.17,27.181-27.18,27.181    h-54.37l18.13,72.489h27.18c7.511,0,14.301-3.04,19.221-7.96s7.96-11.71,7.96-19.22c0-15.01,12.17-27.18,27.189-27.18    C443.54,307.87,455.71,320.04,455.71,335.05z M299.85,326.82c0-11.011-8.92-19.931-19.95-19.931c-9.96,0-14.939,4.98-19.93,14.94    c-4.979-9.96-9.96-14.94-19.92-14.94c-11.01,0-19.93,8.92-19.93,19.931c0,19.92,19.93,31.27,39.85,51.199    C279.899,358.09,299.85,346.74,299.85,326.82z M292.609,203.66c0-12.51-14.2-22.65-31.72-22.65c-17.51,0-31.71,10.141-31.71,22.65    s14.2,22.65,31.71,22.65C278.409,226.311,292.609,216.17,292.609,203.66z" style="fill:#FFCDD2;"/><g><path d="M77.747,394.022v-54.369c0-15.01,12.17-27.18,27.18-27.18c1.314,0,2.605,0.099,3.87,0.278     c-4.404-3.074-9.755-4.882-15.537-4.882c-15.01,0-27.18,12.17-27.18,27.18v54.37c0,13.697,10.136,25.024,23.314,26.901     C82.356,411.409,77.747,403.256,77.747,394.022z" style="fill:#EDB2BB;"/><path d="M134.69,289.461c-1.316-0.919-2.552-1.945-3.684-3.077c-4.92-4.92-7.96-11.721-7.96-19.221     c0-15.01,12.17-27.18,27.19-27.18h70.659c-10.979-14.431-17.649-33.48-17.649-54.37c0-11.05,1.87-21.59,5.25-31.2     c-7.771-4.79-12.96-13.37-12.96-23.17c0-15.01,12.17-27.18,27.189-27.18c1.314,0,2.605,0.1,3.87,0.28     c-4.406-3.076-9.762-4.884-15.537-4.884c-15.02,0-27.189,12.17-27.189,27.18c0,9.801,5.189,18.381,12.96,23.171     c-3.38,9.609-5.25,20.149-5.25,31.199c0,20.891,6.67,39.94,17.649,54.37H138.57c-15.021,0-27.19,12.17-27.19,27.18     c0,7.5,3.04,14.301,7.96,19.221C123.396,285.837,128.732,288.61,134.69,289.461z" style="fill:#EDB2BB;"/></g><path d="M146.34,128.26c4.51,2.44,8.56,5.74,11.98,9.71c-3.37,3.91-7.351,7.181-11.771,9.61    c-5.65,3.1-12.02,4.84-18.76,4.84c-6.88,0-13.391-1.819-19.12-5.05c-4.28-2.41-8.13-5.6-11.4-9.4c3.32-3.859,7.24-7.08,11.59-9.5    c5.69-3.17,12.12-4.949,18.931-4.949C134.45,123.521,140.75,125.22,146.34,128.26z" style="fill:#8EAA39;"/><path d="M146.34,128.26c-5.59-3.04-11.89-4.739-18.55-4.739c-6.811,0-13.24,1.779-18.931,4.949    c-4.35,2.42-8.27,5.641-11.59,9.5c0.579,0.673,1.183,1.319,1.797,1.953c1.528-1.151,3.129-2.197,4.793-3.123    c5.69-3.17,12.12-4.949,18.931-4.949c6.66,0,12.96,1.699,18.55,4.739c3.746,2.027,7.169,4.655,10.184,7.76    c2.465-1.86,4.745-3.999,6.797-6.38C154.899,134,150.85,130.7,146.34,128.26z" style="fill:#80962D;"/><path d="M81.07,111.48c3.1,5.64,4.85,12.01,4.85,18.75c0,6.89-1.83,13.39-5.061,19.12    c-1.81,3.21-4.05,6.18-6.659,8.84c-0.87,0.89-1.78,1.739-2.73,2.56c-3.86-3.32-7.09-7.24-9.51-11.59    c-3.16-5.69-4.94-12.12-4.94-18.93c0-6.66,1.7-12.96,4.73-18.551c2.439-4.51,5.75-8.56,9.72-11.979    C75.38,103.07,78.64,107.05,81.07,111.48z" style="fill:#8EAA39;"/><path d="M63.37,139.563c0-6.66,1.7-12.96,4.729-18.55c2.44-4.51,5.75-8.56,9.721-11.98    c1.424,1.229,2.76,2.539,4.003,3.921c-0.245-0.494-0.487-0.99-0.753-1.474c-2.431-4.431-5.69-8.41-9.601-11.78    c-3.97,3.42-7.28,7.47-9.72,11.979c-3.03,5.591-4.73,11.891-4.73,18.551c0,6.81,1.78,13.239,4.94,18.93    c1.521,2.735,3.364,5.3,5.482,7.653C64.833,151.548,63.37,145.714,63.37,139.563z" style="fill:#80962D;"/><path d="M279.899,306.89c11.03,0,19.95,8.92,19.95,19.931c0,19.92-19.95,31.27-39.88,51.199    c-19.92-19.93-39.85-31.279-39.85-51.199c0-11.011,8.92-19.931,19.93-19.931c9.96,0,14.94,4.98,19.92,14.94    C264.96,311.87,269.939,306.89,279.899,306.89z" style="fill:#EF3E5C;"/><g><g><g><path d="M232.514,333.153c0-11.011,8.92-19.931,19.93-19.931c0.753,0,1.468,0.038,2.166,0.095       c-3.651-4.275-8.034-6.428-14.56-6.428c-11.01,0-19.93,8.92-19.93,19.931c0,19.92,19.93,31.27,39.85,51.199       c0.935-0.935,1.869-1.845,2.802-2.744C246.513,360.525,232.514,349.848,232.514,333.153z" style="fill:#E42A53;"/></g></g></g><path d="M459.68,100.45c0,9.41-4.311,14.11-12.93,18.81c8.619,4.7,12.93,9.4,12.93,18.801    c0,10.399-7.72,18.819-17.24,18.819c-17.25,0-27.06-18.819-44.31-37.62c17.25-18.81,27.06-37.609,44.31-37.609    C451.96,81.65,459.68,90.07,459.68,100.45z" style="fill:#EF3E5C;"/><g><g><g><path d="M447.439,91.436c4.611,0,8.791,1.987,11.885,5.204c-1.615-8.554-8.562-14.989-16.885-14.989       c-17.25,0-27.06,18.8-44.31,37.609c2.398,2.614,4.649,5.227,6.8,7.791C421.081,108.93,430.8,91.436,447.439,91.436z" style="fill:#E42A53;"/></g></g></g><path d="M173.12,60.063c1.09,5.85,1.17,11.56,0.189,16.85c-1.239,6.74-4.189,12.79-8.96,17.55    c-4.87,4.87-11.08,7.851-18.01,9.04c-5.16,0.891-10.71,0.79-16.39-0.27c-1.07-5.771-1.16-11.4-0.23-16.63    c1.22-6.82,4.19-12.95,9-17.771c4.71-4.71,10.67-7.65,17.32-8.91C161.39,58.902,167.18,58.962,173.12,60.063z" style="fill:#8EAA39;"/><path d="M129.72,96.603c1.22-6.82,4.19-12.95,9-17.771c4.71-4.71,10.67-7.65,17.32-8.91    c5.35-1.02,11.14-0.96,17.08,0.141c0.254,1.364,0.447,2.721,0.592,4.066c0.509-4.489,0.31-9.228-0.592-14.066    c-5.94-1.101-11.73-1.16-17.08-0.141c-6.65,1.26-12.61,4.2-17.32,8.91c-4.81,4.82-7.78,10.95-9,17.771    c-0.71,3.991-0.821,8.217-0.36,12.56C129.457,98.3,129.57,97.444,129.72,96.603z" style="fill:#80962D;"/><path d="M260.89,181.01c17.52,0,31.72,10.141,31.72,22.65s-14.2,22.65-31.72,22.65    c-17.51,0-31.71-10.141-31.71-22.65S243.38,181.01,260.89,181.01z" style="fill:#415A6B;"/><path d="M234.181,212.327c0-12.51,14.199-22.65,31.71-22.65c10.879,0,20.474,3.912,26.188,9.871    c-2.71-10.545-15.637-18.538-31.188-18.538c-17.51,0-31.71,10.141-31.71,22.65c0,4.742,2.044,9.143,5.532,12.78    C234.369,215.105,234.181,213.732,234.181,212.327z" style="fill:#314956;"/><path d="M437.59,457.85h-99.681c-2.762,0-5-2.238-5-5s2.238-5,5-5h99.681c2.762,0,5,2.238,5,5    S440.352,457.85,437.59,457.85z" style="fill:#FFCDD2;"/><path d="M192.93,457.85H93.26c-2.761,0-5-2.238-5-5s2.239-5,5-5h99.67c2.762,0,5,2.238,5,5    S195.691,457.85,192.93,457.85z" style="fill:#FFCDD2;"/><circle cx="232.513" cy="144.547" r="7.542" style="fill:#415A6B;"/><circle cx="283.513" cy="144.547" r="7.542" style="fill:#415A6B;"/></g></g><g id="Layer_1"/></svg>