<?xml version="1.0" ?><!DOCTYPE svg  PUBLIC '-//W3C//DTD SVG 1.1//EN'  'http://www.w3.org/Graphics/SVG/1.1/DTD/svg11.dtd'><svg height="512px" style="enable-background:new 0 0 512 512;" version="1.1" viewBox="0 0 512 512" width="512px" xml:space="preserve" xmlns="http://www.w3.org/2000/svg" xmlns:xlink="http://www.w3.org/1999/xlink"><g id="_x36_22_x2C__laptop_x2C__love_x2C__heart_x2C__wedding"><g><path d="M371.07,90.128c9.109,9.11,9.72,23.26,1.38,31.601c-0.021,0.029-0.05,0.05-0.07,0.069    c-15.12,15.011-40.189,7.15-71.72,5.79c-0.09-1.96-0.2-3.89-0.33-5.79c-1.92-28.859-7.97-51.81,6.2-65.989    c8.34-8.341,22.489-7.73,31.59,1.369c8.229,8.23,8.58,16.131,5.14,27.801C354.93,81.548,362.83,81.888,371.07,90.128z" style="fill:#EF3E5C;"/><g><g><g><path d="M316.058,67.309c7.27-7.271,18.951-7.734,27.857-1.709c-1.138-2.875-3.004-5.631-5.795-8.422       c-9.101-9.1-23.25-9.71-31.59-1.369c-14.17,14.18-8.12,37.13-6.2,65.989c0.13,1.9,0.24,3.83,0.33,5.79       c2.996,0.13,5.933,0.317,8.809,0.539C307.279,101.694,302.745,80.63,316.058,67.309z" style="fill:#E42A53;"/></g></g></g><path d="M300.66,127.588c31.53,1.36,56.6,9.221,71.72-5.79h48.76c16.391,0,29.681,13.28,29.681,29.67    v242.171h-36.25v-36.25V158.038H266.44c-1.561-3.9-3.811-7.43-6.95-10.58c-9.23-9.229-24.891-8.55-34.98,1.54    c-3,3-5.04,5.96-6.31,9.04H97.43v235.601H61.18V151.468c0-16.39,13.29-29.67,29.68-29.67h90.07h32.6h86.751h0.05    C300.46,123.698,300.57,125.628,300.66,127.588z" style="fill:#415A6B;"/><g><path d="M71.18,163.658c0-16.391,13.29-29.67,29.68-29.67h90.07h32.6h86.751h0.05     c0.13,1.899,0.24,3.83,0.33,5.79c31.53,1.359,56.6,9.22,71.72-5.79h48.76c6.382,0,12.289,2.021,17.13,5.446     c-4.618-10.39-15.025-17.637-27.13-17.637h-48.76c-15.12,15.011-40.189,7.15-71.72,5.79c-0.09-1.96-0.2-3.89-0.33-5.79h-0.05     h-86.751h-32.6h-90.07c-16.39,0-29.68,13.28-29.68,29.67v242.171h10V163.658z" style="fill:#324956;"/><path d="M265.886,156.741c0.193,0.429,0.38,0.859,0.555,1.297h1.252     C267.109,157.571,266.506,157.142,265.886,156.741z" style="fill:#324956;"/></g><path d="M188.04,185.458c9.12-9.11,17.859-9.49,30.779-5.689c-2.55-8.66-3.21-15.45-0.619-21.73    c1.27-3.08,3.31-6.04,6.31-9.04c10.09-10.09,25.75-10.77,34.98-1.54c3.14,3.15,5.39,6.68,6.95,10.58    c6.739,16.85,0.76,40.5-0.471,68.88c-34.96,1.51-62.72,10.22-79.44-6.5C177.3,211.188,177.979,195.528,188.04,185.458z" style="fill:#EF3E5C;"/><g><g><g><path d="M266.44,158.038c-1.561-3.9-3.811-7.43-6.95-10.58c-9.23-9.229-24.891-8.55-34.98,1.54       c-3,3-5.04,5.96-6.31,9.04c-0.08,0.194-0.147,0.39-0.222,0.585c10.084-8.637,24.609-8.799,33.36-0.049       c3.14,3.149,5.39,6.68,6.95,10.58c5.875,14.688,2.085,34.545,0.201,58.196c2.456-0.173,4.946-0.323,7.479-0.433       C267.2,198.538,273.18,174.888,266.44,158.038z" style="fill:#E42A53;"/></g></g></g><path d="M342.81,263.748c6.761,6.761,7.21,17.25,1.03,23.44c-11.21,11.2-29.82,5.35-53.24,4.34    c-1.01-23.42-6.85-42.021,4.36-53.22c6.18-6.19,16.67-5.73,23.42,1.01c6.101,6.109,6.36,11.96,3.811,20.62    C330.85,257.389,336.7,257.639,342.81,263.748z" style="fill:#EF3E5C;"/><g><g><g><path d="M302.442,248.309c5.411-5.421,14.127-5.741,20.743-1.212c-0.728-2.697-2.247-5.217-4.806-7.778       c-6.75-6.74-17.24-7.2-23.42-1.01c-11.21,11.199-5.37,29.8-4.36,53.22c2.326,0.101,4.602,0.249,6.83,0.424       C295.767,273.031,292.808,257.935,302.442,248.309z" style="fill:#E42A53;"/></g></g></g><path d="M221.64,291.828c11.21,11.2,5.36,29.811,4.351,53.23c-23.421,1.01-42.021,6.85-53.221-4.351    c-6.189-6.189-5.74-16.68,1.01-23.42c6.11-6.109,11.961-6.359,20.62-3.819c-2.55-8.65-2.3-14.511,3.811-20.62    C204.97,286.099,215.46,285.639,221.64,291.828z" style="fill:#EF3E5C;"/><g><g><g><path d="M221.64,291.828c-6.18-6.189-16.67-5.729-23.43,1.021c-2.843,2.842-4.404,5.634-5.018,8.674       c6.489-3.893,14.646-3.378,19.806,1.79c9.396,9.388,6.808,23.984,5.129,42.253c2.556-0.21,5.176-0.391,7.863-0.507       C227,321.639,232.85,303.028,221.64,291.828z" style="fill:#E42A53;"/></g></g></g><path d="M186.529,220.418c16.721,16.72,44.48,8.01,79.44,6.5c1.23-28.38,7.21-52.03,0.471-68.88h148.13    v199.351v36.25H333.02h-154.04H97.43V158.038H218.2c-2.591,6.28-1.931,13.07,0.619,21.73c-12.92-3.801-21.659-3.421-30.779,5.689    C177.979,195.528,177.3,211.188,186.529,220.418z M343.84,287.188c6.18-6.19,5.73-16.68-1.03-23.44    c-6.109-6.109-11.96-6.359-20.619-3.81c2.55-8.66,2.29-14.511-3.811-20.62c-6.75-6.74-17.24-7.2-23.42-1.01    c-11.21,11.199-5.37,29.8-4.36,53.22C314.02,292.538,332.63,298.389,343.84,287.188z M225.99,345.059    c1.01-23.42,6.859-42.03-4.351-53.23c-6.18-6.189-16.67-5.729-23.43,1.021c-6.11,6.109-6.36,11.97-3.811,20.62    c-8.659-2.54-14.51-2.29-20.62,3.819c-6.75,6.74-7.199,17.23-1.01,23.42C183.97,351.908,202.569,346.068,225.99,345.059z     M142.729,257.719v-18.131h-18.12v18.131H142.729z M142.729,230.528v-18.12h-18.12v18.12H142.729z M142.729,203.348v-18.119    h-18.12v18.119H142.729z" style="fill:#CAE8FB;"/><g><path d="M107.315,169.67h109.39c-0.406-4.22,0.002-8.012,1.495-11.632H97.43v235.601h9.886V169.67z" style="fill:#A4CADD;"/></g><polygon points="468.94,393.639 468.94,414.538 367.46,457.068 142.88,457.068 43.06,413.599     43.06,393.639 61.18,393.639 97.43,393.639 178.979,393.639 178.979,420.818 333.02,420.818 333.02,393.639 414.57,393.639     450.82,393.639   " style="fill:#324956;"/><g><g><g><polygon points="53.849,403.139 71.969,403.139 108.219,403.139 178.979,403.139 178.979,393.639        97.43,393.639 61.18,393.639 43.06,393.639 43.06,413.599 53.849,418.297      " style="fill:#253A44;"/></g></g></g><rect height="27.18" style="fill:#E37372;" width="154.04" x="178.979" y="393.639"/><polygon points="188.229,401.889 333.02,401.889 333.02,393.639 178.979,393.639 178.979,420.818     188.229,420.818   " style="fill:#CE6161;"/><rect height="18.131" style="fill:#EF3E5C;" width="18.12" x="124.609" y="239.588"/><rect height="18.12" style="fill:#EF3E5C;" width="18.12" x="124.609" y="212.408"/><rect height="18.119" style="fill:#EF3E5C;" width="18.12" x="124.609" y="185.229"/><path d="M459.88,462.068H52.12c-2.762,0-5-2.238-5-5s2.238-5,5-5h407.76c2.762,0,5,2.238,5,5    S462.642,462.068,459.88,462.068z" style="fill:#324956;"/></g></g><g id="Layer_1"/></svg>