<?xml version="1.0" ?><svg viewBox="0 0 64 64" xmlns="http://www.w3.org/2000/svg"><title/><g data-name="26 embarrased" id="_26_embarrased"><circle cx="42.38" cy="22.15" r="1.77" style="fill:#d0d0e0"/><path d="M27.08,43.04a6.06,6.06,0,0,1-2.15.56s-.23-.22-.23-1.38a10.974,10.974,0,0,1,1.46-5.29,1,1,0,0,0,.3.06H37.54a1,1,0,0,0,.3-.06,10.974,10.974,0,0,1,1.46,5.29c0,1.15-.23,1.38-.22,1.38a5.842,5.842,0,0,1-2.16-.56A13.968,13.968,0,0,0,32,41.91,13.968,13.968,0,0,0,27.08,43.04Z" style="fill:#eb979a"/><path d="M36.43,34.99H27.57A6.152,6.152,0,0,1,32,32.84,6.152,6.152,0,0,1,36.43,34.99Z" style="fill:#b59b98"/><circle cx="21.62" cy="22.15" r="1.77" style="fill:#d0d0e0"/><path d="M48.45,28.32a1,1,0,0,0-1.9-.64l-2,6a1.011,1.011,0,0,0,.63,1.27,1.248,1.248,0,0,0,.32.05,1,1,0,0,0,.95-.68Zm3.1-.64-2,6a1.011,1.011,0,0,0,.63,1.27,1.248,1.248,0,0,0,.32.05,1,1,0,0,0,.95-.68l2-6a1,1,0,0,0-1.9-.64ZM13.82,34.95a1.011,1.011,0,0,0,.63-1.27l-2-6a1,1,0,0,0-1.9.64l2,6a1,1,0,0,0,.95.68A1.248,1.248,0,0,0,13.82,34.95Zm1.73-6.63,2,6a1,1,0,0,0,.95.68,1.248,1.248,0,0,0,.32-.05,1.011,1.011,0,0,0,.63-1.27l-2-6a1,1,0,0,0-1.9.64Zm45.43-9.13a1.108,1.108,0,0,0,.02.19A26.668,26.668,0,0,1,53.75,37.5L33.36,59.25a1.907,1.907,0,0,1-2.72,0L10.25,37.5A26.761,26.761,0,0,1,3,19.38a1.108,1.108,0,0,0,.02-.19,15.48,15.48,0,0,1,28.16-8.42,1.045,1.045,0,0,0,1.64,0,15.48,15.48,0,0,1,28.16,8.42Zm-9.07.19a1,1,0,0,0-1-1h-8.3c-.03,0-.05.02-.08.02-.05,0-.1-.02-.15-.02a3.818,3.818,0,1,0,3.31,2h5.22A1,1,0,0,0,51.91,19.38ZM41.3,42.22c0-5.38-3.98-11.38-9.3-11.38s-9.3,6-9.3,11.38c0,.97.11,2.35,1.08,3.03,1.07.74,2.43.24,3.99-.34a12.376,12.376,0,0,1,4.23-1,12.376,12.376,0,0,1,4.23,1,8.575,8.575,0,0,0,2.72.71,2.217,2.217,0,0,0,1.27-.37C41.19,44.57,41.3,43.19,41.3,42.22ZM31.16,19.38a1,1,0,0,0-1-1H21.85c-.02,0-.05.02-.07.02-.06,0-.11-.02-.16-.02a3.818,3.818,0,1,0,3.31,2h5.23A1,1,0,0,0,31.16,19.38Z" style="fill:#d83037"/><path d="M52.82,27.05a1.011,1.011,0,0,1,.63,1.27l-2,6a1,1,0,0,1-.95.68,1.248,1.248,0,0,1-.32-.05,1.011,1.011,0,0,1-.63-1.27l2-6A1.011,1.011,0,0,1,52.82,27.05Z" style="fill:#f2ed8c"/><path d="M47.82,27.05a1.011,1.011,0,0,1,.63,1.27l-2,6a1,1,0,0,1-.95.68,1.248,1.248,0,0,1-.32-.05,1.011,1.011,0,0,1-.63-1.27l2-6A1.011,1.011,0,0,1,47.82,27.05Z" style="fill:#f2ed8c"/><path d="M15.55,28.32a1,1,0,0,1,1.9-.64l2,6a1.011,1.011,0,0,1-.63,1.27,1.248,1.248,0,0,1-.32.05,1,1,0,0,1-.95-.68Z" style="fill:#f2ed8c"/><path d="M14.45,33.68a1.011,1.011,0,0,1-.63,1.27,1.248,1.248,0,0,1-.32.05,1,1,0,0,1-.95-.68l-2-6a1,1,0,0,1,1.9-.64Z" style="fill:#f2ed8c"/></g></svg>