<?xml version="1.0" ?><!DOCTYPE svg  PUBLIC '-//W3C//DTD SVG 1.1//EN'  'http://www.w3.org/Graphics/SVG/1.1/DTD/svg11.dtd'><svg enable-background="new 0 0 91 91" height="91px" id="Layer_1" version="1.1" viewBox="0 0 91 91" width="91px" xml:space="preserve" xmlns="http://www.w3.org/2000/svg" xmlns:xlink="http://www.w3.org/1999/xlink"><g><path d="M60.632,72.559c10.62-0.188,20.012-7.36,19.718-18.598c-0.286-10.914-9.451-18.579-19.933-19.206   c-1.723-0.103-2.844,0.827-3.361,2.069c-3.535,0.191-7.332,2.567-9.614,4.774c-3.311,3.196-5.348,7.856-5.446,12.446   C41.769,64.414,50.423,72.74,60.632,72.559z M47.266,53.05c0.254-3.386,1.974-6.347,4.267-8.772   c1.655-1.755,3.649-2.754,5.615-3.847c0.552,1.146,1.637,2.002,3.27,1.978c6.453-0.096,13.397,4.101,13.89,11.066   c0.601,8.446-6.547,13.105-14.311,13.07C52.754,66.513,46.704,60.492,47.266,53.05z"/><path d="M4.096,84.515c19.936-0.259,39.874,0.172,59.808-0.286c4.273-0.098,8.542-0.255,12.809-0.431   c3.696-0.153,9.313,0.613,12.259-2.101c2.975-2.742,1.998-7.961,1.979-11.609c-0.022-4.781-0.045-9.563-0.065-14.345   c-0.045-10.912-0.01-21.823,0.043-32.736c0.009-1.65-1.379-2.947-2.991-2.991c-5.368-0.149-10.742-0.177-16.119-0.117   c-2.252-1.993-5.647-3.405-8.106-4.75c-3.388-1.852-6.809-3.646-10.245-5.403c-2.567-1.311-5.123-2.671-7.804-3.735   c-1.014-0.403-2.411-1.082-3.504-0.563c-0.936,0.442-0.744,2.11,0.298,2.287C41.663,7.6,42.748,8.19,43.173,8.517   c0.717,0.549,1.547,1.015,2.307,1.502c2.514,1.615,5.097,3.123,7.631,4.704c2.825,1.763,5.634,3.555,8.412,5.389   c-18.209,0.546-36.426,1.896-54.578,2.908c-1.408-2.602-6.143-2.151-6.042,1.444C1.423,43.32,0.671,62.188,0.628,81.047   C0.622,82.902,2.22,84.54,4.096,84.515z M84.957,25.965c0.045,10.504,0.067,21.007,0.035,31.513   c-0.017,5.363,0.326,19.268-0.215,19.782c-0.346,0.329-8.897,0.417-11.701,0.46c-21.828,0.337-43.662-0.352-65.494-0.168   c0.094-17.179,0.521-34.343-0.186-51.517C33.139,28.188,59.15,25.719,84.957,25.965z"/><path d="M12.979,43.225c3.533,0.668,7.299,0.54,10.89,0.677c3.866,0.147,7.732,0.709,11.595,0.74c4.079,0.03,3.907-5.83,0-6.223   c-6.915-0.694-15.835-0.492-22.484,1.703C11.587,40.581,11.313,42.909,12.979,43.225z"/><path d="M35.463,64.657c-6.915-0.695-15.835-0.493-22.484,1.702c-1.392,0.459-1.666,2.787,0,3.104   c3.533,0.668,7.299,0.54,10.89,0.677c3.866,0.146,7.732,0.709,11.595,0.737C39.542,70.91,39.37,65.049,35.463,64.657z"/><path d="M12.666,55.972c7.693,1.208,15.922,0.563,23.706,0.667c3.406,0.047,3.408-5.368,0-5.291   c-7.755,0.174-16.147,0.056-23.706,1.936C11.405,53.598,11.27,55.754,12.666,55.972z"/></g></svg>