<?xml version="1.0" ?><!DOCTYPE svg  PUBLIC '-//W3C//DTD SVG 1.1//EN'  'http://www.w3.org/Graphics/SVG/1.1/DTD/svg11.dtd'><svg enable-background="new 0 0 91 91" height="91px" id="Layer_1" version="1.1" viewBox="0 0 91 91" width="91px" xml:space="preserve" xmlns="http://www.w3.org/2000/svg" xmlns:xlink="http://www.w3.org/1999/xlink"><g><path d="M62.561,54.646c-10.623-4.573-25.529-0.324-33.564,6.747c-4.771,4.196-9.609,10.358-8.601,17.115   c0.852,5.724,5.498,9.442,10.718,11.142c10.68,3.475,24.987,0.109,32.338-8.547c6.555-7.716,5.262-18.651,5.54-28.104   c0.484-16.393,0.892-32.792,1.029-49.191c0.038-4.682-7.311-4.688-7.276,0C62.827,15.934,62.603,49.818,62.561,54.646z    M43.663,84.605c-8.755,1.275-22.896-2.882-15.03-14.09c3.541-5.045,8.939-8.838,14.781-10.679   c5.539-1.738,13.024-2.793,19.089-1.195c-0.063,3.291-0.18,6.579-0.405,9.851C61.442,78.052,52.33,83.34,43.663,84.605z"/></g></svg>