<?xml version="1.0" ?><!DOCTYPE svg  PUBLIC '-//W3C//DTD SVG 1.1//EN'  'http://www.w3.org/Graphics/SVG/1.1/DTD/svg11.dtd'><svg enable-background="new 0 0 91 91" height="91px" id="Layer_1" version="1.1" viewBox="0 0 91 91" width="91px" xml:space="preserve" xmlns="http://www.w3.org/2000/svg" xmlns:xlink="http://www.w3.org/1999/xlink"><g><path d="M62.709,73.341c-0.912,0-1.869,0.398-2.514,1.043c-0.617,0.615-1.08,1.625-1.041,2.514   c0.041,0.918,0.344,1.871,1.041,2.512c0.695,0.639,1.551,1.041,2.514,1.041c0.91,0,1.867-0.396,2.512-1.041   c0.617-0.617,1.082-1.627,1.043-2.512c-0.043-0.922-0.346-1.873-1.043-2.514C64.525,73.745,63.672,73.341,62.709,73.341z"/><path d="M62.709,56.624c-0.912,0-1.869,0.395-2.514,1.039c-0.617,0.617-1.08,1.629-1.041,2.514c0.041,0.92,0.344,1.873,1.041,2.512   c0.695,0.641,1.551,1.043,2.514,1.043c0.91,0,1.867-0.398,2.512-1.043c0.617-0.615,1.082-1.625,1.043-2.512   c-0.043-0.92-0.346-1.873-1.043-2.514C64.525,57.026,63.672,56.624,62.709,56.624z"/><path d="M71.068,64.983c-0.91,0-1.869,0.395-2.512,1.039c-0.619,0.617-1.084,1.629-1.043,2.514c0.041,0.92,0.344,1.873,1.043,2.514   c0.693,0.639,1.549,1.041,2.512,1.041c0.91,0,1.867-0.396,2.512-1.041c0.615-0.617,1.082-1.627,1.041-2.514   c-0.041-0.92-0.342-1.873-1.041-2.514C72.885,65.386,72.031,64.983,71.068,64.983z"/><path d="M54.35,64.983c-0.912,0-1.869,0.395-2.514,1.039c-0.617,0.617-1.08,1.629-1.041,2.514c0.041,0.92,0.344,1.873,1.041,2.514   c0.695,0.639,1.551,1.041,2.514,1.041c0.91,0,1.869-0.396,2.514-1.041c0.615-0.617,1.08-1.627,1.041-2.514   c-0.043-0.92-0.346-1.873-1.041-2.514C56.166,65.386,55.311,64.983,54.35,64.983z"/><path d="M8.057,86.72c0.332,2.822,1.514,3.924,4.346,4.043c3.699,0.156,7.426,0.041,11.125,0.012   c12.449-0.105,24.898-0.336,37.346-0.633c5.139-0.123,10.279-0.25,15.416-0.449c1.963-0.074,5.35,0.344,7.125-0.742   c1.977-1.207,1.566-4.75,1.666-6.738c0.229-4.537,0.391-9.074,0.555-13.613c0.455-12.637,0.83-25.275,1.141-37.914   c0.197-8.098,1.1-16.645,0.32-24.729c-0.322-3.326-2.717-3.494-5.512-3.777c-5.279-0.535-10.596-0.795-15.895-1.064   c-16.445-0.83-32.984-1.318-49.443-0.631C12.619,0.636,9.047,0.892,5.459,1.439C1.535,2.037,2.445,8.611,6.396,8.376   c0.91-0.055,1.818-0.105,2.729-0.156c-1.627,14.262-2.176,28.6-2.193,42.958C6.916,62.907,6.688,75.048,8.057,86.72z M52.047,6.886   c6.877,0.059,28.971,0.881,29.537,0.922c0.01,0.848-0.076,11.111-0.16,15.395c-0.232,11.863-0.555,23.727-0.922,35.585   c-0.262,8.439-0.412,16.908-0.953,25.338l0,0c-3.877,0.219-7.766,0.318-11.646,0.432c-11.773,0.346-53.121,0.928-54.654,0.904   c-0.002,0-0.002,0-0.002,0c-0.025-0.313-1.57-56.683-2.059-71.953c-0.059-1.801-0.098-3.602-0.129-5.404   C24.723,7.332,38.33,6.775,52.047,6.886z"/><path d="M20.857,20.121c0.262-0.012,0.527-0.021,0.791-0.031c-0.703,8.846-1.238,17.664-1.574,26.551   c-0.059,1.566,1.387,2.944,2.924,2.925c11.58-0.154,23.156-0.33,34.734-0.625c4.293-0.111,8.971,0.264,13.217-0.44   c2.447-0.406,2.656-2.174,2.725-4.268c0.102-3.069,0.193-6.137,0.291-9.208c0.203-6.322,0.383-12.646,0.549-18.969   c0.041-1.51-1.313-2.799-2.793-2.795c-16.943,0.049-33.928,0.426-50.863-0.059C16.395,13.076,16.406,20.33,20.857,20.121z    M68.906,18.912c-0.023,3.875-0.25,23.582-0.291,24.528c-0.029,0-0.061,0.002-0.09,0.002c-1.836,0.033-16.473,0.105-21.953,0.115   c-6.844,0.012-13.686,0.086-20.529,0.139c0.301-7.93,0.322-15.915-0.867-23.754C39.74,19.361,54.334,19.232,68.906,18.912z"/><path d="M17.699,70.528c1.846,1.164,4.316,0.871,6.418,0.971c1.164,0.055,2.324,0.125,3.488,0.197   c-0.143,2.461-0.252,4.928-0.148,7.365c0.174,4.045,6.031,4.023,6.271,0c0.137-2.311,0.068-4.66-0.051-7.004   c2.727,0.215,5.59,0.656,8.264,0.217c4.199-0.691,2.418-7.082-1.762-6.395c1.848-0.303-1.574-0.127-2.18-0.102   c-1.549,0.07-3.096,0.145-4.645,0.23c-0.096-3.178,0.08-6.83-1.402-9.594c-0.555-1.037-2.256-1.078-2.801,0   c-1.469,2.912-1.16,6.74-1.266,10.004c-1.416,0.141-2.832,0.305-4.246,0.477c-2.152,0.26-4.49,0.273-6.182,1.766   C16.865,69.185,17.088,70.142,17.699,70.528z"/></g></svg>