<?xml version="1.0" ?><!DOCTYPE svg  PUBLIC '-//W3C//DTD SVG 1.1//EN'  'http://www.w3.org/Graphics/SVG/1.1/DTD/svg11.dtd'><svg enable-background="new 0 0 91 91" height="91px" id="Layer_1" version="1.1" viewBox="0 0 91 91" width="91px" xml:space="preserve" xmlns="http://www.w3.org/2000/svg" xmlns:xlink="http://www.w3.org/1999/xlink"><g><path d="M63.383,24.097c-3,1.955-6.102,3.752-9.018,5.831c-1.729,1.23-3.188,2.605-4.622,4.033c0.054-2.56,0.11-5.121,0.154-7.683   c0.034-1.918-2.254-3.313-3.914-2.246c-4.83,3.112-9.864,5.941-14.593,9.202c-2.23,1.539-4.494,3.074-6.625,4.751   c-1.267,0.997-2.391,2.137-3.524,3.259c-3.378-2.051-6.925,2.805-3.332,5.31c9.257,6.456,18.683,12.729,27.762,19.435   c1.299,0.961,3.199-0.074,3.589-1.46c0.587-2.095,0.553-4.597,0.424-7.045c4.439,2.853,8.957,5.569,13.345,8.507   c1.287,0.86,3.247,0.014,3.591-1.462c0.858-3.68,0.167-8.328,0.183-12.063c0.036-8.73,0.254-17.458,0.381-26.188   C67.209,24.427,64.993,23.047,63.383,24.097z M34.239,36.872c3.462-1.89,6.886-3.874,10.282-5.895   c-0.195,6.806-0.141,13.63-0.108,20.434c0.01,2.582,0.03,5.163,0.052,7.747c-7.279-5.242-14.4-10.757-21.339-16.431   C26.729,40.634,30.662,38.825,34.239,36.872z M49.479,49.845c0.032-4.229,0.104-8.457,0.195-12.683   c4.011-2.278,8.199-4.271,12.272-6.46c-0.231,6.898-0.205,13.805-0.163,20.709c0.017,2.563,0.057,5.125,0.105,7.69   c-4.046-2.917-8.159-5.712-11.981-8.943C49.766,50.04,49.622,49.939,49.479,49.845z"/><path d="M89.746,36.776C85.094,15.801,64.732,1.854,43.83,1.483c-1.307-0.024-2.26,0.523-2.861,1.325   C23.925,2.442,8.109,17.011,2.57,32.24c-5.961,16.403-0.173,35.695,13.043,46.894c15.017,12.725,38.883,12.375,55.5,2.748   C86.622,72.898,93.561,53.971,89.746,36.776z M72.676,73.656c-12.799,10.57-35.563,12.858-49.72,3.927   C10.403,69.661,3.083,53.599,5.93,38.949c1.683-8.664,6.468-16.28,12.832-22.298c6.205-5.869,13.546-9.056,21.445-11.722   c-0.139,1.997,1.068,4.11,3.623,4.083c15.858-0.167,31.865,8.746,38.333,23.583C88.13,46.288,84.262,64.088,72.676,73.656z"/></g></svg>