<svg height="511pt" viewBox="-9 0 511 511.99505" width="511pt" xmlns="http://www.w3.org/2000/svg"><path d="m27.484375 180.761719c.90625.378906 1.832031.664062 2.765625.863281.660156 13.820312 3.835938 27.734375 9.242188 40.480469-6.230469 7.878906-8.859376 18.675781-6.855469 28.519531.386719 1.910156 2.070312 3.226562 3.945312 3.226562.265625 0 .535157-.027343.808594-.082031 2.179687-.445312 3.589844-2.570312 3.148437-4.753906-1.597656-7.851563.636719-16.5 5.835938-22.601563 6.046875 1.726563 11.417969 5.570313 14.960938 10.789063.78125 1.148437 2.050781 1.765625 3.339843 1.765625.78125 0 1.570313-.226562 2.261719-.699219 1.84375-1.25 2.320312-3.757812 1.070312-5.597656-4.992187-7.347656-12.765624-12.59375-21.425781-14.515625-4.867187-11.730469-7.714843-24.488281-8.289062-37.152344.207031-.082031.417969-.152344.621093-.246094 4.023438-1.84375 6.699219-5.351562 8.652344-7.910156 17.546875-23.011718 33.816406-47.363281 48.371094-72.386718.550781.046874 1.101562.082031 1.648438.082031 6.027343-.003907 11.703124-2.761719 15.792968-7.941407.625-.792968 1.175782-1.621093 1.683594-2.46875.011719 0 .023438.003907.035156.003907.285156 0 .578125-.03125.871094-.09375l53.820312-11.871094-52.765624 29.730469c-.359376.203125-.65625.460937-.925782.742187-2.320312-.597656-4.785156-.757812-7.328125-.429687-8.019531 1.039062-15.046875 6.820312-17.902343 14.734375-3.472657 9.609375 1.128906 20.757812 10.113281 25.339843.050781.132813.089843.269532.15625.398438 6.449219 12.636719 12.621093 25.921875 18.585937 38.765625 5.996094 12.914063 12.199219 26.269531 18.71875 39.039063.507813.988281 1.398438 1.726562 2.464844 2.035156.371094.109375.75.160156 1.128906.160156.710938 0 1.417969-.1875 2.042969-.554688l5.292969-3.117187 24.121094 35.867187c.777343 1.15625 2.050781 1.78125 3.347656 1.78125.773437 0 1.554687-.222656 2.246094-.6875 1.847656-1.242187 2.339843-3.746093 1.097656-5.59375l-1.910156-2.839843 4.953124-3.390625c1.835938-1.257813 2.308594-3.765625 1.050782-5.601563-1.257813-1.839843-3.765625-2.308593-5.605469-1.050781l-4.898437 3.351562-3.800782-5.652343 6.082032-4.683594c1.765624-1.359375 2.09375-3.890625.734374-5.65625-1.359374-1.761719-3.890624-2.089844-5.65625-.734375l-5.671874 4.367188-9.128907-13.570313 6.621094-3.898437c1.808594-1.0625 2.5-3.332032 1.59375-5.21875-11.367187-23.671876-24.285156-46.898438-38.402344-69.050782.03125-.039062.066407-.078125.101563-.121094 2.257812-2.859374 3.734375-6.105468 4.414062-9.457031.332032-.085937.660156-.21875.972656-.394531l71.632813-40.628906-25.023437 68.757812c-.148438.40625-.207032.820313-.222657 1.226563-5.15625 2.523437-9.34375 7.085937-11.390625 12.75-3.695312 10.230469 1.757813 22.203125 11.902344 26.148437 2.5625.992188 5.152344 1.480469 7.679688 1.480469.8125 0 1.613281-.054687 2.402343-.152344l16.742188 25.339844-11.742188 10.582031c-.949219.855469-1.4375 2.113282-1.3125 3.386719s.847657 2.414063 1.945313 3.070313l20.128906 12.011718c.648438.386719 1.359375.570313 2.0625.570313 1.375 0 2.710938-.699219 3.464844-1.964844 1.140625-1.914063.515625-4.386719-1.394532-5.53125l-15.4375-9.210937 10.105469-9.109376c.09375-.039062.183594-.058593.273438-.101562l9.375-4.671875-.148438 20.445313c-.015625 2.226562 1.777344 4.042968 4 4.058593h.03125c2.214844 0 4.015625-1.785156 4.03125-4l.199219-27.011719c.007812-1.402343-.707031-2.707031-1.898438-3.449218-1.191406-.742188-2.675781-.8125-3.929687-.1875l-13.117187 6.53125-15.550782-23.539063c2.054688-1.273437 3.9375-2.945312 5.566406-5.007812 6-7.597657 6.46875-17.894531 1.210938-25.710938.175781-.273437.328125-.5625.4375-.886719l23.707031-70.109374c.0625-.1875.097657-.378907.132813-.570313 1.96875.164063 3.960937.269531 5.988281.269531 3.238281 0 6.546875-.222656 9.890625-.644531 10.460938 25.664063 23.195312 50.59375 37.871094 74.097656.320312.511719.738281.921875 1.214844 1.234375-3.160157 7.234375-2.105469 15.777344 3.0625 22.320313 1.628906 2.0625 3.511718 3.734375 5.566406 5.007812l-15.550782 23.539063-13.113281-6.53125c-1.253906-.625-2.742187-.554688-3.933593.1875-1.1875.742187-1.90625 2.046875-1.898438 3.449218l.199219 27.011719c.019531 2.214844 1.820312 4 4.03125 4h.03125c2.222656-.015625 4.015625-1.832031 4-4.058593l-.148438-20.445313 9.375 4.671875c.089844.042969.179688.0625.269531.101562l10.109376 9.109376-15.4375 9.210937c-1.910157 1.144531-2.535157 3.617187-1.394532 5.53125.753906 1.265625 2.089844 1.964844 3.464844 1.964844.703125 0 1.414062-.183594 2.0625-.570313l20.128906-12.011718c1.097656-.65625 1.820313-1.796876 1.945313-3.070313s-.363281-2.53125-1.3125-3.386719l-11.742188-10.582031 16.742188-25.339844c.792969.097657 1.59375.152344 2.402343.152344 2.523438 0 5.117188-.484375 7.679688-1.480469 10.148438-3.945312 15.597656-15.917968 11.902344-26.148437-2.113282-5.847657-6.503906-10.527344-11.890625-12.992188-.070313-.21875-.148438-.441406-.257813-.652343l-34.628906-67.65625 82.464844 38.234374c.019531.007813.039062.011719.0625.023438.535156 3.816406 2.074218 7.550781 4.632812 10.792969.035156.039062.070313.078125.101563.117187-14.113281 22.148438-27.03125 45.371094-38.402344 69.050782-.90625 1.890624-.214844 4.160156 1.589844 5.21875l6.625 3.898437-9.128907 13.574219-5.671874-4.367188c-1.765626-1.359375-4.296876-1.03125-5.65625.734375-1.359376 1.761719-1.03125 4.292969.730468 5.652344l6.085938 4.683594-3.800782 5.652343-4.898437-3.351562c-1.839844-1.257812-4.347656-.785156-5.605469 1.050781-1.257812 1.839844-.785156 4.347657 1.050782 5.605469l4.953124 3.386719-1.910156 2.839843c-1.242187 1.847657-.753906 4.355469 1.09375 5.597657.691406.464843 1.472656.6875 2.246094.6875 1.296875 0 2.570312-.625 3.351562-1.785157l24.117188-35.863281 5.292969 3.113281c.628906.371094 1.335937.558594 2.046875.558594.378906 0 .757812-.054687 1.125-.160156 1.070312-.3125 1.960937-1.050781 2.464844-2.039062 6.519531-12.765626 12.71875-26.117188 18.714843-39.027344 5.96875-12.851563 12.140625-26.136719 18.59375-38.777344.066407-.128906.101563-.265625.152344-.398438 8.984375-4.582031 13.585937-15.730468 10.117187-25.339843-2.859374-7.914063-9.886718-13.695313-17.90625-14.734375-3.503906-.453125-6.859374.011718-9.890624 1.289062-.054688-.019531-.101563-.050781-.15625-.066406-27.195313-9.019531-53.449219-20.992188-78.105469-35.59375.4375.230469.921875.390625 1.445312.449219l75.742188 8.183593c.148437.015626.292969.027344.4375.027344.472656 0 .925781-.09375 1.351562-.246094.589844 3.664063 2.105469 7.234376 4.566407 10.347657 4.089843 5.179687 9.765624 7.9375 15.792968 7.9375.546875 0 1.097656-.03125 1.648438-.078125 14.550781 25.019531 30.824218 49.375 48.371094 72.386718 1.953124 2.558594 4.628906 6.066407 8.648437 7.910157.203125.09375.417969.164062.625.246093-.578125 12.664063-3.425781 25.421876-8.289063 37.152344-8.660156 1.921875-16.4375 7.167969-21.425781 14.511719-1.25 1.84375-.773437 4.351563 1.066407 5.601563.695312.472656 1.484374.699218 2.261718.699218 1.292969 0 2.558594-.621094 3.339844-1.769531 3.546875-5.214844 8.917969-9.058594 14.964844-10.785156 5.195312 6.101562 7.433594 14.75 5.835937 22.601562-.441406 2.179688.96875 4.308594 3.148438 4.753907.273437.054687.542969.082031.808593.082031 1.875 0 3.558594-1.320313 3.945313-3.230469 2.003906-9.839844-.628906-20.636719-6.855469-28.515625 5.40625-12.746094 8.582032-26.664063 9.242188-40.480469.933594-.199218 1.859375-.484375 2.765625-.863281 3.785156-1.597656 6.691406-4.578125 7.976562-8.1875.421875-1.179687.269531-2.492187-.414062-3.546875-18.078125-27.863281-37.84375-55.070312-58.746094-80.910156 2.082031-4.714844 2.488281-10.171875.671875-15.207032-2.855469-7.910156-9.882812-13.691406-17.902344-14.730468-4.230468-.550782-8.246094.230468-11.730468 2.179687l-80.464844-8.300781c.394531-3.535156.292968-7.074219-.359375-10.511719 11.054687-.113281 22.09375-.28125 33.101562-.5 5.6875-.117187 12.136719-.246093 18.21875-2.597656 7.277344-2.8125 12.472657-8.609375 13.566407-15.132813.789062-4.722656-.046876-8.6875-2.492188-11.785156-4.773438-6.050781-14.003906-6.6875-20.746094-7.15625l-.535156-.035156c-14.730469-1.03125-30.582031-2.085938-46.710938-2.808594-30.726562-1.375-61.898437-1.832031-92.644531-1.351562-17.441406.273437-35.109375.851562-52.511719 1.71875-5.515624.273437-12.371093.617187-18.421874 3.679687-7.207032 3.648438-11.609376 10.992188-10.699219 17.863281.773437 5.882813 5.261719 11.171876 11.703125 13.804688 5.292968 2.160156 10.910156 2.351562 15.863281 2.519531 10.902344.371094 21.832031.683594 32.78125.949219-.59375 2.3125-.964844 4.683594-1.117187 7.085938-.09375.015624-.183594.011718-.277344.035156l-67.085938 14.6875c-.082031.019531-.160156.054687-.242187.078125-4.113281-3.558594-9.332031-5.148438-14.925781-4.425781-8.015626 1.039062-15.042969 6.824218-17.902344 14.734374-1.816406 5.035157-1.410156 10.492188.671875 15.207032-20.902344 25.835937-40.664063 53.042968-58.746094 80.90625-.683594 1.054687-.835937 2.367187-.414063 3.550781 1.285157 3.605469 4.195313 6.589844 7.976563 8.183594zm70.964844-55.078125c1.839843-5.097656 6.296875-8.820313 11.355469-9.472656 2.527343-.328126 7.300781-.105469 10.878906 5.074218 3.914062 5.667969 2.433594 12.296875-.765625 16.347656-3.585938 4.539063-8.902344 6.011719-14.230469 3.941407-6.167969-2.394531-9.484375-9.671875-7.238281-15.890625zm45.242187 93.320312c-5.753906-11.476562-11.289062-23.390625-16.65625-34.945312-5.136718-11.066406-10.441406-22.433594-15.953125-33.503906 3.125-.101563 6.144531-.941407 8.882813-2.484376 13.039062 20.542969 25.039062 42.003907 35.699218 63.890626zm-13.132812-94.886718c-.589844-2.601563-1.65625-5.117188-3.242188-7.414063-.933594-1.351563-1.980468-2.546875-3.113281-3.59375l63.253906-35.640625c.132813-.074219.246094-.171875.367188-.257812 2.667969 3.371093 5.863281 6.417968 9.453125 9.066406zm65.121094 65.457031c-3.582032 4.535156-8.898438 6.011719-14.226563 3.941406-6.171875-2.398437-9.488281-9.675781-7.242187-15.890625 1.84375-5.101562 6.300781-8.824219 11.355468-9.476562 2.527344-.328126 7.300782-.105469 10.882813 5.078124 3.910156 5.667969 2.433593 12.292969-.769531 16.347657zm1.242187-26.847657c-2.921875-1.792968-6.242187-2.742187-9.761719-2.742187l24.09375-66.214844c2.554688.941407 5.1875 1.71875 7.890625 2.308594.097657.019531.195313.035156.292969.054687zm54.601563-67.222656c1.785156-.398437 3.578124-.84375 5.375-1.355468 2.507812-.71875 4.921874-1.515626 7.230468-2.394532l34.949219 68.273438c-4.46875.296875-8.558594 2.136718-11.84375 5.320312-13.761719-22.207031-25.761719-45.683594-35.710937-69.84375zm33.074218-15.859375c24.199219 14.507813 49.933594 26.523438 76.597656 35.75-.335937.421875-.664062.855469-.980468 1.308594-1.398438 2.027344-2.398438 4.226563-3.023438 6.507813l-80.777344-37.457032c2.984376-1.847656 5.710938-3.886718 8.183594-6.109375zm28.722656 97.980469c2.246094 6.214844-1.070312 13.492188-7.242187 15.890625h.003906c-5.328125 2.070313-10.648437.597656-14.230469-3.941406-3.203124-4.054688-4.679687-10.679688-.765624-16.347657 2.953124-4.277343 6.71875-5.175781 9.367187-5.175781.558594 0 1.070313.042969 1.511719.097657 5.054687.65625 9.511718 4.375 11.355468 9.476562zm47.171876 6.441406c-5.367188 11.554688-10.898438 23.460938-16.652344 34.9375l-11.972656-7.046875c10.664062-21.886719 22.664062-43.351562 35.699218-63.890625 2.738282 1.546875 5.757813 2.386719 8.882813 2.488282-5.511719 11.070312-10.816407 22.441406-15.957031 33.511718zm15.722656-67.957031c.558594 0 1.070312.042969 1.511718.101563 5.058594.652343 9.515626 4.375 11.355469 9.472656 2.246094 6.21875-1.070312 13.496094-7.238281 15.894531-5.328125 2.066406-10.644531.59375-14.230469-3.941406-3.199219-4.054688-4.679687-10.683594-.765625-16.347657 2.953125-4.277343 6.722656-5.179687 9.367188-5.179687zm-85.945313-42.472656c0-.003907.003907-.003907.003907-.007813.042968.027344.078124.058594.121093.082032-.042969-.023438-.085937-.050782-.125-.074219zm166.644531 99.695312c-1.707031.71875-3.503906.753907-4.933593.097657-2.03125-.929688-3.671875-2.941407-5.601563-5.472657-16.933594-22.207031-32.65625-45.683593-46.777344-69.800781 1.632813-.855469 3.113282-1.933594 4.425782-3.175781 19.695312 24.46875 38.359375 50.148437 55.515625 76.4375-.65625.796875-1.558594 1.460937-2.628907 1.914062zm-67.832031-107.253906c.5625 0 1.070313.039063 1.511719.097656 5.058594.65625 9.515625 4.375 11.355469 9.476563 2.246093 6.214844-1.070313 13.492187-7.238281 15.890625 0 0 0 0-.003907 0-5.320312 2.070312-10.640625.59375-14.226562-3.941407-3.199219-4.054687-4.679688-10.679687-.765625-16.347656 2.953125-4.277344 6.71875-5.175781 9.367187-5.175781zm-16.648437 1.617187c-1.347656 2.207032-2.265625 4.582032-2.742188 7.03125-.324218-.128906-.664062-.230468-1.027344-.269531l-73.722656-7.964843c1.113282-2.117188 2.03125-4.292969 2.761719-6.503907zm-238.484375-37.914062c-3.710938-1.515625-6.363281-4.417969-6.753907-7.394531-.523437-3.9375 2.796876-7.816407 6.34375-9.613281 4.523438-2.289063 10.183594-2.570313 15.183594-2.820313 17.3125-.863281 34.886719-1.4375 52.238282-1.710937 30.585937-.476563 61.589843-.023438 92.15625 1.347656 16.039062.71875 31.832031 1.765625 46.507812 2.792968l.542969.039063c4.941406.339844 12.410156.859375 14.972656 4.105469.363281.460937 1.46875 1.867187.867187 5.460937-.613281 3.667969-3.960937 7.179688-8.519531 8.945313-4.757812 1.835937-10.207031 1.945312-15.476562 2.050781-61.371094 1.238281-123.605469.808594-184.972657-1.277344-4.488281-.152343-9.128906-.308593-13.089843-1.925781zm114.179687 27.574219c-5.789062 3.152343-13.5625 2.839843-19.34375-.777344-5.175781-3.234375-8.753906-8.902344-9.675781-15.125 12.726563.164063 25.460937.25 38.191406.269531.144531 6.230469-3.527343 12.5625-9.171875 15.632813zm-37.164062-16.023438c.941406 9.023438 6.027344 17.382813 13.542968 22.085938 4.453126 2.78125 9.617188 4.1875 14.75 4.1875 4.429688 0 8.832032-1.050781 12.722657-3.164063 8.296875-4.511718 13.53125-13.5 13.382812-22.707031 8.601563-.007813 17.199219-.050781 25.789063-.121094-.082032.464844-.09375.953125 0 1.445313 1.753906 9.183594-1.730469 19.832031-9.082032 27.785156-6.449218 6.96875-15.664062 12.203125-27.390624 15.550781-11.902344 3.402344-23.597657 4.023438-33.828126 1.804688-11.425781-2.480469-21.492187-8.746094-27.625-17.1875-6.507812-8.964844-8.527343-20.441407-5.347656-30.101563 7.691406.164063 15.386719.304688 23.085938.421875zm-32.214844 14.628907c.527344 3.84375 1.578125 7.65625 3.148438 11.304687-.078126.011719-.15625.011719-.238282.027344l-63.574218 14.023437c.460937-3.957031-.167969-7.988281-1.910157-11.65625zm-93.167969 19.691406c1.839844-5.101563 6.300781-8.820313 11.355469-9.476563.441406-.058593.953125-.097656 1.511719-.097656 2.648437 0 6.414062.902344 9.367187 5.175781 3.914063 5.667969 2.4375 12.296875-.765625 16.351563-3.585937 4.535156-8.90625 6.007812-14.226562 3.941406-6.171875-2.398437-9.488281-9.679687-7.242188-15.894531zm-2.078125 19.328125c1.316406 1.242187 2.792969 2.320312 4.425782 3.175781-14.121094 24.117188-29.839844 47.59375-46.777344 69.800781-1.929688 2.53125-3.566406 4.539063-5.601563 5.472657-1.429687.65625-3.226562.621093-4.933593-.097657-1.070313-.453125-1.972657-1.117187-2.628907-1.914062 17.15625-26.292969 35.820313-51.972657 55.515625-76.4375zm0 0"/><path d="m482.6875 344.332031c11.746094-16.457031 13.707031-39.28125 4.765625-57.460937-1.253906-2.546875-3.078125-5.773438-6.078125-8.117188-3.546875-2.769531-8.074219-3.597656-11.8125-2.164062-4.246094 1.628906-6.457031 5.566406-7.917969 8.171875l-7.996093 14.226562c-4.664063-2.378906-9.90625-2.605469-14.175782-2.789062l-129.4375-5.539063c-1.160156-.042968-2.210937.398438-2.972656 1.140625-7.367188-4.878906-16.695312-5.277343-23.65625-5.570312l-76.457031-3.179688c-12.925781-.539062-26.292969-1.097656-39.523438.449219-14.167969 1.648438-26.359375 5.585938-36.289062 11.710938-1.59375-1.664063-3.3125-3.097657-4.992188-4.488282-1.859375-1.535156-3.613281-2.988281-5.023437-4.625-.664063-.769531-1.316406-1.753906-2.007813-2.796875-1.980469-2.984375-4.445312-6.699219-9.117187-7.996093-4.894532-1.355469-9.320313.90625-12.875 2.722656l-.4375.222656c-4.0625 2.066406-8.621094 3.179688-13.445313 4.359375-5.703125 1.394531-11.597656 2.835937-16.804687 5.996094-8.71875 5.300781-17.898438 12.328125-19.867188 24.308593-1.058594 6.4375.265625 13.261719 3.546875 18.914063-7.347656.335937-14.757812.695313-22.042969 1.074219-5.113281.265625-10.910156.566406-16.3125 2.984375-6.527343 2.925781-10.941406 8.761719-11.242187 14.867187-.390625 7.859375 5.570313 14.03125 11.644531 16.660156 5.964844 2.578126 12.386719 2.605469 18.058594 2.628907l150.210938.640625-.597657 67.15625-43.5-.722656c-8.289062-.136719-17.65625.25-23.878906 6.644531-6.472656 6.65625-6.226563 16.65625-5.492187 23.527343-2.382813.019532-4.980469.164063-7.574219 1.117188-5.921875 2.171875-8.445313 8.101562-8.839844 12.925781-.523437 6.480469 1.550781 12.558594 5.84375 17.109375 4.695313 4.976563 11.625 7.75 18.972656 7.566406 25.171875-.574218 50.824219.214844 75.628907.972657 8.0625.25 16.402343.503906 24.605468.710937l170.226563 4.261719c.824219.019531 1.710937.042969 2.640625.042969 3.746094 0 8.167968-.363282 12.007812-2.652344 5.121094-3.054688 8.433594-9.3125 8.644532-16.335938.175781-5.816406-1.5625-11.34375-3.09375-16.222656-1.058594-3.363281-3.804688-3.4375-15.375-3.757812-.328126-.007813-.617188-.015625-.878907-.023438 1.644531-9.25 1.835938-19.015625-4.890625-25.664062-5.789062-5.71875-14.007812-6.324219-21.933594-6.457032l-55.152343-.917968 3.136719-68.730469 139.320312.59375c1.347656.007813 3.097656.105469 5.125.222656 2.699219.152344 5.839844.332031 9.105469.332031 10.21875 0 21.648437-1.757812 24.578125-11.5625 1.109375-3.714843.5625-7.550781-1.589844-11.09375-1.238281-2.046874-2.910156-3.839843-4.78125-5.394531zm-14.015625-55.621093c1.1875-2.113282 2.367187-4.050782 3.777344-4.59375 1.085937-.414063 2.671875-.015626 3.964843.992187 1.710938 1.335937 2.929688 3.546875 3.804688 5.320313 7.726562 15.707031 5.941406 35.460937-4.359375 49.582031-2.820313-1.355469-5.5625-2.242188-7.664063-2.644531-1.953124-.375-3.929687-.675782-5.921874-.941407 1.460937-5.644531 3.050781-11.996093 2.605468-18.496093-.359375-5.269532-2.132812-10.027344-4.945312-13.664063zm-18.109375 17.777343c4.191406 2.488281 5.984375 7.824219 6.273438 11.992188.367187 5.378906-1.085938 10.984375-2.492188 16.402343-.058594.234376-.089844.46875-.105469.703126-5.910156-.460938-11.875-.644532-17.730469-.8125-4.582031-.132813-8.914062-.257813-13.21875-.511719-34.574218-2.03125-69.433593-3.550781-104.285156-4.578125.433594-5.933594.800782-12.050782-.246094-18.234375-.800781-4.734375-2.4375-9.003907-4.738281-12.546875l125.109375 5.351562c3.875.167969 8.269532.355469 11.433594 2.234375zm-282.203125-14.980469c12.597656-1.46875 25.644531-.929687 38.253906-.402343l76.457031 3.183593c8.316407.34375 15.617188.96875 20.722657 5.085938 3.539062 2.855469 6.03125 7.621094 7.011719 13.417969.910156 5.363281.539062 11.085937.132812 16.652343-6.105469-.167968-12.207031-.308593-18.308594-.445312.179688-6.421875-3.128906-12.964844-8.792968-17.246094-4.699219-3.558594-10.945313-5.621094-18.066407-5.96875-5.808593-.285156-11.46875.527344-16.945312 1.355469-.617188-.402344-1.25-.785156-1.902344-1.144531-8.203125-4.496094-17.574219-5.382813-26.472656-5.90625-27.890625-1.636719-56.09375-.757813-83.828125 2.613281-.195313-.34375-.394532-.679687-.601563-1.015625 8.808594-5.277344 19.664063-8.703125 32.339844-10.179688zm-28.238281 18.902344c26.441406-3.0625 53.289062-3.832031 79.855468-2.269531 7.980469.46875 16.335938 1.234375 23.070313 4.925781 5.207031 2.855469 10.363281 8.734375 10.140625 15.269532-5.515625-.0625-11.03125-.125-16.53125-.160157-31.425781-.207031-63.066406.015625-94.6875.644531.882812-6.039062.203125-12.390624-1.847656-18.410156zm116.253906 3.832032c3.023438-.347657 6.046875-.550782 9-.40625 3.832031.1875 9.300781 1.09375 13.597656 4.34375 3.5625 2.695312 5.71875 6.828124 5.59375 10.632812-7.789062-.15625-15.570312-.285156-23.34375-.390625.085938-4.890625-1.679687-9.882813-4.847656-14.179687zm-171.222656-23.800782c5.058594-1.234375 10.292968-2.515625 15.1875-5.003906l.449218-.226562c2.550782-1.304688 5.183594-2.652344 7.054688-2.132813 1.652344.457031 2.820312 2.074219 4.550781 4.683594.796875 1.203125 1.625 2.445312 2.617188 3.601562 1.855469 2.152344 3.960937 3.894531 5.996093 5.574219 1.960938 1.621094 3.8125 3.15625 5.257813 4.90625 6.148437 7.453125 9.03125 17.136719 7.714844 25.910156-.066407.429688-.042969.84375.023437 1.25-10.058594.222656-20.113281.484375-30.160156.792969-1.082031-7.953125-6.753906-15.128906-14.265625-17.964844-3.867187-1.457031-8.128906-1.734375-12.1875-.941406 1.613281-5.992187 1.722656-12.367187.257813-18.4375 2.382812-.757813 4.90625-1.375 7.503906-2.011719zm-30.628906 23.78125c1.402343-8.535156 8.265624-13.910156 15.589843-18.410156 1.316407 7.226562-.164062 15.054688-4.15625 21.183594-1.109375 1.699218-.78125 3.957031.761719 5.273437 1.546875 1.3125 3.828125 1.277344 5.328125-.089843 3.875-3.53125 9.777344-4.65625 14.683594-2.804688 4.546875 1.714844 8.039062 5.914062 8.988281 10.664062-12.167969.398438-24.308594.875-36.425781 1.394532-.136719-.511719-.375-1.003906-.722657-1.445313-3.4375-4.382812-4.949218-10.273437-4.046874-15.765625zm246.605468 94.96875-113.015625 4.425782.179688-20.527344 113.59375-.515625zm97.90625 72.269532c1.148438 3.765624 2.136719 7.597656 2.027344 11.304687-.101562 3.371094-1.394531 7.675781-4.71875 9.65625-2.582031 1.539063-6.046875 1.578125-10.316406 1.472656l-170.226563-4.261719c-8.179687-.207031-16.507812-.460937-24.558593-.707031-18.910157-.582031-38.308594-1.175781-57.664063-1.175781-6.140625 0-12.28125.058594-18.398437.199219-5.097657.128906-9.789063-1.722657-12.921876-5.042969-2.746093-2.90625-4.015624-6.683594-3.671874-10.921875.195312-2.410156 1.378906-5.199219 3.582031-6.007813 1.71875-.632812 3.9375-.621093 6.074219-.628906 17.9375.019532 36.160156-.089844 53.785156-.195312 35.621094-.214844 72.457031-.4375 108.683594.394531 39 .890625 78.5 2.730469 117.402343 5.464844.3125.019531 1.167969.046875 2.316407.078125 1.695312.046875 6.058593.167968 8.605468.371094zm-19.820312-28.382813c4.359375 4.304687 3.859375 12.007813 2.453125 19.417969-36.757813-2.476563-73.984375-4.167969-110.773438-5.011719-36.339843-.832031-73.238281-.609375-108.917969-.394531-15.378906.089844-31.203124.183594-46.898437.191406-.746094-6.691406-.871094-13.753906 3.15625-17.894531 3.980469-4.089844 11.0625-4.320313 17.964844-4.203125l226.617187 3.765625c6.546875.105469 12.730469.503906 16.398438 4.128906zm-191.320313-15.101563.144531-16.285156 112.71875-4.417968-1.019531 22.410156c-.003906.050781.007813.097656.007813.152344zm114.359375-53.4375c-.089844-.003906-.175781-.027343-.265625-.027343-.007812 0-.015625 0-.019531 0l-113.601562.515625.125-14.308594 114.371093.484375zm179.082032-26.023437c-2.039063 6.828125-16.71875 5.988281-25.496094 5.488281-2.140625-.125-3.988282-.230468-5.550782-.238281l-420.035156-1.785156c-5.136718-.019531-10.445312-.042969-14.890625-1.96875-3.519531-1.519531-6.980469-5.050781-6.792969-8.859375.171876-3.53125 3.386719-6.519532 6.488282-7.910156 4.023437-1.800782 8.804687-2.050782 13.429687-2.289063 7.53125-.390625 15.199219-.765625 22.789063-1.109375 61.4375-2.792969 123.792968-4.007812 185.324218-3.609375 61.84375.40625 124.492188 2.449219 186.214844 6.074219 4.421875.261718 9.015625.394531 13.457032.523437 10.210937.296875 20.765624.601563 30.402343 2.449219 4.71875.90625 11.378907 4.464844 13.90625 8.628906.972657 1.609375 1.214844 3.070313.753907 4.605469zm0 0"/></svg>