<svg height="512pt" viewBox="-9 0 512 512.00466" width="512pt" xmlns="http://www.w3.org/2000/svg"><path d="m489.714844 439.246094c-8.605469-19.191406-29.722656-33.289063-52.550782-35.078125-9.597656-.753907-19.199218-1.542969-28.800781-2.332031-15.855469-1.300782-32.25-2.648438-48.390625-3.800782-27.8125-1.988281-55.835937-3.414062-83.878906-4.289062.007812-.101563.035156-.195313.035156-.296875l.335938-13.675781c1.769531-.027344 3.539062-.054688 5.308594-.101563 10.074218-.246094 20.308593-1.492187 26.886718-8.851563 5.683594-6.363281 6.507813-15.054687 6.835938-22.699218.09375-2.199219.160156-4.402344.214844-6.601563 9.289062-5.636719 15.199218-16.441406 14.800781-27.3125-.410157-11.101562-7.367188-21.652343-17.367188-26.460937-.664062-5.46875-1.4375-10.921875-2.34375-16.351563-3.097656-18.597656-20.808593-20.160156-35.746093-20.105469-5.820313-9.609374-16.355469-16.28125-27.535157-17.542968l.078125-32.886719c0-.015625-.003906-.03125-.003906-.046875 7.167969-2.472656 12.125-10.066406 11.558594-17.804688-.441406-6.042968-4.234375-11.523437-9.445313-13.632812-5.855469-2.371094-12.96875-.421875-18.125 4.964844-5.074219 5.300781-6.679687 12.382812-4.089843 18.046875 2.191406 4.796875 6.886718 8.085937 12.042968 9.011719l-.078125 32.394531c-11.265625 1.40625-21.847656 8.316406-27.523437 18.148437-4.503906.246094-9 .535156-13.476563.882813-5.652343.441406-12.042969 1.308593-16.351562 6.015625-3.773438 4.128906-4.464844 9.589844-4.851563 14.828125-.371094 5.042969-.679687 10.109375-.953125 15.175781-9.21875 3.304688-16.390625 12.019531-17.691406 21.738281-1.371094 10.257813 3.851563 21.164063 12.707031 26.519531.652344.394532 1.371094.585938 2.082032.585938.597656 0 1.1875-.144531 1.726562-.398438.023438 3.800782.0625 7.597657.140625 11.382813.128906 6.28125.589844 12.847656 4.628906 18.019531 5.007813 6.410156 13.175781 7.929688 20.4375 8.851563 2.667969.335937 5.34375.652343 8.023438.949219l.359375 16.214843c-6.929688.003907-13.851563.039063-20.761719.113281-32.101563.34375-64.605469 1.4375-96.609375 3.257813-21.992188 1.25-43.238281 3.210937-61.4375 13.347656-18.394531 10.242188-34.207031 32.472657-28.84375 55.144531 3.53125 14.914063 15.925781 27.84375 33.152344 34.585938 14.34375 5.613281 29.546875 6.589844 46.503906 7.214844 33.203125 1.234375 66.925781 1.707031 99.542969 2.164062l241.777343 3.402344c2.359376.03125 4.804688.066406 7.3125.066406 14.074219 0 30.046876-1.085937 43.144532-9.566406 19.464844-12.605469 27.1875-40.953125 17.21875-63.191406zm-167.261719-124.746094c.226563 6.179688-2.3125 12.335938-6.628906 16.730469-.03125-11.097657-.5625-22.199219-1.585938-33.253907 4.839844 4.074219 7.980469 10.175782 8.214844 16.523438zm-87.628906-125.464844c-1.464844-3.210937.476562-6.921875 2.582031-9.121094 2.34375-2.449218 6.117188-4.34375 9.277344-3.066406 2.386718.96875 4.210937 3.742188 4.429687 6.75.304688 4.167969-2.449219 8.402344-6.269531 9.644532-3.753906 1.21875-8.4375-.746094-10.019531-4.207032zm8.683593 52.535156h.160157c8.089843 0 16.097656 3.785157 21.488281 9.824219-1.054688 0-2.078125-.007812-3.054688-.039062-13.257812-.421875-26.617187-.386719-39.9375.105469 5.347657-6.027344 13.289063-9.839844 21.34375-9.890626zm-76.90625 70.082032c.753907-5.65625 4.359376-10.820313 9.257813-13.730469-.460937 10.664063-.71875 21.359375-.753906 32.027344-5.957031-3.828125-9.445313-11.273438-8.503907-18.296875zm19.648438 50.074218c-2.519531-3.222656-2.820312-8.09375-2.921875-13.21875-.503906-24.667968.160156-49.648437 1.96875-74.25.292969-3.988281.726563-7.753906 2.761719-9.980468 2.324218-2.539063 6.722656-3.082032 11.027344-3.417969 20.785156-1.625 41.902343-2.109375 62.757812-1.445313 2.667969.085938 5.511719.039063 8.523438-.007812 17.675781-.289062 30.347656.503906 32.480468 13.3125 4.125 24.742188 5.667969 49.996094 4.59375 75.054688-.269531 6.253906-.882812 13.292968-4.796875 17.671874-4.757812 5.328126-13.371093 5.976563-21.070312 6.167969-26.71875.65625-53.714844-.714843-80.230469-4.074219-5.664062-.71875-11.972656-1.820312-15.09375-5.8125zm82.144531 18.109376-.324219 13.417968c-.003906.089844.015626.175782.019532.269532-17.117188-.472657-34.234375-.734376-51.308594-.789063l-.34375-15.40625c17.25 1.660156 34.636719 2.503906 51.957031 2.507813zm199.71875 115.832031c-13.378906 8.664062-31.449219 8.410156-45.964843 8.203125l-241.773438-3.402344c-32.570312-.457031-66.25-.929688-99.359375-2.15625-16.207031-.601562-30.699219-1.515625-43.863281-6.667969-14.765625-5.777343-25.324219-16.59375-28.242188-28.933593-4.445312-18.777344 9.167969-37.476563 24.914063-46.246094 16.730469-9.316406 36.152343-11.097656 57.976562-12.339844 31.878907-1.8125 64.257813-2.902344 96.234375-3.246094 56.921875-.601562 114.574219 1.140625 171.363282 5.195313 16.097656 1.152343 32.46875 2.496093 48.300781 3.796875 9.613281.792968 19.226562 1.582031 28.832031 2.335937 19.976562 1.5625 38.390625 13.757813 45.824219 30.339844 8.410156 18.757813 2.023437 42.585937-14.242188 53.121094zm0 0"/><path d="m435.441406 426.164062c-9.613281-.753906-19.234375-1.542968-28.855468-2.335937l-.28125-.023437c-15.714844-1.292969-31.964844-2.625-47.902344-3.765626-53.875-3.84375-108.570313-5.601562-162.570313-5.226562-2.550781.015625-5.09375.039062-7.644531.066406-31.765625.339844-63.925781 1.425782-95.589844 3.222656-20.066406 1.140626-37.828125 2.726563-51.960937 10.59375-12.578125 7.007813-20.53125 20.53125-18.101563 30.789063 1.835938 7.75 9.390625 15.078125 19.71875 19.121094 11.140625 4.355469 23.839844 5.140625 39.285156 5.714843 32.921876 1.21875 66.53125 1.691407 99.03125 2.148438l241.777344 3.402344c2.097656.03125 4.300782.054687 6.464844.054687.5625 0 1.121094 0 1.675781-.003906h.003907c10.363281-.070313 22.035156-.84375 30.011718-6.007813 10.527344-6.816406 14.683594-23.136718 9.078125-35.640624-5.316406-11.859376-19.355469-20.949219-34.140625-22.109376zm20.679688 50.984376c-6.234375 4.039062-16.484375 4.648437-25.65625 4.710937h-.003906c-.007813 0-.019532 0-.027344 0-2.746094.019531-5.558594-.015625-7.972656-.046875l-241.777344-3.402344c-32.457032-.457031-66.019532-.929687-98.847656-2.144531-14.671876-.546875-26.6875-1.269531-36.644532-5.167969-7.664062-3-13.617187-8.410156-14.8125-13.46875-1.414062-5.96875 3.945313-16.1875 14.179688-21.886718 12.636718-7.035157 29.4375-8.503907 48.492187-9.585938 31.542969-1.792969 63.578125-2.875 95.21875-3.210938 2.542969-.027343 5.074219-.050781 7.617188-.070312 4.757812-.03125 9.519531-.046875 14.289062-.046875 49.132813 0 98.734375 1.761719 147.652344 5.257813 15.894531 1.132812 32.121094 2.464843 47.8125 3.753906l.285156.023437c9.628907.792969 19.257813 1.585938 28.882813 2.339844 11.976562.9375 23.25 8.082031 27.414062 17.371094 3.933594 8.769531 1.023438 20.957031-6.101562 25.574219zm0 0"/><path d="m96.4375 434.351562c-5.085938-4.160156-12.605469-5.4375-20.121094-3.414062-7.402344 1.988281-13.171875 6.765625-15.4375 12.777344-3.019531 8.019531-.390625 17.871094 6.25 23.433594 3.871094 3.238281 8.917969 4.917968 13.976563 4.917968 3.480469 0 6.964843-.796875 10.074219-2.425781 7.503906-3.929687 12.332031-12.324219 12.015624-20.890625-.214843-5.816406-2.675781-11.0625-6.757812-14.398438zm-9 28.148438c-4.734375 2.484375-11.101562 1.835938-15.132812-1.535156-4.03125-3.378906-5.699219-9.570313-3.878907-14.40625 1.332031-3.535156 5.15625-6.539063 9.988281-7.835938 1.640626-.441406 3.28125-.65625 4.855469-.65625 3.160157 0 6.039063.867188 8.066407 2.523438 2.253906 1.847656 3.679687 5.003906 3.804687 8.453125.199219 5.445312-2.96875 10.976562-7.703125 13.457031zm0 0"/><path d="m152.210938 434.296875c-5.085938-4.15625-12.605469-5.433594-20.121094-3.414063-7.402344 1.992188-13.171875 6.769532-15.4375 12.78125-3.019532 8.015626-.390625 17.871094 6.25 23.429688 3.867187 3.238281 8.917968 4.917969 13.976562 4.917969 3.480469 0 6.964844-.792969 10.074219-2.421875 7.503906-3.929688 12.332031-12.328125 12.015625-20.894532-.214844-5.8125-2.675781-11.0625-6.757812-14.398437zm-9 28.152344c-4.742188 2.480469-11.105469 1.835937-15.132813-1.535157-4.035156-3.378906-5.703125-9.570312-3.878906-14.410156h-.003907c1.332032-3.535156 5.15625-6.535156 9.988282-7.835937 4.933594-1.324219 9.886718-.609375 12.921875 1.871093 2.257812 1.84375 3.679687 5.003907 3.804687 8.453126.203125 5.441406-2.964844 10.976562-7.699218 13.457031zm0 0"/><path d="m204.949219 435.28125c-5.085938-4.160156-12.609375-5.4375-20.121094-3.414062-7.402344 1.992187-13.171875 6.765624-15.4375 12.777343-3.019531 8.019531-.390625 17.875 6.25 23.433594 3.867187 3.238281 8.914063 4.917969 13.976563 4.917969 3.476562 0 6.964843-.792969 10.074218-2.421875 7.5-3.929688 12.328125-12.328125 12.015625-20.894531-.214843-5.8125-2.675781-11.0625-6.757812-14.398438zm-9 28.148438c-4.738281 2.484374-11.105469 1.839843-15.132813-1.535157-4.035156-3.375-5.703125-9.570312-3.878906-14.40625 1.328125-3.535156 5.15625-6.535156 9.984375-7.835937 1.640625-.441406 3.28125-.65625 4.855469-.65625 3.160156 0 6.042968.871094 8.070312 2.527344 2.253906 1.84375 3.675782 5.003906 3.804688 8.453124.195312 5.441407-2.96875 10.972657-7.703125 13.453126zm0 0"/><path d="m262.410156 434.878906c-5.085937-4.15625-12.609375-5.433594-20.121094-3.414062-7.402343 1.992187-13.175781 6.769531-15.4375 12.777344-3.019531 8.019531-.394531 17.875 6.246094 23.433593 3.871094 3.238281 8.917969 4.917969 13.980469 4.917969 3.476563 0 6.964844-.792969 10.070313-2.421875 7.503906-3.933594 12.332031-12.328125 12.015624-20.894531-.210937-5.8125-2.675781-11.0625-6.753906-14.398438zm-9 28.152344c-4.742187 2.480469-11.105468 1.835938-15.136718-1.539062s-5.699219-9.570313-3.878907-14.40625c1.332031-3.535157 5.160157-6.535157 9.988281-7.835938 1.640626-.441406 3.28125-.65625 4.855469-.65625 3.160157 0 6.042969.871094 8.066407 2.527344 2.257812 1.84375 3.679687 5.003906 3.808593 8.453125.195313 5.441406-2.96875 10.976562-7.703125 13.457031zm0 0"/><path d="m316.832031 435.511719c-5.085937-4.15625-12.605469-5.433594-20.121093-3.414063-7.402344 1.992188-13.171876 6.769532-15.4375 12.78125h.003906c-3.019532 8.019532-.394532 17.871094 6.246094 23.429688 3.871093 3.238281 8.917968 4.921875 13.980468 4.921875 3.476563 0 6.964844-.796875 10.074219-2.425781 7.5-3.929688 12.328125-12.328126 12.011719-20.894532-.210938-5.8125-2.675782-11.0625-6.757813-14.398437zm-8.996093 28.152343c-4.742188 2.480469-11.105469 1.835938-15.136719-1.539062s-5.699219-9.566406-3.878907-14.40625c1.332032-3.535156 5.15625-6.535156 9.984376-7.835938 1.644531-.441406 3.285156-.65625 4.859374-.65625 3.160157 0 6.039063.871094 8.066407 2.527344 2.253906 1.84375 3.679687 5.003906 3.804687 8.453125.199219 5.441407-2.964844 10.976563-7.699218 13.457031zm0 0"/><path d="m371.269531 437.496094c-5.085937-4.15625-12.609375-5.433594-20.121093-3.414063-7.402344 1.992188-13.175782 6.769531-15.4375 12.78125-3.019532 8.019531-.390626 17.871094 6.25 23.429688 3.867187 3.242187 8.917968 4.921875 13.976562 4.921875 3.476562 0 6.964844-.796875 10.074219-2.425782 7.5-3.929687 12.328125-12.328124 12.011719-20.890624-.210938-5.816407-2.675782-11.066407-6.753907-14.402344zm-9 28.152344c-4.738281 2.480468-11.105469 1.835937-15.132812-1.535157-4.035157-3.378906-5.703125-9.570312-3.878907-14.410156 1.328126-3.53125 5.15625-6.535156 9.984376-7.832031 1.640624-.441406 3.28125-.65625 4.855468-.65625 3.160156 0 6.042969.867187 8.066406 2.523437 2.257813 1.84375 3.679688 5.003907 3.804688 8.457031.199219 5.4375-2.964844 10.972657-7.699219 13.453126zm0 0"/><path d="m423 439.5c-5.089844-4.15625-12.609375-5.429688-20.121094-3.410156-7.402344 1.988281-13.171875 6.765625-15.4375 12.777344-3.019531 8.019531-.390625 17.875 6.25 23.433593 3.867188 3.238281 8.917969 4.917969 13.976563 4.917969 3.480469 0 6.964843-.796875 10.074219-2.425781 7.5-3.929688 12.332031-12.324219 12.015624-20.890625-.214843-5.816406-2.675781-11.066406-6.757812-14.402344zm-9 28.152344c-4.738281 2.480468-11.105469 1.839844-15.132812-1.535156-4.035157-3.375-5.703126-9.570313-3.878907-14.410157 1.332031-3.53125 5.15625-6.535156 9.984375-7.832031 4.9375-1.328125 9.890625-.613281 12.921875 1.871094 2.257813 1.839844 3.679688 5 3.808594 8.453125.195313 5.441406-2.96875 10.972656-7.703125 13.453125zm0 0"/><path d="m206.515625 313.261719c2.90625 1.511719 6.144531 2.242187 9.386719 2.242187 5.417968 0 10.84375-2.042968 14.730468-5.890625 6.21875-6.152343 7.855469-16.277343 3.898438-24.078125-3.996094-7.871094-12.433594-12.074218-21.496094-10.703125-9.058594 1.367188-15.871094 7.875-17.359375 16.582031-1.476562 8.621094 3.082031 17.808594 10.839844 21.847657zm-2.894531-20.488281c1.082031-6.332032 6.195312-9.300782 10.617187-9.972657.679688-.101562 1.390625-.15625 2.121094-.15625 4.011719 0 8.519531 1.691407 10.980469 6.542969 2.378906 4.683594 1.355468 11-2.378906 14.695312-3.730469 3.695313-10.058594 4.652344-14.71875 2.226563-4.660157-2.425781-7.507813-8.160156-6.621094-13.335937zm0 0"/><path d="m262.652344 313.050781c3.007812 1.652344 6.398437 2.449219 9.796875 2.449219 5.261719 0 10.53125-1.921875 14.390625-5.578125 6.347656-6.015625 8.203125-16.105469 4.414062-23.988281-3.828125-7.957032-12.171875-12.34375-21.261718-11.164063-9.085938 1.175781-16.039063 7.535157-17.710938 16.207031-1.660156 8.585938 2.699219 17.871094 10.371094 22.074219zm-2.457032-20.542969c1.21875-6.308593 6.394532-9.167968 10.828126-9.742187.589843-.074219 1.195312-.117187 1.820312-.117187 4.085938 0 8.726562 1.753906 11.144531 6.78125 2.273438 4.734374 1.117188 11.027343-2.695312 14.640624-3.8125 3.617188-10.160157 4.4375-14.765625 1.910157-4.605469-2.523438-7.328125-8.316407-6.332032-13.472657zm0 0"/><path d="m290.746094 338.714844c.21875-4.289063-1.109375-11.917969-12.492188-14.824219-15.792968-4.035156-34.34375-2.417969-50.707031-.992187-2.304687.203124-4.5625.398437-6.761719.574218-5 .402344-9.855468.964844-14.292968 3.421875-4.777344 2.644531-9.179688 8.222657-8.25 14.730469.613281 4.316406 3.761718 10.203125 15.253906 13.75 10.667968 3.289062 21.773437 4.945312 32.894531 4.945312 7.625 0 15.261719-.78125 22.757813-2.34375 17.222656-3.597656 21.25-12.460937 21.597656-19.261718zm-84.523438 1.769531c-.367187-2.570313 1.820313-5.234375 4.171875-6.535156 3.035157-1.679688 6.792969-2.097657 11.03125-2.4375.503907-.039063 1.023438-.085938 1.53125-.128907l2.023438 18.640626c-3.066407-.644532-6.105469-1.425782-9.109375-2.355469-3.367188-1.039063-9.101563-3.351563-9.648438-7.183594zm27.019532 10.925781-2.25-20.714844c7.0625-.609374 14.476562-1.191406 21.765624-1.277343l1.480469 22.453125c.003907.03125.011719.054687.015625.082031-7.003906.535156-14.046875.34375-21.011718-.542969zm49.453124-13.105468c-.296874 5.769531-5.410156 9.734374-15.199218 11.777343-1.738282.363281-3.484375.667969-5.234375.941407l-1.417969-21.460938c5.375.265625 10.585938.90625 15.414062 2.140625 5.875 1.5 6.566407 4.058594 6.4375 6.601563zm0 0"/><path d="m116.878906 52.046875c13.117188 10.429687 29.753906 14.6875 44.296875 17.472656 13.296875 2.550781 26.679688 4.261719 39.980469 5.335938-.457031 4.363281 1.507812 8.828125 4.371094 11.683593 3.628906 3.621094 8.503906 5.300782 12.789062 6.464844 2.84375.769532 5.734375 1.40625 8.652344 1.933594l-.53125 38.652344-18.132812-.171875c-3.847657-.039063-11.023438-.109375-15.171876 5.113281-2.996093 3.769531-2.953124 8.628906-2.921874 11.84375l.230468 24.8125c.089844 9.511719 6.78125 16.039062 16.65625 16.238281.097656.003907.191406.003907.285156.003907 3.789063 0 6.199219-1.550782 7.566407-2.875 2.503906-2.425782 3.804687-6.171876 3.863281-11.132813.015625-1.441406-.332031-10.574219-.484375-14.433594-.121094-3.113281-.242187-6.160156-.34375-8.488281l45.757813-.335938.039062 32.027344c0 1.089844.441406 2.128906 1.222656 2.886719s1.820313 1.171875 2.921875 1.136719l17.449219-.496094c2.128906-.0625 3.84375-1.769531 3.914062-3.898438l1.214844-36.820312c.085938-2.648438.21875-6.65625-2.164062-9.953125-3.535156-4.898437-10.113282-4.960937-13.269532-4.988281l-19.230468-.1875 1.332031-37.882813c.550781-.058593 1.101563-.113281 1.652344-.179687 4.777343-.609375 10.289062-1.667969 14.933593-4.90625 5.429688-3.789063 8.308594-10.109375 7.230469-15.804688 8.839844-.515625 17.472657-1.140625 25.8125-1.816406l.199219-.019531c16.8125-1.363281 34.199219-2.777344 49.207031-12.253907 9.929688-6.269531 18.027344-14.9375 23.417969-25.058593.660156-1.234375 2.921875-7.476563 4.484375-12.367188 3.738281-11.695312 3.242187-13.976562 2.207031-15.746093-.796875-1.363282-2.203125-2.203126-3.765625-2.238282l-18.199219-.421875c-12.636718-.292969-25.273437-.589843-37.910156-.886719-10.6875-.253906-21.597656-.933593-32.144531-1.59375-6.34375-.394531-12.90625-.804687-19.390625-1.121093-31.484375-1.5351565-63.378906-1.949219-94.796875-1.234375-12.882813.292968-25.929687.777344-38.78125 1.445312-.613281.03125-2.402344.066406-4.671875.113282-5.351562.113281-13.4375.28125-20.472656.644531-13.082032.671875-15.722656 1.425781-16.628906 4.734375-4.804688 17.59375 5.238281 35.164062 17.324218 44.769531zm164.921875 91.722656c.769531 1.0625.695313 3.316407.640625 4.964844l-1.089844 33.035156-9.515624.269531-.035157-31.941406c-.003906-1.074218-.433593-2.101562-1.195312-2.855468-.761719-.757813-1.824219-1.171876-2.867188-1.171876-3.710937.027344-7.421875.054688-11.132812.082032-9.339844.070312-18.675781.136718-28.015625.207031-3.664063.027344-7.328125.054687-10.988282.082031-1.261718.007813-2.8125-.191406-4.03125.097656-3.191406.761719-3.824218 4.066407-3.703124 6.867188.347656 7.945312.972656 15.96875.882812 23.917969-.03125 2.617187-.546875 4.597656-1.410156 5.4375-.179688.175781-.652344.644531-2.078125.601562-5.597657-.113281-8.707031-3.042969-8.757813-8.25l-.230468-24.816406c-.023438-2.75.046874-5.332031 1.171874-6.75 1.402344-1.765625 4.6875-2.070313 8.136719-2.070313.214844 0 .429688 0 .648438.003907l66.761719.640625c2.796874.027344 5.796874.242187 6.808593 1.648437zm-34.027343-9.972656-13.273438-.128906.515625-37.585938c3.570313.363281 7.15625.546875 10.738281.546875 1.109375 0 2.21875-.015625 3.328125-.050781zm25.28125-57.292969c.636718 3.03125-1.582032 6.160156-3.914063 7.785156-3.207031 2.238282-7.53125 3.035157-11.335937 3.523438-12.394532 1.574219-25.320313.679688-37.378907-2.589844-3.425781-.933594-6.914062-2.105468-9.203125-4.390625-1.359375-1.355469-2.324218-3.601562-1.992187-5.40625 10.53125.65625 20.992187.941407 31.296875.941407 11.03125 0 21.878906-.324219 32.457031-.839844-.011719.320312 0 .648437.070313.976562zm-166.179688-65.125c3.875-.605468 13.921875-1.082031 29.949219-1.417968 2.519531-.050782 4.183593-.085938 4.921875-.125 12.773437-.660157 25.742187-1.144532 38.542968-1.433594 31.230469-.710938 62.929688-.296875 94.222657 1.226562 6.429687.3125 12.960937.71875 19.277343 1.113282 10.628907.664062 21.617188 1.351562 32.460938 1.609374 12.636719.296876 25.273438.59375 37.914062.886719l14.414063.335938c-1.273437 5.550781-5.128906 16.585937-6.070313 18.585937-4.734374 8.886719-11.863281 16.507813-20.609374 22.03125-13.332032 8.417969-29.714844 9.75-45.554688 11.039063l-.195312.015625c-43.226563 3.511718-94.074219 5.824218-143.453126-3.644532-13.582031-2.601562-29.050781-6.523437-40.800781-15.863281-9.542969-7.585937-17.605469-20.953125-15.019531-34.359375zm0 0"/><path d="m227.425781 62.203125c3.398438 1.53125 7.097657 2.265625 10.824219 2.265625 8.339844 0 16.796875-3.675781 22.207031-10.261719 6.632813-8.082031 8.074219-19.355469 3.585938-28.058593-4.691407-9.089844-15.417969-14.144532-27.328125-12.878907-11.929688 1.269531-21.363282 8.46875-24.03125 18.34375-3.183594 11.765625 3.429687 25.488281 14.742187 30.589844zm-6.960937-28.484375c2.179687-8.0625 10.578125-11.734375 17.101562-12.429688.832032-.089843 1.703125-.136718 2.597656-.136718 6.121094 0 13.371094 2.21875 16.710938 8.695312 2.988281 5.789063 1.898438 13.703125-2.652344 19.246094-5.496094 6.691406-15.808594 9.222656-23.484375 5.761719-7.859375-3.546875-12.46875-13.027344-10.273437-21.136719zm0 0"/></svg>