<?xml version="1.0" encoding="iso-8859-1"?>
<!-- Generator: Adobe Illustrator 16.0.0, SVG Export Plug-In . SVG Version: 6.00 Build 0)  -->
<!DOCTYPE svg PUBLIC "-//W3C//DTD SVG 1.1//EN" "http://www.w3.org/Graphics/SVG/1.1/DTD/svg11.dtd">
<svg version="1.1" id="Capa_1" xmlns="http://www.w3.org/2000/svg" xmlns:xlink="http://www.w3.org/1999/xlink" x="0px" y="0px"
	 width="420.076px" height="420.076px" viewBox="0 0 420.076 420.076" style="enable-background:new 0 0 420.076 420.076;"
	 xml:space="preserve">
<g>
	<g>
		<g>
			<path d="M321.853,269.326c-1.837-0.611-3.673-1.836-5.509-2.447c-16.522-41.004-79.56-61.2-107.1-25.704
				c3.06-25.092,0.612-50.796-8.568-74.052c11.628,2.448,23.869,1.224,33.048-6.12c1.226,0,2.448-0.612,3.062-1.224
				c0.612-1.224,1.224-1.836,1.836-3.06c0,0,0,0,0.612-0.612c0.61-0.612,0.61-1.224,0-1.836c1.224-8.568-6.732-18.36-12.854-23.256
				c-5.508-3.672-11.016-6.12-17.136-6.732c5.508-3.672,9.792-8.568,13.464-12.852c5.508-7.344,9.18-20.808,0-25.704
				c0-0.612,0-1.224-0.612-1.836c-11.016-9.792-24.48-1.224-34.272,10.404c0.612-4.284,0.612-8.568,0-12.852
				c-1.224-9.792-6.12-15.3-13.464-18.36c0-1.224-0.612-3.06-2.448-3.06c-23.868-0.612-20.196,34.884-14.688,51.408
				c-7.956-11.016-23.868-16.524-37.332-15.3c-3.672,0-16.524,3.672-17.136,8.568c-11.016,6.12-3.06,25.092,3.672,31.824
				c7.344,6.732,15.912,10.404,25.704,11.016c-12.852,11.628-25.092,29.988-14.076,39.78c0,0.612,0,1.224,0,1.224
				c4.284,12.24,22.644,7.956,29.988,2.448c3.06-2.448,6.12-5.508,7.956-9.18c3.672,9.792,11.016,17.748,21.42,16.524
				c-0.612,2.448,1.836,6.12,4.896,4.896c9.792-3.672,15.3-14.688,15.3-25.092c0-4.896-1.224-9.18-2.448-12.852
				c0.612,0,1.224,0.612,1.836,0.612c9.792,72.828-5.508,132.192-55.08,187.883c-3.672,3.673,1.836,8.567,5.508,5.509
				c27.54-21.42,47.124-53.856,56.916-89.354c23.868,29.988,87.518,25.704,115.668,8.568c1.837-1.225,2.448-3.062,2.448-4.896
				C323.076,272.999,323.688,270.551,321.853,269.326z M216.588,88.175c0,0.612,0.612,0.612,1.226,0.612
				c8.566,3.672,2.446,14.076-1.837,18.972c-3.061,3.06-6.733,6.732-10.405,9.18c-5.508,3.672-11.016,6.12-17.136,8.568
				c-0.612-4.284-3.672-9.18-7.344-11.628C188.436,101.027,200.675,87.563,216.588,88.175z M171.299,66.143
				c14.688,11.016,7.344,29.988,4.284,45.288c0,0,0,0-0.612,0l-0.612-0.612c-3.672-0.612-7.344-0.612-11.016,0.612
				C159.06,98.579,154.774,67.367,171.299,66.143z M118.667,133.463c-9.792-6.732-11.628-14.688-9.18-25.704
				c0-0.612,0-1.224-0.612-1.836c5.508-1.836,22.032,0,23.256,0c7.956,2.448,12.852,6.732,19.584,11.016
				c-3.06,2.448-4.896,6.12-5.508,10.404c-0.612,3.672,0,6.732,0.612,10.404c-1.836,0.612-3.06,1.836-4.896,2.448
				C133.967,140.195,125.398,138.359,118.667,133.463z M152.938,168.959c-1.836,4.284-3.672,7.956-7.344,11.016
				c-3.06,3.06-7.956,5.508-12.852,5.508c-3.672,0-6.12-1.836-9.18-2.448c-6.12-15.912,17.748-27.54,26.928-38.556
				c1.224,1.836,3.06,3.06,4.896,4.284C153.551,154.883,152.328,161.615,152.938,168.959z M155.388,126.731
				c2.448-5.508,7.344-9.18,13.464-11.016c0,0.612,0.612,0.612,1.224,0.612c3.06,0.612,6.12,0.612,8.568,1.836
				c3.672,1.836,4.896,6.12,4.896,9.792c-0.612,0.612-0.612,1.836-0.612,3.06c-1.224,3.06-3.672,6.12-6.732,8.568
				c-1.836-1.224-3.672,0.612-4.284,2.448c-2.448,1.224-4.896,1.224-7.344,0.612c-0.612-0.612-1.224-1.224-2.448-0.612
				C155.388,139.583,152.938,132.239,155.388,126.731z M179.868,195.887C179.868,195.887,179.868,195.275,179.868,195.887
				c-11.016-1.224-15.3-14.076-17.136-22.644c-1.224-7.344,0.612-14.688,1.224-21.42l0,0c3.06,0,6.732-0.612,9.18-2.448
				c2.448,3.672,5.508,7.344,9.18,9.792C189.046,172.019,191.496,184.871,179.868,195.887z M181.704,143.867
				c2.448-2.448,4.896-6.12,6.12-9.18c2.448-0.612,4.896-1.224,7.956-1.836c7.956-1.224,16.524,0,23.257,4.284
				c3.672,2.448,7.344,5.508,9.792,9.18c1.836,3.06,2.448,6.732,2.448,10.404c-9.182,3.672-18.974,3.672-28.154,0.612
				C194.556,154.271,188.436,148.763,181.704,143.867z M302.88,261.37c-4.896-1.836-10.403-3.061-15.912-4.283
				c2.448-1.836,4.896-4.284,6.732-6.12C296.76,254.026,299.82,257.698,302.88,261.37z M288.804,246.07
				c-3.06,3.062-6.12,6.12-9.18,9.182c-6.12-1.226-11.628-2.448-17.748-3.062c6.12-4.283,12.24-8.567,17.748-12.852
				C283.296,241.175,286.356,243.622,288.804,246.07z M261.264,232.606c4.284,0.612,8.568,1.836,12.24,3.673
				c-6.73,4.896-12.852,9.791-19.584,15.3c-4.896-0.611-10.404-1.225-15.3-1.225c5.508-3.672,10.404-7.956,14.688-12.852
				c1.836-1.836-0.611-5.509-3.061-3.672c-6.732,4.896-12.853,10.402-18.972,15.911c-6.732,0-13.465,0-20.196,0
				C224.544,235.667,241.68,228.935,261.264,232.606z M205.571,260.759c0-1.225,0.612-2.448,1.224-4.284
				c0.612-0.611,1.224-1.224,1.836-2.448c2.449,0,4.897,0.612,7.345,0.612c0,0.612,0,0.612,0,1.225
				c1.836,5.508,4.283,12.239,7.955,17.137C216.588,271.162,210.467,266.879,205.571,260.759z M230.664,276.671
				c-3.672-6.732-7.956-13.465-11.016-20.81c6.73,0.612,12.852,1.837,19.584,3.062c2.446,6.731,5.508,14.688,10.402,20.808
				C242.904,279.118,236.784,278.507,230.664,276.671z M256.368,279.73c-1.836-2.447-4.284-4.896-6.12-7.956
				c-2.448-3.672-4.896-7.956-6.732-12.239c6.732,1.225,13.466,2.447,20.196,3.672c3.062,3.673,6.12,6.731,9.792,10.403
				c1.226,1.226,2.448,3.062,3.672,4.284C269.832,279.118,263.1,279.73,256.368,279.73z M283.908,276.671
				c-1.836-2.448-4.896-4.896-6.732-6.732s-3.672-3.06-5.508-4.896c11.628,2.447,23.868,4.896,35.496,6.73
				C300.432,273.61,292.477,275.445,283.908,276.671z"/>
		</g>
		<g>
			<path d="M409.674,119.693c-18.358-43.146-66.4-65.178-111.688-60.588c-48.35,4.896-85.986,39.474-105.266,82.314
				c-18.36-82.008-143.82-90.576-181.458-12.852c-51.408,105.875,84.762,213.587,174.726,231.642c1.53,1.224,3.672,1.836,6.12,0.918
				C283.603,329.303,465.366,249.437,409.674,119.693z M398.964,172.631C387.03,278.2,264.019,305.129,186.6,347.662
				c-1.53,0.918-2.142,1.837-2.754,3.061c-67.32-36.107-139.842-67.933-161.568-149.634C9.12,151.211,33.906,99.191,86.844,89.093
				c50.49-9.792,83.232,31.212,95.778,74.358c2.142,6.732,12.546,5.814,12.546-1.53c20.809-41.616,56-81.396,105.264-85.68
				C357.348,71.345,405.39,114.491,398.964,172.631z"/>
			<path d="M150.492,274.223c-11.628-14.688-29.988-18.666-47.736-16.218c13.464-34.885,13.464-73.746-6.426-106.488
				c-1.224-1.836-4.284-0.612-3.366,1.53c13.77,36.72,15.606,73.746-3.06,109.548c-2.142,3.979,1.224,8.874,5.814,7.649
				c19.584-5.509,33.966,0.307,50.49,9.792C149.878,281.872,152.938,277.282,150.492,274.223z"/>
			<path d="M218.73,222.814c-3.979-7.956-13.16-11.016-21.422-8.874c-8.874,2.448-14.076,10.404-17.442,18.666
				c-0.612-6.73-3.366-12.852-10.098-15.911c-7.65-3.366-15.912-0.307-19.278,7.344c-8.568,17.748,11.628,46.206,26.316,54.469
				c3.672,2.142,6.732-2.448,4.284-5.508c-5.814-7.345-12.852-13.158-17.442-21.421c-2.142-3.672-4.284-7.956-5.508-12.239
				c-1.224-3.672-1.53-7.345-0.918-11.017c11.934-4.896,18.054-2.143,18.054,8.874c0.306,3.061,4.59,3.365,4.896,0.307
				c1.53,1.224,4.284,1.529,5.202-0.612c2.754-6.426,7.038-13.771,14.382-14.994c11.936-2.447,13.772,10.71,8.568,18.36
				c-7.65,11.016-21.114,14.382-29.988,23.256c-3.366,3.366,0.306,7.956,4.284,7.344c11.322-1.836,24.174-12.852,31.518-21.42
				C219.342,241.786,223.014,231.688,218.73,222.814z"/>
			<path d="M263.712,205.985c-15.912,10.404-9.792,36.108-16.218,53.856c-7.038-16.219-11.016-33.66-11.935-51.408
				c-0.307-4.284-6.427-4.284-6.731,0c-0.918,23.255,3.366,45.288,13.158,66.402c1.528,3.06,6.426,3.672,8.566,1.224
				c7.346-8.262,10.404-17.748,11.936-28.764c0.918-6.427,1.224-13.158,2.447-19.891c1.225-6.12,3.979-11.629,4.283-17.748
				C269.832,206.597,266.16,204.455,263.712,205.985z"/>
			<path d="M327.36,201.701c-12.546-7.956-27.848-0.612-35.496,10.403c-8.263,11.935-14.688,32.437-6.427,45.9
				c6.427,10.403,22.645,13.157,29.987,2.447c3.979-5.813-4.283-10.71-8.874-7.037c-8.874,7.037-12.239-5.202-12.239-12.547
				c4.896,0.307,9.792,0.611,14.688,0.918c5.508,0.307,11.628,1.529,16.83-0.307c1.224-0.306,2.142-1.224,2.754-2.447l0.307-0.307
				C335.316,227.404,341.13,210.575,327.36,201.701z M308.388,232.606c-4.59,0.307-8.874,0.612-13.464,0.612
				c1.53-5.508,3.672-11.017,7.038-15.605c3.979-5.509,13.464-11.016,19.891-5.509c5.201,4.591,3.061,13.464,0.611,19.891
				C318.18,231.383,313.284,232.301,308.388,232.606z"/>
		</g>
	</g>
</g>
<g>
</g>
<g>
</g>
<g>
</g>
<g>
</g>
<g>
</g>
<g>
</g>
<g>
</g>
<g>
</g>
<g>
</g>
<g>
</g>
<g>
</g>
<g>
</g>
<g>
</g>
<g>
</g>
<g>
</g>
</svg>
