<svg id="Capa_1" enable-background="new 0 0 512 512" height="512" viewBox="0 0 512 512" width="512" xmlns="http://www.w3.org/2000/svg"><g><g><path d="m507.765 470.234c-4.518-5.871-11.927-9.812-19.339-10.286-2.668-.167-5.291-.008-7.855.397 1.237-1.419 2.392-2.928 3.442-4.539 6.137-9.423 7.759-24.269-1.322-33.224-2.43-2.397-5.215-4.014-8.192-5.018 2.66-9.862 5.313-20.047 5.61-30.629.353-12.601-3.026-23.962-9.513-31.991-5.639-6.98-13.954-11.814-22.809-13.262-8.116-1.326-16.7.192-23.905 4.162-3.741-10.973-10.657-19.98-19.544-25.035-8.353-4.753-17.667-5.849-26.207-5.29-4.449-14.111-17.527-24.901-32.28-26.453-13.503-1.42-27.237 5.022-35.056 15.994l-8.797-17.727c10.846-.516 21.595-2.989 31.579-7.369 17.679-7.755 32.593-21.313 41.992-38.175 4.697-8.425 11.635-24.898 5.335-40.563-2.272-5.652-5.981-9.398-10.443-10.547-5.746-1.479-12.175 1.505-17.192 7.983-4.437 5.725-7.299 12.313-10.066 18.685-2.691 6.194-5.233 12.044-9.074 17.05-8.946 11.661-25.494 17.096-39.709 13.443 22.613-18.105 33.931-49.239 27.241-77.676-1.932-8.208-5.366-16.043-10.006-23.173.202-.06.405-.122.6-.222 23.651-12.101 40.788-22.729 55.564-34.459 18.865-14.975 33.376-31.676 43.132-49.637 3.935-7.243 8.933-18.178 6.926-29.463-2.003-11.259-10.996-21.08-22.912-25.019-10.137-3.351-22.053-2.579-33.553 2.175-11.518 4.761-21.069 12.802-27.251 18.436-26.09 23.778-45.89 55.362-55.994 89.221-1.18-.546-2.372-1.07-3.581-1.558-18.242-7.355-39.02-6.654-57.65 1.554-10.402-21.46-20.273-40.687-33.782-57.878-16.307-20.756-35.809-35.04-56.394-41.308-8.437-2.57-24.205-5.442-35.015 4.191-6.95 6.193-10.088 16.694-8.189 27.406 1.723 9.726 6.912 18.093 11.76 24.996 21.924 31.213 53.798 55.249 89.826 67.774-2.964 4.008-5.504 8.279-7.558 12.771-13.549 29.624-5.789 66.928 18.451 88.699 1.376 1.236 2.809 2.396 4.269 3.515-13.868 2.925-29.594-2.53-38.229-13.789-3.842-5.007-6.384-10.858-9.075-17.052-2.767-6.37-5.63-12.958-10.065-18.683-5.017-6.478-11.444-9.465-17.193-7.982-4.461 1.148-8.17 4.894-10.442 10.546-6.301 15.665.638 32.138 5.335 40.563 9.399 16.862 24.313 30.42 41.992 38.175 10.084 4.424 20.946 6.901 31.903 7.382l-4.989 12.836c-7.864-8.899-20.477-13.279-32.182-10.781-12.682 2.704-23.028 13.203-25.727 25.835-8.939-1.146-17.802-.117-25.753 3.276-13.596 5.803-24.468 18.489-30.227 34.834-13.55-3.801-29.293.269-40.577 10.652-10.323 9.499-16.749 23.505-18.094 39.44-1.092 12.936 1.041 26.827 6.52 42.465.119.341.289.648.493.924-1.017 1.007-1.944 2.084-2.742 3.245-3.217 4.681-4.318 10.905-2.946 16.649.326 1.367.782 2.658 1.355 3.859-3.188-.014-6.454.378-9.593 1.642-6.816 2.745-12.165 10.642-9.26 18.027 3.127 7.92 12.538 9.193 19.342 9.461 102.717 4.096 206.439 6.151 309.85 6.151 48.722 0 97.382-.457 145.82-1.37 6.465-.122 13.793-.261 20.618-2.819 7.998-3.006 13.835-9.242 15.232-16.276 0-.001.001-.002.001-.003 1.024-5.17-.364-10.554-3.906-15.158zm-62.509-48.175c-3.176 1.748-6.262 3.73-9.245 5.647-.361.232-.721.463-1.08.693.4-.591.783-1.197 1.146-1.82 3.441-5.894 4.771-13.916 2.199-20.597 1.465.143 2.926.24 4.375.24 10.969 0 21.37-4.075 29.807-11.741-.993 7.36-2.939 14.672-4.867 21.813-7.758-.391-15.972 2.252-22.335 5.765zm-129.009-31.12c-3.12-4.551-8.5-7.704-14.618-8.891.965-2.49 2.043-4.93 3.219-7.32.022.001.042.009.064.01 16.892.86 33.437 5.068 48.631 12.202-3.504.612-7.35 1.888-11.541 3.856-7.998 3.744-15.77 8.011-23.237 12.754.899-4.518.057-8.855-2.518-12.611zm-67.043-20.094c-1.085-5.253.508-11.182 4.277-15.174 4.323-4.578 11.463-6.626 17.764-5.093 6.201 1.508 11.723 6.461 14.07 12.618 2.421 6.352 1.76 15.801-1.505 21.513-.024.043-.036.088-.059.131-1.472.887-2.85 1.929-4.092 3.118-2.044-4.54-5.388-8.63-9.716-11.751-6.237-4.502-13.742-6.426-20.739-5.362zm42.652-10.142c-3.19-8.373-10.454-14.859-18.957-16.927-8.808-2.143-18.423.642-24.508 7.089-5.531 5.859-7.73 14.36-5.916 22.003-4.952 2.267-9.326 6.102-12.46 11.057-2.401 3.798-3.901 7.974-4.437 12.17-2.788-2.391-5.801-4.5-8.968-6.34 2.704-5.164 5.408-11.229 5.349-17.797-.071-8.043-4.58-15.905-11.486-20.029-5.246-3.133-11.736-4.018-17.671-2.619 1.394-5.58 2.965-11.124 4.904-16.511 4.765 3.197 10.479 4.896 16.204 4.896 3.014 0 6.03-.47 8.909-1.438 9.498-3.193 16.908-11.605 18.879-21.43 1.658-8.259-.63-17.071-5.874-23.599.128-.035.253-.079.381-.112 9.981-2.595 21.11-1.125 31.47 3.767-2.422 3.605-5.481 8.72-7.044 14.541-1.751 6.517-1.341 13.014 1.153 18.294 3.606 7.635 11.81 12.945 20.9 13.526.575.037 1.152.055 1.732.055 6.547 0 13.354-2.33 19.212-6.551 2.872 6.064 5.113 11.903 6.893 16.894.101.281.242.533.401.77-7.078 8.701-12.746 18.553-16.586 29.17-.611.039-1.225.097-1.838.176-.011.001-.021.004-.032.006 1.847-6.821 1.725-14.937-.61-21.061zm-226.639 81.679c-4.005-1.382-8.2-2.579-12.52-3.25.067-.372.091-.757.031-1.151-1.148-7.535-4.879-14.517-10.504-19.66-5.127-4.689-11.638-7.667-18.511-8.517.007-1.952.082-3.879.242-5.777.389-4.607 1.288-9.071 2.623-13.287.161-.006.321-.007.484-.035 9.985-1.762 21.031 3.258 26.264 11.943 1.163 1.931 2.09 4.039 3.07 6.27.975 2.218 1.982 4.511 3.277 6.722 2.508 4.279 5.818 7.364 9.453 8.931-2.452 3.508-3.985 7.748-4.278 12.104-.131 1.973-.004 3.89.369 5.707zm-28.929-69.547c.028-.008.057-.008.086-.017 6.478-1.961 13.419-.663 18.561 3.473 5.697 4.58 9.844 11.051 13.856 17.309.515.803 1.304 1.317 2.165 1.515-.024.365.002.729.092 1.085.419 7.24 1.191 14.439 1.959 21.541.032.296.112.574.211.841-3.803-.825-6.482-4.738-7.505-6.482-1.089-1.86-1.973-3.871-2.908-5.999-1.026-2.335-2.087-4.751-3.482-7.067-6.147-10.202-18.038-16.276-29.849-15.619 1.869-3.896 4.156-7.463 6.814-10.58zm133.867-27.25c3.963 4.805 7.373 9.972 10.326 15.235-.942.172-1.813.714-2.355 1.594-2.977 4.831-8.101 8.223-13.71 9.073-5.614.85-11.51-.869-15.785-4.6-1.131-.987-2.768-1.144-4.067-.385-1.298.758-1.967 2.26-1.662 3.732.923 4.452-.202 9.267-2.934 12.566-2.771 3.344-7.368 5.164-11.435 4.533-4.109-.638-7.793-3.894-8.76-7.742-.409-1.63-1.917-2.735-3.598-2.641-1.678.098-3.05 1.374-3.268 3.04-1.021 7.806-6.69 14.822-14.109 17.457-6.965 2.474-15.165.98-20.871-3.691-.393-8.299-.232-16.592 1.042-24.743 4.209 4.149 10.091 6.558 16 6.558 2.161 0 4.327-.322 6.414-.999 5.881-1.906 10.611-6.452 13.151-11.99 1.854 1.736 4.119 3.04 6.632 3.705 6.696 1.776 14.108-1.27 17.627-7.234 1.715-2.907 2.381-6.022 2.496-9.267 3.537 2.139 7.637 3.346 11.8 3.359h.066c6.418.002 12.695-2.839 17-7.56zm-90.278 70.578c-.492-4.55-.978-9.137-1.364-13.74 4.118 2.086 8.744 3.188 13.363 3.188 3.148 0 6.293-.511 9.266-1.566 7.149-2.54 13.074-8.147 16.297-14.995 2.67 2.702 6.203 4.608 10.02 5.201 6.523 1.013 13.547-1.729 17.9-6.985 2.602-3.141 4.216-7.051 4.708-11.164 4.759 2.249 10.175 3.1 15.399 2.307 7.347-1.114 14.074-5.444 18.169-11.634 2.516 5.055 4.654 10.082 6.526 14.848-3.313-.226-6.651-.188-9.976.157-6.574.684-11.623 2.466-15.433 5.448-4.022 3.148-8.171 11.272-8.275 18.526-2.634-1.311-5.429-2.524-8.325-3.447-10.234-3.263-23.82-2.353-31.1 7.034-2.192 2.831-3.339 6.425-3.387 10.164-3.196-1.66-6.24-2.923-9.288-3.868-8.699-2.686-17.389-2.434-24.5.526zm118.196-33.474c-2.318-6.144-5.061-12.846-8.459-19.603.419-1.89.84-3.786 1.271-5.686 4.967-2.517 11.215-2.317 15.998.539 4.855 2.899 8.025 8.427 8.075 14.081.045 5.012-2.189 9.991-4.588 14.562-3.946-1.724-8.073-3.032-12.297-3.893zm30.73-88.825c5.003 4.97 7.417 12.681 6.031 19.586-1.465 7.3-7.19 13.799-14.247 16.172-6.683 2.248-14.65.817-20.213-3.534.975-2.236 2.022-4.438 3.176-6.587 6.347-11.825 15.296-20.827 25.253-25.637zm54.777 11.933c7.035 6.652 12.514 14.642 16.835 22.615-5.26 4.09-11.511 6.211-17.284 5.846-6.486-.415-12.521-4.245-15.017-9.531-1.787-3.782-2.044-8.572-.724-13.488 1.075-4 3.078-8.023 6.449-12.974 3.406 2.138 6.684 4.642 9.741 7.532zm56.743 29.881c.028-.003.055.001.083-.003 13.572-1.925 31.509.272 45.695 5.599 12.443 4.671 23.426 12.662 33.577 24.431.116.134.25.241.38.353.024 5.913-.663 11.807-1.679 17.456-2.574-4.369-6.112-7.899-9.003-10.509-12.228-11.033-27.131-18.997-43.099-23.032-13.314-3.364-27.952-4.308-40.938-2.796 4.606-4.309 9.63-8.165 14.984-11.499zm33.924 63.424c3.002 2.16 5.915 4.452 8.73 6.871-3.224 1.525-6.413 3.122-9.56 4.803 1.274-3.651 1.664-7.812.83-11.674zm15.364 3.865c-.198-.486-.495-.939-.916-1.309-22.269-19.582-50.62-31.477-80.156-33.701 2.597-4.333 5.537-8.453 8.783-12.317 13.953-3.251 31.545-2.847 47.242 1.12 14.866 3.756 28.741 11.171 40.124 21.442 6.135 5.536 9.325 10.392 10.042 15.28.06.409.193.788.377 1.133-3.62.456-7.585 1.447-11.892 2.982-4.596 1.635-9.131 3.432-13.604 5.37zm36.233-21.673c3.259 1.639 6.866 2.116 9.927 2.116 1.472 0 2.817-.108 3.935-.247 11.691-1.449 22.483-7.789 29.533-17.169 2.356 5.082 3.682 11.08 3.864 17.594-.157.138-.308.286-.442.456-10.123 12.762-25.239 17.903-40.439 13.749-.172-.047-.344-.066-.515-.087-2.431-1.651-5.267-2.7-8.505-3.14 1-4.217 1.937-8.673 2.642-13.272zm20.812-32.704c7.182 1.175 13.923 5.094 18.495 10.754.036.044.068.092.104.136-5.716 9.015-15.816 15.423-26.409 16.736-2.552.318-8.696.641-12.075-2.79.458-5.713.429-11.563-.423-17.395-.157-1.077-.35-2.139-.564-3.191 6.121-3.87 13.726-5.419 20.872-4.25zm-45.78-21.698c9.093 5.173 15.768 15.474 18.15 27.841-9.289-9.245-19.317-15.829-30.464-20.013-10.142-3.807-22.097-6.108-33.283-6.608 3.196-1.272 6.464-2.376 9.798-3.281 9.938-2.697 24.216-4.529 35.799 2.061zm-55.758-30.864c11.4 1.199 21.917 9.585 25.896 20.333-2.768.469-5.384 1.068-7.771 1.715-13.417 3.641-25.895 10.154-36.664 18.794l-12.125-24.432c5.685-10.794 18.534-17.692 30.664-16.41zm-6.244-262.052c9.207-8.39 17.217-13.837 25.21-17.141 9.952-4.113 20.136-4.823 28.682-1.997 9.361 3.095 16.682 10.97 18.216 19.599 1.236 6.943-.729 14.854-6.184 24.896-9.304 17.129-23.211 33.109-41.333 47.496-14.4 11.431-31.178 21.828-54.4 33.71-.514.263-.921.643-1.236 1.081-1.538-1.979-3.178-3.887-4.904-5.721 22.791-15.469 44.266-33.08 63.846-52.436 11.631-11.498 22.824-24.349 25.947-40.382 1.283-6.584.094-11.732-3.441-14.886-3.799-3.389-9.417-3.775-16.696-1.146-19.289 6.966-37.58 21.281-52.898 41.397-13.112 17.222-23.066 37.057-31.823 54.914-1.102-.71-2.222-1.394-3.36-2.051 9.623-33.141 28.883-64.101 54.374-87.333zm-41.068 96.944c-1.346-1.198-2.733-2.351-4.16-3.46 8.737-17.831 18.651-37.76 31.606-54.775 14.501-19.042 31.689-32.547 49.706-39.054 3.215-1.161 7.499-2.14 9.659-.214 2.114 1.887 1.679 6.025 1.23 8.325-2.76 14.17-13.165 26.034-23.997 36.743-19.617 19.393-41.162 37.013-64.044 52.435zm-196.763-59.517c-4.407-6.274-9.113-13.817-10.596-22.194-1.478-8.339.804-16.37 5.953-20.959 8.564-7.631 22.658-4.444 28.32-2.721 24.268 7.389 42.178 25.251 52.93 38.936 13.091 16.663 22.779 35.546 33.008 56.651-.977.535-1.945 1.091-2.905 1.67-13.138-29.716-35.471-55.366-63.126-72.423-3.692-2.277-8.055-4.779-13.104-5.639-5.95-1.015-11.621.648-15.166 4.444-3.539 3.789-4.86 9.625-3.626 16.013 2.077 10.737 9.775 19.169 16.829 26.23 11.669 11.68 24.134 22.823 37.049 33.12 3.84 3.062 7.848 6.142 12.158 8.783-31.079-12.714-58.414-34.42-77.724-61.911zm93.484 61.309c-.074-.025-.141-.061-.218-.081-8.692-2.284-16.295-7.957-23.338-13.573-12.71-10.133-24.977-21.099-36.46-32.593-6.61-6.617-13.207-13.814-14.908-22.611-.793-4.101-.095-7.805 1.868-9.906 2.277-2.438 6.077-2.796 8.877-2.322 3.81.649 7.471 2.764 10.604 4.696 26.802 16.531 48.366 41.505 60.868 70.408-2.567 1.868-5.006 3.861-7.293 5.982zm-10.579 26.17c5.23-11.436 13.917-21.349 25.122-28.666 11.984-7.827 25.572-11.845 38.945-11.845 8.206 0 16.33 1.513 23.952 4.587 21.394 8.627 37.823 27.33 42.878 48.81 6.668 28.338-7.182 60.908-32.216 75.759-25.039 14.857-60.259 11.39-81.918-8.063-21.667-19.462-28.873-54.103-16.763-80.582zm-57.202 79.498c-4.089-7.335-10.169-21.576-4.954-34.543.663-1.648 2.544-5.568 5.693-6.379 3.476-.897 7.403 2.249 9.915 5.491 3.898 5.032 6.463 10.935 9.178 17.186 2.741 6.309 5.576 12.834 9.94 18.523 11.618 15.145 33.051 21.344 50.958 14.737.114-.042.214-.104.321-.157 12.002 7.033 25.89 10.651 39.775 10.651 13.458 0 26.91-3.391 38.628-10.342.465-.276.917-.57 1.374-.856.325.298.71.542 1.149.704 17.909 6.608 39.34.408 50.958-14.737 4.364-5.688 7.198-12.213 9.939-18.522 2.716-6.25 5.28-12.154 9.179-17.187 2.511-3.241 6.427-6.388 9.914-5.491 3.15.811 5.031 4.731 5.694 6.38 5.215 12.967-.865 27.208-4.954 34.543-8.661 15.536-22.402 28.027-38.691 35.173-16.288 7.145-34.784 8.795-52.083 4.645-1.876-.452-3.768.707-4.22 2.587-.451 1.879.707 3.769 2.587 4.22 5.642 1.354 11.401 2.13 17.178 2.356.032.08.052.163.091.242l26.784 53.972c-1.721 1.588-3.386 3.236-4.996 4.936-5.053-13.683-13.296-32.163-27.717-45.799-15.553-14.705-36.225-20.98-53.946-16.37-14.746 3.833-28.253 15.441-37.06 31.85-6.382 11.893-9.908 24.828-12.865 37.654-1.628-2.694-3.377-5.356-5.266-7.954.057-.11.116-.219.162-.337l22.619-58.196c5.757-.229 11.498-1.004 17.12-2.353 1.88-.451 3.038-2.34 2.587-4.22-.45-1.88-2.338-3.039-4.22-2.587-17.298 4.149-35.795 2.5-52.083-4.645-16.286-7.147-30.027-19.639-38.688-35.175zm32.07 57.865c10.298-2.196 21.94 2.617 27.681 11.445.024.038.057.066.082.103l-12.343 31.759c-2.595-3.006-5.405-5.878-8.472-8.544-8.23-7.151-17.666-12.042-27.263-14.465 2.179-9.793 10.497-18.204 20.315-20.298zm-50.192 28.704c18.291-7.809 39.574.069 52.549 11.343 1.488 1.293 2.895 2.656 4.263 4.05-2.985 3.576-7.689 5.846-12.325 5.805-5.068-.016-10.198-2.725-13.068-6.902-.919-1.338-2.638-1.868-4.149-1.282-1.513.586-2.425 2.135-2.202 3.742.748 5.42 1.194 10.199-.927 13.793-1.894 3.211-6.203 4.978-9.806 4.024-3.205-.849-5.827-3.842-6.41-7.117-.027-.546-.077-1.094-.149-1.64-.244-1.837-1.891-3.175-3.728-3.029-1.849.136-3.27 1.691-3.242 3.544.01.615.058 1.225.141 1.827.152 6.387-4.247 12.832-10.343 14.807-6.547 2.122-14.536-1.08-17.806-7.141-.146-.271-.331-.504-.532-.719 4.633-16.618 14.785-29.577 27.734-35.105zm-34.984 35.096c-.233.924-.457 1.853-.658 2.795-1.495 6.978-2.127 13.993-2.233 20.997-3.187-4.655-6.833-9.31-11.427-13.003-4.109-3.303-9.055-5.258-14.211-5.769 8.736-5.654 19.269-7.579 28.529-5.02zm-49.621 56.892c4.976.86 9.777 3.161 13.481 6.549 4.269 3.904 7.236 9.382 8.217 15.089-5.854.026-11.379 1.444-15.963 3.977-3.132-9.158-5.035-17.636-5.735-25.615zm480.786 67.097c-1.112 5.59-6.323 9.391-10.826 11.084-5.698 2.136-12.099 2.257-18.291 2.374-151.115 2.85-304.285 1.244-455.26-4.776-7.6-.3-11.888-1.948-13.107-5.033-1.302-3.311 1.814-7.539 5.363-8.969 2.1-.846 4.415-1.136 6.782-1.136 2.766 0 5.603.397 8.251.767 1.684.239 3.276-.763 3.808-2.368.53-1.605-.162-3.36-1.646-4.17-2.345-1.28-4.036-3.664-4.765-6.712-.905-3.791-.175-8.029 1.907-11.058 4.534-6.596 13.283-8.685 19.949-8.454 8.233.293 16.243 3.405 23.988 6.414 1.521.592 3.252.051 4.167-1.302s.772-3.16-.345-4.352c-2.145-2.291-3.191-5.559-2.947-9.2.301-4.476 2.539-8.929 5.84-11.621 7.094-5.777 17.378-5.439 24.634-3.197 4.514 1.399 9.095 3.644 14.419 7.067 1.303.839 3.004.718 4.178-.293 1.174-1.012 1.543-2.676.906-4.089-1.741-3.864-1.422-8.545.774-11.382 3.753-4.839 12.454-8.154 23.442-4.653 5.339 1.702 10.158 4.43 15.903 7.819 1.666.981 3.811.429 4.793-1.236s.429-3.81-1.236-4.793c-.008-.004-.016-.009-.023-.013-.466-.276-1.775-1.095-1.966-3.988-.344-5.246 3.141-12.124 5.568-14.024 2.743-2.147 6.617-3.455 11.843-3.998 17.205-1.792 34.816 5.322 45.954 18.557 1.051 1.25 2.825 1.607 4.281.858 1.452-.749 2.193-2.402 1.786-3.984-1.368-5.309-.274-11.325 3.002-16.505 3.275-5.18 8.242-8.748 13.626-9.788 5.385-1.041 11.322.419 16.292 4.005 4.971 3.586 8.227 8.762 8.937 14.199.199 1.523 1.368 2.739 2.883 2.997 1.52.259 3.021-.503 3.713-1.874 2.278-4.518 6.994-7.856 12.012-8.505 6.945-.896 13.964 1.652 17.08 6.197 2.262 3.298 2.194 7.207-.201 11.623-1.247 2.306-3.047 4.519-5.502 6.768-1.378 1.262-1.522 3.384-.326 4.82s3.308 1.68 4.8.554c11.105-8.386 23.125-15.628 35.729-21.528 9.068-4.257 15.653-4.772 19.566-1.531 4.1 3.406 3.889 10.317 1.313 15.036-3.059 5.621-8.896 9.721-14.046 13.339-1.578 1.108-1.962 3.285-.858 4.866 1.103 1.582 3.279 1.974 4.863.875 15.408-10.674 32.147-19.262 49.752-25.527 11.255-4.012 19.231-3.839 23.707.514 4.752 4.625 3.939 12.904.764 18.344-3.77 6.456-10.35 10.968-16.714 15.332-1.357.93-1.882 2.679-1.264 4.202.619 1.524 2.22 2.414 3.835 2.134 8.995-1.544 16.575-6.414 23.905-11.122 2.886-1.854 5.87-3.771 8.841-5.407 9.504-5.245 22.2-7.471 29.14-.623 6.205 6.117 5.061 17.22.373 24.419-5.366 8.235-14.599 13.733-22.747 18.584-1.642.978-2.195 3.092-1.245 4.749.952 1.658 3.056 2.247 4.728 1.322 8.351-4.615 18.74-10.359 29.098-9.705 5.374.344 10.961 3.314 14.234 7.569 1.621 2.106 3.388 5.473 2.586 9.528z"/><path d="m225.971 425.628c-3.994-3.426-10.112-3.674-16.786-.679-2.987 1.34-5.82 3.047-8.431 5.054-.885-5.664-4.856-11.105-10.844-11.795-3.562-.409-7.409.952-10.84 3.835-3.498 2.94-5.914 6.569-7.683 10.63-1.818-3.321-4.476-5.886-7.656-7.3-8.967-3.985-19.193 2.234-23.121 10.546-2.085 4.415-2.789 9.191-2.909 13.812-3.832-3.8-8.192-7.068-12.92-9.658-2.769-1.517-6.46-3.148-10.419-2.315-2.948.621-5.433 2.54-6.998 5.403-1.914 3.5-2.224 7.991-.81 11.72.503 1.327 1.161 2.553 1.925 3.689-6.252-.771-12.613-.654-18.836.369-6.571 1.081-10.743 4.125-11.746 8.57-1.064 4.716 1.809 9.545 7.686 12.917 6.835 3.923 14.65 5.948 22.484 5.948 3.802 0 7.607-.477 11.307-1.446 1.87-.49 2.989-2.402 2.499-4.272-.489-1.87-2.402-2.99-4.272-2.499-9.562 2.503-19.961 1.118-28.534-3.802-2.362-1.355-4.729-3.594-4.343-5.305.382-1.691 3.378-2.764 6.055-3.204 9.411-1.547 19.173-.776 28.226 2.234 1.638.544 3.422-.183 4.214-1.714.791-1.53.351-3.409-1.038-4.429-4.292-3.149-7.684-5.851-9.083-9.537-.688-1.815-.524-4.178.406-5.881.402-.736 1.128-1.665 2.3-1.912 1.723-.363 3.902.667 5.612 1.605 6.861 3.76 12.845 9.146 17.305 15.578.899 1.297 2.554 1.834 4.045 1.305 1.488-.527 2.439-1.986 2.321-3.56-.506-6.761-1.08-14.423 1.851-20.625 2.458-5.204 8.949-9.362 13.946-7.139 2.525 1.124 4.599 3.815 5.544 7.201 1.009 3.611.77 7.62.402 11.065-.2 1.877 1.124 3.574 2.993 3.837 1.875.264 3.61-1.004 3.934-2.863 1.658-9.486 3.656-18.43 9.814-23.607 1.124-.945 3.323-2.491 5.535-2.239 3.073.354 5.074 4.404 4.809 7.788-.153 1.953-.803 3.876-1.697 5.739-1.625 2.196-3.038 4.541-4.2 6.998-.784 1.657-.157 3.638 1.437 4.542 1.595.905 3.618.424 4.635-1.099 1.354-2.024 2.867-4.287 4.127-6.778 3.621-4.73 8.426-8.592 13.83-11.016 1.514-.68 6.661-2.714 9.364-.393 1.896 1.625 1.825 4.978.795 7.308-1.386 3.135-4.25 5.689-7.019 8.16-1.442 1.287-1.568 3.499-.282 4.941 1.287 1.443 3.499 1.569 4.942.282 3.17-2.828 6.763-6.033 8.761-10.553 2.041-4.609 2.083-11.41-2.637-15.456z"/><path d="m404.369 463.993c1.795-3.745 2.028-8.638-.898-12.176-2.652-3.206-7.075-4.487-13.157-3.8-4.946.557-9.793 1.733-14.423 3.483 1.436-3.796 1.272-8.095-1.758-11.047-2.315-2.257-5.639-3.088-10.168-2.542-2.971.359-12.698 1.966-19.486 8.042-.545-3.365-2.053-6.382-4.391-8.502-6.303-5.719-16.549-3.538-22.163 2.087-1.127 1.129-2.109 2.355-2.975 3.643-.233-.871-.514-1.737-.848-2.596-2.525-6.483-9.181-12.551-16.988-11.606-7.138.862-11.931 7.164-13.515 13.027-.583 2.16-.843 4.335-.902 6.486-1.381-1.226-2.891-2.344-4.572-3.271-5.12-2.823-12.643-3.646-17.915.884-2.76 2.372-4.329 5.865-4.419 9.832-.111 4.924 2.059 10.092 5.665 13.488 5.858 5.518 13.962 7.135 20.472 8.433 1.896.376 3.739-.852 4.117-2.748s-.852-3.739-2.748-4.117c-7.165-1.429-12.968-2.826-17.043-6.663-2.172-2.046-3.532-5.278-3.466-8.234.031-1.385.401-3.322 1.984-4.683 2.588-2.225 6.976-1.715 9.971-.062 3.775 2.082 6.673 5.798 9.475 9.392.971 1.247 2.657 1.687 4.113 1.076 1.457-.61 2.324-2.122 2.116-3.688-.641-4.828-1.302-9.82-.092-14.298.94-3.478 3.718-7.435 7.598-7.904 4.211-.512 8.117 3.327 9.625 7.198 1.878 4.821 1.477 10.672 1.124 15.835-.122 1.788 1.126 3.379 2.891 3.687 1.769.309 3.479-.768 3.968-2.493 1.551-5.463 3.309-11.656 7.317-15.673 3.266-3.274 9.206-4.841 12.506-1.847 2.446 2.218 2.716 6.292 1.898 9.346-.777 2.903-2.41 5.623-4.224 8.247-.625.884-1.255 1.772-1.899 2.663-1.135 1.565-.785 3.753.78 4.888 1.566 1.133 3.753.784 4.888-.781.645-.889 1.308-1.805 1.965-2.753.221-.313.441-.626.661-.937 2.809-3.987 5.462-7.753 8.772-11.244 4.104-4.329 11.256-6.559 16.578-7.203 2.811-.338 3.969.143 4.444.607 1.087 1.06.323 3.809-1.043 5.615-.725.958-1.606 1.881-2.54 2.859-1.709 1.79-3.646 3.82-4.883 6.457-.678 1.446-.291 3.167.94 4.185 1.231 1.017 2.995 1.071 4.287.132 7.364-5.354 16.039-8.723 25.086-9.741 2.464-.277 5.671-.275 6.98 1.307 1.136 1.373.609 3.955-.53 5.56-1.629 2.294-4.43 3.887-7.139 5.428-1.656.942-2.255 3.037-1.346 4.712.908 1.675 2.992 2.314 4.684 1.44 8.52-4.407 19.713-2.773 26.617 3.882.679.655 1.554.98 2.429.98.917 0 1.833-.358 2.52-1.071 1.341-1.392 1.3-3.607-.092-4.949-5.535-5.342-13.191-8.202-20.848-8.272z"/><path d="m202.696 175.853c1.276 1.011 2.873 1.535 4.48 1.535.996 0 1.995-.201 2.925-.612 2.352-1.04 4.02-3.286 4.354-5.864.322-2.503-.665-4.986-2.58-6.48-1.776-1.386-4.266-1.721-6.652-.898-2.515.867-4.432 2.826-5.003 5.114v.001c-.654 2.618.341 5.514 2.476 7.204zm4.766-5.688c-.051.096-.129.182-.191.209-.036.017-.109.017-.173-.015.101-.074.233-.144.364-.194z"/><path d="m285.337 176.775c.93.412 1.93.613 2.926.613 1.607 0 3.204-.524 4.48-1.535 2.135-1.689 3.13-4.585 2.476-7.205 0-.001 0-.001 0-.001-.571-2.287-2.488-4.247-5.003-5.114-2.388-.823-4.875-.487-6.654.9-1.913 1.493-2.9 3.975-2.578 6.478.332 2.576 1.999 4.823 4.353 5.864zm6.486-7.281-3.393.858c-.001-.003-.002-.007-.003-.01zm-3.46.881c-.062.016-.152.018-.195-.002-.062-.027-.14-.113-.191-.208.14.054.283.13.386.21z"/><path d="m231.493 222.895c.017.111.022.221.05.332l5.054 19.721c.398 1.554 1.798 2.631 3.39 2.631.048 0 .097-.001.146-.003l14.716-.611c1.696-.07 3.098-1.348 3.323-3.031l2.696-20.074c3.222-1.972 6.079-4.541 8.349-7.591 1.154-1.55.833-3.743-.718-4.897-1.55-1.154-3.744-.833-4.897.718-3.213 4.316-7.962 7.374-13.172 8.605l-.736-9.92c3.886-.499 7.7-1.962 11.104-4.286l.272-.185c2.309-1.562 7.113-4.811 6.03-9.414-1.132-4.811-6.918-5.713-11.065-5.894-5.641-.247-11.289.044-16.907.557-3.965.362-9.449.072-11.153 4.586-.517 1.368-.949 4.155 1.953 7.444 3.208 3.637 7.802 6.105 12.733 7.005l.789 10.625c-5.629-.47-11.051-3.04-14.919-7.194-1.317-1.414-3.531-1.494-4.947-.176-1.414 1.317-1.493 3.532-.176 4.947 2.324 2.496 5.077 4.548 8.085 6.105zm20.134 15.198-8.952.372-3.273-12.77c1.944.397 3.928.606 5.919.606.527 0 1.056-.014 1.583-.044 2.192-.121 4.36-.493 6.459-1.094zm-16.524-41.226c.211-.028.464-.054.77-.073 1.467-.092 2.935-.197 4.405-.302 3.218-.23 6.545-.467 9.778-.556l.69-.022c5.473-.19 7.917.216 9.007.601-.526.51-1.397 1.177-2.603 1.993l-.299.203c-2.754 1.88-5.842 2.995-8.931 3.223-4.847.363-9.718-1.551-12.743-4.978-.025-.031-.05-.06-.074-.089z"/></g></g></svg>