<svg viewBox="-1 0 511 511.99785" xmlns="http://www.w3.org/2000/svg"><path d="m505.855469 11.492188c-6.914063-11.054688-21.8125-13.441407-32.949219-10.089844-10.695312 3.222656-19.226562 10.566406-27.746094 18.453125-75.628906 69.988281-139.597656 149.355469-201.425781 226.183593-1.894531-.542968-3.792969-.867187-5.691406-.957031-7.65625-.371093-14.769531 3.4375-18.140625 9.351563-18.996094-4.929688-40.523438-1.023438-55.503906 11.714844-5.753907 4.898437-8.492188 10.050781-8.1875 15.359374-49.632813 21.917969-97.855469 47.941407-143.371094 77.394532-3.632813 2.351562-8.609375 5.574218-11.085938 10.871094-1.570312 3.363281-1.675781 7.574218-.273437 10.984374 1.171875 2.863282 3.304687 4.988282 6.003906 5.988282 1.261719.46875 2.515625.664062 3.734375.664062 1.980469 0 3.855469-.511718 5.519531-1.183594.054688 2.34375.472657 4.589844 1.292969 6.632813 1.761719 4.402344 5.34375 7.742187 9.480469 9.101563-.746094 3.175781-.34375 6.722656 1.140625 9.5625 1.433594 2.742187 3.75 4.664062 6.527344 5.414062.941406.253906 1.863281.367188 2.757812.363281 3.453125 0 6.527344-1.640625 8.785156-3.125.230469 3.546875 1.359375 7.03125 3.351563 10.015625 2.710937 4.054688 6.898437 7 11.558593 8.300782-.21875.621093-.410156 1.257812-.558593 1.917968-.824219 3.617188-.035157 7.753906 2.054687 10.792969 1.753906 2.546875 4.289063 4.171875 7.136719 4.582031.507813.070313 1.003906.105469 1.488281.105469 2.140625 0 4.082032-.65625 5.78125-1.566406.789063 2.855469 2.210938 5.527343 4.199219 7.757812 1.796875 2.011719 3.996094 3.609375 6.425781 4.71875-.410156 1.066407-.734375 2.183594-.929687 3.355469-.613281 3.664062.414062 7.746094 2.675781 10.660156 1.898438 2.441406 4.519531 3.917969 7.386719 4.160156.300781.023438.597656.039063.886719.039063 1.921874-.003906 3.660156-.53125 5.203124-1.3125.546876 1.835937 1.429688 3.570313 2.636719 5.082031 2.84375 3.5625 7.277344 5.664063 11.8125 5.664063.4375 0 .871094-.019531 1.304688-.058594 1.359375-.121094 2.648437-.425781 3.867187-.851563.605469 1.765626 1.414063 3.585938 2.632813 5.234376 1.824219 2.460937 4.347656 4.101562 7 4.707031-.054688.722656-.0625 1.460937-.019531 2.207031.214843 3.703125 2.121093 7.457031 4.972656 9.796875 2.007812 1.644531 4.363281 2.511719 6.753906 2.511719.457031 0 .917969-.03125 1.375-.09375 5.769531-.8125 8.96875-6.078125 10.6875-8.910156l91.414062-150.46875c3.644532-3.007813 6.238282-6.65625 7.792969-9.257813 8.253907-13.851563 9.917969-31.050781 5.832031-46.667969 6.378907-4.308594 10.015626-12.824218 8.808594-21.339844-.242187-1.722656-.671875-3.441406-1.261718-5.140624 76.386718-67.136719 150.980468-138.183594 221.726562-211.214844 5.511719-5.691406 11.761719-12.140625 15.527344-20.261719 4.421875-9.535156 4.277344-19.683594-.390625-27.148437zm-49.476563 70.941406c-2.148437-7.324219-6.101562-14.089844-11.5-19.535156-5.667968-5.714844-12.800781-9.847657-20.527344-11.984376 1.011719-.996093 2.023438-1.988281 3.035157-2.980468 8.023437.65625 15.777343 3.96875 21.746093 9.410156 6 5.464844 10.027344 12.914062 11.40625 20.882812-1.386718 1.402344-2.769531 2.804688-4.160156 4.207032zm-173.027344 164.195312c-2.582031-7.632812-8.796874-13.898437-16.410156-16.546875 1.453125-1.796875 2.902344-3.597656 4.359375-5.394531 3.933594.9375 7.582031 2.929688 10.472657 5.792969 3.273437 3.246093 5.445312 7.480469 6.21875 12.015625-1.546876 1.382812-3.09375 2.757812-4.640626 4.132812zm-113.730468 25.660156c.828125-.703124 1.679687-1.363281 2.550781-2 16.894531 30.402344 42.4375 56.652344 72.371094 74.304688-.746094.769531-1.511719 1.472656-2.296875 2.085938-.003906 0-.003906.003906-.007813.003906v.003906c-2.0625 1.605469-4.113281 2.535156-6.128906 2.792969-.085937.011719-.175781.035156-.261719.042969-.167968.015624-.339844.011718-.507812.019531-.179688.007812-.359375.027343-.539063.023437-.15625-.003906-.308593-.027344-.464843-.035156-.191407-.015625-.390626-.019531-.585938-.046875-1-.132813-1.96875-.4375-2.960938-.929687-.003906-.003907-.007812-.003907-.015624-.007813-.019532-.007813-.039063-.019531-.0625-.03125-1.265626-.613281-2.542969-1.5-3.90625-2.71875 0-.003906-.003907-.003906-.007813-.007813-.011719-.007812-.019531-.019531-.027344-.027343-.800781-.699219-1.578125-1.464844-2.363281-2.289063-.785156-.824218-1.578125-1.707031-2.410156-2.644531l-.300782-.34375c-.921874-1.042969-1.835937-2.082031-2.761718-3.109375-.007813-.007812-.015625-.015625-.023438-.023438-.011718-.011718-.019531-.027343-.03125-.039062-4.449218-5-8.144531-9.0625-11.628906-12.769531-.007812-.011719-.019531-.019531-.03125-.03125-.007812-.007813-.011719-.011719-.015625-.019531-2.90625-3.117188-5.671875-5.992188-8.464844-8.792969-.007812-.007813-.019531-.015625-.027343-.023438-.003907-.007812-.011719-.015625-.015626-.023437-3.375-3.386719-6.558593-6.445313-9.726562-9.351563-3.191406-2.933593-6.253906-5.613281-9.351562-8.191406-.003907 0-.003907 0-.007813-.003906 0 0-.003906-.003907-.003906-.003907-1.820313-1.519531-3.519531-2.898437-5.195313-4.207031-1.441406-1.128906-2.753906-2.230469-3.898437-3.273437-.007813-.007813-.015625-.015625-.023438-.023438-.023437-.019531-.042969-.039062-.066406-.058594-.007813-.007812-.015625-.015624-.023437-.019531-.007813-.007812-.011719-.015625-.019532-.019531-.394531-.367188-.769531-.726562-1.128906-1.078125-.03125-.03125-.058594-.0625-.089844-.09375-.320312-.320313-.628906-.636719-.917968-.949219-.082032-.085937-.152344-.171875-.230469-.257812-.226563-.25-.457031-.503906-.660157-.746094-.109374-.128906-.203124-.253906-.304687-.378906-.160156-.199219-.328125-.402344-.472656-.597656-.109375-.144532-.199219-.28125-.296875-.421876-.125-.175781-.253906-.351562-.367188-.523437-.097656-.148437-.175781-.292969-.265625-.441406-.09375-.15625-.199219-.320313-.28125-.476563-.082031-.144531-.144531-.292968-.21875-.4375-.074219-.152344-.15625-.304687-.21875-.453125-.0625-.140625-.105469-.277343-.160156-.414062-.058594-.15625-.128906-.316407-.175781-.472657-.003906-.007812-.007813-.019531-.011719-.027343 0-.007813 0-.015625-.003906-.023438-.410157-1.320312-1.511719-4.832031 5.046875-10.417969zm-159.332032 106.898438c-.578124-.214844-1.03125-.714844-1.351562-1.488281-.554688-1.351563-.503906-3.167969.125-4.511719 1.378906-2.960938 4.511719-5.15625 8.160156-7.515625 44.933594-29.078125 92.523438-54.796875 141.511719-76.476563.007813.011719.019531.027344.027344.039063.3125.515625.65625 1.035156 1.03125 1.554687.105469.148438.226562.292969.335937.441407.285156.378906.578125.757812.894532 1.140625.058593.070312.105468.140625.164062.210937l-144.140625 84.445313c-2.535156 1.484375-5.109375 2.769531-6.757813 2.160156zm15.226563 10.675781c-.941406-2.351562-.988281-5.28125-.152344-8.363281l141.816407-83.085938c.71875.605469 1.472656 1.214844 2.261718 1.832032.148438.117187.300782.242187.449219.355468-46.09375 25.898438-90.453125 55.515626-131.929687 88.117188-1.980469 1.558594-4.390626 3.460938-6.449219 5.859375-.011719 0-.023438-.003906-.039063-.003906-2.382812-.0625-4.890625-2.046875-5.957031-4.710938zm11.765625 19.289063c-.597656-.160156-1.09375-.617188-1.480469-1.359375-.679687-1.296875-.796875-3.105469-.292969-4.503907 1.105469-3.074218 4.023438-5.546874 7.4375-8.230468 41.96875-32.992188 86.914063-62.914063 133.625-88.96875.015626.011718.03125.027344.046876.039062.960937.820313 1.925781 1.660156 2.894531 2.515625.101562.089844.207031.179688.308593.269531l-136.011718 97.46875c-2.386719 1.710938-4.828125 3.226563-6.527344 2.769532zm19.496094 10.558594c-2.199219-3.285157-2.660156-7.78125-1.179688-11.449219.070313-.167969.105469-.34375.152344-.515625l130.164062-93.273438c1.242188 1.167969 2.503907 2.378906 3.777344 3.625-42.550781 31.265625-82.941406 66.011719-120.089844 103.339844-1.074218 1.082031-2.292968 2.308594-3.472656 3.6875-3.691406-.289062-7.296875-2.339844-9.351562-5.414062zm14.625 22.09375c-.609375-.089844-1.15625-.480469-1.632813-1.171876-.828125-1.203124-1.164062-2.984374-.835937-4.433593.722656-3.1875 3.320312-5.996094 6.382812-9.074219 37.148438-37.328125 77.550782-72.058594 120.136719-103.269531.128906.132812.257813.265625.390625.398437.765625.789063 1.53125 1.585938 2.304688 2.398438.125.128906.25.257812.375.386718l-120.976563 111.222657c-2.160156 1.984375-4.394531 3.789062-6.144531 3.542969zm16.351562 8.910156c-1.695312-1.898438-2.734375-4.445313-2.855468-6.988282-.019532-.375-.101563-.730468-.214844-1.070312l119.351562-109.730469c1.90625 2.058594 3.917969 4.269531 6.101563 6.707031-41.125 33.929688-79.851563 71.277344-115.136719 111.082032-.828125.933594-1.738281 1.964844-2.644531 3.097656-1.753907-.644531-3.371094-1.714844-4.601563-3.097656zm10.214844 20.226562c-.613281-.050781-1.183594-.410156-1.695312-1.074218-.898438-1.152344-1.335938-2.914063-1.089844-4.378907.539062-3.222656 2.96875-6.175781 5.847656-9.425781 35.078125-39.566406 73.574219-76.699219 114.464844-110.417969.050781.058594.101562.117188.152344.175781l.320312.363282c.441406.496094.871094.976562 1.300781 1.445312.101563.113282.207031.222656.308594.335938.28125.308594.566406.617187.847656.917968l-114.523437 118.167969c-2.042969 2.109375-4.175782 4.070313-5.933594 3.890625zm20.445312 9.417969c-2.273437.207031-4.667968-.816406-6.09375-2.601563-1.425781-1.785156-1.894531-4.347656-1.1875-6.519531.007813-.027343.007813-.050781.015626-.078125l103.589843-106.882812c-12.363281 16.570312-24.25 33.542968-35.605469 50.847656-.121093.101562-.246093.191406-.355468.308594-9.050782 9.589844-17.203125 19.484375-25.085938 29.050781-7.800781 9.460937-15.867187 19.25-24.734375 28.644531-3.414062 3.617188-6.789062 6.894532-10.542969 7.230469zm13.703126 7.617187c-.933594-1.257812-1.511719-2.957031-2.003907-4.714843 1.832031-1.554688 3.398438-3.210938 4.707031-4.597657 5.816407-6.164062 11.253907-12.445312 16.492188-18.6875-4.820312 8.238282-9.527344 16.53125-14.105469 24.878907-.78125 1.425781-1.671875 3.046875-2.460937 4.828125-.839844-.050782-1.902344-.726563-2.628906-1.707032zm17.394531 10.832032c-1.523438 2.507812-3.171875 4.863281-4.917969 5.109375-.609375.082031-1.246094-.140625-1.894531-.671875-1.128907-.925782-1.949219-2.542969-2.035157-4.027344-.1875-3.261719 1.523438-6.679688 3.613282-10.488281 25.140625-45.855469 54.09375-90.160157 86.078125-131.734375.199219.054687.394531.097656.59375.144531.148437.035156.296875.074219.445312.105469.417969.089844.839844.167968 1.261719.226562.003906 0 .007812 0 .011719.003906h.003906.003906c.019531.003907.035157.003907.054688.003907.394531.054687.789062.089843 1.183593.113281.117188.007812.230469.007812.347657.011719.226562.011719.457031.023437.6875.023437.046875 0 .09375-.003906.144531-.007812.0625 0 .125.007812.191406.003906zm99.175781-159.671875c-.484375.808593-.996094 1.585937-1.53125 2.328125-29.671875-17.355469-54.972656-43.335938-71.628906-73.441406 1.742187-1.066407 3.546875-2.023438 5.40625-2.867188 17.074218 28.351562 40.671875 52.761719 68.46875 70.722656.277344.179688.582031.261719.890625.292969-.503907 1.003906-1.03125 1.996094-1.605469 2.964844zm3.179688-6.425781c-.085938-.078126-.175782-.152344-.277344-.21875-27.101563-17.511719-50.144532-41.273438-66.875-68.871094 17.480468-6.328125 38.519531-3.484375 52.78125 8.566406 16.894531 14.296875 22.628906 40.132812 14.371094 60.523438zm6.84375-44.292969c-3.527344-8.597657-8.90625-16.378907-16.007813-22.386719-4.457031-3.765625-9.492187-6.742188-14.859375-8.949219 2.328125-2.703125 6.351562-4.125 9.808594-3.949219 4.792968.230469 9.796875 2.664063 14.882812 7.226563 3.902344 3.503906 8.753906 9.128906 9.734375 16.03125.640625 4.527344-.820312 9.128906-3.558593 12.027344zm-.789063-34.054688c-2.171875-1.949219-4.363281-3.589843-6.570313-4.929687 4.28125-5.316406 8.570313-10.644532 12.871094-15.980469 7.546875 2.066406 13.90625 8.558594 15.796875 16.148437-4.921875 4.375-9.851562 8.734376-14.789062 13.082032-1.933594-2.894532-4.375-5.6875-7.308594-8.320313zm33.515625-14.945312c-1.195312-4.441407-3.539062-8.542969-6.828125-11.800781-2.960937-2.933594-6.601563-5.09375-10.546875-6.34375 45.933594-56.761719 93.679688-114.050782 146.941406-167.039063 7.925782 1.71875 15.289063 5.730469 21.011719 11.503906 5.457031 5.507813 9.292969 12.492188 11.066406 20.015625-52.269531 52.671875-106.410156 104.144532-161.644531 153.664063zm207.492188-204.171875c-3.191407 6.882812-8.933594 12.8125-14.003907 18.046875-6.957031 7.183593-13.964843 14.339843-20.996093 21.484375-1.917969-7.792969-6.125-14.988282-12.078126-20.414063-5.789062-5.277343-13.082031-8.75-20.773437-10.035156 6.4375-6.253906 12.949219-12.445313 19.554687-18.558594 8.097657-7.492187 15.539063-13.917969 24.597657-16.644531 8.007812-2.410156 19.066406-.90625 23.785156 6.644531 3.789063 6.054688 2.441406 14.03125-.085937 19.476563zm0 0"/></svg>