<svg viewBox="-23 0 512 512.00028" xmlns="http://www.w3.org/2000/svg"><path d="m52.4375 330.765625c10.472656 4.972656 22.570312 7.417969 36.800781 7.417969 2.523438 0 5.109375-.078125 7.765625-.230469 11.824219-.679687 21.644532-2.722656 30.027344-6.25 7.414062-3.117187 17.648438-9.113281 24.285156-19.972656 9.496094-15.535157 7.992188-37.800781-3.652344-54.148438-6.730468-9.445312-16.742187-17.246093-28.953124-22.566406-9.976563-4.34375-17.925782-4.894531-28.28125-4.371094-7.160157.363281-15.625 1.066407-24.113282 3.554688-13.898437 4.070312-25.886718 11.945312-33.75 22.175781-8.90625 11.585938-12.507812 26.375-9.640625 39.558594 3.160157 14.535156 14.195313 27.558594 29.511719 34.832031zm-3.125-11.023437c9.671875-13.125 25.527344-21.226563 41.867188-21.230469h.019531c16.207031 0 31.949219 7.960937 41.648437 20.902343-1.566406 1.070313-3.222656 2.0625-4.957031 2.972657-4.867187-7.429688-12.960937-13.007813-22.363281-15.351563-8.5625-2.136718-18.15625-1.6875-27.75 1.308594-7.945313 2.476562-15.933594 6.652344-24.421875 12.757812-.273438.195313-.472657.453126-.613281.734376-1.179688-.660157-2.324219-1.355469-3.429688-2.09375zm47.230469 10.160156c-15.953125.914062-29.039063-1.089844-39.980469-6.121094 7.808594-5.519531 15.15625-9.324219 22.417969-11.589844 8.882812-2.773437 17.726562-3.203125 25.570312-1.246094 8.230469 2.050782 15.320313 6.828126 19.664063 13.1875-.105469.046876-.207032.09375-.3125.136719-7.519532 3.164063-16.46875 5.007813-27.359375 5.632813zm47.894531-22.375c-2.117188 3.464844-4.964844 6.660156-8.367188 9.464844-2.269531-3.023438-4.828124-5.808594-7.648437-8.292969l20.753906-25.515625c1.050781 8.683594-.472656 17.359375-4.738281 24.34375zm-3.339844-45.265625c3.417969 4.796875 5.789063 10.179687 7.128906 15.699219l-22.933593 28.191406c-3.433594-2.613282-7.152344-4.847656-11.078125-6.632813 4.859375-15.914062 11.078125-31.507812 18.476562-46.421875 3.230469 2.800782 6.058594 5.871094 8.40625 9.164063zm-11.617187-11.757813c-7.621094 15.246094-14.015625 31.199219-19.011719 47.492188-3.277344-1.214844-6.664062-2.125-10.117188-2.714844 1.753907-18.511719 4.308594-37.140625 7.59375-55.453125 2.425782.59375 4.898438 1.429687 7.546876 2.582031 5.152343 2.242188 9.84375 4.96875 13.988281 8.09375zm-38.644531-11.804687c1.90625-.097657 3.699218-.15625 5.421874-.15625 2.703126 0 5.230469.15625 7.726563.515625-3.296875 18.394531-5.863281 37.101562-7.632813 55.695312-1.710937-.164062-3.429687-.273437-5.152343-.273437-.007813 0-.015625 0-.023438 0-1.746093 0-3.488281.113281-5.21875.28125-3.660156-18.054688-6.457031-36.46875-8.335937-54.804688 4.636718-.726562 9.144531-1.054687 13.214844-1.257812zm-22.25 3.234375c1.679687-.492188 3.367187-.894532 5.050781-1.246094 1.882812 18.273438 4.675781 36.617188 8.316406 54.609375-3.875.667969-7.667969 1.738281-11.308594 3.191406-4.988281-16.78125-10.949219-33.4375-17.734375-49.597656 4.726563-2.929687 10.011719-5.296875 15.675782-6.957031zm-29.625 19.355468c2.894531-3.765624 6.460937-7.167968 10.535156-10.117187 6.671875 15.960937 12.535156 32.402344 17.433594 48.960937-3.382813 1.632813-6.601563 3.59375-9.597657 5.859376-6.070312-14.316407-12.820312-28.523438-20.078125-42.300782.542969-.8125 1.105469-1.617187 1.707032-2.402344zm-4.121094 6.472657c6.898437 13.238281 13.316406 26.859375 19.105468 40.566406.042969.097656.109376.175781.164063.265625-2.988281 2.617188-5.683594 5.5625-8.054687 8.777344-7.855469-6.195313-13.335938-14.359375-15.25-23.152344-1.871094-8.59375-.355469-18.0625 4.035156-26.457031zm0 0"/><path d="m246.484375 283.949219c.625-.921875.390625-2.175781-.53125-2.800781-4.695313-3.210938-11.148437-3.433594-16.058594-.554688-4.136719 2.429688-6.890625 6.894531-7.34375 11.632812-5.007812-.496093-10.269531 2.050782-12.773437 6.488282-1.953125 3.457031-2.058594 7.753906-.582032 11.394531-4-.476563-8.117187.203125-11.753906 1.914063.285156-1.859376.195313-3.730469-.300781-5.464844-1.335937-4.640625-5.59375-8.042969-10.125-8.089844-.027344 0-.054687 0-.082031 0-2.457032 0-4.890625 1.066406-6.699219 2.929688-1.703125 1.761718-2.589844 3.96875-2.496094 6.21875.046875 1.113281.988281 2 2.097657 1.929687 1.109374-.042969 1.976562-.984375 1.929687-2.09375-.046875-1.136719.4375-2.289063 1.367187-3.25 1.042969-1.078125 2.507813-1.683594 3.84375-1.699219 2.746094.027344 5.449219 2.25 6.289063 5.167969.804687 2.808594.027344 6.199219-2.027344 8.839844-.660156.847656-.539062 2.0625.269531 2.761719.382813.332031.851563.492187 1.320313.492187.53125 0 1.058594-.207031 1.453125-.621094 4.703125-4.894531 12.652344-6.515625 18.894531-3.851562.917969.386719 1.980469.050781 2.507813-.792969.523437-.847656.347656-1.949219-.410156-2.597656-3.09375-2.636719-3.988282-7.664063-1.988282-11.203125 2.003906-3.542969 6.769532-5.375 10.625-4.085938.644532.21875 1.355469.09375 1.890625-.328125.53125-.425781.816407-1.085937.757813-1.765625-.367188-4.078125 1.84375-8.375 5.378906-10.445312 3.53125-2.074219 8.363281-1.90625 11.746094.402343.917968.628907 2.171875.390626 2.800781-.527343zm0 0"/><path d="m438.195312 426.554688c-.558593-7.703126-7.050781-14.746094-15.789062-17.128907-4.734375-1.292969-9.542969-1.289062-14.136719-.867187 2.953125-7.25 4.722657-15.046875 1.648438-22.519532-3.753907-9.136718-16.226563-16.441406-29.835938-12.3125-7.664062 2.324219-13.605469 7.421876-18.03125 12.828126-.019531-7.042969.941407-14.363282 1.9375-21.914063 2.019531-15.292969 4.109375-31.105469-2.53125-45.570313-5.753906-12.53125-18.023437-22.695312-33.660156-27.886718-1.84375-.609375-3.71875-1.167969-5.613281-1.679688 3.3125-11.894531-1.148438-25.796875-11.261719-33.335937-1.949219-1.449219-4.078125-2.625-6.3125-3.550781.238281-.441407.402344-.929688.460937-1.457032 8.144532-73.191406 11.113282-147.625 8.824219-221.230468-.203125-6.589844-.585937-18.847657-8.988281-25.570313-4.46875-3.570313-10.722656-5.050781-17.160156-4.054687-10.644532 1.648437-20.222656 9.554687-25.613282 21.160156-4.679687 10.0625-5.714843 20.984375-6.375 31.308594-3.773437 59.023437 3.828126 118.101562 13.507813 170.882812-17.800781-11.527344-40.339844-16.039062-61.085937-11.820312-6.492188 1.320312-12.800782 3.433593-18.898438 5.476562-8.933594 2.992188-17.371094 5.816406-26.207031 6.304688-11.125.613281-21.933594-2.507813-33.378907-5.8125-4.226562-1.222657-8.601562-2.484376-12.964843-3.53125-27.78125-6.667969-54.890625-4.054688-76.339844 7.359374-24.6875 13.136719-40.914063 38.980469-40.3789062 64.304688.03125 1.410156.1171872 2.820312.2460932 4.222656-.066406.457032-.070312.925782.027344 1.402344.121094.589844.230469 1.1875.351563 1.777344.3125 2.160156.738281 4.304687 1.277343 6.425781 2.023438 10.5 3.816407 21.144531 5.554688 31.515625 2.207031 13.160156 4.488281 26.765625 7.246094 40.027344 4.113281 19.78125 9.234375 44.398437 24.855468 61.921875 18.9375 21.246093 51.867188 28.753906 80.078126 18.261719 3.582031-1.332032 7.09375-2.929688 10.492187-4.46875 7.964844-3.613282 15.488281-7.027344 23.464844-7.125 9.476562-.125 18.039062 4.394531 27.070312 9.175781 8.265625 4.367187 16.769531 8.855469 26.375 9.839843-1.710937 3.191407-3.140625 6.71875-3.019531 10.722657.28125 9.382812 9.125 15.695312 12.03125 17.765625 22.640625 16.15625 52.535156 24.429687 88.847656 24.59375.367188.003906.730469.003906 1.097656.003906 27.183594 0 49.179688-4.652344 67.210938-14.214844 9.644531-5.113281 16.425781-11.199218 20.238281-18.136718 5.050781 3 10.683594 4.625 16.144531 4.625 1.914063 0 3.804688-.195313 5.640626-.597657 9.570312-2.089843 17.183593-9.863281 18.515624-18.902343 1.039063-7.03125-2.113281-14.15625-7.371093-18.359376 1.949219-1.324218 3.847656-2.816406 5.550781-4.5625 4.359375-4.46875 6.636719-10.046874 6.257812-15.296874zm-123.902343-138.847657c-11.445313-2.175781-23.359375-2.582031-34.136719-1.046875-4.402344.628906-8.582031 1.566406-12.527344 2.792969-2.136718-9.640625 1.535156-20.421875 9.210938-26.351563 8.371094-6.460937 20.949218-6.660156 29.261718-.464843 7.484376 5.574219 10.808594 16.289062 8.191407 25.070312zm1.101562 57.105469c-.582031 3.886719-1.601562 7.832031-2.589843 11.644531-1.578126 6.089844-3.210938 12.386719-3.214844 18.886719-.011719 13.59375 7.027344 26.03125 13.238281 37.007812 15.949219 28.191407 30.066406 55.960938 27.617187 85.683594-.007812.085938 0 .167969.003907.253906-7.777344 2.273438-16.230469 3.851563-25.433594 4.75-.859375-29.285156-7.714844-58.699218-19.941406-85.296874-1.222657-2.664063-2.527344-5.359376-3.785157-7.96875-5.628906-11.660157-11.449218-23.714844-12.117187-36.480469-.511719-9.734375 2.023437-19.546875 4.472656-29.035157 1.046875-4.054687 2.128907-8.246093 2.972657-12.417968 1.90625-9.382813 3.527343-25.882813-4.652344-37.984375 1.296875-.03125 2.597656-.023438 3.898437 0 14.554688 12.140625 22.347657 32.1875 19.53125 50.957031zm-47.726562 47.964844c5.949219 14.902344 12.097656 30.308594 11.007812 46.066406-.574219 8.316406-3.183593 16.546875-5.707031 24.507812-.929688 2.9375-1.890625 5.96875-2.746094 8.984376-3.136718 11.070312-3.996094 20.171874-2.589844 27.992187-13.101562-2.660156-24.914062-6.800781-35.371093-12.386719 1.09375-8.753906 4.527343-16.210937 8.140625-24.050781 1.800781-3.90625 3.660156-7.945313 5.320312-12.3125 6.847656-18.03125 9.109375-37.664063 6.539063-56.785156-.816407-6.054688-2.121094-12.136719-3.386719-18.015625-2.414062-11.226563-4.910156-22.835938-3.882812-34.25 1.839843-20.453125 15.707031-39.003906 34.496093-46.992188-14.871093 17.195313-22.703125 34.398438-23.261719 51.191406-.535156 16.050782 5.554688 31.300782 11.441407 46.050782zm-43.84375-48.648438c-8.84375 3.082032-17.707031.183594-27.894531-3.171875l-1.070313-.351562c-2.453125-.804688-4.964844-1.695313-7.394531-2.558594-8.328125-2.953125-16.921875-6-26.046875-6.753906 4.917969-5.160157 8.722656-11.785157 10.925781-19.25 2.820312-9.5625 3.210938-20.296875 1.191406-32.824219-1.136718-7.0625-2.882812-13.679688-5.191406-19.828125.207031-.242187.394531-.503906.542969-.800781 1.515625-3.03125 5.347656-4.890625 8.921875-4.332032 3.582031.5625 6.867187 3.414063 8.167968 7.097657 1.277344 3.609375.71875 8.066406-1.457031 11.628906-1.066406 1.75-.652343 4.023437.964844 5.285156 1.621094 1.257813 3.925781 1.101563 5.359375-.363281 3.152344-3.222656 7.71875-5.132812 12.234375-5.117188 4.511719.019532 9.066406 1.972657 12.191406 5.222657.785157.820312 1.84375 1.238281 2.910157 1.238281.824218 0 1.65625-.25 2.367187-.769531 1.628906-1.179688 2.136719-3.382813 1.1875-5.15625-2.585937-4.851563-1.660156-11.488281 2.152344-15.445313 3.816406-3.957031 10.417969-5.125 15.355469-2.714844l.253906.121094c2.785156 1.363282 8.582031 4.195313 12.445312-.214844 1.425782-1.632812 1.757813-3.566406 1.980469-4.847656l.078125-.445312c.757812-4.074219 4.066406-7.726563 8.042969-8.886719 3.730469-1.089844 8.136719-.011719 11.003906 2.617187.714844 3.628907 1.433594 7.226563 2.15625 10.78125.015625.074219.046875.144532.066406.21875-1.160156.667969-2.289062 1.390626-3.355469 2.210938-10.375 8.011719-15.1875 22.71875-11.871093 35.589844-8.964844 4-16.371094 9.738281-21.867188 17.0625-7.007812 9.339844-11.742187 20.796875-14.351562 34.757812zm-59.171875-93.195312c-1.210938-2.40625-2.503906-4.734375-3.917969-6.953125-.429687-.675781-.871094-1.34375-1.316406-2 3.902343.496093 7.835937.75 11.773437.75 8.242188 0 16.484375-1.089844 24.445313-3.257813 4.382812-1.199218 8.714843-2.726562 12.902343-4.210937 6.183594-2.183594 12.574219-4.445313 19.050782-5.570313 11.027344-1.914062 20.972656.230469 27.257812 5.726563-4.476562 2.894531-7.792968 7.617187-8.773437 12.878906l-.101563.558594c-.019531.125-.046875.273437-.074218.421875-.867188-.261719-2.15625-.890625-2.863282-1.234375l-.261718-.128907c-8.074219-3.9375-18.457032-2.097656-24.691407 4.367188-3.664062 3.804688-5.679687 8.980469-5.855469 14.214844-2.882812-1.140625-5.976562-1.753906-9.113281-1.769532-2.898437-.003906-5.714843.480469-8.398437 1.421876.078125-2.558594-.292969-5.101563-1.136719-7.484376-2.296875-6.492187-7.996094-11.351562-14.523437-12.371093-5.273438-.828125-10.722657 1.042969-14.402344 4.640625zm118.183594.421875c-1.21875-6.039063-2.433594-12.1875-3.628907-18.433594-.015625-.367187-.089843-.726563-.207031-1.078125-2.085938-10.949219-4.101562-22.199219-5.964844-33.683594 9.191406-3.59375 19.933594-3.285156 28.835938.96875-1.328125 17.097656-2.925782 34.152344-4.816406 51.136719-.007813.085937.003906.167969 0 .25-4.714844-.714844-9.601563-.429687-14.21875.839844zm-19.03125-198.066407c.613281-9.558593 1.550781-19.628906 5.640624-28.425781 4.191407-9.015625 11.675782-15.375 19.535157-16.589843 4.148437-.640626 8.21875.25 10.890625 2.386718 5.070312 4.054688 5.738281 12.203125 5.964844 19.519532 1.703124 54.722656.480468 109.902343-3.625 164.6875-9.34375-4.003907-20.28125-4.257813-29.832032-.777344-7.070312-44.710938-11.640625-92.84375-8.574218-140.800782zm-100.285157 178.378907c9.921875-.546875 19.277344-3.679688 28.324219-6.710938 5.867188-1.964843 11.933594-3.996093 17.941406-5.21875 20.003906-4.070312 41.855469.867188 58.351563 12.917969-2.78125-.433594-5.648438-.300781-8.355469.492188-.359375.105468-.71875.230468-1.070312.355468-7.136719-7.117187-18.867188-10.023437-31.808594-7.78125-6.8125 1.179688-13.367188 3.5-19.707032 5.742188-4.121093 1.457031-8.378906 2.960937-12.621093 4.117187-12.523438 3.417969-25.773438 4.023438-38.5625 1.808594-1.832031-2.28125-3.777344-4.421875-5.828125-6.40625 4.386718.632813 8.828125.929687 13.335937.683594zm-119.335937-2.917969c19.707031-10.484375 44.804687-12.84375 70.667968-6.636719 4.183594 1.003907 8.464844 2.242188 12.609376 3.4375.296874.085938.59375.171875.890624.257813.222657.15625.460938.292968.71875.40625 9.695313 4.285156 18.527344 12.128906 24.859376 22.089844 5.746093 9.03125 9.664062 19.863281 11.648437 32.195312 1.820313 11.3125 1.503906 20.882812-.96875 29.257812-2.871094 9.746094-8.917969 17.695313-16.585937 21.808594-.183594.101563-.347657.222656-.507813.347656-8.609375 1.378907-16.90625 4.347657-25.007813 7.25-4.644531 1.660157-9.449218 3.378907-14.15625 4.726563-23.085937 6.621094-47.023437 4.742187-65.675781-5.160156-16.542969-8.78125-28.558593-23.949219-32.867187-40.613281-.40625-2.101563-.820313-4.199219-1.25-6.292969-.273438-2.007813-.4375-4.03125-.480469-6.058594-.476563-22.355469 14.035156-45.269531 36.105469-57.015625zm-5.289063 117.105469c12.472657 6.621093 27.039063 9.992187 42.183594 9.992187 9.726563 0 19.691406-1.390625 29.492187-4.203125 4.957032-1.421875 9.886719-3.183593 14.652344-4.890625 11.585938-4.140625 22.523438-8.046875 33.945313-7.527344 8.632812.398438 16.875 3.324219 25.601562 6.417969 2.472657.878907 5.03125 1.785157 7.574219 2.621094l1.066406.351563c9.410156 3.097656 19.097656 6.261718 29.109375 4.210937-.203125 1.710937-.382812 3.445313-.53125 5.222656-.050781.621094-.089843 1.238281-.132812 1.859375-6.667969 2.738282-15.410157 2.019532-26.019531-2.160156-2.140626-.84375-4.320313-1.777344-6.425782-2.683594-7.21875-3.097656-14.683594-6.304687-22.757812-6.816406-11.535156-.730469-22.203125 4.050781-32.523438 8.683594-3.332031 1.496094-6.78125 3.046875-10.167968 4.359375-18.523438 7.183593-39.359376 8.566406-58.671876 3.894531-18.507812-4.480469-35.710937-14.558594-48.722656-28.46875-.378906-2.261719-.761718-4.53125-1.136718-6.769531-.246094-1.464844-.5-2.945313-.746094-4.421875 6.390625 8.207031 14.621094 15.238281 24.210937 20.328125zm6.699219 82.011719c-14.1875-15.914063-18.859375-38.378907-22.980469-58.199219-1.785156-8.578125-3.363281-17.332031-4.859375-26.027344 12.957032 12.328125 29.21875 21.261719 46.585938 25.464844 7.820312 1.894531 15.878906 2.832031 23.945312 2.832031 12.667969 0 25.351563-2.316406 37.132813-6.886719 3.484375-1.351562 6.980469-2.917969 10.363281-4.4375 10.324219-4.636719 20.082031-9.007812 30.613281-8.339843 7.378907.472656 14.203125 3.398437 21.421875 6.5 2.136719.914062 4.34375 1.863281 6.539063 2.726562 10.734375 4.226562 19.867187 5.148438 27.234375 2.789062-.371094 7.648438-.34375 15.3125-.304688 22.773438.007813 1.523438.011719 3.058594.015625 4.597656l-28.410156 10.804688c-3.582031 1.359375-7.636719 2.898437-11.53125 2.652344-3.292969-.214844-7.023437-2.167969-7.769531-5.492188-.632813-2.792969.890625-5.71875 2.503906-8.816406.328125-.628906.652344-1.253906.960938-1.875 2.398437-4.875 2.902343-11.183594-1.382813-14.285156-3.21875-2.328126-7.40625-1.503907-10.691406-.523438-18.375 5.46875-36.628907 14.945312-55.804688 28.96875-16.410156 12-31.566406 25.929688-45.097656 38.523438-7.015625-3.363282-13.339844-7.980469-18.484375-13.75zm107.917969 3.96875c-9.667969.117187-18.324219 4.046874-26.699219 7.84375-3.269531 1.488281-6.65625 3.023437-9.96875 4.253906-16.007812 5.953125-33.675781 5.441406-48.742188-.554688 13.125-12.195312 27.746094-25.542968 43.449219-37.027344 18.800781-13.75 36.652344-23.027343 54.578125-28.359374 2.550782-.761719 5.398438-1.363282 7.179688-.074219 2.367187 1.710937 1.722656 5.988281.125 9.234375-.289063.597656-.601563 1.191406-.917969 1.796875-1.789063 3.433593-3.816406 7.328125-2.863281 11.566406 1.242187 5.496094 6.804687 8.320313 11.445312 8.621094 4.761719.316406 9.257813-1.398438 13.222656-2.902344l26.976563-10.257813c-.015625 3.988282-.070313 7.996094-.234375 11.945313-.757812 18.085937-3.816406 31.890625-9.5625 43.113281-9.460938.191406-18.011719-4.3125-27.050781-9.089844-9.527344-5.039062-19.382813-10.277343-30.9375-10.109374zm58.582031 37.558593c-.09375-3.125 1.808594-6.335937 3.824219-9.730469.339843-.574218.679687-1.144531 1.007812-1.714843 7.4375-12.890625 11.3125-28.679688 12.191407-49.6875.296874-7.101563.261718-14.289063.230468-21.234375-.046875-9.320313-.09375-18.960938.675782-28.316406 1.554687-18.921876 6.332031-33.480469 14.601562-44.503907 5.34375-7.125 12.757812-12.191406 21.257812-15.496093-13.8125 10.203124-23.355468 26.199218-24.90625 43.453124-1.078124 12.023438 1.480469 23.9375 3.957032 35.457032 1.25 5.804687 2.539062 11.804687 3.332031 17.707031 2.480469 18.457031.296875 37.410156-6.3125 54.816406-1.609375 4.238281-3.441406 8.210938-5.210937 12.054688-3.539063 7.679687-6.90625 15.007812-8.253907 23.636719-2.671875-1.570313-5.257812-3.226563-7.738281-4.996094-5.714844-4.078125-8.546875-7.820313-8.65625-11.445313zm92.855469 34.539063c-11.753907-.050782-22.761719-1.003906-33.035157-2.804688-1.710937-7.523437-.988281-16.484375 2.1875-27.695312.835938-2.953125 1.789063-5.957032 2.710938-8.863282 2.59375-8.1875 5.277344-16.652343 5.886719-25.449218 1.152343-16.675782-5.171875-32.519532-11.285157-47.835938-5.734374-14.367187-11.664062-29.21875-11.15625-44.425781.570313-17.128906 9.265626-34.851563 25.851563-52.683594.335937-.027343.671875-.050781 1.007813-.078125 9.070312 10.953125 7.429687 27.671875 5.550781 36.941406-.824219 4.066407-1.894531 8.207032-2.929688 12.210938-2.523437 9.785156-5.136719 19.898438-4.59375 30.253906.710938 13.574219 6.710938 26.003906 12.511719 38.023438 1.25 2.589844 2.542969 5.269531 3.753906 7.898437 12.03125 26.175781 18.765625 55.132813 19.578125 83.953125-5.121093.378906-10.453125.574219-16.039062.554688zm64.496093-13.269532c-4.652343 2.464844-9.617187 4.566407-14.894531 6.335938 2.015625-30.335938-12.183593-58.296875-28.214843-86.636719-5.964844-10.539062-12.726563-22.488281-12.71875-35.015625.003906-5.988281 1.503906-11.765625 3.085937-17.878906 1.015625-3.914062 2.066406-7.960938 2.679687-12.058594 2.765626-18.457031-4.027343-38.0625-17.203124-51.234375 2.539062.210938 5.070312.515625 7.574218.914063 13.246094 6.652344 25.195313 13.929687 30.492188 25.878906 5.023437 11.328125 2.851562 24.734375.066406 36.351562-.386719 1.609376-.789062 3.222657-1.191406 4.839844-2.71875 10.941406-5.53125 22.253906-3.945313 33.652344 2.132813 15.328125 11.6875 27.949219 20.925781 40.152344 1.511719 1.996094 3.019532 3.984375 4.484376 5.976562 13.097656 17.789063 17.792968 32.664063 14.378906 45.4375-1.691406 1.132813-3.527344 2.226563-5.519532 3.285156zm10.351563-6.960937c1.632813-12.875-3.621094-27.390625-15.960937-44.152344-1.476563-2.003906-2.996094-4.007812-4.515626-6.019531-8.929687-11.792969-18.164062-23.988281-20.148437-38.273438-1.480469-10.625 1.238281-21.554687 3.863281-32.125.40625-1.628906.808594-3.253906 1.199219-4.875 2.945313-12.273437 5.210937-26.496093-.296875-38.921874-3.976562-8.960938-11.117188-15.402344-19.675781-20.8125.332031.105468.667969.207031.996093.3125 13.523438 4.492187 24.046876 13.09375 28.871094 23.597656 5.671875 12.351562 3.824219 26.339844 1.867188 41.148437-1.855469 14.042969-3.773438 28.558594.96875 42.246094 3.367187 9.722656 9.683594 17.730469 15.792968 25.472656 2.109376 2.671875 4.289063 5.433594 6.273438 8.183594 6.238281 8.648437 12.84375 21.371094 8.886719 32.878906-1.394531 4.050781-4.117188 7.839844-8.121094 11.339844zm46.371094-47.476563c-2.796875 2.867188-6.574219 5.019532-10.230469 7.097657-1.480469.84375-2.273438 2.523437-1.976562 4.203125.296874 1.679687 1.617187 2.988281 3.296874 3.273437 5.222657.886719 9.371094 7.101563 8.53125 12.796875-.839843 5.699219-5.996093 10.832032-12.261718 12.199219-5.496094 1.203125-11.785156-.222656-17.132813-3.804687 3.1875-13.8125-3.964843-27.71875-10.824219-37.222657-2.085937-2.890625-4.320312-5.722656-6.480468-8.464843-5.957032-7.546876-11.582032-14.675782-14.503906-23.113282-.492188-1.425781-.898438-2.863281-1.234376-4.320312.007813-.011719.015626-.023438.027344-.035156 3.671875-6.414063 9.957032-14.636719 19.046875-17.394532 8.984375-2.722656 17.613281 1.761719 20.039063 7.660156 2.773437 6.746094-.691406 14.859376-4.472656 22.59375-.65625 1.34375-.519532 2.9375.363281 4.148438.882812 1.207031 2.359375 1.828125 3.835937 1.613281 6.101563-.886719 12.40625-1.804687 18.097656-.253906 4.636719 1.265625 9.515626 5.082031 9.867188 9.933594.210938 2.953125-1.242188 6.269531-3.988281 9.089843zm0 0"/><path d="m412.089844 313.8125c-.003906 0-.011719 0-.019532 0-7.523437 0-16.300781 5.097656-20.425781 11.859375-3.066406 5.039063-3.363281 10.511719-.824219 15.417969 1.710938 3.3125 5.167969 5.800781 9.027344 6.5.066406.011718.132813.023437.199219.035156-.832031 6.472656 1.722656 13.589844 7.140625 17.890625 3.875 3.078125 8.84375 4.652344 13.96875 4.652344 3.980469 0 8.058594-.953125 11.78125-2.882813 12.550781-6.507812 18.378906-23.480468 12.476562-36.324218-2.367187-5.148438-10.347656-17.121094-33.324218-17.148438zm17.136718 46.316406c-5.648437 2.929688-12.652343 2.550782-17.023437-.925781-4.449219-3.535156-5.679687-10.507813-2.578125-14.625 1.25-1.664063 1.035156-4-.503906-5.402344-.769532-.703125-1.742188-1.054687-2.71875-1.054687-.96875 0-1.9375.347656-2.703125 1.042968-.746094.671876-1.835938.597657-2.417969.492188-1.402344-.253906-2.730469-1.164062-3.300781-2.269531-1.226563-2.375-1.042969-4.90625.550781-7.515625 2.640625-4.335938 8.839844-7.996094 13.539062-7.996094h.011719c4.757813.003906 20.703125.917969 26.003907 12.453125 4.121093 8.960937-.101563 21.257813-8.859376 25.800781zm0 0"/><path d="m466.839844 264.976562c-1.214844-7.414062-6.941406-15.441406-19.371094-15.734374-12.691406-.269532-23.425781 10.398437-25.445312 20.582031-1.800782 9.074219 2.828124 16.6875 12.378906 20.367187 2.597656 1.003906 5.390625 1.503906 8.242187 1.503906 2.945313 0 5.957031-.535156 8.882813-1.597656 12.039062-4.375 16.816406-15.949218 15.3125-25.121094zm-18.066406 17.542969c-3.878907 1.410157-8.0625 1.464844-11.472657.152344-5.835937-2.25-8.386719-6.152344-7.367187-11.277344 1.332031-6.726562 8.855468-14.097656 17.019531-14.097656.109375 0 .21875.003906.324219.003906 6.464844.15625 10.695312 3.425781 11.605468 8.980469.964844 5.894531-2.195312 13.363281-10.109374 16.238281zm0 0"/><path d="m381.648438 413.894531c.40625-1.648437.722656-3.390625.730468-5.171875.011719-3.375-1.164062-6.417968-3.234375-8.351562-2.675781-2.496094-6.75-2.902344-9.484375-.941406-.902344.648437-1.109375 1.90625-.460937 2.8125.648437.90625 1.90625 1.113281 2.8125.464843 1.160156-.832031 3.125-.558593 4.378906.609375 1.253906 1.171875 1.96875 3.136719 1.957031 5.390625-.007812 2.257813-.679687 4.59375-1.328125 6.851563-.199219.691406-.007812 1.441406.492188 1.960937.503906.515625 1.25.726563 1.949219.546875 2.578124-.664062 5.644531.625 6.980468 2.925782 1.335938 2.300781.933594 5.601562-.917968 7.515624-.777344.796876-.757813 2.074219.042968 2.847657.390625.378906.898438.570312 1.402344.570312.527344 0 1.050781-.207031 1.449219-.613281 3.09375-3.191406 3.742187-8.5 1.511719-12.34375-1.695313-2.914062-4.933594-4.808594-8.28125-5.074219zm0 0"/><path d="m430.511719 344.917969c-1.09375-.222657-2.15625.488281-2.375 1.578125-.378907 1.894531-1.878907 3.515625-3.5625 3.859375-1.640625.332031-3.511719-.695313-3.929688-2.15625-.191406-.667969-.007812-1.5.476563-2.171875.421875-.582032.984375-.929688 1.546875-.949219 1.105469-.042969 1.972656-.96875 1.9375-2.074219-.035157-1.109375-.960938-1.964844-2.058594-1.957031-1.960937.070313-3.882813-1.757813-3.960937-3.714844-.078126-1.957031 1.695312-3.910156 3.648437-4.023437 1.113281-.0625 1.960937-1.015625 1.898437-2.128906-.066406-1.113282-1.015624-1.964844-2.128906-1.898438-4.132812.238281-7.613281 4.074219-7.445312 8.210938.09375 2.433593 1.441406 4.660156 3.375 6.0625-.023438.035156-.050782.070312-.074219.105468-1.214844 1.675782-1.621094 3.785156-1.089844 5.648438.863281 3.011718 3.96875 5.136718 7.1875 5.136718.472657 0 .945313-.046874 1.414063-.140624 3.3125-.667969 6.011718-3.488282 6.71875-7.015626.21875-1.089843-.488282-2.152343-1.578125-2.371093zm0 0"/><path d="m399.625 432.765625c-1.863281-.207031-3.605469.316406-4.890625 1.476563-.828125.746093-.894531 2.019531-.152344 2.847656.746094.828125 2.019531.894531 2.847657.148437.566406-.511719 1.339843-.511719 1.75-.464843.949218.105468 1.890624.636718 2.402343 1.355468 1.234375 1.738282.917969 4.179688.207031 5.886719-.925781 2.226563-2.675781 4.175781-4.363281 6.058594-.742187.828125-.675781 2.105469.152344 2.847656.386719.34375.867187.515625 1.347656.515625.550781 0 1.101563-.226562 1.5-.671875 1.828125-2.035156 3.894531-4.339844 5.085938-7.203125 1.433593-3.449219 1.1875-7.191406-.644531-9.769531-1.179688-1.664063-3.140626-2.792969-5.242188-3.027344zm0 0"/></svg>