<?xml version="1.0" ?><svg viewBox="0 0 64 64" xmlns="http://www.w3.org/2000/svg"><defs><style>.cls-1{fill:#acb3bc;}.cls-2{fill:#7fcdee;}.cls-3{fill:#b2e1f5;}.cls-4{fill:#758190;}.cls-5{fill:#bfbfbf;}.cls-6{fill:#fff;}.cls-7{fill:#d9d9d9;}.cls-8{fill:#606060;}</style></defs><title/><g data-name="Layer 6" id="Layer_6"><rect class="cls-1" height="21" width="28" x="6" y="1"/><rect class="cls-2" height="8" width="8" x="22" y="2"/><path class="cls-3" d="M22,7.926A6.717,6.717,0,0,0,27.973,2H22Z"/><rect class="cls-2" height="8" width="8" x="10" y="2"/><path class="cls-3" d="M10,7.926A6.717,6.717,0,0,0,15.973,2H10Z"/><rect class="cls-4" height="21" width="24" x="34" y="1"/><path class="cls-5" d="M38,22V17a3,3,0,0,1,3-3h0a3,3,0,0,1,3,3v5Z"/><path class="cls-5" d="M48,22V17a3,3,0,0,1,3-3h0a3,3,0,0,1,3,3v5Z"/><path class="cls-6" d="M16,22V18a4,4,0,0,1,4-4h0a4,4,0,0,1,4,4v4Z"/><rect class="cls-2" height="7" width="24" x="34" y="3"/><rect class="cls-1" height="4" width="6" x="4" y="58"/><rect class="cls-1" height="4" width="6" x="14" y="58"/><rect class="cls-1" height="4" width="6" x="24" y="58"/><rect class="cls-1" height="4" width="6" x="34" y="58"/><rect class="cls-1" height="4" width="6" x="44" y="58"/><rect class="cls-1" height="4" width="6" x="54" y="58"/><rect class="cls-1" height="28" width="60" x="2" y="26"/><path class="cls-5" d="M2,32H38.636A15.364,15.364,0,0,1,49.5,36.5h0A15.364,15.364,0,0,1,54,47.364V54H2Z"/><path class="cls-7" d="M2,32V47.6A31.657,31.657,0,0,0,7,48,30.17,30.17,0,0,0,33.964,32Z"/><rect class="cls-2" height="10" width="10" x="22" y="36"/><path class="cls-3" d="M31.439,36H22v8.167A29.619,29.619,0,0,0,31.439,36Z"/><rect class="cls-3" height="10" width="10" x="6" y="36"/><path class="cls-2" d="M49.5,36.5A15.364,15.364,0,0,0,38.636,32H38V42a4,4,0,0,0,4,4H53.932A15.355,15.355,0,0,0,49.5,36.5Z"/><rect class="cls-8" height="4" width="52" x="2" y="50"/><rect class="cls-4" height="4" width="60" x="2" y="54"/><rect class="cls-4" height="4" width="60" x="2" y="22"/><rect class="cls-4" height="7" width="2" x="41" y="3"/><rect class="cls-4" height="7" width="2" x="49" y="3"/><rect class="cls-6" height="2" width="11" x="46" y="29"/><rect class="cls-6" height="2" width="2" x="59" y="29"/><rect class="cls-6" height="2" width="10" x="51" y="33"/></g></svg>