<?xml version="1.0" ?><svg viewBox="0 0 64 64" xmlns="http://www.w3.org/2000/svg"><defs><style>.cls-1{fill:#c1c8d1;}.cls-2{fill:#e6e9ed;}.cls-3{fill:#7fcdee;}.cls-4{fill:#b2e1f5;}.cls-5{fill:#fff;}.cls-6{fill:#758190;}.cls-7{fill:#91969d;}</style></defs><title/><g data-name="Layer 13" id="Layer_13"><rect class="cls-1" height="56" width="24" x="4" y="2"/><path class="cls-2" d="M4,49.647C15.807,42.183,24,25.9,24,7c0-1.689-.069-3.357-.2-5H4Z"/><rect class="cls-3" height="10" width="24" x="4" y="34"/><path class="cls-4" d="M17.712,34H4V44h6.738A44.406,44.406,0,0,0,17.712,34Z"/><rect class="cls-3" height="10" width="24" x="4" y="20"/><path class="cls-4" d="M22.649,20H4V30H19.583A57.02,57.02,0,0,0,22.649,20Z"/><rect class="cls-3" height="10" width="24" x="4" y="6"/><path class="cls-4" d="M24,7c0-.336-.015-.666-.02-1H4V16H23.346A63.8,63.8,0,0,0,24,7Z"/><rect class="cls-1" height="56" width="24" x="36" y="2"/><path class="cls-2" d="M36,49.647C47.807,42.183,56,25.9,56,7c0-1.689-.069-3.357-.2-5H36Z"/><rect class="cls-3" height="10" width="24" x="36" y="34"/><path class="cls-4" d="M49.712,34H36V44h6.738A44.406,44.406,0,0,0,49.712,34Z"/><rect class="cls-3" height="10" width="24" x="36" y="20"/><path class="cls-4" d="M54.649,20H36V30H51.583A57.02,57.02,0,0,0,54.649,20Z"/><rect class="cls-3" height="10" width="24" x="36" y="6"/><path class="cls-4" d="M56,7c0-.336-.015-.666-.02-1H36V16H55.346A63.8,63.8,0,0,0,56,7Z"/><path class="cls-5" d="M12,58V54a4,4,0,0,1,4-4h0a4,4,0,0,1,4,4v4Z"/><path class="cls-5" d="M44,58V54a4,4,0,0,1,4-4h0a4,4,0,0,1,4,4v4Z"/><rect class="cls-6" height="4" width="8" x="28" y="10"/><rect class="cls-6" height="4" width="8" x="28" y="24"/><rect class="cls-6" height="4" width="8" x="28" y="38"/><rect class="cls-6" height="4" width="60" x="2" y="58"/><rect class="cls-7" height="10" width="2" x="15" y="6"/><rect class="cls-7" height="10" width="2" x="15" y="20"/><rect class="cls-7" height="10" width="2" x="15" y="34"/><rect class="cls-7" height="10" width="2" x="47" y="6"/><rect class="cls-7" height="10" width="2" x="47" y="20"/><rect class="cls-7" height="10" width="2" x="47" y="34"/></g></svg>