<svg xmlns="http://www.w3.org/2000/svg" height="512pt" version="1.1" viewBox="-9 0 512 512.00101" width="512pt">
<g id="surface1">
<path d="M 489.832031 128.203125 C 482.398438 104.769531 462.972656 85.019531 439.125 76.65625 C 416.480469 68.710938 388.257812 80.519531 370.335938 95.746094 C 359.054688 105.324219 350.613281 117.320312 345.921875 130.441406 C 336.457031 156.921875 342.878906 187.496094 360.675781 207.855469 C 342.84375 236.265625 337.953125 271.113281 335.359375 304.617188 C 335.042969 308.71875 334.75 312.835938 334.457031 316.953125 C 332.382812 345.914062 330.242188 375.863281 319.601562 402.792969 C 307.105469 434.414062 282.90625 460.589844 253.210938 474.601562 C 222.71875 488.988281 186.484375 490.125 156.289062 477.636719 C 115.542969 460.789062 88.5625 420.636719 89.148438 377.726562 C 89.179688 375.535156 89.273438 373.289062 89.425781 371.054688 C 90.410156 356.746094 93.863281 341.484375 99.984375 324.402344 C 102.945312 316.144531 106.46875 307.523438 112.1875 300.425781 C 117.246094 294.140625 124.257812 292.660156 133.628906 295.898438 C 136.613281 296.929688 139.632812 298.082031 142.550781 299.199219 C 150.945312 302.410156 159.625 305.730469 169.121094 306.785156 C 182.808594 308.304688 196.34375 307.070312 208.257812 303.210938 C 228.640625 296.609375 246.582031 280.671875 258.773438 258.328125 C 270.164062 237.464844 275.160156 214.15625 278.542969 194.109375 C 278.621094 193.644531 278.601562 193.1875 278.523438 192.746094 C 279.132812 192.21875 279.722656 191.65625 280.261719 191.050781 C 286.347656 184.238281 287.527344 172.476562 288.472656 163.023438 C 288.644531 161.304688 288.808594 159.6875 288.992188 158.230469 C 291.984375 134.371094 289.429688 109.640625 281.597656 86.714844 C 277.128906 73.636719 271.027344 61.34375 263.460938 50.183594 C 259.644531 44.550781 254.796875 38.371094 247.789062 35.261719 C 243.339844 33.289062 237.726562 32.933594 232.917969 34.628906 C 232.8125 34.503906 232.714844 34.371094 232.59375 34.253906 C 226.078125 28.085938 215.644531 26.476562 207.226562 30.34375 C 199.292969 33.988281 193.558594 42.171875 192.621094 51.191406 C 191.738281 59.660156 194.960938 68.507812 201.238281 74.847656 C 205.121094 78.773438 209.613281 81.1875 214.226562 81.828125 C 215.011719 81.9375 215.796875 81.992188 216.574219 81.992188 C 221.550781 81.992188 226.28125 79.808594 229.0625 76.101562 C 229.628906 75.34375 230.90625 74.113281 232.257812 72.933594 C 232.527344 73.128906 232.828125 73.277344 233.136719 73.402344 C 247.582031 98.375 252.269531 129.464844 245.636719 157.5 C 245.441406 158.328125 245.234375 159.164062 245.03125 160.007812 C 242.9375 168.582031 240.5625 178.300781 245.109375 186.941406 C 245.828125 188.308594 246.722656 189.570312 247.75 190.722656 C 245.691406 203.042969 242.683594 217.050781 236.398438 229.277344 C 228.191406 245.242188 213.9375 258.476562 197.296875 265.578125 C 183.125 271.628906 163.199219 275.820312 122.863281 261.054688 C 119.183594 259.707031 115.414062 258.386719 111.769531 257.105469 C 100.589844 253.183594 89.027344 249.128906 78.472656 243.796875 C 65.464844 237.226562 55.324219 228.40625 48.332031 217.585938 C 37.351562 200.597656 33.335938 179.480469 37.320312 159.644531 C 40.027344 146.15625 46.410156 133.324219 52.484375 122.402344 C 54 122.144531 55.484375 121.726562 56.894531 121.105469 C 65.835938 117.183594 70.039062 108.101562 73.746094 100.09375 C 74.105469 99.304688 74.46875 98.527344 74.832031 97.757812 C 87.121094 71.699219 110.164062 50.308594 137.027344 39.78125 C 137.347656 39.878906 137.675781 39.949219 138.007812 39.964844 C 138.328125 41.71875 138.558594 43.484375 138.53125 44.433594 C 138.375 49.789062 141.523438 55.175781 146.558594 58.15625 C 149.730469 60.035156 153.535156 61 157.699219 61 C 158.796875 61 159.921875 60.933594 161.070312 60.796875 C 169.933594 59.75 177.964844 54.84375 182.554688 47.667969 C 187.441406 40.027344 188.058594 30.058594 184.128906 22.261719 C 179.957031 13.992188 170.800781 8.75 161.851562 9.507812 C 161.683594 9.523438 161.527344 9.566406 161.367188 9.601562 C 158.664062 5.277344 154.058594 2.058594 149.34375 0.828125 C 141.925781 -1.109375 134.285156 0.699219 127.789062 2.722656 C 114.914062 6.738281 102.480469 12.546875 90.835938 19.988281 C 70.421875 33.035156 53.007812 50.78125 40.480469 71.304688 C 39.714844 72.558594 38.832031 73.921875 37.898438 75.371094 C 32.746094 83.355469 26.335938 93.289062 26.847656 102.410156 C 26.894531 103.222656 26.992188 104.03125 27.140625 104.832031 C 26.8125 105.125 26.515625 105.464844 26.289062 105.875 C 16.4375 123.65625 5.816406 144.996094 1.714844 168.414062 C -2.671875 193.484375 1.421875 217.132812 13.246094 234.996094 C 18.992188 243.679688 26.960938 251.5625 36.933594 258.425781 C 42.421875 262.199219 48.394531 264.6875 54.167969 267.089844 C 59.839844 269.449219 65.191406 271.679688 69.925781 274.984375 C 72.355469 276.683594 73.921875 278.457031 74.585938 280.257812 C 75.515625 282.78125 74.925781 286.085938 74.300781 288.980469 C 72.007812 299.625 68.390625 310.21875 64.894531 320.460938 C 60.5625 333.15625 56.082031 346.285156 53.902344 359.972656 C 50.210938 383.148438 52.695312 408.039062 60.902344 430.058594 C 65.667969 442.839844 72.226562 454.316406 80.390625 464.167969 C 105.019531 493.886719 147.511719 511.3125 196.972656 511.980469 C 197.976562 511.992188 198.992188 512 200.023438 512 C 228.171875 512 267.089844 506.714844 298.597656 482.707031 C 329.203125 459.382812 344.421875 424.710938 351.804688 399.730469 C 360.917969 368.886719 363.453125 337.367188 365.621094 302.324219 C 367.203125 276.761719 368.992188 247.789062 385.691406 227.175781 C 385.945312 226.859375 386.125 226.515625 386.273438 226.15625 C 395.238281 229.808594 404.949219 231.613281 414.734375 231.613281 C 433.378906 231.613281 452.257812 225.078125 466.597656 212.371094 C 489.542969 192.035156 499.097656 157.425781 489.832031 128.203125 Z M 227.144531 68.140625 C 227.074219 68.21875 226.996094 68.296875 226.914062 68.378906 C 223.8125 71.398438 219.839844 74.46875 215.339844 73.84375 C 211.746094 73.34375 208.804688 71.03125 206.96875 69.179688 C 202.441406 64.601562 200.015625 58.03125 200.640625 52.027344 C 201.292969 45.785156 205.199219 40.148438 210.59375 37.671875 C 213.074219 36.53125 215.835938 36.226562 218.609375 36.847656 C 221.167969 37.417969 224.15625 37.8125 226.082031 39.292969 C 225.738281 39.714844 225.414062 40.15625 225.109375 40.628906 C 222.3125 44.949219 222.097656 50.492188 223.363281 55.363281 C 224.039062 57.96875 225.117188 60.460938 226.628906 62.691406 C 227.980469 64.6875 228.960938 66.183594 227.144531 68.140625 Z M 237.621094 65.222656 C 237.222656 64.597656 236.816406 63.972656 236.414062 63.351562 C 234.449219 60.320312 232.589844 57.453125 231.511719 54.382812 C 230.257812 50.804688 230.394531 47.296875 231.878906 45.003906 C 233.425781 42.609375 236.355469 41.5625 239.347656 41.5625 C 241.144531 41.5625 242.960938 41.941406 244.519531 42.632812 C 249.652344 44.910156 253.449219 49.78125 256.789062 54.703125 C 263.953125 65.273438 269.730469 76.917969 273.96875 89.316406 C 279.796875 106.382812 282.558594 124.492188 282.097656 142.519531 C 281.894531 150.328125 279.964844 157.894531 279.707031 165.546875 C 279.476562 172.261719 278.960938 180.398438 274.25 185.675781 C 271.507812 188.742188 267.085938 190.234375 262.417969 189.65625 C 247.644531 187.839844 251.039062 169.6875 253.484375 159.355469 C 261.0625 127.316406 255.28125 93.007812 237.621094 65.222656 Z M 163.738281 19.160156 C 163.792969 18.601562 163.816406 18.050781 163.808594 17.507812 C 163.800781 17.144531 168.835938 19.015625 169.144531 19.179688 C 173.003906 21.214844 176.640625 24.152344 177.933594 28.410156 C 179.449219 33.378906 178.550781 38.972656 175.765625 43.324219 C 171.636719 49.773438 163.214844 53.707031 155.597656 52.902344 C 150.933594 52.40625 148.140625 49.191406 146.378906 45.105469 C 145.132812 42.222656 143.933594 37.359375 147.53125 35.605469 C 149.738281 34.527344 152.355469 34.0625 154.4375 32.757812 C 159.828125 29.375 163.21875 24.417969 163.738281 19.160156 Z M 36.179688 94.996094 C 38.964844 86.082031 46.488281 76.65625 50.1875 71.054688 C 61.871094 53.375 77.328125 38.191406 95.179688 26.78125 C 106.21875 19.726562 117.996094 14.222656 130.1875 10.421875 C 135.867188 8.652344 141.875 7.210938 147.308594 8.628906 C 151.703125 9.777344 156.164062 13.824219 155.714844 18.363281 C 155.445312 21.082031 153.367188 23.910156 150.152344 25.925781 C 147.394531 27.65625 144.160156 28.738281 140.734375 29.882812 C 140.027344 30.121094 139.324219 30.355469 138.625 30.597656 C 120.476562 36.84375 103.914062 47.449219 90.539062 61.203125 C 83.859375 68.070312 77.976562 75.714844 73.066406 83.945312 C 67.871094 92.660156 63.933594 101.296875 57.449219 109.40625 C 53.1875 114.734375 48.101562 116.394531 41.667969 112.445312 C 34.683594 108.160156 34.082031 101.722656 36.179688 94.996094 Z M 375.683594 227.042969 C 373.097656 230.691406 371.003906 234.34375 369.183594 238.914062 C 366.53125 245.59375 364.480469 252.5 362.898438 259.507812 C 359.757812 273.402344 358.453125 287.632812 357.574219 301.824219 C 355.4375 336.371094 352.949219 367.410156 344.074219 397.445312 C 337.035156 421.273438 322.582031 454.289062 293.710938 476.292969 C 262.878906 499.789062 224.167969 504.28125 197.082031 503.917969 C 149.988281 503.28125 109.71875 486.917969 86.597656 459.023438 C 79.011719 449.867188 72.910156 439.175781 68.457031 427.242188 C 60.730469 406.507812 58.386719 383.066406 61.867188 361.238281 C 63.9375 348.234375 68.304688 335.441406 72.527344 323.066406 C 76.097656 312.601562 79.792969 301.78125 82.183594 290.679688 C 83.046875 286.679688 83.828125 282.027344 82.15625 277.476562 C 80.914062 274.097656 78.355469 271.035156 74.546875 268.375 C 69.097656 264.570312 63.085938 262.066406 57.269531 259.648438 C 51.628906 257.300781 46.300781 255.078125 41.507812 251.78125 C 32.386719 245.507812 25.144531 238.363281 19.972656 230.550781 C 9.292969 214.410156 5.628906 192.835938 9.660156 169.804688 C 13.261719 149.230469 22.3125 130.085938 31.1875 113.71875 C 32.867188 115.886719 34.976562 117.796875 37.453125 119.316406 C 39.394531 120.507812 41.449219 121.382812 43.542969 121.945312 C 37.769531 132.640625 32.054688 144.9375 29.417969 158.054688 C 25.027344 179.933594 29.453125 203.226562 41.566406 221.964844 C 49.34375 234 60.542969 243.765625 74.839844 250.992188 C 85.867188 256.5625 97.683594 260.707031 109.105469 264.714844 C 112.726562 265.984375 116.464844 267.296875 120.09375 268.625 C 135.246094 274.171875 152.089844 279.160156 169.421875 279.160156 C 179.683594 279.160156 190.117188 277.410156 200.46875 272.992188 C 218.808594 265.164062 234.519531 250.570312 243.574219 232.960938 C 249.6875 221.0625 252.882812 207.890625 255.035156 195.929688 C 257.023438 196.789062 259.175781 197.382812 261.4375 197.660156 C 262.421875 197.78125 263.40625 197.84375 264.378906 197.84375 C 266.25 197.84375 268.074219 197.59375 269.832031 197.164062 C 266.566406 215.503906 261.710938 236.125 251.699219 254.464844 C 240.496094 274.988281 224.1875 289.574219 205.777344 295.539062 C 194.9375 299.050781 182.574219 300.167969 170.011719 298.769531 C 161.542969 297.828125 153.71875 294.835938 145.433594 291.667969 C 142.453125 290.527344 139.375 289.351562 136.261719 288.273438 C 123.648438 283.917969 113.152344 286.371094 105.90625 295.367188 C 99.425781 303.417969 95.441406 313.1875 92.394531 321.683594 C 86.019531 339.472656 82.417969 355.441406 81.382812 370.503906 C 81.21875 372.882812 81.121094 375.277344 81.089844 377.617188 C 80.457031 423.800781 109.4375 466.988281 153.210938 485.089844 C 168.105469 491.25 184.371094 494.308594 200.761719 494.308594 C 219.871094 494.308594 239.15625 490.148438 256.652344 481.894531 C 288.183594 467.015625 313.859375 439.265625 327.101562 405.757812 C 338.199219 377.671875 340.386719 347.097656 342.5 317.53125 C 342.792969 313.425781 343.085938 309.324219 343.402344 305.238281 C 345.835938 273.773438 349.804688 241.441406 366.496094 213.785156 C 368.789062 215.851562 371.222656 217.765625 373.792969 219.507812 C 375.476562 220.648438 377.210938 221.699219 378.980469 222.675781 C 377.796875 224.167969 376.703125 225.605469 375.683594 227.042969 Z M 461.25 206.335938 C 450.359375 215.984375 435.925781 221.996094 420.597656 223.261719 C 405.140625 224.535156 390.125 220.835938 378.3125 212.832031 C 353.859375 196.269531 343.199219 162.015625 353.515625 133.15625 C 357.726562 121.367188 365.347656 110.554688 375.554688 101.890625 C 397.996094 82.828125 422.316406 79.304688 436.457031 84.261719 C 457.957031 91.804688 475.464844 109.574219 482.144531 130.636719 C 490.476562 156.921875 481.886719 188.050781 461.25 206.335938 Z M 461.25 206.335938 " style=" stroke:none;fill-rule:nonzero;fill:rgb(0%,0%,0%);fill-opacity:1;" />
<path d="M 434.640625 92.171875 C 416.722656 85.886719 394.296875 95.3125 380.015625 107.441406 C 371.027344 115.078125 364.300781 124.636719 360.566406 135.078125 C 351.40625 160.707031 360.929688 191.164062 382.714844 205.925781 C 392.253906 212.386719 403.699219 215.546875 415.261719 215.546875 C 430.09375 215.546875 445.113281 210.34375 456.523438 200.230469 C 474.796875 184.039062 482.402344 156.484375 475.023438 133.214844 C 469.109375 114.5625 453.632812 98.832031 434.640625 92.171875 Z M 453.851562 197.210938 C 434.878906 214.023438 405.269531 216.335938 384.976562 202.585938 C 364.664062 188.828125 355.804688 160.386719 364.367188 136.433594 C 367.859375 126.65625 374.175781 117.695312 382.628906 110.515625 C 396.296875 98.90625 410.851562 94.269531 422.304688 94.269531 C 426.4375 94.269531 430.167969 94.875 433.304688 95.976562 C 451.128906 102.226562 465.640625 116.964844 471.179688 134.433594 C 478.09375 156.230469 470.964844 182.046875 453.851562 197.210938 Z M 453.851562 197.210938 " style=" stroke:none;fill-rule:nonzero;fill:rgb(0%,0%,0%);fill-opacity:1;" />
<path d="M 428.753906 113.632812 C 416.90625 109.476562 402.308594 115.515625 393.09375 123.339844 C 387.300781 128.261719 382.960938 134.433594 380.546875 141.1875 C 374.609375 157.800781 380.804688 177.558594 394.960938 187.148438 C 401.167969 191.351562 408.617188 193.410156 416.132812 193.410156 C 425.753906 193.410156 435.484375 190.042969 442.875 183.492188 C 454.6875 173.023438 459.605469 155.207031 454.835938 140.164062 C 451.007812 128.097656 441.015625 117.933594 428.753906 113.632812 Z M 437.527344 177.457031 C 427.203125 186.605469 410.492188 187.929688 399.484375 180.472656 C 388.460938 173.003906 383.480469 156.941406 388.140625 143.902344 C 390.078125 138.476562 393.597656 133.492188 398.3125 129.484375 C 404.054688 124.609375 412.675781 120.324219 420.382812 120.324219 C 422.363281 120.324219 424.289062 120.609375 426.082031 121.238281 C 436 124.71875 444.074219 132.902344 447.148438 142.601562 C 450.984375 154.703125 447.03125 169.035156 437.527344 177.457031 Z M 437.527344 177.457031 " style=" stroke:none;fill-rule:nonzero;fill:rgb(0%,0%,0%);fill-opacity:1;" />
<path d="M 424.765625 127.367188 C 417.128906 124.6875 407.671875 128.621094 401.679688 133.710938 C 397.914062 136.90625 395.09375 140.917969 393.527344 145.304688 C 389.671875 156.085938 393.6875 168.90625 402.867188 175.125 C 406.890625 177.851562 411.71875 179.183594 416.589844 179.183594 C 422.832031 179.183594 429.148438 176.996094 433.945312 172.746094 C 441.617188 165.945312 444.8125 154.375 441.714844 144.601562 C 439.230469 136.765625 432.734375 130.160156 424.765625 127.367188 Z M 431.273438 169.726562 C 424.179688 176.011719 412.699219 176.914062 405.128906 171.785156 C 397.550781 166.652344 394.121094 155.617188 397.324219 146.664062 C 398.652344 142.941406 401.0625 139.523438 404.292969 136.78125 C 408.214844 133.449219 414.121094 130.527344 419.4375 130.527344 C 420.824219 130.527344 422.171875 130.726562 423.433594 131.171875 C 430.230469 133.554688 435.761719 139.167969 437.871094 145.820312 C 440.503906 154.121094 437.789062 163.953125 431.273438 169.726562 Z M 431.273438 169.726562 " style=" stroke:none;fill-rule:nonzero;fill:rgb(0%,0%,0%);fill-opacity:1;" />
</g>
</svg>