<?xml version="1.0" ?><!DOCTYPE svg  PUBLIC '-//W3C//DTD SVG 1.1//EN'  'http://www.w3.org/Graphics/SVG/1.1/DTD/svg11.dtd'><svg enable-background="new 0 0 64 64" height="64px" id="Layer_1" version="1.1" viewBox="0 0 64 64" width="64px" xml:space="preserve" xmlns="http://www.w3.org/2000/svg" xmlns:xlink="http://www.w3.org/1999/xlink"><g><path d="M24.78,36.334c0.084,0,0.169-0.002,0.255-0.006c3.882-0.156,7.837-0.226,11.662-0.294l3.848-0.071   c1.092-0.021,1.937-0.433,2.514-1.223c2.191-3.003,2.688-6.249,1.476-9.647c-0.593-1.663-1.696-2.967-3.581-4.227l-0.157-0.104   c-1.407-0.939-2.861-1.911-4.226-2.938c-1.483-1.118-2.047-2.859-2.652-4.735c-0.19-0.583-0.402-1.148-0.906-1.646   c-0.206-0.203-0.498-0.265-0.754-0.182c-0.194-0.062-0.41-0.044-0.6,0.064c-0.831,0.478-1.011,1.271-1.143,1.853   c-0.03,0.133-0.06,0.266-0.099,0.394c-0.616,2.013-1.743,3.554-3.445,4.711l-0.28,0.189c-1.54,1.045-3.133,2.126-4.546,3.398   c-3.333,2.997-4.185,7.696-2.073,11.427C21.232,35.338,22.774,36.334,24.78,36.334z M23.149,22.985   c1.337-1.204,2.886-2.256,4.385-3.272l0.28-0.19c1.996-1.356,3.316-3.159,4.036-5.512c0.05-0.162,0.089-0.331,0.128-0.501   c0.074-0.327,0.13-0.538,0.22-0.684c0.107,0.188,0.195,0.425,0.303,0.757c0.642,1.983,1.304,4.035,3.167,5.439   c1.398,1.052,2.871,2.035,4.295,2.986l0.156,0.105c1.6,1.067,2.525,2.142,3.002,3.482c1.05,2.943,0.633,5.646-1.273,8.259   c-0.295,0.402-0.717,0.596-1.332,0.607l-3.845,0.071c-3.833,0.068-7.797,0.139-11.697,0.296c-1.559,0.053-2.668-0.639-3.597-2.272   C19.31,28.905,20.777,25.118,23.149,22.985z"/><path d="M53.838,29.527c0.206-0.825-0.061-1.737-0.791-2.713c-0.406-0.541-1.507-1.757-2.031-2.242   c-0.006-0.005-0.013-0.006-0.019-0.011c-0.044-0.039-0.096-0.063-0.146-0.09c-0.036-0.019-0.068-0.044-0.105-0.057   c-0.05-0.017-0.102-0.018-0.153-0.024c-0.044-0.005-0.086-0.017-0.129-0.014c-0.045,0.002-0.088,0.02-0.132,0.031   c-0.052,0.013-0.104,0.021-0.152,0.045c-0.007,0.003-0.014,0.002-0.021,0.006c-0.897,0.47-1.572,1.149-2.226,1.807   c-0.171,0.172-0.341,0.344-0.515,0.509c-0.679,0.65-0.957,1.628-0.743,2.614c0.241,1.112,1.074,2.02,2.229,2.425   c0.188,0.066,0.365,0.129,0.533,0.198c-0.352,0.79-0.451,1.654-0.502,2.47c-0.037,0.604-0.045,1.212-0.053,1.82   c-0.017,1.323-0.052,2.581-0.383,3.793c-1.64-0.13-3.284-0.116-4.881-0.093c-0.728,0.01-1.455,0.012-2.183,0.008   c-0.004-0.316-0.021-0.652-0.06-1.023c-0.048-0.458-0.314-1.525-1.885-1.478c-2.985,0.078-5.971,0.135-8.956,0.191l-2.485,0.047   c-0.164-0.002-0.329-0.006-0.496-0.015c-0.374-0.019-0.8-0.041-1.226,0.05c-0.08,0.013-0.325-0.053-0.472-0.09   c-0.431-0.112-1.021-0.266-1.547,0.064c-0.337,0.212-0.557,0.569-0.654,1.064c-0.032,0.163-0.091,0.331-0.149,0.504   c-0.069,0.205-0.146,0.437-0.199,0.685c-0.729,0.005-1.457,0.003-2.185-0.008c-1.596-0.023-3.242-0.038-4.881,0.093   c-0.331-1.213-0.366-2.471-0.381-3.795c-0.007-0.607-0.015-1.215-0.053-1.817c-0.051-0.819-0.15-1.686-0.504-2.477   c0.159-0.067,0.327-0.129,0.511-0.187c1.214-0.383,2.018-1.25,2.206-2.384c0.314-1.932-0.522-2.833-1.282-3.25   c-0.306-0.166-0.566-0.439-0.842-0.729c-0.323-0.339-0.689-0.723-1.188-0.992c-0.004-0.002-0.009-0.002-0.013-0.004   c-0.061-0.032-0.126-0.045-0.191-0.059c-0.03-0.006-0.059-0.021-0.089-0.024c-0.059-0.005-0.117,0.008-0.176,0.017   c-0.036,0.006-0.074,0.003-0.109,0.014c-0.041,0.013-0.076,0.04-0.115,0.06c-0.05,0.025-0.101,0.047-0.144,0.083   c-0.004,0.003-0.01,0.004-0.014,0.008c-0.512,0.447-1.733,1.687-2.161,2.257c-0.731,0.975-0.998,1.887-0.792,2.713   c0.189,0.757,0.752,1.359,1.673,1.789c0.288,0.134,0.519,0.286,0.718,0.453c-0.65,0.542-1.02,1.329-1.039,2.292   c-0.024,1.208-0.163,2.444-0.298,3.641c-0.175,1.553-0.356,3.159-0.302,4.787c0.051,1.522-0.119,3.019-0.298,4.603   c-0.097,0.856-0.194,1.714-0.255,2.573c-0.019,0.267,0.113,0.5,0.313,0.647c-0.026,0.055-0.057,0.106-0.069,0.169   c-0.079,0.407,0.188,0.801,0.594,0.879l0.338,0.066c0.936,0.188,1.904,0.378,2.987,0.21c0.403-0.063,0.676-0.27,0.857-0.406   c0.167-0.126,0.177-0.122,0.219-0.121c0.89,0.059,1.784,0.061,2.649,0.063c1.484,0.002,2.886,0.005,4.292,0.269   c0.249,0.047,0.496,0.117,0.745,0.187c0.742,0.208,1.582,0.443,2.533,0.188c0.49-0.131,1.034-0.198,1.618-0.199   c1.051-0.003,1.598-0.532,1.674-1.621c0.066-0.996,0.204-2.089,0.433-3.438c0.201-1.184,0.822-1.854,1.845-1.991   c1.04-0.133,2.234,0.54,2.566,1.453c0.174,0.474,0.368,1.099,0.336,1.729c-0.029,0.526-0.024,1.054-0.018,1.581   c0.003,0.278,0.006,0.557,0.004,0.835c-0.006,0.596,0.156,1.057,0.482,1.37c0.195,0.188,0.543,0.404,1.102,0.404   c0.037,0,0.074-0.001,0.113-0.003c0.315-0.017,0.633-0.025,0.951-0.034c0.872-0.024,1.774-0.05,2.664-0.225   c3.529-0.692,6.456-0.72,9.209-0.082c0.975,0.228,1.87,0.042,2.662-0.118c0.193-0.04,0.387-0.08,0.583-0.113   c0.046-0.008,0.083-0.033,0.125-0.049c0.045-0.017,0.092-0.026,0.132-0.051c0.045-0.027,0.079-0.064,0.117-0.101   c0.032-0.029,0.068-0.055,0.095-0.091c0.031-0.041,0.049-0.089,0.071-0.136c0.019-0.04,0.043-0.077,0.055-0.121   c0.013-0.049,0.01-0.102,0.013-0.153c0.003-0.042,0.016-0.081,0.011-0.124c-0.325-2.813-0.355-5.128-0.386-7.578   c-0.017-1.267-0.032-2.581-0.089-4.037c-0.031-0.805-0.129-1.604-0.223-2.378c-0.1-0.818-0.194-1.591-0.218-2.376   c-0.035-1.209-0.508-1.947-1.041-2.4c0.199-0.167,0.43-0.318,0.717-0.452C53.085,30.887,53.648,30.285,53.838,29.527z    M12.36,29.163c-0.089-0.355,0.102-0.869,0.536-1.448c0.266-0.354,0.987-1.108,1.517-1.624c0.13,0.119,0.259,0.253,0.397,0.399   c0.328,0.344,0.698,0.732,1.208,1.01c0.2,0.11,0.73,0.401,0.521,1.69c-0.12,0.72-0.706,1.048-1.176,1.196   c-0.35,0.11-0.653,0.24-0.946,0.383c-0.322-0.304-0.709-0.581-1.206-0.813C12.721,29.728,12.435,29.461,12.36,29.163z    M15.222,50.032c-0.072,0.055-0.155,0.116-0.188,0.121c-0.82,0.13-1.616-0.03-2.46-0.198l-0.022-0.004   c0.02-0.06,0.044-0.117,0.048-0.182c0.059-0.838,0.154-1.674,0.249-2.51c0.178-1.568,0.362-3.189,0.307-4.822   c-0.051-1.518,0.124-3.068,0.293-4.568c0.139-1.229,0.282-2.501,0.308-3.779c0.008-0.425,0.129-0.752,0.342-1.007   c0.113,0.42,0.175,0.907,0.211,1.491c0.036,0.578,0.043,1.16,0.05,1.742c0.019,1.525,0.038,3.103,0.564,4.667   c-0.006,0.015-0.013,0.029-0.019,0.045c-0.078,0.188-0.184,0.447-0.182,0.757c0.008,2.485,0.243,4.978,0.47,7.388l0.077,0.824   C15.255,50.008,15.235,50.021,15.222,50.032z M18.995,49.671c-0.743-0.002-1.506-0.009-2.253-0.047l-0.056-0.592   c-0.224-2.377-0.456-4.835-0.463-7.24c0.005-0.035,0.044-0.131,0.07-0.194c0-0.001,0.001-0.003,0.001-0.004   c1.595-0.131,3.226-0.116,4.808-0.093c0.782,0.01,1.564,0.014,2.346,0.008c0.01,0.021,0.015,0.042,0.026,0.063   c-0.008,0.076-0.014,0.152-0.013,0.223l0.115,7.866c0.004,0.134,0.005,0.232-0.001,0.309c-0.005-0.001-0.009-0.003-0.014-0.004   C22.019,49.676,20.482,49.673,18.995,49.671z M37.625,50.401c-0.33,0.009-0.658,0.019-0.984,0.035c-0.048,0.002-0.08,0-0.096,0.003   c-0.012-0.039-0.027-0.119-0.025-0.263c0.002-0.288-0.001-0.577-0.004-0.866c-0.006-0.493-0.013-0.987,0.016-1.482   c0.047-0.904-0.203-1.718-0.425-2.324c-0.571-1.569-2.44-2.66-4.175-2.425c-1.676,0.226-2.814,1.401-3.124,3.228   c-0.238,1.399-0.381,2.539-0.451,3.586c-0.007,0.104-0.019,0.172-0.028,0.214c-0.033,0.005-0.083,0.009-0.152,0.009   c-0.713,0.001-1.387,0.085-2.003,0.25c-0.372,0.101-0.744,0.059-1.139-0.03c0.052-0.268,0.047-0.52,0.042-0.719l-0.108-7.907   c0.019-0.167,0.054-0.477-0.128-0.769c-0.173-0.279-0.106-0.561,0.088-1.136c0.081-0.238,0.157-0.473,0.201-0.698   c0.003-0.016,0.006-0.03,0.009-0.043c0.1,0.017,0.238,0.053,0.34,0.079c0.349,0.091,0.743,0.193,1.158,0.106   c0.239-0.049,0.532-0.035,0.843-0.02c0.2,0.011,0.4,0.017,0.598,0.017l2.486-0.048c2.989-0.057,5.979-0.112,8.969-0.19   c0.019-0.001,0.037-0.001,0.054-0.001c0.2,0,0.276,0.03,0.274,0.029c0.004,0.008,0.017,0.038,0.023,0.104   c0.072,0.702,0.073,1.256,0.004,1.743c-0.438,3.082-0.131,6.147,0.166,9.112l0.021,0.202c-0.012,0.002-0.022,0.004-0.033,0.006   C39.275,50.354,38.474,50.377,37.625,50.401z M41.557,49.943l-0.01-0.098c-0.273-2.739-0.549-5.565-0.219-8.337   c0.771,0.006,1.541,0.002,2.312-0.008c1.584-0.022,3.214-0.036,4.808,0.093c0.001,0.001,0.001,0.003,0.002,0.005   c0.027,0.064,0.066,0.16,0.07,0.182c-0.008,2.409-0.239,4.859-0.463,7.229l-0.074,0.792C45.992,49.549,43.893,49.594,41.557,49.943   z M51.848,50.017c-0.682,0.14-1.33,0.265-1.969,0.116c-0.137-0.031-0.275-0.054-0.413-0.083l0.084-0.899   c0.228-2.402,0.462-4.888,0.47-7.367c0-0.31-0.105-0.567-0.183-0.755c-0.007-0.016-0.013-0.03-0.019-0.046   c0.525-1.562,0.545-3.138,0.564-4.663c0.007-0.583,0.014-1.166,0.051-1.746c0.036-0.586,0.098-1.074,0.212-1.495   c0.186,0.231,0.328,0.576,0.345,1.134c0.025,0.854,0.129,1.698,0.228,2.514c0.095,0.777,0.185,1.511,0.212,2.254   c0.057,1.442,0.072,2.744,0.089,3.999C51.548,45.26,51.586,47.445,51.848,50.017z M51.531,29.957   c-0.498,0.232-0.887,0.511-1.209,0.815c-0.298-0.141-0.598-0.261-0.921-0.375c-0.669-0.234-1.129-0.718-1.261-1.326   c-0.102-0.473,0.016-0.927,0.314-1.213c0.182-0.174,0.361-0.354,0.541-0.535c0.462-0.465,0.905-0.907,1.399-1.252   c0.507,0.526,1.181,1.283,1.452,1.645c0.434,0.579,0.623,1.093,0.535,1.448C52.308,29.461,52.021,29.728,51.531,29.957z"/></g></svg>