<?xml version="1.0" ?><!DOCTYPE svg  PUBLIC '-//W3C//DTD SVG 1.1//EN'  'http://www.w3.org/Graphics/SVG/1.1/DTD/svg11.dtd'><svg enable-background="new 0 0 64 64" height="64px" id="Layer_1" version="1.1" viewBox="0 0 64 64" width="64px" xml:space="preserve" xmlns="http://www.w3.org/2000/svg" xmlns:xlink="http://www.w3.org/1999/xlink"><path d="M52.18,33.787c-2.045-2.261-4.648-4.706-8.458-5.703c-2.576-0.673-5.175-0.651-7.94,0.063  c-0.409,0.104-0.705,0.372-0.943,0.587c-0.019,0.017-0.037,0.031-0.056,0.047c-0.221-0.104-0.442-0.203-0.663-0.299  c-0.059-0.025-0.111-0.05-0.169-0.076c0.219-0.233,0.45-0.46,0.697-0.693c0.301-0.284,0.604-0.576,0.894-0.896  c0.707,0.198,1.361,0.092,1.867-0.05c1.516-0.427,2.674-0.471,3.773-0.136c0.398,0.124,1.459,0.451,2.07-0.547  c0.027-0.044,0.049-0.072,0.054-0.083c0.077,0.008,0.231,0.054,0.349,0.089l0.244,0.071c0.633,0.171,1.215,0.495,1.832,0.837  c0.429,0.239,0.881,0.469,1.355,0.67c0.063,0.265,0.261,0.489,0.543,0.559c0.393,0.098,0.785-0.131,0.898-0.513  c0.45,0.445,1.123,1.101,2.161,1.101c0.025,0,0.052,0,0.077-0.001c0.414-0.013,0.74-0.359,0.727-0.773  c-0.005-0.148-0.06-0.277-0.134-0.391c0.15-0.105,0.267-0.262,0.307-0.456c0.127-0.605-0.271-1.177-0.677-1.656  c-3.176-3.753-7.687-4.814-12.377-2.907c-0.217,0.088-0.443,0.168-0.673,0.25c-1.046,0.373-2.231,0.795-2.812,1.943  c-0.359,0.714-0.918,1.241-1.509,1.798c-0.322,0.305-0.653,0.623-0.963,0.977c-0.011-0.029-0.021-0.058-0.033-0.085  c0.13-0.512,0.015-1.172-0.18-2.029c-0.06-0.262-0.116-0.496-0.131-0.654c-0.043-0.44,0.08-0.927,0.375-1.488  c0.026-0.049,0.042-0.099,0.065-0.148c0.33,0.038,0.692,0.073,1.086,0.073c1.002,0,2.121-0.227,2.888-1.218  c0.462-0.598,0.862-0.666,1.737-0.687c0.122,0.001,0.252,0.009,0.381,0.02c0.496,0.04,1.245,0.101,1.814-0.483  c0.569-0.585,1.08-0.501,2.195-0.154c1.32,0.413,2.065,0.003,2.475-0.474c0.016,0.006,0.029,0.012,0.043,0.018  c0.527,0.221,1.07,0.449,1.662,0.34c0.195-0.036,0.354-0.147,0.464-0.294c0.178,0.188,0.439,0.29,0.71,0.223  c0.404-0.096,0.652-0.5,0.557-0.903c-0.418-1.756-2.326-3.329-4.539-3.739c-3.252-0.605-6.211,0.31-9.309,2.882  c-0.561,0.466-1.127,0.928-1.692,1.389l-0.363,0.297c-0.007-0.016-0.012-0.033-0.02-0.049c0.584-0.751,1.052-1.561,1.499-2.35  c0.424-0.746,0.822-1.449,1.313-2.094c0.338-0.446,0.502-1.004,0.492-1.657c0-0.008,0-0.015,0.001-0.023  c-0.001-0.012,0.001-0.023,0.001-0.035c-0.001-0.046-0.021-0.086-0.029-0.13c-0.009-0.039-0.006-0.079-0.021-0.117  c-0.002-0.006-0.008-0.01-0.011-0.016c-0.032-0.082-0.081-0.152-0.139-0.217c-0.005-0.006-0.008-0.014-0.014-0.02  c-0.11-0.117-0.26-0.186-0.428-0.207c-0.036-0.005-0.07-0.016-0.107-0.016c-0.009,0-0.016-0.004-0.024-0.003  c-0.044,0.001-0.08,0.02-0.122,0.028c-0.041,0.008-0.084,0.005-0.125,0.021c-0.162,0.063-0.224,0.058-0.227,0.057  c-0.075-0.026-0.277-0.26-0.425-0.431l-0.197-0.226c-0.323-0.363-0.601-0.781-0.896-1.222c-0.139-0.208-0.277-0.416-0.421-0.619  c-0.239-0.338-0.709-0.419-1.045-0.179c-0.178,0.125-0.279,0.314-0.306,0.515c-0.625,0.444-0.895,1.111-1.097,1.626  c-0.26,0.661-0.55,0.917-0.649,0.938c-0.013-0.002-0.099-0.016-0.252-0.172c-0.016-0.016-0.037-0.022-0.054-0.037  c-0.039-0.033-0.08-0.06-0.125-0.084c-0.045-0.024-0.09-0.045-0.138-0.06c-0.021-0.007-0.038-0.021-0.061-0.026  c-0.025-0.005-0.048,0.002-0.073-0.001c-0.051-0.005-0.101-0.006-0.152-0.001c-0.047,0.004-0.092,0.012-0.137,0.025  c-0.047,0.013-0.09,0.031-0.134,0.054c-0.044,0.023-0.084,0.049-0.123,0.081c-0.021,0.016-0.046,0.023-0.065,0.042  c-0.017,0.017-0.023,0.039-0.039,0.057c-0.032,0.037-0.057,0.077-0.081,0.12c-0.025,0.046-0.046,0.091-0.062,0.141  c-0.006,0.021-0.021,0.038-0.026,0.06c-0.151,0.707-0.059,1.385,0.282,2.074c0.151,0.303,0.293,0.611,0.435,0.919  c0.534,1.156,1.085,2.351,2.08,3.341c0.561,0.557,0.549,1.176,0.376,1.684c-1.051-0.258-1.892-0.978-2.505-2.146  c-0.518-0.991-1.236-1.602-1.945-2.207c-2.345-1.999-4.559-2.846-6.957-2.674c-1.86,0.136-3.672,0.707-5.388,1.697  c-0.83,0.482-1.312,1.314-1.288,2.226c0.01,0.415,0.374,0.755,0.769,0.73c0.022,0,0.041-0.012,0.063-0.015  c0.029,0.011,0.053,0.031,0.084,0.038c0.25,0.055,0.488,0.079,0.716,0.079c0.67,0,1.249-0.203,1.775-0.387l0.286-0.099  c0.383-0.129,0.689-0.129,0.985-0.025c0.074,0.096,0.164,0.182,0.283,0.234c0.824,0.363,1.625,0.282,2.333,0.21  c0.344-0.035,0.669-0.065,0.97-0.048c0.604,0.038,0.757,0.114,0.792,0.155c0.471,1.038,1.352,1.137,1.878,1.196  c0.676,0.077,1.469,0.187,2.226,0.43c0.162,0.052,0.5,0.16,0.914,0.16c0.225,0,0.474-0.039,0.728-0.13  c0.722,0.987,1.641,1.653,2.718,1.967c-0.125,0.45-0.177,0.886-0.135,1.313c0.018,0.184,0.076,0.456,0.144,0.755  c-0.341-0.163-0.724-0.292-1.16-0.379c-0.481-0.097-1.089-0.345-1.251-0.97c-0.214-0.83-0.929-1.133-1.402-1.333l-0.144-0.062  c-2.53-1.113-4.684-1.562-6.782-1.414c-3.023,0.214-5.78,1.291-8.195,3.2c-0.712,0.565-0.999,1.263-0.851,2.072  c0.021,0.113,0.069,0.211,0.132,0.299c0.034,0.248,0.177,0.476,0.421,0.586c0.656,0.296,1.271,0.417,1.85,0.417  c1.388,0,2.577-0.693,3.663-1.327c0.294-0.171,0.587-0.343,0.881-0.498c0.882-0.463,1.496-0.541,2.264-0.284  c0.717,0.239,1.405,0.252,2.047,0.042c0.692-0.229,1.453-0.138,2.258-0.041c0.359,0.043,0.717,0.086,1.072,0.104l0.44,0.027  c0.582,0.04,1.182,0.072,1.809-0.029c0.4,0.321,0.899,0.56,1.491,0.679c0.295,0.06,0.537,0.139,0.75,0.234  c-0.054,0.309-0.1,0.683-0.155,1.144c-0.036,0.305-0.084,0.701-0.135,1.002c-0.122-0.029-0.241-0.064-0.364-0.092  c-0.939-0.215-1.75-0.401-2.363-1.014c-0.648-0.649-1.441-0.64-2.021-0.631c-0.13,0-0.259,0.004-0.383-0.004  c-2.557-0.162-4.917,0.076-7.021,0.706c-3.163,0.944-5.374,3.144-6.571,6.537c-0.348,0.984-0.295,1.902,0.151,2.656  c0.14,0.236,0.39,0.367,0.646,0.367c0.13,0,0.262-0.033,0.382-0.104c0.047-0.028,0.079-0.07,0.118-0.106  c0.068-0.004,0.137-0.011,0.205-0.034c0.894-0.311,1.39-0.933,1.847-1.58c0.155-0.22,0.3-0.425,0.452-0.607l0.585,0.904  c0.121,0.188,0.317,0.311,0.538,0.338c0.219,0.025,0.441-0.045,0.604-0.197l3.358-3.141c0.937,0.184,1.654-0.364,1.953-0.591  c1.052-0.797,2.305-1.392,3.945-1.873l0.29-0.079c0.413-0.108,0.873-0.24,1.3-0.565c0.552,0.227,1.12,0.359,1.65,0.481  c0.232,0.053,0.461,0.113,0.69,0.174c0.086,0.396,0.05,0.804,0.008,1.258c-0.02,0.22-0.04,0.44-0.047,0.66L29.9,33.207  c-0.064,1.867-0.131,3.797-0.09,5.705c0.054,2.527-0.124,5.102-0.295,7.59c-0.11,1.602-0.224,3.258-0.277,4.896  c-0.008,0.268,0.016,0.517,0.045,0.761c-0.378,0.071-0.65,0.412-0.612,0.802c0.038,0.387,0.364,0.676,0.746,0.676  c0.024,0,0.049,0,0.074-0.003c0.518-0.052,1.045-0.035,1.603-0.017c0.74,0.023,1.502,0.046,2.29-0.089  c0.482-0.083,1.162-0.261,1.508-0.835c0.244-0.406,0.268-0.896,0.068-1.5c-0.295-0.898-0.31-1.888-0.324-2.846l-0.008-0.441  c-0.066-3.135-0.424-6.273-0.769-9.307c-0.18-1.578-0.358-3.156-0.499-4.736l-0.057-0.594c-0.121-1.219-0.232-2.379,0.098-3.466  c0.039,0.017,0.078,0.036,0.117,0.053c0.766,0.334,1.487,0.651,2.016,1.2c0.301,0.319,0.73,0.348,0.87,0.348  c0.007,0,0.012,0,0.017,0c0.325,0,0.601,0.159,1.021,0.417c0.143,0.087,0.285,0.175,0.434,0.255c0.163,0.09,0.324,0.188,0.487,0.287  c0.667,0.405,1.416,0.859,2.38,0.859c0.078,0,0.159-0.003,0.242-0.01c0.388-0.03,0.673-0.354,0.68-0.736  c0.135,0.042,0.284,0.071,0.453,0.082c0.08,0.005,0.272,0.088,0.413,0.229c0.513,0.506,1.142,1.127,2.069,1.374  c0.02,0.104,0.054,0.224,0.118,0.346c0.134,0.255,0.396,0.398,0.666,0.398c0.12,0,0.241-0.028,0.354-0.088  c0.366-0.192,0.514-0.65,0.321-1.018c0-0.001,0-0.001,0-0.002c0.1,0.026,0.298,0.194,0.337,0.286  c0.357,0.994,1.061,1.688,2.15,2.124c0.646,0.258,1.154,0.77,1.692,1.313c0.43,0.433,0.874,0.881,1.425,1.242  c0.127,0.084,0.271,0.124,0.412,0.124c0.244,0,0.482-0.118,0.627-0.338c0.058-0.088,0.094-0.184,0.111-0.281  C53.51,37.242,53.898,35.687,52.18,33.787z M38.441,24.294c0.25-0.089,0.498-0.177,0.734-0.273  c4.111-1.668,7.899-0.786,10.668,2.486c0.236,0.28,0.314,0.421,0.34,0.478c-0.005,0.064,0.009,0.124,0.02,0.185  c-0.183-0.108-0.374-0.278-0.633-0.533c-0.628-0.622-1.164-0.641-1.502-0.544c-0.119,0.033-0.251,0.106-0.382,0.205  c-0.408-0.171-0.811-0.377-1.228-0.609c-0.668-0.371-1.359-0.755-2.168-0.974l-0.205-0.06c-0.506-0.152-1.446-0.437-2.066,0.635  c-0.076,0.007-0.274-0.054-0.42-0.099c-1.371-0.417-2.789-0.377-4.597,0.132c-0.178,0.05-0.33,0.078-0.473,0.095  C36.87,24.868,37.628,24.584,38.441,24.294z M24.537,19.748c-0.493-0.056-0.576-0.095-0.68-0.326  c-0.422-0.93-1.532-0.999-2.064-1.032c-0.423-0.026-0.826,0.014-1.215,0.053c-0.572,0.057-1.068,0.101-1.514-0.071  c-0.078-0.106-0.174-0.199-0.305-0.253c-0.657-0.271-1.345-0.281-2.108-0.025l-0.305,0.105c-0.429,0.15-0.796,0.273-1.171,0.294  c0.1-0.113,0.212-0.199,0.3-0.25c1.517-0.875,3.113-1.38,4.746-1.499c1.976-0.145,3.849,0.593,5.889,2.332  c0.478,0.407,0.907,0.773,1.254,1.239c-0.088-0.013-0.19-0.036-0.311-0.075C26.17,19.957,25.286,19.832,24.537,19.748z   M25.842,24.648c-0.322-0.016-0.645-0.056-0.969-0.095c-0.89-0.108-1.898-0.229-2.908,0.105c-0.327,0.106-0.698,0.093-1.103-0.041  c-1.165-0.389-2.19-0.275-3.436,0.379c-0.314,0.165-0.626,0.347-0.939,0.53c-1.312,0.766-2.461,1.418-3.846,0.941  c-0.006-0.147,0.046-0.302,0.318-0.518c2.172-1.718,4.652-2.687,7.369-2.879c1.845-0.13,3.773,0.28,6.071,1.291l0.163,0.07  c0.206,0.086,0.425,0.184,0.501,0.282c-0.246-0.003-0.498-0.018-0.757-0.036L25.842,24.648z M25.938,29.207  c-0.11,0.029-0.222,0.058-0.333,0.091c-1.795,0.526-3.244,1.218-4.43,2.117c-0.52,0.395-0.721,0.352-0.915,0.26  c-0.277-0.131-0.608-0.081-0.833,0.13l-3.025,2.83l-0.573-0.885c-0.222-0.345-0.681-0.445-1.028-0.228  c-0.653,0.409-1.068,0.997-1.46,1.554c-0.267,0.378-0.5,0.672-0.82,0.861c0-0.224,0.044-0.467,0.138-0.732  c1.029-2.917,2.909-4.8,5.586-5.6c1.934-0.579,4.123-0.795,6.497-0.646c0.16,0.01,0.327,0.008,0.497,0.006  c0.499-0.006,0.739,0.012,0.919,0.177C26.083,29.163,26.02,29.186,25.938,29.207z M35.875,19.951  c2.727-2.265,5.295-3.075,8.076-2.561c1.231,0.229,2.354,0.927,2.952,1.767c-0.048,0-0.095-0.011-0.144-0.002  c-0.145,0.027-0.514-0.125-0.807-0.248c-0.232-0.098-0.473-0.198-0.717-0.274c-0.377-0.117-0.783,0.079-0.925,0.449  c-0.087,0.229-0.185,0.49-1.013,0.23c-1.033-0.32-2.448-0.76-3.715,0.54c-0.077,0.078-0.365,0.055-0.618,0.035  c-0.185-0.015-0.366-0.028-0.54-0.024c-1.023,0.024-2.016,0.14-2.887,1.269c-0.39,0.503-0.999,0.651-1.868,0.626l0.501-0.409  C34.74,20.885,35.311,20.42,35.875,19.951z M30.424,16.619c-0.148-0.321-0.296-0.642-0.453-0.957  c-0.019-0.039-0.02-0.074-0.036-0.111c0.081-0.004,0.161-0.01,0.23-0.024c0.912-0.187,1.453-1.114,1.745-1.859  c0.146-0.372,0.263-0.618,0.407-0.793c0.256,0.38,0.523,0.763,0.839,1.12l0.184,0.21c0.292,0.339,0.633,0.719,1.119,0.874  c-0.001,0.001-0.001,0.004-0.002,0.005c-0.55,0.725-0.992,1.505-1.422,2.261c-0.366,0.646-0.736,1.249-1.142,1.821  C31.276,18.428,30.854,17.55,30.424,16.619z M31.81,33.416l0.055,0.58c0.142,1.593,0.322,3.183,0.503,4.772  c0.341,3.001,0.694,6.104,0.759,9.17l0.008,0.433c0.016,1.02,0.033,2.176,0.4,3.291c0.049,0.148,0.057,0.232,0.068,0.25  c-0.043,0.025-0.168,0.085-0.475,0.138c-0.637,0.11-1.293,0.091-1.989,0.067c-0.116-0.004-0.236-0.004-0.354-0.007  c-0.028-0.222-0.056-0.443-0.049-0.664c0.052-1.611,0.165-3.253,0.274-4.841c0.174-2.522,0.353-5.131,0.298-7.726  c-0.04-1.866,0.025-3.774,0.089-5.622l0.019-0.542c0.006-0.191,0.024-0.382,0.042-0.573c0.059-0.635,0.124-1.344-0.146-2.113  c0.101-0.308,0.166-0.736,0.237-1.315c0.104,0.131,0.234,0.249,0.381,0.343c0.039,0.025,0.08,0.042,0.119,0.066  C31.536,30.583,31.677,32.08,31.81,33.416z M49.104,34.814c-0.696-0.277-1.084-0.648-1.295-1.237  c-0.187-0.521-0.73-1.025-1.293-1.208c-0.023-0.106-0.063-0.242-0.14-0.38c-0.2-0.362-0.657-0.476-1.021-0.275  c-0.353,0.196-0.481,0.648-0.303,1.006c-0.533-0.12-0.95-0.489-1.466-0.998c-0.296-0.296-0.813-0.625-1.373-0.661  c-0.097-0.006-0.13-0.025-0.13-0.025c-0.055-0.052-0.122-0.333-0.147-0.438c-0.097-0.402-0.497-0.649-0.903-0.555  c-0.403,0.096-0.652,0.501-0.556,0.904c0.048,0.2,0.12,0.486,0.269,0.763c-0.547-0.003-1.043-0.287-1.605-0.628  c-0.182-0.11-0.363-0.22-0.547-0.32c-0.125-0.068-0.246-0.143-0.367-0.217c-0.469-0.288-0.998-0.613-1.723-0.638  c-0.115-0.111-0.238-0.202-0.359-0.298c0.002-0.001,0.008-0.006,0.01-0.007c2.516-0.648,4.867-0.67,7.188-0.064  c3.428,0.897,5.828,3.161,7.725,5.257c0.864,0.954,0.943,1.635,0.752,2.172c-0.171-0.16-0.34-0.327-0.514-0.502  C50.682,35.836,50.039,35.188,49.104,34.814z"/></svg>