<?xml version="1.0" ?><!DOCTYPE svg  PUBLIC '-//W3C//DTD SVG 1.1//EN'  'http://www.w3.org/Graphics/SVG/1.1/DTD/svg11.dtd'><svg enable-background="new 0 0 64 64" height="64px" id="Layer_1" version="1.1" viewBox="0 0 64 64" width="64px" xml:space="preserve" xmlns="http://www.w3.org/2000/svg" xmlns:xlink="http://www.w3.org/1999/xlink"><g><path d="M28.616,38.07c1.568,0.779,3.191,1.171,4.806,1.171c1.111,0,2.219-0.186,3.303-0.56c0.924-0.317,1.824-0.647,2.676-1.189   c0.44-0.28,1.105-0.704,1.155-1.637c0.001-0.012-0.005-0.021-0.005-0.033s0.006-0.022,0.006-0.035   c-0.002-0.04-0.02-0.073-0.027-0.111c-0.01-0.051-0.017-0.101-0.036-0.146c-0.019-0.044-0.046-0.08-0.071-0.12   c-0.027-0.041-0.052-0.082-0.086-0.116c-0.037-0.039-0.081-0.065-0.126-0.095c-0.034-0.022-0.065-0.048-0.104-0.064   c-0.053-0.023-0.108-0.033-0.167-0.043c-0.031-0.006-0.06-0.022-0.093-0.024c-0.013-0.001-0.023,0.005-0.036,0.005   c-0.012,0-0.021-0.006-0.032-0.005c-0.144-0.003-0.177-0.009-0.271-0.044c-0.245-0.094-0.526-0.177-1.035-0.073   c-1.876,0.387-3.625-0.071-5.205-1.361c-1.429-1.17-2.396-2.805-3.042-5.146c-0.503-1.822-0.588-3.214-0.274-4.513   c0.372-1.544,1.209-2.868,2.097-4.271l0.105-0.167c0.005-0.008,0.005-0.017,0.01-0.025c0.005-0.008,0.013-0.013,0.018-0.022   c0.02-0.037,0.022-0.078,0.035-0.117c0.016-0.048,0.037-0.093,0.043-0.142s-0.001-0.095-0.004-0.143   c-0.003-0.048-0.002-0.095-0.015-0.142c-0.012-0.046-0.036-0.086-0.057-0.129c-0.021-0.044-0.038-0.088-0.067-0.128   c-0.03-0.039-0.07-0.068-0.107-0.102c-0.031-0.027-0.053-0.062-0.089-0.084c-0.008-0.005-0.018-0.005-0.025-0.01   c-0.008-0.005-0.013-0.013-0.021-0.018c-0.804-0.43-2.115,0.135-2.127,0.142c-3.175,1.393-5.306,3.785-6.163,6.919   c-0.702,2.568-0.58,5.019,0.362,7.282C24.986,35.267,26.558,37.049,28.616,38.07z M25.03,25.887   c0.711-2.604,2.392-4.538,4.976-5.771c-0.633,1.065-1.206,2.188-1.513,3.463c-0.482,1.998-0.101,3.862,0.286,5.263   c0.723,2.619,1.88,4.552,3.539,5.908c1.496,1.223,3.125,1.837,4.86,1.837c0.29,0,0.585-0.021,0.881-0.056   c-0.572,0.292-1.189,0.516-1.823,0.733c-2.3,0.793-4.64,0.612-6.953-0.537c-1.727-0.856-3.057-2.381-3.954-4.53   C24.519,30.248,24.418,28.126,25.03,25.887z"/><path d="M48.168,22.547c0.025-2.083,0.053-4.237,0.301-6.328c0.152-1.277,0.086-2.151,0.002-3.258l-0.033-0.439   c-0.002-0.031-0.019-0.055-0.024-0.084c-0.01-0.051-0.021-0.099-0.041-0.146c-0.017-0.04-0.037-0.075-0.061-0.111   c-0.031-0.049-0.065-0.093-0.107-0.134c-0.023-0.022-0.047-0.041-0.073-0.061c-0.052-0.039-0.106-0.07-0.168-0.095   c-0.031-0.013-0.063-0.021-0.097-0.029c-0.036-0.009-0.068-0.028-0.106-0.032c-0.533-0.05-2.002-0.135-2.536-0.146   c-0.817-0.016-1.636-0.019-2.454-0.021c-1.541-0.005-3.135-0.01-4.692-0.107c-1.29-0.082-2.596-0.096-3.858-0.109   c-1.094-0.013-2.225-0.024-3.328-0.081c-0.546-0.027-1.093-0.074-1.64-0.121c-1.052-0.09-2.139-0.185-3.236-0.141   c-1.692,0.063-3.419,0.059-5.09,0.051c-1.036-0.004-2.071-0.008-3.105,0.004c-0.414,0.005-0.746,0.345-0.741,0.759   c0,0.048,0.02,0.088,0.029,0.132c-0.006,0.026-0.021,0.048-0.024,0.076c-0.187,1.644-0.165,3.294-0.144,4.891   c0.014,1.038,0.028,2.111-0.018,3.154c-0.095,2.172-0.03,4.364,0.033,6.484c0.06,2.027,0.122,4.124,0.042,6.172   c-0.031,0.79-0.067,1.578-0.104,2.367c-0.124,2.703-0.252,5.497-0.183,8.264c0.006,0.236,0.027,0.473,0.049,0.708l0.026,0.294   c0,0.004,0.002,0.007,0.003,0.011c0,0.002-0.002,0.004-0.002,0.006c-0.002,0.023,0,0.046-0.002,0.069   c0,0.002-0.001,0.003-0.001,0.005c0,0.001,0,0.002,0,0.004c-0.044,0.584,0.06,1.133,0.155,1.619   c0.064,0.325,0.124,0.633,0.138,0.929c0.034,0.684,0.061,1.366,0.073,2.05c0.023,1.203,0.399,1.584,1.61,1.63   c1.19,0.047,2.381,0.06,3.572,0.071c1.928,0.02,3.922,0.04,5.863,0.218c1.169,0.106,2.341,0.146,3.515,0.146   c1.553,0,3.106-0.068,4.652-0.136c1.565-0.067,3.385-0.134,5.175-0.021c1.255,0.072,2.489-0.076,3.682-0.224l0.669-0.081   c0.387-0.046,0.716-0.203,1.006-0.343c0.102-0.049,0.203-0.098,0.307-0.14c0.314-0.127,0.504-0.449,0.464-0.785   c-0.043-0.355-0.143-0.822-0.532-1.287c-0.389-0.466-0.469-1.027-0.244-1.717c0.144-0.441,0.298-0.879,0.451-1.317l0.132-0.376   c0.111-0.05,0.216-0.114,0.312-0.196c0.357-0.307,0.53-0.802,0.462-1.325c-0.269-2.046-0.249-4.124-0.202-6.251   c0.029-1.366-0.012-2.744-0.051-4.077c-0.053-1.835-0.109-3.731,0.022-5.582C48.127,25.75,48.148,24.121,48.168,22.547z    M26.072,12.601c1.004-0.033,1.998,0.048,3.052,0.137c0.563,0.049,1.127,0.097,1.691,0.125c1.132,0.058,2.279,0.07,3.387,0.082   c1.243,0.014,2.529,0.028,3.78,0.106c1.604,0.102,3.219,0.106,4.782,0.111c0.81,0.003,1.62,0.006,2.429,0.021   c0.354,0.007,1.17,0.05,1.796,0.092c0.074,0.99,0.116,1.708-0.009,2.767c-0.258,2.169-0.286,4.363-0.313,6.486   c-0.02,1.553-0.04,3.158-0.151,4.723c-0.137,1.926-0.08,3.86-0.024,5.732c0.037,1.313,0.078,2.673,0.049,4   c-0.047,2.14-0.066,4.234,0.197,6.392c-0.414-0.109-0.874-0.161-1.438-0.161c-0.008,0-0.014,0-0.021,0l-1.902,0.004   c-2.463,0.004-5.009,0.008-7.516,0.087c-0.434,0.014-0.869,0.039-1.303,0.065c-0.932,0.054-1.811,0.109-2.688,0.041   c-1.995-0.15-3.991-0.045-5.92,0.058l-2.968,0.149c-1.574,0.081-3.081,0.155-4.748,0.173c-0.01-0.124-0.023-0.247-0.026-0.372   c-0.068-2.714,0.058-5.481,0.181-8.157c0.037-0.792,0.073-1.584,0.104-2.377c0.083-2.101,0.02-4.223-0.041-6.275   c-0.062-2.094-0.126-4.258-0.033-6.375c0.046-1.086,0.032-2.181,0.018-3.239c-0.019-1.43-0.031-2.903,0.104-4.339   c0.792-0.004,1.584-0.006,2.376-0.003C22.605,12.661,24.348,12.666,26.072,12.601z M45.711,49.264l-0.678,0.083   c-1.176,0.146-2.285,0.288-3.404,0.214c-1.859-0.114-3.729-0.049-5.398,0.023c-2.598,0.112-5.284,0.231-7.899-0.009   c-2.002-0.183-4.026-0.203-5.984-0.224c-1.177-0.012-2.354-0.023-3.53-0.069c-0.037-0.002-0.099-0.004-0.164-0.008   c-0.001-0.043-0.003-0.093-0.004-0.152c-0.013-0.698-0.041-1.396-0.075-2.094c-0.019-0.405-0.093-0.781-0.165-1.146   c-0.04-0.203-0.076-0.399-0.103-0.592c1.673-0.02,3.182-0.094,4.754-0.175l2.969-0.149c1.881-0.1,3.829-0.204,5.729-0.06   c0.977,0.072,1.948,0.017,2.888-0.04c0.421-0.024,0.842-0.05,1.262-0.063c2.485-0.079,5.02-0.083,7.471-0.087l1.904-0.004   c0.234-0.006,0.436,0.004,0.616,0.025c-0.15,0.426-0.3,0.853-0.438,1.279c-0.387,1.186-0.207,2.271,0.52,3.143   c0.004,0.005,0.008,0.01,0.012,0.015C45.887,49.221,45.791,49.255,45.711,49.264z"/><path d="M32.489,25.597c0.004,0.047-0.002,0.094,0.012,0.141c0,0.001,0.001,0.002,0.001,0.003c0.001,0.004,0.003,0.008,0.005,0.012   c0.214,0.719,0.726,1.15,1.14,1.497c0.09,0.075,0.18,0.149,0.264,0.227c0.162,0.148,0.463,0.423,0.5,0.484   c0,0.02-0.009,0.106-0.123,0.391l-0.068,0.166c-0.189,0.454-0.425,1.019-0.281,1.75c0.005,0.023,0.018,0.041,0.024,0.063   c0.034,0.383,0.349,0.686,0.738,0.686c0.003,0,0.007,0,0.011,0c1.012-0.015,1.641-0.62,2.146-1.107   c0.104-0.1,0.205-0.198,0.309-0.289c0.074-0.064,0.129-0.106,0.168-0.135c0.027,0.024,0.064,0.058,0.109,0.104   c0.052,0.054,0.104,0.112,0.156,0.173c0.326,0.37,0.93,1.061,1.955,0.785c0.106-0.029,0.199-0.081,0.279-0.146   c0.141-0.083,0.259-0.207,0.323-0.371c0.287-0.738,0.007-1.319-0.179-1.704c-0.047-0.097-0.096-0.191-0.129-0.293   c-0.117-0.356-0.123-0.453-0.139-0.452c0.016-0.025,0.084-0.107,0.4-0.338c0.36-0.261,0.809-0.586,1.037-1.13   c0.037-0.088,0.052-0.179,0.055-0.269c0.032-0.054,0.063-0.109,0.084-0.172c0.129-0.394-0.133-0.831-0.527-0.959   c-0.396-0.129-0.846-0.28-1.385-0.231c-0.654,0.05-0.768-0.163-0.851-0.475c-0.088-0.332-0.249-0.808-0.62-1.114   c-0.064-0.052-0.138-0.083-0.211-0.112c-0.011-0.03-0.01-0.061-0.023-0.09c-0.182-0.375-0.629-0.531-1.002-0.351   c-0.727,0.35-1.006,1.004-1.211,1.481l-0.052,0.145c-0.269,0.296-1.696,0.814-2.102,0.82c-0.308-0.046-0.596,0.121-0.739,0.382   c-0.047,0.085-0.077,0.179-0.088,0.277c0,0.001-0.001,0.002-0.001,0.003C32.47,25.499,32.484,25.547,32.489,25.597z M36.725,24.663   l0.111-0.252c0.051-0.119,0.096-0.217,0.14-0.307c0.025,0.052,0.06,0.138,0.1,0.289c0.168,0.624,0.688,1.613,2.228,1.582   c-0.028,0.021-0.057,0.041-0.085,0.062c-1.002,0.73-1.18,1.258-0.809,2.411c-0.925-0.86-1.675-0.439-2.228,0.042   c-0.123,0.107-0.244,0.223-0.365,0.34c-0.061,0.058-0.113,0.105-0.168,0.157l0.029-0.073c0.523-1.295,0.1-1.763-0.757-2.544   c-0.101-0.092-0.206-0.18-0.313-0.27c-0.029-0.024-0.056-0.048-0.085-0.072C35.438,25.74,36.46,25.239,36.725,24.663z"/></g></svg>