<svg id="Capa_1" enable-background="new 0 0 512 512" height="512" viewBox="0 0 512 512" width="512" xmlns="http://www.w3.org/2000/svg"><g><g><path d="m148.863 296.078c.811-1.057.951-2.483.361-3.678l-7.001-14.193 7.723-13.814c1.451-2.41-.785-5.668-3.558-5.172l-15.662 2.273-10.751-11.614c-1.843-2.126-5.632-1.002-6.018 1.785l-2.679 15.598-14.367 6.637c-2.592 1.096-2.693 5.047-.161 6.275l14.007 7.368 1.871 15.715c.244 2.801 3.959 4.123 5.918 2.093l11.336-11.044 15.523 3.076c1.317.258 2.648-.247 3.458-1.305zm-13.731-16.425 4.678 9.483-10.372-2.055c-1.129-.223-2.297.122-3.123.926l-7.574 7.379-1.25-10.5c-.137-1.144-.827-2.148-1.847-2.684l-9.358-4.923 9.6-4.434c1.046-.483 1.787-1.45 1.981-2.585l1.79-10.422 7.183 7.76c.782.845 1.929 1.252 3.071 1.086l10.465-1.519-5.16 9.229c-.563 1.008-.594 2.226-.084 3.259z"/><path d="m208.262 314.849c-.176-1.32-1.086-2.427-2.349-2.853l-17.201-5.818-4.958-17.468c-.681-2.731-4.565-3.444-6.174-1.136l-10.85 14.562-18.145-.682c-2.82-.182-4.683 3.273-2.988 5.521l10.497 14.818-6.257 17.047c-1.055 2.609 1.673 5.473 4.328 4.547l17.336-5.403 14.279 11.216c2.161 1.81 5.717.101 5.662-2.711l.218-18.157 15.081-10.114c1.107-.742 1.697-2.048 1.521-3.369zm-22.029 8.695c-.957.642-1.537 1.713-1.551 2.865l-.155 12.906-10.149-7.973c-.625-.491-1.388-.748-2.162-.748-.349 0-.7.052-1.042.159l-12.321 3.841 4.447-12.117c.396-1.081.235-2.289-.43-3.229l-7.462-10.533 12.897.485c1.188.043 2.25-.482 2.938-1.406l7.712-10.351 3.524 12.417c.314 1.108 1.154 1.991 2.246 2.36l12.227 4.136z"/><path d="m371.653 292.468c2.203 1.758 5.718-.037 5.595-2.846l-.19-15.679 12.807-9.046c2.35-1.548 1.733-5.452-.979-6.201l-14.97-4.663-4.646-14.976c-.745-2.714-4.651-3.332-6.199-.985l-9.061 12.796-15.679-.21c-2.783-.157-4.617 3.402-2.854 5.591l9.371 12.572-5.044 14.846c-.992 2.635 1.802 5.426 4.436 4.441l14.853-5.027zm-22.939-13.262 3.354-9.874c.371-1.091.182-2.294-.507-3.218l-6.232-8.361 10.427.139c1.161.042 2.238-.537 2.903-1.477l6.026-8.511 3.09 9.96c.341 1.1 1.202 1.962 2.302 2.305l9.956 3.101-8.518 6.016c-.94.664-1.494 1.749-1.48 2.901l.127 10.428-8.354-6.242c-.613-.458-1.35-.696-2.095-.696-.377 0-.756.061-1.122.185z"/><path d="m409.359 329.099 8.238-15.747c1.382-2.45-.942-5.641-3.7-5.071l-17.509 3.039-12.432-12.701c-1.904-2.075-5.657-.843-5.966 1.952l-2.521 17.592-15.921 7.897c-2.56 1.167-2.551 5.12.013 6.277l15.952 7.833 2.591 17.582c.322 2.793 4.07 4.012 5.974 1.928l12.38-12.751 17.521 2.969c2.761.56 5.073-2.642 3.68-5.085zm-13.544 10.621c-1.14-.194-2.294.186-3.096 1.013l-8.722 8.983-1.825-12.387c-.168-1.14-.886-2.124-1.92-2.631l-11.238-5.518 11.217-5.564c1.031-.512 1.745-1.499 1.909-2.639l1.775-12.394 8.758 8.948c.806.823 1.966 1.198 3.1 1l12.335-2.141-5.804 11.093c-.533 1.021-.531 2.239.007 3.257l5.848 11.07z"/><path d="m456.057 271.094c2.361-1.531 1.772-5.439-.935-6.207l-12.932-4.127-3.932-12.993c-.727-2.719-4.623-3.364-6.191-1.029l-7.923 11.023-13.571-.277c-2.835-.179-4.615 3.372-2.893 5.571l8.036 10.941-4.457 12.822c-1.01 2.627 1.763 5.441 4.404 4.473l12.889-4.262 10.818 8.201c2.191 1.773 5.719.003 5.614-2.807l-.07-13.575zm-16.651 3.058c-.945.658-1.507 1.739-1.501 2.891l.043 8.323-6.633-5.028c-.919-.698-2.127-.894-3.213-.534l-7.902 2.613 2.732-7.861c.379-1.088.197-2.293-.484-3.221l-4.928-6.708 8.321.17c1.118.018 2.241-.522 2.913-1.457l4.857-6.759 2.411 7.967c.333 1.103 1.188 1.97 2.285 2.321l7.929 2.53z"/><path d="m215.449 211.93c1.249.844 2.901.792 4.098-.132l23.17-17.912 18.175.381c1.234.006 2.38-.595 3.035-1.635l8.947-14.215 17.213 1.787c1.371.138 2.694-.532 3.387-1.722l8.632-14.844 13.98 4.128c1.474.436 3.059-.141 3.907-1.42l11.343-17.086 15.779 5.45c1.682.581 3.536-.195 4.303-1.803l8.433-17.699 12.586 7.159c.987.561 2.185.609 3.214.127l7.455-3.488 1.931 10.592c.349 2.25 3.042 3.579 5.04 2.487l58.612-30.046c27.154-13.92 43.391-42.588 41.366-73.034-.69-19.456-23.712-31.839-40.598-22.156-18.996 10.894-76.649 42.398-76.649 42.398-1.314.727-2.018 2.212-1.749 3.69l1.505 8.253-141.417 70.306c-.885.44-1.543 1.235-1.811 2.186l-15.299 54.397c-.409 1.455.16 3.007 1.412 3.851zm237.397-178.956c12.57-7.206 29.167 2.038 30.224 16.496 3.978 54.396-53.621 74.397-91.993 94.236l-12.681-69.55c.001-.001 55.997-30.603 74.45-41.182zm-217.192 124.1 138.216-68.715 7.937 43.527-7.483 3.501-14.283-8.124c-1.697-1.014-4.078-.265-4.891 1.537l-8.706 18.272-15.383-5.313c-1.509-.52-3.176.044-4.058 1.372l-11.411 17.19-14.139-4.175c-1.545-.457-3.206.203-4.017 1.597l-8.876 15.265-17.127-1.778c-1.319-.132-2.613.49-3.323 1.617l-9.052 14.38-17.431-.365c-.805-.019-1.581.241-2.214.73l-15.771 12.192z"/><path d="m406.385 117.42c.445 1.917 2.628 3.114 4.481 2.46 36.106-9.438 55.395-42.29 44.891-67.04-.71-1.881-3.104-2.765-4.867-1.795l-51.759 27.031c-1.439.752-2.173 2.395-1.771 3.968zm43.945-58.185c5.729 22.47-11.524 44.459-38.102 52.773l-7.401-29.009z"/><path d="m507.801 302.726c-7.794.608-26.612 11.736-26.574 22.928h-18.631l19.673-98.698c.471-2.091-1.291-4.237-3.433-4.184h-425.323c-2.142-.053-3.904 2.093-3.433 4.184l14.753 74.017c-4.432-1.055-10.674-1.934-16.217-.495l-2.298-8.971c-.596-2.689-4.345-3.552-6.059-1.397l-14.929 17.59c-9.469 1.968-25.33 10.621-25.33 31.582 3.355 34.727 51.39 36.23 75.248 13.941l3.967 19.905c.326 1.637 1.764 2.816 3.433 2.816h17.06l-18.649 108.48c-.407 2.067 1.343 4.143 3.449 4.093h25.335c1.761 0 3.248-1.309 3.472-3.055l14.035-109.518h85.875l-18.65 108.48c-.407 2.068 1.343 4.144 3.449 4.093h25.335c1.761 0 3.248-1.309 3.472-3.055l14.035-109.518h25.298c.002 0 .005.001.008.001s.005-.001.007-.001h25.304l14.035 109.518c.224 1.747 1.711 3.055 3.472 3.055h25.335c2.107.051 3.856-2.026 3.449-4.093l-18.649-108.48h85.873l14.036 109.518c.224 1.747 1.711 3.055 3.472 3.055h25.335c2.107.05 3.856-2.026 3.449-4.093l-18.65-108.48h17.06c1.669 0 3.106-1.179 3.433-2.816l3.43-17.206h51.937c1.933 0 3.5-1.567 3.5-3.5v-46.266c0-4.19-4.199-3.43-4.199-3.43zm-235.695 66.218 10.755-19.466c.958-1.653.269-3.943-1.441-4.794l-17.62-9.217 22.153-14.673c2.191-1.357 2.016-4.881-.299-6.013l-20.751-10.952 18.915-16.005c1.726-1.387 1.608-4.28-.227-5.52l-21.328-15.234 17.237-17.841c1.05-1.087 1.283-2.725.579-4.063l-8.107-15.394h38.971v139.171h-38.837zm-50.702 0v-139.171h42.657l8.645 16.415-18.298 18.939c-1.476 1.46-1.235 4.113.483 5.28l20.972 14.979-19.439 16.447c-1.88 1.499-1.53 4.707.627 5.767l20.116 10.617-22.175 14.687c-2.196 1.359-2.014 4.893.311 6.02l19.699 10.304-10.894 19.717h-42.704zm-199.635-10.704c-9.248-3.83-14.769-10.917-14.769-18.958 0-9.531 3.951-15.48 8.403-19.166 3.26 1.382 10.733 5.666 10.935 15.962.033 1.72 1.316 3.161 3.021 3.399.237.033 22.617 3.343 24.668 18.401-12.377 4.696-24.131 3.729-32.258.362zm38.849-3.388c-1.655-7.311-6.855-13.307-15.285-17.531-4.688-2.349-9.343-3.623-12.202-4.252-1.06-8.421-5.931-13.919-10.715-17.11 4.608-2.055 5.073-.683 7.439-2.775l11.36-13.384 1.594 6.222c.494 2.168 3.173 3.321 5.086 2.194 5.164-2.86 13.893-1.026 18.466.426l7.298 36.616c-4.272 4.057-8.662 7.212-13.041 9.594zm20.284-9.069c-.001-.003-.001-.005-.002-.008l-23.121-116.002h156.625v139.171h-128.885zm25.861 135.734h-18.102l18.148-105.573h13.483zm113.515 0h-18.102l18.15-105.573h13.481zm91.791 0-13.53-105.573h13.483l18.148 105.573zm131.619 0h-18.102l-13.531-105.573h13.482zm3.141-112.573h-128.886v-139.171h156.626c-5.866 29.43-22.134 111.044-27.74 139.171zm58.171-20.022h-47.043l3.243-16.267h23.261c1.933 0 3.5-1.567 3.5-3.5 0-10.771 10.849-16.143 17.039-18.33z"/><path d="m68.005 133.823 44.931 8.77 33.1 31.625c1.891 1.916 5.42.785 5.854-1.86l8.77-44.931 31.625-33.1c1.914-1.881.788-5.423-1.859-5.853l-44.931-8.77-33.1-31.625c-1.881-1.913-5.423-.787-5.854 1.86l-8.77 44.931-31.625 33.1c-1.915 1.881-.789 5.423 1.859 5.853zm35.534-34.858c.463-.484.776-1.09.905-1.748l7.74-39.656 29.214 27.912c.484.462 1.091.776 1.747.904l39.656 7.74-27.912 29.214c-.463.484-.776 1.09-.905 1.747l-7.74 39.656-29.214-27.912c-.484-.462-1.091-.776-1.747-.904l-39.656-7.74z"/><path d="m242.765 66.882-1.687 26.043c-.258 2.671 2.883 4.66 5.188 3.289l22.837-12.631 26.044 1.686c2.654.252 4.668-2.878 3.288-5.187l-12.631-22.837 1.686-26.043c.257-2.67-2.881-4.661-5.188-3.289l-22.837 12.631-26.044-1.686c-2.648-.258-4.67 2.881-3.288 5.187zm17.271-19.286c.669.041 1.336-.106 1.921-.43l18.134-10.03-1.339 20.68c-.043.668.106 1.334.431 1.92l10.029 18.134-20.68-1.338c-.681-.045-1.336.105-1.921.43l-18.134 10.03 1.339-20.68c.043-.668-.106-1.335-.431-1.92l-10.029-18.134z"/><path d="m417.339 210.31c.967.844 2.322 1.084 3.512.643l16.264-6.015 16.938 3.71c2.603.657 5.041-2.148 4.031-4.633l-6.014-16.263 3.71-16.938c.657-2.602-2.149-5.041-4.633-4.032l-16.264 6.014-16.938-3.71c-2.6-.659-5.042 2.148-4.031 4.633l6.014 16.263-3.71 16.938c-.274 1.251.156 2.55 1.121 3.39zm17.048-30.456c.652.143 1.335.097 1.963-.136l11.223-4.15-2.561 11.688c-.143.654-.096 1.335.137 1.963l4.15 11.222-11.688-2.56c-.652-.143-1.334-.096-1.963.136l-11.223 4.15 2.561-11.688c.143-.654.096-1.335-.137-1.963l-4.149-11.223z"/></g></g></svg>