<?xml version="1.0" ?><!DOCTYPE svg  PUBLIC '-//W3C//DTD SVG 1.1//EN'  'http://www.w3.org/Graphics/SVG/1.1/DTD/svg11.dtd'><svg enable-background="new -273.609 -76.499 38.356 39.063" height="39.063px" id="Layer_1" version="1.1" viewBox="-273.609 -76.499 38.356 39.063" width="38.356px" xml:space="preserve" xmlns="http://www.w3.org/2000/svg" xmlns:xlink="http://www.w3.org/1999/xlink"><g><g><path d="M-253.11-39.821h-18.103c-0.714,0-1.369-0.455-1.522-1.06c-0.05-0.189-0.103-0.421-0.107-0.673    c-0.075-2.075-0.138-4.16-0.201-6.245c-0.128-4.282-0.261-8.71-0.513-13.054c-0.24-4.162,0.168-8.849,5.009-12.045    c0.665-0.439,1.194-1.174,1.619-1.765c0.398-0.556,1.091-0.922,1.702-0.946l20.832-0.89c0.779-0.042,1.444,0.577,1.479,1.354    l0.885,20.21c0.019,0.414-0.303,0.765-0.717,0.782c-0.427,0.031-0.764-0.304-0.781-0.717l-0.882-20.129l-20.752,0.886    c-0.155,0.007-0.422,0.149-0.489,0.245c-0.529,0.733-1.174,1.629-2.067,2.22c-3.391,2.238-4.647,5.341-4.339,10.707    c0.253,4.363,0.386,8.803,0.515,13.095c0.063,2.082,0.125,4.164,0.201,6.245c0.002,0.081,0.02,0.171,0.039,0.256    c0.024,0.011,0.058,0.021,0.093,0.021h18.103c0.414,0,0.75,0.336,0.75,0.75C-252.358-40.158-252.696-39.821-253.11-39.821z"/></g><g><path d="M-246.618-37.437c-1.705,0-3.433-0.421-4.947-1.486c-3.335-2.346-6.357-10.248-4.551-13.97    c1.569-3.231,3.203-3.474,6.504-2.81c1.826,0.367,3.77,0.469,5.647,0.564c0.861,0.044,1.723,0.088,2.58,0.156    c0.098,0.008,0.19,0.033,0.273,0.075c0.06-0.028,0.124-0.052,0.191-0.063c2.896-0.557,4.136,1.51,4.819,3.111    c1.832,4.283,0.666,8.606-3.197,11.859C-240.891-38.654-243.72-37.437-246.618-37.437z M-251.996-54.504    c-1.375,0-1.973,0.622-2.771,2.268c-1.374,2.828,1.019,9.945,4.063,12.088c3.295,2.314,8.181,0.909,10.438-0.995    c3.373-2.839,4.361-6.436,2.784-10.124c-0.805-1.884-1.689-2.507-3.158-2.229c-0.167,0.033-0.332,0.006-0.475-0.063    c-0.117,0.058-0.257,0.081-0.393,0.076c-0.843-0.067-1.69-0.111-2.538-0.154c-1.933-0.1-3.931-0.203-5.867-0.592    C-250.771-54.404-251.446-54.504-251.996-54.504z"/></g><g><path d="M-268.437-61.146c-0.387,0-0.713-0.296-0.747-0.688c-0.035-0.413,0.271-0.775,0.685-0.811    c0.408-0.035,0.816-0.075,1.226-0.115c0.918-0.092,1.867-0.186,2.816-0.21c3.717-0.097,7.436-0.171,11.154-0.246l4.843-0.1    c0.416-0.02,0.757,0.318,0.767,0.733c0.009,0.414-0.32,0.757-0.734,0.767l-4.845,0.1c-3.717,0.074-7.432,0.149-11.146,0.246    c-0.895,0.021-1.815,0.114-2.708,0.202c-0.416,0.041-0.831,0.082-1.247,0.117C-268.395-61.146-268.416-61.146-268.437-61.146z"/></g><g><path d="M-247.112-66.811h-14.66c-0.414,0-0.75-0.336-0.75-0.75s0.336-0.75,0.75-0.75h14.66c0.413,0,0.75,0.336,0.75,0.75    S-246.698-66.811-247.112-66.811z"/></g><g><path d="M-264.731-66.048c-0.028,0-0.058-0.001-0.085-0.002l-6.998-0.429c-0.414-0.025-0.729-0.382-0.703-0.795    c0.024-0.413,0.372-0.732,0.794-0.703l6.868,0.421v-6.669c0-0.414,0.336-0.75,0.75-0.75s0.75,0.336,0.75,0.75v6.801    c0,0.387-0.153,0.743-0.432,1.005C-264.038-66.181-264.379-66.048-264.731-66.048z"/></g><g><path d="M-269.103-54.814c-0.395,0-0.726-0.309-0.748-0.706c-0.024-0.413,0.291-0.77,0.705-0.793l11.328-0.667    c0.425-0.036,0.769,0.292,0.792,0.705c0.023,0.414-0.292,0.769-0.705,0.793l-11.328,0.667    C-269.073-54.814-269.088-54.814-269.103-54.814z"/></g><g><path d="M-267.771-50.817c-0.392,0-0.722-0.305-0.748-0.7c-0.027-0.413,0.286-0.771,0.699-0.798l9.995-0.665    c0.403-0.024,0.771,0.284,0.799,0.697c0.026,0.413-0.286,0.771-0.699,0.799l-9.996,0.665    C-267.737-50.818-267.754-50.817-267.771-50.817z"/></g><g><path d="M-245.78-39.821c-0.328,0-0.629-0.217-0.723-0.548c-0.112-0.397,0.121-0.813,0.52-0.925    c3.713-1.044,4.989-4.176,6.343-7.491l0.165-0.401c0.156-0.383,0.593-0.568,0.978-0.41c0.383,0.157,0.567,0.596,0.41,0.979    l-0.164,0.4c-1.429,3.504-2.906,7.126-7.325,8.368C-245.645-39.83-245.713-39.821-245.78-39.821z"/></g><g><path d="M-268.437-58.147c-0.403,0-0.736-0.32-0.749-0.728c-0.014-0.414,0.312-0.76,0.726-0.772l10.662-0.333    c0.403,0,0.76,0.313,0.773,0.727c0.013,0.414-0.313,0.76-0.727,0.773l-10.662,0.333C-268.42-58.147-268.429-58.147-268.437-58.147    z"/></g><g><path d="M-246.111-53.482c-0.038,0-0.077-0.003-0.115-0.01c-0.409-0.063-0.69-0.445-0.627-0.854    c0.304-1.979-0.89-2.748-2.861-3.843l-0.094-0.054c-0.362-0.2-0.493-0.656-0.292-1.02c0.202-0.363,0.658-0.494,1.02-0.291    l0.094,0.052c1.823,1.012,4.095,2.272,3.615,5.383C-245.428-53.748-245.747-53.482-246.111-53.482z"/></g></g></svg>