<?xml version="1.0" ?><!DOCTYPE svg  PUBLIC '-//W3C//DTD SVG 1.1//EN'  'http://www.w3.org/Graphics/SVG/1.1/DTD/svg11.dtd'><svg enable-background="new -337.972 -77.71 40.152 41.483" height="41.483px" id="Layer_1" version="1.1" viewBox="-337.972 -77.71 40.152 41.483" width="40.152px" xml:space="preserve" xmlns="http://www.w3.org/2000/svg" xmlns:xlink="http://www.w3.org/1999/xlink"><g><g><path d="M-330.223-49.889c-0.246,0-0.488-0.121-0.631-0.344c-2.004-3.111-0.042-5.543,1.39-7.319l0.391-0.488    c2.828-3.595,3.92-7.143,3.436-11.167c-0.049-0.411,0.244-0.785,0.655-0.834c0.418-0.057,0.784,0.243,0.834,0.654    c0.527,4.385-0.697,8.399-3.745,12.274l-0.402,0.503c-1.639,2.031-2.615,3.518-1.297,5.563c0.225,0.349,0.124,0.813-0.224,1.037    C-329.943-49.927-330.083-49.889-330.223-49.889z"/></g><g><path d="M-318.562-36.227c-0.396,0-0.727-0.31-0.749-0.707l-0.433-7.674c-0.038-0.646,0.34-1.359,0.896-1.694l9.903-5.991    c0.323-0.197,0.675-0.275,0.994-0.242l0.213-0.843c0.035-0.146-0.021-0.464-0.104-0.583c-0.426-0.611-0.865-1.194-1.294-1.764    c-1.258-1.67-2.446-3.246-2.985-5.08c-0.559-1.904-0.429-3.972-0.303-5.972c0.053-0.835,0.107-1.699,0.107-2.521    c0-0.414,0.336-0.75,0.75-0.75s0.75,0.336,0.75,0.75c0,0.869-0.057,1.757-0.11,2.615c-0.123,1.956-0.239,3.803,0.246,5.455    c0.461,1.57,1.57,3.042,2.744,4.6c0.439,0.584,0.891,1.183,1.326,1.808c0.332,0.473,0.471,1.231,0.329,1.805l-0.315,1.267    c-0.181,0.737-0.646,0.9-0.837,0.938c-0.258,0.047-0.517-0.022-0.723-0.188l-9.916,5.982c-0.076,0.047-0.178,0.236-0.173,0.324    l0.433,7.674c0.022,0.414-0.293,0.769-0.707,0.792C-318.533-36.227-318.547-36.227-318.562-36.227z"/></g><g><path d="M-312.897-49.555h-12.662c-0.414,0-0.75-0.336-0.75-0.75s0.336-0.75,0.75-0.75h12.662c0.414,0,0.75,0.336,0.75,0.75    S-312.483-49.555-312.897-49.555z"/></g><g><path d="M-308.232-38.893c-0.041,0-0.083-0.003-0.125-0.011c-0.408-0.068-0.685-0.454-0.616-0.863    c0.036-0.212,0.076-0.424,0.116-0.636c0.086-0.451,0.167-0.878,0.199-1.3c0.186-2.368,0.352-4.739,0.519-7.11l0.156-2.211    c0.028-0.413,0.395-0.71,0.801-0.695c0.413,0.029,0.724,0.388,0.695,0.801l-0.156,2.21c-0.167,2.376-0.333,4.751-0.52,7.124    c-0.04,0.504-0.132,0.991-0.222,1.462c-0.039,0.201-0.077,0.402-0.11,0.604C-307.555-39.152-307.872-38.893-308.232-38.893z"/></g><g><path d="M-326.893-38.559c-0.269,0-0.526-0.145-0.662-0.396c-1.903-3.554-3.707-7.398-3.058-11.883    c0.055-0.38,0.267-0.718,0.583-0.928c0.32-0.215,0.725-0.278,1.104-0.184l1.465,0.379c0.449,0.115,1.068,0.423,1.441,0.713    l7.586,5.961c0.326,0.256,0.382,0.728,0.126,1.053c-0.256,0.326-0.728,0.382-1.053,0.127l-7.584-5.959    c-0.211-0.165-0.639-0.376-0.893-0.441l-1.315-0.34c-0.517,3.966,1.085,7.37,2.918,10.795c0.195,0.364,0.058,0.819-0.308,1.016    C-326.652-38.587-326.773-38.559-326.893-38.559z"/></g><g><path d="M-303.235-59.551c-0.154,0-0.31-0.047-0.443-0.145l-5.23-3.832c-0.32-0.236-0.52-0.591-0.548-0.972    c-0.027-0.379,0.116-0.756,0.396-1.033l4.294-4.296c0.293-0.293,0.768-0.293,1.061,0s0.293,0.769,0,1.062l-4.15,4.15l5.063,3.709    c0.334,0.245,0.406,0.716,0.162,1.05C-302.777-59.657-303.004-59.551-303.235-59.551z"/></g><g><path d="M-331.889-59.551c-0.184,0-0.365-0.066-0.509-0.199c-0.305-0.282-0.322-0.756-0.041-1.061l3.49-3.77l-4.161-4.548    c-0.279-0.307-0.256-0.781,0.051-1.06c0.307-0.276,0.781-0.256,1.059,0.052l4.16,4.578c0.511,0.562,0.508,1.438-0.008,1.996    l-3.491,3.77C-331.487-59.632-331.688-59.551-331.889-59.551z"/></g><g><path d="M-324.481-68.932c-0.5,0-1.102-0.162-1.504-0.416c-2.272-1.438-4.813-3.613-4.316-7.703    c0.05-0.411,0.422-0.704,0.835-0.653c0.411,0.051,0.704,0.424,0.654,0.835c-0.313,2.574,0.771,4.444,3.627,6.253    c0.172,0.108,0.563,0.203,0.756,0.184c2.656-0.283,4.585-1.457,5.896-3.587c0.218-0.354,0.681-0.462,1.032-0.246    c0.354,0.217,0.463,0.679,0.246,1.031c-1.548,2.518-3.909,3.962-7.016,4.294C-324.339-68.935-324.409-68.932-324.481-68.932z"/></g><g><path d="M-312.205-68.673c-0.327,0-0.653-0.084-0.923-0.254l-4.837-3.069c-0.35-0.222-0.453-0.685-0.23-1.033    c0.222-0.352,0.687-0.453,1.034-0.231l4.836,3.068c0.052,0.03,0.202,0.029,0.255-0.006c3.067-2.283,4.001-4.072,3.439-6.599    c-0.09-0.405,0.165-0.806,0.569-0.896c0.406-0.086,0.805,0.165,0.895,0.568c0.862,3.879-1.417,6.199-4.009,8.129    C-311.462-68.781-311.833-68.673-312.205-68.673z"/></g><g><path d="M-298.57-63.55c-0.012,0-0.023,0-0.034-0.001l-7.33-0.332c-0.414-0.019-0.734-0.369-0.715-0.783    c0.018-0.414,0.362-0.762,0.782-0.715l7.33,0.332c0.414,0.019,0.734,0.369,0.716,0.783C-297.84-63.863-298.171-63.55-298.57-63.55    z"/></g><g><path d="M-337.222-63.55c-0.399,0-0.73-0.313-0.749-0.716c-0.02-0.414,0.301-0.766,0.715-0.783l7.33-0.332    c0.402-0.047,0.764,0.301,0.783,0.715c0.019,0.414-0.301,0.766-0.715,0.783l-7.33,0.332    C-337.199-63.55-337.21-63.55-337.222-63.55z"/></g></g></svg>