<?xml version="1.0" ?><!DOCTYPE svg  PUBLIC '-//W3C//DTD SVG 1.1//EN'  'http://www.w3.org/Graphics/SVG/1.1/DTD/svg11.dtd'><svg enable-background="new -334.89 -147.242 33.991 38.083" height="38.083px" id="Layer_1" version="1.1" viewBox="-334.89 -147.242 33.991 38.083" width="33.991px" xml:space="preserve" xmlns="http://www.w3.org/2000/svg" xmlns:xlink="http://www.w3.org/1999/xlink"><g><g><path d="M-321.477-109.159h-11.717c-0.731,0-1.394-0.536-1.541-1.25c-0.095-0.447-0.139-0.817-0.14-1.164    c-0.025-9.825-0.021-17.769,0.015-24.995c0.003-0.56,0.251-1.047,0.471-1.478c0.079-0.155,0.159-0.31,0.222-0.465    c0.06-0.146,0.158-0.264,0.28-0.345c0-0.015-0.001-0.028-0.001-0.042c0-0.414,0.336-0.75,0.75-0.75h11.661    c0.781,0,1.417,0.635,1.417,1.416v27.654C-320.061-109.795-320.696-109.159-321.477-109.159z M-332.726-138.147    c-0.007,0.064-0.024,0.131-0.05,0.194c-0.078,0.196-0.178,0.393-0.277,0.587c-0.15,0.296-0.306,0.602-0.307,0.804    c-0.036,7.222-0.04,15.162-0.015,24.983c0.001,0.316,0.063,0.645,0.107,0.861l11.706,0.057v-27.487L-332.726-138.147    L-332.726-138.147z"/></g><g><path d="M-302.318-109.325h-12.495c-0.778,0-1.415-0.634-1.418-1.411l-0.018-1.49c-0.024-1.861-0.048-3.618,0.099-5.4    c0.063-0.77,0.674-1.352,1.213-1.865c0.193-0.186,0.391-0.369,0.548-0.559c0.187-0.224,0.476-0.313,0.743-0.251    c0.1-0.024,0.207-0.025,0.313-0.004c0.355,0.071,0.711,0.157,1.066,0.244c0.747,0.182,1.453,0.354,2.145,0.377    c1.964,0.065,3.909,0.055,5.968,0.041l1.835-0.01c0.001,0,0.002,0,0.004,0c0.377,0,0.731,0.146,0.999,0.412    c0.268,0.268,0.416,0.623,0.416,1.002v7.497C-300.901-109.961-301.537-109.325-302.318-109.325z M-314.732-110.825h12.331v-7.328    l-1.744,0.01c-2.073,0.013-4.033,0.023-6.027-0.041c-0.847-0.029-1.661-0.229-2.449-0.42c-0.291-0.07-0.581-0.143-0.872-0.203    c-0.13,0.135-0.27,0.269-0.408,0.4c-0.293,0.279-0.736,0.702-0.753,0.902c-0.142,1.711-0.117,3.435-0.094,5.257L-314.732-110.825z    "/></g><g><path d="M-305.483-130.483c-0.414,0-0.75-0.336-0.75-0.75v-14.396c-2.155-0.387-3.291,0.818-4.491,2.093    c-0.249,0.265-0.491,0.521-0.735,0.758c-0.143,0.138-0.271,0.433-0.271,0.566v10.979c0,0.414-0.336,0.75-0.75,0.75    s-0.75-0.336-0.75-0.75v-10.979c0-0.555,0.3-1.231,0.729-1.646c0.229-0.221,0.454-0.46,0.687-0.706    c1.279-1.359,2.868-3.05,5.793-2.607c0.724,0.111,1.29,0.789,1.29,1.542v14.396C-304.733-130.819-305.069-130.483-305.483-130.483    z"/></g><g><path d="M-304.149-118.49c-0.022,0-0.044-0.001-0.066-0.003c-0.413-0.035-0.718-0.398-0.682-0.813l0.929-10.68h-9.094v10.078    c0,0.414-0.336,0.75-0.75,0.75s-0.75-0.336-0.75-0.75v-10.161c0-0.781,0.635-1.417,1.416-1.417h9.331    c0.385,0,0.752,0.159,1.007,0.438s0.382,0.657,0.349,1.04l-0.941,10.833C-303.437-118.784-303.765-118.49-304.149-118.49z"/></g><g><path d="M-310.074-139.265c-0.3,0-0.597-0.062-0.848-0.186l-1.559-0.773c-0.371-0.185-0.522-0.634-0.337-1.005    c0.185-0.371,0.635-0.523,1.005-0.337l1.558,0.772c0.094,0.047,0.337,0.036,0.43-0.021l3.279-2.05    c0.351-0.221,0.813-0.112,1.033,0.238c0.22,0.352,0.113,0.814-0.238,1.033l-3.278,2.05    C-309.326-139.359-309.702-139.265-310.074-139.265z"/></g></g></svg>