<?xml version="1.0" encoding="iso-8859-1"?>
<!-- Generator: Adobe Illustrator 16.0.0, SVG Export Plug-In . SVG Version: 6.00 Build 0)  -->
<!DOCTYPE svg PUBLIC "-//W3C//DTD SVG 1.1//EN" "http://www.w3.org/Graphics/SVG/1.1/DTD/svg11.dtd">
<svg version="1.1" id="Capa_1" xmlns="http://www.w3.org/2000/svg" xmlns:xlink="http://www.w3.org/1999/xlink" x="0px" y="0px"
	 width="193.971px" height="193.971px" viewBox="0 0 193.971 193.971" style="enable-background:new 0 0 193.971 193.971;"
	 xml:space="preserve">
<g>
	<path d="M123.751,179.389c-0.431-1.166-1.876-1.366-2.593-0.653c-4.664-3.267-3.008-29.851-3.213-34.557
		c-0.613-14.025-0.538-27.504-2.062-41.443c4.577,0.397,6.616-1.627,6.939-6.656c0.277-4.319-0.664-8.67-0.522-13.011
		c0.214-6.555,0.199-13.055-0.366-19.592c-0.078-0.897-0.708-1.71-1.687-1.686c-1.942,0.048-2.282,0.076-3.963,0.493
		c-0.278-3.413-0.944-7.058-2.425-10.053c-1.739-3.519-4.683-5.21-7.358-7.704c0.546-2.355,0.311-4.926,0.238-7.317
		c-0.09-2.957,0.291-5.773-0.195-8.74c-0.87-5.31-2.9-10.182-7.971-12.48c0.577-2.121,0.028-4.125-0.1-6.361
		c-0.132-2.286-0.886-4.719-1.634-6.863c-0.118-0.337-0.567-0.195-0.521,0.144c0.347,2.568,0.532,5.121,0.765,7.699
		c0.165,1.825-0.317,3.49-0.145,5.281c-0.766,0.507-1.096,1.773-0.336,2.479c3.769,3.502,5.799,7.326,6.849,12.366
		c0.918,4.407,0.036,8.729,0.387,13.008c-0.178,0.241-0.29,0.525-0.186,0.86c0.069,0.225,0.209,0.393,0.298,0.602
		c0.006,0.038,0.002,0.076,0.009,0.114c0.035,0.209,0.163,0.318,0.271,0.451c1.187,2.229,3.342,3.662,5.186,5.443
		c3.419,3.3,3.284,8.809,4.346,13.074c0.259,1.036,1.482,1.156,2.172,0.622c0.16,0.073,0.282,0.198,0.483,0.205
		c0.732,0.035,1.465,0.023,2.198,0.029c0.373,6.883,0.314,13.761,0.121,20.652c-0.116,4.137,3.538,14.597-3.446,14.204
		c-0.424-0.024-0.746,0.168-0.972,0.446c-0.084,0.062-0.122,0.17-0.183,0.268c-0.01,0.021-0.02,0.04-0.028,0.061
		c-0.061,0.114-0.152,0.194-0.168,0.351c-2.705,26.141,5.176,53.005,0.116,79.048c-0.312,1.606,0.906,2.645,2.438,2.437l4.525-0.613
		c0.506,3.022,1.285,7.223-1.896,7.323c-6.123,0.195-12.253-0.256-18.373-0.381c-8.39-0.172-27.188,3.682-29.968-7.159
		c2.013-0.002,4.189,0.69,6.025-0.197c0.049-0.023,0.067-0.074,0.108-0.105c0.471,0.18,1.044,0.069,1.147-0.537
		c4.244-25.032-0.437-55.312-1.832-80.716c-0.038-0.688-0.558-1.31-1.291-1.291c-3.84,0.101-1.072-32.64,0.451-32.691
		c0.55-0.018,0.983-0.279,1.298-0.644c0.163-0.096,0.323-0.205,0.415-0.386c1.595-3.127,2.712-6.419,4.522-9.461
		c1.552-2.608,5.156-5.258,5.617-8.257c0.142-0.923-0.253-1.607-0.909-1.95c1.136-2.759,1.29-5.85,1.502-8.845
		c0.489-6.92,1.871-12.035,4.649-18.345c0.174-0.395,0.12-0.76-0.017-1.084c0.014-0.035,0.052-0.042,0.063-0.079
		c0.829-2.783,1.125-5.715,1.543-8.583c0.199-1.362,0.543-2.678,1.012-3.97c0.434-1.194,1.279-2.305,1.163-3.602
		c-0.053-0.597-0.427-0.963-1.021-1.021c-2.824-0.275-4.133,3.746-4.664,5.885c-0.886,3.568-0.574,7.283-0.805,10.915
		c-0.017,0.268,0.115,0.437,0.215,0.628c-6.028,6.189-6.956,19.4-5.181,27.956c-3.229,0.711-5.529,5.527-6.963,8.133
		c-1.449,2.631-2.81,5.76-3.007,8.865c-0.669-0.118-1.337-0.237-2.006-0.355c-1.493-0.265-2.628,0.61-2.774,2.113
		c-1.159,11.997-0.747,24.453-0.797,36.52c-0.005,1.123,1.042,1.78,2.07,1.577c1.079-0.213,4.616,65.783,4.952,77.403
		c-1.882-0.678-4.251-0.208-6.061,0.459c-0.262,0.098-0.405,0.305-0.491,0.533c-0.146,0.07-0.272,0.174-0.315,0.343
		c-0.626,2.42-2.632,7.642,0.087,9.636c6.337,4.646,20.12,2.218,27.543,2.078c7.915-0.149,19.308,3.062,26.651-0.202
		C128.063,190.551,124.679,181.9,123.751,179.389z"/>
	<path d="M100.634,63.974c-1.172-0.141-1.324,1.469-0.545,2.014c2.856,1.997,5.624,3.251,7.667,6.261
		c3.4,5.008,3.798,11.829,1.495,17.258c-3.503,8.26-12.943,12.74-21.143,8.78c-6.315-3.051-8.058-11.489-7.727-17.739
		c0.513-9.67,8.42-11.644,15.146-15.885c0.724,0.02,1.447,0.018,2.176,0.091c0.174,0.017,0.196-0.248,0.04-0.295
		c-0.445-0.132-0.884-0.243-1.325-0.353c0.072-0.048,0.149-0.088,0.22-0.137c0.39-0.268,0.372-0.911-0.136-1.042
		c-10.025-2.593-18.18,8.369-19.472,17.168c-1.457,9.916,3.747,20.079,13.26,23.442c9.562,3.38,20.342-5.852,23.418-14.245
		C117.665,78.497,112.723,65.429,100.634,63.974z"/>
	<path d="M100.466,75.707c-1.501,1.197-2.944,2.804-4.042,4.507c-2.764-1.98-5.34-4.251-8.201-6.055
		c-0.366-0.231-0.776,0.218-0.575,0.575c1.954,3.476,5.573,5.757,7.802,9.051c0.608,0.899,2.068,1.329,2.871,0.37
		c1.681-2.006,3.848-3.877,5.022-6.229C104.312,75.986,102.074,74.424,100.466,75.707z"/>
</g>
<g>
</g>
<g>
</g>
<g>
</g>
<g>
</g>
<g>
</g>
<g>
</g>
<g>
</g>
<g>
</g>
<g>
</g>
<g>
</g>
<g>
</g>
<g>
</g>
<g>
</g>
<g>
</g>
<g>
</g>
</svg>
