<?xml version="1.0" encoding="iso-8859-1"?>
<!-- Generator: Adobe Illustrator 16.0.0, SVG Export Plug-In . SVG Version: 6.00 Build 0)  -->
<!DOCTYPE svg PUBLIC "-//W3C//DTD SVG 1.1//EN" "http://www.w3.org/Graphics/SVG/1.1/DTD/svg11.dtd">
<svg version="1.1" id="Capa_1" xmlns="http://www.w3.org/2000/svg" xmlns:xlink="http://www.w3.org/1999/xlink" x="0px" y="0px"
	 width="190.164px" height="190.164px" viewBox="0 0 190.164 190.164" style="enable-background:new 0 0 190.164 190.164;"
	 xml:space="preserve">
<g>
	<path d="M188.552,132.041c1.9-10.292,0.198-21.006,0.665-31.479c0.668-14.953,1.692-29.431,0.108-44.369
		c-0.198-1.866-2.272-2.431-3.447-1.696c-34.739-15.118-71.776-16.324-109.107-18.6c-20.839-1.27-40.325,4.121-59.707,11.295
		c-6.89,2.551-13.709,4.847-16.11,10.662C0.817,57.98,0.722,58.15,0.72,58.376c-0.001,0.065-0.002,0.13-0.003,0.194
		c-0.493,1.471-0.805,3.086-0.694,5.044c0.03,0.526,0.268,0.954,0.605,1.27c-0.326,23.121-0.848,46.358,0.53,69.442
		c0.088,1.471,1.399,2.096,2.523,1.933c14.331,20.948,58.388,17.378,79.637,17.802c31.74,0.632,79.115,2.923,105.633-18.423
		C190.402,134.47,189.787,132.833,188.552,132.041z M185.578,132.082c-0.04,0.028-0.083,0.032-0.122,0.063
		c-24.503,19.48-65.037,17.302-94.474,17.42c-23.863,0.096-68.769,4.11-85.749-16.098c-0.832-12.734-1.515-25.442-1.749-38.205
		C3.299,85.119,4.659,74.867,3.421,64.838c0.142-0.194,0.253-0.428,0.311-0.72c2.639-13.317,32.842-18.847,43.625-21.46
		c16.763-4.062,33.523-2.659,50.486-1.614c30.094,1.855,59.485,5.674,87.382,17.579c0.878,12.1,0.496,24.225-0.051,36.339
		C184.628,107.081,181.697,120.402,185.578,132.082z"/>
	<path d="M121.304,45.515c-29.058-5.675-72.947-6.278-99,9.567c-0.371,0.226-0.564,0.533-0.658,0.857
		c-1.007,0.343-1.824,1.7-1.076,2.687c4.995,6.589,13.294,7.212,21.013,8.555c20.194,3.511,41.46,4.242,61.911,4.313
		c18.349,0.064,36.937-3.007,55.085-5.438c4.202-0.563,7.007-1.754,7.02-6.011C165.627,49.652,127.99,46.821,121.304,45.515z
		 M141.864,63.808c-12.852,1.678-25.422,3.002-38.371,3.229c-13.245,0.233-26.556-1.124-39.738-2.231
		c-5.193-0.436-39.204-7.119-39.094-7.25c0.074-0.088,0.073-0.203,0.121-0.302c21.171-11.827,52.453-11.143,76.19-10.331
		c14.753,0.505,36.808,5.065,51.428,9.75C167.585,61.54,146.484,63.205,141.864,63.808z"/>
	<path d="M15.811,115.557c-9.638-2.392-8.246,14.116-5.855,18.862c0.372,0.737,1.11,0.599,1.556,0.14
		c1.735,1.306,3.872,2.488,5.99,2.885c0.048,0.284,0.064,0.573,0.132,0.854c0.466,1.947,3.741,1.566,3.539-0.479
		C20.611,132.119,23.584,117.485,15.811,115.557z M16.179,134.273c-1.504-0.402-3.003-0.949-4.428-1.61
		c-0.405-2.693-0.655-5.433-0.487-8.148c0.106-1.711,0.501-3.729,1.647-5.062c1.473-1.712,3.315-0.383,3.938,1.175
		c1.781,4.46,0.429,9.271,0.416,13.902C16.901,134.45,16.538,134.369,16.179,134.273z"/>
	<path d="M43.288,129.166c-0.545-3.569-1.71-8.543-5.924-9.288c-8.962-1.585-9.629,14.069-6.73,19.685
		c0.012,0.43,0.148,0.862,0.532,1.107c1.277,0.817,2.926,1.081,4.384,1.421c1.82,0.425,3.997,1.117,5.864,0.893
		c0.465-0.056,0.791-0.268,1.029-0.537c0.475-0.156,0.908-0.459,1.117-1.1C44.699,137.843,43.834,132.751,43.288,129.166z
		 M32.714,138.452c-0.402-2.746-0.046-5.862,0.336-8.521c0.226-1.572,1.799-8.174,4.465-5.534c2.003,1.981,1.924,6.6,2.073,9.167
		c0.109,1.872-0.172,4.087,0.108,6.048c-1.121-0.165-2.283-0.233-3.35-0.412C35.129,138.996,33.929,138.665,32.714,138.452z"/>
	<path d="M68.882,130.232c-0.806-3.388-2.44-8.185-6.423-8.811c-4.612-0.725-7.208,3.931-8.418,7.594
		c-1.174,3.556-2.513,11.77,1.408,14.174c0.197,0.121,0.404,0.169,0.605,0.162c1.391,0.822,3.666,0.654,5.032,0.645
		c1.797-0.013,3.594-0.146,5.389-0.223c0.13-0.006,0.255-0.011,0.383-0.016c1.037,0.949,3.199,0.043,3.406-1.572
		C70.749,138.393,69.754,133.898,68.882,130.232z M58.546,141.13c-0.423,0.007-0.881-0.038-1.336-0.062
		c0.037-3.144-0.167-6.073,0.528-9.285c0.343-1.584,2.324-8.747,5.072-6.037c2.07,2.042,2.471,6.335,2.833,9.044
		c0.244,1.828,0.334,3.672,0.468,5.509c-1.07,0.125-2.148,0.381-2.969,0.48C61.617,140.965,60.086,141.109,58.546,141.13z"/>
	<path d="M93.239,120.745c-12.108-1.376-9.985,14.938-9.311,22.45c-0.164,0.347-0.101,0.72,0.236,0.947
		c0.369,0.831,1.341,1.037,1.974,0.436c1.945,0.314,3.866,0.468,5.894,0.45c1.857-0.017,3.904,0.337,5.704-0.121
		c1.142,0.069,2.358-0.624,2.419-2.109C100.404,136.672,102.351,121.781,93.239,120.745z M93.648,141.34
		c-2.25,0.305-4.494,0.696-6.745,1.008c0.773-5.774-1.09-17.042,5.699-17.31c4.329-0.171,3.53,11.107,3.223,16.017
		C95.124,141.121,94.408,141.238,93.648,141.34z"/>
	<path d="M134.412,142.521c-0.074-0.757-0.178-1.507-0.222-2.177c-0.2-3.047-0.494-6.079-0.986-9.093
		c-0.626-3.834-2.371-10.023-7.055-10.547c-5.368-0.6-7.307,5.294-8.168,9.504c-0.789,3.859-1.477,11.058,1.204,14.639
		c-0.121,0.249,0.101,0.566,0.413,0.557c0.036,0.037,0.057,0.091,0.094,0.127c0.632,0.624,1.354,0.425,1.811-0.076
		c0.527,0.071,1.057,0.159,1.557,0.175c1.243,0.04,2.506-0.09,3.755-0.062c1.426,0.033,2.945,0.243,4.411,0.209
		c0.089,0.131,0.16,0.282,0.265,0.395c0.695,0.751,2.077,0.579,2.557-0.328c0.134-0.254,0.182-0.543,0.25-0.823
		C135.104,144.437,135.128,143.187,134.412,142.521z M126.814,141.971c-1.399,0.166-2.779,0.412-4.153,0.723
		c-0.305,0.069-0.582,0.188-0.847,0.326c-0.435-3.447-0.588-6.864-0.229-10.356c0.208-2.023,2.212-12.229,5.76-7.386
		c2.256,3.08,2.414,8.141,2.758,11.78c0.112,1.198,0.021,2.897,0.094,4.557C129.046,141.673,127.887,141.843,126.814,141.971z"/>
	<path d="M157.032,135.494c-0.215-2.547-0.573-5.097-1.074-7.603c-0.717-3.595-2.319-8.655-6.555-9.277
		c-10.604-1.558-9.779,18.307-5.259,23.418c0.301,0.341,0.671,0.343,0.998,0.212c0.042,0.021,0.051,0.062,0.098,0.078
		c1.51,0.565,3.034,0.298,4.591,0.062c1.644-0.247,3.679-0.449,5.103-1.354c0.722,0.178,1.504-0.19,1.912-0.803
		C157.719,138.918,157.155,136.952,157.032,135.494z M145.721,140.225c-0.65-3.386-0.995-6.824-0.905-10.276
		c0.047-1.794,1.884-11.06,5.264-6.679c2.05,2.656,2.191,7.038,2.484,10.229c0.12,1.312,0.091,3.116,0.431,4.692
		C150.605,138.257,148.002,139.876,145.721,140.225z"/>
	<path d="M178.737,121.756c-0.946-2.936-2.775-8.545-6.622-8.686c-4.605-0.168-6.299,5.284-6.755,8.888
		c-0.379,3.001-0.562,9.265,1.619,12.592c-0.372,0.992,0.175,2.379,1.455,2.277c1.963-0.155,3.865-0.543,5.771-1.03
		c1-0.256,2.083-0.547,3.139-0.903c1.055,1.192,3.345,0.805,3.696-0.853C181.837,130.289,179.872,125.275,178.737,121.756z
		 M169.742,133.119c-0.331-2.837-0.939-5.649-0.896-8.562c0.015-1.012,1.133-9.778,3.643-7.39c2.133,2.03,2.533,6.397,3.02,9.124
		c0.261,1.457,0.338,3.066,0.538,4.632C173.921,131.4,171.813,132.408,169.742,133.119z"/>
	<path d="M178.377,94.037c-0.352-2.922-1.057-8.2-4.527-9.18c-4.534-1.28-7.904,3.357-9.165,7.046
		c-1.75,5.12-1.222,12.03,1.428,16.736c0.456,0.81,1.238,0.853,1.832,0.498c2.51,0.297,5.854,0.179,8.322-0.999
		c1.168,0.416,2.707-0.164,2.626-1.745C178.683,102.265,178.874,98.156,178.377,94.037z M168.53,106.2
		c-0.535-3.754-0.805-7.585-0.145-11.335c0.273-1.554,3.161-8.778,5.251-5.446c2.488,3.969,1.495,10.401,1.369,15.297
		c-0.761,0.241-1.512,0.522-2.295,0.754C171.362,105.867,169.941,106.089,168.53,106.2z"/>
	<path d="M170.158,71.258c-0.753,0.166-0.893,1.291-0.215,1.647c1.477,0.775,4.447,3.101,2.554,4.973
		c-0.951,0.94-2.595,0.464-3.255-0.511c-0.819-1.21-0.643-2.589,0.36-3.635c0.513-0.535-0.001-1.379-0.707-1.215
		c-2.847,0.664-3.918,3.209-3.188,5.921c0.876,3.25,4.826,4.316,7.669,3.395C179.952,79.703,176.5,69.86,170.158,71.258z"/>
	<path d="M156.177,101.395c-0.137-3.68-0.992-9.076-5.33-9.965c-9.942-2.04-9.304,15.448-7.953,21.835
		c-0.336,0.845,0.09,1.962,1.314,2.03c1.949,0.11,3.895,0.082,5.836-0.128c0.316-0.034,0.623-0.064,0.93-0.098
		c0.784,1.464,3.063,2.241,3.896,0.31C156.585,111.404,156.333,105.63,156.177,101.395z M149.547,111.49
		c-1.393,0.285-2.778,0.522-4.183,0.694c0.008-5.204,0.37-19.208,4.902-16.858c2.139,1.11,1.461,7.567,1.388,9.442
		c-0.08,2.054-0.598,4.275-0.85,6.431C150.396,111.294,149.981,111.401,149.547,111.49z"/>
	<path d="M152.938,78.865c-0.791-0.016-1.255,0.625-1.337,1.337c-0.103,0.886,0.521,3.167-0.942,3.205
		c-1.717,0.045-0.3-3.046,0.348-3.494c0.655-0.453,0.587-1.456-0.222-1.7c-2.434-0.736-4.033,1.009-4.831,3.138
		c-0.938,2.505,0.785,5.413,3.169,6.273c2.578,0.929,5.232-0.232,6.445-2.662C156.722,82.653,155.995,78.928,152.938,78.865z"/>
	<path d="M131.706,103.091c-0.472-3.843-1.561-9.118-5.945-10.195c-5.022-1.233-8.027,4.125-8.951,8.122
		c-0.663,2.867-0.792,6.01-0.593,8.934c0.138,1.996-0.039,4.842,1.116,6.572c0.23,0.344,0.588,0.506,0.942,0.496
		c0.169,0.139,0.368,0.251,0.627,0.299c2.846,0.528,6.417,1.039,9.411,0.544c1.027,0.739,2.815,0.263,3.233-1.108
		C132.796,112.656,132.219,107.263,131.706,103.091z M119.651,114.164c0.642-5.813,0.445-19.434,5.452-17.094
		c2.651,1.24,2.32,7.974,2.406,10.282c0.074,2.051-0.146,4.188-0.138,6.284C124.846,113.568,122.148,114.201,119.651,114.164z"/>
	<path d="M20.837,107.749c0.337-3.515,0.203-7.287,0.269-10.664c0.068-3.504,0.272-10.286-3.424-12.351
		c-8.284-4.628-12.053,12.559-9.051,18.794c-1.088,0.505-1.358,2.181-0.165,3.035c1.583,1.133,3.589,1.784,5.396,2.493
		c1.005,0.394,2.015,0.768,3.046,1.042c0.085,0.305,0.12,0.635,0.252,0.914c0.656,1.387,2.999,1.051,3.294-0.431
		c0.025-0.129,0.031-0.27,0.054-0.399C21.289,109.63,21.465,108.505,20.837,107.749z M10.436,103.652
		c0.156-3.47,0.806-7.088,1.732-10.405c0.344-1.231,1.482-4.983,3.161-5.203c0.981-0.129,1.32,3.083,1.389,3.621
		c0.47,3.656,0.282,7.421,0.14,11.091c-0.037,0.948-0.147,2.025-0.228,3.116c-0.332-0.101-0.661-0.204-0.993-0.311
		C13.888,104.996,12.193,104.18,10.436,103.652z"/>
	<path d="M43.179,102.44c-0.198-3.849-0.658-9.02-4.213-11.326c-4.133-2.68-7.927,2.54-8.94,5.863
		c-1.196,3.921-1.977,12.021,0.475,15.782c0.004,0.474,0.219,0.943,0.783,1.081c1.764,0.433,3.547,0.686,5.343,0.952
		c0.712,0.106,1.441,0.257,2.172,0.387c0.214,1.983,3.522,2.396,3.894,0.257c0.033-0.188,0.044-0.38,0.074-0.568
		c0.527-0.478,0.636-1.264,0.241-1.854C43.388,109.515,43.356,105.905,43.179,102.44z M32.701,111.601
		c0.844-2.525,0.503-5.972,0.641-8.322c0.066-1.121,1.94-11.001,4.055-7.283c2.402,4.225,1.933,10.579,1.554,15.83
		c-0.369-0.009-0.74-0.015-1.117-0.032C36.123,111.718,34.412,111.646,32.701,111.601z"/>
	<path d="M68.49,113.341c-0.24-2.628-0.553-5.248-0.991-7.851c-0.611-3.633-1.53-9.537-5.589-10.94
		c-4.251-1.469-6.966,4.517-7.836,7.495c-0.669,2.291-2.704,10.95-0.08,13.528c0.012,0.009,0.01,0.03,0.023,0.038
		c-0.007,0.005-0.013,0.01-0.02,0.016c1.707,1.199,4.103,1.186,6.133,1.354c1.717,0.142,3.451,0.332,5.167,0.248
		c0.153,0.352,0.264,0.744,0.502,1.011c0.694,0.776,2.067,0.555,2.556-0.329C69.104,116.552,68.624,114.811,68.49,113.341z
		 M60.128,113.809c-1.172,0.086-2.395,0.078-3.586,0.2c-0.031-0.801-0.096-1.605-0.084-2.386c0.036-2.316,0.431-4.669,0.907-6.929
		c0.332-1.576,2.361-9.963,4.766-5.863c1.879,3.203,2.042,7.747,2.392,11.342c0.088,0.904,0.068,2.104,0.098,3.318
		C63.129,113.513,61.632,113.698,60.128,113.809z"/>
	<path d="M100.429,106.539c-0.46-3.888-1.261-8.47-4.667-10.885c-3.508-2.487-8.007,0.917-9.715,3.906
		c-2.501,4.376-2.001,10.755-0.746,15.603c-0.102,0.267-0.046,0.525,0.182,0.706c0.023,0.082,0.042,0.173,0.066,0.254
		c0.324,1.113,1.77,1.147,2.318,0.358c3.037,0.619,6.402,1.062,9.357,0.556c0.112,0.217,0.157,0.485,0.315,0.668
		c0.612,0.707,1.937,0.703,2.548,0C102.112,115.381,100.757,109.324,100.429,106.539z M88.043,114.295
		c-0.19-3.667-0.377-7.307,0.575-10.913c0.793-3.005,4.253-6.69,6.34-2.786c1.463,2.737,1.542,6.403,1.697,9.427
		c0.05,0.978-0.06,2.233-0.083,3.483C93.839,113.251,90.813,113.832,88.043,114.295z"/>
	<path d="M11.668,71.691c-0.574-0.283-1.337-0.222-1.695,0.445c-3.036,5.658,4.916,11.173,8.958,5.958
		C22.266,73.792,15.463,68.796,11.668,71.691z M13.665,76.441c-1.388-0.337-1.706-1.733-1.433-2.921
		c0.071,0,0.134,0.041,0.207,0.024c1.083-0.246,1.918-0.536,2.886,0.223c0.588,0.461,0.876,1.033,0.728,1.754
		C15.847,76.522,14.434,76.628,13.665,76.441z"/>
	<path d="M33.552,78.319c-0.348-0.08-0.717-0.06-0.994,0.229c-5.23,5.449,6.225,11.231,9.38,5.13
		C44.79,78.167,35.605,72.915,33.552,78.319z M36.246,82.035c-1.268,0.005-2.012-0.76-1.916-1.846
		c0.29,0.124,0.603,0.191,0.923,0.105c0.876-0.236,2.546-0.616,2.706,0.77c-0.036,0.091-0.094,0.308-0.186,0.417
		C37.36,81.96,36.834,82.033,36.246,82.035z"/>
	<path d="M64.625,80.415c-0.892-0.557-1.871,0.525-1.392,1.392c1.32,2.392,2.637,4.057-0.786,4.091
		c-2.737,0.027-4.535-1.617-3.438-4.326c0.385-0.952-1.115-1.828-1.749-1.018c-3.445,4.402,0.547,8.213,5.187,8.576
		c1.879,0.147,4.132-0.535,5.032-2.329C68.713,84.341,66.646,81.677,64.625,80.415z"/>
	<path d="M59.964,80.478c0.075,0,0.075-0.116,0-0.116"/>
	<path d="M96.622,83.838c-1.472-2.007-5.657-3.466-7.792-1.736c-0.44-0.242-0.976-0.325-1.547-0.057
		c-2.491,1.169-2.732,3.904-1.206,5.991c1.632,2.232,4.446,3.448,7.162,2.815C96.149,90.174,98.572,86.497,96.622,83.838z
		 M92.169,87.32c-1.207,0.702-4.729-1.636-3.215-2.413c0.331-0.17,0.521-0.402,0.655-0.65c0.991,0.238,1.964,0.198,2.933,0.726
		C93.942,85.745,93.362,86.625,92.169,87.32z"/>
	<path d="M130.18,83.098c-1.447-2.224-4.662-4.144-7.341-3.099c-1.306,0.509-1.529,2.042-0.375,2.869
		c0.916,0.655,2.027,0.964,2.858,1.736c0.173,0.16,0.267,0.295,0.351,0.45c-0.843,0.425-1.963,0.395-2.838,0.229
		c-0.564-0.107-1.095-0.296-1.602-0.561c-0.74-0.387-0.636-0.49-0.247-1.096c0.639-0.995-0.61-2.174-1.591-1.59
		c-2.308,1.373-2.581,3.957-0.511,5.73c2.305,1.974,5.711,2.618,8.56,1.626C129.874,88.544,131.78,85.558,130.18,83.098z"/>
</g>
<g>
</g>
<g>
</g>
<g>
</g>
<g>
</g>
<g>
</g>
<g>
</g>
<g>
</g>
<g>
</g>
<g>
</g>
<g>
</g>
<g>
</g>
<g>
</g>
<g>
</g>
<g>
</g>
<g>
</g>
</svg>
