<?xml version="1.0" encoding="iso-8859-1"?>
<!-- Generator: Adobe Illustrator 16.0.0, SVG Export Plug-In . SVG Version: 6.00 Build 0)  -->
<!DOCTYPE svg PUBLIC "-//W3C//DTD SVG 1.1//EN" "http://www.w3.org/Graphics/SVG/1.1/DTD/svg11.dtd">
<svg version="1.1" id="Capa_1" xmlns="http://www.w3.org/2000/svg" xmlns:xlink="http://www.w3.org/1999/xlink" x="0px" y="0px"
	 width="189.275px" height="189.275px" viewBox="0 0 189.275 189.275" style="enable-background:new 0 0 189.275 189.275;"
	 xml:space="preserve">
<g>
	<path d="M127.233,175.828c-0.434-1.034-1.36-1.485-2.269-1.503c-0.346-0.304-0.797-0.517-1.409-0.509
		c-5.549,0.078-10.934,0.978-16.403,1.668c0.934-2.605,1.362-5.158,1.305-8.063c-0.098-4.914,2.283-8.677,3.579-13.568
		c3.101-11.711,1.931-28.859-2.913-40.382c0.08-0.02,0.165,0.008,0.241-0.028c9.433-4.52,16.306-14.942,14.591-25.412
		c-1.203-7.345-9.19-11.244-13.903-5.361c-0.771-2.739-2.689-5.164-4.412-7.353c-3.842-4.884-6.079-8.762-3.416-14.563
		c0.226-0.018,0.445-0.013,0.677-0.069c1.467-0.357,1.77-2.523,0.423-3.24c-0.074-0.035-0.14-0.086-0.211-0.125
		c0.173-0.244,0.367-0.485,0.513-0.662c0.697-0.851,1.404-1.669,2.098-2.509c0.416-0.01,0.841,0.01,1.235-0.062
		c2.114-0.39,1.564-3.101,0-3.744c-3.014-1.239-7.62-0.905-6.641-5.69c0.289-1.42-1.191-2.865-2.576-1.98
		c-2.31,1.475-5.199,3.974-6.767-0.091c-0.035-0.092-0.093-0.152-0.14-0.229c-0.006-0.02-0.005-0.038-0.011-0.057
		c-0.496-1.466-2.495-1.482-2.984,0c-0.281,0.852-0.129,1.88-0.703,2.618c-0.892,1.148-2.393,0.534-2.927-0.594
		c-0.697-1.473-2.985-0.42-2.573,1.085c0.519,1.898,1.832,5.912-1.178,6.161c-0.037,0.003-0.05,0.032-0.084,0.04
		c-0.242-2.067-0.602-4.099-1.002-6.152c-1.277-6.554-2.719-13.218-4.24-19.715c1.163,0.106,2.657-0.494,3.466-1.164
		c1.168-0.968,1.922-2.455,2.259-3.918c0.691-2.997-1.226-4.906-3.77-5.423c0.059-0.242,0.061-0.506-0.07-0.784
		c-0.823-1.75-1.692-3.51-2.365-5.321c-0.574-1.55-1.434-5.11-0.091-6.541c0.017-0.019,0.011-0.041,0.028-0.061
		c0.065-0.088,0.147-0.157,0.21-0.248h-0.096c0.657-1.112-0.256-2.551-1.622-2.233C67.424,1.36,65.26,9.71,66.095,15.062
		c-2.522,0.104-4.87,2.082-5.146,4.67c-0.383,3.591,2.837,5.165,5.787,4.273c-0.667,3.913,0.777,7.41,1.669,11.434
		c1.743,7.854,0.516,16.078,1.136,24.097c-2.463,2.943-4.362,4.372-3.161,8.736c0.839,3.05,2.67,5.726,4.263,8.394
		c6.058,10.148,3.449,21.757,2.856,32.944c-1.261,23.791,0.4,43.252,3.916,66.41c-1.75-0.577-3.739-0.388-5.567-0.448
		c-1.935-0.063-3.84,0.036-5.762,0.177c-0.536-1.314-2.667-1.641-3.02,0.049c-0.738,3.533-0.56,6.508-0.063,10.069
		c0.131,0.943,1.185,1.505,2.031,1.547c9.125,0.445,18.149,0.033,27.272-0.18c8.128-0.189,16.098,1.63,24.189,2.018
		C125.359,189.674,130.841,184.462,127.233,175.828z M96.849,183.123c-6.021-0.344-12.189,0.412-18.197,0.751
		c-4.055,0.475-8.014-0.036-11.876-1.532c-0.165-1.583-0.3-3.169-0.433-4.756c1.835,0.166,3.66,0.337,5.508,0.368
		c1.93,0.033,4.032,0.354,5.861-0.338c0.042-0.016,0.063-0.047,0.094-0.07c0.327,0.197,0.901-0.01,0.893-0.479
		c-0.324-18.229-2.245-36.019-1.755-54.239c0.295-10.944,0.71-21.787,0.608-32.733c-0.07-7.526-9.158-24.34-5.741-29.44
		c0.023-0.034,0.023-0.068,0.041-0.104l0.002-0.003c0-0.001,0-0.003,0-0.003c0.116-0.221,0.148-0.442,0.112-0.656
		c1.008-5.188,1.377-10.345,0.61-15.625c-0.975-6.709-5.825-15.09-4.114-21.439c0.072-0.265-0.019-0.46-0.159-0.61
		c-0.125-0.65-0.616-1.241-1.364-1.223c-1.161,0.029-2.626-0.084-2.994-1.392c-0.551-1.956,1.797-2.33,3.189-2.546
		c0.542,0.142,1.156-0.025,1.259-0.682c0.415-2.63,0.408-5.188,1.307-7.741c0.618-1.755,1.825-2.896,3.032-4.06
		c0.107,1.462-0.009,3.092,0.149,4.229c0.341,2.448,1.101,4.589,2.147,6.813c0.005,0.01,0.012,0.014,0.017,0.023
		c-0.004,0.244,0.116,0.498,0.399,0.598c1.894,0.669,3.251,2.345,2.806,4.408c-0.449,2.077-2.677,2.601-4.011,3.801
		c-0.393,0.354-0.201,0.884,0.181,1.128c-1.261,6.038,0.393,12.227,1.931,18.087c0.988,3.767,1.836,7.229,1.848,11.169
		c0.007,2.249-0.037,5.083,1.087,7.156c2.515,4.638,8.047,4.866,6.861-0.765c1.155-3.124-1.843-6.252-5.029-4.615
		c-0.08,0.041-0.059,0.139-0.113,0.199c-0.173-1.313-0.353-2.626-0.467-3.946c3.603,0.277,4.581-2.379,4.393-5.21
		c0.899,0.249,1.848,0.264,2.874-0.091c0.846-0.292,1.619-0.876,2.2-1.604c1.768,1.981,4.648,2.874,7.029,2.04
		c0.295,1.347,0.901,2.585,2.068,3.725c0.667,0.65,1.511,1.14,2.402,1.548c-0.888,0.627-1.693,1.382-2.329,2.254
		c-1.373,1.883-0.693,3.823,0.818,4.737c-2.703,2.502-3.202,6.093-1.484,9.623c2.646,5.437,7.546,9.151,9.888,14.934
		c0.274,0.676,1.102,0.843,1.615,0.53c0.348,0.094,0.717,0.087,1.029-0.223c3.967-3.933,10.219-3.653,10.677,3.212
		c0.203,3.041-1.771,7.322-3.046,9.998c-2.48,5.213-7.183,8.58-10.561,13.057c-0.452-0.287-1.199,0.003-1.161,0.612
		c0.941,15.368,6.621,37.817-3.235,50.782c-0.653,0.859-0.116,2.14,0.694,2.647l-0.659,9.791c-1.375,1.733,0.718,3.425,2.017,2.776
		c5.812,0.518,11.53,0.576,17.354,0.222C125.237,188.145,101.91,183.412,96.849,183.123z"/>
	<path d="M117.182,85.606c-2.086-3.106-6.767,1.828-7.856,3.519c-1.812,2.81-1.703,7.554-0.536,11.002
		c-0.037,0.299-0.041,0.59,0.047,0.854c0.116,0.354,0.356,0.62,0.649,0.812c0.033,0.064,0.061,0.145,0.096,0.209
		c0.104,0.188,0.35,0.145,0.457-0.019c0.075,0.012,0.129,0.072,0.209,0.072c2.623-0.006,4.637-5.953,5.471-7.879
		C116.626,92.074,118.696,87.858,117.182,85.606z M111.122,95.604c-0.164,0.323-0.412,0.706-0.683,1.12
		c-0.026-1.331-0.029-2.662,0.283-3.966c0.501-2.09,1.969-3.556,3.733-4.631c-0.022,0.063-0.053,0.154-0.066,0.201
		C113.688,90.851,112.304,93.282,111.122,95.604z"/>
</g>
<g>
</g>
<g>
</g>
<g>
</g>
<g>
</g>
<g>
</g>
<g>
</g>
<g>
</g>
<g>
</g>
<g>
</g>
<g>
</g>
<g>
</g>
<g>
</g>
<g>
</g>
<g>
</g>
<g>
</g>
</svg>
