<?xml version="1.0" ?><svg data-name="Layer 1" id="Layer_1" viewBox="0 0 64 64" xmlns="http://www.w3.org/2000/svg"><defs><style>.cls-1{fill:#c397ff;}.cls-2{fill:#8bdf9e;}.cls-3{fill:#b189e8;}.cls-4{fill:#72c485;}.cls-5{fill:#ffbc5c;}</style></defs><path class="cls-1" d="M61.81,52.18c0-3.6-4.05-6.82-10.43-8.99-.04-.01-.08-.02-.11-.03a2.19,2.19,0,0,1-.21-.23,3.184,3.184,0,0,1-.31-.34,3.574,3.574,0,0,1-.31-.37c-.07-.07-.12-.14-.19-.21-.2-.25-.39-.51-.58-.77a19.829,19.829,0,0,1-1.86-3.11v-.01h-.02c-3.61-7.3-3.83-16.9-5.75-24.64,3.57,2.04,5.36,6.32,5.36,6.32S46.91,9.6,41.93,3.89c-.2-.24-.42-.47-.64-.69s-.47-.45-.72-.66a10.145,10.145,0,0,0-1.62-1.12A9.977,9.977,0,0,0,37.59.78q-.465-.165-.96-.3c-.11-.03-.21-.06-.32-.08-.13-.03-.26-.06-.39-.08a2.254,2.254,0,0,0-.36-.06c-.18-.03-.37-.05-.55-.07-.16-.02-.32-.03-.48-.04-.2-.01-.41-.02-.62-.02a14.289,14.289,0,0,0-4.57.78C17.22,5.2,22.83,25.41,16.21,38.18l.02.02a21.692,21.692,0,0,1-1.15,1.98c-.23.36-.47.72-.73,1.06v.01c-.25.34-.5.66-.78.98-.1.12-.21.24-.31.37v.01c-.03.02-.05.05-.08.07,0,.01-.01.02-.02.03q-.2.225-.42.45a.418.418,0,0,0-.1.04c-.4.14-.79.27-1.17.42-5.72,2.14-9.28,5.18-9.28,8.56C2.19,58.71,15.53,64,32,64c.52,0,1.03-.01,1.54-.02q.54,0,1.08-.03c.34-.01.67-.02,1.01-.04.7-.03,1.39-.07,2.08-.13.58-.04,1.17-.09,1.74-.15a.249.249,0,0,1,.08-.01c.58-.06,1.15-.13,1.71-.2a2.512,2.512,0,0,0,.27-.04c.43-.05.86-.11,1.28-.18.14-.02.29-.04.43-.07.51-.08,1.02-.17,1.51-.26.55-.1,1.1-.21,1.63-.33.27-.06.53-.12.79-.18s.52-.12.77-.19a41.419,41.419,0,0,0,4.96-1.56c.19-.07.37-.14.55-.21a.509.509,0,0,1,.17-.07c.6-.25,1.16-.51,1.7-.78.38-.19.74-.39,1.09-.58l.51-.3-.026.007C59.988,56.821,61.81,54.584,61.81,52.18Z"/><path class="cls-2" d="M51.272,43.165l.1.031A28.826,28.826,0,0,1,39.2,48.849l-1.312-2.878L39.2,42.487a22.364,22.364,0,0,0,8.614-4.358A19.7,19.7,0,0,0,51.272,43.165Z"/><path class="cls-1" d="M24.784,42.482v.011c-.411-.113-.822-.237-1.212-.37C23.972,42.256,24.373,42.38,24.784,42.482Z"/><path class="cls-3" d="M37.642,3.747a11.706,11.706,0,0,1,4.307.141A10.493,10.493,0,0,0,32,.272c-15.562,2.221-8.706,24.3-15.757,37.908a21.323,21.323,0,0,0,5.7,3.35C28.892,27.912,22.127,5.96,37.642,3.747Z"/><path class="cls-3" d="M39.786,60.819C23.319,60.819,9.977,55.526,9.977,49c0-1.928,1.172-3.747,3.235-5.353-.191-.147-.391-.288-.577-.44C6.242,45.355,2.192,48.582,2.192,52.18,2.192,58.706,15.534,64,32,64c10.414,0,19.574-2.119,24.9-5.327A64.872,64.872,0,0,1,39.786,60.819Z"/><path class="cls-2" d="M35.084,43.361l1.071,3.011-1.071,3.094a33.1,33.1,0,0,1-6.168,0L27.79,46.52l1.126-3.159a1.031,1.031,0,0,1,1.028-1.028h4.112A1.031,1.031,0,0,1,35.084,43.361Z"/><path class="cls-2" d="M26.533,45.971l-1.728,2.878a28.835,28.835,0,0,1-12.17-5.643.442.442,0,0,1,.1-.041,21.183,21.183,0,0,0,3.5-4.985A22.547,22.547,0,0,0,24.805,42.5Z"/><path class="cls-4" d="M49.675,41.228a29.568,29.568,0,0,1-10.48,4.4v3.221A28.826,28.826,0,0,0,51.375,43.2l-.1-.031A18.469,18.469,0,0,1,49.675,41.228Z"/><path class="cls-4" d="M28.916,46.244v3.222a33.1,33.1,0,0,0,6.168,0V46.244a33.1,33.1,0,0,1-6.168,0Z"/><path class="cls-4" d="M12.738,43.165a.442.442,0,0,0-.1.041,28.835,28.835,0,0,0,12.17,5.643V45.628A29.632,29.632,0,0,1,14.339,41.24,19.379,19.379,0,0,1,12.738,43.165Z"/><path class="cls-5" d="M39.2,44.46v4.389a31.381,31.381,0,0,1-4.111.617V43.361a1.031,1.031,0,0,0-1.028-1.028H29.944a1.031,1.031,0,0,0-1.028,1.028v6.105a31.381,31.381,0,0,1-4.111-.617V42.333a4.111,4.111,0,0,1,4.111-4.112h6.168A4.111,4.111,0,0,1,39.2,42.333V44.46Z"/></svg>