<svg id="Capa_1" enable-background="new 0 0 512 512" height="512" viewBox="0 0 512 512" width="512" xmlns="http://www.w3.org/2000/svg"><path d="m512 444.7v4.05c-13.8-2.11-27.78-3.58-41.68-4.36-.02.12-.03.25-.05.37-.81 5.27-4.51 10.7-10 10.87-3.89.13-6.85-2.29-8.83-5.3-1.45 2.95-3.84 6.12-7.73 6.71-3.12.47-6.54-1.01-8.93-3.85-.81-.98-1.47-2.03-2.04-3.12-.48 1.42-1 2.87-1.77 4.26-.54.99-1.28 1.97-2.16 2.82.01.1.01.21-.01.31-.52 3.82.09 7.69.73 11.78.63 4.02 1.28 8.17.81 12.38-.05.48-.16 1.47-.86 2.3-.65.78-1.52 1.07-1.99 1.22-5.47 1.83-11.17 2.76-16.95 2.76h-.32c-.34 0-.98 0-1.64-.36-1.09-.58-1.62-1.69-1.58-3.3.23-9.02.33-18.14.34-27.18-2.96 1.51-6.63 1.87-9.6-.12-2.9-1.94-3.96-5.18-4.31-8.6-.81.74-1.6 1.53-2.42 2.34-1.55 1.52-3.14 3.09-4.96 4.44-4.34 3.21-10.75 4.85-15.29 1.26-4.62-3.65-4.28-10.22-3.62-14.84.02-.14.04-.27.06-.41-11.08-1.28-22.31-2.18-33.44-2.67.13 1.68.16 3.39-.03 5.11-.05.43-.15 1.34-.79 2.11-.61.73-1.41.99-1.83 1.13-4.68 1.57-9.54 2.36-14.47 2.36h-.27c-.3 0-.91-.01-1.54-.34-.71-.39-1.54-1.23-1.5-3.08.07-2.49.1-5.01.14-7.52-52.11-6.9-105.75-5.43-157.64-3.99-51.2 1.41-104.07 2.86-155.72-3.73v-4.04c51.51 6.63 104.4 5.18 155.61 3.77 51.9-1.44 105.54-2.91 157.82 3.97.05-3.68.06-7.34.07-11.01-2.52 1.13-5.52 1.32-7.99-.34-2.47-1.65-3.4-4.4-3.73-6.9-.54.5-1.07 1.02-1.61 1.56-1.31 1.29-2.67 2.63-4.23 3.79-3.77 2.79-9.36 4.2-13.33 1.06-4.04-3.19-3.76-8.87-3.19-12.87.92-6.47 2.37-13.14 4.32-19.89-45.18-11.7-91.73-17.43-138.4-17-20.66.19-41.66 1.61-61.99 2.98-27.31 1.83-55.46 3.73-83.35 2.68v-4c16.59.63 33.3.2 49.89-.63.42-16.3.45-32.76.36-49.03-15.91-6.22-33.43-7.98-50.25-5.1v-4.05c16.81-2.75 34.25-1.09 50.23 4.86-.04-5.88-.09-11.72-.13-17.51-.04-4.05-.07-8.1-.1-12.16-.27.29-.54.57-.84.84-3.1 2.88-7.13 3.97-10.52 2.84-.58-.19-1.04-.64-1.25-1.21-.33-.9-.33-.9 3.28-7.73.58-1.1 1.22-2.31 1.9-3.59-2.99-3.52-8.45-5.03-13.45-3.68-4.7 1.28-9.05 4.89-11.93 9.92-.36.63-1.02 1.01-1.74 1.01-.06 0-.13-.01-.2-.01-.78-.08-1.45-.62-1.69-1.36-2.17-6.52-7.21-11.92-13.56-14.53v-2.15c-.03-.01-.07-.02-.11-.04.04.01.08.02.11.03v-2.11c.35.11.71.24 1.07.38 6.41 2.51 11.74 7.44 14.8 13.57 3.28-4.26 7.58-7.31 12.2-8.57 5.91-1.6 12.38-.03 16.48 3.82 1.07-2 2.19-4.11 3.33-6.24 5.09-9.53 10.93-20.36 12.02-22.16 3.7-6.08 7.58-12.15 11.56-18.04.55-.82 1.13-1.78 1.74-2.78 2.11-3.49 4.51-7.44 7.99-9.43 3.92-2.26 9.19-2.56 13.84-2.83 1.6-.09 3.12-.18 4.46-.34 8.57-1.01 15.63-1.79 22.24-2.47 24.76-2.53 57.4-5.09 90.5-2.46 2.29.18 4.49.46 6.36 1.88 1.63 1.22 2.51 3 3.21 4.42 9.96 20.03 19.94 40.34 29.7 60.43 2.98-3.64 7.35-6 11.87-6.23 2.92-.15 5.78.64 8.21 2.08 1.61-4.99 4.37-9.47 7.05-13.82.71-1.14 1.41-2.28 2.09-3.43 3.04-5.12 6.42-11.86 5.57-18.62-.43-3.45-1.9-6.68-3.47-10.1-1.36-2.98-2.77-6.07-3.49-9.4-1.41-6.51-.05-12.99 1.27-19.26.2-.96.4-1.93.6-2.91-4.56 7.72-7.27 16.6-9.9 25.21-1.26 4.14-2.57 8.43-4.07 12.57-.28.77-1.01 2.78-2.69 3.74-.26.16-.55.29-.87.38-.24.07-.49.12-.76.15-.12.01-.25.02-.38.02-1.37 0-3.18-.7-4.73-3.66-10.78-20.57-8.58-45.16-6.12-65.69-5.42 3.39-10.02 8.01-14.85 12.84-5.22 5.24-10.63 10.65-17.21 14.42-3.08 1.77-5.65 1.99-7.64.66-2.14-1.42-2.86-4.1-2.16-7.98 1.18-6.56 2.96-13.05 5.28-19.29.14-.38.44-1.17.36-1.42-.19-.23-1.44-.38-3.03.2-7.94 2.9-15.67 6.97-23.14 10.92-11.9 6.27-24.2 12.76-37.81 14.79-1.88.28-3.21.05-4.15-.41-.27-.13-.51-.28-.72-.44-.46-.35-.78-.76-1.01-1.16-.76-1.32-1.07-3.52 1.74-6.46 4.63-4.85 9.26-9.69 13.89-14.54-25.83 12.75-52.27 24.24-79.18 34.37-3.86 1.45-7.73 2.88-11.63 4.32-24.34 8.98-49.42 18.25-70.42 33.36v-4.88c20.92-14.45 45.32-23.48 69.04-32.23 3.88-1.43 7.75-2.86 11.6-4.31 56.65-21.32 111.23-48.65 162.25-81.23 4.21-2.69 8.98-5.73 14.52-5.96 4.11-.17 7.99 1.28 11.41 2.56 81.69 30.6 163.42 64.2 243.07 99.92v4.38c-36.22-16.27-72.89-32.09-109.78-47.39-.05.16-.11.32-.21.47-2.91 4.61-9 7.28-15.5 6.79-4.64-.34-9.01-2.06-12.99-3.85-1.69 11.66-5.83 18.57-12.62 21.09-3.93 1.46-8.72 1.24-14.22-.66-8.52-2.93-15.83-8.31-22.91-13.51-1.41-1.04-2.81-2.07-4.23-3.09-1.22-.87-2.31-1.6-3.38-1.66-1.28-.07-2.57.91-3.22 1.49-4.25 3.82-4.86 9.94-5.5 16.41-.31 3.09-.63 6.29-1.36 9.3-.16.66-.5 2.02-1.61 2.94-1.58 1.3-3.87 1.17-6.14-.36-3.84-2.6-6.27-6.44-8.63-10.16-1.26-2-2.45-3.88-3.84-5.58-.35 2.14-.8 4.28-1.23 6.36-1.29 6.12-2.51 11.91-1.28 17.58.63 2.92 1.89 5.67 3.22 8.59 1.62 3.54 3.3 7.21 3.8 11.27 1 7.96-2.74 15.48-6.1 21.15-.69 1.17-1.41 2.33-2.12 3.49-2.96 4.81-5.76 9.35-7.09 14.46 1.1 1.22 1.99 2.61 2.56 4.14 1.18 3.14 1.06 6.48.54 9.54 2.28-.79 5.06-.98 8.16-.5 2.03.32 3.69.99 4.9 1.94 1.82-3.07 4.11-6.28 7.35-8.42 2.55-1.7 5.92-2.55 9.04-2.14-.35-1.04-.6-2.15-.69-3.3-.3-3.93 1.55-7.64 4.61-9.24 2.67-1.4 5.56-1.02 8.12-.68.5.07.99.13 1.48.19-.6-4.88.29-9.82 2.56-13.87 2.92-5.2 8.01-8.8 13.59-9.65 5.38-.8 10.84 1.08 14.42 4.83l15.63-20.09c.39-.51.81-1.16 1.26-1.85 1.42-2.2 3.03-4.68 5.61-5.63 3.51-1.29 7.91-.6 11.79.01.94.15 1.84.29 2.66.39 18.71 2.24 37.77 3.62 56.61 4.1.99.02 2.49.06 3.74 1.02 1.02.77 1.5 1.88 1.81 2.62 3.66 8.52 7.45 17.33 10.14 26.43.82 2.75 1.66 5.97 1.33 9.26-.08.84-.26 1.92-.92 2.9-.86 1.28-2.16 1.87-3.37 2.17l-.16 3.17c5.52-2.26 12.14-1.92 17.31 1.06 3.28 1.9 5.32 4.54 5.76 7.44.31 2.07-.21 4.02-.83 5.83-.76 2.26-1.7 4.46-2.8 6.58 2.78-.53 5.78-.36 8.63.56 3.4 1.1 6.63 3.21 9.47 6.16 1.28-2.83 2.69-5.62 4.21-8.33 2.13-3.79 4.85-8.06 8.86-11.04 1.13-.84 2.33-1.54 3.56-2.07v4.49c-.4.24-.79.5-1.17.79-3.41 2.53-5.84 6.37-7.76 9.79-1.97 3.5-3.75 7.15-5.29 10.86-.27.66-.88 1.12-1.58 1.21-.09.01-.18.02-.27.02-.61 0-1.2-.28-1.58-.78-1.95-2.53-5.22-5.85-9.68-7.29-3.94-1.27-8.18-.72-11.07 1.45-.79.59-1.89.53-2.59-.16-.71-.68-.82-1.77-.26-2.58 2.35-3.37 4.22-7.06 5.54-10.95.45-1.33.84-2.72.65-3.95-.35-2.34-2.78-3.97-3.81-4.56-4.68-2.71-10.85-2.68-15.53.02l-1.69 33.21c-.01.04-.01.07-.02.1 17.74 4.48 36.33 10.15 56.11 17.07v4.24c-49.63-17.46-91.64-26.97-131.64-29.78-50.95-3.59-97.11 4.32-137.19 23.51-.08.03-.16.06-.24.08l-2.79 49.2c15.06 2.56 30.04 5.76 44.87 9.61.25-.8.5-1.59.76-2.39 4.42-13.36 10.81-27.36 20.12-44.07 4.24-7.6 8.29-14.54 12.39-21.22l.09-.16c1.52-2.47 3.6-5.85 8.12-5.16 5.05.77 7.39 5.7 8.52 8.07 3.78 7.96 7.01 16.3 10.12 24.36l18.97 49.03c1.4 3.61 3.04 7.85 3.55 12.29 2.57.5 5.07 1.39 7.39 2.62 5.18-15.24 12.56-31.26 23.14-50.26 4.99-8.95 9.77-17.13 14.6-25l.11-.19c1.84-2.99 4.12-6.71 9.22-5.93 5.76.89 8.47 6.58 9.76 9.32 4.46 9.39 8.26 19.21 11.94 28.71l22.37 57.81c1.89 4.89 4.15 10.74 4.34 16.78 13.83.78 27.75 2.23 41.48 4.31zm-45.68-.55c1-6.49-1.59-13.19-3.87-19.1l-22.37-57.8c-3.64-9.44-7.42-19.19-11.82-28.44-1.6-3.39-3.53-6.59-6.76-7.08-2.26-.35-3.22.84-5.2 4.06l-.11.19c-4.81 7.82-9.55 15.96-14.52 24.86-10.83 19.46-18.27 35.73-23.4 51.22-3.38 10.22-5.79 20.33-7.17 30.04-.83 5.79-.15 9.34 2.14 11.14 2.86 2.27 7.42.89 10.44-1.34 1.59-1.17 3.01-2.58 4.52-4.06 1.83-1.82 3.73-3.69 6.01-5.17.62-.41 1.41-.44 2.06-.08.64.35 1.04 1.04 1.03 1.78-.05 3.65.23 7.61 2.67 9.25 2.26 1.51 5.62.4 7.57-1.56 2.34-2.35 3.53-5.89 4.58-9.01.24-.72.87-1.24 1.62-1.35.09-.01.18-.02.27-.02.66 0 1.27.32 1.65.87 1.38 1.99 1.9 4.23 2.42 6.39.16.68.32 1.37.52 2.05.35 1.25 1.42 4.22 3.6 4.75 1.99.49 4.16-1.31 5.28-3.34.71-1.29 1.19-2.74 1.71-4.27.47-1.42.97-2.9 1.68-4.32.35-.71 1.1-1.15 1.89-1.11.8.04 1.49.55 1.77 1.3.88 2.35 1.79 4.78 3.33 6.61 1.47 1.76 3.53 2.73 5.25 2.47 3.33-.5 5.15-5.02 6.23-8.37.27-.83 1.04-1.39 1.9-1.39h.01c.86 0 1.63.56 1.9 1.38 1.14 3.53 3.76 7.04 6.99 6.94 3.28-.11 5.63-3.94 6.18-7.49zm-8.02-178.79c.26-2.58-.44-5.23-1.18-7.73-2.63-8.88-6.37-17.58-9.98-25.99-.14-.33-.38-.88-.56-1.02-.23-.18-1.01-.2-1.42-.21-18.97-.47-38.15-1.86-56.99-4.12-.86-.1-1.81-.25-2.81-.41-3.23-.5-7.24-1.14-9.78-.21-1.33.49-2.55 2.38-3.63 4.05-.5.77-.96 1.49-1.47 2.13l-17.96 23.1c-3.22 4.15-6.55 8.43-9.23 12.99-.25.41-.36.67-.4.81.01.01.03.02.04.02 1.84.73 4.28-1.83 5.58-3.42l24.26-29.88c.4-.49 1-.76 1.66-.73.63.03 1.22.37 1.57.9 5.42 8.29 9.6 17.31 12.42 26.8.62 2.07 1.29 3.99 2.58 4.55.6.26 1.46.27 2.29.28l22.31.31c13.07.18 26.57.37 39.82-.44.61-.04 2.23-.14 2.62-.72.18-.27.24-.86.26-1.06zm-6.35 45.52 2.01-39.66c-12.83.7-25.83.53-38.42.36l-20.03-.28-1.85 29.25c18.7 1.96 37.96 5.37 58.29 10.33zm-25.58 170.3c.41-3.68-.18-7.39-.79-11.32-.53-3.35-1.05-6.78-.95-10.27-.57.15-1.16.23-1.76.23-.53 0-1.08-.06-1.63-.19-3-.74-5.31-3.42-6.49-7.54-.21-.73-.39-1.48-.57-2.23-.04-.19-.08-.38-.13-.56-.71 1.57-1.58 3.11-2.71 4.49.02 9.98-.08 20.11-.33 30.11 5.18-.05 10.3-.91 15.21-2.55.03-.01.08-.02.13-.04.01-.04.01-.08.02-.13zm-36.69-181.04 1.83-28.96c-.69-.07-1.4-.22-2.1-.52-3.11-1.35-4.14-4.8-4.82-7.08-2.46-8.24-5.97-16.11-10.47-23.43l-22.46 27.67c.14.28.24.59.24.93l.5 29.82c2.8-.04 5.63-.04 8.48 0-.53-6.11-1.35-12.23-2.45-18.25-.1-.55.03-1.12.37-1.57s.85-.73 1.41-.78c5.4-.52 10.89-.64 16.31-.37 1.54.08 2.58.66 3.09 1.73.33.67.3 1.32.29 1.67l-.73 18.29c.49.04.98.06 1.47.1 3 .21 6.02.47 9.04.75zm-2.87-122.74c4.99.37 9.57-1.51 11.73-4.8-43.47-17.98-87.24-35.24-131.01-51.63-3.06-1.15-6.53-2.46-9.86-2.31-4.45.18-8.56 2.8-12.53 5.33-23.67 15.13-48.13 29.11-73.19 41.9-7.21 7.54-14.41 15.08-21.62 22.63-1.07 1.13-1.14 1.68-1.15 1.75.03-.02.23.09.8.09.25 0 .59-.03 1.01-.09 12.94-1.92 24.4-7.97 36.54-14.37 7.59-4.01 15.44-8.15 23.63-11.13.84-.31 3.78-1.23 6.06-.13 1.04.49 1.78 1.33 2.14 2.4.53 1.6-.03 3.11-.4 4.1-2.25 6.02-3.97 12.28-5.11 18.6-.38 2.1-.22 3.5.44 3.94.61.4 1.86.11 3.45-.8 6.12-3.5 11.33-8.72 16.37-13.77 5.77-5.78 11.73-11.75 19.24-15.48.66-.33 1.44-.27 2.05.16.6.42.91 1.14.82 1.87-3.09 25.43-4.84 48.04 5.24 67.27.7 1.34 1.18 1.5 1.19 1.51 0-.01.4-.21.93-1.66 1.47-4.04 2.76-8.28 4.01-12.37 2.99-9.8 6.08-19.94 11.9-28.69.58-.87 2.11-3.17 4.66-3.26 2.19-.08 3.73 1.46 4.7 2.63 1.59 1.93 2.94 4.05 4.23 6.1 2.22 3.53 4.34 6.86 7.49 8.98.73.5 1.28.6 1.41.56-.03 0 .07-.18.21-.77.67-2.74.98-5.79 1.27-8.74.69-6.95 1.41-14.14 6.81-19 1.94-1.74 4.06-2.61 6.11-2.5 2.31.12 4.23 1.5 5.49 2.4 1.43 1.02 2.85 2.07 4.27 3.11 6.83 5.03 13.9 10.22 21.85 12.96 4.6 1.58 8.47 1.82 11.52.69 5.74-2.13 9.13-8.84 10.38-20.51.07-.64.44-1.21 1-1.53.56-.31 1.25-.34 1.83-.07 4.52 2.1 9.19 4.27 14.09 4.63zm-11.63 121.65.69-17.48c-4.36-.2-8.76-.13-13.12.19.96 5.59 1.68 11.25 2.16 16.88 3.4.09 6.82.22 10.27.41zm-1.41 113.96c-1.87-1.07-3.91-1.86-6-2.36-.04.56-.09 1.12-.18 1.68-.71 4.59-3.95 9.32-8.77 9.47-3.23.1-5.74-1.78-7.46-4.2-1.28 2.42-3.32 4.9-6.54 5.39-2.75.41-5.75-.88-7.85-3.37-.55-.66-1.02-1.36-1.43-2.09-.36 1.01-.76 2.02-1.3 3.01-.46.83-1.08 1.64-1.81 2.36 0 .07.01.13 0 .19-.44 3.2.07 6.45.61 9.9.08.48.15.96.22 1.44h.03c11.49.49 23.1 1.42 34.54 2.75 1.35-7.89 3.34-15.99 5.94-24.17zm-10.13-1.29c.84-5.43-1.35-11.07-3.27-16.04l-18.96-49.02c-3.1-8-6.3-16.26-10.02-24.1-1.32-2.79-2.91-5.43-5.5-5.83-1.74-.27-2.47.64-4.11 3.31l-.09.15c-4.07 6.63-8.1 13.53-12.31 21.08-9.17 16.48-15.48 30.26-19.81 43.38-2.86 8.64-4.91 17.2-6.08 25.42-.68 4.79-.14 7.7 1.71 9.17 2.19 1.73 5.92.74 8.47-1.15 1.33-.98 2.53-2.17 3.8-3.42 1.57-1.55 3.19-3.15 5.14-4.42.62-.4 1.41-.43 2.06-.08.65.36 1.05 1.04 1.04 1.78-.04 3.02.18 6.28 2.14 7.59 1.76 1.18 4.5.25 6.03-1.28 1.93-1.95 2.93-4.91 3.81-7.53.24-.72.87-1.24 1.62-1.34.09-.02.18-.02.27-.02.66 0 1.28.32 1.65.86 1.2 1.74 1.65 3.66 2.09 5.52.14.58.28 1.16.44 1.73.23.78 1.1 3.39 2.84 3.82 1.52.37 3.26-1.11 4.13-2.69.59-1.07 1-2.28 1.43-3.57.41-1.22.83-2.48 1.44-3.7.36-.72 1.1-1.15 1.9-1.11.79.04 1.49.55 1.77 1.3.73 1.97 1.49 4 2.76 5.52 1.19 1.41 2.84 2.19 4.19 1.99 2.02-.31 3.61-2.5 5.03-6.9.27-.83 1.04-1.38 1.9-1.39h.01c.86 0 1.63.56 1.9 1.39.9 2.79 3.09 5.74 5.63 5.67 2.62-.09 4.5-3.2 4.95-6.09zm-15.25-113.07-.45-27.26c-1.46 1.01-2.88 1.53-4.28 1.53-.74 0-1.48-.14-2.2-.43-1.02-.4-1.79-1.07-2.22-1.92-.99-1.96.16-3.92.6-4.66 2.77-4.71 6.12-9.03 9.37-13.21-2.63-3.09-7.09-4.72-11.32-4.08-4.32.65-8.42 3.58-10.71 7.65-2.18 3.89-2.81 8.83-1.71 13.54.14.58.01 1.18-.34 1.65-.36.48-.9.77-1.49.8-1.55.09-3.06-.11-4.52-.3-2.25-.3-4.19-.56-5.74.25-1.63.86-2.65 3.07-2.47 5.39.2 2.61 1.65 5.07 2.88 6.92.59.88.39 2.06-.44 2.7-.84.64-2.03.53-2.72-.27-2.34-2.65-6.93-2.2-9.85-.27-3.46 2.29-5.71 6.33-7.69 9.9-.36.64-1.03 1.02-1.75 1.02-.13 0-.26-.01-.39-.04-.86-.17-1.5-.87-1.6-1.73-.11-1.04-1.91-1.78-3.64-2.04-1.59-.25-6.94-.81-9.01 2.36-.53.83-1.58 1.14-2.48.74s-1.38-1.39-1.13-2.34c1.23-4.63 2.13-8.76.79-12.35-1.45-3.86-5.83-6.59-10.2-6.37-3.99.2-7.86 2.65-10.07 6.32l.03.06c1.33 2.75 2.99 6.16 2.88 9.86-.05 1.05-.88 1.9-1.93 1.94-3.26.12-6.54.24-9.81.36l-1.59 28.09c31.62-14.82 66.88-22.79 105.2-23.81zm-18.62 144.39c.32-3.05-.17-6.15-.68-9.43-.43-2.73-.86-5.52-.82-8.37-.38.07-.78.12-1.17.12-.48 0-.97-.06-1.46-.18-2.66-.65-4.69-3-5.72-6.6-.15-.51-.28-1.03-.4-1.55-.52 1.05-1.14 2.08-1.9 3.02.02 8.34-.07 16.78-.27 25.11 4.27-.08 8.42-.79 12.42-2.12zm-77.4-152.95c-.38-2.11-1.4-4.22-2.33-6.13-10.4-21.43-21.07-43.15-31.71-64.55-.57-1.16-1.17-2.35-2.04-3.02-1.01-.76-2.53-.94-4.27-1.07-32.77-2.61-65.19-.06-89.77 2.45-6.58.67-13.63 1.46-22.18 2.46-1.47.18-3.03.27-4.69.36-1.69.1-3.47.21-5.2.41 10.64 14.1 17.2 30.61 23.54 46.61 3.2 8.06 6.48 16.38 7.39 25.29 43.82.4 88.21-1.2 131.26-2.81zm-16.2 85.42 4.6-80.99c-34.9 1.29-70.57 2.47-106 2.47-5.34 0-10.67-.04-16-.1-1.18 23.9-1.75 48.14-1.7 72.05 0 .2-.03.4-.08.58 9.47-.48 18.97-.82 28.42-.91 30.41-.28 60.78 2.04 90.76 6.9zm-121.72-82.66c.88.01 1.77.01 2.65.02-.93-8.21-4.06-16.12-7.09-23.78-6.49-16.35-13.19-33.26-24.21-47.24-.91.28-1.76.61-2.51 1.04-2.58 1.49-4.7 4.97-6.56 8.04-.64 1.05-1.24 2.04-1.85 2.95-3.94 5.83-7.79 11.85-11.45 17.88-1.87 3.08-16.43 30.36-20.91 38.92 1.57-.29 3.04-1.2 4.03-2.12 1.97-1.82 3.27-4.31 4.65-6.94l.11-.21c9.45-18.05 20.44-35.46 32.67-51.75.38-.5.97-.8 1.6-.8h.1c.67.04 1.27.41 1.61.98 8 13.42 12.62 28.56 17.09 43.2 1.62 5.29 3.29 10.77 5.1 16.07.46 1.36.95 2.64 1.8 3.19.72.48 1.86.53 3.17.55zm.33 4h-.39c-1.5-.02-3.56-.05-5.31-1.2-1.9-1.26-2.72-3.28-3.39-5.25-1.82-5.36-3.51-10.87-5.13-16.2-4.11-13.45-8.35-27.33-15.2-39.7-11.38 15.41-21.63 31.81-30.51 48.77l-.11.2c-.22.43-.45.85-.67 1.28.03 6.01.08 12.02.14 18.03.05 6.59.11 13.25.14 19.95.1.33.1.69.01 1.05.09 16.46.06 33.13-.35 49.65 5.72-.31 11.42-.66 17.09-1.03l-.44-39.71c-.01-.65-.03-2.6 1.64-3.56.69-.39 1.37-.42 1.78-.44l16.58-.75c.53-.03 1.06.17 1.45.54.4.36.63.88.64 1.41l.82 41.01c6.52-.42 13.08-.84 19.67-1.19-.1-.23-.16-.49-.16-.76-.05-23.93.52-48.18 1.7-72.1zm-25.2 74.32-.79-39.14-14.13.64.44 39.47c2.7-.18 5.41-.36 8.09-.55 2.12-.14 4.26-.28 6.39-.42z"/><path d="m512 126.98v4c-22.54.68-45.31 1.3-68.17 1.3-43.23 0-86.71-2.23-129.35-10.58-.83-.16-1.47-.82-1.59-1.66-.13-.84.28-1.66 1.03-2.06 13.18-7.07 29.34-8.54 43.6-4.04 1.84-4.05 5.49-7.4 10.08-9.15 3.62-1.39 7.46-1.65 10.93-.82-1.28-6.32 1.28-13.68 6.8-18.13 5.83-4.71 14.23-6.36 23.04-4.53 6.54 1.35 12.46 4.31 17.98 7.49-.18-8.02-.17-16.79 1.46-25.26 1.48-7.61 5-18.31 13.42-26.05 9.67-8.88 24.9-12.56 41.77-10.1 13 1.9 22.53 6.84 29 12.73v5.53c-7.46-8.29-19.29-12.79-29.58-14.3-15.67-2.29-29.7 1.02-38.49 9.09-7.62 7-10.83 16.84-12.19 23.86-1.8 9.33-1.53 19.25-1.3 28 .02.73-.36 1.41-.99 1.78s-1.41.37-2.03-.01c-6.12-3.66-12.69-7.36-19.86-8.85-7.52-1.55-14.9-.16-19.72 3.74-5.44 4.38-7.29 12.25-4.12 17.54.47.79.34 1.8-.31 2.44-.66.65-1.67.77-2.45.29-3.32-2.03-7.78-2.3-11.93-.71s-7.29 4.77-8.41 8.5c-.15.52-.52.96-1.01 1.21s-1.06.28-1.57.1c-11.72-4.17-25.02-3.89-36.64.61 62.87 11.42 127.66 9.92 190.6 8.04z"/><path d="m332.28 32.17c14.05 9.5 19.44 26.64 12.82 40.76-3.51 7.48-10.17 13-17.82 14.74-1.91.44-3.93.66-6.07.66-2.68 0-5.55-.35-8.67-1.04-10.24-2.26-18.22-7.36-22.48-14.35-6.22-10.24-4.02-24.8 5.12-33.87 9.06-9 26.53-14.04 37.1-6.9zm9.2 39.06c6.55-13.97-.79-28.55-11.43-35.74-2.86-1.93-6.29-2.74-9.87-2.74-8.23 0-17.29 4.29-22.18 9.16-7.74 7.67-9.72 20.39-4.52 28.95 4.97 8.17 14.61 11.36 19.92 12.53 5.02 1.11 9.27 1.23 12.99.38 6.36-1.45 12.15-6.26 15.09-12.54z"/><path d="m222 355.39c.02 1.04-.76 1.92-1.8 2.03-3.59.37-7.2.56-10.8.56-6.83 0-13.66-.67-20.4-2.02-1.12-.22-3.75-.75-4.77-3.06-.46-1.06-.41-2.1-.37-2.87.48-9.4 1.04-18.94 1.67-28.34.16-2.34.32-4.68.48-7.02.03-.46.03-.98.03-1.53-.01-1.56-.02-3.33.6-4.79 1.61-3.85 6.86-3.76 10.37-3.7h.05c.54.01 1.03.02 1.45.02l11.01-.22c2.53-.05 5.15-.1 7.79.53.45.1 1.5.35 2.28 1.21.91 1 .96 2.27.99 2.95.65 15.35 1.12 30.91 1.42 46.25zm-4.04-1.77c-.14-7.14-.33-14.33-.55-21.51-.17.07-.35.12-.55.13-3.62.26-7.26.39-10.9.4-.17 7.03-.38 14.05-.66 21.24 4.22.18 8.45.1 12.66-.26zm-1.39-25.37c.25-.02.49.01.72.08-.21-6.36-.44-12.71-.71-19.02 0-.08-.01-.25-.02-.4-.05-.01-.11-.02-.18-.04-2.14-.51-4.5-.47-6.78-.42l-3.16.06-.05 2.46c-.11 5.99-.22 11.84-.34 17.67 3.51 0 7.03-.13 10.52-.39zm-14.18-17.36.05-2.3-3.85.08c-.47 0-1.01-.01-1.6-.02-.38 0-.84-.01-1.34-.01-2.09 0-4.86.16-5.32 1.26-.3.71-.3 2.1-.29 3.22 0 .65 0 1.25-.04 1.83-.16 2.33-.32 4.67-.48 7.01-.13 1.92-.24 3.85-.36 5.78 4.27.47 8.58.75 12.89.86.12-5.84.23-11.71.34-17.71zm-1.08 42.75c.27-7.12.48-14.08.64-21.05-4.36-.1-8.72-.39-13.04-.86-.38 6.18-.74 12.37-1.06 18.51-.01.34-.04.86.04 1.05.06.12.35.44 1.89.75 3.82.76 7.67 1.29 11.53 1.6z"/><path d="m204.27 120.39c.97.26 1.61 1.21 1.47 2.21-.15 1-1.02 1.76-2.03 1.72-67.56-1.52-136.01-1.55-203.6-.09v-4c64.28-1.39 129.35-1.43 193.69-.12-1.75-1.02-3.45-2.11-5.12-3.19-3.8-2.44-7.39-4.74-11.38-6.19-7.92-2.89-17.28-1.92-24.44 2.53-.5.31-1.13.39-1.69.2-.57-.19-1.02-.63-1.23-1.18-2.52-6.59-10.08-11.34-18.38-11.56-6.89-.18-14.48 2.39-22.54 7.62-.62.41-1.42.43-2.07.06s-1.04-1.07-1.01-1.82c.29-7.34-7.07-13.13-14.07-14.28-7.85-1.3-16.05 1.41-23.28 3.8-.89.29-1.87-.08-2.35-.9-.48-.81-.32-1.85.38-2.48 7.11-6.47 14.94-14.38 19.19-24.05 4.43-10.08 4.06-21.02-.98-28.57-3.72-5.57-10.2-9.66-17.78-11.22-6.42-1.33-13.83-.96-22.01 1.09-17.91 4.5-34.11 15.71-44.93 30.71v-6.57c11.24-13.62 26.86-23.72 43.95-28.02 8.77-2.2 16.78-2.58 23.8-1.13 8.6 1.78 15.99 6.49 20.29 12.92 5.8 8.67 6.3 21.09 1.32 32.4-3.31 7.52-8.54 13.96-13.99 19.5 5.45-1.47 11.22-2.39 17.05-1.43 9.59 1.59 15.67 8.29 17.09 14.92 7.74-4.53 15.14-6.72 22.05-6.54 9.14.23 17.3 4.97 21.05 12.01 7.88-4.11 17.61-4.81 25.95-1.77 4.4 1.6 8.35 4.14 12.17 6.59 4.45 2.85 8.65 5.55 13.43 6.83z"/><path d="m167.47 355.76c.02 1.04-.76 1.92-1.79 2.03-3.6.37-7.21.56-10.8.56-6.84 0-13.67-.68-20.41-2.02-1.12-.23-3.75-.75-4.77-3.07-.46-1.05-.41-2.1-.37-2.86.48-9.41 1.05-18.95 1.67-28.34.16-2.35.32-4.69.48-7.03.04-.45.03-.98.03-1.53-.01-1.56-.01-3.32.6-4.79 1.62-3.86 6.92-3.76 10.43-3.69.53.01 1.02.02 1.44.01l11.02-.21c2.53-.05 5.15-.11 7.78.52.45.11 1.5.36 2.28 1.21.91 1 .96 2.27.99 2.95.65 15.35 1.12 30.91 1.42 46.26zm-4.03-1.78c-.14-7.14-.32-14.32-.55-21.5-.17.06-.35.11-.55.13-3.67.26-7.36.39-11.05.4-.21 6.56-.46 13.48-.76 21.03.04.04.08.07.12.11.03.03.05.06.07.09 4.24.18 8.49.1 12.72-.26zm-1.39-25.36c.25-.03.49.01.72.07-.21-6.35-.44-12.7-.71-19.02 0-.08-.02-.25-.02-.39-.05-.01-.11-.03-.18-.05-2.15-.51-4.5-.46-6.78-.42l-3.17.07c-.12 6.55-.29 13.15-.5 20.13 3.56-.01 7.11-.14 10.64-.39zm-14.14-19.66-3.85.07c-.46.01-1.01 0-1.6-.01-1.98-.04-6.09-.12-6.66 1.24-.3.71-.3 2.11-.29 3.23 0 .64 0 1.25-.04 1.82-.16 2.34-.32 4.67-.48 7.01-.12 1.92-.24 3.86-.36 5.79 4.24.46 8.51.74 12.78.85.21-6.93.37-13.5.5-20zm-1.38 45.03c.3-7.55.55-14.48.76-21.03-4.32-.11-8.63-.4-12.91-.86-.38 6.18-.74 12.36-1.05 18.5-.02.35-.05.87.03 1.05.06.12.35.45 1.9.76 3.73.74 7.49 1.26 11.27 1.58z"/><path d="m159.43 464.86c1.76 2.8 2.5 6.01 2.1 9.01-.47 3.4-2.41 6.39-5.21 8-2.29 1.32-4.89 1.6-7.35 1.6-.65 0-1.29-.02-1.91-.04-6.4-.27-12.84-.98-19.14-2.12-2.12 3.37-6.15 4.33-9.82 4.81-9.24 1.22-18.61 1.46-27.85 1.46-3.04 0-6.06-.03-9.06-.05l-.3-.01c-5.93-.05-12.06-.1-18.1-.59-3.4-.28-11.37-.92-13.92-6.58-2.34-5.18 2.66-9.55 5.96-12.43.47-.41.9-.79 1.28-1.14 4.56-4.25 8.96-7.5 13.46-9.94 11.04-6 24.38-7.76 36.6-4.82 6.4 1.53 11.64 4.14 15.59 7.75 1.11 1 2.09 2.08 2.97 3.22 2.64-2.09 5.73-3.75 9.21-4.91 4.78-1.59 9.54-1.96 13.76-1.07 4.99 1.06 9.27 3.92 11.73 7.85zm-1.87 8.48c.28-2.09-.25-4.34-1.52-6.36-1.89-3.01-5.23-5.22-9.17-6.05-3.53-.75-7.56-.42-11.66.95-3.16 1.05-5.94 2.54-8.26 4.43-.02.02-.04.03-.05.04 1.58 3 2.42 6.25 2.4 9.49-.01.57-.04 1.11-.1 1.62 5.94 1.05 12 1.72 18.03 1.97 2.51.1 5.13.11 7.1-1.02 1.7-.99 2.94-2.93 3.23-5.07zm-32.26 2.47c.03-4.61-2.3-9.51-6.23-13.09-3.45-3.14-8.1-5.44-13.84-6.81-3.58-.86-7.26-1.29-10.95-1.29-7.92 0-15.86 1.96-22.81 5.73-4.2 2.28-8.33 5.34-12.64 9.36-.4.37-.87.78-1.37 1.22-3.19 2.79-5.98 5.49-4.95 7.78 1.4 3.1 6.4 3.89 10.6 4.23 5.9.48 11.95.53 17.81.58l.3.01c11.97.1 24.35.21 36.36-1.37 2.76-.37 5.76-1.01 6.98-3.02.49-.8.73-1.89.74-3.33z"/><path d="m91.55 278.94c1.19 2.05 2.51 5.23 1.98 8.73-.31 2.07-1.28 4.16-2.8 6.04-2.92 3.6-7.33 5.8-11.81 5.89h-.26c-3.54 0-7.06-1.31-9.73-3.62-3.28-2.85-5.11-7.17-4.78-11.27.22-2.65 1.3-5.31 3.13-7.68 2.84-3.69 8-7.28 12.6-6.46 4.47.81 9.27 4.25 11.67 8.37zm-1.98 8.13c.36-2.34-.61-4.62-1.48-6.12-1.82-3.13-5.57-5.84-8.92-6.44-.23-.04-.46-.06-.71-.06-2.69 0-6.04 2.47-8.01 5.02-1.36 1.76-2.15 3.68-2.31 5.57-.23 2.85 1.07 5.89 3.41 7.91 1.99 1.74 4.64 2.69 7.3 2.65 3.31-.06 6.59-1.71 8.77-4.4 1.07-1.33 1.75-2.76 1.95-4.13z"/></svg>