<svg id="Capa_1" enable-background="new 0 0 512 512" height="512" viewBox="0 0 512 512" width="512" xmlns="http://www.w3.org/2000/svg"><path d="m511.92 105.973v-2.26c-12.858-6.69-27.626-12.74-43.093-11.34-4.849.44-10.188 2.7-10.618 7.73-.42 5.02 4.819 8.21 6.789 9.4l4.039 2.46c-11.448-1.5-23.856.05-35.884 4.53-.03 0-.06-.01-.09-.02-7.049-.69-13.878-6.84-19.047-12.12-3.21-3.28-6.309-6.79-9.309-10.19-5.109-5.79-10.398-11.77-16.438-16.89-5.639-4.78-10.698-7.7-15.938-9.2-6.729-1.92-13.548-1.19-18.697 2.01-.88.55-2.09 1.46-2.41 3-.27 1.33.28 2.5.54 3.06 1.07 2.29 2.49 4.43 4.199 6.31-9.738-1.15-19.447-.83-27.636 4.28-.45.29-.77.74-.89 1.26s-.02 1.07.27 1.52c1.07 1.66 2.39 3.17 3.889 4.48-11.898 1.1-21.327 4.68-28.096 10.68-1.38 1.23-2.99 2.94-3.139 5.3-.26 3.95 3.469 6.38 7.039 7.35 6.749 1.83 13.818 1.43 20.417.63-1.4 2.04-2.52 4.26-3.31 6.6-.51 1.51-1.12 3.79-.57 6.09.66 2.78 2.909 5.14 6.169 6.51-13.468 13.28-25.686 28.06-36.594 44.22-.15-.22-.34-.42-.58-.58-11.538-7.39-25.166-10.77-35.744-12.88-7.609-1.52-16.577-2.98-25.456-2.21-10.188.89-20.827 4.62-33.455 11.76-4.379 2.47-8.709 5.16-12.898 7.77-5.499 3.42-11.188 6.96-16.987 9.99-1.6-.74-3.21-1.47-4.809-2.21l-.12-.06c-13.778-6.42-28.026-13.06-43.323-11.97-11.368.81-22.007 5.98-31.395 10.54l-30.685 14.91c-18.607-9.03-38.084-16.32-58.061-21.72v4.14c18.347 5.03 36.274 11.67 53.462 19.81l-53.461 25.99v4.44l90.496-43.97c9.058-4.4 19.337-9.4 29.925-10.15 14.268-1.03 28.036 5.4 41.353 11.6l.12.06c32.895 15.34 66.74 29.71 100.604 42.76-.59 1.38-1.19 2.75-1.78 4.14-6.919 16.25-14.048 32.95-24.536 47.09-.6-3.7-2.82-7.11-5.239-9.47-6.789-6.61-16.297-8.79-25.576-10.16-26.406-3.9-53.062-3.19-79.228 2.13-.08.01-.16.04-.24.07-11.318-1.98-22.716-2.87-33.455-3.72-2.1-7.9-4.959-15.64-7.729-23.14-.63-1.71-1.26-3.41-1.88-5.12-1.02-2.79-3.13-8.58-8.859-8.82-4.119-.2-5.839 3.11-7.109 5.51l-.35.68c-1.15 2.12-2.32 4.24-3.479 6.36-3.209 5.85-6.539 11.9-9.519 18.03-.13.26-.24.51-.37.77-13.458-.93-26.996-3.53-40.094-6.05-4.299-.83-8.659-1.66-13.058-2.44v4.06c4.129.75 8.249 1.53 12.298 2.31 12.718 2.45 25.846 4.95 39.034 5.98-1.61 3.48-3.04 6.82-4.329 10.09-.99 2.5-1.98 5.18-2.32 8.07-.26 2.21.07 3.92 1.01 5.23 1.1 1.54 2.839 2.22 4.389 2.68 1.69.51 3.699.99 5.799.75 2.31-.27 4.589-1.43 6.519-3.3l-.08 15.05v.01c0 .4-.01 1.25.52 2.03.07.11.15.22.25.32.53.56 1.16.77 1.61.87h.01c.14.03.26.05.36.07l6.579 1.05c.47.07 1.28.2 2.21.2 1.66 0 3.699-.41 4.889-2.26.77-1.2.82-2.54.85-3.43.18-4.96.1-9.98-.25-14.93-.01-.03-.02-.06-.02-.09.1-.13.21-.25.3-.38.48 1.15 1.12 2.26 2.01 3.25 1.55 1.74 3.959 2.87 6.329 2.87 1.53 0 3.049-.47 4.299-1.56 2.34-2.04 2.67-5.24 2.72-7.48.08-3.97-.41-8.13-1.53-13.14 22.306 1.75 47.363 3.93 67.959 15.71 1.44.82 8.549 5.18 6.969 9.96-.57 1.75-2.32 3.15-3.949 4.29-8.489 5.93-18.757 9.5-28.695 12.95-12.988 4.52-26.406 9.18-36.254 19.2-3.77 3.84-5.419 7.45-5.059 11.04.5 4.89 4.659 8.78 12.048 11.27 10.488 3.54 21.647 5.21 32.435 6.84 15.298 2.3 29.755 4.48 42.773 11.46 5.339 2.86 8.359 5.81 9.508 9.26 1.65 4.96-.95 10.32-3.939 13.68-2.87 3.24-6.499 5.64-10.348 8.18-.91.6-1.82 1.2-2.72 1.82-6.659 4.53-12.828 9.79-18.367 15.64-3.599 3.8-8.259 9.63-7.189 16.28.72 4.51 3.939 8.52 9.848 12.25 16.857 10.66 37.214 13.04 56.901 15.35 20.017 2.34 40.724 4.77 57.011 16.07 7.459 5.17 11.268 11.03 12.728 16.19h4.239c-1.87-8-8.189-14.97-14.688-19.48-17.107-11.87-38.314-14.35-58.821-16.75-19.247-2.26-39.154-4.59-55.241-14.76-4.869-3.08-7.499-6.19-8.029-9.5-.79-4.91 3.129-9.71 6.149-12.9 5.329-5.64 11.288-10.71 17.707-15.09.88-.6 1.78-1.19 2.67-1.78 3.899-2.58 7.919-5.24 11.138-8.86 3.729-4.2 6.929-11.02 4.749-17.6-1.96-5.89-7.459-9.4-11.418-11.53-13.628-7.31-29.105-9.64-44.063-11.89-10.618-1.59-21.607-3.25-31.765-6.67-4.029-1.36-8.929-3.83-9.339-7.88-.23-2.34 1.05-4.9 3.939-7.83 9.179-9.36 21.577-13.67 34.705-18.23 10.198-3.54 20.737-7.2 29.675-13.46 2.17-1.51 4.519-3.45 5.459-6.3 1.68-5.09-1.6-10.59-8.789-14.7-8.529-4.87-17.717-8.15-27.136-10.45 22.706-3.64 45.713-3.78 68.529-.4 8.609 1.27 17.397 3.25 23.366 9.06 2.579 2.52 5.129 6.85 3.829 10.77-.97 2.89-3.809 5.19-8.949 7.23-5.459 2.18-11.338 3.76-17.027 5.29-9.868 2.65-20.077 5.39-28.725 11.34-5.899 4.07-8.949 9.02-8.569 13.96.38 4.97 4.199 9.42 10.748 12.53 10.058 4.78 21.257 5.81 32.075 6.8 4.169.38 8.479.77 12.618 1.37.06.01.11.02.16.03-5.499 3.4-9.149 8.53-9.879 14.03-1.42 10.8 8.409 20.01 18.737 22.67 6.609 1.71 13.438 1.53 20.047 1.37 2.55-.07 5.169-.14 7.749-.09.31 4.85.94 10.46 3.959 15.05 4.019 6.13 11.978 9.66 20.757 9.2 7.449-.39 14.348-3.27 21.347-6.44.01-.01.03-.01.05-.02.04.13.09.3.14.54 2.36 10.31 9.948 19.12 19.797 23 3.759 1.48 7.779 2.21 11.798 2.21 6.479 0 12.948-1.9 18.357-5.57 4.389-2.97 8.959-8.18 9.888-14.35 7.559 6.55 17.637 9.48 26.836 7.56 9.618-2.02 17.497-9.67 19.967-18.61 17.117 6.56 35.354 10.13 51.022 12.76 11.328 1.9 23.886 3.76 36.694 3.76 3.43 0 6.889-.14 10.338-.44v-4.02c-15.978 1.45-32.155-.86-46.373-3.24-15.688-2.63-33.965-6.22-50.952-12.82.05-.59.09-1.18.09-1.77.01-8.53-4.869-16.99-12.748-22.08-5.099-3.29-11.388-5.17-18.167-5.5 3.75-3.08 6.639-6.51 8.629-10.25 3.509-6.56 4.029-14.11 1.41-20.18-.75-1.73-1.77-3.31-2.98-4.74.61-10.49 3.16-24.65 7.609-42.13 8.909-34.97 22.587-79.9 49.512-117.21.28-.39.4-.85.37-1.29.09-.01.18-.01.27-.01 5.379-.26 10.788-.85 16.118-1.75-.68 1.5-1.24 3.09-1.49 4.79-.58 3.86.7 7.51 3.329 9.52 1.78 1.36 3.849 1.81 5.819 1.81 1.48 0 2.889-.25 4.089-.57 8.079-2.12 14.108-7.99 19.217-14.83.27 1.15.69 2.28 1.27 3.36 1.93 3.65 5.289 6.21 8.979 6.85 2.05.35 4.049.21 5.999-.27v-4.14c-1.78.56-3.549.77-5.319.47-2.48-.43-4.769-2.21-6.129-4.78-1.35-2.56-1.54-5.46-.5-7.75.43-.95.06-2.08-.85-2.58-.92-.5-2.07-.22-2.64.66-5.579 8.54-11.978 16.76-21.037 19.15-1.6.42-4.559.9-6.469-.56-1.45-1.11-2.16-3.36-1.8-5.75.36-2.46 1.67-4.83 2.929-7.12.37-.68.32-1.52-.14-2.15-.46-.62-1.24-.93-2.01-.77-6.429 1.28-13.008 2.1-19.557 2.41-2.25.11-4.609.16-6.629-.54-1.93-.66-3.389-2.07-3.719-3.58-.47-2.15.98-4.64 4.449-7.61 5.879-5.05 12.288-9.55 19.037-13.38.8-.44 1.19-1.37.95-2.25-.23-.88-1.03-1.49-1.93-1.49-.01 0-.01 0-.01 0-4.949.02-9.908-.99-14.428-2.94-2.02-.88-4.809-2.87-4.229-4.77.24-.78 1.1-1.54 1.88-2.18 10.248-8.41 23.716-13.23 36.974-13.23 0 0 .01.01.02 0 .89 0 1.68-.59 1.92-1.46.25-.86-.12-1.78-.88-2.24l-14.728-8.96c-3.479-2.12-5.029-3.91-4.879-5.66.23-2.74 4.509-3.86 6.999-4.08 15.118-1.37 29.915 5.08 42.723 11.89v-2.26c.02.01.05.02.08.04-.011-.02-.041-.03-.071-.05zm-436.322 198.92c-.01.45-.04 1.13-.22 1.41-.1.16-.63.66-3.099.27l-5.959-.95.07-13.08c.92 1.21 1.96 1.97 3.169 2.28 1.27.33 2.67.15 4.269-.55.59-.26 1.15-.56 1.7-.89.18 3.83.21 7.69.07 11.51zm14.048-13.72c-1.33 1.15-3.789.43-5.029-.95-1.66-1.86-2.11-4.72-2.32-7-.09-.99-.9-1.76-1.89-1.82h-.1c-.95 0-1.78.67-1.96 1.61-.67 3.32-3.02 6.23-6.119 7.59-.74.33-1.3.44-1.66.35-.3-.08-.79-.39-1.41-1.45-1.18-2.01-1.73-4.4-1.56-6.72.07-.95-.54-1.82-1.46-2.08-.92-.25-1.89.18-2.32 1.03-1.02 2.04-2.08 4.14-3.519 5.8-1.46 1.69-3.189 2.72-4.879 2.92-1.38.16-2.889-.22-4.199-.61-.94-.28-1.88-.62-2.28-1.18-.32-.46-.42-1.28-.29-2.44.28-2.4 1.18-4.81 2.07-7.06 1.81-4.6 3.899-9.32 6.389-14.44 2.95-6.04 6.249-12.05 9.438-17.86 1.16-2.12 2.33-4.25 3.479-6.38l.38-.71c1.27-2.4 1.98-3.44 3.4-3.39 2.55.11 3.909 2.45 5.269 6.2.62 1.71 1.26 3.42 1.89 5.13 2.83 7.66 5.749 15.58 7.819 23.56 1.61 6.19 2.29 10.93 2.2 15.36-.049 2.34-.479 3.78-1.339 4.54zm238.183-161.46c-.24-.99-.09-2.22.47-3.88 1.16-3.43 3.149-6.58 5.759-9.1.63-.6.79-1.53.41-2.31s-1.22-1.23-2.07-1.11c-7.589 1.05-16.198 2.25-23.956.15-2.03-.55-4.179-1.8-4.089-3.23.06-.92 1.06-1.9 1.8-2.56 7.199-6.38 17.907-9.75 31.835-10.03.94-.02 1.74-.7 1.92-1.62.18-.93-.31-1.85-1.18-2.22-2.45-1.04-4.669-2.69-6.389-4.74 8.739-4.43 19.547-3.42 30.005-1.62.94.17 1.87-.36 2.21-1.26s-.01-1.91-.83-2.41c-3.6-2.2-6.559-5.51-8.339-9.32-.13-.29-.19-.45-.22-.54.08-.08.24-.22.58-.43 4.199-2.61 9.839-3.18 15.488-1.56 4.669 1.33 9.268 4.01 14.458 8.4 5.819 4.93 10.998 10.81 16.017 16.49 3.03 3.43 6.169 6.99 9.449 10.33 4.589 4.7 9.918 9.53 15.888 11.9-8.289 3.81-16.428 8.99-24.596 15.66-.48-.06-.98.05-1.4.35-2.82 2-7.899 2.44-11.108.95-3.139-1.46-5.449-4.76-5.739-8.22-.08-.93-.79-1.69-1.72-1.81-.93-.13-1.82.4-2.15 1.27-1.34 3.59-3.789 6.4-6.689 7.73-3.13 1.43-6.879 1.01-9.139-1.03-2.29-2.07-2.71-5.91-.87-8.05.7-.81.64-2.03-.14-2.76-.77-.73-1.98-.73-2.75.01-4.099 3.91-8.829 6.99-14.068 9.16-4.049 1.67-9.918 3.24-14.908 1.22-2.1-.86-3.579-2.28-3.939-3.81zm-154.906 67.6c4.989-2.75 9.848-5.75 14.568-8.68 4.149-2.59 8.449-5.26 12.758-7.69 12.108-6.84 22.227-10.42 31.825-11.25 8.389-.73 17.007.67 24.326 2.14 10.248 2.05 23.406 5.3 34.375 12.33.22.14.47.23.71.28-9.819 14.95-18.547 31.05-26.086 48.22-.45 1.01-.87 2.04-1.31 3.05-30.646-11.8-61.261-24.7-91.166-38.4zm91.476 47.78c1.55-3.62 3.09-7.23 4.659-10.82 16.157-36.82 37.764-68.65 64.21-94.63.4-.38.6-.9.6-1.41 4.219.7 9.019-.04 14.328-2.24 3.699-1.52 7.159-3.47 10.358-5.81.22 2.5 1.33 4.97 3.27 6.73 3.459 3.12 8.869 3.81 13.478 1.7 2.46-1.12 4.659-3.01 6.369-5.41 1.41 2.78 3.729 5.11 6.589 6.43 1.82.85 3.979 1.25 6.179 1.25.31 0 .61-.01.92-.03-1.28 1.17-2.56 2.37-3.839 3.62-32.755 31.89-53.062 73.36-71.069 113.1-7.559 16.69-15.318 34.38-21.047 52.88-1.9-.53-3.869-.77-5.839-.72l.36-.51c6.789-10.12 2.05-24.76-6.249-32.53-5.299-4.96-14.918-7.33-26.006.92-.13.09-12.468 9.38-9.779 17.1.45 1.28 1.34 2.17 2.14 2.91 1.86 1.72 3.869 3.29 5.999 4.68-.38.48-.7 1.04-.95 1.65-.72 1.77-.82 3.95-.34 5.98-9.189-.49-18.097-3.84-25.346-9.53 14.227-15.93 22.766-35.94 31.005-55.31zm.15 55.28c-2.81-1.59-5.439-3.51-7.809-5.69-.45-.41-.93-.88-1.07-1.29-1.13-3.24 4.239-9.49 8.379-12.57 3.52-2.62 7.949-4.61 12.288-4.61 3.03 0 6.019.98 8.609 3.4 7.129 6.68 11.098 19.27 5.659 27.38-3.539 5.26-8.509 8.78-13.638 9.65-5.629.95-11.578-1.74-13.848-6.24-.77-1.52-.9-3.55-.33-4.94.31-.76.77-1.24 1.42-1.45.74-.26 1.27-.93 1.35-1.71.069-.78-.32-1.54-1.01-1.93zm-52.642 47.57c-10.958-1-21.317-1.94-30.725-6.42-3.01-1.43-8.119-4.53-8.479-9.23-.36-4.66 4.139-8.49 6.849-10.36 8.079-5.56 17.507-8.09 27.486-10.77 5.809-1.56 11.798-3.17 17.477-5.43 1.73-.69 3.749-1.6 5.629-2.85.08.1.17.19.27.27 8.509 6.87 19.217 10.72 30.145 10.85h.03c.01 0 .03-.01.04-.01 3.02 4.24 8.379 6.84 13.998 6.84 1 0 2-.08 2.999-.25 4.349-.73 8.559-2.99 12.118-6.39.22.02.43.01.65-.04 2.57-.63 5.299-.57 7.849.13-.56 1.92-1.1 3.84-1.62 5.77-.03.12-.04.24-.05.35-4.629 3.67-7.999 8.67-9.239 14.19-.43 1.9-.73 2.36-.91 2.4-.2.04-.7-.2-1.51-.74-9.589-6.35-18.527-8.83-26.576-7.35-5.479 1.01-10.588 4.43-13.688 9.16-2.06 3.16-3.01 6.65-2.77 10.03-4.219.52-8.779 1.31-13.058 3.01-.77-.77-2.02-1.45-4.089-1.75-4.248-.62-8.607-1.02-12.826-1.41zm176.962 10.46c-2.54 4.76-6.789 9-12.648 12.6-.8.49-1.15 1.46-.85 2.34.3.89 1.17 1.44 2.09 1.36 8.389-.85 16.318.82 22.316 4.7 6.639 4.28 10.918 11.63 10.908 18.7-.01 9.42-7.749 18.41-17.607 20.47-9.219 1.93-19.917-2.05-26.606-9.89-.59-.7-1.58-.9-2.4-.5s-1.27 1.31-1.07 2.21c1.29 6.1-3.12 12.22-8.079 15.58-7.679 5.22-17.807 6.34-26.446 2.95-8.639-3.4-15.288-11.13-17.357-20.18-.2-.87-.73-3.18-2.92-3.71-.26-.06-.52-.09-.77-.09-.88 0-1.61.34-2.06.54-6.629 3-13.138 5.73-19.897 6.08-5.769.31-13.328-1.48-17.207-7.39-2.81-4.29-3.13-9.94-3.419-14.92-.05-1.03-.88-1.84-1.91-1.89-3.28-.13-6.609-.05-9.819.04-6.629.17-12.878.32-18.947-1.24-11.008-2.84-16.657-11.52-15.768-18.27.62-4.7 4.259-9.3 9.488-12 5.109-2.64 11.188-3.48 16.487-4.06.57-.06 1.09-.36 1.42-.83s.45-1.05.32-1.61c-.9-3.8.53-7.07 1.88-9.14 2.47-3.77 6.709-6.61 11.058-7.41 6.999-1.29 14.948.98 23.646 6.74 1 .67 2.68 1.78 4.659 1.3 2.81-.69 3.48-3.65 3.869-5.42 1.76-7.84 8.699-14.49 17.267-16.56 7.979-1.92 17.207-.15 24.706 4.73 3.699 2.42 6.869 5.54 9.139 9.01 1.13 1.72 1.96 3.6 2.85 5.6.8 1.81 1.63 3.67 2.709 5.45.93 1.54 2.25 3.32 4.249 3.46 2.13.14 3.549-1.6 5.049-3.44.31-.38.63-.78.98-1.18l.38-.45c4.129-4.82 8.019-9.38 14.198-10.09 7.159-.83 14.628 3.34 17.377 9.7 2.145 4.96 1.675 11.21-1.265 16.71zm52.372-229.51c-1.24 1.01-2.62 2.25-3.18 4.11-1.26 4.15 2.34 7.81 6.469 9.6 3.06 1.32 6.319 2.26 9.629 2.78-4.999 3.18-9.778 6.72-14.268 10.57-1.72 1.48-6.959 5.98-5.749 11.5.64 2.9 3.06 5.4 6.329 6.52 1.16.4 2.35.61 3.529.72-26.846 37.65-40.524 82.55-49.432 117.55-4.079 16.01-6.589 29.32-7.499 39.67-4.179-2.99-9.478-4.51-14.768-3.9-7.739.9-12.328 6.27-16.777 11.47l-.38.45c-.37.43-.71.85-1.04 1.25-.55.67-1.27 1.56-1.69 1.89-.2-.17-.56-.57-1.09-1.45-.94-1.56-1.69-3.23-2.47-5.01-.92-2.05-1.86-4.17-3.159-6.16-2.58-3.93-6.139-7.45-10.308-10.17-8.399-5.47-18.797-7.44-27.826-5.27-2.1.51-4.109 1.27-6.009 2.22 5.769-20.3 14.278-39.76 22.547-58.01 17.837-39.39 37.954-80.48 70.209-111.88 12.498-12.17 24.666-20.64 37.194-25.89 12.408-5.21 25.366-7.09 37.174-5.5-10.008 1.99-19.476 6.4-27.435 12.94z"/><path d="m463.977 455.923c-2-3.24-4.849-7.21-9.258-9.2-4.979-2.25-11.308-1.63-18.307 1.81-5.479 2.68-10.388 6.26-14.628 10.63-1.31-1.02-2.6-1.96-3.749-2.8l-.92-.67c-6.899-5.06-13.958-8.04-20.967-8.84-9.988-1.16-20.947 2.01-32.575 9.4-3.959 2.52-8.959 6.07-12.378 11.12-2.32 3.44-2.03 5.91-1.37 7.38.87 1.92 2.63 2.92 4.399 3.72 12.848 5.81 26.646 7.14 42.053 8.18 4.359.29 8.489.53 12.498.53 3.799 0 7.499-.21 11.178-.8 4.009-.64 9.199-2.73 11.748-6.68.37-.57.67-1.16.9-1.77.01 0 .02.01.04.01 5.039.68 10.138 1.02 15.238 1.02 1.76 0 3.519-.04 5.279-.13 4.209-.19 8.929-.85 11.958-4.25 2.18-2.45 3.12-6.14 2.51-9.89-.549-3.42-2.239-6.48-3.649-8.77zm-35.634 21.61c-1.72 2.66-5.769 4.38-9.019 4.9-7.759 1.24-16.087.68-22.776.23-15.008-1.01-28.436-2.3-40.684-7.83-1.05-.48-2.07-1.02-2.39-1.72-.46-1.03.45-2.63 1.04-3.49 3-4.45 7.569-7.68 11.208-9.99 9.418-5.99 18.267-9.02 26.376-9.02 1.21 0 2.41.07 3.59.21 6.309.73 12.728 3.45 19.067 8.1l.93.68c4.459 3.25 11.928 8.7 13.268 13.62.44 1.59.24 3-.61 4.31zm33.795-5.61c-2.05 2.29-5.779 2.76-9.169 2.92-6.479.3-13.038.02-19.537-.83-.1-.11-.21-.2-.33-.29-.06-.51-.14-1.03-.29-1.55-1.03-3.8-4.319-7.39-7.909-10.48 3.859-3.92 8.309-7.15 13.268-9.57 4.109-2.02 10.029-3.96 14.898-1.76 3.419 1.55 5.809 4.91 7.509 7.66 1.29 2.1 2.67 4.6 3.109 7.31.41 2.57-.169 5.03-1.549 6.59z"/><path d="m363.643 294.463c-3.909-1.52-8.249-1-12.238 1.46-4.839 2.97-9.209 9.19-7.409 15.81 1.09 3.99 4.459 7.38 9.009 9.09.09.03 5.319 1.91 10.278 1.91 2.84 0 5.579-.61 7.219-2.54 3.449-4.03 2.48-12.57 1.47-16.07-1.33-4.61-4.359-8.13-8.329-9.66zm3.82 23.14c-1.72 2.02-8.879 1.04-13.048-.53-3.359-1.25-5.809-3.64-6.559-6.39-1.21-4.43 1.93-9.07 5.639-11.36 1.85-1.13 3.769-1.71 5.619-1.71 1.06 0 2.1.19 3.09.58 2.79 1.08 4.949 3.64 5.929 7.04 1.039 3.62 1.289 10.07-.67 12.37z"/><path d="m206.138 71.663c5.399.83 10.888.97 16.197 1.11l66.639 1.76c1.29.03 2.59.08 3.889.12 4.849.18 9.879.36 14.858-.14 1.82-.18 3.689-.01 5.669.17 1.44.14 2.9.27 4.369.27 2.13 0 4.289-.28 6.449-1.25.76-.34 1.85-.94 2.46-2.1.48-.93.56-1.96.2-2.97-.73-2.13-3.009-3.3-3.689-3.61-4.689-2.1-9.938-2.96-15.048-2.48.31-1.09.58-2.22.62-3.45.23-6.19-5.659-10.95-11.478-11.97-4.009-.7-7.969-.15-11.798.39-1.07.15-2.17.31-3.25.43 4.079-10.86.49-23.92-8.609-31.14-9.159-7.28-22.826-7.78-32.495-1.19-5.919 4.04-10.288 10.44-12.308 18.03-1.54 5.8-1.68 12.3-.43 18.94l-7.869-.66c-3.119-.26-7.829-.66-11.398 1.85-4.979 3.51-5.159 10.1-4.669 16.08.071.92.771 1.67 1.691 1.81zm5.279-14.61c2.2-1.55 5.399-1.43 8.759-1.14l10.568.88c.63.06 1.26-.2 1.68-.69s.58-1.15.43-1.77c-1.69-6.93-1.75-13.73-.17-19.67 1.74-6.56 5.639-12.3 10.688-15.74 8.129-5.54 20.067-5.1 27.766 1.01 7.699 6.12 10.818 17.65 7.269 26.82-.77 1.98-.57 3.5.59 4.51 1.07.93 2.41.79 2.969.73 1.37-.14 2.74-.33 4.059-.52 3.689-.51 7.179-1 10.558-.41 4.039.71 8.319 3.93 8.179 7.89-.04 1.01-.36 2.09-.69 3.22-.23.77-.46 1.56-.63 2.4-.13.66.08 1.34.55 1.81s1.15.67 1.81.54c5.259-1.07 10.838-.45 15.728 1.75.77.35 1.31.85 1.5 1.14-.08.05-.23.13-.46.24-2.69 1.21-5.669.94-8.809.65-1.43-.13-2.9-.26-4.389-.26-.67 0-1.36.03-2.04.09-4.719.47-9.599.3-14.328.13-1.31-.05-2.62-.1-3.929-.13l-66.64-1.75c-4.649-.13-9.449-.25-14.118-.85-.23-4.37.13-8.79 3.1-10.88z"/><path d="m37.564 105.913c4.679 2.36 9.539 2.15 14.238 1.94 2.74-.12 5.319-.24 7.829.13 6.669.98 13.458 1.05 20.027 1.12 1.77.02 3.529.03 5.289.07l90.416 1.82c2.87.06 5.779.12 8.709.12 4.389 0 8.819-.13 13.218-.6.92-.1 1.66-.81 1.78-1.73 1-7.88 1.19-16.58-5.049-21.42-4.129-3.21-9.389-3.29-14.868-3.09l-11.648.44c2.29-9.13 2.58-18.17.82-26.3-2.21-10.24-7.639-19.04-15.268-24.78-12.448-9.35-30.635-9.53-43.263-.42s-18.207 26.43-13.248 41.19c.11.33.17.58.21.76-.07-.01-.14-.02-.22-.03-1.75-.26-3.549-.6-5.289-.93-5.099-.96-10.378-1.96-15.747-1.27-7.639.98-15.598 6.78-15.688 14.8-.02 1.97.43 3.8.86 5.57-7.099-1.19-14.528-.43-21.217 2.22-1.81.71-4.029 2.2-4.839 4.25-.47 1.16-.44 2.36.08 3.48.649 1.41 1.948 2.19 2.868 2.66zm.76-4.66c.27-.67 1.38-1.53 2.6-2.01 6.899-2.73 14.658-3.23 21.857-1.41.65.16 1.34-.01 1.84-.46.49-.45.73-1.12.63-1.78-.17-1.12-.43-2.19-.69-3.23-.39-1.6-.76-3.12-.75-4.59.06-5.83 6.249-10.11 12.198-10.87 4.729-.61 9.479.29 14.498 1.23 1.78.34 3.619.68 5.439.96.74.1 2.27.33 3.53-.67 1.38-1.09 1.67-2.87.86-5.29-4.339-12.93.73-28.7 11.798-36.68 11.058-7.98 27.616-7.81 38.524.38 6.759 5.09 11.778 13.26 13.758 22.43 1.79 8.26 1.28 17.59-1.47 26.99-.18.62-.06 1.28.34 1.79.39.51 1.01.79 1.65.77l14.368-.54c4.709-.18 9.188-.14 12.268 2.25 4.289 3.32 4.399 9.87 3.719 16.17-6.579.57-13.318.44-19.847.3l-90.416-1.82c-1.77-.04-3.549-.05-5.329-.07-6.429-.07-13.088-.14-19.487-1.08-1.5-.22-3.01-.29-4.499-.29-1.38 0-2.74.06-4.089.12-4.379.2-8.509.38-12.248-1.51-.75-.38-.99-.63-1.06-.78-.032-.08-.052-.14.008-.31z"/><path d="m86.566 374.963c.85-1.55 1.35-3.26 1.52-4.86.42-4.15-.92-8.18-2.32-11.95-6.459-17.37-14.528-33.11-24.036-46.87-.37-.55-.75-1.1-1.14-1.65-.39-.54-.78-1.09-1.17-1.63-.28-.39-.56-.78-.85-1.17-4.069-5.54-8.409-8.07-12.928-7.55-7.769.91-12.998 10.66-15.428 16.38-1.13 2.69-2.28 5.37-3.42 8.06-6.109 14.38-12.428 29.26-18.137 44.14-2.5 6.52-.78 9.64 1.13 11.12-3.269 7.68-6.579 15.46-9.788 23.33v10.69c4.379-11.08 9.029-22.03 13.618-32.79 2.36-.07 5.009-1.38 7.609-3.86 3.959-3.76 7.539-7.88 10.708-12.3.02 2.32.32 4.63.91 6.87.84 3.18 2.34 5.21 4.469 6.03 3.069 1.19 6.599-.44 9.438-4.35 1.43-1.96 2.69-4.05 3.789-6.23.67 4.07 2.04 7.96 4.889 11.04.69.76 1.8 1.77 3.349 1.95 2.32.26 4.329-1.37 5.529-4.46.66-1.72 1.21-3.48 1.63-5.27.14.33.28.66.43.98 2.13 4.67 6.399 9.71 11.828 9.71.54 0 1.1-.05 1.66-.16 1.49-.28 2.78-.91 3.859-1.77 8.909 19.87 18.477 42.89 22.386 67.03.75 4.66.25 7.59-1.54 8.94-1.78 1.35-4.599.72-6.289-.67-1.74-1.43-3.009-3.69-3.979-7.1-.19-.67-.71-1.19-1.37-1.38-.67-.19-1.38-.02-1.89.44-.1.09-.2.19-.29.29-.03.02-.06.06-.09.09-1.44 1.59-1.65 3.69-1.83 5.41-.04.38-.08.76-.13 1.13-.14.98-.67 1.86-1.1 2.15-.12.08-.16.07-.2.06-.24-.06-.71-.57-.88-.77-2.32-2.52-4.289-5.35-5.849-8.41-.35-.69-1.07-1.09-1.85-1.09-.77.03-1.46.5-1.77 1.21-.52 1.22-.92 2.46-1.3 3.66-.41 1.28-.79 2.48-1.31 3.61-1.01 2.21-2.49 3.72-4.059 4.13-1.6.41-3.639-.27-5.189-1.73-1.62-1.55-2.68-3.73-3.579-5.85-.39-.91-1.38-1.41-2.34-1.16-.96.24-1.59 1.15-1.49 2.14.23 2.3-.69 4.69-2.4 6.25-.74.67-1.49 1.03-2.11 1.03 0 0 0 0-.01 0-1.23 0-2.37-1.44-2.97-2.67-.29-.6-.54-1.24-.81-1.93-.55-1.41-1.12-2.87-2.14-4.2-.46-.6-1.22-.89-1.97-.75-.74.14-1.34.7-1.55 1.43-.64 2.29-1.36 4.88-2.96 6.55-1.22 1.27-3.469 1.99-4.749.98-.59-.47-1.03-1.29-1.43-2.1-1.06-2.14-1.96-4.38-2.68-6.66-.25-.81-1-1.37-1.85-1.4-.87-.02-1.63.51-1.93 1.31-1.08 2.91-2.81 5.61-4.999 7.81-.82.83-1.48 1.22-1.94 1.23-.51-.01-1.19-.58-1.87-1.56-1.57-2.29-2.44-5.08-2.43-7.86 0-.75-.41-1.44-1.07-1.78-.66-.35-1.46-.29-2.07.13l-12.168 8.5c-.58.41-1.14.78-1.68 1.11v4.62c1.69-.86 3.09-1.84 3.969-2.45l9.379-6.56c.48 2.35 1.43 4.6 2.78 6.56 1.83 2.67 3.769 3.26 5.079 3.29 2.17.07 3.799-1.35 4.849-2.41 1.45-1.45 2.72-3.09 3.789-4.85.39.93.81 1.84 1.25 2.74.58 1.16 1.3 2.49 2.54 3.47 1.13.89 2.42 1.29 3.729 1.34l-1.37 23.91c-.04.73-.11 1.96.66 3.05.8 1.16 2.1 1.52 2.719 1.69 3.77 1.04 7.689 1.55 11.618 1.55 4.729 0 9.459-.75 13.918-2.24.44-.14 1.47-.49 2.07-1.49.47-.78.45-1.59.44-2.02-.24-8.91-1.33-17.8-3.24-26.51 2.26 1.44 4.879 1.96 7.199 1.36 2.79-.72 5.169-2.98 6.699-6.34.51-1.12.9-2.26 1.26-3.38 1.26 1.93 2.67 3.75 4.229 5.45.5.55 1.45 1.57 2.84 1.93 1.16.3 2.37.09 3.41-.61 1.44-.96 2.55-2.88 2.84-4.9v-.03c.87 1.48 1.89 2.69 3.079 3.67 2.92 2.4 7.719 3.43 11.238.77 4.579-3.46 3.449-10.47 3.079-12.77-4.089-25.35-14.247-49.32-23.476-69.82zm-2.459-5.27c-.28 2.77-2.13 6-4.989 6.54-3.689.69-7.229-3.16-9.108-7.28-1.67-3.66-2.73-7.55-3.14-11.55-.11-1.03-.98-1.8-1.99-1.8-.06 0-.12 0-.18.01-1.09.1-1.9 1.06-1.82 2.15.42 5.3-.38 10.73-2.3 15.7-.55 1.41-1.15 1.96-1.36 1.92-.02 0-.27-.05-.85-.68-4.039-4.37-4.419-11.12-4.459-17.67 0-1-.76-1.85-1.75-1.97-1-.12-1.94.51-2.19 1.49-1.25 4.88-3.479 9.62-6.449 13.7-1.26 1.73-3.27 3.55-4.769 2.97-1.07-.41-1.7-2.03-2.04-3.32-1.27-4.84-.99-10.09.78-14.78.38-.98-.07-2.08-1.03-2.52-.95-.44-2.08-.07-2.59.85-4.079 7.44-9.258 14.16-15.398 20-1.17 1.11-3.18 2.6-4.809 2.73-.12-.09-.26-.17-.41-.24-.34-.14-.69-.18-1.03-.13-1.56-1.23-.57-4.61.16-6.52 5.689-14.81 11.998-29.66 18.097-44.01 1.14-2.68 2.28-5.37 3.42-8.06 3.5-8.26 8.059-13.48 12.208-13.97 2.969-.35 6.079 1.66 9.239 5.95 10.658 14.49 19.627 31.42 26.666 50.34 1.291 3.47 2.421 6.85 2.091 10.15zm-43.663 116.79c-.23-.06-.37-.11-.47-.14 0-.17.01-.41.02-.52l1.43-25.1c.87-.45 1.67-1.03 2.33-1.72 1.01-1.06 1.75-2.28 2.32-3.53.19.46.4.94.62 1.41 1.5 3.07 3.939 4.91 6.549 4.92h.03c1.64 0 3.299-.71 4.799-2.07.6-.55 1.13-1.17 1.6-1.84 2.2 9.19 3.469 18.61 3.739 28.05-7.36 2.4-15.508 2.6-22.967.54z"/></svg>