<svg id="Capa_1" enable-background="new 0 0 512 512" height="512" viewBox="0 0 512 512" width="512" xmlns="http://www.w3.org/2000/svg"><path d="m512 170.91v4c-21.15.36-42.49 1.81-63.22 3.23-24.09 1.65-48.82 3.34-73.48 3.34-7.55 0-15.1-.16-22.62-.53-6.27-.3-12.38-.77-18.17-3.06-2.68-1.05-4.11-2.92-3.82-5 .31-2.23 2.46-3.27 3.16-3.61 9.4-4.57 20.29-4.14 29.65-3.3-.48-2.35.03-5.01 1.56-7.2 1.73-2.48 4.51-4.33 8.5-5.64 6.04-1.99 12.67-2.25 18.88-.83-3.41-5.9-4.02-11.09-1.81-15.48 3.7-7.35 12.95-8.2 20.6-8.13l10.3.11c-1.68-4.98-3.24-11.09-1.46-16.86 2.48-8.08 10.33-12.43 16.85-13.8 6.14-1.3 12.52-.65 18.06.18-3.35-10.21-6.59-21.52-4.66-32.91 2.74-16.08 16.45-29.42 32.6-31.72 10.31-1.46 20.91 1.67 29.08 7.94v5.31c-7.61-6.97-18.37-10.73-28.52-9.29-14.24 2.03-26.8 14.25-29.21 28.43-1.97 11.58 2.02 23.54 5.54 34.09.23.66.08 1.39-.37 1.93-.45.53-1.15.79-1.84.68-5.88-.95-13.2-2.13-19.86-.73-6.78 1.43-12.22 5.77-13.85 11.06-1.6 5.18.12 10.79 2.35 17.05.22.61.12 1.3-.25 1.83-.38.53-1 .84-1.65.84l-13.15-.14c-6.48-.06-14.28.55-16.99 5.92-2.54 5.07 1.18 11.57 4.74 16.13.57.71.57 1.72.02 2.44-.56.73-1.53.99-2.37.63-6.81-2.87-14.75-3.19-21.78-.88-3.13 1.03-5.25 2.38-6.47 4.12-1.15 1.66-1.5 4.36-.05 5.85.58.6.73 1.5.37 2.26-.37.76-1.16 1.21-2 1.13-9.56-.93-21.46-2.09-31.06 2.57-.52.26-.77.44-.88.55.16.18.57.48 1.26.75 5.23 2.07 10.97 2.5 16.9 2.79 31.84 1.55 64.27-.67 95.63-2.81 20.81-1.43 42.22-2.88 63.49-3.24z"/><path d="m320.85 63.8c18.35 0 33.27 14.93 33.27 33.28s-14.92 33.28-33.27 33.28-33.28-14.93-33.28-33.28 14.93-33.28 33.28-33.28zm29.27 33.28c0-16.15-13.13-29.28-29.27-29.28-16.15 0-29.28 13.13-29.28 29.28 0 16.14 13.13 29.28 29.28 29.28 16.14 0 29.27-13.14 29.27-29.28z"/><path d="m308.56 195.48c1.68 1.39 3.88 3.58 3.62 6.57-.3 3.45-3.56 5.7-8.95 6.16-34.22 2.9-69.09 2.05-102.82 1.22-25.62-.63-52.11-1.28-78.09-.27-9.79.38-19.74 1-29.37 1.6-15.67.98-31.79 1.99-47.83 1.99-2.81 0-5.61-.03-8.41-.09-12.24-.3-24.56-1.29-36.71-2.48v-4.03c12.2 1.2 24.56 2.21 36.81 2.51 18.62.44 37.57-.74 55.89-1.89 9.65-.6 19.63-1.23 29.46-1.61 26.11-1.01 52.67-.36 78.35.27 33.62.83 68.38 1.68 102.38-1.21 2.37-.2 5.17-.98 5.31-2.51.07-.84-.65-1.87-2.19-3.15-10.44-8.63-25.08-11.87-38.19-8.45-.88.23-1.8-.16-2.25-.95-.44-.79-.3-1.78.35-2.42 1.94-1.9 1.57-4.43 1.18-5.77-1-3.46-4.09-6.47-7.35-7.17-6.24-1.33-12.63 1.84-19.18 5.5-.81.45-1.84.28-2.46-.42-.63-.69-.68-1.73-.14-2.49 3.64-5.08 7.5-12.53 5.26-19.23-1.76-5.29-7.38-9.4-14.3-10.49-6.59-1.03-13.37.41-19.92 1.8-.8.17-1.63-.17-2.08-.85-.46-.68-.45-1.57.01-2.24 7.66-11.14 10.24-23.35 7.08-33.51-3.22-10.33-15.1-19.44-26.21-16.15-11.89 3.52-17.08 18.55-16.07 31.59.07.86-.43 1.67-1.23 2-.8.34-1.73.11-2.29-.55-3.84-4.55-11.66-12.06-20.79-11.37-8.32.62-14.71 8-17.35 15.02-3.02 8.03-2.86 16.88-2.7 25.45.02.83-.48 1.58-1.26 1.89-.77.31-1.65.11-2.21-.5-4.91-5.33-12.95-6.19-18.84-5.23-7.1 1.16-13.66 4.68-20.01 8.08-.81.43-1.8.26-2.42-.41s-.7-1.67-.21-2.44c3.13-4.86 5.87-9.61 5.01-14.37-.89-4.92-5.71-8.37-10.09-9.61-5.14-1.46-10.7-.93-16.08-.41-.84.08-1.65-.38-2.01-1.15-.35-.77-.19-1.68.42-2.27 10.02-9.77 20.85-21.72 25.14-36.25 3.82-12.94 1.32-30.44-10.86-38.84-13.25-9.13-31.55-4.18-44.26 3.49-12.09 7.3-22.26 17.51-29.7 29.43v-7.16c7.35-10.29 16.75-19.13 27.63-25.7 13.79-8.31 33.79-13.56 48.6-3.36 10.09 6.96 18.28 23.46 12.42 43.28-3.98 13.49-13.1 24.71-22.29 34.1 3.96-.23 8.1-.14 12.08.99 6.8 1.93 11.88 6.93 12.94 12.75.7 3.91-.34 7.64-2.07 11.2 4.7-2.33 9.77-4.43 15.12-5.3 7.11-1.16 13.86.12 18.88 3.46-.05-7.36.29-15.26 3.02-22.53 3.77-10.02 11.93-16.93 20.79-17.6 6.82-.52 13.97 2.62 20.54 8.91.53-13.2 6.75-26.8 19.02-30.43 10.96-3.24 26.45 3.68 31.16 18.81 3.14 10.09 1.29 21.87-5.06 32.92 5.36-1.03 11.11-1.78 16.76-.89 8.39 1.31 15.25 6.49 17.49 13.18 1.64 4.91.93 10.56-2.04 16.6 5.1-2.35 10.22-3.75 15.59-2.61 4.69 1 8.95 5.09 10.37 9.96.55 1.92.61 3.79.2 5.48 13.14-2.07 27.14 1.65 37.41 10.15z"/><path d="m101.46 296.13c.43.89.7 1.87.75 2.93.02.35.01.69-.02 1.02h320.5c-.42-.35-.84-.7-1.24-1.08-.75-.7-1.54-1.6-1.75-2.87zm-30.44-18.29c.12-.02.25-.05.38-.07.74-.12 1.54-.16 2.37.11 1.51.5 2.39 1.77 2.68 3.16 3.45-1.75 7.15-3.01 10.94-3.71 3.8-.71 6.68.35 7.71 2.84 1.23 2.97-1.14 5.79-1.92 6.71-1 1.2-2.04 2.38-3.1 3.55 1.47-.07 2.97.03 4.48.39 1.1.27 2.23.74 3.28 1.4.17-.05.35-.09.54-.09h323.09c.81-.62 1.87-1.11 3.13-1.42 4.78-1.2 9.66-1.87 14.57-2-.41-.45-1.14-1.32-1.19-2.54-.08-2.04 1.61-3.55 4.32-3.84 8.62-.93 17.16.2 25.49 1.63l-.78-1.07c-.37-.52-1.07-1.48-1-2.75.05-.91.47-1.73 1.18-2.32 1.44-1.19 3.57-1 4.19-.92 3.66.51 7.31 1.45 10.79 2.79-.44-1.23-.72-2.53-.82-3.84-.05-.7.27-1.39.84-1.79.58-.41 1.33-.48 1.98-.19l27.83 12.55v4.39l-25.72-11.6c.65 1.45 1.6 2.76 2.79 3.82.76.68.89 1.83.29 2.66-.59.83-1.72 1.08-2.61.58-4.87-2.77-10.37-4.64-15.92-5.4-.13-.02-.25-.03-.36-.03l3.47 4.77c.49.66.52 1.55.08 2.24-.43.69-1.25 1.05-2.05.91-9.58-1.72-19.5-3.51-29.24-2.45-.1.01-.19.02-.28.04 1.02 1.03 2.14 1.96 3.36 2.76.75.5 1.08 1.44.79 2.3-.28.86-1.11 1.42-2 1.37-6.41-.35-12.81.25-19.03 1.81-1.07.26-1.73.7-1.91.92.05.08.19.26.54.59 1.39 1.32 2.95 2.47 4.62 3.4.71.4 1.11 1.19 1.01 2-.11.81-.69 1.48-1.48 1.68-6.49 1.68-12.81 4.07-18.79 7.1-.89.45-1.43 1-1.6 1.28.09.06.3.17.71.33 6.88 2.63 14.87 2.35 21.91 2.09.96-.05 1.83.64 2.03 1.59s-.31 1.91-1.21 2.27c-1.51.6-3.07 1.22-4.07 2.27-.77.81-1.08 2.02-.69 2.69.08.14.2.28.35.41.19.17.44.33.75.48.09.04.18.09.28.13.03.01.07.02.1.04.19.07.38.15.61.23 7.24 2.46 15.26-.44 20.72-3.3.92-.49 2.05-.19 2.61.68.56.88.36 2.03-.45 2.67-.37.28-.39.77-.35 1.14.09.85.65 1.69 1.32 2 1.45.68 3.56.28 5.62-1.07.98-.65 1.91-1.44 2.89-2.27 1.07-.91 2.18-1.85 3.43-2.66.6-.38 1.36-.42 1.99-.1s1.05.95 1.09 1.66c.07 1.13-.11 2.23-.27 3.21-.25 1.51-.37 2.47.03 3.08.42.64 1.66.84 2.7.45 1.36-.52 2.53-1.76 3.66-2.96l5.58-5.92c.73-.77 1.92-.84 2.73-.17 1.73 1.43 1.77 3.55 1.8 5.1.01.78.03 1.52.21 2.02.18.48.6.82 1.24 1.01 1.07.31 2.41.07 3.27-.58 1.8-1.38 2.68-3.85 3.56-6.7.29-.96 1.26-1.56 2.24-1.39 1 .17 1.71 1.05 1.67 2.06-.08 1.84-.16 3.75.34 5.4.45 1.51 1.46 2.69 2.57 3.01 1.67.48 3.64-.78 4.94-2.12.63-.65 1.21-1.37 1.82-2.13 1.08-1.33 2.18-2.7 3.65-3.82.62-.49 1.48-.55 2.17-.17.19.1.35.23.49.38v9.83c-1.25-1.14-2.22-2.59-2.81-4.18-.13.15-.26.31-.38.47-.65.8-1.31 1.62-2.07 2.4-2.72 2.82-6.06 4.01-8.92 3.18-2.22-.64-4.04-2.44-5.01-4.88-.52.67-1.13 1.3-1.84 1.84-1.86 1.42-4.53 1.9-6.81 1.24-1.87-.55-3.24-1.78-3.87-3.46-.38-1.04-.43-2.11-.45-3.07l-3.21 3.4c-1.3 1.38-2.93 3.1-5.15 3.94-2.44.94-5.79.55-7.46-1.98-.82-1.25-.97-2.6-.9-3.87-.86.72-1.75 1.44-2.73 2.09-3.27 2.15-6.74 2.64-9.5 1.36-1.8-.84-3.15-2.66-3.54-4.72-6.75 2.82-13.07 3.53-18.53 2.09-1.69 8.19-4.05 17.76-10.49 24.62-2.49 2.64-5.42 4.71-8.25 6.71-2.06 1.46-4.01 2.83-5.81 4.41-9.99 8.81-13.79 22.6-16.83 35.98l-.27 1.21c-3.06 13.51-6.22 27.47-15.6 37.86-2.83 3.13-6.13 5.81-9.33 8.4-4.95 4.01-9.63 7.8-12.5 13.01-1.17 2.13-1.55 3.89-1.11 5.24.64 2.01 3.16 3.22 5.16 3.88 4.96 1.64 10.3 1.99 16.26 2.26 14.49.63 29.24.91 43.51 1.17l83.1 1.53c5.05.1 10.23.18 15.34-.15v3.99c-2.72.19-5.45.25-8.15.25-2.44 0-4.87-.04-7.27-.09l-83.09-1.53c-14.3-.27-29.08-.54-43.61-1.18-6.27-.27-11.9-.65-17.34-2.45-4.19-1.39-6.79-3.56-7.72-6.45-.78-2.44-.31-5.26 1.42-8.4 3.24-5.9 8.45-10.11 13.48-14.19 3.08-2.5 6.26-5.08 8.88-7.97 5.98-6.62 9.28-15.06 11.72-23.92-.1-.09-.19-.18-.28-.29-4.3-5.4-8.65-10.86-13.19-16.17-.18-.02-.37-.06-.55-.13-12.2-4.9-29.53-3.57-41.92-1.6-1.49.24-2.98.48-4.48.73-11.77 1.94-23.94 3.94-35.93 1.83-3.41-.6-6.76-1.53-10.01-2.44-5.1-1.41-9.91-2.75-14.92-2.92-5.16-.18-10.21.89-15.55 2.03-4.9 1.04-9.97 2.11-15.14 2.13-5.85 0-11.59-1.3-17.13-2.58-6.34-1.46-12.32-2.85-18.42-2.37-4.93.38-9.62 1.95-14.59 3.62-1.88.62-3.82 1.28-5.76 1.85-4.57 1.35-8.68 2.03-12.37 2.03-3.64 0-6.88-.66-9.77-1.98-5.16 6.83-9.44 13.6-12.91 19.73.7.59 1.4 1.17 2.1 1.76 1.83 1.53 3.72 3.1 5.53 4.71 13.09 11.65 23.19 26.13 32.95 40.14.39.56.46 1.28.2 1.91s-.82 1.09-1.49 1.21c-22.06 3.96-44.75 4.96-66.68 5.93-29.99 1.32-60.72 2.68-91.4 2.68-6.21 0-12.41-.06-18.61-.2v-4c36.73.74 73.82-.89 109.83-2.48 20.78-.91 42.23-1.86 63.07-5.34-9.08-13-18.58-26.23-30.53-36.86-1.76-1.57-3.62-3.12-5.43-4.63-6.1-5.09-12.4-10.35-16.53-17.41-4.36-7.47-5.75-16.03-7.1-24.31-.68-4.17-1.38-8.48-2.45-12.54-4.16-15.73-14.44-29.62-23.81-41.94-.39.74-.82 1.47-1.31 2.16-2.24 3.14-5.36 5.17-8.56 5.57-3.83.48-7.29-1.26-10.36-3.44-.72 1.49-1.96 2.73-3.51 3.35-2.79 1.13-6.21.14-7.97-2.3-.53-.75-.87-1.53-1.17-2.23-.19-.45-.37-.87-.58-1.22-.29-.5-.68-.73-.8-.74 0 .02-.13.09-.47.43-.46.47-.9.97-1.35 1.47-1.62 1.82-3.46 3.88-6.23 4.54-2.94.7-6.27-.48-8.69-3.08-1.08-1.16-1.9-2.48-2.58-3.82-1.73 2.39-3.86 4.78-6.71 6.25-4.35 2.23-10.66 1.51-13.12-3.1l-.23-.45c-.07-.15-.17-.33-.27-.51-.04.07-.08.14-.12.2l-.07.13c-1.56 2.66-4.31 4.64-7.55 5.44-1.03.26-2.07.38-3.09.38-.78 0-1.56-.07-2.31-.22v-4.11c1.38.41 2.92.44 4.44.07 2.2-.54 4.04-1.85 5.06-3.59l.06-.11c.54-.92 1.43-2.45 3.28-2.63 2.41-.22 3.54 1.96 4.13 3.13l.2.38c1.3 2.43 5.17 2.76 7.76 1.43 3.13-1.61 5.3-4.94 7.22-7.87.41-.62 1.12-.96 1.86-.9.73.07 1.37.54 1.66 1.22.9 2.14 1.82 4.35 3.31 5.95 1.42 1.53 3.32 2.28 4.83 1.92 1.55-.37 2.82-1.8 4.17-3.31.5-.56.99-1.11 1.5-1.63.57-.57 1.28-1.19 2.27-1.47 2.23-.63 4.26.83 5.28 2.55.34.58.6 1.18.82 1.7.24.56.46 1.08.74 1.46.68.96 2.13 1.37 3.22.93 1.09-.43 1.84-1.74 1.67-2.9-.11-.82.28-1.62.99-2.02.72-.41 1.61-.34 2.25.17 3.17 2.56 6.56 5.01 9.96 4.58 2.09-.26 4.21-1.69 5.8-3.92 1.57-2.2 2.53-4.91 3.46-7.52.21-.58.67-1.03 1.25-1.23.59-.19 1.23-.11 1.74.23l5.33 3.53c.01-.02.01-.04.02-.07 1.09-4.39-.99-9.49-4.84-11.87-.83-.51-1.17-1.54-.8-2.44.36-.91 1.32-1.42 2.27-1.21 1.94.41 4.28-.19 5.82-1.5.72-.62 1.56-1.65 1.49-3.06-.12-2.26-2.46-4.04-4.61-4.56-2.72-.67-5.83-.08-8.58.45-.86.16-1.73-.26-2.14-1.04-.41-.77-.26-1.73.36-2.35 2.4-2.37 4.71-4.89 6.87-7.46 1.43-1.7 1.38-2.39 1.29-2.61-.23-.55-1.67-.74-3.29-.44-5.27.98-10.36 3.16-14.71 6.29-.85.62-2.04.47-2.71-.34-.67-.8-.61-1.99.15-2.72.68-.66 1.46-1.4 1.67-2.14.09-.29 0-.63-.08-.71 0 .02-.18.03-.64.12-4.1.82-7.82 2.86-11.76 5.02-1.7.94-3.46 1.9-5.24 2.75-.62.3-1.76.85-3.09.55-1.15-.25-1.89-1.03-2.38-1.54l-.18-.18c-2.18-2.19-5.69-2.36-8.24-1.78-3.23.72-6.21 2.59-9.1 4.39-.7.44-1.6.4-2.27-.1-.66-.51-.94-1.37-.71-2.16.64-2.16.91-4.7-.25-5.34-.7-.38-1.94-.09-2.82.16-3.23.93-6.26 2.38-9.01 4.31-.79.55-1.86.47-2.55-.21-.69-.67-.8-1.74-.26-2.54 1.27-1.91 1.77-3.74 1.14-4.26-.24-.21-.96-.45-2.96.25-4.34 1.54-8.42 3.7-12.12 6.39v-4.84c3.37-2.19 6.99-3.98 10.79-5.32 1.1-.39 4.45-1.57 6.86.45 1.18.99 1.75 2.35 1.71 3.94 1.7-.81 3.47-1.48 5.29-2.01 1.69-.49 3.88-.91 5.86.18 1.19.66 2.83 2.17 2.87 5.49 2.05-1.14 4.26-2.15 6.65-2.69 4.59-1.03 9.17.07 11.96 2.87l.21.23c.11.11.27.27.38.37.11-.04.27-.11.49-.21 1.69-.81 3.39-1.75 5.04-2.65 3.86-2.12 7.86-4.31 12.33-5.31.19-.05.39-.09.58-.13zm353.71 50.46c-.02.02-.04.04-.05.06-.6.59-1.16 1.15-1.84 2.01-8.39 10.51-17.03 20.94-25.87 31.19-.43.51-.86 1.01-1.3 1.52s-.87 1.01-1.31 1.51c-5.84 6.76-11.77 13.42-17.75 19.99.51.62 1.02 1.24 1.51 1.87 3.09-1.17 5.86-1.43 8.96-.83 2.19-6.94 5.07-13.55 9.46-19.16.4-.53.82-1.04 1.26-1.55.43-.5.87-1 1.35-1.48.77-.83 1.61-1.64 2.48-2.41 1.96-1.72 4.08-3.22 6.14-4.68 2.8-1.97 5.44-3.84 7.64-6.18 5.5-5.85 7.74-14.37 9.32-21.86zm-1.77-3.94c-.87-1.92-.56-4.3.82-6.22-2.17 0-4.38-.08-6.59-.3-.04.36-.17.71-.41 1.01-8.65 10.96-17.8 21.74-26.65 32.18-4.5 5.3-9.15 10.78-13.67 16.22-.14.16-.3.29-.47.4v11.66c15.05-16.64 29.75-33.92 43.72-51.43.83-1.04 1.49-1.7 2.13-2.35.38-.37.74-.74 1.12-1.17zm-9.52-20.28h-312.38c-.15 0-.3-.02-.45-.05-.37.47-.8.93-1.29 1.34-1.14.97-2.53 1.69-4 2.12.36.46.68.93.98 1.43h308.65c.91-1.14 2.17-1.88 2.8-2.2 1.86-.95 3.77-1.81 5.69-2.64zm-.49 13.15c-1.93-.38-3.85-.89-5.71-1.61-1.08-.41-2.27-1.01-2.93-2.29-.07-.14-.11-.28-.16-.41h-28.16v48.65c3.7-4.42 7.44-8.83 11.09-13.13 8.59-10.13 17.46-20.61 25.87-31.21zm-28.49 77.97c.46-1.92.95-3.83 1.48-5.73-1.83-.3-3.47-.2-5.26.33 1.31 1.77 2.57 3.57 3.78 5.4zm-2.9 12.47c.57-2.34 1.1-4.68 1.63-7.02-10.73-17.47-26.52-32.74-45.69-44.19-18.79-11.22-39.95-18.29-61.19-20.46-30.48-3.1-59.95 1.67-85.22 13.79-27.27 13.08-48.73 34.4-60.46 60.06 1.18 1.17 2.41 2.31 3.68 3.43 11.35-19.87 30.99-46 60.94-60 21.76-10.17 48.17-13.61 78.48-10.22 26.87 3.01 49.33 10.64 66.75 22.67 16.37 11.3 28.99 26.77 41.08 41.94zm-9.57-28.44v-66.31h-3.81v62.04c0 .09-.01.17-.03.26 1.31 1.32 2.59 2.65 3.84 4.01zm-7.81-7.86v-1.84c-.21-.15-.4-.33-.54-.56-10.38-17.09-22.51-33.22-36.04-47.94l-.82-.89c-2.05-2.22-4.17-4.52-6.03-7.03-.04-.06-.07-.13-.11-.19h-4.97c.02.02.05.05.06.08 10.38 17.37 24.09 33.83 37.37 49.03.03.02.04.05.06.08 3.84 2.91 7.52 6 11.02 9.26zm0-9.09v-49.36h-38.48c1.29 1.54 2.66 3.04 4.02 4.51l.82.89c12.49 13.58 23.78 28.36 33.64 43.96zm-2.35 28.03c-7.15-7.88-14.85-15.24-23.62-21.29-16.87-11.65-38.72-19.05-64.92-21.98-29.58-3.31-55.26.01-76.34 9.86-18.61 8.7-33.14 22.29-44.08 36.02 4.77 1.84 10.82 1.66 18.44-.6 1.87-.55 3.78-1.19 5.63-1.81 4.98-1.67 10.13-3.39 15.55-3.81 6.72-.52 13.28.99 19.63 2.46 5.32 1.23 10.79 2.5 16.21 2.48 4.76-.02 9.41-1 14.33-2.05 5.35-1.13 10.87-2.29 16.52-2.11 5.48.19 10.75 1.65 15.85 3.07 3.16.88 6.42 1.78 9.63 2.35 11.32 2 23.15.05 34.59-1.84 1.5-.25 3-.49 4.5-.73 11.02-1.76 25.86-2.98 38.08-.02zm-21.34-36.83c-8.88-10.56-17.55-21.65-24.94-33.19v20.99.01c8.71 3.33 17.07 7.41 24.94 12.19zm-28.94-13.65v-26.89c0-.01 0-.02 0-.02h-4.7v25.35c1.58.49 3.14 1.02 4.7 1.56zm-8.7-2.76v-14.12c-7.25 2.87-14.41 6.1-21.37 9.64 7.25.98 14.39 2.49 21.37 4.48zm0-18.42v-3.81c-13.04 5.1-26.06 10.59-38.86 16.35 3.43.11 6.88.32 10.34.63 9.19-4.97 18.78-9.39 28.52-13.17zm-5.99-5.73h-80.97l40.5 17.31c13.27-6.1 26.85-11.9 40.47-17.31zm-48.02 18.43-37.43-16v5.22c8.51 4.87 17.57 8.8 26.95 11.68 3.46-.4 6.96-.71 10.48-.9zm-37.43 6.39c5.93-1.76 12.01-3.17 18.21-4.24-6.27-2.33-12.36-5.12-18.21-8.34zm-4 1.24v-17.05c-.02-.14-.02-.29 0-.43v-8.58h-4.03v27.43c1.33-.48 2.68-.93 4.03-1.37zm-8.03 2.85v-14.34c-1.32 1.48-2.62 2.96-3.89 4.46-2.32 2.76-4.62 5.65-6.84 8.44-1.36 1.71-2.72 3.43-4.11 5.13-.81 1-1.64 2.04-2.48 3.08-.67.83-1.34 1.66-2.01 2.49 3.02-1.74 6.12-3.38 9.31-4.91 3.27-1.57 6.61-3.02 10.02-4.35zm0-20.26v-6.92c-16.82 19.29-34.1 38.61-51.39 57.44-.11.12-.23.22-.36.31v4.67c6.27-6.92 13.38-13.22 21.18-18.77.08-.18.18-.35.32-.5 3.29-3.6 6.6-7.72 9.81-11.71.85-1.05 1.68-2.08 2.5-3.09 1.37-1.69 2.73-3.4 4.08-5.1 2.24-2.81 4.55-5.72 6.91-8.52 2.23-2.65 4.56-5.27 6.93-7.8 0 0 .01-.01.02-.01zm-3.8-8.65h-47.95v53.63c16.13-17.61 32.24-35.63 47.95-53.63zm-51.85 68.66c-.06-.19-.1-.39-.1-.6v-68.06h-4.03v73.93c1.32-1.79 2.7-3.55 4.13-5.27zm-8.13 5.88v-14.72c-.31-.19-.56-.46-.73-.81-5.65-11.55-13.54-22.14-21.17-32.37-5.18-6.95-10.5-14.1-15.19-21.61-.06.8-.16 1.59-.35 2.37-.48 1.92-1.62 3.14-3.13 3.35-.95.13-1.74-.18-2.32-.5 2.96 4.43 8.07 12.47 13.41 20.87 6.57 10.33 14.01 22.03 15.41 23.74 4.09 4.98 8.31 10.14 11.8 15.76.79 1.28 1.55 2.59 2.27 3.92zm0-22.72v-51.82h-35.46c4.99 8.43 10.96 16.47 16.77 24.25 6.54 8.77 13.25 17.8 18.69 27.57zm-1.84 30.76c-.1.02-.2.05-.31.05-.22 0-.45-.04-.67-.12-3.79-1.34-7.99-1.57-11.92-.69.8 2.29 1.77 4.49 3.01 6.6 1.11 1.91 2.41 3.66 3.83 5.33 1.82-3.82 3.84-7.55 6.06-11.17zm-.67-4.16c-.97-1.94-2.02-3.85-3.16-5.69-3.35-5.4-7.49-10.45-11.49-15.34-.61-.74-2.06-2.9-4.03-5.91.1.36.22.72.31 1.09 1.13 4.25 1.84 8.65 2.54 12.92.7 4.32 1.38 8.51 2.44 12.5 4.39-1.04 9.08-.89 13.39.43z"/></svg>