<svg id="Capa_1" enable-background="new 0 0 512 512" height="512" viewBox="0 0 512 512" width="512" xmlns="http://www.w3.org/2000/svg"><path d="m408.64 420.52c.42 1.69 1.01 4.01.43 6.29-.65 2.59-3.11 4.99-6.09 4.54-1.59-.24-2.74-1.23-3.59-1.94l-.1-.09c-.04.4-.1.81-.2 1.22-.54 2.28-2.5 4.4-4.9 4.4-.3 0-.6-.03-.91-.1-.67-.15-1.22-.44-1.71-.79l.3 6.41c.04.77.1 2.21-.86 3.37-.96 1.15-2.33 1.36-3.33 1.36-.36 0-.66-.03-.89-.05l-14.33-1.19c-.96-.08-1.67-.48-2.1-1.19-.39-.64-.35-1.29-.34-1.53l.52-9.5c-.43-.3-.84-.67-1.19-1.11-.86 1.24-2.05 2.31-3.71 2.79-3.3.98-6.62-1.04-8.19-3.53-1.59-2.53-1.82-5.49-1.84-7.79-.08-9.12 2.92-17.78 5.82-26.16 1.27-3.68 2.59-7.48 3.61-11.24.02-.09.06-.18.1-.26-.24-.31-.45-.63-.6-1-.62-1.47-.47-2.97-.29-4.26 1.94-13.36 7.93-25.45 13.73-37.15.66-1.34 1.49-3.01 3.07-4.15 2.23-1.62 4.05-1.43 5.19-.99 3.61 1.41 5 6.84 6.22 12.77.2.97.37 1.81.52 2.3 2.33 7.99 4.51 16.15 6.46 24.25.31 1.28 1.21 5.05-1.26 7.23 3.79 12.23 7.31 24.69 10.46 37.09zm-3.44 5.31c.3-1.21-.01-2.61-.44-4.33-3.14-12.36-6.65-24.8-10.43-36.99-.01 0-.02 0-.04-.01-1.49-.25-3.01-1.18-4.13-2.47-.07.83-.18 1.66-.33 2.48-.22 1.16-.63 2.63-1.9 3.58-1.83 1.39-4.29.85-5.77-.41-1.19-1.01-1.82-2.34-2.32-3.46-.09.34-.17.67-.26 1-.2.74-.54 1.97-1.52 2.9-.66.62-1.59.98-2.5.98h-.14c-.86-.04-1.64-.39-2.19-1.01-.61-.68-.78-1.47-.87-1.94l-.46-2.19c-.47.74-1.15 1.57-2.25 1.97-.28.1-.57.15-.86.18-1.04 3.76-2.33 7.5-3.58 11.13-2.92 8.43-5.67 16.39-5.6 24.82.02 1.77.17 4.01 1.22 5.68.77 1.21 2.34 2.23 3.68 1.84 1.4-.42 2.42-2.16 3.12-5.35.22-.97 1.11-1.64 2.1-1.56.99.07 1.78.85 1.85 1.84.09 1.11.18 2.27.59 3.13.29.6.82 1.06 1.24 1.06.41 0 .94-.44 1.24-1.02.43-.84.55-1.97.67-3.06.09-.88.75-1.59 1.62-1.75.86-.16 1.73.26 2.14 1.04.4.76.7 1.53.99 2.27s.56 1.43.9 2.05c.45.8 1.22 1.68 2.03 1.73 1.61.13 2.9-2.84 3.38-4.11.29-.75 1-1.26 1.8-1.28s1.55.43 1.89 1.16c.79 1.71 1.93 3.31 3.29 4.62.46.44.68.56.79.59.19.03.85-.5 1.05-1.33.16-.66.17-1.43.17-2.25.01-.8.02-1.63.16-2.5.11-.71.6-1.31 1.28-1.56s1.44-.12 1.99.35l3.18 2.71c.51.43 1.14.96 1.61 1.04.58.09 1.38-.69 1.61-1.57zm-9.72-45.35c.18-.12.7-.74.07-3.34-1.94-8.04-4.1-16.13-6.41-24.07-.19-.64-.37-1.51-.6-2.62-.51-2.49-1.87-9.11-3.75-9.84-.39-.15-.97.19-1.4.5-.77.56-1.33 1.69-1.83 2.69-5.66 11.42-11.5 23.22-13.35 35.94-.11.8-.21 1.62.01 2.14.03.06.08.13.13.18.06-.08.15-.2.27-.4.98-1.63 1.59-3.5 1.76-5.39.1-.99.89-1.76 1.88-1.81 1-.06 1.87.62 2.07 1.58l1.56 7.47c.52-2.01.95-4.07 1.28-6.12.14-.87.84-1.55 1.72-1.66.09-.01.17-.02.26-.02.78 0 1.5.46 1.83 1.19l2.41 5.47c.39.87.79 1.77 1.36 2.26.31.26.68.31.78.27.02-.02.19-.19.37-1.13.5-2.7.48-5.56-.07-8.26-.16-.82.2-1.66.91-2.1s1.62-.39 2.28.13c1.41 1.1 2.23 2.59 2.95 3.9.33.61.65 1.18.99 1.68.51.72 1.35 1.33 2.01 1.44.32.06.45-.03.51-.08zm-7.59 60.7c0-.19-.01-.43-.01-.53l-.41-8.77c-1.36 1.49-2.95 2.19-4.74 2.07-2-.13-3.85-1.41-5.1-3.52-.82 1.08-1.93 1.84-3.13 2.13l-.41 7.51 13.03 1.09c.38.03.62.03.77.02z"/><path d="m372.01 21.23c18.35 0 33.28 14.93 33.28 33.28s-14.93 33.28-33.28 33.28-33.28-14.93-33.28-33.28 14.93-33.28 33.28-33.28zm29.28 33.28c0-16.14-13.14-29.28-29.28-29.28-16.15 0-29.28 13.14-29.28 29.28s13.13 29.28 29.28 29.28c16.14 0 29.28-13.14 29.28-29.28z"/><path d="m344.2 377.56c.02-.81.53-1.53 1.29-1.82.76-.28 1.62-.08 2.17.51l4.27 4.57c.67-.88.87-2.19.87-3.58 0-.65-.04-1.33-.1-1.98-.39-4.29-.99-8.63-1.78-12.89-1.44-7.69-3.56-15.3-6.29-22.63-2.19-5.88-5.25-10.82-6.98-11.25-.11-.03-.26-.06-.58.23-1.27 1.13-2.03 2.89-2.54 4.29-.97 2.66-1.61 5.53-2.23 8.31-1.76 7.94-3.58 16.12-4.97 24.21-.81 4.69-1.51 9.65-.52 14.29.02.1.04.18.06.26.02-.04.05-.09.07-.13.15-.37.24-.86.33-1.38.11-.63.23-1.35.51-2.07.35-.91 1.29-1.43 2.24-1.25s1.64 1.01 1.63 1.97c-.01 1.27-.01 2.58.44 3.56.3.63.95 1.13 1.37 1.06.67-.12 1.22-1.51 1.41-3.54.08-.96.85-1.72 1.81-1.81.06 0 .12-.01.18-.01.89 0 1.68.6 1.92 1.47.46 1.66.99 3.55 2.11 4.69.82.84 2.22 1.12 2.83.58.63-.57.62-1.81.53-3.63-.04-.67-.07-1.35-.05-2.03zm-19.19 6.4c-1.6-.87-1.97-2.64-2.12-3.31-1.13-5.33-.38-10.73.49-15.8 1.41-8.18 3.24-16.41 5.01-24.36.65-2.94 1.32-5.95 2.38-8.85.68-1.84 1.7-4.18 3.64-5.91 1.22-1.09 2.72-1.49 4.21-1.12 4.62 1.15 8.37 9.99 9.76 13.73 2.81 7.54 4.99 15.38 6.47 23.29.82 4.39 1.43 8.85 1.83 13.27.29 3.19.24 6.76-2.3 9.15-.63.6-1.28.93-1.99 1.03-1.74.24-2.94-1.05-3.39-1.53l-.81-.88c-.17 1.12-.56 2.2-1.41 3.13.04.18.07.37.05.56-.05.74.04 1.54.14 2.4.05.43.1.86.14 1.29.11 1.34.13 3.33-.96 5.09-.38.63-.84 1.07-1.39 1.35-.67.35-1.34.37-1.69.38-.31.01-.62.02-.93.02-2.48 0-4.94-.33-7.34-.97-.27-.07-.92-.24-1.45-.83-.52-.6-.61-1.27-.65-1.56-.35-2.58-.43-5.19-.27-7.79-1.37-.29-2.56-1.16-3.35-2.25-.37.29-.78.51-1.2.66-.36.13-.74.2-1.1.22-.3.01-.6-.02-.88-.08-.31-.07-.61-.18-.89-.33zm17.82 8.92c.29-.61.38-1.42.29-2.51-.03-.38-.07-.76-.12-1.15-.06-.56-.13-1.13-.16-1.72-1.78-.01-3.58-.82-4.8-2.05-.4-.41-.76-.86-1.06-1.32-.14.17-.3.3-.45.44-.26 2.55-.25 5.13.04 7.67 2.07.49 4.16.69 6.26.64z"/><path d="m266.45 441.36c1.05 11.49 2.14 23.37.56 35.07-.11.83-.73 1.5-1.55 1.68-2.24.5-4.49.67-6.73.67-2.6 0-5.18-.23-7.72-.46-3.28-.29-6.39-.57-9.48-.38-.08 0-.17.01-.26.01-1.08 0-1.97-.86-2-1.94-.01-.24.03-.47.1-.68.2-1.17.92-7.96 1.28-11.27.18-1.72.32-3.03.36-3.38 1.14-9.05 2.48-18.2 3.97-27.22.09-.52.17-1.39.24-2.31.42-4.95.93-8.86 3.28-10.41 1.52-1.01 3.76-.79 5.56-.61.46.05.88.09 1.21.1l6.73.1c.43 0 1.33.02 2.11.67 1.01.84 1.05 2.06 1.06 2.53.19 5.92.74 11.97 1.28 17.83zm-3.22 33.1c1.24-10.81.22-21.95-.77-32.73-.52-5.7-1.06-11.59-1.27-17.41l-5.98-.09c-.42-.01-.96-.06-1.54-.12-.82-.08-2.52-.25-2.99-.02-.91.73-1.32 5.57-1.47 7.39-.09 1.05-.17 1.96-.28 2.64-1.49 8.96-2.81 18.06-3.95 27.06-.04.34-.18 1.62-.36 3.3-.23 2.23-.54 5.16-.81 7.52-.08.68-.15 1.32-.22 1.88 2.62 0 5.23.23 7.77.46 4.13.36 8.06.71 11.87.12z"/><path d="m265.81 396.19c.11 1-.53 1.93-1.51 2.17-2.83.7-5.76 1.05-8.69 1.05-2.21 0-4.43-.2-6.59-.6-.45-.08-1.48-.28-2.18-1.21-.81-1.08-.55-2.33-.45-2.8l4.88-23.24c.2-.97.37-2.06.53-3.2.41-2.73.87-5.83 2.1-8.28 1.46-2.89 3.47-2.87 4.27-2.72 1.92.34 3.41 2.36 3.72 5.02zm-4.19-1.34-3.71-32.01c-.05-.5-.19-.9-.32-1.17-.04.06-.07.13-.11.21-.95 1.88-1.34 4.51-1.72 7.06-.18 1.21-.35 2.35-.57 3.44l-4.75 22.62c3.69.59 7.51.54 11.18-.15z"/><path d="m294 360.27c-.15-.42-.2-.8-.22-1.03-.27-2.85-.27-5.73-.04-8.59-.46.18-1.12.34-1.86.22-1.6-.28-2.42-1.67-2.68-2.12-1.52-2.6-2.43-5.73-2.7-9.31-.38-5.09.54-10.03 2-14.74-3.33.23-6.67.35-10.02.35-5.4 0-10.81-.32-16.18-.91 10.94 11.79 21.46 23.93 31.7 36.13zm-70.81 0c10.39-12.39 21.09-24.73 32.22-36.7-9-1.22-18.1-1.24-27.12-.08 1.68 5.07 2.81 10.42 2.39 15.95-.27 3.58-1.18 6.71-2.7 9.31-.26.45-1.08 1.84-2.67 2.12-.75.12-1.41-.04-1.86-.22.22 2.85.22 5.73-.05 8.58-.02.24-.07.62-.21 1.04zm-1.33 1.57c-.42.24-.83.36-1.09.44l-5.55 1.55c-.42.12-1.15.33-1.97.33-.74 0-1.54-.17-2.28-.7-.98-.72-1.36-1.82-1.48-2.18-.93-2.69-.46-5.31-.01-7.85.02-.08.03-.15.04-.23-1.45 1.1-2.94 1.67-4.31 1.67-.88 0-1.71-.23-2.46-.69-2.06-1.29-2.76-3.78-2.07-7.41 1.5-7.52 3.59-16.24 7.08-24.19-12.94 1.16-26.04.39-38.74-.39-7.33-.45-14.91-.91-22.34-.99-20.21-.2-40.86 2.45-60.83 5.01-19.26 2.47-38.93 4.99-58.55 4.99-9.12 0-18.24-.55-27.3-1.91v-4.04c18.32 2.81 37.01 2.22 55.57.47l.08-49.15c0-.98.72-1.82 1.69-1.97 1.84-.28 3.68-.53 5.53-.78-1.14-7.22-1.78-14.58-1.86-21.89-.02-1.44.47-2.44 1.46-2.99.53-.3 1.03-.35 1.31-.38l18.49-1.73c.38-.03 1.38-.13 2.23.61.64.55.81 1.26.88 1.56.9 3.72 1.21 7.52 1.52 11.19l.93 11.2c.81-.05 1.63-.11 2.45-.15-.47-21.11-.57-42.58 1.01-63.78.08-1.1.22-2.94 1.51-4.29.99-1.03 2.28-1.38 3.14-1.62 8.58-2.37 17.4-4.04 26.25-4.97.27-6.44.59-12.85.91-19.2.04-.92.13-2.65 1.45-3.83.76-.68 1.64-.91 2.23-1.07 1.67-.44 3.34-.86 5.02-1.26.18-9.61.63-19.33 1.34-28.92.03-.35.11-1.44 1.06-2.16.69-.52 1.44-.53 1.76-.53 9.18-.06 18.5.14 27.68.59.49.02 1.5.07 2.32.85.94.9.94 2.09.94 2.6l.12 22.36c1.37-.08 2.74-.17 4.11-.22.47-7.48 1.13-14.94 2.06-22.35.12-.99.25-1.98.38-2.97.24-1.83.48-3.69.69-5.55-2.17-.43-4.53.02-6.36 1.25-.69.45-1.58.45-2.26-.03-.67-.47-.99-1.31-.8-2.11.9-3.7-.12-7.97-2.72-11.42-2.6-3.44-6.42-5.59-10.23-5.75-3.8-.15-7.79 1.68-10.66 4.9-2.87 3.23-4.23 7.4-3.64 11.16.13.85-.28 1.68-1.04 2.08-.75.4-1.68.28-2.3-.3-4.4-4.12-11.28-5.32-16.73-2.92-6.71 2.96-10.17 10.38-11.16 16.34-1.2 7.18.04 14.61 1.24 21.8.12.7-.15 1.42-.71 1.87-.55.46-1.31.58-1.98.32-6.16-2.36-13.14-5.05-19.92-3.95-9.05 1.47-16.28 10.77-15.45 19.91.09.98-.55 1.88-1.51 2.12-.16.04-.32.06-.48.06-.79 0-1.53-.46-1.84-1.22-5.42-12.74-19.54-21.21-32.84-19.68-1.33.15-3.78.21-5.35-1.09-.78-.65-1.23-1.53-1.3-2.54-.07-1.08.35-1.98.61-2.52 1.84-3.87 3.92-7.65 5.93-11.32 3.01-5.47 6.12-11.13 8.36-17 2.46-6.43 5.8-18.79.52-29.35-4.02-8.02-13.02-13.92-22.94-15.03-6.01-.67-12.43.27-18.7 2.67v-4.25c6.42-2.24 12.96-3.08 19.14-2.39 11.41 1.27 21.4 7.86 26.07 17.21 4.43 8.84 4.3 20.41-.35 32.57-2.34 6.12-5.52 11.91-8.59 17.5-1.99 3.61-4.04 7.35-5.83 11.1-.03.08-.1.23-.16.36.35.11 1.08.22 2.14.1 12.79-1.47 26.23 5.23 33.68 16.12 2.13-8.58 9.37-15.84 18.25-17.28 6.54-1.06 13.09.87 18.74 2.94-.99-6.27-1.78-13.08-.67-19.69 1.5-9.05 6.55-16.28 13.49-19.34 5.57-2.46 12.33-1.93 17.64 1.13.42-3.62 2.03-7.16 4.69-10.15 3.71-4.17 8.75-6.43 13.82-6.23 5.06.2 9.89 2.88 13.26 7.34 2.52 3.34 3.85 7.21 3.85 11.02 1.78-.5 3.65-.61 5.47-.31.19-2.39.3-4.77.24-7.14-.03-1.09.83-2 1.92-2.05l50.54-1.96c1.29-13.65 2.29-27.42 2.45-41.08.02-1 .76-1.84 1.76-1.96 16.94-2.12 35.96 4.31 52.18 17.63 3.8 3.13 8.56 7.45 11.61 13.19 3.22 6.07 4.12 12.99 4.37 19.42 16.56 2.54 33.34 5.15 49.88 7.75.92.15 2.64.41 3.68 1.86.84 1.16.81 2.51.8 3.32l-.09 4.69c4.15-2.59 9.38-3.35 14.09-1.9 4.67 1.44 8.54 4.96 10.52 9.38 4.76-3.87 11.56-5.12 17.34-2.92 5.94 2.26 10.27 7.98 11.08 14.23 5.68-1.87 13.97-3.16 19.84 2.06 5.84 5.21 5.52 13.8 4.82 18.46-.96 6.31-3.26 12.5-6.66 17.91-.14.21-.24.46-.33.69 3.79-2.03 7.78-3.66 11.9-4.86 8.98-2.62 17.48-2.45 24.16.36-2.65-7.96-4.91-16.09-6.75-24.25-1.45-6.45-2.8-13.91-.35-20.81 4.08-11.53 17.17-16.94 28.33-17.2.21 0 .5-.01.68-.04.03-.18.03-.61-.18-1.48-3.22-13.48-1.57-26.9 4.53-36.83 5.66-9.24 15.24-15.17 25-16.06v4.05c-8.38.95-16.74 6.2-21.59 14.1-5.55 9.03-7.03 21.36-4.05 33.81.24 1 .97 4.06-1.32 5.68-1.03.73-2.16.75-2.98.77-9.79.23-21.21 4.81-24.65 14.53-2.09 5.9-.85 12.69.48 18.6 2.19 9.72 4.99 19.4 8.33 28.77.3.83.01 1.75-.69 2.28-.71.52-1.67.52-2.38 0-6.09-4.49-15.36-5.38-25.45-2.44-4.1 1.19-8.07 2.85-11.8 4.92-.49.27-1.22.67-2.16.67h-.03c-.77-.01-1.47-.26-2.01-.71-.18-.15-.35-.32-.48-.51-.1-.12-.18-.25-.26-.39-1.01-1.86-.16-4.48.66-5.78 3.11-4.95 5.21-10.61 6.09-16.38.59-3.86.91-10.92-3.53-14.87-5.43-4.84-14.6-1.88-18.3-.38-.63.26-1.35.18-1.91-.22-.55-.39-.87-1.05-.84-1.73.28-5.55-3.43-11.23-8.62-13.21-5.2-1.98-11.75-.2-15.23 4.13-.49.6-1.27.87-2.02.69s-1.34-.77-1.5-1.52c-.96-4.45-4.52-8.34-8.87-9.68-4.34-1.33-9.47-.13-12.77 3-.07.07-.15.13-.23.18l-.23 11.98c10.38-.44 20.87-.14 31.2.89 1.74.17 4.98.5 6.78 2.97 1.38 1.9 1.3 4.27 1.25 5.84l-1.85 57.98 17.22 1.91c1.06.11 1.84 1.04 1.78 2.1-.2 3.39-.38 6.79-.54 10.19 9.38-.51 18.8.15 28.02 2.01.76.16 2.53.51 3.41 2.09.49.89.48 1.82.48 2.38 0 4.45-.06 8.91-.1 13.36-.1 9.95-.24 19.85-.59 29.8-.3 8.6-.77 17.82-2.03 27.16 28.6.7 57.46 1.11 73.04 1.34h.27v4h-.33c-30.33-.44-110.92-1.59-142.24-4.23-12.17-1.03-25.97-2.2-39.41-1.37-6.89.43-13.87 1.38-20.67 2.35 3.54 7.99 5.64 16.77 7.15 24.32.69 3.64-.01 6.13-2.07 7.42-.75.46-1.58.69-2.45.69-1.38 0-2.87-.57-4.32-1.67.01.08.02.15.04.23.45 2.54.92 5.16-.01 7.85-.12.36-.5 1.46-1.48 2.18-.74.53-1.54.7-2.28.7-.82 0-1.55-.21-1.97-.33l-5.55-1.55c-.26-.08-.67-.2-1.09-.44 7.66 9.15 15.17 18.32 22.57 27.36 25.09 30.64 51.03 62.3 80.74 90.47 1.4-8.15 4.13-16.06 6.81-23.79 1.7-4.94 3.47-10.04 4.84-15.09.06-.22.16-.42.29-.6-.42-.46-.76-.98-.99-1.53-.76-1.8-.57-3.71-.33-5.35 2.57-17.77 10.58-33.92 18.31-49.53.86-1.73 1.93-3.89 3.9-5.32 2.74-1.98 4.95-1.76 6.32-1.23 4.51 1.75 6.31 8.85 7.91 16.59.27 1.32.5 2.46.7 3.14 3.12 10.69 6.03 21.61 8.65 32.44.4 1.67 1.61 6.7-1.81 9.29 5.12 16.49 9.87 33.32 14.12 50.06.16.63.34 1.31.49 2.02h-4.11c-.08-.34-.17-.68-.26-1.04-4.24-16.72-8.99-33.53-14.11-50-.15-.02-.29-.01-.44-.04-2.13-.36-4.33-1.84-5.74-3.86-.16-.24-.32-.49-.47-.73-.06 1.73-.24 3.45-.55 5.14-.27 1.44-.78 3.24-2.28 4.38-2.17 1.65-5.11.98-6.89-.53-1.58-1.34-2.4-3.2-3.06-4.7l-.67-1.51c-.25 1.1-.53 2.19-.82 3.27-.34 1.24-.75 2.54-1.84 3.55-.76.72-1.83 1.14-2.87 1.14h-.17c-.25-.01-.49-.04-.73-.1-.67-.17-1.27-.52-1.73-1.03-.69-.78-.88-1.68-1.01-2.28l-.98-4.69c-.21.41-.44.82-.67 1.22-.59.96-1.44 2.14-2.86 2.67-.49.18-.98.25-1.45.25-1.41 5.17-3.19 10.32-4.91 15.31-3.93 11.34-7.63 22.06-7.53 33.46v.12h-4v-.08c-.02-2.18.1-4.34.32-6.48-.33-.08-.65-.24-.92-.49-30.41-28.62-56.79-60.84-82.29-91.99-17.89-21.85-36.38-44.41-56.21-65.71-19.83 21.3-38.32 43.86-56.21 65.71-25.5 31.15-51.88 63.37-82.29 91.99-.27.25-.58.41-.92.49.22 2.14.34 4.3.32 6.48v.08h-4v-.12c.1-11.4-3.6-22.12-7.53-33.46-1.72-4.99-3.5-10.14-4.91-15.31-.47.01-.96-.07-1.44-.25-1.43-.53-2.28-1.71-2.87-2.68-.23-.39-.46-.8-.67-1.21l-.98 4.69c-.12.56-.31 1.5-1.01 2.28-.46.51-1.06.86-1.73 1.02-.24.07-.48.1-.73.11h-.17c-1.04 0-2.11-.42-2.87-1.14-1.09-1.02-1.5-2.31-1.84-3.55-.29-1.08-.57-2.17-.82-3.27l-.67 1.51c-.66 1.5-1.48 3.36-3.06 4.7-1.78 1.51-4.72 2.18-6.89.53-1.5-1.14-2.01-2.94-2.27-4.38-.32-1.69-.5-3.41-.56-5.14-.15.24-.31.49-.47.73-1.41 2.02-3.61 3.5-5.74 3.86-.15.03-.29.02-.44.04-5.12 16.48-9.87 33.29-14.11 50-.09.36-.18.7-.26 1.04h-4.1c.15-.71.32-1.39.48-2.02 4.25-16.73 9-33.56 14.12-50.06-3.41-2.59-2.21-7.62-1.8-9.29 2.61-10.84 5.52-21.76 8.64-32.44.2-.68.44-1.82.71-3.14 1.59-7.74 3.39-14.84 7.91-16.59 1.36-.53 3.57-.75 6.31 1.23 1.97 1.43 3.04 3.59 3.9 5.32 7.74 15.61 15.74 31.76 18.31 49.53.24 1.64.43 3.55-.33 5.35-.23.55-.57 1.07-.99 1.53.13.18.23.38.29.6 1.37 5.05 3.14 10.15 4.84 15.09 2.68 7.73 5.41 15.64 6.81 23.78 29.71-28.16 55.65-59.82 80.74-90.46 7.4-9.04 14.91-18.21 22.57-27.36zm-10.45-176.9c.3-.02.58.04.85.14-.02-3.34-.03-6.68-.05-10.02l-15.62.07c-.07 3.39-.16 6.78-.3 10.16 5.03.04 10.1-.07 15.12-.35zm.68-27.44c.01 0 .02.01.02.01-.02-3.41-.04-6.85-.05-10.31l-15.58.66c.08 3.49.13 7 .17 10.5 5.11-.58 10.3-.88 15.44-.86zm239.48 275.8c0-.95-.19-2.02-.42-2.96-2.6-10.77-5.5-21.63-8.6-32.26-.25-.83-.48-1.99-.78-3.45-.84-4.08-2.58-12.56-5.44-13.67-.24-.09-.97-.38-2.52.74-1.17.85-1.97 2.45-2.66 3.86-7.6 15.33-15.46 31.18-17.94 48.32-.17 1.16-.3 2.37.06 3.22.22.54.78.83.93.77.1-.04.35-.22.81-.97 1.36-2.27 2.21-4.87 2.45-7.51.09-.98.89-1.75 1.88-1.81h.12c.94 0 1.76.66 1.95 1.59l2.6 12.44c.26-.39.45-1.05.57-1.51.81-3 1.47-6.08 1.97-9.15.14-.88.84-1.56 1.71-1.67.88-.11 1.73.36 2.09 1.17l3.24 7.33c.54 1.23 1.11 2.51 1.99 3.26.59.51 1.49.69 1.88.4.47-.36.68-1.5.76-1.94.7-3.71.67-7.62-.08-11.32-.17-.82.19-1.66.9-2.1s1.63-.39 2.29.13c1.78 1.39 2.79 3.23 3.76 5.02.46.83.89 1.61 1.38 2.31.78 1.12 2.06 2.03 3.12 2.21.64.11.99-.07 1.2-.22.57-.42.78-1.26.78-2.23zm-14.16-183.29v-.35c-.12-.05-.33-.1-.68-.18-9.01-1.81-18.23-2.45-27.4-1.92-.14 3.17-.26 6.33-.36 9.51 9.41.55 18.96.81 28.39.78.01-2.62.03-5.25.05-7.84zm-.09 11.84h-1.6c-8.93 0-17.96-.27-26.87-.78-.12 4.36-.22 8.74-.28 13.11h.02l28.59-.11c.06-4.09.11-8.16.14-12.22zm-.21 16.22-28.5.11c-.01 0-.01 0-.01 0-.03 0-.05-.01-.07-.01-.04 4.32-.04 8.63-.02 12.94.06 0 .11-.02.16-.02 9.33-.38 18.79-.58 28.13-.57.13-4.14.23-8.29.31-12.45zm-1.06 28.66c.29-4.16.47-8.24.62-12.21-9.25 0-18.6.19-27.83.57h-.09c-.07 0-.14-.01-.21-.02.04 3.78.1 7.55.18 11.32.17-.05.35-.08.55-.08zm-.32 3.99-26.53-.41c-.13 0-.26-.02-.38-.05.07 2.92.16 5.83.26 8.73.01.17-.01.33-.04.49 8.2.29 16.87.54 25.63.77.44-3.19.79-6.38 1.06-9.53zm-29.79-75.7-12.47-1.37c-1.86 28.15-2.87 56.7-3.01 84.9 0 .07-.01.13-.02.19 4.61.21 9.53.41 14.68.6-.01-.07-.03-.13-.03-.2-1.03-27.92-.75-56.21.85-84.12zm-17.06 7.83c.2-3.22.4-6.43.61-9.64l-7.75-.86c-.45 3.35-.9 6.71-1.34 10.09 2.93.14 5.81.28 8.48.41zm.02-71.61c.04-1.41.04-2.62-.49-3.35-.66-.9-2.29-1.18-3.94-1.35-1.58-.16-3.15-.29-4.73-.41-1.58 20.55-1.7 41.38-.33 61.94l7.65.84zm-.74 84.98c.16-3.13.33-6.25.5-9.37-2.76-.14-5.74-.29-8.77-.43-.41 3.17-.8 6.36-1.18 9.55 3.16.11 6.32.2 9.45.25zm-.68 15.63c.15-3.88.31-7.76.49-11.63-3.23-.05-6.47-.14-9.72-.26-.42 3.7-.81 7.41-1.16 11.12 3.45.32 6.9.58 10.33.76.02 0 .04.01.06.01zm-.15 3.98c-.01 0-.01.01-.01.01-.04 0-.07-.01-.11-.01-3.49-.18-6.99-.44-10.49-.76-.36 4.18-.67 8.37-.91 12.55l11.14.42c.11-4.07.23-8.14.38-12.21zm-.69 26.68c.06-3.49.13-6.98.21-10.47l-11.25-.42c-.16 3.4-.28 6.81-.33 10.21 3.8.17 7.6.4 11.37.68zm-.17 14.42c.02-3.46.06-6.94.1-10.41-3.76-.28-7.54-.51-11.33-.68-.01 3.96.06 7.91.22 11.86.01.07 0 .13-.01.2 3.33.22 7.02.44 11 .64l-.08-.74c-.03-.3.01-.6.1-.87zm-8.71-85.02-7.98-.88c-.73-.08-1.47-.16-2.21-.24-.49 3.61-.94 7.22-1.36 10.85.02.01.04.03.06.05.18.06.66.08.82.09 2.9.15 6.08.3 9.31.46.45-3.45.9-6.9 1.36-10.33zm-2.58-57.52c.16-2.85.35-5.7.57-8.54-3.67-.22-7.34-.34-11.01-.37-.13 3.01-.25 6.04-.37 9.07zm-4.96 52.66 5.16.57c-.26-3.91-.45-7.84-.6-11.77-1.41.06-2.83.09-4.26.09-2.47 0-4.95-.1-7.41-.26-.08 3.55-.15 7.1-.22 10.63 2.47.21 4.92.48 7.33.74zm4.48 28.76c.38-3.2.77-6.4 1.18-9.59-3.11-.15-6.18-.3-8.99-.44-.29-.02-.68-.04-1.11-.11-.35 3.2-.67 6.4-.96 9.61 3.28.21 6.58.38 9.88.53zm.27-77.41-10.76.15c-.11 2.96-.21 5.91-.31 8.87.34.04.66.09.96.14l.29.05c3.14.52 6.41.36 9.49-.45.08-2.92.19-5.84.33-8.76zm-.33 33.45c-.07-2.33-.12-4.68-.15-7.02-3.68-.1-7.4-.27-11.1-.5-.06 2.45-.14 4.91-.2 7.35 3.8.26 7.64.32 11.45.17zm-.16-11.02c-.01-3.18.01-6.36.07-9.53-1.87.4-3.79.62-5.71.62-1.46 0-2.91-.12-4.34-.36l-.31-.05c-.15-.03-.28-.04-.42-.07-.1 2.97-.19 5.93-.27 8.89 3.65.23 7.33.4 10.98.5zm-1.37 69.86c.34-3.64.73-7.27 1.13-10.9-3.26-.14-6.52-.32-9.76-.53-.28 3.43-.53 6.86-.75 10.29 3.11.44 6.24.81 9.38 1.14zm-1.3 16.79c.25-4.28.56-8.55.93-12.8-3.1-.33-6.2-.7-9.27-1.13-.25 4.53-.43 9.06-.57 13.6zm-.21 3.99-8.8-.33c-.08 3.45-.13 6.89-.15 10.34 2.87.03 5.74.11 8.62.21.05-3.41.17-6.82.33-10.22zm-.14 26.14c-.17-3.97-.23-7.95-.22-11.92-2.88-.1-5.75-.18-8.61-.21.01 3.81.06 7.61.16 11.42 2.36.19 4.7.38 6.97.57.55.05 1.12.09 1.7.14zm-12.56-91.55c.35-20.11.97-40.48 1.83-60.58-2.38.03-4.77.1-7.15.2l-1.13 60.37c2.15-.1 4.31-.08 6.45.01zm-.12 90.54c-.68-28.74.94-57.73 4.81-86.21-3.74-.33-7.5-.52-11.22-.32l-1.62 86.03c2.72.13 5.39.31 8.03.5zm-8.71-176.78c0-.21.01-.77-.06-.93-.06-.03-.43-.12-1.05-.22-12.03-1.89-24.19-3.79-36.3-5.66l.1 11.84c12.36.32 24.86.75 37.19 1.27zm-.38 20.46.19-10.16c-12.3-.52-24.76-.95-37.09-1.27l.09 10.17c12.23.32 24.6.74 36.81 1.26zm-.27 14.15.19-10.16c-12.17-.51-24.5-.93-36.7-1.24l.08 10.16c12.08.32 24.31.74 36.43 1.24zm-.27 14.16.19-10.16c-12.08-.5-24.28-.92-36.31-1.23l.08 10.17c11.95.31 24.05.72 36.04 1.22zm-.26 14.16.19-10.16c-11.96-.5-24.03-.91-35.94-1.22l.09 10.17c11.85.31 23.82.71 35.66 1.21zm-.27 14.2.19-10.2c-11.8-.49-23.73-.9-35.55-1.21l.08 10.17c10.74.28 21.46.66 35.28 1.24zm-.27 14.17.19-10.17c-13.78-.58-24.47-.96-35.16-1.24l.08 10.17c12.9.34 24.38.79 34.89 1.24zm-.26 14.18.19-10.18c-10.49-.44-21.93-.9-34.79-1.24l.09 10.17c12.32.33 23 .76 34.51 1.25zm-.27 14.19.19-10.19c-11.48-.49-22.13-.92-34.4-1.25l.08 10.17c11.81.32 21.44.73 33.46 1.24zm-.27 14.12.19-10.12-.76-.04c-11.96-.5-21.54-.91-33.25-1.23l.08 10.17c12.05.33 22.52.75 33.74 1.22zm-.26 14.21.19-10.21c-11.2-.47-21.64-.89-33.64-1.21l.09 10.14c9.87.26 17.53.59 26.35.98zm-.27 14.11.19-10.11-7.1-.31c-8.76-.38-16.38-.71-26.15-.97l.09 10.14c10.38.27 18.33.62 27.53 1.02zm-.26 14.01.18-10.01-5.53-.24c-9.52-.41-17.06-.74-27.33-1l.11 13.04c5.15-.69 10.37-1.31 15.58-1.63 5.67-.35 11.37-.34 16.99-.16zm-34.45 34.84c.38-.24.65-1.22.26-3.25-2.28-11.39-5.92-25.68-13.9-35.08-.08-.09-.21-.25-.31-.34-.06.02-.14.05-.22.12-.61.43-1.03 1.33-1.5 2.45-3.19 7.48-6.79 15.96-6.15 24.46.22 2.97.95 5.52 2.16 7.59 1.01-.62 1.72-1.78 1.8-2.95.08-1.04.93-1.84 1.97-1.86 1.01-.02 1.91.77 2.02 1.8.23 2.24.48 4.05 1.48 5.29.37.47.8.69 1.01.68.24-.02.62-.43.76-.95.23-.81.09-1.86-.04-2.87-.13-.93.42-1.82 1.3-2.14.22-.08.45-.12.68-.12.67 0 1.32.34 1.69.93 1.15 1.83 2.54 3.5 4.13 4.96 1.13 1.04 2.36 1.59 2.86 1.28zm-2.1-32.5c-.01-.07-.02-.14-.02-.2l-.36-43.22c-.05-.18-.08-.37-.08-.57.01-.16.03-.31.07-.46l-1.17-141.44c-2.95-.45-5.9-.91-8.85-1.36.01 1.07.01 2.1.01 3.11-.01 57.76-.84 117.83-2.39 174.08.85-.22 1.73-.17 2.51.17.86.38 1.42 1.04 1.79 1.47 2.25 2.65 4.16 5.63 5.82 8.8.88-.13 1.78-.26 2.67-.38zm-6.3 41.7c.59-1.71.23-3.72-.15-5.84-.08-.44-.16-.89-.23-1.34-.67.49-1.44.8-2.26.87-1.28.12-2.56-.36-3.64-1.3-.1 2.04-.07 4.09.1 6.12l5.31 1.49c.42.12.66.16.81.18.01-.05.04-.1.06-.18zm-8.1-225.84c0-7.65 0-17.17-4-24.72-2.72-5.1-7.1-9.08-10.62-11.97-14.82-12.17-31.99-18.28-47.42-16.94-.39 22.42-2.89 45-5.3 66.87-1.29 11.7-2.63 23.8-3.62 35.7-3.5 41.86-3.05 84.58-2.62 125.89 0 .23-.04.45-.11.65 1.07 1.08 1.66 2.44 2.11 3.49.89 2.1 1.81 4.28 2.68 6.52.71-.1 1.43-.18 2.15-.27-.03-.11-.05-.22-.05-.34-1.42-34.96 1.86-70.36 5.03-104.6 2.96-32.07 6.03-65.24 5.22-97.87-.03-1.03-.1-3.76 2.14-4.99 1.02-.57 2.08-.52 2.79-.49l42.3 1.79c1.06.04 1.9.9 1.92 1.96 1.12 68.45-.47 137.78-4.73 206.12 2.04-.08 4.08-.18 6.12-.34.03-.01.07 0 .11 0 .96-2.58 2.02-5.08 3.04-7.49.11-.25.23-.51.35-.79 1.63-57.41 2.49-119.01 2.51-178.18zm-11.06 23.64c0-4.19-.01-8.39-.03-12.58-13.83-.2-27.83-.28-41.64-.25-.14 4.2-.32 8.39-.54 12.58h.01c14.01-.03 28.21.05 42.2.25zm-.06 16.58c.03-4.19.05-8.39.05-12.58-12.09-.17-24.33-.26-36.47-.26-1.91 0-3.81.01-5.71.01-.08 0-.16-.01-.24-.02-.24 4.2-.52 8.41-.82 12.6 14.23-.03 30.2.07 43.19.25zm-.15 16.58c.05-4.19.09-8.39.13-12.58-13.08-.19-29.17-.28-43.46-.25-.32 4.2-.66 8.4-1.02 12.58 14.59-.03 31.35.07 44.35.25zm.16-49.74c-.03-4.2-.06-8.39-.11-12.58-13.65-.2-27.51-.28-41.2-.25-.01 4.19-.07 8.38-.18 12.58 13.76-.03 27.71.05 41.49.25zm-.16-16.58c-.03-2.62-.06-5.23-.1-7.85l-40.42-1.71c-.17 0-.47-.01-.64 0-.06.15-.15.52-.12 1.39.06 2.64.09 5.28.11 7.92 13.69-.03 27.52.05 41.17.25zm-.26 82.9c.08-4.19.15-8.39.2-12.58-13.07-.19-29.99-.28-44.64-.25-.37 4.21-.74 8.41-1.13 12.58 14.9-.03 32.54.07 45.57.25zm-.38 16.58c.11-4.2.21-8.39.29-12.58-13.12-.19-30.91-.28-45.85-.25-.1 1.18-.21 2.35-.32 3.52-.28 3.01-.56 6.03-.83 9.06 13.15-.02 32.64.05 46.71.25zm-.47 16.57c.13-4.19.26-8.38.37-12.58-14.18-.19-33.85-.26-46.98-.24-.38 4.19-.75 8.38-1.1 12.59 13.12-.03 33.48.04 47.71.23zm-.57 16.6c.16-4.2.31-8.4.45-12.6-14.33-.19-34.86-.26-47.92-.23-.34 4.18-.66 8.38-.96 12.58 13.37-.03 34.01.04 48.43.25zm-.68 16.59c.18-4.2.36-8.39.52-12.59-14.49-.21-35.24-.28-48.54-.25-.28 4.19-.53 8.38-.74 12.58 13.62-.03 34.39.05 48.76.26zm-.79 16.6c.21-4.2.41-8.4.6-12.6-14.41-.21-35.19-.29-48.75-.26-.19 4.19-.33 8.39-.43 12.58 13.65-.02 34.16.05 48.39.26.06 0 .12.01.19.02zm-.92 17.06c.25-4.36.49-8.72.72-13.08-.01 0-.02 0-.02 0h-.03c-14.24-.21-34.78-.29-48.4-.26-.07 4.2-.08 8.39-.04 12.58 13-.02 31.88.05 46.5.26.49.01.93.2 1.27.5zm-.8 13.51c.21-3.45.42-6.9.62-10.36-.32.22-.71.35-1.12.35h-.03c-14.58-.21-33.4-.28-46.37-.26.05 2.7.13 5.4.24 8.09 0 .05-.01.09-.01.13 8.33-.66 16.7-.35 24.97.93.35-.16.74-.23 1.15-.18 6.8.93 13.68 1.36 20.55 1.3zm-52.72-197.24-10.98.43c.02 11.91.09 24.01.16 35.72.16 26.31.31 53.07-.2 79.91 0 .67-.02 1.33-.03 2s-.03 1.33-.05 2c-.49 23.43-1.52 46.91-3.51 70.21.97-1.47 2-2.88 3.12-4.2.37-.43.93-1.09 1.79-1.47.31-.13.64-.22.97-.27-.22-21.15-.44-42.66-.12-64.24.01-.67.02-1.33.03-2s.02-1.33.04-2c.33-19.07 1.11-38.17 2.69-57.13 1-11.96 2.34-24.09 3.63-35.81.85-7.64 1.69-15.37 2.46-23.15zm-.26 215.35c.64-8.5-2.96-16.98-6.14-24.46-.48-1.12-.9-2.02-1.51-2.46-.09-.06-.17-.1-.23-.12-.08.09-.22.25-.3.35-7.98 9.4-11.62 23.69-13.9 35.08-.39 2.03-.12 3.01.26 3.25.5.31 1.73-.24 2.86-1.28 1.59-1.46 2.98-3.13 4.13-4.96.5-.8 1.49-1.13 2.37-.81.89.32 1.43 1.21 1.3 2.14-.13 1.01-.27 2.06-.04 2.87.14.52.52.93.76.95.21.02.64-.21 1.01-.68 1-1.24 1.26-3.05 1.48-5.29.11-1.03.98-1.78 2.02-1.8 1.04.02 1.89.82 1.97 1.86.08 1.17.79 2.33 1.8 2.95 1.21-2.07 1.94-4.62 2.16-7.59zm-7.24 19.35c.17-2.03.2-4.08.1-6.12-1.08.94-2.36 1.42-3.64 1.3-.82-.07-1.59-.38-2.26-.87-.07.45-.15.9-.23 1.34-.38 2.12-.74 4.13-.15 5.84.02.08.05.13.07.18.14-.02.38-.06.8-.18zm-7.17-160.08c0-3.21 0-6.42-.01-9.63-.2.08-.41.14-.64.15-4.43.25-8.92.37-13.37.37-.73 0-1.45 0-2.18-.01-.16 2.9-.33 5.8-.53 8.71 1.87.49 3.95.49 5.98.47zm-.03 14.05c.02-3.35.03-6.7.03-10.05l-10.73.06c-.3.01-.61.01-.93.01-1.71 0-3.54-.05-5.35-.44-.25 3.27-.51 6.53-.79 9.76 5.9.31 11.87.54 17.77.66zm-.11 14.04c.04-3.35.07-6.69.09-10.04-6.01-.12-12.09-.35-18.09-.67-.12 1.36-.24 2.73-.35 4.08-.19 2.07-.37 4.17-.55 6.28 2.89.39 5.91.39 8.84.38zm.05-55.44c-.01-3.19-.03-6.38-.05-9.56h-.06c-.18.02-.37 0-.56 0-4.94 0-9.93.3-14.83.88.01 2.92 0 5.83-.04 8.75zm-.1 59.44-10 .03c-.44 0-.88.01-1.33.01-2.58 0-5.22-.06-7.86-.4-.33 3.96-.64 7.94-.91 11.88-.02.19-.02.38-.04.57 6.6-.13 13.27-.08 19.86.15.02.01.05.01.07.01.09-4.08.16-8.17.21-12.25zm-.05-87.3c-.02-2.99-.03-5.99-.04-8.98-5.28-.07-10.62.07-15.89.41.1 3.07.19 6.14.27 9.23zm-.05-12.98c-.01-1.95-.01-3.9-.02-5.85l-16.18.63c0 .03.01.06.01.09.06 1.84.13 3.69.19 5.54 5.3-.34 10.68-.48 16-.41zm-.19 116.52h-.14c-6.62-.24-13.32-.28-19.95-.15-.24 3.81-.44 7.63-.61 11.45 1.1.08 2.22.13 3.39.16l16.99.42c.12-3.96.22-7.92.32-11.88zm-.46 15.88-16.93-.42c-1.15-.03-2.32-.07-3.49-.15-.16 3.86-.28 7.72-.38 11.58 2.59.46 5.34.44 8.01.42l12.33-.11h.01c.17-3.77.32-7.54.45-11.32zm-.63 15.32-12.13.11c-.61 0-1.23.01-1.85.01-2.07 0-4.18-.07-6.29-.4-.09 3.61-.16 7.21-.22 10.8l19.95-.09c.2-3.47.38-6.95.54-10.43zm-.79 14.43-19.75.09c-.05 3.98-.09 7.94-.12 11.9 6.34-.26 12.75-.47 19.1-.63.28-3.78.54-7.57.77-11.36zm-1.98 26.18c.33-3.6.63-7.2.91-10.81-6.26.16-12.58.37-18.83.62-.02 3.61-.04 7.21-.06 10.79 6.02.11 12.03-.04 17.98-.6zm-15.65-133.39c.86-19.95.18-40.28-.49-59.93 0-.03.01-.05.01-.08l-12.91.5c-.04 5.18-.71 10.34-1.36 15.34-.13.98-.26 1.96-.38 2.94-3.75 29.91-3.14 60.67-2.54 90.41.54 27.6 1.11 56.14-1.78 84.07 4.34.26 8.73.5 13.12.64.12-25.36.26-51.56 2.04-77.3.51-7.42 1.17-14.95 1.8-22.23.98-11.26 2-22.9 2.49-34.36zm-21.24 86.57c.02-4.29 0-8.58-.04-12.86-2.91.24-5.82.46-8.74.66-.19 4.28-.38 8.56-.59 12.82 3.13-.22 6.25-.42 9.37-.62zm-.03 4.01c-3.18.2-6.36.41-9.55.63-.27 5.31-.56 10.6-.85 15.86 3.36-.16 6.7-.38 10.04-.64.19-5.28.31-10.57.36-15.85zm-.05-20.87c-.06-4.75-.14-9.49-.23-14.2-2.6.17-5.22.32-7.83.47-.13 4.8-.29 9.59-.48 14.37 2.85-.2 5.7-.41 8.54-.64zm-.31-18.19c-.01-.75-.03-1.51-.04-2.26-.08-3.81-.16-7.64-.22-11.49-2.4.03-4.8.07-7.2.1-.03 4.7-.09 9.4-.2 14.1 2.52-.15 5.04-.3 7.55-.45zm-.28-53.17c.11-4.57.29-9.14.53-13.7-3.29.13-6.57.35-9.85.65.43 4.55.8 9.11 1.09 13.67 2.75-.19 5.49-.39 8.23-.62zm-7.18 35.52c2.38-.03 4.76-.07 7.13-.1-.08-4.95-.13-9.92-.15-14.9-2.38.15-4.77.28-7.16.39.11 4.87.17 9.74.18 14.61zm7.09-31.5c-2.63.21-5.27.41-7.92.6.23 4.09.42 8.19.55 12.29 2.42-.11 4.84-.24 7.25-.39.01-4.16.05-8.33.12-12.5zm-.26 116.35c.18-2.76.33-5.51.46-8.27-3.35.26-6.72.46-10.09.62-.14 2.63-.28 5.25-.42 7.87l7.1-.41c.83-.04 1.89-.1 2.95.19zm-.28 4.15c-.16-.05-.32-.1-.47-.19-.43-.24-1.28-.19-1.97-.15l-7.55.42c-.17 3.17-.34 6.35-.51 9.52 3.23.16 6.43.35 9.59.54.35-3.37.65-6.75.91-10.14zm-6.72-141.74-.12-22.12c-8.58-.41-17.27-.6-25.85-.56-.64 8.89-1.05 17.84-1.24 26.7 8.96-1.95 18.06-3.3 27.21-4.02zm-3.83 52.8c-.01-4.84-.07-9.67-.18-14.51-5.51.21-11.02.32-16.54.33-.05 4.87-.12 9.74-.21 14.58 5.64-.16 11.29-.3 16.93-.4zm-.21 18.28c.11-4.76.18-9.52.2-14.28-5.66.1-11.33.24-16.99.41-.1 4.95-.21 9.87-.33 14.76 5.71-.28 11.43-.57 17.12-.89zm-.57 18.39c.19-4.78.35-9.58.48-14.38-5.7.32-11.41.61-17.12.89-.11 4.74-.22 9.5-.31 14.29 5.65-.19 11.31-.45 16.95-.8zm.5-55.17c-.13-4.07-.32-8.14-.54-12.2-5.28.34-10.57.6-15.86.81.02 3.9.02 7.81-.01 11.72 5.47-.01 10.95-.12 16.41-.33zm-1.26 72.05c.21-4.28.41-8.57.59-12.86-5.61.34-11.24.6-16.86.79-.08 4.43-.14 8.88-.19 13.33 5.48-.45 10.97-.87 16.46-1.26zm.5-88.24c-.29-4.52-.65-9.03-1.08-13.53-4.96.55-9.9 1.29-14.81 2.21 0 .02.01.04.01.06.1 4.01.16 8.03.2 12.06 5.23-.21 10.46-.47 15.68-.8zm-1.55 108c.29-5.22.57-10.47.84-15.73-5.43.39-10.86.8-16.29 1.25-.03 4.9-.02 9.81.02 14.72 5.14.04 10.29-.04 15.43-.24zm-.65 11.92c.15-2.63.28-5.27.43-7.91-4.3.16-8.6.25-12.9.25-.76 0-1.52-.02-2.28-.03.04 2.85.1 5.68.17 8.52zm-.21 4.02-14.27.81c.08 2.69.18 5.38.3 8.06 1.65-.01 3.3-.02 4.94-.01 2.84.03 5.69.13 8.54.25.15-3.04.32-6.07.49-9.11zm-17.24-107.44c.02-3.85.03-7.69.01-11.54-4.01.13-8.02.24-12.02.29-.17 3.66-.33 7.32-.47 11 4.15.14 8.31.22 12.48.25zm-.02-15.54c-.04-3.84-.1-7.68-.2-11.5-3.51.73-7.01 1.56-10.48 2.49-.17.04-.51.13-.61.2-.02.07-.08.43-.11 1.04-.13 2.67-.27 5.36-.4 8.06 3.92-.06 7.86-.16 11.8-.29zm-.22 34.25c.09-4.89.16-9.8.21-14.72-4.2-.03-8.4-.1-12.58-.25-.16 5.13-.27 10.27-.29 15.41 4.21-.16 8.43-.31 12.66-.44zm-.4 18.84c.11-4.91.22-9.86.32-14.84-4.21.13-8.41.28-12.59.45.02 4.98.13 9.95.36 14.91 3.96-.16 7.93-.33 11.91-.52zm-.4 18.25c.09-4.77.2-9.52.3-14.24-3.87.18-7.75.35-11.61.5.27 4.64.63 9.29 1.03 13.92 3.42-.03 6.84-.09 10.28-.18zm.31 60.59c-.11-2.63-.21-5.27-.29-7.92l-6.68.38c-.01 2.61-.08 5.22-.19 7.83 2.39-.13 4.78-.22 7.16-.29zm-7-11.54 6.6-.38c-.07-2.92-.13-5.85-.17-8.78-2.24-.04-4.49-.1-6.73-.19.15 3.11.26 6.23.3 9.35zm6.42-31.52c.05-4.52.11-9.03.19-13.53-3.29.09-6.57.14-9.84.18.22 2.47.46 4.94.69 7.39.21 2.22.42 4.45.63 6.68 2.77-.24 5.55-.48 8.33-.72zm-.02 18.36c-.04-4.78-.05-9.56-.02-14.34-2.65.22-5.29.45-7.93.69.39 4.46.75 8.95 1.03 13.46 2.3.09 4.61.15 6.92.19zm-10.58 25.23c.77-16.38-.81-33.04-2.34-49.18-.87-9.1-1.76-18.51-2.23-27.8-.68-13.37-.49-26.86 0-40.22-1.43.16-2.85.33-4.27.53-1.17 9.99-1.25 20.27-1.33 30.21-.22 28.6-.44 58.17 3.43 86.96 2.24-.19 4.49-.35 6.74-.5zm-14.17-86.49c.07-9.7.16-19.71 1.24-29.58-2.26.37-4.51.79-6.75 1.26-2.3 42.62-1.76 80.72 1.62 116.41 2.44-.26 4.88-.51 7.33-.74-3.88-29.02-3.66-58.67-3.44-87.35zm-8.52 205.77c.36-.85.23-2.06.06-3.22-2.48-17.14-10.34-32.99-17.93-48.32-.7-1.41-1.49-3.01-2.67-3.86-1.55-1.12-2.28-.83-2.52-.74-2.86 1.11-4.6 9.59-5.44 13.67-.3 1.46-.53 2.62-.78 3.45-3.1 10.62-5.99 21.48-8.6 32.26-.46 1.91-.77 4.37.36 5.19.21.14.56.33 1.2.22 1.06-.18 2.34-1.09 3.12-2.21.49-.7.92-1.49 1.38-2.32.97-1.78 1.99-3.62 3.76-5.01.66-.52 1.58-.57 2.29-.13s1.07 1.28.9 2.1c-.75 3.7-.78 7.61-.08 11.32.08.44.29 1.58.76 1.94.39.29 1.29.11 1.88-.4.88-.75 1.45-2.03 1.99-3.26l3.24-7.33c.32-.73 1.05-1.19 1.83-1.19.08 0 .17.01.26.02.87.11 1.57.79 1.71 1.67.5 3.07 1.16 6.15 1.97 9.15.13.46.31 1.12.57 1.51l2.6-12.44c.2-.97 1.07-1.65 2.07-1.59.99.06 1.79.83 1.88 1.81.24 2.64 1.09 5.24 2.45 7.51.46.75.71.93.81.97.15.06.71-.23.93-.77zm.66-117.24c-3.39-35.59-3.94-73.55-1.7-115.95-1.96.46-3.92.96-5.86 1.49-.44.12-1.1.31-1.32.54-.3.31-.37 1.29-.41 1.82-2.03 27.21-1.27 54.99-.53 81.85l.86 31.33c2.98-.37 5.96-.73 8.96-1.08zm-12.91 1.57c-.02-.1-.04-.2-.04-.31l-.24-8.47c-.44.06-.85.08-1.22.1l-30.57 1.4-.02 11.17c8.64-.88 17.25-1.99 25.77-3.08 2.1-.27 4.2-.54 6.32-.81zm-.39-12.86-.26-9.34c-11.64 1.32-24.45 1.99-31.4 2.28l-.01 8.63 30.38-1.39c.47-.02.96-.04 1.24-.17.02 0 .03-.01.05-.01zm-.37-13.35-.15-5.5c-.03-1.22-.06-2.44-.1-3.65l-31.02 2.87-.01 8.56c7-.29 19.76-.96 31.28-2.28zm-.36-13.16c-.06-2.27-.11-4.54-.17-6.82-10.24.51-20.57 1.54-30.72 3.06l-.01 6.62zm-6.71-10.42-.92-11.12c-.26-3.19-.54-6.48-1.2-9.62l-16.69 1.57c.11 6.95.72 13.95 1.81 20.82 5.65-.7 11.33-1.25 17-1.65z"/><path d="m189.3 384.15c-.42-.15-.83-.37-1.2-.66-.79 1.09-1.98 1.96-3.35 2.25.16 2.6.08 5.21-.27 7.79-.04.29-.13.96-.65 1.55-.53.6-1.18.77-1.45.84-2.39.64-4.86.97-7.34.97-.31 0-.62-.01-.93-.02-.35-.01-1.02-.03-1.69-.38-.55-.28-1.01-.72-1.39-1.35-1.08-1.76-1.07-3.75-.96-5.09.04-.43.09-.86.14-1.3.1-.85.19-1.65.14-2.39-.01-.19.01-.38.05-.56-.85-.93-1.24-2.01-1.4-3.13l-.82.88c-.45.48-1.66 1.76-3.39 1.53-.7-.1-1.36-.43-1.99-1.03-2.54-2.38-2.59-5.96-2.3-9.15.4-4.42 1.01-8.89 1.83-13.27 1.49-7.91 3.66-15.75 6.47-23.29 1.39-3.74 5.14-12.59 9.77-13.73 1.48-.37 2.98.03 4.2 1.12 1.94 1.73 2.96 4.07 3.64 5.91 1.06 2.91 1.73 5.91 2.37 8.81 1.77 7.96 3.61 16.2 5.02 24.4.87 5.07 1.63 10.47.49 15.8-.14.67-.52 2.45-2.12 3.31-.27.14-.55.25-.85.32-.36.09-.72.11-1.1.08h-.01c-.3-.03-.61-.1-.91-.21zm1.08-4.33c.98-4.64.28-9.6-.53-14.29-1.39-8.11-3.21-16.29-4.97-24.21-.62-2.78-1.26-5.65-2.23-8.31-.51-1.4-1.26-3.16-2.54-4.29-.32-.29-.47-.26-.58-.23-1.73.43-4.79 5.37-6.98 11.25-2.73 7.33-4.84 14.94-6.28 22.63-.8 4.25-1.4 8.59-1.79 12.89-.06.65-.1 1.33-.1 1.98 0 1.39.2 2.7.87 3.58l4.27-4.57c.39-.41.92-.64 1.46-.64.24 0 .48.05.71.13.76.29 1.27 1.01 1.29 1.82.02.68-.01 1.36-.05 2.03-.09 1.82-.1 3.06.53 3.63.61.54 2.01.25 2.83-.58 1.13-1.14 1.65-3.03 2.11-4.69.25-.93 1.14-1.54 2.1-1.46.96.09 1.73.85 1.82 1.81.18 2.03.73 3.42 1.4 3.54.41.08 1.07-.42 1.37-1.06.45-.98.45-2.29.44-3.56 0-.96.68-1.79 1.63-1.97s1.89.34 2.24 1.24c.28.73.4 1.45.51 2.08.09.52.18 1.01.33 1.38.02.04.05.09.07.13.02-.08.04-.16.07-.26zm-9.77 12.42c.29-2.56.3-5.13.04-7.67-.15-.14-.3-.27-.45-.44-.3.46-.66.91-1.06 1.32-1.22 1.23-3.02 2.04-4.8 2.05-.03.59-.09 1.16-.16 1.72-.04.38-.09.77-.12 1.15-.09 1.11 0 1.94.28 2.51 2.11.06 4.22-.16 6.27-.64z"/><path d="m155.75 395.93c2.9 8.38 5.9 17.04 5.82 26.16-.02 2.3-.25 5.26-1.84 7.79-1.57 2.49-4.89 4.51-8.19 3.53-1.65-.48-2.85-1.55-3.71-2.79-.35.44-.75.81-1.19 1.11l.52 9.5c.01.24.05.89-.34 1.53-.44.72-1.14 1.11-2.11 1.19l-14.32 1.19c-.23.02-.53.05-.89.05-1 0-2.37-.21-3.32-1.36-.97-1.16-.91-2.6-.87-3.37l.3-6.41c-.49.35-1.04.64-1.71.79-.31.07-.61.1-.91.1-2.4 0-4.35-2.12-4.9-4.4-.1-.41-.16-.82-.2-1.22l-.1.09c-.85.71-2 1.7-3.59 1.94-2.98.45-5.44-1.95-6.09-4.54-.58-2.28-.02-4.51.43-6.29 3.15-12.39 6.67-24.86 10.46-37.09-2.47-2.18-1.57-5.95-1.26-7.23 1.96-8.1 4.13-16.26 6.46-24.25.15-.49.32-1.33.52-2.3 1.22-5.93 2.61-11.36 6.22-12.77 1.14-.44 2.96-.63 5.19.99 1.58 1.14 2.41 2.81 3.07 4.16 5.8 11.69 11.79 23.79 13.73 37.14.18 1.29.33 2.79-.29 4.26-.15.37-.36.69-.6 1 .04.08.08.17.11.26 1.01 3.76 2.33 7.56 3.6 11.24zm1.82 26.13c.07-8.43-2.68-16.39-5.6-24.82-1.25-3.63-2.54-7.37-3.58-11.13-.29-.03-.58-.08-.86-.18-1.1-.4-1.77-1.23-2.25-1.97l-.45 2.19c-.1.47-.27 1.26-.88 1.94-.55.62-1.33.97-2.19 1.01h-.14c-.91 0-1.84-.36-2.5-.98-.98-.93-1.32-2.16-1.52-2.89-.09-.34-.17-.67-.26-1.01-.5 1.12-1.13 2.45-2.32 3.46-1.48 1.26-3.94 1.8-5.77.41-1.27-.95-1.68-2.42-1.9-3.58-.15-.82-.26-1.65-.33-2.48-1.12 1.29-2.64 2.22-4.13 2.48h-.04c-3.78 12.2-7.29 24.63-10.43 36.99-.43 1.72-.74 3.12-.43 4.33.22.88 1.02 1.66 1.6 1.57.47-.08 1.1-.61 1.61-1.04l3.18-2.71c.55-.47 1.31-.6 1.99-.35s1.17.85 1.28 1.56c.14.87.15 1.7.16 2.5.01.82.01 1.59.17 2.25.2.83.86 1.36 1.05 1.33.11-.03.33-.15.79-.59 1.36-1.31 2.5-2.91 3.3-4.62.33-.73 1.08-1.18 1.88-1.16s1.51.53 1.8 1.28c.49 1.27 1.77 4.2 3.38 4.11.82-.05 1.58-.93 2.03-1.73.34-.62.61-1.31.9-2.05s.59-1.51.99-2.27c.41-.78 1.28-1.2 2.14-1.04.87.16 1.53.87 1.62 1.75.12 1.09.24 2.22.67 3.06.3.58.83 1.02 1.24 1.02.42 0 .95-.46 1.24-1.06.42-.86.5-2.02.59-3.13.07-.99.86-1.77 1.85-1.84.99-.08 1.88.59 2.1 1.56.7 3.19 1.72 4.93 3.12 5.35 1.33.39 2.91-.63 3.68-1.84 1.05-1.67 1.2-3.91 1.22-5.68zm-8.61-40.18c.22-.52.12-1.34.01-2.14-1.84-12.72-7.69-24.52-13.35-35.94-.5-1-1.06-2.13-1.83-2.69-.43-.31-1.01-.65-1.4-.5-1.88.73-3.24 7.35-3.75 9.84-.23 1.11-.41 1.98-.6 2.62-2.31 7.93-4.47 16.03-6.41 24.07-.63 2.6-.1 3.22.07 3.34.06.05.19.14.51.08.66-.11 1.5-.72 2.01-1.44.34-.5.66-1.07.99-1.68.72-1.31 1.54-2.8 2.95-3.9.36-.29.79-.43 1.23-.43.36 0 .73.1 1.05.3.71.44 1.08 1.28.91 2.1-.55 2.7-.57 5.56-.06 8.26.17.94.34 1.11.37 1.14.09.02.46-.02.77-.28.58-.49.97-1.39 1.36-2.26l2.41-5.47c.36-.81 1.22-1.29 2.09-1.17.88.11 1.58.79 1.72 1.66.33 2.05.76 4.11 1.28 6.12l1.56-7.47c.2-.96 1.07-1.64 2.07-1.58.99.05 1.78.82 1.88 1.81.17 1.89.78 3.76 1.76 5.39.12.19.21.32.27.4.05-.05.1-.12.13-.18zm-5.87 58.19-.41-7.52c-1.2-.29-2.31-1.03-3.12-2.12-1.26 2.11-3.11 3.39-5.11 3.52-1.79.13-3.38-.58-4.74-2.07l-.41 8.77c0 .1-.01.34 0 .53.14.01.38.01.76-.02z"/></svg>