<?xml version="1.0" encoding="iso-8859-1"?>
<!-- Generator: Adobe Illustrator 19.0.0, SVG Export Plug-In . SVG Version: 6.00 Build 0)  -->
<svg version="1.1" id="Layer_1" xmlns="http://www.w3.org/2000/svg" xmlns:xlink="http://www.w3.org/1999/xlink" x="0px" y="0px"
	 viewBox="0 0 512.002 512.002" style="enable-background:new 0 0 512.002 512.002;" xml:space="preserve">
<g>
	<g>
		<path d="M490.883,66.652c-0.234-2.037-0.626-3.902-1.498-5.781c-0.578-1.24-1.375-2.282-2.259-3.326
			c-1.117-1.325-2.97-2.294-4.528-3.043c-2.442-1.166-4.933-2.111-7.51-2.908c-1.986-0.607-3.937-1.237-5.856-2.005
			c-5.128-2.218-10.217-4.513-15.339-6.732c-5.841-2.528-11.683-5.08-17.438-7.805c-5.903-2.798-11.781-5.658-17.597-8.627
			c-5.523-2.823-10.897-5.951-16.408-8.811c-2.725-1.424-5.498-2.749-8.247-4.123c-2.589-1.276-5.129-2.651-7.695-3.963
			c-5.78-2.933-11.683-5.89-17.856-7.891c-3.141-1.019-6.369-1.596-9.67-1.632C358.804,0.001,358.625,0,358.446,0
			c-2.447,0-4.894,0.152-7.329,0.359c-5.915,0.489-11.818,1.374-17.709,2.111c-5.78,0.737-11.56,1.351-17.365,1.927
			c-6.1,0.625-12.175,1.435-18.261,2.16c-6.271,0.737-12.542,1.779-18.874,1.976c-3.118,0.098-6.271-0.075-9.388-0.148
			c-3.105-0.086-6.21-0.098-9.314-0.086c-5.597,0.026-11.18,0.16-16.764,0.7c-2.09,0.207-4.187,0.401-6.288,0.576
			c-1.006-0.084-2.012-0.154-3.017-0.274c-3.329-0.502-6.669-0.995-9.984-1.52c-3.424-0.54-6.823-1.215-10.26-1.632
			c-3.669-0.442-7.315-0.7-11.02-0.81c-3.167-0.098-6.332-0.098-9.511-0.197c-6.774-0.22-13.536-0.454-20.31-0.748
			c-3.214-0.147-6.43-0.368-9.645-0.564c-1.767-0.111-3.534-0.184-5.29-0.283c-1.199-0.066-2.436-0.147-3.654-0.147
			c-0.363,0-0.724,0.009-1.083,0.026c-0.712,0.037-1.449,0.024-2.16,0.122c-1.362,0.184-2.908,0.246-4.221,0.565
			c-1.816,0.43-3.584,0.871-5.363,1.423c-3.767,1.166-7.412,2.774-11.033,4.319c-6.344,2.688-12.652,5.425-18.923,8.271
			c-12.763,5.781-25.427,11.77-37.957,18.016c-5.903,2.945-11.683,6.148-17.599,9.069c-3.141,1.534-6.259,3.081-9.326,4.762
			c-2.896,1.583-5.682,3.362-8.53,5.044c-2.859,1.681-5.756,3.313-8.615,4.982c-1.914,1.116-3.731,2.406-5.4,3.865
			c-0.81,0.724-1.435,1.779-2.001,2.687c-0.43,0.688-0.749,1.718-0.945,2.517c-0.613,2.429-0.344,4.944-0.05,7.4
			c0.48,4.024,1.129,8.148,1.988,12.124c0.712,3.3,1.449,6.577,2.442,9.817c2.062,6.786,4.27,13.524,6.136,20.359
			c1.718,6.307,3.116,12.714,5.031,18.961c1.055,3.424,2.172,6.823,3.411,10.185c1.411,3.816,2.957,7.658,4.847,11.253
			c2.025,3.842,5.019,7.756,9.106,9.523c1.276,0.552,2.294,0.969,3.608,1.251c1.337,0.295,2.724,0.405,4.075,0.516
			c2.737,0.221,5.571-0.356,8.235-0.92c1.976-0.418,3.914-1.117,5.854-1.718c1.498-0.467,2.994-1.006,4.466-1.534
			c6.185-2.184,12.248-4.626,18.348-7.007c2.982-1.166,5.964-2.344,8.933-3.523c2.97-1.19,6.026-2.147,9.069-3.154
			c0.175-0.056,0.35-0.113,0.525-0.17c0.308,6.271,1.438,12.469,2.789,18.59c1.46,6.653,3.289,13.231,5.044,19.807
			c1.693,6.37,3.57,12.69,5.768,18.899c2.344,6.676,5.105,13.191,7.044,20.003c0.516,1.804,0.858,3.646,1.161,5.491
			c0.225,2.755,0.294,5.466,0.214,8.23c-0.057,2.149-0.313,4.274-0.59,6.397c-0.65,3.485-1.337,6.957-2.086,10.416
			c-0.737,3.387-1.73,6.737-2.663,10.075c-1.742,6.271-3.682,12.493-5.646,18.702c-4.246,13.498-8.554,26.997-12.751,40.521
			c-4.075,13.144-8.75,26.078-13.376,39.026c-4.724,13.217-9.376,26.434-13.511,39.835c-4.185,13.549-7.915,27.33-9.278,41.479
			c-1.055,10.885-0.65,22.752,5.473,32.164c2.725,4.172,6.295,7.474,10.358,10.284c3.891,2.699,8.627,4.308,13.242,5.141
			c4.626,0.847,9.216,0.983,13.744-0.417c4.382-1.362,8.259-4.038,11.524-7.204c0.28-0.27,0.553-0.547,0.82-0.831
			c0.908,1.323,1.855,2.62,2.874,3.887c2.344,2.909,5.498,5.203,8.565,7.289c2.859,1.952,6,3.448,9.216,4.713
			c1.804,0.712,3.865,1.006,5.78,1.191c2.025,0.196,3.902,0.111,5.915-0.173c7.339-1.006,13.303-6.098,18.163-11.376
			c0.423-0.461,0.839-0.934,1.249-1.412c1.555,2.037,3.241,3.968,5.144,5.707c2.454,2.246,5.227,4.137,8.247,5.523
			c1.485,0.675,3.008,1.252,4.553,1.742c1.779,0.565,3.669,0.738,5.498,0.97c1.534,0.196,3.105,0.061,4.639-0.124
			c1.964-0.245,3.842-0.613,5.719-1.215c3.338-1.093,6.1-3.055,8.787-5.239c1.038-0.833,1.966-1.829,2.835-2.852
			c0.447,0.433,0.89,0.872,1.325,1.318c1.117,1.154,2.062,2.467,3.19,3.608c2.27,2.282,5.105,4.099,7.928,5.595
			c3.032,1.583,6.283,2.676,9.646,3.264c1.522,0.257,3.092,0.417,4.64,0.515c1.889,0.124,3.767-0.208,5.633-0.491
			c3.338-0.503,6.639-2.001,9.511-3.718c1.374-0.822,2.614-1.877,3.865-2.859c1.117-0.871,2.196-1.901,3.141-2.944
			c0.524-0.568,1.034-1.145,1.537-1.728c0.959,1.083,2.029,2.06,3.114,3.004c3.486,3.019,7.388,5.141,11.683,6.713
			c1.976,0.711,4.099,1.055,6.173,1.276c2.393,0.245,4.663,0.22,7.044-0.135c4.197-0.614,8.1-2.198,11.732-4.357
			c1.767-1.044,3.375-2.419,4.958-3.718c1.412-1.166,2.676-2.479,3.94-3.793c1.203-1.276,2.357-2.601,3.521-3.914
			c0.232-0.263,0.464-0.529,0.695-0.794c0.23,0.414,0.472,0.821,0.729,1.224c2.062,3.24,4.847,5.769,8.038,7.855
			c3.24,2.134,7.13,3.228,10.922,3.731c3.951,0.54,7.978,0.173,11.768-1.056c1.878-0.613,3.706-1.472,5.474-2.357
			c1.693-0.846,3.165-2.062,4.651-3.227c2.001-1.559,3.657-3.474,5.265-5.413c0.385-0.467,0.767-0.937,1.143-1.413
			c0.425,0.453,0.864,0.897,1.324,1.328c1.571,1.46,3.338,2.737,5.117,3.94c2.147,1.449,4.541,2.442,6.922,3.437
			c1.854,0.773,3.793,1.264,5.768,1.632c2.43,0.454,4.885,0.662,7.351,0.44c2.76-0.245,5.264-0.969,7.793-2.111
			c2.552-1.153,4.7-2.687,6.896-4.417c2.626-2.086,4.626-4.909,6.566-7.609c1.203-1.681,2.27-3.497,3.019-5.424
			c1.533-3.94,2.209-8.247,2.725-12.432c0.847-6.908,1.669-13.819,2.516-20.727c0.81-6.602,0.981-13.254,1.044-19.905
			c0.073-6.934,0.22-13.954-0.724-20.85c-0.945-6.922-2.098-13.819-3.057-20.74c-0.466-3.362-1.055-6.664-1.718-9.989
			c-0.663-3.388-1.779-6.676-2.809-9.966c-1.007-3.216-2.185-6.394-3.265-9.584c-1.08-3.19-2.147-6.381-3.24-9.56
			c-2.283-6.627-4.958-13.107-7.339-19.697c-1.129-3.13-2.123-6.308-3.154-9.474c-1.08-3.338-2.32-6.602-3.608-9.866
			c-1.375-3.46-2.896-6.848-4.357-10.26c-1.386-3.265-2.786-6.505-4.308-9.708c-2.933-6.197-6.271-12.21-9.338-18.334
			c-2.283-4.553-4.7-9.045-7.154-13.512c-2.377-4.318-4.599-8.674-6.667-13.157c-0.546-1.313-1.091-2.625-1.555-3.962
			c-0.393-1.165-0.786-2.32-1.191-3.485c-0.848-2.481-1.339-5.115-1.739-7.716c-0.432-4.15-0.765-8.298-1.084-12.461
			c-0.159-1.988-0.344-3.975-0.491-5.976c-0.316-4.467-0.42-8.88,0.071-13.332c1.047-6.754,2.85-13.364,4.986-19.84
			c2.258-6.823,4.528-13.634,6.798-20.445c0.262-0.787,0.496-1.58,0.743-2.369c2.31,0.945,4.635,1.853,6.938,2.787
			c2.921,1.178,5.854,2.161,8.897,2.983c5.927,1.571,11.805,3.35,17.831,4.504c2.872,0.552,5.744,1.056,8.603,1.669
			c3.019,0.65,6.014,1.472,9.008,2.184c3.277,0.786,6.553,1.607,9.904,1.939c3.891,0.392,8.418-0.075,10.604-3.842
			c1.044-1.804,1.644-3.926,2.369-5.889c2.27-6.051,4.626-12.075,6.908-18.138c2.196-5.792,4.038-11.719,6.136-17.55
			c2.221-6.185,4.565-12.332,6.799-18.505c1.559-4.333,3.043-8.69,4.529-13.032c1.62-4.713,3.203-9.437,4.541-14.236
			C490.404,77.451,491.508,72.026,490.883,66.652z M207.645,17.354c6.222,0.688,12.419,1.669,18.678,2.025
			c6.43,0.368,12.861,0.478,19.304,0.503c5.644,0.013,11.29,0.307,16.934,0.491c5.571,0.16,11.168,0.7,16.739,0.602
			c3.948-0.077,7.868-0.536,11.782-1.045c-0.021,2.213-0.109,4.423-0.366,6.635c-0.603,3.644-1.329,7.214-2.583,10.693
			c-0.854,1.87-1.8,3.643-3.001,5.324c-1.971,2.408-4.187,4.547-6.612,6.505c-1.317,0.992-2.653,1.955-4.07,2.784
			c-1.67,0.967-3.37,1.815-5.124,2.607c-2.513,0.93-5.072,1.692-7.674,2.387c-2.82,0.749-5.639,1.531-8.534,1.974
			c-1.997,0.213-3.986,0.272-5.996,0.149c-0.786-0.056-1.571-0.148-2.357-0.242c-1.385-0.234-2.787-0.453-4.148-0.849
			c-1.55-0.465-3.077-0.954-4.603-1.51c-2.299-0.991-4.582-2.024-6.797-3.202c-2.824-1.493-5.615-3.02-8.188-4.918
			c-2.396-1.958-4.435-4.208-6.438-6.561c-1.063-1.396-2.16-2.804-3.058-4.305c-1.087-1.841-2.078-3.672-2.962-5.611
			c-0.859-2.308-1.591-4.626-2.278-6.992c-0.642-2.215-0.979-4.489-1.301-6.769c-0.036-0.319-0.07-0.639-0.104-0.958
			C205.806,17.164,206.726,17.254,207.645,17.354z M178.293,16.209c3.792-0.11,7.584-0.11,11.376-0.11
			c1.966,0.009,3.942-0.016,5.916-0.033c0.927,0.114,1.856,0.234,2.785,0.334c0.186,1.816,0.392,3.633,0.706,5.428
			c0.417,2.43,1.007,4.799,1.657,7.192c1.264,4.564,3.081,9.032,5.633,13.032c3.301,5.178,7.266,10.185,12.297,13.793
			c3.89,2.797,7.989,5.386,12.37,7.363c1.325,0.601,2.651,1.178,4.013,1.681c1.129,0.417,2.282,0.737,3.448,1.067
			c2.503,0.712,5.227,0.896,7.805,1.093c6.688,0.516,13.13-1.484,19.488-3.251c4.614-1.276,9.155-2.983,13.315-5.351
			c2.258-1.288,4.417-2.687,6.479-4.27c1.865-1.449,3.584-3.032,5.241-4.724c2.7-2.736,4.958-6.124,6.541-9.647
			c1.117-2.454,2.123-4.909,2.823-7.51c1.206-4.547,1.937-9.2,2.18-13.896c3.726-0.519,7.452-1.034,11.177-1.563
			c4.596-0.598,9.189-1.216,13.776-1.899c0.037,0.761,0.094,1.512,0.141,2.262c0.098,1.976,0.159,3.94,0.196,5.903
			c0.07,4.147,0.073,8.282-0.325,12.406c-0.241,1.503-0.526,2.989-0.914,4.469c-0.405,1.523-0.918,2.994-1.493,4.455
			c-1.505,2.968-3.229,5.755-5.104,8.504c-1.804,2.233-3.692,4.363-5.664,6.456c-2.086,2.211-4.394,4.166-6.776,6.047
			c-5.035,3.723-10.222,7.305-15.856,10.07c-6.245,2.419-12.747,3.893-19.352,4.963c-6.031,0.685-12.084,0.86-18.136,1.069
			c-3.252,0.124-6.479,0.062-9.731-0.073c-2.649-0.108-5.297-0.445-7.929-0.775c-3.136-0.509-6.249-1.068-9.326-1.864
			c-3.012-0.788-5.889-1.841-8.764-3.001c-7.852-3.503-15.46-7.471-22.356-12.642c-2.325-1.887-4.411-3.968-6.314-6.279
			c-3.518-4.713-6.078-9.916-8.456-15.27c-0.707-1.85-1.391-3.7-2.019-5.575c-0.663-1.988-1.178-4.013-1.706-6.026
			c-0.969-3.747-1.7-7.549-2.332-11.366c-0.078-0.772-0.071-1.549-0.121-2.32C176.086,16.309,177.189,16.243,178.293,16.209z
			 M31.09,72.797c0.001-0.034,0.006-0.069,0.009-0.102c0.001,0,0.002-0.001,0.005-0.001C31.1,72.728,31.095,72.763,31.09,72.797z
			 M68.916,155.905c-1.271,0.125-2.511,0.166-3.776,0.111c-0.514-0.114-1.016-0.243-1.518-0.399
			c-0.16-0.082-0.318-0.169-0.476-0.257c-0.116-0.119-0.231-0.239-0.345-0.36c-1.845-2.718-3.231-5.786-4.553-8.78
			c-0.924-2.101-1.848-4.209-2.764-6.32c-1.914-4.61-3.756-9.24-5.544-13.905c-2.123-5.51-4.443-10.934-6.737-16.37
			c0.221,0.54,0.454,1.08,0.675,1.62c-2.282-5.446-4.575-10.902-6.888-16.348c-0.58-1.566-1.16-3.134-1.74-4.699
			c-0.54-1.472-0.92-3.032-1.375-4.541c-1.087-3.607-1.912-7.399-2.527-11.12c-0.06-0.633-0.102-1.252-0.108-1.879
			c1.172-0.297,2.359-0.554,3.493-0.967c2.098-0.773,4.136-1.632,6.185-2.516c2.921-1.276,5.756-2.762,8.577-4.234
			c1.873-0.979,3.77-1.903,5.674-2.809c0.144,0.576,0.296,1.15,0.439,1.726c0.515,2.086,1.191,4.111,1.915,6.136
			c0.663,1.854,1.449,3.67,2.172,5.51c0.834,2.1,1.607,4.198,2.355,6.321c1.437,4.024,2.601,8.16,3.829,12.247
			c1.313,4.369,2.614,8.739,4.111,13.046c1.313,3.743,2.725,7.449,3.964,11.217c1.276,3.865,2.245,7.805,3.141,11.781
			c0.883,3.891,1.742,7.768,2.957,11.586c1.112,3.547,2.276,7.06,3.071,10.694C78.457,153.851,73.737,155.151,68.916,155.905z
			 M421.549,141.36c-1.073,3.284-2.016,6.627-3.112,9.905c-0.056,0.059-0.094,0.133-0.148,0.195
			c-2.432-0.713-4.848-1.478-7.264-2.256c-2.217-0.722-4.475-1.324-6.709-1.974c-2.018-0.584-3.975-1.341-5.917-2.131
			c-2.554-1.102-5.112-2.235-7.802-2.949c-0.263-0.07-0.544-0.122-0.819-0.184c0.042-0.234,0.094-0.467,0.133-0.702
			c1.19-7.02,2.147-14.101,2.049-21.232c-0.073-5.302-0.356-10.579-0.81-15.855c-0.466-5.326-1.547-10.579-2.97-15.721
			c-1.448-5.277-3.216-10.42-5.387-15.438c-1.03-2.357-2.111-4.689-3.301-6.971c-1.224-2.331-2.501-5.259-4.874-6.62
			c-0.648-0.515-1.388-0.912-2.293-1.16c-1.791-0.503-3.755-0.246-5.363,0.699c-1.559,0.908-2.713,2.418-3.191,4.148
			c-0.436,1.569-0.346,3.596,0.505,5.058c0.554,1.331,1.527,2.419,2.462,3.528c2.177,3.086,3.813,6.534,5.363,9.983
			c1.545,3.852,2.853,7.766,4.078,11.732c1.165,3.791,1.935,7.636,2.592,11.54c0.606,5.197,1.058,10.386,1.299,15.619
			c0.225,5.031-0.201,10.003-0.803,14.988c-0.492,3.081-0.954,6.182-1.701,9.201c-0.822,3.338-1.742,6.627-2.834,9.878
			c-2.135,6.382-4.443,12.702-6.7,19.046c-2.344,6.639-4.701,13.254-6.309,20.125c-0.797,3.437-1.35,6.922-1.657,10.443
			c-0.307,3.339-0.11,6.689,0.061,10.038c0.172,3.167,0.417,6.333,0.637,9.499c0.319,4.713,0.737,9.413,1.559,14.064
			c0.834,4.762,2.589,9.242,4.406,13.685c2.713,6.602,6.259,12.701,9.743,18.924c3.474,6.196,6.775,12.493,10.186,18.727
			c1.51,2.749,3.092,5.485,4.48,8.296c1.608,3.289,3.13,6.602,4.602,9.965c1.187,2.709,2.355,5.418,3.53,8.134
			c1.192,2.962,2.376,5.927,3.392,8.96c1.093,3.228,2.111,6.516,3.313,9.708c2.393,6.43,5.129,12.725,7.425,19.181
			c2.369,6.653,4.663,13.328,6.995,20.004c2.259,6.479,3.633,13.119,4.689,19.893c1.019,6.531,2.103,13.052,3.042,19.582
			c0.204,2.41,0.383,4.81,0.443,7.231c0.061,2.468,0.061,4.921,0.037,7.376c-0.061,4.946-0.148,9.904-0.515,14.837
			c-0.368,4.92-0.896,9.817-1.522,14.714c-0.633,4.909-1.146,9.828-1.734,14.738c-0.453,2.846-0.992,5.677-1.936,8.408
			c-0.04,0.072-0.082,0.143-0.126,0.214c-2.262,2.719-4.576,5.4-7.273,7.673c-1.347,0.946-2.743,1.76-4.224,2.481
			c-0.926,0.327-1.85,0.586-2.814,0.787c-1.354,0.092-2.687,0.059-4.057-0.057c-2.218-0.393-4.353-1-6.452-1.807
			c-2.036-0.962-3.951-2.079-5.775-3.402c-1.151-0.945-2.253-1.942-3.261-3.031c-0.663-0.738-1.325-1.449-2.062-2.123
			c-1.939-1.779-4.921-2.393-7.278-1.006c-1.006,0.589-1.889,1.547-2.749,2.343c-2.945,2.742-5.632,5.764-8.727,8.351
			c-1.253,0.866-2.552,1.598-3.927,2.243c-1.456,0.558-2.919,1.011-4.449,1.321c-1.458,0.125-2.899,0.139-4.368,0.037
			c-1.414-0.259-2.77-0.629-4.125-1.118c-1.045-0.509-2.041-1.082-3.014-1.734c-0.958-0.819-1.827-1.701-2.662-2.665
			c-1.186-1.667-2.169-3.42-3.03-5.294c-0.281-0.613-0.552-1.178-0.945-1.73c-0.491-0.834-1.166-1.509-2.001-2.001
			c-0.589-0.257-1.178-0.503-1.779-0.748c-1.264-0.503-3.191-0.148-4.308,0.564c-0.859,0.552-1.644,1.203-2.418,1.854
			c-0.786,0.663-1.534,1.351-2.27,2.062c-3.944,3.84-7.45,8.07-11.712,11.574c-1.539,1.071-3.134,2.005-4.826,2.817
			c-1.51,0.56-3.025,0.996-4.606,1.302c-1.594,0.131-3.172,0.108-4.766-0.029c-1.786-0.33-3.495-0.801-5.198-1.435
			c-1.838-0.885-3.554-1.908-5.222-3.085c-1.457-1.197-2.789-2.486-4.044-3.912c-1.476-1.96-3.272-4.202-5.917-3.99
			c-0.699,0.037-1.386,0.122-2.074,0.245c-0.932,0.258-1.73,0.724-2.418,1.4c-0.663,0.54-1.288,1.093-1.915,1.657
			c-2.086,1.922-4.095,3.933-6.295,5.728c-1.466,1.039-2.964,1.93-4.576,2.705c-1.438,0.518-2.883,0.914-4.383,1.195
			c-1.561,0.105-3.092,0.049-4.645-0.104c-2.059-0.355-4.051-0.893-6.024-1.63c-2.029-0.924-3.942-1.99-5.766-3.288
			c-2.732-2.261-5.189-4.883-8.111-6.925c-1.301-0.908-2.589-1.816-4.185-2.086c-1.473-0.245-2.737-0.22-4.062,0.54
			c-0.433,0.24-0.826,0.549-1.208,0.871c-1.156,0.852-2.298,1.726-3.433,2.606c-1.725,1.291-3.48,2.42-5.391,3.351
			c-1.16,0.387-2.32,0.661-3.518,0.886c-1.364,0.116-2.708,0.131-4.077,0.04c-1.577-0.289-3.101-0.722-4.614-1.276
			c-1.725-0.817-3.344-1.76-4.897-2.867c-2.687-2.272-4.959-4.842-7.137-7.584c-0.639-0.868-1.286-1.734-2.039-2.495
			c-0.994-1.019-2.27-1.645-3.619-2.049c-1.681-0.503-3.572-0.135-5.007,0.822c-1.303,0.869-2.134,2.018-3.031,3.265
			c-2.778,3.543-5.673,6.934-9.141,9.833c-1.222,0.842-2.467,1.602-3.792,2.267c-0.839,0.281-1.673,0.499-2.54,0.669
			c-1.26,0.092-2.486,0.076-3.744-0.032c-1.357-0.269-2.649-0.626-3.947-1.11c-3.394-1.516-6.607-3.315-9.632-5.495
			c-1.866-1.536-3.535-3.219-5.113-5.064c-1.84-2.16-3.596-4.932-6.786-4.97c-1.154-0.013-2.111,0.232-3.105,0.835
			c-0.945,0.578-1.657,1.473-2.454,2.21c-0.931,0.843-1.871,1.657-2.842,2.44c-1.154,0.795-2.321,1.494-3.579,2.092
			c-1.473,0.57-2.973,1.022-4.526,1.347c-0.964,0.069-1.906,0.072-2.873,0.012c-2.081-0.385-4.078-0.985-6.049-1.745
			c-2.269-1.04-4.4-2.242-6.436-3.682c-1.596-1.319-3.039-2.758-4.377-4.336c-0.919-1.352-1.713-2.758-2.41-4.238
			c-0.748-2.04-1.282-4.115-1.653-6.256c-0.757-7.304-0.193-14.64,0.642-21.914c2.184-13.602,5.824-26.888,9.633-40.113
			c1.779-6.147,3.816-12.234,5.866-18.285c2.259-6.662,4.529-13.315,6.835-19.954c2.357-6.774,4.689-13.549,6.922-20.36
			c2.245-6.884,4.357-13.806,6.48-20.738c4.013-13.18,8.284-26.286,12.419-39.431c4.234-13.45,8.664-27.059,9.523-41.221
			c0.442-7.24-1.191-14.432-3.277-21.304c-0.981-3.264-2.406-6.454-3.67-9.621c-1.178-2.957-2.331-5.915-3.411-8.909
			c-2.811-7.83-5.093-15.782-7.266-23.808c-2.156-7.994-4.368-15.954-5.688-24.134c-0.543-5.264-0.778-10.509-0.778-15.799
			c0-5.221,0.505-10.38,1.133-15.55c0.562-3.864,1.209-7.712,1.837-11.558c0.773-4.75,1.473-9.511,2.283-14.249
			c0.255-1.504,0.542-2.998,0.857-4.487c0.195-0.79,0.392-1.582,0.591-2.372c0.871-3.425,1.791-6.823,2.737-10.211
			c0.896-3.216,2.111-6.345,3.019-9.548c0.834-2.112-0.54-4.738-2.357-5.805c-2.503-1.46-5.51-0.503-7.032,1.84
			c-0.822,1.264-1.325,2.786-1.903,4.16c-0.515,1.215-1.03,2.429-1.472,3.682c-1.068,2.994-2.001,6.026-2.896,9.081
			c-1.681,5.743-3.228,11.56-4.357,17.438c-1.264,6.59-2.049,13.217-2.884,19.868c-0.79,6.189-1.569,12.399-2.379,18.589
			l-0.004,0.001c0.029-0.234,0.059-0.469,0.088-0.697c-0.032,0.235-0.07,0.471-0.111,0.706c-3.256,1.111-6.643,1.856-9.915,2.927
			c-4.455,1.46-8.884,2.957-13.339,4.429c-0.429,0.143-0.861,0.286-1.29,0.431c-0.584-1.671-1.145-3.348-1.703-5.022
			c-0.724-2.184-1.485-4.357-2.21-6.528c-1.35-4.087-2.209-8.345-3.19-12.529c-0.969-4.087-2.196-8.137-3.669-12.063
			c-1.62-4.296-3.313-8.566-4.836-12.898c-1.878-5.363-3.633-10.763-5.485-16.138c-1.782-5.192-3.882-10.251-6.053-15.292
			c-0.425-1.128-0.849-2.244-1.286-3.36c-0.393-1.056-0.663-2.185-0.995-3.264c-0.334-1.089-0.618-2.199-0.899-3.311
			c2.178-1.003,4.356-2.012,6.519-3.057c6.321-3.055,12.603-6.173,18.948-9.179c5.976-2.834,12.027-5.51,18.039-8.233
			c11.717-5.301,23.494-10.458,35.26-15.636c3.016-1.26,6.025-2.496,9.152-3.496c3.041-0.976,6.113-1.602,9.269-2.075
			c2.813-0.321,5.639-0.531,8.467-0.713c0.072,1.407,0.188,2.812,0.367,4.221c0.356,2.847,0.798,5.682,1.313,8.492
			c0.995,5.351,2.111,10.688,4.087,15.769c2.54,6.541,5.227,13.021,9.486,18.653c2.172,2.859,4.59,5.4,7.4,7.633
			c2.013,1.597,4.111,3.032,6.222,4.479c2.282,1.571,4.738,2.859,7.154,4.185c2.565,1.411,5.289,2.626,8.001,3.755
			c2.454,1.031,4.909,2.135,7.449,2.97c2.675,0.872,5.351,1.707,8.123,2.27c3.093,0.614,6.173,1.166,9.303,1.559
			c5.461,0.688,10.946,1.104,16.445,0.894c5.756-0.22,11.511-0.381,17.255-0.834c5.485-0.442,10.984-1.632,16.248-3.19
			c2.577-0.761,5.141-1.534,7.62-2.566c2.798-1.165,5.461-2.503,8.051-4.11c4.822-2.983,9.597-6.112,14.052-9.647
			c4.333-3.424,8.333-7.266,11.916-11.487c1.583-1.854,2.945-3.89,4.308-5.915c1.142-1.669,2.208-3.388,3.116-5.204
			c2.025-4.038,3.313-8.357,4.172-12.774c0.871-4.48,1.117-9.094,1.276-13.647c0.061-1.755-0.012-3.509-0.172-5.252
			c-0.126-1.301-0.285-2.636-0.574-3.933c3.131-0.475,6.255-0.984,9.393-1.408c2.04-0.269,4.084-0.536,6.125-0.816
			c1.366-0.155,2.732-0.319,4.098-0.427c1.304-0.095,2.573-0.056,3.856,0.066c4.386,0.942,8.501,2.48,12.626,4.196
			c5.535,2.435,10.917,5.178,16.346,7.815c5.67,2.762,11.204,5.78,16.739,8.811c11.07,6.087,22.519,11.438,33.883,16.948
			c4.384,2.127,8.778,4.229,13.161,6.349c-1.835,4.296-3.535,8.651-5.277,12.99c-1.693,4.221-3.375,8.455-5.031,12.702
			c-3.424,8.713-6.921,17.389-10.517,26.028c-3.228,7.781-6.393,15.585-9.511,23.403
			C424.248,133.555,422.837,137.446,421.549,141.36z M479.167,71.954c-1.156,7.233-3.837,14.255-6.25,21.143
			c-2.074,5.89-4.099,11.819-6.369,17.648c-2.369,6.124-4.787,12.222-7.032,18.395c-2.196,6.049-4.406,12.088-6.761,18.089
			c-1.509,3.835-3.05,7.658-4.613,11.461c-0.084,0.196-0.17,0.393-0.256,0.589c-3.35-0.748-6.634-1.866-9.918-2.798
			c-3.286-0.932-6.577-1.772-9.888-2.562c0.18-0.808,0.357-1.618,0.554-2.422c0.503-2.16,1.044-4.319,1.632-6.454
			c1.191-4.429,2.565-8.786,3.964-13.156c1.449-4.553,2.859-9.105,4.393-13.621c1.449-4.258,3.019-8.456,4.651-12.641
			c6.099-15.696,12.1-31.44,18.31-47.099c-0.054,0.117-0.104,0.232-0.153,0.35c0.196-0.46,0.395-0.919,0.592-1.378
			c1.354,0.679,2.709,1.353,4.072,2.035c2.339,1.181,4.696,2.277,7.11,3.311c1.931,0.834,3.849,1.719,5.665,2.78
			c0.024,0.042,0.048,0.084,0.071,0.127c0.125,0.463,0.23,0.921,0.319,1.385C479.361,68.752,479.316,70.339,479.167,71.954z"/>
	</g>
</g>
<g>
	<g>
		<path d="M305.585,172.773c-0.724-1.056-1.51-1.718-2.589-2.406c-0.896-0.565-1.988-0.896-2.982-1.241
			c-0.859-0.306-1.756-0.503-2.639-0.711c-1.657-0.368-3.362-0.54-5.044-0.724c-2.303-0.273-4.617-0.345-6.921-0.579
			c-0.336-4.013-0.158-8.036-0.136-12.05c0.012-4.026-0.11-8.038-0.159-12.052c-0.049-3.914,0.049-7.805,0.184-11.707
			c0.061-1.926,0.172-3.841,0.148-5.768c-0.012-0.908-0.037-1.816-0.037-2.736c0-0.847,0.024-1.718-0.086-2.577
			c-0.196-1.485-0.27-1.988-0.871-3.375c-0.356-0.798-0.945-1.547-1.62-2.074c-0.613-0.478-1.007-0.822-1.644-1.142
			c-0.503-0.258-1.093-0.466-1.632-0.688c-0.699-0.295-1.484-0.442-2.233-0.589c-2.245-0.431-4.516-0.663-6.799-0.761
			c-0.843-0.032-1.686-0.048-2.527-0.048c-3.023,0-6.03,0.204-9.045,0.587c-4.16,0.529-8.345,1.29-12.395,2.369
			c-2.098,0.565-4.136,1.241-6.087,2.198c-1.093,0.527-2.098,1.214-3.006,2.013c-1.742,1.534-1.988,4.11-2.282,6.246
			c-0.018,0.136-0.033,0.274-0.044,0.41c-0.52,1.752-0.727,3.634-0.925,5.37c-0.368,3.338-0.061,6.799,0.037,10.148
			c0.05,1.841,0.11,3.669,0.197,5.511c0.197,4.576,0.429,9.143,0.749,13.72c0.147,2.233,0.38,4.466,0.54,6.713
			c0.099,1.359,0.181,2.759,0.142,4.144c-1.616,0.384-3.304,0.562-4.927,0.789c-1.559,0.227-3.117,0.444-4.682,0.667
			c-0.016,0.002-0.033,0.004-0.049,0.006l-0.002,0.001c-4.002,0.515-8.003,0.899-12.006,1.376c-1.301,0.147-2.615,0.306-3.867,0.688
			c-1.681,0.527-3.289,1.755-3.767,3.521c-0.503,1.816,0.124,3.474,1.068,5.008c0.646,1.042,1.517,2.024,2.34,2.932
			c0.552,0.614,1.117,1.203,1.706,1.767c0.786,0.749,1.547,1.522,2.357,2.259c2.982,2.713,6.049,5.351,8.872,8.233
			c2.957,3.02,5.866,6.1,8.64,9.291c5.339,6.136,10.541,12.456,16.665,17.831c1.547,1.362,3.092,2.736,4.602,4.136
			c0.651,0.601,1.288,1.202,1.952,1.755c0.478,0.393,0.969,0.798,1.473,1.154c0.246,0.173,0.491,0.332,0.737,0.491
			c0.822,0.527,1.706,0.638,2.651,0.737c0.589,0.061,1.252-0.135,1.816-0.319c0.602-0.184,1.191-0.503,1.742-0.822
			c1.104-0.638,2.086-1.583,3.019-2.455c1.252-1.178,2.355-2.528,3.485-3.816c1.337-1.522,2.577-3.167,3.792-4.787
			c3.718-5.007,7.167-10.197,10.812-15.242c3.577-4.958,7.154-9.916,10.798-14.809c1.55-1.906,3.093-3.829,4.739-5.66
			c0.871-0.995,1.755-1.988,2.652-2.959c0.466-0.489,0.92-0.981,1.386-1.472c0.306-0.307,0.601-0.626,0.896-0.945
			c1.08-1.166,1.78-2.676,1.78-4.283C306.554,174.945,306.211,173.681,305.585,172.773z M258.991,226.362
			c-0.11,0.022-0.221,0.036-0.335,0.04c0.117-0.018,0.232-0.033,0.348-0.049C258.999,226.356,258.995,226.359,258.991,226.362z
			 M288.344,186.766c-2.455,3.35-4.823,6.749-7.229,10.124c-2.491,3.485-4.933,6.995-7.339,10.529
			c-2.344,3.436-4.651,6.908-7.069,10.295c-0.64,0.893-1.312,1.763-1.979,2.642c-1.599,1.914-3.154,3.892-5.037,5.544
			c-0.009-0.006-0.018-0.013-0.026-0.02c-1.458-1.167-2.885-2.388-4.334-3.577c-1.509-1.241-3.068-2.43-4.541-3.718
			c-2.982-2.626-5.756-5.474-8.418-8.419c-5.707-6.344-11.18-12.861-17.168-18.947c-2.738-2.792-5.686-5.441-8.221-8.428
			c3.183-0.312,6.365-0.655,9.544-1.069c2.725-0.356,5.474-0.712,8.161-1.252c0.712-0.135,1.424-0.281,2.135-0.417
			c1.46-0.295,3.105-0.822,4.333-1.681c0.896-0.637,1.582-1.288,2.062-2.308c0.589-1.227,0.688-2.344,0.429-3.669
			c-0.11-0.532-0.197-1.073-0.278-1.614c-0.33-2.622-0.663-5.253-0.901-7.883c-0.307-3.411-0.491-6.823-0.626-10.234
			c-0.122-2.896-0.159-5.805-0.173-8.701c-0.011-3.882-0.151-7.819,0.28-11.688c0.243-1.522,0.568-3.008,1.089-4.462
			c0.051-0.105,0.105-0.21,0.161-0.313c3.988-1.512,8.027-2.705,12.228-3.515c3.744-0.735,7.48-1.538,11.243-2.199
			c2.35-0.031,4.702,0.048,7.047,0.272c0.483,0.082,0.965,0.174,1.443,0.285c0.334,3.156,0.474,6.32,0.368,9.484
			c-0.122,3.914-0.307,7.828-0.38,11.744c-0.073,4.172-0.11,8.345-0.257,12.517c-0.173,4.885-0.724,9.879,0.159,14.714
			c0.197,1.117,0.515,1.988,0.957,3.043c0.478,1.117,1.325,1.963,2.332,2.638c0.896,0.602,1.988,0.957,3.043,1.142
			c1.522,0.246,3.068,0.442,4.614,0.516c2.589,0.144,5.19,0.219,7.781,0.421c0.311,0.042,0.623,0.082,0.935,0.124
			c0.05,0.01,0.1,0.02,0.151,0.027C292.672,181.377,290.382,183.97,288.344,186.766z"/>
	</g>
</g>
<g>
	<g>
		<path d="M363.79,332.457c-0.552-3.277-1.191-6.541-1.816-9.817c-1.019-5.351-2.111-10.665-4.062-15.771
			c-2.308-6.078-5.768-11.403-9.499-16.68c-2.823-3.977-6.148-7.817-9.842-11.033c-3.951-3.437-8.013-6.664-12.334-9.621
			c-3.951-2.699-8.345-4.773-12.677-6.786c-8.884-4.137-18.408-6.356-27.931-8.481c-4.897-1.08-9.867-1.681-14.874-1.865
			c-3.016-0.114-6.055-0.261-9.086-0.261c-1.544,0-3.085,0.038-4.621,0.137c-4.86,0.307-9.67,0.957-14.42,2.013
			c-4.455,0.995-8.823,2.615-13.008,4.394c0.368-0.159,0.749-0.319,1.128-0.491c-0.783,0.332-1.608,0.619-2.371,0.995
			c-0.888,0.313-1.749,0.768-2.599,1.153c-1.215,0.552-2.43,1.116-3.633,1.706c-4.197,2.025-8.296,4.282-12.345,6.578
			c-1.976,1.117-3.878,2.331-5.719,3.645c-1.976,1.4-3.767,3.081-5.51,4.75c-1.583,1.534-3.179,3.081-4.553,4.799
			c-1.645,2.013-3.141,4.11-4.553,6.283c-1.651,2.56-3.327,5.163-4.705,7.887c-1.819,2.755-3.556,5.564-5.1,8.459
			c-1.51,2.835-2.823,5.792-3.964,8.799c-1.166,3.081-1.889,6.32-2.552,9.548c-0.478,2.331-0.92,4.675-1.375,7.02
			c-0.995,4.995-1.976,9.977-2.847,14.984c-0.208,1.264-0.332,2.552-0.478,3.829c-0.124,1.093-0.307,2.198-0.344,3.313
			c-0.098,2.418-0.22,4.836-0.184,7.266c0.099,5.069,0.295,10.162,0.983,15.193c0.332,2.467,0.663,4.909,1.117,7.351
			c0.429,2.343,0.957,4.639,1.484,6.958c0.553,2.344,1.264,4.664,1.976,6.958c0.7,2.259,1.522,4.528,2.516,6.676
			c2.025,4.406,4.075,8.848,6.602,13.009c2.577,4.209,5.227,8.443,8.394,12.248c2.97,3.583,6.136,7.116,9.743,10.087
			c2.233,1.828,4.492,3.584,6.823,5.277c3.853,2.774,8.296,4.541,12.751,6.063c4.455,1.521,8.935,2.908,13.524,3.927
			c4.492,1.006,9.057,1.669,13.585,2.528c4.7,0.883,9.4,1.779,14.113,2.565c5.094,0.847,10.186,1.596,15.328,2.098
			c4.651,0.442,9.436,0.332,14.088-0.11c2.663-0.258,5.265-0.712,7.866-1.288c2.111-0.467,4.209-1.227,6.222-1.976
			c2.626-0.983,5.203-2.037,7.755-3.179c2.172-0.983,4.234-2.147,6.283-3.338c4.382-2.528,8.247-5.867,11.904-9.327
			c1.607-1.534,3.055-3.239,4.466-4.946c1.644-1.963,3.301-3.963,4.762-6.075c5.339-7.671,9.364-16.248,13.046-24.825
			c2.025-4.724,3.485-9.659,4.921-14.58c1.301-4.504,2.429-9.081,3.424-13.658c2.086-9.647,2.921-19.61,3.142-29.465
			c0.024-1.252,0.049-2.491,0.086-3.732C364.895,339.868,364.403,336.176,363.79,332.457z M354.487,348.666
			c-0.012,2.037-0.086,4.087-0.196,6.124c-0.135,2.369-0.27,4.737-0.478,7.093c-0.171,1.986-0.407,3.953-0.651,5.92
			c-0.485,2.914-1.024,5.788-1.631,8.673c-0.564,2.65-1.288,5.264-1.976,7.877c-0.737,2.785-1.435,5.583-2.332,8.32
			c-0.909,2.785-1.864,5.526-2.884,8.274c-2.097,4.796-4.388,9.489-6.81,14.136c-1.24,2.357-2.638,4.639-4.038,6.897
			c-1.089,1.761-2.374,3.408-3.649,5.048c-1.79,2.146-3.605,4.218-5.494,6.278c-1.676,1.816-3.617,3.399-5.498,4.992
			c-0.931,0.691-1.856,1.389-2.835,2.015c-1.448,0.943-2.908,1.828-4.406,2.699c-2.322,1.37-4.793,2.478-7.268,3.553
			c-2.109,0.86-4.22,1.696-6.391,2.386c-2.172,0.689-4.342,1.189-6.567,1.615c-3.509,0.398-6.994,0.606-10.541,0.606
			c-3.468,0-6.925-0.372-10.372-0.789c-4.215-0.645-8.408-1.351-12.588-2.218c-4.234-0.872-8.432-1.964-12.665-2.873
			c-4.221-0.908-8.456-1.742-12.629-2.859c-2.037-0.54-4.062-1.153-6.063-1.791c-2.644-0.843-5.299-1.689-7.879-2.722
			c-2.065-0.926-4.098-1.96-5.939-3.267c-0.914-0.652-1.837-1.304-2.753-1.949c-2.185-1.788-4.314-3.613-6.353-5.575
			c-2.136-2.04-4.052-4.243-5.95-6.496c-2.477-3.339-4.924-6.724-6.96-10.342c-1.313-2.357-2.577-4.724-3.816-7.116
			c-0.89-1.725-1.674-3.507-2.47-5.271c-0.546-1.479-1.133-2.944-1.58-4.449c-0.589-1.964-1.154-3.915-1.644-5.903
			c-0.892-3.518-1.547-7.07-2.174-10.635c-0.58-4.672-1.072-9.365-1.151-14.081c-0.037-2.834-0.073-5.644,0.037-8.481
			c0.049-1.142,0.049-2.27,0.184-3.398c0.132-1.23,0.273-2.467,0.415-3.698c0.735-4.21,1.534-8.411,2.359-12.6
			c1.364-6.917,2.409-13.978,5.061-20.55c1.944-4.387,4.303-8.56,6.954-12.56c2.563-3.867,5.042-7.816,7.833-11.541
			c2.507-3.137,5.46-5.768,8.601-8.243c1.74-1.287,3.449-2.666,5.263-3.827c1.988-1.276,3.94-2.577,5.989-3.755
			c2.245-1.301,4.48-2.539,6.786-3.731c1.888-0.978,3.818-1.841,5.768-2.707c1.466-0.549,2.932-1.101,4.396-1.653
			c3.285-0.942,6.646-1.605,10.011-2.19c4.728-0.559,9.488-0.874,14.246-0.653c4.866,0.228,9.741,0.496,14.579,1.058
			c4.956,0.894,9.787,2.2,14.641,3.493c4.881,1.307,9.656,2.884,14.361,4.697c3.452,1.534,6.85,3.161,10.158,4.998
			c3.364,1.865,6.52,4.002,9.615,6.287c2.517,2.021,4.979,4.082,7.357,6.267c2.385,2.205,4.499,4.659,6.573,7.14
			c3.249,4.267,6.366,8.647,8.593,13.546c0.965,2.469,1.718,4.968,2.469,7.515c0.515,1.744,0.847,3.546,1.264,5.326
			c0.454,1.976,0.81,3.977,1.227,5.953c0.593,2.912,1.176,5.824,1.609,8.764C354.588,341.751,354.51,345.203,354.487,348.666z"/>
	</g>
</g>
<g>
	<g>
		<path d="M315.309,333.558c-0.147-1.977-0.466-3.94-0.871-5.868c-0.466-2.258-1.337-4.357-2.234-6.467
			c-1.473-3.437-3.645-6.443-6.025-9.277c-2.418-2.884-5.351-5.497-8.578-7.45c-3.473-2.111-7.535-2.97-11.548-3.165
			c-0.158-0.007-0.316-0.011-0.475-0.011c-1.744,0-3.543,0.411-5.231,0.759c-2.049,0.431-4.062,1.129-6.002,1.939
			c-3.743,1.534-7.069,3.669-10.026,6.431c-1.681,1.582-3.167,3.546-4.431,5.484c-1.522,2.32-2.908,4.738-4.001,7.29
			c-0.674,1.583-1.337,3.153-1.852,4.799c-0.089,0.274-0.176,0.548-0.258,0.825c-0.42-0.108-0.842-0.203-1.264-0.284
			c-2.908-0.565-5.854-1.117-8.823-1.339c-1.498-0.11-2.994-0.221-4.504-0.332c-3.989-0.295-7.891,0.061-11.83,0.761
			c-3.731,0.662-7.364,1.926-10.775,3.558c-3.595,1.707-6.405,4.48-8.713,7.645c-2.001,2.749-3.092,6.222-3.964,9.462
			c-0.491,1.84-0.81,3.731-1.068,5.621c-0.295,2.22-0.564,4.417-0.454,6.662c0.184,3.657,1.276,7.069,2.737,10.408
			c1.509,3.436,3.448,6.662,5.658,9.694c3.78,5.204,8.627,9.352,14.211,12.506c2.516,1.423,5.044,2.797,7.572,4.171
			c4.909,2.664,9.757,5.387,14.886,7.609c5.105,2.21,10.358,4.05,15.536,6.087c4.885,1.927,9.768,3.879,14.677,5.768
			c0.442,0.173,0.896,0.344,1.337,0.529c1.203,0.454,2.393,0.343,3.621,0.159c1.914-0.306,3.436-1.558,4.836-2.811
			c1.424-1.25,2.528-2.932,3.633-4.466c0.786-1.08,1.522-2.21,2.233-3.326c1.669-2.615,3.289-5.227,4.86-7.891
			c2.664-4.492,4.958-9.254,7.044-14.039c1.35-3.105,2.638-6.222,3.865-9.376c0.981-2.565,1.805-5.178,2.652-7.779
			c1.767-5.412,2.516-11.143,3.055-16.776c0.295-3.006,0.454-6,0.602-9.019C315.542,339.215,315.517,336.392,315.309,333.558z
			 M303.724,353.34c-0.582,3.605-1.389,7.137-2.442,10.639c-0.503,1.681-1.142,3.326-1.73,4.97
			c-0.797,2.226-1.717,4.391-2.633,6.561c0.023-0.056,0.047-0.113,0.069-0.168c-2.209,4.773-4.431,9.523-6.971,14.137
			c-1.325,2.43-2.713,4.799-4.123,7.18c-1.804,3.028-3.72,6.066-5.81,8.914c-0.136,0.164-0.274,0.327-0.414,0.484
			c-2.166-0.544-4.291-1.263-6.404-1.963c-2.638-0.871-5.227-1.853-7.854-2.785c-5.49-1.943-10.99-3.808-16.418-5.958
			c-3.816-1.783-7.554-3.711-11.292-5.676c-4.203-2.226-8.51-4.36-12.392-7.142c-2.114-1.693-4.01-3.559-5.731-5.654
			c-2.183-2.965-4.027-6.152-5.56-9.499c-0.677-1.703-1.249-3.431-1.607-5.236c-0.169-1.804-0.102-3.551,0.106-5.352
			c0.535-3.406,1.378-6.727,2.615-9.954c0.503-1.041,1.073-2.023,1.728-2.981c0.728-0.861,1.509-1.652,2.366-2.396
			c1.292-0.914,2.645-1.676,4.084-2.342c3.142-1.208,6.371-2.041,9.693-2.557c4.958-0.509,9.98-0.098,14.935,0.347
			c1.468,0.226,2.924,0.472,4.38,0.79c1.317,0.279,2.578,0.735,3.824,1.221c1.078,0.483,2.092,0.735,3.294,0.411
			c1.093-0.295,2.037-1.031,2.614-2.001c0.721-1.243,0.751-2.987,0.083-4.324c0.35-0.868,0.638-1.76,0.969-2.641
			c1.467-3.157,3.283-6.157,5.319-8.976c1.268-1.553,2.554-3.019,4.086-4.32c1.656-1.182,3.399-2.174,5.248-3.019
			c2.311-0.872,4.69-1.547,7.137-1.965c1.003-0.064,1.985-0.034,2.986,0.047c1.113,0.203,2.188,0.48,3.257,0.845
			c1.116,0.538,2.161,1.169,3.178,1.893c1.881,1.561,3.572,3.32,5.121,5.206c1.368,1.876,2.503,3.847,3.48,5.95
			c0.795,2.065,1.351,4.181,1.707,6.371C305.289,339.374,304.502,346.413,303.724,353.34z"/>
	</g>
</g>
<g>
</g>
<g>
</g>
<g>
</g>
<g>
</g>
<g>
</g>
<g>
</g>
<g>
</g>
<g>
</g>
<g>
</g>
<g>
</g>
<g>
</g>
<g>
</g>
<g>
</g>
<g>
</g>
<g>
</g>
</svg>
