<?xml version="1.0" encoding="iso-8859-1"?>
<!-- Generator: Adobe Illustrator 19.0.0, SVG Export Plug-In . SVG Version: 6.00 Build 0)  -->
<svg version="1.1" id="Layer_1" xmlns="http://www.w3.org/2000/svg" xmlns:xlink="http://www.w3.org/1999/xlink" x="0px" y="0px"
	 viewBox="0 0 511.999 511.999" style="enable-background:new 0 0 511.999 511.999;" xml:space="preserve">
<g>
	<g>
		<path d="M143.173,328.854c-0.993-0.997-2.404-1.555-3.808-1.555c-0.906,0-1.809,0.232-2.594,0.729
			c-0.896,0.577-1.818,1.094-2.679,1.708c-0.664,0.467-1.316,0.935-1.979,1.376c-1.598,1.057-3.233,2.028-4.892,2.987
			c-0.687,0.397-1.408,0.738-2.111,1.109c-0.441-1.257-0.934-2.5-1.376-3.761c-0.663-1.893-1.241-3.81-1.88-5.715
			c-0.799-2.397-1.609-4.792-2.642-7.091c-0.958-2.151-1.954-4.277-2.975-6.39c-1.905-3.946-3.759-7.915-5.555-11.922
			c-1.648-3.639-3.409-7.224-5.078-10.859c-0.484-1.194-0.966-2.376-1.375-3.605c-0.354-1.089-0.669-2.193-0.993-3.294
			c1.484-0.76,2.99-1.475,4.466-2.268c2.747-1.486,5.463-3.05,8.317-4.326c1.357-0.547,2.691-1.129,3.973-1.832
			c1.782-0.983,2.619-3.207,2.089-5.136c-0.585-2.127-2.452-3.283-4.491-3.283c-0.364,0-0.734,0.037-1.1,0.112
			c-2.003,0.406-3.835,1.314-5.678,2.212c-1.72,0.837-3.393,1.769-5.077,2.692c-3.085,1.708-6.145,3.514-9.34,5.037
			c-3.331,1.599-6.711,3.061-10.041,4.645c-3.638,1.72-7.252,3.491-10.939,5.088c-1.02,0.442-1.806,1.697-2.088,2.717
			c-0.321,1.18-0.161,2.458,0.455,3.502c0.602,1.021,1.584,1.782,2.729,2.103c1.29,0.343,2.323,0.048,3.501-0.468
			c3.171-1.364,6.268-2.876,9.402-4.326c2.045-0.948,4.114-1.841,6.176-2.751c0.265,0.864,0.511,1.735,0.785,2.598
			c0.591,1.843,1.39,3.638,2.164,5.406c1.404,3.185,2.839,6.357,4.235,9.551c2.114,5.104,4.266,10.189,6.43,15.272
			c0.669,1.713,1.311,3.403,1.883,5.129c0.615,1.867,1.131,3.75,1.61,5.642c0.418,1.621,0.798,3.256,1.216,4.878
			c0.222,0.896,0.455,1.794,0.676,2.68c0.112,0.467,0.233,0.922,0.369,1.376c0.127,0.399,0.313,0.724,0.477,1.072
			c-2.771,1.278-5.529,2.588-8.16,4.123c-3.614,2.089-7.105,4.277-10.495,6.711c-0.946,0.689-1.671,1.425-1.991,2.593
			c-0.308,1.119-0.147,2.334,0.442,3.331c1.105,1.893,3.995,2.925,5.911,1.549c2.899-2.077,5.874-3.995,8.997-5.74
			c2.682-1.505,5.432-2.811,8.236-4.076c4.257-1.709,8.523-3.4,12.743-5.227c1.867-0.811,3.736-1.622,5.567-2.532
			c0.874-0.419,1.734-0.848,2.581-1.292c0.455-0.233,0.897-0.467,1.341-0.712c1.462-0.799,2.544-1.954,3.404-3.355
			C145.239,333.241,144.833,330.512,143.173,328.854z"/>
	</g>
</g>
<g>
	<g>
		<path d="M246.437,264.348c-0.158-1.353-0.391-2.68-0.724-4.007c-0.392-1.561-1.082-3.049-1.72-4.523
			c-1.044-2.409-2.654-4.56-4.387-6.488c-1.586-1.771-3.687-3.208-5.838-4.204c-2.741-1.266-5.58-1.867-8.591-1.942
			c-0.096-0.002-0.191-0.005-0.288-0.005c-1.081,0-2.261,0.181-3.277,0.374c-0.885,0.161-1.733,0.382-2.581,0.676
			c-2.272,0.811-4.289,2.003-6.243,3.393c-2.766,1.966-5.261,4.191-7.264,6.931c-1.007,1.377-1.954,2.79-2.838,4.253
			c-0.197,0.321-0.388,0.648-0.58,0.978c-3.147-2.544-6.687-4.292-10.519-5.574c-3.306-1.107-6.956-1.561-10.435-1.475
			c-3.71,0.098-7.374,0.935-10.679,2.619c-3.43,1.733-5.79,4.927-6.822,8.565c-0.467,1.635-0.516,3.418-0.479,5.088
			c0.037,2.175,0.442,4.375,0.848,6.49c1.032,5.444,3.674,10.287,6.574,14.92c1.5,2.372,3.184,4.694,4.941,6.895
			c1.586,1.978,3.294,3.822,5.247,5.443c4.302,3.551,8.85,6.773,13.408,9.968c4.204,2.948,8.689,5.493,13.04,8.234
			c3.453,2.174,7.362,5.296,11.663,4.154c3.404-0.909,6.121-3.528,8.32-6.156c1.82-2.164,3.416-4.498,4.953-6.858
			c1.402-2.164,2.839-4.326,4.068-6.588c1.376-2.544,2.68-5.077,3.92-7.682c1.229-2.568,2.299-5.248,3.171-7.964
			c0.798-2.458,1.586-4.965,2.016-7.521C246.327,276.392,247.174,270.382,246.437,264.348z M235.27,276.318
			c-0.211,1.197-0.42,2.391-0.63,3.588c-0.259,1.474-0.739,2.936-1.094,4.387c-0.369,1.475-0.972,2.913-1.451,4.339
			c-0.357,1.078-0.842,2.136-1.303,3.188c0.05-0.116,0.099-0.233,0.147-0.349c-1.45,2.998-2.876,6.023-4.596,8.886
			c-2.151,3.568-4.313,7.15-6.803,10.493c-1.021,1.261-2.088,2.445-3.31,3.514c-0.012,0.007-0.025,0.016-0.036,0.025
			c-0.657-0.202-1.298-0.439-1.939-0.696c-4.468-2.059-8.955-4.262-13.156-6.833c-4.5-2.752-8.836-5.74-13.089-8.856
			c-1.182-0.963-2.344-1.942-3.478-2.968c-1.073-0.977-2.017-2.086-2.918-3.209c-2.506-3.491-4.791-7.243-6.558-11.164
			c-0.765-2.008-1.339-4.03-1.686-6.143c-0.181-1.893-0.228-3.788-0.091-5.695c0.1-0.533,0.223-1.051,0.384-1.57
			c0.137-0.263,0.283-0.52,0.437-0.782c0.17-0.183,0.342-0.358,0.524-0.529c0.455-0.283,0.917-0.54,1.396-0.781
			c1.165-0.406,2.35-0.686,3.563-0.898c1.861-0.18,3.697-0.178,5.556-0.009c2.128,0.362,4.17,0.925,6.191,1.692
			c1.637,0.765,3.195,1.643,4.681,2.691c0.73,0.609,1.419,1.26,2.05,1.972c0.235,0.341,0.458,0.687,0.678,1.037
			c1.5,2.434,4.671,3.355,7.177,1.881c1.643-0.955,2.601-2.777,2.594-4.612c0.142-0.336,0.27-0.669,0.392-1.029
			c0.048-0.142,0.097-0.284,0.148-0.428c0.745-1.507,1.729-2.905,2.724-4.262c1.26-1.551,2.593-3.003,4.107-4.312
			c1.869-1.386,3.853-2.677,5.955-3.68c0.728-0.261,1.456-0.467,2.207-0.627c0.834-0.064,1.659-0.065,2.502-0.015
			c0.849,0.168,1.673,0.385,2.499,0.658c0.608,0.299,1.186,0.63,1.756,1.004c0.694,0.605,1.328,1.254,1.924,1.958
			c0.702,1.035,1.3,2.106,1.826,3.23c0.447,1.247,0.793,2.494,1.039,3.799C235.939,268.944,235.653,272.609,235.27,276.318z"/>
	</g>
</g>
<g>
	<g>
		<path d="M348.175,269.858c-0.332-1.193-0.75-2.273-1.659-3.184c-0.725-0.739-1.905-1.451-2.899-1.72
			c-2.066-0.578-3.859,0.233-5.605,1.217c-1.118,0.638-2.236,1.278-3.331,1.966c-4.977,3.134-9.696,6.662-14.502,10.041
			c-1.985,1.393-3.957,2.846-6.001,4.176c-0.027-0.053-0.054-0.105-0.082-0.158c-0.895-1.745-1.78-3.492-2.632-5.269
			c-1.148-2.872-2.076-5.785-2.946-8.765c-0.554-1.893-1.131-3.761-1.734-5.629c-0.712-2.238-1.179-4.659-2.236-6.76
			c-0.504-1.033-1.659-1.807-2.729-2.115c-0.403-0.109-0.79-0.159-1.163-0.159c-1.219,0-2.29,0.539-3.297,1.339
			s-1.488,2.409-1.991,3.54c-0.627,1.451-1.229,2.9-1.843,4.351c-1.07,2.532-2.102,5.077-3.096,7.644
			c-1.893,4.794-3.355,9.759-4.892,14.675c-1.709,5.457-3.465,10.889-5.039,16.382c-0.725,2.519-1.437,5.028-2.187,7.534
			c-0.762,2.556-1.647,5.063-2.372,7.633c-0.614,2.174,0.738,4.511,2.9,5.112c2.2,0.602,4.485-0.725,5.112-2.9
			c1.413-4.916,3.208-9.733,4.769-14.6c1.684-5.273,3.502-10.495,5.247-15.731c1.659-4.965,3.294-9.918,5.126-14.81
			c0.043-0.115,0.087-0.229,0.131-0.344c0.145,0.707,0.295,1.412,0.458,2.116c0.602,2.63,1.292,5.223,2.102,7.803
			c0.762,2.409,1.55,4.792,2.25,7.215c0.32,1.13,0.762,2.212,1.252,3.282c0.455,0.97,1.954,2.236,2.851,2.766
			c1.364,0.787,2.778,0.896,4.302,0.922c2.089,0.026,4.105-1.105,5.862-2.115c0.872-0.49,1.684-1.105,2.507-1.696
			c2.249-1.598,4.462-3.244,6.686-4.89c2.563-1.903,5.09-3.857,7.608-5.824c-0.312,1.355-0.654,2.703-1.033,4.041
			c-1.426,5.028-2.963,10.004-4.449,15.006c-1.426,4.731-2.692,9.488-3.589,14.343c-0.48,2.605-0.935,5.21-1.463,7.791
			c-0.49,2.458-1.093,4.878-1.437,7.35c-0.086,0.638-0.173,1.266-0.259,1.892c0,1.292,0.332,2.496,0.972,3.601
			c0.934,1.598,2.481,2.778,4.263,3.269c3.688,1.02,7.792-1.217,8.763-4.979c0.7-2.752,1.021-5.604,1.425-8.406
			c0.395-2.736,0.746-5.484,1.098-8.225c0.946-5.753,2.261-11.374,3.756-17.007c1.598-5.96,3.233-11.933,4.129-18.053
			c0.259-1.805,0.591-3.637,0.762-5.455c0.086-0.958,0.173-1.905,0.257-2.864C348.458,273.507,348.619,271.516,348.175,269.858z
			 M340.242,278.881c0.01-0.009,0.02-0.016,0.029-0.025c0.006-0.005,0.013-0.01,0.021-0.016
			C340.275,278.854,340.259,278.867,340.242,278.881z"/>
	</g>
</g>
<g>
	<g>
		<path d="M394.631,303.79c-0.233-2.298-0.48-4.583-1.094-6.82c-0.442-1.598-1.143-3.146-1.88-4.633
			c-0.848-1.72-2.103-3.244-3.306-4.719c-1.413-1.734-3.196-3.196-5.065-4.388c-1.019-0.651-2.261-1.056-3.38-1.488
			c-0.86-0.32-1.745-0.589-2.642-0.787c-1.143-0.245-2.336-0.374-3.533-0.374c-1.918,0-3.846,0.33-5.588,1.024
			c-1.5,0.603-2.986,1.205-4.35,2.054c-1.451,0.909-2.691,2.102-3.859,3.317c-1.376,1.426-2.544,3.024-3.724,4.598
			c-0.946,1.241-1.795,2.544-2.654,3.834c-1.72,2.63-2.937,5.444-3.946,8.418c-0.32,0.936-0.593,1.877-0.828,2.828
			c-1.342,3.578-2.224,7.331-2.699,11.109c-0.43,3.49,0.357,7.041,1.807,10.2c1.537,3.367,3.897,6.205,6.858,8.418
			c2.666,1.991,5.813,3.244,9.046,3.969c3.748,0.848,7.693,0.897,11.343-0.392c3.294-1.18,6.072-3.135,8.787-5.285
			c2.777-2.201,4.928-5.248,6.687-8.296c0.97-1.684,1.659-3.577,2.272-5.42c0.491-1.488,0.762-3.047,1.008-4.596
			c0.271-1.609,0.504-3.294,0.626-4.928C394.704,308.904,394.889,306.334,394.631,303.79z M382.085,313.641
			c-0.343,1.992-0.811,3.922-1.511,5.814c-0.743,1.517-1.62,2.951-2.601,4.33c-0.979,1.157-2.048,2.206-3.22,3.172
			c-1.083,0.773-2.2,1.464-3.394,2.062c-0.553,0.194-1.105,0.359-1.673,0.489c-1.153,0.074-2.298,0.048-3.456-0.056
			c-1.42-0.257-2.788-0.613-4.136-1.114c-0.874-0.434-1.696-0.923-2.489-1.479c-0.696-0.614-1.338-1.271-1.95-1.975
			c-0.587-0.843-1.098-1.714-1.545-2.635c-0.326-0.914-0.564-1.831-0.747-2.784c-0.135-1.772-0.032-3.543,0.17-5.306
			c0.229-1.508,0.533-2.991,0.914-4.454c0.376-0.963,0.755-1.923,1.132-2.883c0.232-0.554,0.462-1.109,0.691-1.665
			c-0.075,0.184-0.148,0.369-0.227,0.55c0.701-1.524,1.475-2.953,2.448-4.31c2.179-2.735,4.517-5.392,7.178-7.663
			c0.605-0.428,1.227-0.806,1.891-1.138c1.072-0.382,2.169-0.692,3.289-0.913c0.474-0.029,0.945-0.039,1.424-0.022
			c0.814,0.179,1.598,0.438,2.375,0.734c0.386,0.197,0.757,0.402,1.126,0.634c0.705,0.63,1.348,1.306,1.956,2.032
			c0.651,0.942,1.225,1.903,1.723,2.927c0.407,1.176,0.708,2.37,0.939,3.59C382.813,305.61,382.558,309.618,382.085,313.641z"/>
	</g>
</g>
<g>
	<g>
		<path d="M453.758,319.74c-0.213-0.924-0.804-1.698-1.455-2.349c-0.713-0.713-1.474-0.972-2.397-1.353
			c-1.413-0.565-3.084,0.086-4.338,0.713c-0.676,0.332-1.327,0.749-1.967,1.143c-7.052,4.37-13.663,9.448-20.929,13.426
			c0.005-0.146,0.009-0.29,0.012-0.436c0.075-3.011,0.161-6.034,0.234-9.044c0.074-2.987,0.147-5.974,0.184-8.961
			c0.012-1.486-0.026-2.962-0.05-4.448c-0.024-0.837-0.048-1.671-0.085-2.521c-0.112-2.052-0.147-4.473-1.377-6.219
			c-0.787-1.105-1.67-1.941-3.023-2.31c-0.44-0.126-0.882-0.184-1.315-0.184c-1.321,0-2.579,0.548-3.589,1.474
			c-0.996,0.909-1.72,2.323-2.519,3.416c-0.603,0.811-1.217,1.61-1.832,2.409c-1.401,1.807-2.752,3.65-4.056,5.531
			c-2.568,3.699-4.682,7.719-6.869,11.651c-2.102,3.773-4.179,7.57-6.182,11.393c-2.273,4.301-4.498,8.64-6.895,12.88
			c-0.909,1.61-0.392,3.699,1.205,4.633c1.586,0.921,3.724,0.381,4.633-1.217c3.478-6.035,6.956-12.069,10.544-18.042
			c3.306-5.484,6.695-10.908,10.476-16.088c-0.127,2.356-0.281,4.705-0.434,7.056c-0.197,2.864-0.393,5.727-0.589,8.59
			c-0.099,1.364-0.197,2.729-0.308,4.093c-0.11,1.587-0.332,3.196-0.282,4.781c0.074,2.85,2.125,5.481,4.904,6.243
			c2.445,0.676,4.903-0.271,7.103-1.241c1.769-0.788,3.478-1.684,5.198-2.57c2.68-1.388,5.175-3.233,7.67-4.927
			c1.13-0.772,2.241-1.575,3.342-2.392c-2.282,4.511-4.703,8.955-6.992,13.453c-1.647,3.245-3.231,6.513-4.965,9.696
			c-0.996,1.807-2.016,3.577-3.048,5.346c-0.479,0.811-0.897,1.659-1.315,2.495c-0.172,0.357-0.332,0.725-0.491,1.094
			c-0.392,0.787-0.712,1.598-0.971,2.434c-0.479,1.45-0.184,2.827,0.086,4.263c0.32,1.72,1.769,3.355,3.232,4.204
			c1.475,0.86,3.773,1.388,5.42,0.712c0.049-0.012,0.086-0.037,0.124-0.049c0.54-0.233,1.094-0.467,1.647-0.689
			c1.033-0.614,1.856-1.437,2.472-2.483c0.233-0.553,0.467-1.094,0.7-1.647c0.029-0.112,0.056-0.222,0.08-0.332
			c1.443-3.756,2.459-7.679,3.903-11.441c1.508-3.984,3.096-7.945,4.709-11.896c1.857-4.241,3.804-8.442,5.627-12.696
			c1.794-4.165,3.761-8.333,4.757-12.768C454.115,322.922,454.115,321.373,453.758,319.74z"/>
	</g>
</g>
<g>
	<g>
		<path d="M151.542,189.659c-0.54-3.219-2.066-6.058-4.057-8.59c-0.332-0.431-0.675-0.86-1.032-1.278
			c-0.811-0.947-1.818-1.709-2.839-2.41c-0.81-0.565-1.733-1.044-2.63-1.437c-1.094-0.48-2.164-0.923-3.32-1.18
			c-1.081-0.222-2.212-0.308-3.305-0.308c-1.341,0-2.668,0.147-3.97,0.431c-1.278,0.271-2.53,0.823-3.686,1.401
			c-0.984,0.505-1.881,1.156-2.63,1.967c-1.057,1.154-2.003,2.494-2.729,3.871c-0.837,1.586-1.303,3.331-1.697,5.063
			c-0.294,1.315-0.602,2.63-0.774,3.97c-0.098,0.738-0.159,1.474-0.196,2.223c-0.005,0.099-0.007,0.197-0.009,0.297
			c-0.125,0.783-0.203,1.57-0.225,2.359c-0.063,2.212,0.516,4.448,1.339,6.476c0.431,1.059,0.936,2.066,1.526,3.038
			c0.491,0.823,1.131,1.586,1.769,2.298c0.663,0.75,1.437,1.377,2.236,1.991c1.007,0.774,2.065,1.451,3.207,2.028
			c2.077,1.045,4.326,1.549,6.637,1.598c1.168,0.025,2.336-0.161,3.479-0.344c1.266-0.208,2.556-0.651,3.712-1.216
			c2.052-0.996,3.785-2.521,5.273-4.241c0.738-0.859,1.401-1.782,1.953-2.764c0.676-1.205,1.131-2.556,1.524-3.872
			c0.332-1.118,0.516-2.285,0.676-3.441c0.159-1.143,0.257-2.262,0.257-3.416C152.02,192.671,151.787,191.134,151.542,189.659z
			 M146.278,195.751c-0.259,1.522-0.627,2.987-1.17,4.433c-0.35,0.768-0.751,1.492-1.233,2.185c-0.83,1.008-1.752,1.92-2.76,2.751
			c-0.67,0.472-1.358,0.87-2.094,1.214c-0.962,0.346-1.936,0.608-2.951,0.793c-0.953,0.092-1.891,0.102-2.852,0.012
			c-0.883-0.167-1.73-0.422-2.574-0.74c-1.073-0.499-2.102-1.082-3.076-1.761c-0.717-0.599-1.375-1.224-1.98-1.945
			c-0.616-0.883-1.136-1.798-1.598-2.772c-0.399-1.021-0.696-2.056-0.885-3.154c-0.005-0.048-0.009-0.096-0.013-0.145
			c0.088-0.241,0.136-0.501,0.17-0.783c0.026-0.252,0.05-0.5,0.078-0.749c-0.012,0.094-0.026,0.189-0.042,0.282
			c0.085-0.638,0.172-1.266,0.257-1.905c-0.025,0.222-0.061,0.431-0.086,0.651c0.263-1.383,0.585-2.697,1.119-4.009
			c0.341-0.793,0.676-1.584,1.002-2.378c0.414-0.92,0.85-1.802,1.423-2.638c0.636-0.755,1.298-1.464,2.035-2.121
			c0.462-0.298,0.959-0.537,1.466-0.762c0.826-0.332,1.663-0.614,2.539-0.792c1.125-0.1,2.233-0.125,3.36-0.025
			c1.189,0.217,2.327,0.593,3.456,1.029c0.619,0.295,1.202,0.626,1.763,1.015c0.893,0.776,1.649,1.631,2.382,2.55
			c0.516,0.751,0.972,1.513,1.355,2.331c0.371,1.01,0.624,2.048,0.809,3.111C146.34,192.878,146.419,194.296,146.278,195.751z"/>
	</g>
</g>
<g>
	<g>
		<path d="M243.007,158.322c-0.245-1.376-0.749-2.703-1.203-4.018c-0.738-2.103-1.795-4.068-3.196-5.789
			c-1.364-1.673-3.048-3.098-4.841-4.278c-0.848-0.553-1.696-1.118-2.581-1.621c-1.045-0.603-2.151-1.07-3.256-1.537
			c-1.008-0.431-2.089-0.738-3.159-0.946c-1.795-0.357-3.675-0.689-5.518-0.7c-0.837,0-1.659,0.025-2.495,0.086
			c-2.458,0.208-4.731,0.957-6.932,2.065c-0.983,0.504-1.892,1.217-2.729,1.929c-0.823,0.713-1.462,1.635-2.076,2.521
			c-1.033,1.488-1.697,3.269-2.323,4.953c-1.391,3.682-1.571,7.594-1.267,11.471c-0.338,2.257-0.136,4.506,0.196,6.767
			c0.295,2.04,0.872,4.044,1.659,5.948c0.441,1.056,0.934,2.076,1.499,3.072c0.713,1.241,1.622,2.374,2.532,3.479
			c1.353,1.67,3.122,3.047,5.064,3.957c2.593,1.205,5.492,1.609,8.333,1.647c4.547,0.061,9.18-1.327,12.917-3.908
			c2.126-1.462,3.908-3.282,5.444-5.359c1.451-1.966,2.495-4.116,3.22-6.453c0.712-2.261,0.909-4.694,1.117-7.055
			C243.597,162.476,243.388,160.363,243.007,158.322z M236.798,162.85c-0.36,2.166-0.899,4.281-1.684,6.339
			c-0.578,1.262-1.268,2.441-2.072,3.576c-0.902,1.088-1.876,2.086-2.962,2.986c-0.997,0.697-2.048,1.299-3.152,1.807
			c-1.235,0.464-2.489,0.822-3.793,1.061c-1.771,0.185-3.536,0.19-5.307,0.012c-0.942-0.172-1.863-0.391-2.772-0.713
			c-0.815-0.399-1.578-0.858-2.317-1.379c-1.088-0.906-2.068-1.887-2.957-2.974c-0.947-1.321-1.734-2.722-2.409-4.203
			c-0.709-1.76-1.273-3.549-1.602-5.409c-0.023-1.268-0.002-2.535,0.12-3.79c0.148-1.039,0.346-2.064,0.708-3.043
			c0.891-1.941,2.03-3.806,3.297-5.533c0.578-0.706,1.182-1.354,1.864-1.945c0.817-0.559,1.684-1.026,2.582-1.435
			c1.317-0.497,2.646-0.828,4.029-1.064c1.997-0.151,3.986-0.152,5.975,0.05c1.263,0.222,2.476,0.554,3.666,1.013
			c1.621,0.74,3.172,1.626,4.615,2.671c0.67,0.555,1.287,1.151,1.854,1.811c0.486,0.692,0.904,1.402,1.283,2.16
			c0.502,1.307,0.871,2.659,1.115,4.038C236.996,160.225,236.949,161.525,236.798,162.85z"/>
	</g>
</g>
<g>
	<g>
		<path d="M334.621,160.832c-0.098-1.168-0.295-2.323-0.553-3.465c-0.271-1.154-0.799-2.285-1.39-3.306
			c-1.119-1.966-2.888-3.453-4.708-4.743c-0.86-0.602-1.831-1.094-2.789-1.537c-0.958-0.455-1.942-0.897-2.937-1.266
			c-0.724-0.257-1.45-0.54-2.2-0.7c-1.119-0.246-2.213-0.418-3.343-0.565c-0.647-0.08-1.288-0.141-1.931-0.141
			c-0.249,0-0.497,0.01-0.747,0.029c-1.475,0.135-2.839,0.54-4.204,1.045c-2.544,0.946-4.99,2.383-6.931,4.277
			c-1.045,1.02-1.856,2.262-2.668,3.478c-0.553,0.861-1.068,1.758-1.523,2.681c-1.325,2.626-1.843,5.519-1.997,8.437
			c-0.083,0.309-0.161,0.618-0.228,0.929c-0.491,2.372-0.271,4.779,0.491,7.053c1.474,4.435,4.841,7.998,8.738,10.444
			c1.954,1.243,4.203,2.152,6.464,2.668c2.409,0.553,4.867,0.516,7.238-0.147c2.409-0.676,4.547-2.115,6.49-3.65
			c0.823-0.652,1.598-1.341,2.323-2.089c0.922-0.946,1.708-2.066,2.421-3.184c1.402-2.188,2.348-4.731,3.073-7.227
			C334.571,166.953,334.866,163.83,334.621,160.832z M326.939,164.693c-0.35,2.125-0.962,4.204-1.746,6.211
			c-0.625,1.404-1.358,2.753-2.251,4.011c-0.86,1.013-1.815,1.926-2.85,2.776c-0.781,0.566-1.586,1.065-2.442,1.489
			c-0.548,0.197-1.098,0.359-1.667,0.474c-0.843,0.061-1.674,0.045-2.518-0.034c-1.227-0.218-2.415-0.559-3.584-0.996
			c-1.337-0.603-2.581-1.315-3.774-2.168c-1.06-0.861-2.012-1.799-2.878-2.853c-0.651-0.888-1.205-1.823-1.677-2.821
			c-0.153-0.401-0.287-0.805-0.404-1.214c0.064-1.185,0.147-2.37,0.26-3.55c0.234-1.578,0.555-3.108,1.122-4.603
			c0.435-0.923,0.955-1.78,1.592-2.598c1.076-1.358,2.158-2.714,3.475-3.857c0.832-0.588,1.709-1.071,2.622-1.516
			c1.168-0.43,2.391-0.714,3.611-0.912c1.1-0.056,2.184,0.1,3.278,0.238c-0.08-0.013-0.162-0.026-0.241-0.036
			c0.118,0.016,0.234,0.031,0.352,0.047c0.689,0.119,1.348,0.257,2.029,0.419c0.641,0.158,1.261,0.412,1.875,0.658
			c1.11,0.509,2.178,1.067,3.185,1.761c0.534,0.448,1.029,0.931,1.492,1.458c0.262,0.385,0.497,0.776,0.711,1.19
			c0.219,0.641,0.365,1.293,0.478,1.958C327.122,161.724,327.095,163.205,326.939,164.693z"/>
	</g>
</g>
<g>
	<g>
		<path d="M413.03,188.614c-0.233-1.439-0.589-2.802-1.178-4.155c-0.713-1.622-1.671-3.207-2.828-4.56
			c-1.511-1.769-3.502-3.06-5.567-4.105c-0.86-0.442-1.758-0.837-2.68-1.131c-0.762-0.246-1.586-0.382-2.383-0.517
			c-1.19-0.219-2.378-0.384-3.576-0.384c-0.214,0-0.428,0.005-0.64,0.016c-1.205,0.063-2.446,0.283-3.614,0.54
			c-0.946,0.21-1.867,0.578-2.729,1.021c-0.651,0.32-1.229,0.847-1.769,1.303c-0.357,0.308-0.7,0.615-1.032,0.935
			c-1.18,1.105-2.175,2.445-3.171,3.71c-1.192,1.512-2.285,3.073-3.184,4.769c-0.023,0.043-0.045,0.087-0.069,0.13
			c-0.13,0.165-0.26,0.331-0.386,0.496c-0.615,0.823-1.192,1.671-1.709,2.57c-0.614,1.069-1.056,2.261-1.425,3.441
			c-0.651,2.115-0.909,4.437-0.958,6.65c-0.026,1.18,0.135,2.372,0.332,3.539c0.222,1.303,0.762,2.544,1.303,3.737
			c0.872,1.916,2.077,3.71,3.306,5.406c1.486,2.054,3.121,3.982,5.394,5.163c2.115,1.082,4.498,1.376,6.834,1.315
			c1.13-0.037,2.273-0.222,3.392-0.393c1.254-0.196,2.483-0.528,3.687-0.945c1.217-0.431,2.409-0.984,3.551-1.587
			c1.107-0.577,2.066-1.339,3.036-2.114c0.738-0.602,1.364-1.353,1.942-2.102c0.836-1.07,1.598-2.164,2.285-3.344
			c1.045-1.794,1.807-3.772,2.483-5.727c0.528-1.499,0.872-3.072,1.118-4.645C413.277,194.635,413.509,191.648,413.03,188.614z
			 M405.646,194.967c-0.216,1.141-0.445,2.256-0.727,3.392c-0.23,0.903-0.561,1.79-0.891,2.674c-0.87,1.896-1.858,3.702-3.071,5.404
			c-0.569,0.682-1.17,1.309-1.843,1.891c-0.968,0.668-1.98,1.232-3.044,1.728c-1.48,0.562-2.994,0.962-4.549,1.224
			c-0.969,0.097-1.917,0.126-2.882,0.059c-0.436-0.086-0.854-0.195-1.279-0.333c-0.409-0.201-0.794-0.428-1.173-0.687
			c-1.27-1.083-2.344-2.361-3.371-3.663c-1.084-1.429-2.082-2.902-2.849-4.524c-0.326-0.891-0.559-1.785-0.722-2.723
			c-0.077-0.772-0.113-1.542-0.11-2.311c0.412-1.937,0.971-3.877,1.676-5.727c0.412-0.87,0.895-1.681,1.459-2.461
			c1.018-1.235,2.181-2.273,3.375-3.332c1.004-0.886,1.974-1.793,3.01-2.644c0.272-0.211,0.542-0.42,0.812-0.625
			c-0.222,0.173-0.43,0.332-0.651,0.504c0.613-0.474,1.256-0.947,1.945-1.32c0.436-0.126,0.874-0.218,1.317-0.293
			c1.105-0.127,2.208-0.21,3.323-0.138c0.741,0.138,1.478,0.327,2.214,0.523c0.741,0.2,1.451,0.409,2.16,0.673
			c1.178,0.537,2.322,1.119,3.398,1.849c0.304,0.268,0.588,0.545,0.86,0.848c0.464,0.691,0.868,1.414,1.229,2.17
			c0.248,0.735,0.413,1.494,0.54,2.264C405.997,191.259,405.848,193.106,405.646,194.967z"/>
	</g>
</g>
<g>
	<g>
		<path d="M511.806,210.915c-0.196-0.54-0.418-1.056-0.664-1.573c-0.441-0.945-1.265-1.757-1.966-2.519
			c-1.647-1.769-3.282-3.528-5.161-5.063c-4.18-3.404-9.206-5.629-13.986-8.038c-2.47-1.241-4.979-2.334-7.583-3.232
			c-2.409-0.823-4.953-1.205-7.374-1.991c-0.185-0.061-0.366-0.129-0.549-0.192c0.733-0.625,1.483-1.224,2.207-1.861
			c3.883-3.416,7.313-7.336,10.495-11.417c1.782-2.285,3.441-4.645,5.051-7.054c1.364-2.04,2.507-4.214,3.663-6.378
			c1.352-2.521,2.408-5.273,3.354-7.964c0.935-2.619,1.807-5.273,2.434-7.989c0.774-3.294,1.02-7.117-1.007-10.03
			c-1.807-2.592-4.647-3.699-7.485-4.743c-2.334-0.847-4.769-1.659-7.177-2.273c-5.346-1.364-10.852-2.446-16.382-2.605
			c-0.502-0.016-1.005-0.023-1.506-0.023c-2.435,0-4.85,0.178-7.247,0.499c1.504-4.039,2.831-8.136,4.008-12.293
			c1.524-5.371,2.864-10.729,3.638-16.272c0.184-1.278,0.344-2.544,0.467-3.822c0.173-1.966,0.112-4.277-0.896-6.009
			c-0.848-1.451-2.299-2.605-3.946-2.936c-0.381-0.075-0.749-0.124-1.118-0.197c-1.119-0.233-2.225-0.467-3.332-0.689
			c-1.967-0.397-3.916-0.605-5.887-0.605c-0.836,0-1.674,0.037-2.521,0.114c-3.047,0.271-6.034,0.75-9.009,1.475
			c-2.409,0.577-4.78,1.314-7.116,2.151c-5.531,1.978-10.976,4.13-16.199,6.858c-1.518,0.797-3.006,1.681-4.471,2.609
			c0.195-0.665,0.381-1.336,0.581-2c0.738-2.507,1.512-5.014,2.138-7.546c0.713-2.888,1.205-5.789,1.524-8.752
			c0.308-2.778,0.467-5.567,0.627-8.357c0.147-2.642,0.196-5.308,0.012-7.95c-0.112-1.856-0.344-3.786-0.946-5.555
			c-0.392-1.156-0.836-1.917-1.609-2.851c-0.774-0.946-1.586-1.425-2.729-1.867c-0.567-0.217-1.148-0.301-1.731-0.301
			c-1.338,0-2.696,0.447-3.971,0.781c-2.372,0.615-4.769,1.205-7.078,2.028c-2.975,1.082-5.839,2.323-8.64,3.785
			c-2.336,1.243-4.572,2.668-6.809,4.056c-4.72,2.937-9.193,6.219-13.469,9.747c-3.663,3.023-6.858,6.586-10.03,10.114
			c-0.151,0.168-0.278,0.354-0.428,0.522c0.268-1.771,0.547-3.54,0.757-5.323c0.259-2.213,0.406-4.449,0.553-6.673
			c0.147-2.2,0.308-4.424,0.259-6.637c-0.112-4.694-0.357-9.415-0.897-14.083c-0.308-2.606-0.638-5.199-1.082-7.792
			c-0.208-1.203-0.406-2.421-0.725-3.612c-0.381-1.451-1.425-2.73-2.913-3.146c-0.33-0.091-0.673-0.132-1.018-0.132
			c-0.687,0-1.383,0.162-2.005,0.415c-2.213,0.909-4.326,2.016-6.415,3.184c-1.942,1.069-3.908,2.125-5.813,3.269
			c-2.003,1.18-4.068,2.334-5.923,3.736c-1.193,0.885-2.458,1.72-3.577,2.703c-1.021,0.886-2.04,1.795-3.06,2.691
			c-1.39,1.217-2.642,2.606-3.946,3.921c-1.315,1.327-2.544,2.74-3.81,4.105c-2.556,2.778-4.953,5.702-7.362,8.614
			c-1.643,2.005-3.223,4.09-4.754,6.205c-0.01-2.541-0.043-5.084-0.056-7.617c-0.026-4.584,0.012-9.167-0.124-13.74
			c-0.062-2.47-0.161-4.941-0.32-7.411c-0.061-0.909-0.161-1.807-0.271-2.717c-0.159-1.327-0.271-2.679-0.529-3.995
			c-0.441-2.31-0.872-4.609-1.572-6.857c-0.701-2.262-1.413-4.523-2.224-6.748c-0.589-1.609-1.647-3.195-3.404-3.675
			c-0.35-0.097-0.847-0.157-1.334-0.157c-0.434,0-0.86,0.047-1.173,0.157c-0.54,0.184-1.057,0.406-1.586,0.627
			c-0.946,0.406-1.867,0.848-2.778,1.327c-2.115,1.082-4.129,2.286-6.145,3.528c-2.103,1.303-4.044,2.9-5.974,4.449
			c-1.867,1.488-3.612,3.096-5.383,4.707c-0.762,0.676-1.425,1.462-2.126,2.201c-0.7,0.725-1.425,1.45-2.077,2.224
			c-1.696,2.016-3.38,4.03-4.952,6.145c-1.463,1.954-2.9,3.895-4.241,5.923c-1.364,2.077-2.666,4.154-3.908,6.306
			c-2.465,4.232-4.528,8.659-6.357,13.187c-0.287-3.867-1.11-7.646-2.064-11.389c-0.491-1.979-1.056-3.957-1.709-5.888
			c-1.535-4.56-3.121-9.131-5.137-13.495c-0.958-2.039-1.917-4.128-3.133-6.034c-0.69-1.07-1.377-2.138-2.066-3.208
			c-0.565-0.885-1.252-1.708-1.867-2.556c-0.897-1.205-1.867-2.36-2.949-3.404c-1.045-1.033-2.409-2.027-3.848-2.421
			c-0.423-0.118-0.832-0.172-1.23-0.172c-1.859,0-3.445,1.171-4.73,2.518c-1.486,1.573-2.948,3.159-4.375,4.781
			c-3.06,3.49-6.047,7.127-8.444,11.109c-1.044,1.745-2.089,3.491-3.047,5.285c-0.934,1.75-1.76,3.555-2.519,5.387
			c-0.515-0.69-1.044-1.371-1.648-1.99c-0.713-0.725-1.451-1.425-2.213-2.102c-1.537-1.364-3.158-2.654-4.72-4.007
			c-3.281-2.827-6.513-5.813-10.409-7.804c-2.102-1.082-4.252-2.187-6.488-2.962c-0.86-0.294-1.709-0.565-2.593-0.798
			c-0.774-0.197-1.549-0.308-2.348-0.406c-0.35-0.043-0.642-0.063-0.921-0.063c-0.445,0-0.861,0.048-1.451,0.124
			c-1.647,0.222-2.9,1.511-3.614,2.925c-1.045,2.066-1.867,4.229-2.752,6.355c-0.872,2.077-1.733,4.155-2.556,6.256
			c-2.385,6.021-3.404,12.511-4.449,18.877c-0.517,3.184-0.946,6.453-1.033,9.673c-0.037,1.256-0.045,2.508-0.054,3.761
			c-3.138-3.007-6.492-5.738-9.951-8.371c-3.343-2.556-6.907-4.952-10.753-6.698c-4.215-1.904-8.53-3.625-12.917-5.076
			c-2.04-0.664-4.166-1.07-6.256-1.475c-1.537-0.294-3.121-0.491-4.67-0.565c-0.168-0.007-0.336-0.011-0.506-0.011
			c-1.251,0-2.554,0.199-3.723,0.588c-1.867,0.626-3.661,2.2-3.944,4.252c-0.32,2.432-0.455,4.916-0.615,7.374
			c-0.123,1.979-0.294,3.946-0.392,5.925c-0.222,4.313-0.332,8.627-0.05,12.941c0.283,4.315,0.701,8.591,1.599,12.831
			c0.018,0.086,0.043,0.17,0.063,0.256c-3.377-1.251-6.74-2.538-10.171-3.65c-4.878-1.586-9.808-2.998-14.859-3.957
			c-5.493-1.032-11.06-1.757-16.653-2.065c-1.289-0.071-2.579-0.12-3.872-0.12c-1.208,0-2.419,0.043-3.625,0.157
			c-0.935,0.098-1.856,0.208-2.74,0.502c-1.475,0.493-2.374,1.254-3.269,2.508c-1.131,1.609-1.303,3.442-1.143,5.359
			c0.221,2.605,0.945,5.186,1.549,7.717c1.18,4.879,2.175,9.796,3.429,14.651c1.191,4.632,2.556,9.188,4.029,13.735
			c-1.114-0.207-2.236-0.38-3.348-0.544c-2.494-0.369-4.977-0.589-7.483-0.725c-2.052-0.098-4.117-0.037-6.158-0.086
			c-1.133-0.018-2.264-0.034-3.393-0.034c-1.222,0-2.441,0.021-3.661,0.083c-2.876,0.135-5.727,0.479-8.591,0.886
			c-2.298,0.332-4.609,0.811-6.869,1.401c-1.376,0.357-2.752,0.738-4.105,1.18c-1.523,0.504-3.036,1.156-4.388,2.003
			c-0.614,0.382-1.18,0.86-1.719,1.353c-0.897,0.823-1.426,2.04-1.769,3.171c-0.566,1.831,0.135,3.773,0.774,5.493
			c0.516,1.425,1.131,2.827,1.757,4.203c0.996,2.164,2.126,4.277,3.171,6.427c0.996,2.017,1.93,4.068,2.913,6.096
			c1.229,2.532,2.519,5.002,3.884,7.474c2.273,4.165,5.137,7.988,7.878,11.86c1.327,1.88,2.593,3.797,3.908,5.691
			c0.727,1.043,1.475,2.075,2.245,3.092c-1.347,0.107-2.688,0.247-4.035,0.415c-2.544,0.308-5.051,0.836-7.558,1.364
			c-2.089,0.442-4.191,0.909-6.256,1.474c-1.131,0.321-2.25,0.638-3.367,0.984c-0.479,0.148-0.946,0.308-1.413,0.467
			c-1.353,0.468-2.409,0.996-3.479,1.942c-0.614,0.553-1.192,1.733-1.413,2.519c-0.257,0.946-0.159,1.832-0.012,2.767
			c0.245,1.549,0.946,2.986,1.598,4.387c0.54,1.143,1.143,2.273,1.769,3.367c2.25,3.92,4.522,7.902,7.226,11.553
			c5.703,7.706,12.376,14.883,20.525,20.045c3.883,2.458,7.889,4.73,11.994,6.784c2.311,1.154,4.621,2.262,6.993,3.244
			c0.175,0.074,0.348,0.135,0.522,0.207c-1.16,1.446-2.43,2.795-3.582,4.252c-0.043,0.055-0.086,0.109-0.127,0.164
			c-5.51,4.403-10.652,9.29-15.457,14.399c-3.908,4.166-6.918,8.922-9.216,14.133c-1.942,4.375-3.614,8.775-4.424,13.518
			c-1.168,6.834-0.283,13.679,1.29,20.364c0.294,1.241,0.54,2.495,0.922,3.712c0.491,1.621,1.007,3.233,1.5,4.855
			c0.455,1.462,1.143,2.887,1.709,4.313c0.553,1.426,1.179,2.802,1.843,4.179c1.413,2.913,2.937,5.715,4.522,8.553
			c2.802,5.015,5.801,9.918,8.726,14.859c0.558,0.945,1.156,1.86,1.725,2.794c-0.107,0.083-0.216,0.152-0.321,0.24
			c-4.339,3.65-8.284,7.791-12.364,11.723c-3.884,3.761-7.731,7.559-11.603,11.332c-4.03,3.932-8.172,7.731-12.253,11.588
			c-1.88,1.758-3.75,3.54-5.482,5.433c-0.86,0.946-1.708,1.881-2.507,2.864C1.61,412.635,0,414.43,0,416.703
			c0,1.72,0.874,3.343,2.348,4.24c0.799,0.491,1.696,0.799,2.581,1.105c1.131,0.382,2.261,0.776,3.392,1.168
			c2.052,0.725,4.106,1.413,6.182,2.04c4.351,1.327,8.775,2.383,13.126,3.675c4.044,1.203,7.89,2.999,11.871,4.338
			c4.161,1.41,8.404,2.598,12.51,4.153c0.381,0.173,0.756,0.357,1.121,0.561c0.147,0.499,0.267,1.001,0.368,1.515
			c0.306,3.621,0.039,7.276-0.259,10.88c-0.222,2.74-0.491,5.469-0.749,8.197c-0.54,5.481-0.909,10.974-0.774,16.468
			c0.025,1.278,0.049,2.568,0.159,3.834c0.124,1.254,0.246,2.446,0.872,3.563c1.119,2.005,3.369,2.937,5.58,2.41
			c1.475-0.344,2.888-1.217,4.191-1.93c0.837-0.455,1.622-0.983,2.409-1.5c1.243-0.836,2.446-1.684,3.638-2.593
			c4.621-3.54,8.997-7.385,13.371-11.245c4.081-3.6,7.867-7.534,11.836-11.259c4.056-3.81,8.173-7.509,12.45-11.073
			c4.448-3.701,8.934-7.375,13.383-11.074c4.081-3.416,7.989-7.054,12.032-10.532c2.974-2.557,5.985-5.077,8.91-7.694
			c1.376-1.241,2.74-2.481,4.154-3.687c0.651-0.553,1.339-1.081,2.016-1.621c0.848-0.664,1.549-1.463,2.323-2.213
			c1.024-1.001,1.47-2.399,1.441-3.791c1.742-2.087,2.987-4.444,4.018-6.964c0.885-2.138,1.143-4.547,1.439-6.796
			c0.135-1.094,0.233-2.175,0.306-3.269c0.098-1.917,0.098-3.871,0.026-5.789c-0.098-2.102-0.233-4.191-0.406-6.28
			c-0.098-1.328-0.233-2.668-0.467-3.97c-0.005-0.022-0.016-0.042-0.021-0.065c2.124-0.509,4.259-0.968,6.419-1.371
			c3.75-0.702,7.531-1.227,11.325-1.738c-0.097,0.015-0.192,0.027-0.288,0.04c0.108-0.015,0.216-0.029,0.323-0.044
			c1.871-0.255,3.742-0.499,5.612-0.754c-0.418,0.061-0.836,0.112-1.254,0.173c1.714-0.227,3.429-0.463,5.143-0.692
			c-0.096,0.015-0.191,0.027-0.288,0.04c5.568-0.738,11.147-1.252,16.726-1.682c5.948-0.442,11.884-0.946,17.833-1.303
			c11.934-0.701,23.892-0.762,35.839-0.566c7.084,0.12,14.225,0.604,21.266,1.426c5.542,0.771,11.032,1.695,16.5,2.925
			c5.493,1.229,10.939,2.729,16.419,3.982c6.047,1.388,12.044,2.815,17.993,4.534c5.482,1.586,10.925,3.306,16.431,4.83
			c7.083,1.953,14.148,4.006,21.109,6.363c-0.252,0.608-0.495,1.222-0.746,1.833c-0.537,1.293-1.054,2.601-1.586,3.898
			c-1.341,2.99-2.834,5.923-4.142,8.933c-1.659,3.81-3.147,7.656-4.375,11.639c-0.616,2.016,0.55,4.176,2.415,5.004
			c0.887,1.69,2.209,3.263,3.334,4.626c2.066,2.507,4.473,4.731,6.82,6.956c1.881,1.769,3.799,3.502,5.691,5.273
			c4.019,3.785,7.915,7.719,11.909,11.541c3.884,3.71,7.915,7.251,11.86,10.889c3.81,3.528,7.523,7.189,11.368,10.68
			c4.117,3.75,8.357,7.399,12.794,10.778c2.102,1.586,4.179,3.269,6.414,4.645c2.446,1.512,4.917,2.828,7.51,4.045
			c1.843,0.847,3.81,1.647,5.789,2.114c1.893,0.431,3.908,0.308,5.666-0.517c1.794-0.847,3.17-2.223,4.326-3.797
			c2.778-3.773,4.289-8.395,5.702-12.831c1.72-5.384,3.331-10.778,4.694-16.261c1.179-4.761,2.333-9.498,4.024-14.111
			c0.468-1.026,0.99-1.997,1.626-2.927c0.321-0.358,0.658-0.696,1.018-1.021c0.347-0.223,0.701-0.425,1.075-0.616
			c2.186-0.781,4.486-1.162,6.759-1.641c1.488-0.319,2.963-0.651,4.437-1.02c2.654-0.638,5.273-1.364,7.902-2.077
			c2.815-0.761,5.617-1.584,8.333-2.666c3.381-1.341,6.464-3.049,9.217-5.444c0.738-0.638,1.266-1.488,1.856-2.262
			c0.553-0.713,1.056-1.954,1.303-2.778c0.578-1.831,0.799-3.773,0.713-5.678c-0.233-5.198-3.282-9.745-6.035-13.973
			c-1.524-2.36-3.023-4.72-4.511-7.104c-2.925-4.671-6.071-9.206-9.647-13.397c-1.278-1.5-2.556-2.999-3.897-4.449
			c-1.391-1.496-2.865-2.791-4.501-3.984c2.936-4.952,5.631-10.046,8.058-15.245c1.364-2.937,2.532-5.972,3.699-8.997
			c0.971-2.495,1.905-5.014,2.717-7.558c0.922-2.887,1.745-5.764,2.409-8.726c0.676-3.06,1.056-6.243,1.266-9.366
			c0.233-3.331,0.196-6.575-0.246-9.894c-0.392-2.887-0.996-5.642-1.782-8.454c-0.627-2.188-1.622-4.315-2.593-6.367
			c-0.651-1.364-1.413-2.691-2.224-3.969c-0.86-1.364-1.733-2.74-2.617-4.105c-1.426-2.213-2.802-4.498-4.376-6.612
			c-2.004-2.717-4.007-5.457-6.354-7.902c-2.126-2.212-4.302-4.364-6.588-6.414c-3.289-2.979-6.803-5.667-10.422-8.216
			c0.458-0.196,0.928-0.368,1.38-0.578c2.432-1.143,4.829-2.36,7.226-3.563c2.372-1.18,4.829-2.273,7.14-3.6
			c2.397-1.377,4.743-2.839,7.042-4.388c2.481-1.647,4.829-3.479,7.165-5.31c1.918-1.511,3.786-3.158,5.544-4.841
			c1.966-1.881,3.883-3.773,5.665-5.825c1.609-1.881,3.158-3.799,4.682-5.752c2.102-2.691,4.264-5.359,5.874-8.382
			c0.676-1.279,1.29-2.691,1.56-4.106C512.003,212.943,512.113,211.776,511.806,210.915z M462.104,137.125
			c1.887-0.161,3.761-0.261,5.654-0.306c2.094-0.061,4.212,0.233,6.284,0.452c1.153,0.162,2.301,0.332,3.449,0.555
			c1.843,0.357,3.65,0.787,5.469,1.241c1.488,0.369,2.949,0.848,4.399,1.303c1.501,0.458,3.025,0.901,4.498,1.453
			c-0.009,0.274-0.024,0.545-0.045,0.819c-0.923,4.855-2.521,9.589-4.378,14.165c-1.256,2.576-2.586,5.057-4.116,7.48
			c-1.404,2.215-2.942,4.324-4.52,6.414c-2.804,3.338-5.696,6.589-8.949,9.515c-3.389,3.06-6.91,5.964-10.468,8.831
			c-0.213,0.165-0.429,0.331-0.642,0.495c0.308-0.232,0.615-0.467,0.921-0.7c-0.696,0.534-1.393,1.067-2.089,1.609
			c-0.23,0.178-0.461,0.357-0.691,0.537c0.185-0.146,0.369-0.294,0.556-0.436c-3.748,2.838-7.656,5.42-11.614,7.939
			c-1.978,1.254-3.969,2.507-5.972,3.712c-0.805,0.485-1.617,0.967-2.425,1.445c-0.979-3.038-2.763-5.5-4.671-7.972
			c0.039,0.051,0.08,0.1,0.121,0.151c-0.056-0.07-0.11-0.138-0.165-0.21c0.015,0.018,0.026,0.034,0.039,0.053
			c-0.08-0.104-0.161-0.207-0.24-0.312c0.067,0.086,0.134,0.173,0.201,0.26c-0.067-0.089-0.134-0.18-0.197-0.273
			c0.358-1.124,0.822-2.231,1.209-3.34c0.369-1.032,0.701-2.077,1.045-3.121c1.007-3.024,1.598-6.109,1.954-9.268
			c0.344-3.233-0.282-6.711-1.192-9.808c-0.308-1.032-0.713-2.067-1.164-3.087c0.27-0.267,0.531-0.537,0.778-0.781
			c0.897-0.897,1.807-1.782,2.717-2.668c2.065-1.991,4.044-4.228,5.666-6.588c3.06-4.413,5.849-8.997,8.75-13.518
			c0.98-1.533,1.936-3.083,2.87-4.645c0.386-0.016,0.774-0.065,1.16-0.167C458.229,137.85,460.145,137.447,462.104,137.125z
			 M412.098,112.366c0.859-0.763,1.745-1.494,2.627-2.224c2.587-1.867,5.213-3.603,7.965-5.221c2.555-1.506,5.275-2.703,7.994-3.882
			c3.152-1.216,6.307-2.457,9.531-3.456c1.856-0.578,3.687-1.118,5.567-1.572c1.528-0.371,3.055-0.642,4.606-0.898
			c2.075-0.202,4.118-0.36,6.204-0.176c0.325,0.053,0.649,0.107,0.975,0.164c-0.103,1.882-0.341,3.767-0.555,5.635
			c-0.652,4.17-1.516,8.288-2.491,12.395c-0.565,2.374-1.143,4.731-1.745,7.091c-0.531,2.072-1.218,4.066-1.923,6.067
			c-0.871,1.973-1.766,3.92-2.858,5.794c-1.303,2.273-2.691,4.486-4.117,6.686c-2.786,4.308-5.528,8.639-8.476,12.843
			c-1.365,1.701-2.774,3.339-4.257,4.939c-0.831,0.893-1.637,1.773-2.43,2.701c-1.556-1.28-3.274-2.386-5.073-3.185
			c-3.394-1.499-7.053-1.917-10.618-1.436c-0.23-2.909-1.043-5.781-2.3-8.396c-1.708-3.565-4.35-6.711-7.225-9.402
			c-1.179-1.111-2.479-2.099-3.801-3.041c0.203-0.332,0.422-0.649,0.629-0.978c1.364-2.2,2.605-4.449,3.834-6.722
			c1.488-2.752,2.63-5.715,3.835-8.603c0.499-1.2,0.946-2.419,1.37-3.644C410.385,113.612,411.279,113.096,412.098,112.366z
			 M369.477,173.116c-1.007-3.65-2.741-7.091-4.941-10.151c-1.045-1.451-2.2-2.815-3.453-4.081
			c-0.809-0.809-1.691-1.529-2.551-2.277c0.335-0.868,0.719-1.722,1.015-2.589c0.259-0.761,0.505-1.511,0.762-2.262
			c0.009-0.022,0.01-0.045,0.017-0.069c0.17-0.188,0.333-0.384,0.478-0.599c0.551-0.831,1.102-1.67,1.682-2.49
			c1.375-1.655,2.898-3.125,4.561-4.493c2.191-1.61,4.498-2.981,6.965-4.117c2.062-0.782,4.147-1.342,6.306-1.716
			c1.383-0.14,2.74-0.158,4.132-0.033c1.538,0.295,3.024,0.714,4.497,1.26c1.6,0.744,3.094,1.615,4.531,2.652
			c1.686,1.423,3.229,2.951,4.633,4.655c0.895,1.24,1.693,2.512,2.381,3.882c0.409,1.105,0.722,2.222,0.947,3.387
			c0.12,1.702,0.08,3.377-0.078,5.079c-0.099,1.045-0.197,2.076-0.21,3.135c-0.012,1.462,0.602,2.913,1.635,3.946
			c1.303,1.303,3.626,2.125,5.432,1.437c0.554-0.21,1.107-0.441,1.648-0.689c0.559-0.398,1.107-0.81,1.64-1.24
			c0.556-0.353,1.113-0.683,1.69-0.99c0.853-0.311,1.712-0.559,2.61-0.747c0.963-0.076,1.904-0.07,2.864,0.007
			c0.629,0.129,1.227,0.29,1.836,0.499c1.084,0.531,2.103,1.137,3.1,1.826c0.564,0.477,1.082,0.972,1.565,1.523
			c0.555,0.847,1.037,1.713,1.479,2.622c0.567,1.488,0.993,2.992,1.279,4.562c0.134,1.397,0.167,2.769,0.071,4.176
			c-0.613,3.701-1.89,7.153-3.19,10.658c-0.638,1.719-1.5,3.527-1.5,5.394c0,3.05,2.098,5.127,3.925,7.298
			c0.506,0.732,0.942,1.484,1.342,2.274c0.374,1.095,0.654,2.184,0.857,3.311c0.153,1.76,0.142,3.478-0.023,5.226
			c-0.308,1.871-0.803,3.665-1.467,5.442c-0.834,1.801-1.821,3.475-2.974,5.09c-1.434,1.723-3.015,3.257-4.742,4.683
			c-1.515,1.107-3.098,2.106-4.732,3.028c-0.995,0.565-2.04,1.056-3.035,1.609c-0.457,0.251-0.926,0.473-1.392,0.7
			c-1.543-0.631-3.084-1.258-4.615-1.899c-5.322-2.236-10.705-4.302-16.15-6.231c-5.308-1.893-10.704-3.528-16.038-5.322
			c-5.79-1.942-11.553-3.908-17.354-5.789c-0.457-0.15-0.919-0.289-1.377-0.438c0.572-0.412,1.162-0.796,1.714-1.235
			c2.778-2.175,5.026-4.671,7.14-7.485c2.311-3.072,3.822-6.735,4.977-10.385C371.615,188.035,371.442,180.256,369.477,173.116z
			 M357.42,106.273c0.498-2.128,0.953-4.267,1.396-6.407c0.649-0.346,1.246-0.8,1.654-1.462c0.883-1.431,1.843-2.795,2.827-4.164
			c2.454-3.093,5.062-6.025,7.864-8.806c1.783-1.769,3.565-3.502,5.444-5.186c1.274-1.153,2.641-2.2,4.005-3.252
			c2.958-2.054,5.905-4.168,9.011-5.977c3.252-1.896,6.508-3.708,9.906-5.34c2.209-0.87,4.411-1.646,6.71-2.267
			c0.877-0.238,1.765-0.463,2.66-0.67c0.148,2.62,0.047,5.249-0.116,7.872c-0.185,2.791-0.408,5.563-0.712,8.342
			c-0.524,2.742-1.104,5.452-1.979,8.127c-0.984,3.036-2.003,6.047-3.011,9.07c-1.945,5.866-3.84,11.732-6.079,17.491
			c-1.436,3.335-2.961,6.611-4.664,9.816c-0.946,1.769-1.88,3.54-2.766,5.335c-0.033,0.07-0.07,0.145-0.104,0.216
			c-1.887-0.472-3.804-0.706-5.721-0.706c-5.297,0-10.602,1.642-15.325,4.079c-2.414,1.24-4.665,2.827-6.769,4.562
			c-0.157-1.673-0.377-3.34-0.681-4.976c-0.762-4.116-2.74-8.098-5.297-11.368c-0.662-0.845-1.424-1.609-2.23-2.329
			c1.297-1.609,1.724-3.916,2.28-5.868C356.314,110.366,356.94,108.338,357.42,106.273z M306.979,100.765
			c0.529-2.236,1.032-4.485,1.511-6.735c0.265-1.224,0.49-2.456,0.689-3.691c2.269-4.545,5.296-8.682,8.342-12.738
			c1.484-1.844,2.962-3.687,4.518-5.486c1.954-2.262,3.957-4.462,5.985-6.661c1.635-1.758,3.332-3.453,5.051-5.126
			c0.909-0.885,1.783-1.831,2.753-2.654c1.064-0.906,2.127-1.821,3.191-2.729c1.507-1.11,3.012-2.191,4.565-3.233
			c1.733-1.156,3.514-2.224,5.285-3.306c1.733-1.045,3.453-2.089,5.161-3.158c0.222-0.138,0.442-0.278,0.664-0.418
			c0.017,0.11,0.033,0.219,0.05,0.33c0.559,5.064,0.638,10.129,0.663,15.217c0.023,5.178-0.646,10.332-1.294,15.456
			c-0.538,3.471-1.157,6.9-1.89,10.329c-0.725,3.416-1.537,6.82-2.323,10.226c-0.798,3.453-1.682,6.869-2.703,10.263
			c-0.467,1.572-1.007,3.135-1.537,4.694c-0.196,0.589-0.409,1.191-0.553,1.809c-3.381-1.417-7.057-2.068-10.717-1.844
			c-4.179,0.271-8.111,1.746-11.626,3.969c-1.191,0.757-2.305,1.66-3.375,2.594c-1.492-2.566-3.273-4.942-5.547-6.883
			c-1.425-1.217-2.974-2.187-4.658-2.998c-1.19-0.575-2.419-1.066-3.666-1.5C306.195,104.65,306.53,102.67,306.979,100.765z
			 M305.875,118.833c0.649,0.577,1.247,1.189,1.816,1.843c1.11,1.629,1.979,3.36,2.778,5.171c0.152,0.365,0.304,0.732,0.458,1.097
			c0.909,2.175,1.671,4.315,3.834,5.591c1.488,0.86,3.381,1.02,5.028,0.565c1.659-0.467,3.086-1.586,4.228-2.838
			c1.435-1.583,2.843-3.12,4.466-4.495c1.059-0.727,2.144-1.371,3.294-1.936c1.032-0.364,2.068-0.643,3.139-0.846
			c1.021-0.064,2.026-0.051,3.045,0.027c0.977,0.184,1.921,0.434,2.862,0.76c1.659,0.792,3.237,1.73,4.75,2.786
			c0.497,0.439,0.957,0.896,1.392,1.391c0.701,1.044,1.309,2.117,1.842,3.245c0.588,1.6,1.023,3.213,1.317,4.889
			c0.349,3.256,0.398,6.518,0.059,9.774c-0.417,2.516-1.089,4.981-1.697,7.46c-0.467,1.929-0.774,3.92-0.196,5.85
			c0.772,2.57,3.057,4.011,5.134,5.504c1.18,1.024,2.245,2.088,3.24,3.283c0.99,1.402,1.833,2.861,2.562,4.403
			c0.774,2.089,1.323,4.219,1.686,6.409c0.278,2.657,0.281,5.284,0.01,7.939c-0.428,2.635-1.131,5.175-2.094,7.665
			c-0.858,1.843-1.845,3.566-3.03,5.208c-1.284,1.55-2.685,2.954-4.232,4.251c-0.899,0.648-1.834,1.228-2.791,1.771
			c-0.406,0.121-0.817,0.228-1.222,0.358c-1.019,0.332-2.04,0.676-3.06,0.971c-0.436,0.13-0.852,0.297-1.281,0.436
			c-0.023,0.007-0.044,0.016-0.066,0.023c-0.598,0.196-1.206,0.371-1.788,0.61c-0.87,0.353-1.739,0.689-2.619,0.99
			c-4.957-1.539-9.948-2.926-14.985-4.187c-5.556-1.402-11.123-2.827-16.726-4.057c-5.752-1.252-11.528-2.334-17.354-3.219
			c-3.429-0.517-6.858-0.958-10.311-1.303c-1.333-0.13-2.673-0.212-4.013-0.286c0.474-0.722,0.972-1.425,1.409-2.182
			c0.713-1.241,1.341-2.556,2.017-3.822c1.659-3.158,2.974-6.551,4.165-9.892c1.341-3.785,2.115-7.682,2.532-11.664
			c0.393-3.687,0.049-7.35-0.529-10.988c-0.565-3.612-2.114-7.238-4.473-10.016c-1.457-1.718-3.206-3.068-5.099-4.197
			c-0.134-1.608-0.208-3.211-0.082-4.817c0.278-1.353,0.661-2.644,1.149-3.927c1.252-2.702,2.796-5.213,4.576-7.602
			c1.905-2.299,3.985-4.382,6.302-6.257c1.894-1.364,3.866-2.552,5.98-3.549c1.091-0.398,2.19-0.705,3.331-0.925
			c0.942-0.064,1.869-0.056,2.807,0.021c1.145,0.235,2.234,0.573,3.328,0.985C303.847,117.609,304.883,118.169,305.875,118.833z
			 M253.562,107.124c0.467-2.483,0.798-4.99,1.105-7.497c0.284-2.341,0.283-4.716,0.184-7.089c0-0.002,0.002-0.005,0.004-0.007
			c0.837-2.997,1.697-5.982,2.815-8.883c1.044-2.742,2.119-5.464,3.233-8.176c0.902-2.001,1.768-4.03,2.815-5.971
			c0.774-1.45,1.549-2.899,2.336-4.35c0.577-1.082,1.278-2.115,1.916-3.158c1.388-2.287,2.887-4.474,4.387-6.687
			c1.212-1.779,2.571-3.471,3.883-5.182c1.105-1.294,2.201-2.609,3.306-3.913c1.145-1.352,2.472-2.579,3.701-3.857
			c1.203-1.254,2.581-2.372,3.871-3.54c1.008-0.924,2.121-1.744,3.197-2.592c1.78-1.281,3.558-2.571,5.442-3.702
			c0.966-0.583,1.94-1.158,2.916-1.725c0.348,1.066,0.683,2.135,1.017,3.201c0.711,2.274,1.136,4.606,1.583,6.939
			c0.184,1.48,0.375,2.961,0.469,4.441c0.123,2.077,0.208,4.155,0.257,6.231c0.098,3.822,0.049,7.657,0.026,11.492
			c-0.048,7.398-0.061,14.84-0.918,22.198c-0.564,3.136-1.2,6.249-2.019,9.325c-0.442,1.671-0.897,3.344-1.353,5.002
			c-0.505,1.837-1.116,3.714-1.195,5.631c-2.032,0.161-4.045,0.594-5.964,1.276c-3.688,1.315-7.03,3.453-10.079,5.862
			c-3.38,2.666-6.158,5.776-8.726,9.217c-2.532,3.354-4.425,7.165-5.813,11.109c-0.751,2.119-1.043,4.333-1.098,6.561
			c-0.75-0.151-1.502-0.293-2.246-0.461c0.023-0.517,0.042-1.035,0.025-1.55c-0.075-2.273-0.32-4.498-0.664-6.747
			c-1.056-6.711-3.957-13.359-8.75-18.226c-0.235-0.239-0.499-0.437-0.745-0.663C252.944,110.157,253.292,108.629,253.562,107.124z
			 M211.338,68.226c0.642-4.248,1.784-8.353,3.366-12.341c1.366-3.101,2.987-6.028,4.741-8.919c0.999-1.655,2.083-3.237,3.191-4.821
			c1.45-1.852,2.934-3.664,4.468-5.454c0.932-1.086,1.865-2.219,2.854-3.293c0.344,0.377,0.678,0.765,1.007,1.159
			c1.262,1.652,2.523,3.333,3.549,5.132c0.651,1.156,1.402,2.299,1.978,3.503c0.526,1.12,1.062,2.241,1.6,3.362
			c1.375,3.435,2.676,6.873,3.882,10.378c0.54,1.572,1.056,3.171,1.488,4.78c0.792,2.98,1.582,5.937,2.06,8.987
			c0.598,4.931,0.665,9.929,0.926,14.881c0.112,2.212,0.308,4.424,0.357,6.637c0.059,2.289,0.005,4.534-0.172,6.809
			c-0.294,1.972-0.637,3.933-1.095,5.887c-0.175,0.743-0.398,1.499-0.621,2.257c-3.224-1.131-6.695-1.635-10.101-1.635
			c-0.107,0-0.213,0.001-0.32,0.001c-3.663,0.026-7.264,0.935-10.495,2.642c-2.546,1.334-4.655,3.344-7.094,4.821
			c-0.129-0.21-0.256-0.419-0.375-0.645c-1.159-3.019-1.975-6.188-2.875-9.272c-0.89-3.019-1.464-6.111-2.061-9.205
			c-0.414-3.415-0.773-6.824-0.841-10.275C210.648,78.473,210.713,73.334,211.338,68.226z M210.675,122.608
			c2.783,0.42,5.6,1.067,8.358,0.196c2.04-0.638,3.71-1.954,5.394-3.208c1.702-1.265,3.403-2.49,5.301-3.42
			c1.017-0.342,2.038-0.602,3.098-0.792c1.704-0.157,3.391-0.138,5.095,0.023c1.703,0.297,3.355,0.729,4.979,1.33
			c0.733,0.365,1.418,0.773,2.093,1.233c0.967,0.815,1.854,1.697,2.681,2.654c0.997,1.41,1.85,2.891,2.567,4.465
			c1.001,2.664,1.693,5.385,2.151,8.193c0.151,1.364,0.217,2.724,0.29,4.1c0.098,1.807,0,3.551,0.369,5.359
			c0.308,1.462,1.659,3.086,2.949,3.81c1.315,0.749,2.691,1.168,4.191,1.39c2.767,0.417,5.479,0.942,8.105,1.947
			c1.187,0.569,2.321,1.218,3.402,1.979c0.548,0.494,1.046,1.011,1.519,1.566c0.395,0.596,0.741,1.202,1.053,1.839
			c0.466,1.316,0.804,2.65,1.038,4.031c0.26,2.731,0.237,5.439-0.064,8.162c-0.613,3.696-1.734,7.232-3.142,10.702
			c-1.768,4.008-3.859,7.893-6.423,11.438c-0.281,0.342-0.619,0.637-0.914,0.968c-0.332,0.249-0.659,0.504-0.994,0.752
			c-1.56,1.158-3.161,2.257-4.726,3.418c-1.73-0.114-3.462-0.207-5.199-0.24c-3.447-0.075-6.912-0.216-10.373-0.216
			c-2.266,0-4.528,0.06-6.784,0.24c-6.392,0.504-12.684,1.523-18.988,2.619c-5.518,0.945-11.086,1.67-16.555,2.899
			c-1.44,0.327-2.88,0.679-4.321,1.021c-0.029-0.033-0.04-0.077-0.072-0.109c-0.689-0.689-1.463-0.886-2.397-0.996
			c-0.251-0.023-0.502-0.051-0.754-0.08c-1.948-0.304-3.82-0.721-5.677-1.385c-1.456-0.682-2.79-1.492-4.083-2.431
			c-2.003-1.593-3.99-3.253-5.832-5.014c-2.344-2.217-4.743-4.389-6.814-6.89c-1.1-1.494-2.06-3.03-2.851-4.707
			c-0.694-1.794-1.203-3.61-1.523-5.498c-0.146-1.551-0.175-3.077-0.034-4.625c0.284-1.551,0.705-3.045,1.268-4.512
			c0.49-1.023,1.034-1.99,1.673-2.93c0.832-0.996,1.734-1.892,2.729-2.731c0.395-0.29,0.789-0.573,1.19-0.848
			c0.725-0.504,1.488-0.935,2.14-1.524c0.441-0.369,0.81-0.787,1.105-1.278c0.504-0.664,0.749-1.425,1.033-2.187
			c0.27-0.689,0.294-1.609,0.404-2.334c0.126-0.861,0.223-1.722,0.31-2.582c0.399-2.653,1.032-5.199,2.003-7.711
			c1.156-2.518,2.567-4.866,4.209-7.1c2.115-2.583,4.495-4.901,7.08-7.004c1.557-1.127,3.187-2.116,4.927-2.927
			c1.482-0.553,2.976-0.956,4.529-1.249C204.495,122.104,207.576,122.244,210.675,122.608z M93.904,204.264
			c-0.592-2.29-1.702-4.454-2.668-6.621c-0.414-1.095-0.735-2.207-0.962-3.351c-0.063-0.771-0.072-1.528-0.028-2.302
			c0.152-0.799,0.362-1.571,0.632-2.348c0.448-0.926,0.968-1.799,1.567-2.647c0.917-1.08,1.931-2.052,3.027-2.954
			c2.162-1.542,4.474-2.799,6.899-3.877c1.883-0.755,3.805-1.434,5.729-2.102c1.033-0.369,2.04-0.761,3.06-1.18
			c0.369-0.159,0.738-0.319,1.119-0.479c0.712-0.308,1.278-0.847,1.892-1.327c0.468-0.431,0.799-0.946,1.007-1.524
			c0.442-0.774,0.664-1.598,0.664-2.481c-0.077-0.609-0.161-1.212-0.245-1.816c-0.24-2.081-0.451-4.161-0.292-6.251
			c0.23-1.207,0.565-2.367,0.993-3.507c0.544-1.111,1.167-2.151,1.88-3.159c0.939-1.126,1.953-2.157,3.073-3.103
			c1.314-0.933,2.684-1.725,4.145-2.403c1.73-0.632,3.48-1.094,5.289-1.397c2.163-0.21,4.291-0.179,6.447,0.06
			c3.252,0.499,6.409,1.277,9.477,2.472c2.557,1.153,4.9,2.604,7.186,4.246c-0.282-0.222-0.566-0.442-0.848-0.663
			c1.131,0.885,2.25,1.757,3.381,2.642c1.303,1.035,2.524,2.225,3.756,3.355c-0.918,2.223-1.535,4.576-1.809,6.981
			c-0.49,4.35,0.357,8.774,2.028,12.805c1.647,3.982,4.191,7.35,7.264,10.336c2.581,2.508,5.394,4.781,8.172,7.042
			c2.175,1.769,4.376,3.54,6.834,4.904c0.407,0.227,0.839,0.382,1.257,0.576c-5.372,1.281-10.709,2.769-16.022,4.264
			c-5.642,1.598-11.123,3.701-16.628,5.715c-5.186,1.892-10.446,3.563-15.67,5.383c-5.371,1.881-10.753,3.724-16.149,5.568
			c-5.702,1.941-11.331,4.13-16.714,6.845c-3.012,1.508-6.02,3.032-9.04,4.528c-0.479-0.305-0.977-0.581-1.441-0.907
			c-0.798-0.696-1.506-1.461-2.175-2.288c-1.282-1.76-2.396-3.614-3.294-5.593c-0.385-1.039-0.714-2.072-0.941-3.144
			c-0.065-0.767-0.075-1.517-0.026-2.288c0.158-0.763,0.372-1.494,0.632-2.235c0.895-1.893,2.087-3.589,3.327-5.258
			c1.195-1.491,2.447-2.953,3.367-4.631C94.027,208.418,94.409,206.206,93.904,204.264z M168.477,79.256
			c0.059-2.067,0.298-4.121,0.52-6.187c0.391-2.538,0.801-5.058,1.312-7.579c0.614-3.072,1.18-6.182,1.991-9.217
			c0.798-2.974,1.831-5.825,2.949-8.676c0.82-2.094,1.615-4.196,2.445-6.28c1.731,0.376,3.388,0.948,5.047,1.617
			c1.023,0.467,2.033,0.94,3.016,1.479c0.993,0.545,1.903,1.173,2.806,1.836c1.931,1.542,3.813,3.141,5.686,4.752
			c1.914,1.641,3.78,3.261,5.406,5.174c0.857,1.222,1.571,2.556,2.349,3.835c0.479,0.81,0.847,1.696,1.388,2.47
			c0.015,0.025,0.034,0.04,0.05,0.064c-1.039,4.952-1.353,10.017-1.511,15.073c-0.074,2.557-0.074,5.15,0.112,7.694
			c0.123,1.609,0.233,3.207,0.357,4.818c0.134,1.965,0.528,3.969,0.798,5.923c-0.013-0.105-0.027-0.211-0.042-0.317
			c0.524,3.478,1.404,6.971,2.463,10.309c0.517,1.598,1.007,3.207,1.549,4.806c0.149,0.44,0.298,0.876,0.447,1.315
			c-1.572-0.141-3.149-0.207-4.729-0.164c-3.122,0.086-6.232,0.664-9.168,1.733c-3.208,1.18-6.058,2.937-8.726,5.052
			c-0.83,0.659-1.603,1.379-2.386,2.088c-0.054-0.153-0.116-0.305-0.167-0.458c-0.614-1.881-1.217-3.773-1.893-5.629
			c-1.549-4.215-3.22-8.432-5.334-12.387c-2.04-3.81-4.105-7.633-6.539-11.198c-0.287-0.423-0.636-0.804-0.935-1.219
			c0.638-0.767,1.032-1.718,0.947-2.75C168.477,84.566,168.404,81.935,168.477,79.256z M115.272,67.89
			c0.641,0.017,1.283,0.067,1.929,0.131c2.665,0.462,5.259,1.027,7.855,1.809c2.744,0.843,5.442,1.92,8.116,2.97
			c2.632,1.154,5.182,2.411,7.603,3.974c2.557,1.646,5.024,3.402,7.445,5.224c2.282,1.86,4.561,3.724,6.602,5.838
			c1.988,2.067,3.886,4.183,5.676,6.422c3.736,5.507,6.925,11.359,9.57,17.449c1.051,2.773,1.999,5.56,2.809,8.427
			c0.369,1.29,0.663,2.605,0.971,3.92c0.344,1.462,0.553,2.936,1.07,4.35c0.11,0.3,0.23,0.586,0.368,0.855
			c-0.801,1.203-1.557,2.442-2.227,3.734c-1.512,2.9-2.619,6.035-3.245,9.229c-0.548,2.807-0.572,5.65-0.8,8.476
			c-1.559,1.156-2.986,2.453-4.321,3.853c-0.827-0.75-1.652-1.504-2.48-2.251c-1.5-1.341-3.158-2.568-4.769-3.773
			c-3.429-2.593-7.153-4.535-11.184-6.009c-1.867-0.676-3.797-1.154-5.74-1.561c-1.908-0.404-3.861-0.667-5.818-0.808
			c-0.738-1.064-1.472-2.126-2.171-3.226c-1.303-2.028-2.654-4.044-3.995-6.047c-1.167-1.746-2.347-3.503-3.354-5.346
			c-0.566-1.032-1.205-2.053-1.709-3.122c-0.518-1.104-1.035-2.2-1.554-3.304c-1.078-2.654-2.102-5.318-3.092-8.002
			c-1.739-4.667-3.049-9.471-3.811-14.392C113.807,87.17,114.257,77.422,115.272,67.89z M62.347,104.103
			c1.782,0.086,3.551,0.148,5.322,0.283c3.358,0.259,6.704,0.553,10.059,0.901c4.998,0.725,9.953,1.635,14.853,2.896
			c5.666,1.462,11.233,3.171,16.789,4.965c0.457,0.149,0.92,0.185,1.38,0.174c1.551,4.181,3.372,8.293,5.484,12.218
			c2.052,3.835,4.671,7.326,7.313,10.766c1.098,1.44,2.18,2.894,3.275,4.341c-2.644,0.539-5.226,1.388-7.674,2.557
			c-4.13,1.979-7.485,5.285-10.079,9.009c-1.241,1.758-2.065,3.786-2.766,5.801c-0.81,2.347-1.069,4.891-1.007,7.362
			c0.022,1.021,0.129,2.039,0.272,3.054c-1.892,0.652-3.801,1.262-5.667,1.984c-2.528,0.98-5.013,2.177-7.333,3.62
			c-0.031-0.05-0.039-0.112-0.072-0.161c-0.626-0.958-1.327-1.831-2.224-2.544c-0.455-0.357-0.909-0.725-1.352-1.107
			c-1.094-0.909-2.115-1.916-3.147-2.899c-1.815-1.717-3.372-3.682-4.912-5.645c-1.711-2.289-3.388-4.602-5.018-6.939
			c-1.684-2.407-3.035-4.985-4.288-7.625c-2.372-6.155-4.332-12.491-5.889-18.91c-1.663-6.851-2.755-13.8-3.832-20.773
			c-0.161-1.121-0.332-2.246-0.448-3.376C61.706,104.073,62.027,104.089,62.347,104.103z M30.067,169.209
			c-2.187-3.921-4.106-7.977-6.231-11.934c-1.655-3.046-3.453-6.018-5.001-9.116c0.167-0.083,0.335-0.167,0.505-0.246
			c4.21-1.659,8.611-2.686,13.081-3.346c3.084-0.354,6.178-0.531,9.285-0.576c2.839-0.036,5.645-0.071,8.461,0.254
			c2.76,0.402,5.497,0.959,8.215,1.528c0.959,0.196,1.893,0.479,2.815,0.823c0.752,0.279,1.451,0.576,2.207,0.721
			c0.79,2.174,1.635,4.386,2.729,6.405c2.397,4.375,5.162,8.492,8.014,12.585c1.353,1.942,2.668,3.933,4.178,5.764
			c1.165,1.417,2.38,2.805,3.54,4.231c0.294,0.397,0.587,0.795,0.872,1.2c0.689,0.972,1.252,1.709,2.249,2.36
			c0.176,0.115,0.348,0.191,0.522,0.279c-1.896,2.387-3.29,5.036-4.043,7.999c-0.725,2.864-0.565,5.937,0.173,8.775
			c0.565,2.164,1.635,4.253,2.815,6.145c0.725,1.157,1.522,2.305,2.17,3.521v0.001c-0.017,0.061-0.033,0.123-0.051,0.183
			c-0.39,0.701-0.834,1.356-1.303,2.007c-0.077,0.097-0.153,0.194-0.23,0.29c-0.072-0.051-0.143-0.102-0.216-0.153
			c-1.858-1.495-3.726-2.967-5.627-4.397c-1.881-1.413-3.97-2.556-6.072-3.6c-3.183-1.561-6.513-2.704-9.967-3.467
			c-4.522-1-9.176-1.233-13.806-1.317c-0.265-0.817-0.685-1.591-1.303-2.104c-1.327-1.098-2.491-2.304-3.585-3.625
			c-2.462-3.36-4.784-6.819-7.205-10.213C34.725,176.606,32.218,173.043,30.067,169.209z M56.432,247.866
			c-3.171-1.412-6.254-2.946-9.315-4.569c-3.111-1.651-6.033-3.641-8.89-5.698c-2.177-1.773-4.264-3.632-6.177-5.694
			c-2.076-2.238-4.051-4.533-5.98-6.893c-0.874-1.196-1.724-2.386-2.526-3.627c-0.946-1.462-1.844-2.937-2.74-4.413
			c-1.617-2.684-3.175-5.457-4.47-8.317c2.051-0.6,4.136-1.097,6.227-1.553c2.98-0.657,5.971-1.265,8.975-1.802
			c0.761-0.092,1.522-0.186,2.283-0.287c1.131-0.135,2.298-0.135,3.429-0.196c2.262-0.124,4.572-0.037,6.846-0.026
			c4.953,0.025,9.938-0.031,14.861,0.524c3.331,0.506,6.568,1.33,9.688,2.583c1.978,0.887,3.882,1.875,5.72,3.013
			c1.021,0.626,1.991,1.352,2.975,2.04c1.107,0.771,2.173,1.595,3.256,2.396c-0.278,0.496-0.562,0.991-0.801,1.51
			c-0.823,1.782-1.401,3.65-1.549,5.617c-0.147,1.806,0.049,3.551,0.406,5.321c0.382,1.893,1.192,3.701,1.965,5.444
			c0.739,1.635,1.635,3.184,2.63,4.671c0.604,0.906,1.284,1.757,2.013,2.562c-2.218,1.02-4.437,2.039-6.643,3.089
			c-3.109,1.475-6.084,3.135-9.02,4.916c-1.122,0.674-2.198,1.409-3.271,2.147c-0.08-0.022-0.151-0.061-0.232-0.078
			c-1.671-0.343-3.381-0.565-5.016-1.056C59.499,249.023,57.967,248.467,56.432,247.866z M130.04,411.41
			c-3.932,3.573-7.878,7.126-11.761,10.762c-4.019,3.785-8.112,7.474-12.254,11.123c-4.191,3.699-8.382,7.398-12.499,11.172
			c-4.769,4.362-9.317,8.995-13.936,13.543c-4.496,4.424-9.374,8.487-14.265,12.472c-0.978,0.721-1.956,1.432-2.949,2.114
			c0.207-2.609,0.386-5.219,0.672-7.813c0.589-5.518,1.462-11.036,1.794-16.578c0.357-5.862,0.972-12.635-2.948-17.489
			c-2.63-3.257-7.362-4.154-11.259-5.088c-2.544-0.602-5.1-1.168-7.633-1.818c-2.717-0.7-5.408-1.523-8.099-2.347
			c-4.215-1.292-8.48-2.175-12.756-3.208c-2.385-0.578-4.732-1.18-7.079-1.867c-0.622-0.184-1.24-0.385-1.855-0.599
			c0.058-0.05,0.114-0.101,0.172-0.151c1.978-1.733,3.993-3.441,6.009-5.149c4.252-3.626,8.395-7.336,12.45-11.184
			c3.846-3.638,7.619-7.362,11.441-11.037c3.612-3.449,7.148-7.007,10.892-10.309c0.388,0.538,0.74,1.102,1.138,1.635
			c1.892,2.544,3.883,4.99,5.972,7.362c1.671,1.916,3.393,3.785,5.371,5.394c0.604,0.495,1.23,0.912,1.864,1.316
			c1.048,1.047,2.245,1.959,3.474,2.776c1.991,1.315,4.106,2.483,6.219,3.6c2.164,1.131,4.277,2.348,6.514,3.306
			c2.605,1.105,5.259,1.954,7.964,2.753c4.817,1.412,9.82,2.102,14.76,2.925c5.064,0.847,10.128,1.572,15.264,1.758
			c2.538,0.085,5.073,0.235,7.607,0.358C130.229,411.23,130.137,411.321,130.04,411.41z M143.99,391.537
			c-0.213,1.295-0.507,2.561-0.94,3.806c-0.485,1.018-1.037,1.984-1.663,2.924c-0.409,0.48-0.841,0.93-1.309,1.353
			c-0.371,0.233-0.749,0.447-1.141,0.651c-0.994,0.342-1.991,0.57-3.018,0.76c-2.903,0.233-5.786,0.123-8.692,0.066
			c-3.22-0.075-6.427-0.013-9.635-0.161c-2.987-0.135-5.948-0.589-8.922-0.909c-3.073-0.336-6.148-0.651-9.211-1.037
			c-2.086-0.322-4.16-0.678-6.213-1.127c-1.831-0.407-3.6-0.958-5.362-1.554c0.294-0.04,0.591-0.076,0.883-0.116
			c3.663-0.515,7.19-1.497,10.656-2.764c3.748-1.376,7.423-3.097,11.011-4.854c2.9-1.426,5.801-2.828,8.726-4.204
			c2.57-1.217,5.212-2.299,7.829-3.416c-0.369,0.159-0.725,0.306-1.094,0.467c5.731-2.285,11.492-4.525,17.352-6.455
			c0.093,0.596,0.178,1.197,0.27,1.795C144.127,381.644,144.479,386.634,143.99,391.537z M362.694,408.247
			c1.277-2.824,2.652-5.61,3.997-8.416c1.315-2.74,2.544-5.531,3.871-8.271c0.129-0.267,0.256-0.548,0.385-0.825
			c2.073,0.945,4.127,1.924,6.082,3.098c2.668,1.598,5.225,3.306,7.755,5.113c3.946,2.812,7.701,5.881,11.694,8.628
			c-3.978-0.277-7.954-0.63-11.945-0.792c-2.876-0.11-5.751-0.196-8.64-0.208c-2.937,0-5.924,0.369-8.824,0.823
			C365.608,407.634,364.147,407.916,362.694,408.247z M465.027,438.693v-0.002c0.024-0.009,0.045-0.017,0.067-0.026
			C465.072,438.673,465.05,438.683,465.027,438.693z M480.51,392.331c2.191,3.027,4.259,6.134,6.313,9.253
			c1.131,1.72,2.273,3.429,3.416,5.125c1.51,2.239,3.059,4.448,4.23,6.876c0.216,0.6,0.398,1.195,0.539,1.807
			c0.017,0.442,0.013,0.877-0.011,1.314c-0.029,0.127-0.063,0.254-0.097,0.379c-0.083,0.157-0.173,0.309-0.266,0.459
			c-0.256,0.251-0.52,0.49-0.792,0.725c-1.614,1.102-3.3,2.022-5.08,2.832c-4.905,1.941-10.069,3.339-15.153,4.745
			c-4.24,1.18-8.64,1.867-12.646,3.773c-2.815,1.353-4.977,3.982-6.39,6.699c-0.972,1.88-1.709,3.981-2.237,6.046
			c-1.352,5.273-2.458,10.595-3.674,15.892c-1.243,5.433-3.011,10.778-4.806,16.051c-0.328,0.956-0.689,1.898-1.071,2.836
			c-0.656,1.397-1.374,2.723-2.253,3.984c-0.24,0.262-0.482,0.506-0.738,0.741c-0.804-0.196-1.572-0.468-2.355-0.773
			c-1.201-0.511-2.404-1.028-3.563-1.626c-1.843-0.946-3.625-1.954-5.406-3.012c-1.622-0.958-3.171-2.137-4.708-3.256
			c-1.26-0.913-2.503-1.852-3.745-2.791c-4.128-3.235-8.16-6.553-12.025-10.101c-3.883-3.563-7.768-7.153-11.724-10.644
			c-4.03-3.551-8.099-7.067-11.908-10.864c-3.995-3.969-7.939-7.976-11.897-11.982c-1.266-1.292-2.507-2.606-3.724-3.933
			c-0.991-1.075-1.912-2.202-2.834-3.338c0.531-0.077,1.059-0.156,1.589-0.233c8.759-1.048,17.625-0.989,26.44-0.914
			c4.179,0.036,8.369-0.234,12.548-0.234c2.434-0.012,4.855,0.037,7.287,0.05c3.294,0.036,6.502-0.54,9.71-1.18
			c0.652-0.132,1.227-0.435,1.713-0.846c0.028,0.001,0.058,0.001,0.086,0.003c2.077,0.024,4.154,0.11,6.219-0.037
			c3.994-0.282,7.583-1.818,10.938-3.908c5.149-3.22,9.5-7.399,13.765-11.675c4.364-4.387,8.246-9.217,11.897-14.207
			c1.096-1.495,2.128-3.036,3.179-4.566c1.464,1.653,2.979,3.251,4.475,4.888C477.411,388.509,478.984,390.402,480.51,392.331z
			 M462.762,283.126c2.485,2.392,4.697,5.003,6.839,7.688c1.322,1.8,2.643,3.6,3.956,5.411c2.57,3.507,5.107,6.972,6.943,10.917
			c0.683,1.804,1.251,3.627,1.782,5.479c0.433,1.492,0.691,3.019,0.915,4.542c0.134,1.913,0.191,3.794,0.203,5.707
			c0.01,1.725-0.179,3.459-0.369,5.175c-1.461,7.856-4.109,15.378-7.106,22.771c-2.541,5.453-5.417,10.678-8.502,15.845
			c-3.022,5.058-6.47,9.84-10.046,14.523c-5.158,6.32-10.78,12.223-17.028,17.465c-2.008,1.404-4.049,2.668-6.267,3.716
			c-0.734,0.254-1.463,0.456-2.22,0.618c-2.545,0.096-5.11-0.175-7.664-0.288c-1.608-0.072-3.204-0.163-4.808-0.304
			c-1.724-0.33-3.391-0.755-5.073-1.282c-1.568-0.485-3.093-1.087-4.609-1.706c-2.468-1.167-4.801-2.463-7.068-4.009
			c-2.348-1.598-4.621-3.294-6.907-4.977c-4.658-3.416-9.402-6.661-14.551-9.279c-5.617-2.851-11.626-4.794-17.625-6.673
			c-5.493-1.72-11.036-3.257-16.604-4.72c-5.653-1.474-11.282-3.047-16.898-4.682c-5.433-1.56-10.89-2.876-16.42-4.03
			c-5.874-1.217-11.724-2.556-17.587-3.872c-5.85-1.327-11.799-2.31-17.759-3.023c-11.971-1.426-23.966-1.609-35.998-1.402
			c-11.441,0.184-22.859,0.923-34.239,2.028c-6.107,0.589-12.216,1.168-18.312,1.892c-6.047,0.713-12.069,1.671-18.091,2.544
			c-5.492,0.799-11.085,1.463-16.492,2.766c-5.58,1.341-11.074,2.913-16.494,4.841c-6.993,2.472-13.852,5.175-20.659,8.112
			c-6.436,2.777-12.592,6.145-19.024,8.906c-4.191,1.681-8.429,2.892-12.888,3.563c-2.783,0.311-5.583,0.409-8.367,0.154
			c-1.088-0.203-2.127-0.479-3.166-0.855c-0.736-0.38-1.426-0.794-2.111-1.262c-3.394-2.823-6.183-6.33-8.954-9.738
			c-2.246-3.016-4.382-6.09-6.4-9.271c-2.126-3.38-4.154-6.833-6.194-10.275c-1.942-3.282-3.946-6.551-5.79-9.88
			c-1.069-1.942-2.125-3.871-3.195-5.801c-0.833-1.526-1.515-3.157-2.245-4.751c-0.543-1.417-1.08-2.842-1.614-4.258
			c-0.491-1.292-0.836-2.63-1.229-3.957c-0.973-3.339-1.707-6.753-2.24-10.191c-0.393-3.345-0.495-6.64-0.14-9.983
			c0.618-3.588,1.745-6.95,3.052-10.332c1.716-3.827,3.535-7.538,6.013-10.952c5.137-6.414,11.455-11.884,17.742-17.123
			c1.92-1.451,3.829-2.904,5.843-4.232c2.668-1.768,5.383-3.429,8.136-5.076c3.429-2.068,6.921-4.092,10.446-6.03
			c1.985-0.841,3.969-1.684,5.948-2.524c-0.491,0.208-0.984,0.418-1.475,0.626c4.105-1.695,8.173-3.452,12.179-5.345
			c3.686-1.731,7.32-3.522,11.053-5.144c5.107-1.972,10.283-3.729,15.469-5.474c5.224-1.758,10.397-3.663,15.658-5.346
			c5.383-1.72,10.729-3.502,16.062-5.371c2.766-0.972,5.531-1.979,8.346-2.815c2.913-0.872,5.838-1.671,8.774-2.47
			c4.13-1.119,8.247-2.224,12.427-3.147c4.264-0.934,8.504-1.99,12.782-2.887c4.547-0.946,9.144-1.609,13.752-2.299
			c4.185-0.63,8.368-1.268,12.563-1.888c3.981-0.462,7.949-0.779,11.969-0.913c2.298-0.075,4.633,0.049,6.931,0.098
			c2.213,0.037,4.413,0.075,6.612,0.173c4.731,0.184,9.414,0.663,14.109,1.143c4.348,0.435,8.717,0.602,13.055,1.057
			c5.34,0.787,10.661,1.73,15.949,2.862c5.764,1.229,11.466,2.815,17.17,4.315c5.591,1.462,11.147,2.974,16.676,4.645
			c5.531,1.684,10.988,3.589,16.506,5.297c5.542,1.708,11.074,3.514,16.579,5.345c5.31,1.758,10.668,3.393,15.99,5.1
			c10.766,3.467,21.282,7.503,31.745,11.78c3.427,1.557,6.758,3.246,10.065,5.071c3.318,1.843,6.588,3.81,9.881,5.702
			c6.865,3.946,13.473,8.244,19.912,12.843c0.63,0.485,1.256,0.974,1.886,1.459C457.19,277.932,459.995,280.482,462.762,283.126z
			 M495.819,222.614c-1.829,2.325-3.695,4.659-5.865,6.664c-2.282,2.125-4.606,4.139-7.025,6.078
			c-4.382,3.133-8.908,5.921-13.708,8.375c-2.495,1.278-5.1,2.334-7.644,3.514c-2.179,1.007-4.349,2.054-6.542,3.043
			c-1.599,0.638-3.209,1.207-4.863,1.712c-0.771,0.234-1.526,0.517-2.285,0.781c-0.2-0.007-0.38,0.05-0.575,0.065
			c-2.586-1.551-5.198-3.057-7.836-4.524c-4.806-2.677-9.548-5.448-14.413-8.019c2.713-2.113,5.203-4.492,7.292-7.287
			c1.881-2.507,3.208-5.175,4.413-8.062c1.402-3.404,1.893-7.177,2.077-10.827c0.021-0.403-0.001-0.814,0.001-1.221
			c0.978-0.297,1.88-0.788,2.771-1.338c1.118-0.676,2.236-1.376,3.343-2.077c1.991-1.241,3.969-2.519,5.96-3.761
			c4.449-2.777,8.775-5.677,12.953-8.848c0.757-0.572,1.49-1.17,2.24-1.75c0.869,0.21,1.711,0.477,2.555,0.814
			c0.91,0.386,1.822,0.774,2.739,1.162c-0.273-0.116-0.54-0.233-0.809-0.348c2.347,0.996,4.731,1.72,7.202,2.372
			c1.7,0.447,3.346,1.002,4.985,1.649c2.566,1.203,5.118,2.464,7.637,3.758c2.436,1.257,4.792,2.535,7.023,4.109
			c1.609,1.386,3.09,2.93,4.492,4.529C500.332,216.57,498.066,219.609,495.819,222.614z"/>
	</g>
</g>
<g>
</g>
<g>
</g>
<g>
</g>
<g>
</g>
<g>
</g>
<g>
</g>
<g>
</g>
<g>
</g>
<g>
</g>
<g>
</g>
<g>
</g>
<g>
</g>
<g>
</g>
<g>
</g>
<g>
</g>
</svg>
