<?xml version="1.0" encoding="iso-8859-1"?>
<!-- Generator: Adobe Illustrator 19.0.0, SVG Export Plug-In . SVG Version: 6.00 Build 0)  -->
<svg version="1.1" id="Layer_1" xmlns="http://www.w3.org/2000/svg" xmlns:xlink="http://www.w3.org/1999/xlink" x="0px" y="0px"
	 viewBox="0 0 512.002 512.002" style="enable-background:new 0 0 512.002 512.002;" xml:space="preserve">
<g>
	<g>
		<path d="M24.508,133.439c-0.022-0.053-0.043-0.103-0.065-0.154c0.017,0.04,0.031,0.08,0.047,0.119
			c0.085,0.201,0.169,0.401,0.254,0.598C24.665,133.817,24.587,133.627,24.508,133.439z"/>
	</g>
</g>
<g>
	<g>
		<path d="M148.968,91.356c-0.236-0.836-0.709-1.865-1.391-2.435c-1.32-1.112-2.671-1.933-4.298-2.503
			c-0.508-0.175-1.021-0.236-1.535-0.236c-0.587,0-1.176,0.079-1.761,0.153c-0.836,0.112-1.614,0.334-2.394,0.627
			c-1.878,0.736-3.338,1.975-4.326,3.756c-1.175,2.118-1.015,4.488-0.097,6.585c0.053,0.209,0.117,0.417,0.196,0.621
			c0.588,1.506,1.66,2.7,3.034,3.489c1.395,0.99,3.082,1.374,4.739,1.161c0.209-0.003,0.422-0.014,0.628-0.033
			c0.738-0.069,1.725-0.223,2.351-0.667c0.376-0.25,0.723-0.515,1.071-0.793c0.459-0.459,0.835-0.974,1.238-1.488
			c0.599-0.792,1.029-1.795,1.446-2.699c0.431-0.946,0.877-1.919,1.085-2.948C149.106,93.109,149.205,92.177,148.968,91.356z"/>
	</g>
</g>
<g>
	<g>
		<path d="M356.917,482.781c-0.171,0.227-0.343,0.455-0.519,0.68c0.334-0.433,0.669-0.864,1.001-1.308
			C357.238,482.364,357.079,482.572,356.917,482.781z"/>
	</g>
</g>
<g>
	<g>
		<path d="M332.77,447.321c-0.282-1.266-1.018-2.503-1.699-3.588c-0.667-1.071-1.573-2.046-2.505-2.893
			c-0.958-0.863-2.268-1.781-3.532-2.1c-0.71-0.209-1.433-0.348-2.169-0.39c-0.161-0.01-0.32-0.014-0.48-0.014
			c-0.796,0-1.56,0.108-2.373,0.236c-1.003,0.153-2.058,0.738-2.935,1.266c-1.251,0.752-2.323,1.892-3.157,3.089
			c-0.71,1.017-1.336,2.133-1.799,3.308c-1.505,1.532-2.459,3.786-1.777,5.929c0.376,1.14,0.835,2.114,1.517,3.101
			c0.877,1.252,1.961,2.141,3.186,3.033c0.987,0.736,2.197,1.126,3.31,1.599c0.667,0.279,1.377,0.487,2.058,0.695
			c2.197,0.681,4.577,1.098,6.704,0.055c2.254-1.098,3.714-3.269,4.703-5.509c0.444-1.015,0.847-2.003,1.098-3.075
			C333.298,450.465,333.118,448.907,332.77,447.321z"/>
	</g>
</g>
<g>
	<g>
		<path d="M445.471,441.785c-0.614-0.796-1.1-1.408-1.838-2.035c-1.083-0.904-2.42-1.821-3.811-2.169
			c-1.075-0.263-2.132-0.402-3.174-0.402c-1.65,0-3.266,0.347-4.879,1.098c-3.672,1.698-6.441,5.382-7.023,9.403
			c-0.237,1.642-0.32,2.378,0,4.007c0.193,0.938,0.551,1.721,1.026,2.46c0.037,0.089,0.076,0.176,0.114,0.265
			c0.542,0.807,1.083,1.571,1.808,2.24c0.681,0.625,1.447,1.112,2.268,1.531c1.975,0.987,4.229,1.334,6.427,1.238
			c2.058-0.083,4.451-0.487,6.301-1.474c1.795-0.946,3.172-2.42,4.118-4.201C448.768,450.047,447.947,445.053,445.471,441.785z"/>
	</g>
</g>
<g>
	<g>
		<path d="M265.076,321.809c0.021,0.157,0.04,0.313,0.06,0.472c0.05,0.358,0.096,0.716,0.148,1.072
			C265.214,322.838,265.144,322.323,265.076,321.809z"/>
	</g>
</g>
<g>
	<g>
		<g>
			<path d="M25.153,134.971c-0.038-0.091-0.075-0.179-0.112-0.269c-0.007-0.016-0.014-0.033-0.021-0.049
				C25.066,134.76,25.11,134.865,25.153,134.971z"/>
			<path d="M509.846,489.236c-1.283-1.293-3.299-2.202-5.23-2.202c-0.645,0-1.281,0.101-1.878,0.325
				c-0.625,0.232-1.284,0.369-1.944,0.477c-6.181,0.705-12.443,0.721-18.641,1.011c-6.398,0.305-12.783,0.305-19.182,0.347
				c-1.219,0.006-2.44,0.031-3.66,0.039c2.37-1.706,4.606-3.602,6.765-5.545c2.378-2.143,4.326-4.771,6.149-7.386
				c1.585-2.268,3.004-4.66,4.366-7.08c1.557-2.768,2.685-5.787,3.896-8.722c1.085-2.6,2.058-5.23,2.81-7.956
				c0.709-2.643,1.168-5.396,1.724-8.081c0.612-2.949,1.128-5.968,1.294-8.986c0.182-3.505,0.015-6.983-0.499-10.46
				c-0.32-2.212-1.392-4.521-2.338-6.538c-0.599-1.294-1.28-2.531-2.003-3.77c-2.114-3.641-4.778-6.936-7.963-9.647
				c0.229-0.259,0.459-0.517,0.678-0.785c1.1-1.377,2.212-2.727,3.338-4.076c2.254-2.685,4.563-5.355,6.649-8.178
				c2.032-2.768,3.979-5.549,5.647-8.568c1.571-2.851,3.019-5.786,4.423-8.75c2.99-6.273,5.59-12.741,7.205-19.515
				c1.642-6.858,2.42-13.869,3.089-20.879c0.333-3.645,0.542-7.331,0.473-10.988c-0.125-5.453-1.294-10.683-2.976-15.83
				c-0.641-1.975-1.474-3.896-2.394-5.758c-0.667-1.363-1.67-2.74-2.824-3.742c-1.336-1.154-2.503-1.821-4.201-2.406
				c-0.949-0.316-1.956-0.463-2.972-0.571c0.028-0.226,0.064-0.451,0.09-0.677c0.348-2.073,0.886-4.059,1.639-6.009
				c0.56-1.301,1.136-2.593,1.692-3.897c0.569-1.322,1.154-2.643,1.655-4.007c0.75-2.086-0.14-4.326-1.474-5.925
				c-0.936-1.104-2.502-1.857-3.725-2.699c-3.392-2.734-6.651-5.753-9.425-9.106c-1.086-1.499-2.046-3.05-2.839-4.733
				c-1.308-3.53-1.997-7.172-2.557-10.879c-0.236-3.224-0.316-6.411-0.261-9.637c0.055-2.935,0.277-5.857,0.402-8.777
				c0.126-3.227,0.265-6.441,0.251-9.668c-0.014-2.948-0.555-5.995-1.835-8.651c-0.501-1.001-1.462-1.642-2.351-2.24
				c-1.351-0.904-2.893-0.821-4.395-0.584c-0.312,0.053-0.607,0.15-0.896,0.269c-3.159-0.609-6.326-1.431-9.32-2.575
				c-1.354-0.653-2.606-1.387-3.837-2.252c-1.537-1.311-2.919-2.734-4.205-4.305c-1.204-1.695-2.215-3.444-3.093-5.321
				c-0.975-2.564-1.621-5.149-2.129-7.85c-0.515-2.796-0.653-5.815-3.449-7.456c-1.947-1.128-4.215-0.987-6.19-0.042
				c-0.736,0.348-1.46,0.695-2.183,1.029c-1.157,0.54-2.313,1.05-3.478,1.557c-3.1,1.205-6.287,2.127-9.567,2.685
				c-3.083,0.288-6.201,0.276-9.282-0.05c-2.184-0.386-4.302-0.936-6.381-1.72c-1.935-0.918-3.713-1.979-5.446-3.209
				c-1.512-1.262-2.95-2.614-4.377-3.991c-0.458-0.445-0.932-0.904-1.39-1.349c-1.836-1.781-3.797-3.144-6.442-3.172
				c-0.017,0-0.033,0-0.051,0c-3.432,0-6.836,2.757-7.363,6.203c-0.291,1.962-0.472,3.908-0.612,5.885
				c-0.487,6.857-0.75,13.729-1.223,20.601c-0.473,6.886-1.044,13.772-1.363,20.67c-0.139,3.324-0.028,6.718,0.057,10.042
				c0.096,3.56,0.151,7.135,0.319,10.683c0.208,4.646,0.515,9.278,1.043,13.896c0.33,2.844,0.609,5.701,0.82,8.563
				c-2.81-0.412-5.663-0.603-8.496-0.621c-2.154-0.013-4.315-0.055-6.479-0.057c-0.631,0-1.262,0.004-1.893,0.014
				c-5.843,0.097-11.7,0.264-17.54,0.404c-2.782,0.069-5.55,0.223-8.332,0.39c-1.405,0.085-2.824,0.334-4.215,0.501
				c-1.738,0.208-3.449,0.542-5.173,0.849c-2.56,0.459-5.091,1.085-7.608,1.753c-2.517,0.653-5.063,1.294-7.527,2.141
				c-4.38,1.502-8.705,3.116-12.991,4.883c-2.489,1.029-4.965,2.086-7.414,3.186c-4.229,1.878-7.844,4.757-11.336,7.775
				c-3.213,2.768-6.205,5.717-9.098,8.833c-1.114,1.183-2.283,2.281-3.492,3.366c-0.348,0.319-0.723,0.639-1.043,0.987
				c-1.058,1.155-1.767,2.517-1.781,4.131c-0.003,0.395,0.033,0.761,0.101,1.109c-0.492,0.024-0.986,0.085-1.483,0.087
				c-2.281,0.014-4.561-0.111-6.829-0.236c-0.512-0.029-1.003,0.047-1.478,0.165c-1.813-1.449-3.641-2.881-5.488-4.295
				c-2.048-1.618-4.082-3.249-6.19-4.789c1.348-1.513,2.073-3.426,2.674-5.341c0.473-1.516,0.599-3.283,0.752-4.84
				c0.096-0.904,0.166-1.765,0.111-2.671c-0.097-1.349-0.459-2.614-0.821-3.908c-0.404-1.46-1.128-2.893-1.71-4.284
				c-0.892-2.087-2.184-3.951-3.631-5.717c-1.682-2.046-3.518-4.019-5.509-5.758c-2.545-2.225-5.41-3.672-8.499-4.939
				c-3.344-1.379-6.876-1.821-10.432-1.821c-1.754,0-3.512,0.108-5.258,0.264c-0.562,0.053-1.114,0.175-1.674,0.248
				c0.201-0.854,0.395-1.883,0.372-2.602c-0.014-0.279-0.014-0.556-0.028-0.821c0-1.14-0.277-2.183-0.847-3.157
				c-0.307-0.667-0.781-1.225-1.28-1.767c-1.183-1.252-2.853-1.808-4.438-2.323c-2.6-0.835-5.202-1.767-7.747-2.754
				c-1.168-0.444-2.327-0.904-3.485-1.379c-2.714-1.201-5.416-2.428-8.117-3.642c-2.6-1.183-5.271-2.281-7.83-3.575
				c-5.396-2.713-10.571-5.744-15.717-8.929c-3.197-1.99-6.418-3.914-9.629-5.857c0.337-1.377,0.203-2.847-0.646-4.044
				c-1.155-1.642-2.032-3.464-2.976-5.23c-1.197-2.268-2.434-4.506-3.616-6.773c-1.322-2.531-2.699-5.034-3.951-7.608
				c-1.175-2.427-2.23-4.903-3.276-7.381c-1.856-4.538-3.775-9.049-5.808-13.511c-0.315-0.685-0.918-1.259-1.599-1.706
				c0.262-1.402,0.38-2.844,0.562-4.224c0.422-3.259,0.799-6.517,1.141-9.775c0.747-0.147,1.505-0.25,2.249-0.412
				c2.685-0.57,5.258-1.698,7.789-2.713c2.643-1.071,5.328-2.157,7.789-3.575c2.616-1.488,5.19-3.13,7.497-5.05
				c1.99-1.67,3.785-3.548,5.425-5.55c1.989-2.434,3.492-5.077,4.646-7.998c0.847-2.17,1.336-4.466,1.906-6.719
				c0.599-2.42,1.183-4.826,1.906-7.205c0.348-1.128,0.723-2.24,1.043-3.366c0.198-0.7,0.358-1.417,0.524-2.134
				c0.272-0.062,0.545-0.133,0.811-0.216c1.28-0.39,2.505-0.987,3.7-1.573c1.128-0.556,2.198-1.251,3.269-1.89
				c2.489-1.517,5.091-3.102,6.259-5.898c1.058-2.573,1.391-5.689,0.655-8.374c-0.655-2.366-1.684-4.646-3.172-6.593
				c-1.502-1.989-3.435-3.31-5.62-4.466c-0.896-0.473-1.838-0.878-2.807-1.191c0.015-0.743,0.061-1.483,0.123-2.23
				c0.18-2.392,0.417-4.771,0.641-7.163c0.409-4.613-0.117-9.267-0.791-13.858c1.467-1.646,2.391-3.609,3.226-5.657
				c0.836-2.058,1.295-4.075,1.337-6.328c0.139-6.023-2.964-12.282-7.608-16.065c-0.606-0.501-1.232-0.972-1.867-1.445
				c-0.481-0.37-0.965-0.738-1.455-1.103c-0.269-0.207-0.541-0.413-0.811-0.623c0.183,0.143,0.363,0.282,0.544,0.422
				c-0.014-0.011-0.028-0.021-0.042-0.031c0.096,0.075,0.191,0.148,0.286,0.222c-1.118-0.849-2.247-1.648-3.423-2.401
				c-2.557-2.373-5.375-4.552-8.241-6.459c-2.753-1.85-5.509-3.686-8.359-5.37c-2.879-1.698-5.801-3.269-8.778-4.84
				c-3.896-2.044-8.04-3.672-12.268-4.897c-2.797-0.806-5.647-1.377-8.485-1.961c-3.52-0.738-7.052-1.363-10.614-1.781
				c-1.738-0.196-3.463-0.39-5.201-0.585c-1.754-0.208-3.5-0.298-5.244-0.298c-3.473,0-6.933,0.355-10.406,0.828
				c-4.353,0.598-8.639,1.739-12.797,3.158c-4.758,1.642-9.488,3.839-13.784,6.468c-4.033,2.477-7.693,5.703-10.96,9.126
				c-3.464,3.603-6.427,7.747-8.888,12.102c-1.571,2.796-2.81,5.857-3.811,8.916c-1.098,3.409-1.336,7.122-1.571,10.683
				c-0.362,5.523,0.473,10.976,1.585,16.372c0.874,4.272,1.709,8.52,2.326,12.834c0.27,2.438,0.585,4.898,0.398,7.36
				c-0.144,0.567-0.304,1.109-0.492,1.652c-0.454,0.857-0.969,1.661-1.519,2.459c-4.213,5.235-9.661,9.463-12.34,15.784
				c-0.958,2.268-1.405,4.507-1.724,6.941c-0.279,2.24,0.111,4.535,0.612,6.704c0.71,2.964,2.1,5.746,3.323,8.514
				c-0.024-0.06-0.047-0.121-0.072-0.18c-0.083-0.197-0.165-0.393-0.248-0.585c0.067,0.154,0.133,0.311,0.201,0.466
				c-0.119-0.29-0.244-0.584-0.367-0.883c0.144,0.343,0.287,0.691,0.433,1.037c0.096,0.227,0.191,0.453,0.287,0.681
				c0.079,0.191,0.16,0.382,0.24,0.573c0.168,0.397,0.337,0.794,0.503,1.189c-0.046-0.107-0.093-0.215-0.141-0.322
				c0.717,1.71,1.227,3.464,1.576,5.277c0.122,1.334,0.132,2.641,0.022,3.975c-0.875,4.573-2.997,8.685-4.394,13.102
				c-1.162,3.639-1.969,7.382-3.317,10.956c-1.2,2.507-2.743,4.76-4.194,7.127c-0.515,0.849-1.043,1.698-1.557,2.545
				c-1.098,1.793-1.878,3.77-2.697,5.717c-1.921,4.549-2.046,9.751-0.237,14.355c1.043,2.657,2.462,4.812,4.367,6.955
				c1.724,1.962,4.144,3.464,6.467,4.618c2.566,1.283,5.244,2.08,7.99,2.614c0.739,6.065,1.071,12.164,1.216,18.251
				c0.166,6.704,0.388,13.396,0.556,20.1c0.069,3.297,0.055,6.579,0.028,9.876c-0.028,3.227-0.263,6.441-0.431,9.653
				c-0.277,5.885-1.044,11.74-1.488,17.597c-0.501,6.579-0.96,13.159-1.336,19.752c-0.362,6.26-0.599,12.533-1.071,18.792
				c-0.501,6.579-1.057,13.159-1.71,19.724c-0.625,6.217-1.419,12.407-2.127,18.61c-0.71,6.273-1.252,12.561-1.754,18.862
				c-0.222,2.865-0.487,5.731-0.612,8.61c-0.04,1.308-0.151,2.657,0,3.964c0.112,0.918,0.195,1.85,0.419,2.754
				c0.306,1.294,1.306,2.851,2.212,3.811c1.766,1.836,3.825,2.921,6.314,3.449c2.324,0.487,4.8,0.57,7.149,0.779
				c1.613,0.14,3.241,0.14,4.842,0.208c2.878,0.111,5.772,0.069,8.637,0.014c0.279-0.006,0.558-0.024,0.838-0.029
				c-0.114,0.939-0.221,1.878-0.336,2.818c-0.563,3.922-1.215,7.83-1.954,11.727c-0.792,4.244-1.975,8.388-3.186,12.505
				c-2.388,8.092-4.805,16.146-7.772,24.028c-2.234,5.011-4.726,9.893-6.861,14.934c-2.129,5.022-4.423,9.945-6.872,14.827
				c-0.508,1.018-0.976,2.044-1.268,3.102c-5.95,0.078-11.898,0.227-17.834,0.635c-2.63,0.194-4.826,2.073-4.826,4.84
				c0,0.237,0.037,0.472,0.076,0.707c-0.037,0.105-0.115,0.175-0.146,0.288c-0.556,2.058,0.681,4.688,2.907,5.118
				c5.592,1.071,11.267,1.614,16.957,1.921c5.342,0.291,10.683,0.779,16.038,0.987c10.766,0.404,21.56,0.307,32.339,0.362
				c10.669,0.069,21.352,0.319,32.02,0.946c2.63,0.153,5.273,0.445,7.901,0.641c2.642,0.194,5.287,0.263,7.943,0.305
				c5.342,0.097,10.697-0.055,16.038-0.319c10.571-0.528,21.128-0.807,31.687-1.587c10.182-0.736,20.377-1.975,30.587-2.24
				c6.205-0.153,12.407-0.153,18.612-0.139c4.256,0,8.525,0,12.783-0.055c5.355-0.055,10.711-0.153,16.066-0.348
				c5.259-0.166,10.501-0.556,15.747-0.863c5.398-0.307,10.809-0.293,16.206-0.334c1.851-0.014,3.702-0.039,5.552-0.065
				c4.233-0.022,8.465-0.032,12.698,0.058c6.191,0.14,12.381,0.473,18.572,0.515c12.518,0.097,25.023,0.599,37.541,0.417
				c13.075-0.18,26.137-0.849,39.225-0.946c2.56-0.014,5.118,0,7.678,0.014c3.631,0.014,7.276,0.029,10.905-0.042
				c6.26-0.097,12.507-0.347,18.752-0.515c13.032-0.362,26.052-0.404,39.086-0.362c7.08,0.014,14.161,0.069,21.24,0.028
				c3.227-0.028,6.441,0.042,9.668,0.111c1.654,0.028,3.297,0.028,4.951,0.028c0.877,0,1.739,0.014,2.616,0.042
				c0.75,0.014,1.502,0.139,2.254,0.042c0.639-0.085,1.294-0.18,1.933-0.265c1.238-0.347,2.323-0.974,3.227-1.878
				c1.363-1.363,2.143-3.241,2.143-5.174C511.988,492.477,511.209,490.598,509.846,489.236z M481.243,282.95
				c-0.448,0.892-0.9,1.782-1.334,2.678c-1.155,2.365-2.032,4.771-2.74,7.289c-0.133,0.471-0.263,0.946-0.386,1.422
				c-0.029,0-0.06-0.001-0.089-0.001c-4.517,0-9.037,0.203-13.55,0.387c-6.482,0.263-12.964,0.376-19.433,0.863
				c-9.232,0.68-18.452,1.559-27.676,2.403c0.643-0.214,1.281-0.441,1.926-0.649c8.109-2.6,16.386-4.577,24.55-6.983
				c2.309-0.667,4.618-1.405,6.955-1.975c2.323-0.556,4.66-0.987,7.025-1.405c4.539-0.803,9.04-1.811,13.601-2.508
				c1.939-0.248,3.879-0.478,5.817-0.72C477.687,283.531,479.484,283.32,481.243,282.95z M467.083,208.025
				c-0.266-0.035-0.534-0.071-0.802-0.107c-0.024-0.004-0.046-0.008-0.069-0.014C466.5,207.946,466.79,207.987,467.083,208.025z
				 M465.138,208.014c-0.003,0.001-0.008,0.003-0.011,0.004c-0.061,0.008-0.122,0.017-0.186,0.021
				C465.008,208.031,465.073,208.023,465.138,208.014z M463.746,252.733c0.696,4.173,1.544,8.235,3.352,12.116
				c1.907,4.051,4.76,7.656,7.912,10.859c-1.729,0.187-3.462,0.395-5.192,0.616c-4.341,0.556-8.625,1.446-12.922,2.254
				c-2.032,0.376-4.09,0.599-6.12,1.003c-2.198,0.417-4.341,0.987-6.484,1.599c-4.158,1.168-8.289,2.42-12.462,3.532
				c-3.226,0.863-6.467,1.698-9.68,2.643c-3.714,1.112-7.4,2.294-11.071,3.532c-3.352,1.141-6.718,2.268-10.07,3.421
				c-1.211,0.412-2.398,0.871-3.595,1.312c4.231-4.986,8.647-9.8,13.36-14.35c3.297-3.186,6.552-6.385,9.667-9.737
				c2.978-3.213,5.76-6.579,8.54-9.959c5.536-6.718,12.256-12.324,18.291-18.583c5.749-5.93,11.012-12.297,16.562-18.408
				c-0.021,0.485-0.039,0.972-0.06,1.458c-0.111,2.768-0.291,5.521-0.487,8.275C462.869,240.478,462.731,246.612,463.746,252.733z
				 M434.257,195.459c0.187,0.517,0.358,1.037,0.569,1.549c1.28,3.102,2.825,5.9,4.869,8.542c2.42,3.13,5.147,5.703,8.403,7.97
				c1.322,0.904,2.808,1.544,4.27,2.169c1.571,0.655,3.129,1.266,4.769,1.725c0.936,0.259,1.87,0.51,2.803,0.76
				c-1.835,1.992-3.656,3.996-5.41,6.049c-3.075,3.575-6.12,7.151-9.25,10.655c-2.851,3.2-5.897,6.217-8.972,9.223
				c-1.544,1.502-3.101,2.99-4.66,4.493c-1.587,1.502-3.115,3.089-4.646,4.66c-1.306,1.349-2.545,2.81-3.769,4.242
				c-1.587,1.836-3.186,3.659-4.8,5.466c-2.976,3.338-6.19,6.441-9.431,9.514c-3.156,3.004-6.453,5.857-9.639,8.819
				c-0.824,0.767-1.58,1.599-2.388,2.38c0.506-1.043,0.976-2.108,1.49-3.145c1.67-3.38,3.394-6.732,4.939-10.155
				c1.613-3.588,3.172-7.191,4.743-10.779c3.367-7.665,6.927-15.26,10.377-22.882c3.381-7.484,6.427-15.134,9.264-22.84
				C430.041,207.779,432.131,201.611,434.257,195.459z M389.466,219.876c0.445-7.511,1.197-14.995,1.614-22.506
				c0.146-2.659,0.244-5.319,0.326-7.979c2.523,1.589,5.222,2.82,8.019,3.889c3.797,1.446,8.026,1.962,12.059,2.212
				c5.861,0.347,11.626-0.674,17.118-2.6c-1.987,5.679-3.975,11.374-5.962,17.061c-1.832,5.249-3.847,10.431-5.916,15.611
				c-1.417,3.345-2.842,6.708-4.349,10.012c-1.656,3.616-3.34,7.219-5.022,10.808c-1.766,3.783-3.532,7.567-5.273,11.35
				c-1.627,3.52-3.255,7.038-5.062,10.46c-2.164,4.084-4.421,8.112-6.657,12.15c0.078-2.53,0.157-5.059,0.216-7.583
				c0.071-3.574-0.14-7.122-0.362-10.683c-0.223-3.269-0.625-6.524-0.779-9.793c-0.153-3.518-0.265-7.038-0.279-10.557
				C389.134,234.44,389.049,227.152,389.466,219.876z M277.051,302.485c3.517-3.401,7.258-6.639,11.105-9.669
				c1.871-1.348,3.794-2.542,5.851-3.614c0.947-0.487,1.933-0.904,2.893-1.363c1.619-0.778,3.295-1.474,4.955-2.184
				c5.093-2.061,10.185-4.13,15.464-5.661c2.921-0.849,5.869-1.793,8.861-2.42c1.462-0.307,2.921-0.612,4.396-0.904
				c1.04-0.218,2.109-0.345,3.175-0.474c6.546-0.485,13.105-0.596,19.666-0.624c3.603-0.014,7.205-0.014,10.808,0.014
				c3.498,0.026,7.034,0.04,10.537,0.406c0.673,0.115,1.338,0.258,2.005,0.402c0.007,3.402,0.01,6.804,0.029,10.21
				c0.014,2.058,0.028,4.118-0.042,6.19c-0.075,2.247-0.251,4.46-0.447,6.689c-0.096,0.549-0.205,1.093-0.305,1.639
				c-4.023,0.243-8.049,0.459-12.076,0.602c-0.279,0.01-0.555,0.019-0.832,0.029c-0.329-0.019-0.655-0.054-0.983-0.068
				c-1.157-0.04-2.309-0.06-3.462-0.06c-1.602,0-3.205,0.036-4.815,0.103c-5.147,0.208-10.264,0.736-15.411,0.876
				c-5.384,0.139-10.768,0.236-16.136,0.528c-0.815,0.049-1.63,0.122-2.444,0.186c-0.099,0-0.197-0.007-0.294-0.008
				c-0.678-0.008-1.358-0.013-2.037-0.013c-3.646,0-7.294,0.114-10.941,0.207c-4.23,0.125-8.416,0.417-12.63,0.793
				c-4.229,0.376-8.499,0.39-12.727,0.766c-2.459,0.214-4.912,0.466-7.367,0.718C274.872,304.639,275.94,303.552,277.051,302.485z
				 M262.189,332.651c1.251-1.474,2.058-2.964,2.698-4.785c0.667-1.835,0.494-3.718,0.255-5.593c-0.055-0.408-0.118-0.814-0.2-1.222
				c-0.029-0.153-0.107-0.297-0.148-0.448c3.147-0.286,6.288-0.61,9.442-0.901c5.425-0.501,10.822-1.112,16.218-1.793
				c1.832-0.233,3.667-0.48,5.5-0.724c4.362-0.141,8.722-0.309,13.075-0.684c6.747-0.57,13.465-1.306,20.211-1.822
				c6.955-0.528,13.91-0.877,20.879-0.987c6.719-0.097,13.424-0.112,20.14-0.251c7.038-0.153,14.064-0.459,21.087-0.766
				c6.246-0.277,12.492-0.542,18.737-0.875c6.844-0.348,13.661-0.849,20.504-1.322c5.521-0.39,11.044-0.752,16.58-0.946
				c5.327-0.182,10.655-0.265,15.982-0.417c5.244-0.139,10.501-0.251,15.759-0.264c1.183,0,2.365,0,3.548,0
				c1.571,0,3.156,0.014,4.743-0.014c0.896-0.011,1.799-0.014,2.689-0.053c0.456,0.829,0.86,1.684,1.251,2.55
				c1.202,3.061,2.168,6.135,2.689,9.395c0.71,6.958-0.103,13.994-0.956,20.909c-0.596,3.765-1.276,7.468-2.229,11.157
				c-0.874,3.352-2.079,6.563-3.342,9.772c-1.89,4.172-3.918,8.256-6.074,12.288c-1.98,3.697-4.316,7.095-6.819,10.425
				c-2.036,2.427-4.083,4.825-6.173,7.199c-0.958,1.085-1.919,2.17-2.879,3.269c-0.709,0.793-1.571,1.682-2.114,2.587
				c-0.123,0.215-0.219,0.47-0.326,0.709c-1.614-0.588-3.265-1.071-4.962-1.376c-4.158-1.313-8.579-1.796-12.894-2.212
				c-0.96-0.094-1.928-0.137-2.896-0.137c-1.63,0-3.262,0.122-4.867,0.331c-2.63,0.334-5.273,0.625-7.873,1.155
				c-3.951,0.821-7.762,2.365-11.364,4.159c-3.075,1.53-5.869,3.52-8.526,5.689c-4.799,3.922-9.235,8.318-12.573,13.59
				c-1.462,2.295-2.699,4.702-3.756,7.219c-1.294,3.047-2.505,6.093-3.352,9.292c-0.729,2.731-1.301,5.527-1.724,8.346
				c-0.173-0.014-0.347-0.071-0.52-0.071c-0.539,0-1.078,0.074-1.614,0.219c-1.564,0.222-3.107,0.596-4.667,0.863
				c-2.053,0.211-4.12,0.312-6.167,0.515c-1.66,0.172-3.301,0.232-4.941,0.229c0.003-0.035,0.008-0.071,0.01-0.105
				c0.223-2.851,0.195-5.661,0.043-8.499c-0.097-1.836-0.417-3.797-0.793-5.592c-0.319-1.559-0.723-3.073-1.154-4.618
				c-0.947-3.324-2.517-6.565-3.882-9.737c-1.28-3.018-3.283-5.466-5.342-8.012c-3.7-4.604-8.291-8.764-13.659-11.295
				c-2.948-1.377-5.995-2.74-9.139-3.589c-3.267-0.89-6.746-1.279-10.126-1.349c-0.223-0.003-0.447-0.006-0.67-0.006
				c-3.206,0-6.46,0.37-9.582,1.007c-3.297,0.695-6.467,1.571-9.431,3.2c-1.029,0.57-2.003,1.238-2.948,1.919
				c-1.419,1.015-2.853,2.073-4.159,3.227c-1.892,1.656-3.421,3.589-5.007,5.523c-0.021,0.025-0.042,0.051-0.062,0.075
				c-1.152,0.976-2.28,1.99-3.401,3.012c-3.771,3.432-7.084,7.344-10.073,11.479c-0.828-0.657-1.7-1.268-2.559-1.865
				c-1.294-0.918-2.586-1.781-3.964-2.588c-3.155-1.863-6.249-3.786-9.219-5.94c-2.202-1.826-4.186-3.862-6.263-5.855
				c-2.288-2.202-4.467-4.416-6.466-6.865c-1.512-2.187-2.936-4.424-4.258-6.739c-1.283-2.25-2.362-4.581-3.387-6.944
				c-2.394-5.976-4.628-12.045-6.169-18.303c-1.512-6.088-2.453-12.324-3.326-18.547c-0.519-5.281-0.431-10.547-0.19-15.827
				c1.301,0.839,2.627,1.634,4.039,2.33c1.392,0.696,2.865,1.377,4.396,1.711c1.28,0.279,2.586,0.473,3.896,0.584
				c1.668,0.14,3.421-0.208,5.062-0.515c1.1-0.196,2.143-0.459,3.186-0.89C258.128,336.227,260.408,334.711,262.189,332.651z
				 M244.773,316.039c2.75,2.1,5.595,4.22,7.801,6.897c0.426,0.573,0.831,1.161,1.175,1.786c0.051,0.175,0.1,0.352,0.144,0.53
				c0.001,0.101,0.001,0.201,0,0.301c-0.075,0.072-0.15,0.143-0.226,0.214c-0.569,0.379-1.161,0.72-1.768,1.032
				c-1.121,0.38-2.266,0.649-3.438,0.85c-1.054,0.079-2.091,0.043-3.145-0.04c-1.308-0.263-2.563-0.691-3.801-1.175
				c-2.352-1.14-4.579-2.403-6.678-3.972c-2.001-1.478-3.996-2.946-5.966-4.449c-2.309-1.842-4.588-3.713-6.93-5.518
				c-2.129-1.664-3.929-3.588-5.688-5.651c-1.98-2.326-4.016-4.611-5.927-7.006c-1.123-1.442-2.277-2.868-3.424-4.297
				c0.068-0.021,0.133-0.043,0.201-0.062c1.599-0.474,3.252-0.764,4.894-1.062c1.867-0.23,3.728-0.391,5.604-0.347
				c0.32,0.071,0.634,0.153,0.949,0.252c0.953,0.494,1.842,1.087,2.704,1.729c0.433,0.433,0.874,0.858,1.287,1.308
				c0.96,1.071,1.947,2.115,2.964,3.13c0.987,0.96,1.821,2.073,2.796,3.047c1.874,1.899,4.224,3.331,6.393,4.905
				C237.988,311.063,241.389,313.526,244.773,316.039z M233.655,290.238c0.071-0.165,0.14-0.33,0.207-0.494
				c-0.053,0.169-0.118,0.329-0.194,0.484c-0.004,0.003-0.007,0.006-0.011,0.01C233.658,290.236,233.657,290.238,233.655,290.238z
				 M201.932,269.723c0.856,0.058,1.734-0.055,2.571-0.398c0.789-0.232,1.564-0.451,2.365-0.609c0.922-0.078,1.835-0.08,2.776-0.047
				c1.384,0.049,2.789,0.055,4.17,0.191c1.673,0.282,3.32,0.666,4.925,1.222c2.211,1.122,4.371,2.362,6.395,3.808
				c2.252,1.849,4.424,3.786,6.287,6.034c0.82,1.195,1.501,2.459,2.143,3.76c0.223,0.602,0.426,1.2,0.581,1.825
				c0.031,1.025-0.031,2.026-0.14,3.041c-0.119,0.594-0.266,1.169-0.441,1.745c-0.043,0.028-0.087,0.054-0.13,0.08
				c-0.161,0.043-0.322,0.08-0.485,0.115c-0.319,0.024-0.637,0.036-0.958,0.037c-0.46-0.112-0.911-0.244-1.355-0.401
				c-0.392-0.209-0.76-0.441-1.122-0.696c-0.613-0.505-1.218-1.023-1.843-1.527c-1.738-1.391-3.477-2.545-5.564-3.38
				c-3.492-1.391-7.651-0.695-11.253-0.028c-2.628,0.487-5.147,1.225-7.65,2.157c-2.453,0.931-4.807,1.997-7.352,2.606
				c-1.162,0.039-2.308-0.09-3.463-0.23c-0.625-0.101-1.236-0.245-1.845-0.405c1.408-2.212,2.822-4.431,4.18-6.676
				C197.168,277.903,199.698,273.888,201.932,269.723z M164.775,67.86c0.28,2.639,0.528,5.273,0.453,7.93
				c-0.089,2.935-0.239,5.868-0.595,8.782c-0.08,0.516-0.186,1.021-0.323,1.527c-0.111,0.445-0.333,0.849-0.431,1.308
				c-0.334,1.544-0.015,3.31,1.238,4.395c1.195,1.029,2.392,1.211,3.88,1.419c-0.333-0.042-0.667-0.097-1.001-0.14
				c1.086,0.151,2.102,0.441,3.125,0.846c0.919,0.395,1.835,0.796,2.668,1.348c0.315,0.287,0.607,0.585,0.89,0.904
				c0.477,0.684,0.903,1.397,1.276,2.154c0.261,0.717,0.476,1.447,0.66,2.19c0.01,0.34,0.007,0.663-0.015,0.993
				c-0.135,0.655-0.309,1.288-0.524,1.926c-0.026,0.049-0.053,0.097-0.08,0.144c-0.135,0.141-0.272,0.272-0.416,0.404
				c-0.938,0.61-1.922,1.082-2.928,1.548c-0.956,0.384-1.913,0.738-2.912,0.972c-0.286,0.001-0.57-0.011-0.853-0.019
				c-0.431,0-0.863-0.014-1.28,0c-1.753,0.125-3.352,0.39-4.91,1.252c-1.377,0.766-2.212,2.073-2.782,3.492
				c-0.334,0.821-0.39,1.738-0.556,2.614c-0.237,1.308-0.625,2.6-1.043,3.868c-1.294,3.957-2.696,7.886-4.208,11.763
				c-1.492,0.114-2.994,0.222-4.482,0.089c-2.742-0.452-5.509-1.014-8.099-1.997c-2.403-1.085-4.584-2.553-6.697-4.122
				c-0.778-0.643-1.496-1.336-2.158-2.109c-1.273-1.797-2.538-3.871-4.803-4.43c-0.379-0.094-0.766-0.143-1.15-0.143
				c-0.754,0-1.502,0.186-2.175,0.574c-0.89,0.528-1.793,1.53-1.989,2.586c-0.182,1.098-0.279,1.989,0.085,3.075
				c0.236,0.723,0.598,1.46,0.946,2.141c0.696,1.377,1.795,2.616,2.976,3.589c2.238,1.85,4.799,3.158,7.359,4.492
				c1.336,0.71,2.782,1.239,4.199,1.767c2.517,0.946,5.133,1.306,7.776,1.599c1.46,0.154,2.904,0.262,4.359,0.223
				c-0.054,0.08-0.1,0.162-0.157,0.243c-1.506,1.906-3.108,3.792-4.943,5.384c-1.27,0.917-2.56,1.817-3.919,2.605
				c-1.409,0.821-2.847,1.524-4.331,2.183c-1.893,0.705-3.779,1.351-5.713,1.935c-1.761,0.523-3.574,0.833-5.387,1.107
				c-4.95,0.552-9.984,0.979-14.97,0.562c-1.415-0.308-2.783-0.883-4.152-1.376c-0.261-0.094-0.513-0.191-0.768-0.287
				c-0.222-1.716-0.462-3.427-0.698-5.126c-0.63-6.21-0.956-12.396-1.202-18.623c-0.139-3.269-0.111-6.524-0.125-9.793
				c-0.014-2.958,0.354-5.905,0.681-8.843c0.661-4.169,1.288-8.396,2.517-12.44c0.667-2.157,1.322-4.312,2.086-6.441
				c0.77-2.109,1.602-4.193,2.426-6.287c1.047-2.399,2.17-4.7,3.693-6.876c1.051-1.247,2.191-2.373,3.444-3.426
				c1.012-0.717,2.053-1.358,3.173-1.904c3.649-1.333,7.557-1.932,11.371-2.566c0.284-0.037,0.569-0.075,0.853-0.112
				c-0.029,0.004-0.06,0.008-0.089,0.013c2.014-0.216,4.087-0.515,6.122-0.402c5.431,0.981,10.733,2.667,16.286,2.892
				C159.315,69.362,162.155,68.96,164.775,67.86z M118.685,162.551c-0.162,1.496-0.323,2.994-0.483,4.491
				c-0.19,1.777-0.318,3.553-0.524,5.319c-0.05,0.277-0.111,0.551-0.189,0.825c-0.128,0.233-0.262,0.46-0.405,0.682
				c-0.411,0.445-0.86,0.839-1.329,1.22c-0.531,0.372-1.066,0.705-1.636,1.011c-1.184,0.408-2.394,0.653-3.627,0.879
				c-1.869,0.2-3.713,0.266-5.617,0.232c-0.318-0.006-0.642-0.033-0.962-0.04c1.591-4.493,2.151-9.256,2.469-14
				c1.071,0.197,2.147,0.359,3.208,0.334c1.251-0.014,2.517-0.168,3.77-0.291C115.142,163.037,116.913,162.783,118.685,162.551z
				 M28.862,197.918c-0.528-0.487-1.028-0.992-1.503-1.524c-0.301-0.47-0.577-0.943-0.836-1.434c-0.201-0.598-0.37-1.2-0.513-1.814
				c-0.007-0.259-0.006-0.517,0.001-0.777c0.348-1.578,0.857-3.1,1.44-4.606c2.233-4.903,5.045-9.569,5.986-14.939
				c0.596-3.416,1.047-6.833,1.484-10.268c0.307-1.979,0.612-3.937,1.061-5.896c0.752-3.283,1.488-6.524,1.906-9.876
				c0.667-5.55-1.183-10.947-3.629-15.816c-1.175-2.347-2.46-4.647-3.542-7.027c-0.435-1.183-0.803-2.369-1.066-3.596
				c-0.089-1.107-0.086-2.19,0.006-3.298c0.226-1.269,0.556-2.466,1.01-3.67c0.779-1.621,1.693-3.132,2.742-4.588
				c3.22-3.908,7.086-7.489,9.504-11.955c2.448-4.507,2.128-10.029,2.046-15.009c-0.057-2.962-0.293-5.912-0.544-8.861
				c-0.14-1.753-0.348-3.52-0.515-5.273c-0.394-4.046-0.416-7.993,0.04-12.015c0.183-1.225,0.373-2.451,0.599-3.675
				c0.284-1.57,0.764-3.064,1.341-4.538c1.555-3.33,3.43-6.441,5.606-9.395c2.557-3.144,5.409-5.97,8.545-8.535
				c1.539-1.128,3.129-2.15,4.775-3.112c1.926-1.115,4-1.997,6.056-2.886c5.521-2.245,11.273-3.846,17.174-4.75
				c4.03-0.444,8.072-0.534,12.102-0.126c1.595,0.155,3.181,0.312,4.767,0.469c7.502,1.122,15.096,2.344,22.193,5.104
				c3.901,1.731,7.679,3.71,11.404,5.793c0.365,0.202,0.725,0.408,1.087,0.614c0.251,0.232,0.524,0.447,0.818,0.638
				c1.211,0.764,2.366,1.613,3.548,2.406c1.433,0.968,2.901,1.912,4.283,2.944c2.993,2.331,6.025,4.799,8.46,7.703
				c0.928,1.304,1.746,2.642,2.448,4.079c0.632,1.779,1.055,3.636,1.381,5.498c0.036,0.509,0.037,1.008,0.006,1.52
				c-0.031,0.172-0.064,0.344-0.103,0.515c-0.004,0.006-0.008,0.011-0.011,0.017c-0.126,0.141-0.255,0.279-0.388,0.412
				c-0.309,0.187-0.628,0.356-0.954,0.516c-0.376,0.133-0.753,0.247-1.136,0.337c-2.071,0.125-4.125-0.065-6.197-0.315
				c-0.122-0.015-0.244-0.032-0.367-0.047c-2.861-0.402-5.733-0.731-8.617-1.047c-1.209-0.139-2.406-0.307-3.631-0.279
				c-1.641,0.029-3.255,0.14-4.882,0.279c-3.52,0.291-7.025,0.904-10.489,1.599c-2.948,0.612-5.746,1.488-8.457,2.838
				c-1.711,0.849-3.269,2.073-4.745,3.269c-1.753,1.433-3.267,2.992-4.674,4.771c-1.89,2.392-3.351,4.923-4.688,7.664
				c-0.736,1.516-1.391,3.089-2.072,4.632c-1.474,3.338-2.685,6.773-3.825,10.238c-2.143,6.427-2.964,13.242-3.714,19.946
				c-0.182,1.599-0.209,3.324-0.196,4.953c0.028,1.725,0.014,3.449,0.111,5.173c0.182,3.464,0.404,6.927,0.723,10.377
				c0.673,7.421,1.822,14.733,3.138,22.058c0.013,0.11,0.013,0.219,0.025,0.329c-0.086,0.426-0.169,0.852-0.175,1.301
				c0.01,0.781,0.189,1.519,0.447,2.237c0.049,0.724,0.139,1.437,0.168,2.172c0.137,3.108-0.104,6.328-0.476,9.429
				c-0.356,2.336-0.85,4.607-1.657,6.835c-0.312,0.634-0.713,1.198-1.071,1.789c-0.944,0.684-1.663,1.634-2.084,2.722
				c-0.743,0.797-1.466,1.617-2.301,2.333c-0.735,0.515-1.48,0.95-2.288,1.372c-0.412,0.172-0.82,0.348-1.222,0.53
				c-0.625,0.264-1.405,1.071-1.878,1.599c-0.655,0.736-1.225,1.599-1.753,2.434c-0.95,1.494-1.91,2.975-2.914,4.434
				c-0.549,0.643-1.125,1.243-1.749,1.813c-0.723,0.465-1.453,0.861-2.219,1.226c-1.166,0.395-2.331,0.711-3.534,0.94
				c-0.852,0.053-1.684,0.051-2.53-0.007c-0.573-0.135-1.118-0.3-1.661-0.499c-0.351-0.178-0.691-0.372-1.019-0.589
				c-0.583-0.506-1.107-1.022-1.623-1.627c-0.488-0.584-0.878-1.14-1.433-1.628c-1.822-1.571-4.355-1.753-6.302-0.319
				c-1.745,1.266-3.327,2.803-5.005,4.18c-1.74,1.232-3.53,2.306-5.446,3.236c-1.807,0.691-3.638,1.204-5.542,1.564
				c-1.086,0.101-2.151,0.118-3.248,0.037c-1.494-0.275-2.944-0.644-4.395-1.13C31.214,199.427,30.015,198.717,28.862,197.918z
				 M48.914,394.769c-3.968,0.014-7.925-0.27-11.866-0.587c-0.426-0.058-0.85-0.119-1.275-0.186
				c0.379-10.788,0.451-21.605,1.219-32.375c0.918-12.921,1.739-25.844,1.906-38.795c0.154-12.462,0.363-24.926,0.781-37.376
				c0.236-6.746,0.487-13.479,0.528-20.225c0.028-6.51-0.417-13.02-0.779-19.515c-0.588-10.743-0.788-21.501-2-32.182
				c3.629-0.164,7.22-1.182,10.501-2.663c3.631-1.628,6.927-3.951,9.682-6.816c0.533-0.553,1.039-1.143,1.526-1.752
				c0.101,0.112,0.204,0.222,0.311,0.333c1.767,1.836,4.201,2.991,6.579,3.77c2.169,0.71,4.659,0.752,6.9,0.542
				c1.155-0.112,2.295-0.32,3.437-0.542c1.516-0.307,2.948-1.001,4.355-1.628c3.629-1.627,6.203-5.161,8.011-8.568
				c0.705-1.345,1.327-2.724,1.899-4.122c0.662-0.344,1.322-0.684,1.954-1.08c1.295-0.785,2.478-1.779,3.62-2.785
				c0.544-0.017,1.083-0.079,1.606-0.239c-0.024,0.012-0.044,0.026-0.065,0.037c0.083-0.032,0.166-0.065,0.25-0.098
				c0.248-0.085,0.491-0.183,0.727-0.298c0.007-0.003,0.013-0.004,0.019-0.007c0.426-0.157,0.853-0.277,1.291-0.369
				c3.304-0.291,6.625-0.144,9.912-0.589c2.072-0.279,4.118-0.627,6.12-1.238c1.09-0.338,2.114-0.828,3.087-1.408
				c0.588,1.302,1.182,2.606,1.747,3.912c2.639,6.528,5.163,13.096,8.471,19.325c0.559,1.053,1.122,2.096,1.677,3.145
				c-1.123-0.813-2.262-1.599-3.373-2.438c-2.506-2.057-4.808-4.195-7.016-6.568c-0.675-0.731-1.618-1.079-2.567-1.079
				c-0.979,0-1.964,0.373-2.663,1.079c-1.474,1.46-1.363,3.742,0,5.23c2.281,2.489,4.617,4.882,7.246,7.011
				c2.768,2.24,5.536,4.437,8.374,6.565c5.188,3.894,10.752,7.302,16.093,10.96c5.273,3.617,10.364,7.47,15.788,10.849
				c5.398,3.366,11.071,6.203,16.691,9.166c3.423,1.822,6.886,3.52,10.406,5.133c1.341,0.614,2.684,1.222,4.004,1.87
				c-0.215,0.707-0.46,1.406-0.728,2.101c-2.272,5.018-5.309,9.604-8.116,14.349c-1.392,2.338-2.783,4.66-4.201,6.983
				c-0.842,1.388-1.638,2.828-2.485,4.227c-4.685-2.143-9.359-4.242-13.831-6.815c-4.994-2.893-9.391-6.732-14.231-9.848
				c-2.656-1.71-5.285-3.491-7.9-5.258c-1.169-0.779-2.38-1.46-3.548-2.225c-1.322-0.849-2.602-1.767-3.896-2.657
				c-2.531-1.753-5.299-3.212-8.012-4.674c-2.656-1.405-5.342-2.671-8.066-3.923c-1.544-0.709-2.99-1.613-4.48-2.434
				c-1.655-0.904-3.352-1.642-5.09-2.365c-1.128-0.473-2.295-0.821-3.437-1.266c-1.14-0.444-2.283-0.89-3.449-1.251
				c-2.268-0.723-4.826,0.445-5.995,2.434c-1.223,2.087-0.847,4.731,0.821,6.441c1.251,1.273,2.595,2.383,3.983,3.469
				c-0.093-0.072-0.189-0.144-0.283-0.215c1.976,1.67,3.659,3.672,5.661,5.314c2.782,2.281,5.69,4.256,8.722,6.176
				c2.616,1.642,5.258,3.213,7.887,4.826c2.587,1.585,5.05,3.394,7.719,4.826c3.638,1.955,7.281,3.905,10.888,5.921
				c0.141,0.397,0.301,0.791,0.495,1.183c0.736,1.488,1.613,2.907,2.42,4.367c0.784,1.416,1.462,2.865,2.119,4.328
				c1.003,2.44,1.992,4.876,2.998,7.314c1.252,3.018,2.491,6.05,3.367,9.209c1.709,6.19,3.273,12.407,4.381,18.737
				c0.415,3.61,0.723,7.28,1.419,10.848c0.723,3.686,1.613,7.331,2.323,11.017c0.709,3.699,1.391,7.399,2.238,11.057
				c0.734,3.231,1.437,6.441,1.974,9.704c0.442,4.728,0.648,9.404,0.171,14.143c-0.165,0.954-0.37,1.894-0.624,2.825
				c-1.184,0.334-2.384,0.601-3.589,0.853c-5.441,0.571-10.951,0.361-16.416,0.614c-6.69,0.307-13.368,0.682-20.044,1.03
				c-12.505,0.653-24.954,1.627-37.416,2.879c-4.31,0.431-8.639,0.821-12.964,1.225c-3.851,0.362-7.747,0.681-11.629,0.821
				C58.416,394.658,53.687,394.769,48.914,394.769z M164.854,388.34c0,0.001-0.001,0.003-0.001,0.004
				c-0.047,0.067-0.097,0.132-0.153,0.194C164.752,388.471,164.803,388.405,164.854,388.34z M84.98,470.737
				c-1.61-0.462-3.274-0.761-4.932-0.974c-2.23-0.302-4.516-0.584-6.79-0.584c-0.56,0-1.122,0.017-1.682,0.055
				c-6.356,0.431-12.741,1.864-18.889,3.491c-2.976,0.793-5.883,2.086-8.762,3.186c-0.358,0.139-0.71,0.291-1.068,0.433
				c0.211-0.527,0.42-1.054,0.634-1.582c2.381-5.403,4.921-10.751,6.642-16.417c1.71-5.689,3.2-11.433,4.52-17.235
				c1.252-5.425,2.491-10.836,3.437-16.329c1.012-5.828,1.766-11.682,2.453-17.548c3.291-0.172,6.578-0.387,9.865-0.653
				c7.631-0.607,15.25-1.337,22.868-2.05c0.322,0.724,0.792,1.383,1.406,1.915c-0.025,0.244-0.046,0.487-0.065,0.725
				c-0.098,1.108,0.33,2.164,0.778,3.159c0.601,1.585,1.033,3.169,1.322,4.854c0.659,6,0.492,12.039-0.123,18.047
				c-0.363,2.514-0.763,5.025-1.391,7.49c-0.752,2.962-1.587,5.885-2.491,8.805c-1.738,5.57-3.517,11.124-5.646,16.563
				C86.382,467.645,85.68,469.19,84.98,470.737z M124.133,472.227c-0.259,1.409-0.544,2.811-0.849,4.223
				c-0.349,1.617-0.58,3.319-1.134,4.891c-0.671,1.516-1.304,3.023-1.334,4.652c-0.915,0.85-1.821,1.713-2.668,2.635
				c-1.186,0.854-2.419,1.592-3.675,2.362c-1.232,0.767-2.395,1.68-3.685,2.352c-0.057,0.017-0.115,0.029-0.172,0.047
				c-2.209,0.018-4.417,0.049-6.624,0.049c-0.576-2.878-1.419-5.59-2.868-8.234c-2.094-3.84-5.127-7.581-8.549-10.345
				c0.431-0.86,0.892-1.702,1.305-2.574c2.585-5.498,4.659-11.159,6.676-16.889c1.682-4.757,3.366-9.486,4.728-14.34
				c1.462-5.202,2.198-10.515,2.824-15.871c0.244-2.096,0.387-4.206,0.499-6.323c1.992,2.716,3.908,5.486,5.595,8.403
				c1.994,3.463,3.765,7.07,5.493,10.682c2.012,5.091,3.385,10.377,4.258,15.777c0.305,3.34,0.417,6.657,0.444,9.999
				C124.421,466.579,124.4,469.39,124.133,472.227z M159.652,468.542c-0.032,0.282-0.062,0.566-0.096,0.846
				c-1.385,0.218-2.771,0.449-4.158,0.693c-2.571,0.459-5.173,0.904-7.706,1.599c-3.406,0.931-6.798,1.989-10.08,3.302
				c0.258-1.334,0.463-2.677,0.553-4.016c0.222-3.2,0.097-6.385-0.028-9.585c-0.153-3.532-0.544-7.135-1.252-10.585
				c-0.681-3.283-1.613-6.441-2.74-9.612c-1.128-3.2-2.42-6.399-3.991-9.417c-2.865-5.452-5.746-10.905-9.417-15.871
				c-2.422-3.269-4.911-6.482-7.804-9.347c-1.216-1.204-2.571-2.295-3.885-3.402c0.026-0.001,0.053-0.004,0.079-0.007
				c5.995-0.445,11.991-0.667,17.986-0.932c4.546-0.205,9.094-0.435,13.645-0.619c1.243,1.334,2.448,2.703,3.586,4.137
				c1.33,1.772,2.663,3.56,3.887,5.409c1.319,2.007,2.315,4.217,3.276,6.41c2.112,5.281,3.735,10.689,5.069,16.221
				c1.381,5.74,2.344,11.557,3.24,17.39c0.294,2.771,0.399,5.552,0.363,8.343C160.126,462.505,160.029,465.551,159.652,468.542z
				 M271.158,490.144c-23.348-0.012-46.718,0.363-70.045,1.404c-0.054-0.483-0.139-0.961-0.254-1.43
				c-0.196-0.736-0.39-1.46-0.625-2.184c-0.696-2.114-1.767-3.839-3.046-5.62c-0.821-1.14-1.614-2.309-2.616-3.31
				c-0.667-0.667-1.406-1.294-2.158-1.878c-1.209-0.932-2.419-1.864-3.713-2.699c-1.169-0.752-2.435-1.306-3.7-1.878
				c-1.252-0.542-2.491-1.071-3.742-1.599c-0.904-0.39-1.822-0.752-2.74-1.114c-1.391-0.548-2.84-0.829-4.316-1.044
				c0.713-5.235,0.856-10.648,0.225-15.866c-0.251-2.03-0.515-4.048-0.918-6.051c-0.319-1.587-0.779-3.158-1.169-4.729
				c-0.736-3.005-1.46-5.995-2.406-8.93c-2.03-6.287-4.492-12.478-7.385-18.404c-1.003-2.03-2.101-4.005-3.213-5.968
				c-1.183-2.086-2.656-3.978-4.118-5.883c-0.422-0.549-0.846-1.089-1.27-1.635c0.627,0,1.252-0.017,1.881-0.017
				c1.46,0.014,2.907,0.014,4.366-0.014c1.946-0.044,3.893-0.337,5.812-0.614c4.383-0.625,9.612-1.14,12.046-5.439
				c2.032-3.603,2.853-7.525,3.283-11.601c0.168-1.641,0.363-3.295,0.348-4.937c-0.042-3.13-0.251-6.217-0.612-9.334
				c-0.444-3.825-1.336-7.511-2.323-11.225c-1.531-5.801-2.616-11.698-4.062-17.512c-0.735-2.955-1.384-5.9-1.9-8.891
				c-0.61-4.814-1.315-9.593-2.355-14.337c-0.501-2.254-1.141-4.478-1.699-6.704c-0.584-2.365-1.112-4.757-1.849-7.079
				c-1.035-3.269-2.306-6.45-3.606-9.626c0.856,0.347,1.711,0.696,2.571,1.04c5.025,2.201,10.35,4.973,15.955,3.596
				c1.664-0.412,2.908-1.416,3.939-2.642c2.742,1.607,6.241,1.849,9.367,2.227c1.262,0.159,2.545-0.055,3.794-0.347
				c2.526,3.294,5.317,6.402,8.113,9.46c1.613,1.753,3.241,3.492,4.757,5.342c0.779,0.918,1.531,1.85,2.294,2.768
				c0.724,0.847,1.573,1.599,2.366,2.365c1.766,1.698,3.643,3.269,5.41,4.98c1.682,1.613,3.449,3.144,5.161,4.743
				c0.186,0.173,0.372,0.338,0.555,0.51c-0.05,0.233-0.146,0.449-0.161,0.693c-0.347,6.205-0.877,12.492-0.555,18.709
				c0.151,3.089,0.459,6.162,0.681,9.235c0.196,2.879,0.431,5.758,0.807,8.625c0.444,3.38,0.89,6.76,1.585,10.098
				c0.625,3.116,1.488,6.176,2.378,9.237c1.781,6.176,4.119,12.102,6.983,17.846c1.99,4.005,4.466,7.608,7.165,11.168
				c1.571,2.087,3.323,4.021,5.05,5.982c1.516,1.753,3.129,3.38,4.882,4.883c3.256,2.768,6.65,5.398,10.42,7.414
				c2.488,1.311,5.1,2.451,7.78,3.334c-0.085,0.233-0.176,0.466-0.257,0.699c-1.183,3.449-1.781,7.038-2.127,10.654
				c-0.265,2.907-0.474,5.885-0.208,8.791c0.305,3.352,0.792,6.607,1.808,9.834c1.001,3.144,2.252,6.273,3.825,9.195
				c2.838,5.299,6.245,10.292,10.501,14.577c0.492,0.502,1.053,0.949,1.624,1.384C283.554,490.136,277.356,490.144,271.158,490.144z
				 M342.155,480.414c-1.094,1.026-2.255,1.968-3.427,2.904c-1.721,1.236-3.498,2.34-5.417,3.261
				c-2.564,0.936-5.211,1.685-7.897,2.151c-3.973,0.319-8.074-0.092-12.046-0.591c-2.979-0.559-5.891-1.291-8.736-2.349
				c-2.562-1.22-4.871-2.871-7.13-4.581c-1.735-1.408-3.23-3.03-4.704-4.713c-2.635-3.624-4.971-7.486-6.79-11.582
				c-0.515-1.387-0.996-2.783-1.453-4.181c-0.444-1.331-0.691-2.717-0.936-4.08c-0.366-3.928-0.374-7.83,0.029-11.759
				c0.473-3.029,1.245-5.958,2.355-8.823c1.538-3.383,3.505-6.438,5.653-9.461c0.574-0.721,1.151-1.441,1.736-2.154
				c0.282-0.277,0.566-0.551,0.856-0.82c1.211-1.112,2.42-2.197,3.589-3.324c0.892-0.878,1.771-1.756,2.742-2.552
				c1.485-1.129,3.007-2.218,4.589-3.193c1.85-1.15,3.792-2.108,5.772-2.994c2.073-0.76,4.223-1.139,6.398-1.47
				c1.933-0.215,3.851-0.372,5.803-0.419c1.742-0.053,3.485,0.08,5.216,0.28c2.431,0.447,4.765,1.061,7.074,1.962
				c1.097,0.476,2.187,0.967,3.248,1.501c1.287,0.649,2.485,1.412,3.639,2.252c2.847,2.334,5.424,4.961,7.771,7.797
				c1.277,1.944,2.254,4.069,3.179,6.203c0.606,1.648,1.158,3.285,1.673,4.961c0.426,1.373,0.656,2.811,0.872,4.241
				c0.384,4.95,0.257,9.881-0.3,14.82c-0.379,2.047-0.782,4.059-1.394,6.047c-0.603,1.93-1.279,3.807-2.023,5.665
				c-1.979,4.059-4.19,7.941-6.79,11.633C344.308,478.224,343.277,479.339,342.155,480.414z M405.188,490.556
				c-6.398,0.18-12.824,0.069-19.222,0.168c-12.683,0.165-25.348,0.86-38.029,1.129c0.05-0.039,0.101-0.079,0.151-0.118
				c-0.051,0.04-0.104,0.081-0.155,0.119c-0.004,0-0.008,0-0.012,0c1.485-1.144,2.975-2.316,4.305-3.623
				c1.731-1.706,3.213-3.536,4.692-5.45c1.921-2.556,3.588-5.258,5.184-8.029c1.738-3.018,3.073-6.19,4.381-9.417
				c0.87-2.132,1.481-4.338,2-6.571c1.25,0.069,2.496,0.165,3.751,0.173c1.865,0.014,3.77-0.196,5.62-0.376
				c2.89-0.276,5.724-0.836,8.571-1.29c0.315-0.035,0.624-0.062,0.936-0.092c0.214,5.292,1.388,10.546,3.659,15.35
				c1.154,2.462,2.503,4.813,4.144,6.983c1.085,1.417,2.169,2.81,3.437,4.062c0.946,0.946,1.947,1.836,2.948,2.698
				c1.8,1.545,3.801,2.872,5.778,4.209C406.612,490.505,405.901,490.538,405.188,490.556z M452.797,477.879
				c-1.994,1.47-4.065,2.786-6.208,4.041c-1.875,1.085-3.746,2.168-5.688,3.137c-2.216,0.784-4.591,1.276-6.916,1.653
				c-0.643,0.039-1.275,0.046-1.918,0.008c-1.154-0.207-2.283-0.492-3.395-0.946c0.154,0.068,0.309,0.135,0.465,0.2
				c-3.625-1.509-7.356-2.707-10.995-4.172c-3.016-1.326-5.984-2.814-8.701-4.682c-1.415-1.172-2.729-2.419-3.966-3.783
				c-1.544-2.105-2.881-4.281-4.043-6.628c-1.032-2.661-1.825-5.348-2.398-8.17c-0.379-3.872-0.146-7.718,0.244-11.604
				c0.29-2.001,0.642-3.993,1.187-5.936c0.642-2.256,1.391-4.428,2.236-6.597c0.691-1.51,1.395-3,2.145-4.488
				c0.811-1.584,1.825-3.051,2.802-4.539c1.478-1.846,3.012-3.6,4.724-5.253c1.589-1.535,3.262-2.954,4.969-4.351
				c0.825-0.445,1.67-0.849,2.502-1.269c0.956-0.484,1.904-0.993,2.865-1.462c1.921-0.594,3.971-0.877,5.937-1.306
				c1.355-0.302,2.699-0.557,4.061-0.771c3.261-0.34,6.535-0.65,9.822-0.814c3.181-0.157,6.398,0.115,9.572,0.447
				c2.302,0.376,4.541,0.874,6.742,1.698c1.904,0.885,3.702,1.906,5.442,3.072c1.295,1.105,2.48,2.295,3.575,3.599
				c1.649,2.316,3.123,4.715,4.341,7.278c0.3,0.874,0.546,1.743,0.724,2.638c0.276,3.419,0.289,6.772-0.048,10.182
				c-0.422,2.7-0.915,5.396-1.485,8.072c-0.666,3.156-1.761,6.124-2.965,9.099c-1.033,2.445-2.107,4.879-3.462,7.176
				c-1.449,2.481-3.058,4.878-4.724,7.233c-1.083,1.32-2.219,2.559-3.439,3.769C455.552,475.654,454.174,476.782,452.797,477.879z"
				/>
		</g>
	</g>
</g>
<g>
</g>
<g>
</g>
<g>
</g>
<g>
</g>
<g>
</g>
<g>
</g>
<g>
</g>
<g>
</g>
<g>
</g>
<g>
</g>
<g>
</g>
<g>
</g>
<g>
</g>
<g>
</g>
<g>
</g>
</svg>
