<?xml version="1.0" encoding="iso-8859-1"?>
<!-- Generator: Adobe Illustrator 19.0.0, SVG Export Plug-In . SVG Version: 6.00 Build 0)  -->
<svg version="1.1" id="Layer_1" xmlns="http://www.w3.org/2000/svg" xmlns:xlink="http://www.w3.org/1999/xlink" x="0px" y="0px"
	 viewBox="0 0 511.994 511.994" style="enable-background:new 0 0 511.994 511.994;" xml:space="preserve">
<g>
	<g>
		<path d="M230.08,124.405c-0.101-0.732-0.498-1.474-0.908-2.064c-0.692-1.025-1.601-1.73-2.639-2.395
			c-1.226-0.801-2.745-1.321-4.212-1.321c-0.036,0-0.07,0.001-0.106,0.001c-1.845,0.027-3.716,1.128-4.87,2.511
			c-0.653,0.795-1.152,1.524-1.473,2.499c-0.268,0.832-0.372,1.704-0.397,2.575c0.077,0.552,0.141,1.101,0.217,1.653
			c0.153,0.525,0.346,1.039,0.589,1.537c0.589,1.179,1.396,2.063,2.435,2.845c0.263,0.202,0.548,0.383,0.849,0.543
			c0.253,0.276,0.531,0.528,0.867,0.752c0.795,0.525,1.742,0.858,2.703,0.883c1.422,0.038,2.767-0.372,3.946-1.152
			c1.447-0.948,2.333-2.344,2.858-3.96c0.231-0.729,0.268-1.575,0.319-2.331C230.323,126.098,230.195,125.263,230.08,124.405z"/>
	</g>
</g>
<g>
	<g>
		<path d="M262.349,126.508c-0.512-0.884-1.383-1.551-2.382-1.833c-0.344-0.093-0.699-0.141-1.054-0.141
			c-0.704,0-1.409,0.185-2.022,0.552c-1.256,0.729-1.896,2.011-1.972,3.445c-0.018,0.238-0.036,0.474-0.054,0.715
			c-0.086,0.478-0.192,0.947-0.336,1.414c-0.084,0.164-0.175,0.326-0.272,0.487c-0.235,0.257-0.483,0.501-0.746,0.736
			c-0.259,0.176-0.524,0.341-0.801,0.488c-0.436,0.144-0.879,0.257-1.331,0.345c-0.378,0.027-0.751,0.031-1.131,0.01
			c-0.069-0.017-0.137-0.033-0.203-0.052c-0.106-0.056-0.208-0.114-0.31-0.175c-0.151-0.139-0.293-0.285-0.433-0.438
			c-0.166-0.245-0.319-0.494-0.457-0.756c-0.081-0.24-0.144-0.477-0.198-0.719c-0.001-0.121,0.001-0.24,0.009-0.358
			c0.095-0.45,0.19-0.899,0.295-1.349c0.385-1.755-0.512-3.549-2.307-4.049c-1.666-0.46-3.651,0.552-4.048,2.294
			c-0.27,1.23-0.538,2.46-0.552,3.728c0.064,0.501,0.141,1.013,0.206,1.525c0.049,0.243,0.114,0.474,0.19,0.704
			c0.231,0.743,0.577,1.487,0.961,2.165c0.729,1.294,1.755,2.243,2.921,3.126c0.68,0.525,1.589,0.82,2.409,1.063
			c0.948,0.27,2.023,0.308,3.011,0.295c0.743-0.014,1.538-0.141,2.267-0.257c0.948-0.166,1.717-0.46,2.614-0.844
			c0.807-0.346,1.549-0.948,2.204-1.5c0.512-0.436,0.986-0.858,1.409-1.383c1.436-1.782,2.204-3.909,2.524-6.162
			C262.912,128.467,262.951,127.533,262.349,126.508z"/>
	</g>
</g>
<g>
	<g>
		<path d="M279.315,120.072c-0.164-0.013-0.324-0.019-0.485-0.019c-0.698,0-1.375,0.107-2.05,0.275
			c-0.487,0.18-0.948,0.385-1.409,0.614c-0.614,0.282-1.154,0.832-1.653,1.294c-0.333,0.385-0.654,0.795-0.961,1.205
			c-0.384,0.614-0.704,1.243-0.948,1.934c-0.346,1-0.512,2.039-0.512,3.102c0.013,0.909,0.308,2.037,0.756,2.818
			c0.217,0.423,0.487,0.807,0.82,1.166c0.372,0.436,0.935,0.961,1.436,1.23c1.064,0.563,2.152,0.924,3.37,0.986
			c0.948,0.038,1.896-0.089,2.832-0.282c0.743-0.153,1.435-0.525,2.101-0.846c1.05-0.487,1.87-1.512,2.395-2.499
			c0.079-0.153,0.153-0.312,0.222-0.471c0.86-1.039,1.428-2.341,1.52-3.666C287.028,122.788,282.965,120.316,279.315,120.072z"/>
	</g>
</g>
<g>
	<g>
		<path d="M277.81,144.611c-0.617-1.05-1.643-1.843-2.808-2.164c-0.409-0.112-0.83-0.169-1.249-0.169
			c-0.829,0-1.653,0.217-2.376,0.643c-1.141,0.666-1.704,1.615-2.152,2.805c-0.305,0.768-0.48,1.561-0.718,2.344
			c-0.477,0.88-1.064,1.695-1.65,2.511c-0.66,0.795-1.359,1.529-2.142,2.219c-1.046,0.74-2.119,1.41-3.278,1.972
			c-0.887,0.319-1.786,0.565-2.72,0.746c-2.345,0.236-4.647,0.266-6.998,0.07c-2.404-0.434-4.727-1.086-7.017-1.938
			c-0.632-0.294-1.235-0.614-1.82-0.996c-0.48-0.424-0.929-0.876-1.354-1.358c-0.658-1.001-1.214-2.046-1.721-3.149
			c-0.487-1.064-1.755-1.87-2.831-2.178c-1.23-0.333-2.563-0.153-3.651,0.487c-1.064,0.614-1.859,1.64-2.178,2.832
			c-0.372,1.32-0.077,2.448,0.474,3.651c1.141,2.473,2.614,4.715,4.677,6.547c2.524,2.229,5.803,3.51,9.007,4.471
			c3.92,1.166,8.072,1.782,12.159,1.334c1.383-0.141,2.755-0.308,4.113-0.603c1.896-0.423,3.767-1.254,5.42-2.267
			c0.769-0.461,1.486-0.986,2.204-1.513c0.897-0.654,1.845-1.358,2.626-2.14c1.525-1.513,2.832-3.203,4.088-4.932
			c1.203-1.653,2.101-3.574,2.37-5.612C278.463,146.906,278.515,145.803,277.81,144.611z"/>
	</g>
</g>
<g>
	<g>
		<path d="M178.283,264.603c-0.015-0.109-0.029-0.216-0.045-0.323c0.024,0.167,0.046,0.333,0.068,0.498
			C178.298,264.719,178.29,264.662,178.283,264.603z"/>
	</g>
</g>
<g>
	<g>
		<path d="M177.268,291.168c-0.241-0.616-0.422-1.231-0.934-1.705c-0.538-0.487-1.243-1.076-1.999-1.203
			c-0.381-0.066-0.763-0.149-1.152-0.149c-0.068,0-0.137,0.004-0.206,0.009c-0.731,0.065-1.243,0.167-1.87,0.525
			c-0.112,0.063-0.221,0.129-0.327,0.198c-0.019,0.01-0.038,0.022-0.057,0.032c-0.397,0.227-0.691,0.516-0.922,0.857
			c-0.317,0.4-0.56,0.86-0.718,1.386c-0.061,0.208-0.1,0.425-0.115,0.645c-0.077,0.284-0.132,0.575-0.155,0.892
			c-0.051,0.705,0.051,1.294,0.372,1.935c0.333,0.64,0.705,1.05,1.294,1.473c0.448,0.333,0.91,0.525,1.46,0.654
			c0.718,0.153,1.294,0.051,1.999-0.078c0.589-0.089,1.229-0.589,1.677-0.948c0.448-0.372,0.782-0.833,1.128-1.307
			c0.257-0.358,0.397-0.832,0.512-1.254C177.385,292.628,177.461,291.668,177.268,291.168z"/>
	</g>
</g>
<g>
	<g>
		<path d="M333.748,268.008c-0.45-0.158-0.907-0.234-1.363-0.234c-1.157,0-2.29,0.48-3.173,1.271
			c-0.499,0.45-0.961,0.975-1.281,1.589c-0.384,0.729-0.461,1.332-0.551,2.152c-0.077,0.659,0.19,1.344,0.611,1.901
			c0.057,0.19,0.126,0.378,0.21,0.56c0.602,1.332,1.703,2.229,3.139,2.563c1.512,0.372,3.228-0.321,4.241-1.473
			c0.973-1.115,1.256-2.69,1.243-4.138C336.81,270.303,335.49,268.637,333.748,268.008z"/>
	</g>
</g>
<g>
	<g>
		<path d="M403.979,389.228c-0.243-2.73-0.576-5.433-1.077-8.136c-0.91-4.907-1.575-9.853-2.408-14.771
			c-0.423-2.435-0.986-4.83-1.538-7.239c-0.525-2.256-0.948-4.549-1.371-6.829c-0.461-2.46-0.922-4.921-1.589-7.341
			c-0.614-2.243-1.447-4.407-2.037-6.649c-1.217-4.741-1.781-9.609-3.1-14.311c-0.884-3.153-2.023-6.227-3.088-9.328
			c-0.448-1.307-0.846-2.639-1.166-3.998c-0.166-0.666-0.308-1.345-0.563-1.985c-0.133-0.319-0.275-0.611-0.428-0.888
			c0.129-0.174,0.264-0.346,0.392-0.515c0.74-0.989,1.357-2.078,2.057-3.103c0.635-0.765,1.322-1.47,2.055-2.151
			c0.64-0.603,1.332-1.115,1.934-1.768c0.986-1.051,1.768-2.333,2.344-3.652c0.614-1.422,1.192-2.844,1.742-4.291
			c0.512-1.345,0.884-2.767,1.101-4.177c0.132-0.798,0.254-1.579,0.51-2.34c0.593-1.137,1.394-2.16,1.963-3.31
			c0.602-1.217,0.935-2.524,1.141-3.858c0.217-1.473,0.461-2.959,0.499-4.444c0.026-1.102-0.129-2.216-0.372-3.293
			c-0.241-1.053-0.755-2.058-1.211-3.05c-0.184-0.503-0.332-0.996-0.438-1.514c-0.026-0.872,0.079-1.707,0.162-2.586
			c0.103-1.09,0.167-2.152,0.089-3.254c-0.115-1.769-0.64-3.395-1.447-4.972c-0.346-0.68-0.884-1.281-1.358-1.871
			c-0.538-0.705-1.23-1.294-1.884-1.884c-1.166-1.039-2.46-1.947-3.753-2.831c-1.285-0.881-2.758-1.495-4.072-2.342
			c-0.138-0.121-0.272-0.245-0.404-0.377c-0.47-0.756-0.827-1.588-1.303-2.356c-1.025-1.667-2.395-3.075-4.099-4.049
			c-2.868-1.631-6.189-1.76-9.378-2.09c-0.438-0.081-0.864-0.181-1.281-0.317c-0.415-0.227-0.802-0.501-1.219-0.719
			c-0.551-0.282-1.128-0.551-1.704-0.756c-0.743-0.282-1.487-0.525-2.255-0.756c-1.972-0.563-3.959-1.025-6.022-1.152
			c-1.456-0.105-2.923,0.149-4.361,0.37c-0.497,0.051-0.98,0.081-1.477,0.051c-0.102-0.026-0.204-0.052-0.304-0.086
			c-0.91-0.48-1.733-1.133-2.623-1.643c-1.435-0.82-2.96-1.498-4.498-2.075c-1.235-0.464-2.52-0.659-3.809-0.659
			c-0.249,0-0.498,0.045-0.747,0.059c-0.027-1.022-0.216-2.052-0.462-2.997c-0.487-1.833-1.051-3.639-1.474-5.484
			c-0.704-3.01-1.652-5.881-2.69-8.776c-0.628-1.755-1.436-3.394-2.293-5.047c-0.581-1.128-1.242-2.205-1.805-3.347
			c-0.365-1.01-0.663-2.03-0.889-3.072c-0.018-0.59,0.018-1.182,0.054-1.781v-0.001c1.809-2.062,3.434-4.281,4.972-6.539
			c2.883-4.216,5.189-8.763,6.893-13.594c1.436-4.062,2.307-8.443,3.049-12.696c0.397-2.215,0.795-4.42,1.101-6.649
			c0.654-4.817,0.91-9.57,0.589-14.426c-0.257-3.716-0.576-7.405-0.756-11.134c-0.346-6.65,0.385-13.312,0.628-19.961
			c0.064-1.653-0.115-3.344-0.18-4.997c-0.064-1.806-0.282-3.625-0.423-5.432c-0.282-3.357-0.41-6.727-0.499-10.11
			c-0.089-3.061,0.064-6.188-0.268-9.25c-0.217-1.96-0.41-3.908-0.782-5.829c-0.333-1.755-0.666-3.498-0.999-5.24
			c-1.32-6.663-1.845-13.518-4.305-19.897c-1.332-3.473-2.909-6.867-4.433-10.263c-1.358-3.022-2.677-6.06-4.048-9.083
			c-1.32-2.921-2.55-5.932-4.216-8.674c-2.089-3.434-4.548-6.676-7.2-9.687c-3.011-3.434-6.791-6.226-10.698-8.57
			c-1.486-0.884-3.075-1.64-4.663-2.333c-3.512-1.564-7.201-3.217-11.018-3.895C291.075,0.577,287.364,0,283.603,0
			c-0.081,0-0.161,0-0.243,0c-3.69,0.013-7.303,0.359-10.954,0.858c-0.282,0.038-0.577,0.078-0.871,0.116
			c0.576-0.078,1.141-0.153,1.704-0.231c-2.537,0.346-5.061,0.321-7.624,0.141c-2.87-0.192-5.778-0.153-8.661-0.18
			c-5.676-0.038-11.339,0.116-17.003,0.563c-4.35,0.35-8.679,0.952-12.997,1.625c-0.045,0.005-0.091,0.01-0.135,0.015
			c-3.959,0.409-7.905,0.922-11.838,1.55c-3.37,0.539-6.625,1.564-9.814,2.768c-4.702,1.781-9.251,4.01-13.529,6.662
			c-3.754,2.331-7.252,5.176-10.532,8.136c-3.689,3.33-6.79,7.225-9.596,11.313c-5.111,7.481-9.109,15.887-11.185,24.726
			c-1.985,8.404-1.101,17.003,0.782,25.316c0.731,3.191,1.859,6.227,2.922,9.302c0.474,1.349,0.793,2.741,1.051,4.149
			c0.167,1.675,0.22,3.33,0.096,5.013c-0.308,1.466-0.763,2.867-1.295,4.268c-1.331,2.89-2.873,5.685-4.362,8.491
			c-3.74,7.034-6.687,14.798-7.38,22.793c-0.333,3.818,0.18,7.546,1.575,11.107c0.924,2.345,2.114,4.549,3.306,6.753
			c1.427,2.632,2.884,5.231,4.132,7.935c0.319,0.878,0.588,1.753,0.791,2.666c0.014,0.316,0.015,0.629,0.006,0.948
			c-0.218,0.975-0.502,1.912-0.852,2.85c-0.939,1.984-2.02,3.883-2.988,5.856c-2.384,4.881-3.625,10.159-2.819,15.58
			c0.718,4.714,2.768,9.045,5.791,12.709c2.883,3.485,6.342,6.355,10.084,8.878c2.025,1.371,4.276,2.275,6.608,2.882
			c-0.548,1.118-1.085,2.239-1.635,3.342c-1.602,3.228-3.088,6.496-4.484,9.814c-1.141,2.716-2.114,5.497-3.14,8.264
			c-0.512,1.41-1.09,2.807-1.601,4.216c-0.192,0.529-0.368,1.062-0.545,1.593c-0.006-0.003-0.013-0.006-0.019-0.009
			c-2.395-0.973-4.907-1.677-7.444-2.191c-2.239-0.447-4.498-0.677-6.763-0.677c-1.182,0-2.366,0.064-3.55,0.19
			c-3.652,0.384-7.163,1.281-10.609,2.511c-3.165,1.139-6.175,2.601-8.905,4.573c-3.164,2.294-5.727,5.176-8.085,8.276
			c-4.356,5.701-8.315,12.068-9.904,19.141c-1.549,6.853-1.345,14.324,0.295,21.14c0.769,3.164,1.819,6.252,2.792,9.339
			c0.931,2.975,1.892,5.96,2.428,9.034c0.105,1.225,0.125,2.436,0.049,3.659c-0.31,1.52-0.8,2.97-1.274,4.462
			c-0.795,2.577-1.101,5.344-1.447,8.008c-0.563,4.216-0.385,8.391,0.576,12.543c0.599,2.594,1.285,5.197,2.23,7.691
			c-0.48,2.414-0.553,4.861,0.423,7.221c0.359,0.883,0.692,1.601,1.205,2.395c0.487,0.756,1.115,1.461,1.73,2.127
			c0.255,0.277,0.576,0.559,0.899,0.832c-0.028,0.092-0.092,0.165-0.111,0.261c-1.972,10.033-3.51,20.167-5.291,30.237
			c-1.755,9.853-3.485,19.73-4.946,29.634c-0.756,5.163-1.128,10.378-1.615,15.58c-0.461,5.01-0.935,9.993-1.101,15.029
			c-0.038,1.077-0.027,2.165,0,3.255c0,0.576,0.026,1.141,0.077,1.717c0.153,1.986,0.986,3.651,2.267,5.125
			c3.767,4.318,9.392,5.471,14.772,6.304c1.346,0.206,2.703,0.383,4.063,0.529c-0.364,2.769-0.545,5.556-0.718,8.354
			c-0.231,3.676-0.436,7.367-0.692,11.045c-0.244,3.536-0.282,7.034-0.089,10.558c0.038,0.769,0.089,1.549,0.155,2.317
			c0.141,1.551,0.346,3.114,1.486,4.281c0.098,0.101,0.213,0.166,0.318,0.254c0.083,0.109,0.17,0.221,0.231,0.286
			c0.729,0.718,1.55,1.152,2.537,1.435c0.217,0.065,0.436,0.078,0.653,0.116c0.448,0.077,0.884,0.192,1.32,0.307
			c0.999,0.27,1.934,0.68,2.973,0.858c3.537,0.627,7.059,1.23,10.673,1.358c2.28,0.089,4.6,0.078,6.893,0.102
			c2.524,0.013,5.022-0.204,7.546-0.359c2.382-0.139,4.741-0.409,7.11-0.653c1.883-0.192,3.805-0.333,5.625-0.872
			c1.039-0.307,1.999-0.832,2.909-1.409c0.231-0.141,0.461-0.282,0.68-0.437c0.91-0.576,1.498-1.179,2.127-2.038
			c0.986-1.369,1.268-3.33,1.154-4.97c-0.153-1.961-1.101-3.678-2.14-5.304c-1.115-1.742-2.716-2.973-4.343-4.19
			c-0.743-0.551-1.486-1.039-2.331-1.409c-0.147-0.068-0.286-0.101-0.43-0.162c0.027-0.879,0.074-1.758,0.087-2.634
			c0.026-1.742,0.089-3.498,0.013-5.229c-0.166-3.742-0.563-7.418-1.064-11.133c0.051,0.346,0.089,0.678,0.141,1.025
			c-0.134-1.046-0.254-2.095-0.365-3.151c2.238-0.261,4.465-0.589,6.68-1.041c2.267-0.474,4.536-0.86,6.714-1.704
			c1.371-0.526,2.652-1.09,3.74-2.127c1.026-0.975,1.845-2.14,2.486-3.383c1.41-2.754,1.808-5.778,1.948-8.827
			c0.115-2.473,0.141-4.945,0.077-7.419c-0.081-3.376-0.424-6.719-0.819-10.057c4.583,0.114,9.139,0.734,13.708,1.114
			c3.024,0.257,6.06,0.295,9.097,0.41c1.429,0.064,2.858,0.068,4.286,0.101c-0.571,7.56-1.003,15.125-1.608,22.682
			c-0.692,8.828-1.32,17.655-1.396,26.522c-0.017,1.392-0.041,2.795-0.065,4.194c-0.155,0.162-0.324,0.312-0.47,0.48
			c-1.87,2.152-3.088,4.843-3.716,7.597c-0.257,1.115-0.397,2.307-0.384,3.446c0,1.358,0.153,3.049,0.897,4.24
			c1.498,2.448,4.498,3.446,7.226,3.869c2.038,0.308,4.061,0.538,6.124,0.678c3.434,0.218,6.88,0.206,10.327,0.116
			c3.395-0.078,6.79-0.167,10.185-0.308c1.64-0.064,3.268-0.115,4.895-0.217c1.68-0.1,3.351-0.323,5.02-0.556
			c2.804-0.346,5.617-0.413,8.164-1.79c0.25-0.134,0.466-0.312,0.691-0.478c0.775,0.635,1.409,1.072,2.398,1.433
			c0.999,0.372,2.023,0.539,3.075,0.731c3.011,0.562,6.047,1.127,9.122,1.178c2.96,0.052,5.92,0.038,8.879-0.115
			c2.856-0.141,5.688-0.614,8.533-0.897c2.768-0.282,5.535-0.512,8.315-0.603c1.05-0.026,2.114-0.064,3.177-0.102
			c0.359,0,0.718-0.026,1.064-0.051c0.756-0.064,1.513-0.166,2.255-0.333c1.371-0.321,2.563-1.243,3.638-2.101
			c3.062-2.448,4.574-6.534,4.305-10.392c-0.166-2.485-0.999-4.56-1.972-6.829c-0.884-2.062-2.46-3.895-4.152-5.355
			c-0.275-0.238-0.579-0.424-0.865-0.643c-0.06-1.237-0.106-2.474-0.178-3.711c-0.128-2.215-0.461-4.42-0.731-6.623
			c-0.282-2.216-0.461-4.445-0.627-6.676c-0.359-4.356-0.448-8.752-0.436-13.108c0-2.038,0.078-4.074,0.013-6.111
			c-0.064-2.101-0.102-4.216-0.089-6.316c0.013-1.41,0.013-2.818-0.026-4.216c-0.004-0.115-0.022-0.234-0.027-0.349
			c1.05,0.008,2.089,0.011,3.144-0.045c1.608-0.064,3.218-0.213,4.813-0.069c1.387,0.207,2.773,0.377,4.161,0.543
			c1.362,0.213,2.703,0.483,4.069,0.629c1.268,0.14,2.563,0.102,3.844,0.128c1.212,0.027,2.423,0.05,3.647,0.038
			c-0.014,4.057-0.227,8.116-0.428,12.184c-0.217,4.304-0.231,8.596-0.166,12.902c0.051,4.074,0.141,8.149,0.102,12.222
			c-0.038,4.189-0.319,8.366-0.346,12.556c-0.001,0.105,0.001,0.209,0,0.315c-0.726,0.252-1.438,0.535-2.122,0.876
			c-2.152,1.077-3.549,3.011-4.715,5.048c-1.115,1.947-1.679,4.15-1.679,6.394c0,0.986,0.141,1.972,0.346,2.934
			c0.436,1.985,2.114,3.549,3.779,4.548c1.704,1.013,3.703,1.193,5.625,1.449c0.602,0.078,1.217,0.129,1.832,0.167
			c2.344,0.141,4.702,0.179,7.059,0.153c4.343-0.027,8.648-0.192,12.979-0.525c4.651-0.359,9.263-0.975,13.85-1.806
			c3.203-0.576,6.521-0.897,9.609-1.999c1.948-0.691,3.805-1.511,5.267-3.022c0.614-0.627,1.307-1.513,1.666-2.358
			c0.013-0.038,0.563-1.114,0.654-1.615c0.255-1.383,0.294-1.845,0.026-3.204c-0.064-0.314-0.178-0.611-0.307-0.897
			c0.789-2.02,1.077-4.178,1.198-6.355c0.103-2.038,0.077-4.086,0.077-6.138c0-2.049-0.013-4.099-0.102-6.137
			c-0.166-3.576-0.5-7.137-0.666-10.711c-0.089-1.896-0.166-3.78-0.27-5.664c-0.077-1.639-0.268-3.268-0.384-4.907
			c-0.255-3.51-0.23-7.035-0.461-10.558c-0.115-1.677-0.268-3.357-0.372-5.048c-0.046-0.787-0.042-1.581-0.046-2.379
			c1.774-0.286,3.542-0.622,5.301-0.964c1.063-0.204,2.063-0.501,3.062-0.91c0.833-0.359,1.564-0.68,2.331-1.141
			c0.692-0.41,1.32-0.975,1.935-1.487c1.281-1.076,2.101-2.677,2.716-4.201c0.743-1.857,0.948-3.805,1.205-5.766
			c0.436-3.268,0.487-6.611,0.563-9.904c0.128-4.714,0.141-9.443,0.18-14.158C404.043,394.148,404.183,391.65,403.979,389.228z
			 M335.326,240.733c0.146-0.743,0.362-1.455,0.629-2.172c0.296-0.644,0.621-1.26,1.012-1.847c0.27-0.31,0.556-0.59,0.865-0.857
			c0.584-0.213,1.125-0.528,1.616-0.91c0.034-0.017,0.065-0.038,0.101-0.055c0.89-0.34,1.785-0.585,2.721-0.745
			c0.541-0.037,1.055-0.029,1.597,0.019c0.973,0.179,1.898,0.47,2.822,0.832c1.337,0.571,2.601,1.206,3.752,2.092
			c-0.128-0.102-0.255-0.204-0.385-0.308c0.603,0.461,1.154,0.897,1.859,1.192c1.037,0.45,2.14,0.512,3.254,0.501
			c1.364-0.026,2.672-0.119,4.032,0.017c1.663,0.304,3.252,0.847,4.82,1.477c1.053,0.482,2.062,1.004,3.026,1.672
			c1.512,1.039,3.191,1.345,4.985,1.524c0.811,0.087,1.624,0.147,2.435,0.243c1.054,0.175,2.064,0.416,3.054,0.779
			c0.475,0.224,0.927,0.466,1.368,0.761c0.345,0.309,0.657,0.635,0.957,0.985c0.437,0.649,0.819,1.317,1.162,2.013
			c0.172,0.415,0.355,0.826,0.568,1.228c0.397,0.756,1.051,1.383,1.717,1.909c0.922,0.743,1.934,1.306,2.958,1.884
			c1.005,0.56,1.949,1.18,2.887,1.843c1.063,0.901,2.075,1.82,2.982,2.873c0.321,0.468,0.603,0.941,0.847,1.446
			c0.153,0.466,0.28,0.934,0.381,1.414c0.112,1.313,0.005,2.602-0.152,3.903c-0.141,1.166-0.166,2.319,0.078,3.472
			c0.241,1.145,0.655,2.205,1.108,3.27c0.187,0.525,0.34,1.041,0.465,1.588c0.05,0.789,0.019,1.57-0.066,2.354
			c-0.221,1.513-0.505,3.061-1.001,4.502c-0.289,0.6-0.608,1.189-0.927,1.778c-0.474,0.871-0.858,1.781-1.192,2.703
			c-0.243,0.678-0.372,1.396-0.525,2.089c-0.244,1.162-0.616,2.283-1.056,3.38c-0.828,1.91-1.799,3.805-3.008,5.497
			c-0.65,0.741-1.371,1.413-2.021,2.155c-0.68,0.781-1.358,1.588-1.921,2.446c-0.837,1.29-1.58,2.643-2.476,3.887
			c-0.296,0.341-0.608,0.655-0.945,0.953c-0.453,0.3-0.916,0.565-1.405,0.809c-0.944,0.351-1.898,0.622-2.888,0.802
			c-1.684,0.111-3.408-0.046-5.089-0.243c-0.529-0.098-1.028-0.24-1.526-0.405c0.612-1.337,1.081-2.736,1.481-4.149
			c0.257-0.897,0.487-1.806,0.705-2.703c0.042-0.171,0.078-0.344,0.111-0.515c0.22-0.054,0.439-0.115,0.658-0.189
			c1.626-0.538,3.011-1.513,4.318-2.587c1.832-1.5,2.78-3.794,3.689-5.92c0.397-0.924,0.795-1.845,1.154-2.781
			c0.563-1.486,0.871-2.998,1.024-4.574c0.141-1.486-0.179-3.061-0.487-4.509c-0.308-1.537-0.884-3.036-1.589-4.433
			c-0.782-1.538-2.14-2.679-3.51-3.651c-1.192-0.833-2.69-1.398-4.125-1.64c-3.075-0.525-6.33,0.333-8.867,2.089
			c-1.819,1.268-3.164,2.999-4.331,4.857c-0.526,0.83-1.033,1.672-1.601,2.476c-0.017,0.018-0.033,0.034-0.051,0.052
			c-0.427,0.151-0.864,0.264-1.307,0.346c-0.089,0.001-0.179,0.003-0.267,0.004c-0.047-0.05-0.095-0.101-0.142-0.152
			c-0.362-0.535-0.667-1.086-0.944-1.67c-0.16-0.447-0.296-0.89-0.391-1.352c-0.005-0.135-0.005-0.272,0-0.406
			c0.098-0.503,0.23-0.977,0.405-1.458c0.598-1.184,1.36-2.262,1.991-3.429c0.474-0.872,0.975-1.782,1.307-2.716
			c0.629-1.782,0.397-3.614-0.102-5.406c-0.436-1.538-1.076-3.051-1.845-4.445c-0.795-1.449-1.934-2.754-3.088-3.933
			c-1.128-1.166-2.55-2.063-3.869-2.998c-1.077-0.756-2.267-1.32-3.395-1.999c-1.436-0.858-2.998-1.549-4.562-2.101
			c-0.653-0.231-1.345-0.359-1.998-0.563c-0.594-0.201-1.196-0.401-1.787-0.625c-0.132-0.07-0.261-0.143-0.386-0.224
			c-0.16-0.148-0.309-0.301-0.457-0.464c-0.391-0.561-0.75-1.137-1.072-1.737c-0.051-0.149-0.098-0.299-0.141-0.452
			C335.313,241.263,335.313,241.002,335.326,240.733z M333.69,253.087c0.82-0.305,1.641-0.534,2.482-0.717
			c1.004,0.424,2.036,0.788,3.049,1.174c1.443,0.646,2.867,1.363,4.272,2.109c1.469,0.792,2.879,1.744,4.238,2.74
			c0.995,0.795,1.947,1.611,2.791,2.568c0.641,0.917,1.194,1.873,1.667,2.895c0.142,0.39,0.258,0.775,0.345,1.177
			c0.003,0.198-0.004,0.395-0.018,0.589c-0.16,0.899-0.393,1.783-0.717,2.642c-0.294,0.666-0.595,1.332-0.876,2.011
			c-0.115,0.307-0.243,0.603-0.372,0.909c-0.423,1.012-0.627,2.038-0.756,3.139c-0.089,0.82,0.103,1.691,0.231,2.499
			c0.129,0.769,0.397,1.512,0.68,2.242c0.346,0.86,0.743,1.589,1.307,2.319c0.319,0.41,0.589,0.628,1.024,0.961
			c0.321,0.257,0.897,0.577,1.294,0.641c0.91,0.141,1.73,0.231,2.652,0.051c0.795-0.141,1.524-0.436,2.267-0.769
			c0.629-0.282,1.128-0.654,1.666-1.09c0.423-0.346,0.795-0.975,1.152-1.422c1.099-1.362,2.221-2.713,3.551-3.855
			c0.623-0.456,1.267-0.857,1.962-1.206c0.604-0.203,1.211-0.353,1.837-0.461c0.489-0.037,0.966-0.041,1.447-0.013
			c0.515,0.112,1.005,0.267,1.497,0.452c0.506,0.249,0.989,0.526,1.463,0.828c0.327,0.278,0.626,0.566,0.904,0.885
			c0.23,0.349,0.424,0.708,0.612,1.078c0.351,0.936,0.612,1.893,0.806,2.89c0.052,0.607,0.057,1.207,0.013,1.814
			c-0.252,1.217-0.653,2.368-1.116,3.516c-0.672,1.525-1.312,3.088-2.227,4.495c-0.305,0.345-0.626,0.66-0.973,0.959
			c-0.482,0.326-0.966,0.604-1.481,0.855c-0.208,0.07-0.413,0.132-0.622,0.181c-0.015,0-0.031,0-0.046-0.001
			c-0.036-0.004-0.073-0.01-0.107-0.014c-1.008-0.153-1.725-0.128-2.687,0.321c-0.973,0.461-1.615,1.524-1.883,2.525
			c-0.078,0.282-0.102,0.589-0.141,0.871c-0.078,0.461-0.18,0.924-0.282,1.371c-0.405,1.823-0.823,3.624-1.455,5.373
			c-0.526,1.081-1.104,2.101-1.802,3.068c-0.703,0.805-1.464,1.515-2.299,2.183c-1.265,0.929-2.574,1.769-4.003,2.446
			c-1.171,0.42-2.398,0.636-3.621,0.837c-1.608,0.197-3.227,0.349-4.845,0.326c-1.549-0.023-3.081-0.161-4.618-0.347
			c-1.005-0.165-1.986-0.364-2.967-0.588c-0.934-0.204-1.828-0.552-2.718-0.887c-2.28-1.037-4.559-2.16-6.618-3.582
			c-0.285-0.239-0.524-0.526-0.795-0.782c0.973-0.046,1.981-0.217,2.907-0.474c1.179-0.307,2.319-0.678,3.459-1.128
			c1.23-0.5,2.422-1.077,3.549-1.794c0.948-0.614,1.832-1.358,2.652-2.14c0.666-0.627,1.307-1.294,1.896-2.011
			c0.423-0.512,0.705-1.026,0.705-1.718c0-0.64-0.257-1.267-0.705-1.717c-0.464-0.464-1.118-0.712-1.767-0.712
			c-0.622,0-1.24,0.229-1.68,0.712c-0.793,0.874-1.608,1.696-2.504,2.451c-1.04,0.749-2.131,1.359-3.292,1.894
			c-1.622,0.641-3.3,1.168-5.019,1.455c-0.451,0.036-0.892,0.045-1.349,0.022c-0.46-0.093-0.91-0.229-1.367-0.377
			c-0.391-0.123-0.786-0.106-1.168-0.027c-0.733-1.921-1.358-3.868-1.808-5.881c-0.192-0.858-0.359-1.742-0.769-2.524
			c-0.654-1.254-1.64-2.011-3.024-2.216c-1.091-0.148-2.11-0.443-3.131-0.816c-1.288-0.595-2.514-1.257-3.688-2.05
			c-0.152-0.134-0.296-0.273-0.437-0.423c-0.004-0.008-0.009-0.015-0.013-0.024c-0.029-0.096-0.056-0.193-0.079-0.291
			c0.081-0.294,0.181-0.577,0.29-0.857c0.198-0.428,0.413-0.838,0.663-1.237c0.189-0.211,0.386-0.406,0.593-0.593
			c0.6-0.396,1.217-0.754,1.861-1.069c0.876-0.29,1.82-0.489,2.61-0.943c1.09-0.627,1.845-1.473,2.242-2.665
			c0.244-0.705,0.308-1.5,0.423-2.243c0.24-1.626,0.438-3.255,0.64-4.882c0.424-2.743,1.067-5.409,2.073-7.984
			c0.71-1.59,1.558-3.093,2.586-4.507c0.802-0.982,1.668-1.869,2.642-2.676C330.36,254.772,331.987,253.846,333.69,253.087z
			 M360.502,314.328c-0.436,0.772-0.902,1.527-1.418,2.237c-0.68,0.746-1.409,1.408-2.178,2.05
			c-0.542,0.388-1.095,0.727-1.695,1.009c-1.023,0.386-2.075,0.664-3.146,0.853c-0.949,0.081-1.898,0.018-2.855-0.074
			c-0.819-0.13-1.607-0.291-2.393-0.575c-0.671-0.308-1.313-0.668-1.924-1.095c-0.252-0.222-0.489-0.453-0.708-0.705
			c-0.189-0.281-0.322-0.589-0.496-0.878c0.392,0.041,0.784,0.1,1.177,0.13c1.755,0.141,3.485,0.115,5.24-0.014
			c0.948-0.064,1.896-0.179,2.832-0.307c0.692-0.089,1.371-0.204,2.063-0.321c1.166-0.204,2.191-0.614,3.268-1.09
			C359.052,315.216,359.785,314.785,360.502,314.328z M315.132,274.356c0.02-0.017,0.04-0.031,0.06-0.047
			c-0.019,0.017-0.038,0.031-0.057,0.047H315.132z M175.078,202.664c-2.009-1.624-3.823-3.402-5.483-5.375
			c-0.741-1.047-1.387-2.131-1.97-3.284c-0.452-1.261-0.793-2.529-1.042-3.841c-0.07-1.076-0.052-2.121,0.034-3.188
			c0.234-1.142,0.54-2.244,0.926-3.34c1.403-2.906,3.197-5.549,4.673-8.416c0.666-1.281,1.192-2.652,1.679-4.011
			c0.525-1.447,0.627-2.998,0.833-4.509c0.18-1.396-0.206-2.896-0.397-4.279c-0.153-1.166-0.602-2.319-1.012-3.421
			c-1.811-4.863-4.636-9.275-6.814-13.97c-0.406-1.094-0.72-2.202-0.944-3.344c-0.041-1.028-0.001-2.037,0.091-3.054
			c0.724-3.793,1.815-7.488,3.236-11.07c1.39-3.068,3.029-6.005,4.637-8.971c1.41-2.587,2.626-5.24,3.742-7.969
			c1.09-2.665,1.524-5.625,1.589-8.494c0.038-1.627-0.346-3.344-0.666-4.946c-0.294-1.524-0.769-3.01-1.268-4.484
			c-0.979-2.833-2.402-5.545-3.65-8.287c-1.194-3.477-2.085-6.967-2.644-10.595c-0.315-3.077-0.391-6.139-0.081-9.215
			c0.644-3.843,1.815-7.522,3.277-11.129c2.325-5.188,5.327-10.03,8.736-14.577c3.234-4.043,6.976-7.571,11.018-10.776
			c4.927-3.679,10.246-6.722,15.859-9.219c5.089-2.048,10.334-3.383,15.672-4.638c0.881-0.207,1.767-0.401,2.653-0.585
			c0.106-0.01,0.212-0.02,0.319-0.029c4.152-0.397,8.289-0.935,12.454-1.254c4.228-0.335,8.468-0.577,12.709-0.59
			c3.982-0.013,8.021-0.001,11.977,0.447c2.325,0.356,4.642,0.805,6.959,1.194c2.69,0.46,5.395,0.756,8.085,1.203
			c2.741,0.45,5.497,0.897,8.187,1.602c2.551,0.677,4.988,1.538,7.421,2.496c3.211,1.59,6.307,3.22,9.25,5.286
			c2.271,1.907,4.249,4.044,6.152,6.325c1.57,2.103,3.049,4.249,4.301,6.572c1.602,2.947,3.113,5.945,4.728,8.878
			c2.973,5.415,6.307,10.65,8.929,16.245c1.366,3.908,2.225,7.938,3.165,11.968c0.474,1.986,1.025,3.959,1.512,5.958
			c0.48,1.97,0.894,3.911,1.256,5.899c0.446,5.216,0.574,10.462,1.063,15.675c0.244,2.575,0.667,5.137,0.871,7.699
			c0.129,1.602,0.257,3.204,0.397,4.804c0.102,1.334,0.038,2.69,0.051,4.023c0.051,5.112-0.385,10.225,0.013,15.35
			c0.204,2.781,0.397,5.548,0.653,8.329c0.18,1.986,0.359,3.959,0.474,5.944c0.212,3.375-0.042,6.759-0.453,10.106
			c-0.406,2.787-0.876,5.581-1.493,8.319c-0.959,4.262-1.896,8.5-3.518,12.574c-1.903,4.169-4.329,8.082-7.085,11.74
			c-1.607,1.977-3.305,3.821-5.257,5.451c-0.916,0.645-1.846,1.221-2.833,1.73c-0.379,0.124-0.752,0.229-1.136,0.315
			c-0.156-0.094-0.309-0.193-0.462-0.296c-2.794-2.381-5.259-5.083-7.573-7.933c-0.908-1.284-1.736-2.579-2.428-3.983
			c-0.162-0.511-0.296-1.013-0.409-1.533c-0.014-0.346-0.013-0.694,0.005-1.039c0.492-2.594,1.47-5.025,2.419-7.504
			c0.731-1.922,1.205-3.984,1.358-6.047c0.166-2.101-0.089-4.099-0.436-6.188c-0.333-2.103-0.961-4.177-1.473-6.24
			c-0.528-2.11-0.968-4.244-1.325-6.388c-0.37-3.177-0.411-6.346-0.106-9.533c0.494-2.985,1.261-5.86,2.083-8.767
			c0.474-1.73,0.999-3.434,1.41-5.163c0.282-1.192,0.397-2.409,0.563-3.613c0.051-0.627,0.064-1.268,0.026-1.896
			c-0.089-0.769-0.192-1.537-0.308-2.307c-0.346-1.179-0.807-2.255-1.332-3.37c-0.448-0.961-1.32-1.806-1.985-2.614
			c-0.935-1.128-2.025-2.152-3.036-3.217c-1.491-1.549-2.907-3.164-4.26-4.83c-1.992-2.683-3.673-5.504-5.033-8.543
			c-0.846-2.205-1.509-4.415-2.02-6.729c-0.294-1.294-0.448-2.626-0.653-3.933c-0.18-1.179-0.654-2.293-1.23-3.343
			c-0.692-1.268-2.267-2.474-3.639-2.845c-1.281-0.359-2.486-0.167-3.767,0.026c-0.712,0.103-1.423,0.231-2.128,0.35
			c-4.463,0.511-8.987,0.735-13.465,1.059c-5.048,0.372-10.057,1.179-15.106,1.473c-5.061,0.294-10.135,0.397-15.208,0.501
			c-5.831,0.111-11.713,0.211-17.524-0.437c-1.62-0.273-3.191-0.671-4.781-1.128c-1.461-0.422-2.845-1.063-4.343-1.294
			c-1.896-0.307-3.805,0-5.24,1.422c-1.205,1.205-1.755,2.805-1.986,4.458c-0.257,1.782-0.346,3.537-0.448,5.331
			c-0.367,6.294,0.164,12.635-0.533,18.912c-0.146,0.742-0.321,1.449-0.544,2.181c-0.846,1.713-1.934,3.266-2.985,4.864
			c-0.922,1.383-1.781,2.805-2.51,4.318c-1,2.05-1.396,4.088-1.679,6.33c-0.295,2.267,0.128,4.663,0.359,6.931
			c0.153,1.538,0.372,3.05,0.602,4.574c0.904,5.945,1.985,11.852,2.929,17.798c0.987,7.511,2.048,15.163,1.303,22.733
			c-0.677,4.328-1.938,8.485-3.573,12.543c-1.21,2.798-2.564,5.479-4.336,7.963c-0.879,1.042-1.815,1.997-2.853,2.901
			c-0.772,0.545-1.556,1.039-2.394,1.486c-0.774,0.261-1.539,0.46-2.34,0.613c-0.734,0.041-1.45,0.051-2.186,0.011
			c-1.183-0.216-2.316-0.529-3.438-0.944C177.543,204.371,176.301,203.547,175.078,202.664z M296.069,147.353
			c0.095,3.215,0.63,6.371,1.257,9.513c-0.324,0.114-0.649,0.217-0.977,0.368c-1.437,0.671-2.405,1.873-3.323,3.104
			c-1.031,1.205-2.26,2.211-3.519,3.187c0.018-0.014,0.036-0.027,0.054-0.04c-0.055,0.041-0.109,0.084-0.164,0.128
			c-2.979,2.255-6.259,4.184-9.673,5.722c-1.971,0.789-3.945,1.558-5.949,2.238c-2.306,0.782-4.741,1.243-7.11,1.794
			c-4.371,1.007-8.743,1.754-13.168,2.403c-6.388,0.768-12.818,0.809-19.193,0.063c-2.632-0.415-5.198-0.991-7.753-1.786
			c-2.716-0.853-5.386-1.808-8.024-2.869c-2.57-1.179-4.988-2.542-7.3-4.162c-0.386-0.313-0.765-0.631-1.139-0.95
			c-0.061-0.052-0.124-0.091-0.185-0.141c-0.364-3.186-0.825-6.365-1.286-9.523c-0.461-3.153-1.064-6.279-1.653-9.404
			c-0.692-3.676-1.32-7.339-1.908-11.028c-0.301-2.485-0.664-4.978-0.483-7.473c0.153-0.65,0.345-1.274,0.568-1.898
			c0.958-1.816,2.11-3.5,3.297-5.161c0.346-0.487,0.68-0.961,1.026-1.447c1.152-1.589,1.896-3.319,2.588-5.151
			c0.436-1.152,0.538-2.473,0.718-3.678c0.268-1.87,0.448-3.742,0.563-5.623c0.077-1.268,0.051-2.55,0.077-3.818
			c0.038-2.306,0.026-4.612,0.115-6.919c0.046-1.271,0.065-2.552,0.101-3.832c0.176,0.038,0.351,0.079,0.528,0.117
			c2.807,0.614,5.676,0.999,8.533,1.165c3.217,0.192,6.419,0.372,9.623,0.45c6.124,0.141,12.273,0.346,18.385,0.217
			c6.022-0.128,12.018-0.704,18.027-0.948c2.896-0.115,5.791-0.282,8.674-0.46c1.792-0.114,3.586-0.263,5.355-0.558
			c0.123,0.62,0.241,1.243,0.373,1.864c0.436,2.037,1.088,4.023,1.806,5.971c1.473,4.035,3.536,7.777,5.983,11.275
			c2.547,3.625,5.609,6.793,8.449,10.166c0.279,0.402,0.524,0.801,0.751,1.229c0.034,0.125,0.069,0.25,0.104,0.377
			c0.017,0.502,0.013,1-0.014,1.519c-0.53,3.038-1.533,6-2.339,8.973C296.531,137.218,295.916,142.279,296.069,147.353z
			 M295.645,185.461c-0.175,0.416-0.282,0.86-0.339,1.354c-0.082,0.754-0.068,1.509-0.135,2.273
			c-0.437,2.46-1.313,4.762-2.266,7.067c-0.335,0.723-0.68,1.432-1.045,2.14c-0.487,0.948-1.115,1.833-1.704,2.716
			c-1.019,1.53-2.132,3.003-3.248,4.461c-0.487,0.585-0.971,1.159-1.505,1.716c-0.64,0.653-1.307,1.267-1.985,1.857
			c-1.304,1.129-2.629,2.237-3.965,3.314c-0.598,0.437-1.208,0.839-1.864,1.197c-0.436,0.243-0.91,0.45-1.358,0.654
			c-0.434,0.195-0.862,0.393-1.286,0.59c-4.73,1.92-9.67,3.351-14.674,4.301c-0.907,0.115-1.815,0.221-2.732,0.285
			c-1.281,0.089-2.524,0.116-3.793,0.102c-2.28-0.017-4.548-0.17-6.815-0.363c-1.165-0.156-2.336-0.318-3.473-0.603
			c-1.46-0.359-2.907-0.756-4.356-1.217c-2.832-0.906-5.626-1.926-8.394-3.008c-0.949-0.418-1.894-0.837-2.791-1.372
			c-1.188-0.717-2.324-1.463-3.436-2.276c-0.588-0.502-1.15-1.012-1.702-1.542c-0.685-0.659-1.281-1.443-1.889-2.179
			c-0.047-0.061-0.093-0.123-0.139-0.184c-0.081-0.123-0.167-0.239-0.263-0.349c-0.782-1.045-1.537-2.108-2.244-3.208
			c-1.012-1.549-1.896-3.164-2.78-4.779c-1.571-2.867-3.075-5.768-4.396-8.764c-0.531-1.345-0.994-2.715-1.474-4.078
			c0.474-2.373,0.752-4.758,0.861-7.148c0.115,0.073,0.221,0.156,0.337,0.229c2.253,1.396,4.728,2.448,7.169,3.478
			c0.057,0.369,0.16,0.737,0.337,1.086c0.299,0.589,0.577,1.192,0.846,1.797c1.465,3.871,2.998,7.703,5.214,11.22
			c2.178,3.459,4.881,6.482,8.008,9.109c0.986,0.82,2.011,1.626,3.062,2.37c2.012,1.435,4.394,2.395,6.764,3.036
			c2.229,0.603,4.626,0.91,6.919,1.039c4.228,0.231,8.508,0.027,12.594-1.141c3.356-0.935,6.804-2.089,9.724-3.998
			c1.626-1.05,3.151-2.37,4.535-3.728c1.884-1.833,3.574-3.805,4.817-6.138c0.743-1.396,1.371-2.869,2.038-4.304
			c0.603-1.32,1.192-2.666,1.704-4.023c0.461-1.23,0.871-2.46,1.294-3.702c0.346-1.064,0.743-2.127,1.025-3.204
			c0.052-0.203,0.01-0.404,0.033-0.608c2.086-1.003,4.126-2.087,6.041-3.34c1.565-1.028,3.049-2.243,4.408-3.544
			c-0.309,0.855-0.618,1.708-0.908,2.566C295.441,179.506,295.216,182.524,295.645,185.461z M225.936,185.2
			c0.42,0.139,0.83,0.308,1.254,0.438c3.151,0.961,6.547,1.41,9.815,1.794c5.676,0.654,11.467,0.793,17.167,0.346
			c6.279-0.501,12.53-1.383,18.758-2.382c1.265-0.202,2.515-0.516,3.767-0.82c-0.186,0.565-0.355,1.137-0.561,1.696
			c-0.438,0.989-0.892,1.974-1.363,2.955c-0.809,1.686-1.606,3.383-2.677,4.923c-1.409,1.691-3.036,3.242-4.742,4.636
			c-1.409,1.003-2.898,1.753-4.47,2.454c-1.183,0.483-2.379,0.967-3.601,1.323c-1.429,0.414-2.84,0.719-4.29,0.962
			c-3.03,0.249-6.012,0.207-9.029-0.08c-1.648-0.279-3.266-0.621-4.843-1.219c-1.728-0.833-3.257-1.926-4.779-3.079
			c-1.118-0.913-2.181-1.87-3.208-2.873c-0.913-0.899-1.721-1.909-2.51-2.925C228.814,190.775,227.233,188.076,225.936,185.2z
			 M120.862,286.962c-0.328-3.108-0.386-6.206-0.059-9.311c0.369-2.131,0.929-4.161,1.722-6.17
			c1.842-4.026,4.276-7.822,6.934-11.365c1.487-1.841,3.094-3.564,4.899-5.097c1.841-1.327,3.793-2.384,5.863-3.318
			c3.153-1.263,6.4-2.244,9.758-2.81c2.739-0.296,5.458-0.271,8.199,0.023c1.81,0.277,3.63,0.548,5.389,1.07
			c1.993,0.58,3.929,1.229,5.861,1.977c1.062,0.497,2.098,1.014,3.134,1.571c0.588,0.318,1.157,0.696,1.716,1.091
			c0.213,0.212,0.419,0.432,0.618,0.658c0.756,1.07,1.387,2.227,1.951,3.406c0.563,1.433,0.994,2.878,1.245,4.41
			c0.063,0.503,0.125,1.007,0.19,1.51c0.013,0.091,0.026,0.183,0.037,0.273c-0.001-0.01-0.003-0.023-0.004-0.032
			c0.004,0.028,0.008,0.059,0.011,0.087c0.047,0.354,0.093,0.712,0.142,1.068c0.02,0.152,0.041,0.305,0.061,0.457
			c0.134,1.382,0.194,2.766,0.091,4.147c-0.022,0.083-0.045,0.166-0.068,0.245c-0.047,0.026-0.095,0.05-0.142,0.075
			c-1.571,0.622-3.185,1.17-4.771,1.733c-2.306,0.821-4.664,1.474-7.008,2.154c-2.422,0.705-4.921,1.152-7.278,2.049
			c-2.524,0.948-4.856,2.639-5.932,5.176c-0.627,1.487-1.024,3.05-1.46,4.587c-0.308,1.114-0.552,2.242-0.795,3.37
			c-0.436,1.998-0.474,4.049-0.397,6.098c0.115,2.716,0.346,5.381,0.743,8.071c0.731,5.034,1.626,10.057,2.537,15.055
			c0.477,2.635,0.939,5.26,1.336,7.907c0.477,4.043,0.893,8.087,1.212,12.143c0.312,3.888-0.041,7.764-0.437,11.628
			c-0.165,1.082-0.336,2.163-0.498,3.233c-0.362,2.333-1.095,4.611-1.977,6.798c-0.511,1.118-1.074,2.179-1.76,3.204
			c-0.33,0.399-0.672,0.773-1.054,1.125c-0.146,0.091-0.295,0.178-0.45,0.257c-0.023,0.006-0.045,0.014-0.068,0.019
			c-0.336,0.01-0.662,0.005-1-0.013c-1.101-0.215-2.163-0.496-3.226-0.87c-0.567-0.278-1.101-0.584-1.617-0.936
			c-0.314-0.294-0.608-0.595-0.897-0.915c-0.285-0.433-0.535-0.875-0.765-1.339c-0.404-1.199-0.6-2.478-1.152-3.629
			c-0.692-1.422-2.267-2.395-3.869-2.395c-0.91,0-1.857,0.294-2.729,0.538c-1.234,0.349-2.427,0.741-3.673,1.012
			c-0.507,0.036-1.008,0.041-1.518,0.017c-0.318-0.069-0.63-0.149-0.944-0.244c-0.396-0.201-0.772-0.422-1.145-0.669
			c-0.167-0.156-0.33-0.318-0.488-0.485c-0.16-0.24-0.31-0.484-0.453-0.737c-0.038-0.128-0.075-0.254-0.107-0.383
			c0-0.027,0-0.054,0-0.081c0.041-0.149,0.083-0.295,0.13-0.441c0.478-0.893,1.036-1.742,1.256-2.753
			c0.333-1.512,0.18-2.396-0.026-3.896c-0.128-0.922-0.308-1.832-0.487-2.741c-0.379-1.841-0.783-3.675-1.087-5.52
			c-0.231-2.471-0.074-4.931,0.194-7.391c0.386-2.552,0.92-5.076,1.75-7.525c0.973-2.845,1.205-5.932,0.935-8.916
			c-0.268-2.959-0.999-5.74-1.972-8.533c-0.372-1.076-0.807-2.14-1.217-3.203c-0.68-1.769-1.422-3.524-2.089-5.292
			C122.745,294.518,121.496,290.843,120.862,286.962z M188.54,290.383c0.513,0.257,1.005,0.554,1.49,0.865
			c0.097,0.158,0.185,0.321,0.267,0.487c0.189,0.494,0.344,0.985,0.451,1.501c-0.066,0.29-0.143,0.571-0.231,0.855
			c-0.834,0.884-1.832,1.59-2.716,2.428c-0.423,0.397-0.769,0.897-1.064,1.396c-0.653,1.128-0.718,2.486-0.704,3.753
			c0.026,2.686,0.11,5.336-0.124,8.008c-0.106,0.625-0.254,1.234-0.406,1.843c-0.617-0.005-1.235,0.031-1.851-0.026
			c-0.648-0.119-1.271-0.289-1.897-0.512c-1.109-0.54-2.107-1.203-3.086-1.943c-0.926-0.736-1.81-1.501-2.596-2.395
			c-0.497-0.756-0.902-1.547-1.543-2.2c-0.49-0.506-1.173-0.764-1.859-0.764c-0.461,0-0.925,0.117-1.331,0.354
			c-0.986,0.576-1.575,1.857-1.217,2.985c0.372,1.165,0.718,2.357,1.383,3.408c0.576,0.883,1.217,1.717,1.985,2.446
			c0.589,0.552,1.268,1.026,1.921,1.487c0.782,0.576,1.589,1.088,2.46,1.537c1.484,0.783,3.067,1.205,4.707,1.426
			c-0.436,0.429-0.861,0.87-1.331,1.254c-0.612,0.423-1.248,0.786-1.92,1.099c-0.821,0.326-1.644,0.643-2.497,0.887
			c-1.199,0.332-2.423,0.537-3.647,0.727c-1.357,0.162-2.722,0.327-4.09,0.248c-0.932-0.18-1.852-0.42-2.781-0.63
			c-0.897-0.204-1.808-0.372-2.69-0.614c-0.538-0.141-1.05-0.333-1.575-0.512c-0.456-0.162-0.934-0.247-1.415-0.307
			c-0.397-2.054-0.798-4.109-1.124-6.178c-0.514-3.283-0.966-6.578-1.465-9.873c-0.184-1.51-0.34-3.02-0.419-4.54
			c-0.116-2.133-0.222-4.297-0.024-6.415c0.229-1.316,0.551-2.602,0.896-3.899c0.321-1.262,0.66-2.569,1.114-3.808
			c0.077-0.124,0.153-0.245,0.23-0.373c0.074-0.079,0.151-0.155,0.23-0.229c0.337-0.229,0.682-0.429,1.045-0.612
			c2.344-0.823,4.933-1.046,7.387-1.383c2.358-0.333,4.715-0.627,7.048-1.141c1.064-0.231,2.114-0.461,3.164-0.718
			c0.843-0.195,1.64-0.488,2.434-0.809c0.174,1.068,0.424,2.118,0.612,3.185c0.101,1.053,0.124,2.113,0.238,3.164
			c0.064,0.59,0.129,1.23,0.346,1.794c0.294,0.795,0.769,1.691,1.602,2.05c0.704,0.307,0.871,0.385,1.666,0.436
			c0.192,0.014,0.39-0.018,0.585-0.056c0.362-0.013,0.723,0.006,1.086,0.029C187.706,290.173,188.124,290.264,188.54,290.383z
			 M173.207,321.291c0.199-0.027,0.399-0.052,0.597-0.078c-0.245,0.032-0.492,0.065-0.737,0.098
			c0.068-0.009,0.135-0.019,0.203-0.028C173.25,321.286,173.228,321.289,173.207,321.291z M171.235,329.423
			c-0.323,0.657-0.64,1.313-1.06,1.912c-0.374,0.437-0.758,0.848-1.183,1.246c-0.144,0.096-0.293,0.186-0.445,0.27
			c-0.365,0.128-0.731,0.231-1.108,0.313c-0.259-0.003-0.514-0.017-0.769-0.036c-0.29-0.059-0.576-0.13-0.855-0.22
			c-1.137-0.594-2.198-1.36-3.291-2.037c-0.162-1.151-0.291-2.307-0.468-3.452c-0.011-0.079-0.029-0.155-0.042-0.234
			c1.267,0.466,2.538,0.924,3.825,1.362C167.616,329.164,169.406,329.399,171.235,329.423z M159.741,284.414
			c0.004-0.01,0.006-0.019,0.01-0.028h0.001C159.749,284.395,159.745,284.406,159.741,284.414z M145.644,478.305
			c-0.192,3.28-0.436,6.547-0.576,9.84c-0.102,2.373-0.088,4.755-0.069,7.137c-1.566,0.381-3.128,0.769-4.652,1.279
			c-0.973,0.321-1.91,0.719-2.845,1.102c-0.409,0.167-0.825,0.33-1.242,0.497c-0.065,0.001-0.13,0.003-0.194,0.003
			c-0.487,0-0.961,0.038-1.447,0.102c-0.064,0.009-0.126,0.018-0.189,0.027c0.022-0.643,0.017-1.285,0.063-1.925
			c0.18-2.78,0.448-5.561,0.589-8.34c0.289-5.603,0.11-11.237,0.539-16.833c1.641,0.073,3.286,0.1,4.904-0.096
			c1.863-0.22,3.714-0.424,5.568-0.623C145.945,473.083,145.8,475.695,145.644,478.305z M161.944,502.571
			c0.033-0.005,0.066-0.009,0.101-0.014c0.019-0.003,0.038-0.005,0.057-0.008C162.05,502.557,161.998,502.565,161.944,502.571z
			 M164.599,489.425c-1.986,0.321-3.959,0.961-5.869,1.602c-2.138,0.71-4.263,1.455-6.401,2.161
			c-0.046-1.894-0.084-3.793-0.139-5.685c-0.156-5.808-0.36-11.633-0.144-17.439c1.212-0.014,2.425-0.005,3.636-0.018
			c2.344-0.027,4.702-0.192,7.048-0.333c0.277-0.015,0.553-0.027,0.829-0.041c0.161,0.786,0.322,1.579,0.519,2.352
			c0.393,1.573,0.786,3.122,1.044,4.707c0.437,3.639,0.668,7.289,0.775,10.962c0.014,0.51,0.022,1.019,0.032,1.529
			C165.473,489.285,165.018,489.355,164.599,489.425z M182.367,455.769h-0.003c0.096-0.075,0.192-0.151,0.287-0.226
			C182.56,455.625,182.464,455.697,182.367,455.769z M176.386,373.169c-1.237,0.125-2.479,0.207-3.724,0.261
			c-1.653,0.064-3.319-0.051-4.932,0.358c-1.87,0.474-3.204,2.294-3.204,4.203c0,2.396,1.986,4.343,4.369,4.369
			c1.23,0.014,2.448-0.307,3.638-0.562c0.897-0.193,1.808-0.335,2.716-0.501c1.122-0.204,2.227-0.447,3.324-0.719
			c0.027,0.56,0.045,1.12,0.054,1.681c0.038,2.011,0.204,4.01,0.385,6.022c0.41,4.753,1.064,9.494,1.473,14.26
			c0.41,4.765,1.128,9.481,1.602,14.234c0.391,3.885,0.759,7.758,1.154,11.631c-0.009,0.126-0.038,0.243-0.038,0.373
			c0,0.487,0.089,0.963,0.216,1.429c0.036,0.344,0.065,0.687,0.102,1.031c0.41,3.702,0.795,7.392,0.795,11.121
			c0.005,3.174-0.298,6.349-0.674,9.494c-0.138,0.755-0.29,1.496-0.521,2.228c-0.285,0.588-0.6,1.154-0.954,1.71
			c-0.011,0.012-0.023,0.024-0.033,0.036c-0.715,0.172-1.44,0.309-2.167,0.427c-2.731,0.275-5.441,0.616-8.149,0.993
			c0.525-0.078,1.05-0.141,1.564-0.218c-5.535,0.654-11.147,0.935-16.708,1.295c-2.729,0.166-5.446,0.243-8.161,0.474
			c-3.013,0.266-6.014,0.909-8.994,1.433c-5.269,0.531-10.613,0.445-15.868-0.18c-1.535-0.241-3.029-0.567-4.485-1.09
			c-0.493-0.254-0.966-0.52-1.436-0.823c-0.211-0.185-0.413-0.376-0.607-0.575c-0.217-2.469-0.176-5-0.078-7.455
			c0.153-3.394,0.423-6.764,0.68-10.147c0.525-6.598,0.999-13.172,1.806-19.743c-0.052,0.37-0.103,0.742-0.155,1.114
			c0.764-5.657,1.494-11.326,2.255-16.984c0.869-6.408,1.76-12.814,2.651-19.223c0.889-6.355,1.731-12.717,2.92-19.029
			c0.694,0.133,1.405,0.197,2.096,0.27c1.653,0.166,3.408-0.233,4.985-0.692c0.789-0.232,1.544-0.548,2.27-0.924
			c0.05,0.12,0.1,0.24,0.152,0.359c0.576,1.332,1.46,2.46,2.395,3.549c0.973,1.114,2.344,1.972,3.638,2.652
			c1.576,0.832,3.319,1.345,5.048,1.73c1.602,0.346,3.126,0.282,4.715-0.026c0.769-0.155,1.538-0.628,2.216-0.986
			c0.68-0.372,1.281-0.935,1.845-1.435c1.063-0.935,1.896-2.267,2.601-3.459c0.909-1.538,1.537-3.255,2.127-4.932
			c0.846-2.37,1.307-4.857,1.627-7.341c0.166-1.281,0.385-2.563,0.474-3.858c0.192-2.485,0.474-5.023,0.359-7.52
			c-0.059-1.159-0.064-2.335-0.16-3.496c0.626,0.298,1.24,0.616,1.888,0.885c2.537,1.05,5.176,1.653,7.905,1.935
			c4.407,0.448,8.865,0.153,13.183-0.924c2.05-0.511,4.048-1.243,6.035-1.972c2.114-0.795,4.241-1.615,6.29-2.575
			c3.869-1.808,7.507-4.088,10.569-7.099c0.089-0.089,0.181-0.179,0.277-0.266c0.243-0.176,0.491-0.345,0.747-0.497
			c0.04-0.01,0.079-0.019,0.119-0.027c0.267-0.023,0.531-0.038,0.797-0.047c0.04,0.038,0.078,0.078,0.115,0.118
			c0.607,0.915,1.076,1.885,1.516,2.883c1.072,2.847,1.516,5.952,1.999,8.956c0.201,1.773,0.304,3.547,0.155,5.337
			c-0.068,0.296-0.149,0.586-0.243,0.876c-0.404,0.804-0.878,1.56-1.386,2.293c-0.977,1.174-2.057,2.255-3.098,3.374
			c-1.24,1.311-2.494,2.569-3.888,3.707c-1.592,1.17-3.265,2.248-4.939,3.326c-1.832,1.179-3.651,2.37-5.51,3.524
			c-2.025,1.267-4.062,2.511-6.086,3.766c-1.573,0.971-3.109,1.976-4.746,2.824C182.382,371.533,179.453,372.555,176.386,373.169z
			 M211.483,329.439c0.149,0.098,0.29,0.208,0.424,0.327c-0.134-0.103-0.273-0.207-0.413-0.313
			C211.491,329.448,211.487,329.443,211.483,329.439z M255.39,457.801c0,4.445-0.064,8.878-0.282,13.312
			c-0.185,3.569-0.513,7.12-0.705,10.684c-0.751-0.462-1.541-0.88-2.316-1.308c-2.729-1.512-5.612-2.433-8.699-2.781
			c-0.685-0.073-1.372-0.107-2.058-0.107c-2.738,0-5.456,0.563-7.987,1.62c-2.191,0.91-4.369,1.857-6.457,2.998
			c-0.372,0.201-0.723,0.433-1.093,0.637c-0.11-4.504-0.061-8.983,0.027-13.486c0.179-8.79,0.204-17.579,0.397-26.367
			c0.054-2.27,0.156-4.536,0.285-6.802c1.909-0.042,3.816-0.106,5.723-0.158c2.677-0.064,5.355-0.102,8.047-0.192
			c4.967-0.174,9.945-0.391,14.922-0.572c0.029,1.078,0.074,2.155,0.109,3.228c0.064,2.113,0.089,4.216,0.102,6.328
			C255.441,449.153,255.402,453.485,255.39,457.801z M272.288,446.774c-0.538,4.509-1.039,9.02-1.513,13.531
			c-0.487,4.702-0.922,9.378-1.064,14.105c-0.141,4.318,0,8.61,0.115,12.915c0.014,0.585,0.04,1.17,0.051,1.755
			c-0.798,0.897-1.551,1.838-2.25,2.832c-0.385,0.538-0.745,1.102-1.087,1.681c-0.05-0.1-0.079-0.208-0.132-0.305
			c-0.833-1.564-1.908-2.998-3.19-4.228c-0.227-0.227-0.474-0.433-0.71-0.654c0.189-3.25,0.365-6.502,0.604-9.748
			c0.166-2.256,0.397-4.509,0.589-6.751c0.192-2.216,0.243-4.445,0.308-6.677c0.115-4.24,0.077-8.481,0.18-12.709
			c0.102-4.267,0.257-8.533,0.346-12.811c0.042-1.541,0.093-3.095,0.068-4.645c2.823-0.028,5.645-0.042,8.468-0.027
			C273.119,438.972,272.751,442.86,272.288,446.774z M305.962,478.805c-2.44-0.862-5.051-1.291-7.649-1.291
			c-1.031,0-2.059,0.068-3.073,0.202c-2.435,0.321-4.677,0.884-6.931,1.819c-1.707,0.714-3.426,1.403-5.083,2.228
			c-0.086,0.014-0.172,0.027-0.259,0.04c-1.1,0.172-2.179,0.51-3.24,0.901c0.05-3.49,0.061-6.982,0.072-10.481
			c0.013-4.279,0.217-8.559,0.423-12.838c0.231-4.638,0.346-9.301,0.563-13.939c0.178-3.466,0.231-6.913,0.119-10.374
			c3.68,0.018,7.363,0.027,11.041-0.04c2.741-0.038,5.484-0.295,8.225-0.386c0.655-0.018,1.312-0.013,1.969-0.018
			c0.212,0.961,0.446,1.916,0.627,2.89c0.194,1.97,0.319,3.931,0.517,5.903c0.218,2.165,0.461,4.318,0.603,6.496
			c0.257,4.383,0.512,8.752,0.795,13.12c0.115,2.012,0.257,4.035,0.448,6.047c0.231,2.229,0.525,4.471,0.718,6.713
			c0.089,1.013,0.134,2.029,0.204,3.042C306.018,478.828,305.99,478.815,305.962,478.805z M328.393,378.613
			c-0.743,4.677-1.396,9.379-2.101,14.056c-0.756,5.125-1.602,10.237-2.204,15.374c-0.404,3.559-0.806,7.128-1.238,10.688
			c-0.248,1.631-0.568,3.246-0.871,4.865c-0.462-0.02-0.922-0.043-1.386-0.064c-1.64-0.078-3.242-0.129-4.881-0.064
			c-2.601,0.115-5.189,0.307-7.777,0.46c-2.626,0.167-5.278,0.104-7.917,0.192c-2.729,0.103-5.457,0.346-8.187,0.399
			c-2.845,0.064-5.688,0.064-8.533,0.077c-2.729,0.027-5.444,0.027-8.174,0.027c-2.998-0.013-5.995-0.013-8.98,0.013
			c-5.778,0.078-11.557,0.257-17.335,0.346c-5.701,0.077-11.377,0.102-17.078,0.064c-1.039,0-2.076,0-3.114,0
			c-1.73,0-3.459,0-5.189-0.051c-2.901-0.084-5.77-0.264-8.653-0.456c-2.922-0.18-5.867-0.294-8.789-0.551
			c-3.049-0.27-6.098-0.59-9.148-0.884c-1.313-0.129-2.63-0.176-3.946-0.176c-0.621,0-1.24,0.034-1.86,0.052
			c-0.28-2.523-0.562-5.046-0.897-7.564c-0.654-4.945-1.281-9.866-1.64-14.849c-0.166-2.267-0.41-4.522-0.602-6.778
			c-0.193-2.319-0.321-4.624-0.461-6.944c-0.129-2.09-0.217-4.178-0.538-6.253c-0.124-0.764-0.395-1.498-0.536-2.246
			c-0.003-0.024-0.008-0.049-0.012-0.074c2.671-0.838,5.313-1.76,7.794-3.076c3.908-2.089,7.739-4.279,11.608-6.418
			c1.96-1.09,3.895-2.191,5.816-3.344c2.768-1.666,5.176-3.919,7.38-6.277c1.102-1.166,2.14-2.37,3.036-3.702
			c0.875-1.294,1.447-2.745,1.802-4.249c0.505,0.075,1.014,0.079,1.509-0.082c1.09-0.358,2.242-0.627,3.344-0.922
			c0.718-0.18,1.436-0.359,2.152-0.538c1.383-0.346,2.677-0.911,3.959-1.5c1.896-0.871,3.895-1.845,5.471-3.217
			c1.564-1.371,2.69-3.19,3.381-5.137c0.321-0.884,0.461-1.73,0.577-2.652c0.02-0.16,0.029-0.322,0.032-0.484
			c0.195-0.186,0.388-0.376,0.57-0.58c0.705-0.781,1.294-1.704,1.833-2.614c0.999-1.717,1.601-3.536,1.703-5.521
			c0.038-0.807-0.153-1.718-0.448-2.474c-0.199-0.517-0.4-0.984-0.671-1.435c0.489-1.139,0.975-2.283,1.414-3.446
			c0.627-1.652,1.154-3.37,0.999-5.176c-0.206-2.266-1.435-4.753-3.742-5.51c-2.754-0.922-5.612,0.82-7.905,2.178
			c-1.403,0.814-2.859,1.57-4.329,2.246c-0.499,0.192-0.991,0.347-1.514,0.456c-0.139,0.003-0.279,0-0.416-0.008
			c-0.135-0.031-0.27-0.069-0.404-0.11c-0.014-0.008-0.027-0.017-0.041-0.024c-0.118-0.114-0.233-0.23-0.346-0.35
			c-0.198-0.308-0.37-0.627-0.528-0.961c-0.432-1.073-0.843-2.151-1.34-3.21c-0.461-0.975-1.012-1.845-1.742-2.652
			c-0.397-0.437-0.922-0.846-1.396-1.166c-0.663-0.457-1.597-0.916-2.441-0.916c-0.054,0-0.107,0.003-0.16,0.006
			c-1.487,0.102-3.011,0.64-4.087,1.717c-0.68,0.678-1.243,1.435-1.819,2.191c-0.782,1.013-1.461,2.103-2.14,3.191
			c-1.307,2.113-2.076,4.6-2.819,6.956c-0.324,1.035-0.549,2.081-0.734,3.135c-0.13-0.023-0.252-0.054-0.385-0.073
			c-0.712-0.103-1.398-0.181-2.105-0.181c-0.172,0-0.346,0.005-0.521,0.015c-0.603,0.037-1.205,0.153-1.806,0.243
			c-1.422,0.204-2.652,1.05-3.754,1.909c-1.019,0.796-1.999,1.64-3.01,2.448c-1.928,1.412-3.915,2.709-6.049,3.817
			c-2.297,1.191-4.638,2.279-7.003,3.312c-1.206,0.475-2.417,0.924-3.67,1.275c-1.473,0.397-2.957,0.704-4.456,0.973
			c-0.963,0.121-1.93,0.221-2.911,0.231c-0.631,0.011-1.251-0.054-1.875-0.078c0.091-0.093,0.194-0.172,0.284-0.267
			c0.846-0.897,1.691-1.859,2.242-2.973c0.692-1.357,1.491-2.95,1.523-4.536c0.273-0.059,0.56-0.087,0.828-0.155
			c2.703-0.68,5.151-2.114,7.265-3.895c0.794-0.666,1.524-1.474,2.191-2.256c0.846-0.999,1.474-2.076,2.076-3.217
			c0.397-0.781,0.743-1.575,1.024-2.409c0.206-0.614,0.243-1.435,0.321-2.049c0.128-0.91,0.217-1.806,0.268-2.716
			c0.115-1.782-0.077-3.561-0.243-5.331c-0.16-1.662-0.425-3.325-0.437-4.993c0.153-0.06,0.308-0.125,0.462-0.194
			c0.846-0.398,1.615-0.999,2.267-1.679c1.192-1.243,2.204-2.638,2.511-4.369c0.179-1.063,0.294-2.025,0.115-3.088
			c-0.064-0.448-0.153-0.883-0.268-1.32c-0.337-1.197-0.843-2.367-1.567-3.385c0.254-0.387,0.45-0.772,0.651-1.355
			c0.051-0.166,0.077-0.346,0.128-0.525c0.129-0.511,0.257-1.024,0.397-1.524c0.138-0.498,0.295-0.99,0.439-1.486
			c0.115-0.144,0.271-0.25,0.351-0.425c0.64-1.383,1.436-2.69,2.089-4.062c0.68-1.383,1.192-2.845,1.704-4.291
			c0.986-2.73,2.101-5.406,3.036-8.149c0.448-1.32,0.846-2.665,1.307-3.998c0.474-1.409,1.088-2.792,1.652-4.177
			c1.09-2.689,2.127-5.406,3.255-8.084c-0.003,0.005-0.005,0.01-0.006,0.015c0.534-1.283,1.063-2.566,1.557-3.859
			c0.525-1.371,0.935-2.794,1.396-4.19c0.871-2.626,1.935-5.2,2.947-7.79c0.333-0.858,0.078-2.011-0.372-2.781
			c-0.474-0.807-1.256-1.42-2.165-1.666c-0.316-0.086-0.639-0.129-0.962-0.129c-0.636,0-1.266,0.165-1.818,0.488
			c-0.102,0.06-0.147,0.149-0.238,0.216c-0.087,0.045-0.133,0.132-0.209,0.19c-0.551,0.48-0.939,1.045-1.22,1.759
			c-0.958,2.407-1.93,4.797-2.818,7.224c-0.017,0.04-0.033,0.079-0.05,0.119c-1.154,2.794-2.242,5.625-3.37,8.431
			c-2.181,5.456-4.191,10.973-6.445,16.398c-1.334,3.091-2.706,6.159-4.139,9.2c-0.82,1.73-1.575,3.486-2.293,5.266
			c-0.563,1.422-0.986,2.896-1.575,4.305c0.075-0.172,0.151-0.345,0.225-0.515c-0.102,0.245-0.202,0.496-0.303,0.743
			c-0.232-1.472-0.602-2.907-0.799-4.389c-0.159-1.356-0.302-2.717-0.456-4.07c0.319-0.561,0.604-1.141,0.787-1.737
			c0.294-0.935,0.461-1.896,0.602-2.87c0.192-1.32,0.41-2.665,0.295-4.011c-0.129-1.615-0.397-3.19-0.858-4.741
			c-0.372-1.216-0.935-2.382-1.461-3.547c-0.436-0.975-0.935-1.923-1.551-2.807c-1.192-1.741-2.524-3.445-4.048-4.907
			c-1.589-1.524-3.447-2.73-5.369-3.78c-0.597-0.33-1.194-0.575-1.799-0.804c0.176-0.465,0.356-0.922,0.547-1.377
			c1.069-2.362,2.313-4.637,3.47-6.975c1.154-2.319,2.204-4.689,3.242-7.073c1.205-2.767,2.459-5.521,3.716-8.264
			c0.869-1.893,1.659-3.836,2.693-5.641c0.77-0.167,1.529-0.356,2.25-0.583c2.524-0.78,4.843-2.28,6.855-3.97
			c3.268-2.755,5.74-6.253,7.7-10.033c0.985-1.887,1.848-3.86,2.63-5.871c1.395,3.059,3.031,6.021,4.718,8.918
			c0.833,1.461,1.768,2.869,2.754,4.24c0.257,0.346,0.5,0.705,0.769,1.05c0.137,0.176,0.277,0.355,0.418,0.535
			c0.287,0.445,0.648,0.866,0.954,1.234c0.614,0.729,1.23,1.422,1.883,2.113c0.512,0.539,1.102,0.999,1.679,1.461
			c0.807,0.627,1.626,1.268,2.499,1.819c1.626,1.013,3.279,1.947,5.06,2.639c1.717,0.678,3.434,1.268,5.176,1.857
			c1.564,0.512,3.126,1.013,4.702,1.473c1.626,0.488,3.279,0.975,4.97,1.268c1.986,0.346,3.972,0.627,5.996,0.756
			c1.756,0.129,3.523,0.153,5.292,0.192c1.652,0.027,3.279-0.089,4.932-0.204c0.807-0.065,1.627-0.218,2.435-0.321
			c0.999-0.129,2.012-0.294,2.973-0.525c1.653-0.41,3.293-0.833,4.921-1.307c1.64-0.487,3.305-0.934,4.894-1.55
			c1.742-0.654,3.485-1.332,5.163-2.154c1.473-0.718,2.845-1.512,4.113-2.575c0.653-0.552,1.332-1.09,1.972-1.666
			c1.281-1.141,2.626-2.267,3.805-3.537c1.294-1.396,2.448-2.907,3.6-4.42c2.012-2.665,4.048-5.368,5.471-8.404
			c0.602-1.29,1.184-2.602,1.725-3.931c0.844,1.201,1.749,2.367,2.662,3.536c0.961,1.23,2.012,2.409,3.1,3.549
			c1.115,1.179,2.28,2.293,3.485,3.381c1.152,1.039,2.409,2.012,3.831,2.626c1.152,0.501,2.331,0.884,3.613,0.897
			c1.498,0,2.934-0.217,4.369-0.627c1.093-0.308,2.143-0.774,3.16-1.326c0.013,0.042,0.017,0.086,0.028,0.129
			c0.282,0.985,0.666,1.934,0.973,2.92c0.346,1.101,0.474,2.307,0.68,3.447c0.423,2.37,1.409,4.587,2.127,6.867
			c0.731,2.293,1.307,4.6,1.897,6.919c0.346,1.383,0.551,2.794,0.858,4.177c0.318,1.362,1.007,2.345,1.883,3.402
			c-0.221,0.271-0.452,0.525-0.668,0.81c-0.769,1.025-1.358,2.215-1.819,3.421c-0.461,1.243-0.718,2.563-0.678,3.895
			c0.064,1.486,0.563,2.907,1.166,4.254c0.207,0.47,0.438,0.927,0.7,1.364c-0.392,0.158-0.782,0.324-1.174,0.493
			c-1.91,0.82-3.78,1.677-5.446,2.934c-2.052,1.56-3.694,3.455-5.126,5.563c-0.604-1.851-1.141-3.724-1.613-5.59
			c-0.385-1.512-0.718-3.05-1.154-4.549c-0.461-1.602-0.986-3.191-1.396-4.817c-0.41-1.588-0.807-3.177-1.332-4.741
			c-0.64-1.845-1.461-3.639-2.255-5.419c-1.345-2.999-2.652-6.009-4.177-8.918c-0.553-1.054-1.695-1.613-2.838-1.613
			c-0.577,0-1.156,0.142-1.658,0.436c-1.589,0.934-1.999,2.907-1.166,4.497c0.465,0.885,0.892,1.791,1.297,2.707
			c1.106,2.689,2.22,5.381,3.264,8.108c1.024,2.69,1.564,5.51,2.293,8.289c0.359,1.369,0.82,2.716,1.217,4.086
			c0.397,1.396,0.782,2.805,1.179,4.216c0.719,2.551,1.496,5.129,1.906,7.75c0.038,0.296,0.077,0.59,0.119,0.884
			c0.078,0.563,0.321,1.077,0.589,1.575c0.441,0.793,1.179,1.349,2.015,1.648c-0.769,2.928-1.101,5.955-1.387,8.97
			c-0.261,0.082-0.52,0.17-0.778,0.272c-0.871,0.359-1.666,0.77-2.448,1.295c-0.807,0.538-1.549,1.152-2.178,1.896
			c-0.846,1.024-1.358,2.089-1.832,3.319c-0.319,0.858-0.448,1.794-0.563,2.677c-0.102,0.846,0,1.615,0.141,2.448
			c0.064,0.307,0.18,0.614,0.321,0.91c0.23,0.576,0.448,1.012,0.82,1.513c0.769,0.999,1.717,1.691,2.794,2.344
			c1.473,0.872,3.14,1.602,4.779,2.127c0.563,0.192,1.141,0.346,1.73,0.461c0.238,0.05,0.48,0.086,0.723,0.124
			c0.187,1.564,0.442,3.102,0.852,4.629c0.474,1.782,1.243,3.576,2.089,5.202c0.82,1.575,1.909,3.011,3.1,4.318
			c1.627,1.769,3.665,3.088,5.74,4.241c2.887,1.598,5.883,3.098,9.113,3.849c0.033,0.309,0.117,0.612,0.266,0.917
			c0.501,1.039,1.012,2.063,1.627,3.024c0.558,0.879,1.331,1.576,2.179,2.181c-3.417-0.13-6.842-0.322-10.246-0.636
			c-3.365-0.516-6.69-1.297-10.071-1.721c-1.806-0.231-3.613-0.384-5.432-0.41c-0.148-0.004-0.295-0.005-0.442-0.006
			c-0.759,0-1.511,0.057-2.262,0.187c-0.651,0.114-1.265,0.308-1.845,0.572c-0.282-1.856-0.772-3.615-1.574-5.347
			c-0.551-1.216-1.371-2.28-2.14-3.37c-1.179-1.626-2.499-3.036-4.382-3.831c-1.248-0.528-2.643-0.869-4.019-0.869
			c-0.927,0-1.846,0.153-2.707,0.51c-2.46,1.012-3.984,3.343-4.203,5.958c-0.161,1.837-0.084,3.685-0.152,5.52
			c-0.612-0.011-1.221,0.019-1.847,0.091c-2.293,0.27-4.458,0.999-5.867,2.947c-1.294,1.794-1.345,3.92-1.051,6.035
			c0.064,0.372,0.115,0.756,0.193,1.128c0.001,0.009,0.004,0.017,0.005,0.024c-0.164,0.28-0.319,0.562-0.453,0.861
			c-0.589,1.306-0.833,2.587-0.948,4.023c-0.115,1.461,0.217,2.998,0.743,4.356c0.602,1.537,1.524,2.818,2.614,4.048
			c0.795,0.897,1.717,1.704,2.69,2.409c1.039,0.729,2.165,1.268,3.33,1.73c1.691,0.68,3.472,0.924,5.267,1.09
			c2.37,0.206,4.817,0.385,7.148-0.204c1.166-0.282,2.267-0.641,3.37-1.152c0.233-0.107,0.436-0.254,0.65-0.387
			c0.934,0.994,2.046,1.837,3.18,2.533c1.576,0.975,3.408,1.575,5.19,2.025c0.922,0.231,1.845,0.436,2.78,0.641
			c3.33,0.718,6.726,0.922,10.096,1.318c1.373,0.166,2.746,0.355,4.12,0.474c-0.819,3.909-1.755,7.785-2.781,11.65
			C330.212,369.235,329.15,373.886,328.393,378.613z M233.22,320.771c2.14-0.372,4.112-1.537,6.022-2.563
			c1.189-0.646,2.34-1.442,3.565-2.044c0.008-0.003,0.015-0.005,0.023-0.008c-0.047,0.148-0.098,0.296-0.152,0.446
			c-0.66,1.428-1.458,2.78-2.243,4.129c-0.654,1.115-1.32,2.216-1.396,3.549c-0.051,0.986,0.243,1.857,0.666,2.73
			c0.174,0.365,0.408,0.696,0.623,1.039c-0.089,0.359-0.201,0.708-0.327,1.058c-0.56,1.224-1.147,2.428-1.629,3.694
			c-0.257,0.654-0.346,1.371-0.41,2.062c-0.059,0.585-0.005,1.156-0.017,1.74c-0.05,0.164-0.103,0.322-0.161,0.479
			c-0.263,0.496-0.553,0.957-0.865,1.417c-0.276,0.319-0.561,0.616-0.869,0.899c-1.286,0.862-2.714,1.489-4.131,2.117
			c-0.986,0.383-1.97,0.7-3.028,0.931c-0.743,0.167-1.512,0.295-2.267,0.436c-0.705,0.129-1.409,0.244-2.101,0.386
			c-0.331,0.07-0.613,0.203-0.913,0.313c-0.061-0.392-0.106-0.786-0.193-1.173c-0.705-3.073-1.704-6.086-2.575-9.109
			c-0.507-1.735-1.337-3.37-2.256-4.932c0.155-0.434,0.24-0.897,0.301-1.41c0.069-0.59,0.143-1.175,0.218-1.763
			c0.271-1.633,0.705-3.209,1.165-4.797c0.427-1.435,0.835-2.868,1.377-4.27c0.608-1.251,1.23-2.505,1.903-3.729
			c0.033,0.066,0.066,0.133,0.1,0.201c0.41,1.064,0.75,2.161,1.155,3.224c0.512,1.332,1.243,2.524,2.344,3.445
			C228.824,320.695,231.067,321.143,233.22,320.771z M231.5,314.787h0.001c0.069,0.028,0.137,0.057,0.206,0.086
			C231.637,314.847,231.568,314.817,231.5,314.787z M246.609,325.41c0.038-0.091,0.078-0.181,0.116-0.272v0.003
			C246.685,325.23,246.646,325.319,246.609,325.41z M312.215,285.619c-0.004-0.009-0.008-0.017-0.013-0.026v-0.001
			C312.207,285.601,312.211,285.61,312.215,285.619z M312.188,285.555c0,0.001,0,0.004,0,0.004c-0.05-0.106-0.094-0.218-0.133-0.335
			C312.096,285.333,312.142,285.444,312.188,285.555z M306.308,338.617c0.009,0.31,0.032,0.627,0.045,0.941
			c-0.397,0.119-0.792,0.24-1.184,0.369c-1.036,0.346-2.071,0.7-3.142,0.908c-2.037,0.197-4.149,0.142-6.188-0.088
			c-0.729-0.146-1.435-0.364-2.132-0.625c-0.62-0.299-1.201-0.639-1.764-1.03c-0.671-0.562-1.288-1.168-1.862-1.833
			c-0.189-0.277-0.362-0.556-0.521-0.848c-0.121-0.35-0.221-0.7-0.3-1.065c-0.015-0.31-0.013-0.616,0.004-0.93
			c0.068-0.318,0.152-0.627,0.254-0.936c0.16-0.294,0.332-0.575,0.524-0.853c0.301-0.354,0.618-0.718,0.842-1.091
			c0.627-1.077,0.64-2.229,0.359-3.408c-0.176-0.724-0.401-1.408-0.557-2.122c-0.012-0.19-0.017-0.379-0.012-0.568
			c0.001-0.003,0.001-0.004,0.003-0.005c0.041-0.026,0.081-0.047,0.121-0.072c0.613-0.215,1.229-0.367,1.866-0.48
			c1.263-0.092,2.646-0.046,3.742-0.699c0.795-0.461,1.371-1.281,1.538-2.165c0.115-0.576,0.089-1.141,0.078-1.717
			c-0.063-2.039-0.206-4.101,0.014-6.129c0.041-0.24,0.091-0.476,0.152-0.715c0.045-0.078,0.092-0.153,0.141-0.229
			c0.125-0.143,0.258-0.279,0.398-0.406c0.049-0.028,0.097-0.056,0.147-0.083c0.063-0.017,0.126-0.033,0.192-0.051
			c0.345-0.017,0.68-0.008,1.019,0.023c0.629,0.133,1.237,0.29,1.84,0.496c0.319,0.158,0.621,0.335,0.916,0.538
			c0.846,0.75,1.597,1.607,2.308,2.501c0.612,0.834,1.146,1.691,1.59,2.619c0.369,0.976,0.631,1.963,0.815,2.998
			c0.055,0.58,0.102,1.147,0.102,1.732c0,0.496,0.189,0.931,0.451,1.316c-0.383,0.91-0.722,1.848-0.913,2.804
			C306.461,331.327,306.206,334.939,306.308,338.617z M298.545,312.937c-0.054,0.069-0.106,0.135-0.158,0.203
			c0.047-0.068,0.097-0.133,0.149-0.197C298.536,312.943,298.542,312.938,298.545,312.937z M298.542,312.936
			c0.022-0.027,0.043-0.052,0.065-0.079c-0.019,0.024-0.037,0.049-0.056,0.073C298.548,312.932,298.545,312.933,298.542,312.936z
			 M299.011,312.667c0.142-0.07,0.29-0.132,0.442-0.183c-0.147,0.061-0.293,0.121-0.436,0.181
			C299.018,312.666,299.013,312.667,299.011,312.667z M361.849,456.31c-0.026,3.753-0.089,7.482-0.206,11.224
			c-0.089,3.306-0.179,6.611-0.128,9.917c0.036,2.792,0.088,5.607,0.024,8.413c-2.497-0.405-4.997-0.789-7.511-1.018
			c-0.97-0.091-1.928-0.129-2.884-0.129c-1.318,0-2.634,0.07-3.969,0.167c-1.486,0.098-2.962,0.162-4.439,0.261
			c0.013-2.095,0.051-4.189,0.077-6.284c0.064-4.113,0.038-8.213-0.038-12.313c-0.089-4.331-0.268-8.661-0.155-12.991
			c0.115-4.203,0.346-8.418,0.448-12.62c0.029-1.354,0.036-2.703,0.04-4.051c1.847,0.073,3.693,0.151,5.548,0.181
			c4.583,0.049,9.168-0.052,13.762-0.119C362.257,443.402,361.907,449.857,361.849,456.31z M381.453,464.947
			c-0.077,3.869-0.282,7.713-0.563,11.57c-0.257,3.362-0.397,6.735-0.778,10.089c-0.111,0.646-0.277,1.267-0.445,1.889
			c-4.009-0.666-8.029-1.263-12.061-1.689c-0.001-0.043-0.003-0.087-0.004-0.132c-0.102-3.486-0.155-6.957-0.038-10.443
			c0.103-3.343,0.487-6.676,0.705-10.006c0.257-3.742,0.423-7.482,0.563-11.224c0.243-6.111,0.612-12.215,0.764-18.335
			c0.298-0.019,0.594-0.015,0.893-0.036c2.255-0.166,4.497-0.372,6.753-0.512c0.823-0.047,1.636-0.174,2.454-0.243
			c0.004,0.022,0.006,0.041,0.01,0.061c-0.003-0.02-0.005-0.041-0.008-0.061h0.001c0.008,0.055,0.015,0.11,0.022,0.165
			c0.01,0.065,0.019,0.13,0.028,0.194c-0.008-0.051-0.015-0.102-0.023-0.152c0.303,2.261,0.659,4.513,0.985,6.767
			c0.415,3.516,0.519,7.065,0.755,10.592C381.721,457.286,381.529,461.103,381.453,464.947z M393.691,401.028
			c-0.184,6.47,0.004,13.012-0.76,19.468c-0.149,0.832-0.33,1.633-0.586,2.425c-0.006,0.012-0.013,0.024-0.019,0.035
			c-0.083,0.086-0.169,0.171-0.257,0.254c-0.27,0.167-0.545,0.322-0.828,0.466c-1.804,0.574-3.702,0.841-5.558,1.194
			c-1.369,0.257-2.731,0.521-4.098,0.752c-1.82,0.201-3.642,0.364-5.474,0.516c-1.768,0.153-3.536,0.397-5.304,0.563
			c-4.112,0.397-8.225,0.538-12.337,0.678c-3.831,0.128-7.662,0.358-11.493,0.321c-4.058-0.05-8.174-0.028-12.216-0.468
			c-0.685-0.12-1.35-0.272-2.025-0.473c-0.202-0.109-0.4-0.222-0.594-0.344l-0.003-0.003c-0.125-0.187-0.245-0.374-0.364-0.563
			c0.009-0.096,0.019-0.193,0.029-0.291c0.414-2.947,0.875-5.879,1.206-8.84c0.296-2.597,0.634-5.193,0.973-7.791
			c0.696-4.887,1.57-9.728,2.358-14.592c0.811-4.955,1.446-9.945,2.106-14.914c0.672-4.365,1.598-8.666,2.582-12.979
			c0.985-4.288,1.852-8.582,2.674-12.893c0.281,0.022,0.562,0.047,0.844,0.065c1.589,0.089,3.228-0.115,4.817-0.243
			c2.729-0.217,5.457-0.474,8.149-1.063c2.049-0.461,4.086-1.039,6.098-1.64c1.256-0.372,2.14-1.486,2.14-2.805
			c0-0.769-0.308-1.513-0.846-2.05c-0.499-0.5-1.345-0.934-2.063-0.858c-1.652,0.192-3.305,0.399-4.958,0.614
			c-1.498,0.192-2.985,0.295-4.497,0.282c-0.82-0.013-1.64-0.051-2.448-0.089c-1.422-0.051-2.856-0.037-4.279-0.037
			c-1.113-0.012-2.216-0.126-3.326-0.264c-1.721-0.272-3.453-0.508-5.194-0.671c-1.58-0.134-3.162-0.224-4.753-0.388
			c-2.623-0.34-5.252-0.643-7.874-0.966c-2.907-0.457-5.904-0.938-8.671-1.969c-0.644-0.309-1.256-0.663-1.852-1.067
			c-0.287-0.252-0.557-0.517-0.816-0.796c-0.05-0.078-0.097-0.155-0.143-0.234c-0.126-0.416-0.215-0.837-0.291-1.263
			c-0.079-1.055-0.107-2.103-0.096-3.171c0.009-0.843,0.102-1.679,0.208-2.513c0.29-1.431,0.631-2.824,1.137-4.189
			c0.151-0.305,0.317-0.603,0.502-0.892c0.222-0.063,0.443-0.115,0.669-0.162c3.139-0.299,6.317-0.264,9.449-0.06
			c1.551,0.102,3.1,0.218,4.651,0.321c1.549,0.089,3.113-0.027,4.664-0.102c3.075-0.167,6.137-0.333,9.199-0.614
			c3.113-0.282,6.19-0.681,9.278-1.143c0.443-0.05,0.899-0.101,1.355-0.138c0.773-0.056,1.406-0.56,1.562-1.304
			c0.008-0.003,0.017-0.004,0.024-0.006c1.972-0.666,3.574-1.923,5.1-3.306c1.024-0.935,1.845-2.089,2.614-3.241
			c1.095-1.668,2.158-3.342,3.075-5.108c1.054,0.224,2.115,0.388,3.176,0.521c1.768,0.231,3.6,0.399,5.369,0.18
			c1.123-0.128,2.181-0.41,3.214-0.77c0.301,1.001,0.553,2.025,0.844,3.019c0.64,2.178,1.268,4.356,1.87,6.547
			c0.614,2.256,1.205,4.536,1.589,6.841c0.397,2.333,0.628,4.689,1.039,7.008c0.448,2.486,1.025,4.908,1.73,7.329
			c0.64,2.178,1.294,4.342,1.742,6.56c0.512,2.577,0.948,5.163,1.41,7.751c0.423,2.37,0.948,4.714,1.473,7.059
			c0.494,2.279,0.838,4.585,1.192,6.89c0.557,4.299,1.105,8.596,1.751,12.883c0.125,1.07,0.239,2.145,0.298,3.224
			c0.077,1.564,0.089,3.1,0.077,4.651C393.896,395.122,393.767,398.081,393.691,401.028z"/>
	</g>
</g>
<g>
	<g>
		<path d="M379.705,435.938c0.005,0.034,0.01,0.07,0.015,0.103c0.003,0.014,0.004,0.027,0.006,0.042
			C379.719,436.035,379.712,435.987,379.705,435.938z"/>
	</g>
</g>
<g>
</g>
<g>
</g>
<g>
</g>
<g>
</g>
<g>
</g>
<g>
</g>
<g>
</g>
<g>
</g>
<g>
</g>
<g>
</g>
<g>
</g>
<g>
</g>
<g>
</g>
<g>
</g>
<g>
</g>
</svg>
