<?xml version="1.0" ?><!DOCTYPE svg  PUBLIC '-//W3C//DTD SVG 1.1//EN'  'http://www.w3.org/Graphics/SVG/1.1/DTD/svg11.dtd'><svg enable-background="new 0 0 91 91" height="91px" id="Layer_1" version="1.1" viewBox="0 0 91 91" width="91px" xml:space="preserve" xmlns="http://www.w3.org/2000/svg" xmlns:xlink="http://www.w3.org/1999/xlink"><g><path d="M43.836,1.626c-1.305-0.024-2.253,0.521-2.855,1.321C23.988,2.583,8.214,17.109,2.695,32.294   C-3.254,48.65,2.522,67.887,15.698,79.054c14.974,12.689,38.772,12.34,55.341,2.741c15.469-8.958,22.385-27.832,18.582-44.978   C84.98,15.903,64.678,1.995,43.836,1.626z M72.6,73.593c-12.764,10.539-35.463,12.821-49.58,3.915   C10.506,69.609,3.204,53.592,6.041,38.985c1.678-8.639,6.452-16.233,12.797-22.234c6.187-5.852,13.505-9.03,21.384-11.688   c-0.138,1.991,1.063,4.098,3.615,4.072c15.812-0.167,31.773,8.721,38.222,23.515C88.008,46.303,84.152,64.052,72.6,73.593z"/><path d="M43.468,21.572c-1.616-0.066-2.69,0.762-3.226,1.891c-8.098-0.146-15.957,7.494-18.852,14.355   c-3.793,8.986-1.187,19.73,5.958,26.312c8.082,7.438,21.04,7.557,30.433,2.479c8.648-4.675,12.758-14.825,11.063-24.323   C66.672,30.095,55.445,22.078,43.468,21.572z M43.021,64.16c-10.253-0.015-18.601-8.257-18.282-18.691   c0.152-5.033,2.68-9.54,6.131-13.072c2.721-2.791,5.88-4.242,9.158-5.848c0.419,1.406,1.562,2.556,3.44,2.534   c10.067-0.122,20.048,7.155,19.884,17.863C63.176,58.245,53.467,64.174,43.021,64.16z"/></g></svg>