<?xml version="1.0" ?><!DOCTYPE svg  PUBLIC '-//W3C//DTD SVG 1.1//EN'  'http://www.w3.org/Graphics/SVG/1.1/DTD/svg11.dtd'><svg enable-background="new 0 0 91 91" height="91px" id="Layer_1" version="1.1" viewBox="0 0 91 91" width="91px" xml:space="preserve" xmlns="http://www.w3.org/2000/svg" xmlns:xlink="http://www.w3.org/1999/xlink"><g><path d="M38.807,42.878c-0.441,0.935,0.295,2.244,1.441,1.875c2.94-0.954,5.664-3.25,8.174-0.354   c1.92,2.217,5.268-0.614,3.945-3.045C49.436,35.963,41.087,38.027,38.807,42.878z"/><path d="M60.891,31.421c-8.863-5.497-22.334-6.098-29.351,2.751c-0.493,0.618-0.062,1.954,0.901,1.549   c8.75-3.676,17.393-5.259,25.834,0.173C61.08,37.699,63.725,33.18,60.891,31.421z"/><path d="M44.101,20.172c6.938-0.177,13.665,1.576,19.62,5.132c2.867,1.712,5.508-2.813,2.613-4.471   c-6.744-3.869-14.457-5.756-22.233-5.406c-3.714,0.167-7.303,0.852-10.787,2.165c-1.78,0.672-3.481,1.468-5.099,2.474   c-1.884,1.175-3.113,2.74-4.861,4.057c-0.5,0.38-0.056,1.222,0.507,0.869c2.772-1.722,6.868-2.557,10.021-3.383   C37.19,20.744,40.685,20.261,44.101,20.172z"/><path d="M87.236,56.202c0-9.562,0.721-19.507-2.818-28.569C80.523,17.654,73.605,8.969,63.631,4.567   C51.172-0.931,35.046,0.023,23.212,6.764C15.015,11.432,9.048,19.244,6.07,28.136c-2.98,8.904-2.26,18.911-0.682,28.037   c-3.175,2.78-5.045,7.066-4.891,11.434c0.22,6.199,7.114,13.311,13.709,12.176c0.102,3.061,0.684,6.229,2.98,8.405   c1.942,1.836,4.733,2.211,7.155,1.163c3.473-1.497,4.868-5.263,5.34-8.766c0.609-4.525,0.649-9.191,0.682-13.749   c0.041-5.169-0.052-10.384-0.682-15.52c-0.539-4.418-1.612-7.666-6.097-9.484c-6.529-2.647-10.054,4.08-10.578,9.513   c-0.056,0.574-0.106,1.154-0.158,1.73c-0.996,0.058-1.946,0.236-2.851,0.516c0.279-5.511,0.591-11.048,1.187-16.535   c0.041-0.268,0.079-0.54,0.135-0.807c0.226-1.062,0.453-2.119,0.748-3.167C14.007,26.2,17.509,19.823,23.2,15.331   c9.12-7.193,23.011-8.952,33.968-5.696c9.279,2.757,16.418,9.993,20.135,18.812c3.357,7.962,2.449,16.12,2.225,24.732   c-0.332-0.048-0.666-0.086-1.008-0.105c-0.439-5.058-1.738-12.145-8.303-11.856c-10.205,0.448-9.063,14.386-9.182,21.321   c-0.086,5.072,0.029,10.156,0.395,15.217c0.248,3.458,0.666,7.355,3.223,9.968c2.293,2.345,6.01,2.986,8.762,1.091   c2.916-2.008,3.635-5.645,3.754-9.031c0.002,0,0.002,0,0.002,0c6.596,1.137,13.492-5.975,13.713-12.176   c0.135-3.828-1.291-7.594-3.783-10.342C87.184,56.939,87.236,56.587,87.236,56.202z M17.222,56.06   c0.014-2.345-0.239-5.022,0.252-7.335c0.277-1.315,1.46-3.51,3.15-3.773c2.761-0.43,4.635,2.807,4.899,5.013   c1.069,8.859,1.16,18.005,0.493,26.901c-0.222,2.953-0.412,8.76-4.456,8.952c-2.818,0.137-4.146-3.278-4.913-6.086   c0.647-0.369,1.089-1.067,1.021-2.105C17.21,70.479,17.174,63.22,17.222,56.06z M12.395,75.189   c-3.142-1.893-6.159-4.593-6.412-7.995c-0.21-2.832,0.773-5.547,3.266-7.003c0.956-0.561,2.067-0.78,3.13-1.083   C12.04,64.468,11.955,69.868,12.395,75.189z M69.816,85.819c-4.055-0.187-4.236-6.007-4.455-8.954   c-0.662-8.896-0.572-18.04,0.492-26.901c0.258-2.137,2.133-5.46,4.902-5.015c1.688,0.271,2.877,2.493,3.15,3.775   c0.49,2.314,0.238,4.986,0.252,7.335c0.045,7.16,0.01,14.419-0.449,21.566c-0.066,1.038,0.375,1.734,1.023,2.104   C73.965,82.545,72.643,85.948,69.816,85.819z M85.396,67.194c-0.221,3.395-3.264,6.103-6.408,7.995   c0.426-5.349,0.285-10.74-0.043-16.107c0.998,0.283,2.037,0.491,2.941,0.979C84.545,61.492,85.59,64.231,85.396,67.194z"/></g></svg>