<svg height="512pt" viewBox="-92 0 512 512.00077" width="512pt" xmlns="http://www.w3.org/2000/svg"><path d="m327.242188 488.585938-.117188-1.386719c-.726562-9.183594-1.199219-18.652344-1.402344-28.140625-.125-5.867188-.183594-11.84375-.238281-17.625-.128906-13.167969-.261719-26.785156-1.195313-40.210938-2.699218-38.820312-12.367187-68.164062-29.5625-89.703125-13.597656-17.035156-32.84375-30.644531-60.359374-42.691406.765624-1.601563 1.210937-3.394531 1.066406-5.382813-.402344-5.453124-4.886719-8.726562-8.164063-11.113281l-.398437-.289062c-9.453125-6.917969-16.355469-16.914063-19.492188-28.195313 17.140625-11.78125 29.339844-30.785156 32.441406-50.960937 1.5625-.160157 3.105469-.449219 4.617188-.839844-5.035156 18.949219-9.335938 38.257813-12.773438 57.449219-.425781 2.375-1.066406 5.960937.65625 9.363281 3.320313 6.554687 12.535157 7.289063 16.46875 7.605469 1.71875.136718 3.441407.234375 5.132813.234375 5.226563 0 10.160156-.921875 13.683594-4.417969 3.980469-3.949219 4.136719-9.222656 3.761719-13.863281-.820313-10.1875-3.511719-19.316407-6.363282-28.984375l-.761718-2.589844c-.488282-1.675781-.9375-3.324219-1.382813-4.949219-2.195313-8.046875-4.285156-15.660156-10.113281-23.253906 8.207031-4.734375 14.472656-12.855469 16.273437-22.335937 1.394531-7.351563-.441406-16.507813-7.695312-20.394532-3.734375-2-7.546875-2.003906-11.21875-1.308594 5.734375-13.203124 3.78125-29.378906-5.160157-40.734374 3.511719-5.921876 4.46875-13.265626 2.460938-19.890626-1.9375-6.375-6.53125-11.773437-12.40625-14.820312 1.960938-7.441406.417969-15.832031-4.269531-21.949219-4.910157-6.402343-13.113281-10.136719-21.179688-9.804687-4.085937-7.523438-11.125-13.363282-19.320312-15.90625-8.390625-2.601563-17.738281-1.664063-25.464844 2.464844-8.671875-4.296876-19.078125-5.164063-28.308594-2.273438-9.214843 2.882812-17.261719 9.515625-21.933593 17.972656-7.957032.835938-15.449219 4.929688-20.402344 11.253906-4.839844 6.175782-7.039063 14.199219-6.117188 21.957032-6.09375 3.960937-10.808594 10.300781-13.140625 17.796875-2.339843 7.523437-2.046875 15.441406.753907 22.171875-8.605469 10.179687-10.386719 25.410156-4.542969 37.355468-5.0625 1.761719-9.570313 5.367188-12.710938 10.25-3.863281 6.011719-5.101562 13.105469-3.394531 19.460938 1.703125 6.355469 6.328125 11.871094 12.683594 15.140625.535156.273437 1.078125.519531 1.621094.757813-4.152344 6.523437-5.957032 13.105468-7.839844 20.007812-.441406 1.625-.890625 3.273438-1.382813 4.949219l-.761719 2.582031c-2.847656 9.671875-5.539062 18.804688-6.359374 28.992188-.375 4.640624-.222657 9.914062 3.757812 13.863281 3.523438 3.496093 8.457031 4.417969 13.683594 4.417969 1.695312 0 3.417968-.097657 5.132812-.234376 3.933594-.316406 13.148438-1.050781 16.46875-7.605468 1.722656-3.402344 1.082032-6.988282.65625-9.359375-3.316406-18.53125-7.441406-37.175781-12.257812-55.496094.953125-.035156 1.902344-.113281 2.835937-.265625 5.542969 16.992188 16.304688 32.039062 30.238281 42.691406-2.664062 13.996094-10.320312 27.269532-21.121093 36.539063-2.414063 2.070312-5.933594 5.101562-6.402344 9.460937-.273437.210938-.53125.449219-.746094.738282-7.671875 10.144531-19.304687 15.976562-31.621093 22.148437-11.277344 5.65625-22.9375 11.503906-31.710938 21.050781-13.96875 15.203125-17.722656 36.457032-19.554688 55.242188-2.71875 27.957031-2.398437 56.386718-2.085937 83.882812l.484375 42.664063c.042969 3.628906.109375 9.707031 4.121094 13.839843 4.132812 4.257813 10.050781 4.414063 15.265625 4.21875 36.113281-1.332031 73.136719-.652343 108.941406.003907 14.742187.273437 29.980469.550781 44.9375.6875l129.019531 1.164062c.636719.003907 1.289063.011719 1.957032.011719 4.785156 0 10.339843-.304688 15.207031-3.15625 8.417969-4.9375 7.660156-13.792969 7.105469-20.257812zm-70.710938-289.480469.769531 2.601562c2.726563 9.253907 5.304688 18 6.058594 27.355469.324219 4.023438-.082031 6.199219-1.410156 7.515625-2.367188 2.347656-7.65625 2.265625-12.515625 1.878906-5.746094-.460937-9.089844-1.546875-9.941406-3.226562-.46875-.929688-.242188-2.503907.082031-4.316407 3.019531-16.851562 6.703125-33.800781 10.980469-50.507812 2.003906 4.257812 3.222656 8.722656 4.554687 13.605469.457031 1.671875.917969 3.367187 1.421875 5.09375zm-33.996094 59.71875c2.230469 1.625 4.757813 3.46875 4.886719 5.207031.097656 1.339844-1.167969 3.070312-3.863281 5.285156-17.753906 14.585938-40.183594 22.757813-63.15625 23.007813-22.964844.269531-45.578125-7.417969-63.648438-21.609375-.691406-.542969-2.800781-2.195313-2.855468-3.328125-.0625-1.210938 2.085937-3.054688 3.65625-4.402344.101562-.085937.195312-.175781.296874-.261719 17.875 9.476563 37.933594 14.210938 58 14.210938 22.429688 0 44.863282-5.898438 64.226563-17.640625.5625-.339844.992187-.804688 1.316406-1.328125.246094.1875.488281.382812.738281.5625zm-7.171875-6.082031c-16.929687 10.128906-36.757812 15.683593-57.390625 16.046874-19.117187.34375-37.695312-3.800781-54.070312-11.984374 3.671875-4.039063 6.859375-8.476563 9.515625-13.214844 13.285156 7.554687 28.671875 11.320312 44.066406 11.320312 17.15625 0 34.316406-4.683594 48.59375-13.980468 2.589844 4.300781 5.710937 8.269531 9.285156 11.8125zm25.074219-127.0625c-.371094.570312-.5625 1.199218-.617188 1.835937-1.773437.480469-3.476562.820313-5.09375.835937-.035156.003907-.070312.003907-.105468.003907-7.121094 0-12.773438-6.605469-15.027344-12.773438-2.347656-6.433593-2.453125-13.492187-2.570312-20.964843-.003907-.441407-.015626-.878907-.023438-1.320313 5.433594-4.425781 14.089844-6.171875 19.855469-3.964844.746093.285157 1.523437.328125 2.253906.175781 7.558594 10.242188 8.300781 25.476563 1.328125 36.171876zm-.71875-59.367188c1.488281 4.898438.484375 10.601562-2.539062 14.742188-6.472657-1.582032-14.191407-.441407-20.582032 2.9375-.496094-5.578126-1.601562-11.113282-4.09375-16.179688.5625-.324219 1.054688-.785156 1.421875-1.375 3.199219-5.210938 8.425781-9.105469 14.339844-10.683594.320313-.085937.617187-.21875.898437-.371094 4.921876 1.703126 9.039063 5.945313 10.554688 10.929688zm-15.363281-34.214844c3.363281 4.390625 4.339843 10.503906 2.652343 15.765625-.269531.015625-.542968.058594-.816406.128907-7.40625 1.976562-14.003906 6.679687-18.316406 13.007812-3.238281-3.425781-7.519531-6.039062-11.972656-7.140625 3.105468-10.320313 8.984375-19.929687 16.792968-27.320313.28125-.265624.5-.570312.6875-.890624 4.285157.707031 8.332032 3.003906 10.972657 6.449218zm-36.503907-22.925781c6.929688 2.148437 12.769532 7.417969 15.621094 14.089844.117188.277343.269532.523437.4375.757812-7.710937 8.371094-13.410156 18.734375-16.316406 29.714844-1.449219.355469-2.859375.925781-4.195312 1.746094-2.597657 1.597656-4.628907 3.402343-6.417969 4.992187-3.433594 3.050782-5.765625 5.109375-10.710938 4.96875 4.453125-17.707031 5.304688-36.449218 2.464844-54.480468 5.820313-3.054688 12.824219-3.742188 19.117187-1.789063zm-48.992187.183594c7.074219-2.214844 15.019531-1.621094 21.734375 1.523437 2.957031 17.535156 2.171875 35.835938-2.234375 53.074219-2.269531-.707031-4.558594-1.585937-6.910156-2.492187-1.386719-.53125-2.773438-1.066407-4.164063-1.566407-2.582031-.929687-5.730468-1.925781-9.148437-2.484375-3.949219-11.976562-9.316407-23.480468-15.957031-34.203125-.070313-.117187-.160157-.210937-.242188-.316406 3.726562-6.363281 9.886719-11.335937 16.921875-13.535156zm-38.410156 26.511719c3.585937-4.574219 9.226562-7.625 15.027343-8.21875 5.738282 9.300781 10.460938 19.222656 14.082032 29.535156-1.578125.207031-3.160156.570312-4.722656 1.136718-3.238282 1.179688-6.152344 3.167969-8.648438 5.800782-6.003906-4.96875-12.566406-9.242188-19.542969-12.71875-.234375-.117188-.480469-.207032-.726562-.273438-.414063-5.394531 1.210937-11.023437 4.53125-15.261718zm-17.914063 37.1875c1.9375-6.21875 5.953125-11.339844 11.078125-14.175782 6.398438 3.242188 12.410157 7.210938 17.910157 11.816406-1.921876 3.640626-3.304688 7.878907-4.035157 12.550782-.570312 3.648437-.773437 7.300781-.902343 10.882812-7.175782-3.527344-15.34375-4.839844-23.261719-3.722656-2.347657-5.132812-2.648438-11.371094-.789063-17.351562zm-.992187 25.253906c.625.21875 1.304687.304687 2.003906.1875 6.929687-1.183594 14.164063-.015625 20.375 3.285156.597656.320312 1.246094.472656 1.882813.472656.164062 0 .324218-.015625.488281-.035156-.148438 2.878906-.394531 5.675781-.898438 8.433594-1.25 6.875-5.378906 15.652344-12.890625 17.75-2.660156.746094-5.660156.648437-8.839844.546875-1.355468-.042969-2.738281-.085938-4.140624-.070313-5.78125-9.148437-4.820313-22.207031 2.019531-30.570312zm3.261719 140.839844c-.851563 1.679687-4.195313 2.765624-9.941407 3.222656-4.863281.390625-10.148437.472656-12.515625-1.875-1.328125-1.316406-1.734375-3.496094-1.410156-7.515625.753906-9.359375 3.332031-18.105469 6.0625-27.363281l.761719-2.597657c.507812-1.722656.96875-3.417969 1.425781-5.089843 1.332031-4.882813 2.550781-9.347657 4.554688-13.609376 4.277343 16.710938 7.960937 33.65625 10.980468 50.511719.324219 1.8125.550782 3.386719.082032 4.316407zm5.007812-67.421876c-.300781-1.089843-1.042969-2-2.046875-2.511718-.574219-.292969-1.199219-.4375-1.828125-.4375-.476562 0-.953125.082031-1.410156.253906-4.042969 1.515625-8.851563 1.105469-13.199219-1.128906-4.34375-2.234375-7.480469-5.90625-8.601563-10.078125-1.117187-4.171875-.246093-8.921875 2.394532-13.03125 2.644531-4.109375 6.601562-6.878907 10.863281-7.589844 2.304687-.386719 4.789063-.304687 7.421875-.222656 3.644531.121093 7.414062.242187 11.261719-.835938 11.070312-3.097656 16.882812-14.453125 18.632812-24.046875.917969-5.03125 1.074219-10.085937 1.222657-14.976562.136718-4.390625.265624-8.542969.90625-12.632813 1.132812-7.273437 4.925781-15.984375 12.15625-18.613281 4.273437-1.554688 9.667968-1.050781 16.976562 1.582031 1.335938.480469 2.667969.992188 3.996094 1.503907 5.160156 1.988281 10.496094 4.042968 16.363281 4.460937 8.871094.632813 13.398437-3.390625 17.390625-6.941406 1.695312-1.503907 3.296875-2.925781 5.292969-4.152344 5.164062-3.175781 12.824219 1.460937 16.042969 6.183594 4.328124 6.34375 5.097656 14.703125 5.28125 22.792969.027343 1.140624.042968 2.289062.0625 3.4375.117187 7.8125.238281 15.890624 3.054687 23.597656 3.289063 9.007812 11.53125 18.050781 22.566406 18.050781h.1875c3.90625-.035156 7.574219-1.199219 11.117188-2.324219 4.589843-1.453125 8.554687-2.707031 11.613281-1.070312 3.476562 1.863281 4.441406 7.355468 3.59375 11.8125-2.152344 11.320312-13.296875 20.378906-24.796875 20.210937-2.058594-.027343-3.851563 1.535157-4.058594 3.609375-2.199219 21.742188-16.445312 42.433594-36.289062 52.71875-19.527344 10.113282-44.285157 10.359375-64.613281.640625-19.976563-9.554687-35.511719-28.34375-41.554688-50.261719zm38.085938 57.507813c11.011718 5.261719 23.199218 7.886719 35.320312 7.886719 12.707031 0 25.339844-2.886719 36.457031-8.644532.199219-.105468.398438-.21875.601563-.324218.609375 1.90625 1.316406 3.773437 2.109375 5.601562-24.835938 16.582032-59.59375 17.542969-85.429688 2.601563 1.511719-3.582031 2.730469-7.292969 3.644531-11.097657 2.367188 1.445313 4.796876 2.78125 7.296876 3.976563zm-108.117188 272.871094c-3.496094.125-7.371094.105469-9.207031-1.785157-1.640625-1.691406-1.8125-5.046874-1.851563-8.339843l-.484375-42.660157c-.308593-27.28125-.628906-55.492187 2.050781-83.011718 1.699219-17.464844 5.105469-37.128906 17.472657-50.589844 6.421875-6.988281 14.710937-11.800781 23.671875-16.40625 11.855468 25.023438 16.933594 53.761719 14.273437 81.289062-1.214843 12.5625-4.015625 25.222657-6.726562 37.46875-1.53125 6.929688-3.117188 14.097657-4.417969 21.226563-2.570312 14.121094-5.773438 40.332031.371094 62.089844-11.753906.078125-23.496094.285156-35.152344.71875zm109.382812 0c-21.65625-.398438-43.753906-.796875-65.855468-.765625-6.578125-20.523438-3.371094-46.703125-.839844-60.605469 1.269531-6.980469 2.839844-14.070313 4.355469-20.929687 2.765625-12.476563 5.617187-25.382813 6.878906-38.429688 2.804687-29.023438-2.566406-59.320312-15.097656-85.683594 5.808593-2.917968 11.664062-5.917968 17.125-9.480468 9.945312 16.667968 26.710937 30.738281 47.59375 39.824218 21.585937 9.394532 45.011719 12.71875 63.007812 14.5625 1.582031.160156 3.171875.320313 4.769531.476563 19.320313 1.914062 39.296876 3.890625 53.859376 15.359375 19.261718 15.167968 23.429687 42.65625 23.53125 63.046875.035156 6.914062-.214844 14.808593-.480469 23.167969-.652344 20.472656-1.375 43.59375 1.894531 61.007812l-95.878906-.867188c-14.917969-.132812-30.140625-.414062-44.863282-.683593zm186.90625-.195313c-3.628906 2.128906-8.621093 2.082032-13.023437 2.042969l-24.988281-.226563c-.011719-.121093-.011719-.242187-.039063-.367187-3.371093-16.628906-2.632812-39.914063-1.976562-60.457031.265625-8.433594.519531-16.402344.484375-23.460938-.113282-22.160156-4.820313-52.171875-26.59375-69.320312-16.40625-12.921875-37.574219-15.015625-58.042969-17.042969-1.585937-.15625-3.167969-.3125-4.742187-.472656-17.417969-1.785157-40.046876-4.984375-60.621094-13.9375-19.613282-8.535157-35.230469-21.695313-44.257813-37.203125 2.484375-2.019532 4.816407-4.234375 6.964844-6.679688.960937.996094 1.917969 1.746094 2.554687 2.246094 19.191407 15.070312 43.121094 23.332031 67.507813 23.332031.398437 0 .796875 0 1.191406-.003906 24.796875-.273437 49.003907-9.09375 68.167969-24.835937.109375-.089844.21875-.1875.332031-.277344 27.445313 11.742187 46.351563 24.867187 59.457031 41.285156 16.144532 20.222656 25.242188 48.109375 27.828126 85.25.914062 13.183594 1.046874 26.679688 1.171874 39.730469.058594 5.804687.117188 11.804687.242188 17.714843.207031 9.644532.6875 19.269532 1.425781 28.605469l.121094 1.4375c.597656 6.980469.484375 10.503907-3.164063 12.640625zm0 0"/></svg>