<svg height="512pt" viewBox="-90 0 512 512.00144" width="512pt" xmlns="http://www.w3.org/2000/svg"><path d="m320.953125 368.78125c-14.34375-41.902344-45.335937-73.347656-81.148437-82.535156 2.777343-4.789063 3.371093-9.472656 1.644531-13.476563-1.300781-3.019531-3.609375-4.960937-5.644531-6.675781-1.175782-.988281-2.28125-1.921875-3-2.90625-.464844-.636719-.8125-1.359375-1.074219-2.140625 20.410156.527344 40.863281-8.6875 53.871093-24.457031 13.535157-16.40625 18.589844-39.378906 13.191407-59.953125-1.757813-6.699219-4.53125-13.035157-7.210938-19.160157-3.261719-7.449218-6.34375-14.484374-7.679687-22.007812-1.390625-7.804688-.839844-15.757812-.257813-24.175781.320313-4.65625.652344-9.46875.632813-14.265625-.121094-24.148438-9.605469-48.148438-26.027344-65.851563-16.421875-17.699219-39.644531-28.957031-63.714844-30.882812-28.652344-2.292969-59.488281 8.914062-82.484375 29.96875-20.671875 18.929687-35.933593 46.222656-42.976562 76.847656-1.679688 7.296875-2.910157 14.757813-4.097657 21.972656-1.703124 10.347657-3.46875 21.046875-6.558593 31.097657-1.3125 4.265624-2.921875 8.609374-4.472657 12.8125-3.882812 10.492187-7.898437 21.34375-8.210937 32.96875-.390625 14.589843 5.253906 28.925781 15.480469 39.335937 9.515625 9.683594 22.496094 15.453125 36.003906 16.105469.242188 1.148437.539062 2.265625.835938 3.363281.769531 2.863281 1.433593 5.335937.796874 7.355469-.394531 1.25-1.339843 2.484375-2.429687 3.914062-1.066406 1.394532-2.277344 2.976563-3.140625 4.871094-1.386719 3.027344-1.625 6.183594-1.109375 9.257812-35.519531 7.5-66.652344 33.460938-80.117187 67.222657-9.761719 24.484375-10.386719 51.949219-10.9375 76.179687l-1.085938 47.84375c-.21875 9.710938.609375 19.480469 8.117188 25.171875 5.550781 4.207031 12.710937 4.238281 17.9375 4.257813l279.84375 1.160156h1.0625c4.441406 0 10.132812-.222656 14.769531-3.484375 6.597656-4.636719 8.042969-12.832031 8.625-20.992187 2.789062-39.214844 3.578125-80.742188-9.433594-118.742188zm-86.90625-92.816406c1.277344 2.964844-1.644531 7.121094-2.960937 8.773437-7.125 8.933594-18.167969 14.925781-29.546876 16.019531-.121093.011719-.230468.046876-.347656.070313-1.070312-.835937-2.167968-1.609375-3.304687-2.308594-3.15625-1.945312-6.550781-3.257812-9.976563-3.949219.035156-.085937.082032-.167968.113282-.257812 2.96875-9.089844-1.789063-19.683594-10.617188-23.855469 18.003906-3.324219 34.5-15.027343 43.15625-31.183593.777344.636718 1.441406 1.484374 1.816406 2.375 1.167969 2.789062.964844 6.25.753906 9.914062l-.070312 1.222656c-.265625 4.941406-.089844 10.609375 3.226562 15.15625 1.292969 1.769532 2.902344 3.121094 4.320313 4.316406 1.550781 1.308594 2.886719 2.433594 3.4375 3.707032zm-80.601563 125.691406c.527344-7.570312-1.738281-16.078125-6.78125-25.40625-1.476562-2.734375-3.085937-5.417969-4.640624-8.015625-3.914063-6.535156-7.613282-12.707031-9.367188-19.554687-2.632812-10.269532-.285156-21.894532 6.121094-30.34375 4.792968-6.324219 13.347656-12.792969 21.644531-12.992188.121094-.003906.242187-.003906.363281-.003906 4.207032 0 7.808594 1.761718 10.714844 5.238281 11.085938 13.257813 15.84375 33.144531 12.113281 50.667969-3.585937 16.855468-15.085937 32.015625-30.167969 40.410156zm-52.1875-109.257812c-.109374-.484376-.289062-.933594-.546874-1.328126-.84375-2.335937-1.050782-4.726562-.097657-6.816406.488281-1.070312 1.328125-2.164062 2.214844-3.324218 1.359375-1.777344 2.898437-3.789063 3.714844-6.390626 1.339843-4.261718.253906-8.304687-.703125-11.867187-.519532-1.945313-1.015625-3.785156-1.074219-5.453125-.125-3.507812 1.726563-7.332031 5.085937-10.492188 1.636719-1.542968 3.527344-2.863281 5.527344-4.070312 9.464844 15.105469 25.976563 25.675781 43.617188 28.1875-2.882813 1.382812-5.492188 3.359375-7.53125 5.886719-5.234375 6.496093-6.484375 15.738281-3.410156 23.714843-5.914063 2.882813-10.996094 7.3125-14.519532 11.535157-.175781-.042969-.351562-.089844-.539062-.105469-10.230469-.972656-20.191406-5.773438-27.328125-13.171875-1.679688-1.742187-3.324219-3.964844-4.410157-6.304687zm19.929688-146.203126c31.019531-6.941406 56.253906-29.726562 68.648438-61.019531 4.667968 20.527344 13.199218 40.640625 32.90625 56.644531 1.136718.921876 2.300781 1.824219 3.464843 2.730469 4.425781 3.433594 8.605469 6.675781 11.207031 10.957031 2.390626 3.9375 3.605469 8.964844 3.820313 15.824219.820313 26.113281-13.785156 52.511719-36.347656 65.683594-22.558594 13.175781-52.726563 12.921875-75.066407-.632813-22.335937-13.550781-36.496093-40.1875-35.234374-66.285156.355468-7.355468 2.027343-12.542968 5.105468-15.859375 4.113282-4.4375 10.730469-5.800781 17.734375-7.246093 1.265625-.261719 2.523438-.519532 3.761719-.796876zm59.171875 145.613282c-.25.765625-.25 1.550781-.0625 2.273437-4.546875.320313-8.84375 1.789063-12.371094 4.390625-2.417969-.847656-4.992187-1.253906-7.695312-1.191406-1.542969.039062-3.0625.226562-4.558594.527344-2.152344-5.34375-1.375-11.742188 2.070313-16.019532 3.753906-4.65625 10.78125-6.484374 16-4.160156 5.234374 2.328125 8.324218 8.953125 6.617187 14.179688zm-12.871094-28.453125c-.152343 0-.300781.003906-.453125.003906-15.78125 0-31.347656-7.75-41.261718-20.003906 12.570312 7.59375 27.363281 11.398437 42.152343 11.398437 13.421875 0 26.839844-3.132812 38.589844-9.414062-9.824219 10.964844-24.292969 17.878906-39.027344 18.015625zm10.199219 42.050781c-.640625-.765625-1.3125-1.472656-2.003906-2.132812 5.75-2.359376 12.941406-.992188 17.972656 2.109374 6.085938 3.753907 11.078125 10.078126 15.703125 19.90625 1.414063 3 2.730469 6.15625 4.007813 9.210938 2.308593 5.523438 4.695312 11.238281 7.84375 16.597656 3.328124 5.667969 8.609374 12.605469 16.175781 16.90625-14.152344 9.277344-33.269531 11.359375-48.902344 4.953125 1.273437-3.261719 2.289063-6.617187 3.015625-10.035156 4.222656-19.851563-1.199219-42.429687-13.8125-57.515625zm-123.894531-99.230469c.277343-10.292969 3.886719-20.054687 7.710937-30.386719 1.59375-4.304687 3.242188-8.757812 4.617188-13.238281 3.253906-10.574219 5.0625-21.546875 6.8125-32.160156 1.167968-7.089844 2.378906-14.421875 3.996094-21.472656 6.683593-29.050781 21.089843-54.871094 40.566406-72.707031 21.371094-19.574219 49.925781-29.996094 76.394531-27.878907 22.078125 1.765625 43.382813 12.089844 58.445313 28.328125 15.066406 16.238282 23.765624 38.253906 23.875 60.402344.023437 4.5-.300782 9.164062-.613282 13.671875-.589844 8.539063-1.199218 17.363281.363282 26.148437 1.507812 8.464844 4.925781 16.273438 8.230468 23.828126 2.675782 6.109374 5.203125 11.882812 6.800782 17.972656 4.753906 18.109375.304687 38.332031-11.613282 52.777344-11.625 14.09375-30.003906 22.230468-48.25 21.476562l.050782-.90625c.246093-4.210938.527343-8.984375-1.363282-13.496094-1.105468-2.632812-3.070312-4.917968-5.453125-6.4375 16.035157-15.863281 25.636719-38.535156 24.929688-61.019531-.261719-8.308594-1.847657-14.585937-4.988281-19.753906-3.375-5.554688-8.347657-9.414063-13.15625-13.144531-1.117188-.867188-2.234376-1.734376-3.324219-2.621094-13.40625-10.886719-26.683594-26.605469-32.992188-67.570313-.292969-1.902343-1.894531-3.332031-3.820312-3.414062-1.921875-.078125-3.636719 1.214843-4.085938 3.089843-8.683593 36.214844-34.546875 63.289063-67.5 70.664063-1.195312.265625-2.40625.515625-3.628906.765625-7.566406 1.5625-16.148437 3.332031-22.015625 9.65625-4.425781 4.769531-6.796875 11.625-7.25 20.957031-1.160156 23.992188 9.433594 48.390625 27.191406 64.609375-3.25 1.785156-6.546875 3.855469-9.402344 6.542969-3.839843 3.613281-6.359374 7.992187-7.257812 12.445313-11.191406-.703126-22.253906-5.679688-30.097656-13.660157-8.574219-8.726562-13.496094-21.238281-13.171875-33.46875zm-40.773438 293.976563c-4.621093-3.5-5.101562-10.992188-4.929687-18.5625l1.089844-47.84375c.558593-24.699219 1.140624-50.242188 10.363281-73.375 12.632812-31.671875 42.03125-55.945313 75.449219-62.566406 1.363281 2.414062 3.066406 4.625 4.871093 6.496093 7.601563 7.878907 17.910157 13.257813 28.722657 15.101563-5.011719 9.515625-6.429688 20.777344-3.738282 31.28125 2.046875 7.980468 6.222656 14.953125 10.257813 21.695312 1.511719 2.519532 3.074219 5.128906 4.464843 7.703125 4.03125 7.457031 8.070313 18.222657 4.429688 27.175781-.605469 1.488282-.269531 3.195313.855469 4.34375.773437.785157 1.816406 1.207032 2.878906 1.207032.488281 0 .976563-.089844 1.449219-.269532 5.382812-2.074218 10.46875-4.898437 15.148437-8.316406l4.507813 99.144532-96.824219-.402344c1.578125-34.019532 1.359375-68.496094-.660156-102.488282-.132813-2.222656-2.050781-3.90625-4.265625-3.785156-2.222656.132813-3.917969 2.042969-3.785156 4.265625 2.011718 33.820313 2.226562 68.128907.640624 101.972657l-37.824218-.15625c-5.304688-.019532-9.953125-.234376-13.101563-2.621094zm309.324219-13.203125c-.40625 5.753906-1.183594 12.132812-5.21875 14.96875-2.695312 1.894531-6.648438 2.035156-11.164062 2.015625l-41.433594-.171875 3.863281-98.09375c.089844-2.226563-1.644531-4.101563-3.867187-4.1875-2.21875-.089844-4.101563 1.644531-4.1875 3.867187l-3.875 98.378906-79.550782-.328124-4.75-104.449219c-.015625-.40625-.113281-.78125-.242187-1.144531 5.257812-5.121094 9.734375-11.058594 13.183593-17.515626 7.261719 3.035157 15.058594 4.523438 22.859376 4.523438 14.507812 0 29.015624-5.101562 40.035156-14.761719 1.109375-.96875 1.597656-2.472656 1.277344-3.910156-.324219-1.441406-1.40625-2.589844-2.824219-2.996094-8.761719-2.511719-14.78125-10.15625-18.285157-16.128906-2.875-4.890625-5.050781-10.105469-7.359374-15.625-1.308594-3.132813-2.660157-6.375-4.148438-9.535156-2.625-5.574219-5.40625-10.199219-8.445312-14.011719 10.089843-2.195312 19.378906-7.441406 26.46875-14.972656.453124.367187.984374.648437 1.589843.789062 33.851563 7.988282 63.375 37.773438 77.058594 77.730469 12.542969 36.640625 11.746094 77.191406 9.015625 115.558594zm0 0"/><path d="m235.519531 410.980469c-1.074219.0625-2.09375.109375-2.867187.105469l-44.164063-.679688c-1.199219-.023438-2.351562.503906-3.128906 1.417969-2.039063 2.390625-2.980469 5.566406-2.652344 8.941406.402344 4.097656 2.578125 8.082031 5.828125 10.664063 4.972656 3.945312 11.351563 4.851562 16.9375 5.390624 9.035156.875 18.597656 1.339844 29.226563 1.425782.308593.003906.632812.007812.976562.007812 3.261719 0 8.03125-.246094 11.707031-3.175781 5.652344-4.507813 6.835938-14.859375 3.628907-19.589844-3.503907-5.171875-10.433594-4.785156-15.492188-4.507812zm6.835938 17.792969c-1.6875 1.34375-4.679688 1.4375-7.589844 1.410156-10.390625-.085938-19.71875-.539063-28.519531-1.386719-4.640625-.449219-9.445313-1.101563-12.699219-3.683594-1.523437-1.210937-2.628906-3.222656-2.8125-5.128906-.042969-.425781-.046875-.949219.066406-1.476563l41.730469.640626c1.058594.019531 2.210938-.046876 3.433594-.113282 2.597656-.144531 7.429687-.414062 8.371094.972656 1.121093 1.65625-.15625 7.308594-1.980469 8.765626zm0 0"/></svg>