<svg height="511pt" viewBox="-87 0 511 511.99824" width="511pt" xmlns="http://www.w3.org/2000/svg"><path d="m329.695312 366.253906c-7.960937-26.492187-24.292968-49.601562-45.414062-65.597656 9.917969-14.292969 12.058594-33.695312 6.121094-50.035156 7.515625 1.917968 15.339844 2.78125 23.039062 2.53125 1.777344-.058594 3.308594-1.273438 3.765625-2.996094.453125-1.71875-.269531-3.53125-1.785156-4.464844-7.605469-4.683594-25.480469-19.621094-27.121094-57.09375-.492187-11.269531.394531-22.84375 1.253907-34.039062.890624-11.636719 1.8125-23.667969 1.238281-35.632813-1.746094-36.328125-17.449219-69.941406-43.085938-92.21875-37.121093-32.253906-91.25-35.570312-137.898437-8.441406-22.789063 13.25-39.777344 32.542969-47.835938 54.320313-6.5625 17.730468-7.25 37.085937-7.382812 53.835937-.015625 2.261719-.023438 4.527344-.03125 6.796875-.054688 15.078125-.105469 30.675781-3.28125 45.398438-4.019532 18.652343-12.972656 33.566406-25.21875 42-1.773438 1.222656-2.273438 3.625-1.132813 5.453124 1.136719 1.828126 3.511719 2.4375 5.394531 1.382813l25.96875-14.578125c-5.984374 11.929688-9.019531 25.246094-8.707031 38.710938.40625 17.335937 6.367188 34.15625 16.855469 47.886718-21.847656 13.082032-39.59375 33.132813-49.238281 56.707032-9.382813 22.925781-11.242188 47.609374-12.570313 75.175781-.78125 16.28125-1.46875 32.808593-2.046875 49.121093-.265625 7.546876-.148437 14.820313 4.136719 20.847657 6.113281 8.601562 17.101562 9.957031 28.0625 10.140625 21.234375.355468 42.523438.535156 63.863281.535156 68.511719-.003906 137.382813-1.835938 205.476563-5.488281 8.070312-.433594 16.429687-1.363281 22.136718-7.417969 4.121094-4.367188 5.53125-10.199219 6.617188-15.800781 8.988281-46.199219 8.601562-84.484375-1.179688-117.039063zm-274.054687-114.859375c-.390625-16.832031 5.339844-34.089843 15.726563-47.339843 1.1875-1.511719 1.140624-3.652344-.109376-5.113282-1.25-1.457031-3.359374-1.828125-5.035156-.890625l-17.851562 10.023438c4.875-7.984375 8.550781-17.367188 10.789062-27.761719 3.351563-15.550781 3.40625-31.570312 3.460938-47.070312.007812-2.253907.015625-4.507813.03125-6.761719.128906-16.0625.773437-34.589844 6.882812-51.101563 7.410156-20.023437 23.152344-37.832031 44.328125-50.144531 43.621094-25.367187 94.082031-22.398437 128.558594 7.558594 23.628906 20.535156 38.703125 52.878906 40.320313 86.519531.550781 11.460938-.351563 23.238281-1.226563 34.628906-.875 11.433594-1.78125 23.253906-1.265625 35.007813 1.019531 23.347656 8.484375 42.886719 20.894531 55.546875-5.78125-.765625-11.484375-2.203125-16.882812-4.28125-1.609375-.613282-3.425781-.148438-4.535157 1.167968-1.105468 1.316407-1.257812 3.191407-.371093 4.667969 9.007812 15.039063 8.3125 35.535157-1.65625 49.953125-8.402344-5.53125-17.445313-9.972656-26.9375-13.117187-7.199219-12-16.886719-22.523438-28.546875-30.554688-.253906-.171875-.523438-.308593-.796875-.417969l-.191407-13.710937c8.824219-6.164063 16.453126-13.996094 22.117188-23.085937 17.015625-27.300782 16.039062-61.300782 12.835938-90.964844-.234376-2.160156-2.136719-3.730469-4.308594-3.585938-23.507813 1.773438-47.859375-10.359375-60.628906-30.160156-.894532-1.386719-2.542969-2.085938-4.160157-1.769531-1.617187.316406-2.878906 1.582031-3.1875 3.203125-2.253906 11.886718-.269531 24.40625 5.234375 35.117187-.863281-.351562-1.625-.695312-2.203125-1.03125-4.882812-2.84375-9.554687-6.1875-13.890625-9.941406-4.472656-3.867187-8.597656-8.1875-12.257812-12.839844-1.03125-1.304687-2.230469-3.582031-3.394532-5.78125-2.132812-4.042969-4.335937-8.222656-7.320312-10.472656-4.09375-3.085937-7.324219-2.722656-9.3125-1.878906-6.101562 2.585937-7.308594 12.390625-8.375 21.039062-.3125 2.53125-.609375 4.917969-.945312 6.132813-3.539063 12.660156-9.632813 24.683594-17.617188 34.769531-1.054688 1.335937-2.148438 2.648437-3.242188 3.960937-3.320312 3.980469-6.753906 8.101563-9.289062 12.945313-6.199219 11.851563-7.886719 31.996094 5.960938 53 4.835937 7.335937 10.976562 13.789063 17.980468 19.148437-.003906.269532.015625.542969.066406.820313 1.265626 6.8125 2.054688 13.75 2.382813 20.71875-14.121094 5.976563-25.972656 16.554687-34.105469 29.472656-7.605468 2.066407-14.976562 4.9375-21.996094 8.511719-9.789062-12.4375-15.558593-28.34375-15.929687-44.136719zm178.121094 74.96875c-.871094 16.640625-1.773438 33.851563-5.03125 50.351563-1.191407 6.027344-2.605469 10.714844-5.648438 14.015625-2.574219 2.796875-7.492187 4.425781-10.425781 2.300781-3.523438-2.554688-3.277344-8.976562-2.664062-14.28125l6.320312-54.820312c.015625-.136719.003906-.273438.007812-.414063 5.804688 0 11.6875.824219 17.503907 2.464844-.019531.128906-.054688.25-.0625.382812zm-30.183594 37.628907c-.191406-.046876-.378906-.09375-.578125-.109376-21.101562-1.90625-42.472656-1.757812-63.558594.386719l-4.613281-41.089843c13.792969 1.234374 27.265625 6.015624 38.472656 14.28125.722657.53125 1.558594.785156 2.390625.785156.894532 0 1.773438-.304688 2.492188-.871094.03125 0 .058594.003906.085937.003906.15625 0 .316407-.007812.476563-.027344 1.5625-.183593 2.832031-1.261718 3.328125-2.699218 7.824219-5.777344 16.753906-9.296875 26.105469-10.582032zm-104.660156-70.332032c.882812-.640625 1.472656-1.609375 1.632812-2.683594 6.671875-10.480468 16.097657-19.214843 27.289063-24.664062-.09375 10.707031-1.28125 21.402344-3.566406 31.773438-.269532 1.214843.042968 2.492187.839843 3.449218.800781.957032 1.988281 1.496094 3.246094 1.445313 16.597656-.605469 33.191406 8.828125 41.933594 22.9375-24.253907-13.816407-55.375-14.824219-80.421875-2.441407.59375-10.484374 3.808594-20.726562 9.046875-29.816406zm21.214843-141.699218c8.644532-10.921876 15.234376-23.921876 19.058594-37.605469.503906-1.792969.816406-4.355469 1.183594-7.316407.4375-3.554687 1.582031-12.847656 3.433594-14.519531.21875.070313.671875.265625 1.398437.8125 1.546875 1.164063 3.488281 4.84375 5.046875 7.796875 1.390625 2.632813 2.703125 5.125 4.1875 7.007813 3.976563 5.050781 8.460938 9.746093 13.316406 13.945312 4.714844 4.082031 9.796876 7.714844 15.109376 10.808594 1.972656 1.148437 4.527343 2.066406 7.234374 3.039063 2.894532 1.042968 6.863282 2.464843 8.082032 3.730468 1.546875 1.597656 4.101562 1.644532 5.699218.097656 1.601563-1.546874 1.644532-4.101562.097657-5.699218 0-.003906 0-.003906 0-.003906-7.902344-8.175782-12.484375-19.3125-12.910157-30.628907 14.339844 16.027344 35.957032 25.730469 57.484376 25.363281 2.71875 27.363282 2.972656 57.960938-12.050782 82.066407-12.789062 20.515625-36.667968 33.96875-60.835937 34.277343-.285157.003907-.570313.007813-.855469.007813-23.882812-.003906-47.6875-12.773437-60.839844-32.714844-11.921875-18.078125-10.683594-35.007812-5.546875-44.824219 2.132813-4.085937 5.148438-7.699218 8.335938-11.523437 1.136719-1.367187 2.273437-2.730469 3.371093-4.117187zm54.6875 101.242187c.316407 0 .632813-.003906.953126-.007813 13.019531-.167968 25.960937-3.777343 37.460937-10.042968l.710937 51.617187c-15.871093 1.128907-30.601562 12.230469-36.785156 26.847657-9.339844-15.207032-26.117187-25.527344-44.027344-26.628907 3.257813-17.34375 3.65625-35.417969 1.179688-52.902343 12.296875 7.097656 26.390625 11.117187 40.507812 11.117187zm-63.296874 71.296875c4.996093-1.035156 10.097656-1.570312 15.203124-1.628906 0 .160156-.011718.320312.007813.488281l7.046875 62.722656c.140625 1.273438.335938 3.015625-.089844 3.859375-.765625 1.511719-4.503906 2.015625-5.910156 2.207032-3.6875.496093-7.789062.867187-9.867188-1.046876-1.554687-1.429687-2.089843-4.304687-2.503906-7.128906-2.890625-19.605468-4.195312-39.59375-3.882812-59.410156 0-.019531-.003906-.042969-.003906-.0625zm108.308593-8.867188c-12.382812-.65625-24.136719 1.917969-34.546875 7.46875 5.824219-12.140624 18.972656-20.921874 32.566406-20.339843 1.117188.050781 2.1875-.363281 2.984376-1.136719.796874-.773438 1.238281-1.835938 1.222656-2.945312l-.507813-36.835938c20.050781 15.589844 33.257813 40.332031 35.207031 65.675781-11.335937-7.050781-24.191406-11.222656-36.925781-11.886719zm-208.542969 181.023438c-2.828124-3.976562-2.871093-9.550781-2.648437-15.894531.574219-16.277344 1.261719-32.769531 2.042969-49.019531 1.289062-26.808594 3.082031-50.765626 11.976562-72.507813 11.734375-28.679687 36.339844-51.777344 65.519532-62.097656-4.625 10.445312-6.960938 21.882812-6.382813 33.371093.074219 1.417969.886719 2.695313 2.144531 3.359376 1.257813.664062 2.769532.617187 3.984375-.125 4.890625-2.984376 10.113281-5.351563 15.527344-7.105469-.140625 14.300781.53125 28.675781 2.023437 42.929687l-28.898437 6.824219c-1.839844.433594-3.132813 2.089844-3.105469 3.984375.613282 40.996094 1.808594 82.542969 3.550782 123.503906-14.726563-.074218-29.433594-.226562-44.109376-.472656-8.84375-.148438-17.585937-1.070312-21.625-6.75zm73.804688 7.261719c-1.703125-39.9375-2.882812-80.425781-3.507812-120.425781l24.816406-5.863282c.320312 2.511719.664062 5.019532 1.03125 7.515625.597656 4.066407 1.527344 8.671875 5.015625 11.882813 3.117187 2.871094 7.132812 3.585937 10.683593 3.585937 2.195313 0 4.210938-.273437 5.726563-.476562 3.03125-.410157 9.339844-1.261719 12.023437-6.546875 1.515626-2.996094 1.152344-6.25.910157-8.40625l-1.449219-12.898438c20.546875-2.085937 41.371094-2.226562 61.933594-.375.132812.015625.257812 0 .390625 0l-.683594 5.917969c-.554687 4.8125-1.851563 16.082031 5.945313 21.730469 2.441406 1.769531 5.210937 2.539062 7.996093 2.539062 4.910157 0 9.859375-2.394531 13.089844-5.90625 4.574219-4.964844 6.367187-11.542968 7.625-17.914062.230469-1.167969.445313-2.335938.65625-3.503906 10.980469.957031 21.773437 3.277343 32.167969 6.941406-5.472656 39.046875-9.214844 78.769531-11.125 118.121094-.011719.234374.007812.464843.035156.691406-57.609375 2.425781-115.589844 3.5625-173.28125 3.390625zm237.871094-22.164063c-.898438 4.625-1.925782 9.007813-4.570313 11.8125-3.667969 3.886719-10.261719 4.550782-16.703125 4.894532-11.746094.632812-23.515625 1.203124-35.296875 1.722656 1.953125-40.175782 5.824219-80.738282 11.507813-120.5625.265625-1.867188-.796875-3.667969-2.558594-4.335938-11.835938-4.503906-24.195312-7.34375-36.792969-8.492187 1.769531-12.710938 2.503907-25.53125 3.164063-38.058594 5.824218 2.433594 11.496094 5.714844 16.855468 9.839844.71875.554687 1.585938.839843 2.460938.839843.59375 0 1.191406-.132812 1.75-.402343 1.371094-.660157 2.253906-2.042969 2.277344-3.566407.230468-14.472656-2.859375-28.769531-8.703125-41.828124 30.742187 13.144531 55.445312 41.09375 65.621093 74.957031 9.394532 31.273437 9.71875 68.292969.988282 113.179687zm0 0"/></svg>