<?xml version="1.0" encoding="iso-8859-1"?>
<!-- Generator: Adobe Illustrator 19.0.0, SVG Export Plug-In . SVG Version: 6.00 Build 0)  -->
<svg version="1.1" id="Capa_1" xmlns="http://www.w3.org/2000/svg" xmlns:xlink="http://www.w3.org/1999/xlink" x="0px" y="0px"
	 viewBox="0 0 512.001 512.001" style="enable-background:new 0 0 512.001 512.001;" xml:space="preserve">
<g>
	<g>
		<path d="M511.782,170.639c-0.714-31.354-2.24-62.537-5.258-93.743c-1.115-11.522,1.036-25.86-5.678-35.968
			c-5.52-8.312-15.212-11.813-24.686-13.148c-8.606-1.214-17.216-0.85-25.857-0.872c-3.502-0.171-7.02-0.245-10.545-0.253
			c-12.945-0.514-25.864-1.6-38.833-1.699c-13.369-0.103-26.574,1.193-39.825,2.643c-19.012-0.121-38.023-0.307-57.035-0.336
			c-63.728-0.103-127.457,0.764-191.182,0.652C97.042,27.888,81.2,27.674,65.36,27.843c-7.902,0.085-15.805,0.261-23.7,0.605
			c-5.714,0.249-11.584,0.498-17.026,2.438C5.491,37.707,5.009,58.694,3.606,75.891c-5.201,63.789-4.08,127.729-1.002,191.594
			c0.735,15.258,0.308,30.533,0.842,45.795c0.434,12.409,0.194,27.526,6.905,38.494c4.981,8.139,13.362,12.657,22.354,15.073
			c11.164,3,23.086,4.381,34.534,5.741c30.75,3.656,61.768,2.966,92.667,2.729c5.679-0.044,11.357-0.045,17.036-0.028
			c-2.324,9.67-2.788,20.231-3.472,30.041c-0.706,10.118-2.35,21.293-0.84,31.375c0.166,1.105,0.433,2.118,0.774,3.062
			c-0.321,0.016-0.645,0.025-0.965,0.042c-8.547,0.457-17.355-0.028-25.843,0.99c-6.793,0.814-12.565,3.364-15.583,9.789
			c-4.583,9.758-3.441,25.057,7.326,30.026c10.223,4.718,22.555,3.566,33.507,3.664c19.986,0.178,39.991,1.33,59.98,1.71
			c21.055,0.4,42.114,0.587,63.173,0.66c9.324,0.032,18.673-0.176,27.992,0.152c6.893,0.242,13.782,0.562,20.636-0.414
			c14.216-2.024,22.5-12.215,23.46-26.481c0.46-6.84-1.424-14.794-7.824-18.364c-6.32-3.526-14.359-2.038-21.121-1.03
			c-2.354,0.35-4.761,0.539-7.202,0.632c4.894-9.089,4.721-21.179,4.79-31.135c0.072-10.467,0.471-21.679-1.118-32.197
			c5.673-0.145,11.35-0.359,17.033-0.667c15.846-0.858,31.683-1.949,47.547-2.412c15.666-0.458,31.342,0.076,47.005-0.491
			c12.212-0.441,26.324-0.306,37.249-6.606c8.389-4.839,13.476-13.008,16.75-21.888c9.592-26.013,9.886-55.947,10.481-83.307
			C511.347,231.83,512.48,201.257,511.782,170.639z M345.999,449.67c3.716-0.154,8.875,0.143,10.085,4.471
			c1.495,5.35-0.239,12.545-3.54,16.941c-3.155,4.203-9.016,4.956-13.913,5.297c-12.572,0.873-25.485-0.121-38.088-0.106
			c-34.725,0.04-69.457-0.183-104.169-1.195c-12.315-0.358-24.628-0.477-36.937-0.813c-4.574-0.125-9.215-0.357-13.661-1.522
			c-4.382-1.148-6.302-2.57-6.99-7.201c-0.817-5.506-0.239-12.62,5.851-14.419c7.214-2.131,16.054-0.827,23.551-1.247
			c8.045-0.451,16.518-0.258,24.71,0.172c9.326,0.49,18.714,0.359,28.024,1.098c24.006,1.902,47.993,1.829,72.058,1.796
			c12.387-0.017,24.771-0.542,37.12-1.519C335.41,451.003,340.726,449.888,345.999,449.67z M183.574,375.312
			c24.261,0.161,48.518,0.791,72.768,1.513c22.453,0.669,44.813,1.405,67.209,1.18c1.495,8.35,1.063,17.229,1.276,25.646
			c0.235,9.29,0.614,19.321-1.746,28.385c-2.347,9.013-8.548,9.545-16.77,10.129c-9.498,0.676-19.027,0.291-28.538,0.33
			c-14.315,0.058-28.639,0.021-42.939-0.72c-8.648-0.447-17.234-1.057-25.872-1.334c-6.691-0.214-13.261-1.154-19.977-1.116
			c-2.668-0.367-5.298-0.731-6.217-3.5c-1.323-3.985-0.333-9.865-0.301-14.03c0.039-5.146,0.161-10.291,0.339-15.434
			C183.161,396.167,184.326,385.523,183.574,375.312z M469.861,359.722c-13.497,3.179-28.539,2.453-42.32,2.479
			c-15.237,0.028-30.425,0.187-45.646,0.976c-29.727,1.54-59.218,3.381-89.003,2.563c-30.273-0.83-60.542-1.876-90.823-2.347
			c-29.685-0.462-59.371,0.413-89.051-0.111c-25.48-0.45-52.331-1.475-77.089-8.128c-8.587-2.308-15.225-6.662-17.666-15.621
			c-2.324-8.532-2.83-17.813-2.932-26.964c20.846,0.307,41.714-0.949,62.526-0.565c25.759,0.475,51.448,1.627,77.222,1.828
			c26.103,0.204,52.203,0.693,78.303,1.116c25.725,0.416,51.445,0.643,77.173,0.724c25.802,0.081,51.561,1.776,77.354,2.206
			c13.244,0.22,26.5,0.104,39.723-0.741c4.77-0.305,9.851-0.492,14.739-1.346c8.415,0.889,16.979,1.016,25.237,1.239
			c8.112,0.219,16.317,0.396,24.405-0.408c0.702-0.069,1.546-0.143,2.459-0.238C492.211,333.392,488.397,355.355,469.861,359.722z
			 M68.63,66.161c18.913-5.347,40.004-1.188,59.342-1.184c48.414,0.014,96.867-0.69,145.275,0.159
			c24.072,0.422,48.149,0.926,72.226,0.918c9.788-0.002,19.574-0.248,29.36-0.47c5.708,0.38,11.419,0.709,17.167,0.591
			c10.155-0.208,20.312-0.811,30.457-0.298c1.544,0.089,3.089,0.209,4.634,0.317c0.169,0.015,0.338,0.021,0.507,0.037
			c7.042,0.65,15.728,1.026,22.152,4.28c8.235,4.171,6.316,16.603,6.647,24.282c1.008,23.41,0.82,46.848,0.146,70.265
			c-0.672,23.396-2.311,46.815-2.04,70.226c0.139,12.008,0.567,24.016,0.275,36.024c-0.208,8.524,0.34,18.955-3.184,26.972
			c-2.221,5.052-7.375,6.203-12.408,6.951c-11.032,1.64-22.488,1.697-33.619,1.839c-23.941,0.305-47.858-1.079-71.78-1.793
			c-24.269-0.724-48.565-0.401-72.843-0.693c-23.891-0.288-47.78-0.736-71.671-1.072c-24.262-0.342-48.58,0.09-72.829-0.684
			c-12.132-0.387-24.245-1.229-36.378-1.568c-6.594-0.185-16.923,1.635-23.018-1.856c-4.33-2.48-4.195-9.242-4.443-13.57
			c-0.691-12.041-0.854-24.128-0.854-36.187c-0.002-47.667,2.38-95.484,4.375-143.105C56.625,94.67,53.789,70.357,68.63,66.161z
			 M499.077,224.529c-0.934,27.14-0.174,54.535-3.289,81.557c-2.473,0.532-4.997,0.752-7.519,0.92
			c-7.912,0.525-15.874,0.396-23.794,0.188c-1.792-0.047-3.619-0.131-5.467-0.229c7.647-10.204,6.621-27.574,6.813-38.921
			c0.209-12.377-0.258-24.752-0.282-37.128c-0.025-12.962,0.712-25.908,1.244-38.855c1.036-25.225,1.917-50.472,1.596-75.722
			c-0.161-12.633-0.188-25.533-1.658-38.094c-0.9-7.69-4.763-14.203-11.818-17.701c-7.059-3.499-15.286-4.066-22.988-5
			c-12.575-1.524-25.151-0.492-37.751,0.113c-12.645,0.608-25.264-0.778-37.887,0.001c-0.715,0.045-1.342,0.218-1.881,0.486
			c-17.202-0.258-34.398-0.655-51.599-1.215c-51.952-1.693-103.929-1.464-155.903-1.449c-12.094,0.003-24.179,0.143-36.262-0.438
			c-10.481-0.503-21.037-1.186-31.512-0.21c-8.687,0.81-18.648,2.009-24.772,8.911c-5.185,5.844-6.862,13.713-7.703,21.252
			c-2.468,22.149-2.115,44.84-2.838,67.097c-0.829,25.514-2.052,51.019-2.622,76.539c-0.286,12.785-0.389,25.576-0.158,38.363
			c0.185,10.251-0.377,21.288,1.944,31.349c0.571,2.475,1.431,4.545,2.517,6.293c-10.053-0.158-20.123-0.369-30.175-0.277
			c0-1.357-0.001-2.706-0.011-4.039c-0.224-29.78-2.071-59.492-2.792-89.264c-0.729-30.109-0.71-60.247,0.56-90.343
			c0.639-15.142,1.638-30.254,2.981-45.349c0.686-7.706,0.758-16.572,4.372-23.611c4.108-8.001,13.227-8.511,21.238-8.887
			c14.731-0.691,29.482-0.803,44.228-0.801c60.256,0.006,120.51-0.903,180.766-1.177c29.955-0.136,59.907-0.169,89.862-0.032
			c20.767,0.094,41.462-0.424,62.18-0.993c8.543,0.523,17.083,1.131,25.637,1.441c13.299,0.482,43.461-4.888,47.838,12.938
			c1.297,5.285,0.786,10.923,1.092,16.315c0.434,7.658,1.438,15.284,2.232,22.91c1.504,14.457,1.9,28.994,2.493,43.512
			C499.204,164.813,500.104,194.677,499.077,224.529z"/>
	</g>
</g>
<g>
	<g>
		<path d="M271.987,328.109c-9.243-5.686-25.703-6.041-34.445,1.621c-2.392,1.215-4.553,2.748-6.287,4.565
			c-8.548,8.968-1.184,19.581,8.506,23.137c10.075,3.696,24.022,4.626,32.734-2.66C281.189,347.503,282.369,334.498,271.987,328.109
			z M269.128,346.312c-2.938,3.401-7.451,4.108-11.676,4.265c-5.936,0.219-14.513,0.268-19.346-3.734
			c-8.167-6.761,8.467-12.891,13.294-13.84c5.64-1.109,12.155-0.85,16.951,2.67C272.058,338.393,272.027,342.954,269.128,346.312z"
			/>
	</g>
</g>
<g>
	<g>
		<path d="M243.908,158.123c-1.611-5.326-4.934-8.796-9.15-11.03c0.373-3.322-0.236-7.018-0.689-10.09
			c-0.64-4.342-2.338-8.541-4.899-12.111c-5.864-8.177-14.994-10.827-24.64-11.52c-10.345-0.742-20.813,0.579-31.149,1.041
			c-8.534,0.382-21.084-0.317-28.389,5.123c-0.711-0.309-1.448-0.591-2.237-0.814c-4.333-1.225-11.906-1.458-17.424,0.765
			c-0.265-3.443-0.539-6.886-0.818-10.327c-0.663-8.139-0.353-19.217-7.943-24.447c-6.306-4.345-17.609-4.49-24.749-2.376
			c-11.277,3.339-9.347,17.562-9.116,26.649c0.254,10.103,0.524,20.263,1.105,30.392c-0.025,0.761-0.049,1.521-0.074,2.28
			c-0.437,13.125-1.583,27.408,0.75,40.42c2.945,16.43,31.328,24.055,38.532,6.932c2.216-5.268,3.221-11.279,3.664-17.4
			c13.402-0.094,26.8-0.437,40.198-0.794c5.767-0.153,11.648,0.058,17.387-0.575c4.86-0.535,9.671-1.567,14.579-1.602
			c4.767-0.035,7.444,0.679,7.222,5.877c-0.181,4.234-0.555,8.495,2.407,11.962c4.715,5.52,13.583,4.773,20.137,4.444
			c7.443-0.373,12.612-1.684,14.91-9.485C245.57,174.48,246.028,165.13,243.908,158.123z M116.336,174.572
			c-0.794,6.88-1.239,15.373-9.97,14.061c-3.385-0.51-8.097-1.5-10.584-4.041c-2.148-2.193-2.273-5.629-2.467-8.518
			c-0.57-8.507,0.074-16.658,0.257-25.145c0.187-8.66-0.389-17.312-0.763-25.959c-0.088-2.036-0.17-4.073-0.246-6.11
			c-0.045-2.145-0.114-4.286-0.197-6.428c-0.042-1.863-0.075-3.726-0.081-5.59c-0.01-3.297-1.246-10.678,0.877-13.629
			c2.318-3.224,12.085-2.197,15.429-1.326c6.506,1.697,5.684,11.082,6.128,16.362C116.584,130.43,118.902,152.335,116.336,174.572z
			 M158.11,123.01c4.452-0.157,8.916-0.193,13.37-0.24c8.612-0.091,17.205-0.754,25.812-0.803
			c8.659-0.049,19.122,0.327,24.574,8.144c2.695,3.864,3.052,7.646,3.135,12.17c0.011,0.604,0.024,1.192,0.047,1.766
			c-7.331-1.176-15.375-0.632-21.688-0.196c-12.326,0.85-24.529,0.08-36.872-0.337c-2.532-0.085-5.064-0.133-7.596-0.189
			c0.086-0.505,0.082-1.055-0.063-1.653c-1.567-6.455-3.677-13.502-8.221-18.227C153.118,123.383,155.65,123.098,158.11,123.01z
			 M125.908,127.457c5.034-1.035,9.801-2.291,15.334-0.764c4.7,1.298,7.311,4.984,8.822,9.404c0.538,1.574,1.846,4.561,0.76,6.146
			c-1.321,1.928-6.347,0.856-8.373,0.848c-5.023-0.021-10.475-0.298-15.706,0.259C126.566,138.048,126.265,132.752,125.908,127.457z
			 M234.897,175.352c-0.249,1.659-0.643,3.273-1.222,4.843c-0.021,0.057-0.105,0.211-0.181,0.364
			c-0.302,0.115-0.693,0.28-0.888,0.293c-3.397,0.219-6.766,0.454-10.177,0.461c-1.96,0.005-5.573,0.59-6.85-0.896
			c-1.83-2.131-0.283-7.794-0.856-10.561c-1.61-7.772-8.778-10.151-15.877-10.077c-4.69,0.049-9.318,0.979-13.968,1.479
			c-5.948,0.639-12.022,0.32-17.998,0.393c-13.293,0.163-26.583,0.498-39.875,0.578c0.016-3.59-0.05-7.109-0.073-10.422
			c-0.001-0.202-0.008-0.404-0.009-0.606c2.983,0.305,6.007,0.378,8.963,0.528c6.559,0.334,13.124,0.558,19.685,0.848
			c12.198,0.54,24.513,1.412,36.721,1.421c6.863,0.006,13.7-0.905,20.563-1.021c6.109-0.106,14.654-0.372,19.446,4.178
			C236.653,161.287,235.696,170.024,234.897,175.352z"/>
	</g>
</g>
<g>
	<g>
		<path d="M444.016,134.112c-0.228-13.65,1.175-34.513-10.395-44.508c-6.463-5.584-14.945-5.511-23.015-5.565
			c-3.518-0.023-7.009,0.022-10.488,0.128c-0.902-0.032-1.804-0.064-2.703-0.099c-14.231-0.54-28.419-1.701-42.664-2.045
			c-14.954-0.36-29.904-0.073-44.84,0.743c-11.734,0.641-24.415,0.978-35.898,3.741c-22.584,5.436-17.4,35.462-17.363,53.026
			c0.03,14.249,0.375,28.477,0.757,42.718c0.177,6.621,0.314,13.243,0.563,19.862c0.2,5.332-0.035,11.079,1.149,16.318
			c2.344,10.369,13.14,11.703,22.045,13.271c10.534,1.854,23.307,4.273,34.088,1.454c-0.079,1.816-0.129,3.637-0.123,5.462
			c0.02,5.85,1.878,11.912,8.784,12.189c7.743,0.311,13.625-5.122,20.096-8.585c4.096,7.393,7.144,15.376,9.874,23.339
			c1.829,5.337,4.415,15.623,11.513,15.897c3.584,0.139,6.686-2.594,9.296-4.703c3.823-3.089,8.086-5.315,12.231-7.933
			c7.897-4.985,13.585-11.27,8.545-20.698c-2.102-3.933-5.09-7.57-7.603-11.255c-0.724-1.061-1.511-2.069-2.29-3.083
			c7.208,0.931,15.048,0.692,21.957,0.546c8.037-0.171,17.61-1.048,24.398-5.784c11.049-7.709,10.771-23.475,10.667-35.475
			C442.426,173.411,444.344,153.79,444.016,134.112z M385.399,259.477c-3.306,2.431-6.807,4.578-10.315,6.699
			c-1.97,1.191-7.318,5.771-9.213,4.508c-3.167-2.111-3.5-9.305-4.639-12.633c-2.84-8.293-6.686-16.742-11.235-24.225
			c-1.005-1.652-3.362-2.884-5.31-2.16c-3.661,1.358-6.992,3.412-10.385,5.313c-2.17,1.215-4.318,2.666-6.707,3.426
			c-4.055,1.288-2.946-2.373-2.928-5.41c0.061-9.977,1.146-19.916,2.366-29.808c0.649-5.267,1.667-10.604,1.97-15.902
			c0.237-4.145-0.953-8.694,1.049-12.601c0.06-0.116,0.093-0.198,0.123-0.274c1.667-0.132,4.223,1.547,5.697,2.241
			c4.917,2.315,9.616,5.098,14.271,7.892c8.288,4.974,16.894,9.626,24.769,15.245c3.089,2.204,10.146,6.32,8.598,10.594
			c-1.405,3.881-6.109,6.951-8.7,10.051c-4.802,5.744-0.115,12.369,3.651,17.281c2.288,2.983,4.367,6.157,6.574,9.208
			C388.065,253.109,390.314,255.861,385.399,259.477z M428.108,217.365c-4.402,5.951-14.918,5.863-21.509,5.972
			c-6.115,0.101-12.649-0.944-18.952-0.899c5.949-7.195,8.712-14.457,0.576-22.319c-8.81-8.513-20.077-14.308-30.405-20.709
			c-5.19-3.217-10.377-6.483-15.888-9.134c-4.108-1.977-8.98-4.686-13.714-3.866c-8.629,1.492-8.996,11.737-8.908,18.656
			c0.072,5.62-0.219,11.132-0.736,16.735c-0.294,3.188-0.71,6.4-0.939,9.61c-0.663,4.229-1.256,8.467-1.702,12.72
			c-9.402,0.386-18.593,0.513-27.989-0.844c-6.071-0.876-18.81-0.654-20.004-8.276c-1.666-10.635-1.041-22.019-1.344-32.76
			c-0.352-12.45-0.713-24.892-0.795-37.347c-0.068-9.993-0.58-20.124-0.081-30.107c0.225-4.507,0.724-9.436,2.702-13.563
			c2.219-4.632,7.208-5.58,11.877-6.225c23.454-3.24,47.502-3.982,71.154-3.737c14.135,0.146,28.257,0.843,42.39,1.07
			c5.555,0.089,11.108-0.126,16.66-0.31c4.821,0.11,9.649,0.553,13.715,2.37c4.912,2.196,6.917,7.06,8.011,12.007
			c1.755,7.928,1.734,16.458,1.863,24.545c0.292,18.265-1.208,36.451-1.895,54.686C431.83,195.342,434.282,209.019,428.108,217.365z
			"/>
	</g>
</g>
<g>
	<g>
		<path d="M298.075,114.919c0.06-0.725-0.001-1.456-0.218-2.169c-1.039-3.419-5.207-5.01-8.9-4.273
			c-2.79,0.556-5.055,2.454-5.922,4.836c-1.044,2.869,0.295,5.553,2.4,7.709c1.369,1.403,4.148,2.01,6.119,1.423
			c1.641-0.488,3.075-1.083,4.349-2.131c1.422-1.17,2.22-2.946,2.233-4.646C298.138,115.416,298.112,115.167,298.075,114.919z"/>
	</g>
</g>
<g>
	<g>
		<path d="M328.231,114.919c0.06-0.725-0.002-1.456-0.218-2.169c-1.039-3.419-5.207-5.01-8.9-4.273
			c-2.791,0.556-5.055,2.454-5.922,4.836c-1.044,2.869,0.295,5.553,2.4,7.709c1.369,1.403,4.147,2.01,6.118,1.423
			c1.641-0.488,3.075-1.083,4.35-2.131c1.422-1.17,2.22-2.946,2.232-4.646C328.293,115.416,328.267,115.167,328.231,114.919z"/>
	</g>
</g>
<g>
	<g>
		<path d="M358.387,114.919c0.06-0.725-0.002-1.456-0.218-2.169c-1.039-3.419-5.207-5.01-8.9-4.273
			c-2.79,0.556-5.055,2.454-5.922,4.836c-1.044,2.869,0.295,5.553,2.4,7.709c1.368,1.403,4.147,2.01,6.118,1.423
			c1.641-0.488,3.075-1.083,4.349-2.131c1.422-1.17,2.22-2.946,2.233-4.646C358.449,115.416,358.423,115.167,358.387,114.919z"/>
	</g>
</g>
<g>
	<g>
		<path d="M388.542,114.919c0.06-0.725-0.002-1.456-0.218-2.169c-1.039-3.419-5.207-5.01-8.9-4.273
			c-2.791,0.556-5.055,2.454-5.922,4.836c-1.044,2.869,0.295,5.553,2.4,7.709c1.369,1.403,4.148,2.01,6.118,1.423
			c1.641-0.488,3.076-1.083,4.35-2.131c1.422-1.17,2.22-2.946,2.232-4.646C388.604,115.416,388.578,115.167,388.542,114.919z"/>
	</g>
</g>
<g>
	<g>
		<path d="M418.698,114.919c0.06-0.725-0.002-1.456-0.218-2.169c-1.039-3.419-5.207-5.01-8.9-4.273
			c-2.79,0.556-5.055,2.454-5.922,4.836c-1.044,2.869,0.296,5.553,2.4,7.709c1.368,1.403,4.147,2.01,6.118,1.423
			c1.641-0.488,3.075-1.083,4.349-2.131c1.422-1.17,2.22-2.946,2.233-4.646C418.76,115.416,418.734,115.167,418.698,114.919z"/>
	</g>
</g>
<g>
	<g>
		<path d="M297.443,139.288c0.06-0.725-0.002-1.456-0.218-2.169c-1.039-3.419-5.207-5.01-8.9-4.273
			c-2.791,0.556-5.055,2.454-5.922,4.836c-1.045,2.869,0.295,5.553,2.4,7.709c1.369,1.403,4.148,2.01,6.118,1.423
			c1.641-0.488,3.075-1.083,4.349-2.131c1.422-1.17,2.22-2.946,2.233-4.646C297.505,139.785,297.479,139.536,297.443,139.288z"/>
	</g>
</g>
<g>
	<g>
		<path d="M327.599,139.288c0.06-0.725-0.002-1.456-0.218-2.169c-1.039-3.419-5.207-5.01-8.9-4.273
			c-2.79,0.556-5.055,2.454-5.922,4.836c-1.044,2.869,0.295,5.553,2.4,7.709c1.369,1.403,4.147,2.01,6.118,1.423
			c1.641-0.488,3.076-1.083,4.35-2.131c1.422-1.17,2.22-2.946,2.233-4.646C327.661,139.785,327.635,139.536,327.599,139.288z"/>
	</g>
</g>
<g>
	<g>
		<path d="M357.754,139.288c0.06-0.725-0.002-1.456-0.218-2.169c-1.039-3.419-5.207-5.01-8.9-4.273
			c-2.791,0.556-5.055,2.454-5.922,4.836c-1.044,2.869,0.295,5.553,2.4,7.709c1.369,1.403,4.148,2.01,6.118,1.423
			c1.641-0.488,3.075-1.083,4.349-2.131c1.422-1.17,2.22-2.946,2.233-4.646C357.816,139.785,357.79,139.536,357.754,139.288z"/>
	</g>
</g>
<g>
	<g>
		<path d="M387.909,139.288c0.06-0.725-0.001-1.456-0.218-2.169c-1.038-3.419-5.207-5.01-8.9-4.273
			c-2.79,0.556-5.055,2.454-5.922,4.836c-1.044,2.869,0.295,5.553,2.4,7.709c1.37,1.403,4.149,2.01,6.119,1.423
			c1.64-0.488,3.075-1.083,4.349-2.131c1.422-1.17,2.22-2.946,2.233-4.646C387.971,139.785,387.945,139.536,387.909,139.288z"/>
	</g>
</g>
<g>
	<g>
		<path d="M418.065,139.288c0.06-0.725-0.002-1.456-0.218-2.169c-1.039-3.419-5.207-5.01-8.9-4.273
			c-2.791,0.556-5.055,2.454-5.922,4.836c-1.044,2.869,0.295,5.553,2.4,7.709c1.369,1.403,4.148,2.01,6.118,1.423
			c1.641-0.488,3.075-1.083,4.349-2.131c1.422-1.17,2.22-2.946,2.233-4.646C418.127,139.785,418.101,139.536,418.065,139.288z"/>
	</g>
</g>
<g>
	<g>
		<path d="M296.811,163.658c0.06-0.725-0.002-1.456-0.218-2.169c-1.039-3.419-5.207-5.01-8.9-4.273
			c-2.79,0.556-5.055,2.454-5.921,4.836c-1.044,2.869,0.295,5.553,2.4,7.709c1.368,1.402,4.146,2.01,6.117,1.423
			c1.641-0.488,3.075-1.083,4.349-2.131c1.422-1.169,2.22-2.945,2.233-4.646C296.873,164.155,296.847,163.906,296.811,163.658z"/>
	</g>
</g>
<g>
	<g>
		<path d="M387.277,163.658c0.06-0.725-0.001-1.456-0.218-2.169c-1.039-3.419-5.207-5.01-8.9-4.273
			c-2.79,0.556-5.055,2.454-5.922,4.836c-1.044,2.869,0.295,5.553,2.4,7.709c1.369,1.402,4.148,2.01,6.119,1.423
			c1.641-0.488,3.075-1.083,4.349-2.131c1.422-1.169,2.22-2.945,2.233-4.646C387.339,164.155,387.314,163.906,387.277,163.658z"/>
	</g>
</g>
<g>
	<g>
		<path d="M417.433,163.658c0.06-0.725-0.002-1.456-0.218-2.169c-1.039-3.419-5.207-5.01-8.9-4.273
			c-2.791,0.556-5.055,2.454-5.922,4.836c-1.044,2.869,0.295,5.553,2.4,7.709c1.369,1.402,4.147,2.01,6.118,1.423
			c1.641-0.488,3.075-1.083,4.349-2.131c1.422-1.169,2.22-2.945,2.233-4.646C417.495,164.155,417.469,163.906,417.433,163.658z"/>
	</g>
</g>
<g>
	<g>
		<path d="M296.179,188.028c0.06-0.725-0.002-1.457-0.218-2.169c-1.039-3.42-5.207-5.011-8.9-4.274
			c-2.791,0.556-5.055,2.455-5.922,4.836c-1.044,2.869,0.295,5.553,2.4,7.709c1.368,1.403,4.147,2.01,6.118,1.423
			c1.641-0.488,3.075-1.082,4.349-2.13c1.423-1.17,2.22-2.946,2.233-4.646C296.241,188.525,296.215,188.276,296.179,188.028z"/>
	</g>
</g>
<g>
	<g>
		<path d="M416.801,188.028c0.06-0.725-0.002-1.457-0.218-2.169c-1.039-3.42-5.207-5.011-8.9-4.274
			c-2.791,0.556-5.055,2.455-5.922,4.836c-1.044,2.869,0.295,5.553,2.4,7.709c1.369,1.403,4.148,2.01,6.118,1.423
			c1.641-0.488,3.076-1.082,4.35-2.13c1.422-1.17,2.22-2.946,2.232-4.646C416.863,188.525,416.837,188.276,416.801,188.028z"/>
	</g>
</g>
<g>
	<g>
		<path d="M242.893,226.927c-3.967-8.041-12.211-9.15-20.258-10.166c-12.172-1.537-24.847-0.813-37.123-0.964
			c-14.287-0.175-28.574-0.351-42.86-0.526c-13.562-0.166-27.159,0.266-40.654-0.341c-6.992-0.315-14.668,0.227-18.228,7.165
			c-2.964,5.778-2.288,13.182-3.304,19.482c-1.78,11.05-5.393,26.995,4,35.724c5.734,5.328,15.06,5.273,22.369,5.371
			c10.902,0.146,21.783,0.933,32.658,1.688c21.625,1.503,43.247,2.577,64.853,4.282c16.805,1.326,31.533-3.495,37.58-20.339
			c2.435-6.781,3.077-14.251,3.262-21.405C245.356,240.426,245.841,232.902,242.893,226.927z M234.21,254.975
			c-0.62,5.604-1.914,11.652-5.278,16.303c-4.44,6.14-11.746,7.44-18.912,7.38c-8.613-0.072-17.216-1.45-25.815-1.93
			c-9.571-0.534-19.152-0.854-28.725-1.354c-9.607-0.501-19.204-1.172-28.813-1.658c-8.725-0.441-17.519-0.199-26.224-0.77
			c-6.775-0.444-11.438-1.941-12.544-9.073c-0.861-5.554,0.003-11.468,0.806-16.978c0.75-5.152,1.156-10.32,1.832-15.471
			c0.393-2.992,0.779-6.105,4.004-6.994c3.181-0.877,7.149-0.153,10.387,0.072c21.03,1.467,42.408,0.827,63.499,1.465
			c14.836,0.448,30.082,1.273,45.093,0.477c3.388,0.321,6.773,0.674,10.15,1.101c6.791,0.856,10.317,2.191,10.887,9.396
			C235.026,242.869,234.864,249.067,234.21,254.975z"/>
	</g>
</g>
<g>
</g>
<g>
</g>
<g>
</g>
<g>
</g>
<g>
</g>
<g>
</g>
<g>
</g>
<g>
</g>
<g>
</g>
<g>
</g>
<g>
</g>
<g>
</g>
<g>
</g>
<g>
</g>
<g>
</g>
</svg>
