<?xml version="1.0" encoding="iso-8859-1"?>
<!-- Generator: Adobe Illustrator 19.0.0, SVG Export Plug-In . SVG Version: 6.00 Build 0)  -->
<svg version="1.1" id="Capa_1" xmlns="http://www.w3.org/2000/svg" xmlns:xlink="http://www.w3.org/1999/xlink" x="0px" y="0px"
	 viewBox="0 0 512 512" style="enable-background:new 0 0 512 512;" xml:space="preserve">
<g>
	<g>
		<path d="M239.669,357.191c-0.598-6.281-3.259-13.17-9.498-15.742c-1.482-0.611-3.178-1.01-4.983-1.22
			c-6.02-0.707-13.258,0.663-17.832,3.162c-4.632,2.531-8.601,6.253-11.788,10.434c-5.964,7.82-10.377,18.953-7.008,28.744
			c4.354,12.652,22.966,18.202,35.011,15.486c7.898-1.781,12.304-7.818,14.004-15.432
			C239.398,374.456,240.463,365.543,239.669,357.191z M228.377,367.403c-0.335,5.015-0.254,15.638-4.946,18.841
			c-4.608,3.146-13.564,0.32-18.162-1.59c-10.086-4.186-7.358-15.279-2.62-22.771c4.541-7.181,12.722-11.218,21.22-10.307
			C230.333,352.271,228.688,362.754,228.377,367.403z"/>
	</g>
</g>
<g>
	<g>
		<path d="M511.252,464.143c-3.758-10.152-16.51-5.494-24.411-5.345c-15.324,0.29-30.663-0.13-45.99-0.047
			c-6.372,0.034-12.737,0.205-19.1,0.412c22.287-16.507,27.516-48.064,30.413-74.378c1.965-17.854,3.781-35.814,4.806-53.745
			c0.574-10.042,0.772-20.12,0.192-30.167c-0.367-6.355-0.362-13.582-2.632-19.618c-0.334-0.89-0.73-1.729-1.178-2.524
			c5.269-3.93,9.595-11.713,11.182-15.842c3.739-9.726,5.182-21.133,4.399-31.518c-1.151-15.293-6.082-30.412-12.05-44.439
			c-3.193-7.504-6.813-14.738-11.078-21.692c-3.257-5.311-7.356-12.095-12.75-15.839c0.132-3.091,0.012-6.26-0.402-9.515
			c-3.188-25.091-20.971-48.219-38.43-65.558c-10.091-10.021-21.415-18.811-33.454-26.369
			c-11.216-7.041-23.856-13.828-37.436-11.705c-1.621-3.365-3.581-6.504-5.958-9.313c-8.108-9.578-19.943-11.94-31.712-14.029
			c-16.542-2.938-33.327-5.381-50.073-6.794c-16.258-1.371-32.235,0.263-48.349,2.376c-5.51,0.723-10.828,1.844-15.793,3.654
			c-8.706,1.595-16.88,4.674-23.737,10.806c-7.71,6.894-12.004,15.761-14.095,25.321c-8.848-0.994-18.371,5.1-25.032,10.018
			c-8.563,6.322-16.071,13.957-24.408,20.571c-15.4,12.22-33.147,25.142-41.991,43.267c-5.223,10.703-5.126,20.952-2.08,30.67
			c-5.429,2.406-9.82,7.375-13.638,11.686c-5.746,6.484-10.673,13.92-14.742,21.559c-8.03,15.072-13.739,32.925-11.054,50.133
			c1.58,10.122,6.299,17.862,12.779,24.14c-15.977,27.948,1.139,62.817,27.97,76.792c14.209,7.401,28.787,1.541,37.627-11.043
			c4.384-6.241,7.14-13.772,7.67-21.391c0.534-7.67-0.605-18.607-3.856-26.12c2.218-1.804,4.286-3.794,6.185-5.86
			c6.05-6.583,11.341-14.15,15.311-22.168c2.689-5.432,6.126-12.246,5.386-18.559c1.176,0.066,2.374,0.084,3.617,0.006
			c13.695-0.853,27.565-8.141,37.946-16.756c6.323-5.247,17.248-14.648,18.448-24.035c10.622,5.367,22.799,6.215,34.476,6.961
			c14.565,0.931,29.104,2.24,43.708,2.461c13.683,0.206,27.601-0.461,40.205-6.33c0.732-0.342,1.445-0.699,2.144-1.07
			c4.518,4.35,9.335,8.363,13.718,12.869c4.455,4.58,8.254,9.584,12.458,14.374c7.566,8.621,17.005,12.976,28.316,13.808
			c-1.192,6.604,0.982,15.115,2.893,20.748c0.869,2.563,2.428,6.574,4.579,10.08c-9.834-0.031-19.67,0-29.505-0.193
			c-20.223-0.396-40.43-3.162-60.669-1.924c-13.926,0.852-32.334,1.695-38.412,16.652c-2.129,5.239-2.737,10.968-2.602,16.588
			c0.069,2.867,0.25,5.73,0.283,8.6c0.012,1.039-0.574,4.028-0.716,6.09c-1.036-0.114-2.154-0.107-3.119-0.222
			c-2.942-0.35-5.646-0.72-8.596-0.353c-8.084,1.006-16.203,4.115-22.864,8.826c-12.797,9.053-20.897,23.693-23.47,39.021
			c-2.412,14.371-1.88,31.185,4.065,44.662c6.602,14.965,20.776,20.99,36.435,21.13c4.349,0.039,13.266-2.394,17.198-0.015
			c3.322,2.009,3.692,9.981,4.719,13.339c2.814,9.2,7.773,15.777,14.069,20.552c-11.36-0.549-22.743-0.803-34.168-0.855
			c-13.183-0.062-26.672-0.434-39.815,0.714c-8.179,0.715-15.107,4.679-14.2,13.943c0.82,8.376,7.46,16.963,13.997,21.856
			c7.178,5.374,16.069,8.168,24.826,9.612c20.745,3.422,42.439,1.609,63.377,1.899c28.679,0.398,57.351,1.28,86.033,1.375
			c27.617,0.092,55.197-1.988,82.815-1.64c20.171,0.255,41.97,4.017,61.496-2.804c8.331-2.91,15.24-7.674,20.425-14.827
			C508.182,481.137,514.104,471.85,511.252,464.143z M435.502,167.652c3.315,6.213,6.469,12.515,9.315,18.958
			c5.825,13.19,10.464,27.551,12.047,41.931c0.92,8.355,0.041,17.004-2.202,25.088c-1.138,4.103-2.637,8.428-5.322,11.805
			c-1.588,1.998-3.916,3.064-5.89,4.508c-8.156-4.016-18.736-5.098-26.586-5.943c-11.51-1.242-23.115-1.069-34.656-0.418
			c-3.983,0.225-10.303,2.066-14.137,0.969c-3.659-1.049-6.745-7.493-8.319-10.629c-2.789-5.553-3.524-13.871-6.72-19.74
			c20.41-1.91,38.021-16.219,51.629-30.718c11.908-12.688,22.779-26.695,26.799-43.017
			C432.809,162.925,434.27,165.341,435.502,167.652z M408.55,386.785c-3.379,10.696-21.107,9.379-30.143,9.844
			c-5.559,0.287-11.161,0.774-16.727,0.816c-3.392,0.024-7.478-0.085-9.872-2.862c-2.598-3.013-2.935-8.028-3.491-11.759
			c-0.811-5.437-1.563-10.89-1.957-16.375c-0.641-8.914-2.163-21.627,8.885-23.746c7.668-1.471,15.745,0.02,23.271-2.314
			c6.249-0.682,12.513-1.939,18.392-2.693c4.191-0.539,8.933-1.531,10.777,3.024c2.212,5.465,1.757,12.269,1.709,18.037
			C409.322,367.555,411.239,378.276,408.55,386.785z M71.524,317.756c-2.789,4.785-6.909,9.305-12.229,11.244
			c-6.318,2.305-11.965-0.641-17.284-3.945c-10.31-6.407-18.734-15.994-22.848-27.507c-3.937-11.019-2.889-21.891-0.764-32.95
			c5.137,3.982,10.992,7.341,17.101,10.379c9.096,4.525,18.128,12.297,28.846,11.604c3.116-0.202,6.083-0.963,8.891-2.13
			c0.521,5.064,2.295,10.206,2.604,15.191C76.238,306.057,74.767,312.193,71.524,317.756z M99.757,233.952
			c-0.433,4.456-4.232,9.011-6.406,12.765c-3.038,5.245-6.276,10.313-10.219,14.93c-5.008,5.865-12.156,13.52-20.543,13.384
			c-4.614-0.075-8.727-2.926-12.593-5.149c-4.08-2.346-8.322-4.285-12.539-6.365c-13.836-6.827-25.248-16.088-26.536-32.394
			c-1.139-14.409,4.163-28.633,10.655-41.229c3.675-7.131,8.032-13.821,12.674-20.355c2.584-3.639,5.638-7.04,8.101-10.777
			c3.938,8.972,10.079,17.453,16.434,25.375c8.482,10.574,16.205,21.771,24.857,32.198c2.727,3.286,5.705,6.409,9.104,9.009
			C95.872,227.734,100.195,229.435,99.757,233.952z M159.61,186.676c-1.219,7.18-11.404,15.85-16.674,20.173
			c-7.97,6.538-19.124,12.49-29.576,13.331c-12.08,0.971-19.271-9.094-25.821-17.76c-6.543-8.656-12.986-17.314-19.797-25.766
			c-11.902-14.767-24.585-32.484-13.947-51.242c8.515-15.016,23.354-25.674,36.479-36.375c7.4-6.033,14.21-12.674,21.368-18.982
			c6.668-5.875,13.446-10.629,20.858-14.988c-0.871,7.574-0.603,15.382,0.256,22.832c2.297,19.915,7.154,39.378,9.426,59.32
			c1.939,17.019,5.622,35.72,18.288,47.504C160.057,185.252,159.744,185.891,159.61,186.676z M262.982,187.316
			c-12.811,0.982-25.842,0.095-38.637-0.746c-11.594-0.76-23.562-0.926-35.039-2.824c-9.757-1.615-18.711-5.359-24.652-13.592
			c-5.333-7.388-7.56-16.578-9.094-25.411c-1.468-8.451-2.088-17.019-3.455-25.483c-1.375-8.518-3.41-16.918-5.108-25.373
			c-3.634-18.096-7.942-40.674,3.025-57.16c6.774-10.182,17.893-13.879,29.37-16.081c2.581-0.382,5.198-0.676,7.849-0.924
			c11.741-1.098,23.471-2.142,35.274-1.948c13.559,0.221,27.074,2.061,40.48,3.988c11.511,1.655,24.69,2.496,35.576,6.788
			c16.685,6.577,18.353,28.347,18.787,43.769c0.695,24.685-5.151,49.037-12.088,72.554c-2.8,9.491-5.053,20.246-10.975,28.39
			C287.227,182.98,274.403,186.441,262.982,187.316z M350.296,223.023c-5.561,0.351-11.861-0.271-16.931-2.736
			c-4.965-2.416-8.575-6.938-12.161-10.986c-6.921-7.816-14.893-15.893-24.605-20.217c6.616-5.203,11.314-12.141,14.639-20.382
			c9.868-24.454,16.136-52.271,18.3-78.504c1.062-12.867,1.41-28.765-2.2-42.787c9.472,0.453,18.575,5.786,26.429,10.621
			c9.514,5.858,18.501,12.462,26.777,19.976c16.028,14.551,32.224,33.637,38.522,54.731c6.858,22.969-4.111,41.667-18.976,58.447
			C387.304,205.622,370.676,221.74,350.296,223.023z M226.208,412.137c-10.803-5.453-24.309,1.005-35.767-3.068
			c-14.59-5.188-16.794-23.112-17.26-36.488c-0.487-14.004,3.262-28.572,13.462-38.676c5.39-5.337,12.308-8.902,19.765-10.271
			c6.043-1.108,11.259,1.401,17.238,1.249c12.526-0.317,11.256-15.793,10.602-24.514c-0.396-5.277-1.116-10.754,1.243-15.738
			c3.004-6.348,12.282-6.485,18.354-7.206c20.505-2.435,41.271-0.28,61.826,0.149c20.056,0.419,40.118-0.781,60.178-0.591
			c0.277,0.003,0.552,0.005,0.829,0.009c-2.091,10.239,0.91,21.906,0.993,32.02c0.034,4.063,0.3,8.113,0.41,12.174
			c0.048,1.777,0.827,6.451-0.268,8.275c-5.239,0.818-10.006,2.063-15.377,2.404c-9.29,0.592-19.759,2.131-23.632,11.879
			c-4.517,11.371-2.361,25.496-0.948,37.273c1.136,9.463,2.293,20.293,12.005,24.817c4.174,1.944,8.925,2.208,13.463,2.09
			c7.855-0.204,15.793-0.562,23.625-1.185c11.483-0.914,25.486-1.861,30.847-13.775c4.633-10.295,2.559-23.248,2.631-34.208
			c0.076-11.538,0.249-29.595-14.337-32.04c-5.942-0.996-11.983,0.553-17.865,1.336c0.495-4.924-0.379-10.483-0.665-15.374
			c-0.672-11.509-3.866-23.957-3.055-35.614c0.282-3.637,43.112,1.736,47.833,3.102c4.918,1.424,9.305,2.538,10.459,7.949
			c1.532,7.182,1.392,15.084,1.475,22.383c0.206,18.143-1.688,36.207-3.433,54.24c-1.409,14.566-2.531,29.202-5.659,43.527
			c-3.018,13.826-7.75,28.449-18.718,38.073c-9.978,8.755-23.615,11.386-36.417,12.763c-18.456,1.982-37.075,2.289-55.605,1.333
			c-16-0.825-32.267-1.874-48.18-3.763c-12.99-1.542-29.957-4.46-36.303-17.479C235.593,430.242,236.333,417.247,226.208,412.137z
			 M499.856,469.396c-1.072,1.518-1.636,3.93-2.568,5.623c-3.843,6.982-8.697,12.174-16.256,15.116
			c-16.248,6.325-34.848,3.484-51.81,3.036c-23.547-0.623-47.074,0.921-70.603,1.568c-24.364,0.67-48.76,0.097-73.125-0.297
			c-22.176-0.359-44.348-0.686-66.526-0.435c-15.286,0.173-35.061,1.341-47.901-8.524c-3.758-2.889-7.005-7.064-8.567-11.57
			c-1.691-4.879,0.364-4.418,4.739-4.422c12.961-0.008,25.939-0.413,38.899-0.686c13.358-0.279,26.751-0.781,40.101-0.051
			c19.389,1.063,38.638,1.791,57.971,3.527c20.016,1.795,40.047,2.632,60.13,1.474c9.369-0.54,18.974-1.195,28.3-2.972
			c8.416-0.271,16.828-0.616,25.244-0.928c23.792-0.883,47.604,0.438,71.386-0.317c3.32-0.104,6.996-0.249,10.269-0.804
			c0.232-0.04,0.409-0.043,0.562-0.036C500.008,469.026,499.896,469.34,499.856,469.396z"/>
	</g>
</g>
<g>
</g>
<g>
</g>
<g>
</g>
<g>
</g>
<g>
</g>
<g>
</g>
<g>
</g>
<g>
</g>
<g>
</g>
<g>
</g>
<g>
</g>
<g>
</g>
<g>
</g>
<g>
</g>
<g>
</g>
</svg>
