<?xml version="1.0" encoding="iso-8859-1"?>
<!-- Generator: Adobe Illustrator 19.0.0, SVG Export Plug-In . SVG Version: 6.00 Build 0)  -->
<svg version="1.1" id="Capa_1" xmlns="http://www.w3.org/2000/svg" xmlns:xlink="http://www.w3.org/1999/xlink" x="0px" y="0px"
	 viewBox="0 0 512 512" style="enable-background:new 0 0 512 512;" xml:space="preserve">
<g>
	<g>
		<path d="M509.082,368.583c-3.775-4.257-11.098-4.777-16.347-5.406c-5.771-0.692-11.57-0.913-17.364-1.292
			c-9.631-0.632-19.26-0.974-28.891-1.187c-0.656-4.228,0.416-8.858,1.078-12.959c1.057-6.535,1.392-12.973,1.672-19.59
			c0.657-15.46,1.133-30.927,0.93-46.403c-0.192-14.568-1.699-29.54-0.572-44.074c0.65-8.381,3.354-18.751-2.039-26.167
			c-2.463-3.39-6.194-4.997-10.346-5.691c0.191-0.678,0.255-1.426,0.123-2.242c-1.44-8.876,0.385-17.977-0.98-26.91
			c-1.084-7.087-3.861-14.013-8.121-19.797c-8.551-11.606-23.491-16.076-37.106-11.247c-13.54,4.803-22.915,16.388-26.182,30.167
			c-2.321,9.789-4.292,22.949,0.196,32.712c-4.24,1.343-7.697,3.953-9.459,9.28c-1.775,5.368-1.783,11.523-1.996,17.128
			c-0.303,8.004-0.043,16.017,0.16,24.02c0.441,17.382,1.717,34.646,2.455,52.008c0.65,15.274-2.227,30.58-1.611,45.787
			c-4.035-0.169-8.07-0.323-12.108-0.439c-3.175-0.091-6.353-0.145-9.528-0.215c-1.473-4.617-0.836-9.648-0.377-14.394
			c0.592-6.132,0.938-12.244,1.096-18.405c0.328-12.928-0.233-25.888,1.209-38.759c1.107-9.897,4.486-23.953-0.973-33.124
			c-4.342-7.292-13.574-7.102-21.012-7.408c-5.205-0.214-10.398-0.274-15.587-0.241c-0.442-2.7,0.296-7.459,0.397-9.377
			c0.215-4.068,0.624-8.123,0.945-12.183c0.493-6.211,1.631-13.829-1.339-19.635c-4.71-9.207-17.478-6.732-25.944-7.291
			c-8.93-0.589-27.82-2.437-29.205,10.329c-0.776,7.164,0.002,14.951,0.535,22.112c0.449,6.045,1.948,11.845,2.974,17.749
			c-2.839,0.067-5.679,0.116-8.521,0.132c-7.607,0.042-16.852-0.187-22.835,5.354c-6.724,6.226-5.909,17.328-5.131,25.625
			c1.253,13.358,1.763,26.383,1.909,39.818c0.15,13.664,0.455,27.301,3.346,40.64c-5.196,0.148-10.391,0.301-15.582,0.461
			c-0.917-6.458,0.393-13.625,0.477-19.977c0.121-9.128,0.265-18.232,0.67-27.354c0.831-18.713,1.705-37.411,1.797-56.146
			c0.076-15.792,1.702-31.698-0.934-47.376c-1.059-6.296-2.64-13.368-7.474-17.922c-3.8-3.581-8.931-4.641-13.972-4.966
			c-2.641-0.17-5.296-0.27-7.957-0.341c-0.12-0.315-0.268-0.636-0.458-0.962c-2.722-4.675-0.606-12.182-0.837-17.405
			c-0.342-7.767-0.913-15.56-1.912-23.271c-1.129-8.715-3.827-16.556-13.473-18.191c-4.713-0.8-9.613-0.605-14.441-0.313
			c-1.045-4.187-0.824-8.511-0.797-12.815c0.02-3.069-0.99-7.355-0.222-10.335c1.136-4.402,9.407-3.953,13.149-4.025
			c12.455-0.24,27.316,2.195,37.719-6.226c1.469-1.189,1.783-4.035,0.721-5.575c-15.416-22.304-44.994-17.03-68.167-14.955
			c-11.368,1.018-23.345,2.66-22.442,16.938c0.46,7.25,1.223,14.332,1.471,21.622c0.174,5.059-0.119,11.893,1.342,17.572
			c-4.813,0.087-10.283,0.018-14.295,2.146c-5.377,2.854-7.137,9.052-7.58,14.724c-0.653,8.322,0.234,17.219,0.75,25.547
			c0.385,6.233,1.063,13.159,3.318,19.254c-2.99,0.182-5.961,0.449-8.871,0.921c-12.875,2.089-16.169,14.239-16.356,25.591
			c-0.273,16.548-1.134,33.065-1.468,49.61c-0.418,20.75,1.389,41.647,2.363,62.371c0.399,8.492,0.811,16.96,1.041,25.457
			c0.113,4.13,0.557,8.22,1.9,11.998c-4.424-0.035-8.84-0.158-13.242-0.407c-12.916-0.732-27.748-2.516-40.081,2.346
			c-11.005,4.338-15.375,18.538-4.054,25.409c9.476,5.751,21.623,4.957,32.188,6.705c2.887,0.478,3.539,0.609,5.529,2.067
			c3.639,2.665,4.744,6.578,5.938,10.714c2.354,8.158,5.73,15.167,12.795,20.235c13.952,10.011,34.209,10.019,50.638,11.519
			c24.923,2.276,49.962,3.01,74.98,3.085c49.834,0.151,99.673-1.155,149.512-1.185c22.688-0.013,45.847-0.16,68.419-2.697
			c9.999-1.124,20.103-2.875,29.313-7.098c7.416-3.399,11.829-9.348,14.945-16.668c3.042-7.146,5.887-12.482,12.865-14.698
			c3.098-0.322,6.18-0.749,9.227-1.323c5.82-0.312,11.766-0.238,17.197-2.311C499.654,395.143,519.432,380.255,509.082,368.583z
			 M394.986,153.814c11.662-3.592,23.064,1.782,28.45,12.517c1.841,3.668,2.801,7.45,3.308,11.295
			c-2.912-0.617-6.548,0.384-9.125,1.136c-6.04,1.764-11.856,5.028-18.337,4.645c-6.119-0.362-17.938-7.025-25.643-5.414
			C376.421,166.871,383.639,157.311,394.986,153.814z M372.275,184.658c0.035,0,0.077,0.002,0.104,0.001
			c2.988-0.02,5.734,0.155,8.645,0.897c5.809,1.481,11.409,4.454,17.445,4.897c5.744,0.421,11.209-1.421,16.531-3.334
			c2.943-1.058,5.875-2.153,8.896-2.965c1.145-0.307,2.273-0.469,3.318-0.786c0.274,7.3-0.377,14.749,0.685,22.037
			c-3.22,0.125-6.335,0.407-8.998,0.488c-14.457,0.441-28.856,0.391-43.327,1.117c-1.484,0.074-2.955,0.17-4.395,0.32
			C370.477,199.917,371.014,192.066,372.275,184.658z M362.619,237.886c0.152-5.406-0.309-12.619,1.883-17.675
			c1.578-3.637,5.022-3.614,8.564-3.788c12.906-0.632,25.811-1.363,38.736-0.928c4.943,0.167,9.816-0.017,14.758-0.122
			c3.604-0.077,10.941-1.04,13.264,2.373c1.896,2.786,0.98,7.958,0.705,11.075c-0.385,4.378-1.066,8.698-1.123,13.1
			c-0.039,3.063-0.029,6.127,0.002,9.191c-6.104,0.716-12.129,1.807-18.316,2.103c-7.303,0.35-14.664,0.586-21.969,0.225
			c-7.281-0.359-14.69-1.431-21.982-0.805c-4.91,0.422-9.777,1.372-14.674,1.958C362.436,249.012,362.463,243.433,362.619,237.886z
			 M363.001,279.106c-0.255-6.991-0.446-14.029-0.523-21.067c3.509,1.215,7.349,0.933,11.265,0.767
			c7.835-0.333,15.498,0.426,23.297,1.09c8.008,0.682,16.027,0.676,24.053,0.307c5.901-0.271,12.496-0.444,18.426-1.902
			c0.195,9.253,0.529,18.506,0.594,27.756c0.107,15.432-0.475,30.857-1.154,46.271c-0.004,0.088-0.013,0.174-0.016,0.262
			c-4.885-1.071-10.544-0.14-15.385-0.072c-7.518,0.105-15.033,0.279-22.549,0.441c-12.006,0.259-24.953-0.555-36.992,1.33
			c0.445-4.248,0.775-8.508,0.885-12.793C365.258,307.342,363.516,293.234,363.001,279.106z M363.377,339.823
			c12.219,1.929,25.447,0.759,37.631,0.693c7.158-0.039,14.315-0.063,21.475-0.093c4.902-0.019,10.778,0.871,15.837-0.104
			c-0.336,3.071-0.753,6.129-1.208,9.254c-0.52,3.56-1.07,7.305-0.785,10.94c-8.869-0.124-17.742-0.179-26.618-0.271
			c-16.21-1.307-32.431-2.457-48.674-3.239C361.799,351.274,362.658,345.556,363.377,339.823z M251.271,206.468
			c0.249-0.506,1.009-0.938,2.509-1.438c6.389-2.124,13.584-0.74,20.143-0.364c3.986,0.228,8.904-0.576,12.75,0.605
			c4.012,1.231,3.194,6.073,3.063,9.593c-0.256,6.825-1.196,13.604-1.581,20.42c-0.144,2.539-0.54,5.68-0.341,8.612
			c-11.914,0.311-23.806,0.969-35.72,1.364c0.353-2.789,0.027-5.733-0.193-8.608c-0.54-7.038-0.625-14.056-0.618-21.11
			C251.282,213.312,250.279,208.486,251.271,206.468z M219.179,262.681c1.466-7.888,10.458-7.175,16.858-7.215
			c22.187-0.142,44.281-2.309,66.504-1.931c5.073,0.086,10.156,0.231,15.221,0.545c2.924,0.181,6.227,0.142,7.921,2.818
			c2.271,3.586,1.004,10.995,0.692,15.012c-0.221,2.837-0.545,5.664-0.881,8.49c-19.517-2.609-40.02-0.157-59.719-0.275
			c-14.373-0.086-31.963-1.836-45.898,3.783C218.984,276.838,217.896,269.583,219.179,262.681z M322.58,355.853
			c-33.543-0.512-67.171,0.044-100.726,0.954c-0.163-5.449-0.353-10.898-0.524-16.348c19.575,2.041,39.61,1.079,59.212,1.285
			c8.532,0.089,17.046,0.8,25.583,0.765c4.696-0.02,10.852,0.209,16.105-1.125C321.749,346.329,321.555,351.295,322.58,355.853z
			 M315.793,334.26c-4.313,0.415-8.657,0.451-12.984,0.381c-9.207-0.148-18.379-0.694-27.592-0.652
			c-11.717,0.052-23.432,0.2-35.147,0.278c-5.857,0.039-12.909-1.047-18.907,0.481c-0.091-3.25-0.173-6.5-0.228-9.75
			c-0.194-11.479,0.511-23.116-0.358-34.564c-0.036-0.48-0.08-0.963-0.125-1.446c6.549-0.147,13.066-0.752,19.646-0.874
			c9.169-0.169,18.337,0.021,27.505,0.137c18.806,0.236,38.523,0.954,57.174-1.58c-0.061,0.558-0.127,1.116-0.182,1.674
			c-1.272,12.974-0.511,26.138-1.002,39.16c-0.068,1.805-0.236,3.68-0.44,5.596C320.702,333.438,318.279,334.02,315.793,334.26z
			 M112.455,80.292c4.057-1.685,9.273-1.331,13.592-1.789c16.967-1.798,40.633-6.144,54.093,7.055
			c-5.479,2.343-12.61,1.937-18.119,1.918c-7.183-0.023-14.931-0.635-21.879,1.584c-5.63,1.798-8.714,5.125-9.333,11.031
			c-0.791,7.554-1.881,16.082-0.538,23.743c-6.339,0.348-12.675,0.744-19.009,1.172c0.301-4.313-0.314-8.933-0.29-12.938
			c0.038-6.314,0.549-12.749-0.196-19.03C110.315,89.157,107.845,82.207,112.455,80.292z M91.188,142.314
			c0.394-3.42,0.918-5.938,4.42-6.462c3.904-0.584,8.102-0.485,12.033-0.755c9.803-0.673,19.609-1.315,29.425-1.778
			c4.626-0.218,13.724-2.105,18.169,0.441c3.199,1.833,3.102,7.639,3.418,10.777c0.822,8.161,1.688,16.629,1.342,24.834
			c-0.186,4.417-1.024,9.517,0.164,13.941c-10.627,0.143-21.297,0.763-31.783,1.237c-9.307,0.422-18.596,1.063-27.882,1.801
			c-2.606,0.208-5.253,0.322-7.909,0.43c-0.199-6.924-0.982-13.894-1.117-20.803C91.316,158.33,90.313,149.899,91.188,142.314z
			 M70.16,230.791c0.182-5.938-0.005-11.871,0.132-17.806c0.099-4.338,0.211-10.718,4.118-13.617
			c4.456-3.304,13.222-1.912,18.527-2.319c9.344-0.717,18.68-1.513,28.037-2.021c16.243-0.881,32.51-1.252,48.775-1.273
			c4.598-0.006,10.623-0.916,14.944,1.1c5.868,2.737,6.436,13.01,7.021,18.534c1.501,14.177,0.068,28.562-0.033,42.778
			c-0.133,18.729-1.157,37.429-2.018,56.134c-0.418,9.09-0.484,18.169-0.668,27.265c-0.121,5.987-1.01,12.212-0.469,18.238
			c-24.105,0.787-48.188,1.951-72.271,3.209c-15.038,0.786-30.244,1.861-45.393,2.039c0.09-3.995,0.523-8.033,0.555-11.985
			c0.053-6.7,0.073-13.343-0.207-20.044c-0.693-16.621-1.277-33.248-2.072-49.865C68.334,264.325,69.646,247.607,70.16,230.791z
			 M438.365,416.86c-4.318,7.395-13.843,9.382-21.645,10.99c-19.775,4.075-41.088,3.792-61.209,4.192
			c-23.389,0.465-46.784-0.106-70.175,0.158c-23.608,0.266-47.21,0.898-70.817,1.19c-23.277,0.289-46.568,0.251-69.826-0.799
			c-19.557-0.883-39.91-1.546-59.178-5.302c-7.088-1.382-14.99-3.56-19.881-9.261c-4.539-5.29-4.929-12.586-7.799-18.746
			c14.041,1.052,28.182,1.304,42.256,1.656c32.078,0.801,64.163,0.763,96.249,0.733c63.768-0.058,127.523,1.016,191.287,1.503
			c17.685,0.135,35.374,0.288,53.06,0.196c1.389-0.007,2.785-0.02,4.184-0.037C442.422,407.676,440.935,412.46,438.365,416.86z
			 M497.956,380.512c-2.514,2.44-5.565,4.512-8.595,6.26c-5.855,3.379-12.623,2.706-19.165,3.191
			c-4.556,0.338-9.079,1.003-13.183,2.625c-19.488,0.778-39.084,0.263-58.517,0.167c-31.171-0.155-62.339-0.511-93.51-0.771
			c-62.896-0.524-125.794,0.295-188.687-0.271c-16.079-0.145-32.162-0.409-48.24-0.638c-5.053-0.072-10.355,0.199-15.361-0.142
			c-4.156-0.283-7.881-3.319-12.039-4.166c-4.356-0.887-8.814-1.146-13.216-1.712c-4.606-0.592-10.239-1.071-14.355-3.41
			c-0.943-0.536-1.883-1.591-1.769-1.038c-0.221-1.074,0.693-2.57,1.668-3.389c3.813-3.199,11.191-3.124,15.836-3.326
			c6.645-0.289,13.295,0.005,19.932,0.328c19.212,0.934,38.578-0.287,57.77-1.28c23.426-1.212,46.839-2.581,70.281-3.491
			c47.328-1.836,94.696-2.517,142.059-2.691c46.67-0.171,93.07,4.778,139.689,6.046c12.102,0.329,24.693-0.357,36.812,1.906
			c1.183,0.221,5.054,0.462,5.321,2.054C500.886,377.955,498.669,379.82,497.956,380.512z"/>
	</g>
</g>
<g>
	<g>
		<path d="M130.888,244.607c-7.659,1.015-14.855,4.125-21.113,8.613c-17.046,12.224-24.36,31.929-19.216,52.454
			c4.601,18.354,19.625,31.63,39.115,29.858c23.728-2.157,43.578-21.921,47.119-45.321
			C180.871,263.269,157.817,241.04,130.888,244.607z M137.698,325.525c-19.746,5.926-39.416-5.641-41.129-27.027
			c-1.025-12.786,5.396-24.695,14.449-33.321c4.068-3.876,9.603-8.245,15.574-11.017c20.363-5.169,42.919,7.531,42.596,30.134
			C168.923,302.866,155.367,320.222,137.698,325.525z"/>
	</g>
</g>
<g>
	<g>
		<path d="M264.728,225.39c-0.234,2.145,0.841,4.106,2.713,5.148c0.967,0.538,1.949,0.713,3.03,0.825
			c2.188,0.225,4.323-0.885,5.516-2.697c0.649-0.987,0.962-2.274,0.94-3.448C276.756,216.147,265.628,217.114,264.728,225.39z"/>
	</g>
</g>
<g>
</g>
<g>
</g>
<g>
</g>
<g>
</g>
<g>
</g>
<g>
</g>
<g>
</g>
<g>
</g>
<g>
</g>
<g>
</g>
<g>
</g>
<g>
</g>
<g>
</g>
<g>
</g>
<g>
</g>
</svg>
