<?xml version="1.0" encoding="iso-8859-1"?>
<!-- Generator: Adobe Illustrator 19.0.0, SVG Export Plug-In . SVG Version: 6.00 Build 0)  -->
<svg version="1.1" id="Capa_1" xmlns="http://www.w3.org/2000/svg" xmlns:xlink="http://www.w3.org/1999/xlink" x="0px" y="0px"
	 viewBox="0 0 511.999 511.999" style="enable-background:new 0 0 511.999 511.999;" xml:space="preserve">
<g>
	<g>
		<path d="M219.64,65.79c-0.953-0.769-2.219-0.914-3.164,0c-2.383,2.305-4.314,12.174-8.838,11.354
			c-1.791-0.324-2.974-3.041-3.934-4.355c-1.485-2.036-2.916-3.984-5.396-4.796c-1.452-0.475-2.822,0.782-2.871,2.187
			c-0.289,8.366,5.279,18.108,14.735,16.579c4.915-0.794,8.122-4.783,9.924-9.17C221.573,73.989,223.216,68.675,219.64,65.79z"/>
	</g>
</g>
<g>
	<g>
		<path d="M471.441,489.536c-7.082-5.711-14.192-11.371-21.263-17.126c-7.722-6.284-16.659-10.958-24.249-17.338
			c-8.302-6.979-10.307-17.395-11.345-27.764c-1.1-10.978-0.729-22.026-0.972-33.039c-0.288-13.026,0.183-25.915,0.514-38.936
			c0.301-11.835,0.308-24.537-3.669-35.847c-5.98-17.01-21.646-35.148-41.014-34.791c-1.605-2.459-4.125-4.473-6.798-6.313
			c-5.874-4.043-12.046-7.347-19.386-6.559c-0.626,0.067-1.246,0.156-1.863,0.258c-2.086-9.547-12.826-14.422-22.072-16.022
			c-7.726-1.337-15.174-0.093-22.898,0.465c-7.701,0.556-15.262-0.46-22.442-3.044c1.557-8.333-9.565-17.582-13.624-23.87
			c-6.271-9.716-8.965-21.493-14.621-31.597c-4.564-8.152-11.016-14.854-18.584-20.269c-4.153-2.972-8.538-5.325-13.146-7.492
			c-4.14-1.948-6.601-2.941-6.438-7.799c0.127-3.802,2.178-8.121,5.816-9.708c4.924-2.146,10.839-1.98,16.034-3.108
			c6.074-1.319,12.732-3.852,15.765-9.665c3.367-6.455,1.682-14.516-0.016-21.2c-1.24-4.888-5.681-13.938-2.374-18.536
			c4.05-5.633,13.023-9.302,11.098-17.786c-1.747-7.7-11.421-9.927-16.501-14.747c-5.922-5.618-6.751-14.114-9.317-21.462
			c-2.501-7.161-7.794-12.919-13.687-17.558c-2.193-1.727-4.937-3.587-7.826-4.731c7.941-4.022,14.835-8.874,21.041-15.768
			c1.997-2.218,0.699-6.12-2.516-6.075c-11.536,0.163-22.917-2.353-34.49-2.09c-11.655,0.264-21.341,4.914-32.439,7.658
			c-4.485,1.109-8.978,2.482-12.826,5.116c-4.415,3.021-7.529,8.168-12.964,9.353c-4.791,1.044-9.071,0.705-13.387,3.551
			c-2.935,1.936-4.989,4.828-5.975,8.187c-0.803,2.733-0.451,6.508-2.456,8.755c-1.799,2.016-5.271,2.283-7.651,3.382
			c-6.465,2.984-8.467,9.063-6.335,15.733c0.77,2.408,2.005,4.52,3.441,6.502c-2.415,0.586-4.7,1.5-6.231,2.211
			c-2.822,1.311-2.926,5.425-0.957,7.421c2.845,2.884,5.948,3.404,9.197,3.162c-0.828,1.568-1.396,3.315-1.378,5.566
			c0.013,1.499,1.51,2.56,1.813,3.989c0.532,2.514-1.092,1.947-3.248,2.245c-7.886,1.089-15.848,3.075-23.051,6.526
			c-7.44,3.566-10.432,8.493-9.887,16.375c-3.49-0.001-6.861,0.773-10.464,1.764c-4.245,1.167-8.779,1.838-12.521,4.316
			c-8.994,5.959-7.753,20.106-8.348,29.428c-1.924,30.164-1.254,60.432-1.16,90.636c0.185,59.983,3.712,119.885,6.733,179.773
			c0.755,14.966,1.306,29.935,1.923,44.905c0.419,10.147-1.664,22.487,2.877,31.916c4.585,9.521,15.133,11.333,24.645,12.16
			c14.513,1.262,29.096,1.109,43.648,1.036c60.316-0.31,120.631,0.706,180.949,0.137c10.008-0.095,20.18-0.916,25.808-10.44
			c4.471-7.568,4.486-17.066,4.239-25.579c-0.318-11.024-0.158-22.105-1.03-33.099c-1.173-14.777-3.57-29.922-1.158-44.699
			c0.097-0.592,0.104-1.154,0.046-1.687c0.089-0.063,0.182-0.118,0.269-0.183c7.021-5.168,9.945-13.569,11.665-21.799
			c1.617-7.746,2.05-18.49-1.279-26.205c3.107,0.651,6.016,1.704,8.271,4.188c7.489,8.243,3.281,20.745,1.563,30.322
			c-1.898,10.58-1.818,20.702,3.957,30.138c5.631,9.202,12.682,16.08,15.691,26.788c2.325,8.271,2.792,16.108,1.619,24.551
			c-1.043,7.514-2.532,15.181-1.998,22.798c0.462,6.584,2.467,13.359,8.278,17.157c8.805,5.755,19.855,4.936,29.754,3.656
			c5.612-0.726,11.244-1.41,16.894-0.663c5.615,0.741,11.074,2.41,16.631,3.462c8.059,1.526,16.189,1.387,24.355,1.18
			c5.941-0.15,14.48-0.057,18.368-5.416C481.12,499.909,476.593,493.69,471.441,489.536z M166.57,103.899
			c-4.605,1.032-7.722,4.678-12.103,5.858c-4.828,1.302-10.195-3.15-10.605-7.935c-0.574-6.668,5.227-10.472,11.1-12.395
			c6.434-0.001,11.264,5.008,16.679,8.702c2.698,1.841,6.183-0.629,6.246-3.585c0.144-6.648-1.001-13.31-0.575-19.948
			c0.334-5.202,2.461-10.017,2.961-15.181c0.568-5.882-2.363-8.646-6.348-11.035c0.345-0.424,0.652-0.929,0.904-1.527
			c4.229-10.037,13.844-14.838,23.278-19.009c5.548,1.159,10.959,6.702,14.431,10.59c4.887,5.471,6.732,11.229,8.649,18.183
			c1.774,6.434,3.976,12.652,8.757,17.508c2.803,2.846,6.204,4.878,9.592,6.935c1.214,0.736,3.596,1.62,4.337,2.888
			c0.595,1.017,0.703,0.435,0.604,1.523c-0.093,1.041-2.631,2.985-3.313,3.646c-4.088,3.964-8.276,7.017-8.646,13.158
			c-0.178,2.957,0.232,5.928,0.856,8.877c-3.391,0.719-6.675,1.971-10.168,2.214c-4.858,0.338-9.143-2.324-13.719-0.227
			c-1.551,0.711-1.821,2.86-1.104,4.208c2.816,5.286,10.713,5.21,15.947,4.335c3.769-0.63,7.479-2.059,10.556-4.315
			c0.343,1.336,0.677,2.662,0.964,3.975c1.306,5.972,3.25,13.577-3.557,16.451c-4.904,2.072-10.295,2.495-15.479,3.438
			c-7.808,1.422-15.204,6.655-17.19,14.648c-2.274,9.154,3.16,17.534,10.661,22.233c9.16,5.74,18.081,11.193,24.179,20.424
			c6.585,9.971,9.585,21.735,14.886,32.338c2.496,4.994,6.145,9.254,9.499,13.673c0.444,0.585,0.865,1.22,1.278,1.878
			c-10.494-6.86-19.468-16.367-25.159-27.398c-4.813-9.33-7.758-23.81-19.512-26.783c-0.911-0.229-1.264,0.908-0.599,1.42
			c5.1,3.924,6.507,11.587,8.203,17.456c1.561,5.4,3.099,10.595,5.685,15.618c6.576,12.772,17.496,22.962,29.665,30.396
			c14.197,8.674,28.866,10.746,45.169,8.943c6.877-0.762,25.422-2.399,28.757,6.676c-5.147,0.559-10.418,0.035-15.465,1.4
			c-0.373,0.102-0.697,0.257-0.977,0.45c-10.356,2.081-20.575,9.086-30.005,12.198c-16.29,5.379-35.79,2.809-51.082-4.665
			c-12.198-5.962-21.599-16.021-28.255-27.725c-3.399-5.978-6.351-12.286-8.762-18.726c-2.417-6.457-5.521-13.222-6.979-19.955
			c-0.441-2.033-3.347-1.123-3.057,0.842c1.17,7.934,1.34,15.523,3.458,23.366c1.861,6.893,4.307,13.548,7.588,19.895
			c6.629,12.815,16.365,23.977,29.098,30.986c4.809,2.647,10.126,4.854,15.684,6.519c-3.601,3.602-6.775,7.858-10.177,11.398
			c-5.427,5.648-11.159,11.165-17.636,15.6c-5.41,3.703-11.227,6.677-17.537,8.499c-4.836,1.396-10.261,4.875-15.494,2.608
			c-2.744-1.188-4.982-5.73-6.372-8.273c-3.62-6.623-5.66-13.989-7.483-21.27c-4.926-19.662-6.245-39.873-7.115-60.055
			c-0.881-20.45-1.482-40.359,1.898-60.605c1.607-9.619,2.18-19.185-1.217-28.505c-1.962-5.382-4.673-10.424-8.132-14.881
			c0.379-9.114-6.629-16.426-10.531-24.761c1.884,1.216,3.944,2.123,6.07,2.604c8.088,1.83,17.039-3.521,20.782-10.508
			C172.158,106.36,169.661,103.207,166.57,103.899z M260.753,329.875c7.144-8.95,9.897-20.424,16.276-29.808
			c0.685-0.108,1.372-0.208,2.047-0.339c8.814-1.71,16.149-6.167,23.673-10.81c-2.616,5.154-4.986,10.451-7.898,15.455
			c-4.333,7.447-9.412,14.477-15.412,20.676c-5.88,6.076-12.42,11.811-20.056,15.564c-2.031,0.998-4.109,1.707-6.214,2.263
			c-4.131,0.583-8.247,1.232-12.373,1.412C247.427,339.576,255.595,336.337,260.753,329.875z M224.947,344.809
			c-0.222,0.265-0.408,0.538-0.579,0.815c-2.991,0.062-5.974,0.08-8.876,0.041c-5.304-0.07-10.679-0.355-15.887-1.428
			c9.599-2.33,18.753-7.715,26.13-13.53c5.935-4.679,11.263-9.991,16.172-15.729c3.92-4.582,8.625-9.718,11.286-15.357
			c4.311,0.763,8.673,1.191,12.977,1.232c-4.169,7.586-7.063,15.949-12.61,22.688C245.893,332.853,232.758,335.449,224.947,344.809z
			 M284.644,331.586c12.823-12.146,24.742-29.853,27.252-47.712c0.59-0.253,1.184-0.496,1.789-0.715
			c4.183-1.51,12.212-3.951,16.685-1.811c2.467,1.181,1.152,3.602,0.719,6.102c-0.547,3.151-1.147,6.292-2.19,9.324
			c-2.813,8.166-6.164,16.378-11.078,23.529c-5.879,8.554-15.29,18.14-25.767,23.512c-0.325,0.129-0.647,0.266-0.979,0.377
			c-4.952,1.674-9.913,0.195-14.816-0.848c-2.014-0.429-4.01-0.783-6.009-1.038C275.468,339.359,280.285,335.715,284.644,331.586z
			 M147.176,151.159c0.663,0.162,1.417,0.168,2.154,0.034c2.124,4.028,3.923,8.199,4.82,12.775
			c1.947,9.937-1.508,20.256-2.827,30.075c-0.838,6.242-1.206,12.57-1.287,18.933c-2.746-12.695-5.786-25.325-9.147-37.873
			c-3.076-11.487-5.954-22.963-8.405-34.565C136.378,145.368,141.026,149.661,147.176,151.159z M305.101,499.559
			c-4.613,1.495-10.299,0.738-15.054,0.784c-7.123,0.068-14.245,0.118-21.367,0.154c-13.868,0.069-27.736,0.085-41.604,0.071
			c-27.362-0.026-54.725-0.164-82.087-0.212c-13.806-0.023-27.608,0.038-41.413,0.084c-12.537,0.04-25.554,0.409-37.986-1.491
			c-4.227-0.646-8.754-1.729-10.537-6.045c-1.778-4.304-1.278-9.774-1.258-14.327c0.059-12.968-0.736-25.988-1.363-38.939
			c-2.643-54.661-6.301-109.264-7.538-163.984c-0.692-30.633-0.964-61.348-0.537-91.986c0.217-15.518,0.253-31.438,2.292-46.847
			c0.583-4.411,1.672-6.283,5.943-7.711c4.598-1.536,9.947-3.884,14.947-4.905c1.323,6.528,3.168,12.977,3.994,19.618
			c6.643,53.382,18.684,105.96,25.891,159.273c3.236,23.934,5.066,48.403,12.069,71.63c2.503,8.299,6.362,15.279,13.951,19.908
			c6.877,4.193,15.085,5.635,22.985,6.341c8.611,0.771,17.299,0.464,25.933,0.598c13.46,0.208,26.916,0.652,40.371,1.067
			c27.245,0.839,54.539,1.59,81.773,0.048c5.251-0.297,10.835-0.466,16.134-1.539c-1.141,9.532-0.563,19.116,0.271,28.726
			c0.967,11.139,1.623,22.09,1.709,33.266C312.693,472.763,317.583,495.515,305.101,499.559z M322.711,377.413
			c-1.85,5.553-4.9,9.818-10.574,11.736c-8.632,2.92-18.68,2.408-27.663,2.73c-43.146,1.551-86.611-0.762-129.755-1.873
			c-13.356-0.344-28.953-1.824-33.665-16.448c-6.45-20.021-8.564-41.192-11.256-61.953c-5.869-45.265-15.234-89.978-23.274-134.883
			c-2.298-12.833-4.642-25.658-6.909-38.496c-0.699-3.959-1.59-7.798-2.598-11.688c-0.919-3.545-3.016-9.212-1.929-12.863
			c1.521-5.114,12.452-7.308,17.106-8.62c6.547-1.848,17.274-6.229,23.011-0.213c2.664,2.794,2.01,7.663,3.228,11.204
			c1.96,5.7,2.605,12.132,3.587,18.073c2.609,15.799,6.349,31.297,10.201,46.832c4.042,16.296,7.656,32.67,10.906,49.142
			c1.475,7.471,2.752,14.957,3.995,22.468c1.779,10.751,5.793,21.26,7.057,31.992c1.323,11.239,3.287,22.426,6.379,33.322
			c4.127,14.549,11.233,28.22,25.722,34.587c13.11,5.763,29.984,7.423,43.778,2.318c7.935,2.084,15.944,0.8,24.078-0.304
			c4.627-0.629,9.361-1.213,14.025-0.666c4.638,0.542,9.114,2.055,13.75,2.672c9.578,1.277,16.674-2.497,24.774-7.021
			c7.129-3.981,16.527-1.642,18.423,6.838C326.638,363.139,324.884,370.894,322.711,377.413z M314.891,334.431
			c-0.067,0.009-0.132,0.02-0.198,0.029c1.954-1.831,3.811-3.737,5.559-5.671c6.182-6.837,11.099-14.71,14.816-23.137
			c1.899-4.308,3.9-8.822,4.999-13.411c0.735-3.075,1.913-7.687,1.547-11.336c3.144-0.159,6.046,0.242,8.965,2.107
			c2.607,1.667,5.286,3.547,7.688,5.492c3.146,2.545,3,3.118,0.795,6.975c-1.577,2.76-3.555,5.259-5.353,7.872
			c-4.915,7.146-9.568,14.344-15.872,20.393C331.444,329.877,323.578,333.22,314.891,334.431z M465.252,501.096
			c-3.386,0.563-6.923,0.486-10.346,0.486c-8.196-0.001-15.816-0.337-23.862-2.224c-10.203-2.392-19.398-3.58-29.861-2.346
			c-7.245,0.854-21.439,3.638-26.438-3.66c-3.3-4.819-1.876-12.99-1.266-18.371c0.729-6.432,2.204-12.891,2.273-19.382
			c0.095-9.022-2.17-18.496-5.641-26.773c-4.144-9.885-13.36-16.95-16.727-27.101c-3.461-10.438,1.539-21.927,2.38-32.451
			c0.76-9.521-1.535-19.819-9.521-25.844c-3.32-2.506-6.957-3.705-10.97-4.275c10.896-7.172,18.7-18.735,25.904-29.299
			c3.191-4.68,7.186-9.243,9.082-14.674c15.43,2.345,27.118,15.777,31.145,30.585c5.641,20.745,0.996,43.593,1.726,64.797
			c0.668,19.389-1.674,40.656,5.956,59.02c3.25,7.823,9.636,13.164,16.542,17.748c8.271,5.489,16.292,10.856,23.938,17.239
			c3.26,2.722,6.449,5.595,9.916,8.053c2.492,1.769,6.465,3.396,8.145,6.039C469.081,500.948,468.013,500.637,465.252,501.096z"/>
	</g>
</g>
<g>
	<g>
		<path d="M357.097,111.126c2.056-6.037,2.806-12.405,1.524-18.69c-1.207-5.92-4.523-13.466-10.606-15.426
			c-2.499-0.806-4.128,1.652-3.821,3.821c0.6,4.239,3.952,7.401,5.016,11.626c0.938,3.721,0.745,7.512-0.146,11.227
			c-1.9,7.915-6.333,14.958-10.602,21.785c-8.633,13.809-17.444,28.614-20.275,44.893c-2.562,14.724,0.763,28.969,7.366,42.185
			c3.288,6.579,8.958,14.73,15.665,18.113c3.422,1.725,5.93,0.497,6.033-2.698c0.018-0.551-0.037-1.16-0.17-1.823
			c-1.07-5.325-6.936-8.765-9.664-13.273c-3.199-5.288-5.426-11.055-7.228-16.948c-5.002-16.365-0.88-31.766,6.647-46.646
			C343.316,136.46,352.438,124.811,357.097,111.126z"/>
	</g>
</g>
<g>
	<g>
		<path d="M381.534,66.442c-3.415-6.055-7.723-11.977-12.621-16.932c-3.737-3.781-9.699-8.774-15.407-8.05
			c-1.535,0.195-2.988,2.231-1.449,3.5c21.772,17.948,36.882,50.888,23.526,78.028c-6.484,13.176-17.752,23.259-24.131,36.37
			c-5.951,12.23-5.959,25.674,2.62,36.578c1.629,2.07,5.734,0.407,5.41-2.24c-0.859-7.003-2.781-14.489-1.438-21.524
			c1.424-7.454,6.026-13.763,10.572-19.633c9.487-12.248,19.154-25.499,21.764-41.157C392.937,96.033,389.116,79.881,381.534,66.442
			z"/>
	</g>
</g>
<g>
	<g>
		<path d="M395.708,218.571c-1.129-9.704-5.933-16.963-10.758-25.169c-4.263-7.252-6.039-15.327-4.816-23.708
			c0.587-4.022,1.724-8.125,3.439-11.816c1.418-3.05,3.585-5.621,4.758-8.783c0.27-0.725-0.424-1.503-1.138-1.494
			c-7.106,0.084-12.077,7.924-14.434,13.792c-3.165,7.884-3.481,17.235-1.579,25.472c2.247,9.721,9.593,16.959,12.592,26.295
			c3.661,11.397-1.131,23.166,1.516,34.594c0.549,2.367,3.743,2.513,4.94,0.645C395.676,239.897,396.86,228.464,395.708,218.571z"/>
	</g>
</g>
<g>
</g>
<g>
</g>
<g>
</g>
<g>
</g>
<g>
</g>
<g>
</g>
<g>
</g>
<g>
</g>
<g>
</g>
<g>
</g>
<g>
</g>
<g>
</g>
<g>
</g>
<g>
</g>
<g>
</g>
</svg>
