<?xml version="1.0" encoding="iso-8859-1"?>
<!-- Generator: Adobe Illustrator 19.0.0, SVG Export Plug-In . SVG Version: 6.00 Build 0)  -->
<svg version="1.1" id="Capa_1" xmlns="http://www.w3.org/2000/svg" xmlns:xlink="http://www.w3.org/1999/xlink" x="0px" y="0px"
	 viewBox="0 0 511.998 511.998" style="enable-background:new 0 0 511.998 511.998;" xml:space="preserve">
<g>
	<g>
		<path d="M247.536,215.171c-0.468-11.47-2.504-22.434-5.641-33.454c-3.195-11.228-6.754-22.492-7.474-34.215
			c-1.298-21.17,0.61-42.933,1.541-64.104c0.449-10.212,1.262-20.388,1.272-30.617c0.017-16.302-0.253-53.515-24.545-52.77
			c-11.286,0.345-16.052,10.288-17.912,20.043c-17.142-2.195-34.696-2.251-51.959-2.514c-9.98-0.151-23.862-2.107-33.198,2.48
			c-3.296,1.62-5.822,4.371-6.689,7.834c-9.805-5.913-22.962-8.749-31.599-7.13c-3.234,0.606-3.918,4.356-2.788,6.854
			c3.519,7.776,8.283,15.356,9.944,23.826c1.8,9.182-1.138,18.435-4.498,26.917c-6.45,16.282-16.889,31.393-17.051,49.527
			c-0.111,12.43,4.872,24.938,15.554,31.895c11.5,7.488,26.422,5.795,38.03-0.488c0.316-0.171,0.593-0.358,0.843-0.557
			c1.29,2.28,2.134,4.715,1.591,7.485c-1.568,8.015-12.321,16.296-4.74,24.584c4.931,5.391,14.162,6.145,20.897,7.174
			c9.063,1.386,18.221,2.172,27.384,2.421c7.581,0.205,15.23,0.361,22.813,0.186c2.907-0.068,5.833-0.137,8.612-0.6
			c-1.041,14.221-2.257,28.43-3.295,42.65c-1.813,24.865-2.066,49.627-2.431,74.539c-0.368,25.141-1.314,50.269-1.942,75.403
			c-0.493,19.743-0.337,39.491-1.38,59.212c-0.763,14.416-1.541,30.678,5.332,43.877c5.797,11.134,21.74,19.4,34.162,15.303
			c11.747-3.875,14.842-17.438,16.127-28.258c1.917-16.141,1.678-32.633,2.957-48.842c1.922-24.387,4.582-48.713,6.236-73.121
			c1.667-24.592,1.368-49.173,1.873-73.799C246.053,263.068,248.509,239.009,247.536,215.171z M96.862,34.876
			c3.595,1.741,7.021,3.92,9.245,7.352c2.245,3.463,2.475,7.322,2.585,11.252c-1.06,1.629-2.234,3.234-2.964,4.797
			c-1.103,2.362-1.569,4.78-1.53,7.186c-3.274,1.106-6.478,2.818-9.108,4.227c-3.891,2.083-7.6,4.569-11.072,7.342
			c1.324-3.527,2.432-7.125,3.148-10.851c2.622-13.625-2.244-24.877-7.573-36.64C85.585,30.063,91.948,32.495,96.862,34.876z
			 M108.866,125.147c-3.431,4.924-6.316,10.041-5.864,16.271c0.247,3.397,1.506,6.396,3.152,9.235
			c-0.177,0.06-0.356,0.129-0.536,0.209c-10.68,4.775-23.255,6.645-32.144-2.643c-2.285-2.388-3.956-5.103-5.123-8.016
			c4.706-7.363,8.367-15.301,15.308-21.139c4.129-3.473,8.852-6.073,13.69-8.415c2.719-1.316,6.174-2.433,9.108-4.034
			c0.836,3.032,2.397,5.719,3.687,8.59C111.932,119.188,111.276,121.687,108.866,125.147z M109.496,91.144
			c-1.572,2.902-2.872,5.49-3.403,8.322c-4.143,1.169-8.221,3.916-11.898,5.789c-4.989,2.541-9.799,5.388-14.074,9.029
			c-6.059,5.162-10.541,11.69-13.613,18.88c-1.007-7.071,0.137-14.639,2.232-21.229c2.45-7.703,6.198-14.979,9.745-22.319
			c0.873-0.961,1.766-1.904,2.693-2.818c4.584-4.516,9.739-8.432,15.362-11.567c2.789-1.556,5.681-2.931,8.691-4.003
			c0.441,1.309,1.009,2.596,1.689,3.849C110.165,81.042,113.223,84.261,109.496,91.144z M120.296,112.684
			c-0.439-1.103-0.978-2.179-1.517-3.244c10.89,0.192,21.866,1.962,32.712,2.367c7.405,0.276,14.777-0.08,22.179-0.235
			c3.852-0.08,7.717-0.105,11.562,0.168c2.063,0.148,4.032,0.513,6.008,0.566c-0.12,3.746-0.217,7.492-0.306,11.239
			c-6.075-1.166-13.104,0.166-19.186,0.203c-7.477,0.045-14.963-0.516-22.42-1.014c-6.92-0.462-13.804-1.244-20.711-1.801
			c-2.188-0.176-4.75-0.401-7.048,0.024C121.819,118.278,121.424,115.521,120.296,112.684z M175.611,105.017
			c-8.385,0.099-16.731,0.584-25.119,0.233c-7.865-0.33-15.702-1.099-23.563-1.487c-3.576-0.176-7.104-0.301-10.277,0.723
			c-0.543-1.97-0.57-3.99,0.553-6.165c1.311-2.539,2.608-5.021,3.479-7.617c2.422,0.336,4.917,0.397,7.313,0.578
			c5.477,0.414,10.959,0.726,16.439,1.093c6.983,0.469,13.926,1.045,20.894,1.692c5.144,0.479,18.418,2.528,26.692-0.002
			c-0.222,3.951-0.396,7.901-0.55,11.853C186.501,104.42,180.376,104.96,175.611,105.017z M190.009,84.679
			c-2.902,0.744-5.834,0.945-8.824,0.994c-6.38,0.104-12.758-0.504-19.101-1.124c-6.571-0.642-13.096-0.976-19.699-1.147
			c-6.015-0.157-13.919-1.215-20.706-0.285c-0.012-0.134-0.017-0.266-0.032-0.401c-0.522-4.585-3.136-7.94-5.301-11.783
			c2.266,0.38,4.601,0.522,6.675,0.753c5.19,0.578,10.42,0.756,15.635,0.996c7.96,0.366,15.679,0.883,23.548,2.072
			c7.121,1.075,14.348,2.271,21.567,2.25c3.21-0.009,6.619-0.136,9.384-1.346c-0.176,2.779-0.356,5.559-0.527,8.338
			C191.781,84.189,190.928,84.443,190.009,84.679z M180.015,68.188c-6.863-0.304-13.657-1.412-20.454-2.338
			c-6.963-0.949-13.883-1.107-20.907-1.297c-4.889-0.132-9.775-0.33-14.663-0.484c-2.834-0.09-6.054-0.516-9.095-0.363
			c0.72-2.552,2.669-4.811,4.254-7.824c0.977-1.859,1.73-3.848,2.134-5.879c3.273,0.321,6.621,0.367,9.647,0.686
			c7.399,0.78,14.732,1.424,22.176,1.54c7.641,0.118,15.276,0.42,22.913,0.702c5.347,0.197,11.926,1.653,17.361,0.41
			c0.047,2.809,0.083,5.62,0.063,8.434c-0.009,1.365,0.148,2.918,0.303,4.521c-0.016,0.239-0.03,0.478-0.045,0.716
			C189.124,67.646,184.728,68.397,180.015,68.188z M113.72,30.811c0.122-0.074,0.279-0.176,0.481-0.312
			c0.578-0.388,1.476-0.55,2.119-0.723c2.271-0.61,4.658-0.677,6.994-0.734c6.495-0.163,13.009,0.058,19.504,0.112
			c16.893,0.143,34.071,1.078,50.885-0.839c-0.5,5.837-0.524,11.678-0.447,17.526c-5.389-1.272-11.917-0.087-17.236-0.192
			c-7.637-0.151-15.273-0.324-22.913-0.318c-7.417,0.006-14.774-0.539-22.176-0.928c-2.96-0.155-6.326-0.499-9.602-0.377
			c-0.185-0.899-0.463-1.792-0.851-2.669C119.382,38.877,113,33.629,113.72,30.811z M118.288,129.794
			c0.74-1.125,1.357-2.266,1.859-3.421c3.695,0.744,7.883,0.653,11.482,1.091c6.9,0.842,13.844,1.384,20.774,1.895
			c6.779,0.5,13.552,0.986,20.353,0.92c5.685-0.055,12.34,0.551,18.039-0.646c-0.083,3.86-0.16,7.72-0.241,11.579
			c-12.976-2.382-27.181-1.018-40.313-0.884c-11.789,0.12-24.846-0.854-36.671,1.395
			C112.689,137.135,115.853,133.493,118.288,129.794z M188.684,188.989c-8.74,0-17.562,0.559-26.308,0.609
			c-15.066,0.089-30.31-0.846-44.793-5.175c-1.772-0.529-1.269-0.121-1.066-1.186c0.329-1.724,1.699-3.454,2.533-4.959
			c2.094-3.781,4.053-7.683,4.489-12.021c4.293,0.599,8.574,1.43,12.912,1.684c6.38,0.372,12.777,0.459,19.162,0.764
			c6.068,0.289,12.11,0.416,18.184,0.433c5.014,0.014,10.807,1.019,15.938,0.492C189.462,176.089,189.103,182.541,188.684,188.989z
			 M175.829,162.396c-6.75-0.008-13.47,0.01-20.217-0.246c-10.484-0.399-21.596-1.443-32.178-0.395
			c-0.444-3.007-1.578-5.87-3.116-8.536c-1.251-2.169-2.981-4.19-4.406-6.344c11.314,0.801,23.166-0.493,34.331-0.514
			c13.129-0.024,27.247,1.52,40.218-0.823c-0.128,5.853-0.29,11.706-0.488,17.561C185.483,161.939,180.26,162.4,175.829,162.396z
			 M235.642,259.467c-0.88,22.901-0.815,45.79-1.219,68.697c-0.407,23.097-2.382,46.126-4.479,69.12
			c-1.958,21.465-4.14,42.953-4.986,64.498c-0.413,10.492,0.024,22.687-4.573,32.402c-1.707,3.606-4.088,6.084-8.237,6.142
			c-5.298,0.073-12.145-2.835-15.543-6.938c-8.021-9.688-6.703-26.209-6.221-37.885c1.678-40.681,2.115-81.481,2.909-122.199
			c0.459-23.531-0.012-47.075,1.219-70.586c1.203-22.974,3.372-45.883,4.894-68.835c1.551-23.398,1.305-46.741,1.909-70.163
			c0.606-23.495,2.127-46.966,2.52-70.465c0.135-8.043,0.059-16.071-0.136-24.104c0.395-5.861,1.493-11.558,4.454-15.812
			c4.366-6.271,11.001-0.894,13.406,4.13c4.393,9.181,4.701,20.496,4.906,30.471c0.557,27.071-2.234,54.355-2.935,81.4
			c-0.282,10.864-0.069,21.682,2.045,32.373c2.11,10.672,5.729,20.946,8.331,31.493C239.22,214.761,236.484,237.556,235.642,259.467
			z"/>
	</g>
</g>
<g>
	<g>
		<path d="M445.595,19.978c-10.651-5.083-24.124-2.975-35.515-3.106c-17.968-0.208-35.941-0.618-53.91-0.183
			c-8.247,0.2-16.113,1.177-24.393,1.117c-8.854-0.064-17.73-0.217-26.534-1.255c-8.721-1.028-20.723,0.198-25.549,8.622
			c-6.769,11.818,2.077,28.953,4.092,41.134c3.521,21.289,4.625,42.919,5.219,64.478c1.168,42.387,2.229,84.759,4.268,127.116
			c1.027,21.339,2.371,42.666,4.472,63.923c1.859,18.797,3.524,37.918,6.785,56.52c2.2,12.551,5.62,26.938,15.081,35.627
			c-9.104,4.644-9.665,19.412-9.18,29.809c0.394,8.447,1.42,16.788,1.535,25.26c0.129,9.511-0.974,22.842,6.518,29.952
			c6.319,5.998,17.665,5.741,25.612,6.233c13.141,0.813,26.309,0.155,39.44-0.497c9.057-0.449,19.288,1.31,26.099-6.339
			c6.601-7.41,7.265-18.74,8.086-28.238c1.083-12.525,1.839-25.258,3.498-37.705c0.559-4.197,1.646-8.989-0.883-12.725
			c-1.074-1.587-2.522-2.828-4.148-3.742c3.077-4.455,4.322-10.078,5.511-15.352c2.302-10.209,4.262-20.498,5.944-30.834
			c6.584-40.468,9.235-81.451,12.155-122.331c3.024-42.331,7.139-84.592,8.98-127.005c0.476-10.964,0.799-21.936,0.914-32.909
			c0.103-9.866,0.11-19.142,2.068-28.841C454.296,46.161,460.079,26.891,445.595,19.978z M311.749,343.108
			c-2.348-19.302-4.129-38.648-5.427-58.056c-2.609-39.007-4.192-78.188-5.271-117.272c-0.539-19.554-0.703-39.125-1.806-58.658
			c-0.942-16.695-2.109-34.008-5.594-50.457c4.061,0.348,8.203,0.288,12.154,0.418c7.438,0.244,14.876,0.436,22.315,0.627
			c6.88,0.176,13.76,0.336,20.64,0.459c-1.512,2.078-3.144,4.084-4.52,6.244c-2.794,4.381-4.9,9.386-6.816,14.232
			c-3.706,9.378-5.035,19.152-4.633,29.255c0.847,21.341,8.476,41.376,14.799,61.448c7.141,22.67,10.292,45.022,6.808,68.765
			c-3.271,22.288-10.429,43.846-17.197,65.2c-4.039,12.744-9.225,25.027-14.788,37.129c-2.274,4.947-4.612,9.855-6.684,14.898
			c-0.621,1.512-1.236,3.049-1.875,4.581C313.109,355.643,312.506,349.343,311.749,343.108z M411.209,427.704
			c-0.164,1.84-0.468,3.664-0.71,5.492c-1.176,8.892-1.566,17.939-2.516,26.869c-0.864,8.122-0.924,16.81-3.367,24.641
			c-1.101,3.53-2.739,6.967-6.408,8.072c-3.63,1.096-7.839,0.373-11.582,0.501c-18.558,0.633-38.68,3.493-56.996-0.894
			c-7.961-1.907-6.965-12.411-7.256-19.248c-0.31-7.271-0.76-14.439-1.56-21.666c-0.731-6.609-1.428-13.395-0.79-20.044
			c0.406-4.228,1.702-10.257,4.994-13.544c0.273,0.152,0.525,0.325,0.805,0.47c14.276,7.353,32.868,7.083,48.355,6.653
			c8.584-0.238,17.279-0.392,25.84-1.138c4.26-0.371,7.536-1.159,11.185,1.731c-0.008-0.09-0.089-0.341-0.033-0.421
			c0.079,0.229,0.128,0.499,0.174,0.739C411.442,426.423,411.254,427.195,411.209,427.704z M421.707,324.269
			c-1.989,19.004-4.54,37.947-8.087,56.713c-1.554,8.218-2.567,17.419-5.677,25.193c-1.59,3.975-3.928,5.045-7.922,5.462
			c-16.721,1.745-34.602,2.336-51.292,0.296c-5.676-0.694-11.769-1.479-16.979-4.048c-6.296-3.106-9.52-8.938-11.741-15.526
			c-2.276-6.75-3.745-13.707-4.84-20.745c3.684-5.659,6.081-12.181,9.085-18.309c5.034-10.266,9.799-20.691,14.024-31.343
			c8.397-21.168,15.396-43.727,20.422-66.007c4.88-21.632,6.579-44.024,1.881-65.862c-4.674-21.729-13.997-42.087-18.283-63.928
			c-2.383-12.142-3.329-25.334,0.238-37.326c1.732-5.824,4.251-11.813,7.283-17.057c2.31-3.993,5.062-7.369,6.937-11.496
			c4.482,0.057,8.964,0.096,13.447,0.104c-6.808,9.215-8.835,23.722-9.32,34.329c-0.692,15.172,2.116,30.506,6.645,44.888
			c4.364,13.859,10.46,27.263,18.179,39.468c9.103,14.395,18.752,28.377,26.587,43.585c6.814,13.228,11.782,27.089,14.513,41.595
			C425.35,284.283,423.795,304.303,421.707,324.269z M438.738,64.663c-1.284,9.015-0.772,18.193-0.915,27.281
			c-0.622,39.529-3.877,78.942-7.043,118.322c-0.707,8.789-1.358,17.585-1.994,26.382c-6.516-17.066-16.652-33.192-26.021-47.573
			c-8.1-12.432-16.436-24.343-22.52-38.025c-6.273-14.109-10.793-29.449-12.039-44.968c-0.659-8.201-0.464-16.539,1.156-24.614
			c1.503-7.492,4.956-14.023,7.245-21.125c12.838-0.253,25.558-1.441,38.366-2.622c5.79-0.534,11.555-0.339,17.358-0.502
			c2.256-0.063,5.105-0.022,7.834-0.393C439.624,59.432,439.113,62.039,438.738,64.663z M443.056,39.775
			c-0.16,2.292-0.472,4.565-0.856,6.831c-3.831,0.134-7.965,1.286-11.63,1.337c-5.945,0.083-11.772,0.162-17.693,0.796
			c-14.453,1.545-28.798,2.801-43.337,2.922c-14.159,0.117-28.321,0.017-42.48-0.053c-7.085-0.034-14.168-0.072-21.253-0.004
			c-4.471,0.044-9.174-0.13-13.733,0.355c-1.473-5.447-3.408-11.006-3.376-16.663c0.04-6.888,6.123-6.846,11.565-6.911
			c16.94-0.205,33.393,2.502,50.359,0.377c1.044-0.131,2.088-0.266,3.134-0.4c5.859,0.036,11.719,0.082,17.578,0.108
			c16.959,0.076,33.936,0.748,50.893,0.487c5.057-0.077,10.33-0.26,15.282,0.967C443.345,31.37,443.48,33.699,443.056,39.775z"/>
	</g>
</g>
<g>
</g>
<g>
</g>
<g>
</g>
<g>
</g>
<g>
</g>
<g>
</g>
<g>
</g>
<g>
</g>
<g>
</g>
<g>
</g>
<g>
</g>
<g>
</g>
<g>
</g>
<g>
</g>
<g>
</g>
</svg>
