<?xml version="1.0" encoding="iso-8859-1"?>
<!-- Generator: Adobe Illustrator 19.0.0, SVG Export Plug-In . SVG Version: 6.00 Build 0)  -->
<svg version="1.1" id="Capa_1" xmlns="http://www.w3.org/2000/svg" xmlns:xlink="http://www.w3.org/1999/xlink" x="0px" y="0px"
	 viewBox="0 0 512 512" style="enable-background:new 0 0 512 512;" xml:space="preserve">
<g>
	<g>
		<path d="M511.874,173.74c-0.284-10.386,1.625-32.145-14.674-28.715c-3.129,0.658-6.745,1.73-8.994,4.141
			c-1.838,1.971-4.552,6.523-5.246,9.144c-1.734,6.542-1.225,13.896-1.783,20.572c-0.748,8.946,0.818,18.193-0.536,27.019
			c-0.285,1.854-0.899,7.008-2.792,9.044c-2.103-2.089-4.729-3.353-7.723-4.358c-5.173-1.738-11.514-1.666-14.089-7.314
			c-2.085-4.572-3.226-10.894-3.744-15.826c-0.656-6.246-1.453-12.512-0.884-18.809c0.463-5.123-0.022-10.129,0.254-15.24
			c0.292-5.387,1.087-10.836,0.746-16.24c-0.704-11.195-4.566-18.402-14.076-24.568c-6.048-3.92-12.659-4.252-19.502-5.387
			c-7.793-1.292-15.648-2.192-23.529-2.752c-15.776-1.119-31.625-0.877-47.398,0.176c-26.43,1.765-52.788,5.706-78.954,9.441
			c-10.925,1.563-21.578,4.639-31.96,8.326c-9.761,3.468-19.315,6.854-28.421,11.845c-4.812,2.637-10.126,4.449-14.729,7.406
			c-5.025,3.228-10.241,6.139-15.227,9.423c-9.068,5.974-17.201,12.809-25.906,19.254c-8.776,6.499-17.256,14.563-25.051,22.215
			c-8.532,8.377-17.176,16.795-26.066,24.787c-8.534,7.672-15.689,16.53-23.547,24.826c-15.804,16.686-31.715,33.056-46.089,50.992
			c-7.428,9.268-13.618,19.867-18.309,30.771c-1.78,4.138-4.005,9.322-2.204,13.752c1.685,4.143,5.861,7.549,9.56,9.866
			c9.644,6.046,23.002,6.765,34.046,7.786c4.66,0.431,9.378,0.766,14.113,1c0.007,1.404-0.076,2.86,0.026,4.115
			c0.246,3.01-0.604,5.311-2.813,7.47c-4.104,4.01-10.327,4.218-15.718,4.352c-4.706,0.116-9.258,0.769-13.915,0.353
			c-4.992-0.445-10.891-0.574-15.848,0.153c-7.584,1.112-17.492,4.204-20.08,12.374c-2.507,7.908,0.876,15.582,8.941,18.051
			c4.257,1.303,9.605,1.424,14.047,1.615c6.143,0.264,12.224,0.868,18.396,0.763c11.97-0.204,23.885-1.215,35.843-1.525
			c5.907-0.153,11.663,1.004,17.55,0.754c5.736-0.244,11.199,0.397,16.895,0.294c11.527-0.207,23.079,0.666,34.574,0.293
			c12.344-0.402,24.961-1.097,37.3-0.642c12.218,0.451,24.413,1.003,36.651,0.668c5.273-0.145,10.425,0.79,15.666,0.698
			c6-0.104,11.997-0.417,18.002-0.498c11.723-0.158,23.405,1.336,35.125,0.958c12.115-0.391,24.411,0.468,36.545,0.773
			c11.478,0.29,22.935,0.804,34.396,0.585c25.341-0.483,50.65,0.148,76.003,0.078c7.082-0.019,14.123-0.449,21.187,0.124
			c5.846,0.475,11.257,0.079,15.89-3.855c6.82-5.792,7.131-17.847-1.468-22.36c-7.999-4.199-16.713-3.325-25.319-4.705
			c-9.094-1.457-17.807-1.34-26.99-1.825c-3.064-0.162-6.127-0.973-8.164-3.378c-1.505-1.777-1.684-3.534-1.531-5.402
			c2.724-0.352,5.422-0.907,8.081-1.709c9.523-2.867,20.69-8.38,25.302-17.699c2.691-5.438,4.731-11.203,5.854-17.174
			c1-5.314,0.256-11.668,2.535-16.666c1.339-2.936,3.294-3.32,6.287-3.81c3.823-0.626,9.719-1.995,11.298,3.104
			c1.472,4.756-0.366,10.107-1.726,14.666c-1.536,5.154-1.867,9.512-2.372,14.857c-0.567,6.008-1.803,13.404,1.366,18.91
			c3.281,5.701,9.961,6.346,15.922,5.877c7.29-0.572,12.357-3.535,15.508-10.143c6.31-13.23,5.967-28.484,7.697-42.754
			c1.029-8.479,0.774-17.022,1.83-25.516c0.98-7.891,0.229-16.08,1.201-23.979c0.89-7.229,1.108-14.496,1.506-21.764
			c0.366-6.713,1.094-13.504,1.002-20.226C511.417,206.245,512.319,190.071,511.874,173.74z M74.403,261.07
			c7.479-7.721,14.169-16.26,21.735-23.854c7.792-7.82,15.664-15.514,23.583-23.206c7.934-7.707,15.984-15.383,24.262-22.788
			c0.961,1.025,1.864,2.088,2.57,3.279c1.98,3.342,3.647,7.086,5.249,10.633c2.813,6.231,3.949,13.259,1.839,19.846
			c-4.391,13.711-17.576,22.154-28.703,30.228c-10.876,7.892-22.188,15.226-33.411,22.599c-5.521,3.627-14.956,10.889-21.799,7.879
			c-3.909-1.721-6.724-5.984-9.457-9.824C64.922,270.861,69.671,265.957,74.403,261.07z M458.858,388.093
			c3.245,0.386,9.47,0.62,9.755,4.846c0.313,4.627-5.73,4.955-8.934,4.785c-6.46-0.345-12.782-0.459-19.263-0.358
			c-24.008,0.371-48.027-0.503-72.014-0.115c-54.63,0.884-109.392-1.962-164.029-2.429c-27.66-0.236-55.322-0.285-82.983-0.148
			c-26.558,0.133-53.271,1.377-79.673,1.676c-3.815,0.043-7.619-0.271-11.427-0.271c-5.011-0.322-27.974,0.91-20.326-9.274
			c5.97-7.945,21.368-4.128,29.538-4.443c12.703-0.491,25.259-2.681,37.912-3.764c9.516-0.815,19.072-1.004,28.622-1.107
			c54.503-0.591,109.458,0.416,163.849,3.271c2.15,0.113,4.302,0.232,6.453,0.356c26.551,1.529,53.099,4.011,79.765,4.003
			C390.073,385.111,424.871,384.045,458.858,388.093z M77.527,356.62c5.042,0.122,10.075,0.131,15.048,0.011
			c26.782-0.644,53.857,0.494,80.693,0.901c27.671,0.421,55.338,1.112,82.995,2.074c19.343,0.673,38.669,1.892,58.005,2.541
			c24.15,0.812,48.146,2.763,72.209,4.832c4.592,0.396,9.238,0.069,13.854,0.069c-0.1,2.798,0.111,5.431,1.648,8.187
			c-2.593-0.022-5.192-0.009-7.814-0.007c-16.264,0.017-32.785,0.839-49.021,0.046c-26.667-1.304-53.255-3.615-79.975-4.479
			c-27.332-0.884-54.691-0.896-82.009-2.254c-13.357-0.663-26.733-0.438-40.101-0.32c-19.844,0.174-39.806-0.965-59.592,1.088
			c-2.5,0.259-4.99,0.549-7.478,0.852C78.11,366.049,78.617,361.23,77.527,356.62z M471.3,235.891
			c0.088,5.404-0.354,10.65-0.525,16.032c-0.322,10.164-0.653,20.345-2.018,30.441c-0.601,4.444-1.271,9.06-3.486,13.028
			c-0.249,0.443-0.949,1.784-1.418,2.274c-0.208,0.218-0.35,0.382-0.455,0.517c-0.135-0.028-0.356-0.025-0.733,0.043
			c-2.627,0.48-5.497,0.44-8.174,0.873c-9.892,1.602-13.96,9.694-14.979,18.982c-0.471,4.292-0.6,8.567-1.783,12.753
			c-1.274,4.507-2.119,7.274-4.244,11.43c-2.007,3.925-7.584,7.599-11.545,9.383c-4.833,2.177-10.625,3.796-15.924,4.073
			c-22.656,1.186-45.316-2.297-67.866-3.948c-10.715-0.785-21.511-0.298-32.197-1.493c-11.089-1.239-22.198-0.623-33.299-1.201
			c-23.304-1.215-46.614-1.512-69.972-1.986c-47.233-0.961-94.588,0.688-141.766-1.662c-5.901-0.294-11.757-1.056-17.591-1.969
			c-5.563-0.87-11.65-1.721-16.573-4.623c-1.502-0.887-4.008-2.335-4.763-3.974c-1.056-2.289,0.604-5.405,1.538-7.538
			c2.39-5.458,5.227-10.672,8.378-15.715c6.938-11.102,15.204-21.238,23.968-30.945c2.099,4.338,5.236,8.273,9.004,10.9
			c7.102,4.952,15.936,2.039,23.011-1.637c7.46-3.873,13.898-9.396,21.087-13.619c7.474-4.391,14.972-9.384,22.012-14.532
			c13.549-9.908,27.008-19.408,32.624-35.958c2.741-8.077,1.006-17.531-2.243-25.178c-2.576-6.064-5.09-11.807-9.236-16.529
			c5-4.262,10.083-8.414,15.299-12.371c4.218-3.199,8.073-6.525,12.502-9.479c4.615-3.078,9.377-5.818,14.076-8.747
			c8.718-5.434,18.146-10.802,27.807-14.398c12.248-4.562,23.656-9.978,36.568-13.003c13.375-3.135,27.008-4.983,40.63-6.656
			c23.225-2.853,46.57-5.236,69.994-5.272c11.929-0.019,23.866,0.574,35.708,2.035c9.457,1.166,21.514,1.116,29.577,6.726
			c8.929,6.213,7.67,16.844,6.964,26.563c-0.369,5.083,0.098,10.094-0.174,15.161c-0.312,5.845-0.921,11.551-0.178,17.416
			c1.164,9.202,1.754,20.532,6.977,28.546c2.329,3.575,5.696,6.043,9.652,7.554c3.634,1.387,11.627,1.445,13.492,5.412
			C472.453,226.638,471.246,232.471,471.3,235.891z M502.479,201.704c-0.336,26.437-2.887,52.642-4.484,78.999
			c-0.867,14.303-1.546,28.758-3.41,42.997c-0.867,6.626-0.896,13.468-2.314,20.071c-0.646,3.009-1.807,5.839-3.158,8.598
			c-1.766,3.605-4.262,4.133-8.137,4.383c-4.371,0.283-6.016-0.264-5.964-4.996c0.035-3.256,0.143-6.613,0.475-9.855
			c0.42-4.105,0.423-7.828,1.5-11.864c0.897-3.367,1.445-6.761,1.96-10.207c0.878-5.887,2.414-14.39-1.62-19.39
			c-0.775-0.961-1.337-1.231-1.646-2.186c2.693-6.328,3.405-13.279,4.378-20.246c1.491-10.682,0.716-21.563,1.851-32.298
			c0.541-5.116-0.056-10.294,0.02-15.431c0.042-2.802,0.221-5.316-0.182-7.771c2.436-1.518,4.404-4.051,5.754-6.641
			c2.458-4.719,3.252-11.024,3.165-16.267c-0.126-7.563-0.045-15.03,0.733-22.55c0.497-4.799-0.317-10.862,1.305-15.475
			c0.657-1.867,2.387-5.377,4.129-6.539c4.295-2.865,4.729,0.307,5.246,3.952C504.063,172.984,502.659,187.643,502.479,201.704z"/>
	</g>
</g>
<g>
	<g>
		<path d="M418.837,166.328c-0.721-5.861-1.668-12.883-3.944-18.314c-3.245-7.741-9.427-14.399-16.817-18.352
			c-8.197-4.383-16.335-3.276-25.285-3.346c-8.232-0.065-16.468,0.274-24.67,0.98c-16.169,1.393-32.189,4.217-47.961,8.011
			c-12.594,3.029-25.031,6.716-37.24,11.042c-10.822,3.836-21.504,7.631-30.74,14.609c-16.936,12.793-30.039,32.82-32.258,54.193
			c-2.771,26.693,19.861,44.413,42.499,52.547c5.937,2.133,12.65,3.359,18.786,4.857c6.256,1.527,12.494,2.955,18.862,3.961
			c13.213,2.085,26.972,3.197,40.286,1.496c12.967-1.656,25.631-4.203,37.327-10.307c10.88-5.678,20.931-11.186,29.793-19.716
			c4.478-4.31,8.598-8.478,12.716-13.104c4.429-4.977,7.61-9.906,10.794-15.779c5.89-10.866,8.733-23.471,9.335-35.77
			C420.599,177.6,419.533,171.988,418.837,166.328z M316.942,268.711c-18.522,1.406-37.215-1.303-55.239-5.738
			c-9.961-2.451-21.594-5.731-31.394-11.244c2.203-2.604,3.764-6.066,5.352-9.486c4.621,3.119,10.523,3.905,16.051,5.022
			c7.936,1.604,16.016,2.329,23.888,4.279c8.272,2.049,16.574,3.325,24.897,5.103c3.638,0.777,7.203,1.725,10.878,2.344
			c2.448,0.412,4.986,1.254,7.499,1.615C318.617,263.477,318.234,266.436,316.942,268.711z M238.196,237.17
			c2.109-3.707,4.73-6.713,8.962-7.531c3.75-0.727,7.22-1.197,10.779-1.164c-0.519,1.205-0.992,2.428-1.351,3.762
			c-0.631,2.35-0.989,4.74-1.254,7.148c-0.514-0.07-1.027-0.14-1.54-0.212C248.65,238.444,243.412,237.59,238.196,237.17z
			 M262.318,240.319c0.462-2.392,0.523-4.97,0.784-7.295c0.146-1.285,0.401-2.678,0.463-4.046c0.219,0.037,0.432,0.061,0.652,0.102
			c5.172,0.961,10.328,1.992,15.498,2.957c-0.091,0.25-0.176,0.493-0.254,0.722c-1.15,3.317-1.996,6.563-2.356,10.019
			c-0.069-0.016-0.14-0.029-0.21-0.045C272.086,241.684,267.204,240.975,262.318,240.319z M284.628,244.349
			c0.015-0.118,0.045-0.227,0.051-0.351c0.166-3.613,1.113-7.172,1.237-10.775c4.54,0.91,9.139,2.02,13.481,3.402
			c0.602,0.191,1.213,0.369,1.831,0.539c-1.316,3.205-2.611,6.584-2.779,9.91C293.833,246.17,289.228,245.279,284.628,244.349z
			 M319.727,251.646c-2.903-0.451-6.019-1.408-8.777-1.918c-1.681-0.31-3.343-0.69-5.003-1.074c0.014-0.075,0.041-0.139,0.051-0.218
			c0.379-2.938,1.418-6.374,1.621-9.631c2.396,0.649,4.741,1.415,6.861,2.579C318.751,243.73,319.811,247.485,319.727,251.646z
			 M407.358,201.269c-1.762,5.361-3.879,10.474-6.516,15.447c-3.008,5.676-6.931,9.864-10.859,14.864
			c-3.102,3.948-7.283,7.106-10.842,10.659c-3.809,3.801-7.914,7.023-12.678,9.602c-10.477,5.672-20.876,11.707-32.629,14.371
			c-1.861,0.422-3.727,0.776-5.596,1.1c0.777-3.772,0.941-7.798,1.362-11.376c0.751-6.392,0.249-13.747-4.269-18.802
			c-4.718-5.277-11.74-6.91-18.298-8.529c-7.715-1.906-15.214-4.375-23.077-5.77c-7.537-1.337-15.094-3.305-22.72-4.057
			c-3.825-0.377-7.55-0.263-11.33,0.406c-3.554,0.631-7.942,0.918-11.063,2.855c-5.204,3.232-8.591,9.555-11.17,14.88
			c-1.125,2.323-3.216,6.815-3.768,10.658c-7.343-5.534-12.834-12.866-14.408-22.825c-2.005-12.681,3.272-24.748,9.76-35.352
			c5.771-9.431,13.474-17.975,22.774-24.037c9.958-6.49,22.661-10.456,33.913-14.251c23.811-8.03,48.661-12.978,73.732-14.681
			c14.697-0.998,34.019-4.058,46.685,5.211c3.288,2.404,6.882,6.103,8.688,9.788c2.412,4.925,3.121,12.112,3.753,17.524
			C410.068,179.766,410.841,190.677,407.358,201.269z"/>
	</g>
</g>
<g>
	<g>
		<path d="M368.84,303.957c-4.008-2.334-9.43-2.189-13.918-2.785c-19.071-2.528-38.375-2.48-57.581-3.107
			c-16.083-0.529-32.205,1.105-48.313,0.215c-11.483-0.636-23.215,0.232-34.716,0.431c-10.529,0.181-21.43-0.493-31.87,0.938
			c-10.079,1.38-20.829,0.664-30.644,3.74c-5.883,1.845-13.632,7.581-10.398,14.544c3.458,7.446,13.981,9.051,21.146,9.953
			c8.98,1.131,18.358,1.583,27.395,1.57c23.39-0.033,46.842-0.473,70.225-1.035c10.697-0.258,21.368,1.328,32.046,1.144
			c14.233-0.247,28.433,1.071,42.66,1.21c11.193,0.108,31.113,1.59,39.776-7.182C381.924,316.226,376.009,308.129,368.84,303.957z
			 M370.321,316.592c-0.635,2.771-7.475,4.446-9.661,5.092c-13.413,3.957-28.661,1.581-42.418,1.055
			c-16.556-0.633-33.128-0.635-49.681-1.317c-9.851-0.406-19.854,0.376-29.71,0.592c-14.316,0.312-28.626,1.023-42.947,0.974
			c-12.685-0.043-26.835,0.88-39.196-2.22c-3.94-0.987-11.384-3.516-7.056-8.296c3.035-3.354,8.876-3.359,13.007-3.826
			c18.629-2.105,37.063-2.433,55.777-2.734c9.883-0.159,19.918-0.842,29.79-0.398c16.148,0.725,32.325,0.242,48.503,0.813
			c21.082,0.742,43.262-0.383,64.107,3.094C363.622,309.883,371.265,312.464,370.321,316.592z"/>
	</g>
</g>
<g>
</g>
<g>
</g>
<g>
</g>
<g>
</g>
<g>
</g>
<g>
</g>
<g>
</g>
<g>
</g>
<g>
</g>
<g>
</g>
<g>
</g>
<g>
</g>
<g>
</g>
<g>
</g>
<g>
</g>
</svg>
