<?xml version="1.0" encoding="iso-8859-1"?>
<!-- Generator: Adobe Illustrator 19.0.0, SVG Export Plug-In . SVG Version: 6.00 Build 0)  -->
<svg version="1.1" id="Capa_1" xmlns="http://www.w3.org/2000/svg" xmlns:xlink="http://www.w3.org/1999/xlink" x="0px" y="0px"
	 viewBox="0 0 511.998 511.998" style="enable-background:new 0 0 511.998 511.998;" xml:space="preserve">
<g>
	<g>
		<path d="M394.322,16.259c-2.844-5.938-8.24-7.487-14.134-9.209c-14.477-4.23-30.062-4.21-45.01-5.063
			c-14.751-0.842-29.112-2.27-43.956-1.938C280.898,0.28,270.77,0.985,260.623,2.06c-0.373-0.018-0.746-0.024-1.119-0.044
			c-18.329-0.97-37.104-1.106-55.452-0.612c-8.548,0.23-17.116,0.263-25.652,0.71c-7.884,0.414-17.32,0.236-24.425,4.181
			c-12.123,6.733-12.538,28.642-14.478,40.581c-1.283,7.893-1.094,15.863-2.1,23.784c-0.945,7.446-1.83,14.961-2.443,22.442
			c-2.866,34.952-3.743,69.983-6.136,104.931c-2.508,36.624-5.481,73.349-7.791,110.043c-1.246,19.794-2.312,39.192-1.453,59.054
			c0.816,18.844,3.719,37.661,1.378,56.516c-2.281,18.373-7.266,37.285-4.596,55.901c2.215,15.442,13.736,21.484,27.562,25.632
			c17.168,5.151,36.375,6.836,54.217,6.655c12.662-0.128,29.498,2.371,35.71-11.35c2.96-6.539,3.185-14.67,3.857-21.726
			c0.914-9.585,1.751-19.211,2.301-28.825c1.064-18.588,1.112-37.551,1.257-56.161c0.149-19.176-0.251-38.343,0.656-57.51
			c0.855-18.069,1.903-37.323,6.912-54.741c2.821-9.807,12.828-27.317,19.88-9.861c3.752,9.281,5.178,19.377,5.65,29.33
			c0.849,17.887-0.985,36.573-1.637,54.488c-1.353,37.176-3.177,74.331-6.476,111.402c-1.141,12.819-6.899,33.23,7.839,40.414
			c6.004,2.927,14.854,3.262,21.415,3.961c7.921,0.843,16.447,0.804,24.429,0.668c8.279-0.141,16.59-0.754,24.783-1.933
			c8.354-1.203,17.379-0.922,25.486-3.501c14.043-4.468,18.438-20.066,18.338-33.523c-0.56-75.116-1.662-150.732,1.855-225.836
			c1.701-36.318,0.102-72.705,1.598-109.023c1.402-34.031,2.044-68.182,3.978-102.18C396.34,29.382,397.281,22.437,394.322,16.259z
			 M259.453,24.737c0.216-3.58,0.678-7.755,0.433-11.601c6.822-0.104,13.644-0.206,20.465-0.308
			c-0.202,3.261-0.066,6.556-0.284,9.855c-0.37,5.6-1.245,10.888-1.386,16.47c-6.473-0.114-12.941-0.316-19.402-0.661
			c0.07-1.987-0.377-4.16-0.546-5.884c-0.002-0.022-0.006-0.048-0.008-0.07C259.097,29.925,259.3,27.283,259.453,24.737z
			 M258.728,70.818c0.443-8.206,0.429-16.179,0.019-24.299c0.154,0.011,0.311,0.016,0.465,0.027
			c6.007,0.406,12.13,0.741,18.29,0.986c0.028,0.039,0.05,0.081,0.08,0.119c0.683,7.632,0.845,15.515,0.463,23.156
			c-0.425,8.516-0.123,28.168-13.628,24.541C256.108,93.116,258.339,78.023,258.728,70.818z M166.321,16.234
			c12.461-1.843,25.316-2.264,38.032-2.424c11.25,1.395,22.466,0.771,33.686-0.359c5.085-0.067,10.169-0.143,15.253-0.219
			c-0.232,3.816,0.18,7.62,0.313,11.505c0.122,3.581-0.015,7.244,0.436,10.794c-0.115,0.905-0.202,1.823-0.201,2.716
			c-17.921-0.86-35.992-1.238-53.914-0.916c-10.073,0.181-20.124-0.034-30.185-0.234c-5.712-0.113-12.018-0.982-17.987-0.643
			C153.767,26.903,155.306,17.863,166.321,16.234z M148.133,62.103c0.355-6.88,1.256-13.56,2.539-20.273
			c15.331,3.028,32.451,2.485,47.669,2.534c0.839,0.003,1.681,0.024,2.52,0.029c-2.765,5.221-7.162,10.17-10.77,14.566
			c-5.71,6.957-11.075,13.715-17.699,19.899c-8.603,8.032-18.534,14.154-27.786,21.099C145.645,87.33,147.479,74.744,148.133,62.103
			z M144.09,107.445c0.007-0.141,0.02-0.282,0.027-0.424c3.773-1.327,7.623-4.163,10.242-5.696
			c8.718-5.102,16.764-11.739,24.173-18.568c7.343-6.768,13.339-14.149,19.591-21.864c3.739-4.614,8.902-10.352,10.305-16.413
			c3.208,0.046,6.419,0.123,9.629,0.201c-5.688,17.716-21.953,35.143-35.306,47.002c-8.171,7.257-17.382,13.14-26.4,19.246
			c-3.925,2.657-8.595,5.075-12.667,7.998C143.775,115.097,143.896,111.269,144.09,107.445z M226.185,471.881
			c-0.677,8.194,0.971,24.715-8.934,27.023c-7.025,1.637-15.143,0.853-22.319,0.89c-9.766,0.051-19.115-1.07-28.74-2.662
			c-8.553-1.414-16.906-2.752-24.983-6.04c-3.859-1.57-7.514-2.948-9.885-6.503c-2.848-4.27-2.885-10.085-2.99-15.068
			c-0.077-3.629,0.062-7.231,0.33-10.817c6.388,2.307,12.632,4.834,19.559,5.892c8.417,1.287,17.139,2.117,25.628,2.968
			c9.311,0.933,18.681,1.117,27.972,2.175c7.363,0.839,16.917,3.196,24.42,1.471C226.223,471.433,226.204,471.657,226.185,471.881z
			 M228.95,395.593c-0.117,16.908-0.121,34.084-0.894,50.984c-0.228,4.993-0.601,9.978-1.008,14.96
			c-7.022-1.784-14.913-1.343-22.077-1.99c-9.876-0.893-19.751-1.342-29.637-2.186c-15.424-1.315-30.637-4.155-45.962-5.91
			c1.385-11.822,3.706-23.533,4.277-35.458c0.84-17.526-1.795-34.89-2.202-52.385c-0.547-23.493,1.215-46.896,3.225-70.288
			c5.801,1.08,17.591,1.637,18.95,1.736c8.812,0.643,17.629,0.565,26.447,1.331c17.34,1.507,35.012,2.307,52.467,2.086
			C228.175,330.637,229.174,363.221,228.95,395.593z M233.748,290.308c-0.038,0.228-0.068,0.457-0.105,0.686
			c-6.398-1.069-14.129,0.073-19.911-0.298c-10.279-0.66-20.651-0.367-30.956-1.08c-9.055-0.627-17.93-1.119-26.998-1.153
			c-6.612-0.025-13.879-0.675-20.679-0.126c0.622-7.148,1.253-14.295,1.836-21.444c4.508,1.288,9.865,1.216,13.894,1.504
			c11.3,0.808,22.669,0.921,33.938,1.829c10.235,0.825,20.493,1.096,30.732,1.721c5.633,0.344,11.424,0.038,17.068,0.014
			c2.198-0.009,4.476,0.217,6.724,0.269C236.525,278.257,234.674,284.718,233.748,290.308z M373.963,486.39
			c-3.655,10.575-14.596,9.391-23.93,10.347c-16.035,1.643-31.3,2.152-47.378,2.072c-5.219-0.026-22.257-0.112-25.233-5.084
			c-2.947-4.924-0.327-16.658,0.751-23.87c5.73,0.349,11.985,1.741,17.442,2.31c10.101,1.053,20.75,1.116,30.887,0.566
			c16.342-0.885,32.791-2.758,49.122-3.252C375.839,475.167,375.922,480.721,373.963,486.39z M376.082,412.909
			c0.02,15.012-0.705,30.007-0.688,45.026c-16.825,0.626-33.709,3.019-50.544,4.145c-9.628,0.644-19.592,0.711-29.235,0.439
			c-5.271-0.149-11.276-0.703-16.743,0.145c1.245-15.686,2.56-31.43,3.244-47.133c0.773-17.76,0.116-35.552,1.125-53.333
			c0.978-17.235,0.319-34.596,0.961-51.864c0.132-3.551,0.091-7.2-0.121-10.881c13.308,2.053,27.448,1.861,40.802,2.038
			c8.846,0.117,17.696,0.17,26.543,0.217c8.076,0.042,16.87-0.844,24.928,0.311C375.955,338.992,376.032,375.979,376.082,412.909z
			 M376.465,294.348c-5.576-0.756-11.465-0.213-17.024-0.199c-9.804,0.025-19.607,0.102-29.41,0.172
			c-15.412,0.109-30.917-0.758-46.328,0.255c-0.904-8.953-2.897-17.93-6.194-26.018c3.181,0.492,6.381,0.881,9.566,1.265
			c9.708,1.171,19.631,1.454,29.401,1.48c19.855,0.054,40.529-2.183,60.315,0.167C376.644,279.094,376.562,286.721,376.465,294.348z
			 M379.134,199.817c-1.047,21.379-1.719,42.788-2.186,64.209c-8.631-1.072-17.499-0.973-26.148-0.618
			c-11.453,0.47-22.829,0.722-34.324,0.755c-11.769,0.034-23.378-0.725-35.108-1.395c-1.868-0.107-4.452-0.527-6.899-0.512
			c-4.865-7.832-13.053-13.132-22.148-6.946c-3.585,2.438-6.65,5.929-9.227,9.929c-6.504-1.976-14.782-0.504-21.095-0.499
			c-9.81,0.007-19.651-0.557-29.451-1.03c-18.228-0.879-37.026,0.347-55.231-1.61c0.21-2.688,0.414-5.376,0.603-8.064
			c2.251-31.989,3.071-63.858,4.844-95.838c0.622-11.215,0.629-22.473,0.812-33.723c7.504-3.01,14.294-7.544,21.167-11.822
			c9.523-5.928,18.974-12.583,27.003-20.457c7.654-7.506,14.777-15.731,21.029-24.442c4.63-6.451,10.575-14.743,12.176-22.878
			c10.182,0.319,20.355,0.812,30.487,1.453c-1.561,4.68-1.385,10.841-1.84,15.1c-0.713,6.677-1.778,13.826-1.659,20.537
			c0.167,9.487-0.308,18.681,10.479,20.313c4.017,0.608,9.922,1.47,13.895-0.147c5.597-2.278,5.608-7.553,6.584-12.889
			c2.515-13.757,3.371-27.543,2.155-41.465c10.237,0.26,20.509,0.214,30.499-0.333c-0.865,8.113,2.1,16.695,4.681,24.118
			c3.93,11.302,8.058,20.535,14.199,30.772c5.82,9.701,13.467,17.36,22.04,24.696c6.538,5.595,14.1,12.67,22.425,15.323
			c0.15,0.048,0.29,0.063,0.435,0.092c-0.056,2.096-0.112,4.192-0.139,6.288C378.97,165.728,379.965,182.846,379.134,199.817z
			 M379.575,134.986c-7.766-2.902-15.184-10.384-21.38-15.425c-8.019-6.524-14.077-14.203-19.644-22.831
			c-5.581-8.651-9.194-17.023-12.789-26.691c-2.835-7.623-4.025-15.131-5.906-22.799c3.921-0.201,7.848-0.32,11.783-0.364
			c3.952,13.839,7.724,27.07,17.078,38.667c8.846,10.967,18.522,24.574,31.73,30.507C380.134,122.36,379.82,128.672,379.575,134.986
			z M383.21,51.948c-1.012,16.237-1.467,32.548-2.073,48.808c-0.094,2.528-0.217,5.057-0.333,7.585
			c-3.725-2.855-7.77-5.318-10.976-8.878c-5.73-6.363-11.651-12.616-16.844-19.442c-5.505-7.236-10.056-15.509-13.039-24.085
			c-0.964-2.771-1.848-6.123-3.223-9.085c15.197,0.029,30.456,0.828,45.596,0.702c0.405-0.003,0.78-0.05,1.133-0.129
			C383.368,48.933,383.303,50.45,383.21,51.948z M384.15,29.908c-0.054,2.727-0.16,5.484-0.264,8.237
			c-0.474-0.156-0.984-0.267-1.568-0.271c-32.386-0.269-64.909,1.632-97.321,1.363c0.095-8.548,1.092-17.869-0.121-26.477
			c11.349-0.166,22.698-0.317,34.052-0.415c0.873-0.008,1.748,0.001,2.623,0c2.064,0.203,4.122,0.385,6.195,0.611
			c13.414,1.46,27.029,1.563,40.316,3.793c3.323,0.558,6.775,1.047,9.886,2.426C383.308,21.551,384.267,24.084,384.15,29.908z"/>
	</g>
</g>
<g>
</g>
<g>
</g>
<g>
</g>
<g>
</g>
<g>
</g>
<g>
</g>
<g>
</g>
<g>
</g>
<g>
</g>
<g>
</g>
<g>
</g>
<g>
</g>
<g>
</g>
<g>
</g>
<g>
</g>
</svg>
