<?xml version="1.0" encoding="iso-8859-1"?>
<!-- Generator: Adobe Illustrator 19.0.0, SVG Export Plug-In . SVG Version: 6.00 Build 0)  -->
<svg version="1.1" id="Capa_1" xmlns="http://www.w3.org/2000/svg" xmlns:xlink="http://www.w3.org/1999/xlink" x="0px" y="0px"
	 viewBox="0 0 512.002 512.002" style="enable-background:new 0 0 512.002 512.002;" xml:space="preserve">
<g>
	<g>
		<path d="M496.608,139.557c-6.907-25.698-40.654-33.501-56.748-11.332c-7.022,9.673-10.657,25.777-5.185,36.757
			c4.756,9.544,16.774,16.001,27.53,16.163C484.185,184.577,502.651,162.04,496.608,139.557z M460.062,172.261
			c-1.749-0.608-3.522-1.155-5.258-1.792c-1.031-0.483-2.059-1.035-3.079-1.683c-5.474-3.483-8.508-7.653-9.782-12.121
			c-1.447-6.863,0.46-14.767,4.166-20.752c11.127-17.975,38.566-11.924,41.505,8.961
			C490.029,162.049,475.588,175.598,460.062,172.261z"/>
	</g>
</g>
<g>
	<g>
		<path d="M114.526,139.557c-6.907-25.698-40.655-33.501-56.748-11.332c-7.022,9.673-10.657,25.777-5.185,36.757
			c4.756,9.544,16.774,16.001,27.53,16.163C102.102,184.577,120.569,162.041,114.526,139.557z M77.979,172.261
			c-1.749-0.608-3.522-1.155-5.258-1.792c-1.031-0.483-2.059-1.035-3.079-1.683c-5.474-3.483-8.508-7.653-9.782-12.121
			c-1.447-6.863,0.46-14.767,4.166-20.752c11.127-17.975,38.567-11.924,41.505,8.961C107.946,162.049,93.505,175.598,77.979,172.261
			z"/>
	</g>
</g>
<g>
	<g>
		<path d="M405.415,33.827c-6.906-25.698-40.654-33.501-56.748-11.332c-7.022,9.674-10.658,25.777-5.185,36.757
			c4.756,9.543,16.774,16.001,27.53,16.163C392.991,78.847,411.457,56.311,405.415,33.827z M368.869,66.531
			c-1.749-0.608-3.522-1.155-5.258-1.792c-1.031-0.483-2.059-1.035-3.079-1.683c-5.474-3.483-8.508-7.653-9.782-12.121
			c-1.449-6.863,0.458-14.767,4.164-20.752c11.127-17.975,38.566-11.924,41.505,8.961C398.835,56.32,384.394,69.869,368.869,66.531z
			"/>
	</g>
</g>
<g>
	<g>
		<path d="M431.25,267.646c-4.625-17.209-27.224-22.434-38.001-7.588c-4.703,6.477-7.137,17.261-3.472,24.614
			c3.185,6.39,11.233,10.715,18.435,10.824C422.931,297.794,435.297,282.702,431.25,267.646z M406.777,289.547
			c-1.171-0.407-2.358-0.774-3.521-1.2c-0.69-0.324-1.379-0.693-2.062-1.128c-3.666-2.332-5.698-5.125-6.551-8.117
			c-0.969-4.595,0.308-9.889,2.79-13.896c7.451-12.037,25.826-7.984,27.794,6.001C426.844,282.709,417.173,291.781,406.777,289.547z
			"/>
	</g>
</g>
<g>
	<g>
		<path d="M76.912,259.073c-4.625-17.208-27.224-22.434-38.001-7.588c-4.703,6.478-7.137,17.261-3.472,24.614
			c3.185,6.39,11.233,10.715,18.435,10.824C68.592,289.221,80.959,274.129,76.912,259.073z M52.439,280.974
			c-1.171-0.407-2.358-0.774-3.521-1.2c-0.69-0.324-1.379-0.693-2.062-1.128c-3.666-2.332-5.698-5.125-6.551-8.117
			c-0.969-4.595,0.308-9.889,2.79-13.896c7.451-12.037,25.826-7.984,27.794,6.001C72.506,274.136,62.836,283.209,52.439,280.974z"/>
	</g>
</g>
<g>
	<g>
		<path d="M136.921,43.613c-4.625-17.209-27.224-22.434-38.001-7.588c-4.703,6.478-7.137,17.261-3.472,24.614
			c3.185,6.39,11.233,10.715,18.435,10.824C128.601,73.762,140.968,58.669,136.921,43.613z M112.447,65.514
			c-1.171-0.407-2.358-0.774-3.521-1.2c-0.69-0.324-1.379-0.693-2.062-1.128c-3.666-2.332-5.697-5.125-6.551-8.117
			c-0.969-4.596,0.308-9.889,2.79-13.896c7.451-12.037,25.826-7.985,27.794,6.001C132.515,58.676,122.844,67.748,112.447,65.514z"/>
	</g>
</g>
<g>
	<g>
		<path d="M494.116,33.471c-4.625-17.209-27.224-22.435-38.001-7.589c-4.703,6.478-7.137,17.262-3.472,24.615
			c3.185,6.39,11.233,10.715,18.435,10.823C485.796,63.618,498.163,48.527,494.116,33.471z M469.643,55.371
			c-1.171-0.408-2.358-0.774-3.521-1.199c-0.69-0.325-1.379-0.693-2.062-1.129c-3.666-2.332-5.698-5.124-6.551-8.116
			c-0.969-4.597,0.308-9.889,2.789-13.897c7.451-12.036,25.826-7.984,27.794,6.001C489.71,48.533,480.04,57.607,469.643,55.371z"/>
	</g>
</g>
<g>
	<g>
		<path d="M380.957,173.492c-4.625-17.209-27.224-22.435-38.001-7.589c-4.703,6.478-7.137,17.262-3.472,24.615
			c3.185,6.39,11.233,10.715,18.435,10.823C372.638,203.639,385.004,188.548,380.957,173.492z M356.483,195.391
			c-1.171-0.408-2.358-0.774-3.521-1.199c-0.69-0.325-1.379-0.693-2.062-1.129c-3.666-2.332-5.697-5.124-6.551-8.116
			c-0.969-4.596,0.308-9.889,2.79-13.897c7.451-12.036,25.826-7.984,27.794,6.001C376.551,188.553,366.88,197.627,356.483,195.391z"
			/>
	</g>
</g>
<g>
	<g>
		<path d="M57.48,398.693c-4.624-17.208-27.223-22.435-38.001-7.588c-4.703,6.478-7.137,17.262-3.472,24.614
			c3.185,6.391,11.233,10.715,18.435,10.823C49.161,428.841,61.527,413.749,57.48,398.693z M33.007,420.594
			c-1.171-0.407-2.358-0.774-3.521-1.2c-0.69-0.324-1.379-0.693-2.062-1.127c-3.666-2.333-5.698-5.125-6.551-8.117
			c-0.969-4.595,0.308-9.889,2.79-13.897c7.451-12.036,25.826-7.983,27.794,6.002C53.075,413.755,43.404,422.829,33.007,420.594z"/>
	</g>
</g>
<g>
	<g>
		<path d="M325.675,307.542c-8.005-3.944-25.561-7.92-28.85-16.298c-2.09-5.323-0.248-13.365,0.066-18.818
			c0.41-7.108,0.69-14.22,1.322-21.313c2.298-25.799,2.446-51.779,3.058-77.66c0.682-28.868,1.433-57.723-0.202-86.568
			c-1.345-23.733,1.723-48.259-13.071-68.703C272.703-2.954,248.029-3.612,225.73,5.8c-12,5.065-20.262,15.823-26.062,27.696
			c-2.861,5.576-5.25,11.406-7.369,17.058c-8.954,23.876-10.719,50.073-12.525,75.333c-2.019,28.244-2.786,56.63-1.526,84.927
			c1.111,24.949,5.156,50.493,2.688,75.461c-1.221,12.352-15.05,21.854-23.022,30.509c-7.918,8.598-14.205,18.239-20.167,28.258
			c-24.792,41.658-25.083,96.596,10.354,132.223c15.247,15.329,38.464,24.102,58.956,29.799c23.316,6.484,48.254,5.926,71.907,2.099
			c22.522-3.645,46.974-11.176,63.773-27.458c17.36-16.825,25.771-38.454,29.364-62.022
			C378.469,377.91,366.428,327.618,325.675,307.542z M311.259,484.324c-40.565,18.281-86.771,16.56-127.226-0.72
			c-20.504-8.759-38.894-24.937-46.057-46.689c-7.393-22.449-4.531-49.216,4.557-70.782c7.975-18.925,21.628-35.263,35.947-49.645
			c5.603-5.628,12.227-11.878,14.94-19.544c3.133-8.854,0.961-18.43,0.73-27.558c-0.627-24.812-4.109-49.398-4.857-74.22
			c-0.809-26.846,0.153-53.675,2.407-80.433c2.178-25.86,5.066-52.213,17.353-75.528c5.829-11.062,13.016-20.86,25.207-25.064
			c2.285-0.788,5.157-1.564,8.3-2.178c10.553-1.469,20.238,0.08,29.202,7.796c6.968,5.997,11.088,14.56,13.406,23.314
			c5.174,19.533,2.275,41.475,3.405,61.527c1.252,22.195,0.05,44.408-0.26,66.611c-0.296,21.16-0.617,42.476-1.725,63.615
			c-0.583,11.124-2.093,22.203-2.776,33.333c-0.564,9.199-2.577,19.088-0.482,28.217c3.686,16.068,26.403,18.822,38.589,25.821
			c18.38,10.556,29.24,29.688,34.213,49.762C366.486,413.741,352.415,465.777,311.259,484.324z"/>
	</g>
</g>
<g>
	<g>
		<path d="M298.507,368.165c-3.176-6.594-7.169-12.819-13.142-17.202c-5.641-4.14-16.675-4.708-20.681-9.776
			c-4.4-5.565-2.368-18.704-2.372-25.591c-0.006-10.824,0.169-21.646,0.178-32.47c0.017-21.257-1.11-42.492-0.785-63.762
			c0.657-43.005-1.965-86.738,1.126-129.624c1.054-14.618,3.193-34.732-9.972-44.996c-9.251-7.212-26.614-8.544-31.378,4.666
			c-3.008,8.34-2.294,20.766-2.905,29.676c-0.586,8.559-0.376,16.608,0.185,25.16c0.835,12.724,1.948,25.449,3.182,38.163
			c0.153,9.457,0.217,18.918,0.393,28.415c0.788,42.619-0.69,85.535,1.235,128.136c0.378,8.378,0.804,16.728,1.348,25.094
			c0.27,4.153,1.385,9.368,0.472,13.358c-0.973,4.252-3.906,5.789-6.931,8.641c-12.24,11.541-22.994,25.081-27.19,41.608
			c-7.757,30.557,10.153,59.384,40.344,68.057c31.1,8.935,57.873-9.762,67.863-38.532
			C304.942,401.446,305.896,383.506,298.507,368.165z M228.813,57.226c5.992-17.807,22.831-5.266,25.07,7.525
			c2.819,16.101-0.568,33.781-0.576,50.091c-0.017,36.248-0.445,72.494-0.592,108.726c-0.075,18.486,0.592,36.94,0.727,55.415
			c0.086,11.797-0.45,23.67-0.472,35.507c-0.848-0.529-1.93-0.674-3.209-0.137c-3.549,1.49-7.393,0.502-11.112,1.001
			c-1.807,0.241-3.903,0.424-5.953,0.761c-0.639-11.202-1.136-22.394-1.158-33.647c-0.077-40.747-1.987-81.612-1.502-122.323
			c0.214-17.945-0.842-35.835-2.331-53.704c-1.123-13.472-0.086-26.834-0.582-40.206C227.432,62.998,227.922,59.875,228.813,57.226z
			 M294.769,395.623c-0.833,16.352-7.773,35.258-21.387,45.126c-14.992,10.868-35.122,10.668-51.046,1.974
			c-16.157-8.823-27.427-27.358-24.401-46.059c2.818-17.417,12.782-31.523,25.238-43.624c8.956-8.7,11.141-10.632,10.316-23.759
			c-0.109-1.742-0.213-3.481-0.319-5.222c1.1,0.058,2.204,0.059,3.322,0.033c2.949,0.382,6.076,0.305,8.206,0.46
			c2.377,0.172,5.744,0.661,8.403-0.019c0.051,1.623,0.103,3.246,0.19,4.867c0.262,4.911-0.274,12.851,2.34,17.206
			c2.34,3.898,7.228,4.886,11.296,6.199c8.342,2.694,15.117,5.551,20.029,13.24C292.499,374.721,295.293,385.326,294.769,395.623z"
			/>
	</g>
</g>
<g>
</g>
<g>
</g>
<g>
</g>
<g>
</g>
<g>
</g>
<g>
</g>
<g>
</g>
<g>
</g>
<g>
</g>
<g>
</g>
<g>
</g>
<g>
</g>
<g>
</g>
<g>
</g>
<g>
</g>
</svg>
