<?xml version="1.0" encoding="iso-8859-1"?>
<!-- Generator: Adobe Illustrator 19.0.0, SVG Export Plug-In . SVG Version: 6.00 Build 0)  -->
<svg version="1.1" id="Capa_1" xmlns="http://www.w3.org/2000/svg" xmlns:xlink="http://www.w3.org/1999/xlink" x="0px" y="0px"
	 viewBox="0 0 512 512" style="enable-background:new 0 0 512 512;" xml:space="preserve">
<g>
	<g>
		<path d="M507.642,327.999c-4.78-18.862-13.401-35.424-24.526-51.378c-11.411-16.364-26.81-25.638-44.686-33.62
			c-0.308-0.138-0.621-0.26-0.931-0.393c7.825-43.12,12.218-86.398-1.467-128.875c-11.336-35.191-32.721-65.99-67.869-79.849
			c-38.761-15.285-84.147-18.363-125.32-14.37c-18.78,1.822-36.953,7.344-53.531,16.351c-17.462,9.487-30.391,25.258-42.096,40.951
			c-14.351,19.242-22.178,44.203-28.442,67.11c-3.147,11.509-6.963,23.41-8.464,35.269c-0.7,5.537-1.732,11.973-1.273,17.981
			c-6.739,0.69-13.114,4.959-16.025,11.113c-0.449,0.95-0.842,1.965-1.602,2.69c-2.155,2.057-5.632,0.714-8.432-0.303
			c-7.77-2.822-16.766-1.823-23.914,2.251c-3.225,1.838-5.995,4.135-8.011,7.24c-0.535,0.823-3.552,9.358-3.133,9.26
			c-12.414,2.909-22.522,10.818-28.002,23.528c-1.546,3.586-2.452,7.719-2.189,11.624c0.21,3.119,3.78,8.006,3.496,10.554
			c-0.238,2.134-3.828,4.297-5.854,6.372c-3.231,3.31-6.493,7.19-8.672,11.292c-3.666,6.901-4.946,15.09-0.68,21.922
			c0.857,1.371,1.954,2.813,3.15,4.03c-2.214,2.138-3.537,6.051-4.63,8.678c-3.516,8.447-5.816,17.785-3.768,26.903
			c1.996,8.887,6.878,12.773,12.619,17.794c-4.918,9.71-8.073,20.399-3.669,31.129c5.068,12.348,14.358,15.08,25.518,17.584
			c1.045,6.458,1.031,11.661,6.642,17.516c5.92,6.178,15.09,11.869,23.93,11.333c2.762-0.167,8.677-3.799,11.179-3.397
			c2.601,0.418,5.804,6.769,7.849,8.604c6.674,5.989,16.345,8.252,24.856,5.36c4.229-1.438,8.096-3.897,11.871-6.189
			c4.586-2.785,4.737-1.614,10.039-0.535c8.877,1.806,18.448-1.612,23.709-9.092c1.078-1.533,1.858-4.304,3.111-5.739
			c0.788-0.902,1.329-1.581,1.705-2.101c0.224,0.135,0.613,0.208,1.304,0.139c3.233-0.324,6.32,0.958,9.738,0.142
			c9.424-2.249,15.312-10.089,19.209-18.325c2.128-4.495,2.657-4.847,6.534-7.181c3.997-2.407,7.706-4.26,10.964-7.695
			c6.555-6.912,10.235-16.604,11.461-25.903c0.705-5.344,0.199-10.615,0.483-15.951c0.399-7.482,3.448-13.164,6.179-19.934
			c3.621-8.976,7.855-19.134,6.299-29.014c-0.578-3.666-1.991-6.391-3.717-9.617c-3.999-7.477-3.131-9.541-1.568-16.955
			c1.828-8.673,0.631-18.298-4.69-25.726c-0.799-1.115-2.912-2.374-3.393-3.486c-0.711-1.643,0.25-0.733-0.01-3.145
			c-0.405-3.762,0.296-7.66-0.256-11.489c-0.69-4.784-2.293-9.545-5.247-13.436c-2.654-3.496-6.588-4.447-9.584-7.256
			c-4.598-4.31-6.469-13.234-10.604-18.4c-2.674-3.34-5.7-6.485-9.709-8.18c-5.065-2.141-10.077-1.115-15.106-0.066
			c3.296-13.302,8.72-26.374,12.338-39.507c4.187-15.197,8.315-31.476,16.892-44.912c20.567-32.219,58.452-45.609,95.267-38.424
			c17.884,3.49,35.164,12.913,44.031,29.34c7.357,13.629,14.228,29.728,17.386,44.928c3.341,16.084,6.035,32.748,6.223,49.168
			c0.143,12.541-1.186,24.85-1.727,37.285c-4.312,2.299-8.174,5.378-11.336,9.38c-1.108,1.402-4.383,4.99-2.758,4.896
			c-2.741,0.532-7.268-0.637-9.928-0.325c-6.86,0.803-13.324,3.967-18.42,8.626c-4.398,4.022-8.225,9.674-9.313,15.597
			c-0.354,1.928,0.573,6.141-0.292,7.522c-1.096,1.749-7.447,3.014-9.612,4.303c-11.941,7.111-23.559,18.3-25.203,32.74
			c-0.79,6.941,1.371,12.99,4.168,19.212c2.367,5.267,3.108,5.743-0.095,10.78c-2.775,4.36-6.323,8.123-8.883,12.651
			c-7.057,12.478-7.555,28.733,3.204,39.416c3.074,3.052,8.873,5.15,9.448,10.035c0.309,2.628-1.772,7.276-2.031,9.893
			c-0.691,7.001,0.547,13.509,4.371,19.427c3.42,5.294,7.96,10.071,13.613,12.958c2.096,1.07,6.379,1.222,8.09,2.538
			c0.102,0.252,0.286,0.621,0.601,1.169c0.705,1.231,0.683,3.479,1.229,4.893c4.819,12.485,19.197,22.367,32.442,22.333
			c2.967-0.008,8.179-1.647,11.043-0.82c3.17,0.915,5.411,4.964,7.807,6.952c4.741,3.934,11.001,6.524,17.179,6.867
			c6.475,0.359,12.349-2.038,17.786-5.339c3.984-2.418,6.788-5.029,11.567-5.708c4.781-0.678,8.71,1.291,13.461,1.711
			c33.409,2.95,60.167-33.26,76.239-57.826C512.514,397.362,516.215,361.826,507.642,327.999z M50.645,390.802
			c0.238,3.177,2.502,6.395,2.459,9.438c-0.068,4.864-4.939,9.884-5.529,15.572c-0.007,0.071-0.006,0.142-0.013,0.213
			c-0.055-0.807-0.146-1.622-0.318-2.451c-0.452-2.181-2.505-4.076-4.614-4.614c-7.626-1.946-15.284-0.88-19.747-9.125
			c-4.686-8.658,0.763-18.352,5.058-25.701c1.525-2.609,1.103-6.211-1.076-8.338c-5.852-5.715-12.833-9.016-12.925-18.477
			c-0.07-7.242,3.12-14.872,7.316-20.505c2.414-3.241,4.756-5.863,3.535-10.363c-0.534-1.967-2.035-3.174-2.956-4.864
			c-4.188-7.685-4.96-10.205,0.123-17.138c5.261-7.177,15.955-12.044,11.775-22.43c-1.558-3.872-3.243-4.843-3.46-9.319
			c-0.261-5.383,1.914-7.94,5.245-11.952c6.014-7.243,9.903-9.616,19.502-10.037c9.588-0.42,3.396-8.949,5.688-13.4
			c3.453-6.707,16.932-5.705,22.251-2.9c2.634,1.389,4.96,3.373,7.751,4.408c2.792,1.034,6.403,0.813,8.161-1.589
			c1.717-2.346,0.992-5.678,2.03-8.393c1.093-2.857,3.94-4.601,6.659-6.005c6.294-3.252,12.929-5.84,19.762-7.71
			c3.567-0.977,7.269-1.762,10.945-1.35c1.429,0.16,2.763,0.557,4.04,1.087c-4.007,1.844-7.595,4.61-10.341,8.151
			c-3.351,4.322-5.776,9.38-6.75,14.771c-0.522,2.892-0.885,6.057-0.206,8.946c0.064,0.274,0.318,1.214,0.462,1.802
			c-0.018,0.001-0.03,0-0.048,0.002c-5.154,0.568-9.066,0.938-13.016,4.837c-3.983,3.93-4.549,10.945-10.163,12.195
			c-5.155,1.147-9.79,0.517-15.069,2.806c-4.82,2.09-8.883,5.163-11.784,9.624c-1.43,2.201-2.698,4.776-3.269,7.356
			c-0.525,2.376,0.435,5.625,0.101,7.844c-0.257,0.109-0.588,0.272-1.117,0.592c-2.286,1.381-4.644,2.625-6.653,4.438
			c-4.169,3.762-6.967,8.819-8.432,14.211c-1.687,6.208,0.686,9.861,1.911,15.693c1.082,5.145-2.706,7.57-5.097,12.76
			c-2.767,6.005-4.264,12.032-3.959,18.671c0.289,6.301,2.004,11.814,4.8,17.35c1.006,1.992,2.812,3.505,2.644,5.941
			c-0.165,2.387-3.773,6.473-4.596,9.202C50.886,384.84,50.427,387.897,50.645,390.802z M185.655,215.113
			c3.328,5.642,4.082,11.703,9.269,16.118c3.786,3.223,7.624,4.478,9.753,9.333c2.001,4.564,0.945,9.237,0.65,13.925
			c-0.422,6.713,1.256,8.191,4.659,13.292c8.18,12.263-3.723,26.067,3.603,38.863c2.453,4.284,5.855,6.786,6.029,12.182
			c0.112,3.482-1.226,7.291-2.19,10.602c-2.438,8.379-6.569,16.387-8.472,24.876c-1.951,8.703-0.335,17.639-2.717,26.347
			c-2.85,10.421-8.02,15.967-17.454,20.645c-4.955,2.457-6.574,4.697-9.38,9.55c-2.009,3.474-3.706,7.051-6.727,9.807
			c-5.712,5.213-8.854,1.014-15.005,2.092c-4.541,0.796-7.152,4.213-9.631,7.909c-4.029,6.006-7.989,10.955-16.004,9.137
			c-3.117-0.707-5.535-2.499-8.915-2.193c-8.834,0.801-12.65,11-22.73,10.785c-9.827-0.21-10.891-9.123-18.135-12.788
			c-5.624-2.845-11.057,0.836-16.956,0.782c-3.658-3.872-6.912-8.86-7.862-13.706c-1.767-9.012,0.545-9.415,3.992-15.393
			c0.598-1.038,1.6-1.798,1.903-3.013c1.756-7.043-5.123-11.68-2.83-19.796c1.276-4.516,6.571-8.81,5.953-13.813
			c-0.685-5.55-6.573-10.397-7.852-16.204c-1.392-6.321-0.654-13.117,2.125-18.954c1.589-3.338,4.634-5.646,6.364-8.646
			c2.32-4.022,2.283-5.439,0.563-9.653c-2.15-5.268-4.696-8.113-3.067-14.202c1.707-6.381,6.309-10.623,12.35-12.902
			c1.762-0.665,2.559-1.846,2.788-3.662c1.229-9.725,1.011-18.115,11.946-21.606c5.55-1.772,12.271,0.874,17.373-1.72
			c4.14-2.103,4.122-6.075,6.465-9.62c5.798-8.772,11.883-3.886,18.043-9.089c1.144-0.966,1.439-2.745,1.09-4.123
			c-2.087-8.232-2.157-15.551,3.01-22.88c3.105-4.406,7.403-6.819,12.103-8.482c2.746,1.487,5.618,2.607,9.079,2.176
			C169.267,209.793,178.518,203.013,185.655,215.113z M183.904,110.496c-7.862,14.161-11.852,29.487-16.164,44.945
			c-3.967,14.22-7.579,26.717-6.621,40.844c-2.76,0.185-5.534-0.059-8.334-1.272c-10.98-4.755-17.31-7.369-29.066,0.182
			c-1.397,0.898-2.772,1.915-4.386,2.308c-1.311,0.32-2.656,0.193-4.004,0.002c0.647-7.129,3.494-15.646,4.892-21.473
			c2.201-9.179,5.173-18.275,7.95-27.298c5.888-19.128,13.7-37.753,24.01-54.948c3.656-4.079,7.636-7.756,12.697-11.096
			c15.699-10.361,35.261-18.645,54.317-18.773c8.962-0.06,17.847,0.06,26.689,0.551C220.135,71.251,196.779,87.307,183.904,110.496z
			 M330.257,79.787c-11.55-9.263-25.143-14.933-39.406-17.432c-22.948-6.845-46.149-7.19-69.985-7.861
			c-17.398-0.489-34.43,5.598-49.612,13.961c17.988-19.058,41.179-32.934,67.383-37.535c36.062-6.333,77.022-2.514,111.856,8.219
			c35.779,11.025,57.563,35.939,70.61,70.36c15.73,41.499,11.024,85.682,3.104,128.283c-2.943-0.993-5.879-2.019-8.772-3.227
			c-7.167-2.991-14.334-6.119-22.197-6.627c-1.925-0.125-3.932-0.15-5.985-0.085c-5.007-0.375-9.987-0.193-14.752,0.611
			c0.365-1.698,0.672-3.423,0.819-5.211c0.645-7.88,0.816-15.584,0.81-23.508c-0.011-14.96-2.473-29.071-5.412-43.711
			C363.332,129.203,352.214,97.397,330.257,79.787z M352.048,467.643c-7.441-1.628-16.01,0.596-23.287-3.526
			c-6.246-3.54-8.926-7.718-11.001-14.47c-1.262-4.107-2.433-7.428-6.469-9.484c-5.741-2.924-10.542-1.536-15.339-7.29
			c-5.489-6.583-5.04-12.891-3.096-20.521c3.413-13.392-2.192-14.72-11.183-22.866c-17.617-15.966,3.083-28.806,8.053-43.442
			c4.535-13.354-13.282-22.186-4.023-37.231c4.253-6.911,12.884-12.907,20.44-15.189c4.703-1.421,10.291-1.073,13.543-5.432
			c4.183-5.608-0.326-12.522,2.755-18.583c4.623-9.093,13.292-9.358,22.062-9.935c4.366-0.287,6.478-0.48,9.302-3.991
			c2.872-3.571,3.134-6.849,6.947-9.805c4.637-3.589,13.819-7.749,19.879-7.264c2.788,0.224,5.582,0.654,8.374,1.224
			c-5.918,2.211-11.568,5.665-15.425,8.392c-6.506,4.6-11.037,10.338-13.568,17.968c-1.226,3.697-1.958,7.712-2.211,11.588
			c-0.222,3.391,0.767,7.067,1.073,10.517c-4.148,0.953-7.436,1.904-10.472,6.257c-3.74,5.364-3.027,9.619-2.841,14.787
			c-8.41,0.678-16.037,7.172-20.717,13.936c-6.285,9.083-7.547,18.217-4.098,28.697c0.548,1.664,2.57,3.723,2.267,5.583
			c-0.198,1.217-4.639,4.18-5.431,5.231c-2.98,3.956-4.402,8.73-4.166,13.666c0.206,4.278,1.721,8.257,3.979,11.836
			c1.56,2.472,6.027,5.234,8.366,7.628c-3.666,6.125-7.244,11.875-6.448,19.581c0.805,7.789,5.894,14.591,12.067,19.04
			c2.779,2.003,5.748,2.981,6.978,5.726c1.96,4.378,0.728,9.226,3.807,13.529c2.586,3.614,6.147,6.24,10.142,7.807
			C352.008,463.573,351.932,465.612,352.048,467.643z M489.85,405.086c-4.491,11.89-12.935,22.601-21.039,32.319
			c-9.949,11.932-20.901,24.86-35.544,31.153c-8.229,3.537-15.042,3.218-23.502,1.226c-4.607-1.086-8.56-1.358-13.041,0.553
			c-4.807,2.05-8.706,5.902-13.393,8.199c-3.924,1.923-7.6,3.282-12.029,2.323c-0.093-0.078-0.149-0.171-0.254-0.243
			c-7.571-5.168-12.645-10.678-9.272-20.603c0.991-2.917-1.087-5.452-3.907-5.877c-3.671-0.555-5.062-2.405-7.302-5.498
			c-3.561-4.919-2.027-6.598-3.613-11.948c-1.104-3.724-3.596-4.799-6.74-6.878c-11.168-7.381-14.655-16.076-7.793-28.061
			c1.813-3.167,4.171-4.959,2.37-8.835c-2.814-6.06-10.157-5.964-12.297-14.176c-2.543-9.756,7.212-12.042,9.341-19.399
			c1.53-5.288-3.076-8.039-4.696-12.966c-3.424-10.411,7.415-32.97,21.316-28.272c2.756,0.931,5.573-1.024,5.826-3.871
			c0.827-9.332-1.723-14.096,10.046-17.917c1.908-0.62,3.481-2,3.596-4.141c0.2-3.718-1.298-7.161-1.614-10.881
			c-0.685-8.074,1.166-16.627,6.365-22.952c4.398-5.351,16.839-14.565,26.652-15.784c9.67,3.047,19.171,7.234,28.12,10.626
			c12.911,4.895,26.492,11.824,36.274,21.763c10.895,11.07,19.424,26.443,25.621,40.586
			C501.924,344.246,500.722,376.3,489.85,405.086z"/>
	</g>
</g>
<g>
</g>
<g>
</g>
<g>
</g>
<g>
</g>
<g>
</g>
<g>
</g>
<g>
</g>
<g>
</g>
<g>
</g>
<g>
</g>
<g>
</g>
<g>
</g>
<g>
</g>
<g>
</g>
<g>
</g>
</svg>
