<?xml version="1.0" encoding="iso-8859-1"?>
<!-- Generator: Adobe Illustrator 19.0.0, SVG Export Plug-In . SVG Version: 6.00 Build 0)  -->
<svg version="1.1" id="Capa_1" xmlns="http://www.w3.org/2000/svg" xmlns:xlink="http://www.w3.org/1999/xlink" x="0px" y="0px"
	 viewBox="0 0 512.001 512.001" style="enable-background:new 0 0 512.001 512.001;" xml:space="preserve">
<g>
	<g>
		<path d="M470.852,129.635c-11.769-22.846-31.275-40.742-50.885-56.806c-15.836-12.973-33.013-28.084-51.801-37.028
			c0.639-1.387,1.102-2.808,1.237-4.267c0.47-5.076-3.721-10.89-5.483-15.469c-3.771-9.802-6.996-15.835-18.237-12.033
			c-2.453,0.829-4.841,1.841-7.203,2.925c-9.529-4.568-20.588-4.529-30.971-5.117c-13.593-0.77-27.248-1.379-40.858-1.685
			c-22.973-0.517-47.486,0.05-70.137,4.969c-8.416-2.593-20.243-1.917-24.245,6.341c-2.18,4.498-0.974,9.574,1.406,14.467
			c-17.566,9.838-35.277,19.838-52.342,30.55c-9.935,6.237-20.72,12.064-29.533,19.887c-7.196,6.387-9.301,14.129-12.088,23.076
			c-7.561,24.275-15.586,48.633-19.587,73.813c-4.142,26.062-8.559,52.143-12.12,78.291c-3.382,24.839-4.888,49.881-6.91,74.846
			c-2.17,26.793-5.928,53.782-6.128,80.684c-0.086,11.527,0.208,23.256,0.862,34.758c0.528,9.277,0.32,19.344,4.184,27.995
			c2.868,6.417,7.908,10.35,14.192,13.281c11.194,5.223,24.666,8.99,36.777,11.38c24.67,4.87,50.292,6.891,75.284,9.423
			c25.833,2.618,51.958,5.001,77.89,6.32c50.75,2.581,100.973,2.315,151.72-0.694c19.418-1.151,44.184-0.276,59.002-15.182
			c14.973-15.064,13.319-42.213,14.371-61.985c1.271-23.88,1.993-48.569,1.146-72.493c-0.89-25.145-0.3-49.92,0.792-75.078
			c1.158-26.668,2.37-53.595,4.432-80.199c1.045-13.49,1.343-27.244,1.426-40.756C477.117,152.03,476.306,140.223,470.852,129.635z
			 M449.781,122.076c7.043,9.169,11.91,18.438,12.812,30.035c-10.233,2.615-20.165,6.285-30.758,8.042
			c-3.93,0.652-7.881,1.188-11.843,1.658c-0.636-12.88-1.303-25.693-2.906-38.561c-0.541-4.342-1.166-8.659-1.842-12.969
			c7.35-0.669,14.633-1.657,21.73-3.075C441.456,111.921,445.756,116.836,449.781,122.076z M318.174,312.961
			c0.486-10.617,0.741-21.279,0.825-31.955c15.873-0.412,31.749-0.96,47.668-1.454c0.036,0.497,0.083,0.992,0.118,1.488
			c1.404,19.732,2.226,39.472,2.625,59.214c-2.297,0.002-4.592,0.005-6.883,0.015c-15.145,0.065-30.283-0.309-45.413-0.949
			C317.423,330.528,317.773,321.74,318.174,312.961z M318.108,225.263c14.561-0.125,29.127-0.518,43.706-1.023
			c1.679,16.181,3.09,32.391,4.322,48.629c-15.735,0.565-31.428,1.133-47.118,1.554C319.04,258.027,318.686,241.607,318.108,225.263
			z M361.499,171.43c4.306-0.082,8.609-0.199,12.909-0.379c13.235-0.554,26.564-1.216,39.785-2.541
			c0.11,2.823,0.223,5.648,0.357,8.476c0.58,12.303,1.257,24.639,1.828,36.987c-15.192,2.111-30.519,3.023-45.849,3.549
			c-1.065,0.036-2.131,0.074-3.196,0.111C365.6,202.212,363.671,186.811,361.499,171.43z M360.676,165.548
			c-2.59-18.044-4.621-36.269-7.765-54.224c8.813,0.14,17.63,0.201,26.44,0.248c9.943,0.054,20.163-0.13,30.328-0.844
			c0.748,5.447,1.462,10.898,2.068,16.364c1.308,11.788,1.774,23.569,2.217,35.376c-11.781,1.177-23.643,1.786-35.429,2.443
			C372.591,165.242,366.636,165.425,360.676,165.548z M432.276,102.411c-3.545-0.001-11.964,0.505-18.192,0.933
			c-0.297-1.755-0.571-3.511-0.881-5.267c-0.985-5.584-2.655-11.006-4.096-16.468C417.128,88.288,424.92,95.117,432.276,102.411z
			 M402.312,76.008c0.559,0.457,1.111,0.916,1.668,1.373c1.036,7.162,2.997,14.245,4.021,21.399
			c0.236,1.651,0.461,3.304,0.696,4.955c-0.758,0.06-1.345,0.109-1.685,0.142c-9.956,0.968-19.685,1.257-29.698,1.322
			c-8.459,0.055-16.904,0.291-25.346,0.564c-1.023-6.067-2.014-12.163-3.502-18.109c-1.121-4.48-1.807-9.744-3.431-14.381
			c1.589-3,3.231-5.972,4.904-8.927c5.86,1.066,12.187,0.236,18.109,0.468c4.912,0.193,13.862,1.289,18.803-0.969
			C392.252,67.871,397.449,72.037,402.312,76.008z M346.943,105.922c-6.035,0.206-12.07,0.408-18.106,0.593
			c2.071-4.304,3.729-8.453,4.999-11.048c3.083-6.297,6.169-12.559,9.378-18.744c0.532,4.674,0.657,9.613,1.466,13.791
			C345.658,95.565,346.281,100.757,346.943,105.922z M380.033,58.965c-4.02,0.207-8.093,0.807-11.987,0.732
			c-5.416-0.104-10.712,0.339-16.02,0.989c2.638-4.509,5.399-8.957,8.355-13.317C367.039,50.489,373.64,54.545,380.033,58.965z
			 M346.934,15.021c5.574-2.151,5.197-1.289,7.282,3.65c1.87,4.43,5.724,9.17,4.109,14.173c-1.412,4.374-7.6,10.912-10.274,15.054
			c-6.862,10.629-13.497,21.847-18.909,33.285c-2.061,4.356-12.461,30.676-17.095,30.892c-2.227,0.104-9.272-8.849-11.245-10.917
			c-4.35-4.561-8.173-9.638-11.691-14.866c-5.142-7.64-9.068-16.145-13.921-23.944c17.831-12.149,34.687-25.736,53-37.158
			C334.243,21.416,340.253,17.6,346.934,15.021z M276.992,183.781c-0.047-5.006-0.099-10.018-0.155-15.032
			c10.889,0.688,21.8,1.309,32.72,1.803c0.565,15.411,1.552,30.802,1.982,46.219c0.022,0.778,0.04,1.558,0.062,2.337
			c-11.568,0.089-23.134-0.055-34.693-0.555C277.076,206.987,277.102,195.406,276.992,183.781z M283.571,112.49
			c4.193,0.061,7.904,0.774,11.857,0.025c3.971,4.238,8.396,8.027,12.847,9.694c1.579,13.89,0.677,28.618,1.06,42.324
			c0.001,0.063,0.005,0.127,0.007,0.19c-10.773-0.484-21.533-1.086-32.248-1.729c-0.108-0.007-0.217-0.015-0.325-0.021
			c-0.207-16.856-0.537-33.741-1.113-50.603C278.269,112.452,280.882,112.452,283.571,112.49z M275.454,106.302
			c-0.275-7.18-0.592-14.356-0.99-21.521c3.168,4.862,6.537,9.563,9.872,13.995c1.604,2.13,3.651,4.917,6.001,7.841
			C285.471,106.114,280.397,106.335,275.454,106.302z M262.562,9.831c12.971,0.171,25.917,1.03,38.872,1.661
			c6.259,0.305,12.571,0.394,18.773,1.215c2.021,0.267,3.992,0.648,5.953,0.995c-7.187,4.534-14.028,9.718-20.667,14.672
			c-5.794,4.324-11.579,8.666-17.221,13.188c-4.255,3.411-11.089,12.322-16.071,13.915c-1.458,0.466-2.879,0.353-4.26-0.148
			c-5.03-1.824-9.523-8.793-13.331-11.62c-6.564-4.869-13.584-9.079-20.535-13.364c-9.496-5.854-18.002-13.598-27.318-19.8
			C225.321,10.374,243.909,9.586,262.562,9.831z M245.859,122.482c2.661-3.241,4.355-7.83,5.908-11.237
			c0.355-0.779,0.73-1.547,1.093-2.321c4.882,1.132,9.839,2.111,14.795,2.794c-0.48,16.868-0.651,33.736-0.767,50.604
			c-7.253-0.502-14.502-1.09-21.745-1.759C245.102,147.927,246.236,135.145,245.859,122.482z M263.235,167.87
			c1.203,0.079,2.41,0.155,3.614,0.234c-0.108,16.637-0.216,33.273-0.56,49.906c-7.375-0.455-14.735-0.98-22.082-1.57
			c0.032-1.092,0.083-2.183,0.11-3.276c0.386-15.565,0.822-31.212,0.817-46.794C251.164,166.949,257.197,167.474,263.235,167.87z
			 M267.681,400.687c13.689,1.335,27.38,2.341,41.082,3.091c-0.009,1.62-0.032,3.242-0.035,4.862
			c-0.029,15.48,0.026,30.96-0.005,46.44c-13.977-0.908-27.946-1.935-41.901-3.135C267.057,434.831,267.035,417.697,267.681,400.687
			z M254.811,104.799c2.902-5.974,5.967-11.86,9.001-17.778c1.637-3.193,3.755-6.903,5.41-10.766
			c-0.623,9.886-1.062,19.774-1.388,29.662C263.478,105.48,259.141,105.123,254.811,104.799z M184.025,14.51
			c7.331-4.384,20.876,7.554,27.17,12.002c7.857,5.552,15.719,10.922,23.649,16.361c7.422,5.091,19.709,11.203,24.666,18.757
			c5.407,8.238-7.79,23.376-11.746,30.239c-2.457,4.262-4.779,8.562-6.934,12.983c-0.71,1.457-1.567,4.181-2.686,6.493
			c-1.834-3.141-3.267-7.3-4.494-9.507c-2.318-4.168-4.763-8.257-7.311-12.288c-5.107-8.078-10.333-16.087-15.47-24.147
			c-7.558-11.858-16.771-22.758-24.768-34.382C182.215,25.104,178.644,17.728,184.025,14.51z M108.656,262.427
			c-8.127-1.044-17.202-1.485-26.118-2.637c2.63-20.328,5.112-40.68,7.787-60.994c3.516,0.982,6.962,1.848,10.17,2.651
			c11.672,2.92,23.348,5.248,35.111,7.289c-1.95,18.689-3.814,37.388-5.648,56.076C122.854,264.093,115.75,263.338,108.656,262.427z
			 M129.413,270.588c-1.652,17.405-2.888,34.877-3.96,52.363c-16.788-2.559-33.444-5.722-49.873-9.719
			c1.261-10.507,2.603-20.982,4.029-31.377c0.808-5.887,1.583-11.779,2.353-17.672c4.839,0.747,9.629,1.267,14.01,1.88
			C107.117,267.623,118.251,269.204,129.413,270.588z M157.564,152.708c12.856,2.652,25.791,5.092,38.78,7.236
			c-0.139,2.954-0.286,5.908-0.457,8.859c-0.821,14.205-1.432,28.396-2.04,42.582c-10.856-1.295-21.708-2.701-32.569-4.237
			c-6.645-0.94-13.268-1.893-19.881-2.896c1.767-17.934,3.598-35.861,5.652-53.757C150.549,151.243,154.052,151.984,157.564,152.708
			z M147.654,145.121c0.173-1.467,0.32-2.937,0.496-4.404c1.687-14.078,3.406-28.173,5.296-42.236
			c4.17,0.827,8.348,1.605,12.545,2.23c9.986,1.486,19.971,3.137,29.929,4.82c1.146,0.194,2.292,0.4,3.44,0.608
			c-0.124,1.699-0.255,3.379-0.402,5.031c-1.275,14.396-1.741,28.861-2.365,43.308c-7.678-1.25-15.337-2.626-22.961-4.196
			C164.982,148.501,156.312,146.843,147.654,145.121z M136.17,203.464c-8.398-1.328-16.772-2.799-25.123-4.57
			c-6.195-1.313-13.198-2.515-20.185-4.074c0.743-5.579,1.472-11.161,2.258-16.731c1.849-13.118,3.454-26.272,5.152-39.412
			c2.678,0.647,5.206,1.202,7.294,1.791c12.123,3.42,24.326,6.299,36.593,8.971C140.039,167.425,138.067,185.44,136.17,203.464z
			 M134.881,271.267c4.224,0.493,8.453,0.952,12.691,1.355c14.294,1.362,28.507,2.872,42.714,4.259
			c-0.094,1.226-0.168,2.452-0.267,3.678c-1.331,16.513-2.521,33.027-3.681,49.542c-18.467-1.667-36.933-3.674-55.268-6.326
			C132.103,306.246,133.311,288.725,134.881,271.267z M160.683,267.898c-8.415-0.905-16.833-1.697-25.248-2.525
			c0.195-2.055,0.373-4.114,0.579-6.168c1.657-16.506,3.236-33.027,4.854-49.546c4.34,0.718,8.693,1.401,13.067,2.055
			c13.23,1.976,26.438,3.833,39.659,5.514c-0.771,17.89-1.609,35.777-2.875,53.678C180.713,269.987,170.706,268.976,160.683,267.898
			z M195.426,284.783c0.19-2.457,0.341-4.913,0.515-7.369c12.737,1.209,25.48,2.281,38.279,3.031
			c-0.892,10.249-1.835,20.497-2.762,30.755c-0.673,7.454-1.294,14.919-1.884,22.388c-12.453-0.93-24.956-1.894-37.468-2.981
			C193.155,315.335,194.244,300.062,195.426,284.783z M196.36,271.413c1.171-17.849,1.979-35.676,2.711-53.512
			c13.019,1.604,26.056,3.02,39.138,4.196c-0.712,17.374-1.984,34.69-3.447,51.999C221.938,273.457,209.147,272.533,196.36,271.413z
			 M199.313,212.035c0.531-13.09,1.048-26.188,1.68-39.306c0.192-3.987,0.371-7.975,0.547-11.964
			c12.592,1.998,25.228,3.706,37.893,5.039c-0.363,15.084-0.443,30.178-0.837,45.173c-0.044,1.662-0.118,3.321-0.173,4.983
			C225.361,214.849,212.331,213.536,199.313,212.035z M201.783,155.302c0.522-11.93,1.035-23.862,1.73-35.778
			c0.24-4.119,0.457-8.321,0.689-12.556c1.226,0.192,2.453,0.37,3.684,0.502c4.616,0.498,11.616-0.768,16.052,1.235
			c3.32,7.486,8.387,21.314,17.569,17.185c-1.036,11.339-1.58,22.74-1.919,34.155C226.947,158.793,214.336,157.235,201.783,155.302z
			 M204.597,100.194c0.491-7.93,1.121-15.911,2.183-23.684c4.525,8.025,8.838,16.184,13.122,24.308
			C214.949,100.097,209.301,100.439,204.597,100.194z M177.474,32.458c2.179,3.3,4.456,6.327,6.012,8.778
			c1.167,1.838,2.368,3.66,3.585,5.476c-3.455-0.909-7.432-1.035-10.478-1.739c-3.305-0.763-6.606-1.543-9.919-2.273
			c-0.107-0.023-0.766-0.092-1.643-0.174C169.303,39.41,173.473,36.109,177.474,32.458z M161.651,45.3
			c4.425,2.373,10.069,3.532,14.578,4.698c3.487,0.901,7.075,1.314,10.554,2.201c1.899,0.484,2.785,1.191,4.378,0.469
			c2.844,4.046,5.771,8.053,8.734,12.037c1.184,1.943,2.316,3.928,3.467,5.898c-2.157,9.258-2.891,19.327-3.551,29.046
			c-10.206-1.588-20.409-3.19-30.641-4.606c-4.994-0.691-9.966-1.52-14.931-2.387c0.6-4.336,1.208-8.671,1.852-12.997
			c1.292-8.687,2.491-17.403,3.911-26.067C160.4,51.16,161.431,48.134,161.651,45.3z M106.847,79.269
			c6.747-4.732,14.655-8.708,20.511-12.484c10.266-6.621,20.562-12.562,30.426-19.172c-0.639,2.568-1.607,5.251-1.882,6.74
			c-0.738,4.007-1.246,8.07-1.907,12.093c-1.395,8.483-2.79,16.962-4.06,25.463c-6.48-1.167-12.95-2.396-19.437-3.544
			c-7.808-1.382-15.862-3.737-23.859-5.104C106.726,81.928,106.819,80.595,106.847,79.269z M131.05,93.591
			c5.997,1.366,12.009,2.752,18.043,4.02c-2.239,15.493-4.394,31.003-6.287,46.543c-3.768-0.765-7.531-1.548-11.288-2.371
			c-8.267-1.813-16.432-4.022-24.629-6.12c-1.984-0.508-4.86-1.005-8.004-1.63c0.424-3.226,0.845-6.451,1.29-9.674
			c1.692-12.257,4.956-25.021,6.183-37.602C114.623,88.755,122.954,91.748,131.05,93.591z M84.87,124.316
			c3.088-10.64,5.174-25.829,11.428-35.075c0.906-1.34,1.984-2.619,3.185-3.849c1.03,0.16,2.061,0.331,3.095,0.537
			c-2.532,15.717-6.024,31.349-8.238,47.119c-3.994-0.954-7.964-2.204-10.795-4.016C83.987,127.461,84.416,125.884,84.87,124.316z
			 M82.549,132.579c3.1,2.254,7.133,3.758,11.189,4.914c-2.122,15.722-3.974,31.517-6.59,47.157
			c-0.498,2.978-0.913,5.973-1.327,8.968c-5.599-1.424-11.053-3.161-15.94-5.461C73.376,169.437,77.532,150.866,82.549,132.579z
			 M69.4,190.804c4.859,2.684,10.368,4.777,15.9,6.508c-1.47,11.365-2.537,22.809-3.961,34.167
			c-1.154,9.201-2.584,18.376-3.986,27.553c-6.073-1.022-11.963-2.516-17.313-4.907C62.529,232.965,65.552,211.795,69.4,190.804z
			 M57.1,281.348c0.781-7.965,1.629-15.943,2.547-23.924c5.097,2.907,11.017,4.643,17.066,5.838
			c-1.199,7.942-2.343,15.888-3.228,23.857c-0.918,8.268-1.939,16.56-2.983,24.865c-5.373-1.369-10.713-2.861-16.03-4.428
			C55.354,298.792,56.247,290.052,57.1,281.348z M54.159,310.695c5.152,2.089,10.424,3.973,15.792,5.667
			c-1.836,14.534-3.696,29.105-5.177,43.665c-0.694-0.183-1.405-0.332-2.09-0.532c-4.242-1.243-8.326-3.064-12.534-4.439
			C51.275,340.242,52.685,325.437,54.159,310.695z M49.88,358.865c4.301,2.031,8.537,4.255,13.085,5.639
			c0.441,0.134,0.895,0.239,1.338,0.368c-0.753,7.883-1.393,15.761-1.826,23.627c-0.471,8.532-0.743,17.131-0.819,25.729
			c-4.628-1.251-9.242-2.562-13.842-3.924C47.824,393.212,48.638,376.038,49.88,358.865z M49.231,453.495
			c-0.988-10.027-1.004-19.979-1.264-30.035c-0.082-3.159-0.123-6.323-0.143-9.488c4.44,2.036,9.083,3.753,13.832,5.223
			c0.006,5.652,0.074,11.301,0.284,16.922c0.46,12.29,0.615,25.176,2.909,37.401C54.639,469.7,50.39,465.262,49.231,453.495z
			 M71.973,475.876c-3.397-17.702-4.671-36.451-4.688-55.039c6.056,1.673,12.153,3.104,18.01,4.563
			c11.34,2.824,22.728,5.426,34.132,7.96c-0.118,3.477-0.244,6.954-0.298,10.432c-0.201,12.897-1.219,28.45,1.117,41.865
			C103.921,483.438,87.84,480.775,71.973,475.876z M122,384.712c-0.811,14.362-1.794,28.732-2.391,43.111
			c-17.518-3.689-34.988-7.561-52.297-12.08c0.115-10.298,0.587-20.514,1.288-30.437c0.443-6.273,0.947-12.567,1.485-18.87
			c6.27,1.545,12.663,2.773,18.919,4.175c11.124,2.492,22.226,5.069,33.355,7.525C122.238,380.326,122.123,382.522,122,384.712z
			 M122.686,372.147c-12.068-2.568-24.123-5.185-36.204-7.708c-5.216-1.089-10.631-1.947-15.944-3.049
			c1.289-14.484,2.784-29.008,4.482-43.48c16.347,4.777,33.391,8.004,50.09,10.604C124.246,343.064,123.478,357.613,122.686,372.147
			z M176.867,492.403c-13.48-1.34-26.937-2.871-40.357-4.614c-3.252-0.422-6.493-0.84-9.725-1.262
			c-1.27-7.152-1.029-15.073-1.336-22.074c-0.423-9.637-0.365-19.288-0.09-28.929c0.008-0.279,0.023-0.559,0.031-0.838
			c4.277,0.942,8.556,1.877,12.835,2.811c13.378,2.921,26.891,5.794,40.469,8.445C178.506,461.485,176.717,476.859,176.867,492.403z
			 M182.051,391.033c-1.191,16.257-2.907,32.541-3.253,48.849c-13.092-2.502-26.128-5.191-39.062-7.866
			c-4.714-0.975-9.427-1.952-14.138-2.935c0.611-16.569,1.677-33.123,2.539-49.68c5.4,1.163,10.807,2.295,16.233,3.345
			c12.521,2.423,25.136,4.639,37.794,6.687C182.126,389.967,182.09,390.5,182.051,391.033z M135.773,374.92
			c-2.444-0.503-4.88-1.038-7.321-1.551c0.732-14.646,1.465-29.32,2.3-43.995c3.408,0.507,6.801,0.996,10.161,1.467
			c14.961,2.096,29.963,3.853,44.988,5.407c-1.093,15.681-2.173,31.363-3.3,47.043C166.895,380.839,151.246,378.104,135.773,374.92z
			 M222.054,458.778c-0.943,12.298-0.777,24.941-1.773,37.224c-12.267-0.825-24.522-1.803-36.756-2.958
			c-0.136-15.34,1.429-30.548,1.625-45.871c12.404,2.347,24.85,4.462,37.297,6.23C222.315,455.194,222.191,456.989,222.054,458.778z
			 M225.069,408.721c-0.521,12.822-1.275,25.709-2.174,38.545c-12.574-1.75-25.14-3.863-37.666-6.19
			c0.212-15.451,1.753-30.837,2.707-46.251c0.091-1.477,0.193-2.951,0.285-4.427c12.456,1.958,24.946,3.757,37.433,5.392
			C225.45,400.101,225.244,404.412,225.069,408.721z M188.619,384.235c0.99-15.803,1.986-31.602,3.055-47.394
			c12.456,1.244,24.926,2.351,37.401,3.382c-1.238,16.383-2.276,32.788-3.112,49.189
			C213.524,387.816,201.058,386.117,188.619,384.235z M251.587,497.092c-0.192,0.206-0.377,0.416-0.544,0.638
			c-8.14-0.358-16.274-0.819-24.405-1.327c0.83-11.826,0.417-23.911,1.39-35.772c0.174-2.119,0.321-4.248,0.481-6.372
			c4.7,0.622,9.398,1.199,14.091,1.703c3.704,0.398,7.412,0.773,11.12,1.145C253.374,470.484,252.821,483.838,251.587,497.092z
			 M255.161,400.267c-0.789,16.751-0.923,33.632-1.286,50.494c-3.074-0.289-6.152-0.536-9.224-0.843
			c-5.223-0.523-10.449-1.15-15.676-1.825c0.868-12.506,1.523-25.067,2.074-37.552c0.206-4.661,0.43-9.323,0.657-13.984
			c6.942,0.882,13.881,1.732,20.808,2.524c0.897,0.103,1.795,0.185,2.692,0.285C255.191,399.666,255.175,399.967,255.161,400.267z
			 M255.52,392.982c-4.552-0.497-9.099-1.02-13.642-1.574c-3.281-0.4-6.568-0.813-9.856-1.227
			c0.841-16.495,1.821-32.99,3.007-49.467c4.05,0.327,8.1,0.649,12.15,0.965c3.685,0.287,7.372,0.569,11.059,0.85
			C257.17,359.338,256.324,376.163,255.52,392.982z M262.277,291.912c-1.457,14.591-2.613,29.214-3.597,43.852
			c-1.857-0.139-3.716-0.272-5.574-0.414c-5.848-0.445-11.717-0.881-17.595-1.319c0.576-7.615,1.186-15.227,1.862-22.831
			c0.903-10.155,1.832-20.302,2.711-30.45c6.617,0.333,13.244,0.604,19.904,0.719c1.066,0.018,2.131,0.018,3.197,0.032
			C262.892,284.972,262.623,288.442,262.277,291.912z M240.628,274.369c1.45-17.226,2.709-34.462,3.37-51.754
			c4.637,0.39,9.28,0.753,13.932,1.077c2.738,0.191,5.476,0.33,8.213,0.483c-0.417,16.948-1.118,33.893-2.392,50.831
			C256.025,274.925,248.32,274.697,240.628,274.369z M308.719,480.384c-0.027,0.67-0.47,12.254-0.032,18.59
			c-14.616-0.002-29.233-0.221-43.845-0.71c1.161-13.232,1.629-26.558,1.875-39.907c13.996,1.291,28.012,2.41,42.038,3.385
			C308.823,467.969,308.971,474.14,308.719,480.384z M308.81,397.344c-13.649-0.732-27.283-1.77-40.886-3.091
			c0.645-16.948,1.26-33.905,2.074-50.85c13.337,0.972,26.685,1.84,40.041,2.512C309.41,363.055,308.974,380.211,308.81,397.344z
			 M311.436,312.961c-0.429,8.676-0.81,17.365-1.155,26.058c-13.323-0.635-26.637-1.468-39.943-2.408
			c0.77-14.918,1.714-29.823,3.019-44.699c0.302-3.438,0.543-6.869,0.803-10.303c12.749,0.04,25.472-0.148,38.193-0.442
			C312.238,291.788,311.958,302.395,311.436,312.961z M274.671,275.059c1.148-16.803,1.824-33.571,2.15-50.372
			c11.65,0.463,23.297,0.654,34.944,0.623c0.421,16.383,0.706,32.84,0.631,49.277C299.833,274.886,287.264,275.069,274.671,275.059z
			 M314.383,158.262c-0.567-11.389-0.592-23.655-2.516-35.221c0.135,0.012,0.271,0.05,0.406,0.058
			c5.987,0.337,10.785-5.757,14.509-12.567c5.911,0.813,12.176,0.513,17.936,0.661c0.985,0.025,1.972,0.026,2.957,0.047
			c0.101,0.698,0.189,1.402,0.297,2.097c2.702,17.337,4.499,34.9,6.793,52.322c-13.321,0.138-26.668-0.152-39.996-0.69
			C314.639,162.733,314.494,160.498,314.383,158.262z M355.515,171.491c2.099,15.439,3.928,30.891,5.592,46.36
			c-14.404,0.505-28.82,0.996-43.237,1.199c-0.083-2.153-0.16-4.309-0.249-6.459c-0.577-13.951-1.643-27.869-2.518-41.8
			C328.574,171.336,342.051,171.617,355.515,171.491z M365.737,497.717c-16.736,0.741-33.495,1.159-50.261,1.245
			c0.994-11.384,0.816-23.012,0.384-34.289c-0.031-0.817-0.046-1.636-0.072-2.453c12.779,0.846,25.563,1.588,38.343,2.234
			c4.384,0.221,8.775,0.407,13.168,0.567C366.816,475.921,366.302,486.821,365.737,497.717z M367.596,458.203
			c-5.189-0.153-10.376-0.345-15.556-0.608c-12.14-0.616-24.275-1.319-36.408-2.073c-0.215-14.351,0.224-28.778,0.196-43.102
			c-0.005-2.755,0.017-5.513,0.026-8.27c17.786,0.85,35.599,1.234,53.462,1.223C368.952,422.986,368.339,440.597,367.596,458.203z
			 M369.433,398.527c-4.26,0.016-8.52,0.029-12.777,0.049c-13.594,0.063-27.194-0.253-40.782-0.872
			c0.118-17.143,0.483-34.302,1.032-51.449c14.51,0.647,29.028,1.03,43.548,0.986c3.016-0.009,6.049-0.008,9.089-0.004
			C369.802,364.333,369.724,381.431,369.433,398.527z M414.448,494.603c-0.504,0.042-1.01,0.085-1.508,0.127
			c-13.343,1.111-26.715,1.941-40.098,2.611c1.044-10.65,1.661-21.364,2.058-32.102c11.958,0.326,23.928,0.418,35.865,0.121
			c1.197-0.03,2.432-0.065,3.658-0.099C414.473,475.04,414.452,484.819,414.448,494.603z M376.091,347.244
			c12.635,0.017,25.42-0.012,38.155-0.562c-0.52,12.854-0.991,25.709-1.281,38.56c-0.095,4.238-0.108,8.482-0.072,12.731
			c-12.291,0.357-24.602,0.465-36.909,0.523c0.028-1.482,0.044-2.969,0.078-4.45C376.418,378.436,376.399,362.836,376.091,347.244z
			 M413.023,404.765c0.221,10.804,0.665,21.618,0.972,32.384c0.2,7.034,0.299,14.068,0.364,21.102
			c-2.591,0.07-5.162,0.127-7.674,0.172c-10.51,0.186-21.04,0.164-31.563-0.045c0.504-17.673,0.497-35.395,0.743-53.009
			C388.272,405.303,400.646,405.133,413.023,404.765z M417.138,281.159c-0.824,19.344-1.767,38.703-2.59,58.065
			c-12.81,0.911-25.735,1.014-38.615,1.027c-0.519-20.31-1.528-40.608-2.945-60.894c14.755-0.441,29.515-0.885,44.247-1.819
			C417.194,278.744,417.189,279.953,417.138,281.159z M417.415,270.901c-14.931,1.078-29.944,1.27-44.912,1.757
			c-1.207-16.243-2.688-32.45-4.436-48.628c14.471-0.482,29.005-0.957,43.375-2.708c1.74-0.212,3.482-0.454,5.223-0.695
			C417.376,237.387,417.775,254.16,417.415,270.901z M446.731,482.506c-6.172,7.746-15.897,10.225-25.478,11.41
			c0.003-9.631,0.018-19.259-0.039-28.886c10.807-0.448,22.138-1.467,32.228-4.461C452.822,468.581,451.437,476.6,446.731,482.506z
			 M454.313,446.306c-0.188,2.104-0.307,4.321-0.422,6.595c-10.252,3.335-21.613,4.574-32.749,5.096
			c-0.071-6.95-0.174-13.899-0.377-20.848c-0.316-10.836-0.771-21.724-0.998-32.602c4.008-0.146,8.016-0.301,12.027-0.5
			c3.411-0.169,15.646,0.167,24.22-1.738C455.821,416.992,455.62,431.663,454.313,446.306z M456.335,383.909
			c-0.088,3.401-0.148,6.802-0.202,10.203c-1.589,0.167-3.824,0.918-4.796,1.096c-5.273,0.967-10.557,1.356-15.894,1.627
			c-5.267,0.267-10.534,0.585-15.803,0.842c-0.037-4.15-0.031-8.296,0.057-12.435c0.277-12.973,0.768-25.942,1.329-38.908
			c11.74-0.697,23.401-1.922,34.823-4.065C456.099,356.133,456.695,369.98,456.335,383.909z M456.107,316.319
			c-0.311,6.238-0.378,12.46-0.339,18.675c-3.979,0.148-7.905,0.971-12.136,1.533c-7.404,0.984-14.827,1.558-22.264,2.172
			c0.89-19.802,1.878-39.602,2.469-59.409c0.021-0.726,0.017-1.451,0.036-2.177c0.065-0.005,0.13-0.008,0.195-0.013
			c10.415-0.784,23.247-0.115,34.125-3.034C457.488,288.148,456.81,302.229,456.107,316.319z M459.527,248.501
			c-0.351,6.167-0.648,12.331-0.966,18.497c-10.509,3.458-23.314,3.181-34.58,3.566c0.24-16.968-0.204-33.931-0.967-50.883
			c5.595-0.887,11.175-1.905,16.688-3.088c7.28-1.561,14.726-4.108,22.105-5.611C461.158,223.508,460.236,236.044,459.527,248.501z
			 M462.602,186.12c-0.034,6.014-0.218,12.045-0.476,18.081c-13.143,2.244-26.193,6.598-39.411,8.808
			c-0.653-13.35-1.444-26.693-2.158-40.026c-0.092-1.715-0.178-3.427-0.264-5.139c2.594-0.304,5.184-0.628,7.765-0.995
			c12.042-1.71,23.261-5.438,34.851-8.358C463.166,167.69,462.654,176.905,462.602,186.12z"/>
	</g>
</g>
<g>
</g>
<g>
</g>
<g>
</g>
<g>
</g>
<g>
</g>
<g>
</g>
<g>
</g>
<g>
</g>
<g>
</g>
<g>
</g>
<g>
</g>
<g>
</g>
<g>
</g>
<g>
</g>
<g>
</g>
</svg>
