<?xml version="1.0" encoding="iso-8859-1"?>
<!-- Generator: Adobe Illustrator 19.0.0, SVG Export Plug-In . SVG Version: 6.00 Build 0)  -->
<svg version="1.1" id="Capa_1" xmlns="http://www.w3.org/2000/svg" xmlns:xlink="http://www.w3.org/1999/xlink" x="0px" y="0px"
	 viewBox="0 0 511.999 511.999" style="enable-background:new 0 0 511.999 511.999;" xml:space="preserve">
<g>
	<g>
		<path d="M495.111,138.051c-1.49,0.162-3.026,0.504-4.575,0.913c-0.867-7.52-5.082-13.591-8.22-20.774
			c-3.269-7.481-5.506-15.278-7.641-23.136c-5.113-18.815-4.601-38.373-10.049-57.187c-2.234-7.715-7.165-27.965-17.138-28.59
			c-4.906-0.307-10.383,6.339-13.741,8.812c-6.118,4.503-11.79,9.497-17.661,14.312c-13.5,11.073-27.011,21.934-37.036,36.36
			c-9.138,13.151-13.894,29.944-25.341,41.329c-13.08,13.009-30.535,21.357-44.51,33.384c-5.977,5.144-11.801,10.837-16.694,17.03
			c-2.648,3.352-4.891,7.298-7.258,10.941c-0.3-0.589-0.6-1.178-0.882-1.765c-3.604-7.485-11.114-38.093-24.601-30.545
			c-2.298,1.286-4.07,3.628-5.582,6.311c-0.169,0.066-0.335,0.166-0.492,0.309c-4.515,4.12-7.081,9.953-10.27,15.078
			c-4.859,7.808-10.501,15.128-14.985,23.181c-1.093,1.963-2.392,4.112-3.508,6.351c-1.982-2.252-4.095-4.484-6.172-7.104
			c-5.041-6.359-8.976-14.227-15.565-19.108c-1.321-0.979-3.307-0.719-4.653,0c-8.857,4.733-11.383,17.353-13.712,26.262
			c-2.066,7.903-5.736,16.409-6.821,24.817c-4.104-8.355-9.586-15.138-16.761-11.122c-2.298,1.286-4.07,3.628-5.582,6.311
			c-0.169,0.066-0.335,0.166-0.492,0.309c-4.515,4.12-7.081,9.953-10.27,15.078c-4.859,7.808-10.501,15.127-14.985,23.181
			c-1.189,2.136-2.628,4.491-3.801,6.946c-8.1-9.736-21.227-16.208-29.522-3.338c-5.982,9.281-10.361,19.805-15.737,29.443
			c-1.268,2.273-4.101,6.255-6.216,10.28c-3.948-7.175-9.038-12.34-15.508-8.719c-2.298,1.286-4.07,3.629-5.582,6.311
			c-0.169,0.066-0.335,0.166-0.491,0.309c-4.515,4.12-7.081,9.953-10.27,15.078c-4.858,7.808-10.501,15.127-14.984,23.181
			c-2.541,4.564-6.268,10.106-5.953,15.555c0.418,7.215,8.87,9.437,7.392,16.56c-1.617,7.79-7.442,15.167-9.52,23.107
			c-1.84,7.028-4.076,15.422-3.747,22.747c0.57,12.736,16.31,14.043,26.151,14.89c2.795,0.241,5.552,0.367,8.296,0.442
			c-1.069,2.906-1.066,6.319-0.851,9.304c0.299,4.168,0.404,8.291,1.237,12.388c-8.813,5.531-16.903,12.577-25.221,18.507
			c-7.324,5.221-28.839,14.895-25.169,26.553c3.758,11.94,28.392,5.251,37.074,4.596c18.363-1.386,36.821-1.843,55.241-1.887
			c19.744-0.046,39.783,0.526,59.455,2.243c18.287,1.596,36.431,4.921,54.85,4.732c19.149-0.197,37.888-5.336,56.919-7.009
			c19.838-1.744,38.308,0.164,57.792,3.802c18.499,3.454,37.309,5.195,56.113,5.617c19.987,0.449,39.836-1.316,59.828,0.237
			c14.824,1.151,30.295,4.973,43.845-3.441c13.312-8.266,17.84-24.815,20.839-39.153c7.455-35.647,1.719-72.87,3.25-109.037
			c1.607-37.957,1.078-75.919,2.8-113.86c0.985-21.696,3.337-43.354,3.56-65.076C512.098,159.257,512.032,136.215,495.111,138.051z
			 M465.751,113.767c0.272-0.326,0.566-0.632,0.847-0.95c3.532,10.366,8.067,20.348,12.723,30.289
			c-3.431,1.504-6.783,3.057-9.879,4.249c-7.814,3.008-15.349,6.496-22.706,10.471c-10.556,5.703-21.129,11.459-30.932,18.326
			c-8.957,5.352-17.765,10.953-26.094,17.094c-14.429,10.638-26.149,24.331-40.213,35.367c-0.097,0.076-0.199,0.145-0.297,0.22
			c-0.627-11.608,2.734-24.425,10.254-32.825c7.592-8.479,18.164-14.215,26.43-22.096c6.419-6.12,10.435-13.006,13.378-21.351
			c2.102-5.964,3.152-12.875,6.089-18.502c1.296-2.482,2.986-4.769,4.678-7.06c0.324,0.601,0.654,1.266,1,2.072
			c2.863,6.666,4.533,13.961,10.866,18.343c6.054,4.189,14.576,4.84,21.212,1.738c6.847-3.201,11.583-9.543,14.316-16.398
			C460.093,126.056,460.992,119.473,465.751,113.767z M378.02,95.332c0.566-1.034,1.134-2.064,1.685-3.125
			c7.505-14.435,18.172-25.878,30.046-36.755c11.935-10.934,24.471-22.061,35.294-34.094c0.594-0.661,1.278-2.007,2-2.95
			c0.354,0.436,0.877,0.978,1.603,1.649c0.561,0.992,1.122,1.985,1.682,2.977c4.595,9.266,6.48,20.785,7.718,30.985
			c1.973,16.271,1.171,31.797,5.269,47.853c0.385,1.509,0.811,3.002,1.246,4.491c-5.115,4.76-8.395,11.504-11.248,17.837
			c-3.726,8.272-11.237,19.944-22.282,16.541c-8.953-2.759-8.979-13.259-13.319-19.789c-6.357-9.567-13.408-5.723-21.867-1.393
			C377.738,128.827,375.37,111.923,378.02,95.332z M295.359,167.877c5.123-5.878,10.729-11.281,16.76-16.237
			c13.111-10.775,28.327-18.943,42.305-28.524c6.476-4.438,11.556-9.707,15.92-15.616c-0.013,4.226,0.529,8.242,1.792,11.76
			c2.133,5.944,6.596,9.876,12.92,10.548c4.28,0.454,8.339-0.853,12.275-2.428c4.759-1.904,7.409-4.133,9.621-3.553
			c-5.462,5.89-8.505,13.306-11.832,20.919c-6.339,14.507-14.177,23.838-26.377,33.798c-9.405,7.678-17.915,14.717-22.135,26.458
			c-2.897,8.06-3.841,18.509-2.049,27.269c-11.538,8.095-24.471,14.22-37.213,20.285c-2.264-6.711-5.824-13.213-8.397-19.849
			c-1.333-3.437-3.629-7.399-3.942-11.098c-0.339-4.002,2.046-7.447,2.807-11.215c2.468-12.23-3.978-23.181-9.736-33.636
			C290.754,174.03,293.122,170.444,295.359,167.877z M248.832,168.372c1.576-1.962,3.128-3.942,4.518-6.034
			c1.913-2.878,3.37-5.983,5.25-8.864c5.364-8.221,5.142-4.945,7.851,1.593c2.66,6.419,5.251,12.894,8.091,19.24
			c-4.075,2.376-6.285,6.139-9.872,10.299c-3.699,4.29-10.514,10.068-16.198,5.113c-3.164-2.758-4.201-6.536-4.683-10.415
			C245.493,175.673,247.201,172.044,248.832,168.372z M237.384,193.447c0.976-2.315,1.998-4.607,3.04-6.89
			c1.791,6.377,6.395,11.729,13.674,11.568c5.723-0.126,11.148-3.978,14.729-8.163c2.441-2.854,4.307-5.763,7.398-7.86
			c0.566-0.384,1.082-0.706,1.572-1.012c3.459,6.825,7.059,13.69,7.54,21.4c0.371,5.935-2.744,9.951-3.152,15.581
			c-0.48,6.638,3.009,13.43,5.36,19.365c2.124,5.36,4.448,10.619,6.811,15.878c0.984,2.191,1.65,3.648,1.786,4.744
			c-3.396,1.779-6.706,3.68-9.947,5.684c-1.725,0.413-3.467,0.773-5.118,1.18c-8.048,1.983-15.636,3.295-23.941,3.648
			c-6.879,0.293-19.329,2.348-25.533-1.611c-12.763-8.143,8.775-38.46,12.07-48.19c1.754-5.181,1.501-10.566-1.746-15.061
			c-0.72-0.996-5.117-4.202-5.507-4.968C235.452,196.84,236.458,195.642,237.384,193.447z M267.575,276.805
			c-2.794,2.188-5.548,4.442-8.276,6.741c-0.117-2.069-0.263-4.187-0.641-6.227C261.643,277.237,264.615,277.074,267.575,276.805z
			 M182.203,224.083c3.104-8.697,6.751-17.136,9.524-25.961c2.095-6.667,3.382-18.607,9.01-24.161
			c5.946,5.521,8.822,13.177,14.055,19.192c4.945,5.683,14.374,11.811,15.105,19.886c0.831,9.182-7.289,17.583-9.544,26.197
			c-1.84,7.028-4.076,15.422-3.747,22.747c0.57,12.737,16.31,14.043,26.151,14.89c2.953,0.254,5.863,0.382,8.758,0.452
			c-1.004,4.474-0.98,9.44-1.081,14.119c-3.851,3.606-7.651,7.283-11.557,10.814c-1.426-3.176-4.03-6.002-6.123-8.74
			c-2.969-3.884-6.195-8.05-11.318-8.939c-8.666-1.505-16.254,5.38-21.405,12.131c-1.348-3.201-3.258-6.77-3.543-10.127
			c-0.339-4.002,2.047-7.447,2.807-11.215c3.03-15.015-7.378-28.102-13.45-40.712c-0.989-2.055-2.275-5.856-3.896-10.128
			C182.046,224.387,182.145,224.246,182.203,224.083z M230.88,309.007c-5.032,3.926-10.378,7.42-16.386,10.003
			c-1.604,0.69-3.19,1.372-4.768,2.054c-0.187-1.069-0.442-2.185-0.851-3.406c-1.614-4.822-3.903-9.535-6.024-14.267
			c4.221-3.712,9.317-9.411,14.712-9.618C224.123,293.522,227.65,303.673,230.88,309.007z M150.314,233.348
			c1.576-1.962,3.128-3.942,4.518-6.034c1.912-2.878,3.37-5.983,5.25-8.864c5.363-8.221,5.141-4.944,7.851,1.593
			c2.785,6.718,5.477,13.505,8.474,20.131c2.805,6.2,6.456,12.253,8.622,18.733c-3.341,2.126-6.093,5.489-10.468,5.072
			c-6.134-0.585-6.23-7.817-10.597-11.01c-2.021-1.477-4.079-1.63-6.492-1.803c-5.844-0.421-7.944,1.506-11.631-6.268
			c-0.153-0.322-0.266-0.668-0.388-1.009C147.096,240.388,148.741,236.887,150.314,233.348z M138.865,258.421
			c1.17-2.775,2.41-5.515,3.667-8.247c0.746,1.981,1.873,3.779,3.48,5.129c2.241,1.882,5.076,2.476,7.905,2.744
			c6.342,0.6,7.12,4.246,10.771,8.725c4.645,5.698,16.613,5.761,22.13,0.801c0.326,5.874-2.746,9.879-3.151,15.473
			c-0.481,6.638,3.008,13.43,5.36,19.365c2.124,5.36,4.447,10.619,6.811,15.878c2.687,5.98,3.039,6.527-3.452,9.031
			c-3.087,1.191-6.629,1.789-9.827,2.577c-8.048,1.982-15.636,3.295-23.941,3.648c-6.879,0.293-19.329,2.348-25.533-1.611
			c-12.763-8.143,8.775-38.46,12.07-48.19c1.754-5.181,1.501-10.566-1.746-15.061c-0.72-0.996-5.116-4.202-5.507-4.968
			C136.934,261.815,137.939,260.617,138.865,258.421z M173.37,341.327c-4.326,3.426-8.605,6.935-12.85,10.491
			c-0.283-3.24-0.664-6.475-1.387-9.502C163.911,342.219,168.646,341.897,173.37,341.327z M82.11,297.306
			c4.407-6.446,8.736-13.566,12.406-20.474c2.84-5.345,5.754-14.064,10.422-17.886c6.804-5.571,14.663,8.36,20.521,11.296
			c0.363,0.182,0.72,0.3,1.073,0.39c2.504,3.241,5.791,5.809,4.823,10.474c-1.616,7.79-7.442,15.167-9.52,23.107
			c-1.84,7.028-4.076,15.422-3.748,22.747c0.57,12.736,16.31,14.043,26.151,14.89c2.953,0.254,5.865,0.382,8.761,0.452
			c-1.194,5.051-1.43,10.915-1.073,15.872c0.022,0.304,0.039,0.61,0.057,0.914c-4.755,4.157-9.394,8.434-13.969,12.77
			c-2.91-3.856-6.484-7.207-10.43-9.993c-4.549-3.213-9.64-7.809-15.627-6.906c-7.9,1.191-13.116,9.02-15.881,17.02
			c-0.827-1.965-1.535-3.97-1.699-5.904c-0.339-4.002,2.047-7.447,2.807-11.215c3.03-15.015-7.378-28.102-13.45-40.712
			c-1.195-2.481-2.822-7.506-4.951-12.836C80.012,300.21,81.036,298.879,82.11,297.306z M129.848,379.777
			c-7.373,7.417-14.458,15.155-22.008,22.357c-0.125-1.501-0.462-3.148-1.077-4.984c-2.025-6.049-5.111-11.927-7.594-17.884
			c4.429-6.182,8.971-16.294,15.039-14.796c2.66,0.656,7.385,6.411,9.252,8.447C125.639,375.294,127.473,377.7,129.848,379.777z
			 M48.201,312.84c1.576-1.962,3.129-3.942,4.519-6.034c1.912-2.878,3.37-5.983,5.25-8.864c5.364-8.221,5.142-4.944,7.851,1.593
			c2.784,6.718,5.477,13.504,8.474,20.131c1.596,3.529,3.469,7.01,5.193,10.546c-0.675-0.218-1.439-0.095-2.048,0.418
			c-2.24,1.886-5.68,3.866-8.671,3.22c-2.411-0.521-4.737-2.681-7.11-3.512c-2.272-0.795-4.441-1.069-6.757-0.167
			c-2.406,0.937-5.59,6.246-7.786,6.427c-3.299,0.272-5.302-5.128-5.941-8.56C43.524,322.978,45.933,317.947,48.201,312.84z
			 M30.973,411.426c-12.763-8.143,8.775-38.46,12.07-48.19c1.755-5.181,1.501-10.566-1.746-15.062
			c-0.72-0.996-5.116-4.202-5.507-4.968c-0.969-1.899,0.037-3.096,0.963-5.292c0.408-0.968,0.845-1.923,1.267-2.885
			c0.454,1.046,0.988,2.08,1.71,3.077c3.08,4.259,7.947,5.803,12.608,2.714c1.114-0.739,1.8-2.396,2.847-2.991
			c3.438-1.951,5.839,0.633,8.535,2.096c2.864,1.555,6.297,2.399,9.543,1.864c3.813-0.628,7.909-3.508,8.235-7.154
			c1.66,3.938,2.939,7.992,3.21,12.32c0.371,5.935-2.745,9.951-3.152,15.581c-0.481,6.638,3.008,13.43,5.36,19.365
			c2.124,5.36,4.448,10.619,6.811,15.878c2.688,5.98,3.039,6.527-3.452,9.031c-3.086,1.191-6.628,1.79-9.827,2.577
			c-8.048,1.983-15.636,3.295-23.941,3.648C49.626,413.328,37.176,415.383,30.973,411.426z M88.484,417.747
			c-0.399,0.257-0.77,0.545-1.173,0.796c-10.052,6.272-19.903,12.14-28.698,19.381c-0.235-2.138-0.617-4.275-0.947-6.277
			c-0.5-3.041-0.459-6.755-1.454-9.824C67.057,421.671,77.65,420.262,88.484,417.747z M492.691,311.397
			c-0.237,30.042-1.481,60.008-1.561,90.036c-0.036,13.503,0.646,27.349-1.769,40.692c-2.258,12.479-5.589,34.616-17.915,41.365
			c-10.173,5.57-24.88,0.907-35.703,0.172c-16.582-1.125-32.93,0.063-49.492,0.195c-14.58,0.117-29.273-0.612-43.773-2.082
			c-8.346-0.846-16.596-2.341-24.863-3.69c1.265-1.728,2.406-3.553,3.376-5.491c4.968-9.919,8.84-16.189,18.71-22.161
			c17.743-10.735,36.167-20.237,53.895-30.974c13.795-8.355,27.121-16.661,29.88-33.69c1.557-9.612,1.381-19.926,1.183-29.632
			c-0.196-9.577,1.957-18.989,1.838-28.467c-0.022-1.776-2.902-2.318-3.219-0.435c-1.244,7.381-4.351,14.249-5.155,21.783
			c-1.115,10.444-0.844,21.079-2.465,31.483c-3.151,20.223-25.703,29.339-42.13,38.087c-15.689,8.355-32.919,16.852-47.045,27.703
			c-9.805,7.532-14.321,19.211-19.464,30.214c-3.696-0.479-7.404-0.868-11.137-1.081c-13.646-0.778-27.317,0.235-40.837,2.099
			c-16.03,2.209-31.788,6.828-48.007,7.463c-15.761,0.617-31.189-1.523-46.809-3.208c-3.856-0.416-7.727-0.754-11.603-1.049
			c8.645-5.482,16.437-13.601,21.618-20.909c10.217-14.413,12.235-33.257,25.105-45.821c13.42-13.102,33.495-16.965,48.913-27.195
			c13.39-8.885,27.348-20.998,35.132-35.267c0.683-1.253-1.123-2.29-1.902-1.112c-9.894,14.983-27.53,26.348-43.308,34.212
			c-14.691,7.322-31.14,11.148-44.002,21.803c-12.254,10.151-15.461,23.532-21.658,37.385
			c-6.374,14.247-17.324,26.534-29.642,36.265c-10.561-0.585-21.152-0.872-31.687-1.139c-16.324-0.415-32.629,0.295-48.944,0.527
			c-7.577,0.108-15.098,0.866-22.651,1.416c-4.634,0.338-9.989,1.169-15.197,1.387c2.568-1.975,5.146-4.136,6.216-4.934
			c4.929-3.68,9.671-7.574,14.406-11.501c7.52-6.237,14.645-12.957,21.941-19.368c10.277-5.711,21.278-10.628,31.153-16.289
			c13.594-7.795,25.316-18.36,36.268-29.477c24.266-24.631,51.238-49.202,83.119-63.118c15.28-6.669,26.808-15.059,39.209-26.232
			c13.163-11.86,25.241-24.539,40.232-34.291c14.605-9.501,31.125-15.843,45.82-25.295c8.588-5.524,16.204-11.878,23.433-18.758
			c-5.492,9.575-6.194,17.605,4.637,19.644c6.299,1.186,13.553-2.798,19.365-4.809c2.899-1.003,10.004-4.639,13.177-3.678
			c6.178,1.871,0.555,10.877-2.063,14.736c-10.68,15.749-25.71,28.285-37.108,43.542c-8.694,11.638-18.04,26.165-17.826,41.278
			c0.161,11.357,7.899,20.752,20.027,19.076c14.493-2.003,27.54-17.626,35.223-28.812c5.531-8.052,11.132-16.054,16.654-24.115
			c3.639-5.313,14.494-25.622,22.839-24.774c5.295,0.538,4.089,11.517,6.909,16.017c3.166,5.051,9.237,9.662,15.245,10.405
			c8.052,0.997,17.297-4.779,24.082-8.436c3.001-1.618,6.391-3.341,9.409-5.464C492.749,302.216,492.727,306.804,492.691,311.397z
			 M496.439,173.949c-0.322,15.515-1.626,31.011-2.374,46.509c-1.035,21.44-1.172,42.813-1.249,64.22
			c-0.177,0.134-0.355,0.265-0.524,0.433c-3.978,3.932-10.843,6.711-15.671,9.37c-9.574,5.275-22.605,10.104-26.004-4.157
			c-1.658-6.957-2.201-15.285-11.204-15.445c-11.801-0.21-19.849,10.624-26.267,18.909c-10.36,13.374-18.308,28.858-29.242,41.768
			c-4.519,5.335-12.278,13.533-19.131,15.614c-12.701,3.857-13.232-8.306-10.604-16.975c4.865-16.042,17.256-29.815,28.141-42.076
			c6.761-7.615,49.518-49.775,23.525-56.856c-5.079-1.384-10.894-0.05-15.7,1.62c-4.709,1.635-22.366,12.368-23.483,2.931
			c-0.741-6.257,11.401-18.94,14.788-22.98c3.843-4.585,7.916-8.982,11.974-13.391c9.599-7.487,19.828-14.028,30.642-20.501
			c9.167-5.487,18.311-11.144,27.721-16.225c8.666-3.897,17.431-7.565,26.496-10.409c3.681-1.154,14.824-6.125,17.446-2.794
			C498.486,157.03,496.523,169.921,496.439,173.949z"/>
	</g>
</g>
<g>
	<g>
		<path d="M348.937,282.439c-6.941,3.997-12.897,9.506-19.589,13.921c-6.515,4.298-13.553,8.933-18.683,14.855
			c-10.262,11.847-12.897,27.414-16.174,42.191c-4.202,18.949-9.652,35.705-23.288,50.116
			c-14.115,14.918-31.772,27.302-52.152,31.277c-1.592,0.311-1.257,3.051,0.388,2.867c31.316-3.489,64.637-27.441,77.059-56.816
			c7.57-17.898,7.766-38.374,15.913-55.984c4.287-9.265,11.763-15.883,19.493-22.288c6.699-5.55,12.613-11.732,19.173-17.365
			C352.627,283.884,350.64,281.458,348.937,282.439z"/>
	</g>
</g>
<g>
</g>
<g>
</g>
<g>
</g>
<g>
</g>
<g>
</g>
<g>
</g>
<g>
</g>
<g>
</g>
<g>
</g>
<g>
</g>
<g>
</g>
<g>
</g>
<g>
</g>
<g>
</g>
<g>
</g>
</svg>
