<?xml version="1.0" encoding="iso-8859-1"?>
<!-- Generator: Adobe Illustrator 19.0.0, SVG Export Plug-In . SVG Version: 6.00 Build 0)  -->
<svg version="1.1" id="Capa_1" xmlns="http://www.w3.org/2000/svg" xmlns:xlink="http://www.w3.org/1999/xlink" x="0px" y="0px"
	 viewBox="0 0 512.001 512.001" style="enable-background:new 0 0 512.001 512.001;" xml:space="preserve">
<g>
	<g>
		<path d="M472.924,336.242c-1.367-10.825-2.557-21.669-3.751-32.514c-0.633-5.755-0.905-11.981-2.391-17.694
			c8.005-9.508,8.185-23.112,5.824-35.992c-5.703-31.115-38.766-61.376-71.648-54.462c-0.361-1.746-0.725-3.492-1.116-5.23
			c-3.642-16.185-6.933-32.503-11.345-48.502c-2.521-9.139-5.549-18.042-8.484-27.041c-0.396-1.213-0.738-2.455-1.068-3.705
			c-0.858-17.507-6.359-34.609-14.858-50.894c-12.125-23.232-29.104-45.837-54.355-55.061c-18.341-6.7-36.809-6.259-54.823-2.109
			c-16.482,2.535-33.332,10.029-46.583,18.18c-8.255,4.822-15.982,10.488-23.248,16.812c-0.131,0.114-0.264,0.231-0.395,0.346
			c-15.753,13.153-30.008,29.063-38.504,46.982c-7.439,15.691-6.774,31.128-1.186,45.34c-0.002,0.011-0.008,0.019-0.01,0.03
			c-1.332,6.079-4.781,12.493-6.727,18.458c-2.607,7.992-5.596,15.856-7.64,24.024c-2.825,11.291-4.584,22.865-6.219,34.433
			c-14.353-4.919-37.23,2.801-49.607,8.789c-18.487,8.943-31.065,28.19-36.047,47.687c-2.19,8.57-3.915,18.564,1.835,26.064
			c1.672,2.182,3.798,4.041,6.16,5.625c-6.094,16.419-7.081,33.645-7.958,51.146c-0.916,18.299-5.762,40.753,5.719,56.933
			c10.004,14.1,31.401,19.784,47.505,22.616c9,1.582,25.808,5.164,35.62,0.482c8.133,8.393,19.118,14.526,30.479,19.266
			c-0.95,6.035-0.357,12.542-0.678,18.487c-0.425,7.883-2.155,16.069-1.908,23.976c0.399,12.814,10.048,19.523,22.388,16.788
			c13.33-2.954,10.766-22.483,11.407-33.262c0.232-3.9,1.086-9.846,0.938-15.308c26.803,7.605,54.41,13.309,82.141,15.975
			c19.456,1.87,38.798,2.044,57.446-1.728c0.141,17.074-6.176,43.108,18.693,40.661c11.422-1.124,13.207-10.064,13.371-20.428
			c0.14-8.807-0.824-20.558-3.29-29.818c0.397-0.192,0.798-0.361,1.194-0.558c10.273-5.115,18.679-11.659,25.591-19.235
			c0.054,0.005,0.099,0.022,0.154,0.026c36.941,2.637,80.256-6.584,87.687-48.93C476.641,373.507,475.388,355.767,472.924,336.242z
			 M436.46,215.253c11.716,7.449,20.712,20.98,23.793,34.508c1.436,6.307,2.833,15.488,0.848,21.865
			c-2.883,9.26-12.219,12.253-20.804,12.762c-8.834,0.524-19.777-1.214-28.962,0.291c-0.218-2.782-0.433-5.569-0.649-8.356
			c3.736,0.058,7.474,0.086,11.206,0.311c3.209,0.194,7.05,0.249,7.891-3.647c0.378-1.752-0.765-3.092-2.482-3.258
			c-5.884-0.568-11.393-0.096-17.095,0.471c-1.705-21.746-3.606-43.575-7.396-64.973
			C414.349,207.639,425.532,208.305,436.46,215.253z M153.715,106.637c1.585-26.725,24.689-50.72,44.26-66.863
			c11.633-9.595,23.383-17.042,37.344-22.745c0.324-0.132,0.671-0.269,1.006-0.404c13.766-4.453,28.136-6.635,42.419-5.987
			c12.095,0.548,24.96,4.809,35.477,10.586c11.799,6.481,18.649,15.724,26.449,26.347c13.575,18.487,26.962,43.611,26.607,67.233
			c-0.356,23.626-10.545,47.868-28.82,63.177c-19.261,16.135-48.486,23.326-73.114,22.308c-26.314-1.087-51.121-14.511-70.89-31.359
			C176.274,153.438,152.153,132.983,153.715,106.637z M276.484,230.96c-0.552,4.868-1.448,10.928-0.499,16.2
			c-1.708-0.194-3.374-0.091-4.976,0.25c-0.798-7.133-2.703-14.014-4.48-21.114c-0.795-3.18-1.747-7.117-3.042-10.842
			c5.114,0.32,10.257,0.246,15.38-0.159C277.788,220.466,277.079,225.707,276.484,230.96z M284.066,271.903
			c-1.13,4.458-4.32,7.819-8.806,9.019c-5.533,1.48-9.932-2.279-12.411-6.888c-2.228-4.145-1.389-9.426,1.179-13.76
			c2.449-2.93,6.087-5.503,9.976-5.09C283.057,256.144,286.214,263.435,284.066,271.903z M86.681,411.472
			c-16.789-4.047-33.569-10.225-36.2-29.316c-2.141-15.532-0.377-32.431-0.112-48.095c0.162-9.588,0.895-19.335,2.012-28.847
			c0.243-2.067,0.511-4.067,0.637-6.049c2.519,1.072,5.108,1.915,7.605,2.513c10.934,2.619,22.557,2.287,33.705,2.312
			c6.116,0.014,12.949,0.401,19.365-0.081c-0.394,5.566-0.774,11.128-1.133,16.679c-1.872,28.923-6.16,63.327,4.887,90.996
			c0.507,1.271,1.085,2.495,1.699,3.694C109.039,416.818,95.019,413.482,86.681,411.472z M121.86,225.346
			c-2.634,17.269-4.536,34.721-6.075,52.201c-6.2-1.068-12.454-0.973-18.693-2.287c-3.583-0.755-6.468,4.687-2.665,6.321
			c4.064,1.746,8.18,1.919,12.559,1.582c2.752-0.212,5.577-0.263,8.366-0.467c-0.226,2.691-0.469,5.382-0.68,8.073
			c-0.004,0.003-0.007,0.005-0.011,0.008c-4.43,0.367-9.506-0.128-13.815,0.113c-7.561,0.424-15.359,0.502-22.922,0.131
			c-7.35-0.36-15.087-0.729-21.755-4.133c-10.527-5.374-8.041-17.031-4.925-26.809c10.272-32.239,41.552-42.941,72.231-45.887
			C122.952,217.918,122.426,221.641,121.86,225.346z M179.823,487.783c-0.282,3.496,0.181,5.879-1.099,7.476
			c-0.665,0.83-1.8,1.447-3.755,1.897c-2.176,0.501-8.043-0.059-9.956-1.425c-6.579-4.698-1.07-16.47-0.828-22.694
			c0.322-8.341,0.285-16.727-1.301-24.885c6.209,2.375,12.425,4.379,18.254,6.138c0.092,0.863,0.192,1.752,0.235,2.666
			C181.86,467.244,180.648,477.547,179.823,487.783z M181.854,439.712c-19.666-5.823-40.801-14.28-49.896-30.628
			c-6.488-11.663-7.452-28.298-8.075-41.327c-0.299-6.259-0.335-12.57-0.246-18.889c12.677-1.303,27.269-3.352,28.78,14.057
			c0.91,10.48-3.846,24.907,2.24,34.41c6.714,10.485,23.346,8.981,28.12,21.269C185.53,425.691,182.638,432.83,181.854,439.712z
			 M329.179,423.52c-7.897,10.413-6.32,22.237-3.28,33.776c-11.743,2.055-23.954,2.445-35.954,2.186
			c-28.918-0.626-58.863-6.175-86.72-13.891c-3.866-1.071-8.105-2.178-12.533-3.382c0.363-4.152,2.065-9.152,2.027-13.054
			c-0.054-5.548-0.401-11.797-3.048-16.823c-2.735-5.192-7.89-8.517-12.974-11.07c-3.302-1.658-7.185-2.588-10.245-4.687
			c-6.562-4.501-6.133-11.147-6.18-17.855c-0.087-12.458,1.74-27.505-11.055-34.595c-8.846-4.901-17.09-2.986-25.486-0.366
			c0.169-7.029,0.455-14.055,0.697-21.017c1.148-32.967,3.993-66.317,8.544-98.983c2.432-17.45,4.267-34.971,8.177-52.179
			c2.26-9.946,6.519-20.278,8.877-30.507c3.817,6.583,8.613,12.819,14.027,18.594c20.095,21.434,43.008,39.381,70.811,49.798
			c6.572,2.462,13.37,4.151,20.268,5.147c1.018,3.642,3.194,7.331,4.317,10.484c2.739,7.693,4.172,16.292,8.72,23.212
			c-8.186,3.385-13.954,13.164-13.218,22.021c0.029,1.683,0.315,3.336,0.936,4.897c2.461,6.185,7.181,10.645,12.545,12.582
			c-2.521,9.774-5.817,19.458-8.584,29.165c-2.415,8.472-6.45,17.923-5.95,26.819c0.191,3.404,4.717,3.974,5.845,0.791
			c3.38-9.536,5.222-19.746,7.53-29.583c1.066-4.546,2.302-9.252,3.276-13.995c-0.076,16.128,3.19,32.468,11.577,46.359
			c1.255,2.078,4.872,1.316,4.746-1.285c-0.448-9.245-4.295-17.545-7.042-26.273c-3.177-10.097-4.038-20.531-4.503-31.013
			c4.804-0.248,9.59-2.537,13.361-7.485c4.732-6.209,5.303-15.525,3.168-22.814c-1.508-5.148-5.976-8.308-10.873-10.057
			c1.582-5.618,1.319-12.535,2.103-17.851c0.75-5.09,2.802-10.794,3.266-16.117c40.15-5.87,77.658-33.073,89-72.314
			c0.246-0.851,0.439-1.7,0.659-2.549c3.142,13.077,5.57,26.291,8.152,39.481c5.817,29.715,8.377,58.978,10.944,89.123
			c1.911,22.438,5.488,48.344,5.77,73.938c-11.07-0.78-19.986,1.642-27.302,11.06c-4.356,5.607-7.161,12.189-8.486,19.138
			c-1.5,7.874,0.333,15.331-0.37,23.064C362.886,415.587,339.218,410.28,329.179,423.52z M352.488,498.895
			c-2.23,6.932-11.46,5.594-14.723-0.458c-2.424-4.496-1.67-10.971-1.795-15.968c-0.096-3.838-0.108-8.31-0.794-12.486
			c4.913-1.209,9.778-2.694,14.574-4.536C350.017,476.336,355.997,487.985,352.488,498.895z M369.896,436.525
			c-11.278,10.718-24.721,16.636-39.024,19.787c-0.619-13.887-1.799-29.73,14.831-34.426c9.241-2.61,18.56-4.944,24.235-13.531
			c6.673-10.094,1.612-22.467,3.739-33.642c1.281-6.728,4.173-13.564,9.006-18.555c4.85-5.009,11.488-5.651,18.022-5.218
			c0.048,0.031,0.093,0.065,0.142,0.094C400.149,383.302,393.214,414.364,369.896,436.525z M462.346,379.753
			c-3.089,17.495-7.867,32.949-25.106,41.11c-13.212,6.254-27.334,7.704-41.622,7.303c22.235-36.321,20.472-87.824,16.92-128.776
			c-0.032-0.366-0.061-0.733-0.093-1.099c15.724-1.666,31.472,2.574,46.207-5.624c-0.269,4.329-0.703,8.708-0.531,12.913
			c0.313,7.664,0.911,15.382,1.681,23.016C461.477,345.196,465.278,363.153,462.346,379.753z"/>
	</g>
</g>
<g>
	<g>
		<path d="M181.216,122.595c-2.489-3.118-5.67-5.901-8.394-8.85c-3.047-3.299-6.445-6.005-7.459-10.621
			c-0.46-2.095-3.273-1.375-3.476,0.47c-1.073,9.805,8.978,17.025,14.789,23.54C179.476,130.274,183.735,125.752,181.216,122.595z"
			/>
	</g>
</g>
<g>
	<g>
		<path d="M210.533,150.335c-2.016-1.874-4.564-3.3-6.695-5.09c-4.243-3.566-8.186-7.501-12.317-11.182
			c-1.069-0.953-2.595-0.017-2.33,1.356c0.421,2.173,1.598,4.019,2.943,5.728c1.768,2.248,3.292,4.763,5.336,6.766
			c1.945,1.907,4.023,3.832,6.178,5.502c2.197,1.701,3.25,1.92,5.805,2.418c1.088,0.212,2.09-0.3,2.44-1.385
			C212.406,152.857,211.711,151.43,210.533,150.335z"/>
	</g>
</g>
<g>
	<g>
		<path d="M250.236,176.174c-3.971-1.847-8.28-2.535-12.389-3.988c-2.595-0.918-4.913-2.267-7.2-3.775
			c-2.235-1.473-5.486-3.026-7.406-4.875c-1.251-1.205-3.453-0.008-2.957,1.721c1.54,5.377,8.448,10.236,13.229,12.565
			c4.76,2.319,11.617,5.721,16.723,3.028C251.934,179.955,252.072,177.028,250.236,176.174z"/>
	</g>
</g>
<g>
	<g>
		<path d="M300.241,176.654c-5.942,1.327-11.437,2.899-17.542,3.675c-3.219,0.409-6.376,0.585-9.574,0.689
			c-1.59,0.052-4.012,0.627-5.567-0.147c-2.226-1.108-3.88,1.852-1.921,3.287c5.259,3.855,12.156,3.044,18.238,2.63
			c7.276-0.495,13.26-0.769,18.818-5.922C304.63,179.07,302.577,176.132,300.241,176.654z"/>
	</g>
</g>
<g>
	<g>
		<path d="M335.541,155.382c-2.938,3.408-5.551,6.866-8.793,10.029c-1.556,1.518-3.193,3.126-4.992,4.357
			c-0.8,0.548-3.242,2.362-4.26,2.454c-2.238,0.203-2.169,3.153,0,3.432c3.642,0.468,8.851-2.535,11.653-4.593
			c4.644-3.41,8.384-7.059,10.77-12.301C341.126,156.111,337.776,152.788,335.541,155.382z"/>
	</g>
</g>
<g>
	<g>
		<path d="M355.26,110.848c-2.09,4.663-2.481,9.79-3.674,14.734c-1.198,4.968-3.072,10.25-5.284,14.879
			c-0.786,1.645,1.42,3.772,2.737,2.112c6.53-8.236,11.129-19.821,11.117-30.399C360.153,109.737,356.371,108.37,355.26,110.848z"/>
	</g>
</g>
<g>
	<g>
		<path d="M84.605,276.421c-7.938-1.772-15.977-2.423-23.734-5.037c-2.613-0.881-4.584,2.732-2.661,4.57
			c6.66,6.364,17.988,5.782,26.395,3.672C86.162,279.234,86.216,276.779,84.605,276.421z"/>
	</g>
</g>
<g>
	<g>
		<path d="M453.983,268.968c-2.09-1.385-5.246-1.44-7.6-0.854c-3.481,0.866-6.911,1.709-10.467,2.252
			c-1.917,0.291-1.923,3.587,0,3.876c3.73,0.56,7.142,0.885,10.927,0.6c3.221-0.243,5.033-0.906,7.52-2.927
			C455.358,271.106,454.895,269.572,453.983,268.968z"/>
	</g>
</g>
<g>
</g>
<g>
</g>
<g>
</g>
<g>
</g>
<g>
</g>
<g>
</g>
<g>
</g>
<g>
</g>
<g>
</g>
<g>
</g>
<g>
</g>
<g>
</g>
<g>
</g>
<g>
</g>
<g>
</g>
</svg>
