<?xml version="1.0" encoding="iso-8859-1"?>
<!-- Generator: Adobe Illustrator 19.0.0, SVG Export Plug-In . SVG Version: 6.00 Build 0)  -->
<svg version="1.1" id="Capa_1" xmlns="http://www.w3.org/2000/svg" xmlns:xlink="http://www.w3.org/1999/xlink" x="0px" y="0px"
	 viewBox="0 0 512.003 512.003" style="enable-background:new 0 0 512.003 512.003;" xml:space="preserve">
<g>
	<g>
		<path d="M460.004,297.114c-4.136-49.56-20.541-99.766-39.666-145.358c-19.042-45.396-35.875-97.429-77.902-127.299
			C322.056,9.972,295.42-1.907,269.96,0.255c-9.268,0.787-18.958,3.14-27.944,6.21c-4.787,1.329-9.489,2.984-14.094,4.92
			c-4.527,1.552-9.189,3.401-12.643,6.121c-17.767,9.793-33.698,23.567-46.783,38.67c-30.79,35.538-53.914,78.272-73.899,120.579
			c-19.684,41.668-37.661,87.201-42.484,133.384c-1.8,17.238-0.272,39.111,18.305,46.607c17.506,7.065,34.031-5.101,44.033-18.756
			c4.792-6.543,8.366-14.096,11.197-22.093c-0.723,7.222-1.141,14.475-0.882,21.8c0.781,22.081,3.89,45.487,12.136,66.079
			c7.357,18.376,18.541,33.912,32.66,45.954c-1.884,1.385-3.584,2.826-4.831,3.734c-6.409,4.665-16.154,11.808-18.873,19.602
			c-1.912,5.482,1.3,10.395,7.147,10.854c5.683,0.447,10.921-2.597,16.178-5.054c-1.224,3.696-1.516,7.575,0.096,10.632
			c4.096,7.767,12.604,3.498,19.47,0.387c-0.033,0.591-0.043,1.101-0.015,1.399c0.252,2.69,1.28,5.776,3.222,7.776
			c4.404,4.536,10.03,2.833,14.148-0.95c3.678-3.379,11.666-15.042,13.095-23.725c1.242,0.286,2.468,0.606,3.728,0.856
			c20.036,3.972,43.219,6.69,65.513,4.928c-0.495,4.431-0.084,9.409-0.109,12.971c-0.037,5.368,0.616,11.953,4.915,15.708
			c9.255,8.081,16.339-0.876,19.489-9.89c1.233,1.732,2.468,3.492,4.069,4.541c2.908,1.907,6.927,3.259,10.414,2.564
			c6.377-1.27,7.928-6.368,8.624-11.74c0.447,0.526,0.903,0.998,1.386,1.336c2.46,1.722,5.372,2.47,8.329,2.668
			c6.796,0.456,12.947-2.837,15.935-9.085c5.784-12.096-6.921-21.395-17.309-27.601c29.026-21.271,44.178-61.799,48.855-96.039
			c2.554-18.695,1.843-37.257,1.704-55.904c1.55,5.969,3.585,11.723,6.315,17.098c7.444,14.652,26.521,32.026,43.43,21.287
			C460.492,337.914,461.396,313.795,460.004,297.114z M204.231,486.638c-6.127,10.188-5.003-1.394-7.47-5.182
			c-1.068-1.639-2.942-2.462-4.864-1.979c-3.492,0.878-10.597,6.608-13.509,4.996c-2.036-1.126-1.689-1.455-0.569-4.436
			c0.719-1.912,1.728-3.767,3.155-5.236c2.292-2.36,0.818-7.49-2.936-7.088c-3.59,0.385-6.776,2.093-10.141,3.347
			c-4.216,1.571-18.938,8.131-10.172-1.522c5.195-5.72,11.676-10.198,17.384-15.371c10.562,7.911,22.567,13.981,35.709,17.988
			c0.157,0.223,0.327,0.446,0.541,0.658C210.431,471.888,204.738,485.794,204.231,486.638z M351.259,478.702
			c0.07,10.167-3.233,13.204-9.91,9.111c-1.019-1.129-2.063-2.236-3.132-3.32c-1.585-1.374-2.578-2.139-4.536-2.824
			c-2.077-0.727-4.823,0.834-5.261,2.987c-1.123,5.524-0.188,16.472-8.638,9.572c-2.931-2.393-3.776-5.776-7.411-7.447
			c-3.066-1.41-6.244,0.282-6.496,3.727c-0.365,4.982-4.868,17.352-9.338,7.723c-1.041-2.242-0.718-6.01-0.844-8.336
			c-0.186-3.437-0.262-6.938-0.644-10.385c14.469-1.759,28.375-5.595,40.593-12.403
			C341.237,470.562,349.107,473.737,351.259,478.702z M446.187,319.344c-1.384,7.974-4.016,18.427-13.358,19.672
			c-11.582,1.544-22.196-14.531-25.538-23.837c-8.294-23.092-7.514-48.739-9.244-72.872c-0.842-11.752-1.791-23.649-3.889-35.258
			c-2.179-12.058-6.446-23.701-9.437-35.57c-1.077-4.274-7-2.342-6.422,1.771c2.693,19.17,6.044,37.924,8.363,56.947
			c-3.149,33.305-4.573,66.753-4.835,100.189c-0.159,20.369-2.61,40.89-8.893,60.305c-5.292,16.35-12.079,34.236-23.37,47.495
			c-26.094,30.645-69.115,30.348-105.879,26.675c-40.233-4.019-74.48-21.551-92.691-59.091
			c-20.165-41.57-14.942-88.484-15.125-133.093c0.22-1.158,0.44-2.315,0.661-3.451c2.69-13.798,3.682-27.746,5.596-41.654
			c1.763-12.81,4.006-25.629,2.544-38.574c-0.43-3.807-5.494-3.811-5.929,0c-4.429,38.812-7.599,79.475-22.194,116.022
			c-5.754,14.407-17.801,43.91-38.096,40.322c-22.524-3.982-12.298-42.26-9.653-56.66c7.195-39.162,21.999-77.117,38.892-113.021
			c16.897-35.913,36.111-69.964,59.324-102.143c16.959-23.51,40.453-45.434,67.66-56.868c0.025-0.007,0.049-0.018,0.074-0.026
			c9.572-2.999,18.756-5.34,28.831-6.07c21.781-1.577,42.232,5.358,60.988,16.181c39.686,22.9,59.066,66.762,74.969,107.652
			c7.516,19.326,16.777,38.123,22.984,57.934c6.357,20.291,12.088,40.649,16.619,61.429
			C443.746,274.863,449.957,297.624,446.187,319.344z"/>
	</g>
</g>
<g>
	<g>
		<path d="M362.273,116.457c-2.927-20.452-13.064-43.038-32.79-52.262c-10.459-4.89-22.112-4.16-32.873-0.568
			c-10.574,3.529-16.905,10.376-24.619,17.871C258.63,67.76,239.1,60.045,219.701,63.103c-20.021,3.155-36.954,18.212-47.387,34.898
			c-11.801,18.877-17.801,40.572-12.999,62.622c4.528,20.79,15.618,39.889,31.824,53.708c16.506,14.075,34.105,19.816,55.357,22.48
			c22.528,2.825,46.064,1.959,66.328-9.115c18.584-10.157,31.353-28.762,39.389-47.959
			C360.758,159.325,365.443,138.603,362.273,116.457z M346.194,170.76c-6.242,16.09-15.52,33.037-29.411,43.738
			c-16.915,13.031-36,14.528-56.531,14.46c-18.156-0.059-37.162-3.053-52.644-12.956c-30.405-19.448-50.111-58.385-37.645-93.938
			c7.171-20.45,21.761-40.546,42.655-48.419c10.845-4.086,22.246-3.309,33.072,0.366c7.97,2.705,18.799,14.926,26.531,15.341
			c7.659,0.41,16.477-13.625,24.219-16.648c9.66-3.772,21.481-5.066,30.907,0.14c15.238,8.417,23.071,26.381,25.832,42.77
			C356.364,134.532,353.063,153.053,346.194,170.76z"/>
	</g>
</g>
<g>
	<g>
		<path d="M235.871,121.172c-3.654-3.326-10.015-3.686-12.976,0.783c-2.268,3.423-3.247,8.499-1.349,12.259
			c0.626,2.307,1.975,4.372,4.226,5.398c4.642,2.117,9.22-1.506,11.449-5.425C239.611,129.984,239.617,124.583,235.871,121.172z"/>
	</g>
</g>
<g>
	<g>
		<path d="M311.825,120.871c-3.85-2.715-7.882-1.384-11.009,1.637c-2.043,1.974-3.664,4.566-3.807,7.284
			c-0.723,2.97-0.128,6.155,2.212,8.443c6.041,5.906,14.168-0.855,15.852-7.268C316.067,127.183,315.135,123.207,311.825,120.871z"
			/>
	</g>
</g>
<g>
	<g>
		<path d="M272.029,127.034c-6.169-1.257-11.894,2.89-15.44,7.488c-1.421,1.843-2.969,4.094-4.43,6.545
			c-5.763,6.942-11.038,15.835-6.525,19.798c0.573,10.436,11.166,18.033,20.99,18.534c13.311,0.679,22.863-4.809,25.369-17.237
			c1.106-0.624,2.018-1.476,2.636-2.636C300.046,149.355,281.266,128.916,272.029,127.034z M281.83,167.443
			c-4.197,4.817-10.053,5.434-16.255,4.781c-6.605-0.696-9.802-4.815-13.146-9.283c7.135,0.621,14.056-0.628,21.307-0.138
			c2.612,0.176,6.702,0.868,10.638,0.872C283.626,165.003,282.83,166.295,281.83,167.443z M286.092,153.33
			c-1.102,3.734-4.215,2.907-7.947,2.736c-7.76-0.355-15.835,0.436-23.476-0.35c-1.704-0.176-2.66,0.499-2.938-0.7
			c-0.083-0.357,0.045-0.919,0.272-1.566c3.574-7.032,8.233-16.361,13.999-18.541c6.876-2.6,14.5,6.79,17.836,11.668
			C285.367,148.814,286.937,150.466,286.092,153.33z"/>
	</g>
</g>
<g>
</g>
<g>
</g>
<g>
</g>
<g>
</g>
<g>
</g>
<g>
</g>
<g>
</g>
<g>
</g>
<g>
</g>
<g>
</g>
<g>
</g>
<g>
</g>
<g>
</g>
<g>
</g>
<g>
</g>
</svg>
