<?xml version="1.0" encoding="iso-8859-1"?>
<!-- Generator: Adobe Illustrator 19.0.0, SVG Export Plug-In . SVG Version: 6.00 Build 0)  -->
<svg version="1.1" id="Capa_1" xmlns="http://www.w3.org/2000/svg" xmlns:xlink="http://www.w3.org/1999/xlink" x="0px" y="0px"
	 viewBox="0 0 512 512" style="enable-background:new 0 0 512 512;" xml:space="preserve">
<g>
	<g>
		<path d="M503.221,366.655c-3.64-10.686-9.607-19.859-14.526-29.954c-5.504-11.294-5.541-23.782-11.351-35.107
			c-3.109-6.06-7.026-11.679-7.382-18.747c-0.328-6.509,1.678-13.248,2.574-19.652c1.586-11.33,1.16-22.469-2.316-33.449
			c-3.269-10.329-10.297-17.131-15.551-26.324c-7.643-13.374-7.88-28.424-9.038-43.358c-1.058-13.645-2.393-47.004-24.06-42.335
			c-10.668,2.298-16.859,15.632-21.867,24.127c-7.341,12.451-11.42,26.01-16.91,39.266c-6.024,14.544-12.286,28.981-18.683,43.363
			c-2.991,6.726-7.272,14.134-8.371,21.715c-1.99-3.593-4.25-7.094-5.708-10.939c-2.508-6.613-0.201-9.724,1.942-15.653
			c2.528-6.994,3.487-14.175,2.366-21.533c-2.555-16.773-13.494-29.618-21.568-43.914c-4.764-8.436-3.114-14.159-2.12-23.184
			c0.898-8.155,0.964-16.907-0.63-24.993c-2.817-14.286-11.747-29.525-18.278-42.516c-8.169-16.248-16.558-33.52-30.503-45.626
			c-11.494-9.977-25.97-9.648-39.658-3.743c-23.852,10.29-33.034,34.248-44.151,56.237c-2.362,3.709-4.769,7.389-7.308,10.985
			c-13.202,18.699-26.589,36.76-41.803,53.875c-6.217,6.993-12.634,13.977-18.288,21.436c-4.437,5.854-10.509,12.538-9.019,20.532
			c1.264,6.786,7.219,10.288,13.578,11.282c4.001,0.626,7.535,0.074,11.422-1.113c0.423-0.129,1.03-0.395,1.703-0.703
			c-3.236,3.921-6.398,7.915-9.561,11.89c-3.653,4.591-8.727,10.064-7.868,16.434c0.324,2.407,1.386,4.72,3.115,6.494
			c0.957,0.982,2.314,1.447,3.372,2.28c0.939,0.74,1.552,0.978,1.944,0.984c-0.055,0.237-0.107,0.513-0.149,0.887
			c-0.451,4.041-4.563,9.064-6.519,12.569c-2.019,3.62-4.086,7.105-6.358,10.492c-7.352-20.55-16.933-40.961-25.437-60.922
			c-4.8-11.267-9.244-23.055-15.225-33.773c-3.054-5.473-7.443-14.919-14.752-15.523c-7.22-0.596-10.626,6.619-13.04,12.115
			c-5.54,12.616-10.572,25.469-15.812,38.212c-5.202,12.653-10.759,25.09-15.176,38.05c-3.053,8.958-7.703,18.869-8.491,28.415
			c-0.569,6.88,1.088,13.104,6.669,17.548c2.085,1.66,9.199,3.363,10.282,5.905c1.188,2.791-9.234,15.02-10.87,17.713
			c-4.674,7.696-10.426,17.25-11.009,26.463c-0.318,5.029,1.919,9.569,1.825,14.52c-0.131,6.964-3.844,13.784-5.955,20.262
			c-3.031,9.301-3.381,17.593,0.767,26.538c2.26,4.876,4.298,6.185,1.471,11.85c-0.738,1.479-2.16,2.999-3.12,4.402
			c-3.185,4.652-7.093,10.021-7.725,15.832c-2.033,18.67,29.003,18.37,40.8,19.679c7.448,0.826,14.866,1.381,22.271,1.754
			c-2.623,14.915-5.017,30.962-3.347,45.854c1.606,14.328,11.681,17.716,24.634,18.275c16.489,0.711,27.572,0.833,32.104-17.274
			c3.385-13.524,2.07-32.357-1.611-46.096c4.914,0.002,9.835,0.011,14.773,0.059c8.112,0.079,21.774,1.641,28.792-3.875
			c6.679-5.25,5.286-13.646,3.699-21.22c7.099,0.517,14.196,1.023,21.27,1.578c5.375,0.422,10.767,0.934,16.168,1.484
			c-4.036,19.54-8.57,40.864-4.339,60.221c4.592,21.009,22.824,24.941,42.105,25.087c17.117,0.129,38.882-2.646,47.639-19.442
			c4.466-8.565,5.154-18.75,6.34-28.166c1.336-10.609,1.747-21.054,0.978-31.633c0.469-0.024,0.938-0.034,1.407-0.062
			c6.525-0.383,13.112-0.491,19.673-0.766c-1.608,2.463-2.789,5.129-3.058,8.581c-0.229,2.938,2.24,5.623,4.89,6.423
			c7.237,2.185,13.218,3.346,20.924,3.884c10.695,0.747,20.912,2.413,31.571,4.123c5.136,0.824,10.073,0.688,14.991,0.172
			c-1.662,7.513-2.735,15.3-3.768,22.833c-0.93,6.781-2.273,15.395-0.738,22.075c2.89,12.578,19.724,11.523,30.011,9.772
			c10.3-1.754,28.671-3.7,29.797-16.577c1.148-13.137-0.418-27.415-2.871-40.65c0.856-0.013,1.71-0.011,2.567-0.04
			c20.183-0.703,49.647-2.697,65.885-16.08C519.705,413.008,508.623,382.514,503.221,366.655z M378.594,226.692
			c0.173-2.234,0.318-4.439,0.444-6.638c3.75-7.51,7.183-15.18,10.524-22.877c8.603-19.818,15.523-40.033,27.114-58.396
			c3.38-5.356,7.594-11.564,12.951-5.095c3.644,4.4,3.249,13.455,3.668,18.804c0.83,10.583,0.858,21.257,2.333,31.781
			c1.105,7.878,3.262,15.565,6.752,22.708c-13.589,8-11.284,37.213-12.992,49.52c-0.444,3.202-0.845,6.412-1.372,9.602
			c-0.263,1.785-0.589,3.559-0.978,5.321c0.305,3.68-1.222,4.701-4.582,3.066c-7.11-0.199-7.823-12.967-8.915-18.735
			c-1.555-8.22-2.183-16.816-4.304-24.918c-0.968-3.696-2.532-10.032-7.207-10.601c-6.817-0.83-11.237,11.635-13.327,16.197
			c-2.05,4.474-6.087,22.964-10.577,12.267C375.58,242.633,378.103,233.049,378.594,226.692z M175.225,124.691
			c18.574-24.958,33.669-51.549,46.864-79.552c3.734-4.732,7.864-9.044,12.674-12.613c9.825-7.289,26.041-13.815,36.645-4.85
			c12.213,10.325,18.323,25.003,25.833,38.725c6.063,11.078,11.245,23.064,16.169,34.687c0.645,1.522,1.155,3.039,1.598,4.558
			c-3.046-0.649-6.284,0.383-8.894,3.455c-8.126,9.562-3.919,25.669-6.948,36.977c-1.203,4.493-2.766,8.417-7.521,9.506
			c-5.583,1.279-9.714-3.415-12.73-7.8c-4.249-6.176-3.546-13.488-6.866-19.857c-4.223-8.1-12.371-7.731-18.888-1.993
			c-8.694,7.655-8.798,23.614-9.15,34.191c-0.262,7.879-0.602,15.703-1.12,23.57c-0.275,4.183-0.413,8.423-1.102,12.564
			c-0.278,1.672-0.605,3.349-1.068,4.979c-1.459,5.129-1.117,7.125-6.935,6.592c-16.365-1.503-13.854-37.257-13.16-48.708
			c0.658-10.868,3.655-23.6-7.059-30.537c-10.379-6.721-17.82,7.28-21.521,15.248c-0.782,1.683-3.01,9.88-5.463,11.167
			c-0.514,0.269-6.983-2.215-7.254-2.468c-2.674-2.493-4.174-6.629-4.72-10.037C173.916,138.187,173.988,131.127,175.225,124.691z
			 M40.639,222.568c7.407-20.984,16.767-41.409,25.51-61.86c0.941-2.201,2.885-8.173,3.753-7.945
			c2.701,0.709,7.027,11.873,8.186,14.267c5.37,11.089,10.143,22.649,14.914,34.008c3.353,7.981,7.062,15.84,10.961,23.584
			c-9.154,8.208-5.232,20.036-8.726,31.681c-0.218,6.851-7.893,5.811-12.045,2.593c-3.466-2.686-4.444-7.803-5.251-11.822
			c-1.587-7.911,0.231-18.39-3.607-25.548c-3.654-6.814-10.237-3.513-13.3,1.897c-1.326,2.341-2.121,5.167-3.101,7.64
			c-2.005,6.063-6.739,14.225-14.161,8.435c-4.181-3.261-3.509-10.602-3.716-15.251C40.252,223.689,40.442,223.125,40.639,222.568z
			 M101.747,488.438c-4.008,3.337-12.333,1.449-17.295,1.299c-6.609-0.201-11.072-0.673-13.323-7.715
			c-1.76-5.502-1.145-12.936-0.951-18.609c0.285-8.316,0.5-17.073-0.493-25.458c11.01,0.407,22.753-0.81,33.635,0.6
			c0.661,3.466,0.456,7.116,0.987,10.631c0.919,6.099,1.012,11.933,1.077,18.061C105.444,472.882,106.613,484.386,101.747,488.438z
			 M149.901,424.014c-1.099,1.043-9.497,1.052-10.698,1.128c-10.735,0.68-21.62,0.608-32.381,1.04
			c-20.684,0.828-41.44,0.205-62.026-1.897c-8.246-0.842-21.645-0.178-28.894-4.793c-3.173-2.021-2.469,0.114-1.689-3.909
			c0.477-2.46,2.783-4.933,4.145-6.978c2.131-3.2,4.688-6.204,6.143-9.787c2.777-6.836,0.672-12.259-2.182-18.638
			c-5.208-11.639-0.01-19.719,3.206-31.005c2.34-8.212,1.325-14.09,0.406-22.165c-1.108-9.747,6.884-20.581,12.192-28.217
			c6.833-9.83,17.152-24.108,2.672-32.557c-3.028-1.767-6.701-2.15-8.815-5.105c-2.527-3.532-1.024-7.695,0.053-11.633
			c1.376-5.032,2.926-10.055,4.56-15.046c1.214,7.367,4.59,13.318,12.235,13.875c6.068,0.442,9.869-3.649,12.471-8.693
			c1.485-2.878,2.665-10.99,5.154-13.04c2.92-2.407,2.308-0.662,3.163,1.777c1.242,3.545,1.087,8.274,1.394,11.979
			c0.86,10.384,6.179,36.302,22.958,29.286c6.844-2.861,8.532-12.282,9.38-18.652c0.779-5.851,0.033-12.928,3.093-18.068
			c0.346-0.582,0.677-1.059,0.999-1.501c4.216,8.072,9.342,15.391,14.062,23.028c-11.562,14.602-25.671,28.943-30.851,47.237
			c-1.874,6.618-2.049,13.144,3.869,17.677c2.715,2.08,5.918,2.893,9.302,2.934c0.92,0.01,2.771-0.467,4.714-0.967
			c-2.565,4.738-5.978,9.432-8.2,13.483c-3.675,6.702-6.182,13.778-8.597,21.019c-3.96,11.869-8.833,28.504-1.607,40.12
			c6.743,10.837,22.473,12.714,33.981,14.076c7.838,0.927,15.719,1.633,23.609,2.277
			C148.573,415.715,151.301,422.685,149.901,424.014z M278.981,438.702c-0.43,8.923-0.961,17.742-2.537,26.567
			c-1.358,7.603-3.582,14.577-10.681,18.557c-6.695,3.754-16.902,4.679-24.41,4.881c-8.082,0.217-18.108,0.28-25.383-3.543
			c-8.063-4.236-8.562-13.977-8.841-22.192c-0.52-15.299,1.418-30.372,0.897-45.609c23.515,2.541,47.198,5.495,70.724,5.526
			C278.579,428.127,279.23,433.521,278.981,438.702z M270.478,408.162c-15.581-1.188-31.044-2.059-46.559-3.906
			c-17.721-2.11-35.519-2.992-53.291-4.521c-17.607-1.514-36.011-1.321-53.395-4.725c-8.709-1.705-16.873-4.215-16.799-14.483
			c0.05-6.91,2.509-14.493,4.632-21.03c2.619-8.067,5.856-15.43,9.945-22.842c3.49-6.326,8.773-13.189,10.069-20.379
			c0.598-3.32-0.492-5.799-3.156-7.755c-4.668-3.428-15.561,2.019-18.243-1.318c-1.873-2.331,5.618-13.694,6.778-15.514
			c1.997-3.134,4.298-6.102,6.459-9.127c10.754-15.063,22.834-28.274,30.94-45.116c2.475-5.144,6.35-11.946,4.076-17.715
			c-1.431-3.63-8.166-5.408-8.168-8.462c-0.002-2.697,5.998-8.466,7.413-10.435c2.583-3.595,5.051-7.252,7.581-10.882
			c2.174-3.118,5.748-6.787,5.181-10.956c-1.844-13.548-23.257,3.675-26.562-5.244c-2.082-5.619,12.131-18.2,15.89-22.581
			c5.074-5.915,10.316-11.685,15.232-17.731c-0.38,3.639-0.458,7.015-0.298,9.529c0.516,8.099,6.099,18.672,14.791,20.225
			c13.217,2.362,13.28-16.382,19.833-23.141c12.643-13.042,10.761,11.609,10.198,19.07c-0.703,9.321-1.286,18.552,0.134,27.836
			c1.748,11.43,5.502,25.436,16.978,30.829c10.685,5.021,16.041-5.479,18.379-14.399c4.121-15.722,2.623-32.805,3.282-48.878
			c0.187-4.562,0.34-9.443,1.675-13.841c0.806-2.657,3.214-9.721,5.974-10.923c2.265-0.987,7.233,3.913,7.936,5.257
			c1.408,2.69,1.054,6.929,2.149,9.833c1.351,3.585,3.453,7.066,5.836,10.053c6.53,8.183,17.355,12.965,25.519,4.357
			c4.472-4.715,5.906-10.671,6.816-16.924c0.596-4.092,1.17-8.174,1.373-12.304c0.093-1.886,1.832-20.946,6.594-15.534
			c0.327,0.371,0.697,0.633,1.087,0.807c0.238,2.785,0.302,5.618,0.287,8.539c-0.038,7.179-2.456,14.324-2.064,21.467
			c0.602,10.961,8.739,20.529,14.173,29.532c4.067,6.738,8.129,14.046,10.026,21.731c2.601,10.536-1.349,17.361-4.035,27.114
			c-3.141,11.403,4.358,21.581,9.29,31.245c1.972,3.865,5.851,9.049,3.845,13.704c-0.751,1.744-4.152,3.643-5.423,5.347
			c-2.944,3.949-3.529,8.005-2.149,12.756c3.469,11.934,12.569,21.648,18.349,32.438c4.006,7.479,9.776,20.508-0.699,25.849
			c-4.648,2.37-9.106,2.005-10.547,8.464c-0.87,3.902,1.16,7.464,2.713,10.866c3.109,6.811,5.055,13.653,5.897,21.12
			c2.218,19.677-26.591,20.204-40.322,20.995C300.917,407.337,285.669,409.321,270.478,408.162z M424.866,481.646
			c-1.406,0.323-3.669,1.194-4.099,1.324c-2.946,0.896-5.872,1.852-8.846,2.653c-5.37,1.447-13.461,3.849-18.82,1.007
			c-4.332-2.297-2.964-8.12-2.991-13.377c-0.051-10.31,0.443-19.337-1.58-29.097c2.88-0.424,5.775-0.895,8.727-1.312
			c8.561-1.21,17.097-0.907,25.668-0.643c0.319,8.753,1.938,17.466,2.05,26.264c0.036,2.825-0.03,5.651,0.005,8.476
			C424.99,477.707,424.677,480.336,424.866,481.646z M497.414,411.444c-2.931,8.908-16.913,10.813-24.802,12.615
			c-11.152,2.548-23.415,4.227-34.844,4.671c-11.867,0.462-23.764-1.264-35.516,0.021c-10.604,1.159-21.191,4.293-31.889,2.755
			c-10.181-1.464-19.908-4.062-30.218-4.51c-5.289-0.23-9.949-0.684-14.729-1.594c0.725-1.414,1.504-2.785,1.957-3.793
			c0.136-0.302,0.235-0.612,0.311-0.922c6.73-0.784,13.366-2.1,19.811-4.446c13.369-4.867,23.957-10.033,24.204-25.976
			c0.105-6.807-1.526-14.182-3.452-20.684c-0.839-2.832-2.067-7.145-3.878-9.517c0.035,0.046-0.863-1.004-1.684-1.833
			c0.551-0.113,1.094-0.263,1.617-0.492c12.133-4.25,15.29-18.898,12.859-30.33c-1.517-7.135-5.198-13.693-8.951-19.868
			c-2.154-3.544-4.508-6.95-6.749-10.437c-1.899-2.953-7.973-10.262-7.693-13.977c0.253-3.347,4.86-4.971,6.602-7.407
			c1.361-1.904,2.157-4.24,2.461-6.554c0.434-3.298-0.138-6.694-1.186-10.009c2.703-6.73,5.398-13.329,8.699-19.833
			c0.581-1.145,1.153-2.309,1.709-3.483c-1.224,13.311,0.034,25.765,9.066,25.125c6.43-0.456,9.364-9.984,11.335-14.843
			c2.177-5.365,3.896-11.836,7.735-16.235c2.192-2.513,1.206-2.201,2.301,1.755c0.547,1.975,0.876,4.028,1.209,6.046
			c1.731,10.498,3.309,54.485,22.677,48.312c9.523-3.035,9.607-21.048,10.622-28.471c1.134-8.29,1.796-16.608,2.516-24.94
			c0.334-3.855-0.018-8.924,1.379-12.617c0.966-2.553,3-4.523,5.391-6.09c4.73,7.429,10.075,13.688,12.361,22.838
			c4.881,19.536-6.578,39.41,0.47,58.21c3.312,8.834,9.286,16.28,11.113,25.684c1.9,9.78,3.714,17.295,8.481,26.181
			c4.955,9.236,9.736,18.097,12.902,28.129C494.719,384.771,500.748,401.315,497.414,411.444z"/>
	</g>
</g>
<g>
</g>
<g>
</g>
<g>
</g>
<g>
</g>
<g>
</g>
<g>
</g>
<g>
</g>
<g>
</g>
<g>
</g>
<g>
</g>
<g>
</g>
<g>
</g>
<g>
</g>
<g>
</g>
<g>
</g>
</svg>
