<?xml version="1.0" encoding="iso-8859-1"?>
<!-- Generator: Adobe Illustrator 19.0.0, SVG Export Plug-In . SVG Version: 6.00 Build 0)  -->
<svg version="1.1" id="Capa_1" xmlns="http://www.w3.org/2000/svg" xmlns:xlink="http://www.w3.org/1999/xlink" x="0px" y="0px"
	 viewBox="0 0 512 512" style="enable-background:new 0 0 512 512;" xml:space="preserve">
<g>
	<g>
		<path d="M506.174,329.785c-5.741-3.706-16.382-0.361-22.444,0.457c-2.043,0.276-3.994,0.508-5.898,0.748
			c4.305-11.089-16.213-17.487-23.918-18.007c-4.217-0.285-8.495,0.858-12.647,0.52c-4.949-0.404-8.542-4.261-13.027-5.979
			c-3.765-1.442-7.647-2.041-11.667-1.788c-2.923,0.184-8.601,2.729-12.243,3.12c-4.042-11.729-12.679-19.467-26.077-19.536
			c-9.304-0.048-21.39,3.156-28.702,9.992c-6.501-14.278-12.825-28.648-19.294-42.887c-6.027-13.266-13.112-26.467-20.47-39.046
			c-7.383-12.622-13.521-25.77-20.482-38.613c-7.051-13.01-13.18-26.083-17.557-40.3c-2.179-7.077-5.689-16.749-3.92-24.1
			c1.52-6.319,6.999-11.336,8.125-17.838c0.691-3.991-0.389-8.527-3.075-11.604c-3.964-4.543-5.287-1.22-2.405-7.152
			c1.954-4.024,3.407-8.306,0.879-12.39c-1.82-2.94-4.272-3.819-6.991-4.279c3.252-2.699,7.999-6.64,9.058-7.975
			c2.561-3.227,4.984-7.043,3.431-11.199c-4.206-11.254-23.215-6.201-31.46-4.131c-15.041,3.778-29.148,11.175-42.621,18.734
			c0.05-0.115,0.086-0.235,0.136-0.35c-9.338,3.001-18.485,8.78-26.447,15.144c-7.582,1.098-15.272,2.987-22.7,4.445
			c-8.726,1.712-18.257,0.875-26.727,2.958c-2.076,0.51-3.213,3.699-1.361,5.157c5.129,4.039,12.699,6.521,18.948,8.148
			c2.695,0.702,5.435,1.81,8.207,2.647c-20.895,23.802-37.956,50.074-47.534,80.761c-10.997,35.235-11.27,73.475-0.398,108.849
			c4.352,14.16,11.337,26.7,20.432,37.327c-5.11-0.427-10.398,0.552-15.259,2.676c-9.963,4.353-14.457,9.721-16.243,19.103
			c-2.869,0.149-7.644-1.088-9.354-1.013c-4.382,0.193-8.766,1.301-12.897,2.733c-6.059,2.1-9.846,4.642-12.617,9.369
			c-10.024-1.873-18.611-3.151-28.969,0.602c-6.288,2.279-15.778,6.984-15.224,15.039c0.314,4.57,2.766,7.408,6.521,9.064
			c-5.922,1.77-13.181,3.401-17.184,8.537c-7.491,9.609-4.498,28.294,7.203,33.206c15.121,6.348,37.921-1.219,52.739-5.391
			c19.42-5.469,38.795-9.9,58.491-14.21c8.279-1.812,16.642-3.148,24.955-4.766c5.379-1.047,10.535-2.423,15.989-3.093
			c2.22-0.273,4.49-0.368,6.691-0.773c3.234-0.595,8.6-4.366,3.531,1.59c-7.404,8.699-30.43,17.788-29.388,31.846
			c0.877,11.839,17.269,17.272,26.983,15.604c17.216-2.956,23.014-22.078,31.339-34.865c11.661-17.911,33.509-19.371,52.818-21.843
			c19.877-2.545,40.255-3.185,59.99-5.823c0.213,0.789,0.423,1.579,0.629,2.371c3.982,15.395,7.229,30.977,11.193,46.381
			c2.734,10.625,5.987,23.51,18.189,26.442c3.072,0.738,5.866-0.146,8.849,0.244c4.222,0.552,5.791,3.713,7.955,6.89
			c3.326,4.883,5.885,9.659,11.229,12.662c8.186,4.6,20.983,4.083,27.612-3.57c7.673-8.859,7.273-24.204,5.957-35.025
			c-0.624-5.133-1.714-9.929-3.138-14.597c0.111-0.537,0.079-1.149-0.174-1.843c-6.109-16.745-12.804-32.926-20.091-48.908
			c17.115-1.349,34.532-1.176,51.666-1.208c20.96-0.039,44.704,1.823,64.421-6.879C510.002,357.641,517.866,337.334,506.174,329.785
			z M378.254,297.763c7.808,0.301,14.139,4.155,16.806,11.611c0.997,2.789,0.96,5.799,3.487,7.667
			c2.661,1.966,4.829,1.21,7.613,0.505c7.525-1.905,13.579-4.666,21.146-0.826c3.62,1.837,6.228,4.468,10.304,5.271
			c3.724,0.733,7.502-0.169,11.229-0.319c4.643-0.186,11.366-0.225,15.313,2.596c1.502,1.074,4.005,3.376,2.204,5.671
			c-0.887,1.13-6.542,1.11-8.037,1.303c-12.173,1.576-24.394,2.074-36.66,2.19c-11.75,0.111-23.502-0.063-35.253-0.071
			c-6.663-0.005-13.708-0.543-20.21,0.915c-4.804-9.543-9.405-19.209-13.886-28.942
			C358.968,299.942,370.337,297.458,378.254,297.763z M137.041,83.205c6.529-0.778,13.282-1.024,19.656-2.606
			c3.695-0.918,7.898-1.552,11.967-2.547c-2.501,2.321-4.816,4.622-6.878,6.802c-1.271,1.343-2.521,2.699-3.769,4.058
			C151.309,87.061,143.663,85.824,137.041,83.205z M180.241,78.486c1.655-1.342,3.303-2.705,4.966-4.046
			c1.745-1.07,3.515-2.11,5.295-3.138c12.55-2.38,31.432-4.28,36.556,6.63c5.689,12.111-17.701,10.923-19.356,19.855
			c-0.879,4.745,3.686,8.502,4.026,13.146c0.876,11.948-12.415,17.689-21.968,19.789c-18.049,3.969-32.025-6.022-39.047-21.985
			C159.826,97.826,169.167,87.463,180.241,78.486z M29.419,362.821c10.745-4.621,19.911-1.664,30.692,0.362
			c1.692,0.318,3.904-0.176,4.719-1.92c3.031-6.492,10.192-8.207,16.994-9.178c5.483-0.783,12.977,2.583,17.852-0.536
			c1.669-1.068,2.319-2.109,2.907-3.919c1.563-4.807,0.475-7.718,4.964-11.638c6.483-5.662,17.558-8.858,26.059-5.769
			c10.64,9.854,23.395,17.56,37.744,22.734c5.401,1.948,10.985,3.522,16.66,4.831c-4.063,0.525-8.097,1.248-12.071,2.246
			c-9.953,2.497-19.831,2.8-29.953,4.247c-10.336,1.477-20.56,5.552-30.922,6.058c-9.952,0.487-19.933-1.873-29.799-2.839
			c-10.194-0.999-20.196,1.449-30.095,3.579c-5.671,1.221-11.439,2.502-17.243,2.882c-2.739,0.179-6.172,0.448-8.863-0.336
			C22.874,371.822,24.193,365.069,29.419,362.821z M224.895,381.969c-12.995,3.537-22.468,10.993-29.959,22.042
			c-4.244,6.259-7.882,13.008-12.293,19.137c-3.519,4.89-8.615,9.86-15.021,10.178c-4.103,0.204-12.729-2.052-13.701-6.647
			c-1.435-6.782,12.594-13.998,16.983-17.363c4.88-3.742,10.435-7.837,13.455-13.364c6.015-11.008-7.194-13.717-15.435-12.883
			c-15.442,1.564-30.63,4.938-45.836,8.007c-16.9,3.411-33.776,6.91-50.363,11.654c-9.681,2.769-19.307,5.684-29.188,7.675
			c-8.496,1.712-28.297,7.464-33.761-2.294c-3.611-6.449-2.288-14.671,3.455-19.484c3.139-2.631,9.772-3.971,13.71-5.287
			c2.408-0.805,5.608-1.433,8.759-2.258c16.007-0.668,36.365-6.947,42.773-7.026c13.711-0.169,27.021,5.308,40.792,4.025
			c5.742-0.535,11.105-2.724,16.726-3.865c7.769-1.576,15.721-2.196,23.613-2.691c14.041-0.882,27.322-5.203,41.473-5.895
			c9.544-0.467,19.438-0.276,28.67-2.92c0.974,0.023,1.956,0.069,2.926,0.081c17.729,0.236,36.762-1.77,52.449-10.733
			c0.294-0.055,0.601-0.107,0.86-0.168c4.729-1.121,9.491-2.133,14.351-2.487c3.132,3.439,6.046,8.272,7.565,10.772
			c1.942,3.196,3.453,6.549,4.721,9.996C283.6,374.586,253.398,374.211,224.895,381.969z M383.775,395.891
			c3.84,10.538,8.492,20.555,10.885,31.559c1.601,7.36,4.844,24.703-0.033,33.517c-0.774-3.503-1.779-6.968-2.625-10.273
			c-2.359-9.217-5.251-18.774-8.849-27.585c-6.99-17.119-16.172-33.297-26.039-48.867c-0.325-0.513-1.294-0.182-1.036,0.437
			c6.754,16.207,13.633,32.343,20.009,48.705c5.411,13.888,7.626,28.623,11.6,42.815c-12.084,3.2-14.65-11.502-21.651-18.302
			c-0.774-2.725-1.657-5.438-2.48-8.171c-2.449-8.135-5.224-16.17-7.98-24.204c-2.92-8.512-5.151-17.283-8.56-25.625
			c-2.516-6.158-6.393-11.558-9.034-17.556c-0.716-1.625-3.419-0.469-2.869,1.209c1.965,5.993,4.91,11.651,6.763,17.764
			c2.611,8.61,4.596,17.388,7.211,25.997c2.721,8.959,5.311,17.932,8.107,26.842c-2.307-0.159-4.612-0.016-7.134-0.476
			c-8.697-1.584-10.532-11.409-12.672-18.503c-3.96-13.129-7.527-26.362-11.258-39.555c-3.023-10.685-6.051-21.305-12.834-30.271
			c-1.37-1.811-3.13-3.877-5.129-5.809c10.418,1.272,19.787,6.521,29.255,10.997c2.204,1.042,4.092-1.438,2.554-3.31
			c-13.226-16.1-40.348-22.154-59.41-12.61c-12.478,3.107-24.483,7.465-37.71,7.354c-16.57-0.139-32.95-1.293-49.167-4.883
			c-30.982-6.86-58.088-22.935-72.465-52.154c-14.401-29.269-17.302-65.318-12.208-97.058c5.067-31.567,18.38-60.154,38.323-85.009
			c4.258,16.145,22.643,25.858,38.523,23.965c8.402-1.001,17.707-4.061,24.341-9.537c8.12-6.703,7.427-13.676,4.946-22.976
			c-1.977-7.411-0.577-7.638,6.147-10.196c2.919-1.11,5.909-1.879,8.33-4.021c4.921-4.353,4.386-11.882,0.373-16.706
			c-5.642-6.782-17.315-9.219-28.162-8.255c11.094-5.693,22.59-10.662,34.012-14.931c5.846-2.185,11.917-3.929,18.076-4.963
			c3.756-0.631,15.334-3.402,12.726,2.661c-2.603,6.053-14.299,9.168-12.716,16.867c0.354,1.719,2.012,2.548,3.574,2.721
			c2.628,0.291,6.572,3.876,6.726,6.632c0.082,1.457-2.576,3.83-3.176,5.192c-1.236,2.805-1.443,4.71,0.476,7.233
			c0.711,0.934,2.12,1.052,2.967,1.734c4.929,3.968,3.66,7.648,1.184,13.023c-2.192,4.758-5.341,8.765-5.969,14.114
			c-1.379,11.752,3.97,25.225,7.88,36.029c4.379,12.098,9.71,23.07,15.364,34.575c11.967,24.352,25.471,48.032,36.945,72.614
			c12.017,25.747,24.176,51.546,35.679,77.503c6.126,13.824,14.161,26.867,20.773,40.484c1.151,2.37,2.28,4.749,3.395,7.134
			C381.073,387.812,382.319,391.895,383.775,395.891z M501.516,349.235c-2.6,4.649-7.211,6.317-12.157,7.412
			c-8.021,1.776-16.598,2.404-24.77,2.665c-28.353,0.905-56.766-0.398-85.013,2.155c-2.957-6.27-6.008-12.519-9.152-18.769
			c17.679-0.341,35.357-0.237,53.063-0.486c11.047-0.155,22.093-0.59,33.06-1.977c3.078-0.389,6.886-0.613,10.469-1.408
			c3.156,0.279,6.319,0.394,9.552,0.21c6.208-0.353,16.008-3.76,21.935-2.226c2.289-0.686,3.477,0.277,3.565,2.887
			C504.06,342.72,503.876,345.899,501.516,349.235z"/>
	</g>
</g>
<g>
	<g>
		<path d="M321.599,285.141c-6.205-16.061-16.478-29.519-25.747-43.878c-4.384-6.792-9.358-13.18-13.707-19.994
			c-4.353-6.82-7.3-14.29-12.054-20.897c-1.93-2.682-7.304-1.168-5.844,2.464c5.123,12.743,10.384,23.946,17.99,35.454
			c8.215,12.43,17.427,25.215,24.397,38.372c5.739,10.835,20.522,39.4-0.111,43.225c-5.872,1.089-10.001-0.91-14.306-3.482
			c-5.979-7.332-12.483-14.01-17.745-22.044c-7.96-12.152-17.1-23.548-24.2-36.282c5.657-0.103,11.294-1.85,11.182-7.092
			c0.125,0.056,0.248,0.116,0.373,0.169c4.884,2.083,11.35,1.947,13.674-3.601c0.532-1.269-0.978-2.418-2.118-2.118
			c-3.253,0.855-6.386,1.419-9.658,0.246c-1.529-0.548-3.019-1.263-3.726-2.771c-0.725-1.546-1.054-3.845-1.45-5.516
			c-0.398-1.678-2.926-1.272-2.955,0.4c-0.048,2.753-0.752,5.914,0.469,8.51c0.56,1.191,1.401,2.144,2.394,2.927
			c-4.485,4.301-13.288,2.654-18.016,0.139c-4.301-2.288-6.297-5.359-7.457-9.593c1.01,0.125,2.026,0.102,3.007-0.149
			c3.231-0.824,4.893-3.997,7.672-5.6c0.915-0.528,0.468-1.857-0.517-1.909c-3.703-0.198-6.766,2.446-10.476,1.34
			c-3.843-1.145-5.19-4.441-5.647-7.965c3.634,0.418,7.579-0.924,9.916-3.674c0.037-0.043,0.057-0.096,0.088-0.142
			c0.077,0.049,0.141,0.103,0.222,0.151c1.668,0.995,3.86,1.799,5.816,1.83c2.757,0.044,5.01-1.469,7.363-2.685
			c1.151-0.595,0.892-2.501-0.365-2.789c-3.216-0.737-6.24,0.888-9.445-0.079c-3.503-1.057-3.031-4.689-3.14-7.751
			c-0.061-1.699-2.486-1.667-2.616,0c-0.224,2.87-1.096,6.039-0.13,8.581c-2.669,0.331-5.565,1.288-8.159,0.605
			c-3.712-0.978-4.016-5.543-5.318-8.51c-0.147-0.335-0.714-0.321-0.866,0c-2.268,4.798-2.222,10.559,3.008,13.364
			c0.071,0.038,0.15,0.057,0.222,0.093c-0.479,2.023-0.803,3.844-0.383,6.237c0.526,2.999,1.763,5.499,4.435,7.105
			c0.701,0.421,1.463,0.802,2.255,1.123c-1.421,3.001-1.241,5.888-0.07,8.474c-4.359,0.028-8.61,2.714-13.062,0.223
			c-4.372-2.447-7.239-9.777-7.294-14.507c-0.001-0.121-0.044-0.208-0.062-0.315c1.876-0.132,3.78-0.674,5.772-1.537
			c2.955-1.279,0.739-5.514-2.083-4.941c-3.462,0.702-6.97,1.152-9.945-1.248c-1.943-1.568-1.92-4.325-3.496-6.169
			c-1.236-1.446-3.669,0.439-2.637,2.034c0.958,1.48,0.683,3.758,1.307,5.422c0.704,1.876,2.101,3.33,3.751,4.424
			c1.401,0.929,2.778,1.484,4.155,1.786c-0.071,0.167-0.14,0.337-0.162,0.542c-0.746,6.983,0.495,15.115,6.518,19.652
			c1.922,1.448,4.405,2.242,6.904,2.58c1.585,10.942,5.728,21.463,10.629,31.279c1.367,2.737,2.841,5.535,4.477,8.248
			c-12.864-2.026-24.458-4.659-34.619-14.338c-23.365-22.255-15.39-72.402,7.085-92.774c2.224-2.016-0.989-5.039-3.237-3.237
			c-20.857,16.718-28.595,49.674-24.441,74.999c4.201,25.608,25.798,43.067,51.104,46.039c9.529,1.119,13.313,2.428,20.405,8.792
			c3.941,3.536,8.543,5.745,13.659,7.02c2.895,0.722,5.779,1.218,8.77,0.834c3.103-0.398,5.922-2.244,9.143-1.203
			c5.646,1.825,9.425,6.564,15.646,7.857c9.55,1.984,20.395-0.888,26.065-9.264C331.201,309.296,325.626,295.569,321.599,285.141z
			 M273.725,312.085c-12.169,0.847-18.324-9.74-27.952-14.44c-3.8-4.897-7.168-10.121-10.473-15.54
			c-5.116-8.39-10.333-17.189-13.656-26.544c0.531,0.019,1.057,0.024,1.57,0.005c3.878-0.139,6.351-2.118,9.128-4.453
			c2.255,2.458,5.353,4.428,8.525,5.625c1.712,0.646,4.45,1.171,7.378,1.309c-0.06,0.223-0.059,0.47,0.063,0.729
			c6.857,14.573,14.442,28.779,22.655,42.611c2.264,3.812,4.555,7.257,7.15,10.283C276.771,311.793,275.352,311.972,273.725,312.085
			z"/>
	</g>
</g>
<g>
	<g>
		<path d="M189.344,82.092c-3.76,2.099-4.511,8.794-0.177,10.624c0.455,0.192,0.926,0.29,1.396,0.331
			c2.867,0.71,6.171-1.316,7.093-4.201C199.149,84.177,193.624,79.704,189.344,82.092z"/>
	</g>
</g>
<g>
</g>
<g>
</g>
<g>
</g>
<g>
</g>
<g>
</g>
<g>
</g>
<g>
</g>
<g>
</g>
<g>
</g>
<g>
</g>
<g>
</g>
<g>
</g>
<g>
</g>
<g>
</g>
<g>
</g>
</svg>
