<?xml version="1.0" encoding="iso-8859-1"?>
<!-- Generator: Adobe Illustrator 19.0.0, SVG Export Plug-In . SVG Version: 6.00 Build 0)  -->
<svg version="1.1" id="Capa_1" xmlns="http://www.w3.org/2000/svg" xmlns:xlink="http://www.w3.org/1999/xlink" x="0px" y="0px"
	 viewBox="0 0 511.998 511.998" style="enable-background:new 0 0 511.998 511.998;" xml:space="preserve">
<g>
	<g>
		<path d="M511.781,290.942c-0.804-14.982-4.086-29.534-6.417-44.283c-1.118-7.076-2.749-13.916-5.143-20.678
			c-1.501-4.238-3.721-8.27-5.603-12.386c0.444-0.263,0.888-0.529,1.324-0.828c13.602-9.318,5.556-30.604,0.28-42.619
			c-3.816-8.693-7.727-18.412-13.324-26.134c-1.684-2.324-3.584-4.366-5.931-6.015c-1.472-1.035-8.094-2.981-8.895-4.277
			c-1.072-1.734,0.721-9.434,0.294-11.991c-0.596-3.575-1.982-6.93-3.77-10.057c-4.118-7.206-10.152-14.122-18.249-16.769
			c-7.074-2.314-13.369-1.219-20.186-0.542c-5.444-16.496-12.971-30.361-25.857-42.632c-13.945-13.279-32.239-21.149-49.706-28.639
			c-37.738-16.183-85-19.392-125.082-11.668c-44.46,8.567-80.731,31.607-112.419,63.281C99.604,88.191,87.106,104.06,76.794,120.13
			c-8.348,13.008-18.781,26.782-23.05,41.964c-9.361-6.418-21.192-8.926-32.115-4.185c-8.238,3.575-15.293,12.202-11.89,21.634
			c0.95,2.633,1.309,4.244,1.99,3.927c-1.483,1.65-3.685,3.308-4.922,4.923c-3.659,4.777-6.479,10.159-6.779,16.278
			c-0.281,5.733,1.531,11.007,5.83,14.935c4.924,4.497,10.49,3.133,15.593,6.075c2.389-1.24,3.263-0.765,2.621,1.422
			c-0.089,1.813-0.028,3.622,0.184,5.429c0.292,2.281,0.801,4.636,1.803,6.72c1.992,4.145,5.427,7.433,9.726,9.103
			c11.572,4.494,23.544-4.55,28.587-14.578c0.444-0.885,0.715-1.496,0.881-1.925c0.073,0.212,0.265,0.385,0.697,0.392
			c3.061,0.051,5.77,0.632,8.896-0.116c5.783-1.384,11.77-4.492,15.456-9.191c7.721-9.839,6.379-21.876,2.877-32.931
			c4.727-1.803,9.299-4.107,13.604-6.246c6.865-3.412,16.687-9.766,25.377-9.187c0.059,0.299,0.075,0.616,0.145,0.911
			c-0.556,0.471-1.107,0.952-1.628,1.499c-6.211,6.521-10.024,14.753-13.454,22.963c-5.959,14.263-12.579,35.686-1.661,49.301
			c2.884,3.596,6.206,6.021,9.791,7.609c-12.471,46.497-5.502,99.236,14.957,142.716c10.998,23.373,24.734,43.372,44.702,60.082
			c18.76,15.7,40.572,26.551,63.771,33.862c46.416,14.627,103.521,16.131,148.571-3.88c48.664-21.618,84.222-66.035,100.904-115.649
			C507.007,347.963,513.261,318.524,511.781,290.942z M385.016,57.631c0.589,0.017,1.175,0.052,1.756,0.094
			c7.956,6.294,15.133,13.48,21.166,21.711c1.562,2.13,2.9,4.355,4.188,6.596c-1.419-1.066-2.863-2.088-4.245-3.048
			c-15.457-10.733-31.535-8.691-47.144,0.469c-5.545,3.253-4.178,3.077-8.815,0.876c-3.917-1.86-7.186-4.384-11.46-5.639
			c-8.821-2.59-18.781-2.135-27.459,0.836c-4.523,1.549-8.559,3.942-12.411,6.732c-5.213,3.775-7.531,5.786-13.854,5.386
			c-9.381-0.595-17.351-2.484-26.669,0.74c-8.026,2.776-12.392,7.982-17.662,14.188c-4.41,5.194-6.091,4.252-12.45,5.202
			c-4.355,0.652-8.553,1.814-12.563,3.656c-7.785,3.575-11.826,11.597-18.805,15.085c-7.387,3.692-17.544,2.048-25.607,5.351
			c-6.327,2.592-12.377,6.92-16.518,12.416c-3.963,5.262-4.226,14.072-8.505,17.614c-0.704,0.583-1.442,1.107-2.199,1.601
			c0.917-5.714,1.168-11.655,2.443-17.225c1.647-7.193,4.425-14.081,7.816-20.664c12.061-8.279,23.175-18.04,35.903-25.636
			c20.478-12.22,41.717-20.947,64.118-28.883c19.923-7.058,41.659-12.385,62.606-15.292c11.773-1.634,23.285-3.206,35.18-3.239
			c8.217-0.023,16.841,1.372,25.038,0.833C380.992,57.686,383.303,57.584,385.016,57.631z M376.258,50.168
			c-19.065-2.99-38.817-0.425-57.765,2.224c-23.091,3.23-46.498,9.1-68.328,17.232c-22.736,8.47-44.213,18.061-64.724,31.206
			c-7.476,4.791-14.723,9.798-21.547,15.441c0.408-0.617,0.809-1.244,1.223-1.856c7.553-11.138,16.641-20.522,26.452-29.666
			c4.56-4.25,9.961-8.377,14.798-12.802c10.552-6.799,21.358-12.701,32.519-18.537c14.171-7.41,30.511-13.781,45.929-18.201
			c12.88-3.693,25.867-5.066,38.874-6.826C341.676,32.873,360.519,40.188,376.258,50.168z M239.468,23.225
			c19.32-2.483,39.079-2.264,58.333,0.284c-19.806,4.032-39.464,12.05-56.221,19.872c-13.073,6.102-26.126,13.193-37.818,21.639
			c-1.371,0.991-2.697,2.016-4.012,3.052c-6.025,3.812-11.858,8.415-17.371,13.432c4.003-5.849,7.976-11.725,12.146-17.447
			C207.042,46.885,222.519,34.843,239.468,23.225z M172.324,45.434c0.84-0.488,1.656-1.004,2.506-1.48
			c14.536-8.156,30.23-13.887,46.466-17.537c-0.87,0.705-1.719,1.393-2.536,2.04c-8.393,6.643-15.92,14.745-22.792,22.924
			c-12.635,15.037-23.066,32.176-32.112,49.733c-2.385,2.901-4.637,5.796-6.731,8.629c-1.281,1.735-2.553,3.499-3.815,5.277
			c0.383-3.394,0.691-6.444,0.718-7.156c0.381-10.053,1.419-20.572,3.695-30.387c2.112-9.112,5.42-17.887,10.323-25.881
			C169.406,49.377,171.023,47.468,172.324,45.434z M71.655,220.553c-4.32,0.585-7.932-2.342-12.176-0.443
			c-5.344,2.391-6.576,10.796-11.715,13.339c-12.509,6.189-9.123-9.911-13.369-15.352c-3.359-4.303-8.418-3.89-13.274-5.193
			c-18.896-5.072,0.776-18.592,3.722-25.728c1.71-4.144-0.892-5.679-1.314-9.273c-1.948-16.562,18.069-11.996,28.868-9.655
			c-2.507,16.819,9.795,25.224,25.947,24.984c0.702-0.011,1.4-0.097,2.099-0.154C83.562,203.011,86.062,218.603,71.655,220.553z
			 M97.198,174.251c-9.985,4.727-31.91,13.594-30.392-6.267c0.58-7.581,6.115-15.652,10.721-22.477
			c1.499,5.775,4.726,11.339,8.281,15.373c3.675,4.169,9.416,8.795,15.543,11.32C99.915,172.927,98.523,173.623,97.198,174.251z
			 M107.995,168.869c-6.602-3.221-13.105-7.836-17.216-13.206c-5.237-6.84-5.173-13.721-6.065-21.141
			c7.066-10.77,14.508-21.257,22.508-31.229c0.229,9.526,3.264,20.046,5.413,25.717c2.731,7.207,8.465,27.151,17.461,33.153
			C122.731,162.262,115.023,165.447,107.995,168.869z M122,131.886c-3.23-7.816-5.519-15.398-6.292-23.875
			c-0.595-6.511,1.063-11.579,2.219-17.355c11.958-13.357,25.111-25.546,39.917-35.951c-3.92,7.763-6.596,16.126-8.221,24.669
			c-2.361,12.409-5.05,29.974-1.436,43.17c-4.566,7.064-8.625,14.48-11.421,22.325c-1.231,3.454-2.481,7.416-3.455,11.517
			C129.167,148.415,125.442,140.214,122,131.886z M133.363,191.638c4.568-8.096,10.092-13.01,18.873-15.923
			c4.259-1.413,7.258-2.073,9.15-6.51c1.341-3.146,0.936-6.407,2.789-9.605c2.031-3.504,5.405-6.561,8.755-8.793
			c8.335-5.553,17.193-4.635,26.511-5.808c6.32-0.795,8.505-3.632,12.447-8.424c7.29-8.86,15.35-10.672,26.362-11.027
			c5.585-0.18,9.447-0.802,13.112-5.272c7.528-9.183,12.409-15.639,25.519-14.815c7.846,0.494,14.504,4.445,22.047,0.707
			c8.984-4.451,14.125-12.428,24.789-14.386c10.441-1.917,16.389,2.719,25.123,6.861c5.732,2.719,9.806,1.73,15.199-1.213
			c8.273-4.515,15.389-9.756,25.33-8.117c10.348,1.707,14.768,8.93,21.459,15.521c3.488,3.434,7.36,3.865,12.15,3.367
			c10.747-1.121,19.822-3.57,27.442,6.362c6.36,8.289,2.069,14.841,4.408,23.45c1.739,6.399,6.727,6.859,11.705,9.799
			c9.613,5.676,29.649,46.604,18.585,53.801c-1.361,0.085-2.71,0.523-3.862,1.284c-1.894,0.282-3.999,0.292-6.136,0.149
			c-16.231-4.8-33.043-5.615-49.967-6.206c-20.869-0.728-41.779-0.646-62.648,0.094c-38.805,1.378-78.577,6.851-116.289,16.048
			c-17.015,4.15-33.695,8.974-50.327,14.427c-17.264,5.66-36.149,14.841-54.373,16.625
			C113.348,246.789,125.42,205.713,133.363,191.638z M491.247,344.931c-5.609,23.679-13.416,46.77-26.447,67.489
			c-13.319,21.175-32.934,39.165-53.679,52.923c-41.102,27.257-94.766,29.081-141.902,19.246
			c-44.861-9.36-86.338-35.319-109.236-75.602c-26.659-46.9-30.501-98.001-29.949-150.572c10.706,2.539,23.076-0.936,33.684-4.491
			c30.093-10.084,60.16-20.38,90.91-28.32c42.981-11.098,88.116-16.308,132.389-17.977c17.545,0.587,35.117,3.233,52.284,6.173
			c8.991,1.54,18.076,2.374,27.172,2.948c4.617,0.292,9.324,0.743,13.921,0.576c2.616,6.91,6.346,13.519,8.343,20.697
			c3.229,11.599,5.144,24.291,6.787,36.221C498.803,298.04,496.774,321.598,491.247,344.931z"/>
	</g>
</g>
<g>
	<g>
		<path d="M481.492,318.789c-1.491-7.814-14.496-7.652-20.588-8.486c-13.915-1.907-27.807-4.142-41.753-5.777
			c-10.839-1.27-21.651-2.668-32.463-4.039c-13.06-3.22-26.455-4.727-39.66-7.62c-11.506-2.522-26.168-5.231-37.289,0.191
			c-21.107,10.293-18.458,38.229-4.959,53.123c20.839,22.992,49.211,16.209,75.405,8.146c15.667-4.823,31.411-9.386,47.081-14.195
			c16.864-5.174,36.268-7.755,52.011-15.9C481.277,323.197,481.881,320.825,481.492,318.789z M435.958,327.444
			c-11.72,3.433-23.41,6.907-35.145,10.287c-21.109,6.08-49.89,20.944-71.719,12.358c-10.38-4.083-21.815-13.748-24.014-25.224
			c-2.71-14.149,8.652-24.957,22.211-24.862c4.207,0.03,8.378,0.389,12.527,0.936c19.712,4.988,40.399,7.666,60.426,10.02
			c12.3,1.445,24.551,3.351,36.773,5.319c1.844,0.297,18.545,1.961,28.257,3.442C455.745,322.956,445.352,324.691,435.958,327.444z"
			/>
	</g>
</g>
<g>
	<g>
		<path d="M261.432,285.213c-4.966-6.289-14.466-8.4-20.692-2.585c-4.986,4.656-6.05,12.948-2.896,18.906
			c2.555,4.827,8.183,8.709,13.727,8.684C262.439,310.974,268.718,294.442,261.432,285.213z"/>
	</g>
</g>
<g>
	<g>
		<path d="M419.325,250.65c-10.75-5.863-21.31,4.748-20.799,15.207c-0.335,2.13-0.156,4.26,0.929,6.096
			c2.803,4.741,8.269,8.314,13.798,7.798c6.972-0.651,11.898-6.213,13.573-12.757C428.441,260.685,425.012,253.752,419.325,250.65z"
			/>
	</g>
</g>
<g>
	<g>
		<path d="M407.023,369.195c-1.929-7.331-11.774-5.101-12.458,1.685c-6.237,61.824-104.303,64.225-123.869,9.641
			c2.554-1.01,5.091-2.033,7.319-3.561c4.052-2.78,3.23-11.29-2.84-10.486c-11.99,1.588-20.948,12.159-27.09,21.763
			c-1.643,2.569,1.657,5.945,4.241,4.24c3.865-2.55,7.033-5.948,10.949-8.44c9.652,35.671,41.253,53.585,77.969,50.324
			c16.4-1.457,33.232-8.912,45.624-19.68C398.696,404.404,411.393,385.815,407.023,369.195z"/>
	</g>
</g>
<g>
</g>
<g>
</g>
<g>
</g>
<g>
</g>
<g>
</g>
<g>
</g>
<g>
</g>
<g>
</g>
<g>
</g>
<g>
</g>
<g>
</g>
<g>
</g>
<g>
</g>
<g>
</g>
<g>
</g>
</svg>
