<?xml version="1.0" ?><svg viewBox="0 0 64 64" xmlns="http://www.w3.org/2000/svg"><path d="M10.3 28.513c.633.354 3.476-.236 3.265-2.22-.21-1.984-2.1-2.147-3.172-1.323-1.504 1.157-.728 3.19-.094 3.543zm1.29-2.906c.316-.053 1.035.236.894.92-.14.686-1.222 1.442-1.786.97-.563-.472-.234-1.7.893-1.89zm47.014 4.536c-.493-1.44-2.678-.756-2.678-.756s-.07-.59-.846-2.08c-.775-1.487-2.497-2.13-3.03-1.936-.518.19-.964.85-.847 1.017.117.165 1.15-.142 2.35.543 1.197.685 1.503 2.835 1.503 2.835s-1.245.78-1.62 1.37c-.377.59-.26 2.008 1.95 1.937s3.71-1.488 3.218-2.93zm-1.927 1.44c-.658.332-1.527.875-1.95.332-.423-.543.634-1.157 1.15-1.417.427-.214 1.293-.425 1.622-.094.328.33-.165.85-.823 1.18zm-42.03-20.22c.21-1.605-1.156-2.268-2.163-2.1-2.138.353-1.95 2.597-1.386 3.117.564.52 3.336.59 3.548-1.016zm-1.787-1.086c.377-.04.8.047.775.567-.024.52-.352.968-1.27.803-.915-.165-.844-1.228.495-1.37zm46.495 25.96c-1.34.874-1.315 2.173-.658 3.118.658.945 4.018.685 3.9-1.37-.117-2.055-2.508-2.227-3.242-1.748zm.148 2.463c-.352-.505-.364-1.2.352-1.667.392-.256 1.67-.164 1.734.935.062 1.098-1.735 1.237-2.087.732zM39.996 56.146c-1.34.767-1.316 1.908-.658 2.737.658.83 4.018.6 3.9-1.203-.117-1.803-2.51-1.954-3.242-1.534zm.148 2.06c-.352-.375-.364-.89.352-1.236.392-.19 1.67-.122 1.734.692s-1.734.917-2.086.543zm-30.08-15.898s.634-.354.705-.496c.07-.142-.66-1.984-1.246-5.338-.587-3.354 1.222-4.913 1.433-5.173.21-.26-.588-.353-.775-.33-.188.024-2.162 1.488-1.833 5.29.328 3.804 1.573 5.788 1.714 6.048zm40.55 1.63c-1.95 1.157-1.69 2.976-1.69 2.976-.236.33-1.904 1.276-4.794 1.346-2.89.07-5.404-1.37-5.803-1.464-.4-.094-.446.732-.423 1.063.023.33.33.4 4.77 1.015 4.44.614 6.718-1.394 6.718-1.394s.728.9 2.725.78c1.997-.118 2.678-2.15 2.467-2.882-.21-.732-2.018-2.598-3.97-1.44zm-.072 3.02c-.48-.69-.498-1.638.48-2.276.536-.35 2.282-.224 2.368 1.276.086 1.502-2.367 1.69-2.848 1zm12.83-34.508c-.375-.236-5.168 1.18-12.075.66-6.907-.52-13.674-4.96-13.862-4.96-.188 0-6.155 6.898-6.39 7.56-.235.66 3.618 11.29 3.618 11.622 0 .33-10.29-4.016-11.653-3.827-1.363.19-6.39 6.614-6.343 7.748.047 1.134 5.45 20.645 5.45 20.645s-3.24.094-6.765-.85c-3.524-.945-10.81-3.71-10.948-3.732-.282-.047-3.9 1.795-4.37 2.457-.47.66 4.276 3.732 10.384 7.984S24.983 63 25.782 63c.8 0 5.404-2.55 6.014-3.4.61-.85 1.316-.993 1.08-4.395-.234-3.402-3.288-17.29-3.288-17.433 0-.142 3.806 1.654 5.404 2.41 1.597.755 6.25 2.408 7.19 2.267.94-.143 7.094-7.513 7.094-7.985 0-.472-3.336-11.858-3.336-11.858s5.357-.142 9.022-.803c3.665-.66 8.928-3.165 9.022-3.638.094-.472-.235-5.48-.61-5.716zm-20.25.733l2.395 7.04s-.21.212-.376 0c-.163-.214-2.63-6.946-2.583-7.158.036-.162.564.118.564.118zm-18.938 47.88c-.14.047-6.297-1.37-9.398-3.024-3.1-1.654-12.593-7.75-12.405-8.174.19-.425 1.88-1.087 2.115-1.087.705 0 7.424 2.975 10.9 3.92 3.478.945 3.62.756 3.76.945.14.19.705 3.968.987 4.063.282.094.61.094.61.094s-.845-4.11-.47-4.063c.377.046.894.046.894.046s1.128 5.905 1.316 5.905c.188 0 .564.048.564-.093 0-.142-1.034-5.67-.893-5.67.14 0 .61.048.61.048s1.552 7.04 1.41 7.088zm5.498-10.228c-.07.284-3.618 3.827-3.548 4.087.07.26 0 .472.14.472.142 0 3.596-3.307 3.737-3.142.142.165.4.898.283 1.157s-3.43 3.613-3.43 3.755-.117.425.094.425 3.524-2.858 3.524-2.67.212 1.206.19 1.347c-.024.142-2.256 2.197-2.256 2.29 0 .095.094.237.352.19.258-.047 1.645-1.087 1.715-.92.072.164.095.495 0 .66s-3.83 1.842-3.83 1.583c0-.26-1.667-6.732-2.7-10.464-1.035-3.732-5.17-17.62-5.03-18.165.082-.31 3.76-5.22 3.9-5.148.142.07.165.543.165.543s-3.054 4.228-3.007 4.417c.047.19.07.638.282.52s3.454-4.18 3.548-4.04c.094.143.305.497.258.78-.047.283-3.736 5.102-3.736 5.173s-.21.638.14.45c.353-.19 4.02-4.418 4.136-4.23s.423 1.11.376 1.23c-.047.117-3.477 3.73-3.477 3.826 0 .096.117.71.352.615.235-.094 3.336-3.756 3.524-3.33.19.424 1.293 3.92 2.327 8.88 1.035 4.962 2.045 9.427 1.975 9.71zm-.846-15.283c-.165-.213-2.49-8.764-2.396-8.882.044-.055 1.08.59 1.08.59s1.857 7.017 1.927 7.017c.07 0 .47.07.47.07s-1.48-6.684-1.292-6.684c.188 0 .916.402.916.402s1.575 6.803 1.763 6.945c.188.142.376.213.376.142 0-.07-1.317-7.04-1.152-6.992.164.047.916.118.916.354s1.034 6.78 1.198 6.92c.164.143.564.544.634.214.07-.33-.4-6.496-.4-6.496s2.914 1.417 3.032 1.606c.117.19 2.443 8.905 2.443 8.905s-9.35-3.898-9.514-4.11zm18.138-1.795c.024.07-5.367 6.206-5.427 6.094-.705-1.322-7.824-23.762-7.8-24.14.024-.378 4.675-4.394 4.934-4.394.26 0 .283.59.33.85.047.26-3.877 4.04-4.135 4.205-.258.166.235.544.376.544s4.206-3.732 4.37-3.756c.165-.024.353.78.377.874s-4.11 4.04-4.276 4.228c-.163.19.142.45.353.45.21 0 4.346-3.64 4.417-3.615.07.024.728 1.465 1.762 4.63s2.514 9 2.514 9-4.23 4.275-4.37 4.488c-.14.213.094.52.305.638.212.12 4.277-4.038 4.277-4.038l.658 1.37s-4.182 3.945-4.44 4.134c-.258.19.517.756.517.756l4.182-3.968s1.056 1.582 1.08 1.653zM46.88 20.27c-.164 0-.893-.095-.893-.095s-1.645-6.45-1.55-6.45c.084 0 .94.52 1.033.615.094.095 1.574 5.93 1.41 5.93zm1.01.023c-.07-.118-1.292-5.457-1.222-5.55.042-.058.963.283.963.283l1.27 5.268s-.94.117-1.01 0zm7.894-.78c-5.24 1.134-5.968 1.016-5.99.945s-1.223-5.08-1.176-5.22c0 0 4.088.402 7.965.142s5.075-.59 5.145-.496.07 2.22.07 2.315-.775 1.18-6.014 2.313zm-31.46-.803c-.046.354.73.638 1.01.59.283-.046.753-.708 1.293-3.282s-.282-5.315-.33-5.48c-.046-.165-.35-.33-.586-.213-.234.118.283 3 .212 4.323-.07 1.322-1.56 3.795-1.597 4.062zm2.257-11.976c-.328-2.93-3.35-1.19-3.9-.756-.657.52-1.55 1.323-.94 2.527.612 1.205 5.17 1.158 4.84-1.77zm-2.7-.45c.484-.274 1.08-.542 1.432-.353.352.19.705 1.158-.14 1.82-.847.66-2.022.732-2.327.283-.305-.45.658-1.535 1.034-1.748zm21.426-4.558c.188-2.126-2.492-1.89-3.43-1.37-.893.496-1.41 2.315-.705 2.835s3.948.662 4.136-1.464zM42.792.71c.447-.163 1.903-.14 1.668.946s-2.326.944-2.467.803c-.14-.143-.87-1.135.8-1.75z"/></svg>