<svg height="512pt" viewBox="0 -1 512.00192 512" width="512pt" xmlns="http://www.w3.org/2000/svg"><path d="m511.632812 82.726562c-.945312-2.453124-3.242187-3.335937-4.109374-3.664062-2.285157-.875-4.617188-1.703125-6.867188-2.503906-6.394531-2.273438-12.457031-4.445313-17.9375-7.660156 2.144531-3 4.195312-6.269532 4.554688-10.289063.445312-4.910156-1.894532-9.316406-3.695313-12.210937-4.5-7.226563-10.683594-13.449219-17.878906-18.003907-2-1.265625-4.429688-2.609375-7.292969-2.964843-3.433594-.425782-6.640625.691406-9.050781 1.710937-.546875.234375-1.085938.476563-1.625.726563-3.070313-4.898438-5.976563-8.898438-8.792969-12.761719-2.652344-3.636719-5.390625-7.394531-8.265625-11.917969-.453125-.714844-1.511719-2.382812-3.621094-2.980469-2.792969-.792969-5.003906.910157-5.730469 1.46875l-17.113281 13.171875c-.402343.3125-1.472656 1.136719-1.9375 2.652344-.332031 1.089844-.550781 3.242188 1.691407 5.382812 7.117187 6.792969 13.632812 14.289063 19.386718 22.277344-1.273437 1.09375-2.554687 2.191406-3.835937 3.300782l-10.523438-15.902344c-.917969-1.386719-2.589843-2.066406-4.222656-1.714844-4.292969.941406-7.59375 3.679688-10.242187 5.878906l-9.296876 7.710938c-1.765624 1.464844-1.910156 3.171875-1.839843 4.058594.078125 1.007812.53125 2.449218 2.222656 3.578124l17.367187 11.625c-5.40625 5.902344-8 12.167969-7.710937 18.648438.097656 2.140625.511719 4.285156 1.242187 6.429688-46.429687 37.382812-92.609374 75.820312-138.066406 114.925781-27.152344-14.722657-59.894531-18.882813-89.863281-11.402344-14.328125 3.578125-33.582031 11.472656-43.949219 28.769531-3.582031 5.984375-5.039062 11.691406-4.328125 16.964844.988281 7.3125 6.496094 13.109375 13.097657 13.785156 2.257812.230469 4.351562-.144531 6.203124-.472656 1.667969-.300781 3.109376-.558594 4.28125-.339844 2.859376.535156 4.585938 4.433594 4.21875 7.566406-.496093 4.230469-3.464843 8.066407-6.304687 11.261719-4.984375 5.613281-9.433594 8.949219-13.992187 10.496094-4.453126 1.511719-10.5625 1.339844-14.199219-2.449219-1.582031-1.648437-2.703125-3.976562-3.890625-6.441406-1.605469-3.335938-3.425782-7.113281-6.828125-9.847656-7.261719-5.828125-18.285157-4.453125-30.246094 3.777344-28.605469 19.679687-51.085937 48.421874-63.304687 80.925781-7.820313 20.808593-10.75 40.960937-8.703126 59.886719 2.328126 21.558593 11.316407 40.949218 25.316407 54.679687l-13.0625 15.839844c-1.160157 1.40625-2.300781 3.03125-3.507813 4.753906-2.199218 3.140625-4.695312 6.703125-6.996094 8.25l-.007812.003906c-1.847656 1.242188-2.3398438 3.746094-1.097656 5.59375.777344 1.160157 2.050781 1.785157 3.347656 1.785157.773438 0 1.554688-.222657 2.246094-.6875.003906 0 .007812-.003907.011718-.007813l25.792969-17.316406c2.890625-1.941407 5.792969-3.890625 8.703125-5.839844 24.84375 23.679687 58.390625 37.445313 91.007813 37.445313 1.636719 0 3.277343-.035157 4.910156-.101563 37.070313-1.59375 71.875-21.203125 90.828125-51.183594 6.433594-10.171875 10.328125-20.34375 11.574219-30.234375.359375-2.84375.511719-6.164062-1.089844-9.257812-2.152344-4.167969-6.347656-5.855469-9.71875-7.210938-.710937-.285156-1.414063-.566406-2.089844-.871094-6.332031-2.84375-11.050781-9.125-12.019531-15.996093-.972656-6.871094 1.820312-14.210938 7.109375-18.703125 3.242187-2.75 7.027344-4.105469 10.398437-3.722656 3.234376.371093 6.328126 2.300781 9.609376 4.339843 2.140624 1.332031 4.351562 2.710938 6.792968 3.785157 9.027344 3.988281 20.390625 3.191406 30.402344-2.121094 7.71875-4.097656 14.566406-10.484375 21.554688-20.101563 13.03125-17.929687 20.5625-38.867187 21.199218-58.953125.699219-22.003906-6.804687-43.199218-20.597656-58.34375l119.539062-127.523437c.167969-.179688.3125-.378907.441407-.582031 3.039062 1.246093 6.019531 1.875 8.929687 1.875 1.09375 0 2.179688-.089844 3.257813-.265626 5.789062-.953124 10.476562-4.410156 14.457031-7.898437l12.144531 12.339844c.757813.769531 1.796875 1.199219 2.871094 1.199219.078125 0 .152344 0 .230469-.003907 1.15625-.066406 2.230468-.628906 2.945312-1.542969 3.855469-4.929687 8.226563-9.488281 12.984375-13.550781 1.027344-.875 1.546875-2.207031 1.386719-3.546875s-.980469-2.507812-2.1875-3.117187l-14.523438-7.332031c1.484376-1.597657 2.945313-3.214844 4.386719-4.851563 2.871094 1.410156 5.542969 3.613281 8.132813 5.757813l15.960937 13.210937c.730469.605469 1.644531.925781 2.570313.925781.320312 0 .640625-.035156.957031-.113281 1.238281-.300781 2.261719-1.171875 2.757813-2.34375 1.285156-3.042969 3.679687-5.679687 6.214843-8.476563 2.121094-2.335937 4.3125-4.753906 6.074219-7.625 1.257812-2.054687 1.546875-4.011718.851562-5.8125zm-59.140624-48.160156c1.582031-.664062 3.398437-1.320312 4.925781-1.132812 1.277343.15625 2.660156.945312 3.96875 1.773437 6.175781 3.90625 11.484375 9.253907 15.347656 15.457031 1.183594 1.902344 2.734375 4.722657 2.507813 7.222657-.195313 2.171875-1.699219 4.414062-3.359376 6.710937-8.28125 11.453125-17.648437 22.171875-27.886718 31.929688-.417969-.316406-.910156-.554688-1.453125-.6875-4.28125-1.050782-8.644531-2.402344-11.5625-5.164063-2.277344-2.152343-3.742188-5.945312-2.257813-8.566406.828125-1.460937.664063-3.28125-.414062-4.570313-1.078125-1.289062-2.839844-1.777343-4.425782-1.21875-3.429687 1.199219-7.53125.589844-10.460937-1.558593-2.90625-2.128907-4.714844-5.816407-4.636719-9.417969 5.277344-5.003906 10.855469-9.8125 16.289063-14.476562 7.242187-6.207032 14.730469-12.628907 23.417969-16.300782zm-27.597657-25.464844c2.628907 4.03125 5.113281 7.441407 7.527344 10.75 2.773437 3.808594 5.40625 7.429688 8.222656 11.890626-3.953125 2.488281-7.648437 5.328124-11.125 8.191406-5.339843-7.351563-11.289062-14.304688-17.765625-20.722656zm-25.222656 33.824219c1.363281-1.132812 2.847656-2.363281 4.375-3.226562l8.960937 13.542969c.128907.195312.28125.371093.4375.535156-1.535156 1.371094-3.0625 2.753906-4.574218 4.160156l-15.109375-10.113281zm-391.023437 362.386719c-1.90625-17.664062.863281-36.566406 8.238281-56.183594 11.640625-30.976562 33.066406-58.367187 60.324219-77.121094 4.175781-2.875 14.539062-9.023437 20.632812-4.128906 1.976562 1.585938 3.257812 4.242188 4.609375 7.054688 1.410156 2.925781 2.863281 5.949218 5.335937 8.527344 5.273438 5.492187 14.359376 7.304687 22.609376 4.5 7.800781-2.648438 13.683593-8.558594 17.429687-12.773438 3.457031-3.894531 7.527344-9.191406 8.285156-15.683594.792969-6.789062-3.089843-15-10.75-16.425781-2.621093-.488281-5.042969-.058594-7.179687.324219-1.457032.261718-2.832032.507812-3.964844.390625-3.132812-.320313-5.515625-3.800781-5.925781-6.84375-.460938-3.414063.636719-7.363281 3.253906-11.738281 8.949219-14.929688 26.140625-21.882813 38.988281-25.089844 27.042969-6.75 56.496094-3.371094 81.34375 9.238281-2.621094 2.261719-5.242187 4.523437-7.859375 6.785156-23.742187-12.398437-52.523437-13.433593-77.09375-2.734375-3.460937 1.503906-7.027343 3.347656-9.671875 6.59375-3.359375 4.121094-4.058594 9.644532-1.742187 13.746094 1.035156 1.835938 2.453125 3.085938 3.707031 4.183594.421875.371094.84375.738281 1.234375 1.132812 7.066406 7.117188.710937 21.027344-1.402344 25.117188-4.492187 8.695312-9.96875 16.898437-16.277343 24.378906-7.421876 8.808594-14.230469 13.09375-20.808594 13.09375-.066406 0-.136719 0-.203125 0-3.769531-.050781-7.539063-1.523438-11.53125-3.082031-2.484375-.96875-5.050781-1.96875-7.757813-2.683594-8.113281-2.136719-24.789062-3.34375-45.328125 12.574219-20.023437 15.519531-33.6875 38.789062-37.488281 63.835937-3.804688 25.046875 2.34375 51.320313 16.859375 72.082031.472656.679688 1.128906 1.144532 1.851563 1.421876l-7.257813 8.796874c-12.390625-12.394531-20.359375-29.839843-22.460937-49.289062zm166.046874-121.289062c16.773438 11.019531 33.289063 22.882812 49.085938 35.253906.734375.578125 1.613281.859375 2.484375.859375 1.082031 0 2.152344-.433594 2.941406-1.277344l51.714844-55.167969c8.398437 8.199219 13.675781 20.347656 14.257813 33.167969.582031 12.921875-3.21875 26.40625-10.992188 39.007813-4.40625 7.140624-11.671875 15.796874-21.265625 16.476562-4.582031.328125-9.257813-1.230469-14.199219-2.878906-4.824218-1.609375-9.8125-3.273438-15.222656-3.363282-.152344 0-.300781 0-.449219 0-11.339843 0-22.601562 7-32.59375 20.277344-18.132812 24.09375-12.808593 41.328125-9.675781 47.621094 1.996094 4.015625 4.84375 7.570312 7.597656 11.007812 4.621094 5.773438 8.613282 10.753907 7.851563 16.464844-.527344 3.976563-3.515625 7.589844-6.367188 10.601563-17.300781 18.253906-41.640625 29.105469-66.78125 29.777343-24.507812.652344-48.792969-8.414062-66.902343-24.917968 14.472656-9.265625 29.269531-18.164063 44.46875-26.011719 1.023437-.527344 1.769531-1.464844 2.054687-2.578125s.085937-2.296875-.558594-3.25c-5.832031-8.6875-12.0625-17.289062-18.515625-25.566406-2.019531-2.585938-4.53125-5.808594-8.234375-5.898438-3.480469-.089844-5.996093 2.539063-8.117187 5-2.378906 2.765625-4.703125 5.621094-6.949219 8.386719-1.136719 1.394531-2.269531 2.789063-3.414063 4.179687l-23.703124 28.734376c-.03125-.050782-.054688-.109376-.089844-.164063-13.339844-19.082031-18.988282-43.230469-15.496094-66.253906 3.496094-23.019531 16.054688-44.40625 34.457031-58.671875 13.003907-10.078125 26.976563-14.136719 38.335938-11.148438 2.257812.597656 4.503906 1.472656 6.878906 2.398438 4.484375 1.75 9.125 3.5625 14.355469 3.632812 9.21875.117188 18.132812-5.09375 27.285156-15.957031 6.695312-7.941406 12.507812-16.644531 17.273438-25.875 7.445312-14.402344 7.433593-26.976563-.035157-34.5-.550781-.554687-1.101562-1.039063-1.636719-1.507813-.84375-.746093-1.644531-1.445312-2.007812-2.09375-.664062-1.179687-.246094-3.195312.972656-4.691406 1.554688-1.910156 4.109375-3.191406 6.640625-4.292968 21.042969-9.160157 46.476563-8.683594 67.277344 1.074218-21.257813 18.476563-42.34375 37.078125-63.203125 55.777344-.933594.832031-1.421875 2.054688-1.328125 3.300781.089844 1.246094.757813 2.378907 1.804687 3.066407zm-146.515624 188.355468-2.867188 1.925782 47.820312-57.980469c1.15625-1.402344 2.300782-2.8125 3.449219-4.222657 2.210938-2.722656 4.5-5.535156 6.804688-8.210937.847656-.984375 1.417969-1.550781 1.789062-1.875.414063.414063 1.070313 1.160156 2.09375 2.46875 5.410157 6.941406 10.664063 14.117187 15.652344 21.378906-26.050781 13.816407-50.785156 30.425781-74.742187 46.515625zm285.609374-172.289062c-.589843 18.492187-7.570312 37.835937-19.660156 54.472656-6.242187 8.585938-12.21875 14.21875-18.816406 17.71875-7.84375 4.164062-16.578125 4.863281-23.363281 1.867188-1.921875-.847657-3.800781-2.015626-5.792969-3.253907-3.890625-2.421875-7.914062-4.929687-12.953125-5.503906-5.566406-.632813-11.59375 1.398437-16.527344 5.585937-7.351562 6.234376-11.226562 16.433594-9.878906 25.976563 1.347656 9.546875 7.902344 18.269531 16.695313 22.222656.773437.347657 1.582031.671875 2.390624 1 2.464844.988281 4.789063 1.921875 5.566407 3.429688.585937 1.128906.453125 2.929687.25 4.546875-1.097657 8.707031-4.589844 17.769531-10.386719 26.933594-17.566406 27.78125-49.890625 45.957031-84.363281 47.4375-31.40625 1.339843-64.28125-11.273438-88.683594-33.878907 3.625-2.410156 7.265625-4.8125 10.933594-7.199219.023437.023438.035156.050782.0625.074219 19.132812 18.152344 45 28.429688 71.34375 28.429688.894531 0 1.792969-.015625 2.6875-.039063 27.265625-.726562 53.660156-12.492187 72.421875-32.289062 3.742187-3.949219 7.675781-8.828125 8.507812-15.082032 1.214844-9.125-4.503906-16.269531-9.550781-22.570312-2.601563-3.25-5.0625-6.316406-6.675781-9.558594-7.601563-15.28125 4.894531-33.855468 8.902344-39.183594 5.878906-7.804687 15.164062-17.0625 26.148437-17.0625.105469 0 .214844 0 .320313.003907 4.167968.066406 8.363281 1.464843 12.800781 2.945312 5.472656 1.828125 11.136719 3.707031 17.324219 3.273438 13-.921875 22.160156-11.539063 27.554687-20.285157 8.628906-13.980468 12.839844-29.058593 12.183594-43.601562-.671875-14.894531-6.890625-29.070312-16.796875-38.6875l9.28125-9.898438c12.117187 13.566407 18.703125 32.484376 18.074218 52.175782zm-87.949218 10.574218c-13.703125-10.625-27.917969-20.855468-42.351563-30.488281 70.355469-62.949219 143.234375-124.828125 216.757813-184.058593 2.621094 3.882812 6.265625 7.75 10.933594 11.574218.960937.789063 1.917968 1.515625 2.867187 2.1875zm206.265625-203.113281c-5.765625.957031-11.78125-2.785156-15.816407-6.09375-5.023437-4.117187-8.597656-8.140625-10.707031-12.019531-.078125-.742188-.359375-1.476562-.863281-2.101562-.074219-.089844-.160156-.164063-.242188-.246094-.6875-1.734375-1.078124-3.441406-1.15625-5.109375-.140624-3.117188.78125-6.179688 2.785157-9.261719 1.339843 3.375 3.597656 6.386719 6.550781 8.546875 3.300781 2.417969 7.34375 3.699219 11.40625 3.726563.15625 4.410156 2.375 8.703124 5.378906 11.542968 3.359375 3.179688 7.503906 4.949219 11.722656 6.203125-2.804687 2.320313-5.796874 4.277344-9.058593 4.8125zm30.511719 3.542969-8.8125-8.957031c1.460937-1.394531 2.902343-2.8125 4.328124-4.246094.339844.40625.765626.753906 1.273438 1.011719l9.972656 5.035156c-2.363281 2.273438-4.625 4.664062-6.761718 7.15625zm36.121093-20.347656c-1.757812 1.9375-3.550781 3.917968-5.097656 6.144531l-12.25-10.144531c-2.375-1.960938-4.976563-4.101563-7.941406-5.824219 1.5-1.824219 2.972656-3.667969 4.417969-5.535156 6.371093 3.875 13.335937 6.367187 20.085937 8.769531 1.609375.570312 3.257813 1.15625 4.882813 1.757812-1.195313 1.632813-2.613282 3.195313-4.097657 4.832032zm0 0"/><path d="m127.835938 343.949219c-2.523438-1.625-5.042969-3.140625-8.109376-3.808594-6.152343-1.347656-9.078124.746094-10.445312 2.742187-2.164062 3.152344-3.191406 8.96875 8.140625 26.136719 6.808594 10.316407 15.109375 21.871094 27.4375 28.386719 2.925781 1.546875 6.296875 2.53125 9.492187 2.53125 3.496094 0 6.777344-1.183594 9.015626-4.101562 1.996093-2.605469 3.640624-7.34375.117187-15.121094-7.917969-17.46875-24.136719-29.347656-35.648437-36.765625zm29.128906 46.984375c-1.277344 1.671875-5.246094.980468-8.335938-.65625-10.648437-5.625-18.21875-16.214844-24.476562-25.699219-7.195313-10.898437-8.085938-15.414063-8.148438-16.8125.394532-.015625 1.03125.039063 2 .25 1.757813.382813 3.515625 1.457031 5.464844 2.710937 10.65625 6.863282 25.632812 17.785157 32.671875 33.316407 1.441406 3.183593 1.742187 5.691406.824219 6.890625zm0 0"/><path d="m154.367188 314.140625c-3.484376-1.214844-6.78125-2.367187-9.265626.167969-2.476562 2.523437-1.117187 6.179687-.609374 7.558594 1.417968 3.828124 4.539062 7.429687 7.292968 10.605468.644532.742188 1.257813 1.449219 1.800782 2.113282 6.066406 7.371093 12.957031 14.042968 20.488281 19.832031 3.941406 3.027343 8.316406 5.914062 13.605469 6.527343.15625.019532.3125.027344.464843.027344 1.921875 0 3.605469-1.371094 3.960938-3.300781.667969-3.628906-.433594-6.992187-1.601563-9.800781-6.417968-15.476563-19.832031-28.050782-35.878906-33.644532zm28.632812 36.675781c-1.375-.820312-2.714844-1.796875-4.011719-2.792968-7.046875-5.417969-13.496093-11.664063-19.171875-18.5625-.585937-.710938-1.246094-1.472657-1.9375-2.269532-1.210937-1.394531-2.582031-2.976562-3.722656-4.53125 12.890625 5.167969 23.558594 15.542969 28.84375 28.15625zm0 0"/></svg>