<?xml version="1.0" ?><svg enable-background="new 0 0 52 52" id="Layer_1" version="1.1" viewBox="0 0 52 52" xml:space="preserve" xmlns="http://www.w3.org/2000/svg" xmlns:xlink="http://www.w3.org/1999/xlink"><g><g><path d="M37.6410942,4.5926871c0.1418419,3.8366046,0.7939186,7.5376048,2.2504082,11.1107864    c1.3288383,3.2600079,4.3482895,6.2864742,5.0377693,9.6868172c0.9431076,4.6511593,0.1574783,10.3580837,0.229805,15.1156368    c0.0255661,1.6816101,0.5623436,4.1159172,0.0861778,5.6683655c0.6558495,1.8260345,0.0435219,2.5134583-1.8369865,2.0622711    c-1.180809,0.0038376-2.361618,0.0076752-3.5424271,0.0115128c-4.6321373,0.015049-10.706192,1.8049278-12.3131294-4.2199326    c-1.2650642-4.7430801-0.2051296-11.0782509-0.2048702-15.9765873c0.0000954-1.8048954-0.3312721-3.971365,0.0003033-5.7605877    c0.3051472-1.6466122,1.2945423-3.1762581,1.8859844-4.7404728c0.7564621-2.0006542,4.336031-17.6378117,8.7088032-12.928812    c1.0971527,1.1815128,2.8619347-0.5894656,1.767765-1.7677667c-2.0890388-2.2496712-6.5916862-1.4868174-8.3943024,0.8130307    c-1.388876,1.7719796-1.8346481,4.5631895-2.4645729,6.6251278c-0.9828224,3.2170687-2.2077389,6.2250156-3.3417854,9.3611679    c-1.8767643,5.1901054-0.6624107,12.4765167-0.6627026,17.9992943    c-0.0002174,4.1130905-0.2520676,10.7936859,4.5681782,12.8432426c1.9156876,0.8145485,4.9203186,0.2702637,6.9079018,0.2638054    c2.6696091-0.0086746,6.4725723,0.6351242,9.0222206-0.0511017c3.7750244-1.0160294,2.3930397-4.967083,2.3421707-8.3130989    c-0.0574532-3.7789116-0.1149025-7.5578194-0.1723557-11.336729c-0.0385513-2.5357246,0.4198761-5.5380821-0.4189529-7.9770107    c-0.8137512-2.3660164-3.1755829-4.5742474-4.2774963-6.8967361c-1.7388763-3.665019-2.5285034-7.5511017-2.677906-11.5922222    C40.0817947,2.9888113,37.5815086,2.9810231,37.6410942,4.5926871L37.6410942,4.5926871z"/></g><g><path d="M24.2331772,42.0979958c0.0577965,3.6143532-0.5555649,5.3439522-4.399559,5.8853226    c-1.8118496,0.2551727-3.9217138,0.1174736-5.7494087,0.1325607c-1.4642515,0.0120926-3.4228125,0.3917999-4.7924061-0.0255585    c-2.3154287-0.7055855-2.0203996-1.665493-2.367959-3.6837997c-0.6100874-3.5428276-0.0614133-7.7336578-0.0900774-11.343235    c-0.0314054-3.9548626-0.5335917-7.8378925,1.4692383-11.4308434c1.1546307-2.0713348,2.4200125-3.7069473,3.109292-6.03263    c0.7739134-2.6112452,0.6208477-5.9401026,1.8505096-8.3834076c3.924325-7.7975292,6.6703272,2.5833344,7.7222128,5.4286933    c1.2290287,3.3245316,2.290451,6.699851,3.257391,10.1090364c0.438282,1.5452709,2.8512001,0.888504,2.4106979-0.6645985    c-1.6419163-5.7889748-3.6196175-11.4606066-6.0256081-16.9780407c-1.3699093-3.1414828-2.5705185-5.3114414-6.3562603-3.4461656    c-3.6003551,1.7739335-3.8868551,6.8049307-4.5887489,10.2372808c-0.6089725,2.9779558-1.4934292,5.4170246-3.1555133,7.9535828    c-1.1385069,1.7375107-1.8717685,3.0047436-2.1365914,5.09935C3.5974667,31.227108,4.323586,38.0848885,4.4238443,44.4065208    c0.0418129,2.636467-0.1602879,5.2359695,2.7994328,6.0701065c2.5962849,0.7317047,6.0963497,0.1627235,8.7778177,0.1144943    c2.1085434-0.0379219,5.2893066,0.4933205,7.2370892-0.4270363c2.9074688-1.3738251,3.5409489-5.1922302,3.4949932-8.0660896    C26.7074776,40.4908867,24.2074013,40.4860001,24.2331772,42.0979958L24.2331772,42.0979958z"/></g><g><path d="M6.10075,32.5921631c13.1111107,0,26.2222214,0,39.3333321,0c1.6086311,0,1.6112976-2.4999981,0-2.4999981    c-13.1111107,0-26.2222214,0-39.3333321,0C4.4921193,30.092165,4.4894547,32.5921631,6.10075,32.5921631L6.10075,32.5921631z"/></g><g><path d="M6.8511744,37.5369377c13.0825529-0.1906204,26.1657333-0.2502975,39.2494812-0.1790352    c1.608963,0.0087624,1.6108704-2.4912262,0-2.5c-13.083744-0.0712624-26.1669273-0.0115852-39.2494812,0.1790352    C5.2438946,35.0603561,5.2392077,37.5604248,6.8511744,37.5369377L6.8511744,37.5369377z"/></g><g><path d="M6.6017408,42.8087234c13.0818281-0.2516594,26.1648521-0.3501205,39.2489853-0.2953796    c1.6088943,0.0067329,1.6109772-2.4932594,0-2.5c-13.0841331-0.0547409-26.1671562,0.0437202-39.2489853,0.2953796    C4.995038,40.3396339,4.9897041,42.8397369,6.6017408,42.8087234L6.6017408,42.8087234z"/></g></g></svg>