<?xml version="1.0" ?><svg enable-background="new 0 0 52 52" id="Layer_1" version="1.1" viewBox="0 0 52 52" xml:space="preserve" xmlns="http://www.w3.org/2000/svg" xmlns:xlink="http://www.w3.org/1999/xlink"><g><g><path d="M8.3843737,25.0682716c11.5855761-0.0001945,23.171154-0.0003891,34.7567291-0.0005836    c-0.4166641-0.416666-0.8333321-0.8333321-1.25-1.25c0.1439438,8.3052521,0.2878876,16.6105003,0.4318275,24.9157524    c0.4166679-0.4166679,0.8333359-0.8333359,1.25-1.25C32.0513268,47.3792,20.5341835,47.5433769,9.0202246,47.9759941    c0.416667,0.4166679,0.833333,0.8333321,1.25,1.25c-0.0660543-8.6360283-0.1321087-17.2720528-0.198163-25.9080791    c-0.0122986-1.6080074-2.5123277-1.6117325-2.5,0c0.0660543,8.6360264,0.1321082,17.2720509,0.198163,25.9080791    c0.005024,0.656826,0.5687742,1.2755966,1.25,1.25c11.5139532-0.4326172,23.0310936-0.5967941,34.5527039-0.4925537    c0.6671486,0.0060349,1.2616539-0.5775681,1.25-1.25c-0.14394-8.3052521-0.2878838-16.6105003-0.4318275-24.9157524    c-0.0117073-0.6755791-0.5632133-1.2500114-1.25-1.25c-11.5855751,0.0001945-23.1711521,0.0003891-34.7567291,0.0005836    C6.775744,22.5682983,6.773077,25.0682983,8.3843737,25.0682716L8.3843737,25.0682716z"/></g><g><path d="M15.3338423,22.9941177c-0.3653994-3.1697598-0.8998423-6.6500244-0.5009546-9.8353596    c0.7390852-5.9019895,5.0679188-9.0738029,10.8316441-9.113308C36.674408,3.9699888,36.3263702,14.7037048,36.0974884,22.9031601    c-0.0449257,1.6093121,2.4551086,1.6081009,2.5,0c0.291275-10.4345942-0.5207596-21.9153366-13.7360401-21.3605804    c-4.0682735,0.1707798-8.1719971,1.963531-10.5095778,5.3984838c-3.1230268,4.5891271-2.1126194,10.8951035-1.5180283,16.0530548    C13.0159388,24.5737667,15.5180626,24.5921955,15.3338423,22.9941177L15.3338423,22.9941177z"/></g><g><path d="M15.9097452,34.8939629c0.7859735-0.6100769,1.3071527-1.4758911,2.065114-2.0748177    c2.008709-1.5872383,4.9516411-1.6195164,7.3820095-1.7476635c4.3695507-0.2303963,6.6326923,0.5588722,10.1183662,3.3841877    c1.2391243,1.0043716,3.0185127-0.7539749,1.7677689-1.767765c-4.3041992-3.4887714-6.1161079-4.4206638-11.8861351-4.1164227    c-2.1200676,0.1117859-4.8565273,0.2313786-6.8676434,1.0254498c-1.9266319,0.7607136-2.7631998,2.2997208-4.3472471,3.5292625    C12.872632,34.1114655,14.6533985,35.8691406,15.9097452,34.8939629L15.9097452,34.8939629z"/></g><g><path d="M18.6064224,39.4507942c2.1191521-0.779335,3.2844067-2.2004585,4.9914036-3.6027794    c1.4306374-1.175293,1.9029598-1.622509,3.6529579-0.8113747c1.4225044,0.6593399,1.5091896,0.8533096,2.3410301,1.9507294    c0.818615,1.0799713,1.7142658,2.0706291,2.6741924,3.0279274c1.1405907,1.1374741,2.9089775-0.629673,1.767765-1.767765    c-2.1749535-2.1690063-3.795145-6.4112225-7.3141174-6.4711857c-3.8999729-0.0664558-5.4800625,4.0509739-8.7778301,5.2637501    C16.4443703,37.5907974,17.0916023,40.0078812,18.6064224,39.4507942L18.6064224,39.4507942z"/></g><g><path d="M22.8384666,44.8464584c0.3414917-0.3069496,0.715395-0.7275887,1.0954704-0.9846573    c0.5166836-0.3494644,0.8639469-0.348568,1.4953365-0.3749046c0.8902569-0.0371361,2.3363514-0.2335091,3.1614723,0.157444    c1.4461823,0.6852188,2.7164345-1.4694519,1.2617989-2.1586761c-1.5092335-0.7150917-3.2838802-0.5579643-4.9208584-0.4956169    c-1.7373276,0.0661697-2.6224174,0.9753609-3.8609867,2.0886421    C19.8716011,44.1564941,21.6442795,45.9198456,22.8384666,44.8464584L22.8384666,44.8464584z"/></g></g></svg>