<?xml version="1.0" ?><svg enable-background="new 0 0 52 52" id="Layer_1" version="1.1" viewBox="0 0 52 52" xml:space="preserve" xmlns="http://www.w3.org/2000/svg" xmlns:xlink="http://www.w3.org/1999/xlink"><g><g><path d="M16.6416473,31.6093235c4.3265991-0.0194397,8.6532001-0.0239544,12.9798164-0.0060768    c1.6028938,0.0066223,4.8742371-0.6707039,5.8556175,0.9025021c0.7225533,1.1582909-0.0210762,5.5944443-0.0514717,6.8801498    c-0.0424767,1.7967567,0.3290596,4.4079285-0.2334328,6.1114388c-0.7711372,2.3354111-3.0769844,1.6861305-5.2932987,1.6860771    c-4.6876431-0.0001183-9.3752861-0.0002327-14.0629292-0.0003471c0.416666,0.4166679,0.833334,0.8333321,1.25,1.25    c-0.1864128-6.5300789-0.1592026-13.0542297,0.0816727-19.5825481c0.0593662-1.6089973-2.4407234-1.6065407-2.5,0    c-0.2408743,6.5282955-0.2680855,13.0524464-0.0816727,19.5825481c0.0192814,0.6754227,0.5570784,1.2499809,1.25,1.25    c3.5846691,0.0000877,7.1693363,0.0001755,10.7540054,0.0002632c2.5496864,0.0000648,6.9881096,0.8563805,9.4318428-0.044426    c2.9904213-1.1023254,1.8454208-7.7831078,1.9038124-10.253006c0.0599442-2.5355492,1.6156387-9.0872498-1.4820557-10.1962585    c-2.3220978-0.8313351-5.9736366-0.0847969-8.4445629-0.092165c-3.7858028-0.0112877-7.5715656-0.0051613-11.3573437,0.0118484    C15.0333614,29.1165504,15.0300732,31.6165657,16.6416473,31.6093235L16.6416473,31.6093235z"/></g><g><path d="M26.6950607,37.1262703c0.2096519,0.2291946,0.8668919,1.0339775,0.6978722,1.3379936    c-0.1601295,0.2880249-0.7941551,0.4914703-1.0053558,0.8902702c-0.6021481,1.1369972-0.1673336,2.8136978-0.0837536,4.0227966    c0.416666-0.4166641,0.833334-0.8333321,1.25-1.25c-0.3801231,0.0240517-1.4737492,0.2157555-1.8299942,0.064743    c0.3402538,0.1442375,0.0858345,0.3352852,0.1547508-0.2539101c0.0743465-0.6356125,0.2125168-1.4399986-0.0921478-2.0381126    c-0.2577858-0.5060806-0.685791-0.5968246-0.7821941-1.1587601c-0.1886959-1.0999298,1.4537792-2.3628578,2.450592-2.1322975    c1.5656414,0.3621254,2.2339573-2.0477104,0.6646004-2.4106979c-3.9454269-0.9125595-7.8486214,4.6289902-4.1062412,7.2626915    c-0.1914825-0.249012-0.3829651-0.498024-0.5744495-0.7470398c0.3495541,1.0792694-0.433075,2.37537,0.4133663,3.3779526    c0.830431,0.9836197,2.5745277,0.6067505,3.7017174,0.5354309c0.6383305-0.0403862,1.2990227-0.5408134,1.25-1.25    c-0.0412025-0.5960579-0.0154953-1.3048439-0.1307011-1.89077c-0.0661316-0.3363419-0.1431332-0.7435379-0.093298-0.817173    c0.1214581-0.1794662,0.5675125-0.2383385,0.7600803-0.4216118c0.2181129-0.2075844,0.4388332-0.6175385,0.5211468-0.9047852    c0.4033661-1.4075928-0.4911461-2.9928589-1.3982239-3.9844856    C27.3745461,34.1687889,25.6104298,35.9405479,26.6950607,37.1262703L26.6950607,37.1262703z"/></g><g><path d="M20.4375496,29.010601c-0.1537743-2.128767,0.058363-4.4204102,2.3045597-5.3158035    c1.4024258-0.5590439,3.1851883-0.6834927,4.6632023-0.6255322c3.9080162,0.1532536,7.013279,2.8677273,6.032917,6.9787483    c-0.3729668,1.5639992,2.0370598,2.2314091,2.4106979,0.6646004c1.2379723-5.1912804-2.2249298-9.5874329-7.4405785-10.0880222    c-2.5320015-0.2430191-5.9433327-0.0004578-8.1039104,1.50774c-2.354784,1.6437645-2.5585346,4.2252293-2.366888,6.8782692    C18.0527897,30.6058998,20.5537014,30.6185303,20.4375496,29.010601L20.4375496,29.010601z"/></g><g><path d="M15.7246532,17.6644173c-2.5011873,0.0136909-5.673665,0.5421009-8.0942593,0.0443096    c-4.2753391-0.8792171-3.191112-5.373333-1.2421966-8.0601368c1.9388719-2.6729574,2.2692761-2.7048521,5.2665029-3.3208222    c1.6708803-0.3433886,3.3785276-0.5538759,5.0747156-0.7197375c2.4443607-0.2390218,4.9032917-0.3491268,7.3549099-0.4857812    c5.4915829-0.3061032,11.2165089-0.9237657,16.6891689-0.1643119c4.2051506,0.583559,6.6706657,3.7308388,6.3656883,7.8994322    c-0.0944443,1.2909346,0.0602837,3.4140921-1.1528358,4.3311377c-0.9663429,0.7304955-3.6735611,0.5303802-4.8413239,0.6067657    c-2.3608246,0.1544266-3.4964256,0.8089371-4.4320526-1.345232c-0.7570457-1.7430019-0.5229568-3.343071-1.8192558-4.9346943    C32.98246,9.1686697,29.7366581,7.5658784,26.8144245,7.023468c-6.2326584-1.1568747-11.4468842,4.3017159-11.4984608,10.397892    c-0.0136137,1.6091022,2.4863739,1.6105919,2.5,0c0.0526352-6.2213831,6.449192-9.8014565,11.7129688-6.8571281    c3.782526,2.1157818,4.6067066,5.2172813,5.1372738,9.1422882c0.0686455,0.5078259,0.7140694,0.9483452,1.205349,0.9177017    c3.2864876-0.2050056,9.7430382,0.5757694,12.4582672-1.6763878c2.464077-2.0438385,1.6169968-7.2107058,1.2046165-10.0498171    C48.2210083-0.1446016,34.1102333,2.114542,27.8640175,2.4196994c-5.6040726,0.2737854-11.3621922,0.3491654-16.8739166,1.4973707    C7.6364145,4.6157117,3.8033793,5.4906149,2.4995654,9.0440168c-0.7851983,2.1399727-0.8376725,8.971036,1.0289733,10.6139841    c2.1894937,1.9271069,9.4323978,0.5215454,12.1961145,0.5064163    C17.3328552,20.1556129,17.3362808,17.6555939,15.7246532,17.6644173L15.7246532,17.6644173z"/></g><g><path d="M4.3918543,14.3494902c4.166667,0,8.333333,0,12.500001,0c1.6086292,0,1.6112938-2.5,0-2.5    c-4.1666679,0-8.333334,0-12.500001,0C2.7832236,11.8494902,2.7805593,14.3494902,4.3918543,14.3494902L4.3918543,14.3494902z"/></g><g><path d="M35.8918533,14.6828232c3.7777786,0,7.5555573,0,11.3333359,0c1.6086273,0,1.6112938-2.5,0-2.5    c-3.7777786,0-7.5555573,0-11.3333359,0C34.2832222,12.1828232,34.2805595,14.6828232,35.8918533,14.6828232    L35.8918533,14.6828232z"/></g></g></svg>