<?xml version="1.0" encoding="iso-8859-1"?>
<!-- Generator: Adobe Illustrator 19.0.0, SVG Export Plug-In . SVG Version: 6.00 Build 0)  -->
<svg version="1.1" id="Capa_1" xmlns="http://www.w3.org/2000/svg" xmlns:xlink="http://www.w3.org/1999/xlink" x="0px" y="0px"
	 viewBox="0 0 512.003 512.003" style="enable-background:new 0 0 512.003 512.003;" xml:space="preserve">
<g>
	<g>
		<path d="M475.418,61.95c-0.185-15.231-1.788-31.241-19.111-34.356c-21.875-3.933-44.169-0.986-66.154-1.324
			c-24.204-0.372-48.67,2.555-72.798,4.363c-25.496,1.911-50.742,0.715-76.174-0.293c-24.024-0.952-48.105-0.182-72.114-0.527
			c-0.835-4.482-2.112-8.842-4.507-12.827c-9.065-15.078-27.813-16.907-43.77-16.985C107.912-0.06,94.887,3.466,91.902,17.448
			c-1.007,4.717-1.461,9.556-1.636,14.421c-8.03-0.845-16.27,0.172-24.335,0.194c-9.484,0.026-19.413,0.405-28.788,1.91
			c-19.63,3.152-31.182,7.6-31.662,29.085C5.34,69.432,4.183,77.097,8.036,82.614c5.159,7.385,15.694,8.269,23.801,9.816
			c11.849,2.261,22.899,4.363,34.991,4.371c6.274,0.005,15.548,1.882,22.149-0.21c0.004,0.565-0.005,1.129,0.001,1.695
			c0.172,16.083,6.279,25.623,22.09,31.156c16.251,5.687,37.364,4.435,51.142-6.559c7.981-6.368,11.284-14.703,12.449-23.701
			c9.764-2.3,22.167-0.155,32.001-0.317c11.159-0.184,22.289,0.949,33.495,0.952c24.528,0.006,49.078-0.862,73.633-0.857
			c24.118,0.005,48.161,1.19,72.238,0.925c11.804-0.13,23.529,0.009,35.306-0.655c10.954-0.618,22.926,0.615,33.688-1.862
			C471.515,93.571,475.599,76.944,475.418,61.95z M88.972,85.465c-0.04,0.007-0.076,0.006-0.116,0.014
			c-14.006,2.799-32.303,0.471-45.955-2.064c-6.083-1.13-13.527-1.352-19.286-3.713c-9.003-3.692-7.709-12.124-7.196-20.128
			c1.123-17.497,28.835-14.975,41.091-15.891c10.857-0.812,21.889-0.48,32.705-2.117c0.03,1.761,0.068,3.519,0.112,5.265
			C89.593,59.695,89.096,72.56,88.972,85.465z M151.753,116.164c-11.015,6.787-31.033,7.45-42.218,0.094
			c-14.476-9.52-9.399-33.908-9.555-48.997c-0.013-1.249-0.022-2.492-0.033-3.739c0.596-7.271,0.581-14.607,0.751-21.946
			c0.159-6.835,0.245-14.002,2.024-20.64c1.85-6.905,7.321-8.122,13.857-9.046c9.173-1.297,19.415-0.752,27.907,3.23
			c18.329,8.594,15.911,35.979,17.759,52.628C164.056,84.072,168.296,105.971,151.753,116.164z M461.595,76.686
			c-5.317,13.366-23.994,9.818-35.97,10.267c-42.073,1.576-84.057,0.031-126.181,0.062c-23.103,0.017-46.167,1.012-69.254,0.895
			c-11.804-0.06-23.495-0.874-35.345-0.871c-6.517,0.002-13.465-0.91-19.665,0.886c-0.094-5.206-0.526-10.452-0.882-15.517
			c-0.628-8.94-1.949-17.806-3.167-26.651c-0.282-2.046-0.505-4.126-0.731-6.213c14.523,1.811,29.443,1.773,44.01,1.85
			c21.387,0.112,42.572,1.917,63.927,1.921c20.572,0.004,40.851-1.81,61.357-2.82c21.523-1.059,43.109-1.528,64.587-2.7
			c9.315-0.509,18.624-1.156,27.948-0.55c9.228,0.6,26.141-1.64,30.131,8.5C465.517,53.767,464.711,68.854,461.595,76.686z"/>
	</g>
</g>
<g>
	<g>
		<path d="M145.532,41.169c-3.518-4.049-10.769-2.711-15.704-3.157c-5.256-0.476-12.629-0.442-17.081,2.709
			c-1.548,1.096-1.542,3.072,0,4.169c5.005,3.56,12.196,2.504,18.021,3.333c4.783,0.681,11.274,2.053,14.764-2.021
			C146.851,44.663,146.877,42.716,145.532,41.169z"/>
	</g>
</g>
<g>
	<g>
		<path d="M145.532,62.297c-3.518-4.049-10.769-2.71-15.704-3.157c-5.256-0.476-12.629-0.442-17.081,2.709
			c-1.548,1.096-1.542,3.072,0,4.169c5.005,3.559,12.196,2.504,18.021,3.333c4.783,0.681,11.274,2.053,14.764-2.021
			C146.851,65.791,146.877,63.844,145.532,62.297z"/>
	</g>
</g>
<g>
	<g>
		<path d="M145.532,83.424c-3.518-4.049-10.769-2.711-15.704-3.157c-5.256-0.476-12.629-0.442-17.081,2.709
			c-1.548,1.096-1.542,3.072,0,4.169c5.005,3.56,12.196,2.504,18.021,3.333c4.783,0.681,11.274,2.053,14.764-2.021
			C146.851,86.918,146.877,84.971,145.532,83.424z"/>
	</g>
</g>
<g>
	<g>
		<path d="M478.979,178.643c-1.014-15.689-3.255-32.241-21.65-34.272c-13.945-1.54-30.073-0.656-44.112-0.009
			c-8.213,0.379-16.898,0.842-25.211,2.109c-0.8-2.771-1.846-5.465-3.37-7.999c-9.065-15.078-27.813-16.907-43.77-16.985
			c-12.878-0.063-25.903,3.463-28.888,17.445c-0.861,4.036-1.306,8.163-1.531,12.318c-19.288-4.927-38.927-3.932-59.043-4.804
			c-21.334-0.925-42.624-1.562-63.959-2.505c-45.71-2.021-92.143,1.82-137.693,5.111c-14.84,1.072-30.609,5.209-34.038,21.702
			c-3.157,15.177-5.104,36.763,10.775,45.353c17.693,9.57,42.128,5.981,61.347,5.992c24.201,0.014,48.618,1.02,72.772-0.356
			c25.897-1.475,51.634,1.374,77.436,1.237c23.72-0.125,47.363,0.844,71.155,0.199c0.982,14.035,7.29,22.617,21.946,27.746
			c16.251,5.687,37.364,4.435,51.142-6.559c6.679-5.329,10.072-12.04,11.689-19.36c10.652,0.071,21.309-0.042,31.959-0.044
			c12.323-0.003,25.761,0.741,37.63-3.253C480.949,215.859,479.981,194.161,478.979,178.643z M309.052,211.18
			c-36.387,1.097-72.348-0.266-108.697-1.658c-18.986-0.727-37.876,1.173-56.819,0.945c-21.049-0.252-42.105-0.12-63.157-0.107
			c-10.1,0.006-20.385,0.586-30.46-0.285c-5.067-0.438-10.56-1.062-15.238-3.242c-8.88-4.138-9.473-11.272-8.763-20.614
			c0.437-5.747,1.132-10.461,3.706-15.657c3.09-6.239,5.597-7.147,11.959-8.574c8.74-1.96,19.059-2.19,28.025-2.358
			c40.188-0.751,79.827-5.424,120.13-3.692c40.042,1.721,80.453,3.172,120.52,2.761c-0.003,3.218,0.066,6.432,0.147,9.615
			C309.591,182.583,309.097,196.855,309.052,211.18z M371.831,237.645c-11.014,6.787-31.033,7.45-42.218,0.094
			c-14.475-9.52-9.399-33.908-9.555-48.997c-0.013-1.247-0.022-2.491-0.033-3.737c0.596-7.271,0.581-14.607,0.751-21.946
			c0.159-6.835,0.245-14.002,2.024-20.641c1.85-6.905,7.321-8.122,13.858-9.047c14.284-2.02,35.259,0.811,40.231,16.307
			c3.914,12.199,4.026,26.862,5.434,39.552C384.235,206.462,389.92,226.499,371.831,237.645z M466.417,199.402
			c-1.692,12.273-13.1,12.863-23.687,13.284c-15.793,0.627-31.645,0.081-47.467,0.071c0.092-6.291-0.455-12.713-0.887-18.867
			c-0.628-8.94-1.949-17.806-3.167-26.651c-0.52-3.773-0.848-7.652-1.354-11.496c11.261,1.076,22.625-0.017,33.97,0.186
			c9.522,0.171,19.047-0.051,28.567,0.085c13.218,0.189,14.13,11.854,14.906,22.628C467.796,185.56,467.359,192.566,466.417,199.402
			z"/>
	</g>
</g>
<g>
	<g>
		<path d="M365.61,162.652c-3.518-4.049-10.769-2.71-15.704-3.157c-5.256-0.476-12.629-0.442-17.081,2.709
			c-1.548,1.096-1.542,3.072,0,4.169c5.005,3.56,12.196,2.504,18.021,3.333c4.783,0.681,11.274,2.053,14.764-2.021
			C366.929,166.146,366.955,164.199,365.61,162.652z"/>
	</g>
</g>
<g>
	<g>
		<path d="M365.61,183.78c-3.518-4.049-10.769-2.71-15.704-3.157c-5.256-0.476-12.629-0.442-17.081,2.709
			c-1.548,1.096-1.542,3.072,0,4.169c5.005,3.559,12.196,2.504,18.021,3.333c4.783,0.681,11.274,2.053,14.764-2.021
			C366.929,187.274,366.955,185.327,365.61,183.78z"/>
	</g>
</g>
<g>
	<g>
		<path d="M365.61,204.907c-3.518-4.049-10.769-2.711-15.704-3.157c-5.256-0.476-12.629-0.442-17.081,2.709
			c-1.548,1.096-1.542,3.072,0,4.169c5.005,3.56,12.196,2.504,18.021,3.333c4.783,0.681,11.274,2.053,14.764-2.021
			C366.929,208.401,366.955,206.454,365.61,204.907z"/>
	</g>
</g>
<g>
	<g>
		<path d="M446.754,498.829c-5.934-0.873-11.961-1.173-18.02-1.228c1.947-14.573-2.027-32.127-3.338-46.582
			c-0.635-7.005-0.171-16.321-3.15-22.833c-3.821-8.353-13.281-14.107-19.635-20.281c-16.753-16.277-34.018-32.042-50.681-48.456
			c-7.845-7.727-15.726-15.4-23.972-22.694c-6.527-5.774-12.928-13.458-20.374-17.946c-4.749-2.863-8.19-2.719-12.791,0.121
			c-9.194,5.674-17.96,15.099-26.05,22.224c-9.317,8.206-18.707,16.264-28.126,24.351c-4.854,4.168-9.504,8.566-14.274,12.83
			c-3.285,2.936-12.446,13.984-17.124,14.044c-7.215,0.092-17.314-16.749-21.831-22.083c-6.125-7.232-12.146-14.454-18.518-21.436
			c3.324-7.172,8.068-13.877,14.911-20.363c14.847-14.072,34.22-21.638,53.923-26.189c21.868-5.051,40.939-2.036,62.292,2.997
			c16.634,3.921,33.381,4.595,50.347,3.6c17.509-1.027,36.786-6.588,51.527-16.312c3.896-2.57,13.185-9.306,15.237-15.691
			c0.111,0.009,0.199,0.032,0.316,0.038c3.689,0.177,8.488-1.651,10.998-4.361c5.159-5.572,4.252-17.754-1.113-23.049
			c-6.751-6.662-17.194-4.433-22.074,2.989c-2.376,3.615-2.427,8.012-0.78,11.935c1.033,2.459,3.005,4.536,3.977,6.996
			c0.709,1.796,0.499,3.309-0.059,4.792c-1.196,1.431-2.575,3.726-3.513,4.679c-3.562,3.618-7.872,6.376-12.346,8.707
			c-9.83,5.121-21.519,9.111-32.475,10.999c-22.307,3.845-44.966,0.994-66.667-4.592c-34.936-8.993-77.708-1.905-106.694,20.465
			c-9.299,7.177-17.534,15.963-23.385,26.152c-7.463-9.101-18.538-27.077-30.03-25.934c-7.714,0.767-15.778,10.085-20.994,15.069
			c-8.882,8.486-17.674,17.029-26.361,25.718c-8.878,8.88-17.915,17.87-26.204,27.293c-4.384,4.983-9.22,9.582-13.517,14.632
			c-1.247,1.465-2.536,3.475-3.898,5.469c0.084-3.225,0.17-6.451,0.255-9.676c0.663-25.416,0.39-51.02,0.247-76.452
			c-0.119-21.073-1.408-43.559,1.219-64.469c0.597-4.753-7.125-5.632-8.268-1.119c-4.509,17.807-3.919,38.508-4.149,56.786
			c-0.291,23.175-1.046,46.356-0.87,69.525c0.18,23.761-1.333,47.474-0.704,71.256c0.279,10.547,0.7,21.145,1.26,31.681
			c0.345,6.483-0.799,15.401,3.905,20.665c3.927,4.395,9.835,4.669,15.293,5.2c11.387,1.109,22.913,1.942,34.347,2.378
			c21.926,0.836,43.827-0.32,65.739,0.134c46.349,0.962,92.782,0.826,139.158,1.08c25.931,0.142,52.24,0.402,78.126-1.018
			c13.588-0.745,27.162-0.201,40.764-0.326c12.214-0.112,24.385-1.544,36.574-0.103
			C451.735,511.215,453.346,499.799,446.754,498.829z M410.756,258.126c2.126-7.945,11.48-6.096,13.353,0.69
			C428.25,273.817,407.659,269.71,410.756,258.126z M42.277,457.56c-0.659-14.246-0.539-28.486-0.228-42.725
			c2.765-2.033,4.911-4.949,7.4-7.454c7.252-7.299,14.496-14.704,21.85-21.897c14.668-14.347,28.94-29.087,43.796-43.257
			c5.679-5.417,14.503-17.167,22.316-13.69c6.601,2.937,13.335,15.078,18.087,20.32c1.068,1.179,2.104,2.384,3.163,3.57
			c-0.303,0.788-0.652,1.553-0.925,2.355c-6.867,20.166-2.498,42.785-8.585,63.466c-11.398,38.725-62.688,82.168-105.406,70.226
			C41.017,479.658,42.706,466.838,42.277,457.56z M202.438,499.122c-2.758-0.091-5.521-0.15-8.277-0.255
			c-41.122-1.561-82.251,1.441-123.364-1.135c-7.156-0.448-16.716,0.734-22.563-3.137c24.206,6.368,52.453-7.263,70.98-22.65
			c12.737-10.579,25.504-23.177,32.177-38.558c6.856-15.801,9.308-32.632,10.192-49.734c0.451-8.742,1.414-16.682,3.413-24.072
			c9.548,10.994,18.82,22.213,28.371,33.235c3.905,4.507,7.295,7.346,10.598,8.715C202.937,434.002,200.985,466.647,202.438,499.122
			z M290.61,460.142c-0.507,13.051,0.409,26.761-0.932,39.797c-26.618,0.342-53.286,0.168-79.864-0.59
			c-1.089-32.277,0.496-64.624-0.15-96.923c4.458-0.432,9.192-3.388,15.218-8.637c17.814-15.517,35.411-31.275,53.177-46.844
			c4.217-3.695,8.617-7.168,12.86-10.832c1.431-1.236,5.374-6.039,7.967-7.646c-3.405,29.528-5.197,59.672-6.553,89.308
			C291.687,431.899,291.159,446.019,290.61,460.142z M418.254,494.6c-0.636,0.905-0.897,2.007-0.827,3.13
			c-9.112,0.282-18.237,0.814-27.202,0.725c-21.911-0.217-44.134,0.182-66.047,0.787c-9.15,0.253-18.317,0.443-27.49,0.59
			c0.941-11.673-0.102-23.593,0.484-35.281c0.74-14.768,0.988-29.612,1.516-44.398c1.074-30.042,6.8-61.413,4.769-91.54
			c5.965,2.645,13.559,12.094,17.264,15.381c16.837,14.935,32.029,31.572,48.484,46.913c8.404,7.835,17.054,15.415,25.198,23.512
			c9.371,9.318,18.155,14.623,19.652,28.787c0.96,9.076,1.569,18.18,2.19,27.28C416.75,477.891,418.992,487.083,418.254,494.6z"/>
	</g>
</g>
<g>
	<g>
		<path d="M506.004,377.359c-5.849-8.332-15.802-10.701-22.869-16.786c5.434-10.669,20.672-23.484,10.552-33.814
			c-5.569-5.685-17.33-7.447-24.625-10.285c-8.786-3.417-17.327-7.16-26.014-10.807c-7.54-3.165-32.652-16.623-38.225-4.828
			c-2.754,5.829-0.669,17.017-0.165,23.138c0.442,5.376,1.204,11.276,2.6,16.865c0.023,0.869,0.035,1.743,0.087,2.596
			c0.629,10.28,1.818,20.517,3.07,30.737c1.836,14.986,2.638,31.963,22.03,26.118c3.102-0.935,5.892-2.442,8.82-3.836
			c4.101-1.953,6.052-3.217,9.05-2.42c8.16,2.169,12.07,16.593,19.905,19.877c6.681,2.8,11.054-2.461,15.104-6.741
			c6.929-7.323,12.951-15.494,19.786-22.889C506.718,382.545,507.481,379.463,506.004,377.359z M480.606,394.625
			c-7.692,8.803-4.981,7.913-12.96-0.184c-11.355-11.526-12.965-17.472-28.345-10.211c-2.343,1.106-8.938,5.061-11.567,4.954
			c-5.006-0.203-3.819-2.362-4.765-7.645c-2.279-12.74-3.846-25.599-4.961-38.49c-0.55-6.357-0.373-13.028-1.36-19.318
			c-0.192-1.224-2.688-15.946-1.723-15.684c2.995,0.814,5.804,1.917,8.753,2.847c17.593,5.499,34.217,13.94,51.59,20.138
			c2.141,0.764,5.194,1.448,6.607,3.66c2.607,4.082-1.462,7.436-3.335,11.146c-2.309,4.234-7.147,9.716-7.593,14.567
			c-0.89,9.682,14.741,13.535,22.361,19.731C488.962,384.855,484.809,389.816,480.606,394.625z"/>
	</g>
</g>
<g>
</g>
<g>
</g>
<g>
</g>
<g>
</g>
<g>
</g>
<g>
</g>
<g>
</g>
<g>
</g>
<g>
</g>
<g>
</g>
<g>
</g>
<g>
</g>
<g>
</g>
<g>
</g>
<g>
</g>
</svg>
