<?xml version="1.0" encoding="iso-8859-1"?>
<!-- Generator: Adobe Illustrator 19.0.0, SVG Export Plug-In . SVG Version: 6.00 Build 0)  -->
<svg version="1.1" id="Capa_1" xmlns="http://www.w3.org/2000/svg" xmlns:xlink="http://www.w3.org/1999/xlink" x="0px" y="0px"
	 viewBox="0 0 511.999 511.999" style="enable-background:new 0 0 511.999 511.999;" xml:space="preserve">
<g>
	<g>
		<path d="M510.92,271.643c0.468-26.562,3.06-54.486-1.999-80.84c0.108-0.732-0.058-1.469-0.419-2.137
			c-0.327-1.569-0.671-3.134-1.057-4.69c-7.007-28.242-24.191-52.62-32.416-80.444c-1.342-4.54-7.152-4.006-8.699,0
			c-2.394,6.194-4.806,12.412-7.203,18.641c-9.279,16.386-15.394,33.981-19.455,52.164c-0.687,2.3-1.198,4.59-1.424,6.806
			c-5.323,27.331-6.392,55.792-6.89,83.316c-0.543,30.014-0.864,60.032-1.27,90.048c-0.376,27.746-3.47,56.768-1.067,84.42
			c1.676,19.289,12.931,26.778,31.496,26.093c16.68-0.616,44.767,3.07,47.583-19.178c3.603-28.465,0.935-58.807,1.298-87.493
			C509.762,329.446,510.411,300.544,510.92,271.643z M468.669,117.297c0.61-1.925,1.228-3.837,1.884-5.711
			c0.319,1.257,5.062,21.779,5.472,21.642c-1.854,0.566-3.745,1.023-5.986,0.859c-2.346-0.171-4.518-0.9-6.667-1.732
			C465.488,127.579,467.053,122.394,468.669,117.297z M445.195,183.701c0.652-3.384,1.95-6.911,2.824-10.292
			c0.072-0.277,0.144-0.553,0.216-0.829c2.113-8.018,4.767-15.893,7.939-23.553c1.468-3.545,1.705-7.307,5.936-8.677
			c3.563-1.154,6.259,0.219,9.639,0.479c3.406,0.262,6.715-1.338,9.241,1.923c3.431,4.431,5.669,13.178,8.181,18.478
			c4.44,9.372,7.736,18.619,10.078,28.006c-10.457,6.571-22.335,0.678-25.237-11.559c-0.759-3.202-5.421-3.003-6.286,0
			c-1.062,3.681-2.637,8.049-5.568,10.71c-3.692,3.352-11.855,5.84-15.683,1.368C445.086,188.133,444.791,185.796,445.195,183.701z
			 M441.203,372.157c2.59,2.677,5.299,5.185,8.308,7.604c3.736,3.005,13.996,8.595,16.125,12.836
			c1.549,3.086,0.416,3.824-2.543,6.557c-2.574,2.378-5.904,4.187-8.777,6.224c-4.607,3.267-9.225,6.52-13.775,9.864
			C440.754,400.88,440.978,386.518,441.203,372.157z M491.959,452.456c-5.021,2.226-12.961,1.109-18.481,1.438
			c-5.391,0.321-11.379,1.561-16.719,0.946c-8.545-0.984-14.692-4.145-16.103-13.17c-0.396-2.53-0.485-5.105-0.48-7.686
			c18.384,3.053,41.15,3.62,59.437,0.437C499.166,442.576,497.384,450.051,491.959,452.456z M500.21,376.201
			c-0.537,11.893-0.701,23.801-0.97,35.702c-0.078,3.449,0.33,8.759,0.46,14.426c-9.998-1.096-20.246-0.174-30.27,0.265
			c-9.743,0.426-19.574,0.789-29.168,2.582c0.035-1.017,0.057-2.025,0.085-3.037c0.321-0.124,0.647-0.284,0.979-0.502
			c9.577-6.29,18.854-13.105,28.166-19.783c4.032-2.892,9.041-5.628,8.587-11.26c-0.57-7.065-10.126-11.74-15.101-15.432
			c-7.041-5.225-13.794-9.782-21.681-13.138c0.053-3.389,0.104-6.777,0.157-10.165c10.474,0.43,20.913,0.693,31.414,0.475
			c9.13-0.191,19.127,0.761,28.159-1.265C500.763,362.115,500.527,369.165,500.21,376.201z M503.824,231.58
			c-0.47,38.49-1.144,77.091-2.491,115.603c-9.217-1.608-19.219-0.047-28.464,0.306c-10.493,0.4-20.895,1.275-31.322,2.317
			c0.38-24.227,0.758-48.454,1.119-72.681c0.393-26.344,0.184-53.555,2.887-80.205c8.12,4.746,18.74-2.051,24.681-10.317
			c5.882,11.489,18.954,15.543,30.725,10.382C503.091,208.08,503.971,219.465,503.824,231.58z"/>
	</g>
</g>
<g>
	<g>
		<path d="M414.235,45.731c-0.924-7.992-3.833-15.34-11.341-19.186c-10.246-5.249-24.54-3.21-35.611-3.575
			c-16.202-0.533-32.414-0.842-48.624-0.919c-32.477-0.154-64.921,0.677-97.331,2.723c-2.516,0.036-5.031,0.058-7.546,0.1
			c-13.889,0.229-27.776,0.514-41.657,1.034c-12.942,0.485-27.982-0.574-40.404,3.704c-19.764,6.806-12.457,36.471-12.403,52.304
			c0.153,45.079-0.386,90.161-1.203,135.242c-29.227-2.345-58.589-4.003-87.733-4.908c-38.361-1.191-29.523,44.47-29.46,70.491
			c0.052,21.219,0.209,42.438,0.473,63.656c0.235,18.906-2.259,40.215,1.42,58.785c2.587,13.061,12.67,15.809,24.596,16.281
			c22.564,0.894,45.144,1.492,67.714,2.238c6.201,0.205,12.402,0.41,18.603,0.615c-0.077,3.703-0.158,7.405-0.22,11.107
			c-0.272,16.186-2.925,41.485,17.364,46.793c9.743,2.55,21.489,1.063,31.457,1.283c15.425,0.339,30.851,0.682,46.276,1.036
			c29.147,0.67,58.275,2.205,87.411,3.256c13.708,0.495,27.422,0.829,41.134,1.215c12.755,0.36,26.52,2.176,39.143-0.391
			c19.212-3.906,27.307-19.805,29.603-37.918c3.43-27.064,2.763-55.155,3.702-82.405c2.038-59.126,3.376-118.279,4.198-177.434
			c0.46-33.06,0.689-66.121,0.73-99.184C414.545,76.593,415.966,60.726,414.235,45.731z M36.747,224.095
			c41.711,1.89,83.395,5.041,125.15,5.706c0.399,0.007,0.764-0.04,1.11-0.113c30.306,1.826,60.627,3.456,90.962,4.967l51.813,2.58
			c7.786,0.387,18.17-0.644,25.742,1.256c-23.889,14.425-47.916,28.62-72.129,42.493c-13.123,7.519-26.224,15.11-39.494,22.367
			c-16.666,9.112-29.593,11.284-47.019,2.767c-27.803-13.588-54.938-28.631-82.511-42.686
			c-23.75-12.107-47.437-25.765-72.095-36.175C22.646,223.927,29.186,223.752,36.747,224.095z M12.547,265.537
			c0.002-8.937-0.809-18.288,0.292-27.157c0.292-2.352,0.825-4.303,1.539-5.968c26.103,16.889,54.975,30.481,82.234,45.196
			c14.562,7.86,29.217,15.551,43.836,23.304c13.246,7.026,26.75,16.147,41.243,20.391c25.593,7.495,50.672-12.484,71.601-24.421
			c29.466-16.805,58.653-34.097,87.627-51.737c0.1-0.061,0.174-0.136,0.268-0.201c0.218,0.71,0.415,1.519,0.596,2.447
			c1.061,5.426-0.321,12.49-0.462,18.027c-0.906,35.307-1.842,70.611-2.911,105.913c-55.733-1.02-111.5-1.139-167.24-1.85
			c-27.773-0.355-55.547-0.775-83.321-1.059c-24.633-0.252-49.801-1.595-74.448,0.194c-0.223-13.989-0.445-27.978-0.576-41.968
			C12.636,306.278,12.542,285.907,12.547,265.537z M58.837,410.815c5.755-5.416,10.365-12.501,17.308-16.181
			c6.639-3.519,9.436,3.234,13.117,7.999c2.353,3.045,4.488,6.283,6.755,9.406C83.624,411.63,71.231,411.223,58.837,410.815z
			 M107.863,412.43c-3.733-7.373-9.829-13.71-15.387-19.746c-3.428-3.722-7.491-9.396-13.178-9.13
			c-6.098,0.285-12.221,7.788-15.969,11.774c-4.266,4.537-8.666,9.387-10.706,15.283c-2.121-0.07-4.242-0.14-6.363-0.21
			c-7.011-0.231-17.87,1.505-24.261-0.868c-11.086-4.114-8.238-17.701-8.404-26.872c-0.056-3.102-0.076-6.205-0.128-9.307
			c25.276,2.699,51.257,2.101,76.586,2.656c27.762,0.607,55.525,1.11,83.288,1.665c54.92,1.098,109.848,2.786,164.772,3.579
			c-0.184,6.023-0.366,12.046-0.549,18.068c-0.296,9.723,1.146,17.591-10.028,20.34c-8.161,2.008-20.193-0.665-28.648-0.943
			l-28.648-0.943c-38.198-1.258-76.396-2.515-114.593-3.773C139.719,413.479,123.791,412.955,107.863,412.43z M402.566,162.15
			c-0.414,50.465-1.378,100.918-2.943,151.361c-0.809,26.091-1.755,52.178-2.835,78.259c-0.504,12.171-1.037,24.341-1.599,36.51
			c-0.515,11.138-0.203,23.054-4.303,33.602c-9.288,23.895-48.688,15.847-69.163,15.681c-2.49-0.02-4.98-0.01-7.47-0.025
			c-29.263-2.928-59.008-2.856-88.338-3.444c-15.518-0.311-31.035-0.686-46.555-0.861c-10.873-0.122-36.509,3.589-49.403-3.904
			c-6.885-8.682-3.896-23.164-3.86-33.906c0.012-3.566,0.014-7.132,0.018-10.698c33.944,1.121,67.889,2.243,101.834,3.364
			c22.571,0.746,45.143,1.492,67.714,2.238c10.393,0.344,20.855,1.077,31.253,1.033c5.538-0.023,11.409-0.11,15.86-3.964
			c10.785-9.338,6.331-33.156,6.578-45.501c0.446-22.326,0.867-44.652,1.419-66.976c0.552-22.313,1.421-44.645,1.656-66.963
			c0.159-15.133-5.463-19.201-20.173-20.05c-63.897-3.691-127.893-6.78-191.902-8.838c-4.674-0.433-9.355-0.847-14.039-1.244
			c0.082-29.706,0.226-59.412,0.527-89.119c0.075-7.402,0.137-14.805,0.215-22.208c21.128,2.399,42.952,1.128,64.151,1.183
			c23.281,0.061,46.57,0.116,69.848,0.498c47.25,0.777,94.514,1.764,141.743,3.389C402.771,128.428,402.704,145.29,402.566,162.15z
			 M170.194,99.387c3.84-5.292,6.12-11.875,9.055-17.673c3.287-6.493,6.878-12.804,10.527-19.093
			c10.443,10.877,19.297,23.597,26.407,36.873c-8.326-0.006-16.652-0.019-24.978,0.011C184.259,99.53,177.236,99.435,170.194,99.387
			z M402.797,100.78c-47.251-0.696-94.487-1.287-141.743-1.255c-11.645,0.008-23.29-0.018-34.934-0.035
			c-0.097-0.502-0.275-1.013-0.603-1.529c-10.19-15.997-21.409-30.21-33.767-44.565c-1.696-1.97-4.959-1.238-6.188,0.797
			c-7.305,12.108-19.312,30.271-20.257,45.174c-12.795-0.028-25.624,0.237-38.173,1.858c0.058-4.703,0.108-9.407,0.204-14.109
			c0.142-6.931,0.305-13.864,0.49-20.794c0.158-5.936-1.265-15.22,1.026-20.843c3.638-8.929,18.094-5.85,25.055-6.035
			c6.939-0.184,13.886-0.654,20.822-0.948c13.886-0.589,27.769-1.262,41.657-1.799c49.551-1.917,99.156-2.664,148.747-2.818
			c1.569,0.073,3.139,0.125,4.708,0.204c11.559,0.576,29.293-2.049,32.398,12.484c2.465,11.545,0.516,25.496,0.558,37.278
			C402.817,89.49,402.795,95.135,402.797,100.78z"/>
	</g>
</g>
<g>
	<g>
		<path d="M376.189,60.907c-9.99-2.897-20.827-2.044-31.181-2.239c-11.745-0.221-23.49-0.475-35.236-0.617
			c-21.631-0.264-44.671-2.481-65.985,1.682c-2.009,0.392-1.91,3.506,0,3.963c21.172,5.075,44.321,3.78,65.985,4.424
			c11.743,0.35,23.491,0.588,35.236,0.859c10.356,0.239,21.066,1.504,31.181-0.974C379.791,67.123,379.592,61.893,376.189,60.907z"
			/>
	</g>
</g>
<g>
	<g>
		<path d="M369.093,78.671c-20.025-2.95-41.698,0.063-61.971-0.082c-19.747-0.141-42.139-3.958-61.499,0.149
			c-2.574,0.546-2.075,3.956,0,4.732c18.461,6.91,42.022,5.293,61.499,5.608c19.849,0.321,42.629,2.321,61.971-2.599
			C372.722,85.556,373.175,79.272,369.093,78.671z"/>
	</g>
</g>
<g>
	<g>
		<path d="M204.183,395.565c-14.599-0.422-29.197-0.685-43.801-0.852c-12.906-0.148-26.674-1.577-39.163,2.185
			c-1.236,0.372-1.462,2.143-0.138,2.6c12.287,4.232,25.999,3.356,38.85,3.699c14.6,0.391,29.198,0.686,43.803,0.821
			C209.156,404.069,209.655,395.723,204.183,395.565z"/>
	</g>
</g>
<g>
	<g>
		<path d="M301.148,398.755c-11.942-4.952-27.768-2.919-40.6-3.315c-13.497-0.417-27.185-1.444-40.411,1.733
			c-1.247,0.3-1.394,2.129-0.135,2.54c12.905,4.209,26.597,4.289,40.056,4.945c12.927,0.63,28.393,3.951,40.779-0.055
			C303.703,403.676,304.024,399.948,301.148,398.755z"/>
	</g>
</g>
<g>
</g>
<g>
</g>
<g>
</g>
<g>
</g>
<g>
</g>
<g>
</g>
<g>
</g>
<g>
</g>
<g>
</g>
<g>
</g>
<g>
</g>
<g>
</g>
<g>
</g>
<g>
</g>
<g>
</g>
</svg>
