<?xml version="1.0" encoding="iso-8859-1"?>
<!-- Generator: Adobe Illustrator 16.0.0, SVG Export Plug-In . SVG Version: 6.00 Build 0)  -->
<!DOCTYPE svg PUBLIC "-//W3C//DTD SVG 1.1//EN" "http://www.w3.org/Graphics/SVG/1.1/DTD/svg11.dtd">
<svg version="1.1" id="Capa_1" xmlns="http://www.w3.org/2000/svg" xmlns:xlink="http://www.w3.org/1999/xlink" x="0px" y="0px"
	 width="401.552px" height="401.552px" viewBox="0 0 401.552 401.552" style="enable-background:new 0 0 401.552 401.552;"
	 xml:space="preserve">
<g>
	<g>
		<g>
			<path d="M395.964,243.847c-45.287-1.226-90.575,0.61-135.863,2.446c-0.611-33.659-1.225-67.318-1.836-100.979
				c42.841,0,85.067,0.612,127.907,1.836c6.12,0,6.12-9.18,0-9.18c-42.228-3.061-85.066-4.896-128.52-5.508
				c-0.612-39.78-2.448-78.948-4.896-118.729c0-2.447-3.672-2.447-3.672,0c-2.447,39.168-3.06,78.336-3.06,118.116
				c-41.005-0.612-82.621,0.612-123.625,3.061c-1.836-40.393-4.284-80.784-7.956-121.177c0-3.672-5.508-3.672-5.508,0
				c-1.224,40.393-0.612,80.784,0,121.788c-36.108,2.448-71.604,5.508-107.1,9.792c-2.448,0.612-2.448,4.284,0,4.284
				c36.108-1.225,71.604-1.836,107.712-3.061c0.612,35.495,2.448,71.604,3.672,107.1c-29.376,1.837-58.14,4.896-86.904,9.181
				c-2.448,0.612-1.836,3.672,0.612,3.672c28.764,0,58.14-1.224,86.904-3.06c1.836,41.004,4.284,82.619,6.12,123.012
				c0,5.508,8.568,5.508,8.568,0c-0.612-41.004-1.224-82.62-1.836-124.236c28.152-1.836,56.916-3.672,85.067-4.283
				c12.24-0.611,25.093-0.611,37.332-1.225c1.225,38.557,3.061,77.112,4.896,115.668c0,5.508,9.181,6.12,9.181,0
				c-1.225-38.556-1.225-77.111-1.836-115.668c45.288-0.611,90.576-1.224,135.252-3.061
				C403.309,254.862,403.309,243.847,395.964,243.847z M205.021,248.742c-26.316,1.225-52.632,2.448-78.948,4.284
				c-0.612-35.496-1.836-70.991-3.06-106.487c41.004-0.611,82.008-1.225,123.012-1.225c0,33.66,1.224,67.932,1.836,101.592
				C233.784,247.519,219.097,248.13,205.021,248.742z"/>
			<path d="M185.437,175.915c-1.836,3.061-3.06,6.731-4.896,9.792c-1.836-2.447-3.672-4.283-6.12-6.731
				c-7.956-8.568-23.256,3.061-16.524,12.853c6.12,9.181,12.24,18.972,22.032,23.255c1.836,0.612,3.06,0.612,4.284,0.612
				c3.672,0.611,7.344-1.225,9.792-5.508c4.284-8.568,7.956-17.136,11.017-26.315C208.692,172.854,190.944,164.898,185.437,175.915z
				"/>
			<path d="M48.348,60.247c-1.224,3.672-2.448,7.345-3.672,10.403c-1.836-1.836-3.672-3.672-5.508-4.896
				C28.152,56.573,15.3,71.263,24.48,80.442l0,0c6.12,6.12,12.24,11.628,18.36,17.748c5.508,5.508,15.912,3.061,18.36-4.896
				c0-0.611,0-0.611,0-1.225c1.836-1.224,3.06-3.06,3.672-5.508l4.896-21.42C73.44,51.679,53.856,47.395,48.348,60.247z"/>
			<path d="M355.572,313.614c-4.896-2.448-12.24-1.224-14.688,3.672c-1.837,4.284-3.673,8.568-6.12,12.853
				c-3.672-3.061-6.731-6.119-10.403-9.18c-10.404-8.568-25.093,5.508-14.688,14.688c4.284,3.672,8.568,7.956,12.854,11.628
				c3.06,3.06,6.119,5.508,8.567,8.567c4.283,4.896,14.075,4.283,17.136-2.447c0.612-1.225,0.612-1.836,1.225-3.061
				c4.896-6.12,7.956-16.523,10.404-23.257C362.305,323.406,361.08,317.286,355.572,313.614z"/>
			<path d="M190.333,296.479c-3.672,3.06-6.732,7.344-6.12,11.628v0.611c-1.224-1.225-2.448-2.447-3.672-3.672
				c-9.18-8.567-20.196,2.447-15.3,12.239l0,0c3.672,7.345,10.404,14.688,15.912,20.809c5.508,6.12,16.524,3.061,17.748-4.896
				c1.836-8.567,4.896-15.912,9.18-23.256C214.2,298.926,199.512,288.522,190.333,296.479z"/>
			<path d="M95.472,301.374c-7.344,1.837-14.076,6.12-20.808,10.404c-0.612-0.612-0.612-0.612-1.224-1.225
				c-1.224-1.836-3.06-3.672-4.896-4.896c-1.224-1.224-3.06-5.508-3.672-3.06l0,0c0-0.612,0-1.837-0.612-2.448
				c-2.448-3.061-6.732-3.061-8.568,0c-4.284,6.12,2.448,14.076,7.344,19.584c-4.896,3.06-9.18,7.344-11.628,11.628
				c-1.224,2.448,0.612,4.896,3.06,4.284c5.508-1.225,10.404-4.896,14.688-7.956c5.508,7.344,12.852,17.136,21.42,18.359
				c4.284,0.611,7.956-2.447,6.732-6.731c-1.224-7.956-9.792-13.464-15.3-18.973c5.508-3.061,11.628-5.509,17.136-9.792
				C103.428,307.494,100.98,299.538,95.472,301.374z"/>
			<path d="M82.62,177.139c-10.404,3.06-20.808,8.567-30.6,15.912c-3.06-2.448-6.12-4.896-9.18-6.732
				c-4.284-2.447-9.792,2.448-7.344,7.345c1.836,3.061,3.672,5.509,5.508,7.955c-4.896,3.672-9.18,7.956-12.852,11.628
				c-3.672,3.062-0.612,9.792,3.672,9.181c1.836,0,3.06,0,4.896-0.611c2.448,0,4.284-2.448,4.284-4.284
				c3.06-1.836,6.732-4.284,9.792-6.12c4.896,4.284,9.792,8.568,14.076,13.464c0,0.612,0,1.226,0.612,1.836
				c1.224,2.448,3.06,3.673,5.508,4.284c6.12,1.225,10.404-3.672,9.792-9.792c-1.224-7.344-12.24-12.852-17.748-17.136l0,0
				c8.568-5.508,17.136-9.792,24.48-17.136C92.412,182.035,88.128,175.303,82.62,177.139z"/>
			<path d="M186.66,57.799c-7.344,2.447-13.464,8.566-18.972,13.464c-4.896-4.896-9.792-10.404-15.912-12.854
				c-4.284-1.836-7.956,1.837-6.12,6.12c2.448,5.509,7.344,10.404,11.628,14.688c-4.284,3.06-8.568,6.73-12.24,10.403
				c-4.284,3.672,1.224,9.792,5.508,7.345c4.896-2.448,9.792-6.12,14.688-9.182c4.284,5.509,9.792,12.24,15.912,14.076
				c4.284,1.225,7.344-2.447,6.732-6.73c-1.224-5.509-6.732-10.404-11.628-14.688c6.12-3.672,12.24-7.344,16.524-12.852
				C196.452,62.694,191.556,56.574,186.66,57.799z"/>
			<path d="M342.721,52.902c-6.731,1.225-12.239,4.896-18.359,8.568c-3.061-3.062-6.12-6.12-9.181-9.181c0,0,0-0.611-0.611-0.611
				c-1.225-0.612-1.836-1.836-3.062-3.062c-3.672-4.283-11.016,1.226-7.955,6.12c3.061,4.284,6.119,9.181,9.792,13.464
				c-5.509,3.062-11.017,6.732-15.301,10.404c-3.06,2.448,0,7.956,3.672,6.732c6.12-2.448,12.24-5.509,18.36-8.568l0,0
				c4.896,6.12,9.792,15.912,18.359,18.36c3.061,1.224,7.345-1.837,6.731-5.509c-1.224-7.956-7.344-13.465-12.852-18.973
				c5.508-2.448,11.016-4.896,14.688-8.567C351.9,57.799,347.616,51.679,342.721,52.902z"/>
			<path d="M355.572,172.854c-6.731-0.611-12.853,3.061-18.973,5.508l-0.611-0.611c-1.836-1.836-6.731-5.508-9.181-8.567
				c0-0.612,0-1.225-0.611-1.836c-0.612-1.225-1.836-1.836-3.061-3.061c-3.061-2.447-6.731,0.611-7.956,3.061
				c-2.447,5.508,3.061,12.24,7.956,17.136c-4.284,1.836-7.956,4.284-12.239,6.732c-4.896,3.06-1.837,12.852,4.283,10.402
				c5.508-1.836,11.017-4.283,15.912-6.73c4.896,6.12,9.792,13.464,15.911,15.911c4.896,2.447,11.629-1.225,9.181-7.345
				c-1.836-5.508-6.731-10.402-11.017-14.688c4.896-1.225,9.181-3.061,12.853-6.12C364.141,179.586,360.469,172.854,355.572,172.854
				z"/>
		</g>
	</g>
</g>
<g>
</g>
<g>
</g>
<g>
</g>
<g>
</g>
<g>
</g>
<g>
</g>
<g>
</g>
<g>
</g>
<g>
</g>
<g>
</g>
<g>
</g>
<g>
</g>
<g>
</g>
<g>
</g>
<g>
</g>
</svg>
