<?xml version="1.0" ?><!DOCTYPE svg  PUBLIC '-//W3C//DTD SVG 1.1//EN'  'http://www.w3.org/Graphics/SVG/1.1/DTD/svg11.dtd'><svg enable-background="new 0 0 512 512" height="512px" id="Layer_1" version="1.1" viewBox="0 0 512 512" width="512px" xml:space="preserve" xmlns="http://www.w3.org/2000/svg" xmlns:xlink="http://www.w3.org/1999/xlink"><g><path clip-rule="evenodd" d="M438.23,120.379c-63.449-25.439-125.316-58.617-192.76-51.78   C190.028,67.18,139.5,70.68,92.812,92.36c-27.017,12.504-57.279,24.183-61.45,61.282c-2.833,25.506,1.338,50.274,6.842,74.86   c1.913,8.515,5.749,17.854,16.502,14.767c21.095-6.003,42.608-1.668,63.785-4.747c29.347-4.171,35.436-8.764,36.601-38.777   c0.83-22.265,10.754-35.603,31.936-41.683c36.514-10.596,73.782-11.593,111.302-10.011c16.925,0.671,25.018,10.087,27.261,27.683   c4.258,33.849,31.854,57.284,65.953,57.523c20.683,0.259,41.289-0.825,61.867-1.333c14.086-0.326,22.764-6.578,25.756-21.009   C485.59,179.571,467.256,132.048,438.23,120.379z M454.32,200.331c-8.744,16.176-26.59,2.589-37.674,7.834   c-8.592,0.422-15.516,1.083-22.342,0.911c-24.932-0.403-41.357-14.997-45.279-39.506c-4.334-27.606-17.087-42.938-43.188-45.192   c-44.358-3.672-88.549-1.755-131.482,12.254c-27.266,8.927-42.191,27.846-42.608,55.941c-0.331,17.682-8.337,21.431-23.766,22.515   c-50.188,3.337-62.361-10.5-51.775-60.362c4.67-22.093,24.265-28.929,40.522-37.186c16.757-8.591,35.604-15.179,54.196-17.845   c71.538-10.25,142.984-15.505,211.353,17.336c15.764,7.508,33.023,11.842,49.526,17.845c4.996,1.841,10.097,3.759,14.671,6.425   C443.648,151.476,461.752,186.657,454.32,200.331z" fill-rule="evenodd"/><path clip-rule="evenodd" d="M381.742,243.48c-6.06,1.697-9.07,6.501-8.38,12.11   c0.786,6.674,2.991,13.271,5.265,19.647c11.784,33.14,24,66.365,24.576,101.949c0.479,30.128-7.346,36.619-37.109,34.069   c-51.847-4.44-103.54-7.479-155.368,1.39c-22.52,3.874-45.686,3.941-68.359,7.087c-22.011,3.068-32.401-5.763-36.193-27.3   c-4.795-27.232-4.382-53.209,9.411-77.9c8.323-14.881,13.036-30.952,15.184-47.771c0.906-7.066,0.46-14.431-8.515-16.147   c-8.615-1.659-13.002,4.258-14.575,11.334c-3.663,16.503-8.875,32.314-16.526,47.446c-8.381,16.588-13.223,34.184-12.638,53.055   c0.643,7.604,0.992,15.256,1.971,22.821c6.693,51.339,20.649,62.932,72.597,57.409c72.938-7.768,145.746-17.117,219.206-6.521   c2.991,0.432,6.099,0.01,9.147-0.239c29.16-2.243,39.957-10.97,44.186-39.736c7.729-52.298-13.491-98.909-30.972-146.086   C392.636,244.698,387.994,241.726,381.742,243.48z" fill-rule="evenodd"/><path clip-rule="evenodd" d="M346.359,312.895c-2.512-46.286-35.354-103.982-97.47-100.635   c-45.686,2.493-84.205,40.35-83.629,85.868c0.758,57.37,31.27,89.301,84.632,88.63   C311.418,386.009,348.854,358.911,346.359,312.895z M189.942,297.379c0.167-30.022,30.181-59.028,60.697-60.697   c43.27-2.33,67.865,38.94,70.867,75.369c2.675,31.939-23.925,49.698-70.449,50.197C209.954,362.67,189.779,341.238,189.942,297.379   z" fill-rule="evenodd"/></g></svg>