<?xml version="1.0" encoding="iso-8859-1"?>
<!-- Generator: Adobe Illustrator 19.0.0, SVG Export Plug-In . SVG Version: 6.00 Build 0)  -->
<svg version="1.1" id="Layer_1" xmlns="http://www.w3.org/2000/svg" xmlns:xlink="http://www.w3.org/1999/xlink" x="0px" y="0px"
	 viewBox="0 0 511.999 511.999" style="enable-background:new 0 0 511.999 511.999;" xml:space="preserve">
<g>
	<g>
		<path d="M202.61,97.703c-1.284-4.419-6.43-6.011-10.581-5.596c-4.451,0.444-8.367,3.034-10.002,7.287
			c-1.811,4.713,0.444,10.171,4.437,13.039c3.854,2.768,11.024,2.832,14.193-1.061c0.773-0.95,0.888-2.615-0.419-3.253
			c-2.785-1.358-4.992,0.244-7.891,0.186c-3.396-0.069-6.13-4.373-4.264-7.405c3.064-4.979,8.923-1.769,13.198-1.452
			C202.177,99.515,202.846,98.515,202.61,97.703z"/>
	</g>
</g>
<g>
	<g>
		<path d="M230.316,93.771c-0.836-3.873-2.763-7.916-7.18-8.309c-3.736-0.332-7.476,0.727-9.731,3.888
			c-2.164,3.034-2.885,8.003-1.465,11.463c0.808,1.972,3.312,2.046,4.101,0.001c1.085-2.815,0.933-10.137,5.922-8.974
			c1.17,0.273,1.284,0.868,1.684,2.06c0.367,1.094,0.666,2.3,0.799,3.446c0.261,2.247-0.748,4.452,0.459,6.498
			c0.52,0.881,1.616,1.328,2.604,1.06C231.982,103.69,231.058,97.211,230.316,93.771z"/>
	</g>
</g>
<g>
	<g>
		<path d="M183.4,82.248c-3.137-3.032-7.089-2.3-10.12,0.428c-2.613,2.352-3.786,5.49-3.245,8.947
			c0.209,1.334,0.564,2.873,1.882,3.551c0.832,0.428,1.921,0.349,2.291-0.617c0.88-2.298,0.804-5.002,2.791-6.807
			c0.362-0.329,1.186-1.095,1.597-1.124c-0.294,0.021,0.29,0.292,0.519,0.667c0.808,1.324,0.05,3.357-0.077,4.83
			c-0.133,1.538,1.286,2.864,2.697,3.055c1.62,0.218,2.848-0.763,3.411-2.229C186.559,89.27,186.363,85.112,183.4,82.248z"/>
	</g>
</g>
<g>
	<g>
		<path d="M234.631,115.226c-0.234-1.119-1.52-2.103-2.667-2.031c-2.81,0.175-5.675,2.331-8.24,3.376
			c-4.217,1.718-8.404,3.057-12.946,3.603c-4.761,0.572-9.198-0.391-13.885-1.023c-2.846-0.384-12.915-5.265-12.591,0.089
			c0.386,6.36,4.418,12.423,8.65,16.927c4.941,5.258,12.627,6.996,19.588,5.954c6.578-0.985,12.72-4.564,16.334-10.189
			C231.323,128.119,235.589,119.801,234.631,115.226z M227.67,121.687c-0.625,1.829-1.298,3.674-2.179,5.405
			c-0.051,0.004-0.1,0-0.152,0.009c-3.015,0.492-5.407,2.679-8.293,3.729c-3.044,1.108-6.226,1.572-9.462,1.526
			c-3.391-0.047-7.095-0.726-10.364-1.684c-0.852-0.25-1.662-0.677-2.478-1.071c-0.297-0.416-0.587-0.842-0.864-1.287
			c-0.879-1.416-1.628-3.108-2.443-4.738c0.21,0.058,0.42,0.121,0.63,0.175c4.673,1.19,9.865,2.073,14.692,2.194
			c4.793,0.12,9.926-0.786,14.45-2.334c2.234-0.764,4.524-1.596,6.698-2.525C227.811,121.312,227.727,121.521,227.67,121.687z"/>
	</g>
</g>
<g>
	<g>
		<path d="M240.083,411.078c-9.093-4.287-17.596-8.231-25.058-15.186c-7.242-6.75-13.827-14.521-18.197-23.444
			c-9.737-19.881-10.302-42.087-10.632-63.802c-0.037-2.411-3.555-2.368-3.715,0c-0.835,12.394-2.809,24.094-1.754,36.572
			c0.98,11.595,3.711,22.105,8.713,32.639c9.369,19.729,27.292,34.224,48.899,37.357
			C240.623,415.544,242.63,412.279,240.083,411.078z"/>
	</g>
</g>
<g>
	<g>
		<path d="M270.397,401.806c-1.921-3.619-2.227-9.306-3.531-13.266c-1.122-3.407-2.472-6.724-3.944-9.994
			c-3.584-7.962-7.793-15.702-12.559-23.018c-9.138-14.025-20.123-27.445-34.047-36.944c-2.97-2.027-5.358,2.185-3.519,4.56
			c5.697,7.356,12.768,13.647,18.765,20.781c5.705,6.786,10.792,14.028,15.414,21.589c4.335,7.091,8.246,14.462,11.628,22.056
			c1.904,4.274,4.265,16.94,10.447,16.581C270.247,404.082,270.97,402.885,270.397,401.806z"/>
	</g>
</g>
<g>
	<g>
		<path d="M291.759,280.87c-14.834,9.466-26.443,26.717-29.744,44.077c-2.985,15.7-1.467,36.964,8.633,49.952
			c1.6,2.058,4.938-0.595,3.588-2.768c-8.125-13.081-9.042-33.513-4.993-48.11c2.134-7.692,5.868-14.675,10.11-21.389
			c4.374-6.922,10.177-12.584,15.064-19.104C295.605,281.944,293.318,279.875,291.759,280.87z"/>
	</g>
</g>
<g>
	<g>
		<path d="M275.961,279.828c-15.928,11.121-28.949,27.608-34.292,46.418c-0.621,2.185,2.663,3.052,3.376,0.931
			c5.98-17.783,20.336-31.271,33.607-43.862C280.443,281.615,278.062,278.36,275.961,279.828z"/>
	</g>
</g>
<g>
	<g>
		<path d="M177.109,285.093c1.012-2.132-2.042-4.001-3.208-1.876c-6.087,11.088-11.492,22.352-14.058,34.825
			c-2.635,12.806-1.522,24.151,2.444,36.517c0.672,2.095,4.207,1.867,4.026-0.545c-0.911-12.109-2.847-23.255-0.558-35.393
			C167.945,307.013,172.052,295.74,177.109,285.093z"/>
	</g>
</g>
<g>
	<g>
		<path d="M485.263,495.532c-1.505-1.937-3.507-3.133-5.721-4.129c-0.883-0.397-2.076-0.695-3.259-1.039
			c0.76-1.346,0.963-2.992,0.746-4.476c-0.579-3.971-3.847-6.493-7.353-7.882c-4.306-1.706-9.287-2.068-13.875-2.129
			c-2.732-0.037-5.46,0.11-8.186,0.279c-0.066,0.004-0.136,0.005-0.203,0.009c0.368-0.497,0.672-0.947,0.818-1.283
			c0.808-1.864,1.291-3.819,1.085-5.861c-0.601-5.954-6.402-8.425-11.654-9.173c-6.432-0.916-13.161-0.156-19.405,1.526
			c-3.11,0.838-6.131,1.956-9.117,3.156c1.242-2.292,2.321-4.663,2.566-7.419c0.532-6.003-3.215-10.43-9.183-11.188
			c-6.929-0.88-14.851,2.034-20.658,5.617c-1.409,0.87-2.698,1.825-3.931,2.825c0.369-1.174,0.693-2.362,0.892-3.591
			c0.98-6.051-1.754-11.571-8.357-12.049c-9.115-0.66-18.22,5.7-24.82,11.328c-2.423,1.388-4.71,3.012-6.909,4.943
			c-1.822,1.6-3.345,3.358-4.759,5.185c-0.831-3.636-2.773-8.474-5.282-11.225c-1.846-2.023-4.291-3.295-6.918-3.879
			c6.16-6.525,9.632-14.852,5.61-23.484c-2.493-5.351-6.637-8.018-11.466-8.978c6.532-8.327,8.265-20.672,4.822-30.381
			c-2.76-7.781-6.492-14.818-7.148-23.222c-0.681-8.738,1.754-17.221,4.775-25.328c5.426-14.562,14.121-27.451,18.737-42.349
			c2.628-8.482,4.396-17.421,5.324-26.256c0.7-6.67,0.51-14.401-2.03-20.654c-0.089-0.219-0.201-0.42-0.318-0.616
			c3.872-3.058,7.009-6.852,8.702-10.974c2.2-5.355,2.406-12.167-0.913-17.154c-2.218-3.333-5.581-4.276-9.099-4.478
			c0.777-1.006,1.554-2.011,2.326-3.016c8.373-10.903,17.702-29.013,11.871-42.881c-2.545-6.052-6.163-11.581-12.383-14.322
			c-2.914-1.284-5.505-1.934-8.035-2.109c1.701-3.334,1.587-7.585-0.534-11.012c-4.185-6.762-13.427-5.544-20.005-4.226
			c-4.136,0.829-7.804,2.615-10.981,5.085c-4.191-1.278-8.87-0.256-13.066,0.617c-1.39,0.289-2.878,0.514-4.296,0.876
			c-1.008-2.615-2.961-4.904-5.794-6.524c-3.057-1.748-6.162-2.335-9.129-1.945c0.138-0.28,0.28-0.557,0.392-0.857
			c0.155-0.413,0.179-0.67,0.14-0.83c1.664-0.333,3.93,0.5,5.753,0.226c2.681-0.403,4.989-1.485,7.09-3.208
			c2.019-1.655,3.587-3.734,4.692-6.026c3.883,0.206,8.783-0.962,12.24-2.301c4.24-1.642,8.223-4.954,10.7-8.773
			c5.164-7.96,0.44-16.076-4.911-22.476c-0.437-0.523-0.884-1.033-1.33-1.544c0.476-0.191,0.961-0.385,1.471-0.571
			c1.969-0.718,4.134-0.863,6.204-1.041c4.248-0.366,4.264-6.263,0-6.619c-2.199-0.183-4.362-0.056-6.517,0.451
			c-0.35,0.082-0.698,0.208-1.046,0.349c0.883-2.581,1.836-5.15,0.349-7.707c-1.352-2.323-5.11-1.899-5.79,0.757
			c-0.334,1.306-0.578,2.776-0.727,4.262c-0.209,0.463-0.409,0.892-0.515,1.203c-0.175,0.515-0.348,1.036-0.506,1.561
			c-2.353-2.246-4.777-4.41-7.252-6.534c1.724-6.981,3.773-13.884,3.519-21.172c-0.255-7.3-1.713-14.748-4.553-21.479
			c-5.651-13.398-16.091-21.292-29.322-26.561c-13.025-5.187-30.07-2.81-42.483,3.121c-12.285,5.87-25.822,13.139-31.234,26.409
			c-5.424-0.197-10.931-0.113-16.372,0.407c1.176-0.69,2.334-1.41,3.413-2.251c2.169-1.689-0.188-5.678-2.721-4.675
			c-2.956,1.171-5.75,2.743-8.38,4.538c0.334-1.04,0.658-2.084,0.954-3.138c0.829-2.944-2.752-4.655-4.86-2.829
			c-1.961,1.699-3.665,5.206-3.984,8.144c-1.687-1.343-3.343-2.709-5.145-3.902c-2.269-1.502-4.71,1.387-3.549,3.549
			c0.91,1.696,2.596,3.475,4.306,5.006c-4.144,1.577-8.118,3.588-11.826,6.157c-8.986,6.227-3.56,18.738,2.299,25.143
			c3.571,3.904,8.638,7.125,12.988,10.083c2.037,1.386,4.308,3.107,6.805,3.101c-0.362,1.584-0.678,3.162-0.945,4.705
			c-1.972,11.411-1.303,23.079,0.961,34.408c2.218,11.095,9.643,19.064,18.955,24.865c-1.249,0.976-2.335,2.16-3.054,3.147
			c-2.425,3.327-2.367,7.685,1.157,10.22c1.437,1.034,3.078,1.471,4.796,1.652c-0.397,1.155-0.704,2.346-1.084,3.315
			c-1.778,4.538-3.2,9.654-5.629,13.871c-2.175,3.777-5.855,5.912-8.43,9.339c-2.035,2.708-3.574,5.642-4.723,8.814
			c-1.222,3.375-1.86,7.422-1.004,10.956c0.633,2.612,2.211,3.131,3.935,4.75c1.991,1.87,3.233,5.148,4.147,7.69
			c2.358,6.554,0.415,15.135-1.228,21.728c-2.275,9.131-6.361,17.774-11.281,25.764c-8.304,13.486-17.553,26.857-23.458,41.62
			c-11.764,29.406-12.035,63.909,10.987,87.906c4.977,5.188,9.683,10.408,15.571,14.617c6.483,4.635,14.295,7.563,19.095,14.188
			c3.641,5.026,6.71,9.558,11.723,13.429c2.437,1.882,5.008,3.519,7.671,4.986c-5.775,2.365-10.766,7.564-13.751,13.461
			c-1.094-2.49-2.489-4.874-3.949-7.157c-3.44-5.378-7.815-10.921-14.366-12.426c-5.1-1.173-9.639,0.52-11.564,5.581
			c-1.15,3.023-1.421,6.518-1.668,9.721c-0.03,0.393-0.046,1.322-0.049,2.457c-1.893-1.856-3.984-3.518-6.133-5.061
			c-5.441-3.905-12.356-7.26-19.033-8.273c-4.955-0.752-10.762,0.257-13.098,5.252c-1.068,2.283-1.313,4.768-1.116,7.291
			c-0.99-0.527-2.001-1.021-3.052-1.467c-5.151-2.185-10.637-3.357-16.228-2.636c-4.083,0.527-7.857,1.952-9.47,6.05
			c-0.854,2.169-0.865,4.414-0.447,6.678c0.014,0.076,0.049,0.164,0.069,0.244c-8.369-2.27-18.522-4.512-22.988,2.253
			c-1.595,2.416-0.663,4.422-1.228,6.922c-0.018,0.083,0.205,0.705,0.413,0.691c-0.531,0.32-2.753,0.372-3.243,0.433
			c-1.854,0.229-3.718,0.361-5.567,0.645c-5.693,0.873-11.444,2.855-16.226,6.127c-7.727,5.289-16.023,19.95-3.491,24.942
			c6.609,2.632,15.149,2.078,22.131,1.941c8.635-0.169,17.248-1.125,25.841-1.926c8.384-0.782,16.791-1.948,25.205-2.318
			c4.107-0.18,8.515-0.22,12.485,0.966c3.955,1.181,7.649,2.751,11.732,3.587c8.537,1.748,17.733,2.356,26.437,2.638
			c8.826,0.286,17.606,1.245,26.423,1.499c9.057,0.261,17.947-1.023,26.959-1.501c8.606-0.457,17.237-0.613,25.849-1.055
			c17.449-0.894,34.628,1.285,52.026,1.04c9.968-0.141,19.892-1.35,29.864-1.202c9.826,0.146,19.601,1.2,29.407,1.734
			c16.396,0.893,32.66,1.7,48.945,0.198c4.753,0.135,9.5-0.01,14.142-0.354c13.485-1,27.58-0.022,41.05,0.975
			c6.525,0.483,13.08,0.395,19.618,0.219c4.956-0.133,12.065-0.436,15.835-4.183C488.349,504.316,488.028,499.091,485.263,495.532z
			 M342.3,218.591c2.953,3.919,0.705,10.64-1.478,14.206c-2.561,4.183-6.201,6.122-10.5,8.093c-2.5,1.146-4.951,1.698-7.439,2.235
			c0.766-2.836,0.916-5.848,1.32-8.73c4.433-0.095,8.291-2.309,11.846-4.879c2.067-1.495,0.872-4.741-1.76-4.175
			c-2.405,0.516-5.24,1.128-7.844,2.068c0.146-0.23,0.287-0.463,0.453-0.686c2.882-3.865,5.845-7.712,8.812-11.55
			C337.896,216.26,340.721,216.497,342.3,218.591z M337.026,157.593c6.272,2.133,11.029,9.401,11.145,15.913
			c0.248,13.909-8.02,24.577-15.522,35.265c-3.177,4.526-6.598,8.704-9.974,13.061c-2.88,3.715-4.349,6.888-4.581,11.63
			c-0.328,6.694-1.925,12.154-7.191,16.693c-3.759,3.24-7.076,5.024-11.286,5.462c1.634-1.774,2.949-3.78,3.737-5.79
			c0.886-2.259-2.261-3.579-3.783-2.202c-1.71,1.548-18.278,13.903-14.95,5.101c1.373-3.633,5.359-3.824,6.842-7.72
			c1.163-3.054,0.97-6.705-0.722-9.526c-2.267-3.779-5.494-2.932-9.216-3.398c-1.297,0.192-2.453-0.228-3.471-1.242
			c0.678-1.179,1.82-2.007,3.065-2.549c3.76-1.634,7.571,0.016,11.329,0.366c5.218,0.486,9.686-0.686,12.982-4.832
			c4.048-5.093,7.739-10.82,9.488-17.154c1.521-5.507,0.471-11.553-3.119-16.066c-1.322-1.662-3.492-3.767-5.761-4.042
			c-0.662-4.265-1.386-7.946,0.306-12.624C311.436,159.854,322.235,152.563,337.026,157.593z M183.346,215.849
			c1.504,3.12,5.8,5.54,8.644,7.214c8.436,4.966,17.527,7.847,27.138,9.408c10.218,1.66,20.588,2.68,30.893,3.621
			c5.572,0.509,12.219,1.476,18.429,1.033c0.759,0.297,1.534,0.502,2.146,0.621c2.749,0.536,5.501,0.309,8.19-0.361
			c0.085-0.021,0.157-0.052,0.233-0.08c0.607,0.097,1.219,0.163,1.829,0.163c3.749-0.002,9.192-1.832,6.196,4.845
			c-1.702,3.794-6.805,5.387-7.956,9.354c-5.165-0.225-10.251,1.07-15.436,1.073c-3.823,0.002-7.612-0.376-11.427-0.716
			c-11.97-1.065-23.728-2.918-35.403-5.773c-11.132-2.722-21.934-7.925-30.754-15.272c-4.364-3.636-8.282-7.879-11.22-12.758
			c-1.193-1.982-3.506-4.532-3.436-6.903c0.083-2.801,2.521-5.101,4.278-7.025c1.335-1.463,3.548-3.94,5.548-4.273
			c3.811-0.634,3.389,3.855,2.672,8.296C183.401,211.469,182.743,214.598,183.346,215.849z M199.054,192.46
			c-0.992-2.64-1.905-4.846-1.013-7.701c0.564-1.807,1.745-3.839,2.682-5.512c0.415-0.742,0.844-1.475,1.275-2.208
			c-0.217,2.07-0.328,4.147-0.246,6.233c0.303,7.696,2.049,20.099,11.199,22.318c9.658,2.343,12.324-8.834,12.82-15.692
			c0.08-1.106,0.113-2.212,0.126-3.317c0.794,0.382,1.682,0.599,2.632,0.736c1.008,0.145,1.987,0.245,2.922,0.188
			c-1.842,9.56-1.857,20.449,7.191,24.011c5.362,2.111,11.068-0.656,15.03-4.321c3.268-3.024,4.946-6.651,5.909-10.607
			c0.965,3.037,2.397,5.805,3.64,7.34c3.034,3.747,7.28,3.847,10.812,6.665c4.531,3.615-1.162,8.75,1.69,13.229
			c0.003,0.004,0.006,0.006,0.008,0.01c-0.623,0.451-1.195,0.982-1.692,1.623c-1.398,1.805-2.212,3.758-2.065,5.635
			c-5.811-1.251-12.135-1.076-17.82-1.855c-9.373-1.285-18.789-2.244-28.15-3.627c-8.804-1.3-16.803-3.264-24.825-7.142
			c-2.68-1.296-6.013-2.59-8.55-4.526c2.018-0.931,3.838-2.344,4.938-3.744C200.922,205.932,200.9,197.372,199.054,192.46z
			 M190.907,155.601c-1.674-0.417-8.329-0.558-9.444-2.028c-0.817-1.077,0.242-3.211,1.256-5.194
			c7.916,4.114,16.703,6.924,24.641,8.922c-1.037,1.416-1.822,3.036-2.425,4.716C200.755,158.783,196.576,157.015,190.907,155.601z
			 M218.309,192.242c-0.212,1.544-0.257,4.216-1.879,5.147c-3.726,2.138-4.791-2.132-5.632-4.322
			c-1.67-4.353-2.05-9.127-1.844-13.788c0.19-4.285,0.901-8.6,1.481-12.846c0.371-2.715,1.172-5.406,1.324-8.149
			c3.076,0.55,6.247,0.812,9.384,1.07c-1.664,2.579-2.228,6.393-2.464,8.945C217.937,176.304,219.401,184.294,218.309,192.242z
			 M225.634,173.729c0.033-5.063,1.278-8.989,2.671-13.717c0.007-0.023,0.005-0.047,0.011-0.07
			c4.833,0.225,9.729-0.187,14.441-1.279c0.255-0.059,0.514-0.154,0.771-0.232c-3.746,5.548-7.128,11.192-9.117,17.692
			c-0.441,1.441-0.952,3.137-1.456,4.992c-1.261-0.412-2.652-0.334-4.112-0.122c-1.032,0.15-2.062,0.241-3.019,0.539
			C225.738,178.938,225.617,176.341,225.634,173.729z M283.348,211.844c-1.027-4.529-4.117-6.768-8.118-8.533
			c-1.988-0.878-4.379-1.32-6.101-2.712c-2.348-1.896-3.063-4.694-4.062-7.374c-0.559-1.499-0.732-3.446-1.074-5.278
			c2.303-0.278,4.655-0.887,6.262-0.931c2.823-0.077,5.653-0.28,8.448,0.067c0.42,0.052,0.81,0.102,1.189,0.148
			c0.588,1.666,1.46,3.27,2.717,4.772c1.893,2.261,4.183,4.242,6.691,5.59c0.417,4.555,1.954,9.373,2.6,13.774
			c0.518,3.535,0.274,7.772,1.033,11.454c-0.867-0.101-1.805-0.258-2.839-0.438c-2.417-0.421-5.348-0.793-8.147-0.573
			C283.31,218.776,283.996,214.698,283.348,211.844z M297.081,199.383c1.788-0.154,3.595-0.718,5.373-1.799
			c1.88-1.143,3.09-2.391,3.676-3.999c0.716,1.587,1.278,3.175,1.472,4.111c0.814,3.928-0.446,7.216-1.974,10.807
			c-1.314,3.089-2.77,6.393-4.401,9.395c-0.302-2.231-0.876-4.482-1.235-6.452C299.204,207.122,298.594,203.122,297.081,199.383z
			 M296.187,153.849c4.421-7.329,9.418-12.351,18.144-13.733c3.078-0.488,7.263-1.749,10.127,0.097
			c3.289,2.12,2.363,5.55,0.705,8.403c-8.093,1.485-15.476,8.54-20.199,14.702c-2.941,3.836-5.247,8.264-6.395,12.977
			c-1.222,5.017,0.415,9.423,0.419,14.216c-8.666,6.065-13.626-8.103-12.905-13.975
			C287.097,168.274,291.984,160.817,296.187,153.849z M283.039,150.484c0.455-0.947,0.786-1.901,1.023-2.851
			c2.382-0.589,4.76-1.278,7.112-1.899c1.296-0.342,2.611-0.62,3.922-0.911c-0.617,0.824-1.203,1.679-1.756,2.562
			c-4.432,7.081-8.972,14.218-11.889,22.088c-1.16,3.129-2.106,6.446-2.412,9.73c-3.254-0.239-6.746,0.302-9.527,0.699
			c-1.952,0.279-4.879,0.76-7.378,1.777c1.38-5.315,3.517-10.48,6.043-15.296C271.665,159.729,279.775,157.271,283.039,150.484z
			 M276.467,143.589c2.578,5.977-8.539,12.005-11.998,15.939c-3.68,4.185-5.969,10.424-7.918,15.598
			c-2.402,6.377-2.558,12.593-4.136,19.107c-1.102,4.549-9.394,16.024-13.486,7.365c-2.79-5.904-0.092-14.331,1.459-20.178
			c1.715-6.465,4.225-12.337,7.657-18.079c1.982-3.316,3.915-6.665,5.931-9.959c0.492-0.803,1.006-1.723,1.545-2.672
			c3.123-2.755,6.036-6.089,8.32-9.543C268.419,140.852,274.127,138.162,276.467,143.589z M217.226,15.116
			c6.128-3.264,12.644-5.075,19.461-6.184c6.138-0.998,8.873-0.189,8.336,7.133c-0.176,2.394-1.161,4.299-2.644,5.755
			c-0.661-0.744-1.41-1.395-2.337-1.847c-2.988-1.456-5.603,2.173-3.803,4.337c0.114,0.197,0.225,0.394,0.354,0.583
			c-0.284,0.072-0.571,0.138-0.862,0.196c-1.685,0.337-3.437,0.399-5.186,0.264c-0.153-1.169-0.332-2.331-0.757-3.462
			c-1.139-3.026-6.484-2.946-6.13,0.83c0.034,0.337,0.058,0.675,0.085,1.013c-1.121-0.458-2.201-0.989-3.207-1.604
			c-2.389-1.459-4.077-3.637-5.908-5.668C215.499,16.018,216.368,15.573,217.226,15.116z M201.841,23.784
			c2.59-1.951,5.427-3.543,8.315-5.044c1.522,3.274,4.315,6.361,6.69,8.17c2.275,1.733,4.891,3.029,7.646,3.902
			c0.43,1.669,1.132,3.222,1.518,4.925c0.837,3.691,7.047,2.971,6.71-0.908c-0.086-0.992-0.313-1.896-0.582-2.781
			c1.119,0.013,2.236-0.021,3.339-0.158c1.631-0.203,3.301-0.611,4.927-1.183c0.042,0.063,0.079,0.128,0.121,0.191
			c1.635,2.449,3.421,4.855,6.703,4.354c1.543-0.236,2.692-2.366,2.151-3.788c-0.598-1.568-1.804-2.785-2.912-4.052
			c1.017-0.825,1.931-1.757,2.695-2.803c3.532-4.831,2.415-9.827,2.13-15.138c1.435,0.334,2.841,0.749,4.196,1.279
			c11.633,4.55,20.86,11.411,25.42,23.415c2.113,5.563,3.243,11.759,3.311,17.707c0.056,4.911-1.142,9.482-2.288,14.122
			c-6.605-5.421-13.438-10.487-21.319-14.072c-10.284-4.677-20.887-8.688-31.786-11.583c-4.845-1.287-9.516-2.912-14.299-4.369
			c-5.29-1.611-10.936-2.097-16.418-2.656c-2.094-0.213-4.223-0.403-6.375-0.561C195.062,29.719,198.236,26.5,201.841,23.784z
			 M162.615,70.799c-0.946,2.057-1.73,4.231-2.395,6.443c-1.307-1.198-2.472-3.216-3.61-4.294c-2.935-2.779-6.009-5.413-8.959-8.179
			c-2.63-2.466-4.336-5.541-5.729-8.853c-2.085-4.957,2.213-6.716,6.193-8.794c15.381-8.03,33.338-7.233,49.991-5.566
			c8.468,0.848,15.715,3.349,23.851,5.405c8.129,2.054,15.823,4.586,23.64,7.613c8.102,3.136,15.495,6.481,22.501,11.587
			c5.145,3.749,10.092,7.585,14.988,11.779c6.576,5.634,13.539,11.646,18.232,19.045c2.813,4.435,2.546,7.84-1.499,11.322
			c-2.65,2.28-7.186,3.877-11.139,4.17c-0.071-3.169-0.948-6.323-2.726-9.077c-1.987-3.078-4.929-5.013-8.407-5.275
			c0.07-0.862-0.109-1.793-0.598-2.803c-1.88-3.883-5.905-6.432-9.454-8.552c-3.505-2.093-6.818-4.465-9.953-7.065
			c-1.014-1.382-2.292-2.588-3.758-3.594c-4.167-2.858-8.408-5.603-12.798-8.125c-9.289-5.337-19.111-9.577-29.616-11.719
			c-5.327-1.086-10.688-1.563-16.122-1.646c-5.274-0.082-11.813-0.826-16.958,0.563c-4.068,1.098-7.541,3.422-10.319,6.533
			c-1.549,1.735-3.222,3.723-4.324,5.783C163.066,68.589,162.814,69.69,162.615,70.799z M173.372,129.792
			c-4.034-4.561-5.671-9.6-6.658-15.506c-0.979-5.857-1.759-12.145-1.543-18.086c0.217-5.972,1.198-11.812,2.79-17.566
			c0.804-2.904,1.654-5.847,2.77-8.65c0.003-0.008,0.034-0.104,0.087-0.266c0.968-1.177,1.978-2.314,3.152-3.295
			c4.156-3.473,7.99-3.23,13.086-3.249c10.56-0.038,20.608,0.242,30.834,3.22c8.848,2.577,18.387,7.006,26.134,12.002
			c1.137,0.733,2.29,1.425,3.422,2.135c0.893,2.203,2.169,4.849,2.214,7.091c0.046,2.302-1.048,5.045-1.62,7.277
			c-1.062,4.139-2.421,8.28-1.3,12.565c1.675,6.402,7.541,8.317,13.64,7.139c6.027-1.164,17.689-16.257,20.699-4.665
			c1.23,4.734-1.222,11.385-6.45,12.602c-3.74,0.87-6.997-2.046-10.385,0.748c-2.237,1.845-3.519,6.036-4.724,8.558
			c-2.068,4.327-5.011,7.423-8.365,10.778c-2.712,2.712-6.444,5.654-10.029,7.173c-4.29,1.817-10.357,1.52-14.874,1.093
			C207.692,149.135,186.238,144.339,173.372,129.792z M168.325,205.645c-3.307,2.78-2.647-2.005-2.309-3.848
			c0.576-3.139,2.531-6.099,4.39-8.603c4.159-5.604,8.803-8.818,10.986-15.763c1.542-4.905,3.277-11.071,3.343-16.6
			c1.974-0.027,3.937-0.079,5.721,0.301c3.46,0.735,6.551,1.875,9.118,4.36c0.57,0.552,1.036,1.047,1.489,1.508
			c-0.855,0.915-1.472,1.998-2.112,3.416c-1.449,3.213-3.492,6.033-4.921,9.308c-1.092,2.503-2.244,5.137-2.032,7.93
			c0.247,3.26,2.445,5.803,3.006,8.97c0.542,3.06,0.426,11.762-4.087,12.572c-4.276,0.766-1.383-4.589-1.136-6.64
			c0.52-4.327-2.146-7.106-6.438-7.259c-5.135-0.183-9.757,3.093-12.765,6.979C169.97,203.062,169.067,205.021,168.325,205.645z
			 M186.88,419.974c-3.544-5.01-8.056-8.735-13.344-11.809c-5.809-3.377-11.524-6.733-16.303-11.538
			c-4.964-4.991-10.555-10.536-14.1-16.641c-14.397-24.793-8.916-55.526,4.208-79.719c7.219-13.308,17.075-25.761,22.898-39.756
			c3.662-8.802,6.352-19.695,5.824-29.896c1.221,1.365,2.537,2.712,3.967,4.143c8.206,8.212,18.055,13.936,29.042,17.718
			c12.578,4.329,26.046,5.948,39.202,7.334c10.15,1.069,22.833,3.161,32.38-1.641c2.319,2.655,6.488,3.846,9.832,3.1
			c1.906-0.425,3.794-1.326,5.536-2.526c6.147,5.593,16.549-1.29,22.315-7.794c0.162,0.035,0.324,0.071,0.499,0.085
			c4.224,0.354,8.752-0.558,13.02-2.359c0.509,6.117,1.354,11.957,0.447,18.27c-1.27,8.836-3.308,17.241-5.964,25.748
			c-4.277,13.704-12.995,25.724-17.798,39.305c-5.226,14.776-6.712,29.358-0.753,44.196c2.881,7.174,7.205,14.323,5.079,22.291
			c-1.279,4.793-4.608,9.291-6.259,14.055c-6.865,0.977-13.897,3.824-18.999,6.442c-3.988,2.046-1.12,7.816,2.928,6.946
			c6.362-1.366,11.705-4.288,18.406-4.319c3.385-0.015,7.209-0.088,9.097,3.124c2.39,4.067-0.203,8.418-2.778,11.637
			c-9.444,11.806-23.971,12.173-37.732,12.184c-26.064,0.021-55.592-1.837-78.329-16.068
			C193.85,429.138,190.479,425.06,186.88,419.974z M473.879,500.427c-0.231,0.571-0.868,0.844-1.448,1.051
			c-4.532,1.619-7.55,1.469-12.101,1.489c-5.6,0.025-11.124-0.504-16.708-0.818c-12.183-0.685-24.568-1.744-36.76-0.972
			c-5.523,0.35-11.206,0.406-16.734,0.106c-13.478-0.731-26.927,0.849-40.455,0.034c-13.694-0.825-27.364-2.337-41.1-2.195
			c-7.153,0.074-14.292,0.596-21.449,0.56c-8.154-0.042-16.237-1.026-24.372-1.443c-15.832-0.812-31.54,0.487-47.341,1.303
			c-15.426,0.797-30.269,3.087-45.78,2.096c-16.091-1.028-32.649,0.251-48.105-5.171c-13.378-4.693-28.826-1.082-42.534,0.457
			c-7.275,0.816-14.552,1.729-21.86,2.203c-3.917,0.254-7.8,0.36-11.719,0.112c-2.228-0.141-10.711,0.229-11.809-1.867
			c-1.119-2.136,1.818-5.859,3.203-7.307c2.308-2.413,5.439-4.072,8.52-5.274c5.721-2.233,11.918-2.255,17.652-4.216
			c2.337-0.799,3.999-2.258,4.456-4.77c0.633-3.481-2.105-6.559,3.254-6.395c2.797,0.086,5.949,0.665,8.636,1.357
			c3.467,0.894,6.635,3.241,10.145,3.753c2.849,0.416,5.992-1.158,5.889-4.486c-0.076-2.452-1.222-3.975-2.172-6.125
			c-2.438-5.516,3.475-5.014,7.264-4.293c3.57,0.68,7.049,2.123,10.11,4.07c2.421,1.54,4.279,4.012,6.795,5.319
			c3.221,1.673,7.637-1.119,6.431-4.944c-0.93-2.95-5.251-11.528-1.173-13.801c2.587-1.442,10.195,2.507,12.403,3.616
			c3.931,1.973,7.557,4.637,10.725,7.678c2.354,2.259,3.871,5.255,6.292,7.387c1.81,1.593,4.204,1.606,6.023,0
			c2.422-2.137,2.081-4.668,1.959-7.6c-0.155-3.724-1.485-13.002,1.705-15.538c6.278-4.993,17.639,15.273,18.826,21.375
			c-0.55,5.456,7.344,5.589,9.043,1.152c1.362-3.559,3.795-7.768,6.356-10.615c2.634-2.93,5.993-5.055,8.658-7.96
			c0.587-0.64,0.931-1.341,1.088-2.046c1.145,0.468,2.296,0.924,3.46,1.357c15.175,5.638,30.441,8.2,46.512,9.503
			c7.98,0.647,15.897,0.829,23.9,0.835c8.159,0.006,15.953,0.012,23.787-2.581c4.005-1.325,8.413-3.583,12.437-6.513
			c1.575,0.494,3.118,1.253,3.917,1.734c2.8,1.686,3.792,4.728,4.773,7.712c1.453,4.418,0.066,9.678,1.734,13.826
			c1.217,3.026,5.296,5.011,7.891,2.083c3.427-3.866,5.996-8.383,9.637-12.071c5.481-5.551,15.944-17.228,24.736-16.117
			c2.559,0.324,1.96,1.16,1.376,3.636c-0.473,2.005-1.253,3.938-1.949,5.871c-1.36,3.771-4.422,9.516-3.308,13.646
			c0.859,3.185,4.867,4.102,7.183,1.896c7.532-7.174,13.213-14.753,24.048-17.043c1.626-0.344,5.908-1.506,6.749,0.117
			c0.497,0.961-0.892,3.425-1.298,4.202c-1.844,3.536-5.306,6.723-6.073,10.765c-0.655,3.457,1.604,6.777,5.062,7.46
			c4.318,0.853,8.693-1.982,12.561-3.471c4.908-1.889,9.925-3.429,15.159-4.074c2.369-0.292,4.834-0.523,7.225-0.396
			c2.254,0.12,4.153-0.163,3.638,2.187c-0.752,3.428-4.559,4.797-3.256,9.04c1.12,3.648,4.703,4.439,8.037,4.395
			c6.753-0.089,19.26-4.05,23.541,3.11c1.422,2.378,0.754,5.61,2.785,7.704C470.864,497.464,474.564,498.737,473.879,500.427z"/>
	</g>
</g>
<g>
	<g>
		<path d="M453.632,430.25c-10.171-21.044-31.501-34.595-52.608-43.139c-8.476-3.431-17.3-5.938-26.339-7.166
			c-13.207-3.724-30.01-4.107-40.169,3.993c-1.969,1.57-0.239,4.673,1.952,4.712c7.134,0.129,14.197-2.358,21.436-2.271
			c3.999,0.048,8,0.52,11.999,0.945c10.091,1.538,20.148,4.661,29.401,8.859c9.232,4.189,17.939,9.628,26.102,15.623
			c8.707,6.394,15.204,14.959,21.841,23.37C450.273,439.01,455.507,434.129,453.632,430.25z"/>
	</g>
</g>
<g>
	<g>
		<path d="M474.797,399.237c-15.082-20.426-39.962-32.751-64.239-38.693c-13.074-3.2-26.913-2.765-40.238-1.511
			c-6.508,0.612-12.949,1.653-19.322,3.112c-4.396,1.006-11.984,2.165-14.026,6.862c-0.392,0.901,0.055,1.953,1.136,1.979
			c4.959,0.119,9.896-1.268,14.75-2.095c6.445-1.098,13-1.817,19.524-2.262c12.287-0.838,24.895-0.994,36.877,2.092
			c11.196,2.884,22.291,7.213,32.273,13.079c10.39,6.105,18.681,13.947,27.82,21.639
			C472.122,405.77,477.309,402.639,474.797,399.237z"/>
	</g>
</g>
<g>
	<g>
		<path d="M294.946,482.596c-2.815-5.068-7.082-7.463-12.904-7.35c-3.024,0.059-6.152,0.639-8.97,1.725
			c-0.819,0.315-1.948,1.055-3.105,1.724c0.181-1.203,0.281-2.429-0.025-3.718c-0.689-2.898-2.703-5.299-5.538-6.311
			c-3.221-1.15-7.383-0.126-10.392,1.204c-1.65,0.729-2.977,1.695-4.291,2.926c-0.068,0.064-0.15,0.161-0.23,0.254
			c-0.018-0.183-0.039-0.361-0.074-0.518c-0.404-1.818-1.113-3.645-2.325-5.084c-1.799-2.137-4.301-2.907-6.978-2.093
			c-3.033,0.922-5.426,3.611-7.309,6.015c-0.784,1-1.467,2.354-2.172,3.692c-0.596-2.975-1.774-7-2.293-7.794
			c-1.589-2.431-4.058-3.725-6.991-3.316c-3.082,0.429-5.309,2.568-6.7,5.218c-0.769,1.466-1.277,3.134-1.667,4.735
			c-0.158,0.647-0.227,1.747-0.337,2.849c-2.472-2.081-4.483-5.369-7.549-6.357c-3.309-1.066-6.448,0.679-7.639,3.905
			c-1.931,5.23,1.856,17.521,9.171,15.137c0.543-0.177,0.693-0.948,0.163-1.249c-2.007-1.14-2.974-4.507-3.484-6.626
			c-0.182-0.757-0.845-2.902-0.477-3.551c0.997-1.76,1.648-0.605,2.697,0.113c2.924,2.004,4.803,5.314,8.323,6.51
			c1.038,0.352,2.428-0.026,3.159-0.835c1.948-2.155,1.777-4.751,2.425-7.481c0.297-1.254,0.588-3.606,1.67-4.404
			c2.044-1.508,2.636,0.897,3.23,2.732c0.909,2.81,1.783,11.754,7.097,9.094c2.723-1.363,4.254-6.897,6.15-9.23
			c1.482-1.824,4.396-5.636,5.841-1.873c1.092,2.843-0.301,5.739,0.975,8.58c0.61,1.357,2.288,1.669,3.573,1.454
			c4.193-0.7,6.029-5.953,10.202-7.403c3.204-1.113,5.932,0.653,5.534,4.126c-0.19,1.654-0.621,2.731-0.092,4.37
			c0.38,1.18,1.548,2.292,2.882,2.194c3.311-0.242,5.964-3.1,9.037-4.23c2.809-1.033,6.542-1.701,9.464-0.802
			c2.86,0.88,4.27,3.342,6.706,4.91C293.763,487.164,296.052,484.588,294.946,482.596z"/>
	</g>
</g>
<g>
</g>
<g>
</g>
<g>
</g>
<g>
</g>
<g>
</g>
<g>
</g>
<g>
</g>
<g>
</g>
<g>
</g>
<g>
</g>
<g>
</g>
<g>
</g>
<g>
</g>
<g>
</g>
<g>
</g>
</svg>
