<?xml version="1.0" encoding="iso-8859-1"?>
<!-- Generator: Adobe Illustrator 19.0.0, SVG Export Plug-In . SVG Version: 6.00 Build 0)  -->
<svg version="1.1" id="Capa_1" xmlns="http://www.w3.org/2000/svg" xmlns:xlink="http://www.w3.org/1999/xlink" x="0px" y="0px"
	 viewBox="0 0 512.001 512.001" style="enable-background:new 0 0 512.001 512.001;" xml:space="preserve">
<g>
	<g>
		<path d="M511.408,342.553c0.296-1.116,0.175-2.397-0.57-3.723c-5.74-10.219-14.327-19.082-21.995-27.877
			c-3.843-4.409-7.651-8.852-11.532-13.227c-2.602-2.933-5.347-6.107-8.596-8.438c2.614-23.091,4.317-46.306,4.713-69.436
			c0.058-3.413-2.895-6.138-6.212-6.212c-6.627-0.149-13.254-0.266-19.882-0.388c2.546-12.939,4.739-25.895,6.693-38.958
			c0.635-4.245-1.615-7.269-5.904-7.75c-5.199-0.583-10.417-1.066-15.646-1.485c1.479-12.295,1.883-24.803,1.369-37.167
			c-0.138-3.329-2.604-5.734-5.916-5.916c-3.141-0.173-6.283-0.326-9.425-0.49c0.738-11.684-0.817-24.479-3.562-35.647
			c-1.109-4.512-3.556-7.772-8.244-8.945c-6.484-1.623-13.824-1.555-20.497-2.106c0.054-4.231,0.353-8.717-0.254-12.792
			c-0.483-3.246-2.064-5.623-5.301-6.702c-4.352-1.45-9.809-1.274-14.355-1.825c-4.65-0.563-9.294-1.17-13.945-1.724
			c-4.907-0.585-9.824-1.118-14.763-1.344c-4.384-0.201-10.416-1.113-14.509,0.794c-2.94,1.37-4.025,3.955-4.125,7.06
			c-0.135,4.203,0.137,8.438,0.203,12.663c-5.334-0.178-10.669-0.337-16.004-0.467c-54.12-1.315-109.094-2.729-162.969,3.479
			c-7.426,0.856-14.808,1.984-22.213,2.998c-5.852,0.801-13.159,0.539-15.822,7.029c-2.245,5.471,0.539,13.701,1.666,19.187
			c1.214,5.914,2.601,11.925,4.411,17.732c-1.648,0.131-3.296,0.262-4.944,0.39c-6.484,0.501-13.033,1.794-19.511,1.183
			c-3.359-0.317-6.854,3.282-6.592,6.591c1.081,13.611,5.215,26.22,10.179,38.76c-6.942,0.745-13.875,1.565-20.795,2.463
			c-4.428,0.575-6.673,3.533-6.062,7.957c1.865,13.487,5.995,26.828,11.055,39.54c-3.696-0.04-7.387-0.125-11.073-0.267
			c-4.416-0.17-6.993,4.223-6.194,8.13c3.16,15.448,6.21,30.952,9.449,46.415c-6.532,5.369-12.293,11.862-18.218,17.845
			c-7.022,7.091-13.881,14.309-20.679,21.615c-6.274,6.743-13.009,13.329-18.658,20.612c-3.452,4.451-5.885,9.161-5.451,14.323
			c-1.48,9.961-0.343,21.121,0.264,31.083c0.674,11.068,1.987,22.111,3.882,33.036c1.837,10.595,3.558,22.239,7.872,32.152
			c4.093,9.406,12.461,12.192,21.984,13.293c93.487,10.814,188.497,4.289,282.251,1.298c46.969-1.499,94.156-1.754,141.026-5.295
			c9.652-0.729,21.976-0.058,30.802-4.539c8.792-4.464,11.078-14.505,13.349-23.267c5.729-22.104,9.296-45.369,9.723-68.222
			C511.96,351.755,512.272,346.846,511.408,342.553z M467.178,302.025c4.303,5.714,9.174,11.177,13.374,16.626
			c3.26,4.23,6.493,8.648,9.895,12.92c-0.857,0.01-1.707,0.017-2.542,0.005l-19.143-0.268c-1.913-0.027-3.825-0.064-5.738-0.093
			C464.542,321.526,465.933,311.789,467.178,302.025z M406.906,107.259c0.332,4.548,0.454,9.105,0.671,13.658
			c-6.801-0.333-13.604-0.646-20.407-0.941c0.27-4.551,0.158-9.318-0.169-13.876C393.642,106.7,400.287,107.148,406.906,107.259z
			 M328.978,63.584l0.312-1.946c0.085-0.354,0.152-0.644,0.211-0.904c1.074,0.222,4.084,0.125,3.859,0.125
			c6.704,0.008,13.388,0.719,20.039,1.495c6.249,0.73,12.494,1.497,18.738,2.277l1.948,0.243c0.846,0.408,1.413,0.554,1.717,0.451
			c0.036,0.57,0.074,1.14,0.107,1.711c0.115,2.307,0.133,4.616,0.127,6.925c-16.033-1.235-32.092-2.106-48.161-2.73
			C328.202,68.678,328.559,66.13,328.978,63.584z M114.312,89.983c0.55-1.72,3.61-1.693,5.891-2.143
			c2.701-0.534,5.409-0.986,8.132-1.396c6.323-0.951,12.67-1.738,19.028-2.411c23.669-2.506,47.456-3.322,71.245-3.468
			c48.411-0.298,96.981,0.454,145.286,3.815c6.623,0.461,13.243,0.978,19.857,1.559c3.133,0.275,6.265,0.564,9.396,0.869
			c2.525,0.246,8.506-0.326,10.431,1.072c0.097,0.07,0.109,0.117,0.599,0.927c0.725,1.197,0.966,4.47,1.216,5.843
			c0.314,1.719,0.571,3.447,0.789,5.181c-0.176-1.395-56.439-4.456-61.811-4.909c-3.738-0.315-7.59-0.618-11.167,0.513
			c-2.133,0.674-4.085,1.835-6.212,2.527c-2.833,0.922-5.865,0.98-8.844,1.029c-17.226,0.285-34.458,0.86-51.683,0.943
			c-21.139,0.103-42.281-0.289-63.41-0.95c-1.045-7.208-9.49-10.474-16.742-10.522c-13.678-0.091-27.527,1.527-41.181,0.515
			c-1.854-0.138-3.246,1.357-3.84,2.923c-1.198,3.162-1.962,6.498-2.593,9.833c-7.464,0.836-15.024,1.183-22.525,1.664
			c-0.156-1.521-0.328-3.039-0.541-4.557C115.337,96.723,113.671,91.985,114.312,89.983z M376.941,119.539
			c-14.613-0.59-29.23-1.077-43.849-1.474c0.385-4.791-0.533-13.145,4.76-15.355c2.418-1.01,5.142-0.857,7.757-0.687
			c6.082,0.394,12.164,0.788,18.246,1.182c1.145,0.074,2.29,0.149,3.435,0.223c2.166,0.141,4.382,0.293,6.371,1.16
			c2.528,1.102,3.475,2.574,3.409,5.083C376.982,112.96,376.627,116.159,376.941,119.539z M324.622,117.841
			c-55.434-1.361-110.901-1.296-166.328,0.435c-12.491,0.39-24.986,0.813-37.457,1.649c-1.129,0.076-2.256,0.167-3.385,0.249
			c-0.107-3.902-0.449-7.793-0.8-11.688c8.347-0.133,16.753-0.431,25.067,0.008c1.693,0.09,2.864-1.196,3.434-2.615
			c1.216-3.025,2.386-6.121,3.219-9.287c7.839-0.718,15.835-0.59,23.677-0.819c4.149-0.121,27.123-2.875,23.461,5.858
			c-0.987,2.353,1.456,4.712,3.629,4.764c22.44,0.531,44.881,0.629,67.326,0.465c19.307-0.141,38.942,0.069,58.263-1.512
			c-0.068,0.81-0.117,1.607-0.173,2.359C324.299,111.134,324.329,114.487,324.622,117.841z M102.945,131.629
			c5.945-0.807,11.907-1.273,17.892-1.655c10.705-0.683,21.428-1.054,32.149-1.374c22.293-0.665,44.594-1.072,66.897-1.224
			c44.254-0.3,88.514,0.411,132.736,2.131c23.301,0.907,46.583,2.313,69.846,3.927c0.249,3.775,0.361,7.534,0.349,11.289
			c-15.047,0.193-30.094,0.234-45.14,0.196c-10.048-1.229-20.173-1.708-30.311-1.257c-3.109,0.138-7.167-0.212-10.231,1.055
			c-10.389-0.063-20.779-0.121-31.169-0.143c-20.548-0.044-41.097-0.338-61.644-0.517c-10.274-0.089-20.548-0.168-30.822-0.239
			c-4.96-0.034-9.92-0.058-14.88-0.103c-1.724-0.015-4.728,0.322-6.394-0.377c-2.344-0.984-2.288-3.499-3.595-5.31
			c-1.806-2.503-4.712-3.259-7.65-3.385c-5.32-0.229-10.808,0.362-16.129,0.554c-12.022,0.435-24.014,0.958-36.045,0.817
			c-1.924-0.023-3.403,1.323-4.006,3.05c-0.899,2.576-1.733,5.171-2.531,7.778c-9.496,1.101-19.039,1.758-28.537,2.857
			c-0.871-5.437-1.66-10.891-2.552-16.323C95.014,132.431,99.154,132.144,102.945,131.629z M422.648,151.55
			c-0.185,4.235-0.518,8.472-1.009,12.731c-9.194-0.577-18.411-0.977-27.616-1.302c-0.271-3.826-0.542-7.652-0.81-11.478
			c-0.008-0.114-0.033-0.232-0.048-0.348C402.992,151.225,412.819,151.363,422.648,151.55z M384.01,162.645
			c-3.68-0.115-7.357-0.227-11.027-0.337c-10.179-0.307-20.36-0.538-30.541-0.725c0.012-2.549,0.063-5.415,0.251-7.384
			c0.348,0.056,0.889-0.031,1.669-0.292c1.333-0.087,2.667-0.158,4.001-0.215c2.336-0.099,4.672-0.15,7.01-0.157
			c9.453-0.031,18.86,0.716,28.186,2.192C383.71,158.033,383.86,160.339,384.01,162.645z M333.026,161.421
			c-11.431-0.168-22.863-0.268-34.296-0.285c-49.548-0.074-99.234-0.433-148.738,1.887c-17.681,0.829-35.365,2.077-52.997,3.793
			c-0.93-3.955-1.702-7.941-2.399-11.943c10.191-0.163,20.368-0.819,30.562-0.84c1.203-0.003,2.743-0.688,3.252-1.866
			c1.155-2.669,2.246-5.361,3.301-8.067c9.272-0.734,18.538-1.12,27.839-1.491c4.947-0.197,9.895-0.395,14.842-0.593
			c1.806-0.072,4.786-0.77,6.587-0.235c2.547,0.758,2.621,3.375,3.94,5.158c4.366,5.9,13.771,4.391,20.076,4.383
			c10.274-0.014,20.548-0.021,30.822-0.054c32.279-0.103,64.56-0.003,96.84-0.059C332.192,154.327,332.59,158.009,333.026,161.421z
			 M215.074,171.72c49.447-0.579,98.949-0.827,148.369,1.201c26.126,1.072,52.094,3.412,78.142,5.378
			c-0.495,5.751-1.213,11.5-2.123,17.218c-5.99-0.31-12.1,0.286-18.08,0.7c-3.598,0.249-7.551,0.298-11.279,0.911
			c0.016-0.309,0.028-0.619,0.045-0.928c0.163-2.962-2.6-5.306-5.382-5.382c-11.287-0.308-22.577-0.446-33.869-0.381
			c-10.533,0.061-21.443-0.43-31.728,2.19c-2.315,0.59-3.731,2.655-4.014,4.905c-39.314,0.031-78.627-0.057-117.941-0.2
			c-9.89-0.036-19.78-0.072-29.67-0.109c-4.783-0.018-10.142,0.707-14.835-0.054c-4.031-0.654-3.424-4.374-5.062-7.476
			c-3.625-6.867-11.925-5.181-18.426-5.036c-9.538,0.213-19.214,0.848-28.741,0.211c-2.376-0.159-4.325,2.126-4.357,4.357
			c-0.046,3.134,0.228,6.637-0.76,9.666c-1.611,4.939-8.146,3.788-12.324,3.907c-8.349,0.238-16.698,0.509-25.047,0.775
			c-1.421-7.319-2.746-14.65-4.109-21.995C120.38,173.193,167.933,172.272,215.074,171.72z M438.146,203.025
			c-0.636,3.356-1.329,6.698-2.089,10.018c-8.916-0.144-17.831-0.271-26.747-0.37c0.265-3.434,0.408-6.887,0.553-10.337
			c3.812,0.521,7.857,0.43,11.519,0.551C426.934,203.07,432.591,203.395,438.146,203.025z M399.053,201.475
			c-0.252,3.697-0.501,7.4-0.619,11.095c-18.124-0.165-36.249-0.242-54.373-0.233c0.52-3.258,1.045-6.516,1.512-9.78
			c8.916-1.657,18.399-1.127,27.376-1.205C381.651,201.275,390.352,201.326,399.053,201.475z M334.834,204.483
			c-0.072,2.622-0.116,5.246-0.168,7.868c-61.602,0.131-123.2,1.206-184.787,2.949c-22.896,0.648-45.989,2.271-68.964,2.461
			c-0.665-2.98-1.294-5.962-1.899-8.946c5.212,0.146,10.423,0.294,15.635,0.435c6.347,0.172,13.951,1.487,20.144-0.088
			c7.662-1.949,10.131-8.997,10.21-16.023c8.037-0.655,16.178-0.615,24.214-0.859c4.214-0.128,10.373-1.931,12.438,2.561
			c1.143,2.486,1.195,5.1,3.039,7.292c2.084,2.476,4.923,3.061,8.01,3.204c4.912,0.229,9.914-0.066,14.835-0.099
			c9.89-0.066,19.78-0.132,29.67-0.198C256.42,204.777,295.627,204.572,334.834,204.483z M140.299,226.257
			c26.258-0.832,52.518-1.469,78.788-1.834c52.89-0.735,105.79-0.761,158.682-0.083c27.728,0.356,55.456,0.884,83.178,1.573
			c-0.12,9.636-0.409,19.238-0.884,28.815c-42.064-0.758-84.149-0.925-126.217-0.421c-21.864,0.262-43.726,0.714-65.583,1.355
			c-9.354,0.275-19.419,1.746-28.721,0.595c-3.806-0.471-7.824-1.449-8.598-5.655c-0.591-3.207-0.178-6.506-2.811-8.958
			c-3.038-2.829-7.777-2.267-11.571-2.287c-5.952-0.031-11.904-0.021-17.856,0.03c-12.208,0.104-24.557,0.952-36.751,0.378
			c-1.614-0.076-3.688,1.314-3.948,3.006c-0.533,3.464-0.897,6.964-1.182,10.457c-0.085,1.047,0.325,4.059-0.52,4.933
			c-0.773,0.799-4.505,0.283-5.769,0.337c-8.884,0.376-17.772,0.711-26.654,1.143c-16.23,0.791-32.436,1.505-48.607,3.049
			c-2.313-11.088-4.701-22.16-7.059-33.227C92.081,227.021,116.365,227.015,140.299,226.257z M459.616,262.762
			c-1.397,22.848-3.931,45.566-8.011,68.269c-17.678-0.287-35.356-0.608-53.034-0.92c-12.053-0.213-24.106-0.419-36.159-0.6
			c-9.07-0.136-20.648-2.621-25.665,6.964c-5.333,10.188-9.297,21.37-13.874,31.922c-0.699,1.612-1.517,4.78-2.866,6.064
			c-1.73,1.647-4.961,1.134-7.252,1.186c-5.931,0.133-11.86,0.384-17.792,0.516c-23.379,0.522-46.773,0.326-70.139-0.593
			c-5.58-0.22-11.159-0.47-16.734-0.782c-5.225-0.292-8.634-0.8-11.136-5.737c-4.975-9.817-7.99-21.193-14.06-30.402
			c-5.904-8.958-17.002-7.712-26.47-8.12c-11.634-0.502-23.276-0.801-34.92-0.893c-11.345-0.089-22.711-0.033-34.073,0.238
			c-2.921-20.804-6.848-41.464-11.094-62.059c19.401,0.391,38.811-0.281,58.205-0.898c5.331-0.169,10.661-0.339,15.992-0.509
			c3.224-0.103,7.092,0.251,10.018-1.376c5.144-2.861,5.416-11.282,5.455-17.501c9.44-0.845,19.055-0.757,28.496-0.89
			c5.252-0.074,10.503-0.116,15.755-0.127c2.451-0.005,4.902-0.002,7.353,0.007c1.224,0.005,2.618-0.249,3.799,0.032
			c2.127,0.507,1.834,0.807,2.277,3.015c0.616,3.07,0.272,5.473,2.144,8.217c1.71,2.507,4.48,4.252,7.312,5.227
			c7.966,2.742,17.403,1.179,25.601,0.907c43.356-1.44,86.737-2.135,130.117-2.083C412.448,261.863,436.034,262.221,459.616,262.762
			z M19.192,330.643c5.937-5.731,11.896-11.439,17.878-17.123c5.983-5.686,11.888-11.443,17.793-17.209
			c3.791-3.702,7.885-7.294,11.687-11.102c3.294,15.079,6.849,30.094,10.947,44.954c-8.979,0.32-17.949,0.789-26.897,1.45
			c-4.809,0.355-9.606,0.766-14.4,1.217c-5.206,0.128-10.41,0.286-15.605,0.537c-1.596,0.077-3.195,0.187-4.757,0.37
			C17.005,332.675,18.152,331.648,19.192,330.643z M498.383,347.706c-0.052,2.412-0.174,4.825-0.301,7.234
			c-0.31,5.849-0.642,11.702-1.14,17.538c-0.917,10.717-2.393,21.367-4.408,31.933c-0.904,4.738-1.889,9.468-2.954,14.173
			c-1.059,4.677-1.743,10.405-4.179,14.617c-2.207,3.817-6.78,3.934-10.741,4.373c-5.542,0.614-11.096,1.127-16.653,1.592
			c-10.767,0.9-21.552,1.562-32.343,2.097c-21.71,1.075-43.439,1.683-65.166,2.309c-87.396,2.516-175.238,7.505-262.647,3.454
			c-21.423-0.993-43.462-1.586-64.697-4.693c-4.408-0.645-7.243-1.919-8.971-6.221c-1.898-4.727-2.956-10.001-4.175-14.938
			c-2.556-10.359-4.561-20.873-5.9-31.46c-1.322-10.456-2.094-21.029-2.175-31.57c-0.022-2.822-1.126-10.351,1.317-12.129
			c1.122-0.817,3.91-0.512,5.224-0.595c3.184-0.202,6.36-0.503,9.541-0.768c6.574-0.547,13.151-1.061,19.729-1.559
			c33.036-1.442,66.055-2.092,99.159-0.634c5.29,0.233,10.578,0.508,15.864,0.825c2.211,0.133,5.407-0.172,7.521,0.618
			c2.009,0.75,2.739,2.832,3.617,4.689c4.365,9.239,7.648,19.378,12.919,28.149c5.097,8.481,13.114,9.87,22.31,10.374
			c10.455,0.573,20.919,0.984,31.386,1.259c21.632,0.568,43.28,0.519,64.909-0.149c9.061-0.28,19.97,0.703,25.004-8.44
			c4.686-8.511,7.702-18.413,11.401-27.394c1.682-4.083,2.917-11.504,7.816-11.929c5.511-0.479,11.483,0.364,17.016,0.539
			c10.634,0.337,21.27,0.646,31.905,0.955c22.334,0.65,44.67,1.248,67.001,1.979c5.318,0.174,10.635,0.348,15.953,0.522l7.445,0.244
			c2.219,0.073,6.706-0.584,8.81,0.31c0.095,0.04,0.425,0.167,0.639,0.214C498.281,345.708,498.388,347.474,498.383,347.706z"/>
	</g>
</g>
<g>
	<g>
		<path d="M313.3,397.414c-3.173-1.15-6.89-1.714-10.958-1.672c-16.633,0.173-33.263,0.661-49.878,1.464
			c-13.46,0.65-26.891,0.308-40.284,1.999c-4.374,0.552-8.957,2.129-11.48,5.744c-2.325,3.331-2.438,7.673-2.466,11.735
			c-0.029,4.104,0.11,8.654,2.939,11.627c2.425,2.548,6.174,3.218,9.658,3.698c29.375,4.046,59.061,3.772,88.582,1.636
			c9.144-0.663,19.946-2.728,23.329-12.592C326.969,408.725,322.34,400.691,313.3,397.414z M310.256,422.528
			c-3.92,2.01-8.624,2.183-12.93,2.481c-14.951,1.033-29.943,1.648-44.931,1.368c-7.423-0.139-15.063-0.169-22.432-1.143
			c-5.436-0.718-11.777,0.392-16.916-1.426c-4.155-1.471-7.63-5.87-6.473-10.123c1.49-5.476,8.611-6.655,14.284-6.773
			c26.802-0.561,53.666-0.772,80.428-1.956c0.841,0.05,1.683,0.088,2.525,0.142c4.977,0.32,10.882-0.445,11.099,5.832
			C315.071,415.554,314.795,420.2,310.256,422.528z"/>
	</g>
</g>
<g>
</g>
<g>
</g>
<g>
</g>
<g>
</g>
<g>
</g>
<g>
</g>
<g>
</g>
<g>
</g>
<g>
</g>
<g>
</g>
<g>
</g>
<g>
</g>
<g>
</g>
<g>
</g>
<g>
</g>
</svg>
