<?xml version="1.0" encoding="iso-8859-1"?>
<!-- Generator: Adobe Illustrator 19.0.0, SVG Export Plug-In . SVG Version: 6.00 Build 0)  -->
<svg version="1.1" id="Capa_1" xmlns="http://www.w3.org/2000/svg" xmlns:xlink="http://www.w3.org/1999/xlink" x="0px" y="0px"
	 viewBox="0 0 512.003 512.003" style="enable-background:new 0 0 512.003 512.003;" xml:space="preserve">
<g>
	<g>
		<path d="M483.798,95.141c-0.842-17.326-1.729-34.65-2.633-51.972c-0.443-8.488-0.848-16.98-1.349-25.465
			c-0.38-6.437-1.185-13.149-8.356-15.329c-6.963-2.118-15.939-0.538-23.128-0.455c-8.435,0.097-16.869,0.194-25.303,0.291
			c-9.766,0.113-19.533,0.225-29.299,0.338c-42.433-1.34-84.884-2.128-127.347-2.437C197.678-0.389,128.966,0.729,60.366,4.74
			c-7.911,0.462-16.004,0.673-23.835,1.961c-6.055,0.995-11.692,4.175-13.424,10.434c-1.906,6.887,0.945,14.813,1.52,21.728
			c0.694,8.349,1.29,16.708,1.821,25.068c2.148,33.788,2.725,67.658,2.485,101.508c-0.479,67.541-4.253,135.003-5.099,202.537
			c-0.424,33.892-0.184,67.816,1.372,101.679c0.593,12.905-1.514,30.814,13.892,35.469c6.479,1.958,13.779,1.324,20.445,1.375
			c8.522,0.066,17.043,0.161,25.564,0.279c68.853,0.953,137.706,1.906,206.558,2.86c34.086,0.472,68.172,0.962,102.257,1.517
			c17.294,0.282,34.589,0.661,51.885,0.842c12.483,0.13,26.183-1.944,32.155-14.458c2.747-5.756,3.457-12.04,4.036-18.318
			c0.78-8.463,1.479-16.934,2.128-25.408c1.324-17.276,2.414-34.572,3.267-51.878c1.672-33.909,2.125-67.908,2.149-101.855
			C489.591,231.719,487.116,163.41,483.798,95.141z M33.404,28.843c-0.089-3.168-1.183-7.739,2.147-9.509
			c2.064-1.097,5.229-0.886,7.503-1.014c4.075-0.231,8.148-0.444,12.219-0.732c8.824-0.626,17.653-1.197,26.484-1.723
			c16.299-0.971,32.609-1.745,48.923-2.389c32.63-1.289,65.283-2.048,97.936-2.415c34.937-0.392,69.876-0.32,104.814-0.011
			c28.514,0.856,57.023,1.36,85.551,1.792l24.291,0.368c4.048,0.061,8.097,0.123,12.145,0.184c2.024,0.031,4.049,0.061,6.073,0.092
			c1.288,0.019,4.609-0.585,5.512,0.113c1.28,0.992,0.709,7.167,0.804,9.198c0.192,4.074,0.384,8.149,0.575,12.223
			c0.223,4.75,0.442,9.502,0.662,14.253c-113.977,4.539-227.983,7.673-342.024,10.022c-30.325,0.625-60.677,0.768-90.928,2.979
			c-0.512-7.144-1.115-14.277-1.808-21.406C33.894,36.844,33.517,32.881,33.404,28.843z M471.877,450.76
			c-0.504,8.135-1.062,16.267-1.677,24.394c-0.45,5.944-0.403,13.002-3.615,18.248c-3.266,5.333-9.632,6.384-15.416,6.654
			c-7.47,0.35-15.007-0.032-22.48-0.115c-32.722-0.364-65.445-0.702-98.166-1.146c-65.444-0.887-130.889-1.775-196.333-2.662
			c-16.361-0.222-32.722-0.444-49.083-0.665c-7.5-0.102-14.998-0.214-22.497-0.361c-6.278-0.124-15.674,1.391-21.488-1.661
			c-5.09-2.672-3.68-12.807-3.966-17.759c-0.503-8.712-0.908-17.429-1.229-26.149c-0.593-16.1-0.841-32.208-0.885-48.319
			c-0.016-5.56,0-11.12,0.028-16.68c56.558,1.73,113.21,0.845,169.789,0.689c58.153-0.161,116.306-0.298,174.459-0.486
			c31.885-0.103,63.808,0.226,95.685-0.579C474.276,406.376,473.252,428.578,471.877,450.76z M475.25,376.423
			c-57.249-0.99-114.618,0.381-171.872,0.731c-58.153,0.355-116.306,0.694-174.459,1.102c-31.289,0.219-62.558,0.482-93.821,1.698
			c0.406-57.42,2.878-114.815,3.851-172.225c0.546-32.199,0.636-64.413-0.378-96.604c-0.453-14.36-1.141-28.713-2.09-43.049
			c26.412,1.343,52.843,0.97,79.293,0.683c28.63-0.311,57.257-0.732,85.884-1.259c57.592-1.061,115.181-2.389,172.761-3.978
			c31.72-0.875,63.437-1.845,95.152-2.9c2.972,64.831,5.613,129.703,6.517,194.6C476.65,295.616,476.445,336.036,475.25,376.423z"/>
	</g>
</g>
<g>
	<g>
		<path d="M447.782,407.603c-0.385-1.147-1.489-2.115-3.012-1.848c-31.322,5.488-62.825,10.608-93.114,20.584
			c-3.063,1.01-3.595,4.989-0.882,6.745c7.864,5.09,15.79,10.08,23.888,14.784c-1.255,6.411-0.048,13.911,1.045,20.079
			c0.394,2.225,3.275,3.078,5.043,2.051c4.592-2.664,10.669-6.496,14.127-11.251c1.591,0.798,3.176,1.609,4.779,2.385
			c4.472,2.165,10.424,6.304,15.594,5.369c4.685-0.847,6.805-5.549,8.879-9.361c2.539-4.667,4.749-9.504,6.937-14.342
			c4.701-10.397,9.293-21.733,16.598-30.623C448.83,410.756,448.674,408.864,447.782,407.603z M377.662,441.154
			c-5.583-3.169-11.086-6.471-16.47-9.965c23.351-6.912,47.053-12.508,70.866-17.601
			C414.448,423.773,396.312,432.99,377.662,441.154z M385.523,457.62c-1.407,1.318-2.885,2.529-4.407,3.688
			c-0.41-1.83-0.762-3.672-1.026-5.528c-0.238-1.676-0.322-3.373-0.432-5.066c1.092,0.612,2.184,1.222,3.283,1.822
			c1.647,0.898,3.313,1.761,4.974,2.635C387.127,456.002,386.35,456.845,385.523,457.62z M427.747,431.189
			c-2.109,4.577-4.098,9.208-6.23,13.775c-1.518,3.251-4.215,11.719-7.644,13.208c-3.394,1.474-12.068-4.375-15.471-6.042
			c-4.888-2.395-9.723-4.9-14.504-7.501c16.867-7.465,33.427-15.595,49.626-24.412C431.422,423.716,429.515,427.352,427.747,431.189
			z"/>
	</g>
</g>
<g>
	<g>
		<path d="M330.016,430.916c-2.257-11.031-12.129-16.966-22.312-19.561c-18.796-4.79-38.703-3.441-58.14-3.778
			c-21.637-0.375-43.274-0.719-64.912-1.032c-19.583-0.283-39.191-0.541-58.755,0.569c-18.239,1.035-39.553,1.608-56.076,10.312
			c-8.636,4.55-15.848,12.9-16.667,22.943c-0.751,9.214,4.609,16.861,12.123,21.626c8.944,5.672,20.009,7.561,30.302,9.044
			c12.818,1.847,25.761,2.503,38.701,2.64c26.92,0.284,53.749,0.228,80.667,1.099c26.232,0.849,53.059,1.248,78.85-4.375
			C312.273,466.374,334.6,453.321,330.016,430.916z M319.735,445.991c-4.872,8.958-14.74,13.231-24.156,15.688
			c-23.179,6.047-47.921,6.107-71.71,5.678c-23.697-0.427-47.32-1.235-71.026-0.861c-23.345,0.368-47.314,0.917-70.119-4.892
			c-8.073-2.057-18.056-5.717-21.495-14.06c-4.473-10.851,5.243-20.914,14.442-24.945c10.239-4.487,22.32-5.759,33.305-7.059
			c28.724-3.399,57.085-2.23,85.973-1.529c30.427,0.738,60.854,1.476,91.28,2.214c6.344,0.154,12.766,0.319,18.877,2.029
			C317.791,421.801,326.787,433.024,319.735,445.991z"/>
	</g>
</g>
<g>
	<g>
		<path d="M56.156,26.019c-8.842,3.418-11.164,13.239-7.497,20.606c0.561,1.365,1.332,2.675,2.34,3.877
			c7.028,8.384,20.687,4.435,23.505-5.782C77.43,34.113,67.344,21.695,56.156,26.019z M68,44.234
			c-2.301,6.38-10.871,6.549-14.005,0.951c-0.742-1.325-1.132-2.751-1.22-4.178c-0.003-0.063-0.01-0.125-0.012-0.188
			c-0.008-0.19-0.001-0.38,0.002-0.57c0.12-3.614,2.295-6.99,6.692-7.712C65.401,31.561,69.862,39.071,68,44.234z"/>
	</g>
</g>
<g>
	<g>
		<path d="M93.056,26.019c-8.841,3.418-11.164,13.239-7.497,20.606c0.56,1.365,1.332,2.675,2.34,3.877
			c7.028,8.384,20.687,4.435,23.505-5.782C114.33,34.113,104.244,21.695,93.056,26.019z M104.899,44.234
			c-2.301,6.38-10.871,6.549-14.005,0.951c-0.742-1.325-1.132-2.751-1.22-4.178c-0.003-0.063-0.01-0.125-0.012-0.188
			c-0.008-0.19-0.001-0.38,0.002-0.57c0.12-3.614,2.295-6.99,6.692-7.712C102.3,31.561,106.761,39.071,104.899,44.234z"/>
	</g>
</g>
<g>
	<g>
		<path d="M129.955,26.019c-8.841,3.418-11.164,13.239-7.496,20.606c0.559,1.365,1.331,2.675,2.339,3.877
			c7.028,8.384,20.687,4.435,23.505-5.782C151.229,34.113,141.143,21.695,129.955,26.019z M141.797,44.234
			c-2.301,6.38-10.871,6.549-14.005,0.951c-0.742-1.325-1.132-2.751-1.22-4.178c-0.003-0.063-0.01-0.125-0.012-0.188
			c-0.007-0.19,0-0.38,0.003-0.57c0.121-3.614,2.295-6.99,6.692-7.712C139.199,31.561,143.66,39.071,141.797,44.234z"/>
	</g>
</g>
<g>
	<g>
		<path d="M120.287,98.245c-7.713-18.185-28.736-26.234-46.44-17.407c-6.399,3.19-11.302,8.198-14.522,14.07
			c-6.3,11.492-7.073,24.464,0.942,35.576c8.503,11.79,25.902,17.353,39.644,12.662C118,136.972,127.768,115.886,120.287,98.245z
			 M103.303,132.742c-9.291,6.644-21.722,5.644-30.851-0.392c1.417-4.553,3.533-8.896,6.84-12.386c2.616-2.761,4.634-3.8,4.007-7.85
			c-0.76-4.91-1.431-11.747,5.145-13.165c3.754-0.81,7.408,1.504,7.654,5.464c0.198,3.194-1.546,6.532-2.695,9.404
			c-0.502,1.255,0.371,2.506,1.307,3.21c4.948,3.725,7.609,9.638,8.645,15.586c0.005,0.027,0.016,0.048,0.021,0.075
			C103.35,132.705,103.327,132.724,103.303,132.742z M108.541,127.78c-1.771-5.412-4.852-9.839-8.971-13.864
			c2.577-5.977,3.772-13.185-2.036-17.724c-4.642-3.628-11.835-3.409-16.213,0.531c-2.355,2.119-3.871,5.102-4.485,8.186
			c-0.319,1.604-0.369,3.234-0.181,4.853c0.127,1.09,1.131,3.007,0.809,4.01c-0.385,1.2-2.757,2.847-3.583,3.957
			c-1.3,1.745-2.388,3.618-3.267,5.608c-0.908,2.053-1.466,4.116-1.74,6.23c-2.263-2.064-4.202-4.488-5.667-7.228
			c-0.548-1.026-1.002-2.055-1.393-3.084c-2.492-9.982-0.138-20.756,8.756-27.737c11.802-9.265,28.717-7.573,38.125,4.126
			C116.439,105.273,115.89,118.613,108.541,127.78z"/>
	</g>
</g>
<g>
	<g>
		<path d="M259.768,93.319c-20.095-1.167-40.269-0.752-60.387-0.686c-20.132,0.067-40.301,0.408-60.387,1.808
			c-2.273,0.16-2.277,3.379,0,3.537c20.086,1.4,40.255,1.741,60.387,1.808c20.119,0.067,40.292,0.482,60.387-0.686
			C263.484,98.884,263.491,93.535,259.768,93.319z"/>
	</g>
</g>
<g>
	<g>
		<path d="M292.74,110.121c-51.656-0.109-103.266-0.599-154.858,2.413c-1.876,0.11-1.879,2.809,0,2.919
			c51.591,3.012,103.201,2.522,154.858,2.413C297.724,117.856,297.732,110.131,292.74,110.121z"/>
	</g>
</g>
<g>
	<g>
		<path d="M335.345,129.609c-33.188-1.09-66.455-0.368-99.657-0.266c-16.271,0.05-32.541,0.105-48.812,0.281
			c-8.138,0.088-16.27,0.293-24.406,0.512c-8.782,0.236-17.709,1.616-26.44,1.662c-1.878,0.011-1.881,2.909,0,2.919
			c8.393,0.045,16.98,1.408,25.423,1.635c8.136,0.219,16.268,0.44,24.406,0.528c16.61,0.18,33.218,0.241,49.829,0.292
			c33.202,0.102,66.469,0.824,99.657-0.267C340.038,136.751,340.046,129.763,335.345,129.609z"/>
	</g>
</g>
<g>
	<g>
		<path d="M120.287,244.278c-7.713-18.185-28.736-26.234-46.44-17.407c-6.399,3.19-11.302,8.198-14.522,14.07
			c-6.3,11.492-7.073,24.465,0.942,35.576c8.503,11.79,25.902,17.353,39.644,12.662C118,283.005,127.768,261.919,120.287,244.278z
			 M103.303,278.775c-9.291,6.644-21.722,5.644-30.851-0.392c1.417-4.553,3.533-8.896,6.84-12.386c2.616-2.761,4.634-3.8,4.007-7.85
			c-0.76-4.91-1.431-11.747,5.145-13.165c3.754-0.809,7.408,1.504,7.654,5.464c0.198,3.195-1.546,6.531-2.695,9.403
			c-0.502,1.255,0.371,2.506,1.307,3.211c4.948,3.725,7.609,9.638,8.645,15.586c0.005,0.027,0.016,0.048,0.021,0.075
			C103.35,278.738,103.327,278.757,103.303,278.775z M108.541,273.813c-1.771-5.412-4.852-9.839-8.971-13.864
			c2.577-5.977,3.772-13.185-2.036-17.723c-4.642-3.628-11.835-3.41-16.213,0.531c-2.355,2.119-3.871,5.102-4.485,8.186
			c-0.319,1.604-0.369,3.235-0.181,4.853c0.127,1.09,1.131,3.007,0.809,4.01c-0.385,1.2-2.757,2.847-3.583,3.957
			c-1.3,1.745-2.388,3.618-3.267,5.608c-0.908,2.053-1.466,4.116-1.74,6.229c-2.263-2.064-4.202-4.488-5.667-7.228
			c-0.548-1.025-1.002-2.055-1.393-3.084c-2.492-9.982-0.138-20.755,8.756-27.737c11.802-9.265,28.717-7.573,38.125,4.126
			C116.439,251.306,115.89,264.646,108.541,273.813z"/>
	</g>
</g>
<g>
	<g>
		<path d="M259.768,239.354c-20.095-1.168-40.269-0.752-60.387-0.686c-20.132,0.067-40.301,0.408-60.387,1.808
			c-2.273,0.158-2.277,3.377,0,3.536c20.086,1.4,40.255,1.741,60.387,1.808c20.119,0.067,40.292,0.482,60.387-0.686
			C263.485,244.919,263.491,239.57,259.768,239.354z"/>
	</g>
</g>
<g>
	<g>
		<path d="M292.74,256.153c-51.656-0.108-103.266-0.598-154.858,2.414c-1.876,0.11-1.88,2.809,0,2.918
			c51.591,3.013,103.201,2.522,154.858,2.413C297.724,263.888,297.732,256.163,292.74,256.153z"/>
	</g>
</g>
<g>
	<g>
		<path d="M335.344,275.643c-33.188-1.09-66.455-0.368-99.657-0.266c-16.271,0.05-32.541,0.105-48.812,0.281
			c-8.138,0.088-16.27,0.293-24.406,0.512c-8.782,0.236-17.709,1.616-26.44,1.662c-1.878,0.01-1.881,2.909,0,2.919
			c8.393,0.045,16.98,1.408,25.423,1.635c8.136,0.219,16.268,0.44,24.406,0.528c16.61,0.18,33.219,0.241,49.829,0.292
			c33.202,0.102,66.469,0.824,99.657-0.267C340.037,282.785,340.045,275.798,335.344,275.643z"/>
	</g>
</g>
<g>
	<g>
		<path d="M455.519,166.528c-3.22-5.872-8.123-10.879-14.522-14.07c-17.704-8.827-38.727-0.778-46.44,17.408
			c-7.482,17.64,2.286,38.726,20.376,44.9c13.743,4.69,31.141-0.872,39.644-12.662C462.591,190.992,461.819,178.02,455.519,166.528z
			 M411.541,204.362c-0.025-0.018-0.047-0.037-0.072-0.054c0.006-0.027,0.017-0.048,0.021-0.075
			c1.036-5.949,3.698-11.862,8.645-15.587c0.935-0.704,1.809-1.955,1.307-3.21c-1.15-2.872-2.893-6.209-2.695-9.403
			c0.246-3.959,3.9-6.273,7.654-5.464c6.576,1.418,5.906,8.255,5.145,13.165c-0.627,4.05,1.39,5.089,4.006,7.85
			c3.307,3.49,5.422,7.833,6.84,12.386C433.263,210.006,420.832,211.006,411.541,204.362z M453.03,190.875
			c-0.39,1.029-0.844,2.059-1.393,3.084c-1.465,2.74-3.405,5.164-5.667,7.228c-0.273-2.114-0.832-4.176-1.74-6.23
			c-0.879-1.989-1.967-3.862-3.267-5.607c-0.826-1.109-3.198-2.757-3.583-3.956c-0.322-1.003,0.682-2.92,0.809-4.01
			c0.188-1.619,0.138-3.249-0.181-4.853c-0.614-3.084-2.13-6.066-4.485-8.186c-4.378-3.94-11.572-4.159-16.213-0.531
			c-5.807,4.539-4.613,11.746-2.036,17.723c-4.119,4.025-7.201,8.452-8.971,13.864c-7.35-9.168-7.898-22.508-0.154-32.137
			c9.408-11.699,26.323-13.39,38.125-4.126C453.168,170.119,455.522,180.892,453.03,190.875z"/>
	</g>
</g>
<g>
	<g>
		<path d="M375.85,166.062c-20.086-1.4-40.255-1.741-60.387-1.808c-20.119-0.066-40.292-0.481-60.387,0.686
			c-3.723,0.217-3.716,5.565,0,5.781c20.095,1.168,40.269,0.753,60.387,0.685c20.132-0.067,40.301-0.408,60.387-1.808
			C378.127,169.44,378.123,166.221,375.85,166.062z"/>
	</g>
</g>
<g>
	<g>
		<path d="M376.962,184.154c-51.592-3.012-103.202-2.522-154.858-2.413c-4.992,0.01-4.984,7.735,0,7.745
			c51.657,0.109,103.267,0.599,154.858-2.413C378.842,186.963,378.838,184.264,376.962,184.154z"/>
	</g>
</g>
<g>
	<g>
		<path d="M378.814,203.419c-8.73-0.047-17.658-1.426-26.44-1.662c-8.136-0.219-16.268-0.423-24.406-0.512
			c-16.271-0.176-32.54-0.231-48.812-0.281c-33.202-0.102-66.469-0.824-99.657,0.266c-4.701,0.154-4.693,7.142,0,7.296
			c33.188,1.09,66.455,0.368,99.657,0.267c16.611-0.051,33.219-0.113,49.829-0.293c8.138-0.088,16.27-0.309,24.406-0.528
			c8.443-0.227,17.03-1.59,25.423-1.635C380.695,206.328,380.692,203.429,378.814,203.419z"/>
	</g>
</g>
<g>
	<g>
		<path d="M455.519,311.23c-3.22-5.873-8.123-10.881-14.522-14.071c-17.704-8.827-38.727-0.778-46.44,17.408
			c-7.482,17.64,2.286,38.727,20.376,44.901c13.743,4.69,31.141-0.872,39.644-12.662
			C462.591,335.694,461.819,322.722,455.519,311.23z M411.541,349.063c-0.025-0.018-0.047-0.037-0.072-0.054
			c0.006-0.027,0.017-0.048,0.021-0.075c1.036-5.949,3.698-11.862,8.645-15.587c0.935-0.704,1.809-1.955,1.307-3.21
			c-1.15-2.872-2.893-6.209-2.695-9.403c0.246-3.959,3.9-6.273,7.654-5.464c6.576,1.418,5.906,8.255,5.145,13.165
			c-0.627,4.049,1.39,5.089,4.006,7.85c3.307,3.49,5.422,7.833,6.84,12.386C433.263,354.707,420.832,355.707,411.541,349.063z
			 M453.03,335.575c-0.39,1.03-0.844,2.059-1.393,3.084c-1.465,2.74-3.405,5.164-5.667,7.228c-0.273-2.114-0.832-4.176-1.74-6.23
			c-0.879-1.989-1.967-3.862-3.267-5.608c-0.826-1.109-3.198-2.757-3.583-3.957c-0.322-1.003,0.682-2.919,0.809-4.01
			c0.188-1.619,0.138-3.249-0.181-4.853c-0.614-3.084-2.13-6.066-4.485-8.186c-4.378-3.94-11.572-4.159-16.213-0.531
			c-5.807,4.539-4.613,11.746-2.036,17.724c-4.119,4.025-7.201,8.452-8.971,13.864c-7.35-9.167-7.898-22.507-0.154-32.137
			c9.408-11.699,26.323-13.39,38.125-4.126C453.168,314.82,455.522,325.593,453.03,335.575z"/>
	</g>
</g>
<g>
	<g>
		<path d="M375.85,310.764c-20.086-1.4-40.255-1.741-60.387-1.808c-20.119-0.067-40.292-0.482-60.387,0.685
			c-3.723,0.216-3.716,5.565,0,5.781c20.095,1.167,40.269,0.752,60.387,0.685c20.132-0.067,40.301-0.408,60.387-1.808
			C378.127,314.141,378.123,310.923,375.85,310.764z"/>
	</g>
</g>
<g>
	<g>
		<path d="M376.962,328.856c-51.592-3.013-103.202-2.523-154.858-2.414c-4.992,0.01-4.984,7.735,0,7.745
			c51.657,0.109,103.267,0.599,154.858-2.413C378.842,331.664,378.838,328.965,376.962,328.856z"/>
	</g>
</g>
<g>
	<g>
		<path d="M378.814,348.12c-8.73-0.047-17.658-1.426-26.44-1.662c-8.136-0.219-16.268-0.423-24.406-0.512
			c-16.271-0.176-32.54-0.231-48.812-0.281c-33.202-0.102-66.469-0.824-99.657,0.266c-4.701,0.155-4.693,7.142,0,7.296
			c33.188,1.09,66.455,0.369,99.657,0.267c16.611-0.051,33.219-0.113,49.829-0.292c8.138-0.088,16.27-0.309,24.406-0.528
			c8.443-0.227,17.03-1.59,25.423-1.635C380.695,351.028,380.692,348.13,378.814,348.12z"/>
	</g>
</g>
<g>
</g>
<g>
</g>
<g>
</g>
<g>
</g>
<g>
</g>
<g>
</g>
<g>
</g>
<g>
</g>
<g>
</g>
<g>
</g>
<g>
</g>
<g>
</g>
<g>
</g>
<g>
</g>
<g>
</g>
</svg>
