<?xml version="1.0" encoding="iso-8859-1"?>
<!-- Generator: Adobe Illustrator 19.0.0, SVG Export Plug-In . SVG Version: 6.00 Build 0)  -->
<svg version="1.1" id="Capa_1" xmlns="http://www.w3.org/2000/svg" xmlns:xlink="http://www.w3.org/1999/xlink" x="0px" y="0px"
	 viewBox="0 0 512 512" style="enable-background:new 0 0 512 512;" xml:space="preserve">
<g>
	<g>
		<path d="M486.36,317.583c-2.359-3.224-4.859-6.343-7.155-9.613c-1.408-2.006-6.122-7.587-5.705-10.325
			c0.29-1.907,4.3-4.749,5.679-6.327c2.478-2.835,4.684-5.877,6.731-9.035c3.948-6.094,6.927-12.628,9.199-19.518
			c18.816-57.065-21.077-111.29-68.85-138.537c-14.391-8.208-30.067-14.216-46.134-17.63c-23.033-5.357-47.41-5.019-70.103,1.603
			c-7.52-37.124-30.931-70.263-63.585-89.599c-22.781-13.49-49.542-19.617-75.95-18.466c-16.421,0.401-32.934,3.425-48.589,8.846
			C69.93,26.981,20.746,72.944,28.747,132.497c0.966,7.19,2.693,14.16,5.453,20.876c1.431,3.481,3.04,6.876,4.955,10.119
			c1.065,1.804,4.484,5.335,4.418,7.263c-0.093,2.768-5.754,7.387-7.507,9.1c-2.858,2.792-5.889,5.399-8.8,8.134
			c-6.182,5.807-11.314,11.981-13.75,20.224c-1.007,3.409,2.027,7.411,5.646,7.138c12.967-0.976,26.109-0.882,39.109-0.797
			c6.971,0.045,9.901,4.353,14.571,8.828c4.259,4.081,8.784,7.859,13.493,11.409c4.211,3.176,8.59,6.124,13.1,8.855
			c-3.415,1.772-6.768,3.664-10.03,5.704c-14.091,8.44-26.971,19.208-37.922,31.64c-36.353,41.268-56.504,105.5-20.197,153.379
			c4.384,5.781,9.32,10.995,15.032,15.479c2.96,2.324,6.033,4.486,9.298,6.364c1.816,1.045,6.53,2.433,7.424,4.143
			c1.283,2.455-1.367,9.263-2.048,11.617c-1.111,3.838-2.464,7.6-3.65,11.414c-2.518,8.099-3.942,16.001-2,24.374
			c0.803,3.463,5.416,5.45,8.43,3.43c10.803-7.238,22.285-13.632,33.638-19.964c6.089-3.396,10.761-1.09,17.029,0.502
			c5.717,1.453,11.516,2.51,17.363,3.28c22.793,3,46.212,0.862,68.205-5.79c20.965-6.342,41.135-16.605,57.483-31.312
			c16.404-14.757,27.97-34.337,34.189-55.427c3.933-13.338,5.716-27.147,5.453-40.883c17.953,6.186,37.254,8.466,56.169,7.773
			c22.962-0.84,45.808-6.413,66.396-16.643c5.281-2.624,10.423-5.505,15.361-8.734c5.413-3.539,9.085-7.236,15.945-5.998
			c12.793,2.307,25.729,4.632,38.295,7.975c3.507,0.933,7.226-2.443,6.862-5.978C495.278,331.44,491.368,324.428,486.36,317.583z
			 M88.949,222.455c-9.207-7.51-16.339-18.271-29.211-18.627c-10.162-0.28-20.323,0.288-30.487,0.29
			c6.666-8.277,16.087-14.304,22.602-22.83c3.441-4.503,5.871-9.323,3.851-15.042c-2.044-5.786-6.872-10.675-9.454-16.335
			c-9.938-21.791-7.717-48.47,2.873-69.587C73.394,31.926,134.443,6.338,186.6,9.744c2.751,0.18,5.503,0.462,8.249,0.83
			c12.138,2.176,23.993,6.05,35.136,11.672c32.759,16.529,56.547,47.732,65.656,83.151c0.62,2.41,1.146,4.836,1.604,7.27
			c-34.687,14.23-62.601,43.03-75.618,78.256c-5.631,15.238-8.329,31.316-8.249,47.357c-15.404-6.372-31.971-9.958-48.785-10.284
			c-17.917-0.347-35.754,3.15-52.363,9.785C103.988,233.445,96.164,228.338,88.949,222.455z M281.168,392.517
			c-4.463,20.013-13.807,38.942-28.429,53.475c-14.706,14.617-33.65,24.786-53.262,31.154c-22.888,7.432-47.684,9.897-71.48,5.836
			c-11.712-1.998-23.221-7.848-34.597-1.815c-8.981,4.763-17.542,10.265-26.386,15.274c1.723-10.487,6.95-20.374,8.419-31.003
			c0.776-5.614,0.515-11.006-4.061-14.987c-4.63-4.028-11.24-5.903-16.275-9.556c-19.385-14.064-30.598-38.374-31.788-61.967
			c-2.728-54.074,37.788-106.421,84.852-129.157c2.483-1.199,5.016-2.31,7.587-3.342c11.634-4.088,23.859-6.558,36.326-7.156
			c36.651-1.758,72.725,13.673,98.104,40.005C278.739,308.912,290.103,352.45,281.168,392.517z M451.529,327.18
			c-12.717-2.018-21.707,7.249-32.138,12.938c-21.193,11.559-45.449,17.269-69.509,17.662c-18.127,0.296-36.716-2.358-53.619-9.159
			c-2.918-25.731-13.004-50.589-29.581-70.91c-11.042-13.537-24.687-24.708-39.886-33.015c-1.03-19.671,2.506-39.55,10.952-57.647
			c15.467-33.14,44.587-59.437,79.827-69.66c11.987-3.477,24.352-5.105,36.683-5.012c2.766,0.144,5.523,0.372,8.26,0.701
			c51.893,6.243,107.197,42.62,122.154,94.656c6.526,22.704,3.803,49.336-9.972,68.928c-3.578,5.089-9.223,9.006-12.296,14.318
			c-3.037,5.25-1.535,10.435,1.019,15.494c4.837,9.578,12.988,17.236,18.019,26.597C471.452,331.201,461.569,328.774,451.529,327.18
			z"/>
	</g>
</g>
<g>
	<g>
		<path d="M440.579,179.7c-26.881-1.166-53.69-2.035-80.598-1.808c-26.876,0.227-53.728,0.81-80.598,1.276
			c-3.274,0.057-3.279,5.032,0,5.088c26.87,0.466,53.722,1.049,80.598,1.276c26.908,0.227,53.718-0.642,80.598-1.807
			C443.168,183.614,443.172,179.812,440.579,179.7z"/>
	</g>
</g>
<g>
	<g>
		<path d="M440.579,208.614c-26.881-1.166-53.69-2.034-80.598-1.807c-26.876,0.227-53.728,0.81-80.598,1.276
			c-3.274,0.057-3.279,5.032,0,5.089c26.87,0.466,53.722,1.049,80.598,1.276c26.908,0.227,53.718-0.642,80.598-1.807
			C443.168,212.528,443.172,208.726,440.579,208.614z"/>
	</g>
</g>
<g>
	<g>
		<path d="M440.579,237.528c-26.881-1.166-53.69-2.035-80.598-1.808c-26.876,0.227-53.728,0.81-80.598,1.276
			c-3.274,0.057-3.279,5.031,0,5.088c26.87,0.466,53.722,1.049,80.598,1.276c26.908,0.227,53.718-0.642,80.598-1.807
			C443.168,241.442,443.172,237.64,440.579,237.528z"/>
	</g>
</g>
<g>
	<g>
		<path d="M440.579,266.442c-26.881-1.166-53.69-2.034-80.598-1.808c-26.876,0.227-53.728,0.81-80.598,1.276
			c-3.274,0.057-3.279,5.032,0,5.089c26.87,0.466,53.722,1.049,80.598,1.276c26.908,0.227,53.718-0.642,80.598-1.807
			C443.168,270.356,443.172,266.554,440.579,266.442z"/>
	</g>
</g>
<g>
	<g>
		<path d="M251.896,312.095c-30.24-1.311-60.399-2.288-90.669-2.033c-30.234,0.255-60.441,0.912-90.669,1.436
			c-3.683,0.064-3.689,5.66,0,5.724c30.228,0.524,60.434,1.181,90.669,1.435c30.27,0.256,60.429-0.722,90.669-2.033
			C254.809,316.496,254.814,312.22,251.896,312.095z"/>
	</g>
</g>
<g>
	<g>
		<path d="M251.896,344.621c-30.239-1.311-60.399-2.289-90.669-2.033c-30.234,0.255-60.441,0.911-90.669,1.436
			c-3.683,0.064-3.689,5.66,0,5.725c30.228,0.524,60.434,1.18,90.669,1.435c30.27,0.256,60.429-0.722,90.669-2.033
			C254.808,349.024,254.813,344.748,251.896,344.621z"/>
	</g>
</g>
<g>
	<g>
		<path d="M251.896,377.148c-30.239-1.311-60.399-2.289-90.669-2.033c-30.234,0.255-60.441,0.911-90.669,1.436
			c-3.683,0.064-3.689,5.66,0,5.724c30.228,0.524,60.434,1.181,90.669,1.436c30.27,0.255,60.429-0.722,90.669-2.033
			C254.808,381.551,254.813,377.274,251.896,377.148z"/>
	</g>
</g>
<g>
	<g>
		<path d="M251.896,409.675c-30.239-1.312-60.399-2.289-90.669-2.033c-30.234,0.255-60.441,0.912-90.669,1.436
			c-3.683,0.064-3.689,5.66,0,5.724c30.228,0.524,60.434,1.18,90.669,1.436c30.27,0.256,60.429-0.722,90.669-2.033
			C254.808,414.078,254.813,409.801,251.896,409.675z"/>
	</g>
</g>
<g>
	<g>
		<path d="M257.125,76.444c-27.893-1.312-55.711-2.289-83.632-2.034c-27.888,0.255-55.75,0.912-83.632,1.436
			c-3.397,0.064-3.403,5.66,0,5.724c27.882,0.524,55.744,1.181,83.632,1.436c27.921,0.256,55.74-0.722,83.632-2.033
			C259.811,80.848,259.816,76.57,257.125,76.444z"/>
	</g>
</g>
<g>
	<g>
		<path d="M257.125,108.97c-27.893-1.312-55.711-2.289-83.632-2.034c-27.888,0.255-55.75,0.912-83.632,1.436
			c-3.397,0.064-3.403,5.661,0,5.725c27.882,0.524,55.744,1.18,83.632,1.435c27.921,0.256,55.74-0.722,83.632-2.033
			C259.811,113.374,259.816,109.096,257.125,108.97z"/>
	</g>
</g>
<g>
	<g>
		<path d="M203.128,176.041c-0.403-0.391-0.994-0.792-1.811-1.193c-1.578-0.776-3.403-0.816-5.162-0.841
			c-18.665-0.264-37.581,0.257-56.151-0.382c-16.629-0.572-33.363-0.512-50.143-0.198c-3.397,0.064-3.403,5.66,0,5.724
			c36.024,0,71.888,2.546,107.798,1.568C200.742,180.635,205.667,178.506,203.128,176.041z"/>
	</g>
</g>
<g>
	<g>
		<path d="M203.128,145.305c-0.403-0.391-0.994-0.791-1.811-1.193c-1.578-0.776-3.403-0.816-5.162-0.841
			c-18.665-0.264-37.581,0.257-56.151-0.382c-16.629-0.572-33.363-0.512-50.143-0.197c-3.397,0.063-3.403,5.659,0,5.723
			c36.024,0,71.888,2.545,107.798,1.568C200.742,149.899,205.667,147.771,203.128,145.305z"/>
	</g>
</g>
<g>
</g>
<g>
</g>
<g>
</g>
<g>
</g>
<g>
</g>
<g>
</g>
<g>
</g>
<g>
</g>
<g>
</g>
<g>
</g>
<g>
</g>
<g>
</g>
<g>
</g>
<g>
</g>
<g>
</g>
</svg>
