<?xml version="1.0" ?><!DOCTYPE svg  PUBLIC '-//W3C//DTD SVG 1.1//EN'  'http://www.w3.org/Graphics/SVG/1.1/DTD/svg11.dtd'><svg enable-background="new 0 0 39.777 32.029" height="32.029px" id="Layer_1" version="1.1" viewBox="0 0 39.777 32.029" width="39.777px" xml:space="preserve" xmlns="http://www.w3.org/2000/svg" xmlns:xlink="http://www.w3.org/1999/xlink"><g><g><g><path d="M11.805,32.029c-1.855,0-3.721-0.01-5.572-0.041c-2.297-0.039-3.919-0.597-4.958-1.706     c-0.925-0.986-1.35-2.407-1.263-4.225c0.164-3.438,3.017-5.912,6.797-5.912c0.03,0,0.06,0,0.09,0     c3,0.035,6.062-0.071,9.022-0.169c1.286-0.042,2.572-0.085,3.857-0.117c0.064,0.004,0.123,0.005,0.18,0.018     c0.058-0.013,0.125-0.014,0.179-0.018c1.365,0.032,2.731,0.057,4.097,0.082c3.21,0.058,6.529,0.117,9.795,0.276     c3.906,0.192,5.161,2.344,5.526,4.115c0.734,3.561-0.374,6.209-3.039,7.267c-0.879,0.35-1.844,0.386-2.839,0.394     c-3.216,0.023-6.431,0.019-9.646,0.016l-3.59-0.003c-1.441,0-2.882,0.006-4.324,0.012C14.697,32.023,13.254,32.029,11.805,32.029     z M6.811,21.646c-2.953,0-5.177,1.876-5.302,4.484c-0.067,1.415,0.213,2.438,0.859,3.127c0.748,0.797,2.02,1.2,3.89,1.231     c3.282,0.056,6.622,0.042,9.854,0.029c1.443-0.006,2.887-0.012,4.33-0.012l3.592,0.003c3.211,0.002,6.421,0.008,9.632-0.016     c0.846-0.007,1.658-0.034,2.296-0.288c2.632-1.044,2.46-3.938,2.125-5.569c-0.386-1.872-1.699-2.8-4.131-2.92     c-3.242-0.157-6.55-0.218-9.749-0.275c-1.368-0.024-2.737-0.049-4.105-0.081c-0.049-0.001-0.097-0.007-0.144-0.018     c-0.046,0.011-0.093,0.016-0.142,0.018c-1.282,0.032-2.564,0.074-3.846,0.116c-2.976,0.098-6.057,0.2-9.086,0.17     C6.859,21.646,6.835,21.646,6.811,21.646z"/></g></g><g><g><path d="M19.797,21.036c-0.201,0-0.402-0.08-0.55-0.239c-0.282-0.304-0.264-0.778,0.04-1.061l1.335-1.241     c1.06-0.985,2.12-1.971,3.184-2.953c3.269-3.021,4.159-6.454,2.721-10.497c-0.323-0.906-0.552-1.817-0.794-2.782     c-0.007-0.026-0.014-0.053-0.02-0.08L6.444,20.825c-0.297,0.288-0.772,0.281-1.061-0.018c-0.288-0.298-0.28-0.772,0.018-1.061     L25.594,0.21c0.19-0.184,0.466-0.253,0.72-0.185c0.256,0.07,0.456,0.271,0.525,0.527c0.124,0.456,0.237,0.903,0.348,1.344     c0.233,0.929,0.454,1.807,0.753,2.646c1.639,4.605,0.59,8.677-3.116,12.101c-1.062,0.981-2.121,1.966-3.18,2.95l-1.336,1.242     C20.163,20.97,19.979,21.036,19.797,21.036z"/></g></g><g><g><path d="M7.391,28.717c-0.479,0-1.039-0.376-1.736-0.845c-0.264-0.177-0.527-0.354-0.75-0.481     c-0.13-0.075-0.229-0.183-0.294-0.307c-0.345-0.178-0.501-0.595-0.347-0.959c0.434-1.028,1.091-2.252,2.335-2.595     c0.979-0.266,2.098,0.072,3.419,1.045c0.33,0.243,0.404,0.706,0.165,1.04c-0.173,0.241-0.339,0.497-0.507,0.754     c-0.496,0.759-1.009,1.544-1.742,2.146C7.764,28.655,7.583,28.717,7.391,28.717z M5.869,26.22     c0.196,0.122,0.409,0.265,0.622,0.407c0.215,0.145,0.532,0.356,0.757,0.487c0.438-0.439,0.81-1.011,1.173-1.565     c0.036-0.056,0.072-0.11,0.108-0.165c-0.518-0.305-1.087-0.525-1.532-0.407C6.599,25.087,6.235,25.485,5.869,26.22z"/></g></g><g><g><path d="M12.053,19.424c-0.203,0-0.406-0.082-0.554-0.244c-0.279-0.306-0.258-0.78,0.048-1.06l7.421-6.776     c0.307-0.279,0.781-0.258,1.06,0.048c0.279,0.306,0.258,0.78-0.048,1.06l-7.421,6.776C12.415,19.359,12.234,19.424,12.053,19.424     z"/></g></g></g></svg>