<?xml version="1.0" ?><!DOCTYPE svg  PUBLIC '-//W3C//DTD SVG 1.1//EN'  'http://www.w3.org/Graphics/SVG/1.1/DTD/svg11.dtd'><svg enable-background="new 0 0 39.649 34.353" height="34.353px" id="Layer_1" version="1.1" viewBox="0 0 39.649 34.353" width="39.649px" xml:space="preserve" xmlns="http://www.w3.org/2000/svg" xmlns:xlink="http://www.w3.org/1999/xlink"><g><g><g><path d="M24.89,32.347c-0.376,0-0.7-0.282-0.744-0.664c-0.048-0.412,0.247-0.784,0.659-0.832l10.519-1.217l2.663-9.519     C30.598,17.333,25.479,7.241,23.806,0.944c-0.106-0.4,0.132-0.811,0.532-0.917c0.404-0.107,0.812,0.132,0.917,0.532     c2.028,7.626,7.441,16.382,13.865,18.361c0.389,0.12,0.611,0.527,0.502,0.919l-2.989,10.686     c-0.082,0.293-0.334,0.508-0.637,0.543l-11.02,1.275C24.947,32.346,24.919,32.347,24.89,32.347z"/></g></g><g><g><path d="M15.189,34.353c-4.252,0-8.708-0.985-13.495-2.974c-0.28-0.117-0.462-0.39-0.462-0.693v-8.769     c0-0.022,0.001-0.044,0.003-0.065l-0.758-0.297c-0.25-0.098-0.428-0.321-0.468-0.586s0.065-0.532,0.275-0.699     c6.78-5.396,9.815-10.479,9.843-16.485c0.001-0.35,0.245-0.653,0.587-0.729l13.654-3.037c0.237-0.052,0.48,0.011,0.661,0.171     c0.18,0.16,0.272,0.396,0.248,0.636l-0.575,5.708C24.7,7.25,24.769,8.045,24.842,8.887c0.059,0.676,0.116,1.356,0.138,2.038     c0.051,1.69,0.055,3.407,0.058,5.067c0.007,3.2,0.014,6.508,0.366,9.704c0.641,5.816,0.574,7.086-5.224,8.189     C18.543,34.197,16.882,34.353,15.189,34.353z M2.732,30.183c6.229,2.512,11.85,3.242,17.167,2.229     c4.639-0.882,4.627-0.989,4.015-6.551c-0.362-3.276-0.369-6.626-0.376-9.866c-0.003-1.65-0.007-3.356-0.058-5.024     c-0.02-0.654-0.076-1.306-0.132-1.955c-0.073-0.838-0.147-1.706-0.143-2.562l0.475-4.746L11.614,4.392     c-0.209,5.932-3.139,10.999-9.396,16.235l8.103,3.174c0.386,0.151,0.576,0.586,0.425,0.972c-0.151,0.386-0.589,0.574-0.972,0.425     l-7.043-2.758V30.183z"/></g></g><g><g><path d="M11.339,33.315c-0.376,0-0.701-0.283-0.744-0.666l-0.902-7.948c-0.033-0.293,0.109-0.579,0.363-0.73     c5.71-3.382,11.655-15.774,13.751-23.418c0.11-0.399,0.521-0.637,0.922-0.525c0.399,0.109,0.635,0.522,0.525,0.921     c-2.035,7.423-7.845,19.998-14.018,24.053l0.849,7.479c0.047,0.412-0.249,0.783-0.661,0.83     C11.396,33.313,11.367,33.315,11.339,33.315z"/></g></g></g></svg>