<?xml version="1.0" ?><!DOCTYPE svg  PUBLIC '-//W3C//DTD SVG 1.1//EN'  'http://www.w3.org/Graphics/SVG/1.1/DTD/svg11.dtd'><svg enable-background="new 0 0 40.76 33.292" height="33.292px" id="Layer_1" version="1.1" viewBox="0 0 40.76 33.292" width="40.76px" xml:space="preserve" xmlns="http://www.w3.org/2000/svg" xmlns:xlink="http://www.w3.org/1999/xlink"><g><g><g><path d="M6.108,33.292c-0.17,0-0.336-0.058-0.47-0.166L0.28,28.813c-0.159-0.128-0.259-0.315-0.277-0.519     c-0.018-0.204,0.048-0.405,0.182-0.559c0.961-1.102,1.92-2.175,2.869-3.237c2.158-2.416,4.196-4.698,6.111-7.126     c0.717-0.91,1.349-1.945,1.959-2.946c1.493-2.448,3.036-4.979,6.086-6.331c0.164-0.073,0.404-0.541,0.563-0.85     c0.138-0.269,0.278-0.536,0.434-0.767l3.323-4.889c0.114-0.168,0.292-0.283,0.492-0.317c0.199-0.035,0.405,0.012,0.57,0.132     c1.017,0.739,1.97,1.5,2.892,2.237c2.001,1.598,3.891,3.107,5.977,4.015c1.637,0.711,3.607,0.774,5.694,0.841     c0.959,0.03,1.951,0.062,2.931,0.16c0.248,0.024,0.468,0.171,0.586,0.391s0.119,0.484,0.003,0.705     c-3.825,7.264-6.905,10.546-12.209,13.007c-0.183,0.085-0.391,0.093-0.58,0.022s-0.34-0.214-0.422-0.398l-3.733-8.415     c-0.967,0.915-1.938,1.825-2.91,2.736c-3.263,3.058-6.637,6.22-9.774,9.489c-1.196,1.248-2.066,2.813-2.988,4.472     c-0.418,0.752-0.85,1.529-1.314,2.273c-0.114,0.182-0.3,0.306-0.511,0.342C6.191,33.288,6.149,33.292,6.108,33.292z M1.83,28.134     l4.08,3.285c0.286-0.489,0.562-0.986,0.838-1.482c0.927-1.668,1.885-3.394,3.216-4.782c3.165-3.298,6.554-6.474,9.831-9.545     c1.337-1.253,2.675-2.507,4-3.771c0.298-0.286,0.774-0.276,1.061,0.025c0.268,0.281,0.274,0.715,0.028,1.004l3.638,8.2     c4.309-2.154,7.051-5.086,10.284-11.005c-0.568-0.032-1.139-0.05-1.699-0.068c-2.136-0.068-4.344-0.138-6.244-0.964     c-2.269-0.988-4.234-2.557-6.314-4.219c-0.716-0.572-1.452-1.16-2.216-1.735l-2.883,4.241c-0.124,0.183-0.232,0.398-0.342,0.611     c-0.301,0.585-0.642,1.248-1.29,1.535c-2.621,1.162-3.977,3.386-5.413,5.741c-0.633,1.039-1.289,2.113-2.062,3.094     c-1.943,2.464-3.997,4.763-6.17,7.197C3.397,26.365,2.614,27.241,1.83,28.134z"/></g></g><g><g><path d="M29.584,5.116c-0.208,0-0.415-0.086-0.563-0.253c-0.708-0.802-1.531-1.205-2.402-1.631     c-0.965-0.472-1.963-0.959-2.869-1.986c-0.274-0.311-0.244-0.784,0.066-1.059c0.311-0.273,0.785-0.244,1.059,0.066     c0.708,0.802,1.531,1.205,2.402,1.63c0.965,0.472,1.963,0.959,2.869,1.986c0.274,0.31,0.244,0.784-0.066,1.059     C29.937,5.054,29.76,5.116,29.584,5.116z"/></g></g><g><g><path d="M24.313,13.132c-0.184,0-0.368-0.067-0.513-0.203L18.637,8.09c-0.302-0.284-0.317-0.758-0.034-1.061     c0.284-0.302,0.758-0.316,1.061-0.034l5.162,4.84c0.302,0.283,0.317,0.758,0.034,1.06C24.712,13.053,24.512,13.132,24.313,13.132     z"/></g></g></g></svg>