<?xml version="1.0" ?><!DOCTYPE svg  PUBLIC '-//W3C//DTD SVG 1.1//EN'  'http://www.w3.org/Graphics/SVG/1.1/DTD/svg11.dtd'><svg enable-background="new 0 0 45.524 33.258" height="33.258px" id="Layer_1" version="1.1" viewBox="0 0 45.524 33.258" width="45.524px" xml:space="preserve" xmlns="http://www.w3.org/2000/svg" xmlns:xlink="http://www.w3.org/1999/xlink"><g><g><g><path d="M35.487,32.742c-1.676,0-3.412-0.443-5.072-1.708c-2.419-1.841-3.616-4.561-3.286-7.46     c0.389-3.407,2.758-6.405,6.337-8.019c0.152-0.069,0.315-0.083,0.47-0.049c0.052-0.012,0.105-0.018,0.161-0.018     c0.451,0,0.916-0.037,1.38-0.073c1.12-0.088,2.282-0.18,3.355,0.191c3.364,1.16,5.702,3.849,6.584,7.572     c0.683,2.874-1.96,7.413-4.961,8.52C38.975,32.243,37.265,32.742,35.487,32.742z M33.964,16.976     c-3.026,1.406-5.021,3.927-5.345,6.767c-0.269,2.361,0.717,4.584,2.704,6.097c2.824,2.151,5.938,1.435,8.612,0.45     c2.449-0.903,4.487-4.804,4.021-6.767c-0.771-3.252-2.712-5.5-5.613-6.5c-0.779-0.269-1.733-0.193-2.751-0.114     c-0.503,0.04-1.006,0.078-1.496,0.078C34.052,16.988,34.007,16.984,33.964,16.976z"/></g></g><g><g><path d="M9.401,33.258c-0.626,0-1.262-0.063-1.901-0.191c-2.32-0.466-4.578-2.137-6.038-4.47     c-1.312-2.095-1.77-4.427-1.257-6.398c0.911-3.501,3.039-5.166,4.663-5.945c2.335-1.12,5.173-1.139,7.596-0.054     c0.378,0.169,0.547,0.613,0.378,0.991c-0.17,0.378-0.614,0.545-0.991,0.378c-2.025-0.909-4.394-0.894-6.333,0.038     c-1.919,0.92-3.254,2.639-3.861,4.97C1.247,24.149,1.64,26.054,2.733,27.8c1.245,1.99,3.138,3.409,5.062,3.795     c2.164,0.433,4.271-0.014,5.935-1.262c1.825-1.371,2.949-3.535,3.165-6.091c0.035-0.414,0.405-0.71,0.811-0.685     c0.412,0.035,0.719,0.398,0.684,0.811c-0.252,2.989-1.587,5.533-3.759,7.165C13.118,32.668,11.309,33.258,9.401,33.258z"/></g></g><g><g><path d="M19.901,24.731c-0.06,0-0.119-0.007-0.179-0.021c-0.402-0.098-0.649-0.503-0.551-0.906l0.64-2.621l-4.879-9.108     c-0.124-0.232-0.118-0.513,0.018-0.739s0.38-0.365,0.644-0.365h16.244c0.414,0,0.75,0.336,0.75,0.75s-0.336,0.75-0.75,0.75     H16.847l4.423,8.257c0.087,0.163,0.111,0.353,0.067,0.532l-0.708,2.899C20.546,24.501,20.239,24.731,19.901,24.731z"/></g></g><g><g><path d="M23.772,22.474c-0.192,0-0.384-0.073-0.53-0.22c-0.293-0.293-0.293-0.768,0-1.061l8.33-8.331V4.816     c-2.778-0.091-5.712-0.713-7.477-3.683c-0.212-0.356-0.095-0.816,0.262-1.028c0.355-0.213,0.816-0.094,1.027,0.261     c1.452,2.443,3.824,2.951,6.94,2.962c0.413,0.001,0.747,0.337,0.747,0.75v9.094c0,0.199-0.079,0.39-0.22,0.53l-8.55,8.55     C24.156,22.4,23.965,22.474,23.772,22.474z"/></g></g><g><g><path d="M17.643,24.409c-0.039,0-0.079-0.003-0.119-0.009c-0.409-0.065-0.688-0.45-0.622-0.859     c0.35-2.191-0.803-3.143-2.713-4.515c-0.54-0.389-1.099-0.79-1.6-1.246c-0.283-0.258-0.327-0.688-0.101-0.998l2.613-3.568     c0.243-0.333,0.712-0.407,1.048-0.162c0.334,0.245,0.406,0.714,0.161,1.048l-2.198,3.002c0.301,0.236,0.62,0.466,0.952,0.704     c1.796,1.291,3.832,2.753,3.317,5.971C18.323,24.146,18.005,24.409,17.643,24.409z"/></g></g><g><g><path d="M36.354,25.7c-0.307,0-0.594-0.189-0.705-0.494l-3.871-10.648c-0.142-0.389,0.06-0.819,0.448-0.961     c0.393-0.14,0.82,0.059,0.962,0.448l3.871,10.648c0.142,0.39-0.06,0.82-0.449,0.961C36.526,25.686,36.439,25.7,36.354,25.7z"/></g></g><g><g><path d="M22.007,27.04c-0.029,0-0.059-0.002-0.089-0.005c-0.198-0.023-0.38-0.126-0.503-0.284     c-1.768-2.272-3.965-2.155-6.509-2.016c-1.995,0.107-4.059,0.218-5.931-0.93c-0.174-0.106-0.297-0.279-0.341-0.478     s-0.005-0.407,0.108-0.577l3.112-4.668c0.229-0.344,0.694-0.438,1.04-0.208c0.345,0.23,0.438,0.695,0.208,1.04l-2.643,3.964     c1.314,0.524,2.803,0.443,4.364,0.359c2.407-0.13,5.106-0.276,7.279,2.017l1.761-1.401c-0.719-1.549-1.503-1.999-2.842-1.718     c-0.406,0.087-0.803-0.172-0.89-0.578c-0.086-0.405,0.172-0.803,0.577-0.889c3.238-0.686,4.348,2.091,4.766,3.137     c0.123,0.307,0.03,0.659-0.229,0.865l-2.772,2.207C22.341,26.982,22.176,27.04,22.007,27.04z"/></g></g><g><g><path d="M16.676,6.664c-0.011,0-0.021,0-0.03,0L8.256,6.34C7.842,6.324,7.52,5.975,7.536,5.561     c0.017-0.415,0.413-0.731,0.778-0.72l8.39,0.323c0.414,0.016,0.736,0.365,0.72,0.778C17.408,6.347,17.076,6.664,16.676,6.664z"/></g></g><g><g><path d="M15.706,12.148c-0.297,0-0.579-0.178-0.696-0.471l-1.937-4.841c-0.154-0.384,0.033-0.821,0.418-0.975     c0.383-0.154,0.821,0.033,0.975,0.418l1.937,4.84c0.154,0.384-0.033,0.821-0.417,0.975     C15.894,12.131,15.799,12.148,15.706,12.148z"/></g></g></g></svg>