<svg id="Capa_1" enable-background="new 0 0 512.002 512.002" height="512" viewBox="0 0 512.002 512.002" width="512" xmlns="http://www.w3.org/2000/svg"><g><g><path d="m247.836 42.957c2.401 1.779 5.515 2.724 8.822 2.724.93 0 1.875-.074 2.823-.226 5.813-.93 10.938-4.6 13.375-9.58 2.691-5.496 1.845-12.38-2.059-16.741-3.578-3.998-8.732-5.607-14.146-4.41-6.324 1.396-11.787 6.33-13.596 12.275-1.813 5.965.152 12.527 4.781 15.958zm1.918-13.92c1.078-3.547 4.536-6.622 8.408-7.477.595-.131 1.264-.223 1.973-.223 1.749 0 3.741.56 5.446 2.466 2.02 2.256 2.435 6.039.988 8.995-1.453 2.968-4.592 5.169-8.193 5.745-2.477.397-4.8-.045-6.373-1.21-2.22-1.646-3.187-5.212-2.249-8.296z"/><path d="m250.255 88.574c-1.933 0-3.5 1.567-3.5 3.5v19.564h-14.563c-1.933 0-3.5 1.567-3.5 3.5v16.487c0 1.933 1.567 3.5 3.5 3.5h14.563v49.355c0 1.933 1.567 3.5 3.5 3.5h16.487c1.933 0 3.5-1.567 3.5-3.5v-49.355h14.564c1.933 0 3.5-1.567 3.5-3.5v-16.487c0-1.933-1.567-3.5-3.5-3.5h-14.564v-19.564c0-1.933-1.567-3.5-3.5-3.5zm31.051 30.064v9.487h-14.564c-1.933 0-3.5 1.567-3.5 3.5v49.355h-9.487v-49.355c0-1.933-1.567-3.5-3.5-3.5h-14.563v-9.487h14.563c1.933 0 3.5-1.567 3.5-3.5v-19.564h9.487v19.564c0 1.933 1.567 3.5 3.5 3.5z"/><path d="m497.491 447.615c-3.884-6.579-10.027-11.84-17.122-14.85 4.828-4.127 8.903-8.909 10.126-15.279.972-5.068-.273-10.427-3.509-15.092-3.934-5.672-10.312-9.745-17.064-10.895-8.143-1.377-17.083.519-26.652 5.634-1.187-9.481-7.227-18.642-16.31-24.099.548-4.593 1.002-8.617 1.354-12.742 1.306-15.13 2.525-30.149 3.625-44.637 1.973-25.731 3.801-52.644 5.432-79.993.221-3.744.554-7.64.875-11.406.742-8.699 1.509-17.692 1.1-26.459.477-.071.953-.151 1.429-.24 14.399-2.666 25.95-14.23 27.466-27.496 1.558-13.639-8.017-27.424-21.341-30.729-10.76-2.671-22.561 1.846-29.335 10.421-11.828-28.641-31.743-54.217-56.654-72.594-13.755-10.168-29.044-18.211-45.441-23.906-8.428-2.932-17.104-5.219-25.784-6.796-1.263-.23-2.531-.521-3.837-.838 2.4-4.462 3.65-9.433 3.65-14.62-.002-17.093-13.907-30.999-31-30.999-17.092 0-30.999 13.906-30.999 30.999 0 5.187 1.251 10.158 3.65 14.62-1.308.317-2.578.607-3.845.837-8.685 1.579-17.36 3.866-25.784 6.796-16.38 5.689-31.669 13.732-45.441 23.905-24.904 18.378-44.818 43.957-56.656 72.597-6.772-8.574-18.574-13.091-29.336-10.422-13.319 3.303-22.888 17.088-21.33 30.726 1.503 13.266 13.051 24.832 27.447 27.498.479.09.958.17 1.438.242-.419 8.784.356 17.809 1.107 26.539.321 3.741.654 7.609.877 11.326 1.575 26.568 3.398 53.481 5.421 79.993 1.226 15.991 2.415 30.592 3.636 44.631.439 5.194 1.077 10.522 1.694 15.673.8 6.68 1.614 13.536 2.024 20.265-13.853-4.936-29.686-3.288-41.727 4.671-14.841 9.816-22.853 28.498-20.273 45.987-.014 0-.027 0-.041 0-3.153 0-6.373.866-9.426 2.573-5.546 3.103-9.587 8.479-10.81 14.386-2.063 10.018 2.891 21.356 12.328 28.215 7.273 5.285 16.708 8.14 28.841 8.729 15.158.75 31.561-1.86 51.649-8.203l2.585-.824c10.488-3.356 21.335-6.826 31.347-4.254 5.307 1.369 10.078 4.332 15.13 7.468 2.525 1.568 5.138 3.189 7.853 4.617 24.688 12.937 57.193 7.111 76.228-13.003 10.053 14.486 26.609 24.038 44.28 25.276 1.321.093 2.642.139 3.961.139 16.473 0 32.612-7.135 43.697-19.299 10.806 12.511 27.696 19.932 44.196 19.165 16.698-.789 32.991-9.961 42.537-23.686 13.762 9.645 29.256 14.071 45.036 12.834l1.346-.105c14.431-1.125 28.061-2.188 36.797-17.884h-.001c6.031-10.828 5.857-24.729-.444-35.412zm-410.875-212.369c-.229-3.81-.565-7.724-.891-11.509-.732-8.518-1.49-17.325-1.089-25.643.04-.764.144-1.859.286-3.004.12-.968-.169-1.941-.798-2.687-.628-.746-1.539-1.195-2.513-1.24-1.343-.063-2.727-.227-4.122-.489-2.428-.45-4.757-1.246-6.945-2.294 4.731-.353 9.389-1.645 13.607-3.842 6.007-3.126 10.02-7.701 11.301-12.879 1.681-6.793-1.638-14.3-7.891-17.851-5.877-3.337-13.625-2.828-19.282 1.27-3.024 2.191-5.011 5.105-5.593 8.203-.783 4.161 1.199 8.447 4.714 10.189 2.14 1.062 4.76 1.036 7.006-.068 2.087-1.025 3.528-2.838 3.954-4.972.378-1.896-.835-3.784-2.732-4.162-1.892-.376-3.721.808-4.1 2.704-.132.182-.728.372-1.019.227-.701-.348-1.143-1.574-.945-2.624.247-1.313 1.275-2.708 2.821-3.828 3.418-2.477 8.237-2.828 11.718-.852 3.465 1.968 5.465 6.396 4.553 10.083-1.068 4.317-5.307 7.086-7.738 8.351-5.32 2.771-11.507 3.766-17.43 2.804-.754-.124-1.485.01-2.118.326-3.098-3.548-5.159-7.783-5.659-12.192-1.153-10.098 6.201-20.695 16.061-23.141 9.861-2.447 21.327 3.479 25.028 12.941.525 1.343 1.82 2.225 3.26 2.225.015 0 .029 0 .044-.001 1.457-.018 2.751-.938 3.247-2.308 10.909-30.114 31.11-57.174 56.885-76.195 13.206-9.754 27.869-17.467 43.583-22.925 8.084-2.813 16.407-5.007 24.737-6.521 2.071-.376 4.128-.889 6.116-1.384.96-.239 1.922-.479 2.886-.703 1.162-.271 2.107-1.115 2.506-2.24.398-1.125.197-2.375-.536-3.318-3.29-4.231-5.029-9.315-5.029-14.7.001-13.231 10.767-23.997 24-23.997 13.232 0 23.998 10.766 23.998 23.999 0 5.385-1.739 10.468-5.029 14.7-.733.942-.936 2.194-.536 3.319.399 1.125 1.346 1.969 2.509 2.239.987.229 1.972.474 2.953.719 1.962.489 3.991.994 6.035 1.367 8.328 1.514 16.651 3.708 24.74 6.522 15.731 5.464 30.393 13.177 43.582 22.925 25.783 19.02 45.984 46.08 56.883 76.193.496 1.371 1.789 2.29 3.246 2.309.016.001.03.001.045.001 1.439 0 2.734-.882 3.26-2.225 3.701-9.463 15.161-15.392 25.028-12.941 9.864 2.446 17.225 13.043 16.071 23.141-.503 4.408-2.566 8.641-5.665 12.188-.631-.312-1.358-.443-2.108-.322-5.922.961-12.109-.034-17.43-2.804-2.432-1.266-6.67-4.034-7.738-8.351-.911-3.686 1.088-8.116 4.553-10.083 3.479-1.975 8.299-1.626 11.719.852 1.546 1.119 2.574 2.515 2.821 3.829.197 1.05-.244 2.276-.946 2.624-.285.143-.885-.045-.983-.137-.377-1.896-2.211-3.127-4.116-2.749-1.896.377-3.126 2.22-2.749 4.116.425 2.134 1.865 3.947 3.952 4.973 2.246 1.104 4.865 1.131 7.008.069 3.515-1.744 5.497-6.029 4.714-10.189-.583-3.1-2.57-6.013-5.593-8.203-5.655-4.097-13.404-4.607-19.283-1.27-6.252 3.551-9.57 11.058-7.891 17.851 1.281 5.179 5.294 9.753 11.301 12.879 4.215 2.195 8.868 3.487 13.594 3.841-2.19 1.049-4.522 1.847-6.952 2.297-1.389.261-2.773.425-4.115.487-.978.045-1.893.499-2.521 1.251-.629.751-.913 1.732-.785 2.703.185 1.397.257 2.464.282 2.96.394 8.309-.355 17.091-1.08 25.583-.325 3.812-.662 7.753-.889 11.587-1.628 27.308-3.453 54.181-5.424 79.876-1.098 14.466-2.315 29.461-3.619 44.571-.282 3.302-.396 6.805-1.101 10.033.202-.924-13.315-2.169-14.001-2.922-.903-.99.365-5.678.52-7.029.303-2.651.612-5.301.925-7.951 1.266-10.696 2.61-21.383 3.955-32.07l.308-2.428c.991-7.827 1.982-15.646 2.964-23.481l.689-5.446c.461-3.646.923-7.292 1.374-10.931l4.751-37.664c.934-7.359 1.867-14.728 2.791-22.103l.387-3.073c.498-3.928.997-7.859 1.487-11.8l.43-3.415c.129-.958.212-2.524.317-4.508l.068-1.256c.092-1.673-1.016-3.177-2.642-3.585-5.907-1.487-11.821-4.38-17.096-8.363-10.272-7.786-17.495-18.763-22.636-27.448-1.145-1.948-2.282-3.939-3.479-6.085-.769-1.379-2.361-2.076-3.898-1.695-1.533.379-2.622 1.739-2.658 3.317-.37 16.223-.729 32.456-1.078 48.683-.002.087-.004.174-.006.261-.151 6.452-.294 12.914-.436 19.374-.41 18.244-.81 36.489-1.21 54.743l-.15 6.742c-.039 1.751-.076 3.499-.114 5.25-.067 3.024-.137 6.049-.201 9.073 0 .012.003.024.003.036-.099 4.078-.19 8.161-.28 12.242 0 0-.15 6.756-.15 6.756-.322 12.363-.541 24.727-1.513 37.062-.496 6.298-1.172 12.584-2.123 18.831-.449 2.948-.313 5.638-2.578 7.488-1.425 1.164-6.769 5.829-8.551 5.688-2.074-.164-5.077-7.07-6.432-8.819-.224-.289-.439-.588-.668-.872l.994-25.38c.685-17.477 1.369-34.955 2.061-52.439l.965-24.778c.663-16.985 1.327-33.979 2.001-50.971.267-7.046.544-14.102.831-21.164l.275-7.031c.75-19.195 1.5-38.396 2.26-57.601.197-5.389.547-10.137 2.838-13.68.8-1.237.739-2.842-.151-4.016-10.576-13.942-23.76-25.718-39.185-35.001-1.047-.629-2.348-.669-3.428-.102-1.083.566-1.791 1.656-1.87 2.876-.374 5.811-.335 11.715-.298 17.425.019 2.853.038 5.802.004 8.658-.267 22.83-.533 45.649-.81 68.471-.036 3.169-.077 6.335-.118 9.501-.041 3.169-.082 6.339-.118 9.509l-.074 6.19-.041 3.328c-.051 4.347-.103 8.694-.162 13.044-.146 11.679-.283 23.357-.42 35.036l-.196 16.678c-.103 7.965-.205 15.94-.287 23.907l-.003.251c-.081 6.321-.162 12.631-.233 18.95-.076 6.361-.153 12.721-.229 19.082-.054 4.524-.109 9.048-.163 13.572-.019 1.602.001 3.21-.058 4.811-.084 2.308.057 2.365-2.637 2.55-3.69.254-7.313.932-10.857 1.983-.362.107-.733.222-1.107.34-.111.035-.216.065-.329.101-.508-18.37-1.062-39.574-1.476-61.228 0-.015.004-.03.004-.045 0-.042-.006-.082-.007-.124-.137-7.039-.29-15.33-.397-23.55-.255-17.814-.369-35.243-.339-51.804.004-3.092.014-6.083.028-9.034.023-4.793.059-9.495.109-14.033 0-.013-.003-.025-.003-.038.421-38.655 1.714-73.729 3.952-107.218.315-4.563.641-9.282 2.366-13.271.168-.379.345-.741.53-1.103.45-.878.509-1.905.162-2.828s-1.067-1.657-1.983-2.021c-10.424-4.144-21.695-7.081-33.5-8.73-.16-.022-.322-.034-.484-.034h-18.459c-.162 0-.324.011-.484.034-11.804 1.649-23.074 4.586-33.499 8.73-.915.364-1.635 1.097-1.982 2.019-.348.922-.29 1.948.158 2.825.186.364.363.728.521 1.082 1.762 4.071 2.089 8.969 2.377 13.291 2.273 33.958 3.573 69.734 3.973 109.368 0 .01-.003.02-.003.03.008.77.014 1.54.021 2.311.024 2.682.046 5.368.062 8.061.002.371.005.741.007 1.112.019 3.566.032 7.13.037 10.669.02 16.869-.104 34.597-.368 52.685 0 .01-.003.019-.003.029-.043 2.8-.099 5.602-.146 8.404-.08 4.709-.154 9.417-.251 14.125-.225 10.948-.453 21.895-.724 32.842-.16 6.467-.331 12.933-.502 19.399-.033 1.257.259 2.575-.642 3.348-.823.705-3.634.81-4.741 1.13-3.364.974-6.644 2.286-9.73 3.942.151-13.362-.306-26.776-.466-40.146-.011-.888-.022-1.775-.032-2.663-.031-2.911-.066-5.824-.103-8.738-.036-2.91-.072-5.819-.102-8.735 0 0-.255-21.333-.255-21.336l-.2-16.695c-.146-12.395-.292-24.787-.448-37.175l-.239-19.577s-.017-1.399-.017-1.399c-.056-5.137-.121-10.274-.186-15.412l-.912-75.804c-.035-2.875-.015-5.845.005-8.718.038-5.689.077-11.571-.289-17.36-.077-1.22-.785-2.311-1.867-2.878-1.081-.567-2.382-.53-3.43.1-15.435 9.282-28.618 21.059-39.187 35.002-.891 1.175-.949 2.783-.146 4.02 2.445 3.767 2.657 9.038 2.845 13.685l.096 2.437c.892 22.663 1.783 45.318 2.665 67.974.282 7.202.564 14.405.846 21.607.644 16.457 1.288 32.913 1.932 49.37.706 18.036 1.412 36.073 2.118 54.109.467 11.941.935 23.883 1.402 35.825.049 1.26.323 2.784-.082 3.919.055-.155-16.671-1.502-18.128-1.597-3.384-17.418-2.951-35.996-3.348-53.673-.123-5.21-.236-10.41-.349-15.626-.097-4.211-.187-8.417-.278-12.624-.043-2.004-.089-4.008-.13-6.012 0-.01-.003-.019-.004-.029l-.083-3.721c-.392-17.54-.784-35.088-1.167-52.629l-.122-5.515c-.079-3.662-.156-7.324-.241-10.986 0-.011-.004-.021-.004-.032l-1.244-55.98c-.035-1.579-1.124-2.938-2.657-3.318-1.525-.38-3.129.313-3.899 1.693-1.203 2.16-2.342 4.15-3.476 6.079-7.619 12.895-14.602 21.362-22.636 27.453-5.264 3.982-11.177 6.875-17.1 8.365-1.63.41-2.738 1.921-2.64 3.6l.099 1.737c.097 1.739.174 3.112.281 3.983 0 0 1.669 13.198 1.67 13.223l1.468 11.705c.001.011.005.02.007.031l1.955 15.459c1.766 14.037 3.53 28.065 5.306 42.082l.507 4.018 1.565 12.417c.893 7.102 1.785 14.194 2.688 21.292 1.397 11.071 2.793 22.142 4.101 33.223.671 5.684 1.319 11.371 1.932 17.061.414 3.841 2.981 12.294.236 15.262-4.192 4.533-7.639 9.78-10.125 15.433-.62-.39-1.251-.763-1.898-1.126-.307-8.116-1.293-16.352-2.249-24.337-.609-5.093-1.24-10.358-1.67-15.44-1.22-14.022-2.407-28.601-3.63-44.566-2.024-26.474-3.845-53.347-5.417-79.878zm292.274 45.59c.031-1.378.061-2.756.092-4.134 10.174.825 20.46 1.893 30.63 3.182-.162 1.294-.325 2.588-.488 3.882-.262 2.08-.524 4.161-.788 6.24-.152.002-.304.003-.454.005l-29.201.426c.068-3.2.137-6.402.209-9.601zm35.887-41.908-4.29 34.012c-10.412-1.319-20.937-2.397-31.35-3.235.351-16.032.703-32.057 1.063-48.082 12.218-.21 24.442-.427 36.659-.646l.185-.003c-.753 5.99-1.509 11.976-2.267 17.954zm-34.143-36.683c6.642.371 13.476.804 20.366 1.289 4.6.317 9.266.67 13.872 1.05 1.534.125 2.913.251 4.18.462l-1.123 8.911c-.04.001-.08.001-.121.002l-1.074.019c-12.123.217-24.253.434-36.377.642.051-2.356.105-4.711.158-7.067.039-1.769.078-3.539.119-5.308zm39.288-4.147c-1.438-.226-2.918-.363-4.476-.49-4.636-.382-9.334-.738-13.959-1.056-7.005-.494-13.943-.93-20.697-1.306.238-10.994.478-21.988.725-32.978 5.238 8.341 12.225 17.813 21.727 25.015 5.197 3.925 10.961 6.928 16.82 8.777-.045.812-.092 1.526-.14 2.038zm-41.752 115.009.151-6.757c.065-2.967.134-5.938.203-8.909l28.928-.422c-.815 6.479-1.632 12.954-2.452 19.429l-.309 2.433c-1.98 15.735-4.013 31.969-5.769 48.047-2.015.116-4.009.315-5.953.611-6.108.919-12.551 2.576-18.916 4.841 3.25-19.806 3.695-39.84 4.117-59.273zm-57.514 41.423.486-40.457c.06-5.267.127-10.528.194-15.793 7.964-.115 15.924-.231 23.888-.353-.644 16.252-1.28 32.501-1.917 48.748l-.729 18.609c-6.528-5.742-13.962-9.396-21.922-10.754zm2.945-254.109c-.023-3.611-.048-7.301.034-10.961 11.754 7.808 22.286 17.466 30.785 28.25-2.355 4.992-2.564 10.685-2.721 14.989-.759 19.194-1.51 38.397-2.26 57.593l-.139 3.552c-8.769-.294-17.713-.509-26.7-.642.025-2.005.049-4.01.075-6.014.041-3.169.082-6.339.118-9.509.277-22.821.544-45.641.81-68.471.037-2.92.016-5.902-.002-8.787zm-1.739 153.866c.124-10.545.249-21.09.379-31.632l25.948-.46c-.602 15.206-1.198 30.419-1.792 45.625-8.203-.281-16.475-.416-24.69-.401zm.529-50.319c.046-2.125.098-3.772.126-3.772 8.917.132 17.803.345 26.503.637-.191 4.789-.379 9.573-.563 14.356-4.88.086-9.761.173-14.641.259-2.733.048-6.358.758-9.026.16-2.36-.529-1.722.375-2.427-2.359-.113-.44-.051-5.584.028-9.281zm-.767 70.44c8.182-.01 16.365.117 24.497.395l-.628 16.122c-8.026.123-16.047.239-24.072.355.062-5.626.131-11.25.203-16.872zm-94.268-72.382c19.827-1.052 39.764-1.69 59.308-1.898.993-.01 1.988-.02 2.982-.028-.025 2.811-.047 5.652-.062 8.544 0 2.531-.025 5.061-.031 7.592-9.669.171-19.339.342-29.008.514-6.993.124-13.985.248-20.978.371-2.556.045-5.112.09-7.668.136-3 .054-3.684.67-4.467-2.278-.272-1.028-.028-12.956-.076-12.953zm-.328 74.958c9.485-.482 19.108-.636 28.447-.786 11.211-.18 22.768-.366 34.234-1.115.035 1.285.075 2.814.118 4.449.093 3.471.197 7.41.284 10.48.018.612.034 1.191.05 1.724-21.136.315-42.27.621-63.406.926.099-5.224.189-10.453.273-15.678zm28.335-7.785c-9.252.149-18.777.321-28.23.791.212-15.625.319-30.946.319-45.655l62.094-1.1c-.008 14.423.091 29.463.295 44.816-11.493.771-23.162.966-34.478 1.148zm38.286-180.316c-2.181 32.64-3.465 66.773-3.926 104.219-1.044.009-2.087.015-3.129.025-19.55.208-39.48.86-59.308 1.908-.443-38.331-1.735-73.1-3.947-106.152-.269-4.023-.594-8.898-2.141-13.514 8.893-3.247 18.398-5.598 28.312-6.999h17.969c9.914 1.401 19.418 3.751 28.309 6.998-1.519 4.515-1.846 9.258-2.139 13.515zm-67.034 210.781c21.247-.307 42.493-.615 63.74-.931.424 21.412.975 42.248 1.475 60.21-.745.29-1.492.573-2.235.865-7.846 3.087-15.255 6.002-22.808 4.975-5.318-.719-10.219-3.352-15.406-6.141-3.226-1.733-6.561-3.526-10.102-4.892-4.934-1.902-10.362-2.817-15.89-2.732.545-20.178.931-36.309 1.226-51.354zm-33.232-190.455.912 75.809c.051 4.041.1 8.083.146 12.126-7.665.584-15.271 1.221-22.65 1.904l-.331.031c-1.178.11-2.357.223-3.537.335-.834-21.422-1.676-42.845-2.52-64.276l-.096-2.44c-.184-4.566-.406-10.099-2.728-14.992 8.491-10.782 19.02-20.437 30.776-28.243.08 3.639.055 7.308.031 10.897-.018 2.904-.038 5.907-.003 8.849zm-22.285 171.281 8.813-.529c5.173-.31 10.346-.647 15.518-.991l.06 5.027.109 9.119-23.992.347zm8.393-7.516-8.668.52-1.883-48.118 25.839-.457c.14 11.218.274 22.435.407 33.656l.16 13.385c-5.285.35-10.569.697-15.855 1.014zm15.035-68.821.078 6.386.09 7.379-26.024.46-.471-11.965c1.305-.124 2.609-.245 3.911-.366l.328-.031c7.198-.665 14.611-1.291 22.088-1.863zm-19.899 166.518-2.748-70.211 23.802-.344c.021 1.743.04 3.485.061 5.229.036 2.91.072 5.819.103 8.731l.564 47.255c-5.125 3.983-9.25 8.835-12.107 14.27-3.017-1.94-6.26-3.578-9.675-4.93zm-55.375 7.42c-2.005-19.926-4.525-39.938-6.976-59.359-.736-5.792-1.464-11.577-2.193-17.366 9.485-.135 18.976-.277 28.462-.42.088 4.054.176 8.106.271 12.16.401 17.89.816 36.352 3.389 54.526-1.782.351-3.544.779-5.261 1.304-6.306 1.923-12.32 5.047-17.692 9.155zm-22.14-179.573c-.06-.481-.117-1.374-.18-2.46 5.87-1.852 11.633-4.855 16.818-8.779 9.517-7.214 16.492-16.671 21.72-25.001l.899 40.499c-7.072.826-14.278 1.726-21.483 2.692-.259.035-.688.084-1.258.151-2.931.342-9.12 1.067-15.326 2.312zm12.09 95.861-1.266-10.037c1.126-.121 2.275-.193 3.401-.265 8.929-.534 17.866-1.068 26.797-1.609.081 3.827.165 7.653.25 11.479-9.722.148-19.452.294-29.182.432zm-9.359-74.203c-.222-1.759-.443-3.519-.663-5.281 6.081-1.25 12.344-1.982 15.261-2.323.624-.073 1.095-.128 1.377-.166 6.939-.93 13.888-1.803 20.707-2.604l.203 9.147-28.015.489c-1.203.022-2.869.183-4.8.37-1.277.124-2.651.257-4.07.368zm4.743 6.6c1.784-.172 3.325-.321 4.252-.338l28.045-.492c.359 16.379.724 32.765 1.09 49.144l.008.374c-9.019.547-18.044 1.088-27.073 1.628-1.217.077-2.518.162-3.847.308-1.622-12.816-3.237-25.639-4.852-38.476l-1.491-11.797c1.385-.113 2.704-.238 3.868-.351zm387.234 252.847s0 0-.001 0c-6.909 12.414-17.639 13.25-31.224 14.309l-1.352.106c-15.203 1.2-30.168-3.526-43.277-13.656-.795-.615-1.814-.858-2.804-.667-.986.19-1.844.796-2.354 1.663-7.954 13.533-23.23 22.757-38.917 23.498-15.693.726-31.759-7.02-40.945-19.75-.645-.894-1.673-1.432-2.775-1.452-1.083-.022-2.149.482-2.825 1.351-10.291 13.234-27.774 21.025-44.49 19.856-16.733-1.173-32.94-11.329-41.29-25.873-.576-1.004-1.612-1.658-2.768-1.747-.089-.007-.179-.01-.268-.01-1.059 0-2.066.48-2.733 1.314-7.86 9.832-19.507 16.78-32.796 19.566-13.287 2.787-26.745 1.103-37.89-4.738-2.489-1.31-4.882-2.794-7.414-4.367-5.276-3.276-10.732-6.663-17.077-8.3-11.972-3.076-23.793.707-35.225 4.366l-2.562.817c-19.27 6.084-34.905 8.59-49.198 7.886-10.732-.521-18.932-2.942-25.067-7.4-8.377-6.087-10.852-15.004-9.588-21.136.804-3.885 3.629-7.599 7.371-9.692 3.137-1.755 6.45-2.148 9.334-1.105 1.232.443 2.608.165 3.567-.724.96-.889 1.345-2.24.995-3.501-4.435-16.031 2.416-34.326 16.287-43.5 11.38-7.523 27.466-8.326 40.052-1.991 2.262 1.122 4.396 2.476 6.343 4.025.199.159.416.284.64.394.061.03.123.056.185.082.189.079.382.142.581.188.047.011.091.027.138.035.209.039.421.062.635.062.034 0 .068-.006.102-.007.046-.001.09-.007.135-.01.251-.017.501-.052.748-.125 1.093-.32 1.961-1.153 2.328-2.231.307-.902.642-1.796 1.006-2.681 2.545-6.198 6.462-11.97 11.44-16.829 5.763-5.605 12.718-9.761 20.118-12.017 2.468-.754 5.037-1.306 7.649-1.643.974-.13 1.953-.231 2.935-.302.982-.072 1.967-.114 2.954-.127 5.919-.079 11.89.887 17.54 2.86h.002c4.967 1.735 9.523 4.169 13.537 7.234.872.665 2.007.886 3.063.59 1.058-.294 1.915-1.067 2.317-2.088 2.499-6.338 6.989-11.961 12.983-16.262.739-.529 1.497-1.035 2.273-1.517 4.653-2.889 9.918-4.897 15.24-5.813.886-.152 1.774-.275 2.661-.366h.001.002c5.87-.607 11.458.094 16.614 2.083 3.133 1.208 6.132 2.82 9.308 4.527 5.509 2.961 11.206 6.023 17.779 6.911 9.348 1.275 17.976-2.117 26.312-5.397 1.485-.585 2.973-1.17 4.469-1.73 3.906-1.465 6.898-2.37 9.702-2.934 3.295-.664 6.588-.862 9.81-.628.219.016.44.016.658.036h.003c12.431 1.136 21.152 8.629 26.282 14.717 3.193 3.784 5.916 8.104 8.092 12.841.804 1.747 2.867 2.519 4.617 1.73 3.017-1.358 5.541-3.156 7.981-4.895.591-.421 1.173-.836 1.754-1.239.152-.105.304-.201.456-.304.428-.292.855-.584 1.286-.858.242-.154.49-.288.734-.435.345-.208.688-.424 1.039-.616.229-.125.47-.226.704-.343.381-.191.756-.392 1.149-.559.001 0 .002-.001.003-.002.039-.017.077-.033.116-.051 7.653-3.2 15.604-5.479 23.005-6.592 2.622-.4 5.343-.618 8.078-.647 7.442-.058 13.958 1.366 19.543 4.268.514.257 1.054.556 1.695.939 8.706 5.219 14.06 15 13.017 23.787-.159 1.346.472 2.662 1.62 3.38 1.149.718 2.608.71 3.748-.024 10.08-6.48 19.175-9.094 27.031-7.764 4.859.827 9.643 3.886 12.483 7.982 1.523 2.197 3.174 5.677 2.386 9.784-1.178 6.139-6.922 10.839-12.704 15.128-1.108.822-1.63 2.218-1.333 3.565s1.357 2.394 2.708 2.674c7.934 1.644 15.1 6.743 19.171 13.639 5.066 8.584 5.206 19.751.362 28.452z"/><path d="m192.555 414.926c1.213 1.087 1.941 2.996 2 5.237.064 2.411-.587 5.017-1.216 7.537-.469 1.876.672 3.775 2.547 4.244 1.876.47 3.775-.671 4.244-2.547.709-2.837 1.512-6.053 1.423-9.418-.11-4.217-1.646-7.862-4.325-10.265-3.604-3.231-9.121-4.062-15.535-2.335-5.761 1.549-11.083 4.411-15.559 8.267-.48-3.655-1.972-7.146-4.85-9.856-7.233-6.812-18.69-4.561-25.158 1.431-3.943 3.651-6.386 8.264-8 12.879-3.07-3.51-7.327-6-11.946-6.68-8.028-1.176-16.564 3.18-20.316 10.365-1.973 3.777-2.547 8.194-1.842 12.393-3.828-1.054-7.896-1.247-11.763-.46-7.492 1.523-14.251 6.726-17.642 13.578-1.414 2.859-2.905 7.305-1.982 12.245.885 4.739 3.976 8.77 8.065 10.521.449.192.916.283 1.375.283 1.358 0 2.651-.796 3.22-2.124.761-1.777-.064-3.835-1.841-4.595-1.938-.83-3.484-2.938-3.938-5.37-.443-2.375.045-5.165 1.376-7.856 2.452-4.957 7.343-8.72 12.762-9.822s11.392.454 15.584 4.059c1.412 1.214 3.525 1.111 4.812-.234 1.286-1.345 1.295-3.461.021-4.816-3.52-3.745-4.38-10.004-2.001-14.56 2.379-4.555 8.01-7.427 13.092-6.679 5.085.748 9.648 5.118 10.614 10.166.315 1.649 1.758 2.842 3.438 2.842 1.679 0 3.121-1.192 3.438-2.841 1.142-5.961 3.109-13.413 8.233-18.157 4.093-3.792 11.508-5.328 15.603-1.471 3.849 3.625 3.391 10.49.95 15.397-.845 1.699-.183 3.761 1.493 4.65s3.753.281 4.688-1.369c4.205-7.439 11.643-13.206 19.895-15.425 1.886-.51 6.546-1.449 9.041.786z"/><path d="m446.714 437.639c-3.97-2.953-9.289-4.242-14.984-3.622-7.066.768-13.727 4.34-18.276 9.8-2.215 2.658-3.9 5.727-4.985 8.995-.944-.975-1.967-1.833-3.056-2.557-4.772-3.172-10.874-3.66-15.546-1.24-1.776.92-3.268 2.257-4.401 3.829-3.67-4.318-8.762-7.441-14.299-8.658 2.057-2.148 4.044-4.528 5.568-7.261 1.707-3.062 2.621-6.276 2.723-9.359 3.001-5.279 8.196-9.314 14.066-10.871 3.648-.966 7.036-.8 9.541.474 2.548 1.295 4.194 4.027 3.829 6.354-.285 1.82.889 3.549 2.685 3.956 1.798.406 3.602-.648 4.128-2.414.728-2.441 2.216-5.862 5.175-8.292 2.467-2.027 5.574-2.933 8.311-2.417 2.695.506 5.061 2.608 5.624 4.999.442 1.881 2.329 3.045 4.209 2.604 1.882-.443 3.047-2.328 2.603-4.21-1.206-5.119-5.685-9.247-11.145-10.273-4.749-.891-10 .562-14.047 3.889-1.238 1.018-2.365 2.196-3.368 3.516-1.265-1.602-2.903-2.971-4.832-3.952-4.041-2.055-9.193-2.409-14.508-.999-5.569 1.477-10.673 4.662-14.552 8.937-3.499-5.419-11.238-9.485-20.609-7.334-2.787.639-5.396 1.733-7.83 3.07.168-.729.299-1.473.388-2.228.716-6.113-2.179-13.799-8.955-16.003-3.755-1.222-8.013-.591-12.657 1.871-2.734 1.449-5.241 3.279-7.455 5.409-.484-5.432-2.607-10.088-6.063-13.235-5.811-5.29-15.581-5.634-22.244-.789-3.481 2.532-6.016 6.232-7.335 10.425-.841-.974-1.734-1.917-2.698-2.815-2.809-2.614-7.369-5.821-13.149-6.253-5.733-.43-11.346 2.34-13.955 6.889-3.013 5.252-1.904 12.665 2.696 18.027 3.855 4.493 9.295 7.094 13.666 9.184 1.742.833 3.833.097 4.667-1.648.834-1.744.097-3.833-1.647-4.667-3.975-1.9-8.478-4.054-11.373-7.427-2.283-2.66-3.681-6.944-1.936-9.986 1.276-2.225 4.307-3.62 7.36-3.391 2.931.219 6.092 1.781 8.902 4.397 2.772 2.579 5.04 5.922 7.233 9.155.915 1.349 2.641 1.887 4.162 1.298s2.432-2.151 2.198-3.765c-.775-5.35 1.366-10.881 5.326-13.762 4.011-2.917 10.029-2.78 13.414.303 2.34 2.131 3.752 5.729 3.874 9.871.12 4.121-.924 8.421-1.935 12.58-.446 1.837.647 3.697 2.47 4.2 1.823.504 3.717-.532 4.275-2.339 2.043-6.599 6.718-12.241 12.823-15.477 1.998-1.06 4.873-2.163 7.215-1.399 3.074 1 4.557 5.207 4.167 8.532-.501 4.281-3.198 8.453-5.578 12.133-.939 1.453-.676 3.374.619 4.521 1.294 1.147 3.234 1.176 4.561.068 4.789-3.993 10.216-8.519 16.358-9.927 5.073-1.162 11.767.559 13.732 5.374.37.907.55 1.921.577 2.989 0 .149-.003.298.016.444-.036 2.029-.66 4.242-1.837 6.354-1.929 3.458-5.017 6.413-8.003 9.27-.379.363-.65.794-.83 1.253-9.723 1.812-18.128 9.612-20.282 19.349-.418 1.888.773 3.756 2.661 4.174.254.056.509.083.759.083 1.607 0 3.053-1.112 3.414-2.745 1.713-7.74 9.262-14.008 17.186-14.269 7.663-.27 15.385 5.152 17.868 12.419.085.316.185.628.301.936.659 1.763 2.595 2.689 4.382 2.094 1.786-.594 2.782-2.494 2.256-4.301-.07-.242-.146-.483-.224-.721-.472-2.095.826-4.713 2.979-5.829 2.408-1.248 5.804-.904 8.451.854 2.538 1.687 4.572 4.626 5.727 8.277.535 1.693 2.255 2.719 3.997 2.382 1.744-.335 2.96-1.922 2.83-3.693-.389-5.295 1.339-10.672 4.739-14.753 3.398-4.079 8.375-6.748 13.654-7.322 3.872-.421 7.537.41 10.049 2.279 2.616 1.946 4.009 5.207 3.388 7.932-.43 1.884.749 3.761 2.634 4.19 1.881.43 3.76-.75 4.19-2.635 1.239-5.425-1.186-11.494-6.032-15.101z"/><path d="m272.242 445.28c-3.518-.395-7.319.371-10.934 2.17.247-1.072.452-2.154.612-3.242 1.023-6.936-1.319-10.444-3.464-12.166-3.234-2.595-7.99-2.717-13.053-.333-5.313 2.501-9.773 6.51-12.908 11.381-1.752-4.165-4.723-7.395-8.28-8.957-5.954-2.614-14.989-.585-19.801 7.343-1.709 2.816-2.762 6.08-3.153 9.761-3.237-2.096-7.062-3.219-10.896-3.006-7.835.435-14.71 6.452-15.991 13.997-1.333 7.858 3.937 16.088 11.508 17.972.283.071.567.105.848.105 1.569 0 2.997-1.064 3.394-2.656.467-1.876-.676-3.775-2.552-4.242-4.014-.999-7.015-5.769-6.296-10.008.724-4.26 4.976-7.929 9.478-8.179 4.512-.241 9.222 2.703 11.186 7.024.727 1.597 2.525 2.411 4.204 1.9 1.68-.511 2.722-2.187 2.436-3.918-1.043-6.322-.431-11.409 1.82-15.118 2.176-3.582 7.116-6.271 11.002-4.565 2.107.925 3.902 3.111 4.927 5.997 1.078 3.041 1.291 6.583 1.479 9.709.108 1.795 1.559 3.216 3.355 3.287 1.777.081 3.354-1.23 3.604-3.011 1.102-7.851 6.447-15.106 13.62-18.483 1.85-.872 4.448-1.536 5.689-.54.999.802 1.334 2.874.919 5.686-.765 5.197-2.754 10.225-5.753 14.54-1.056 1.519-.747 3.598.705 4.744 1.453 1.149 3.545.964 4.778-.414 2.356-2.634 4.907-5.37 7.919-7.323 2.958-1.917 6.093-2.805 8.818-2.499 2.793.312 5.312 2.079 6.126 4.296 1.285 3.496-1.077 7.929-3.82 12.2-1.045 1.626-.574 3.792 1.053 4.837 1.623 1.043 3.791.573 4.836-1.053 2.505-3.898 7.166-11.153 4.502-18.398-1.746-4.754-6.424-8.224-11.917-8.838z"/></g></g></svg>