<?xml version="1.0" ?><svg enable-background="new 0 0 52 52" id="Layer_1" version="1.1" viewBox="0 0 52 52" xml:space="preserve" xmlns="http://www.w3.org/2000/svg" xmlns:xlink="http://www.w3.org/1999/xlink"><g><g><path d="M2.6197429,17.9458809c15.2872009,0.0158501,30.5744019,0.0317001,45.8616028,0.0475502    c-0.4166641-0.416666-0.8333321-0.833334-1.25-1.25c0.1251984,2.6341553,0.2382469,5.2684822,0.3209877,7.9043617    c0.0492096,1.5678082,1.0062714,6.6400661,0.1753845,7.9089317c-1.8416443,2.8124161-11.0636482,1.2427254-14.2304993,1.2386971    c-10.295002-0.0130959-20.5900059-0.0261917-30.8850079-0.0392876c0.4166667,0.4166679,0.8333333,0.8333321,1.25,1.25    c-0.0279071-5.8288307,0.037611-11.6549034,0.1965902-17.4815941c0.0439095-1.6093235-2.456121-1.6081991-2.5,0    c-0.1589801,5.8267288-0.224497,11.6528015-0.1965901,17.4815941c0.0032382,0.676342,0.5700892,1.2491341,1.25,1.25    c8.3024216,0.0105591,16.6048431,0.021122,24.9072647,0.0316849c3.9851627,0.0050659,7.9703236,0.0101357,11.9554882,0.0152054    c2.9183998,0.0037155,6.9292526,0.6630096,9.7646255-0.1700783c0.4071198-0.1196213,0.7741737-0.4481812,0.8730469-0.8730507    c1.2772827-5.4884796-0.1149559-12.9127369-0.3812904-18.5164642c-0.0321045-0.6754932-0.5466919-1.2492714-1.25-1.25    C33.1941452,15.477581,17.9069443,15.46173,2.6197429,15.4458799C1.011042,15.444212,1.0085216,17.9442101,2.6197429,17.9458809    L2.6197429,17.9458809z" fill="#231F20"/></g><g><path d="M5.1822281,30.8351631c0,0.9375,0,1.875,0,2.8125c0,1.6086311,2.5,1.6112938,2.5,0    c0-0.9375,0-1.875,0-2.8125C7.6822281,29.226532,5.1822281,29.2238674,5.1822281,30.8351631L5.1822281,30.8351631z" fill="#231F20"/></g><g><path d="M9.4947281,30.3351631c0,1.541666,0,3.0833321,0,4.625c0,1.6086311,2.5,1.6112938,2.5,0    c0-1.5416679,0-3.083334,0-4.625C11.9947281,28.726532,9.4947281,28.7238674,9.4947281,30.3351631L9.4947281,30.3351631z" fill="#231F20"/></g><g><path d="M13.7037354,31.2095337c0.0383959,1.3125954,0.0767908,2.6251907,0.1151857,3.9377861    c0.0469551,1.6052322,2.5471525,1.6119537,2.499999,0c-0.0383949-1.3125954-0.0767899-2.6251907-0.1151848-3.9377861    C16.1567802,29.6043053,13.6565838,29.5975838,13.7037354,31.2095337L13.7037354,31.2095337z" fill="#231F20"/></g><g><path d="M17.6775112,31.335289c0.0276585,1.0414848,0.055315,2.0829697,0.0829716,3.1244545    c0.0426407,1.6056595,2.5428085,1.6120071,2.5,0c-0.0276566-1.0414848-0.0553131-2.0829697-0.0829716-3.1244545    C20.1348724,29.7296314,17.6347046,29.7232838,17.6775112,31.335289L17.6775112,31.335289z" fill="#231F20"/></g><g><path d="M22.4477367,31.1480522c-0.0276661,1.1039963-0.0553322,2.2079926-0.0829983,3.311985    c-0.0403328,1.6093597,2.4596882,1.6085434,2.5,0c0.0276661-1.1039925,0.0553322-2.2079887,0.0829983-3.311985    C24.9880676,29.5386944,22.4880486,29.5395107,22.4477367,31.1480522L22.4477367,31.1480522z" fill="#231F20"/></g><g><path d="M26.1822281,31.4601631c0,0.8333321,0,1.6666679,0,2.5c0,1.6086311,2.5,1.6112938,2.5,0    c0-0.8333321,0-1.6666679,0-2.5C28.6822281,29.851532,26.1822281,29.8488674,26.1822281,31.4601631L26.1822281,31.4601631z" fill="#231F20"/></g><g><path d="M30.3628292,30.9610939c0.1350498,1.0597496,0.1759262,2.1190948,0.1229515,3.186058    c-0.0798435,1.6081085,2.4203663,1.6038895,2.4999981,0c0.0529785-1.0670052,0.0120964-2.1263504-0.1229477-3.186058    c-0.0853233-0.6695461-0.5134315-1.25-1.2500019-1.25C31.0036526,29.7110939,30.2768936,30.2867336,30.3628292,30.9610939    L30.3628292,30.9610939z" fill="#231F20"/></g><g><path d="M34.9061279,30.7735653c0.0460968,1.3331814,0.0921974,2.6663609,0.138298,3.9995403    c0.0554733,1.6043167,2.5557327,1.6117744,2.5,0c-0.0461006-1.3331795-0.0922012-2.6663589-0.138298-3.9995403    C37.3506508,29.1692505,34.8503952,29.1617928,34.9061279,30.7735653L34.9061279,30.7735653z" fill="#231F20"/></g><g><path d="M39.0572281,31.0226631c0,1.0208321,0,2.0416679,0,3.0625c0,1.6086311,2.5,1.6112938,2.5,0    c0-1.0208321,0-2.0416679,0-3.0625C41.5572281,29.414032,39.0572281,29.4113674,39.0572281,31.0226631L39.0572281,31.0226631z" fill="#231F20"/></g><g><path d="M43.6558495,30.5839748c0.0372162,1.2086582,0.044075,2.4170666,0.0205803,3.6260624    c-0.0312767,1.6093712,2.4687233,1.6093369,2.5,0c0.0234947-1.2089996,0.0166359-2.417408-0.0205803-3.6260624    C46.1064262,28.9790001,43.6062126,28.9720669,43.6558495,30.5839748L43.6558495,30.5839748z" fill="#231F20"/></g><g><path d="M40.8697281,22.1479797c1.1267548-0.0004234,2.2535095-0.0008469,3.3802643-0.0012722    c-0.401783-0.3058987-0.803566-0.6117992-1.205349-0.9176998c0.3903885,1.7912254,0.2931175,3.6326542,0.4245224,5.4520073    c0.4166679-0.416666,0.8333359-0.8333321,1.25-1.25c-1.1921196,0.0231533-2.3842697,0.0394688-3.57658,0.0489483    c0.4166679,0.4166679,0.8333359,0.833334,1.25,1.25c-0.1103554-2.0681725-0.098774-4.1369286-0.0770836-6.2071667    c0.016861-1.6091805-2.4831276-1.6103897-2.5,0c-0.0216904,2.0702915-0.0332718,4.1389599,0.0770836,6.2071667    c0.0357857,0.6706486,0.543663,1.2556171,1.25,1.25c1.1923103-0.0094795,2.3844604-0.025795,3.57658-0.0489483    c0.6390266-0.0124111,1.2995758-0.5636063,1.25-1.25c-0.1480331-2.0496101-0.0735855-4.0966587-0.5138245-6.1166058    c-0.1159019-0.5317898-0.678463-0.9178982-1.205349-0.9177017c-1.1267548,0.0004253-2.2535095,0.0008488-3.3802643,0.0012722    C39.2611237,19.6485844,39.2584076,22.1485863,40.8697281,22.1479797L40.8697281,22.1479797z" fill="#231F20"/></g><g><path d="M31.9326496,22.2829342c0.7018032-0.0058498,1.4036045-0.0116997,2.1054096-0.0175514    c0.3119125-0.0025997,0.6238251-0.0051994,0.9357376-0.0078011c0.1559563-0.0012989,0.3119125-0.0025997,0.4678688-0.0039005    c0.3280945,0.0151825,0.3123627-0.0067654-0.0471954-0.0658417c-0.1914825-0.249012-0.3829651-0.4980259-0.5744476-0.7470379    c0.4414139,1.5409794,0.2554932,3.5302372,0.2743149,5.122921c0.3059006-0.401783,0.6118011-0.803566,0.9177017-1.205349    c-1.2111511,0.2414532-2.4110298,0.3246422-3.6444321,0.2874527c0.401783,0.3059006,0.803566,0.6117992,1.205349,0.9176998    c-0.3710289-1.2576809-0.0782356-2.9833851-0.0760651-4.2907066c0.0026741-1.6087399-2.4973221-1.6111736-2.5,0    c-0.0026073,1.5699749-0.281332,3.4411182,0.1653671,4.9553051c0.1598415,0.5418224,0.6464195,0.9008484,1.205349,0.9177017    c1.454628,0.0438595,2.8824806-0.0923595,4.3090286-0.3767567c0.5274506-0.1051521,0.9238319-0.686409,0.9177017-1.2053471    c-0.012043-1.0191669-0.0411949-2.037632-0.0977135-3.0553627c-0.0491905-0.8856773,0.0569992-2.0641422-0.3289108-2.8814564    c-0.3390884-0.7181549-1.0017128-0.8502464-1.7260475-0.8732224c-1.1657829-0.0369759-2.342556,0.0195293-3.509016,0.029253    C30.3247089,19.796339,30.3208866,22.2963715,31.9326496,22.2829342L31.9326496,22.2829342z" fill="#231F20"/></g><g><path d="M24.1824284,22.023098c0.839056-0.0003662,1.9806118-0.2032394,2.787859,0.0071373    c-0.2910175-0.2910175-0.5820332-0.5820332-0.8730488-0.8730507c0.1548729,0.5594349,0.0210361,1.3340015,0.0226021,1.9131279    c0.0020618,0.7637329,0.0024014,1.5274715,0.0011387,2.2912083c-0.0001984,0.1697197-0.0005627,0.3394375-0.0010891,0.5091572    c-0.0795765,0.3079472,0.0194988,0.3533096,0.297226,0.1360874c0.7540932,0.0256271-0.2558289-0.1155663-0.4272556-0.1146603    c-0.7251492,0.0038319-1.4502983,0.0076637-2.1754475,0.0114937c0.4166679,0.4166679,0.833334,0.833334,1.25,1.25    c-0.0803471-1.9184017-0.0995293-3.8360119-0.0575752-5.7556438c0.0351734-1.6093769-2.4648342-1.6090069-2.5,0    c-0.041954,1.9196262-0.0227718,3.8372345,0.0575752,5.7556438c0.028162,0.67239,0.5498524,1.2537003,1.25,1.25    c1.1593685-0.0061245,2.9563618,0.3516636,3.99473-0.2731113c1.2124462-0.7295151,0.8128643-2.618948,0.8125343-3.7872829    c-0.0002384-0.8485966-0.0025311-1.6971912-0.0068779-2.5457783c-0.0030193-0.589735,0.0541153-1.2364616-0.3306026-1.7299328    c-0.7821712-1.0032787-2.9984894-0.5448761-4.1017685-0.5443954C22.5738297,19.523798,22.571104,22.023798,24.1824284,22.023098    L24.1824284,22.023098z" fill="#231F20"/></g><g><path d="M14.6159792,22.1175919c0.6757221-0.0454044,1.3514452-0.0908108,2.0271673-0.1362171    c0.36796-0.0247269,1.2231102-0.2020779,1.5053024-0.0833359c-0.249012-0.1914825-0.4980259-0.3829651-0.7470379-0.5744495    c-0.3441429-0.6579609-0.0870323,0.4063816-0.0865917,0.6992149c0.0008755,0.5809116,0.011158,1.1616764,0.0297565,1.7422791    c0.0345554,1.0787601,0.1037235,2.1545696,0.1946335,3.2299652c0.416666-0.416666,0.8333321-0.833334,1.25-1.25    c-0.6679459,0.0894833-1.3260975,0.064558-1.999464,0.0516796c-0.6461773-0.0123577-1.484683,0.1132889-2.109025-0.0444527    c0.2910166,0.2910156,0.5820332,0.5820332,0.8730497,0.8730488c-0.1798916-0.6299629-0.0000038-1.5884495,0.0077715-2.2482224    c0.0092487-0.7847404,0.0184965-1.569479,0.0277443-2.3542175c0.0189648-1.6092243-2.4810238-1.6102524-2.5,0    c-0.0129471,1.0986347-0.0258942,2.1972694-0.0388412,3.2959042c-0.0089836,0.7622318-0.1954947,1.755621,0.3163652,2.3962269    c0.5247641,0.6567554,1.4176512,0.5433617,2.1675463,0.557703c1.0778131,0.0206146,2.1845446,0.1157169,3.2548532-0.0276699    c0.624321-0.0836391,1.3128815-0.5061588,1.25-1.25c-0.097887-1.1579323-0.1704597-2.3170433-0.2026043-3.4787807    c-0.0268097-0.9689312,0.2179546-2.2370014-0.1338444-3.1528606c-0.2475967-0.6445847-0.7921658-0.9394073-1.4546623-0.9836102    c-1.1755505-0.0784359-2.4555054,0.1587315-3.6321192,0.2377949    C13.0192156,19.7248898,13.0072737,22.2256908,14.6159792,22.1175919L14.6159792,22.1175919z" fill="#231F20"/></g><g><path d="M6.6822276,22.0856476c1.1892643-0.0006466,2.3785291-0.0012932,3.5677934-0.0019398    c-0.401783-0.3058987-0.803566-0.6117992-1.205349-0.9176998c0.4609575,1.7630024,0.1388369,3.9376678,0.1382151,5.7533245    c0.3059006-0.401783,0.6118002-0.803566,0.9177008-1.205349c-1.158987,0.1590424-2.3214021,0.1995163-3.4896359,0.173275    c0.4166665,0.416666,0.833333,0.833334,1.25,1.25c-0.1100926-0.865118,0.1055121-1.6911621,0.1923308-2.5504456    c0.0798359-0.7901764,0.0775051-1.5831623,0.0632286-2.3763561c-0.0289211-1.606863-2.5290136-1.6120243-2.5,0    c0.029213,1.6230946-0.4577951,3.337616-0.2555594,4.9268017c0.0869403,0.6831875,0.5026302,1.2332134,1.25,1.25    c1.3983073,0.0314083,2.7701163-0.0726395,4.1542344-0.2625771c0.5334024-0.0731964,0.917531-0.7098541,0.9177008-1.205349    c0.0007076-2.0663891,0.2989168-4.4044933-0.2275171-6.417923c-0.1385574-0.5299339-0.661809-0.9179974-1.205349-0.9177017    c-1.1892643,0.0006466-2.3785291,0.0012932-3.5677934,0.0019398C5.0736351,19.5865231,5.0708952,22.0865231,6.6822276,22.0856476    L6.6822276,22.0856476z" fill="#231F20"/></g></g></svg>