<?xml version="1.0" encoding="iso-8859-1"?>
<!-- Generator: Adobe Illustrator 19.0.0, SVG Export Plug-In . SVG Version: 6.00 Build 0)  -->
<svg version="1.1" id="Capa_1" xmlns="http://www.w3.org/2000/svg" xmlns:xlink="http://www.w3.org/1999/xlink" x="0px" y="0px"
	 viewBox="0 0 512.002 512.002" style="enable-background:new 0 0 512.002 512.002;" xml:space="preserve">
<g>
	<g>
		<path d="M444.514,273.916c-16.807-23.063-28.562-49.211-39.935-75.245c-21.75-49.789-37.02-102.271-47.892-155.445
			c-1.3-6.354-2.266-12.827-3.795-19.129c-0.784-3.228-1.937-6.479-4.135-9.03c-6.56-7.609-19.445-7.976-28.605-9.193
			c-10.853-1.443-21.679-3.31-32.591-4.274c-2.087-0.186-4.218-0.354-6.364-0.466c-9.25-1.394-19.472-1.533-28.754-0.241
			c-9.137,1.271-18.849-0.104-28,0.707c-10.91,0.966-21.737,2.831-32.591,4.274c-9.16,1.218-22.045,1.584-28.605,9.193
			c-2.198,2.551-3.352,5.803-4.135,9.03c-1.529,6.302-2.495,12.774-3.795,19.129c-10.873,53.173-26.142,105.656-47.892,155.445
			c-11.373,26.034-23.128,52.182-39.935,75.245c-2.907,3.988,1.522,8.656,5.666,8.226c0.932,0.117,1.86,0.137,2.583,0.166
			c5.15,0.211,10.204-0.607,15.39-0.119c13.91,1.31,22.985,9.266,34.009,16.707c4.238,2.861,8.983,5.237,14.15,5.662
			c2.558,0.21,5.186,0.055,7.829-0.249c-0.034,3.327-0.041,6.653,0.032,9.975c0.241,10.937,1.741,21.86,0.887,32.782
			c-14.071,7.455-12.814,33.341,5.663,33.825c11.905,0.312,16.436-11.353,14.732-21.595c-0.748-4.494-2.814-9.341-7.325-11.13
			c-0.965-0.383-2.06-0.621-3.206-0.715c0.956-11.044-0.492-22.116-0.918-33.168c-0.143-3.737-0.092-7.558-0.019-11.405
			c0.929-0.127,1.852-0.242,2.764-0.332c15.396-1.509,30.86-0.84,46.223-2.076c0.448-0.036,0.912-0.135,1.368-0.271
			c0.467,6.735,1.589,13.396,3.799,19.846c3.912,11.424,11.57,20.874,16.921,31.56c-4.933,2.651-9.064,6.663-9.744,12.559
			c-0.972,8.44,5.226,13.432,10.553,18.826c2.42,2.45,4.224,4.481,1.95,7.518c-2.212,2.956-5.424,5.139-7.768,8.011
			c-4.853,5.943-6.529,14.178-2.472,21.012c2.888,4.863,11.771,9.944,11.186,16.28c-0.4,4.34-6.263,7.309-9.598,9.097
			c-12.479,6.693-27.077,10.372-40.341,15.185c-16.274,5.906-32.997,10.937-49.073,17.367c-8.076,3.23-24.395,9.812-19.464,21.415
			c2.955,6.952,12.034,9.137,18.72,10.42c11.092,2.127,22.528,2.54,33.792,2.675c13.661,0.164,27.328-0.308,40.97-0.975
			c5.295-0.259,10.572-0.712,15.826-1.401c10.954-0.443,21.865-0.546,32.904-0.197c12.88,0.405,25.762,0.532,38.644,0.746
			c3.699,0.388,7.409,0.672,11.127,0.854c13.643,0.667,27.31,1.138,40.972,0.975c11.263-0.135,22.698-0.548,33.791-2.675
			c6.685-1.282,15.765-3.468,18.72-10.42c4.932-11.602-11.389-18.185-19.464-21.415c-16.075-6.429-32.798-11.461-49.073-17.367
			c-13.266-4.813-27.864-8.492-40.341-15.185c-3.335-1.788-9.197-4.757-9.598-9.097c-0.586-6.336,8.3-11.417,11.186-16.28
			c4.059-6.834,2.382-15.069-2.472-21.012c-2.345-2.872-5.557-5.055-7.768-8.011c-2.273-3.036-0.471-5.067,1.95-7.518
			c5.327-5.394,11.523-10.386,10.552-18.826c-0.679-5.896-4.811-9.908-9.743-12.559c5.351-10.686,13.01-20.137,16.921-31.56
			c2.21-6.449,3.333-13.11,3.798-19.846c0.458,0.137,0.922,0.235,1.368,0.271c15.364,1.236,30.828,0.567,46.224,2.076
			c6.638,0.65,13.781,2.559,20.439,2.012c5.166-0.425,9.912-2.801,14.15-5.662c11.024-7.441,20.099-15.397,34.009-16.707
			c5.186-0.488,10.239,0.33,15.39,0.119c0.723-0.029,1.65-0.049,2.583-0.166C442.99,282.572,447.422,277.905,444.514,273.916z
			 M147.252,292.936c-2.84,0.441-5.791,1.182-8.628,0.733c-5.55-0.877-10.536-5.102-14.972-8.269
			c-6.868-4.905-14.162-8.691-22.051-10.728c5.318-0.394,10.702-0.479,15.971-0.555c7.499-0.105,15.068,0.241,22.464,1.539
			c2.748,0.483,5.398,1.153,8.011,1.92C147.246,282.62,147.281,287.83,147.252,292.936z M113.632,263.457
			c-7.367,0.21-14.802,0.301-22.099,1.394c-1.915,0.287-3.746,0.758-5.54,1.318c9.995-16.077,18.142-33.253,25.816-50.562
			c10.125-22.837,19.428-45.965,27.323-69.674c8.175-24.547,15.065-49.513,20.884-74.719c2.779-12.045,5.314-24.145,7.624-36.289
			c0.702-3.683,0.925-8.576,2.804-11.927c2.04-3.635,7.002-4.153,10.707-4.933c11.118-2.34,22.654-3.773,33.991-5.198
			c-1.38,16.061-1.361,32.29-2.757,48.364c-1.571,18.107-3.603,36.193-6.435,54.148c-5.477,34.71-13.713,68.99-25.024,102.267
			c-3.224,9.483-6.768,18.845-10.317,28.21c-1.835,4.841-3.672,9.681-5.456,14.539c-1.197,3.26-2.659,6.543-3.262,9.956
			c-2.162-0.63-4.379-1.466-6.862-2.239C141.653,263.951,127.557,263.062,113.632,263.457z M157.396,354.822
			c3.46-0.059,4.238,3.671,4.497,6.612c0.523,5.971-3.286,13.186-10.192,11.138c-8.126-2.41-5.859-13.889,0.641-16.774
			C154.021,355.504,155.558,354.853,157.396,354.822z M207.064,290.234c-0.374-0.096-0.749-0.17-1.114-0.202
			c-15.123-1.304-31.133,0.103-46.223,1.497c-0.88,0.081-1.757,0.179-2.637,0.267c-0.036-3.881-0.216-7.739-0.707-11.52
			c1.326,0.45,2.656,0.901,4.002,1.341c11.599,3.802,22.565-3.149,33.844-5.166c4.461-0.797,9.062-1.509,13.644-2.386
			C207.463,279.413,207.125,284.826,207.064,290.234z M282.233,414.142c-4.106,6.694-11.297,10.114-12.926,18.472
			c-2.274,11.672,8.515,19.51,17.732,23.885c12.482,5.926,26.096,9.801,39.057,14.532c15.429,5.632,31.081,10.694,46.463,16.431
			c5.477,2.043,10.226,4.727,15.281,7.492c0.059,0.032,0.101,0.056,0.154,0.086c-0.355,0.282-0.841,0.713-0.48,0.489
			c-5.215,3.242-14.432,4.245-21.559,4.84c-10.06,0.84-20.181,0.956-30.276,0.833c-4.328-0.687-9.133-0.559-13.03-1.062
			c-7.239-0.936-14.447-1.674-21.753-1.736c-15.494-0.131-30.999-0.472-46.492-0.413c-14.973,0.057-29.821,0.8-44.737,2.088
			c-0.016,0.002-0.029,0.003-0.045,0.004c-9.899,0.324-19.789,0.896-29.697,1.066c-11.287,0.195-22.62,0.16-33.877-0.78
			c-7.129-0.595-16.346-1.598-21.56-4.84c0.36,0.224-0.124-0.207-0.479-0.489c0.054-0.03,0.095-0.054,0.154-0.086
			c5.055-2.765,9.804-5.449,15.281-7.492c15.383-5.738,31.035-10.801,46.463-16.431c12.961-4.731,26.575-8.606,39.056-14.532
			c9.219-4.375,20.008-12.213,17.733-23.885c-1.628-8.359-8.818-11.778-12.926-18.472c-4.553-7.42,6.498-13.663,9.911-19.022
			c0.51-0.801,0.909-1.602,1.224-2.402c4,1.694,8.68,2.295,12.7,2.346c4.547,0.056,9.144-0.57,13.585-1.517
			c1.163-0.248,2.534-0.482,3.909-0.818c0.315,0.797,0.713,1.595,1.221,2.392C275.734,400.48,286.784,406.723,282.233,414.142z
			 M276.182,376.013c-2.165,2.24-3.948,4.766-4.979,7.444c-1.005,0.248-2.028,0.594-3.113,0.898
			c-3.587,1.004-7.262,1.767-10.978,2.06c-6.287,0.496-11.058-0.75-16.255-2.825c-1.023-2.728-2.833-5.299-5.035-7.577
			c-2.317-2.398-7.149-5.475-7.444-9.139c-0.785-9.739,22.264-6.055,26.995-5.628c6.363,0.574,13.042-2.329,19.205-1.359
			c3.413,0.537,9.394,2.684,9.051,6.985C283.334,370.537,278.501,373.615,276.182,376.013z M290.456,319.319
			c-4.601,10.59-12.446,19.305-17.593,29.579c-2.386,0.534-4.548,1.79-7.075,2.419c-3.701,0.922-7.54,0.952-11.316,0.561
			c-5.341-0.554-10.392-2.314-15.587-3.486c-5.148-10.055-12.813-18.656-17.339-29.073c-3.936-9.059-5.266-19.021-6.044-28.79
			c-0.393-4.947-0.626-9.904-0.931-14.857c-0.196-3.199-0.179-3.229,2.945-4.198c2.634-0.817,5.437-2.062,8.173-2.333
			c2.808-0.279,5.822-0.206,8.671-0.342c6.075-0.289,12.16-0.398,18.241-0.294c13.261,0.211,26.54,1.253,39.663,3.179
			c1.566,0.23,3.12,0.508,4.664,0.814c0.233,0.058,0.463,0.121,0.695,0.177C296.566,288.014,296.577,305.23,290.456,319.319z
			 M290.948,260.47c-13.683-1.72-27.485-2.582-41.276-2.499c-13.799,0.082-27.591,1.099-41.194,3.449
			c-7.673,1.325-17.191,2.715-25.307,6.015c-3.297,0.919-6.541,1.989-9.857,3.056c-0.063,0.021-0.124,0.034-0.187,0.054
			c2.327-5.164,3.738-11.091,5.592-16.035c3.269-8.724,6.577-17.432,9.633-26.235c5.881-16.939,10.95-34.152,15.282-51.551
			c8.652-34.762,14.593-70.473,17.181-106.215c1.388-19.189,3.134-39.233,1.694-58.527c9.77-1.039,19.713-0.556,29.571-0.505
			c11.159,0.059,22.631,0.876,33.744,0.161c1.224,0.101,2.447,0.214,3.669,0.344c-1.437,19.294,0.307,39.338,1.695,58.527
			c2.588,35.742,8.526,71.453,17.181,106.215c4.331,17.399,9.401,34.612,15.282,51.551c3.056,8.803,6.364,17.512,9.633,26.235
			c1.853,4.944,3.265,10.872,5.592,16.035c-0.063-0.02-0.123-0.033-0.186-0.054c-5.971-1.919-11.706-3.873-17.931-4.877
			c-2.192-0.354-4.387-0.619-6.581-0.838C306.464,262.816,298.54,261.426,290.948,260.47z M388.352,285.4
			c-4.436,3.168-9.422,7.393-14.972,8.269c-3.141,0.497-6.419-0.467-9.533-0.866c-3.849-0.493-7.707-0.917-11.57-1.273
			c-15.09-1.395-31.1-2.802-46.224-1.497c-0.364,0.032-0.739,0.106-1.113,0.202c-0.061-5.385-0.397-10.774-0.808-16.1
			c2.603,0.65,5.201,1.34,7.811,2.02c6.358,1.654,13.005,2.155,19.252,4.075c6.624,2.035,13.625,3.615,20.423,1.387
			c6.799-2.228,13.252-4.713,20.35-5.96c7.396-1.298,14.965-1.645,22.464-1.539c5.269,0.075,10.653,0.161,15.97,0.555
			C402.514,276.707,395.22,280.494,388.352,285.4z M420.473,264.851c-7.3-1.094-14.733-1.185-22.1-1.394
			c-13.926-0.396-28.021,0.493-41.396,4.654c-2.483,0.773-4.701,1.609-6.863,2.239c-0.601-3.413-2.062-6.696-3.26-9.956
			c-1.786-4.858-3.622-9.698-5.457-14.539c-3.549-9.365-7.095-18.726-10.317-28.21c-11.31-33.277-19.548-67.557-25.024-102.267
			c-2.834-17.955-4.864-36.041-6.436-54.148c-1.394-16.074-1.375-32.302-2.757-48.364c11.338,1.424,22.874,2.858,33.992,5.198
			c3.704,0.779,8.666,1.297,10.707,4.933c1.879,3.351,2.102,8.244,2.803,11.927c2.311,12.143,4.845,24.244,7.625,36.289
			c5.818,25.207,12.709,50.172,20.884,74.719c7.895,23.709,17.198,46.838,27.323,69.674c7.675,17.309,15.823,34.485,25.816,50.562
			C424.218,265.609,422.387,265.138,420.473,264.851z"/>
	</g>
</g>
<g>
</g>
<g>
</g>
<g>
</g>
<g>
</g>
<g>
</g>
<g>
</g>
<g>
</g>
<g>
</g>
<g>
</g>
<g>
</g>
<g>
</g>
<g>
</g>
<g>
</g>
<g>
</g>
<g>
</g>
</svg>
