<?xml version="1.0" encoding="iso-8859-1"?>
<!-- Generator: Adobe Illustrator 19.0.0, SVG Export Plug-In . SVG Version: 6.00 Build 0)  -->
<svg version="1.1" id="Capa_1" xmlns="http://www.w3.org/2000/svg" xmlns:xlink="http://www.w3.org/1999/xlink" x="0px" y="0px"
	 viewBox="0 0 511.999 511.999" style="enable-background:new 0 0 511.999 511.999;" xml:space="preserve">
<g>
	<g>
		<path d="M270.884,171.243c2.341-4.478,5.712-5.865,10.327-7.423c19.891-6.715,23.524-28.244,23.553-46.776
			c0.029-18.148-2.162-36.427-3.083-54.565c-0.621-12.235-1.132-29.734-11.898-37.887c-4.594-3.479-10.973-5.658-15.587-0.982
			c-3.834,3.885-4.225,10.407-4.348,15.542c-0.481,20.079,5.643,40.5,1.765,60.485c-0.637,3.281-1.706,6.491-3.329,9.418
			c-0.012,0.022-0.092,0.143-0.213,0.323c-0.106-0.353-0.212-0.699-0.255-1c-0.445-3.078-0.327-6.302-0.4-9.401
			c-0.255-10.865-0.487-21.736-1.453-32.566c-0.93-10.438-2.114-21.451-6.487-31.1c-3.253-7.177-9.655-12.086-17.669-9.029
			c-14.097,5.378-11.848,24.179-11.997,36.202c-0.178,14.344,0.667,30.278-3.943,44.026c-0.798,2.381-2.347,6.469-4.837,7.574
			c-0.999,0.443-0.026,0.674-0.904-0.554c-1.061-1.482-1.474-3.545-1.857-5.283c-2.145-9.712,0.107-20.789,1.284-30.513
			c1.726-14.264,3.879-29.717,0.315-43.946c-1.124-4.488-3.384-9.61-8.23-11.024c-5.887-1.718-11.54,3.131-14.736,7.536
			c-8.669,11.948-7.568,29.75-8.621,43.759c-1.47,19.548-4.195,39.704,3.426,58.43c3.516,8.639,8.932,16.22,16.217,22.074
			c3.351,2.692,6.899,5.107,10.577,7.329c3.635,2.197,8.318,4.006,10.113,8.148c3.671,8.469,0.938,20.403,0.131,29.219
			c-0.931,10.172-0.628,20.447-0.85,30.655c-0.212,9.726-0.332,19.321,0.43,29.01c-10.497,5.916-14.138,17.564-15.925,29.022
			c-2.456,15.746-1.793,32.63-2.422,48.707c-0.613,15.675-1.047,31.356-1.351,47.04c-0.513,26.528-0.416,52.993-1.924,79.475
			c-0.525,9.209-0.761,19.21,2.522,27.985c3.118,8.332,9.14,12.866,17.288,15.761c15.435,5.486,36.56,7.713,51.809,0.603
			c20.432-9.527,13.266-38.038,12.153-55.752c-0.95-15.106,0.224-30.418,0.221-45.549c-0.003-15.366-0.919-30.694-1.831-46.028
			c-0.96-16.16-2.068-32.313-3.377-48.449c-0.957-11.785-1.306-23.865-2.957-35.578c-1.186-8.415-5.038-15.558-12.192-19.147
			c1.507-8.11,0.676-16.448-0.166-24.634c-0.856-8.32-1.398-16.651-2.078-24.986c-0.673-8.263-1.417-16.75-0.342-25.01
			C268.247,178.592,269.103,174.652,270.884,171.243z M277.418,494.344c-3.944,4.417-11.533,5.285-17.055,5.607
			c-7.936,0.463-15.96-0.313-23.689-2.147c-5.128-1.217-11.746-2.628-14.929-7.237c-2.007-2.906-3.007-6.473-3.486-10.192
			c11.958,2.078,24.526,0.978,36.622,1.518c7.396,0.331,18.069,1.895,26.339-0.325C281.084,486.513,280.175,491.255,277.418,494.344
			z M280.274,466.745c0.125,1.436,0.302,3.072,0.471,4.824c-3.597,0.45-7.199,1.176-10.86,1.235
			c-5.742,0.093-11.476-0.274-17.211-0.489c-8.848-0.331-17.734-0.696-26.569,0.087c-2.005,0.178-6.814,1.956-8.147,0.146
			c-0.934-1.268-0.024-3.947,0.017-5.382c0.067-2.354,0.207-4.705,0.37-7.054c0.071-1.021-0.083-2.049,0.074-3.067
			c0.278-1.812,0.847-1.451,2.375-1.206c6.929,1.11,14.113,0.861,21.109,0.765c6.867-0.095,13.59-0.111,20.456,0.352
			c4.643,0.313,11.561,1.251,17.146-0.034C279.729,460.183,279.987,463.451,280.274,466.745z M270.942,278.545
			c1.362,10.238,1.621,20.801,2.462,31.097c1.118,13.678,2.089,27.367,2.948,41.064c1.729,27.592,2.569,55.003,2.342,82.647
			c-0.039,4.779,0.07,9.495,0.276,14.197c-1.744,0.121-3.491,0.34-5.119,0.38c-4.43,0.109-8.838-0.222-13.253-0.529
			c-5.84-0.407-11.617-0.461-17.463-0.268c-6.079,0.2-12.137,0.382-18.219,0.256c-1.906-0.039-3.812-0.079-5.717-0.114
			c0.045-1.084,0.08-2.168,0.095-3.254c0.184-13.701,0.014-27.411,0.14-41.113c0.283-30.818-0.342-62.251,3.352-92.885
			c0.835-6.924,2.007-13.802,2.852-20.725c0.628-5.142,0.794-11.103,3.382-15.729c0.211-0.378,0.45-0.728,0.7-1.066
			c0.58-0.675,1.194-1.314,1.885-1.873c0.737-0.596,1.523-1.11,2.336-1.575c3.975-2.028,9.252-2.647,14.214-3.267
			c3.173-0.075,6.324,0.102,9.211,0.292C266.023,266.652,269.803,269.978,270.942,278.545z M265.182,162.219
			c-4.538,5.715-6.188,13.053-6.913,20.166c-1.609,15.792,0.47,32.525,1.997,48.278c0.75,7.736,1.81,15.98,0.795,23.809
			c-8.383-1.195-17.856-0.898-26.004,1.629c0.84-8.723,1.675-17.424,2.24-26.186c0.622-9.647,0.447-19.379,1.493-28.989
			c1.007-9.255,2.69-18.589,1.442-27.903c-1.227-9.152-5.755-14.306-13.475-18.926c-7.785-4.659-15.443-9.839-20.746-17.369
			c-5.752-8.168-8.249-18.076-9.005-27.929c-1.288-16.768,0.922-34.264,2.429-51.004c0.617-6.855,1.259-15.219,5.15-21.143
			c1.903-2.897,4.228-5.942,5.759-1.165c4.107,12.81,1.313,28.396-0.266,41.254c-1.22,9.934-3.021,20.407-1.724,30.412
			c0.729,5.628,2.501,12.958,7.971,15.867c6.211,3.304,12.382-1.764,15.668-6.812c3.778-5.803,5.008-13.137,5.881-19.87
			c1.746-13.466,1.688-27.285,1.54-40.846c-0.062-5.724-0.985-15.982,4.079-20.066c2.292-1.849,4.159-1.744,5.717-0.364
			c5.874,5.199,6.564,17.064,7.378,24.217c1.255,11.033,1.544,22.16,1.695,33.254c0.101,7.387-1.159,17.467,2.47,24.218
			c2.947,5.482,8.899,5.282,12.806,0.99c4.489-4.933,6.591-12.235,7.522-18.667c2.859-19.735-2.021-39.248-1.76-58.984
			c0.029-2.223-0.065-9.837,2.367-10.034c2.396-0.194,5.121,3.423,6.133,5.213c1.612,2.851,2.414,6.178,3.069,9.361
			c2.958,14.368,1.693,29.474,2.826,44.045c0.835,10.723,1.854,21.485,1.463,32.252c-0.357,9.855-1.498,21.149-8.633,28.658
			C280.52,155.928,270.829,155.107,265.182,162.219z"/>
	</g>
</g>
<g>
	<g>
		<path d="M155.336,451.767c-0.95-15.106,0.223-30.418,0.22-45.549c-0.003-15.366-0.919-30.694-1.831-46.028
			c-0.96-16.16-2.068-32.313-3.377-48.449c-0.957-11.785-1.306-23.865-2.957-35.578c-1.047-7.432-4.186-13.861-9.831-17.738
			c1.038-7.171-0.248-14.593-0.616-21.821c-0.556-10.907,0.494-22.036,0.636-32.964c0.298-22.893,1.681-45.571,3.005-68.416
			c1.342-23.15,1.689-46.3,1.456-69.483c-0.115-11.381-0.223-22.786,0.482-34.152c0.398-6.411,2.239-12.805,1.907-19.252
			c-0.326-6.32-3.675-11.477-10.373-12.24c-6.769-0.771-13.329,3.21-18.44,7.215c-12.796,10.026-17.148,26.239-20.458,41.513
			c-4.369,20.156-7.93,40.481-10.324,60.966c-2.235,19.13-3.437,38.404-7.363,57.285c-1.863,8.962-3.758,17.99-4.364,27.144
			c-0.501,7.563-0.424,16.344,3.949,22.893c1.977,2.96,4.805,5.19,7.905,6.878c2.549,1.389,6.021,2.258,8.082,4.369
			c3.347,3.429,2.154,10.386,1.761,14.686c-0.477,5.209-1.19,10.294-0.904,15.501c0.004,0.072-8.972,7.734-9.865,9.104
			c-2.574,3.947-4.183,8.445-5.328,12.991c-2.343,9.302-3.083,18.964-2.794,28.534c0.279,9.236-0.713,18.23-1.075,27.479
			c-0.613,15.675-1.047,31.356-1.351,47.04c-0.514,26.528-0.416,52.993-1.924,79.475c-0.525,9.209-0.761,19.21,2.522,27.985
			c3.118,8.332,9.14,12.866,17.288,15.761c15.436,5.486,36.561,7.713,51.809,0.603C163.615,497.992,156.449,469.481,155.336,451.767
			z M83.518,207.311c-1.92-6.613-1.053-14.015-0.087-20.716c2.181-15.13,5.873-29.864,7.679-45.077
			c2.454-20.656,4.425-41.404,8.419-61.839c3.269-16.726,5.443-34.773,12.259-50.505c2.585-5.966,5.885-10.631,11.151-14.497
			c2.357-1.731,5.202-3.625,8.133-4.164c2.855-0.525,3.211-0.178,3.426,2.408c0.488,5.875-1.331,11.805-1.784,17.636
			c-0.802,10.313-0.77,20.702-0.732,31.039c0.078,21.395-0.094,42.745-1.214,64.117c-1.233,23.549-3.238,46.963-3.598,70.557
			c-0.181,11.827-0.62,23.638-0.898,35.459c-0.178,7.596,1.335,15.336,1.118,22.965c-7.944-1.317-17.04-1.285-25.115,0.746
			c1.392-13.531,7.556-29.763-6.732-37.883C90.386,214.627,85.361,213.659,83.518,207.311z M84.153,444.021
			c0.184-13.701,0.015-27.411,0.141-41.113c0.283-30.818-0.342-62.251,3.352-92.885c0.835-6.924,2.007-13.802,2.852-20.725
			c0.628-5.142,0.794-11.103,3.382-15.729c0.211-0.378,0.45-0.728,0.7-1.066c0.58-0.675,1.194-1.314,1.885-1.873
			c0.737-0.596,1.523-1.11,2.336-1.575c3.976-2.028,9.252-2.647,14.215-3.267c3.173-0.075,6.324,0.102,9.211,0.292
			c8.657,0.572,12.437,3.898,13.577,12.465c1.362,10.238,1.621,20.801,2.462,31.097c1.118,13.678,2.089,27.367,2.948,41.064
			c1.729,27.592,2.569,55.003,2.342,82.647c-0.04,4.779,0.07,9.495,0.276,14.197c-1.744,0.121-3.491,0.34-5.12,0.38
			c-4.429,0.109-8.838-0.222-13.253-0.529c-5.839-0.407-11.617-0.461-17.463-0.268c-6.079,0.2-12.137,0.382-18.22,0.256
			c-1.906-0.039-3.811-0.079-5.717-0.114C84.104,446.191,84.139,445.107,84.153,444.021z M82.836,467.167
			c0.112-3.915,0.421-7.82,0.714-11.726c0.7,0.156,1.405,0.286,2.104,0.397c6.929,1.11,14.113,0.861,21.11,0.765
			c6.867-0.095,13.59-0.111,20.456,0.352c4.643,0.313,11.561,1.251,17.146-0.034c0.226,3.26,0.483,6.528,0.77,9.823
			c0.125,1.436,0.302,3.072,0.471,4.824c-3.597,0.45-7.199,1.176-10.86,1.235c-5.742,0.093-11.476-0.274-17.21-0.489
			c-11.296-0.423-23.511-0.931-34.817,1.202C82.708,471.312,82.779,469.158,82.836,467.167z M142.279,494.344
			c-3.944,4.417-11.533,5.285-17.055,5.607c-7.936,0.463-15.96-0.313-23.689-2.147c-5.128-1.217-11.746-2.628-14.929-7.237
			c-2.007-2.906-3.007-6.473-3.486-10.192c11.958,2.078,24.526,0.978,36.622,1.518c7.396,0.331,18.069,1.895,26.339-0.325
			C145.945,486.513,145.036,491.255,142.279,494.344z"/>
	</g>
</g>
<g>
	<g>
		<path d="M416.962,175.067c5.192-7.503,9.296-15.656,12.739-24.091c13.687-33.531,16.459-75.217-2.098-107.461
			c-8.591-14.927-21.419-27.989-39.75-27.33c-17.753,0.639-32.037,11.602-41.722,25.836c-10.358,15.223-16.396,34.05-19.702,52.029
			c-3.417,18.591-3.602,38.018,1.785,56.267c3.008,10.192,7.704,19.951,13.992,28.527c3.224,4.397,6.78,8.494,10.69,12.293
			c3.247,3.156,6.941,6.234,8.804,10.484c3.247,7.407,1.789,17.62,1.337,25.464c-0.483,8.377-1.299,17.545,1.695,25.571
			c-0.688,0.275-1.365,0.566-2.026,0.878c-11.813,5.578-15.729,17.857-17.61,29.914c-1.516,9.72-1.634,19.213-0.923,28.768
			c-0.692,6.609-1.237,13.238-1.499,19.939c-0.613,15.675-1.047,31.356-1.351,47.04c-0.513,26.528-0.415,52.993-1.924,79.475
			c-0.525,9.209-0.761,19.21,2.522,27.984c3.118,8.333,9.14,12.866,17.288,15.762c15.435,5.486,36.561,7.713,51.809,0.603
			c20.432-9.527,13.266-38.038,12.153-55.752c-0.95-15.106,0.224-30.418,0.221-45.549c-0.003-15.366-0.919-30.694-1.831-46.028
			c-0.96-16.161-2.068-32.313-3.377-48.45c-0.957-11.785-1.306-23.865-2.957-35.578c-1.468-10.417-7.017-18.893-17.868-21.079
			c-0.145-0.029-0.294-0.053-0.44-0.081c0.583-10.047,0.287-20.131,0.126-30.187c-0.141-8.808-1.57-18.756,4.06-26.247
			C406.072,187.463,412.225,181.912,416.962,175.067z M410.115,489.844c-3.944,4.417-11.533,5.285-17.055,5.607
			c-7.937,0.463-15.96-0.313-23.689-2.147c-5.128-1.217-11.746-2.628-14.93-7.237c-2.007-2.906-3.006-6.473-3.486-10.192
			c11.958,2.078,24.526,0.978,36.622,1.518c7.396,0.331,18.07,1.895,26.34-0.325C413.781,482.013,412.873,486.756,410.115,489.844z
			 M412.971,462.246c0.125,1.436,0.302,3.072,0.471,4.824c-3.597,0.45-7.199,1.176-10.86,1.235
			c-5.742,0.093-11.476-0.274-17.21-0.489c-11.296-0.423-23.511-0.931-34.818,1.202c-0.009-2.206,0.062-4.359,0.118-6.35
			c0.112-3.914,0.422-7.82,0.714-11.726c0.7,0.156,1.405,0.286,2.104,0.397c6.929,1.11,14.113,0.861,21.109,0.764
			c6.867-0.095,13.591-0.111,20.456,0.353c4.643,0.313,11.561,1.25,17.146-0.034C412.427,455.683,412.685,458.951,412.971,462.246z
			 M403.64,274.045c1.362,10.238,1.621,20.801,2.462,31.097c1.118,13.678,2.089,27.367,2.948,41.063
			c1.729,27.592,2.568,55.004,2.341,82.647c-0.039,4.78,0.07,9.495,0.276,14.197c-1.744,0.121-3.491,0.34-5.119,0.38
			c-4.43,0.109-8.838-0.222-13.253-0.529c-5.839-0.407-11.617-0.461-17.463-0.268c-6.079,0.2-12.137,0.382-18.22,0.256
			c-1.906-0.039-3.812-0.079-5.717-0.114c0.045-1.084,0.08-2.168,0.095-3.254c0.184-13.701,0.015-27.411,0.141-41.114
			c0.283-30.818-0.342-62.25,3.352-92.885c0.835-6.924,2.007-13.802,2.852-20.725c0.628-5.142,0.795-11.103,3.382-15.729
			c0.211-0.377,0.45-0.728,0.7-1.066c0.579-0.675,1.194-1.314,1.885-1.873c0.738-0.596,1.524-1.11,2.336-1.575
			c3.976-2.028,9.252-2.647,14.214-3.267c3.173-0.075,6.325,0.102,9.211,0.292C398.72,262.152,402.499,265.479,403.64,274.045z
			 M390.687,191.141c-4.62,8.406-3.808,18.14-3.667,27.395c0.157,10.265,0.486,20.558-0.042,30.817
			c-5.024-0.208-10.193,0.14-15.064,1.171c-1.486-7.013-0.062-14.999,0.55-21.932c0.683-7.731,1.332-15.606,0.366-23.343
			c-0.852-6.829-3.961-12.3-8.61-17.301c-6.319-6.797-12.7-12.95-17.561-20.97c-18.876-31.146-14.272-70.542-1.169-102.955
			c6.021-14.894,16.164-30.878,32.063-36.466c7.513-2.641,16.62-3.272,23.812,0.575c7.413,3.965,12.834,11.124,17.071,18.199
			c18.002,30.069,14.857,69.036,2.102,100.487c-3.55,8.755-8.13,17.229-13.763,24.824
			C401.791,178.36,394.741,183.764,390.687,191.141z"/>
	</g>
</g>
<g>
</g>
<g>
</g>
<g>
</g>
<g>
</g>
<g>
</g>
<g>
</g>
<g>
</g>
<g>
</g>
<g>
</g>
<g>
</g>
<g>
</g>
<g>
</g>
<g>
</g>
<g>
</g>
<g>
</g>
</svg>
