<?xml version="1.0" encoding="iso-8859-1"?>
<!-- Generator: Adobe Illustrator 19.0.0, SVG Export Plug-In . SVG Version: 6.00 Build 0)  -->
<svg version="1.1" id="Capa_1" xmlns="http://www.w3.org/2000/svg" xmlns:xlink="http://www.w3.org/1999/xlink" x="0px" y="0px"
	 viewBox="0 0 512 512" style="enable-background:new 0 0 512 512;" xml:space="preserve">
<g>
	<g>
		<path d="M195.861,79.038c6.546-10.477-1.235-20.723-11.021-24.939c-0.912-16.491-17.821-30.073-34.444-31.639
			c-2.005-0.737-4.146-1.182-6.539-1.251c-6.993-0.203-13.436,2.669-20.303,3.316c-6.022,0.567-10.944-1.605-16.814-2.342
			c-2.497-0.313-4.771-0.312-6.787,0.306C83.425,24.187,66.708,37.706,65.803,54.1c-9.785,4.216-17.567,14.462-11.021,24.939
			c1.38,2.21,3.848,4.269,4.59,6.817c0.685,2.351-0.675,4.591-1.507,6.746c-1.453,3.762-2.229,7.646,0.195,11.214
			c1.332,1.96,3.402,3.332,5.494,4.36c1.098,0.54,3.373,1.123,4.887,1.557c-0.908,5.576,0.611,12.155,2.011,17.021
			c2.151,7.478,5.701,15.235,11.751,20.347c8.874,7.498,20.646,9.183,31.869,9.645c11.302,0.465,23.037,1.045,34.227-0.911
			c7.298-1.276,14.425-3.906,20.139-8.734c6.05-5.112,9.601-12.869,11.752-20.347c1.399-4.866,2.918-11.445,2.01-17.021
			c1.514-0.434,3.789-1.018,4.887-1.557c2.094-1.028,4.162-2.4,5.494-4.36c2.425-3.569,1.649-7.452,0.196-11.214
			c-0.833-2.154-2.192-4.395-1.507-6.746C192.012,83.308,194.479,81.249,195.861,79.038z M162.09,139.81
			c-4.855,3.937-11.392,5.649-17.484,6.378c-6.141,0.735-12.97,0.937-19.159,0.766c-0.021,0-0.039-0.004-0.059-0.004
			c-0.022,0-0.045,0-0.067,0.001c-0.021-0.001-0.045-0.001-0.066-0.001s-0.039,0.004-0.059,0.004
			c-6.189,0.171-13.018-0.031-19.16-0.766c-6.092-0.729-12.628-2.442-17.484-6.378c-6.057-4.91-8.73-12.286-10.765-19.836
			c8.928,4.038,15.685-5.547,17.01-13.101c0.944-5.386,0.7-10.901,0.325-16.328c-0.25-3.618-0.932-7.444-0.955-11.161
			c10.907,0.382,24.14-0.244,28.004-11.716c2.322-2.12,4.355-1.531,6.284-0.052c3.843,11.522,17.098,12.15,28.021,11.768
			c-0.023,3.716-0.705,7.542-0.955,11.161c-0.374,5.427-0.619,10.942,0.325,16.328c1.325,7.554,8.082,17.138,17.01,13.101
			C170.82,127.524,168.147,134.9,162.09,139.81z M186.615,75.14c-1.646,4.762-2.726,8.694-1.872,13.743
			c0.54,3.194,3.298,8.366,0.748,10.918c-2.76,2.764-7.786,1.581-10.697,4.543c-1.514,1.541-2.625,3.595-3.673,5.455
			c-1.197,2.126-1.599,3.812-4.35,2.304c-3.257-1.787-3.85-6.85-4.162-10.124c-0.824-8.614,0.512-17.287,0.084-25.919
			c-0.066-1.328-0.932-2.816-2.35-3.085c-4.903-0.933-10.021-1.202-14.85-2.476c-4.699-1.24-6.965-6.572-10.37-9.759
			c-3.515-3.29-7.911-5.44-12.774-4.031c-2.471,0.716-4.356,2.365-5.904,4.312c-3.42,3.865-6.012,8.085-11.294,9.479
			c-4.829,1.274-9.946,1.543-14.851,2.476c-1.417,0.27-2.283,1.758-2.349,3.085c-0.428,8.632,0.907,17.305,0.084,25.919
			c-0.313,3.274-0.905,8.337-4.163,10.124c-2.75,1.508-3.151-0.177-4.349-2.304c-1.048-1.86-2.159-3.915-3.674-5.455
			c-2.911-2.962-7.937-1.779-10.697-4.543c-2.549-2.552,0.208-7.724,0.749-10.918c0.854-5.049-0.227-8.981-1.872-13.743
			c-2.258-6.534,2.657-10.107,8.475-12.235c2.817-1.03,4.269-3.479,3.672-6.468c-1.941-9.738,6.393-17.511,14.125-21.807
			c4.961-2.757,11.104-4.878,17.246-5.636c0.463,0.108,0.924,0.22,1.384,0.355c4.553,1.338,9.271,4.079,13.999,4.48
			c5.324,0.452,10.584-1.661,15.762-2.548c4.519-0.774,9.553-0.625,14.219,0.043c2.646,0.927,5.165,2.047,7.432,3.307
			c7.731,4.296,16.064,12.069,14.123,21.807c-0.596,2.989,0.854,5.438,3.673,6.468C183.957,65.035,188.87,68.609,186.615,75.14z"/>
	</g>
</g>
<g>
	<g>
		<path d="M228.389,296.538c-0.525-6.478-2.014-12.788-4.262-18.872c-0.125-0.34-0.259-0.746-0.403-1.195
			c0.101-2.074-0.073-4.282-0.575-6.648c-1.324-6.239-4.206-12.007-6.109-18.066c-2.003-6.378-3.958-12.759-6.176-19.069
			c-4.778-13.599-10.398-26.966-17.23-39.667c-5.605-10.421-12.178-23.485-22.406-30.186c-9.238-6.052-20.381-3.05-30.611,0.1
			c-6.885,0.821-13.844,0.832-20.898,0.27c-5.01-0.399-10.46-1.507-15.859-2.055c-8.404-2.198-17.035-3.167-24.443,1.686
			c-10.229,6.7-16.8,19.764-22.406,30.186c-6.83,12.701-12.452,26.068-17.23,39.667c-2.217,6.31-4.172,12.691-6.176,19.069
			c-1.902,6.059-4.785,11.827-6.109,18.066c-0.502,2.367-0.676,4.574-0.574,6.648c-0.145,0.449-0.278,0.854-0.404,1.195
			c-2.247,6.084-3.736,12.394-4.258,18.871c-0.855,10.65,1.992,24.092,13.492,28.031c13.975,4.786,23.415-12.721,27.244-26.855
			c0.842-0.626,1.593-1.423,2.221-2.431c2.491-4.007,3.142-9.676,4.185-14.151c1.413-6.063,2.654-12.391,6.263-17.597
			c0.512-0.736,1.455-1.509,2.274-2.274c0.02,0.215,0.06,0.427,0.065,0.646c0.179,1.667,0.086,3.396,0.04,5.068
			c-0.189,7.002-0.569,14.145-1.487,21.09c-0.629,4.761-1.812,10.879,0.854,15.266c-3.911,7.893-3.372,18.262-3.896,26.718
			c-0.818,13.211-2.588,26.444-3.978,39.61c-1.524,14.428-3.409,28.806-4.617,43.267c-1.108,13.261-1.283,26.64-2.599,39.871
			c-0.637,6.408-1.719,13.657,1.352,19.101c-0.568,5.884-1.018,11.759,0.635,17.544c2.938,10.283,12.787,15.281,22.9,16.005
			c10.742,0.769,21.846-2.675,25.832-13.481c2.576-6.984,3.352-16.627,1.813-24.705c1.765-8.01,0.689-16.717,0.264-24.763
			c-0.763-14.42,0.004-29.096,1.065-43.483c0.731-9.929-0.015-23.196,9.142-29.402c9.156,6.206,8.41,19.474,9.143,29.402
			c1.062,14.387,1.828,29.063,1.064,43.483c-0.425,8.046-1.5,16.753,0.264,24.763c-1.539,8.078-0.764,17.721,1.813,24.705
			c3.986,10.806,15.091,14.25,25.833,13.481c10.112-0.724,19.962-5.722,22.899-16.005c1.653-5.785,1.203-11.66,0.636-17.544
			c3.07-5.444,1.987-12.692,1.351-19.101c-1.314-13.231-1.49-26.61-2.598-39.871c-1.209-14.461-3.094-28.839-4.617-43.267
			c-1.391-13.166-3.159-26.398-3.978-39.61c-0.523-8.457,0.016-18.826-3.896-26.718c2.667-4.387,1.483-10.505,0.854-15.266
			c-0.917-6.945-1.298-14.088-1.486-21.09c-0.046-1.673-0.139-3.402,0.039-5.068c0.007-0.218,0.046-0.43,0.066-0.646
			c0.818,0.765,1.763,1.538,2.273,2.274c3.609,5.207,4.851,11.535,6.264,17.597c1.043,4.476,1.693,10.144,4.186,14.151
			c0.626,1.008,1.377,1.805,2.22,2.431c3.829,14.134,13.27,31.641,27.244,26.855C226.398,320.63,229.246,307.189,228.389,296.538z
			 M50.88,305.597c-2.304,4.504-7.241,14.134-13.646,10.797c-9.464-4.931-7.654-18.794-6.238-27.378
			c0.036-0.222,0.136-0.684,0.273-1.31c2.112,2.535,4.938,4.722,8.433,6.583c3.447,1.836,8.915,4.366,14.079,5.096
			C52.866,301.485,51.917,303.567,50.88,305.597z M105.263,485.211c-0.813,4.011-2.221,7.547-6.138,9.318
			c-4.146,1.875-9.541,2.267-14.015,1.653c-9.077-1.245-13.786-7.263-14.576-16.103c-0.067-0.754-0.101-1.535-0.118-2.326
			c7.008,3.176,15.887,2.361,23.32,3.05c4.396,0.408,8.613,0.038,12.142-1.495C105.812,481.309,105.652,483.287,105.263,485.211z
			 M180.107,480.08c-0.791,8.84-5.5,14.858-14.576,16.103c-4.474,0.614-9.869,0.222-14.016-1.653
			c-3.916-1.771-5.324-5.308-6.137-9.318c-0.391-1.924-0.551-3.902-0.615-5.902c3.527,1.532,7.744,1.902,12.141,1.495
			c7.434-0.689,16.313,0.126,23.321-3.05C180.207,478.545,180.176,479.325,180.107,480.08z M176.092,417.048
			c0.885,12.094,0.898,24.327,2.137,36.381c0.369,3.582,2.063,9.809,0.129,13.125c-1.73,2.968-6.909,3.008-9.868,3.163
			c-4.107,0.215-8.161,0.471-12.259,0.817c-3.449,0.292-7.78,0.877-9.541-2.778c-3.223-6.689-1.234-16.946-0.823-24.061
			c0.637-11.021,0.13-22.153-0.47-33.167c-0.561-10.281-0.765-21.2-3.148-31.272c-1.724-7.278-8.301-19.016-17.392-17.421
			c-8.881,1.558-14.483,9.058-16.463,17.422c-2.385,10.072-2.589,20.991-3.149,31.271c-0.599,11.013-1.106,22.146-0.47,33.167
			c0.411,7.115,2.4,17.371-0.822,24.061c-1.762,3.655-6.093,3.069-9.54,2.778c-4.1-0.346-8.152-0.603-12.261-0.817
			c-2.959-0.155-8.138-0.195-9.868-3.163c-1.934-3.316-0.238-9.543,0.129-13.125c1.239-12.055,1.252-24.287,2.138-36.381
			c0.931-12.708,2.339-25.349,3.718-38.013c1.575-14.471,2.995-28.981,4.11-43.496c0.444-5.774,0.444-11.564,0.573-17.351
			c0.076-3.479,0.355-6.951,0.485-10.417c1.566,0.506,3.228,0.793,4.846,0.948c7.302,0.698,15.138-0.415,22.441-2.217
			c4.824,0.01,9.646,0.198,14.466,0.433c6.313,0.308,12.615,0.819,18.92,1.256c4.732,0.328,10.447,1.292,15.53,0.698
			c0.913-0.033,1.821-0.084,2.72-0.17c1.619-0.155,3.278-0.442,4.846-0.948c0.129,3.465,0.409,6.937,0.485,10.417
			c0.128,5.787,0.129,11.577,0.573,17.351c1.115,14.514,2.535,29.025,4.109,43.496C173.752,391.699,175.161,404.339,176.092,417.048
			z M193.974,289.22c-0.021-0.091-0.038-0.194-0.053-0.312c-0.646-5.301-3.137-11.417-4.661-16.549
			c-1.418-4.777-3.206-9.515-6.111-13.601c-3.479-4.894-11.039-12.179-16.813-5.874c-3.282,3.584-3.153,9.607-3.133,14.088
			c0.026,6.042,0.108,12.36,0.817,18.368c0.31,2.63,2.565,10.975,0.965,12.998c-0.295,0.373-0.936,0.604-1.734,0.746
			c-6.071-1.813-12.521-1.818-18.801-1.867c-6.432-0.05-12.833-0.412-19.26-0.618c-6.632-0.213-13.268-0.041-19.871,0.647
			c-4.152,0.433-8.178,1.694-12.35,1.97c-1.767,0.117-6.036,0.735-7.313-0.877c-1.6-2.023,0.656-10.368,0.966-12.998
			c0.708-6.008,0.791-12.325,0.817-18.368c0.02-4.48,0.148-10.504-3.134-14.088c-5.774-6.305-13.333,0.98-16.813,5.874
			c-2.904,4.086-4.692,8.824-6.111,13.601c-1.524,5.132-4.016,11.249-4.66,16.549c-0.015,0.118-0.032,0.22-0.053,0.312
			c-0.517,0.014-1.07-0.006-1.521-0.156c-1.869-0.625-3.923-0.824-5.818-1.47c-3.968-1.352-9.551-3.625-11.929-7.343
			c-2.624-4.103-0.122-10.475,1.262-14.594c1.765-5.252,3.655-10.389,5.222-15.709c3.732-12.677,8.206-25.158,13.625-37.214
			c5.723-12.731,12.291-26.245,21.31-37.011c7.372-8.802,17.909-7.848,28.054-5.37c5.866,1.432,11.816,2.307,17.836,2.784
			c6.114,0.485,12.321,0.792,18.418-0.073c5.342-0.758,10.885-4.962,16.166-4.912c4.904,0.047,9.596,4.064,12.532,7.57
			c9.019,10.767,15.587,24.281,21.31,37.012c5.419,12.057,9.895,24.538,13.625,37.214c1.566,5.32,3.457,10.457,5.223,15.709
			c1.384,4.119,3.886,10.491,1.262,14.594c-2.378,3.718-7.961,5.991-11.929,7.343c-1.896,0.646-3.95,0.845-5.819,1.47
			C195.045,289.214,194.489,289.233,193.974,289.22z M213.406,316.394c-6.404,3.337-11.342-6.293-13.645-10.797
			c-1.037-2.029-1.986-4.111-2.901-6.212c5.163-0.729,10.632-3.26,14.079-5.096c3.494-1.861,6.319-4.049,8.433-6.583
			c0.138,0.626,0.236,1.088,0.273,1.31C221.061,297.6,222.87,311.463,213.406,316.394z"/>
	</g>
</g>
<g>
	<g>
		<path d="M455.89,73.858c-6.301-10.086-4.695-23.298-10.793-33.734c-4.342-7.434-10.783-14.195-18.332-19.193c0,0,0,0-0.001-0.001
			c-8.273-8.482-24.817-10.345-36.132-10.726c-6.775-0.228-17.059,0.032-24.57,3.332c-14.47,3.485-25.554,14.091-32.854,26.588
			c-6.096,10.437-4.49,23.648-10.791,33.734c-5.786,9.262-13.691,16.383-12.95,28.276c0.345,5.563,2.609,10.502,3.787,15.868
			c1.016,4.624,0.429,9.356,1.084,14.023c1.252,8.916,7.746,13.912,16.43,15.226c10.293,1.558,17.063-3.707,21.502-11.197
			c3.844,3.264,9.27,5.424,13.507,7.036c4.276,1.626,8.864,2.883,13.371,2.732c3.258,0.742,6.604,1.104,9.88,1.129
			c3.675,0.027,7.93-0.178,11.896-1.133c3.932-0.175,7.885-1.314,11.604-2.728c4.238-1.611,9.663-3.771,13.507-7.036
			c4.44,7.49,11.21,12.755,21.503,11.197c8.684-1.313,15.177-6.31,16.429-15.226c0.655-4.667,0.069-9.4,1.083-14.023
			c1.179-5.366,3.442-10.305,3.789-15.868C469.581,90.24,461.675,83.12,455.89,73.858z M413.502,131.785
			c-1.17,0.568-2.424,1.011-3.709,1.39c-1.721,0.507-3.498,0.896-5.203,1.311c-6.578,1.598-13.406,2.653-20.166,1.709
			c-5.043-0.704-10.25-1.811-15.23-2.806c-4.596-0.917-8.604-4.262-13.074-5.802c1.045-3,1.854-6.077,2.475-9.03
			c2.053-9.797,2.752-19.682,3.932-29.598c0.406-3.405,0.941-6.856,2.008-10.126c0.291-0.894,0.703-1.765,1.029-2.654
			c5.206,4.359,14.069,5.527,20.111,5.712c7.891,0.241,15.656-0.627,22.827-3.56c1.22-0.304,2.337-0.79,3.265-1.504
			c0.341-0.175,0.678-0.36,1.016-0.546c0.32,0.854,0.709,1.693,0.989,2.553c1.067,3.27,1.603,6.722,2.007,10.126
			c1.182,9.916,1.881,19.801,3.934,29.598c0.619,2.953,1.429,6.03,2.474,9.03C419.116,128.646,416.399,130.376,413.502,131.785z
			 M455.716,112.853c-0.99,4.677-0.942,9.157-0.992,13.894c-0.031,2.946,0.111,6.498-2.172,8.712
			c-4.84,4.693-13.373,3.429-17.374-1.417c-4.077-4.939-5.585-11.75-6.769-17.882c-1.466-7.592-2.115-15.194-2.575-22.905
			c-0.447-7.501-0.587-19.529-6.604-25.128c-4.252-3.956-8.686-0.313-12.914,1.322c-1.643,0.635-3.41,0.855-5.161,1.04
			c-8.651,0.913-18.302,1.972-26.789-0.387c-4.872-1.343-10.506-6.428-15.292-1.975c-6.018,5.599-6.158,17.627-6.605,25.128
			c-0.46,7.711-1.109,15.313-2.574,22.905c-1.186,6.133-2.692,12.943-6.77,17.882c-4,4.847-12.533,6.11-17.374,1.417
			c-2.283-2.214-2.14-5.766-2.171-8.712c-0.051-4.736-0.002-9.217-0.992-13.894c-0.983-4.645-2.897-9.58-2.125-14.389
			c0.768-4.774,3.952-8.687,6.785-12.426c6.447-8.506,8.447-16.78,10.189-27.166c1.998-11.921,7.637-21.315,17.013-28.987
			c11.215-9.176,24.179-11.2,38.322-10.531c23.386,1.107,44.08,15.579,48.095,39.519c1.74,10.386,3.742,18.659,10.188,27.166
			c2.833,3.739,6.019,7.651,6.785,12.426C458.612,103.274,456.697,108.209,455.716,112.853z"/>
	</g>
</g>
<g>
	<g>
		<path d="M480.889,243.751c-8.521-18.563-15.996-37.545-24.632-56.076c-3.532-7.579-6.024-16.246-12.034-22.326
			c-4.619-4.673-10.629-7.355-17.051-8.422c-8.189-1.363-15.983-0.89-23.95,0.907c-4.127,0.931-9.17,0.055-13.387-0.037
			c-4.755-0.103-9.509-0.209-14.262-0.327c-3.82-0.094-7.344-1.224-11.221-1.345c-4.419-0.137-8.856,0.075-13.221,0.801
			c-6.423,1.067-12.432,3.749-17.052,8.422c-6.01,6.08-8.5,14.747-12.033,22.326c-8.637,18.531-16.111,37.513-24.632,56.076
			c-6.476,14.108-15.847,33.268-1.282,45.566c4.673,3.946,12.256,7.525,18.435,5.41c5.064-1.734,8.374-6.812,10.476-11.45
			c4.65-10.271,5.895-21.939,13.209-30.864c0.34-0.415,1.318-1.158,2.075-1.836c0.027,0.109,0.049,0.204,0.058,0.26
			c0.463,3.139,0.053,6.521-0.112,9.676c-0.508,9.699-1.8,19.319-3.483,28.879c-3.623,20.571-7.943,41.226-12.785,61.545
			c-1.858,7.798-5.15,15.233-6.795,23.049c-1.356,6.451-1.376,14.161,5.203,17.741c3.508,1.909,9.398,1.667,11.615,5.505
			c1.428,2.475-0.529,5.369-0.943,7.944c-0.688,4.29-1.146,8.614-1.557,12.938c-0.918,9.678-1.834,19.372-2.672,29.056
			c-0.775,8.956-1.196,18.035-0.284,26.998c0.732,7.194,1.73,15.102,7.162,20.403c9.531,9.302,25.563,6.511,32.62-4.27
			c7.086-10.827,6.184-25.775,6.356-38.136c0.13-9.295,1.546-18.386,2.845-27.579c1.234-8.72,3.369-18.823,2.357-27.92
			c2.539,0.021,5.084,0.032,7.641,0.068c3.199,0.045,6.914,0.325,10.789,0.489c-0.867,8.951,1.199,18.82,2.406,27.363
			c1.301,9.192,2.717,18.283,2.846,27.579c0.172,12.361-0.729,27.31,6.356,38.136c7.057,10.781,23.09,13.572,32.62,4.27
			c5.432-5.301,6.43-13.209,7.162-20.403c0.912-8.962,0.492-18.042-0.283-26.998c-0.838-9.685-1.754-19.378-2.673-29.056
			c-0.475-5.002-1.023-10.042-1.901-14.99c-0.51-2.865-1.358-5.668-2.088-8.481c4.611-0.22,9.254-0.82,13.104-2.915
			c6.58-3.58,6.561-11.291,5.204-17.742c-1.644-7.816-4.937-15.251-6.794-23.049c-4.842-20.319-9.163-40.974-12.786-61.545
			c-1.684-9.56-2.976-19.18-3.483-28.879c-0.164-3.155-0.575-6.537-0.111-9.676c0.008-0.056,0.029-0.151,0.057-0.26
			c0.756,0.679,1.736,1.422,2.076,1.836c7.313,8.924,8.559,20.593,13.209,30.864c2.1,4.638,5.41,9.716,10.475,11.45
			c6.18,2.115,13.762-1.464,18.435-5.41C496.735,277.019,487.365,257.859,480.889,243.751z M368.64,416.232
			c-1.061,8.335-2.527,16.614-3.468,24.965c-1.215,10.789,0.007,21.767-1.785,32.504c-0.767,4.59-1.965,10.05-5.569,13.313
			c-3.863,3.497-10.248,4.044-14.325,0.584c-4.73-4.015-4.708-13.13-5.037-18.8c-0.435-7.493-0.103-15.01,0.452-22.487
			c0.672-9.057,1.163-18.119,1.506-27.195c0.177-4.663,0.289-9.343,0.321-14.009c0.021-3.372-0.307-6.885-0.314-10.323
			c1.217,0.024,2.412,0.048,3.564,0.096c3.182,0.133,6.354,0.337,9.525,0.53c3.734,0.375,7.556,0.4,10.677,0.669
			c1.892,0.163,3.776,0.278,5.659,0.361C369.323,403.006,369.476,409.665,368.64,416.232z M439.848,468.798
			c-0.328,5.67-0.305,14.786-5.035,18.8c-4.078,3.46-10.463,2.913-14.326-0.584c-3.605-3.263-4.803-8.722-5.569-13.313
			c-1.792-10.737-0.569-21.715-1.784-32.504c-0.941-8.351-2.408-16.63-3.469-24.965c-0.805-6.327-0.695-12.739-1.153-19.069
			c2.68-0.205,5.288-0.611,7.714-1.328c6.021-0.198,12.044-0.702,18.095-0.955c1.152-0.048,2.347-0.072,3.563-0.096
			c-0.006,3.438-0.336,6.952-0.313,10.323c0.031,4.666,0.144,9.346,0.32,14.009c0.343,9.076,0.834,18.138,1.506,27.195
			C439.951,453.789,440.283,461.305,439.848,468.798z M473.809,283.2c-5.687,3.427-7.904,2.257-10.905-2.926
			c-5.103-8.812-7.259-19.04-12.965-27.521c-2.59-3.85-6.028-9.13-10.741-10.551c-5.097-1.537-8.002,2.614-9.037,7.021
			c-1.275,5.435-1.031,11.122-0.684,16.643c0.611,9.717,1.939,19.389,3.534,28.99c3.157,19.009,6.81,38.058,10.835,56.902
			c1.464,6.854,3.596,13.204,5.686,19.856c0.847,2.695,2.352,6.368,1.83,9.246c-0.366,2.024-1.24,1.98-3.531,2.443
			c-5.626,1.136-11.519,0.764-17.223,1.159c-8.755,0.606-17.572,0.68-26.303,1.564c-6.131,0.041-12.262-0.085-18.393-0.019
			c-3.286,0.035-6.563,0.155-9.839,0.259c-9.406-1.104-18.928-1.15-28.376-1.805c-5.705-0.395-11.598-0.023-17.224-1.159
			c-2.291-0.463-3.164-0.418-3.531-2.443c-0.521-2.878,0.983-6.551,1.83-9.246c2.09-6.652,4.222-13.001,5.686-19.856
			c4.025-18.844,7.679-37.893,10.835-56.902c1.595-9.601,2.924-19.272,3.535-28.99c0.346-5.521,0.592-11.208-0.684-16.643
			c-1.035-4.407-3.941-8.558-9.037-7.021c-4.715,1.421-8.152,6.702-10.742,10.551c-5.706,8.481-7.861,18.709-12.965,27.521
			c-3.001,5.183-5.219,6.353-10.904,2.926c-8.001-4.823-7-12.44-4.564-20.278c2.722-8.762,6.947-16.94,10.588-25.333
			c3.736-8.616,6.864-17.469,10.688-26.056c4.369-9.811,9.013-19.495,13.59-29.209c3.344-7.099,7.092-12.353,14.871-14.738
			c6.963-2.136,14.311-1.896,21.503-1.639c4.874,0.174,9.746-0.067,14.618-0.221c4.642-0.147,9.124,0.424,13.765,0.42
			c9.688-0.009,19.643-1.456,29.083,1.44c7.779,2.386,11.525,7.639,14.871,14.738c4.576,9.715,9.22,19.398,13.588,29.209
			c3.825,8.586,6.951,17.439,10.688,26.056c3.642,8.394,7.867,16.572,10.589,25.333C480.808,270.76,481.809,278.377,473.809,283.2z"
			/>
	</g>
</g>
<g>
	<g>
		<path d="M275.011,422.221c0.049-77.579-0.947-155.167-1.286-232.746c-0.168-38.446-1.127-76.885-1.31-115.332
			c-0.088-18.312,0.583-36.876-1.512-55.1c-0.567-4.939-0.922-10.861-4.373-14.793c-0.944-1.077-2.091-1.958-3.359-2.62
			c-1.327-0.692-2.886-1.284-4.371-1.475c-1.895-0.243-3.816-0.188-5.706,0.074c-0.341,0.047-0.648,0.018-0.988,0.102
			c-0.372,0.092-0.742,0.194-1.108,0.308c-0.727,0.227-1.438,0.5-2.122,0.834c-1.391,0.679-2.647,1.611-3.669,2.776
			c-3.451,3.933-3.806,9.854-4.374,14.793c-2.094,18.223-1.423,36.788-1.511,55.1c-0.183,38.447-1.142,76.885-1.31,115.332
			c-0.34,77.58-1.336,155.167-1.285,232.747c0.014,21.437-1.028,42.979,0.004,64.398c0.605,12.578,4.848,25.42,19.138,25.38
			c14.29,0.04,18.531-12.803,19.138-25.38C276.039,465.2,274.997,443.657,275.011,422.221z M264.3,494.582
			c-1.216,5.063-3.598,7.502-8.432,7.62c-4.834-0.118-7.216-2.557-8.432-7.62c-1.588-6.619-1.188-13.869-1.252-20.618
			c-0.171-17.953,0.305-35.915,0.296-53.869c-0.016-35.433,0.302-70.864,0.615-106.295c0.63-71.066,0.758-142.13,1.436-213.196
			c0.189-19.784-0.161-39.542-0.236-59.322c-0.033-8.886-0.08-18.054,1.373-26.846c0.484-2.926,2.543-8.678,6.415-8.649
			c3.509,0.025,5.534,5.923,5.985,8.649c1.453,8.792,1.406,17.96,1.373,26.846c-0.075,19.78-0.425,39.538-0.236,59.322
			c0.677,71.066,0.806,142.129,1.436,213.196c0.313,35.431,0.632,70.862,0.615,106.295c-0.009,17.955,0.467,35.917,0.297,53.869
			C265.488,480.713,265.888,487.963,264.3,494.582z"/>
	</g>
</g>
<g>
</g>
<g>
</g>
<g>
</g>
<g>
</g>
<g>
</g>
<g>
</g>
<g>
</g>
<g>
</g>
<g>
</g>
<g>
</g>
<g>
</g>
<g>
</g>
<g>
</g>
<g>
</g>
<g>
</g>
</svg>
