<?xml version="1.0" encoding="iso-8859-1"?>
<!-- Generator: Adobe Illustrator 19.0.0, SVG Export Plug-In . SVG Version: 6.00 Build 0)  -->
<svg version="1.1" id="Capa_1" xmlns="http://www.w3.org/2000/svg" xmlns:xlink="http://www.w3.org/1999/xlink" x="0px" y="0px"
	 viewBox="0 0 512 512" style="enable-background:new 0 0 512 512;" xml:space="preserve">
<g>
	<g>
		<path d="M507.914,70.157c-6.994-20.108-34.229-21.735-51.969-23.962c-27.524-3.455-55.32-3.229-82.975-4.85
			c-17.059-1-34.39,1.242-51.531,0.66c-17.484-0.594-35.053-0.583-52.571-0.542c-35.516,0.083-71.028,0.834-106.519,2.14
			c-3.193,0.118-6.386,0.239-9.578,0.366c-28.148,1.114-56.368,2.284-84.342,5.765c-11.182,1.392-23.058,2.33-33.449,7.019
			c-10.374,4.68-16.023,13.553-19.34,24.128c-7.705,24.561-11.256,49.83-12.864,75.457c-1.708,27.209-4.3,54.627-1.619,81.848
			c0.852,8.646,1.672,17.724,5.963,25.467c4.623,8.34,12.936,13.003,22.01,15.088c11.909,2.736,24.492,2.526,36.625,3.503
			c14.058,1.131,28.123,2.162,42.193,3.114c56.145,3.799,112.41,5.476,168.668,6.346c53.701,0.83,107.385,2.599,161.082,1.317
			c19.199-0.458,40.732-2.704,53.994-18.357c12.793-15.1,15.796-36.116,17.364-55.175c1.997-24.266,2.569-48.704,2.757-73.04
			c0.1-13.083,0.168-26.17,0.186-39.253C512.016,95.041,511.956,81.775,507.914,70.157z M449.371,266.386
			c-0.256,4.917-1.149,9.847-0.77,14.731c-7.924,0.599-15.889,0.501-23.828,0.703c-12.508,0.317-24.99,0.567-37.504,0.419
			c-26.373-0.313-52.731-1.273-79.107-1.527c-52.636-0.507-105.279-1.512-157.859-4.083c-26.405-1.292-52.784-3.035-79.142-5.072
			c-1.944-0.15-3.905-0.269-5.87-0.379c-0.019-4.194,1.63-8.849,2.504-12.688c0.236-1.037,0.451-2.087,0.666-3.139
			c12.045,0.789,24.206,0.362,36.262,0.352c12.782-0.012,25.564-0.059,38.347-0.032c25.564,0.053,51.136,0.431,76.67,1.73
			c51.078,2.599,102.161,3.401,153.272,5.039c14.459,0.464,28.902,1.192,43.356,1.75c6.788,0.262,13.579,0.418,20.37,0.578
			c4.128,0.097,8.472,0.887,12.672,0.711C449.396,265.779,449.387,266.088,449.371,266.386z M70.093,248.522
			c0.604-1.95,1.377-3.836,2.464-5.594c6.944-11.24,24.782-13.252,36.671-14.718c31.608-3.897,63.825-4.962,95.643-5.125
			c66.333-0.34,133.122,1.913,199.154,8.458c8.922,0.884,17.788,2.136,26.544,4.083c7,1.557,14.322,3.573,16.949,11.031
			c1.131,3.211,1.666,6.789,1.879,10.387c-4.1,0.411-8.681-0.612-12.658-0.687c-6.434-0.121-12.867-0.241-19.298-0.449
			c-12.64-0.408-25.27-1.022-37.909-1.398c-25.354-0.754-50.714-1.179-76.07-1.778c-50.57-1.196-101.035-4.65-151.629-4.877
			c-14.242-0.064-28.484-0.02-42.726,0.111C96.144,248.084,83.053,247.729,70.093,248.522z M500.361,116.916
			c-0.212,26.156,0.012,52.291-1.364,78.424c-0.964,18.302-1.134,37.135-6.837,54.737c-2.668,8.23-6.879,16.291-13.806,21.724
			c-5.345,4.192-11.921,6.534-18.608,7.87c-0.59-5.008,0.67-10.377,0.611-15.336c-0.078-6.495-0.473-13.511-2.464-19.729
			c-4.62-14.422-18.343-17.929-31.763-20.38c-17.328-3.165-34.988-4.046-52.521-5.375c-18.475-1.4-36.971-2.53-55.479-3.408
			c-36.645-1.738-73.345-2.55-110.029-2.424c-34.803,0.12-70.475,0.903-104.947,6.082c-14.499,2.178-32.242,5.982-39.809,20.028
			c-3.17,5.883-4.078,12.415-5.079,18.926c-0.632,4.115-1.313,8.577-0.601,12.731c-7.662-0.382-15.353-0.832-22.795-2.148
			c-9.089-1.608-16.841-5.116-19.988-14.319c-2.977-8.706-3.363-18.675-3.891-27.771c-0.754-13.033-0.279-26.098,0.406-39.123
			c1.339-25.451,2.053-51.183,7.102-76.237c2.228-11.056,4.948-22.791,9.856-33.018c4.891-10.193,14.188-13.286,24.72-15.146
			c25.623-4.527,51.95-5.839,77.894-7.245c52.682-2.855,105.435-4.14,158.19-4.267c26.688-0.063,53.38,0.285,80.043,1.486
			c25.887,1.166,51.723,3.401,77.607,4.518c4.598,0.198,9.21,0.266,13.814,0.425c7.534,1.147,14.961,2.708,22.17,4.893
			c3.605,1.092,7.297,2.521,10.168,5.039c3.945,3.459,4.84,8.535,5.76,13.481C500.895,93.029,500.457,105.095,500.361,116.916z"/>
	</g>
</g>
<g>
	<g>
		<path d="M462.984,79.794c-3.988-4.077-9.94-5.609-15.353-6.673c-15.792-3.104-31.361-2.977-47.366-3.487
			c-8.678-0.275-17.354-0.683-26.02-1.219c-8.374-0.518-16.902-1.725-25.247-1.521c-17.665,0.43-35.502-0.726-53.187-0.791
			c-17.373-0.064-34.747-0.011-52.121-0.057c-34.979-0.093-69.872,0.284-104.802,2.282c-14.699,0.841-29.498,2.326-44.223,2.411
			c-8.026,0.046-16.023-0.074-23.985,1.138c-6.762,1.029-14.911,3.17-18.396,9.693c-4.258,7.968,1.223,16.644,8.843,19.644
			c4.614,1.815,9.674,2.307,14.573,2.764c7.522,0.7,15.038,1.179,22.595,1.264c18.061,0.203,36.129-0.625,54.195-0.561
			c34.674,0.123,69.352,0.344,104.021-0.318c35.568-0.68,71.13-1.626,106.709-1.438c19.141,0.101,38.211,1.076,57.337,1.568
			c8.897,0.229,18.11,0.496,26.964-0.569c6.127-0.737,12.718-2.563,16.725-7.608C468.239,91.286,467.414,84.322,462.984,79.794z
			 M448.104,94.772c-14.246,2.467-29.836,0.801-44.191,0.205c-15.734-0.653-31.484-0.735-47.23-0.69
			c-63.021,0.182-125.986,2.549-189.021,2.396c-30.557-0.073-61.522,1.928-91.961-1.127C71.556,95.14,55.706,93.132,60.684,85.4
			c3.106-4.827,13.584-4.937,18.52-5.248c6.082-0.383,12.166-0.117,18.249-0.323c16.002-0.543,32-1.938,47.985-2.855
			c31.646-1.817,63.287-2.154,94.98-2.17c35.596-0.018,71.264-0.575,106.852,0.154c17.692,0.362,35.381,1.299,53.042,2.367
			c8.55,0.517,17.121,0.836,25.633,1.817c5.209,0.6,10.342,1.315,15.501,1.792c4.352,0.856,9.27,1.666,12.9,3.74
			C462.316,89.224,453.289,93.874,448.104,94.772z"/>
	</g>
</g>
<g>
	<g>
		<path d="M463.704,128.14c-3.989-4.077-9.94-5.61-15.353-6.673c-8.098-1.591-16.232-2.485-24.443-3.205
			c-7.734-0.679-15.682,0.145-23.494-0.168c-16.928-0.677-33.888-2.007-50.789-2.862c-17.669-0.894-35.455-0.719-53.142-0.783
			c-17.357-0.063-34.715-0.011-52.072-0.057c-34.979-0.094-69.872,0.283-104.803,2.282c-14.698,0.841-29.497,2.327-44.223,2.411
			c-8.026,0.046-16.022-0.074-23.985,1.138c-6.762,1.029-14.91,3.17-18.396,9.693c-4.258,7.967,1.223,16.643,8.844,19.643
			c4.613,1.815,9.672,2.308,14.571,2.764c7.523,0.701,15.039,1.179,22.596,1.264c18.061,0.203,36.128-0.625,54.194-0.561
			c34.674,0.123,69.353,0.344,104.022-0.318c35.568-0.679,71.129-1.626,106.708-1.438c19.141,0.101,38.211,1.076,57.338,1.568
			c8.896,0.229,18.111,0.497,26.963-0.569c6.129-0.737,12.719-2.563,16.725-7.607C468.959,139.632,468.134,132.668,463.704,128.14z
			 M448.823,143.118c-14.247,2.467-29.837,0.801-44.192,0.206c-15.734-0.654-31.484-0.735-47.23-0.69
			c-63.021,0.181-125.985,2.548-189.02,2.396c-30.558-0.073-61.523,1.928-91.962-1.127c-4.144-0.418-19.994-2.425-15.017-10.158
			c3.107-4.827,13.584-4.937,18.521-5.248c6.081-0.383,12.165-0.117,18.249-0.323c16.002-0.543,32-1.937,47.984-2.855
			c31.646-1.818,63.287-2.155,94.98-2.17c35.596-0.018,71.264-0.575,106.853,0.154c17.692,0.362,35.38,1.299,53.042,2.367
			c8.549,0.517,17.121,0.836,25.633,1.817c5.208,0.601,10.342,1.316,15.5,1.793c4.353,0.855,9.27,1.666,12.902,3.74
			C463.035,137.571,454.008,142.22,448.823,143.118z"/>
	</g>
</g>
<g>
	<g>
		<path d="M464.422,176.483c-3.988-4.077-9.939-5.609-15.352-6.673c-7.553-1.484-15.535-2.514-23.348-2.998
			c-7.934-0.491-15.977,0.418-23.834-0.1c-16.641-1.096-33.242-2.56-49.931-3.085c-35.56-1.12-71.251-0.798-106.827-0.893
			c-34.98-0.094-69.873,0.284-104.803,2.282c-14.699,0.841-29.498,2.326-44.223,2.41c-8.026,0.046-16.022-0.073-23.986,1.139
			c-6.761,1.029-14.91,3.17-18.396,9.692c-4.259,7.97,1.222,16.646,8.843,19.646c4.613,1.815,9.673,2.308,14.572,2.764
			c7.523,0.701,15.038,1.179,22.596,1.264c18.061,0.203,36.128-0.625,54.194-0.561c34.674,0.123,69.353,0.344,104.022-0.318
			c35.568-0.679,71.129-1.625,106.707-1.438c19.141,0.101,38.212,1.076,57.338,1.568c8.898,0.229,18.111,0.497,26.963-0.569
			c6.129-0.738,12.719-2.564,16.725-7.608C469.676,187.975,468.852,181.011,464.422,176.483z M449.543,191.462
			c-14.248,2.466-29.838,0.801-44.193,0.205c-15.733-0.654-31.483-0.735-47.229-0.69c-63.021,0.181-125.985,2.548-189.021,2.396
			c-30.558-0.073-61.523,1.928-91.961-1.127c-4.145-0.416-19.994-2.423-15.017-10.156c3.107-4.827,13.583-4.937,18.52-5.248
			c6.083-0.383,12.166-0.117,18.249-0.323c16.002-0.543,32-1.937,47.984-2.855c31.647-1.818,63.289-2.155,94.981-2.17
			c35.596-0.018,71.264-0.575,106.852,0.154c17.692,0.363,35.381,1.299,53.042,2.367c8.55,0.517,17.121,0.837,25.633,1.818
			c5.209,0.6,10.342,1.315,15.501,1.792c4.353,0.855,9.27,1.666,12.901,3.74C463.754,185.915,454.729,190.564,449.543,191.462z"/>
	</g>
</g>
<g>
	<g>
		<path d="M231.608,358.128c5.274-13.736,1.357-29.042-7.308-40.495c-4.972-6.571-16.395-19.899-25.681-13.77
			c-1.652,1.09-1.755,4.368,0.617,4.729c5.083,0.774,9.043,5.66,12.207,9.329c4.064,4.713,7.73,9.965,9.772,15.887
			c5.021,14.555-1.937,25.794-10.345,37.19c-7.99,10.832-13.798,22.502-14.959,36.118c-1.029,12.048,3.131,27.856,14.244,34.359
			c4.243,2.482,8.862-2.417,6.587-6.586c-3.693-6.77-8.477-11.689-9.503-19.727c-0.924-7.232,0.78-14.626,3.312-21.367
			C215.475,380.681,226.583,371.213,231.608,358.128z"/>
	</g>
</g>
<g>
	<g>
		<path d="M274.526,468.557c-1.92-5.268-8.712-8.802-12.6-12.617c-4.574-4.488-8.578-9.654-11.269-15.497
			c-5.833-12.666-3.161-25.197,2.526-37.298c5.485-11.667,12.457-23.113,15.06-35.889c1.183-5.801,1.437-11.667,0.283-17.494
			c-1.063-5.375-3.875-13.981-10.08-14.946c-1.855-0.288-4.028,0.447-4.479,2.543c-1.296,6.021,3.881,11.999,4.23,18.219
			c0.367,6.51-1.543,12.894-3.897,18.891c-4.891,12.456-12.535,23.785-16.396,36.663c-3.979,13.266-1.729,27.266,5.698,38.896
			c3.622,5.672,8.189,10.626,13.595,14.636c4.106,3.047,10.846,7.698,16.236,5.818C274.181,470.22,274.831,469.395,274.526,468.557z
			"/>
	</g>
</g>
<g>
	<g>
		<path d="M285.562,309.51c-1.427-0.918-3.64,0.628-3.006,2.311c3.587,9.533,10.122,17.679,12.374,27.829
			c2.21,9.966,0.906,20.146-3.957,29.081c-7.234,13.291-24.994,33.348-12.322,48.567c2.404,2.887,7.295,0.474,7.242-3
			c-0.066-4.377-0.965-8.701,0.067-13.032c1.052-4.417,3.232-8.465,5.491-12.366c4.667-8.06,10.436-15.793,13.068-24.851
			C309.978,345.282,302.136,320.185,285.562,309.51z"/>
	</g>
</g>
<g>
	<g>
		<path d="M334.873,442.801c-7.879-6.186-15.537-14.758-18.184-24.609c-3.068-11.42,1.907-19.52,5.799-29.84
			c1.282-3.398-3.188-6.569-6.1-4.689c-11.547,7.456-14.43,24.362-10.859,36.88c3.784,13.271,13.347,23.307,26.592,26.986
			C334.655,448.232,337.189,444.62,334.873,442.801z"/>
	</g>
</g>
<g>
</g>
<g>
</g>
<g>
</g>
<g>
</g>
<g>
</g>
<g>
</g>
<g>
</g>
<g>
</g>
<g>
</g>
<g>
</g>
<g>
</g>
<g>
</g>
<g>
</g>
<g>
</g>
<g>
</g>
</svg>
