<?xml version="1.0" encoding="iso-8859-1"?>
<!-- Generator: Adobe Illustrator 19.0.0, SVG Export Plug-In . SVG Version: 6.00 Build 0)  -->
<svg version="1.1" id="Capa_1" xmlns="http://www.w3.org/2000/svg" xmlns:xlink="http://www.w3.org/1999/xlink" x="0px" y="0px"
	 viewBox="0 0 512 512" style="enable-background:new 0 0 512 512;" xml:space="preserve">
<g>
	<g>
		<path d="M364.661,332.81c-3.023-31.182-5.256-62.431-7.381-93.685c-2.101-30.902-4.101-61.813-6.679-92.681
			c-1.2-14.365-2.722-28.702-3.651-43.088c-0.82-12.694-1.585-25.498-4.271-37.964c-5.406-25.085-22.425-45.278-45.197-56.917
			c-19.934-10.189-45.244-10.448-66.508-4.711c-10.673,2.879-22.099,7.468-30.262,15.086c-0.149,0.139-0.282,0.281-0.407,0.425
			c-11.689,10.208-18.608,25.485-12.868,41.303c3.271,9.013,10.997,15.599,20.437,17.362c11.615,2.171,21.919-3.029,32.5-7.024
			c12.357-4.666,26.038-8.211,37.442,0.764c8.608,6.775,12.042,18.209,12.648,28.742c0.536,9.319-0.201,19.813-7.17,26.779
			c-6.618,6.614-16.52,9.186-25.323,11.368c-23.48,5.82-48.929,8.199-67.504,25.403c-16.108,14.92-23.919,37.146-28.707,58.014
			c-5.8,25.285-8.292,51.484-10.885,77.249c-3.014,29.954-5.064,60.004-6.237,90.086c-0.603,15.479-0.903,30.967-1.312,46.453
			c-0.333,12.601-2.198,25.943-0.694,38.502c3.008,25.117,28.16,28.652,48.893,31.478c29.852,4.068,59.979,5.914,90.101,6.218
			c14.946,0.151,29.92-0.28,44.785-1.914c10-1.099,22.986-1.332,30.381-9.246c8.265-8.845,8.895-24.727,10.282-36.083
			c1.75-14.333,2.707-28.707,2.85-43.146C370.217,391.902,367.522,362.319,364.661,332.81z M355.749,464.728
			c-0.733,6.096-1.608,12.199-3.09,18.165c-1.213,4.885-2.367,10.285-7.407,12.497c-4.487,1.97-10.017,2.33-14.803,2.935
			c-7.402,0.936-14.846,1.539-22.297,1.921c-28.301,1.451-57.059,0.243-85.279-2.174c-13.035-1.117-26.065-2.63-38.993-4.645
			c-8.976-1.399-21.353-3.11-27.125-11.071c-5.937-8.188-3.027-21.647-2.684-31.039c0.529-14.508,0.775-29.025,1.179-43.537
			c0.79-28.373,2.316-56.723,4.69-85.008c2.222-26.478,4.84-53.054,9.099-79.292c3.32-20.451,7.99-41.798,19.341-59.454
			c12.981-20.19,34.334-26.346,56.599-31.066c17.542-3.72,39.734-7.129,50.35-23.456c10.018-15.405,7.746-40.646-1.634-55.808
			c-5.649-9.13-14.915-16.071-25.608-17.911c-12.43-2.139-24.269,2.281-35.658,6.748c-8.863,3.477-19.266,8.273-28.339,2.645
			c-8.05-4.994-9.193-15.799-6.553-24.171c6.152-19.509,31.174-26.177,49.168-27.241c11.399-0.674,22.82,0.277,34.235,0.592
			c18.849,5.426,36.262,19.076,45.037,36.411c10.894,21.522,9.011,48.383,11.215,71.787c2.739,29.089,4.81,58.236,6.78,87.386
			c1.972,29.178,3.842,58.364,6.183,87.516c2.263,28.186,5.517,56.296,7.212,84.526
			C359.024,409.604,359.055,437.227,355.749,464.728z"/>
	</g>
</g>
<g>
	<g>
		<path d="M305.098,266.809c-29.144-20.125-71.125-17.897-97.324,6.124c-9.25,8.48-15.17,23.58-19.171,35.273
			c-5.855,17.112-7.058,36.109-0.267,53.149c6.496,16.299,19.274,29.122,34.896,36.899c19.424,9.669,41.836,11.517,62.594,5.023
			c19.042-5.957,32.979-19.017,40.382-37.491C339.544,332.505,336.7,288.632,305.098,266.809z M321.642,347.777
			c-3.461,15.77-10.608,31.112-24.776,39.894c-16.477,10.213-38.74,12.312-57.131,6.668c-14.676-4.503-28.579-13.52-37.017-26.544
			c-8.235-12.713-10.758-28.198-8.182-43.04c3.038-17.504,11.042-36.925,24.93-48.572c7.5-6.289,16.563-9.195,25.974-11.265
			c3.991-0.878,8.218-1.568,12.482-1.88c10.491,0.405,21.061,2.396,30.657,6.294C320.516,282.307,328.449,316.754,321.642,347.777z"
			/>
	</g>
</g>
<g>
	<g>
		<path d="M288.43,284.913c-4.531-8.925-14.564-13.223-23.783-10.625c-9.219,2.598-22.305,4.381-30.667,9.141
			c-8.702,4.953-16.586,13.346-21.95,21.701c-6.39,9.955-10.33,21.691-9.758,33.612c0.365,7.613,3.299,22.63,12.234,24.998
			c3.866,1.024,7.381-1.043,10.477-3.131c5.677-3.83,10.798-8.445,15.748-13.157c8.044-7.659,15.531-15.664,24.258-22.552
			C275.803,316.363,296.699,301.2,288.43,284.913z M261.867,316.68c-5.339,4.26-10.45,8.476-15.306,13.296
			c-8.188,8.127-16.155,17.222-25.919,23.522c-2.259,1.458-3.278,2.468-4.867,0.684c-2.963-3.33-4.106-9.674-4.541-13.923
			c-1.041-10.162,2.204-20.41,7.463-29.035c5.739-9.413,14.257-17.297,24.302-21.913c4.432-2.037,9.063-3.207,13.795-4.292
			c4.203-0.963,8.117-2.069,12.069-3.416c3.637,0.631,6.968,2.022,9.69,4.464C289.709,296.075,268.8,311.149,261.867,316.68z"/>
	</g>
</g>
<g>
	<g>
		<path d="M316.136,319.477c-0.749-7.905-6.288-12.223-13.854-8.459c-5.338,2.655-10.24,7.024-14.788,10.846
			c-2.117,1.779-4.229,3.603-6.217,5.541c-1.282,1.057-2.551,2.094-3.806,3.079c-9.854,7.739-20.199,14.667-30.228,22.159
			c-5.995,4.478-17.858,11.144-16.853,20.092c0.918,8.172,12.061,13.669,18.884,15.841c18.151,5.78,40.855-2.242,52.809-16.697
			c5.957-7.204,9.563-15.988,11.546-25.062C315.521,338.168,316.974,328.328,316.136,319.477z M296.917,365.377
			c-9.426,12.23-27.978,19.646-43.163,15.952c-3.947-0.96-7.578-2.655-10.873-5.028c-3.115-2.245-5.708-3.896-2.799-7.263
			c5.784-6.693,14.269-11.906,21.454-16.966c7.529-5.302,14.779-10.851,21.741-16.854c5.328-3.906,10.406-8.25,15.658-12.196
			c1.929-1.448,6.055-5.675,8.79-5.522c0.07,0.044,0.292,0.284,0.343,1.365c0.087,1.802,0.275,3.555,0.227,5.375
			C307.924,338.29,305.739,353.931,296.917,365.377z"/>
	</g>
</g>
<g>
</g>
<g>
</g>
<g>
</g>
<g>
</g>
<g>
</g>
<g>
</g>
<g>
</g>
<g>
</g>
<g>
</g>
<g>
</g>
<g>
</g>
<g>
</g>
<g>
</g>
<g>
</g>
<g>
</g>
</svg>
