<?xml version="1.0" encoding="iso-8859-1"?>
<!-- Generator: Adobe Illustrator 19.0.0, SVG Export Plug-In . SVG Version: 6.00 Build 0)  -->
<svg version="1.1" id="Capa_1" xmlns="http://www.w3.org/2000/svg" xmlns:xlink="http://www.w3.org/1999/xlink" x="0px" y="0px"
	 viewBox="0 0 512 512" style="enable-background:new 0 0 512 512;" xml:space="preserve">
<g>
	<g>
		<path d="M433.909,267.583c-10.95-39.078-33.894-72.46-67.374-95.667c-17.411-12.069-37.434-20.966-57.581-27.372
			c-6.35-2.02-12.824-3.793-19.376-5.133c2.751-10.602,2.571-26.151,1.286-38.02c-0.555-5.129-1.374-10.938-4.59-15.172
			c-1.303-1.713-2.937-2.884-4.753-3.695c0.703-9.5,0.162-19.175,0.438-28.701c0.291-10.022,1.096-20.104-0.154-30.092
			c-1.673-13.375-7.111-26.033-22.72-23.375c-15.685,2.672-15.129,22.943-14.88,35.359c0.19,9.51,0.375,18.978,0.363,28.494
			c-0.009,6.527-0.353,13.904,2.401,19.941c-5.18,2.221-9.381,5.811-11.08,11.58c-1.86,6.314-1.434,13.828-1.508,20.35
			c-0.077,6.793-0.458,14.42,0.597,21.355c-10.847,1.149-21.554,3.808-31.933,7.107c-20.147,6.406-40.17,15.303-57.581,27.372
			c-33.48,23.207-56.425,56.589-67.374,95.667c-9.934,35.45-12.027,72.385-2.939,108.27c8.559,33.796,26.724,65.311,52.81,88.593
			c17.129,15.288,36.724,26.212,58.51,33.38c11.515,3.789,23.258,7.201,34.992,10.25c4.596,1.193,9.23,2.278,13.935,2.951
			c9.407,1.346,19.179,0.993,28.662,0.715c2.956-0.088,5.884-0.008,8.827-0.277c3.077-0.279,6.064-0.944,9.113-1.38
			c2.865-0.581,5.707-1.274,8.537-2.009c11.733-3.049,23.476-6.461,34.992-10.25c21.786-7.168,41.38-18.092,58.51-33.38
			c26.086-23.282,44.251-54.797,52.81-88.593C445.936,339.968,443.843,303.033,433.909,267.583z M431.137,318.245
			c-4.71,0.297-9.383,1.332-14.078,1.854c-1.942,0.217-3.89,0.372-5.838,0.505c-0.157-2.339-0.328-4.675-0.528-7.007
			c-0.847-9.911-2.007-19.76-3.72-29.489c7.644,2.822,14.902,6.123,21.895,10.802C430.086,302.632,430.849,310.433,431.137,318.245z
			 M426.177,281.119c-5.768-3.26-12.173-5.533-18.379-7.604c-1.055-0.353-2.115-0.69-3.171-1.039
			c-2.036-8.917-4.624-17.714-7.98-26.339c-3.413-8.77-7.392-17.283-11.921-25.487c7.152,2.886,14.698,5.912,21.421,9.833
			C415.323,246.134,422.025,263.296,426.177,281.119z M234.091,392.191c-0.643-8.032-1.163-16.06-1.598-24.03
			c-0.626-11.477-0.694-22.988-0.357-34.51c11.88,0.1,23.762,0.059,35.642-0.143c3.948-0.067,7.905-0.201,11.867-0.356
			c-0.456,19.743-2.015,39.421-4.446,59.099C261.513,392.458,247.786,392.434,234.091,392.191z M273.877,402.359
			c-0.929,6.697-1.944,13.396-3.065,20.099c-1.412,8.439-2.734,16.945-4.451,25.354c-8.256,0.047-16.523-0.16-24.758-0.666
			c-0.4-1.786-0.784-3.575-1.131-5.373c-2.505-12.998-4.224-26.264-5.501-39.568C247.963,402.454,260.975,402.366,273.877,402.359z
			 M140.227,321.758c-9.542-0.29-19.083-0.52-28.633-0.704c-0.264-0.006-0.527-0.016-0.791-0.021
			c0.802-13.401,2.376-26.627,4.933-39.561c8.748-2.687,17.652-4.744,26.593-6.757c1.048-0.235,2.098-0.468,3.146-0.702
			C142.608,289.732,140.826,305.718,140.227,321.758z M143.585,381.108c-10.828-3.133-21.414-7.076-32.001-10.941
			c-1.315-12.92-1.641-25.948-1.238-38.934c9.868,0.561,19.778,0.59,29.657,0.92C139.916,348.544,141.089,364.937,143.585,381.108z
			 M117.789,272.07c4.159-17.44,10.256-34.281,18.813-50.241c1.533-0.669,3.076-1.328,4.643-1.964
			c7.933-3.222,15.966-6.144,24.094-8.747c-8.054,16.965-13.961,34.915-17.955,53.285
			C137.522,266.708,127.529,269.059,117.789,272.07z M193.081,255.189c-12.059,1.964-24.095,4.325-36.127,7.021
			c4.139-18.104,10.149-35.684,18.333-52.164c0.376-0.76,0.774-1.507,1.16-2.261c10.531-2.952,21.219-5.347,32.056-7.114
			C202.253,218.473,197.178,236.74,193.081,255.189z M200.862,263.21c5.069-0.771,10.146-1.48,15.24-2.074
			c4.6-0.535,9.213-0.963,13.832-1.332c-1.253,9.588-2.414,19.188-3.507,28.791c-1.331,11.7-2.498,23.342-3.273,34.997
			c-1.382,0.033-2.764,0.062-4.146,0.096c-8.434-0.938-16.939-0.898-25.449-0.856C194.345,302.819,196.948,282.899,200.862,263.21z
			 M191.04,264.792c-0.789,3.878-1.55,7.759-2.258,11.645c-2.818,15.447-4.574,30.92-5.276,46.377
			c-11.229-0.074-22.462-0.383-33.686-0.764c0.316-16.785,1.952-33.627,5.085-50.119C166.899,269.315,178.94,266.863,191.04,264.792
			z M183.197,333.081c-0.287,18.93,1.021,37.826,3.91,56.616c-10.965-1.271-21.853-3.13-32.6-5.701
			c-0.996-5.683-1.832-11.388-2.493-17.104c-1.307-11.289-2.065-22.785-2.219-34.349
			C160.92,333.019,172.084,333.485,183.197,333.081z M188.696,399.129c1.601,8.777,3.539,17.53,5.838,26.248
			c1.41,5.347,2.938,10.671,4.591,15.956c-10.571-2.325-21.023-5.227-31.354-8.441c-4.879-12.924-8.702-26.264-11.526-39.802
			C166.929,395.728,177.772,397.715,188.696,399.129z M198.269,390.792c-1.551-8.918-2.766-17.893-3.629-26.895
			c-0.992-10.348-1.401-20.693-1.315-31.023c8.352,0.508,16.779,0.454,24.906,0.601c1.455,0.026,2.91,0.038,4.364,0.06
			c-0.471,10.365-0.58,20.757-0.148,31.227c0.373,9.039,0.883,18.128,1.566,27.217c-3.015-0.076-6.028-0.161-9.038-0.256
			C209.399,391.544,203.827,391.236,198.269,390.792z M224.835,401.933c1.16,12.81,2.712,25.582,4.808,38.174
			c0.346,2.078,0.742,4.146,1.158,6.209c-2.875-0.276-5.744-0.588-8.604-0.948c-3.517-0.442-7.02-0.976-10.512-1.573
			c-0.938-2.82-1.843-5.65-2.717-8.482c-3.541-11.473-6.508-23.135-8.89-34.915C208.285,401.167,216.549,401.643,224.835,401.933z
			 M202.867,253.687c2.715-12.313,5.906-24.529,9.469-36.611c1.763-5.977,3.643-11.904,5.675-17.775
			c7.284-0.908,14.592-1.504,21.916-1.852c-1.104,5.23-2.144,10.475-3.042,15.751c-2.108,12.376-3.986,24.792-5.696,37.233
			C221.725,251.233,212.287,252.33,202.867,253.687z M318.247,252.273c-4.075-17.882-9.065-35.581-15.181-52.833
			c10.264,1.086,20.481,2.607,30.584,4.691c1.048,1.955,2.074,3.924,3.062,5.914c7.624,15.354,13.367,31.659,17.464,48.455
			C342.292,255.931,330.303,253.844,318.247,252.273z M356.593,269.442c3.451,17.285,5.252,34.977,5.584,52.607
			c-8.951,0.305-17.909,0.556-26.866,0.686c-2.286-0.213-4.572-0.43-6.858-0.639c-0.724-15.218-2.463-30.451-5.237-45.66
			c-0.833-4.563-1.74-9.12-2.684-13.672C332.653,264.487,344.692,266.718,356.593,269.442z M288.936,360.503
			c0.686-9.268,1.082-18.529,1.209-27.789c8.159-0.34,16.316-0.624,24.436-0.482c0.767,0.013,1.542,0.039,2.326,0.074
			c0.589,0.051,1.177,0.119,1.767,0.166c0.1,10.463-0.312,20.944-1.316,31.426c-0.85,8.861-2.045,17.693-3.562,26.472
			c-8.297,0.819-16.656,1.382-25.099,1.608c-0.977,0.026-1.956,0.043-2.934,0.066C287.067,381.556,288.157,371.042,288.936,360.503z
			 M285.988,259.275c8.287,0.493,16.557,1.241,24.798,2.221c4.004,19.764,6.701,39.761,7.58,59.856
			c-1.858-0.093-3.718-0.162-5.579-0.176c-7.529-0.057-15.079,0.201-22.629,0.52c-0.106-11.598-0.612-23.194-1.516-34.797
			C287.925,277.688,287.099,268.458,285.988,259.275z M308.558,251.127c-2.86-0.307-5.723-0.591-8.589-0.84
			c-5.125-0.444-10.233-0.753-15.332-0.985c-1.692-10.727-4.402-21.256-6.657-31.872c-1.415-6.663-2.673-13.345-3.98-20.017
			c2.029,0.078,4.059,0.164,6.087,0.265c4.55,0.227,9.101,0.522,13.647,0.891c2.13,6.109,4.093,12.282,5.928,18.507
			C302.977,228.319,305.97,239.681,308.558,251.127z M289.282,188.759c-5.735-0.389-11.471-0.66-17.2-0.816
			c-0.627-2.972-1.281-5.939-1.987-8.9c-2.687-11.262-4.856-23.143-8.467-34.256c2.724,0.371,5.449,0.762,8.175,1.215
			c2.629,3.748,4.555,8.076,6.477,12.152c2.876,6.096,5.927,12.102,8.693,18.25c1.845,4.099,3.554,8.242,5.173,12.418
			C289.858,188.802,289.57,188.778,289.282,188.759z M263.068,187.796c-4.021-0.02-8.037,0.018-12.047,0.124
			c0.541-2.466,1.081-4.932,1.644-7.394c1.465-6.4,3.222-12.846,4.704-19.336c0.875,4.197,1.856,8.357,2.735,12.438
			C261.121,178.346,262.111,183.067,263.068,187.796z M264.888,197.147c0.668,3.586,1.312,7.177,1.893,10.78
			c1.817,11.279,4.474,22.372,6.645,33.583c0.48,2.48,0.899,4.971,1.289,7.465c-11.527-0.229-22.996,0.05-34.42,0.781
			c1.385-9.524,2.853-19.016,4.341-28.455c1.276-8.099,2.787-16.143,4.434-24.163C254.339,197.032,259.613,197.045,264.888,197.147z
			 M276.061,258.808c0.757,6.352,1.34,12.727,1.893,19.096c1.285,14.809,1.862,29.548,1.828,44.244
			c-4.792,0.207-9.582,0.397-14.363,0.502c-10.96,0.238-21.921,0.477-32.882,0.727c1.071-21.443,3.47-42.891,6.415-64.188
			C251.299,258.489,263.686,258.368,276.061,258.808z M279.612,433.265c1.763-10.293,3.379-20.618,4.808-30.969
			c9.134-0.129,18.249-0.483,27.337-1.137c-2.355,11.52-5.263,22.927-8.727,34.152c-1.141,3.699-2.337,7.391-3.595,11.064
			c-3.814,0.319-7.632,0.602-11.457,0.805c-3.639,0.193-7.291,0.33-10.947,0.44C277.954,442.854,278.79,438.066,279.612,433.265z
			 M317.464,425.377c2.207-8.371,4.081-16.774,5.646-25.2c10.421-1.055,20.803-2.544,31.129-4.601
			c0.342-0.067,0.682-0.147,1.023-0.216c-3.347,15.411-7.98,30.553-14.023,45.092c-9.795,1.97-19.663,3.548-29.583,4.71
			C313.787,438.623,315.713,432.017,317.464,425.377z M324.978,389.112c2.825-18.588,4.105-37.279,3.823-56.004
			c2.888,0.171,5.781,0.251,8.627,0.125c8.255,0.009,16.525-0.338,24.774-0.69c-0.154,11.563-0.913,23.06-2.219,34.349
			c-0.644,5.561-1.451,11.111-2.411,16.639C346.796,385.798,335.942,387.696,324.978,389.112z M344.446,206.588
			c1.204,0.302,2.406,0.606,3.606,0.927c8.142,2.166,15.989,4.93,23.779,7.957c9.901,16.863,16.881,34.789,21.597,53.422
			c-6.771-2.102-13.576-4.097-20.433-5.896c-3.061-0.803-6.13-1.572-9.207-2.309C359.444,241.974,353.078,223.737,344.446,206.588z
			 M396.04,280.386c2.685,13.28,4.33,26.869,5.154,40.646c-0.264,0.006-0.527,0.016-0.792,0.021
			c-9.549,0.185-19.09,0.414-28.633,0.704c-0.626-16.813-2.544-33.566-5.66-50.015C376.178,274.298,386.146,277.206,396.04,280.386z
			 M371.995,332.153c9.879-0.33,19.789-0.359,29.657-0.92c0.428,13.822,0.023,27.691-1.514,41.429
			c-10.527,3.12-21.094,5.968-31.729,8.464C370.908,364.948,372.082,348.55,371.995,332.153z M373.534,190.932
			c8.349,7.235,15.8,15.324,22.354,24.07c-1.738-0.78-3.524-1.539-5.363-2.3c-4.694-1.942-9.377-3.908-14.092-5.787
			c-3.689-5.608-7.656-11.043-11.894-16.283c-4.922-6.084-10.202-11.986-15.895-17.432
			C357.442,178.35,365.797,184.226,373.534,190.932z M325.547,161.71c13.528,12.488,26.764,25.119,37.547,40.268
			c-1.233-0.412-2.47-0.814-3.714-1.197c-6.92-2.135-13.938-3.933-21.02-5.45c-0.608-1.047-1.217-2.093-1.843-3.13
			c-7.404-12.263-16.346-23.836-26.668-33.788c-1.236-1.191-2.566-2.517-3.976-3.883
			C312.546,156.622,319.117,159.015,325.547,161.71z M289.831,150.085c7.962,6.291,15.124,14.191,21.623,21.581
			c5.916,6.728,11.161,13.96,15.874,21.532c-9.266-1.606-18.611-2.785-27.969-3.637c-3.673-9.186-7.862-18.164-12.345-26.979
			c-2.521-4.955-4.892-10.277-8.068-14.918C282.585,148.392,286.214,149.208,289.831,150.085z M254.379,66.284
			c0.234-6.809,0.789-13.6,0.576-20.418c-0.236-7.583-0.979-15.17-0.687-22.762c0.192-4.977-0.304-13.119,5.633-14.64
			c15.604-3.999,13.755,19.899,13.222,29.36c-0.799,14.186-2.152,28.676-1.565,42.916c-0.643-0.018-1.283-0.028-1.912-0.033
			c-4.681-0.037-10.279,0.182-15.595,1.281C254.679,76.825,254.203,71.398,254.379,66.284z M242.568,126.01
			c0.667-6.532,0.89-13.175,1.142-19.739c0.192-4.992,0.129-10.377,5.118-12.992c5.654-2.965,13.712-3.281,19.927-3.294
			c5.386-0.012,10.019-0.456,11.451,5.406c1.169,4.786,0.791,9.913,0.76,14.794c-0.04,6.394-0.025,12.729-0.559,19.111
			c-0.221,2.644-0.9,5.673-0.683,8.472c-0.929-0.12-1.857-0.243-2.789-0.342c-11.808-1.243-24.558-1.679-36.403-0.566
			C241.869,133.476,242.197,129.638,242.568,126.01z M235.717,158.153c1.922-4.076,3.849-8.404,6.477-12.152
			c3.81-0.633,7.619-1.168,11.424-1.651c-3.695,9.87-5.911,20.337-8.463,30.528c-1.116,4.454-2.178,8.92-3.206,13.391
			c-6.867,0.353-13.712,0.906-20.529,1.664c1.744-4.553,3.596-9.066,5.604-13.529C229.791,170.255,232.842,164.249,235.717,158.153z
			 M222.167,150.085c3.617-0.877,7.246-1.693,10.886-2.42c-3.177,4.641-5.548,9.963-8.069,14.918
			c-4.736,9.311-9.141,18.805-12.957,28.533c-9.914,1.396-19.759,3.25-29.505,5.62c5.249-8.867,11.19-17.302,18.021-25.07
			C207.043,164.276,214.205,156.376,222.167,150.085z M186.451,161.71c6.43-2.695,13.001-5.088,19.673-7.181
			c-1.409,1.366-2.74,2.691-3.976,3.883c-10.322,9.952-19.264,21.525-26.668,33.788c-1.504,2.49-2.946,5.016-4.344,7.563
			c-9.114,2.618-18.13,5.707-27.028,9.305c1.377-2.143,2.79-4.271,4.269-6.377C159.252,187.22,172.707,174.397,186.451,161.71z
			 M138.464,190.932c7.737-6.706,16.092-12.582,24.89-17.731c-5.693,5.445-10.974,11.348-15.895,17.432
			c-6.172,7.631-11.762,15.678-16.764,24.072c-7.584,3.342-15.419,7.188-22.48,11.875
			C116.471,213.338,126.546,201.26,138.464,190.932z M98.496,244.471c7.861-6.147,16.053-11.494,24.764-16.173
			c-2.903,5.813-5.544,11.764-7.909,17.84c-3.786,9.729-6.601,19.676-8.739,29.77c-7.693,2.941-15.112,6.496-22.054,10.982
			C87.506,272.213,92.179,257.926,98.496,244.471z M83.352,293.56c7.242-2.582,14.297-5.635,21.486-8.355
			c-1.608,9.373-2.718,18.854-3.533,28.393c-0.2,2.332-0.371,4.668-0.528,7.007c-1.949-0.133-3.896-0.288-5.838-0.505
			c-4.695-0.521-9.368-1.557-14.078-1.854C81.166,309.978,82.006,301.724,83.352,293.56z M80.715,326.019
			c5.824,2.979,12.891,3.924,19.53,4.487c-0.477,11.954-0.314,23.938,0.622,35.856c-5.859-2.047-11.756-4.207-17.185-7.12
			C81.733,348.321,80.746,337.182,80.715,326.019z M90.167,384.771c-2.002-5.988-3.681-12.103-5.044-18.303
			c3.08,1.795,6.487,3.18,9.404,4.482c2.338,1.043,4.694,2.047,7.054,3.043c0.658,6.072,1.507,12.124,2.628,18.137
			c1.385,7.427,3.127,14.818,5.316,22.07c-2.499-0.885-5.009-1.693-7.534-2.336C97.261,403.202,93.294,394.123,90.167,384.771z
			 M106.855,420.192c1.828,0.919,3.672,1.809,5.537,2.667c1.345,3.717,2.814,7.388,4.448,10.985c0.226,0.497,0.459,0.997,0.69,1.496
			C113.688,430.502,110.127,425.438,106.855,420.192z M122.05,418.784c-2.181-6.143-3.979-12.426-5.495-18.806
			c-1.688-7.106-3-14.282-3.982-21.504c5.237,2.063,10.5,4.063,15.767,6.032c5.524,2.064,11.116,3.917,16.762,5.578
			c2.45,13.154,5.826,26.123,10.137,38.795c-9.534-3.062-19.067-5.992-28.729-8.697C125.024,419.767,123.538,419.29,122.05,418.784z
			 M145.519,462.733c-1.036-0.777-2.042-1.592-3.057-2.396c-3.599-8.333-8.748-16.183-12.888-24.136
			c-1.406-2.701-2.697-5.443-3.902-8.219c9.064,3.044,18.208,5.836,27.223,9.039c2.015,0.717,4.034,1.42,6.057,2.115
			c0.766,1.979,1.547,3.953,2.361,5.916c4.69,11.293,9.703,22.849,15.845,33.442c0.481,0.829,0.993,1.703,1.534,2.603
			C166.958,476.41,155.874,470.513,145.519,462.733z M198.428,487.801c-4.8-4.521-8.967-9.256-12.463-15.359
			c-4.708-8.218-8.568-16.989-12.452-25.62c-0.502-1.115-0.972-2.246-1.457-3.369c10.034,3.143,20.177,5.913,30.455,8.108
			c1.584,4.526,3.266,9.017,5.073,13.454c2.816,6.911,5.889,13.738,9.588,20.229c1.868,3.277,4.157,6.375,6.165,9.611
			C214.939,492.772,206.638,490.218,198.428,487.801z M237.03,497.71c-1.185-4.372-3.64-8.16-6.153-11.954
			c-3.202-4.833-5.999-9.831-8.516-15.058c-2.628-5.453-4.958-11.057-7.088-16.738c0.419,0.067,0.837,0.143,1.258,0.207
			c5.473,0.855,10.977,1.566,16.503,2.141c1.909,7.871,4.076,15.682,6.044,23.547c1.407,5.625,2.161,12.723,4.502,18.719
			C241.392,498.339,239.207,498.063,237.03,497.71z M253.676,494.737c-2.657-5.672-3.241-13.645-4.569-18.773
			c-1.619-6.25-3.388-12.467-5.027-18.714c6.625,0.47,13.271,0.746,19.928,0.837c-0.282,1.102-0.561,2.205-0.866,3.301
			C260.041,472.532,256.142,483.435,253.676,494.737z M281.121,485.756c-2.514,3.794-4.968,7.582-6.153,11.954
			c-3.787,0.613-7.594,1.037-11.417,1.268c2.142-10.388,5.551-20.424,8.554-30.59c1.008-3.412,1.889-6.847,2.697-10.296
			c6.905-0.11,13.809-0.437,20.698-0.93c-1.793,4.585-3.73,9.11-5.862,13.536C287.12,475.925,284.323,480.923,281.121,485.756z
			 M313.57,487.801c-8.209,2.417-16.511,4.972-24.909,7.054c2.008-3.236,4.297-6.334,6.165-9.611
			c3.699-6.49,6.771-13.317,9.588-20.229c1.203-2.953,2.347-5.931,3.449-8.925c9.482-0.987,18.911-2.333,28.249-3.997
			c-3.116,6.9-6.328,13.801-10.079,20.349C322.537,478.545,318.369,483.28,313.57,487.801z M369.536,460.338
			c-1.014,0.804-2.021,1.618-3.056,2.396c-10.355,7.779-21.439,13.677-33.173,18.365c0.541-0.899,1.053-1.773,1.534-2.603
			c5.313-9.165,9.78-19.051,13.926-28.863c0.437-0.092,0.877-0.174,1.313-0.269c9.618-2.069,19.246-4.335,28.808-6.712
			C375.607,448.442,372.161,454.262,369.536,460.338z M395.442,399.979c-2.463,10.364-5.678,20.469-10.075,30.132
			c-10.466,3.121-21.347,5.225-31.801,7.666c5.529-14.543,9.752-29.536,12.754-44.783c9.947-2.244,19.837-4.764,29.666-7.462
			c0.823-0.227,1.65-0.457,2.475-0.685C397.627,389.919,396.633,394.967,395.442,399.979z M421.831,384.771
			c-4.534,13.558-10.824,26.545-18.661,38.51c-1.484,0.733-2.982,1.439-4.506,2.092c4.096-10.748,7.021-21.954,9.125-33.242
			c0.647-3.473,1.185-6.961,1.674-10.454c5.019-1.521,9.999-3.185,14.875-5.085C423.564,379.34,422.734,382.069,421.831,384.771z
			 M427.397,364.005c-5.494,1.852-10.993,3.645-16.498,5.373c1.163-12.91,1.371-25.91,0.854-38.872
			c6.64-0.563,13.707-1.508,19.53-4.487C431.248,338.811,429.954,351.571,427.397,364.005z"/>
	</g>
</g>
<g>
</g>
<g>
</g>
<g>
</g>
<g>
</g>
<g>
</g>
<g>
</g>
<g>
</g>
<g>
</g>
<g>
</g>
<g>
</g>
<g>
</g>
<g>
</g>
<g>
</g>
<g>
</g>
<g>
</g>
</svg>
