<?xml version="1.0" encoding="iso-8859-1"?>
<!-- Generator: Adobe Illustrator 19.0.0, SVG Export Plug-In . SVG Version: 6.00 Build 0)  -->
<svg version="1.1" id="Layer_1" xmlns="http://www.w3.org/2000/svg" xmlns:xlink="http://www.w3.org/1999/xlink" x="0px" y="0px"
	 viewBox="0 0 511.999 511.999" style="enable-background:new 0 0 511.999 511.999;" xml:space="preserve">
<g>
	<g>
		<path d="M179.34,352.334c-0.042-6.738-1.583-15.788-6.251-20.972c-4.062-4.512-10.379-4.796-15.556-1.877
			c-5.347,3.015-8.474,9.557-10.033,15.236c-2.159,7.867-2.606,15.309-2.418,23.31c-0.179,4.071,0.196,8.21-0.052,12.272
			c-0.14,2.288-0.657,4.976,1.263,6.647c1.902,1.657,5.529,1.349,7.86,1.417c6.083,0.178,12.279-0.016,18.403-0.116
			c7.139-0.117,6.44-4.94,6.456-10.832C179.034,369.055,179.393,360.702,179.34,352.334z M172.79,363.034
			c-0.028,3.196-0.161,6.388-0.258,9.583c-0.074,2.44,1.003,7.111-1.384,8.698c-1.752,1.165-6.621,0.254-8.567,0.169
			c-1.979-0.086-3.796-0.266-5.765-0.132c-1.182,0.081-3.511,0.33-5.178,0.239c-0.054-1.077-0.104-2.153-0.157-3.23
			c0.235-2.447,0.084-4.972,0.143-7.433c0.146-6.174-0.468-12.833,1.024-18.864c1.223-4.943,2.367-10.155,5.608-14.233
			c2.169-2.729,6.475-5.198,9.671-2.389c2.215,1.947,3.289,6.647,3.972,9.44C173.33,350.738,172.843,357.038,172.79,363.034z"/>
	</g>
</g>
<g>
	<g>
		<path d="M178.983,427.57c-0.889-6.905-2.66-14.198-8.103-19.136c-4.516-4.098-12.324-1.371-16.484,1.927
			c-5.807,4.604-9.74,11.926-9.789,19.452c-0.021,3.262,0.002,6.597,0.105,9.908c-0.372,2.791-0.282,5.828-0.146,8.395
			c0.132,2.487-0.114,6.852,1.358,8.984c1.544,2.237,4.517,2.188,6.969,2.366c4.347,0.316,8.726-0.201,13.038-0.665
			c2.979-0.321,7.312-0.017,10.041-1.337c2.443-1.181,2.645-3.312,2.918-5.781c0.416-3.761,0.06-7.54,0.276-11.317
			C179.415,436.029,179.54,431.895,178.983,427.57z M172.401,449.447c-0.058,1.103-0.343,1.762-0.308,2.021
			c-0.695,0.046-1.442,0.02-2.018,0.086c-2.788,0.323-5.592,0.551-8.388,0.805c-2.87,0.261-5.919,0.347-8.795,0.105
			c-0.196-0.033-0.392-0.067-0.588-0.1c-0.019-0.058-0.032-0.108-0.055-0.172c-0.084-0.598-0.169-1.196-0.253-1.794
			c-0.299-2.53-0.529-4.985-0.938-7.403c0.13-1.788,0.251-3.582,0.384-5.402c0.444-6.067-0.534-12.353,3.173-17.712
			c1.588-2.296,4.154-4.906,6.804-5.886c3.539-1.308,5.813,0.494,7.574,3.368c3.059,4.988,3.575,10.698,3.704,16.476
			C172.813,438.955,172.671,444.329,172.401,449.447z"/>
	</g>
</g>
<g>
	<g>
		<path d="M135.627,132.089c-3.796-3.15-11.025-3.432-15.675-3.82c-6.926-0.578-13.742-1.503-20.69-1.853
			c-3.537-0.178-7.003-0.071-10.521,0.152c-2.854,0.18-5.912-0.38-8.714,0.22c-4.603,0.986-6.001,4.544-6.393,8.865
			c-0.67,7.388-0.465,14.731,0.338,22.09c0.003,0.026,0.011,0.048,0.014,0.074c0.032,4.113,0.107,8.209,0.078,12.243
			c-0.095,13.225,0.072,26.502-0.69,39.698c-0.479,8.308-2.581,21.236,8.47,22.838c12.21,1.77,24.524,0.437,36.761,0.619
			c3.801,0.057,8.367,0.285,12.034-0.895c3.859-1.242,4.782-4.633,5.136-8.377c1.304-13.788,0.394-27.784,0.929-41.609
			c0.503-13.008,0.013-26.095,0.97-39.072C137.945,139.605,138.822,134.741,135.627,132.089z M131.556,142.473
			c-0.191,2.48-0.167,4.878-0.249,7.363c-0.359,10.822-0.36,21.682-0.785,32.501c-0.411,10.469-0.125,20.94-0.602,31.406
			c-0.139,3.055-0.05,6.13-0.263,9.182c-0.185,2.654-0.06,3.19-2.507,3.709c-3.902,0.829-8.42,0.695-12.38,0.505
			c-10.284-0.491-20.449,0.592-30.79-0.355c-2.398-0.22-3.327-0.22-4.317-2.359c-1.025-2.216-0.788-5.142-0.717-7.497
			c0.156-5.206,0.775-10.375,0.724-15.594c-0.117-12.006,0.313-24.008,0.23-36.031c-0.042-5.997-0.032-11.996-0.208-17.991
			c-0.092-3.13,0.002-6.242-0.124-9.334c0.101-1.045,0.28-2.044,0.643-2.774c1.285-2.582,3.752-1.697,6.201-1.735
			c9.852-0.151,19.234,0.005,29.065,0.974c2.754,0.271,5.509,0.327,8.253,0.72c1.977,0.283,5.921,0.307,7.256,1.969
			C132.052,138.459,131.687,140.763,131.556,142.473z"/>
	</g>
</g>
<g>
	<g>
		<path d="M366.969,380.305c-0.248-4.063,0.127-8.201-0.052-12.272c0.188-8.001-0.259-15.443-2.418-23.31
			c-1.559-5.68-4.685-12.221-10.033-15.236c-5.177-2.919-11.494-2.635-15.556,1.877c-4.668,5.184-6.208,14.234-6.251,20.972
			c-0.053,8.368,0.306,16.721,0.328,25.085c0.017,5.89-0.682,10.713,6.457,10.83c6.124,0.1,12.32,0.293,18.403,0.116
			c2.331-0.068,5.958,0.241,7.859-1.415C367.625,385.28,367.109,382.593,366.969,380.305z M360.362,381.591
			c-1.668,0.091-3.996-0.158-5.178-0.239c-1.969-0.135-3.786,0.046-5.765,0.132c-1.946,0.085-6.815,0.996-8.567-0.169
			c-2.387-1.587-1.31-6.259-1.384-8.698c-0.097-3.195-0.229-6.387-0.257-9.583c-0.054-5.996-0.541-12.296,0.89-18.152
			c0.683-2.793,1.757-7.493,3.972-9.44c3.196-2.809,7.502-0.339,9.671,2.389c3.241,4.078,4.385,9.29,5.608,14.233
			c1.492,6.031,0.878,12.69,1.024,18.864c0.058,2.461-0.092,4.986,0.143,7.433C360.466,379.438,360.417,380.514,360.362,381.591z"/>
	</g>
</g>
<g>
	<g>
		<path d="M448.8,329.356c0.168,1.397,0.792,2.279,2.13,2.798c0.179,0.069,0.358,0.139,0.538,0.209
			c0.993,0.386,2.061-0.119,2.804-0.741c2.665-2.23,3.476-6.16,4.969-9.128c0.987-1.961,2.248-3.769,3.404-5.624
			c0.036,2.995,0.27,6.001,0.373,8.976c0.139,4.013-0.158,10.548,2.653,13.804c0.854,0.989,2.519,1.078,3.59,0.463
			c3.516-2.017,6.395-6.81,8.927-9.886c1.616-1.963,3.18-3.948,4.868-5.854c0.188-0.212,0.445-0.555,0.732-0.947
			c0.217,1.434,0.333,2.883,0.553,4.316c0.585,3.815,1.595,7.636,2.48,11.391c0.711,3.016,1.037,10.104,5.443,10.026
			c4.786-0.086,7.228-10.239,8.541-13.402c1.268-3.054,2.042-6.297,3.229-9.391c0.723-1.886,1.66-3.782,1.991-5.772
			c0.056-0.012,0.107-0.026,0.165-0.038c2.563-0.517,9.071-0.957,3.815-4.774c-1.622-1.178-4.396-1.058-6.292-1.048
			c-3.112,0.016-5.976-0.882-9.055-1.262c-4.07-0.502-7.946-0.743-11.917-1.866c-8.269-2.34-16.1-4.975-23.871-8.685
			c-4.728-2.257-9.087-5.185-13.389-8.184c2.49-1.06,4.245-3.042,4.673-6.977c0.315-2.907-0.136-5.803-0.438-8.684
			c-0.196-1.868-1.21-3.72,0.092-4.808c0.822-0.687,2.355-0.75,3.28-1.563c2.75-2.415,3.031-7.774,1.692-11.791
			c2.591-1.018,4.372-2.877,5.257-6.602c1.124-4.727-0.444-10.204-4.663-12.693c1.029-3.633,0.038-8.005,0.014-11.635
			c-0.031-4.771-0.47-9.528-0.831-14.295c-0.844-11.16-0.493-22.336-0.787-33.524c-0.313-11.913,0.022-23.818,0.453-35.74
			c0.206-5.695,0.144-11.364,0.049-17.059c-0.049-2.964,0.304-6.468-0.026-9.655c3.023-0.165,6.035-0.479,9.026-1.031
			c3.923-0.725,7.882-2.154,9.479-6.148c1.858-4.646-1.465-8.35-4.921-10.984c-8.898-6.781-18.46-13.161-28.173-18.694
			c-3.454-1.968-6.965-3.967-10.512-5.879c-1.983-1.443-4.056-2.781-6.206-4.069c-3.303-1.979-6.042-4.087-9.248-5.649
			c0.487-2.62,0.535-5.313,0.595-7.995c0.059-2.658,0.539-5.456,0.576-8.161c1.916-0.064,3.998,0.378,5.837,0.178
			c1.841-0.201,5.056,0.152,6.827-0.788c2.951-1.566,2.068-7.234,2.259-9.861c0.237-3.263,1.424-8.585-2.517-9.967
			c-1.793-0.629-4.976-0.269-6.801-0.502c-1.156-0.147-3.196,0.167-4.738,0.019c0.588-5.402,0.531-10.842,1.151-16.283
			c0.72-6.321-1.456-6.562-7.184-6.826c-3.348-0.154-13.085-2.814-13.884,2.447c-0.397,2.613,0.874,5.817,1.01,8.485
			c0.092,1.812,0.01,3.664-0.071,5.474c-0.049,1.087,0.177,3.053,0.063,4.542c-2.259-0.137-4.606-0.028-6.775,0.129
			c-1.985,0.144-3.43,0.47-4.351,2.481c-1.06,2.315-0.779,6.193-1.154,8.703c-0.394,2.633-0.998,5.783-0.323,8.385
			c0.399,1.537,1.913,2.141,3.344,1.898c1.418-0.24,5.984-0.004,6.89,0.843c0.092-0.087,0.185-0.174,0.277-0.261
			c-0.02,0.518-0.04,1.035-0.06,1.553c0.164,0.955-0.083,2.136-0.097,3.107c-0.069,4.538,0.851,9.744,0.105,14.273
			c-1.052,0.613-2.104,1.231-3.172,1.803c-2.407,1.29-4.618,2.678-6.908,4.16c-2.615,1.692-5.499,2.725-8.114,4.43
			c-8.614,5.618-18.19,10.252-25.063,18.143c-3.113,3.574-6.679,8.092-5.753,13.172c0.722,3.957,4.117,6.216,7.846,6.957
			c1.037,0.206,2.11,0.332,3.195,0.423c-0.072,1.422,0.052,2.888,0.062,4.26c0.043,5.827-0.596,11.686-0.838,17.509
			c-0.499,12.019,0.812,23.926,1.321,35.914c0.493,11.624,1.094,23.325,1.181,34.959c0.041,5.504,0.3,11.096,0.07,16.593
			c-0.141,3.375-0.368,6.703-0.255,10.045c-3.212-0.022-6.421-0.064-9.618-0.347c-2.02-0.179-5.483-0.132-7.585-1.091
			c0.27-0.047-0.798-1.384-0.98-1.936c-0.454-1.376-0.517-2.529-0.554-3.994c-0.163-6.475,0.815-12.941,0.284-19.414
			c-0.513-6.259-2.12-13.334-6.896-17.79c-1.918-1.789-4.436-3.093-6.738-4.309c-2.503-1.322-7.204-2.079-8.789-4.379
			c-1.627-2.361-1.721-7.554-2.051-10.407c-0.388-3.358-0.191-6.896-0.283-10.273c-0.166-6.067-0.352-12.231-1.6-18.173
			c1.787-0.087,3.564-0.221,5.253-0.576c4.642-0.977,10.658-2.967,10.748-8.663c0.092-5.839-6.02-8.555-10.328-10.85
			c-6.337-3.375-12.552-7.087-18.637-10.926c-5.22-3.293-10.654-6.836-16.184-9.825c-0.124-0.254-0.28-0.505-0.49-0.748
			c-1.966-2.273-4.083-3.864-6.849-5.05c-3.205-1.375-6.131-3.06-9.273-4.574c-4.723-2.276-11.403-3.77-16.555-2.3
			c-5.715,1.63-10.881,5.614-15.823,8.767c-0.46,0.294-0.935,0.588-1.408,0.882c-0.609,0.262-1.222,0.519-1.821,0.802
			c-7.03,3.327-13.951,7.892-20.534,12.046c-6.085,3.839-12.3,7.551-18.637,10.926c-4.308,2.295-10.42,5.011-10.328,10.85
			c0.09,5.696,6.106,7.685,10.748,8.663c1.688,0.355,3.465,0.489,5.253,0.576c-1.248,5.941-1.435,12.105-1.6,18.173
			c-0.092,3.377,0.105,6.915-0.283,10.273c-0.33,2.853-0.424,8.046-2.051,10.407c-1.585,2.3-6.286,3.057-8.789,4.379
			c-2.302,1.216-4.82,2.52-6.738,4.309c-4.776,4.456-6.383,11.531-6.896,17.79c-0.531,6.474,0.448,12.939,0.285,19.414
			c-0.037,1.465-0.1,2.618-0.554,3.994c-0.182,0.552-1.251,1.889-0.981,1.936c-2.102,0.96-5.565,0.912-7.585,1.091
			c-3.197,0.283-6.406,0.325-9.618,0.347c0.113-3.342-0.114-6.669-0.255-10.045c-0.23-5.497,0.029-11.089,0.07-16.593
			c0.087-11.634,0.688-23.334,1.181-34.959c0.509-11.988,1.82-23.896,1.321-35.914c-0.242-5.823-0.881-11.682-0.838-17.509
			c0.01-1.371,0.134-2.838,0.062-4.26c1.086-0.091,2.158-0.217,3.196-0.423c3.729-0.741,7.124-3,7.846-6.957
			c0.926-5.079-2.64-9.598-5.753-13.172c-6.873-7.891-16.449-12.525-25.063-18.143c-2.615-1.706-5.499-2.739-8.114-4.43
			c-2.29-1.482-4.501-2.87-6.908-4.16c-1.068-0.572-2.12-1.19-3.172-1.803c-0.747-4.529,0.174-9.735,0.105-14.273
			c-0.015-0.971-0.262-2.152-0.097-3.107c-0.02-0.518-0.04-1.036-0.06-1.553c0.092,0.087,0.185,0.174,0.277,0.261
			c0.906-0.847,5.472-1.083,6.89-0.843c1.432,0.243,2.945-0.361,3.344-1.898c0.676-2.603,0.071-5.753-0.322-8.385
			c-0.375-2.511-0.094-6.388-1.154-8.703c-0.92-2.011-2.366-2.338-4.351-2.481c-2.169-0.157-4.516-0.266-6.775-0.129
			c-0.114-1.489,0.112-3.455,0.063-4.542c-0.081-1.81-0.163-3.662-0.071-5.474c0.135-2.667,1.407-5.872,1.01-8.485
			c-0.799-5.261-10.537-2.601-13.884-2.447c-5.727,0.264-7.904,0.505-7.184,6.826c0.62,5.441,0.563,10.881,1.151,16.283
			c-1.542,0.149-3.582-0.166-4.738-0.019c-1.825,0.233-5.009-0.127-6.802,0.502c-3.941,1.382-2.754,6.704-2.517,9.967
			c0.191,2.627-0.692,8.295,2.259,9.861c1.771,0.94,4.987,0.588,6.827,0.788c1.838,0.201,3.921-0.242,5.837-0.178
			c0.037,2.705,0.517,5.503,0.576,8.161c0.059,2.682,0.108,5.375,0.594,7.995c-3.206,1.562-5.945,3.67-9.248,5.649
			c-2.15,1.288-4.223,2.627-6.206,4.069c-3.546,1.911-7.058,3.911-10.512,5.879c-9.714,5.533-19.275,11.912-28.173,18.694
			c-3.456,2.634-6.779,6.338-4.921,10.984c1.597,3.994,5.555,5.423,9.479,6.148c2.991,0.552,6.003,0.866,9.026,1.031
			c-0.33,3.187,0.023,6.69-0.026,9.655c-0.095,5.695-0.157,11.364,0.049,17.059c0.431,11.922,0.766,23.826,0.453,35.74
			c-0.293,11.188,0.057,22.364-0.787,33.524c-0.361,4.767-0.8,9.524-0.831,14.295c-0.024,3.63-1.015,8.002,0.014,11.635
			c-4.22,2.489-5.787,7.966-4.663,12.693c0.885,3.725,2.666,5.584,5.257,6.602c-1.339,4.017-1.058,9.377,1.692,11.791
			c0.926,0.813,2.458,0.876,3.28,1.563c1.302,1.088,0.288,2.94,0.092,4.808c-0.302,2.881-0.753,5.777-0.438,8.684
			c0.427,3.935,2.182,5.917,4.673,6.977c-4.302,3-8.661,5.927-13.389,8.184c-7.771,3.71-15.603,6.345-23.871,8.685
			c-3.971,1.123-7.846,1.364-11.917,1.866c-3.079,0.38-5.943,1.277-9.055,1.262c-1.896-0.01-4.67-0.13-6.292,1.048
			c-5.256,3.817,1.252,4.257,3.815,4.774c0.057,0.012,0.108,0.026,0.165,0.038c0.331,1.99,1.268,3.886,1.991,5.772
			c1.187,3.094,1.961,6.338,3.229,9.391c1.313,3.163,3.756,13.316,8.541,13.402c4.406,0.079,4.732-7.01,5.443-10.026
			c0.885-3.755,1.894-7.576,2.48-11.391c0.22-1.433,0.336-2.882,0.553-4.316c0.288,0.391,0.545,0.735,0.732,0.947
			c1.688,1.906,3.252,3.891,4.869,5.854c2.532,3.076,5.411,7.869,8.927,9.886c1.071,0.615,2.736,0.526,3.59-0.463
			c2.811-3.255,2.514-9.791,2.653-13.804c0.103-2.975,0.337-5.981,0.373-8.976c1.156,1.855,2.417,3.663,3.404,5.624
			c1.493,2.968,2.304,6.898,4.969,9.128c0.743,0.622,1.811,1.127,2.804,0.741c0.179-0.069,0.358-0.139,0.538-0.209
			c1.339-0.52,1.962-1.402,2.13-2.798c0.655-5.429,1.888-10.779,2.974-16.151c0.376-1.86,0.909-3.665,1.465-5.459
			c-0.389,7.828-0.573,15.659-0.821,23.534c-0.107,3.4-0.272,6.799-0.453,10.197c-8.948,4.614-17.906,9.016-27.256,12.911
			c-5.743,2.393-11.64,4.44-17.543,6.4c-5.482,1.82-12.189,2.613-17.081,5.771c-1.605,1.037-1.343,3.5,0.531,4.061
			c2.195,0.658,4.7,0.477,7.236-0.072c2.805,6.61,9.906,12.398,14.129,17.719c2.226,2.804,6.882,10.315,11.129,10.193
			c2.549-0.073,3.693-2.097,4.185-4.294c0.774-3.459,1.041-7.09,1.772-10.599c0.803-3.854,1.143-7.846,1.576-11.755
			c0.202-1.827,0.134-4.045,0.188-6.201c2.749,2.405,5.424,4.947,8.308,7.156c3.895,2.983,7.799,5.91,11.466,9.169
			c-0.162,7.388-0.4,14.787-0.802,22.106c-0.334,6.076,0.141,12.143-0.339,18.218c-0.466,5.91-0.766,11.905-0.827,17.834
			c-0.127,12.446,1.692,24.995,0.553,37.451c-0.466,5.1-0.868,10.659,0.871,15.607c1.791,5.098,5.808,6.574,10.839,7.177
			c13.253,1.588,26.882,2.366,40.217,3.244c12.612,0.831,25.289,0.828,37.92,1.374c14.232,0.616,28.479,0.455,42.721,0.446
			c2.611-0.002,5.217,0.025,7.82,0.017c14.514,0.859,29.127-0.271,43.774-0.107c11.218,0.126,22.355-0.39,33.578-0.144
			c4.54,0.1,9.016-0.313,13.522-0.432c0.48,0.065,0.955,0.14,1.443,0.189c6.511,0.656,13.012,0.472,19.543,0.476
			c14.243,0.009,28.49,0.17,42.722-0.446c12.631-0.546,25.308-0.543,37.92-1.374c13.335-0.878,26.964-1.656,40.217-3.244
			c5.031-0.603,9.048-2.079,10.839-7.177c1.739-4.948,1.337-10.507,0.871-15.607c-1.139-12.457,0.68-25.005,0.553-37.451
			c-0.06-5.929-0.361-11.924-0.827-17.834c-0.479-6.075-0.005-12.142-0.339-18.218c-0.402-7.319-0.64-14.718-0.802-22.106
			c3.667-3.259,7.57-6.186,11.466-9.169c2.884-2.209,5.56-4.752,8.308-7.156c0.054,2.156-0.015,4.374,0.188,6.201
			c0.433,3.909,0.773,7.901,1.576,11.755c0.731,3.509,0.998,7.14,1.772,10.599c0.492,2.198,1.636,4.221,4.185,4.294
			c4.247,0.122,8.903-7.389,11.129-10.193c4.223-5.32,11.324-11.108,14.129-17.719c2.536,0.549,5.041,0.73,7.236,0.072
			c1.873-0.561,2.136-3.024,0.531-4.061c-4.892-3.159-11.599-3.951-17.081-5.771c-5.904-1.96-11.8-4.008-17.543-6.4
			c-9.35-3.896-18.308-8.297-27.256-12.911c-0.181-3.398-0.346-6.796-0.453-10.197c-0.247-7.875-0.432-15.706-0.821-23.534
			c0.556,1.794,1.09,3.599,1.465,5.459C446.912,318.577,448.145,323.927,448.8,329.356z M492.154,319.97
			c2.748,0,5.424,1.411,8.17,1.642c-1.047,1.947-1.827,4.111-2.506,5.738c-1.192,2.856-2.097,5.729-3.395,8.552
			c-0.484,1.054-0.954,2.112-1.412,3.177c-0.021,0.055-0.046,0.108-0.068,0.163c-0.09-0.29-0.177-0.575-0.241-0.836
			c-0.694-2.837-1.33-5.706-1.932-8.564c-0.593-2.813-0.525-6.952-1.391-10.299C490.301,319.704,491.225,319.848,492.154,319.97z
			 M469.16,313.775c0.622,0.224,1.243,0.448,1.863,0.661c3.277,1.13,6.58,2.217,9.92,3.153c-1.699,1.72-3.168,3.824-4.583,5.489
			c-1.862,2.19-3.692,4.413-5.533,6.621c-0.551,0.661-1.099,1.474-1.674,2.279c-0.124-2.094-0.064-4.458-0.094-5.255
			c-0.097-2.625-0.077-5.235-0.228-7.857C468.75,317.452,469.042,315.601,469.16,313.775z M451.697,305.648
			c3.262,2.01,6.776,3.759,10.366,5.315c-1.977,1.648-3.568,3.976-5.068,5.961c-1.205,1.594-2.212,4.168-3.389,6.411
			c-0.613-3.241-1.314-6.464-1.981-9.726c-0.618-3.026-1.337-6.308-2.307-9.472C450.136,304.669,450.94,305.181,451.697,305.648z
			 M21.23,329.842c-0.602,2.857-1.239,5.727-1.932,8.564c-0.064,0.261-0.15,0.546-0.241,0.836c-0.021-0.055-0.046-0.108-0.067-0.163
			c-0.458-1.066-0.928-2.124-1.412-3.177c-1.298-2.823-2.203-5.696-3.395-8.552c-0.679-1.627-1.459-3.792-2.506-5.738
			c2.746-0.23,5.421-1.642,8.17-1.642c0.929-0.122,1.853-0.266,2.774-0.427C21.755,322.89,21.823,327.029,21.23,329.842z
			 M42.941,326.722c-0.03,0.798,0.03,3.162-0.094,5.255c-0.575-0.805-1.123-1.617-1.674-2.279c-1.84-2.208-3.671-4.432-5.533-6.621
			c-1.415-1.665-2.884-3.768-4.583-5.489c3.34-0.936,6.643-2.023,9.919-3.153c0.619-0.214,1.241-0.437,1.863-0.661
			c0.119,1.826,0.411,3.677,0.329,5.09C43.018,321.487,43.038,324.097,42.941,326.722z M60.375,313.609
			c-0.667,3.263-1.368,6.485-1.981,9.726c-1.176-2.243-2.184-4.817-3.389-6.411c-1.5-1.985-3.091-4.314-5.068-5.961
			c3.591-1.556,7.105-3.305,10.366-5.315c0.758-0.467,1.562-0.979,2.379-1.511C61.712,307.301,60.993,310.583,60.375,313.609z
			 M39.415,365.908c-0.204,2.981-0.672,5.988-1.041,8.953c-0.428,3.444-1.007,6.745-1.824,10.116
			c-0.313,1.29-0.618,2.555-0.811,3.865c-1.075-1.108-2.32-2.187-2.724-2.637c-2.382-2.65-4.673-5.335-7.122-7.929
			c-2.485-2.633-5.325-6.581-8.569-9.196c1.799-0.619,3.515-1.273,5.036-1.782c5.755-1.924,11.471-3.949,17.101-6.208
			C39.352,362.679,39.524,364.308,39.415,365.908z M65.242,367.285c-0.022,2.133-0.054,4.279-0.085,6.422
			c-2.304-1.834-4.655-3.608-7.046-5.345c-4.231-3.073-7.961-6.795-11.995-10.072c6.735-2.942,13.317-6.094,19.841-9.409
			C65.617,355.011,65.305,361.143,65.242,367.285z M489.64,367.297c1.522,0.509,3.238,1.163,5.037,1.782
			c-3.244,2.615-6.084,6.564-8.569,9.196c-2.449,2.594-4.74,5.279-7.122,7.929c-0.404,0.45-1.649,1.529-2.724,2.637
			c-0.194-1.311-0.499-2.576-0.812-3.865c-0.817-3.37-1.396-6.671-1.824-10.116c-0.369-2.964-0.837-5.972-1.041-8.953
			c-0.109-1.6,0.063-3.229-0.046-4.819C478.169,363.348,483.885,365.373,489.64,367.297z M465.884,358.29
			c-4.034,3.278-7.764,6.999-11.995,10.072c-2.391,1.736-4.742,3.511-7.046,5.345c-0.031-2.143-0.063-4.289-0.085-6.422
			c-0.063-6.141-0.375-12.273-0.716-18.404C452.567,352.196,459.149,355.348,465.884,358.29z M389.244,44.307
			c-0.156-3.067,0.409-6.659,0.957-9.475c0.461-2.369-0.538-0.65,1.156-1.549c1.242-0.659,5.151-0.4,6.642-0.165
			c1.054,0.166,2.296-0.08,2.826-1.15c1.511-3.044,0.903-7.56,0.962-10.937c0.056-3.206-0.801-6.495-0.969-9.686
			c2.361-0.247,6.404,0.62,8.166,0.72c0.724,0.041,1.826-0.045,2.725,0.014c-0.016,0.211,0.075,0.673-0.117,1.461
			c-1.369,5.604-0.404,11.998-1.178,17.745c-0.166,1.235,0.125,2.186,1.191,2.925c2.247,1.559,5.389,0.777,7.983,0.969
			c1.834,0.136,3.719,0.137,5.568,0.24c0.354,2.396-1.095,6.319-1.341,8.25c-0.054,0.427-0.19,0.859-0.307,1.236
			c-0.308,0.035-0.581,0.068-0.741,0.078c-4.059,0.264-8.567-0.399-12.346,1.252c-1.236,0.54-1.502,2.105-1.325,3.255
			c0.516,3.348-0.306,7.301-0.164,10.722c0.076,1.833,0.137,3.643,0.348,5.431c-0.367-0.093-0.717-0.202-1.101-0.278
			c-2.697-0.537-5.131-0.138-7.444,0.712c-0.096-1.661-0.275-3.325-0.384-4.997c-0.243-3.706,0.002-7.755-0.609-11.407
			C399.094,45.782,393.434,44.54,389.244,44.307z M359.56,102.882c2.665-2.848,5.682-4.962,8.996-6.955
			c3.858-2.32,7.659-4.831,11.479-7.224c3.308-2.072,6.872-3.546,10.064-5.79c3.623-2.546,7.695-4.791,11.639-6.81
			c3.743-1.915,8.329-1.07,12.077,0.843c1.909,0.974,3.493,2.34,5.505,3.19c0.318,0.134,0.624,0.264,0.935,0.396
			c4.445,3.127,8.79,6.199,13.435,9.037c8.635,5.276,16.929,11.281,25.161,17.167c0.942,0.674,1.899,1.616,2.943,2.126
			c0.043,0.074,0.082,0.13,0.124,0.197c-1.115,0.261-2.226,0.527-3.405,0.642c-4.194,0.407-8.476,0.194-12.689,0.409
			c-10.134,0.517-20.22-0.517-30.383-0.245c-9.259,0.247-18.897-0.192-28.134-0.891c-9.472-0.717-18.915-0.39-28.415-0.398
			C353.961,108.566,357.775,104.791,359.56,102.882z M443.423,179.603c0.486,10.771,0.664,21.672,0.824,32.433
			c0.076,5.116,0.766,10.285,1.103,15.379c0.154,2.324,0.092,4.654,0.268,6.982c0.083,1.094,0.07,2.213,0.164,3.302
			c0.067,0.772-0.284,2.397,0.382,0.936c-0.151,0.331-0.263,0.658-0.344,0.982c-3.017-0.009-6.063,0.32-9,0.444
			c-4.061,0.172-8.138-0.325-12.199-0.249c-3.613,0.067-7.197,0.615-10.813,0.733c-6.715,0.221-13.112-0.137-19.781-0.56
			c-7.646-0.485-15.309-1.13-22.933-1.983c-0.896-0.1-1.792-0.177-2.689-0.239c0.908-9.467,0.441-19.387,0.378-28.801
			c-0.077-11.605-0.465-23.362-1.233-34.941c-0.843-12.72-1.9-25.342-1.771-38.106c0.055-5.432,0.077-10.713-0.763-16.082
			c-0.078-0.497-0.134-1.016-0.187-1.543c1.841-0.069,3.661-0.154,5.403-0.176c6.066-0.079,11.944,0.099,17.992,0.494
			c12.322,0.806,24.611,0.555,36.938,0.575c6.996,0.011,14.085,0.567,21.155,0.667c-1.858,8.658-1.461,17.792-1.921,26.577
			C443.818,157.399,442.927,168.629,443.423,179.603z M196.174,134.723c3.234-2.035,6.644-3.954,9.961-5.745
			c5.337-2.881,10.151-6.67,15.305-9.858c5.494-3.399,10.869-7.094,16.558-10.154c3.887-2.091,7.477-4.169,10.842-6.793
			c0.958-0.448,1.916-0.893,2.887-1.31c3.368-1.446,6.909-0.908,10.248,0.348c3.705,3.089,7.679,5.417,12.026,7.755
			c5.688,3.061,11.064,6.756,16.557,10.154c5.154,3.188,9.968,6.977,15.305,9.858c3.317,1.791,6.727,3.71,9.961,5.745
			c-1.874,0.222-3.711,0.149-5.674,0.378c-6.006,0.699-12.008,0.499-18.057,0.515c-6.774,0.018-13.445-0.01-20.183,0.746
			c-10.743,1.205-21.046,1.21-31.823,0c-6.739-0.756-13.409-0.728-20.183-0.746c-6.049-0.017-12.051,0.184-18.057-0.515
			C199.886,134.872,198.049,134.945,196.174,134.723z M182.286,215.552c0.006-3.26,0.139-6.551,1.089-9.694
			c1.217-4.029,2.973-5.628,6.504-7.593c5.808-3.232,12.121-4.374,14.352-11.378c1.98-6.215,2.022-12.935,1.848-19.385
			c-0.195-7.23-0.157-14.665-1.613-21.776c3.767,0.325,7.622,0.063,11.393,0.049c18.399-0.065,36.826,0.338,55.163,0.367
			c8.359,0.013,16.744-0.396,25.12-0.367c3.771,0.013,7.627,0.276,11.393-0.049c-1.456,7.111-1.418,14.546-1.613,21.776
			c-0.174,6.45-0.132,13.171,1.848,19.385c2.231,7.004,8.544,8.146,14.352,11.378c3.531,1.965,5.287,3.564,6.504,7.593
			c0.95,3.143,1.084,6.434,1.089,9.694c0.012,6.827-1.735,16.683,1.267,23.497c-6.651,0.344-13.271-1.091-19.895-1.468
			c-2.792-0.159-5.584,0.113-8.376,0.227c-3.389-0.671-6.826-0.109-10.419-0.32c-0.822-0.049-1.64-0.076-2.456-0.094
			c-0.144-0.032-0.303-0.056-0.436-0.095c-0.7-0.202-1.409-0.149-2.062,0.074c-3.731,0.016-7.437,0.204-11.219,0.16
			c-5.261-0.062-10.514,0.113-15.772,0.113c-5.068,0-10.113-0.918-15.179-0.989c-8.964-0.126-17.783,0.407-26.744,0.678
			c-2.079,0.063-4.143,0.28-6.206,0.503c-3.766,0.099-7.536-0.472-11.304-0.257c-6.624,0.377-13.244,1.812-19.895,1.468
			C184.021,232.234,182.274,222.379,182.286,215.552z M89.231,44.983c-0.16-0.01-0.433-0.044-0.741-0.078
			c-0.117-0.376-0.253-0.809-0.307-1.236c-0.246-1.931-1.695-5.854-1.341-8.25c1.849-0.104,3.734-0.105,5.568-0.24
			c2.594-0.192,5.736,0.59,7.983-0.969c1.066-0.739,1.357-1.69,1.19-2.925c-0.774-5.747,0.192-12.142-1.177-17.745
			c-0.192-0.788-0.101-1.25-0.117-1.461c0.899-0.059,2.001,0.027,2.725-0.014c1.762-0.1,5.804-0.966,8.166-0.72
			c-0.168,3.191-1.025,6.48-0.969,9.686c0.059,3.377-0.548,7.893,0.962,10.937c0.531,1.07,1.773,1.316,2.826,1.15
			c1.491-0.234,5.4-0.493,6.642,0.165c1.694,0.898,0.695-0.821,1.156,1.549c0.547,2.815,1.113,6.407,0.957,9.475
			c-4.19,0.233-9.85,1.474-10.5,5.365c-0.611,3.652-0.366,7.701-0.609,11.407c-0.109,1.672-0.289,3.336-0.384,4.997
			c-2.313-0.849-4.747-1.249-7.444-0.712c-0.384,0.077-0.735,0.185-1.101,0.278c0.211-1.788,0.272-3.598,0.348-5.431
			c0.143-3.421-0.68-7.374-0.164-10.722c0.177-1.15-0.089-2.715-1.325-3.255C97.798,44.584,93.29,45.247,89.231,44.983z
			 M53.486,109.701c-1.18-0.114-2.29-0.381-3.405-0.642c0.041-0.067,0.081-0.123,0.124-0.197c1.044-0.51,2.001-1.453,2.943-2.126
			c8.233-5.886,16.526-11.891,25.161-17.167c4.646-2.838,8.99-5.91,13.436-9.037c0.311-0.131,0.618-0.261,0.935-0.396
			c2.011-0.851,3.597-2.216,5.505-3.19c3.748-1.914,8.334-2.758,12.077-0.843c3.944,2.019,8.015,4.263,11.638,6.81
			c3.192,2.243,6.756,3.718,10.064,5.79c3.82,2.393,7.622,4.904,11.479,7.224c3.314,1.993,6.332,4.107,8.996,6.955
			c1.786,1.909,5.6,5.684,0.668,5.695c-9.5,0.007-18.943-0.319-28.415,0.398c-9.236,0.699-18.875,1.138-28.134,0.891
			c-10.163-0.271-20.25,0.762-30.383,0.245C61.962,109.895,57.68,110.108,53.486,109.701z M146.223,135.915
			c0.129,12.765-0.928,25.386-1.771,38.106c-0.768,11.579-1.156,23.337-1.233,34.941c-0.063,9.415-0.53,19.334,0.378,28.801
			c-0.897,0.062-1.793,0.139-2.689,0.239c-7.624,0.852-15.288,1.498-22.933,1.983c-6.669,0.423-13.067,0.781-19.782,0.56
			c-3.615-0.119-7.2-0.666-10.813-0.733c-4.062-0.075-8.138,0.421-12.2,0.249c-2.938-0.124-5.983-0.453-9-0.444
			c-0.082-0.324-0.194-0.651-0.344-0.982c0.666,1.461,0.315-0.163,0.382-0.936c0.094-1.089,0.082-2.207,0.164-3.302
			c0.175-2.329,0.114-4.659,0.268-6.982c0.337-5.093,1.027-10.263,1.103-15.379c0.16-10.761,0.338-21.663,0.824-32.433
			c0.495-10.974-0.395-22.204-0.97-33.177c-0.46-8.785-0.064-17.919-1.922-26.577c7.069-0.1,14.158-0.656,21.154-0.667
			c12.328-0.02,24.617,0.231,36.939-0.575c6.047-0.395,11.926-0.574,17.992-0.494c1.742,0.023,3.562,0.107,5.403,0.176
			c-0.054,0.527-0.11,1.046-0.187,1.543C146.146,125.201,146.168,130.482,146.223,135.915z M59.647,253.817
			c-3.534-6.593,11.264-4.57,14.006-4.315c7.476,0.695,15.185,0.329,22.699,0.72c12.929,0.671,25.91-0.459,38.776-1.731
			c7.692-0.76,15.214-1.311,22.957-1.23c3.184,0.034,6.637,0.113,9.964-0.258c1.634,0.032,3.268,0.071,4.903,0.103
			c3.988,0.078,7.979,0.879,11.958,0.698c19.819-0.9,39.713-2.635,59.464-2.769c5.049-0.034,10.077,0.877,15.121,0.983
			c5.223,0.11,10.468-0.186,15.697-0.13c4.811,0.051,9.555-0.35,14.332-0.179c0.97,0.2,2.035,0.275,3.231,0.342
			c3.753,0.214,7.419,0.577,11.198,0.439c7.778-0.284,15.38,0.96,23.138,1.313c3.979,0.181,7.97-0.62,11.958-0.698
			c1.634-0.032,3.268-0.071,4.903-0.103c3.327,0.371,6.78,0.291,9.964,0.258c7.743-0.081,15.265,0.469,22.957,1.23
			c12.866,1.272,25.848,2.402,38.776,1.731c7.514-0.39,15.222-0.025,22.699-0.72c2.743-0.255,17.54-2.278,14.007,4.315
			c-1.134,2.115-7.338,1.852-9.517,1.834c-3.003-0.024-6.001-0.24-9.003-0.268c-7.139-0.068-14.192,0.906-21.365,0.652
			c-13.536-0.48-27.106,1.259-40.663,1.187c-14.185-0.075-28.329-1.247-42.464-2.294c-7.128-0.528-14.245-0.941-21.362-1.554
			c-2.912-0.251-5.812-0.235-8.709-0.108c-6.09-0.854-13.066-0.038-18.788,0.286c-9.038,0.511-18.119,0.311-27.162,0.745
			c-8.307,0.398-16.541,0.579-24.822,0.329c-8.13-0.245-16.539-1.934-24.477-1.251c-7.117,0.613-14.234,1.026-21.362,1.554
			c-14.135,1.046-28.279,2.218-42.464,2.294c-13.557,0.072-27.126-1.667-40.663-1.187c-7.173,0.254-14.226-0.72-21.365-0.652
			c-3.002,0.029-6,0.244-9.003,0.268C66.985,255.669,60.781,255.932,59.647,253.817z M127.219,320.197
			c-0.864,9.172-1.295,18.394-1.922,27.584c-1.18,17.276-1.496,34.749-1.486,52.067c0.005,8.602-0.585,17.358,0.122,25.928
			c0.684,8.29,0.523,17.007,0.148,25.317c-0.628,13.923-1.17,27.799-1.254,41.734c-10.215-0.526-20.427-1.179-30.648-2.092
			c-3.369-0.301-6.722-0.699-10.096-0.944c-1.83-0.133-5.631,0.478-6.939-0.943c-2.453-2.666-0.426-12.519-0.55-15.983
			c-0.417-11.69-1.782-23.59-1.368-35.277c0.81-22.874,1.451-45.745,1.91-68.639c0.132-6.597,0.396-13.2,0.641-19.803
			c2.108,2.009,4.292,3.896,6.602,5.717c-0.49,4.329-0.6,8.66-0.494,13.168c-0.179,4.071,0.196,8.21-0.052,12.272
			c-0.14,2.288-0.657,4.976,1.263,6.647c1.901,1.656,5.528,1.347,7.859,1.415c6.083,0.178,12.279-0.016,18.403-0.116
			c7.139-0.117,6.44-4.94,6.456-10.832c0.023-8.364,0.381-16.717,0.328-25.085c-0.022-3.509-0.457-7.642-1.521-11.533
			c1.575,0.545,3.165,1.013,4.772,1.381c1.966,0.45,4.068-0.923,4.026-3.067c-0.203-10.43-0.295-21.113-1.317-31.483
			c-0.012-0.122-0.044-0.229-0.066-0.343c0.077-0.083,0.157-0.165,0.234-0.247c1.487-1.602,3.885-3.762,5.582-6.099
			C127.606,307.352,127.822,313.787,127.219,320.197z M107.951,381.314c-1.752,1.165-6.621,0.254-8.567,0.169
			c-1.979-0.086-3.796-0.266-5.765-0.132c-1.182,0.081-3.51,0.33-5.178,0.239c-0.054-1.077-0.104-2.153-0.157-3.23
			c0.235-2.447,0.085-4.972,0.143-7.433c0.088-3.693-0.09-7.557,0.067-11.359c3.198,2.589,7.634,6.025,10.822,4.776
			c4.272-1.674,2.562-10.3,2.531-13.814c-0.048-5.43-1.072-10.789-1.693-16.16c0.11-0.027,0.222-0.042,0.333-0.063
			c1.844,0.973,3.711,1.941,5.598,2.864c1.331,2.285,2.091,5.56,2.617,7.71c1.431,5.856,0.944,12.156,0.891,18.152
			c-0.028,3.196-0.161,6.388-0.258,9.583C109.261,375.056,110.338,379.727,107.951,381.314z M96.343,353.218
			c0.067,1.041,0.013,2.315-0.905,2.811c-0.969,0.523-2.109-0.233-2.946-0.949c-4.177-3.571-8.77-6.48-12.884-10.13
			c-0.394-0.349-0.806-0.728-0.946-1.235c-0.171-0.62,0.122-1.293,0.578-1.747c1.268-1.262,3.255-1.944,4.78-2.808
			c1.633-0.927,3.236-1.832,4.751-2.918c0.36-0.258,0.716-0.527,1.065-0.808c0.69-0.555,1.399-1.161,2.27-1.321
			c1.437-0.264,2.845,0.829,3.439,2.164c0.594,1.335,0.567,2.852,0.529,4.313C96.075,344.837,96.07,348.986,96.343,353.218z
			 M102.509,328.115c-0.226-0.167-0.465-0.351-0.558-0.616c-0.144-0.414,0.122-0.863,0.452-1.151
			c2.308-2.016,4.637-4.138,6.889-6.266c2.297-2.169,4.586-4.397,6.838-6.66c0.16,3.512,0.386,7.036,0.381,10.568
			c-0.005,3.626,0.238,7.232,0.404,10.836c-0.038-0.824-6.23-2.149-7.201-2.396C107.064,331.755,104.669,329.712,102.509,328.115z
			 M116.804,304.579c-4.613,3.913-8.733,8.348-13.289,12.328c-8.407,7.344-17.583,13.905-27.332,19.375
			c0.054-2.343,0.098-4.687,0.114-7.029c0.049-7.106-0.157-14.212-0.615-21.304c-0.262-4.054-0.19-8.047-1.018-11.842
			c0.145,0.01,0.288,0.02,0.434,0.029c7.836,0.519,15.633,1.572,23.497,1.897c8.838,0.365,17.694,0.109,26.553-0.25
			c-0.805,0.468-1.606,0.915-2.179,1.38C120.835,300.895,118.899,302.801,116.804,304.579z M193.235,315.909
			c-0.102,8.304-0.607,16.602-0.715,24.899c-0.241,18.611-1.074,37.249-1.621,55.861c-0.258,8.788-0.762,17.559-1.029,26.343
			c-0.276,9.085,0.154,18.061,0.143,27.127c-0.01,8.153,0.016,16.383,0.357,24.535c0.274,6.553,0.079,13.373,0.498,20.015
			c-8.549,0.06-17.106,0.184-25.639-0.131c-10.932-0.404-21.837-0.783-32.734-1.266c0.428-5.556-0.324-11.566-0.23-16.831
			c0.144-8.165,0.429-16.327,0.818-24.479c0.397-8.325,0.505-16.998-0.121-25.308c-0.671-8.912-0.262-17.885-0.296-26.826
			c-0.066-17.316,0.141-34.787,1.21-52.067c1.031-16.657,3.62-33.832,1.027-50.407c6.204-0.255,12.405-0.468,18.6-0.461
			c9.242,0.011,18.487-0.616,27.714-0.409c4.233,0.095,8.479,0.194,12.725,0.274C192.943,303.06,193.313,309.558,193.235,315.909z
			 M280.625,470.738c-0.115,8.004,0.024,16.207-0.527,24.233c-11.088,0.095-22.182,0.19-33.282,0.314
			c-1.879,0.021-10.515-0.046-19.754-0.146c0.737-2.814,0.708-5.878,0.682-8.752c-0.041-4.4-0.002-8.829-0.09-13.223
			c-0.19-9.524-0.86-18.86,0.496-28.351c1.236-8.654,2.747-18.984,7.842-26.335c5.543-7.997,13.064-10.529,22.1-12.481
			c23.178-5.009,22.581,23.611,22.576,38.484C280.665,453.253,280.75,461.959,280.625,470.738z M311.212,474.673
			c-0.247,6.599-0.911,13.353-0.682,20.013c-7.305,0.081-14.619,0.142-21.931,0.206c0.339-7.088,0.069-14.258,0.286-21.348
			c0.254-8.298,0.222-16.553,0.047-24.835c-0.297-13.988,1.545-31.663-8.348-43.097c-9.822-11.353-26.756-8.52-38.834-2.884
			c-15.204,7.095-19.723,24.562-21.847,39.812c-1.289,9.255-1.489,18.598-0.814,27.923c0.362,5.003,0.333,9.975,0.936,14.973
			c0.369,3.062,0.426,6.535,1.266,9.638c-10.334-0.126-19.825-0.28-19.821-0.387c0.229-6.66-0.435-13.414-0.682-20.013
			c-0.305-8.158-0.29-16.376-0.284-24.535c0.006-9.068-0.41-18.04-0.119-27.127c0.281-8.786,0.828-17.552,1.043-26.343
			c0.061-2.5,0.129-5.003,0.194-7.504c1.242,0.122,2.547,0.139,4.139,0.167c5.26,0.092,10.6,1.559,15.889,1.849
			c10.455,0.573,20.877,0.13,31.357,0.113c10.594-0.017,21.189-0.011,31.783-0.011c5.52,0,11.039,0.044,16.56,0.07
			c3.331,0.015,6.198-0.062,9.056-1.069c0.056,2.129,0.113,4.259,0.166,6.387c0.215,8.791,0.762,17.557,1.043,26.343
			c0.291,9.087-0.125,18.059-0.119,27.127C311.502,458.297,311.517,466.515,311.212,474.673z M250.022,380.847
			c8.33-0.24,16.573-0.986,24.872-1.103c4.75,0.487,9.561,0.451,14.33,0.129c6.93-0.468,13.974-0.43,20.894-0.638
			c0.051,1.939,0.101,3.878,0.152,5.816c-3.249-0.448-6.38-0.007-9.849-0.031c-5.211-0.036-10.42-0.063-15.632-0.063
			c-10.594,0-21.189-0.006-31.783,0.011c-10.148,0.016-20.299,0.591-30.423,0.043c-4.95-0.268-9.983-1.174-14.931-1.216
			c-1.97-0.017-3.943,0.277-5.908,0.639c0.041-1.57,0.08-3.138,0.122-4.708c6.787,0.476,13.846-0.379,20.538,0.269
			C231.581,380.882,240.85,381.111,250.022,380.847z M228.56,373.728c1.192-5.982,0.946-12.51,1.195-18.499
			c0.334-8.026,1.925-16.977,4.558-24.563c2.604-7.502,7.559-15.754,15.394-18.719c8.502-3.217,18.076,0.553,22.215,8.585
			c7.662,14.865,8.17,33.247,7.15,49.576c-0.047,0.753-0.286,1.724-0.396,2.647c-0.162,0.03-0.313,0.057-0.442,0.067
			c-3.09,0.258-6.204,0.19-9.281,0.594c-7.225,0.949-14.673,0.446-21.98,1.065c-4.332,0.367-8.332-0.513-12.624-0.607
			C232.427,373.833,230.493,373.79,228.56,373.728z M309.365,315.909c-0.222,8.321,0.019,16.589,0.053,24.899
			c0.044,10.76,0.271,21.537,0.542,32.312c-2.227,0.431-4.815,0.266-7.005,0.269c-4.557,0.004-9.19,0.272-13.732,0.565
			c-1.07,0.069-2.158,0.11-3.254,0.138c0.172-1.817,0.066-3.734,0.094-5.094c0.207-10.243,0.082-19.801-1.692-29.953
			c-1.468-8.401-3.571-18.026-8.88-24.975c-5.102-6.678-12.904-10.214-21.253-9.727c-8.364,0.488-15.325,5.603-20.179,12.174
			c-6.207,8.402-8.551,19.398-9.965,29.552c-1.249,8.967-1.904,18.562,0.128,27.469c-0.857-0.049-1.713-0.1-2.564-0.167
			c-6.491-0.512-13.085-0.273-19.622-0.28c0.271-10.766,0.501-21.533,0.545-32.284c0.034-8.31,0.275-16.578,0.053-24.899
			c-0.163-6.108-0.203-12.783-1.323-19.018c2.377,0.026,4.752,0.04,7.122,0.037c9.958-0.014,19.786-0.979,29.719-1.262
			c4.68-0.133,9.284-0.147,13.959-0.516c1.263-0.1,2.569-0.157,3.888-0.22c1.319,0.063,2.625,0.12,3.888,0.22
			c4.676,0.369,9.28,0.383,13.959,0.516c9.933,0.283,19.761,1.247,29.719,1.262c2.37,0.003,4.745-0.011,7.122-0.037
			C309.568,303.126,309.529,309.801,309.365,315.909z M379.502,493.291c-10.897,0.483-21.802,0.862-32.734,1.266
			c-8.533,0.315-17.09,0.191-25.639,0.131c0.42-6.642,0.224-13.462,0.498-20.015c0.341-8.152,0.367-16.382,0.358-24.535
			c-0.011-9.066,0.418-18.042,0.143-27.127c-0.266-8.785-0.77-17.556-1.029-26.343c-0.547-18.612-1.379-37.25-1.621-55.861
			c-0.108-8.297-0.613-16.594-0.714-24.899c-0.078-6.351,0.292-12.849-0.709-19.13c4.246-0.08,8.492-0.179,12.725-0.274
			c9.227-0.207,18.472,0.42,27.714,0.409c6.195-0.008,12.397,0.206,18.6,0.461c-2.593,16.575-0.003,33.75,1.027,50.407
			c1.069,17.28,1.276,34.751,1.21,52.067c-0.034,8.941,0.375,17.913-0.296,26.826c-0.626,8.31-0.518,16.983-0.121,25.308
			c0.389,8.152,0.673,16.314,0.817,24.479C379.826,481.726,379.075,487.735,379.502,493.291z M436.855,488.848
			c-1.307,1.422-5.108,0.811-6.939,0.943c-3.374,0.245-6.727,0.644-10.096,0.944c-10.221,0.913-20.433,1.566-30.648,2.092
			c-0.084-13.935-0.626-27.811-1.254-41.734c-0.375-8.31-0.536-17.027,0.149-25.317c0.707-8.57,0.117-17.326,0.122-25.928
			c0.01-17.318-0.307-34.791-1.486-52.067c-0.628-9.19-1.058-18.412-1.922-27.584c-0.604-6.41-0.387-12.846-0.634-19.254
			c1.696,2.337,4.094,4.496,5.582,6.099c0.077,0.083,0.157,0.165,0.234,0.247c-0.022,0.114-0.054,0.221-0.066,0.343
			c-1.022,10.37-1.114,21.053-1.317,31.483c-0.042,2.145,2.06,3.517,4.026,3.067c1.607-0.368,3.197-0.836,4.772-1.381
			c-1.065,3.89-1.499,8.024-1.521,11.533c-0.053,8.368,0.306,16.721,0.328,25.085c0.016,5.892-0.683,10.715,6.456,10.832
			c6.124,0.1,12.32,0.293,18.403,0.116c2.331-0.068,5.958,0.241,7.859-1.415c1.92-1.672,1.403-4.359,1.263-6.647
			c-0.248-4.063,0.127-8.201-0.052-12.272c0.106-4.508-0.004-8.839-0.494-13.168c2.309-1.821,4.494-3.708,6.601-5.717
			c0.245,6.603,0.508,13.206,0.641,19.803c0.459,22.894,1.1,45.765,1.91,68.639c0.414,11.687-0.951,23.587-1.368,35.277
			C437.281,476.329,439.308,486.182,436.855,488.848z M435.817,336.282c-9.749-5.47-18.925-12.031-27.332-19.375
			c-4.556-3.98-8.676-8.415-13.289-12.328c-2.096-1.778-4.032-3.684-6.165-5.417c-0.573-0.465-1.374-0.911-2.179-1.38
			c8.859,0.358,17.716,0.615,26.553,0.25c7.864-0.325,15.661-1.378,23.497-1.897c0.146-0.009,0.289-0.019,0.434-0.029
			c-0.828,3.795-0.756,7.788-1.018,11.842c-0.458,7.092-0.664,14.198-0.615,21.304C435.719,331.595,435.763,333.938,435.817,336.282
			z M402.664,372.616c-0.097-3.195-0.229-6.387-0.257-9.583c-0.053-5.996-0.54-12.296,0.891-18.152
			c0.526-2.15,1.286-5.426,2.617-7.71c1.888-0.923,3.754-1.891,5.599-2.864c0.111,0.02,0.222,0.036,0.333,0.063
			c-0.621,5.371-1.645,10.73-1.693,16.16c-0.031,3.514-1.74,12.14,2.531,13.814c3.188,1.25,7.624-2.186,10.822-4.776
			c0.157,3.802-0.021,7.667,0.067,11.359c0.058,2.461-0.092,4.986,0.143,7.433c-0.053,1.077-0.103,2.153-0.157,3.23
			c-1.668,0.091-3.996-0.158-5.178-0.239c-1.969-0.135-3.786,0.046-5.765,0.132c-1.946,0.085-6.816,0.996-8.567-0.169
			C401.662,379.727,402.739,375.056,402.664,372.616z M402.284,332.43c-0.97,0.247-7.163,1.572-7.201,2.396
			c0.166-3.603,0.41-7.21,0.404-10.836c-0.005-3.532,0.221-7.055,0.381-10.568c2.252,2.263,4.54,4.491,6.838,6.66
			c2.253,2.127,4.581,4.25,6.889,6.266c0.33,0.288,0.596,0.737,0.452,1.151c-0.093,0.266-0.331,0.449-0.557,0.616
			C407.331,329.712,404.936,331.755,402.284,332.43z M419.508,355.08c-0.837,0.716-1.977,1.472-2.946,0.949
			c-0.918-0.496-0.972-1.77-0.905-2.811c0.272-4.232,0.268-8.381,0.268-12.629c-0.038-1.461-0.065-2.978,0.529-4.313
			c0.594-1.335,2.002-2.428,3.439-2.164c0.871,0.16,1.58,0.766,2.27,1.321c0.35,0.281,0.705,0.55,1.066,0.808
			c1.515,1.086,3.118,1.991,4.751,2.918c1.525,0.865,3.511,1.547,4.78,2.808c0.456,0.454,0.749,1.127,0.578,1.747
			c-0.14,0.507-0.552,0.886-0.946,1.235C428.278,348.6,423.686,351.509,419.508,355.08z M439.014,288.185
			c-14.772,2.42-30.814,1.571-45.68,0.514c-16.885-1.199-33.805-0.016-50.668-1.052c-16.311-1.002-32.642,0.522-48.96,0.142
			c-14.957-0.347-29.964-0.935-44.955-0.564c-10.151,0.252-20.306,0.328-30.457,0.564c-16.319,0.379-32.649-1.144-48.96-0.142
			c-16.863,1.036-33.783-0.148-50.668,1.052c-14.866,1.056-30.907,1.906-45.68-0.514c-0.694-0.114-2.762-0.193-3.845-0.516
			c0.904-0.059,0.449-3.341,0.535-4.202c0.206-2.065,0.811-4.342,1.135-6.569c11.432,2.876,23.712,1.372,35.341,1.536
			c12.979,0.182,25.852,0.917,38.825,0.26c13.637-0.691,27.272-1.331,40.924-1.351c6.29-0.009,12.634-0.567,18.899-0.452
			c4.239,0.078,8.326,0.397,12.434,0.237c1.756,0.041,3.51,0.065,5.236,0.116c9.611,0.283,19.405,0.283,29.003,0.975
			c8.91,0.643,18.04-0.43,26.95-0.668c4.714-0.126,9.389,0.116,14.086-0.393c0.383-0.042,0.769-0.068,1.154-0.099
			c4.48,0.273,8.918-0.084,13.535-0.169c6.264-0.115,12.608,0.443,18.899,0.452c13.652,0.02,27.287,0.66,40.924,1.351
			c12.974,0.657,25.846-0.078,38.825-0.26c11.629-0.163,23.91,1.341,35.341-1.536c0.325,2.227,0.929,4.504,1.135,6.569
			c0.086,0.86-0.369,4.143,0.535,4.202C441.777,287.992,439.709,288.071,439.014,288.185z M441.368,271.633
			c-5.009-0.941-10.122,0.007-15.318,0.137c-6.729,0.169-13.469-0.417-20.203-0.35c-12.973,0.129-25.859,0.873-38.825,0.246
			c-13.637-0.66-27.275-1.25-40.924-1.23c-7.413,0.011-15.131-0.524-22.759-0.428c-3.537-0.823-7.043-0.914-10.829-0.535
			c-5.001,0.5-9.984,0.252-15.001,0.439c-9.578,0.356-19.09,0.939-28.656,0.361c-9.777-0.591-19.625,0.273-29.392-0.28
			c-2.674-0.151-5.487-0.077-8.279,0.073c-8.441-0.279-17.048,0.382-25.279,0.37c-13.65-0.02-27.287,0.57-40.924,1.23
			c-12.966,0.628-25.853-0.117-38.825-0.246c-6.733-0.067-13.474,0.519-20.203,0.35c-5.196-0.13-10.309-1.079-15.317-0.137
			c-0.7-2.092-2.396-3.85-4.564-4.443c-2.913-0.797-2.581-0.222-2.978-4.116c-0.027-0.261-0.107-0.62-0.203-1.018
			c6.945,0.708,13.847,0.106,20.82,0.735c14.829,1.337,29.778,0.402,44.619,1.539c7.839,0.601,15.792,1.095,23.665,0.515
			c8.292-0.611,16.63-1.545,24.936-1.825c8.426-0.284,16.887-0.883,25.279-1.61c4.446-0.385,9.063-0.092,13.635-0.066
			c3.594,0.38,7.283,0.411,11.071,0.686c3.827,0.277,7.461-0.026,11.263-0.024c4.813,0.002,9.424,0.448,14.248,0.149
			c9.318-0.578,18.732-0.171,28.057-0.669c3.124-0.167,6.251-0.271,9.379-0.38c6.557,0.627,13.428-0.259,19.931,0.304
			c8.392,0.727,16.854,1.326,25.279,1.61c8.307,0.28,16.645,1.214,24.936,1.825c7.873,0.58,15.826,0.085,23.665-0.515
			c14.841-1.137,29.79-0.202,44.619-1.539c6.973-0.629,13.875-0.026,20.82-0.735c-0.096,0.398-0.177,0.757-0.203,1.018
			c-0.397,3.893-0.065,3.319-2.978,4.116C443.764,267.784,442.067,269.541,441.368,271.633z"/>
	</g>
</g>
<g>
	<g>
		<path d="M367.287,439.72c0.104-3.311,0.127-6.646,0.106-9.908c-0.049-7.526-3.982-14.848-9.789-19.452
			c-4.16-3.298-11.967-6.025-16.484-1.927c-5.443,4.938-7.214,12.232-8.104,19.136c-0.557,4.325-0.432,8.459-0.183,12.796
			c0.216,3.777-0.14,7.556,0.276,11.317c0.273,2.469,0.475,4.599,2.918,5.781c2.729,1.32,7.062,1.016,10.041,1.337
			c4.312,0.464,8.691,0.981,13.038,0.665c2.452-0.178,5.426-0.13,6.969-2.366c1.471-2.132,1.226-6.497,1.358-8.984
			C367.569,445.548,367.659,442.511,367.287,439.72z M360.003,450.397c-0.084,0.598-0.168,1.197-0.253,1.794
			c-0.023,0.065-0.036,0.114-0.055,0.172c-0.196,0.033-0.392,0.066-0.588,0.1c-2.876,0.242-5.925,0.157-8.796-0.105
			c-2.795-0.254-5.599-0.482-8.387-0.805c-0.576-0.066-1.323-0.041-2.018-0.086c0.036-0.258-0.25-0.918-0.308-2.021
			c-0.269-5.118-0.411-10.492-0.297-15.609c0.129-5.779,0.646-11.489,3.704-16.476c1.762-2.873,4.036-4.675,7.575-3.368
			c2.649,0.979,5.215,3.589,6.803,5.886c3.707,5.359,2.729,11.645,3.173,17.712c0.133,1.82,0.255,3.614,0.384,5.402
			C360.532,445.412,360.301,447.867,360.003,450.397z"/>
	</g>
</g>
<g>
	<g>
		<path d="M438.623,209.761c-0.759-13.198-0.593-26.475-0.688-39.7c-0.029-4.035,0.046-8.131,0.078-12.243
			c0.004-0.026,0.012-0.048,0.014-0.074c0.803-7.359,1.008-14.702,0.338-22.09c-0.392-4.32-1.79-7.879-6.393-8.865
			c-2.802-0.6-5.86-0.04-8.714-0.22c-3.519-0.222-6.984-0.33-10.521-0.152c-6.947,0.35-13.764,1.274-20.69,1.853
			c-4.65,0.388-11.879,0.67-15.675,3.82c-3.196,2.651-2.318,7.516-2.049,11.175c0.958,12.978,0.467,26.064,0.971,39.072
			c0.535,13.825-0.376,27.82,0.928,41.609c0.354,3.744,1.277,7.135,5.136,8.377c3.667,1.18,8.233,0.951,12.034,0.895
			c12.237-0.182,24.551,1.151,36.761-0.619C441.205,230.997,439.103,218.068,438.623,209.761z M432.338,224.424
			c-0.99,2.139-1.919,2.14-4.317,2.359c-10.341,0.947-20.507-0.136-30.79,0.355c-3.96,0.189-8.478,0.323-12.38-0.505
			c-2.447-0.519-2.322-1.055-2.507-3.709c-0.213-3.052-0.124-6.127-0.263-9.182c-0.477-10.466-0.191-20.937-0.603-31.406
			c-0.425-10.818-0.426-21.679-0.785-32.501c-0.082-2.484-0.058-4.883-0.249-7.363c-0.132-1.71-0.496-4.014,0.57-5.341
			c1.335-1.662,5.279-1.686,7.256-1.969c2.744-0.394,5.499-0.449,8.254-0.72c9.831-0.969,19.213-1.125,29.065-0.974
			c2.449,0.038,4.916-0.848,6.201,1.735c0.363,0.73,0.542,1.729,0.643,2.774c-0.126,3.092-0.033,6.204-0.124,9.334
			c-0.176,5.995-0.166,11.994-0.208,17.991c-0.083,12.023,0.347,24.025,0.23,36.031c-0.051,5.219,0.569,10.389,0.724,15.594
			C433.125,219.282,433.363,222.208,432.338,224.424z"/>
	</g>
</g>
<g>
	<g>
		<path d="M284.784,206.582c1.473-4.631,0.665-10.786,0.432-15.181c-0.272-5.137-1.363-11.865-3.718-16.469
			c-5.042-9.858-13.195-19.357-25.259-18.465c-12.382,0.916-21.224,10.646-26.326,21.237c-2.902,6.023-4.479,12.777-4.988,19.426
			c-0.235,3.07-0.766,7.985,0.911,11.163c-2.845,0.218-5.737,0.209-8.075,2.086c-3.783,3.037-3.553,9.105-0.116,12.332
			c2.138,2.007,4.583,2.339,7.42,2.28c3.894-0.081,7.737,0.536,11.634,0.637c8.284,0.216,16.507,1.188,24.817,1.156
			c10.277-0.038,33.321,4.037,33.384-12.034C294.925,208.374,289.926,207.038,284.784,206.582z M231.014,200.504
			c0.347-5.387,1.422-10.863,3.273-15.943c3.461-9.501,10.858-20.042,21.635-21.318c9.344-1.106,17.149,7.663,20.112,15.858
			c1.557,4.307,2.491,9.694,2.508,14.233c0.015,3.971-0.801,8.704-0.142,12.798c-2.657-0.175-5.388-0.316-8.107-0.314
			c0.452-3.843,0.636-7.547,0.216-11.433c-0.502-4.645-0.206-6.516-3.55-9.693c-2.284-2.17-2.038-3.96-2.632-6.824
			c-0.331-1.596-0.93-3.084-2.227-4.114c-2.577-2.046-6.819-1.554-9.617-0.232c-3.652,1.725-5.299,5.383-5.369,9.286
			c-0.049,2.73,0.875,3.104-1.503,4.56c-1.353,0.829-2.446,1.485-3.413,2.797c-2.609,3.538-3.216,11.687-0.455,16.232
			c-0.987,0.123-1.974,0.268-2.959,0.437c-2.699,0.463-5.399,0.761-8.11,1.021C231.188,205.492,230.874,202.672,231.014,200.504z
			 M256.667,177.695c3.876,0.349,2.394,4.906,3.499,7.583c0.914,2.215,2.966,2.879,3.972,4.776c0.973,1.834,0.809,6.504,0.739,8.596
			c-0.075,2.276-0.494,4.516-0.77,6.771c-0.111,0.202-0.19,0.419-0.253,0.643c-0.349-0.014-0.7-0.027-1.041-0.041
			c-5.478-0.239-10.945-0.396-16.385-0.05c-0.153-1.475-0.172-3.01-0.325-4.367c-0.528-4.683-0.444-6.65,3.801-9.256
			c1.688-1.037,3.053-1.878,3.564-3.99C254.178,185.424,250.505,177.139,256.667,177.695z M285.831,219.319
			c-2.969,1.681-9.13,1.507-12.542,1.481c-3.604-0.028-7.162-0.381-10.778-0.334c-7.019,0.093-14.018-0.263-21.016-0.781
			c-3.053-0.226-6.117-0.25-9.162-0.532c-1.607-0.149-10.599,0.027-10.971-1.929c-0.479-2.521,4.821-2.694,5.994-2.802
			c1.928-0.176,3.851-0.304,5.779-0.451c2.79-0.212,5.497-0.808,8.258-1.26c7.03-1.151,14.302-0.776,21.42-1.018
			c1.913-0.065,3.813-0.128,5.709-0.193c3.638,0.173,7.273,0.433,10.883,0.768c2.013,0.187,6.06-0.146,7.879,0.802
			C289.976,214.474,287.823,218.19,285.831,219.319z"/>
	</g>
</g>
<g>
	<g>
		<path d="M280.702,118.951c-4.903-3.434-10.629-5.315-15.871-8.097c-4.292-2.278-6.803-3.828-11.942-2.289
			c-2.224,0.666-4.655,1.844-6.956,3.232c-2.889,1.115-5.739,2.339-8.491,3.489c-5.46,2.281-13.211,5.362-17.26,9.833
			c-0.695,0.767-1.155,1.923-0.782,2.96c1.434,4,6.488,3.973,10.114,4.046c6.791,0.137,13.565-0.259,20.335-0.381
			c6.805-0.122,13.594-0.885,20.449-0.929c5.243-0.034,12.303,1.953,17.277-0.035c1.248-0.498,1.983-1.365,2.076-2.727
			C289.95,123.673,283.605,120.985,280.702,118.951z M272.191,125.212c-5.688-0.235-11.615-0.403-17.282,0.164
			c-4.578,0.458-9.16,0.68-13.765,0.83c-2.679,0.087-5.382-0.012-8.062-0.02c-0.355-0.001-2.087-0.056-3.83-0.062
			c1.373-0.715,2.774-1.367,4.001-2.03c3.434-1.854,6.917-3.613,10.5-5.16c1.254-0.541,2.453-1.114,3.631-1.728
			c1.478-0.523,2.966-1.027,4.396-1.653c4.768-2.086,6.715-0.875,10.986,1.092c3.549,1.635,7.061,3.068,10.534,4.881
			c0.798,0.417,5.589,2.656,8.482,4.487C278.531,126.03,274.882,125.323,272.191,125.212z"/>
	</g>
</g>
<g>
</g>
<g>
</g>
<g>
</g>
<g>
</g>
<g>
</g>
<g>
</g>
<g>
</g>
<g>
</g>
<g>
</g>
<g>
</g>
<g>
</g>
<g>
</g>
<g>
</g>
<g>
</g>
<g>
</g>
</svg>
