<?xml version="1.0" encoding="iso-8859-1"?>
<!-- Generator: Adobe Illustrator 19.0.0, SVG Export Plug-In . SVG Version: 6.00 Build 0)  -->
<svg version="1.1" id="Layer_1" xmlns="http://www.w3.org/2000/svg" xmlns:xlink="http://www.w3.org/1999/xlink" x="0px" y="0px"
	 viewBox="0 0 511.997 511.997" style="enable-background:new 0 0 511.997 511.997;" xml:space="preserve">
<g>
	<g>
		<path d="M511.485,129.956c-1.428-11.472-7.791-21.959-15.851-30.107c-3.875-3.917-8.828-7.137-13.555-9.928
			c-5.383-3.178-11.145-4.59-16.78-7.098c-5.537-2.464-9.253-8.059-14.021-11.705c-4.461-3.41-9.652-5.676-15.052-7.162
			c-5.398-1.486-11.056-1.638-16.402-3.278c-5.647-1.731-10.05-5.043-14.504-8.76c-9.446-7.883-20.923-8.639-32.386-11.37
			c-11.828-2.818-23.153-6.661-35.426-6.546c-6.001,0.056-11.686,0.145-17.59-1.088c-6.13-1.281-12.22-2.612-18.509-1.88
			c-5.924,0.689-11.754,1.937-17.71,2.405c-6.308,0.496-12.693,0.378-18.965,1.277c-6.16,0.883-12.1,2.818-18.171,4.124
			c-6.374,1.371-12.885,1.189-19.365,1.45c-13.185,0.53-24.593,5.833-37.255,8.669c-5.816,1.303-12.019,1.608-17.687,3.461
			c-6.237,2.038-12.027,5.491-17.857,8.446c-5.83,2.954-11.779,5.512-17.969,7.621c-5.654,1.926-11.263,3.137-16.33,6.455
			c-10.113,6.624-18.887,14.891-29.547,20.707c-9.783,5.338-17.194,14.616-21.383,24.916c-4.578,11.259-3.353,23.922-0.366,35.441
			c2.999,11.57,7.087,22.689,9.773,34.381c3.1,13.494,6.604,26.869,10.334,40.201c3.447,12.324,6.259,24.825,10.845,36.773
			c1.449,3.775,2.691,7.264,4.664,10.582c-1.722,0.239-3.442,0.603-5.136,1.074c-11.714,3.256-22.8,8.294-33.225,14.542
			c-18.837,11.289-38.064,23.514-53.548,39.266c-7.218,7.342-11.917,16.536-12.452,26.936c-0.284,5.505,0.539,11.223,0.704,16.752
			c0.183,6.18-0.039,12.317,1.039,18.436c1.781,10.101,12.527,16.666,20.95,21.313c9.923,5.474,19.752,11.383,29.985,16.255
			c10.258,4.885,20.807,8.988,31.453,12.954c5.718,2.13,11.15,4.7,16.609,7.414c5.407,2.688,10.299,6.257,15.701,8.937
			c9.999,4.961,21.448,7.754,31.899,11.694c8.796,3.317,19.28,7.873,28.793,7.647c10.879-0.258,20.49-5.867,29.412-11.542
			c10.035-6.383,19.585-13.625,29.34-20.428c9.2-6.415,17.048-14.235,25.783-21.192c6.297-5.014,18.152-11.507,16.489-21.136
			c-0.948-5.489-5.368-10.208-9.451-13.697c-4.947-4.227-10.058-8.234-14.975-12.513c-9.182-7.99-18.823-15.613-28.84-22.535
			c-10.458-7.227-20.266-15.396-30.328-23.131c-4.467-3.435-9.036-6.622-13.731-9.764c-0.044-0.029-0.088-0.055-0.132-0.085
			c5.926-3.477,11.076-8.882,16.396-12.717c4.423-3.188,8.352-6.822,12.548-10.267c0.92-0.755,1.855-1.457,2.759-2.164
			c0.142,1.861,0.273,3.724,0.354,5.594c0.268,6.208,0.624,12.496,1.642,18.635c0.763,4.602,1.919,9.045,5.938,11.853
			c4.597,3.211,11.102,3.83,16.497,4.648c12.776,1.936,25.73,3.681,38.656,2.793c6.706-0.461,13.262,0.225,19.959,0.247
			c6.553,0.022,13.081-0.746,19.602-1.298c13.176-1.116,26.379-1.392,39.559-2.604c12.403-1.14,24.042-2.774,36.125-5.666
			c11.896-2.847,23.083-6.555,34.494-10.888c5.647-2.144,11.107-4.565,16.58-7.115c5.602-2.609,11.417-5.1,15.974-9.395
			c8.58-8.088,12.63-20.202,16.682-30.938c2.323-6.154,4.208-12.431,6.237-18.683c1.885-5.805,4.702-11.3,6.684-17.106
			c3.961-11.607,6.621-23.632,10.501-35.29c4.137-12.428,7.685-25.078,10.331-37.914
			C510.791,154.659,513.039,142.442,511.485,129.956z M96.609,208.419c-3.245-11.398-5.798-23.088-9.35-34.382
			c-3.115-9.904-6.273-19.741-7.285-30.101c0.158,0.407,0.315,0.815,0.479,1.211c4.195,10.115,11.668,16.984,20.331,23.307
			c8.874,6.477,19.565,10.882,29.799,14.695c4.952,1.845,9.939,3.563,14.872,5.418c3.145,1.182,6.046,2.485,9.057,2.279
			c-4.139,9.079-4.031,20.233-3.602,30.072c0.363,8.33,2.269,16.433,3.453,24.662c1.216,8.454,2.696,16.776,4.088,25.191
			c2.353,14.219,3.958,28.517,6.772,42.609c-0.163-0.159-0.328-0.32-0.5-0.491c-7.552-7.495-15.274-14.698-23.574-21.384
			c-3.692-2.973-7.8-5.09-11.711-7.734c-4.58-3.098-10.091-5.311-13.263-10.026c-2.511-3.734-3.142-8.164-4.643-12.335
			c-2.012-5.588-3.286-11.312-4.769-17.054C103.656,232.318,100.014,220.379,96.609,208.419z M166.377,469.27
			c-8.845-2.691-17.571-5.769-26.206-9.054c-4.486-1.706-9.071-3.111-13.625-4.616c-5.478-1.811-10.064-4.976-14.96-7.929
			c-8.922-5.381-18.569-8.968-28.061-13.134c-9.375-4.115-18.769-8.124-27.919-12.727c-8.651-4.352-17.026-9.718-25.301-14.754
			c-3.977-2.42-7.681-5.588-11.275-8.557c-1.597-1.319-3.477-2.627-4.427-4.461c-1.201-2.318-1.515-5.548-1.864-8.099
			c-0.635-4.634-1.133-9.277-1.824-13.909c-0.874-5.848-2.463-11.371-0.621-17.188c0.314-0.991,0.703-1.927,1.124-2.84
			c7.174,12.543,19.687,20.845,32.143,28.199c8.75,5.167,16.653,11.333,25.074,16.982c7.767,5.21,15.374,9.965,22.257,16.297
			c6.483,5.964,13.837,11.959,21.067,16.995c7.648,5.327,16.193,9.176,23.798,14.565c3.673,2.603,7.007,5.664,10.888,7.982
			c4.336,2.589,8.804,4.796,12.914,7.785c4.148,3.016,8.153,6.532,12.312,9.755C170.112,470.281,168.289,469.852,166.377,469.27z
			 M254.871,419.119c-4.073,3.158-7.654,6.835-11.549,10.197c-14.435,12.457-30.875,23.324-46.787,33.941
			c-4.714-5.07-10.549-9.221-15.875-13.595c-6.418-5.27-12.9-10.557-19.548-15.533c-12.847-9.614-25.379-18.75-39.508-26.439
			c-14.493-7.887-28.935-15.445-41.324-26.546c-5.371-4.813-10.719-9.548-16.477-13.913c-6.335-4.803-13.563-8.206-19.827-13.071
			c-3.073-2.387-7.044-5.352-4.688-9.549c1.437-2.559,4.599-4.68,6.873-6.451c6.381-4.971,13.187-9.324,19.834-13.915
			c6.343-4.38,12.812-8.519,19.058-13.042c6.224-4.507,13.886-10.576,21.904-8.128c14.719,4.495,26.7,16.018,39.035,24.709
			c6.469,4.558,12.894,9.232,18.951,14.331c6.593,5.551,12.356,11.979,19.089,17.37c6.991,5.599,14.729,10.112,21.681,15.747
			c5.12,4.151,9.935,8.432,15.372,12.23c6.854,4.788,14.046,9.094,20.253,14.729c5.317,4.828,11.422,9.464,16.4,14.719
			C256.777,417.65,255.818,418.384,254.871,419.119z M181.201,337.748c7.116,5.314,13.451,11.568,20.581,16.926
			c15.892,11.943,32.265,23.484,47.128,36.724c3.633,3.237,7.485,6.119,11.245,9.191c1.563,1.276,3.086,2.669,4.408,4.198
			c2.279,2.637,3.131,3.575,0.607,5.959c-0.508,0.481-1.044,0.94-1.573,1.404c-4.993-5.192-11.204-9.61-16.548-14.403
			c-5.267-4.725-11.109-8.433-16.889-12.464c-6.304-4.396-12.208-8.97-18.106-13.842c-6.077-5.02-12.551-9.245-18.978-13.786
			c-7.654-5.408-13.84-12.29-20.846-18.441c-6.669-5.857-13.857-11.164-21.089-16.3c-12.99-9.226-24.941-20.055-39.906-26.004
			c-7.437-2.956-13.07-1.813-19.974,1.933c-7.389,4.008-13.654,9.896-20.609,14.579c-6.74,4.538-13.552,9.065-20.126,13.837
			c-5.719,4.153-12.422,7.909-16.744,13.646c-4.619,6.131-2.965,10.714,2.104,15.809c5.454,5.482,12.604,8.781,18.97,13.003
			c14.091,9.346,25.479,21.917,39.778,31.051c16.909,10.802,35.246,18.718,51.31,30.932c7.819,5.944,15.668,11.846,23.512,17.757
			c7.467,5.628,15.579,10.714,22.898,16.547c-1.903,1.178-3.761,2.148-5.607,2.904c-0.322-0.322-0.707-0.618-1.172-0.874
			c-7.552-4.157-14.051-10.705-21.089-15.656c-7.298-5.134-15.066-9.187-22.257-14.514c-7.507-5.561-16.004-9.728-23.945-14.626
			c-7.614-4.697-15.648-10.3-22.323-16.24c-6.178-5.497-13.112-9.885-20.129-14.253c-8.36-5.204-15.797-11.716-24.188-16.875
			c-8.197-5.04-16.146-10.042-23.719-16.001c-3.435-2.703-7.129-5.156-9.902-8.567c-1.183-1.454-2.436-2.799-3.772-4.058
			c4.911-6.578,12.518-11.105,19.108-15.974c8.393-6.199,16.956-11.993,25.601-17.853c9.813-6.653,18.909-13.835,29.664-18.956
			c7.45-3.547,16.523-7.797,25.085-6.821c2.043,1.426,4.208,2.727,6.493,4.11c4.831,2.924,10.016,5.75,14.392,9.306
			C149.946,313.53,165.425,325.967,181.201,337.748z M209.521,286.921c-0.799,0.903-1.728,1.654-2.701,2.352
			c-1.205,0.865-2.478,1.65-3.653,2.547c-1.938,1.479-3.641,3.187-5.477,4.787c-4.003,3.489-8.455,6.358-12.575,9.695
			c-3.418,2.769-6.598,5.971-10.405,8.224c-1.094-6.503-2.389-12.976-3.271-19.527c-1.236-9.195-2.847-18.661-4.746-27.724
			c-4.137-19.735-9.344-40.58-7.396-60.858c0.974-10.143,4.32-16.745,13.08-22.078c7.156-4.357,14.625-8.489,22.173-12.104
			c4.909-2.351,9.684-5.147,14.765-7.072c3.953-1.497,7.656-2.902,11.382-4.941c2.921-1.598,5.968-2.948,8.977-4.368
			c2.487-1.174,5.904-4.209,8.864-3.639c2.748,0.529,2.527,4.098,2.556,6.587c0.042,3.644-0.459,7.277-1.031,10.868
			c-0.287,1.797-0.667,3.731-2.011,4.959c-0.498,0.455-1.135,0.793-1.81,0.801c-0.675,0.008-1.375-0.369-1.622-0.996
			c-0.2-0.508-0.09-1.078,0.024-1.613c0.75-3.54,4.351-10.089,0.237-12.785c-3.265-2.14-9.914,2.099-12.605,3.499
			c-2.841,1.479-6.276,3.559-8.916,5.977c-8.135,3.958-16.089,7.889-23.855,12.566c-6.413,3.863-13.659,6.591-18.179,12.906
			c-4.615,6.447-5.235,14.691-5.303,22.349c-0.151,16.973,1.896,34.416,4.163,51.255c1.015,7.539,1.984,15.05,3.207,22.555
			c0.642,3.943,1.424,9.3,6.121,10.322c3.158,0.686,6.088-1.239,8.422-3.154c3.448-2.828,6.829-5.896,10.058-8.957
			c2.557-2.423,5.158-5.002,8.181-6.845C210.55,279.842,213.204,282.756,209.521,286.921z M251.134,145.865
			c-1.839-4.207-6.637-6.092-10.222-8.571c-5.155-3.564-10.07-6.744-12.45-12.731c-0.546-1.374-2.597-7.242-1.45-8.554
			c0.503-0.575,5.116-1.076,6.292-1.436c6.247-1.911,12.547-3.171,18.873-4.744c6.129-1.524,12.304-4.353,18.723-4.329
			c3.022,0.012,5.964,0.988,8.98,1.174c3.04,0.188,6.08-0.311,9.107-0.573c4.832-0.419,9.683-1.572,14.519-1.94
			c2.561,0.099,5.03,0.09,7.583-0.089c3.557,0.084,7.126,0.316,10.649,0.759c1.787,0.503,3.54,1.136,5.229,1.796
			c5.36,2.095,10.425,3.233,15.805,3.751c0.104,0.04,0.208,0.078,0.311,0.118c2.11,0.817,4.399,1.617,6.664,1.854
			c1.914,0.201,3.829-0.117,5.748-0.202c1.706,0.654,3.382,1.44,5.068,2.172c3.153,1.368,4.723,4.226,7.647,5.604
			c0.105,0.049,0.213,0.07,0.32,0.108c0.222,0.645,0.403,1.327,0.532,2.053c1.332,7.491-6.729,9.444-12.329,11.164
			c-11.135,3.42-23.187,3.361-34.701,4.782c-6.737,0.831-12.845-0.658-19.347-2.146c-5.076-1.161-10.255-3.21-15.528-3.093
			c-11.397,0.252-21.11,8.154-27.661,17.267c-2.621,2.35-5.132,4.849-7.576,7.434C252.763,153.589,252.801,149.678,251.134,145.865z
			 M208.05,212.643c-1.802,11.878,0.182,23.49,0.827,35.34c0.408,7.491,1.065,14.967,1.651,22.447
			c-0.273,0.207-0.532,0.455-0.753,0.784c-3.846,5.723-11.546,9.614-16.525,14.325c-2.959,2.799-6.926,6.385-10.349,8.619
			c-3.421,2.233-2.871-1.783-3.342-4.409c-3.026-16.862-4.429-34.004-6.374-51.028c-1.034-9.053-1.753-18.618-0.948-27.745
			c0.943-10.691,6.41-16.304,15.626-21.164c7.846-4.137,15.26-9.011,23.228-12.955c7.072-3.501,13.843-7.455,20.502-11.625
			c0.207,3.623-1.548,8.283-2.236,11.277c-0.57,2.484-1.424,5.129-1.695,7.737C219.623,192.161,209.825,200.941,208.05,212.643z
			 M494.206,168.178c-2.586,11.491-5.851,22.778-9.516,33.963c-3.423,10.447-5.663,21.28-9.159,31.672
			c-3.476,10.333-7.577,20.337-11.012,30.703c-3.345,10.096-6.682,21.525-13.19,30.12c-3.42,4.516-8.199,6.76-13.185,9.166
			c-5.671,2.736-11.328,5.336-17.193,7.625c-10.442,4.076-20.703,7.688-31.665,10.201c-4.79,1.098-9.416,2.649-14.271,3.451
			c-6.043,0.997-12.144,1.441-18.239,1.994c-11.498,1.043-22.927,1.692-34.454,2.291c-12.198,0.633-23.997,1.961-36.237,1.384
			c-6.018-0.283-11.933,0.531-17.939,0.552c-5.573,0.02-11.144-0.673-16.674-1.284c-5.757-0.635-11.425-1.541-17.049-2.936
			c-1.691-0.42-5.294-0.619-6.466-1.808c-0.413-0.418-0.877-5.586-0.992-6.79c-1.038-10.921-2.463-21.792-3.516-32.718
			c-1.149-11.938-3.173-23.839-3.776-35.82c-0.562-11.155-1.593-21.649,0.253-32.724c3.993,2.952,9.483,4.505,13.849,5.359
			c10.313,2.019,21.109,1.071,31.497,0.01c11.18-1.142,22.184-1.83,33.431-1.095c11.22,0.733,21.465-1.386,32.55-2.778
			c11.368-1.428,22.213-3.378,33.384-5.954c10.314-2.379,20.33-5.481,30.554-8.165c10.776-2.829,21.654-5.131,32.001-9.36
			c9.505-3.885,18.426-8.597,26.805-14.485c4.79-3.366,9.633-6.66,14.426-10.044c4.553-3.213,8.309-7.282,12.712-10.692
			c5.673-4.395,11.626-9.045,17.002-14.123C497.444,153.385,495.868,160.788,494.206,168.178z M456.853,167.555
			c-15.878,11.808-33.207,20.086-52.387,25.023c-19.531,5.028-38.761,11.17-58.571,15.108c-10.153,2.018-20.592,2.845-30.809,4.6
			c-10.05,1.727-20.621,0.486-30.794,0.444c-11.526-0.047-23.018,2.054-34.526,2.799c-8.528,0.553-19.889,0.814-27.882-3.836
			c1.644-3.127,3.972-6.034,6.007-8.731c3.485-4.621,7.7-8.574,11.311-13.078c6.869-8.568,13.674-17.18,20.631-25.694
			c3.945-4.828,8.151-9.641,12.772-13.968c2.374-1.26,4.812-2.412,7.282-3.496c6.272-2.753,11.798-0.618,18.07,0.82
			c5.2,1.192,10.59,2.731,15.923,3.026c7.347,0.408,14.557-1.409,21.856-1.877c11.941-0.766,25.04-3.691,34.154-11.919
			c8.163-7.369,8.147-17.755,0.837-26c-0.011-0.013-0.024-0.022-0.035-0.035c-2.913-3.678-8.315-5.403-12.91-7.313
			c-4.304-1.789-8.009-1.711-12.632-1.622c-4.697,0.09-9.72-0.923-14.176-2.44c-4.096-1.394-8.244-2.89-12.612-3.225
			c-2.195-0.169-4.349,0.139-6.497,0.532c-4.44-1.066-8.922-2.119-13.435-2.272c-6.057-0.205-12.199,1.561-18.125,2.422
			c-3.308,0.481-6.632,0.037-9.948,0.557c-3.741,0.587-7.384,1.625-11.031,2.631c-6.96,1.919-13.901,3.392-20.954,4.892
			c-5.548,1.18-13.041,1.622-17.863,4.757c-5.257,3.419-5.456,11.146-4.155,16.587c1.546,6.468,4.541,11.611,9.909,15.6
			c2.752,2.045,5.628,3.98,8.577,5.754c-4.5,1.307-9,2.602-13.383,4.442c-7.064,2.965-14.586,4.955-21.49,8.195
			c-10.218,4.796-20.807,9.005-30.331,15.139c-3.664,2.359-7.332,7.097-11.563,7.598c-4.489,0.531-9.777-3.41-13.635-4.648
			c-4.169-1.338-8.235-2.952-12.353-4.467c-8.81-3.242-18.04-7.163-25.76-12.587c-7.573-5.322-13.957-11.01-18.289-19.322
			c-2.144-4.114-3.709-8.529-4.692-13.063c-0.344-1.587-0.58-3.197-0.823-4.805c1.565-3.694,3.79-7.217,6.749-10.682
			c3.312-3.878,7.627-5.662,11.914-8.212c4.886-2.906,9.505-6.358,13.957-9.881c4.053-3.208,8.139-6.43,12.501-9.217
			c4.563-2.916,10.257-3.82,15.307-5.664c11.071-4.044,20.994-10.538,31.951-14.668c4.649-1.752,9.86-2.064,14.714-2.985
			c5.991-1.137,11.629-3.008,17.431-4.847c5.206-1.65,10.557-3.402,16.022-3.878c6.024-0.524,12.087-0.257,18.114-0.817
			c11.524-1.071,22.3-5.17,33.918-5.741c5.528-0.272,11.004-0.489,16.503-1.186c5.721-0.725,11.479-2.158,17.261-1.401
			c4.949,0.648,9.745,2.176,14.71,2.796c5.995,0.749,12.001,0.2,18.02,0.36c5.281,0.141,9.421,1.631,14.362,3.092
			c5.432,1.606,11.292,2.747,16.856,3.847c5.101,1.009,10.23,1.578,15.163,3.312c5.074,1.784,8.386,4.812,12.592,7.992
			c8.481,6.411,17.528,8.137,27.741,9.601c4.973,0.713,10.053,1.948,14.385,4.571c4.933,2.988,8.542,7.659,13.266,10.925
			c3.899,2.696,8.524,3.737,12.849,5.51c5.317,2.179,10.417,5.535,14.895,9.116c7.992,6.391,13.501,16.242,14.553,26.388
			C484.929,144.67,471.411,156.728,456.853,167.555z"/>
	</g>
</g>
<g>
</g>
<g>
</g>
<g>
</g>
<g>
</g>
<g>
</g>
<g>
</g>
<g>
</g>
<g>
</g>
<g>
</g>
<g>
</g>
<g>
</g>
<g>
</g>
<g>
</g>
<g>
</g>
<g>
</g>
</svg>
