<?xml version="1.0" encoding="iso-8859-1"?>
<!-- Generator: Adobe Illustrator 19.0.0, SVG Export Plug-In . SVG Version: 6.00 Build 0)  -->
<svg version="1.1" id="Layer_1" xmlns="http://www.w3.org/2000/svg" xmlns:xlink="http://www.w3.org/1999/xlink" x="0px" y="0px"
	 viewBox="0 0 511.998 511.998" style="enable-background:new 0 0 511.998 511.998;" xml:space="preserve">
<g>
	<g>
		<path d="M168.692,328.641c-0.322-1.299-1.212-2.45-2.367-3.123c-1.413-0.823-2.988-0.832-4.544-0.522
			c-2.255,0.449-3.642,3.253-2.929,5.385c-0.079,1.19,0.342,2.39,1.186,3.308c1.573,1.712,4.021,1.726,5.993,0.77
			C168.142,333.435,169.247,330.889,168.692,328.641z"/>
	</g>
</g>
<g>
	<g>
		<path d="M350.216,324.996c-1.556-0.31-3.131-0.301-4.544,0.522c-1.154,0.672-2.044,1.823-2.366,3.123
			c-0.556,2.247,0.549,4.794,2.66,5.818c1.972,0.956,4.42,0.942,5.993-0.77c0.843-0.918,1.265-2.118,1.186-3.308
			C353.858,328.249,352.471,325.445,350.216,324.996z"/>
	</g>
</g>
<g>
	<g>
		<path d="M251.461,316.861c-1.694-0.511-3.571,0.092-4.759,1.364c-1.221,1.306-1.822,3.221-1.377,4.978
			c-0.042,0.572,0.004,1.14,0.157,1.645c0.314,1.036,1.028,2.003,1.995,2.516c1.352,0.719,2.853,0.608,4.188-0.084
			c2.049-1.064,3.372-3.555,3.306-5.836C254.909,319.274,253.538,317.487,251.461,316.861z"/>
	</g>
</g>
<g>
	<g>
		<path d="M456.583,83.118c-5.621-2.423-11.695-4.523-17.564-6.285c1.596-1.899,3.236-3.759,4.765-5.739
			c2.909-3.766,11.138-11.11,9.712-16.662c-0.348-1.354-1.19-2.702-2.297-3.972c0.812-3.5,3.689-7.141,4.725-10.575
			c0.993-3.294,0.837-7.509,0.152-10.883c-1.48-7.283-5.079-15.167-10.65-20.278c-13.184-12.095-32.657-9.761-48.18-4.092
			c-17.523,6.399-31.21,19.262-44.194,32.156c-6.708,6.662-13.316,13.414-21.872,17.702c-2.029,1.017-4.877,2.282-8.008,3.309
			c-3.005,0.047-6.011,0.096-9.006,0.291c-2.058,0.134-4.228,0.326-6.291,0.69c-0.937-0.376-1.803-0.879-2.569-1.538
			c3.72-2.863,7.329-5.928,9.134-10.345c1.135-2.778-5.087-8.487-6.851-10.402c-2.948-3.198-6.245-6.046-9.808-8.54
			c-5.439-3.807-11.909-6.95-18.255-8.909c-13.864-4.28-30.128-2.145-43.368,3.242c-6.437,2.619-12.472,6.486-18.367,10.134
			c-2.133,1.319-7.616,4.075-8.739,6.54c-0.02,0.044-0.231,0.242-0.428,0.457c-0.041-0.026-0.077-0.045-0.121-0.075
			c-1.518-1.029-3.579-1.344-5.229-2.17c-5.307-2.656-11.329-6.337-17.365-7.061c-6.022-0.723-6.888,5.054-6.596,9.777
			c0.266,4.31,0.287,8.227,0.071,12.542c-0.069,1.381-0.159,2.769-0.251,4.158c-5.86-0.006-11.638,1.296-17.449,1.878
			c-5.456,0.547-10.898,1.405-16.332,2.153c-4.617,0.635-9.172,1.526-13.719,2.489c-5.139,0.583-10.241,1.432-15.296,2.544
			c-2.296,0.506-4.588,1.044-6.881,1.574c-0.633-3.161-2.22-6.05-3.201-9.158c-1.355-4.293-1.912-9.925-4.654-13.621
			c-2.103-2.835-5.393-3.1-8.661-2.633c-5.151,0.736-10.478,1.932-15.372,3.705c-2.938,1.065-7.766,1.989-9.922,4.367
			c-2.39,2.636-1.156,6.76-0.218,9.751c1.419,4.528,3.014,9.002,4.531,13.497c0.368,1.091,0.785,2.355,1.303,3.606
			c-5.956,1.779-12.135,3.911-17.846,6.372c-6.183,2.665-8.076,6.889-6.953,13.355c1.189,6.847,2.175,13.701,4.23,20.367
			c0.96,3.114,2.083,6.382,3.743,9.206c1.845,3.137,3.303,4.612,3.094,8.387c-0.306,5.507,1.988,9.314,7.719,9.916
			c0.945,0.099,1.884-0.248,2.809,0.226c1.78,0.912,0.646,1.161-0.413,2.704c-1.982,2.889-3.896,5.976-5.437,9.126
			c-2.681,5.48-0.255,12.808,0.426,18.525c0.924,7.747,2.237,15.38,3.467,23.08c0.892,5.586,3.512,8.887,9.651,7.834
			c4.89-0.839,9.714-2.743,14.559-4.302c-0.041,2.509,0.189,5.061,0.296,7.477c0.282,6.373,0.707,12.749,1.344,19.095
			c1.275,12.709,2.168,25.425,3.601,38.127c1.371,12.146,1.84,24.592,2.215,36.796c0.19,6.163,0.514,12.312,0.965,18.473
			c0.459,6.267-0.362,12.592,0.508,18.816c-2.559,0.576-5.088,1.307-7.568,2.354c-6.149,2.595-14.585,4.354-19.178,9.575
			c-3.956,4.497-5.046,12.092-4.077,17.849c0.734,4.363,3.087,6.818,6.223,8.693c-4.646,13.061-4.823,28.158-5.943,41.815
			c-0.446,5.446-1.062,10.799-1.297,16.225c-5.454,0.567-9.479,6.044-11.662,10.842c-1.929,4.241-2.104,8.336-2.318,12.908
			c-0.19,4.084-1.1,8.595-0.311,12.647c1.681,8.631,12.269,11.244,19.412,13.757c9.497,3.342,18.632,6.719,28.495,8.937
			c20.541,4.619,41.088,8.635,62.072,10.57c10.432,0.962,21.087,2.188,31.728,2.744c1.29,0.178,2.557,0.344,3.753,0.536
			c4.691,0.755,9.566,0.435,14.218,1.112c11.608,1.691,23.175,1.028,34.881,0.734c5.525-0.139,11.126-0.382,16.602-1.047
			c5.591-0.679,11.284,0.158,16.911-0.18c5.764-0.347,11.73,0.399,17.436-0.377c4.56-0.621,9.36-0.125,13.941-0.747
			c10.847-0.539,21.714-1.795,32.35-2.775c20.984-1.934,41.531-5.951,62.072-10.57c9.863-2.218,18.998-5.595,28.495-8.937
			c7.143-2.514,17.731-5.127,19.412-13.757c0.789-4.052-0.12-8.563-0.311-12.647c-0.214-4.572-0.389-8.667-2.318-12.908
			c-2.182-4.798-6.208-10.276-11.662-10.842c-0.235-5.426-0.851-10.779-1.297-16.225c-1.12-13.657-1.297-28.754-5.943-41.815
			c3.137-1.875,5.49-4.331,6.224-8.693c0.969-5.757-0.122-13.352-4.077-17.849c-4.593-5.221-13.029-6.98-19.178-9.575
			c-2.481-1.047-5.01-1.778-7.569-2.354c0.87-6.224,0.049-12.549,0.508-18.816c0.451-6.162,0.776-12.31,0.965-18.473
			c0.375-12.204,0.844-24.65,2.215-36.796c1.434-12.701,2.327-25.418,3.601-38.127c0.636-6.346,1.062-12.723,1.344-19.095
			c0.107-2.417,0.337-4.968,0.296-7.477c4.845,1.559,9.669,3.464,14.559,4.302c6.139,1.053,8.759-2.248,9.651-7.834
			c1.229-7.7,2.543-15.333,3.467-23.08c0.681-5.716,3.108-13.045,0.426-18.525c-1.541-3.15-3.455-6.237-5.437-9.126
			c-1.058-1.543-2.193-1.792-0.413-2.704c0.925-0.474,1.864-0.127,2.809-0.226c5.73-0.602,8.024-4.409,7.719-9.916
			c-0.209-3.775,1.249-5.25,3.094-8.387c1.661-2.824,2.783-6.092,3.743-9.206c2.055-6.666,3.041-13.52,4.23-20.367
			C464.659,90.007,462.766,85.783,456.583,83.118z M446.384,56.809c-0.705,2.609-3.799,5.254-5.461,7.212
			c-2.214,2.609-4.31,5.255-6.613,7.781c-4.527,4.963-7.423,11.172-11.793,16.213c-17.3,19.957-33.098,41.368-49.007,62.507
			c-9.745,12.948-19.674,25.648-28.826,39.037c-2.099,3.07-4.025,8.184-7.332,10.138c-2.6,1.536-7.57,1.348-10.503,0.951
			c-0.877-0.119-4.415-0.524-4.718-1.718c-0.054-0.213,0.007-0.488,0.141-0.799c8.04-9.276,15.726-19.026,23.256-28.686
			c9.331-11.971,19.545-23.184,28.955-35.081c16.683-21.093,34.762-41.265,49.916-63.56c3.47-5.105,7.432-9.715,10.906-14.775
			c1.894-2.759,2.673-6.149,6.287-4.911c1.836,0.629,2.618,1.332,3.978,2.737C447.28,55.623,446.912,54.856,446.384,56.809z
			 M375.726,331.672c-1.508-0.297-3.014-0.551-4.492-0.645c-0.809-2.432-1.695-4.811-2.632-7.08
			c-2.563-6.207-4.753-12.84-8.157-18.667c-2.991-5.12-6.506-3.658-10.625-0.782c-3.319,2.317-6.298,4.748-9.002,7.794
			c-0.023,0.025-0.057,0.06-0.088,0.092c-0.543-1.335-1.916-2.936-2.47-3.823c-2.431-3.899-5.282-10.185-10.733-7.973
			c-9.858,4-15.621,15.022-18.798,25.438c-0.623-0.119-1.268-0.145-1.991-0.193c-1.535-0.102-3.04-0.446-4.61-0.553
			c-4.234-0.287-8.834-0.237-13.065,0.055c-1.522-7.033-3.69-14.772-7.446-20.5c-2.172-3.312-7.302-10.948-12.034-9.363
			c-2.648,0.887-5.462,3.94-7.639,5.721c-0.992,0.811-2.27,1.651-3.207,2.582c-1.413-2.499-4.732-4.671-6.718-6.63
			c-2.181-2.151-3.561-5.749-7.26-5.126c-2.517,0.424-4.164,2.835-5.614,4.725c-2.389,3.113-4.658,6.394-6.907,9.62
			c-3.882,5.568-7.385,11.368-10.067,17.564c-2.295-0.584-4.727-0.316-7.133-0.114c-3.907,0.328-7.914,0.895-11.821,0.969
			c-0.118,0.002-0.219,0.029-0.331,0.039c-3.249-10.049-8.942-20.387-18.42-24.233c-5.451-2.212-8.302,4.074-10.733,7.973
			c-0.553,0.887-1.927,2.488-2.47,3.823c-0.031-0.032-0.065-0.067-0.088-0.092c-2.703-3.046-5.682-5.477-9.002-7.794
			c-4.118-2.875-7.633-4.338-10.625,0.782c-3.404,5.827-5.594,12.461-8.157,18.667c-0.937,2.27-1.823,4.648-2.632,7.08
			c-1.478,0.094-2.984,0.347-4.492,0.645c0.414-10.761-0.905-21.85-1.304-32.672c-0.471-12.768-1.627-25.565-1.617-38.347
			c0.01-13.481-1.617-26.928-3.18-40.299c-0.665-5.688-1.199-11.484-2.052-17.17c2.313,1.329,4.905,2.411,6.909,3.232
			c-1.104,7.145,0.715,13.684,2.599,20.687c1.219,4.528,1.175,14.571,6.335,16.644c5.108,2.053,9.642-5.008,12.414-8.142
			c2.827-3.196,5.8-6.234,8.653-9.401c1.568-1.742,2.9-4.354,4.434-6.53c2.347,5.624,5.041,10.953,7.728,16.556
			c2.054,4.283,4.844,15.581,10.776,15.801c5.559,0.207,10.643-9.841,13.018-13.837c2.049-3.448,4.258-6.774,6.355-10.189
			c1.115-1.816,2.518-3.785,3.565-5.839c2.01,4.887,6.156,8.189,9.283,12.694c3.037,4.376,8.14,13.007,13.688,14.289
			c2.606,0.602,4.687-1.031,6.314-2.853c2.557-2.863,5.274-5.801,7.599-8.861c2.476-3.257,4.712-6.864,7.046-10.225
			c0.522-0.752,1.119-2.506,1.744-4.052c1.139,2.025,2.103,4.302,3.117,6.023c1.605,2.727,3.497,5.317,5.597,7.683
			c2.41,2.715,5.063,5.098,7.391,7.884c1.549,1.854,3.309,3.867,5.807,4.328c2.211,0.409,3.456-0.452,4.864-1.97
			c2.584-2.787,5.133-5.766,7.608-8.686c3.867-4.563,8.037-8.892,11.614-13.682c0.708,1.13,1.441,2.224,2.082,3.266
			c2.097,3.415,4.306,6.741,6.355,10.189c2.374,3.995,7.459,14.044,13.017,13.837c5.931-0.221,8.721-11.518,10.776-15.801
			c2.687-5.602,5.381-10.932,7.728-16.556c1.534,2.175,2.866,4.788,4.434,6.53c2.852,3.167,5.826,6.205,8.653,9.401
			c2.772,3.134,7.305,10.195,12.414,8.142c5.16-2.074,5.116-12.117,6.335-16.644c1.884-7.003,3.703-13.542,2.599-20.687
			c2.003-0.821,4.596-1.903,6.909-3.232c-0.852,5.687-1.387,11.482-2.052,17.17c-1.563,13.37-3.191,26.818-3.18,40.299
			c0.01,12.782-1.146,25.58-1.617,38.347C376.63,309.822,375.312,320.912,375.726,331.672z M329.606,306.432
			c0.97,1.139,1.816,2.363,2.536,3.671c0.948,1.451,1.976,2.924,2.714,4.493c1.053,2.237,1.296,5.177,4.027,5.953
			c2.157,0.613,3.676-0.644,5.268-1.907c1.501-1.191,2.814-2.631,4.255-3.896c1.561-1.37,4.922-2.819,5.915-4.429
			c0.092-0.071,0.184-0.142,0.276-0.213c0.4,0.692,0.846,1.387,0.985,1.667c1.648,3.324,2.912,6.736,4.351,10.145
			c2.469,5.852,4.857,11.962,6.488,18.19c-0.436,0.407-0.869,0.846-1.331,1.257c-3.159,2.806-6.044,5.612-9.894,7.477
			c-8.671,4.198-17.955,2.64-26.985,0.793c-3.772-0.771-4.946,4.206-1.55,5.623c2.058,0.859,4.186,1.555,6.352,2.089
			c-0.819,1.446-1.435,3.067-1.571,3.433c-1.292,3.483-3.748,7.914-4.361,11.954c-2.695,0.098-5.394,0.155-8.092,0.237
			c-1.577-0.207-3.164-0.349-4.759-0.437c-6.406-14.047-3.347-33.183,0.926-47.228c1.161-3.816,3.404-7.842,5.654-11.126
			c1.348-1.968,5.801-7.832,8.361-7.851C329.037,305.615,329.183,305.65,329.606,306.432z M335.443,364.12
			c0.441-1.541,1.525-3.928,1.675-5.98c1.902,0.269,3.82,0.411,5.737,0.396c0.461,2.088,1.696,4.207,2.496,5.961
			c1.091,2.395,1.975,4.923,3.527,6.995c-5.345,0.269-10.697,0.532-16.069,0.937C333.573,369.632,334.645,366.906,335.443,364.12z
			 M347.687,358.175c2.53-0.362,5.03-0.996,7.457-1.944c4.623-1.806,9.696-5.109,12.683-9.46c0.606,4.222,0.531,8.665,0.439,12.9
			c-0.07,3.282,0.44,7.134,0.163,10.52c-4.476,0.434-8.946,0.731-13.417,0.98c-0.271-2.918-2.983-5.963-4.438-8.35
			C349.692,361.371,348.783,359.676,347.687,358.175z M292.703,355.961c0.007-3.254-0.139-6.469-0.4-9.666
			c2.271,0.901,4.735,1.039,7.185,1.221c1.769,0.131,3.505,0.365,5.111,0.086c-0.377,3.643-0.561,7.301-0.409,10.951
			c0.176,4.212,0.955,9.413,2.603,13.899c-6.004,0.164-12.05,0.77-17.985,1.147c0.473-0.923,0.919-1.901,1.327-3.023
			C291.894,365.75,292.692,361.097,292.703,355.961z M290.7,333.778c0.893,0.032,1.788,0.047,2.686,0.043
			c0.782,0.089,1.552,0.155,2.262,0.238c3.581,0.414,7.31,0.495,10.946,0.617c-0.003,0.017-0.007,0.035-0.01,0.052
			c-0.365,1.902-0.712,3.817-1.026,5.74c-1.861-0.617-3.938-0.31-6.07-0.152c-2.613,0.194-5.24,0.343-7.635,1.418
			C291.541,339.079,291.154,336.431,290.7,333.778z M240.803,351.357c-1.707,2.825-4.954,7.058-5.443,10.411
			c-0.39,2.675,1.48,4.391,3.881,5.114c3.916,1.18,8.23,1.546,12.225,2.562c5.464,1.388,14.848,1.19,12.61-6.808
			c-1.071-3.828-2.733-7.41-3.903-11.203c-0.473-1.534-0.937-3.135-1.722-4.514c1.906-0.735,3.555-2.016,4.73-4.052
			c0.957-1.657-0.619-3.585-2.422-3.151c-6.065,1.458-12.686,0.811-18.135-2.398c-2.713-1.598-5.126-4.34-7.342-6.579
			c-2.143-2.165-3.422-4.809-5.577-6.874c0.456-0.915,0.918-1.826,1.423-2.71c2.172-3.806,4.666-7.658,7.165-11.253
			c2.102-3.023,4.31-7.029,6.947-9.774c0.054,0.049,0.1,0.095,0.166,0.148c0.677,0.878,1.424,1.691,2.242,2.44
			c1.173,1.09,2.234,1.946,3.296,3.14c1.63,1.833,3.793,5.13,6.191,5.947c3.034,1.035,4.938-1.51,6.937-3.258
			c2.204-1.927,4.85-3.482,7.005-5.452c0.78,0.833,1.508,1.709,2.171,2.638c1.095,1.271,2.166,2.382,3.004,3.844
			c2.093,3.651,3.437,8.458,4.649,12.454c2.704,8.916,4.43,18.663,4.637,27.98c0.13,5.85,0.096,11.149-1.529,16.823
			c-0.675,2.357-1.504,4.697-1.938,7.089c-10.33,0.397-20.532,0.852-30.885,0.41c-9.28-0.397-18.53,0.606-27.771,0.725
			c-0.996-2.082-0.791-8.064-0.913-9.573c-0.413-5.134-0.336-10.261,0.154-15.389c0.658-6.876,2.104-13.907,4.566-20.484
			c0.593,1.797,1.424,3.513,2.855,5.238c3.083,3.718,6.508,7.434,10.908,9.559c1.074,0.519,2.285,1.036,3.575,1.504
			C243.079,347.59,241.821,349.672,240.803,351.357z M246.883,351.601c0.671-1.413,1.563-2.935,1.845-4.466
			c1.192,0.265,2.401,0.454,3.596,0.539c0.418,1.689,1.505,3.36,2.029,4.965c1.072,3.288,2.318,6.388,3.495,9.629
			c0.142,0.517,0.309,1.027,0.488,1.532c-0.137,0.043-0.293,0.11-0.484,0.218c-1.641,0.228-3.225,0.064-4.754-0.491
			c-1.029-0.299-2.065-0.57-3.108-0.814c-1.006-0.245-5.887-0.839-8.007-1.325C243.275,358.051,245.401,354.722,246.883,351.601z
			 M207.147,345.406c1.385,0.325,2.826,0.439,4.11,0.077c0.033-0.009,0.359-0.162,0.664-0.304c0.103,0.02,0.221,0.041,0.373,0.064
			c1.322,0.198,2.79,0.112,4.132,0.064c-0.738,5.442-0.98,10.952-0.605,16.336c0.216,3.108,0.421,9.255,2.306,13.354
			c-0.888-0.029-1.777-0.046-2.665-0.102c-0.119-0.008-0.237-0.014-0.356-0.021c-3.346-1.15-6.751-1.301-10.286-1.395
			c1.922-4.7,2.796-10.391,2.985-14.924C207.989,354.169,207.692,349.774,207.147,345.406z M217.63,338.462
			c-0.329-0.106-0.682-0.186-1.082-0.198c-1.876-0.059-4.441-0.387-6.264,0.208c-0.943,0.307-1.404,0.707-2.396,0.895
			c-0.54,0.102-1.067,0.182-1.589,0.28c-0.277-1.647-0.573-3.289-0.885-4.92c-0.101-0.528-0.212-1.067-0.327-1.611
			c0.379-0.02,0.759-0.043,1.139-0.068c1.807,0.112,3.69-0.111,5.43-0.309c2.42-0.275,4.911,0.084,7.36,0.12
			C218.491,334.699,218.039,336.574,217.63,338.462z M143.729,359.671c-0.091-4.236-0.166-8.678,0.439-12.9
			c2.987,4.351,8.061,7.654,12.683,9.46c2.427,0.948,4.927,1.582,7.457,1.944c-1.096,1.501-2.005,3.197-2.888,4.647
			c-1.454,2.387-4.167,5.432-4.438,8.35c-4.471-0.25-8.941-0.547-13.417-0.98C143.29,366.805,143.8,362.953,143.729,359.671z
			 M166.647,364.498c0.799-1.755,2.035-3.873,2.496-5.961c1.917,0.015,3.835-0.128,5.737-0.396c0.15,2.052,1.234,4.439,1.675,5.98
			c0.798,2.786,1.869,5.511,2.636,8.31c-5.373-0.405-10.725-0.668-16.069-0.937C164.671,369.421,165.556,366.892,166.647,364.498z
			 M178.984,357.346c2.166-0.533,4.294-1.23,6.352-2.089c3.396-1.417,2.222-6.394-1.55-5.623c-9.03,1.847-18.315,3.405-26.985-0.793
			c-3.85-1.865-6.735-4.671-9.894-7.477c-0.463-0.411-0.895-0.85-1.331-1.257c1.631-6.229,4.019-12.338,6.488-18.19
			c1.439-3.41,2.702-6.821,4.351-10.145c0.139-0.28,0.585-0.975,0.985-1.667c0.092,0.071,0.184,0.142,0.276,0.213
			c0.993,1.61,4.355,3.059,5.916,4.429c1.44,1.265,2.754,2.705,4.255,3.896c1.592,1.263,3.111,2.52,5.268,1.907
			c2.731-0.776,2.974-3.716,4.027-5.953c0.738-1.569,1.766-3.042,2.714-4.493c0.721-1.308,1.566-2.532,2.536-3.671
			c0.423-0.782,0.569-0.817,0.437-0.105c2.56,0.018,7.013,5.883,8.361,7.851c2.25,3.284,4.493,7.31,5.654,11.126
			c4.334,14.247,7.44,33.743,0.664,47.84c-4.193-0.216-8.396-0.259-12.589-0.412c-0.613-4.04-3.069-8.471-4.361-11.954
			C180.419,360.412,179.804,358.791,178.984,357.346z M145.91,235.87c-0.527-0.999-0.455-3.006-0.713-4.113
			c-0.679-2.914-1.709-5.93-2.801-8.718c-1.993-5.088-3.798-10.311-5.055-15.652c0.041,0.018,0.096,0.041,0.135,0.059
			c5.312,2.464,11.145,3.633,16.796,5.117c3.673,0.965,7.351,1.824,11.056,2.557c-2.004,2.625-3.682,5.643-5.898,7.955
			c-2.553,2.664-5.062,5.314-7.522,8.065c-0.843,0.943-3.723,5.154-5.033,5.482C145.67,236.925,146.682,237.333,145.91,235.87z
			 M188.511,245.41c-1.751-1.392-3.582-7.296-4.137-8.581c-1.011-2.34-2.218-4.564-3.299-6.87
			c-2.116-4.518-4.252-8.765-6.124-13.285c9.982,1.259,20.138,1.983,30.19,2.538c-1.751,4.259-5.598,8.493-7.808,12.101
			c-1.431,2.337-2.772,4.727-4.222,7.052c-0.721,1.156-1.447,2.317-2.263,3.41C190.693,241.984,187.853,244.493,188.511,245.41z
			 M214.864,219.658c6.648,0.194,13.571,0.092,20.2-0.846c5.388,0.389,10.75,0.98,16.128,1.302
			c-0.895,1.945-1.743,3.429-3.205,5.318c-3.959,5.113-6.83,11.218-11.721,15.621c-2.563,2.307-4.567-1.335-6.397-3.47
			c-2.19-2.556-3.947-5.337-5.982-7.991c-1.856-2.421-4.462-3.849-6.375-6.249C216.579,222.172,215.826,220.817,214.864,219.658z
			 M262.345,220.45c6.615,0.054,13.173-0.093,19.84-0.327c5.122-0.179,10.162,0.263,15.181,0.294
			c-0.34,0.465-0.684,0.948-1.062,1.447c-2.16,2.848-4.598,5.572-6.954,8.265c-2.285,2.612-4.419,5.373-6.797,7.9
			c-1.076,1.143-2.352,2.175-3.277,3.453c-0.162,0.224-0.288,0.401-0.393,0.55c-3.831-4.4-8.492-8.228-11.806-13.028
			C265.302,226.432,263.946,223.315,262.345,220.45z M321.147,241.776c-0.816-1.093-1.542-2.254-2.263-3.41
			c-1.45-2.325-2.792-4.715-4.222-7.052c-2.129-3.477-5.762-7.536-7.591-11.638c0.923-0.173,1.846-0.389,2.771-0.643
			c9.074-0.534,18.207-1.224,27.202-2.359c-1.872,4.52-4.008,8.767-6.124,13.285c-1.08,2.306-2.288,4.53-3.299,6.87
			c-0.555,1.284-2.386,7.189-4.137,8.581C324.143,244.493,321.303,241.984,321.147,241.776z M365.12,236.623
			c-1.309-0.328-4.19-4.539-5.033-5.482c-2.461-2.751-4.969-5.401-7.522-8.065c-2.216-2.312-3.894-5.33-5.898-7.955
			c3.706-0.733,7.383-1.592,11.057-2.557c5.651-1.484,11.484-2.654,16.796-5.117c0.039-0.018,0.094-0.041,0.135-0.059
			c-1.258,5.341-3.062,10.563-5.055,15.652c-1.092,2.788-2.122,5.804-2.801,8.718c-0.258,1.108-0.186,3.115-0.713,4.113
			C365.314,237.333,366.326,236.925,365.12,236.623z M383.019,197.23c-2.259,1.328-4.562,2.275-7.071,3.057
			c-4.747,1.479-9.25,3.245-14.106,4.445c-11.178,2.762-22.205,4.954-33.678,6.072c-8.896,0.867-18.078,1.658-27.075,1.799
			c-1.174-0.087-2.352-0.152-3.533-0.21c-4.866-0.24-9.652-0.955-14.547-0.954c-2.253,0-4.491,0.18-6.732,0.361
			c-2.727-0.016-5.435,0.072-8.102,0.35c-4.657-0.077-9.4-0.194-14.046-0.376c-7.942-0.31-15.856-0.748-23.84-0.5
			c-5.086,0.158-9.867,0.675-14.891,1.31c-0.073,0.009-0.146,0.022-0.219,0.032c-0.155,0.002-0.311,0.006-0.465,0.007
			c-10.199,0.062-20.727-0.829-30.883-1.818c-11.474-1.118-22.501-3.31-33.678-6.072c-4.856-1.2-9.359-2.966-14.106-4.445
			c-2.509-0.781-4.812-1.729-7.071-3.057c-0.098-0.058-0.231-0.124-0.391-0.197c5.419-0.152,10.831-0.282,16.189-0.654
			c17.47-1.213,35.188-3.39,52.467-6.238c11.35-1.871,22.859-2.721,34.301-3.978c7.527-0.022,14.941,0.204,22.435,0.417
			c8.068,0.229,16.201-0.295,24.254,0.205c6.352,0.395,13.416,1.846,19.956,1.201c5.541,0.589,11.072,1.251,16.565,2.156
			c1.197,0.197,2.404,0.377,3.605,0.566c-1.825,2.292-3.295,4.707-3.843,7.215c-1.223,5.595,5.342,8.928,9.906,9.646
			c5.778,0.909,13.581,0.736,18.183-3.353c2.466-2.191,4.059-5.129,5.766-7.899c0.315-0.511,0.653-1.007,0.981-1.51
			c5.967,0.626,11.932,1.159,17.869,1.572c5.358,0.372,10.771,0.502,16.189,0.654C383.251,197.107,383.117,197.173,383.019,197.23z
			 M410.712,69.178c1.136-2.375,2.112-4.866,2.974-7.325c0.584-1.666,0.982-3.391,1.473-5.085c0.362-1.247,0.891-5.216,1.54-6.032
			c1.036-1.302,9.294,1.244,11.807,1.953c0.126,0.036,0.264,0.075,0.395,0.112c-4.18,5.942-8.584,11.797-12.84,17.736
			C414.28,70.078,412.499,69.616,410.712,69.178z M336.656,56.933c7.528-4.369,13.625-10.702,19.752-16.786
			c6.926-6.878,13.718-13.559,21.587-19.395c7.347-5.448,15.314-10.077,24.108-12.737c8.816-2.667,20.24-5.178,29.2-1.831
			c9.563,3.572,15.95,11.299,18.48,21.089c1.124,4.347,0.799,7.568-1.07,11.497c-1.006,2.116-2.566,4.373-3.7,6.677
			c-1.076-0.651-2.114-1.198-3.015-1.598c-3.139-1.393-5.603-0.31-7.652,1.649c-4.871-1.757-10.165-2.946-15.287-3.677
			c-3.268-0.467-6.558-0.202-8.661,2.633c-2.742,3.696-3.299,9.328-4.654,13.621c-0.981,3.108-2.568,5.997-3.201,9.158
			c-0.964-0.223-1.928-0.439-2.891-0.661c-5.85-3.175-14.325-3.804-20.397-4.85c-8.471-1.458-17.037-3.235-25.633-3.792
			c-6.014-0.39-12.021-0.476-18.034-0.397C335.964,57.326,336.324,57.126,336.656,56.933z M186.405,58.123
			c0.244-4.283,0.798-8.749,0.628-13.014c-0.07-1.743-0.485-3.467-0.557-5.216c-0.022-0.316-0.016-0.632-0.023-0.947
			c2.643,1.167,6.521,2.461,7.327,2.839c3.173,1.489,6.497,3.133,9.607,4.774c2.908,1.534,4.834,3.289,8.276,1.77
			c2.912-1.285,5.207-4.208,7.794-6.021c13.521-9.469,28.542-16.259,45.263-16.479c2.27-0.03,4.482,0.095,6.655,0.346
			c-1.336,1.144-2.517,2.419-3.368,3.327c-3.857,4.118-6.237,9.299-7.998,14.595c-0.811,2.439-1.328,3.439-4.108,2.899
			c-2.147-0.417-4.029-1.668-6.061-2.409c-4.473-1.632-9.225-2.331-13.99-2.437c-8.476-0.187-4.284,12.862-4.269,17.881
			c0.018,5.706-1.835,15.757,6.875,14.881c4.868-0.49,9.464-3.174,14.055-4.654c1.955-0.63,5.369-0.993,7.475-2.386
			c1.557,4.517,4.006,9.44,8.665,10.87c1.729,0.53,3.83-1.3,3.125-3.125c-1.411-3.652-3.646-6.91-5.032-10.591
			c-2.018-5.363-1.789-12.023-0.44-17.523c1.895-7.725,5.852-14.043,10.094-20.49c3.969,0.88,7.828,2.24,11.662,4.086
			c3.71,1.787,6.97,3.962,10.42,6.187c1.619,1.043,4.137,2.239,5.496,3.786c1.224,1.393,2.086,3.305,3.262,4.812
			c-3.484,3.641-7.578,6.503-11.524,9.696c-1.216,0.984-1.332,3.122-0.566,4.39c1.161,1.922,2.685,3.699,4.118,5.428
			c1.31,1.581,3.246,2.924,4.707,4.467c0.068,0.072-3.844,5.723-4.364,6.194c-0.01,0.009-0.018,0.015-0.025,0.021
			c-9.51,6.731-19.714,13.381-31.642,14.511c-12.015,1.138-23.415-0.778-34.853-4.58c-6.147-2.043-11.299-5.271-15.995-9.734
			c-2.169-2.062-4.348-4.117-6.511-6.185c-1.372-1.312-2.729-3.222-4.494-3.994c-3.734-1.633-8.175,2.521-11.087,4.329
			c-2.9,1.801-5.63,4.83-8.524,7.104c0.053-0.794,0.093-1.456,0.084-1.591c-0.11-1.667-0.399-3.311-0.492-4.983
			C185.831,66.619,186.159,62.444,186.405,58.123z M237.514,54.531c-0.031-0.426,0.064-3.658-0.03-5.708
			c1.229,0.285,2.596,0.181,3.84,0.321c3.512,0.396,6.811,1.904,10.308,2.33c2.391,0.291,4.84-1.087,5.992,1.78
			c0.641,1.595,1.281,6.399,0.536,8.04c-0.012,0.026-0.025,0.05-0.038,0.072c-1.263,2.082-6.997,2.691-9.136,3.492
			c-3.14,1.176-6.44,2.94-9.763,3.508c-1.793,0.307-1.159,0.626-1.564-0.391c-0.316-0.793,0.106-3.004,0.115-3.964
			C237.806,60.839,237.745,57.695,237.514,54.531z M83.489,52.688c2.513-0.709,10.772-3.255,11.807-1.953
			c0.649,0.816,1.178,4.785,1.54,6.032c0.492,1.695,0.889,3.419,1.473,5.085c0.862,2.459,1.837,4.95,2.974,7.325
			c-6.763,1.656-13.5,3.424-20.202,5.318c-0.238-1.858-0.736-3.735-1.187-5.507c-0.666-2.616-1.559-5.182-2.373-7.757
			c-0.424-1.342-0.995-2.646-1.405-3.986c-0.094-0.31-0.221-1.15-0.362-1.947C78.262,54.163,81.273,53.313,83.489,52.688z
			 M93.625,190.222c-3.335,0.811-6.658,1.669-9.994,2.477c-1.504,0.364-3.018,0.754-4.539,1.055
			c-1.442-5.89-2.881-12.291-4.339-18.204c-0.952-3.862-1.884-7.726-2.934-11.563c-0.245-0.896-0.503-1.647-0.654-2.379
			c1.957-0.878,3.768-2.311,5.616-3.345c4.182-2.342,8.429-4.743,12.387-7.452c3.254-2.227,6.575-4.614,9.633-7.098
			c2.138-1.737,4.266-3.882,4.083-6.841c-0.424-6.844-8.46-8.723-13.887-8.158c-4.213,0.438-8.302,1.661-12.45,2.456
			c-2.972,0.57-5.472,1.579-8.066,2.621c-0.021-0.44-0.059-0.9-0.056-1.291c0.02-2.952-0.715-5.303-2.157-7.88
			c-1.904-3.403-3.047-6.614-3.866-10.456c-0.917-4.301-1.47-8.718-1.913-13.091c-0.186-1.838-0.468-3.682-0.627-5.52
			c-0.192-2.208-0.569-1.689,1.379-2.746c6.836-3.71,14.996-6.035,22.417-8.245c7.765-2.312,15.339-5.278,23.121-7.492
			c4.859-1.382,9.816-2.673,14.793-3.852c1.708-0.109,3.38-0.323,4.867-0.477c6.752-0.701,13.383-2.267,20.151-2.947
			c5.336-0.536,10.679-1.041,16.024-1.37c5.188-0.319,10.845-0.455,16.088-1.257c0.097,3.699,0.604,7.391,0.517,11.07
			c-0.076,3.194-0.467,5.39,1.752,7.923c0.8,0.913,2.495,1.411,3.648,0.964c3.559-1.38,6.557-4.299,9.471-6.717
			c2.902-2.408,6.203-4.567,9.568-6.413c0.114,0.09,0.209,0.169,0.26,0.227c0.986,1.107,2.178,2.071,3.259,3.082
			c1.738,1.626,3.433,3.299,5.172,4.924c3.267,3.052,6.999,5.841,10.926,7.995c4.217,2.313,9.107,3.637,13.768,4.705
			c4.585,1.051,9.241,2.787,13.931,3.231c0.512,0.048,1.025,0.092,1.538,0.13c12.879,0.961,26.168-1.263,37.727-7.133
			c5.448-2.767,10.267-6.326,14.592-10.613c3.004-2.977,8.751-8.219,6.516-13.03c-0.606-1.304-2-2.468-3.253-3.54
			c5.232,1.497,11.396,0.866,16.669,0.992c8.435,0.201,16.752,1.235,25.153,1.856c9.043,0.669,17.926,2.319,26.833,3.987
			c4.111,0.77,8.217,1.599,12.278,2.597c2.91,0.715,5.561,1.503,8.386,1.551c2.619,0.682,5.227,1.383,7.803,2.116
			c1.669,0.475,3.326,0.993,4.98,1.524c-8.531,11.465-17.651,22.513-26.672,33.583c-6.125,7.516-12.297,15.024-18.462,22.544
			c-1.275-3.122-3.437-6.346-4.22-7.624c-2.527-4.125-5.954-7.793-8.206-12.042c-1.493-2.817-2.586-5.664-5.976-6.523
			c-2.142-0.542-5.098,0.421-5.604,2.895c-0.777,3.796-1.025,7.712-1.317,11.6c-0.292,0.938-0.568,1.88-0.797,2.835
			c-1.419,5.893-2.413,11.921-4.348,17.676c-2.019,6.002,7.342,8.078,8.797,2.675l0.052,0.145c0.484-2.588,0.839-5.2,1.122-7.822
			c1.97,0.035,4.043-0.328,5.528-0.622c1.936-0.384,4.427-0.267,6.526-0.804c0.472,0.85,0.929,1.7,1.347,2.547
			c0.357,0.725,0.953,1.311,1.654,1.715c-3.559,4.354-7.113,8.713-10.645,13.085c-5.932,7.343-12.194,14.766-17.667,22.434
			c-0.853,1.195-1.737,2.345-2.632,3.481c-0.158,0.021-0.315,0.062-0.473,0.126c-7.301-0.874-14.605-1.716-21.901-2.499
			c-13.101-1.405-26.82-2.344-40.105-2.073c-3.832-0.041-7.669-0.05-11.53,0.025c-1.352,0.026-2.69,0.079-4.033,0.122
			c-14.766-0.649-30.241,0.35-44.936,1.926c-15.078,1.618-30.195,3.443-45.233,5.412c-15.244,1.996-30.386,2.995-45.73,3.868
			C107.61,187.683,100.565,188.535,93.625,190.222z M78.286,139.541c-0.777-1.045-1.762-1.874-2.863-2.521
			c1.519-0.362,2.982-0.717,4.301-0.928c2.51-0.401,20.356-4.864,18.819,2.113c-0.473,2.144-5.495,4.559-7.2,5.83
			c-2.904,2.166-5.752,4.159-8.844,6.049c-3.109,1.902-6.331,3.676-9.468,5.571c0.455-0.676,0.929-1.317,1.352-1.864
			C77.755,149.433,82.515,145.231,78.286,139.541z M351.566,129.139c-1.639,0.366-3.216,0.949-4.793,1.517
			c-0.056,0.021-0.117,0.036-0.173,0.055c0.448-2.353,0.797-4.728,1.161-7.119c0.73,1.192,1.347,2.171,1.598,2.505
			C350.092,127.079,350.832,128.098,351.566,129.139z M99.511,203.834c-0.19-1.276-0.346-2.716-0.678-4.052
			c7.213-1.564,14.584-2.163,21.988-2.484c0.028,1.339-0.168,2.837-0.13,3.773c0.137,3.358,0.315,6.699,0.61,10.048
			c0.573,6.505,1.273,13.004,1.947,19.499c1.251,12.056,1.282,24.166,1.907,36.251c0.588,11.352,0.772,22.709,1.367,34.061
			c0.558,10.657,1.72,21.632,1.1,32.318c-1.705,0.293-3.408,0.612-5.067,0.986c-3.877,0.874-7.494,2.211-11.281,3.317
			c-0.291,0.085-0.573,0.166-0.858,0.249c1.289-11.633-0.317-24.202-1.036-35.709c-0.829-13.282-1.664-26.54-3.309-39.762
			c-1.633-13.124-3.047-26.251-4.654-39.375C100.639,216.604,100.456,210.163,99.511,203.834z M442.27,445.036
			c3.366,3.736,5.684,8.147,5.716,13.531c0.02,3.392,0.408,11.182-2.132,13.612c-2.106,2.015-6.786,3.087-9.531,4.051
			c-7.788,2.733-15.35,5.833-23.367,7.891c-8.221,2.11-16.558,3.84-24.864,5.579c-24.639,5.158-49.598,7.078-74.518,9.621
			c-3.895-0.485-8.056-0.316-11.693,0.088c-5.921,0.658-11.804,0.237-17.753,0.622c-5.676,0.367-11.39-0.312-17.038,0.199
			c-5.454,0.493-10.9,1.065-16.389,1.234c-10.091,0.31-20.311,1.223-30.363,0.36c-32.161-4.196-64.565-5.452-96.433-12.124
			c-8.306-1.739-16.643-3.468-24.864-5.579c-8.017-2.058-15.579-5.158-23.367-7.891c-2.745-0.963-7.425-2.036-9.531-4.051
			c-2.54-2.43-2.152-10.22-2.132-13.612c0.032-5.384,2.35-9.795,5.716-13.531c1.272,4.482,5.322,6.26,9.895,8.464
			c6.623,3.192,13.785,5.019,20.759,7.259c8.078,2.595,16.114,5.729,24.404,7.626c16.28,3.726,32.372,8.174,49.002,10.281
			c9.303,1.179,18.003,1.971,27.401,1.93c3.864-0.017,7.694,0.149,11.516,0.293c4.203,0.469,8.449,0.724,12.52,1.231
			c9.809,1.222,19.967,1.157,29.843,1.183c4.663,0.012,9.163,0.017,13.804-0.314c4.808-0.343,9.813-1.341,14.604-1.267
			c3.606,0.056,7.092-0.224,10.613-0.678c5.557-0.115,11.103-0.471,16.723-0.447c9.398,0.041,18.099-0.752,27.401-1.93
			c16.63-2.107,32.722-6.555,49.002-10.281c8.29-1.898,16.326-5.031,24.404-7.626c6.974-2.241,14.136-4.067,20.759-7.259
			C436.949,451.296,440.998,449.518,442.27,445.036z M80.903,380.932c0.229,0.102,0.458,0.203,0.69,0.305
			c7.274,3.185,14.93,5.435,22.634,7.372c15.825,3.98,31.729,8.141,48.079,9.234c16.851,1.127,33.65,2.796,50.538,2.839
			c0.046,0.01,0.092,0.017,0.138,0.027c4.921,1.071,10.176,1.322,15.198,1.86c5.477,0.587,11.173-0.002,16.68-0.013
			c6.429-0.012,12.806,0.673,19.247,0.633c10.232-0.063,20.514-0.667,30.681-0.617c5.699,0.028,11.478-0.293,17.157-0.692
			c2.369-0.167,4.926-0.564,7.371-1.199c16.833-0.053,33.578-1.716,50.374-2.839c16.35-1.093,32.255-5.255,48.079-9.234
			c7.704-1.937,15.359-4.187,22.634-7.372c0.232-0.102,0.461-0.204,0.69-0.305c-1.79,7.553-0.241,15.718,0.199,23.411
			c0.114,1.993,0.21,3.98,0.313,5.97c-1.27,0.448-2.66,0.831-3.685,1.311c-3.784,1.773-7.474,2.846-11.502,3.89
			c-6.842,1.772-13.464,3.953-20.426,5.342c-14.448,2.883-28.854,5.88-43.341,8.575c-7.075,1.316-14.246,1.796-21.324,3.006
			c-6.934,1.185-14.101,2.438-21.127,2.887c-6.773,0.433-13.507,0.844-20.273,1.327c-1.02,0.073-2.088,0.115-3.18,0.147
			c-11.016-0.972-22.157,0.087-33.087,0.928c-4.808,0.37-9.703,0.326-14.576,0.306c-5.374-1.415-11.773-1.007-17.016-1.381
			c-6.766-0.482-13.5-0.893-20.273-1.327c-7.026-0.449-14.193-1.702-21.127-2.887c-7.078-1.209-14.25-1.69-21.324-3.006
			c-14.487-2.694-28.893-5.691-43.341-8.575c-6.962-1.389-13.584-3.571-20.426-5.342c-4.028-1.043-7.718-2.116-11.502-3.89
			c-1.025-0.48-2.415-0.863-3.685-1.311c0.103-1.99,0.199-3.976,0.313-5.97C81.144,396.65,82.693,388.485,80.903,380.932z
			 M106.103,434.14c-1.492-3.286-3.185-6.39-4.209-9.861c1.797,0.464,3.583,0.902,5.329,1.316
			c7.561,1.791,15.193,2.901,22.804,4.404c-2.539,2.174-4.939,5.15-6.676,6.552c-4.468,3.604-8.354,8.04-11.882,12.611
			c-0.815-2.08-1.357-4.947-1.739-6.092C108.707,440.009,107.436,437.076,106.103,434.14z M106.284,452.387
			c-6.733-2.087-13.647-3.725-20.094-6.588c-1.805-0.802-3.555-1.749-5.334-2.606c-0.315-0.151-0.664-0.375-0.975-0.589
			c2.976-2.289,5.661-4.933,8.099-7.802c1.572-1.85,3.031-3.767,4.719-5.52c0.98-1.018,2.284-2.797,3.667-3.988
			c0.499,1.793,0.939,4.208,1.383,5.242c1.44,3.354,3.255,6.54,4.663,9.917C103.63,443.374,104.445,448.583,106.284,452.387z
			 M128.043,440.439c1.901-1.52,3.55-3.161,5.286-4.866c0.039-0.038,0.83-0.787,1.441-1.369c0.144,0.943,1.411,2.564,1.592,2.884
			c3.149,5.584,5.246,11.398,8.099,17.097c1.607,3.21,3.032,7.108,5.1,10.356c-2.28-0.504-4.561-0.995-6.85-1.437
			c-9.446-1.824-19.443-4.257-28.393-7.871C118.242,449.897,122.852,444.59,128.043,440.439z M145.671,441.84
			c-1.418-3.208-3.25-6.482-5.13-9.515c4.647,1.094,9.293,2.203,14.01,3.067c7.839,1.437,15.76,2.771,23.698,3.947
			c-2.323,1.752-4.661,3.438-6.864,5.443c-3.644,3.315-7.039,6.399-10.368,10.055c-2.097,2.303-4.033,4.745-6.02,7.126
			c-1.977-2.606-3.319-6.628-4.655-9.13C148.437,449.268,147.294,445.512,145.671,441.84z M175.165,449.88
			c1.962-1.737,3.672-3.457,5.868-4.928c0.674-0.452,2.62-1.365,3.685-2.286c0.293,0.343,0.612,0.664,0.744,0.829
			c1.801,2.237,3.762,4.151,5.378,6.577c4.792,7.195,10.737,12.914,16.157,19.539c0.515,0.63,1.054,1.491,1.635,2.419
			c-2.495-0.248-4.983-0.431-7.445-0.542c-4.535-0.206-9.052,0.004-13.583-0.359c-4.975-0.398-9.87-1.419-14.823-2.029
			c-4.58-0.564-9.104-1.451-13.613-2.426C164.377,460.913,169.287,455.084,175.165,449.88z M203.368,456.207
			c-3.263-3.621-5.868-7.624-8.745-11.539c-0.899-1.224-1.926-2.345-2.903-3.502c2.212,0.27,4.422,0.53,6.629,0.767
			c5.789,0.622,11.609,0.887,17.417,1.214c2.278,0.706,4.682,1.08,7.038,1.296c3.468,0.318,6.809,1.224,10.269,1.501
			c2.899,0.232,5.839,0.42,8.783,0.538c-3.322,2.877-6.774,5.38-9.943,8.507c-3.25,3.208-6.787,6.131-10.053,9.325
			c-1.994,1.95-3.492,4.211-5.086,6.4c-0.403-0.197-0.841-0.315-1.307-0.309c-0.028-0.117-0.06-0.251-0.102-0.428
			c-0.124-0.517-0.878-1.275-1.187-1.721c-0.629-0.908-1.177-1.879-1.895-2.724C209.535,462.291,206.232,459.385,203.368,456.207z
			 M231.253,465.521c3.221-2.823,6.155-5.967,9.367-8.776c1.914-1.673,8.21-7.566,10.437-7.436c1.929,0.113,3.951,2.243,5.508,3.288
			c2.17,1.457,4.516,2.735,6.624,4.271c3.85,2.805,7.458,4.927,11.629,7.242c3.863,2.143,7.305,4.771,11.027,7.094
			c0.604,0.377,1.224,0.739,1.84,1.104c-2.892,0.101-5.783,0.178-8.64,0.529c-9.095,1.116-17.863,1.407-27.033,1.453
			c-9.125,0.046-18.244-0.138-27.349-0.564c-0.724-0.034-1.464-0.051-2.196-0.078C225.967,471.006,229.287,467.245,231.253,465.521z
			 M287.24,462.94c-3.462-2.488-7.145-4.666-10.952-6.601c-4.52-2.297-8.383-5.338-12.645-8.071
			c-0.981-0.629-2.03-1.431-3.125-2.264c3.621-0.291,7.232-0.578,10.923-0.563c4.935,0.02,10.014-0.368,14.798-1.693
			c1.852-0.113,3.705-0.212,5.558-0.336c7.275-0.488,14.588-0.699,21.85-1.48c2.207-0.237,4.418-0.497,6.629-0.767
			c-0.976,1.158-2.004,2.278-2.903,3.502c-2.877,3.915-5.482,7.918-8.745,11.539c-2.863,3.178-6.167,6.084-8.917,9.325
			c-0.717,0.845-1.266,1.816-1.895,2.724c-0.14,0.202-0.371,0.471-0.594,0.749C293.887,466.998,290.402,465.213,287.24,462.94z
			 M305,469.612c5.42-6.625,11.365-12.344,16.157-19.539c1.616-2.427,3.577-4.341,5.379-6.577c0.132-0.164,0.451-0.486,0.744-0.829
			c1.065,0.921,3.01,1.834,3.685,2.286c2.196,1.471,3.906,3.191,5.868,4.928c5.878,5.203,10.787,11.032,15.996,16.795
			c-4.508,0.976-9.033,1.862-13.612,2.426c-4.953,0.61-9.847,1.631-14.823,2.029c-4.531,0.362-9.048,0.153-13.583,0.359
			c-2.345,0.106-4.714,0.281-7.091,0.512c-0.099-0.021-0.197-0.041-0.296-0.061C303.981,471.048,304.502,470.221,305,469.612z
			 M350.981,454.837c-3.329-3.656-6.724-6.739-10.368-10.055c-2.203-2.004-4.542-3.69-6.864-5.443
			c7.938-1.176,15.859-2.51,23.698-3.947c4.717-0.865,9.362-1.974,14.01-3.067c-1.88,3.033-3.713,6.307-5.13,9.515
			c-1.623,3.672-2.767,7.428-4.67,10.993c-1.336,2.502-2.678,6.524-4.655,9.13C355.014,459.582,353.078,457.139,350.981,454.837z
			 M367.535,454.184c2.853-5.699,4.95-11.513,8.099-17.097c0.18-0.32,1.448-1.941,1.592-2.884c0.611,0.582,1.402,1.331,1.441,1.369
			c1.736,1.705,3.386,3.346,5.286,4.866c5.191,4.151,9.801,9.458,13.724,14.793c-8.95,3.614-18.946,6.047-28.392,7.871
			c-2.289,0.442-4.571,0.932-6.851,1.437C364.503,461.292,365.928,457.394,367.535,454.184z M388.645,436.55
			c-1.737-1.401-4.137-4.377-6.676-6.552c7.611-1.502,15.244-2.613,22.804-4.404c1.746-0.414,3.532-0.851,5.329-1.316
			c-1.025,3.471-2.717,6.575-4.209,9.861c-1.333,2.936-2.604,5.869-3.627,8.929c-0.383,1.145-0.924,4.012-1.739,6.092
			C396.999,444.59,393.113,440.154,388.645,436.55z M409.584,440.453c1.408-3.377,3.223-6.563,4.663-9.917
			c0.444-1.034,0.884-3.449,1.383-5.242c1.383,1.191,2.687,2.97,3.667,3.988c1.688,1.753,3.147,3.67,4.719,5.52
			c2.438,2.869,5.124,5.513,8.099,7.802c-0.311,0.214-0.66,0.437-0.975,0.589c-1.779,0.857-3.529,1.805-5.334,2.606
			c-6.447,2.863-13.361,4.501-20.094,6.588C407.551,448.583,408.366,443.374,409.584,440.453z M426.011,428.144
			c-1.475-1.865-3.531-4.691-5.845-6.847c1.404-0.485,2.787-0.994,4.124-1.54c1.988-0.813,5.085-2.08,7.612-3.798
			c0.21,4.166,0.422,8.33,0.669,12.501c0.137,2.303,0.517,4.499,0.506,6.83c-0.003,0.551,0.076,1.415,0.144,2.352
			C430.863,434.452,428.49,431.279,426.011,428.144z M87.706,419.756c1.337,0.547,2.72,1.055,4.124,1.54
			c-2.314,2.156-4.37,4.981-5.845,6.847c-2.48,3.136-4.853,6.309-7.21,9.498c0.069-0.937,0.147-1.801,0.144-2.352
			c-0.011-2.331,0.369-4.527,0.506-6.83c0.247-4.171,0.459-8.336,0.669-12.501C82.622,417.676,85.718,418.944,87.706,419.756z
			 M414.255,347.898c3.388,1.481,6.684,3.179,10.066,4.678c3.97,1.76,7.931,3.837,8.672,8.499c0.706,4.441,0.309,8.085-3.821,10.071
			c-7.327,3.525-15.132,6.11-22.918,8.447c-8.28,2.485-17.057,5.25-25.581,6.663c-8.861,1.469-17.735,2.409-26.602,3.701
			c-13.976,2.037-28.082,2.466-42.113,3.695c-2.873-0.685-5.709-0.32-8.773-0.03c-5.725,0.541-11.768,0.368-17.531,0.382
			c-10.49,0.025-20.997,0.572-31.547,0.645c-6.108,0.043-12.155-0.592-18.247-0.619c-5.672-0.025-11.459,0.536-17.115,0.118
			c-6.935-0.513-13.488-1.54-19.928-0.602c-13.628-1.15-27.321-1.61-40.892-3.588c-8.867-1.292-17.741-2.232-26.602-3.701
			c-8.524-1.413-17.301-4.178-25.581-6.663c-7.786-2.337-15.592-4.922-22.918-8.447c-4.131-1.987-4.527-5.63-3.821-10.071
			c0.741-4.662,4.702-6.739,8.672-8.499c3.383-1.499,6.678-3.198,10.066-4.678c4.262-1.863,8.893-2.554,13.436-3.394
			c5.946-1.099,11.776-2.598,17.551-4.292c1.061-0.004,2.123-0.013,3.185-0.067c2.247-0.114,4.392-0.557,6.556-0.983
			c-0.29,1.264-0.539,2.529-0.762,3.792c-3.709-0.451-6.718,0.831-10.305,1.746c-1.254,0.32-3.295,0.859-4.889,1.759
			c-2.653,0.601-5.207,1.319-7.456,1.969c-5.876,1.698-12.647,2.769-17.873,6.191c-4.152,2.719-5.578,7.973-1.646,11.653
			c4.215,3.945,12.851,5.816,18.351,6.486c8.501,1.036,16.945,3.401,25.491,4.608c8.702,1.228,17.449,2.186,26.24,2.404
			c8.198,0.204,16.353,0.566,24.557,0.498c2.084-0.017,4.178-0.05,6.275-0.084c5.807,1.391,12.188,1.784,17.515,2.146
			c12.08,0.82,24.116-0.16,36.239,0.452c11.18,0.564,22.071,0.58,33.245,0.277c6.436-0.174,12.807-0.888,19.257-0.896
			c6.779-0.008,13.193-0.275,19.808-1.764c0.146-0.033,0.277-0.085,0.41-0.135c7.83,0.029,15.62-0.3,23.449-0.494
			c8.792-0.218,17.538-1.176,26.24-2.404c8.546-1.207,16.991-3.572,25.491-4.608c5.5-0.67,14.136-2.541,18.351-6.486
			c3.933-3.68,2.507-8.934-1.646-11.653c-5.227-3.422-11.997-4.492-17.873-6.191c-2.252-0.651-4.809-1.37-7.465-1.971
			c-0.155-0.16-0.336-0.302-0.547-0.415c-2.743-1.47-6.552-2.102-9.669-2.278c-1.318-0.074-3.149-0.028-4.785,0.365
			c-0.259-1.653-0.566-3.31-0.946-4.966c2.164,0.426,4.31,0.869,6.556,0.983c1.062,0.054,2.124,0.063,3.185,0.067
			c5.775,1.694,11.605,3.193,17.551,4.292C405.362,345.344,409.993,346.035,414.255,347.898z M138.283,369.607
			c-1.31-0.163-2.621-0.321-3.933-0.516c-6.321-0.94-12.57-2.666-18.902-3.29c-3.272-0.323-6.287-1.036-9.411-2.036
			c-2.553-0.817-8.953-2.553-4.337-5.165c5.256-2.974,11.506-4.561,17.318-6.031c4.761-1.204,9.85-1.741,14.503-3.419
			c1.205-0.009,2.373-0.056,3.447-0.36c-0.014,0.163-0.035,0.327-0.045,0.489C136.561,355.119,136.129,363.401,138.283,369.607z
			 M375.12,350.038c1.068,0.199,2.202,0.271,3.231,0.436c2.94,0.469,5.521,1.34,8.232,0.744c2.152,0.424,4.306,0.823,6.396,1.352
			c5.812,1.47,12.062,3.056,17.318,6.031c4.616,2.612-1.784,4.348-4.337,5.165c-3.124,0.999-6.139,1.713-9.411,2.036
			c-6.332,0.625-12.581,2.35-18.902,3.29c-1.312,0.195-2.622,0.353-3.933,0.516C375.776,363.663,375.467,355.821,375.12,350.038z
			 M412.485,203.834c-0.945,6.329-1.128,12.771-1.905,19.121c-1.607,13.124-3.021,26.251-4.654,39.375
			c-1.645,13.222-2.48,26.48-3.31,39.762c-0.719,11.507-2.325,24.077-1.036,35.709c-0.285-0.083-0.567-0.164-0.858-0.249
			c-3.787-1.107-7.404-2.443-11.281-3.317c-1.659-0.374-3.362-0.693-5.067-0.986c-0.62-10.686,0.542-21.661,1.1-32.318
			c0.594-11.352,0.779-22.709,1.367-34.061c0.625-12.085,0.656-24.195,1.907-36.251c0.674-6.496,1.374-12.994,1.947-19.499
			c0.295-3.348,0.473-6.69,0.61-10.048c0.038-0.936-0.157-2.434-0.13-3.773c7.403,0.321,14.774,0.92,21.988,2.484
			C412.831,201.118,412.675,202.558,412.485,203.834z M452.133,95.552c-0.159,1.838-0.441,3.682-0.627,5.52
			c-0.443,4.373-0.996,8.79-1.913,13.091c-0.819,3.842-1.962,7.053-3.866,10.456c-1.442,2.577-2.177,4.929-2.157,7.88
			c0.003,0.391-0.035,0.851-0.056,1.291c-2.594-1.042-5.094-2.051-8.066-2.621c-4.149-0.796-8.237-2.018-12.45-2.456
			c-5.427-0.564-13.462,1.314-13.887,8.158c-0.184,2.96,1.945,5.105,4.083,6.841c3.058,2.484,6.379,4.871,9.633,7.098
			c3.958,2.709,8.205,5.11,12.387,7.452c1.848,1.035,3.659,2.467,5.616,3.345c-0.151,0.732-0.409,1.483-0.654,2.379
			c-1.05,3.837-1.981,7.701-2.934,11.563c-1.458,5.914-2.897,12.314-4.339,18.204c-1.521-0.3-3.035-0.69-4.539-1.055
			c-3.336-0.808-6.659-1.666-9.994-2.477c-6.94-1.687-13.985-2.539-21.109-2.944c-13.569-0.771-26.981-1.645-40.445-3.217
			c9.362-13.722,20.338-26.142,30.183-39.471c9.7-13.132,18.991-26.803,29.952-38.858c4.476-4.923,8.953-10.64,12.925-16.005
			c0.937-1.266,1.808-2.583,2.671-3.907c6.206,1.869,12.643,3.967,18.206,6.987C452.702,93.863,452.325,93.344,452.133,95.552z
			 M437.613,153.791c0.423,0.547,0.897,1.188,1.352,1.864c-3.136-1.896-6.359-3.67-9.468-5.571c-3.091-1.891-5.94-3.884-8.844-6.049
			c-1.705-1.271-6.728-3.686-7.2-5.83c-1.537-6.976,16.308-2.514,18.819-2.113c1.319,0.211,2.782,0.566,4.301,0.928
			c-1.101,0.647-2.086,1.476-2.863,2.521C429.481,145.231,434.241,149.433,437.613,153.791z"/>
	</g>
</g>
<g>
	<g>
		<path d="M285.006,45.462c-0.314-0.242-0.628-0.485-0.941-0.727c-0.534-0.34-1.111-0.524-1.73-0.552
			c-0.992-0.133-2.1-0.006-2.967,0.552c-1.727,1.113-2.721,3.212-2.138,5.254c0.01,0.032,0.019,0.065,0.028,0.098
			c0.043,0.215,0.088,0.429,0.147,0.621c0.256,0.832,0.681,1.629,1.291,2.258c0.678,0.699,1.297,0.966,2.181,1.333
			c0.383,0.051,0.766,0.103,1.149,0.154c0.595,0.022,1.15-0.102,1.665-0.372c0.922-0.389,1.474-0.956,2.066-1.768
			c0.62-0.851,0.85-1.972,0.878-3C286.674,47.846,285.955,46.52,285.006,45.462z"/>
	</g>
</g>
<g>
	<g>
		<path d="M172.941,122.584c-1.718-6.531-6.114-11.509-12.979-12.33c-4.526-0.542-12.396,0.574-12.897,6.451
			c-0.016,0.182,0.008,0.368,0.052,0.551c-1.205,4.053-0.59,10.126-0.795,12.956c-0.313,4.324-0.253,8.599-0.292,12.926
			c-0.026,2.809-0.471,5.471,1.183,7.912c1.777,2.624,6.584,3.071,7.498-0.678c0.771-3.164,0.199-6.501-0.129-9.724
			c0.413-0.022,0.831-0.063,1.255-0.136c3.324-0.572,7.178-1.347,10.14-3.021C171.377,134.44,174.564,128.751,172.941,122.584z
			 M154.064,132.108c-0.093-2.383-0.181-4.766-0.358-7.146c-0.038-0.513-0.193-3.64-0.735-6.5c1.069-0.278,2.148-0.56,3.294-0.55
			c4.43,0.041,8.331,2.317,8.643,7.236C165.239,130.37,159.011,130.822,154.064,132.108z"/>
	</g>
</g>
<g>
	<g>
		<path d="M197.535,143.223c-4.475-0.845-8.909,0.096-13.354,0.103c0.072-1.752,0.347-4.818,0.324-5.396
			c-0.016-0.391-0.055-0.775-0.088-1.162c0.027-0.237,0.051-0.472,0.072-0.705c1.908,0.21,3.891-0.088,5.79-0.044
			c2.902,0.069,6.514,0.808,8.786-1.49c1.931-1.954,1.199-4.983-1.323-5.958c-2.482-0.959-5.635-0.306-8.156,0.167
			c-1.618,0.304-3.293,0.749-4.932,1.297c-0.012-1.423-0.021-2.847,0.064-4.288c0.069-1.172-0.174-2.637-0.269-3.978
			c4.609-0.612,9.368,0.542,13.445-2.55c1.538-1.167,0.868-3.348-0.385-4.333c-3.037-2.388-5.594-1.608-9.287-1.115
			c-2.611,0.349-5.853,0.158-8.319,1.058c-1.823,0.666-2.686,1.745-3,3.633c-0.375,2.255,0.168,4.696,0.145,6.981
			c-0.034,3.325,0.16,6.597,0.298,9.912c0.007,0.156,0.007,0.529,0.013,1.018c-0.617,3.992-2.114,9.064-0.477,12.494
			c1.577,3.307,5.206,3.127,8.315,3.01c4.204-0.158,9.099,0.551,13.018-1.146C201.266,149.41,200.967,143.871,197.535,143.223z"/>
	</g>
</g>
<g>
	<g>
		<path d="M225.341,138.032c-1.008-4.389-5.354-7.552-9.244-9.345c-0.894-0.412-4.165-1.054-4.593-2.031
			c-0.783-1.789,2.851-3.95,3.915-4.71c2.313-1.652,5.111-2.288,7.017-4.442c0.454-0.514,0.582-1.261,0.071-1.805
			c-6.68-7.121-20.693,3.946-19.298,12.206c0.864,5.11,5.698,6.305,9.688,8.194c2.689,1.273,7.25,5.692,1.883,7.392
			c-1.939,0.614-4.174-0.831-6.173-0.991c-1.388-0.111-2.74,0.92-3.157,2.212c-0.05,0.155-0.101,0.311-0.151,0.466
			c-0.403,1.25-0.113,2.786,0.83,3.732C213.653,156.452,227.684,148.237,225.341,138.032z"/>
	</g>
</g>
<g>
	<g>
		<path d="M247.238,143.451c-4.358,0.837-12.11-2.057-11.617-7.21c0.413-4.328,3.577-6.909,6.895-9.145
			c0.164-0.04,0.317-0.097,0.486-0.13c1.269-0.249,4.305-0.441,5.022-0.309c2.151,0.396,5.139-1.225,4.207-3.887
			c-0.006,0.074-0.01,0.132-0.016,0.201c-0.13-0.55-0.22-1.144-0.512-1.642c-0.883-1.504-2.645-2.169-4.302-2.394
			c-3.534-0.48-7.478,0.505-10.575,2.183c-2.827,1.532-4.505,3.627-5.928,6.223c-1.856,2.555-3.065,5.545-3.435,8.765
			c-1.1,9.582,10.398,15.988,18.781,15.672c3.449-0.13,8.988-1.542,8.661-6.009C254.574,141.246,250.016,142.918,247.238,143.451z"
			/>
	</g>
</g>
<g>
	<g>
		<path d="M287.542,140.969c-2.862-6.791-6.098-14.1-9.8-20.482c-1.388-2.394-3.435-5.127-5.288-7.19
			c-1.376-1.532-3.159-2.312-5.242-1.712c-3.92,1.131-4.963,6.916-5.707,10.283c-1.437,6.508-3.202,12.87-3.928,19.525
			c-0.219,2.008-0.34,4.113,0.435,5.978c0.776,1.864,2.706,3.398,4.699,3.072c1.811-0.296,3.107-2.006,3.579-3.779
			c0.472-1.773,0.309-3.643,0.32-5.478c0.003-0.551,0.045-1.157,0.426-1.555c0.215-0.225,0.512-0.351,0.802-0.465
			c2.217-0.874,4.681-1.414,6.979-0.784c3.726,1.022,3.95,4.706,6.061,7.319C284.006,149.573,289.246,145.011,287.542,140.969z
			 M269.527,132.207c-0.661,0.147-1.333,0.279-2.006,0.414c0.788-2.872,1.428-5.812,2.204-8.672
			c1.361,2.403,2.486,4.939,3.581,7.489C272.067,131.631,270.824,131.917,269.527,132.207z"/>
	</g>
</g>
<g>
	<g>
		<path d="M318.067,144.189c-1.691-3.551-6.342-6.114-9.212-8.673c-0.777-0.693-1.525-1.33-2.267-1.936
			c2.773-1.461,5.156-3.671,7.05-7.009c3.934-6.931-2.16-12.665-8.549-14.828c-4.683-1.586-11.955-0.654-15.042,3.64
			c-1.919,2.669-1.031,5.092-0.437,8.059c0.018,0.088,0.038,0.179,0.056,0.268c-0.129,2.274-0.047,4.582-0.091,6.699
			c-0.104,5.051-1.21,10.885,1.506,15.356c1.51,2.485,5.437,2.388,6.37-0.577c0.765-2.433,0.737-5.02,0.479-7.617
			c3.152,1.902,5.689,4.424,8.61,6.905c2.513,2.135,4.839,4.853,8.393,4.705C317.535,149.073,319.231,146.634,318.067,144.189z
			 M296.791,127.679c-0.194-2.041-0.439-4.154-0.886-6.181c0.174-1.007,0.465-1.831,0.961-2.271c2.395-2.12,8.441-0.209,9.576,2.27
			C308.422,125.822,300.205,127.333,296.791,127.679z"/>
	</g>
</g>
<g>
	<g>
		<path d="M330.976,140.269c-0.737-3.251-0.749-6.859-1.164-10.126c-0.643-5.053-0.773-10.144-1.544-15.183
			c-0.661-4.327-7.796-3.665-7.704,0.733c0.036,1.737,0.095,3.535,0.229,5.337c0.116,3.948,0.156,7.897,0.413,11.843
			c0.271,4.17-0.52,8.31,1.322,12.178C325.586,151.473,334.034,144.611,330.976,140.269z"/>
	</g>
</g>
<g>
</g>
<g>
</g>
<g>
</g>
<g>
</g>
<g>
</g>
<g>
</g>
<g>
</g>
<g>
</g>
<g>
</g>
<g>
</g>
<g>
</g>
<g>
</g>
<g>
</g>
<g>
</g>
<g>
</g>
</svg>
