<?xml version="1.0" encoding="iso-8859-1"?>
<!-- Generator: Adobe Illustrator 19.0.0, SVG Export Plug-In . SVG Version: 6.00 Build 0)  -->
<svg version="1.1" id="Layer_1" xmlns="http://www.w3.org/2000/svg" xmlns:xlink="http://www.w3.org/1999/xlink" x="0px" y="0px"
	 viewBox="0 0 512 512" style="enable-background:new 0 0 512 512;" xml:space="preserve">
<g>
	<g>
		<path d="M507.946,108.778c-3.852-11.192-9.686-22.159-16.782-31.634c-3.323-4.438-7.185-8.531-11.505-12.016
			c-3.58-2.888-7.421-6.62-12.089-7.18c-2.956-0.355-4.758,3.529-3.336,5.814c0.131,0.21,0.263,0.415,0.395,0.623
			c0.056,0.598,0.281,1.206,0.732,1.768c16.163,20.188,14.111,49.588-5.193,66.635c-8.542,7.543-19.975,8.727-30.835,6.659
			c-10.129-1.928-19.595-4.734-28.661-9.684c-10.245-5.593-18.13-15.102-26.698-22.824c-7.391-6.661-13.814-14.349-21.861-20.264
			c-8.653-6.36-16.972-12.389-26.421-17.513c-9.448-5.123-19.885-8.62-30.531-10.023c-9.806-1.292-21.216-0.962-30.339,3.219
			c-3.125,1.432-6.87,3.526-8.821,6.44c-1.952-2.913-5.696-5.008-8.821-6.44c-9.123-4.181-20.533-4.511-30.339-3.219
			c-10.646,1.403-21.083,4.9-30.531,10.023c-9.449,5.124-17.768,11.153-26.421,17.513c-8.047,5.915-14.47,13.603-21.861,20.264
			c-8.569,7.723-16.453,17.231-26.698,22.824c-9.065,4.949-18.532,7.756-28.661,9.684c-10.86,2.067-22.293,0.884-30.835-6.659
			C32.53,115.741,30.478,86.34,46.641,66.153c0.451-0.563,0.676-1.17,0.732-1.768c0.131-0.208,0.264-0.414,0.394-0.623
			c1.422-2.285-0.38-6.169-3.336-5.814c-4.668,0.561-8.509,4.292-12.09,7.18c-4.319,3.484-8.181,7.578-11.504,12.016
			C13.74,86.619,7.906,97.586,4.054,108.778c-3.747,10.888-5.654,22.924-2.368,34.175c1.623,5.556,4.418,10.679,7.905,15.274
			c2.338,3.081,5.343,5.569,7.998,8.3c-0.248,1-0.334,2.203-0.494,3.109c-0.37,2.09-0.645,4.289-0.642,6.41
			c0.004,4.165,1.254,8.167,3.599,11.604c4.165,6.104,11.318,9.508,18.42,10.801c3.614,0.658,7.309,0.947,10.979,0.811
			c4.734-0.175,10.416-2.613,14.97-1.58c3.948,0.895,6.307,5.919,10.04,7.917c4.378,2.345,9.38,3.497,14.334,3.476
			c10.364-0.045,18.601-5.52,27.992-8.959c3.273-1.199,3.68-1.162,6.498,0.498c1.833,1.08,3.766,1.865,5.849,2.32
			c5.271,1.152,10.934,0.604,16.045-1.047c10.095-3.259,17.447-10.049,25.319-16.781c2.198-1.88,3.665-3.352,6.733-3.019
			c2.65,0.287,5.207,1.129,7.887,1.352c5.411,0.45,10.974-0.195,16.222-1.538c19.118-4.891,36.968-19.171,45.245-37.403
			c2.802-3.19,5.435-6.5,7.422-10.326c0.653-1.257,1.239-2.552,2.005-3.747c0.3-0.505,0.622-0.998,0.964-1.476
			c0.887-1.161,1.055-1.282,0.502-0.362c2.063,1.314,3.823,6.756,5.131,8.825c0.102,0.16,0.202,0.327,0.303,0.491
			c6.604,21.334,26.38,38.531,47.748,43.998c5.248,1.343,10.811,1.988,16.222,1.538c2.68-0.223,5.237-1.065,7.887-1.352
			c3.068-0.333,4.534,1.139,6.733,3.019c7.873,6.732,15.224,13.522,25.319,16.781c5.112,1.651,10.775,2.198,16.045,1.047
			c2.084-0.455,4.016-1.24,5.849-2.32c2.818-1.659,3.224-1.697,6.498-0.498c9.39,3.439,17.627,8.915,27.992,8.959
			c4.954,0.021,9.956-1.132,14.334-3.476c3.733-1.999,6.092-7.022,10.04-7.917c4.554-1.033,10.237,1.405,14.97,1.58
			c3.67,0.135,7.365-0.154,10.979-0.811c7.102-1.293,14.256-4.697,18.42-10.801c2.345-3.437,3.594-7.439,3.6-11.604
			c0.002-2.121-0.272-4.321-0.643-6.41c-0.16-0.906-0.246-2.109-0.494-3.109c2.655-2.731,5.661-5.219,7.998-8.3
			c3.487-4.595,6.282-9.718,7.905-15.274C513.599,131.702,511.693,119.667,507.946,108.778z M498.603,145.697
			c-3.363,5.59-8.078,9.532-12.993,13.642c-1.805,1.51-3.414,3.233-3.44,5.741c-0.029,2.802,2.154,4.746,2.999,7.24
			c4.023,11.885-8.601,17.176-18.104,17.717c-5.502,0.313-10.827-0.918-16.296-1.001c-6.353-0.095-9.289,2.223-13.732,6.207
			c-10.438,9.359-25.232,0.542-35.887-3.432c-2.984-1.113-6.554-2.501-9.808-2.365c-2.889,0.121-5.096,1.789-7.691,2.771
			c-6.234,2.359-13.554-0.342-19.073-3.393c-10.103-5.584-18.761-19.256-31.533-16.465c-14.388,3.144-27.507-0.828-39.41-9.427
			c-5.803-4.192-10.563-9.385-15.081-14.812c-0.918-3.696-3.194-7.379-5.092-10.591c-2.458-4.16-4.563-8.536-7.042-12.666
			c-3.892-6.484-10.264-9.961-16.191-3.525c-2.548,2.767-4.052,6.156-5.671,9.496c-2.078,4.287-5.321,8.096-8.113,11.962
			c-2.92,4.044-5.871,8.024-8.902,11.987c-0.017,0.022-0.032,0.044-0.049,0.066c-2.801,2.927-5.793,5.671-9.132,8.083
			c-11.903,8.599-25.021,12.571-39.41,9.427c-12.771-2.791-21.43,10.881-31.533,16.465c-5.519,3.051-12.839,5.752-19.074,3.393
			c-2.595-0.982-4.802-2.65-7.69-2.771c-3.254-0.136-6.824,1.252-9.808,2.365c-10.655,3.974-25.449,12.792-35.887,3.432
			c-4.443-3.984-7.378-6.302-13.732-6.207c-5.468,0.082-10.793,1.314-16.296,1.001c-9.502-0.542-22.126-5.832-18.103-17.717
			c0.844-2.494,3.028-4.438,2.999-7.24c-0.026-2.508-1.635-4.231-3.44-5.741c-4.914-4.11-9.629-8.052-12.993-13.642
			c-8.436-14.023-4.258-31.54,2.253-45.492c3.237-6.936,7.368-13.904,12.249-19.816c1.39-1.684,2.886-3.287,4.45-4.819
			c-0.238,0.61-0.473,1.222-0.678,1.852c-0.323,0.989-0.589,1.977-0.83,2.964c-1.234,2.811-2.368,5.653-3.414,8.467
			c-3.946,10.61-3.106,21.863,1.066,32.36c8.1,20.383,27.54,32.603,49.256,31.037c10.687-0.771,22.375-3.733,31.984-8.42
			c10.171-4.961,18.685-11.405,26.934-19.189c15.913-15.017,29.523-32.753,49.118-43.348c11.497-6.216,23.002-11.623,36.247-12.638
			c4.068-0.312,8.375-0.289,12.576,0.193c2.204,1.131,4.402,2.278,6.61,3.342c2.328,1.123,4.8,1.993,6.985,3.38
			c1.966,1.249,3.546,2.799,5.925,3.232c4.383,0.798,7.269-1.968,10.406-4.506c1.78-1.44,3.821-2.844,5.942-4.163
			c6.204-1.633,13.137-1.966,19.491-1.479c13.246,1.015,24.751,6.422,36.247,12.638c19.596,10.594,33.205,28.331,49.119,43.348
			c8.248,7.784,16.763,14.228,26.934,19.189c9.609,4.687,21.297,7.649,31.984,8.42c21.716,1.567,41.156-10.654,49.256-31.037
			c4.171-10.497,5.012-21.75,1.066-32.36c-1.046-2.814-2.18-5.656-3.414-8.467c-0.241-0.988-0.508-1.976-0.83-2.964
			c-0.205-0.63-0.441-1.241-0.678-1.852c1.564,1.532,3.06,3.135,4.45,4.819c4.881,5.912,9.012,12.88,12.249,19.816
			C502.861,114.157,507.039,131.673,498.603,145.697z"/>
	</g>
</g>
<g>
	<g>
		<path d="M468.479,237.872c-3.75-2.146-8.696-2.384-12.893-3.097c-4.531-0.77-9.022-1.667-13.579-2.268
			c-10.057-1.326-20.105-2.721-30.146-4.165c-9.178-1.32-17.922-4.453-26.786-7.068c-9.955-2.937-19.199-5.948-28.703-10.142
			c-9.42-4.157-18.893-8.102-28.002-12.937c-6.664-3.537-13.519-8.455-21.379-8.266c-9.098,0.219-18.435,4.588-26.742,7.949
			c-4.508,1.823-8.317,2.854-13.088,3.56c-2.749,0.406-5.445,1.168-8.156,1.739c-2.71-0.572-5.407-1.333-8.155-1.739
			c-4.771-0.705-8.58-1.736-13.088-3.56c-8.307-3.36-17.644-7.73-26.742-7.949c-7.861-0.189-14.715,4.729-21.379,8.266
			c-9.109,4.834-18.582,8.779-28.002,12.937c-9.503,4.194-18.747,7.205-28.703,10.142c-8.865,2.615-17.608,5.747-26.786,7.068
			c-10.041,1.444-20.088,2.839-30.146,4.165c-4.557,0.601-9.048,1.499-13.579,2.268c-4.198,0.713-9.143,0.951-12.894,3.097
			c-2.675,1.53-2.603,4.567-0.969,6.52c0.118,0.25,0.257,0.471,0.412,0.667c1.605,3.197,2.495,7.178,3.635,10.513
			c1.535,4.488,2.698,9.094,4.498,13.487c3.825,9.335,9.294,18.142,14.087,27.013c9.726,18,20.135,35.732,30.425,53.421
			c20.019,34.414,45.268,67.056,81.672,85.125c5.339,2.65,11.131,4.887,17.023,6.756c2.948,1.134,5.795,2.12,8.24,3.036
			c13.119,4.917,26.393,6.809,40.136,8.767c12.917,1.84,27.901,0.689,40.637-1.99c7.202-1.515,14.384-2.995,21.24-5.708
			c4.579-1.813,9.046-3.434,12.964-6.089c3.86-1.418,7.624-3.003,11.186-4.771c36.405-18.069,61.654-50.711,81.672-85.125
			c10.29-17.689,20.7-35.421,30.425-53.421c4.793-8.871,10.262-17.678,14.087-27.013c1.8-4.394,2.963-9,4.498-13.487
			c1.14-3.334,2.03-7.316,3.635-10.513c0.155-0.196,0.293-0.416,0.412-0.667C471.082,242.44,471.154,239.402,468.479,237.872z
			 M79.435,242.854c9.756-1.717,19.503-3.509,29.231-5.378c9.772-1.878,19.011-5.472,28.534-8.261
			c9.427-2.761,18.099-5.622,27.064-9.677c9.344-4.226,18.792-8.09,27.921-12.795c3.896-2.008,7.626-4.375,11.699-6.023
			c5.348-2.165,9.932-1.277,15.348,0.277c8.903,2.556,17.494,7.621,26.778,8.423c4.377,0.378,8.799,0.866,12.994,0.375
			c4.195,0.491,8.617,0.003,12.994-0.375c9.284-0.802,17.875-5.868,26.778-8.423c5.417-1.555,10-2.442,15.348-0.277
			c4.073,1.649,7.802,4.015,11.699,6.023c9.129,4.705,18.576,8.569,27.921,12.795c8.965,4.055,17.637,6.916,27.064,9.677
			c9.523,2.789,18.762,6.383,28.534,8.261c9.727,1.869,19.475,3.661,29.231,5.378c3.219,0.567,6.443,1.199,9.675,1.729
			c-1.982,0.631-3.97,1.21-6.072,1.682c-9.183,2.061-18.25,4.27-27.607,5.459c-18.591,2.362-37.755,4.094-56.503,2.929
			c-9.269-0.576-18.551-1.787-27.61-3.787c-7.507-1.657-14.047-5.034-20.956-8.167c-3.246-1.472-6.368-3.708-10.085-3.275
			c-3.713,0.432-7.297,2.706-10.786,3.987c-6.726,2.47-13.766,4.862-20.76,6.752c-2.89,0.185-5.662,0.945-8.559,1.064
			c-3.896,0.16-7.725-1.106-11.493-1.928c-4.407-0.962-8.624-2.519-12.897-3.903c-1.864-0.651-3.714-1.314-5.54-1.984
			c-3.49-1.281-7.073-3.555-10.786-3.987c-3.717-0.433-6.839,1.803-10.085,3.275c-6.909,3.133-13.449,6.509-20.956,8.167
			c-9.059,2-18.341,3.211-27.61,3.787c-18.748,1.165-37.912-0.567-56.503-2.929c-9.356-1.188-18.424-3.398-27.606-5.459
			c-2.103-0.472-4.09-1.051-6.074-1.683C72.993,244.053,76.216,243.42,79.435,242.854z M246.809,259.577
			c0.106,0.028,0.208,0.064,0.315,0.091c3.388,0.871,6.697,1.747,10.196,2.032c3.713,0.302,7.028-0.571,10.68-1
			c4.969-0.584,8.686-1.796,12.521-3.862c3.714-1.069,7.357-2.385,10.818-3.598c3.86-1.353,7.27-3.622,11.235-2.117
			c3.226,1.224,6.097,3.074,9.218,4.485c3.379,1.528,7.694,2.521,11.28,3.561c3.607,1.046,7.563,1.479,11.289,1.982
			c9.224,1.246,19.009,2.006,28.309,1.765c13.815-0.358,27.601-1.165,41.328-2.673c-3.294,1.739-6.681,3.322-10.007,4.95
			c-12.072,5.907-24.341,10.923-37.198,14.848c-11.64,3.554-23.848,6.622-35.815,8.813c-6.299,1.153-12.818,0.706-19.191,1.308
			c-0.294,0.028-0.587,0.073-0.881,0.104c-0.13,0.006-0.261,0.015-0.391,0.02c-5.357,0.192-10.72,0.349-16.038,1.078
			c-11.575,1.586-23.894,0.168-35.592,0.47c-0.279,0.007-0.557,0.006-0.836,0.011c-0.125-4.661-0.925-9.505-0.6-13.967
			C247.904,271.629,247.687,265.681,246.809,259.577z M199.048,258.028c-0.436,5.023-0.136,10.267-0.773,15.026
			c-0.662,4.943-1.883,10.104-2.117,15.074c-0.008,0.175-0.011,0.367-0.017,0.554c-11.682-2.179-23.571-5.176-34.923-8.642
			c-12.857-3.925-25.126-8.94-37.198-14.848c-3.326-1.627-6.713-3.21-10.007-4.949c13.727,1.508,27.513,2.315,41.328,2.673
			c9.3,0.241,19.086-0.519,28.309-1.765c3.726-0.503,7.682-0.937,11.289-1.982C196.239,258.792,197.636,258.421,199.048,258.028z
			 M436.632,291.287c-9.615,17.282-19.697,34.384-29.672,51.468c-10,17.127-20.672,33.758-34.424,48.161
			c-9.706,10.165-20.607,19.26-32.75,26.38c-9.299,5.453-19.925,12.726-30.438,15.18c-29.579,6.907-61.193,6.113-90.823,0.016
			c-9.237-1.901-19.012-4.892-27.64-8.702c-17.359-7.668-32.356-19.202-45.41-32.874c-13.752-14.403-24.424-31.034-34.424-48.161
			c-9.975-17.084-20.058-34.186-29.672-51.468c-0.819-1.472-1.669-2.947-2.528-4.424c9.02,11.424,19.55,21.445,29.847,31.734
			c21.994,21.975,45.925,44.407,75.468,55.55c6.541,2.467,13.175,5.044,19.855,7.329c3.531,1.424,7.171,2.451,9.951,3.237
			c8.509,2.403,17.105,4.571,25.955,5.099c8.493,0.507,17.154,1.641,25.701,1.112c9.22-0.571,18.679-0.843,27.23-4.613
			c4.188-0.323,8.334-0.873,12.377-2.044c9.637-2.793,19.218-6.576,28.609-10.118c29.543-11.143,53.474-33.576,75.468-55.55
			c10.297-10.289,20.828-20.309,29.847-31.734C438.301,288.341,437.45,289.816,436.632,291.287z M271.233,361.555
			c-6.607-9.047-15.592-16.758-24.355-23.696c-0.751-0.595-1.512-1.164-2.276-1.72c0.959-0.325,1.936-0.665,2.958-0.983
			c4.939-1.536,9.922-2.657,14.992-3.662c11.558-2.292,22.667-2.66,34.337-0.944c9.663,1.421,18.449,4.562,26.976,9.32
			c3.533,1.971,7.292,4.996,10.042,7.971c2.548,2.756,4.18,6.282,6.795,8.977c0.132,0.136,0.267,0.258,0.402,0.378
			c-13.898,6.545-29.149,11.296-43.073,14.924c-9.346,2.435-18.84,4.293-28.414,5.564c-9.307,1.236-17.998,0.446-27.387,0.132
			c-8.275-0.277-16.233-2.133-24.338-3.782c-0.164-0.033-0.33-0.07-0.494-0.103c-7.937-2.237-15.599-5.863-23.306-8.756
			c-11.171-4.194-21.905-9.299-31.841-15.855c0.727-0.207,1.422-0.419,2.062-0.603c4.763-1.373,9.61-2.953,14.262-4.666
			c10.141-3.733,21.953-6.455,32.76-7.057c11.201-0.624,21.116,2.878,30.104,9.401c8.824,6.404,17.241,12.731,26.613,18.34
			C269.936,365.862,272.65,363.496,271.233,361.555z M430.339,280.299c-46.245,51.342-82.673,70.035-82.673,70.035
			c-34.624-33.983-56.914-37.748-104.83-24.938c-3.767,1.007-7.33,2.672-10.504,4.938c-40-4.667-60.667,1.333-76,13.333L69,260.333
			l126.529,43.698c1.819,0.628,3.794,0.639,5.619,0.03c3.172-1.058,5.464-3.832,5.903-7.147L212.333,257l5.333-5.333l16.667,6.667
			l3.577,42.328c0.263,3.109,2.125,5.857,4.916,7.252c1.423,0.712,3.011,1.031,4.598,0.925l66.288-4.419
			c14.086-0.939,27.906-4.297,40.853-9.927l68.794-29.915l25.018-9.729C448.377,254.848,432.836,278.184,430.339,280.299z"/>
	</g>
</g>
<g>
</g>
<g>
</g>
<g>
</g>
<g>
</g>
<g>
</g>
<g>
</g>
<g>
</g>
<g>
</g>
<g>
</g>
<g>
</g>
<g>
</g>
<g>
</g>
<g>
</g>
<g>
</g>
<g>
</g>
</svg>
