<?xml version="1.0" encoding="iso-8859-1"?>
<!-- Generator: Adobe Illustrator 19.0.0, SVG Export Plug-In . SVG Version: 6.00 Build 0)  -->
<svg version="1.1" id="Layer_1" xmlns="http://www.w3.org/2000/svg" xmlns:xlink="http://www.w3.org/1999/xlink" x="0px" y="0px"
	 viewBox="0 0 512 512" style="enable-background:new 0 0 512 512;" xml:space="preserve">
<g>
	<g>
		<path d="M195.432,136.369c-1.519,0.48-2.999,1.049-4.453,1.676c-0.853-1.408-1.683-2.831-2.452-4.306
			c1.617-0.686,3.18-1.443,4.566-2.408c3.21-2.236,2.582-8.905-2.255-8.325c-2.298,0.275-4.407,1.024-6.471,1.944
			c-2.467-4.976-5.729-9.962-10.693-10.999c-3.593-0.75-6.531,2.838-4.741,6.167c1.709,3.18,3.652,6.338,5.679,9.45
			c-2.349,1.08-4.689,2.178-6.944,3.421c-2.347,1.294-4.695,2.558-7.051,3.809c-2.039-3.728-4.232-7.436-6.83-10.589
			c-2.928-3.55-9.289,1.275-6.439,4.968c0.71,0.92,1.363,1.902,1.995,2.906c0.756,1.452,1.368,3.078,2.103,4.36
			c0.318,0.554,0.657,1.094,1,1.63c0.133,0.329,0.275,0.65,0.412,0.975c-2.024,1.313-4.156,2.845-5.814,3.452
			c-4.694,1.717-2.838,9.093,2.098,7.608c0.418-0.126,0.834-0.28,1.249-0.446c1.819-0.479,3.581-1.524,5.301-2.264
			c0.317-0.136,0.628-0.281,0.944-0.419c0.942,1.818,1.888,3.578,2.874,5.279c0.049,0.106,0.099,0.213,0.148,0.319
			c-2.567,1.414-4.993,3.016-7.053,5.034c-1.427,1.397-1.197,4.118,0.654,5.074c2.695,1.392,5.043,0.325,7.648-0.886
			c2.7-1.255,2.561-1.362,4.505,0.604c1.375,1.391,2.061,3.018,4.05,3.723c2.878,1.02,8.573-0.666,6.95-4.65
			c-0.919-2.255-2.153-3.993-3.525-5.726c3.771-1.979,7.522-4.258,11.328-6.421c0.984-0.478,1.972-0.949,2.964-1.413
			c1.565,2.486,3.318,4.803,5.393,6.709c3.488,3.204,9.795-1.009,6.87-5.301c-0.422-0.619-0.831-1.246-1.248-1.868
			c-0.644-1.249-1.439-2.449-2.204-3.598c0.962-0.447,1.92-0.899,2.874-1.358C203.402,142.313,200.213,134.857,195.432,136.369z
			 M180.542,143.532c-2.582,1.322-5.128,2.711-7.599,4.235c-0.853,0.526-1.71,1.039-2.569,1.548
			c-0.799,0.407-1.613,0.803-2.435,1.195c-0.945-1.827-1.907-3.644-2.883-5.454c1.177-0.571,2.353-1.145,3.532-1.719
			c3.827-1.866,7.527-3.973,11.323-5.894c0.446,0.649,0.89,1.297,1.331,1.94c0.436,0.636,0.881,1.333,1.334,2.062
			c0.116,0.234,0.236,0.47,0.353,0.705C182.13,142.604,181.335,143.067,180.542,143.532z"/>
	</g>
</g>
<g>
	<g>
		<path d="M412.194,159.06c6.839-7.718,11.133-16.673,14.644-26.23c2.377-6.47,6.253-19.819-2.441-23.583
			c-3.813-1.651-8.415-0.267-11.95,1.431c-2.271,1.09-2.876,2.428-5.002,1.194c-1.978-1.149-3.714-3.377-5.476-4.848
			c-7.796-6.511-17.359-10.174-27.026-4.988c-0.488,0.262-1.098,0.8-1.712,1.314c-3.564-3.511-8.606-5.862-13.457-6.321
			c-3.427-0.325-6.065,0.726-9.129,1.853c1.983-7.842,1.89-16.109,1.691-24.217c-0.21-8.602-1.748-17.878-4.1-26.161
			c-2.257-7.951-5.003-16.317-10.256-22.81c-5.397-6.672-12.306-11.899-19.663-16.221c-7.648-4.493-17.513-6.372-26.22-7.616
			c-8.717-1.246-17.508-1.103-26.258-1.673c-8.962-0.584-17.683,0.181-26.34,2.885c-1.834,0.573-3.551,1.354-5.268,2.207
			c-1.018,0.506-3.047,2.158-4.271,2.298c-2.411,0.277-5.113-2.621-7.771-2.727c-3.277-0.131-6.015,1.353-8.325,3.574
			c-1.648,1.584-1.562,2.312-3.682,2.07c-2.316-0.264-3.592-1.393-6.07-0.706c-5.437,1.508-5.705,6.831-4.376,11.405
			c-6.002,2.676-12.61,4.965-17.787,8.79c-5.825,4.303-11.479,10.568-14.654,17.087c-3.374,6.928-5.216,15.191-5.913,22.82
			c-0.561,6.139-1.487,12.776,0.279,18.617c-6.064-0.937-10.145,2.036-12.402,6.562c-1.138-0.679-2.369-1.139-3.694-1.391
			c-3.808-0.722-8.043,0.585-11.083,2.897c-1.837,1.397-4.53,4.338-5.688,6.927c-0.333-0.127-0.658-0.244-0.928-0.365
			c-2.11-0.942-4.147-1.304-6.438-1.038c-3.919,0.454-7.223,2.859-9.958,5.57c-1.505,1.492-2.789,3.292-4.408,4.66
			c-2.569,2.172-5.358,1.597-8.663,1.952c-6.244,0.673-15.462,2.509-16.147,10.243c-0.365,4.122,1.998,7.739,4.059,11.093
			c2.982,4.853,5.302,10.012,8.143,14.947c4.726,8.211,10.779,15.473,18.008,21.625c3.284,2.794,6.726,5.388,10.363,7.619
			c-2.475,2.694-3.698,6.608-3.865,10.668c-0.151,3.658,0.732,7.338,1.795,10.819c0.802,2.627,3.928,6.343,3.823,8.688
			c-0.113,2.519-2.618,5.915-3.295,8.37c-0.742,2.688-0.961,5.551-0.517,8.306c0.646,4,2.013,8.657,4.653,12.018
			c-0.086,1.652-0.136,3.31-0.268,4.946c-0.429,5.287-2.29,11.527,0.769,16.378c0.199,0.316,0.422,0.603,0.663,0.863
			c-0.329,0.474-0.667,0.939-1.035,1.375c-2.353,2.795-4.768,5.547-7.057,8.398c-5.878,7.321-6.864,17.721-3.266,26.265
			c-6.187,4.594-9.44,16.395-9.004,23.065c0.361,5.515,3.963,9.03,6.746,13.433c0.563,0.891,1.067,1.8,1.549,2.71
			c-2.22,2.67-2.938,7.837-3.408,10.404c-1.241,6.777-0.162,13.368,3.224,19.368c1.384,2.453,3.089,4.544,5.014,6.39
			c-4.891,5.723-4.372,18.414-3.067,24.296c1.698,7.651,7.476,12.432,13.233,17.296c-3.38,5.789-4.575,13.373-1.605,19.636
			c0.546,1.151,1.202,2.173,1.934,3.099c-2.699,2.61-4.296,7.933-5.05,10.538c-2.137,7.374-2.72,14.901,0.85,21.921
			c3.164,6.221,8.951,10.779,13.662,15.77c2.43,2.574,4.767,5.347,6.129,8.659c1.528,3.715,1.171,7.433,1.204,11.324
			c0.028,3.173,3.859,4.629,6.111,2.531c3.241-3.019,6.065-7.937,8.025-13.06c0.144,0.796,0.267,1.55,0.37,2.229
			c0.591,3.906-0.117,7.759-0.204,11.664c-0.066,2.936,3.311,4.767,5.788,3.322c1.502-0.876,3.162-0.951,4.683-1.97
			c1.16-0.777,2.22-1.8,3.201-2.777c2.537-2.525,4.87-5.441,6.762-8.486c4.113-6.62,5.84-13.974,6.011-21.705
			c0.183-8.282-1.008-16.593-3.717-24.444c-2.113-6.127-4.856-15.33-11.208-18.188c-0.169-0.076-0.337-0.138-0.503-0.191
			c2.581-6.212,3.037-15.926-2.459-20.074c-0.21-0.159-0.423-0.269-0.635-0.355c1.159-2.125,2.062-4.285,2.656-6.331
			c1.858-6.398,2.528-13.035,1.201-19.595c-0.871-4.306-1.977-11.72-6.223-14.179c5.575-10.814,9.076-29.3-0.563-38.961
			c-0.185-0.186-0.381-0.347-0.583-0.487c4.947-10.747,4.897-24.23-1.13-34.377c-0.452-0.761-1.131-1.298-1.907-1.592
			c4.76-9.537,4.777-21.272,0.7-31.661c1.15-4.805,1.009-9.614-1.827-13.058c2.587-1.083,4.956-2.784,7.052-4.823
			c3.014-0.024,6.182,0.478,8.822,0.362c4.572-0.2,9.119-1.014,13.111-3.361c4.096-2.408,6.504-5.638,8.925-9.576
			c2.966-4.823,8.162-6.092,13.244-7.799c9.565-3.212,17.58-7.472,25.143-14.182c5.93-5.261,13.103-12.35,15.723-20.376
			c0.043,0.266,0.09,0.518,0.146,0.745c0.755,3.045,1.75,6.064,2.965,8.955c1.886,4.49,4.5,8.772,8.224,11.978
			c9.986,8.596,23.27,2.766,34.269,8.051c6.022,2.893,7.875,8.395,11.644,13.421c3.221,4.295,7.153,7.63,11.994,9.921
			c8.626,4.081,20.46,8.078,28.685,2.016c2.057,1.971,4.375,3.612,6.898,4.669c-2.836,3.444-2.977,8.253-1.827,13.058
			c-4.077,10.389-4.06,22.123,0.7,31.661c-0.776,0.295-1.455,0.832-1.907,1.592c-6.027,10.147-6.077,23.63-1.13,34.377
			c-0.202,0.14-0.398,0.301-0.583,0.487c-9.639,9.661-6.137,28.147-0.563,38.961c-4.246,2.46-5.352,9.874-6.223,14.179
			c-1.327,6.56-0.657,13.197,1.201,19.595c0.594,2.047,1.497,4.206,2.656,6.331c-0.212,0.085-0.424,0.196-0.635,0.355
			c-5.496,4.148-5.04,13.862-2.459,20.074c-0.166,0.053-0.334,0.115-0.503,0.191c-6.353,2.858-9.095,12.062-11.208,18.188
			c-2.708,7.851-3.9,16.162-3.717,24.444c0.171,7.731,1.898,15.085,6.011,21.705c1.891,3.044,4.225,5.96,6.762,8.486
			c0.981,0.977,2.041,2,3.201,2.777c1.521,1.019,3.182,1.094,4.683,1.97c2.477,1.446,5.854-0.385,5.788-3.322
			c-0.087-3.905-0.795-7.759-0.204-11.664c0.103-0.679,0.226-1.433,0.37-2.229c1.961,5.124,4.785,10.042,8.026,13.06
			c2.252,2.098,6.084,0.641,6.111-2.531c0.034-3.891-0.324-7.609,1.204-11.324c1.362-3.312,3.699-6.084,6.129-8.659
			c4.711-4.991,10.498-9.549,13.662-15.77c3.57-7.02,2.987-14.547,0.85-21.921c-0.754-2.604-2.352-7.928-5.05-10.538
			c0.732-0.926,1.388-1.948,1.934-3.099c2.97-6.263,1.775-13.847-1.604-19.636c5.757-4.864,11.535-9.644,13.233-17.296
			c1.306-5.882,1.824-18.573-3.067-24.296c1.925-1.846,3.629-3.937,5.013-6.39c3.386-5.999,4.464-12.591,3.224-19.368
			c-0.47-2.567-1.188-7.734-3.408-10.404c0.481-0.911,0.985-1.819,1.549-2.71c2.784-4.403,6.386-7.918,6.746-13.433
			c0.436-6.671-2.818-18.471-9.004-23.065c3.598-8.545,2.611-18.945-3.266-26.265c-2.289-2.851-4.704-5.602-7.057-8.398
			c-0.368-0.437-0.706-0.902-1.035-1.375c0.241-0.259,0.464-0.547,0.663-0.863c3.06-4.851,1.198-11.091,0.769-16.378
			c-0.113-1.391-0.167-2.798-0.234-4.204c0.334-0.217,0.64-0.484,0.893-0.817c1.505-1.98,2.428-4.046,3.119-6.309
			c3.257-3.27,4.324-9.438,4.139-13.657c-0.148-3.374-0.844-7.001-2.471-9.984c-1.757-3.221-4.939-5.227-5.129-9.126
			c-0.361-7.386,2.315-13.626-2.778-20.097c-0.402-0.51-0.862-1.015-1.364-1.503c0.545-0.257,1.087-0.523,1.625-0.801
			C400.058,172.892,406.176,165.853,412.194,159.06z M200.627,30.406c2.608-1.503,6.931-3.346,7.656-6.617
			c0.337-1.518-0.263-2.36-0.738-3.727c-1.169-3.364,0.575-2.985,3.477-3.157c4.578-0.271,4.323-3.773,7.799-5.922
			c3.965-2.451,6.447,2.838,10.133,3.778c3.91,0.998,7.632-1.376,11.24-2.362c10.214-2.791,20.477-1.903,30.827-1.125
			c4.21,0.316,8.364,0.791,12.49,1.395c1.273,3.155,2.703,6.334,3.641,9.618c-1.335-0.128-2.664-0.212-3.947-0.103
			c-1.017,0.086-2.138,0.693-2.359,1.796c-0.028,0.141-0.056,0.282-0.085,0.423c-0.016,0.081-0.02,0.162-0.028,0.243
			c-0.441,0.608-0.276,1.718,0.598,1.984c0.228,0.069,0.468,0.126,0.7,0.192c0.046,0.017,0.086,0.04,0.134,0.054
			c0.229,0.067,0.462,0.12,0.695,0.173c1.698,0.44,3.476,0.785,5.291,1.033c0.029,0.648,0.033,1.301-0.004,1.96
			c-0.271,4.773-1.953,8.264-4.654,11.235c-1.395-1.505-2.836-2.964-4.56-4.016c-1.952-1.19-4.632,1.257-3.252,3.252
			c1.034,1.495,2.445,2.944,3.869,4.308c-0.456,0.347-0.922,0.693-1.406,1.035c-2.683,1.894-5.443,3.616-8.268,5.19
			c-0.795-1.918-1.538-5.557-3.915-5.525c-1.244,0.016-2.477,1.088-2.402,2.402c0.106,1.881,0.974,3.705,1.859,5.447
			c-3.636,1.783-7.371,3.347-11.205,4.694c-0.373-1.203-0.726-2.411-1.022-3.629c-0.694-2.856-4.473-1.9-4.765,0.645
			c-0.159,1.384,0.392,2.985,1.014,4.546c-1.724,0.52-3.461,1.013-5.22,1.457c-2.506,0.633-5.251,1.312-8.115,1.902
			c-0.118-1.438-0.395-2.829-1.028-4.063c-0.675-1.316-2.897-1.372-3.555,0c-0.777,1.619-0.844,3.296-0.756,5.009
			c-4.861,0.706-9.847,0.95-14.436,0.13c0.537-1.225,1.031-2.461,1.404-3.681c0.975-3.193-3.82-4.412-4.939-1.361
			c-0.44,1.2-0.921,2.424-1.43,3.638c-1.28-0.516-2.508-1.145-3.664-1.914c-2.767-1.843-4.97-4.24-6.796-6.92
			c1.846-1.496,3.67-3.03,5.663-4.292c2.66-1.684,0.3-5.764-2.473-4.232c-1.019,0.563-1.977,1.238-2.908,1.958
			c-1.046,0.521-2.045,1.145-3.01,1.842c-0.433-0.881-0.849-1.77-1.232-2.671c-1.55-3.647-2.583-7.995-5.027-11.207
			C194.748,33.478,197.85,32.006,200.627,30.406z M174.419,62.755c2.411-9.405,5.92-17.861,13.317-24.463
			c0.119,4.577,2.184,9.878,3.535,13.428c0.305,0.802,0.638,1.588,0.989,2.362c-0.277,0.244-0.555,0.485-0.834,0.725
			c-1.722,1.186-3.435,2.394-4.997,3.726c-2.192,1.871,1.14,5.295,3.191,3.191c1.545-1.214,3.238-2.292,4.927-3.371
			c2.018,3.231,4.543,6.103,7.665,8.469c1.658,1.257,3.415,2.28,5.243,3.113c-0.923,1.596-1.676,3.247-1.776,4.866
			c-0.126,2.049,2.572,2.958,3.929,1.627c1.227-1.204,2.126-2.973,2.951-4.698c5.887,1.519,12.275,1.474,18.559,0.711
			c-0.028,1.587,0.012,3.18,0.155,4.783c0.21,2.348,3.016,3.167,4.381,1.186c1.159-1.682,0.881-4.4,0.64-6.745
			c3.537-0.63,6.985-1.421,10.23-2.219c1.9-0.467,3.81-0.979,5.722-1.536c0.585,1.718,1.185,3.431,1.705,5.173
			c0.796,2.904,5.097,1.676,4.483-1.236c-0.385-1.83-0.903-3.628-1.466-5.413c4.183-1.392,8.332-3.021,12.345-4.911
			c0.666,1.368,1.349,2.723,2.081,4.028c1.292,2.329,5.236,0.764,4.367-1.841c-0.516-1.545-1.147-3.046-1.833-4.524
			c4.298-2.322,8.362-4.999,12.089-8.039c0.559,0.717,1.124,1.426,1.807,2.05c1.748,1.596,4.509,0.035,3.952-2.301
			c-0.252-1.059-1.028-2.153-1.941-3.18c5.014-5.415,6.673-12.213,6.284-19.155c0.901-0.013,1.794-0.041,2.663-0.101
			c2.169-0.149,3.151-3.007,1.139-4.204c-1.381-0.822-2.941-1.181-4.534-1.355c-0.603-2.953-1.517-5.871-2.646-8.658
			c3.328,0.641,6.65,1.35,9.98,2.132c9.853,2.315,19.326,8.433,26.112,15.993c7.281,8.111,8.875,20.915,10.461,31.295
			c1.51,9.882,0.955,20.086,0.438,30.04c-2.004-0.712-4.098-0.977-6.368-0.604c-1.952,0.321-3.996,1.1-5.681,2.157
			c-1.78,1.116-0.99,0.677-3.336-0.457c-8.529-4.122-16.569-5.022-25.893-4.806c-4.274,0.099-8.513,0.664-12.794,0.451
			c-4.104-0.203-8.189-0.868-12.279-1.226c-4.319-0.378-8.776,0.303-13.146,0.216c-4.484-0.089-9.073,0.269-13.545,0.601
			c-4.529,0.336-8.775-0.298-13.286-0.472c-4.894-0.189-9.783,0.523-14.624,1.137c-9.193,1.167-18.02,2.395-27.07,4.4
			c-5.657,1.253-9.502,1.115-14.854-1.311c-2.268-1.028-4.695-2.094-7.169-3.019C172.626,81.73,172.044,72.017,174.419,62.755z
			 M310.896,112.866c0.691,0.722,1.428,1.397,2.171,2.066c0.772,0.777,1.529,1.574,2.277,2.382c-1.461,2.227-2.992,4.369-4.65,6.423
			c-0.876-1.42-1.759-2.836-2.699-4.215c-1.713-2.514-5.256-0.063-3.881,2.27l-0.012,0.005c1.115,1.924,2.152,3.888,3.203,5.845
			c-0.514,0.55-1.036,1.097-1.573,1.638c-2.108,2.121-4.161,4.308-6.19,6.516c-0.533-1.322-1.121-2.589-1.777-3.747
			c-1.266-2.235-5.308-0.706-4.278,1.804c0.836,2.038,1.441,4.19,2.047,6.342c-0.624,0.689-1.249,1.378-1.874,2.064
			c-1.778,1.952-6.015,7.374-8.856,5.562c-1.33-0.848-2.145-3.077-2.714-5.197c1.626-1.275,3.253-2.543,4.861-3.802
			c2.353-1.843-0.652-4.817-2.943-3.814c-1.105,0.484-2.192,1.249-3.244,2.121c-0.524-2.185-1.009-4.379-1.52-6.567
			c-0.323-1.38-0.595-2.795-0.842-4.23c2.056-0.381,4.191-0.848,5.686-2.181c1.294-1.154,0.653-3.586-1.043-3.95
			c-1.66-0.357-3.59-0.017-5.48,0.544c-0.412-3.068-0.788-6.178-1.279-9.247c1.196-0.295,2.386-0.6,3.567-0.912
			c2.097-0.555,2.415-4.246,0-4.573c-1.569-0.212-3.08-0.095-4.577,0.17c-0.55-2.43-1.228-4.8-2.129-7.059
			c5.28,0.09,10.523,0.771,15.869,0.514c8.531-0.409,16.286-2.238,24.304,1.786c3.122,1.567,5.976,3.634,8.979,4.785
			c-1.686,2.261-3.114,4.816-4.417,7.029c-1.211-1.239-2.415-2.484-3.781-3.579C311.873,107.874,308.829,110.707,310.896,112.866z
			 M128.314,274.225c4.547-5.994,6.597-14.722,13.094-18.738c0.352-0.154,0.718-0.296,1.114-0.409
			c3.893-1.119,7.905-0.526,11.868-0.646c0.005,0.107,0.008,0.214,0.024,0.319c1.795,12.183-4.241,24.848-15.559,30.579
			c-4.598,2.328-11.44,3.496-14.727,7.734c-0.308,0.397-0.672,0.846-1.056,1.327c-0.821-2.172-1.45-4.406-1.45-6.919
			C121.62,281.966,125.2,278.33,128.314,274.225z M147.174,328.982c-0.177-6.128,0.448-11.718,3.262-17.255
			c0.217-0.426,0.314-0.84,0.334-1.234c2.631-1.654,4.897-3.598,6.826-5.757c0.137,0.66,0.287,1.279,0.41,1.812
			c1.514,6.62,2.234,12.702,0.409,19.414c-1.689,6.211-5.903,12.044-11.435,15.326c-0.084,0.049-0.17,0.092-0.254,0.141
			C148.055,337.445,147.294,333.146,147.174,328.982z M157.896,283.349c-0.434,6.996-3.739,11.833-8.539,16.669
			c-4.67,4.706-10.022,6.249-16.547,4.435c-2.233-0.621-4.627-1.951-6.782-3.684c0.048-0.261,0.15-0.584,0.4-0.94
			c1.425-2.032,2.095-3.606,4.559-4.791c2.828-1.36,6.118-1.862,9.041-3.043c6.35-2.565,11.585-5.704,15.844-11.177
			c0.641-0.823,1.309-1.777,1.973-2.827C157.947,279.779,158.006,281.566,157.896,283.349z M115.994,313.615
			c0.808-3.47,2.043-6.794,3.304-10.114c0.108,0.125,0.203,0.26,0.314,0.384c4.61,7.027,13.748,10.966,22.361,9.836
			c-2.237,4.361-2.808,9.618-2.769,14.492c0.034,4.184,1.786,10.251-2.463,12.783c-4.679,2.789-10.659,0.555-12.791-4.258
			c-1.659-3.745-2.015-7.501-4.549-10.894C116.169,321.52,114.697,319.183,115.994,313.615z M122.491,361.111
			c-3.331-5.537-3.231-10.861-3.067-16.918c0.634,0.712,1.343,1.384,2.157,2c2.855,2.158,6.674,3.523,10.512,3.794
			c2.315,1.008,5.025,1.424,7.528,1.567c0.585,1.259,1.332,2.29,2.271,3.684c1.986,2.947,3.259,6.64,4.162,10.101
			c1.467,5.623,2.678,13.985-1.629,18.772c-0.875-1.673-1.555-3.999-2.297-5.111c-1.406-2.105-2.996-3.856-4.998-5.401
			C131.91,369.569,126.018,366.976,122.491,361.111z M127.43,400.706c-6.327-6.996-3.563-15.972-2.957-24.369
			c1.7,1.141,3.479,2.197,5.322,3.189c8.628,4.641,16.138,15.269,18.673,24.67c1.258,4.667,1.965,12.729-1.897,16.886
			c-0.805-1.262-1.309-2.86-2.053-4.031c-1.304-2.053-3.013-3.723-4.703-5.451C135.998,407.698,131.026,404.683,127.43,400.706z
			 M167.807,439.441c1.256,4.805,4.805,9.191,6.899,13.633c2.934,6.225,4.456,12.817,4.706,19.682
			c0.331,9.092-1.913,22.324-9.659,28.643c0.125-7.638-2.601-15.821-7.108-21.429c-1.952-2.429-5.31-0.177-5.542,2.296
			c-0.279,2.964-1.519,6.076-2.832,8.937c-2.114-6.188-6.962-11.656-12.098-16.658c-4.989-4.859-10.959-9.745-10.837-17.367
			c0.061-3.815,0.885-8.052,2.077-11.643c0.367-1.107,0.838-3.057,1.365-4.755c4.309,2.459,9.636,3.367,14.697,3.689
			C155.487,444.849,162.937,443.541,167.807,439.441z M163.998,431.8c-3.562,5.637-12.17,5.716-18.02,4.858
			c-6.537-0.96-12.316-2.959-13.142-10.426c-0.341-3.079,0.252-6.222,0.228-9.298c2.176,1.963,4.22,4.032,5.886,6.384
			c7.03,9.926,19.76,3.245,25.891-4.094C165.104,423.506,166.5,427.839,163.998,431.8z M164.807,402.364
			c-1.311,6.968-4.67,12.024-9.435,15.82c0.014-0.038,0.031-0.08,0.044-0.118c2.146-5.978,1.388-12.617-0.682-18.515
			c-1.318-3.756-3.047-6.544-5.507-8.934c4.28-1.294,9.055-6.098,12.569-10.511C163.403,387.547,166.335,394.239,164.807,402.364z
			 M162.886,353.644c0.058,5.435-0.831,11.431-3.382,16.306c-1.387,2.651-3.485,5.494-5.571,7.973
			c0.569-3.752,0.32-7.762-0.412-11.819c-0.499-2.763-2.594-10.835-6.011-15.62c4.867-1.673,9.464-5.006,12.597-8.559
			C161.452,345.736,162.841,349.4,162.886,353.644z M239.008,196.918c-2.757,4.422-6.589,8.191-10.329,11.788
			c-7.761,7.463-17.332,9.669-27.04,13.445c-4.107,1.598-7.716,3.627-10.32,7.31c-2.176,3.078-4.191,6.515-7.626,8.354
			c-3.649,1.954-8.252,1.954-12.268,2.61c-4.487,0.732-7.329,2.333-10.985,4.672c-3.023,1.935-6.893,2.11-10.369,2.114
			c-4.406,0.004-13.665,3.454-16.565-1.042c-1.155-1.791-1.286-4.07-0.972-6.177c0.314-2.108,1.031-4.134,1.451-6.223
			c0.209-1.042,0.342-2.134,0.054-3.157c-0.264-0.937-0.859-1.738-1.37-2.566c-2.962-4.807-2.863-10.46-0.641-15.478
			c2.4-5.422,0.447-8.346-0.863-14.146c-0.746-3.305-1.375-6.59-0.414-9.932c0.42-1.461,0.974-2.73,1.459-4.016
			c1.855,0.71,3.755,1.319,5.712,1.798c9.529,2.334,18.864,4.32,28.685,5.045c22.536,1.666,45.216,0.234,67.728-0.96
			c2.756-0.146,5.51-0.294,8.265-0.441C241.353,192.179,240.427,194.642,239.008,196.918z M359.114,341.925
			c3.132,3.553,7.729,6.887,12.597,8.559c-3.417,4.785-5.512,12.857-6.011,15.62c-0.732,4.057-0.981,8.067-0.412,11.819
			c-2.086-2.479-4.183-5.322-5.571-7.973c-2.551-4.876-3.439-10.872-3.382-16.306C356.38,349.4,357.769,345.736,359.114,341.925z
			 M361.625,304.737c1.929,2.158,4.195,4.103,6.826,5.757c0.02,0.394,0.117,0.808,0.334,1.234
			c2.814,5.537,3.439,11.127,3.262,17.255c-0.12,4.164-0.881,8.463,0.448,12.447c-0.084-0.048-0.171-0.091-0.254-0.141
			c-5.532-3.282-9.746-9.115-11.435-15.326c-1.825-6.711-1.104-12.794,0.409-19.414
			C361.338,306.016,361.489,305.396,361.625,304.737z M361.376,277.993c0.664,1.05,1.332,2.004,1.973,2.827
			c4.259,5.473,9.494,8.612,15.844,11.177c2.923,1.18,6.213,1.683,9.041,3.043c2.464,1.185,3.134,2.759,4.559,4.791
			c0.25,0.356,0.353,0.679,0.4,0.94c-2.155,1.733-4.548,3.064-6.782,3.684c-6.525,1.813-11.878,0.27-16.547-4.435
			c-4.799-4.836-8.104-9.673-8.539-16.669C361.215,281.566,361.274,279.779,361.376,277.993z M357.424,380.106
			c3.514,4.414,8.289,9.218,12.569,10.511c-2.46,2.39-4.188,5.178-5.507,8.934c-2.07,5.897-2.828,12.537-0.682,18.515
			c0.014,0.038,0.03,0.079,0.044,0.118c-4.764-3.795-8.124-8.852-9.435-15.82C352.886,394.239,355.819,387.547,357.424,380.106z
			 M354.381,419.222c6.131,7.339,18.861,14.02,25.891,4.094c1.666-2.352,3.71-4.421,5.886-6.384
			c-0.023,3.076,0.569,6.22,0.228,9.298c-0.827,7.467-6.605,9.467-13.142,10.426c-5.851,0.859-14.459,0.779-18.02-4.858
			C352.721,427.839,354.118,423.506,354.381,419.222z M377.048,474.543c-5.135,5.002-9.984,10.47-12.098,16.658
			c-1.313-2.86-2.553-5.973-2.832-8.937c-0.233-2.472-3.59-4.724-5.542-2.296c-4.507,5.608-7.233,13.791-7.108,21.429
			c-7.746-6.319-9.99-19.551-9.659-28.643c0.25-6.864,1.772-13.457,4.706-19.682c2.094-4.442,5.643-8.828,6.899-13.633
			c4.87,4.1,12.32,5.408,18.333,5.025c5.061-0.322,10.388-1.23,14.697-3.689c0.526,1.698,0.997,3.649,1.365,4.755
			c1.192,3.591,2.016,7.828,2.076,11.643C388.007,464.798,382.037,469.684,377.048,474.543z M391.792,400.706
			c-3.596,3.977-8.568,6.992-12.386,10.894c-1.69,1.728-3.399,3.397-4.703,5.451c-0.744,1.171-1.248,2.768-2.053,4.031
			c-3.862-4.158-3.155-12.219-1.897-16.886c2.535-9.401,10.046-20.029,18.673-24.67c1.843-0.991,3.622-2.047,5.322-3.189
			C395.355,384.734,398.119,393.71,391.792,400.706z M396.731,361.111c-3.528,5.865-9.419,8.458-14.638,12.487
			c-2.002,1.546-3.592,3.296-4.998,5.401c-0.742,1.111-1.422,3.438-2.297,5.111c-4.307-4.787-3.097-13.149-1.629-18.772
			c0.903-3.461,2.176-7.154,4.162-10.101c0.939-1.393,1.686-2.424,2.271-3.684c2.503-0.143,5.213-0.559,7.528-1.567
			c3.837-0.27,7.657-1.635,10.512-3.794c0.814-0.616,1.523-1.287,2.157-2C399.962,350.25,400.062,355.574,396.731,361.111z
			 M399.923,303.501c1.262,3.32,2.496,6.644,3.304,10.114c1.297,5.568-0.175,7.904-3.407,12.23
			c-2.535,3.392-2.891,7.149-4.549,10.894c-2.132,4.812-8.112,7.046-12.791,4.258c-4.248-2.532-2.496-8.599-2.463-12.783
			c0.039-4.874-0.532-10.131-2.769-14.492c8.613,1.13,17.751-2.809,22.361-9.836C399.721,303.762,399.815,303.627,399.923,303.501z
			 M397.601,287.472c0,2.512-0.629,4.747-1.45,6.919c-0.384-0.481-0.748-0.929-1.056-1.327c-3.288-4.238-10.129-5.406-14.727-7.734
			c-11.318-5.73-17.354-18.396-15.559-30.579c0.016-0.105,0.019-0.212,0.024-0.319c3.962,0.12,7.974-0.473,11.868,0.646
			c0.396,0.114,0.762,0.255,1.114,0.409c6.497,4.016,8.547,12.744,13.094,18.738C394.021,278.33,397.601,281.966,397.601,287.472z
			 M390.58,214.873c0.093,0.399,0.138,0.804,0.143,1.215c0.045,3.641-3.074,7.696-4.432,10.97c-0.692,1.67-1.395,3.383-1.469,5.189
			c-0.09,2.186,1.105,3.806,1.417,5.807c0.292,1.872-0.186,3.651-0.41,5.564c-0.252,2.153-0.343,4.809-0.724,7.261
			c-1.685-0.893-3.396-2.06-4.92-2.509c-3.511-1.033-7.407-1.158-11.038-1.161c-4.185-0.004-7.567-0.435-10.926-2.948
			c-3.406-2.548-7.398-2.985-11.643-3.045c-7.884-0.112-16.884-1.362-23.347-6.344c-4.67-3.6-6.523-8.917-9.99-13.439
			c-3.092-4.032-7.834-7.202-12.614-8.884c-10.24-3.603-23.744,1.397-32.139-6.471c-4.001-3.751-5.99-9.001-8.444-13.774
			c-0.549-1.068-1.061-2.178-1.633-3.232c13.417-0.716,26.836-1.427,40.271-2.099c11.007-0.55,22.088-1.654,33.108-1.624
			c10.544,0.029,20.709,0.167,31.202-0.928c6.417-0.669,12.834-1.589,18.993-3.399c1.545,1.594,2.94,3.283,3.404,5.676
			c1.066,5.5-2.084,11.098-0.987,16.724C384.403,207.795,389.631,210.795,390.58,214.873z M384.123,167.378
			c-7.996,3.773-16.956,4.515-25.595,5.618c-8.908,1.138-17.774,0.664-26.737,0.73c-9.374,0.069-18.712,1.234-28.08,1.568
			c-8.949,0.319-17.876,0.918-26.821,1.312c-9.23,0.407-18.513-0.501-27.716,0.384c-18.018,1.733-36.234,2.878-54.334,3.262
			c-18.405,0.391-36.153-0.158-54.215-3.78c-16.928-3.395-30.688-16.631-38.85-31.334c-2.318-4.175-4.133-8.554-6.283-12.808
			c-0.744-1.472-2.746-4.156-2.915-6.003c0.103-0.048,0.217-0.101,0.347-0.16c0.681-0.312,1.487-0.446,2.208-0.639
			c4.404-1.183,9.591-0.491,13.777-2.044c3.29-1.221,5.44-4.836,7.707-7.35c1.458-1.617,3.118-4.004,5.331-4.521
			c2.211-0.517,3.707,0.895,5.801,1.591c2.885,0.958,5.419,0.491,7.318-2.03c2.216-2.942,2.959-9.95,7.984-9.486
			c2.966,0.274,4.376,4.1,7.45,4.829c2.137,0.506,5.026-0.66,5.431-3.084c0.196-1.173,0.324-2.562,0.829-3.651
			c1.266-2.727,3.015-2.13,5.685-1.4c4.377,1.197,8.563,3.36,12.631,5.295c6.761,3.217,13.259,2.326,20.296,0.952
			c8.439-1.648,16.685-2.62,25.241-3.525c3.952-0.418,7.925-0.822,11.904-0.683c4.171,0.146,8.286,0.764,12.463,0.357
			c7.423-0.723,14.945-0.667,22.329-1.439c0.461-0.048,0.92-0.065,1.38-0.097c-0.05,1.524,0.051,3.091,0.041,4.386
			c-0.01,1.376,0.016,2.754,0.056,4.131c-2.332,0.583-4.694,1.191-6.865,2.17c-1.416,0.638-1.535,2.816-0.49,3.799
			c0.03,0.028,0.059,0.056,0.089,0.084c0.546,0.513,1.424,0.849,2.169,0.573c0.642-0.238,1.932-0.226,2.702-0.434
			c0.885-0.24,1.765-0.496,2.646-0.749c0.061,0.972,0.129,1.943,0.203,2.912c0.187,2.456,0.473,4.882,0.801,7.3
			c-1.987,0.686-4.048,1.449-5.722,2.54c-1.163,0.306-1.944,1.673-1.602,2.834c0.019,0.066,0.039,0.131,0.058,0.197
			c0.348,1.18,1.741,2.169,2.997,1.702c1.703-0.635,3.392-1.261,5.076-1.912c0.324,1.938,0.664,3.877,1.03,5.822
			c0.477,2.537,0.94,5.5,1.66,8.432c-2.194,1.541-4.636,3.246-5.211,5.629c-0.656,2.718,2.374,3.331,3.807,2.203
			c0.082-0.065,0.165-0.128,0.235-0.204c0.924-0.829,1.871-1.644,2.827-2.452c1.326,3.176,3.227,5.945,6.163,7.578
			c5.874,3.268,12.004-0.693,17.177-5.73c0.469,1.415,1.061,2.746,1.999,3.679c1.692,1.683,5.02-0.003,4.177-2.432
			c-0.658-1.895-1.283-3.838-1.914-5.79c1.807-2.06,3.405-4.006,4.712-5.437c1.407-1.541,2.828-3.043,4.242-4.542
			c0.909,1.633,1.854,3.27,3.04,4.632c0.662,0.76,1.754,0.902,2.68,0.708l0.358-0.075c1.951-0.408,2.351-2.932,1.121-4.247
			c-1.311-1.401-2.371-3.316-3.421-5.094c2.189-2.419,4.298-4.912,6.228-7.624c0.924,0.807,1.875,1.581,2.898,2.267
			c2.431,1.631,5.298-2.084,3.133-4.06c-1.006-0.918-2.035-1.802-3.07-2.679c0.926-1.459,1.85-2.918,2.839-4.334
			c2.096-2.999,4.324-5.388,5.069-9.099c0.05-0.25,0.068-0.497,0.072-0.741c1.389-0.761,2.644-1.394,4.43-0.987
			c1.59,0.362,2.919,1.381,4.28,2.214c2.613,1.599,5.409,3.167,8.539,2.297c3.284-0.913,5.717-3.928,9.171-4.349
			c4.267-0.519,8.302,1.724,10.215,5.479c0.697,1.369,2.642,2.134,4.096,1.667c1.837-0.59,2.887-2.141,4.572-2.878
			c3.878-1.696,7.497-1.179,11.059,0.724c3.467,1.852,6.61,4.233,9.736,6.636c0.576,0.527,1.141,1.041,1.686,1.52
			c2.217,1.944,4.531,3.878,7.563,4.269c3.691,0.476,6.144-2.082,9.508-2.968c0.466-0.123,1.026-0.153,1.516-0.241
			c-0.12,1.082-0.339,2.096-0.641,3.192c-1.126,4.092-3.019,7.894-4.506,11.856c-2.662,7.091-7.251,13.593-12.49,19.056
			C396.076,158.261,391.284,163.999,384.123,167.378z"/>
	</g>
</g>
<g>
</g>
<g>
</g>
<g>
</g>
<g>
</g>
<g>
</g>
<g>
</g>
<g>
</g>
<g>
</g>
<g>
</g>
<g>
</g>
<g>
</g>
<g>
</g>
<g>
</g>
<g>
</g>
<g>
</g>
</svg>
