<?xml version="1.0" encoding="iso-8859-1"?>
<!-- Generator: Adobe Illustrator 19.0.0, SVG Export Plug-In . SVG Version: 6.00 Build 0)  -->
<svg version="1.1" id="Layer_1" xmlns="http://www.w3.org/2000/svg" xmlns:xlink="http://www.w3.org/1999/xlink" x="0px" y="0px"
	 viewBox="0 0 512.002 512.002" style="enable-background:new 0 0 512.002 512.002;" xml:space="preserve">
<g>
	<g>
		<path d="M444.18,126.674c-2.264-3.934-4.34-7.857-6.802-11.683c-1.081-1.68-2.089-3.387-3.357-4.936
			c-2.05-2.506-2.502-1.987-0.422-4.886c3.93-5.479,8.644-14.708,0.96-19.591c-0.454-0.288-2.976-1.152-5.076-1.642
			c0.286-0.421,0.534-0.82,0.606-0.926c1.198-1.765,2.252-3.644,2.571-5.782c1.178-7.885-6.701-11.513-13.293-11.603
			c-0.443-0.006-0.937-0.011-1.439-0.007c2.192-3.395,3.81-7.36,2.376-11.406c-1.321-3.726-4.872-5.419-8.672-5.327
			c-1.134,0.028-2.204,0.233-3.237,0.539c0.093-0.375,0.176-0.758,0.236-1.157c0.616-4.12-0.927-8.378-4.911-10.166
			c-3.926-1.761-8.146-0.278-11.773,1.529c-2.504,1.247-4.728,2.895-6.864,4.69c-0.79,0.663-2.11,2.146-3.329,3.324
			c-4.744-5.125-8.344-11.379-13.831-15.949c-2.846-2.371-4.884-4.632-8.171-6.363c-4.225-2.225-8.226-4.991-12.381-7.356
			c-7.782-4.43-15.867-7.14-24.062-10.669c-7.74-3.333-17.121-4.292-25.398-5.689c-9.513-1.605-18.755-1.645-28.363-1.611
			c-9.214,0.032-18.922,0.189-28.009,1.833c-7.977,1.443-15.282,4.421-22.826,7.227c-2.238,0.832-4.236,2.212-6.75,2.037
			c-2.172-0.151-4.183-1.387-6.133-2.168c-3.301-1.322-6.251-1.586-9.442,0.313c-2.07,1.231-2.474,2.968-4.556,1.725
			c-1.337-0.798-2.225-2.762-3.638-3.715c-3.016-2.035-6.959-2.414-10.2-0.602c-5.055,2.826-7.371,8.993-8.462,15.007
			c-0.523-0.341-1.051-0.666-1.588-0.946c-0.978-0.815-1.935-1.581-2.794-2.288c-3.784-3.115-8.117-5.065-13.092-4.633
			c-7.872,0.683-10.392,6.625-10.398,13.169c-1.252-0.971-2.543-1.874-4.003-2.614c-4.623-2.342-10.355-3.524-14.688,0.064
			c-4.603,3.812-4.178,9.843-2.272,14.941c0.857,2.291,1.811,4.55,2.787,6.801c-1.604-0.344-3.28-0.558-5.128-0.538
			c-5.238,0.058-11.328,0.987-12.989,6.842c-1.196,4.216,1.132,9.773,4.039,13.443c-0.708,0.367-1.494,0.906-2.057,1.22
			c-3.296,1.84-6.485,3.855-9.411,6.25c-4.287,3.509-8.522,8.261-9.734,13.811c-0.5,2.292-0.365,4.803,0.447,7.002
			c0.033,0.089,0.897,2.712,1.193,2.345c-0.485,0.928-3.693,2.369-4.609,2.999c-4.814,3.315-10.139,7.093-13.09,12.284
			c-1.558,2.74-2.231,6.037-1.998,9.173c0.25,3.355-0.099,1.968-2.487,5.324c-8.152,11.46-9.565,24.717-11.563,38.185
			c-2.191,14.764-3.994,29.077-3.747,44.053c0.239,14.502,0.535,28.796,2.843,43.15c2.293,14.262,9.365,25.549,18.666,36.329
			c2.183,2.531,4.168,4.473,6.775,6.587c0.664,0.539,1.263,1.129,1.862,1.722c-1.909,1.828-4.384,4.637-4.857,5.169
			c-1.84,2.07-3.472,4.276-4.582,6.821c-4.607,10.56,2.417,15.524,10.844,16.287c-0.298,0.852-0.572,1.711-0.821,2.555
			c-1.121,3.801-1.886,8.334,0.409,11.858c2.649,4.07,8.075,4.802,12.475,3.695c2.085-0.525,4.068-1.502,5.983-2.493
			c-2.606,7.945-4.526,16.934,0.979,22.679c3.921,4.091,9.658,3.788,14.194,0.895c0.735-0.469,1.433-1.005,2.115-1.564
			c0.008,0.065,0.014,0.131,0.023,0.196c0.53,4.113,1.039,8.736,4.181,11.794c3.242,3.155,8.377,3.527,12.377,1.771
			c1.645-0.722,3.087-1.783,4.362-3.027c1.214,3.427,2.888,6.628,5.705,9.153c2.6,2.33,5.789,3.49,9.255,2.599
			c1.645-0.423,3.188-1.176,4.465-2.323c0.041-0.037,0.097-0.106,0.149-0.166c0.287,0.567,0.587,1.128,0.925,1.665
			c1.448,2.298,3.268,4.569,5.324,6.348c4.923,4.26,11.087,4.145,16.9,6.43c11.054,4.344,22.503,8.087,34.124,10.657
			c-2.021,5.331-4.145,10.619-6.433,15.816c-5.636,12.802-12.782,24.968-18.704,37.669c-3.097,6.643-6.969,12.793-10.502,19.2
			c-2.363,4.285-6.266,9.932-6.534,14.886c-0.24,4.437,4.594,6.057,7.989,4.585c2.532-1.098,4.241-3.12,6.418-4.773
			c2.269-1.723,4.621-2.879,7.207-4.025c2.516-1.115,4.977-2.333,7.4-3.638c0.566-0.305,1.413-0.922,2.327-1.566
			c0.382,2.906,0.929,5.8,1.247,8.739c0.587,5.425,1.624,10.251,3.892,15.243c0.859,1.892,3.777,3.013,5.711,2.324
			c4.741-1.687,6.181-7.355,8.43-11.435c3.343-6.064,5.002-12.652,7.053-19.223c4.61-14.766,10.818-28.968,15.73-43.627
			c2.027-6.047,4.207-12.037,6.338-18.042c0.326,1.351,0.672,2.682,0.995,3.98c2.462,9.87,4.751,19.814,7.389,29.635
			c2.561,9.53,5.589,18.656,8.692,28.023c3.075,9.284,4.44,19.19,9.209,27.861c1.747,3.176,6.618,3.129,8.377,0
			c2.546-4.528,4.847-9.214,7.399-13.755c0.978-1.741,1.725-3.564,2.364-5.452c0.201-0.593,0.392-1.188,0.568-1.786
			c2.24,1.051,4.599,1.842,6.829,2.914c4.708,2.263,8.64,5.375,13.012,8.108c2.345,1.465,5.977,0.591,7.271-1.906
			c2.044-3.945,0.017-7.515-1.941-11.034c-2.779-4.991-4.685-10.539-6.95-15.786c-5.759-13.341-10.424-27.033-15.742-40.535
			c-3.745-9.51-7.581-19.022-11.046-28.654c3.831,0.18,7.678-0.361,11.675-0.957c6.586-0.983,12.666-2.328,19-4.419
			c6.168-2.037,12.568-3.647,18.54-6.218c3.421-1.472,6.498-3.461,9.563-5.46c0.021,0.246,0.042,0.493,0.079,0.737
			c0.373,2.439,1.281,4.706,2.796,6.673c2.82,3.658,7.587,5.501,12.081,3.958c3.678-1.263,5.905-4.406,7.438-7.807
			c1.02-2.264,1.536-5.475,2.572-8.129c0.117,0.081,0.229,0.158,0.329,0.23c1.482,1.061,3.334,1.711,5.169,1.726
			c3.135,0.026,6.076-1.772,7.768-4.349c2.711-4.13,3.089-9.101,2.373-13.921c1.447,0.046,2.96-0.156,4.682-0.753
			c3.691-1.279,7.227-3.864,9.534-7.006c2.07-2.82,4.006-6.913,3.751-10.52c-0.07-0.985-0.32-1.932-0.707-2.821
			c0.674-0.371,1.327-0.788,1.921-1.333c1.746-1.604,3.426-3.628,4.821-5.527c3.139-4.271,4.948-8.778,6.036-13.91
			c0.642-3.029,0.786-5.439,2.257-8.217c1.245-2.353,2.53-4.686,3.844-7.002c3.014-5.311,6.113-10.597,8.469-16.234
			c4.704-11.251,11.646-21.398,15.073-33.202c1.406-4.841,2.662-8.885,3.136-13.878c0.002-0.019,0.003-0.038,0.005-0.057
			c1.82-8.009,2.789-16.168,4.162-24.29c1.764-10.436,2.343-20.762,2.284-31.329C459.555,165.635,454.942,145.367,444.18,126.674z
			 M253.426,392.628c-3.45,13.569-8.434,26.677-13.15,39.84c-4.391,12.254-9.093,24.388-13.455,36.655
			c-2.344,6.592-4.334,13.329-6.784,19.879c-0.709,1.896-1.594,3.632-2.546,5.346c-0.202-1.326-0.39-2.657-0.6-3.987
			c-0.665-4.218-1.746-8.321-2.589-12.492c-0.441-2.184-3.235-3.77-5.332-3.028c-4.99,1.766-9.344,5.342-14.159,7.603
			c-1.148,0.539-2.283,1.092-3.413,1.646c0.722-1.287,1.456-2.567,2.194-3.845c3.702-6.412,6.879-12.936,9.999-19.645
			c5.839-12.555,13.316-24.527,18.076-37.545c4.767-13.035,9.371-26.063,13.767-39.236c2.142-6.42,4.033-12.843,5.065-19.543
			c0.64-4.151,1.392-8.149,1.051-12.178c6.034,4.391,11.821,5.768,18.613,3.959c1.44,4.809-1.056,11.484-2.214,16.162
			C256.274,378.988,255.145,385.867,253.426,392.628z M309.048,120.292c-15.072-7.885-32.826-11.926-49.708-13.295
			c-15.999-1.298-32.439,1.543-47.181,7.875c-14.303,6.144-26.315,16.722-34.702,29.832c-9.308,14.549-13.4,32.216-15.842,49.11
			c-2.692,18.617,2.705,37.568,10.084,54.408c3.55,8.1,7.604,16.144,13.499,22.834c2.412,2.737,5.231,6.189,8.602,8.036
			c-1.013,2.755-1.43,5.879-1.81,8.606c-0.509,3.649-1.194,7.279-1.867,10.91c-0.658-0.749-1.23-1.696-1.765-2.287
			c-1.307-1.443-2.779-2.731-4.057-4.203c-3.531-4.067-6.798-8.48-9.989-12.812c-5.603-7.605-10.673-15.897-14.22-24.669
			c-3.53-8.73-6.728-16.889-8.604-26.173c-1.93-9.55-3.123-19.249-3.125-29.009c-0.004-20.435,5.671-39.697,14.421-58.049
			c7.587-15.911,21.092-31.781,36.864-40.043c16.308-8.543,35.694-12.227,53.988-11.358c18.98,0.902,38.055,3.33,55.363,11.629
			c15.428,7.398,29.023,19.787,37.009,35.06c2.188,4.185,4.193,8.642,5.947,13.019c1.942,4.846,4.544,9.344,6.378,14.231
			c3.508,9.345,4.908,18.817,6.323,28.635c1.583,10.985,0.066,22.534-1.639,33.438c-0.798,5.102-1.806,10.198-3.411,15.115
			c-1.689,5.176-3.201,10.972-5.579,15.806c-4.525,9.201-9.421,17.286-16.461,24.827c-3.2,3.428-6.686,6.442-9.991,9.702
			c-0.523,0.516-0.889,1.181-1.343,1.759c-0.087,0.026-0.598,0.445-0.898,0.681c-0.733,0.575-1.472,1.139-2.208,1.707
			c-0.889-4.683-2.179-9.72-4.599-13.918c3.589-2.479,6.462-5.849,9.889-8.923c5.63-5.051,9.723-12.528,12.778-19.368
			c6.737-15.08,11.013-31.417,11.425-47.99C353.435,172.509,339.428,136.184,309.048,120.292z M190.188,261.346
			c-3.992-6.269-7.007-12.713-9.95-19.52c-5.62-13-8.919-27.711-8.316-41.962c0.292-6.9,2.04-13.93,3.592-20.652
			c1.843-7.983,4.343-15.68,8.067-22.998c6.132-12.05,16.018-22.498,27.983-28.862c25.524-13.575,56.012-11.03,82.425-1.433
			c13.499,4.905,24.961,13.858,32.893,25.784c7.78,11.697,12.571,27.576,13.667,41.515c1.29,16.408-1.381,33.037-7.729,48.229
			c-2.76,6.607-5.815,13.709-10.301,19.366c-2.069,2.609-4.78,4.6-6.974,7.11c-2.279,2.607-4.944,5.357-8.111,6.822
			c-0.212,0.098-0.382,0.219-0.568,0.332c-1.654,0.289-3.351,0.9-5.056,1.731c-7.495,3.652-13.452,8.54-18.767,14.978
			c-3.031,3.671-5.929,7.539-8.161,11.757c-1.197,2.263-1.42,2.712-4.145,2.3c-1.977-0.299-3.809-1.246-5.783-1.579
			c-2.136-0.36-4.616-0.962-6.8-0.769c-5.005,0.448-7.993,4.772-13.142,1.791c-2.38-1.378-3.958-3.427-5.496-5.602
			c-1.592-2.253-3.531-4.03-5.548-5.964c-5.742-5.506-11.113-11.413-17.424-16.298c-4.386-3.395-10.489-6.822-16.219-5.106
			c-0.71,0.212-1.342,0.502-1.928,0.836c-1.168-1.344-2.081-3.352-2.909-4.445C193.647,266.28,191.831,263.926,190.188,261.346z
			 M278.794,339.747c2.708,0.977,5.467,1.879,8.173,2.9c3.212,1.212,6.379,2.527,9.628,3.629c3.166,1.074,5.429-3.255,3.187-5.476
			c-2.191-2.17-5.776-2.944-9.013-3.69c-3.232-1.486-6.421-3.117-9.735-4.334c0.501-2.229,0.825-4.521,0.887-6.803
			c4.407-2.88,9.226-5.032,13.81-7.642c1.006-0.501,1.97-1.066,2.872-1.725c0.046-0.029,0.093-0.056,0.139-0.086
			c-0.002-0.004-0.005-0.008-0.007-0.012c0.202-0.151,0.413-0.289,0.608-0.452c2.564-2.138-0.834-6.598-3.595-4.659
			c-0.456,0.32-0.928,0.628-1.398,0.938c-2.636,1.584-5.736,2.506-8.337,4.186c-0.179,0.115-0.361,0.232-0.541,0.348
			c-1.499,0.517-3.001,0.961-4.43,1.584c-0.363-1.274-0.835-2.516-1.453-3.703c-0.513-0.984-1.103-1.899-1.746-2.76
			c1.52-1.566,3.119-2.941,4.555-4.763c2.156-2.737,4.47-5.372,6.733-8.019c4.49-5.251,8.965-9.967,14.988-13.42
			c1.381-0.792,2.432-1.48,3.334-1.805c0.855,0.574,1.854,0.927,2.945,0.938c0.302,0.366,0.612,0.818,0.942,1.397
			c1.82,3.189,2.549,6.856,3.111,10.444c1.191,7.608,1.323,14.865,1.087,22.533c-0.242,7.826-1.02,15.561-1.608,23.363
			c-0.301,4-0.23,7.9-0.823,11.863c-0.302,2.021-0.071,6.039-2.16,6.772c-2.516,0.884-7.483-0.799-9.984-1.298
			c-3.811-0.761-7.52-1.856-11.147-3.249c-5.807-2.231-10.929-5.645-16.436-8.383C275.646,345.941,277.411,343.046,278.794,339.747z
			 M272.6,332.78c-1.694,5.784-5.15,9.262-10.698,11.488c-4.487,1.801-8.722,2.462-12.927-0.137c-3.651-2.257-6.78-5.212-7.38-9.664
			c-0.646-4.795,0.749-9.522,2.965-13.724c1.411-2.675,4.664-6.062,8.209-8.006c2.198-0.687,4.425-1.235,6.593-1.449
			c0.27,0.029,0.517,0.006,0.74-0.062c4.595-0.286,8.872,1.064,11.969,5.996C274.951,321.806,274.06,327.797,272.6,332.78z
			 M198.88,287.128c0.614-3.306,1.553-7.094,5.488-5.504c2.81,1.135,5.349,3.452,7.627,5.404
			c6.059,5.193,11.574,10.981,17.634,16.183c4.05,3.477,7.484,7.08,12.234,9.288c-0.314,0.268-0.636,0.529-0.93,0.812
			c-1.699,1.632-3.112,3.566-4.269,5.67c-1.107-1.152-2.629-2.024-3.945-2.727c-1.45-0.775-2.967-1.438-4.485-2.066
			c-0.443-0.184-0.941-0.343-1.452-0.499c-1.304-0.675-2.64-1.256-4.02-1.543c-3.499-0.727-6.136,4.308-2.57,6.096
			c1.23,0.617,2.575,1.044,3.945,1.43c2.17,1.005,4.273,2.398,6.268,3.431c0.992,0.513,1.998,0.893,2.936,1.471
			c0.283,0.175,0.54,0.344,0.788,0.501c-0.775,2.576-1.251,5.223-1.449,7.772c-0.003,0.045-0.003,0.088-0.006,0.132
			c-1.103,0.118-2.22,0.499-3.315,0.96c-2.056,0.497-4.093,1.396-5.76,2.07c-2.367,0.958-7.191,1.735-8.865,3.833
			c-2.304,2.888,0.48,6.451,3.855,4.996c2.46-1.06,5.187-1.805,7.732-2.682c2.271-0.783,4.492-1.794,6.781-2.54
			c0.493,2.288,1.35,4.432,2.586,6.395c-0.161,0.132-0.324,0.26-0.481,0.424c-1.954,2.038-4.741,3.262-6.77,5.271
			c-2.77,2.745-5.955,4.786-9.188,7.064c-3.17,2.234-6.546,4.218-10.256,5.42c-2.443,0.791-7.083,3.025-9.05,0.198
			c-0.507-0.728-0.558-3.084-0.712-3.942c-0.444-2.476-0.9-4.773-0.986-7.305c-0.139-4.06-0.73-8.039-0.9-12.079
			c-0.382-9.06-1.35-18.08-1.289-27.169C196.116,305.116,197.279,295.753,198.88,287.128z M304.259,465.092
			c2.403,5.866,4.935,11.677,7.375,17.527c-0.995-0.454-2.004-0.89-3.049-1.28c-3.59-1.339-8.876-4.906-12.835-4.11
			c-5.09,1.024-4.381,6.219-5.809,10.03c-1.08,2.88-2.908,5.259-4.453,7.883c-1.953-6.039-3.189-12.379-5.317-18.31
			c-3.24-9.029-6.07-17.894-8.602-27.141c-2.518-9.196-4.243-18.697-6.416-27.989c-1.414-6.045-2.681-12.258-5.304-17.837
			c1.098-3.552,2.122-7.129,3.018-10.75c1.814-7.328,3.333-14.747,5.019-22.106c0.532-2.32,1.192-4.905,1.599-7.519
			c2.895,9.372,5.138,18.956,7.957,28.341c3.77,12.547,8.16,25.125,13.146,37.239C295.473,440.941,299.387,453.2,304.259,465.092z
			 M447,215.53c-0.681,3.978-1.074,8.017-1.66,12.013c-0.889,2.589-1.247,5.384-1.706,8.146c-0.352,1.205-0.72,2.404-1.031,3.625
			c-0.254,0.994-0.376,1.975-0.451,2.954c-0.817,3.263-1.575,6.466-2.563,9.755c-3.407,11.33-9.452,21.399-13.747,32.384
			c-1.184,3.026-2.613,5.941-4.134,8.811c-1.904-1.17-4.238-1.998-5.877-3.09c-4.909-3.27-9.883-6.759-15.079-9.572
			c-9.032-4.89-18.797-8.722-28.529-11.947c-0.488-0.162-1.018,0.362-0.853,0.853c1.391,4.124,4.575,5.529,8.122,7.767
			c4.549,2.87,9.216,5.604,13.883,8.258c4.621,2.628,8.792,5.681,13.202,8.651c2.307,1.554,4.471,3.277,6.76,4.857
			c1.281,0.885,2.71,1.408,4.051,2.039c-2.307,3.941-5.343,8.076-6.473,12.435c-1.227,4.729-1.313,9.183-3.879,13.478
			c-1.25,2.091-2.89,4.81-4.874,6.34c-1.234,0.952-2.643,1.62-4.003,2.395c-2.716-2.895-6.214-4.96-9.412-7.679
			c-5.533-4.705-11.703-9.123-18.272-12.259c-2.008-0.959-4.097,0.992-3.046,3.046c3.507,6.852,9.856,11.249,15.642,16.076
			c2.497,2.083,5.211,3.572,7.958,5.278c0.892,0.554,1.779,1.165,2.659,1.757c0.673,0.452,1.336,0.951,1.789,1.623
			c0.499,0.739,0.708,1.636,0.813,2.521c0.128,1.084,0.11,2.207-0.253,3.236c-1.665,4.717-6.809,4.445-10.785,3.152
			c-3.399-1.106-6.665,2.422-5.724,5.724c0.93,3.265,1.662,6.748,1.21,10.165c-0.043,0.324-0.509,3.421-0.926,3.592
			c0.009-0.004-2.301-2.028-2.425-2.098c-4.296-2.405-7.626,0.558-9.451,4.372c-1.657,3.462-2.144,8.831-4.876,11.636
			c-1.843,1.893-3.342,1.247-4.161-1.754c-0.784-2.872,0.533-5.946,0.493-8.827c-0.05-3.676-3.252-5.492-6.555-4.993
			c-5.244,0.792-10.349,5.329-15.014,7.755c-5.685,2.957-12.041,4.531-18.077,6.627c-10.347,3.593-21.266,4.799-31.721,7.746
			c-0.144-0.436-0.294-0.87-0.436-1.307c-3.134-9.675-5.924-19.852-10.335-29.144c1.845,0.812,3.693,1.578,5.483,2.294
			c7.22,2.891,14.654,4.651,22.337,5.732c5.555,0.781,11.887,2.025,15.355-3.597c3.367-5.458,3.389-13.467,3.473-19.619
			c0.116-8.508,1.405-16.958,1.433-25.477c0.018-5.234-0.192-10.277-0.712-15.342c0.269-0.108,0.537-0.245,0.803-0.42
			c2.938-1.933,5.863-3.211,8.376-5.65c3.713-3.602,7.441-7.061,10.935-10.911c6.529-7.194,12.173-14.939,16.149-23.834
			c2.189-4.898,4.124-9.913,5.805-15.015c4.287,3.832,11.127,6.26,15.591,8.382c7.594,3.61,15.023,6.797,22.87,9.798
			c2.26,0.865,4.64-2.225,3.226-4.196c-4.362-6.079-13.487-8.979-20.1-11.95c-6.273-2.819-12.971-6.289-19.725-8.108
			c3.67-12.86,5.72-26.207,5.981-39.64c0.214-11.064-1.445-22.477-4.206-33.201c-2.649-10.289-7.491-19.953-11.973-29.523
			c-7.275-15.534-17.331-29.433-31.232-39.448c2.853-3.639,4.852-9.475,5.795-12.194c1.563-4.504,3.591-9.495,4.861-14.518
			c3.042-7.009,6.108-14.668,5.44-21.816c-0.193-2.062-2.862-2.469-3.589-0.486c-2.421,6.606-5.678,12.863-8.525,19.316
			c-2.138,3.979-4.2,7.99-5.621,12.35c-1.268,3.891-3.68,8.657-4.644,13.255c-16.845-9.94-35.746-13.859-55.033-15.579
			c-11.084-0.988-22.038-1.218-33.074,0.39c-4.025,0.587-7.901,1.368-11.709,2.323c-0.076-2.627-1.6-5.398-2.676-7.979
			c-2.051-4.924-4.861-9.538-7.113-14.381c-5.38-11.571-11.367-22.961-17.543-34.126c-0.907-1.64-3.204-0.2-2.466,1.442
			c4.905,10.913,8.322,22.487,12.533,33.68c1.79,4.757,3.827,9.363,5.694,14.081c1.173,2.964,1.887,6.738,3.72,9.529
			c-3.316,1.058-6.619,2.24-9.962,3.556c-17.77,6.998-32.423,21.491-42.519,37.501c-10.674,16.928-18.873,39.143-19.934,59.32
			c-2.643-0.693-5.537-0.931-7.921-1.318c-4.619-0.749-9.251-1.411-13.891-2.016c-12.949-1.689-26.093-2.854-38.966-4.992
			c-2.012-0.334-2.907,2.544-0.86,3.119c12.894,3.624,25.644,6.884,38.794,9.499c4.845,0.964,9.699,1.904,14.504,3.052
			c2.733,0.653,5.463,1.661,8.08,1.774c-0.087,9.039,0.331,18.062,1.919,27.007c1.067,6.009,2.246,12.087,3.96,17.948
			c1.555,5.32,4.027,10.24,6.137,15.345c-2.601,0.642-5.215,2.508-7.322,3.746c-4.858,2.856-9.499,6.047-14.337,8.939
			c-9.115,5.447-18.083,10.528-26.247,17.373c-2.147,1.8,0.223,4.767,2.513,4.318c5.559-1.089,10.53-4.405,15.368-7.214
			c5.304-3.08,10.658-6.202,15.715-9.676c4.514-3.102,9.024-6.538,13.129-10.167c0.957-0.846,2.191-1.868,3.053-3.026
			c2.217,4.842,4.789,9.535,7.639,14.057c-3.206,0.105-6.696,2.828-8.96,4.723c-4.296,3.596-8.364,6.952-12.943,10.126
			c-9.561,6.625-17.671,15.553-26.44,23.14c-0.982,0.849,0.32,2.568,1.4,1.814c16.64-11.613,35.645-20.272,49.752-35.075
			c0.063-0.065,0.112-0.133,0.166-0.2c1.905,2.773,3.895,5.483,5.969,8.109c3.184,4.031,6.51,8.129,10.174,11.731
			c2.19,2.154,4.711,4.738,7.783,5.449c-0.395,2.476-0.735,4.959-0.946,7.457c-0.793,9.383-0.173,18.771-0.438,28.154
			c-0.226,8.021-0.404,17.126,1.496,24.984c1.592,6.585,7.622,9.537,14.017,9.22c7.732-0.383,16.105-5.233,22.188-9.672
			c2.82-2.058,5.615-3.735,8.133-5.988c-2.925,8.429-5.6,16.979-8.434,25.394c-1.308,3.885-2.644,7.775-4.014,11.656
			c-0.029-0.007-0.054-0.016-0.083-0.022c-8.542-1.831-17.353-4.271-25.564-7.25c-4.065-1.475-8.1-3.259-12.278-4.377
			c-4.489-1.202-8.579-1.033-11.871-4.797c-3.801-4.348-6.057-14.63-14.045-10.492c-1.58,0.819-2.255,2.606-3.61,3.491
			c-1.724,1.127-0.084,1.166-1.843,0.066c-2.922-1.829-3.84-8.459-4.152-11.508c-0.325-3.169-3.021-5.988-6.476-4.933
			c-2.915,0.89-3.858,2.564-5.665,4.87c-0.826,1.054-2.173,3.963-3.807,3.722c-1.464-0.215-2.137-2.915-2.402-4.048
			c-0.72-3.074-0.383-6.47,0.072-9.56c0.725-4.911,4.167-7.566,7.216-11.315c6.788-8.348,15.444-15.178,20.489-24.843
			c1.116-2.139-1.138-4.483-3.305-3.305c-8.994,4.894-17.459,14.315-23.408,22.535c-2.86,3.951-6.466,6.666-9.941,10.003
			c-2.104,2.02-3.315,4.856-5.404,6.926c-5.644,5.595-4.828-0.982-3.919-5.288c0.967-4.583,2.548-9.019,3.907-13.495
			c0.754-2.486-0.899-5.481-3.453-6.081c-3.469-0.816-6.089,0.771-9.194,2.138c-2.149,0.947-7.936,5.133-10.373,4.299
			c-0.011-0.089-0.023-0.182-0.04-0.292c0.038-0.753,0.161-1.493,0.371-2.219c0.238-1.054,0.579-2.101,0.93-3.121
			c1.032-2.993,3.439-4.625,4.511-7.558c1.239-3.388-2.575-6.958-5.876-5.876c-2.242,0.735-5.376,1.111-7.695,0.658
			c-0.293-0.057-1.083-0.213-1.673-0.431c-0.036-0.264-0.099-0.798,0.34-1.404c2.968-4.096,6.467-6.795,10.115-10.278
			c9.187-8.772-2.648-14.763-8.068-21.014c-7.794-8.99-14.26-17.869-17.683-29.414c-3.689-12.439-4.178-25.13-4.881-37.981
			c-0.22-4.027-0.337-8.011-0.347-11.978c6.687,1.712,14.045,1.468,20.702,2.587c11.021,1.853,22.182,3.789,33.248,1.285
			c2.661-0.602,2.624-4.72,0-5.347c-10.906-2.603-22.6-3.295-33.735-4.7c-5.005-0.632-10.045-0.558-15.069-0.812
			c-1.722-0.087-3.379-0.288-5.024-0.457c0.26-6.505,0.909-12.991,2.104-19.548c2.166-11.888,2.788-24.304,7.6-35.472
			c1.075-2.495,2.209-4.916,3.741-7.167c1.067-1.569,2.655-2.949,3.783-4.54c0.138,0.111,0.272,0.228,0.416,0.331
			c4.083,2.911,8.896,4.787,13.329,7.077c8.8,4.546,17.123,7.479,26.958,8.79c2.194,0.292,2.73-2.965,1.071-3.953
			c-8.825-5.256-18.804-9.581-28.185-13.799c-4.002-1.799-8.098-3.67-12.174-5.277c-0.208-3.904,0.889-5.765,3.835-8.451
			c3.919-3.574,8.846-5.792,12.758-9.311c1.694-1.524,3.138-3.35,3.528-5.658c0.482-2.846-0.925-4.242-1.841-6.64
			c-2.087-5.466,6.806-11.319,10.749-13.813c3.81-2.409,10.601-4.332,11.665-9.375c0.457-2.165-0.352-3.81-1.549-5.536
			c-0.927-1.337-4.911-5.844-4.361-6.662c0.814-1.211,7.189,0.108,8.517,0.431c4.456,1.083,8.549,3.403,12.067,6.455
			c3.666,3.18,5.395,8.634,7.776,12.852c5.563,9.855,11.44,21.054,20.316,28.357c1.881,1.548,4.531-0.345,3.397-2.621
			c-5.381-10.809-11.773-20.973-17.932-31.341c-3.146-5.297-6.543-10.414-9.808-15.636c-1.495-2.392-3.147-4.446-4.871-6.434
			c-1.354-2.756-2.685-5.523-3.941-8.346c-1.156-2.597-4.675-9.983,1.226-7.516c3.202,1.338,5.699,3.652,8.438,5.699
			c2.439,1.822,4.302,4.304,7.639,4.046c2.631-0.203,5.466-2.753,4.338-5.695c-1.148-2.994-2.144-6.725-2.127-9.931
			c0.022-4.38,3.854-4.361,6.961-2.654c2.123,1.167,3.979,2.936,5.911,4.386c2.17,1.628,4.934,2.674,6.457,5.139
			c2.061,3.334,2.966,7.416,4.759,10.915c4.786,9.341,9.841,18.308,15.97,26.83c1.579,2.196,4.601,0.822,4.223-1.78
			c-1.536-10.55-8.012-20.067-13.016-29.244c-1.859-3.409-3.746-7.194-3.297-11.197c0.437-3.895,1.411-8.372,3.14-11.925
			c1.481-3.042,2.518-1.399,4.326,0.669c1.135,1.299,2.22,2.467,3.902,3.049c2.977,1.029,5.692-0.029,8.124-1.785
			c2.672-1.93,2.763-2.596,5.946-1.374c1.955,0.75,3.81,1.558,5.877,1.974c8.012,1.614,16.255-3.648,23.823-5.684
			c9.399-2.53,19.12-3.035,28.811-3.26c9.861-0.23,20.033-0.074,29.8,1.343c9.076,1.317,19.623,2.451,28.034,6.146
			c3.942,1.731,8.026,2.94,12.037,4.491c4.541,1.756,8.647,4.334,12.877,6.724c7.494,4.234,14.9,8.895,20.677,15.349
			c2.682,2.996,5.959,8.971,9.867,12.494c-2.161,2.654-4.093,5.471-6.338,8.141c-6.621,7.873-11.975,17.767-16.158,27.135
			c-0.577,1.293,1.047,2.933,2.144,1.654c3.32-3.871,7.131-7.22,10.636-10.91c3.465-3.648,6.387-7.793,9.591-11.666
			c2.069-2.501,4.419-5.217,5.951-8.091c1.933-3.628,5.432-5.488,7.892-8.576c2.269-2.848,4.395-6.335,7.999-7.625
			c2.654-0.949,2.722,0.482,1.336,2.71c-1.42,2.284-3.364,3.966-4.612,6.397c-1.452,2.828,0.263,7.406,4.022,7.009
			c4.112-0.434,7.769-2.578,11.49-4.313c1.98-0.924,2.621-1.865,1.324,0.403c-1.091,1.907-2.598,3.542-3.649,5.471
			c-3.036,5.574,0.47,10.027,6.359,10.529c2.041,0.174,4.066-0.215,6.095-0.102c5.164,0.286,1.535,3.29-0.184,5.905
			c-1.01,1.537-1.634,3.273-2.348,4.956c-0.851,2.004-1.745,2.676-3.488,3.96c-3.304,2.432-6.632,4.833-10.006,7.168
			c-4.413,3.055-8.773,6.197-13,9.505c-4.51,3.529-8.048,8.08-12.605,11.537c-1.592,1.208-0.778,4.188,1.473,3.493
			c4.561-1.409,8.141-4.224,11.957-6.983c4.737-3.425,9.684-6.535,14.39-10.02c2.767-2.049,5.685-3.887,8.464-5.921
			c1.536-1.124,3.043-2.295,4.459-3.568c0.847-0.761,1.617-2.112,2.727-2.516c1.275-0.465,2.763,0.576,4.129,0.782
			c0.236,0.036,3.521,0.142,3.632,0.458c0.133,0.377-2.325,3.8-2.679,4.304c-1.544,2.195-3.658,4.424-4.551,7.028
			c-5.218,3.802-10.08,8.138-15.285,11.941c-7.994,5.84-15.134,12.012-21.754,19.402c-1.664,1.858,0.404,4.49,2.622,3.398
			c8.98-4.423,16.857-11.107,24.721-17.24c3.843-2.998,7.452-6.153,10.979-9.512c0.081-0.077,0.168-0.154,0.249-0.23
			c0.882,1.222,1.924,2.366,2.854,3.618c2.655,3.573,5.001,7.597,6.961,11.585c4.261,8.668,8.752,16.931,11.58,26.236
			c2.778,9.142,4.079,19.337,3.991,28.876C448.885,194.154,448.842,204.772,447,215.53z"/>
	</g>
</g>
<g>
	<g>
		<path d="M325.272,38.091c-5.128,6.041-7.318,13.915-9.821,21.296c-2.277,6.713-4.732,13.5-4.826,20.632
			c-0.015,1.15,1.684,1.679,2.231,0.604c1.342-2.637,3.313-4.964,4.665-7.63c1.624-3.203,2.762-6.66,4.027-10.01
			c2.832-7.501,5.925-14.786,7.516-22.686C329.471,38.275,326.858,36.222,325.272,38.091z"/>
	</g>
</g>
<g>
	<g>
		<path d="M416.263,136.091c-7.684,2.037-15.487,5.195-22.453,9.041c-6.947,3.835-13.244,8.802-19.92,13.029
			c-1.614,1.022-0.562,3.423,1.279,3.033c7.191-1.523,14.03-6.277,20.321-9.848c7.351-4.172,14.825-7.835,21.939-12.491
			C418.835,137.935,417.971,135.639,416.263,136.091z"/>
	</g>
</g>
<g>
	<g>
		<path d="M394.987,310.85c-4.253-4.023-8.884-7.288-13.695-10.602c-5.522-3.803-12.213-6.306-17.425-10.432
			c-0.604-0.479-1.396,0.264-0.861,0.861c8.233,9.19,17.607,20.179,29.998,23.578C394.93,314.783,396.484,312.267,394.987,310.85z"
			/>
	</g>
</g>
<g>
	<g>
		<path d="M125.869,165.966c-5.459-4.643-13.387-6.096-19.992-8.621c-7.154-2.734-16.186-3.498-22.716-7.394
			c-2.029-1.21-3.831,1.907-1.845,3.156c12.679,7.971,27.497,14.134,42.224,16.861C125.661,170.361,127.861,167.66,125.869,165.966z
			"/>
	</g>
</g>
<g>
	<g>
		<path d="M179.703,83.831c-6.263-13.028-14.994-24.057-22.444-36.328c-1.051-1.73-3.759-0.16-2.72,1.59
			c3.932,6.622,7.948,13.236,11.562,20.04c3.165,5.958,5.697,12.213,10.402,17.167C178.176,88.061,180.663,85.83,179.703,83.831z"/>
	</g>
</g>
<g>
	<g>
		<path d="M300.806,27.395c-0.32-0.225-0.867,0.071-0.822,0.471c0.265,2.335-2.73,7.208-3.412,9.555
			c-1.101,3.791-2.012,7.653-2.926,11.493c-1.737,7.294-3.44,14.515-4.357,21.966c-0.251,2.041,3.078,2.906,3.914,1.06
			c3.933-8.687,5.563-17.992,7.125-27.341C300.936,40.96,304.57,30.051,300.806,27.395z"/>
	</g>
</g>
<g>
	<g>
		<path d="M436.769,168.283c-7.426,1.583-14.923,2.766-22.386,4.154c-7.455,1.387-14.4,4.859-21.794,6.069
			c-1.836,0.3-1.259,2.996,0.419,3.094c7.801,0.456,15.464-2.255,23.178-3.212c7.544-0.935,15.037-1.491,22.314-3.827
			C442.5,173.277,440.868,167.41,436.769,168.283z"/>
	</g>
</g>
<g>
</g>
<g>
</g>
<g>
</g>
<g>
</g>
<g>
</g>
<g>
</g>
<g>
</g>
<g>
</g>
<g>
</g>
<g>
</g>
<g>
</g>
<g>
</g>
<g>
</g>
<g>
</g>
<g>
</g>
</svg>
