<?xml version="1.0" encoding="iso-8859-1"?>
<!-- Generator: Adobe Illustrator 19.0.0, SVG Export Plug-In . SVG Version: 6.00 Build 0)  -->
<svg version="1.1" id="Layer_1" xmlns="http://www.w3.org/2000/svg" xmlns:xlink="http://www.w3.org/1999/xlink" x="0px" y="0px"
	 viewBox="0 0 511.998 511.998" style="enable-background:new 0 0 511.998 511.998;" xml:space="preserve">
<g>
	<g>
		<path d="M384.612,391.918c-0.727-10.009-6.567-18.38-11.52-26.864c-1.491-2.554-3.258-4.844-4.847-7.294
			c-1.416-2.182-1.993-4.832-3.147-7.149c-2.158-4.333-5.363-7.752-8.744-11.141c-2.997-3.004-3.565-8.865-5.237-12.86
			c-1.409-3.364-3.051-6.558-4.98-9.657c-1.834-2.946-3.715-5.853-5.556-8.789c-1.299-2.073-2.202-4.26-3.645-6.142
			c1.054-1.355,2.084-2.725,3.095-4.095c4.059-5.495,8.658-11.422,11.663-17.562c6.155-12.574,10.959-26.523,10.892-40.631
			c-0.022-4.601,0.208-9.638-2.51-13.616c-3.141-4.598-9.43-5.136-14.409-6.269c-5.062-1.151-10.435-1.605-15.791-1.343
			c0.524-7.618-0.609-15.417-0.676-23.04c-0.042-4.818-0.433-9.67-0.572-14.493c-0.114-3.955,0.18-8.295-1.457-11.938
			c4.825-5.858,7.891-12.027,10.029-19.536c1.093-3.839,1.668-7.353,1.943-11.334c0.284-4.108,1.285-8.408,0.833-12.525
			c-0.409-3.727-0.758-9.324-3.878-11.847c4.096-9.078,4.458-20.527-0.198-29.164c-1.506-2.794-3.556-5.013-6.197-6.221
			c2.103-5.466,0.506-11.662,0.571-17.31c0.068-5.901,0.31-11.67,0.224-17.587c-0.108-7.489-0.438-14.997-0.404-22.482
			c0.022-4.898,1.401-12.141-1.848-16.314c-3.104-3.989-9.859-4.541-14.517-4.681c-5.794-0.174-13.35,0.237-18.567,2.988
			c-4.733,2.496-6.727,7.578-6.621,12.689c0.074,3.551,0.184,7.224,0.573,10.841c-1.481,18.835-0.965,37.936-1.315,56.765
			c-0.117,6.321-0.422,12.711-0.597,19.098c-1.404,0.322-2.5,1.252-3.861,2.137c-0.094,0.061-0.2,0.127-0.299,0.19
			c-0.251-3.339-0.687-6.638-1.323-9.683c-1.322-6.33-3.052-12.083-6.508-17.583c-1.438-2.289-3.067-4.203-4.839-5.841
			c1.432-1.771,2.457-4.116,3.342-5.947c2.36-4.884,4.309-9.137,3.587-14.665c-1.208-9.253-9.106-16.092-18.646-14.517
			c-5.088,0.84-10.274,1.399-15.276,2.717c-0.799,0.211-1.583,0.436-2.358,0.672c-0.284-0.556-0.707-1.074-1.304-1.511
			c-1.416-1.038-2.331-2.82-3.59-4.039c-0.049-0.048-0.104-0.091-0.154-0.138c0.339-0.357,0.666-0.71,0.985-1.037
			c1.424-1.457,3.413-3.151,5.074-3.891c2.411-1.073,1.99-5.516-0.717-5.922c-2.943-0.441-5.003,0.818-7.012,2.645
			c-0.193-1.282-0.514-2.538-1.033-3.699c-0.494-1.103-2.141-1.733-3.265-1.365c-2.668,0.873-3.059,3.371-2.624,5.831
			c0.025,0.145,0.072,0.284,0.103,0.428c-1.187-0.956-2.405-1.871-3.722-2.666c-6.281-3.792-13.074-7.02-20.351-8.109
			c-14.883-2.227-30.99-2.404-43.48,7.32c-10.921,8.502-15.34,24.028-17.061,37.188c-1.029,7.867-0.893,15.968,0.43,23.791
			c0.871,5.151,2.03,11.948,5.796,16.019c-2.639,3.099-5.129,6.327-7.454,9.665c-0.303,0.435-0.632,0.904-0.979,1.403
			c-0.292-1.98-0.347-4.006-0.624-5.991c-0.603-4.329-7.86-2.606-6.637,1.916l-0.096-0.128c0.25,1.451,0.338,2.934,0.52,4.398
			c-1.757-0.379-3.637-0.33-4.943,0.62c-1.716,1.249-2.164,3.339-0.694,5.015c1.301,1.484,2.981,1.74,4.782,2.193
			c0.746,0.188,1.462,0.445,2.174,0.613c-3.959,7.108-6.776,15.406-1.597,20.656c3.738,3.79,9.362,3.936,14.254,3.39
			c3.397-0.379,7.024-0.522,10.367-1.311c0.467-0.11,2.26-0.618,3.754-1.238c-0.928,6.694,2.732,12.474,8.904,15.217
			c3.496,1.554,7.703,1.89,11.444,1.026c2.398-0.554,4.668-2.576,6.507-3.731c1.332,0.899,2.607,1.923,3.907,2.897
			c-3.533,3.424-5.83,9.921-7.337,13.273c-4.416,9.819-5.123,19.478-6.292,29.998c-2.29,20.602,1.313,40.472,11.835,58.385
			c5.331,9.076,10.059,18.528,14.004,28.245c2.942,7.248,11.297,6.643,17.996,5.627c0.911-0.138,1.818-0.37,2.721-0.649
			c3.933,5.189,8.454,8.909,15.014,11.513c3.28,1.303,6.767,2.265,10.32,2.827c1.621,4.219,5.895,7.755,9.214,10.268
			c4.093,3.098,8.892,5.377,13.905,6.738c-1.948,2.35-3.256,5.43-4.421,8.034c-2.504,5.6-3.74,11.529-3.498,17.662
			c0.301,7.64,5.107,21.622,14.123,22.964c-0.003,26.889-0.481,53.669-0.178,80.561c0.074,6.578,0.654,13.128,0.54,19.71
			c-0.11,6.367-0.774,13.06-0.122,19.387c1.279,12.415,9.952,17.827,21.565,19.059c5.445,0.578,10.591,2.008,15.884,0.043
			c4.243-1.575,9.509-4.229,10.402-9.112c2.208-12.072,3.466-24.41,3.659-36.688c0.225-14.303-0.406-28.741-1.384-42.995
			c-0.652-9.515-0.912-19.137-1.731-28.665c5.021,4.402,10.586,8.318,16.233,11.246c7.599,3.939,17.311,7.974,26.075,7.618
			C382.081,411.964,385.273,401.005,384.612,391.918z M341.125,321.91c1.879,3.376,3.832,7.195,4.758,11.002
			c-2.259-1.06-4.365-2.453-6.708-3.324c-2.35-0.873-4.764-1.077-7.209-1.479c-1.514-0.248-2.842-0.245-4.158-0.165
			c-0.06-4.625-0.723-9.528-1.326-14.119c-0.015-0.114-0.024-0.227-0.038-0.341c0.036-0.03,0.073-0.048,0.108-0.079
			c2.394-2.117,4.612-4.451,6.714-6.893C335.323,311.887,338.336,316.897,341.125,321.91z M339.58,226.499
			c3.573,0.551,12.767,1.654,14.22,5.325c1.56,3.94,0.718,11.334,0.004,15.302c-1.972,10.959-5.301,22.524-11.168,32.113
			c-4.789,7.827-10.467,15.257-16.562,22.184c0.001-0.333,0.003-0.665,0.002-0.999c-0.013-5.34-0.589-10.731-0.92-16.076
			c-0.201-3.243-0.161-7.006-1.242-10.213c3.408-1.447,6.304-4.028,9.052-6.558c3.919-3.608,8.346-7.924,8.643-13.536
			c0.127-2.407-2.747-3.138-4.346-1.848c-3.541,2.855-6.162,6.97-9.343,10.243c-1.556,1.601-3.194,3.059-4.854,4.489
			c-0.018-0.358-0.039-0.709-0.066-1.044c-0.743-9.156-1.953-17.613-4.091-26.549c-0.912-3.812-1.327-7.789-3.554-11.128
			c-0.154-0.231-0.333-0.445-0.502-0.665c1.839-0.294,3.674-0.678,5.468-0.909C326.378,225.851,333.538,225.566,339.58,226.499z
			 M320.808,400.143c-1.479,0.664-2.878,1.569-4.32,2.43c-3.989,2.381-8.201,4.423-12.272,6.659
			c-5.627,3.091-10.579,6.192-15.458,9.911c0.053-7.358,0.165-14.714,0.261-22.072c0.748-0.454,1.486-0.945,2.248-1.372
			c3.407-1.908,6.808-3.817,10.272-5.62c5.103-2.656,11.248-5.031,16.266-8.33c0.843,1.149,1.708,2.247,2.569,3.239
			c0.389,0.449,0.787,0.896,1.191,1.341C320.75,390.772,320.618,395.474,320.808,400.143z M318.649,319.027
			c-2.775,1.506-5.468,3.489-8.125,5.114c-3.391,2.074-6.894,3.905-10.206,6.102c-2.933,1.946-7.875,4.236-11.303,7.188
			c-0.026-1.569-0.038-3.138-0.078-4.705c-0.117-4.613-0.047-9.251,0.014-13.892c5.195-1.832,10.317-5.517,14.801-8.352
			c4.707-2.977,9.484-5.817,14.265-8.658c0.012,1.142,0.013,2.285-0.018,3.431C317.866,309.979,318.321,314.366,318.649,319.027z
			 M312.597,378.565c-3.671,1.98-7.358,3.894-10.999,5.933c-4.536,2.539-8.574,5.207-12.523,8.178
			c0.077-6.587,0.128-13.177,0.091-19.77c2.979-1.19,5.981-3.453,8.403-4.597c3.688-1.743,7.556-3.561,11.16-5.67
			c0.639,3.979,2.372,6.972,4.042,10.681c0.587,1.305,1.308,2.653,2.1,3.992C314.156,377.694,313.418,378.121,312.597,378.565z
			 M308.279,347.513c-1.189,3.281-0.943,6.265-0.459,9.354c-4.475,2.611-8.933,5.229-13.477,7.745
			c-1.358,0.752-3.358,1.796-5.195,3.062c-0.031-8.392,0.023-16.782-0.051-25.163c1.694-0.686,3.319-1.942,4.805-2.753
			c3.862-2.108,7.514-4.559,11.34-6.714c3.658-2.061,7.337-4.053,10.975-6.16c1.018-0.589,2.016-1.109,2.944-1.666
			c0.229,3.581-0.028,6.977-2.752,9.987C313.062,338.902,310.006,342.747,308.279,347.513z M321.712,192.859
			c-1.596,0.407-2.985,1.506-4.342,2.398c-3.17,2.084-6.436,3.935-9.697,5.86c-3.348,1.976-7.645,4.031-10.961,6.75
			c-0.106-4.761-0.466-9.601-1.525-13.91c9.996-4.56,18.954-11.434,26.768-19.269c-0.052,1.808-0.025,3.614-0.106,5.279
			C321.639,184.283,321.725,188.566,321.712,192.859z M296.704,217.54c0.018-1.542,0.038-3.156,0.046-4.799
			c4.625-2.03,8.982-4.927,13.398-7.296c3.1-1.663,6.171-3.293,9.157-5.165c0.671-0.421,1.495-0.831,2.32-1.264
			c-0.095,6.687,0.042,13.749,0.854,20.326c-4.412,0.78-8.708,2.063-12.693,3.876c-1.186-0.718-2.416-1.352-3.616-1.92
			c-3.072-1.455-6.283-2.35-9.562-2.901C296.665,218.128,296.7,217.844,296.704,217.54z M332.443,92.625
			c1.334,6.459-1.22,14.075-3.172,20.411c-0.596,0.248-1.154,0.57-1.677,0.957c-4.283-1.028-8.986-3.231-8.299-8.364
			c0.681,0.285,1.426,0.429,2.132,0.414c1.48-0.033,2.671-0.962,4.081-1.203c1.961-0.335,1.716-3.17,0.035-3.697
			c-1.669-0.522-2.917,0.046-4.413,0.768c-0.325,0.157-0.669,0.275-1.016,0.386c0.259-1.046,0.37-2.062-0.034-3.421
			c-0.455-1.535-1.269-2.507-1.468-4.154c-0.142-1.172,0.105-1.945,0.374-2.797c0.215,0.167,0.422,0.318,0.609,0.444
			c1.95,1.321,4.653,2.198,6.969,1.398c0.93-0.321,1.63-1.719,0.678-2.474c-1.566-1.242-3.459-1.797-5.256-2.622
			c-0.832-0.382-1.746-0.927-2.666-1.314c-0.045-1.271,0.698-2.332,2.258-3.177c0.997-0.305,1.994-0.61,2.99-0.915
			C329.221,83.01,331.657,88.816,332.443,92.625z M322.812,38.325c-7.496,1.983-21.044,11.012-27.445,16.752
			c-0.075-6.223-0.223-12.444-0.518-18.654c5.161-2.838,9.656-7.55,14.673-10.419c2.997-1.714,6.037-3.538,9.119-5.097
			c1.327-0.671,2.74-1.12,4.144-1.59c-0.128,1.365-0.252,2.585-0.26,3.456C322.477,27.959,322.753,33.137,322.812,38.325z
			 M322.29,54.853c0.051,1.097,0.113,2.195,0.178,3.294c-0.932,0.237-1.854,0.628-2.791,1.018c-4.1,1.708-8.063,3.776-11.868,6.058
			c-3.916,2.348-8.793,5.011-12.378,8.501c0.008-4.745,0.01-9.494-0.023-14.245c5.406-3.137,10.325-7.167,15.726-10.328
			c3.699-2.165,7.87-3.507,11.773-5.272c0.057,1.602,0.109,3.205,0.012,4.79C322.791,50.768,322.192,52.744,322.29,54.853z
			 M295.15,98.893c2.868-1.442,5.625-3.279,8.372-4.777c2.993-1.632,6.32-2.992,9.359-4.687c-0.065,0.413-0.145,0.825-0.27,1.234
			c-0.715,2.344-1.393,4.528-0.678,7.003c0.31,1.074,0.963,1.925,1.067,3.083c0.102,1.133-0.208,2.003-0.465,3.026
			c-4.039,0.929-7.949,3.662-11.239,5.803c-1.552,1.01-4.077,2.363-6.221,3.992C294.965,108.698,295.041,103.792,295.15,98.893z
			 M304.456,113.463c2.537-1.482,5.441-2.531,8.12-3.817c0.199,0.762,0.463,1.507,0.808,2.213c1.178,2.41,3.047,4.45,5.37,5.667
			c-4.15,2.028-8.193,5.056-11.541,7.61c-3.512,2.679-7.011,5.454-10.423,8.259c-0.292,0.24-0.574,0.476-0.849,0.711
			c-0.031-4.221-0.18-8.423-0.493-12.562c-0.066-0.875-0.121-1.752-0.17-2.63C298.322,117.071,301.391,115.253,304.456,113.463z
			 M295.923,139.009c1.184-0.646,2.294-1.478,3.433-2.224c3.422-2.242,6.673-4.664,9.934-7.124c3.34-2.52,7.084-4.576,10.684-6.67
			c0.828-0.481,1.657-0.923,2.449-1.398c-1.229,2.914-2.128,5.928-2.981,8.042c-3.346,8.291-9.502,14.124-16.087,19.817
			c-2.383,2.06-5.183,3.624-8.019,5.103C295.637,149.424,295.856,144.215,295.923,139.009z M323.227,77.541
			c-3.643,0.523-7.333,2.673-9.084,5.913c-4.502,0.338-9.451,4.453-12.942,6.602c-2.098,1.291-4.098,2.53-5.938,3.938
			c0.082-3.55,0.155-7.09,0.156-10.602c0.001-1.791,0.005-3.587,0.008-5.38c2.088-1.238,4.453-2.393,6.278-3.502
			c2.82-1.714,5.668-3.384,8.533-5.042c3.907-2.261,8.525-3.712,12.574-5.789c0.117,1.867,0.229,3.734,0.314,5.595
			C323.269,72.45,322.373,75.144,323.227,77.541z M294.483,20.546c0.172-2.659-0.449-6.67,1.043-8.989
			c1.725-2.68,5.467-3.167,8.317-3.643c4.561-0.762,13.082-1.856,17.36,0.709c1.468,0.88,1.864,3.234,1.868,5.849
			c-2.177,0.934-4.51,1.44-6.616,2.612c-3.507,1.951-7.135,3.931-10.494,6.124c-3.48,2.271-8.068,5.217-11.337,8.747
			c-0.136-2.288-0.29-4.574-0.474-6.857C294.282,23.592,294.383,22.077,294.483,20.546z M294.603,161.86
			c6.935-3.226,12.462-6.718,18.485-11.368c5.222-4.031,9.832-10.357,12.714-16.271c1.574-3.231,2.445-6.729,3.711-10.076
			c0.487-1.289,1.767-5.232,4.078-3.71c0.4,0.264,0.498,4.486,0.545,5.355c0.372,6.895-1.284,15.365-3.474,21.842
			c-1.199,3.546-2.059,6.896-4.256,10.005c-2.536,3.589-5.368,7-8.513,10.069c-5.476,5.343-11.566,10.046-17.635,14.64
			c-4.468,3.383-9.837,5.383-15.231,6.959c0.115-1.971,0.134-3.87,0.115-5.569c-0.059-5.413-0.48-11.779-1.7-17.711
			C287.328,165.559,291.434,163.334,294.603,161.86z M288.789,217.465c0,0.062,0.015,0.114,0.017,0.174
			c-1.822-0.074-3.646-0.095-5.463-0.095c-0.06-0.309-0.107-0.617-0.185-0.929c-0.822-3.301-2.228-7.332-4.648-9.978
			c0.166-0.137,0.338-0.265,0.5-0.407c2.319-2.033,3.769-4.982,4.681-8.233c1.778-0.441,3.524-0.971,5.246-1.56
			C287.806,203.261,288.807,210.723,288.789,217.465z M287.915,158.586c-1.802,1.081-3.658,2.232-5.521,3.197
			c-0.338-1.163-0.717-2.289-1.135-3.376c1.286-0.978,2.612-1.941,3.947-2.844c0.641-0.433,1.525-0.901,2.416-1.434
			c0.03,1.142,0.058,2.284,0.111,3.426C287.75,157.931,287.821,158.268,287.915,158.586z M281.978,129.117
			c1.028-3.677,0.647-7.434,1.004-11.184c0.208-2.186,0.299-4.5,0.3-6.854c0.114-0.088,0.225-0.179,0.341-0.265
			c0.859-0.425,1.65-1.06,2.442-1.696c0.344-0.24,0.687-0.486,1.031-0.736c-0.04,4.07,0.004,8.13,0.235,12.159
			c0.413,7.191,0.293,14.396,0.231,21.603c-2.08-3.348-4.699-6.468-6.828-9.543C281.208,131.454,281.648,130.297,281.978,129.117z
			 M277.931,138.67c1.181,1.976,2.42,3.925,3.486,5.97c0.804,1.543,1.517,3.405,2.399,5.094c-0.679,0.483-1.35,0.968-1.998,1.419
			c-1.026,0.714-1.999,1.5-3.014,2.229c-0.168,0.12-0.352,0.274-0.545,0.439c-0.267,0.182-0.536,0.358-0.807,0.531
			c-0.839-0.07-1.713,0.075-2.462,0.4c-6.745,2.926-13.099,5.958-20.165,7.883c4.103-2.53,7.931-5.529,11.377-8.748
			C270.844,149.551,275.08,144.379,277.931,138.67z M165.511,29.239c10.976-7.858,25.91-7.33,38.582-4.878
			c6.615,1.28,14.09,5.249,19.239,9.586c2.133,1.796,4.402,3.601,6.431,5.508c1.144,1.075,2.098,2.273,3.108,3.422
			c-2.078,0.868-4.141,1.795-6.247,2.752c-1.83,0.831-3.482,0.073-5.332,0.547c-1.677,0.429-3.22,1.858-4.306,3.14
			c-1.315,1.553-1.553,3.753-3.681,3.256c-1.247-0.292-2.187-2.102-3.726-2.417c-4.194-0.858-4.86,2.664-7.438,4.602
			c-0.607,0.457-0.709,0.694-0.721,0.764c-0.015-0.078-0.145-0.336-0.959-0.708c-0.596-0.271-1.276-1.324-1.954-1.709
			c-1.35-0.767-2.821-1.087-4.327-0.582c-2.666,0.893-3.505,3.769-3.729,6.288c-0.121,1.369,0.249,2.735,0.154,4.065
			c-0.182,2.549-1.036,2.443-3.455,3.882c-8.545,5.084-15.262,12.86-22.932,19.12c-3.96,3.232-7.686,6.747-11.187,10.476
			c-0.411-3.606-1.972-7.523-2.402-10.618c-0.398-2.864-0.65-5.774-0.77-8.694c1.721-0.267,3.454-0.742,5.16-1.379
			c0.612,2.128,1.666,4.103,3.917,4.867c2.41,0.817,4.624-2.128,3.335-4.254c-0.691-1.139-1.152-2.275-1.512-3.462
			c3.61-2.269,6.825-5.258,9.145-8.66c0.504,0.182,1.003,0.374,1.484,0.606c1.67,0.804,2.434,1.294,4.333,1.031
			c1.803-0.25,2.383-2.578,1.651-3.951c-0.967-1.812-2.769-2.669-4.65-3.285c0.347-1.039,0.63-2.092,0.788-3.162
			c0.744-5.025-0.635-9.419-3.636-13.22c0.336-0.242,0.671-0.483,0.988-0.735c0.958-0.762,1.499-1.625,2.308-2.512
			c2.268-2.569-1.032-5.766-3.66-3.729c-1.078,0.835-1.957,1.816-3.09,2.611c-0.116,0.081-0.221,0.164-0.334,0.246
			c-1.107-1.089-2.284-2.117-3.501-2.871c-0.763-0.472-1.492-0.77-2.215-0.977C161.873,32.307,163.577,30.624,165.511,29.239z
			 M150.183,64.687c0.763-7.91,2.678-17.53,6.848-25.311c1.054,0.186,2.092,0.436,3.081,1.074c0.654,0.422,1.286,1.008,1.889,1.618
			c-1.67,1.736-3.757,2.662-3.37,5.626c0.302,2.309,4.188,2.849,5.129,0.72c0.082-0.186,0.087-0.242,0.082-0.258
			c0.021,0.001,0.094-0.028,0.311-0.204c0.441-0.357,0.946-0.581,1.373-0.97c0.141-0.128,0.258-0.275,0.382-0.416
			c1.794,2.715,2.591,5.746,1.767,9.182c-1.228-0.653-2.498-1.214-3.915-1.709c-2.132-0.745-4.452,2.021-3.096,3.949
			c1.056,1.503,2.427,2.835,3.98,3.865c-1.432,1.916-3.252,3.738-5.261,5.378c-0.561-1.594-1.472-3.009-3.186-3.489
			c-2.293-0.641-3.93,1.796-2.969,3.787c0.364,0.755,0.627,1.54,0.867,2.331c0.056,0.3,0.099,0.605,0.137,0.913
			c-1.479,0.844-2.98,1.575-4.454,2.139C149.79,70.156,149.921,67.404,150.183,64.687z M163.535,136.472
			c-0.286,0.015-0.581,0.03-0.899,0.032c-4.985,0.024-9.949-0.141-14.937,0.045c-2.17,0.081-4.766,0.491-6.772-0.671
			c-2.269-1.314-1.819-3.658-1.428-5.946c0.912-5.327,3.58-10.313,6.065-15.07c8.684-16.626,24.643-26.901,38.934-38.219
			c3.005-2.379,6.103-3.992,9.287-6.064c2.575-1.676,3.912-3.56,3.807-6.726c-0.029-0.881-0.238-1.771-0.31-2.653
			c-0.036-0.443-0.027-1.08-0.098-1.591c1.739,1.303,3.275,2.515,5.74,1.604c2.559-0.946,3.582-5.518,6.507-4.84
			c1.021,0.237,2.021,1.837,3.171,2.217c1.235,0.408,2.4,0.324,3.589-0.119c2.881-1.074,3.359-4.725,5.773-5.973
			c1.21-0.626,2.134,0.309,3.404,0.383c1.914,0.112,3.27-0.925,4.868-1.781c5.114-2.738,11.269-4.001,16.93-5.267
			c2.351-0.526,4.695-0.838,7.082-1.109c2.92-0.332,6.341-1.615,9.202-0.808c5.83,1.643,7.738,8.323,5.709,13.488
			c-0.792,2.017-3.451,9-4.874,9.796c-0.045,0.025-0.077,0.057-0.12,0.083c-5.495-2.853-11.856-4.091-18.552-4.854
			c-6.644-0.757-13.637,0.486-20.196,1.58c-6.662,1.111-13.694,3.497-19.513,6.971c-11.655,6.959-23.92,14.723-31.218,26.616
			c-3.113,5.073-7.222,10.496-7.129,16.741c0.087,5.88,3.654,8.992,7.277,12.598c-0.452,0.144-0.871,0.288-1.239,0.419
			C168.963,129.006,165.502,132.261,163.535,136.472z M184.486,147.775c-2.931,2.377-6.196,3.814-10.04,2.534
			c-4.192-1.396-5.841-4.657-5.043-8.734c0.647-3.305,2.462-5.897,5.225-7.766c0.701-0.474,1.496-0.887,2.259-1.267
			c0.706-0.352,1.588-0.488,2.11-0.784c2.963,4.043,6.264,8.866,11.647,7.115c5.358-1.742,6.937-8.286,5.041-13.068
			c-1.335-3.368-5.004-5.473-4.066-9.37c0.826-3.434,3.828-6.502,5.142-9.939c1.447-3.783,1.869-7.054,1.598-11.073
			c-0.231-3.421-1.116-5.905-2.113-8.793c0.729-0.557,1.462-1.104,2.2-1.638c10.448-7.553,22.237-12.787,35.172-13.979
			c10.771-0.993,23.518-1.036,31.661,7.203c3.835,3.881,6.039,8.966,7.315,14.197c1.695,6.948,2.742,15.31,2.372,22.489
			c-0.34,6.593-1.013,12.501-3.878,18.518c-2.99,6.28-7.582,11.412-12.747,16.004c-4.659,4.143-9.975,7.298-15.712,9.739
			c-7.266,3.091-14.638,2.692-22.215,0.825c-7.868-1.939-15.492-4.716-22.339-9.097
			C193.224,147.786,189.869,143.409,184.486,147.775z M203.676,264.137c-1.133-1.988-2.276-3.958-3.398-5.902
			c-2.079-3.6-4.609-7.016-6.486-10.719c-0.996-1.965-1.801-4.093-2.504-6.256c2.478-1.447,4.781-3.152,7.315-4.481
			c0.132,1.766,0.41,3.487,1.499,4.984c0.906,1.244,3.388,1.465,3.734-0.452c0.373-2.062-0.011-4.278-0.234-6.4
			c3.223-0.699,5.423-0.101,7.798,2.265c-1.347,1.015-2.254,1.791-2.274,3.642c-0.027,2.521,3.433,3.564,4.772,1.435
			c0.055-0.038,0.094-0.064,0.166-0.115c0.267-0.162,0.515-0.352,0.763-0.543c0.633,1.028,1.213,2.091,1.725,3.203
			c0.927,2.012,2.83,5.686,2.559,8.028c-0.126,1.087-0.852,2.165-1.809,3.152c-0.626-0.866-1.242-1.739-1.833-2.632
			c-1.893-3.018-6.307-0.449-4.774,2.731c0.58,1.204,1.242,2.348,1.934,3.473c-0.042,0.027-0.088,0.056-0.129,0.082
			C209.716,261.388,206.69,262.759,203.676,264.137z M227.721,281.966c-3.812,1.645-6.912,2.185-11.007,2.263
			c-0.661,0.013-2.97,0.398-3.259,0.252c-0.446-0.226-1.136-3.073-1.534-4.043c-1.531-3.737-3.372-7.432-5.334-11.069
			c3.193-1.434,6.335-3.076,9.271-4.976c0.021,0.03,0.042,0.06,0.063,0.09c1.664,2.377,3.093,5.388,6.019,6.285
			c2.094,0.642,4.069-1.402,3.532-3.466c-0.65-2.499-2.996-4.583-4.574-6.585c-0.01-0.012-0.019-0.024-0.028-0.036
			c0.533-0.457,1.056-0.922,1.561-1.405c5.587-5.345,1.969-13.241-1.142-19.161c-0.533-1.016-1.132-2.042-1.784-3.046
			c0.786-0.803,1.571-1.607,2.352-2.416c1.648-1.708,4.467-3.487,3.89-6.193c-0.402-1.886-2.695-2.178-3.988-1.093
			c-1.169,0.981-2.318,2.073-3.401,3.241c-0.772,0.699-1.533,1.408-2.282,2.133c-2.897-2.929-6.507-4.896-10.852-4.357
			c-0.605,0.075-1.235,0.184-1.879,0.322c-0.05-2.215-0.419-4.429-0.854-6.069c-0.701-2.641-5.114-2.268-4.915,0.618
			c0.164,2.379,0.362,4.757,0.556,7.134c-3.11,1.312-6.16,3.162-8.444,5.444c-0.074-0.266-0.148-0.534-0.221-0.797
			c-2.404-8.706-3.641-17.001-3.396-26.031c0.252-9.313,0.746-19.637,3.232-28.604c1.183-4.268,2.87-8.38,4.488-12.496
			c0.87-2.213,1.769-5.288,2.93-7.936c2.787,1.592,5.631,3.006,8.636,4.195c7.13,2.824,14.691,4.979,22.34,5.717
			c2.726,0.263,5.422,0.203,8.071-0.132c5.304,2.592,14.278,1.158,19.105,0.247c7.037-1.329,13.286-3.921,19.714-6.646
			c0.569,2.49,0.769,5.144,1.137,7.571c0.637,4.203,1.334,8.477,1.363,12.738c0.021,2.929-0.31,5.896-0.781,8.807
			c-0.336,0.402-0.578,0.864-0.652,1.354l-0.066,0.434c-0.09,0.595-0.061,1.151,0.06,1.661c-0.847,3.24-2.397,4.715-5.868,6.323
			c-6.247,2.892-14.132,4.597-21.018,4.942c-7.074,0.354-13.658-1.457-20.701,0.154c-1.924,0.44-1.881,3.301-0.036,3.816
			c8.878,2.477,18.156,4.744,27.396,3.338c5.096-0.776,10.653-1.65,15.661-3.606c0.92,1.769,2.251,3.218,3.137,5.218
			c1.855,4.189,1.657,7.511,0.151,11.805c-2.747,7.835-8.006,13.747-12.925,20.206c-5.144,6.753-10.35,13.5-15.735,20.062
			C240.396,274.65,235.395,278.656,227.721,281.966z M242.065,295.681c-3.223-1.211-6.492-2.903-9.355-4.828
			c-0.477-0.32-0.934-0.658-1.387-0.999c1.239-0.608,2.456-1.232,3.638-1.805c3.841-1.865,7.47-4.07,10.535-7.071
			c7.216-7.065,12.937-15.962,19.072-23.944c6.591-8.576,13.545-16.646,17.328-26.974c0.443-1.21,0.816-2.412,1.113-3.614
			c6.072-0.023,12.136,0.105,17.938,2.293c3.136,1.183,6.537,3.028,7.777,6.262c1.36,3.547,1.777,7.689,2.752,11.38
			c1.777,6.731,2.283,13.98,2.59,20.929c0.126,2.862-0.293,6.576-1.459,9.261c-1.043,2.4-3.752,2.956-6.307,3.625
			c-0.014-0.057-0.017-0.111-0.036-0.169c-0.373-1.153-1.186-3.294-2.315-5.876c1.129-0.994,2.238-2.026,3.034-3.273
			c1.122-1.756-1.092-3.433-2.572-2.617c-0.002-0.003-0.004-0.006-0.005-0.009c-0.021,0.014-0.04,0.029-0.06,0.043
			c-0.053,0.032-0.103,0.07-0.153,0.109c-0.739,0.502-1.453,1.051-2.156,1.618c-0.973-1.984-2.068-4.054-3.249-6.037
			c1.206-1.482,2.418-2.958,3.303-4.658c1.16-1.969-1.721-4.458-3.256-2.562c-0.871,1.075-1.775,2.13-2.681,3.184
			c-4.375-6.045-9.431-9.663-13.682-4.046c-1.844,2.437-3.088,5.327-4.031,8.386c-1.545-1.047-2.973-2.242-4.847-2.51
			c-2.301-0.329-3.151,2.845-1.82,4.279c1.526,1.645,3.22,3.27,5.064,4.658c-0.606,2.886-1.126,5.753-1.78,8.381
			c-0.157,0.631-0.305,1.264-0.455,1.897c-0.82-0.002-1.674,0.084-2.625,0.117c-1.328,0.046-2.794-0.55-4.077-0.105
			c-2.31,0.802-2.242,3.716-0.043,4.596c1.77,0.708,3.624,1.049,5.499,1.293c-0.223,1.227-0.43,2.458-0.596,3.695
			c-0.19,1.422-0.815,3.346-0.753,5.038c-3.122,1.122-6.285,2.027-9.343,2.544C255.94,299.31,248.408,298.064,242.065,295.681z
			 M280.245,363.235c-0.374-0.244-0.728-0.52-1.04-0.859c-3.962-4.298-5.87-11.065-5.77-16.763c0.1-5.747,2.119-11.268,4.223-16.563
			c0.243-0.61,1.384-2.493,2.135-4.337c0.275,0.034,0.549,0.085,0.824,0.113C280.081,337.604,280.189,350.422,280.245,363.235z
			 M281.038,316.938c-8.119-0.725-15.36-4.479-21.52-9.733c-0.029-0.025-0.064-0.059-0.094-0.086
			c1.842-0.057,3.673-0.228,5.474-0.534c6.06-1.03,11.99-3.221,17.673-5.831C281.879,306.137,281.391,311.533,281.038,316.938z
			 M284.344,290.016c-2.324,1.28-4.84,2.53-7.442,3.669c0.603-2.056,0.856-4.326,1.281-6.018c0.015-0.058,0.031-0.116,0.046-0.175
			c0.205,0.031,0.411,0.057,0.615,0.091c3.199,0.533,4.661-3.95,1.417-4.956c-0.234-0.072-0.471-0.125-0.707-0.188
			c0.786-2.943,1.588-5.884,2.397-8.821c0.216,0.083,0.427,0.181,0.645,0.254c1.843,0.622,3.406-1.585,2.498-3.186
			c-1.749-3.084-1.922-8.609,1.694-10.841c1.928-1.19,4.166,2.92,5.362,4.948c-1.033,1.346-2.008,2.734-2.857,4.212
			c-0.405,0.706-0.548,1.824-0.024,2.525c0.074,0.099,0.147,0.197,0.221,0.296c0.507,0.678,1.427,1.335,2.342,0.979
			c1.398-0.544,2.325-1.807,3.129-3.162c0.781,1.449,1.515,2.917,2.236,4.392c-0.743,0.634-1.506,1.23-2.3,1.638
			c-2.902,1.491-0.259,6.145,2.518,4.402c0.684-0.429,1.321-0.96,1.934-1.533c0.555,1.188,1.111,2.38,1.673,3.574
			C295.321,284.433,289.691,287.072,284.344,290.016z M291.827,296.125c4.65-2.468,9.851-4.51,14.733-6.487
			c3.552-1.438,7.911-1.65,10.973-4.098c0.272-0.217,0.519-0.467,0.768-0.716c-0.136,1.193-0.255,2.388-0.331,3.588
			c-0.162,2.555-0.135,5.106-0.076,7.66c-6.084,2.874-11.678,6.98-17.268,10.639c-3.478,2.277-8.371,4.639-11.629,7.916
			c0.045-5.604-0.008-11.202-0.513-16.757C289.61,297.293,290.726,296.71,291.827,296.125z M288.738,422.656
			c1.53-0.598,2.99-1.514,4.369-2.285c4.023-2.251,8.101-4.291,12.258-6.307c4.067-1.973,8.191-4.001,12.149-6.196
			c1.189-0.66,2.434-1.282,3.669-1.929c0.187,2.118,0.414,4.202,0.648,6.224c0.344,2.971,0.583,5.95,0.766,8.932
			c-1.457,0.29-2.758,1.037-4.226,1.789c-4.033,2.065-7.934,4.062-11.863,6.363c-4.062,2.38-8.226,4.585-12.295,6.952
			c-1.639,0.954-3.642,2.016-5.38,3.303C288.733,433.885,288.715,428.27,288.738,422.656z M288.921,443.409
			c1.967-0.514,3.872-1.751,5.623-2.577c4.269-2.013,8.529-4.018,12.69-6.254c4.052-2.177,7.972-4.329,12.114-6.304
			c1.252-0.597,2.441-1.158,3.524-1.837c0.244,5.56,0.401,11.124,0.742,16.672c-7.054,2.738-13.757,7.434-20.34,10.962
			c-4.149,2.223-9.519,4.366-13.819,7.375c-0.152-5.454-0.345-10.908-0.497-16.376C288.943,444.516,288.934,443.963,288.921,443.409
			z M323.706,482.859c-0.584,5.141-1.198,10.319-2.057,15.421c-0.331,1.968-0.085,2.336-1.642,3.494
			c-1.099,0.817-2.826,1.075-4.117,1.442c-3.187,0.907-5.807,0.425-9.015-0.058c-5.229-0.787-10.814-0.829-14.692-4.966
			c-1.044-1.113-1.726-2.453-2.167-3.923c1.483-0.573,2.915-1.561,4.208-2.227c4.884-2.518,9.927-4.769,14.845-7.237
			c4.073-2.044,8.185-4.061,12.182-6.246c0.949-0.519,1.969-0.982,2.968-1.472C324.082,479.029,323.922,480.96,323.706,482.859z
			 M324.539,470.791c-5.979,2.081-11.789,6.324-17.225,9.184c-6.3,3.314-12.164,6.747-17.932,10.702
			c-0.297-3.759,0.268-7.84,0.299-11.072c0.042-4.396-0.02-8.78-0.114-13.163c0.703-0.357,1.402-0.733,2.113-1.079
			c4.093-1.993,8.153-4.063,12.214-6.119c6.658-3.37,13.198-7.763,20.086-10.789C324.518,455.726,324.767,463.318,324.539,470.791z
			 M326.642,380.494c-1.862-2.123-3.413-4.376-5.189-6.791c-2.16-2.935-4.69-6.988-5.543-10.635
			c-0.526-2.249-1.009-4.925-1.043-7.517c1.693,0.577,3.456,0.993,5.145,1.677c3.69,1.495,6.968,3.635,10.363,5.667
			c3.006,1.799,5.377,3.528,8.022,5.821c0.434,0.376,0.889,0.714,1.351,1.038c-2.218,1.448-4.379,2.97-6.535,4.688
			C331.43,375.863,328.12,378.032,326.642,380.494z M334.385,387.615c-1.52-1.309-3.026-2.636-4.563-3.957
			c2.666-1.228,5.423-4.009,7.275-5.307c2.65-1.858,5.635-3.376,8.4-5.119c0.469,0.305,0.933,0.621,1.379,0.969
			c0.579,0.452,1.157,0.91,1.735,1.368c-3.695,4.055-8.938,6.949-12.975,10.604C335.553,386.246,334.994,386.848,334.385,387.615z
			 M364.687,403.441c-9.082-2.295-16.963-5.433-24.527-11.116c-0.88-0.661-1.737-1.338-2.582-2.025c2.11-1.055,4.193-2.6,5.701-3.49
			c2.307-1.362,4.355-3.042,6.543-4.576c1.331-0.933,2.524-1.653,3.554-2.755c3.357,2.858,6.59,5.872,9.511,9.12
			c4.408,4.9,5.807,9.972,7.62,15.483C368.682,404.245,366.666,403.941,364.687,403.441z M376.803,398.567
			c-0.046,0.177-0.105,0.331-0.157,0.498c-1.355-4.134-3.591-8.173-5.649-10.908c-3.976-5.284-9.019-9.584-14.063-13.807
			c-2.458-2.057-4.839-4.319-7.352-6.278c-2.368-1.846-5.385-2.764-7.744-4.798c-2.895-2.495-5.728-4.227-9.04-6.158
			c-4.615-2.69-11.389-6.827-17.316-6.359c0.169-0.527,0.377-1.032,0.63-1.507c2.122-3.99,5.572-6.68,8.309-10.154
			c0.688-0.873,1.247-1.813,1.712-2.794c2.646-0.007,5.275-0.16,7.951,0.354c3.781,0.726,7.633,2.961,11.171,4.502
			c4.495,1.959,9.017,6.314,11.706,10.397c2.134,3.24,2.894,7.116,5.1,10.265c2.786,3.977,5.29,7.939,7.6,12.232
			c2.047,3.803,5.35,7.661,6.594,11.788C377.359,389.507,377.76,394.864,376.803,398.567z"/>
	</g>
</g>
<g>
	<g>
		<path d="M244.101,91.514c-3.239-1.905-6.207-1.432-9.402,0.363c-1.785,1.002-4.677,3.723-3.127,5.953
			c0.284,0.41,0.761,0.478,1.145,0.16c2.919-2.413,7.255-5.628,10.684-2.215c1.819,1.811,0.128,5.066-1.259,6.743
			c-1.211,1.464-2.785,1.751-4.59,1.997c-1.328,0.181-2.846,0.172-3.46,1.586c-0.344,0.793-0.168,1.64,0.471,2.258
			c1.964,1.901,6.737,0.241,8.663-0.961c2.594-1.619,4.478-5.201,4.921-8.175C248.658,95.796,246.97,93.202,244.101,91.514z"/>
	</g>
</g>
<g>
	<g>
		<path d="M228.685,106.998c-0.334-2.681-3.962-5.773-6.069-7.252c-2.871-2.014-5.831-0.452-8.216,1.555
			c-2.522,2.121-3.961,4.548-3.691,7.903c0.19,2.347,0.966,6.119,3.9,6.228c0.453,0.017,1.028-0.259,1.226-0.688
			c0.634-1.37,0.095-2.354-0.102-3.772c-0.283-2.045-0.28-3.651,1.275-5.2c0.46-0.458,1.822-1.938,2.495-1.854
			c0.674,0.084,1.239,1.025,1.671,1.449c1.241,1.22,2.327,2.732,3.629,3.842C226.661,110.793,228.971,109.288,228.685,106.998z"/>
	</g>
</g>
<g>
	<g>
		<path d="M259.393,81.546c-2.472-2.045-5.952-2.167-8.452-0.009c-2.154,1.859-3.336,4.814-2.763,7.593
			c0.54,2.628,1.303,5.349,4.078,6.164c0.526,0.154,1.271-0.277,1.198-0.895c-0.16-1.354-0.184-2.786-0.307-4.165
			c-0.138-1.554-0.47-2.666,0.529-4.005c2.23-2.989,4.408,2.217,5.842,3.71c1.394,1.451,4.326,0.469,4.19-1.689
			C263.555,85.821,261.213,83.052,259.393,81.546z"/>
	</g>
</g>
<g>
	<g>
		<path d="M266.272,108.417c-0.904-5.079-3.217-9.843-8.71-6.165c-6.334,4.241-11.841,9.486-18.602,13.113
			c-3.552,1.906-7.117,3.625-10.898,5.031c-3.011,1.119-7.326,2.336-9.841,4.343c-0.049,0.039-0.082,0.084-0.128,0.124
			c-0.487,0.212-0.978,0.418-1.461,0.64c-1.153,0.531-1.334,2.061-0.837,3.074c6.041,12.297,22.945,24.365,36.802,17.334
			C266.338,138.939,268.752,122.342,266.272,108.417z M259.14,134.203c-4.644,7.779-11.747,9.925-18.768,8.589
			c1.632-2.457,3.26-5.212,6.339-5.836c2.445-0.495,4.416,0.993,6.82,0.067c0.771-0.297,1.139-1.035,0.756-1.81
			c-0.554-1.123-1.662-1.835-2.976-2.243c1.307-1.223,2.47-2.453,4.224-3.306c1.349-0.656,2.54-0.977,4.028-0.708
			c0.595,0.108,1.138,0.271,1.691,0.387C260.728,131.057,260.04,132.696,259.14,134.203z M254.272,121.074
			c-2.056,1.776-4.534,3.634-6.894,4.994c-3.647,2.102-7.685,3.923-11.751,5.021c-1.018,0.275-8.326,1.718-12.415,0.87
			c-1.382-1.735-2.904-2.608-0.969-4.206c1.118-0.923,2.993-0.947,4.308-1.472c3.096-1.237,6.193-2.47,9.234-3.838
			c5.991-2.694,11.879-5.903,16.646-10.491c2.261-1.613,4.44-3.319,6.679-4.967c2.481-1.827,1.882-1.413,2.442,1.03
			C263.109,114.815,258.999,116.991,254.272,121.074z"/>
	</g>
</g>
<g>
</g>
<g>
</g>
<g>
</g>
<g>
</g>
<g>
</g>
<g>
</g>
<g>
</g>
<g>
</g>
<g>
</g>
<g>
</g>
<g>
</g>
<g>
</g>
<g>
</g>
<g>
</g>
<g>
</g>
</svg>
