<?xml version="1.0" encoding="iso-8859-1"?>
<!-- Generator: Adobe Illustrator 19.0.0, SVG Export Plug-In . SVG Version: 6.00 Build 0)  -->
<svg version="1.1" id="Layer_1" xmlns="http://www.w3.org/2000/svg" xmlns:xlink="http://www.w3.org/1999/xlink" x="0px" y="0px"
	 viewBox="0 0 511.997 511.997" style="enable-background:new 0 0 511.997 511.997;" xml:space="preserve">
<g>
	<g>
		<path d="M243.666,244.54c-2.412-3.587-5.827-4.994-10.027-4.897c-4.788,0.111-8.005,2.384-11.499,4.96
			c-5.433,2.17-10.777,4.883-15.895,6.939c-10.41,4.183-21.348,6.899-31.64,11.401c-9.876,4.32-18.586,9.918-27.013,16.526
			c-6.699,5.253-10.857,13.432-4.653,20.931c5.985,7.236,14.704,9.774,23.478,11.571c10.64,2.178,21.36,4.653,32.223,3.327
			c4.264-0.52,8.954-0.761,12.785-2.944c4.509-2.569,8.392-7.098,11.793-10.946c6.446-7.294,11.97-16.697,15.414-25.782
			C241.952,266.865,249.851,253.73,243.666,244.54z M237.063,255.92c-1.518,7.369-5.544,15.904-9.065,22.58
			c-3.563,6.756-8.186,13.978-13.48,19.434c-2.491,2.568-5.082,5.843-8.423,7.243c-3.581,1.501-8.282,1.621-12.128,1.948
			c-8.619,0.732-17.695-1.993-26.094-3.655c-3.644-0.721-7.52-1.141-10.833-2.946c-2.473-1.347-6.895-3.807-8.09-6.427
			c-1.849-4.054,2.228-6.83,4.931-9.111c3.198-2.698,6.125-5.308,9.746-7.437c7.419-4.364,14.608-8.605,22.644-11.783
			c13.075-5.17,27.08-9.674,39.419-16.775c2.132-0.637,4.279-1.224,6.291-1.428C237.447,247.006,238.011,251.324,237.063,255.92z"/>
	</g>
</g>
<g>
	<g>
		<path d="M167.659,218.53c-7.583-0.919-15.09-0.248-22.651-0.784c-3.41-0.242-6.383-0.951-9.866-0.885
			c-3.766,0.071-7.226-0.304-10.959-0.623c-12.739-1.087-25.715,0.347-38.216,2.932c-3.023,0.12-6.05,0.226-9.094,0.375
			c-6.614,0.325-13.034,1.219-19.598,1.86c-5.785,0.564-12.168,1.813-17.1,5.081c-10.708,7.098-9.559,20.192,2.37,24.805
			c12.339,4.773,27.484,5.621,40.466,4.275c13.5-1.399,27.03-2.164,40.493-3.304c6.822-0.578,13.434-2.937,20.221-3.902
			c7.295-1.037,14.862-2.007,21.901-4.233c6.637-2.1,20.034-4.584,22.792-12.118C192.561,220.69,174.19,219.321,167.659,218.53z
			 M178.175,231.389c-3.567,1.796-7.524,2.93-11.29,4.192c-10.624,3.56-21.485,4.418-32.378,6.74
			c-11.24,2.395-22.515,3.544-33.984,4.218c-11.732,0.689-23.549,2.805-35.301,1.596c-5.524-0.568-11.107-1.638-16.5-2.978
			c-1.922-0.478-4.128-0.932-5.741-2.142c-4.536-3.404-2.213-7.88,1.777-10.427c5.31-3.39,11.75-3.322,17.687-4.376
			c6.315-1.122,12.654-1.839,19.076-2.1c4.633-0.188,9.249-0.674,13.853-1.303c4.99-0.15,9.992-0.404,14.967-0.712
			c5.5-0.34,10.854-0.404,16.321,0.18c5.203,0.555,10.347,0.039,15.512,0.864c5.379,0.86,10.838-0.321,16.237,0.368
			c5.239,0.669,10.503,0.869,15.737,1.695c0.757,0.119,6.173,0.864,6.515,1.998C180.993,230.295,179.084,230.931,178.175,231.389z"
			/>
	</g>
</g>
<g>
	<g>
		<path d="M227.566,188.774c-3.311-3.564-5.898-7.497-9.618-10.687c-3.455-2.963-7.456-4.948-11.061-7.707
			c-4.033-3.087-8.529-4.98-13.51-5.937c-10.611-2.038-22.311-1.587-33.006-0.656c-10.757,0.936-21.374,0.713-31.675,4.518
			c-6.449,2.382-16.498,8.761-10.167,16.64c5.516,6.863,17.794,7.911,25.843,8.89c12.18,1.482,24.333,2.903,36.425,4.958
			c4.957,1.636,9.896,2.806,15.083,3.482c5.171,0.674,10.058,1.978,15.298,1.988c6.217,0.012,18.997,3.145,20.935-6.069
			C232.894,194.482,229.881,191.267,227.566,188.774z M222.376,197.372c-4.039,0.833-8.696-0.306-12.847-0.356
			c-4.274-0.052-8.5-1.289-12.765-1.74c-0.964-0.102-1.916-0.212-2.869-0.322c-5.335-1.373-10.658-2.817-16.096-3.775
			c-8.834-1.557-17.662-3.079-26.568-4.17c-4.269-0.523-8.546-1.018-12.76-1.892c-3.324-0.689-10.531-1.63-12.682-4.444
			c-3.737-4.888,17.998-9.486,21.226-9.879c8.717-1.061,18.115-1.557,26.888-1.267c9.095,0.3,19.804,0.056,27.569,5.43
			c6.437,4.454,12.444,8.637,17.11,14.972c1.107,1.504,2.505,2.699,3.765,4.064C224.384,196.199,225.762,196.674,222.376,197.372z"
			/>
	</g>
</g>
<g>
	<g>
		<path d="M509.537,238.042c-1.727-6.661-3.746-14.304-8.542-19.471c-2.64-2.844-5.949-4.071-9.313-5.808
			c-3.668-1.893-7.299-3.544-11.221-4.86c-7.616-2.555-14.996-5.048-23.025-5.916c-8.056-0.871-16.082-1.715-24.191-1.794
			c-0.742-0.007-1.484-0.005-2.226-0.011c0.79-2.696,0.387-6.071,0.431-8.621c0.082-4.786,0.31-9.402-0.601-14.142
			c-1.833-9.54-7.461-16.762-16.324-20.606c-8.819-3.824-17.79-5.371-27.207-7.056c-9.752-1.744-19.588-2.886-29.483-3.374
			c-10.47-0.515-20.788-0.174-31.239,0.339c-9.436,0.463-18.299,1.277-26.858,5.639c-7.131,3.635-13.175,7.701-19.591,12.485
			c-7.099,5.293-11.846,14.088-17.494,20.807c-2.924,3.478-5.282,7.831-6.655,12.406c-1.373-4.574-3.731-8.928-6.655-12.406
			c-5.649-6.719-10.395-15.514-17.494-20.807c-6.416-4.784-12.46-8.85-19.591-12.485c-8.559-4.363-17.422-5.176-26.858-5.639
			c-10.451-0.513-20.77-0.854-31.239-0.339c-9.896,0.487-19.732,1.63-29.483,3.374c-9.418,1.684-18.388,3.231-27.207,7.056
			c-8.864,3.844-14.491,11.066-16.324,20.606c-0.91,4.739-0.683,9.355-0.601,14.142c0.044,2.55-0.36,5.925,0.431,8.621
			c-0.742,0.006-1.484,0.004-2.226,0.011c-8.108,0.08-16.134,0.924-24.191,1.794c-8.029,0.868-15.41,3.36-23.025,5.916
			c-3.922,1.316-7.553,2.966-11.221,4.86c-3.364,1.737-6.673,2.964-9.313,5.808c-4.796,5.166-6.815,12.81-8.542,19.471
			c-3.834,14.79-2.301,29.242-1.255,44.128c0.502,7.134,2.595,12.115,7.373,17.646c4.118,4.767,11.128,7.779,16.8,10.233
			c7.941,3.436,16.297,5.518,24.805,6.991c8.115,1.405,16.467,3.149,24.668,3.807c7.48,0.6,14.688,1.542,22.217,1.458
			c3.959-0.044,7.805-0.567,11.731-0.714c2.09-0.078,3.766-0.179,5.38-0.77c0.191,1.677,0.402,3.359,0.62,5.048
			c1.101,8.539,4.24,14.94,10.943,20.511c7.228,6.007,15.921,8.999,24.794,11.661c9.351,2.805,19.215,4.794,28.838,6.411
			c16.835,2.83,36.582,2.118,50.554-8.654c6.794-5.238,10.708-11.34,12.748-19.673c2.256-9.212,4.622-18.422,6.708-27.674
			c2.338-10.363,3.745-20.815,5.545-31.268c0.336-1.947,0.7-3.89,1.074-5.832c0.374,1.941,0.738,3.884,1.074,5.832
			c1.799,10.453,3.207,20.905,5.545,31.268c2.087,9.252,4.452,18.461,6.708,27.674c2.041,8.333,5.955,14.435,12.748,19.673
			c13.972,10.772,33.719,11.483,50.554,8.654c9.623-1.618,19.487-3.606,28.838-6.411c8.873-2.662,17.566-5.654,24.794-11.661
			c6.703-5.572,9.841-11.972,10.943-20.511c0.218-1.69,0.429-3.371,0.62-5.048c1.614,0.591,3.29,0.691,5.38,0.77
			c3.926,0.147,7.772,0.67,11.731,0.714c7.529,0.084,14.736-0.858,22.217-1.458c8.201-0.659,16.553-2.402,24.668-3.807
			c8.508-1.473,16.863-3.555,24.805-6.991c5.672-2.454,12.681-5.467,16.8-10.233c4.778-5.53,6.871-10.511,7.373-17.646
			C511.838,267.284,513.371,252.833,509.537,238.042z M98.138,170.482c3.485-2.927,7.973-4.668,13.144-6.029
			c20.531-5.402,42.645-7.227,63.816-6.633c9.592,0.269,20.659-0.121,29.606,3.841c7.742,3.429,15.9,8.037,21.852,14.123
			c3.128,3.198,5.867,6.992,8.545,10.579c2.713,3.633,5.834,6.926,7.739,11.001c1.398,2.991,2.528,6.093,2.613,9.428
			c0.052,2.06,0.087,6.795-1.37,8.45c-3.532,4.011-13.094-1.619-16.906-2.652c-15.929-4.32-32.777-6-49.094-8.103
			c-9.767-1.258-19.529-2.607-29.345-3.433c-4.662-0.392-9.018-0.585-13.526-1.935c-4.583-1.372-8.994-3.245-13.473-4.909
			c-6.007-2.231-12.034-4.879-16.726-9.364c-3.197-3.056-6.096-5.696-6.933-10.171C97.801,173.179,97.892,171.808,98.138,170.482z
			 M91.82,180.364c0.094-0.308,0.203-0.592,0.305-0.888c2.477,8.734,12.053,16.565,22.251,20.719
			c-9.276-0.034-18.553-0.076-27.827-0.04C89.962,194.714,90.205,185.676,91.82,180.364z M17.584,230.934
			c0.158-0.571,0.304-1.213,0.459-1.875c3.656-5,11.05-7.592,16.71-9.47c6.807-2.259,13.565-4.845,20.748-5.587
			c7.055-0.729,14.082-1.594,21.18-1.71c14.372-0.235,28.747,0.179,43.121,0.007c13.664-0.164,27.399-0.163,40.992,1.334
			c15.635,1.721,31.337,3.461,46.899,5.782c7.161,1.068,14.33,1.913,21.348,3.725c0.879,0.227,5.458,1.204,8.212,1.913
			c-2.246,0.885-4.386,1.828-6.294,2.547c-10.409,3.927-21.013,7.272-31.258,11.662c-5.47,2.345-10.671,5.195-15.838,8.109
			c-0.706,0.235-1.411,0.477-2.109,0.754c-1.711,0.68-3.313,1.613-4.962,2.433c-6.412,1.417-12.786,3.102-19.184,4.574
			c-9.073,2.087-18.305,3.556-27.409,5.537c-7.93,1.725-16.1,3.291-24.129,4.467c-8.084,1.183-16.128,1.464-24.363,1.357
			c-7.901-0.102-15.813-1.302-23.691-1.914c-8.094-0.629-17.373-2.283-25.112-4.863c-4.193-1.397-8.197-3.511-11.576-6.339
			c-3.946-3.302-5.067-5.285-5.396-10.562C15.676,238.71,16.497,234.872,17.584,230.934z M114.784,296.993
			c-0.525,2.187-0.884,4.41-1.102,6.647c-0.12,1.229,0.329,3.975-0.271,5.028c-1.362,2.388-6.802,1.689-9.041,1.955
			c-3.248,0.387-6.518,0.175-9.784,0.29c-5.538,0.196-10.987-0.677-16.483-1.306c-12.418-1.423-25.157-2.949-37.283-6.181
			c-6.242-1.664-11.928-4.026-17.596-7.11c-4.777-2.6-9.9-5.949-10.796-11.879c-1.516-10.042-3.039-21.2-2.068-31.616
			c0.166,0.405,0.354,0.803,0.591,1.187c1.567,2.534,4.405,4.826,6.655,6.734c5.475,4.643,12.376,7.445,19.311,8.942
			c15.518,3.349,31.689,6.069,47.619,5.799c7.263-0.123,14.353,0.024,21.506-1.145c8.232-1.345,16.547-2.915,24.724-4.592
			c0.27-0.055,0.541-0.107,0.811-0.162c-1.849,1.438-3.628,2.964-5.305,4.595C119.874,280.405,116.847,288.397,114.784,296.993z
			 M236.995,319.645c-1.824,6.727-2.898,14.756-6.68,20.74c-8.243,13.041-26.49,13.805-40.051,13.535
			c-8.445-0.168-16.94-2.193-25.129-4.154c-7.84-1.878-15.876-3.395-23.282-6.743c-6.628-2.995-13.712-7.757-15.336-15.277
			c-1.702-7.881-2.68-16.888-1.401-24.877c0.302-1.885,0.687-3.791,1.18-5.674c2.122,6.105,6.575,11.681,11.494,15.355
			c10.937,8.169,24.397,12.499,37.655,15.002c14.132,2.667,28.498,2.029,42.411-1.469c6.077-1.528,11.874-3.633,17.325-6.723
			c0.729-0.413,1.478-0.828,2.215-1.264C237.26,318.611,237.134,319.129,236.995,319.645z M248.832,245.755
			c0.035,7.638-1.214,15.58-2.384,23.129c-1.291,8.336-2.066,16.71-3.608,25.012c-0.76,4.089-0.755,10.749-3.743,13.78
			c-3.133,3.178-7.577,4.809-11.519,6.707c-5.182,2.495-10.818,3.935-16.399,5.218c-11.612,2.67-23.801,2.533-35.484,0.381
			c-10.592-1.951-20.435-5.252-29.871-10.48c-5.024-2.783-9.421-6.159-12.822-10.914c-2.167-3.029-2.948-6.216-3.72-9.464
			c1.3-2.571,2.926-4.944,4.963-6.973c5.254-5.232,11.151-9.681,17.729-13.114c5.87-3.064,12.075-5.402,18.271-7.694
			c3.376-0.965,6.656-2.136,9.816-3.735c5.083-1.854,9.994-4.05,15.027-6.251c7.638-3.339,15.573-5.833,23.38-8.736
			c7.571-2.814,15.466-5.31,23.138-7.761c2.372-0.758,6.293-2.391,7.556,0.026C250.669,237.777,248.818,242.568,248.832,245.755z
			 M435.312,212.292c7.098,0.116,14.125,0.982,21.18,1.71c7.183,0.742,13.941,3.329,20.748,5.587c5.66,1.878,13.054,4.47,16.71,9.47
			c0.155,0.662,0.301,1.304,0.459,1.875c1.087,3.937,1.908,7.775,1.652,11.88c-0.328,5.277-1.45,7.26-5.396,10.562
			c-3.379,2.828-7.383,4.941-11.576,6.339c-7.739,2.579-17.018,4.233-25.112,4.863c-7.878,0.612-15.79,1.812-23.691,1.914
			c-8.235,0.106-16.279-0.174-24.363-1.357c-8.029-1.175-16.199-2.741-24.129-4.467c-9.103-1.981-18.335-3.45-27.409-5.537
			c-6.398-1.471-12.772-3.157-19.184-4.574c-1.648-0.82-3.25-1.753-4.962-2.433c-0.697-0.277-1.402-0.519-2.109-0.754
			c-5.168-2.914-10.368-5.764-15.838-8.109c-10.245-4.39-20.849-7.735-31.258-11.662c-1.908-0.72-4.048-1.662-6.294-2.547
			c2.753-0.71,7.333-1.687,8.212-1.913c7.018-1.812,14.186-2.657,21.348-3.725c15.562-2.321,31.264-4.061,46.899-5.782
			c13.593-1.496,27.328-1.497,40.992-1.334C406.565,212.471,420.94,212.057,435.312,212.292z M419.867,179.476
			c0.102,0.296,0.212,0.58,0.305,0.888c1.615,5.312,1.858,14.35,5.271,19.791c-9.274-0.036-18.551,0.006-27.827,0.04
			C407.814,196.041,417.389,188.21,419.867,179.476z M266.538,206.792c0.085-3.335,1.215-6.437,2.613-9.428
			c1.905-4.075,5.026-7.368,7.739-11.001c2.678-3.587,5.417-7.381,8.545-10.579c5.952-6.086,14.111-10.694,21.852-14.123
			c8.947-3.963,20.014-3.572,29.606-3.841c21.171-0.594,43.285,1.231,63.816,6.633c5.172,1.361,9.659,3.102,13.144,6.029
			c0.246,1.326,0.337,2.697,0.057,4.194c-0.837,4.475-3.736,7.115-6.933,10.171c-4.693,4.486-10.719,7.133-16.726,9.364
			c-4.48,1.664-8.891,3.538-13.473,4.909c-4.508,1.349-8.864,1.543-13.526,1.935c-9.816,0.825-19.578,2.174-29.345,3.433
			c-16.316,2.102-33.165,3.783-49.094,8.103c-3.811,1.034-13.373,6.663-16.906,2.652
			C266.451,213.588,266.485,208.852,266.538,206.792z M269.152,293.896c-0.634-3.412-1.098-6.846-1.604-10.278
			c-0.41-2.784-1.549-4.874-2.317-7.537c-1.852-6.422-2.79-13.228-3.202-19.887c-0.251-4.056-0.262-8.128-0.031-12.185
			c0.147-2.575-0.367-6.827,0.833-9.121c1.264-2.415,5.184-0.782,7.556-0.025c7.672,2.451,15.567,4.946,23.138,7.761
			c7.807,2.903,15.742,5.396,23.38,8.736c5.033,2.2,9.943,4.397,15.027,6.251c3.161,1.599,6.44,2.77,9.816,3.735
			c6.196,2.292,12.401,4.63,18.271,7.694c6.578,3.433,12.475,7.882,17.729,13.114c2.037,2.028,3.662,4.402,4.963,6.973
			c-0.772,3.248-1.553,6.435-3.72,9.464c-3.401,4.755-7.798,8.13-12.822,10.914c-9.436,5.228-19.28,8.53-29.871,10.48
			c-11.683,2.152-23.872,2.289-35.484-0.381c-5.581-1.283-11.217-2.723-16.399-5.218c-3.943-1.898-8.387-3.529-11.519-6.707
			C269.907,304.645,269.911,297.985,269.152,293.896z M385.475,327.745c-1.624,7.52-8.708,12.281-15.336,15.277
			c-7.407,3.347-15.443,4.865-23.282,6.743c-8.189,1.961-16.684,3.986-25.129,4.154c-13.561,0.27-31.808-0.494-40.051-13.535
			c-3.782-5.983-4.856-14.012-6.68-20.74c-0.14-0.516-0.265-1.034-0.402-1.55c0.737,0.436,1.487,0.851,2.215,1.264
			c5.451,3.09,11.248,5.195,17.325,6.723c13.913,3.498,28.28,4.137,42.411,1.469c13.257-2.502,26.717-6.833,37.655-15.002
			c4.919-3.674,9.372-9.25,11.494-15.355c0.493,1.883,0.878,3.789,1.18,5.674C388.155,310.857,387.177,319.865,385.475,327.745z
			 M499.563,284.437c-0.896,5.93-6.018,9.279-10.796,11.879c-5.668,3.084-11.354,5.446-17.596,7.11
			c-12.126,3.232-24.866,4.758-37.283,6.181c-5.496,0.629-10.945,1.502-16.483,1.306c-3.266-0.115-6.536,0.097-9.784-0.29
			c-2.239-0.267-7.678,0.433-9.041-1.955c-0.6-1.052-0.151-3.799-0.271-5.028c-0.218-2.238-0.577-4.461-1.102-6.647
			c-2.063-8.596-5.09-16.589-11.488-22.814c-1.677-1.631-3.456-3.157-5.305-4.595c0.27,0.055,0.541,0.107,0.811,0.162
			c8.176,1.676,16.491,3.247,24.724,4.592c7.153,1.169,14.243,1.022,21.506,1.145c15.93,0.271,32.101-2.449,47.619-5.799
			c6.935-1.497,13.836-4.299,19.311-8.942c2.25-1.908,5.088-4.201,6.655-6.734c0.237-0.383,0.425-0.782,0.591-1.187
			C502.602,263.237,501.079,274.396,499.563,284.437z"/>
	</g>
</g>
<g>
	<g>
		<path d="M364.399,279.47c-8.427-6.608-17.137-12.206-27.013-16.526c-10.292-4.502-21.229-7.218-31.64-11.401
			c-5.118-2.057-10.462-4.77-15.895-6.939c-3.493-2.576-6.711-4.849-11.499-4.96c-4.2-0.097-7.614,1.311-10.028,4.898
			c-6.184,9.19,1.714,22.325,5.034,31.086c3.444,9.085,8.968,18.489,15.414,25.782c3.401,3.846,7.284,8.376,11.794,10.945
			c3.831,2.182,8.521,2.423,12.785,2.944c10.863,1.327,21.583-1.149,32.223-3.327c8.775-1.797,17.493-4.335,23.478-11.571
			C375.256,292.901,371.099,284.723,364.399,279.47z M363.043,294.096c-1.195,2.62-5.617,5.08-8.09,6.427
			c-3.313,1.805-7.19,2.225-10.833,2.946c-8.399,1.662-17.474,4.387-26.094,3.655c-3.846-0.327-8.548-0.447-12.128-1.948
			c-3.341-1.4-5.932-4.675-8.423-7.243c-5.294-5.457-9.917-12.678-13.48-19.434c-3.522-6.675-7.548-15.21-9.066-22.579
			c-0.947-4.596-0.383-8.914,5.083-8.358c2.011,0.204,4.158,0.791,6.291,1.428c12.339,7.101,26.344,11.605,39.419,16.775
			c8.036,3.178,15.225,7.419,22.644,11.783c3.621,2.13,6.548,4.739,9.746,7.437C360.815,287.266,364.892,290.042,363.043,294.096z"
			/>
	</g>
</g>
<g>
	<g>
		<path d="M471.815,226.487c-4.931-3.268-11.315-4.516-17.1-5.081c-6.564-0.641-12.984-1.535-19.598-1.86
			c-3.044-0.149-6.071-0.255-9.094-0.375c-12.5-2.585-25.476-4.019-38.215-2.932c-3.733,0.319-7.194,0.693-10.959,0.623
			c-3.483-0.065-6.456,0.644-9.866,0.885c-7.561,0.536-15.068-0.135-22.651,0.784c-6.531,0.791-24.902,2.16-20.759,13.479
			c2.758,7.534,16.155,10.019,22.792,12.118c7.039,2.227,14.606,3.196,21.901,4.233c6.787,0.965,13.399,3.324,20.221,3.902
			c13.463,1.14,26.993,1.906,40.493,3.304c12.982,1.346,28.127,0.497,40.466-4.275C481.375,246.678,482.525,233.584,471.815,226.487
			z M469.011,243.014c-1.613,1.21-3.819,1.664-5.741,2.142c-5.393,1.339-10.975,2.409-16.499,2.978
			c-11.752,1.209-23.569-0.907-35.301-1.596c-11.469-0.673-22.744-1.822-33.984-4.218c-10.893-2.322-21.754-3.179-32.378-6.74
			c-3.765-1.262-7.723-2.396-11.289-4.192c-0.909-0.458-2.818-1.093-2.488-2.187c0.342-1.134,5.758-1.879,6.515-1.998
			c5.234-0.826,10.498-1.026,15.737-1.695c5.399-0.689,10.858,0.491,16.237-0.368c5.164-0.825,10.309-0.309,15.512-0.864
			c5.467-0.583,10.822-0.52,16.321-0.18c4.973,0.308,9.975,0.562,14.965,0.713c4.604,0.63,9.22,1.115,13.853,1.303
			c6.421,0.261,12.761,0.977,19.076,2.1c5.937,1.055,12.377,0.986,17.687,4.376C471.224,235.135,473.546,239.611,469.011,243.014z"
			/>
	</g>
</g>
<g>
	<g>
		<path d="M383.295,168.303c-10.301-3.804-20.918-3.582-31.675-4.518c-10.695-0.931-22.394-1.382-33.006,0.656
			c-4.981,0.956-9.477,2.85-13.51,5.937c-3.605,2.759-7.605,4.743-11.061,7.707c-3.72,3.19-6.307,7.123-9.618,10.687
			c-2.315,2.493-5.328,5.708-4.547,9.42c1.938,9.216,14.718,6.082,20.936,6.07c5.24-0.01,10.126-1.314,15.298-1.988
			c5.187-0.676,10.126-1.846,15.083-3.482c12.092-2.055,24.245-3.476,36.425-4.958c8.049-0.979,20.328-2.027,25.842-8.891
			C399.793,177.064,389.744,170.685,383.295,168.303z M386.203,180.671c-2.151,2.814-9.358,3.755-12.682,4.444
			c-4.215,0.874-8.492,1.37-12.76,1.892c-8.906,1.09-17.734,2.612-26.568,4.17c-5.438,0.959-10.761,2.403-16.096,3.775
			c-0.953,0.11-1.906,0.22-2.869,0.322c-4.265,0.451-8.491,1.688-12.765,1.74c-4.151,0.051-8.808,1.189-12.847,0.356
			c-3.386-0.697-2.009-1.172,0.028-3.378c1.26-1.365,2.658-2.56,3.765-4.064c4.665-6.335,10.673-10.518,17.11-14.972
			c7.766-5.373,18.474-5.129,27.569-5.43c8.773-0.29,18.171,0.206,26.888,1.267C368.204,171.186,389.939,175.784,386.203,180.671z"
			/>
	</g>
</g>
<g>
</g>
<g>
</g>
<g>
</g>
<g>
</g>
<g>
</g>
<g>
</g>
<g>
</g>
<g>
</g>
<g>
</g>
<g>
</g>
<g>
</g>
<g>
</g>
<g>
</g>
<g>
</g>
<g>
</g>
</svg>
