<svg viewBox="-17 0 511 511.99971" xmlns="http://www.w3.org/2000/svg"><path d="m470.84375 3.460938c-5.226562-3.5195318-11.699219-3.4804692-16.425781-3.45703175l-424.675781 2.47656275c-1.410157.007812-2.839844-.019531-4.253907-.042969-10.414062-.183594-24.667969-.4375-24.980469 16.949219-.324218 17.773437 11.921876 35.578125 22.503907 45.425781 17.234375 16.039062 39.558593 24.027344 61.121093 30.269531 31.484376 9.117188 63.804688 15.304688 96.59375 18.550781.128907.398438.304688.789063.566407 1.144532l25.484375 34.664062c-13.242188 102.492188-16.566406 206.726563-9.878906 309.847656 1.363281 21.058594 6.175781 45.976563 31.460937 51.75 2.765625.632813 5.75.960938 8.828125.960938 11.269531 0 23.742188-4.394531 30.816406-14.367188 7.824219-11.027343 9.328125-24.988281 10.191406-38.34375 6.6875-103.121093 3.363282-207.355468-9.878906-309.84375l25.484375-34.667968c.386719-.527344.609375-1.117188.710938-1.71875 34.34375-3.75 68.125-10.71875 100.933593-20.890625 27.742188-8.597657 66.253907-23.988281 80.351563-58.210938 4.355469-10.585937 4.519531-24.121093-4.953125-30.496093zm-458.558594 32.777343c-2.558594-6.046875-3.664062-11.601562-3.71875-15.929687l461.832032 2.90625c-.339844 2.613281-1.070313 5.265625-2.058594 7.671875-.324219.785156-.671875 1.550781-1.027344 2.3125zm429.960938 5.191407c-8.765625 13.363281-25.886719 20.019531-41.792969 24.769531-51.9375 15.5-106.132813 23.441406-161.074219 23.601562-.578125.003907-1.144531.003907-1.722656.003907-54.351562 0-108.007812-7.617188-159.492188-22.652344-16.421874-4.796875-32.894531-10.941406-43.394531-23zm-420.015625-30.960938c.976562 0 2.015625.011719 3.117187.03125 1.476563.027344 2.96875.050781 4.441406.042969l424.675782-2.476563c4.769531-.03125 8.953125.109375 11.875 2.078125 2.832031 1.90625 4.082031 5.253907 4.253906 9.039063l-461.667969-2.90625c1.109375-4.898438 4.96875-5.808594 13.304688-5.808594zm249.484375 269.878906c.164062 3.476563.316406 6.953125.457031 10.433594-22.652344-6.03125-46.445313-6.324219-69.214844-.855469.144531-3.519531.300781-7.035156.46875-10.554687 21.75-5.945313 45.445313-5.683594 67.019531.8125.386719.117187.777344.171875 1.164063.171875.035156 0 .070313-.007813.105469-.007813zm1.765625 73.578125c-24.070313 3.953125-48.773438 1.929688-71.847657-5.882812.019532-4.628907.058594-9.253907.121094-13.882813l71.59375.761719c.082032 6.335937.125 12.667969.132813 19.003906zm-71.871094-1.640625c15.449219 5.078125 31.582031 7.65625 47.769531 7.65625 8.046875 0 16.105469-.644531 24.097656-1.921875-.011718 5.632813-.046874 11.269531-.117187 16.902344-23.527344 7.621094-49.808594 5.339844-71.691406-6.097656-.046875-5.511719-.070313-11.027344-.058594-16.539063zm.203125-22.15625c.085938-5.410156.195312-10.820312.335938-16.226562 23.605468-2.953125 47.402343-2.3125 70.835937 1.886718.125 5.03125.230469 10.066407.308594 15.101563zm71.066406-18.453125c-23.367187-4.105469-47.082031-4.734375-70.613281-1.851562.148437-5.230469.316406-10.460938.515625-15.691407 22.859375-5.695312 46.824219-5.414062 69.558594.859376.207031 5.558593.386718 11.121093.539062 16.683593zm-27.90625 71.722657c9.570313 0 19.140625-1.410157 28.332032-4.238282-.082032 5.734375-.203126 11.46875-.347657 17.203125-22.890625 9.046875-49.492187 7.203125-70.945312-4.792969-.136719-6.070312-.234375-12.140624-.300781-18.210937 13.429687 6.632813 28.335937 10.039063 43.261718 10.039063zm26.234375 57.402343c-22.246093 7.332031-47.136719 4.992188-67.640625-6.273437-.25-5.050782-.480468-10.101563-.683594-15.152344 11.039063 6.289062 23.332032 9.46875 36.085938 9.46875 10.878906 0 22.09375-2.3125 33.136719-6.964844-.261719 6.3125-.5625 12.617188-.898438 18.921875zm-66.808593 9.175781c-.210938-3.585937-.414063-7.171874-.601563-10.761718 12.667969 6.5 26.804687 9.828125 40.96875 9.828125 8.84375 0 17.695313-1.304688 26.203125-3.933594-.097656 1.742187-.195312 3.484375-.300781 5.226563-.421875.042968-.84375.132812-1.253907.316406-20.539062 9.179687-44.6875 8.890625-65.015624-.675782zm67.882812-32.570312c-24.1875 10.777344-49.328125 9.710938-69.578125-2.828125-.226563-6.121094-.417969-12.242187-.570313-18.367187 12.503907 6.535156 26.535157 9.875 40.582032 9.875 10.238281 0 20.476562-1.78125 30.132812-5.367188-.15625 5.5625-.351562 11.125-.566406 16.6875zm-10.855469 75.5625c-6.039062 8.515625-19.480469 12.902344-31.273437 10.210938-19.886719-4.542969-23.917969-24.835938-25.191406-44.160157 10.394531 4.246094 21.554687 6.386719 32.726562 6.386719 11.054688 0 22.117188-2.097656 32.4375-6.296875-.792969 12.097656-2.15625 24.636719-8.699219 33.859375zm-.566406-346.996094c-.617187.835938-.882813 1.878906-.75 2.90625 5.320313 40.835938 9.046875 81.957032 11.195313 123.171875-21.769532-6.265625-45.460938-6.652343-67.457032-1.136719 2.15625-40.835937 5.863282-81.574218 11.132813-122.035156.132812-1.03125-.132813-2.070312-.75-2.910156l-23.085938-31.40625c14.480469 1.152344 29.042969 1.753906 43.664063 1.753906 1.726562 0 3.460937-.007812 5.1875-.023437 14.847656-.140625 29.625-.894531 44.3125-2.222657zm132.195313-61.503906c-98.605469 30.5625-207.519532 31.582031-306.683594 2.871094-20.597656-5.96875-41.867188-13.539063-57.867188-28.429688-5.109375-4.753906-9.070312-9.746094-12.066406-14.632812l13.179688-.089844c11.027343 14.589844 29.277343 21.535156 47.417968 26.832031 51.855469 15.144531 105.886719 22.816407 160.621094 22.816407.578125 0 1.15625 0 1.734375-.003907 55.328125-.160156 109.90625-8.160156 162.21875-23.773437 17.464844-5.210938 36.382813-12.695313 45.378906-28.660156l15.824219-.105469c-15.789062 24.003906-46.691406 36.023437-69.757812 43.175781zm0 0"/></svg>