<svg viewBox="-2 0 512 512.0015" xmlns="http://www.w3.org/2000/svg"><path d="m37.03125 218.46875c-10.019531-6.316406-21.382812-3.976562-28.953125 5.957031-7.910156 10.382813-9.550781 27.097657 1.402344 37.089844l.363281.332031c.335938.300782.835938.75 1.121094 1.078125-.308594.40625-.925782 1.015625-1.328125 1.410157-.480469.46875-.953125.9375-1.378907 1.414062-4.59375 5.167969-4.609374 13.699219-.035156 19.425781 3.445313 4.3125 9.03125 6.808594 14.988282 6.808594.828124 0 1.667968-.050781 2.503906-.148437 5.515625-.644532 11.003906-3.347657 15.871094-7.816407 8.847656-8.121093 13.570312-21.78125 12.316406-35.652343-1.171875-12.980469-7.320313-23.878907-16.871094-29.898438zm-.898438 59.609375c-2.515624 2.3125-6.53125 5.183594-11.359374 5.75-4.054688.476563-8.082032-.96875-10.253907-3.6875-2.121093-2.652344-2.230469-6.789063-.238281-9.03125.308594-.34375.65625-.679687 1.003906-1.023437 1.683594-1.652344 4.226563-4.152344 3.835938-7.945313-.316406-3.078125-2.460938-5.007813-3.878906-6.289063l-.324219-.292968c-7.542969-6.878906-6.140625-18.75-.425781-26.246094 7.414062-9.730469 15.835937-5.542969 18.238281-4.027344 7.410156 4.671875 12.199219 13.347656 13.144531 23.808594 1.027344 11.421875-2.703125 22.527344-9.742188 28.984375zm0 0"/><path d="m505.117188 52.726562c-2.394532-2.503906-5.734376-4.070312-9.648438-4.605468 1.578125-2.75 2.933594-5.734375 3.660156-9.015625 1.351563-6.132813.003906-14.261719-6.0625-18.597657-6.089844-4.355468-14.238281-2.980468-19.613281.3125-2.289063 1.402344-4.265625 3.125-6.03125 4.980469-.59375-1.453125-1.371094-2.871093-2.320313-4.226562-3.554687-5.078125-9.15625-8.605469-14.988281-9.445313-10.339843-1.480468-21.285156 4.175782-27.230469 14.089844-4.371093 7.285156-6.066406 16.664062-4.890624 26.671875-.453126-.089844-.902344-.179687-1.355469-.273437l-164.042969-32.8125c-33.058594-6.609376-67.238281-13.449219-101.277344-18.128907-16.640625-2.285156-35.625-3.851562-50.316406 6.601563-12.488281 8.886718-17.972656 23.972656-22.382812 36.09375l-4.929688 13.550781c-4.726562-5.371094-11.601562-11.054687-20.71875-13.382813-10.722656-2.742187-22.292969.527344-28.792969 8.128907-5.929687 6.9375-6.859375 17.199219-2.988281 24.761719-11.304688 4.464843-19.953125 15.4375-21.0625 27.636718-1.050781 11.503906 4.691406 23.144532 13.996094 29.828125-7.496094 5.316407-12.320313 14.390625-11.941406 23.671875.496093 12.125 9.820312 23.183594 21.691406 25.71875 1.769531.378906 3.5625.558594 5.355468.558594 8.683594 0 17.273438-4.28125 22.488282-11.226562-.425782 2.652343-.664063 5.355468-.632813 8.109374.152344 13.921876 8.042969 26.445313 19.191407 30.457032 0 .003906.003906.003906.007812.003906-.136719 1.164062-.226562 2.269531-.308594 3.257812-1.992187 24.738282-4.054687 50.320313-1.636718 75.65625 2.75 28.855469 11.058593 53.144532 24.691406 72.195313 3.847656 5.375 8.207031 10.445313 12.421875 15.347656 8.015625 9.324219 15.585937 18.132813 19.917969 28.839844 8.964843 22.144531 2.863281 48.835937-3.5625 72.109375-.539063 1.949219.449218 3.996094 2.3125 4.785156 39.59375 16.804688 81.53125 26.074219 124.652343 27.546875 1.25.042969 2.527344.074219 3.824219.074219 5.960938 0 12.316406-.675781 17.703125-4.097656 5.675781-3.605469 9.726563-9.824219 12.382813-19.003906 2.476562-8.5625 3.421874-17.417969 4.335937-25.980469.875-8.171875 1.699219-15.890625 3.738281-23.429688 4.875-18.03125 16.050782-33.039062 27.882813-48.933593 4.425781-5.941407 9-12.085938 13.160156-18.34375 15.625-23.503907 26.351563-50.890626 31.222656-79.5625 11.9375 2.773437 24.226563 5.457031 36.859375 5.457031.898438 0 1.800782-.011719 2.699219-.039063 16.613281-.519531 30.925781-6.25 40.300781-16.136718 11.710938-12.34375 14.621094-29.183594 17.4375-45.464844.964844-5.582032 1.964844-11.351563 3.300782-16.738282 3.203124-12.894531 8.933593-25.367187 14.476562-37.429687 3.652344-7.945313 7.429688-16.160156 10.527344-24.554687 9.902344-26.820313 9.507812-51.164063-1.113282-68.546876-1.066406-1.742187-2.21875-3.390624-3.433593-4.960937 5.855469-.855469 12.210937-2.390625 17.398437-6.480469 4.195313-3.308594 7.035156-8.652344 7.40625-13.945312.304688-4.289063-1.03125-8.222656-3.761718-11.082032zm-90.0625 7.800782c1.957031.390625 3.917968.792968 5.871093 1.207031 12.941407 34.121094 15.410157 74.292969 7.125 116.460937-4.148437 21.109376-12.972656 55.429688-41.457031 110.875-7.53125-1.019531-15.023438-2.710937-22.386719-4.425781 3.972657-30.394531 1.300781-61.355469-7.777343-89.652343-2.835938-8.824219-6.804688-18.734376-14.785157-25.320313-6.371093-5.257813-16.011719-7.765625-24.027343-4.871094.386718-3.992187.75-7.984375 1.058593-11.988281.550781-7.125.898438-14.085938-.828125-20.949219-2.109375-8.394531-7.136718-14.921875-13.792968-17.910156-7.050782-3.167969-15.898438-2.261719-23.664063 2.425781-3.566406 2.152344-6.875 5.152344-9.777344 8.25-.003906-1.949218-.035156-3.898437-.109375-5.851562-.410156-10.460938-3.761718-17.0625-9.972656-19.613282-5.410156-2.226562-11.710938-.722656-18.730469 4.46875-10.722656 7.933594-20.015625 20.113282-26.070312 33.808594-3.390625-6.519531-9.519531-12.253906-17.722657-12.773437-8.632812-.542969-17.117187 4.886719-24.507812 15.703125-9.609375 14.074218-20.296875 34.992187-26.6875 83.453125-.113281.867187-.226562 1.742187-.335938 2.613281-12.675781 1.199219-23.296874-1.378906-34.183593-8.277344-.273438-.175781-.566407-.300781-.859375-.402344-1.933594-5.84375-4.585938-12.1875-9.472656-16.988281 26.589843-22.5 47.90625-51.097656 61.804687-83.046875 14.0625-32.324218 20.429687-67.863281 18.550781-103.058594 23.128906 3.949219 46.175782 8.542969 68.695313 13.046876zm-100.507813 130.398437c1.539063.425781 2.921875 1.917969 3.5 3.464844.945313 2.523437.625 5.589844.34375 8.296875l-5.101563 48.820312c-.722656 6.914063-1.46875 14.066407-4.546874 20.277344-2.605469 5.25-6.898438 9.101563-11.492188 10.523438 6.75-29.507813 13.011719-60.171875 17.296875-91.382813zm-50.378906-8.316406c1.667969-9.816406 3.359375-19.789063 4.59375-29.863281 1.78125.382812 3.519531 1.980468 4.230469 3.757812 1.214843 3.027344.6875 6.699219.222656 9.9375l-12.011719 83.914063c-.648437 4.53125-1.320313 9.214843-3.550781 13.113281-1.660156 2.894531-4.75 5.695312-8.273438 6.089844zm-34.246094-45.925781c1.011719 3.027344.777344 6.394531.394531 10.164062-3.121094 30.78125-9.753906 61.566406-16.167968 91.339844-.992188 4.609375-2.019532 9.378906-4.179688 13.527344-2.117188 4.066406-5.238281 7.066406-8.660156 8.347656l-.144532-.078125 16.085938-90.683594c.992188-5.589843 2.070312-11.699219 1.863281-17.90625.125-.234375.230469-.488281.308594-.753906 1.867187-6.285156 4.515625-12.382813 7.753906-18.023437 1.296875 1.0625 2.257813 2.601562 2.746094 4.066406zm-58.1875 23.121094c.734375 1.660156.503906 3.835937.304687 5.757812l-8.902343 84.894531c-.601563 5.75-1.285157 12.261719-4.492188 17.324219-2.214843 3.496094-6.320312 6.355469-10.398437 6.484375 1.902344-11.117187 3.25-22.300781 4.570312-33.308594.632813-5.28125 1.285156-10.742187 1.988282-16.078125 2.773437-21.03125 7-44.484375 16.886718-65.152344.011719.027344.027344.050782.042969.078126zm-36.371094 135.898437-20.503906-66.890625c8.25 4.011719 16.71875 5.972656 25.894531 5.972656 1.546875 0 3.117188-.0625 4.703125-.171875-.21875 1.804688-.433593 3.605469-.648437 5.382813-2.21875 18.535156-4.503906 37.582031-9.445313 55.707031zm24.707031-179.589844c-13.753906 31.609375-34.898437 59.878907-61.28125 82.050781-2.882812-1.96875-5.980468-3.082031-9.019531-3.46875 47.132813-48.351562 72.875-116.234374 69.550781-183.710937 6.308594.933594 12.617188 1.929687 18.921876 2.984375 2.003906 34.867188-4.238282 70.113281-18.171876 102.144531zm-134.515624 60.289063c-8.246094-1.761719-14.972657-9.742188-15.316407-18.167969s5.710938-16.921875 13.785157-19.351563c1.664062-.496093 2.820312-2.003906 2.871093-3.738281s-1.011719-3.308593-2.640625-3.90625c-9.996094-3.664062-17.066406-14.839843-16.101562-25.441406s9.9375-20.316406 20.429687-22.117187c1.523438-.257813 2.761719-1.367188 3.191407-2.847657.429687-1.484375-.027344-3.082031-1.171876-4.117187-4.835937-4.367188-4.980468-13.332032-.296874-18.804688 4.550781-5.324218 12.855468-7.554687 20.667968-5.5625 6.996094 1.789063 13.820313 6.78125 19.21875 14.066406.085938.117188.191406.214844.289063.320313l-20.367188 55.992187c-5.15625 14.164063-9.335937 30.09375-2.792969 42.773438-.132812.179688-.261718.371094-.363281.578125-3.757812 7.550781-13.15625 12.082031-21.402343 10.324219zm33.589843 5.238281c-.117187-10.636719 4.523438-21.050781 8.878907-29.980469 4.273437-8.757812 9.019531-17.601562 13.605468-26.15625 14.410156-26.867187 29.3125-54.652344 33.007813-85.488281.265625-2.210937-1.308594-4.21875-3.519531-4.484375-2.210938-.257812-4.21875 1.3125-4.484376 3.523438-3.515624 29.328124-18.050781 56.429687-32.109374 82.636718-4.621094 8.621094-9.40625 17.535156-13.746094 26.433594-2.132813 4.371094-4.324219 9.082031-6.085938 14.066406-5.421875-9.941406-1.820312-23.46875 2.996094-36.710937l28.503906-78.355469c4.945313-13.59375 9.828125-25.40625 19.480469-32.277344 12.289063-8.746094 29.4375-7.261718 44.542969-5.183594 1.679687.230469 3.359375.488282 5.039062.730469 3.578125 68.019531-22.910156 136.53125-71.328125 184.441407-3.40625.628906-6.4375 2.191406-8.582031 4.472656-1.394531 1.488281-2.40625 3.183594-3.152344 4.949218-8.816406-3.703124-12.957031-14.1875-13.046875-22.617187zm17.214844 108.695313c-1.394531-14.640626-1.238281-29.492188-.472656-44.253907.367187-.214843.75-.359375 1.09375-.460937 1.996093-.578125 4.410156-.136719 6.007812 1.097656 3.039063 2.359375 4.40625 6.378906 5.753907 11.007812l17.417968 59.726563c2.5625 8.78125 5.210938 17.859375 5.160156 27.046875-.046874 8.195312-2.441406 15.496094-6.671874 20.675781-1.761719-2.164062-3.476563-4.351562-5.066407-6.574219-12.796875-17.875-20.609375-40.84375-23.222656-68.265624zm215.335937 125.8125c-26.058593-22.105469-58.515624-29.007813-81.292968-30.878907-28.574219-2.347656-57.382813 1.539063-84.457032 6.339844-2.6875-4.050781-5.675781-7.882813-8.761718-11.597656 29.871094-11.363281 62.300781-15.511719 94.078125-11.957031 32.070312 3.582031 63.058593 14.964843 89.855469 32.925781-3.378907 4.90625-6.582032 9.941406-9.421876 15.167969zm-153.769531 14.863281c3.925781.023437 7.84375.101562 11.757813.226562 1.683594 17.5625.132812 35.703125-4.507813 52.726563-4.921875-1.769532-9.8125-3.648438-14.664062-5.652344 4.066406-15.089844 7.722656-31.410156 7.414062-47.300781zm112.921875 15.070312c-5.847656 18.628907-9.953125 37.859375-12.222656 57.253907-7.1875-.464844-14.339844-1.140626-21.453125-2.050782 1.230469-20.617187 5.464844-40.875 12.609375-60.261718 7.054688 1.515624 14.078125 3.199218 21.066406 5.058593zm-37.679687 54.664063c-6.945313-.972656-13.84375-2.15625-20.695313-3.550782 1.4375-20.6875 5.367188-41.15625 11.691406-60.902343 7.242188 1.121093 14.457032 2.402343 21.636719 3.878906-7.125 19.5-11.371093 39.859375-12.632812 60.574219zm-24.679688-4.363282c-6.058593-1.308593-12.074219-2.804687-18.058593-4.441406 3.90625-19.425781 5.871093-39.261718 5.851562-59.074218 7.976562.726562 15.929688 1.648437 23.847656 2.800781-6.253906 19.695312-10.164062 40.09375-11.640625 60.714843zm-21.953125-5.511718c-5.894531-1.691406-11.738281-3.5625-17.546875-5.574219 4.78125-17.40625 6.417969-35.953125 4.757813-53.929687 6.179687.25 12.347656.625 18.503906 1.128906.046875 19.578125-1.875 39.179687-5.714844 58.375zm82.511719 12.996094c-2.140625-.074219-4.273437-.175782-6.40625-.289063 2.25-19.121094 6.324219-38.078125 12.101563-56.445313 4.804687 1.324219 9.589843 2.730469 14.355468 4.21875-4.601562 16.9375-7.503906 34.371094-8.589844 51.890626-3.582031.78125-7.574218.757812-11.460937.625zm25.886719-17.210938c-2.085938 7.210938-5.015625 11.933594-8.964844 14.441406-.421875.269532-.863281.503906-1.3125.726563 1.140625-16.628907 3.929688-33.167969 8.289062-49.253907 2.191407.703126 4.386719 1.410157 6.570313 2.148438.101563.035156.199219.050781.300781.078125-.296875 2.433594-.5625 4.859375-.816406 7.261719-.921875 8.597656-1.789062 16.714844-4.066406 24.597656zm8.035156-49.273438c-.835938 3.082032-1.480469 6.203126-2.007812 9.328126-46.367188-15.5625-94.644532-23.554688-143.550782-23.769532-.710937-6.3125-2.152344-12.511718-4.570312-18.484375-1.296875-3.203125-2.851563-6.242187-4.585938-9.164062 26.335938-4.621094 54.257813-8.269531 81.816406-6.003907 22.390626 1.839844 54.355469 8.636719 79.710938 30.515626-2.800781 5.597656-5.148438 11.429687-6.8125 17.578124zm42.113281-69.636718c-4.042969 6.078125-8.550781 12.132812-12.914062 17.992187-.265625.355469-.53125.714844-.796875 1.074219-3.207032-1.082031-5.511719-4.289062-6.242188-7.335938-1.097656-4.574218.453125-9.355468 1.949219-12.5625 1.28125-2.75 2.890625-5.300781 4.59375-8 .855469-1.351562 1.738281-2.75 2.566406-4.167968 1.257813-2.144532 2.417969-4.367188 3.535157-6.515625 1.53125-2.929688 3.109374-5.964844 4.917968-8.738281 3.539063-5.421876 7.542969-9.039063 11.898438-10.742188 3.507812-1.371094 7.332031-1.339844 10.40625-.085938-5.195313 13.84375-11.882813 27-19.914063 39.082032zm21.273438-42.851563c-4-1.566406-8.832031-1.617187-13.234375.101563-5.152344 2.015625-9.796875 6.152344-13.804688 12.296875-1.917968 2.9375-3.542968 6.054687-5.117187 9.074219-1.097657 2.105468-2.230469 4.28125-3.4375 6.339843-.796875 1.359375-1.664063 2.730469-2.5 4.054688-1.695313 2.6875-3.449219 5.464843-4.839844 8.445312-2.53125 5.433594-3.296875 10.695313-2.214844 15.210938 1.0625 4.425781 4.007813 8.027343 7.683594 9.734375-1.839844 2.484375-3.667969 4.988281-5.464844 7.519531-27.347656-18.34375-58.976562-29.96875-91.714843-33.625-32.878907-3.675781-66.441407.730469-97.269532 12.699219-.960937-1.125-1.921875-2.246094-2.878906-3.363282-1.433594-1.664062-2.878906-3.355468-4.3125-5.0625 5.132812-5.933593 8.050781-14.367187 8.101562-23.800781.054688-9.777343-2.675781-19.140625-5.320312-28.199219l-17.417969-59.726562c-1.195312-4.097656-2.835937-9.710938-7.15625-13.0625-2.535156-1.960938-6.164062-2.664062-9.328125-1.84375.515625-8.589844 1.199219-17.144531 1.878906-25.597656.378907-4.6875.882813-8.773438 3.21875-11.265625 3.550782-3.785157 10.722657-2.398438 14.761719 1.367187 4.90625 4.578125 7.136719 11.851563 9.101563 18.269532l26.378906 86.046874c.507812 1.660157 2.027344 2.808594 3.761719 2.851563 1.773437.027344 3.304687-1.039063 3.890625-2.675781 3.761718-10.542969 6.382812-21.414063 8.40625-32.375.152344.003906.304687.019531.457031.019531 5.714844 0 11.179687-3.832031 14.066406-8.390625 3.710938-5.859375 4.445313-12.871094 5.09375-19.058594l8.902344-84.898437c.242187-2.300781.542969-5.164063-.628906-7.808594-.394531-.898437-1.003907-1.722656-1.746094-2.410156 1.953125-3.726563 4.105469-7.355469 6.488281-10.84375 3.972656-5.8125 10.199219-12.660157 17.339844-12.203125 6.367188.402344 11.222656 6.707031 12.730469 12.726562 1.792969 7.171875.351562 15.289063-.917969 22.449219l-21.953125 123.757813c-3.503906-.015626-7 .640624-10.21875 2.046874-2.042969.890626-2.972656 3.269532-2.082031 5.308594.894531 2.039063 3.269531 2.96875 5.308594 2.078125 6.796874-2.96875 15.378906-1.164062 20.40625 4.292969.796874.863281 1.878906 1.300781 2.96875 1.300781.972656 0 1.953124-.355469 2.726562-1.066406 1.640625-1.507813 1.742188-4.058594.234375-5.695313-3.066406-3.332031-7.054687-5.710937-11.371094-7.039062l5.097657-28.734375c.21875.078125.445312.132813.675781.132813.191406 0 .386719-.027344.570312-.082032 4.835938-1.429687 9.050781-5.199218 11.871094-10.613281 2.410156-4.628906 3.496094-9.667969 4.542969-14.539063 6.4375-29.882812 13.09375-60.78125 16.238281-91.785156.414063-4.085937.683594-8.066406-.582031-11.847656-.773438-2.320312-2.320313-4.675781-4.460938-6.253906 4.863282-7.609375 10.796875-14.214844 17.3125-19.039063 3.15625-2.332031 7.605469-4.832031 10.867188-3.492187 3.777344 1.550781 4.792968 7.636718 4.984375 12.472656.808593 20.792969-2.769531 41.824219-6.230469 62.164062l-20.023438 117.726563c-.019531.109375-.015624.214844-.023437.320313-3.003906.371093-5.929687 1.304687-8.558594 2.84375-1.921875 1.125-2.566406 3.59375-1.441406 5.515624 1.125 1.921876 3.59375 2.566407 5.515625 1.441407 4.988281-2.921875 11.945312-2.488281 16.535156 1.027343.730469.558594 1.59375.832032 2.449219.832032 1.210937 0 2.410156-.546875 3.203125-1.582032 1.355469-1.765624 1.019531-4.296874-.75-5.652343-2.617188-2.003907-5.667969-3.355469-8.871094-4.054688l4.433594-26.042969c4.808594-.078124 9.609375-3.179687 12.460938-8.160156 2.617187-4.566406 3.375-9.867187 4.046874-14.542968l12.011719-83.917969c.511719-3.554688 1.144531-7.976563-.472656-12.007813-1.253906-3.132812-4.203125-5.761718-7.503906-6.292968.398437-3.644532.726562-7.304688.964843-10.972657 3.460938-4.578125 8.703126-11.039062 14.363282-14.453125 5.421875-3.273437 11.625-4.03125 16.195312-1.976562 4.324219 1.945312 7.792969 6.625 9.277344 12.523437 1.429688 5.683594 1.101562 11.929688.605469 18.363281-3.984375 51.691407-15.039063 102.792969-26.394531 150.324219-3.296876.488281-6.390626 1.5625-9.203126 2.554688-2.101562.742187-3.203124 3.042969-2.464843 5.140625.742187 2.101562 3.042969 3.199218 5.144531 2.460937 3.449219-1.214843 7.015625-2.46875 10.382812-2.371093 2.484376.078124 5.453126 1.167968 6.496094 3.433593.679688 1.476563 2.140625 2.347657 3.664063 2.347657.566406 0 1.136719-.117188 1.683593-.367188 2.023438-.929688 2.910157-3.324219 1.976563-5.347656-1.671875-3.636719-5.191406-6.355469-9.476563-7.511719 1.277344-5.347656 2.546876-10.734375 3.804688-16.167969 7.65625-1.285156 13.28125-7.425781 16.101562-13.113281 3.402344-6.863281 4.222657-14.71875 4.949219-21.652344l5.097657-48.820312c.3125-2.992188.703124-6.71875-.574219-10.132813-1.050781-2.792968-3.601563-5.464844-6.75-6.074218.535156-4.058594 1.035156-8.121094 1.496093-12.191407.050782-.042969.105469-.074219.152344-.117187 4.117188-3.832032 12.855469-4.421875 19.789063 1.296875 6.375 5.265625 9.765625 13.859375 12.238281 21.570312 8.882812 27.683594 11.394531 58.042969 7.257812 87.796875-1.886718 13.570313-5.148437 26.875-9.652343 39.640625zm55.972656-34.890625c-3.8125.121094-7.632813-.058594-11.453125-.433594 14.1875-27.679687 32.691406-67.644531 41.128906-110.597656 8.238282-41.910156 6.007813-81.925781-6.402344-116.214844 6.792969 1.535157 13.484376 3.296876 19.820313 5.492188 10.695313 20.324219 15.492187 45.40625 13.855469 72.792969-1.652344 27.625-9.375 54.25-16.710938 76.65625-8.105468 24.753906-17.886718 50.460937-34.324218 71.855469-1.925782.230468-3.894532.386718-5.914063.449218zm78.730469-135.054687c-2.988282 8.101562-6.699219 16.171875-10.289063 23.980469-5.699219 12.398437-11.59375 25.222656-14.976562 38.851562-1.40625 5.667969-2.429688 11.585938-3.417969 17.308594-2.730469 15.796875-5.3125 30.714844-15.34375 41.289062-5.683594 5.992188-13.65625 10.164063-23.0625 12.210938 15.277344-21.136719 24.632812-45.828125 32.429688-69.636719 7.417968-22.648437 15.222656-49.585937 16.902343-77.671875 1.578125-26.378906-2.6875-50.722656-12.332031-70.953125 12.367188 5.019531 22.960938 12.105469 29.660156 23.070313 12.558594 20.554687 5.660156 47.386718.429688 61.550781zm19.777344-91.707031c-.214844 3.050781-1.921876 6.261718-4.351563 8.175781-4.613281 3.632812-10.84375 4.585937-18.511719 5.453125-.199218.019531-.386718.074218-.574218.121094-13.3125-12.152344-31.894532-18.0625-51.027344-22.324219-.007813-.054688-.003906-.109375-.011719-.164063-1.59375-9.214844-.371094-17.789062 3.433594-24.132812 4.234375-7.054688 12.117187-11.273438 19.171875-10.257813 3.667968.523438 7.230468 2.800781 9.53125 6.085938 1.964844 2.804687 2.714844 5.929687 2.113281 8.800781-.390625 1.859375.570313 3.738281 2.304687 4.511719 1.734376.769531 3.777344.226562 4.898438-1.308594 2.898438-3.972656 5.898438-8.082031 9.855469-10.507813 3.003906-1.84375 7.636719-2.824218 10.710937-.628906 3.054688 2.1875 3.632813 6.875 2.878906 10.304688-1 4.515625-3.886718 8.683594-6.683593 12.714844-.929688 1.34375-.960938 3.117187-.070313 4.492187.890625 1.371094 2.523438 2.070313 4.132813 1.765625 2.238281-.425781 7.753906-1.078125 10.652343 1.953125 1.460938 1.53125 1.648438 3.535156 1.546876 4.945313zm0 0"/><path d="m433.402344 311.753906c-14.605469-2.3125-37.019532 1.699219-51.597656 13.839844-8.382813 6.976562-12.941407 15.792969-13.1875 25.496094-.171876 6.773437 2.664062 13.820312 7.589843 18.855468 2.363281 2.417969 5.066407 4.246094 7.953125 5.414063-2.089844 3.296875-3.382812 7.195313-3.761718 11.464844-.667969 7.59375 1.808593 15.289062 6.632812 20.589843 5.679688 6.234376 14.074219 9.550782 22.726562 9.546876 5.105469 0 10.296876-1.152344 15.074219-3.539063 9.5-4.746094 16.996094-14.121094 20.476563-25.253906 2.679687.980469 5.761718 1.152343 8.742187.34375 4.015625-1.089844 7.664063-3.664063 11.15625-7.871094 9.765625-11.773437 12.421875-25.480469 7.476563-38.597656-5.867188-15.554688-21.285156-27.445313-39.28125-30.289063zm25.597656 63.734375c-2.363281 2.847657-4.738281 4.609375-7.058594 5.238281-2.296875.625-4.796875-.039062-5.820312-1.542968-.925782-1.355469-2.582032-2.019532-4.1875-1.671875-1.605469.351562-2.839844 1.640625-3.117188 3.261719-1.929687 11.234374-8.667968 20.980468-17.585937 25.4375-9.558594 4.773437-21.695313 2.957031-28.234375-4.226563-3.335938-3.660156-5.039063-9.066406-4.566406-14.453125.429687-4.84375 2.507812-8.933594 5.855468-11.507812 1.371094-1.054688 1.914063-2.863282 1.355469-4.496094-.558594-1.632813-2.09375-2.730469-3.816406-2.730469-.015625.003906-.027344.003906-.042969 0-3.496094 0-6.980469-1.589844-9.808594-4.488281-3.433594-3.507813-5.414062-8.375-5.296875-13.015625.1875-7.414063 3.648438-13.976563 10.285157-19.503907 12.601562-10.492187 32.683593-14.046874 45.179687-12.074218 14.949219 2.367187 28.210937 12.480468 32.996094 25.171875 2.746093 7.277343 3.910156 18.496093-6.136719 30.601562zm0 0"/><path d="m51.015625 92.320312c-.09375 1.109376.730469 2.085938 1.839844 2.179688 1.109375.097656 2.085937-.730469 2.179687-1.839844.242188-2.867187-1.011718-5.695312-3.445312-7.757812-2.886719-2.449219-6.996094-3.460938-10.46875-2.582032-5.359375 1.355469-9.875 6.183594-12.082032 12.910157-1.289062 3.9375-1.421874 7.394531-.390624 10.277343.664062 1.851563 1.851562 3.410157 3.3125 4.503907-3.417969 2.59375-5.59375 6.851562-5.320313 11.199219.296875 4.683593 3.398437 8.894531 7.558594 10.898437-2.441407 2.078125-4.460938 4.664063-5.859375 7.542969-1.226563 2.527344-2.363282 6.269531-.808594 9.75.882812 1.972656 2.78125 3.523437 4.953125 4.042968.519531.125 1.03125.183594 1.53125.183594 1.292969 0 2.496094-.410156 3.484375-1.210937.867188-.703125 1-1.96875.300781-2.835938-.699219-.867187-1.96875-1-2.835937-.300781-.480469.390625-1.105469.347656-1.542969.242188-.949219-.226563-1.839844-.9375-2.210937-1.769532-.96875-2.171875.054687-4.90625.753906-6.339844 1.695312-3.492187 4.492187-6.457031 7.878906-8.351562.78125-.4375 1.179688-1.335938.980469-2.207031-.199219-.871094-.945313-1.507813-1.835938-1.566407-4.242187-.273437-8.058593-4.089843-8.324219-8.332031-.269531-4.246093 3.03125-8.511719 7.203126-9.320312 1.070312-.207031 1.785156-1.226563 1.609374-2.300781-.175781-1.078126-1.179687-1.824219-2.257812-1.675782-2.074219.277344-4.09375-1.609375-4.773438-3.511718-.722656-2.019532-.582031-4.597657.425782-7.664063 1.773437-5.410156 5.226562-9.242187 9.238281-10.261719 2.25-.570312 4.945313.117188 6.871094 1.75.835937.714844 2.21875 2.226563 2.035156 4.347656zm0 0"/><path d="m456.6875 44.109375c-1.136719.414063-2.15625.972656-3.070312 1.617187.175781-.660156.339843-1.339843.460937-2.035156.707031-3.96875-.625-8.65625-4.539063-9.925781-4.828124-1.570313-8.769531 3.277344-10.066406 4.867187-.996094 1.226563-2.125 2.613282-2.710937 4.398438-.746094 2.296875-.261719 4.742188 1.238281 6.222656.789062.78125 2.066406.777344 2.847656-.011718.785156-.792969.777344-2.070313-.011718-2.851563-.40625-.402344-.503907-1.289063-.238282-2.109375.347656-1.074219 1.1875-2.105469 2-3.101562 2.320313-2.847657 4.238282-4.054688 5.695313-3.578126 1.644531.53125 2.214843 3.15625 1.816406 5.382813-.164063.925781-.425781 1.863281-.707031 2.855469-.582032 2.0625-1.183594 4.199218-.96875 6.542968.078125.867188.707031 1.585938 1.554687 1.78125.851563.199219 1.730469-.179687 2.179688-.925781 1.117187-1.863281 3.050781-4.296875 5.902343-5.339843 2.414063-.882813 5.171876-.410157 6.703126 1.144531.777343.789062 1.222656 1.980469 1.191406 3.183593-.027344.996094-.378906 1.851563-.992188 2.414063-.820312.753906-.875 2.027344-.125 2.847656.398438.433594.941406.65625 1.488282.65625.484374 0 .972656-.175781 1.359374-.53125 1.429688-1.308593 2.246094-3.183593 2.296876-5.285156.0625-2.308594-.792969-4.535156-2.347657-6.109375-2.644531-2.6875-7.042969-3.535156-10.957031-2.109375zm0 0"/><path d="m438.421875 358.585938c-1.074219.285156-1.714844 1.386718-1.429687 2.464843.574218 2.171875 1 5.367188-.222657 8.269531-1.054687 2.492188-3.308593 4.269532-5.609375 4.421876-2.261718.136718-4.574218-1.621094-4.738281-3.640626-.085937-1.054687-.96875-1.863281-2.027344-1.851562-1.058593.011719-1.929687.835938-1.992187 1.890625-.246094 3.988281-3.527344 7.597656-7.472656 8.214844-3.941407.617187-8.175782-1.808594-9.628907-5.527344-1.457031-3.71875.003907-8.375 3.324219-10.59375.691406-.460937 1.027344-1.296875.851562-2.105469-.179687-.8125-.832031-1.429687-1.652343-1.5625-4.285157-.6875-8.078125-4.261718-9.019531-8.5-.941407-4.238281.984374-9.082031 4.578124-11.519531s8.804688-2.433594 12.394532.003906c.921875.628907 2.175781.390625 2.800781-.53125s.386719-2.175781-.535156-2.800781c-4.980469-3.386719-11.941407-3.390625-16.925781-.007812-4.984376 3.378906-7.554688 9.847656-6.25 15.730468 1.035156 4.652344 4.421874 8.613282 8.738281 10.535156-2.78125 3.550782-3.710938 8.597657-2.058594 12.820313 1.894531 4.84375 7.023437 8.183594 12.195313 8.183594.605468 0 1.210937-.046875 1.8125-.140625 3.992187-.625 7.515624-3.355469 9.410156-6.90625 1.695312 1.554687 4.039062 2.492187 6.453125 2.332031 3.847656-.25 7.40625-2.949219 9.066406-6.878906 1.667969-3.945313 1.140625-8.089844.402344-10.867188-.28125-1.078125-1.386719-1.71875-2.464844-1.433593zm0 0"/><path d="m442.273438 344.496094c-.945313.546875-2.175782.667968-3.375.335937-1.203126-.332031-2.199219-1.070312-2.726563-2.023437-.53125-.953125-.632813-2.1875-.28125-3.382813.355469-1.195312 1.109375-2.175781 2.070313-2.691406.984374-.523437 1.355468-1.746094.832031-2.726563-.523438-.984374-1.746094-1.355468-2.726563-.832031-1.910156 1.019531-3.386718 2.882813-4.042968 5.109375-.65625 2.222656-.429688 4.585938.621093 6.480469 1.054688 1.894531 2.941407 3.335937 5.175781 3.953125.792969.21875 1.601563.328125 2.394532.328125 1.453125 0 2.867187-.359375 4.078125-1.058594.960937-.558593 1.292969-1.792969.734375-2.753906-.558594-.964844-1.789063-1.296875-2.753906-.738281zm0 0"/><path d="m35.84375 247.183594c-1.09375-.207032-2.148438.511718-2.359375 1.605468-.214844 1.136719-.96875 2.164063-2.117187 2.890626-1.332032.839843-2.953126 1.125-4.34375.761718-2.761719-.722656-4.949219-3.585937-5.203126-6.804687-.238281-3.042969 1.058594-6.316407 3.5625-8.980469.761719-.808594.722657-2.085938-.089843-2.847656-.8125-.761719-2.085938-.722656-2.847657.089844-3.28125 3.488281-4.972656 7.882812-4.644531 12.058593.390625 4.953125 3.765625 9.222657 8.199219 10.382813.722656.191406 1.476562.28125 2.238281.28125 1.820313 0 3.6875-.527344 5.28125-1.535156 2.105469-1.328126 3.5-3.296876 3.925781-5.542969.210938-1.09375-.507812-2.148438-1.601562-2.359375zm0 0"/><path d="m129.695312 364.484375-9.703124 2.808594c-1.066407.308593-1.683594 1.425781-1.375 2.496093.257812.882813 1.0625 1.457032 1.9375 1.457032.183593 0 .371093-.027344.5625-.082032l9.699218-2.804687c1.066406-.3125 1.683594-1.429687 1.375-2.496094-.308594-1.074219-1.429687-1.6875-2.496094-1.378906zm0 0"/><path d="m149.628906 359.308594-9.1875 1.277344c-1.105468.152343-1.875 1.171874-1.722656 2.273437.140625 1.007813 1.003906 1.738281 1.996094 1.738281.09375 0 .1875-.003906.28125-.019531l9.1875-1.277344c1.101562-.152343 1.871094-1.167969 1.71875-2.273437-.152344-1.101563-1.175782-1.875-2.273438-1.71875zm0 0"/><path d="m172.242188 355.976562-8.167969.511719c-1.109375.066407-1.953125 1.027344-1.886719 2.136719.066406 1.070312.957031 1.890625 2.011719 1.890625.042969 0 .085937 0 .128906-.003906l8.167969-.511719c1.109375-.070312 1.953125-1.027344 1.882812-2.136719-.066406-1.113281-1.023437-1.949219-2.136718-1.886719zm0 0"/><path d="m196.984375 355.136719-9.703125-.511719c-1.117188-.0625-2.058594.796875-2.117188 1.910156-.058593 1.109375.796876 2.058594 1.90625 2.117188l9.703126.507812c.035156.003906.070312.003906.105468.003906 1.066406 0 1.953125-.832031 2.011719-1.910156.058594-1.109375-.796875-2.058594-1.90625-2.117187zm0 0"/><path d="m224.585938 357.125-10.96875-2.332031c-1.089844-.230469-2.160157.464843-2.390626 1.550781-.234374 1.089844.460938 2.160156 1.550782 2.394531l10.96875 2.332031c.140625.027344.28125.042969.421875.042969.929687 0 1.765625-.648437 1.96875-1.59375.230469-1.089843-.460938-2.160156-1.550781-2.394531zm0 0"/><path d="m246.097656 360.914062-7.410156-2.792968c-1.039062-.394532-2.203125.132812-2.597656 1.175781-.390625 1.039063.132812 2.203125 1.175781 2.59375l7.40625 2.796875c.234375.089844.476563.128906.710937.128906.816407 0 1.582032-.496094 1.886719-1.304687.394531-1.042969-.132812-2.203125-1.171875-2.597657zm0 0"/><path d="m268.453125 367.914062-7.402344-3.574218c-1-.484375-2.207031-.0625-2.691406.941406-.484375 1-.0625 2.207031.941406 2.691406l7.402344 3.570313c.28125.136719.578125.203125.871094.203125.75 0 1.46875-.421875 1.820312-1.140625.480469-1.003907.0625-2.207031-.941406-2.691407zm0 0"/><path d="m286.648438 378.015625c-2.515626-1.425781-4.847657-3.164063-6.933594-5.167969-.804688-.769531-2.078125-.746094-2.851563.058594-.769531.804688-.746093 2.082031.058594 2.851562 2.328125 2.234376 4.929687 4.175782 7.738281 5.765626.3125.179687.65625.261718.992188.261718.703125 0 1.382812-.367187 1.753906-1.023437.550781-.96875.210938-2.195313-.757812-2.746094zm0 0"/><path d="m296.632812 384.195312c-.753906-.820312-2.027343-.875-2.847656-.125-.824218.75-.878906 2.027344-.125 2.847657l2.804688 3.0625c.398437.433593.941406.652343 1.488281.652343.488281 0 .972656-.171874 1.363281-.527343.816406-.753907.875-2.027344.121094-2.847657zm0 0"/></svg>