<svg viewBox="-138 0 511 511.99899" xmlns="http://www.w3.org/2000/svg"><path d="m210.609375 260.671875c-.78125-1.871094-1.585937-3.746094-2.394531-5.625-5.550782-12.941406-11.292969-26.328125-10.617188-39.882813.429688-8.632812 3.371094-16.851562 6.484375-25.550781 1.773438-4.96875 3.613281-10.109375 4.957031-15.363281 6.984376-27.3125-.132812-57.523438-18.578124-78.84375-1.625-1.878906-3.367188-3.71875-5.1875-5.472656-7.679688-7.402344-16.839844-13.371094-26.792969-17.59375.003906-.042969.019531-.078125.023437-.121094l2.257813-22.765625c.179687-1.8125.449219-4.554687-.925781-7.140625-2.707032-5.089844-9.101563-5.164062-11.511719-5.195312l-5.757813-.066407c-1.09375-4.476562.148438-9.507812 3.230469-12.9375.351563-.390625.730469-.777343 1.105469-1.164062 1.9375-1.984375 4.34375-4.453125 4.660156-8.179688.308594-3.605469-1.621094-7.230469-5.027344-9.464843-2.542968-1.667969-5.328125-2.300782-7.96875-2.804688-11.851562-2.261719-23.96875-2.996094-36.007812-2.175781-7.558594.511719-12.425782 3.71875-13.34375 8.792969-.636719 3.507812.976562 6.523437 2.152344 8.722656.136718.253906.273437.507812.402343.757812 2.839844 5.457032 3.511719 11.957032 1.890625 17.890625l-1.949218-.023437c-2.402344-.027344-6.875-.078125-9.945313 3.03125-2.785156 2.832031-2.941406 6.753906-3.035156 9.097656l-.929688 23.417969c-12.726562 5.261719-23.992187 13.304687-32.71875 23.394531-18.445312 21.320312-25.5625 51.53125-18.578125 78.84375 1.34375 5.253906 3.179688 10.394531 4.957032 15.363281 3.113281 8.703125 6.054687 16.921875 6.484374 25.550781.675782 13.558594-5.066406 26.941407-10.617187 39.882813-.808594 1.882813-1.613281 3.757813-2.398437 5.625-24.128907 57.589844-30.652344 123.023437-18.375 184.246094 4.164062 20.746093 11.144531 43.246093 31.359374 52.816406 6.652344 3.148437 13.875 4.800781 20.117188 6.105469 19.078125 3.984375 38.652344 6.539062 58.183594 7.59375 7.25.394531 14.589844.570312 21.871094.566406 23.246093 0 49.390624-.265625 68.449218-18.433594 13.910156-13.265625 19.304688-32.964844 22.449219-48.648437 12.28125-61.222657 5.757813-126.65625-18.375-184.246094zm-57.890625-214.574219c.226562.429688.089844 1.816406.019531 2.5625l-2.058593 20.773438c-2.238282-.714844-4.507813-1.339844-6.796876-1.878906l.902344-22.414063 3.445313.039063c3.832031.046874 4.410156.773437 4.488281.917968zm-56.132812 20.507813-.160157-22.023438 7.460938.085938.734375 20.789062c-2.730469.289063-5.410156.675781-8.035156 1.148438zm12.054687-1.507813-.71875-20.382812 8.503906.097656c.238281 6.644531.160157 13.324219-.238281 19.957031-2.535156.035157-5.050781.144531-7.546875.328125zm11.824219-20.238281 7.824218.089844-.039062 20.238281c-2.671875-.21875-5.351562-.355469-8.023438-.402344.386719-6.625.46875-13.292968.238282-19.925781zm11.855468.136719 8.433594.101562-.871094 21.617188c-.648437-.117188-1.296874-.25-1.945312-.355469-1.871094-.304687-3.761719-.554687-5.65625-.773437zm-35.171874-34.441406c.160156-.875 2.300781-1.9375 5.957031-2.1875 11.355469-.769532 22.777343-.078126 33.949219 2.050781 1.917968.367187 3.75.769531 5.058593 1.625.941407.621093 1.460938 1.523437 1.417969 2.039062-.074219.851563-1.257812 2.0625-2.402344 3.238281-.417968.429688-.835937.863282-1.230468 1.300782-.0625-.007813-.125-.027344-.1875-.03125l-40.03125-2.148438c-.238282-.527344-.488282-1.046875-.753907-1.5625-.148437-.277344-.296875-.558594-.449219-.84375-.683593-1.28125-1.460937-2.734375-1.328124-3.480468zm4.996093 14.09375 33.210938 1.785156c-1.136719 3.371094-1.511719 7.011718-1.011719 10.523437l-32.417969-.375c.800781-3.925781.867188-7.988281.21875-11.933593zm-14.636719 20.507812c.660157-.667969 3.074219-.640625 4.109376-.628906l.777343.007812.164063 22.882813c-2.25.496093-4.445313 1.0625-6.574219 1.695312l.800781-20.199219c.042969-1.023437.128906-3.148437.722656-3.757812zm133.574219 398.175781c-2.914062 14.519531-7.832031 32.6875-20.113281 44.398438-16.742188 15.964843-40.121094 16.207031-62.855469 16.207031-7.136719.011719-14.347656-.167969-21.464843-.554688-19.121094-1.03125-38.289063-3.535156-56.96875-7.4375-5.789063-1.207031-12.460938-2.730468-18.3125-5.5-16.949219-8.023437-22.945313-27.382812-26.902344-47.113281-11.96875-59.660156-5.609375-123.421875 17.90625-179.542969.773437-1.851562 1.566406-3.703124 2.367187-5.5625 5.914063-13.785156 12.03125-28.042968 11.261719-43.464843-.492188-9.820313-3.773438-18.992188-6.945312-27.863281-1.714844-4.796876-3.488282-9.753907-4.742188-14.648438-6.339844-24.792969.125-52.214844 16.867188-71.570312 8.480468-9.800782 19.625-17.484376 32.234374-22.21875 9.914063-3.722657 22.011719-5.65625 34.394532-5.65625 6.28125 0 12.640625.496093 18.824218 1.511718 16.175782 2.652344 31.464844 10.261719 43.046876 21.421875 1.644531 1.585938 3.21875 3.246094 4.683593 4.941407 16.746094 19.355468 23.207031 46.777343 16.867188 71.570312-1.25 4.894531-3.023438 9.851562-4.738281 14.648438-3.175782 8.871093-6.457032 18.042968-6.945313 27.863281-.769531 15.421875 5.347656 29.679687 11.261719 43.464843.796875 1.859376 1.59375 3.710938 2.367187 5.5625 23.511719 56.121094 29.871094 119.882813 17.90625 179.542969zm0 0"/><path d="m191.71875 256.671875c-4.691406-12.4375-9.542969-25.304687-8.960938-38.582031.371094-8.460938 2.855469-16.363282 5.488282-24.734375 1.460937-4.65625 2.972656-9.46875 4.070312-14.34375 2.292969-10.207031 2.738282-20.851563 1.320313-31.632813-.085938-.636718-.164063-1.335937-.246094-2.074218-.617187-5.390626-1.460937-12.773438-5.855469-16.242188-1.910156-1.507812-4.257812-2.101562-6.96875-1.773438-1.710937.207032-3.324218.6875-4.878906 1.152344-1.964844.585938-3.824219 1.152344-5.632812 1.074219-3.957032-.144531-7.398438-3.214844-9.953126-5.871094-.445312-.464843-.886718-.9375-1.332031-1.410156-2.757812-2.9375-5.605469-5.972656-9.53125-7.605469-5.464843-2.273437-12.390625-1.363281-19.5 2.550782-2.339843 1.285156-4.566406 2.773437-6.722656 4.214843-3.011719 2.007813-5.855469 3.902344-8.980469 5.3125-4.621094 2.082031-11.160156 3.125-15.660156-.1875-1.355469-1-2.484375-2.351562-3.683594-3.785156-.585937-.707031-1.195312-1.4375-1.84375-2.136719-6.546875-7.070312-16.859375-10.308594-26.273437-8.253906-7.570313 1.652344-13.613281 5.949219-17.957031 12.765625-10.214844 16.03125-8.199219 41.421875-5.394532 53.902344 1.097656 4.875 2.609375 9.691406 4.074219 14.34375 2.628906 8.371093 5.117187 16.273437 5.488281 24.734375.582032 13.277344-4.269531 26.144531-8.960937 38.589844-.667969 1.773437-1.335938 3.539062-1.984375 5.304687-19.914063 54.074219-25.300782 115.511719-15.167969 172.996094 3.550781 20.121093 9.0625 39.945312 25.234375 48.65625 5.402344 2.910156 11.324219 4.453125 16.453125 5.671875 15.796875 3.753906 32.003906 6.160156 48.171875 7.15625 6.015625.367187 12.089844.53125 18.128906.53125 19.097656 0 40.5625-.25 56.023438-17.023438 11.234375-12.1875 15.617187-30.449218 18.183594-44.996094 10.132812-57.480468 4.746093-118.917968-15.164063-172.992187-.652344-1.765625-1.316406-3.535156-1.984375-5.3125zm-124.285156-140.390625c1.605468-.351562 3.242187-.519531 4.878906-.519531 6.558594 0 13.097656 2.738281 17.578125 7.574219.578125.625 1.125 1.28125 1.707031 1.976562 1.296875 1.554688 2.636719 3.164062 4.386719 4.453125 5.011719 3.6875 12.375 3.917969 19.707031.617187 3.433594-1.546874 6.546875-3.625 9.5625-5.636718 2.085938-1.394532 4.242188-2.832032 6.433594-4.039063 3.480469-1.914062 10.195312-4.769531 16.003906-2.355469 3.125 1.300782 5.5625 3.894532 8.140625 6.644532.457031.484375.910157.964844 1.363281 1.441406 3.082032 3.207031 7.3125 6.910156 12.71875 7.105469 2.503907.082031 4.738282-.585938 6.925782-1.238281 1.460937-.4375 2.839844-.847657 4.214844-1.015626 1.628906-.199218 2.933593.109376 3.984374.9375.375.296876.714844.652344 1.023438 1.054688-6.105469 8.128906-12.996094 13.128906-21.636719 15.695312-9.441406 2.800782-19.710937 2.421876-28.921875-1.066406-3.113281-1.179687-6.183594-2.742187-9.152344-4.257812-2.101562-1.070313-4.277343-2.175782-6.488281-3.164063-6.84375-3.054687-12.738281-4.160156-18.007812-3.382812-4.839844.714843-9.117188 2.980469-13.25 5.175781-3.742188 1.984375-7.273438 3.859375-11.121094 4.617188-6.097656 1.203124-12.671875-.710938-17.164063-4.996094-4.496093-4.28125-6.726562-10.757813-5.824218-16.898438.046875-.320312.011718-.632812-.085938-.921875 3.460938-4.027343 7.816406-6.664062 13.023438-7.800781zm137.464844 317.996094c-2.46875 14.007812-6.652344 31.546875-17.179688 42.964844-14.269531 15.484374-33.917969 15.722656-53.019531 15.722656-5.972657-.007813-11.972657-.160156-17.917969-.523438-15.9375-.980468-31.917969-3.355468-47.488281-7.054687-4.878907-1.160157-10.5-2.621094-15.472657-5.300781-14.660156-7.894532-19.800781-26.683594-23.175781-45.808594-10.007812-56.792969-4.691406-117.484375 14.980469-170.902344.644531-1.753906 1.308594-3.511719 1.972656-5.277344 4.835938-12.820312 9.835938-26.082031 9.214844-40.1875-.394531-8.984375-3.074219-17.515625-5.667969-25.765625-1.4375-4.574219-2.925781-9.308593-3.984375-14.023437-4.5-20.015625-1.773437-37.808594 3.242188-47.964844.582031 5.515625 3.101562 10.820312 7.136718 14.664062 5.429688 5.171876 13.371094 7.484376 20.726563 6.03125 4.429687-.871093 8.398437-2.976562 12.230469-5.011718 4.007812-2.128906 7.796875-4.136719 11.945312-4.75 4.496094-.660156 9.65625.347656 15.78125 3.078125 2.117188.945312 4.246094 2.027343 6.300782 3.078125 3.0625 1.558594 6.230468 3.171875 9.550781 4.433594 5.589843 2.117187 11.539062 3.183593 17.492187 3.183593 4.726563 0 9.457032-.671875 14.007813-2.023437 8.886719-2.640625 16.0625-7.582032 22.386719-15.4375.773437 2.675781 1.128906 5.777344 1.421874 8.355468.089844.765626.171876 1.484376.257813 2.144532 1.355469 10.308594.933594 20.476562-1.253906 30.21875-1.058594 4.714844-2.546875 9.445312-3.988281 14.023437-2.589844 8.25-5.273438 16.777344-5.667969 25.765625-.617188 14.105469 4.378906 27.363282 9.214843 40.183594.664063 1.765625 1.328126 3.527344 1.976563 5.28125 19.667969 53.417969 24.988281 114.113281 14.976563 170.902344zm0 0"/><path d="m158.941406 240.261719c-6.179687-16.132813-13.550781-31.925781-21.90625-46.953125-.566406-1.019532-1.230468-2.410156-1.929687-3.878906-2.960938-6.207032-6.640625-13.929688-12.835938-16.050782-3.964843-1.355468-6.773437-.492187-8.4375.472656-4.480469 2.601563-5.609375 8.53125-6.4375 12.863282-.136719.722656-.265625 1.410156-.40625 2.03125-4.335937 19.410156-10.769531 38.375-19.117187 56.367187-4.441406 9.566407-9.535156 19.09375-14.464844 28.308594-8.394531 15.695313-17.074219 31.921875-22.996094 49.171875-11.234375 32.734375-9.238281 64.113281 5.480469 86.089844 12.574219 18.773437 34.644531 30.382812 57.167969 30.382812 1.460937 0 2.921875-.050781 4.382812-.148437 24.003906-1.625 46.347656-16.632813 56.921875-38.238281 4.972657-10.15625 10.328125-26.117188 7.585938-59.65625-2.808594-34.347657-10.550781-68.25-23.007813-100.761719zm-100.902344 84.949219c5.710938-16.636719 14.234376-32.574219 22.476563-47.984376 4.980469-9.316406 10.132813-18.945312 14.667969-28.71875 8.59375-18.515624 15.210937-38.027343 19.675781-58.003906.15625-.695312.300781-1.46875.457031-2.277344.441406-2.324218 1.265625-6.648437 2.566406-7.402343.285157-.167969.953126-.101563 1.777344.183593 2.984375 1.023438 6.226563 7.824219 8.164063 11.890626.757812 1.589843 1.472656 3.089843 2.164062 4.332031 8.171875 14.691406 15.378907 30.140625 21.425781 45.914062 12.183594 31.800781 19.753907 64.953125 22.5 98.539063.3125 3.847656.566407 7.835937.691407 11.886718-11.152344 6.386719-18.558594 19.070313-18.695313 31.917969-7.746094-.8125-15.839844 1.386719-22.050781 6.089844-5.699219 4.316406-9.796875 10.710937-11.457031 17.664063-4.542969-4.40625-10.617188-7.238282-16.933594-7.773438-6.136719-.515625-12.410156 1.132812-17.550781 4.503906.117187-8.917968-4.128907-17.765625-11.398438-23.085937-6.839843-5.003907-15.847656-6.496094-23.945312-4.3125-2.84375-15.972657-1.058594-34.363281 5.464843-53.363281zm109.085938 71.921874c-9.335938 19.066407-29.046875 32.308594-50.226562 33.742188-21.175782 1.433594-42.496094-9.039062-54.308594-26.675781-4.273438-6.378907-7.335938-13.683594-9.195313-21.65625 6.976563-1.917969 14.921875-.660157 20.746094 3.601562 7.257813 5.308594 11.082031 15.171875 9.300781 23.992188-.171875.863281.234375 1.738281 1.007813 2.164062.773437.421875 1.734375.296875 2.367187-.316406 4.8125-4.632813 11.664063-7.054687 18.3125-6.496094 6.65625.5625 12.992188 4.109375 16.953125 9.488281.386719.523438.992188.820313 1.625.820313.179688 0 .363281-.023437.542969-.074219.808594-.226562 1.390625-.929687 1.464844-1.769531.644531-7.46875 4.597656-14.632813 10.578125-19.160156 5.980469-4.527344 13.945312-6.390625 21.316406-4.980469.613281.113281 1.242187-.054688 1.710937-.46875.464844-.410156.71875-1.015625.679688-1.640625-.71875-11.421875 5.21875-23.050781 14.691406-29.441406.039063 13.089843-1.601562 26.6875-7.566406 38.871093zm0 0"/><path d="m82.933594 375.445312c7.539062 5.964844 17.316406 9.667969 28.265625 10.714844 1.914062.183594 3.773437.273438 5.582031.273438 6.734375 0 12.703125-1.269532 17.800781-3.789063 10.054688-4.972656 15.90625-14.335937 19.046875-21.3125 8-17.769531 6.886719-38.394531-2.898437-53.824219-4.894531-7.71875-12.855469-14.539062-21.84375-18.710937-9.691407-4.5-19.851563-5.640625-28.621094-3.210937-16.429687 4.554687-29.464844 23.441406-33.390625 38.902343-4.761719 18.761719 1.839844 39.714844 16.058594 50.957031zm-12.152344-49.964843c3.699219-14.5625 16.140625-32.011719 30.558594-36.007813 17.429687-4.832031 37.445312 6.722656 45.984375 20.195313 8.933593 14.082031 9.964843 33.710937 2.628906 50.011719-2.871094 6.375-8.175781 14.90625-17.160156 19.351562-5.78125 2.859375-12.914063 3.910156-21.210938 3.117188-10.175781-.976563-19.21875-4.382813-26.148437-9.863282-13.011719-10.289062-19.035156-29.535156-14.652344-46.804687zm0 0"/><path d="m87.585938 369.03125c6.335937 5.011719 14.539062 8.125 23.730468 9.003906 1.609375.152344 3.167969.226563 4.6875.226563 5.664063 0 10.6875-1.066407 14.980469-3.191407 8.464844-4.191406 13.390625-12.058593 16.03125-17.925781 6.710937-14.910156 5.777344-32.21875-2.4375-45.171875-4.113281-6.488281-10.800781-12.214844-18.347656-15.71875-8.144531-3.78125-16.699219-4.738281-24.085938-2.691406-13.8125 3.828125-24.765625 19.683594-28.058593 32.660156-4 15.757813 1.550781 33.359375 13.5 42.808594zm-10.46875-27.605469 32.589843-2.808593-20.046875 26.886718c-6.976562-5.730468-11.421875-14.609375-12.542968-24.078125zm15.8125 26.4375 18.253906-24.484375c.714844 10.171875 1.429687 20.382813 2.167968 30.757813-.546874-.035157-1.089843-.0625-1.648437-.117188-7.09375-.675781-13.5-2.800781-18.773437-6.15625zm36.265624 3.59375c-3.378906 1.671875-7.339843 2.578125-11.800781 2.734375-.796875-11.25-1.570312-22.300781-2.34375-33.324218 7.980469 6.652343 15.996094 13.253906 24.035157 19.734374.015624.304688.101562.609376.261718.890626.101563.179687.230469.335937.375.46875-2.503906 3.644531-5.933594 7.222656-10.527344 9.496093zm14.144532-15.964843c-.34375.769531-.742188 1.578124-1.175782 2.410156-8.148437-6.566406-16.28125-13.238282-24.371093-19.980469l29.539062-2.546875c.171875 6.804688-1.132812 13.765625-3.992187 20.117188zm-2.167969-41.359376c3.21875 5.070313 5.191406 11.011719 5.898437 17.21875l-28.765624 2.480469 18.613281-24.964843c.011719-.019532.019531-.042969.035156-.0625 1.628906 1.695312 3.054687 3.488281 4.21875 5.328124zm-7.109375-8.054687c-.136719.109375-.269531.230469-.378906.378906l-19.234375 25.800781c-.828125-11.804687-1.65625-23.632812-2.507813-35.671874 8.046875.496093 16.046875 4.300781 22.121094 9.492187zm-30.839844-8.632813c1.539063-.425781 3.105469-.6875 4.679688-.820312.835937 11.839844 1.652344 23.46875 2.464844 35.074219-8.210938-6.917969-16.363282-13.894531-24.40625-20.910157 4.636718-6.320312 10.703124-11.523437 17.261718-13.34375zm-25.230468 29.769532c1.082031-4.257813 3.066406-8.808594 5.699218-13.0625 7.929688 6.90625 15.957032 13.777344 24.042969 20.589844l-30.890625 2.660156c-.058594-3.40625.300781-6.84375 1.148438-10.1875zm0 0"/><path d="m131.542969 277.941406c1.007812 5.304688 4.941406 9.664063 9.789062 10.847656.839844.207032 1.695313.304688 2.546875.304688 4.605469 0 9.074219-2.875 10.46875-7.097656 1.546875-4.660156-.59375-9.421875-2.71875-13.519532-1.351562-2.609374-2.816406-5.191406-4.230468-7.6875-1.988282-3.507812-4.046876-7.136718-5.757813-10.785156-.359375-.765625-1.144531-1.230468-1.996094-1.15625-.839843.074219-1.546875.660156-1.773437 1.476563-1.179688 4.292969-2.390625 8.898437-3.921875 14.917969-.273438 1.078124-.640625 2.117187-1.023438 3.21875-1.015625 2.898437-2.0625 5.890624-1.382812 9.480468zm5.1875-8.144531c.398437-1.136719.808593-2.3125 1.125-3.558594.945312-3.710937 1.765625-6.878906 2.53125-9.765625 1.140625 2.136719 2.335937 4.242188 3.503906 6.304688 1.398437 2.464844 2.84375 5.011718 4.160156 7.554687 1.828125 3.523438 3.523438 7.226563 2.472657 10.398438-1.007813 3.035156-4.855469 4.972656-8.234376 4.144531-3.289062-.804688-6.078124-3.964844-6.785156-7.683594-.480468-2.527344.308594-4.785156 1.226563-7.394531zm0 0"/><path d="m108.875 277.867188c.433594 0 .871094-.03125 1.3125-.097657 4.898438-.726562 9.410156-7.023437 12.109375-10.785156l.402344-.5625c3.21875-4.457031 5.691406-9.324219 7.355469-14.457031 3.808593-11.757813 3.25-25.035156-1.53125-36.433594-.234376-.566406-.71875-.996094-1.308594-1.160156-.59375-.167969-1.226563-.054688-1.726563.304687-6.015625 4.328125-12.238281 8.808594-17.492187 14.359375-6.054688 6.398438-9.8125 13.207032-11.164063 20.238282-.945312 4.917968-.125 19.617187 5.773438 25.765624 1.785156 1.867188 3.933593 2.828126 6.269531 2.828126zm-8.085938-27.832032c1.1875-6.175781 4.695313-12.480468 10.136719-18.230468 4.390625-4.640626 9.617188-8.578126 14.804688-12.335938 3.542969 9.960938 3.742187 21.210938.492187 31.253906-1.535156 4.730469-3.820312 9.222656-6.792968 13.339844l-.410157.574219c-2.003906 2.792969-6.160156 8.582031-9.359375 9.128906-.238281-14.171875 4.316406-28.128906 12.90625-39.421875.671875-.886719.5-2.152344-.382812-2.824219-.886719-.675781-2.152344-.503906-2.828125.382813-8.832031 11.613281-13.664063 25.882812-13.746094 40.4375-.03125-.03125-.0625-.058594-.097656-.09375-4.582031-4.78125-5.542969-17.9375-4.722657-22.210938zm0 0"/></svg>