<svg viewBox="0 -3 511.99973 511" xmlns="http://www.w3.org/2000/svg"><path d="m70.027344 41.523438 12.851562-.199219c5.820313-.125 11.328125 2.628906 14.792969 7.28125l7.679687 10.308593c.386719.523438.996094.816407 1.621094.816407.21875 0 .4375-.035157.652344-.109375.832031-.28125 1.382812-1.070313 1.371094-1.949219l-.199219-12.851563c-.089844-5.796874 2.632813-11.328124 7.28125-14.789062l10.308594-7.679688c.703125-.523437.988281-1.441406.707031-2.273437s-1.039062-1.359375-1.949219-1.375l-12.851562.203125c-5.808594.136719-11.328125-2.632812-14.789063-7.285156l-7.679687-10.304688c-.523438-.707031-1.445313-.992187-2.273438-.707031-.832031.28125-1.386719 1.070313-1.371093 1.949219l.199218 12.851562c.089844 5.796875-2.632812 11.324219-7.28125 14.789063l-10.3125 7.679687c-.703125.523438-.988281 1.441406-.707031 2.273438.285156.832031 1.074219 1.421875 1.949219 1.371094zm11.488281-8.078126c5.6875-4.238281 9.019531-11.003906 8.910156-18.097656l-.101562-6.585937 3.933593 5.28125c4.238282 5.691406 11 9.058593 18.097657 8.910156l6.585937-.101563-5.28125 3.933594c-5.691406 4.238282-9.019531 11.003906-8.914062 18.101563l.105468 6.582031-3.933593-5.28125c-4.171875-5.597656-10.789063-8.914062-17.757813-8.914062-.113281 0-.226562 0-.34375.003906l-6.585937.101562zm0 0"/><path d="m445.773438 29.222656 10.800781 6.972656c4.871093 3.144532 7.957031 8.480469 8.253906 14.269532l.660156 12.839844c.042969.875.648438 1.625 1.496094 1.851562.175781.042969.351563.066406.523437.066406.675782 0 1.320313-.339844 1.699219-.925781l6.972657-10.800781c3.144531-4.871094 8.480468-7.953125 14.269531-8.253906l12.835937-.65625c.878906-.046876 1.625-.652344 1.851563-1.5.226562-.847657-.117188-1.746094-.855469-2.222657l-10.800781-6.972656c-4.871094-3.144531-7.957031-8.480469-8.253907-14.269531l-.660156-12.839844c-.042968-.875-.648437-1.625-1.496094-1.851562-.847656-.226563-1.746093.121093-2.222656.859374l-6.972656 10.800782c-3.144531 4.871094-8.480469 7.957031-14.269531 8.253906l-12.839844.660156c-.875.042969-1.625.648438-1.851563 1.5-.222656.84375.121094 1.742188.859376 2.21875zm14.039062-.339844c7.085938-.363281 13.613281-4.136718 17.464844-10.097656l3.570312-5.535156.339844 6.578125c.363281 7.085937 4.140625 13.613281 10.101562 17.464844l5.53125 3.570312-6.578124.335938c-7.085938.367187-13.613282 4.140625-17.460938 10.101562l-3.574219 5.535157-.335937-6.578126c-.367188-7.085937-4.140625-13.613281-10.101563-17.460937l-5.535156-3.574219zm0 0"/><path d="m46.703125 423.5625c.042969.875.648437 1.625 1.496094 1.851562.175781.046876.351562.066407.523437.066407.675782 0 1.320313-.335938 1.699219-.925781l6.972656-10.796876c3.144531-4.871093 8.480469-7.957031 14.269531-8.253906l12.835938-.660156c.878906-.046875 1.625-.652344 1.851562-1.5.226563-.847656-.117187-1.746094-.855468-2.222656l-10.800782-6.972656c-4.871093-3.144532-7.957031-8.476563-8.253906-14.269532l-.660156-12.835937c-.042969-.878907-.648438-1.625-1.496094-1.851563-.847656-.226562-1.746094.117188-2.222656.855469l-6.972656 10.800781c-3.144532 4.871094-8.480469 7.957032-14.269532 8.253906l-12.835937.660157c-.878906.042969-1.625.648437-1.851563 1.5-.226562.847656.117188 1.746093.855469 2.222656l10.800781 6.96875c4.871094 3.144531 7.957032 8.480469 8.253907 14.269531zm-6.71875-30.507812-5.535156-3.574219 6.578125-.335938c7.085937-.367187 13.617187-4.140625 17.464844-10.101562l3.570312-5.535157.339844 6.578126c.363281 7.085937 4.140625 13.613281 10.101562 17.464843l5.53125 3.570313-6.578125.339844c-7.085937.363281-13.613281 4.140624-17.460937 10.101562l-3.574219 5.53125-.335937-6.578125c-.363282-7.085937-4.140626-13.613281-10.101563-17.460937zm0 0"/><path d="m31.207031 110.121094c-.003906.121094-.011719.238281-.015625.355468-.089844 5.773438 1.097656 10.195313 3.628906 13.511719 2.152344 2.820313 5.878907 4.917969 9.632813 4.917969 1.46875 0 2.9375-.320312 4.320313-1.042969 2.613281-1.359375 4.589843-4.003906 5.425781-7.246093.628906-2.441407.648437-5.117188.066406-8.425782-.289063-1.632812-.707031-3.246094-1.222656-4.828125 3.023437 2.203125 6.410156 3.40625 9.726562 3.40625.296875 0 .589844-.011719.886719-.03125 5.675781-.371093 10.53125-4.710937 11.050781-9.878906.390625-3.851563-1.566406-7.933594-5.105469-10.65625-3.246093-2.5-7.203124-3.546875-10.285156-4.183594-2.429687-.503906-4.898437-.839843-7.375-1.046875 6.320313-3.582031 11.355469-9.453125 13.742188-16.324218.539062-1.558594 1.226562-3.921876.9375-6.421876-.3125-2.695312-1.75-5-3.84375-6.171874-2.613282-1.460938-5.976563-1.140626-9.730469.917968-3.152344 1.734375-5.980469 4.085938-8.335937 6.847656.414062-4.757812-.703126-9.0625-3.226563-12.214843-3.363281-4.203125-9.210937-5.746094-13.601563-3.589844-4.230468 2.074219-5.875 6.574219-6.476562 9.070313-1.09375 4.515624-.632812 9.3125 1.117188 13.578124-2.5625-1.949218-5.246094-3.179687-8.027344-3.652343-5.199219-.882813-11.804688 1.542969-13.875 7.136719-1.484375 4.011718-.25 8.96875 3.066406 12.339843 3.40625 3.457031 7.96875 4.625 11.195312 4.996094 1.113282.128906 2.21875.179687 3.320313.1875-5.023437 4.050781-8.882813 9.523437-10.9375 15.664063-1.550781 4.644531-1.210937 8.476562.984375 11.082031 1.558594 1.847656 4.070312 2.929687 6.761719 2.929687.097656 0 .195312 0 .289062-.003906 2.117188-.058594 4.304688-.730469 6.679688-2.046875 3.828125-2.128906 7.007812-5.371094 9.226562-9.175781zm-3.371093-26.230469c.226562-2.207031 1.464843-3.769531 3.679687-4.644531 1.003906-.398438 1.984375-.574219 2.921875-.574219 3.277344 0 6.015625 2.183594 7.316406 4.910156 1.300782 2.730469 1.246094 6.464844-2.808594 8.75-3.019531 1.707031-5.464843.878907-6.984374-.113281-2.65625-1.742188-4.429688-5.320312-4.125-8.328125zm22.445312 35.71875c-.542969 2.101563-1.804688 3.84375-3.378906 4.667969-2.992188 1.558594-6.929688-.210938-8.863282-2.742188-1.960937-2.566406-2.875-6.164062-2.800781-10.992187.027344-1.710938.164063-3.472657.296875-5.183594.199219-2.546875.402344-5.183594.269532-7.839844 0-.066406-.019532-.125-.027344-.1875 1.734375-.050781 3.488281-.53125 5.15625-1.472656.167968-.09375.3125-.199219.472656-.292969.089844.210938.214844.414063.382812.589844 4.371094 4.570312 7.386719 10.515625 8.488282 16.742188.480468 2.714843.480468 4.847656.003906 6.710937zm16.851562-26.199219c2.402344 1.847656 3.792969 4.613282 3.550782 7.042969-.324219 3.203125-3.59375 6.007813-7.292969 6.246094-3.460937.226562-7.171875-1.429688-10.203125-4.546875-2.90625-2.992188-4.898438-6.894532-6.6875-10.640625-.167969-.355469-.429688-.632813-.738281-.828125.277343-.648438.476562-1.3125.601562-1.984375.175781.046875.355469.082031.542969.082031 3.886719.011719 7.785156.417969 11.589844 1.203125 2.660156.546875 6.042968 1.433594 8.636718 3.425781zm-12.136718-32.890625c1.410156-.769531 4.035156-1.921875 5.808594-.929687.949218.527344 1.636718 1.71875 1.796874 3.101562.148438 1.277344-.085937 2.746094-.742187 4.628906-2.457031 7.078126-8.160156 12.941407-15.125 15.679688-.285156-.359375-.6875-.597656-1.128906-.703125-.066407-.152344-.125-.308594-.199219-.457031-.78125-1.640625-1.964844-3.160156-3.429688-4.378906.179688-.222657.324219-.480469.402344-.773438 1.777344-6.757812 6.496094-12.800781 12.617188-16.167969zm-29.65625-2.484375c.746094-3.074218 2.320312-5.398437 4.324218-6.382812 2.6875-1.320313 6.492188-.226563 8.664063 2.484375 1.996094 2.492187 2.820313 6.242187 2.265625 10.285156-.492188 3.617187-1.941406 7.140625-3.40625 10.554687-2.066406-.527343-4.351562-.476562-6.707031.351563-.007813-.007813-.015625-.019531-.023438-.027344-4.523437-4.277343-6.578125-11.214843-5.117187-17.265625zm-9.996094 29.429688c-2.578125-.296875-6.195312-1.199219-8.773438-3.816406-2.203124-2.238282-3.089843-5.566407-2.152343-8.09375 1.320312-3.574219 5.90625-5.144532 9.398437-4.554688 3.582032.609375 7.066406 2.921875 10.363282 6.871094.398437.480468.972656.71875 1.546874.71875-1.066406 1.359375-1.726562 3.011718-1.917968 4.890625-.125 1.246093-.027344 2.527343.253906 3.785156-2.914062.304687-5.871094.527344-8.71875.199219zm4.667969 28.292968c-1.792969.996094-3.371094 1.5-4.824219 1.542969-1.554688.042969-3.03125-.527343-3.84375-1.492187-1.644531-1.953125-.855469-5.339844-.238281-7.191406 2.40625-7.199219 7.640625-13.363282 14.355469-16.90625.121093-.0625.234374-.136719.335937-.222657 1.011719 1.636719 2.351563 3.074219 3.949219 4.117188.394531.257812.800781.476562 1.210937.675781-.226562.332031-.359375.734375-.351562 1.164062.109375 7.371094-4.148438 14.730469-10.59375 18.3125zm0 0"/><path d="m153.152344 160.863281c2.15625-1.308593 3.679687-3.679687 3.976562-6.191406.265625-2.226563-.433594-4.296875-1.96875-5.824219-1.921875-1.914062-4.523437-2.441406-7.023437-2.816406-24.703125-3.695312-49.050781-3.328125-72.367188 1.097656-1.210937.230469-2.617187.511719-3.976562.945313-1.730469.554687-3.140625 1.28125-4.3125 2.21875-1.757813 1.410156-2.6875 3.25-2.554688 5.050781.183594 2.574219 2.179688 4.457031 5.933594 5.589844 12.199219 3.6875 25.976563 5.542968 40.492187 5.542968 11.535157 0 23.539063-1.171874 35.558594-3.527343 2.1875-.429688 4.308594-.914063 6.242188-2.085938zm-81.121094-3.804687c-1.875-.566406-3.019531-1.316406-3.070312-2.007813-.03125-.433593.378906-1.0625 1.050781-1.601562.777343-.621094 1.761719-1.121094 3.015625-1.519531 1.140625-.367188 2.402344-.617188 3.496094-.824219 12.460937-2.367188 25.226562-3.550781 38.1875-3.550781 10.824218 0 21.789062.828124 32.824218 2.476562 1.914063.285156 3.714844.628906 4.769532 1.683594.8125.808594.886718 1.792968.804687 2.472656-.152344 1.285156-.960937 2.546875-2.058594 3.214844-1.367187.828125-3.035156 1.203125-4.917969 1.570312-26.511718 5.203125-52.828124 4.519532-74.101562-1.914062zm0 0"/><path d="m511.941406 229.179688c-.269531-10.960938-1.441406-21.914063-3.480468-32.5625-9.792969-51.085938-40.0625-99.644532-83.042969-133.226563-39.863281-31.144531-90.542969-50.597656-139.046875-53.367187-45.894532-2.628907-94.078125 16.359374-132.191406 52.078124-16.90625 15.839844-31.402344 34.722657-41.917969 54.601563-2.496094 4.722656-4.832031 9.609375-6.953125 14.542969l-17.953125-.039063c-5.921875-.015625-12.640625-.03125-19.011719 1.839844-8.449219 2.480469-14.644531 8.304687-18.417969 17.316406-5.800781 13.847657-11.160156 28.097657-15.933593 42.347657-6.78125 20.253906-12.808594 42.046874-11.023438 64.199218 2 24.808594 14.699219 46.320313 33.152344 56.136719 5.316406 2.828125 10.976562 4.679687 16.449218 6.472656 2.300782.75 4.679688 1.53125 6.953126 2.359375 13.277343 4.835938 20.179687 10.5 20.515624 16.828125.558594 10.449219.164063 21.328125-.214843 31.847657-.1875 5.285156-.386719 10.75-.460938 16.09375-.144531 10.453124-.292969 21.261718-3.371093 31.175781-3.320313 10.6875-10.242188 20.984375-20.570313 30.597656-9.378906 8.730469-20.445313 15.917969-31.144531 22.871094-1.875 1.21875-2.40625 3.726562-1.1875 5.597656.703125 1.082031 1.832031 1.714844 3.019531 1.828125 1.523437.796875 5.261719 3.53125 6.933594 4.757812 1.589843 1.164063 2.378906 1.738282 2.917969 2.054688 5.417968 3.1875 11.660156 5.707031 18.554687 7.488281 11.390625 2.945313 23.242187 3.539063 33.078125 3.539063 1.589844 0 3.132812-.015625 4.609375-.039063l1.851563-.035156c18.699218-.398437 49.992187-1.0625 63.691406-19.402344 1.148437-1.539062 1.058594-3.671875-.214844-5.105469-2.921875-3.304687-7.003906-5.730468-10.945312-8.082031-1.875-1.117187-3.648438-2.171875-5.144532-3.238281-6.132812-4.363281-10.980468-8.253906-15.261718-12.234375-10.328126-9.613281-17.25-19.910156-20.570313-30.597656-3.078125-9.914063-3.226563-20.722657-3.371094-31.175781-.074219-5.34375-.273437-10.808594-.460937-16.09375-.378906-10.519532-.773438-21.398438-.214844-31.84375.015625-.308594.058594-.613282.105469-.917969 9.460937 15.636719 20.894531 29.019531 38.3125 44.976562 20.941406 19.1875 46.558593 34.425781 74.078125 44.066407 23.144531 8.109374 47.726562 12.296874 71.84375 12.296874 2.742187 0 5.476562-.074218 8.203125-.183593-1.167969 5.207031-2.351563 10.40625-3.5625 15.582031l-.03125.132812c-1.894531 8.109376-3.851563 16.496094-2.722657 25.15625.871094 6.660157 4.789063 15.394532 11.582032 19.886719 2.894531 1.917969 6.046875 2.886719 9.285156 2.886719 1.519531 0 3.054688-.210938 4.597656-.644531 11.480469-3.199219 14.800782-16.296875 16.296875-25.871094 2.238281-14.304687 4.167969-28.695313 5.910157-43.078125 10.457031-2.570312 20.296874-5.273438 31.039062-9.964844-3.828125 15.113282-8.082031 30.117188-12.957031 44.894532-2.453125 7.433593-5.8125 17.621093-1.484375 26.691406 3.527344 7.394531 11.792968 11.953125 20.488281 11.953125 2.300781 0 4.636719-.316407 6.917969-.988281 8.8125-2.589844 16.503906-9.824219 21.105468-19.859376 5.910157-13.023437 7-27.417968 8.054688-41.339843.269531-3.578125.550781-7.28125.910156-10.820313 1.277344-12.5625 2.671875-26.03125 4.25-39.953125 50.5-40.640625 79.695313-101.96875 78.15625-164.433593zm-371.277344 225.167968c4.546876 4.230469 9.65625 8.332032 16.082032 12.90625 1.769531 1.257813 3.765625 2.449219 5.699218 3.601563 2.230469 1.328125 4.515626 2.6875 6.410157 4.128906-12.714844 12.511719-39.914063 13.089844-54.96875 13.410156l-1.816407.035157h.003907c-10.710938.164062-23.308594-.082032-35.535157-3.242188-6.164062-1.59375-11.707031-3.824219-16.457031-6.621094-.285156-.175781-1.378906-.976562-2.257812-1.621094-1.289063-.945312-2.449219-1.792968-3.5-2.539062 9.179687-6.03125 18.402343-12.417969 26.613281-20.058594 11.375-10.585937 19.039062-22.066406 22.785156-34.121094 3.425782-11.035156 3.582032-22.4375 3.734375-33.464843.074219-5.253907.269531-10.675781.457031-15.917969.386719-10.695312.785157-21.753906.207032-32.566406-.789063-14.882813-19.636719-21.75-25.828125-24.007813-2.398438-.871093-4.84375-1.671875-7.203125-2.445312-5.386719-1.761719-10.472656-3.425781-15.167969-5.925781-16.039063-8.53125-27.105469-27.554688-28.886719-49.636719-1.667968-20.703125 4.125-41.542969 10.632813-60.980469 4.707031-14.0625 10-28.125 15.722656-41.792969 2.828125-6.742187 7.15625-10.890625 13.234375-12.675781 5.246094-1.539062 11.074219-1.519531 16.710938-1.511719l49.125.105469c15.128906.035156 23.6875 4.378906 27.75 14.078125 5.726562 13.679687 11.019531 27.742187 15.726562 41.796875 6.503906 19.4375 12.296875 40.277344 10.628906 60.980469-1.777344 22.082031-12.847656 41.105469-28.882812 49.636719-4.699219 2.5-9.785156 4.164062-15.167969 5.925781-2.363281.773437-4.804687 1.570312-7.207031 2.445312-6.191406 2.257813-25.035156 9.125-25.828125 24.007813-.574219 10.8125-.175781 21.871094.207031 32.566406.191406 5.242188.386719 10.664062.457031 15.917969.15625 11.027343.3125 22.429687 3.738281 33.464843 3.742188 12.054688 11.40625 23.535157 22.78125 34.121094zm269.578126-149.902344c-.335938 1.9375-.675782 3.882813-1.015626 5.828126-12.121093 15.777343-27.496093 28.738281-44.9375 37.871093.570313-5.933593 1.144532-11.867187 1.730469-17.804687 16.53125-10.4375 30.429688-24.769532 40.371094-41.710938 4.71875-8.042968 8.425781-16.507812 11.105469-25.222656-2.503906 13.679688-4.917969 27.582031-7.253906 41.039062zm-37.355469-11.957031c.902343-1.964843 1.953125-3.894531 3.128906-5.734375 1.660156-2.601562 3.515625-5.058594 5.480469-7.660156 2.617187-3.464844 5.324218-7.050781 7.542968-11.023438 6.835938-12.222656 8.089844-26.449218 8.421876-38.75.148437-5.585937.367187-11.28125.582031-16.785156.273437-7.097656.558593-14.433594.699219-21.691406.089843-4.816406.261718-13.773438-5.921876-18.957031-3.972656-3.332031-9.148437-3.84375-12.929687-4.214844l-17.417969-1.726563c-.1875-.0625-.378906-.125-.582031-.160156-.390625-.066406-.773437-.054687-1.144531-.011718l-.867188-.085938c-3.90625-.386719-10.441406-1.03125-15.238281 2.90625-4.03125 3.308594-5.152344 8.53125-5.894531 11.984375-1.28125 5.953125-2.667969 12.019531-4.007813 17.890625-2.699219 11.824219-5.492187 24.050781-7.609375 36.195312-.511718 2.941407-1.222656 5.867188-1.914062 8.695313-2.53125 10.394531-5.152344 21.140625 2.085937 33.054687 1.367188 2.257813 2.945313 4.300782 4.472657 6.277344 2.152343 2.792969 4.1875 5.429688 5.402343 8.335938 3.570313 8.570312 1.515625 19.78125-.296875 29.667968-.371094 2.015626-.730468 3.984376-1.039062 5.878907-.746094 4.601562-1.519532 9.21875-2.304688 13.84375-2.597656.71875-5.226562 1.355469-7.851562 1.882812-36.335938 7.300781-76.128906-3.9375-103.835938-29.320312-11.199218-10.265625-20.308594-22.59375-27.136718-36.695313 2.035156-6.101562 3.382812-12.613281 3.925781-19.375 1.785156-22.152344-4.246094-43.945312-11.023438-64.199218-.570312-1.695313-1.171875-3.386719-1.757812-5.082032 2.230469-8.238281 5.332031-16.160156 9.25-23.570312 5.871093-11.097656 13.96875-21.644532 23.417969-30.5 21.21875-19.882813 47.953124-30.464844 73.367187-29.003906 27.242187 1.554687 55.71875 12.496093 78.136719 30.007812 24.085937 18.816406 41.042968 46.003906 46.519531 74.582031 1.136719 5.9375 1.792969 12.042969 1.941406 18.15625.945313 38.328125-19.242187 75.941407-51.972656 97.894531.125-1.257812.242187-2.507812.355469-3.742187.996094-10.679687 1.855468-19.90625 6.015625-28.964844zm-43.261719 67.984375c-41.949219 8.429688-87.875-4.542968-119.851562-33.839844-9.675782-8.867187-18.070313-19.195312-25.015626-30.730468 3.15625-4.359375 5.851563-9.21875 8.019532-14.441406 6.839844 13.144531 15.667968 24.726562 26.335937 34.503906 22.863281 20.945312 53.683594 32.570312 84.304688 32.570312 7.742187 0 15.476562-.742187 23.058593-2.265625 2.105469-.425781 4.214844-.917969 6.304688-1.460937-.894531 5.199218-1.808594 10.394531-2.746094 15.578125-.136718.027343-.273437.058593-.410156.085937zm92.910156-133.269531c-.15625-6.332031-.835937-12.664063-2.011718-18.816406-5.664063-29.53125-23.160157-57.601563-48.003907-77.011719-23.050781-18.007812-52.355469-29.257812-80.398437-30.859375-26.503906-1.5-54.34375 9.453125-76.367188 30.09375-9.773437 9.15625-18.148437 20.070313-24.226562 31.554687-3.179688 6.011719-5.839844 12.347657-7.953125 18.90625-2.429688-6.792968-4.976563-13.566406-7.636719-20.269531.945312-2.042969 1.929688-4.074219 2.972656-6.046875 6.777344-12.808594 16.125-24.984375 27.03125-35.203125 24.5-22.957031 55.382813-35.167969 84.722656-33.488281 31.433594 1.796875 64.296876 14.417969 90.160157 34.625 23.515625 18.371094 41.117187 43.503906 49.828125 70.988281l-8.328125 45.398438c.207031-3.28125.292969-6.578125.210937-9.871094zm-257.085937 149.601563c-18.097657-16.582032-29.464844-30.21875-38.910157-46.691407 3.429688-2.957031 8.609376-5.707031 15.539063-8.234375 2.277344-.828125 4.652344-1.605468 6.953125-2.359375 5.472656-1.789062 11.136719-3.640625 16.453125-6.46875 6.265625-3.335937 11.867187-8.023437 16.613281-13.726562 6.988282 11.332031 15.351563 21.503906 24.941406 30.292969 26.273438 24.070312 61.695313 37.429687 96.886719 37.429687 8.5 0 16.988281-.789063 25.332031-2.386719-.320312 1.738282-.632812 3.480469-.953124 5.207032-3.769532 20.265624-7.917969 40.664062-12.375 60.902343-54.386719 2.765625-110.445313-17.285156-150.480469-53.964843zm165.628906 117.351562c-2.570313.714844-4.9375.324219-7.242187-1.199219-4.636719-3.066406-7.40625-9.503906-8.019532-14.183593-.941406-7.203126.847656-14.863282 2.578125-22.269532l.03125-.128906c6.558594-28.070312 12.5625-56.679688 17.835938-85.027344 2.675781-14.394531 5.222656-29.019531 7.566406-43.476562.300781-1.84375.652344-3.753906 1.007813-5.714844 2.019531-10.996094 4.304687-23.457031-.191407-34.246094-1.625-3.890625-4.085937-7.078125-6.464843-10.164062-1.453126-1.882813-2.828126-3.664063-3.964844-5.535156-5.496094-9.050782-3.574219-16.945313-1.136719-26.933594.71875-2.960938 1.464844-6.019532 2.023437-9.222656 2.078126-11.9375 4.847657-24.0625 7.527344-35.785157 1.34375-5.890625 2.738282-11.988281 4.027344-17.992187.695312-3.230469 1.410156-6.023438 3.117188-7.425782 1.269531-1.042968 3.175781-1.355468 5.304687-1.355468.453125 0 .921875.03125 1.390625.054687l-12.398438 73.273438c-.375 2.203125 1.109376 4.292969 3.316407 4.664062.226562.039063.453125.058594.679687.058594 1.9375 0 3.652344-1.398437 3.984375-3.375l12.503907-73.886719 8.894531.882813c-1.480469 11.207031-3.007813 23.523437-4.488281 35.476562-1.609376 13.015625-3.277344 26.472657-4.878907 38.417969-.296875 2.214844 1.257813 4.253906 3.476563 4.550781.179687.023438.363281.035157.542968.035157 1.996094 0 3.730469-1.476563 4.003907-3.507813 1.609375-11.988281 3.277343-25.464844 4.890625-38.5 1.488281-12.019531 3.023437-24.402344 4.511718-35.640625 2.511719.339844 4.660157.871094 6.113282 2.089844 2.96875 2.488281 3.117187 7.808594 3.027344 12.597656-.136719 7.179688-.417969 14.480469-.695313 21.535156-.214844 5.53125-.433594 11.246094-.585937 16.882813-.300782 11.316406-1.417969 24.328125-7.390626 35.015625-1.949218 3.488281-4.375 6.699218-6.941406 10.09375-1.972656 2.613281-4.011718 5.316406-5.84375 8.1875-1.375 2.152344-2.605468 4.40625-3.660156 6.707031-4.734375 10.3125-5.699219 20.652344-6.71875 31.597656-.136719 1.476563-.273438 2.96875-.425781 4.472657-.960938 9.660156-1.886719 19.304687-2.8125 28.9375-3.800781 39.609374-7.738281 80.5625-14.019531 120.710937-1.832032 11.703125-5.160157 17.84375-10.476563 19.328125zm25.398437-69.753906c2.707032-23.355469 4.960938-46.660156 7.15625-69.511719.0625-.65625.128907-1.316406.191407-1.972656 16.742187-8.363281 31.726562-20.109375 43.972656-34.441407-5.472656 31.316407-11.277344 63.101563-18.808594 94.480469-10.679687 5.277344-19.816406 8.230469-32.511719 11.445313zm64.078126 19.375c-1 13.21875-2.035157 26.886718-7.347657 38.589844-3.621093 7.890624-9.460937 13.523437-16.023437 15.453124-7.078125 2.078126-15.066406-.917968-17.816406-6.683593-2.707032-5.675781-.757813-12.71875 1.867187-20.671875 17.734375-53.773438 27.519531-110.128906 36.984375-164.632813 2.398438-13.816406 4.878906-28.109375 7.449219-42.117187l18.445312-100.554688c12.300781 18.242188 19.402344 40.132813 20.082031 62.109375.703126 22.761719-5.496093 45.847657-17.445312 65.242188-1.371094 1.625-2.660156 3.339843-3.808594 5.1875-5.273437 8.472656-7.179687 18.890625-8.457031 28.890625-.226563 1.785156-.4375 3.5625-.644531 5.328125-.355469 3.035156-.695313 5.902343-1.109375 8.675781-2.597657 17.433594-4.804688 35-6.742188 51.929688-.101562.390624-.148437.792968-.136719 1.195312-1.625 14.308594-3.0625 28.148438-4.371093 41.035156-.371094 3.636719-.652344 7.390625-.925781 11.023438zm47.683593-218.632813c-.742187-24.089843-8.945312-48.074219-23.097656-67.582031l1.828125-9.96875c15.609375 22.183594 24.460938 40.902344 28.398438 59.816406 5.550781 26.667969-.265626 52.695313-15.554688 69.628906-.921875 1.023438-1.882812 2.011719-2.867188 3.003907 7.902344-17.109375 11.875-36.109375 11.292969-54.898438zm-33.09375 156.765625c1.648438-13.863281 3.492188-28.046875 5.59375-42.125.429688-2.898437.777344-5.824218 1.140625-8.925781.203125-1.738281.410156-3.492187.636719-5.25 1.160156-9.085937 2.84375-18.480469 7.296875-25.636719 2.589844-4.160156 6.179688-7.667968 9.984375-11.378906 2.003906-1.953125 4.078125-3.976562 6.019531-6.128906 17.019532-18.839844 23.550782-47.515625 17.472656-76.703125-4.632812-22.25-15.535156-44.03125-35.347656-70.621094-.964844-1.289063-2.597656-1.886719-4.167968-1.523437-1.570313.367187-2.769532 1.628906-3.0625 3.210937l-8.566407 46.71875c-9.582031-25.542969-26.65625-48.726563-48.832031-66.050781-26.496094-20.699219-60.183594-33.632813-92.417969-35.472656-30.449219-1.726563-62.417969 10.863281-87.722656 34.574218-11.230469 10.523438-20.855469 23.0625-27.839844 36.261719-.5.949219-.976562 1.917969-1.457031 2.886719-.734375-1.796875-1.449219-3.601563-2.195312-5.386719-7.128907-17.015625-23.503907-19.019531-35.199219-19.046875l-22.335938-.046875c1.648438-3.652344 3.414063-7.261719 5.273438-10.777344 10.101562-19.097656 24.035156-37.246093 40.296875-52.480469 36.507812-34.210937 82.5-52.390624 126.195312-49.902343 46.898438 2.679687 95.929688 21.507812 134.527344 51.664062 41.457031 32.390625 70.644531 79.183594 80.074219 128.375 1.957031 10.210938 3.082031 20.71875 3.339843 31.234375 1.410157 57.261719-24.125 113.550782-68.707031 152.53125zm0 0"/></svg>