<?xml version="1.0" ?><svg id="Layer_1" style="enable-background:new 0 0 200 200;" version="1.1" viewBox="0 0 200 200" xml:space="preserve" xmlns="http://www.w3.org/2000/svg" xmlns:xlink="http://www.w3.org/1999/xlink"><path d="M174.7,55.2l-0.1-1.3c-0.1-0.4-0.1-0.9-0.2-1.3c-0.1-0.4-0.3-1-0.4-1.4c-0.2-0.5-0.6-1.1-0.9-1.6c-0.8-1-1.8-1.7-3-1.9  c-0.3-0.1-0.6-0.1-0.9-0.1l-0.8,0c-0.4,0-0.7,0-1,0c-0.6,0-1.2-0.1-1.8-0.3l-2.3-0.5c-3-0.6-6.1-0.9-9.1-1.1  c-6.1-0.4-12.1-0.2-18.1,0.1c-6,0.3-11.9,0.7-17.7,0.8c-1.5,0-2.9,0-4.4,0l-4.5,0l-8.9-0.1c-11.9-0.1-23.8-0.2-35.7-0.3l-8.9,0  l-2.2,0c-0.6,0-1.4-0.1-2.1-0.1l-4.4-0.3c-3-0.2-6-0.4-9.2-0.4c-1.6,0-3.2,0-4.9,0.3c-0.9,0.1-1.7,0.3-2.7,0.6  c-0.4,0.1-1.3,0.4-1.9,0.8c-0.6,0.4-1.2,0.9-1.7,1.4c-0.4,0.7-0.9,1.4-1.1,2.2c-0.3,0.7-0.3,1.2-0.4,1.7c-0.1,0.5-0.1,1-0.2,1.5  c-0.1,0.5-0.1,1-0.1,1.4c-0.1,1.8,0,3.6,0.1,5.3c0.2,3.4,0.6,6.8,0.8,10l0.1,1.2c0,0.4,0,0.6,0,1l0,2.5l0,5l0,9.9v9.8v2.4  c0,0.8,0,1.5-0.1,2.3c-0.1,1.6-0.2,3.2-0.3,4.8c-0.2,3.3-0.5,6.6-0.4,10.1c0.1,1.8,0.2,3.6,0.6,5.5c0.4,1.9,1.1,4.1,3.2,6.1  c0.5,0.5,1.1,0.9,1.8,1.2c0.3,0.1,0.7,0.3,1,0.4l0.9,0.2c1.1,0.3,2.1,0.4,3,0.4c1.9,0.1,3.6,0,5.3-0.1c1.7-0.1,3.4-0.3,5-0.4  c1.6-0.1,3.3-0.3,4.6-0.4l19.5,0h20.2c-0.4,1.7-0.7,3.4-1.1,5.1c-0.5,2.7-1.2,5.5-0.8,9.1c0.1,0.3,0.2,0.7,0.3,1.1H61.2  c-2.5,0-4.5,1.5-4.5,3.4c0,1.9,2,3.4,4.5,3.4h31.3c2.6,0,5.2-0.1,7.8-0.1c0.5,0,1.1,0,1.6,0c0.2,0,0.3,0,0.5,0  c13.8-0.3,27.5-1.1,41.2-2.4c1.1-0.1,1.1-1.7,0-1.8c-10.4-1-20.7-1.7-31.1-2.1c0.9-2.4,0.9-4.4,0.8-6.3c-0.1-3.5-0.6-6.5-0.8-9.4  H149c12.4,0,22.5-1.5,22.5-3.4c0.4,0,0.8-1.4,0.9-4.2v0c0.2-12.3,0.5-24.7,0.7-37.1l0.2-9.3l0-2.3l0-1.1l0.1-1.1l0.5-4.6  c0.3-3.1,0.7-6.2,0.8-9.4C174.7,58.5,174.8,56.9,174.7,55.2z M106.4,142.2c0.1,1.5,0,2.9-0.4,3.7c-0.3,0.8-0.6,1-1.5,1.4  c-1.5,0.6-4.3,0.7-6.4,0.5l-0.8-0.1c-0.3,0-0.4-0.1-0.6-0.2c-0.5-0.1-0.7-0.3-1.1-0.4c-0.5-0.3-0.9-0.8-1.3-1.7  c-0.6-1.9-0.7-4.7-0.7-7.4c0-1.8-0.1-3.7-0.2-5.5h12.2C105.8,135.9,106.3,139.3,106.4,142.2z M70.6,125.6l-19.6,0  c-1.9,0.1-3.5,0.2-5.2,0.4c-1.6,0.2-3.2,0.3-4.8,0.4c-1.6,0.1-3.1,0.1-4.5,0.1c-0.7-0.1-1.3-0.1-1.8-0.2l-0.3-0.1  c-0.1,0-0.1-0.1-0.1-0.1c-0.1,0-0.2-0.1-0.2-0.2c-0.3-0.3-0.9-1.2-1.1-2.5c-0.3-1.2-0.4-2.7-0.5-4.2c-0.1-3,0.1-6.2,0.4-9.4  c0.1-1.6,0.2-3.3,0.3-5c0-0.8,0.1-1.8,0.1-2.6v-2.4V90l0-9.9l0-5l0-2.5c0-0.4,0-1,0-1.4l-0.1-1.3c-0.3-3.4-0.7-6.6-0.9-9.8  c-0.1-1.6-0.2-3.2-0.1-4.6c0-0.4,0-0.7,0.1-1.1c0-0.3,0.1-0.7,0.1-1c0-0.3,0.1-0.6,0.1-0.7c0,0,0,0,0,0c0,0,0,0,0,0  c0.1,0-0.2,0,0.2-0.1c0.4-0.1,1-0.3,1.6-0.3c1.2-0.2,2.6-0.2,4-0.2c2.8,0,5.7,0.1,8.7,0.3l4.5,0.3c0.8,0,1.5,0.1,2.4,0.1l2.3,0  l8.9,0c11.9-0.1,23.8-0.2,35.7-0.3l8.9-0.1l4.5,0c1.5,0,3-0.1,4.5-0.1c6-0.3,12-0.8,17.9-1.2c5.9-0.4,11.7-0.7,17.5-0.5  c2.9,0.1,5.8,0.4,8.6,0.8l2.1,0.4c0.8,0.2,1.7,0.3,2.6,0.3c0.4,0,0.9,0,1.3,0l0.3,0c0.1,0,0.1,0,0.2,0c0.3,0,0.5,0.2,0.7,0.4  c0.1,0.2,0.2,0.2,0.2,0.4c0.1,0.3,0.2,0.4,0.2,0.8l0.2,1l0.1,1c0.1,1.4,0.1,2.9,0.1,4.4c-0.1,3-0.3,6.1-0.5,9.2l-0.3,4.7l-0.1,1.2  l0,1.3l0,2.3l0.2,9.3c0.2,12.4,0.5,24.7,0.7,37.1l0,0c0,1.7,0.2,2.8,0.4,3.5c-2.1-1.6-11.2-2.7-22-2.7H70.6z"/></svg>