<svg height="512pt" viewBox="-13 0 512 512.001" width="512pt" xmlns="http://www.w3.org/2000/svg"><path d="m308.296875 218.019531c16.386719 0 32.78125-1.9375 48.65625-5.808593 6.839844-1.671876 14.027344-3.804688 20.28125-8.101563 7.65625-5.257813 12.582031-15.011719 12.265625-24.277344-.261719-7.648437-3.976562-13.96875-10.457031-17.792969-5.265625-3.105468-11.558594-3.429687-17.109375-3.71875-.859375-.042968-1.707032-.085937-2.53125-.140624-7.449219-.488282-14.90625-.933594-22.359375-1.382813-3.738281-.222656-7.480469-.449219-11.21875-.679687l-38.597657-2.371094c-11.292968-.691406-24.089843-1.476563-35.746093 3.417968-11.519531 4.832032-22.21875 17.464844-19.359375 31.34375 1.445312 7.027344 6.390625 13.574219 13.574218 17.964844 6.269532 3.832032 13.269532 5.664063 19.902344 7.078125 14 2.980469 28.347656 4.46875 42.699219 4.46875zm-68.28125-31.132812c-1.917969-9.316407 5.910156-18.648438 14.582031-22.289063 6.195313-2.597656 13.117188-3.292968 19.976563-3.292968 4.132812 0 8.242187.253906 12.160156.492187l38.59375 2.371094c3.746094.230469 7.488281.453125 11.230469.679687 7.441406.445313 14.882812.890625 22.316406 1.378906.859375.054688 1.746094.101563 2.644531.148438 4.851563.246094 9.867188.507812 13.425781 2.609375 5.160157 3.042969 6.378907 7.730469 6.496094 11.125.222656 6.515625-3.382812 13.652344-8.773437 17.355469-5.179688 3.558594-11.53125 5.425781-17.625 6.910156-28.613281 6.976562-58.964844 7.421875-87.769531 1.289062-5.929688-1.261718-12.140626-2.875-17.375-6.070312-5.285157-3.230469-8.886719-7.863281-9.882813-12.707031zm0 0"/><path d="m346.382812 295.804688c4.839844-1.363282 10.425782-3.238282 15.164063-6.828126 5.449219-4.128906 8.726563-9.878906 8.992187-15.773437.332032-7.320313-2.324218-13.40625-7.886718-18.085937-18.386719-15.46875-63.964844-9.652344-74.261719-7.386719-6.757813 1.492187-15.347656 3.960937-21.847656 9.902343-7.199219 6.582032-9.972657 16.660157-6.75 24.503907 3.007812 7.320312 10.273437 12.246093 22.214843 15.054687 9.679688 2.28125 19.582032 3.417969 29.484376 3.417969 11.761718 0 23.523437-1.605469 34.890624-4.804687zm-9.53125-41.953126c8.371094 1.167969 15.867188 3.445313 20.613282 7.433594 3.59375 3.023438 5.234375 6.804688 5.019531 11.554688-.152344 3.441406-2.324219 7.070312-5.804687 9.710937-3.667969 2.773438-8.367188 4.335938-12.480469 5.492188-2.808594.792969-5.648438 1.464843-8.5 2.046875zm-43.554687 37.304688c-3.164063-.480469-6.316406-1.078125-9.441406-1.8125-9.226563-2.171875-14.65625-5.53125-16.601563-10.273438-2.191406-5.324218.722656-11.820312 4.730469-15.488281 5.085937-4.648437 12.367187-6.703125 18.140625-7.976562 1.328125-.292969 3.007812-.597657 4.925781-.898438-2.015625 12.046875-2.609375 24.273438-1.753906 36.449219zm8.164063.960938c-1.03125-12.847657-.394532-25.765626 1.941406-38.453126 7.5-.734374 16.597656-1.136718 25.40625-.601562l-1.21875 38.398438c-8.660156 1.15625-17.425782 1.378906-26.128906.65625zm0 0"/><path d="m482.382812 442.03125c-3.5-5.609375-9.710937-8.546875-14.242187-10.6875l-110.867187-52.417969c.722656-3.582031 1.214843-7.3125 1.429687-11.171875.871094-15.523437-2.300781-30.675781-5.457031-45.347656 11.144531-3.085938 20.597656-7.925781 28.179687-14.457031 10.207031-8.796875 17.828125-21.300781 22.648438-37.15625 4.179687-13.742188 5.714843-28.058594 7.207031-41.902344 2.390625-22.261719 4.859375-45.28125 3.03125-68.191406-2.089844-26.214844-9.597656-48.167969-22.308594-65.246094-12.003906-16.128906-31.035156-28.082031-52.960937-33.511719 2.089843-4.039062 1.9375-9.300781-.488281-13.753906-1.925782-3.527344-5.0625-6.503906-9.59375-9.109375-3.71875-2.136719-7.652344-3.539063-11.554688-4.230469l-.210938-30.84375c-.011718-2.226562-1.832031-3.9921872-4.058593-4.003906-2.226563.015625-4.019531 1.832031-4.003907 4.058594l.207032 30.410156c-4.171875.367188-8.097656 1.628906-11.421875 3.820312-7.554688 4.980469-11.542969 14.4375-9.976563 23.308594-9.089844 2.199219-17.644531 5.617188-25.253906 10.222656-12.066406 7.3125-22.0625 17.257813-28.90625 28.769532-12.910156 21.722656-15.496094 47.6875-16.367188 72.515625-.96875 27.605469-.210937 55.554687 2.261719 83.070312 1.585938 17.671875 4.402344 37.695313 17.847657 51.652344 6.203124 6.4375 13.703124 10.636719 21.945312 13.390625.003906.277344.035156.5625.097656.84375 2.195313 9.671875 1.617188 20.105469 1.054688 30.199219l-.09375 1.734375c-.542969 9.871094-.832032 19.535156 1.054687 28.890625-16.503906 5.9375-32.023437 11.824219-47.046875 17.523437-15.800781 5.996094-32.136718 12.199219-49.574218 18.433594-8.417969 3.007812-16.984376 6.621094-21.125 14.695312-3.160157 6.160157-2.667969 13.113282-2.273438 18.703126l3.800781 53.578124c.152344 2.101563 1.890625 3.730469 3.992188 3.746094l327.753906 2.433594h.03125c2.089844 0 3.835937-1.597656 4.015625-3.679688l4.046875-46.460937c.492187-5.671875 1.167969-13.441406-2.820313-19.828125zm-180.03125-397.007812c7.140626-4.707032 16.628907-2.378907 22.589844 1.046874 3.203125 1.839844 5.339844 3.796876 6.53125 5.980469 1.214844 2.234375 1.304688 4.851563.21875 6.515625-.34375.53125-.535156 1.117188-.605468 1.707032-11.894532-2.023438-23.878907-2.070313-35.246094-.261719-.910156-5.648438 1.730468-11.835938 6.511718-14.988281zm-59.023437 257.210937c-11.625-12.070313-14.160156-30.472656-15.625-46.777344-2.4375-27.183593-3.191406-54.796875-2.234375-82.066406.835938-23.753906 3.257812-48.519531 15.242188-68.679687 6.167968-10.375 15.214843-19.363282 26.152343-25.992188 13.382813-8.105469 29.320313-11.941406 45.398438-11.941406 28.40625 0 57.257812 11.96875 73.273437 33.492187 11.792969 15.84375 18.769532 36.390625 20.738282 61.070313 1.773437 22.15625-.660157 44.796875-3.011719 66.6875-1.449219 13.476562-2.945313 27.40625-6.902344 40.421875-4.308594 14.167969-11.292969 25.714843-20.199219 33.390625-8.71875 7.515625-20.398437 12.535156-34.707031 14.921875-12.980469 2.167969-26.53125 1.941406-39.628906 1.722656-22.03125-.363281-44.695313-1.917969-58.496094-16.25zm25.0625 67.160156c-.054687-.027343-.109375-.039062-.164063-.066406-.136718-4.855469.070313-9.839844.347657-14.890625l.09375-1.730469c.15625-2.820312.3125-5.667969.417969-8.53125 13.75 6.960938 31.378906 10.589844 48.226562 10.589844 11.800781 0 23.207031-1.78125 32.625-5.441406.714844 5.992187 1.046875 11.996093.714844 17.976562-.121094 2.132813-.339844 4.226563-.640625 6.277344-22.429688 10.34375-56.480469 8.65625-81.621094-4.183594zm79.464844 13.789063c-2.789063 9.0625-7.480469 16.75-13.683594 22.085937-8.144531 7.007813-19.15625 10.257813-29.460937 8.699219-15.511719-2.34375-29.835938-14.121094-34.0625-28.003906-.730469-2.398438-1.265626-4.855469-1.644532-7.363282 13.316406 5.917969 30.289063 9.738282 47.246094 9.738282 10.871094 0 21.734375-1.570313 31.605469-5.15625zm-79.785157-59.632813c10.699219 2.300781 22.25 2.808594 33.621094 3 4.046875.066407 8.132813.132813 12.242188.132813 9.566406 0 19.257812-.367188 28.84375-1.964844.882812-.148438 1.753906-.308594 2.617187-.476562 1.195313 5.5625 2.386719 11.195312 3.347657 16.859374-21.714844 9.382813-56.71875 6.96875-78.777344-5.589843-.261719-.148438-.535156-.261719-.8125-.347657-.101563-3.875-.417969-7.753906-1.082032-11.613281zm128.835938 179.792969-171.117188-1.273438-5.640624-42.3125c-.105469-.804687-.390626-2.949218.042968-3.535156.253906-.34375 1.1875-.738281 4.25-.71875l174.539063 1.640625zm80.261719-42.183594-3.722657 42.75-68.46875-.507812 2.246094-50.070313c.046875-1.09375-.347656-2.15625-1.101562-2.953125-.753906-.792968-1.792969-1.246094-2.886719-1.257812l-178.71875-1.679688c-2.519531-.023437-7.804687-.074218-10.808594 3.988282-2.371093 3.210937-1.855469 7.082031-1.550781 9.394531l5.492188 41.1875-64.507813-.480469-3.535156-49.859375c-.414063-5.832031-.574219-10.601563 1.402343-14.449219 2.800782-5.460937 9.480469-8.21875 16.664063-10.785156 17.511719-6.261719 33.886719-12.476562 49.722656-18.488281 14.820313-5.625 30.125-11.429688 46.355469-17.273438 5.902344 15.65625 22.210938 28.613281 39.757812 31.265625 2.085938.316406 4.195313.46875 6.308594.46875 10.640625 0 21.355469-3.925781 29.613282-11.027344 7.164062-6.164062 12.523437-14.574218 15.777343-24.515624l109.484375 51.765624c4.875 2.304688 8.773438 4.332032 10.851563 7.667969 2.367187 3.792969 2.136719 8.972657 1.625 14.859375zm0 0"/><path d="m203.011719 362.707031 3.453125-269.332031c.042968-3.4375.113281-9.183594-3.910156-13.042969-3.6875-3.53125-8.964844-3.570312-12.117188-3.59375l-160.472656-1.152343c-.011719 0-.019532 0-.03125 0-2.203125 0-4 1.769531-4.03125 3.972656l-.484375 33.6875c-2.503907.1875-5.003907.410156-7.480469.628906-4.488281.398438-8.726562.773438-12.796875.925781-2.078125.078125-3.753906 1.726563-3.871094 3.804688l-1.2187498 21.71875c-.0976562 1.71875-.2773432 4.921875 1.9570308 7.414062 1.984376 2.214844 4.757813 2.605469 6.757813 2.605469.679687 0 1.273437-.046875 1.714844-.078125l17.707031-1.34375.75 13.132813c-2.578125.191406-5.15625.417968-7.707031.644531-4.488281.398437-8.726563.773437-12.796875.925781-2.082032.078125-3.757813 1.726562-3.875 3.804688l-1.21875 21.714843c-.097656 1.71875-.277344 4.925781 1.957031 7.417969 1.984375 2.214844 4.757813 2.601562 6.761719 2.601562.679687 0 1.269531-.042968 1.710937-.078124l17.707031-1.34375.871094 15.199218c-3.214844.207032-6.433594.484375-9.617187.769532-4.488281.394531-8.726563.773437-12.796875.925781-2.082032.078125-3.757813 1.722656-3.875 3.800781l-1.21875 21.71875c-.097656 1.71875-.277344 4.921875 1.957031 7.414062 1.980469 2.214844 4.753906 2.605469 6.757813 2.605469.679687 0 1.273437-.042969 1.714843-.078125l17.707031-1.34375.800782 14.003906c-2.597656.1875-5.191406.417969-7.761719.644532-4.488281.398437-8.722656.773437-12.792969.925781-2.078125.078125-3.753906 1.726563-3.871094 3.804687l-1.21875 21.714844c-.097656 1.71875-.277343 4.921875 1.957032 7.417969 1.980468 2.214844 4.757812 2.601563 6.757812 2.601563.679688 0 1.273438-.042969 1.714844-.078126l17.617188-1.335937c-.019532 10.050781.15625 20.824219.328124 31.269531.179688 10.992188.367188 22.359375.320313 32.800782-.007813 2.175781 1.714844 3.96875 3.890625 4.046874l32.605469 1.152344c-.089844.570313-.175781 1.144532-.265625 1.714844-.714844 4.574219-1.457032 9.300781-2 13.875l-4.5 38.097656c-.242188 2.074219-.589844 4.257813-.960938 6.566406-1.234375 7.746094-2.632812 16.523438-.429687 24.414063 2.183593 7.820313 7.9375 12.785156 17.097656 14.753906 8.203125 1.765625 16.785156 2.472657 25.085937 3.15625 3.757813.308594 7.640626.628907 11.355469 1.039063.152344.019531.300781.027344.449219.027344 2.007812 0 3.738281-1.496094 3.996094-3.53125l12.007812-95.515626 64.175782-5.644531c2.0625-.1875 3.648437-1.898437 3.675781-3.96875zm-193.144531-220.484375c-.949219.070313-1.480469.058594-1.777344.023438-.03125-.316406-.027344-.808594.011718-1.472656l1.015626-18.101563c3.152343-.199219 6.378906-.484375 9.53125-.765625 9.445312-.839844 19.214843-1.703125 27.714843-.390625 3.015625.464844 4.160157 1.25 5.488281 3.773437.609376 1.570313 2.394532 8.960938 3.289063 13.496094zm3.292968 48.824219c-.949218.070313-1.484375.058594-1.78125.019531-.03125-.3125-.027344-.804687.011719-1.472656l1.015625-18.101562c3.152344-.199219 6.382812-.484376 9.535156-.761719 9.445313-.839844 19.21875-1.703125 27.710938-.390625 3.015625.464844 4.164062 1.246094 5.488281 3.769531.609375 1.574219 2.394531 8.960937 3.289063 13.5zm1.496094 51.007813c-.945312.074218-1.480469.058593-1.777344.023437-.03125-.3125-.027344-.808594.011719-1.472656l1.015625-18.101563c3.152344-.199218 6.382812-.484375 9.535156-.765625 9.449219-.835937 19.21875-1.703125 27.710938-.390625 3.015625.464844 4.164062 1.25 5.488281 3.773438.609375 1.570312 2.398437 8.960937 3.289063 13.496094zm3.292969 49.691406c-.945313.070312-1.484375.058594-1.78125.023437-.027344-.316406-.023438-.808593.015625-1.472656l1.015625-18.101563c3.152343-.199218 6.378906-.484374 9.527343-.765624 9.449219-.835938 19.21875-1.703126 27.71875-.390626 3.015626.464844 4.160157 1.246094 5.484376 3.773438.609374 1.570312 2.398437 8.960938 3.292968 13.496094zm66.007812 167.511718c-6.167969-1.324218-9.671875-4.199218-11.023437-9.039062-1.730469-6.191406-.535156-13.707031.625-20.976562.382812-2.390626.742187-4.648438 1.007812-6.890626l4.5-38.09375c.523438-4.421874 1.214844-8.871093 1.953125-13.578124 1.46875-9.359376 2.984375-19.039063 3.007813-28.4375 1.140625-9.625 2.328125-19.566407 5.070312-28.871094.308594-1.039063.636719-2.070313.980469-3.097656 5.304687 2.144531 11.394531 3.339843 17.59375 3.800781l-21.101563 145.703125c-.878906-.164063-1.75-.332032-2.613281-.519532zm33.0625-167.566406c3.632813 0 7.261719-.71875 10.59375-2.167968 1.945313 4.664062 3.527344 9.449218 4.542969 14.351562-11.277344 3.179688-27.84375 3.519531-39.179688-1.128906 2.378907-5.539063 5.234376-10.878906 8.375-16.070313 4.515626 3.308594 10.085938 5.015625 15.667969 5.015625zm-11.347656-11.839844c3.058594-4.625 6.28125-9.15625 9.527344-13.625 3.136719 5.117188 6.273437 10.445313 9.042969 15.96875-5.96875 2.519532-13.484376 1.65625-18.570313-2.34375zm26.296875 53.191407-16.328125 129.878906c-2.550781-.242187-5.117187-.453125-7.628906-.660156-4.457031-.367188-8.996094-.746094-13.464844-1.289063l21.246094-146.703125c6.261719-.160156 12.316406-1.007812 17.480469-2.351562.007812.152343.03125.304687.039062.460937.398438 6.800782-.488281 13.847656-1.34375 20.664063zm66.429688-239.773438-3.402344 265.691407-58.8125 5.175781 3.785156-30.089844c.902344-7.175781 1.835938-14.597656 1.390625-22.140625-1.222656-20.816406-12.503906-38.992188-22.457031-55.027344-.707032-1.136718-1.933594-1.851562-3.273438-1.902344-1.367187-.054687-2.617187.566407-3.40625 1.648438-11.617187 15.886719-24.785156 33.890625-30.859375 54.464844-2.957031 10.035156-4.183593 20.410156-5.371093 30.441406-.019532.15625-.027344.316406-.027344.472656 0 5.726563-.621094 11.707032-1.449219 17.6875l-29.621094-1.046875c-.007812-9.40625-.167969-19.375-.332031-29.054687-.171875-10.628906-.351562-21.601563-.324219-31.753906l23.734375-1.800782c1.347656-.101562 2.613282-.917968 3.269532-2.101562.726562-1.300782 1.128906-2.019532-1.164063-12.082032-.605469-2.667968-2.109375-9.050781-2.9375-10.652343-2.542969-4.910157-5.863281-7.261719-11.464844-8.128907-4.476562-.691406-9.132812-.839843-13.847656-.726562l-.808594-14.203125 23.660157-1.792969c1.347656-.105468 2.613281-.917968 3.273437-2.101562.726563-1.304688 1.128906-2.023438-1.164063-12.082032-.609374-2.671874-2.113281-9.054687-2.941406-10.65625-2.539062-4.90625-5.859375-7.261718-11.464844-8.125-3.882812-.601562-7.90625-.789062-11.980468-.757812l-.882813-15.492188 23.660157-1.796874c1.347656-.101563 2.613281-.917969 3.273437-2.097657.726563-1.304687 1.128906-2.023437-1.164063-12.085937-.609374-2.667969-2.113281-9.050782-2.941406-10.648438-2.539062-4.910156-5.859375-7.265625-11.464844-8.132812-4.492187-.691406-9.164062-.84375-13.894531-.722656l-.761719-13.335938 23.664063-1.796875c1.347656-.105469 2.613281-.917969 3.273437-2.101563.726563-1.304687 1.125-2.023437-1.167968-12.082031-.605469-2.667969-2.109375-9.050781-2.9375-10.652343-2.539063-4.90625-5.863282-7.261719-11.464844-8.128907-4.558594-.703125-9.300781-.851562-14.105469-.722656l.417969-29.148437 156.472656 1.128906c2.640625.015625 5.328125.136718 6.59375 1.347656 1.382813 1.320312 1.460938 4.367188 1.425782 7.113281zm0 0"/><path d="m167.613281 116.054688-89.738281-1.882813c-2.191406-.019531-4.070312 1.71875-4.117188 3.945313-.046874 2.226562 1.71875 4.066406 3.945313 4.113281l89.742187 1.882812h.085938c2.1875 0 3.984375-1.75 4.027344-3.945312.046875-2.226563-1.71875-4.070313-3.945313-4.113281zm0 0"/><path d="m158.921875 143.660156c-.003906-2.222656-1.808594-4.023437-4.03125-4.023437 0 0-.003906 0-.007813 0l-72.316406.144531c-2.226562.003906-4.027344 1.8125-4.023437 4.039062.003906 2.222657 1.808593 4.023438 4.03125 4.023438h.007812l72.316407-.144531c2.226562-.003907 4.03125-1.8125 4.023437-4.039063zm0 0"/><path d="m164.386719 162.539062-76.660157 1.566407c-2.226562.046875-3.992187 1.886719-3.949218 4.113281.046875 2.199219 1.84375 3.949219 4.03125 3.949219h.085937l76.65625-1.570313c2.226563-.042968 3.996094-1.886718 3.949219-4.113281s-1.847656-3.980469-4.113281-3.945313zm0 0"/><path d="m90.101562 197.109375 67.519532-2.234375c2.226562-.074219 3.972656-1.9375 3.898437-4.160156-.074219-2.226563-1.894531-3.96875-4.160156-3.898438l-67.523437 2.234375c-2.226563.074219-3.972657 1.9375-3.898438 4.164063.074219 2.179687 1.863281 3.898437 4.027344 3.898437.046875 0 .089844 0 .136718-.003906zm0 0"/><path d="m163.40625 207.492188-72.316406 3.074218c-2.226563.09375-3.953125 1.972656-3.859375 4.199219.09375 2.164063 1.878906 3.859375 4.027343 3.859375.058594 0 .113282 0 .171876-.003906l72.316406-3.070313c2.226562-.097656 3.953125-1.976562 3.859375-4.199219-.09375-2.226562-1.988281-3.945312-4.199219-3.859374zm0 0"/><path d="m149.3125 229.988281-55.75-1.34375c-2.214844-.011719-4.074219 1.707031-4.128906 3.933594-.050782 2.226563 1.710937 4.074219 3.933594 4.125l55.75 1.34375c.035156 0 .066406.003906.101562.003906 2.179688 0 3.972656-1.742187 4.027344-3.9375.054687-2.226562-1.707032-4.074219-3.933594-4.125zm0 0"/></svg>