<svg height="512pt" viewBox="-13 0 512 512.00124" width="512pt" xmlns="http://www.w3.org/2000/svg"><path d="m435.429688 428.371094c-12.605469-.667969-25.367188-1.273438-38.207032-1.816406l1.316406-39.152344c.074219-2.207032-1.636718-4.058594-3.839843-4.164063l-10.945313-.515625c.296875-.253906.601563-.492187.882813-.765625 7.179687-6.933593 9.238281-18.492187 4.902343-27.480469-4.5-9.324218-14.21875-14.367187-24.761718-12.867187-10.554688 1.511719-18.472656 9.082031-20.179688 19.292969-1.214844 7.273437 1.324219 14.90625 6.292969 20.273437l-10.917969-.511719c-1.132812-.058593-2.226562.367188-3.027344 1.164063-.804687.792969-1.234374 1.886719-1.191406 3.015625l1.507813 39.667969c-20.386719-.53125-40.855469-.90625-61.355469-1.101563l.382812-31.679687c.019532-1.460938.046876-3.910157-1.398437-6.074219-2.667969-3.996094-7.804687-3.71875-9.734375-3.617188l-47.660156 2.542969c-1.109375.058594-2.144532.574219-2.863282 1.425781-.71875.847657-1.054687 1.957032-.925781 3.058594l3.9375 34.242188c-16.945312.105468-33.867187.308594-50.714843.640625-3.015626.058593-6.050782.144531-9.070313.210937l.277344-39.726562c.003906-1.078125-.417969-2.117188-1.179688-2.878906-.757812-.757813-1.78125-1.183594-2.851562-1.183594-.007813 0-.015625 0-.027344 0l-57.140625.335937c-1.167969.003907-2.28125.519531-3.039062 1.410157-.761719.886718-1.097657 2.0625-.925782 3.21875l6.097656 40.59375c-10.679687.40625-21.34375.839843-31.957031 1.335937-12.769531.601563-28.667969 1.34375-42.339843 7.859375-12.859376 6.128906-25.496094 19.703125-24.742188 36.207031.625 13.664063 10.75 26.6875 25.789062 33.179688 13.300782 5.742187 28.421876 6.128906 40.574219 6.4375 29.71875.761719 59.613281 1.050781 89.488281 1.050781 48.515626 0 96.964844-.761719 144.402344-1.511719l107.375-1.691406c15.214844-.242187 32.464844-.511719 47.886719-6.976563 17.785156-7.453124 29.597656-22.628906 30.085937-38.652343.980469-32.082031-37.542968-34.125-50.203124-34.796875zm-82.878907-66.140625c1.355469-8.101563 7.792969-11.839844 13.367188-12.636719 5.570312-.796875 12.789062.988281 16.359375 8.386719 2.824218 5.847656 1.429687 13.664062-3.242188 18.175781-4.667968 4.511719-12.527344 5.636719-18.277344 2.613281-5.746093-3.023437-9.277343-10.132812-8.207031-16.539062zm-8.574219 26.691406 46.371094 2.183594-1.179687 35.117187c-14.261719-.574218-28.601563-1.070312-42.945313-1.480468-.292968-.007813-.589844-.011719-.882812-.023438zm-121.769531 3.484375 43.382813-2.316406c1.609375-.085938 2.304687.039062 2.59375.128906.058594.378906.050781 1.085938.046875 1.414062l-.386719 31.71875c-14.03125-.105468-28.066406-.132812-42.085938-.078124zm-120.566406-3.664062 48.40625-.28125-.25 35.667968c0 .074219.015625.144532.019531.214844-14.191406.347656-28.414062.777344-42.632812 1.289062zm375.933594 74.179687c-.449219 14.640625-12.953125 26.351563-25.144531 31.460937-13.988282 5.863282-29.699219 6.109376-44.898438 6.347657l-107.375 1.695312c-76.566406 1.207031-155.742188 2.453125-233.554688.460938-12.054687-.308594-25.714843-.65625-37.582031-5.78125-10.023437-4.324219-20.378906-14.085938-20.929687-26.140625-.425782-9.234375 5.644531-21.644532 20.152344-28.5625 12.207031-5.816406 26.574218-6.488282 39.25-7.082032 33.023437-1.542968 66.535156-2.65625 99.597656-3.308593 59.363281-1.175781 119.558594-.90625 178.90625.789062 29.925781.859375 59.871094 2.074219 89.007812 3.621094 29.953125 1.589844 43.082032 9.761719 42.570313 26.5zm0 0"/><path d="m415.183594 443.546875c-.277344-.0625-.5625-.101563-.859375-.101563-56.601563-.351562-114.152344-.339843-169.800781-.34375-55.332032 0-112.535157.003907-168.808594-.339843-10.328125-3.785157-23.355469-1.707031-33.308594 4.253906-7.570312 4.535156-14.695312 14.167969-12.445312 24.605469 1.355468 6.296875 6.035156 12 13.171874 16.050781 5.96875 3.382813 12.511719 5.152344 18.882813 5.152344 1.5 0 2.988281-.121094 4.457031-.320313.59375.339844 1.269532.542969 1.992188.542969.085937 0 .171875-.003906.261718-.007813 101.371094-6.515624 223.40625-7.730468 343.8125-3.433593 4.855469 2.113281 9.964844 3.21875 14.972657 3.21875 1.789062 0 3.5625-.140625 5.308593-.421875 8.84375-1.429688 16.671876-6.609375 20.945313-13.859375 4.6875-7.953125 4.757813-17.953125.179687-25.472657-7.851562-12.886718-24.71875-14.699218-38.761718-9.523437zm-368.066406 37.113281c-2.960938-1.683594-8.101563-5.3125-9.273438-10.738281-1.351562-6.265625 3.359375-12.785156 8.707031-15.988281 7.074219-4.238282 17.886719-6.589844 26.175781-3.675782.378907.21875.785157.390626 1.226563.480469 3.066406 1.316407 5.726563 3.425781 7.613281 6.527344 3.007813 4.933594 2.910156 11.839844-.238281 17.183594-3.066406 5.203125-8.78125 8.941406-15.285156 9.992187-6.15625.996094-12.878907-.347656-18.925781-3.78125zm36.84375 3.375c1.671874-1.652344 3.132812-3.488281 4.3125-5.492187 4.6875-7.957031 4.757812-17.953125.175781-25.472657-.46875-.769531-.976563-1.492187-1.511719-2.183593 52.652344.277343 105.933594.28125 157.585938.277343 51.726562.003907 105.082031 0 157.792968.277344-5.023437 5.105469-8.535156 12.417969-6.863281 20.179688.734375 3.398437 2.441406 6.621094 4.972656 9.503906-110.445312-3.589844-221.625-2.566406-316.464843 2.910156zm362.859374-9.585937c-3.066406 5.203125-8.78125 8.941406-15.285156 9.992187-4.648437.753906-9.625.164063-14.390625-1.648437-.695312-.699219-1.636719-1.152344-2.699219-1.191407-.003906 0-.003906 0-.007812 0-.613281-.296874-1.226562-.601562-1.828125-.945312-2.960937-1.679688-8.101563-5.308594-9.273437-10.738281-1.347657-6.261719 3.359374-12.785157 8.707031-15.988281 10.132812-6.066407 27.9375-8.285157 35.015625 3.335937 3.007812 4.933594 2.910156 11.839844-.238282 17.183594zm0 0"/><path d="m37.152344 74.355469c14.023437 6.054687 29.703125 6.089843 43.539062 6.121093l92.800782.210938c-1.914063 9.472656-3.746094 19.246094-3.242188 29.285156.621094 12.398438 5.011719 23.136719 12.359375 30.230469 9.621094 9.292969 23.320313 11.917969 36.695313 13.371094 1.308593.144531 2.621093.273437 3.929687.402343l4.734375 133.578126c.019531.558593.152344 1.082031.375 1.558593-15.765625 8.324219-26.625 27.121094-24.882812 46.183594.320312 3.507813 1.074218 6.914063 2.242187 10.128906 2.296875 6.300781 9.539063 15.363281 17.996094 15.363281.195312 0 .390625-.003906.585937-.015624.785156-.039063 1.53125-.167969 2.242188-.375 1.292968 6.917968 6.007812 13.09375 12.609375 15.847656 2.46875 1.03125 5.121093 1.523437 7.777343 1.523437 6.453126-.003906 12.929688-2.910156 16.890626-8.046875 2.714843-3.527344 4.203124-7.671875 4.429687-11.898437 3.464844 1.230469 7.597656.820312 11.125-1.273438 3.179687-1.886719 5.804687-4.960937 8.023437-9.398437 8.816407-17.640625 3.660157-41.105469-11.742187-53.421875-1.449219-1.15625-2.996094-2.199219-4.609375-3.148438l-2.789062-134.707031c10.710937-.199219 22.535156-1.300781 32.332031-7.78125 9.90625-6.558594 16.839843-18.496094 19.027343-32.757812 1.777344-11.59375.523438-23.125-.878906-34.320313l81.5625.183594c1.199219.003906 2.402344.007812 3.605469.007812 12.085937 0 24.476563-.273437 36.542969-3.554687 13.085937-3.554688 30.132812-14.617188 36.636718-30.492188 3.890626-9.503906 3.222657-19.199218-1.933593-28.042968-11.3125-19.394532-39.242188-18.480469-59.636719-17.808594-3.589844.117187-6.984375.230468-9.933594.214844l-326.625-1.5117192c-12.976562-.0546876-27.6875-.1289068-41.003906 5.1289062-15.449219 6.101563-25.902344 18.976563-26.632812 32.804687-.40625 7.648438 2.136718 15.300782 7.355468 22.121094 4.644532 6.070313 11.210938 11.148438 18.492188 14.289063zm193.140625 6.460937-51.875 30.398438c-.046875-.546875-.085938-1.09375-.113281-1.644532-.484376-9.59375 1.484374-19.386718 3.414062-28.863281zm-50.390625 38.871094 64.820312-37.980469c.394532-.230469.71875-.53125 1-.855469l59.828125.132813-103.394531 61.195313c-5.308594-1.671876-10.128906-4.09375-13.945312-7.777344-3.839844-3.707032-6.660157-8.765625-8.308594-14.714844zm33.777344 25.042969 97.632812-57.785157c1.007812 8.800782 1.636719 17.722657.425781 26.378907-9.046875 5.28125-19.210937 10.988281-29.066406 16.523437-10.347656 5.808594-21.046875 11.816406-30.46875 17.339844-.25.144531-.476563.316406-.679687.503906-10.480469-.296875-20.972657-1.003906-31.347657-2.132812-2.167969-.234375-4.339843-.503906-6.496093-.828125zm47.554687 62.132812c-4.761719.042969-8.941406-.140625-13.335937-.34375-4.589844-.207031-9.335938-.417969-14.746094-.332031l-.792969-22.445312c.265625.058593.539063.089843.820313.089843.117187 0 .234374-.003906.355468-.015625l27.171875-2.367187zm.617187 29.925781-27.5625 1.511719-.851562-24.054687c5.082031-.074219 9.472656.121094 14.097656.332031 3.886719.175781 7.882813.355469 12.296875.355469.511719 0 1.046875-.011719 1.566407-.015625zm-27.273437 9.570313 27.441406-1.503906.402344 19.273437-26.386719.914063c-.273437.011719-.539062.046875-.792968.109375zm25.597656-90.453125.363281 17.507812c-.144531-.003906-.285156-.019531-.433593-.003906l-27.273438 2.375c-.257812.023438-.507812.074219-.75.144532l-.75-21.238282c9.589844.75 19.238281 1.152344 28.84375 1.214844zm4.949219 174.425781c-.414062 1.550781-1.0625 3.113281-1.746094 4.765625-.742187 1.792969-1.5 3.652344-2.046875 5.667969-4.636719-4.316406-10.949219-6.222656-17.515625-5.0625-3.875.683594-7.429687 2.503906-10.324218 5.0625-.011719-.085937-.027344-.183594-.039063-.269531-.292969-1.777344-.667969-3.523438-1.035156-5.214844-.792969-3.675781-1.542969-7.148438-1.339844-10.5.28125-4.527344 2.738281-8.960938 6.746094-12.160156 4.007812-3.199219 8.871093-4.617188 13.347656-3.886719s8.640625 3.621094 11.421875 7.925781c2.785156 4.308594 3.707031 9.292969 2.53125 13.671875zm-7.710938 34.46875c-3.375 4.386719-10.042968 6.144531-15.171874 4.003907-5.105469-2.128907-8.59375-8.121094-7.9375-13.640626.660156-5.582031 5.355468-10.535156 10.917968-11.519531 5.300782-.941406 10.152344 1.273438 12.964844 5.910157 2.933594 4.84375 2.628906 10.828124-.773438 15.246093zm22.753907-21.253906c-1.503907 3.007813-3.117188 4.996094-4.925781 6.070313-1.726563 1.023437-3.917969 1.109374-5.09375.195312-1.589844-1.238281-1.710938-4.257812-1.152344-6.539062.40625-1.652344 1.097656-3.320313 1.832031-5.089844.753906-1.820313 1.535156-3.703125 2.085937-5.761719 1.765626-6.578125.472657-13.917969-3.546874-20.136719-4.015626-6.21875-10.175782-10.410156-16.894532-11.507812-6.722656-1.09375-13.894531.925781-19.679687 5.542968-5.785157 4.621094-9.34375 11.167969-9.761719 17.964844-.273438 4.464844.632812 8.648438 1.507812 12.699219.359376 1.664063.699219 3.238281.957032 4.8125.773437 4.726563.484375 9.050781-.699219 10.515625-.171875.214844-.347656.378906-.914063.410156-3.746093.179688-8.886718-5.347656-10.601562-10.054687-.929688-2.5625-1.535156-5.285157-1.789062-8.105469-1.808594-19.804688 12.574218-39.253906 30.785156-41.621094 1.882812-.242187 3.753906-.363281 5.601562-.363281 8.601563 0 16.667969 2.605469 22.726563 7.449219 12.546875 10.035156 16.746093 29.148437 9.5625 43.519531zm-38.929688-58.601563c-1.785156.234376-3.539062.609376-5.257812 1.097657l-.457031-13c.210937.035156.425781.0625.648437.0625.046875 0 .09375 0 .140625-.003907l26.277344-.910156.304687 14.714844c-6.695312-2.21875-14.125-2.9375-21.65625-1.960938zm54.882813-143.578124c-8.292969 5.492187-19.113282 6.324218-28.910156 6.464843 6.335937-3.617187 12.9375-7.324219 19.40625-10.953125 7.488281-4.203125 15.148437-8.503906 22.386718-12.65625-2.796875 7.40625-7.253906 13.421875-12.882812 17.144532zm-276.765625-102.996094c.640625-12.152344 11.28125-21.679688 21.542969-25.730469 10.535156-4.160156 22.183593-4.578125 33.65625-4.578125 1.453124 0 2.902343.003906 4.347656.011719l326.625 1.511719c3.105468.019531 6.570312-.097657 10.238281-.21875 18.367187-.601563 43.515625-1.425782 52.40625 13.8125 3.898437 6.6875 4.382813 13.730468 1.433594 20.925781-5.222657 12.75-19.691407 22.613281-31.289063 25.765625-12.21875 3.324218-25.335937 3.292968-38.011718 3.265625l-319.597657-.722657c-13.054687-.027343-27.855469-.0625-40.359375-5.457031-10.597656-4.578125-21.6875-15.476562-20.992187-28.585937zm0 0"/><path d="m235.113281 65.367188c3.914063 1.332031 7.992188 1.984374 12.011719 1.984374 6.949219 0 13.714844-1.949218 19.109375-5.710937 8.128906-5.664063 12.382813-13.632813 11.976563-22.4375-.460938-10.03125-7.011719-19.824219-17.097657-25.558594-7.125-4.046875-16.035156-4.417969-24.449219-1.019531-9.324218 3.769531-16.753906 11.679688-19.390624 20.644531-2.003907 6.820313-1.347657 13.976563 1.804687 19.636719 3.105469 5.570312 8.800781 9.996094 16.035156 12.460938zm-10.101562-29.824219c1.957031-6.65625 7.578125-12.574219 14.675781-15.441407 2.886719-1.167968 5.769531-1.746093 8.535156-1.746093 3.183594 0 6.210938.769531 8.90625 2.300781 7.699219 4.375 12.691406 11.625 13.027344 18.917969.277344 6.023437-2.675781 11.367187-8.535156 15.449219-6.449219 4.5-15.613282 5.539062-23.90625 2.710937-5.347656-1.820313-9.460938-4.929687-11.59375-8.753906-2.105469-3.78125-2.511719-8.679688-1.109375-13.4375zm0 0"/><path d="m51.429688 59.082031c4.636718 3.410157 10.273437 4.023438 14.625 4.023438.617187 0 1.207031-.011719 1.761718-.027344 7.453125-.25 17.507813-2.210937 23.074219-10.160156 6.09375-8.695313 3.675781-21.847657-5.273437-28.714844-7.808594-5.996094-24.128907-8.03125-32.675782-1.570313-5.578125 4.214844-9.148437 12.097657-9.097656 20.082032.046875 6.886718 2.808594 12.851562 7.585938 16.367187zm6.375-30.015625c2.125-1.609375 5.460937-2.3125 9.015624-2.3125 5.175782 0 10.820313 1.492188 13.886719 3.84375 5.4375 4.171875 7.144531 12.609375 3.578125 17.695313-3.847656 5.496093-12.136718 6.570312-16.734375 6.722656-5.246093.179687-8.851562-.597656-11.34375-2.429687-3.703125-2.726563-4.285156-7.386719-4.300781-9.921876-.035156-5.441406 2.332031-10.90625 5.898438-13.597656zm0 0"/><path d="m405.996094 61.035156c3.621094 2.664063 8.3125 4.050782 13.515625 4.050782 1.480469 0 3.003906-.113282 4.554687-.339844 7.421875-1.089844 13.917969-4.453125 18.289063-9.476563 6.335937-7.277343 7.015625-18.050781 1.683593-26.808593-5.03125-8.265626-13.714843-12.042969-22.667968-9.863282-10.777344 2.628906-21.210938 13.085938-23.261719 23.3125-1.496094 7.488282 1.304687 14.28125 7.886719 19.125zm.023437-17.539062c1.4375-7.199219 9.507813-15.171875 17.261719-17.0625 8.148438-1.984375 12.679688 4.257812 13.871094 6.222656 2.910156 4.777344 3.765625 11.984375-.878906 17.320312-3.109376 3.570313-7.859376 5.984376-13.378907 6.792969-2.828125.414063-8.167969.679688-12.117187-2.230469-4.089844-3.003906-5.644532-6.621093-4.757813-11.042968zm0 0"/></svg>