<svg id="Capa_1" enable-background="new 0 0 512 512" height="512" viewBox="0 0 512 512" width="512" xmlns="http://www.w3.org/2000/svg"><path d="m494.22 303.38c.66-.06 1.51.35 2.25.67 5.2 2.23 10.4 4.58 15.53 7.03v-4.42c-4.62-2.19-9.28-4.29-13.95-6.29-1.06-.45-2.38-.98-3.89-.99-1.27.02-2.4.45-3.3.8l-28.12 10.77c-11.99-19.06-22-39.38-29.69-60.46-1.12-3.09-2.23-6.27-3.3-9.34-3.78-10.89-7.69-22.15-13.58-32.35-3.2-5.54-7.01-10.85-10.71-15.98-7.33-10.19-14.26-19.81-16.99-31.39-2.18-9.24-1.39-19.12-.61-28.67.18-2.28.36-4.55.51-6.82.17-2.64.2-5.66-1.57-8.06-2.62-3.56-7.56-3.63-10.21-3.67l-28.4-.43c2.34-2.38 4.1-5.54 5.05-9.2.92-3.54 1.02-7.13.81-10.49 12.88 8.7 29.82 10.73 44.39 5.06 4.66-1.82 8.26-4.09 10.97-6.93 5.22-5.47 7.22-13.73 5.32-21.02 9.46.05 19.01-6.42 23.01-16.12 3.23-7.82 2.98-17.41-.56-26.43 9.47 2.56 19.75-.71 26.87-5.15 8.43-5.26 13.99-12.42 15.67-20.18.24-1.1.4-2.2.48-3.32h-4.01c-.07.83-.2 1.66-.38 2.48-1.95 9.02-9.53 14.91-13.88 17.63-7.41 4.61-18.57 7.86-27.7 3.13-.77-.41-1.72-.26-2.34.36-.62.63-.76 1.58-.34 2.35 4.89 9.21 5.83 19.53 2.49 27.61-3.7 8.96-13.31 14.85-21.87 13.42-.73-.12-1.46.17-1.91.74-.45.58-.55 1.36-.25 2.03 2.83 6.49 1.39 14.59-3.49 19.7-2.31 2.42-5.42 4.37-9.54 5.97-14.45 5.63-32.17 2.74-44.09-7.19-.63-.53-1.52-.62-2.24-.22-.72.39-1.13 1.19-1.02 2.01.53 4.14.92 9-.26 13.55-1.17 4.52-3.92 8.18-7.35 9.81-.17.08-.32.18-.45.3l-48.58-.74c-1.75-5.38 1.28-11.58 5.41-15.12 1.84-1.58 3.57-2.49 5.26-2.79 1.83-.32 3.67.2 4.69 1.33.72.8 1.95.89 2.78.19.82-.71.94-1.94.26-2.78-3.27-4.08-1.51-10.53 1-14.81 5.02-8.57 13.83-14.81 23.59-16.69 9.75-1.88 20.26.64 28.1 6.74.83.65 2.03.54 2.73-.26s.65-2-.1-2.74l-17.15-16.83c-3.29-3.24-6.07-6.21-6.68-9.83-.5-2.97.59-6.41 2.99-9.43 2.3-2.9 5.46-5.17 8.52-7.36.67-.48.98-1.32.78-2.12s-.87-1.39-1.69-1.49c-6.21-.79-11.89-4.33-14.82-9.23-1.75-2.95-2.49-6.42-2.2-9.72h-4.04c-.28 4 .65 8.16 2.81 11.77 2.86 4.79 7.64 8.4 13.26 10.16-2.08 1.61-4.07 3.37-5.76 5.5-3.1 3.91-4.48 8.5-3.79 12.58.87 5.2 4.89 9.14 7.82 12.02l7.62 7.48c-6.16-1.94-12.8-2.39-19.16-1.17-10.87 2.09-20.69 9.05-26.28 18.6-2.37 4.04-4.01 9.31-3.09 14.06-.94-.11-1.91-.08-2.88.09-2.42.42-4.77 1.63-7.18 3.7-6.46 5.54-8.07 12.75-6.94 18.09l-4.83-.07c-1.92-.03-4.32-.07-6.46 1.11-3.69 2.02-4.64 6.32-5.4 9.77-5.85 26.46-23.65 48.71-39.35 68.34-21.55 26.94-43.41 54.05-64.55 80.26-7.11 8.81-15.16 18.8-25.85 24.17-3.06 1.54-6.39 2.72-9.62 3.87-3.12 1.11-6.34 2.25-9.41 3.73-5.56 2.68-10.47 6.37-15.07 10.38-9.67-5.28-20.06-9.25-30.11-13.08-2.68-1.02-5.71-2.18-8.95-2.3-3.79-.13-7.39 1.16-10.74 2.49-8.45 3.37-16.79 7.35-24.86 11.2-10.89 5.19-22.07 10.52-33.65 14.38v4.22c12.25-3.97 23.97-9.55 35.38-14.99 8.01-3.82 16.29-7.77 24.61-11.09 3.08-1.23 6.1-2.31 9.12-2.21 2.57.09 5.16 1.08 7.66 2.03 9.5 3.62 19.28 7.37 28.37 12.2-1.69 1.56-3.35 3.14-5 4.71-1.39 1.32-2.77 2.64-4.17 3.94-23.52 21.89-55 40.87-84.23 50.79-.34.11-.63.32-.85.58-3.66.12-7.29.35-10.89.65v4.03c13.79-1.2 28.13-1.36 41.6 2.15 7.86 2.04 15.52 5.35 22.93 8.55 6.64 2.87 13.5 5.83 20.58 7.94 8.67 2.58 17.7 3.89 26.44 5.16 4.94.72 10.05 1.47 15 2.43 5.88 1.14 11.73 2.63 17.52 4.31-15.23-.26-30.58 1.98-45.02 6.64-3.24 1.04-3.93 2.84-3.93 4.17-.01 1.13.52 3.19 4.13 4.21 3.13.88 6.33 1.68 9.44 2.44 8.28 2.06 16.84 4.18 24.38 8.14.51.27.73.43.82.51-.15.2-.57.59-1.36.98-4.23 2.1-8.89 3.71-13.39 5.27-7.75 2.69-15.77 5.47-22.29 10.88-.5.41-.76 1.04-.72 1.68.05.64.4 1.22.95 1.56 5.12 3.17 11.07 3.84 16.82 4.48 5.08.56 9.88 1.1 14.06 3.23.26.13 1.02.52 1.19.88.24.52-.6 1.68-1.91 2.66-8.45 6.25-18.51 9.13-29.17 12.19-8.38 2.4-17.04 4.88-24.82 9.16-2.81 1.55-2.9 3.43-2.7 4.42.38 1.94 2.26 2.7 2.88 2.95 4.7 1.9 9.66 2.49 14.6 2.49 2.7 0 5.4-.17 8.04-.41 11.53-1.02 23.05-3.14 34.2-5.2 12.33-2.27 25.08-4.62 37.48-7.77 4.26-1.08 5.31-3.22 5.45-4.83.2-2.47-1.77-4.18-2.41-4.74-3.29-2.86-7.23-4.55-11.04-6.19-1.79-.77-3.64-1.57-5.35-2.46-1.58-.82-3.52-1.98-4.55-3.68-.74-1.21-1.01-3.09-.05-4.18.53-.6 1.43-.99 2.16-1.26 5.12-1.91 10.76-1.59 16.72-1.25 6.55.38 13.33.77 19.53-2.03.5-.23.89-.65 1.07-1.17s.14-1.09-.12-1.58l-4.77-9.18c-.63-1.23-.58-1.58-.57-1.62 0 0 .08-.11.41-.28 2.11-1.05 4.82-.24 6.66.88 1.67 1.01 3.13 2.41 4.68 3.88.62.59 1.24 1.18 1.88 1.75 13.65 12.23 36.14 13.63 51.21 3.18.53-.37.85-.97.86-1.61s-.29-1.25-.81-1.64c-3.28-2.44-7.34-3.94-11.42-4.22-1.02-.07-2.02-.07-2.99-.07-1.54.01-2.99.01-4.35-.27-1.67-.34-3.62-1.44-3.93-3.06-.36-1.84 1.31-3.92 4.96-6.2.25-.16.45-.36.6-.59 4.12.39 8.22.72 12.26 1.05 7.91.63 16.09 1.29 24.05 2.43 17.65 2.53 35.08 7.56 52.01 12.68-17.53 7.83-37.42 9.55-56.71 11.21-9.44.82-19.21 1.67-28.64 3.21-6.95 1.13-11.06 4.31-11.28 8.72-.11 2.1.74 3.89 1.48 5.47.47.99.91 1.92 1.08 2.81.51 2.68-1.39 5.33-3.49 6.78-2.57 1.76-5.84 2.48-9.01 3.18l-85.62 18.79h18.65l67.83-14.89c3.37-.74 7.2-1.58 10.41-3.78 3.18-2.19 6-6.38 5.16-10.83-.27-1.39-.84-2.6-1.39-3.77-.62-1.32-1.16-2.46-1.11-3.55.18-3.45 6.12-4.69 7.93-4.98 9.29-1.52 18.98-2.36 28.35-3.17 21.36-1.85 43.46-3.76 62.77-13.86.72-.38 1.14-1.15 1.07-1.96-.08-.81-.64-1.49-1.41-1.73-18.61-5.64-37.85-11.47-57.52-14.29-8.07-1.16-16.32-1.82-24.29-2.46-9.94-.8-20.23-1.62-30.16-3.42-11.56-2.09-22.99-5.57-34.16-9.28 25.87 2.83 51.97 4.96 77.37 7.02 42.63 3.45 86.72 7.03 129.61 13.97 14.72 2.38 30.22 5.32 43.58 12.71 1.59.88 1.73 1.38 1.73 1.51.02.35-.87 1.07-2.84 1.52-10.17 2.31-20.61 4.39-30.7 6.4-25.8 5.14-52.48 10.46-77.47 20.08-3.34 1.28-5.05 3.12-5.1 5.46-.06 3.28 3.3 5 4.41 5.56 15.22 7.79 31.29 13.74 47.89 17.74h19.3c-2.36-.56-4.75-1.02-7.12-1.48l-1.77-.33c-19.66-3.81-38.66-10.37-56.48-19.49-2.02-1.03-2.23-1.69-2.23-1.92.01-.41.68-1.09 2.54-1.81 24.67-9.49 51.18-14.78 76.81-19.89 10.12-2.01 20.58-4.1 30.81-6.42 3.9-.88 6.07-2.93 5.95-5.6-.13-2.8-2.79-4.28-3.8-4.83-13.92-7.7-29.8-10.72-44.87-13.16-43.05-6.97-87.22-10.55-129.93-14.01-21.86-1.77-44.25-3.6-66.54-5.87 16.37-2.59 32.52-7.06 48.24-11.43 25.17-6.98 51.19-14.2 77.43-13.34 6.48.21 13.1.92 19.51 1.6 9.55 1.03 19.36 2.07 29.12 1.54-2.77 1.89-5.28 4.19-7.37 6.81-.56.71-.58 1.71-.04 2.43 1.9 2.57 4.98 3.36 8.03 3.83 7.73 1.2 15.64 1.53 23.29 1.85 9.33.39 18.97.79 28.14 2.78.8.17 1.2.38 1.38.5-.18.18-.58.48-1.33.8-4.84 2.03-9.88 3.67-15 4.85l-.3.07c-1.79.41-3.82.87-5.57 2.09-2.41 1.67-3.58 4.54-2.85 6.97.62 2.06 2.33 3.31 3.74 4.18 8.61 5.24 18.92 5.76 27.91 5.83.77 0 1.54.01 2.31.01 7.4 0 14.87-.28 22.24-.84 1.64-.13 6.63-.5 7.93-4.51 1.25-3.87-2.08-7.05-5.62-8.74-5.16-2.47-10.67-4.08-16.35-4.81-.5-.06-.99-.13-1.45-.21 4.17-.87 8.86-.13 13.4.88l1.45.32c5.93 1.34 12.06 2.72 18.13 1.09.59-.16 2.36-.64 3.06-2.3.58-1.41.03-2.77-.18-3.29-.22-.55-.49-1.12-.75-1.7-1.04-2.25-1.67-3.82-1.07-4.97.29-.54.83-.79 1.25-.91.9-.26 2.01-.13 2.83.34 1.83 1.06 2.96 3.33 3.74 5.18.17.41.33.82.5 1.23.86 2.13 1.74 4.33 3.36 6.22 4.5 5.26 12.06 5.15 16.17 4.61 6.63-.86 11.18-3.91 12.47-8.38 1.76-6.09-3.16-11.76-8.82-14.67-3.63-1.88-7.53-3.1-11.29-4.28-3.38-1.06-6.57-2.06-9.62-3.5-1.49-.71-3.28-1.71-3.94-3.22-.58-1.33.61-5.16 4.59-10.72.07-.11.14-.22.19-.33 4.2-.68 8.35-1.74 12.38-3.36 2.87-1.16 5.7-2.6 8.43-4 3.85-1.96 7.57-3.85 11.34-4.98v-4.15c-1.77.46-3.51 1.07-5.21 1.78-15.69-15.74-29.74-33.21-41.86-51.95l27.36-10.47c.67-.26 1.37-.53 1.93-.54zm-248.08-121.79c12.84-16.74 25.15-35.41 29.93-57.04.62-2.8 1.32-5.97 3.41-7.12 1.22-.67 2.95-.65 4.48-.62l92.57 1.4c2.91.04 5.78.32 7.05 2.04.97 1.32.93 3.41.8 5.43-.15 2.25-.33 4.5-.51 6.76-.8 9.86-1.62 20.05.71 29.91 2.91 12.35 10.4 22.75 17.64 32.81 3.63 5.05 7.39 10.27 10.49 15.64.12.21.23.43.35.64-.88.29-1.67.8-2.35 1.52-2.44 2.61-2.81 7.37-2.39 10.66l2.45 19.11c.23 1.87.37 4.12-.72 5-.94.75-2.7.22-3.65-.76-1.24-1.28-1.84-3.21-2.44-5.42-4.13-15.2-7.2-30.82-9.14-46.45-.12-1-.98-1.76-1.98-1.76-.01 0-.01 0-.02 0-.09 0-.18 0-.27.02-.34.01-.65.05-.95.13-2.78.67-3.9 3.57-4.75 5.76-.59 1.51-1.2 3.08-2.12 3.81-.55.44-1.26.56-2.11.36-1.42-.34-2.85-1.52-3.49-2.87-.97-2.07-1.04-4.53-1.11-7.14-.02-.86-.04-1.72-.1-2.58-.34-5.26-2.35-9.06-5.67-10.69-.63-.31-1.37-.27-1.96.1-6.79 4.32-7.92 13.34-8.14 20.72-.61 19.8.24 39.82 2.5 59.5l.11.93c1.28 11.06 2.61 22.49-2.66 31.62-.5.88-1.2 1.94-2.09 2.31-1.32.54-3.08-.59-3.84-1.95-1.04-1.82-1.11-4.28-1.18-6.45-.85-27.88-1.49-56.18-1.91-84.11-.08-5.48-.17-11.68-2.73-17.19-.37-.78-1.19-1.24-2.05-1.14-4.08.48-6.36 4.09-8.37 7.27-2.22 3.52-3.47 5.14-5.32 4.81-2.95-.54-3.1-6.16-3.07-7.87l.34-22.46c.02-1.03-.74-1.89-1.75-2.02-4.7-.58-8.65 2.79-10.49 6.38-1.68 3.28-2.07 6.86-2.45 10.32l-.08.7c-2 18.16-7 35.74-14.84 52.24l-.53 1.13c-2.27 4.73-4.61 9.62-4.56 15.09.06 6.37 4.62 13.22 11.31 13.28.88.01 1.69-.1 2.49-.2 1.23-.16 2.29-.3 3.09.04 2.06.85 1.99 4.74 1.77 6.99l-8.93 88.37c-.22 2.26-.48 4.82-1.72 6.63-.93 1.36-2.92 2.33-4.2 1.59-1.35-.79-1.69-3.16-1.83-4.87-1.15-14.45 1.48-29.14 4.01-43.35 1.72-9.62 3.5-19.57 4.14-29.49.27-4.25.13-10.27-4.25-13.45-2.78-2.03-6.16-2.04-9.14-2.04-2.09-.01-4.06-.01-5.73-.62-2.92-1.07-5.2-4.3-5.8-8.24-.59-3.89.25-7.96 1.07-11.89l5.12-24.57c.24-1.16.61-2.92-.24-4.59-1.35-2.63-4.78-3.11-7.15-1.91-2 1.02-3.21 2.85-4.18 4.49-3.53 5.93-6.29 12.3-8.2 18.93l-.36 1.29c-.99 3.51-1.92 6.83-4.18 9.08-1.72 1.72-4.13 2.69-6.68 3.72-1.54.62-3.13 1.26-4.64 2.1-4.48 2.49-7.69 6.39-10.8 10.16-1.77 2.15-3.6 4.38-5.61 6.23-3.45 3.21-7.56 5.53-11.91 7.98-2.2 1.24-4.48 2.52-6.65 3.93-6.62 4.27-12.39 9.75-17.98 15.05-6.82 6.47-13.26 12.59-21.17 16.81-2.06 1.09-4.65 1.84-5.77.65-1.39-1.47.56-4.66 2.21-6.44 6.52-7.04 14.09-12.93 22.51-17.53.59-.32 1.19-.64 1.79-.96 3.9-2.07 7.93-4.21 10.82-7.83 1.68-2.11 2.79-4.5 3.86-6.81.25-.53.5-1.07.75-1.6 4.25-8.83 10.65-16.59 18.51-22.44 2.19-1.63 4.56-3.16 6.86-4.65 5.39-3.48 10.96-7.08 15.02-12.35 3.21-4.17 5.2-9.03 7.11-13.72 1.72-4.21 3.34-8.19 5.78-11.71 2.14-3.1 4.85-5.74 7.71-8.53 2.86-2.8 5.83-5.69 8.19-9.11 5.16-7.45 6.19-18.82-1.13-24.21-.73-.54-1.73-.52-2.44.05l-22.45 18.08c-2.06 1.66-3.93 3.04-5.9 3.1-2.62.06-4.8-2.31-5.65-4.7-.98-2.73-.8-5.8-.47-9.22zm-32.85 251.66c4.14.75 8.32 1.33 12.5 1.81-2.18 1.85-4.39 4.64-3.7 8.17.59 3.02 3.36 5.46 7.05 6.21 1.77.36 3.49.36 5.17.35.94 0 1.83 0 2.7.06 2.32.16 4.63.8 6.72 1.85-13.49 7.59-32.06 5.83-43.62-4.53-.6-.54-1.19-1.1-1.78-1.66-1.63-1.56-3.32-3.17-5.36-4.41-3.57-2.17-7.51-2.55-10.53-1.03-.94.47-1.61 1.06-2.05 1.79-1.29 2.16-.07 4.52.45 5.53l3.74 7.19c-4.8 1.56-10.1 1.25-15.67.93h-.06c-6.09-.35-12.4-.71-18.29 1.49-1.17.44-2.65 1.1-3.76 2.37-2.02 2.29-2.17 5.95-.36 8.9 1.54 2.54 4.07 4.08 6.11 5.15 1.84.96 3.76 1.79 5.62 2.59 3.69 1.58 7.18 3.08 9.99 5.53 1.04.89 1.05 1.33 1.05 1.39-.02.27-.69.84-2.44 1.28-12.28 3.12-24.96 5.46-37.23 7.72-11.05 2.04-22.48 4.14-33.83 5.15-6.96.61-14.29.82-20.78-1.81.07-.05.15-.1.25-.16 7.38-4.06 15.83-6.48 24-8.82 10.52-3.01 21.41-6.13 30.44-12.82 3.11-2.31 4.29-5.14 3.15-7.57-.66-1.41-1.94-2.21-2.99-2.74-4.83-2.47-10.23-3.07-15.44-3.65-4.45-.5-8.71-.97-12.46-2.53 5.46-3.76 11.86-5.98 18.57-8.31 4.62-1.6 9.4-3.25 13.86-5.47 2.74-1.35 4.05-3.42 3.51-5.52-.47-1.82-2.17-2.71-2.89-3.09-7.97-4.19-16.77-6.37-25.28-8.48-3.07-.76-6.25-1.55-9.32-2.41-.43-.13-.73-.25-.94-.36.19-.11.47-.23.88-.37 18.07-5.82 37.59-7.77 56.45-5.62.54.06 1.06-.1 1.45-.42 3.53 1.17 7.03 2.37 10.5 3.55 14.42 4.92 29.33 10 44.62 12.77zm264.02-34.31c3.29 1.55 6.76 2.64 10.12 3.7 3.77 1.18 7.33 2.3 10.66 4.01 4.06 2.1 7.93 6.12 6.8 10.01-1.2 4.18-7.3 5.29-9.14 5.53-2.66.34-9.21.72-12.62-3.26-1.18-1.38-1.91-3.19-2.68-5.1-.18-.43-.35-.86-.53-1.28-1.02-2.44-2.56-5.44-5.42-7.1-1.77-1.02-3.99-1.29-5.95-.72-1.63.47-2.94 1.5-3.67 2.89-1.56 2.98-.16 6.04.98 8.5.23.52.47 1.03.68 1.54.02.05.03.09.05.14-.07.02-.16.05-.26.07-5.13 1.38-10.76.11-16.22-1.12l-1.47-.33c-6.69-1.48-13.72-2.41-19.83.79-.97.51-1.35 1.7-.86 2.67 1.51 3 5.04 3.45 7.38 3.75 5.25.67 10.35 2.17 15.13 4.45 2.07.98 3.94 2.64 3.53 3.9-.39 1.2-2.62 1.61-4.42 1.75-8.03.61-16.17.88-24.22.82-8.45-.07-18.12-.53-25.86-5.25-.74-.45-1.76-1.15-1.99-1.91-.26-.85.46-1.95 1.3-2.54 1.11-.77 2.6-1.11 4.18-1.47l.31-.07c5.34-1.24 10.61-2.94 15.65-5.07 3.69-1.55 3.99-3.79 3.84-4.98-.17-1.36-1.1-3.15-4.59-3.91-9.51-2.06-19.33-2.47-28.82-2.87-7.54-.31-15.34-.64-22.85-1.8-1.56-.24-3.12-.57-4.26-1.24 4.43-4.88 10.54-8.27 17.03-9.4.53-.09.98-.39 1.27-.79 5.66-1.38 11.19-3.21 16.59-5 7.82-2.59 15.9-5.28 24.08-6.45 9.31-1.34 19.12-.8 28.61-.27 8.21.45 16.58.91 24.79.17-3.32 5.26-4.41 9.29-3.23 12 1.19 2.73 3.78 4.23 5.91 5.24zm25.59-30.84c-1.36.66-2.71 1.34-4.06 2.03-2.65 1.35-5.4 2.75-8.1 3.85-12.67 5.11-26.28 4.35-40.68 3.55-9.68-.53-19.69-1.09-29.4.31-8.53 1.23-16.78 3.97-24.77 6.61-7.78 2.59-15.83 5.26-23.98 6.44-11.62 1.69-23.67.4-35.32-.84-6.48-.7-13.17-1.41-19.8-1.63-26.85-.87-53.17 6.43-78.63 13.49-19.94 5.53-40.57 11.26-61.29 12.99-.52.04-.97.29-1.3.64-4.01-.45-8.02-.92-12.01-1.41-.31-.04-.61 0-.88.09-11.52-3.87-23.33-7.59-35.37-9.93-5.04-.98-10.2-1.73-15.18-2.46-8.6-1.25-17.49-2.54-25.87-5.04-6.86-2.04-13.62-4.95-20.14-7.77-7.55-3.26-15.36-6.63-23.51-8.75-6.87-1.79-13.91-2.65-20.96-2.94 27.19-10.66 55.43-28.35 77.04-48.46 1.41-1.31 2.81-2.64 4.21-3.98 6.8-6.48 13.83-13.18 22.22-17.22 2.87-1.39 5.99-2.5 9.01-3.57 3.34-1.19 6.8-2.42 10.08-4.06 11.46-5.76 19.8-16.11 27.17-25.24 21.14-26.22 43-53.32 64.56-80.28 1.96-2.46 3.96-4.96 5.97-7.5.07 1.75.33 3.46.93 5.14 1.29 3.63 4.83 7.47 9.54 7.34 3.48-.1 6.26-2.34 8.29-3.97l21.14-17.02c3.93 4.23 2.87 12.24-.91 17.7-2.15 3.1-4.85 5.74-7.71 8.53-2.87 2.8-5.84 5.69-8.2 9.11-2.69 3.88-4.47 8.25-6.19 12.48-1.9 4.65-3.69 9.05-6.58 12.79-3.64 4.72-8.68 7.98-14.02 11.43-2.35 1.52-4.78 3.09-7.07 4.8-8.39 6.23-15.21 14.5-19.74 23.92-.26.55-.51 1.1-.77 1.65-1.01 2.19-1.97 4.26-3.36 5.99-2.37 2.97-5.87 4.83-9.57 6.8-.61.33-1.22.65-1.82.98-8.81 4.8-16.72 10.97-23.53 18.33-3.06 3.3-5.48 8.4-2.2 11.89 2.3 2.44 6.15 2.49 10.57.13 8.39-4.47 15.33-11.06 22.05-17.43 5.45-5.17 11.09-10.52 17.39-14.59 2.07-1.34 4.3-2.6 6.45-3.81 4.35-2.45 8.86-4.99 12.67-8.52 2.19-2.04 4.11-4.37 5.97-6.62 3-3.65 5.84-7.09 9.66-9.22 1.29-.72 2.7-1.28 4.19-1.88 2.8-1.14 5.7-2.3 8.01-4.6 3-2.99 4.12-6.97 5.2-10.83l.35-1.26c1.82-6.31 4.44-12.36 7.79-18 .72-1.2 1.51-2.43 2.56-2.96.66-.34 1.6-.19 1.78.16.2.41 0 1.38-.12 1.96l-5.11 24.56c-.85 4.09-1.82 8.71-1.11 13.31.65 4.27 3.19 9.5 8.38 11.39 2.33.85 4.75.86 7.09.87 2.6 0 5.06.01 6.8 1.27 2.12 1.54 2.94 4.71 2.61 9.96-.62 9.7-2.38 19.54-4.08 29.05-2.59 14.45-5.26 29.4-4.07 44.37.14 1.66.49 6.08 3.82 8.01.96.55 1.98.8 3 .8 2.56 0 5.1-1.55 6.5-3.59 1.81-2.66 2.14-5.89 2.4-8.48l8.92-88.38c.61-5.95-.81-9.68-4.21-11.09-1.79-.74-3.56-.51-5.13-.31-.03 0-.06.01-.09.01-.67.09-1.3.17-1.85.16-4.28-.04-7.31-4.94-7.35-9.32-.04-4.54 2.1-9.01 4.17-13.33l.54-1.13c8.03-16.91 13.14-34.91 15.2-53.52l.08-.71c.35-3.24.68-6.3 2.02-8.92.91-1.78 2.64-3.56 4.66-4.11l-.31 20.32c-.1 6.79 2.22 11.12 6.36 11.86 4.72.85 7.32-3.28 9.42-6.6 1.3-2.07 2.55-4.05 4.07-4.95 1.55 4.34 1.62 9.21 1.69 13.93.42 27.95 1.07 56.27 1.92 84.17.07 2.5.17 5.61 1.68 8.3 1.65 2.91 5.41 5.09 8.85 3.68 2.01-.83 3.22-2.58 4.04-4.01 5.92-10.27 4.46-22.92 3.17-34.08l-.11-.92c-2.25-19.49-3.08-39.32-2.48-58.93.19-6.31.99-13.15 5.27-16.72 1.97 1.75 2.41 5.19 2.51 6.73.05.8.07 1.61.09 2.43.08 2.9.16 5.9 1.49 8.73 1.16 2.46 3.59 4.44 6.19 5.06 2.03.48 3.99.08 5.51-1.11 1.78-1.41 2.62-3.59 3.37-5.51.27-.69.5-1.25.71-1.71 1.97 14.68 4.93 29.34 8.81 43.62.58 2.13 1.37 5.04 3.44 7.16 2.19 2.25 6.26 3.31 9.02 1.08 2.97-2.4 2.41-6.76 2.17-8.62l-2.44-19.11c-.38-3 .19-6.18 1.34-7.42.4-.42.81-.58 1.39-.55h.03c4.45 8.72 7.74 18.15 10.93 27.32 1.07 3.09 2.18 6.28 3.32 9.4 7.86 21.55 18.11 42.32 30.41 61.79.02.19.05.38.12.56.17.45.49.79.87 1.01 12.2 19.05 26.37 36.84 42.2 52.88z"/><path d="m434.88 73.51c-5.52 1.1-10.66 5.59-12.52 10.91-.53 1.5-.79 3.1-.79 4.7 0 3.04.93 6.12 2.7 8.66 2.61 3.74 6.95 6.26 11.61 6.74.56.05 1.1.08 1.64.08 1.54 0 3.01-.23 4.39-.69 4.35-1.46 7.4-4.7 8.56-9.13 1.52-5.76-.35-13.05-4.54-17.71-2.84-3.16-6.77-4.42-11.05-3.56zm8.07 6.24c3.29 3.66 4.83 9.55 3.65 14.01-.57 2.18-2.07 5.05-5.96 6.36-1.3.43-2.8.58-4.35.42-3.52-.36-6.79-2.25-8.74-5.05-1.98-2.85-2.52-6.59-1.42-9.76 1.41-3.99 5.4-7.47 9.53-8.3 2.01-.41 4.91-.33 7.29 2.32z"/><path d="m279.27 47.28c2.49 1.33 5.29 1.73 7.72 2 .26.03.81.09.93.16.11.14.21.74.27 1.1.05.3.1.6.17.89 1.08 4.73 6.04 6.89 9.95 7.3.67.07 1.35.11 2.02.11 6.97 0 13.68-3.72 17.16-9.66 3.87-6.62 3.14-15.59-1.74-21.33-4.61-5.42-11.87-7.93-19.91-6.88-9.01 1.18-17.04 6.57-20.46 13.73-.6 1.27-1.39 3.2-1.24 5.32.2 2.89 2.16 5.67 5.13 7.26zm-.28-10.85c2.85-5.98 9.67-10.49 17.37-11.49 1.02-.13 2.03-.2 3.02-.2 5.43 0 10.18 2.01 13.33 5.7 3.81 4.49 4.37 11.52 1.32 16.72-2.98 5.1-9.27 8.22-15.31 7.59-2.8-.29-5.89-1.71-6.46-4.21-.05-.22-.08-.44-.12-.66-.17-1.03-.41-2.44-1.6-3.46-1.02-.88-2.28-1.02-3.11-1.11-2.16-.24-4.41-.56-6.27-1.55-1.74-.94-2.93-2.51-3.03-4.01-.06-.9.21-1.96.86-3.32z"/></svg>