<svg id="Capa_1" enable-background="new 0 0 512 512" height="512" viewBox="0 0 512 512" width="512" xmlns="http://www.w3.org/2000/svg"><path d="m462.3 153.139c-1.28-.76-2.87-1.71-4.759-1.93-3.179-.38-6.019 1.4-7.908 2.579l-40.452 25.315c3.469-20.256 2.02-39.422-4.279-55.879-8.408-21.946-26.445-40.282-48.27-49.05-29.304-11.758-65.557-5.729-90.222 15.017-12.278 10.328-22.326 24.235-29.874 41.322-7.369 16.657-10.948 33.123-10.638 48.97.52 25.865 11.408 49.6 24.435 69.836l-40.172 21.446-78.565-72.125c-.71-.65-1.65-1.51-2.829-2.09-.14-.07-.29-.14-.44-.2-.61-.25-1.28-.41-2-.43-2.219-.03-3.959 1.26-5.129 2.13-40.354 30.164-81.026 60.888-121.148 91.471l-.01.01v5.029l.01-.01c40.892-31.194 82.384-62.537 123.546-93.291.53-.4 1.05-.79 1.54-1.04-2.899 7.229-6.069 14.427-9.498 21.496-4.289 8.848-9.138 18.886-6.129 28.784 1.85 6.049 6.229 10.548 10.468 14.897 3.749 3.859 7.298 7.498 9.118 12.078 2.08 5.189 1.5 10.738.65 14.477-1.1 4.829-3.189 9.428-5.289 13.757-5.289-.9-10.498-1.36-15.607-1.38-18.396-.07-38.043 5.289-61.798 16.917-7.749 3.789-15.427 7.948-22.865 11.978-7.859 4.269-15.917 8.618-24.135 12.587-.01 0-.01.01-.02.01v4.439c.01 0 .01-.01.02-.01 8.898-4.229 17.587-8.928 26.045-13.517 7.399-4.009 15.047-8.138 22.706-11.888 23.186-11.358 42.282-16.587 60.028-16.517 3.569.01 7.189.25 10.848.71-35.143 12.158-63.208 38.792-80.974 59.698-10.398 12.197-17.976 22.455-23.535 35.503-5.109-1.81-10.148-3.779-15.117-5.949-.01 0-.02-.01-.03-.01v4.359c.01 0 .02.01.03.01 26.505 11.258 54.579 17.316 84.913 22.216-31.324 8.828-60.698 25.105-84.913 46.93-.02.01-.03.03-.05.04v5.429l.05-.05c26.245-24.515 59.059-42.272 93.932-50.57.23-.06.43-.16.62-.28 4.069.62 8.178 1.23 12.338 1.84 8.248 1.2 16.517 2.369 24.795 3.519-31.614 13.297-60.398 33.503-83.614 58.748-3.659 3.969-7.759 8.688-11.538 14.067h4.949c3.169-4.269 6.509-8.068 9.528-11.358 24.385-26.525 55.019-47.38 88.623-60.338 74.765 10.288 150.431 18.656 225.416 24.915l.69.06c32.574 2.719 64.027 5.359 95.631 5.359 16.727.01 33.503-.74 50.49-2.59v-4.009c-48.86 5.349-96.031 1.41-145.792-2.75l-.68-.05c-44.191-3.699-88.623-8.128-132.964-13.237 95.561-6.949 189.443-27.145 279.446-60.128v-4.259c-60.188 22.155-122.136 38.562-185.174 49.09-.09-.07-.19-.14-.31-.2-21.686-11.038-41.582-22.275-60.028-33.923 5.139-5.629 12.658-8.708 24.095-9.958 9.428-1.02 19.166.28 28.584 1.53l1.75.23c19.316 2.56 42.192 5.039 65.377 4.019 27.525-1.21 54.379-7.199 79.825-17.806 2.659-1.11 5.369-2.28 7.998-3.429 12.348-5.379 25.035-10.888 37.893-11.458v-4.039c-13.607.56-26.725 6.279-39.492 11.838-2.609 1.12-5.309 2.3-7.938 3.399-25.015 10.428-51.41 16.307-78.465 17.507-22.875 1-45.531-1.45-64.677-3.989l-1.74-.24c-9.648-1.28-19.636-2.609-29.544-1.53-8.039.87-19.436 3.059-27.065 11.758-4.539-2.909-8.998-5.839-13.357-8.798 14.317-11.178 34.593-16.007 60.378-14.327 9.628.63 19.386 2.04 28.824 3.389 12.558 1.8 25.535 3.659 38.483 3.769 18.936.14 50.05-2.629 101.91-28.374l.36-.18c10.598-5.259 21.486-10.668 32.324-10.548v-3.999c-11.878-.07-23.565 5.739-34.103 10.968l-.36.18c-51.09 25.355-81.614 28.084-100.08 27.954-12.688-.11-25.535-1.95-37.963-3.729-9.518-1.36-19.356-2.779-29.134-3.419-27.385-1.79-48.92 3.589-64.088 15.957-6.949-4.779-13.687-9.638-20.236-14.597-3.849-2.91-7.719-5.899-11.488-8.828l76.995-16.737c.07.29.13.59.21.88.33 1.31.78 3.119 2.09 4.529 1.53 1.65 3.659 2.18 5.539 2.56 10.238 2.04 20.566 2.45 32.034 2.749 1.51.04 3.119.08 4.759.08 2.08 0 4.229-.07 6.359-.28 1.68-.18 3.439-.49 4.899-1.64 1.12-.88 1.79-2.039 2.359-3.169 2.29-4.569 3.429-9.518 4.009-13.987 8.968-2.819 18.276-5.009 27.315-7.108 7.299-1.71 14.847-3.479 22.206-5.579 25.955-7.389 50.41-19.076 75.265-31.404 10.738-5.319 21.796-10.798 33.434-12.328v-4.039c-12.468 1.52-24.015 7.229-35.213 12.788-8.628 4.269-17.207 8.468-25.815 12.438 2.6-6.369 2.81-14.067.5-22.286-1.63-5.769-4.169-11.228-6.619-16.517-1.42-3.049-2.889-6.209-4.139-9.358-1.27-3.179-2.419-6.599-2.279-10.038.21-5.099 3.359-9.858 6.069-13.437 3.539-4.669 7.599-9.088 11.528-13.367 3.119-3.399 6.349-6.909 9.338-10.558 3.709-4.549 7.629-10.078 8.458-16.627.71-5.539-.9-11.558-4.509-16.957-1.53-2.289-3.329-4.319-5.159-6.119 16.927 10.158 32.414 20.296 47.841 31.304 0 .01.01.01.01.01v-4.899s-.01 0-.01-.01c-15.922-11.278-31.969-21.656-49.655-32.124zm-107.149-75.255c20.786 8.358 38.003 25.845 46.021 46.781 8.728 22.805 6.089 46.451 2.319 62.267-5.129 21.616-15.207 41.911-24.375 58.918-2.27 4.209-4.589 8.398-6.949 12.547-5.639.34-11.508.67-17.547.94 14.737-22.085 23.785-47.67 26.145-74.125 2.41-26.954-2.139-54.249-13.167-78.964-4.339-9.708-10.268-21.456-18.936-30.614 2.19.661 4.359 1.4 6.489 2.25zm-18.577 204.809c-1.92-.08-3.739-.15-5.419-.15h-.4c-11.938.08-24.055.01-36.013-.2-4.619-.08-10.378-.18-14.847-2.609-3.489-1.9-6.149-5.089-9.028-8.758-2.24-2.849-4.519-5.819-6.799-8.888 11.298-.64 23.745.28 33.863 1.02 9.398.68 18.826.95 28.115.96 15.267 0 30.124-.73 43.751-1.52-1.19 2.059-2.379 4.109-3.579 6.139-2.619 4.449-5.089 8.338-8.618 10.978-4.899 3.668-13.837 3.308-21.026 3.028zm9.568 4.099c-.92 5.719-1.97 11.478-3.119 17.156-1.08-.1-2.18-.17-3.279-.22 1.4-5.559 2.579-11.218 3.539-16.877.95.001 1.91-.019 2.859-.059zm-47.34-.39c10.648.16 21.386.21 31.984.14 1.7-.02 3.599.06 5.629.14.91.04 1.86.08 2.819.11-.97 5.649-2.17 11.298-3.579 16.837-3.109 0-6.239.1-9.318.21-2.469.08-4.799.17-7.118.19-5.099.05-10.278.16-15.377.31-.29 0-.59.01-.88.02-1.381-5.979-2.771-11.968-4.16-17.957zm.1 18.136c-.97.07-1.92.14-2.859.24-1.22-6.159-2.56-12.367-3.999-18.496.9.03 1.78.05 2.629.06h.01c1.409 6.069 2.809 12.138 4.219 18.196zm41.841-230.843c11.058 8.998 18.196 22.985 23.205 34.183 10.738 24.095 15.187 50.71 12.828 76.974-2.34 26.265-11.428 51.67-26.265 73.465-.26.37-.36.8-.34 1.22-7.529.3-15.277.51-23.126.53 9.108-28.014 15.087-57.069 17.757-86.413 2.2-24.255 1.42-42.451-2.549-58.998-3.669-15.267-10.438-29.814-16.697-42.431 5.109.04 10.198.52 15.187 1.47zm-24.815-1.02c1.73-.18 3.459-.3 5.199-.37 6.399 12.807 13.507 27.734 17.237 43.281 3.849 16.107 4.609 33.913 2.46 57.708-2.68 29.464-8.738 58.648-17.977 86.742-2.769-.02-5.539-.06-8.318-.14.03-.25.02-.51-.05-.77-17.707-67.836-17.237-132.093 1.35-185.812.069-.209.099-.419.099-.639zm-13.477 2.46c3.029-.8 6.099-1.43 9.188-1.9-18.396 54.129-18.796 118.576-1.12 186.542-4.099-.16-8.198-.37-12.298-.66-2.219-.17-4.559-.33-6.969-.49-.02-.04-.03-.09-.06-.13-18.426-31.724-27.944-64.457-27.495-94.661.531-35.632 15.009-68.775 38.754-88.701zm-72.556 104.279c-.29-15.257 3.159-31.164 10.288-47.29 7.309-16.517 16.997-29.934 28.794-39.872 7.269-6.119 15.607-10.888 24.465-14.247-20.786 20.946-33.243 52.329-33.743 85.773-.45 30.244 8.818 62.877 26.795 94.551-8.178-.46-16.937-.7-25.045-.08-.06.01-.11.02-.16.03-15.797-21.967-30.794-49.061-31.394-78.865zm22.636 73.255c4.979 7.449 10.178 14.407 15.187 20.776 3.149 4.019 6.109 7.538 10.268 9.808 3.119 1.69 6.559 2.43 9.888 2.769 1.53 6.409 2.939 12.907 4.209 19.366-.17.03-.33.06-.49.09-.91.2-3.689.8-4.669 3.199-.49 1.2-.34 2.4-.24 3.199.07.59.17 1.18.25 1.77-11.118-4.669-23.825-7.098-37.993-7.268l-35.663-32.743zm-118.887 40.182c1.4-6.159 1.11-11.988-.84-16.857-2.11-5.319-6.099-9.418-9.968-13.387-4.079-4.189-7.938-8.158-9.498-13.277-2.559-8.398 1.93-17.676 5.949-25.955 3.439-7.109 6.659-14.437 9.608-21.786l114.198 104.849c-5.309.16-10.808.61-16.487 1.36-19.126 2.569-37.713 7.948-55.259 15.967-14.687-8.618-29.024-14.397-42.822-17.286 2.039-4.25 4.019-8.779 5.119-13.628zm-114.688 112.697c5.349-12.467 12.708-22.396 22.786-34.223 18.606-21.886 48.681-50.18 86.233-60.698.1-.03.2-.07.29-.11 7.558 1.63 15.287 4.149 23.156 7.559-2.91.89-5.659 2.139-8.118 3.329-40.692 19.576-74.645 52.279-95.761 92.191-9.759-2.279-19.288-4.919-28.586-8.048zm204.6-39.162c28.145 21.306 59.818 40.942 96.631 59.928-35.113 5.639-70.546 9.448-106.199 11.408-.47.02-.88.21-1.21.5-35.223-4.239-70.376-8.888-105.259-13.977-19.556-2.849-38.142-5.769-55.939-9.728 20.756-38.732 53.849-70.456 93.452-89.512 3.589-1.72 7.419-3.449 11.438-3.979.29-.04.55-.14.78-.28 4.149 2.01 8.328 4.259 12.548 6.749.23.21.49.38.78.46 14.257 8.528 27.675 18.916 40.652 28.964 4.028 3.118 8.187 6.347 12.326 9.467zm-13.207-15.207c-11.168-8.628-22.686-17.346-34.863-24.895 16.467-7.238 33.813-12.128 51.65-14.517 23.405-3.129 43.542-1.04 59.838 6.229.19.09.39.13.59.15.81 5.229 1.81 10.438 2.989 15.587zm139.563-23.575c0 .03-.01.05-.01.08-.48 4.409-1.51 9.388-3.759 13.867-.35.71-.75 1.42-1.25 1.81-.62.49-1.59.68-2.839.81-3.559.36-7.299.27-10.608.18-11.278-.3-21.426-.7-31.354-2.67-1.32-.27-2.669-.59-3.389-1.36-.56-.61-.85-1.63-1.14-2.789-1.1-4.329-2.06-8.718-2.889-13.137.05.01.1.02.15.02h.08l57.389-2.169c-.061 1.618-.171 3.428-.381 5.358zm-57.159-7.189c-.25.01-.5.07-.72.17-.52-3.069-1-6.139-1.38-9.208-.05-.36-.12-.96-.03-1.18.03-.08.26-.47 1.81-.8 3.599-.78 7.349-.94 11.528-1.07 5.079-.15 10.218-.25 15.297-.3 2.37-.03 4.839-.11 7.229-.19 2.919-.1 5.879-.21 8.818-.21 3.489 0 6.939.15 10.228.63 2.33.35 4.599 1.46 4.799 9.988zm173.196-153.219c3.069 4.599 4.449 9.658 3.859 14.217-.7 5.559-4.229 10.508-7.589 14.617-2.909 3.559-6.099 7.029-9.178 10.388-3.999 4.339-8.129 8.838-11.778 13.657-3.059 4.039-6.619 9.478-6.879 15.677-.17 4.199 1.2 8.268 2.559 11.688 1.3 3.249 2.79 6.459 4.229 9.568 2.389 5.139 4.859 10.458 6.399 15.917 1.86 6.639 2.889 16.137-2.7 23.945-14.017 6.259-28.145 11.798-42.722 15.957-7.259 2.07-14.767 3.829-22.016 5.529-8.558 1.99-17.376 4.059-25.985 6.679.09-1.24.14-2.42.17-3.489.15-5.379.41-15.197-7.329-17.046 1.21-5.979 2.31-12.058 3.269-18.076 3.639-.51 7.059-1.55 9.738-3.559 4.119-3.079 6.819-7.319 9.668-12.138 4.419-7.478 8.788-15.217 12.967-22.975 9.298-17.236 19.516-37.822 24.745-59.888.29-1.19.54-2.38.79-3.569.23-.04.46-.13.67-.26l42.922-26.855c.88-.55 1.72-1.04 2.52-1.41.12.16.26.32.44.45 5.182 3.788 8.751 7.277 11.231 10.976z"/><path d="m500.132 29.994c4.219-.86 8.268-.79 11.818.11.02 0 .03.01.05.01v-4.099c-.02 0-.03-.01-.05-.01-3.889-.82-8.188-.83-12.608.07-7.349 1.49-13.047 5.039-16.067 9.988-2.419 3.989-3.319 9.178-2.749 15.847.47 5.489 1.67 10.838 3.559 15.977-5.319-1.58-11.088-1.71-16.427-.3-4.119 1.09-7.179 2.949-9.098 5.519-1.74 2.35-2.679 5.449-2.849 9.498-.17 3.689.26 7.448 1.23 11.038-2.279-.3-4.609-.46-6.999-.16-4.169.52-7.678 2.499-9.628 5.429-2.15 3.229-2.24 7.029-1.73 10.838-9.188-2.649-19.386-1.12-27.355 4.269-.47.32-.78.82-.86 1.39-.08.56.09 1.13.46 1.56 2.13 2.509 5.459 2.879 8.418 3.029 21.596 1.11 43.671 2.22 65.767 2.23 8.978 0 17.966-.2 26.935-.65h.03v-3.989h-.03c-23.615 1.19-47.471.53-70.956-.52-.67-.03-1.34-.06-2-.09-6.549-.31-13.068-.63-19.546-.97-1.08-.06-2.17-.14-3.129-.35 6.949-3.529 15.487-4.139 22.815-1.52.41.14.81.3 1.21.46.25.1.5.15.76.15.45 0 .9-.16 1.26-.45.57-.47.84-1.21.71-1.93-.78-4.079-1.38-8.308.57-11.248 1.3-1.95 3.779-3.289 6.799-3.669 2.949-.37 6.059.14 9.068.63.7.11 1.41-.16 1.87-.71.45-.55.57-1.3.32-1.97-1.49-3.989-2.19-8.358-2-12.627.14-3.219.82-5.599 2.07-7.269 1.37-1.83 3.689-3.199 6.909-4.049 5.979-1.58 12.598-.94 18.147 1.78.76.37 1.67.22 2.279-.37.6-.59.77-1.5.42-2.259-2.759-6.029-4.449-12.427-5.009-19.036-.5-5.799.22-10.198 2.18-13.427 3.278-5.391 9.827-7.42 13.436-8.15z"/><path d="m188.963 179.514c.72 0 1.41-.39 1.76-1.04.36-.66.32-1.47-.11-2.1-10.218-14.707-30.344-21.016-47.161-15.247.04-3.269-.95-6.609-2.91-9.678-3.209-5.009-8.518-8.618-14.187-9.658-7.798-1.42-16.497 1.04-24.365 6.799-1.12-8.138-8.598-14.907-16.267-17.067-7.089-2.02-14.417-1.26-21.296.02 9.288-10.298 18.536-21.026 25.765-33.123 5.629-9.418 13.977-27.584 6.619-43.471-4.059-8.768-12.688-15.897-24.275-20.066-14.477-5.199-30.424-5.199-44.911-.01-10.668 3.819-20.146 10.328-27.535 18.756v6.339c7.299-9.648 17.537-17.267 28.874-21.336 13.427-4.799 28.814-4.799 42.212.02 6.129 2.2 17.137 7.468 22.006 17.976 6.589 14.217-1.2 31.004-6.419 39.742-8.088 13.537-18.906 25.465-29.384 37.003-.59.65-.69 1.59-.26 2.35.44.75 1.31 1.14 2.16.95 8.009-1.71 17.097-3.639 25.365-1.3 7.399 2.08 14.607 9.208 13.357 17.087-.13.83.27 1.66 1.01 2.07.74.4 1.66.3 2.29-.26 7.759-6.829 16.627-9.948 24.335-8.538 4.529.82 8.958 3.849 11.538 7.878 2.079 3.259 2.769 6.859 1.93 10.128-.19.74.06 1.53.65 2.02.59.5 1.41.61 2.11.3 14.137-6.369 32.454-2.149 42.842 9.308-61.258-2.16-123.266-3.289-184.634-3.389v3.999c62.778.1 126.205 1.28 188.813 3.539h.078z"/><path d="m128.865 68.916c6.149 1.17 12.657 1.45 18.946 1.73 2.6.11 5.279.23 7.839.41 9.388.65 18.906 1.2 28.304 1.64 15.737.72 32.144 1.32 48.731 1.33 11.398 0 22.895-.28 34.313-1.01.65-.04 1.28-.09 1.94-.23.69-.16 1.28-.39 1.81-.72 4.209-2.579 1.58-9.278.22-11.648-1.89-3.279-5.049-6.089-8.898-7.908-6.789-3.229-14.757-3.669-21.896-1.41.97-3.209 1.09-7.009.32-11.168-2-10.678-8.668-20.526-17.846-26.345-9.188-5.809-20.936-7.618-31.444-4.859-10.758 2.819-19.546 10.388-22.925 19.736-2.74 7.569-1.97 15.907-.9 23.135-13.907-4.799-30.294-2.14-41.822 7.039-.81.64-2.969 2.36-2.909 4.919.068 2.68 2.328 4.629 6.217 5.359zm-.82-7.159c7.039-5.589 16.057-8.518 25.055-8.518 5.489 0 10.968 1.09 15.977 3.329.67.3 1.45.2 2.03-.24.58-.45.87-1.18.76-1.9-1.25-7.858-2.669-16.767.17-24.595 2.939-8.138 10.678-14.737 20.186-17.236 9.448-2.49 20.026-.85 28.285 4.369 8.258 5.229 14.257 14.097 16.047 23.695.61 3.259 1.12 9.298-2.33 13.207-.65.73-.67 1.82-.06 2.579.62.76 1.69.96 2.54.49 7.159-4.029 16.227-4.349 23.655-.82 3.109 1.48 5.649 3.719 7.139 6.299 1.36 2.349 1.99 5.739 1.16 6.249-.15.09-.34.15-.58.21-.38.08-.83.12-1.33.15-27.844 1.77-56.159.89-82.614-.33-9.368-.44-18.856-.98-28.205-1.63-2.619-.18-5.329-.3-7.938-.42-6.159-.27-12.517-.54-18.386-1.66-1.91-.36-2.949-1.05-2.959-1.53-.002-.208.168-.718 1.398-1.698z"/></svg>