<svg id="Capa_1" enable-background="new 0 0 512 512" height="512" viewBox="0 0 512 512" width="512" xmlns="http://www.w3.org/2000/svg"><path d="m512 250.88c-16.24 7.26-32.88 13.53-49.84 18.8-.1-.09-.21-.17-.32-.23l-40.38-23.55c-.51-.3-1.22-.71-2.1-.85-1.88-.31-3.44.73-4.37 1.35-13.27 8.82-27.43 16.44-42.09 22.68-11.37-6.54-22.58-13.35-33.59-20.43-1.99-1.28-4.71-3.03-7.89-2.65-2.1.25-3.77 1.36-5.25 2.35-16.89 11.25-34.58 21.01-52.95 29.28-.18-.26-.41-.48-.7-.64l-69.48-36.74c-.77-.42-1.74-.93-2.94-1.02-1.94-.15-3.57.9-4.64 1.59-21.34 13.76-44.29 25.03-68.22 33.5-8.74-4.26-17.09-9.33-24.96-15.2-1.37-1.02-2.92-2.18-4.96-2.42-2.03-.24-3.84.53-5.28 1.16-30 12.88-60.93 24.48-92.04 34.53v4.22c31.6-10.18 63.02-21.94 93.49-35.03-25.31 30.03-51.55 60.87-82.04 86.51-.29.24-.48.54-.6.87-3.6.99-7.22 1.95-10.85 2.85v4.12c60.07-14.86 117.69-41.92 167.46-78.66-5.43 17.07-14.05 33-26.93 49.81-13.21 17.24-28.5 32.25-43.06 45.89-3.71 3.49-7.61 7.26-11.37 10.9-7.09 6.87-14.42 13.97-21.53 20.13-11.29 3.48-22.65 6.71-34.08 9.7-10.11 2.64-20.28 5.08-30.49 7.34v4.09c64.8-14.24 127.73-36.27 187.27-65.56-9.44 17.6-20.65 37.28-34.89 54.37-25.01 30-59.83 52.27-89.22 70.3h7.63c28.4-17.57 60.81-39.13 84.66-67.74 15.4-18.48 27.25-39.82 37.15-58.41 42.71 32.19 91.42 55.88 138.54 78.8 34.78 16.91 70.42 34.23 107.56 47.35h12.39c-40.94-13.38-80.08-32.42-118.2-50.95-.62-.3-1.25-.61-1.88-.91l13.49-11.37c9.11-7.66 18.52-15.59 27.26-24.02 22.33-21.55 40.62-46.56 54.39-74.34.83.36 1.64 1.01 2.5 1.69 25.12 20.06 53.14 35.63 83.35 46.37v-4.24c-29.28-10.58-56.45-25.77-80.86-45.26-1.22-.97-2.59-2.06-4.33-2.57-.17-.22-.39-.4-.66-.53-.71-.34-1.54-.22-2.12.25-2.4.2-4.61 1.49-6.69 2.84-23.02 14.96-46.43 28.21-70.53 39.94h-.01c-21.65-4.7-42.36-12.16-62.21-21.29 22.56-25.75 40.05-56.42 50.72-88.94.59.32 1.2.7 1.84 1.11 38.6 24.82 79.6 46.48 121.86 64.38 16.54 7.01 34.31 13.89 52.99 17.54v-4.07c-18.05-3.63-35.32-10.33-51.43-17.16-18.42-7.8-36.6-16.32-54.44-25.51 36.48-6.25 72.03-16.99 105.87-31.95zm-310.29-6.82 67.12 35.5c-18.16 7.89-36.96 14.32-56.3 19.21-8.42-5.55-16.66-11.17-24.73-16.76 8-11.01 12.9-24.37 13.91-37.95zm-182.3 102.46c29.34-25.65 54.74-55.78 79.35-84.97 0-.01.01-.02.01-.03.37.25.74.53 1.13.81 14.37 10.72 30.28 18.87 47.35 24.25-39.21 26.18-82.63 46.53-127.84 59.94zm132.1-62.82c-6.55-1.92-12.93-4.25-19.12-6.99 22.85-8.41 44.78-19.33 65.23-32.53.03-.01.05-.03.07-.04-1.01 12.74-5.65 25.26-13.18 35.59-4.31-2.99-8.57-5.97-12.78-8.91-.71-.5-1.66-.48-2.35.04-5.85 4.42-11.81 8.7-17.87 12.84zm268.01 40.85c.59-.38 1.17-.74 1.74-1.06-13.41 26.33-30.98 50.07-52.28 70.62-8.64 8.34-18 16.22-27.05 23.84l-14.86 12.51c-20.88-10.16-42-20.55-62.71-31.8 55.35-18 106.14-42.25 155.16-74.11zm-78.45 39.37c-26.01 12.35-52.84 22.92-80.86 31.9-.2.06-.38.16-.54.28-23.09-12.74-45.59-26.63-66.55-42.62-.61-.47-1.43-.54-2.11-.2-37.79 18.93-76.99 34.89-117.18 47.8 5.04-4.64 10.11-9.54 15.05-14.33 3.93-3.8 7.63-7.39 11.33-10.86 14.68-13.76 30.11-28.91 43.5-46.38 13.8-18.02 22.84-35.1 28.35-53.59 49.32 34.46 104.96 72.81 169.01 88zm-60.26-25.82c-22.32-10.57-43.55-23.2-63.78-36.38 39.7-10.45 77.15-27.26 111.36-50.04.98-.65 1.99-1.32 2.97-1.6-10.63 32.23-28.07 62.6-50.55 88.02zm118.49-54.46c-7.43-3.91-14.79-7.94-22.08-12.08 13.44-5.9 26.44-12.95 38.71-21-1.03 4.4-2.69 8.65-4.34 12.67-2.96 7.2-6.33 14.68-12.03 20.11-.1.09-.19.19-.26.3zm5.73-.31c4.65-5.51 7.62-12.16 10.26-18.58 1.92-4.67 3.85-9.66 4.89-14.97l36.8 21.46c-17.04 5.06-34.39 9.1-51.95 12.09z"/><path d="m346.67 117.74c8.9 5.75 19.22 8.88 29.18 8.88.34 0 .67 0 1-.01 10.96-.23 21.66-4.37 29.36-11.37 4.84-4.39 8.82-10.07 11.81-16.86 3.52-7.98 5.14-16.43 4.7-24.44-.54-9.82-4.23-19.45-10.4-27.11-11.18-13.88-30.31-21.31-47.6-18.47-5.43.89-10.59 2.62-15.32 5.13-11.78 6.26-20.89 17.62-24.36 30.38-3.52 12.94-1.3 27.32 5.93 38.47 3.85 5.93 9.28 11.26 15.7 15.4zm-17.77-52.82c3.18-11.71 11.55-22.14 22.38-27.9 4.35-2.31 9.09-3.89 14.09-4.71 2.25-.37 4.54-.55 6.84-.55 13.92 0 28.15 6.59 36.99 17.57 5.65 7.02 9.03 15.84 9.53 24.83.4 7.38-1.11 15.2-4.37 22.61-2.77 6.28-6.41 11.5-10.84 15.51-6.99 6.35-16.75 10.12-26.75 10.33-9.48.2-19.39-2.72-27.93-8.23-5.95-3.84-10.97-8.75-14.51-14.22-6.63-10.2-8.66-23.38-5.43-35.24z"/></svg>