<svg id="Capa_1" enable-background="new 0 0 512 512" height="512" viewBox="0 0 512 512" width="512" xmlns="http://www.w3.org/2000/svg"><path d="m0 172.349v-.01"/><path d="m512 128.829v-4.7c-29.16-18.05-58.85-35.87-88.43-53.06-3.15-1.83-7.06-4.1-11.44-4.32-6.39-.32-11.79 3.64-16.56 7.13l-.32.24c-21.67 15.87-46.79 27.05-71.07 37.86-16.36 7.28-33.27 14.81-49.11 23.74-.18.1-.32.22-.45.36-3.18-2-6.34-4.06-9.45-6.18-3.36-2.29-6.74-4.72-10-7.08-8.38-6.03-17.05-12.28-26.58-16.94-3.64-1.78-7.43-3.34-11.1-4.86-6.5-2.67-13.21-5.44-18.99-9.42-1.15-.79-2.28-1.64-3.47-2.53-4.79-3.57-9.74-7.26-15.94-7.5-4.58-.18-8.86 1.67-12.62 3.3-28.29 12.2-57.33 23.71-86.31 34.21-.99-2.83-2.29-6.02-4.33-8.76-.3-.4-1.19-1.6-2.74-1.6h-.01c-1.66.01-2.56 1.37-2.85 1.82-2.88 4.39-5.07 9.19-7.01 13.72-.35-.08-.73-.07-1.1.06-5.04 1.74-10.11 3.58-15.08 5.48l-2.93-6.95c-.26-.62-.69-1.66-1.72-2.32-1.29-.84-3.07-.73-4.45.26-.98.71-1.57 1.69-1.99 2.41-2.43 4.08-4.7 8.25-6.84 12.49-9.55 4.01-19.94 7.68-29.11 10.3v4.16c8.28-2.32 17.6-5.5 26.47-9.06-3.93 8.33-7.32 16.92-10.11 25.69-5.56.64-11.03 1.8-16.36 3.47v4.19c7.08-2.33 14.42-3.73 21.9-4.15 4.86-.27 16.56-.05 20.28 7.83.31.66.56 1.37.83 2.13.45 1.28.92 2.6 1.73 3.86 2.03 3.14 5.79 5.14 11.16 5.95 3.2.48 6.47.58 9.63.69 5.31.17 10.34.34 14.96 2.15 3.17 1.23 6 3.19 9 5.26 3.1 2.15 6.32 4.37 10 5.77 8.8 3.35 18.04 1.41 26.98-.46 4.14-.87 8.43-1.77 12.55-2.1 8.7-.7 17.74 1.19 25.43 5.32 1.34.72 2.71 1.54 4.02 2.33 3.74 2.24 7.61 4.56 12.1 5.42 3.28.63 6.55.4 9.72.18 2.67-.18 5.19-.36 7.66-.04 3.52.44 6.83 1.86 10.34 3.35 1.11.48 2.22.95 3.33 1.39 5.82 2.31 12.05 3.85 18.07 5.34 10.19 2.53 19.86 4.93 27.68 10.7-2.58 1.1-5.76 1.3-9.27 1.4l-192.91 5.8c-.89-2.4-1.81-4.81-2.78-7.2-.19-.46-.4-1-.62-1.58-1.65-4.31-3.92-10.21-8.26-11.4-2.01-.56-4.09-.01-6.16 1.62-4.53 3.57-6.88 9.76-8.95 15.23-.69 1.82-1.35 3.54-2.04 5.06-3.43.02-6.77-.09-10-.21-5.52-.2-10.8-.38-16.38.09v4.02c5.48-.49 10.74-.31 16.23-.11 2.7.1 5.46.2 8.31.22-.48 1.04-.96 2.08-1.44 3.12-2.25 4.87-4.58 9.9-6.75 14.91-4.22 9.77-7.13 17.86-9.15 25.46-.57 2.14-1.17 4.63-1.14 7.18.02 1.74.48 3.23 1.27 4.33-2.43 5.88-4.87 11.78-7.33 17.66v10.36c3.64-8.67 7.27-17.39 10.84-26.06 1.65.08 3.75-.72 6.08-3.83l4-5.37-.16 8.9c-.03 1.65-.07 3.69.69 5.6.98 2.44 3.17 4.07 5.47 4.07h.03c1.24-.01 2.47-.45 3.76-1.36 4.02-2.81 5.64-7.28 7.2-11.61.03-.08.05-.15.08-.23.99 4.86 2.44 9.82 5.24 14.16.74 1.16 1.71 2.45 3.21 3.19.84.42 1.72.6 2.59.6 2.2 0 4.35-1.19 5.68-2.77 1.7-2.02 2.35-4.5 2.88-6.87.39-1.76.74-3.53 1.05-5.32 1.03 2.56 2.44 5.01 4.47 7.06 2.22 2.26 6.07 4.29 9.6 2.59.4-.19.77-.44 1.12-.7l14.64 49.33c.27.88.59 1.97.38 2.7-.1.34-.1.68-.02 1.01-2.04 4.57-4.04 9.27-5.9 14.08-1.35 3.5-2.71 7.24-3.15 11.25-.27 2.51.21 5.15 1.49 7.01-5.85 15.25-11.23 30.86-16.02 46.52h4.18c4.58-14.87 9.69-29.68 15.23-44.18.11.02.22.05.33.07 3.27.5 5.84-2.11 7.08-3.36l8.33-8.47c-.04 1.96.07 3.92.34 5.88.5 3.64 1.93 5.94 4.27 6.82 2.77 1.04 5.85-.28 8.46-3.63 1.22-1.56 2.3-3.25 3.22-5.02l1.32 5.63c.71 2.99 1.44 6.09 2.91 8.98 1.45 2.83 3.7 4.48 5.98 4.48.38 0 .77-.04 1.15-.14 2.69-.68 3.88-3.44 4.33-4.49 2.07-4.8 3.22-9.83 4.02-14.88.68 1.55 1.46 3.07 2.33 4.54.76 1.29 1.66 2.61 3.03 3.52 1.84 1.23 4.1 1.34 5.76.28 2.05-1.32 2.44-3.71 2.54-5.64.2-3.45.12-6.9-.24-10.32 1.79 2.05 3.9 3.87 6.48 5.11 1.81.86 3.98 1.02 5.49.06 8.3 18.1 16.49 36.47 24.44 54.76h4.37c-8.47-19.48-17.2-39.08-26.04-58.34-.23-.49-.63-.85-1.1-1.03-1.27-13.83-7.96-26.2-13.67-35.44-2.12-3.43-4.37-6.84-6.55-10.15-4.61-6.99-9.37-14.23-13.04-21.84l-.17-.35c-1.18-2.46-2.51-5.23-5.08-6.97-2.52-1.72-4.72-1.57-6.11-1.15-5.09 1.55-8.21 9.2-10.27 14.26-.46 1.14-.86 2.12-1.18 2.78-4.49 9.21-8.98 18.6-13.32 27.91-.75 1.61-1.51 3.25-2.27 4.9l-14.95-50.39c-.06-.17-.13-.33-.23-.48.27-.88.46-1.86.58-2.95.8-7.57-.79-15.87-4.87-25.38-1.79-4.18-3.89-8.26-5.92-12.2-1.74-3.39-3.54-6.88-5.12-10.39-1.69-3.76-3.18-7.69-4.62-11.55l191.55-5.75c4.12-.12 9.76-.29 13.9-3.6.46-.37.74-.93.75-1.52.01-.6-.24-1.16-.69-1.55-8.89-7.7-20.4-10.55-31.53-13.31-5.89-1.46-11.98-2.97-17.55-5.18-1.09-.43-2.16-.89-3.24-1.35-3.6-1.54-7.33-3.13-11.41-3.64-2.85-.36-5.69-.17-8.44.02-3.04.21-5.92.41-8.69-.12-3.79-.72-7.19-2.76-10.79-4.92-1.12-.67-2.27-1.36-3.44-2.01 55.95-4.84 112.95-2.3 168.13.17l85.41 3.84c-2.62 6.46-5.24 13-7.77 19.52-4.25 10.98-8.56 22.73-10.48 35-11.35-2.07-23.61 3.09-29.99 12.73-.55.84-1.06 1.7-1.55 2.53-1.26 2.13-2.45 4.14-4.18 5.48-2.94 2.3-7.31 2.49-11.16 2.67-8.27.36-16.28 1.01-23.38 4.83-2.96 1.59-5.57 3.65-8.1 5.65-2.62 2.06-5.09 4.02-7.87 5.45-3.17 1.63-6.62 2.55-10.28 3.51-1.99.53-4.04 1.07-6.05 1.74-4.44 1.48-8.64 3.59-12.71 5.62-3.44 1.72-7 3.51-10.61 4.85-7.45 2.77-15.76 3.95-23.8 5.08-12.68 1.8-25.79 3.65-36.05 11.81-.56.44-.84 1.15-.73 1.86.1.7.57 1.3 1.23 1.56 11.88 4.72 24.85 3.77 37.39 2.86 1.06-.08 2.12-.16 3.17-.23 15.45-1.08 31.12-1.26 46.58-.53 2.22.11 2.76.57 2.89.84.17.36.01 1.09-.16 1.85-.12.57-.26 1.22-.31 1.9-.42 6.44 6.83 9.35 13.16 9.89 7.59.64 15.2.96 22.81.96 13.32 0 26.63-.98 39.8-2.94 3.73-.56 7.5-1.2 11.15-1.82 10.27-1.75 20.85-3.56 31.38-3.55 8.72 0 17.58 1.26 26.15 2.48 3.83.54 7.78 1.11 11.69 1.55 16.34 1.87 32.83 1.86 49.15 0v-4.04c-16.16 1.89-32.5 1.92-48.69.07-3.86-.44-7.79-1-11.58-1.54-8.71-1.24-17.71-2.52-26.72-2.52h-.04c-10.81 0-21.59 1.83-32.01 3.61-3.63.62-7.38 1.25-11.07 1.8-20.39 3.04-41.14 3.69-61.68 1.95-3.4-.29-9.76-1.84-9.51-5.64.03-.38.13-.83.23-1.31.27-1.25.61-2.81-.13-4.4-1.36-2.9-4.97-3.07-6.32-3.13-15.62-.74-31.45-.56-47.05.53-1.05.07-2.12.15-3.18.23-10.8.79-21.93 1.6-32.03-1.35 8.88-5.65 19.68-7.18 31.04-8.79 8.25-1.16 16.78-2.37 24.64-5.29 3.81-1.42 7.47-3.25 11-5.02 3.94-1.97 8.01-4.01 12.19-5.4 1.88-.63 3.87-1.16 5.8-1.67 3.71-.98 7.54-1.99 11.09-3.82 3.13-1.62 5.87-3.78 8.52-5.87 2.5-1.98 4.87-3.84 7.51-5.27 6.36-3.41 13.88-4.01 21.67-4.36 4.23-.19 9.49-.42 13.44-3.5 2.32-1.81 3.77-4.25 5.16-6.6.49-.83.95-1.61 1.45-2.36 5.61-8.48 16.49-12.98 26.46-10.93.26.06.52.12.79.17 1.92.43 4.1.9 6.3.15 1.92-.66 3.25-2.06 4.42-3.29l.46-.48c7.64-7.85 20.5-10.46 30.59-6.2.49.21 1.04.21 1.53.01.5-.2.89-.59 1.09-1.08 2.82-6.77 10.16-11.42 17.49-11.07.55.03 1.1.08 1.65.13 1.85.17 3.75.34 5.72-.21 4.16-1.16 6.49-4.87 8.54-8.13.23-.36.45-.72.67-1.07 7.83-12.19 20.3-17.34 30.56-16.89v-4.04c-11.67-.49-24 5.56-31.94 15.96-1.51-8.16-3.45-16.28-5.77-24.24 12.52-.82 25.17-.81 37.71.01v-4c-12.66-.83-25.44-.83-38.08 0-.28.02-.53.09-.77.21l-.04-.15c-.4-1.29-.78-2.51-1.01-3.75-.05-.27-.15-.51-.29-.73.49-1.98.26-4.11-.04-5.81-1.93-11.06-6.39-21.53-10.06-29.41-1.77-3.79-5.47-10.33-10.43-11.53-2.09-.51-4.19-.01-6.05 1.44-2.42 1.88-3.99 4.96-5.38 7.68-.41.82-.81 1.61-1.22 2.31-1.94 3.41-3.86 6.91-5.69 10.38-1.2 2.28-2.5 4.79-3.77 7.45-1.28 2.67-2.53 5.49-3.67 8.4-1.17 3.02-2.25 6.29-2.17 9.72.02.53.24 1.03.61 1.39-.57 1.39-1.14 2.8-1.71 4.2l-25.81-1.15c-.04-.03-.08-.05-.13-.07-10.63-4.57-21.01-10.07-31.11-15.59 4.84-5.31 8.7-11.64 11.17-18.38 1.74-4.77 2.82-9.77 3.86-14.6 1.03-4.75 2.09-9.65 3.77-14.21 3.73-10.09 10.67-18.81 16.3-25.27.53-.61 1.06-1.22 1.6-1.83 3.43-3.9 6.98-7.93 9.56-12.63 4.77-8.69 5.82-19.31 2.91-28.77 2.55.68 4.99 2.09 7.21 3.38 30.26 17.58 60.64 35.83 90.44 54.3zm-414.31 227.81c4.34-9.29 8.81-18.66 13.29-27.85.38-.77.81-1.82 1.3-3.02 1.56-3.83 4.45-10.95 7.72-11.94.53-.16 1.38-.27 2.71.63 1.67 1.13 2.66 3.2 3.71 5.39l.18.36c3.78 7.85 8.62 15.2 13.3 22.3 2.16 3.28 4.39 6.67 6.48 10.05 5.53 8.94 12.01 20.89 13.13 34.02.01.11.03.42.03.58-.28.05-.89-.02-1.52-.32-4.21-2.01-7.03-6.23-10.01-11.12-.52-.84-1.57-1.19-2.48-.8-.91.38-1.41 1.36-1.17 2.32 1.48 5.95 2.05 12.07 1.71 18.2-.08 1.4-.32 2.24-.71 2.49-.29.19-.91.08-1.38-.23-.67-.45-1.2-1.22-1.81-2.24-2.21-3.75-3.77-7.82-4.62-12.09-.19-.97-1.06-1.65-2.04-1.61-.99.04-1.79.79-1.91 1.76-.9 7.69-1.83 15.63-4.89 22.74-.58 1.32-1.13 2.06-1.64 2.19-.78.2-1.93-1-2.58-2.28-1.26-2.46-1.93-5.32-2.58-8.08l-2.78-11.81c-.21-.89-1-1.52-1.91-1.54h-.04c-.89 0-1.68.59-1.93 1.46-.98 3.5-2.69 6.87-4.93 9.74-1.06 1.36-2.72 2.79-3.9 2.35-1.12-.43-1.56-2.45-1.72-3.62-.47-3.47-.4-6.98.22-10.42.15-.86-.27-1.73-1.05-2.13s-1.73-.25-2.34.37l-12.31 12.5c-1.17 1.19-2.52 2.38-3.62 2.22-1.54-.24-2.06-3.07-1.84-5.03.39-3.53 1.65-7 2.9-10.25 3.41-8.82 7.32-17.33 11.03-25.29zm-40.05-96.94c1.62 3.6 3.45 7.15 5.21 10.58 2 3.88 4.07 7.9 5.8 11.95 3.8 8.86 5.3 16.51 4.57 23.38-.19 1.82-.74 4.14-2.24 4.86-1.51.73-3.67-.42-5.03-1.8-3.79-3.83-5.04-9.91-6.06-14.79-.2-.98-1.09-1.65-2.07-1.59-.99.05-1.79.83-1.88 1.82-.42 4.95-1.19 9.92-2.26 14.77-.42 1.88-.92 3.83-2.03 5.15-.82.97-2.36 1.7-3.43 1.17-.63-.32-1.18-1.07-1.63-1.77-3.64-5.67-4.79-12.9-5.81-19.29-.13-.84-.78-1.5-1.61-1.65-.12-.03-.24-.04-.36-.04-.71 0-1.38.38-1.74 1.01-1.24 2.17-2.09 4.55-2.92 6.84-1.42 3.91-2.75 7.61-5.73 9.69-.6.42-1.1.64-1.49.64-.01 0-.01 0-.01 0-.64 0-1.4-.67-1.75-1.56-.47-1.16-.44-2.62-.41-4.03l.27-15.12c.02-.87-.53-1.65-1.35-1.93s-1.73 0-2.25.7l-7.72 10.35c-.86 1.14-1.71 1.92-2.33 2.14-.2-.24-.46-.45-.78-.58-.09-.04-.18-.06-.28-.09-.15-.41-.25-.97-.26-1.58-.03-2.05.48-4.14 1.01-6.11 1.97-7.41 4.81-15.32 8.96-24.9 2.15-4.97 4.46-9.97 6.7-14.82 1.1-2.37 2.19-4.74 3.28-7.11.75-1.65 1.43-3.44 2.15-5.34 1.88-4.98 4.02-10.63 7.68-13.51 1.54-1.21 2.36-.98 2.63-.91 2.39.66 4.47 6.08 5.59 8.99.23.6.45 1.16.65 1.66 1.25 3.06 2.42 6.22 3.56 9.28 1.66 4.47 3.37 9.09 5.37 13.54zm371.59-69.91c2.19-5.65 4.89-10.97 7.25-15.43 1.81-3.44 3.7-6.89 5.63-10.26.43-.76.86-1.61 1.31-2.49 1.19-2.34 2.55-5 4.26-6.33 1.19-.93 2.09-.85 2.65-.71 2.83.68 5.86 5.26 7.75 9.32 3.57 7.66 7.9 17.81 9.75 28.42.51 2.9.27 4.75-.72 5.65-1.21 1.08-3.52.48-4.77-.79-1.59-1.62-2.29-4.14-2.86-6.58-.21-.89-1-1.52-1.91-1.54-.9-.03-1.72.58-1.97 1.46l-1.86 6.73c-.42 1.52-.74 1.73-.82 1.76-.07.02-.37-.04-.64-.3-.4-.39-.69-1.01-1-1.82-.85-2.21-1.44-4.52-1.74-6.87-.13-.94-.9-1.67-1.86-1.73-.96-.05-1.82.56-2.06 1.49-.77 2.91-2.14 5.71-3.97 8.09-.94 1.22-1.51 1.48-1.84 1.49-.36-.01-.91-.44-1.16-1-.38-.84-.38-1.93-.32-2.98.1-1.71.34-3.42.73-5.08.21-.89-.22-1.81-1.03-2.23-.29-.15-.61-.22-.92-.22-.56 0-1.11.24-1.5.68-2.13 2.42-4.49 4.68-7.01 6.7-.45.35-.83.61-1.16.78.28-2.1 1.01-4.21 1.79-6.21zm-1.31 10.47c.03-.06.04-.12.05-.17.92-.28 1.96-.82 3.13-1.75 1.1-.89 2.18-1.82 3.22-2.78-.05 1.38.02 2.94.67 4.41.91 2.03 2.83 3.38 4.82 3.38h.1c2.62-.06 4.34-2.31 4.91-3.05.82-1.07 1.56-2.21 2.22-3.4.16.48.33.95.51 1.42.43 1.13.97 2.3 1.95 3.25 1.32 1.29 3.2 1.76 4.77 1.2 2.31-.83 3.02-3.37 3.32-4.46l.17-.63c.47.82 1.04 1.6 1.74 2.3 2.31 2.35 6.33 3.46 9.34 1.63.15.51.3 1 .45 1.49l.08.26c3.18 10.29 5.69 20.88 7.47 31.49-1.59 2.49-3.29 4.88-5.68 5.54-1.27.36-2.73.23-4.29.09-.61-.06-1.22-.11-1.82-.14-8.3-.41-16.63 4.46-20.53 11.76-11.38-3.96-24.79-.89-33.22 7.78l-.49.51c-.95.99-1.84 1.92-2.83 2.26-.5.17-1.06.2-1.66.16 1.85-11.9 6.09-23.45 10.27-34.26 3.68-9.47 7.57-19.04 11.33-28.29zm-366.62-71.41c-2.34 5.75-4.62 11.81-6.9 18.43l-5.81-13.79c4.2-1.6 8.46-3.15 12.71-4.64zm-15.68 47.21c-4.91-9.73-18.34-10.07-23.94-9.76-.33.02-.65.05-.98.08 4.7-14.34 10.97-28.17 18.69-41.14.27-.45.57-.96.88-1.2.06.13.12.28.16.36l12.03 28.6c-.89 2.7-1.79 5.5-2.71 8.4-.63 2.03-1.13 4.11-1.61 6.12-.72 3-1.42 5.89-2.52 8.54zm36.33 13.11c-5.27-2.06-10.87-2.24-16.29-2.42h-.07c-3.03-.1-6.14-.2-9.1-.65-4.18-.63-7.01-2.03-8.39-4.16-.19-.29-.35-.61-.5-.94 2.35-3.92 3.42-8.3 4.43-12.55.47-1.95.95-3.96 1.54-5.85 4.5-14.33 8.72-25.98 13.29-36.68 1.77-4.15 3.76-8.52 6.27-12.49 1.54 2.3 2.56 4.94 3.43 7.47 3.61 10.55 5.37 21.83 7.07 32.73 2.03 13.03 4.13 26.47 6.05 39.82-2.41-1.63-4.94-3.19-7.73-4.28zm5.63-36.15c-1.55-9.97-3.17-20.24-6.19-30.13 29.1-10.54 58.26-22.09 86.66-34.35 2.19-.95 4.43-1.9 6.69-2.47-4.97 5.41-10.34 11.92-12.27 19.8-.88 3.57-1 7.21-1.12 10.73-.07 2.07-.14 4.21-.37 6.25-.76 6.84-3.32 13.37-7.42 18.89-3.42 4.62-7.5 8.32-11.82 12.24-3.2 2.89-6.48 5.88-9.48 9.27-.07-.33-.14-.66-.22-.98-1.78-7.48-4.08-14.84-6.09-21.05-1.5-4.64-3.02-9.18-5.08-13.61-.23-.5-.63-1.35-1.49-1.94-1.23-.83-2.82-.78-4.49.13-4.08 2.24-6.22 6.7-7.78 9.95l-16.79 34.94c-.91-5.94-1.83-11.85-2.74-17.67zm38.07 46.53c-8.76 1.84-17.04 3.57-24.73.64-2.41-.91-4.63-2.25-6.86-3.75.03-.2.04-.4.01-.61-.87-6.11-1.78-12.25-2.71-18.36.17-.16.31-.35.42-.57l18.93-39.42c1.73-3.58 3.37-6.67 6.11-8.17.14-.08.26-.13.35-.17.03.06.06.12.07.16 1.96 4.22 3.44 8.63 4.91 13.15 1.98 6.14 4.25 13.4 6 20.74.96 4 1.78 8.12 2.58 12.11 1.48 7.39 3.02 15.03 5.46 22.36-3.55.44-7.09 1.17-10.54 1.89zm260.09 2.47-50.34-2.26c-56.82-2.55-115.57-5.19-173.28.23-.51.05-.96.3-1.29.66-6.51-2.52-13.6-3.69-20.56-3.36-2.53-7.37-4.1-15.2-5.62-22.78-.42-2.09-.84-4.21-1.29-6.35 3.29-4.17 7.24-7.76 11.07-11.22 4.27-3.87 8.69-7.88 12.35-12.82 4.51-6.09 7.34-13.29 8.18-20.82.25-2.2.32-4.42.39-6.56.12-3.47.23-6.75 1-9.92 1.97-8.06 8.11-14.62 13.53-20.41.19-.21.33-.45.42-.7 4.39.65 8.26 3.53 12.33 6.57 1.17.87 2.38 1.78 3.6 2.61 6.13 4.23 13.04 7.08 19.73 9.83 3.62 1.49 7.35 3.03 10.87 4.75 9.23 4.52 17.75 10.66 26 16.6 3.28 2.37 6.68 4.82 10.09 7.14 13.15 8.95 27.2 16.92 39.22 23.53l55.17 30.35c9.23 5.07 18.7 10.28 28.43 14.93zm22.19-104.02c-2.37 4.31-5.77 8.17-9.05 11.91-.54.61-1.08 1.22-1.62 1.84-5.86 6.73-13.08 15.82-17.03 26.51-1.78 4.82-2.87 9.87-3.93 14.76-1.01 4.7-2.06 9.55-3.71 14.07-2.4 6.56-6.21 12.71-11.01 17.78-.78-.43-1.57-.86-2.34-1.29l-55.18-30.35c-7.94-4.37-16.78-9.34-25.64-14.79 15.28-8.5 31.59-15.78 47.39-22.81 24.47-10.89 49.78-22.16 71.8-38.28l.33-.24c3.86-2.83 7.84-5.75 12.09-6.29 3.2 8.81 2.41 18.96-2.1 27.18z"/><path d="m463.16 378.789h-.06c-8.85.03-16.53 5.2-23.08 10.31-5.6-5.34-12.35-8.85-19.44-9.81-11.25-1.52-21.8 3.31-28.68 7.62-4.39 2.76-8.51 6.01-12.25 9.66-3.21 3.13-6.89 7.85-6.2 12.54.42 2.81 2.28 5.1 5.55 6.81 3.43 1.79 7.63 2.2 11.34 2.56.81.08 1.6.16 2.37.25 4.84.56 9.75.95 14.56 1.32 6 .47 12.11.95 18.26.95 4.27 0 8.56-.23 12.83-.86 2.55-.38 5.51-.97 8.07-2.5 3.01-1.79 4.95-4.67 5.19-7.68.04-.6.02-1.19-.05-1.77 3.69.48 7.41.73 11.12.73 3.06 0 6.11-.16 9.16-.49 2.46-.26 5.06-.66 7.42-1.82 2.87-1.4 4.89-3.73 5.54-6.4.45-1.86.27-3.95-.57-6.38-3-8.72-11.86-15.04-21.08-15.04zm-15.53 30.86c-.14 1.69-1.38 3.44-3.25 4.56-1.95 1.17-4.33 1.64-6.61 1.97-9.95 1.46-20.24.66-30.24-.12-4.72-.37-9.6-.75-14.36-1.31-.79-.09-1.61-.17-2.44-.25-3.51-.34-7.13-.69-9.88-2.13-2.1-1.09-3.22-2.35-3.44-3.85-.34-2.32 1.49-5.63 5.03-9.09 3.54-3.45 7.44-6.52 11.59-9.13 5.52-3.47 13.58-7.29 22.24-7.29 1.25 0 2.51.07 3.77.25 10.96 1.48 21.11 9.92 26.48 22.01.64 1.45 1.22 2.98 1.11 4.38zm33.29-10.38c-.36 1.48-1.63 2.88-3.4 3.75-1.71.83-3.67 1.18-6.1 1.44-7.03.75-14.12.58-21.11-.49-.05-.11-.09-.21-.14-.32-1.93-4.35-4.45-8.27-7.38-11.64 5.96-4.61 12.84-9.2 20.32-9.22h.05c7.57 0 14.84 5.19 17.3 12.34.58 1.68.73 3.04.46 4.14z"/><path d="m218.04 295.199c.51-.61.8-1.29.94-1.97 5.85.4 11.86.79 17.85.78.57 0 1.13 0 1.69-.01 2.27-.02 4.67-.12 7-.91 2.81-.95 4.99-2.83 5.99-5.15.69-1.62.87-3.51.53-5.62-.9-5.47-5.06-10.46-10.6-12.73-4.9-2-10.71-2.02-16.35-.05-4.27 1.49-8.51 4.16-12.61 7.91-3.55-3.93-8.27-6.98-13.59-8.54-9.22-2.7-19.87-1.16-29.22 4.23-.17.1-17.36 10.1-16.42 18.45.22 1.93 1.49 4.55 6.34 6.03 5.59 1.72 12.04 2.23 18.6 2.23 5.04 0 10.14-.3 14.96-.59 2.34-.13 4.6-.27 6.73-.36 4.67-.19 10.07-.53 15.17-2 .72-.21 2.05-.6 2.99-1.7zm8.37-21.88c4.72-1.65 9.52-1.66 13.51-.03 4.29 1.76 7.5 5.55 8.17 9.67.22 1.35.13 2.5-.25 3.4-.55 1.28-1.86 2.36-3.6 2.94-1.78.61-3.82.68-5.77.7-6.56.09-13.26-.35-19.76-.79-.68-3.05-1.97-5.96-3.75-8.6 3.76-3.49 7.61-5.95 11.45-7.29zm-11.42 19.29c-.16.19-.83.38-1.05.45-4.67 1.35-9.59 1.65-14.22 1.85-2.16.09-4.44.22-6.81.36-10.76.64-22.95 1.35-32.15-1.47-1.53-.47-3.38-1.31-3.54-2.66-.4-3.62 8.14-10.91 14.45-14.54 8.41-4.84 17.92-6.24 26.1-3.85 8.89 2.6 15.82 9.95 17.24 18.28.21 1.23.02 1.54-.02 1.58z"/></svg>