<?xml version="1.0" ?><!DOCTYPE svg  PUBLIC '-//W3C//DTD SVG 1.1//EN'  'http://www.w3.org/Graphics/SVG/1.1/DTD/svg11.dtd'><svg enable-background="new 341.798 -70.014 35.701 37.229" height="37.229px" id="Layer_1" version="1.1" viewBox="341.798 -70.014 35.701 37.229" width="35.701px" xml:space="preserve" xmlns="http://www.w3.org/2000/svg" xmlns:xlink="http://www.w3.org/1999/xlink"><g><g><path d="M362.395-42.557c-0.338,0-0.646-0.23-0.729-0.573l-6.141-25.346c-0.055-0.225-0.003-0.46,0.139-0.642    c0.144-0.181,0.359-0.285,0.59-0.285h14.996c0.414,0,0.75,0.336,0.75,0.75c0,0.413-0.336,0.75-0.75,0.75h-14.043l5.916,24.419    c0.099,0.401-0.148,0.809-0.552,0.904C362.513-42.563,362.454-42.557,362.395-42.557z"/></g><g><path d="M364.839-32.784c-0.324,0-0.625-0.213-0.72-0.54l-2.681-9.188c-0.063-0.217-0.025-0.45,0.103-0.637    c0.129-0.187,0.334-0.305,0.561-0.321l11.334-0.873c0.358-0.018,0.655,0.182,0.767,0.504l3.256,9.452    c0.135,0.392-0.073,0.818-0.465,0.953c-0.392,0.139-0.818-0.073-0.953-0.465l-3.066-8.904l-9.835,0.758l2.422,8.303    c0.115,0.397-0.112,0.814-0.511,0.931C364.979-32.794,364.909-32.784,364.839-32.784z"/></g><g><path d="M342.548-33.395c-0.05,0-0.101-0.005-0.149-0.016c-0.406-0.083-0.668-0.479-0.586-0.885l7.161-35.118    c0.07-0.35,0.379-0.601,0.734-0.601h2.61c0.414,0,0.75,0.336,0.75,0.75s-0.336,0.75-0.75,0.75h-1.998l-7.038,34.518    C343.209-33.64,342.897-33.395,342.548-33.395z"/></g><g><path d="M360.869-50.19c-0.354,0-0.671-0.254-0.737-0.616c-0.072-0.407,0.197-0.798,0.604-0.872    c0.342-0.063,0.684-0.139,1.024-0.215c0.79-0.178,1.606-0.36,2.452-0.38c2.418-0.058,4.872-0.045,7.248-0.035    c0.948,0.004,1.896,0.008,2.846,0.008c0.413,0,0.75,0.336,0.75,0.75s-0.337,0.75-0.75,0.75c-0.95,0-1.901-0.004-2.853-0.008    c-2.366-0.01-4.81-0.021-7.207,0.035c-0.697,0.016-1.406,0.175-2.158,0.343c-0.36,0.081-0.724,0.162-1.086,0.229    C360.958-50.194,360.914-50.19,360.869-50.19z"/></g><g><path d="M355.983-42.25c-0.007,0-0.015,0-0.021,0l-10.991-0.307c-0.414-0.012-0.741-0.356-0.729-0.771s0.346-0.737,0.771-0.729    l10.991,0.307c0.414,0.013,0.741,0.356,0.729,0.771C356.721-42.573,356.388-42.25,355.983-42.25z"/></g><g><path d="M359.037-58.741c-0.313,0-0.606-0.198-0.712-0.514c-0.131-0.393,0.082-0.817,0.476-0.948    c0.175-0.058,0.35-0.133,0.522-0.207c0.453-0.191,0.966-0.409,1.53-0.409c0.008,0,0.016,0,0.023,0    c2.13,0.023,4.288,0.108,6.376,0.19l2.194,0.084c0.413,0.015,0.737,0.362,0.723,0.776c-0.015,0.413-0.326,0.736-0.776,0.723    l-2.198-0.084c-2.077-0.082-4.227-0.167-6.335-0.189c-0.002,0-0.005,0-0.008,0c-0.259,0-0.59,0.142-0.942,0.291    c-0.212,0.09-0.425,0.18-0.637,0.25C359.195-58.753,359.115-58.741,359.037-58.741z"/></g><g><path d="M355.984-50.19c-0.018,0-0.033-0.001-0.049-0.002l-9.467-0.61c-0.413-0.026-0.728-0.383-0.699-0.796    c0.025-0.414,0.411-0.726,0.796-0.7l9.466,0.61c0.414,0.025,0.728,0.383,0.7,0.796C356.706-50.495,356.375-50.19,355.984-50.19z"/></g><g><path d="M353.847-33.395c-0.055,0-0.108-0.006-0.163-0.019c-0.405-0.09-0.66-0.489-0.57-0.895l1.832-8.246    c0.09-0.404,0.481-0.658,0.896-0.569c0.404,0.09,0.659,0.49,0.569,0.896l-1.832,8.244C354.5-33.633,354.191-33.395,353.847-33.395    z"/></g><g><path d="M372.167-50.801c-0.334,0-0.639-0.225-0.726-0.563c-0.291-1.135-0.585-2.268-0.88-3.399    c-0.727-2.79-1.476-5.674-2.152-8.529c-0.256-1.075-0.373-2.178-0.487-3.244c-0.05-0.469-0.1-0.938-0.161-1.404    c-0.055-0.411,0.234-0.788,0.646-0.843c0.401-0.059,0.788,0.233,0.842,0.646c0.063,0.479,0.115,0.962,0.167,1.444    c0.113,1.065,0.221,2.072,0.454,3.056c0.674,2.84,1.422,5.717,2.146,8.498c0.295,1.135,0.59,2.27,0.881,3.405    c0.103,0.4-0.14,0.811-0.54,0.912C372.292-50.809,372.23-50.801,372.167-50.801z"/></g><g><path d="M373.388-43.167c-0.371,0-0.693-0.274-0.743-0.652l-0.916-7.023c-0.054-0.41,0.235-0.787,0.646-0.841    c0.398-0.051,0.787,0.235,0.841,0.646l0.916,7.023c0.054,0.41-0.235,0.787-0.646,0.841    C373.453-43.169,373.42-43.167,373.388-43.167z"/></g><g><path d="M348.349-59.046c-0.395,0-0.725-0.308-0.748-0.706c-0.024-0.413,0.291-0.769,0.705-0.793l5.189-0.306    c0.373-0.035,0.769,0.291,0.793,0.705c0.024,0.413-0.291,0.769-0.705,0.793l-5.189,0.306    C348.379-59.046,348.365-59.046,348.349-59.046z"/></g><g><path d="M356.29-42.557c-0.063,0-0.129-0.008-0.192-0.025c-0.4-0.105-0.639-0.518-0.531-0.918l1.221-4.581    c0.107-0.397,0.518-0.64,0.918-0.53c0.4,0.105,0.638,0.518,0.531,0.918l-1.221,4.581C356.924-42.778,356.622-42.557,356.29-42.557    z"/></g></g></svg>