<?xml version="1.0" ?><!DOCTYPE svg  PUBLIC '-//W3C//DTD SVG 1.1//EN'  'http://www.w3.org/Graphics/SVG/1.1/DTD/svg11.dtd'><svg enable-background="new -2.275 -204.136 29.408 37.161" height="37.161px" id="Layer_1" version="1.1" viewBox="-2.275 -204.136 29.408 37.161" width="29.408px" xml:space="preserve" xmlns="http://www.w3.org/2000/svg" xmlns:xlink="http://www.w3.org/1999/xlink"><g><g><path d="M22.667-166.975H2.432c-0.199,0-0.391-0.079-0.531-0.22c-0.244-0.244-0.442-0.419-0.596-0.555    c-0.321-0.282-0.599-0.525-0.662-0.936c-0.227-1.459-0.458-2.918-0.689-4.376c-0.727-4.571-1.478-9.298-2.018-13.979    c-0.375-3.254-0.252-5.932,0.377-8.187c1.011-3.623,4.377-4.743,7.347-5.731l0.251-0.083c0.211-0.069,0.44-0.043,0.626,0.07    l0.47-2.473c0.067-0.354,0.376-0.61,0.737-0.61c0.816,0,1.633-0.021,2.449-0.042c2.043-0.051,4.157-0.106,6.216,0.177    c1.023,0.143,1.773,1.019,2.568,1.945c0.266,0.31,0.539,0.628,0.821,0.918c6.53,2.938,8.429,6.933,6.764,14.116    c-0.598,2.575-0.998,5.259-1.386,7.854c-0.153,1.028-0.308,2.058-0.473,3.082c-0.342,2.12-0.666,4.244-0.959,6.175l-0.339,2.218    C23.352-167.245,23.037-166.975,22.667-166.975z M2.737-168.475h19.285l0.241-1.579c0.295-1.937,0.618-4.063,0.962-6.188    c0.165-1.02,0.316-2.042,0.47-3.063c0.392-2.624,0.797-5.336,1.408-7.971c1.468-6.334,0.021-9.624-5.53-12.231    c-3.418,1.518-10.756,1.742-13.543,0.011c-2.709,0.902-5.483,1.858-6.271,4.677c-0.567,2.035-0.68,4.597-0.331,7.611    c0.535,4.647,1.284,9.358,2.009,13.914c0.225,1.417,0.45,2.835,0.67,4.253c0.049,0.047,0.113,0.101,0.189,0.167    C2.418-168.768,2.565-168.639,2.737-168.475z M7.937-200.292c2.571,0.765,7.372,0.66,10.259-0.292    c-0.121-0.138-0.239-0.274-0.355-0.412c-0.577-0.674-1.175-1.371-1.634-1.435c-1.938-0.267-3.897-0.215-5.972-0.163    c-0.622,0.016-1.244,0.032-1.866,0.039L7.937-200.292z"/></g><g><path d="M7.917-173.199c-1.138,0-2.274-0.71-3.886-1.97c-0.153-0.12-0.254-0.295-0.281-0.488    c-0.185-1.327-0.118-2.703-0.053-4.034c0.166-3.397,0.308-6.331-3.303-8.293c-0.364-0.198-0.499-0.653-0.302-1.019    c0.199-0.364,0.655-0.496,1.019-0.301c4.438,2.413,4.25,6.276,4.084,9.684c-0.057,1.157-0.114,2.352,0.004,3.458    c1.258,0.968,2.179,1.538,2.874,1.452c0.585-0.074,1.252-0.642,2.328-2c-0.075-0.188-0.148-0.378-0.225-0.571    c-0.278-0.72-0.566-1.464-0.937-2.14c-1.034-1.889-1.616-3.404-1.097-4.66c0.53-1.284,2.084-1.972,4.252-2.608    c0.262-0.078,0.547-0.005,0.741,0.188l1.432,1.43c0.158,0.158,0.237,0.378,0.217,0.6l-0.473,5.161    c1.257,0.155,1.911,0.183,2.176-0.109c0.433-0.477,0.64-2.006,0.982-4.539c0.053-0.391,0.397-0.661,0.793-0.647l6.053,0.403    c0.413,0.028,0.726,0.387,0.698,0.799c-0.028,0.413-0.394,0.723-0.8,0.698l-5.354-0.357c-0.729,5.263-1.089,5.729-5.461,5.146    c-0.398-0.053-0.686-0.412-0.648-0.812l0.507-5.529l-0.864-0.864c-1.764,0.549-2.627,1.04-2.865,1.615    c-0.246,0.595,0.061,1.602,1.026,3.367c0.417,0.761,0.724,1.552,1.02,2.316c0.125,0.322,0.247,0.64,0.375,0.941    c0.104,0.249,0.067,0.534-0.097,0.748c-1.326,1.724-2.339,2.753-3.592,2.912C8.146-173.206,8.032-173.199,7.917-173.199z"/></g><g><path d="M-1.08-188.201c-0.405,0-0.738-0.323-0.75-0.731c-0.01-0.414,0.318-0.758,0.732-0.769l4.427-0.107    c2.698-0.066,5.396-0.133,8.094-0.195c3.418-0.077,6.835-0.147,10.253-0.22l4.102-0.086c0.413-0.008,0.757,0.318,0.766,0.733    s-0.319,0.758-0.733,0.767l-4.102,0.086c-3.417,0.072-6.834,0.143-10.251,0.22c-2.697,0.063-5.394,0.128-8.091,0.194l-4.428,0.107    C-1.068-188.201-1.074-188.201-1.08-188.201z"/></g></g></svg>