<?xml version="1.0" ?><!DOCTYPE svg  PUBLIC '-//W3C//DTD SVG 1.1//EN'  'http://www.w3.org/Graphics/SVG/1.1/DTD/svg11.dtd'><svg enable-background="new 63.033 -138.421 35.466 37.535" height="37.535px" id="Layer_1" version="1.1" viewBox="63.033 -138.421 35.466 37.535" width="35.466px" xml:space="preserve" xmlns="http://www.w3.org/2000/svg" xmlns:xlink="http://www.w3.org/1999/xlink"><g><g><path d="M81.798-118.292c-0.344,0-0.653-0.238-0.73-0.587c-0.194-0.873-0.345-1.771-0.491-2.639    c-0.326-1.943-0.635-3.778-1.388-5.408c-1.541-3.335-4.43-3.163-8.085-2.944c-0.355,0.021-0.714,0.042-1.075,0.062v5.577    c0,0.414-0.336,0.75-0.75,0.75s-0.75-0.336-0.75-0.75v-6.296c0-0.404,0.32-0.736,0.725-0.75c0.593-0.021,1.182-0.056,1.761-0.091    c3.724-0.222,7.566-0.451,9.535,3.813c0.839,1.813,1.178,3.834,1.507,5.789c0.143,0.85,0.291,1.728,0.476,2.563    c0.09,0.404-0.165,0.806-0.569,0.896C81.906-118.298,81.852-118.292,81.798-118.292z"/></g><g><path d="M87.295-100.886c-0.414,0-0.75-0.336-0.75-0.75v-3.659c0-0.274,0.15-0.528,0.393-0.659    c4.038-2.191,5.908-5.263,5.716-9.388c-0.021-0.414,0.3-0.765,0.714-0.784c0.412-0.013,0.765,0.3,0.784,0.714    c0.215,4.619-1.784,8.077-6.106,10.558v3.219C88.045-101.222,87.709-100.886,87.295-100.886z"/></g><g><path d="M81.188-100.886c-0.414,0-0.75-0.336-0.75-0.75v-3.657c-3.11-1.62-4.164-4.638-5.186-7.561    c-0.405-1.164-0.825-2.368-1.371-3.448c-0.344-0.684,0.167-1.392,0.708-2.143c0.166-0.23,0.333-0.458,0.45-0.664    c0.206-0.36,0.667-0.483,1.023-0.279c0.359,0.206,0.484,0.664,0.278,1.022c-0.141,0.246-0.337,0.522-0.535,0.798    c-0.158,0.219-0.405,0.563-0.502,0.757c0.547,1.119,0.963,2.309,1.364,3.461c1.007,2.885,1.958,5.609,4.826,6.901    c0.27,0.122,0.442,0.39,0.442,0.685v4.127C81.938-101.222,81.602-100.886,81.188-100.886z"/></g><g><path d="M85.572-109.982c-2.958,0-4.223-1.526-4.798-5.439c-0.037-0.25,0.055-0.5,0.243-0.668l1.615-1.438H76.27    c-0.213,0-0.417-0.092-0.56-0.25c-0.885-0.99-1.148-2.369-1.383-3.584c-0.392-2.04-0.661-3.046-2.322-3.055l-7.945,3.158    c-0.232,0.092-0.493,0.063-0.698-0.076c-0.206-0.14-0.329-0.372-0.329-0.621V-133.7c0-0.257,0.131-0.495,0.348-0.633l0.821-0.52    c0.341-0.216,0.792-0.125,1.021,0.207l1.621,2.353c0.235,0.341,0.15,0.809-0.19,1.043c-0.341,0.235-0.808,0.15-1.043-0.19    l-1.076-1.562v9.943l7.049-2.802c0.083-0.033,0.17-0.052,0.259-0.054c3.099-0.053,3.589,2.333,3.96,4.27    c0.184,0.952,0.372,1.933,0.835,2.618h7.016c0.338,0,0.635,0.227,0.724,0.553l0.187,0.686c0.073,0.274-0.015,0.567-0.227,0.755    l-2.013,1.792c0.519,3.182,1.355,3.969,4.021,3.726l1.465-4.403c0.13-0.394,0.555-0.605,0.947-0.476    c0.394,0.131,0.606,0.555,0.477,0.947l-1.617,4.861c-0.091,0.274-0.332,0.472-0.619,0.507    C86.48-110.016,86.008-109.982,85.572-109.982z"/></g><g><path d="M92.582-114.937c-0.399,0-0.795-0.08-1.159-0.153c-0.373-0.075-0.728-0.146-1.017-0.125    c-3.176,0.243-3.779-1.665-3.951-3.76c-0.135-1.649-0.603-3.262-1.098-4.969c-0.217-0.748-0.435-1.496-0.621-2.245    c-0.023-0.092-0.028-0.184-0.019-0.271c-0.545-0.102-1.09-0.24-1.634-0.424c-0.392-0.133-0.602-0.559-0.469-0.951    c0.133-0.392,0.558-0.603,0.951-0.469c2.104,0.714,4.258,0.642,6.537,0.563c1.193-0.041,2.43-0.083,3.654-0.001    c0.695,0.047,1.41,0.035,2.315,0.023c0.495-0.007,1.044-0.015,1.676-0.015c0.271,0,0.521,0.146,0.654,0.383    c0.132,0.235,0.127,0.525-0.014,0.758l-1.842,3.014c0.03,0.082,0.047,0.17,0.047,0.261c0,0.546,0.021,1.097,0.042,1.647    c0.054,1.411,0.109,2.87-0.184,4.28c-0.285,1.355-2.488,2.142-3.157,2.35C93.061-114.964,92.82-114.937,92.582-114.937z     M90.513-116.718c0.423,0,0.836,0.083,1.207,0.158c0.443,0.089,0.86,0.176,1.132,0.089c1.204-0.375,2.068-0.978,2.136-1.227    c0.256-1.228,0.206-2.532,0.152-3.914c-0.012-0.304-0.023-0.606-0.031-0.909c-0.103-0.05-0.194-0.123-0.267-0.218    c-0.188-0.245-0.208-0.582-0.046-0.849l1.611-2.637c-0.105,0.001-0.21,0.003-0.312,0.004c-0.939,0.013-1.68,0.022-2.436-0.026    c-1.15-0.076-2.348-0.036-3.505,0.003c-1.278,0.044-2.582,0.088-3.889-0.016c0.165,0.633,0.348,1.264,0.53,1.896    c0.494,1.704,1.006,3.466,1.153,5.266c0.167,2.047,0.623,2.516,2.345,2.386C90.367-116.715,90.44-116.718,90.513-116.718z"/></g><g><path d="M94.624-126.843c-0.414,0-0.75-0.336-0.75-0.75v-10.078c0-0.414,0.336-0.75,0.75-0.75s0.75,0.336,0.75,0.75v10.078    C95.374-127.179,95.038-126.843,94.624-126.843z"/></g><g><path d="M87.295-126.843c-0.414,0-0.75-0.336-0.75-0.75v-9.466c0-0.414,0.336-0.75,0.75-0.75s0.75,0.336,0.75,0.75v9.466    C88.045-127.179,87.709-126.843,87.295-126.843z"/></g><g><path d="M66.225-122.872c-0.005,0-0.012,0-0.017,0c-0.414-0.009-0.743-0.352-0.733-0.766c0.016-0.734-0.092-1.506-0.204-2.323    c-0.338-2.453-0.722-5.232,2.304-7.523c0.319-0.243,0.774-0.19,1.03,0.118l1.859,2.242c0.266,0.318,0.222,0.792-0.098,1.057    c-0.318,0.265-0.792,0.221-1.056-0.099l-1.377-1.66c-1.729,1.651-1.473,3.522-1.178,5.661c0.115,0.839,0.235,1.707,0.218,2.561    C66.966-123.198,66.632-122.872,66.225-122.872z"/></g></g></svg>