<?xml version="1.0" ?><!DOCTYPE svg  PUBLIC '-//W3C//DTD SVG 1.1//EN'  'http://www.w3.org/Graphics/SVG/1.1/DTD/svg11.dtd'><svg enable-background="new 274.737 -137.458 36.924 35.611" height="35.611px" id="Layer_1" version="1.1" viewBox="274.737 -137.458 36.924 35.611" width="36.924px" xml:space="preserve" xmlns="http://www.w3.org/2000/svg" xmlns:xlink="http://www.w3.org/1999/xlink"><g><g><path d="M293.808-120.323c-0.387,0-0.714-0.296-0.746-0.688c-0.091-1.088-0.193-2.175-0.296-3.263    c-0.24-2.542-0.488-5.169-0.571-7.771c-0.091-2.839,1.375-4.824,3.923-5.309c1.7-0.324,4.023-0.045,5.453,3.122    c0.196,0.437,0.666,0.833,1.164,1.254c0.265,0.224,0.529,0.449,0.767,0.685c0.293,0.293,0.293,0.769,0,1.062    c-0.292,0.293-0.767,0.294-1.061,0.001c-0.208-0.208-0.441-0.404-0.674-0.602c-0.604-0.51-1.229-1.037-1.563-1.784    c-0.859-1.902-2.03-2.605-3.805-2.264c-2.444,0.465-2.743,2.572-2.704,3.787c0.081,2.555,0.327,5.159,0.563,7.678    c0.104,1.093,0.206,2.187,0.298,3.279c0.033,0.413-0.272,0.775-0.686,0.81C293.85-120.324,293.829-120.323,293.808-120.323z"/></g><g><path d="M292.507-106.271c-3.626,0-7.251-1.3-9.82-3.636c-1.455-1.32-2.557-3.006-3.621-4.635    c-0.469-0.717-0.938-1.435-1.437-2.12c-0.244-0.335-0.17-0.804,0.165-1.048c0.339-0.245,0.807-0.168,1.048,0.165    c0.514,0.705,0.996,1.443,1.479,2.183c1.06,1.621,2.062,3.152,3.373,4.345c3.398,3.088,8.33,3.694,11.707,2.926    c5.902-1.342,10.295-5.158,12.05-10.47c0.129-0.395,0.554-0.605,0.947-0.478c0.394,0.13,0.605,0.555,0.477,0.948    c-1.923,5.822-6.713,10-13.142,11.462C294.677-106.388,293.591-106.271,292.507-106.271z"/></g><g><path d="M296.026-101.847h-5.985c-0.384,0-0.705-0.289-0.746-0.67l-0.506-4.734c-0.044-0.412,0.255-0.781,0.666-0.825    c0.419-0.049,0.781,0.254,0.826,0.666l0.434,4.064h4.427l-0.543-3.25c-0.069-0.409,0.207-0.795,0.614-0.864    c0.41-0.063,0.796,0.207,0.863,0.616l0.689,4.124c0.036,0.217-0.024,0.44-0.167,0.608    C296.455-101.944,296.247-101.847,296.026-101.847z"/></g><g><path d="M275.486-116.964c-0.396,0-0.728-0.311-0.748-0.71c-0.021-0.414,0.296-0.767,0.71-0.789    c1.207-0.063,2.415-0.13,3.622-0.198c2.664-0.147,5.327-0.296,7.992-0.403c5.662-0.229,11.728-0.457,17.725-0.596    c1.436-0.032,2.879,0.066,4.275,0.163c0.629,0.044,1.258,0.087,1.887,0.119c0.413,0.021,0.731,0.373,0.711,0.787    s-0.345,0.732-0.787,0.711c-0.638-0.032-1.275-0.076-1.914-0.121c-1.362-0.095-2.771-0.19-4.137-0.16    c-5.986,0.138-12.044,0.367-17.699,0.595c-2.657,0.106-5.313,0.255-7.969,0.402c-1.209,0.067-2.419,0.136-3.628,0.198    C275.513-116.965,275.5-116.964,275.486-116.964z"/></g><g><path d="M289.84-118.185c-0.253,0-0.5-0.128-0.642-0.359l-2.67-4.372c-0.115-0.188-0.143-0.416-0.073-0.625    s0.226-0.377,0.428-0.46l2.801-1.145c0.353-0.144,0.756-0.001,0.939,0.331l2.1,3.792c0.065-0.056,0.133-0.11,0.198-0.165    c0.665-0.552,1.294-1.071,1.867-1.649c0.583-0.587,1.309-1.238,2.17-1.186c0.602,0.017,1.152,0.319,1.688,0.926    c0.273,0.31,0.245,0.784-0.064,1.059s-0.785,0.246-1.059-0.064c-0.236-0.267-0.451-0.416-0.607-0.42    c-0.315,0.021-0.839,0.519-1.063,0.744c-0.624,0.629-1.313,1.197-1.977,1.747c-0.294,0.243-0.59,0.488-0.881,0.738    c-0.17,0.147-0.396,0.209-0.621,0.17c-0.223-0.04-0.415-0.177-0.523-0.375l-2.218-4.007l-1.365,0.56l2.212,3.62    c0.216,0.354,0.104,0.815-0.25,1.031C290.108-118.22,289.973-118.185,289.84-118.185z"/></g><g><path d="M296.558-118.185c-0.156,0-0.313-0.049-0.448-0.15c-0.332-0.248-0.399-0.718-0.151-1.05l2.749-3.666    c0.247-0.33,0.718-0.398,1.05-0.15c0.331,0.249,0.398,0.72,0.149,1.051l-2.747,3.665    C297.012-118.289,296.787-118.185,296.558-118.185z"/></g></g></svg>