<?xml version="1.0" encoding="iso-8859-1"?>
<!-- Generator: Adobe Illustrator 18.0.0, SVG Export Plug-In . SVG Version: 6.00 Build 0)  -->
<!DOCTYPE svg PUBLIC "-//W3C//DTD SVG 1.1//EN" "http://www.w3.org/Graphics/SVG/1.1/DTD/svg11.dtd">
<svg version="1.1" id="Capa_1" xmlns="http://www.w3.org/2000/svg" xmlns:xlink="http://www.w3.org/1999/xlink" x="0px" y="0px"
	 viewBox="0 0 275.409 275.409" style="enable-background:new 0 0 275.409 275.409;" xml:space="preserve">
<g>
	<path d="M137.113,127.142c-0.295-0.334-0.681-0.386-1.028-0.278c0.138-0.344,0.059-0.773-0.387-0.864
		c-9.609-1.954-22.571,16.234-11.149,21.575C135.516,152.703,143.97,134.882,137.113,127.142z M136.337,138.565
		c-1.408,4.018-5.058,8.317-9.775,6.87c-1.839-0.564-2.929-1.504-3.49-2.648c1.656,0.086,3.332,0.002,4.919-0.47
		c0.363-0.108,0.315-0.726-0.093-0.689c-1.729,0.158-3.406,0.305-5.117,0.295c-0.249-1.024-0.144-2.172,0.224-3.362
		c2.213,0.164,4.552,0.265,6.703-0.032c0.449-0.062,0.45-0.845,0-0.907c-2.024-0.28-4.226-0.206-6.326-0.061
		c0.448-1.068,1.11-2.145,1.87-3.187c1.87,0.049,3.739,0.13,5.608,0.038c0.759-0.037,0.76-1.143,0-1.18
		c-1.573-0.077-3.147-0.03-4.721,0.015c2.738-3.262,6.531-5.891,9.32-5.937c-0.243,0.323-0.329,0.755-0.071,1.167
		C137.363,131.646,137.565,135.059,136.337,138.565z"/>
	<path d="M160.071,132.629c-2.487-3.696-9.284-9.491-14.27-8.456c-0.008,0-0.013,0.005-0.021,0.006
		c-0.291,0.062-0.579,0.137-0.856,0.247c-0.811,0.322-0.922,1.166-0.501,1.693c-0.557,1.256-0.826,2.7-0.894,4.213
		c-0.113,0.003-0.226,0.007-0.339,0.009c-0.646,0.013-0.647,0.992,0,1.005c0.102,0.002,0.204,0.006,0.307,0.008
		c0.182,8.423,6.965,18.465,15.091,13.534C162.876,142.287,162.574,136.349,160.071,132.629z M156.171,142.897
		c-3.482,1.118-6.036-0.457-7.746-3.129c1.094,0.13,2.193,0.238,3.266,0.153c0.517-0.042,0.695-0.82,0.13-0.956
		c-1.314-0.314-2.702-0.349-4.071-0.397c-0.363-0.729-0.639-1.536-0.901-2.348c1.189,0.141,2.381,0.282,3.574,0.29
		c0.63,0.003,0.803-1.002,0.153-1.128c-1.35-0.262-2.726-0.359-4.097-0.47c-0.287-1.155-0.463-2.334-0.572-3.492
		c1.365,0.039,2.73,0.068,4.089,0.029c0.78-0.023,0.781-1.189,0-1.212c-1.389-0.04-2.783-0.009-4.177,0.032
		c-0.053-1.27-0.006-2.488,0.177-3.551c3.637,0.584,6.809,2.419,9.565,4.921C158.457,134.268,161.979,141.032,156.171,142.897z"/>
	<path d="M133.425,104.059c-0.919,0.193-1.716,0.838-2.199,1.624c-0.885,1.115-1.074,2.753-0.074,3.98
		c0.79,0.969,2.011,1.324,3.154,1.164c0.017,0.001,0.032,0.009,0.049,0.01c0.265,0.014,0.521-0.076,0.747-0.219
		c0.88-0.333,1.631-0.99,1.966-1.957C137.857,106.378,135.994,103.518,133.425,104.059z"/>
	<path d="M149.08,102.646c-0.248-0.137-0.541-0.199-0.889-0.038c-2.057,0.953-2.909,3.83-0.914,5.345
		c1.882,1.429,4.974,0.37,4.995-2.174C152.285,104.015,150.696,102.529,149.08,102.646z"/>
	<path d="M194.063,0.546c-8.459,1.602-15.839,6.262-22.001,12.568c-0.359,0.019-0.55,0.275-0.563,0.568
		c-11.195,11.783-18.171,29.101-19.644,43.722c-2.145,0.535-4.06,1.92-4.971,4.01c-3.291-1.03-6.727-1.594-10.321-1.44
		c-3.491-0.342-6.761,0.271-9.816,1.586c-1.497-1.802-3.694-2.815-5.925-2.934c-6.58-30.859-38.115-78.378-71.911-44.975
		C38.521,23.919,35.123,41.56,45.645,53.02c13.521,14.726,31.102,4.418,42.762-6.707c0.12-0.115,0.186-0.236,0.255-0.357
		c3.489-0.993,1.88,7.705,2.716,10.054c0.75,2.109,2.748,3.426,4.715,4.251c2.078,0.872,3.101,0.949,5.079,0.344
		c1.79-0.547,3.028-1.804,5.076-1.77c2.893,0.047,4.998,1.628,6.72,3.781c0.167,0.209,0.366,0.308,0.57,0.365
		c-1.078,2.632-0.316,5.72,1.989,7.428c-2.716,3.242-5.138,7.037-7.256,11.095c-5.21-4.503-12.164-8.457-19.036-8.401
		c-9.156,0.074-19.093,7.927-26.863,12.015c-0.906,0.476-0.867,1.866,0,2.352c6.971,3.916,14.567,7.495,22.784,6.905
		c7.796-0.559,14.843-5.645,21.455-9.51c-2.786,5.968-4.93,12.301-6.421,18.184c-0.58,0.064-0.652,0.77-0.247,1.043
		c-1.236,5.1-1.986,9.83-2.17,13.581c-0.982,19.961,9.179,31.387,24.712,35.671c-15.867,15.15-24.532,39.038-23.657,60.99
		c-0.095-0.004-0.19,0.007-0.286,0.001c-0.868-0.051-0.847,1.263,0,1.34c0.12,0.011,0.243,0.017,0.364,0.028
		c0.067,1.151,0.14,2.301,0.26,3.439c-26.133-2.946-55.827,13.659-66.725,37.607c-0.205,0.451-0.139,0.86,0.054,1.177
		c1.586,9.651,13.264,15.866,22.221,16.572c0.98,0.077,1.322-0.791,1.108-1.53c5.55-10.246,12.952-18.911,22.486-25.664
		c8.856-6.273,20.791-13.723,31.968-13.28c-0.137,9.504,0.39,18.978,1.574,28.266c0.058,0.454,0.309,0.772,0.625,0.975
		c-0.042,0.399,0.11,0.835,0.595,1.029c8.893,3.56,19.251,1.684,26.616-4.338c0.759,0.022,1.571-0.593,1.329-1.558
		c-1.003-4.004-1.876-7.981-2.648-11.942c3.684,0.765,7.648,1.596,11.286,0.711c-0.289,4.036-0.64,8.085-1.103,12.166
		c-0.051,0.443,0.083,0.772,0.306,1.003c-0.269,0.321-0.309,0.813,0.167,1.149c6.816,4.808,16.877,6.507,24.75,3.429
		c0.23-0.09,0.396-0.222,0.534-0.369c0.424,0.589,1.564,0.421,1.658-0.518c1.15-11.599,1.184-23.181,0.211-34.643
		c21.156,5.744,30.348,25.588,39.115,43.905c-0.619,0.552-0.684,1.701,0.323,1.895c8.878,1.715,18.966-6.588,22.182-14.29
		c0.205-0.491-0.065-0.84-0.451-0.974c-9.284-21.774-29.458-38.669-52.395-44.3c0.005-0.049,0.028-0.084,0.029-0.135
		c0.35-23.925-8.265-47.284-25.275-64.276c16.034-6.872,25.702-22.037,22.355-42.604c-1.451-8.916-5.469-19.01-11.362-27.707
		c5.426,4.705,12.031,8.526,19.076,9.145c3.31,0.291,6.631-0.032,9.657-1.446c3.97-1.856,4.433-5.083,7.663-7.497
		c0.802-0.6,0.595-1.955-0.534-1.973c-9.311-0.146-15.174-7.589-24.251-8.647c-5.976-0.696-11.512,0.901-16.545,4.031
		c-1.731-1.969-3.532-3.852-5.479-5.509c0.907-1.357,1.097-3.403,0.947-4.852c-0.101-0.966-0.4-1.902-0.817-2.779
		c0.026-0.025,0.055-0.032,0.08-0.06c5.623-6.261,16.731-0.377,23.833-1.909c5.289-1.141,5.141-5.164,5.63-9.358
		c0.048-0.068,0.132-0.099,0.163-0.181c4.057-10.739,20.157,0.946,26.587,1.788c4.697,0.616,9.946-0.237,14.354-1.835
		c5.782-2.097,10.214-6.067,10.471-11.578c0.374-0.013,0.734-0.171,0.862-0.687C248.431,13.304,214.199-3.267,194.063,0.546z
		 M156.822,60.327c1.356,1.029,2.1,2.693,2.199,4.375c0.065,1.1-0.289,1.935-0.65,2.795c-3.103-2.373-6.437-4.284-9.982-5.586
		C150.457,59.553,154.099,58.26,156.822,60.327z M107.554,56.031c-2.069-0.305-3.556,0.154-5.508,0.659
		c-1.566,0.405-1.364,0.929-3.34,0.741c-3.519-0.335-3.884-4.284-4.302-7.272c-0.341-2.442-0.094-4.687-2.754-5.862
		c-1.222-0.54-2.466-0.494-3.559-0.053c-0.471-0.26-1.082-0.291-1.612,0.142c-7.041,5.747-18.821,16.681-28.943,12.353
		c-1.857-0.794-3.518-1.735-5.024-2.78c1.861,0.234,3.733,0.382,5.624,0.386c0.626,0.001,0.603-0.9,0-0.957
		c-2.515-0.24-5.021-0.528-7.519-0.885c-2.026-1.725-3.597-3.726-4.801-5.904c5.948,0.186,11.899,0.304,17.849,0.187
		c0.765-0.015,0.754-1.134,0-1.18c-6.217-0.377-12.445-0.503-18.672-0.554c-1.077-2.428-1.664-5.074-1.761-7.873
		c2.269,0.282,4.542,0.564,6.819,0.687c0.59,0.032,0.743-0.959,0.142-1.049c-2.287-0.34-4.6-0.525-6.91-0.708
		c0.021-2.131,0.321-4.34,0.904-6.609c4.223,0.176,8.447,0.36,12.674,0.358c0.846,0,0.836-1.262,0-1.307
		c-4.11-0.223-8.228-0.271-12.345-0.322c0.902-2.908,2.29-5.686,4.041-8.25c2.057,0.176,4.112,0.353,6.177,0.328
		c0.612-0.007,0.575-0.854,0-0.925c-1.823-0.225-3.658-0.288-5.493-0.338c1.29-1.755,2.766-3.388,4.378-4.879
		c4.48,0.198,8.962,0.392,13.447,0.31c0.714-0.013,0.701-1.051,0-1.1c-4.03-0.284-8.069-0.34-12.108-0.378
		c2.558-2.136,5.44-3.874,8.499-5.162c3.608,0.305,7.214,0.611,10.837,0.698c0.733,0.017,0.699-1.042,0-1.116
		c-2.686-0.286-5.379-0.446-8.075-0.581c5.129-1.608,10.659-1.898,16.129-0.25c21.282,6.413,31.064,32.915,36.76,52.139
		c-1.543,0.247-3.019,0.946-4.202,2.154C113.266,58.187,110.706,56.494,107.554,56.031z M115.37,66.104
		c1.046,0.109,2.091,0.21,3.146,0.203c0.488-0.003,0.626-0.777,0.119-0.877c-1.067-0.211-2.14-0.312-3.218-0.405
		c0.099-0.618,0.354-1.205,0.698-1.761c1.505,0.027,3.037,0.123,4.536,0.004c0.605-0.047,0.605-0.893,0-0.941
		c-1.246-0.098-2.514-0.05-3.771-0.014c0.053-0.05,0.075-0.115,0.131-0.163c2.501-2.177,5.414-1.293,7.742,0.382
		c-2.918,1.604-5.617,3.862-8.088,6.589C115.871,68.269,115.446,67.197,115.37,66.104z M106.193,82.167
		c-0.003,0.001-0.005,0.003-0.005,0.003c-9.058-5.568-20.815-1.737-29.996,1.679c-0.52,0.194-0.315,1.014,0.233,0.846
		c9.615-2.952,18.368-5.043,27.583-1.278c-5.153,3.043-10.577,6.773-16.311,7.986c-4.671,0.988-9.251,0.214-13.624-1.346
		c1.208,0.105,2.415,0.223,3.624,0.296c0.412,0.024,0.405-0.604,0-0.638c-1.789-0.151-3.583-0.239-5.376-0.338
		c-2.211-0.901-4.37-1.957-6.444-3.083c0.225-0.128,0.457-0.27,0.683-0.399c2.844,0.372,5.743,0.597,8.585,0.673
		c0.394,0.01,0.503-0.646,0.095-0.705c-2.417-0.352-4.886-0.593-7.35-0.745c1.609-0.943,3.241-1.91,4.881-2.867
		c2.197-0.28,4.416-0.407,6.628-0.372c0.483,0.007,0.457-0.682,0-0.734c-1.537-0.175-3.046-0.177-4.551-0.085
		c1.944-1.094,3.907-2.07,5.877-2.952c1.968,0.039,3.935,0.072,5.903,0.007c0.554-0.018,0.555-0.843,0-0.861
		c-1.281-0.042-2.56-0.044-3.84-0.03c0.248-0.096,0.495-0.228,0.743-0.318c8.659-3.12,16.107,0.572,23.121,5.117
		C106.503,82.044,106.35,82.081,106.193,82.167z M54.292,271.81c-4.087-1.485-8.255-2.327-12.03-4.701
		c-3.557-2.237-6.038-5.27-8.222-8.741c0.167-0.092,0.328-0.216,0.464-0.413c1.921-2.771,3.9-5.354,5.931-7.789
		c1.51,3.034,4.269,5.553,7.564,6.389c-1.156,2.492-1.957,5.014-2.391,7.752c-0.171,1.08,0.972,1.84,1.844,1.074
		c1.006-0.883,2.006-1.772,3.008-2.66c0.745-0.66,1.721-1.934,2.629-2.33c1.598-0.697,4.108,1.677,5.701,2.483
		c0.103,0.052,0.199,0.066,0.297,0.088C57.277,265.744,55.656,268.676,54.292,271.81z M110.355,231.129
		c-11.286-1.624-24.901,7.293-33.566,13.577c-6.529,4.735-12.141,10.239-16.614,16.652c-0.078-0.114-0.179-0.221-0.314-0.315
		c-1.512-1.048-3.152-2.146-4.811-2.948c-0.702-0.339-1.248-0.558-2.027-0.345c-1.035,0.284-1.893,1.368-2.652,2.049
		c-0.726,0.651-1.451,1.304-2.177,1.955c0.285-1.695,0.644-3.376,1.122-5.027c0.528-0.139,0.703-0.865,0.063-1.084
		c-2.155-0.738-3.992-1.811-5.554-3.216c2.201,0.58,4.465,1.116,6.669,1.364c0.625,0.07,0.709-0.897,0.144-1.066
		c-2.563-0.766-5.394-1.195-8.073-1.547c-0.499-0.587-0.974-1.205-1.386-1.903c0.823-0.962,1.66-1.886,2.502-2.795
		c4.533,0.307,9.065,0.624,13.603,0.819c0.484,0.021,0.478-0.719,0-0.75c-4.362-0.281-8.731-0.45-13.1-0.623
		c1.922-2.042,3.904-3.934,5.937-5.71c2.534,0.158,5.062,0.38,7.587,0.705c0.397,0.051,0.495-0.641,0.096-0.705
		c-2.269-0.364-4.548-0.558-6.833-0.677c2.002-1.699,4.08-3.236,6.199-4.692c4.562,0.436,9.136,0.731,13.721,0.696
		c0.627-0.005,0.625-0.953,0-0.973c-4.171-0.137-8.335-0.292-12.498-0.516c2.435-1.602,4.971-3.016,7.574-4.318
		c4.179,0.467,8.368,0.805,12.578,0.736c0.679-0.011,0.677-1.03,0-1.053c-3.634-0.125-7.26-0.295-10.883-0.547
		c2.346-1.099,4.766-2.075,7.26-2.944c2.905,0.355,5.816,0.757,8.738,0.895c0.441,0.021,0.554-0.709,0.106-0.783
		c-2.19-0.363-4.406-0.576-6.622-0.773c2.848-0.901,5.817-1.633,8.863-2.265c3.039,0.389,6.073,0.807,9.118,1.203
		c0.697,0.09,0.841-1.067,0.166-1.222c-1.509-0.345-3.045-0.605-4.589-0.83c3.075-0.48,6.227-0.867,9.532-1.076
		c0.493-0.031,0.824-0.46,0.893-0.895c0.214-0.184,0.358-0.465,0.36-0.856c0.006-1.197,0.108-2.307,0.145-3.474
		c1.601,0.032,3.202-0.059,4.738-0.476c0.645-0.175,0.509-1.151-0.157-1.159c-1.512-0.019-3.014,0.054-4.517,0.107
		c0.097-2.209,0.305-4.324,0.514-6.44c1.712,0.062,3.421,0.189,5.117,0.434c0.623,0.09,0.913-0.839,0.267-0.969
		c-1.769-0.355-3.525-0.488-5.3-0.527c0.233-2.155,0.569-4.237,0.926-6.307c0.915,0.169,1.918,0.018,2.806-0.358
		c0.21-0.089,0.274-0.249,0.283-0.419c0.905,0.168,1.807,0.351,2.721,0.485c0.622,0.091,0.913-0.828,0.267-0.969
		c-1.553-0.338-3.106-0.608-4.674-0.866c-0.422-0.069-0.659,0.314-0.613,0.63c-0.176-0.039-0.356-0.078-0.53-0.134
		c0.453-2.395,0.979-4.747,1.591-7.055c1.932,0.003,3.86-0.01,5.794-0.167c0.553-0.045,0.554-0.816,0-0.861
		c-1.815-0.147-3.626-0.166-5.44-0.166c0.549-1.964,1.179-3.893,1.848-5.807c1.848,0.085,3.651-0.075,5.475-0.574
		c0.669-0.184,0.565-1.334-0.169-1.253c-1.573,0.174-3.15,0.247-4.728,0.251c0.706-1.912,1.533-3.788,2.361-5.666
		c1.638,0.152,3.281,0.281,4.906,0.212c0.655-0.028,0.879-1.087,0.163-1.206c-1.476-0.247-2.983-0.336-4.492-0.393
		c0.699-1.521,1.469-3.03,2.25-4.538c1.539-0.16,3.084-0.204,4.629-0.332c0.528-0.043,0.725-0.861,0.134-0.987
		c-1.367-0.291-2.713-0.248-4.058-0.061c0.939-1.753,1.956-3.5,3.01-5.246c1.922,0.095,3.864,0.107,5.743-0.317
		c0.61-0.138,0.407-0.962-0.138-1.018c-1.636-0.169-3.3-0.007-4.936,0.247c0.872-1.412,1.799-2.827,2.744-4.243
		c1.145,0.166,2.296,0.297,3.451,0.281c0.665-0.008,0.846-1.038,0.161-1.19c-0.904-0.2-1.82-0.313-2.74-0.392
		c1.047-1.533,2.127-3.068,3.276-4.612c1.557,0.365,3.143,0.687,4.793,0.917C117.122,178.063,111.119,204.651,110.355,231.129z
		 M113.577,245.068c4.108,0.268,8.31,0.321,12.358-0.371c0.721-0.123,0.533-1.253-0.17-1.253c-4.071,0.002-8.13,0.248-12.202,0.267
		c-0.02-2.036,0.064-4.042,0.101-6.061c1.539,0.062,3.062-0.02,4.575-0.405c0.591-0.15,0.339-1.025-0.25-0.907
		c-1.445,0.29-2.864,0.378-4.308,0.334c0.045-1.97,0.178-3.918,0.275-5.874c1.428-0.038,2.85-0.152,4.259-0.449
		c0.549-0.116,0.308-0.918-0.229-0.831c-1.335,0.218-2.659,0.337-3.989,0.397c0.137-2.537,0.35-5.056,0.574-7.573
		c2.736,0.064,5.474,0.136,8.207,0.029c0.667-0.026,0.668-1.011,0-1.037c-2.709-0.106-5.422-0.036-8.133,0.027
		c0.262-2.809,0.576-5.607,0.943-8.396c0.1,0.088,0.214,0.167,0.386,0.169c1.291,0.015,2.545,0.05,3.827-0.12
		c0.664-0.088,0.666-0.949,0-1.037c-1.282-0.169-2.536-0.135-3.827-0.12c-0.105,0.001-0.158,0.066-0.236,0.103
		c0.244-1.797,0.532-3.586,0.818-5.376c1.5-0.312,2.979-0.383,4.518-0.36c0.564,0.009,0.709-0.884,0.136-1.002
		c-1.511-0.313-2.975-0.245-4.452,0.039c0.464-2.791,1.058-5.566,1.623-8.344c2.234-0.186,4.5-0.3,6.682-0.795
		c0.627-0.142,0.468-1.083-0.149-1.096c-2.085-0.047-4.184,0.257-6.264,0.509c0.577-2.752,1.235-5.498,1.908-8.243
		c1.158-0.117,2.319-0.182,3.496-0.181c0.734,0,0.699-1.041,0-1.116c-1.082-0.117-2.145-0.079-3.204,0.032
		c0.468-1.871,0.983-3.741,1.495-5.612c1.907-0.095,3.821-0.164,5.704-0.474c0.719-0.118,0.52-1.225-0.167-1.238
		c-1.724-0.031-3.447,0.149-5.166,0.318c0.467-1.671,1.025-3.343,1.527-5.014c0.917-0.076,1.834-0.103,2.787-0.056
		c0.757,0.037,0.708-1.054,0-1.148c-0.818-0.109-1.621-0.108-2.415-0.017c0.466-1.528,0.978-3.059,1.467-4.588
		c1.094-0.114,2.189-0.233,3.253-0.499c0.635-0.159,0.517-1.199-0.156-1.159c-0.904,0.054-1.798,0.208-2.688,0.381
		c0.378-1.167,0.779-2.336,1.17-3.504c0.083,0.038,0.173,0.069,0.291,0.041c1.116-0.262,2.194-0.204,3.326-0.172
		c0.588,0.017,0.699-0.865,0.138-1.018c-1.21-0.33-2.303-0.16-3.455,0.248c0.859-2.537,1.745-5.075,2.715-7.62
		c1.901,0.214,3.835,0.376,5.837,0.421c-7.505,30.061-6.989,61.695-0.672,91.941c-0.049,0.006-0.09-0.007-0.141,0.005
		c-2.351,0.551-4.573,0.775-6.979,0.602c-0.613-0.044-1.254,0.588-1.204,1.204c0.173,2.137,0.245,4.271,0.28,6.408
		c-1.215-1.705-2.212-3.548-3.141-5.45c0.347-0.487,0.136-1.33-0.578-1.262c-1.609,0.153-3.132,0.766-4.737,1.013
		c-1.901,0.292-3.798,0.28-5.713,0.217C113.564,248.339,113.604,246.713,113.577,245.068z M114.393,262.663
		c0.022-0.118,0.052-0.231,0.039-0.374c-0.345-3.629-0.569-7.216-0.733-10.783c3.019,0.467,6.904,0.454,9.785-0.836
		c1.088,3.083,2.744,5.857,4.499,8.613c0.612,0.962,2.077,0.564,2.122-0.575c0.109-2.795,0.037-5.588-0.123-8.38
		c2.15,0.066,4.266-0.152,6.353-0.757c0.608,2.773,1.246,5.538,1.949,8.285C131.019,263.091,123.083,264.656,114.393,262.663z
		 M149.801,244.993c-3.954,0.641-7.715,1.686-11.638,0.473c-0.47-2.468-0.828-4.92-1.212-7.375c1.405,0.251,2.836,0.307,4.247-0.011
		c0.542-0.122,0.426-0.991-0.131-0.971c-1.479,0.052-2.88,0.073-4.298-0.13c-0.268-1.768-0.454-3.528-0.678-5.293
		c4.351,0.063,8.704,0.179,13.054,0.064c0.698-0.019,0.699-1.066,0-1.085c-4.391-0.116-8.785,0.003-13.177,0.065
		c-0.307-2.505-0.542-5.003-0.766-7.501c1.811,0.138,3.621,0.277,5.437,0.323c0.553,0.014,0.531-0.792,0-0.845
		c-1.838-0.183-3.683-0.27-5.527-0.36c-0.267-3.115-0.455-6.226-0.598-9.338c1.674,0.062,3.337,0.011,5.003-0.34
		c0.535-0.113,0.426-1.044-0.132-0.971c-1.637,0.214-3.267,0.306-4.904,0.305c-0.098-2.365-0.16-4.73-0.189-7.096
		c2.257,0.054,4.518,0.117,6.771,0.033c0.677-0.025,0.678-1.027,0-1.053c-2.253-0.084-4.513-0.021-6.77,0.034
		c-0.023-2.827,0.061-5.661,0.134-8.494c1.125,0.041,2.238-0.017,3.359-0.34c0.466-0.134,0.271-0.826-0.199-0.723
		c-1.06,0.233-2.099,0.326-3.149,0.344c0.038-1.342,0.128-2.69,0.186-4.034c1.143-0.195,2.29-0.307,3.461-0.273
		c0.581,0.017,0.565-0.845,0-0.893c-1.167-0.099-2.291-0.01-3.415,0.163c0.086-1.841,0.219-3.688,0.34-5.534
		c1.873-0.147,3.733-0.147,5.623-0.094c0.473,0.013,0.603-0.778,0.115-0.846c-1.9-0.263-3.796-0.18-5.684,0.067
		c0.186-2.698,0.489-5.419,0.749-8.132c0.796,0.018,1.59,0.012,2.371-0.126c0.358-0.064,0.358-0.66,0-0.723
		c-0.752-0.134-1.515-0.145-2.281-0.129c0.123-1.236,0.281-2.481,0.415-3.72c1.187,0.169,2.195,0.048,3.289-0.464
		c0.462-0.216,0.135-1.006-0.35-0.831c-0.903,0.326-1.772,0.462-2.737,0.325c-0.038-0.005-0.061,0.022-0.096,0.024
		c0.206-1.862,0.437-3.73,0.672-5.601c0.878,0.195,1.732,0.295,2.689,0.193c0.62-0.066,0.65-0.978,0-0.988
		c-0.871-0.014-1.716-0.131-2.555-0.319c0.323-2.478,0.678-4.964,1.094-7.468c0.877-0.002,1.743,0.017,2.636-0.015
		c1.346-0.049,2.659-0.171,3.964-0.306C149.091,185.455,151.755,214.694,149.801,244.993z M161.687,248.295
		c-1.584-0.394-3.227-0.267-4.845-0.426c-1.391-0.136-2.751-0.429-4.099-0.775c2.704-30.703,1.591-62.584-6.569-92.232
		c1.793-0.226,3.526-0.56,5.228-0.947c15.007,29.63,22.232,60.717,22.906,93.304c-2.23,0.605-4.577,0.655-6.874,0.548
		c-0.229-0.01-0.379,0.084-0.512,0.191c-0.608-0.214-1.377-0.033-1.619,0.758c-0.599,1.965-1.346,3.864-2.172,5.736
		c-0.717-1.478-1.275-3.045-1.871-4.571c0.139-0.032,0.292-0.024,0.428-0.063C162.42,249.608,162.457,248.486,161.687,248.295z
		 M174.156,262.717c-0.263-0.2-0.616-0.311-1.054-0.235c-8.151,1.406-14.801,1.086-22.381-2.024c0.378-0.226,0.681-0.59,0.746-1.126
		c0.417-3.452,0.778-6.93,1.103-10.419c2.277,0.717,4.854,1.318,7.19,1.188c0.605,2.462,1.68,4.754,2.391,7.181
		c0.263,0.899,1.622,1.172,2.086,0.273c1.343-2.602,2.465-5.294,3.376-8.077c2.258,0.193,4.481,0.082,6.732,0.016
		C174.395,253.876,174.339,258.281,174.156,262.717z M235.105,261.253c0.041,0.078,0.103,0.123,0.155,0.185
		c-2.369,3.056-4.959,5.694-8.361,7.719c-3.129,1.863-6.385,2.385-9.682,3.375c-1.326-3.332-2.758-6.727-4.316-10.095
		c2.078-0.694,4.041-1.535,6.007-2.511c1.633,2.44,3.787,4.414,6.144,6.168c0.67,0.498,1.675-0.174,1.646-0.944
		c-0.105-2.719-0.53-5.304-1.196-7.912c1.937-0.289,4.797-0.562,6.396-1.547C232.994,257.512,234.097,259.324,235.105,261.253z
		 M182.092,215.482c0.013,1.114,1.035,1.547,1.86,1.325c0.093,0.131,0.191,0.263,0.382,0.329
		c20.148,6.932,35.369,19.135,46.373,36.492c-2.145,0.75-4.762,1.05-6.898,1.582c-0.593,0.148-0.983,0.832-0.805,1.417
		c0.607,1.994,0.97,3.986,1.221,6.012c-1.56-1.387-2.927-2.904-4.362-4.512c-0.251-0.281-0.792-0.363-1.109-0.143
		c-1.997,1.39-4.116,2.446-6.35,3.368c-7.554-15.985-18.286-31.059-36.508-34.949h-0.004c-2.557-25.418-10.117-50.191-21.927-73.138
		c1.473-0.417,2.891-0.916,4.279-1.454c0.027,0.136,0.025,0.274,0.13,0.404C173.5,170.756,181.816,191.408,182.092,215.482z
		 M140.963,152.088c-11.02,0.437-20.974-1.811-28.268-7.041c0.883-0.057,1.758-0.186,2.578-0.43
		c0.474-0.142,0.408-0.926-0.121-0.893c-1.33,0.083-2.649,0.139-3.97,0.202c-1.05-0.861-2.018-1.812-2.938-2.808
		c2.01,0.149,4.03,0.194,6.026-0.021c0.638-0.068,0.672-1.025,0-1.02c-2.356,0.016-4.699-0.022-7.049-0.09
		c-1.136-1.379-2.149-2.881-3.004-4.53c0.053-0.036,0.108-0.067,0.161-0.103c4.639,0.517,9.229,0.595,13.882-0.054
		c0.629-0.087,0.483-1.153-0.15-1.112c-4.04,0.264-8.07,0.357-12.1,0.127c2.436-1.566,4.922-2.974,7.437-4.265
		c2.471-0.014,4.892-0.279,7.32-0.916c0.544-0.143,0.308-0.926-0.229-0.831c-1.615,0.286-3.236,0.504-4.864,0.65
		c19.605-9.345,41.288-10.319,62.198-1.038C172.972,142.123,159.19,151.366,140.963,152.088z M192.568,76.606
		c4.031,2.378,7.302,3.986,11.617,4.437c-0.176,0.203-0.405,0.448-0.76,0.783c-5.298,5.005-9.696,6.76-17.045,4.875
		c-3.26-0.836-6.096-2.347-8.78-4.112c2.391,0.562,4.804,0.961,7.269,1.031c0.525,0.015,0.521-0.789,0-0.813
		c-2.85-0.131-5.658-0.463-8.437-1.118c-0.065-0.016-0.113,0.01-0.164,0.027c-1.156-0.812-2.292-1.658-3.416-2.53
		c1.557,0.149,3.106,0.362,4.653,0.682c0.628,0.13,0.9-0.811,0.268-0.968c-2.062-0.516-4.16-0.711-6.273-0.767
		c-0.683-0.535-1.367-1.072-2.055-1.603c4.152,0.235,8.337,0.012,12.369,1.256c3.938,1.215,7.199,3.713,11.007,5.152
		c0.645,0.244,1.157-0.702,0.667-1.146c-7.512-6.81-16.319-6.219-25.655-6.486c-0.057-0.042-0.113-0.087-0.171-0.13
		C176.107,70.931,184.401,71.79,192.568,76.606z M178.191,104.015c2.061,7.713,2.073,14.809,0.496,21.083
		c-24.833-10.947-53.882-8.205-75.198,8.949c-0.869-1.938-1.512-4.077-1.993-6.353c2.041-0.083,4.082-0.174,6.098-0.5
		c0.507-0.082,0.354-0.84-0.117-0.861c-2.082-0.095-4.169,0.063-6.25,0.222c-0.335-1.903-0.476-3.966-0.522-6.104
		c4.875,0.26,9.808,0.188,14.573-0.904c0.57-0.131,0.458-1.075-0.14-1.034c-4.842,0.331-9.606,0.745-14.447,0.64
		c0.004-0.5-0.036-0.967-0.016-1.479c0.066-1.716,0.249-3.616,0.542-5.644c2.127,0.302,4.269,0.317,6.405-0.136
		c0.555-0.118,0.442-1.053-0.136-1.003c-2.054,0.181-4.081,0.287-6.115,0.154c0.338-2.127,0.813-4.398,1.384-6.73
		c1.58,0.063,3.164,0.104,4.711-0.066c0.798-0.088,0.8-1.156,0-1.244c-1.434-0.158-2.899-0.132-4.363-0.078
		c0.549-2.102,1.2-4.257,1.928-6.421c3.075-0.214,6.15-0.253,9.238-0.225c0.938,0.009,0.905-1.353,0-1.435
		c-2.917-0.267-5.815-0.153-8.711,0.147c0.773-2.18,1.643-4.358,2.591-6.504c1.39,0.108,2.811-0.113,4.145-0.476
		c0.718-0.195,0.404-1.207-0.301-1.091c-1.096,0.179-2.197,0.272-3.296,0.372c0.777-1.687,1.608-3.346,2.491-4.959
		c2.655,0.177,5.431,0.218,7.933-0.584c0.663-0.213,0.535-1.174-0.163-1.206c-2.288-0.104-4.573,0.13-6.867,0.209
		c1.066-1.835,2.228-3.56,3.434-5.219c2.929,0.14,5.948-0.096,8.698-1.052c0.639-0.223,0.596-1.36-0.172-1.269
		c-2.456,0.291-4.864,0.53-7.297,0.654c1.432-1.814,2.957-3.466,4.564-4.938c3.188-0.051,6.369-0.147,9.539-0.503
		c0.596-0.067,0.631-0.966,0-0.957c-2.859,0.042-5.701,0.303-8.542,0.606c2.332-1.977,4.841-3.533,7.513-4.564
		c1.334-0.009,2.668-0.048,4.003-0.151c0.598-0.047,0.669-0.725,0.268-0.99c0.839-0.127,1.686-0.219,2.554-0.235
		c0.37-0.006,0.626-0.153,0.798-0.361C158.275,64.261,173.024,84.68,178.191,104.015z M240.18,33.968
		c-1.284,14.243-18.399,16.285-28.413,12.618c-4.242-1.553-8.249-4.702-12.909-5.021c-5.72-0.391-10.115,2.288-10.807,8.015
		c-0.029,0.244,0.064,0.404,0.159,0.557c-0.688,2.524-1.162,5.244-3.867,6.316c-3.263,1.293-9.197-0.281-12.515-0.522
		c-4.708-0.343-9.64-0.515-13.014,3.207c-0.305-0.292-0.606-0.588-0.965-0.823c-1.277-0.835-2.769-1.176-4.249-1.137
		c0.417-1.58,0.87-3.178,1.326-4.775c0.555,0.071,1.134,0.075,1.601,0.13c2.214,0.261,4.423,0.455,6.648,0.577
		c0.574,0.031,0.72-0.928,0.138-1.018c-1.4-0.217-2.792-0.433-4.2-0.576c-0.831-0.084-2.597-0.014-3.88-0.218
		c0.509-1.745,1.052-3.494,1.623-5.237c2.677,0.348,5.351,0.716,8.042,0.93c0.557,0.044,0.696-0.906,0.134-0.987
		c-2.612-0.377-5.239-0.61-7.865-0.854c0.682-2.037,1.434-4.055,2.223-6.058c4.836,0.759,10.073,0.484,14.85,0.081
		c0.745-0.063,0.768-1.208,0-1.18c-4.783,0.174-9.666-0.097-14.455,0.125c1.046-2.583,2.195-5.119,3.463-7.581
		c2.1,0.227,4.212,0.459,6.311,0.363c0.436-0.02,0.579-0.704,0.108-0.799c-1.924-0.386-3.895-0.495-5.863-0.586
		c1.014-1.9,2.127-3.734,3.303-5.521c6.767,0.209,13.545,0.507,20.313,0.419c0.908-0.012,0.899-1.358,0-1.404
		c-6.445-0.329-12.913-0.309-19.37-0.348c2.015-2.894,4.258-5.614,6.801-8.076c4.18,0.296,8.383,0.64,12.559,0.57
		c0.831-0.014,0.786-1.167,0-1.26c-3.657-0.434-7.368-0.548-11.065-0.659c0.515-0.455,1.013-0.925,1.553-1.359
		c1.081-0.867,2.262-1.653,3.514-2.369c6.674,0.241,13.37,0.594,20.042,0.478c0.909-0.016,0.897-1.35,0-1.403
		c-5.834-0.347-11.702-0.335-17.556-0.353c20.61-9.484,57.339-1.208,56.734,25.372C240.423,33.58,240.203,33.703,240.18,33.968z"/>
</g>
<g>
</g>
<g>
</g>
<g>
</g>
<g>
</g>
<g>
</g>
<g>
</g>
<g>
</g>
<g>
</g>
<g>
</g>
<g>
</g>
<g>
</g>
<g>
</g>
<g>
</g>
<g>
</g>
<g>
</g>
</svg>
