<?xml version="1.0" encoding="iso-8859-1"?>
<!-- Generator: Adobe Illustrator 18.0.0, SVG Export Plug-In . SVG Version: 6.00 Build 0)  -->
<!DOCTYPE svg PUBLIC "-//W3C//DTD SVG 1.1//EN" "http://www.w3.org/Graphics/SVG/1.1/DTD/svg11.dtd">
<svg version="1.1" id="Capa_1" xmlns="http://www.w3.org/2000/svg" xmlns:xlink="http://www.w3.org/1999/xlink" x="0px" y="0px"
	 viewBox="0 0 246.804 246.804" style="enable-background:new 0 0 246.804 246.804;" xml:space="preserve">
<g>
	<path d="M225.158,147.16c-1.905-26.709-7.011-54-25.594-74.43c-10.604-11.658-24.039-20.047-38.665-25.239
		c0.004-0.019,0.016-0.029,0.02-0.049c4.553-24.62-12.777-48.39-38.85-47.413C97.751,0.941,78.984,25.637,87.437,49.051
		c-39.861,17.513-69.708,57.745-65.641,102.715c2.485,27.472,16.499,54.124,36.236,73.207c17.863,17.272,42.759,22.409,67.058,21.78
		c48.444-1.254,93.168-33.793,99.503-81.389c0.435-0.265,0.75-0.726,0.727-1.452c-0.033-1.019-0.124-1.994-0.254-2.938
		C225.433,156.486,225.495,151.885,225.158,147.16z M90.056,34.165c3.111,0.055,6.239,0.166,9.33-0.137
		c0.865-0.084,0.866-1.261,0-1.346c-2.995-0.293-6.024-0.198-9.04-0.141c0.431-2.241,1.046-4.413,1.807-6.508
		c3.145-0.146,6.366-0.194,9.433-0.764c0.75-0.139,0.571-1.342-0.179-1.322c-2.958,0.078-5.959,0.654-8.911,1.152
		c0.932-2.38,2.13-4.604,3.503-6.695c5.128,0.759,10.336,1.291,15.502,1.052c1.171-0.054,1.173-1.765,0-1.82
		c-4.833-0.228-9.626-0.371-14.426-0.812c1.384-1.865,2.977-3.559,4.746-5.079c0.081,0.022,0.136,0.09,0.235,0.077
		c4.262-0.564,8.514-0.632,12.806-0.506c1.037,0.03,0.978-1.456,0-1.574c-3.562-0.429-7.097-0.311-10.628,0.129
		c4.363-3.03,9.705-5.02,16.087-5.51c23.661-1.816,40.735,18.862,36.626,41.735c-5.299-1.644-10.734-2.876-16.237-3.677
		c1.509-11.781-7.043-22.891-19.521-21.863c-10.773,0.887-19.652,11.87-15.811,22.35c-5.298,1.32-10.484,3.06-15.53,5.14
		c-0.211-1.664-0.309-3.329-0.357-4.991c2.93-0.21,5.888-0.384,8.758-0.89c0.885-0.156,0.679-1.603-0.212-1.564
		c-2.851,0.124-5.717,0.587-8.565,1.009C89.472,39.092,89.678,36.602,90.056,34.165z M136.918,41.94
		c-4.551-0.499-9.133-0.74-13.711-0.659c-0.178-0.675-0.713-1.206-1.651-1.122c-4.606,0.41-9.166,1.157-13.665,2.164
		c-0.077-8.415,3.125-16.524,12.692-17.808c9.931-1.333,17.646,7.322,16.309,17.01C136.872,41.674,136.91,41.801,136.918,41.94z
		 M109.642,59.038c-3.931-0.664-8.098-0.396-12.091,0.217c-0.962-1.765-1.554-3.67-1.758-5.65c5.481,0.283,10.94,0.226,16.4-0.448
		c0.981-0.121,1.025-1.658,0-1.574c-5.5,0.453-10.989,0.675-16.501,0.536c0.008-0.731,0.057-1.469,0.195-2.218
		c7.578-2.784,15.471-4.782,23.543-5.835c4.767,0.305,9.509,0.761,14.203,1.391c0,0.004-0.002,0.006-0.002,0.01
		c0.248,10.853-1.369,22.721-14.102,25.085c-7.146,1.327-16.567-3.073-21.138-9.875c3.696-0.213,7.377-0.255,11.089-0.448
		C110.123,60.197,110.352,59.159,109.642,59.038z M44.71,91.372c0.368-0.101,0.723-0.301,1.002-0.678
		c0.362-0.49,0.736-0.96,1.109-1.431c5.616,0.35,11.288,0.865,16.896,0.747c1.065-0.022,1.031-1.536,0-1.631
		c-5.22-0.481-10.533-0.415-15.799-0.445c1.549-1.814,3.187-3.428,4.892-4.786c3.633,0.287,7.267,0.548,10.91,0.671
		c0.959,0.032,0.94-1.411,0-1.479c-3.064-0.222-6.133-0.341-9.203-0.436c6.303-4.21,13.455-4.559,20.75,2.976
		c7.701,7.955,8.88,21.56-1.432,28.295c-8.989,5.871-17.578,3.472-23.142-2.384c2.783,0.362,5.61,0.608,8.31,0.652
		c0.727,0.012,0.93-1.18,0.176-1.304c-3.158-0.516-6.535-0.816-9.819-0.894c-1.362-1.735-2.475-3.7-3.309-5.789
		c4.945,0.84,10,1.361,14.973,1.335c0.999-0.005,0.977-1.465,0-1.536c-5.211-0.379-10.368-0.813-15.54-1.425
		c-0.522-1.646-0.866-3.353-1.011-5.081c5.97,0.198,12.025,0.478,17.897-0.121c0.877-0.089,0.878-1.276,0-1.365
		c-5.885-0.6-11.953-0.319-17.935-0.12C44.424,93.886,44.485,92.625,44.71,91.372z M42.406,199.659
		c-1.47-2.366-2.83-4.798-4.132-7.26c3.182,0.136,6.394-0.106,9.449-0.97c0.599-0.169,0.507-1.162-0.151-1.117
		c-3.41,0.231-6.766,0.444-10.165,0.447c-0.924-1.813-1.741-3.674-2.57-5.53c8.034,0.189,16.153,0.637,24.168,0.171
		c0.792-0.046,0.794-1.186,0-1.232c-8.152-0.475-16.409-0.001-24.577,0.182c-1.023-2.343-1.951-4.721-2.818-7.117
		c4.377,0.131,8.935,0.557,13.262,0.082c0.779-0.085,0.78-1.128,0-1.214c-4.441-0.487-9.126-0.022-13.61,0.095
		c-0.805-2.291-1.517-4.608-2.174-6.936c5.715-0.208,11.476-0.283,17.146-0.974c0.905-0.11,0.967-1.459,0-1.46
		c-5.838-0.006-11.695,0.643-17.519,1.129c-0.795-2.962-1.455-5.95-1.968-8.959c4.697,0.582,9.688,1.035,14.274,0.176
		c0.838-0.157,0.577-1.367-0.192-1.415c-4.777-0.3-9.538,0.003-14.325-0.29c-0.356-2.371-0.611-4.728-0.782-7.072
		c0.144-0.016,0.285,0.013,0.433-0.088c30.678-21.072,54.67,38.328,17.53,48.112C42.951,198.611,42.564,199.101,42.406,199.659z
		 M137.899,241.456c-0.322,0.095-0.568,0.244-0.769,0.419c-0.354,0.05-0.707,0.105-1.061,0.152
		c-0.288-0.454-0.797-0.771-1.402-0.602c-5.674,1.596-10.388,0.312-13.996-2.649c3.201,0.183,6.328,0.539,9.485,1.212
		c0.905,0.193,1.27-1.106,0.383-1.39c-3.504-1.12-7.284-1.621-10.962-1.37c-0.169,0.012-0.272,0.1-0.381,0.18
		c-1.524-1.588-2.791-3.513-3.806-5.643c0.055,0.016,0.083,0.064,0.149,0.065c5.824,0.056,11.677,0.284,17.498,0.047
		c0.842-0.034,0.843-1.274,0-1.308c-5.821-0.236-11.674-0.009-17.498,0.047c-0.257,0.003-0.397,0.147-0.485,0.322
		c-1.052-2.419-1.747-5.092-2.124-7.841c4.004,0.074,8.035,0.261,12.031,0.031c0.841-0.048,0.843-1.26,0-1.308
		c-4.051-0.234-8.14-0.038-12.199,0.035c-0.218-2.234-0.185-4.506,0.068-6.739c6.843,0.399,13.705,0.182,20.414-1.314
		c1.001-0.223,0.547-1.632-0.413-1.499c-6.617,0.916-13.138,1.568-19.812,1.407c0.449-2.792,1.299-5.481,2.551-7.917
		c4.326,0.252,8.755,0.269,12.954-0.672c0.723-0.162,0.56-1.297-0.174-1.285c-4.001,0.067-7.947,0.404-11.93,0.44
		c1.22-1.977,2.775-3.708,4.622-5.151c4.448-0.305,8.869-0.057,13.339,0.522c0.792,0.103,0.968-1.234,0.189-1.397
		c-3.668-0.765-7.335-0.953-11.008-0.787c3.384-1.839,7.581-2.783,12.706-2.358c11.349,0.942,20.192,9.668,21.185,21.013
		C158.6,229.248,149.746,237.969,137.899,241.456z M218.79,173.738c-3.67,6.617-9.349,11.004-16.884,12.938
		c-5.929,1.521-11.573,0.054-15.863-3.209c2.978,0.097,5.964,0.156,8.912-0.076c0.804-0.063,0.806-1.188,0-1.252
		c-3.479-0.274-7.011-0.154-10.517-0.025c-1.566-1.484-2.88-3.241-3.897-5.177c6.774,0.741,13.647,1.364,20.45,1.57
		c1.04,0.032,1.002-1.496,0-1.593c-6.927-0.667-13.984-0.918-20.948-1.031c-0.654-1.447-1.116-2.993-1.414-4.592
		c3.946,0.17,7.887,0.044,11.79-0.656c0.696-0.125,0.545-1.325-0.169-1.248c-3.941,0.425-7.857,0.688-11.806,0.68
		c-0.197-1.615-0.23-3.277,0-4.979c0.055-0.409,0.19-0.765,0.264-1.162c7.327,0.55,14.803,0.256,21.884-1.763
		c1.057-0.301,0.607-1.826-0.449-1.627c-7.089,1.335-13.998,2.244-21.147,2.12c0.694-2.793,1.909-5.214,3.446-7.319
		c4.622-0.046,9.275,0.006,13.871-0.391c0.911-0.079,0.942-1.425,0-1.441c-4.257-0.073-8.533,0.241-12.794,0.506
		c10.246-11.845,32.498-10.717,37.42,6.369C220.578,164.976,219.86,169.433,218.79,173.738z M174.146,164.214
		c-1.628,10.919,6.165,25.16,17.605,27.163c8.193,1.435,17.758-1.74,23.913-7.781c-10.405,26.72-34.272,46.37-62.597,54.809
		c16.627-15.686,5.677-51.77-22.897-47.149c-14.595,2.36-23.889,16.195-21.769,30.511c1.188,8.02,5.459,16.994,12.014,21.237
		c-21.723-0.052-43.697-5.316-59.74-20.675c-6.247-5.981-11.82-12.783-16.634-20.106c0.215,0.018,0.436,0.026,0.682-0.039
		c18.523-4.88,26.54-23.722,19.544-41.198c-6.056-15.128-25.261-25.488-38.661-12.971c-0.863-18.681,4.208-36.305,13.399-51.607
		c0.108,0.123,0.268,0.208,0.482,0.211c0.337,0.004,0.68,0.02,1.017,0.027c0.071,5.128,1.659,10.333,4.744,14.451
		c7.732,10.32,23.93,12.218,33.486,3.265c10.67-9.996,7.64-24.935-2.282-33.943c-7.734-7.023-16.017-6.992-23.011-2.792
		c10.957-11.369,24.426-20.539,39.315-26.519c-2.184,12.231,12.459,23.963,23.85,23.801c16.453-0.233,21.544-14.765,21.111-28.846
		c21.201,3.377,41.122,10.907,56.687,27.326c19.238,20.294,24.67,46.706,26.652,73.772c0.095,1.303,0.063,2.564,0.102,3.848
		C209.577,135.187,177.581,141.189,174.146,164.214z"/>
	<path d="M192.137,97.892c-5.035-16.956-23.371-25.414-40.003-22.573c-0.496,0.085-0.825,0.372-1.017,0.741
		c-14.377,3.692-23.709,18.511-21.184,33.574c3.139,18.727,23.07,30.04,41.108,25.834
		C187.882,131.54,197.004,114.282,192.137,97.892z M173.278,130.811c-8.982,3.132-18.947,1.778-26.72-3.036
		c3.322,0.471,6.692,1.057,10.026,1.11c0.621,0.01,0.773-0.958,0.149-1.099c-3.768-0.849-7.755-1.017-11.588-1.442
		c-0.21-0.023-0.354,0.05-0.451,0.166c-2.386-1.737-4.476-3.859-6.245-6.263c4.027,0.23,8.059,0.483,12.089,0.526
		c0.802,0.009,0.781-1.17,0-1.232c-4.321-0.344-8.667-0.447-13.003-0.597c-0.87-1.34-1.669-2.737-2.304-4.254
		c-0.187-0.447-0.316-0.886-0.477-1.33c10.858,0.168,21.755,0.556,32.608,0.189c1-0.034,1.002-1.521,0-1.555
		c-10.993-0.371-22.03,0.033-33.027,0.197c-0.769-2.426-1.131-4.789-1.196-7.084c0.125,0.131,0.308,0.214,0.556,0.195
		c7.179-0.566,14.357-0.683,21.55-0.339c1.133,0.054,1.133-1.716,0-1.764c-7.203-0.301-14.371-0.13-21.55,0.529
		c-0.291,0.027-0.472,0.189-0.595,0.388c0.037-2.911,0.626-5.684,1.631-8.297c0.101,0.064,0.182,0.149,0.327,0.157
		c7.204,0.362,14.375,0.287,21.54-0.595c0.92-0.113,0.967-1.549,0-1.479c-7.086,0.515-14.159,0.832-21.262,0.614
		c1.176-2.605,2.786-5.028,4.731-7.227c5.49,0.721,10.997,1.066,16.527,0.639c0.924-0.071,0.951-1.471,0-1.46
		c-5.09,0.059-10.145-0.064-15.205-0.557c1.463-1.472,3.08-2.831,4.821-4.057c3.659-0.532,7.361-0.74,11.057-0.694
		c0.915,0.011,0.859-1.279,0-1.384c-2.543-0.313-5.035-0.314-7.524-0.103c0.697-0.386,1.393-0.774,2.119-1.119
		c0.214,0.099,0.451,0.161,0.73,0.138c12.486-1.04,25.743,2.504,32.82,13.792C193.745,105.777,188.671,125.443,173.278,130.811z"/>
	<path d="M129.773,145.209c-5.752-13.208-22.384-21.065-34.009-10.912c-10.669,4.746-15.935,17.958-11.902,29.336
		c4.736,13.36,19.96,20.848,33.2,15.245C130.341,173.26,135.435,158.21,129.773,145.209z M109.202,176.962
		c-5.086,0.365-10.099-1.279-14.155-4.239c4.321,0.264,8.584,0.654,12.852,1.479c1.13,0.219,1.595-1.537,0.474-1.719
		c-4.742-0.768-9.562-1.266-14.37-1.132c-0.198,0.006-0.341,0.086-0.444,0.195c-1.34-1.159-2.527-2.486-3.56-3.925
		c2.68,0.085,5.359,0.179,8.041,0.167c0.601-0.003,0.596-0.903,0-0.929c-2.894-0.128-5.788-0.14-8.684-0.163
		c-1.327-2.068-2.301-4.365-2.822-6.814c6.52,0.561,13.039,1.203,19.576,1.519c0.962,0.046,0.932-1.39,0-1.479
		c-6.573-0.626-13.176-0.921-19.767-1.302c-0.068-0.471-0.16-0.935-0.194-1.416c-0.144-2.067,0.033-4.078,0.448-6.017
		c2.913,0.291,5.841,0.6,8.747,0.595c0.767-0.001,0.715-1.063,0-1.157c-2.788-0.366-5.633-0.442-8.465-0.525
		c0.467-1.746,1.202-3.392,2.05-4.979c7.301,0.089,14.599,0.215,21.899,0.02c0.951-0.025,0.953-1.453,0-1.479
		c-7.037-0.189-14.072-0.077-21.11,0.011c1.271-2.039,2.853-3.883,4.651-5.519c0.089,0.061,0.17,0.133,0.307,0.134
		c4.486,0.05,8.974,0.147,13.46,0.095c0.915-0.011,0.916-1.411,0-1.422c-3.623-0.042-7.248,0.027-10.871,0.077
		c12.347-9.2,26.899,0.311,30.4,13.639C130.971,163.262,122.241,176.026,109.202,176.962z"/>
	<path d="M114.192,64.287c-3.773-0.074-7.515-0.061-11.258-0.625c-0.874-0.132-1.272,1.181-0.373,1.353
		c3.923,0.753,7.841,1.162,11.812,0.613C115.155,65.519,114.934,64.301,114.192,64.287z"/>
</g>
<g>
</g>
<g>
</g>
<g>
</g>
<g>
</g>
<g>
</g>
<g>
</g>
<g>
</g>
<g>
</g>
<g>
</g>
<g>
</g>
<g>
</g>
<g>
</g>
<g>
</g>
<g>
</g>
<g>
</g>
</svg>
