<?xml version="1.0" encoding="iso-8859-1"?>
<!-- Generator: Adobe Illustrator 18.0.0, SVG Export Plug-In . SVG Version: 6.00 Build 0)  -->
<!DOCTYPE svg PUBLIC "-//W3C//DTD SVG 1.1//EN" "http://www.w3.org/Graphics/SVG/1.1/DTD/svg11.dtd">
<svg version="1.1" id="Capa_1" xmlns="http://www.w3.org/2000/svg" xmlns:xlink="http://www.w3.org/1999/xlink" x="0px" y="0px"
	 viewBox="0 0 262.016 262.016" style="enable-background:new 0 0 262.016 262.016;" xml:space="preserve">
<g>
	<path d="M117.449,146.115c-2.08-2.795-5.472-4.195-8.924-3.665c-7.257,1.114-10.116,10.426-3.644,14.559
		c0.802,0.512,1.644-0.634,0.999-1.296c-3.633-3.73-1.115-10.149,4.106-10.161c2.385-0.005,4.449,1.261,5.583,3.352
		c1.156,2.132,0.498,4.133,0.978,6.323c0.177,0.81,1.397,1.186,1.949,0.515C120.638,153.138,119.277,148.571,117.449,146.115z"/>
	<path d="M171.298,145.709c-6.335-3.076-12.817,2.478-12.039,9.119c0.133,1.135,1.794,1.202,1.82,0
		c0.097-4.38,4.023-8.399,8.534-6.531c1.812,0.75,3.04,2.313,3.071,4.301c0.032,1.991-1.078,3.121-2.281,4.545
		c-0.801,0.95-0.072,2.734,1.319,2.266C177.989,157.301,176.307,148.141,171.298,145.709z"/>
	<path d="M224.174,175.655c2.649-6.575,4.728-13.095,6.073-20.07c2.924-15.165,2.628-31.026,1.681-46.366
		c-1.427-23.115-6.628-48.018-25.926-62.79c3.26-32.715-38.978-46.813-66.6-46.421c-3.295,0.047-6.582,0.235-9.85,0.548
		c-0.14-0.019-0.281-0.039-0.421-0.059c-0.247-0.035-0.44,0.058-0.593,0.196C106.584,2.986,85.612,11.26,69.881,25.554
		c-0.063-0.001-0.126-0.005-0.189-0.007c-0.49-0.011-0.69,0.386-0.648,0.763c-2.998,2.798-5.82,5.794-8.391,9.039
		c-0.122-0.006-0.244-0.011-0.365-0.017c-0.699-0.034-0.852,0.764-0.489,1.178c-2.213,2.897-4.282,5.933-6.115,9.175
		c-0.001,0.004-0.004,0.007-0.006,0.011c-2.39,4.229-4.444,8.748-6.104,13.564c-7.061-0.175-13.353,5-16.324,11.573
		c-0.429,0.046-0.547,0.475-0.38,0.801c-2.835,7.041-1.829,15.472,6.111,20.717c5.355,3.538,10.563,3.364,14.874,1.078
		c-5.733,11.526-9.847,23.89-12.175,36.526c-0.091,0.004-0.184,0.003-0.275,0.007c-0.768,0.036-0.769,1.159,0,1.195
		c0.027,0.001,0.054,0.001,0.08,0.002c-3.601,20.567-2.488,41.8,4.126,61.269c-0.014,0.165,0.035,0.32,0.153,0.436
		c4.392,12.751,11.071,24.757,20.424,35.272c43.642,49.069,147.67,48.793,161.467-27.095c0.359-1.974-2.521-2.842-3.054-0.842
		c-0.2,0.753-0.461,1.448-0.677,2.186c-9.571-2.26-10.558-7.402-2.888-15.45C220.814,183.206,222.526,179.445,224.174,175.655z
		 M204.255,54.939c0.635-2.028,1.073-3.98,1.396-5.888c2.175,2.465,4.146,5.101,6.014,7.816
		c-22.167,47.434-102.838,44.079-128.98,1.763c3.767-4.112,7.695-8.06,11.765-11.8c-0.563,4.261,0.209,8.791,2.376,13.126
		c7.158,14.321,26.135,18.436,40.276,20.869c26.539,4.566,59.257,1.713,66.945-25.638C204.121,55.109,204.219,55.054,204.255,54.939
		z M152.867,164.53c-3.688-9.224-16.738-10.759-21.042-1.29c-0.409,0.9,0.786,1.637,1.342,0.785
		c4.811-7.374,16.317-5.032,17.489,3.829c0.466,3.52-0.693,6.794-3.483,9.07c-2.389,1.949-5.043,2.072-7.865,2.914
		c-0.321,0.096-0.527,0.284-0.662,0.507c-3.383-0.16-6.847-0.59-10.383-1.327c-51.623-10.757-64.808-67.431-40.104-108.514
		c23.236,27.986,74.814,31.758,105.949,11.662c24.211,40.196-1.517,92.353-45.044,97.769
		C152.972,176.148,154.783,169.324,152.867,164.53z M52.625,54.336c2.74-0.019,5.503,0.164,8.188,0.618
		c0.708,0.12,1.027-0.929,0.302-1.097c-2.7-0.625-5.289-0.798-7.956-0.612c1.127-2.242,2.363-4.385,3.648-6.482
		c2.931,0.399,5.899,0.561,8.845,0.298c0.813-0.073,0.842-1.314,0-1.289c-2.723,0.079-5.396,0-8.075-0.223
		c1.908-3.001,3.979-5.844,6.194-8.535c8.022,0.6,16.053,1.279,24.092,1.461c1.029,0.023,0.99-1.478,0-1.574
		c-7.578-0.732-15.203-1.022-22.815-1.354c2.604-3.021,5.462-5.76,8.428-8.368c5.048,0.371,10.039,1.048,15.076,1.711
		c0.794,0.104,0.964-1.225,0.189-1.397c-4.459-0.987-9.038-1.473-13.615-1.729c2.962-2.476,6.115-4.71,9.377-6.787
		c0.081,0.307,0.276,0.595,0.668,0.642c6.278,0.753,12.544,1.51,18.845,2.047c1.049,0.09,1.002-1.482,0-1.612
		c-6.061-0.781-12.134-1.356-18.217-1.929c4.924-3.019,10.172-5.565,15.665-7.673c4.209,0.375,8.415,0.734,12.639,0.952
		c0.706,0.036,0.677-1.006,0-1.081c-3.297-0.364-6.598-0.638-9.901-0.891c3.981-1.395,8.099-2.528,12.313-3.444
		c5.467,0.778,10.932,1.595,16.444,1.964c0.642,0.043,0.799-1.023,0.154-1.136c-4.221-0.737-8.477-1.194-12.738-1.622
		c1.892-0.339,3.803-0.631,5.734-0.871c3.903-0.486,7.999-0.773,12.182-0.836c2.929,0.486,5.861,0.947,8.803,1.337
		c0.606,0.08,0.863-0.582,0.721-1.084c26.927,1.842,54.218,13.55,55.277,42.253c-4.785,27.325-27.899,35.882-53.45,33.592
		c-16.286-1.46-61.104-10.732-53.497-34.285c0.535-0.48,1.06-0.974,1.599-1.447c0.505-0.443-0.064-1.199-0.635-1.018
		c1.15-2.501,2.851-5.146,5.234-7.955c0.416-0.49-0.205-1.093-0.697-0.697c-3.412,2.747-5.558,6.197-6.618,9.947
		c-5.541,3.559-10.736,7.605-15.563,12.058c-0.119-0.021-0.224-0.061-0.363-0.054c-7.861,0.362-15.696,2.291-22.676,5.95
		c-0.603-0.411-1.239-0.801-1.94-1.146c-0.273-0.135-0.535-0.16-0.786-0.143c-1.152-0.558-2.303-0.957-3.445-1.207
		C50.991,57.789,51.793,56.049,52.625,54.336z M75.954,59.599c-4.871,4.88-9.305,10.206-13.323,15.851
		c0.209-4.386-1.057-8.647-4.268-11.778C64.165,61.833,69.92,60.405,75.954,59.599z M36.735,88.372
		c-0.019-0.018-0.031-0.04-0.05-0.057c1.333,0.331,2.701,0.512,4.067,0.488c0.862-0.015,0.817-1.214,0-1.308
		c-2.025-0.234-3.918-0.658-5.811-1.205c-1.326-1.879-2.138-4.021-2.465-6.235c5.442,0.537,10.889,1.141,16.354,1.29
		c0.826,0.023,0.776-1.155,0-1.251c-5.453-0.681-10.957-0.909-16.445-1.203c-0.159-2.28,0.221-4.59,1.055-6.761
		c3.553,0.29,7.106,0.594,10.671,0.616c0.835,0.005,0.795-1.185,0-1.27c-3.373-0.362-6.764-0.469-10.154-0.578
		c0.32-0.657,0.659-1.309,1.078-1.923c0.522-0.767,1.086-1.446,1.68-2.056c3.576-0.505,7.158-0.57,10.763-0.338
		c0.764,0.049,0.74-1.099,0-1.176c-3.144-0.326-6.241-0.177-9.333,0.289c4.151-3.22,9.507-3.496,14.701-2.272
		c0.048,0.031,0.072,0.073,0.127,0.1c0.615,0.311,1.17,0.66,1.693,1.028c0.02,0.013,0.032,0.029,0.053,0.04
		c6.101,4.335,6.047,12.311,2.809,18.572c-0.366,0.599-0.716,1.207-1.073,1.812C52.101,91.621,44.075,95.37,36.735,88.372z
		 M220.65,206.5c-18,51.839-77.352,62.98-122.542,41.901c3.767,0.896,7.477,1.987,11.274,2.737c0.599,0.118,0.791-0.67,0.247-0.896
		c-4.629-1.926-9.966-2.743-14.932-3.503c-3.606-1.843-7.11-3.897-10.483-6.155c4.121,0.643,8.249,1.274,12.397,1.602
		c0.621,0.049,0.772-0.992,0.149-1.099c-4.687-0.803-9.444-1.224-14.186-1.672c-2.884-2.015-5.624-4.232-8.286-6.548
		c2.481,0.216,4.934,0.589,7.371,1.205c0.698,0.177,0.99-0.88,0.297-1.079c-2.886-0.826-5.85-1.141-8.839-1.2
		c-3.181-2.861-6.172-5.945-8.966-9.226c1.063,0.253,2.249,0.342,3.42,0.319c5.842,0.97,11.69,2.034,17.578,2.636
		c0.644,0.066,0.793-1.014,0.154-1.136c-4.963-0.945-9.994-1.553-15.017-2.171c0.07-0.345-0.106-0.73-0.593-0.786
		c-1.899-0.221-4.315-0.266-6.151,0.325c-0.019,0.006-0.012,0.031-0.029,0.039c-1.924-2.313-3.771-4.702-5.454-7.243
		c-0.108-0.163-0.201-0.329-0.309-0.492c3.054,0.61,6.174,0.997,9.247,0.914c0.724-0.02,0.716-1.077,0-1.119
		c-3.421-0.2-6.744-0.476-10.063-1.098c-1.723-2.706-3.268-5.435-4.707-8.176c5.814,0.688,11.633,1.465,17.468,1.865
		c0.588,0.04,0.737-0.958,0.141-1.043c-6.023-0.854-12.113-1.312-18.175-1.878c-1.771-3.466-3.299-6.958-4.639-10.467
		c3.968,0.057,7.937,0.121,11.901,0.001c0.744-0.022,0.745-1.134,0-1.157c-4.106-0.124-8.216-0.051-12.324,0.006
		c-1.153-3.131-2.11-6.277-2.938-9.431c3.791,0.373,7.731,0.063,11.402-0.782c0.694-0.16,0.561-1.339-0.171-1.266
		c-3.872,0.382-7.691,0.482-11.558,0.586c-0.934-3.783-1.563-7.577-2.056-11.375c8.349,0.065,16.704,0.238,25.049-0.033
		c0.878-0.028,0.88-1.337,0-1.365c-8.403-0.273-16.818-0.095-25.224-0.032c-0.36-3.109-0.528-6.217-0.61-9.324
		c3.672,0.456,7.34,0.911,11.028,1.238c0.812,0.072,0.781-1.154,0-1.252c-3.675-0.462-7.356-0.794-11.042-1.125
		c-0.068-4.269,0.13-8.529,0.552-12.771c5.535,0.12,11.038,0.561,16.546,1.179c0.875,0.098,1.08-1.387,0.209-1.546
		c-5.477-0.996-10.993-1.372-16.545-1.427c0.461-3.997,1.143-7.972,2.005-11.921c3.211,0.078,6.432,0.094,9.619-0.056
		c0.829-0.039,0.831-1.25,0-1.289c-3.076-0.144-6.185-0.133-9.286-0.064c0.561-2.433,1.26-4.843,1.963-7.251
		c5.38,0.221,10.699,0.901,16.071,1.249c0.776,0.05,0.944-1.189,0.184-1.36c-5.165-1.158-10.553-1.363-15.85-1.386
		c1.143-3.748,2.51-7.444,3.975-11.113c3.21,0.435,6.418,0.627,9.672,0.37c0.841-0.066,0.866-1.32,0-1.327
		c-3.036-0.026-6.063-0.175-9.08-0.488c1.03-2.502,2.15-4.977,3.318-7.434c3.711,0.116,7.515,0.333,11.146-0.144
		c0.888-0.117,0.89-1.267,0-1.384c-3.357-0.441-6.864-0.284-10.307-0.166c1.662-3.391,3.465-6.729,5.369-10.018
		c4.321,0.632,8.659,1.312,13.014,1.466c0.765,0.027,0.933-1.163,0.181-1.341c-3.967-0.941-8.041-1.43-12.099-1.927
		c1.945-3.265,4.04-6.451,6.2-9.597c2.401,0.355,4.787,0.405,7.254,0.054c0.823-0.117,0.631-1.502-0.196-1.452
		c-2.012,0.119-4.022,0.073-6.026-0.079c1.522-2.169,3.132-4.278,4.745-6.385c1.999,0.252,3.985,0.514,6.005,0.533
		c0.824,0.008,1.045-1.303,0.199-1.471c-1.668-0.332-3.349-0.492-5.035-0.635c2.273-2.903,4.627-5.745,7.093-8.492
		c1.553,3.218,3.447,6.189,5.584,8.96c-33.808,41.785-8.358,108.311,46.224,114.322c56.781,6.253,92.675-55.952,63.824-103.185
		c7.154-5.193,13.065-11.729,16.995-19.67c21.002,34.02,20.22,83.904,4.803,119.152C215.181,187.941,203.608,213.436,220.65,206.5z"
		/>
</g>
<g>
</g>
<g>
</g>
<g>
</g>
<g>
</g>
<g>
</g>
<g>
</g>
<g>
</g>
<g>
</g>
<g>
</g>
<g>
</g>
<g>
</g>
<g>
</g>
<g>
</g>
<g>
</g>
<g>
</g>
</svg>
