<?xml version="1.0" encoding="iso-8859-1"?>
<!-- Generator: Adobe Illustrator 18.0.0, SVG Export Plug-In . SVG Version: 6.00 Build 0)  -->
<!DOCTYPE svg PUBLIC "-//W3C//DTD SVG 1.1//EN" "http://www.w3.org/Graphics/SVG/1.1/DTD/svg11.dtd">
<svg version="1.1" id="Capa_1" xmlns="http://www.w3.org/2000/svg" xmlns:xlink="http://www.w3.org/1999/xlink" x="0px" y="0px"
	 viewBox="0 0 268.402 268.402" style="enable-background:new 0 0 268.402 268.402;" xml:space="preserve">
<g>
	<path d="M229.684,115.74c-1.989-5.414-7.552-9.811-13.405-10.766c14.93-45.141-10.422-94.748-58.835-103.61
		C115.12-6.383,63.572,19.446,55.878,64.09c-3.909,0.594-7.731,2.801-10.071,5.667c-1.908,2.335-2.835,4.614-3.17,6.907
		c-0.374-0.07-0.79,0.124-0.853,0.647c-1.021,8.498,1.73,14.583,6.73,18.947c-12.023,18.628-13.171,40.751-7.84,62.153
		c3.129,12.559,8.369,24.392,14.269,35.866c2.686,5.225,8.479,14.296,13.189,23.964h-0.014c-0.954-0.003-0.95,1.449,0,1.479
		c0.247,0.008,0.495,0.019,0.742,0.027c7.97,16.898,11.987,35.098-10.036,37.562c-2.406,0.269-2.515,4.002,0,3.849
		c0.164-0.01,0.303-0.048,0.465-0.061c19.548,13.594,42.923,5.586,63.168-2.829c22.97-9.548,44.594-20.641,59.868-40.876
		c19.128-25.339,24.17-56.286,17.01-85.024c4.192,5.904,12.638,8.317,19.687,5.903C228.262,135.106,233.056,124.919,229.684,115.74z
		 M59.666,60.256c0.095,0.084,0.204,0.159,0.368,0.162c4.488,0.09,8.977,0.297,13.46,0.028c0.816-0.049,0.818-1.221,0-1.271
		c-4.456-0.267-8.921-0.064-13.381,0.027c1.141-2.606,2.399-5.124,3.724-7.588c2.105-0.516,4.131-0.526,6.291-0.561
		c0.715-0.011,0.917-1.126,0.174-1.285c-1.854-0.395-3.722-0.218-5.538,0.229c1.746-3.109,3.678-6.057,5.707-8.91
		c5.713,0.316,11.441,0.71,17.158,0.677c1.1-0.006,1.069-1.601,0-1.688c-5.325-0.43-10.687-0.489-16.037-0.586
		c2.303-3.104,4.773-6.039,7.395-8.795c3.107-0.101,6.214-0.259,9.309-0.55c0.86-0.081,0.89-1.404,0-1.365
		c-2.676,0.117-5.344,0.373-8.011,0.628c2.567-2.591,5.288-4.993,8.124-7.23c5.978,0.438,12.083,0.907,18.064,0.693
		c1.022-0.036,0.974-1.442,0-1.555c-5.26-0.606-10.656-0.691-15.982-0.729c4.091-3.03,8.451-5.655,13.019-7.9
		c0.033,0.011,0.036,0.044,0.074,0.051c3.885,0.757,7.694,0.982,11.638,0.567c0.76-0.08,0.795-1.247,0-1.214
		c-3.096,0.13-6.19-0.079-9.254-0.525c4.061-1.833,8.305-3.31,12.678-4.483c4.465,0.202,8.928,0.403,13.399,0.223
		c0.838-0.034,0.794-1.173,0-1.271c-2.088-0.257-4.184-0.387-6.28-0.519c8.815-1.55,18.136-1.781,27.875-0.369
		c47.123,6.833,72.707,53.989,58.967,97.894c-1.626-5.764-4.215-11.136-7.43-16.125c1.902,0.072,3.812,0.066,5.612-0.167
		c0.888-0.115,0.89-1.269,0-1.384c-2.126-0.276-4.404-0.236-6.642-0.119c-0.913-1.33-1.97-2.56-2.977-3.825
		c2.411,0.15,4.968,0.058,7.087-0.823c0.517-0.215,0.521-1.084-0.144-1.061c-2.71,0.093-5.283,0.565-7.972,0.564
		c-2.055-2.464-4.317-4.756-6.663-6.958c3.538-0.244,7.076-0.496,10.597-0.895c0.982-0.111,1.031-1.631,0-1.574
		c-4.05,0.224-8.09,0.64-12.129,1.043c-2.424-2.16-4.999-4.13-7.64-5.999c3.557,0.257,7.279-0.397,10.565-1.711
		c0.873-0.349,0.558-1.699-0.398-1.445c-3.573,0.951-7.095,1.566-10.748,2.101c-0.261,0.038-0.348,0.22-0.355,0.416
		c-1.088-0.747-2.149-1.54-3.27-2.229c-0.148-1.165-0.395-2.326-0.655-3.483c2.839-0.272,5.819-0.802,8.202-2.161
		c0.726-0.414,0.221-1.455-0.548-1.3c-2.739,0.555-5.296,1.443-8.014,1.953c-0.524-1.963-1.245-3.876-2.071-5.742
		c2.139-0.207,4.295-0.425,6.395-0.834c0.769-0.149,0.604-1.44-0.187-1.378c-2.255,0.175-4.514,0.569-6.748,0.962
		c-0.965-1.99-2.116-3.878-3.404-5.648c2.479-0.149,4.918-0.148,7.424-0.139c0.76,0.003,0.967-1.202,0.184-1.359
		c-2.751-0.554-5.738-0.329-8.473,0.354c-3.111-3.924-7.01-7.111-11.58-8.985c-1.126-0.462-2.125,1.302-1.199,2.06
		c11.315,9.255,17.656,19.052,18.133,33.67c-0.345-0.353-0.688-0.741-1.026-1.023c-0.859-0.717-1.803-1.334-2.834-1.774
		c-0.283-0.12-0.583-0.193-0.875-0.288c-0.066-0.819-0.62-1.646-1.658-1.768c-18.177-2.143-35.434,9.973-54.019,10.61
		C97.067,77.266,80.908,67.996,62.077,64.7c-1.261-0.52-2.608-0.739-3.974-0.762C58.583,62.682,59.145,61.483,59.666,60.256z
		 M196.775,123.686c-4.035-11.806-10.112-23.101-18.264-33.273c2.407-4.064,3.423-9.129,2.337-15.543
		c-0.117-0.689-0.604-1.07-1.175-1.215c-0.031-0.063-0.086-0.116-0.118-0.179c0.155-0.134,0.308-0.277,0.356-0.532
		c0.398-2.158,0.527-4.395,0.462-6.653c12.782,11.188,24.435,22.372,29.019,39.315c-0.736,0.292-1.462,0.632-2.155,1.087
		c-0.206,0.135-0.321,0.354-0.427,0.572C201.182,109.988,197.093,117.585,196.775,123.686z M46.35,87.405
		c3.439,0.129,6.954,0.337,10.319-0.056c0.791-0.092,0.792-1.14,0-1.232c-3.598-0.421-7.364-0.157-11.028-0.035
		c-0.249-2.058-0.391-4.129-0.247-6.148c2.638,0.071,5.284,0.16,7.91,0.051c0.841-0.035,0.843-1.273,0-1.308
		c-2.587-0.108-5.191-0.023-7.789,0.048c0.298-2.156,0.993-4.233,2.381-6.136c4.322,0.893,8.668,1.087,12.999,0.08
		c0.601-0.14,0.486-1.176-0.149-1.099c-4.019,0.488-7.97,0.586-11.951-0.022c3.715-4.117,8.46-3.99,13.798-4.014
		c0.061,0,0.096-0.047,0.153-0.055c15.512,5.885,30.909,12.093,47.692,12.859c21.162,0.965,39.724-11.623,60.02-10.869
		c1.631,0.773,3.174,1.44,4.535,2.706c1.013,0.943,1.588,2.11,2.281,3.209c2.566,30.832-45.157,27.099-65.158,27.431
		c-16.421,0.273-45.132,3.391-59.815-8.357c-0.001-0.021-0.013-0.036-0.015-0.056c4.557,1.003,9.166,2.064,13.786,2.576
		c0.807,0.09,0.949-1.199,0.19-1.397c-5.042-1.313-10.333-1.954-15.478-2.749c-0.105-0.016-0.179,0.036-0.267,0.061
		C48.88,91.312,47.5,89.471,46.35,87.405z M115.217,176.362c-3.361-0.328-6.729-0.503-10.1-0.689
		c-1.175-1.638-1.869-3.377-2.285-5.141c0.05,0.034,0.074,0.086,0.151,0.098c1.811,0.291,3.659,0.742,5.495,0.764
		c0.496,0.006,0.587-0.72,0.116-0.857c-1.711-0.495-3.589-0.601-5.354-0.84c-0.274-0.037-0.464,0.139-0.549,0.342
		c-0.306-1.546-0.333-3.112-0.136-4.661c3.988,0.123,8.027,0.367,11.994,0.106c0.878-0.058,0.879-1.308,0-1.365
		c-3.892-0.256-7.852-0.026-11.768,0.1c0.401-1.963,1.222-3.862,2.301-5.657c0.019,0.004,0.025,0.02,0.045,0.022
		c2.851,0.3,6.079,0.514,8.92,0.11c0.616-0.088,0.616-1.156,0-1.243c-2.646-0.377-5.613-0.212-8.311,0.054
		c0.747-1.084,1.633-2.094,2.593-3.054c2.295-0.213,4.591-0.426,6.886-0.639c0.653-0.061,0.653-1.093,0-1.024
		c-1.902,0.201-3.803,0.402-5.704,0.602c0.334-0.288,0.625-0.61,0.981-0.88c0.056-0.043,0.083-0.096,0.132-0.141
		c6.784-2.324,13.776-2.587,20.085,1.81c7.451,5.193,9.627,16.917,2.507,23.516c-6.275,5.816-19.213,6.553-25.592,0.79
		c-0.539-0.487-1.03-0.988-1.481-1.5c3.023,0.253,6.043,0.503,9.075,0.627C116.033,177.647,116.004,176.439,115.217,176.362z
		 M110.39,149.932c-0.382-0.206-0.865-0.263-1.41-0.008c-7.346,3.44-10.988,11.243-10.265,18.816
		c-29.089-5.529-33.09-38.345-28.329-62.997c0.044-0.23,0.033-0.436,0.005-0.634c16.348,2.843,35.46,1.531,45.366,1.376
		c12.42-0.195,35.783,0.542,50.998-6.316c13.182,26.835,4.144,57.678-25.839,66.75c-0.043-3.74-1.144-7.489-3.385-10.622
		C131.418,147.747,119.46,145.414,110.39,149.932z M178.656,214.565c-12.438,16.541-29.362,27.11-48.054,35.484
		c-21.369,9.574-43.7,19.191-66.122,10.074c3.457-1.039,6.141-2.839,8.219-5.116c1.42,0.046,2.928,0.26,4.027,0.282
		c2.287,0.047,4.579,0.088,6.863-0.073c1.148-0.081,1.146-1.695,0-1.783c-2.458-0.187-4.928-0.142-7.391-0.103
		c-0.608,0.01-1.337-0.038-2.084-0.079c1.295-1.841,2.205-3.954,2.868-6.196c1.689,0.414,3.379,0.841,5.097,1.103
		c0.846,0.129,1.23-1.07,0.363-1.316c-1.666-0.474-3.375-0.785-5.078-1.108c0.574-2.41,0.796-4.979,0.771-7.595
		c3.832,0.133,7.694,0.262,11.51-0.036c0.792-0.062,0.793-1.171,0-1.233c-3.819-0.298-7.685-0.169-11.521-0.035
		c-0.111-2.518-0.489-5.067-1.067-7.568c2.397,0.075,4.823,0.219,7.203-0.008c0.67-0.064,0.671-0.979,0-1.043
		c-2.467-0.235-4.984-0.071-7.466,0c-0.621-2.415-1.419-4.779-2.414-6.996c-0.194-0.433-0.396-0.864-0.592-1.297
		c5.061,0.194,10.126,0.382,15.183,0.318c1.152-0.014,1.142-1.727,0-1.782c-5.308-0.257-10.634-0.237-15.955-0.224
		c-1.508-3.265-3.074-6.507-4.662-9.735c2.603,0.081,5.248,0.246,7.831-0.001c0.804-0.077,0.806-1.175,0-1.251
		c-2.782-0.265-5.64-0.05-8.436,0.018c-1.394-2.821-2.803-5.629-4.207-8.431c6.683-0.241,13.349-0.253,20.044-0.25
		c0.977,0,0.948-1.419,0-1.498c-6.897-0.574-13.859-0.332-20.751,0.337c-1.641-3.281-3.258-6.552-4.837-9.821
		c3.823,0.104,7.633,0.225,11.457,0.069c0.848-0.035,0.836-1.247,0-1.308c-4.036-0.297-8.066-0.287-12.111-0.313
		c-0.036,0-0.048,0.031-0.082,0.035c-1.625-3.394-3.187-6.786-4.657-10.184c0.009,0,0.011,0.008,0.02,0.008
		c4.981-0.065,9.863,0.471,14.808,0.982c0.7,0.072,0.853-1.085,0.167-1.229c-4.926-1.036-9.975-1.041-14.974-0.625
		c-0.144,0.012-0.247,0.081-0.318,0.172c-1.163-2.713-2.251-5.431-3.269-8.156c2.091,0.176,4.181,0.325,6.287,0.3
		c0.616-0.007,0.805-1.01,0.152-1.117c-2.327-0.384-4.664-0.561-7.008-0.715c-1.114-3.08-2.102-6.172-2.968-9.279
		c5.282,0.348,10.595,0.549,15.881,0.565c1.023,0.003,1.001-1.504,0-1.574c-5.417-0.38-10.88-0.575-16.318-0.606
		c-1.104-4.202-1.935-8.436-2.449-12.713c2.667,0.076,5.336,0.154,7.998,0.07c0.952-0.03,0.953-1.449,0-1.479
		c-2.713-0.085-5.435-0.003-8.153,0.074c-0.272-2.621-0.374-5.265-0.378-7.922c3.517,0.02,7.035,0.046,10.551-0.076
		c0.976-0.034,0.977-1.483,0-1.517c-3.518-0.122-7.039-0.096-10.558-0.076c0.054-2.58,0.249-5.18,0.589-7.801
		c2.482-0.25,4.983-0.431,7.441-0.866c0.688-0.122,0.522-1.229-0.163-1.211c-2.357,0.063-4.708,0.366-7.053,0.611
		c0.339-2.257,0.828-4.535,1.399-6.827c2.991-0.116,5.892,0.22,8.844,0.732c0.85,0.147,1.229-1.09,0.363-1.316
		c-2.914-0.762-5.903-0.834-8.888-0.561c0.772-2.898,1.745-5.826,2.913-8.784c2.151,0.264,4.303,0.509,6.456,0.75
		c0.983,0.11,1.003-1.479,0-1.555c-1.982-0.151-3.965-0.291-5.949-0.425c0.796-1.919,1.653-3.848,2.651-5.798
		c4.476,3.127,10.255,5.216,16.618,6.571c-0.061,0.11-0.137,0.197-0.181,0.33c-7.521,22.752,0.647,68.949,32.078,66.646
		c0.525,2.144,1.33,4.24,2.632,6.142c6.855,10.016,21.36,10.771,31.128,4.627c4.441-2.793,7.035-7.393,7.755-12.31
		c0.13,0.011,0.255,0.035,0.399,0.014c34.421-5.133,43.118-44.308,29.315-71.674c2.066-1.235,3.888-2.677,5.445-4.32
		C203.635,129.327,206.068,178.111,178.656,214.565z M217.228,134.892c-4.77,1.373-10.38-0.005-13.746-3.442
		c3.329-0.163,6.637-0.083,9.996-0.127c0.851-0.011,1.115-1.404,0.209-1.546c-3.765-0.591-7.648-0.363-11.438,0.155
		c-1.023-1.513-1.64-3.315-1.725-5.358c2.307,0.009,4.606,0.055,6.903-0.194c0.713-0.077,0.726-1.056,0-1.119
		c-2.293-0.199-4.58-0.105-6.877-0.046c0.147-1.988,0.739-3.837,1.6-5.571c4.677-0.058,9.395-0.039,14.027-0.519
		c0.929-0.096,0.972-1.456,0-1.479c-4.388-0.102-8.819,0.249-13.222,0.556c1.579-2.595,3.734-4.912,5.979-6.974
		c0.612-0.066,1.221-0.105,1.829-0.146c0.625,0.458,1.521,0.4,2.176-0.067c5.319-0.002,10.177,1.488,12.797,7.228
		C229.123,123.668,225.121,132.62,217.228,134.892z"/>
	<path d="M91.846,140.148c-0.672,0.292-1.145,0.803-1.508,1.384c-1.006,0.84-1.638,2.065-1.435,3.557
		c0.327,2.401,2.934,4.04,5.271,3.581C100.146,147.493,97.533,137.681,91.846,140.148z"/>
	<path d="M99.208,130.392c-2.12-2.182-6.39-1.592-8.993-0.712c-3.11,1.052-5.67,3.237-7.116,6.18
		c-0.587,1.194,0.977,2.056,1.751,1.024c1.628-2.167,3.892-3.744,6.519-4.436c2.455-0.646,4.621,0.284,6.994-0.018
		C99.348,132.306,99.992,131.199,99.208,130.392z"/>
	<path d="M148.837,141.442c-0.161,0.017-0.284,0.085-0.434,0.118c-2.788,0.012-5.145,2.539-4.037,5.564
		c1.209,3.302,5.821,4.234,8.08,1.488C154.875,145.658,152.813,141.03,148.837,141.442z"/>
	<path d="M159.933,132.872c-4.785-5.299-13.906-5.016-18.57,0.191c-0.689,0.77,0.23,2.192,1.172,1.519
		c4.802-3.433,10.622-3.138,15.132,0.556C159.245,136.43,161.339,134.428,159.933,132.872z"/>
</g>
<g>
</g>
<g>
</g>
<g>
</g>
<g>
</g>
<g>
</g>
<g>
</g>
<g>
</g>
<g>
</g>
<g>
</g>
<g>
</g>
<g>
</g>
<g>
</g>
<g>
</g>
<g>
</g>
<g>
</g>
</svg>
