<?xml version="1.0" encoding="iso-8859-1"?>
<!-- Generator: Adobe Illustrator 19.0.0, SVG Export Plug-In . SVG Version: 6.00 Build 0)  -->
<svg version="1.1" id="Layer_1" xmlns="http://www.w3.org/2000/svg" xmlns:xlink="http://www.w3.org/1999/xlink" x="0px" y="0px"
	 viewBox="0 0 512 512" style="enable-background:new 0 0 512 512;" xml:space="preserve">
<g>
	<g>
		<g>
			<path d="M164.471,55.308c0.914,2.211,2.329,4.305,3.568,6.073c1.385,2.005,3.066,3.98,5.1,6.103
				c3.419,3.597,7.546,6.573,11.468,9.316c4.776,3.302,10.26,5.631,15.448,7.695c4.599,1.828,9.287,3.479,13.974,5.013
				c3.597,1.149,7.399,2.329,11.262,3.066l1.503,0.265c1.827,0.383,3.655,0.737,5.513,0.973c2.064,0.294,4.127,0.56,6.221,0.826
				c1.474,0.176,2.978,0.294,4.481,0.383l1.503,0.118c1.887,0.176,3.773,0.265,5.66,0.324c4.127,0.176,8.254,0.354,12.383,0.414
				c2.093,0.029,4.216,0.058,6.309,0.058s4.186-0.029,6.279-0.058c1.356-0.029,2.712-0.147,4.068-0.294l2.035-0.147
				c1.415-0.118,2.83-0.294,4.245-0.471l1.621-0.207c4.363-0.501,8.697-1.209,13.001-1.946c4.276-0.766,7.989-1.591,11.321-2.535
				c3.537-1.002,7.666-2.329,11.615-4.245c1.916-0.944,3.715-1.887,5.572-2.948c1.592-0.914,3.125-1.975,4.659-3.066
				c1.385-1.002,2.713-2.064,3.95-3.243c1.621-1.474,2.889-3.479,3.92-5.247c1.091-1.857,1.77-3.922,2.447-5.955
				c0.648-2.034,0.915-4.334,0.797-6.81c-0.236-3.715-1.415-7.548-3.39-11.056c-1.091-1.975-2.535-3.744-3.92-5.483
				c-1.975-2.417-4.363-4.392-6.692-6.279l-0.826-0.679c-2.682-2.181-5.778-4.186-9.729-6.279
				c-6.516-3.508-13.503-5.986-20.813-7.399c-8.107-1.534-15.271-2.565-21.934-3.125l-5.454-0.472l-5.985-0.53
				c-1.916-0.147-3.833-0.414-5.719-0.679c-1.709-0.207-3.39-0.442-5.1-0.619c-2.595-0.265-5.189-0.442-7.784-0.648
				c-1.975-0.147-3.92-0.294-5.896-0.472c-3.037-0.294-6.103-0.53-9.14-0.678c-2.152-0.176-4.068-0.354-5.984-0.472
				c-1.71-0.118-3.39-0.178-5.129-0.236l-1.946-0.029c-0.973-0.029-1.946-0.089-2.919-0.089h-1.179v-0.005l-2.27,0.06
				c-1.268,0.029-2.535,0.029-3.773,0.147l-5.896,0.619c-2.152,0.206-3.773,0.501-5.365,0.796l-2.093,0.354
				c-5.218,0.884-10.112,2.653-14.239,4.276c-2.535,1.002-4.982,2.152-7.223,3.479c-1.709,0.973-3.39,2.299-5.483,4.216
				c-1.592,1.533-3.066,3.508-4.51,6.103c-0.354,0.649-0.648,1.356-0.944,2.064l-0.412,1.002c-0.56,1.356-0.915,2.86-1.062,4.334
				c-0.207,2.624,0.147,5.041,0.53,7.281C162.555,50.709,163.469,53.008,164.471,55.308z M170.338,41.866
				c0.147-0.59,0.354-1.179,0.619-1.887c0.589-1.267,1.297-2.417,2.093-3.597c1.061-1.209,2.152-2.3,3.419-3.361
				c1.946-1.415,4.127-2.653,6.869-3.862c4.805-1.946,9.463-3.39,14.298-4.363c1.091-0.207,2.241-0.412,3.42-0.59l2.034-0.354
				c1.887-0.236,3.802-0.442,5.719-0.648c0.501-0.029,1.031-0.058,1.562-0.058l1.18-0.06l1.975-0.058l2.034-0.089l1.592-0.029
				c0.707,0,1.415,0.029,2.093,0.06l1.031,0.029l2.359,0.029c1.71,0.058,3.42,0.147,5.129,0.236l1.621,0.089
				c2.653,0.147,5.278,0.354,7.902,0.589l4.009,0.294c4.452,0.325,8.904,0.679,13.356,1.062l1.031,0.118
				c1.326,0.147,2.682,0.324,4.068,0.53l1.975,0.324l4.04,0.797l4.098,0.797c1.445,0.294,2.919,0.648,4.392,1.002l1.18,0.265
				l2.653,0.59c2.594,0.56,5.16,1.061,7.813,1.562c0.294,0.058,0.679,0.118,1.12,0.118c0.797,0,1.445-0.147,2.624-0.884l4.688,0.884
				c3.243,0.56,6.25,1.238,9.169,2.064c2.388,0.678,4.717,1.562,6.987,2.506c4.51,2.005,8.579,4.305,12.47,7.046
				c2.446,1.975,5.247,4.334,7.606,7.105c1.002,1.385,1.946,2.8,2.712,4.334c0.472,1.327,0.826,2.653,1.15,4.098
				c0,0.383,0.029,0.797,0.029,1.209c0,0.414,0,0.826-0.058,1.297c-0.266,1.238-0.679,2.447-1.12,3.655
				c-0.531,1.12-1.12,2.123-1.799,3.184c-0.884,1.002-1.799,1.857-2.86,2.713c-1.592,1.149-3.243,2.211-4.982,3.155l-1.533,0.854
				l-1.563,0.855c-0.589,0.354-1.209,0.648-1.857,0.943l-0.855,0.383c-2.241,0.884-4.539,1.71-6.84,2.506
				c-2.034,0.708-4.156,1.238-6.279,1.739l-2.034,0.501c-2.565,0.589-5.247,1.12-7.842,1.562l-4.541,0.648l-4.068,0.648
				l-0.944,0.265c-3.773,0.472-7.43,0.944-11.056,1.062c-3.332,0.06-6.692,0.118-10.024,0.118h-3.686
				c-4.806-0.058-9.64-0.147-14.446-0.325c-1.799-0.089-3.597-0.207-5.395-0.324l-1.71-0.089c-1.503-0.118-3.007-0.294-4.481-0.472
				l-2.211-0.294c-4.333-0.708-8.815-1.474-13.207-2.8c-4.864-1.445-12.176-3.715-19.722-6.752
				c-3.332-1.415-6.073-2.742-8.343-4.068l-0.766-0.472c-1.857-1.12-3.568-2.359-5.247-3.686c-0.029-0.029-0.354-0.236-0.414-0.236
				c-0.029,0-0.029,0-0.029,0c-0.029-0.001-0.118-0.06-0.207-0.089l0.029-0.029c-3.243-2.595-6.014-5.306-8.519-8.314
				c-1.621-2.241-2.89-4.363-3.862-6.426c-0.708-1.77-1.238-3.686-1.71-6.191c-0.058-0.443-0.058-0.855-0.058-1.268
				C170.191,43.311,170.22,42.603,170.338,41.866z"/>
			<path d="M206.628,52.331c0.442,1.031,1.12,1.917,1.975,2.978c0.797,1.002,1.592,1.916,2.506,2.8
				c0.855,0.884,1.857,1.621,3.214,2.564c1.238,1.002,2.682,1.799,5.306,3.125l1.298,0.648c2.123,0.973,4.215,1.857,6.397,2.682
				c1.534,0.59,3.184,1.031,5.1,1.534l1.149,0.265l0.915,0.207c1.297,0.294,2.624,0.59,3.98,0.796
				c4.158,0.649,8.314,1.18,12.47,1.652c3.538,0.412,7.459,0.679,11.675,0.737l0.826,0.029c3.39,0,6.898-0.354,10.171-0.679
				c4.216-0.414,8.019-0.797,11.763-1.562c4.423-0.884,7.606-1.739,10.584-2.86c0.884-0.354,1.769-0.737,2.653-1.179
				c0.354-0.176,0.707-0.383,1.061-0.59c0.855-0.501,1.592-1.062,2.005-1.503c0.383-0.354,0.707-0.737,1.474-1.739
				c0.236-0.325,0.414-0.737,0.707-1.474c0.383-0.973,0.414-1.533,0.472-2.506l-0.058-1.002c-0.176-1.209-0.294-1.651-0.472-2.093
				c-1.179-3.684-4.186-6.279-6.928-8.343c-1.415-1.12-3.184-2.182-5.395-3.243c-1.769-0.855-3.538-1.68-5.425-2.359
				c-0.354-0.472-0.884-0.766-1.356-0.826c-4.334-0.648-8.668-1.297-13.031-1.651c-1.917-0.147-3.833-0.236-5.749-0.325
				c-1.916-0.089-3.833-0.176-5.749-0.294c-4.187-0.265-8.372-0.679-12.559-1.12c-4.039-0.442-8.049-0.826-12.117-1.091
				c-2.241-0.147-4.481-0.236-6.722-0.236c-1.531,0.001-3.035,0.06-4.538,0.119c-0.56,0-1.149,0.058-2.181,0.207l-0.855,0.118
				c-0.56,0.029-1.149,0.118-2.241,0.324l-1.062,0.207c-3.332,0.619-5.837,1.474-7.871,2.713c-0.648,0.412-1.209,0.914-2.3,1.857
				c-0.884,0.737-1.415,1.769-1.857,2.742c-0.412,0.884-0.619,1.827-0.619,2.831c0,1.061,0.118,1.827,0.324,2.742
				C205.626,50.15,205.921,50.827,206.628,52.331z M211.847,46.964l0.06,0.029c1.149-0.972,1.887-1.415,2.682-1.798
				c2.3-0.826,4.688-1.267,6.987-1.681c2.005-0.236,4.038-0.471,6.103-0.471c2.535,0,5.042,0.029,7.548,0.118
				c4.245,0.089,8.461,0.443,12.706,0.797l1.267,0.118c4.893,0.414,9.787,0.679,14.711,0.826l1.297,0.029
				c1.739,0.029,3.479,0.089,5.218,0.207c2.359,0.118,4.688,0.325,7.046,0.56c0.501,0.06,0.855,0.118,1.209,0.147
				c0.414,1.12,1.415,2.064,2.742,2.535c1.621,0.56,3.243,1.149,4.835,1.827l-0.914-0.56c2.417,1.209,5.306,2.565,8.078,4.541
				c0.796,0.678,1.592,1.356,2.299,2.152c0.325,0.442,0.619,0.914,0.884,1.385l0.147,0.766l-0.265,0.118
				c-1.061,0.708-2.152,1.267-3.332,1.769c-4.51,1.681-9.523,2.948-15.773,3.922c-5.601,0.707-11.085,1.297-16.657,1.297
				c-5.307,0-10.643-0.619-15.802-1.238l-1.68-0.207c-2.829-0.412-5.66-0.884-8.432-1.503c-1.503-0.324-2.978-0.737-4.452-1.179
				c-1.445-0.442-2.86-0.973-4.245-1.534c-0.944-0.383-1.827-0.766-2.742-1.209l-0.884-0.472l-1.297-0.648
				c-1.592-0.766-3.037-1.769-4.392-2.8c-0.973-0.826-1.828-1.651-2.653-2.565c-0.766-1.002-1.415-2.034-2.005-3.154
				c-0.147-0.412-0.294-0.855-0.354-1.297L211.847,46.964z"/>
			<path d="M369.747,71.993c-1.297-1.031-2.477-1.739-4.186-1.739c-1.533,0.001-3.037,0.65-4.157,1.739
				c-1.091,1.12-1.739,2.624-1.739,4.157c0,1.327,0.56,3.214,1.739,4.187c1.445,1.12,2.83,2.535,4.363,4.481l0.648,0.826
				c1.297,1.769,2.299,3.243,3.184,4.835c0.826,1.562,2.595,2.564,4.481,2.564c0.442,0,0.914-0.058,1.356-0.207
				c2.713-0.707,4.333-3.568,3.597-6.368C377.56,80.897,374.17,75.59,369.747,71.993z"/>
			<path d="M352.855,107.872c0.531,2.034,2.447,3.508,4.541,3.508c1.267,0,2.477-0.53,3.361-1.415
				c0.766-0.766,1.563-2.153,1.415-3.361c-0.412-3.302-0.973-6.545-1.621-9.817c-0.501-2.417-2.918-3.715-4.953-3.715
				c-0.443,0-0.855,0.06-1.238,0.207c-2.624,0.737-4.098,3.332-3.508,6.161C351.47,102.271,352.089,105.101,352.855,107.872z"/>
			<path d="M329.686,112.353c-0.501-1.444-1.769-2.417-3.184-2.417c-0.327,0-0.621,0.058-0.916,0.147
				c-0.855,0.207-1.621,0.855-2.093,1.71c-0.383,0.797-0.472,1.621-0.176,2.359c0.944,2.565,1.916,5.129,2.889,7.695
				c0.236,0.648,0.619,1.415,1.474,1.887c0.472,0.294,1.062,0.442,1.652,0.442c0.265,0,0.53-0.029,0.826-0.118
				c0.826-0.207,1.562-0.826,1.975-1.651c0.412-0.737,0.501-1.563,0.236-2.3c-0.737-2.241-1.503-4.481-2.299-6.722L329.686,112.353z
				"/>
			<path d="M365.945,41.923l-1.149-0.266c-0.501-0.118-0.855-0.176-1.238-0.176c-2.211,0-4.069,1.416-4.599,3.479
				c-0.354,1.238-0.176,2.594,0.501,3.715c0.648,1.12,1.651,1.857,2.8,2.123c2.565,0.648,5.16,1.179,7.753,1.739
				c1.799,0.383,3.626,0.766,5.425,1.18c0.383,0.089,0.737,0.147,1.091,0.147c1.592,0,2.919-0.766,3.686-2.093
				c0.589-0.973,0.707-2.329,0.354-3.508c-0.325-1.062-1.002-1.857-1.887-2.241c-2.211-1.031-4.392-1.857-6.663-2.507
				C370.013,42.895,367.979,42.423,365.945,41.923z"/>
			<path d="M357.16,30.425c0.648,0,1.267-0.176,1.769-0.53l3.302-2.152c3.272-2.152,6.692-4.423,10.259-6.22
				c1.267-0.59,1.946-2.27,1.503-3.715c-0.325-1.327-1.739-2.447-3.125-2.447c-0.266,0-0.561,0.06-0.915,0.178
				c-1.562,0.619-3.066,1.267-4.57,1.975c-0.826,0.383-1.621,0.855-2.417,1.327c-2.653,1.533-4.688,2.83-6.722,4.127l-1.002,0.648
				c-1.739,1.091-2.329,3.272-1.297,4.982C354.566,29.718,355.833,30.425,357.16,30.425z"/>
			<path d="M166.652,87.942c-0.619-0.176-1.149-0.265-1.652-0.265c-2.593,0.001-4.923,1.799-5.778,4.453
				c-1.799,5.336-3.568,10.613-4.746,15.978c-0.648,3.184,1.061,6.162,3.95,6.928c0.501,0.147,1.002,0.236,1.534,0.236
				c1.002,0,1.975-0.294,2.831-0.797c1.209-0.678,1.975-1.709,2.565-3.332c1.946-5.247,3.715-10.525,5.483-15.802
				c0.472-1.387,0.325-2.89-0.414-4.305C169.6,89.534,168.214,88.355,166.652,87.942z"/>
			<path d="M146.134,81.251c-0.648,1.209-0.884,1.827-1.12,2.417l-0.443,1.887l-0.147,1.002c0.029,0.648,0.147,1.238,0.383,1.887
				c0.53,1.887,2.27,3.214,4.216,3.214s3.715-1.356,4.216-3.214c2.034-2.506,3.655-4.717,5.278-6.898l2.064-2.801
				c0.854-1.149,0.854-2.918,0.501-4.098c-0.354-1.297-1.209-2.447-2.388-3.125c-0.797-0.472-1.71-0.737-2.653-0.737
				c-0.473,0.001-0.974,0.061-1.417,0.208c-1.385,0.383-2.211,1.209-3.125,2.388c-1.385,1.857-2.771,3.715-4.009,5.631
				C146.989,79.747,146.576,80.485,146.134,81.251z"/>
			<path d="M142.95,47.937c-2.417,0.737-4.835,1.474-7.252,2.27c-1.002,0.325-2.005,0.648-3.007,1.002l-1.061,0.383l-1.002,0.414
				l-1.002,0.414c-1.238,0.796-2.123,1.385-2.594,2.506c-0.325,0.53-0.501,1.179-0.501,1.857c0,1.002,0.383,1.916,1.091,2.624
				c0.443,0.442,0.973,0.766,1.621,0.944c0.325,0.118,0.619,0.147,0.944,0.147c0.53,0,1.062-0.118,1.621-0.383
				c4.51-1.267,8.991-2.564,13.473-3.92c2.27-0.707,3.568-3.007,2.947-5.277c-0.472-1.799-2.241-3.184-4.127-3.184
				C143.717,47.731,143.363,47.79,142.95,47.937z"/>
			<path d="M130.626,29.336c0.737-0.06,1.268-0.06,1.769-0.06c1.917,0,3.833,0.207,5.749,0.414l1.857,0.207c0,0,0.029,0,0.06,0
				c1.179,0,2.27-0.501,3.036-1.267c0.826-0.855,1.297-1.975,1.297-3.096c0-1.149-0.472-2.27-1.297-3.125
				c-0.796-0.766-1.71-1.149-3.096-1.267l-1.533-0.147c-1.739-0.176-3.479-0.354-5.218-0.354c-0.825-0.002-1.62,0.027-2.417,0.116
				c-1.238,0.147-2.182,0.383-3.037,1.238c-0.796,0.797-1.267,1.917-1.267,3.037C126.528,27.272,128.474,29.336,130.626,29.336z"/>
			<path d="M172.783,269.317c-0.383-0.118-0.737-0.176-1.091-0.176c-0.737,0-1.385,0.207-1.828,0.53l-1.827,1.356
				c-0.59,0.442-1.238,0.795-1.917,1.12c-0.53,0.207-1.061,0.383-1.621,0.53c-0.648,0.147-1.267,0.265-1.946,0.354l-0.884-0.058
				c-0.56,0-1.12,0-1.71-0.029l-1.356-0.354l-0.826-0.501l0.06-0.029c-0.619-0.914-1.12-1.828-1.592-2.8
				c-0.265-0.619-0.531-1.268-0.766-1.887c-0.207-0.56-0.442-1.149-0.679-1.68c-0.501-0.884-1.091-1.917-2.005-2.359
				c-0.708-0.354-1.415-0.679-2.153-0.679c-0.265,0-0.53,0.06-0.796,0.147c-0.414,0.118-0.826,0.296-1.209,0.472
				c-0.708,0.442-1.385,0.826-2.123,1.208c-1.652,0.619-3.243,1.033-5.425,1.416h-0.766c-0.354,0-0.737,0-1.091-0.029
				c-0.029,0-0.294-0.029-0.442-0.029c-0.058,0-0.089,0.029-0.089,0.029s-0.029,0.029-0.089,0.029c-0.118,0-0.325-0.029-0.294-0.029
				c-0.56-0.472-0.884-0.679-1.415-1.091c-0.442-0.414-0.648-0.619-0.855-0.884c-0.53-0.737-0.944-1.474-1.356-2.299
				c-0.501-1.238-0.973-2.507-1.385-3.745c-0.354-1.091-0.708-2.181-1.031-3.272c-0.236-0.648-0.472-1.267-0.766-1.916
				c-0.414-0.766-0.855-1.356-1.445-2.093c-0.501-0.56-1.415-1.002-2.682-1.267c-0.265-0.029-0.59-0.118-0.884-0.118
				s-0.589,0.058-0.884,0.118c-0.59,0.178-1.12,0.383-1.739,0.619c-1.002,0.472-1.562,0.855-2.123,1.238l-0.944,0.619
				c-1.267,0.797-2.506,1.534-3.862,2.152c-0.944,0.354-1.857,0.679-2.831,1.002c-0.648,0.178-1.297,0.325-1.946,0.443
				c0,0-0.414,0-0.648,0c-0.118,0-0.207,0-0.207,0l-1.061-0.029l0.058-0.058c-0.472-0.442-0.648-0.766-0.797-1.12
				c-0.383-1.091-0.589-2.211-0.766-3.301c-0.118-0.648-0.266-1.267-0.414-1.887c-0.325-1.415-0.648-2.831-1.149-4.216l-0.324-0.737
				l-0.325-0.708l-0.472-0.648c-0.236-0.383-0.589-0.707-1.091-1.031c-0.501-0.236-1.031-0.472-1.534-0.648
				c-0.589-0.118-1.179-0.176-1.769-0.236c-0.679,0.089-1.267,0.207-1.739,0.412c-0.354,0.089-0.708,0.266-1.297,0.59
				c-1.917,0.914-3.272,1.534-4.628,2.123c-1.946,0.737-3.862,1.327-5.896,1.799c-1.002,0.06-1.415,0.06-1.799,0.06l-1.062-0.06
				c-0.383-0.089-0.796-0.206-1.562-0.56c-0.029-0.029-0.324-0.207-0.383-0.207h-0.029c-0.058,0-0.265-0.147-0.294-0.147
				c0,0,0,0,0,0.029l-0.65-1.031l0.06-0.029l-0.265-0.884l-0.06-1.12h0.089c0.325-1.887,0.826-3.655,1.474-5.483
				c1.238-2.713,2.564-5.071,4.068-7.223c1.387-1.68,2.919-3.184,4.659-4.57c1.533-1.12,3.036-2.005,4.746-2.8
				c1.327-0.472,2.653-0.855,4.069-1.209l0.973,0.029c1.739,0,3.214-1.474,3.214-3.184c0-1.769-1.445-3.214-3.214-3.214
				c-3.298-0.01-6.334,1.199-8.929,2.319c-1.297,0.56-2.506,1.385-3.891,2.359c-1.975,1.416-3.45,2.713-5.013,4.363
				c-1.061,1.091-1.946,2.329-2.8,3.568c-1.326,1.857-2.359,3.951-3.125,5.572c-1.652,3.42-2.594,6.869-2.772,10.289l0.118,1.12
				l0.089,0.826c0.207,0.795,0.414,1.415,0.679,1.916c0.294,0.797,0.707,1.474,1.238,2.035c0.648,0.854,1.356,1.533,2.064,1.946
				c0.53,0.354,1.12,0.648,1.827,0.914c0.826,0.414,1.621,0.648,2.388,0.708c0.678,0.147,1.385,0.236,2.093,0.236
				c1.18,0,2.359-0.176,3.508-0.354c0.973-0.207,1.857-0.442,3.036-0.855c0.679-0.207,1.387-0.472,2.035-0.737
				c1.091-0.414,2.152-0.914,3.184-1.415l1.621-0.796l2.27-1.149c0.354,1.356,0.619,2.742,0.826,4.216
				c0.147,2.093,0.414,4.305,1.149,6.456c1.002,2.86,3.773,4.923,6.693,4.982c0.324,0.058,0.648,0.089,0.973,0.089
				c0.56,0,1.18-0.089,1.739-0.176c0.973-0.118,1.916-0.325,2.889-0.59c1.916-0.53,3.744-1.356,5.278-2.093
				c1.149-0.59,2.211-1.356,3.272-2.123l1.356-0.914l0.679,2.093l0.648,2.153l0.53,1.503l0.501,1.503
				c0.383,1.002,0.855,1.975,1.385,2.919c0.414,0.797,1.031,1.474,1.975,2.565c0.501,0.501,1.031,0.944,1.652,1.356
				c0.707,0.531,1.68,1.238,2.771,1.563l1.267,0.324c0.796,0.147,1.562,0.236,2.329,0.325c0.294,0.058,0.56,0.058,0.855,0.058
				c1.12,0,2.211-0.207,2.947-0.383c1.799-0.324,3.42-0.826,5.425-1.71l0.797-0.324c0.648,2.034,1.385,3.655,2.241,5.071
				c0.442,0.737,1.002,1.415,1.827,2.152c1.002,0.913,2.3,1.356,3.686,1.827l1.149,0.236l1.061,0.147l1.062,0.147l1.297,0.058
				c1.091,0,2.182-0.089,3.272-0.294c1.739-0.324,3.184-0.766,4.481-1.415c0.737-0.324,1.415-0.707,2.064-1.149l1.857-1.356
				c0.854-0.619,1.444-1.238,1.709-2.241c0.089-0.325,0.118-0.619,0.147-0.914c0-0.708-0.176-1.387-0.531-1.975
				C174.522,270.172,173.667,269.553,172.783,269.317z"/>
			<path d="M132.424,235.289c0.294,0.914,0.56,1.562,1.002,2.388c0.294,0.56,0.797,1.061,1.267,1.562l0.855,0.737
				c0.648,0.59,1.356,0.973,2.8,1.503c0.648,0.147,1.297,0.265,1.946,0.324c0,0,0.265,0,0.354,0c0.029,0,0.029,0,0.029,0
				s0.029,0,0.089,0c0.029,0,0.118,0,0.176,0c0.06,0,0.118,0,0.118,0c0.058,0,0.147,0,0.236,0c0.826,0,1.563-0.058,2.3-0.206
				c1.091-0.207,2.152-0.501,3.243-0.797l1.031-0.354l1.18-0.442c0.147,0.324,0.354,0.707,0.56,1.091
				c0.826,1.445,1.326,2.329,2.181,3.332c0.766,0.826,1.415,1.534,2.211,2.005c1.356,0.826,2.477,1.356,3.802,1.445l0.797,0.029
				c0.766,0,1.415-0.058,2.034-0.147c1.002-0.207,1.946-0.383,2.919-0.708c2.329-0.796,4.392-2.152,6.663-3.715
				c0.944-0.679,1.444-1.327,1.651-2.152c0.089-0.294,0.118-0.59,0.147-0.884c0-0.679-0.178-1.327-0.501-1.887
				c-0.472-0.826-1.238-1.387-2.182-1.68c-0.236-0.06-0.59-0.147-0.944-0.147c-0.707,0-1.356,0.176-1.827,0.532
				c-1.917,1.356-3.597,2.446-5.454,3.301c-0.855,0.325-1.739,0.56-3.154,0.766c-0.383-0.089-0.826-0.236-1.209-0.501
				c-0.648-0.53-0.914-0.796-1.149-1.091l-0.884-1.209c-0.53-0.796-0.766-1.149-1.062-1.503c-0.324-0.442-0.648-0.855-1.002-1.238
				c-0.56-0.442-0.884-0.707-1.267-0.914c-0.443-0.324-1.002-0.354-1.887-0.414l-1.415,0.176c-0.59,0.266-1.149,0.532-1.71,0.797
				c-1.592,0.619-3.184,1.12-4.953,1.445c-0.294,0.029-0.619,0.058-0.944,0.058c-0.265,0-0.56-0.029-0.855-0.058
				c-1.651-0.855-1.68-0.855-1.709-0.855c-0.178-0.176-0.383-0.383-0.826-0.826c-0.206-0.383-0.354-0.855-0.472-1.534
				c-0.058-0.414-0.089-0.855-0.089-1.267c0.294-2.388,0.619-3.95,0.973-5.572c0.383-1.621,0.973-3.184,1.592-4.717
				c0.442-0.973,0.914-1.827,1.445-2.742c0.589-0.649,1.149-1.18,2.093-1.857c0.442-0.236,0.737-0.619,0.884-1.12
				c0.089-0.914,0-1.238-0.176-1.533c-0.325-0.59-0.944-0.973-1.68-0.973c-0.354,0.001-0.678,0.09-0.973,0.266
				c-1.062,0.59-2.093,1.503-3.125,2.742c-1.12,1.356-1.798,2.947-2.624,4.953c-0.973,2.477-1.533,4.717-2.211,7.606
				c-0.294,1.238-0.383,2.064-0.501,3.332c0.029,0.354,0.029,0.708,0.029,1.031C132.336,234.228,132.395,234.759,132.424,235.289z"
				/>
			<path d="M354.24,236.851c1.267,1.18,2.919,2.211,4.688,2.89c0.973,0.383,2.005,0.737,3.125,0.854
				c0.56,0.06,1.062,0.089,1.563,0.089c0.442,0,0.914-0.029,1.385-0.118c1.031-0.207,1.946-0.383,2.919-0.708
				c0.707-0.236,1.415-0.589,2.417-1.091c0.707-0.383,1.445-0.944,2.123-1.503c0.944-0.797,1.739-1.652,2.565-2.594
				c0.855-0.944,1.621-2.005,2.329-3.037l0.679-1.031l0.472-0.766c0.619,0.383,1.297,0.766,1.975,1.18l1.827,1.031
				c1.297,0.707,2.624,1.267,3.98,1.769c0.737,0.176,1.385,0.294,2.093,0.383l1.267,0.058c0.53,0,1.15-0.029,1.857-0.207
				c0.619-0.058,1.238-0.206,1.857-0.383c0.679-0.265,1.356-0.53,2.005-0.826c0.679-0.324,1.297-0.707,1.799-1.149
				c0.944-0.766,1.68-1.533,2.417-2.477c1.031-1.297,1.916-2.683,2.8-4.127l2.27,0.973c0.59,0.265,1.267,0.324,2.506,0.412
				l1.031-0.058c0.679-0.058,1.297-0.176,1.946-0.354l0.884-0.354c0.737-0.265,1.534-0.707,2.27-1.267
				c0.944-0.619,1.709-1.415,2.564-2.388c1.503-1.68,2.3-3.891,3.302-6.663c0.118-0.354,0.176-0.648,0.176-0.973
				c0-0.531-0.118-1.091-0.414-1.592c-0.471-0.944-1.297-1.621-2.27-1.887c-0.354-0.089-0.648-0.147-0.973-0.147
				c-0.617,0.004-1.236,0.18-1.797,0.505c-0.944,0.53-1.326,1.356-1.651,2.152l-0.354,0.915c-0.472,1.002-0.973,2.005-1.592,2.947
				c-0.354,0.414-0.797,0.766-1.238,1.18c-0.414,0.324-0.766,0.53-1.149,0.737c-0.59,0.147-0.884,0.206-1.297,0.206
				c-0.944-0.176-1.827-0.472-3.332-0.943c-0.501-0.147-0.944-0.236-1.799-0.236c-1.385,0.118-2.093,0.354-2.653,0.707
				c-1.031,0.59-1.651,1.739-2.388,3.155c-0.619,1.12-1.327,2.211-2.241,3.537c-0.383,0.383-0.796,0.826-1.267,1.179
				c-0.325,0.236-0.766,0.531-1.592,0.884l-0.855,0.236c-0.325,0.089-0.679,0.147-1.002,0.207h-1.091
				c-0.442-0.058-1.031-0.176-1.621-0.412l-1.563-0.619c-1.179-0.53-2.299-1.12-3.419-1.739l-0.973-0.56l-1.621-0.65l-1.387-0.206
				l-1.326,0.176c-0.501,0.118-0.944,0.472-1.592,1.031c-0.266,0.324-0.501,0.679-0.737,1.031c-0.206,0.414-0.442,0.855-0.677,1.267
				c-0.59,1.002-1.209,1.974-1.917,2.918c-0.383,0.501-0.766,1.002-1.209,1.503c-0.56,0.737-1.267,1.415-2.182,2.064
				c-0.589,0.414-1.238,0.797-1.946,1.149c-0.619,0.236-1.238,0.442-1.887,0.619l-0.914,0.176l-1.002,0.089v-0.089l-1.062-0.147
				c-0.679-0.147-1.385-0.383-2.123-0.707c-0.797-0.414-1.592-0.855-2.388-1.387c-0.884-0.766-1.71-1.592-2.535-2.624
				c-0.383-0.53-0.737-1.061-1.062-1.651c-0.412-1.002-0.678-1.857-0.796-2.653c-0.118-0.826-0.944-1.385-2.152-1.385
				c-1.091,0.265-1.621,1.002-1.592,2.005C349.345,231.811,352.057,234.935,354.24,236.851z"/>
			<path d="M438.355,232.313c-0.358,0-0.682,0.058-1.066,0.147c-1.709,0.472-2.947,2.152-2.918,3.92
				c0,0.354,0.058,0.679,0.147,1.002c0.236,0.884,0.472,1.798,0.648,3.066l0.176,0.884l-0.058-0.029
				c-0.501,0.914-0.501,0.944-0.501,0.973c-0.648,0.708-1.356,1.415-2.182,2.064c-0.678,0.443-1.356,0.855-2.093,1.209
				c-0.383,0.147-0.766,0.266-1.149,0.383c-0.914,0.147-1.267,0.147-1.621,0.147c-0.354,0-0.707,0-1.061-0.029
				c-0.325-0.058-0.648-0.147-0.944-0.265l-1.091-0.53l-1.15-0.59c-0.915-0.442-1.474-0.59-2.83-0.679
				c-0.442,0-0.797,0.06-1.179,0.147c-1.681,0.472-2.683,2.123-3.479,3.626c-0.354,0.737-0.766,1.415-1.209,2.123l-0.443,0.737
				c-1.179,1.946-2.359,3.833-3.684,5.69c-0.414,0.472-0.884,0.914-1.415,1.385l-0.56,0.59l-0.029-0.06l-1.031,0.56
				c-0.029,0.029-0.414,0.178-0.414,0.207c0.029,0.029-0.294,0.176-0.265,0.207c-0.058-0.029-0.118-0.029-0.147-0.029
				c-1.415,0-1.445,0.029-1.474,0.058c-1.267-0.324-2.535-0.707-3.804-1.208c-0.973-0.443-1.857-0.915-2.8-1.474
				c-0.325-0.206-0.648-0.412-0.973-0.648c0,0-0.707-0.442-0.707-0.472c-0.648-0.412-1.327-0.855-2.064-1.209
				c-0.766-0.414-1.621-0.648-2.359-0.648c-1.091,0-2.005,0.412-2.771,0.796c-0.56,0.266-0.973,0.855-1.592,1.739
				c-0.207,0.472-0.414,0.944-0.59,1.415c-0.236,0.53-0.472,1.091-0.679,1.621l-0.914,2.27l-0.383,0.944l-0.442,0.944l-0.442,0.915
				c-0.443,1.002-1.002,1.916-1.621,2.829c-0.501,0.56-1.031,1.091-1.652,1.621c-0.354,0.236-0.737,0.472-1.15,0.648
				c-0.443,0.147-0.884,0.294-1.356,0.414h-0.737l-0.914-0.118c-0.914-0.236-1.474-0.354-2.005-0.56
				c-1.71-0.737-3.39-1.739-5.631-3.332l-1.385-1.179l-1.445-1.18c-1.031-0.884-1.974-1.444-2.8-1.651
				c-0.472-0.118-0.914-0.176-1.267-0.176c-0.973,0-1.71,0.294-2.241,0.855c-0.442,0.501-1.062,1.267-1.356,2.27l-0.236,0.884
				l-0.443,1.68l-0.383,1.474c-0.56,2.152-1.12,4.305-1.975,6.368c-0.472,0.944-0.973,1.798-1.563,2.712
				c-0.648,0.707-1.267,1.326-2.034,1.916c-0.383,0.294-0.797,0.531-1.238,0.737c-0.53,0.176-1.002,0.325-1.621,0.472l-1.002,0.176
				l-0.826,0.207v-0.089l-0.884-0.058c-0.619-0.089-1.209-0.236-1.857-0.472c-0.442-0.207-0.884-0.472-1.327-0.766
				c-0.324-0.265-0.648-0.56-0.973-0.914c-0.708-0.973-1.297-1.975-1.799-3.066c-0.53-1.503-0.884-3.037-1.179-4.659
				c-0.118-1.385-0.176-2.771-0.176-4.04c0-1.267,0.058-2.417,0.147-3.419c0.089-0.855,0.236-1.68,0.414-2.477
				c0.147-1.857-0.797-2.889-2.388-3.243h-0.029c-1.209,0-2.27,0.796-2.506,1.857c-0.589,2.594-0.855,5.218-0.855,7.842
				c0.029,3.39,0.531,6.634,1.503,9.64c0.679,2.035,1.828,4.01,3.42,5.867c0.855,1.002,2.152,1.799,3.332,2.447
				c1.297,0.737,2.742,0.973,4.127,1.179c0.56,0.089,1.091,0.118,1.651,0.118c1.857,0,3.686-0.414,5.307-1.149
				c1.297-0.619,2.624-1.327,3.715-2.329c1.12-1.062,2.034-2.182,2.919-3.39c0.797-1.179,1.356-2.506,2.005-4.127
				c0.472-1.238,0.796-2.535,1.12-3.833l0.207-0.737l0.265-1.12l0.265-0.766c1.474,0.944,3.007,2.211,4.628,3.39
				c1.681,1.238,3.42,2.211,5.16,2.831c1.238,0.442,2.241,0.707,3.214,0.826c0.472,0.089,0.944,0.147,1.385,0.147
				c0.325,0,0.648-0.029,1.002-0.089c0.678-0.058,1.326-0.176,1.975-0.354c0.707-0.118,1.385-0.442,2.506-0.944l1.209-0.707
				l1.562-1.209c1.652-1.621,2.948-3.479,4.009-5.661c0.501-1.031,0.944-2.064,1.356-3.125l1.062-2.8l0.206-0.854l0.06,0.058
				l1.061,0.707c0.59,0.414,1.18,0.826,1.799,1.209c0.56,0.354,1.15,0.679,2.093,1.12c0.884,0.443,1.799,0.855,2.712,1.209
				c0.855,0.354,1.739,0.619,2.624,0.826c0.679,0.147,1.385,0.236,2.123,0.236c0.383,0,0.766,0,1.149-0.058
				c1.946-0.147,3.804-0.884,5.896-2.3c1.385-0.973,2.595-2.181,3.686-3.715c1.209-1.592,2.299-3.243,3.272-5.013l1.975-3.684
				l1.327,0.737c1.326,0.56,2.712,0.855,4.481,0.973c1.327,0,2.564-0.178,3.891-0.414c1.857-0.354,3.597-1.268,5.071-2.093
				c1.002-0.59,1.946-1.385,3.037-2.359c0.944-0.796,1.799-1.916,2.624-3.45c0.59-1.12,0.855-2.359,0.855-3.773
				c0-2.152-0.619-4.274-1.149-5.984C441.686,233.521,440.123,232.313,438.355,232.313z"/>
			<path d="M240.005,342.772c0.294-2.299,0.56-4.57,0.766-6.869l0.118-0.944c0.236-2.27,0.472-4.51,0.53-6.78
				c0.207-5.572,0.147-10.967-0.147-16.096c-0.089-2.152-1.68-3.744-3.715-3.744c-2.034,0-3.655,1.651-3.715,3.744l-0.089,2.211
				c-0.147,4.305-0.294,8.639-0.56,12.942c-0.236,4.186-0.797,8.343-1.356,12.501l-0.147,0.737c-0.029,0.176-0.06,0.383-0.089,0.56
				l0.118-0.354c-0.383,2.535-0.766,5.071-1.18,7.606c-0.766,4.864-1.562,9.877-3.361,14.534c-0.176,0.383-0.383,0.737-0.679,1.149
				c-0.324,0-0.679-0.029-1.031-0.058c-4.098-0.708-8.107-1.415-11.969-2.8c-0.766-0.354-1.474-0.766-2.211-1.238
				c-0.383-0.325-0.708-0.648-1.031-1.002c0-0.029-0.294-0.855-0.325-0.855c0.089-1.327,0.207-2.624,0.354-3.862
				c1.149-8.107,2.742-16.096,4.746-23.791c2.093-8.049,4.805-16.628,8.254-26.238c0.324-0.914,0.236-1.946-0.266-2.89
				c-0.56-1.12-1.562-1.946-2.682-2.27c-0.324-0.089-0.648-0.118-1.091-0.118c-1.799,0-3.39,1.179-4.069,3.066
				c-3.302,9.169-5.955,17.512-8.136,25.501c-2.093,7.784-3.833,15.684-5.278,24.174c-0.383,2.241-0.737,4.481-0.973,6.751
				l0.089,0.766c0.029,0.648,0.118,1.297,0.294,1.975c0.206,0.737,0.56,1.444,1.149,2.653c0.165,0.301,0.399,0.621,0.715,1.044
				c-0.002,0.006-0.005,0.012-0.007,0.018c0.029,0,0.029,0.029,0.058,0.06c0,0.029,0,0.029-0.029,0.058
				c0.002,0.002,0.005,0.005,0.007,0.007c-0.491,1.305-0.928,2.61-1.363,3.915c-0.56,1.917-0.855,3.951-1.149,6.073
				c-0.324,2.507-0.501,5.013-0.648,7.548c-0.058,0.619,0,1.209,0.089,1.798c0.089,0.797,0.236,1.652,0.648,2.507
				c0.737,1.474,1.71,2.742,2.594,3.744c0.53,0.619,1.149,1.209,2.093,2.093c0.797,0.737,1.621,1.297,2.506,1.887
				c0.797,0.501,1.828,0.797,3.066,1.18c0.707,0.147,1.444,0.265,2.182,0.354c0.914,0.118,1.769,0.207,2.653,0.207
				c0.472,0,0.973-0.029,1.474-0.089c1.534-0.089,3.007-0.501,4.393-0.944c0.471-0.147,0.943-0.325,1.385-0.56l0.914-0.354
				c0.795-0.354,1.503-0.826,2.093-1.415c1.179-0.884,2.181-2.005,3.184-3.568c0.884-1.385,1.474-2.978,2.005-4.481
				c0.207-0.589,0.414-1.179,0.56-1.798c0.414-1.71,0.648-3.597,0.737-5.896c0.089-1.534-0.973-3.096-2.653-3.892
				c-0.089-0.029-0.176-0.058-0.266-0.089c-0.151-0.042-0.294-0.009-0.445-0.034c0.097-0.027,0.203-0.022,0.298-0.054
				c-0.058-0.029-0.089-0.029-0.147-0.058c1.444-0.443,2.8-1.327,3.891-2.595c1.445-1.592,2.27-3.655,2.919-5.453
				c0.914-2.653,1.474-5.513,1.887-7.96C238.827,352.264,239.415,347.518,240.005,342.772z M226.685,373.488
				c-1.007,0.505-1.773,1.447-2.156,2.715c-0.265,0.737-0.501,1.445-0.619,2.211l-0.176,0.914l-0.147,0.884
				c-0.286,1.431-0.596,2.793-1.008,4.168c0.071-0.164,0.143-0.327,0.213-0.484c-0.081,0.208-0.166,0.411-0.254,0.613
				c-0.028,0.092-0.057,0.185-0.085,0.276c-0.168,0.372-0.317,0.749-0.516,1.116c-0.176,0.354-0.472,0.855-1.179,1.71
				c0,0,0.144-0.234,0.193-0.35c-0.084,0.097-0.168,0.187-0.251,0.291c0.088-0.117,0.175-0.234,0.263-0.321
				c0.005-0.016,0.007-0.028,0.002-0.033c0,0,0,0,0.029-0.058l-0.294,0.324c-0.766,0.501-1.562,0.914-2.417,1.327
				c-0.973,0.354-1.916,0.619-2.947,0.855c-0.501,0-1.031,0.029-1.534,0.029c-0.619,0-1.238-0.029-1.887-0.06
				c-0.59-0.089-1.12-0.265-1.621-0.472c-0.501-0.265-0.973-0.56-1.444-0.884c-1.062-0.884-2.064-1.799-2.978-2.89
				c-0.207-0.294-0.414-0.619-0.59-0.943c-0.118-0.354-0.236-0.679-0.294-1.062c0-2.241,0.207-4.51,0.472-7.43
				c0.294-1.946,0.648-3.891,1.149-5.778c0.147-0.56,0.294-1.12,0.501-1.68c0.011,0,0.036,0.012,0.067,0.026
				c0.053,0.026,0.121,0.063,0.14,0.063c0.029,0,0.236,0.089,0.236,0.118c0.944,0.589,2.034,1.031,2.978,1.415
				c1.149,0.442,2.27,0.826,3.45,1.179c0.648,0.176,1.327,0.354,2.624,0.648c1.917,0.472,3.892,0.766,5.867,1.031
				c1.166,0.195,2.272,0.328,3.448,0.452c0.284,0.011,0.574-0.002,0.861-0.005c-0.07,0.033-0.153,0.034-0.221,0.071
				C226.601,373.478,226.643,373.483,226.685,373.488z"/>
			<path d="M301.622,343.037c-0.176-1.415-0.354-2.831-0.531-4.57c-0.058-0.354-0.089-0.707-0.147-1.062v0.59
				c-0.53-4.953-1.002-9.846-1.209-14.8c-0.207-5.1-0.354-10.171-0.501-15.241c-0.089-2.241-1.827-3.98-3.98-3.98
				c-1.031,0-2.035,0.414-2.8,1.149c-0.797,0.796-1.031,1.71-1.149,2.831c-0.648,5.719-0.56,11.262-0.354,15.949
				c0.147,5.041,0.589,10.23,1.297,15.388c0,0,0,0.029-0.029,0.029l0.294,2.005l0.442,3.273c0.354,2.682,0.679,5.365,0.855,8.078
				c0.118,2.653,0.058,5.247-0.236,7.989c-0.325,1.68-0.679,3.243-1.298,4.953c-0.118,0.266-0.265,0.531-0.826,1.12
				c-0.147,0.06-0.324,0.118-0.472,0.178c-0.089,0.029-0.176,0.058-0.265,0.089c-0.027,0.027-0.049,0.027-0.054,0.027
				c0.028-0.026,0.056-0.028,0.085-0.056c-0.147,0.058-0.325,0.089-0.531,0.147c-1.651-0.383-3.243-1.002-5.129-1.769
				c-0.029,0-0.058-0.029-0.089-0.029c0-0.029,0-0.029,0-0.029h-0.029l-1.857-0.826l-1.857-0.826l-1.297-0.56
				c-1.18-0.501-2.388-1.031-3.655-1.769c-0.619-0.324-1.209-0.677-1.769-1.061c-0.06-0.029-0.089-0.089-0.147-0.147
				c-0.029-0.058-0.058-0.118-0.118-0.176c-0.029-0.029-0.089-0.058-0.118-0.089c-0.118-0.442-0.265-0.914-0.354-1.445
				c0-0.206-0.029-0.412-0.029-0.619c0-0.058-0.029-0.147-0.029-0.207c0,0.06,0.029,0.118,0.029,0.176
				c-0.147-3.684,0.294-7.459,0.737-11.114l0.147-1.474c0.354-2.919,0.737-5.808,1.12-8.697l0.354-2.742
				c1.12-8.432,2.005-16.893,2.889-25.354c0.118-0.854-0.207-1.709-0.826-2.417c-0.766-0.855-1.917-1.385-2.978-1.385
				c-1.002,0-2.005,0.383-2.713,1.12c-0.766,0.766-0.973,1.621-1.091,2.682c-0.884,8.372-1.769,16.717-2.831,25.06l-0.56,4.363
				c-0.795,6.044-1.592,12.294-1.827,18.456c-0.089,1.68,0.058,3.45,0.501,5.425c0.089,0.412,0.207,0.854,0.354,1.415
				c0.148,0.327,0.384,0.614,0.577,0.925c-0.069,0.144-0.239,0.216-0.283,0.373c0,0.058,0.029,0.147,0.029,0.206l-0.59,3.007
				l-0.56,3.007c-0.826,4.305-0.854,8.608-0.147,12.883c0.325,2.064,0.855,3.833,1.651,5.543c0.294,0.589,0.797,1.297,1.534,2.093
				c0.56,0.648,1.12,1.238,1.769,1.799c1.739,1.474,3.862,2.8,6.486,4.04c0.707,0.325,1.445,0.619,2.182,0.855
				c0.884,0.294,1.946,0.383,2.947,0.472l1.002,0.089c0.412,0.058,0.826,0.089,1.238,0.089c1.592,0,3.302-0.354,4.953-1.031
				c1.091-0.442,2.064-0.944,3.096-1.503c0.619-0.354,1.209-0.855,2.093-1.651c1.267-1.062,2.359-2.507,3.45-4.57
				c2.035-3.891,3.037-8.608,3.096-14.858c0-1.437-0.734-2.813-2.019-3.727c0.005-0.007,0.009-0.012,0.014-0.018
				c-0.029,0-0.029-0.029-0.06-0.029c0.325-0.56,0.619-1.12,0.915-1.68c0.943-1.887,1.415-3.92,1.827-6.398
				c0.414-2.329,0.59-4.923,0.59-7.9c0-3.715-0.56-7.459-1.062-11.115L301.622,343.037z M290.594,367.035c0.029,0,0.03,0,0.058,0
				c-0.06,0.029-0.118,0.029-0.176,0.06C290.505,367.065,290.565,367.065,290.594,367.035z M290.743,384.605
				c-0.383,0.826-0.826,1.562-1.327,2.329c-0.325,0.354-0.648,0.679-1.031,1.002c-0.707,0.472-1.445,0.855-2.211,1.238
				c-0.501,0.147-1.002,0.294-1.534,0.383l-1.149,0.029c-0.619,0-1.238-0.029-1.887-0.089c-1.444-0.324-2.83-0.766-4.186-1.326
				c-0.797-0.414-1.562-0.826-2.359-1.298c-0.442-0.354-0.855-0.737-1.238-1.15l-0.383-0.648c-0.383-1.031-0.619-2.064-0.855-3.184
				c-0.294-3.007-0.324-5.454-0.118-7.695c0.265-1.799,0.619-3.568,0.944-5.336c0,0,0.004-0.009,0.005-0.012
				c0.001,0,0.002,0.001,0.002,0.001c0.009-0.01,0.022-0.029,0.022-0.049c0.029,0,0.029,0,0.029,0c0.029,0,0.029,0,0.058,0.029
				c0.766,0.383,1.563,0.737,2.359,1.12l1.887,0.914l1.68,0.826l2.507,1.238l1.179,0.531l1.769,0.826
				c0.648,0.294,1.297,0.589,1.975,0.855c0.884,0.354,1.917,0.707,3.066,0.707h0.029c0.792,0,1.562-0.071,2.475-0.127
				c0.04-0.007,0.079-0.013,0.119-0.02c0.039-0.01,0.083-0.021,0.121-0.032c-0.001,0.012-0.003,0.025-0.006,0.037
				c0.03-0.002,0.06-0.003,0.09-0.006C292.306,378.65,291.834,381.716,290.743,384.605z"/>
			<path d="M510.347,248.992c-0.796-2.329-1.68-4.599-2.682-6.84c-3.155-7.194-7.282-13.944-11.852-20.343
				c-2.211-3.125-4.452-6.25-6.663-9.405c-2.506-3.626-5.218-7.076-7.931-10.554c-1.12-1.415-2.447-2.712-3.655-4.039
				c-1.356-1.503-2.889-2.889-4.392-4.245c-4.924-4.423-9.877-8.904-15.773-11.94c-6.014-3.096-12.648-4.57-19.192-5.955
				c-6.25-1.326-12.441-2.446-18.868-2.506c-0.294,0-0.589,0-0.884,0c-4.423,0-8.904,0.414-13.325,0.737
				c-4.009,0.265-8.018,0.59-11.998,0.915c-7.989,0.619-15.978,1.857-23.615,4.333c-12.323,4.04-24.499,8.668-36.085,14.505
				c-2.594,1.298-5.247,2.507-7.784,3.951c-3.537,2.035-7.105,4.069-10.642,6.103c-0.234,0.134-0.44,0.298-0.671,0.438
				c0.006-0.028,0.015-0.055,0.022-0.083c1.621-7.842,2.919-15.773,3.184-23.762c0.147-3.951,0.058-7.813-0.207-11.733
				c-0.294-4.009-1.267-7.989-2.329-11.851c-0.501-1.857-1.18-3.686-1.857-5.483c-1.15-3.096-2.624-6.191-4.393-8.962
				c-2.241-3.537-4.57-7.076-7.37-10.23c-2.447-2.8-5.188-5.365-7.842-7.989c-2.978-2.889-6.103-5.601-9.522-7.931
				c-6.369-4.363-13.443-7.606-20.902-9.463c-3.922-0.973-7.901-1.621-11.94-1.828c-0.383-0.029-0.766-0.029-1.12-0.029
				c-2.123,0-4.245,0.324-6.279,0.619c-2.742,0.414-5.247,1.534-7.724,2.653c-0.737,0.324-1.444,0.707-2.152,1.12
				c-3.744,1.002-7.281,2.417-10.79,4.186c-3.39,1.71-6.751,3.833-9.787,6.133c-1.799,1.356-3.626,2.682-5.306,4.186
				c-1.71,1.503-3.361,3.066-4.982,4.658c-4.599,4.599-8.55,10.053-11.321,15.949c-3.566,7.666-6.898,15.507-8.401,23.88
				c-0.737,4.216-1.385,8.461-1.621,12.735c-0.118,2.005-0.178,4.01-0.178,6.044c-0.029,2.152,0.325,4.305,0.59,6.427
				c0.186,1.412,0.424,2.826,0.699,4.231c-0.871-0.422-1.72-0.867-2.585-1.306c-3.361-1.68-6.78-3.272-10.23-4.835
				c-3.862-1.739-7.753-3.626-11.733-5.129c-2.005-0.766-4.01-1.534-6.014-2.299c-2.005-0.766-4.158-1.267-6.221-1.917
				c-6.722-2.064-13.856-2.417-20.842-2.978c-4.098-0.294-8.225-0.383-12.323-0.501c-1.68-0.058-3.39-0.089-5.071-0.089
				c-1.71,0-3.419,0.029-5.129,0.118c-6.191,0.294-12.235,1.444-18.16,3.361c-3.272,1.062-6.427,2.506-9.612,3.862
				c-4.245,1.827-8.136,4.186-11.969,6.751c-3.655,2.477-7.252,5.16-10.643,7.989c-1.533,1.298-3.154,2.507-4.628,3.862
				c-1.799,1.71-3.626,3.42-5.454,5.131c-2.86,2.682-5.454,5.631-8.078,8.519c-2.446,2.712-4.864,5.483-7.194,8.314
				c-2.947,3.568-6.073,7.105-8.755,10.907c-7.134,10.142-14.977,20.578-17.601,32.96C0.266,271.728,0,273.114,0,274.528
				c0.089,0.855,0.236,1.651,0.443,2.447c0.324,0.766,0.648,1.534,0.973,2.3c1.652,2.8,4.127,5.365,7.371,6.25
				c1.709,0.472,3.45,0.707,5.247,0.796c1.709,0.06,3.508-0.354,5.188-0.619c3.361-0.56,6.693-2.035,9.788-3.361
				c2.86-1.238,5.66-2.594,8.401-4.038c0.118-0.06,0.207-0.118,0.325-0.176c-0.147,1.061-0.266,2.123-0.383,3.212
				c-0.207,2.005-0.176,4.069,0,6.073c0.089,0.884,0.236,1.798,0.412,2.682c0.176,1.002,0.766,2.564,1.297,3.39
				c0.414,0.737,0.915,1.415,1.474,2.064c0.855,0.826,1.769,1.503,2.713,2.211c0.973,0.679,2.181,1.002,3.243,1.445
				c1.002,0.412,2.624,0.589,3.655,0.619c4.334,0.176,8.314-1.385,12.087-3.479c3.243-1.799,6.309-4.156,9.109-6.604
				c0.501-0.443,1.002-0.855,1.503-1.297c0,0.058,0,0.118-0.029,0.176c-0.176,3.92-0.176,7.871,0.915,11.675
				c0.589,2.034,1.709,3.92,3.036,5.572c1.562,1.946,3.479,3.184,5.778,4.098c4.688,1.827,9.581,1.444,14.239-0.236
				c5.396-1.916,10.142-5.188,14.859-8.372c1.445-1.002,2.947-1.975,4.423-2.978c0.619-0.443,1.267-0.884,1.916-1.298
				c0.766,2.742,1.209,5.601,1.799,8.372c1.445,6.663,4.452,14.033,10.407,17.895c2.477,1.592,5.278,2.713,8.136,3.39
				c3.39,0.826,6.869,0.383,10.23-0.383c1.091-0.265,2.152-0.679,3.214-1.12c0.118,1.445,0.265,2.86,0.472,4.305
				c0.176,1.267,0.472,2.477,0.884,3.686c0.708,2.152,1.917,3.802,3.39,5.483c1.031,1.209,2.565,2.123,3.951,2.831
				c2.005,1.031,4.245,1.651,6.516,1.799c3.017,0.204,5.959-0.567,8.836-1.501c-0.688,3.505-1.352,7.014-1.967,10.545
				c-1.356,7.872-2.86,15.714-4.274,23.585c-1.415,7.813-2.447,15.684-3.597,23.526c-1.267,8.579-3.184,17.04-4.04,25.708
				c-0.265,2.829-0.236,5.69,0.089,8.519c0.236,1.975,0.619,3.802,1.503,5.601c0.679,1.385,1.503,2.564,2.447,3.744
				c2.152,2.742,4.599,4.982,7.518,6.869s6.309,2.535,9.699,2.86c3.155,0.265,6.486-0.383,9.552-1.031
				c1.563-0.324,3.066-0.797,4.599-1.209c2.005-0.544,3.985-1.181,5.969-1.794c-0.319,2.965-0.638,5.926-0.958,8.899
				c-0.147,1.592-0.325,3.184-0.442,4.746c-0.354,4.541-0.383,9.022,0,13.561c0.089,1.385,0.324,2.771,0.56,4.156
				c0.324,1.828,1.031,3.568,1.827,5.218c1.297,2.742,3.537,4.688,5.837,6.574c1.091,0.914,2.211,1.798,3.332,2.682
				c1.002,0.826,2.005,1.562,3.096,2.241c1.298,0.826,2.772,1.297,4.276,1.474c0.589,0.118,1.179,0.176,1.769,0.147
				c0.707-0.089,1.385-0.207,2.093-0.294c0.649-0.147,1.267-0.354,1.887-0.59c1.091-0.412,1.946-0.944,2.889-1.621
				c2.653-1.916,4.452-4.746,5.808-7.666c1.444-3.096,2.241-6.368,2.624-9.729c0.206-1.534,0.442-3.066,0.56-4.57
				c0.206-3.037,0.354-6.073,0.412-9.109c0.077-2.488-0.096-4.934-0.367-7.392c0.384-0.107,0.785-0.193,1.163-0.303
				c2.771-0.797,5.483-1.562,8.372-2.034c2.742-0.294,5.396-0.265,8.107,0.029c2.034,0.354,4.009,0.796,6.014,1.238
				c3.243,0.737,6.456,1.387,9.787,1.77c4.113,0.479,8.212-0.271,12.086-1.649c-0.014,0.091-0.046,0.169-0.057,0.264
				c-0.442,3.804-0.884,7.577-1.12,11.38c-0.207,3.243,0.118,6.515,0.648,9.699c0.501,3.096,1.68,6.133,3.243,8.815
				c1.387,2.359,3.479,4.186,5.631,5.749c0.914,0.648,1.975,1.149,3.007,1.562c0.501,0.176,0.973,0.383,1.503,0.531
				c0.501,0.118,1.031,0.176,1.592,0.236c0.679-0.089,1.385-0.176,2.064-0.265c0.679-0.176,1.327-0.414,1.975-0.708
				c1.267-0.56,2.359-1.297,3.479-2.093c2.123-1.563,3.92-3.715,4.953-6.162c0.619-1.474,1.031-2.947,1.385-4.54
				c0.147-0.797,0.265-1.621,0.414-2.417c0.826-4.982,1.503-10.024,1.503-15.094c0-2.447-0.029-4.893-0.147-7.341
				c-0.062-1.493-0.125-2.977-0.246-4.453c3.384,0.244,6.768,0.499,10.153,0.944c1.356,0.178,2.682,0.325,4.068,0.383
				c2.447,0.089,4.864-0.677,7.076-1.651c1.827-0.795,3.419-2.005,4.775-3.45c2.005-2.152,3.036-4.982,3.684-7.813
				c1.209-5.277,1.238-10.702,0.797-16.067c-0.207-2.417-0.56-4.835-0.914-7.223c-0.029-0.265-0.06-0.531-0.089-0.797
				c-0.029-0.029-0.029-0.058-0.029-0.118c0,0.029,0,0.06,0.029,0.089c-0.029-0.118-0.058-0.207-0.058-0.325
				c0,0.029,0,0.058,0,0.089c-0.53-3.951-1.267-7.871-1.975-11.762c-0.679-3.773-1.356-7.548-2.093-11.292
				c-1.592-7.842-3.508-15.624-5.601-23.349c-3.16-11.63-6.139-23.319-9.136-34.998c1.352,0.235,2.723,0.333,4.154,0.152
				c3.597-0.472,6.81-1.651,10.112-3.096c2.595-1.12,4.717-3.036,6.84-4.805c1.209-1.031,2.329-2.123,3.39-3.272
				c2.182,1.326,4.776,2.181,7.312,2.564c1.445,0.207,2.8,0.325,4.276,0.294c1.297-0.029,2.653-0.265,3.951-0.472
				c2.947-0.414,5.808-1.002,8.608-2.093c2.712-1.061,5.071-2.564,7.341-4.363c1.002-0.766,1.887-1.562,2.742-2.477
				c1.149-1.238,2.093-2.682,3.066-4.009c0.944-1.267,1.799-2.653,2.535-4.069c1.356,1.267,2.8,2.447,4.305,3.568
				c2.565,1.946,5.779,3.066,8.875,3.892c3.802,0.973,7.842,0.59,11.586-0.412c2.919-0.766,5.808-2.005,8.432-3.48
				c2.919-1.651,5.247-3.98,7.43-6.486c2.889-3.39,5.16-7.134,6.869-11.174c1.12,0.826,2.27,1.562,3.479,2.241
				c5.247,2.948,11.38,3.007,17.04,1.297c5.807-1.769,9.905-6.486,12.706-11.615c1.562-2.831,2.8-5.837,3.744-8.873
				c0.147-0.501,0.265-0.973,0.354-1.474c1.474,0.826,2.978,1.621,4.541,2.388c3.802,1.917,7.784,3.804,12.027,4.452
				c1.534,0.236,2.948,0.354,4.481,0.324c1.415-0.029,2.918-0.412,4.274-0.766c2.8-0.737,5.425-2.564,7.281-4.746
				c1.857-2.152,3.066-4.688,3.862-7.37c0.383-1.18,0.53-2.447,0.796-3.686c0.619-3.243,1.062-6.663,1.031-9.935
				C511.999,254.21,511.173,251.498,510.347,248.992z M195.517,179.681c0.09-3.301,0.326-6.515,0.68-9.787
				c0.53-3.036,1.179-6.604,2.329-10.348c1.002-3.538,2.388-6.928,3.597-9.788l1.857-3.773c1.385-2.919,3.272-5.631,4.776-7.695
				c1.621-1.975,3.302-3.92,5.129-5.69c1.917-1.887,3.862-3.626,5.896-5.395c1.592-1.209,3.243-2.388,5.013-3.508
				c0.914,0.737,2.063,1.149,3.243,1.149c0.884,0,1.799-0.236,2.564-0.679c3.302-1.975,6.692-3.597,9.877-5.071
				c2.064-0.854,3.862-1.415,5.661-1.739c0.229-0.015,0.457-0.028,0.682-0.039c0.676-0.033,1.345-0.049,2.029-0.049
				c1.769,0,3.508,0.118,5.247,0.324c4.54,0.797,8.904,2.005,13.031,3.626c5.543,2.477,10.554,5.395,14.976,8.697
				c5.454,4.452,10.731,8.873,15.094,14.092c0.944,1.327,1.857,2.624,2.742,3.92c1.326,1.946,2.359,4.069,3.332,6.28
				c1.562,4.274,2.682,8.254,3.419,12.265c0.619,5.837,0.531,12.234-0.294,19.546c-0.737,4.392-1.68,8.755-2.712,13.089
				c-0.56,2.359-1.267,4.688-2.035,7.017c-0.589,1.798-1.385,3.597-2.181,5.365c-0.619,1.327-1.238,2.653-1.917,3.951
				c-0.008,0-0.067,0.04-0.146,0.095c-0.001,0.002-0.004,0.006-0.005,0.008c-0.192,0.131-0.562,0.398-0.585,0.398
				c-1.68,1.209-2.653,2.446-3.096,4.068c-0.133,0.508-0.199,1.058-0.214,1.658c-0.006,0.007-0.013,0.015-0.02,0.023
				c0,0.049-0.002,0.097-0.002,0.147c-2.005,2.299-4.276,4.481-6.751,6.515c-1.149,0.766-2.359,1.415-3.626,2.034
				c-1.945,0.723-3.954,1.298-6.027,1.743c0.034-0.001,0.069-0.004,0.1-0.004c-0.06,0.008-0.116,0.014-0.172,0.02
				c-0.354,0.075-0.709,0.148-1.067,0.217c-3.125,0.354-6.398,0.53-9.759,0.53c-4.423,0-9.051-0.294-14.121-0.914
				c-4.57-0.766-9.405-1.652-14.122-2.978c-4.392-1.209-8.844-2.742-13.62-4.628c-2.683-1.298-5.247-2.653-7.784-4.216
				c-2.035-1.238-3.98-2.683-5.896-4.158c-0.216-0.196-0.429-0.395-0.641-0.593c-0.244-0.192-0.486-0.38-0.715-0.556
				c0.227,0.162,0.444,0.333,0.661,0.507c-1.706-1.605-3.288-3.284-4.848-5.077c-1.975-2.682-4.481-6.279-6.456-10.259
				c-1.387-3.626-2.152-7.489-2.742-10.85C195.546,185.606,195.428,182.57,195.517,179.681z M169.132,328.866l-1.09,0.026
				l-1.179-0.383c-0.157-0.077-0.313-0.156-0.547-0.363c-0.044-0.026-0.088-0.051-0.132-0.078c0-0.029-0.029-0.029-0.029-0.06
				c-0.008-0.013-0.02-0.029-0.029-0.044c-0.072-0.072-0.15-0.154-0.236-0.251c-0.826-2.359-1.238-4.864-1.621-7.281l-0.147-0.914
				c-0.265-1.769-0.766-3.45-1.68-5.395l-1.415-1.828c-0.855-1.062-2.299-1.503-3.626-1.828c-0.472-0.118-1.002-0.176-1.534-0.176
				c-1.769,0-3.508,0.679-5.189,1.356l-1.12,0.414c-2.329,0.884-4.481,1.533-6.573,1.974c-0.414,0.029-0.826,0.029-1.238,0.029
				h-0.884c-1.297-0.265-2.535-0.619-3.773-1.061c-0.648-0.354-1.238-0.708-1.857-1.12c-0.56-0.531-1.061-1.091-1.562-1.681
				c-1.002-1.415-1.828-2.86-2.565-4.423c-0.884-2.27-1.503-4.628-2.152-6.987c-0.648-2.477-1.327-4.982-2.27-7.37
				c-0.56-1.327-1.149-2.713-2.27-3.773c-1.149-1.179-2.978-1.975-4.982-2.064c-1.474,0-2.713,0.236-3.98,0.679
				c-1.002,0.383-2.005,0.796-2.978,1.238c-3.45,1.503-6.722,3.508-9.846,5.425c-3.007,1.827-6.073,3.744-9.345,5.188
				c-1.18,0.472-2.388,0.855-3.655,1.149c-0.383,0.029-0.766,0.029-1.149,0.029h-0.829c-0.737-0.176-1.415-0.354-2.447-0.766
				l-0.766-0.826c-0.236-0.354-0.472-0.766-0.648-1.149c-0.383-1.12-0.679-2.211-0.855-3.39c-0.236-2.86-0.176-5.778-0.118-8.667
				l0.029-2.86c0.06-1.739-0.294-3.508-0.914-4.835c-0.797-1.592-1.769-2.477-3.361-3.066c-0.737-0.265-1.534-0.383-2.3-0.383
				c-0.56,0-1.061,0.058-1.533,0.176c-1.149,0.294-2.093,1.002-3.007,1.68c-1.651,1.179-3.272,2.417-4.893,3.655
				c-3.773,2.86-7.666,5.837-12.029,7.901c-1.031,0.383-2.005,0.707-3.094,0.944c-0.325,0-0.619,0-1.387-0.147
				c0,0-0.032-0.049-0.081-0.123c-0.098-0.055-0.186-0.098-0.272-0.143c-0.044-0.155-0.089-0.293-0.122-0.44
				c-0.062-0.088-0.107-0.15-0.116-0.15c-0.118-2.86,0.147-5.69,0.472-8.786l0.206-1.445l0.207-1.562l0.236-1.297
				c0.383-2.034,0.766-4.158,0.236-6.103c-0.354-1.209-0.796-2.477-1.827-3.508c-0.973-0.973-2.329-1.709-3.597-1.916
				c-0.59-0.118-1.12-0.176-1.651-0.176c-1.327,0-2.535,0.324-3.892,0.973c-0.826,0.414-1.592,0.855-2.889,1.652
				c-4.54,2.682-9.67,5.719-15.006,8.167c-1.975,0.826-4.657,1.827-7.606,2.417c-0.412,0.029-0.796,0.029-1.209,0.029
				c-0.412,0-0.796,0-1.799-0.207l-0.141-0.196c-0.063-0.043-0.127-0.085-0.183-0.127c-0.018-0.013-0.035-0.028-0.053-0.042
				l-0.361-0.252c0,0-0.324-0.678-0.354-0.678c0.53-2.742,1.297-5.396,2.329-8.137c3.45-7.635,8.491-14.505,13.385-21.138
				l0.561-0.797c6.221-7.399,11.615-13.385,16.981-18.838c2.742-2.771,5.601-5.453,8.519-8.018l1.18-1.031
				c1.12-1.031,2.27-2.064,3.479-3.007l1.415-1.12l3.214-2.506l2.241-1.592c2.152-1.563,4.334-3.096,6.574-4.57
				c3.686-2.477,6.84-4.216,9.877-5.543c1.326-0.59,2.653-1.18,3.98-1.739c5.454-2.123,10.053-3.45,14.534-4.156
				c3.686-0.383,7.695-0.59,12.205-0.59c2.8,0,5.601,0.089,8.372,0.176c5.986,0.207,11.35,0.414,16.864,1.031
				c4.127,0.648,7.989,1.68,11.557,2.713c1.857,0.501,3.715,1.149,5.572,1.828l1.503,0.53c3.125,1.091,6.191,2.388,9.257,3.715
				l2.712,1.12l1.71,0.737c1.385,0.59,2.771,1.18,4.127,1.857l2.742,1.297c1.769,0.796,3.568,1.621,5.247,2.595l4.186,2.388
				l4.625,2.672c0.001,0.001,0.001,0.002,0.002,0.005l0.041,0.021l0.077,0.044c0.028,0.04,0.055,0.078,0.083,0.119
				c0.005,0.003,0.009,0.007,0.015,0.01c2.264,3.271,4.446,6.122,6.712,8.65c2.772,3.125,6.369,5.572,9.788,7.813
				c1.002,0.648,2.005,1.268,3.007,1.946c0.092,0.053,0.193,0.088,0.284,0.14c-0.006,0.014-0.013,0.023-0.019,0.036
				c0.029,0,0.029,0.029,0.06,0.029c-2.182,5.247-4.305,10.495-6.427,15.743c-1.062,2.653-2.034,5.306-3.007,7.989l-0.884,2.447
				c-2.388,6.663-5.16,14.416-7.399,22.2c-2.359,8.136-4.688,16.303-6.928,24.499l-0.915,3.39
				c-1.68,6.132-3.332,12.265-4.923,18.485c0,0,0,0-0.029,0c0,0,0,0.001,0,0.002c-0.432-0.085-0.864-0.144-1.297-0.144
				c-0.59,0-1.209,0.089-1.769,0.236C173.732,327.805,171.433,328.453,169.132,328.866z M231.19,464.647
				c-0.265,3.066-0.56,6.133-0.884,9.169c-0.501,3.302-1.002,6.692-2.241,9.905c-0.679,1.474-1.415,2.86-2.329,4.186
				c-0.144,0.166-0.292,0.331-0.445,0.494c-0.037,0.044-0.076,0.086-0.115,0.125c0.005-0.007,0.009-0.012,0.015-0.019
				c-0.227,0.237-0.465,0.471-0.722,0.696c-0.414,0.294-0.826,0.531-1.297,0.766c-0.325,0.147-0.679,0.236-1.739,0.325
				c-0.412-0.118-0.796-0.236-1.209-0.383c-2.595-1.327-5.041-3.125-7.842-5.247c-0.53-0.501-1.062-0.944-1.534-1.534
				c-0.412-0.589-0.795-1.209-1.149-1.857c-0.56-1.385-0.973-2.86-1.268-4.539c-0.619-5.336-0.53-11.174,0.207-18.396l1.091-10.26
				c0-0.029,0.029-0.029,0.06-0.058c0,0,0,0,0.029,0h0.002h0.027c2.594,1.356,4.864,3.066,7.724,5.218
				c3.597,2.683,6.81,4.275,10.141,5.1c1.002,0.236,2.123,0.354,3.272,0.354c0.029,0,0.414,0,0.443,0.029l0.354,0.029
				c0.004,0,0.007-0.001,0.011-0.001l0.018,0.003C231.574,460.491,231.396,462.23,231.19,464.647z M307.164,472.518l-0.147,0.855
				c-0.442,3.301-0.884,6.722-2.093,9.846c-0.236,0.443-0.501,0.884-0.796,1.356c-0.53,0.679-1.12,1.267-1.739,1.827
				c-0.76,0.571-1.522,1.083-2.346,1.538c0.006-0.001,0.012-0.003,0.018-0.006c-0.012,0.006-0.025,0.01-0.037,0.018
				c-0.19,0.105-0.384,0.208-0.582,0.307c-0.294,0.089-0.619,0.178-1.062,0.236c-0.02-0.006-0.04-0.01-0.06-0.016
				c-0.225,0.025-0.451,0.05-0.677,0.075c0.213-0.027,0.426-0.053,0.661-0.079c-0.624-0.171-1.246-0.343-1.87-0.598
				c-0.826-0.383-1.592-0.826-2.359-1.356c-0.766-0.648-1.474-1.327-2.152-2.123c-0.707-1.031-1.268-2.064-1.799-3.214
				c-0.678-1.769-1.179-3.655-1.592-5.926c-0.294-2.682-0.354-5.453-0.176-8.49c0.176-2.477,0.472-4.953,0.766-7.459l0.294-2.507
				c0.054-0.625-0.292-1.325-0.808-1.984c-0.049-0.048-0.132-0.03-0.185-0.075c0.03-0.014,0.062-0.027,0.092-0.041
				c-0.014-0.018-0.028-0.035-0.043-0.053l2.241-1.091l2.919-1.385c1.562-0.531,3.096-0.973,4.746-1.298
				c0.973-0.058,1.917-0.089,2.889-0.089c1.905,0,3.812,0.118,5.774,0.35c0.001,0,0.002,0,0.002,0
				c0.01,0.001,0.021,0.002,0.03,0.003c0.029,1.356,0.147,2.742,0.266,4.098c0.118,1.68,0.265,3.332,0.294,4.982
				C307.694,464.912,307.547,468.774,307.164,472.518z M328.805,396.397c1.265,6.899,2.268,13.857,3.241,20.785
				c0.53,4.923,0.944,10.201,0.472,15.537c-0.207,1.298-0.472,2.535-0.914,3.862c-0.147,0.619-0.325,1.209-0.531,1.799
				c-0.058,0.118-0.118,0.207-0.176,0.324c-0.029,0.029-0.089,0.06-0.118,0.118c-0.029,0.06-0.06,0.118-0.089,0.176l-0.679,0.472
				c-0.56,0.176-1.12,0.354-1.739,0.531h-1.12c-1.739,0-3.537-0.147-5.306-0.325c-1.12-0.118-2.241-0.207-3.361-0.265
				c-1.652-0.089-3.332-0.118-5.013-0.147l-3.332-0.06l-1.563-0.089c-1.916-0.089-3.802-0.147-5.719-0.147
				c-1.946,0-3.891,0.089-5.837,0.354c-3.332,0.442-6.722,1.592-10.672,3.597l-1.031,0.56c-1.387,0.737-2.8,1.474-4.245,2.152
				c-1.887,0.766-3.686,1.267-5.513,1.592h-1.149c-1.503,0-2.978-0.089-4.481-0.236c-1.739-0.294-3.42-0.619-5.129-0.944
				c-3.39-0.648-6.928-1.327-10.466-1.592c-0.766-0.058-1.503-0.089-2.27-0.089c-3.597,0-7.606,0.619-12.205,1.887l-2.565,0.766
				c-1.651,0.472-3.302,0.973-5.041,1.326h-1.031c-0.472,0-0.973,0-1.503-0.058c-0.53-0.118-1.031-0.265-1.534-0.442
				c-2.713-1.297-5.071-3.066-7.341-4.806c-1.71-1.356-3.45-2.624-5.307-3.744c-2.771-1.68-5.837-2.152-8.667-2.417
				c-0.884,0-1.828,0.176-2.742,0.325l-1.062,0.206c-0.796,0.118-1.592,0.294-2.978,0.619l-3.302,0.766l-1.091,0.265
				c-2.329,0.501-4.688,1.031-7.046,1.444c-1.209,0.118-2.447,0.207-3.684,0.207c-0.708,0-1.445-0.029-2.211-0.118
				c-0.354-0.089-0.707-0.176-1.031-0.294c-0.855-0.412-1.651-0.854-2.447-1.385c-1.179-1.002-2.211-2.123-3.243-3.332
				c-0.442-0.619-0.855-1.267-1.209-1.946c-0.089-0.266-0.147-0.532-0.236-0.855c-0.412-4.305,0-8.461,0.501-12.706l0.973-6.368
				c0.707-4.628,1.444-9.287,2.005-13.944c0.708-5.926,1.445-11.88,2.241-17.394c0.118-0.973,0.236-1.945,0.383-2.918l-0.058,0.118
				l-0.147,0.414c0.56-3.626,1.12-7.252,1.681-10.879c0.678-4.333,1.356-8.639,1.974-12.971c1.12-7.606,2.329-15.684,4.158-23.791
				c3.537-15.979,7.96-31.516,12.559-47.376c1.946-6.722,4.305-13.856,7.43-22.464l1.238-3.508c0.944-2.624,1.887-5.218,2.947-7.813
				l1.917-4.717c1.327-3.272,2.682-6.574,4.04-9.846c0.029-0.029,0.058-0.058,0.089-0.058c0,0,0,0,0.029,0
				c6.869,2.771,13.826,4.835,20.726,6.161c10.142,1.946,17.984,2.86,26.12,2.919c4.009,0,7.96-0.265,11.793-0.766
				c3.98-0.53,7.489-1.444,10.879-2.742c0.294-0.118,0.56-0.236,0.855-0.354c0.05-0.022,0.092-0.058,0.143-0.081
				c0.002,0.016,0.002,0.034,0.005,0.051c0,0,0.029-0.029,0.058-0.029c0.147,1.031,0.354,2.093,0.648,3.125
				c0.325,1.031,0.708,2.035,1.062,3.007l0.679,1.887c1.209,3.568,2.299,7.134,3.243,10.76c1.091,4.216,2.034,8.432,2.948,12.677
				c0.707,3.214,1.415,6.456,2.181,9.64c1.091,4.57,2.329,9.051,3.568,13.561c0.973,3.508,1.917,7.017,2.8,10.554l0.884,3.479
				c1.651,6.515,3.301,13.031,5.011,19.517l2.772,10.348c2.947,11.056,5.896,22.081,8.726,33.136
				C325.886,382.069,327.507,389.381,328.805,396.397z M351.591,320.277c0,0,0,0-0.029,0c0.118-0.147,0.236-0.294,0.354-0.442
				C351.798,319.983,351.68,320.13,351.591,320.277z M493.691,270.012c0.147-0.06,0.265-0.118,0.412-0.176c0.029,0,0.029,0,0.029,0
				C493.986,269.894,493.838,269.953,493.691,270.012z M498.349,258.573c-0.56,3.568-1.149,6.368-1.887,8.844l-0.383,0.708
				l-0.589,0.914l-0.737,0.56c-0.354,0.118-0.679,0.207-1.062,0.325h-1.18h-1.209c-3.92-0.766-7.694-2.182-11.321-3.568
				l-3.096-1.149l-0.973-0.354c-1.799-0.648-3.655-1.327-5.837-1.474c-1.769,0-3.537,1.18-4.481,2.89
				c-0.766,1.444-0.826,3.214-0.884,4.893l-0.058,1.385c-0.354,1.592-0.797,3.066-1.387,4.57c-1.179,2.565-2.477,4.806-3.95,6.898
				c-0.826,0.944-1.652,1.769-2.594,2.565c-0.589,0.412-1.209,0.766-1.857,1.12c-1.209,0.442-2.447,0.737-3.744,1.031
				c-0.207,0.029-0.412,0.029-0.619,0.029c-0.383,0-0.737,0-1.091,0H448.2c-1.061-0.207-2.034-0.501-3.007-0.855
				c-1.857-0.855-3.715-1.975-5.955-3.655c-1.356-1.12-2.889-2.388-4.628-2.388c-0.442,0-0.884,0.089-1.533,0.325
				c-0.973,0.354-1.887,0.679-2.683,1.444c-0.884,0.855-1.356,2.005-1.651,2.624c-1.534,3.42-2.978,6.014-4.628,8.372
				c-1.415,1.739-3.036,3.39-5.071,5.189c-1.356,0.943-2.771,1.739-4.274,2.447c-1.946,0.678-3.92,1.267-5.984,1.651
				c-0.414,0-0.855,0.029-1.267,0.029c-0.531,0-1.062-0.029-1.563-0.06c-1.415-0.294-2.742-0.677-4.04-1.179
				c-1.503-0.708-2.947-1.621-4.746-2.948l-0.679-0.53l-0.679-0.53l-1.031-0.826c-1.15-0.944-2.299-1.857-3.568-2.682
				c-1.031-0.648-2.211-0.708-4.038-0.826c-1.356,0-3.155,0.855-4.187,1.975c-1.209,1.326-2.034,2.771-2.947,4.422
				c-0.766,1.387-1.621,2.713-2.535,4.01c-1.062,1.297-2.182,2.535-3.45,3.655c-1.327,0.914-2.713,1.71-4.158,2.417
				c-2.359,0.855-4.717,1.267-6.692,1.592c-1.238,0.118-2.446,0.207-3.684,0.207c-0.532,0-1.062,0-1.652-0.029
				c-1.238-0.294-2.417-0.648-3.597-1.091l-0.708-0.354c-0.56-0.294-1.12-0.56-1.68-0.826c-0.914-0.501-1.887-0.796-3.243-0.796
				c-0.06,0-0.147,0-0.207,0c-1.091,0.089-2.359,0.147-3.243,0.855l-0.915,0.677l-0.884,0.679l-0.914,1.149l-0.915,1.149
				c-1.002,1.209-2.211,2.241-3.508,3.184l0.294-0.147c-1.415,1.031-2.772,1.946-4.276,2.712c-2.506,0.884-5.041,1.415-7.459,1.887
				c-0.207,0-0.442,0.029-0.708,0.029c-0.324,0-0.737-0.029-1.267-0.058c-0.472-0.118-1.002-0.178-1.503-0.178
				c-0.265,0-0.53,0.029-0.797,0.029c-0.118,0-0.236,0-0.324,0c-0.265,0.044-0.503,0.154-0.757,0.227
				c-0.032-0.125-0.065-0.249-0.097-0.374c0-0.029-0.029-0.029-0.058-0.029c-1.592-6.161-3.007-12.352-4.423-18.544l-0.679-3.037
				c-0.766-3.301-1.621-6.574-2.447-9.846c-0.914-3.568-1.827-7.105-2.624-10.672l-1.356-6.161
				c-1.002-4.599-1.975-9.198-3.214-13.739c-0.884-3.272-1.887-6.515-3.066-9.669c-1.062-2.948-2.3-5.808-3.568-8.697l-0.383-0.884
				l-0.089-0.207l-0.855-2.034l-0.884-2.034c1.621-1.474,3.155-3.066,4.599-4.717c1.259-1.399,2.43-3.015,3.555-4.786
				c0.025-0.016,0.048-0.033,0.072-0.049c0.029-0.06,0.089-0.147,0.118-0.207c4.775-3.272,9.581-6.456,14.416-9.64
				c1.062-0.708,2.182-1.327,3.273-1.975l1.297-0.737l8.107-4.659c1.503-0.884,3.096-1.651,4.659-2.447l1.356-0.648l1.503-0.796
				c1.503-0.766,2.978-1.534,4.481-2.241c3.802-1.799,7.577-3.479,11.409-5.1c0.766-0.324,1.503-0.648,2.27-0.973l-0.796,0.265
				l3.096-1.268c4.333-1.739,8.815-3.537,13.355-4.864c3.214-0.973,6.368-1.887,9.64-2.624c2.417-0.589,4.924-0.973,7.399-1.356
				c4.599-0.532,9.169-1.002,13.797-1.474l1.857-0.178c1.769-0.176,3.508-0.354,5.278-0.501l4.216-0.354
				c1.238-0.089,2.477-0.118,3.715-0.118c2.152,0,4.334,0.118,6.486,0.294c2.978,0.472,5.955,0.973,8.962,1.592
				c4.158,0.854,9.08,1.946,13.768,3.773c2.624,1.209,4.982,2.565,7.223,4.187c5.131,4.216,10.171,9.169,15.773,15.624
				c2.506,3.361,4.864,6.81,7.252,10.23c1.769,2.564,3.568,5.129,5.395,7.694c2.535,3.568,4.51,6.574,6.161,9.465
				c1.71,2.978,3.214,6.014,4.659,9.139c1.209,3.066,2.034,5.896,2.564,8.639C498.496,256.186,498.467,257.364,498.349,258.573z"/>
			<path d="M219.84,179.388l1.298,1.062c1.267,0.707,2.506,1.179,3.862,1.415c0.708,0.089,1.415,0.176,2.123,0.207
				c0.472-0.029,0.944-0.089,1.444-0.236c0.442-0.178,0.884-0.383,1.327-0.59c0.648-0.354,1.385-1.179,1.769-1.828
				c0.383-0.589,0.648-1.12,0.855-1.651c0.325-0.796,0.56-1.534,0.648-2.27c0.383-1.739,0.118-3.361-0.118-4.57
				c-0.176-0.56-0.383-1.12-0.648-1.651c-0.354-0.737-0.737-1.385-1.179-2.064c-0.265-0.383-0.59-0.737-0.914-1.091l0.058-0.058
				l-0.679-0.442l-2.002-0.884c-0.01,0-0.021,0-0.031,0c-0.008-0.008-0.016-0.016-0.025-0.025l-0.211-0.093
				c-1.061-0.884-1.887-1.327-2.889-1.534c-0.324-0.058-0.678-0.089-1.031-0.089c-0.973,0-1.887,0.236-2.564,0.648
				c-0.973,0.59-1.739,1.209-2.506,2.123c-0.944,1.091-1.474,2.417-1.975,3.568c-1.12,2.713-0.414,6.073,1.769,8.401
				C218.749,178.296,219.28,178.856,219.84,179.388z"/>
			<path d="M269.841,183.455c0.884,0.414,1.827,0.619,2.742,0.797c0.472,0.089,0.944,0.147,1.415,0.147
				c0.443,0,0.915-0.058,1.415-0.118c2.005-0.236,4.098-1.149,5.601-2.447l0.058,0.058l0.648-0.679l1.091-1.356
				c0.472-0.884,0.797-1.652,1.18-2.86c0.207-0.412,0.501-1.031,0.501-1.769c0-0.796-0.089-1.444-0.206-2.152h0.029
				c0.018,0,0.037,0.001,0.06,0.002v-0.001c0.018-0.001,0.034,0.001,0.05,0.006c0.093,0.009,0.203,0.023,0.244,0.023
				c0.029,0,0.029,0,0.029,0c0.089,0,0.414,0.058,0.443,0.058c0.826,0,1.651-0.648,1.887-1.474c0.325-1.209-0.472-2.093-1.385-2.447
				l-0.855-0.324c-0.501-0.178-1.002-0.383-1.503-0.56c-0.188-0.048-0.36-0.096-0.586-0.236c-0.11-0.036-0.22-0.075-0.327-0.118
				c-0.064-0.097-0.138-0.202-0.21-0.307c-0.072-0.068-0.15-0.141-0.232-0.223c-0.442-0.59-0.884-1.062-1.356-1.356
				c-0.677-0.854-2.477-2.86-4.57-2.918c-1.828,0-3.332,0.53-4.423,1.621c-1.297,1.267-2.329,2.683-3.125,4.158
				c-0.766,1.474-0.884,3.302-0.354,5.661c-0.796,0.707-1.444,1.474-1.975,2.27c-0.236,0.414-0.442,1.12-0.442,1.621
				c0,0.619,0.147,1.297,0.414,1.769C266.981,181.834,268.219,182.66,269.841,183.455z"/>
			<path d="M238.178,204.299l1.444,1.149l1.356,0.884c1.327,0.797,2.8,1.474,4.274,2.035c1.946,0.707,4.009,1.091,6.133,1.091
				c1.887,0,3.833-0.294,5.719-0.855c2.417-0.737,4.864-1.887,7.076-3.361c1.062-0.737,2.3-1.621,3.272-2.771
				c0.884-1.002,1.534-2.064,2.182-3.45c0.324-0.619,0.472-1.209,0.472-1.827c0-0.973-0.383-1.887-1.062-2.535
				c-0.619-0.679-1.68-1.091-2.653-1.091c-0.619,0-1.238,0.176-1.68,0.501l-0.649,0.472c-0.648,0.472-1.297,0.973-1.916,1.534
				l-1.534,1.297c-1.415,0.973-2.889,1.828-4.452,2.565c-1.18,0.472-2.417,0.854-3.715,1.149c-0.443,0.029-0.855,0.029-1.298,0.029
				h-0.944c-0.884-0.176-1.68-0.383-2.477-0.648c-1.162-0.555-2.301-1.134-3.586-2.013c-0.043-0.027-0.086-0.053-0.128-0.081
				c-0.007-0.007-0.014-0.015-0.022-0.022c-0.1-0.069-0.201-0.14-0.303-0.214c-0.236-0.354-0.472-0.737-0.679-1.12
				c-0.826-1.238-2.211-2.005-3.655-2.005c-0.707,0-1.415,0.176-2.034,0.53c-0.944,0.59-1.652,1.534-1.917,2.653
				c-0.265,1.062-0.089,2.123,0.443,3.007C236.556,202.324,237.293,203.297,238.178,204.299z"/>
			<path d="M199.852,414.469c-0.236-2.624-0.265-5.277-0.324-7.93l-0.029-1.002c-0.029-1.002-0.826-1.798-1.799-1.798
				c-0.472,0-0.973,0.206-1.298,0.56c-0.354,0.354-0.53,0.796-0.501,1.238l0.058,2.653l0.089,2.624
				c0.029,0.884,0.06,1.71,0.118,2.565c0.089,1.385,0.354,2.712,0.619,4.009c0.147,0.855,1.031,1.327,1.739,1.327l0.472-0.06
				c0.944-0.265,1.503-1.209,1.297-2.211C200.117,415.855,199.999,415.236,199.852,414.469z"/>
			<path d="M209.375,406.48c-1.238,0-2.329,1.091-2.329,2.329l0.029,2.83c0.029,1.857,0.089,3.744,0.147,5.601
				c0.029,1.267,1.031,2.27,2.27,2.27c1.238,0,2.27-1.031,2.27-2.27c0-2.8,0-5.631-0.06-8.432
				C211.704,407.512,210.671,406.48,209.375,406.48z"/>
			<path d="M221.371,415.974l-0.41-1.592l-0.383-1.592c-0.414-1.592-0.944-3.154-1.652-4.628c-0.265-0.53-0.884-0.884-1.562-0.884
				c-0.325,0-0.648,0.058-0.944,0.236c-0.383,0.236-0.707,0.648-0.826,1.091c-0.118,0.501-0.029,0.914,0.265,1.562v0.114
				c0.005,0.015,0.009,0.029,0.014,0.043l0.104,0.077c0.265,0.648,0.472,1.298,0.678,1.946c0.266,0.914,0.531,1.827,0.737,2.742
				l0.442,1.828l0.294,1.179c0.206,0.855,0.412,1.71,0.677,2.565c0.266,0.737,0.915,1.267,2.035,1.267c0.058,0,0.147,0,0.207,0
				c0.471-0.147,0.884-0.471,1.12-0.914c0.236-0.414,0.294-0.884,0.176-1.297C221.961,418.48,221.665,417.241,221.371,415.974z"/>
			<path d="M233.606,420.513c-0.145-0.766-0.264-1.503-0.264-1.651c-0.53-4.069-1.091-8.107-1.651-12.145
				c-0.06-0.56-0.619-1.12-1.062-1.385c-0.265-0.147-0.53-0.266-1.12-0.266c-0.207,0-0.412,0.029-0.679,0.029
				c-0.56,0.147-1.091,0.56-1.415,1.062c-0.354,0.619-0.294,1.179-0.206,1.827l0.56,3.892l0.589,3.92
				c0.118,0.855,0.266,1.71,0.414,2.535l0.176,1.15h-0.089l0.325,1.091c0.176,0.914,0.442,1.71,0.796,2.477
				c0.236,0.619,0.53,1.002,0.944,1.267c0.325,0.176,0.679,0.265,1.062,0.265l0.56-0.058c1.091-0.325,1.739-1.474,1.474-2.565
				C234.02,421.957,233.606,420.543,233.606,420.513z"/>
			<path d="M240.33,411.904c-0.236-0.472-0.855-0.884-1.887-1.091c-0.383,0-0.797,0.089-1.18,0.294
				c-0.472,0.294-0.854,0.795-1.002,1.356c-0.147,0.59-0.029,1.091,0.207,1.71c1.209,2.682,2.417,5.365,3.715,8.02
				c0.325,0.648,1.031,1.031,1.857,1.031c0.383,0,0.766-0.088,1.091-0.265c0.472-0.296,0.826-0.737,1.002-1.298
				c0.118-0.53,0.06-1.031-0.236-1.651C242.689,417.3,241.509,414.617,240.33,411.904z"/>
			<path d="M215.625,268.745c0.472,0,0.915-0.176,1.209-0.53l0.56-0.679c0.53-0.648,1.031-1.297,1.621-1.887l1.031-1.061
				l0.973-1.033c0.766-0.796,1.533-1.591,2.359-2.359l9.581-9.287c0.708-0.679,0.708-1.857,0-2.565
				c-0.324-0.324-0.796-0.501-1.267-0.501c-0.501,0-0.944,0.176-1.297,0.501l-9.198,8.933c-0.766,0.737-1.503,1.474-2.241,2.241
				l-1.149,1.149l-1.12,1.179c-0.648,0.648-1.238,1.356-1.827,2.093l-0.59,0.707c-0.354,0.414-0.53,0.766-0.53,1.297
				c0,0.472,0.176,0.944,0.53,1.267C214.593,268.538,215.094,268.745,215.625,268.745z"/>
			<path d="M230.66,262.613l-5.278,4.305l-0.796,0.648c-0.944,0.766-1.887,1.534-2.948,2.506l-1.533,1.415
				c-0.414,0.354-0.766,0.766-1.002,1.062l-0.766,1.061l-0.501,1.267c-0.265,0.737,0.236,1.68,0.855,2.034
				c0.265,0.147,0.589,0.236,0.914,0.236c0.707,0,1.297-0.354,1.592-0.884l0.058,0.029l0.187-0.484l0.109-0.284
				c0.414-0.472,0.855-0.884,1.739-1.652l0.737-0.619l1.503-1.238l1.975-1.621l1.091-0.914l7.312-5.926
				c0.412-0.324,0.59-0.943,0.59-1.444c0-0.53-0.207-1.031-0.59-1.415s-0.884-0.59-1.445-0.59c-0.589,0-1.002,0.207-1.444,0.59
				L230.66,262.613z"/>
			<path d="M232.459,279.299c-3.92,4.068-7.842,8.136-11.675,12.293c-0.707,0.708-0.707,1.857,0,2.535
				c0.325,0.354,0.826,0.531,1.327,0.531c0.472,0,0.914-0.178,1.238-0.531c2.86-3.096,5.778-6.161,8.726-9.198l2.919-3.066
				c0.707-0.707,0.707-1.887,0-2.564c-0.325-0.325-0.766-0.501-1.267-0.501C233.255,278.798,232.783,278.974,232.459,279.299z"/>
		</g>
	</g>
</g>
<g>
</g>
<g>
</g>
<g>
</g>
<g>
</g>
<g>
</g>
<g>
</g>
<g>
</g>
<g>
</g>
<g>
</g>
<g>
</g>
<g>
</g>
<g>
</g>
<g>
</g>
<g>
</g>
<g>
</g>
</svg>
