<?xml version="1.0" encoding="iso-8859-1"?>
<!-- Generator: Adobe Illustrator 19.0.0, SVG Export Plug-In . SVG Version: 6.00 Build 0)  -->
<svg version="1.1" id="Layer_1" xmlns="http://www.w3.org/2000/svg" xmlns:xlink="http://www.w3.org/1999/xlink" x="0px" y="0px"
	 viewBox="0 0 511.999 511.999" style="enable-background:new 0 0 511.999 511.999;" xml:space="preserve">
<g>
	<g>
		<g>
			<path d="M179.718,318.675c-0.308-0.031-0.556-0.062-0.74-0.062c-0.649,0-1.019,0.125-1.421,0.31
				c-3.46,1.513-6.764,3.428-9.945,5.25l-1.513,0.895l-3.892,2.286c-1.914,1.111-3.829,2.254-5.775,3.367l1.544-6.115l1.019-4.107
				c0.34-1.453,0.74-2.873,1.112-4.294l0.865-3.396l0.308-1.236c0.247-1.019,0.278-1.358,0.371-1.699l0.124-0.926v0.092
				c0.74-0.217,1.267-0.618,1.575-1.174c0.401-0.618,0.339-1.267,0.278-1.854c-0.124-0.988-0.679-1.544-1.204-1.853
				c-0.339-0.217-0.772-0.339-1.204-0.339l-0.625,0.064c-0.586,0.125-1.081,0.247-1.482,0.494c-0.494,0.278-0.835,0.74-1.143,1.204
				l-0.556,0.989c-0.308,0.647-0.525,1.328-0.649,1.976l-0.185,0.803c-0.093,0.432-0.185,0.833-0.308,1.265l-0.989,3.521
				l-0.957,3.521c-0.525,1.885-1.019,3.737-1.514,5.621c-1.853-4.138-3.861-8.246-5.899-12.322
				c-0.432-0.926-1.451-1.513-2.594-1.513c-0.557,0-1.05,0.154-1.514,0.433c-1.421,0.803-1.853,2.532-1.081,4.107
				c2.594,5.25,5.157,10.531,7.66,15.843c-2.131-0.957-4.356-1.822-6.578-2.686l-2.872-1.267l-1.606-0.71
				c-1.421-0.618-2.811-1.328-4.2-2.039c-2.471-1.204-4.911-2.471-7.35-3.706l-3.243-1.667c-0.371-0.217-0.772-0.34-1.236-0.34
				c-0.865,0-1.575,0.433-2.007,1.174c-0.34,0.557-0.433,1.267-0.217,1.915c0.154,0.618,0.556,1.111,1.081,1.358
				c2.625,1.358,5.25,2.718,7.876,4.107l0.833,0.433l2.532,1.265l0.926,0.494l1.853,0.895l2.069,0.989
				c1.389,0.649,2.779,1.298,4.169,1.854c2.532,1.081,5.035,2.131,7.536,3.12l-6.363,3.396l-13.342,7.414
				c-0.679,0.371-1.143,1.018-1.358,1.79c-0.217,0.803-0.093,1.638,0.308,2.286c0.525,0.926,1.482,1.482,2.594,1.482
				c0.525,0,1.019-0.154,1.482-0.401c5.25-2.933,10.531-5.838,15.813-8.74c-1.081,3.953-2.039,8.031-2.903,12.075
				c-0.34,1.668,0.525,3.213,2.039,3.614c0.124,0.031,0.217,0.031,0.308,0.031c1.76,0,3.058-0.772,3.336-2.069
				c0.803-4.138,1.699-8.215,2.594-12.322l0.186-0.803l0.617-2.84c1.236,2.995,2.625,5.96,4.078,8.895
				c0.957,1.976,1.914,3.953,2.903,5.899l2.564,5.126c0.433,0.896,1.482,1.483,2.594,1.483c0,0,0.772-0.093,0.803-0.125
				c0.711-0.154,1.36-0.647,1.792-1.358c0.34-0.618,0.586-1.607,0.278-2.317c-1.544-3.799-3.367-7.506-5.22-11.181l-3.274-6.703
				c2.686,1.236,4.787,2.068,6.918,2.903c2.317,0.928,4.633,1.822,7.011,2.564c0.124,0.031,0.217,0.031,0.308,0.031
				c1.668,0,2.656-0.803,2.903-1.822c0.217-0.71,0.124-1.42-0.247-2.038c-0.371-0.649-0.865-0.926-1.544-1.174l-2.996-1.204
				c-1.699-0.711-3.397-1.39-5.127-2.039c-2.069-0.803-4.107-1.607-6.146-2.408l3.892-2.101l2.996-1.729l2.347-1.328
				c3.12-1.822,6.239-3.614,9.265-5.56c1.328-0.865,1.761-2.501,0.989-3.799C181.015,319.324,180.427,318.86,179.718,318.675z"/>
			<path d="M251.211,283.097c-1.453,1.267-2.904,2.564-4.324,3.86c-0.742,0.618-1.453,1.267-2.162,1.915
				c-0.989,0.895-1.946,1.792-2.872,2.749l-0.679,0.772c-0.278,0.339-0.494,0.71-0.618,1.111c-0.556,1.05-0.217,2.255,0.742,2.779
				c0.308,0.185,0.649,0.278,1.05,0.278c0.772,0,1.451-0.371,1.729-0.988c1.699-2.132,3.336-3.551,4.942-4.942l1.328-1.143
				l1.544-1.421l2.408-2.101l1.915-1.667c-0.835,2.1-1.575,4.261-2.162,6.454l-1.575,5.683c-0.464,1.668-0.835,3.367-1.236,5.096
				l-0.463,2.162c-0.308,1.483,0.494,2.903,1.853,3.275c0.093,0.029,0.185,0.029,0.278,0.029c1.699,0,2.718-0.802,2.996-1.883
				c1.111-4.293,2.317-8.556,3.582-12.849c0.742-2.501,1.575-4.972,2.378-7.443l0.649-1.914l1.421,3.397
				c1.143,2.439,2.347,4.849,3.768,7.134c0.463,0.742,1.267,1.204,2.1,1.204c0.401,0,0.835-0.124,1.174-0.339
				c0.557-0.308,0.958-0.803,1.112-1.421c0.185-0.618,0.093-1.297-0.247-1.853c-1.822-3.212-3.397-6.579-4.911-9.946l-0.401-0.895
				c3.274,1.236,6.701,2.285,10.161,3.15c0.093,0.031,0.185,0.031,0.278,0.031c1.76,0,2.718-0.772,3.026-1.885
				c0.217-0.679,0.093-1.451-0.278-2.038c-0.401-0.711-0.989-1.019-1.575-1.236c-3.458-1.328-6.918-2.594-10.408-3.86l4.51-3.49
				l5.56-4.542c1.513-1.235,3.026-2.439,4.571-3.644l1.822-1.39c0.401-0.339,0.617-1.019,0.617-1.482
				c0-0.526-0.217-1.05-0.617-1.453c-0.401-0.371-0.926-0.618-1.482-0.618c-0.586,0-0.989,0.279-1.482,0.618l-1.328,1.05
				c-1.668,1.297-3.365,2.625-5.034,3.985l-5.56,4.508l-2.501,2.039l4.447-12.322c0.247-0.649,0.154-1.358-0.186-2.008
				c-0.371-0.71-1.019-1.265-1.76-1.453l-0.772-0.124c-1.204,0.004-2.285,0.838-2.686,2.074l-2.626,7.443l-1.699,4.849
				l-3.923-10.471c-0.247-0.647-0.556-1.111-1.111-1.42c-0.433-0.31-0.896-0.372-1.236-0.372c-1.235,0.279-1.76,0.68-2.069,1.236
				c-0.308,0.464-0.494,1.236-0.247,1.854l0.926,2.408l3.614,9.328c-3.675-1.297-7.443-2.439-11.243-3.551
				c-0.031-0.031-0.803-0.124-0.803-0.124c-1.358,0-2.625,0.989-2.964,2.254c-0.464,1.607,0.494,3.304,2.131,3.768
				c4.478,1.358,8.925,2.749,13.374,4.169l-1.76,1.328L251.211,283.097z"/>
			<path d="M288.36,380.845c-4.293-0.586-7.968-1.421-11.675-2.285l-9.76-2.347l1.451-0.989c0,0,0,0,0.031,0l4.201-2.933
				l4.232-2.933l4.571-3.15c2.162-1.513,4.417-2.965,6.671-4.417c1.174-0.74,1.544-2.192,0.865-3.304
				c-0.433-0.772-1.235-1.235-2.131-1.235c-0.464,0-0.865,0.124-1.204,0.371c-2.471,1.606-4.972,3.211-7.413,4.91l-3.829,2.626
				l-3.768,2.626l-2.408,1.667l-2.41,1.668l0.557-3.46c0.865-4.354,1.76-8.709,2.625-13.095c0.217-1.235-0.34-2.718-1.822-3.12
				l-0.649-0.124c-1.046-0.001-2.282,0.678-2.528,1.914c-0.835,4.293-1.699,8.617-2.564,12.94l-1.204,5.838l-0.989-2.285
				c-1.946-3.768-3.892-7.568-5.899-11.335c-0.586-1.143-1.853-1.885-3.243-1.885c-0.679,0-1.328,0.185-1.853,0.525
				c-1.792,1.019-2.378,3.243-1.358,5.127c1.946,3.737,3.861,7.506,5.775,11.274l-1.853-0.464l-3.953-0.679
				c-2.532-0.433-5.096-0.772-7.66-1.143l-2.1-0.31c-0.308-0.031-0.618-0.062-0.896-0.062c-0.586,0-1.05,0.125-1.514,0.401
				c-0.71,0.401-1.267,1.082-1.451,1.854c-0.247,0.835-0.124,1.699,0.308,2.44c0.371,0.617,1.112,1.328,1.914,1.451l2.996,0.433
				c2.1,0.279,4.169,0.586,6.239,0.957l3.829,0.649l3.861,0.679l2.193,0.372l-4.417,3.521c-1.204,1.018-2.41,2.1-3.583,3.182
				l-1.174,1.049c-1.544,1.421-2.996,2.842-4.046,4.602c-0.556,0.896-0.401,2.164,0.371,2.904c0.464,0.433,1.05,0.679,1.668,0.679
				c0.618,0,1.236-0.246,1.73-0.679c1.451-1.329,2.842-2.686,4.261-4.047l1.05-1.018c1.914-1.854,3.892-3.583,5.868-5.282
				l1.358-1.174l-0.525,2.224l-0.34,1.453c-0.278,1.358-0.556,2.718-0.896,4.014c-0.74,2.811-1.451,5.622-2.162,8.432l-0.833,3.182
				l-0.835,3.182c-0.618,2.41-1.267,4.849-1.668,7.289c-0.093,0.525-0.154,1.204,0.247,1.853c0.308,0.557,0.865,0.957,1.451,1.112
				c0.093,0.031,0.185,0.031,0.278,0.031c1.544,0,2.44-0.711,2.718-1.7l0.772-2.718c0.989-3.614,1.976-7.227,2.872-10.81
				l1.112-4.231l1.05-4.201l0.401-1.575l0.926,2.594c1.853,4.54,3.799,9.235,6.022,13.65c0.525,1.05,1.792,1.76,3.119,1.76
				c0.308,0,0.617-0.029,0.926-0.124c0.957-0.247,1.853-0.989,2.317-1.914c0.432-0.835,0.493-1.7,0.185-2.472
				c-2.842-7.443-5.868-14.702-9.019-21.557l-0.432-0.989c3.397,0.926,6.888,1.76,10.377,2.532c4.818,1.112,8.864,1.7,12.663,1.854
				c1.575,0,2.903-1.358,2.903-2.903c0-0.742-0.339-1.483-0.865-2.039C289.844,381.124,289.226,380.97,288.36,380.845z"/>
			<path d="M82.237,310.027l-0.463-1.204c-0.433-1.204-0.989-2.378-1.514-3.551l-0.586-1.297c-0.617-1.453-1.297-2.903-1.976-4.356
				l2.131,0.433l2.408,0.247c3.089,0.371,6.146,0.71,9.265,0.988c1.297,0,2.193-1.174,2.193-2.192c0-0.586-0.247-1.174-0.649-1.575
				c-0.463-0.464-1.019-0.557-1.544-0.649l-1.204-0.124l-1.204-0.155l-4.169-0.586l-4.51-0.647
				c-0.957-0.125-1.946-0.279-2.903-0.464l1.421-1.081l0.74-0.649c0.711-0.618,1.421-1.267,2.162-1.854l10.347-8.185l1.853-1.39
				l1.822-1.39c0.494-0.401,0.988-0.835,1.174-1.575c0.215-0.679,0.124-1.453-0.247-2.038c-0.339-0.587-0.896-1.019-1.575-1.204
				c-0.278-0.031-0.525-0.031-0.711-0.031c-0.71,0-1.081,0.092-1.328,0.278c-2.131,1.575-4.232,3.15-6.27,4.757l-3.367,2.686
				l-3.367,2.657l-1.111,0.895c-0.649,0.526-1.328,1.019-1.976,1.607c0.711-4.415,1.699-9.235,2.718-14.021
				c0.34-1.76-0.586-3.397-2.193-3.831c-0.031-0.031-0.803-0.154-0.803-0.154c-1.234,0-2.746,0.833-3.056,2.315
				c-0.926,4.51-1.853,8.988-2.718,13.496c-1.73-3.799-3.644-7.567-5.56-11.335c-0.463-0.926-1.513-1.544-2.656-1.544
				c-0.586,0-1.143,0.154-1.575,0.433c-1.451,0.833-1.946,2.656-1.111,4.231c2.471,4.879,4.911,9.761,7.32,14.67
				c-3.243-1.049-6.517-2.1-9.79-3.149l-1.204-0.372c-0.093-0.029-0.185-0.029-0.278-0.029c-1.575,0-2.501,0.772-2.749,1.729
				c-0.371,1.297,0.371,2.594,1.699,2.996l1.482,0.463c3.429,1.082,6.888,2.162,10.378,3.119l-5.653,4.942l-0.865,0.803
				c-2.749,2.532-5.529,5.065-8.031,7.782c-0.926,1.019-0.926,2.503,0,3.429c0.432,0.464,1.019,0.679,1.636,0.679
				c0.649,0,1.267-0.246,1.792-0.679c2.933-2.594,5.868-5.189,8.771-7.814l2.81-2.564l-0.494,5.157l-0.154,0.865l-0.247,1.792
				c-0.154,1.019-0.308,2.068-0.432,3.12c-0.525,4.879-1.05,9.79-1.482,14.701c-0.031,0.618,0.185,1.267,0.679,1.792
				c0.556,0.618,1.358,0.989,2.1,0.989c0.711,0,1.453-0.308,1.976-0.835c0.557-0.556,0.679-1.174,0.835-1.946
				c0.339-2.656,0.679-5.313,1.05-7.968l0.217-1.729c0.278-2.162,0.556-4.324,0.926-6.456l0.557-3.582l0.556-3.614l0.154-0.895
				l2.224,5.25c0.833,1.883,1.513,3.49,2.131,5.126c0.247,0.649,0.586,1.297,1.358,1.729c0.433,0.279,0.926,0.433,1.482,0.433
				c1.514-0.31,2.224-0.896,2.594-1.607c0.371-0.679,0.463-1.451,0.217-2.162C83.256,312.743,82.731,311.385,82.237,310.027z"/>
			<path d="M138.077,414.759c-0.371,0-0.74,0.125-1.019,0.34c-1.853,1.143-3.304,2.008-4.664,2.996l-1.081,0.74l-1.822,1.328
				l-8.246,5.899c-1.143,0.803-2.224,1.607-3.274,2.501l-1.699,1.421l1.05-2.903l1.267-4.107c0.711-2.255,1.482-4.478,2.224-6.733
				l0.896-2.686c0.154-0.464,0.124-0.989-0.124-1.483c-0.279-0.525-0.772-0.926-1.297-1.049l-0.525-0.093
				c-0.893-0.001-1.696,0.617-2.005,1.513l-1.081,3.15c-0.649,1.946-1.297,3.861-1.885,5.807l-1.236,3.983l-0.803,2.594l-0.34-1.111
				l-1.914-4.603c-1.236-2.81-2.162-4.911-3.089-6.979l-0.679-1.483c-0.34-0.864-1.358-1.482-2.131-1.667
				c-0.371-0.125-0.68-0.185-0.989-0.185c-0.618,0-1.236,0.185-1.822,0.525c-0.833,0.464-1.421,1.267-1.668,2.162
				c-0.308,1.05-0.061,1.885,0.371,2.811l3.182,7.196l3.706,8.896c-0.833-0.371-1.76-0.586-2.718-0.803l-1.112-0.217
				c-1.853-0.464-3.706-0.896-5.558-1.328c-1.575-0.401-3.182-0.711-4.788-1.05l-1.482-0.308c-0.093,0-0.154,0-0.247,0
				c-1.885,0-2.903,0.772-3.243,1.976c-0.217,0.74-0.061,1.607,0.371,2.317c0.371,0.618,0.958,1.049,1.607,1.174l1.358,0.278
				c1.482,0.279,2.965,0.587,4.417,0.928c1.76,0.401,3.551,0.835,5.313,1.265c1.514,0.34,3.026,0.711,4.51,1.082l-6.486,5.56
				l-3.212,2.903l-1.607,1.451l-1.05,0.989l-1.05,0.928l-1.39,1.265l-1.544,1.575l-0.525,0.68l-0.494,0.647
				c-0.494,0.68-0.401,1.73,0,2.347c0.401,0.711,1.204,1.174,2.008,1.174c1.05-0.154,1.451-0.308,1.914-0.525
				c0.494-0.247,0.989-0.493,1.451-0.772c0.803-0.464,1.236-1.421,1.081-2.317c0.557-0.525,1.143-1.112,1.76-1.668
				c0.865-0.895,1.76-1.729,2.656-2.564l0.926-0.864c1.822-1.76,3.706-3.46,5.559-5.158l1.792-1.607l1.297-1.174l-1.792,6.517
				c-0.339,1.328-0.618,2.656-0.926,3.985c-1.112,5.157-2.039,9.606-2.779,14.083c-0.093,0.556-0.093,1.019,0.217,1.544
				c0.278,0.464,0.71,0.803,1.235,0.957c0.061,0.031,0.124,0.031,0.217,0.031c1.235,0,2.162-0.556,2.347-1.482
				c0.711-4.232,1.544-8.401,2.44-12.57l0.34-1.7c0.247-1.081,0.494-2.193,0.74-3.304l1.019-4.014l0.247-0.896
				c0.525,1.822,1.236,3.646,1.976,5.435l0.865,2.193c1.358,3.367,2.718,6.764,4.355,9.976c0.494,0.988,1.636,1.636,2.842,1.636
				c0.308,0,0.586-0.031,0.865-0.124c0.865-0.217,1.668-0.928,2.1-1.792c0.371-0.74,0.432-1.544,0.154-2.224
				c-0.833-2.193-1.636-4.415-2.408-6.609l-1.885-5.096l-1.297-3.429l-0.926-2.408c2.996,0.988,5.775,1.76,8.524,2.625
				c0.124,0.031,0.215,0.031,0.308,0.031c1.607,0,2.564-0.772,2.811-1.792c0.217-0.649,0.124-1.39-0.247-1.946
				c-0.339-0.649-0.833-0.895-1.513-1.174l-0.803-0.339c-0.711-0.31-1.421-0.586-2.162-0.835c-0.835-0.308-1.636-0.586-2.471-0.864
				c-1.05-0.372-2.131-0.68-3.181-0.99l-3.861-1.143c1.729-2.038,3.706-3.675,5.652-5.313l4.571-3.304l2.686-1.946l2.378-1.699
				l2.378-1.7c1.358-0.989,2.779-1.883,4.232-2.779l0.988-0.649c0.989-0.586,1.328-1.854,0.742-2.811
				C139.497,415.161,138.788,414.759,138.077,414.759z"/>
			<path d="M366.692,316.946l0.865,2.408c-0.772,2.842-1.606,5.529-2.471,8.217c-1.39,4.261-2.718,8.524-3.892,12.847
				c-0.185,0.649-0.124,1.328,0.247,1.946c0.339,0.586,0.865,1.019,1.513,1.204c0.278,0.031,0.525,0.062,0.711,0.062
				c0.649,0,0.989-0.125,1.267-0.31c0.679-0.401,0.957-0.926,1.204-1.513c1.575-3.953,3.026-7.938,4.385-11.921l0.494-1.328
				c1.39,2.81,2.811,6.114,4.293,9.42c0.34,0.772,1.236,1.358,1.976,1.544c0.308,0.092,0.618,0.154,0.926,0.154
				c0.586,0,1.174-0.185,1.668-0.494c0.772-0.432,1.328-1.174,1.544-1.975c0.247-0.928,0.062-1.668-0.339-2.594
				c-1.668-3.892-3.336-7.753-5.003-11.675l-1.174-2.903l-0.68-1.637l0.586-1.853l0.279-0.835l13.064,0.803
				c1.822,0.247,4.138,0.586,6.424,1.019c2.224,0.433,4.479,0.864,6.703,1.328c0.093,0.031,0.185,0.031,0.278,0.031
				c1.792,0,2.749-0.772,3.058-1.915c0.217-0.71,0.124-1.482-0.247-2.1c-0.339-0.586-0.833-0.957-1.636-1.235
				c-2.501-0.928-5.096-1.421-7.32-1.792c-2.688-0.433-5.375-0.773-8.092-1.019l-8.524-0.803l3.983-1.883
				c3.182-1.607,6.393-3.212,9.482-4.942c0.586-0.31,0.989-0.835,1.174-1.514c0.154-0.647,0.061-1.328-0.278-1.883
				c-0.401-0.772-1.236-1.267-2.162-1.267c-0.464,0-0.896,0.125-1.236,0.34l-6.671,3.706l-4.972,2.779l1.235-3.583l4.664-15.288
				c0.217-0.74,0.154-1.513-0.247-2.224c-0.401-0.71-1.05-1.265-1.822-1.482c-0.031-0.031-0.803-0.154-0.803-0.154
				c-1.33,0-2.534,0.927-2.905,2.224l-6.054,19.767l-1.421,4.664c-3.028-6.61-5.714-13.157-8.463-19.674
				c-0.308-0.74-0.649-1.421-1.482-1.914c-0.463-0.31-0.989-0.464-1.607-0.464c-0.339,0-0.649,0.062-0.895,0.154
				c-0.803,0.217-1.514,0.772-1.915,1.483c-0.371,0.647-0.649,1.729-0.308,2.501l3.182,7.69l3.737,9.05l-1.792-0.401l-5.096-0.835
				c-1.607-0.279-3.15-0.618-4.694-0.957l-1.885-0.433c-0.124,0-0.217,0-0.308,0c-1.699,0-2.656,0.772-2.965,1.854
				c-0.185,0.74-0.061,1.513,0.308,2.162c0.371,0.586,0.926,0.989,1.544,1.111l0.989,0.247c1.73,0.401,3.428,0.772,5.189,1.081
				c1.854,0.31,3.675,0.618,5.529,0.957l4.385,0.711l-12.045,7.906l-0.803,0.586l-4.447,3.46l-0.803,0.618
				c-2.131,1.607-4.232,3.211-6.239,4.94c-0.339,0.31-0.556,0.742-0.586,1.267c-0.031,0.618,0.185,1.236,0.586,1.637
				c0.401,0.371,0.865,0.586,1.421,0.586c0.525,0,1.05-0.217,1.482-0.586l2.1-1.792l1.699-1.298l3.644-2.81l1.976-1.514l1.112-0.833
				c0.371-0.31,0.71-0.586,1.111-0.835l6.547-4.261L366.692,316.946z"/>
			<path d="M238.952,435.516c-0.772,0-1.453,0.308-2.132,0.895l-11.767,10.1c1.174-4.603,2.193-9.235,3.15-13.929
				c0.278-1.453-0.494-2.811-1.792-3.15l-0.679-0.125c-1.082-0.001-2.287,0.71-2.503,1.914c-1.236,5.929-2.533,11.859-3.829,17.759
				l-0.772-3.551c-0.308-1.265-0.711-2.532-1.112-3.767c-0.926-2.965-1.636-5.282-2.378-7.599c-0.308-0.926-1.081-1.544-1.976-1.544
				c-1.081,0.247-1.575,0.649-1.853,1.174c-0.247,0.464-0.308,0.989-0.124,1.482c0.649,2.069,1.297,4.14,1.915,6.24
				c0.371,1.143,0.711,2.285,1.05,3.458c0.154,0.464,0.308,0.926,0.371,1.39l1.112,4.293c-4.324-1.544-8.802-2.903-13.25-4.293
				l-3.089-0.926c-0.093-0.031-0.185-0.031-0.278-0.031c-1.76,0-2.81,0.864-3.088,1.946c-0.433,1.453,0.432,2.933,1.885,3.367
				c5.343,1.637,10.686,3.274,16.029,4.942l-1.297,1.636c-2.626,2.224-5.251,4.479-7.846,6.733l-2.039,1.792l-2.933,2.594
				l-1.451,1.358l-1.482,1.328l-1.112,1.05c-0.494,0.463-0.957,0.926-1.421,1.421c-0.371,0.463-0.711,0.957-1.05,1.451
				c-0.557,0.803-0.401,1.946,0,2.626c0.463,0.772,1.174,1.203,2.254,1.328c0,0,0,0,0.031,0c0.989,0,1.575-0.401,1.946-0.74
				c2.008-1.885,3.768-3.336,5.529-4.787l0.989-0.803l2.688-2.317l2.347-2.008l7.32-6.239c-0.711,2.068-1.267,4.231-1.853,6.363
				c-0.124,0.463-0.247,0.895-0.401,1.328l-0.803,2.471l-0.865,2.686c-1.358,4.294-2.779,8.525-4.232,12.786
				c-0.278,0.865,0.124,1.915,0.989,2.41c0.308,0.185,0.649,0.279,1.019,0.279c1.081-0.217,1.668-0.556,1.883-1.05
				c1.73-4.107,3.397-8.246,4.849-12.477l2.41-7.011c0.154-0.371,0.247-0.74,0.339-1.111l0.217-1.174l0.093,0.031
				c0.74,2.995,1.699,6.085,2.656,9.204c0.247,0.864,1.05,1.482,1.946,1.482c1.637-0.371,2.317-1.513,2.008-2.593
				c-1.544-5.406-3.026-10.84-4.417-16.277l0.339-1.174c1.915,0.679,3.953,1.297,5.961,1.883c0.093,0.031,0.185,0.031,0.278,0.031
				c1.544,0,2.44-0.74,2.686-1.7c0.185-0.617,0.124-1.297-0.215-1.883c-0.308-0.525-0.742-0.835-1.453-1.082
				c-1.39-0.556-2.749-1.049-4.139-1.574c5.189-4.294,10.347-8.71,15.474-13.157c0.556-0.464,0.865-1.174,0.896-1.947
				c0.031-0.864-0.308-1.729-0.896-2.317C240.558,435.855,239.755,435.516,238.952,435.516z"/>
			<path d="M426.514,432.048c-2.162-0.339-4.324-0.71-6.486-1.081c-0.926-0.154-1.853-0.371-2.779-0.586l-1.358-0.31
				c-2.594-0.617-5.189-1.328-7.752-2.038l-1.451-0.371c-3.089-0.835-6.115-1.637-9.142-2.378c3.922-3.243,7.845-6.61,11.767-9.945
				c0.401-0.372,0.649-0.896,0.679-1.514c0-0.679-0.247-1.328-0.679-1.792c-0.433-0.432-1.05-0.679-1.668-0.679
				c-0.586,0-1.112,0.217-1.636,0.679c-3.707,3.15-7.382,6.332-11.057,9.513c2.533-7.135,4.972-14.331,7.506-21.496
				c0.217-0.556,0.154-1.174-0.124-1.729c-0.339-0.679-0.926-1.174-1.606-1.358l-0.649-0.124c-1.082,0.005-2.039,0.747-2.409,1.858
				c-2.501,6.95-4.88,13.929-7.196,20.91l-0.865-2.44c-1.019-2.564-2.039-5.096-3.089-7.628c-0.896-2.254-1.885-4.478-2.842-6.703
				l-1.019-2.254c-0.308-0.742-1.204-1.298-1.915-1.453c-0.278-0.093-0.556-0.154-0.865-0.154c-0.556,0-1.143,0.185-1.607,0.463
				c-0.74,0.401-1.267,1.112-1.482,1.915c-0.247,0.864-0.061,1.607,0.308,2.471c0.896,2.008,1.792,4.047,2.688,6.085l2.378,5.899
				l2.378,5.899l0.433,1.082c-3.026-0.586-6.146-0.896-9.296-1.236l-3.799-0.308l-3.829-0.31c-1.76-0.124-3.552-0.154-5.343-0.185
				l-1.358-0.062c-1.143,0-2.069,0.989-2.069,2.069c0,1.111,0.896,1.976,2.069,2.068l2.039,0.062l1.976,0.062
				c1.914,0.061,3.829,0.217,5.745,0.371c3.397,0.278,6.764,0.586,10.131,0.989c1.822,0.215,3.644,0.525,5.467,0.833l0.401,1.329
				l-2.007,1.667l-2.842,2.503l-4.169,3.829c-1.822,1.668-3.675,3.336-5.497,5.034l-2.193,2.039
				c-2.81,2.594-5.683,5.281-8.277,8.185c-0.772,0.896-0.772,2.131,0,2.933c0.371,0.371,0.926,0.586,1.482,0.586
				s1.081-0.217,1.421-0.586c0.494-0.556,0.989-1.111,1.544-1.606l1.267-1.174l1.853-1.7l2.996-2.718l2.779-2.472l4.911-4.415
				l4.571-4.139l-2.718,7.104l-1.174,3.12l-1.143,3.088c-0.865,2.286-1.73,4.603-2.41,6.95c-0.217,0.649-0.124,1.358,0.217,1.976
				c0.339,0.586,0.926,1.049,1.575,1.204c0.124,0.029,0.217,0.029,0.308,0.029c1.606,0,2.501-0.74,2.872-1.79
				c0.989-2.904,2.039-5.776,3.058-8.647l1.482-4.078c1.019-2.81,2.008-5.621,2.996-8.432l1.544,5.343
				c1.235,4.076,2.378,7.845,3.799,11.521c0.278,0.71,0.649,1.42,1.482,1.883c0.464,0.308,1.019,0.464,1.607,0.464
				c0.278,0,0.586-0.062,0.865-0.155c0.803-0.217,1.575-0.833,1.976-1.607c0.401-0.772,0.494-1.574,0.247-2.317
				c-0.926-2.779-1.79-5.559-2.656-8.37l-0.988-3.182c-1.204-3.799-2.44-7.597-3.707-11.365c0.124,0,0.278-0.031,0.401-0.031
				c1.514,0,3.243,0.464,4.942,0.896l2.656,0.647c1.853,0.494,3.675,0.989,5.497,1.483l2.842,0.772
				c2.131,0.556,4.261,1.049,6.393,1.544c2.193,0.525,4.385,0.896,6.578,1.267l1.976,0.339c0.185,0,0.339,0,0.493,0
				c0.587,0,0.835-0.093,1.081-0.247c0.464-0.247,0.803-0.71,0.926-1.236c0.185-0.525,0.093-1.111-0.185-1.575
				C427.564,432.637,427.07,432.173,426.514,432.048z"/>
			<path d="M511.758,168.087c-0.557-5.651-2.132-11.149-3.924-16.524c-1.853-5.621-4.324-11.026-7.35-16.091
				c-5.775-9.667-15.565-16.091-25.974-19.828c-5.251-1.883-10.964-2.656-16.493-2.81c-5.807-0.125-11.644,1.049-17.141,2.749
				c-3.12,0.926-6.085,2.192-9.05,3.49c-0.308-2.101-0.772-4.139-1.297-6.208c-1.575-5.899-4.078-11.582-6.703-17.11
				c-4.942-10.408-11.675-19.828-19.179-28.568c-7.938-9.204-16.925-17.418-26.839-24.4c-9.975-7.011-21.002-12.415-32.738-15.752
				c-11.953-3.396-24.461-5.188-36.907-5.342c-0.279,0-0.587,0-0.865,0c-5.621,0-11.181,0.556-16.739,1.328
				c-6.3,0.864-12.539,2.317-18.654,4.107c-11.706,3.521-22.732,9.265-32.892,16.029c-10.007,6.64-19.056,14.578-26.561,23.936
				c-1.976,2.472-3.829,5.035-5.559,7.69c-1.976,3.058-3.614,6.362-5.281,9.636c-1.636,3.182-3.119,6.394-4.447,9.729
				c-1.297,3.304-2.131,6.795-2.842,10.253c-0.679,3.336-1.111,6.703-1.513,10.069c-0.217,1.699-0.34,3.397-0.401,5.096
				c-2.842-1.204-5.714-2.285-8.618-3.274c-7.289-2.472-14.979-3.676-22.67-4.047c-14.3-0.71-28.97,3.028-40.921,11.026
				c-2.625,1.729-5.096,3.768-7.443,5.868c-2.842,2.503-5.22,5.497-7.32,8.647c-2.039,3.058-3.428,6.61-4.571,10.1
				c-1.112,3.242-1.636,6.763-2.039,10.161c-0.494,3.953-0.494,7.907-0.217,11.892c0,0.246,0.031,0.463,0.031,0.679
				c-0.679-0.279-1.39-0.525-2.1-0.803c-5.343-2.038-10.964-2.996-16.617-3.706c-5.713-0.71-11.489-0.74-17.203-0.247
				c-6.208,0.526-12.385,1.514-18.408,3.058c-5.343,1.358-10.563,3.367-15.504,5.743c-5.127,2.44-9.821,5.776-14.177,9.39
				c-4.293,3.55-7.752,8.061-10.656,12.817c-1.267,2.069-2.162,4.356-2.933,6.642c-0.926,2.872-1.204,6.053-0.957,9.049
				c0.401,5.251,2.594,10.317,6.393,13.96c1.914,1.822,4.293,3.089,6.671,4.139c1.606,0.711,3.212,1.267,4.911,1.7
				c2.224,0.586,4.539,0.802,6.825,1.049c2.069,0.247,4.169,0.372,6.239,0.556c4.015,0.31,8.061,0.649,12.107,0.371
				c4.2-0.278,8.4-0.802,12.57-1.357c4.478-0.557,8.988-1.019,13.497-1.391c1.143-0.092,2.285-0.184,3.428-0.308
				c5.961,0.125,11.921,0.401,17.882,0.649c8.401,0.339,16.771,0.649,25.203,0.772c8.864,0.124,17.728,0.185,26.592,0.433
				c8.617,0.247,17.234,0.493,25.852,0.525c8.339,0,16.678-0.031,25.017,0.031c8.586,0.093,17.141,0.062,25.727-0.062
				c8.925-0.154,17.852-0.185,26.777-0.246c17.296-0.062,34.56-1.019,51.856-1.329c16.647-0.308,33.324-0.556,49.971-0.493
				c8.74,0.029,17.481-0.062,26.221-0.185c8.339-0.155,16.678-0.093,25.017,0.154c8.463,0.217,16.895,0.308,25.325,0.401
				c4.385,0.031,8.771,0.031,13.188-0.062c3.922-0.092,7.814-0.493,11.736-0.835c5.837-0.463,11.706-0.833,17.418-2.222
				c3.212-0.772,6.239-2.069,9.265-3.336c2.378-0.989,4.664-2.069,6.949-3.212c3.892-1.853,7.506-4.107,10.871-6.795
				c2.1-1.7,3.861-3.799,5.529-5.899c1.976-2.41,3.644-5.035,5.158-7.753c2.625-4.786,4.571-10.068,5.929-15.35
				c0.679-2.593,1.05-5.281,1.421-7.936C512.098,175.035,512.098,171.576,511.758,168.087z M502.709,177.938
				c-0.711,4.725-1.976,9.296-3.861,13.96c-1.699,3.892-3.644,7.32-5.931,10.5c-1.914,2.347-3.799,4.324-5.838,6.023
				c-3.922,2.84-8.246,4.756-12.849,6.763l-4.2,1.607c-2.471,0.926-5.158,1.607-8.247,2.1c-3.026,0.279-6.085,0.371-9.172,0.371
				l-4.787-0.029c-4.139-0.062-8.278-0.34-12.417-0.68l-5.25-0.433c-6.61-0.556-13.219-1.081-19.828-1.544l-5.251-0.401
				c-6.547-0.464-13.311-0.957-19.982-1.081l-3.768-0.031c-5.961,0-11.89,0.185-17.821,0.339l-4.293,0.154l-8.463,0.217
				c-5.621,0.154-11.243,0.279-16.864,0.525l-10.686,0.464c-4.664,0.217-9.328,0.433-13.99,0.618
				c-9.265,0.339-18.5,0.74-27.735,1.297l-9.513,0.586c-4.787,0.31-9.574,0.618-14.392,0.865
				c-17.203,0.864-34.437,1.637-51.671,2.347c-4.261,0.154-8.556,0.279-12.849,0.401s-8.556,0.247-12.849,0.433
				c-8.864,0.371-17.728,0.586-26.592,0.71c-12.138,0.185-24.245,0.31-36.352,0.31c-5.126,0-10.254-0.031-15.381-0.062
				c-4.447-0.031-8.926-0.217-13.374-0.401l-5.343-0.185l-5.003-0.279c-3.428-0.185-6.825-0.371-10.253-0.556l-2.44-0.154
				c-2.935-0.185-5.899-0.371-8.833-0.401l-1.729-0.031c-2.656,0-5.281,0.093-7.938,0.185l-1.421,0.062h-1.668
				c-3.336,0-6.61-0.217-9.945-0.525l-5.467-0.494l-5.035-0.401c-2.625-0.464-4.633-0.926-6.486-1.607
				c-0.873-0.423-1.706-0.869-2.531-1.365c0.093,0.081,0.192,0.159,0.277,0.223c-0.11-0.066-0.204-0.148-0.294-0.234
				c-0.191-0.115-0.381-0.231-0.57-0.352l-0.772-0.835c-0.432-0.647-0.833-1.297-1.204-1.976c-0.401-1.111-0.711-2.222-0.989-3.396
				c-0.062-0.928-0.062-1.792,0-2.719c0.278-1.328,0.617-2.563,1.05-3.799c1.204-2.657,2.81-4.942,4.2-6.888
				c2.008-2.471,4.447-4.879,7.413-7.32c4.107-2.995,8.4-5.497,12.786-7.474c6.702-2.686,13.713-4.57,21.527-5.743
				c4.54-0.587,8.339-0.896,11.983-0.958h0.957c3.212,0,6.672,0.247,11.582,0.865c4.046,0.68,7.721,1.575,11.303,2.779
				c1.607,0.525,3.182,1.143,4.725,1.792l0.803,0.339c0.556,0.247,1.112,0.493,1.668,0.71c1.05,0.31,2.008,0.494,3.397,0.586
				c1.946,0,4.078-1.358,4.881-3.088c0.432-0.772,0.679-1.667,0.71-2.686c0.062-0.494,0.031-0.989-0.031-1.854
				c-0.031-0.926-0.093-1.883-0.154-2.81c-0.247-4.54-0.525-9.699,0.062-14.825c0.586-3.458,1.421-6.579,2.532-9.636
				c1.019-2.347,2.286-4.51,3.829-6.64c2.039-2.41,4.293-4.571,6.857-6.609c3.274-2.347,6.732-4.386,10.347-6.024
				c4.756-1.914,9.697-3.304,14.639-4.168c2.224-0.247,4.478-0.34,6.732-0.34c3.182,0,6.578,0.217,10.347,0.649
				c6.053,0.957,12.292,2.718,18.561,5.281c5.127,2.224,9.328,4.51,12.849,7.042c1.081,0.618,2.285,0.926,3.614,0.957
				c1.885,0,3.768-0.772,5.035-2.1c0.494-0.463,0.926-1.019,1.328-1.636l0.74-1.73c0.308-1.265,0.308-2.532-0.031-3.829
				c-0.062-0.618-0.247-1.267-0.401-1.915l-0.278-1.049c-0.247-1.298-0.464-2.564-0.649-3.86l-0.154-0.958
				c-0.278-3.587-0.266-7.381,0.153-11.534c0.077-0.944,0.166-1.888,0.27-2.832c0.005-0.043,0.009-0.086,0.013-0.129l0.026-0.669
				c0.742-4.447,1.822-8.431,3.274-12.199c1.513-3.614,3.212-7.104,5.035-10.564c1.636-3.12,3.706-6.331,6.27-9.79
				c4.105-5.125,8.843-10.017,14.02-14.348c0.995-0.854,2.009-1.69,3.036-2.514l-0.128,0.067c-0.135,0.1-0.268,0.201-0.404,0.301
				c0.128-0.098,0.258-0.196,0.388-0.294l-0.45,0.232c9.126-6.949,18.659-12.595,28.395-16.815
				c8.838-3.537,18.569-6.05,28.249-7.399c4.54-0.525,9.174-0.803,13.775-0.803c4.942,0,10.038,0.308,15.103,0.926
				c11.272,1.607,20.94,4.107,29.496,7.568c7.814,3.49,15.474,8.031,23.071,13.713c8.896,7.042,17.296,15.504,24.986,25.11
				c3.119,4.107,5.838,8.061,8.339,12.168c2.594,4.232,5.035,9.081,7.504,14.794c2.317,5.651,3.768,10.408,4.571,15.04l0.185,2.317
				c0.154,1.822,0.278,3.646,0.711,5.406c0.463,1.853,2.007,3.397,3.922,3.922c0.494,0.124,0.989,0.185,1.482,0.185
				c0.493,0,1.019-0.062,1.482-0.185c0.957-0.247,1.822-0.74,2.471-1.453l0.957-0.772l0.617-0.525
				c2.626-1.822,5.282-3.274,8.061-4.448c4.078-1.606,8.154-2.686,12.478-3.396c1.544-0.154,3.058-0.217,4.602-0.217
				c2.132,0,4.263,0.154,6.393,0.401c3.861,0.649,7.413,1.637,10.903,3.057c3.336,1.483,6.547,3.336,9.606,5.529
				c2.41,1.976,4.447,3.953,6.177,5.992c2.532,3.49,4.788,7.535,7.042,12.756c2.563,6.393,4.231,12.292,5.127,18.036
				C503.08,171.608,503.048,174.665,502.709,177.938z"/>
			<path d="M465.091,180.131c-0.371,0-0.649,0.061-0.896,0.246c-4.107,2.933-8.246,5.839-12.417,8.742l-2.842,1.914l-2.069,1.39
				l-2.933,1.946l-2.964,1.946c-0.896,0.649-1.174,1.7-0.679,2.626c0.339,0.556,1.019,0.926,1.699,0.926
				c0.34,0,0.649-0.092,0.926-0.247l5.406-3.613l5.406-3.614c0.957-0.647,1.914-1.328,2.872-2.008l2.1-1.451l7.443-5.251
				c0.371-0.278,0.711-0.586,0.865-1.174c0.124-0.463,0.062-0.988-0.185-1.451C466.449,180.502,465.77,180.131,465.091,180.131z"/>
			<path d="M449.122,183.591c-0.308-0.556-1.019-0.926-1.699-0.926c-0.371,0-0.649,0.062-0.896,0.246l-7.227,4.942
				c-5.127,3.521-10.254,7.043-15.443,10.501c-0.896,0.618-1.204,1.729-0.679,2.594c0.339,0.556,0.989,0.926,1.668,0.926
				c0.339,0,0.649-0.093,0.926-0.247c7.567-5.096,15.103-10.254,22.67-15.411C449.37,185.567,449.648,184.486,449.122,183.591z"/>
			<path d="M430.283,183.343c0.896-0.586,1.204-1.699,0.68-2.625c-0.308-0.557-0.958-0.896-1.668-0.896
				c-0.308,0-0.649,0.062-0.958,0.217l-3.12,1.946c-2.718,1.668-5.436,3.336-8.185,4.972l-1.174,0.71
				c-3.058,1.792-6.239,3.646-9.574,5.035c-0.401,0.185-0.742,0.71-0.865,1.143c-0.124,0.463-0.062,0.989,0.185,1.482
				c0.278,0.401,0.711,0.742,1.143,0.865l0.463,0.124v-0.062c0.34,0,0.649-0.092,1.019-0.246c3.46-1.513,6.795-3.458,9.975-5.343
				l0.772-0.433c2.408-1.421,4.788-2.872,7.165-4.355L430.283,183.343z"/>
			<path d="M412.71,185.69c0.154-0.525,0.093-1.111-0.154-1.544c-0.34-0.586-0.957-0.926-1.607-0.926
				c-0.339,0-0.679,0.062-1.019,0.247l-6.239,3.15l-6.239,3.15c-1.514,0.772-3.026,1.606-4.54,2.439
				c-0.618,0.34-1.235,0.711-1.853,1.082c-1.081,0.647-2.131,1.328-3.15,2.038c-0.896,0.618-1.204,1.729-0.679,2.594
				c0.34,0.556,1.019,0.957,1.699,0.957c0.308,0,0.617-0.092,0.896-0.278c1.05-0.711,2.1-1.39,3.644-2.318
				c0.464-0.278,0.926-0.556,1.39-0.803l1.514-0.803c0.989-0.556,2.007-1.111,3.026-1.606c4.169-2.131,8.308-4.232,12.478-6.332
				C412.278,186.524,412.586,186.154,412.71,185.69z"/>
			<path d="M283.548,179.266c-0.339,0-0.803,0.031-1.112,0.31c-2.779,2.038-5.528,4.106-8.277,6.177l-2.193,1.637
				c-1.204,0.895-2.408,1.76-4.076,3.088c-3.768,2.996-7.536,5.931-11.243,9.018c-0.772,0.586-0.803,1.883-0.371,2.656
				c0.308,0.494,0.772,0.865,1.358,1.019l0.601,0.151c0.005,0,0.011,0.001,0.017,0.001v-0.089c0.401,0,0.803-0.092,1.05-0.279
				c3.15-2.347,6.3-4.756,9.42-7.134l2.471-1.915c3.922-3.026,7.938-5.992,11.89-8.925l1.699-1.267
				c0.463-0.339,0.926-0.74,1.143-1.451c0.124-0.586,0.031-1.267-0.247-1.822C285.34,179.916,284.846,179.514,283.548,179.266z"/>
			<path d="M265.233,180.656c0.154-0.556,0.061-1.143-0.217-1.607c-0.278-0.464-0.74-0.803-1.822-0.989
				c-0.371,0-0.742,0.093-0.958,0.279l-14.331,10.593l-2.656,2.008l-2.656,2.007l-1.358,1.019c-2.007,1.575-4.015,3.15-6.085,4.664
				c-0.339,0.247-0.71,0.587-0.896,1.144c-0.124,0.493-0.031,1.018,0.217,1.451c0.34,0.556,0.989,0.926,1.668,0.926
				c0.34,0,0.649-0.092,0.926-0.246c3.644-2.317,7.135-5.004,10.531-7.568l2.132-1.636l3.365-2.503
				c3.707-2.779,7.444-5.559,11.181-8.307C264.801,181.522,265.079,181.151,265.233,180.656z"/>
			<path d="M244.417,182.695c0.124-0.494,0.031-1.05-0.217-1.453c-0.308-0.556-0.989-0.957-1.668-0.957
				c-0.217,0-0.556,0.031-0.926,0.278c-4.879,3.367-9.636,6.888-14.392,10.41c-4.664,3.49-9.42,6.917-14.238,10.222
				c-0.896,0.649-1.174,1.7-0.679,2.626c0.34,0.556,1.019,0.926,1.699,0.926c0.339,0,0.649-0.092,0.926-0.278
				c4.818-3.275,9.513-6.733,14.177-10.192c4.756-3.551,9.574-7.043,14.424-10.439C243.984,183.498,244.262,183.158,244.417,182.695
				z"/>
			<path d="M218.628,187.142c0-0.586-0.217-1.143-0.649-1.575s-0.989-0.649-1.575-0.649c-0.679,0-1.111,0.279-1.575,0.649
				l-4.478,3.521c-6.362,4.972-12.725,9.975-18.964,15.133c-0.371,0.278-0.556,0.74-0.586,1.267
				c-0.031,0.586,0.185,1.203,0.586,1.606c0.371,0.401,0.926,0.618,1.451,0.618c0.557,0,0.958-0.217,1.453-0.618l2.656-2.038
				l2.564-2.008l6.578-5.096l11.89-9.235C218.412,188.347,218.628,187.636,218.628,187.142z"/>
			<path d="M152.133,189.891c-0.371,0-0.74,0.092-1.05,0.279l-1.915,1.297c-6.64,4.51-13.281,9.018-19.796,13.682
				c-0.34,0.247-0.711,0.586-0.896,1.143c-0.124,0.526-0.031,1.05,0.217,1.483c0.339,0.556,0.988,0.926,1.699,0.926
				c0.308,0,0.649-0.092,0.926-0.247l2.007-1.265c2.408-1.513,4.849-3.028,7.227-4.633l12.756-8.586
				c1.05-0.74,1.358-1.976,0.772-2.995C153.676,190.324,152.904,189.891,152.133,189.891z"/>
			<path d="M132.15,191.837c-0.339-0.556-1.019-0.926-1.668-0.926c-0.308,0-0.617,0.062-0.926,0.246
				c-2.224,1.453-4.417,2.935-6.61,4.448l-1.822,1.265l-2.254,1.575l-1.05,0.742c-3.551,2.686-7.042,5.404-10.501,8.215
				c-0.339,0.246-0.525,0.679-0.556,1.143c-0.031,0.556,0.185,1.174,0.556,1.513c0.34,0.371,0.865,0.556,1.358,0.556
				c0.493,0,0.865-0.154,1.328-0.556l1.822-1.451l3.212-2.564l1.267-0.957c1.451-1.144,2.903-2.286,4.447-3.337
				c3.551-2.471,7.104-4.91,10.717-7.288C132.243,193.905,132.737,192.825,132.15,191.837z"/>
			<path d="M336.546,180.348c-0.401-0.649-1.081-1.019-1.822-1.019c-0.371,0-0.742,0.092-1.05,0.278l-8.771,5.004
				c-2.688,1.575-4.972,3.057-6.949,4.571c-0.494,0.371-0.803,0.647-0.957,1.174c-0.093,0.493-0.031,1.049,0.215,1.513
				c0.34,0.556,1.05,0.957,1.73,0.957c0.339,0,0.679-0.093,0.957-0.278c1.853-1.236,3.737-2.348,5.652-3.491l1.358-0.772
				c2.471-1.482,5.003-2.903,7.536-4.324l1.358-0.74C336.763,182.665,337.103,181.335,336.546,180.348z"/>
			<path d="M342.601,186.709c-0.217-0.122-0.494-0.185-0.988-0.185c-0.154,0-0.308,0-0.464,0c-0.556,0.154-0.833,0.464-1.544,1.421
				l-0.031,0.062c-0.308,0.308-0.586,0.647-0.865,1.018c-0.74,0.865-1.513,1.668-2.285,2.472c-0.742,0.74-0.742,1.976,0,2.686
				c0.371,0.371,0.833,0.556,1.358,0.556c0.494,0,0.989-0.185,1.328-0.556c0.772-0.803,1.544-1.607,2.254-2.471l1.915-2.41
				c0.278-0.371,0.308-1.019,0.217-1.421C343.31,187.358,343.002,186.956,342.601,186.709z"/>
			<path d="M226.442,104.462c0.494,0,0.957-0.185,1.328-0.556c8.215-7.876,16.554-15.659,24.893-23.379
				c0.339-0.339,0.556-0.803,0.556-1.297c0-0.526-0.185-1.05-0.556-1.39c-0.371-0.371-0.835-0.557-1.328-0.557
				c-0.463,0-0.989,0.186-1.358,0.557c-8.339,7.752-16.647,15.535-24.861,23.41c-0.34,0.34-0.557,0.772-0.557,1.298
				c0,0.525,0.185,1.019,0.557,1.358C225.453,104.278,225.917,104.462,226.442,104.462z"/>
			<path d="M250.594,97.823c0.432-0.401,0.679-0.989,0.711-1.607c0-0.679-0.247-1.328-0.711-1.76
				c-0.401-0.464-0.989-0.68-1.637-0.68s-1.267,0.247-1.729,0.68l-3.15,2.872c-1.76,1.575-3.521,3.182-5.22,4.819l-1.204,1.143
				c-0.772,0.74-1.544,1.482-2.286,2.254c-1.792,1.854-3.551,3.707-5.281,5.59c-0.865,0.957-0.865,2.347,0,3.212
				c0.401,0.433,0.989,0.679,1.607,0.679c0.617,0,1.204-0.246,1.606-0.679c2.779-2.811,5.558-5.622,8.432-8.339
				c1.853-1.76,3.737-3.458,5.59-5.188L250.594,97.823z"/>
			<path d="M244.479,118.392l1.358-1.854c0.34-0.432,0.34-1.174,0.217-1.667c-0.154-0.556-0.525-1.019-1.019-1.328
				c-0.247-0.154-0.493-0.247-1.019-0.247c-0.185,0-0.401,0.031-0.649,0.031c-0.649,0.154-0.988,0.525-1.389,1.05l-4.68,6.239
				c-2.024,2.579-4.048,5.134-6.162,7.628c-0.463,0.525-0.649,0.989-0.649,1.575c0,0.586,0.217,1.143,0.649,1.575
				c0.401,0.401,0.989,0.649,1.637,0.649c0.617,0,1.143-0.217,1.668-0.835c1.358-1.637,2.749-3.304,4.415-5.467l0.586-0.711
				l0.68-0.895l0.185-0.093l-0.062-0.061l0.525-0.68C242.038,121.665,243.244,120.029,244.479,118.392z"/>
		</g>
	</g>
</g>
<g>
</g>
<g>
</g>
<g>
</g>
<g>
</g>
<g>
</g>
<g>
</g>
<g>
</g>
<g>
</g>
<g>
</g>
<g>
</g>
<g>
</g>
<g>
</g>
<g>
</g>
<g>
</g>
<g>
</g>
</svg>
