<?xml version="1.0" encoding="iso-8859-1"?>
<!-- Generator: Adobe Illustrator 19.0.0, SVG Export Plug-In . SVG Version: 6.00 Build 0)  -->
<svg version="1.1" id="Layer_1" xmlns="http://www.w3.org/2000/svg" xmlns:xlink="http://www.w3.org/1999/xlink" x="0px" y="0px"
	 viewBox="0 0 512.004 512.004" style="enable-background:new 0 0 512.004 512.004;" xml:space="preserve">
<g>
	<g>
		<g>
			<path d="M194.343,274.373l1.406,0.059l1.113,0.059l1.64,0.059c1.669,0.088,3.339,0.175,5.096,0.352h2.373h1.494
				c-0.175,1.26-0.352,1.64-0.411,1.699c-0.849,1.815-1.787,3.574-2.753,5.33c-1.26,2.314-2.519,4.656-3.574,7.088
				c-0.147,0.411-0.234,0.761-0.234,1.113c0.175,0.879,0.498,1.289,0.938,1.582c0.293,0.147,0.615,0.234,0.966,0.234
				c0.703,0,1.348-0.352,1.699-0.938c0.849-1.494,1.669-2.988,2.489-4.51l0.702-1.259c1.172-2.138,2.314-4.276,3.339-6.502
				c0.44-0.938,0.703-1.758,0.967-2.9l0.293-1.288l2.46,0.029l6.151-0.118c3.807-0.059,7.644-0.088,11.51-0.118l3.134-0.028
				c2.08-0.029,4.16-0.059,6.238-0.059l2.108,0.088l0.761,0.088l-2.929,4.891l-5.594,8.728c-3.134,4.891-7.234,11.335-11.335,18.393
				c-2.489,0.411-4.891,0.703-7.292,1.142l-1.229,0.234l-2.607,0.468c-0.967,0.234-1.874,0.468-2.782,0.791
				c-0.381,0.118-0.674,0.322-0.82,0.556c-0.293,0.205-0.409,0.498-0.614,0.996c-0.088,0.732,0.029,1.113,0.205,1.435
				c0.146,0.234,0.38,0.468,0.614,0.673c0.352,0.147,0.615,0.206,0.996,0.206c0.411,0.059,0.82,0.088,1.229,0.088l1.289-0.029
				l0.849-0.059c0.879-0.029,1.728-0.088,2.577-0.175l1.348-0.147l2.108-0.234l0.733,0.147l0.028,0.087l-0.643,1.143l-1.903,3.309
				l-1.319,2.226l-1.552,2.636l-0.498,0.761c-2.138,0.498-4.276,1.054-6.384,1.641l-1.494,0.439c-2.08,0.558-4.1,1.142-5.946,1.962
				c-0.556,0.265-0.82,0.967-0.82,1.494c0,0.761,0.468,1.376,1.26,1.699c0.263,0.059,0.614,0.118,0.966,0.118
				c0.381,0,0.761-0.029,1.699-0.175c0.761-0.059,1.522-0.147,2.255-0.263c0.936-0.118,1.903-0.293,2.841-0.468l1.172-0.059v0.087
				c0.879,0.645,1.142,1.143,1.376,1.641c0.234,0.556,0.411,1.142,0.615,2.167c0.029,0.322,0.088,0.645,0.147,0.967
				c0.059,0.527,0.147,1.083,0.234,1.61c0.175,1.172,0.352,2.373,0.527,3.456c0.322,1.348,1.054,1.787,2.226,1.875
				c0.468-0.147,0.849-0.411,1.113-0.82c0.118-0.263,0.175-0.498,0.175-0.82c0-0.264-0.059-0.586-0.175-1.054l-0.175-1.699
				l-0.263-1.992l-0.146-0.907l-0.147-1.054c-0.118-0.439-0.205-0.849-0.381-1.347c-0.029-0.468-0.234-0.938-0.468-1.522
				l-0.205-0.996c0.029-0.234,0.411-0.264,0.761-0.44c0.322-0.234,0.586-0.527,0.995-1.552c0.468-0.938,0.996-1.815,1.553-2.723
				l0.439-0.733l0.791-1.288c0.967-1.61,1.933-3.252,2.841-4.862l0.82-1.026l0.439-0.761c0.381,1.875,0.44,4.071,0.498,6.268
				l0.059,1.494c0.029,1.201,0.879,2.05,2.021,2.05c0.556,0,1.113-0.234,1.465-0.615c0.351-0.322,0.527-0.733,0.556-1.229
				c-0.029-2.43-0.118-4.628-0.263-6.854c-0.087-0.791-0.175-1.581-0.293-2.314l-0.468-2.167l-0.527-1.26l0.175-0.936l0.059,0.059
				c0.322-0.293,0.527-0.761,0.615-1.406l0.175-0.761l0.586-0.996c3.515-6.18,7.41-12.33,11.451-18.627l0.733-1.142l3.661-5.741
				l0.966-0.996l0.381-0.673l0.645,8.669l0.498,10.251l0.175,4.921l0.175,4.921l0.234,6.618l0.059,4.803
				c-0.381,0.263-0.702,0.527-1.025,0.82c-0.352,0.322-0.645,0.703-1.406,1.728l-0.673,0.995c-0.849,1.289-1.669,2.607-2.489,3.924
				l-0.468,0.733l-0.645,1.026l-3.368,5.301l-1.669,1.934l-0.586,0.674l-1.934,2.285c-0.732,0.849-1.465,1.728-2.08,2.694
				c-0.147,0.234-0.205,0.527-0.205,0.82c-0.029,0.498,0.175,0.966,0.498,1.26c0.264,0.321,0.761,0.527,1.289,0.527
				c0.351,0,0.614-0.088,0.791-0.234l0.996-0.761c0.849-0.849,1.61-1.728,2.373-2.636c0.643-0.733,1.229-1.553,1.962-2.607
				l0.44-0.614l0.849-1.348l2.373-2.695l3.163-3.281l2.255-2.607c0.205,1.699,0.381,3.427,0.615,5.184
				c0.059,0.614,0.147,1.054,0.586,1.465c0.321,0.351,0.907,0.586,1.465,0.586c0.615,0,1.172-0.234,1.522-0.645
				c0.352-0.352,0.527-0.761,0.556-1.201l-0.029-1.669c-0.059-1.26-0.088-2.548,0-3.837l0.059-1.172l-0.029-0.82l1.669,1.172
				l4.715,3.836l3.632,2.988c1.376,1.172,2.753,2.314,4.159,3.427c0.586,0.44,0.967,0.615,1.552,0.615
				c0.556,0,1.142-0.265,1.523-0.615c0.38-0.38,0.614-0.907,0.614-1.522c0-0.263-0.059-1.142-0.643-1.522l-1.553-1.26l-3.573-2.841
				c-1.054-0.82-2.138-1.61-3.252-2.372l-0.849-0.645l-2.373-1.758l-2.373-1.758l-1.553-1.201l-0.702-0.527l-0.791-0.643
				l-0.703-0.498l-0.175-3.895l-0.381-8.171c-0.351-7.762-0.761-15.493-1.201-23.255l0.029-3.866l-0.088-1.934l1.201,0.556
				l3.808,3.69l1.142,1.113c1.142,1.113,2.285,2.226,3.456,3.281l3.777,3.543l4.686,4.393c1.231,1.201,2.43,2.43,3.603,3.924
				c-0.118,0.234-0.175,0.586-0.234,0.967c-0.059,0.293-0.088,0.586-0.088,0.908c0,0.293,0.029,0.615,0.088,0.907l0.147,1.699
				l0.205,2.373l0.147,1.289l0.205,2.021l0.205,2.108l0.118,2.929l0.059,1.083c0.234,0.879,1.083,1.523,2.021,1.523
				c0.586,0,1.083-0.205,1.435-0.586c0.381-0.411,0.527-0.849,0.586-1.435c0.147-1.319,0.264-2.607,0.381-3.924l0.205-2.548
				l0.411-1.934l0.118-0.907l1.845,1.552l1.289,1.376c0.879,0.908,1.758,1.846,2.841,3.046c-0.234,0.293-0.411,0.702-0.411,1.23
				l0.088,5.828l0.088,3.075c0.029,0.936,0.088,1.874,0.732,2.489c0.352,0.352,0.82,0.498,1.699,0.527
				c0.352-0.118,0.614-0.293,0.849-0.527c0.352-0.352,0.411-0.732,0.498-1.259c0.059-0.44,0.088-0.849,0.088-1.259
				c0.029-0.82-0.059-1.669-0.147-2.461l-0.088-1.201c-0.029-0.556-0.059-1.113-0.118-1.669v-1.641v-1.874
				c0.322-0.558,0.44-0.615,0.44-0.645c0.586-0.352,1.113-0.645,1.874-0.996c2.636-1.083,5.741-1.874,9.782-2.519
				c0.556-0.059,1.026-0.147,1.435-0.615c0.381-0.352,0.615-0.849,0.615-1.435c0-1.142-0.936-2.08-2.05-2.08
				c-1.025,0.088-2.05,0.175-3.075,0.381c-0.879,0.175-1.64,0.322-2.46,0.556c-1.318,0.38-2.576,0.879-3.836,1.406l-1.494,0.703
				l-1.523,0.586l-0.879-1.083l-0.967-1.083l-1.025-1.113c-1.728-1.699-2.929-2.9-4.101-4.129l-0.791-1.142
				c0.029-0.029-0.234-0.293-0.234-0.321c0.029-0.029-0.293-0.294-0.293-0.322c1.465-0.205,3.016-0.293,4.569-0.38
				c1.406-0.088,2.812-0.206,4.217-0.352l1.903-0.175c0.703-0.088,1.113-0.234,1.435-0.586c0.352-0.322,0.586-0.879,0.586-1.435
				c0-0.938-0.849-2.021-2.021-2.021c-1.874,0.146-3.749,0.411-6.033,0.702l-0.761,0.088l-1.259,0.175l-1.083,0.118
				c-0.966,0.147-1.845,0.263-2.957,0.468l-1.875,0.38c-0.907-0.995-1.903-2.02-2.928-3.016c-1.669-1.669-3.427-3.281-5.184-4.891
				l-2.9-2.635l-4.276-4.042l-0.703-0.674c-1.142-1.083-2.285-2.196-3.456-3.222l-1.992-2.137l-1.522-1.406l2.577-0.059
				c4.129,0.088,8.288,0.147,12.447,0.147c7.497,0.029,14.966,0.059,22.463,0.147l5.887,0.088l1.318,0.088
				c0.118,0.205,0.381,0.321,1.054,0.439c0.468,0,0.849-0.175,1.347-0.527l0.996,0.118c0.293,0.381,0.643,0.791,1.054,1.172
				l1.699,1.641c1.142,1.113,2.343,2.196,3.515,3.252c0.966,0.849,1.933,1.699,2.87,2.576c0.352,0.381,0.936,0.615,1.552,0.615
				c0.615,0,1.083-0.205,1.465-0.615c0.411-0.352,0.645-0.907,0.645-1.522c0-0.586-0.263-1.142-0.645-1.494
				c-1.522-1.552-3.104-3.046-4.803-4.422l-0.527-0.703c0.029,0-0.205-0.264-0.175-0.264c0-0.029-0.234-0.322-0.263-0.322h4.217
				c1.347-0.029,2.314-1.025,2.314-2.314c0-1.289-0.996-2.285-2.314-2.314c-2.577-0.118-5.126-0.147-7.732-0.147l-0.849-0.234
				c-0.029-0.381,0.205-0.703,0.527-1.142l0.674-0.967l0.527-0.674c0.733-0.995,1.494-1.992,2.255-2.957l1.259-1.61l1.23-1.641
				l1.522-2.05c0.381-0.439,0.849-1.054,1.201-1.815c0.147-0.322,0.205-0.615,0.205-0.908c0-0.468-0.175-0.879-0.498-1.201
				c-0.263-0.293-0.703-0.468-1.23-0.468c-0.321,0-0.614,0.059-0.849,0.176c-1.23,0.761-2.196,1.992-3.104,3.163l-0.615,0.791
				c-0.879,1.113-1.728,2.226-2.928,3.866c-1.758,2.285-3.574,4.774-5.037,7.527l-2.402,0.234l-6.618,0.088
				c-7.527,0.088-15.084,0.175-22.61,0.234h-2.314c-3.456,0-6.941-0.058-10.426-0.116l-1.348-0.263l1.553-3.339l2.343-3.867
				l1.435-2.343l2.87-4.656l0.966-1.582l2.138-3.72c0.556-0.088,0.82-0.088,0.967-0.088c0.088,0,0.118,0,0.147,0
				c0.44-0.118,0.761-0.381,1.026-0.733c0,0,0.498-1.054,0.468-1.054l0.938-0.234l0.82-0.029c0.702,0,1.406-0.029,2.108-0.118
				c1.435-0.087,2.899-0.352,4.306-0.614c1.376-0.265,2.812-0.556,4.276-0.908c0.411-0.029,0.761-0.263,1.083-0.733
				c0.205-0.352,0.293-0.761,0.293-1.142c-0.321-1.289-1.054-1.728-2.314-1.728l-1.406,0.263l-1.376,0.265
				c-1.406,0.263-2.812,0.527-4.276,0.761l-2.635,0.264c-0.293,0-0.586-0.029-1.083-0.205l0.44-1.201
				c1.083-2.021,2.196-4.07,3.368-6.033c0.293-0.556,0.586-1.083,1.289-2.138l1.172-1.728c0.205-0.293,0.381-0.586,0.615-0.879
				l0.703-0.703c0.029,0,0.293-0.205,0.322-0.205c0,0,0.293-0.234,0.322-0.263c0.146,0.147,0.351,0.294,0.791,0.498l1.113,0.322
				l1.201-0.147c0.352,0,0.733-0.059,1.348-0.175c0.322-0.087,0.614-0.205,1.288-0.439l0.938-0.352
				c1.699-0.615,3.368-1.319,5.008-2.021c0.498-0.234,1.054-0.468,1.581-0.643c0.381-0.147,0.791-0.352,1.142-0.82
				c0.147-0.321,0.234-0.703,0.234-1.054c-0.205-0.849-0.673-1.699-2.285-1.758c-2.108,0.761-4.07,1.612-6.472,2.666
				c-0.556,0.234-1.113,0.468-2.08,0.556l-1.201,0.411l-0.673-1.465l-0.029-1.172l-0.029-1.17l-0.029-1.172l-0.088-3.016
				c-0.029-0.936-0.059-1.874-0.322-2.753c-0.088-0.645-0.82-1.201-1.581-1.201c-0.527,0-0.967,0.175-1.23,0.499
				c-0.293,0.264-0.411,0.643-0.468,1.201c-0.059,0.791-0.088,1.582-0.088,2.402c0,0.791,0.029,1.581,0.059,2.373l0.059,1.26
				l-0.088,3.104l-1.083,1.553l-2.226,3.163l-0.761,1.17c-0.234,0.322-0.468,0.645-0.674,0.996l-1.172,1.962l-0.791,1.435
				c-0.322,0.527-0.586,0.995-1.054,1.406l-0.996,1.874v-0.84c-0.411-1.992-0.615-3.72-0.761-5.536
				c-0.029-0.82-0.586-1.699-1.699-1.699c-0.498,0-0.966,0.234-1.259,0.556c-0.322,0.263-0.44,0.615-0.44,1.318
				c0.147,1.903,0.264,3.134,0.293,4.363l0.029,0.791l0.029,0.791l0.029,0.82c0.029,0.645,0.059,1.289,0.118,1.874l0.322,1.465
				l0.643,1.581l-0.732,1.26c-1.992,3.632-4.101,7.176-6.209,10.69c-1.083,1.816-2.167,3.632-3.397,5.389l-0.556,0.82l-0.938,1.435
				l-0.381-4.978c-0.264-7.937-0.527-15.845-0.849-23.782l-0.381-9.284l-0.118-5.214c0.264-0.118,0.527-0.322,1.259-0.879
				l0.879-0.966c0.322-0.381,0.645-0.761,0.938-1.201l0.614-0.791l1.113-1.435c0.468-0.586,0.938-1.231,1.787-2.489l0.674-0.849
				l0.645-0.967l1.435-2.08l1.435-2.08c0.498-0.761,1.026-1.522,1.553-2.255c0.586-0.879,1.083-1.758,1.552-2.694
				c0.147-0.294,0.205-0.586,0.205-0.879c0.029-0.528-0.175-0.996-0.498-1.348c-0.293-0.321-0.82-0.527-1.376-0.527
				c-0.556,0-0.967,0.206-1.201,0.556c-1.083,1.26-2.138,2.548-3.075,3.836l-1.494,2.402l-1.172,1.815l-0.44,0.702
				c-1.201,1.846-2.021,3.016-2.841,4.1l-0.674,0.849l-0.643,0.761L248,217.018l-0.468,0.643l-0.411-5.564l-0.702-12.623
				c-0.029-1.083-0.849-1.875-1.905-1.875c-0.561,0.006-1.089,0.24-1.411,0.621c-0.322,0.293-0.468,0.673-0.468,1.259l0.411,11.54
				l0.147,3.134l-3.339-2.959l-3.25-3.192l-0.586-0.586l-0.586-0.556c-0.702-0.908-1.406-1.874-2.285-2.607
				c-0.352-0.322-0.791-0.498-1.259-0.498c-0.264,0-0.527,0.059-0.849,0.206c-0.527,0.321-0.849,0.907-0.849,1.522
				c0.118,0.615,0.205,0.879,0.321,1.142c0.263,0.44,0.674,0.879,1.23,1.348l0.586,0.615l0.586,0.614
				c1.934,2.46,3.924,4.891,5.975,7.322l3.573,4.16c0.352,0.381,0.733,0.761,1.172,1.435l0.44,4.51
				c0.205,3.72,0.322,7.468,0.439,11.217c0.147,4.393,0.293,8.816,0.411,13.238l0.205,7.791l-0.088,6.033l0.088,3.193l-2.108-1.845
				l-2.959-2.782l-2.899-2.753c-1.758-1.64-3.515-3.281-5.214-4.979c-1.289-1.259-2.578-2.519-3.779-3.895l-0.936-1.348
				c0.264-0.439,0.615-0.791,0.966-1.229c0.352-0.352,0.645-0.879,1.026-1.787c0.118-0.409,0.205-0.849,0.263-1.318
				c0-0.702,0-1.376-0.059-2.05c-0.147-1.728-0.381-3.427-0.645-5.155l-0.381-2.402l-0.409-2.373l-0.118-0.849
				c0-0.322-0.411-0.733-0.733-0.996c-0.234-0.088-0.468-0.146-1.319-0.205c-0.439,0.147-0.849,0.44-1.083,0.82
				c-0.118,0.234-0.205,0.44-0.205,0.791c0,0.294,0.059,0.645,0.147,1.142l0.293,3.779l0.147,1.962
				c0.088,1.787,0.088,3.543,0.088,5.33l-0.234,1.288l-2.753-2.841c-0.468-0.643-0.879-1.288-1.288-1.933l-0.44-0.761
				c-1.054-1.669-2.021-3.397-2.87-5.36c0.352-0.411,0.586-0.849,0.615-1.319l-0.175-2.988c-0.147-2.314-0.322-4.656-0.556-6.97
				c-0.029-0.643-0.322-1.172-0.82-1.494c-0.264-0.146-0.614-0.205-0.879-0.205c-0.527,0-0.967,0.205-1.201,0.498
				c-0.263,0.206-0.44,0.499-0.556,0.849c-0.059,0.234-0.087,0.527-0.087,0.879c-0.029,1.581-0.029,2.43-0.029,3.281l-0.088,1.962
				c-0.029,1.259-0.029,2.08-0.175,2.987c-0.118,0.527-0.263,1.054-0.586,1.934c-1.26,0.643-1.903,0.791-3.134,1.054l-0.879,0.205
				c-0.645,0.088-1.319,0.263-2.43,0.527l-1.582,0.409c-0.556,0.147-0.995,0.469-1.288,0.967c-0.205,0.352-0.322,0.761-0.293,1.172
				c0.352,1.406,1.172,1.874,2.607,1.962c1.903-0.468,3.777-0.938,5.653-1.465c0.674-0.176,1.319-0.44,2.05-0.791l1.025-0.556
				l0.879,1.172l0.761,1.348l0.527,0.938l1.845,2.9c0.411,0.643,0.879,1.259,1.348,1.903l0.498,0.673l0.498,1.026l-0.643,0.498
				l-2.43,1.259l-1.231,0.615c-0.527,0.293-0.907,0.967-0.907,1.61c0.175,0.908,0.468,1.319,0.907,1.581
				c0.175,0.088,0.381,0.175,1.376,0.206c1.933-0.792,3.777-1.612,5.857-2.548c1.201,1.522,2.548,3.016,3.924,4.481
				c1.64,1.758,3.368,3.456,5.096,5.154l2.577,2.52l2.666,2.666l1.376,1.668l1.259,1.289c-3.281,0.147-6.59,0.205-9.929,0.293
				l-3.954,0.029c-2.636,0.029-5.271,0.087-7.908,0.147l-5.271-0.029c-0.322-0.381-0.586-0.645-0.938-0.879l-1.142-0.761
				c-2.343-1.494-4.656-2.987-7.058-4.451l-1.113-0.645l-1.172-0.673l-0.849-0.703l-1.465-1.172l-1.522-1.201
				c-0.938-0.645-1.699-1.201-2.959-1.406c-0.614,0-1.201,0.293-1.61,0.733c-0.205,0.321-0.293,0.614-0.293,0.995
				c0,0.322,0.088,0.733,0.263,1.26c0.263,0.411,0.645,0.791,1.142,1.172c0.468,0.44,1.025,0.82,1.787,1.319l0.643,0.439
				c1.054,0.703,2.109,1.348,3.252,1.962l0.908,0.733c0.82,0.674,1.669,1.288,2.841,2.108c0.352,0.293,0.615,0.498,0.791,0.733
				l0.761,0.556c-1.172,0.029-2.285,0.059-3.368,0.059c-2.489,0-4.803-0.088-7.147-0.175l-1.406-0.029
				c-0.967,0-1.815,0.879-1.815,1.875C192.469,273.553,193.259,274.344,194.343,274.373z"/>
			<path d="M472.398,403.029c-0.234-1.962-0.556-3.924-0.849-5.887c-0.293-2.05-1.172-4.101-2.137-5.887
				c-0.761-1.348-1.699-2.519-2.489-3.836c-0.029-0.205-0.088-0.44-0.147-0.645c-0.147-1.992-0.234-3.954-0.498-5.945
				c-0.205-1.612-0.439-3.104-0.879-4.656c-0.411-1.406-1.083-2.782-1.699-4.1c-1.083-2.343-2.928-4.51-4.891-6.122
				c-4.013-3.25-8.786-4.715-13.912-4.774c-1.494,0-2.928,0.147-4.422,0.381c-0.633,0.098-1.213,0.344-1.813,0.534
				c0.162-3.313,0.198-6.63,0.085-9.964c-0.059-1.874-0.411-3.777-0.615-5.653c-0.322-2.869-0.907-5.71-1.435-8.523
				c-0.761-3.983-2.05-7.82-3.309-11.657c-0.527-1.552-1.083-3.046-1.699-4.54c-1.142-2.812-2.167-5.682-3.427-8.406
				c-1.669-3.543-3.25-7.116-5.096-10.572c-7.527-14.292-17.133-27.268-26.096-40.71c-9.314-13.97-18.656-27.911-27.794-41.998
				c-4.394-6.795-8.963-13.443-13.473-20.179c-4.276-6.384-8.024-13.091-12.125-19.623c-4.188-6.677-8.494-13.326-12.798-19.945
				c-4.715-7.234-9.665-14.205-15.143-20.882c-3.179-3.85-6.42-7.685-10.001-11.184c0.407-0.372,0.853-0.696,1.243-1.087
				c2.196-2.196,4.013-4.862,5.536-7.527c1.552-2.723,2.666-5.8,3.456-8.816c0.879-3.25,0.938-6.707,0.381-9.988
				c-0.527-3.104-1.699-6.004-3.427-8.61c-0.967-1.465-2.109-2.841-3.252-4.189c-0.088-0.146-0.175-0.293-0.293-0.439
				c-0.029-0.147-0.088-0.293-0.118-0.44c0-0.029,0-0.029,0-0.059c0.468-1.903,1.083-3.777,1.64-5.682
				c0.44-1.435,0.733-2.929,1.113-4.423c0.381-1.522,0.556-3.134,0.849-4.686c0.702-3.954,0.791-7.965,0.556-11.949
				c-0.234-4.189-1.025-8.318-2.46-12.243c-0.673-1.845-1.522-3.543-2.841-5.008c-1.348-1.494-2.929-2.666-4.599-3.807
				c-2.08-1.465-4.54-2.813-7.117-3.193c-0.205-1.992-0.527-3.983-0.908-5.975c-1.083-5.594-3.514-10.778-6.736-15.434
				c-1.406-1.992-2.929-3.924-4.599-5.71c-1.962-2.08-4.451-3.808-6.911-5.214c-2.255-1.319-4.862-2.168-7.351-2.929
				c-1.26-0.38-2.43-0.673-3.72-0.791C265.831,0.029,265.45,0,265.1,0c-1.318,0-2.578,0.206-3.954,0.411
				c-2.343,0.352-4.656,1.61-6.765,2.636c-0.938,0.468-1.846,0.967-2.782,1.465c-1.699,0.908-3.397,1.903-4.979,3.075
				c-1.552,1.142-2.929,2.314-4.188,3.749c-0.761,0.908-1.494,1.845-2.226,2.782c-0.645,0.849-1.083,1.61-1.348,2.607
				c-5.008-2.108-10.104-4.1-15.375-5.594c-5.008-1.435-10.31-1.787-15.465-1.201c-4.95,0.586-9.723,2.167-14.351,3.983
				c-2.08,0.791-4.129,1.64-6.091,2.666c-2.108,1.113-4.013,2.636-5.798,4.188c-1.992,1.699-3.603,3.807-5.126,5.916
				c-1.553,2.08-2.841,4.393-3.837,6.795c-2.43,6.121-2.489,12.77-1.581,19.183c-0.175,0.263-0.381,0.527-0.556,0.82
				c-2.314,2.753-4.599,5.536-6.854,8.346c-1.435,1.816-2.812,3.633-4.042,5.595c-1.435,2.342-2.402,5.008-3.339,7.556
				c-0.673,1.875-1.083,3.837-1.435,5.769c-0.293,1.582-0.468,3.193-0.615,4.774c-0.147,1.553,0.118,3.134,0.322,4.657
				c0.586,4.217,2.05,8.288,4.129,11.978c1.758,3.163,4.363,5.857,6.795,8.523c1.641,1.787,3.368,3.368,5.214,4.862
				c0.059,1.435,0.118,2.9,0.118,4.363c0.059,3.543,0.322,7,0.967,10.515c0.411,2.402,1.435,4.628,2.402,6.854
				c0.966,2.226,2.519,4.481,4.159,6.297c0.638,0.721,1.372,1.347,2.093,1.985c-8.591,11.691-16.781,23.647-24.117,36.178
				c-3.954,6.765-7.79,13.59-11.628,20.414c-4.013,7.147-8.024,14.264-11.657,21.586c-6.911,14.029-13.356,28.233-19.447,42.614
				c-6.093,14.351-12.506,28.585-18.598,42.936l0.029-0.028c-0.059,0.118-0.118,0.264-0.175,0.409
				c-0.205,0.44-0.381,0.879-0.556,1.319c0-0.029,0.029-0.088,0.029-0.118c-3.309,7.82-6.648,15.639-9.695,23.548
				c-3.075,7.965-5.945,15.932-8.464,24.103c-1.054,3.456-2.021,6.971-2.695,10.544c-0.586,3.221-1.142,6.443-1.494,9.695
				c-0.284,2.657,0.007,5.421,0.729,8.06c-1.156-0.012-2.313-0.006-3.482,0.082c-1.875,0.147-3.72,0.468-5.564,0.849
				c-2.196,0.468-4.247,1.435-6.268,2.373c-1.669,0.761-3.163,1.845-4.569,2.957c-1.846,1.465-3.222,3.193-4.628,5.038
				c-1.435,1.874-2.314,4.363-3.192,6.501c-0.733,1.845-1.376,3.69-1.933,5.594c-1.348,4.628-1.903,9.489-2.607,14.264
				c-0.468,3.222-0.761,6.443-1.026,9.695c-0.381,4.276-0.234,8.581,0.411,12.827c0.352,2.373,1.201,4.628,2.108,6.824
				c0.761,1.787,1.61,3.777,3.046,5.124c0.468,0.411,0.908,0.82,1.376,1.172c-0.029,0.586-0.059,1.172-0.118,1.787
				c-0.147,0.907-0.263,1.845-0.409,2.782c0.028-0.147,0.059-0.322,0.087-0.468c-0.234,1.728-0.439,3.427-0.614,5.155
				c-0.234,3.075,0.118,6.18,0.849,9.166c0.645,2.578,1.992,5.155,3.456,7.381c1.874,2.9,4.363,5.155,7.147,7.205
				c6.18,4.599,13.824,4.628,21.146,5.067c0.029,0,0.088,0.029,0.147,0.029c0.088,0.059,0.205,0.118,0.293,0.205
				c2.314,2.021,4.276,4.393,6.502,6.443c3.163,2.899,6.736,4.833,10.778,6.18c3.309,1.083,7,1.083,10.397,0.791
				c4.276-0.381,8.435-1.523,12.418-3.046c6.091-2.314,11.832-5.36,17.66-8.201c0.645-0.234,1.259-0.411,1.933-0.586
				c1.728,0.879,3.368,1.992,4.979,3.046c2.607,1.728,5.36,3.25,8.289,4.393c5.71,2.196,11.919,3.075,18.012,3.016
				c2.841,0,5.682-0.352,8.464-0.761c2.196-0.322,4.422-0.674,6.59-1.201c2.167-0.558,4.451-0.938,6.59-1.669
				c2.138-0.733,4.276-1.435,6.414-2.196c2.87-0.995,5.623-2.373,8.435-3.574c3.632-1.522,7.205-3.221,10.807-4.862
				c0.673,0.499,1.376,0.996,2.05,1.494c1.933,1.406,4.013,2.373,6.238,3.281c4.1,1.699,8.259,2.489,12.652,3.016
				c4.188,0.498,8.494-0.029,12.623-0.674c3.016-0.498,5.975-1.172,8.903-1.933c5.682-1.465,10.955-3.896,16.285-6.18
				c0.673-0.234,1.347-0.44,2.021-0.615c2.05,0.468,3.983,1.23,5.945,1.934c1.933,0.673,3.866,1.376,5.829,1.962
				c8.201,2.46,16.87,3.162,25.304,1.933c3.836-0.556,7.527-1.435,11.158-2.812c2.402-0.938,4.715-2.05,7.029-3.193
				c2.08-1.025,3.983-2.373,5.945-3.602c1.229,0.44,2.46,0.936,3.69,1.376c3.807,1.435,7.937,1.933,11.979,2.46
				c6.97,0.879,13.853,0.205,20.707-1.288c4.481-0.967,8.728-2.695,12.916-4.569c1.083,0.849,2.196,1.64,3.339,2.402
				c2.226,1.494,4.862,2.46,7.381,3.339c2.812,0.996,5.916,1.319,8.874,1.61c3.046,0.293,6.209-0.234,9.196-0.849
				c2.812-0.556,5.477-1.815,8.084-2.988c1.025-0.44,1.992-1.025,2.959-1.61c0.966-0.556,1.874-1.201,2.723-1.903
				c0.205,0,0.38,0,0.556,0c2.402-0.059,4.803-0.645,7.029-1.522c3.896-1.553,7.263-3.749,10.485-6.385
				c6.121-5.008,10.895-11.188,14.146-18.393c1.815-4.1,3.339-8.376,4.393-12.74c0.645-2.607,1.288-5.214,1.522-7.878
				c0.088-1.142,0.029-2.255-0.059-3.397c-0.118-1.406-0.059-2.812,0.088-4.217c0.82-5.008,1.962-9.988,2.695-14.995
				c0.263-1.815,0.556-3.632,0.761-5.476C472.663,410.176,472.779,406.662,472.398,403.029z M449.436,379.833
				c0.118,0.175,0.263,0.352,0.381,0.527c-0.118-0.147-0.234-0.322-0.381-0.498c-0.058-0.059-0.087-0.088-0.116-0.146
				C449.349,379.746,449.408,379.804,449.436,379.833z M178.729,100.635c-2.517-2.11-4.597-4.102-6.296-6.123
				c-0.791-1.142-1.494-2.314-2.08-3.603c-0.468-1.288-0.879-2.548-1.201-3.924c-0.059-1.172-0.029-2.343,0.059-3.543
				c0.411-2.255,0.996-4.394,1.815-6.531c0.996-2.168,2.255-4.276,3.983-6.62c0.733-0.907,1.435-1.845,2.139-2.782l0.966-1.201
				c1.787-2.227,3.603-4.54,5.037-7c0.791-1.406,1.318-3.104,1.318-4.451c0.118-1.026,0.029-1.962-0.175-2.9l-0.498-1.142
				l-0.468-1.172c-0.147-0.293-0.352-0.586-0.586-0.879c-0.175-0.264-0.352-0.498-0.468-0.732l-0.322-0.674
				c-0.439-1.259-0.82-2.548-1.113-3.896c-0.118-1.493-0.147-2.987-0.029-4.51c0.293-1.318,0.645-2.606,1.113-3.895
				c0.995-1.99,2.08-3.807,3.339-5.564c1.435-1.669,2.723-2.987,4.129-4.1c1.875-1.318,4.013-2.489,6.911-3.777
				c5.155-2.139,9.255-3.368,13.267-4.013c1.318-0.118,2.636-0.175,3.983-0.175c1.494,0,3.016,0.087,4.54,0.234
				c6.941,1.259,13.443,3.866,20.267,6.736c0.645,0.263,1.319,0.409,1.962,0.409c0.643,0,1.229-0.146,1.758-0.439
				c0.059,0,0.733,0.234,0.761,0.264c0.468,0.118,0.967,0.175,1.494,0.175c1.435,0,2.812-0.586,3.895-1.64
				c1.083-0.82,1.903-2.02,2.343-3.368c0.088-0.264,0.147-0.498,0.205-0.761l0.44-0.732c0.411-0.468,0.82-0.879,1.318-1.26
				c2.138-1.494,4.51-2.578,6.941-3.632c1.282-0.522,2.588-0.975,3.957-1.338c0.164-0.044,0.328-0.086,0.494-0.127h0.527
				c0,0,0,0,0.029,0c1.494,0.352,2.9,0.908,4.306,1.494c1.465,0.673,2.812,1.494,4.16,2.43c1.259,1.054,2.402,2.196,3.484,3.456
				c2.108,2.9,3.661,5.448,4.833,7.996c0.908,2.401,1.581,5.067,2.108,8.171c0.175,1.581,0.264,3.133,0.293,4.686
				c0.029,0.82,0.118,1.61,0.205,2.402c0.088,0.791,0.205,1.552,0.322,2.285c0.234,0.703,0.527,1.376,0.879,2.021
				c0.674,1.319,2.168,2.46,3.837,2.959c0.586,0.147,1.172,0.234,1.787,0.234c1.142,0,2.314-0.293,3.486-0.879
				c0.263-0.118,0.498-0.263,1.259-0.615c1.113,0.615,2.226,1.26,3.309,1.992c0.293,0.263,0.556,0.527,1.025,1.229
				c0.082,0.214,0.16,0.431,0.239,0.646c0.031,0.064,0.052,0.132,0.072,0.193c0.771,2.172,1.322,4.426,1.711,6.863
				c0.352,3.69,0.352,7.176,0.029,10.66c-0.643,4.042-1.259,7.088-2.05,9.958l-0.205,0.82c-0.791,2.987-1.581,6.062-0.556,9.108
				c0.409,1.23,0.966,2.373,1.787,3.69l0.527,0.703c0.234,0.322,0.468,0.615,0.643,0.938c0.733,1.083,1.406,2.196,1.962,3.368
				c0.263,0.849,0.468,1.669,0.703,2.576c0.088,1.172,0.088,2.343,0,3.515c-0.352,1.903-0.879,3.72-1.61,5.535
				c-0.996,2.138-2.138,4.13-3.515,6.063c-1.229,1.494-2.607,2.899-4.1,4.188c-2.489,1.787-5.126,3.339-7.791,4.599
				c-1.054,0.381-2.108,0.703-3.221,0.967l-1.026,0.028c-1.581,0.088-3.221,0.147-4.686,0.761c-1.581,0.645-2.548,1.231-3.72,2.283
				c-0.293,0.265-0.527,0.528-1.231,1.348c-2.021,2.168-4.363,4.364-7,6.473c-1.787,1.231-3.72,2.343-5.945,3.368
				c-0.226,0.083-0.453,0.166-0.679,0.244c-1.262,0.442-2.52,0.801-3.861,1.075c-1.26,0.088-2.548,0.147-3.808,0.147
				c-1.699,0-3.427-0.088-5.124-0.263c-2.402-0.44-4.599-1.026-6.708-1.845c-1.845-0.879-3.543-1.846-5.271-3.016l-1.494-1.289
				l-1.347-1.142c-0.82-0.673-1.61-1.288-2.489-1.874c-0.791-0.556-2.929-1.26-4.393-1.26c0,0,0,0-0.029,0
				c-2.314,0.293-4.306,0.733-6.443,1.406l-0.879,0.293c-3.661,1.201-7.469,2.43-11.276,3.163c-0.908,0.059-1.845,0.088-2.753,0.088
				c-1.083,0-2.167-0.059-3.252-0.146c-2.196-0.381-4.276-0.908-6.355-1.641c-0.733-0.381-1.435-0.761-2.167-1.231
				c-0.352-0.321-0.703-0.673-1.406-1.406c-0.615-0.936-1.172-1.903-1.641-2.899c-0.411-1.201-0.702-2.402-0.966-3.661
				c-0.175-1.962-0.234-3.924-0.293-5.887c-0.029-1.699-0.088-3.427-0.234-5.154c-0.147-1.201-0.322-2.43-0.498-3.632
				c-0.147-1.229-0.761-2.402-1.64-4.129c-0.733-1.348-2.108-2.636-4.129-3.866L178.729,100.635z M285.19,137.184
				c0,0.029-0.029,0.029-0.059,0.059c0,0,0,0,0-0.029C285.161,137.214,285.19,137.184,285.19,137.184z M88.963,375.763l0.322-2.226
				l0.263-1.962c0.205-1.083,0.44-2.167,0.674-3.193l0.175-0.936l0.527-2.227c0.791-3.397,1.787-6.794,2.812-10.133
				c2.402-7.849,5.214-16.137,8.348-24.573c3.924-10.749,8.23-21.205,13.063-32.773l0.411-0.936l4.715-11.393l5.037-12.506
				c3.339-8.348,6.707-16.694,10.163-25.012l0.703-1.64c2.666-6.326,5.536-13.033,8.698-19.388
				c3.544-7.235,7.147-14.41,10.925-21.497c4.159-7.79,8.376-15.521,12.652-23.255c1.348-2.43,2.841-4.833,4.335-7.204l2.196-3.486
				c1.201-1.992,2.489-3.924,3.808-5.857l0.936-1.376l1.582-2.285c2.537-3.749,5.167-7.469,8.071-11.133
				c0.005,0.001,0.007,0.002,0.012,0.005c0.029-0.059,0.059-0.118,0.118-0.175c1.172,0.44,2.373,0.791,3.574,1.142
				c1.845,0.468,3.749,0.702,5.653,0.907l1.231,0.147c1.113,0.147,2.196,0.205,3.25,0.205c1.289,0,2.548-0.087,3.808-0.234
				c2.841-0.263,5.653-0.908,8.845-1.992c0.586-0.205,1.142-0.44,1.699-0.674l1.083-0.44c1.903-0.761,3.807-1.552,5.594-2.489
				l1.553-0.732c1.406,1.172,2.812,2.313,4.247,3.368c3.484,2.372,7.556,3.866,10.719,4.89c3.134,0.967,6.649,1.319,9.988,1.582
				c0.967,0.088,1.962,0.146,2.959,0.146c3.134,0,6.297-0.409,9.196-1.172c3.016-0.907,6.238-2.401,9.606-4.481
				c2.489-1.61,4.95-3.807,7.498-6.707c1.113-1.289,2.167-2.607,3.192-3.983c0.381-0.411,0.674-0.879,1.406-1.992
				c1.581-0.118,3.162-0.321,4.656-0.615l0.732-0.234l0.791-0.264h0.029c0.029,0,0.175,0.117,0.175,0.147
				c0.381,0.615,0.82,1.172,1.318,1.756l1.846,2.198c3.749,4.451,7.468,8.874,11.071,13.443c4.628,6.356,8.874,12.945,12.389,18.598
				c1.699,2.695,3.427,5.389,5.183,8.084c2.607,4.042,5.214,8.083,7.674,12.213l3.193,5.33l3.192,5.33l3.309,5.037l1.494,2.314
				l1.641,2.43l3.427,5.154c3.222,4.833,6.414,9.636,9.518,14.557c8.845,13.794,17.895,27.472,26.945,41.12l3.484,5.155l1.406,2.108
				l0.761,1.142c2.578,3.807,5.126,7.585,7.556,11.48c4.833,7.616,8.786,13.999,12.009,21.057l1.465,3.222l1.465,3.222l1.465,3.603
				l1.142,2.812c0.614,1.552,1.142,3.163,1.64,4.744l0.674,2.108c1.229,3.69,2.05,7.615,2.753,11.129l0.411,2.109l0.118,1.201
				l0.118,1.406c0.147,1.494,0.293,2.988,0.381,4.54c0.175,3.808,0.029,7.557-0.468,11.189c-8.464,2.959-17.367,4.51-25.041,5.71
				c-8.171,0.966-15.259,1.641-21.673,2.05c-8.435,0.468-16.87,0.703-25.334,0.908c-9.929,0.234-19.974,0.82-28.615,1.348
				l-4.07,0.205c-5.536,0.322-11.071,0.645-16.606,0.879c-3.486,0.118-7,0.234-10.485,0.321l-2.636,0.059
				c-3.632,0.118-7.234,0.234-10.865,0.44c-7.498,0.351-14.995,0.907-22.463,1.465l-2.782,0.205
				c-7.967,0.586-15.932,0.995-23.898,1.347l-3.836,0.147c-6.795,0.293-13.59,0.586-20.355,1.201l-10.192,0.849l-5.271,0.468
				l-8.025,0.703c-7.849,0.674-15.668,1.347-23.518,2.05l-5.36,0.498l-0.761,0.058c-5.887,0.527-11.979,1.083-17.953,1.348
				c-4.481,0.175-8.962,0.263-13.444,0.322l-3.954,0.029c-4.188,0-7.615-0.175-10.778-0.468c-0.908-0.147-1.758-0.352-2.636-0.586
				c-0.175-0.118-0.352-0.234-0.556-0.321c-0.135-0.033-0.273-0.075-0.411-0.108c-0.396-0.159-0.872-0.288-1.362-0.359
				c-0.151-0.044-0.304-0.073-0.453-0.12c-0.293,0-0.615-0.029-0.936-0.029l-0.556-0.205c-0.005,0-0.009,0-0.013,0l-0.162-0.059
				l-1.113-0.381c-0.907-0.44-1.787-0.936-2.753-1.494l-0.702-0.761c-0.234-0.381-0.468-0.761-0.674-1.142
				c-0.175-0.468-0.293-0.908-0.586-1.933C88.67,379.629,88.786,377.696,88.963,375.763z M215.692,496.636
				c0.352-0.147,0.703-0.293,1.054-0.44h0.029l0,0C216.394,496.343,216.043,496.489,215.692,496.636z M457.08,412.49
				c-0.556,3.661-1.201,7.263-1.992,10.865l-0.322,1.435c-0.322,1.699-0.673,3.397-0.966,5.067c-0.381,2.05-0.645,4.129-0.849,6.209
				c-0.088,0.733-0.088,1.465-0.088,2.198l-0.059,1.494c-0.498,2.138-1.201,4.276-1.962,6.297l-0.411,1.201
				c-0.733,2.138-1.465,4.276-2.314,6.414c-1.494,3.252-3.105,6.063-4.921,8.611c-2.021,2.373-4.247,4.569-6.795,6.648
				c-1.435,1.026-2.9,1.933-4.686,2.782l-0.849,0.263c-0.351,0-0.702,0-1.083-0.059c-0.615-0.118-1.231-0.175-1.845-0.175
				c-0.733,0-1.494,0.088-2.255,0.293c-0.849,0.118-1.641,0.498-2.723,1.054c-0.352,0.205-0.674,0.409-1.026,0.643
				c-0.293,0.205-0.586,0.411-0.907,0.586c-1.728,0.967-3.456,1.845-5.243,2.695c-1.758,0.643-3.515,1.172-5.36,1.581
				c-0.733,0.059-1.494,0.088-2.255,0.088c-0.733,0-1.494-0.029-2.285-0.088c-1.435-0.322-2.841-0.674-4.247-1.172
				c-1.435-0.702-2.782-1.522-4.129-2.46c-1.816-1.465-3.486-2.723-5.653-3.456c-0.967-0.322-1.992-0.498-3.075-0.498
				c-1.406,0-2.899,0.293-4.422,0.879l-2.959,1.172l-2.987,1.142c-4.686,1.815-9.343,3.075-13.794,3.807
				c-1.728,0.147-3.456,0.234-5.214,0.234c-2.108,0-4.217-0.118-6.327-0.293c-2.928-0.528-5.828-1.289-8.903-2.373l-1.025-0.352
				c-1.465-0.527-2.988-1.083-4.891-1.083c-0.029,0-0.059,0-0.088,0c-1.612,0.088-3.046,0.205-4.481,0.733
				c-1.172,0.439-2.255,0.966-3.368,1.522l-3.543,1.815c-2.108,1.083-4.189,2.168-6.356,3.134
				c-3.309,1.259-6.795,2.167-10.397,2.782c-1.699,0.147-3.427,0.234-5.155,0.234c-1.992,0-4.013-0.118-6.004-0.322
				c-5.389-0.938-10.368-2.607-14.527-4.16c-2.05-0.732-4.217-1.229-6.209-1.347l-1.083-0.059c-1.728,0-3.456,0.293-5.184,0.615
				c-1.522,0.264-3.046,0.849-5.155,1.61c-6.004,2.226-13.97,4.921-22.493,6.327c-1.465,0.118-2.959,0.205-4.422,0.205
				c-1.142,0-2.314-0.059-3.456-0.146c-2.138-0.411-4.159-0.938-6.18-1.641c-1.465-0.703-2.841-1.552-4.188-2.519
				c-2.167-1.494-3.983-2.695-6.385-3.397c-0.761-0.205-1.61-0.322-2.519-0.322c-2.343,0-4.831,0.732-7.175,1.435
				c-3.72,1.201-7.381,2.782-10.456,4.072l-3.484,1.465l-2.43,1.026c-1.376,0.556-2.753,1.054-4.13,1.522l-1.552,0.527
				c-5.067,1.816-10.544,3.222-15.904,4.072c-1.874,0.175-3.749,0.293-5.653,0.293c-1.522,0-3.046-0.088-4.569-0.205
				c-2.46-0.44-4.51-0.967-6.443-1.669c-1.669-0.791-3.309-1.699-4.921-2.576c-2.577-1.435-5.243-2.929-8.112-3.954
				c-1.083-0.38-2.314-0.556-3.661-0.556c-1.845,0-3.895,0.352-6.268,1.054c-1.728,0.527-3.339,1.347-4.921,2.167l-1.113,0.527
				l-3.309,1.669c-3.163,1.61-6.297,3.222-9.548,4.656c-3.222,1.289-6.209,2.167-9.167,2.695c-0.879,0.059-1.758,0.088-2.636,0.088
				c-0.556,0-1.113,0-1.728-0.059c-1.054-0.234-2.08-0.527-3.105-0.879c-1.348-0.703-2.607-1.465-3.895-2.343l-2.198-1.874
				c-1.758-1.494-3.514-3.016-5.417-4.335c-1.815-1.26-4.247-1.903-7.205-1.903l-0.908,0.029c-1.552,0.059-3.104,0.118-4.686,0.118
				c-1.259,0-2.489-0.029-3.749-0.147c-1.319-0.264-2.577-0.586-3.808-1.026c-1.113-0.556-2.196-1.142-3.28-1.845
				c-1.113-0.907-2.108-1.903-3.046-3.075c-0.674-0.995-1.259-1.992-1.758-3.046c-0.468-1.172-0.791-2.343-1.054-3.603
				c-0.175-2.167-0.088-4.422,0.264-7.147l0.293-1.874l0.352-2.226c0.293-1.758,0.586-3.807,0.147-5.829
				c-0.175-0.966-0.556-1.874-0.879-2.666c-0.907-2.283-1.581-4.92-2.167-8.376c-0.498-5.037,0-10.251,0.468-15.288l0.175-1.905
				c0.966-6.736,1.933-13.677,4.451-20.296c0.527-1.113,1.083-2.196,1.728-3.28c0.615-0.674,1.231-1.289,1.933-1.875
				c1.083-0.732,2.198-1.376,3.368-1.962c1.787-0.645,3.574-1.142,5.477-1.465c1.318-0.088,2.666-0.118,3.983-0.118
				c1.347,0,2.695,0.029,4.013,0.058l3.574,0.059c0.041,0.022,0.082,0.044,0.124,0.065c0.006,0,0.013,0,0.019,0
				c2.108,1.112,4.546,2.06,7.443,2.835c5.067,1.376,10.485,1.552,14.614,1.552l1.669-0.029c4.247-0.059,8.494-0.205,12.74-0.381
				c9.841-0.44,19.799-1.288,29.464-2.138c6.531-0.556,13.063-1.113,19.622-1.581l8.407-0.586
				c13.209-0.908,26.885-1.875,40.359-2.255l8.23-0.175c4.95-0.088,9.899-0.175,14.848-0.411c6.531-0.264,13.033-0.615,19.565-0.936
				l6.765-0.352c7.615-0.352,15.259-0.44,22.874-0.498c8.728-0.088,17.455-0.293,26.212-0.645l6.648-0.321
				c3.983-0.176,7.967-0.381,11.95-0.498c7.498-0.205,14.966-0.294,22.435-0.381c12.793-0.122,24.254-0.738,34.826-1.776
				c1.878-0.199,3.749-0.418,5.62-0.655h-0.586l1.229-0.147c7.732-1.025,15.699-2.08,23.226-4.363
				c2.021-0.615,4.042-1.23,6.004-2.021c2.782-1.142,4.862-2.489,6.707-4.306c0.464-0.434,0.868-0.928,1.218-1.449l0.001,0.001
				c0.004-0.005,0.008-0.011,0.012-0.016c0.029-0.029,0.029-0.029,0.059-0.029c0.029,0,0.029,0,0.029,0
				c0.007,0.004,0.015,0.006,0.024,0.009c0.001-0.001,0.001-0.002,0.001-0.004c0.93,0.374,1.916,0.581,2.874,0.581
				c0.674,0,1.348-0.088,1.992-0.264l0.029,0.058l0.761-0.293c1.054-0.029,2.108-0.059,3.134-0.059c0.761,0,1.522,0.029,2.285,0.059
				c0.468,0.088,0.879,0.234,1.288,0.352c0.322,0.175,0.645,0.381,1.231,0.879c0.322,0.468,0.586,0.938,0.849,1.406
				c0.352,1.054,0.615,2.108,0.879,3.25c0.175,1.669,0.381,3.339,0.645,4.978c0.293,1.758,0.702,3.749,1.669,5.389
				c0.761,1.288,1.64,2.373,2.548,3.514c0.293,0.411,0.556,0.82,0.967,1.465c0.175,0.645,0.351,1.288,0.38,1.318l0.263,1.992
				C457.461,405.577,457.461,408.741,457.08,412.49z"/>
			<path d="M163.383,229.675c0.293,0,0.586-0.059,0.908-0.234c1.669-1.113,3.368-2.196,5.067-3.28l2.577-1.641l3.983-2.607
				l2.489-1.61l2.43-1.581c1.026-0.703,1.347-1.962,0.791-3.016c-0.411-0.615-1.142-0.995-1.934-0.995
				c-0.409,0-0.761,0.059-1.083,0.234l-2.196,1.435l-1.874,1.259l-4.833,3.163l-1.669,1.172c-2.05,1.406-4.159,2.869-6.004,4.599
				c-0.322,0.293-0.527,0.791-0.527,1.318c0,0.293,0.059,0.614,0.205,0.908C162.065,229.324,162.738,229.675,163.383,229.675z"/>
			<path d="M159.722,245.374c0.468,0,0.879-0.118,1.229-0.322c2.723-1.933,5.33-3.953,8.523-6.414l0.674-0.527l0.452-0.186
				l0.133-0.106l-0.352,0.175l0.158-0.121l-0.216,0.062l6.649-5.067c0.761-0.556,1.142-0.938,1.347-1.699
				c0.147-0.702,0.029-1.465-0.293-2.138c-0.381-0.615-0.995-1.083-1.699-1.289c-0.263-0.059-0.615-0.059-0.791-0.059
				c-0.527,0-0.995,0.118-1.288,0.352c-2.929,2.196-5.829,4.393-8.699,6.648c-2.635,2.05-5.183,4.188-7.702,6.384
				c-0.468,0.352-0.733,1.026-0.733,1.846c0.029,0.439,0.147,0.849,0.322,1.229C157.906,244.876,158.843,245.374,159.722,245.374z"
				/>
			<path d="M150.965,265.259c0.498,0,0.966-0.118,1.347-0.352c5.916-3.895,11.862-8.171,18.745-13.413
				c0.703-0.498,1.113-0.938,1.348-1.728c0.175-0.733,0.059-1.523-0.293-2.168c-0.381-0.614-1.054-1.113-1.699-1.288
				c-0.205-0.029-0.439-0.059-0.791-0.059c-0.586,0-1.026,0.118-1.319,0.352l-1.787,1.319c-2.314,1.756-4.715,3.514-7.147,5.214
				c-3.309,2.314-6.59,4.628-9.841,7.029c-0.468,0.352-1.025,0.849-1.347,2.343c0,0.527,0.118,1.025,0.352,1.434
				C149.061,264.762,149.968,265.259,150.965,265.259z"/>
			<path d="M139.221,287.02c0.205,0.028,0.498,0.059,0.82,0.059c0.556,0,1.083-0.118,1.348-0.352
				c3.427-2.607,6.824-5.243,10.075-8.024l2.138-1.758c0.82-0.703,1.64-1.406,2.43-2.167c2.021-1.846,4.07-3.72,6.062-5.623
				c0.556-0.498,0.82-1.201,0.82-1.962c0-0.791-0.293-1.552-0.82-2.021c-0.498-0.527-1.231-0.791-1.962-0.791
				c-0.761,0-1.494,0.263-2.021,0.791l-3.867,3.456l-1.933,1.728c-0.995,0.849-2.021,1.699-3.046,2.519l-1.522,1.259
				c-3.28,2.636-6.59,5.301-9.782,8.054c-0.527,0.44-0.82,1.113-0.849,1.934c0,0.556,0.118,1.113,0.38,1.581
				C137.872,286.318,138.547,286.845,139.221,287.02z"/>
			<path d="M114.033,349.433c0.645,0,1.289-0.234,1.728-0.703l10.368-9.693l5.184-4.891c0.468-0.38,0.703-0.966,0.703-1.669
				c0.029-0.702-0.205-1.406-0.703-1.874c-0.468-0.468-1.054-0.703-1.758-0.703c-0.674,0-1.348,0.234-1.787,0.703l-2.607,2.43
				c-4.335,4.042-8.641,8.084-12.77,12.33c-0.468,0.44-0.703,1.054-0.703,1.699s0.234,1.26,0.703,1.669
				C112.802,349.199,113.359,349.433,114.033,349.433z"/>
			<path d="M114.003,361.06c0.995,0,1.64-0.439,2.138-0.879c3.456-2.841,7-5.594,10.572-8.317l4.129-3.222
				c0.674-0.498,0.967-1.581,0.967-2.372c0-0.967-0.322-1.816-0.967-2.402c-0.586-0.614-1.465-0.966-2.373-0.966
				c-0.995,0-1.669,0.352-2.402,0.966l-3.046,2.285c-3.837,3.016-7.82,6.121-11.159,9.782c-0.586,0.586-0.879,1.376-0.879,2.167
				c0,0.791,0.293,1.553,0.879,2.08C112.421,360.767,113.154,361.06,114.003,361.06z"/>
			<path d="M90.017,436.184c0.147-0.381,0.118-0.82-0.118-1.26c-0.234-0.468-0.674-0.82-1.64-1.025
				c-0.322,0-0.615,0.088-0.908,0.234c-0.411,0.234-0.645,0.556-0.849,1.113l-1.61,4.422l-2.636,7.058l-1.728,4.803l-1.083,3.162
				c-0.352,1.054-0.614,2.08-0.82,3.193c-0.234,0.995,0.321,1.933,1.259,2.196l0.468,0.118v-0.059c0.703,0,1.581-0.468,1.728-1.288
				c0.118-0.792,0.322-1.523,0.556-2.255l0.527-1.61l0.879-2.519c0.411-1.318,0.908-2.666,1.406-3.983l0.322-0.82l2.108-5.74
				L90.017,436.184z"/>
			<path d="M98.276,445.234c-0.147-0.586-0.527-1.054-1.025-1.376c-0.322-0.175-0.733-0.263-1.142-0.263
				c-0.879,0-1.64,0.411-1.962,1.083c-1.376,2.9-2.695,5.8-3.895,8.757c-0.82,2.05-1.875,4.775-2.519,7.674
				c-0.263,1.172,0.381,2.255,1.494,2.578l0.516,0.136c0.014,0,0.027,0,0.04,0v-0.078c0.907,0,1.728-0.614,2.021-1.552
				c0.996-3.016,2.167-5.945,3.456-9.079l0.791-1.787l1.992-4.364C98.363,446.288,98.422,445.761,98.276,445.234z"/>
			<path d="M102.025,451.179c-0.703,0-1.406,0.263-1.905,0.791c-0.556,0.527-0.702,1.142-0.791,1.905l-0.411,3.632
				c-0.468,4.188-0.938,8.407-1.26,12.623c-0.058,0.614,0.175,1.229,0.645,1.758c0.527,0.586,1.289,0.907,2.021,0.907
				c0.674,0,1.376-0.263,1.875-0.791c0.586-0.556,0.732-1.26,0.761-1.874c0.527-5.418,1.142-10.837,1.758-16.254
				c0.088-0.645-0.321-1.435-0.791-1.905C103.459,451.471,102.757,451.179,102.025,451.179z"/>
			<path d="M117.664,454.312c-0.468,0-0.996,0.205-1.347,0.586c-0.322,0.352-0.468,0.761-0.44,1.201
				c0.263,4.013,0.527,8.055,0.761,12.066c0.059,1.054,0.791,1.787,1.787,1.787c0.468,0,0.995-0.206,1.347-0.586
				c0.322-0.352,0.468-0.761,0.44-1.201c-0.234-4.013-0.498-8.054-0.761-12.066C119.392,455.045,118.661,454.312,117.664,454.312z"
				/>
			<path d="M187.75,85.433c0.293,0.146,0.615,0.234,0.938,0.234c0.643,0,1.229-0.322,1.552-0.849
				c1.347-2.343,2.782-4.628,4.188-6.912l1.201-1.903l3.983-6.384l1.992-3.193c0.234-0.411,0.293-0.879,0.175-1.347
				c-0.118-0.498-0.44-0.908-0.82-1.142c-0.293-0.147-0.586-0.234-0.907-0.234c-0.615,0-1.26,0.352-1.582,0.908l-5.975,9.577
				l-0.674,1.113c-1.61,2.519-3.192,5.067-4.686,7.674c-0.234,0.411-0.322,0.907-0.175,1.376
				C187.077,84.818,187.37,85.199,187.75,85.433z"/>
			<path d="M200.461,74.508c-3.252,6.238-6.415,12.506-9.402,18.861c-0.234,0.498-0.293,0.907-0.175,1.376
				c0.118,0.44,0.439,0.849,0.82,1.083c0.264,0.147,0.586,0.234,0.938,0.234c0.674,0,1.288-0.352,1.552-0.879
				c2.988-6.327,6.151-12.594,9.372-18.833c0.468-0.936,0.205-1.99-0.643-2.489c-0.293-0.147-0.586-0.234-0.908-0.234
				C201.339,73.629,200.753,73.952,200.461,74.508z"/>
			<path d="M201.925,90.852c-0.44,0.439-0.556,0.907-0.615,1.552c0,0,0,0-0.029,0.029c-0.047,0.192-0.095,0.381-0.145,0.572
				c-0.447,1.731-1.006,3.405-1.613,4.935c-0.791,1.874-1.581,3.72-2.402,5.594c-0.82,1.903-1.522,3.895-2.138,5.887
				c-0.147,0.498-0.088,1.083,0.175,1.61c0.293,0.527,0.791,0.938,1.933,1.172c0.996,0,1.845-0.645,2.285-1.992
				c0.263-0.879,0.556-1.787,0.908-2.666c0.293-0.702,0.586-1.435,0.673-1.787c0.556-1.259,1.113-2.548,1.846-4.335
				c0.556-1.376,1.142-2.753,1.64-4.13c0.263-0.702,0.468-1.465,0.761-2.46c0.234-0.82,0.321-1.582,0.439-2.43
				c0.059-0.527-0.264-1.201-0.643-1.552c-0.381-0.381-0.967-0.615-1.523-0.615C202.892,90.235,202.365,90.441,201.925,90.852z"/>
		</g>
	</g>
</g>
<g>
</g>
<g>
</g>
<g>
</g>
<g>
</g>
<g>
</g>
<g>
</g>
<g>
</g>
<g>
</g>
<g>
</g>
<g>
</g>
<g>
</g>
<g>
</g>
<g>
</g>
<g>
</g>
<g>
</g>
</svg>
