<?xml version="1.0" encoding="iso-8859-1"?>
<!-- Generator: Adobe Illustrator 19.0.0, SVG Export Plug-In . SVG Version: 6.00 Build 0)  -->
<svg version="1.1" id="Layer_1" xmlns="http://www.w3.org/2000/svg" xmlns:xlink="http://www.w3.org/1999/xlink" x="0px" y="0px"
	 viewBox="0 0 512 512" style="enable-background:new 0 0 512 512;" xml:space="preserve">
<g>
	<g>
		<g>
			<path d="M462.038,420.967c-1.312-2.681-3.176-5.158-5.157-7.402c-2.39-2.651-4.954-5.07-7.634-7.372
				c-2.855-2.448-5.943-4.574-8.974-6.817c-0.845-0.698-1.69-1.457-2.448-2.273c-0.379-0.582-0.7-1.165-1.021-1.806
				c-1.136-3.088-1.748-6.264-2.419-9.469c-1.107-5.012-2.534-9.935-5.157-14.393c-3.555-6.002-9.586-10.607-16.17-12.762
				c-1.554-0.5-3.238-0.63-4.88-0.843c1.31-1.621,2.64-3.229,3.89-4.926c2.389-3.322,4.72-6.702,6.905-10.169
				c2.127-3.35,4.254-6.702,6.351-10.052c2.36-3.787,4.226-7.779,5.886-11.917c3.059-7.517,5.215-15.355,7.401-23.163
				c2.185-7.867,3.933-15.85,5.624-23.835c1.719-8.188,2.972-16.491,3.875-24.825c0.874-7.779,1.078-15.616,1.224-23.454
				c0.174-8.012,0.291-16.054,0-24.096c-0.291-8.012-0.641-16.054-1.281-24.067c-0.641-8.333-1.952-16.579-3.643-24.766
				c-1.602-7.75-3.467-15.384-6.177-22.843c-2.826-7.809-6.089-15.443-9.936-22.843c-3.641-7.022-7.372-14.101-11.975-20.57
				c-4.633-6.439-9.499-12.703-14.102-19.171c-2.478-3.496-4.982-7.051-7.838-10.227c-2.71-2.972-5.507-5.827-8.391-8.594
				c-5.798-5.565-11.684-11.219-18.415-15.617c-6.585-4.254-13.111-8.595-20.046-12.296c-3.788-2.01-7.896-3.584-11.887-5.186
				c-3.612-1.427-7.285-2.622-10.985-3.817c-3.788-1.195-7.605-2.273-11.393-3.467c-3.729-1.195-7.429-2.448-11.188-3.555
				c-3.379-0.991-6.905-1.604-10.372-2.157c-4.458-0.698-8.916-1.253-13.403-1.689C274.194,0.147,270.027,0,265.89,0
				c-3.322,0-6.614,0.088-9.877,0.233c-3.788,0.174-7.576,0.698-11.305,1.166c-4.226,0.524-8.42,1.194-12.558,2.069
				c-3.905,0.844-7.838,1.66-11.741,2.564c-3.526,0.844-7.022,1.981-10.46,3.176c-3.117,1.048-6.148,2.242-9.148,3.467
				c-5.128,1.748-10.227,3.555-15.239,5.565c-8.041,3.234-15.792,7.022-23.513,10.985c-1.195,0.641-2.331,1.369-3.496,2.097
				c-2.186,1.34-4.371,2.711-6.555,4.05c-1.398,0.875-2.71,1.895-4.05,2.826c-1.719,1.195-3.467,2.302-5.128,3.584
				c-6.817,5.244-13.607,10.489-20.163,16.112c-1.312,1.107-2.71,2.186-3.933,3.408c-1.923,1.865-3.817,3.729-5.74,5.624
				c-2.885,2.856-5.507,6.002-8.187,9.062c-2.505,2.826-4.72,5.915-7.081,8.857c-1.516,1.865-2.913,3.875-4.341,5.798
				c-0.991,1.37-2.04,2.71-2.972,4.138c-2.272,3.467-4.603,6.904-6.702,10.489c-2.098,3.584-4.195,7.14-6.06,10.84
				c-1.281,2.534-2.652,5.011-3.817,7.575c-1.574,3.497-3.322,6.935-4.691,10.49c-1.136,3.002-2.273,5.974-3.409,8.945
				c-1.078,2.825-1.893,5.768-2.855,8.624c-0.903,2.826-1.574,5.769-2.36,8.624c-0.728,2.681-1.369,5.392-2.04,8.101
				c-0.7,2.855-1.34,5.769-1.895,8.653c-0.67,3.584-1.427,7.14-1.893,10.752c0.088-0.698,0.174-1.37,0.262-2.069
				c-1.136,8.45-2.302,16.87-2.885,25.378c-0.553,7.925-0.933,15.85-1.019,23.776c-0.029,4.458-0.058,8.916-0.029,13.374
				c0,4.079,0.409,8.158,0.787,12.208c0.757,8.391,2.214,16.695,3.584,24.999c1.312,7.75,3.176,15.267,5.769,22.697
				c1.398,4.05,3.059,8.071,4.836,11.947c1.631,3.526,3.379,6.963,5.274,10.343c4.167,7.372,8.595,14.684,14.16,21.124
				c2.781,3.218,5.812,6.234,8.964,9.123c-1.602,1.209-3.144,2.5-4.535,3.959c-4.458,4.662-7.43,10.489-9.907,16.376
				c-2.419,5.769-3.496,12.004-5.624,17.86c-0.438,0.991-0.962,1.923-1.545,2.826c-0.786,0.844-1.602,1.631-2.476,2.36
				c-1.66,1.195-3.35,2.302-4.924,3.584c-1.923,1.545-3.671,3.205-5.332,5.041c-4.05,4.574-6.876,9.848-9.033,15.529
				c-1.253,3.204-1.865,6.555-2.448,9.906c-0.612,3.409-0.874,6.905-0.495,10.316c0.495,4.429,2.186,8.538,4.516,12.324
				c2.652,4.254,6.352,7.546,10.431,10.431c3.205,2.302,6.643,4.283,10.052,6.293c6.905,4.079,13.986,7.721,21.415,10.81
				c3.671,1.544,7.4,3.175,11.188,4.429c3.847,1.282,7.693,2.419,11.596,3.379c3.7,0.903,7.4,1.749,11.101,2.622
				c3.526,0.816,7.081,1.806,10.634,2.36c4.779,0.729,9.557,1.399,14.365,1.952c3.817,0.438,7.634,0.729,11.479,1.048
				c8.158,0.671,16.259,1.719,24.388,2.797c7.984,1.078,16.025,1.923,24.067,2.681c7.955,0.729,15.908,1.34,23.922,1.69
				c7.779,0.35,15.587,0.436,23.396,0.495c4.137,0.059,8.274,0.029,12.441,0.029c3.614-0.029,7.226-0.029,10.869-0.029
				c3.759,0.059,7.517,0.233,11.276,0.117c4.137-0.117,8.246-0.32,12.353-0.583c7.022-0.408,13.927-1.398,20.862-2.476
				c0.786-0.088,1.574-0.204,2.389-0.292c7.896-0.844,15.822-1.486,23.66-2.855c7.458-1.34,15.034-2.535,22.201-5.071
				c8.071-2.855,15.938-6.178,23.572-10.08c6.876-3.497,13.374-7.809,19.813-12.062c0.729-0.496,1.457-0.991,2.185-1.486
				c0.528-0.351,0.951-0.797,1.34-1.263c2.788-1.039,5.583-2.056,8.332-3.225c3.467-1.457,6.76-3.117,9.877-5.245
				c3.118-2.127,5.74-4.807,8.274-7.576c2.855-3.117,5.303-6.702,7.605-10.227c0.933-1.457,1.778-3.001,2.448-4.574
				c1.34-3.031,2.564-6.031,3.322-9.265C464.631,430.785,464.282,425.483,462.038,420.967z M88.011,323.417
				c-1.632-2.884-3.234-5.769-4.807-8.712c-1.019-1.865-1.865-3.846-2.74-5.798l-0.379-0.932c-1.486-3.673-2.913-7.343-4.108-11.188
				c-1.224-3.759-2.273-7.721-3.118-11.829c-1.486-7.255-2.826-14.86-4.05-23.28l-0.204-1.749c-0.262-2.273-0.524-4.516-0.641-6.789
				c-0.233-3.439-0.379-6.847-0.495-10.257c-0.146-5.828-0.175-11.684-0.029-17.511l0.058-2.273
				c0.117-5.216,0.262-10.461,0.671-15.647l0.233-2.796c0.174-2.187,0.32-4.371,0.582-6.526l0.553-4.633l0.525-4.604
				c1.369-8.391,2.767-16.578,4.836-24.561c1.136-4.545,2.273-9.062,3.612-13.578c0.962-3.349,2.157-6.643,3.322-9.935l1.107-3.088
				l0.612-1.457l1.195-2.826l1.34-3.147c0.553-1.37,1.224-2.739,1.893-4.079l0.933-1.865l0.757-1.631
				c0.524-1.136,1.078-2.302,1.69-3.409l1.078-1.981c1.865-3.467,3.729-6.905,5.827-10.227c1.34-2.155,2.681-4.312,3.992-6.469
				c0.933-1.486,1.952-2.943,2.972-4.37l1.369-1.923c1.748-2.564,3.612-5.041,5.507-7.517l1.66-2.243l2.185-2.622l1.195-1.457
				l0.933-1.136c0.787-0.991,1.574-1.952,2.419-2.856l1.048-1.107c2.681-2.855,5.333-5.71,8.188-8.391
				c6.293-5.887,12.85-11.509,19.027-16.754c2.681-2.098,5.419-4.195,8.158-6.264l5.332-3.643l0.845-0.611
				c1.107-0.787,2.186-1.545,3.322-2.214l1.486-0.903c2.71-1.604,5.362-3.176,8.129-4.662c3.088-1.195,6.178-2.302,9.265-3.439
				l4.254-1.544c2.157-0.816,4.312-1.66,6.469-2.506c2.885-1.136,5.798-2.301,8.741-3.322c4.603-1.602,10.081-3.438,15.85-4.691
				c4.924-1.136,10.081-1.895,15.034-2.593l1.719-0.263c3.117-0.32,6.236-0.495,9.469-0.671c3.612-0.146,7.167-0.32,10.752-0.32
				h0.874c7.226,0.059,14.569,0.553,22.494,1.457c3.992,0.553,8.304,1.195,12.645,2.187c4.574,1.048,9.062,2.593,13.636,4.196
				c3.671,1.253,7.402,2.448,11.102,3.612l2.622,0.845c3.962,1.281,8.13,2.826,13.519,5.07c2.127,0.933,4.254,1.865,6.323,2.972
				c2.855,1.574,5.653,3.205,8.42,4.983l1.807,1.165c4.137,2.681,8.274,5.362,12.296,8.274c3.905,3.294,7.663,6.878,11.305,10.345
				l0.612,0.583c3.962,3.817,7.43,7.546,10.634,11.451c1.37,1.895,2.71,3.817,4.079,5.71c1.602,2.273,3.205,4.545,4.866,6.789
				l2.797,3.788c2.272,3.031,4.516,6.031,6.555,9.207c5.128,7.897,9.848,16.637,15.442,28.788c3.496,8.565,5.972,15.85,7.75,22.93
				c1.836,7.226,3.293,14.801,4.545,23.193c0.757,6.817,1.136,13.694,1.516,20.746c0.32,6.73,0.612,13.345,0.553,19.988
				c-0.088,7.196-0.233,14.393-0.495,21.59c-0.262,6.236-0.786,12.703-1.574,19.754c-1.602,10.723-3.758,21.532-6.555,33.1
				c-1.253,5.245-2.622,10.518-4.167,15.675c-0.903,3.031-1.806,6.002-2.797,8.974c-0.816,2.389-1.719,4.72-2.622,7.022
				c-1.195,2.478-2.478,4.836-3.847,7.226c-1.165,2.01-2.419,3.962-3.671,5.943l-0.816,1.253c-3.147,5.012-6.09,9.382-9.003,13.403
				c-1.807,2.242-3.671,4.429-5.595,6.584c-1.836,2.04-3.992,3.817-6.351,5.798l-0.7,0.436c-0.729-0.698-1.457-1.369-2.214-2.04
				c-1.107-0.989-2.419-1.806-4.02-2.564c-0.787-0.35-1.574-0.553-2.535-0.67c-0.291-0.059-0.612-0.088-0.933-0.088
				c-0.32,0-0.641,0.029-0.962,0.118c-0.088,0-0.204,0.029-0.291,0.029s-0.204,0-0.321-0.029c-0.146,0-0.291,0.029-0.466,0.029
				c-0.058-0.118-0.117-0.233-0.174-0.351c-0.058-0.028-0.088-0.058-0.146-0.087c-0.379-0.729-0.757-1.427-1.195-2.128
				c-0.67-1.048-1.486-1.981-2.564-3.029c-0.903-0.875-2.098-1.574-3.147-2.157c-1.457-0.815-3.205-1.369-5.362-1.69
				c-0.933-0.174-1.865-0.232-2.797-0.232c-2.243,0-4.691,0.379-7.693,1.224c-1.398,0.438-2.739,1.049-4.079,1.631l-0.757,0.292
				c-0.058,0.029-0.117,0.058-0.174,0.087v-0.029l-0.088,0.029c-0.117-1.631-0.32-3.263-0.612-4.865
				c-0.409-2.39-1.457-4.925-2.972-7.109c-2.681-3.817-6.993-6.352-12.091-7.081c-0.787-0.117-1.602-0.174-2.39-0.174
				c-1.253,0-2.534,0.145-3.933,0.35c-0.208,0.043-0.402,0.143-0.608,0.194c0.025-0.046,0.058-0.089,0.084-0.135
				c-0.029,0.029-0.059,0.029-0.088,0.029c2.535-4.371,4.4-8.625,5.681-12.965c1.107-3.818,2.214-7.634,3.118-11.509
				c0.465-1.923,0.844-3.818,1.195-5.74c0.35-1.778,0.524-3.555,0.729-5.332l0.145-1.428c0.35-3.293,0.495-6.904,0.409-11.072
				c-0.088-4.137-0.204-8.274-0.583-12.412c-0.583-6.614-2.272-12.849-3.846-18.035c-0.495-1.632-1.166-3.264-1.836-4.866
				c-1.574-3.759-3.379-6.905-5.594-9.586l-2.243-2.784l-0.058-0.073c0,0,0-0.029,0.029-0.029c-0.001-0.001-0.002-0.003-0.005-0.006
				c2.5-3.689,5.026-7.379,7.843-11.386l0.553-0.7c0.027-0.028,0.052-0.059,0.078-0.089c0.156-0.222,0.311-0.443,0.466-0.665
				c0.068-0.121,0.129-0.249,0.182-0.381c1.882-2.675,3.801-5.315,5.781-7.893c0.464-0.634,0.929-1.266,1.393-1.899l-0.057,0.052
				c-0.104,0.134-0.214,0.27-0.329,0.416c0.105-0.135,0.21-0.269,0.315-0.404l-0.374,0.345l3.088-3.933
				c4.224-5.362,8.595-10.896,12.558-16.578l1.107-1.66l0.553-0.787c0-0.029,0.729-0.35,0.757-0.35
				c0.903-0.438,1.778-0.933,2.651-1.427c0.874-0.524,1.778-1.107,2.681-1.69l0.903-0.553c2.855-1.865,5.71-3.7,8.683-5.332
				c1.136-0.642,1.952-1.719,2.302-3.031c0.379-1.369,0.204-2.826-0.466-3.991c-0.903-1.545-2.622-2.478-4.429-2.478
				c-1.369,0-2.651,0.495-3.584,1.457c-1.387,1.387-2.823,2.723-4.32,3.938c-1.07,0.949-2.158,1.88-3.256,2.793
				c0-0.118,0-0.263,0-0.379c0.001-0.02,0.001-0.038,0.002-0.058c-0.03,0.02-0.059,0.038-0.09,0.058
				c0.029-1.195,0.088-2.389,0.146-3.584c0.524-3.555,0.962-7.372,0.67-11.072c-0.087-1.486-0.962-2.652-2.272-3.031
				c-0.233-0.058-0.466-0.087-0.786-0.087c-1.253,0-2.302,0.583-2.74,1.516c-0.262,0.524-0.495,1.048-0.698,1.602
				c-0.146,0.729-0.321,1.427-0.438,2.186l-0.436,2.711c-0.174,1.078-0.291,2.155-0.436,3.234l-0.233,2.069
				c-0.291,2.243-0.291,4.488-0.32,6.759l-0.029,2.448c-0.117,0.495-0.233,0.991-0.379,1.457c-1.778,2.593-3.641,5.128-5.507,7.634
				l-0.35,0.361c-0.057,0.073-0.113,0.144-0.17,0.217l0.374-0.345l-3.117,3.991c-3.962,5.041-7.896,10.052-11.714,15.239
				c-3.228,4.386-6.319,8.884-9.391,13.399c-0.037,0.046-0.077,0.088-0.114,0.134c-0.222,0.326-0.442,0.65-0.664,0.977l-0.553,0.66
				v0.001l-0.924,1.105c-0.125,0.165-0.246,0.332-0.372,0.498c-0.005-0.007-0.012-0.014-0.017-0.021l-0.058,0.058
				c-1.281-1.544-2.564-3.117-3.933-4.633c-2.098-2.331-4.312-4.545-6.643-6.643c-2.302-2.127-4.603-4.137-7.167-5.798
				c-0.671-0.408-1.398-0.757-2.127-1.078l-0.7-0.32c-0.408-0.204-0.816-0.409-1.195-0.641l-0.583-0.351
				c-0.038-0.02-0.082-0.013-0.12-0.03c0.012-0.016,0.029-0.028,0.042-0.043l-0.066-0.043c0.962-1.195,1.865-2.448,2.71-3.759
				c1.282-1.951,2.302-4.165,3.175-6.06c0.991-2.185,1.952-4.429,2.885-6.643c1.34-3.264,2.419-6.964,3.205-11.276
				c0.67-3.671,1.078-7.518,1.253-11.423c0.088-1.981,0.145-3.905,0.029-5.886c-0.088-1.66-0.35-3.35-0.583-5.041l-0.174-1.078
				c-0.204-1.339-0.612-2.622-1.019-3.933l-0.291-0.989c-0.612-1.895-1.515-3.759-2.419-5.508l-0.436-0.844l-0.155-0.463
				c-0.263-0.517-0.535-1.029-0.799-1.542c0.109,0.008,0.203,0.083,0.313,0.082l-0.029-0.087c0.35,0,0.729-0.029,1.049-0.117
				c1.049-0.292,2.01-1.079,2.564-2.098c0.495-0.933,0.583-1.952,0.233-2.943c-1.398-4.02-2.885-8.188-5.448-11.714
				c-1.078-1.457-2.157-2.913-3.205-4.4l-1.019-1.428c-1.107-1.572-2.156-3.088-3.409-4.545c-1.131-1.353-2.682-2.471-4.107-3.476
				c-0.009-0.007-0.021-0.014-0.03-0.021c-0.052-0.032-0.106-0.066-0.158-0.098c0.003-0.003,0.009-0.003,0.013-0.007
				c-0.02-0.014-0.039-0.027-0.058-0.04c1.224-0.903,1.923-2.273,1.865-3.614c-0.088-1.66-0.35-3.029-0.816-4.312
				c-0.524-1.572-1.078-3.117-1.631-4.661l-0.524-1.428c-1.107-3.088-2.273-6.293-3.847-9.236l-0.524-0.962
				c-0.729-1.369-1.486-2.767-2.186-4.166l-1.195-2.419c-0.524-1.107-1.078-2.214-1.631-3.293c-1.923-3.7-4.458-7.051-6.672-9.819
				c-0.625-0.792-1.277-1.522-1.898-2.269c-0.313-0.32-0.68-0.584-1.007-0.89c0.115,0.014,0.226,0.062,0.343,0.06
				c-0.021-0.025-0.042-0.052-0.061-0.077c0.642,0,1.283-0.233,1.807-0.698c0.903-0.787,1.748-1.574,2.593-2.419
				c0.757-0.787,1.427-1.749,2.01-2.885c0.553-1.019,0.787-2.097,0.962-3.408c0.088-0.642,0.146-1.281,0.174-1.895
				c0.088-1.019-0.174-1.981-0.409-2.856c-0.262-0.844-0.786-1.66-1.602-2.477c-0.35-0.292-0.7-0.553-1.049-0.816
				c-0.612-0.35-1.253-0.67-1.895-0.933c-0.991-0.438-1.981-0.787-3.001-1.107c-0.583-0.174-1.166-0.32-2.448-0.553
				c-0.408-0.058-0.845-0.174-1.369-0.409c-0.32-0.436-0.641-0.874-0.991-1.253c-0.409-0.553-0.874-1.019-1.398-1.369
				c-0.321-0.321-0.671-0.554-1.078-0.671c-0.525-0.32-1.078-0.465-1.69-0.495c-0.553,0.087-1.107,0.174-1.633,0.262
				c-0.553,0.233-1.107,0.496-1.631,0.787L254,39.622l-0.641,0.438c-0.671,0.409-1.31,0.874-2.331,1.602
				c-0.524,0.379-1.019,0.787-1.486,1.225c-0.612,0.524-1.165,1.136-1.631,1.806c-0.757,0.933-1.34,1.951-1.778,3.088l-0.366,0.89
				c-0.053,0.171-0.106,0.342-0.158,0.508c-0.017,0-0.035,0-0.051,0l-0.036,0.087c-0.321-0.087-0.612-0.117-1.166-0.117
				c-0.174,0-0.35,0-0.582,0.029c-0.641,0.058-1.282,0.204-1.923,0.495c-0.933,0.35-1.661,1.021-2.448,1.777l-1.078,1.34
				c-0.642,0.962-1.049,1.719-1.37,2.506c-0.32,0.641-0.524,1.312-0.582,1.981c-0.145,0.671-0.175,1.281-0.145,1.895
				c0.059,0.612,0.174,1.194,0.321,1.806l-0.059,0.029l0.379,0.757c0.291,0.729,0.641,1.34,1.078,1.895
				c0.408,0.553,0.845,1.078,1.34,1.572c0.525,0.466,1.078,0.933,1.66,1.34c0.367,0.287,0.759,0.506,1.194,0.801
				c0.03,0.014,0.063,0.024,0.095,0.038c-0.005,0.006-0.009,0.012-0.014,0.017c0.022,0.016,0.044,0.03,0.067,0.046
				c-2.505,3.235-5.012,6.526-7.488,9.848c-2.478,3.263-4.75,6.643-6.993,10.08c-0.991,1.516-1.893,3.089-2.797,4.634l-0.757,1.28
				c-1.078,1.807-2.069,3.729-3.002,5.595c-2.272,4.633-4.458,9.265-6.498,13.986c-0.436,1.078-0.641,1.895-0.379,2.884
				c0.043,0.158,0.099,0.308,0.109,0.508c0.061,0.145,0.23,0.214,0.309,0.35c-0.145,0.12-0.298,0.236-0.443,0.354
				c-0.018,0.051-0.038,0.103-0.062,0.158c-2.389,1.951-4.603,4.37-6.934,7.605c-2.419,3.408-4.137,7.285-5.362,10.284
				c-0.787,1.923-1.312,4.109-1.398,6.089c-0.088,0.787-0.088,1.604,0,2.389c0.029,0.73,0.174,1.486,0.321,2.157
				c0.162,0.862,0.823,1.549,1.751,1.949c0.059,0.02,0.121-0.009,0.181,0.007c-0.008,0.018-0.017,0.036-0.025,0.055
				c0.025,0.009,0.05,0.021,0.075,0.029c-1.34,2.913-2.564,5.856-3.584,8.886c-0.612,1.806-1.195,3.641-1.719,5.477
				c-0.582,2.01-0.874,4.05-1.195,6.119c-0.553,3.643-0.612,7.168-0.146,10.518c0.291,2.448,0.903,4.925,1.836,7.518
				c0.291,0.815,0.671,1.631,1.019,2.419l0.436,0.989c0.553,1.254,1.281,2.448,1.981,3.643l0.553,0.933
				c0.786,1.369,1.69,2.68,2.972,4.545c1.574,2.273,3.176,4.488,5.099,6.469c0.641,0.698,1.369,1.312,2.419,2.185l0.49,0.535
				c0.038,0.031,0.081,0.059,0.119,0.09c-0.008,0.007-0.017,0.012-0.025,0.017l0.058,0.059c-2.389,1.602-4.72,3.322-6.934,5.157
				c-3.38,2.797-6.614,6.001-9.674,9.499l-2.098,2.331c-0.01,0.013-0.02,0.024-0.029,0.037c-0.001-0.002-0.003-0.006-0.006-0.008
				l-0.052,0.058l-2.302-2.796c-2.885-3.555-5.886-7.051-8.886-10.49c-2.797-3.234-5.478-6.525-8.188-10.024
				c-0.001-0.009-0.003-0.02-0.006-0.029c-0.008,0,0,0-0.024,0v-0.028c0,0,0.001,0.023,0.023,0.027
				c-0.057-0.279-0.112-0.536-0.169-0.873l0.024-0.196c-0.001-0.012-0.002-0.024-0.005-0.037h-0.077l-0.029-0.145
				c-0.466-3.438-0.962-6.876-1.516-10.343l-0.466-3.438c-0.35-2.361-0.671-4.691-1.107-6.994c-0.35-1.806-2.243-2.913-3.817-2.913
				c-1.107,0-2.272,0.553-3.088,1.427c-0.671,0.757-0.991,1.66-0.874,2.535c-0.408,4.341-0.117,8.567,0.321,13.665
				c0,1.283-0.001,2.592-0.137,3.946c-0.002,0.092-0.005,0.186-0.009,0.278c-0.006-0.001-0.013-0.003-0.02-0.005
				c-0.003,0.03-0.006,0.061-0.009,0.092c-1.166-0.292-2.331-0.642-3.467-1.049c-0.962-0.465-1.895-0.961-2.767-1.544
				c-0.757-0.496-1.66-0.757-2.622-0.757c-1.981,0-3.962,1.107-4.924,2.739c-1.486,2.593-0.612,5.886,1.981,7.518
				c1.019,0.641,2.127,1.048,3.612,1.339c0.612,0.147,1.224,0.204,1.865,0.263l0.903,0.087c1.631,0.233,3.264,0.409,4.924,0.409
				c0.816,0,1.66-0.059,2.564-0.117c0.262,0.495,0.583,0.962,0.991,1.398l3.322,3.671c2.331,2.593,4.691,5.128,7.051,7.634
				c3.409,3.614,6.643,7.342,9.907,11.101l1.054,1.305c-0.001,0.002-0.003,0.005-0.005,0.007l0.059,0.059l-0.012,0.016l-0.571,0.77
				c-0.845,1.195-1.719,2.42-2.477,3.673c-1.602,2.68-3.176,5.332-4.516,8.158c-2.243,4.836-3.671,9.994-5.099,14.976
				c-2.098,7.342-3.496,15.18-4.224,23.892c-0.291,3.322-0.174,6.934,0.291,11.042c0.35,3.293,0.903,7.605,1.893,11.858l0.233,0.845
				c0.787,3.263,1.602,6.643,2.797,9.906c0.137,0.389,0.298,0.777,0.457,1.166c-0.016,0-0.032,0-0.049,0
				c0,0,0.029,0.029,0.029,0.058c-1.719-0.203-3.467-0.379-5.186-0.523c-0.671-0.029-1.34-0.059-2.01-0.059
				c-2.098,0-4.312,0.203-6.789,0.67c-2.535,0.466-5.041,1.719-7.4,2.943c-2.71,1.457-5.244,3.496-7.576,5.478
				c-0.7,0.553-1.369,1.165-2.04,1.748l-1.195,1.078c-1.107,0.962-2.127,1.982-3.234,3.031l-2.389-0.816l-2.39-0.844
				c-1.981-0.612-4.282-0.962-6.847-1.019c-1.224,0-2.505,0.173-3.7,0.378c-1.224,0.204-2.419,0.496-3.643,0.903
				c-1.951,0.642-3.991,1.604-6.439,2.972c-3.467,1.923-6.585,4.283-9.44,6.526c-1.049,0.787-2.214,1.428-3.962,2.157l-0.029-0.029
				l-1.107-1.107c-1.428-1.457-2.739-2.972-4.079-4.488l-0.612-0.67C93.868,333.061,90.778,328.312,88.011,323.417z
				 M109.336,349.756c0.007-0.003,0.013-0.007,0.02-0.01c-0.016-0.017-0.032-0.032-0.048-0.048l1.195-0.729
				c0.728-0.524,1.457-1.107,2.157-1.718l0.67-0.496c3.293-2.301,6.585-4.166,9.79-5.565c1.631-0.641,3.205-1.136,4.953-1.516
				c0.757-0.058,1.486-0.087,2.243-0.087c0.466,0,0.962,0,1.516,0.059c1.806,0.408,3.584,0.903,5.332,1.515l0.962,0.321l1.427,0.524
				c1.224,0.409,2.448,0.465,3.729,0.495c1.457,0,3.002-0.933,4.137-2.476l1.282-1.837c2.011-2.331,4.254-4.515,7.343-6.993
				c0.787-0.583,1.574-1.166,2.419-1.718c1.195-0.816,2.564-1.486,3.905-2.098c1.544-0.583,3.059-0.991,4.72-1.312
				c0.991-0.088,1.952-0.118,2.913-0.118c2.302,0,4.574,0.204,7.051,0.525c1.574,0.291,2.914,0.611,4.779,1.427
				c0.039,0.059,0.08,0.117,0.119,0.175c0.009,0.003,0.017,0.009,0.025,0.014c1.045,1.556,2.209,3.018,3.382,4.444
				c2.505,3.058,5.448,6.002,9.556,9.615c2.564,2.331,5.624,4.662,9.557,7.285c2.74,1.748,5.595,3.35,8.45,4.953l1.34,0.787
				c3.555,1.951,7.255,3.641,11.014,5.041c2.739,0.989,5.681,1.66,8.303,2.243l1.048,0.232c3.847,0.816,7.693,1.516,11.568,2.185
				c4.079,0.729,7.429,1.136,10.577,1.254c0.553,0.028,1.107,0.058,1.661,0.058c3.117,0,6.177-0.379,9.556-0.844
				c6.09-0.787,13.112-1.865,19.289-4.546c4.72-2.097,9.148-4.865,13.577-8.508c1.486-1.194,3.002-2.419,4.488-3.671
				c3.117-2.593,5.653-4.894,8.041-7.576l0.933-1.048c0.494-0.55,1-1.109,1.574-1.688c0.239-0.308,0.442-0.643,0.675-0.955
				c0.085,0.01,0.161,0.069,0.246,0.073c0.062-0.057,0.121-0.113,0.186-0.17c0.583,0,1.166-0.145,1.748-0.436
				c1.195-0.698,2.389-1.281,3.643-1.836c1.195-0.438,2.419-0.729,3.758-1.049c0.7-0.058,1.369-0.087,2.069-0.087l0.874,0.059
				c0.933,0.203,1.836,0.436,2.767,0.729c0.729,0.35,1.427,0.729,2.185,1.165c0.729,0.642,1.398,1.312,2.04,2.128
				c0.409,0.612,0.729,1.224,1.049,1.895c0.35,0.961,0.582,1.951,0.845,3.029c0.291,2.826,0.262,5.828-0.117,9.208l0.262,1.339
				c0.117,1.107,1.516,2.564,3.147,2.767c0.409,0.059,0.816,0.118,1.224,0.118c0.32,0,0.641-0.059,0.903-0.088
				c1.078-0.32,2.04-1.019,2.71-1.516c1.806-1.312,3.788-2.476,6.089-3.612c1.778-0.698,3.555-1.224,5.478-1.66
				c0.641-0.059,1.253-0.088,1.865-0.088c0.553,0,1.078,0.029,1.689,0.118c0.904,0.204,1.719,0.436,2.564,0.757
				c0.729,0.35,1.398,0.757,2.127,1.194c0.409,0.35,0.786,0.729,1.136,1.195c0.524,0.729,0.991,1.486,1.457,2.243l0.524,0.933
				c0.291,0.465,0.553,0.989,0.962,1.369c0.436,0.466,1.107,0.729,2.185,1.107c0.466,0.088,0.933,0.147,2.069,0.147
				c0.32-0.029,0.641-0.059,1.078-0.059c0.379,0,0.816,0.029,1.398,0.117c0.525,0.292,1.049,0.583,1.574,0.962
				c0.651,0.597,1.277,1.197,1.854,2.03c0.018,0.018,0.036,0.04,0.054,0.059c-0.005,0.003-0.009,0.007-0.014,0.01
				c0.005-0.002,0.032-0.002,0.032,0.026c0,0,0,0,0.029,0.029c0,0.029,0.029,0.029,0.029,0.059
				c-1.923,1.224-3.875,2.331-5.857,3.409c-4.429,2.419-8.945,4.633-13.491,6.759c-3.467,1.457-7.285,2.797-12.441,4.4
				c-2.797,0.903-5.565,1.807-8.362,2.711l-6.293,2.04c-4.865,1.572-9.935,2.767-14.656,3.817
				c-4.224,0.991-8.508,1.836-12.791,2.478c-5.595,0.495-11.393,0.757-17.715,0.757l-4.429-0.029
				c-2.652-0.059-5.303-0.147-8.188-0.233l-2.331-0.087c-3.788-0.088-7.576-0.175-11.363-0.175l-1.66,0.029h-3.467l-9.79,0.029
				c-3.643,0-7.313-0.029-10.955-0.059c-6.672-0.087-13.286-0.35-19.929-0.641l-3.962-0.146c-5.39-0.263-10.81-0.875-15.152-1.37
				c-9.761-1.602-18.589-3.496-27.039-5.827c-8.741-2.361-17.57-5.363-26.31-8.859c-4.545-2.04-9.003-4.166-13.403-6.439
				c-2.681-1.398-5.362-2.826-8.012-4.283c-1.865-0.962-3.555-2.185-5.624-3.641l-1.078-0.787c-2.011-1.602-3.992-3.176-5.915-5.012
				c-0.029-0.029-0.059-0.059-0.088-0.087c-0.2-0.18-0.398-0.366-0.599-0.548c0.005-0.002,0.01-0.003,0.016-0.006
				C109.366,349.786,109.366,349.786,109.336,349.756z M210.297,243.613c-1.893-2.04-3.7-4.196-5.507-6.323
				c-1.312-1.515-2.593-3.029-3.905-4.515l-1.312-1.604l1.078-1.312c4.167-4.836,8.333-8.916,12.762-12.499
				c2.214-1.66,4.458-3.176,6.847-4.662c0.029,0.029,0.029,0.029,0.058,0.029c0-0.001,0.001-0.001,0.001-0.001
				c1.903,1.007,3.778,1.903,5.739,2.711c3.758,1.516,7.458,2.593,10.955,3.176c4.079,0.67,8.158,1.312,12.296,1.66
				c3.264,0.32,6.585,0.438,9.877,0.438l1.312-0.029c1.224,0,2.448-0.029,3.671-0.059c1.951-0.029,4.05-0.35,6.643-0.962
				c4.167-1.019,7.984-3.147,11.188-5.069c1.69-1.021,3.205-2.243,4.779-3.526c0-0.029,0.059-0.059,0.059-0.059l0.029-0.029
				c0.029,0,0.059,0.029,0.059,0.029c0.35,0.35,0.728,0.612,1.165,0.844c0.845,0.525,1.69,1.108,2.505,1.69l0.7,0.466
				c1.34,1.107,2.622,2.36,3.905,3.612l2.186,2.157c2.214,2.156,4.4,4.283,6.469,6.614c1.398,1.602,2.767,3.235,4.137,4.895
				l1.172,1.477c-0.001,0.003-0.003,0.006-0.006,0.009l0.058,0.058c-1.165,1.631-2.36,3.235-3.555,4.836
				c-0.524,0.642-1.107,1.281-1.689,1.895c0,0,0.029,0,0.029,0.029c0.029,0.029,0.029,0.058,0,0.087l-0.32,0.174
				c-0.204,0.174-0.379,0.321-0.583,0.496c-0.786,0.611-1.631,1.312-2.272,2.448c-1.369,2.446-0.553,5.565,1.836,6.963
				c0.786,0.465,1.631,0.698,2.535,0.698c1.748,0,3.467-0.962,4.458-2.505c0.845-1.34,1.66-2.681,2.448-4.079
				c0.757-1.312,1.457-2.652,2.157-4.021l0.35-0.495c0.031-0.066,0.068-0.128,0.1-0.194c0.005,0.007,0.01,0.013,0.016,0.02
				l0.029-0.059l1.633,1.923c1.486,2.069,2.796,4.283,3.933,6.789c1.136,2.856,2.214,5.71,3.088,8.654
				c0.524,1.718,0.962,3.438,1.398,5.186c0.409,1.602,0.671,3.204,0.962,4.953c0.583,5.041,0.874,9.091,0.904,12.791
				c0.029,2.564,0,5.098-0.088,7.663c-0.088,2.243-0.291,4.516-0.525,6.79c-0.524,3.147-1.078,6.293-1.893,9.41l-0.35,1.398
				c-1.048,4.079-2.155,8.276-3.7,12.238c-2.069,4.691-4.982,9.411-9.498,15.355c-1.807,2.243-3.526,4.138-5.244,5.798
				c-1.457,1.427-3.031,2.71-4.604,3.992c-1.806,1.486-3.641,2.943-5.448,4.37c-4.079,3.059-7.693,5.245-11.363,6.934
				c-4.895,1.952-10.081,2.826-15.355,3.729l-4.109,0.525c-1.748,0.203-3.526,0.291-5.303,0.291c-2.214,0-4.4-0.146-6.614-0.379
				c-3.759-0.524-7.517-1.34-11.247-2.155c-5.303-1.166-10.052-2.273-14.627-4.138c-6.964-3.117-13.198-7.43-18.385-11.217
				c-2.71-2.187-5.274-4.516-7.779-6.905c-3.002-2.856-6.498-6.293-9.528-10.081c-0.932-1.312-1.806-2.622-2.622-3.991
				c-0.874-1.399-1.633-2.826-2.389-4.283c-0.641-1.574-1.253-3.176-1.807-4.807c-0.582-1.602-1.019-3.205-1.66-5.536
				c-1.136-3.933-1.778-8.012-2.214-11.101l-0.146-2.069L180,289.151c-0.059-0.962-0.029-1.981,0-2.972v-1.486
				c0-2.448,0.32-4.894,0.582-7.285l0.117-0.961l0.35-1.923c0.553-3.322,1.136-6.789,2.069-10.08
				c1.369-5.041,2.797-10.257,4.779-15.181c1.277-2.766,2.793-5.359,4.541-8.331c0.35-0.612,0.757-1.225,1.253-1.807
				c0.043-0.065,0.09-0.127,0.134-0.193c0.012-0.01,0.021-0.021,0.04-0.04l1.34,1.458l1.981,2.155
				c1.078,1.195,2.156,2.448,3.205,3.671c1.136,1.312,2.243,2.652,3.438,3.905c0.787,0.875,1.923,1.34,3.176,1.34
				s2.448-0.495,3.293-1.34C212.045,248.334,212.045,245.508,210.297,243.613z M264.494,61.217c-0.095-0.073-0.17-0.163-0.266-0.234
				c0,0.029,0,0.059,0,0.088l-0.671-0.496c-1.398-1.048-3.147-1.777-5.448-2.389c-0.757-0.174-1.574-0.291-2.331-0.35
				c-0.495-0.059-1.019-0.059-1.515-0.059v-0.085l-1.457,0.263v-0.088l-1.136,0.465c-0.612,0.174-1.107,0.496-1.574,0.962
				c-0.495,0.379-0.962,0.787-1.428,1.195c-0.562,0.477-1.1,0.987-1.686,1.545c-0.001,0-0.002,0-0.003-0.001
				c-0.029,0.029-0.029,0.029-0.058,0.059c-0.641-0.146-1.281-0.35-1.952-0.553c-0.204-0.145-0.436-0.291-0.7-0.409
				c-0.379-0.35-0.757-0.698-1.078-1.078c0-0.029-0.495-0.874-0.495-0.874s-0.146-0.903-0.174-0.903
				c0-0.029,0.291-0.933,0.291-0.933c0.262-0.553,0.525-1.107,0.845-1.631c0.117-0.175,0.233-0.379,0.35-0.553
				c0,0,0.117-0.088,0.262-0.204c0,0,0.029,0,0.029-0.029c0.029,0,0.058-0.029,0.088-0.029c0.174-0.145,0.35-0.263,0.35-0.263
				l0.583-0.028c0.058,0,0.117-0.029,0.145-0.029c0,0,0.029,0,0.029,0.029l0.174-0.029c0.438,0.145,0.874,0.291,1.312,0.291
				c0.7,0,1.195-0.291,2.157-1.019c0.408-0.466,0.671-0.933,0.816-1.428c0.262-0.611,0.466-1.253,0.698-1.922l0.35-0.962
				c0.262-0.524,0.524-1.021,1.312-2.098c0.466-0.495,0.962-0.961,1.602-1.516c1.049-0.757,2.098-1.486,3.205-2.127l0.029-0.029
				c0.029,0,0.029,0.029,0.059,0.029c0.466,0.438,0.903,0.874,1.34,1.369c0.729,0.845,1.516,1.399,2.273,1.633
				c0.845,0.291,1.631,0.465,2.476,0.611c0.991,0.204,1.981,0.496,3.205,1.049c0.553,0.262,1.049,0.553,1.69,0.991
				c0.145,0.087,0.262,0.173,0.379,0.232c0.088,0.059,0.146,0.146,0.204,0.233c0.058,0.029,0.088,0.058,0.146,0.087l0.262,0.875
				c0,0.582-0.029,1.194-0.058,1.194c-0.117,0.816-0.321,1.574-0.641,2.419c-0.233,0.438-0.524,0.903-0.845,1.34
				c-0.816,0.991-1.719,1.923-2.622,2.856c-0.524,0.524-0.757,1.194-0.786,1.951C264.239,60.847,264.425,61.013,264.494,61.217z
				 M242.552,58.682c0-0.029,0-0.088,0-0.118c0,0,0,0,0.029,0.029C242.552,58.623,242.552,58.653,242.552,58.682c0,0,0,0,0,0.028
				c-0.029,0.088-0.029,0.174-0.058,0.292C242.522,58.885,242.522,58.799,242.552,58.682z M244.241,76.105
				c1.806-2.593,3.612-5.158,5.769-8.012c1.048-1.312,2.127-2.622,3.438-3.905c0.233-0.263,0.466-0.524,0.7-0.757
				c0.058-0.029,0.117-0.059,0.146-0.088c0.059-0.029,0.088-0.058,0.117-0.087l0.117,0.029l-0.029-0.059l0.029-0.029
				c0.582,0,1.136,0.029,1.689,0.088c0.787,0.174,1.516,0.379,2.243,0.611c0.729,0.379,1.398,0.787,2.127,1.254
				c0.962,0.786,1.836,1.631,2.652,2.593c1.195,1.544,2.272,3.147,3.322,4.779c1.195,1.836,2.186,3.787,3.117,5.769
				c0.612,1.457,1.165,2.913,1.748,4.4l1.369,3.555l0.7,1.69c0.845,2.127,1.719,4.282,2.419,6.469
				c0.641,1.981,1.107,4.02,1.574,6.031l0.495,2.098c0.146,0.787,0.321,1.544,0.495,2.68c0.035,0.128,0.117,0.242,0.157,0.369
				c-0.034-0.015-0.066-0.035-0.098-0.049c0,0.028,0,0.058,0,0.087c-0.874-0.379-1.778-0.729-2.71-1.048
				c-1.253-0.438-2.593-0.757-3.876-1.107l-1.048-0.292c-2.593-0.641-5.186-1.107-7.809-1.457c-0.903-0.117-1.836-0.145-2.739-0.145
				c-1.457,0-2.914,0.088-4.371,0.204c-1.602,0.087-3.205,0.233-4.836,0.409l-1.253,0.145c-3.322,0.291-7.197,0.757-10.898,1.719
				c-4.574,1.165-7.955,2.389-10.984,3.991c-0.962,0.524-1.952,1.048-2.972,1.545c-0.23,0.14-0.475,0.274-0.71,0.409
				c0.014-0.029,0.027-0.06,0.04-0.089c-0.029,0.03-0.088,0.03-0.117,0.059c1.078-2.332,2.185-4.633,3.322-6.935
				c2.127-4.341,4.196-8.129,6.322-11.509l0.991-1.631c0.903-1.427,1.777-2.856,2.71-4.224c1.457-2.155,2.943-4.283,4.429-6.411
				L244.241,76.105z M230.458,113.224c1.195-0.495,2.419-0.933,3.643-1.34c1.34-0.436,2.681-0.786,4.05-1.136
				c2.127-0.553,4.283-0.903,6.469-1.224l0.874-0.117c2.593-0.263,5.157-0.496,7.838-0.671c2.04-0.117,4.05-0.232,6.06-0.232
				c1.34,0,2.681,0.058,4.021,0.174c4.603,0.786,8.653,1.836,12.353,3.263c2.36,1.136,4.924,2.681,8.012,4.779
				c0.933,0.787,1.778,1.604,2.564,2.593c0.903,1.282,1.748,2.564,2.593,3.905l1.107,1.719l1.923,2.825
				c0.612,0.875,1.078,1.807,1.428,2.769c0.088,0.262,0.233,0.553,0.35,0.786c0.005,0.013,0.008,0.024,0.012,0.037
				c-0.055-0.07-0.1-0.141-0.157-0.212c0.029,0.088,0.058,0.147,0.088,0.233c-0.029-0.029-0.059-0.087-0.117-0.117
				c0.029,0.058,0.058,0.117,0.058,0.174c-1.777-2.273-3.729-4.224-5.769-5.828c-1.545-1.253-3.06-2.448-4.779-3.496
				c-1.427-0.874-3.06-1.516-5.391-2.419c-3.788-1.427-7.925-1.923-11.072-2.214c-1.69-0.146-3.35-0.204-5.041-0.204
				c-1.283,0-2.593,0-3.876,0.029l-1.865,0.059c-2.972,0.058-5.943,0.117-8.888,0.408c-3.031,0.292-6.206,0.991-9.731,2.128
				c-3.031,1.021-6.178,2.273-9.295,3.729c-1.923,0.962-3.788,2.128-5.915,3.729c-2.214,1.194-4.138,2.419-5.915,3.787
				c-2.74,2.04-5.128,4.254-6.934,6.44c-0.7,0.815-1.37,1.689-2.011,2.534l-0.495,0.553c-0.162,0.261-0.329,0.522-0.498,0.783
				c0.002-0.046-0.002-0.095,0.001-0.142c-0.027,0.036-0.054,0.095-0.084,0.123v-0.118l-0.088,0.118l0.146-1.195
				c0.495-2.272,1.281-4.37,2.04-6.177c1.632-3.526,3.088-6.089,4.75-8.362l1.544-1.836c0.991-1.107,2.157-2.069,3.293-3.002
				c0.845-0.67,1.66-1.34,2.534-1.895c1.224-0.844,2.448-1.66,3.729-2.419C226.146,115.322,228.244,114.244,230.458,113.224z
				 M210.034,147.985l0.35-0.757l0.7-1.427c0.816-1.806,1.952-3.641,3.671-5.943c0.729-0.903,1.486-1.748,2.505-2.68
				c0.321-0.35,0.641-0.698,0.991-1.021c0.088-0.029,0.175-0.058,0.263-0.087c0.117-0.088,0.203-0.174,0.32-0.263
				c1.69-1.194,3.38-2.389,5.128-3.526c2.069-1.369,4.282-2.419,6.381-3.38c2.448-0.961,4.924-1.806,7.488-2.505
				c2.535-0.67,5.1-1.281,7.693-1.69c1.544-0.145,3.088-0.233,4.691-0.233h0.495c1.078,0,2.185,0.059,3.264,0.118l1.865,0.058
				c3.467,0.145,6.963,0.466,10.431,0.875c1.631,0.291,3.205,0.641,4.779,1.048c1.69,0.465,3.35,1.048,5.274,1.806
				c1.049,0.495,2.098,1.049,3.118,1.604c1.048,0.641,2.04,1.369,3.031,2.097c0.233,0.204,0.436,0.409,0.671,0.583
				c0.029,0.029,0.029,0.029,0.058,0.059c0,0,0,0-0.029,0c2.127,1.895,3.846,3.612,5.389,5.362c1.457,1.981,2.797,4.05,4.109,6.148
				c0.729,1.194,1.457,2.389,2.157,3.612c0.67,1.253,1.31,2.506,1.951,3.788c0.204,0.553,0.409,1.078,0.642,1.631
				c0.203,0.524,0.35,1.019,0.495,1.545l0.262,0.961c0.35,1.107,0.525,2.273,0.787,3.964l0.058,0.962
				c0.059,0.641,0.117,1.282,0.117,1.893c0.029,1.37-0.029,2.711-0.088,4.051c-0.058,1.572-0.233,3.147-0.583,4.982
				c-0.029,0.409-0.088,0.787-0.145,1.194l0.117-0.35c-0.321,1.66-0.671,3.294-1.166,5.478c-0.436,1.806-1.107,3.554-1.893,5.565
				c-2.186,5.157-4.604,10.634-8.042,15.471c-1.312,1.631-2.71,3.176-4.224,4.633c-0.698,0.671-1.457,1.253-2.622,2.214
				c-0.874,0.612-1.748,1.195-2.622,1.749c-1.749,1.019-3.497,2.01-5.362,2.825c-2.069,0.816-3.991,1.34-5.886,1.69
				c-1.398,0.146-2.797,0.204-4.195,0.204c-2.069,0-4.196-0.117-6.264-0.232c-2.943-0.147-5.857-0.379-8.77-0.7
				c-3.147-0.465-6.293-0.933-9.412-1.602c-1.806-0.409-3.584-0.845-5.362-1.427l-0.757-0.233c-0.641-0.204-1.281-0.409-1.893-0.671
				l-1.895-0.786c-1.369-0.671-2.71-1.37-4.02-2.128c-1.34-0.729-2.593-1.602-4.226-2.855c-0.465-0.379-0.932-0.757-1.398-1.195
				c-1.195-1.048-2.243-2.185-3.234-3.438c-1.602-2.302-3.147-4.633-4.633-6.964c-1.545-2.419-2.885-4.836-4.05-7.342
				c-0.32-0.845-0.641-1.69-0.903-2.534c-0.525-1.486-0.845-3.031-1.078-4.604c-0.174-1.836-0.203-3.671-0.146-5.507
				c0.027-1.051,0.113-2.099,0.23-3.148C205.577,160.951,207.354,154.775,210.034,147.985z M451.344,431.719
				c-0.466,2.097-1.136,4.079-1.865,6.089c-0.816,1.806-1.69,3.641-2.767,5.303c-1.283,1.981-2.622,3.933-4.021,5.856
				c-2.651,3.294-5.07,5.798-7.634,7.926c-3.758,2.622-7.808,4.486-11.975,6.351c-7.634,3.117-15.384,5.943-23.135,8.771
				c-6.498,2.36-13.024,4.749-19.492,7.285c-1.195,0.465-2.127,1.019-2.826,2.155c-0.306,0.536-0.499,1.121-0.66,1.754
				c-0.069,0.526,0.005,1.062,0.113,1.591c-0.172,0.053-0.342,0.115-0.514,0.167c-0.006,0.024-0.01,0.048-0.017,0.073
				c-6.498,2.04-12.965,3.147-19.667,4.137c-6.439,0.816-13.024,1.486-19.522,1.982c-5.565,0.436-11.188,1.253-16.579,2.068
				l-5.565,0.845c-8.945,0.991-15.908,1.486-22.522,1.572l-5.828,0.059c-5.856,0.088-11.684,0.174-17.511,0.32
				c-8.217,0.204-16.403,0.35-24.62,0.35c-7.779,0-15.56-0.145-23.309-0.436c-12.412-0.496-24.999-1.749-37.178-2.972l-2.535-0.233
				c-6.76-0.641-13.519-1.107-20.308-1.545c-3.612-0.232-7.226-0.465-10.867-0.786c-2.856-0.292-5.681-0.642-8.538-1.021h-0.059
				c-0.446-0.083-0.89-0.169-1.337-0.254c-0.098-0.013-0.196-0.024-0.294-0.037c0.083,0.008,0.166,0.02,0.248,0.029
				c-3.728-0.705-7.44-1.434-11.175-2.187l-4.4-0.874c-2.681-0.524-5.389-1.019-8.07-1.66c-4.924-1.166-8.974-2.273-12.762-3.555
				l-2.594-0.874c-3.031-1.048-6.06-2.069-9.032-3.264c-3.905-1.66-8.45-3.671-12.791-6.088c-4.516-2.448-9.178-4.983-13.461-8.188
				c-1.224-1.049-2.302-2.128-3.322-3.322c-1.078-1.486-1.981-3.002-2.651-4.488c-0.466-1.282-0.816-2.534-1.107-3.905
				c-0.117-1.34-0.088-2.652,0-4.02c0.671-3.09,1.719-6.44,3.293-10.577c1.428-3.205,3.293-6.352,5.507-9.383
				c2.331-2.884,4.865-5.448,7.721-7.808c1.602-1.195,3.205-2.39,4.75-3.701c0.874-0.786,1.602-1.718,2.331-2.651
				c0.339-0.42,0.661-0.829,1.01-1.191c0.256-0.354,0.465-0.75,0.697-1.126c0.054,0.133,0.099,0.259,0.157,0.394
				c0.001,0.003,0.003,0.006,0.005,0.008c0.018-0.012,0.036-0.024,0.053-0.037c0.583,1.079,1.224,2.069,2.214,3.439
				c0.729,1.078,1.486,2.156,2.331,3.117c2.069,2.419,4.516,4.341,6.847,6.06c2.826,2.128,5.216,3.671,7.517,4.836
				c2.797,1.37,5.74,2.448,8.77,3.526c1.807,0.642,3.612,1.225,5.419,1.836l3.496,1.195c6.236,2.155,12.5,3.991,18.939,5.856
				c0.233,0.059,0.495,0.088,0.757,0.088c1.253,0,2.448-0.875,2.797-2.128c0.379-1.516-0.466-3.002-2.04-3.555l-7.721-2.651
				c-3.35-1.166-6.702-2.302-10.052-3.496c-2.098-0.729-4.224-1.458-6.323-2.157c-3.322-1.136-6.614-2.243-10.284-3.641
				c-0.728-0.32-1.457-0.642-2.127-1.049c-1.166-0.641-2.331-1.31-3.497-2.01c-1.631-0.961-3.205-2.097-5.274-3.612
				c-1.136-0.962-2.243-1.952-3.264-3.059c-0.874-0.903-1.66-1.922-2.448-2.943c-0.874-1.136-1.486-2.155-1.952-3.176
				c-0.204-0.524-0.35-1.019-0.379-1.019c0,0,0,0-0.029,0c-0.174-1.195-0.291-2.389-0.35-3.584l-0.088-1.34
				c-0.058-1.253,0-2.505,0.117-3.758c0.757-4.458,1.806-9.674,3.846-14.714c1.486-3.147,3.088-5.886,4.895-8.42
				c1.281-1.545,2.622-2.914,4.108-4.138c0.845-0.612,1.69-1.166,2.564-1.69c0.029,0,0.029,0,0.059,0h0.029
				c0.012,0.009,0.023,0.017,0.034,0.024c1.65,1.273,3.3,2.519,4.978,3.734c1.37,0.962,2.797,1.836,4.195,2.71l0.816,0.496
				c1.312,0.786,2.681,1.516,4.05,2.214l0.671,0.35l0.816,0.409c1.574,0.815,3.176,1.631,4.779,2.418
				c3.671,1.837,7.343,3.584,11.101,5.216c4.283,1.895,8.654,3.526,13.024,5.099c6.789,2.448,14.248,4.691,22.756,6.847
				c8.886,2.214,17.045,3.817,24.941,4.836c7.926,1.019,15.588,1.66,23.455,2.01l2.214,0.117c7.401,0.32,14.772,0.642,22.201,0.699
				c1.66,0.029,3.35,0.059,5.012,0.059h2.535l2.505-0.029h2.681h2.71c2.681,0,5.389,0.029,8.07,0.059l1.545,0.059
				c5.419,0.145,10.839,0.291,16.258,0.291c1.952,0,3.875-0.029,5.827-0.088c9.382-0.203,17.657-1.078,25.261-2.622
				c8.042-1.604,15.56-3.584,22.319-5.857l5.565-1.951l5.595-1.923l2.214-0.757c2.943-0.989,5.915-1.981,8.77-3.147
				c7.343-3.002,14.948-6.789,23.251-11.567c3.497-2.01,6.702-4.138,9.557-6.323l2.127-1.602c1.748-0.466,3.496-0.875,5.333-1.225
				c1.281-0.117,2.593-0.174,3.875-0.174c0.874,0,1.777,0.029,2.651,0.088c1.078,0.232,2.098,0.495,3.118,0.874
				c1.078,0.553,2.098,1.166,3.147,1.865c1.369,1.166,2.622,2.419,3.817,3.846c0.874,1.224,1.633,2.506,2.302,3.875
				c1.265,3.268,2.03,6.658,2.704,10.445c0.052,0.269,0.106,0.539,0.158,0.808c-0.001,0.013-0.009,0.022-0.01,0.033
				c0.022,0.122,0.043,0.245,0.064,0.367c0.029,0.991-0.058,1.952-0.174,2.943c-0.275,1.351-0.636,2.616-1.083,3.887
				c-0.074,0.209-0.149,0.418-0.227,0.629c-1.748,3.846-3.671,7.196-5.886,10.257c-0.757,0.933-1.516,1.806-2.331,2.68
				c-0.874,0.903-1.836,1.719-2.826,2.506c-3.059,2.272-6.643,4.486-10.926,6.759l-0.698,0.409
				c-1.224,0.641-2.448,1.312-3.729,1.895l-2.593,1.194l-2.593,1.195l-1.574,0.641c-1.34,0.525-2.651,1.078-3.992,1.545
				l-2.214,0.757c-1.719,0.583-3.438,1.166-5.157,1.69l-3.817,1.224c-4.195,1.34-8.392,2.681-12.587,4.05
				c-1.37,0.466-2.127,1.778-1.778,3.059c0.291,1.048,1.224,1.777,2.826,1.777c0.088,0,0.145,0,0.233,0
				c5.943-1.602,11.858-3.234,17.774-4.866l1.369-0.408l1.34-0.409l1.281-0.379c0.933-0.292,1.893-0.553,2.797-0.874l2.156-0.816
				c1.836-0.699,3.701-1.398,5.536-2.214l1.048-0.495l3.438-1.545c0.641-0.291,1.253-0.612,1.865-0.962l0.903-0.465l1.049-0.583
				c0.729-0.35,1.428-0.729,2.127-1.136l2.767-1.631l1.719-1.021c2.01-1.253,4.05-2.71,6.06-4.37
				c2.476-1.981,4.75-4.603,7.138-8.188c1.202-1.802,2.36-3.842,3.586-6.227c0.187-0.388,0.358-0.782,0.537-1.172
				c0.009,0.02,0.02,0.038,0.028,0.058c0.015-0.029,0.03-0.06,0.045-0.089c1.281,2.797,3.729,5.012,5.71,6.643
				c1.544,1.254,3.147,2.419,4.779,3.614l1.136,0.844c4.924,3.905,8.654,7.459,11.684,11.188c0.525,0.757,0.991,1.516,1.428,2.331
				c0.233,0.7,0.436,1.37,0.612,2.128C451.432,429.94,451.403,430.814,451.344,431.719z"/>
			<path d="M251.118,246.327c0.32,1.631,0.844,2.767,1.689,3.729c0.933,1.107,2.04,1.922,3.555,2.651
				c1.398,0.642,2.797,0.787,4.167,0.903l0.277,0.102c0.015,0,0.028,0.001,0.043,0.001v-0.073c0.845,0,1.778-0.262,2.622-0.524
				c1.34-0.409,2.419-1.37,3.35-2.36c0.671-0.67,1.049-1.545,1.457-2.419c0.553-1.281,0.874-2.535,0.962-3.788
				c0.058-0.933,0.088-1.922-0.117-3.058c-0.204-1.195-0.553-2.302-1.195-3.641c-0.524-1.108-1.602-2.041-2.419-2.652
				c-0.874-0.642-1.865-1.078-3.234-1.427c-0.874-0.204-1.836-0.204-3.117-0.233l-1.107,0.146l-1.136,0.174
				c-0.612,0.088-1.224,0.32-1.865,0.612c-2.214,1.107-3.643,2.972-4.254,5.622c-0.291,1.281-0.233,2.711,0.174,4.197
				C250.914,245.074,250.971,245.774,251.118,246.327z"/>
			<path d="M250.098,315.265c0.641,0.756,1.544,1.369,2.884,2.301c0.554,0.409,1.253,0.642,2.214,0.962
				c0.408,0.117,0.816,0.174,1.31,0.174c0.787,0,1.574-0.174,2.243-0.35c0.874-0.174,1.895-0.816,2.476-1.37
				c0.553-0.436,1.019-0.933,1.457-1.572c0.553-0.7,0.933-1.37,1.224-2.157c0.466-0.989,0.729-2.01,0.962-3.263
				c0.204-0.874,0.466-2.564,0.117-3.933c-0.174-0.641-0.321-1.107-0.553-1.544c-0.962-2.332-3.234-3.876-5.711-3.876
				c-0.463,0-0.958,0.062-1.594,0.173c-0.169,0.052-0.337,0.112-0.503,0.177c-0.053-0.018-0.107-0.036-0.163-0.054
				c-0.043,0.008-0.084,0.017-0.129,0.024c-0.553-0.233-1.165-0.35-1.778-0.379c-0.612,0.058-1.195,0.174-1.806,0.32
				c-2.535,0.67-4.138,3.35-4.866,4.866c-0.379,0.815-0.786,1.951-0.698,3.088c0.117,1.253,0.233,2.681,0.903,3.788
				C248.699,313.604,249.34,314.391,250.098,315.265z"/>
			<path d="M266.122,271.005c-0.553-0.553-1.544-1.253-2.418-1.515l-0.728-0.118c-0.495-0.233-1.048-0.35-1.66-0.35
				c-0.67,0-1.369,0.174-2.01,0.466c-0.61,0.305-1.187,0.645-1.719,1.053c-0.003,0-0.007-0.003-0.012-0.005
				c-0.024,0.021-0.051,0.038-0.075,0.059c0,0-0.029,0-0.088,0c-0.016,0-0.027,0-0.047,0c-0.057,0-0.127,0-0.127,0
				c-0.321,0-0.671,0.087-0.962,0.291l-0.7,0.466c-0.495,0.35-1.019,0.67-1.515,1.048c-0.583,0.438-1.107,0.962-1.545,1.572
				c-0.35,0.379-0.612,0.845-0.786,1.37c-0.262,0.583-0.262,1.136-0.291,1.981c0.058,0.466,0.117,0.962,0.204,1.428
				c0.117,0.465,0.291,0.933,0.495,1.398l-0.058,0.029l0.553,0.787l0.466,0.611l0.495,0.583c0.816,0.991,1.893,1.69,3.379,2.534
				c0.495,0.263,1.019,0.379,2.157,0.466c0.436,0,0.903-0.088,1.369-0.263c0.262-0.028,0.495-0.058,0.757-0.146
				c0.903-0.232,1.574-0.874,2.272-1.572c1.009-1.037,1.331-2.443,1.538-3.664c0.003-0.005,0.008-0.007,0.013-0.01
				c0.008-0.049,0.016-0.096,0.024-0.143l0.083-0.087l0.966-1.021c0.524-0.553,0.903-1.194,1.107-1.893
				c0.233-1.049,0.35-1.923,0.146-2.885C267.114,272.347,266.735,271.588,266.122,271.005z"/>
			<polygon points="222.506,166.261 222.506,166.261 222.506,166.26 			"/>
			<path d="M222.506,166.261l0.495,1.018c0.174,0.554,0.466,1.049,0.874,1.486c0.67,0.934,1.369,1.604,2.127,2.069
				c0.524,0.321,0.962,0.553,1.544,0.787c0.671,0.263,1.602,0.642,2.36,0.642l0.495-0.029c0.757-0.088,1.486-0.146,2.185-0.438
				l0.029,0.059l0.962-0.466c0.466-0.35,0.933-0.757,1.398-1.165c0.379-0.466,0.728-0.933,1.078-1.458
				c0.466-0.698,0.698-1.806,0.816-2.534c0.146-0.874,0.146-1.806,0-2.884c0.088-1.021-0.117-1.982-0.612-2.885
				c-0.409-1.369-0.962-3.088-2.069-4.166c-0.671-0.698-1.515-0.933-2.534-1.225c-0.35-0.087-0.612-0.117-0.874-0.117
				c-0.553,0-1.107,0.117-1.69,0.263c-1.078,0.291-2.214,1.078-3.35,2.389c-0.291,0.291-0.525,0.611-0.757,0.933l-0.816,0.757
				c-0.671,0.611-1.166,1.718-1.428,2.476c-0.204,0.553-0.321,1.136-0.35,1.806c-0.088,0.904,0.029,1.719,0.204,2.681H222.506z"/>
			<path d="M271.659,164.307l0.35,1.136c0.233,0.612,0.524,1.195,0.874,1.749c0.379,0.495,0.757,1.021,1.166,1.516
				c0.553,0.612,1.107,1.165,1.69,1.719c0.408,0.379,1.165,1.019,2.185,1.224c0.553,0.145,1.078,0.263,1.631,0.263
				c0.263,0,0.525-0.029,0.757-0.088c1.574-0.409,2.767-1.195,3.788-2.534c1.107-1.37,1.807-3.089,2.157-5.245
				c0.466-2.478,0.174-5.886-2.214-7.285c-0.612-0.32-1.312-0.495-2.098-0.495c-0.729,0-1.516,0.117-2.39,0.379
				c-0.466,0.145-0.903,0.379-1.312,0.612l-0.029,0.028l-0.991-0.058c-0.525,0-0.962,0.058-1.34,0.146
				c-0.612,0.174-1.165,0.409-1.895,0.787c-1.136,0.641-1.689,1.951-2.272,3.322l-0.088,0.815c-0.088,0.7-0.029,1.37,0.117,1.982
				L271.659,164.307z"/>
			<path d="M245.523,185.455c0.845,1.516,2.243,2.856,4.283,4.138c0.553,0.32,1.195,0.583,1.836,0.815l0.698,0.292
				c1.166,0.436,2.535,0.612,3.933,0.757c0.903,0.117,1.806,0.174,2.739,0.174c0.904,0,1.836-0.147,3.147-0.379
				c0.641-0.118,1.398-0.379,2.214-0.787c0.845-0.438,1.602-0.903,2.36-1.457c1.865-1.34,3.234-3.059,4.224-4.4
				c0.612-0.816,1.019-1.749,1.312-2.506c0.35-0.933,0.671-1.806,0.729-2.797c0.233-2.273-0.058-4.429-0.816-6.439
				c-0.379-1.019-0.874-1.981-1.369-2.943c-0.379-0.698-0.757-1.312-1.224-1.923c-0.35-0.465-0.729-0.903-1.136-1.312l-1.486-1.136
				l0.059-0.058l-1.078-0.438c-0.436-0.204-0.962-0.408-1.544-0.553c-0.698-0.174-1.516-0.232-2.535-0.232h-0.816
				c-1.457,0.028-3.001,0.32-4.283,0.611c-0.029,0-0.67-0.059-0.67-0.059c-0.321,0-0.612,0-0.903-0.028l-0.962,0.117l-0.933,0.117
				c-0.962,0.263-1.778,0.583-2.681,0.962c-1.019,0.466-1.895,1.195-3.176,2.273c-0.698,0.553-1.224,1.37-2.01,2.564
				c-0.409,0.642-0.7,1.457-1.224,2.884c-0.32,0.962-0.495,2.098-0.553,2.885c-0.146,1.427-0.117,2.652,0.088,3.817
				C244.066,182.249,244.62,183.853,245.523,185.455z M267.492,178.229c0-0.028,0-0.057,0-0.058c0-0.028,0-0.087,0.029-0.117
				L267.492,178.229z M249.166,175.956c0.145-0.553,0.291-1.107,0.495-1.631c0.233-0.583,0.495-1.078,0.816-1.544
				c0.438-0.554,0.991-1.079,1.195-1.225c0.465-0.35,1.019-0.67,0.991-0.698c0.495-0.233,0.991-0.409,1.544-0.553
				c0.059,0,0.233,0.174,0.262,0.174c0.525,0.583,1.34,0.933,2.243,0.933c0,0,0,0,0.029,0l1.224-0.088
				c1.224-0.117,2.448-0.204,3.7-0.204h0.874c0.495,0.118,0.903,0.233,1.34,0.379c0.13,0.05,0.26,0.118,0.389,0.196
				c0.044,0.015,0.088,0.028,0.135,0.037c-0.042-0.008-0.081-0.017-0.119-0.025c0.098,0.061,0.195,0.127,0.293,0.201
				c0.018,0,0.232,0.208,0.395,0.374c0.068,0.058,0.128,0.111,0.188,0.15c-0.043-0.028-0.087-0.057-0.129-0.089
				c0.075,0.077,0.129,0.138,0.129,0.148c0.66,0.914,1.255,1.852,1.783,2.811c-0.003-0.015-0.005-0.028-0.005-0.043
				c0.014,0.029,0.022,0.058,0.029,0.087c0.069,0.126,0.137,0.253,0.204,0.38c0.117,0.35,0.233,0.698,0.291,1.078
				c0.015,0.226,0.023,0.461,0.025,0.7c0.001-0.01,0.002-0.021,0.003-0.03c0,0.017-0.002,0.032-0.003,0.048
				c0.003,0.216,0.003,0.432,0.003,0.649c-0.059,0.409-0.174,0.757-0.321,1.107c-0.32,0.7-0.671,1.34-1.107,1.982
				c-0.786,0.903-1.631,1.748-2.622,2.534c-0.582,0.409-1.195,0.757-1.836,1.078c-0.466,0.174-0.903,0.292-1.427,0.409
				c-0.466,0.029-0.933,0.059-1.428,0.059c-0.757,0-1.486-0.059-2.243-0.118c-1.107-0.174-2.155-0.436-3.175-0.757
				c-0.612-0.291-1.136-0.611-1.719-0.989c-0.436-0.379-0.816-0.787-1.165-1.253c-0.262-0.351-0.525-0.787-0.7-1.225
				c-0.32-0.757-0.524-1.573-0.698-2.564C249.019,177.588,249.078,176.802,249.166,175.956z"/>
			<path d="M234.219,190.153c-0.38-0.584-0.701-1.167-1.021-1.778c-0.174-0.438-0.321-0.875-0.409-1.34
				c-0.262-1.021-1.281-1.806-2.972-1.806c-0.058,0-0.117,0-0.174,0c-1.34,0.408-2.127,1.777-1.806,3.147
				c1.312,5.215,5.71,9.411,13.111,12.44c1.836,0.757,3.788,1.37,6.002,1.923c2.797,0.67,5.245,0.991,7.459,0.991v0.058l0.698-0.087
				c2.011-0.088,3.992-0.292,6.002-0.583c2.185-0.32,4.341-1.021,6.148-1.631c1.748-0.642,3.293-1.516,4.72-2.622l0.991-0.787
				l1.486-1.224c1.633-1.312,3.234-2.622,4.809-4.02c0.524-0.438,0.844-1.136,0.874-1.895c0.029-0.875-0.291-1.749-0.874-2.302
				c-0.553-0.553-1.34-0.874-2.157-0.874c-1.078,0-2.069,0.553-2.535,1.457c-0.379,0.698-0.757,1.34-1.165,2.01
				c-1.34,1.545-2.914,2.885-4.662,4.342c-0.262,0.204-0.495,0.379-0.757,0.524c-0.524,0.35-1.078,0.67-1.574,0.844
				c-2.01,0.757-4.079,1.34-6.351,1.778c-1.428,0.145-2.885,0.233-4.312,0.233c-1.166,0-2.36-0.059-3.526-0.175
				c-3.205-0.495-6.498-1.398-10.198-2.913c-1.66-0.815-3.35-1.66-4.895-2.739C236.054,192.222,235.092,191.26,234.219,190.153z"/>
			<path d="M349.454,430.873c-0.409-1.69-0.874-3.35-1.428-5.012l-0.262-0.787c-0.466-1.515-0.933-3.029-1.574-4.458
				c-0.233-0.495-0.466-0.989-0.729-1.486c-0.291-0.495-0.671-0.961-1.253-1.631c-1.195-1.369-3.147-1.806-4.982-2.186
				c-0.786-0.174-1.631-0.263-2.564-0.35c-0.7-0.088-1.398-0.145-2.098-0.204l-1.048-0.059c-0.845-0.058-1.66-0.087-2.505-0.087
				c-4.807,0-9.645,0.844-14.336,1.66c-1.486,0.262-2.972,0.524-4.488,0.787l-0.903,0.117l-0.7,0.117v-0.028
				c-1.457,0.145-2.885,0.291-4.341,0.436l-3.205,0.35c-1.719,0.174-3.438,0.409-5.186,0.612l-2.593,0.35
				c-5.186,0.642-10.372,1.107-15.588,1.486c-1.865,0.117-3.7,0.291-5.536,0.495l-1.253,0.147c-2.331,0.262-4.633,0.436-6.934,0.611
				c-2.739,0.233-5.477,0.466-8.857,0.845c-1.253,0.174-2.476,0.32-3.729,0.35h-0.903c-1.34,0-2.651-0.059-3.992-0.088
				c-0.553,0-1.078,0.204-1.544,0.612l-0.874-0.174l-0.874-0.204l-0.991-0.204c-1.689-0.409-3.438-0.815-5.157-1.107
				c-3.788-0.67-7.605-1.048-11.393-1.427l-1.019-0.088l-6.177-0.641l-6.148-0.612c-4.4-0.438-8.8-0.903-12.47-1.398l-3.031-0.496
				c-3.263-0.524-6.527-1.048-9.818-1.398l-3.002-0.32l-3.002-0.292l-1.078-0.117c-0.671-0.059-1.369-0.118-2.069-0.146
				c-0.524-0.059-1.019-0.088-1.544-0.088c-0.436,0-0.903,0.029-1.369,0.117c-0.757,0-1.516,0.174-2.157,0.496
				c-0.495,0.174-0.991,0.436-2.04,1.194c-0.729,0.524-1.281,1.078-1.748,1.719c-0.845,0.903-1.428,2.01-1.981,3.031
				c-1.107,2.068-1.806,4.37-2.651,7.051c-0.583,2.039-1.019,4.137-1.544,6.469c-0.904,4.137-1.486,8.362-2.04,12.674l-0.379,2.797
				l-0.379,2.767l-0.174,1.253c-0.174,1.281-0.321,2.565-0.379,3.847c-0.088,1.165,0,2.826,0.729,4.254
				c0.698,1.312,1.69,2.476,2.943,3.408c2.069,1.604,4.4,2.739,7.226,3.992c1.602,0.67,3.234,1.339,4.895,1.836
				c2.011,0.583,3.992,1.107,6.002,1.602c3.555,0.874,7.11,1.778,10.634,2.739c3.846,1.049,7.693,2.011,11.596,2.74l2.885,0.553
				c2.885,0.553,5.769,1.078,8.683,1.66l1.107,0.262c3.526,0.729,7.167,1.486,10.78,1.865c3.875,0.438,7.721,0.787,11.626,0.903
				l5.012,0.174c5.74,0.233,11.479,0.438,17.22,0.438l1.66-0.029c3.933-0.029,7.896-0.145,11.829-0.262
				c3.322-0.118,6.905-0.525,11.246-1.283l2.564-0.465c2.767-0.524,5.507-1.048,8.303-1.516c3.759-0.641,7.517-1.312,11.276-1.981
				c2.797-0.496,5.624-0.962,8.45-1.427l3.117-0.525c3.614-0.553,7.372-1.136,11.043-2.068c3.322-0.875,6.614-2.243,9.819-4.021
				c0.729-0.436,1.398-0.962,2.273-1.69l0.058,0.059l0.845-1.078c0.35-0.438,0.671-0.903,0.991-1.34
				c1.019-1.457,1.66-3.205,2.535-5.477c0.436-1.166,0.729-2.389,1.195-4.312c0.233-1.078,0.408-2.243,0.524-3.35
				c0.466-4.166,0.641-7.955,0.583-11.509c-0.058-2.127-0.35-4.224-0.641-6.323C350.211,434.253,349.862,432.563,349.454,430.873z
				 M344.909,446.461c-0.088,2.243-0.233,4.488-0.438,6.731c-0.146,0.961-0.291,1.951-0.524,2.913
				c-0.436,1.836-0.991,3.612-1.69,5.362c-0.495,1.048-1.019,2.04-1.689,3.029c-0.233,0.292-0.495,0.554-0.845,0.757l0.117-0.058
				c-0.12,0.074-0.24,0.147-0.361,0.219c-0.099,0.073-0.201,0.147-0.308,0.217c0.046-0.038,0.094-0.078,0.142-0.118
				c-1.156,0.681-2.368,1.28-3.58,1.837c-0.816,0.32-1.631,0.642-2.448,0.903c-1.048,0.379-2.156,0.642-3.263,0.903
				c-2.419,0.612-4.924,1.049-7.402,1.458l-4.429,0.698c-2.943,0.465-5.886,0.933-8.857,1.486c-4.021,0.757-8.1,1.486-12.15,2.214
				l-1.865,0.35l-4.982,0.933c-2.681,0.524-5.39,1.048-8.595,1.602c-1.836,0.204-3.643,0.379-5.478,0.466
				c-1.486,0.058-3.002,0.117-4.488,0.174l-2.243,0.087c-2.826,0.088-5.624,0.118-8.45,0.118c-1.69,0-3.38,0-5.07-0.029
				c-4.488-0.088-8.945-0.204-13.781-0.32l-1.224-0.059c-1.69-0.029-3.35-0.059-5.041-0.174c-2.243-0.146-4.488-0.321-6.76-0.553
				c-2.331-0.32-4.633-0.698-6.993-1.136c-1.66-0.291-3.322-0.612-4.954-0.933l-2.476-0.465l-4.079-0.757
				c-3.322-0.583-6.643-1.166-9.965-1.952c-2.186-0.495-4.37-1.078-6.555-1.631c-2.419-0.642-4.807-1.281-7.255-1.836l-1.865-0.409
				c-1.748-0.409-3.496-0.816-5.245-1.312c-1.282-0.35-2.505-0.757-3.758-1.195c-0.729-0.232-1.428-0.524-2.505-0.989
				c-0.641-0.32-1.34-0.642-2.01-0.933c-1.281-0.612-2.505-1.37-3.671-2.186c-0.262-0.233-0.495-0.466-0.933-0.933
				c-0.174-0.263-0.35-0.525-0.466-0.816c-0.117-0.291-0.203-0.612-0.291-0.962c0-2.419,0.35-4.894,0.698-7.313l0.145-0.874
				l0.117-0.962c0.029-0.35,0.059-0.7,0.117-1.049c1.019-7.196,2.36-15.529,5.478-23.309c0.583-1.281,1.224-2.476,2.04-3.671
				c0.408-0.495,0.874-0.903,1.602-1.486c0-0.029,0.029-0.029,0.029-0.029s0,0-0.029,0c-0.009,0-0.02,0-0.029,0
				c0.01,0,0.022-0.002,0.034-0.003c0.03-0.028,0.084-0.055,0.112-0.083c0.029,0,0.029,0,0.029,0s0,0,0.029-0.029
				c0.524-0.059,1.019-0.118,1.544-0.118l0.787,0.029l0.962,0.088l2.01,0.174c1.283,0.145,2.564,0.262,3.847,0.379
				c2.476,0.204,4.924,0.465,7.342,0.757l3.35,0.465l3.438,0.466c0.525,0.117,1.107,0.174,2.01,0.233
				c2.478,0.291,4.983,0.524,7.459,0.729l6.672,0.582l6.643,0.553l4.458,0.409c3.002,0.292,6.002,0.553,8.974,0.903
				c2.885,0.525,5.769,1.107,8.624,1.778c2.681,0.583,5.653,0.933,9.324,1.078c2.098,0.087,4.196,0.117,6.264,0.117h1.574
				l1.574-0.029c1.398,0,2.796-0.117,4.167-0.232l6.322-0.612c0.797-0.063,1.457-0.413,1.949-0.995
				c0.125-0.199,0.217-0.42,0.264-0.665c0.072,0,0.124-0.02,0.188-0.025c0.015-0.03,0.031-0.06,0.046-0.09
				c1.428-0.147,2.855-0.263,4.283-0.379c1.457-0.118,2.885-0.233,4.312-0.379l1.428-0.146c2.71-0.263,5.362-0.525,8.041-0.904
				l3.176-0.379c1.981-0.262,3.962-0.524,5.972-0.757c1.019-0.117,2.04-0.203,3.088-0.291l1.544-0.145
				c1.34-0.117,2.681-0.292,4.021-0.466l1.457-0.204c1.865-0.262,3.758-0.553,5.624-0.874l3.438-0.553
				c2.389-0.32,4.779-0.553,7.167-0.612h0.816c1.806,0,3.643,0.147,5.448,0.351l1.281,0.203c0.787,0.175,1.486,0.379,2.478,0.787
				c0.125,0.204,0.241,0.401,0.356,0.602c-0.001-0.007-0.003-0.012-0.006-0.018c0.008,0.017,0.015,0.032,0.023,0.049
				c0.091,0.163,0.18,0.328,0.269,0.506c0.933,2.478,1.689,5.041,2.389,7.576c0.786,2.885,1.398,6.002,1.778,8.857
				c0.088,1.281,0.174,2.565,0.203,3.905C344.967,444.188,344.937,445.325,344.909,446.461z"/>
			<path d="M82.766,435.826c-0.816,0-1.574,0.553-1.748,1.312l-1.165,4.982l-1.574,6.614c-0.291,1.165-0.553,2.331-0.816,3.526
				l-0.233,1.019l-0.262,1.021l-0.058-0.029l-0.233,1.427c-0.233,1.048-0.262,1.895-0.262,2.856
				c-0.029,0.465,0.146,0.903,0.466,1.224c0.35,0.379,0.816,0.553,1.312,0.553c0.962,0,1.748-0.787,1.778-1.777v-0.933
				c0.379-2.04,0.844-4.05,1.31-6.061l0.466-1.893l1.224-5.186l1.544-6.411C84.718,437.107,84.164,436.118,82.766,435.826z"/>
			<path d="M90.924,441.945c-0.991,0-1.893,0.671-2.157,1.604c-0.582,2.214-1.165,4.429-1.719,6.643l-0.466,1.922
				c-0.233,0.903-0.466,1.836-0.698,2.767c-0.379,1.574-0.729,3.176-1.049,4.78c-0.204,0.961-0.409,1.951-0.553,2.943
				c-0.088,0.495-0.146,0.989-0.204,1.486h-0.088l0.117,1.019c0,0.379,0.088,0.757,0.291,1.107c0.233,0.524,0.436,0.874,0.874,1.136
				c0.321,0.174,0.641,0.263,0.991,0.263l0.465-0.059c0.991-0.291,1.574-1.281,1.312-3.031c0.409-2.01,0.933-4.02,1.428-6.031
				l0.671-2.622c0.933-3.729,1.893-7.459,2.855-11.187C93.285,443.548,92.614,442.323,90.924,441.945z"/>
			<path d="M96.314,451.734c-0.874,0-1.865,0.496-2.157,1.982c-0.67,3.584-1.312,7.167-1.865,10.752
				c-0.117,0.611-0.146,1.078,0.175,1.631c0.291,0.465,0.729,0.787,1.253,0.933l0.495,0.117v-0.059c0.845,0,1.836-0.553,1.981-1.486
				l1.049-5.622l1.049-5.624c0.145-0.611,0.058-1.136-0.204-1.631C97.83,452.288,97.364,451.909,96.314,451.734z"/>
			<path d="M106.191,464.176l-0.262-3.787c-0.088-1.049-0.816-1.778-1.777-1.778c-0.495,0-1.019,0.233-1.37,0.612
				c-0.291,0.32-0.466,0.757-0.408,1.166l0.262,3.787l0.262,3.788c0.088,1.048,0.816,1.777,1.778,1.777
				c0.495,0,1.019-0.232,1.369-0.611c0.291-0.321,0.466-0.757,0.409-1.166L106.191,464.176z"/>
			<path d="M111.465,120.568c0.321,0,0.612-0.087,0.816-0.262c4.836-3.526,9.819-6.789,14.772-10.081l3.06-2.01
				c0.845-0.553,1.107-1.631,0.641-2.478c-0.291-0.524-0.933-0.874-1.602-0.874c-0.35,0-0.612,0.059-0.874,0.233l-2.797,1.865
				c-5.041,3.322-10.081,6.672-14.976,10.257c-0.321,0.232-0.671,0.553-0.845,1.078c-0.117,0.495-0.029,0.989,0.204,1.369
				C110.183,120.19,110.824,120.568,111.465,120.568z"/>
			<path d="M99.986,147.111c0.495,0,0.932-0.174,1.195-0.524c2.243-2.593,4.603-5.071,6.993-7.546l2.098-2.186
				c3.002-3.148,6.061-6.236,9.091-9.324l2.273-2.361c0.32-0.32,0.524-0.786,0.524-1.253c0-0.495-0.174-0.933-0.524-1.253
				c-0.321-0.32-0.757-0.495-1.253-0.495c-0.466,0-0.933,0.174-1.253,0.495l-2.243,2.273c-2.972,3.002-5.943,6.001-8.857,9.062
				l-2.273,2.36c-2.419,2.534-4.807,5.041-7.08,7.693c-0.321,0.408-0.525,0.757-0.525,1.253c0,0.465,0.174,0.962,0.525,1.282
				C98.995,146.907,99.49,147.111,99.986,147.111z"/>
			<path d="M96.228,165.03c0.466,0,0.933-0.174,1.253-0.524c4.604-4.574,9.557-8.945,14.336-13.2l2.767-2.446
				c0.35-0.292,0.553-0.757,0.582-1.254c0.029-0.553-0.203-1.107-0.582-1.486c-0.35-0.378-0.816-0.553-1.34-0.553
				c-0.495,0-1.019,0.204-1.398,0.553l-9.965,8.945c-2.419,2.185-4.691,4.547-6.905,6.935c-0.7,0.729-0.7,1.836,0,2.505
				C95.295,164.855,95.731,165.03,96.228,165.03z"/>
			<path d="M88.127,191.399c0.641,0,1.253-0.35,1.602-0.874c0.671-1.078,1.34-2.098,2.098-3.147l0.641-0.875l0.903-1.194
				l0.671-0.816c1.398-1.718,2.797-3.438,4.224-5.098l2.36-2.711c2.098-2.476,4.224-4.924,6.351-7.372
				c0.729-0.787,0.729-1.922,0-2.622c-0.35-0.35-0.845-0.553-1.369-0.553c-0.525,0-0.962,0.174-1.253,0.553
				c-2.564,2.914-5.099,5.857-7.634,8.829l-2.069,2.389c-0.409,0.436-0.786,0.933-1.165,1.427l-0.466,0.612l-1.136,1.398
				l-1.136,1.428c-1.486,1.893-2.855,3.875-4.137,5.915c-0.233,0.408-0.291,0.874-0.174,1.339c0.117,0.496,0.436,0.904,0.816,1.136
				C87.544,191.312,87.837,191.399,88.127,191.399z"/>
			<path d="M105.784,194.75l0.962-1.312c0.263-0.379,0.35-0.874,0.263-1.37c-0.146-0.553-0.495-1.078-0.962-1.369
				c-0.262-0.146-0.524-0.233-0.991-0.233c-0.145,0-0.35,0.029-0.553,0.029c-0.583,0.174-0.904,0.524-1.195,0.903l-3.847,5.362
				l-3.846,5.362c-0.962,1.282-1.836,2.622-2.71,3.992c-1.107,1.689-2.04,3.496-2.943,5.332c-0.204,0.408-0.409,0.844-0.583,1.281
				l-0.436,0.962c-0.553,1.281-1.107,2.593-1.633,3.875c-0.204,0.465-0.029,1.165,0.204,1.631c0.291,0.465,0.757,0.815,1.282,0.962
				l0.503,0.132c0.017,0,0.034,0.001,0.051,0.001v-0.075c0.379,0,0.729-0.087,1.049-0.291c0.553-0.291,0.757-0.728,1.253-1.895
				c0.612-1.486,1.283-2.972,1.952-4.458c0.816-1.865,1.836-3.612,2.885-5.362c0.816-1.369,1.719-2.739,2.652-4.05
				C101.326,201.014,103.569,197.868,105.784,194.75z"/>
			<path d="M372.269,454.327l-0.263-3.058c-0.029-0.438-0.146-0.874-0.524-1.253c-0.35-0.35-0.787-0.524-1.253-0.524
				c-0.495,0-1.019,0.232-1.369,0.611c-0.291,0.35-0.466,0.757-0.409,1.166l0.233,3.058c0.233,2.914,0.466,5.857,0.757,8.771
				c0.029,0.524,0.174,0.933,0.495,1.253c0.321,0.35,0.816,0.524,1.283,0.524c0.466,0,0.991-0.232,1.369-0.611
				c0.291-0.35,0.466-0.757,0.409-1.166C372.734,460.185,372.502,457.271,372.269,454.327z"/>
			<path d="M385.962,443.052c-0.962,0-1.748,0.787-1.777,1.778l-0.146,4.662c-0.088,3.146-0.145,6.293-0.204,9.44
				c-0.029,0.465,0.146,0.903,0.466,1.224c0.35,0.379,0.816,0.553,1.312,0.553c0.962,0,1.748-0.787,1.778-1.777
				c0.058-3.147,0.146-6.294,0.233-9.44l0.117-4.662c0.029-0.438-0.146-0.875-0.495-1.225
				C386.923,443.256,386.428,443.052,385.962,443.052z"/>
			<path d="M397.966,443.344c-0.466,0-0.962,0.204-1.281,0.553c-0.35,0.35-0.525,0.787-0.495,1.224l0.088,3.264
				c0.058,2.156,0.117,4.282,0.174,6.41c0,0.991,0.787,1.777,1.778,1.777c0.962,0,1.778-0.815,1.778-1.777
				c-0.059-3.205-0.146-6.439-0.233-9.674C399.743,444.13,398.957,443.344,397.966,443.344z"/>
			<path d="M225.827,441.042c2.214-1.486,4.458-2.943,7.313-4.37c0.495-0.204,0.816-0.379,1.078-0.816
				c0.233-0.465,0.291-0.962,0.174-1.37c-0.117-0.436-0.409-0.844-0.816-1.107c-0.204-0.117-0.466-0.203-0.903-0.203
				c-0.117,0-0.291,0.029-0.466,0.029c-0.845,0.32-1.633,0.67-2.39,1.107c-0.729,0.408-1.457,0.844-2.155,1.28
				c-1.107,0.671-2.186,1.37-3.264,2.069c-2.243,1.428-4.429,2.972-6.614,4.516l-1.049,0.729
				c-5.974,4.109-11.946,8.188-17.948,12.267c-0.844,0.583-1.136,1.631-0.641,2.448c0.291,0.524,0.933,0.903,1.574,0.903
				c0.321,0,0.612-0.088,0.874-0.263c5.798-3.933,11.596-7.866,17.366-11.858C220.582,444.597,223.175,442.82,225.827,441.042z"/>
			<path d="M252.371,438.099c-0.291,0-0.583,0.059-0.874,0.233c-1.136,0.729-2.243,1.545-3.817,2.739l-2.04,1.572l-2.04,1.574
				c-2.36,1.836-4.75,3.671-7.138,5.477c-2.71,2.04-5.419,4.079-8.158,6.061l-2.826,2.069c-3.175,2.301-6.322,4.603-9.527,6.904
				c-0.436,0.321-0.671,0.642-0.816,1.078c-0.117,0.409-0.058,0.903,0.174,1.37c0.321,0.524,0.991,0.903,1.633,0.903
				c0.32,0,0.612-0.087,0.845-0.263c6.643-4.807,13.315-9.673,19.899-14.625c2.478-1.865,4.924-3.729,7.343-5.624l1.981-1.516
				l1.952-1.486c1.398-1.078,2.855-2.156,4.371-3.117c0.844-0.553,1.107-1.631,0.641-2.478
				C253.623,438.449,252.983,438.099,252.371,438.099z"/>
			<path d="M299.689,439.09l7.022-6.061c0.321-0.262,0.495-0.698,0.524-1.136c0-0.523-0.174-1.048-0.524-1.369
				c-0.32-0.35-0.816-0.524-1.281-0.524s-0.874,0.145-1.253,0.524c-3.409,2.913-6.819,5.856-10.227,8.827l-1.952,1.66
				c-1.631,1.37-3.264,2.767-4.865,4.224l-4.079,3.7l-1.019,0.904c-0.642,0.583-1.312,1.194-1.952,1.806
				c-2.885,2.767-5.769,5.536-8.538,8.42c-0.7,0.7-0.7,1.836,0,2.506c0.32,0.32,0.786,0.524,1.282,0.524
				c0.466,0,0.903-0.174,1.224-0.524c2.681-2.767,5.419-5.419,8.187-8.071c1.633-1.544,3.293-3.029,4.983-4.515l2.186-1.981
				c1.486-1.37,3.031-2.652,4.545-3.964l1.981-1.719L299.689,439.09z"/>
			<path d="M326.931,430.029c-0.525,0-1.049,0.204-1.457,0.583l-3.964,3.641c-4.167,3.875-8.333,7.721-12.5,11.625l-1.923,1.777
				c-1.66,1.545-3.322,3.089-4.924,4.662c-2.564,2.535-5.127,5.071-7.634,7.664c-0.7,0.699-0.7,1.806,0,2.505
				c0.32,0.351,0.757,0.524,1.253,0.524c0.466,0,0.903-0.173,1.253-0.524c3.671-3.496,7.4-6.934,11.13-10.372l3.7-3.408
				c5.507-5.071,10.985-10.14,16.462-15.239c0.379-0.35,0.612-0.845,0.612-1.398c0-0.554-0.233-1.079-0.612-1.457
				C327.893,430.116,327.31,430.029,326.931,430.029z"/>
			<path d="M196.515,272.989l0.583-0.642l0.786-0.844l0.787-0.875l5.827-6.264c0.698-0.757,0.698-1.865,0-2.534
				c-0.35-0.35-0.845-0.524-1.281-0.524c-0.495,0-0.933,0.174-1.224,0.524c-2.185,2.331-4.371,4.691-6.526,7.051l-0.698,0.728
				c-0.991,1.078-2.01,2.156-2.943,3.322c-0.438,0.495-0.671,0.962-0.816,1.545c-0.058,0.32-0.058,0.641,0,0.933
				c0.146,0.495,0.466,0.786,0.787,1.107c0.32,0.349,0.756,0.552,1.251,0.552c0.466,0,0.933-0.204,1.253-0.553
				c0.436-0.438,0.612-1.021,0.495-1.66C195.349,274.211,195.932,273.599,196.515,272.989z"/>
			<path d="M198.554,283.388c0.786-1.254,1.574-2.448,2.419-3.673c0.233-0.378,0.524-0.756,1.107-1.486
				c0.35-0.495,0.698-0.989,1.078-1.457c1.545-1.865,3.088-3.7,4.662-5.536c0.379-0.379,0.524-0.787,0.524-1.253
				c0-0.495-0.174-0.962-0.524-1.253c-0.321-0.35-0.757-0.524-1.281-0.524c-0.495,0-0.933,0.174-1.224,0.524
				c-1.049,1.194-2.069,2.419-3.088,3.641l-0.642,0.761c-0.553,0.642-1.107,1.282-1.602,1.951l-1.37,1.807l-0.757,0.989
				l-0.525,0.816l-0.903,1.312l-0.991,1.545c-0.233,0.408-0.291,0.874-0.174,1.339c0.117,0.496,0.436,0.903,0.816,1.136
				c0.291,0.146,0.582,0.233,0.903,0.233C197.621,284.261,198.204,283.942,198.554,283.388z"/>
			<path d="M204.444,286.537l3.555-4.547c0.35-0.409,0.525-0.757,0.525-1.282c0-0.465-0.175-0.903-0.525-1.253
				c-0.35-0.35-0.79-0.524-1.256-0.524c-0.409,0-0.962,0.145-1.253,0.524l-1.893,2.419l-1.923,2.446
				c-1.778,2.273-3.379,4.983-4.865,8.334c-0.204,0.524-0.291,0.903-0.174,1.369c0.117,0.438,0.408,0.845,0.816,1.107
				c0.291,0.147,0.612,0.233,0.933,0.233l0.466-0.059c0.408-0.117,0.903-0.436,1.078-0.815c0.438-1.021,0.933-1.982,1.428-2.943
				C202.259,289.8,203.308,288.168,204.444,286.537z"/>
			<path d="M208.402,290.701l-1.98,2.973l-2.01,2.972l-0.845,1.312l-0.845,1.312c-0.874,1.427-1.574,3.031-2.302,5.216
				c-0.117,0.436-0.058,0.903,0.174,1.339c0.233,0.409,0.641,0.73,1.107,0.875l0.436,0.117v-0.06c0.787,0,1.516-0.553,1.778-1.339
				c0.146-0.496,0.291-0.991,0.466-1.486c0.262-0.642,0.553-1.281,0.903-1.865c0.35-0.642,0.728-1.281,1.136-1.895
				c0.466-0.757,0.962-1.486,1.457-2.214l0.787-1.224c0.933-1.399,1.865-2.826,2.826-4.197c0.233-0.35,0.32-0.815,0.203-1.253
				c-0.117-0.524-0.436-0.962-0.845-1.224c-0.291-0.175-0.582-0.233-0.874-0.233C209.393,289.828,208.81,290.147,208.402,290.701z"
				/>
			<path d="M213.794,330.241l0.466,0.117v-0.059c0.816,0,1.515-0.553,1.748-1.339c1.486-5.449,3.06-10.898,4.633-16.317
				c0.117-0.438,0.058-0.933-0.174-1.34c-0.233-0.438-0.642-0.729-1.574-0.903c-0.816,0-1.516,0.524-1.719,1.312
				c-1.574,5.418-3.147,10.867-4.633,16.316c-0.117,0.438-0.058,0.934,0.174,1.34C212.948,329.804,213.327,330.096,213.794,330.241z
				"/>
			<path d="M224.225,328.114l0.436,0.118v-0.059c0.787,0,1.486-0.553,1.748-1.34c0.379-1.048,0.757-2.069,1.166-3.088l1.224-2.681
				l0.438-0.933c0.204-0.495,0.291-0.903,0.174-1.398c-0.117-0.438-0.436-0.844-0.816-1.078c-0.263-0.147-0.612-0.204-0.933-0.204
				c-0.553,0-1.224,0.204-1.545,0.844l-1.019,2.214l-0.698,1.516c-0.583,1.253-1.019,2.564-1.457,3.875
				c-0.117,0.409-0.088,0.874,0.145,1.281C223.322,327.648,223.729,327.968,224.225,328.114z"/>
			<path d="M337.595,105.883c0.145,0.757,0.495,1.486,0.962,2.476c0.35,0.671,1.049,1.428,1.923,2.361
				c0.408,0.465,0.932,0.874,1.893,1.573c0.874,0.67,1.836,1.136,3.031,1.66c0.845,0.35,1.69,0.524,2.478,0.642
				c0.495,0.087,0.962,0.146,1.457,0.146c1.165,0,2.36-0.233,3.496-0.466c0.495-0.087,0.991-0.204,1.486-0.35
				c1.136-0.35,1.981-0.786,2.943-1.312c0.436-0.262,0.904-0.67,1.516-1.224c0.436-0.379,0.874-0.874,1.312-1.486
				c0.466-0.583,0.845-1.195,1.195-1.895c0.35-0.641,0.583-1.398,0.991-2.476c0.262-0.787,0.35-1.749,0.495-3.09
				c0.088-0.553,0.088-1.136,0.058-2.127c0-1.166-0.204-2.389-0.553-3.875c-0.233-0.845-0.582-1.66-1.019-2.681
				c-0.233-0.524-0.641-0.989-1.398-1.895c-0.408-0.262-0.757-0.553-1.107-0.844c-0.32-0.263-0.671-0.495-1.049-0.698
				c-0.524-0.321-1.165-0.553-2.156-0.903c-0.787-0.292-1.632-0.496-2.448-0.671l-0.991-0.174c-0.304,0-0.585,0.067-0.94,0.16
				c-0.027,0.014-0.053,0.028-0.08,0.044c0-0.01,0-0.017-0.001-0.023c-0.028,0.008-0.057,0.015-0.085,0.023
				c-0.233-0.263-0.7-0.524-1.253-0.524c-0.582,0.059-1.165,0.117-1.748,0.204v-0.088l-1.224,0.292
				c-0.816,0.146-1.574,0.379-2.302,0.67c-0.874,0.35-1.574,0.874-2.476,1.516c-0.729,0.495-1.312,1.136-2.069,1.981
				c-1.078,1.253-1.69,2.826-2.273,4.488c-0.32,0.903-0.495,1.836-0.524,2.739h-0.088v1.34c0,0.903,0.058,1.806,0.174,2.68
				C337.304,104.717,337.391,105.3,337.595,105.883z M340.655,100.289c0,0,0.203-1.021,0.203-1.048
				c0.088-0.438,0.233-0.875,0.495-1.34c0.027-0.081,0.054-0.165,0.082-0.268c0.012-0.029,0.024-0.059,0.035-0.081
				c0-0.023,0.017-0.028,0.025-0.044c-0.003,0.008-0.01,0.015-0.025,0.015c0.029-0.029,0.029-0.029,0.029-0.029
				c0-0.029,0.029-0.088,0.029-0.146c0,0.029,0,0.058,0,0.087l0.204-0.67c0.262-0.553,0.583-1.078,0.933-1.602
				c0.409-0.466,0.816-0.875,1.486-1.458v0.029h0.088l-0.058-0.029v-0.028c0.466-0.321,0.962-0.612,1.457-0.903l0.903-0.351
				c0.641-0.174,1.311-0.32,2.01-0.436c0.379-0.059,0.787-0.118,1.195-0.147c0.379-0.028,0.7-0.117,0.962-0.262l0.029-0.029
				c0.029,0,0.029,0.029,0.058,0.029c0.233,0.233,0.495,0.409,0.816,0.495c1.312,0.321,2.564,0.671,3.817,1.136l0.816,0.379
				c0.583,0.379,1.049,0.787,1.428,1.224c0.32,0.438,0.582,0.904,0.582,1.021c0.145,0.379,0.292,0.757,0.409,1.136
				c0.204,0.641,0.379,1.281,0.495,1.981c0.088,0.67,0.117,1.282,0.117,1.923c0.029,0.903-0.059,1.748-0.204,2.622
				c-0.174,0.786-0.379,1.486-0.641,2.185c-0.175,0.409-0.379,0.815-0.583,1.194c-0.174,0.321-0.379,0.612-0.816,1.166
				c-0.438,0.466-0.845,0.903-0.962,1.021c-0.495,0.408-1.048,0.756-1.719,1.078c-0.583,0.204-1.136,0.379-1.719,0.524
				c-0.495,0.145-0.991,0.263-2.157,0.438c-0.379,0.028-0.757,0.028-1.602,0.087c-0.671-0.087-1.34-0.262-1.952-0.465
				c-0.671-0.292-1.312-0.612-1.952-0.991c-0.466-0.291-0.962-0.612-1.544-1.107c-0.438-0.379-0.787-0.787-1.281-1.34
				c-0.029-0.029-0.029-0.059-0.029-0.059c-0.35-0.465-0.641-0.989-0.816-1.515c-0.233-0.642-0.409-1.282-0.553-1.952
				c-0.029-0.35-0.059-0.698-0.117-1.019C340.596,101.92,340.596,101.134,340.655,100.289z"/>
			<path d="M127.607,228.607c-0.816,0-1.544,0.204-2.564,0.524c-1.078,0.35-2.011,1.049-2.797,1.631
				c-0.816,0.583-1.486,1.34-2.098,2.098c-0.991,1.195-1.66,2.681-2.098,4.691c-0.204,0.787-0.204,1.631-0.204,2.36
				c-0.029,1.136,0.321,2.214,0.757,3.38c0.525,1.398,1.312,2.767,2.331,3.991c0.583,0.671,1.166,1.253,1.836,1.836
				c0.933,0.816,2.011,1.399,2.943,1.865c0.757,0.35,1.515,0.612,2.302,0.845c0.582,0.174,1.282,0.233,2.243,0.291l0.351,0.109
				c0.009,0,0.02,0.001,0.028,0.001v-0.08c0.438,0,0.874-0.059,1.895-0.204c0.641-0.146,1.282-0.32,1.895-0.553l1.281-0.495
				c0.729-0.32,1.427-0.642,2.098-0.991c0.933-0.524,1.486-1.078,2.36-1.951c0.32-0.321,0.582-0.729,1.107-1.545
				c0.524-0.903,0.933-1.952,1.34-2.972c0.174-0.495,0.321-1.019,0.641-2.127c0.379-1.545,0.379-3.264-0.088-5.363l0.088-0.028
				l-0.291-0.73l-0.466-1.107c-0.35-0.611-0.698-1.165-1.136-1.689l-0.671-0.729c-0.436-0.379-0.903-0.757-1.369-1.136
				c-0.466-0.292-0.874-0.496-1.312-0.671c-0.671-0.291-1.253-0.495-1.895-0.553c-0.698-0.174-1.427-0.232-2.243-0.232
				c-0.933,0-1.865,0.087-2.856,0.203c-0.203-0.174-0.436-0.291-0.728-0.35C129.501,228.811,128.743,228.723,127.607,228.607z
				 M131.367,232.803c0.757-0.088,1.544-0.147,2.302-0.147c0.495,0,0.991,0.029,1.486,0.088c0.698,0.117,1.34,0.291,1.981,0.611
				c0.495,0.321,0.962,0.757,1.428,1.254c0.262,0.35,0.553,0.757,0.786,1.253c0.233,0.583,0.379,1.136,0.553,1.777
				c0.029,0.7,0.029,1.34,0,2.069l-0.408,1.66c-0.174,0.7-0.466,1.37-0.787,2.157c-0.35,0.698-0.698,1.31-1.136,1.951
				c0,0.029-0.757,0.787-0.787,0.787c-0.466,0.32-0.933,0.612-1.427,0.874c-0.495,0.233-0.991,0.466-1.224,0.553
				c-0.525,0.204-1.049,0.379-1.574,0.524c-0.553,0.204-1.107,0.32-1.37,0.32c-0.029,0-0.058,0-0.058,0l-0.204-0.028
				c-0.088,0.028-0.174,0.028-0.262,0.028c0.059,0,0.145-0.028,0.204-0.028l-0.204-0.029c-0.291,0.029-0.583,0.029-0.874,0
				c-0.059,0-0.088,0-0.146-0.029c-0.009,0-0.02,0-0.029,0c-0.088-0.029-0.145-0.029-0.233-0.059c-0.029,0-0.029,0-0.058,0
				c-0.146,0-0.35-0.028-0.379-0.028c-0.641-0.175-1.253-0.409-1.398-0.496c-0.816-0.409-1.574-0.816-2.419-1.398
				c-0.553-0.466-0.991-0.933-1.457-1.516c-0.438-0.642-0.787-1.281-1.37-2.652c-0.203-0.583-0.408-1.136-0.495-1.777
				c-0.029-0.409,0-0.816,0.204-1.895c0.145-0.641,0.35-1.282,0.408-1.37c0.204-0.524,0.495-1.019,0.874-1.572
				c0.466-0.553,0.991-1.078,1.107-1.225c0.495-0.436,1.078-0.786,1.952-1.165c0.058,0,0.088-0.029,0.145-0.059
				c0.174,0.088,0.35,0.117,0.729,0.117c0.145,0,0.35,0,0.583-0.028l0.786-0.118l1.107-0.087
				C130.055,233.123,130.346,233.064,131.367,232.803z"/>
			<path d="M156.307,138.283c0.321,0.611,0.612,1.048,0.933,1.427l-0.058,0.059l0.728,0.815c0.466,0.525,0.962,0.991,1.486,1.428
				c0.612,0.553,1.34,0.933,2.01,1.253c0.671,0.35,1.398,0.524,2.389,0.787c0.525,0.117,1.107,0.204,1.69,0.262l0.729,0.088
				c0.495,0.058,1.019,0.087,1.516,0.087l0.903-0.029c1.516-0.058,2.943-0.698,4.254-1.369c0.641-0.379,1.195-0.787,1.778-1.281
				c0.612-0.466,1.136-0.933,1.923-1.719c0.495-0.524,0.991-1.048,1.836-2.185c0.379-0.553,0.698-1.136,0.962-1.749
				c0.729-1.486,0.729-3.293,0.729-4.894c0-0.875-0.174-1.749-0.35-2.593c-0.117-0.671-0.466-1.399-0.816-2.157
				c-0.612-1.312-1.631-2.448-2.535-3.379c-0.408-0.409-0.903-0.787-1.69-1.34c-0.408-0.321-1.048-0.553-2.214-1.021
				c-0.757-0.291-1.515-0.409-2.448-0.409c-1.078,0-2.157,0.175-3.176,0.351c-0.786,0.117-1.516,0.291-2.243,0.495
				c-0.029,0.029-0.029,0.029-0.029,0.029c-0.029,0-0.029-0.029-0.059-0.029c-0.35-0.291-0.786-0.466-1.224-0.466
				c-0.32,0-0.612,0.088-0.903,0.233c-0.698,0.321-1.369,0.7-2.01,1.166c-0.7,0.436-1.312,0.962-2.157,1.69l-0.058-0.059
				l-0.671,0.845l-0.466,0.611l-0.495,0.612c-0.553,0.815-1.107,1.631-1.427,2.506c-0.291,0.553-0.438,1.135-0.466,1.718
				l-0.146,1.021c0,0.698,0.029,1.398,0.146,2.097C154.85,135.049,155.637,136.768,156.307,138.283z M158.171,130.504
				c0.029-0.118,0.088-0.263,0.145-0.409c0.058-0.146,0.117-0.291,0.174-0.466c0.32-0.641,0.67-1.28,1.078-1.865
				c0-0.028,0.466-0.611,0.466-0.611c0.262-0.291,0.524-0.583,0.874-0.816c0.203-0.174,0.408-0.35,0.612-0.524
				c0.058,0,0.088,0.029,0.146,0.029c0.088,0.029,0.174,0.059,0.262,0.059c0.059-0.029,0.145-0.029,0.204-0.059
				c0.291,0,0.553-0.087,0.933-0.233l0.816-0.35c0.612-0.233,1.253-0.438,1.923-0.612c0.933-0.291,1.865-0.465,3.088-0.67
				c0.321-0.029,0.641-0.029,0.962-0.029l0.728,0.029c0.641,0.117,1.312,0.35,1.516,0.495c0.32,0.147,0.641,0.32,0.874,0.583
				c0.088,0.029,0.146,0.088,0.233,0.145c-0.029-0.029-0.059-0.029-0.059-0.058c0.059,0.058,0.117,0.087,0.175,0.145
				c0.058,0.029,0.117,0.059,0.117,0.059c0.029,0,0.029,0,0.029,0c0.029,0,0.379,0.291,0.409,0.291
				c0.35,0.35,0.698,0.729,1.019,1.166c0.058,0.117,0.146,0.232,0.203,0.35c0.029,0.029,0.029,0.029,0.029,0.029
				c0.321,0.524,0.641,1.078,0.991,1.777l0.321,1.225c0.029,0.028,0.117,1.078,0.117,1.078c0.029,0.787,0,1.572-0.117,2.36
				c-0.117,0.32-0.233,0.67-0.321,1.019l-0.408,0.816l-0.583,0.903c-0.786,0.903-1.631,1.778-2.535,2.564l-0.582,0.466
				c-0.525,0.379-1.136,0.729-2.273,1.224c-0.379,0.118-0.757,0.233-1.66,0.292c-0.786,0-1.544-0.059-2.564-0.174l-0.757-0.118
				c-0.553-0.087-1.107-0.262-1.719-0.524c-0.436-0.174-0.874-0.438-1.836-1.224c-0.524-0.496-0.991-1.049-1.136-1.312
				c-0.438-0.642-0.787-1.281-1.078-1.952l-0.291-0.844c-0.203-0.553-0.35-1.136-0.495-1.719c-0.059-0.32-0.088-0.612-0.088-0.903
				C158.054,131.552,158.085,131.058,158.171,130.504z"/>
			<path d="M370.203,237.581l-0.062-0.029l-0.729,1.078c-0.409,0.612-0.698,1.136-1.107,2.127c-0.262,0.642-0.409,1.283-0.466,2.041
				c-0.174,1.135,0,2.156,0.233,3.322c0.117,0.728,0.495,1.544,0.933,2.505c0.379,0.787,0.933,1.516,1.516,2.243
				c0.7,0.844,1.398,1.66,2.186,2.448c0.757,0.786,1.748,1.486,3.059,2.214c0.757,0.409,1.66,0.729,2.71,1.078
				c0.641,0.204,1.34,0.291,2.04,0.379l0.816,0.087c0.379,0.059,0.757,0.088,1.107,0.088c0.612,0,1.253-0.059,2.157-0.146
				c0.962-0.059,1.952-0.263,3.031-0.612c0.7-0.233,1.37-0.583,2.011-0.933c0.612-0.35,1.253-0.815,1.777-1.312
				c0.671-0.612,1.283-1.224,1.865-1.895c0.671-0.786,1.195-1.689,1.633-2.534c0.729-1.427,1.136-2.943,1.427-4.283l0.059,0.029
				l0.146-1.34c0.088-0.553,0.145-1.107,0.204-1.66c0.058-0.641,0.029-1.369-0.117-2.185c-0.174-1.282-0.612-2.564-1.427-4.05
				c-0.174-0.292-0.379-0.553-0.787-1.166l-0.553-0.729c-0.436-0.553-0.903-1.048-1.778-1.806c-0.466-0.409-0.991-0.729-1.544-0.933
				c-0.35-0.118-0.698-0.263-1.049-0.409c-0.757-0.204-1.486-0.35-2.272-0.465c-0.7-0.174-1.516-0.233-2.419-0.233
				c-1.34,0-2.681,0.174-4.545,0.438c-0.291,0.028-0.612,0.232-0.874,0.553c-0.816,0.233-1.574,0.496-2.39,0.787
				c-1.748,0.757-3.293,1.923-4.691,3.06C371.544,235.948,370.844,236.707,370.203,237.581z M372.035,241.281
				c0.262-0.525,0.583-0.991,0.874-1.254c0.088-0.146,0.204-0.291,0.321-0.436l0.641-0.845c0.495-0.495,0.991-0.933,1.516-1.369
				l0.962-0.642c0.583-0.379,1.166-0.729,1.836-1.078l0.729-0.291c0.67-0.204,1.34-0.409,2.04-0.583l1.602-0.409l0.903-0.233
				l0.438,0.059l0.436-0.088h0.553c0.35,0,0.729,0.029,1.049,0.118c0.117,0.029,0.203,0.029,0.32,0.029h-0.029l0.176,0.028h0.029
				l0.991,0.088c0.641,0.146,1.224,0.32,1.806,0.553l0.874,0.583c0.379,0.35,0.729,0.698,1.048,1.136
				c0.233,0.291,0.409,0.553,0.7,1.019c0.291,0.438,0.553,0.933,0.757,1.399c0.145,0.35,0.262,0.698,0.379,1.253
				c0,0.007,0,0.015,0,0.029c0.058,0.262,0.146,0.583,0.203,0.989c0.059,0.642,0.029,1.281-0.088,1.923
				c-0.058,0.409-0.146,0.815-0.233,1.224c-0.204,1.078-0.525,2.069-0.7,2.622c-0.233,0.524-0.466,1.048-0.729,1.545
				c-0.204,0.379-0.436,0.729-0.698,1.107c-0.553,0.67-1.136,1.253-1.778,1.806c-0.553,0.409-1.078,0.757-1.865,1.195
				c-0.379,0.146-0.786,0.291-1.195,0.409c-0.436,0.145-0.933,0.232-1.398,0.291c-0.641,0.087-1.312,0.117-1.981,0.117
				c-0.67-0.029-1.369-0.087-2.069-0.174c-0.671-0.174-1.312-0.35-1.923-0.553c-0.321-0.146-0.641-0.291-0.962-0.409
				c-0.524-0.262-1.019-0.582-1.66-1.078v0.029c0,0-0.029-0.059-0.058-0.059c-0.495-0.408-0.962-0.844-1.398-1.312
				c-0.409-0.436-0.816-0.932-1.312-1.602l-0.466-0.67c-0.321-0.495-0.612-1.049-0.845-1.545c-0.262-0.67-0.436-1.398-0.466-1.66
				c-0.029-0.409-0.029-0.816-0.029-1.048C371.365,242.97,371.51,242.418,372.035,241.281z"/>
		</g>
	</g>
</g>
<g>
</g>
<g>
</g>
<g>
</g>
<g>
</g>
<g>
</g>
<g>
</g>
<g>
</g>
<g>
</g>
<g>
</g>
<g>
</g>
<g>
</g>
<g>
</g>
<g>
</g>
<g>
</g>
<g>
</g>
</svg>
