<?xml version="1.0" encoding="iso-8859-1"?>
<!-- Generator: Adobe Illustrator 19.0.0, SVG Export Plug-In . SVG Version: 6.00 Build 0)  -->
<svg version="1.1" id="Layer_1" xmlns="http://www.w3.org/2000/svg" xmlns:xlink="http://www.w3.org/1999/xlink" x="0px" y="0px"
	 viewBox="0 0 512.004 512.004" style="enable-background:new 0 0 512.004 512.004;" xml:space="preserve">
<g>
	<g>
		<g>
			<path d="M509.348,52.864c-1.151-3.683-2.388-7.308-3.626-10.962c-1.841-5.351-3.797-10.731-6.961-15.478
				c-2.445-3.683-5.639-6.704-9.149-9.35c-3.77-2.849-8.372-4.056-13.004-4.344c-0.26,0-0.519,0-0.778,0
				c-1.755,0-3.567,0.315-5.294,0.603c-2.243,0.374-4.373,1.324-6.358,2.387c-4,2.1-6.905,6.244-8.689,10.242
				c-2.215,4.919-2.158,10.128-1.324,15.335c0.346,2.244,0.72,4.46,1.065,6.675c0.373,3.251,0.747,6.503,0.747,9.782
				c0.059,4.661,0.029,9.293-0.46,13.925c-0.661,4.258-1.725,8.344-3.336,12.372c-2.014,4.431-4.374,8.803-7.223,12.774
				c-1.237,1.525-2.589,2.906-4.085,4.172c-1.841,1.352-3.77,2.474-5.812,3.452c-1.237,0.432-2.474,0.777-3.74,1.035
				c-0.805,0.058-1.553,0.086-2.359,0.058c-0.777-0.144-1.524-0.346-2.273-0.604c-0.288-0.144-0.576-0.317-0.863-0.489
				c-0.23-0.23-0.46-0.46-0.691-0.72c-0.46-0.69-0.834-1.381-1.18-2.1c-0.72-2.043-1.209-4.085-1.554-6.214
				c-0.547-5.495-0.459-10.961-0.403-16.515c0.029-6.675-0.575-13.839-3.395-20.025c-3.021-6.646-9.091-11.221-16.226-12.602
				c-7.221-1.381-14.874,0.72-20.63,5.207c-2.79,2.158-4.947,4.863-6.704,7.913c-2.243,3.913-3.193,8.372-3.74,12.803
				c-0.691,5.524,0.346,11.105,1.209,16.572c0.518,3.337,1.209,6.646,1.698,9.983c0.346,3.54,0.346,7.049-0.058,10.617
				c-0.018,0.099-0.038,0.199-0.058,0.298c-0.001,0.196-0.029,0.366-0.058,0.536c0.027-0.166,0.029-0.334,0.055-0.526
				c-0.394,2.049-0.897,4.046-1.609,5.992c-0.863,1.812-1.842,3.511-2.993,5.151c-1.237,1.439-2.589,2.733-4.056,3.971
				c-2.072,1.497-4.23,2.762-6.56,3.827c-1.122,0.431-2.273,0.777-3.482,0.978c-0.637,0-1.267-0.051-1.896-0.087
				c-0.566-0.604-1.077-1.26-1.671-1.841c-3.021-2.963-6.128-5.812-9.265-8.631c-3.251-2.906-6.704-5.495-10.242-8.027
				c-3.164-2.302-6.732-4.114-10.128-6.042c-3.251-1.87-6.415-3.855-9.696-5.726c-3.395-1.956-6.818-3.797-10.357-5.437
				c-3.569-1.669-7.164-3.223-10.732-4.863c-3.797-1.727-7.681-3.337-11.652-4.661c-3.452-1.151-7.019-2.244-10.617-2.791
				c-5.697-0.863-11.422-1.294-17.176-1.294c-2.387,0-4.776,0.058-7.164,0.23c-4.171,0.259-8.344,0.95-12.456,1.583
				c-3.884,0.576-7.711,1.352-11.509,2.302c-8.026,2.014-15.679,5.236-23.304,8.458c-0.805,0.346-1.612,0.691-2.416,1.064
				c-1.035,0.431-1.755,1.439-2.072,2.561c-7.193,3.164-14.126,6.876-20.341,11.795c-3.05,2.416-6.099,4.863-9.063,7.394
				c-1.438,1.267-2.905,2.532-4.344,3.797c-1.554,1.41-3.021,2.906-4.488,4.403c-2.286,2.297-4.388,4.802-6.458,7.33
				c-1.538,0.599-3.06,1.219-4.677,1.617c-0.346,0-0.72,0-1.065-0.029c-1.495-0.288-2.876-0.691-4.286-1.238
				c-1.18-0.547-2.215-1.18-3.251-1.928c-1.035-0.95-2.043-1.928-2.962-2.992c-0.836-1.208-1.497-2.474-2.13-3.768
				c-0.719-1.956-1.267-3.942-1.612-6.013c-0.23-2.561-0.143-5.035,0.172-7.538c0.661-4.23,1.698-8.487,3.107-12.515
				c0.978-2.733,1.984-5.379,3.106-8.056c-0.058,0.087-0.087,0.144-0.116,0.201c0.042-0.083,0.082-0.168,0.125-0.262
				c-0.007,0.021-0.01,0.04-0.01,0.06c0.027-0.069,0.055-0.146,0.086-0.224c-0.009,0.017-0.018,0.036-0.028,0.052
				c0.086-0.23,0.201-0.46,0.288-0.72c-0.015,0.07-0.035,0.14-0.06,0.206c0.894-2.091,1.812-4.156,2.678-6.247
				c2.186-5.178,3.481-10.617,3.74-16.255c0.143-3.251-0.805-6.501-2.043-9.437c-0.576-1.381-1.842-2.648-2.849-3.683
				c-1.122-1.122-2.59-1.956-3.971-2.675c-1.439-0.691-2.963-1.093-4.546-1.267c-1.669-0.172-3.136-0.058-4.776,0.172
				c-1.469,0.23-3.021,0.863-4.345,1.497c-1.524,0.748-2.992,1.553-4.402,2.503c-2.705,1.755-5.006,4.027-7.078,6.474
				c-1.955,2.302-3.51,4.689-4.661,7.48c-1.237,3.021-2.129,6.157-3.079,9.265c-1.41,4.718-2.992,9.379-4.775,14.012
				c0.114-0.288,0.229-0.547,0.344-0.834c-0.143,0.344-0.259,0.662-0.403,0.978c0-0.014,0.002-0.027,0.006-0.038
				c-0.012,0.023-0.023,0.045-0.034,0.067c0.007,0,0.013-0.001,0.017-0.005c-0.008,0.015-0.015,0.029-0.023,0.044
				c0.003-0.012,0.006-0.024,0.006-0.039c-0.489,1.122-0.979,2.273-1.497,3.424c0,0,0,0.029-0.028,0.029
				c-0.172,0.317-0.317,0.661-0.432,0.978c-1.38,3.021-2.906,5.985-4.834,8.689c-0.949,1.151-1.985,2.244-3.106,3.251
				c-1.554,1.064-3.136,1.956-4.834,2.791c-1.007,0.374-1.985,0.691-3.05,0.92c-1.035,0.058-2.043,0.029-3.079-0.058
				c-1.064-0.23-2.1-0.547-3.106-0.92c-2.331-1.151-4.46-2.532-6.53-4.114c-0.95-0.748-1.871-1.525-2.82-2.36
				c-1.209-1.064-2.273-2.302-3.309-3.567c-1.668-2.244-3.136-4.488-4.315-6.992c-0.834-2.215-1.352-4.46-1.725-6.762
				c-0.26-3.05-0.202-6.07,0.143-9.149c0.719-4.546,1.698-9.034,3.136-13.435c1.267-3.826,2.561-7.654,3.913-11.451
				c1.468-4.201,2.675-8.429,3.337-12.803c0.374-2.416,0.432-4.804,0.288-7.249c-0.172-2.331-0.949-4.373-1.87-6.503
				c-0.862-2.043-2.359-3.826-3.855-5.379c-1.812-1.899-4.171-3.05-6.646-3.799c-1.324-0.402-2.762-0.603-4.201-0.603
				c-0.661,0-1.294,0.058-1.928,0.116c-2.619,0.288-4.978,1.352-7.221,2.675c-2.1,1.267-4,3.05-5.725,4.747
				c-2.072,2.072-3.913,4.402-5.668,6.762c-2.273,3.021-4.574,6.07-6.444,9.35c-2.13,3.683-4.085,7.394-5.726,11.337
				c-1.495,3.683-2.992,7.365-4.228,11.163C4.683,76.11,1.144,91.704,0.194,107.527c-0.287,4.919-0.346,9.868,0.46,14.758
				c0.892,5.323,3.051,10.213,5.438,14.99c1.812,3.596,3.855,6.963,6.358,10.069c1.582,1.956,3.251,3.855,4.948,5.697
				c2.619,2.849,5.236,5.725,8.026,8.372c3.972,3.77,8.258,7.106,12.602,10.444c3.596,2.791,7.221,5.524,10.876,8.228
				c3.452,2.532,7.105,4.805,10.817,6.905c4.185,2.356,8.476,4.31,12.875,6.174c0.092,0.039,0.185,0.079,0.277,0.118
				c-0.012-0.006-0.022-0.012-0.032-0.02c0.748,0.317,1.497,0.662,2.215,0.95c-0.547-0.23-1.064-0.46-1.582-0.691
				c3.366,1.439,6.762,2.791,10.271,3.884c3.424,1.064,6.848,2.043,10.329,2.935c3.021,0.748,5.984,1.698,9.005,2.359
				c3.109,0.688,6.195,1.388,9.352,1.852c-0.002,0.009-0.003,0.018-0.006,0.027c-0.028-0.003-0.054-0.003-0.082-0.008
				c0.027,0.006,0.054,0.006,0.081,0.012c-0.325,1.376-0.688,2.743-0.973,4.131c-0.512,2.502-0.946,5.007-1.365,7.513
				c-2.287-0.963-4.549-1.977-6.863-2.91c-5.006-2.014-10.012-3.826-15.335-4.69c-4.26-0.691-8.546-0.95-12.832-0.95
				c-1.15,0-2.331,0.029-3.482,0.058c-5.351,0.172-10.644,1.238-15.823,2.561c-5.841,1.468-11.594,3.596-16.974,6.3
				c-6.532,3.28-12.2,7.913-17.896,12.4c-3.077,2.416-6.07,4.977-9.091,7.451c-1.323,1.093-2.646,2.158-3.971,3.251
				c-0.777,0.604-1.553,1.324-2.043,2.158c-1.092,1.842-0.949,4.603,0.72,6.099c2.992,2.648,6.214,5.064,9.408,7.48
				c3.107,2.36,6.243,4.747,9.495,6.934c5.898,3.971,11.968,7.538,18.298,10.761c3.021,1.553,6.243,2.733,9.437,3.913
				c4.863,1.784,10.07,2.445,15.192,2.906c6.474,0.576,12.946,0.979,19.42,1.237c3.395,0.144,6.733,0.058,10.098-0.576
				c2.478-0.47,5.006-1.153,7.396-2.126c-0.003,1.179-0.024,2.357-0.03,3.536c0,7.596-0.029,15.219,0.431,22.786
				c0.46,7.681,1.294,15.306,1.812,22.959c0.288,4.23,0.633,8.459,1.008,12.716c0.402,4.46,1.15,8.919,1.869,13.35
				c1.18,7.451,2.619,14.874,3.972,22.297c1.352,7.625,2.704,15.306,4.862,22.758c1.093,3.797,2.244,7.567,3.654,11.221
				c1.698,4.344,3.452,8.601,5.294,12.86c1.438,3.366,2.849,6.818,4.603,10.041c0.949,1.783,1.928,3.539,3.021,5.236
				c1.208,1.841,2.416,3.596,3.711,5.381c4.661,6.416,9.927,12.573,15.853,17.895c2.82,2.532,5.725,4.977,8.689,7.337
				c3.424,2.704,6.818,5.466,10.444,7.855c6.847,4.488,14.183,8.429,21.837,11.392c3.684,1.439,7.394,2.791,11.193,3.77
				c3.941,1.035,7.882,1.928,11.881,2.704c8.2,1.611,16.457,2.82,24.772,3.567c7.969,0.748,15.997,1.41,23.995,1.008
				c4.057-0.201,8.143-0.547,12.2-0.921c4.603-0.403,9.149-1.324,13.58-2.648c3.971-1.18,7.854-2.847,11.623-4.574
				c5.151-2.331,9.955-5.265,14.443-8.66c3.596-2.733,7.164-5.466,10.703-8.257c1.582-1.267,3.135-2.503,4.661-3.799
				c3.079-2.59,5.927-5.323,8.516-8.401c3.296-3.926,6.199-8.185,8.872-12.589c1.001-0.23,1.902-0.926,2.118-1.969
				c0.179-0.805,0.294-1.625,0.448-2.435c1.358-2.421,2.673-4.862,3.926-7.319c3.768-7.365,7.249-14.845,10.472-22.499
				c3.165-7.394,5.784-15.018,8.258-22.671c2.503-7.768,4.746-15.623,6.733-23.534c1.899-7.681,3.135-15.536,4.402-23.362
				c1.324-8.056,2.532-16.141,3.136-24.282c0.603-7.71,0.777-15.449,0.921-23.161c0.083-4.507,0.172-9.021,0.21-13.53
				c0.184,0.022,0.366,0.069,0.539,0.095c2.071,0.317,4.171,0.72,6.243,0.978c3.567,0.432,7.135,0.604,10.703,0.633
				c3.625,0.029,7.278-0.374,10.874-0.805c3.941-0.489,7.883-1.122,11.768-1.985c3.827-0.863,7.509-2.243,11.162-3.596
				c3.741-1.352,7.338-3.107,10.876-4.948c1.612-0.834,3.165-1.812,4.718-2.762c1.698-1.035,3.424-2.043,5.035-3.222
				c3.337-2.474,6.559-4.977,9.35-8.085c5.178-5.812,10.242-11.998,14.011-18.816c1.497-2.733,2.993-5.408,4.029-8.344
				c0.086-0.403,0.143-0.777,0.201-1.151c0.201-0.748,0.201-1.495,0-2.273c-0.26-0.834-0.518-1.899-1.267-2.474
				c-0.777-0.604-1.41-1.093-2.331-1.439c-0.719-0.288-1.41-0.46-2.129-0.661c-3.452-0.979-6.876-2.043-10.329-2.992
				c-3.712-1.008-7.451-1.899-11.077-3.165c-3.626-1.294-7.223-2.791-10.818-4.23c-3.855-1.553-7.681-3.251-11.567-4.747
				c-4.315-1.669-8.659-2.704-13.234-3.309c-2.733-0.344-5.409-0.46-8.141-0.46c-1.18,0-2.36,0-3.569,0.058
				c-2.273,0.058-4.516,0.259-6.789,0.547c-1.641,0.23-3.28,0.46-4.891,0.805c-2.072,0.432-4.085,1.151-6.043,1.87
				c-3.337,1.267-6.53,2.82-9.609,4.574c-1.564,0.904-2.999,1.991-4.395,3.131c-0.496-2.802-1.013-5.602-1.531-8.404
				c0.121-0.012,0.259,0.035,0.373,0.008c0.172,0.028,0.373,0.058,0.547,0.058c0.834,0.058,1.784-0.144,2.561-0.259
				c1.582-0.23,3.164-0.547,4.718-0.892c3.366-0.691,6.733-1.582,10.07-2.416c3.51-0.892,6.991-1.985,10.501-2.992
				c3.482-1.007,7.02-1.985,10.473-3.106c4.201-1.381,8.372-2.82,12.4-4.574c3.51-1.525,6.934-3.165,10.329-4.891
				c3.51-1.755,6.934-3.741,10.329-5.754c3.626-2.158,6.991-4.776,10.271-7.423c5.927-4.833,11.567-10.04,16.314-16.083
				c5.006-6.387,10.184-12.745,14.154-19.851c8.143-14.53,11.364-30.9,13.321-47.271c0.403-3.366,0.374-6.876,0.403-10.3
				c0.058-3.74,0.143-7.48,0.116-11.192C511.965,65.782,511.332,59.223,509.348,52.864z M108.599,226.94
				c-0.23,1.981-0.459,3.99-0.632,5.999c-0.834,8.171-1.582,16.37-2.158,24.6c-0.201,2.617-0.288,5.207-0.373,7.797
				c0,0-0.03,0.012-0.05,0.016c-0.121,0.022-0.44,0.042-0.44,0.042c-0.027-0.001-0.287,0.028-0.43,0.028c-0.058,0-0.116,0-0.116,0
				c-0.979,0.058-1.956,0.201-2.906,0.374c-0.661,0.087-1.554,0.518-2.619,1.008c-0.691,0.288-1.381,0.576-2.043,0.891
				c-1.698,0.604-3.366,1.035-5.149,1.381c-2.763,0.201-5.524,0.259-8.315,0.259l-4.891-0.029h-0.863
				c-5.265-0.058-10.731-0.116-16.025-0.748c-2.849-0.489-5.524-1.238-8.631-2.215c-1.41-0.432-2.762-0.979-4.143-1.553
				c-4.804-2.158-10.416-4.863-15.767-8.258c-4.746-3.021-9.667-6.445-15.247-10.617l-1.03-0.9c-0.022-0.016-0.043-0.034-0.065-0.05
				c0.001,0,0.002-0.002,0.003-0.002l-0.061-0.054l1.352-1.093l2.072-1.669l7.049-5.667l2.561-1.956l2.071-1.583
				c4.718-3.596,9.696-6.588,14.816-8.832c6.818-2.704,13.84-4.603,20.946-5.638c2.445-0.259,4.948-0.374,7.451-0.374
				c2.992,0,6.156,0.172,9.437,0.518c7.595,1.122,14.731,4.115,21.837,7.078c0.758,0.364,1.517,0.735,2.302,1.206v0.001
				c0.029,0,0.029,0.029,0.058,0.029c-0.001,0.005-0.001,0.009-0.002,0.014H108.599z M389.894,229.659l1.062-0.921
				c1.065-0.949,2.159-1.899,3.281-2.849c2.331-1.669,4.978-3.135,8.573-4.746c3.654-1.468,7.337-2.445,11.192-2.992
				c2.876-0.288,5.754-0.432,8.602-0.432c2.561,0,5.092,0.116,7.625,0.403c4.056,0.691,8.085,1.841,12.342,3.539
				c2.13,0.834,4.26,1.698,6.387,2.561c3.251,1.265,6.559,2.445,9.84,3.625l2.906,1.035c3.481,1.238,7.193,2.071,10.76,2.906
				l1.727,0.403c2.842,0.617,5.658,1.256,8.565,1.831c0.195,0.032,0.389,0.066,0.584,0.097c-0.002,0.005-0.006,0.01-0.008,0.016
				c0.023,0.003,0.044,0.008,0.066,0.013c-1.783,3.654-4.115,7.422-7.279,11.824c-1.842,2.36-3.77,4.689-5.725,6.963
				c-2.215,2.59-4.834,4.863-7.106,6.733c-1.209,0.834-2.418,1.669-3.654,2.445c-1.497,0.92-2.992,1.783-4.488,2.646l-0.979,0.547
				c-2.756,1.557-5.582,2.839-8.279,3.997c-3.282,1.255-6.535,2.427-9.904,3.369c-3.164,0.95-6.358,1.468-8.832,1.841
				c-6.215,0.72-11.422,1.035-16.37,1.035c-3.021,0-6.013-0.116-9.033-0.403c-1.469-0.288-2.849-0.604-4.919-1.265
				c-1.21-0.337-2.34-0.692-3.625-0.816c-0.001-0.006,0-0.013-0.001-0.02c-0.028,0-0.058,0-0.086,0
				c-0.001-0.005-0.001-0.009-0.001-0.015c-0.289-7.677-1.007-15.267-1.725-22.368l-0.202-2.273
				c-0.373-3.799-0.777-7.625-1.352-11.422l-0.978-6.53C389.232,230.206,389.577,229.947,389.894,229.659z M132.394,59.538
				c0.058,0.087,0.144,0.172,0.202,0.26c-0.058-0.087-0.144-0.173-0.202-0.23C132.394,59.538,132.394,59.538,132.394,59.538z
				 M115.847,192.161c-0.007,0.022-0.015,0.044-0.022,0.065c-2.36-0.576-4.718-1.18-7.078-1.812l-1.152-0.314
				c-1.985-0.518-3.942-1.122-5.898-1.726c-1.783-0.547-3.567-1.093-5.379-1.612l-2.215-0.576c-3.28-0.863-6.559-1.727-9.782-2.791
				c-3.654-1.18-7.221-2.503-10.76-3.942c-12.515-5.696-23.42-14.097-33.977-22.24c-3.482-2.878-6.302-5.438-8.834-7.998
				l-0.748-0.748c-3.136-3.194-6.387-6.502-9.236-10.07c-2.196-3.035-4.019-6.337-5.593-9.627c-0.358-0.712-0.711-1.427-1.062-2.145
				c0.012,0.052,0.02,0.106,0.025,0.162c0.023,0.062,0.046,0.124,0.07,0.188c-0.023-0.053-0.045-0.107-0.068-0.162
				c0.006,0.061,0.01,0.124,0.01,0.191c-0.403-0.949-0.777-1.899-1.151-2.849c-0.748-1.841-1.265-3.884-1.725-6.617
				c-0.748-6.387-0.662-13.493,0.259-22.297c1.122-7.48,2.475-14.443,4.172-21.233c1.611-6.416,3.883-13.062,7.164-20.973
				l2.416-5.121c0.603-1.295,1.352-2.561,2.1-3.799l0.691-1.122c1.277-2.253,2.8-4.395,4.446-6.514
				c0.435-0.588,0.87-1.174,1.307-1.759c0.001-0.001,0.001-0.005,0.001-0.006c-0.058,0.07-0.116,0.135-0.172,0.2
				c0.06-0.072,0.12-0.143,0.176-0.215c0.001-0.009,0.001-0.016-0.002-0.021c-0.029-0.029,0.201-0.374,0.23-0.402
				c2.617-3.337,5.005-5.812,7.48-7.826c0.863-0.604,1.727-1.093,2.675-1.583c0.373-0.143,0.777-0.259,1.18-0.373h0.834
				c0.374,0,0.778,0,1.151,0.029c0.777,0.172,1.439,0.374,2.13,0.632l0.777,0.432c0.576,0.518,1.093,1.035,1.64,1.64
				c0.576,0.863,1.122,1.727,1.582,2.675c0.26,0.691,0.432,1.352,0.633,2.101c0.172,1.928,0.144,3.942-0.058,6.3
				c-0.862,4.977-2.445,9.782-3.941,14.471l-1.008,3.079c-1.035,3.251-2.043,6.502-3.021,9.782
				c-0.315,1.122-0.547,2.273-0.777,3.452l-0.23,0.95c-0.891,3.998-1.438,7.969-1.524,11.853c-0.116,3.998,0.489,8.315,1.727,12.429
				c1.237,4,3.51,7.596,5.581,10.588c2.014,2.876,4.575,5.609,8.114,8.516c1.553,1.294,3.164,2.474,4.834,3.567
				c1.755,1.093,3.711,1.9,5.553,2.59c1.841,0.719,4,0.891,6.013,1.007l0.805,0.029c1.582,0,3.28-0.259,5.352-0.863
				c4.228-1.237,7.855-3.855,10.53-5.984c1.468-1.18,2.674-2.762,3.913-4.431c1.122-1.497,2.043-3.079,2.934-4.747
				c0.719-1.352,1.352-2.762,1.87-3.971l0.95-2.244c0.171-0.317,0.315-0.633,0.517-1.238l0.288-0.748c1.64-4,2.963-7.912,4-11.652
				l2.1-7.71l0.259-1.093c0.662-2.532,1.295-5.035,2.273-7.451c0.691-1.41,1.497-2.675,2.445-3.971
				c1.352-1.64,2.763-3.079,4.373-4.402c1.554-1.122,3.136-2.071,4.863-2.934c1.007-0.374,1.985-0.662,3.482-0.892l0.978,0.029
				c0.662,0.144,1.295,0.317,1.9,0.518c0.46,0.23,0.921,0.489,1.381,0.777c0.547,0.46,1.035,0.95,1.497,1.497l0.195,0.332
				c0.021,0.024,0.04,0.049,0.061,0.069c-0.018-0.018-0.035-0.036-0.05-0.052l0.253,0.428c0.374,1.035,0.662,2.043,0.834,3.165
				c0.087,1.151,0.087,2.244,0,3.395c-0.574,3.51-1.438,6.732-2.674,9.897c-0.921,2.1-1.928,4.172-2.935,6.272
				c-0.777,1.583-1.553,3.194-2.301,4.805c-0.95,2.071-1.784,4.143-2.619,6.273c-0.72,1.841-1.324,3.74-1.9,5.667l-0.23,0.72
				c-1.352,4.344-2.158,9.149-2.331,13.925c-0.116,2.992,0.49,6.013,0.979,8.315c0.603,2.561,1.755,5.236,3.395,8.027
				c1.093,1.812,2.59,3.567,4.718,5.495c0.921,0.805,1.956,1.554,3.136,2.388c1.122,0.777,2.418,1.324,3.683,1.841l0.748,0.317
				c0.729,0.297,1.503,0.557,2.288,0.834c1.003,0.269,2.035,0.303,3.059,0.438c-0.146,0.213-0.313,0.414-0.458,0.626
				c0.029,0,0.029,0.029,0.058,0.029c-4.23,6.186-8.631,12.917-12.112,20.168c-5.109,10.736-9.043,20.439-12.061,29.684H115.847z
				 M352.214,407.891c-0.086,2.474-0.086,4.977-0.086,7.451l-0.055,5.204c-0.001,0.001-0.001,0.002-0.002,0.003v0.172
				c-1.725,3.711-3.51,7.365-5.352,11.048c-3.723,7.396-7.492,13.582-11.549,18.992c-1.64,2.043-3.395,3.971-5.236,5.841
				c-1.151,1.122-2.388,2.158-3.625,3.194l-0.805,0.69c-1.582,1.295-3.164,2.561-4.862,3.884c0,0-0.777,0.576-0.805,0.576
				l-0.661,0.518c-2.302,1.813-4.633,3.596-7.049,5.265c-2.36,1.611-4.691,3.194-7.106,4.661c-2.244,1.294-4.603,2.331-6.963,3.366
				c-2.301,0.863-4.603,1.698-6.961,2.474c-2.273,0.777-4.633,1.238-7.595,1.813c-3.453,0.402-6.934,0.69-10.416,0.891
				c-2.675,0.144-5.352,0.288-8.057,0.288c-1.18,0-2.388-0.029-3.595-0.087c-6.848-0.346-14.04-1.035-22.613-2.129
				c-7.797-1.265-13.724-2.388-19.277-3.711c-3.222-0.748-6.445-1.554-9.609-2.532c-3.164-0.979-6.243-2.071-9.321-3.28
				c-4.057-1.841-8.143-3.884-12.141-6.099c-3.395-1.87-6.877-4.201-11.71-7.884c-2.445-1.928-4.863-3.855-7.25-5.898l-0.058-0.116
				c0,0,0,0-0.001-0.001l-1.179-2.33c-0.259-0.432-0.46-0.921-0.661-1.41l0.08-0.027c-0.008-0.02-0.016-0.039-0.024-0.059
				l-0.459-0.892l-0.49-1.151c-0.862-2.331-1.725-4.661-2.387-7.049c-0.402-1.495-0.805-3.021-1.151-4.546
				c-0.287-1.122-0.459-2.215-0.632-3.337l-0.029-0.23l-0.028,0.259c-0.633-5.207-1.324-11.307-1.064-17.378
				c0.259-5.351,0.804-11.134,1.611-17.521c0.403-2.532,0.805-5.063,1.267-7.596c0.431-2.273,0.921-4.546,1.41-6.847
				c0.547-2.388,1.065-4.776,1.669-7.136c0.373-1.323,0.69-2.617,1.064-3.971c0.26-1.035,0.603-2.1,0.949-3.136l0.23-0.719
				c0.662-2.244,1.439-4.431,2.387-7.164l0.691-1.985c0.547-1.64,1.122-3.309,1.755-4.948c0.891-2.474,1.812-4.919,2.763-7.366
				c0.949-2.445,1.928-4.833,2.704-6.733l0.576-1.41c1.151-2.704,2.301-5.409,3.625-8.056c1.267-2.617,2.589-5.178,4.115-7.654
				c1.15-1.87,2.474-3.625,4.258-5.955c1.439-1.783,2.934-3.452,4.516-5.092c1.524-1.525,3.106-2.935,4.691-4.23
				c2.416-1.899,4.834-3.797,7.394-5.582c2.129-1.497,4.373-2.906,6.617-4.286l1.64-1.008l2.13-1.381l0.719-0.489
				c2.445-1.122,4.891-2.244,6.934-3.107c2.302-0.949,4.633-1.899,6.992-2.733l1.18-0.431c0.778-0.288,1.554-0.547,2.36-0.777
				c0.661-0.172,1.294-0.346,1.956-0.547c0.547-0.172,1.092-0.259,1.611-0.374l0.863-0.172c0.749-0.139,1.161-0.789,1.321-1.428
				c0.005-0.001,0.01-0.002,0.016-0.002c0.005-0.022,0.012-0.044,0.016-0.065l0.023-0.003l1.099-0.169
				c1.698-0.172,3.424-0.346,5.122-0.432c1.352-0.058,2.705-0.087,4.057-0.087h2.014c4.315,0.087,8.688,0.518,12.774,0.95
				c3.021,0.432,6.013,0.978,9.062,1.611c2.876,0.604,5.84,1.582,9.006,2.935c1.9,0.805,3.797,1.611,5.696,2.445
				c1.699,0.72,3.339,1.524,4.949,2.388c0.517,0.23,0.978,0.547,1.468,0.834l0.691,0.46c0.834,0.489,1.64,1.064,2.646,1.783
				l2.331,1.669l2.675,1.928c0.777,0.603,1.554,1.237,2.331,1.899c0.949,0.805,1.842,1.669,2.733,2.532
				c1.323,1.294,2.561,2.704,3.797,4.085l0.719,0.777c1.669,1.841,3.28,3.683,4.891,5.582c1.122,1.295,2.188,2.647,3.28,4
				l0.662,0.834c1.352,1.784,2.675,3.567,3.971,5.409c1.41,1.985,2.733,4.056,4.057,6.128c1.007,1.554,1.955,3.165,2.876,4.776
				l0.548,0.95c0.431,0.72,0.834,1.524,1.208,2.302l0.374,0.777c0.46,0.863,0.862,1.784,1.468,3.223
				c2.561,6.53,4.891,13.379,6.934,20.341c0.891,2.992,1.524,6.042,2.186,9.062l0.23,1.035c0.719,3.482,1.381,6.963,1.985,10.443
				c0.374,2.992,0.805,6.963,0.921,10.991C352.358,399.892,352.328,403.891,352.214,407.891z M378.528,309.152
				c-0.116,6.56-0.576,13.464-1.411,21.06c-1.985,13.723-4.345,28.368-8.114,42.379c-2.82,10.414-5.841,20.025-9.207,29.174
				c-0.711,1.951-1.5,3.874-2.243,5.81c0-0.009-0.001-0.018-0.001-0.027c-0.028,0.058-0.028,0.116-0.057,0.172l-0.059-2.475
				l-0.116-5.149c-0.143-3.884-0.431-7.739-0.805-11.623c-0.373-3.54-0.949-7.049-1.639-10.501l-0.289-1.468
				c-0.603-3.164-1.237-6.329-1.984-9.437c-0.49-1.956-1.008-3.855-1.554-5.783c-0.373-1.267-0.778-2.474-1.151-3.683l-0.576-1.841
				l-1.725-5.122l-0.576-1.611c-0.403-1.151-0.805-2.302-1.237-3.453c-0.749-1.87-1.497-3.711-2.302-5.553
				c-0.748-1.669-1.524-3.337-2.445-4.919c-4.114-7.02-8.344-13.234-12.919-18.96c-2.215-2.791-4.516-5.524-6.905-8.17l-3.712-4.115
				c-1.237-1.352-2.531-2.704-3.913-3.913c-1.41-1.208-2.849-2.388-4.345-3.51c-1.725-1.295-3.452-2.561-5.207-3.797
				c-2.791-1.956-5.927-3.683-9.265-5.151l-1.237-0.518l-4.747-2.043c-1.553-0.662-3.135-1.324-4.746-1.871
				c-3.223-1.093-6.474-1.698-10.07-2.331c-1.669-0.288-3.309-0.547-5.006-0.748c-1.468-0.201-2.963-0.288-4.431-0.374l-0.921-0.058
				c-1.812-0.144-3.625-0.23-6.042-0.259c-1.669,0-3.366,0.087-5.035,0.201c-3.683,0.201-7.279,0.805-10.3,1.381
				c-1.468,0.259-2.876,0.661-4.546,1.122c-1.783,0.518-3.539,1.064-5.235,1.783c-1.469,0.604-2.878,1.295-4.661,2.186l-1.669,0.834
				l-3.395,1.698c-1.258,0.667-2.468,1.396-3.678,2.147c-0.029,0.014-0.061,0.025-0.091,0.039c-0.172,0.116-0.346,0.201-0.518,0.317
				c-0.172,0.087-0.346,0.144-0.518,0.23c-0.024,0.015-0.049,0.031-0.073,0.047c-1.141,0.529-2.318,1.092-3.87,1.88
				c-0.603,0.288-1.208,0.576-1.783,0.892c-1.122,0.691-2.244,1.352-3.395,2.014l-1.812,1.18l-0.662,0.431
				c-0.489,0.317-0.979,0.633-1.41,0.979l-1.439,1.064l-1.41,1.064c-0.576,0.432-1.122,0.892-1.64,1.352l-1.093,0.921
				c-0.46,0.403-0.921,0.777-1.352,1.208l-1.267,1.238l-1.267,1.237c-0.517,0.518-1.007,1.064-1.495,1.611l-0.778,0.834
				l-1.122,1.295l-0.891,1.093c-0.921,1.122-1.812,2.215-2.675,3.395l-2.13,2.819c-1.293,1.726-2.503,3.683-3.941,6.273
				c-1.842,3.395-3.395,6.905-4.948,10.414l-0.346,0.748c-1.554,3.596-3.079,7.221-4.546,10.875c-1.237,3.136-2.416,6.3-3.596,9.495
				l-0.517,1.381c-1.267,3.395-2.503,6.789-3.626,10.242c-2.158,6.762-3.998,14.155-5.754,23.218
				c-0.719,3.683-1.237,7.394-1.725,11.105c-0.46,3.826-0.863,7.625-1.122,11.451c-0.116,1.87-0.23,3.74-0.172,5.611
				c0.058,2.129,0.143,4.23,0.287,6.358c0.26,4.718,0.691,8.286,1.381,11.536c0.288,1.323,0.604,2.619,0.95,3.942l0.259,1.151
				c0.098,0.339,0.207,0.684,0.306,1.029c-0.034-0.037-0.072-0.07-0.104-0.107l0.028,0.172c-2.186-2.388-4.287-4.863-6.358-7.366
				c-1.612-2.215-3.165-4.431-4.718-6.704c-1.669-2.503-3.107-5.408-4.258-7.739c-2.648-5.409-5.236-10.818-7.681-16.284
				c-1.87-4.747-3.51-9.408-4.948-14.184c-1.41-4.718-2.619-9.466-3.625-14.097c-2.416-11.422-4.403-21.031-6.099-30.756
				c-0.46-3.741-0.863-7.451-1.237-11.163c-0.201-2.503-0.346-5.006-0.518-7.537l-0.259-3.77l-0.49-6.387
				c-0.489-5.553-0.949-11.048-1.092-16.6c-0.173-6.818-0.087-13.609,0-20.427l0.028-3.395c0.086-7.625,0.489-15.681,1.237-24.6
				c0.691-7.94,1.727-15.967,2.733-23.736l0.202-1.669c1.582-10.012,3.539-18.845,5.955-27.015
				c2.733-9.408,6.416-18.499,9.638-26.153c1.439-3.193,2.876-6.329,4.403-9.437c1.468-3.021,3.194-5.926,4.919-8.832l0.748-1.237
				c3.079-5.207,6.761-10.703,11.536-17.292c2.13-2.561,4.258-5.122,6.474-7.624c1.698-1.9,3.54-3.712,5.379-5.524l1.267-1.238
				c2.273-2.302,4.603-4.517,6.992-6.847c1.87-1.783,3.855-3.395,5.927-4.948c0.373-0.288,0.719-0.576,1.093-0.863l-0.374,0.23
				c0.26-0.172,0.49-0.346,0.748-0.518l0.028-0.029c0.029-0.029,0.087-0.058,0.116-0.087l-0.028,0.029
				c3.424-2.36,6.675-4.402,10.416-6.588c0.346,0,0.805,0,1.294-0.116c3.712-0.95,7.394-1.985,11.077-2.992l3.079-0.834
				c3.77-1.064,7.797-1.842,13.062-2.619c5.927-0.691,11.998-1.035,18.01-1.035c6.358,0,12.774,0.403,19.104,1.151
				c0.373,0.087,0.777,0.144,1.151,0.23c0.172,0.029,0.315,0.057,0.489,0.087c-0.058,0-0.086,0-0.144,0
				c2.273,0.46,4.432,1.064,6.647,1.698c2.646,0.777,5.265,1.783,7.854,2.82c2.648,1.18,5.266,2.416,7.855,3.683l3.654,1.755
				c4.403,2.1,8.659,4.402,12.688,6.847l5.523,3.453c2.388,1.495,4.805,3.021,7.223,4.488c1.783,1.093,3.567,2.186,5.322,3.366
				c1.582,1.064,3.164,2.215,4.69,3.366l0.719,0.633c2.244,2.014,4.546,4.027,7.02,6.445c3.194,3.05,6.474,6.186,9.321,9.696
				c2.82,3.942,4.948,8.114,7.25,12.803c1.15,2.302,2.186,4.661,3.222,7.049l0.603,1.381c2.648,6.532,5.122,13.091,7.48,19.737
				c2.014,5.639,3.712,11.797,5.554,19.938c0.92,4.057,1.784,8.143,2.619,12.228c0.574,2.849,1.18,5.725,1.812,8.574
				c1.524,7.337,2.733,14.068,3.712,20.571l0.259,2.1c0.778,5.697,1.554,11.393,2.13,17.147c0.691,7.394,0.834,14.903,0.921,21.952
				C378.614,294.996,378.641,302.075,378.528,309.152z M501.493,79.448c-0.346,4.517-0.778,9.034-1.267,13.522
				c-1.151,6.358-2.188,11.22-3.424,15.766c-1.294,4.919-2.934,10.012-5.236,16.083c-0.661,1.525-1.323,3.021-2.071,4.46
				c-1.093,2.1-2.244,4.114-3.424,6.128c-1.87,3.135-4.085,6.099-6.675,9.466c-3.683,4.603-6.818,8.401-10.242,12.054
				c-3.653,3.884-7.854,7.164-11.911,10.329l-0.603,0.432c-1.956,1.439-3.942,2.876-6.013,4.056
				c-2.532,1.495-5.064,2.963-7.625,4.344c-5.466,2.935-10.473,5.438-15.306,7.596c-5.006,2.014-10.098,3.797-15.191,5.553
				c-2.763,0.979-5.524,1.928-8.287,2.935l-6.33,2.302l-6.299,2.273c-1.123,0.432-2.273,0.805-3.366,1.18l-1.956,0.633
				c-1.108,0.406-1.988,0.811-2.829,1.241c-0.035,0.022-0.064,0.054-0.097,0.076c-0.002-0.008-0.003-0.016-0.006-0.024
				c-0.02,0.01-0.039,0.02-0.06,0.03c-1.151-5.668-2.791-13.091-5.207-20.254c-3.022-9.005-6.014-16.946-9.15-24.311
				c-1.553-3.654-3.28-7.221-5.034-10.789c-1.038-2.077-2.188-4.127-3.418-6.176c-0.02-0.03-0.044-0.059-0.064-0.09
				c0.002,0,0.006-0.001,0.009-0.002c-0.013-0.021-0.024-0.042-0.037-0.062c0.949-0.288,1.87-0.632,2.819-1.035
				c3.366-1.468,6.618-3.453,10.242-6.272c2.619-2.043,5.034-4.977,7.221-8.689c1.668-2.935,2.934-6.502,3.683-10.617
				c0.778-3.884,1.008-7.969,0.719-12.458c-0.171-2.905-0.691-5.812-1.208-8.602c-0.518-2.849-0.95-5.725-1.381-8.602
				c-0.46-3.942-0.518-7.25-0.26-10.387c0.404-2.158,0.921-4.143,1.641-6.099c0.661-1.381,1.381-2.675,2.243-3.971
				c0.95-1.093,1.928-2.043,3.021-2.963c1.209-0.777,2.445-1.468,3.74-2.071c1.497-0.547,2.963-0.979,4.546-1.237h1.353
				c0.661,0,1.294,0,1.928,0.028c1.237,0.201,2.416,0.518,3.595,0.95c1.065,0.518,2.043,1.064,3.021,1.727
				c0.748,0.662,1.439,1.324,2.13,2.1c0.632,0.892,1.18,1.841,1.668,2.849c0.863,2.215,1.468,4.574,1.928,7.423
				c0.548,4.834,0.346,9.811,0.144,15.104c-0.144,3.482-0.201,6.963-0.201,10.444c0.028,1.87,0.287,3.768,0.574,5.609
				c0.373,2.302,0.863,4.718,1.985,6.963c1.352,2.675,2.963,4.603,4.921,5.898c2.013,1.294,4.143,2.186,6.53,2.704
				c1.209,0.26,2.474,0.403,3.768,0.403c2.963,0,6.129-0.661,9.351-1.928c4.488-1.783,8.458-4.373,11.854-7.739
				c3.106-3.05,5.437-6.99,7.566-10.76c2.561-4.574,4.603-9.437,6.013-14.443c0.633-2.302,0.979-4.661,1.295-7.106
				c0.315-2.331,0.575-4.718,0.575-7.106v-2.1c0.028-1.238,0.028-2.474-0.087-4.431c-0.172-3.654-0.373-7.451-1.007-11.134
				l-0.116-0.863c-0.202-1.439-0.432-2.878-0.748-4.287l-0.49-2.331c-0.489-2.215-0.978-4.402-1.352-6.646
				c-0.116-1.381-0.143-2.733-0.057-4.114c0.229-1.093,0.517-2.1,0.891-3.135c0.576-1.209,1.237-2.36,1.985-3.511
				c0.547-0.662,1.15-1.265,1.841-1.87c0.662-0.432,1.381-0.834,2.101-1.238c1.293-0.46,2.617-0.863,3.998-1.093
				c0.778-0.058,1.524-0.087,2.301-0.087c0.662,0,1.353,0.029,2.043,0.087c1.151,0.23,2.244,0.518,3.339,0.92
				c1.352,0.633,2.589,1.381,3.826,2.273c1.871,1.554,3.54,3.223,5.093,5.122c1.524,2.244,2.733,4.403,3.712,6.618
				c1.468,3.654,2.619,7.307,3.826,11.364c1.468,4.804,2.561,8.89,3.223,13.148C502.414,67.248,501.982,73.55,501.493,79.448z"/>
			<path d="M213.671,346.093c0.403,2.071,1.237,4.057,2.158,6.273c0.661,1.582,1.554,3.05,2.475,4.516
				c2.215,3.511,5.294,6.186,7.768,8.142c2.619,2.1,5.294,3.74,8.2,4.977c1.783,0.72,3.567,1.41,5.408,1.985
				c4.287,1.352,8.805,1.698,11.854,1.841l1.151,0.029c0.891,0,1.783-0.029,2.646-0.087l1.381-0.058
				c4.69-0.23,9.005-1.237,12.744-2.992l0.691-0.346c0.805-0.374,1.612-0.748,2.388-1.151c2.101-1.122,3.942-2.647,5.582-3.998
				c2.273-1.899,4.085-4.286,5.956-6.762c1.122-1.468,2.186-2.992,3.193-4.574c1.122-1.784,2.014-3.827,2.733-5.582
				c0.719-1.783,1.381-3.567,1.956-5.409c0.804-2.675,1.093-5.553,1.294-8.286c0.288-3.309,0.489-7.193-0.087-11.077
				c-0.229-1.64-0.489-3.222-0.863-4.834c-0.143-0.805-0.344-1.611-0.574-2.416c-0.432-1.553-1.035-3.05-1.755-4.488
				c-1.525-3.079-3.856-6.07-7.107-9.12c-1.438-1.352-2.992-2.59-4.574-3.768c-1.64-1.267-3.625-2.129-5.352-2.82
				c-1.439-0.547-3.05-0.979-5.064-1.324c-2.158-0.373-4.344-0.661-6.53-0.777c-1.783-0.087-3.596-0.144-5.379-0.172
				c-1.64,0-3.28,0.201-4.891,0.46c-1.468,0.201-2.876,0.633-4.315,1.151c-1.064,0.058-2.13,0.172-3.194,0.317
				c-4.862,0.604-9.408,2.302-13.522,4.977c-2.072,1.381-4,3.021-5.754,4.632c-2.273,2.043-4.315,4.46-6.214,7.451
				c-1.035,1.669-2.043,3.654-3.021,6.128c-0.891,2.302-1.554,4.258-1.956,6.3c-0.489,2.503-0.891,5.006-1.092,7.567
				c-0.173,2.302,0.201,4.718,0.661,7.768C212.924,342.439,213.269,344.28,213.671,346.093z M220.087,325.062
				c0.374-2.331,0.979-4.574,1.87-6.847c0.778-1.783,1.727-3.452,2.963-5.294c1.956-2.331,4.23-4.287,6.358-6.07
				c2.1-1.611,4.201-2.878,6.445-3.855c1.582-0.633,3.164-1.122,4.804-1.495c0.029-0.029,0.029-0.029,0.029-0.029
				c0.028,0,0.058,0.029,0.058,0.029c0.603,0.834,1.582,1.294,2.704,1.294c0.288,0,0.548-0.029,0.805-0.058
				c1.007-0.259,2.1-0.46,3.136-0.633c1.093-0.116,2.215-0.172,3.366-0.172c0.748,0,1.524,0.029,2.301,0.087
				c0.891,0.086,1.784,0.172,2.675,0.288c3.596,0.547,7.451,1.209,11.221,2.619c1.381,0.662,2.733,1.41,4.027,2.273
				c2.445,1.985,4.516,3.971,6.3,6.014c1.064,1.495,1.985,3.05,2.791,4.661c1.007,2.675,1.755,5.553,2.301,8.832
				c0.26,3.05,0.202,6.387-0.143,10.184c-0.432,2.59-1.209,5.207-2.475,8.315c-0.116,0.23-0.23,0.489-0.346,0.719
				c-0.547,1.093-1.092,2.13-1.698,3.223c-0.517,0.95-1.18,1.812-2.013,2.935c-1.698,2.1-3.28,4.027-5.208,5.725
				c-0.172,0.144-0.344,0.288-0.518,0.432c-1.468,1.035-2.992,1.985-4.632,2.762l-1.352,0.547c-1.524,0.604-3.164,1.064-5.381,1.497
				c-1.524,0.116-3.05,0.172-4.602,0.172c-2.072,0-4.144-0.087-6.187-0.23c-2.1-0.317-4.201-0.72-6.243-1.237
				c-1.899-0.49-3.711-1.18-5.495-1.9c-2.1-0.979-4.201-2.302-6.618-4.114c-0.777-0.633-1.553-1.295-2.273-2.014
				c-0.719-0.72-1.352-1.439-1.955-2.244c-1.525-2.1-2.791-4.258-3.827-6.559c-1.352-3.654-2.388-7.423-3.079-11.163
				C219.886,330.702,219.857,327.882,220.087,325.062z"/>
			<path d="M293.827,412.294c-0.863-0.489-1.87-0.719-2.935-0.719c-1.582,0-2.992,0.576-3.855,1.611
				c-0.691,0.834-1.237,1.727-1.755,2.648c-0.263,0.413-0.514,0.826-0.778,1.239c-0.139,0.22-0.281,0.44-0.43,0.66
				c-2.216,2.733-4.403,4.948-6.705,6.762l-0.028-0.029c-0.262,0.191-0.527,0.379-0.793,0.566c-0.005,0.003-0.009,0.006-0.014,0.009
				c0.002-0.002,0.006-0.005,0.009-0.007c-3.35,2.359-6.988,4.464-10.798,6.25c-3.712,1.524-8.114,3.165-12.803,4
				c-1.524,0.086-3.079,0.143-4.603,0.143c-1.524,0-3.05-0.058-4.575-0.172c-2.992-0.576-5.754-1.553-7.854-2.331
				c-2.906-1.381-5.725-3.05-8.401-4.948c-3.569-3.021-6.618-6.818-9.321-10.156c-0.805-1.035-2.072-1.582-3.569-1.582
				c-1.553,0-3.05,0.575-4.056,1.582c-1.035,1.035-1.582,2.416-1.582,3.827c0,1.524,0.633,2.617,1.582,3.797
				c1.755,2.186,3.567,4.315,5.379,6.445l2.273,2.704c0.979,1.18,2.014,2.36,3.05,3.51c1.381,1.524,3.079,2.733,4.835,4
				c3.28,2.331,7.193,3.74,10.904,4.977c3.251,1.064,6.76,1.468,10.185,1.842l1.122,0.116c1.295,0.172,2.59,0.23,3.884,0.23
				c6.013,0,12.458-1.583,19.104-4.661c7.424-3.424,14.069-8.718,18.701-14.903c1.352-1.755,2.561-3.625,3.971-6.186
				c0.892-1.583,1.812-3.194,2.418-4.919C297.251,416.149,295.725,413.416,293.827,412.294z"/>
			<path d="M199.028,251.611c-0.202-0.604-0.46-1.18-0.777-1.755c-0.374-0.805-0.892-1.553-1.497-2.244
				c-1.18-1.985-2.763-3.74-4.603-5.093c-2.188-1.611-4.46-2.445-6.704-2.474h-0.863c-1.093,0-1.985,0.058-2.704,0.23
				c-0.95,0.23-1.812,0.604-3.339,1.238c-1.007,0.46-2.1,1.41-2.992,2.186c-0.891,0.777-1.755,1.553-2.59,2.416
				c-0.719,0.719-1.352,1.582-1.985,2.416l-0.489,0.69c-0.979,1.267-1.755,2.704-2.503,4.488c-2.013,4.776-1.41,10.012,1.612,13.983
				c1.612,2.1,3.51,3.712,5.926,5.122c2.503,1.439,5.352,2.158,8.66,2.215l0.172,0.087v-0.087c1.064,0,2.158-0.172,3.223-0.374
				l0.747-0.144c1.122-0.172,2.733-0.777,3.797-1.381c2.072-1.209,4-2.791,5.668-4.689c1.698-1.899,2.849-4.085,3.395-6.358
				c0.777-3.424-0.432-6.818-1.727-9.667C199.344,252.158,199.201,251.87,199.028,251.611z"/>
			<path d="M320.929,243.842l-1.238-0.978c-0.804-0.633-1.899-0.978-3.423-1.468c-0.548-0.172-1.209-0.259-2.1-0.259
				c-0.547,0-1.093,0.029-1.612,0.087c-4.776,0.344-9.638,3.164-13.321,7.739c-2.56,3.165-4.085,6.733-4.315,10.099h-0.086
				l0.058,0.805c0,1.007,0.087,1.956,0.259,2.847c0.604,2.648,1.756,4.948,3.281,6.503c2.043,2.043,4.315,3.309,6.934,3.855
				c0.804,0.201,1.64,0.288,2.561,0.288c1.899,0,3.797-0.403,5.379-0.805c0.979-0.201,1.9-0.633,2.82-1.035l0.804-0.373
				c1.439-0.604,2.906-1.956,3.337-2.36c3.856-3.596,6.157-8.948,6.302-14.644c0.086-2.416-0.72-4.977-2.216-6.991
				C323.316,245.828,322.539,244.936,320.929,243.842z M310.341,258.199v-0.029c0.058,0.058,0.087,0.144,0.143,0.201
				C310.428,258.314,310.37,258.257,310.341,258.199z"/>
			<path d="M95.655,249.568c-0.317-0.201-0.719-0.317-1.41-0.317c-0.202,0-0.49,0-0.778,0.029c-0.777,0.317-1.582,0.633-2.416,0.921
				c-0.633,0.23-1.267,0.403-1.956,0.547c-0.288,0.028-0.576,0.028-0.834,0.028c-0.288,0-0.576,0-0.834-0.028
				c-0.284-0.047-0.55-0.135-0.859-0.291c-0.03-0.008-0.061-0.016-0.091-0.024h-0.028c0-0.013,0-0.025,0-0.039
				c-0.029-0.016-0.058-0.03-0.087-0.047c0-0.691,0.058-1.381,0.116-2.186c0.058-0.633,0.087-1.267,0.116-1.899
				c-0.028-0.46-0.086-0.863-0.172-1.209c-0.23-0.949-1.035-1.755-2.043-2.043c-0.373-0.087-0.748-0.201-1.41-0.201
				c-0.201,0-0.431,0.029-0.691,0.029c-0.777,0.23-1.468,0.662-2.503,1.267c-1.612,0.978-3.222,1.841-5.149,2.791l-1.582,0.547
				c-0.349,0.14-0.699,0.24-1.154,0.274c-0.095,0.024-0.191,0.047-0.284,0.072c0.017-0.021,0.034-0.04,0.051-0.06
				c-0.036,0-0.072,0.002-0.109,0.002c0.576-0.691,1.151-1.352,1.784-2.014l2.243-2.186c0.518-0.518,1.122-1.064,1.524-1.698
				c0.26-0.46,0.374-1.008,0.317-1.755c-0.029-0.748-0.288-1.381-0.777-1.841c-0.519-0.547-1.065-0.691-1.871-0.777
				c-0.547-0.087-1.092-0.087-1.64-0.087c-0.805,0-1.64,0.029-3.194,0.144c-1.468,0.058-2.934,0.087-5.034,0.116l-0.577-0.084
				c-0.266-0.007-0.533-0.018-0.804-0.031c0.088-0.015,0.176-0.031,0.265-0.047l-0.265-0.039c0.95-0.172,1.9-0.346,2.849-0.489
				c2.36-0.259,4.718-0.374,7.106-0.374c1.755,0,3.54,0.058,5.466,0.23c4.201,0.661,8.429,1.669,13.12,2.704
				c1.352,0,2.503-0.834,2.849-2.101c0.201-0.748,0.086-1.611-0.346-2.302c-0.374-0.661-0.979-1.122-1.698-1.294
				c-4.921-1.18-9.983-2.387-15.104-2.935c-1.295-0.144-2.561-0.172-3.855-0.172c-1.295,0-2.59,0.029-3.856,0.087
				c-2.992,0.116-5.955,0.604-8.228,1.008c-2.331,0.432-4.689,0.92-6.991,1.553c-0.949,0.288-1.87,0.576-2.819,0.863l-1.18,0.346
				c-0.662,0.23-1.353,0.632-1.757,1.064c-0.747,0.72-0.834,1.64-0.891,2.619c-0.172,1.209,0.949,2.158,1.439,2.503
				c0.373,0.346,0.748,0.576,1.237,0.72c1.035,0.344,2.043,0.603,3.106,0.777c1.554,0.288,3.165,0.46,4.747,0.576
				c1.841,0.144,3.653,0.201,5.495,0.259l0.661,0.087v-0.058c0.691,0,1.411-0.029,2.101-0.029c0.183,0,0.365,0,0.55,0.003
				c0.171-0.01,0.343-0.021,0.514-0.032c-0.016,0.017-0.03,0.035-0.046,0.051c0.034,0.002,0.069,0.003,0.104,0.006l-0.691,0.748
				c-0.748,0.777-1.468,1.554-2.158,2.36c-0.518,0.576-1.122,1.265-1.294,2.043c-0.087,0.518-0.144,1.035-0.202,1.553
				c0,0.547,0.116,1.035,0.374,1.553c0.346,0.576,0.949,1.18,1.495,1.525c0.518,0.317,1.064,0.547,2.1,1.007l-0.028,0.058
				l0.805,0.087c0.346,0.058,0.719,0.116,1.352,0.116c0.201,0,0.46,0,0.748-0.029c0.719-0.087,1.41-0.172,2.1-0.288
				c0.661-0.116,1.294-0.288,1.955-0.489c1.064-0.321,2.081-0.738,3.08-1.139c1.007-0.482,1.989-1.026,2.962-1.594
				c0.029,0.172,0.058,0.344,0.086,0.518c0,0.008,0.001,0.015,0.001,0.023c0.028-0.008,0.058-0.015,0.086-0.023
				c0,0.662,0.143,1.209,0.431,1.784l0.403,0.748c0.288,0.374,0.548,0.72,0.863,1.035c0.518,0.576,1.524,0.978,1.928,1.151
				c0.691,0.201,1.468,0.432,2.36,0.547c0.576,0.029,1.122,0.087,1.668,0.087c0.576,0,1.065-0.058,1.554-0.172
				c0.949-0.144,1.755-0.346,2.475-0.633c0.804-0.288,1.611-0.603,2.416-0.949c0.777-0.346,1.294-0.662,1.698-1.294
				c0.373-0.662,0.46-1.468,0.288-2.159C96.749,250.547,96.259,249.942,95.655,249.568z"/>
			<path d="M397.285,258.976c0.403,0.547,0.748,1.035,1.324,1.381c0.288,0.201,0.604,0.402,0.921,0.576
				c0.603,0.288,1.237,0.518,1.87,0.748c1.122,0.374,2.273,0.604,3.51,0.834c2.705,0.518,5.438,0.576,7.998,0.576h1.093l1.093-0.029
				c1.726,0,3.106-1.41,3.106-3.136c0-1.698-1.352-3.05-3.307-3.135l-1.142-0.097c-0.526-0.015-1.049-0.031-1.564-0.047
				c0.102-0.02,0.203-0.039,0.305-0.06l-0.305-0.025c2.445-0.46,4.373-1.122,6.53-2.445c0.49-0.288,0.836-0.632,1.497-1.553
				l0.431-1.093c0.201-0.547,0.029-1.093-0.315-1.985c0,0,0.017-0.042,0.039-0.096c-0.073-0.147-0.143-0.284-0.242-0.422
				c0.15-0.024,0.319-0.072,0.475-0.12c0.024-0.046,0.043-0.08,0.043-0.08c1.525-0.403,2.963-0.95,4.403-1.554
				c1.093-0.489,2.013-0.891,2.819-1.553c0.518-0.346,1.008-0.777,1.468-1.352l0.834-1.122c0.202-0.432,0.404-0.863,0.548-1.267
				c0.028-0.259,0.058-0.489,0.116-0.777c0.087-0.374,0.116-0.777,0.028-1.238c-0.086-0.949-0.517-1.755-0.949-2.416
				c-0.424-0.69-1.093-1.159-2.03-1.904c-0.081-0.03-0.162-0.082-0.243-0.109c0.035,0,0.072,0,0.105-0.001
				c-0.034-0.028-0.069-0.055-0.105-0.086c1.497-0.029,2.963-0.029,4.46-0.029h2.906c1.495,0,3.02,0,4.602,0.144v0.001h0.001
				c0.029,1.381,1.151,2.473,2.589,2.531c2.911,0.097,5.821,0.195,8.732,0.448c0.533,0.031,1.065,0.064,1.597,0.098
				c-0.028,0.015-0.057,0.031-0.084,0.046c0.038,0.003,0.075,0.007,0.114,0.012c-0.691,0.374-1.381,0.748-2.072,1.151
				c-2.273,1.267-4.516,2.59-6.762,3.942c-1.612,0.978-2.158,3.135-1.237,4.747c0.633,1.035,1.783,1.698,3.05,1.698
				c0.604,0,1.18-0.172,1.698-0.46l2.647-1.553c1.582-0.95,3.164-1.871,4.746-2.82l0.979-0.633c1.468-0.891,2.935-1.812,4.258-2.906
				c1.007-0.834,2.13-1.783,2.791-3.106c0.259-0.518,0.373-0.979,0.373-1.497c0-0.719-0.287-1.265-0.661-1.928
				c-0.46-0.69-1.092-1.122-2.129-1.352c-0.317-0.087-0.633-0.116-1.122-0.116c-0.059,0-0.087,0-0.116,0
				c-0.432-0.029-0.892-0.087-1.9-0.172c-1.353-0.116-2.733-0.23-4.115-0.317l-2.876-0.23c-0.074-0.014-0.148-0.027-0.222-0.04
				c-0.034-0.001-0.068-0.001-0.101-0.003c-2.512-0.459-5.022-0.827-7.561-1.02c-2.444-0.201-4.919-0.259-7.365-0.259h-1.323
				c-2.82,0.029-5.668,0.029-8.488,0.029c-1.381,0-2.762,0.058-4.115,0.087l-2.043,0.087c-2.531,0.087-5.064,0.172-7.537,0.46
				c-0.576,0.087-0.979,0.172-1.352,0.547c-0.317,0.317-0.604,0.892-0.49,1.583c0.116,1.007,0.576,1.611,1.381,1.841
				c0.373,0.116,0.747,0.201,1.18,0.23c0.317,0,0.662,0,1.008,0.029l1.38,0.116l1.381,0.116c1.164,0.083,2.353,0.221,3.519,0.361
				c2.192,0.341,4.16,0.801,6.003,1.453c0.317,0.144,0.603,0.317,0.892,0.518l0.576,0.69l0.028,0.31
				c0.009,0.022,0.018,0.043,0.028,0.065c0,0.08,0,0.161,0,0.24l0.014,0.144c0.045-0.109,0.094-0.217,0.159-0.327
				c-0.046,0.118-0.094,0.235-0.157,0.351l0.014,0.139c-0.116,0.23-0.26,0.46-0.604,0.92c-0.23,0.259-0.517,0.518-0.891,0.777
				c-0.489,0.346-1.007,0.604-1.842,0.979c0,0,0,0-0.028,0.029c-2.13,0.834-4.315,1.495-6.53,2.1
				c-0.691,0.201-1.381,0.374-2.1,0.547c-0.834,0.202-1.698,0.432-2.531,0.662c-0.863,0.317-1.411,1.064-1.411,1.899
				c0,0.863,0.576,1.64,1.411,1.871c0.265,0.066,0.533,0.098,1.047,0.229c0.006,0,0.012,0.001,0.017,0.001
				c0.172,0.029,0.346,0.058,0.489,0.087c-0.03,0.008-0.061,0.015-0.091,0.023c0.039,0.012,0.079,0.022,0.12,0.035
				c-1.18,0.315-2.388,0.547-3.625,0.719c-1.928,0.201-3.856,0.317-6.359,0.374v-0.08c-0.032,0-0.065,0-0.096,0.001l-0.997,0.079
				c-0.259,0-0.517,0.029-0.804,0.029c-0.029,0-0.087,0-0.144,0c-0.603,0.087-1.265,0.172-2.1,0.288v-0.087l-0.691,0.374
				c-0.576,0.172-1.035,0.46-1.468,0.863c-0.777,0.748-1.294,1.928-1.294,2.82c0.058,0.317,0.087,0.604,0.087,0.863
				C396.624,257.709,396.796,258.199,397.285,258.976z"/>
			<path d="M54.024,131.838c-0.23-0.058-0.46-0.087-0.777-0.087c-1.352,0-2.59,0.921-2.906,2.186l-0.373,1.554l-1.928,7.911
				c-0.144,0.633-0.288,1.295-0.403,1.985l-0.172,0.921l-0.087-0.029l-0.172,1.18c-0.288,1.352-0.403,2.82-0.346,4.46
				c0.029,1.18,0.805,2.215,1.929,2.532l0.69,0.144v-0.058c0.46,0,0.921-0.116,1.324-0.346c0.518-0.315,1.122-0.949,1.18-1.553
				c0.317-2.1,0.834-4.143,1.353-6.157l0.402-1.525l1.008-4.027l1.38-5.409C56.499,133.939,55.578,132.299,54.024,131.838z"/>
			<path d="M61.793,136.269c-0.95,0-2.044,0.576-2.273,1.669l-0.748,4.143c-0.748,4.201-1.497,8.401-2.1,12.63
				c-0.087,0.604-0.144,1.151,0.201,1.727c0.317,0.489,0.778,0.863,1.352,1.035l0.505,0.133c0.015,0,0.028,0,0.043,0v-0.076
				c0.921,0,1.985-0.604,2.186-1.64c1.035-5.553,2.072-11.105,3.051-16.687c0.172-0.691,0.116-1.265-0.202-1.812
				C63.461,136.873,62.943,136.471,61.793,136.269z"/>
			<path d="M68.237,141.448c-1.237,0-2.186,0.979-2.243,2.273c-0.26,3.998-0.518,8.027-0.518,12.055
				c0,1.122,0.949,2.071,2.071,2.071c0.548,0,1.065-0.201,1.469-0.604c0.373-0.374,0.547-0.805,0.603-1.468
				c0.373-4.027,0.633-8.027,0.891-12.055c0.058-0.547-0.143-1.093-0.547-1.524C69.503,141.707,68.87,141.448,68.237,141.448z"/>
			<path d="M77.818,145.966c-1.267,0-2.273,1.008-2.331,2.302c-0.087,2.416-0.172,4.834-0.23,7.221
				c-0.029,0.576,0.201,1.151,0.632,1.582c0.432,0.432,1.035,0.691,1.641,0.691c1.237,0,2.215-0.979,2.273-2.273l0.172-3.683
				l0.143-3.54c0.029-0.576-0.172-1.122-0.603-1.553C79.054,146.225,78.451,145.966,77.818,145.966z"/>
			<path d="M132.855,317.61c2.331-4.833,5.006-9.58,7.625-14.155c0.288-0.518,0.374-1.122,0.23-1.698
				c-0.144-0.576-0.518-1.064-1.007-1.352c-0.346-0.201-0.72-0.288-1.093-0.288c-0.805,0-1.582,0.403-1.985,1.064
				c-0.836,1.495-1.669,2.992-2.475,4.488c-0.603,1.035-1.18,2.071-1.812,3.337c-1.122,2.273-2.273,4.603-3.05,7.106
				c-0.23,0.805,0.143,1.727,0.891,2.186c0.288,0.144,0.633,0.259,1.008,0.259C131.934,318.56,132.568,318.185,132.855,317.61z"/>
			<path d="M139.214,325.81l0.921-1.727l0.836-1.583c1.495-2.704,3.02-5.495,3.595-8.545c0.315-1.495-0.431-2.847-2.474-3.309
				c-1.093,0-2.331,0.719-2.561,1.928c-0.23,0.949-0.548,1.841-0.863,2.704c-0.777,1.784-1.727,3.511-2.675,5.236l-1.267,2.302
				c-0.403,0.748-0.748,1.497-1.38,2.762l-0.691,1.554c-0.26,0.603-0.46,1.18-0.547,1.755c-0.087,0.518-0.144,1.035-0.144,1.553
				c-0.058,1.035,0.691,2.043,1.783,2.36l0.633,0.144v-0.058c1.123,0,2.1-0.777,2.36-1.783c0.028-0.201,0.116-0.489,0.201-0.748
				C137.603,328.802,138.408,327.306,139.214,325.81z"/>
			<path d="M143.241,334.872c0.49-1.064,1.008-2.129,1.469-3.223c0.576-1.294,1.208-3.021,1.208-4.746
				c0.029-0.489-0.172-0.979-0.547-1.352c-0.374-0.403-0.891-0.604-1.41-0.604c-1.093,0-1.956,0.863-1.985,2.158l-0.172,0.834
				c-0.144,0.576-0.317,1.151-0.548,1.727c0.003-0.009,0-0.02,0-0.028c-0.489,1.151-1.035,2.273-1.582,3.395l-0.863,1.783
				c-0.661,1.468-1.323,2.906-1.928,4.402c-0.315,0.748,0.202,1.755,0.863,2.158c0.288,0.144,0.633,0.259,0.979,0.259
				c0.748,0,1.381-0.374,1.669-0.95C141.256,338.958,142.119,337.232,143.241,334.872z"/>
			<path d="M147.645,342.151c-0.231-0.114-0.491-0.201-0.98-0.201c-0.116,0-0.259,0-0.403,0c-0.403,0.116-0.891,0.432-1.064,0.834
				c-0.979,2.302-1.956,4.633-2.876,6.963c-0.374,0.949-0.72,1.928-1.065,2.906c-0.46,1.323-0.719,2.704-0.949,4.056
				c-0.087,0.432-0.116,0.892,0.172,1.381c0.23,0.374,0.603,0.691,1.064,0.834l0.381,0.11c0.007,0,0.014,0,0.022,0v-0.081
				c0.748,0,1.612-0.46,1.755-1.267c0.317-1.553,0.633-3.079,1.151-4.546c0.518-1.495,1.093-2.963,1.468-3.998l0.979-2.302
				l0.979-2.273c0.202-0.46,0.288-0.863,0.172-1.352C148.335,342.784,148.018,342.381,147.645,342.151z"/>
			<path d="M213.096,163.17c0,0,0,0,0,0.028c0.029,0,0.029,0,0.029,0S213.126,163.198,213.096,163.17z"/>
			<path d="M289.712,153.446c-0.46-0.259-0.979-0.403-1.497-0.403c-1.064,0-2.071,0.576-2.876,1.985
				c-0.738,1.23-1.462,2.459-2.312,3.595c-0.168,0.246-0.336,0.49-0.51,0.732l0.118-0.101c0.061-0.075,0.12-0.151,0.173-0.228
				c-0.044,0.066-0.09,0.131-0.138,0.195l0.194-0.168c-0.287,0.46-0.747,0.95-1.352,1.525c-0.288,0.184-0.599,0.341-0.803,0.369
				c-0.132,0.066-0.268,0.128-0.408,0.191c0.096-0.045,0.19-0.091,0.262-0.127l-0.729,0.229l-0.277,0.087c0,0-0.23,0-0.46,0
				c-0.23,0-0.489,0-0.633,0c-0.058,0-0.116,0-0.116,0c-0.181-0.039-0.361-0.081-0.537-0.126c-0.088-0.014-0.176-0.028-0.268-0.047
				c0.052,0.006,0.101,0.01,0.151,0.016c-0.431-0.111-0.852-0.237-1.273-0.389c-0.127-0.064-0.252-0.128-0.374-0.192
				c-0.057-0.022-0.116-0.045-0.171-0.067c0.029,0.006,0.059,0.014,0.089,0.022c-0.788-0.419-1.498-0.867-2.247-1.374l-1.554-1.41
				c-0.432-0.432-0.891-0.892-1.439-1.209c-0.661-0.373-1.582-0.632-2.273-0.632c-0.921,0-1.582,0.374-2.331,0.949
				c-0.431,0.317-0.748,0.633-1.007,1.064c-0.317,0.633-0.603,1.265-0.863,1.956l-0.489,1.294l-0.346,0.863l-0.603,1.439
				c-0.979,2.302-1.842,3.971-2.849,5.438c-0.26,0.317-0.548,0.604-1.238,1.093c-0.054,0-0.454-0.057-0.74-0.099
				c0.016,0.005,0.031,0.009,0.05,0.014c-0.015,0-0.023,0-0.029,0c-0.006,0-0.015,0-0.029,0c-0.023-0.008-0.044-0.016-0.065-0.024
				c-0.129-0.02-0.222-0.034-0.222-0.034c-0.346-0.172-0.662-0.374-1.352-0.834c-0.432-0.432-0.836-0.921-1.209-1.468
				c-0.604-0.834-1.18-1.698-1.727-2.59c-0.489-0.805-0.891-1.669-1.41-2.906l-0.317-0.777c-0.172-0.518-0.431-1.007-0.777-1.468
				c-0.603-0.863-1.267-1.352-2.1-1.582c-0.288-0.087-0.633-0.116-0.979-0.116c-0.633,0-1.237,0.144-1.698,0.46
				c-0.403,0.259-0.777,0.547-1.15,0.863c-0.432,0.489-0.778,1.035-1.008,1.612l-0.373,0.777l-0.72,1.381
				c-0.978,1.928-1.955,3.855-3.222,5.667c-0.603,0.662-1.18,1.267-1.87,1.841c-0.26,0.172-0.518,0.317-0.777,0.46
				c0,0-0.153,0.022-0.347,0.051c-0.06,0.022-0.119,0.044-0.171,0.065c-0.082,0-0.164,0-0.246,0
				c-0.24,0.039-0.445,0.074-0.445,0.087c-0.518-0.116-1.008-0.23-1.468-0.374c-0.633-0.288-1.209-0.633-2.072-1.323
				c-0.288-0.432-0.518-0.834-0.719-1.295c-0.317-0.949-0.576-1.899-0.778-2.905c-0.086-1.525-0.058-2.992,0.087-4.546l0.26-1.9
				c0.201-0.891,0.344-1.783,0.373-2.733c0.058-1.035-0.518-1.899-1.18-2.646c-0.548-0.633-1.469-1.008-2.446-1.008
				c-0.603,0-1.208,0.144-1.754,0.46c-0.548,0.346-0.95,0.748-1.238,1.265l-0.46,0.633c-1.955,2.416-4.344,5.236-7.163,7.509
				c-0.49,0.374-1.035,0.661-1.094,0.661c-0.113,0.016-0.225,0.036-0.339,0.057c-0.05,0.02-0.099,0.04-0.15,0.058
				c-0.028,0-0.028,0-0.058,0c0.032-0.01,0.066-0.023,0.099-0.036c-0.083,0.017-0.168,0.036-0.252,0.057
				c0.047-0.007,0.097-0.013,0.147-0.02c-0.008,0.001-0.022,0.007-0.023,0.027c-0.001,0-0.002,0.001-0.003,0.001
				c-0.107,0.014-0.207,0.027-0.305,0.037c-0.117,0.031-0.233,0.067-0.355,0.106c-0.171,0-0.315,0.029-0.517,0.029
				c-0.005,0-0.007,0-0.01,0c0.103,0.016,0.202,0.035,0.297,0.058c-0.168-0.018-0.322-0.038-0.483-0.064
				c-0.17-0.012-0.354-0.038-0.581-0.08l0.029-0.058c-0.172-0.086-0.317-0.172-0.46-0.259c-0.039-0.053-0.073-0.105-0.106-0.155
				l-0.181-0.133c-0.086-0.288-0.172-0.576-0.26-1.008c-0.005-0.135-0.005-0.267-0.007-0.401c-0.007-0.047-0.015-0.096-0.022-0.146
				c0.008,0.024,0.014,0.049,0.021,0.073c-0.008-0.718,0.018-1.412,0.066-2.144c0.432-2.847,1.294-5.437,2.1-7.624l0.805-1.956
				l0.432-0.949c0.489-1.093,0.978-2.186,1.352-3.136c0.431-0.92,0.834-1.87,0.834-2.906c0-0.748-0.346-1.64-0.863-2.158
				s-1.15-0.978-2.043-0.978c-0.603,0-1.18,0.201-1.698,0.403c-1.985,0.748-3.971,1.524-5.955,2.331
				c-1.151,0.402-2.302,0.834-3.452,1.294c-2.648,1.008-5.122,1.698-7.567,2.186c-0.891,0.058-1.727,0.116-2.619,0.116
				c-0.431,0-0.863,0-1.294-0.029c-0.346-0.087-0.633-0.172-0.921-0.259c-0.495-0.211-0.949-0.461-1.084-0.671
				c-0.19-0.131-0.374-0.27-0.556-0.422c0.143,0.116,0.315,0.23,0.46,0.344l-0.148-0.201c-0.081-0.105-0.169-0.21-0.255-0.315
				c-0.028-0.046-0.053-0.094-0.076-0.141l-0.211-0.29c0,0-0.029-1.151-0.058-1.151c0.116-0.575,0.315-1.151,0.489-1.495
				c0.691-1.41,1.497-2.704,2.36-3.884c1.323-1.612,2.675-3.079,4.143-4.546c1.87-1.812,3.913-3.453,5.955-5.064
				c6.445-4.834,12.515-8.43,18.155-10.875c1.698-0.691,3.423-1.352,5.177-1.928c0.979-0.344,1.497-1.265,1.238-2.186
				c-0.172-0.691-0.805-1.238-1.929-1.238c-0.086,0-0.143,0-0.229,0c-3.741,1.208-7.567,2.849-11.71,5.064
				c-4.403,2.36-8.776,5.236-13.004,8.545c-5.035,3.913-8.516,7.279-11.451,11.077c-1.122,1.439-2.244,2.935-2.876,4.632
				l-0.432,1.267c-0.058,0.489-0.143,0.949-0.172,1.41h-0.086l0.143,1.008c0.029,0.576,0.202,1.122,0.49,1.64
				c0.172,0.518,0.489,1.035,0.891,1.468c0.46,0.604,1.035,1.151,1.582,1.468c0.805,0.46,1.524,0.777,2.416,1.122
				c0.691,0.259,1.612,0.317,2.763,0.374c0.346,0.029,0.691,0.058,1.007,0.058c1.727,0,3.453-0.317,5.207-0.691
				c1.871-0.373,3.712-0.978,5.496-1.64l1.668-0.633c1.111-0.385,2.199-0.792,3.471-1.201c0.157-0.06,0.314-0.119,0.47-0.18
				c0.087-0.029,0.172-0.058,0.23-0.087c-0.008,0.018-0.016,0.036-0.024,0.054c0.027-0.008,0.053-0.017,0.081-0.025
				c-0.949,2.1-1.899,4.201-2.733,6.358c-0.979,2.474-1.612,5.265-1.841,8.315c-0.116,1.267,0.058,2.648,0.518,4.201
				c0.315,0.949,0.92,1.841,1.928,2.82c0.632,0.603,1.41,0.978,2.1,1.265c0.489,0.288,1.064,0.432,1.611,0.46
				c0.49,0.116,0.921,0.144,1.64,0.144c0.058,0,0.087,0,0.144,0c0.603-0.058,1.209-0.116,1.812-0.201
				c0.805-0.087,1.612-0.346,2.416-0.72c1.008-0.403,2.014-1.035,3.051-1.928c0.358-0.287,0.677-0.572,1.087-0.842
				c0.059-0.054,0.118-0.109,0.177-0.165c0.001,0.017,0.003,0.034,0.005,0.051c0.027-0.017,0.054-0.034,0.082-0.051
				c0.028,0.604,0.116,1.209,0.202,1.784c0.402,2.675,1.208,4.805,2.387,6.53c0.719,1.064,1.698,1.812,3.02,2.82
				c1.035,0.805,2.418,1.265,3.799,1.727c0.862,0.259,1.841,0.346,3.365,0.432c0.777-0.087,1.554-0.172,2.331-0.259
				c0.633-0.23,1.267-0.46,1.9-0.748c1.267-0.72,2.331-1.553,3.424-2.503c0.517-0.547,1.007-1.122,1.468-1.755
				c0.431-0.518,0.834-1.035,1.208-1.611c0.466-0.686,0.847-1.393,1.271-2.119c0.057-0.118,0.113-0.236,0.169-0.355
				c0.007,0.012,0.014,0.023,0.021,0.035c0.013-0.021,0.024-0.043,0.037-0.064c1.18,2.1,2.503,3.826,3.971,5.178
				c0.863,0.805,1.842,1.324,2.791,1.784c1.035,0.489,2.1,0.777,3.106,0.805c0.289,0,0.576,0,0.863,0.029
				c0.633-0.058,1.267-0.144,1.87-0.201l0.778-0.259c0.661-0.23,1.265-0.547,1.87-0.95c1.985-1.238,3.395-3.54,4.286-5.151
				c0.778-1.41,1.525-3.106,2.188-5.035c0.171-0.467,0.322-0.934,0.543-1.417c0.021-0.065,0.04-0.129,0.061-0.194
				c0.008,0.006,0.015,0.01,0.023,0.016c0.013-0.024,0.023-0.049,0.035-0.074c0.95,0.72,1.985,1.294,3.107,1.841
				c1.064,0.518,2.243,0.805,3.222,1.035c0.691,0.116,1.41,0.201,2.13,0.259c0.719-0.029,1.438-0.087,2.129-0.201v0.087l1.237-0.374
				c0.661-0.259,1.295-0.547,1.928-0.834c0.548-0.403,1.122-0.805,1.669-1.237c0.46-0.403,0.863-0.863,1.209-1.381
				c1.323-1.755,2.416-3.654,3.768-6.013c0.403-0.691,0.49-1.524,0.288-2.302C290.863,154.452,290.373,153.848,289.712,153.446z
				 M216.174,144.355c-0.086,0.029-0.201,0.087-0.288,0.116c-0.028,0-0.028,0-0.028,0
				C215.974,144.44,216.089,144.382,216.174,144.355z M213.096,163.198c-0.028-0.028-0.058-0.058-0.116-0.058
				c0.058,0,0.087,0.029,0.116,0.029c0-0.029-0.028-0.087-0.028-0.116c0-0.029,0-0.029-0.029-0.029h0.029v0.029
				c0.028,0.058,0.028,0.086,0.058,0.143c0.028,0.087,0.058,0.172,0.086,0.259C213.184,163.372,213.154,163.285,213.096,163.198z
				 M236.66,171.312v-0.029c0.259-0.029,0.547-0.058,0.805-0.087C237.207,171.254,236.919,171.283,236.66,171.312z M258.468,170.132
				c-0.154-0.051-0.284-0.103-0.413-0.174c0.002,0.001,0.006,0.002,0.01,0.002c0.143,0.029,0.259,0.087,0.403,0.144
				c0.058,0.028,0.116,0.058,0.143,0.086C258.553,170.162,258.525,170.132,258.468,170.132z"/>
			<path d="M404.507,177.323l-1.294-7.91c-0.116-0.662-0.691-1.267-1.18-1.554c-0.317-0.172-0.661-0.288-1.352-0.288
				c-0.202,0-0.432,0-0.662,0c-0.691,0.23-1.265,0.661-1.582,1.208c-0.317,0.604-0.403,1.238-0.23,2.043
				c0.432,2.503,0.892,4.977,1.352,7.451c0.317,1.899,0.748,3.768,1.381,5.611c0.346,1.035,1.237,1.755,2.273,1.755l0.633-0.087
				c1.237-0.346,1.956-1.612,1.668-2.878C405.082,180.892,404.794,179.108,404.507,177.323z"/>
			<path d="M414.289,160.264c-0.489-0.518-1.208-0.777-1.928-0.777c-0.72,0-1.497,0.346-2.043,0.921
				c-0.46,0.518-0.691,1.122-0.633,1.755l0.143,2.158c0.23,3.021,0.46,6.014,0.836,9.005c0.116,0.748,0.23,1.267,0.748,1.783
				c0.459,0.46,1.093,0.72,1.783,0.72c0.662,0,1.324-0.259,1.813-0.748c0.459-0.489,0.719-1.122,0.69-1.755
				c-0.058-3.74-0.344-7.451-0.633-11.163C415.009,161.328,414.779,160.725,414.289,160.264z"/>
			<path d="M424.674,164.666c-0.172-1.669-0.373-3.28-0.574-4.948c-0.116-0.892-0.289-1.524-0.864-2.1
				c-0.574-0.576-1.323-0.892-2.099-0.892c-0.778,0-1.525,0.317-2.101,0.892c-0.489,0.46-0.949,1.323-0.862,2.1l0.576,4.948
				l0.143,1.323c0.172,1.41,0.346,2.878,0.834,4.201c0.49,1.267,1.468,2.014,2.647,2.014c0.719,0,1.41-0.288,1.928-0.805
				c0.46-0.432,0.863-1.237,0.805-1.928c-0.116-1.064-0.202-2.1-0.288-3.165L424.674,164.666z"/>
			<path d="M434.514,155.085c-0.259-0.603-0.489-1.005-1.007-1.322c-0.26-0.144-0.575-0.23-1.209-0.23c-0.143,0-0.315,0-0.489,0
				c-0.547,0.172-1.007,0.547-1.295,1.007c-0.259,0.46-0.431,1.18-0.23,1.669l0.432,1.064l1.122,2.849
				c0.23,0.604,0.518,1.007,0.979,1.294c0.346,0.172,0.72,0.288,1.122,0.288l0.518-0.058c0.575-0.172,1.093-0.604,1.381-1.151
				c0.259-0.489,0.288-1.008,0.143-1.497C435.522,157.674,435.033,156.379,434.514,155.085z"/>
		</g>
	</g>
</g>
<g>
</g>
<g>
</g>
<g>
</g>
<g>
</g>
<g>
</g>
<g>
</g>
<g>
</g>
<g>
</g>
<g>
</g>
<g>
</g>
<g>
</g>
<g>
</g>
<g>
</g>
<g>
</g>
<g>
</g>
</svg>
