<?xml version="1.0" encoding="iso-8859-1"?>
<!-- Generator: Adobe Illustrator 19.0.0, SVG Export Plug-In . SVG Version: 6.00 Build 0)  -->
<svg version="1.1" id="Layer_1" xmlns="http://www.w3.org/2000/svg" xmlns:xlink="http://www.w3.org/1999/xlink" x="0px" y="0px"
	 viewBox="0 0 512 512" style="enable-background:new 0 0 512 512;" xml:space="preserve">
<g>
	<g>
		<g>
			<path d="M450.938,411.81c-0.409-2.829-1.518-5.688-2.713-8.284c-1.167-2.537-2.596-4.813-4.347-7.03
				c-1.897-2.421-4.142-4.55-6.155-6.884c-0.466-0.699-0.904-1.4-1.313-2.158c-0.262-0.788-0.466-1.575-0.641-2.393
				c-0.264-3.208-0.118-6.417-0.088-9.654c0-4.171-0.67-8.429-1.662-12.484c-0.934-3.851-2.654-7.527-4.375-11.026
				c-1.167-2.334-2.537-4.55-3.879-6.767c-3.243-5.311-6.666-10.528-10.383-15.499c0.593-0.766,1.179-1.54,1.691-2.381
				c1.166-1.896,1.953-4.171,2.158-6.388c0.292-2.917-0.029-5.659-0.496-8.517c-0.438-2.567-1.43-5.163-2.859-7.321
				c-1.137-1.721-2.829-2.975-4.2-4.493c-0.147-0.262-0.292-0.496-0.438-0.729c-0.379-1.196-0.641-2.391-0.934-3.617
				c-0.437-1.896-1.313-3.733-2.334-5.395c-1.316-2.15-3.358-3.722-5.645-4.739c0.062-0.342,0.175-0.644,0.218-1.009
				c0.175-1.545,0.264-3.063,0.117-4.638c-0.232-2.829-1.049-5.221-2.304-7.759c-0.963-2.012-2.042-3.997-3.005-6.038
				c-1.487-3.675-2.887-7.38-4.842-10.822c-2.48-4.463-6.33-8.197-9.626-12.105c-1.342-1.838-2.655-3.647-3.675-5.688
				c-0.175-0.584-0.32-1.167-0.438-1.75c-0.291-3.267-0.408-6.534-1.225-9.742c-0.758-2.858-2.217-5.63-4.114-7.876
				c-1.392-1.612-3.05-2.916-4.734-4.206c0.113,0.089,0.223,0.178,0.329,0.267c-0.319-0.228-0.639-0.491-0.958-0.749
				c-0.118-0.09-0.236-0.18-0.355-0.272c-1.751-1.429-3.413-2.916-4.872-4.667c-0.554-0.817-1.021-1.662-1.487-2.538
				c-0.788-2.129-1.313-4.346-1.808-6.593c-0.087-0.379-0.295-0.693-0.461-1.031c0.458-0.702,0.976-1.382,1.395-2.091
				c2.158-3.704,3.005-7.847,3.5-12.018c0.438-3.821,0.117-8.05-1.808-11.434c-0.379-0.554-0.788-1.08-1.226-1.634
				c-0.729-0.817-1.516-1.545-2.45-2.158c-1.545-1.051-3.15-1.867-4.871-2.421c-0.029-0.146-0.059-0.262-0.088-0.379
				c-0.205-1.108-0.466-2.1-0.816-3.18c-0.758-2.334-2.159-4.405-3.997-6.009c-1.75-1.518-3.909-2.391-6.067-3.092
				c-0.859-0.268-1.765-0.384-2.657-0.543c0.335-0.373,0.739-0.689,0.994-1.119c1.108-1.896,1.108-3.733,0.758-5.833
				c-0.584-3.53-1.487-7.001-2.188-10.5c-0.788-3.733-1.605-7.438-2.391-11.172c-0.729-3.384-1.284-6.767-1.867-10.18
				c-0.467-2.713-1.342-5.105-2.45-7.613c-0.525-1.167-1.487-2.421-2.362-3.354c-0.876-0.992-1.809-1.808-2.829-2.654
				c-1.78-1.459-3.588-2.858-5.134-4.609c-0.35-0.525-0.67-1.108-0.991-1.691c-0.758-2.188-1.079-4.463-1.429-6.738
				c-0.409-2.596-0.817-5.105-1.547-7.613c-1.137-3.879-3.588-7.234-5.804-10.559c-2.567-3.792-4.493-7.905-6.825-11.814
				c-1.6-2.649-3.714-5.007-6.065-7.062c-0.78-0.921-1.563-1.834-2.307-2.797c0.263,0.35,0.554,0.699,0.817,1.08
				c-1.605-2.129-3.239-4.2-4.987-6.184c-1.283-1.488-2.596-2.888-3.851-4.376c-0.816-1.108-1.633-2.217-2.479-3.325
				c-1.605-2.1-3.296-3.997-5.251-5.776c-0.904-0.817-1.867-1.575-2.742-2.362c-1.721-1.545-3.325-3.063-4.784-4.813
				c-2.246-3.092-3.879-6.622-5.95-9.859c-1.838-2.916-4.229-5.513-6.709-7.933c-1.254-1.225-2.654-2.276-4.171-3.151
				c-0.584-0.262-1.196-0.526-1.808-0.788c-0.992-0.32-1.983-0.554-3.005-0.729C251.247,0.117,249.817,0,248.417,0
				c-2.129,0-4.259,0.233-6.358,0.525c-1.867,0.262-3.704,0.904-5.396,1.721c-1.662,0.787-3.237,1.75-4.667,2.946
				c-2.217,1.896-3.879,4.229-5.105,6.884c-0.729,1.662-1.43,3.325-2.1,5.017c-1.196,2.537-2.713,4.901-4.112,7.35
				c-0.641,1.137-1.254,2.276-1.838,3.442c-0.817,1.604-1.518,3.268-2.217,4.93c-0.992,2.421-1.809,4.93-2.743,7.351
				c-0.758,2.012-1.575,4.025-2.391,6.009c-0.502,1.156-1.01,2.298-1.529,3.436c-0.81,0.796-1.647,1.56-2.409,2.427
				c-1.604,1.867-2.916,3.997-4.2,6.096c-2.159,3.53-3.471,7.439-4.96,11.23c-0.846,1.867-1.867,3.617-3.034,5.309
				c-0.437,0.496-0.875,0.963-1.371,1.43c-1.225,0.758-2.421,1.342-3.733,1.954c-1.692,0.699-3.354,1.43-4.93,2.334
				c-1.633,0.934-3.18,2.246-4.521,3.559c-0.438,0.467-0.846,0.963-1.196,1.459c-0.817,1.021-1.488,1.983-2.129,3.092
				c-1.254,2.188-2.1,4.667-3.005,7.001c-0.967,2.509-1.905,5.057-2.722,7.646c-0.615-0.342-1.292-0.586-2.033-0.586
				c-0.203,0-0.408,0-0.613,0c-4.842,0-9.742,0.992-14.234,2.742c-4.726,1.838-9.16,4.608-13.098,7.788
				c-1.488,1.196-2.888,2.45-4.23,3.85c-1.604,1.751-2.158,3.821-2.158,6.126s1.254,4.55,2.567,6.301
				c1.051,1.429,2.276,2.654,3.413,3.967c-0.262,1.166-0.641,2.275-1.08,3.413c-0.788,2.1-1.634,4.171-2.334,6.3
				c-1.08,3.442-1.371,7.001,0.117,10.355c1.487,3.325,4.141,5.659,7.204,7.556c1.75,1.08,3.792,1.867,5.717,2.625
				c0.379,0.146,0.758,0.321,1.137,0.467c0.029,0.029,0.088,0.059,0.146,0.088c0.088,0.146,0.146,0.291,0.233,0.437
				c0.252,0.808,0.39,1.649,0.568,2.479c-2.64,1.544-5.292,3.126-7.656,5.105c-2.975,2.45-5.396,5.338-7.234,8.722
				c-2.781,5.108-3.326,11.23-4.079,16.903c-0.228,1.758-0.465,3.482-0.996,5.178c-0.146,0.262-0.262,0.496-0.408,0.729
				c-1.137,1.313-2.362,2.45-3.675,3.53c-0.787,0.641-1.575,1.283-2.334,1.954c-0.758,0.699-1.575,1.429-2.334,2.129
				c-2.334,2.129-4.2,4.755-5.688,7.554c-2.362,4.463-3.208,9.713-3.296,14.731c-0.029,2.48,0.029,5.017-0.205,7.525
				c-0.088,0.379-0.175,0.729-0.291,1.108c-0.058,0.059-0.088,0.117-0.117,0.175c-1.604,1.838-3.296,3.675-4.725,5.688
				c-1.604,2.276-2.946,4.667-4.026,7.234c-1.312,3.063-2.217,6.068-2.45,9.392c-0.205,2.975,0.233,5.833,0.817,8.721
				c0.239,1.248,1,2.283,1.952,3.113c-1.586,1.212-3.113,2.494-4.489,3.918c-2.334,2.362-4.142,5.338-4.93,8.547
				c-0.35,1.342-0.379,2.742-0.262,4.112c0.117,2.042,0.963,3.879,1.867,5.688c0.613,1.166,1.634,2.217,2.538,3.151
				c0.01,0.01,0.024,0.017,0.035,0.029c-2.319,2.186-4.752,4.28-6.948,6.587c-2.275,2.391-4.229,5.222-6.067,7.992
				c-4.2,6.184-7.584,13.039-9.392,20.331c-1.4,5.601-1.75,11.463-1.662,17.21c0.059,3.268,0.321,6.534,0.088,9.8
				c-0.174,0.875-0.408,1.75-0.699,2.596c-0.729,1.43-1.633,2.743-2.567,4.026c-3.267,4.083-6.388,8.167-8.722,12.863
				c-2.567,5.222-4.083,10.851-4.347,16.655c-0.117,2.538,0.409,5.163,0.846,7.642c0.291,1.867,0.846,3.704,1.313,5.513
				c0.496,1.897,0.963,3.763,1.4,5.63c-0.029,0.117-0.058,0.203-0.088,0.32c-0.934,2.042-1.721,4.083-2.188,6.3
				c-0.641,3.063-0.641,6.185-0.117,9.246c1.049,6.184,4.405,11.551,8.926,15.78c4.608,4.317,10.617,6.972,16.626,8.664
				c3.063,0.875,6.3,1.196,9.451,1.575c3.384,0.379,6.796,0.409,10.18,0.32c3.997-0.117,7.964-0.554,11.901-1.08
				c2.596-0.35,5.222-0.641,7.818-1.051c4.55-0.729,9.13-1.371,13.709-2.129c0,0,0,0.029-0.029,0.029
				c1.4-0.175,2.743-0.379,4.142-0.554c3.879-0.496,7.847-1.108,11.755-0.904c0.117,0.029,0.233,0.088,0.379,0.117
				c3.092,1.692,5.776,3.968,8.693,5.892c3.267,2.159,6.913,3.704,10.646,4.813c3.909,1.196,8.167,1.575,12.221,1.75
				c4.522,0.174,8.955-0.291,13.418-0.934c0.915-0.126,1.793-0.399,2.693-0.581c-0.317,2.887-0.604,5.774-0.943,8.662
				c-0.526,3.821-1.051,7.671-1.575,11.492c-0.291,2.188-0.584,4.346-0.817,6.534c-0.203,1.691-0.203,3.529,0.205,5.192
				c0.526,2.275,1.662,4.112,3.296,5.747c1.808,1.78,4.346,2.654,6.679,3.53c1.371,0.496,2.771,0.846,4.171,1.225
				c4.025,1.108,8.08,2.013,12.252,2.538c5.747,0.699,11.492,0.672,17.268,0.672c4.026-0.029,8.08-0.029,12.135-0.029
				c4.055,0.029,8.11,0.058,12.135-0.291c8.05-0.729,16.13-1.488,24.152-2.537c4.579-0.613,9.072-1.43,13.562-2.421
				c3.763-0.846,7.555-1.926,10.676-4.259c4.842-3.588,6.884-9.713,7.788-15.489c0.99-6.271,1.838-12.485,1.283-18.843
				c-0.233-2.596-0.699-5.163-1.08-7.759c-0.116-0.861-0.31-1.706-0.448-2.559c3.199-0.624,6.35-1.559,9.345-2.662
				c5.338-1.954,10.237-4.872,15.401-7.204c1.225-0.438,2.479-0.817,3.762-1.08c0.643-0.029,1.255,0,1.897,0.029
				c0.875,0.205,1.721,0.467,2.567,0.787c1.867,0.846,3.733,1.692,5.601,2.45c2.742,1.108,5.688,1.459,8.576,1.692
				c3.237,0.233,6.534-0.35,9.712-0.904c2.801-0.496,5.571-1.196,8.256-2.217c5.203-1.945,10.109-4.749,14.957-7.504
				c1.827-0.227,3.655-0.432,5.49-0.715c1.953-0.291,3.909-0.875,5.833-1.313c1.926-0.467,3.85-1.196,5.717-1.838
				c2.335-0.817,4.696-1.575,7.059-2.334c2.975-0.963,5.921-1.809,8.81-3.034c5.017-2.129,9.626-5.776,11.814-10.881
				c0.613-1.4,0.934-2.596,1.137-4.113C451.376,415.164,451.172,413.589,450.938,411.81z M185.879,101.626
				c0.641-1.692,1.313-3.354,2.012-5.017c0.554-1.196,1.137-2.305,1.867-3.413c0.554-0.613,1.108-1.167,1.75-1.721
				c0.963-0.67,2.013-1.313,3.034-1.926c1.245-0.747,2.478-1.514,3.921-2.56c0.003-0.001,0.009,0.001,0.013,0
				c0.069-0.05,0.139-0.101,0.209-0.153c0.094-0.036,0.184-0.076,0.273-0.12c0.346-0.273,0.676-0.548,0.994-0.829
				c0.058-0.079,0.113-0.159,0.162-0.246c0.05-0.046,0.098-0.091,0.147-0.138c0.006-0.012,0.007-0.025,0.013-0.037
				c0.629-0.593,1.204-1.204,1.765-1.926c0.554-0.613,1.021-1.313,1.371-2.042s0.672-1.488,0.992-2.246
				c1.08-2.567,1.926-5.222,2.538-7.905c0.175-0.875,0.35-1.721,0.525-2.625l0.255-1.328l0.036-0.188
				c0.817-0.934,1.633-1.867,2.479-2.77c0.817-0.934,1.662-1.838,2.45-2.801c1.662-1.926,3.208-3.879,4.667-5.921
				c1.08-1.604,2.012-3.354,2.946-5.075l0.496-0.934c1.167-2.159,2.276-4.346,3.354-6.593l1.313-2.77
				c0.496-1.08,0.992-2.129,1.518-3.18c1.166-2.334,2.421-4.579,3.762-6.825l1.08-1.78c0.845-1.4,1.721-2.829,2.479-4.288
				c1.021-2.042,1.75-4.259,2.45-6.417c0.321-0.992,0.641-2.012,1.021-3.004c0.379-0.7,0.788-1.4,1.254-2.1
				c0.583-0.67,1.196-1.254,1.926-1.838c0.846-0.554,1.721-1.08,2.654-1.516c1.041-0.355,2.084-0.651,3.188-0.907
				c0.257-0.06,0.515-0.118,0.78-0.172c1.049-0.088,2.071-0.146,3.151-0.146c0.496,0,0.992,0,1.545,0.029
				c0.584,0.146,1.166,0.291,1.75,0.467c0.321,0.176,0.672,0.379,0.992,0.584c1.634,1.371,3.237,3.005,4.988,5.192
				c1.604,2.188,2.858,4.609,4.055,6.972c1.137,2.217,2.334,4.521,3.792,6.622c1.691,2.362,3.762,4.405,5.746,6.417
				c1.46,1.43,2.917,2.888,4.23,4.434c1.021,1.4,1.953,2.829,2.916,4.288l1.751,2.655c1.136,1.604,2.391,3.121,3.645,4.638
				l0.904,1.08l1.721,2.538l1.08,1.604c0.992,1.488,2.1,2.888,3.208,4.346c0.641,0.875,1.195,1.838,1.75,2.859
				c-0.008,0.008-0.017,0.016-0.024,0.024c0.001,0.002,0.002,0.005,0.003,0.007c-0.228,0.222-0.505,0.421-0.533,0.786
				c1.313,1.808,2.48,3.762,3.647,5.688l1.633,2.713c1.062,1.651,2.231,3.213,3.53,4.987c0.474,0.602,0.951,1.204,1.429,1.809
				c0.008,0.01,0.015,0.02,0.023,0.029h0.007c0.029,0,0.32,0.321,0.35,0.379c0.991,1.4,1.953,2.801,2.771,4.317
				c0.904,2.421,1.342,4.901,1.897,7.73c0.291,1.516,0.584,3.063,0.904,4.608c0.437,1.867,1.225,3.617,1.924,5.105
				c1.372,2.829,3.647,5.046,5.863,7.175c0.934,0.934,1.897,1.838,2.771,2.829c0.35,0.525,0.67,1.08,0.963,1.662
				c0.437,1.429,0.787,2.829,1.021,4.229c0.643,5.222,1.254,10.5,1.751,15.751l0.174,2.393c0.146,1.954,0.32,3.908,0.554,5.862
				l0.087,0.934c0.35,3.005,0.672,6.126,1.721,9.013c0.359,0.974,0.763,1.79,1.211,2.547c0.07,0.096,0.198,0.15,0.272,0.244
				c-0.036,0.006-0.075,0.002-0.112,0.009c0,0.029,0.029,0.029,0.029,0.058c-2.423,0.409-4.842,1.021-7.235,1.634
				c-1.75,0.466-3.471,0.904-5.25,1.283c-0.35,0.029-0.699,0.029-1.051,0.029c0,0-0.729,0-0.757-0.029
				c-0.467-0.117-0.905-0.233-1.372-0.409c-1.108-0.525-2.158-1.108-3.239-1.662c-1.487-0.817-2.975-1.633-4.55-2.305
				c-3.821-1.634-8.051-2.45-12.543-2.45c-1.721,0-3.472,0.117-5.222,0.379c-3.792,0.526-7.293,1.692-11.172,3.034
				c-0.643,0.234-1.254,0.496-1.897,0.758c-0.729,0.291-1.459,0.584-2.246,0.817c-0.816-0.525-1.545-1.108-2.801-2.071
				c-1.545-1.225-3.151-2.188-4.871-3.005c-3.18-1.488-6.884-2.275-11.084-2.275c-0.846,0-1.692,0.058-2.538,0.117
				c-3.004,0.233-6.009,0.904-8.925,1.545l-1.225,0.175c-0.613,0.146-1.254,0.291-1.867,0.409c-0.029-0.029-0.058-0.059-0.088-0.088
				h-0.088c-0.904-1.283-1.809-2.537-2.684-3.821l-0.992-1.43c-1.372-1.983-2.684-3.559-4.083-4.93
				c-1.78-1.75-4.055-3.325-6.913-4.784c-5.979-2.946-12.688-2.975-19.251-3.063c-0.379-0.758-0.758-1.518-1.167-2.275
				c-0.525-1.021-1.08-1.983-1.662-2.946c-0.963-1.545-2.042-3.034-3.121-4.55c-0.146-0.174-0.291-0.379-0.437-0.554
				c0.058,0.088,0.117,0.146,0.175,0.234v0.146l-0.059-0.088c-1.342-1.78-2.829-3.383-4.346-5.017
				c-0.904-0.992-1.838-1.954-2.713-2.975c-2.028-2.347-4.438-4.977-7.501-6.841c0.001-0.002,0.002-0.003,0.002-0.006
				c-0.02-0.012-0.037-0.024-0.057-0.036C184.537,105.038,185.207,103.318,185.879,101.626z M152.393,164.251
				c0-0.029-0.029-0.029-0.058-0.058c0,0,0,0,0.029,0l0.029,0.029C152.393,164.251,152.393,164.251,152.393,164.251z
				 M152.45,164.339c0-0.029,0-0.029,0-0.058c0.203,0.233,0.379,0.496,0.554,0.758C152.831,164.806,152.655,164.572,152.45,164.339z
				 M148.629,150.25c-0.262-0.234-0.496-0.496-0.729-0.787c-0.146-0.205-0.291-0.438-0.613-1.342v-0.496
				c0-0.117-0.029-0.233-0.029-0.35c0,0.117,0.029,0.234,0.029,0.321v-0.379c0.496-2.275,1.167-4.521,1.926-6.738
				c0.379-1.167,0.729-2.305,1.049-3.471c0.233-0.963,0.35-1.983,0.467-3.442c0.117-0.817-0.058-1.838-0.437-3.004
				c-0.233-0.788-0.641-1.547-1.283-2.45c-0.758-1.051-1.634-1.983-2.508-2.946l-0.934-1.051c-0.291-0.437-0.584-0.875-0.817-1.429
				c1.312-1.4,2.742-2.655,4.229-3.88c2.801-2.012,5.776-3.792,8.896-5.25c2.625-1.021,5.454-1.75,9.305-2.305l0.203,0.029
				l0.205,0.029v-0.088l0.029,0.029c0.584,0.234,1.225,0.35,2.391,0.467c2.508,0.408,5.105,1.137,7.905,2.188
				c0.934,0.437,1.78,0.934,2.625,1.518c1.78,1.633,3.325,3.471,4.871,5.28l1.021,1.196c0.496,0.613,0.992,1.196,1.518,1.75
				c0.496,0.584,1.021,1.167,1.516,1.78c0.788,1.137,1.43,2.305,2.071,3.5l0.613,1.137c1.108,2.042,2.159,4.141,3.122,6.271
				c1.459,3.063,3.237,4.872,5.484,5.513c0.583,0.146,1.254,0.234,2.041,0.234c0.729,0,1.459-0.058,2.159-0.146l1.051-0.088
				c1.137-0.058,2.275-0.088,3.413-0.088c1.518,0,3.034,0.058,4.521,0.175c1.459,0.262,2.829,0.613,4.2,1.051
				c0.233,0.088,0.467,0.146,0.7,0.234c1.4,0.672,2.742,1.459,4.083,2.362c1.283,1.08,2.391,2.275,3.471,3.617l1.225,1.662
				l1.196,1.691c0.613,0.875,1.254,1.692,1.897,2.538c0.67,0.875,1.342,1.662,2.129,2.391c0.35,0.321,1.575,1.4,2.742,1.692
				c0.699,0.146,1.429,0.291,2.159,0.35c0.875,0,1.721-0.234,2.829-0.554l1.633-0.496l0.817-0.203
				c1.575-0.409,3.209-0.7,4.842-0.963c1.459-0.146,2.946-0.233,4.405-0.233c0.904,0,1.78,0.029,2.684,0.088
				c1.371,0.291,2.625,0.613,3.909,1.049c1.254,0.554,2.48,1.284,3.85,2.305c1.546,1.313,3.121,2.684,4.842,3.851
				c0.845,0.613,1.897,0.904,2.801,1.108c0.466,0.088,0.934,0.146,1.4,0.146c1.051,0,2.13-0.262,3.384-0.817l2.335-1.08l1.953-0.904
				c3.85-1.634,7.117-2.655,10.297-3.267c1.282-0.117,2.537-0.175,3.821-0.175c1.195,0,2.391,0.058,3.588,0.146
				c2.129,0.379,4.229,0.992,6.271,1.78l1.72,0.758c1.137,0.496,2.276,1.021,3.443,1.516c0.613,0.264,1.225,0.467,1.838,0.672
				c0.963,0.291,2.012,0.409,3.034,0.496l0.816,0.058c0.613,0,1.254-0.117,1.867-0.233l0.817-0.146c0.67-0.117,1.4-0.379,2.158-0.67
				c3.5-1.313,7.293-2.625,11.289-3.325c1.08-0.117,2.13-0.174,3.18-0.174c1.108,0,2.246,0.059,3.354,0.174
				c0.264,0.059,0.525,0.117,0.758,0.146c0.058,0.029,0.087,0.029,0.117,0.029h-0.029c1.313,0.291,2.596,0.613,3.88,1.08
				c0.699,0.35,1.341,0.758,2.537,1.692c0.32,0.525,0.611,1.021,0.904,1.575c0.291,0.817,0.554,1.633,0.729,2.946
				c0.176,1.313,0.32,2.713,0.963,3.85c0.409,0.729,0.875,1.459,1.72,1.954c0.672,0.409,1.342,0.7,2.071,0.992
				c1.167,0.525,2.189,1.108,3.268,1.838c0.205,0.174,0.409,0.408,0.963,1.225l0.232,0.758c0.118,1.751,0.029,3.442-0.174,5.163
				c-0.379,2.071-0.816,3.792-1.459,5.425c-0.758,1.633-1.721,3.208-3.005,4.96c-1.867,2.246-3.791,4.229-5.921,6.009
				c-1.547,1.108-3.237,2.071-5.163,2.946c-3.325,1.313-6.417,2.188-9.48,2.713c-1.049,0.088-2.1,0.146-3.18,0.146
				c-0.904,0-1.838-0.029-2.742-0.117c-1.897-0.321-3.704-0.817-5.513-1.518l-2.362-1.08c-0.554-0.234-1.051-0.526-1.575-0.817
				c-0.525-0.262-1.049-0.554-1.574-0.817c-1.751-0.817-3.384-1.225-4.987-1.225c-0.554,0-1.137,0.059-1.721,0.174
				c-1.721,0.291-3.239,0.992-4.987,1.751l-2.071,0.992l-2.1,0.963c-2.391,0.904-4.434,1.487-6.446,1.838
				c-0.672,0.058-1.342,0.088-1.983,0.088c-0.672,0-1.342-0.029-2.013-0.088c-1.604-0.321-3.062-0.729-4.55-1.254
				c-1.196-0.554-2.246-1.225-3.354-1.983l-1.546-1.254c-1.195-1.021-2.391-2.012-3.675-2.888c-1.574-1.08-3.559-1.691-5.454-1.691
				c-0.7,0-1.372,0.088-1.984,0.233c-1.516,0.379-3.004,0.904-4.491,1.43c-2.189,0.758-4.347,1.429-6.651,1.896
				c-1.051,0.088-2.1,0.146-3.151,0.146c-1.225,0-2.421-0.059-3.617-0.176c-3.442-0.613-6.271-1.342-8.867-2.362
				c-0.817-0.379-1.634-0.788-2.421-1.225c-1.372-0.729-2.655-1.633-3.909-2.538c-1.313-1.08-2.596-2.1-3.938-3.063
				c-1.108-0.758-2.567-1.166-4.2-1.166c-0.467,0-0.904,0.029-1.372,0.088c-1.342,0.146-2.713,0.409-4.055,0.641
				c-0.904,0.174-1.808,0.35-2.713,0.496c-1.284,0.117-2.567,0.174-3.851,0.174c-1.43,0-2.858-0.088-4.288-0.205
				c-3.034-0.525-5.979-1.342-9.013-2.537c-2.684-1.196-5.075-2.567-7.321-4.171c-2.071-1.809-3.85-3.851-5.804-6.097
				c-1.692-1.926-3.762-3.092-6.067-3.178c-0.875,0-1.78,0.117-2.684,0.233l-1.254,0.175c-1.108,0.117-2.217,0.174-3.296,0.174
				c-0.846,0-1.663-0.029-2.509-0.088c-1.283-0.291-2.479-0.583-3.675-1.021c-0.672-0.32-1.254-0.67-2.305-1.488l-0.467-0.699
				c-0.437-1.283-0.672-2.596-0.963-4.493c-0.262-2.334-0.496-4.667-1.049-6.942c-0.291-1.166-0.963-2.334-1.488-3.296
				c-0.817-1.283-1.983-2.188-3.208-3.092c-0.554-0.379-1.225-0.672-2.45-1.225l-0.846-0.379l-0.846-0.408
				C151.604,152.059,150.088,151.242,148.629,150.25z M309.527,209.638c-0.233-0.029-0.467-0.029-0.672-0.059
				c-0.058-0.029-0.087-0.058-0.146-0.058C308.972,209.521,309.264,209.58,309.527,209.638z M117.302,266.518
				c0.379-1.896,0.787-3.647,1.459-5.425c0.963-2.071,2.159-4.083,3.5-6.009l0.992-1.108c1.43-1.634,2.888-3.325,3.88-5.251
				c1.633-3.267,1.604-6.972,1.4-9.83c-0.146-2.246-0.264-5.222-0.059-8.255c0.35-1.545,0.788-3.005,1.342-4.491
				c0.554-1.108,1.196-2.159,1.897-3.237c1.312-1.459,2.713-2.772,4.141-4.114c1.284-1.196,2.567-2.391,3.763-3.704
				c1.196-1.283,2.305-2.829,3.325-4.608c0.934-1.692,1.459-3.821,1.547-6.359c0.058-1.283-0.205-2.654-0.467-3.938l-0.176-0.788
				l-0.146-0.875l-0.146-0.875c-0.088-0.699-0.175-1.4-0.233-2.1c-0.262-2.334-0.058-4.725,0.174-6.913
				c0.264-1.604,0.672-3.092,1.137-4.579c0.613-1.313,1.313-2.538,2.159-3.763c1.196-1.4,2.508-2.684,4.112-3.997
				c1.196-0.875,2.45-1.662,3.704-2.42c0,0,0.013,0.023,0.027,0.054c0.042,0.086,0.119,0.245,0.119,0.266
				c0.029,0,0.146,0.321,0.146,0.35c0.641,1.78,1.488,3.325,2.508,4.434c1.167,1.284,2.567,2.362,4.288,3.354
				c1.721,0.934,3.762,1.459,5.542,1.838c1.43,0.291,3.034,0.438,5.484,0.438c0.058,0,0.088,0,0.146,0
				c2.217-0.029,4.434-0.584,6.563-1.108c0.029,0,0.7-0.146,0.758-0.146c0.029,0,0.029,0,0.029,0
				c0.875,0.846,1.633,1.78,2.391,2.713l1.254,1.487c1.488,1.721,3.209,3.296,5.747,5.221c2.305,1.78,5.017,3.122,7.087,4.083
				c2.305,1.051,4.725,1.897,7.234,2.538c2.421,0.584,4.93,0.904,7.613,0.904c2.129,0,4.317-0.203,6.709-0.583
				c1.108-0.174,2.188-0.526,3.267-0.875l0.787-0.233l0.934-0.321c0.604-0.201,1.21-0.424,1.946-0.537
				c0.061-0.015,0.122-0.032,0.184-0.046c0.012,0.006,0.024,0.012,0.035,0.017c0.047-0.006,0.092-0.013,0.14-0.017
				c0.467,0.262,0.934,0.554,1.371,0.846c2.334,1.897,5.513,4.288,9.218,6.126c3.879,1.897,8.284,3.267,12.805,3.909
				c1.313,0.205,2.596,0.291,3.85,0.291c3.092,0,6.155-0.554,9.13-1.575c0.788-0.291,1.546-0.584,2.305-0.904
				c0.832-0.325,1.674-0.661,2.661-0.905c0.48-0.157,0.964-0.296,1.453-0.408c0.029,0,0.029,0,0.058,0
				c0.11,0.022,0.217,0.06,0.339,0.102c0.053-0.005,0.104-0.01,0.158-0.014c0.35,0.174,0.699,0.408,1.049,0.641l1.751,1.487
				c2.012,1.75,4.083,3.559,6.476,4.871c3.092,1.662,6.766,2.655,10.939,2.975l0.963,0.059c1.633,0,3.237-0.262,5.075-0.584
				c2.159-0.35,4.229-1.137,6.155-1.926c1.808-0.758,3.559-1.604,5.309-2.48l0.301-0.149c-0.122,0.052-0.244,0.102-0.358,0.149
				c0.175-0.088,0.357-0.168,0.547-0.244l0.562-0.281l0.51-0.157c-0.259,0.031-0.502,0.074-0.744,0.098
				c0.258-0.077,0.516-0.107,0.794-0.113l0.199-0.061c0.009,0,0.101,0.024,0.217,0.058c0.016,0,0.03,0,0.045,0
				c0.029,0,0.059,0.029,0.088,0.029c-0.014,0-0.028-0.001-0.042-0.002c0.232,0.067,0.507,0.148,0.507,0.148
				c0.876,0.379,1.721,0.817,2.567,1.254l1.721,0.875c1.692,0.817,3.471,1.487,5.28,2.1c2.858,0.963,6.096,1.487,9.597,1.487
				c0.699,0,1.429-0.029,2.158-0.088c4.055-0.233,8.167-1.166,12.28-2.713c1.779-0.672,3.53-1.518,5.368-2.596
				c0.488-0.297,0.976-0.621,1.531-0.944c0.023-0.016,0.042-0.038,0.064-0.054c0.001,0.005,0.002,0.01,0.005,0.016
				c0.022-0.013,0.042-0.024,0.064-0.037l0.409,1.4c0.904,2.713,2.304,5.368,4.346,8.05c1.255,1.633,2.568,3.178,3.997,4.638
				l0.817,0.845c0.962,0.963,1.924,1.926,2.799,2.975l0.817,1.43c0.35,1.021,0.613,2.071,0.846,3.18l0.203,2.334l0.205,2.334
				c0.379,4.23,1.692,7.964,3.968,11.377c1.779,2.625,3.617,5.163,5.571,7.759h-0.088l0.613,0.641l0.788,1.021
				c2.071,2.713,3.617,5.222,5.046,8.284c1.136,2.887,2.275,5.804,3.617,8.634c0.67,1.459,1.518,2.799,2.334,4.141
				c0.613,1.021,1.226,2.042,1.78,3.092c0.611,1.838,0.875,3.792,1.137,5.862c-0.007,0.003-0.013,0.007-0.02,0.01
				c-0.809,0.407-1.564,0.84-2.344,1.274c-1.283,0.758-2.508,1.575-3.732,2.421c-2.071,1.372-4.201,2.772-6.505,3.851
				c-0.817,0.291-1.662,0.554-2.538,0.787c-0.408,0.029-0.816,0.029-1.195,0.029c-0.758,0-1.487-0.029-2.246-0.088l-0.758-0.117
				c-1.575-0.233-3.151-0.467-4.754-0.525l-0.876-0.029c-2.828,0-5.862,0.875-9.275,2.684c-1.4,0.758-2.713,1.809-3.791,2.743
				c-1.254,1.021-2.421,2.071-3.559,3.208c-0.788,0.787-1.575,1.575-2.334,2.362c-1.46,1.547-2.917,3.063-4.552,4.434
				c-0.584,0.408-1.166,0.758-1.808,1.08c-0.32,0.117-0.67,0.233-1.051,0.321l-0.991,0.029c-1.021,0-2.042-0.117-3.093-0.205
				c-4.025-0.613-8.02-1.225-12.017-1.953l-0.875-0.176c-3.325-0.583-6.766-1.225-10.209-1.225c-0.729,0-1.459,0.029-2.217,0.117
				c-1.459,0.117-2.946,0.379-4.375,0.641c-1.342,0.233-2.655,0.758-3.938,1.284l-0.904,0.35c-1.955,0.787-3.909,1.692-5.835,2.596
				l-2.391,1.108c-1.195,0.437-2.421,0.817-3.704,1.08h-0.934c-1.195,0-2.391-0.088-3.588-0.203
				c-3.618-0.643-7.002-1.634-11.756-3.063c-3.005-0.934-6.126-1.896-9.275-2.42c-1.721-0.291-3.413-0.467-5.134-0.467
				c-0.729,0-1.488,0.029-2.246,0.117c-1.954,0.117-3.938,0.467-5.892,0.788l-1.633,0.291c-0.905,0.088-1.78,0.146-3.18,0.146
				c-0.088,0-0.205,0-0.321,0c-0.845-0.205-1.662-0.467-2.45-0.758c-1.809-0.934-3.471-2.042-5.134-3.237l-1.983-1.633
				c-3.325-2.743-6.738-5.571-10.588-7.73c-3.792-2.071-7.613-3.442-11.377-4.025c-1.545-0.233-3.062-0.35-4.579-0.35
				c-0.758,0-1.545,0.029-2.305,0.088l-1.459,0.088c-1.254,0.058-2.508,0.146-3.763,0.146h-0.554h-0.496
				c-0.699-0.117-1.342-0.32-2.041-0.525c-0.788-0.379-1.547-0.846-2.334-1.342c-2.538-2.1-4.813-4.608-7.001-7.001
				c-1.08-1.167-2.158-2.334-3.266-3.471c-1.575-1.575-3.471-2.975-5.134-4.141c-1.662-1.167-3.821-1.838-5.717-2.391
				c-1.225-0.321-2.509-0.496-3.997-0.496c-2.1,0-4.259,0.35-7.058,0.817c-0.526,0.029-1.051,0.088-1.634,0.088
				c-0.35,0-0.729-0.029-1.137-0.058c-1.4-0.7-2.8-1.488-4.171-2.246c-1.838-1.021-3.647-2.042-5.542-2.946
				c-1.867-0.875-3.821-1.604-5.746-2.276c-2.305-0.787-4.726-1.108-6.972-1.342c-0.35-0.059-0.729-0.059-1.108-0.059
				c-1.312,0-2.596,0.205-4.317,0.496c-1.724,0.296-3.365,0.991-4.715,1.623c-0.023,0.005-0.046,0.006-0.069,0.01
				c-0.088,0.059-0.205,0.088-0.291,0.146c-0.088,0.029-0.205,0.058-0.291,0.058c-0.025,0.012-0.049,0.024-0.073,0.037
				c-1.623,0.363-3.226,0.786-4.799,1.247c-1.166,0.35-2.305,0.758-3.559,1.137c-0.061,0.024-0.12,0.057-0.181,0.081
				c-0.005-0.007-0.006-0.013-0.006-0.019c-0.027,0.008-0.053,0.017-0.08,0.024C117.243,269.027,117.214,267.773,117.302,266.518z
				 M104.438,290.349c0.087-0.35,0.175-0.729,0.32-1.08c0.525-1.051,1.079-2.012,1.75-2.975c1.254-1.488,2.625-2.829,4.171-4.114
				c2.829-2.1,5.747-3.821,8.955-5.222c2.012-0.787,4.055-1.459,6.184-1.983c0.029,0,0.058,0.029,0.088,0.029
				c0.012-0.003,0.024-0.005,0.036-0.008c0.398,0.122,0.795,0.211,1.218,0.211c0.641,0,1.313-0.174,1.926-0.467l1.196-0.613
				l0.641-0.205c0.029-0.015,0.04-0.022,0.058-0.029l0.058-0.015c0,0.003,0,0.015,0,0.015l0.526-0.176
				c1.108-0.117,2.217-0.175,3.325-0.175c0.525,0,1.021,0,1.518,0.029c0.525,0.088,0.992,0.233,1.488,0.379
				c0.496,0.205,1.051,0.32,1.546,0.32c0.392,0,0.762-0.09,1.148-0.208c0.006,0.001,0.013,0.002,0.018,0.005
				c0.029,0,0.059,0,0.117-0.029c0.934,0.291,1.838,0.613,2.77,0.992c2.684,1.254,5.251,2.77,8.402,5.105l0.67,0.496
				c0.526,0.467,1.08,0.934,1.604,1.313l-0.029,0.058l1.137,0.729c0.7,0.321,1.4,0.613,2.129,0.846
				c0.846,0.291,1.867,0.437,3.063,0.437c1.051,0,2.1-0.117,3.296-0.233c1.516-0.146,3.004-0.291,4.491-0.291
				c0.496,0,0.963,0,1.459,0.059c0.7,0.174,1.4,0.379,2.1,0.641c0.729,0.379,1.429,0.817,2.129,1.284
				c2.625,2.246,4.958,4.901,7.204,7.438c1.137,1.284,2.246,2.538,3.413,3.763c1.137,1.196,2.45,2.275,3.763,3.237
				c1.633,1.166,3.354,1.955,4.987,2.625c0.758,0.233,1.516,0.408,2.334,0.496c1.283,0.262,2.567,0.321,3.879,0.321
				c1.75,0,3.53-0.262,5.309-0.554l0.758-0.146c1.137-0.088,2.305-0.175,3.471-0.175c0.613,0,1.254,0.029,1.867,0.059
				c2.159,0.408,4.141,0.963,6.096,1.75c2.625,1.225,5.017,2.654,7.38,4.346l0.904,0.758c3.004,2.45,6.126,5.016,9.48,7.058
				c1.809,1.08,4.609,2.421,7.876,2.684c0.526,0.058,1.051,0.058,1.575,0.058c2.48,0,5.017-0.379,8.051-0.875
				c1.196-0.117,2.391-0.203,3.559-0.203c0.846,0,1.692,0.058,2.567,0.117c3.822,0.729,7.351,2.071,10.909,3.53
				c2.305,0.992,4.58,2.042,6.826,3.092l1.72,0.817c4.083,1.838,7.556,2.684,11.172,2.684c4.463-0.058,8.635-1.955,12.66-3.792
				l0.904-0.408c1.897-0.758,4.17-1.604,6.679-2.13c0.729-0.029,1.459-0.058,2.158-0.058c3.034,0,6.096,0.437,9.072,0.846
				l1.518,0.205c2.335,0.291,4.667,0.584,7.03,0.729c1.809,0.117,3.618,0.233,5.835,0.291c1.487,0,3.005-0.175,4.405-0.467
				c1.808-0.35,3.645-1.079,5.776-2.246c1.4-0.788,2.625-1.926,3.996-3.208c1.108-1.021,2.13-2.129,3.093-3.296
				c2.275-2.596,4.52-5.134,7.059-7.351c0.99-0.699,2.012-1.342,3.092-1.867c0.641-0.203,1.225-0.35,1.897-0.496h0.729
				c1.604,0,3.18,0.146,4.754,0.291c0.729,0.088,1.429,0.117,2.13,0.117c2.188,0,4.316-0.32,6.505-0.992
				c3.645-1.137,6.796-3.325,9.858-5.425c2.305-1.604,4.667-3.237,7.234-4.405c0.379-0.146,0.788-0.262,1.196-0.379
				c0.029,0,1.137,0,1.137,0l0.963,0.291c0.32,0.175,0.641,0.35,0.962,0.554c0.321,0.262,0.613,0.584,0.905,0.934
				c0.641,0.934,1.166,1.897,1.75,3.209c0.643,1.633,1.313,3.354,2.421,4.784c1.195,1.516,2.655,2.596,4.434,3.879l0.904,0.904
				c0.409,0.613,0.729,1.225,1.049,1.867c0.43,1.337,0.698,2.705,0.908,4.086c0.143,1.467,0.164,2.87,0.055,4.374
				c-0.206,0.787-0.409,1.545-0.672,2.305c-0.466,0.817-0.934,1.604-1.459,2.421c-1.017,1.186-2.143,2.291-3.308,3.35
				c-0.088,0.081-0.178,0.164-0.266,0.244c-1.159,1.039-2.356,2.035-3.543,2.998l-0.641,0.554l-1.984,1.692l-1.371,1.166
				c-1.429,1.196-2.714,2.596-4.142,4.171c-1.108,1.254-1.867,2.362-2.479,3.559c-0.554,1.137-0.788,2.275-1.051,3.471l-0.35,1.518
				c-0.438,0.875-0.934,1.692-1.488,2.537c-1.983,2.305-3.909,4.2-5.833,5.834c-1.137,0.817-2.246,1.575-3.384,2.334
				c-0.934,0.641-1.897,1.284-2.829,1.954c-1.953,1.4-3.85,2.917-5.747,4.434c-3.471,2.567-6.796,4.579-10.209,6.125l-0.934,0.379
				c-0.071,0.008-0.141,0.022-0.213,0.029c-0.04,0-0.079,0-0.138,0c-0.032,0.013-0.068,0.021-0.101,0.032
				c-1.192,0.135-2.384,0.285-3.575,0.492c-2.217,0.321-4.434,1.313-6.679,2.393c-1.021,0.496-1.983,0.992-3.005,1.516l-0.409,0.117
				c-0.005,0.002-0.01,0.006-0.016,0.008l-0.568,0.168l-2.713,0.788c-1.073,0.329-1.972,0.966-2.684,1.817
				c-0.02,0.007-0.039,0.015-0.058,0.021c-0.029,0.029-0.059,0.088-0.088,0.117c-0.028,0-0.087,0.029-0.117,0.029v0.001
				c-1.828,0.622-3.657,1.114-5.601,1.456c-1.225,0.117-2.45,0.176-3.645,0.176c-1.226,0-2.45-0.059-3.675-0.176
				c-2.159-0.35-4.347-0.904-6.709-1.721c-1.633-0.758-3.18-1.662-4.726-2.538l-1.662-0.963c-1.195-0.7-2.304-1.225-3.296-1.575
				c-0.788-0.233-2.334-0.672-3.791-0.672c-1.46,0.029-2.829,0.233-4.23,0.496c-1.108,0.203-2.304,0.729-3.937,1.429
				c-1.313,0.584-2.568,1.167-3.851,1.75l-1.924,0.875c-2.567,1.051-4.987,1.78-7.38,2.217c-1.167,0.117-2.364,0.174-3.531,0.174
				c-1.166,0-2.362-0.058-3.529-0.174c-2.48-0.467-4.755-1.08-6.972-1.926c-2.158-1.021-4.2-2.246-6.126-3.588l-1.545-1.4
				c-1.43-1.284-2.829-2.596-4.376-3.675c-0.875-0.583-1.691-1.08-2.654-1.516c-0.846-0.438-1.692-0.758-2.567-0.905l-2.829-0.35
				c-0.262-0.029-0.525-0.058-0.758-0.058c-2.042,0-3.997,0.846-5.892,1.662l-0.7,0.291l-1.166,0.525l-1.196,0.496
				c-2.888,1.137-5.425,1.896-7.992,2.362c-1.08,0.088-2.159,0.146-3.237,0.146c-0.934,0-1.838-0.059-2.771-0.117
				c-2.829-0.496-5.513-1.254-8.255-2.305c-2.159-0.963-4.055-2.071-5.833-3.325c-1.78-1.518-3.471-3.296-5.017-5.222l-0.846-1.108
				l-1.545-1.983c-1.137-1.371-2.391-2.391-3.704-3.383c-1.167-0.905-2.801-1.371-4.114-1.78c-0.817-0.205-1.78-0.321-2.888-0.321
				c-0.758,0-1.488,0.059-2.217,0.117c-1.867,0.088-3.733,0.321-5.571,0.554c-1.604,0.175-3.208,0.233-4.813,0.233
				c-1.779,0-3.588-0.088-5.368-0.263c-5.222-0.817-10.15-2.158-14.731-3.967c-1.926-0.875-3.675-1.867-5.309-3.034
				c-1.166-1.021-2.188-2.129-3.151-3.354c-0.554-0.787-1.108-1.604-1.633-2.421c-0.963-1.429-1.897-2.858-2.946-4.2
				c-1.954-2.45-4.171-4.142-6.767-5.163c-2.743-1.021-5.747-1.342-8.634-1.662l-1.75-0.175c-2.801-0.437-6.038-1.051-9.218-2.246
				c-0.146-0.088-0.291-0.174-0.467-0.262c-0.029,0-0.029,0-0.058,0c-0.788-0.467-1.575-0.934-2.362-1.429
				c-0.729-0.643-1.371-1.284-1.983-2.013c-0.379-0.554-0.7-1.108-1.021-1.691c-0.233-0.729-0.438-1.43-0.641-2.188
				c-0.234-2.801,0-5.63,0.174-8.429c0.058-1.08,0.146-2.421-0.146-3.559c-0.262-0.904-0.699-2.567-1.662-3.383
				c-0.934-0.758-1.75-1.4-2.771-2.012l-1.371-0.875c-1.021-0.641-1.983-1.313-2.946-2.012c-0.992-0.817-1.867-1.692-2.713-2.625
				c-0.117-0.175-0.233-0.35-0.321-0.525c0,0.029,0,0.029,0,0.058c-0.029-0.088-0.058-0.146-0.088-0.233
				c-0.117-0.205-0.233-0.379-0.32-0.584c-0.146-0.379-0.264-0.788-0.409-1.225C104.35,291.808,104.35,291.167,104.438,290.349z
				 M313.611,484.61c-0.379,2.129-0.817,4.376-1.547,6.593c-0.263,0.554-0.584,1.108-1.342,2.071
				c-0.107,0.069-0.216,0.136-0.322,0.202c-0.222,0.21-0.485,0.398-0.727,0.585c0.225-0.2,0.452-0.379,0.678-0.556
				c-0.6,0.363-1.187,0.674-1.816,0.964c-5.98,2.012-12.252,3.063-18.202,3.967c-4.55,0.554-9.101,1.108-13.621,1.692
				c-4.842,0.613-9.685,0.992-14.556,1.283c-2.858,0.146-5.747,0.175-8.634,0.205c-1.692,0.029-3.354,0.029-5.046,0.088
				l-2.159,0.029c-2.538,0.058-5.075,0.117-7.613,0.117c-4.055,0-7.38-0.146-10.443-0.467c-5.28-0.787-10.529-2.159-15.168-3.967
				c-0.295-0.147-0.591-0.311-0.874-0.477c0.156,0.124,0.311,0.231,0.466,0.361c-0.188-0.107-0.35-0.24-0.489-0.375
				c-0.101-0.059-0.201-0.119-0.298-0.179c-0.013,0-0.083-0.117-0.162-0.248c-0.014-0.014-0.027-0.028-0.043-0.043
				c-0.029-0.029-0.029-0.058-0.058-0.117c-0.006-0.013-0.012-0.027-0.017-0.042c-0.065-0.107-0.118-0.193-0.128-0.193
				c-0.088-1.633,0.117-3.267,0.32-4.901l0.117-1.021c0.117-0.992,0.233-1.954,0.35-2.946l0.117-0.758
				c0.625-4.44,1.211-8.881,1.813-13.361c0.385-3.214,0.689-6.434,1.018-9.653c0.111-0.037,0.222-0.068,0.333-0.104
				c0.005-0.034,0.009-0.066,0.014-0.099c3.092-1.021,6.212-2.042,9.421-2.77c1.721,0.467,3.384,1.108,5.075,1.78l2.1,0.817
				c2.684,0.992,5.688,1.721,9.683,2.305c3.706,0.583,7.613,0.934,11.551,1.079l1.166,0.029c3.18,0,6.3-0.409,9.246-0.846
				c3.5-0.526,6.767-1.838,10.355-3.354c2.801-1.196,5.484-2.829,8.664-4.755l1.896-1.196c1.662-1.08,3.297-2.1,5.076-2.946
				c0.643-0.234,1.313-0.409,2.012-0.613h0.963c0.466,0,0.934,0,1.429,0.029c2.655,0.554,5.192,1.545,7.351,2.421
				c3.608,1.472,7.359,2.457,11.253,3.016c0.018,0.002,0.037,0.001,0.055,0.003c0,0.001,0,0.002,0,0.005
				c0.023,0.002,0.044,0.007,0.067,0.009c0.175,3.501,0.672,7.03,1.196,10.355C314.719,474.343,314.193,479.914,313.611,484.61z
				 M440.058,416.01c-0.234,0.408-0.467,0.817-0.758,1.254c-0.438,0.467-0.875,0.904-1.401,1.342
				c-0.699,0.437-1.371,0.846-2.129,1.254c-2.887,0.992-5.776,1.4-9.48,1.955c-2.217,0.321-4.405,0.699-6.622,1.137l-3.325,0.67
				l-3.354,0.643c-1.254,0.291-2.568,0.467-3.85,0.67l-1.372,0.205l-1.662,0.175c-4.784,0.496-9.713,1.021-14.468,2.129
				c-3.909,0.963-7.759,2.334-11.492,3.647c-2.1,0.758-3.5,1.838-4.434,3.384c-0.429,0.764-0.726,1.6-0.962,2.499
				c-0.076,0.464,0.065,0.93,0.075,1.402c-0.133,0.023-0.265,0.067-0.398,0.089c-0.029,0.029-0.029,0.058-0.029,0.088
				c-0.934,0.088-1.897,0.117-2.859,0.117c-0.584,0-1.167,0-1.75-0.029c-1.721-0.379-3.384-0.904-5.571-1.78
				c-1.867-0.817-3.909-1.662-6.039-2.129c-1.195-0.262-2.449-0.379-3.733-0.379c-2.099,0-4.287,0.321-6.651,0.992
				c-3.151,0.904-6.154,2.537-9.509,4.346c-2.888,1.604-5.776,3.063-8.781,4.405c-3.733,1.459-7.293,2.45-10.88,3.092
				c-1.255,0.146-2.538,0.205-3.792,0.205c-1.049,0-2.071-0.059-3.121-0.117c-2.246-0.409-4.463-1.021-6.796-1.926l-2.335-0.992
				l-1.429-0.641c-1.518-0.641-3.034-1.225-4.608-1.75c-2.042-0.641-4.288-0.817-5.776-0.904c-0.35-0.029-0.672-0.058-1.022-0.058
				c-3.354,0-6.737,1.254-9.888,2.567c-1.46,0.641-2.917,1.342-4.376,2.042c-1.459,0.699-2.887,1.371-4.375,2.012
				c-3.471,1.371-6.738,2.334-9.976,2.917c-0.379,0.029-0.788,0.058-1.167,0.088c-1.021,0.058-2.042,0.088-3.063,0.088
				c-3.588,0-7.117-0.35-10.443-0.7c-1.838-0.32-3.647-0.67-5.455-1.137c-1.896-0.496-3.733-1.167-5.542-1.897l-0.758-0.32
				c-2.158-0.963-4.375-1.954-6.738-2.508c-0.934-0.205-1.926-0.321-2.975-0.321c-1.75,0-3.704,0.321-5.776,0.934
				c-2.188,0.699-4.317,1.518-6.855,2.479c-1.225,0.496-2.42,0.992-3.645,1.518l-2.801,1.166c-5.513,2.217-10.734,3.704-15.956,4.55
				c-2.159,0.233-4.288,0.35-6.447,0.35c-1.545,0-3.062-0.058-4.608-0.203c-2.362-0.438-4.288-0.963-6.126-1.662
				c-2.246-1.051-4.405-2.362-6.651-3.997l-3.208-2.217c-1.488-0.963-3.063-1.575-4.579-2.1c-1.838-0.641-4.055-0.758-6.388-0.875
				l-1.371-0.117c-0.672-0.029-1.342-0.088-2.012-0.088l-2.334-0.029c-3.821,0-7.613,0.174-11.406,0.496
				c-3.092,0.262-6.155,0.613-9.218,0.963l-3.559,0.409c-2.654,0.321-5.28,0.613-7.905,0.875c-3.53,0.32-7.058,0.525-10.588,0.525
				c-3.034,0-6.038-0.146-9.072-0.467c-3.122-0.496-5.921-1.225-8.605-2.246c-1.897-0.875-3.675-1.838-5.425-2.975
				c-1.137-0.963-2.217-2.012-3.209-3.151c-0.729-1.049-1.371-2.1-1.954-3.208c-0.321-0.963-0.584-1.926-0.846-2.975
				c-0.088-1.166-0.088-2.362,0.029-3.559c0.32-1.371,0.699-2.654,1.254-3.967c0.846-2.159,1.371-4.026,1.108-6.271
				c-0.233-1.983-0.817-3.909-1.313-5.542l-0.291-0.905c-0.904-2.829-1.808-5.747-2.391-8.722c-0.174-1.662-0.205-3.266-0.088-4.93
				c0.496-2.684,1.254-5.309,2.362-8.051c1.254-2.742,2.713-5.221,4.434-7.613l1.633-2.012c2.129-2.567,4.346-5.25,5.804-8.284
				c1.662-3.53,2.275-7.555,1.867-12.338c-0.496-6.068-0.758-11.143-0.262-16.335c0.613-3.879,1.604-7.525,3.063-11.143
				c2.159-4.696,4.93-9.363,8.255-13.826c2.129-2.567,4.55-4.871,6.913-7.087l1.4-1.284c0-0.029,0.029-0.029,0.029-0.029
				c0.012,0,0.016,0,0.022,0c0,0.001,0,0.003,0,0.006c0.012,0,0.018,0,0.037,0v0.023c0.001-0.001,0.003-0.003,0.006-0.005
				c0.015,0.023,0.023,0.046,0.023,0.069c-0.233,1.662-0.467,3.325-0.67,4.987c-0.146,1.284-0.234,2.538-0.234,3.851
				c0,0.875,0.146,1.721,0.291,2.567l0.146,0.817c0.321,2.334,1.634,4.608,2.596,6.125c1.137,1.78,2.684,3.471,4.55,4.988
				c4.808,3.931,10.922,5.497,16.549,6.478c1.182,0.193,2.366,0.364,3.544,0.525l-0.374-0.119c1.487,0.205,2.946,0.496,4.667,1.079
				l0.758,0.787c0.788,1.08,1.487,2.217,2.188,3.354c0.584,0.963,1.167,1.926,1.809,2.858c1.896,2.77,3.733,4.93,5.863,6.738
				c5.105,4.375,11.347,6.796,16.801,8.605c4.872,1.575,9.685,2.362,14.293,2.362c1.313,0,2.596-0.058,3.909-0.203
				c2.917-0.321,5.805-0.992,8.605-1.634l2.876-0.596c0.023-0.005,0.047-0.01,0.071-0.016c0.001,0,0.003,0,0.005,0l0.141-0.03
				c0.88,0.854,1.666,1.729,2.119,2.364c0.022,0.024,0.044,0.049,0.065,0.074l-0.199-0.337l0.058-0.058
				c1.604,2.071,3.237,4.114,5.046,6.038c1.721,1.838,3.821,3.53,6.855,5.513c1.926,1.225,3.997,2.188,6.126,3.151
				c3.151,1.313,5.862,2.217,8.488,2.829c2.217,0.496,4.579,0.758,7.001,0.758c3.529,0,7.175-0.554,10.792-1.604
				c2.276-0.672,4.463-1.662,6.622-2.625l1.838-0.787c0.408,0.234,0.758,0.467,1.166,0.729l0.558,0.513
				c0.116,0.074,0.239,0.159,0.346,0.245c-0.101-0.068-0.192-0.125-0.279-0.185l0.804,0.739c1.08,0.963,2.159,1.954,3.296,2.858
				c2.129,1.692,4.141,3.092,6.097,4.229c4.229,2.567,9.305,4.23,15.051,4.988c1.488,0.203,2.946,0.291,4.405,0.291
				c3.442,0,6.971-0.496,10.529-1.516c2.801-0.817,5.484-2.159,8.021-3.442c0.934-0.496,1.838-0.992,2.771-1.488
				c0.562-0.305,1.117-0.62,1.788-0.898c0.431-0.231,0.866-0.458,1.304-0.677c0,0,0.029-0.029,0.059-0.029
				c0.143,0.049,0.307,0.096,0.458,0.144c0.042-0.008,0.082-0.018,0.125-0.027l1.953,0.963c1.605,0.817,3.18,1.633,4.842,2.334
				c2.859,1.196,5.63,2.042,8.458,2.596c2.684,0.526,5.396,0.817,8.051,0.817c3.645,0,7.234-0.496,10.675-1.459
				c4.317-1.254,8.343-3.5,12.018-5.717l2.916-1.713c0.001,0,0.001,0,0.001,0l0.262-0.154l0.298-0.082l0.548-0.15
				c5.659-1.692,10.501-3.763,14.876-6.359c1.545-0.934,3.033-1.983,4.491-3.004l0.992-0.672c2.916-1.983,5.98-3.792,9.626-5.95
				c1.78-1.049,3.354-2.362,4.813-3.617c1.692-1.487,3.034-3.354,4.347-5.163l0.437-0.641c1.605-2.159,2.684-4.171,3.326-6.068
				c0.466-1.4,0.699-2.508,0.757-3.647c0.059-0.525,0.059-1.021,0.059-1.516l0.088-1.342c0.408-0.758,0.875-1.459,1.604-2.508
				c1.182-1.372,2.368-2.692,3.711-3.964c0.091-0.094,0.183-0.188,0.274-0.282c0.003,0.005,0.008,0.009,0.01,0.015
				c0.021-0.018,0.039-0.037,0.059-0.055c3.968,5.833,7.497,12.193,10.443,18.93c1.662,4.23,2.713,7.935,3.325,11.609
				c0.291,2.858,0.379,5.95,0.291,9.422c-0.117,4.229,0.174,7.7,0.876,10.88c0.291,1.575,1.049,3.092,2.012,4.987
				c0.99,1.926,2.596,3.588,4.288,5.28c0.758,0.758,1.574,1.459,2.421,2.158l1.459,1.225c1.4,1.225,2.625,2.479,3.791,3.909
				c0.904,1.313,1.692,2.684,2.391,4.114c0.554,1.459,1.022,2.946,1.372,4.754L440.058,416.01z"/>
			<path d="M209.01,401.484c-0.788,0-1.518,0.291-2.071,0.846c-0.788,0.729-1.546,1.43-2.362,2.071
				c-0.526,0.32-1.051,0.641-1.604,0.904c-1.137,0.438-2.246,0.817-3.471,1.108c-0.379,0.029-0.729,0.029-1.108,0.029h-0.787
				c0,0-0.905-0.262-0.905-0.291l-0.699-0.408l-1.867-1.518c-0.496-0.233-0.934-0.379-2.042-0.554c-0.467,0-0.904,0.117-1.429,0.35
				c-0.788,0.379-1.225,0.788-1.78,1.4l-0.934,1.021c-1.137,1.313-2.276,2.596-3.559,3.762c-0.583,0.379-1.166,0.729-1.808,1.021
				c-0.467,0.175-0.875,0.291-1.284,0.35c0,0-0.029,0-0.058,0c-0.233,0-1.021,0-1.108,0c-0.121-0.022-0.236-0.049-0.354-0.079
				c0.021,0.007,0.043,0.015,0.061,0.021c-0.06-0.015-0.118-0.031-0.175-0.05c-0.161-0.044-0.336-0.095-0.555-0.154
				c0,0-0.613-0.379-0.641-0.379c-0.379-0.321-0.729-0.7-1.166-1.225c-0.264-0.379-0.496-0.788-0.788-1.4
				c-0.175-0.467-0.35-0.963-0.672-2.1c-0.174-0.554-0.35-1.166-0.699-1.662c-0.379-0.583-0.729-1.137-1.342-1.488
				c-0.555-0.32-1.108-0.379-2.042-0.379c-0.058,0-0.146,0-0.233,0c-1.254,0-2.071,0.729-3.354,1.926l-1.283,1.108
				c-0.7,0.613-1.4,1.225-2.159,1.808c-0.584,0.409-1.166,0.788-1.838,1.108c-0.663,0.246-1.307,0.451-2.017,0.631
				c-0.133,0.034-0.266,0.067-0.405,0.098c-0.029,0.029-1.283,0.029-1.283,0.029c-0.409-0.058-0.817-0.205-1.196-0.32
				c-0.379-0.205-0.758-0.409-1.137-0.641l-0.963-1.021c-0.379-0.584-0.699-1.167-0.875-1.751l0.088,0.321
				c-0.094-0.269-0.181-0.541-0.268-0.811c-0.007-0.022-0.016-0.043-0.024-0.064c0.006,0.015,0.012,0.03,0.018,0.045
				c-0.154-0.484-0.296-0.973-0.427-1.474c-0.088-0.35-0.205-0.729-0.321-1.08c-0.205-0.554-0.437-1.08-0.963-1.983
				c-0.408-0.584-0.787-1.108-1.4-1.459l-0.817-0.321c-0.613-0.117-1.254-0.205-1.896-0.291c-0.992,0-1.926,0.496-3.501,1.313
				c-0.67,0.35-1.342,0.672-2.012,0.992c-0.622,0.216-1.225,0.411-2.243,0.572c-0.021,0.003-0.04,0.008-0.061,0.012
				c-0.006,0-0.013,0-0.02,0c-0.117,0.018-0.238,0.036-0.366,0.052c0.03,0.003,0.061,0.006,0.095,0.006c-0.029,0-0.058,0-0.058,0
				c-0.018,0-0.036-0.001-0.054-0.003c-0.087,0.012-0.175,0.022-0.267,0.032l-0.729-0.205c-0.409-0.203-0.787-0.467-0.817-0.496
				l-0.291-0.291c-0.029,0-0.029-0.029-0.029-0.029l-0.379-0.379c-0.154-0.206-0.298-0.432-0.438-0.691l-0.001-0.001
				c-0.098-0.18-0.194-0.376-0.29-0.591c-0.175-0.467-0.291-0.934-0.437-1.459c-0.117-1.051-0.146-2.071-0.146-3.151l0.058-1.079
				l0.029-1.049c-0.059-0.554-0.146-1.108-0.263-1.634c-0.117-0.729-0.758-1.545-1.488-1.896c-0.554-0.262-1.166-0.554-2.246-0.554
				c-0.175,0-0.379,0-0.584,0c-2.012,0.758-4.171,1.312-6.796,1.838c-0.787,0.058-1.575,0.088-2.334,0.088
				c-0.526,0-1.021,0-1.575-0.059c-0.35-0.058-0.729-0.146-0.846-0.146c-0.029,0-0.059,0,0,0.029
				c-0.395-0.125-0.777-0.296-1.248-0.584c0.037,0.029,0.073,0.059,0.111,0.088c-0.118-0.058-0.208-0.131-0.299-0.207
				c-0.135-0.088-0.276-0.182-0.43-0.289l-0.175-0.35l-0.205-0.408l-0.058-0.846c0.146-0.7,0.379-1.4,0.525-1.575
				c0.077-0.149,0.158-0.296,0.24-0.441c0.017-0.038,0.035-0.075,0.052-0.112c-0.006,0.017-0.013,0.037-0.02,0.054
				c0.405-0.712,0.859-1.385,1.333-2.097c0.963-1.051,1.926-2.012,3.178-3.034c1.43-1.051,2.917-1.926,4.638-2.713
				c1.371-0.437,2.713-0.788,4.171-1.021c0.7-0.088,1.4-0.146,2.1-0.205c0.554-0.029,1.079-0.058,1.633-0.058
				c0.788,0,1.604,0.058,2.508,0.117c1.137,0,2.159-1.108,2.159-2.305c0-1.254-0.934-2.188-2.276-2.305
				c-0.934-0.088-1.867-0.117-2.8-0.117c-0.817,0.029-1.633,0.088-2.421,0.176c-1.429,0.117-2.858,0.35-4.229,0.613
				c-1.254,0.233-2.421,0.729-3.997,1.4s-3.004,1.692-4.229,2.596c-2.246,1.633-4.114,3.588-5.717,5.979
				c-0.788,1.137-1.284,2.508-1.634,3.675c-0.058,0.583-0.146,1.196-0.234,1.779l0.117,1.488c0.264,0.905,0.554,1.838,1.225,2.713
				c0.35,0.496,0.729,0.875,1.167,1.167c0.379,0.32,0.787,0.613,1.225,0.875c0.526,0.262,1.051,0.496,1.575,0.7
				c0.672,0.233,1.372,0.379,2.042,0.496c0.963,0.175,1.926,0.233,2.917,0.233l1.021-0.029c1.459-0.029,2.916-0.321,4.405-0.584
				l1.051-0.203c0,0,0,0.466,0,0.496c0.029,0,0,0.496,0,0.496c-0.233,1.78-0.058,3.675,0.554,6.038
				c0.262,0.67,0.525,1.342,0.817,1.983c0.32,0.672,0.728,1.283,1.225,1.838c0.409,0.583,0.963,1.137,1.604,1.604
				c0.817,0.672,1.691,1.196,2.654,1.547c0.699,0.35,1.459,0.525,2.217,0.583c0.379,0.088,0.788,0.146,1.604,0.146
				c0.174,0,0.35,0,0.554-0.029c0.758-0.088,1.459-0.205,2.188-0.379c0.817-0.117,1.662-0.525,2.946-1.137
				c0.467-0.203,0.934-0.467,1.487-0.699c0.203,0.699,0.437,1.371,0.729,2.042c0.262,0.672,0.583,1.342,0.963,1.954
				c0.554,0.963,1.43,1.838,2.188,2.567c0.554,0.437,1.137,0.875,1.691,1.283c0.584,0.379,1.225,0.672,1.867,0.934
				c0.672,0.291,1.43,0.496,2.188,0.584c0.583,0.117,1.137,0.174,1.691,0.174c0.584,0,1.196-0.058,1.809-0.146
				c2.841-0.316,5.602-1.644,8.299-3.914c0.533-0.47,1.043-0.966,1.531-1.483c0,0.029,0,0.029,0.029,0.029
				c0.002,0.007,0.006,0.013,0.009,0.018c0.016-0.016,0.032-0.031,0.049-0.049c0.729,1.545,1.721,2.946,3.151,4.346
				c0.526,0.408,1.021,0.817,1.575,1.196l-0.029,0.058l0.817,0.321c0.525,0.233,1.049,0.437,1.604,0.613
				c0.525,0.088,1.08,0.205,1.662,0.262l0.817,0.029c0.67,0,1.312-0.029,1.983-0.174c1.488-0.262,2.888-0.787,4.405-1.662
				c0.467-0.35,0.933-0.699,1.371-1.051c0.758-0.699,1.429-1.371,2.1-2.129c0.674-0.78,1.322-1.611,1.992-2.514
				c0.036-0.055,0.074-0.112,0.11-0.169c0.003,0.002,0.007,0.005,0.009,0.008c0.016-0.023,0.032-0.044,0.049-0.066
				c0.875,0.699,1.633,1.108,2.45,1.371l1.08,0.321c0.554,0.088,1.137,0.175,2.421,0.291c0.699,0,1.429-0.117,2.1-0.262
				c1.721-0.262,3.354-0.729,4.842-1.4l1.137-0.525c0.672-0.409,1.313-0.846,1.926-1.371c0.787-0.613,1.516-1.283,2.217-1.954
				c0.554-0.525,0.846-1.225,0.846-2.012c0.029-0.817-0.291-1.575-0.846-2.1C210.497,401.775,209.768,401.484,209.01,401.484z
				 M138.245,400.172c0.117,0.117,0.262,0.203,0.379,0.32c0.029,0,0.029,0,0.029,0.029
				C138.508,400.404,138.362,400.288,138.245,400.172z M140.899,401.513c0.029,0,0.059,0,0.059,0c0.174,0,0.32,0.029,0.496,0.059
				C141.249,401.572,141.075,401.543,140.899,401.513z M197.254,406.356c0.029,0,0.029,0,0.029,0c0.029,0,0.058,0.029,0.088,0.029
				C197.342,406.385,197.283,406.356,197.254,406.356z"/>
			<path d="M161.873,384.773c0.232,0.464,0.467,0.902,0.787,1.251l-0.058,0.058l0.672,0.613c0.379,0.291,0.729,0.554,1.575,0.992
				c0.525,0.262,1.137,0.409,1.808,0.467c0.379,0.088,0.7,0.088,1.051,0.088c0.437,0,0.875-0.029,1.313-0.088
				c1.838-0.175,3.559-0.992,4.871-1.662c0.029,0,0.174,0.379,0.174,0.409c0.029,0,0.175,0.408,0.175,0.437
				c0.263,0.787,0.584,1.545,0.934,2.305c0.291,0.641,0.729,1.166,1.43,2.071l0.904,0.672c0.409,0.379,0.875,0.67,1.459,0.904
				c0.641,0.32,1.4,0.496,2.217,0.554c0.554,0.058,1.049,0.088,1.575,0.088c0.525,0,1.051-0.029,1.604-0.088
				c0.904-0.029,1.808-0.234,3.062-0.525c1.021-0.263,1.954-0.672,3.413-1.342c0.699-0.291,1.225-1.137,1.4-1.809
				c0.205-0.758,0.117-1.604-0.291-2.334c-0.409-0.67-1.051-1.166-1.838-1.4c-0.233-0.059-0.496-0.088-0.729-0.088
				c-0.496,0-1.021,0.146-1.604,0.408l-1.4,0.7c-0.496,0.175-0.992,0.35-1.488,0.496c-0.788,0.233-1.575,0.409-2.77,0.584
				l-0.822-0.046c-0.124,0-0.25-0.002-0.375-0.012c-0.012-0.003-0.024-0.008-0.037-0.012l-0.313-0.018l-0.934-0.467
				c-0.32-0.291-0.583-0.613-0.583-0.613h0.029c-0.379-0.554-0.699-1.137-0.699-1.137c-0.379-0.963-0.788-1.926-1.254-2.858
				c-0.205-0.291-0.438-0.584-0.7-0.846c-0.408-0.526-1.137-0.613-1.867-0.641c-0.291,0-0.525,0.029-0.758,0.058
				c-0.38,0.117-0.7,0.35-1.518,0.875c-0.643,0.467-1.313,0.787-2.042,1.137l-0.875,0.409c-0.467,0.205-0.992,0.321-1.225,0.321
				c-0.029,0-0.029,0-0.058,0h-0.641l0.175,0.058c0,0-0.35-0.058-0.379-0.058h-0.029c-0.35-0.088-0.67-0.176-1.225-0.438
				l-0.032-0.029c-0.047-0.02-0.095-0.037-0.142-0.058c0.047,0.02,0.094,0.037,0.14,0.057l-0.549-0.494c0,0-0.437-0.817-0.467-0.846
				c-0.106-0.771-0.113-1.543,0.107-2.359c0.012-0.069,0.024-0.139,0.038-0.208c0,0.028-0.001,0.057-0.002,0.084
				c0.012-0.038,0.021-0.075,0.032-0.114l0.409-1.021c0.233-0.467,0.525-0.875,0.846-1.283h-0.029c0,0,0.058-0.029,0.058-0.058
				l0.526-0.554c0,0,0.142-0.038,0.318-0.087c0.001,0,0.002-0.001,0.002-0.001c0.058-0.029,0.146-0.059,0.233-0.088
				c0.032,0,0.064,0,0.096,0c0.055-0.015,0.108-0.028,0.154-0.04c-0.015-0.003-0.03-0.009-0.046-0.017c0,0,0,0-0.029,0
				c-0.059,0-0.117,0-0.205-0.029c0.088,0,0.146,0.029,0.234,0.029c0.024,0,0.047,0.006,0.07,0.01
				c0.092-0.024,0.156-0.04,0.163-0.04c0.379,0.088,0.758,0.176,1.575,0.35c0.787,0,1.518-0.584,1.75-1.342
				c0.262-0.934-0.262-1.867-1.254-2.217c-0.729-0.233-1.574-0.379-2.305-0.379c-0.379,0-0.699,0.029-0.963,0.088
				c-0.264,0.059-0.496,0.117-0.729,0.205c-0.438,0.146-0.846,0.379-1.167,0.672c-0.467,0.35-0.875,0.787-1.313,1.342
				c-0.408,0.496-0.787,1.021-1.08,1.604c-0.409,0.699-0.672,1.575-0.992,2.916c-0.205,0.846-0.205,1.692-0.058,2.538
				C161.434,383.548,161.61,384.218,161.873,384.773z"/>
			<path d="M154.288,228.977c0.233,0.672,0.554,1.283,0.992,1.838c0.35,0.467,0.7,0.904,1.108,1.371
				c0.35,0.438,0.788,0.788,1.283,1.137c0.584,0.496,1.196,0.934,1.867,1.313c1.196,0.699,2.654,1.137,3.851,1.487
				c0.934,0.233,1.983,0.379,3.092,0.379c1.459,0,3.005-0.205,4.755-0.641c0.788-0.203,1.6-0.473,2.471-0.751
				c0.101-0.04,0.201-0.082,0.301-0.124c-0.001,0.01-0.002,0.02-0.003,0.029c0.031-0.009,0.061-0.02,0.091-0.029
				c-0.437,2.801-0.525,5.075-0.35,7.146c0.117,1.575,0.467,3.208,1.08,5.017c0.584,1.604,1.518,3.092,2.888,4.522l1.43,1.137
				c0.291,0.174,0.584,0.35,0.875,0.496c0.554,0.291,1.137,0.525,1.721,0.758c0.817,0.32,1.662,0.525,2.596,0.613
				c0.584,0.117,1.108,0.174,1.662,0.174c0.496,0,0.992-0.058,1.518-0.117c1.633-0.175,3.092-0.817,4.287-1.429
				c0.399-0.199,0.771-0.454,1.574-0.9c0-0.001,0.001-0.002,0.001-0.003c0.001,0,0.001,0.001,0.001,0.001
				c0.02-0.009,0.038-0.021,0.058-0.031l0.525,1.08c0.672,1.459,1.342,2.858,2.334,4.141c0.525,0.758,1.08,1.372,1.721,1.897
				l1.604,1.225c1.021,0.787,2.362,1.225,3.675,1.604c0.409,0.088,0.846,0.146,1.342,0.146s0.992-0.059,1.488-0.146
				c1.283-0.175,2.275-0.613,3.413-1.196c0.496-0.32,0.963-0.699,1.429-1.08c0.496-0.379,0.934-0.787,1.372-1.225
				c0.186-0.159,0.349-0.319,0.598-0.479c0.005-0.006,0.01-0.012,0.015-0.017c0.001,0.001,0.002,0.003,0.003,0.005
				c0.018-0.012,0.035-0.023,0.054-0.035l0.788,1.108c0.584,0.875,1.196,1.75,1.838,2.596c0.35,0.437,0.699,0.875,1.08,1.283
				c0.438,0.525,1.022,0.934,2.042,1.692c0.496,0.291,0.992,0.525,1.518,0.729l1.137,0.233c0.379,0.059,0.729,0.117,1.429,0.117
				c0.117,0,0.291,0,0.467-0.029c0.613-0.058,1.225-0.174,1.808-0.262c0.379-0.117,0.729-0.262,1.08-0.408
				c0.526-0.175,0.992-0.438,1.4-0.788c1.954-1.429,3.151-3.645,4.493-6.184c0.32-0.641,0.613-1.283,0.904-1.926
				c0.291-0.643,0.613-1.283,0.934-1.897c0.641-1.254,0.262-2.625-0.846-3.266c-0.379-0.205-0.758-0.321-1.166-0.321
				c-0.846,0-1.634,0.437-2.393,1.662c-0.525,0.817-1.021,1.633-1.487,2.479l-0.613,1.051c-0.584,1.08-1.196,2.129-1.896,3.151
				c-0.291,0.379-0.641,0.729-0.672,1.021c-0.641,0.35-1.342,0.584-1.518,0.584h-0.031c-0.379,0.029-0.758,0.029-1.108,0.175
				c-0.554-0.205-0.963-0.409-1.342-0.672c-0.729-0.641-1.342-1.313-2.1-2.217c-0.408-0.554-0.758-1.137-1.108-1.721
				c-0.233-0.379-0.466-0.729-0.729-1.08c-0.262-0.437-0.554-0.846-0.904-1.254c-0.729-0.729-1.604-1.487-3.151-1.487
				c-0.32,0-0.672,0.058-0.992,0.088c-0.554,0.174-1.167,0.525-1.663,1.021l-0.641,0.525l-1.488,1.196
				c-0.565,0.405-1.156,0.758-2.069,1.246c0.036-0.005,0.073-0.01,0.114-0.021c-0.045,0.012-0.09,0.023-0.135,0.031
				c-0.069,0.038-0.141,0.075-0.216,0.114v-0.088c-0.131,0.021-0.261,0.032-0.391,0.04l-0.747,0.076
				c-0.758-0.175-1.4-0.379-1.254-0.409c-0.14-0.075-0.279-0.154-0.411-0.231c-0.077-0.038-0.154-0.077-0.23-0.119
				c0.031,0.012,0.061,0.025,0.091,0.038c-0.469-0.277-0.844-0.528-0.908-0.592c-0.437-0.35-0.904-0.787-1.488-1.545
				c-0.409-0.613-0.817-1.313-1.108-1.983c-0.321-0.672-0.641-1.371-0.904-2.071c-0.262-0.554-0.526-1.108-0.817-1.662l0.058-0.029
				l-0.525-0.584c-0.291-0.467-0.613-0.758-0.992-0.992c-0.525-0.321-1.08-0.554-2.305-0.875c-0.554,0-1.049,0.174-1.721,0.409
				c-0.584,0.233-1.108,0.496-1.662,0.758l-0.758,0.35c-0.904,0.35-1.78,0.613-2.742,0.846l-1.43-0.088
				c-0.613-0.117-1.166-0.262-1.75-0.496c-0.525-0.233-1.021-0.525-1.546-0.846l-0.554-0.554c-0.379-0.613-0.729-1.196-1.049-1.838
				c-0.409-1.196-0.758-2.362-0.963-3.647c-0.088-1.196-0.117-2.334-0.117-3.559c0.029-0.817,0.117-1.634,0.176-2.45l0.087-1.166
				c0,0,0.146-0.963,0.146-0.992c0.058-0.262,0.088-0.525,0.117-0.817c-0.029-0.467-0.117-0.934-0.233-1.342
				c-0.117-0.467-0.35-0.875-0.699-1.167c-0.35-0.35-0.758-0.525-1.459-0.846l0.029-0.058l-1.108,0.029
				c-0.641,0-1.137,0.233-1.867,0.583c-0.32,0.233-0.583,0.409-0.846,0.496l-1.137,0.525c-1.488,0.554-2.946,0.992-4.55,1.313
				c-0.438,0.029-0.875,0.029-1.313,0.029c-0.467,0-0.904,0-1.342-0.029c-0.904-0.205-1.721-0.437-2.567-0.729
				c-0.904-0.409-1.692-0.904-2.188-1.283c-0.379-0.291-0.729-0.641-1.08-1.051c-0.291-0.35-0.525-0.758-0.758-1.254
				c-0.262-0.729-0.408-1.342-0.35-1.342v-0.583v-0.464c0,0,0.117-0.729,0.117-0.758c0.174-0.758,0.437-1.575,0.584-1.809
				c0.094-0.178,0.19-0.354,0.285-0.529c0.012-0.028,0.024-0.055,0.036-0.083c-0.007,0.02-0.015,0.038-0.022,0.058
				c0.856-1.565,1.804-3.024,2.821-4.433c0.758-0.963,1.518-1.867,2.334-2.77c0.992-1.08,2.159-2.012,3.121-2.742
				c1.283-0.934,2.567-1.721,3.997-2.393c0.379-0.146,0.788-0.233,1.196-0.35c0.029,0,0.758,0,0.758,0
				c0.758,0,1.459,0.029,2.391,0.146l1.545,0.262c1.137,0,2.071-0.7,2.393-1.78c0.146-0.613,0.058-1.283-0.291-1.867
				c-0.321-0.554-0.817-0.963-1.43-1.108c-0.641-0.205-1.254-0.291-1.896-0.379c-0.788-0.088-1.575-0.146-2.801-0.175
				c-1.049,0-2.188,0.205-3.588,0.699c-2.742,0.963-5.163,2.975-7.117,4.579c-2.305,1.897-4.112,4.288-5.95,6.825
				c-1.051,1.43-1.838,2.772-2.393,4.083c-0.32,0.7-0.613,1.518-0.845,2.45c-0.264,0.963-0.291,2.1-0.321,3.121
				c0.029,0.496,0.117,0.992,0.234,1.692C153.88,227.957,154.055,228.481,154.288,228.977z"/>
			<path d="M194.076,229.563c0.67,0.436,1.341,0.873,2.099,1.106c0.379,0.146,0.846,0.233,1.43,0.291
				c0.467,0.088,0.904,0.117,1.371,0.117l0.699-0.029c0.934,0,1.867-0.205,2.946-0.467c0.613-0.205,1.225-0.438,1.809-0.7
				c0.758-0.379,1.488-0.817,2.159-1.313c0.487-0.316,0.935-0.673,1.476-1.003c0.081-0.065,0.163-0.128,0.244-0.193
				c0.001,0.016,0.002,0.032,0.003,0.049c0.028-0.016,0.054-0.031,0.083-0.049c0.029,0.409,0.059,0.817,0.117,1.225
				c0.117,1.196,0.437,2.362,0.934,3.559c0.291,0.699,0.641,1.313,1.196,2.042c0.641,0.875,1.371,1.4,2.946,2.275
				c0.613,0.262,1.283,0.409,2.012,0.467c0.35,0.059,0.7,0.088,1.022,0.088c0.845,0,1.662-0.146,2.537-0.291
				c0.584-0.088,1.196-0.379,2.334-0.904c0.408-0.174,0.817-0.408,1.283-0.641c0.584,0.787,1.166,1.545,1.809,2.275
				c0.379,0.438,0.758,0.817,1.196,1.196c0.379,0.32,0.787,0.641,1.166,0.934c0.437,0.32,0.875,0.525,1.342,0.67
				c0.554,0.233,1.137,0.379,1.75,0.409c0.32,0.088,0.672,0.117,1.021,0.117c0.32,0,0.67-0.029,1.021-0.117
				c0.758-0.059,1.4-0.205,2.012-0.467c0.525-0.174,1.08-0.437,2.217-1.225l0.963-0.758c0.467-0.408,0.875-0.875,1.225-1.4
				c0.467-0.583,0.817-1.166,1.108-1.75c0.526-0.963,0.934-2.042,1.372-3.121l0.32-0.817c0.409-1.021,0.758-2.071,1.137-3.092
				l0.672-1.926c0.233-0.7,0.174-1.488-0.233-2.217c-0.408-0.817-1.166-1.43-1.983-1.662c-0.264-0.059-0.554-0.088-0.846-0.088
				c-0.554,0-1.108,0.146-1.575,0.408c-0.758,0.467-1.137,1.08-1.459,1.897l-1.867,4.842l-0.7,1.545
				c-0.379,0.846-0.817,1.604-1.313,2.362c-0.183,0.209-0.389,0.42-0.955,0.859c0.069-0.034,0.142-0.067,0.225-0.099
				c-0.091,0.054-0.181,0.097-0.273,0.136c-0.052,0.04-0.106,0.082-0.165,0.126c-0.327,0.141-0.636,0.243-1.164,0.279
				c-0.069,0.014-0.136,0.029-0.207,0.043h-0.029c0.066-0.022,0.131-0.027,0.208-0.04c-0.124,0.008-0.261,0.012-0.413,0.012
				c-0.088,0-0.174,0-0.262,0c0,0-0.992-0.613-1.021-0.613c-0.613-0.613-1.196-1.196-1.896-2.1c-0.438-0.554-0.875-1.137-1.43-1.663
				c-0.672-0.67-1.662-1.08-2.479-1.08s-1.546,0.262-2.391,0.641l-0.788,0.467l-0.788,0.467c-0.35,0.205-0.699,0.379-1.049,0.554
				c-0.496,0.205-1.051,0.379-1.604,0.467c-0.088,0-0.817-0.029-0.875-0.029c-0.029,0-0.029,0-0.029,0l-0.758-0.174l-0.846-0.554
				c-0.35-0.437-0.613-0.846-0.992-1.808c-0.205-0.641-0.35-1.283-0.496-1.954l-0.174-1.488c-0.058-0.379-0.117-0.758-0.262-1.518
				c-0.146-0.408-0.321-0.846-0.467-1.225c-0.234-0.643-0.525-0.992-0.963-1.254c-0.32-0.175-0.699-0.291-1.049-0.291
				c-0.379,0-0.729,0.117-1.051,0.291c-0.7,0.467-1.225,0.875-1.867,1.487c-0.584,0.525-1.196,1.021-1.838,1.488
				c-0.875,0.613-1.721,1.137-2.625,1.633c-0.641,0.262-1.313,0.438-2.1,0.584l-1.254,0.117c-0.496,0-0.963-0.059-0.845-0.059
				c-0.473-0.095-0.964-0.246-1.134-0.409c-0.209-0.079-0.415-0.166-0.616-0.261c0.176,0.058,0.35,0.146,0.526,0.203
				c-0.146-0.088-0.291-0.174-0.437-0.262c-0.083-0.083-0.165-0.166-0.223-0.248l-0.243-0.188c-0.233-0.554-0.379-1.051-0.438-1.342
				c-0.029-0.35-0.058-0.729,0-1.196c0.036-0.141,0.072-0.282,0.109-0.423c0.002-0.014,0.005-0.029,0.008-0.044
				c0,0.005,0,0.009,0,0.014c0.053-0.199,0.11-0.398,0.176-0.598c0.672-1.547,1.518-3.005,2.654-4.579
				c1.167-1.4,2.334-2.537,3.647-3.588c0.296-0.205,0.593-0.392,1.204-0.629c0.009-0.005,0.017-0.009,0.025-0.014
				c0.006,0,0.009-0.001,0.015-0.002c0.164-0.062,0.349-0.129,0.563-0.201h1.166c0,0,0.934,0.174,0.963,0.205
				c0.817,0,1.516-0.554,1.75-1.342c0.117-0.437,0.029-0.963-0.205-1.4c-0.233-0.379-0.613-0.67-1.051-0.787
				c-0.672-0.146-1.254-0.205-2.275-0.262c-0.554,0-1.051,0.088-1.575,0.175l-0.758,0.262c-0.672,0.262-1.283,0.613-1.897,1.051
				c-0.933,0.613-1.75,1.429-2.887,2.537c-1.809,1.78-3.209,3.967-4.317,5.863c-1.08,1.897-1.488,4.026-1.108,5.833
				C192.15,227.346,192.908,228.746,194.076,229.563z M230.332,234.578h0.029c0.059-0.029,0.088-0.029,0.117-0.029s0.058,0,0.058,0
				c-0.058,0.029-0.088,0.029-0.146,0.029h-0.029c-0.117,0.029-0.233,0.029-0.35,0.029
				C230.128,234.607,230.215,234.578,230.332,234.578z"/>
			<path d="M225.986,117.697c1.08,1.196,2.275,2.305,3.529,3.325c0.496,0.379,0.992,0.758,1.518,1.108
				c0.641,0.408,1.371,0.758,2.129,1.049c0.846,0.35,1.662,0.526,2.654,0.672c0.264,0.088,0.554,0.117,1.108,0.117
				c0.146,0,0.35,0,0.554-0.029c0.672-0.058,1.254-0.175,1.838-0.35c0.583-0.233,1.166-0.467,1.75-0.729
				c0.613-0.321,1.166-0.7,2.158-1.488l0.934-0.758c2.859,1.137,5.309,1.838,7.701,2.217c0.817,0.146,1.692,0.233,2.538,0.233
				c1.429,0,2.684-0.262,3.733-0.729c1.108-0.496,2.042-1.08,2.858-1.808l1.867-1.662c0.963,0.613,2.159,1.108,3.792,1.575
				c0.554,0.117,1.167,0.205,2.217,0.291c0.466,0,0.963-0.029,1.459-0.146c0.817-0.058,1.547-0.233,2.246-0.525
				c0.584-0.233,1.167-0.496,1.751-0.758c1.865-0.875,3.675-2.421,5.309-4.492c0.729-0.934,1.254-1.809,1.662-2.743
				c0.35-0.699,0.525-1.371,0.758-2.071l0.816-0.088c0.876-0.117,1.663-0.291,2.509-0.467c0.729-0.174,1.429-0.496,2.1-0.787
				l0.788-0.321c0.641-0.35,1.195-0.699,1.662-1.108c0.934-0.758,1.751-1.459,2.364-2.391c1.021-1.575,1.808-3.383,2.567-5.863
				c0.175-0.845,0.32-1.691,0.437-2.596c0.174-1.137,0.233-2.275,0.263-3.413c0.029-0.875-0.117-1.75-0.409-3.237
				c-0.146-0.846-0.466-1.838-0.99-2.975c-0.467-0.904-0.992-1.838-1.721-2.596c-0.875-0.904-1.78-1.75-2.742-2.567
				c-0.672-0.554-1.401-1.051-2.48-1.809l-1.547-1.049l-1.516-1.08c-0.379-0.262-0.817-0.379-1.313-0.379
				c-0.963,0-1.926,0.526-2.421,1.342c-0.729,1.283-0.321,2.829,0.99,3.762c1.547,1.051,3.093,2.129,4.667,3.267
				c0.7,0.629,1.381,1.258,2.042,1.952c-0.02-0.029-0.039-0.058-0.059-0.086c0.022,0.031,0.044,0.062,0.066,0.092
				c0.134,0.142,0.268,0.286,0.402,0.432c0.205,0.291,0.379,0.584,0.554,0.963l-0.057,0.057h0.001l0.055-0.028
				c0.029,0.029,0.087,0.058,0.029,0.058c0.05,0.149,0.096,0.296,0.142,0.443c0.01,0.027,0.023,0.053,0.032,0.082
				c-0.008-0.023-0.018-0.043-0.027-0.065c0.246,0.795,0.439,1.566,0.61,2.398c0,0.321,0.028,0.672,0.058,1.021
				c0,0.691-0.055,1.382-0.222,2.087c-0.006,0.05-0.012,0.101-0.017,0.15l0.123-0.371c-0.117,0.875-0.291,1.78-0.554,2.625
				c-0.175,0.641-0.409,1.283-0.67,1.896c-0.379,0.788-0.758,1.518-1.255,2.246c-0.32,0.35-0.641,0.672-1.021,0.992
				c-0.178,0.105-0.362,0.209-0.547,0.311c-0.031,0.023-0.064,0.046-0.096,0.068c0.029-0.02,0.058-0.042,0.086-0.062
				c-0.328,0.18-0.667,0.353-1.019,0.5c-0.205,0.072-0.409,0.14-0.614,0.206c-1.547,0.5-3.098,0.848-4.695,1.106
				c-0.409,0.059-0.729,0.233-1.137,0.554c-0.379,0.263-0.699,0.584-0.963,0.963c-0.437,0.729-0.525,1.633-0.611,2.596
				c-0.037,0.112-0.074,0.224-0.11,0.335c0.008-0.014,0.015-0.029,0.022-0.044c0,0,0,0,0,0.029
				c-0.015,0.023-0.028,0.047-0.039,0.073c-0.039,0.132-0.076,0.263-0.106,0.394c-0.263,0.554-0.554,1.08-0.904,1.634
				c-0.613,0.729-1.254,1.371-2.246,2.159l-0.67,0.467c-0.554,0.291-1.108,0.554-1.809,0.875c-0.466,0.175-0.904,0.291-1.953,0.379
				c-0.029,0-0.057,0-0.084,0c-0.259,0-0.499-0.006-0.762-0.058c-0.131-0.036-0.261-0.073-0.388-0.108
				c-0.098-0.013-0.193-0.025-0.282-0.038c0.054,0,0.11,0.002,0.168,0.007c-0.645-0.178-1.187-0.327-1.305-0.327l-1.108-0.467
				c-0.205-0.175-0.438-0.321-0.758-0.467c-0.409-0.233-0.845-0.321-1.283-0.321c-0.466,0-0.904,0.088-1.4,0.291
				c-0.904,0.321-1.546,1.051-2.13,1.78c-0.699,0.817-1.488,1.545-2.334,2.217c-0.291,0.205-0.584,0.379-0.905,0.525l-0.347,0.082
				c-0.059,0.028-0.119,0.058-0.178,0.092c0.045-0.032,0.098-0.061,0.155-0.088l-0.622,0.146h-1.604
				c-1.429-0.234-2.742-0.584-4.055-0.992c-0.437-0.146-0.875-0.32-1.283-0.496l-1.518-0.641l-0.729-0.35l-0.699-0.291l-0.7-0.321
				c-0.35-0.088-0.758-0.146-1.137-0.146c-0.408,0-0.992,0.088-1.4,0.379l-0.933,0.699c-0.496,0.496-0.992,0.992-1.518,1.43
				c-0.233,0.179-0.479,0.357-0.734,0.524c0.021-0.009,0.042-0.018,0.062-0.028c-0.022,0.01-0.044,0.02-0.067,0.03
				c-0.158,0.103-0.32,0.202-0.488,0.291c-0.379,0.146-0.758,0.262-1.196,0.35l-0.846-0.058l-0.875-0.233
				c-0.029,0-0.846-0.408-0.846-0.408c-0.496-0.321-0.992-0.643-1.487-0.992c-1.809-1.633-3.384-3.471-4.522-4.871
				c-0.963-1.342-1.897-2.655-2.77-4.026c-0.584-0.875-1.518-1.4-2.508-1.4c-0.496,0-0.963,0.117-1.43,0.379
				c-0.672,0.409-1.166,1.137-1.371,1.954c-0.146,0.7-0.029,1.4,0.35,1.983C222.778,113.818,224.352,115.918,225.986,117.697z
				 M276.652,109.092c0-0.029,0.029-0.058,0.059-0.088c-0.029,0.029-0.059,0.058-0.059,0.117
				C276.652,109.092,276.652,109.092,276.652,109.092z"/>
			<path d="M251.946,95.209c-0.029-0.029-0.963-0.291-0.963-0.291c-0.409-0.175-0.788-0.408-1.196-0.641
				c-0.438-0.35-0.875-0.758-1.254-1.225l-1.08-1.459l-0.554-0.641c-0.526-0.379-0.992-0.758-1.692-0.758
				c-0.641,0-1.196,0.205-1.838,0.554c-0.554,0.35-0.963,0.934-1.342,1.518l-0.729,0.846c-0.963,1.137-1.954,2.334-2.567,3.004
				c-0.409,0.35-0.875,0.672-1.488,0.992l-0.511,0.099c-0.109,0.035-0.218,0.069-0.335,0.104c-0.088,0.029-0.205,0.029-0.291,0.029
				c-0.016,0-0.034,0-0.05-0.001l-0.154,0.03l0.029-0.059c-0.088-0.029-0.146-0.058-0.205-0.117c-0.091-0.076-0.18-0.16-0.267-0.246
				l-0.287-0.22c-0.32-0.438-0.613-0.905-0.846-1.4l-0.408-1.196c-0.262-0.875-0.409-1.78-0.409-1.983
				c-0.029-1.254-0.029-2.391,0.059-3.792c0.088-0.584,0.262-1.137,0.672-2.217c0.291-0.526,0.613-1.021,1.4-1.867
				c0.438-0.409,0.672-0.963,0.672-1.604c0.029-0.641-0.234-1.283-0.672-1.721c-0.437-0.467-0.992-0.7-1.604-0.7
				c-0.613,0-1.254,0.233-1.721,0.7c-0.32,0.234-0.613,0.525-0.904,0.904c-0.205,0.321-0.437,0.641-0.672,0.904
				c-0.408,0.613-0.758,1.284-1.051,1.983c-0.817,1.867-0.933,3.938-0.992,6.068c-0.058,1.721,0.234,3.588,0.934,5.862
				c0.321,0.963,0.875,1.926,1.342,2.655c0.379,0.583,0.904,1.166,1.633,1.779c0.904,0.788,2.071,1.225,3.354,1.225
				c1.692,0,3.53-0.729,4.93-1.926c1.516-1.254,2.684-2.801,3.733-4.317c0.159-0.186,0.295-0.371,0.494-0.578
				c0.001-0.002,0.001-0.003,0.002-0.005h0.001c0.02-0.018,0.037-0.039,0.057-0.059c0.729,0.934,1.4,1.634,2.188,2.246
				c0.699,0.526,1.488,1.08,2.421,1.488c0.67,0.321,1.313,0.526,2.012,0.584c0.233,0.029,0.496,0.058,0.788,0.058
				c0.262,0,0.525-0.029,0.817-0.088c2.334-0.175,4.405-1.488,6.3-2.829c1.605-1.167,3.063-2.655,4.755-4.842
				c0.496-0.613,0.758-1.108,0.758-1.838c0-0.672-0.263-1.342-0.758-1.867c-0.525-0.496-1.196-0.758-1.867-0.758
				c-0.613,0-1.429,0.233-1.838,0.758c-0.699,0.875-1.401,1.75-2.13,2.567c-0.817,0.905-1.662,1.721-2.625,2.538
				c-0.234,0.174-0.496,0.35-0.788,0.584c-0.554,0.35-1.137,0.641-1.75,0.904C253.113,95.063,252.763,95.179,251.946,95.209z"/>
			<path d="M280.123,274.365c0.525,0.7,1.051,1.284,1.692,1.751c0.584,0.554,1.283,0.904,2.158,1.313
				c0.555,0.262,1.167,0.437,1.751,0.466c0.291,0.029,0.584,0.059,0.875,0.117l0.876-0.117l0.875-0.117v0.088l1.137-0.496
				c0.437-0.146,0.845-0.35,1.254-0.672c0.554-0.35,1.08-0.846,1.75-1.516c0.7-0.7,1.314-1.518,1.926-2.305l0.114-0.049
				c0.191-0.27,0.403-0.561,0.615-0.826c0.059,0.145,0.146,0.29,0.232,0.464l0.06-0.025c0.408,0.729,0.875,1.459,1.371,2.159
				l1.108,1.4c0.613,0.787,1.313,1.459,2.042,1.983c0.379,0.379,0.846,0.67,1.342,0.845l1.049,0.35
				c0.584,0.088,1.196,0.174,1.809,0.233c0.525-0.029,1.049-0.088,1.516-0.175c0.292-0.029,0.584-0.117,0.876-0.205
				c0.496-0.175,0.991-0.379,1.459-0.584c0.525-0.291,0.992-0.613,1.4-0.992l0.817-0.699c0.613-0.526,1.108-1.08,1.518-1.721
				c0.816-0.992,1.487-2.071,2.158-3.178l0.496-0.875l0.238-0.246c0.119-0.2,0.236-0.399,0.346-0.6
				c0.029,0.029,0.059,0.088,0.088,0.117c0.003,0.007,0.008,0.013,0.012,0.02l0.046-0.049c0.409,0.672,1.226,1.954,2.364,2.596
				c0.32,0.262,0.699,0.467,1.254,0.672l-0.029,0.058l0.963,0.175c0.32,0.059,0.699,0.117,1.371,0.117
				c0.088,0,0.176-0.029,0.264-0.029c0.613-0.058,1.196-0.203,2.48-0.641c0.611-0.203,1.108-0.525,1.604-0.963
				c0.525-0.379,0.992-0.846,1.372-1.4c0.554-0.613,0.962-1.313,1.254-2.1c0.291-0.643,0.525-1.313,0.643-1.954
				c0.173-0.729,0.262-1.575,0.35-2.829c0.058-0.758,0.058-1.545-0.029-2.305c0-0.934-0.118-1.838-0.263-2.713l-0.117-0.904
				c-0.175-1.545-0.438-3.121-0.699-4.667l-0.205-1.196c-0.118-0.729-0.758-1.4-1.313-1.721c-0.438-0.233-0.963-0.379-1.43-0.379
				c-0.262,0-0.525,0.058-0.757,0.088c-0.729,0.205-1.372,0.699-1.751,1.313l-0.059-0.029l-0.233,0.758
				c-0.117,0.467-0.117,0.992,0.029,1.518c0,0,0.029,0.35,0.029,0.525l0.029-0.029l0.264,1.954l0.262,1.867
				c0.146,1.196,0.264,2.391,0.379,3.617c0.088,1.254,0,2.538-0.175,3.938c-0.087,0.409-0.205,0.846-0.379,1.254
				c-0.146,0.291-0.32,0.584-0.496,0.846c0,0.009-0.089,0.087-0.21,0.187c-0.008,0.016-0.016,0.031-0.024,0.046
				c-0.029,0-0.029,0-0.029,0c0.005-0.003,0.008-0.007,0.012-0.012c-0.25,0.206-0.594,0.479-0.594,0.479
				c-0.008,0-0.102,0.008-0.236,0.021c-0.119,0.047-0.242,0.087-0.377,0.126c-0.088,0-0.205,0.029-0.292,0.029
				c-0.087,0-0.146-0.029-0.232-0.029c-0.021-0.013-0.042-0.025-0.064-0.039c-0.07,0.007-0.113,0.01-0.113,0.01
				s-0.218-0.196-0.381-0.349c-0.067-0.042-0.132-0.088-0.172-0.147c0.03,0.02,0.055,0.039,0.08,0.059
				c-0.047-0.047-0.08-0.081-0.08-0.088c-0.349-0.526-0.67-1.021-0.962-1.575c-0.205-0.554-0.467-1.051-0.876-1.546
				c-0.205-0.35-0.496-0.641-0.845-0.846c-0.32-0.203-0.643-0.35-0.963-0.466c-0.379-0.029-0.729-0.088-1.225-0.176
				c-0.817,0-1.459,0.641-2.012,1.167c-0.233,0.205-0.379,0.496-0.904,1.313l-1.022,1.545l-0.758,1.196l-1.983,3.063
				c-0.613,0.729-1.226,1.4-1.954,2.042c-0.291,0.205-0.554,0.35-0.845,0.496c-0.409,0.146-0.845,0.262-0.904,0.262
				c-0.15,0-0.282,0-0.416-0.006c-0.084,0.013-0.169,0.025-0.255,0.036c0.06-0.015,0.119-0.028,0.178-0.039
				c-0.075-0.005-0.153-0.01-0.236-0.02l-0.992-0.437c-0.758-0.641-1.459-1.283-2.129-2.042c-0.409-0.526-0.788-1.08-1.137-1.662
				c-0.264-0.496-0.584-0.992-0.934-1.43c-0.32-0.467-0.672-0.875-1.283-1.196c-0.467-0.233-0.934-0.467-1.897-0.525
				c-0.233,0-0.467,0-0.729,0.058c-0.496,0.117-0.846,0.437-1.459,1.021c-0.292,0.35-0.554,0.729-0.788,1.108
				c-0.438,0.641-0.875,1.225-1.721,2.391c-0.611,0.729-1.225,1.372-1.897,1.954c-0.35,0.264-0.787,0.496-1.225,0.613l-0.904,0.146
				l-0.934-0.262c-0.35-0.117-0.699-0.321-1.08-0.584c-0.497-0.379-0.904-0.817-1.43-1.459c-0.32-0.437-0.611-0.963-0.991-1.897
				c-0.146-0.408-0.263-0.845-0.35-1.254c-0.029-0.262-0.059-0.525-0.059-0.758c0-0.758,0.059-1.487,0.088-1.75
				c0.203-1.313,0.437-2.625,0.729-3.938c0.35-1.575,0.875-3.092,1.429-4.579c0.35-0.846,0.729-1.633,1.225-2.391
				c0.233-0.35,0.321-0.788,0.205-1.225c-0.087-0.525-0.437-0.963-0.845-1.225c-0.292-0.146-0.584-0.233-0.876-0.233
				c-0.611,0-1.195,0.32-1.574,0.875c-0.817,1.225-1.342,2.596-1.897,4.026c-0.991,2.596-1.488,5.368-1.808,7.701
				c-0.205,1.283-0.438,2.858-0.117,4.287C278.402,271.185,278.958,272.994,280.123,274.365z M319.648,268.209
				c0.001,0.001,0.002,0.001,0.002,0.002c0,0-0.001,0-0.002,0C319.648,268.21,319.648,268.209,319.648,268.209z"/>
			<path d="M297.509,236.416c0.262,1.575,0.875,3.063,1.459,4.405l0.904,1.167c0.437,0.35,0.816,0.67,1.633,1.108l1.137,0.496
				l1.08,0.176h0.029c0.117,0,0.699,0,0.875,0c0.059,0,0.088,0,0.088,0c0.67-0.029,1.341-0.205,1.924-0.496
				c0.497-0.174,0.963-0.409,1.401-0.699c0.641-0.379,1.195-0.788,1.779-1.254c0.758-0.554,1.372-1.196,2.012-1.867l1.051-1.283
				l1.021-1.342l1.022-1.371l1.195-1.838l1.547-2.45l0.611-0.934c0.233-0.379,0.292-0.817,0.205-1.283
				c-0.117-0.467-0.437-0.904-0.845-1.166c-0.292-0.146-0.584-0.233-0.904-0.233c-0.643,0-1.226,0.321-1.575,0.875l-1.371,2.159
				l-1.372,2.129c-0.613,0.963-1.283,1.867-1.983,2.742l-0.613,0.846l-0.496,0.613c-0.438,0.526-0.934,0.992-1.546,1.459
				l-0.613,0.496c-0.516,0.372-1.061,0.688-1.607,0.975c-0.415,0.218-0.881,0.347-1.602,0.454c-0.613-0.205-1.108-0.467-1.575-0.846
				c-0.261-0.333-0.484-0.704-0.479-0.908c-0.068-0.151-0.125-0.307-0.173-0.465l-0.252-0.61c-0.234-0.67-0.379-1.342-0.525-2.012
				c-0.205-1.108-0.379-2.217-0.525-3.325l-0.146-0.904c-0.059-0.438-0.467-0.875-0.817-1.08c-0.205-0.117-0.466-0.203-0.963-0.203
				c-0.117,0-0.262,0-0.409,0c-0.496,0.175-0.875,0.467-1.08,0.845c-0.262,0.438-0.233,0.846-0.174,1.4
				C297.071,233.587,297.306,234.986,297.509,236.416z"/>
			<path d="M311.859,412.014c-0.788,0-1.547,0.291-2.596,1.342c0,0-0.845,0.321-0.845,0.35c-0.013,0-0.17-0.043-0.346-0.092
				c-0.208-0.009-0.403-0.042-0.617-0.112c0.188,0.042,0.362,0.069,0.542,0.091c-0.214-0.059-0.425-0.12-0.425-0.12
				c-0.845-0.496-1.721-0.875-3.354-1.254c-0.699,0-1.313,0.291-2.246,0.699c-0.437,0.262-0.757,0.613-1.021,1.051l-0.845,1.225
				l-1.605,2.305c-0.641,0.758-1.283,1.459-2.071,2.129c-0.172,0.12-0.34,0.227-0.509,0.327c-0.202,0.12-0.407,0.232-0.629,0.343
				c-0.169,0.072-0.347,0.135-0.556,0.195c0.039-0.006,0.079-0.013,0.12-0.02c-0.104,0.035-0.208,0.058-0.312,0.072
				c-0.178,0.045-0.381,0.089-0.622,0.132c-0.291,0-0.584-0.035-0.9-0.17c-0.097-0.018-0.195-0.039-0.296-0.062
				c0.07,0.008,0.139,0.015,0.209,0.023c-0.068-0.032-0.138-0.068-0.209-0.111l0.029,0.029c-0.117-0.058-0.205-0.088-0.32-0.146
				c-0.525-0.233-1.022-0.525-1.518-0.875c-0.584-0.496-1.167-0.992-2.158-2.071l-0.554-0.641c-0.467-0.554-0.934-1.108-2.013-2.071
				c-0.378-0.379-0.875-0.672-1.371-0.817c-0.467-0.088-0.904-0.146-1.487-0.205c-0.409,0.059-0.817,0.117-1.867,0.467
				c-0.379,0.262-0.729,0.525-1.08,0.817c-0.467,0.467-0.875,0.963-1.313,1.459l-0.758,0.875c-0.779,0.897-1.56,1.773-2.463,2.555
				c-0.131,0.127-0.264,0.255-0.399,0.38c0.053-0.028,0.101-0.049,0.12-0.049c0.003,0,0.009-0.001,0.014-0.002
				c0.076-0.058,0.151-0.116,0.22-0.172c-0.064,0.057-0.127,0.111-0.193,0.166c0.082-0.028,0.227-0.107,0.251-0.107
				c-0.525,0.467-1.195,0.904-2.042,1.342l-0.963,0.174c0,0-0.021-0.009-0.052-0.025c-0.135,0.024-0.247,0.025-0.385,0.025
				c0.117,0,0.232-0.029,0.377-0.029c-0.192-0.092-0.791-0.38-0.815-0.38c-0.699-0.613-1.283-1.225-1.867-1.954
				c-0.466-0.699-0.788-1.342-0.729-1.342l-0.379-1.196c-0.087-0.672-0.233-1.283-0.437-1.926c-0.205-0.613-0.613-1.051-1.313-1.838
				c-0.438-0.496-1.022-0.758-1.721-0.758c-0.699,0-1.372,0.291-1.897,0.758l-0.059-0.058l-0.962,1.021
				c-0.321,0.291-0.613,0.699-0.876,1.108l-0.583,0.787c-0.905,1.137-1.897,2.217-3.034,3.18c-0.641,0.467-1.254,0.846-1.926,1.167
				l-0.365,0.057c-0.062,0.021-0.125,0.04-0.186,0.06c0.09,0,0.169,0.012,0.25,0.027c0.043-0.008,0.086-0.017,0.126-0.028
				c-0.039,0.012-0.079,0.02-0.118,0.029c0.047,0.009,0.095,0.02,0.147,0.029c-0.467,0.146-0.875,0.203-1.313,0.203l-0.904-0.291
				c-0.32-0.321-0.641-0.641-0.934-1.021c-0.379-0.526-0.699-1.08-0.992-1.692c-0.205-0.525-0.379-1.108-0.554-1.721
				c-0.088-1.049-0.117-2.012,0-3.034c0.262-1.283,0.583-2.45,1.021-3.617c0.699-1.516,1.516-2.916,2.45-4.317
				c0.641-0.758,1.254-1.4,2.013-2.042c0.379-0.291,0.758-0.496,1.254-0.729c0.409-0.146,0.817-0.291,1.779-0.409
				c1.342,0,2.45-1.166,2.45-2.538c0-1.371-1.108-2.479-2.596-2.508c-1.779,0-3.645,0.641-5.747,1.983
				c-1.983,1.283-3.442,3.442-4.608,5.134c-1.283,1.954-2.276,4.259-3.005,7.087c-0.174,0.758-0.262,1.518-0.408,2.975
				c-0.146,1.342,0.117,2.684,0.408,4.171c0.146,0.758,0.467,1.518,0.817,2.246l0.291,0.699c0.292,0.613,0.672,1.196,1.108,1.692
				c0.438,0.613,0.934,1.196,1.459,1.721l0.583,0.467c0.409,0.379,0.905,0.67,1.43,0.845c0.526,0.233,1.08,0.379,1.721,0.438
				c0.321,0.058,0.672,0.088,1.022,0.088c0.379,0,0.787-0.029,1.225-0.146c2.013-0.262,4.083-1.254,5.776-2.829
				c0.537-0.473,1.066-0.989,1.646-1.533c0.46-0.524,0.891-1.067,1.3-1.617c0.059,0.117,0.088,0.234,0.146,0.32
				c0.002,0.005,0.005,0.009,0.007,0.014c0.017-0.014,0.035-0.028,0.052-0.043c0.584,1.459,1.604,2.654,2.684,3.938
				c0.729,0.875,1.72,1.518,2.596,2.042c0.408,0.205,0.904,0.379,2.158,0.613c0.263,0.059,0.525,0.088,0.817,0.088
				c0.32,0,0.611-0.029,0.933-0.117c2.888-0.262,5.164-2.391,7.031-4.434c0.35-0.379,0.699-0.788,1.341-1.575l0.996-1.051
				c0.008-0.009,0.017-0.02,0.024-0.029c0.001,0.001,0.001,0.001,0.001,0.002l0.058-0.06l1.75,2.071
				c0.817,1.021,1.897,1.867,2.655,2.421c0.611,0.496,1.313,0.963,2.158,1.371c0.584,0.262,1.196,0.496,1.808,0.729
				c0.613,0.117,1.283,0.233,1.926,0.291c0.584,0,1.195-0.059,1.751-0.117c1.136-0.262,2.188-0.672,3.529-1.371
				c0.467-0.35,0.963-0.7,1.43-1.08c0.613-0.467,1.166-0.992,1.662-1.575c0.816-0.875,1.518-1.954,2.188-2.975l0.525-0.641
				c0.264,0.146,0.554,0.263,0.963,0.409c0.788,0.35,1.487,0.525,2.421,0.554c0.845,0,1.518-0.174,2.596-0.409
				c0.584-0.203,1.137-0.525,1.692-0.992c0.496-0.35,0.934-0.758,1.283-1.225c1.167-1.225,1.167-3.063,0-4.2
				C313.406,412.306,312.648,412.014,311.859,412.014z"/>
			<path d="M388.517,389.146l0.028-0.058l-0.757-0.029c-1.226,0-2.335,0.817-2.684,2.042l-0.934,3.18l-0.67,2.217l-0.584,2.013
				c-0.661,2.15-1.32,4.292-2.15,6.369c-0.105,0.245-0.206,0.494-0.329,0.72c-0.32,0.672-0.67,1.283-1.108,1.897
				c-0.262,0.262-0.525,0.525-0.816,0.758l-0.175,0.057c-0.132,0.104-0.267,0.202-0.409,0.294c0.126-0.084,0.254-0.185,0.393-0.289
				l-0.54,0.172c-0.036,0-0.387,0-0.633,0c0.087,0.039,0.177,0.077,0.255,0.117c-0.098-0.039-0.181-0.077-0.261-0.117
				c-0.134,0-0.236,0-0.236,0s-0.699-0.467-0.729-0.467l-0.584-0.584c-0.409-0.437-0.845-0.875-1.341-1.225
				c-0.264-0.262-0.584-0.437-1.022-0.583c-0.32-0.088-0.699-0.146-1.137-0.146c-0.35,0-0.729,0.059-1.021,0.117
				c-0.35,0.117-0.672,0.291-0.992,0.584c-0.467,0.32-0.817,0.699-1.137,1.196l-1.283,1.575c-0.816,1.021-1.692,1.896-2.158,2.391
				c-0.385,0.317-0.806,0.58-1.356,0.778c-0.092,0.044-0.184,0.087-0.277,0.126c-0.022,0-0.028-0.016-0.04-0.024
				c-0.064,0.018-0.126,0.037-0.193,0.053l-0.075-0.052c-0.006,0.003-0.013,0.012-0.013,0.023c-0.042-0.043-0.069-0.069-0.104-0.104
				l-0.48-0.334c-0.583-0.817-0.991-1.633-1.4-2.508c-0.205-0.554-0.409-1.051-0.67-1.545c-0.292-0.525-0.788-0.758-1.255-0.963
				c-0.32-0.117-0.641-0.205-1.195-0.205c-0.117,0-0.263,0-0.438,0c-0.466,0.117-0.787,0.409-1.137,0.7l-0.525,0.613l-0.059-0.058
				l-0.787,1.196l-0.963,1.342l-0.992,1.342c-0.729,0.992-1.459,1.983-2.625,3.53c-0.232,0.251-0.491,0.503-0.95,0.795
				c-0.088,0.074-0.175,0.146-0.264,0.216c0.012-0.008,0.028-0.02,0.046-0.02c-0.02,0.01-0.038,0.02-0.059,0.029
				c-0.156,0.077-0.311,0.156-0.466,0.233c-0.017,0-0.034-0.009-0.052-0.017c-0.03,0.016-0.062,0.031-0.095,0.047
				c-0.32-0.291-0.611-0.641-0.584-0.641c0,0,0,0,0.029,0c-0.35-0.467-0.641-1.051-0.699-1.283c-0.205-0.437-0.35-0.904-0.438-1.371
				l-0.058-0.817c0-0.699,0.058-1.429,0.058-1.516c0.088-0.846,0.264-1.692,0.467-2.567c0.174-0.729,0.409-1.4,0.817-2.508
				c0.203-0.379,0.408-0.7,0.641-0.963c0.35-0.437,0.35-1.196,0.233-1.692c-0.205-0.583-0.584-1.08-1.051-1.342
				c-0.262-0.146-0.554-0.262-1.108-0.262c-0.175,0-0.379,0.029-0.611,0.029c-0.584,0.174-0.963,0.554-1.342,1.051
				c-0.904,1.225-1.4,2.858-1.926,4.491c-0.262,1.021-0.408,2.1-0.525,3.151c-0.059,0.35-0.087,0.7-0.117,1.051
				c-0.088,0.729-0.088,1.43-0.029,2.159c0.117,1.78,0.904,3.413,2.012,5.25c0.409,0.554,0.788,1.021,1.283,1.4
				c0.554,0.496,1.167,0.846,1.721,0.992l2.042,0.088c0.496-0.029,0.904-0.146,1.342-0.35c0.291-0.174,0.611-0.35,0.904-0.496
				c0.466-0.35,0.904-0.729,1.342-1.108c0.554-0.467,0.99-1.08,1.72-2.042c0.933-1.308,1.842-2.64,2.805-3.992
				c0.135-0.206,0.271-0.409,0.405-0.616c0.006,0.01,0.012,0.021,0.016,0.03c0.015-0.02,0.028-0.039,0.043-0.059
				c0.262,0.525,0.554,1.049,0.904,1.545c0.379,0.584,0.845,1.08,1.342,1.488c0.699,0.641,1.574,0.904,2.946,1.166
				c0.35,0,0.699-0.058,1.574-0.175l0.758-0.32l0.729-0.291c0.497-0.35,1.022-0.7,1.488-1.108l0.963-0.846
				c0.584-0.613,1.137-1.254,1.633-1.926l1.229-1.475c0.058-0.073,0.114-0.144,0.171-0.217c0.001,0.002,0.003,0.003,0.005,0.006
				l0.053-0.065c0.467,0.555,0.934,1.051,1.518,1.547c0.525,0.496,1.137,0.846,1.779,1.079l-0.028,0.059l0.875,0.203
				c0.496,0.088,0.992,0.146,1.604,0.205v0.088l0.934-0.175c0.526-0.029,1.051-0.117,1.575-0.32
				c0.758-0.263,1.574-0.758,2.158-1.372l0.875-0.846c0.379-0.467,0.758-0.963,1.108-1.429c0.584-0.817,0.963-1.75,1.372-2.713
				c0.992-2.391,1.721-4.93,2.48-7.439l0.232-0.787l0.321-1.08l1.4-4.842c0.175-0.7,0.088-1.43-0.291-2.1
				C389.8,389.816,389.217,389.349,388.517,389.146z M363.46,412.394c0.059-0.029,0.117-0.059,0.175-0.088c0.029,0,0.029,0,0.029,0
				C363.606,412.335,363.52,412.364,363.46,412.394z"/>
			<path d="M138.333,316.747c0.291,0.146,0.613,0.233,0.934,0.233l0.437-0.058c0.437-0.117,0.846-0.438,1.08-0.817
				c0.203-0.379,0.35-0.992,0.117-1.633c0.117-0.467,0.291-0.934,0.321-0.934c2.596-6.126,5.63-12.164,8.575-17.997l0.7-1.4
				c0.467-0.934,0.203-1.954-0.641-2.479c-0.263-0.146-0.554-0.205-0.905-0.205c-0.554,0-1.225,0.205-1.545,0.846
				c-1.225,2.421-2.421,4.813-3.617,7.234l-0.641,1.342c-0.554,1.108-1.108,2.217-1.633,3.325l-0.758,1.633l-1.518,3.267
				l-0.554,1.313l-0.758,1.75c-0.262,0.613-0.467,1.254-0.641,2.012c-0.117,0.525,0,0.904,0.205,1.459
				C137.691,316.077,137.895,316.456,138.333,316.747z"/>
			<path d="M148.775,311.03c-0.379,1.4-0.729,2.801-0.904,4.229c-0.146,0.846-0.146,1.488-0.029,2.013
				c0.205,0.554,0.467,1.049,0.758,1.545c0.262,0.379,0.641,0.729,1.108,0.992c0.467,0.35,0.817,0.554,1.342,0.554
				c0.467,0,0.992-0.203,1.371-0.554c0.729-0.729,0.729-1.926,0-2.713l0.058-0.059c-0.117-0.117-0.234-0.234-0.35-0.379
				c-0.029-0.088-0.088-0.146-0.117-0.233c0.023-0.088,0.028-0.193,0.029-0.289l-0.058-0.12c0.408-1.867,0.904-3.762,1.4-5.63
				l0.67-2.684l0.963-3.647c0.262-1.137-0.409-2.334-2.071-2.684c-0.992,0-1.867,0.641-2.1,1.545l-1.633,6.33L148.775,311.03z"/>
			<path d="M159.83,326.169v0.058l0.641-0.146c0.641-0.174,1.225-0.613,1.575-1.196c0.35-0.672,0.35-1.283,0.175-2.362
				c-0.205-1.954-0.088-3.909,0.029-6.3l0.174-2.771l0.146-2.77c0.059-0.672-0.203-1.313-0.699-1.838
				c-0.554-0.584-1.313-0.905-2.042-0.905c-1.488,0-2.625,1.137-2.713,2.743l-0.174,2.77l-0.146,2.771
				c-0.059,1.254-0.088,2.479-0.088,3.733c0,1.516,0.262,2.946,0.554,4.288C157.556,325.353,158.635,326.169,159.83,326.169z"/>
			<path d="M167.617,318.674l0.351,3.762c0.117,1.021,0.233,2.042,0.321,3.208c0.058,0.496,0.117,1.021,0.203,1.545
				c0.059,0.699,0.205,1.4,0.409,2.042c0.117,0.32,0.291,0.672,0.496,1.021c0.291,0.525,0.875,0.875,1.545,0.875
				c0.321,0,0.641-0.088,0.904-0.233c0.846-0.496,1.108-1.518,0.554-2.625c-0.088-0.291-0.175-0.613-0.205-0.934
				c-0.087-0.992-0.175-1.983-0.233-2.975l-0.175-2.042l-0.32-3.704l-0.321-3.704c-0.059-0.613-0.234-1.021-0.584-1.371
				c-0.35-0.379-0.846-0.554-1.371-0.554c-0.554,0-1.108,0.262-1.518,0.672c-0.32,0.379-0.467,0.817-0.408,1.254L167.617,318.674z"
				/>
			<path d="M179.024,331.449c0.205,0.554,0.437,0.875,0.846,1.108c0.291,0.146,0.613,0.233,0.934,0.233v0.059l0.437-0.117
				c0.496-0.146,0.934-0.525,1.166-0.992c0.205-0.409,0.233-0.846,0.117-1.225c-0.35-0.672-0.554-1.371-0.496-1.662
				c-0.029-1.43,0.088-2.858,0.233-4.288l0.291-3.004l0.262-2.975c0.059-0.409-0.088-0.788-0.379-1.137
				c-0.35-0.409-0.904-0.641-1.4-0.641c-0.467,0-0.904,0.175-1.254,0.525c-0.379,0.379-0.496,0.817-0.526,1.254l-0.291,3.208
				l-0.263,2.888l-0.203,2.334c-0.029,0.613-0.059,1.225,0.029,2.334C178.557,330.078,178.702,330.778,179.024,331.449z"/>
			<path d="M189.087,328.298c0.233,1.137,0.467,2.275,0.7,3.413c0.234,1.254,1.518,1.926,2.567,1.926v0.082c0.008,0,0.016,0,0.024,0
				l0.618-0.141c0.672-0.205,1.225-0.641,1.575-1.225c0.409-0.672,0.379-1.4,0.262-2.012c-0.35-1.721-0.699-3.442-1.049-5.163
				c-0.233-1.049-1.225-1.838-2.975-1.838c-0.088,0-0.174,0-0.262,0c-1.371,0.379-2.159,1.75-1.809,3.209L189.087,328.298z"/>
			<path d="M164.264,149.958l0.461,0.136c0.012,0,0.023,0,0.035,0v-0.077c0.291,0,0.613-0.088,0.875-0.233
				c0.35-0.233,0.613-0.554,0.817-1.08c0.264-0.7,0.526-1.371,0.817-2.071l0.32-0.817c0.205-0.437,0.379-0.875,0.613-1.283
				c0.729-1.692,1.633-3.296,2.567-4.871c1.051-1.751,2.217-3.384,3.413-5.017l3.675-4.872c0.262-0.35,0.262-0.963,0.174-1.371
				c-0.117-0.437-0.438-0.846-0.817-1.08c-0.203-0.117-0.437-0.205-0.845-0.205c-0.146,0-0.321,0.029-0.526,0.029
				c-0.525,0.117-0.787,0.438-1.108,0.846l-1.604,2.129l-2.799,3.763c-1.662,2.246-3.063,4.491-4.288,6.855
				c-0.613,1.137-1.137,2.334-1.78,3.821c-0.467,1.049-0.875,2.129-1.283,3.208c-0.146,0.379-0.088,0.817,0.117,1.225
				C163.36,149.462,163.768,149.812,164.264,149.958z"/>
			<path d="M176.661,137.3c-0.437,0.262-0.729,0.613-0.963,1.254c-0.934,2.48-1.809,4.989-2.713,7.468l-0.408,1.137
				c-0.205,0.583-0.35,1.196-0.729,2.479c-0.174,0.613-0.35,1.225-0.496,1.838c-0.291,1.08-0.496,2.188-0.7,3.296
				c-0.262,1.08,0.321,2.1,1.342,2.393l0.467,0.117v-0.058c0.875,0,1.692-0.613,1.896-1.43c0.379-1.487,0.788-2.946,1.225-4.434
				l0.291-1.021c0.174-0.554,0.35-1.108,0.554-1.662c1.08-3.034,2.159-6.038,3.296-9.042c0.146-0.437,0.117-0.963-0.146-1.43
				c-0.262-0.554-0.787-0.963-1.867-1.166C177.331,137.036,176.952,137.124,176.661,137.3z"/>
			<path d="M178.353,162.414c-0.205,0.992,0.321,1.926,1.283,2.217l0.438,0.117v-0.058c0.845,0,1.575-0.584,1.75-1.342l0.175-0.729
				c0.088-0.467,0.205-0.934,0.35-1.4c0.205-0.904,0.526-1.809,0.817-2.713l0.379-1.021l0.438-1.225l0.437-1.196l1.283-3.559
				l1.75-4.813c0.117-0.379,0.088-0.817-0.117-1.225c-0.233-0.467-0.67-0.846-1.633-1.051c-0.758,0-1.459,0.526-1.75,1.342
				l-1.371,3.85l-1.4,3.851l-0.438,1.254l-0.641,1.75c-0.233,0.641-0.437,1.254-0.875,2.567
				C178.936,159.963,178.702,160.897,178.353,162.414z"/>
			<path d="M188.59,156.811c-0.087,0.352-0.203,0.848-0.437,1.286l-0.058-0.029l-0.32,1.254c-0.234,0.729-0.467,1.459-0.672,2.188
				c-0.525,1.633-0.963,3.325-1.342,5.017c-0.205,0.992,0.321,1.926,1.283,2.217l0.438,0.117v-0.059c0.817,0,1.575-0.583,1.75-1.342
				c0.437-1.897,0.934-3.733,1.518-5.601l0.904-2.829l0.058,0.029l0.262-1.08c0.059-0.321,0.117-0.672,0.234-1.546
				c-0.088-0.641-0.175-1.254-0.291-1.896c-0.088-0.467-0.467-0.846-0.817-1.051c-0.233-0.117-0.437-0.205-0.934-0.205
				c-0.146,0-0.291,0-0.467,0.029c-0.262,0.029-0.525,0.088-0.729,0.146c-0.963,0.291-1.518,1.254-1.283,2.188
				C187.832,156.112,188.152,156.491,188.59,156.811z"/>
			<path d="M234.678,476.385c0.117-0.379,0.088-0.817-0.117-1.225c-0.233-0.467-0.672-0.846-1.633-1.049
				c-0.758,0-1.459,0.525-1.751,1.342l-0.787,2.159c-0.963,2.684-1.954,5.368-2.743,8.138c-0.233,0.904,0.35,1.926,1.284,2.217
				l0.437,0.117v-0.059c0.817,0,1.545-0.554,1.78-1.342c0.817-2.975,1.867-5.863,2.946-8.751L234.678,476.385z"/>
			<path d="M244.596,476.91c0.467-0.934,0.205-1.954-0.641-2.45c-0.264-0.146-0.584-0.205-0.905-0.205
				c-0.67,0-1.283,0.32-1.545,0.846l-1.897,3.762c-2.129,4.259-4.287,8.488-6.329,12.805c-0.262,0.525-0.321,0.963-0.205,1.371
				c0.117,0.437,0.437,0.846,0.817,1.08c0.291,0.146,0.613,0.233,0.963,0.233c0.672,0,1.254-0.321,1.516-0.846
				c1.838-3.909,3.763-7.73,5.688-11.58L244.596,476.91z"/>
			<path d="M244.625,482.13c-0.729,0-1.545,0.437-1.75,1.313c-0.641,2.508-1.196,5.046-1.75,7.613
				c-0.233,0.992,0.321,1.926,1.254,2.188l0.466,0.117v-0.059c0.7,0,1.575-0.467,1.721-1.313c0.554-2.567,1.166-5.104,1.78-7.612
				c0.117-0.467,0.029-0.963-0.205-1.4C245.909,482.568,245.53,482.276,244.625,482.13z"/>
			<path d="M229.457,55.859l0.525,0.613c0.379,0.32,0.788,0.613,1.662,1.021c0.554,0.262,1.167,0.437,1.926,0.584
				c0.467,0.117,1.021,0.146,2.217,0.262l1.313,0.058l0.134,0.067c0.131-0.001,0.26-0.002,0.391-0.009c0,0,0,0,0,0.029
				c-0.007,0.054-0.014,0.11-0.021,0.165l0.079,0.039c-0.146,1.08-0.291,2.188-0.117,3.267c0,0.437,0.088,0.846,0.291,1.313
				c0.088,0.32,0.264,0.613,0.526,0.875c0.233,0.379,0.525,0.672,0.934,0.963c0.379,0.32,0.729,0.525,1.166,0.67
				c0.437,0.088,0.875,0.176,1.75,0.264c0.467,0,0.904-0.029,1.371-0.146c1.167-0.117,2.305-0.525,3.384-0.904
				c1.225-0.467,2.362-0.992,3.471-1.662c0.788-0.496,1.546-1.137,2.508-1.983c0.409-0.32,0.613-0.817,0.641-1.371
				c0.029-0.641-0.203-1.254-0.641-1.662c-0.379-0.409-0.933-0.641-1.516-0.641c-0.554,0-0.992,0.174-1.518,0.641l-0.992,0.758
				c-0.496,0.35-0.992,0.672-1.518,0.992c-0.496,0.291-1.021,0.554-1.575,0.817l-0.295,0.046c-0.025,0.01-0.05,0.022-0.074,0.032
				l0.02,0.039c0,0,0,0,0,0.029c-0.088,0.029-0.175,0.058-0.262,0.088c-0.409,0.174-0.788,0.35-1.225,0.467
				c-0.467,0.146-0.963,0.262-1.487,0.379l-0.353-0.039l-0.191-0.021c-0.023,0-0.045,0.001-0.069,0.001
				c-0.059,0-0.146,0-0.205-0.029c-0.002-0.001-0.006-0.002-0.008-0.005l-0.225-0.024l-0.102-0.215
				c-0.014-0.017-0.029-0.032-0.044-0.047v-0.034c-0.007-0.017-0.012-0.035-0.018-0.051l-0.156-0.328
				c-0.029-0.029-0.059-1.08-0.059-1.08c0.029-0.496,0.088-1.021,0.176-1.518c0.146-0.817,0.233-1.575,0.262-2.391
				c0.029-0.437-0.146-0.875-0.467-1.225c-0.291-0.291-0.7-0.496-1.4-0.496c-0.117,0-0.233,0-0.379,0
				c-0.291,0.117-0.554,0.175-0.963,0.262c-0.467,0.029-0.904,0.029-1.371,0.029c-0.641,0-1.254-0.029-2.45-0.146
				c-0.375-0.088-0.748-0.176-1.296-0.414c-0.054-0.017-0.109-0.034-0.163-0.053c-0.017-0.015-0.037-0.028-0.055-0.043
				c-0.127-0.031-0.254-0.081-0.383-0.132c0.104,0.021,0.207,0.057,0.311,0.096c-0.098-0.046-0.201-0.097-0.311-0.154l-0.049-0.103
				c-0.023-0.014-0.046-0.029-0.068-0.044c-0.058-0.058-0.117-0.117-0.174-0.175c0-0.029,0-0.058-0.029-0.088
				c0-0.086,0-0.172,0-0.258l-0.059-0.121c0.146-0.641,0.35-1.225,0.467-1.283c0.039-0.069,0.079-0.138,0.118-0.206
				c0.037-0.077,0.075-0.155,0.117-0.232c-0.008,0.025-0.017,0.05-0.025,0.074c0.574-0.994,1.158-1.908,1.834-2.846
				c1.196-1.516,2.479-2.946,4.463-4.638c0.699-0.467,1.4-0.845,1.692-1.021c0.524-0.261,1.107-0.462,1.842-0.528
				c0.162-0.031,0.325-0.06,0.49-0.084c-0.161,0.027-0.297,0.053-0.454,0.081c0.155-0.013,0.314-0.023,0.483-0.023
				c0.029,0,0.088,0,0.146,0.029c0.584,0.146,1.167,0.321,2.188,0.613c0.758,0,1.516-0.584,1.721-1.342
				c0.264-0.904-0.262-1.838-1.254-2.217c-0.584-0.205-1.167-0.379-2.276-0.613c-0.174-0.058-0.379-0.088-0.758-0.088
				c-0.205,0-0.438,0-0.758,0.059c-1.051,0.205-1.897,0.408-2.743,0.817l-0.029-0.058l-1.08,0.641
				c-0.699,0.379-1.342,0.817-1.926,1.313c-1.196,0.904-2.188,2.042-3.559,3.645c-0.729,0.817-1.342,1.662-1.954,2.538
				c-0.641,0.875-1.167,1.808-1.575,2.684c-0.321,0.672-0.554,1.342-0.729,2.071c-0.117,0.554-0.117,1.254,0.174,2.246
				C228.961,55.189,229.165,55.568,229.457,55.859z"/>
		</g>
	</g>
</g>
<g>
</g>
<g>
</g>
<g>
</g>
<g>
</g>
<g>
</g>
<g>
</g>
<g>
</g>
<g>
</g>
<g>
</g>
<g>
</g>
<g>
</g>
<g>
</g>
<g>
</g>
<g>
</g>
<g>
</g>
</svg>
