<?xml version="1.0" encoding="iso-8859-1"?>
<!-- Generator: Adobe Illustrator 19.0.0, SVG Export Plug-In . SVG Version: 6.00 Build 0)  -->
<svg version="1.1" id="Layer_1" xmlns="http://www.w3.org/2000/svg" xmlns:xlink="http://www.w3.org/1999/xlink" x="0px" y="0px"
	 viewBox="0 0 512.001 512.001" style="enable-background:new 0 0 512.001 512.001;" xml:space="preserve">
<g>
	<g>
		<g>
			<path d="M83.661,245.927c0.487,0,0.883-0.122,1.218-0.365c3.318-2.373,6.726-4.716,10.164-6.999
				c1.643-1.095,3.318-2.131,5.113-3.074l1.004-0.518l1.095-0.638l-2.221,3.804c-1.126,1.947-2.252,3.896-3.348,5.874
				c-1.277,2.282-2.435,4.657-3.561,7.001c-0.182,0.395-0.274,0.76-0.274,1.095c0.243,0.884,0.548,1.279,0.943,1.491
				c0.243,0.153,0.609,0.243,0.974,0.243c0.73,0,1.308-0.334,1.582-0.912l0.67-1.43c0.883-1.736,1.673-3.409,2.617-5.083
				l1.095-1.948l0.609-1.065l1.217-2.129c0.852-1.522,1.826-3.166,2.922-4.778l2.161-3.561c0.153,4.505,0.335,8.582,0.578,12.66
				c0.122,1.764,1.401,3.074,3.105,3.074c1.673,0,3.074-1.401,3.074-3.074l-0.061-10.378v-1.187l0.182-1.34l1.582,0.518
				c2.77,2.282,5.418,4.869,8.37,7.79l0.852,0.821c0.487,0.518,1.126,0.791,1.917,0.791c0.791,0,1.461-0.274,1.948-0.791
				c0.487-0.485,0.76-1.095,0.76-1.735c0-0.851-0.425-1.764-1.187-2.648c-1.826-2.1-3.683-4.2-5.722-6.178
				c-1.065-1.035-2.161-1.978-3.347-3.013l-1.644-1.43l1.156-1.156l5.569-2.587l11.138-5.173c0.548-0.303,0.913-0.76,1.126-1.369
				c0.092-0.274,0.122-0.548,0.122-0.821c0-0.487-0.122-0.913-0.334-1.279c-0.243-0.456-0.7-0.942-2.161-1.248
				c-0.487,0-0.913,0.152-1.309,0.334c-5.478,2.314-10.834,4.839-16.191,7.365l-2.313,0.942l1.552-3.226
				c0.487-0.762,1.005-1.491,1.552-2.161l1.035-1.522l1.277-1.705l0.791-1.065l2.709-3.591c0.487-0.67,1.005-1.34,1.522-1.978
				c0.396-0.427,0.548-0.791,0.548-1.34c0-0.517-0.213-1.004-0.548-1.308c-0.304-0.335-0.791-0.548-1.308-0.548
				c-0.457,0-1.066,0.182-1.339,0.548c-1.735,2.252-3.439,4.505-5.113,6.787l-1.279,1.735l-1.004,1.095l-0.457,0.731l0.061-6.969
				l0.182-7.092c-0.029-0.973-0.334-1.704-0.913-2.282c-0.609-0.669-1.522-1.065-2.466-1.065c-1.823,0.005-3.315,1.495-3.375,3.352
				l-0.153,3.074c-0.182,5.722-0.334,11.443-0.456,17.226c-4.078-2.039-8.4-3.896-13.3-5.661h-0.031
				c-0.578,0-1.156,0.122-1.673,0.395c-0.731,0.427-1.248,1.127-1.461,1.917c-0.031,0.031-0.121,0.791-0.121,0.791
				c0,0.548,0.152,1.127,0.425,1.644c0.457,0.76,1.126,1.095,1.918,1.461l1.308,0.548l1.277,0.517
				c1.126,0.487,2.191,0.974,3.226,1.461c0.762,0.395,1.522,0.76,2.221,1.155l1.309,0.67l2.556,1.279
				c-8.826,4.717-16.434,10.013-22.916,14.669c-0.427,0.304-0.944,0.731-1.156,1.461c-0.061,1.156,0.031,1.552,0.243,1.886
				C81.957,245.41,82.839,245.927,83.661,245.927z"/>
			<path d="M180.226,239.294c1.978,0.275,3.956,0.579,5.933,0.913c1.583,0.243,3.165,0.518,4.717,0.791l8.156,1.34l1.857,0.274
				c-0.791,1.066-1.218,1.644-1.643,2.282c-2.191,2.923-4.352,5.904-6.452,8.947c-0.213,0.335-0.335,0.731-0.335,1.156
				c0,0.7,0.274,1.369,0.762,1.887c0.425,0.456,1.095,0.731,1.857,0.731c0.73,0,1.339-0.275,1.673-0.731l2.252-2.587l1.673-2.131
				c-0.243,3.409-0.487,6.878-0.548,10.348c-0.031,0.731,0.274,1.461,0.791,2.039c0.578,0.579,1.34,0.913,2.131,0.913
				c0.821,0,1.552-0.304,2.07-0.852c0.578-0.548,0.73-1.187,0.852-2.1c0.609-5.113,1.066-10.164,1.522-15.307l0.396-3.744
				c0.243,0.122,0.669,0.182,0.73,0.214l1.886,1.796c2.587,2.434,5.234,4.595,7.851,6.451c0.182,0.182,0.548,0.304,0.944,0.304
				c0.609,0,1.218-0.274,1.582-0.638c0.335-0.334,0.578-0.852,0.609-1.43c-0.061-0.731-0.274-1.248-0.609-1.552
				c-0.973-0.852-1.917-1.736-2.8-2.77l-0.517-0.427l1.461,0.122c0.457,0.061,0.883,0.182,1.643,0.395l1.279,0.304l3.53,0.821h0.031
				c1.005,0,1.886-0.638,2.161-1.582c0.122-1.43-0.548-2.343-1.552-2.648c-1.886-0.609-3.804-1.156-5.753-1.705l-1.461-0.304
				l-0.821-0.152l-1.612-0.335l-1.612-0.334l-1.979-0.365l-1.095-0.182l-0.67-0.365l1.279-1.583l1.522-1.764
				c3.044-3.469,6.086-6.94,9.161-10.378c0.517-0.578,0.821-1.277,0.821-2.008c0-0.731-0.304-1.43-0.821-1.948
				c-0.487-0.487-1.218-0.791-2.039-0.791c-0.791,0-1.461,0.304-1.886,0.791c-2.922,3.256-5.813,6.543-8.674,9.8l-1.339,1.491
				c-0.031,0-0.304,0.182-0.335,0.182c0,0,0,0-0.031,0s-0.335,0.214-0.365,0.243c0.365-3.074,0.609-6.209,0.821-9.312l0.304-4.687
				l0.274-4.2c-0.031-0.942-0.274-1.552-0.762-2.039c-0.609-0.639-1.43-1.035-2.313-1.035c-1.672,0.001-2.92,1.309-3.043,3.074
				l-0.243,3.226l-0.973,13.239l-2.343-1.735c-2.221-1.673-4.474-3.318-6.726-4.96c-0.213-0.153-0.456-0.306-1.461-0.306
				c-0.944,0.214-1.491,0.609-1.826,1.156c-0.213,0.335-0.304,0.731-0.335,1.127c0.274,1.43,0.731,1.825,1.217,2.221l7.396,5.508
				c0.7,0.578,1.401,1.156,2.069,1.826l0.578,0.609l0.852,0.79l-1.187-0.029l-4.26-0.67l-7.457-1.156l-8.186-1.187
				c-0.517,0-0.821,0.092-1.156,0.274c-0.517,0.335-0.944,0.913-1.126,1.493c-0.061,1.126,0.031,1.521,0.243,1.857
				C179.1,238.716,179.678,239.234,180.226,239.294z"/>
			<path d="M268.603,233.328c0.274,0.152,0.609,0.334,1.825,0.334l4.383-1.583l1.187-0.546l0.029,0.09
				c2.01-0.76,4.018-1.522,6.086-2.221l2.221-0.821l-0.609,1.46l-2.952,6.817l-0.76,1.796l-0.76,1.826
				c-0.122,1.369,0.427,2.282,1.126,2.709c0.304,0.182,0.791,0.304,1.218,0.304c0.456,0,1.582-0.122,2.068-1.188l1.279-2.829
				l1.279-2.435l1.187-2.557c0.243,0.852,0.334,2.162,0.456,3.714c0.092,1.521,1.248,3.165,3.166,3.165
				c1.735,0,3.134-1.401,3.165-3.165c0.031-1.431,0.031-2.891,0.031-4.353v-2.161v-2.19l0.029-2.862l-0.029-1.522l4.868,2.161
				l3.531,1.583c0.427,0.153,0.76,0.275,1.886,0.304c0.639-0.213,1.188-0.609,1.522-1.187c0.214-0.365,0.335-0.791,0.335-1.248
				c-0.304-1.431-0.731-1.917-1.37-2.222c-0.76-0.395-1.521-0.79-2.221-1.248l-1.401-0.76c3.166-1.401,6.361-2.466,9.587-3.408
				c1.065-0.335,1.796-1.369,1.765-2.466c-0.396-1.552-1.34-2.131-2.862-2.131c-3.133,0.638-6.268,1.43-9.434,2.466l-2.617,0.731
				l-1.43,0.456l-1.066,0.335l1.401-2.709c1.035-1.765,2.039-3.561,3.043-5.357c0.884-1.673,1.857-3.286,2.83-4.901l1.035-1.673
				c0.214-0.365,0.335-0.79,0.335-1.217c0.029-0.942-0.457-1.857-1.279-2.342c-0.365-0.214-0.823-0.335-1.279-0.335
				c-0.913,0-1.796,0.487-2.282,1.279l-0.427,0.699l-1.065,1.796l-2.131,3.591l-1.43,2.587l-0.883,1.248
				c-0.7-4.231-1.309-7.914-1.948-11.565c-0.09-0.821-0.852-1.582-1.522-2.01c-0.608-0.303-1.187-0.456-1.735-0.456l-0.846,0.066
				c-0.852,0.274-1.614,0.852-2.07,1.612c-0.274,0.427-0.396,0.913-0.456,1.522c0,0.395,0.06,0.76,0.182,1.156l0.79,5.173
				l0.884,5.234l0.152,1.735l0.09,1.917l-8.46-4.292c-0.427-0.213-0.851-0.334-1.4-0.334c-0.944,0-1.797,0.487-2.283,1.308
				c-0.213,0.395-0.334,0.883-0.364,1.34c0,0.304,0.029,0.578,0.122,0.852c0.242,0.73,0.638,1.248,1.187,1.521l7.517,3.896
				l3.5,1.736c-5.6,2.252-11.443,4.443-17.255,6.664c-0.791,0.334-1.309,0.67-1.675,1.279c-0.213,0.365-0.334,0.821-0.366,1.308
				c0,0.304,0.031,0.578,0.062,0.852C267.507,232.353,267.963,232.962,268.603,233.328z"/>
			<path d="M353.327,250.039c0.365,0,0.884-0.061,1.401-0.335c2.77-1.43,5.509-2.86,8.399-4.139l0.852-0.427l-0.67,2.01
				c-0.517,1.065-1.004,2.161-1.491,3.256c-0.67,1.704-1.369,3.379-2.068,5.052c-0.852,2.161-1.644,4.352-2.588,7.03
				c-0.09,0.942-0.029,1.279,0.153,1.643c0.396,0.731,1.035,1.156,2.1,1.34c0.395,0,0.823-0.122,1.248-0.304
				c0.487-0.334,0.791-0.76,1.095-1.43l0.852-2.252c0.609-1.644,1.218-3.256,1.886-4.839l1.156-2.709l1.156-2.739l1.126-2.373
				l0.762-1.34l0.852-1.735l0.456,2.161l1.035,4.231c0.334,1.369,0.76,2.738,1.187,4.107l0.517,1.736
				c0.427,1.43,1.675,2.221,3.5,2.221c1.673-0.457,2.618-1.765,2.557-3.195l-0.427-2.07c-0.639-2.738-1.308-5.478-1.857-8.246
				l-0.031-0.884l-0.122-0.699l1.948,1.461c0.548,0.456,1.004,0.669,1.582,0.669c0.609,0,1.188-0.274,1.583-0.669
				c0.365-0.396,0.609-0.884,0.639-1.401c0-0.823-0.243-1.34-0.639-1.735l-3.774-3.683l-1.248-1.126
				c6.726-3.5,13.573-6.909,20.449-10.286c0.67-0.335,1.156-0.944,1.401-1.735c0.122-0.335,0.153-0.639,0.153-1.005
				c0-0.548-0.153-1.126-0.427-1.582c-0.609-0.974-1.583-1.522-2.709-1.522c-0.579,0-1.126,0.152-1.644,0.395
				c-4.382,2.161-8.765,4.353-13.147,6.574l-1.826,0.76l-1.34,0.67c1.554-2.891,3.195-5.722,4.901-8.582
				c0.182-0.334,0.304-0.731,0.304-1.126c0.029-0.913-0.427-1.736-1.156-2.192c-0.365-0.182-0.791-0.304-1.218-0.304
				c-0.883,0-1.673,0.427-2.1,1.156l-1.155,1.978l-0.823,1.43l-2.252,3.865l-0.609,0.821l-2.161-10.833
				c-0.275-1.583-1.887-2.435-3.287-2.435c-0.301-0.001-0.545-0.001-0.818,0.089c-0.821,0.243-1.552,0.823-2.01,1.554
				c-0.303,0.548-0.425,1.004-0.425,1.521c0,0.365,0.06,0.7,0.122,1.127l0.73,4.139l0.487,3.165l0.731,4.139l-1.43-0.942
				c-1.673-1.095-3.5-1.948-5.113-2.648c-1.126-0.487-2.282-0.913-4.139-1.34c-0.031,0-0.031,0-0.031,0
				c-1.156,0-2.191,0.791-2.495,1.887c-0.122,1.735,0.67,2.83,1.825,3.165c0.974,0.304,1.858,0.639,2.8,1.005
				c1.156,0.517,2.252,1.065,3.379,1.673c0.883,0.487,1.764,1.095,2.525,1.643l0.79,0.609l1.279,1.217
				c-4.352,2.617-9.251,5.295-13.999,8.399c-0.883,0.579-1.369,1.493-1.34,2.435c0.031,0.427,0.122,0.852,0.366,1.248
				C351.531,249.582,352.352,250.039,353.327,250.039z"/>
			<path d="M506.405,400.133c-0.274-8.278-0.913-16.585-1.735-24.833c-0.395-4.231-0.883-8.552-3.5-12.052
				c-0.913-1.187-1.673-2.039-2.799-2.951c-1.187-0.944-2.374-1.705-3.683-2.435c-2.617-1.461-5.6-2.373-8.491-3.134
				c-1.147-0.292-2.321-0.488-3.497-0.68c1.233-6.594,1.213-13.285,1.186-19.985c-0.031-7.913-0.031-15.886-0.396-23.799
				c-0.364-8.218-1.308-16.342-2.039-24.529c-0.791-8.705-1.643-17.408-2.77-26.081c-1.126-8.491-2.466-16.951-3.651-25.442
				c-1.187-8.37-2.587-16.708-4.809-24.865c-4.534-16.83-10.316-33.354-17.682-49.178c-1.673-3.622-3.53-7.152-5.447-10.621
				c-1.948-3.53-3.896-7.091-6.117-10.469c-1.095-1.643-2.1-3.347-3.256-4.899c-1.401-1.887-2.8-3.774-4.2-5.63
				c-2.801-3.743-5.935-7.272-8.947-10.833c-2.618-3.134-5.357-6.118-8.125-9.099c-1.401-1.522-3.013-2.86-4.505-4.26
				c-1.583-1.491-3.409-2.83-5.113-4.231c-3.379-2.77-7.03-5.234-10.621-7.7c-3.318-2.282-6.634-4.504-10.104-6.573
				c-1.673-1.005-3.347-2.07-5.081-2.983c-1.978-1.004-3.926-2.129-5.933-3.043c-4.596-2.01-9.191-3.956-13.908-5.751
				c-7.609-2.952-15.46-5.357-23.372-7.334c-4.943-1.241-9.918-2.219-14.908-3.104c0.433-0.548,0.924-1.035,1.336-1.614
				c1.216-1.673,1.978-3.712,2.709-5.629c0.242-0.762,0.364-1.583,0.425-2.404c0.122-1.188,0.122-2.496-0.213-3.651
				c-0.365-1.309-1.217-2.253-2.1-3.227c0.304-6.482,2.068-13.239-1.065-19.385c-1.675-3.348-4.474-5.875-8.004-7.152
				c-1.857-0.639-3.804-1.248-5.753-1.309c-0.973-0.09-1.947-0.09-2.89-0.029c-0.214-3.013-0.639-6.086-1.736-8.917
				c-0.821-2.252-1.947-4.078-3.651-5.751c-0.883-0.883-2.068-1.583-3.134-2.192c-1.339-0.791-2.922-1.277-4.412-1.704
				c-1.188-0.335-2.557-0.518-3.804-0.609C289.937,0,289.298,0,288.658,0c-0.76,0-1.491,0.029-2.282,0.09
				c-2.83,0.214-5.721,1.035-8.307,2.282c-2.1,1.005-4.108,2.253-5.875,3.804c-1.673,1.43-3.104,3.134-4.656,4.717
				c-0.731-0.487-1.461-0.944-2.253-1.34c-2.191-1.095-4.534-1.735-6.969-2.01c-4.534-0.456-9.1,0.243-13.329,1.887
				c-4.17,1.583-8.004,4.382-10.591,8.034c-3.013,4.292-4.2,9.373-4.869,14.517c-0.061,0.456-0.122,0.913-0.213,1.369
				c-0.67,0.122-1.369,0.213-2.039,0.365c-1.886,0.334-3.773,0.731-5.6,1.248c-5.813,1.612-10.804,5.144-13.817,10.377
				c-0.639,1.095-1.034,2.406-1.401,3.591c-0.548,1.612-0.578,3.408-0.456,5.081c0.213,2.952,1.491,5.753,2.799,8.37
				c1.178,2.357,2.842,4.458,4.528,6.49c-1.26,0.412-2.543,0.757-3.797,1.181c-8.186,2.769-16.221,5.933-24.134,9.373
				c-7.517,3.286-14.912,6.999-22.064,11.016c-3.986,2.253-7.882,4.596-11.808,7.001c-1.4,0.852-2.739,1.796-4.108,2.709
				c-1.644,1.126-3.348,2.221-4.96,3.439c-3.774,2.83-7.578,5.69-11.291,8.642c-3.561,2.83-6.999,5.782-10.438,8.735
				c-3.226,2.769-6.239,5.751-9.313,8.642c-5.964,5.629-11.382,11.778-16.191,18.412c-2.739,3.804-5.387,7.639-8.004,11.504
				c-2.434,3.622-4.656,7.334-6.938,11.047c-0.821,1.309-1.491,2.709-2.19,4.079c-1.126,2.1-2.221,4.168-3.318,6.239
				c-0.883,1.673-1.643,3.439-2.434,5.143c-1.187,2.496-2.404,4.991-3.591,7.487c-1.857,3.956-3.379,8.095-5.022,12.143
				c-1.4,3.379-2.617,6.848-3.865,10.286c-1.491,4.139-3.013,8.277-4.322,12.506c-0.791,2.435-1.552,4.901-2.313,7.365
				c-0.578,1.857-0.973,3.804-1.43,5.69c-1.095,4.353-1.978,8.735-2.86,13.148c-0.852,4.2-1.4,8.46-2.039,12.691
				c-1.187,8.064-1.947,16.25-2.709,24.376c-0.821,8.399-1.612,16.799-1.947,25.229c-0.055,1.695-0.034,3.377-0.066,5.062
				c-0.339,0.416-0.599,0.887-0.757,1.452c-0.304,1.095-0.153,2.282,0.427,3.256c0.067,0.112,0.187,0.185,0.265,0.291
				c-0.006,1.342-0.061,2.681-0.053,4.03c0.031,3.956,0.182,7.913,0.274,11.868c0.068,2.489,0.202,4.973,0.297,7.459
				c-0.264,0.746-0.237,1.556,0.093,2.312c0.183,4.511,0.346,9.025,0.538,13.536c-4.051,0.595-8.102,1.17-12.126,1.985
				c-2.617,0.548-5.204,1.308-7.7,2.313c-1.369,0.548-2.648,1.156-3.925,1.918c-1.095,0.638-2.07,1.521-3.013,2.313
				c-1.917,1.522-3.347,3.774-4.474,5.904c-1.522,2.83-2.313,5.933-2.922,9.069c-1.035,5.418-1.126,11.138-1.401,16.647
				c-0.182,4.139-0.366,8.277-0.7,12.416c-0.669,8.827-1.156,17.621-1.308,26.477c-0.122,8.186-0.304,16.403-0.153,24.62
				c0.061,3.561,0.487,7.183,1.369,10.621c0.517,2.1,1.309,4.107,2.069,6.117c0.669,1.735,1.4,3.469,2.161,5.173
				c0.973,2.192,2.648,4.2,4.321,5.874c2.131,2.131,5.052,3.531,7.821,4.657c2.496,1.004,5.081,1.735,7.7,2.313
				c8.673,1.978,17.346,3.714,26.081,5.266c15.429,2.709,31.041,2.161,46.623,1.764c7.882-0.213,15.733-0.395,23.646-0.395
				c8.065,0,16.16,0.243,24.255,0.334c8.673,0.092,17.408,0.304,26.02-0.638c5.083-0.578,10.135-1.035,15.186-1.735
				c4.049-0.578,8.125-1.126,12.173-1.705c8.673-1.065,17.347-2.039,26.05-2.891c7.851-0.76,15.764-1.187,23.617-1.673
				c8.734-0.487,17.469-1.004,26.202-1.248c4.627-0.122,9.222-0.031,13.847,0.029c3.439,0.061,6.908,0.122,10.378,0.092
				c4.382,0,8.765,0,13.147-0.153c4.656-0.152,9.282-0.304,13.907-0.364c1.675-0.031,3.318-0.031,4.991,0.029
				c2.192,0.092,4.413,0.061,6.574,0.304c4.625,0.456,9.222,0.974,13.817,1.522c3.956,0.456,7.882,0.791,11.839,0.821
				c3.409,0.029,6.787-0.182,10.196-0.395c4.017-0.243,8.065-0.487,12.111-0.7c8.004-0.427,15.947,0.7,23.92,1.279
				c4.413,0.334,8.827,0.638,13.269,0.821c3.956,0.153,7.913,0.122,11.839,0.092c2.068,0,4.139,0.029,6.207,0.029
				c6.392,0.061,12.812,0.122,19.174-0.548c2.342-0.213,4.656-0.67,6.969-1.155c5.355-1.127,9.92-3.926,13.359-8.186
				c4.93-6.086,7.73-13.421,10.652-20.573c0.762-1.796,1.248-3.712,1.857-5.569c0.579-1.765,1.095-3.5,1.554-5.295
				c1.155-4.443,2.191-8.887,3.133-13.391c1.765-8.124,2.374-16.616,2.618-24.925C506.405,417.023,506.681,408.593,506.405,400.133z
				 M467.794,330.47l0.152,5.052l0.153,5.052c0.091,2.708,0.181,5.447-0.031,8.185c-0.243,1.218-0.578,2.404-1.126,3.957
				l-2.466-0.122c-0.457-0.031-0.913-0.031-1.369-0.031l-2.04,0.031l-2.068,0.029c-0.731,0.029-1.461,0.029-2.192,0.029
				c-1.187,0-2.404,0-3.591,0.031l-4.382,0.182c-2.891,0.122-5.782,0.274-8.703,0.456c-8.826,0.548-17.621,1.309-26.446,2.192
				l-3.318,0.334c-2.738,0.304-5.508,0.579-8.277,0.823c-3.166,0.274-6.3,0.487-10.196,0.517c-3.622,0-7.273-0.395-11.503-0.821
				c-3.439-0.335-6.909-0.639-10.378-0.944c-4.716-0.395-9.434-0.79-14.15-1.277l-3.714-0.427
				c-3.956-0.427-7.943-0.883-11.929-1.035l-1.34-0.031c-3.651,0-7.364,0.428-10.956,0.852c-1.825,0.214-3.682,0.427-5.539,0.609
				c-4.809,0.427-9.586,0.852-14.364,1.401c-1.917,0.213-3.835,0.487-5.751,0.76c-14.546-0.366-29.123-0.609-43.671-0.883
				l-8.703-0.122c-5.569-0.122-11.138-0.182-16.677-0.182c-11.596,0-23.343,0.243-34.907,0.731
				c-5.173,0.243-10.348,0.548-15.521,0.913c-3.439,0.213-6.877,0.608-10.317,1.004l-2.709,0.334
				c-4.717,0.518-9.404,0.884-14.152,1.156c-1.126,0.061-2.282,0.061-3.408,0.061c-5.753,0-11.322-0.67-17.469-1.461l-2.039-0.303
				c-6.117-0.852-12.448-1.736-19.082-1.736c-5.418,0-10.865,0.579-16.16,1.156l-1.461,0.182c-4.2,0.456-8.43,1.279-12.508,2.1
				l-2.1,0.427c-4.078,0.821-8.156,1.612-12.203,2.374c-5.661,1.095-11.352,2.039-17.104,2.83c-0.419,0.073-0.84,0.131-1.254,0.197
				c0-0.002,0-0.005,0-0.009c0,0-0.031,0-0.061,0c-0.122-4.228-0.182-8.455-0.213-12.775c4.108-2.404,8.247-4.748,12.417-7.091
				c1.491-0.852,3.013-1.643,4.566-2.434l2.648-1.369c1.918-1.035,3.896-1.979,5.874-2.923l2.008-0.942
				c3.987-1.948,8.035-3.712,12.082-5.478l2.617-1.126c4.899-2.131,9.86-4.26,14.76-6.331l0.153,0.029
				c0.031-0.029,0.061-0.029,0.092-0.061c0.01-0.004,0.021-0.009,0.032-0.013l0.425-0.26c4.43-1.736,8.128-3.102,12.186-3.785
				c1.758-0.191,3.533-0.325,5.313-0.325c1.886,0,3.743,0.122,5.569,0.275c1.765,0.274,3.469,0.731,5.144,1.279
				c1.279,0.395,2.556,0.912,3.804,1.43c1.612,0.67,3.226,1.339,4.838,1.978c3.316,1.369,6.603,2.677,9.373,3.804l2.922,1.308
				l2.131,0.942c0.609,0.243,1.218,0.579,1.826,0.883l1.552,0.823c0.639,0.304,1.248,0.638,1.857,1.004l1.065,0.609
				c3.926,2.313,7.974,4.656,12.173,6.574c3.256,1.46,6.573,2.525,9.678,3.53c1.917,0.578,3.835,1.126,5.782,1.583
				c4.108,0.973,7.792,1.491,11.534,1.552c2.374,0,4.809-0.335,7.152-0.7l0.791-0.121c2.008-0.335,3.986-0.762,5.964-1.279
				l1.156-0.304c1.552-0.427,3.105-0.823,4.625-1.279l1.612-0.487c1.491-0.427,2.983-0.883,4.443-1.401l7.273-2.648
				c1.34-0.517,2.648-1.095,3.987-1.704l1.4-0.609l1.796-0.791c1.218-0.517,2.466-1.035,3.651-1.612l6.848-3.379
				c2.343-1.156,4.626-2.373,6.938-3.591l3.469-1.796c2.314-1.188,4.657-2.314,7.03-3.439l4.93-2.221l1.917-0.791
				c1.248-0.517,2.525-1.035,3.804-1.522l1.369-0.517l1.369-0.518c1.673-0.608,3.439-0.973,5.205-1.308
				c0.427-0.029,0.821-0.029,1.248-0.029c0.517,0,1.004,0,1.522,0.029c2.709,0.457,5.234,1.401,7.243,2.192l1.491,0.67
				c1.095,0.487,2.192,0.942,3.256,1.491l1.035,0.517l2.01,1.005c0.669,0.334,1.339,0.73,1.978,1.126l1.248,0.76
				c2.221,1.279,4.353,2.709,6.482,4.17l3.226,2.161l1.217,0.791l1.948,1.277c0.456,0.275,0.883,0.518,1.34,0.762l1.004,0.578
				c1.491,0.823,3.013,1.552,4.534,2.282l1.127,0.548c0.731,0.335,1.491,0.609,2.922,1.156c0.76,0.334,1.552,0.67,2.314,0.942
				l1.796,0.609c1.4,0.517,2.83,1.004,4.26,1.491c3.712,1.217,7.912,2.648,12.113,3.622c3.956,0.913,7.913,1.491,11.686,1.705
				c2.404,0.152,4.777,0.304,7.152,0.304c0.974,0,1.948-0.031,2.922-0.092c5.173-0.243,10.591-1.43,17.56-3.804
				c4.321-1.491,8.613-3.226,12.844-4.961l1.248-0.518c2.221-0.883,4.473-1.796,6.664-2.799c2.77-1.279,5.508-2.587,8.247-3.926
				c1.947-0.973,3.896-1.978,5.813-3.013c2.83-1.491,5.661-2.951,8.582-4.291c1.156-0.427,2.282-0.821,3.5-1.095
				c0.548-0.029,1.095-0.029,1.644-0.029c0.549,0,1.095,0,1.643,0.029c1.37,0.214,2.739,0.487,4.079,0.852
				c1.065,0.243,2.1,0.578,3.133,0.913c1.066,0.334,2.101,0.76,3.166,1.187c0.791,0.304,1.612,0.638,2.434,0.943
				c1.887,0.67,3.775,1.309,5.691,1.917c0.883,0.275,1.735,0.548,2.709,0.852v0.037L467.794,330.47z M215.816,51.792
				c0.015-0.105,0.031-0.207,0.046-0.299c-0.015,0.1-0.028,0.193-0.043,0.286c0.099-0.354,0.202-0.7,0.317-1.046
				c0.335-0.638,0.7-1.279,1.126-1.917c0.609-0.7,1.248-1.369,1.978-1.978c0.913-0.639,1.857-1.187,2.83-1.673
				c2.221-0.791,4.321-1.37,6.482-1.765l1.644-0.243c1.339-0.214,2.709-0.395,3.986-0.821c1.4-0.518,2.525-1.401,3.53-2.77
				c0.852-1.156,1.218-2.496,1.522-4.139l0.243-1.279c0.213-1.34,0.427-2.678,0.731-4.017c0.364-1.552,0.852-3.074,1.4-4.564
				c0.457-0.852,0.944-1.673,1.461-2.525c0.762-0.852,1.552-1.614,2.435-2.343c0.913-0.609,1.826-1.156,2.8-1.675
				c1.857-0.699,3.683-1.187,5.661-1.582c0.852-0.061,1.673-0.092,2.525-0.092c0.639,0,1.308,0.031,1.947,0.061
				c1.248,0.243,2.435,0.609,3.714,1.066c0.548,0.274,1.065,0.546,1.582,0.851c0.548,0.427,1.156,0.731,1.826,0.944
				c0.607,0.213,1.308,0.365,2.161,0.427c0.913,0,2.282-0.366,3.074-0.852c1.796-1.187,3.286-2.739,4.716-4.231
				c0.913-0.942,1.796-1.887,2.799-2.738c1.248-0.884,2.525-1.644,3.897-2.314c1.216-0.427,2.466-0.791,3.803-1.095
				c0.823-0.09,1.644-0.122,2.466-0.122l1.583,0.031c1.187,0.243,2.282,0.548,3.408,0.943c0.484,0.253,0.966,0.524,1.618,1.021
				c0.07,0.045,0.139,0.089,0.208,0.136c0.04,0.04,0.081,0.081,0.122,0.123c0.116,0.093,0.237,0.194,0.365,0.303
				c0.274,0.427,0.517,0.852,0.731,1.308c0.609,1.765,0.974,3.561,1.277,5.448c0.062,0.76,0.153,1.552,0.243,2.343
				c0.061,0.699,0.153,1.43,0.243,2.1c0.243,0.912,0.548,1.673,0.974,2.495c0.7,1.248,1.917,2.131,3.835,2.77
				c0.609,0.182,1.401,0.214,2.101,0.214v0.061l0.973-0.092l1.948-0.031l1.461,0.031c0.851,0.182,1.673,0.427,2.495,0.731
				c0.517,0.243,1.035,0.517,1.583,0.821c0.243,0.243,0.487,0.487,0.699,0.762c0.182,0.243,0.304,0.485,0.548,0.883
				c0.046,0.158,0.09,0.314,0.136,0.469c0.095,0.21,0.186,0.409,0.259,0.627c-0.093-0.209-0.169-0.401-0.252-0.6
				c0.183,0.648,0.35,1.29,0.495,1.969c0.092,2.556-0.182,5.081-0.427,7.516l-0.243,2.373l-0.09,0.944l-0.09,0.912
				c-0.122,1.218,0.09,2.374,0.395,3.926c0.152,1.004,0.638,2.07,1.43,3.256c-0.487,0.913-1.004,1.796-1.583,2.677
				c-0.76,0.913-1.552,1.765-2.373,2.587c-0.88,0.851-1.419,1.957-1.676,3.234c-0.002,0.02,0.007,0.038,0.005,0.057
				c-0.011-0.001-0.022-0.004-0.033-0.005c0,0.029,0,0.061,0,0.09c-3.896-0.548-7.79-1.095-11.686-1.552
				c-4.321-0.517-8.642-0.821-12.995-1.126c-0.67-0.061-1.369-0.092-2.07-0.092l-2.1,0.031l-2.1,0.061
				c-1.917,0-3.804,0.061-5.812,0.182c-4.626,0.213-9.222,0.517-13.847,0.851c-7.79,0.518-16.312,1.583-26.081,3.256
				c-3.292,0.544-6.738,1.33-10.596,2.353l-0.001-0.001c-0.028,0.007-0.056,0.015-0.084,0.023c-1.218-1.217-2.343-2.496-3.439-3.804
				c-1.43-1.948-2.587-3.865-3.5-5.843c-0.246-0.715-0.458-1.416-0.663-2.448c-0.044-0.167-0.087-0.333-0.127-0.504
				c0-0.065,0-0.128,0-0.194c-0.031-0.178-0.061-0.367-0.092-0.566C215.704,52.197,215.76,51.993,215.816,51.792z M138.043,121.637
				c3.563-2.675,7.124-5.322,10.715-7.938c4.474-3.227,9.282-6.057,13.907-8.827l1.644-0.943c4.625-2.738,9.525-5.173,14.242-7.547
				l1.704-0.823c4.717-2.373,9.557-4.473,14.395-6.543c8.917-3.379,16.982-6.239,24.712-8.703c3.469-1.156,7.182-2.131,11.048-2.952
				l1.217-0.304c1.612-0.365,3.256-0.76,4.899-1.004c2.131-0.365,4.26-0.7,6.391-1.035c11.961-1.369,21.09-2.1,30.373-2.434
				c2.83-0.122,5.661-0.214,8.491-0.214c2.039,0,4.078,0.061,6.117,0.182l2.77,0.213c1.612,0.122,3.195,0.214,4.809,0.396
				l3.987,0.487l3.956,0.487l2.343,0.365c8.887,1.308,18.107,2.677,26.994,4.899c4.809,1.187,9.8,2.435,14.546,4.049
				c5.113,1.735,10.134,3.53,15.643,5.629c2.617,1.095,5.234,2.221,7.761,3.5l1.552,0.76c1.034,0.518,2.068,1.005,3.043,1.583
				c1.948,1.156,3.896,2.282,5.843,3.408c2.83,1.612,5.508,3.47,8.399,5.478c2.862,1.917,5.629,3.896,9.008,6.392
				c1.948,1.582,3.926,3.195,5.753,4.93l1.126,1.065c0.67,0.609,1.34,1.248,1.978,1.917c1.187,1.34,2.404,2.678,3.622,3.987
				c1.612,1.796,3.165,3.712,4.687,5.569l1.644,2.039c0.546,0.67,1.126,1.369,1.612,2.1c0.364,0.465,0.727,0.928,1.093,1.391
				c-0.072,0.051-0.147,0.1-0.219,0.152c0.013,0.026,0.026,0.051,0.038,0.077c-2.677,1.947-5.265,3.956-7.881,5.995
				c-1.918,1.43-3.836,2.83-5.814,4.229c-0.699,0.518-1.46,0.974-2.19,1.431l-1.156,0.699c-2.314,1.461-4.93,2.83-7.821,4.139
				c-2.738,1.095-5.357,1.857-8.065,2.374c-1.248,0.09-2.495,0.152-3.744,0.152c-2.404,0-4.808-0.182-7.395-0.487
				c-3.165-0.578-6.299-1.491-9.617-2.799c-6.634-3.043-13.725-6.635-22.306-11.29l-3.775-2.131
				c-2.161-1.217-4.321-2.466-6.543-3.591c-3.896-1.948-7.79-3.804-11.778-5.508c-1.948-0.852-3.926-1.614-5.904-2.374
				c-4.505-1.765-9.373-2.891-14.546-3.318c-0.427-0.061-0.852-0.061-1.248-0.061c-1.765,0-3.591,0.335-5.265,1.004
				c-1.309,0.518-2.496,1.217-3.683,1.918c-1.765,1.065-3.53,2.129-5.266,3.226l-1.796,1.156c-2.799,1.764-5.6,3.53-8.46,5.204
				c-3.622,2.1-7.304,4.2-10.956,6.239l-1.735,0.974c-5.782,3.227-11.778,6.543-17.925,9.222c-4.474,1.796-8.582,2.952-12.66,3.622
				c-1.34,0.122-2.678,0.181-3.987,0.181c-1.248,0-2.495-0.06-3.743-0.152c-2.496-0.395-4.991-1.035-7.669-2.039
				c-1.522-0.638-3.013-1.401-4.505-2.191l-2.131-1.066c-1.34-0.699-2.648-1.43-3.987-2.161l-1.522-0.852
				c-3.53-1.978-6.938-4.139-10.348-6.331c-1.156-0.73-2.282-1.552-3.439-2.404l-1.005-0.73l-1.308-0.974
				c-1.187-0.913-2.404-1.796-3.653-2.677c-1.704-1.248-3.439-2.496-5.265-3.622c-2.008-1.218-4.017-2.314-6.086-3.439
				c-1.187-0.638-2.374-1.187-3.591-1.735l-1.065-0.518l-4.869-2.313l-1.552-0.731c-1.491-0.699-3.012-1.308-4.564-1.826
				c-0.942-0.304-1.947-0.395-2.922-0.485l-1.339-0.122c-0.762,0-1.643,0.152-2.83,0.365c-0.973,0.121-1.947,0.395-2.922,0.699
				l-1.218,0.334c-1.095,0.335-2.19,0.699-3.256,1.065c-1.427,0.468-2.837,0.991-4.255,1.483c-0.504,0.202-0.975,0.458-1.475,0.67
				c0.144-0.111,0.292-0.22,0.435-0.331C138.225,121.575,138.133,121.607,138.043,121.637z M86.128,181.99l1.461-2.587
				c5.173-9.465,11.504-18.139,18.078-26.965c2.625-3.275,5.497-6.496,8.773-9.85c0.017-0.011,0.034-0.024,0.051-0.034
				c0.061-0.092,0.153-0.182,0.243-0.275l0.112-0.073l0.192-0.116c0.011-0.011,0.021-0.021,0.031-0.031l2.313-1.515
				c2.008-1.34,4.047-2.556,6.117-3.773l2.07-1.218c0.913-0.548,1.796-1.065,2.709-1.582l1.491-0.852
				c0.974-0.548,1.917-1.095,2.922-1.583l3.012-1.552l1.522-0.762c1.217-0.638,2.466-1.155,4.352-1.947
				c1.673-0.638,3.318-1.279,4.96-1.826c2.161-0.791,4.474-1.582,6.877-2.039c0.274-0.029,0.548-0.029,0.821-0.029
				c0.304,0,0.578,0,0.852,0.029c0.883,0.122,1.704,0.396,2.495,0.67c0.457,0.122,0.852,0.304,1.461,0.578
				c3.743,1.705,7.457,3.47,11.169,5.266c0.7,0.334,1.37,0.699,2.039,1.095l0.762,0.456c0.67,0.365,1.34,0.731,2.008,1.156
				l3.105,1.978c0.67,0.427,1.309,0.913,1.947,1.401l0.883,0.638c1.673,1.218,3.318,2.466,4.96,3.712
				c1.643,1.247,3.316,2.496,4.991,3.714c1.187,0.912,2.466,1.735,3.743,2.556l1.035,0.699c1.522,1.005,3.074,1.918,4.656,2.83
				c3.774,2.192,7.608,4.321,11.534,6.27c4.049,2.008,8.644,3.226,14,3.712c0.699,0.061,1.369,0.092,2.07,0.092
				c1.917,0,3.835-0.182,5.69-0.518c2.527-0.395,5.113-1.004,8.43-2.008c6.513-2.07,12.599-5.418,18.503-8.644l1.886-1.034
				c3.5-1.917,6.94-3.897,10.348-5.904c3.896-2.253,7.73-4.564,11.504-7.001l1.582-1.034c1.431-0.913,2.83-1.826,4.292-2.709
				l1.522-0.944c1.735-1.065,3.439-2.129,5.265-3.043c0.639-0.243,1.279-0.395,1.978-0.548h0.974c0.852,0,1.705,0.031,2.525,0.09
				c3.506,0.544,7.079,1.545,11.272,3.17c2.967,1.271,5.933,2.541,8.815,3.984c3.561,1.796,7.03,3.682,10.469,5.69l4.838,2.891
				l4.839,2.891c3.104,1.825,6.27,3.561,9.403,5.295l1.005,0.578c3.378,1.826,6.787,3.651,10.316,5.173
				c4.505,1.947,8.856,3.134,13.268,3.651c2.404,0.275,4.778,0.456,7.7,0.456c0.031,0,0.031,0,0.061,0
				c2.435,0,5.113-0.395,8.186-1.155c2.131-0.578,4.2-1.401,6.178-2.282c2.526-1.127,4.962-2.404,7.334-3.775
				c1.552-0.912,3.105-1.917,4.564-2.951c2.618-1.887,5.173-3.835,7.792-5.753c0.548-0.456,1.095-0.883,1.673-1.308h-0.031
				c-0.02,0.016-0.039,0.029-0.059,0.045l-0.458,0.229l1.369-1.034c1.188-0.884,2.374-1.796,3.835-2.739c0.031,0,0.031,0,0.031,0
				c0.066-0.044,0.13-0.089,0.196-0.133c0.016-0.009,0.024-0.024,0.048-0.024c0.852,1.216,1.705,2.495,2.495,3.803
				c1.918,3.044,3.683,6.118,5.448,9.252c1.095,1.917,2.129,3.864,3.104,5.934c-0.699,0.304-1.401,0.609-2.1,0.913
				c-1.401,0.669-2.799,1.43-4.2,2.191l-1.826,0.974c-4.047,2.191-8.065,4.443-12.021,6.817l-1.673,1.004
				c-3.896,2.313-7.79,4.626-11.746,6.848c-4.17,2.374-8.461,4.321-12.113,5.904c-2.952,1.187-6.147,2.343-9.678,2.952
				c-0.852,0.061-1.705,0.091-2.525,0.091c-1.126,0-2.221-0.061-3.347-0.152c-4.535-0.852-8.887-2.435-12.63-3.865
				c-2.83-1.095-5.63-2.192-8.461-3.318c-1.491-0.67-3.012-1.34-4.504-1.978c-1.095-0.456-2.161-1.004-3.226-1.552l-2.131-1.065
				c-2.951-1.461-5.781-3.134-8.612-4.839l-1.705-1.004c-3.439-2.01-6.938-3.865-10.469-5.691
				c-3.621-1.857-7.273-3.712-10.986-5.386c-2.282-1.035-4.535-2.01-6.969-2.129l-1.065-0.062c-1.826,0-3.775,0.304-6.147,0.884
				c-2.161,0.548-4.2,1.521-6.392,2.525c-2.161,1.004-4.352,2.282-7.12,4.107c-2.192,1.493-4.382,3.044-6.543,4.626l-2.983,2.131
				l-2.404,1.735c-2.313,1.705-4.656,3.379-7.059,5.022l-5.935,3.925c-3.653,2.435-7.487,4.596-11.808,6.543
				c-3.439,1.401-6.666,2.314-9.831,2.831c-1.126,0.09-2.221,0.121-3.347,0.121c-1.369,0-2.709-0.061-4.078-0.182
				c-3.044-0.578-5.874-1.339-8.735-2.434c-2.466-1.095-4.838-2.314-7.243-3.53c-1.796-0.884-3.561-1.796-5.355-2.648l-3.195-1.492
				c-2.83-1.339-5.691-2.677-8.491-4.139c-6.086-3.133-12.021-6.695-17.774-10.134l-3.561-2.131c-3.683-2.191-7.365-4.352-11.2-6.33
				c-3.986-2.039-8.034-3.561-12.052-4.505c-2.039-0.457-4.229-0.67-6.513-0.67v-0.092l-1.248,0.122
				c-2.496,0.092-5.113,0.731-7.516,1.34c-1.491,0.395-2.922,0.943-4.809,1.735c-0.913,0.365-1.857,0.76-2.77,1.156
				c-1.796,0.852-3.622,1.735-5.418,2.648c-3.651,1.947-7.243,4.017-10.804,6.178c-3.5,2.161-6.94,4.353-10.378,6.603l-1.126,0.731
				c-1.095,0.731-2.221,1.461-3.316,2.221l-5.083,3.651l-1.644,1.188c-2.008,1.46-4.017,2.891-6.239,4.505
				c-0.335,0.243-0.67,0.517-1.005,0.791c-0.121,0.094-0.237,0.19-0.358,0.284c0.018-0.033,0.035-0.068,0.054-0.103
				c-0.061,0.031-0.092,0.062-0.153,0.092L86.128,181.99z M51.464,307.861c0.304-3.287,0.639-6.513,1.035-10.286l0.304-3.165
				c0.883-8.004,1.857-15.947,2.891-23.89l0.243-1.401c0.7-4.443,1.43-8.887,2.313-13.361l0.548-2.525
				c0.335-1.673,0.731-3.377,1.156-5.052l2.466-9.312c0.364-1.491,0.852-2.952,1.369-4.412l0.274-0.823l0.913-2.617
				c0.699-2.161,1.43-4.292,2.252-6.421c1.978-5.387,4.047-10.682,6.33-16.464l0.487-1.188c1.156-2.738,2.343-5.447,3.591-8.185
				c4.474-3.622,8.978-7.122,13.573-10.652c3.621-2.525,7.273-5.113,10.834-7.669c0.487-0.334,0.974-0.67,1.491-1.004l0.669-0.427
				l1.461-0.913l6.756-4.321c0.731-0.487,1.491-0.942,2.252-1.369l0.852-0.487l1.826-1.035c1.796-1.034,3.622-2.068,5.448-3.073
				c3.408-1.826,6.877-3.531,10.409-5.115c1.034-0.395,2.07-0.79,3.104-1.216c2.556-1.004,5.265-1.522,7.821-1.917
				c0.731-0.061,1.461-0.092,2.191-0.092c0.73,0,1.461,0.031,2.19,0.061c1.644,0.243,3.287,0.67,4.93,1.126
				c1.491,0.396,2.922,0.974,4.321,1.554c5.874,2.648,11.657,6.178,16.738,9.312l5.022,3.043l2.161,1.308l0.973,0.579
				c2.678,1.612,5.326,3.226,8.035,4.656c3.743,1.978,7.516,3.896,11.321,5.753c3.987,1.917,7.913,3.925,11.868,5.964
				c4.687,2.374,9.04,3.926,13.33,4.717c2.1,0.456,4.382,0.67,6.726,0.67c3.439,0,7.061-0.487,10.744-1.493
				c1.917-0.578,3.712-1.308,5.813-2.161l0.883-0.364c2.313-1.005,4.748-2.283,7.608-3.957c2.374-1.4,4.687-2.951,6.969-4.534
				l1.217-0.791c3.226-2.161,6.391-4.413,9.464-6.696l8.035-5.874l1.796-1.279l1.825-1.277c2.587-1.858,5.478-3.5,8.552-4.869
				c1.673-0.67,3.347-1.156,5.173-1.583c0.518-0.031,1.035-0.061,1.552-0.061l1.035,0.09c1.004,0.243,1.948,0.548,2.862,0.913
				c3.896,1.857,7.729,3.926,11.473,5.995c3.682,2.01,7.334,4.108,11.503,6.696c3.348,2.069,6.726,4.17,10.196,5.965
				c3.591,1.857,7.243,3.622,10.986,5.234c4.231,1.796,8.491,3.5,12.781,5.143c4.717,1.765,9.434,2.678,14.364,2.77
				c2.039,0,4.382-0.334,7.365-1.035c3.013-0.76,5.934-1.947,8.43-3.013c3.925-1.704,7.729-3.498,11.503-5.447
				c3.044-1.612,6.026-3.379,8.979-5.143l1.156-0.67c4.777-2.862,9.555-5.722,14.394-8.491l6.817-3.926
				c0.846-0.484,1.695-0.939,2.781-1.302c0.006-0.003,0.012-0.004,0.018-0.006l1.644,3.712c3.469,8.644,7.457,18.961,10.53,29.795
				l0.76,2.495l0.427,1.431c0.366,1.187,0.699,2.373,1.004,3.56l0.7,2.587c0.487,1.735,0.942,3.47,1.369,5.173l0.883,4.413
				l0.974,4.382c0.274,1.401,0.487,2.799,0.731,4.2l0.213,1.248l0.366,2.314l1.461,11.412l1.461,11.412
				c0.973,7.547,1.825,15.733,2.556,24.984l0.1,3.509c0.105,1.298,0.215,2.587,0.326,3.884c-0.05-0.031-0.103-0.056-0.152-0.088
				c0,0-0.031,0-0.031-0.029v0.091c-0.012-0.007-0.022-0.015-0.033-0.022l0.004,0.082c-0.974-0.579-1.887-1.248-2.8-1.887
				l-0.913-0.638c-1.308-0.974-2.648-1.917-4.047-2.799c-2.83-1.736-5.448-3.134-8.004-4.261c-1.705-0.731-3.318-1.216-4.869-1.491
				c-0.791-0.122-1.552-0.213-3.074-0.334c-0.609,0-1.218,0.091-2.83,0.334c-1.552,0.182-3.043,0.883-4.656,1.612l-0.852,0.366
				c-1.765,0.791-3.409,1.857-5.052,2.923l-1.705,1.217l-0.821,0.608l-1.248,0.913l-8.642,6.392
				c-2.19,1.583-4.382,3.074-6.573,4.564l-1.858,1.248l-1.764,1.217c-1.887,1.279-3.774,2.556-5.722,3.743l-5.386,3.348
				c-2.435,1.522-5.052,2.922-8.004,4.229c-1.644,0.67-3.318,1.248-5.052,1.765c-1.887,0.548-3.926,0.913-5.874,1.187
				c-1.309,0.122-2.618,0.182-3.926,0.182c-1.522,0-3.013-0.09-4.564-0.243c-3.5-0.546-6.696-1.4-9.8-2.617
				c-3.195-1.43-6.147-3.195-9.13-5.052l-1.308-0.791l-2.162-1.308l-2.129-1.279c-1.522-0.883-3.043-1.735-4.564-2.587
				c-2.01-1.126-4.017-2.252-5.965-3.469c-3.651-2.253-7.182-4.687-10.713-7.152l-2.434-1.644l-2.404-1.643
				c-1.37-0.913-2.709-1.735-4.474-2.8l-0.852-0.548c-1.095-0.67-2.252-1.277-3.408-1.886l-1.156-0.639
				c-0.548-0.274-1.095-0.517-1.917-0.883l-1.035-0.487c-1.917-0.883-3.835-1.673-5.843-2.343c-2.039-0.699-4.291-1.035-7.576-1.095
				c-1.095,0-2.253,0.122-3.683,0.335c-1.126,0.152-2.221,0.334-3.318,0.578c-3.835,0.76-7.457,2.343-10.865,3.896
				c-3.683,1.705-7.273,3.561-10.682,5.509c-4.109,2.404-8.186,4.838-12.234,7.364l-4.321,2.739l-0.944,0.608
				c-2.435,1.554-4.869,3.074-7.395,4.506l-2.07,1.216c-1.552,0.913-3.105,1.826-4.687,2.648c-3.622,1.887-7.212,3.714-10.956,5.387
				c-1.43,0.578-2.891,1.155-4.382,1.704c-1.886,0.639-3.835,1.156-5.813,1.461c-1.095,0.092-2.19,0.152-3.256,0.152
				c-0.821,0-1.644-0.029-2.466-0.09c-3.142-0.604-6.242-1.766-9.043-3.012c-0.389-0.16-0.776-0.32-1.166-0.483l0.379,0.208
				c-1.917-0.852-3.835-1.705-5.691-2.678l-2.282-1.156l-1.491-0.79c-0.821-0.427-1.614-0.884-2.374-1.37l-0.883-0.546
				c-1.826-1.066-3.591-2.253-5.326-3.439l-1.126-0.762c-1.491-1.004-2.891-2.1-4.595-3.469l-2.283-1.857l-2.313-1.857
				c-2.1-1.735-4.26-3.408-6.452-4.962c-2.313-1.552-4.869-3.012-8.309-4.748c-2.374-1.187-4.838-2.161-7.304-3.073
				c-2.799-0.974-5.629-1.401-7.79-1.644c-0.578-0.092-1.126-0.122-1.705-0.122c-1.491,0-3.165,0.213-5.265,0.67
				c-1.887,0.365-3.865,0.943-6.239,1.825c-7.457,2.83-15.216,6.239-23.738,10.409c-3.53,1.765-7.091,3.561-10.56,5.448
				l-3.134,1.704c-2.495,1.309-4.991,2.648-7.425,4.078l-9.191,5.448l-3.774,2.221c-1.826,1.095-3.622,2.252-5.418,3.408
				l-1.704,1.095l-3.318,2.161l-1.328,0.727l-0.407,0.247c-0.341,0.214-0.67,0.444-1.008,0.66c0.001-0.027,0.002-0.055,0.004-0.082
				L51,315.865c0.001-0.018,0.001-0.034,0.002-0.053l-0.094,0.053C51.068,313.185,51.25,310.508,51.464,307.861z M50.552,326.211
				v-0.001c0-0.029,0-0.06,0-0.09c0.031,0,0.031-0.031,0.061-0.031c0-0.002,0-0.006,0-0.009c2.842-1.874,5.711-3.747,8.612-5.561
				l2.343-1.552c2.07-1.369,4.108-2.709,6.239-3.956l1.035-0.639c5.387-3.255,10.773-6.512,16.281-9.555
				c6.147-3.408,12.295-6.787,18.503-10.073c5.66-2.952,11.594-5.843,17.56-8.521c3.926-1.614,7.212-2.862,10.865-3.531
				c0.578-0.029,1.126-0.06,1.673-0.06c0.731,0,1.461,0.06,2.161,0.121c0.213,0.031,0.457,0.092,0.67,0.153h0.031
				c2.221,0.487,4.443,1.187,6.999,2.221c4.231,1.857,8.186,4.168,12.173,7.059c2.069,1.614,4.078,3.318,6.086,5.052l1.4,1.188
				c1.187,1.035,2.435,2.039,3.653,3.042l1.339,1.065c3.287,2.678,6.938,5.022,10.348,7.152c3.347,2.07,6.817,3.775,10.651,5.63
				c2.069,1.004,4.231,1.886,6.361,2.709c2.525,0.973,4.961,1.582,7.273,1.796c1.034,0.122,2.008,0.152,3.591,0.152
				c0.092,0,0.213,0,0.304,0c1.43,0,2.891-0.213,4.322-0.427l0.821-0.122c2.556-0.364,5.022-1.277,7.547-2.221
				c2.587-1.004,5.083-2.129,7.578-3.316c1.796-0.852,3.561-1.797,5.295-2.739l2.039-1.065c1.277-0.67,2.496-1.401,3.712-2.131
				l1.43-0.852c1.796-1.065,3.53-2.161,5.326-3.256c2.191-1.369,4.382-2.799,6.573-4.2l3.287-2.1
				c3.956-2.466,7.913-4.869,11.929-7.243c4.534-2.678,8.978-4.962,13.482-6.908c0.122-0.061,0.213-0.092,0.334-0.153h-0.028
				l0.122-0.029c1.216-0.457,2.434-0.884,3.651-1.279c1.764-0.578,3.622-0.974,5.508-1.279c0.67-0.029,1.34-0.061,2.01-0.061
				c0.699,0,1.369,0.031,2.039,0.061c1.857,0.365,3.774,0.944,5.965,1.796c1.552,0.67,3.104,1.34,4.595,2.161
				c1.948,1.066,3.865,2.161,5.782,3.379c3.5,2.221,6.878,4.657,10.225,7.091c3.347,2.404,6.756,4.687,10.225,6.909
				c1.947,1.248,3.956,2.373,5.934,3.53c1.43,0.821,2.86,1.643,4.231,2.495l5.722,3.591c4.505,2.799,8.399,4.687,12.295,5.903
				c4.139,1.279,8.735,1.978,13.268,1.978c0.639,0,1.279-0.029,1.917-0.061c2.435-0.122,4.869-0.578,7.244-1.035
				c2.709-0.517,5.569-1.43,8.765-2.829c5.477-2.435,10.591-5.661,14.851-8.461l2.131-1.43c2.891-1.886,5.781-3.774,8.582-5.751
				c3.165-2.221,6.239-4.474,9.343-6.787c1.705-1.279,3.409-2.557,5.113-3.804c1.095-0.791,2.131-1.552,3.227-2.282
				c1.735-1.218,3.591-2.192,5.508-3.134c1.004-0.365,1.948-0.67,3.013-0.913h0.883h0.884c1.552,0.275,3.073,0.731,4.625,1.369
				c3.013,1.34,5.813,2.862,8.247,4.535l2.22,1.552c1.066,0.762,2.131,1.522,3.195,2.221c1.554,1.005,3.105,1.979,4.748,2.952
				c0,0.031,0,0.031,0,0.061c0.002,0.001,0.004,0.001,0.005,0.002c0.273,3.387,0.544,6.774,0.757,10.162
				c0.274,4.717,0.334,9.496,0.304,14.303c0.003,0.236,0.005,0.472,0.007,0.708c-0.003,0-0.005-0.001-0.007-0.001
				c0,0.029,0,0.061,0,0.09l-1.066-0.243c-2.129-0.485-4.26-1.095-6.451-1.886c-4.869-1.857-9.892-3.775-15.034-3.775
				c-1.765,0-3.5,0.243-5.083,0.7c-1.673,0.517-3.286,1.369-5.476,2.495l-3.348,1.735l-4.473,2.374l-2.923,1.552
				c-3.773,2.01-7.851,3.926-13.726,6.482c-2.981,1.218-5.933,2.374-8.916,3.531c-6.147,2.404-12.783,4.748-19.782,5.751
				c-1.887,0.182-3.744,0.274-5.629,0.274l-1.948-0.029c-1.248-0.031-2.496-0.122-3.744-0.214c-1.917-0.152-3.804-0.334-5.722-0.548
				l-1.43-0.242l-1.644-0.275c-1.065-0.182-2.068-0.427-3.104-0.67l-0.852-0.182c-2.1-0.487-4.168-1.126-6.239-1.796l-1.461-0.456
				c-2.129-0.67-4.26-1.369-6.36-2.1c-2.373-0.823-4.687-1.705-6.999-2.618c-1.583-0.699-3.134-1.401-4.657-2.252l-1.126-0.609
				l-1.673-0.913c-0.67-0.366-1.309-0.791-1.948-1.187l-1.004-0.67l-2.8-1.796l-2.495-1.644c-1.461-0.974-2.923-1.917-4.443-2.77
				c-1.796-1.004-3.591-2.008-5.448-2.922c-2.068-1.035-4.2-1.948-6.33-2.83c-3.591-1.491-7.487-2.891-11.839-2.891
				c-0.944,0-1.978,0.122-3.134,0.365c-1.34,0.243-2.678,0.517-4.017,0.883c-0.731,0.214-1.461,0.457-2.161,0.7l-0.974,0.303
				c-1.705,0.548-3.379,1.188-5.052,1.858l-2.01,0.821c-1.461,0.609-2.922,1.187-4.352,1.826l-1.918,0.851
				c-1.155,0.518-2.343,1.035-3.499,1.612l-3.013,1.522l-3.044,1.491c-3.986,2.01-8.004,3.987-12.021,5.935
				c-2.525,1.216-5.113,2.313-7.7,3.439l-2.587,1.095l-1.978,0.731c-3.044,1.095-6.086,2.192-9.221,3.104
				c-3.926,1.188-8.096,2.404-12.417,3.166c-1.095,0.243-2.221,0.427-3.318,0.609l0.092,0.029c0.153-0.029,0.304-0.029,0.457-0.061
				c-0.153,0.031-0.304,0.031-0.427,0.061l0.427,0.031c-1.947,0.213-3.865,0.395-6.208,0.456c-1.277,0-2.617-0.152-4.047-0.274
				c-3.074-0.457-6.117-1.218-9.161-2.039c-3.683-0.944-7.212-2.131-10.621-3.531c-3.621-1.612-7.152-3.622-10.53-5.539l-2.1-1.187
				c-1.034-0.578-2.1-1.095-3.195-1.612l-1.948-1.004c-1.034-0.487-2.1-0.944-3.165-1.37l-2.19-0.943
				c-2.07-0.852-4.139-1.673-6.209-2.495c-1.704-0.67-3.377-1.34-5.052-2.039c-2.313-0.944-4.626-1.887-6.938-2.8
				c-2.1-0.79-4.413-1.4-6.999-1.826c-2.1-0.334-4.382-0.485-7.334-0.485l-1.187,0.029c-3.743,0-7.455,0.578-10.986,1.705
				c-2.221,0.731-4.413,1.521-6.634,2.373c-1.552,0.579-3.074,1.248-4.564,1.887l-1.035,0.427l-5.234,2.221l-1.582,0.67
				c-8.521,3.682-15.917,7.059-22.642,10.377c-6.452,3.195-12.63,6.726-18.534,10.043c-0.619,0.357-1.238,0.724-1.857,1.083
				c0-0.018,0-0.035,0-0.054c-0.031,0.029-0.06,0.061-0.09,0.061l-0.031-2.923C50.401,336.71,50.371,331.475,50.552,326.211z
				 M494.477,422.47l-0.031,3.105c-0.09,5.295-0.517,10.469-0.974,15.764c-0.821,4.778-1.643,9.434-2.86,14.061l-0.548,2.342
				c-0.456,1.858-0.913,3.744-1.522,5.539l-0.851,2.709c-0.487,1.612-1.005,3.227-1.614,4.809l-1.308,3.074l-1.308,3.074
				c-1.765,3.683-3.347,6.421-5.083,8.887c-0.204,0.229-0.408,0.455-0.616,0.678c-0.081,0.12-0.167,0.237-0.266,0.357
				c0.071-0.106,0.153-0.213,0.231-0.32c-0.582,0.628-1.181,1.236-1.845,1.81c-0.578,0.365-1.156,0.7-1.765,1.004l-0.851,0.243
				c-0.944,0.061-1.918,0.092-2.891,0.092c-2.678,0-5.387-0.243-8.096-0.457l-2.039-0.152c-4.321-0.365-8.613-0.67-12.904-0.974
				c-3.348-0.213-6.664-0.243-10.013-0.243h-2.221c-4.168-0.029-8.338-0.122-12.508-0.213c-2.495-0.061-4.991-0.182-7.486-0.304
				l-3.804-0.153l-1.43-0.09c-1.248-0.061-2.495-0.122-4.2-0.122c-0.061,0-0.092,0-0.153,0l-1.857-0.031l-1.886-0.029
				c-0.944,0-1.857,0.029-2.8,0.122c-4.443,0.366-8.826,0.821-13.237,1.369l-4.17,0.548c-3.134,0.427-6.299,0.852-9.434,1.156
				c-2.709,0.243-5.418,0.304-8.096,0.304c-3.439,0-6.877-0.122-10.316-0.275l-1.826-0.061c-1.582-0.06-3.194-0.152-4.809-0.243
				l-2.526-0.122c-0.79-0.061-1.582-0.061-2.373-0.061l-2.648,0.031l-1.004,0.029c-3.256,0.031-6.513,0.214-9.769,0.396l-2.77,0.152
				l-4.047,0.243c-2.496,0.182-4.962,0.366-7.457,0.427l-1.675,0.031c-2.738,0.061-5.476,0.122-8.217,0.122l-3.318-0.031
				l-14.212-0.274c-2.192-0.061-4.382-0.061-6.574-0.061c-5.569,0-11.169,0.122-16.738,0.274
				c-16.981,0.457-34.511,0.974-51.767,2.648c-3.804,0.366-7.608,0.791-11.412,1.218c-4.139,0.487-8.278,0.942-12.417,1.34
				l-4.229,0.395l-4.382,0.427l-1.552,0.152c-1.095,0.153-2.161,0.275-3.226,0.304l-4.108,0.122
				c-2.161,0.092-4.352,0.153-6.513,0.153h-1.735l-3.926-0.122c-12.752-0.335-25.472-0.67-38.194-0.731l-1.066-0.031
				c-4.291,0-8.552,0.122-12.812,0.243l-5.204,0.153c-5.265,0.152-10.499,0.274-15.764,0.274c-8.765,0-15.917-0.395-22.52-1.218
				c-5.113-0.76-10.225-1.704-15.307-2.738c-2.587-0.487-5.144-1.004-7.7-1.583l-1.735-0.395c-3.409-0.731-6.94-1.491-10.286-2.709
				c-1.005-0.487-1.949-1.035-2.86-1.644c-0.031,0-0.548-0.548-0.548-0.578c-1.43-2.1-2.466-4.443-3.651-7.243
				c-0.944-2.557-1.887-5.173-2.313-7.974c-0.609-5.722-0.762-11.565-0.913-17.225l-0.031-0.974
				c-0.182-6.331-0.335-12.691-0.243-19.022c0.061-5.66,0.365-11.29,0.67-16.92l0.092-1.705l0.213-4.413
				c0.213-5.508,0.457-11.198,1.126-16.768c0.396-2.253,0.913-4.322,1.643-6.331c0.517-1.035,1.095-2.01,1.765-2.983
				c0.182-0.213,0.396-0.425,0.821-0.821c0.578-0.395,1.156-0.76,1.765-1.095c0.944-0.307,1.887-0.559,2.86-0.797
				c0.281-0.071,0.565-0.138,0.852-0.207c5.234-0.579,10.621-0.67,15.825-0.76c3.925-0.061,7.882-0.122,11.808-0.396
				c7.792-0.548,15.856-1.369,24.62-2.556c9.982-1.34,18.99-2.466,28.059-2.923c1.522-0.061,3.044-0.09,4.564-0.09
				c5.843,0,11.747,0.517,18.047,1.065c3.774,0.335,7.547,0.579,11.321,0.579c2.069,0,4.139-0.062,6.208-0.243
				c5.265-0.396,9.8-1.127,13.847-2.222l5.295-1.43l5.357-1.4c5.569-1.461,11.351-2.404,16.92-3.318l0.883-0.153
				c17.165-2.008,32.685-3.712,48.601-4.382c0.031,0,0.031,0.031,0.061,0.031c0.609,0.548,1.461,0.883,2.374,0.912l6.605,0.428
				c6.877,0.425,13.756,0.883,20.663,1.339l2.525,0.214c2.618,0.243,5.234,0.456,7.853,0.517l3.439,0.122l4.17,0.122
				c1.279,0,2.617-0.092,3.926-0.152l2.343-0.153c2.738-0.09,5.478-0.427,8.217-0.731l3.134-0.365
				c3.865-0.395,7.761-0.699,11.656-0.883c3.561-0.152,7.122-0.335,10.681-0.638l1.917-0.153c2.557-0.182,5.113-0.395,8.278-0.456
				c2.648,0,5.265,0.304,8.582,0.669c7.913,1.066,15.825,1.918,23.799,2.739l6.878,0.699l6.146,0.609
				c2.739,0.304,5.478,0.427,8.218,0.427c3.896,0,8.124-0.243,12.933-0.791c8.948-1.004,17.803-1.825,26.387-2.434
				c3.104-0.214,6.239-0.335,9.343-0.487l2.343-0.122c3.348-0.153,6.726-0.275,10.074-0.275h1.825l1.491,0.031l1.493-0.031
				c2.221,0,4.412,0,6.726,0.153c3.987,0.274,8.004,0.548,12.295,1.035c3.561,0.609,6.696,1.401,9.555,2.466
				c1.066,0.517,2.1,1.095,3.134,1.735c0.304,0.274,0.579,0.548,0.913,1.004c0.032,0.109,0.061,0.216,0.093,0.325
				c0.211,0.37,0.378,0.782,0.516,1.197c-0.185-0.397-0.328-0.771-0.5-1.143c0.603,2.099,0.977,4.223,1.321,6.377v0.182l0.243,2.191
				c0.487,4.2,1.004,8.399,1.401,12.63c0.487,5.113,0.791,10.591,0.942,16.738C494.598,414.193,494.537,418.332,494.477,422.47z"/>
			<path d="M47.021,422.987l3.469-6.603l0.669-1.339l0.7-1.309c0.578-1.126,1.248-2.22,1.886-3.316l0.548-0.913
				c0.487-0.913,0.213-2.039-0.67-2.587c-0.304-0.153-0.609-0.243-0.913-0.243c-0.67,0-1.309,0.334-1.675,0.913l-0.791,1.369
				c-0.609,1.035-1.217,2.07-1.765,3.134l-1.917,3.651l-1.156,2.221l-1.156,2.192l-0.427,0.821
				c-0.213,0.396-0.427,0.791-0.609,1.187l-3.651,8.035l-0.821,2.008l-0.396,0.883c-0.73,1.797-1.43,3.591-2.1,5.387
				c-0.122,0.395-0.092,0.852,0.122,1.279c0.243,0.487,0.7,0.883,1.187,1.034l0.487,0.122v-0.061c0.334,0,0.669-0.09,0.973-0.242
				c0.396-0.243,0.639-0.579,0.852-1.156l0.548-1.491c0.334-0.852,0.638-1.705,1.004-2.557l1.34-3.226l1.277-2.8l1.279-2.77
				C45.865,425.392,46.412,424.175,47.021,422.987z"/>
			<path d="M61.416,422.957c-0.304-0.487-0.791-0.883-1.947-1.065c-0.427,0-0.821,0.091-1.156,0.274
				c-0.517,0.335-0.791,0.791-1.034,1.37c-2.496,6.239-4.96,12.538-7.395,18.808c-0.578,1.552-1.126,3.165-1.675,4.748l-0.578,1.704
				c-0.944,2.678-1.765,5.387-2.556,8.096c-0.122,0.485-0.061,1.004,0.213,1.491c0.243,0.456,0.699,0.791,1.187,0.942l0.517,0.122
				v-0.061c0.852,0,1.612-0.578,1.917-1.461c0.944-2.677,1.886-5.357,2.86-8.004l1.187-3.194l1.217-3.227l2.466-6.268l5.022-12.539
				C61.841,424.175,61.659,423.414,61.416,422.957z"/>
			<path d="M70.15,433.426c-0.456,0-0.943,0.122-1.339,0.334c-0.639,0.396-0.974,0.974-1.217,1.583l-2.677,7.486l-2.678,7.487
				c-0.335,0.974-0.639,1.917-0.944,2.891l-0.731,2.252c-0.578,1.917-1.095,3.926-1.765,6.513c-0.304,1.308,0.457,2.648,1.765,3.044
				l0.587,0.147c0.007,0,0.015,0,0.022,0v-0.087c1.095,0,2.069-0.73,2.404-1.825l0.791-2.618c0.942-2.981,1.886-5.995,2.952-8.947
				c1.765-4.991,3.53-9.982,5.355-14.973c0.213-0.548,0.153-1.187-0.153-1.796C72.158,434.247,71.519,433.7,70.15,433.426z"/>
			<path d="M80.802,440.243c-1.126,0-2.435,0.73-2.678,2.008L77.85,443.5c-1.796,8.582-3.651,17.469-4.93,26.325
				c-0.122,0.73-0.122,1.308,0.213,1.978c0.365,0.548,0.913,0.973,1.522,1.155l0.627,0.149c0.004,0,0.007,0,0.012,0v-0.088
				c1.187,0,2.252-0.79,2.466-1.857c1.857-9.159,3.714-18.32,5.63-27.45C83.723,442.129,82.901,440.699,80.802,440.243z"/>
			<path d="M99.395,447.181c-0.243-0.152-0.517-0.243-1.065-0.243c-0.182,0-0.396,0.031-0.639,0.031
				c-0.548,0.152-1.004,0.517-1.308,1.004c-0.304,0.548-0.304,1.095-0.243,1.673c0.031,0.092,0.031,0.182,0.061,0.274
				c0.031,0.122,0.031,0.214,0.061,0.335c0,0,0,0-0.031,0c-0.023,0-0.028-0.017-0.031-0.049c0.057,1.873-0.093,3.744-0.335,5.588
				c-0.487,2.709-1.095,5.418-1.673,8.095c-0.517,2.282-1.005,4.596-1.43,6.908c-0.153,0.639-0.092,1.188,0.182,1.673
				c0.304,0.487,0.762,0.852,1.886,1.066c0.913,0,1.947-0.579,2.1-1.614c0.548-2.585,1.126-5.172,1.705-7.76l0.153-0.791
				c0.487-2.221,0.942-4.382,1.339-6.635c0.243-1.46,0.365-2.952,0.457-4.443c0.031-0.791,0.031-1.612,0-2.404h0.092l-0.304-1.401
				C100.309,447.974,99.822,447.456,99.395,447.181z"/>
			<path d="M116.469,453.39c-0.487,0-1.005,0.182-1.34,0.548c-0.335,0.334-0.487,0.76-0.517,1.308
				c-0.67,7.882-1.308,15.733-1.947,23.615c-0.031,0.427,0.122,0.883,0.487,1.217c0.365,0.427,0.883,0.638,1.369,0.638
				s1.005-0.182,1.34-0.548c0.335-0.334,0.487-0.76,0.517-1.308c0.639-7.882,1.279-15.733,1.948-23.615
				c0.031-0.427-0.122-0.883-0.487-1.217C117.473,453.603,116.955,453.39,116.469,453.39z"/>
			<path d="M210.172,449.312c-0.821,0-1.582,0.548-1.826,1.339l-1.705,5.935c-1.582,5.508-3.195,10.986-4.748,16.526
				c-0.122,0.456-0.031,0.974,0.213,1.401c0.243,0.425,0.67,0.73,1.126,0.883l0.432,0.134c0.018,0,0.038,0.001,0.056,0.001v-0.076
				c0.821,0,1.582-0.548,1.826-1.369c1.886-6.756,3.804-13.452,5.751-20.178l0.67-2.282c0.122-0.456,0.061-0.942-0.182-1.369
				C211.541,449.8,211.145,449.495,210.172,449.312z"/>
			<path d="M226.605,442.86c-0.883,0-1.673,0.578-1.857,1.369l-1.218,5.448l-1.552,6.726c-0.731,3.255-1.43,6.482-2.039,9.829
				c-0.122,0.518-0.061,0.974,0.182,1.43c0.274,0.427,0.67,0.731,1.126,0.852l0.486,0.122v-0.061c0.762,0,1.643-0.487,1.796-1.34
				c0.578-3.226,1.277-6.451,2.008-9.617c0.944-4.107,1.886-8.246,2.86-12.416C228.644,444.168,228.067,443.165,226.605,442.86z"/>
			<path d="M242.887,443.347c-0.852,0-1.614,0.548-1.826,1.34l-1.612,6.603l-1.248,4.961l-1.279,4.839
				c-0.548,2.008-1.035,3.986-1.522,5.995c-0.213,1.004,0.364,2.01,1.339,2.282l0.487,0.122v-0.061c0.852,0,1.612-0.578,1.826-1.369
				c0.791-3.318,1.643-6.635,2.739-10.682c0.852-3.255,1.643-6.543,2.435-9.829l0.457-1.886
				C244.926,444.687,244.348,443.652,242.887,443.347z"/>
			<path d="M254.634,447.943c-1.005,0-1.826,0.821-1.857,1.857c0,0.608-0.031,1.216-0.122,1.825c-0.029,0.031,0,0.031,0,0.031
				s0,0-0.029,0c-0.213,1.552-0.517,3.074-0.944,4.626c-0.335,1.339-0.821,2.709-1.34,3.986c-0.517,1.431-1.095,2.8-1.491,3.865
				l-1.308,3.044l-1.34,3.043c-0.182,0.456-0.335,0.913-0.213,1.461c0.153,0.456,0.487,0.883,0.883,1.155
				c0.243,0.122,0.487,0.182,0.943,0.182c0.153,0,0.335,0,0.517,0c0.427-0.122,0.974-0.456,1.156-0.883l0.396-0.913
				c1.004-2.373,2.069-4.777,3.012-7.212c0.731-1.826,1.401-3.622,2.039-5.447c0.913-2.77,1.43-5.722,1.552-8.765
				c0.031-0.457-0.153-0.913-0.517-1.279C255.638,448.156,255.121,447.943,254.634,447.943z"/>
			<path d="M270.521,451.807c-0.517,0-0.974,0.182-1.308,0.517c-0.396,0.365-0.487,0.823-0.548,1.34l-0.76,6.969l-0.762,6.969
				c-0.061,0.457,0.214,1.035,0.548,1.34c0.335,0.335,0.791,0.518,1.308,0.518c0.518,0,0.974-0.182,1.309-0.518
				c0.395-0.366,0.487-0.821,0.548-1.34l0.76-6.999l0.76-6.94c0.061-0.456-0.213-1.034-0.548-1.34
				C271.495,451.99,271.039,451.807,270.521,451.807z"/>
			<path d="M373.05,446.086c-0.335,0-0.67,0.061-0.974,0.214c-0.395,0.243-0.639,0.578-0.852,1.156l-1.43,3.682l-0.913,2.282
				l-0.427,1.066c-0.365,0.973-0.76,1.947-1.095,2.952l-0.365,0.973c-0.427,1.127-0.852,2.253-1.216,3.409l-0.913,2.89
				c-0.214,0.7-0.396,1.431-0.579,2.162l-0.395,1.4c-0.214,1.005,0.365,2.01,1.34,2.282l0.432,0.134
				c0.02,0.001,0.037,0.002,0.056,0.002v-0.077c0.821,0,1.582-0.578,1.825-1.369c0.518-2.039,1.126-4.049,1.735-6.056
				c0.304-0.974,0.639-1.948,1.005-2.923l0.548-1.46c0.883-2.466,1.857-4.901,2.799-7.334l1.218-3.044
				c0.182-0.517,0-1.095-0.182-1.46C374.419,446.573,373.992,446.239,373.05,446.086z"/>
			<path d="M385.861,447.425c-0.821,0-1.552,0.518-1.857,1.369l-4.382,12.174c-1.126,3.104-2.161,6.239-3.195,9.373
				c-0.122,0.427-0.09,0.913,0.153,1.34c0.243,0.485,0.67,0.821,1.187,0.973l0.456,0.122v-0.06c0.823,0,1.583-0.579,1.858-1.401
				c0.973-2.983,1.947-5.965,3.013-8.917l1.643-4.595c0.974-2.678,1.917-5.358,2.923-8.035c0.122-0.395,0.091-0.852-0.122-1.279
				C387.292,448.003,386.835,447.608,385.861,447.425z"/>
			<path d="M393.652,453.755c-0.304,0-0.639,0.061-0.943,0.213c-0.396,0.243-0.823,0.7-0.852,1.126
				c-0.304,2.282-0.639,4.564-1.005,6.849c-0.334,2.161-0.76,4.321-1.187,6.482c-0.122,0.609-0.061,1.065,0.182,1.491
				c0.243,0.395,0.67,0.731,1.126,0.852l0.457,0.122v-0.061c0.76,0,1.673-0.487,1.825-1.369l0.427-2.161
				c0.275-1.461,0.548-2.891,0.762-4.322l0.366-2.281c0.213-1.522,0.456-3.044,0.638-4.566c0.061-0.578,0.09-1.004-0.182-1.491
				C395.021,454.243,394.596,453.907,393.652,453.755z"/>
			<path d="M204.937,111.421c0.549,3.348,1.066,6.666,1.826,9.951c0.213,0.791,0.974,1.369,1.826,1.369v0.061l0.487-0.122
				c0.974-0.274,1.522-1.277,1.34-2.282c-0.731-3.074-1.248-6.178-1.765-9.282l-0.427-2.496c-0.122-0.821-0.944-1.308-2.1-1.308
				c-0.061,0-0.122,0-0.182,0c-0.517,0.182-0.913,0.487-1.126,0.883c-0.243,0.487-0.243,0.913-0.153,1.461L204.937,111.421z"/>
			<path d="M213.368,104.209c-0.001-0.003-0.001-0.006-0.001-0.008c0.329,0.768,0.596,1.558,0.823,2.352
				c0.243,0.76,0.366,1.582,0.487,2.373l0.153,0.852c0.061,0.365,0.092,0.731,0.122,1.126c0.092,0.731,0.122,1.461,0.213,2.952
				c0.061,1.065,0.852,1.857,1.857,1.857c0.517,0,1.035-0.213,1.401-0.608c0.334-0.335,0.487-0.791,0.456-1.248
				c-0.029-0.791-0.061-1.552-0.153-2.343l-0.122-1.095l-0.122-1.126c-0.364-2.981-1.004-5.265-1.978-7.152
				c-0.275-0.548-0.944-0.913-1.614-0.913c-0.335,0-0.639,0.092-0.944,0.243c-0.845,0.514-1.143,1.594-0.587,2.71L213.368,104.209z"
				/>
			<path d="M221.066,101.226l-0.031-0.029c0.243,0.609,0.457,1.216,0.609,1.857c0.304,0.943,0.457,1.886,0.609,2.86l0.213,1.095
				c0.122,0.884,0.243,1.705,0.396,2.525c0,0.456,0.061,0.913,0.153,1.522c0.031,0.456,0.153,0.913,0.548,1.308
				c0.365,0.365,0.821,0.548,1.309,0.548c0.517,0,1.095-0.243,1.461-0.67c0.304-0.365,0.457-0.76,0.396-1.187
				c-0.153-1.644-0.396-3.256-0.67-4.869c-0.395-2.678-1.034-5.782-2.587-8.582c-0.334-0.546-0.973-0.883-1.643-0.883
				c-0.365,0-0.67,0.061-0.942,0.214c-0.852,0.517-1.156,1.673-0.67,2.556C220.58,100.039,220.854,100.587,221.066,101.226z"/>
			<path d="M235.218,96.417c0.638,1.826,1.187,3.683,1.673,5.539c0.213,0.821,0.974,1.401,1.826,1.401v0.061l0.457-0.122
				c1.005-0.275,1.582-1.308,1.339-2.314c-0.425-1.582-0.883-3.194-1.369-4.777c-0.486-1.461-1.248-3.013-2.282-4.748
				c-0.335-0.548-1.005-0.913-1.643-0.913c-0.335,0-0.639,0.09-0.944,0.243c-0.427,0.243-0.731,0.67-0.852,1.156
				s-0.061,0.973,0.182,1.4C234.214,94.349,234.731,95.383,235.218,96.417z"/>
			<path d="M60.35,279.892c0.457,0,0.913-0.182,1.279-0.517c7.426-6.452,14.851-12.873,22.277-19.265
				c0.335-0.274,0.517-0.67,0.548-1.156c0-0.548-0.213-1.065-0.548-1.369c-0.304-0.334-0.731-0.487-1.187-0.487
				c-0.517,0-0.942,0.153-1.308,0.487l-5.387,4.625l-6.877,5.934l-10.013,8.735c-0.335,0.274-0.548,0.67-0.548,1.126
				c0,0.518,0.182,1.035,0.548,1.37C59.438,279.709,59.863,279.892,60.35,279.892z"/>
			<path d="M58.981,289.844c0.487,0,0.821-0.183,1.248-0.518c5.935-4.625,11.808-9.283,17.682-13.938l6.878-5.478
				c0.334-0.243,0.487-0.821,0.487-1.248c0-0.487-0.153-0.942-0.487-1.248c-0.304-0.334-0.762-0.517-1.279-0.517
				c-0.487,0-0.821,0.182-1.248,0.517l-5.782,4.566c-6.239,4.96-12.508,9.921-18.777,14.851c-0.334,0.243-0.487,0.821-0.487,1.248
				c0,0.487,0.153,0.943,0.487,1.248C58.007,289.66,58.464,289.844,58.981,289.844z"/>
		</g>
	</g>
</g>
<g>
</g>
<g>
</g>
<g>
</g>
<g>
</g>
<g>
</g>
<g>
</g>
<g>
</g>
<g>
</g>
<g>
</g>
<g>
</g>
<g>
</g>
<g>
</g>
<g>
</g>
<g>
</g>
<g>
</g>
</svg>
