<?xml version="1.0" encoding="iso-8859-1"?>
<!-- Generator: Adobe Illustrator 19.0.0, SVG Export Plug-In . SVG Version: 6.00 Build 0)  -->
<svg version="1.1" id="Layer_1" xmlns="http://www.w3.org/2000/svg" xmlns:xlink="http://www.w3.org/1999/xlink" x="0px" y="0px"
	 viewBox="0 0 512.001 512.001" style="enable-background:new 0 0 512.001 512.001;" xml:space="preserve">
<g>
	<g>
		<g>
			<path d="M186.686,231.31c-0.205-0.824-0.527-1.585-1.055-2.756l-1.112-2.43l-0.38-0.85c-1.083-2.372-2.518-4.596-4.684-7.26
				c-1.083-1.317-2.195-2.46-3.455-3.571c-2.284-2.021-5.182-3.543-9.164-4.773c-0.556-0.175-1.142-0.293-2.166-0.468
				c-0.878-0.146-1.669-0.234-2.488-0.234c-1.084,0-2.137,0.118-3.28,0.293c-1.346,0.175-2.634,0.468-3.951,0.791
				c-0.791,0.205-1.551,0.467-2.284,0.79c-1.756,0.497-3.542,1.61-5.035,2.518c-3.103,1.961-5.826,5.153-8.577,10.043
				c-1.552,2.752-2.488,5.387-2.84,8.051c-0.293,1.963-0.468,3.952-0.499,5.944c-0.028,1.697,0.293,3.483,0.674,5.153
				c0.527,2.313,2.84,4.041,5.387,4.041c0.497,0,0.965-0.059,1.404-0.175c2.899-0.791,4.538-3.718,3.66-7.524
				c-0.059-1.024-0.028-2.02,0.059-3.015c0.205-1.142,0.497-2.254,0.849-3.367c0.878-1.727,1.933-3.308,3.104-4.919
				c0.849-1.054,1.756-2.079,2.781-3.015c0.907-0.586,1.844-1.111,2.839-1.61c1.757-0.644,3.543-1.111,5.768-1.435
				c0.907,0.206,1.756,0.44,2.665,0.703c0.584,0.322,1.17,0.644,1.756,0.996c0.937,0.877,1.786,1.756,2.606,2.752
				c0.937,1.348,1.757,2.722,2.488,4.216l0.878,2.372c0.586,1.698,1.142,3.367,1.961,5.007c0.965,1.961,3.308,3.279,5.855,3.279
				c0.586,0,1.142-0.088,1.669-0.206c2.518-0.731,5.122-3.366,4.888-6.441C186.948,233.272,186.861,232.13,186.686,231.31z"/>
			<path d="M339.22,209.082l-0.032-0.26l-0.028-0.206l-0.025-0.266c-0.011-0.065-0.022-0.13-0.034-0.203l-0.087-0.643
				c0,0,0.059,0.321,0.087,0.643l0.027,0.136l-0.115-1.219c-0.321-3.074-0.644-6.236-1.405-9.251
				c-1.054-4.129-3.513-7.962-7.115-11.096c-3.22-2.84-6.763-4.509-10.247-4.831c-0.556-0.058-1.111-0.058-1.669-0.058
				c-3.103,0-6.177,0.731-8.226,1.288c-3.484,0.965-7.027,3.192-10.774,6.851c-2.899,2.781-5.035,6.557-6.704,11.885
				c-1.405,4.538-1.171,9.164-0.673,13.467c0.174,1.67,0.526,3.046,1.756,4.275c1.112,1.143,2.665,1.787,4.304,1.787
				c1.61,0,3.161-0.644,4.275-1.787c0.996-0.965,1.932-2.752,1.786-4.275c-0.234-2.459-0.527-4.977-0.321-7.553
				c0.352-1.551,0.79-3.044,1.317-4.509c0.439-0.965,0.936-1.844,1.522-2.753c0.85-0.995,1.757-1.902,2.753-2.752
				c1.17-0.79,2.341-1.523,3.571-2.166c1.171-0.352,2.313-0.644,3.543-0.85c0.468-0.028,0.965-0.059,1.463-0.059l0.527,0.088h0.234
				c0.44,0.234,0.85,0.497,1.289,0.79c1.024,0.878,1.933,1.816,2.81,2.84l0.996,1.727c0.996,2.81,1.551,5.739,1.991,8.227
				l0.293,1.727l0.293,1.698c0.205,1.142,0.644,2.195,1.083,3.25c0.321,1.083,0.849,1.99,1.582,2.721
				c1.142,1.171,2.693,1.787,4.333,1.787c1.669,0,3.455-0.82,4.654-2.138c1.083-1.17,1.61-2.575,1.464-3.982
				C339.631,211.98,339.454,210.575,339.22,209.082z"/>
			<path d="M309.793,261.022c-0.293-0.965-0.731-2.313-1.258-3.25c-0.965-1.61-2.167-2.781-3.718-3.658
				c-0.673-0.352-1.404-0.557-2.166-0.557c-0.381,0-0.761,0.029-1.201,0.118c-0.85-0.849-1.961-1.288-3.133-1.288
				c-1.201,0-2.372,0.439-3.28,1.288c-3.542,3.279-7.407,6.792-11.476,10.101c-3.571,2.575-7.378,4.509-11.008,6.236
				c0.059-0.029,0.118-0.029,0.175-0.059c-0.059,0.028-0.146,0.059-0.205,0.087c-0.22,0.1-0.427,0.2-0.637,0.299
				c-2.488,1.016-4.96,2.021-7.531,2.834c-2.81,0.849-5.708,1.317-8.52,1.786l-0.877,0.059c-0.147,0.029-0.322,0.059-0.468,0.088
				h0.174c0.234-0.029,0.468-0.059,0.733-0.088c-0.234,0.029-0.439,0.059-0.673,0.088h0.673l-3.805,0.497
				c-7.056,0.907-14.345,1.874-21.577,2.137h-1.435c-3.807,0-7.671-0.38-11.39-0.761l-3.337-0.321
				c-3.805-0.352-7.669-0.586-11.476-0.733c-0.44,0-0.878-0.028-1.551-0.087c-1.464,0-2.84,0.293-3.952,0.527
				c-1.874,0.439-3.571,1.844-5.094,4.129c-1.083,1.61-1.464,3.835-1.698,5.767c-0.305,2.327-0.215,4.717,0.189,7.249
				c-0.004,0.025-0.011,0.046-0.014,0.071c0.029,0.118,0.029,0.234,0.059,0.352c0,0.206,0,0.41,0.029,0.614
				c0.028,0.206,0.059,0.381,0.087,0.586c0.059,0.175,0.118,0.381,0.206,0.557c0.028,0.118,0.059,0.234,0.059,0.321
				c0.013,0.025,0.036,0.039,0.051,0.063c0.795,3.595,2.003,6.937,3.725,10.214c1.054,1.961,2.372,3.894,4.188,6.148
				c1.348,1.669,2.752,3.339,4.275,4.86c4.538,4.48,8.578,7.875,12.677,10.658c5.035,3.367,10.774,5.739,16.248,7.787
				c4.157,1.551,7.641,2.606,10.95,3.25c5.034,1.024,11.007,2.079,17.243,2.108c5.241,0,10.746-1.23,16.366-3.66
				c2.519-1.083,4.567-2.137,6.499-3.337c2.079-1.289,4.188-2.928,6.47-4.977c1.523-1.377,2.899-2.869,4.245-4.391
				c1.522-1.67,2.986-3.367,4.275-5.153c2.254-3.192,4.128-6.529,6.03-9.925c1.582-2.927,3.221-6.118,4.335-9.69
				c0.703-2.313,1.083-4.801,1.522-7.466l0.175-0.907c0.615-3.718,1.258-7.554,1.348-11.33c0.146-3.983,0.059-7.759-0.206-11.564
				C310.965,266.175,310.526,263.657,309.793,261.022z M290.992,308.598c-1.252,2.399-2.716,4.681-4.415,6.996
				c-2.079,2.459-4.363,5.065-6.938,7.26c-2.635,1.903-5.446,3.543-8.55,4.948c-2.634,1.054-5.181,1.786-7.758,2.283
				c-1.757,0.175-3.514,0.265-5.269,0.265c-1.582,0-3.133-0.06-4.684-0.235l-1.961-0.233l-1.933-0.206
				c-4.216-0.731-7.728-1.435-11.243-2.459l-0.643-0.265c-0.206-0.061-0.401-0.152-0.606-0.216c0.016-0.006,0.033-0.012,0.048-0.019
				l-0.118-0.028c0.791-0.322,1.435-0.878,1.933-1.669c1.201-0.029,2.372-0.674,3.161-1.787c0.44-0.614,0.703-1.288,1.171-2.341
				c0.439-1.054,1.054-2.137,1.903-3.367c1.903-2.372,4.098-4.596,6.792-6.763c0.114-0.095,0.233-0.189,0.35-0.285
				c0.002,0.002,0.004,0.005,0.006,0.006c0.018-0.015,0.035-0.028,0.054-0.042c1.054,1.289,2.107,2.547,3.161,3.805
				c0.556,0.673,1.376,1.024,2.341,1.024c0.996,0,1.961-0.38,2.576-1.024c0.644-0.615,1.024-1.523,1.024-2.46
				c0-1.083-0.497-1.844-1.024-2.459l-1.934-2.562c-0.073-0.091-0.143-0.181-0.216-0.273l-0.018-0.034l1.405-0.673
				c1.961-0.82,3.923-1.64,5.973-2.166c1.99-0.527,4.01-1.054,6.382-1.493c1.464-0.119,2.928-0.235,4.363-0.322
				c0.293,0,0.586,0.028,0.878,0.059c1.493,0.293,2.868,0.703,4.275,1.201c1.756,0.791,3.455,1.698,5.122,2.694l0.967,0.556
				c0.702,0.41,1.404,0.82,2.107,1.289c0.452,0.248,0.924,0.477,1.397,0.7c-0.047,0.087-0.091,0.179-0.139,0.267
				C290.963,308.569,290.963,308.598,290.992,308.598z M239.472,310.997c0-0.029,0-0.059,0-0.087
				c0.058-0.059,0.116-0.089,0.175-0.118C239.588,310.851,239.529,310.938,239.472,310.997z M299.927,272.879
				c-0.004,0.001-0.007,0.001-0.012,0.001v0.002c-0.904,0.089-1.778,0.467-2.419,1.08c-1.083,0.967-2.108,1.961-3.162,2.957
				l-2.079,1.991c-1.61,1.464-3.308,2.899-5.034,4.275c-3.104,2.225-6.735,3.777-10.364,5.299c-4.422,1.64-9.192,3.046-14.579,4.304
				c-0.205,0.018-0.409,0.035-0.613,0.053c-0.013,0.004-0.025,0.006-0.036,0.008c-2.848,0.247-5.654,0.506-8.455,1.022
				c-2.312,0.408-4.572,1.171-6.575,1.886c-0.021,0.004-0.04,0.008-0.061,0.012c-0.141,0.052-0.281,0.101-0.42,0.152l-0.421,0.067
				l-1.423,0.226c-2.459,0.293-4.888,0.556-7.348,0.731c-1.727,0.087-3.426,0.205-5.122,0.205l-1.61-0.028
				c-1.493-0.059-2.987-0.265-4.422-0.468l-1.405-0.205c-4.275-0.703-8.549-1.376-12.793-2.284
				c-4.129-0.907-8.227-1.903-12.356-3.045c-0.031-0.704-0.031-1.408-0.002-2.139c0.118-0.644,0.293-1.23,0.586-2.02l1.317,0.205
				c3.104,0.468,6.178,0.937,9.31,1.201c3.718,0.352,7.407,0.703,11.126,0.996c1.64,0.147,3.25,0.206,4.86,0.206
				c7.407,0,14.902-1.259,22.104-2.519l2.575-0.439c3.659-0.615,7.231-1.405,10.833-2.195c4.801-1.084,10.041-3.104,15.575-6.061
				c5.737-3.073,10.159-6.03,13.877-9.281c2.547-2.167,5.065-4.422,7.553-6.676c0.028,0,0.028-0.028,0.059-0.028
				c0,0,0.029,0,0.029,0.028c0.028,0,0.028,0.029,0.028,0.029c0.322,1.23,0.557,2.518,0.761,3.748
				C300.014,268.342,300.043,270.596,299.927,272.879z"/>
			<path d="M235.11,249.165c2.606,1.054,5.269,1.786,7.934,2.108c2.605,0.352,5.181,0.586,8.256,0.673
				c4.098,0,7.962-1.582,11.592-3.191c3.836-1.697,7.231-4.743,9.339-8.345c1.142-1.932,1.903-4.098,2.166-6.264
				c0.206-1.405,0.206-2.606,0-4.011c-0.175-1.111-0.468-2.166-0.878-3.25c-0.497-1.346-1.111-2.634-1.756-3.923l-0.41-0.878
				l-0.381-0.76l-0.38-0.761c-0.703-1.258-1.522-2.372-2.43-3.484c-0.586-0.614-1.289-0.996-2.166-1.258
				c-0.41-0.088-0.85-0.147-1.289-0.147c-0.849,0-1.698,0.206-2.43,0.644c-1.083,0.644-1.903,1.669-2.254,2.899
				c-0.293,1.112-0.234,2.753,0.497,3.718c1.786,2.341,3.396,4.977,4.773,7.875c0.205,0.556,0.38,1.142,0.527,1.727
				c0.011,0.011,0.018,0.109,0.021,0.233c0.009,0.223,0.008,0.528,0.008,0.528c-0.175,0.79-0.352,1.522-0.614,2.254
				c-0.352,0.76-0.733,1.463-1.171,2.195c-0.82,0.907-1.669,1.756-2.634,2.547c-0.967,0.673-1.991,1.17-3.074,1.639
				c-1.844,0.733-3.836,1.464-6.002,1.903c-0.731,0.029-1.463,0.059-2.195,0.059c-2.195,0-4.362-0.174-6.498-0.41
				c-2.781-0.497-4.919-1.054-6.938-1.814c-1.289-0.615-2.488-1.289-3.689-2.108c-0.165-0.142-0.319-0.286-0.47-0.433
				c-0.052-0.038-0.098-0.075-0.145-0.122c0.02,0.013,0.04,0.027,0.062,0.042c-0.253-0.249-0.494-0.512-0.735-0.804
				c-0.293-0.439-0.586-0.878-0.849-1.376c-0.234-0.674-0.41-1.317-0.586-2.05c-0.029-0.878-0.029-1.727,0.028-2.606
				c0.175-0.849,0.381-1.61,0.674-2.372c0.38-0.614,0.76-1.201,1.201-1.815c0.38-0.499,0.527-1.171,0.38-1.874
				c-0.175-0.878-0.731-1.727-1.435-2.137c-0.468-0.263-0.965-0.41-1.493-0.41c-0.265,0-0.527,0.059-0.761,0.118
				c-0.849,0.206-1.317,0.731-1.786,1.376c-1.493,1.991-2.372,4.188-2.722,6.91c-0.38,2.722-0.234,5.006,0.352,7.173
				C226.298,244.773,231.919,247.817,235.11,249.165z"/>
			<path d="M449.208,225.187c-0.584-3.133-1.697-6.118-3.014-9.017c-0.82-1.874-1.698-3.689-2.958-5.328
				c-0.674-0.878-1.289-1.669-2.108-2.43c-0.731-0.673-1.58-1.258-2.4-1.844c-1.786-1.258-3.923-2.02-5.914-2.84
				c-2.079-0.849-4.275-1.142-6.499-1.142c-0.82,0-1.669,0.059-2.518,0.118c-2.752,0.175-5.562,0.702-8.08,1.844
				c-1.698,0.731-3.308,1.58-4.86,2.606c-1.112,0.731-2.195,1.522-3.25,2.341c-0.981,0.771-1.869,1.598-2.733,2.45
				c-0.125-5.058-0.477-10.097-1.249-15.126c-0.703-4.743-1.991-9.31-4.216-13.585c-1.084-2.079-2.488-3.982-3.865-5.913
				c-2.4-3.339-5.006-6.499-7.846-9.516c-1.058-1.127-2.182-2.198-3.378-3.183c0.455-0.386,0.97-0.702,1.362-1.172
				c0.877-1.084,1.669-2.226,2.4-3.397c1.289-2.079,2.167-4.391,2.372-6.822c0.146-1.463,0.028-2.868-0.146-4.333
				c-0.615-5.621-1.084-11.447-3.104-16.717c-1.61-4.157-3.396-8.256-5.269-12.296c-0.79-1.757-1.669-3.426-2.518-5.122
				c-1.874-3.602-4.567-6.735-7.173-9.837c-2.753-3.25-5.387-6.645-8.345-9.72c-2.634-2.753-5.855-4.86-8.958-6.997
				c-1.523-1.054-3.074-2.05-4.626-3.015c-3.044-1.933-6.177-3.602-9.544-4.86c-1.403-0.515-2.796-0.984-4.19-1.463
				c-0.054-0.103-0.051-0.222-0.114-0.322c-0.79-1.259-1.697-2.43-2.575-3.602c-2.225-2.927-4.363-5.884-6.733-8.666
				c-2.401-2.781-5.212-5.269-7.964-7.669c-3.015-2.694-6.148-5.359-9.573-7.554c-3.543-2.282-7.231-4.275-10.95-6.236
				c-3.571-1.844-7.319-3.455-11.126-4.801c-3.748-1.289-7.553-2.459-11.358-3.602c-3.836-1.17-7.641-2.372-11.536-3.396
				c-3.805-0.996-7.612-1.903-11.476-2.781c-3.923-0.878-7.816-1.786-11.739-2.752c-2.43-0.615-4.831-1.23-7.29-1.816
				c-4.07-0.937-8.168-1.493-12.354-1.727c-3.25-0.147-6.499-0.206-9.75-0.206c-0.849,0-1.727,0-2.575,0
				c-4.042,0-8.081,0-12.091,0.029c-4.217,0.059-8.433,0.087-12.648,0.263c-3.923,0.175-7.933,0.44-11.828,1.084
				c-3.952,0.644-7.905,1.348-11.798,2.254c-4.188,1.024-8.344,2.079-12.53,3.22c-1.595,0.435-3.148,1.038-4.703,1.616
				c-3.344-5.003-6.634-10.048-10.58-14.556c-2.05-2.342-4.684-4.188-7.407-5.652c-2.722-1.493-5.826-2.372-8.9-2.722
				c-1.727-0.205-3.484-0.292-5.241-0.292c-0.614,0-1.229,0.028-1.873,0.028c-0.733,0.028-1.464,0.059-2.195,0.059
				c-1.289,0.029-2.372,0.468-3.543,0.965c-0.439,0.352-0.878,0.703-1.317,1.084c-0.468,0.467-0.791,1.054-0.965,1.697
				c-0.499,1.377-0.586,2.694-0.527,4.157c0.028,1.318,0.321,2.665,0.527,3.982c0.028,0.088,0.028,0.206,0.058,0.293
				c-0.907,0.088-1.786,0.234-2.693,0.381c-1.961,0.352-3.63,1.582-5.153,2.781c-0.731,0.586-1.258,1.464-1.814,2.195
				c-0.527,0.673-0.85,1.551-1.171,2.341c-0.352,0.908-0.615,1.757-0.791,2.722c-0.059,0.352-0.087,0.674-0.146,1.025
				c-0.79,0.439-1.61,0.849-2.46,1.258c-1.346,0.644-2.634,1.551-3.805,2.488c-2.547,2.107-4.654,4.567-6.616,7.231
				c-3.895,5.358-3.924,12.647-2.195,18.795c0.439,1.522,1.142,3.014,1.814,4.45c0.586,1.258,1.495,2.283,2.343,3.337
				c0.996,1.23,2.313,2.283,3.483,3.367c0.937,0.849,1.787,1.814,2.665,2.693c1.409,1.437,3.012,2.594,4.668,3.645
				c-1.746,3.19-3.309,6.483-4.814,9.793c-1.727,3.748-3.513,7.524-5.006,11.358c-0.703,1.787-1.464,3.573-2.079,5.387
				c-0.674,2.02-1.464,4.011-2.021,6.031c-1.054,3.748-2.048,7.466-2.956,11.213c-0.703,2.987-1.348,5.973-2.079,8.93
				c-1.787,7.407-3.807,14.784-4.948,22.309c-0.078,0.469-0.1,0.904-0.074,1.333c-2.178,2.522-4.253,5.146-6.133,7.889
				c-3.103,4.537-5.474,9.485-7.026,14.755c-0.79,2.694-1.23,5.505-1.582,8.286c-0.38,3.133-0.556,6.207-0.527,9.369
				c0.059,5.767,0.82,11.564,1.787,17.244c0.468,2.781,1.317,5.446,2.459,8.021c0.557,1.258,1.142,2.43,1.844,3.631
				c0.907,1.551,2.137,2.986,3.25,4.391c0.861,1.076,2.52,1.598,3.899,1.685c-0.035,0.26-0.093,0.507-0.126,0.768
				c-0.41,3.658,0.265,7.435,0.965,11.037c0.41,2.195,0.85,4.391,1.318,6.588c0.731,3.66,1.376,7.377,2.341,11.008
				c0.468,1.639,1.025,3.249,1.61,4.86c0.116,0.319,0.276,0.623,0.401,0.943c-1.546-0.339-3.11-0.609-4.676-0.767
				c-1.346-0.118-2.665-0.206-3.982-0.206c-0.497,0-0.996,0-1.493,0.029c-1.757,0.087-3.571,0.497-5.269,0.907
				c-3.571,0.82-6.997,2.4-9.778,4.743c-5.358,4.567-8.93,10.658-10.599,17.478c-1.727,7.084,0.088,14.432,3.631,20.64
				c0.818,1.435,1.932,2.722,2.986,3.951c1.112,1.289,2.606,2.284,3.982,3.25c3.133,2.226,6.763,3.952,10.334,5.359
				c1.377,0.556,2.781,1.024,4.188,1.551c0.731,0.293,1.464,0.527,2.225,0.703c0.908,0.146,1.816,0.234,2.723,0.352
				c0.907,0,1.815-0.088,2.693-0.234c1.289-0.322,2.518-0.733,3.718-1.318c2.927-1.376,5.445-3.396,7.962-5.415
				c2.341-1.903,4.596-3.982,6.442-6.352c0.276-0.357,0.544-0.722,0.822-1.078c2.017,5.358,4.168,10.658,6.935,15.687
				c0.642,1.171,1.365,2.294,2.068,3.43c-0.449,9.313-0.089,18.755,2.678,27.726c1.522,4.888,3.864,9.544,6.148,14.082
				c1.698,3.367,3.69,6.588,5.621,9.837c0.937,1.582,2.079,3.104,3.104,4.656c0.527,0.79,1.142,1.493,1.697,2.254
				c0.761,0.996,1.493,2.048,2.284,3.015c2.459,3.014,4.86,6.03,7.435,8.929c2.05,2.254,4.07,4.509,6.295,6.588
				c2.665,2.519,5.68,4.626,8.637,6.792c3.103,2.254,6.411,4.216,9.749,6.06c1.757,0.996,3.543,1.903,5.359,2.781
				c2.166,1.083,4.45,1.932,6.675,2.84c2.781,1.171,5.739,2.02,8.579,2.986c2.868,0.937,5.68,1.903,8.549,2.812
				c3.192,1.054,6.411,2.049,9.632,2.986c4.596,1.376,9.251,2.722,14.082,2.81c2.84,0.059,5.709-0.439,8.49-0.995
				c0.881-0.176,1.659-0.575,2.488-0.834c-0.214,2.559-0.437,5.119-0.76,7.655c0-0.029,0-0.059,0-0.088
				c-1.025,7.027-2.84,13.877-4.569,20.787c-0.877,3.484-1.814,6.967-2.721,10.452c-0.82,3.104-2.342,6.88,0.028,9.662
				c0.234,0.265,0.468,0.556,0.703,0.82c0.497,0.41,1.024,0.79,1.582,1.083c0.818,0.497,1.814,0.791,2.693,1.142
				c1.348,0.527,2.752,0.878,4.129,1.259c0.312,0.085,0.629,0.138,0.942,0.219c-1.078,4.315-2.168,8.627-3.241,12.965
				c-0.234,0.996,0.321,2.02,1.317,2.313c0.965,0.265,2.05-0.321,2.313-1.317c1.058-4.385,2.17-8.747,3.277-13.108
				c2.011,0.428,4.032,0.817,6.061,1.163c-0.366,4.756-0.731,9.512-1.045,14.269c-0.059,1.024,0.907,1.873,1.874,1.873
				c1.083,0,1.814-0.849,1.873-1.873c0.301-4.552,0.653-9.103,1.002-13.654c2.875,0.467,5.756,0.916,8.629,1.359
				c-0.339,3.846-0.66,7.679-0.735,11.532c-0.029,1.201,0.995,2.166,2.166,2.166c0.586,0,1.142-0.233,1.523-0.614
				c0.439-0.468,0.586-0.965,0.644-1.551c0.382-3.636,0.708-7.254,1.028-10.882c2.579,0.378,5.159,0.76,7.738,1.05
				c-0.081,2.272-0.17,4.539-0.214,6.831c-0.059,1.346-0.087,2.693-0.118,4.041c0,0.731,0,1.463,0,2.195
				c-0.028,1.024,0.087,1.991,0.321,2.986c0.234,0.996,1.348,1.582,2.284,1.318c1.024-0.294,1.551-1.318,1.317-2.313
				c-0.047-0.213-0.094-0.424-0.141-0.636c-0.081-1.256-0.034-2.492-0.034-3.727c0.029-1.289,0.059-2.575,0.118-3.864
				c0.041-2.181,0.126-4.34,0.205-6.504c1.094,0.081,2.186,0.189,3.288,0.236c1.491,0.043,2.952-0.02,4.426-0.067
				c0.105,2.383,0.202,4.767,0.336,7.151c0.059,1.317,0.118,2.665,0.206,3.982c0.059,0.733,0.087,1.464,0.146,2.226
				c0.029,0.293,0.059,0.614,0.118,0.937c0.029,0.205,0.059,0.38,0.059,0.586c0.059,0.556,0.206,1.111,0.41,1.639
				c0.322,1.054,1.405,1.698,2.488,1.405c0.527-0.146,0.965-0.468,1.23-0.937c0.293-0.497,0.293-0.996,0.205-1.551
				c-0.033-0.181-0.066-0.355-0.099-0.528c-0.105-1.299-0.107-2.625-0.135-3.95c-0.059-1.348-0.087-2.665-0.146-3.983
				c-0.07-2.419-0.165-4.837-0.256-7.256c0.021-0.002,0.04-0.003,0.061-0.005c2.195-0.175,4.363-0.527,6.499-1.084
				c0.098-0.023,0.187-0.08,0.285-0.108c0.026,5.248,0.046,10.495,0.14,15.744c0.028,1.024,0.849,1.903,1.903,1.903
				c1.024,0,1.873-0.878,1.873-1.903c0.078-5.821,0.103-11.641,0.129-17.462c0.555-0.294,1.12-0.569,1.671-0.896
				c1.024-0.644,1.961-1.464,2.899-2.226c1.258-0.996,2.341-2.166,3.367-3.367c0.761-0.869,1.359-1.842,2.044-2.763
				c0.234,0.122,0.453,0.269,0.708,0.363c0.032,0.012,0.069,0.008,0.101,0.021c0.018,2.223,0.046,4.44,0.092,6.649
				c0.059,2.722,0.234,5.416,0.439,8.14c0.06,1.201,0.937,2.225,2.226,2.225c1.23,0,2.283-1.024,2.254-2.225
				c-0.049-4.683-0.092-9.365-0.123-14.047c0.781,0.015,1.564,0.046,2.332,0.027c1.152-0.025,2.299-0.176,3.45-0.275
				c0.27,1.553,0.547,3.109,0.801,4.654c0.175,0.907,0.352,1.844,0.527,2.752c0.087,0.586,0.234,1.142,0.352,1.727
				c0.175,0.849,0.497,1.64,0.79,2.46c0.206,0.467,0.41,0.849,0.878,1.111c0.44,0.234,0.965,0.322,1.435,0.175
				c0.468-0.118,0.878-0.439,1.112-0.849s0.38-0.996,0.206-1.464c-0.322-0.79-0.586-1.58-0.82-2.43
				c-0.147-0.556-0.234-1.142-0.352-1.727c-0.175-0.907-0.352-1.844-0.499-2.752c-0.24-1.379-0.469-2.749-0.706-4.121
				c1.663-0.293,3.321-0.622,4.915-1.165c0.867-0.301,1.687-0.722,2.517-1.12c1.439,3.581,2.866,7.173,4.459,10.663
				c0.703,1.522,2.812,1.873,4.129,1.083c0.673-0.381,1.171-1.025,1.376-1.786c0.234-0.85,0.059-1.552-0.293-2.313
				c-0.744-1.692-1.488-3.363-2.231-5.051c-0.791-1.97-1.563-3.925-2.332-5.886c1.91-1.629,3.583-3.531,4.82-5.722
				c1.377-2.43,2.137-5.212,2.284-7.993c-0.088-0.877-0.234-1.727-0.44-2.575c-0.175-0.527-0.352-1.024-0.556-1.551
				c-0.263-0.733-0.557-1.436-0.82-2.167c-0.937-2.488-1.844-4.977-2.752-7.436c-0.85-2.342-1.729-4.684-2.46-7.027
				c-1.726-5.569-3.361-11.167-4.928-16.764c1.515-0.368,3.056-0.637,4.549-1.064c2.4-0.703,4.83-1.377,7.231-2.079
				c1.903-0.527,3.777-1.289,5.65-1.933c3.923-1.348,7.759-2.869,11.623-4.363c1.786-0.673,3.513-1.493,5.269-2.254
				c1.698-0.731,3.396-1.435,5.065-2.283c2.284-1.143,4.538-2.284,6.823-3.455c1.58-0.79,3.103-1.814,4.626-2.721
				c1.435-0.85,2.927-1.64,4.303-2.606c2.137-1.493,4.275-2.958,6.383-4.45c1.522-1.054,2.958-2.254,4.42-3.397
				c1.582-1.201,3.103-2.43,4.597-3.717c1.376-1.171,2.781-2.343,4.098-3.573c1.58-1.435,3.25-2.839,4.743-4.391
				c1.551-1.581,3.103-3.19,4.654-4.772c2.576-2.665,4.948-5.505,7.231-8.403c3.308-4.275,6.178-8.783,8.345-13.73
				c1.435-3.308,2.488-6.735,3.484-10.188c0.907-3.279,1.873-6.588,2.488-9.954c0.761-4.041,1.435-8.109,1.844-12.209
				c0.38-3.513,0.556-7.027,0.41-10.599c-0.175-3.718-0.85-7.466-1.348-11.154c-0.468-3.308-1.083-6.588-2.05-9.807
				c-0.497-1.727-1.024-3.425-1.551-5.153c-0.556-1.874-1.201-3.689-2.254-5.358c-0.443-0.706-1.063-1.242-1.764-1.616
				c0.188-0.688,0.402-1.362,0.59-2.05c0.644-2.401,1.201-4.831,1.552-7.29c0.393-2.588,0.726-5.205,1.011-7.82
				c2.414,0.568,4.858,0.945,7.331,1.292c2.986,0.409,5.973,0.995,8.989,0.673c2.225-0.206,4.479-0.615,6.645-1.23
				c3.483-1.024,6.588-3.103,9.045-5.767c2.694-2.899,4.919-6.352,5.944-10.217c0.76-2.84,1.17-5.709,1.493-8.637
				c0.321-2.869-0.147-5.943-0.586-8.783C449.824,228.438,449.53,226.827,449.208,225.187z M387.551,183.062
				c1.992,2.778,3.368,5.062,4.393,7.317c1.551,4.041,2.282,8.256,2.81,11.828c0.285,2.461,0.484,4.921,0.521,7.4
				c0.054,1.076,0.096,2.151,0.122,3.227c-0.059,0-0.088,0-0.146,0c-0.009-0.001-0.019-0.005-0.027-0.006
				c0,0.022-0.001,0.042-0.002,0.065c-0.907-0.205-1.786-0.468-2.665-0.76c-0.995-0.44-1.932-0.908-2.899-1.405
				c-2.4-1.201-5.122-2.576-7.612-4.304c-1.289-1.083-2.488-2.225-3.571-3.542l-0.733-0.937l-0.731-0.908
				c-2.519-3.455-4.245-6.264-5.533-9.135c-0.908-2.02-1.786-4.041-2.665-6.06c-0.674-1.551-1.523-3.367-2.753-5.065
				c-0.497-0.674-1.111-1.523-1.844-1.874c-0.644-0.321-1.289-0.614-1.932-0.878c-0.44-0.118-0.878-0.234-1.289-0.38
				c-0.527-0.293-0.996-0.586-1.493-0.907c-0.908-0.761-1.727-1.61-2.519-2.577c-1.61-2.313-3.044-4.919-4.391-7.962
				c-0.644-1.669-1.23-3.308-1.639-5.007c-0.029-0.028,0-0.058,0-0.087c0.028,0,0.028-0.029,0.058-0.029c0,0,0.029,0,0.029,0.029
				l0.731,0.234l2.812,1.024c2.225,0.79,4.391,1.64,6.557,2.547c2.401,1.083,4.831,2.226,7.203,3.396
				c2.722,1.318,5.474,2.488,8.256,3.66l-0.029,0.059c0.381,0.206,0.733,0.41,1.143,0.644
				C380.964,175.42,384.096,178.7,387.551,183.062z M86.568,62.303c-0.387-0.327-0.708-0.648-0.972-1.03
				c-0.439-0.673-0.818-1.346-1.17-2.048c-0.352-1.054-0.703-2.108-0.878-3.25c-0.074-0.997-0.085-1.953,0.098-3.339
				c0.006-0.078,0.012-0.154,0.02-0.233c0.009-0.033,0.018-0.066,0.026-0.099c0.026-0.185,0.056-0.374,0.091-0.575l0.234-0.877
				c0.556-1.143,1.171-2.195,1.903-3.308c1.376-1.698,2.81-3.192,4.42-4.567l1.874-1.289l1.289-0.761
				c0.877-0.527,1.844-1.083,2.665-1.815c0.526-0.41,0.937-0.908,1.346-1.464c0.293-0.644,0.557-1.289,0.791-1.961
				c0.118-0.615,0.146-1.289,0.059-1.961c-0.059-0.381-0.059-0.733-0.029-1.142l0.185-0.614c0.005-0.052,0.011-0.101,0.021-0.147
				c0,0.025-0.001,0.052-0.001,0.079l0.06-0.196l0.673-1.201l0.644-0.557c0.234-0.146,0.468-0.293,0.703-0.41
				c0.215-0.066,0.429-0.122,0.64-0.159c0.081-0.038,0.165-0.074,0.239-0.105c-0.062,0.036-0.129,0.068-0.198,0.096
				c0.147-0.025,0.292-0.038,0.432-0.038c0.058,0,0.146,0,0.233,0l-0.001,0.001c0.042-0.009,0.086-0.018,0.129-0.024l0.047-0.02
				c-0.086,0.012-0.168,0.012-0.234,0.012c0.098,0,0.175-0.019,0.267-0.025l0.554-0.238c1.142-0.147,2.226-0.265,3.339-0.586
				c0.584-0.234,1.111-0.468,1.639-0.761c0.761-0.38,1.201-1.142,1.903-2.254c0.878-1.551,0.352-3.426-0.087-5.094
				c-0.234-0.82-0.44-1.786-0.468-2.634v-0.878v-0.088v-0.087h1.844c1.844,0,3.66,0.059,5.505,0.234
				c1.64,0.352,3.133,0.761,4.656,1.317c1.55,0.761,2.986,1.64,4.479,2.634c1.405,1.259,2.84,2.781,4.45,4.773
				c1.997,2.653,4.018,5.612,6.161,9.117c0.134,0.209,0.276,0.416,0.414,0.622c-0.005,0.004-0.012,0.007-0.016,0.009
				c0,0,0.028,0.029,0.028,0.059l-0.005,0.004c0.012,0.019,0.024,0.036,0.034,0.056l-1.552,0.79
				c-1.111,0.586-2.254,1.171-3.337,1.873l-2.868,1.874l-2.928,1.844c-1.083,0.731-2.107,1.493-3.601,2.635l-1.698,1.288
				c-2.811,2.05-5.505,4.363-8.198,6.735l-1.405,1.201c-3.133,2.693-5.855,5.562-8.314,8.256c-2.128,2.3-4.256,4.884-6.661,7.942
				c-0.023,0.035-0.052,0.072-0.074,0.107c-0.002-0.001-0.005-0.002-0.006-0.005c-0.018,0.023-0.034,0.044-0.052,0.066
				c-0.586-0.527-1.142-1.083-2.048-1.991c-0.615-0.584-1.201-1.17-1.874-1.697C90.433,65.053,88.764,63.854,86.568,62.303z
				 M88.905,103.696l0.878-1.991c4.304-9.603,8.754-19.557,15.107-28.164c1.756-2.195,3.66-4.303,5.533-6.411l1.024-1.142
				c0.996-1.112,2.08-2.137,3.162-3.161l1.288-1.259c1.143-1.111,2.372-2.166,3.602-3.19l1.493-1.259l2.254-1.873l2.254-1.875
				l4.188-3.161c1.171-0.878,2.4-1.669,3.63-2.46l1.025-0.673c3.748-2.488,7.67-4.656,11.623-6.411
				c5.358-2.108,11.007-3.602,16.834-5.124c1.669-0.439,3.308-0.849,4.947-1.229l1.64-0.381c1.522-0.38,3.073-0.614,4.626-0.878
				l1.493-0.263l2.722-0.293l3.103-0.352c1.464-0.146,2.958-0.205,4.422-0.293l1.756-0.087c3.22-0.175,6.47-0.175,9.72-0.206
				l1.405-0.028c4.537-0.029,9.104-0.029,13.672-0.029c5.212,0,9.516,0.234,13.497,0.733c3.718,0.586,7.377,1.58,10.92,2.518
				l0.44,0.205c0.128,0.026,0.266,0.069,0.401,0.105c-0.045,0.004-0.088,0.006-0.132,0.009l0.141,0.063
				c-3.074,0.263-6.265,0.731-9.984,1.493c-3.895,0.79-7.7,1.522-11.564,2.166l-4.186,0.674c-2.43,0.38-4.89,0.79-7.348,1.17
				l-1.816,0.265c-1.201,0.205-2.4,0.38-3.63,0.614c-1.991,0.352-3.982,0.849-5.943,1.376c-1.171,0.293-2.284,0.644-3.397,0.996
				l-1.697,0.499c-1.991,0.614-3.952,1.229-5.914,1.873c-1.64,0.497-3.25,1.142-5.359,1.933c-2.107,0.849-4.186,1.697-6.264,2.606
				c-2.928,1.288-5.826,2.575-8.724,3.895l-2.079,0.907c-3.192,1.435-6.324,2.927-9.485,4.45c-0.996,0.468-1.961,0.995-2.928,1.522
				l-1.786,0.967c-1.288,0.703-2.547,1.463-3.805,2.195l-1.669,0.965c-1.083,0.644-2.137,1.317-3.22,1.991l-1.61,0.995
				c-1.084,0.674-2.138,1.405-3.193,2.137l-0.673,0.44c-2.634,1.814-5.212,3.717-7.787,5.621l-1.083,0.79
				c-1.143,0.849-2.226,1.727-3.339,2.575l-1.17,0.937l-3.25,2.547c-1.786,1.435-3.571,2.869-5.3,4.333
				c-0.965,0.761-1.903,1.61-2.84,2.43l-1.111,0.967l-0.967,0.818c-0.79,0.674-1.61,1.377-2.372,2.108l-2.693,2.634l-2.694,2.635
				c-2.225,2.166-4.303,4.42-6.352,6.704c-1.346,1.511-2.617,3.079-3.917,4.644c-0.312,0.409-0.581,0.848-0.885,1.261
				c0.042-0.115,0.075-0.228,0.119-0.342c-0.059,0.087-0.118,0.146-0.175,0.205C86.533,109.317,87.704,106.536,88.905,103.696z
				 M76.667,142.312c1.171-4.479,2.4-8.929,3.66-13.438c0.467-1.757,0.965-3.484,1.522-5.212c0.242-0.794,0.499-1.579,0.742-2.372
				c0.035,0.002,0.073,0.028,0.107,0.028c0,0,0.029-0.028,0.029-0.059c0.614,0,1.201-0.321,1.582-0.878
				c1.727-2.575,3.483-5.153,5.358-7.612c3.103-3.895,6.442-7.582,9.954-10.979l3.923-3.805l0.586-0.557
				c0.38-0.38,0.761-0.761,1.171-1.112l1.903-1.61l1.903-1.639l1.23-1.025l1.201-1.024l6.295-4.947l6.295-4.773
				c1.317-0.996,2.694-1.932,4.041-2.899l2.254-1.581c1.23-0.878,2.519-1.698,3.777-2.547l1.933-1.23
				c0.79-0.527,1.61-0.996,2.43-1.464l1.639-0.965c0.733-0.439,1.493-0.907,2.254-1.317l1.464-0.82
				c1.727-0.965,3.484-1.933,5.24-2.84l1.377-0.703c0.673-0.352,1.376-0.703,2.079-1.024l1.786-0.82l2.606-1.201
				c2.722-1.258,5.474-2.46,8.226-3.63l4.422-1.874c1.933-0.82,3.836-1.61,5.269-2.226c0.175-0.087,0.321-0.146,0.497-0.205
				l-0.028-0.029l0.118-0.028c1.991-0.79,4.01-1.523,6.031-2.195c2.166-0.731,4.362-1.376,6.557-2.02
				c2.284-0.673,4.567-1.348,6.91-1.903c1.346-0.352,2.693-0.674,4.069-0.908c0.761-0.174,1.523-0.321,2.722-0.497
				c5.708-0.761,11.389-1.582,17.098-2.459c2.664-0.381,5.299-0.908,7.962-1.436c2.634-0.526,5.299-1.054,7.962-1.463
				c2.313-0.265,4.656-0.468,6.997-0.644c1.493-0.118,2.987-0.206,4.48-0.265c1.258-0.059,2.488-0.116,3.748-0.233
				c0.804-0.059,1.489-0.433,1.901-1.055l0.001,0.001c0.029,0,0.029-0.029,0.029-0.029c0-0.028,0.028-0.028,0.058-0.028
				c2.138,0.527,4.276,1.112,6.383,1.756c8.666,2.606,17.888,5.768,27.344,9.428l1.143,0.527c1.317,0.615,2.634,1.201,3.923,1.874
				c1.463,0.761,2.899,1.551,4.333,2.342l1.112,0.614c3.658,2.02,7.026,4.216,10.334,6.675c4.07,3.426,7.407,6.47,10.217,9.485
				c0.648,0.671,1.227,1.389,1.845,2.074c-6.959-1.605-14.091-2.367-20.787-2.981c-6.061-0.556-11.477-0.82-16.541-0.82
				c-1.933,0-3.865,0.029-5.797,0.118c-7.494,0.352-15.37,0.996-24.738,1.961c-4.391,0.468-8.813,0.996-13.205,1.523
				c-4.391,0.497-7.934,1.083-11.184,1.814l-2.02,0.41c-1.317,0.265-2.634,0.557-3.894,0.878c-2.343,0.615-4.684,1.258-6.997,1.903
				c-2.781,0.761-5.562,1.61-8.315,2.46l-1.903,0.556l-10.159,3.015c-4.684,1.405-9.397,2.81-14.083,4.216
				c-13.847,4.275-28.368,10.13-44.382,17.888c-3.718,1.786-7.435,3.571-11.066,5.505l-3.162,1.697l-3.161,1.698
				c-0.967,0.527-1.903,1.083-2.84,1.669l-1.874,1.112l-5.094,3.074c-1.346,0.79-2.606,1.697-3.894,2.606l-1.874,1.288
				c-2.927,1.961-5.739,4.098-8.549,6.207l-1.844,1.376c-2.226,1.669-4.333,3.425-6.47,5.182l-2.987,2.488
				c-1.142,0.907-2.195,1.961-3.22,2.986l-1.464,1.405l-0.878,0.703c-0.174,0.174-0.348,0.352-0.524,0.524
				c0.009-0.038,0.019-0.076,0.027-0.116l-0.087,0.088L76.667,142.312z M68.5,217.64l-1.435,1.025
				c-0.059,0.059-0.119,0.118-0.175,0.146l-0.001,0.001c-0.001-0.001-0.001-0.004-0.002-0.005l-0.053,0.039
				c-0.41-0.703-0.79-1.376-1.112-2.108c-1.463-3.923-2.048-7.992-2.693-12.354c-0.824-7.413-0.882-13.59-0.268-19.388
				c0.586-3.484,1.377-6.47,2.46-9.104c1.727-3.807,4.01-7.671,6.791-11.536c2.343-2.958,4.86-5.739,7.378-8.52l1.639-1.844
				c1.377-1.493,2.869-2.957,4.333-4.391l0.644-0.644l2.02-1.961c0.674-0.644,1.377-1.23,2.079-1.815l0.82-0.674
				c1.582-1.405,3.192-2.81,4.831-4.186c1.756-1.495,3.601-2.928,5.446-4.333l1.61-1.201l2.313-1.639l4.977-3.484
				c1.786-1.23,3.601-2.372,5.474-3.513l1.669-1.054c1.464-0.937,2.958-1.874,4.48-2.722l8.607-4.743
				c1.493-0.82,3.044-1.582,4.596-2.313l1.991-0.965l1.816-0.908c1.493-0.731,3.014-1.463,4.537-2.166
				c4.773-2.254,9.544-4.391,14.376-6.47c3.014-1.201,5.971-2.372,8.988-3.543c1.933-0.79,3.923-1.435,6.207-2.167l3.103-0.995
				c1.991-0.703,4.041-1.259,6.09-1.816l3.044-0.82c2.02-0.586,4.041-1.142,6.031-1.669l3.015-0.79l3.367-0.908
				c4.772-1.258,9.544-2.518,14.316-3.689c3.133-0.79,6.265-1.523,9.428-2.225c2.226-0.527,4.45-0.908,6.676-1.259l1.639-0.293
				c5.739-0.673,11.505-1.258,17.303-1.61c6.763-0.41,13.497-0.761,20.23-0.996c2.606-0.087,5.241-0.146,7.847-0.146
				c3.424,0,6.822,0.088,10.246,0.263c4.752,0.286,9.639,0.724,14.568,1.382c1.045,0.105,2.07,0.211,3.093,0.315l-0.061-0.031
				l-0.062-0.025c-0.088-0.015-0.17-0.028-0.252-0.044c0.065,0.008,0.129,0.015,0.193,0.015l-0.439-0.147l0.238,0.035l-0.238-0.122
				l1.405,0.205l1.258,0.206l1.288,0.205c1.727,0.265,3.484,0.497,5.212,0.82c2.928,0.644,5.827,1.317,8.696,2.166l2.108,0.586
				c5.533,1.551,10.92,3.104,16.014,5.094c2.84,1.258,5.445,2.899,7.874,4.509c2.138,1.405,4.275,2.812,6.383,4.333
				c2.986,2.576,5.533,5.621,7.641,8.227c0.761,1.024,1.61,2.02,2.547,3.161l2.575,3.162c3.718,5.035,6.207,10.949,8.403,16.16
				l0.466,1.429l0.002,0.007c0.087,0.174,0.146,0.321,0.205,0.497l-0.263-0.79c0.067,0.165,0.129,0.326,0.194,0.488l-0.135-0.517
				c1.551,3.805,2.518,7.085,3.103,10.334l0.352,2.313l0.703,4.333c0.059,0.557,0.087,1.084-0.087,2.02
				c-0.557,1.025-1.143,2.021-1.727,2.987c-0.322,0.586-0.615,1.171-1.054,2.137l-0.322,0.673c-0.215,0.405-0.413,0.818-0.669,1.315
				c-0.002-0.001-0.005-0.002-0.007-0.004c-0.028,0.059-0.028,0.088-0.058,0.118l-0.878-0.41c-1.23-0.556-2.43-1.112-3.777-1.873
				c-0.206-0.094-0.423-0.169-0.63-0.262c-0.022-0.047-0.021-0.101-0.042-0.148c-0.088-0.059-0.147-0.088-0.234-0.147
				c-0.674-1.111-1.61-1.639-2.899-2.195l-1.874-0.761l-4.128-1.669l-4.245-1.873c-5.446-2.43-11.067-4.919-16.863-6.792
				c-2.958-0.907-6.09-1.464-9.516-2.048l-1.669-0.293l-3.777-0.733c-2.84-0.526-5.708-1.083-8.607-1.404
				c-7.875-0.967-16.307-1.435-25.09-1.435c-7.32,0-14.815,0.321-22.279,0.995c-9.135,0.761-17.303,1.874-24.972,3.426
				c-3.748,0.761-7.466,1.669-11.184,2.665c-4.303,1.171-8.607,2.313-12.911,3.455c-1.991,0.557-3.983,1.054-5.973,1.523
				l-4.743,1.201c-4.129,1.054-8.227,2.226-12.325,3.425c-2.899,0.878-5.767,1.903-8.607,2.958l-2.81,0.995l-10.277,3.69
				c-8.197,2.986-16.366,6.002-24.504,9.192c-6.265,2.488-12.471,5.415-18.679,8.344l-2.665,1.229
				c-3.805,1.786-7.612,3.571-11.389,5.387c-3.104,1.464-6.118,3.104-9.485,4.948l-1.317,0.703
				c-3.221,1.785-6.296,3.835-9.691,6.118l-7.7,5.065l-3.044,1.991C79.479,208.975,73.653,213.571,68.5,217.64z M108.225,215.174
				c-0.008,0.022-0.018,0.042-0.026,0.065c-0.094,0.267-0.193,0.537-0.296,0.814c-1.756,4.01-3.455,7.114-5.328,9.807
				c-0.439,0.527-0.877,0.996-1.727,1.669l-0.79,0.206c-0.761,0.146-1.551,0.321-2.226,0.731c-1.697,1.054-2.781,2.313-3.19,3.748
				c-0.352,1.289-0.586,2.635-0.791,3.982l-0.234,1.377l-0.527,2.956l-0.526,2.958c-0.85,4.45-1.904,8.256-3.25,11.711
				c-0.791,1.698-1.727,3.279-2.812,4.86c-0.937,1.171-1.932,2.284-2.986,3.337c-0.41,0.41-0.849,0.791-1.405,1.171
				c-0.233-0.233-0.468-0.469-0.821-0.837c-0.02-0.013-0.036-0.028-0.056-0.041c-0.009-0.015-0.018-0.028-0.025-0.044
				c-0.066-0.069-0.134-0.141-0.209-0.22c-0.948-1.651-1.919-3.351-2.5-4.778c-0.088-0.183-0.175-0.369-0.261-0.555
				c-0.023-0.041-0.045-0.082-0.066-0.12c0.042,0.109,0.081,0.22,0.104,0.328c-0.06-0.139-0.12-0.293-0.18-0.441
				c-0.063-0.018-0.288-0.496-0.288-0.524c-1.084-2.752-1.961-5.65-2.869-8.783c-1.083-3.66-2.283-7.788-2.986-12.032
				c-0.175-1.669-0.205-3.308-0.087-5.007c0.233-1.111,0.467-2.166,0.818-3.22c0.352-0.761,0.733-1.435,1.201-2.137
				c0.733-0.79,1.495-1.493,2.342-2.167l0.907-0.673c1.67-1.258,3.339-2.488,5.066-3.658l1.317-0.937
				c1.757-1.23,3.513-2.46,5.358-3.543c2.46-1.464,4.89-2.84,7.407-4.157c2.722-1.405,5.534-2.722,8.373-3.952
				c1.611-0.644,3.221-1.201,4.919-1.582c0.029-0.028,0.029-0.028,0.029-0.028c0.028,0,0.028,0.028,0.059,0.028
				c0,0,0.028,0.029,0.028,0.06c0.029,1.551-0.028,3.103-0.146,4.626c-0.255,1.577-0.686,3.199-1.332,5.035
				C108.214,215.194,108.219,215.185,108.225,215.174z M119.822,357.085c-0.674,5.709-1.348,11.594-1.377,17.45
				c0,1.814,0.147,3.658,0.265,5.505c0.042,0.362,0.105,0.722,0.155,1.084c-0.023-0.029-0.045-0.06-0.068-0.089
				c0,0.028,0,0.087,0,0.115l-0.673-0.878c-0.878-1.142-1.727-2.254-2.518-3.483c-1.436-2.108-2.869-4.245-4.245-6.442
				c-3.044-4.801-5.474-9.31-7.378-13.73c-1.493-3.777-2.487-7.671-3.073-11.945c-0.293-2.665-0.527-5.328-0.644-7.993
				c0-0.028,0.028-0.059,0.059-0.087c0-0.002,0-0.005,0-0.006c0,0,0,0,0.026,0c0,0,0.028,0.028,0.059,0.028
				c2.372,3.103,5.035,6.177,7.962,9.135c2.547,2.577,5.328,4.919,8.109,7.261l0.644,0.556l2.792,2.327l0.019,0.019
				c0,0.001,0,0.025,0,0.036C119.955,356.035,119.822,357.056,119.822,357.085z M146.028,405.628
				c-0.004,0.026-0.004,0.055-0.004,0.086h-0.029c0,0,0,0.028,0,0.058c-3.66-2.079-6.411-3.864-8.958-5.767l-0.761-0.586
				c-3.805-3.19-7.494-6.822-11.651-11.447l-0.088-0.321c-0.004-0.003-0.007-0.008-0.011-0.012l-0.341-1.159
				c-0.439-1.61-0.79-3.279-1.054-4.947c-0.234-1.816-0.41-3.69-0.497-5.534c-0.087-2.283,0.029-4.567,0.175-6.85
				c0.167-2.696,0.433-5.394,0.827-8.168c0.065-0.586,0.129-1.171,0.198-1.757c0-0.028,0.029-0.059,0.059-0.059h0.016
				c0-0.001,0-0.004,0.001-0.006h0.009c0-0.022,0-0.042,0-0.065c0.001-0.006,0.002-0.012,0.004-0.018h0.011
				c0-0.002,0-0.005,0.001-0.006h0.015c0.028,0,0.028,0.028,0.059,0.028c0.849,0.674,1.727,1.318,2.606,1.961
				c3.659,2.665,6.763,4.86,10.1,6.851c1.536,0.881,3.076,1.766,4.718,2.7c0,0.001,0,0.003,0,0.005
				c0.047,0.027,0.094,0.054,0.142,0.081v0.113h0.001l-0.086,6.389c-0.029,1.814-0.029,3.658,0,5.474
				c0.029,2.372,0.293,4.743,0.614,7.114c0.206,1.61,0.499,3.22,0.82,4.801c0.265,1.58,0.733,3.192,1.201,4.772
				c0.468,1.669,0.996,3.339,1.611,5.066c0.116,0.327,0.249,0.655,0.269,1.041c0.029,0.072,0.075,0.135,0.106,0.206
				C146.083,405.658,146.055,405.643,146.028,405.628z M168.947,415.139l-2.986-0.848c-3.484-1.024-6.822-2.313-9.339-3.367
				c-1.844-0.818-3.689-1.669-5.562-2.634c0,0,0,0,0-0.029c-0.001,0-0.002-0.001-0.004-0.001c0.107-0.487,0.058-0.974-0.172-1.375
				l0.058-0.028l-0.526-0.733c-0.322-0.497-0.586-1.024-0.791-1.493c-0.907-2.137-1.551-4.362-2.195-6.557l-0.234-0.791
				c-0.79-2.722-1.258-5.445-1.669-7.905c-0.234-1.757-0.41-3.543-0.497-5.328c-0.088-1.523-0.088-3.044-0.088-4.567v-0.907
				l0.118-5.914c0-0.028,0-0.059,0.029-0.059c0.028,0,0.028,0,0.028,0c0-0.002,0-0.005,0-0.006c0.025,0,0.028,0,0.056,0l2.43,1.258
				c5.371,2.715,11.27,5.43,18.095,8.377v0.002c0,0,0.028,0.025,0.056,0.027c0,0.001,0,0,0,0.025
				c0.001,0.001,0.002,0.001,0.004,0.001c0.059,5.058,0.118,10.114,0.439,15.141c0.175,3.103,0.527,6.177,0.965,9.251
				c0.234,1.727,0.556,3.426,0.907,5.122c0.234,0.967,0.557,1.961,0.791,2.986c0.029,0.091,0.06,0.182,0.091,0.273
				c-0.012-0.004-0.022-0.007-0.032-0.009C168.947,415.081,168.947,415.111,168.947,415.139z M191.989,421.259
				c-0.001,0.028-0.001,0.058-0.001,0.087l-3.573-0.937c-3.308-0.849-6.588-1.756-9.894-2.665l-1.23-0.35l-4.363-1.259
				c0.118-0.352,0.118-0.703,0.029-1.024c-0.44-1.435-0.82-2.868-1.171-4.304c-0.439-1.903-0.731-3.835-1.054-6.118
				c-0.849-7.114-1.024-14.17-1.111-20.757c0,0,0,0,0.028,0c0.007,0,0.026,0.005,0.053,0.012c0-0.003,0-0.007,0-0.009
				c0.04,0.018,0.079,0.033,0.121,0.051c0.087,0,0.175,0.029,0.205,0.029c0.059,0,0.41,0.116,0.439,0.146
				c6.154,2.479,12.369,4.87,18.696,7.117c0,0.002,0,0.005,0,0.007c0.023,0.008,0.046,0.016,0.071,0.025v0.025
				c0.001,0,0.002,0,0.002,0.001c0,2.304,0,4.61,0.059,6.913c0.029,3.749,0.381,7.788,1.025,12.004
				c0.512,3.363,1.022,6.755,1.533,10.192c0.046,0.272,0.093,0.544,0.139,0.817C191.992,421.259,191.991,421.259,191.989,421.259z
				 M212.537,422.692l-0.41,0.175l-0.026,0.031h-0.028l-0.381,0.175c-1.171,0.118-2.372,0.175-3.602,0.234
				c-1.58,0.088-3.161,0.175-4.772,0.175c-0.878,0-1.727-0.028-2.606-0.087c-0.644-0.118-1.317-0.265-1.961-0.468
				c-0.719-0.149-1.435-0.359-2.156-0.532c-0.006-0.181-0.002-0.36-0.04-0.553c-0.029,0-0.059-0.028-0.088-0.058l-0.965-6.383
				l-0.996-6.383c-0.146-1.142-0.263-2.313-0.41-3.455l-0.205-1.844c-0.206-2.284-0.293-4.538-0.352-6.822l-0.029-4.129
				c0,0,0-0.028,0.029-0.059h0.029c0-0.001,0-0.003,0-0.006c0.021,0,0.025,0,0.025,0c7.788,2.46,15.809,3.484,23.568,4.48
				c1.936,0.26,3.898,0.49,5.919,0.721c0,0.006-0.002,0.011-0.002,0.016c0.028,0,0.056,0,0.085,0c0,0,0,0,0,0.024
				c0.001,0,0.004,0.001,0.005,0.001c0.001,0.4,0.028,0.775,0.086,1.176c0.147,1.289,0.175,2.635,0.059,4.098
				c-0.468,3.015-1.083,6.53-2.341,10.101c-0.381,0.673-0.733,1.346-1.171,2.02C217.338,418.358,215.172,420.613,212.537,422.692z
				 M231.106,398.458c-0.002-0.016-0.007-0.033-0.009-0.049c0-0.018,0-0.035,0-0.052c2.868,0.116,5.739,0.146,8.579,0.146
				c2.722,0,5.446,0,8.167-0.146c1.084-0.029,2.138-0.119,3.221-0.234c0,0,0,0,0.028,0c0.029,0.002,0.034,0.008,0.054,0.027
				c0.002,0.002,0.004,0.004,0.007,0.007v0.025c0,0,0.002,0,0.004,0c0,0.022,0,0.043,0,0.065l-1.757,1.963
				c-0.731,0.79-1.464,1.581-2.225,2.372c-0.703,0.731-1.436,1.435-2.167,2.137l-0.527,0.527c-2.868,2.752-6.031,5.269-9.105,7.699
				l-1.493,1.171l-2.693,2.05l-0.79,0.586l-0.522,0.319c-0.154,0.118-0.309,0.221-0.463,0.336c0.008-0.025,0.021-0.048,0.028-0.073
				l-0.098,0.061c1.024-2.987,1.376-6.149,1.551-8.579c0.118-1.376,0.205-2.753,0.263-4.626
				C231.186,402.315,231.242,400.415,231.106,398.458z M232.36,419.735l1.17-0.878c1.405-1.054,2.781-2.107,4.129-3.192l1.376-1.083
				c1.054-0.82,2.079-1.64,3.074-2.518l0.965-0.791c1.171-0.965,2.313-1.961,3.425-3.015l1.201-1.142l1.201-1.142
				c0.497-0.44,0.936-0.937,1.376-1.435l0.79-0.85c1.878-1.964,3.638-4.018,5.345-6.21c0.004-0.001,0.007-0.001,0.011-0.001
				c0-0.016,0.02-0.032,0.032-0.047c0.009-0.013,0.02-0.023,0.029-0.035c0.028,0,0.058,0,0.087,0
				c0.007-0.008,0.013-0.018,0.02-0.026c1.6-0.26,3.175-0.543,4.721-0.887c4.01-0.79,7.962-1.61,11.944-2.519
				c0.028,0.001,0.048,0.007,0.053,0.028c0.001,0.005,0.009,0,0.009,0.009c0.029,0.029,0.029,0.059,0.029,0.087
				c-0.439,1.289-0.937,2.576-1.317,3.543l-0.41,0.908c-0.527,1.17-1.024,2.372-1.61,3.513l-0.761,1.493l-2.254,4.333
				c-0.761,1.435-1.523,2.868-2.372,4.245l-0.527,0.907c-1.669,2.752-3.337,5.474-5.415,8.314c-2.255,2.81-4.45,5.182-6.764,7.32
				c-0.965,0.877-1.961,1.756-2.986,2.634l-1.201,1.054c-1.493,1.289-2.958,2.606-4.422,3.923l-0.79,0.673
				c-1.289-0.028-2.606-0.118-3.895-0.234c-3.455-0.556-6.645-1.404-9.777-2.665c-1.698-0.76-3.367-1.61-5.007-2.575
				c-0.82-0.468-1.582-0.966-2.343-1.582c-0.039-0.027-0.078-0.059-0.118-0.086v0c-0.028-0.029-0.028-0.029-0.058-0.059
				c1.083-1.142,2.107-2.43,3.014-3.718l0.942-1.272c0.008-0.005,0.018-0.011,0.025-0.016l0.118-0.174l0.146-0.088
				c0.004-0.005,0.007-0.012,0.011-0.016l3.533-2.355C230.222,421.346,231.305,420.526,232.36,419.735z M282.565,452.089v0.084
				c-0.233-0.145-0.524-0.232-1.021-0.232c-0.146,0-0.263,0-0.41,0.029c-1.435,0.263-2.84,0.643-4.244,1.054
				c-1.786,0.527-3.602,1.025-5.446,1.464c-3.543,0.849-7.203,1.551-11.126,2.079c-1.551,0.175-3.074,0.322-4.626,0.439
				c-2.079,0.118-4.098,0.176-6.177,0.176c-1.289,0-2.634-0.147-3.923-0.265l-1.405-0.118c-2.107-0.175-4.188-0.321-6.295-0.41
				c-0.439-0.028-0.849-0.059-1.289-0.059l-1.288,0.029c-0.703,0-1.405,0-2.138,0.028l-6.03,0.175l-2.488,0.059
				c-1.024,0.029-2.05,0.088-3.571,0.088c-0.059,0-0.147,0-0.206,0l-2.665-0.059l-2.438-0.129c-0.075-0.002-0.152-0.005-0.228-0.006
				c0.001-0.004,0.001-0.008,0.002-0.012h-0.087l0.293-1.289l0.527-2.575c0.76-3.484,1.346-7.143,1.903-11.067
				c0.172-1.431,0.268-2.872,0.401-4.306c0.042,0.028,0.083,0.062,0.126,0.091c0.006,0.005,0.013,0.009,0.02,0.014
				c0.002-0.025,0.006-0.048,0.009-0.073c1.64,1.112,3.543,2.167,5.914,3.308c3.513,1.669,7.377,2.927,11.476,3.66
				c3.074,0.586,6.471,0.849,10.335,0.849l1.376-0.028c0.965,0,1.961-0.088,2.927-0.147l1.757-0.146
				c3.426-0.206,7.231-0.937,11.592-2.195c3.543-1.054,7.29-2.665,11.418-4.919c1.64-0.908,3.22-1.874,4.743-2.928
				c0-0.028,0.029-0.028,0.029-0.028c0.028,0,0.028,0,0.028,0c0.028,0.028,0.059,0.028,0.059,0.059
				c0.175,1.024,0.38,2.02,0.614,3.015c0.322,1.58,0.615,3.103,0.878,4.654c0.265,2.343,0.468,4.656,0.644,6.997l0.028,1.757
				c0.015,0.315,0.026,0.626,0.042,0.938C282.588,452.133,282.584,452.101,282.565,452.089z M282.511,467.075
				c-0.265,1.64-0.644,3.162-1.201,4.685c-0.995,2.049-2.225,3.863-3.308,5.386c-1.258,1.582-2.664,3.046-4.275,4.45
				c-1.111,0.761-2.225,1.405-3.424,1.991c-1.64,0.556-3.308,0.996-5.035,1.288c-1.844,0.206-3.631,0.381-5.446,0.499
				c-1.054,0.059-2.108,0.087-3.162,0.087l-2.371-0.028h-0.791c-1.201-0.028-2.43-0.146-3.66-0.293l-1.844-0.146
				c-1.697-0.119-3.396-0.352-4.977-0.586l-3.805-0.527c-3.894-0.527-7.759-1.024-11.623-1.64c-2.781-0.439-5.505-0.965-8.314-1.523
				c-2.899-0.614-5.562-1.376-7.905-2.283c-0.029,0,0.028-1.317,0.028-1.348c0.674-4.42,1.493-8.87,2.488-13.261l0.776-3.28
				c0.005,0,0.009,0,0.014,0v-0.059c1.933,0.059,3.865,0.088,5.797,0.088l2.108-0.029c3.396-0.118,6.763-0.205,10.159-0.293
				c0.644-0.028,1.289-0.028,1.961-0.028h0.965h0.996c1.112,0,2.195,0.059,3.308,0.118l1.083,0.028
				c0.967,0.059,1.933,0.147,2.869,0.234l1.435,0.118l1.024,0.088c0.907,0.059,1.786,0.118,3.046,0.118c0.028,0,0.058,0,0.087,0
				c1.523,0,3.015-0.029,4.538-0.118c1.435-0.059,2.839-0.206,4.244-0.352c2.722-0.265,5.387-0.761,8.052-1.258l1.258-0.234
				c0.791-0.147,1.582-0.293,2.372-0.468c1.493-0.265,3.015-0.644,4.509-1.054l3.28-0.907l0.731-0.206
				c1.171-0.352,2.372-0.644,3.571-0.907l0.674-0.234l-0.029-0.059h0.029c0.028,0,0.028,0,0.028,0
				c0.015,0.015,0.019,0.022,0.028,0.028c0.012,0.008,0.029,0.015,0.029,0.029C282.979,459.786,282.891,463.563,282.511,467.075z
				 M287.429,416.135c-2.899,3.543-6.295,6.88-10.041,9.896c-3.805,2.84-7.728,5.153-11.975,7.056
				c-3.951,1.61-8.139,2.722-12.443,3.396c-1.229,0.118-2.459,0.234-3.717,0.265c-0.333,0.022-0.673,0.004-1.007,0.022
				c0.008-0.007,0.018-0.015,0.025-0.022c-0.042,0-0.087,0-0.131,0l2.107-1.874l1.112-0.965c1.727-1.493,3.455-3.015,5.094-4.626
				c1.61-1.551,3.22-3.396,5.035-5.767c1.493-1.874,2.781-3.865,4.07-5.886l0.614-1.024l0.965-1.639l0.937-1.552l0.79-1.463
				c0.674-1.259,1.348-2.488,2.02-3.749c1.611-3.103,3.192-6.118,4.48-9.31c0.586-1.493,1.171-2.986,1.669-4.537l0.439-1.348
				c0.016-0.004,0.032-0.007,0.048-0.012c0.001-0.002,0.001-0.005,0.002-0.008c2.703-0.641,5.381-1.308,8.027-2.034
				c3.573-0.967,7.027-2.05,10.54-3.162c0.001,0,0.002,0,0.004,0c0,0.002,0,0.005,0,0.006c0.028-0.001,0.028-0.001,0.059-0.001
				c0.028,0.029,0.028,0.029,0.028,0.059l-0.059,1.348c-0.087,2.372-0.321,4.743-0.614,7.084c-0.381,2.08-0.908,4.07-1.435,6.09
				c-0.41,1.582-1.054,3.191-1.67,4.743l-0.526,1.289C290.475,411.451,289.068,413.88,287.429,416.135z M289.682,428.575
				c-0.022-0.034-0.066-0.048-0.087-0.081c0.019-0.002,0.038-0.005,0.058-0.006c0,0-0.029-0.029-0.029-0.059
				c4.157-0.44,8.315-0.967,12.472-1.698h0.028h0.029c0.028,0,0.059,0.029,0.059,0.059l1.261,4.482l0.907,3.513
				c0.16,0.577,0.329,1.162,0.493,1.745c-0.036-0.022-0.044-0.076-0.08-0.096l0.027,0.107c-0.234-0.146-0.468-0.205-0.937-0.205
				c-0.118,0-0.263,0-0.41,0c-2.05,0.497-4.041,1.171-6.031,1.844l-1.17,0.381l-2.98,0.958c-0.44,0.151-0.881,0.3-1.321,0.449
				c-0.001-0.012-0.002-0.022-0.004-0.032l-0.059,0.028l-0.059-1.083c-0.029-0.175-0.059-0.381-0.087-0.586v0.029
				c0.028,0.234,0.058,0.467,0.087,0.702c-0.029-0.205-0.059-0.41-0.087-0.644v0.644c-0.41-3.044-0.937-6.089-1.582-9.076
				C290.062,429.483,289.887,429.074,289.682,428.575z M311.194,459.903h0.009c0.029,0,0.029,0,0.029,0
				c0.028,0.029,0.059,0.029,0.059,0.059l0.014,0.135c0.075,0.385,0.105,0.768,0.132,1.152c0,0.046,0,0.091,0,0.134l0.059,0.568
				c-0.118,0.439-0.263,0.878-0.41,1.317c-0.556,1.084-1.142,2.108-1.814,3.133c-0.557,0.586-1.112,1.112-1.727,1.64
				c-1.378,0.967-2.812,1.816-4.333,2.548c-0.201,0.069-0.402,0.135-0.604,0.201c-0.118,0.058-0.24,0.119-0.363,0.179
				c0.094-0.053,0.193-0.106,0.296-0.158c-1.985,0.648-4.036,1.132-6.297,1.475c-1.258,0.118-2.575,0.206-3.982,0.322l-0.968-0.025
				c-0.032,0.002-0.063,0.011-0.095,0.013c0.002-0.005,0.006-0.009,0.007-0.015l-0.085-0.002c0.234-0.673,0.41-1.317,0.584-2.02
				c0.17-0.734,0.285-1.498,0.423-2.313l0.001-0.001c0.005-0.028,0.009-0.058,0.015-0.086l5.299-2.372l0.493-0.135h0.001
				l0.677-0.187c1.376-0.234,2.722-0.731,3.982-1.229c1.816-0.703,3.543-1.552,5.739-2.781c0.937-0.527,1.873-1.054,2.84-1.552
				H311.194z M310.416,456.181c-0.004,0.001-0.005,0.002-0.007,0.004c0.028,0.028,0.028,0.059,0.028,0.087l-1.258,0.644
				l-1.081,0.528l-0.175,0.028c-0.054,0.027-0.106,0.061-0.16,0.088c-0.031-0.012-0.042-0.049-0.074-0.059c-0.028,0-0.028,0-0.059,0
				l-0.38,0.028c-0.293,0-0.615,0.059-0.967,0.234c-3.044,1.464-6.118,2.869-9.456,4.363l-2.167,0.263
				c-0.439,0.029-0.878,0.147-1.258,0.527c-0.175,0.175-0.321,0.381-0.497,0.615c-0.026,0.089-0.031,0.192-0.052,0.285
				c-0.074,0.032-0.147,0.067-0.221,0.1c0.002-0.031,0.006-0.061,0.008-0.092c0,0.028-0.028,0.059-0.059,0.087
				c0.059-0.82,0.118-1.61,0.147-2.43c0.146-2.781,0.118-5.592,0-8.373l-0.088-2.576c-0.087-1.727-0.146-3.424-0.263-5.152
				l-0.029-1.377h0.029c-0.001-0.003-0.001-0.006-0.001-0.009l4.89-1.689l1.787-0.674c1.756-0.643,3.542-1.288,5.358-1.786
				c0.468-0.146,0.849-0.439,1.083-0.849c0.029-0.027,0.029-0.055,0.058-0.055h0.029c0.014,0.015,0.018,0.022,0.028,0.028
				c0.012,0.008,0.029,0.015,0.029,0.029l1.697,5.884C308.438,448.603,309.568,452.321,310.416,456.181z M317.263,415.667h-0.001
				l-2.4,0.703l-2.4,0.644c-5.387,1.551-10.892,2.752-16.366,3.571l-0.527-0.028c-0.054,0.007-0.109,0.012-0.163,0.019
				c0.005-0.007,0.012-0.013,0.016-0.019h-0.087c0.877-1.201,1.697-2.43,2.459-3.659c1.317-2.166,2.284-4.538,3.25-6.822l0.41-0.937
				c1.317-3.161,2.254-5.971,2.899-8.607c0.614-2.693,1.054-5.387,1.463-8.109l0.118-0.761c0.41-2.605,0.615-5.212,0.908-7.874
				c0.001-0.019,0.002-0.036,0.004-0.055l0.055,0.055l-0.004-0.007v0.001l-0.025-0.053c0.029,0.001,0.643,0.643,0.673,0.673
				c0.41,0.439,0.79,0.907,1.17,1.405l0.468,0.614c0.996,1.405,1.961,2.811,2.812,4.275c0.79,1.317,1.404,2.753,2.107,4.304
				c0.644,1.551,1.23,3.074,1.757,4.654c0.468,1.464,0.761,3.015,0.996,4.714c0.263,2.986,0.293,6.002,0.293,8.988l0.028,1.495
				l0.087,0.76V415.667z M341.239,406.563l-0.76,0.32c-1.552,0.704-3.104,1.377-4.656,2.051c-2.488,0.996-5.035,1.99-7.524,2.958
				c-1.698,0.673-3.425,1.258-5.153,1.844l-1.933,0.586c-0.123,0.049-0.255,0.093-0.386,0.136c0-0.006,0-0.011,0-0.016l-0.082,0.025
				v-1.58c-0.028-1.318-0.028-2.635-0.087-3.952c-0.029-1.258-0.088-2.519-0.175-3.777c-0.088-1.786-0.44-3.571-0.849-5.269
				c-0.381-1.815-1.112-3.542-2.05-5.826c-0.731-1.757-1.551-3.484-2.459-5.182c-0.878-1.58-1.933-3.19-3.308-4.888
				c-0.395-0.526-0.789-1.004-1.162-1.585c-0.029-0.036-0.061-0.074-0.092-0.112c0.007-0.002,0.014-0.006,0.022-0.008
				c-0.029-0.028-0.029-0.059-0.059-0.087l3.337-1.348l6.352-2.547c2.412-0.958,4.794-1.919,7.177-2.935
				c0.003,0.002,0.006,0.003,0.008,0.006c0.018-0.008,0.033-0.014,0.049-0.022h0.029c0.028,0,0.028,0,0.059,0.029l0.011,0.007
				l0.016,0.016c0.001,0,0.004-0.001,0.005-0.001l0.613,0.416c0.556,0.44,1.054,0.85,1.551,1.289
				c0.614,0.556,1.142,1.201,2.02,2.226c1.61,2.225,2.986,4.537,4.188,7.143c0.995,2.46,1.727,4.947,2.43,7.494
				c0.497,1.698,0.877,3.397,1.229,5.094l0.41,1.933l1.215,5.498c-0.005,0.002-0.009,0.005-0.015,0.007l0.029,0.059L341.239,406.563
				z M360.299,396.111c-0.703,0.497-1.463,0.936-2.225,1.376l-1.23,0.731l-2.283,1.405l-2.313,1.404
				c-0.761,0.468-1.582,0.878-2.372,1.259l-0.85,0.41l-2.547,1.346l-1.435,0.644c-0.04,0.022-0.076,0.04-0.116,0.061
				c0,0-0.001-0.001-0.001-0.002l-0.059,0.029l-0.82-4.538c-0.263-1.551-0.584-3.103-0.907-4.654
				c-0.497-2.665-1.317-5.3-2.137-7.906c-0.586-1.844-1.405-3.63-2.283-5.327c-0.967-1.933-2.195-3.807-3.865-5.973
				c-0.41-0.499-0.82-1.025-1.289-1.495c-0.38-0.467-0.849-0.849-1.288-1.346c-0.055-0.047-0.109-0.087-0.165-0.133
				c0.016-0.007,0.027-0.012,0.043-0.02c-0.028-0.028-0.028-0.028-0.058-0.059c3.279-1.522,6.295-3.133,9.222-4.919
				c2.752-1.697,5.359-3.748,7.846-5.708l0.791-0.614l1.807-1.43h0.011c0.028,0,0.028,0,0.059,0h0.028
				c0.468,0.44,0.907,0.878,1.348,1.318c1.054,1.054,1.961,2.225,2.868,3.396c1.464,1.991,2.84,3.952,4.098,6.031
				c1.259,2.107,2.342,4.275,3.25,6.236c1.054,2.634,1.816,5.065,2.284,7.435c0.374,1.934,0.751,3.876,1.182,6.257
				c-0.004,0.004-0.007,0.005-0.012,0.008c0.029,0.029,0.029,0.059,0.029,0.087L360.299,396.111z M388.521,371.546l-3.717,3.923
				c-1.933,2.05-3.952,3.983-6.002,5.914c-2.43,2.284-4.947,4.45-7.581,6.499c-0.362,0.29-0.719,0.574-1.076,0.863
				c-0.002-0.011-0.005-0.021-0.007-0.031c-0.02,0.015-0.039,0.031-0.06,0.046c-0.41-2.167-0.818-4.304-1.317-6.442
				c-0.497-2.167-1.23-4.245-2.108-6.236c-0.995-2.254-2.107-4.391-3.337-6.529c-1.024-1.757-2.195-3.397-3.396-5.007
				c-1.317-1.786-2.693-3.483-4.188-5.122c-0.306-0.362-0.64-0.679-0.974-1.085c0.002-0.001,0.003-0.002,0.006-0.005
				c-0.027-0.026-0.031-0.029-0.054-0.054l0.005-0.005c-0.001-0.001-0.004-0.002-0.005-0.004l4.357-3.655l0.82-0.674
				c2.635-2.195,5.358-4.479,7.67-6.967l1.464-1.493l0.293-0.206h0.029l-0.054-0.054c0.026-0.025,0.027-0.027,0.056-0.027
				c0,0,0.029,0,0.029,0.028c2.048,1.171,4.041,2.43,6.089,3.895c2.812,2.254,5.475,4.948,7.875,7.934
				c1.464,2.02,2.752,4.129,3.982,6.295c0.965,1.698,1.757,3.513,2.575,5.299l0.327,0.873c-0.001,0.001-0.003,0.005-0.005,0.006
				l0.029,0.059C389.693,370.258,389.107,370.902,388.521,371.546z M405.509,338.212c-0.907,3.969-2.187,9.102-4.135,14.098
				c-1.786,4.159-4.188,8.257-7.729,13.118c0,0.029-0.206,0.206-0.352,0.352c-0.015,0.015-0.022,0.022-0.029,0.029
				c-0.028,0.028-0.087,0.058-0.118,0.087c-0.009,0.012-0.019,0.023-0.027,0.034c0-0.002-0.001-0.004-0.001-0.005
				c-0.029,0.028-0.059,0.058-0.059,0.058c-0.82-1.99-1.698-3.951-2.694-5.855c-1.435-2.781-3.396-5.562-5.971-8.52
				c-2.05-2.401-4.538-4.626-7.613-6.85c-1.142-0.85-2.341-1.582-3.571-2.313l-0.82-0.557c-0.007-0.004-0.015-0.008-0.021-0.012
				c0.006-0.008,0.012-0.016,0.019-0.025l-0.059-0.028l1.435-1.757l2.167-2.693c2.313-2.812,4.362-5.884,6.411-8.93l1.288-1.873
				c1.289-1.932,2.517-3.862,3.775-5.794c0.001,0.001,0.004,0.002,0.006,0.002c0-0.028,0.028-0.028,0.058-0.028h0.029
				c1.142,0.38,2.254,0.761,3.133,1.054c0.703,0.322,1.376,0.644,2.048,0.996l0.703,0.322l0.733,0.409
				c0.614,0.294,1.229,0.674,1.814,1.084c2.167,1.786,3.952,3.923,5.562,5.971c0.615,0.85,1.23,1.698,1.757,2.607
				c0.643,1.083,1.171,2.225,1.493,2.927l0.352,0.82l0.386,1.029c-0.002,0.008-0.004,0.016-0.006,0.025l0.059,0.116
				c0,0.029-0.028,0.059-0.028,0.088C405.504,338.203,405.507,338.207,405.509,338.212z M408.665,313.61
				c0.086,3.804-0.294,7.552-0.791,11.71c-0.172,1.167-0.352,2.325-0.606,3.406c-0.169,1.036-0.399,2.058-0.586,3.09
				c-0.088-0.161-0.152-0.334-0.245-0.494c-0.008-0.014-0.018-0.027-0.025-0.041c-0.012,0.023-0.021,0.048-0.032,0.071
				c-1.405-2.313-3.191-4.391-4.743-6.148c-0.996-1.143-2.108-2.195-3.25-3.162c-1.61-1.346-3.571-2.283-5.124-2.986
				c-0.568-0.243-1.137-0.469-1.678-0.751c-0.669-0.258-1.359-0.462-2.038-0.698c0.125-0.193,0.249-0.381,0.376-0.576
				c-0.029-0.029-0.029-0.029-0.059-0.059c2.283-3.513,4.537-7.027,6.675-10.628c1.874-3.161,3.69-6.382,5.3-9.69
				c0.907-1.844,1.727-3.748,2.459-5.65c0.022-0.022,0.045-0.034,0.067-0.045c0.008-0.004,0.016-0.008,0.025-0.008
				c0.029,0,0.059,0.029,0.059,0.059c0.468,1.23,0.907,2.459,1.258,3.689c0.731,2.401,1.317,5.035,1.844,8.109l0.175,1.348
				C408.138,307.287,408.548,310.449,408.665,313.61z M437.345,242.159c-0.046,0.402-0.095,0.803-0.146,1.204l0.093-0.406
				c-0.054,0.332-0.111,0.662-0.169,0.99c-0.012,0.089-0.023,0.179-0.035,0.269c0.008-0.071,0.016-0.14,0.025-0.211
				c-0.158,0.867-0.339,1.725-0.611,2.581c-0.527,0.965-1.111,1.873-1.757,2.811c-0.673,0.82-1.376,1.582-2.195,2.313
				c-0.643,0.41-1.317,0.761-2.019,1.112c-1.397,0.466-2.861,0.907-4.836,1.185c-0.027,0.005-0.055,0.011-0.083,0.015
				c-0.009,0.001-0.019,0-0.028,0.001c-0.227,0.031-0.461,0.06-0.703,0.087c-1.317,0-2.634-0.118-3.951-0.265
				c-3.221-0.468-6.442-0.937-9.72-1.289h-1.003h-0.111c-0.008-0.012-0.019-0.021-0.026-0.032c-0.003,0-0.006,0.004-0.009,0.004
				c-0.938-1.206-2.411-1.933-3.917-1.933c-1.376,0-2.868,0.674-3.864,1.757c-0.849,0.937-1.258,2.079-1.142,3.22
				c0.175,2.576,0.059,5.475-0.44,9.105c-0.584,3.718-1.288,6.85-2.195,9.924c-1.024,3.339-2.195,6.645-3.455,9.896
				c-0.703,1.582-1.405,3.161-2.137,4.743c-0.673,1.523-1.523,2.986-2.372,4.45l-0.907,1.582c-2.284,4.07-4.743,8.021-7.231,11.944
				c-5.269,8.256-10.071,15.662-15.253,22.953l-0.615,0.791c-1.142,1.463-2.283,2.927-3.543,4.303l-3.748,3.983
				c-0.703,0.731-1.435,1.376-2.195,2.049l-0.79,0.731c-3.805,3.455-7.817,6.705-11.829,9.896l-0.965,0.791
				c-2.986,2.254-6.47,4.86-10.247,7.026c-3.045,1.757-6.323,3.191-9.485,4.567l-0.82,0.352c-5.415,2.109-10.832,4.216-16.219,6.442
				c-6.442,2.634-11.505,4.509-16.366,6.06c-5.533,1.757-11.067,3.133-17.654,4.684c-7.553,1.786-13.819,3.015-19.762,3.923
				c-3.308,0.41-6.938,0.586-11.067,0.586c-2.986,0-5.943-0.088-8.9-0.206c-4.801-0.263-9.778-0.702-15.194-1.346
				c-4.041-0.615-8.198-1.23-12.267-2.226c-4.011-0.965-8.168-2.195-13.555-4.041c-3.396-1.171-6.763-2.488-10.1-3.805l-3.22-1.289
				c-4.275-1.697-8.52-3.396-12.735-5.122c-6.324-2.812-12.794-5.914-19.762-9.457c-6.704-3.396-12.911-7.815-18.445-11.975
				l-1.23-0.936c-3.367-2.606-6.88-5.3-10.043-8.227l-0.643-0.586c-1.816-1.669-3.66-3.337-5.269-5.153
				c-1.669-1.933-3.28-3.836-4.86-5.797c-1.405-1.932-2.753-3.835-3.982-5.826c-1.23-1.933-2.226-3.952-3.221-5.973l-0.41-0.82
				l-1.024-2.4l-1.405-3.367c-0.849-1.99-1.581-4.041-2.313-6.09l-1.054-2.927c-0.466-1.266-1.355-2.216-2.395-2.818
				c-0.051-0.049-0.082-0.114-0.134-0.161c-0.082-0.045-0.167-0.086-0.252-0.123c-0.069-0.054-0.138-0.107-0.208-0.161
				c-0.007-0.002-0.016-0.002-0.023-0.005c-0.192-0.146-0.379-0.294-0.589-0.42c-0.937-0.557-2.02-0.849-3.103-0.849
				c-0.586,0-1.143,0.087-1.67,0.234c-1.376,0.38-3.103,1.404-3.748,2.839c-1.23,2.957-2.957,5.944-5.122,8.9
				c-1.786,2.108-3.836,4.158-6.352,6.237c-0.967,0.673-1.933,1.258-3.25,1.873l-0.38,0.042c-0.02,0.006-0.039,0.012-0.06,0.016
				c-0.027,0-0.058,0-0.087,0l-0.527,0.059c-2.226-0.527-4.567-1.258-6.938-2.225c-2.868-1.317-5.358-2.722-7.612-4.275
				c-0.644-0.557-1.23-1.143-1.816-1.844c-0.937-1.318-1.698-2.722-2.401-4.188c-0.614-1.669-1.083-3.337-1.463-5.122
				c-0.118-1.464-0.118-2.928,0.028-4.392c0.381-1.961,0.908-3.805,1.582-5.679c0.82-1.786,1.816-3.543,3.044-5.328
				c1.112-1.317,2.313-2.547,3.66-3.689c0.965-0.644,1.933-1.171,2.958-1.67c1.816-0.731,3.718-1.258,5.797-1.669
				c0.907-0.059,1.815-0.087,2.722-0.087c1.201,0,2.4,0.059,3.601,0.175c3.074,0.527,6.676,1.229,10.277,2.606
				c1.083,0.468,2.166,0.996,3.22,1.522c0.644,0.293,1.317,0.468,1.991,0.468c1.376,0,2.547-0.673,3.22-1.844
				c0.634-1.122,0.627-2.666-0.013-3.914c0.005-0.004,0.008-0.006,0.013-0.009c0-0.028-0.029-0.028-0.029-0.059
				c0.003-0.002,0.006-0.005,0.009-0.007c0.992-0.788,1.985-1.577,2.977-2.393c1.727-1.464,3.455-3.397,5.094-5.709
				c2.665-3.748,4.596-8.256,6.06-14.229c0.731-2.958,1.083-6.03,1.405-9.017l0.175-1.551c0.146-1.23,0.293-2.459,0.497-3.718
				c0.028-0.38,0.059-0.731,0.087-1.111c0.029,0,0.059,0,0.118-0.029c0,0,0-0.028,0-0.059c0.293-0.059,0.586-0.118,0.85-0.175
				c0.878-0.234,1.756-0.761,2.518-1.201c1.757-1.024,3.103-2.635,4.275-4.245c2.079-2.781,3.805-5.826,5.359-8.49
				c2.166-3.895,3.308-8.109,3.424-12.53c0.029-1.258-0.059-2.519-0.175-3.748c-0.087-1.112-0.263-2.167-0.467-3.221
				c-0.265-0.703-0.586-1.405-0.908-2.079c-0.41-0.614-0.907-1.142-1.522-1.58c-0.234-0.206-0.468-0.381-0.703-0.586
				c-0.047-0.029-0.102-0.034-0.149-0.063c0.02-0.009,0.038-0.021,0.059-0.029c-0.02-0.019-0.036-0.035-0.056-0.054
				c2.899-1.405,5.855-2.665,8.842-3.952l4.099-1.756c5.971-2.635,11.973-5.24,17.975-7.817
				c14.668-5.973,29.862-11.126,44.588-16.132l1.288-0.439c6.265-2.167,13-4.07,21.782-6.149c4.303-1.024,8.549-2.05,12.823-3.133
				l4.129-1.083c2.341-0.615,4.654-1.23,7.7-1.933c2.78-0.644,5.503-1.288,8.343-1.815c2.167-0.41,4.304-0.733,6.47-1.054
				l1.377-0.175c5.268-0.527,10.48-1.054,15.721-1.405c5.415-0.352,10.803-0.439,16.219-0.468h5.182
				c6.967,0,16.132,0.118,25.208,1.23l4.216,0.674c6.06,0.907,12.325,1.844,18.327,3.658c0.878,0.265,1.757,0.527,2.665,0.907
				c0,0.006,0,0.011-0.001,0.015c0.001,0,0.002,0.001,0.002,0.001c-0.201,2.66,0.644,5.609,1.288,7.597
				c1.493,4.509,3.864,9.104,6.822,13.262c1.376,1.901,2.839,3.424,4.45,4.596c0.614,0.497,1.288,0.965,1.99,1.376
				c0.937,0.527,2.079,0.967,3.749,1.464c0.907,1.404,1.61,2.899,2.253,4.45l-0.352-0.878c1.405,3.513,2.841,6.997,4.451,10.422
				c1.435,2.958,3.366,5.68,5.212,8.344l0.439,0.644c1.258,1.756,2.665,3.337,4.244,4.83c1.523,1.464,3.397,2.665,5.359,3.923
				l1.289,0.82c1.111,0.703,2.254,1.405,3.337,2.166c1.346,0.878,2.722,1.729,4.216,2.373c1.112,0.497,2.195,0.936,3.367,1.258
				c1.288,0.321,2.693,0.41,4.157,0.468c1.201,0,2.372-0.44,3.455-1.289c0.011-0.011,0.013-0.026,0.023-0.036h0.001
				c0.022-0.018,0.042-0.033,0.065-0.052c0.907,0.908,2.195,1.405,3.571,1.405c1.346,0,2.547-0.497,3.367-1.435
				c1.435-1.64,2.839-3.192,4.509-4.597c1.41-1.01,2.846-1.876,4.37-2.662c0.153-0.079,0.307-0.159,0.461-0.235
				c1.142-0.41,2.254-0.733,3.484-0.967c1.024-0.087,2.079-0.146,3.133-0.146l1.493,0.028c0.82,0.206,1.58,0.41,2.372,0.703
				c1.23,0.586,2.43,1.23,3.895,2.313l0.614,0.644c0.673,1.054,1.23,2.195,1.756,3.337c0.615,1.61,1.171,3.221,1.582,4.89
				c0.41,1.464,0.644,2.986,0.849,4.479c0.147,1.376,0.294,2.781,0.381,4.188C437.904,236.973,437.719,239.627,437.345,242.159z"/>
			<path d="M311.436,461.25c-0.047-0.329-0.075-0.66-0.116-0.989l0.085,0.811C311.415,461.132,311.426,461.191,311.436,461.25z"/>
			<path d="M464.607,139.178c-0.016-0.17-0.036-0.339-0.066-0.508c-0.058-0.321-0.118-0.643-0.174-0.965
				c-0.156-0.399-0.327-0.798-0.504-1.184c-0.281-1.195-0.613-2.383-0.931-3.558c-0.41-1.61-0.82-3.22-1.201-4.83
				c-1.289-5.153-2.459-10.306-4.098-15.341c-0.673-2.049-1.493-4.01-2.372-6.002c-0.439-0.996-0.907-1.933-1.435-2.899
				c-0.468-0.79-1.142-1.551-1.698-2.282c-0.205-0.147-0.38-0.294-0.556-0.44c-0.44-0.352-0.908-0.614-1.435-0.79
				c-0.226-0.061-0.441-0.088-0.65-0.088c-0.499,0-0.964,0.154-1.458,0.381c-0.468,0.205-0.849,0.526-1.258,0.877
				c-0.527,0.44-1.054,0.908-1.551,1.377c-2.812,2.547-5.505,5.211-8.199,7.817c-2.722,2.665-5.474,5.327-8.256,7.933
				c-1.054,1.025-2.137,2.02-3.22,2.987c-2.167,1.99-4.422,3.923-6.529,5.971c-1.112,1.084-2.284,2.226-2.781,3.69
				c-0.088,0.263-0.175,0.526-0.265,0.79c-0.118,0.556-0.146,1.142-0.175,1.698c-0.028,0.965,0.557,1.844,0.967,2.664
				c0.661,1.247,1.315,2.517,1.956,3.787c-0.275,0.544-0.466,1.142-0.466,1.702c0,0.965,0.41,1.903,1.083,2.575
				c0.476,0.476,1.105,0.755,1.774,0.914c0.703,1.571,1.452,3.12,2.13,4.697c1.129,2.995,2.259,5.99,3.361,8.987
				c0.406,1.083,0.795,2.165,1.18,3.249c-0.457-0.044-0.915-0.059-1.326-0.087c-0.614,0.059-1.258,0.118-1.873,0.205
				c-0.85,0.206-1.67,0.499-2.46,0.878c-1.844,0.733-3.543,1.669-5.094,2.899c-0.907,0.674-1.698,1.405-2.488,2.195
				c-0.731,0.731-1.317,1.64-1.903,2.46c-0.614,0.849-0.965,1.99-1.317,2.957c-0.059,0.38-0.118,0.76-0.147,1.142
				c-0.146,0.468-0.146,0.937,0,1.435c0.059,0.322,0.118,0.673,0.175,0.996c0.234,0.556,0.468,1.111,0.703,1.639
				c0.644,0.996,1.289,1.874,2.284,2.547c0.804,0.56,1.629,1.015,2.486,1.381c0.98,1.077,2.165,1.965,3.574,2.426
				c0.761,0.263,1.64,0.556,2.459,0.526c0.937-0.028,1.729-0.118,2.665-0.321c0.878-0.147,1.786-0.731,2.519-1.171
				c0.849-0.497,1.58-1.289,2.225-1.99c0.223-0.237,0.429-0.49,0.623-0.755c0.216-0.151,0.428-0.309,0.636-0.475
				c1.873-1.523,3.308-3.337,4.626-5.328c0.965-1.523,1.873-3.192,2.283-4.919c0.175-0.731,0.234-1.639,0.029-2.372
				c-0.088-0.352-0.175-0.703-0.293-1.054c-0.175-0.586-0.468-1.111-0.85-1.61c-0.439-0.731-1.201-1.142-1.873-1.669
				c-0.053-0.025-0.108-0.048-0.162-0.073c-0.406-1.321-0.85-2.625-1.302-3.939c-1.083-3.249-2.225-6.47-3.396-9.66
				c-1.071-2.839-2.272-5.612-3.511-8.367c2.955-2.474,5.903-4.952,8.66-7.665c3.046-2.958,5.768-6.236,8.461-9.516
				c1.405-1.697,2.781-3.367,4.157-5.094c1.361-1.693,2.698-3.403,3.961-5.153c1.384,4.44,2.509,8.963,3.421,13.543
				c0.353,1.777,0.681,3.56,1.021,5.341c-0.31,0.086-0.61,0.199-0.904,0.339c-1.489,0.559-2.754,1.448-3.944,2.466
				c-0.219,0.098-0.435,0.194-0.653,0.286c-1.99,0.908-3.748,2.43-5.299,3.924c-1.816,1.786-3.425,4.01-4.333,6.382
				c-0.118,0.293-0.234,0.615-0.352,0.907c-0.118,0.586-0.206,1.171-0.263,1.729c0.058,0.878,0.174,1.639,0.409,2.459
				c0.499,1.698,1.816,2.781,3.25,3.66c0.733,0.439,1.669,0.673,2.488,0.907c0.849,0.206,1.816,0.206,2.665,0.206
				c0.965-0.029,1.933-0.293,2.811-0.557c1.348-0.38,2.576-1.112,3.718-1.844c2.407-1.559,4.13-3.815,5.476-6.284
				c0.978-1.101,1.852-2.299,2.546-3.611c0.409-0.79,0.731-1.756,0.76-2.693c0.059-1.025-0.028-1.786-0.468-2.722
				C464.641,139.251,464.624,139.214,464.607,139.178z"/>
			<path d="M477.897,13.617c-0.001-0.619-0.147-1.175-0.471-1.702c-0.586-1.376-1.23-2.722-1.873-4.098
				c-0.381-0.79-0.791-1.582-1.201-2.372c-0.673-1.258-1.58-2.313-2.547-3.339c-0.439-0.35-0.849-0.673-1.317-0.995
				c-0.468-0.265-0.966-0.499-1.464-0.674c-0.497-0.205-0.995-0.321-1.522-0.35C467.253,0.028,467.004,0,466.759,0
				c-0.246,0-0.487,0.028-0.721,0.088c-2.488,0.292-4.303,2.049-6.149,3.571c-2.049,1.669-4.098,3.396-6.118,5.094
				c-1.873,1.551-3.689,3.133-5.474,4.801c-1.002,0.948-2.001,1.894-2.934,2.935c-0.245,0.202-0.489,0.405-0.726,0.607
				c-0.761,0.674-1.201,1.464-1.698,2.372c-0.334,0.643-0.446,1.401-0.326,2.112c-0.023,0.153-0.041,0.307-0.054,0.466
				c-0.087,0.497-0.087,1.024-0.028,1.523c0.028,1.024,0.352,2.02,0.614,3.014c0.293,1.054,0.614,2.108,0.907,3.162
				c0.586,2.079,1.201,4.157,1.669,6.236c0.265,1.23,0.557,2.43,0.761,3.63c0.223,1.286,0.448,2.573,0.671,3.858
				c0.169,1.33,0.323,2.659,0.5,3.988c0.182,1.495,0.288,3.008,0.314,4.525c-0.162,0.007-0.325,0.02-0.489,0.042
				c-0.965,0.059-1.933,0.352-2.868,0.615c-0.878,0.234-1.727,0.731-2.519,1.142c-1.112,0.614-2.195,1.435-3.161,2.254
				c-0.82,0.703-1.64,1.435-2.43,2.167c-0.234,0.263-0.468,0.556-0.703,0.818c-0.41,0.41-0.673,0.908-0.849,1.464
				c-0.088,0.234-0.175,0.468-0.293,0.703c-0.088,0.556-0.147,1.112-0.206,1.698c0.029,0.234,0.059,0.497,0.118,0.76
				c0.206,0.615,0.468,1.201,0.703,1.816c0.175,0.175,0.322,0.38,0.468,0.586c0.41,0.644,0.907,1.171,1.523,1.582
				c0.31,0.26,0.626,0.477,0.954,0.67c0.395,0.659,0.835,1.29,1.359,1.846c0.644,0.703,1.258,1.435,2.02,1.991
				c0.234,0.205,0.497,0.38,0.761,0.556c0.497,0.234,1.024,0.439,1.58,0.556c0.908,0.265,1.933,0.118,2.869,0
				c0.205-0.028,0.41-0.059,0.643-0.087c0.557-0.175,1.112-0.381,1.67-0.615c0.321-0.234,0.614-0.467,0.937-0.702
				c0.497-0.322,0.936-0.761,1.317-1.259c0.644-0.673,1.17-1.551,1.669-2.341c0.468-0.79,0.79-1.727,1.112-2.575
				c0.527-1.289,0.877-2.723,0.965-4.099c0.025-0.332,0.041-0.657,0.052-0.981c0.3-1.147,0.362-2.384-0.227-3.41
				c-0.04-0.08-0.081-0.159-0.121-0.235c-0.125-0.376-0.273-0.744-0.435-1.11c-0.054-0.074-0.107-0.148-0.158-0.221
				c0.2-2.671,0.049-5.353-0.166-8.035c-0.234-3.103-0.761-6.206-1.258-9.31c-0.361-2.297-0.878-4.645-1.502-6.924
				c0.101-0.02,0.202-0.044,0.302-0.074c0.673-0.175,1.317-0.38,1.932-0.673c0.761-0.321,1.493-0.731,2.195-1.171
				c2.254-1.289,4.391-2.781,6.411-4.391c0.501-0.4,0.99-0.807,1.472-1.217c1.954-0.907,3.923-1.779,5.892-2.648
				c2.224-0.847,4.651-1.509,6.514-3.043c0.761-0.644,1.495-1.493,1.757-2.46C477.926,14.963,477.954,14.29,477.897,13.617z
				 M447.355,62.747c-0.008,0.006-0.016,0.013-0.023,0.019c0.003-0.005,0.007-0.009,0.011-0.015
				c0.008-0.006,0.016-0.012,0.025-0.018C447.362,62.739,447.359,62.742,447.355,62.747z"/>
			<path d="M85.978,166.464c-0.205-0.38-0.586-0.818-1.61-0.995c-0.41,0-0.703,0.059-0.937,0.205
				c-0.439,0.293-0.644,0.703-0.82,1.084c-0.703,1.844-1.376,3.717-2.048,5.592l-0.615,1.727c-0.263,0.761-0.556,1.551-0.878,2.606
				l-0.38,1.289c-0.79,2.721-1.61,5.474-2.342,8.549c-0.002,0.847,0.496,1.578,1.286,1.812l0.41,0.088v-0.059
				c0.79,0,1.523-0.527,1.727-1.258c0.791-3.367,1.816-6.646,2.84-9.925l0.614-1.873l0.352-0.937l0.44-1.112
				c0.673-1.873,1.346-3.748,2.048-5.592C86.183,167.313,86.153,166.873,85.978,166.464z"/>
			<path d="M88.553,187.075c0.937,0,1.64-0.731,1.727-1.844c0.029-0.703,0.088-1.405,0.206-2.575l0.234-1.377
				c0.263-1.581,0.527-3.133,0.82-4.684l0.995-5.006l1.171-6.207c0.265-1.083-0.352-1.903-1.61-2.166
				c-0.703,0-1.523,0.41-1.64,1.201l-2.283,11.739c-0.175,0.937-0.352,1.903-0.499,2.84l-0.234,1.317l-0.205,1.258
				c-0.205,1.259-0.293,2.519-0.41,3.952c0,0.352,0.147,0.703,0.41,0.965C87.557,186.87,88.084,187.075,88.553,187.075z"/>
			<path d="M97.6,177.502l0.439,0.087v-0.059c0.791,0,1.493-0.527,1.669-1.258c0.937-4.098,1.904-8.198,2.869-12.267
				c0.087-0.439,0.028-0.878-0.206-1.258c-0.293-0.44-0.79-0.761-1.463-0.908c-0.791,0-1.493,0.527-1.698,1.289
				c-0.965,4.07-1.933,8.168-2.868,12.618C96.311,176.564,96.808,177.268,97.6,177.502z"/>
			<path d="M106.207,180.458l0.41,0.088v-0.059c0.82,0,1.551-0.527,1.669-1.258c1.201-5.65,2.43-11.33,3.689-16.981l0.967-4.42
				c0.087-0.468,0.028-0.907-0.206-1.289c-0.263-0.41-0.79-0.731-1.435-0.849c-0.82,0-1.523,0.497-1.727,1.23
				c-1.551,7.143-3.103,14.285-4.626,21.781C104.919,179.522,105.418,180.225,106.207,180.458z"/>
			<path d="M120.581,167.987l0.44,0.088v-0.059c0.703,0,1.523-0.468,1.64-1.258c1.083-5.182,2.43-10.335,3.748-15.459l0.293-1.083
				c0.087-0.44,0.028-0.85-0.206-1.201c-0.263-0.468-0.79-0.79-1.464-0.937c-0.79,0-1.493,0.527-1.697,1.259l-0.556,2.195
				c-1.23,4.743-2.46,9.515-3.455,14.843C119.353,167.138,119.822,167.752,120.581,167.987z"/>
			<path d="M170.557,151.358c0.937,0,1.669-0.733,1.698-1.698c0.028-0.352,0.028-0.673,0.028-0.996
				c0.468-2.254,1.084-4.391,1.729-6.529l0.468-1.61l1.581-5.621l1.582-5.621c0.087-0.38,0.028-0.818-0.206-1.17
				c-0.293-0.468-0.849-0.82-1.522-0.937c-0.733,0-1.435,0.497-1.669,1.23l-1.582,5.62l-1.582,5.621l-0.468,1.698l-0.497,1.756
				l-0.293,1.143l-0.265,0.907l-0.38,1.435c-0.234,0.967-0.263,1.757-0.321,3.221c0,0.38,0.175,0.731,0.468,1.024
				C169.65,151.183,170.118,151.358,170.557,151.358z"/>
			<path d="M183.146,143.072l0.439,0.088v-0.06c0.731,0,1.376-0.467,1.698-1.258c1.727-4.86,3.308-9.778,4.86-14.725l1.404-4.363
				c0.118-0.41,0.059-0.849-0.146-1.229c-0.265-0.499-0.731-0.761-1.493-0.908c-0.761,0-1.435,0.499-1.727,1.259l-1.377,4.362
				l-0.673,2.079c-1.348,4.245-2.693,8.461-4.275,13.087c0,0.234,0.059,0.497,0.175,0.761
				C182.297,142.604,182.678,142.927,183.146,143.072z"/>
			<path d="M194.096,139.647c0.791,0,1.493-0.527,1.727-1.289c0.499-1.669,0.967-3.337,1.348-5.006
				c0.147-0.761,0.322-1.551,0.44-2.341c0.087-0.527,0.174-1.054,0.234-1.611c0.087-0.673,0.146-1.493,0-2.898
				c-0.029-0.761-0.118-1.289-0.293-1.729c-0.293-0.818-0.967-1.229-2.137-1.258c-0.44,0.147-0.85,0.499-1.084,0.908
				c-0.118,0.234-0.205,0.497-0.146,1.229c0.234,0.586,0.38,1.201,0.352,1.844c0,0.527,0,1.084-0.029,1.61
				c-0.234,1.64-0.614,3.28-1.054,4.89l-0.409,1.435l-0.586,2.05c-0.088,0.41-0.029,0.907,0.175,1.289
				C192.836,139.149,193.158,139.442,194.096,139.647z"/>
			<path d="M205.134,138.008c0.321,0.35,0.76,0.528,1.258,0.528c0.965,0,1.727-0.761,1.727-1.787
				c0.028-5.094,0.059-10.128,0.028-15.253c-0.028-0.937-0.79-1.698-1.727-1.698c-0.937,0-1.697,0.761-1.697,1.698
				c0.028,5.066,0,10.13-0.029,15.341C204.666,137.275,204.812,137.685,205.134,138.008z"/>
			<path d="M114.227,293.197c-0.761,0-1.493,0.556-1.757,1.346l-0.556,1.729c-0.644,1.932-1.289,3.894-1.874,5.855
				c-0.293,0.965-0.468,1.96-0.761,3.424c-0.234,1.348-0.263,2.722-0.263,4.098c0,0.967,0.82,1.786,1.786,1.786
				s1.786-0.818,1.786-1.786v-1.229c0-0.791,0.059-1.582,0.175-1.963c0.118-0.76,0.293-1.493,0.468-2.254
				c0.206-0.965,0.527-1.932,0.996-3.396l0.878-2.665l0.878-2.665c0.116-0.409,0.087-0.877-0.147-1.288
				C115.602,293.724,115.192,293.401,114.227,293.197z"/>
			<path d="M125.293,304.761l1.054-2.401c0.265-0.527,0.322-0.936,0.206-1.376c-0.175-0.497-0.468-0.878-0.85-1.083
				c-0.233-0.118-0.467-0.206-0.965-0.206c-0.118,0-0.263,0-0.41,0c-0.41,0.118-0.907,0.44-1.083,0.85
				c-1.523,3.396-3.015,6.791-4.275,10.306c-0.147,0.38-0.088,0.818,0.118,1.229c0.263,0.468,0.673,0.82,1.171,0.967l0.467,0.118
				v-0.059c0.761,0,1.464-0.527,1.757-1.318c0.586-1.727,1.258-3.396,1.757-4.626L125.293,304.761z"/>
			<path d="M129.275,306.605c-0.791,0-1.523,0.527-1.757,1.289l-2.02,7.173l-2.05,7.173c-0.116,0.439-0.059,0.907,0.175,1.317
				c0.234,0.439,0.615,0.731,1.084,0.878l0.415,0.128c0.018,0.001,0.035,0.002,0.054,0.002v-0.073c0.79,0,1.522-0.527,1.756-1.318
				l2.05-7.173l2.048-7.173C131.265,307.923,130.679,306.898,129.275,306.605z"/>
			<path d="M134.105,316.325c-0.439,0-0.937,0.175-1.258,0.497c-0.352,0.381-0.439,0.761-0.527,1.289l-0.82,6.177l-0.79,6.118
				c-0.059,0.44,0.205,0.996,0.527,1.289c0.321,0.322,0.82,0.499,1.258,0.499c0.468,0,0.937-0.175,1.289-0.499
				c0.38-0.41,0.468-0.82,0.497-1.289l0.82-6.148l0.79-6.149c0.088-0.439-0.175-0.965-0.497-1.289
				C135.042,316.501,134.574,316.325,134.105,316.325z"/>
			<path d="M71.804,285.35c-0.584-0.263-1.229-0.467-1.99-0.614l0.028-0.087l-0.849-0.059c-0.703-0.118-1.405-0.234-2.107-0.322
				c-0.265-0.028-0.527-0.059-0.791-0.059c-0.41,0-0.849,0.059-1.288,0.147c-0.996,0.175-1.845,0.439-2.694,0.818
				c-0.79,0.322-1.435,0.674-2.049,1.112c-0.791,0.468-1.582,1.143-2.723,2.167c-1.786,1.405-3.396,3.133-4.743,4.626
				c-1.229,1.317-1.229,3.25,0,4.45c0.586,0.586,1.436,0.937,2.314,0.937c0.849,0,1.639-0.322,2.166-0.937
				c1.816-1.961,3.602-3.66,5.446-5.182c0.82-0.584,1.582-1.083,2.459-1.522c0.265-0.088,0.557-0.175,0.878-0.263h0.352
				c-0.059,0-0.118,0-0.175-0.029c0.059,0.029,0.147,0.029,0.206,0.029h0.556c0.38,0.058,0.761,0.116,1.142,0.146
				c0.009,0.008-0.006,0.041-0.028,0.085c0.009,0.001,0.02,0.001,0.028,0.002c-0.028,0.035-0.061,0.071-0.093,0.105
				c-0.054,0.088-0.112,0.174-0.112,0.188c0,0-0.265,0.352-0.293,0.381c-1.024,1.17-1.054,2.84,0,3.835
				c0.497,0.499,1.171,0.791,1.874,0.791c0.731,0,1.435-0.293,1.961-0.791c0.702-0.614,1.376-1.229,2.079-1.903
				c0.877-0.761,1.844-1.639,2.166-2.752C76.195,288.103,73.62,286.054,71.804,285.35z"/>
			<path d="M425.114,222.933c-0.087,0-0.146,0-0.234,0c-1.639,0.527-3.22,1.17-4.801,1.873c-1.727,0.82-3.337,1.991-5.24,3.339
				c-0.996,0.731-1.961,1.522-2.927,2.341l-1.259,1.054c-0.731,0.586-1.317,1.201-2.254,2.283l-0.527,1.201
				c-0.059,0.352-0.059,0.731,0.118,1.346c0.175,0.41,0.322,0.791,0.615,1.112c0.439,0.44,0.731,0.761,1.317,0.965l0.761,0.234
				c0.468,0.059,0.936,0.118,1.435,0.147c0.263,0.028,0.527,0.059,0.79,0.059c0.674,0,1.376-0.088,2.079-0.147l1.23-0.146
				l0.996-0.118c0.293-0.029,0.586-0.029,0.907-0.029c0.468,0,0.937,0.029,1.551,0.118c1.054,0,1.874-1.111,1.874-2.048
				c0-0.527-0.206-1.024-0.586-1.435c-0.41-0.41-0.878-0.527-1.435-0.586v-0.088l-1.084-0.028c-0.526,0-1.083,0.028-1.61,0.118
				c-0.409,0.028-0.849,0.087-1.288,0.146c-0.175,0-0.322,0-0.527,0c-0.101,0-0.213-0.002-0.336-0.012
				c-0.203,0.022-0.406,0.046-0.601,0.071c-0.293,0-0.586,0.029-0.878,0.029c0.118-0.088,0.234-0.206,0.352-0.293
				c0.013-0.011,0.025-0.02,0.036-0.029c-0.032-0.009-0.062-0.019-0.095-0.028l0.878-0.703l1.464-1.201
				c1.024-0.791,2.079-1.551,3.133-2.284c1.317-0.937,2.693-1.61,4.128-2.283c0.937-0.381,1.874-0.733,2.84-1.025
				c1.112-0.38,1.727-1.435,1.435-2.487C427.135,223.578,426.403,222.933,425.114,222.933z"/>
			<path d="M173.571,338.371c-0.468,0-0.965,0.175-1.289,0.527c-0.321,0.321-0.468,0.731-0.497,1.258l-0.44,4.275
				c-0.263,2.868-0.556,5.708-0.79,8.549c-0.059,0.41,0.118,0.82,0.41,1.171c0.38,0.38,0.907,0.614,1.376,0.614
				c0.469,0,0.907-0.175,1.258-0.527c0.352-0.321,0.499-0.731,0.527-1.258c0.265-2.84,0.557-5.708,0.82-8.549l0.41-4.275
				c0.059-0.41-0.118-0.82-0.41-1.142C174.565,338.605,174.039,338.371,173.571,338.371z"/>
			<path d="M181.943,354.238c0.012,0,0.021,0.002,0.029,0.005c0.002-1.338,0.176-2.618,0.467-3.781l-0.205-3.339l-0.206-3.337
				c-0.058-0.996-0.849-1.786-1.786-1.786c-0.468,0-0.965,0.205-1.317,0.586c-0.352,0.352-0.497,0.761-0.468,1.201
				c0.293,4.772,0.586,9.544,0.82,14.345c0.059,0.996,0.849,1.786,1.786,1.786c0.468,0,0.908-0.175,1.23-0.41
				c-0.413-1.697-0.574-3.307-0.409-4.684C181.9,354.625,181.917,354.429,181.943,354.238z"/>
			<path d="M259.233,354.707c-0.967,0-1.757,0.791-1.787,1.786l-0.205,7.407l-0.175,7.407c0,0.965,0.82,1.786,1.786,1.786
				c0.996,0,1.786-0.79,1.786-1.786l0.206-7.407l0.175-7.407c0.028-0.467-0.147-0.907-0.468-1.229
				C260.2,354.882,259.731,354.707,259.233,354.707z"/>
			<path d="M268.368,354.882c-0.967,0-1.757,0.791-1.787,1.786c-0.146,3.133-0.263,6.295-0.352,9.428
				c-0.028,0.44,0.147,0.878,0.499,1.23c0.321,0.352,0.82,0.556,1.289,0.556c0.965,0,1.756-0.79,1.786-1.786
				c0.087-3.133,0.205-6.295,0.352-9.428c0.028-0.439-0.147-0.877-0.499-1.229C269.304,355.088,268.836,354.882,268.368,354.882z"/>
			<path d="M279.932,353.74c-0.967,0-1.757,0.79-1.787,1.786c0,2.342-0.028,4.656-0.058,7.085c-0.029,0.468,0.146,0.907,0.467,1.229
				c0.352,0.381,0.82,0.557,1.318,0.557c0.965,0,1.756-0.791,1.786-1.903c0.028-2.313,0.059-4.626,0.059-6.969
				c0.028-0.468-0.147-0.907-0.468-1.23C280.898,353.917,280.43,353.74,279.932,353.74z"/>
			<path d="M191.077,348.119c-0.028-0.439-0.118-0.878-0.497-1.258c-0.322-0.352-0.82-0.527-1.289-0.527s-0.907,0.175-1.258,0.527
				c-0.322,0.293-0.586,0.82-0.527,1.258l0.79,6.324l0.79,6.205c0.029,0.44,0.118,0.878,0.499,1.259
				c0.321,0.352,0.82,0.527,1.289,0.527c0.469,0,0.907-0.175,1.258-0.527c0.321-0.293,0.586-0.82,0.527-1.259l-0.761-6.177
				L191.077,348.119z"/>
			<path d="M199.802,357.167l-0.762-5.212c-0.028-0.41-0.439-0.82-0.79-1.054c-0.234-0.118-0.468-0.175-0.907-0.175
				c-0.147,0-0.293,0-0.468,0c-0.44,0.118-0.85,0.41-1.112,0.82c-0.234,0.468-0.234,0.878-0.146,1.405l0.731,5.211l0.761,5.212
				c0.028,0.41,0.439,0.82,0.79,1.054c0.265,0.147,0.586,0.234,0.878,0.234l0.497-0.059c0.44-0.118,0.85-0.41,1.112-0.82
				c0.234-0.468,0.234-0.878,0.147-1.404L199.802,357.167z"/>
		</g>
	</g>
</g>
<g>
</g>
<g>
</g>
<g>
</g>
<g>
</g>
<g>
</g>
<g>
</g>
<g>
</g>
<g>
</g>
<g>
</g>
<g>
</g>
<g>
</g>
<g>
</g>
<g>
</g>
<g>
</g>
<g>
</g>
</svg>
