<?xml version="1.0" encoding="iso-8859-1"?>
<!-- Generator: Adobe Illustrator 19.0.0, SVG Export Plug-In . SVG Version: 6.00 Build 0)  -->
<svg version="1.1" id="Capa_1" xmlns="http://www.w3.org/2000/svg" xmlns:xlink="http://www.w3.org/1999/xlink" x="0px" y="0px"
	 viewBox="0 0 512 512" style="enable-background:new 0 0 512 512;" xml:space="preserve">
<g>
	<g>
		<path d="M196.732,376.643c-2.808-22.06-14.951-41.352-32.717-54.552c-10.744-7.983-23.014-13.711-35.843-17.082
			c-0.425-9.945-1.775-20.415-9.745-27.315c-1.25-1.082-2.593-1.962-3.992-2.701c-2.236-17.296-4.219-47.043-25.792-47.962
			c3.626-22.553,1.313-47.006,1.005-69.678c-0.344-25.284-1.071-50.556-1.745-75.834c-0.155-5.832-9.112-5.866-9.086,0
			c0.109,25.28,0.163,50.557,0.601,75.834c0.395,22.816-1.21,47.559,3.221,70.111c-9.828,1.779-17.036,8.98-20.519,18.227
			c-4.404,11.692-1.856,23.68,1.462,35.253c-1.877,1.24-3.605,2.649-5.106,4.273c-7.194,7.783-7.703,17.777-7.172,27.776
			c0.026,0.489,0.129,0.924,0.262,1.335c-11.199,6.613-21.011,15.816-28.463,27.723c-0.268,0.428-0.374,0.871-0.375,1.304
			c-9.714,13.37-16.466,28.999-19.972,45.017c-5.173,23.636-3.683,49.847,9.804,70.577c11.964,18.389,31.187,30.375,51.835,36.828
			c21.817,6.818,48.152,9.255,69.975,1.23c21.749-7.998,36.122-26.788,46.15-46.883
			C191.757,427.606,199.967,402.061,196.732,376.643z M82.636,239.998c16.388-6.065,18.005,19.113,19.029,31.931
			c-4.119-0.152-8.307,0.249-12.238,0.787c-5.925,0.811-12.652,2.111-18.736,4.555C69.391,264.006,68.643,245.177,82.636,239.998z
			 M85.83,286.21c5.94-1.348,13.839-2.995,19.953-1.449c8.376,2.117,9.702,10.294,10.034,17.779
			c-18.745-2.667-38.005-0.438-54.969,7.038C62.136,295.764,72.287,289.283,85.83,286.21z M175.973,428.972
			c-6.962,18.109-16.95,37.635-33.192,49.102c-17.369,12.262-40.648,12.227-60.769,8.334c-17.473-3.381-34.872-10.377-47.933-22.776
			c-15.72-14.923-21.851-36.115-20.941-57.381c1.551-36.225,23.805-73.643,56.902-88.953c24.003-7.108,50.965-4.357,73.843,8.08
			c16.128,8.766,30.799,22.494,37.01,40.139C188.225,386.343,183.672,408.944,175.973,428.972z"/>
	</g>
</g>
<g>
	<g>
		<path d="M357.135,225.996c-2.838-22.054-15.008-41.33-32.792-54.505c-10.755-7.969-23.033-13.679-35.866-17.032
			c-0.439-9.944-1.803-20.413-9.783-27.302c-1.252-1.081-2.595-1.959-3.996-2.696c-2.26-17.293-4.284-47.037-25.858-47.927
			c3.637,0.15,1.129-65.339-0.294-72.362c-0.233-1.15-0.532-2.359-1.364-3.186c-1.465-1.454-4.08-1.059-5.594,0.344
			c-1.514,1.403-2.16,3.498-2.568,5.522c-2.083,10.322,0.438,23.014,0.618,33.607c0.208,12.223,0.819,24.496,3.198,36.515
			c-9.826,1.793-17.024,9.003-20.494,18.256c-4.387,11.698-1.824,23.683,1.511,35.251c-1.875,1.243-3.601,2.654-5.1,4.28
			c-7.183,7.793-7.679,17.788-7.134,27.786c0.027,0.489,0.13,0.924,0.264,1.335c-11.19,6.629-20.989,15.845-28.424,27.762
			c-0.267,0.429-0.372,0.872-0.373,1.305c-9.696,13.383-16.426,29.021-19.91,45.045c-5.14,23.643-3.614,49.852,9.902,70.564
			c11.99,18.373,31.229,30.332,51.886,36.756c21.826,6.788,48.165,9.188,69.976,1.133c21.737-8.028,36.084-26.838,46.085-46.947
			C352.231,276.967,360.406,251.41,357.135,225.996z M242.85,89.511c16.379-6.087,18.031,19.088,19.073,31.905
			c-4.12-0.146-8.307,0.26-12.237,0.804c-5.925,0.819-12.65,2.129-18.73,4.581C229.638,113.538,228.864,94.709,242.85,89.511z
			 M246.108,135.719c5.938-1.357,13.835-3.014,19.951-1.477c8.378,2.106,9.717,10.281,10.058,17.765
			c-18.748-2.641-38.005-0.385-54.959,7.114C222.427,145.306,232.569,138.811,246.108,135.719z M336.451,278.355
			c-6.938,18.12-16.9,37.659-33.126,49.148c-17.352,12.286-40.631,12.284-60.758,8.419c-17.477-3.356-34.886-10.329-47.964-22.71
			c-15.74-14.902-21.902-36.085-21.02-57.352c1.501-36.227,23.703-73.676,56.779-89.033c23.994-7.141,50.959-4.427,73.855,7.978
			c16.139,8.744,30.831,22.451,37.066,40.087C348.643,235.709,344.122,258.316,336.451,278.355z"/>
	</g>
</g>
<g>
	<g>
		<path d="M511.678,390.372c-1.898-22.155-13.238-41.93-30.445-55.85c-10.407-8.418-22.43-14.645-35.11-18.542
			c-0.015-9.954-0.934-20.471-8.613-27.693c-1.205-1.133-2.51-2.067-3.878-2.863c-1.522-17.374-2.28-47.177-23.797-48.983
			c4.551-22.385,3.246-46.912,3.87-69.578c0.696-25.277,1.009-50.558,1.376-75.842c0.084-5.834-8.863-6.236-9.078-0.374
			c-0.932,25.263-1.916,50.521-2.519,75.795c-0.543,22.812-3.165,47.469,0.335,70.184c-9.893,1.373-17.391,8.271-21.252,17.368
			c-4.881,11.502-2.829,23.584,0.01,35.283c-1.926,1.161-3.711,2.498-5.278,4.059c-7.508,7.48-8.428,17.445-8.309,27.457
			c0.006,0.49,0.091,0.929,0.207,1.345c-11.462,6.147-21.643,14.939-29.579,26.529c-0.285,0.417-0.409,0.855-0.428,1.288
			c-10.256,12.959-17.645,28.297-21.806,44.157c-6.141,23.403-5.73,49.653,6.892,70.921c11.197,18.866,29.911,31.633,50.277,38.929
			c21.518,7.71,47.731,11.227,69.865,4.106c22.059-7.096,37.193-25.279,48.039-44.945
			C504.612,441.088,513.866,415.902,511.678,390.372z M403.3,249.152c16.623-5.385,17.203,19.837,17.699,32.686
			c-4.109-0.321-8.31-0.093-12.26,0.283c-5.954,0.566-12.728,1.589-18.908,3.78C389.078,272.595,389.105,253.75,403.3,249.152z
			 M404.59,295.456c5.99-1.103,13.951-2.423,19.996-0.628c8.282,2.46,9.271,10.685,9.294,18.177
			c-18.619-3.436-37.955-2.001-55.212,4.771C380.523,304.028,390.932,297.97,404.59,295.456z M488.785,441.804
			c-7.7,17.808-18.484,36.906-35.184,47.696c-17.859,11.537-41.117,10.545-61.061,5.828c-17.319-4.096-34.415-11.803-46.955-24.729
			c-15.093-15.558-20.347-36.983-18.563-58.194c3.04-36.13,26.814-72.602,60.513-86.538c24.276-6.115,51.101-2.257,73.449,11.11
			c15.754,9.423,29.848,23.741,35.328,41.627C502.78,399.716,497.302,422.11,488.785,441.804z"/>
	</g>
</g>
<g>
</g>
<g>
</g>
<g>
</g>
<g>
</g>
<g>
</g>
<g>
</g>
<g>
</g>
<g>
</g>
<g>
</g>
<g>
</g>
<g>
</g>
<g>
</g>
<g>
</g>
<g>
</g>
<g>
</g>
</svg>
