<?xml version="1.0" encoding="iso-8859-1"?>
<!-- Generator: Adobe Illustrator 19.0.0, SVG Export Plug-In . SVG Version: 6.00 Build 0)  -->
<svg version="1.1" id="Capa_1" xmlns="http://www.w3.org/2000/svg" xmlns:xlink="http://www.w3.org/1999/xlink" x="0px" y="0px"
	 viewBox="0 0 512 512" style="enable-background:new 0 0 512 512;" xml:space="preserve">
<g>
	<g>
		<path d="M405.385,151.97c-23.708-28.454-59.42-46.617-96.818-54.276c2.064-12.553-5.622-24.271-17.236-29.459
			c-1.379-0.617-2.802-1.128-4.243-1.596c0.38-0.771,0.617-1.671,0.657-2.703c0.716-18.632-0.478-40.169-14.8-53.951
			C260.074-2.4,240.403-1.653,224.429,3.576c-30.238,9.899-55.715,46.581-37.839,76.511c-2.15,1.184-4.222,2.481-6.183,3.923
			c-9.524,7.003-18.307,21.443-12.69,33.131c-27.307,12.611-52.482,29.875-71.974,51.027
			c-38.744,42.045-46.574,99.869-40.689,154.754c0.111,1.035,0.256,2.063,0.376,3.096c1.036,11.693,2.879,23.327,5.586,34.723
			c0.18,0.889,0.342,1.781,0.527,2.669c0.076,0.364,0.206,0.661,0.362,0.921c8.635,33.882,25.08,65.445,51.198,89.746
			c38.161,35.508,90.121,52.862,141.34,57.138c56.179,4.691,108.625-11.504,148.118-52.533
			c38.342-39.833,56.715-93.919,56.122-148.756C458.09,254.958,441.009,194.724,405.385,151.97z M228.145,17.056
			c12.234-4.419,28.159-6.615,37.771,4.068c10.519,11.692,9.246,28.253,9.159,42.812c-0.001,0.122,0.026,0.224,0.031,0.342
			c-3.98-0.362-8.058-0.378-12.15-0.188c-0.793-7.401-2.49-14.916-3.808-22.188c-1.341-7.401-13.306-4.343-11.424,3.15
			c1.01,6.601,1.787,13.516,3.225,20.102c-3.273,0.4-6.508,0.856-9.655,1.319c-0.088-7.278-1.684-14.853-3.937-21.661
			c-2.375-7.179-12.494-3.66-10.797,2.998h-0.08c2.225,6.82,2.952,13.274,3.193,20.35c-3.387,0.49-6.826,1.007-10.319,1.622
			c-0.791-7.14-1.548-14.283-2.296-21.428c-0.807-7.713-13.067-7.592-12.051,0c0.835,7.98,1.665,15.96,2.44,23.946
			c-4.515,1.134-8.965,2.483-13.207,4.191C190.824,50.748,202.148,26.448,228.145,17.056z M191.803,92.659
			c10.937-6.037,23.993-8.696,36.168-10.937c13.659-2.515,74.514-15.042,69.45,14.007c-17.836-2.642-35.82-2.932-52.858-0.81
			c-22.799,2.84-46.29,9.184-68.626,18.597C178.133,104.467,182.581,97.75,191.803,92.659z M380.226,460.548
			c2.64-8.131,4.411-16.524,5.591-25.067c0.48-0.352,0.923-0.768,1.293-1.266c6.328-8.511,12.62-17.049,18.911-25.588
			c4.024-5.462-5.193-10.869-9.139-5.342c-4.601,6.446-9.189,12.901-13.774,19.359c-5.169-8.354-10.514-16.559-16.814-24.151
			c-4.063-4.896-11.42,1.357-8.551,6.598c3.001,5.481,5.991,10.966,9.068,16.404c3.5,6.187,8.067,11.501,6.37,18.783
			c-2.536,10.883-6.156,21.475-8.884,32.295c-7.193,4.773-14.765,8.947-22.646,12.479c-2.005-2.801-4.011-5.603-6.017-8.404
			c-0.883-1.233-2.353-2.772-3.582-4.323c2.021-2.248,1.857-5.231,2.045-8.194c0.422-6.644,0.763-13.297,1.103-19.946
			c0.296-5.793-8.585-6.882-10.034-1.358c-1.368,5.216-2.736,10.432-4.104,15.648c-0.584,2.228-1.608,5.015-2.016,7.71
			c-6.671,0.824-13.769,0.741-20.104,1.812c-6.237,1.055-4.861,11.916,1.509,11.153c6.098-0.73,12.133-1.846,18.175-2.943
			c1.084-0.197,2.4-0.342,3.783-0.511c0.952,1.037,1.948,2.013,2.781,2.93c2.919,3.209,5.838,6.419,8.757,9.628
			c-12.389,4.757-25.472,7.928-39.057,9.217c-23.337,2.215-47.635,0.863-71.255-3.897c4.567-1.29,9.13-2.598,13.7-3.884
			c6.731-1.895,3.679-12.706-2.875-10.429c-6.883,2.392-13.966,4.178-21.142,5.412c1.008-5.505,2.206-10.987,2.962-16.534
			c0.818-6.006-7.884-8.884-9.407-2.593c-1.806,7.461-4.239,14.793-6.57,22.123c-11.213-3.433-22.143-7.646-32.579-12.681
			c1.1-2.097,2.241-4.611,3.473-7.195c1.765-2.81,3.422-5.727,4.687-8.619c1.222-1.831,2.54-3.436,3.983-4.613
			c5.352-4.362,14.06-6.429,20.214-9.53c5.661-2.853,1.461-10.562-4.007-9.463c-0.012-0.041-0.023-0.082-0.034-0.123
			c-5.811,2.352-13.078,4.547-19.001,7.822c-0.911-3.012-2.137-6.013-2.941-8.635c-1.948-6.355-4.133-12.629-6.259-18.926
			c-2.165-6.414-12.329-3.708-10.213,2.815c0.35,1.228,0.726,2.461,1.116,3.698c2.273,7.941,4.208,17.003,7.54,24.567
			c0.085,0.397,0.188,0.796,0.266,1.192c0.31,1.587,0.307,3.257,0.091,4.975c-3.512,5.326-6.24,11.804-9.07,16.812
			c-2.552-1.405-5.076-2.851-7.555-4.357c-10.04-6.101-19.127-13.138-27.354-20.902c5.293-4.16,10.81-7.971,16.584-11.47
			c5.987-3.627,0.531-13.033-5.498-9.405c-4.312,2.595-8.472,5.384-12.527,8.324c0.343-7.177,0.776-14.346,0.041-21.566
			c-0.566-5.555-9.003-5.82-8.869,0c-0.339,7.416-0.091,15.091-0.811,22.584c-21.38-24.543-35.192-54.969-41.375-88.141
			c-1.305-7.002-2.294-14.092-2.975-21.224c0.63,0.482,1.239,0.954,1.808,1.42c6.364,5.212,12.967,10.137,19.857,14.636
			c6.194,4.044,12.599,7.704,19.162,11.049c0.579,1.808,1.22,3.543,1.667,5.054c2.19,7.408,4.176,14.926,6.769,22.202
			c2.396,6.724,12.533,4.112,10.802-2.978c-1.458-5.97-3.327-11.835-5.162-17.707c5.197,2.221,10.465,4.285,15.81,6.162
			c6.521,2.291,9.376-8.124,2.855-10.355c-7.58-2.593-14.97-5.617-22.169-9.048c0.218-0.174,0.442-0.339,0.661-0.511
			c1.979-1.192,3.942-2.364,4.688-2.862c4.317-2.883,8.569-5.858,12.993-8.574c4.344-2.667,1.582-10.106-3.567-8.461
			c-7.117,2.274-20.765,7.699-25.242,15.043c-2.767-1.519-5.51-3.088-8.212-4.739c-6.433-3.929-12.649-8.211-18.604-12.832
			c-2.918-2.265-6.255-4.567-8.862-7.271c10.342-4.335,20.798-8.563,30.854-13.427c3.819,4.767,12.532,7.88,16.722,10.344
			c5.798,3.41,11.052-5.602,5.264-9.005c-3.38-1.988-11.517-4.884-12.065-9.049c-0.05-0.384,0.078-0.918,0.302-1.521
			c2.435-3.895,4.237-8.371,6.076-12.618c0.583-1.287,1.159-2.576,1.746-3.861c2.545-5.569-5.48-10.502-8.355-4.884
			c-2.372,4.635-4.61,9.363-7.124,13.922c-3.652,6.622-8.018,9.001-14.68,12.16c-6.848,3.246-13.698,6.487-20.547,9.729
			c5.611-13.785,15.599-27.196,23.847-39.493c1.305-1.946,2.655-3.864,3.988-5.793c10.503,0.551,20.917-1.334,30.693-5.386
			c6.282-2.604,3.563-12.977-2.855-10.355c-6.599,2.696-13.225,4.247-20.033,4.747c5.552-7.606,11.28-15.087,17.191-22.403
			c3.862-4.781-2.683-11.655-6.883-6.883c-5.68,6.454-11.125,12.957-16.293,19.571c0.458-5.837,0.856-11.679,0.967-17.507
			c0.113-5.921-8.193-6.302-9.672-1.301c-0.018-0.005-0.036-0.01-0.054-0.015c-0.029,0.206-0.047,0.415-0.076,0.621
			c-0.039,0.228-0.09,0.448-0.101,0.695c-0.003,0.07-0.006,0.139-0.009,0.208c-1.424,10.669-2.073,21.479-3.033,32.195
			c-0.042,0.473,0.009,0.909,0.102,1.325c-1.465,2.151-2.908,4.314-4.304,6.501c-0.636,0.937-1.301,1.85-1.931,2.792
			c-5.298,7.932-10.36,16.02-15.176,24.254c-0.198,0.338-0.412,0.689-0.634,1.046c1.99-42.417,15.885-84.072,44.586-116.161
			c2.821-3.154,5.753-6.172,8.762-9.087c11.14-2.677,22.302-5.395,33.554-7.431c4.287,5.287,8.641,10.52,12.975,15.768
			c4.148,5.024,11.279-1.374,8.609-6.642c-2.429-4.79-5.206-8.772-8.691-12.437c7.739-5.172,16.433-8.531,25.449-10.991
			c1.544-0.421,2.542-1.326,3.085-2.422c0.013-0.003,0.026-0.006,0.039-0.009c4.867-1.129,3.764-8.683-1.171-8.65
			c-12.378,0.084-22.734,4.905-33.448,10.569c-8.005,4.232-16.84,7.185-25.697,9.853c21.987-15.176,46.892-26.569,71.441-34.405
			c27.544-8.792,57.384-11.708,86.288-8.048c-0.863,0.29-1.731,0.567-2.6,0.843c-1.79,0.534-3.573,1.095-5.358,1.652
			c-3.814,1.15-7.614,2.299-11.26,3.683c-5.969,2.073-3.378,11.64,2.624,9.517c7.312-2.587,14.477-6.167,21.837-8.883
			c-2.433,6.578-4.755,13.22-6.772,19.903c-2.066,6.847,8.425,9.645,10.652,2.937c2.914-8.775,5.356-17.797,7.639-26.769
			c17.693,3.895,34.777,10.398,50.469,19.69c-0.829,1.399-1.658,2.796-2.534,4.163c-2.791,4.355-3.658,5.743-8.252,7.184
			c-7.401,2.321-15.363,3.185-22.837,5.545c-5.946,1.878-5.239,11.776,1.535,11.344c8.916-0.568,17.633-1.571,26.279-3.511
			c-0.413,7.329-0.844,14.659-1.254,21.988c-0.384,6.869,10.731,6.951,10.738,0c0.01-9.309-0.031-18.618,0.001-27.926
			c0.002-0.543-0.116-1.033-0.281-1.495c0.706-4.302,2.294-8.537,4.237-12.455c0.537,0.356,1.079,0.704,1.611,1.071
			c11.404,7.863,21.239,17.65,29.7,28.687c-6.481,5.119-12.363,11.145-18.346,16.794c-3.79,3.579,1.385,10.693,5.707,7.397
			c0.317-0.242,0.627-0.503,0.942-0.751c0.004,0.005,0.007,0.009,0.011,0.014c0.018-0.022,0.038-0.045,0.056-0.068
			c3.748-2.959,7.35-6.303,11.029-9.504c-1.32,8.144-2.665,16.286-3.851,24.442c-0.995,6.843,9.164,10.04,10.653,2.937
			c1.808-8.627,3.046-17.515,3.952-26.383c16.271,26.735,26.063,58.324,31.3,87.568c9.229,51.539,2.479,106.69-25.812,151.441
			C404.684,436.158,393.272,449.39,380.226,460.548z"/>
	</g>
</g>
<g>
	<g>
		<path d="M371.798,272.276c-5.039-0.105-10.08-0.093-15.12-0.003c1.346-2.182,3.084-4.507,3.895-5.883
			c2.509-4.261,5.02-8.52,7.519-12.788c3.325-5.679-5.286-10.647-8.785-5.135c-3.994,6.291-7.988,12.582-11.982,18.874
			c-1.23,1.689-2.534,3.517-3.512,5.363c-1.92,0.092-3.841,0.18-5.76,0.298c-12.69,0.66-25.351,1.778-37.97,3.292
			c7.544-9.577,15.353-18.961,23.392-28.18c5.092,0.751,10.197,1.428,15.296,2.136c7.54,1.046,10.791-10.503,3.183-11.547
			c-3.005-0.413-6.009-0.82-9.014-1.229c4.476-4.946,9.004-9.855,13.617-14.702c4.716-4.955-2.458-12.067-7.482-7.482
			c-5.745,5.243-11.345,10.626-16.767,16.182c-1.876-6.214-2.332-13.181-3.994-19.385c-1.548-5.779-10.54-3.342-9.009,2.435
			c0.6,4.712,1.471,9.387,2.268,14.071c0.642,3.776,0.627,8.571,1.746,12.474c-2.335,2.586-4.645,5.196-6.896,7.863
			c-5.816,6.894-12.474,14.266-17.695,22.182c-2.066-15.325-4.879-30.598-8.587-45.604c0.979-0.736,1.924-1.645,2.952-2.628
			c5.752-5.502,11.055-12.093,16.065-18.26c3.927-4.834-2.48-11.672-6.992-6.992c-3.46,3.589-6.763,7.324-10.051,11.072
			c-1.653,1.87-3.286,3.758-4.9,5.662c-0.004,0.012-0.009,0.02-0.014,0.032c-2.378-8.442-5.035-16.788-8.089-24.97
			c-1.283-3.439-5.993-2.075-5.438,1.499c1.072,6.893,2.161,13.777,3.245,20.657c-2.104-1.685-4.154-3.576-5.851-4.8
			c-3.757-2.71-7.49-5.447-11.331-8.038c-4.735-3.194-9.136,3.669-5.708,7.413l-0.054,0.054c0.236,0.182,0.479,0.354,0.715,0.535
			c0.087,0.067,0.154,0.144,0.248,0.208c0.122,0.083,0.243,0.168,0.365,0.251c4.492,3.429,9.076,6.729,13.653,10.048
			c2.902,2.104,6.429,5.438,10.042,7.663c2.387,15.398,4.674,30.797,6.561,46.262c-0.588-0.425-1.187-0.835-1.777-1.257
			c-9.815-8.302-20.193-15.644-31.094-22.212c0.906-2.374,0.63-5.072,0.288-7.938c-0.831-6.956-1.78-14.129-3.587-20.895
			c-1.623-6.077-11.664-5.052-11.229,1.519c0.283,4.269,1.048,8.451,1.745,12.67c0.379,2.294,0.623,4.65,1.202,6.903
			c0.145,0.565,0.286,0.985,0.416,1.353c-9.198-4.927-18.76-9.347-28.697-13.312c-6.803-2.715-9.699,8.238-3.019,10.95
			c7.35,2.985,14.576,6.316,21.692,9.899c-5.868,2.042-12.496,3.278-17.669,4.473c0.012,0.029,0.025,0.059,0.037,0.088
			c-5.595,1.776-3.987,10.761,2.573,9.379c6.86-1.445,13.579-3.316,20.137-5.808c1.88-0.714,4.047-1.391,6.188-2.161
			c13.57,7.543,26.662,16.076,39.135,25.485c-0.058,0.01-0.116,0.018-0.174,0.027c-17.172,2.896-34.412,6.673-50.912,12.396
			c-7.501-5.129-14.722-10.563-22.574-15.227c-5.158-3.063-9.251,4.775-4.525,7.761c-0.016,0.021-0.032,0.041-0.048,0.062
			c5.492,3.617,11.042,7.359,16.16,11.568c-8.548,3.528-16.841,7.662-24.747,12.585c-1.853,1.154-2.592,2.843-2.553,4.508
			c-0.047,0.944,0.213,1.887,0.716,2.602c1.29,2.377,4.158,3.893,7.256,2.162c6.443-3.6,13.037-6.748,19.741-9.567
			c-2.417,5.657-4.747,11.352-7.03,17.065c-2.937,7.351,9.29,10.881,11.994,3.306c3.018-8.458,6.231-16.839,9.421-25.232
			c15.639-4.654,31.603-8.455,47.742-11.445c-8.455,11.773-16.499,23.841-24.127,36.147c-6.412,0.02-12.856,0.529-19.06,2.111
			c-5.855,1.493-3.673,10.341,1.914,9.552c3.563-0.346,7.075-0.66,10.586-0.825c-5.204,8.77-10.211,17.644-14.995,26.616
			c-3.626,6.798,6.721,12.858,10.339,6.044c4.376-8.241,8.942-16.344,13.665-24.331c0.641,4.946,1.122,9.907,1.298,14.95
			c0.277,7.926,12.843,7.851,12.283,0c-0.707-9.908-2.004-19.918-4.697-29.499c6.204-9.863,12.653-19.547,19.364-29.039
			c1.361,18.223,1.772,36.384,1.505,54.538c-2.077,2.261-3.779,5.242-5.181,7.239c-0.606,0.864-1.199,1.736-1.789,2.607
			c-4.257,4.762-8.517,9.521-12.724,14.333c-3.782,4.326,1.29,12.385,6.578,8.525c5.392-3.937,9.064-8.802,12.6-14.091
			c-0.493,12.678-1.256,25.36-2.247,38.067c-0.643,8.248,11.704,7.905,12.67,0c1.694-13.867,2.75-27.848,3.282-41.866
			c0.017,0.014,0.032,0.027,0.049,0.042c4.326,3.591,8.591,7.214,13.18,10.468c5.288,3.749,11.728-4.656,6.928-8.979
			c-5.431-4.891-11.395-9.183-17.182-13.645c-0.807-0.622-1.684-1.387-2.619-2.158c0.246-19.833-0.518-39.687-2.099-59.346
			c-0.11-1.365-0.25-2.733-0.371-4.099c11.784,10.255,22.895,21.258,33.263,32.801c-0.358,8.044-1.2,16.08-2.273,24.052
			c-1.282,6.396,8.731,8.959,9.685,2.67c0.068-0.445,0.113-0.89,0.178-1.335h0.001c0-0.002,0-0.004,0-0.006
			c0.711-4.899,1.256-9.793,1.675-14.698c3.992,4.789,7.865,9.654,11.589,14.595c5.327,7.069,15.315-0.442,9.706-7.489
			c-5.299-6.659-10.803-13.066-16.46-19.284c6.757-2.083,13.526-4.006,20.495-5.482c6.692-1.417,3.872-11.797-2.834-10.28
			c-8.599,1.945-17.179,4.294-25.416,7.48c-10.427-10.811-21.379-20.969-32.842-30.483c15.297-2.041,30.656-3.436,45.934-4.244
			c3.186,6.651,9.612,13.719,12.708,18.485c4.063,6.255,14.203,0.308,10.006-5.849c-2.032-2.982-6.772-8.18-9.681-13.17
			c4.862-0.153,9.716-0.264,14.549-0.302C379.156,283.651,379.165,272.36,371.798,272.276z"/>
	</g>
</g>
<g>
</g>
<g>
</g>
<g>
</g>
<g>
</g>
<g>
</g>
<g>
</g>
<g>
</g>
<g>
</g>
<g>
</g>
<g>
</g>
<g>
</g>
<g>
</g>
<g>
</g>
<g>
</g>
<g>
</g>
</svg>
