<?xml version="1.0" encoding="iso-8859-1"?>
<!-- Generator: Adobe Illustrator 19.0.0, SVG Export Plug-In . SVG Version: 6.00 Build 0)  -->
<svg version="1.1" id="Capa_1" xmlns="http://www.w3.org/2000/svg" xmlns:xlink="http://www.w3.org/1999/xlink" x="0px" y="0px"
	 viewBox="0 0 512 512" style="enable-background:new 0 0 512 512;" xml:space="preserve">
<g>
	<g>
		<path d="M431.705,256.903c-1.52-10.921-4.085-23.845-13.399-29.965c3.333-16.676,3.991-33.882,1.512-50.915
			c-3.508-24.109-12.764-47.319-27.473-66.654c12.968-7.335,20.508-23.953,21.071-38.275c0.663-16.869-8.735-32.349-23.102-40.861
			c-14.617-8.661-32.966-8.893-47.417,0.219c-6.672,4.207-12.296,10.032-16.11,16.946c-2.169,3.932-4.849,9.929-4.734,15.123
			c-10.131-3.009-20.564-5.131-31.051-6.494c-12.967-1.686-26.275-2.786-39.47-2.567c2.706-5.92,4.657-12.464,7.105-18.355
			c2.629-6.329,5.506-12.938,6.418-19.788c1.296-9.741-4.682-17.565-15.027-14.728c-11.542,3.165-17.887,16.343-18.063,27.479
			c-0.127,8.053,2.921,19.91,9.822,25.809c-19.941,1.397-39.361,6.279-56.655,17.287c-7.426,4.726-14.685,10.002-21.633,15.741
			c-1.876-12.766-14.09-23.499-25.936-27.245c-16.383-5.181-35.059,1.174-46.273,13.819c-11.781,13.284-15.083,32.566-10.164,49.413
			c3.779,12.945,16.826,30.395,32.087,29.265c-15.719,38.009-13.91,81.96,3.127,118.744c-16.572,25.029-6.885,59.621,13.966,79.252
			c13.386,12.602,29.251,23.207,45.266,32.137c8.157,4.548,16.543,8.675,25.117,12.376c3.722,1.607,7.566,3.39,11.487,4.946
			c-2.398,7.025-3.301,14.875-4.45,21.928c-1.273,7.813-4.113,17.76-2.275,25.621c0.451,1.93,1.317,3.767,2.491,5.46
			c-2.223,4.789-3.149,10.032-2.974,15.436c0.17,5.236,0.888,13.142,5.525,16.549c4.413,3.242,7.677,1.299,10.012-2.667
			c1.613,4.919,4.535,8.297,9.751,6.98c1.491-0.377,2.742-1.196,3.79-2.318c0.11,0.539,0.21,1.077,0.344,1.621
			c1.003,4.061,2.604,10.598,7.008,12.317c4.566,1.782,7.793-0.611,10.071-4.531c1.459,6.498,4.388,11.774,10.237,10.885
			c3.399-0.517,5.909-2.52,7.736-5.312c0.167,0.604,0.318,1.218,0.514,1.803c1.391,4.154,4.613,6.792,9.188,5.951
			c3.851-0.708,6.643-2.826,8.687-5.69c1.728,4.85,4.716,8.374,9.757,8.355c5.615-0.021,9.1-3.979,11.292-9.284
			c1.987,4.486,5.093,7.531,9.871,6.8c5.155-0.789,8.369-5.495,10.322-11.271c2.484,4.486,6.057,7.469,11.001,6.342
			c11.651-2.656,10.895-28.17,10.035-36.832c1.021-1.082,2.007-2.221,2.914-3.483c12.934-17.979,8.742-40.779,4.105-60.809
			c-0.018-0.077-0.051-0.136-0.071-0.211c3.271-3.246,6.108-6.977,8.33-11.324c1.219-2.385,2.151-4.781,2.852-7.179
			c13.383-3.593,26.073-15.809,34.686-25.597c11.47-13.035,19.943-28.498,24.878-45.143
			C433.248,295.631,434.339,275.839,431.705,256.903z M333.308,54.092c3.558-6.147,8.374-11.56,14.435-15.349
			c11.64-7.278,25.922-7.036,37.633-0.063c11.416,6.798,18.762,18.989,18.119,32.414c-0.645,13.471-7.734,22.533-17.422,30.655
			c-1.989-2.24-4.035-4.435-6.187-6.539c-0.627-0.613-1.266-1.206-1.904-1.802c9.94-4.591,14.808-19.238,5.666-27.087
			c-0.376-0.323-2.257-1.311-3.377-2.006c0.761-0.402,1.696-2.215,1.803-2.411c0.913-1.659,0.928-3.958-0.03-5.605
			c-2.152-3.7-7.663-3.948-12.32-3.549c1.431-7.448-4.485-12.246-12.909-6.519c-8.053,5.475-13.008,15.293-12.191,24.85
			c-5.134-2.411-10.409-4.538-15.794-6.384C330.543,61.338,331.433,57.332,333.308,54.092z M375.102,68.188
			c6.245,4.47,8.261,9.514,2.347,15.796c-1.73,1.837-3.265,3.031-4.573,4.919c-7.15-5.957-14.891-11.014-23.059-15.261
			c0.419-4.224,1.28-8.534,3.101-12.313c0.932-1.935,2.14-3.887,3.525-5.524c0.795-0.955,1.668-1.829,2.619-2.624
			c4.295-3.59,2.815,6.216,7.388,5.356c2.785-0.524,8.566-0.648,8.824,2.554c0.046,0.573-1.474,2.708-1.598,3.593
			C373.464,66.19,373.857,67.297,375.102,68.188z M239.372,34.9c-1.366-6.219-1.56-13.744,1.479-19.578
			c2.866-5.502,9.952-12.487,16.026-8.088c9.552,6.917-5.158,29.091-9.988,42.853C243.836,45.325,240.712,41.003,239.372,34.9z
			 M100.218,135.931c-6.275-4.686-9.75-12.059-11.259-19.604c-2.7-13.5,0.827-28.404,10.665-38.277
			c9.057-9.089,23.071-13.786,35.574-9.823c11.917,3.778,17.961,12.656,23.276,22.961c-3.589,3.16-7.068,6.457-10.428,9.869
			c-1.337-9.185-13.512-15.579-21.7-16.745c-4.582-0.652-10.461-0.501-13.444,3.618c-2.172,2.999-1.381,5.179-0.205,7.721
			c-2.619,3.218-6.416,4.903-6.016,9.981c0.203,2.57,1.373,4.518,3.084,5.961c-4.764,9.351,2.414,20.243,12.563,22.477
			c-1.559,2.629-3.045,5.294-4.431,8.002C111.722,140.052,105.794,140.096,100.218,135.931z M115.626,107.136
			c-4.755-1.628,3.883-8.114,4.296-9.749c0.756-2.992-2.004-4.047,1.542-5.87c3.536-1.817,11.584,2.173,14.415,3.996
			c3.621,2.331,6.114,5.821,9.506,8.298c-7.116,7.517-13.617,15.587-19.243,24.14c-5.876-2.494-15.857-7.283-8.986-15.018
			C118.944,110.921,118.166,108.006,115.626,107.136z M118.25,168.784c8.708-30.065,29.137-55.175,53.105-74.679
			c13.023-10.598,27.424-20.418,43.691-25.178c16.343-4.782,33.865-4.665,50.737-3.969c31.752,1.31,64.557,7.593,91.243,25.772
			c24.101,16.417,40.794,42.316,48.871,70.082c17.489,60.124-10.113,117.283-52.56,158.625
			c-23.653,14.042-48.831,22.342-76.97,24.335c-29.552,2.093-60.102-2.523-87.101-14.986
			c-28.253-13.042-51.146-34.632-64.127-63.082C111.5,235.809,109.122,200.299,118.25,168.784z M306.781,350.164
			c6.695-1.643,13.294-3.699,19.709-6.169c7.289,6.502,13.242,14.79,16.528,23.905c4.008,11.12,2.887,21.228,1.793,32.345
			c-5.953,4.427-13.052,7.711-20.614,10.151C330.994,389.226,322.974,364.861,306.781,350.164z M293.122,379.811
			c-1.833-9.853-6.141-18.435-12.995-25.189c7.945-0.735,15.952-1.986,23.856-3.787c6.673,7.574,12.168,16.661,14.964,26.233
			c3.554,12.17,2.063,23.173-0.577,35.041c-9.419,2.479-19.229,3.856-28.152,4.698C294.995,405.798,295.151,390.719,293.122,379.811
			z M255.271,355.262c3.214,0.122,6.425,0.192,9.627,0.155c3.892-0.044,7.83-0.226,11.786-0.519
			c6.594,8.262,10.785,18.289,12.082,28.817c1.465,11.882-2.443,22.262-3.848,33.546c-8.225,0.623-16.766,0.663-25.003-0.658
			C265.732,397.928,266.197,371.853,255.271,355.262z M127.371,314.185c-0.852,5.402-1.311,11.204-0.746,16.815
			c-3.957-5.64-6.98-11.914-8.637-19.067c-2.716-11.728-1.408-22.875,1.92-33.857c3.573,6.715,7.68,13.146,12.297,19.209
			C129.251,302.345,128.13,309.381,127.371,314.185z M149.506,353.043c-1.491-1.111-2.973-2.235-4.437-3.38
			c-4.963-3.886-9.603-8.04-13.647-12.613c-0.222-6.823-0.941-13.493,0.07-20.421c0.786-5.388,2.255-10.191,4.321-14.867
			c5.933,7.146,12.607,13.721,20.024,19.555c-2.549,5.675-4.15,11.854-5.166,17.886
			C149.944,343.522,149.027,348.464,149.506,353.043z M153.853,356.2c-1.435-6.695,1.183-15.694,2.819-21.782
			c0.912-3.395,2.125-6.658,3.398-9.9c7.271,5.24,15.012,9.762,23.081,13.62c-2.457,10.686-4.77,21.352-7.405,32.019
			C168.24,365.844,160.904,361.216,153.853,356.2z M186.429,376.04c-2.641-1.376-5.261-2.8-7.864-4.257
			c4.897-9.477,8.364-20.768,9.259-31.497c8.047,3.537,16.392,6.423,24.91,8.697c-1.335,12.619-4.408,23.2-10.016,34.871
			C197.201,381.435,191.769,378.822,186.429,376.04z M207.722,385.984c-0.514-0.211-1.02-0.438-1.533-0.653
			c7.266-9.792,11.591-22.737,11.698-35.056c3.715,0.877,7.456,1.646,11.217,2.294c2.603,4.375,4.175,8.705,3.818,14.465
			c-0.439,7.087-3.388,13.826-4.802,20.724c-0.389,1.895-0.692,3.84-0.883,5.798C221.153,390.306,214.085,388.606,207.722,385.984z
			 M218.613,467.032c-0.202,1.785-0.529,3.557-1.087,5.306c-0.436,1.364-1.425,6.626-3.22,6.629
			c-1.95,0.003-2.953-4.461-3.382-5.808c-1.746-5.484-1.275-11.508-0.127-17.246c2.247,2.119,4.995,3.845,7.932,5.053
			C218.666,462.467,218.594,464.598,218.613,467.032z M231.411,475.541c-0.2,1.199-0.79,4.012-1.853,5.012
			c-0.087,0.082-0.178,0.152-0.272,0.208c-1.572,0.936-2.47-1.658-2.775-2.743c-0.647-2.301-1.03-4.649-1.148-7.043
			c-0.175-2.333-0.155-4.679-0.086-7.021c0.038-0.442,0.067-0.861,0.091-1.258c2.054,0.23,4.083,0.163,6.01-0.243
			C231.273,466.808,232.135,471.206,231.411,475.541z M232.062,449.578c0.005,0.541,0.006,1.088,0.006,1.64
			c-5.613,1.282-11.28,0.591-15.169-4.537c-3.606-4.755-1.889-11.732-1.395-17.55c0.071-0.84,0.167-1.689,0.264-2.54
			c4.797,2.447,11.011,4.296,16.597,4.251C231.928,437.158,232.009,443.556,232.062,449.578z M232.867,425.551
			c-2.286-0.298-4.629-0.416-6.86-0.778c-3.278-0.532-6.498-1.324-9.762-1.916c0.978-6.872,2.392-13.977,2.787-20.887
			c2.548,0.724,5.117,1.272,7.703,1.489c0.259,0.022,0.503,0.013,0.742-0.005c0.768,4.645,2.597,9.03,6.053,12.645
			c0.304,0.318,0.626,0.613,0.945,0.912C233.741,419.778,233.233,422.642,232.867,425.551z M237.723,387.078
			c1.763-8.279,5.65-23.517,1.437-33.053c3.993,0.474,7.997,0.817,11.999,1.052c3.893,9.849,6.965,19.278,7.251,30.203
			c0.272,10.404-2.156,20.194-3.681,30.268c-0.952-0.228-1.907-0.45-2.847-0.722C237.756,410.739,234.853,400.558,237.723,387.078z
			 M239.959,488.273c-1.228-3.518-1.822-7.205-2.028-10.924c0.177-1.083,0.305-2.19,0.376-3.304c0.046,0.04,0.084,0.085,0.131,0.125
			c3.14,2.678,7.123,4.127,11.322,5.003C248.527,486.289,244.434,501.095,239.959,488.273z M266.074,490.933
			c-0.757,2.04-1.493,7.159-4.44,6.775c-2.406-0.313-3.814-4.415-4.29-6.427c-0.853-3.61-0.843-7.412-0.792-11.101
			c2.57,0.266,5.101,0.447,7.452,0.679c0.944,0.093,1.891,0.148,2.835,0.231c0.065,0.72,0.124,1.45,0.182,2.181
			C267.071,485.821,266.795,488.326,266.074,490.933z M285.698,490.618c-0.528,4.025-1.729,7.734-4.401,9.326
			c-7.12,4.239-5.7-5.731-6.205-9.686c-0.366-2.872-0.732-5.743-1.099-8.615c3.926,0.241,7.856,0.373,11.789,0.443
			C285.649,484.534,285.576,487.504,285.698,490.618z M304.024,492.945c-0.555,2.501-3.069,14.558-9.092,8.857
			c-1.326-1.255-2.035-10.024-2.116-10.978c-0.066-0.776-0.095-1.549-0.123-2.323c0.237-2.214,0.351-4.373,0.383-6.37
			c2.435-0.021,4.87-0.051,7.304-0.137c1.693-0.06,3.423-0.123,5.167-0.193C305.293,485.548,304.843,489.253,304.024,492.945z
			 M323.234,489.941c-0.504,2.136-1.93,9.095-3.552,9.842c-6.656,3.063-7.152-12.09-7.01-18.36c3.911-0.269,7.843-0.681,11.696-1.35
			c0.001,0.009,0.001,0.018,0.001,0.027C324.327,483.405,324.008,486.659,323.234,489.941z M340.847,491.506
			c-0.961,2.373-2.39,3.787-4.509,3.127c-3.493-1.087-4.406-9.176-4.575-12.187c0.072-1.488,0.096-2.869,0.083-4.086
			c3.859-1.127,7.54-2.637,10.918-4.685C342.806,476.099,342.996,486.2,340.847,491.506z M345.578,456.864
			c-9.808,15.527-32.274,14.78-48.506,15.274c-8.824,0.268-17.661,0.107-26.469-0.485c-7.105-0.478-19.565,0.413-25.451-4.303
			c-5.455-4.37-5.119-16.127-4.964-24.451c16.257,7.087,36.336,8.085,53.494,8.11c17.804,0.026,40.089-0.753,57.025-8.013
			C349.928,447.824,348.336,452.497,345.578,456.864z M351.239,437.673c-8.163,1.041-16.159,3.626-24.284,4.995
			c-10.456,1.762-21.042,2.719-31.645,2.87c-18.309,0.261-37.333-1.412-55.09-6.355c-0.004-0.388-0.006-0.777-0.018-1.13
			c-0.188-5.678,0.018-11.41-0.33-17.085c6.825,3.857,15.191,5.258,22.743,6.115c13.952,1.584,27.997,0.217,41.758-2.281
			c14.378-2.611,30.606-6.238,43.435-14.291C349.807,419.288,351.668,428.649,351.239,437.673z M351.278,394.438
			c3.538-19.035-6.659-39.498-21.384-51.788c4.343-1.795,8.59-3.789,12.703-5.999C356.398,353.066,367.484,376.408,351.278,394.438z
			 M377.863,368.382c-2.581,1.79-5.335,3.326-8.043,4.919c-0.11-15.159-8.475-29.847-18.335-41.857
			c6.016-3.894,11.667-8.293,16.818-13.249c0.12-0.116,0.197-0.245,0.294-0.369c13.805,10.669,14.583,28.075,17.001,44.548
			C383.122,364.505,380.548,366.519,377.863,368.382z M393.195,355.148c-0.757,0.794-1.544,1.559-2.324,2.331
			c-0.493-8.473-2.743-17.294-5.761-24.534c-2.696-6.466-7.577-15.599-14.544-19.132c5.153-4.963,9.964-10.279,14.434-15.869
			c7.985,3.596,14.395,9.206,19.066,16.866c3.071,5.037,4.586,10.577,6.439,15.99C405.891,339.664,400.086,347.912,393.195,355.148z
			 M416.425,317.346c-0.688,1.917-1.442,3.81-2.237,5.686c-4.64-12.466-14.762-24.014-26.577-28.446
			c5.232-6.894,9.928-14.194,14.044-21.802c3.977,2.101,7.895,4.117,11.346,7.187c2.054,1.827,3.948,3.861,5.538,6.107
			c1.399,1.976,2.354,4.208,4.085,5.878C421.42,300.591,419.384,309.104,416.425,317.346z M423.455,284.384
			c-2.127-3.268-5.256-6.228-7.675-8.234c-3.591-2.978-7.802-5.571-12.367-6.696c5.708-11.14,10.172-22.906,13.209-35.025
			c6.492,9.744,6.936,24.136,7.252,34.972C424.02,274.407,423.859,279.408,423.455,284.384z"/>
	</g>
</g>
<g>
	<g>
		<path d="M335.524,215.368c-0.977-1.125-1.991-2.219-3.039-3.278c-15.752-15.921-38.541-22.913-60.616-20.981
			c-23.787,2.082-46.411,14.342-60.1,34.003c-5.694,8.177-9.661,17.508-11.623,27.276c-6.573,32.706,7.849,67.615,40.958,78.225
			c17.464,5.596,36.938,4.357,54.657,0.566c16.638-3.56,32.31-11.195,42.369-25.342
			C356.653,279.787,356.684,239.727,335.524,215.368z M337.36,287.929c-11.536,30.306-45.975,38.857-75.568,37.221
			c-15.351-0.848-31.258-6.071-41.536-18.065c-9.877-11.526-14.215-27.317-13.885-42.3c0.524-23.751,13.964-45.499,34.083-57.815
			c10.934-6.693,26.054-8.031,38.631-7.734c13.461,0.317,26.703,4.021,37.829,11.736c0.233,0.162,0.465,0.325,0.695,0.489
			C342.238,229.019,347.809,260.478,337.36,287.929z"/>
	</g>
</g>
<g>
	<g>
		<path d="M294.164,215.112c-2.517-1.996-5.487-3.359-8.56-4.248c-11.142-3.223-22.884-0.345-32.148,6.356
			c-8.171,5.911-15.087,15.785-11.416,26.217c6.181,17.561,32.058,19.12,46.092,11.277
			C302.051,246.936,308.014,226.095,294.164,215.112z M283.943,247.545c-9.641,5.438-28.375,5.876-34.946-4.707
			c-6.866-11.058,5.605-20.01,16.682-24.534c5.251-1.544,10.909-1.682,16.751-0.069
			C297.644,222.437,296.194,240.634,283.943,247.545z"/>
	</g>
</g>
<g>
	<g>
		<path d="M301.333,284.617c-1.389-2.821-5.581-2.493-7.057,0.001c-4.091,6.912-5.188,13.13-14.585,14.738
			c-10.556,1.806-16.419-3.743-20.785-12.296c-1.407-2.757-6.437-2.333-6.963,0.91c-2.484,15.323,14.801,23.605,27.885,22.41
			C291.355,309.328,307.876,297.905,301.333,284.617z"/>
	</g>
</g>
<g>
	<g>
		<path d="M205.01,186.013c-2-8.088-10.553-12.6-18.448-10.238c-5.676,1.698-9.13,6.523-9.827,12.283
			c-0.624,5.158,0.445,12.543,4.791,15.931C192.93,212.878,208.059,198.341,205.01,186.013z"/>
	</g>
</g>
<g>
	<g>
		<path d="M346.777,166.387c-3.297-13.33-21.777-14.71-27.384-2.411c-1.828,4.009-1.257,9.203-0.15,13.361
			c0.763,2.868,2.256,5.198,4.198,6.853c3.7,3.154,9.028,3.861,14.035,1.177C343.98,181.88,348.607,173.788,346.777,166.387z"/>
	</g>
</g>
<g>
</g>
<g>
</g>
<g>
</g>
<g>
</g>
<g>
</g>
<g>
</g>
<g>
</g>
<g>
</g>
<g>
</g>
<g>
</g>
<g>
</g>
<g>
</g>
<g>
</g>
<g>
</g>
<g>
</g>
</svg>
