<?xml version="1.0" encoding="iso-8859-1"?>
<!-- Generator: Adobe Illustrator 19.0.0, SVG Export Plug-In . SVG Version: 6.00 Build 0)  -->
<svg version="1.1" id="Capa_1" xmlns="http://www.w3.org/2000/svg" xmlns:xlink="http://www.w3.org/1999/xlink" x="0px" y="0px"
	 viewBox="0 0 512 512" style="enable-background:new 0 0 512 512;" xml:space="preserve">
<g>
	<g>
		<path d="M405.386,151.97c-23.708-28.454-59.42-46.617-96.818-54.276c2.064-12.553-5.622-24.271-17.236-29.459
			c-1.38-0.617-2.802-1.128-4.243-1.596c0.38-0.771,0.617-1.671,0.657-2.703c0.716-18.632-0.478-40.169-14.8-53.951
			C260.074-2.4,240.403-1.653,224.429,3.576c-30.238,9.899-55.715,46.581-37.839,76.511c-2.15,1.184-4.222,2.481-6.183,3.923
			c-9.524,7.003-18.307,21.443-12.69,33.131c-27.307,12.611-52.482,29.875-71.974,51.027
			c-38.744,42.045-46.574,99.869-40.689,154.754c0.111,1.035,0.256,2.063,0.376,3.096c1.036,11.693,2.879,23.327,5.586,34.723
			c0.18,0.889,0.342,1.781,0.527,2.669c0.076,0.364,0.206,0.661,0.362,0.921c8.635,33.882,25.08,65.444,51.198,89.746
			c14.414,13.412,30.801,24.226,48.368,32.731c0.691,0.67,1.569,1.109,2.491,1.146c28.296,13.268,59.513,20.676,90.48,23.261
			c56.179,4.691,108.625-11.504,148.119-52.533c28.052-29.143,46.068-67.456,52.855-107.18c2.345-13.721,3.418-27.657,3.268-41.576
			C458.09,254.958,441.009,194.724,405.386,151.97z M386.076,153.427c12.845,12.878,23.132,28.464,31.294,45.249
			c-1.33,3.156-2.893,6.194-4.195,8.956c-0.053,0.112-0.113,0.217-0.166,0.329c-3.97-1.891-8.991-2.746-12.567-3.755
			c-7.249-2.046-14.603-5.292-22.157-5.679c-1.561-0.08-1.827,2.277-0.363,2.686c5.099,1.424,9.822,5.169,14.827,7.089
			c4.753,1.823,11.78,2.639,15.948,5.553c0.31,0.217,0.58,0.465,0.843,0.718c-2.486,4.392-5.228,8.608-8.252,12.737
			c-1.192,1.628-2.411,3.221-3.66,4.782c-6.514-7.598-22.14-9.888-30.447-12.198c-1.475-0.41-2.258,1.613-1.018,2.414
			c7.21,4.659,21.445,8.046,26.247,15.876c-2.178,2.411-4.426,4.763-6.808,7.028c-5.173,4.918-11.266,8.607-16.386,13.525
			c-1.936,1.86,0.614,5.339,2.921,3.786c8.17-5.499,15.486-10.999,22.072-17.385c0.314,7.726-2.662,15.561-0.315,23.327
			c0.713,2.361,4.063,2.352,4.783,0c1.986-6.494,1.573-14.142,1.917-20.903c0.149-2.925,0.439-6.138-0.045-9.135
			c2.873-3.329,5.597-6.913,8.174-10.86c1.175-1.799,2.385-3.726,3.58-5.736c0.277,4.867-1.094,10.498-1.639,14.16
			c-0.952,6.393-2.279,12.224-1.752,18.724c0.245,3.015,5.264,4.267,5.736,0.776c1.162-8.592,2.936-17.092,3.875-25.712
			c0.59-5.414,2.699-13.454-0.818-18.247c0.971-2.173,1.851-4.389,2.573-6.629c6.352,14.174,11.275,29.046,14.973,43.776
			c-0.01,0.045-0.03,0.083-0.039,0.129c-0.303,1.615-9.145,5.857-10.655,7.046c-4.234,3.335-8.033,7.176-11.795,11.025
			c-3.554,3.637-7.162,7.381-9.93,11.673c-3.334,5.17-4.533,3.495-10.382,1.97c-21.711-5.658-43.976-3.593-64.934,3.699
			c6.338-14.425,14.114-28.19,18.671-43.39c2.718-9.067,5.356-18.303,7.117-27.608c1.24-6.553-0.569-15.285,4.83-19.495
			c5.17-4.031,10.217-6.471,14.692-11.7c4.465-5.217,8.706-11.163,11.144-17.614C385.3,160.893,386.044,157.162,386.076,153.427z
			 M228.145,17.056c12.234-4.419,28.159-6.615,37.771,4.068c10.519,11.692,9.246,28.253,9.16,42.812
			c-0.001,0.122,0.026,0.224,0.031,0.342c-3.98-0.362-8.058-0.377-12.15-0.188c-0.793-7.401-2.49-14.916-3.808-22.188
			c-1.341-7.401-13.306-4.343-11.424,3.149c1.01,6.601,1.787,13.516,3.225,20.102c-3.273,0.4-6.508,0.856-9.655,1.319
			c-0.088-7.278-1.684-14.853-3.937-21.661c-2.375-7.179-12.494-3.66-10.797,2.998h-0.08c2.225,6.82,2.952,13.274,3.193,20.35
			c-3.387,0.49-6.826,1.007-10.319,1.622c-0.791-7.14-1.548-14.283-2.296-21.428c-0.807-7.713-13.067-7.592-12.051,0
			c0.835,7.98,1.665,15.96,2.44,23.946c-4.515,1.134-8.965,2.483-13.207,4.191C190.824,50.748,202.148,26.448,228.145,17.056z
			 M191.803,92.659c10.937-6.037,23.993-8.696,36.168-10.937c13.659-2.515,74.514-15.042,69.45,14.007
			c-17.836-2.642-35.82-2.932-52.858-0.81c-22.799,2.84-46.29,9.183-68.626,18.597C178.134,104.467,182.581,97.75,191.803,92.659z
			 M130.985,155.166c5.503-3.956,11.215-7.648,17.067-11.107c3.915,2.113,8.608,4.533,13.346,6.938
			c-2.045,3.892-2.919,9.668-3.928,13.204c-1.574,5.515-4.625,12.898-3.763,18.558c0.179,1.175,1.703,1.033,2.253,0.294
			c2.799-3.759,3.946-7.439,5.242-11.899c1.279-4.402,2.676-12.293,5.489-15.91c0.29-0.372,0.649-0.716,1.052-1.042
			c5.59,2.812,10.757,5.392,14.233,7.187c-0.281,0.248-0.564,0.496-0.774,0.788c-2.142,2.979-0.967,9.22-1.431,12.701
			c-0.995,7.465-1.454,15.034-0.883,22.561c0.138,1.823,2.555,1.749,2.781,0c0.922-7.131,2.23-14.388,3.625-21.443
			c0.707-3.577,0.394-8.539,2.993-10.446c0.111-0.081,0.244-0.159,0.37-0.238c6.355,4.304,12.12,9.397,17.474,14.897
			c-1.07,4.075-0.749,9.917-1.464,13.388c-1.495,7.257-3.069,14.389-2.852,21.842c0.019,0.669,0.86,0.702,1.093,0.148
			c3.906-9.299,7.137-19.177,8.967-29.124c5.605,6.673,10.411,13.985,16.365,20.29c2.189,2.318,5.821-0.638,4.332-3.342
			c-4.232-7.682-9.141-14.987-14.729-21.714c0.634,0.059,1.211,0.11,1.654,0.112c4.202,0.018,8.29,0.348,12.452,0.974
			c2.708,0.408,4.86-3.264,2.018-4.787c-5.387-2.887-10.915-2.497-16.875-2.576c-1.459-0.019-3.253-0.224-4.969-0.133
			c-4.452-4.651-9.267-8.957-14.494-12.795c2.065-0.425,4-0.767,5.313-1.044c3.947-0.832,7.718-0.548,10.756-3.411
			c1.66-1.564-0.112-3.932-2.075-3.564c-2.482,0.466-5.115-0.153-7.632,0.195c-3.47,0.48-7.16,1.715-10.487,2.803
			c-0.674,0.22-1.5,0.416-2.392,0.603c-4.757-2.966-9.697-5.352-14.718-7.571c1.683-0.489,3.281-0.923,4.538-1.366
			c6.279-2.208,12.368-4.145,18.807-5.83c2.162-0.566,2.429-4.261,0-4.648c-7.342-1.169-13.677,1.877-20.509,4.306
			c-3.079,1.095-8.513,1.806-12.505,3.397c-1.197-0.509-2.395-1.023-3.593-1.547c-2.985-1.305-5.929-2.813-8.894-4.276
			c14.837-8.206,30.456-14.932,46.033-20.236c2.076,4.559,5.71,8.698,9.138,12.028c4.662,4.528,14.971,8.159,16.966,13.927
			c2.452,7.089,2.782,12.581,7.758,18.766c4.853,6.03,11.064,10.266,18.273,12.96c3.773,1.41,8.42,3.369,12.447,3.716
			c1.106,0.095,2.437,0.09,3.534,0.313c-0.106,0.26-0.224,0.55-0.371,0.911c-3.583,8.801-4.537,17.117-4.743,26.596
			c-0.379,17.402,3.247,33.649,8.145,50.029c-7.122-3.849-13.839-8.579-21.67-11.288c-9.943-3.439-20.726-5.319-31.258-4.271
			c-2.594,0.258-5.076,1.004-7.552,1.781c-1.633,0.512-3.866,2.105-5.52,2.219c-3.968,0.272-5.641-5.579-7.444-8.128
			c-5.51-7.788-12.17-14.974-20.446-19.867c-7.931-4.688-17.575-7.657-26.831-6.973c0.593-0.044-7.386,2.022-8.142,3.397
			c-0.896-2.65-1.802-12.164-2.188-13.39c-4.032-12.794-13.241-27.06-26.139-32.211
			C119.516,165.215,125.107,159.987,130.985,155.166z M68.828,266.551c10.052,9.662,27.3,13.991,41.611,16.279
			c-9.04,5.858-17.357,14.264-24.712,20.924c-6.412,5.806-13.465,12.15-18.535,19.487C65.421,304.382,65.881,285.226,68.828,266.551
			z M166.587,474.46c-5.681-2.782-11.218-5.796-16.574-9.051c-6.953-4.225-13.446-8.901-19.525-13.945
			c14.345,2.534,28.578,2.317,43.245,0.834c3.616-0.366,3.653-6.071,0-5.701c-13.429,1.359-27.412,2.498-40.918,0.973
			c3.739-4.706,7.872-9.224,11.553-13.652c1.503-1.808,3.04-3.568,4.577-5.329c4.712,2.125,14.444,1.484,18.393,1.977
			c9.314,1.161,18.61,2.924,27.644-0.327c3.57-1.285,2.144-6.894-1.59-5.766c-8.493,2.566-17.024,1.108-25.661,0.083
			c-3.846-0.456-7.66-0.84-11.524-1.122c-0.789-0.098-1.577-0.196-2.366-0.294c5.269-5.726,10.741-11.238,16.558-16.509
			c1.337-1.212,2.718-2.373,4.087-3.549c0.291,0.067,0.574,0.137,0.841,0.219c5.364,1.629,10.609,4.262,15.733,6.498
			c6.011,2.623,11.167,2.427,17.313,3.978c2.101,0.53,3.225-1.886,1.984-3.409c-2.499-3.068-5.467-2.896-9.139-3.74
			c-6.98-1.603-13.958-5.425-20.73-7.908c-0.171-0.063-0.37-0.127-0.555-0.19c4.378-3.55,8.871-6.969,13.398-10.348
			c3.253,2.335,7.281,3.94,10.655,5.534c5.488,2.592,10.995,5.466,17.201,4.866c2.074-0.201,3.421-3.191,1.17-4.319
			c-7.13-3.572-17.046-5.157-23.678-10.053c9.056-6.682,18.159-13.308,26.764-20.509c1.242-1.04-0.346-2.928-1.685-2.184
			c-9.696,5.387-19.245,11.218-28.508,17.479c1.104-7.932,0.87-16.021,0.98-24.044c0.051-3.709-5.525-3.66-5.729,0
			c-0.452,8.087-5.841,20.611-1.635,28.466c-5.481,3.889-10.855,7.923-16.061,12.141c-0.575-0.411-1.041-0.895-1.427-1.427
			c0.396-5.489,1.057-12.955,1.096-13.787c0.289-6.142,0.515-11.844-0.913-17.853c-0.756-3.18-5.686-2.471-5.665,0.767
			c0.052,7.848-0.884,15.562-1.047,23.387c-0.087,4.18-0.797,10.152,2.309,13.595c-1.932,1.65-3.858,3.306-5.739,5.005
			c-4.183,3.78-8.137,7.821-11.931,12.013c-0.46-2.302-0.598-5.021-0.628-7.646c0.067-1.26,0.107-2.364,0.071-3.169
			c-0.019-0.406-0.045-0.812-0.065-1.218c0.007-1.245,0.006-2.372-0.038-3.296c-0.339-7.05,0.173-14.06-1.298-20.999
			c-0.594-2.801-5.256-2.221-5.045,0.683c0.326,4.479,0.715,8.952,1.127,13.423c0.096,6.409-0.139,12.88,0.581,19.191
			c0.258,2.261,0.198,5.408,0.723,8.232c-3.208,3.774-6.303,7.642-9.314,11.549c-2.289,2.97-5.334,6.368-7.895,10.009
			c-4.252-16.44-3-35.613-1.498-51.843c0.247-2.667-4.157-3.265-4.689-0.635c-2.371,11.711-2.236,24.042-1.085,35.898
			c0.496,5.107,0.807,11.508,2.342,17.174c-12.415-11.701-22.806-25.114-31.111-39.847c4.232-2.855,7.755-7.574,10.358-11.169
			c3.068-4.237,5.39-8.768,6.863-13.799c1.113-3.801,0.795-7.792,1.183-11.604c2.539,0.574,4.999,1.055,7.839,0.482
			c4.599-0.928,9-3.635,12.665-6.398c8.268-6.232,15.466-14.034,21.246-22.609c21.136,5.379,42.558,3.109,63.773-1.183
			c19.082-3.861,37.82-9.008,55.802-16.329c-7.593,12.964-12.814,27.942-15.301,42.205c-1.829,10.49-3.64,21.816-3.591,32.462
			c0.017,3.8,1.859,8.788,0.917,12.424c-1.169,4.513-5.241,5.004-9.13,6.845c-7.78,3.683-14.52,9.214-20.296,15.568
			c-2.633,2.897-5.109,6.033-6.976,9.482c-2.588,4.784-2.458,8.954-8.072,11.189c-9.474,3.772-19.068,5.532-28.262,10.451
			C174.667,465.999,170.566,469.932,166.587,474.46z M423.48,404.397c-0.722-8.431-1.434-16.802-1.759-25.316
			c-0.124-3.253-4.906-3.251-5.052,0c-0.365,8.123-0.956,16.28-0.27,24.404c0.161,1.91,0.801,4.346,1.215,6.734
			c-3.808-5.938-8.982-11.32-13.187-15.901c-0.176-0.192-0.365-0.362-0.542-0.551c0.045-6.801,0.207-13.644-0.426-20.413
			c-0.37-3.959-5.794-3.967-6.165,0c-0.426,4.559-0.434,9.124-0.415,13.696c-8.821-7.655-18.652-13.748-28.085-20.802
			c-0.612-0.458-1.263,0.501-0.786,1.019c5.048,5.485,10.57,10.497,15.992,15.604c2.809,2.646,5.621,5.298,8.299,8.078
			c10.758,11.171-14.788,15.195-21.32,19.56c-1.364,0.911-0.551,3.266,1.161,2.753c5.256-1.574,10.793-2.107,15.984-3.835
			c3.97-1.322,10.495-2.356,13.556-5.35c0.327-0.32,0.6-0.654,0.838-0.999c3.887,5.443,7.148,11.049,10.54,16.781
			c-6.151,2.83-13.431,5.139-19.717,6.999c-4.23,1.252-9.219,0.786-12.635,3.736c-0.91,0.786,0.055,2.38,1.173,2.014
			c2.222-0.728,5.393,0.264,7.722,0.16c3.925-0.176,8.102-1.334,11.824-2.523c3.03-0.969,5.952-2.243,8.939-3.317
			c-7.916,11.539-17.139,22.051-27.439,31.25c-0.005-4.956-1.064-9.915-2.916-13.912c-2.15-4.638-5.124-8.064-9.751-10.229
			c-2.863-1.339-6.543-1.493-9.241-3.04c-4.599-2.638-2.783-5.064-1.957-10.043c2.597-15.665,0.672-34.433-5.054-49.251
			c-2.564-6.635-5.241-13.385-8.194-19.85c-1.862-4.075-5.001-8.329-7.725-12.637c1.557,1.03,3.159,1.994,4.895,2.744
			c4.442,1.919,9.124,3.512,13.869,4.485c11.122,2.282,22.629,1.499,33.762-0.25c13.935-2.19,16.165,6.531,24.29,15.583
			c5.765,6.423,12.095,11.717,19.08,16.334C431.142,387.103,427.649,395.89,423.48,404.397z M436.383,369.872
			c-6.907-5.044-13.444-10.311-19.287-17.114c-4.137-4.817-6.348-14.917-13.555-15.902c-4.162-0.569-9.155,1.349-13.182,2.027
			c-7.453,1.256-14.973,2.173-22.548,1.79c-6.519-0.33-12.811-1.642-18.923-3.914c-6.714-2.495-11.182-7.345-17.371-10.237
			c-2.946-1.376-5.915,0.875-5.315,4.086c1.09,5.836,5.924,11.723,8.738,16.851c2.907,5.297,5.194,10.645,7.499,16.232
			c7.126,17.27,11.957,35.04,9.467,53.989c-1.286,9.787-4.565,16.079,6.159,20.188c7.713,2.955,13.435,2.999,16.712,11.964
			c1.372,3.753,1.997,9.091,1.47,14c-23.123,18.567-51.003,30.76-81.358,33.641c-40.042,3.8-82.934-2.819-120.338-19.312
			c4.154-4.146,8.582-7.663,14.734-10.516c5.539-2.568,11.098-4.89,17.022-6.397c3.414-0.868,7.469-0.988,10.556-2.832
			c2.596-1.55,3.299-3.13,4.456-5.867c2.466-5.832,3.983-10.289,8.393-15.172c7.052-7.809,14.788-12.658,24.388-16.615
			c4.761-1.963,7.153-3.946,7.417-9.299c0.473-9.587-0.775-18.83,0.179-28.537c2.297-23.371,8.248-48.113,23.2-66.96
			c2.734-3.446-0.572-8.139-4.735-6.137c-20.068,9.656-41.397,15.9-63.136,20.508c-21.841,4.63-44.116,7.793-65.878,1.087
			c-1.714-0.528-3.469,0.372-4.403,1.792c-4.548,6.911-9.922,12.885-16.022,18.479c-7.336,6.728-12.666,9.471-22.736,8.086
			c-2.073-0.285-4.234,0.47-4.821,2.737c-1.766,6.821-0.291,13.526-3.07,20.435c-1.827,4.542-5.87,12.894-10.894,17.251
			c-8.98-17.072-15.338-35.734-18.998-55.371c-0.626-3.357-1.171-6.737-1.655-10.129c6.449-8.07,12.046-16.429,19.893-23.655
			c9.818-9.041,21.799-22.202,34.516-26.769c3.851-1.383,3.035-6.526-0.939-6.935c-16.472-1.7-39.074-5.267-51.978-17.749
			c6.031-31.329,19.243-60.998,40.881-85.225c7.965,3.909,12.878,11.279,17.357,19.402c3.636,6.594,5.963,12.495,6.931,20.041
			c0.291,2.271,0.051,5.08,1.363,7.05c2.799,4.202,6.699,1.602,10.478,0.497c12.682-3.709,26.81,3.525,35.846,12.185
			c3.929,3.766,7.368,8.122,10.321,12.679c1.812,2.796,3.272,7.781,6.165,9.661c5.145,3.344,10.524-2.525,15.492-3.782
			c11.124-2.813,24.02,0.092,34.506,3.989c9.688,3.599,17.647,10.286,27.098,14.008c2.659,1.047,5.403-2.063,4.595-4.595
			c-6.095-19.07-10.922-37.509-10.359-57.704c0.163-5.85,0.423-11.784,2.235-17.398c0.968-2.999,3.213-6.16,3.701-9.246
			c0.572-3.617-0.979-5.295-4.321-6.43c-7.395-2.51-15.019-2.407-22.283-6.362c-9.213-5.016-13.667-13.212-15.845-23.057
			c-1.228-5.548-3.215-8.184-8.169-10.812c-6.912-3.665-14.403-9.385-18.608-16.56c53.147-16.501,114.581-11.281,161.246,20.893
			c4.31,2.971,8.384,6.23,12.258,9.713c1.438,9.606-4.78,19.472-10.531,26.546c-4.827,5.938-10.221,9.648-16.619,13.501
			c-3.682,2.217-5.45,4.226-6.082,8.397c-0.531,3.506,0.289,7.311-0.223,10.952c-0.576,4.097-1.648,8.165-2.668,12.169
			c-2.051,8.047-4.188,16.194-6.859,24.058c-5.163,15.198-14.999,29.131-19.055,44.634c-0.541,2.066,1.534,4.787,3.832,3.832
			c14.163-5.89,29.083-8.704,44.436-8.486c8.114,0.116,15.501,1.539,23.271,3.708c3.658,1.021,8.824,3.648,12.555,2.448
			c3.942-1.268,5.175-5.422,7.409-8.568c3.841-5.413,8.935-10.195,13.716-14.772c4.117-3.942,8.683-6.595,13.141-9.839
			c0.956,4.315,1.815,8.604,2.574,12.842C445.741,303.015,445.073,337.547,436.383,369.872z"/>
	</g>
</g>
<g>
</g>
<g>
</g>
<g>
</g>
<g>
</g>
<g>
</g>
<g>
</g>
<g>
</g>
<g>
</g>
<g>
</g>
<g>
</g>
<g>
</g>
<g>
</g>
<g>
</g>
<g>
</g>
<g>
</g>
</svg>
