<?xml version="1.0" encoding="iso-8859-1"?>
<!-- Generator: Adobe Illustrator 16.0.0, SVG Export Plug-In . SVG Version: 6.00 Build 0)  -->
<!DOCTYPE svg PUBLIC "-//W3C//DTD SVG 1.1//EN" "http://www.w3.org/Graphics/SVG/1.1/DTD/svg11.dtd">
<svg version="1.1" id="Capa_1" xmlns="http://www.w3.org/2000/svg" xmlns:xlink="http://www.w3.org/1999/xlink" x="0px" y="0px"
	 width="190.558px" height="190.557px" viewBox="0 0 190.558 190.557" style="enable-background:new 0 0 190.558 190.557;"
	 xml:space="preserve">
<g>
	<path d="M179.811,96.2c-5.65-21.444-11.169-42.909-16.035-64.545c-0.121-0.539-0.359-0.97-0.655-1.333
		c1.477-3.76-2.018-9.468-6.55-7.606c-39.092,16.062-86.39,9.404-125.919-1.837c-2.639-0.75-4.575,0.459-5.507,2.265
		c-1.353-0.399-2.83,0.038-3.082,1.833c-3.291,23.453-8.63,46.698-13.89,69.773c-3.553,15.586-12.169,40.561-6.018,56.225
		c0.438,1.115,1.229,1.913,2.142,2.435c0.244,1.023,0.897,1.955,2.092,2.553c24.012,12.003,53.309,17.998,79.618,10.892
		c5.787-1.563,4.913-9.003,0.564-10.85c3.821-4.455,5.596-11.858,6.9-16.582c2.041-7.387,3.183-14.994,4.417-22.58
		c2.077,5.405,3.962,10.888,5.763,16.406c2.82,8.64,4.051,19.787,9.178,27.383c-2.102,2.652-0.857,7.326,3.622,7.788
		c22.685,2.339,48.028,0.358,66.244-14.615c0.593-0.487,1.005-1.012,1.316-1.549c2.684,0.703,6.124-1.699,6.384-4.73
		C191.785,131.215,183.933,111.843,179.811,96.2z M156.876,34.359c0.292,4.942,0.791,9.859,1.441,14.756
		c-0.885-0.645-2.067-0.881-3.48-0.474c-0.818-2-1.631-4.003-2.423-6.016c-0.703-1.787-1.158-3.976-1.934-5.914
		C152.644,35.99,154.78,35.216,156.876,34.359z M144.588,38.486c0.58,1.838,1.586,3.618,2.393,5.327
		c1.021,2.166,2.208,4.246,3.413,6.315c-1.88,0.619-3.761,1.211-5.646,1.762c0.121-2.287,0.156-4.572-0.056-6.866
		c-0.171-1.851-0.381-4.373-1.393-6.155C143.734,38.753,144.155,38.606,144.588,38.486z M133.545,53.291l0.382-6.394
		c0.124-2.074,0.425-4.008-0.346-5.773c1-0.191,1.985-0.424,2.979-0.636c0.056,1.8,1.048,3.622,1.504,5.433
		c0.617,2.45,0.908,4.976,1.132,7.496c-2.07,0.533-4.144,1.041-6.221,1.504C133.273,54.477,133.505,53.961,133.545,53.291z
		 M100.167,58.996c2.714-4.318,3.226-9.545,3.659-14.521c0.017-0.192-0.024-0.385-0.056-0.578c7.83-0.03,15.595-0.581,23.194-1.669
		c-0.25,1.243-0.121,2.562-0.034,4.014c0.141,2.349,0.281,4.699,0.422,7.048c0.074,1.256,0.717,2.07,1.534,2.535
		c-3.189,0.637-6.386,1.205-9.591,1.678c-0.059-0.829-0.151-1.653-0.168-2.489c-0.058-3.043,0.893-6.367-0.218-9.24
		c-0.855-2.215-3.652-2.218-4.506,0c-1.156,3.001-0.158,6.715,0.33,9.835c0.129,0.828,0.297,1.642,0.492,2.446
		c-5.147,0.651-10.309,1.123-15.483,1.395C99.896,59.316,100.048,59.185,100.167,58.996z M89.348,50.418
		c0.174-2.304,0.564-4.652,0.325-6.935c2.567,0.175,5.136,0.282,7.703,0.359c-0.041,0.211-0.081,0.423-0.063,0.634
		c0.336,4.311,0.162,8.68-1.159,12.828c-0.332,1.041,0.13,1.852,0.851,2.307c-2.786,0.112-5.575,0.174-8.366,0.186
		C88.875,56.671,89.111,53.544,89.348,50.418z M78.077,49.047c0.07-2.245,0.298-4.48,0.1-6.652c1.928,0.237,3.862,0.44,5.797,0.625
		c-0.351,2.428,0.05,4.936,0.236,7.397c0.236,3.119,0.472,6.238,0.708,9.356c-2.441-0.026-4.882-0.054-7.325-0.15
		C77.767,56.099,77.967,52.574,78.077,49.047z M65.715,40.676c-0.046-0.083-0.135-0.113-0.19-0.186
		c2.325,0.419,4.667,0.791,7.016,1.14c-0.248,1.877-0.138,3.781-0.085,5.826c0.103,3.984,0.317,7.964,0.512,11.945
		c-2.929-0.166-5.858-0.364-8.788-0.621c0.85-2.218,1.355-4.521,1.713-6.919C66.419,48.335,67.509,43.898,65.715,40.676z
		 M40.841,34.685c2.922,0.856,5.904,1.646,8.911,2.401c-0.222,2.428,0.067,4.946,0.131,7.364c0.099,3.714,0.348,7.428,0.533,11.138
		c0.122,2.431,3.65,2.431,3.772,0c0.186-3.712,0.403-7.424,0.533-11.138c0.07-1.996,0.248-4.069,0.189-6.106
		c2.543,0.58,5.116,1.106,7.701,1.606c-0.29,0.179-0.558,0.403-0.738,0.725c-1.578,2.827-0.753,6.102-0.72,9.25
		c0.03,2.881-0.231,5.715-1.067,8.451c-8.579-0.868-17.158-2.075-25.714-3.576c1.376-3.405,2.772-6.803,4.09-10.23
		C39.695,41.365,41.623,38.122,40.841,34.685z M27.791,30.449c0.069,0.028,0.125,0.067,0.197,0.092
		c2.841,1.016,5.761,1.974,8.719,2.9c-2.296,2.132-2.733,4.91-3.626,8.03c-1.185,4.141-2.272,8.308-3.379,12.471
		c-0.854-0.16-1.71-0.306-2.564-0.47C27.942,45.875,28.263,38.224,27.791,30.449z M174.734,145.841
		c-15.613,12.177-35.221,11.631-53.971,12.711c0.388-9.145-4.442-19.444-7.133-28.056c-3.622-11.592-7.935-22.911-13.108-33.897
		c-2.017-4.28-8.482-2.845-9.63,1.26c-5.023,17.96-3.253,41.425-13.609,57.34c-0.4,0.615-0.526,1.229-0.46,1.801
		c-22.336,3.633-44.03-2.709-65.623-8.778c1.481-7.052,1.047-14.654,2.054-21.792c1.602-11.35,4.322-22.551,6.765-33.739
		c2.481-11.362,4.925-22.584,6.449-33.888c41.443,13.509,89.754,15.966,130.52-0.95c1.054-0.437,1.82-1.125,2.337-1.931
		c2.067,12.865,5.053,25.595,8.136,38.249c3.919,16.087,6.205,34.656,11.951,50.473
		C177.881,144.385,176.226,144.678,174.734,145.841z"/>
</g>
<g>
</g>
<g>
</g>
<g>
</g>
<g>
</g>
<g>
</g>
<g>
</g>
<g>
</g>
<g>
</g>
<g>
</g>
<g>
</g>
<g>
</g>
<g>
</g>
<g>
</g>
<g>
</g>
<g>
</g>
</svg>
