<?xml version="1.0" encoding="iso-8859-1"?>
<!-- Generator: Adobe Illustrator 16.0.0, SVG Export Plug-In . SVG Version: 6.00 Build 0)  -->
<!DOCTYPE svg PUBLIC "-//W3C//DTD SVG 1.1//EN" "http://www.w3.org/Graphics/SVG/1.1/DTD/svg11.dtd">
<svg version="1.1" id="Capa_1" xmlns="http://www.w3.org/2000/svg" xmlns:xlink="http://www.w3.org/1999/xlink" x="0px" y="0px"
	 width="192.136px" height="192.135px" viewBox="0 0 192.136 192.135" style="enable-background:new 0 0 192.136 192.135;"
	 xml:space="preserve">
<g>
	<path d="M186.275,49.101c-11.813-23.403-41.68-18.741-63.458-17.56c-25.154,1.363-50.355-0.359-75.504,1.5
		C33.477,34.063,2.287,36.312,4.015,56.782c0.096,1.135,0.515,2.024,1.105,2.691c-6.99,9.432-4.824,25.774-4.732,36.407
		c0.162,18.724,2.122,37.384,2.317,56.101c0.025,2.365,1.669,4.867,4.094,5.377c27.942,5.859,55.622-1.541,83.7-2.081
		c29.409-0.565,59.151,6.233,88.709,6.491c2.358,0.021,4.71-1.672,5.264-4.008c4.792-20.233,7.011-40.797,7.451-61.57
		C192.233,81.545,193.115,62.652,186.275,49.101z M180.93,101.272c-0.382,16.645-2.484,33.23-6.067,49.479
		c-26.34-0.54-52.468-3.763-78.708-5.963c-27.649-2.319-54.831,7.011-82.393,2.53c-0.816-28.6-6.789-58.484-3.571-86.847
		c1.249-0.594,2.231-1.811,2.357-3.69c0.94-13.91,38.765-13.089,47.722-13.427c18.891-0.713,37.844,0.72,56.714-0.361
		c18.121-1.038,51.797-8.92,60.481,12.914C182.811,69.345,181.255,87.115,180.93,101.272z"/>
	<path d="M92.543,62.708c-0.331-2.434-4.129-1.744-4.164,0.563c-0.352,23.312-7.419,45.856-5.944,69.237
		c0.302,4.78,7.751,4.821,7.473,0C88.558,109.098,95.718,86.083,92.543,62.708z"/>
	<path d="M164.813,58.142c-0.395-1.289-1.542-2.223-2.915-2.219c-3.563,0.01-7.878-0.626-11.262,0.51
		c-1.271-0.027-2.058,1.118-2.087,2.355c-0.005,0.054-0.015,0.104-0.017,0.158c0.002,0.054,0.012,0.105,0.017,0.158
		c0.028,1.237,0.815,2.382,2.087,2.355c2.674,0.897,5.918,0.698,8.928,0.57c1.491,6.404,1.475,13.257,1.465,19.854
		c-3.88,0.005-7.761,0.018-11.641,0.078c-0.791-6.748-2.423-13.725-0.872-20.366c0.537-2.306-2.787-3.204-3.526-0.972
		c-2.591,7.824-0.904,16.227-1.154,24.286c-0.05,1.62,1.366,2.878,2.917,2.917c5.766,0.146,11.542,0.082,17.31,0.113
		c1.657,0.009,3.021-1.385,3.029-3.03C167.136,76.091,167.416,66.664,164.813,58.142z"/>
	<path d="M164.062,102.182c-19.854-2.539-40.552-1.881-60.581-3.56c-1.6-0.134-1.978,2.593-0.38,2.812
		c19.553,2.668,41.257,7.363,60.962,5.146C166.91,106.26,166.87,102.541,164.062,102.182z"/>
	<path d="M159.735,113.08c-16.43-1.205-33.312,0.356-49.764,0.849c-1.64,0.049-1.64,2.494,0,2.543
		c16.452,0.492,33.334,2.053,49.764,0.849C162.465,117.119,162.465,113.28,159.735,113.08z"/>
	<path d="M164.062,127.695c-17.88-1.532-36.127-1.88-54.092-3.082c-1.572-0.104-1.932,2.473-0.373,2.759
		c17.382,3.186,36.825,6.859,54.465,5.623C167.491,132.754,167.457,127.986,164.062,127.695z"/>
</g>
<g>
</g>
<g>
</g>
<g>
</g>
<g>
</g>
<g>
</g>
<g>
</g>
<g>
</g>
<g>
</g>
<g>
</g>
<g>
</g>
<g>
</g>
<g>
</g>
<g>
</g>
<g>
</g>
<g>
</g>
</svg>
