<svg id="Capa_1" enable-background="new 0 0 511.992 511.992" height="512" viewBox="0 0 511.992 511.992" width="512" xmlns="http://www.w3.org/2000/svg"><g><g><path d="m196.535 271.219c8.992-.462 13.483-9.27 17.988-19.962.413 10.413 1.164 15.154 7.016 18.923-3.775 35.937-3.312 72.137-9.739 107.738-.333 1.846-.848 3.656-1.517 5.408-2.332 6.108-4.829 12.684-1.139 19.612 2.672 4.659 7.745 6.789 12.811 6.789 3.059-.049 6.308-.545 8.686-2.351 20.025-15.214 18.304-40.602 17.512-64.072-.537-15.935-1.093-32.412 4.893-45.574 1.66-5.305 5.193-8.93 8.795-8.291 3.116.324 6.216 4.501 6.175 10.925 5.107 33.87-7.988 74.309 14.511 103.016 10.328 13.178 29.569 1.651 25.651-14.241-15.323-39.137-10.691-82.142-14.413-123.289 3.508-2.514 5.506-5.054 6.135-10.169 3.105 6.834 5.985 10.972 10.385 11.177 22.64-3.339 3.813-62.096-.599-89.647-3.534-24.332-15.183-42.296-35.529-54.87 15.677-8.774 18.613-27.24 19.167-44.209 28.133-26.408 3.879-63.943-31.648-56.343-.622-1.415-.903-2.669-1.588-4.09-4.125-9.236-17.634-8.296-21.558.491-3.869-1.989-8.309-2.396-12.688-1.031-8.945 2.919-14.357 12.059-7.493 20.15-16.689 9.896-19.283 37.043-3.77 49.107-.921 6.563 1.161 14.494 9.541 25.17.01.013.02.026.031.039 4.349 5.38 10.333 9.608 17.027 12.225-.035.181-.059.366-.055.553-20.039 7.252-32.911 23.954-37.277 46.003-.911 4.477-2.811 11.304-5.012 19.209-9.411 34.22-22.024 80.378-2.299 81.604zm2.029-7.595c-1.054.598-2 .747-3.049.451-2.21-3.339-2.704-9.346-2.145-16.733 4.438 1.838 9.26 2.817 14.06 2.818-2.895 7.124-5.895 11.777-8.866 13.464zm27.851 138.153c-3.741 1.753-9.195 1.174-11.169-2.269-2.693-4.651 1.094-11.301 2.744-16.82.535-1.791.701-3.679 1.05-5.519l20.951-.445c-1.823 9.604-5.701 18.187-13.576 25.053zm71.039-.875c-2.967 1.589-6.774 1.261-9.331-1.743-5.173-6.078-7.176-13.82-8.9-21.379.053-.011 17.225-1.811 17.272-1.832 1.394 5.202 3.051 10.352 5.039 15.43.665 4.115-.916 7.831-4.08 9.524zm-8.843-97.92c.669 21.925 1.359 44.401 6.203 66.111l-16.878 1.785c-3.342-22.668.553-48.337-2.968-71.35-.538-19.768-21.565-24.098-28.374-4.522-10.078 22.402-3.364 50.728-5.622 74.696l-20.796.442c4.915-32.798 4.864-65.292 8.208-98.107 5.974.411 10.635-.244 18.323-.923 9.099-.873 20.416-1.959 35.375-2.258 1.698.059 3.327-.072 4.876-.35.941 11.397 1.307 23.116 1.653 34.476zm-25.461-40.29c-4.82.328-9.136.704-12.952 1.06l-3.719-121.585c5.314 6.023 15.011 5.773 20.51.026zm48.605-4.064c-.402.549-.821.898-1.325 1.09-.962-.77-3.384-3.643-6.778-14.128l10.37-2.847c.346 7.221-.195 13.061-2.267 15.885zm-9.01-80.49c2.779 16.371 8.641 37.338 10.714 57.516-.051.012-.102.012-.153.026l-11.654 3.2c-4.52-16.483-7.995-36.175-10.883-52.208-1.563-8.718-2.799-15.622-3.742-19.436-.407-1.645-1.891-2.859-3.582-2.765-2.275.126-3.76 2.252-3.237 4.347 2.366 10.705 5.778 31.272 8.458 44.745.883 4.437 1.51 8.914 1.877 13.423.679 8.347 1.456 18.527 2.106 25.074 1.652 6.742-3.798 10.003-10.396 9.798-4.257.063-8.321.234-12.085.418l4.187-131.431c16.088 11.273 25.415 26.819 28.39 47.293zm-91.107-119.069c1.566-8.43 6.951-15.063 14.404-17.743 7.48-4.809-4.289-6.967-3.759-12.047 1.96-5.869 9.87-8.948 16.436-2.148 2.373 2.769 6.959.365 6.035-3.159-1.265-4.847 5.875-8.679 9.014-3.256 1.184 3.056 2.818 9.029 7.794 8.302 16.645-4.384 29.201 3.282 34.26 12.825 5.943 11.211 1.423 22.104-5.487 29.413-1.329 1.406-3.485 1.709-5.143.712-5.17-3.112-5.47-12.763-4.398-18.546.78-3.844-4.496-5.848-6.461-2.449-1.632 2.829-3.839 3.879-6.74 3.212-4.618-1.061-8.964-6.112-9.299-10.809-.423-4.443-6.911-4.208-6.991.26.023 7.503-3.167 11.666-6.329 11.9-2.909.23-6.519-2.994-7.622-10.545-.279-1.908-2.037-3.236-3.958-2.959-1.91.273-3.238 2.04-2.971 3.95 2.195 15.201-7.727 21.889-13.488 33.081-4.721-5.162-6.698-12.452-5.297-19.994zm17.97 48.176c-19.353-24.134 1.139-28.773 6.854-48.122 6.613 6.322 16.178 3.289 19.499-4.445 4.116 4.906 11.191 8.211 17.334 5.987.313 8.406 4.137 17.621 12.945 19.085-.645 12.874-2.488 25.655-11.389 33.593-12.461 11.279-35.361 6.695-45.243-6.098zm23.406 19.41c4.328.393 8.837.061 12.934-1.008.294 17.619-18.088 19.528-17.855.265 1.623.339 3.266.596 4.921.743zm-47.436 64.838c6.174-24.625 10.191-48.173 33.609-58.778l4.028 131.701c-10.308.973-16.627 1.373-19.061-.932-3.042-1.479-2.863-16.04-2.243-30.742.214-5.085.859-10.14 1.861-15.13 3.113-15.493 5.298-31.597 6.727-44.15.219-1.92-1.161-3.655-3.081-3.874-1.928-.212-3.655 1.162-3.874 3.081-3.368 29.569-8.187 54.158-13.533 70.399-5.403.421-10.972-.593-15.825-3.048 2.219-15.57 7.555-34.743 11.392-48.527z"/><path d="m135.711 114.859 33.622 1.94c.956.056 1.904-.287 2.604-.949.7-.661 1.098-1.581 1.098-2.545v-37.502c0-1.835-1.418-3.359-3.248-3.491l-35.885-2.586c-2.048-.198-3.914 1.651-3.746 3.698 0 0 2.263 38.148 2.263 38.148.104 1.772 1.519 3.185 3.292 3.287zm30.323-35.799v30.537l-26.813-1.547-1.842-31.055z"/><path d="m179.734 159.971-15.311-.269v-14.982c0-1.835-1.418-3.359-3.248-3.491l-35.886-2.586c-2.049-.2-3.913 1.653-3.746 3.698l2.264 38.148c.105 1.772 1.521 3.184 3.293 3.287l13.608.785 1.203 19.856c.111 1.847 1.643 3.288 3.493 3.288h34.269c1.933 0 3.5-1.567 3.5-3.5v-40.734c0-1.909-1.531-3.466-3.439-3.5zm-50.967-14.059 28.655 2.065v30.537l-26.813-1.547zm47.406 54.793h-27.475l-.954-15.738 12.977.749c.956.056 1.904-.287 2.604-.949.7-.661 1.098-1.581 1.098-2.545v-15.518l11.75.206z"/><path d="m391.174 106.96-35.885 2.587c-1.83.132-3.248 1.655-3.248 3.491v14.983l-15.313.269c-1.908.034-3.439 1.59-3.439 3.499v40.734c0 1.933 1.567 3.5 3.5 3.5h34.269c1.851 0 3.382-1.441 3.493-3.288l1.204-19.856 13.608-.785c1.772-.102 3.188-1.515 3.293-3.287l2.263-38.148c.167-2.044-1.694-3.9-3.745-3.699zm-23.409 62.063h-27.475v-33.795l11.751-.206v15.518c0 .963.397 1.884 1.098 2.545.699.662 1.647 1.005 2.604.949l12.977-.749zm18.089-23.738-26.813 1.547v-30.537l28.654-2.065z"/><path d="m335.498 74.178c-.003.001 63.37-.116 63.37-.115 1.934-.003 3.498-1.573 3.494-3.506s-1.573-3.497-3.506-3.494l-63.365.115c-4.592.117-4.621 6.882.007 7z"/><path d="m334.202 87.089c.003.021 53.736-1.655 53.774-1.644 4.582-.253 4.432-7.006-.215-6.997 0 0-53.665 1.642-53.665 1.642-4.531.241-4.447 6.892.106 6.999z"/><path d="m73.522 288.787.326-55.534c.006-.953-.378-1.867-1.061-2.53-.683-.665-1.599-1.028-2.561-.988l-15.64.539-.338-29.095c-.011-.941-.401-1.839-1.081-2.489-.682-.651-1.632-1.01-2.535-.968l-29.4.98c-1.897.027-3.507 1.766-3.38 3.661l2.613 56.187c.085 1.918 1.717 3.408 3.621 3.335l11.14-.398 1.902 30.114c.081 1.911 1.905 3.475 3.803 3.266l29.4-2.613c1.799-.161 3.18-1.662 3.191-3.467zm-48.513-83.208 22.281-.743.572 49.193-20.566.735zm41.532 79.983-22.652 2.014-1.663-26.34 9.302-.332c1.898-.068 3.396-1.638 3.375-3.538l-.234-20.09 12.159-.419z"/><path d="m493.165 244.764c-.035-1.901-1.747-3.498-3.661-3.379l-56.186 2.613c-1.916.089-3.403 1.704-3.335 3.621l.397 11.14-30.113 1.902c-.941.06-1.819.497-2.435 1.213-.615.716-.914 1.65-.831 2.59l2.613 29.4c.16 1.798 1.661 3.179 3.466 3.19l55.533.327c.952.005 1.867-.377 2.53-1.061.664-.684 1.021-1.608.988-2.56l-.539-15.641 29.096-.338c.941-.011 1.838-.401 2.489-1.082.65-.68.999-1.594.968-2.535zm-38.155 45.595-48.706-.287-2.014-22.652 26.339-1.664.332 9.302c.067 1.885 1.616 3.375 3.497 3.375.041.013 20.089-.242 20.132-.234zm-17.174-18.964-.734-20.565 49.185-2.288.743 22.281z"/><path d="m102.57 308.083-53.899 1.986c-4.6.283-4.365 7.049.258 6.995 0 0 53.899-1.986 53.899-1.986 4.583-.282 4.385-7.029-.258-6.995z"/><path d="m102.57 319.843-53.899 1.986c-4.6.284-4.365 7.049.258 6.995 0 0 53.899-1.986 53.899-1.986 4.583-.283 4.386-7.025-.258-6.995z"/><path d="m102.57 331.603-53.899 1.986c-4.6.284-4.365 7.049.258 6.995 0 0 53.899-1.986 53.899-1.986 4.584-.276 4.383-7.05-.258-6.995z"/><path d="m102.57 343.363-53.899 1.986c-4.6.283-4.365 7.049.258 6.995 0 0 53.899-1.986 53.899-1.986 4.584-.277 4.383-7.045-.258-6.995z"/><path d="m385.461 477.036c-7.367-5.062-16.605-5.392-24.176-5.495 3.643-18.789-19.132-26.363-33.482-25.24-.405-.012-.811-.021-1.216-.033 2.721-9.757-2.41-20.265-11.082-25.313 7.7-19.734 125.956-323.025 128.46-342.427.735-5.704-2.547-12.894-9.492-20.793-40.346-41.807-110.766-57.503-173.85-57.735-78.214.943-152.471 25.122-198.168 68.07-5.863 6.3-8.684 11.65-8.38 15.9 1.226 17.171 109.918 293.924 127.029 337.405-12.531 3.872-20.809 15.735-14.678 28.166-9.765 1.194-21.659 8.371-18.772 19.359-9.775-.08-21.269.317-29.841 7.024-7.86 6.149-12.756 18.295-6.958 27.195 5.208 7.993 15.035 8.107 22.212 8.19 79.711 1.477 160.3.565 239.736-2.782 20.179 1.782 29.19-18.99 12.658-31.491zm-324.404-393.565c-.04-.562.085-3.717 6.522-10.63 42.181-39.424 112.408-64.729 193.043-65.842 90.954-1.386 172.016 40.024 176.399 70.634-1.935 14.989-84.291 228.674-127.904 340.432-3.268-1.014-6.72-1.207-10.166-1.196-35.927.118-71.914.674-107.766 2.883-1.051.065-2.095.072-3.129.173-50.805-129.053-126.111-324.021-126.999-336.454zm111.637 352.406c2.967-5.399 10.68-9.155 18.689-9.125 35.709-4.288 71.919-2.222 107.879-2.887 12.056-.223 24.788 9.895 20.067 22.204-5.315-.133-10.637-.235-15.963-.314 1.913-23.486-34.201-23.387-32.395-.15-4.587.026-9.175.075-13.763.141-1.441-22.422-30.985-21.822-30.572.74-2.787.094-5.574.195-8.359.303-1.054-19.963-31.908-18.371-30.985 1.521-4.382.259-8.76.533-13.132.828-2.962-4.652-3.761-9.277-1.466-13.261zm105.325 9.703c-2.094-13.94 20.399-14.02 18.355.085-6.114-.063-12.233-.093-18.355-.085zm-44.376.684c-.504-13.221 15.743-13.408 16.54-.406-5.514.105-11.028.244-16.54.406zm-39.355 1.649c-.743-10.558 16.676-11.471 16.984-.838-5.667.246-11.328.529-16.984.838zm-39.328 15.11c2.382-4.073 9.651-6.743 15.09-6.743 52.301-3.248 105.338-4.73 157.751-2.975 10.658-1.026 30.725 4.421 26.233 18.145l-198.863-2.462c-1.583-2.934-.891-4.803-.211-5.965zm231.575 32.297c-1.693 4.52-7.4 6.867-13.803 6.203-79.398 3.351-159.993 4.261-239.584 2.786-6.52-.076-13.263-.154-16.428-5.012-3.787-5.814 1.355-13.629 5.405-17.86 10.575-11.049 220.977-.338 238.053-2.911 6.743.083 15.127.188 21.111 4.133 4.901 3.8 6.861 8.527 5.246 12.661z"/></g></g></svg>