<svg id="Capa_1" enable-background="new 0 0 512.001 512.001" height="512" viewBox="0 0 512.001 512.001" width="512" xmlns="http://www.w3.org/2000/svg"><g><path d="m258.692 321.034c1.9.039 3.572-1.659 3.5-3.56 0 0-.894-52.66-.894-52.66.632-.047 1.233-.082 1.759-.085 9.141.713 16.629-7.2 15.025-16.264-.382-15.173-17.061-16.41-29.159-14.965-6.589.631-11.671 6.072-11.822 12.656-.071 2.612.181 5.405.102 7.889-.232 10.177 8.696 12.362 17.105 11.436l.821 48.398-29.162-1.223c.993-10.635-5.016-20.956-14.542-25.037l1.359-9.929c.682-4.491-6.375-5.456-6.937-.95l-1.23 8.985c-.913-.136-1.835-.245-2.76-.333l-.358-8.934c-.128-4.539-7.243-4.254-6.996.28l.336 8.367c-1.736.013-3.455.078-5.136.179l-1.671-8.727c-.793-4.474-7.797-3.129-6.876 1.318l1.533 8.004c-19.954.324-16.713 22.023-16.181 34.259.419 9.634 4.381 17.325 13.287 20.475l-.897 9.873c-.305 4.6 6.432 5.23 6.972.634 0 0 .776-8.54.776-8.54 2.354.47 4.779.764 7.196.88l-.48 8.574c-.321 4.527 6.797 4.937 6.99.392l.512-9.145c.675-.071 1.337-.164 1.993-.266l.726 8.885c.314 4.543 7.414 3.944 6.978-.571l-.814-9.962c-.005-.059-.024-.113-.031-.171 8.391-3.584 13.048-11.951 15.336-21.573.203.009 33.466 1.413 33.64 1.411zm-49.472 12.613c-7.364 5.314-35.321 4.226-35.854-12.1-.309-9.487-1.999-26.87 6.485-28.311 6.611-1.123 16.758-1.882 24.991-.382 8.092 1.474 14.058 8.615 14.186 16.98.153 9.901-3.693 19.231-9.808 23.813zm39.186-75.011c-2.156-.466-3.839-2.112-4.306-4.268-1.172-5.414-.324-13.157 5.492-13.899 3.633-.347 14.687-1.407 19.21 2.624 3.183 2.641 3.358 9.746.93 12.949-2.155 2.843-6.052 2.596-9.234 2.789-3.851.016-8.225.641-12.092-.195z"/><path d="m242.197 341.228c4.514-.101 4.665-6.705.143-6.999-3.016.294-11.296-2.197-11.374 3.028-.332 5.249 8.213 3.423 11.231 3.971z"/><path d="m252.763 333.686c-4.614.116-4.619 6.884 0 7.001h10.775c1.933 0 3.501-1.567 3.501-3.501s-1.568-3.501-3.501-3.501h-10.775z"/><path d="m283.787 333.932-11.588-.402c-4.621-.058-4.852 6.725-.244 6.998.244-.005 11.458.41 11.713.404 4.531-.104 4.658-6.736.119-7z"/><path d="m250.934 346.901h-11.183c-1.933 0-3.501 1.567-3.501 3.501s1.568 3.501 3.501 3.501h11.183c4.614-.116 4.619-6.884 0-7.002z"/><path d="m271.599 347.203-10.164.203c-1.933.039-3.47 1.637-3.43 3.57.036 1.934 1.643 3.47 3.569 3.43l10.166-.203c4.604-.202 4.487-6.989-.141-7z"/><path d="m380.566 193.399c-38.801-3.236-56.204 85.999-68.178 113.484-1.661-.312-3.473-.791-5.183-.477-1.486-1.709-3.088-3.324-4.824-4.819.877-27.53.041-50.228-3.427-60.667 13.472-8.872 14.866-30.789 2.961-41.588 8.518-4.97 14.249-16.14 15.834-28.131 2.094-15.842 29.8-154.727-15.358-133.914-5.836 2.998-10.563 8.117-13.312 14.414-12.784 29.499-20.429 95.947-17.235 128.116-13.279 6.111-20.546 21.936-17.45 36.02-1.527-.141-3.052-.283-4.591-.414l4.794-51.254c7.942-5.685 12.674-17.107 13.329-29.028.876-15.947 17.871-156.559-25.562-132.346-5.599 3.442-9.926 8.909-12.184 15.395-10.483 30.111-12.933 96.876-7.513 128.385.953 5.54 3.325 10.455 6.872 14.337-.385 5.305-.821 10.76-1.275 16.229-6.876-1.68-14.156 1.569-17.799 7.417-2.025-1.574-4.305-2.746-6.807-3.454-.012-1.041-.014-2.062-.011-3.076 7.274-6.326 11.661-17.879 10.799-29.577.605-15.959 6.465-157.444-35.099-130.142-5.334 3.839-9.252 9.606-11.034 16.238-8.27 30.792-5.87 97.559 1.821 128.592 1.635 6.534 5.153 12.036 10.295 15.819l-.011 2.989c-7.513.086-14.81 6.713-15.7 14.188-1.916-.402-3.868-.447-5.772-.147 3.665-6.557 4.934-14.968 4.405-23.417-.998-15.956-.579-157.567-40.878-128.444-5.159 4.074-8.816 10.01-10.297 16.715-6.886 31.13-1.505 97.723 7.565 128.382 2.006 6.73 6.015 12.255 11.69 15.796-15.284 2.902-27.715 23.73-13.846 35.694-4.423 7.188-7.162 15.616-8.034 25.01-2.641 43.496 6.94 85.846 9.758 128.887 1.323 13.143 3.436 26.727 13.226 35.252 3.56 3.089 9.458 5.438 16.733 7.177-2.352 10.694 4.955 17.471 14.972 20.404l.529 36.518c-1.188 10.336 6.322 18.622 16.736 17.584 15.304-.31 24.295.325 36.46.451 21.912.138 20.642-8.647 20.969-33.839.021-5.569.045-11.881.222-19.423 11.869-3.074 21.169-12.315 18.954-24.853 7.806-2.318 13.802-5.538 17.66-8.864 6.431-5.545 11.965-18.074 15.759-33.448 6.792-3.856 12.593-9.239 17.123-15.692 9.824-3.992 20.889-12.735 24.924-23.84 28.73-14.038 93.375-111.563 60.065-151.58-3.297-3.958-7.938-6.631-13.075-7.059zm-97.657 5.668c2.499 1.677 5.178 2.661 7.961 2.919l-3.648 23.368c-2.802-2.226-5.895-4.085-9.182-5.472zm14.604 5.755c3.591 3.613 5.624 8.727 5.559 14.329-.073 6.322-2.801 11.963-7.379 15.479-.776-1.194-1.631-2.336-2.538-3.438zm13.271-34.372c-2.1 16.168-15.646 32.698-26.976 20.165-2.884-3.231-4.641-7.426-5.079-12.131-.85-9.114-.774-21.296.057-34.631l16.247.742-.858 10.811c-.423 4.518 6.677 5.096 6.98.554l.876-11.046 13.156.601c-1.859 12.272-3.837 20.58-4.403 24.935zm5.434-31.897-13.633-.622.645-8.137c.426-4.526-6.692-5.081-6.98-.554l-.664 8.371-16.308-.745c1.15-14.442 3.118-29.809 5.719-43.885l15.144.65-.441 6.65c-.366 4.523 6.743 5.008 6.986.463l.452-6.812c.313-.047 13.803.742 13.644.45-.756 14.292-2.66 30.926-4.564 44.171zm-20.721-84.052c2.105-4.823 5.69-8.724 10.094-10.987 11.356-6.44 16.38 8.697 15.491 44.156.459-.269-13.324-.666-13.481-.726l.593-8.951c.366-4.527-6.755-5.007-6.986-.463l-.604 9.113-14.247-.612c2.587-12.503 5.679-23.599 9.14-31.53zm-33.746 161.792c-3.492-11.089 1.667-23.834 11.761-29.501.877 2.345 2.042 4.535 3.496 6.519-1.649 7.832-3.992 16.589-5.68 24.474-3.133-.678-6.326-.85-9.52-1.219-.021-.091-.028-.182-.057-.273zm-29.487-2.113c1.16-15.884 2.696-32.185 3.917-48.132 3.542 1.781 7.288 2.311 11.074 1.479l-4.429 47.35c-3.494-.258-7.014-.49-10.562-.697zm28.662-79.254c-.854 16.283-13.099 33.799-25.354 22.17-3.127-3.004-5.202-7.052-6.003-11.709-1.551-9.017-2.412-21.168-2.606-34.531l16.279-.505-.027 10.846c-.077 4.543 7.056 4.559 7.001.018l.028-11.08 13.164-.408c-.914 12.378-2.252 20.814-2.482 25.199zm-31.663-75.267 15.171-.512.069 6.664c-.017 4.545 7.115 4.466 7.001-.073l-.071-6.827c.343-.074 13.753-.309 13.639-.603.341 14.309-.285 31.044-1.17 44.399l-13.641.423.02-8.163c.078-4.542-7.056-4.559-7.001-.018l-.021 8.398-16.34.506c.04-14.485.826-29.957 2.344-44.194zm7.532-39.167c1.728-4.966 5.009-9.132 9.237-11.731 10.813-7.236 16.97 7.222 18.826 42.839.437-.302-13.335.358-13.497.31l-.093-8.97c.017-4.545-7.115-4.466-7.001.073l.095 9.133-14.272.481c1.621-12.66 3.858-23.957 6.705-32.135zm-10.2 163.444c.37.089.737.099 1.096.07-.834 9.87-1.708 20.025-2.42 29.795-1.957-.094-3.926-.176-5.898-.254 1.594-8.218.146-17.039-3.865-23.389 1.452-4.474 6.51-7.318 11.087-6.222zm-17.173 9.684c3.38 5.095 4.428 12.85 2.878 19.682-2.085-.063-4.164-.132-6.265-.177-1.064-7.689-1.81-16.232-2.161-24.472 2.197 1.056 4.061 2.708 5.548 4.967zm-11.967 32.425c.937 11.56.911 18.688-7.244 20.181-20.909 3.137-29.277-7.35-19.899-26.16 8.627-.548 18.019.038 26.774-.072.045 1.916.196 3.923.369 6.051zm-3.522-116.381c-.452-4.596-7.191-4.12-6.984.491 0 0 .588 8.377.588 8.377l-16.261 1.691c-1.012-14.45-1.35-29.938-.869-44.248l15.094-1.611.552 6.641c.322 4.542 7.42 3.933 6.978-.58l-.566-6.804c.334-.088 13.7-1.321 13.563-1.593 1.377 14.334 1.962 30.931 2.05 44.368l-13.574 1.411zm-10.494-85.671c14.965-11.924 20.223 27.805 21.891 41.364.334-.335-13.237 1.318-13.445 1.284l-.744-8.939c-.313-4.534-7.421-3.939-6.978.58l.757 9.102-14.2 1.515c.699-12.743 2.11-24.173 4.356-32.536 1.365-5.077 4.334-9.471 8.363-12.37zm-6.507 137.462c-2.201-8.88-3.941-20.938-5.104-34.251l16.2-1.684.759 10.82c.262 4.545 7.369 4.029 6.984-.491l-.776-11.053 13.1-1.362c-.036 11.879-.679 21.065-.649 24.781.09 11.105-3.743 22.677-11.19 26.489-8.399 4.593-17.538-4.786-19.324-13.249zm14.601 21.48c1.72 0 3.439-.28 5.138-.836.16 10.058.979 21.119 2.286 30.921-3.859-.047-7.74-.067-11.644-.057l.107-30.574c1.364.352 2.738.546 4.113.546zm-17.047 8.76c1.676-1.636 3.783-2.595 5.91-2.743l-.084 23.885c-.635-.015-1.262-.014-1.891-.019.106-5.125-2.316-10.126-6.78-13.498-.341-2.704.699-5.531 2.845-7.625zm-7.062 13.213c2.227 1.684 4.223 4.577 3.999 8.081-4.767.275-9.356.866-13.73 1.777l-1.408-10.371c3.898-2.681 8.402-1.635 11.139.513zm-25.622 14.991-1.298-11.874c3.067.187 6.038-.566 8.921-2.121l1.437 10.587c-3.163.953-6.184 2.095-9.06 3.408zm-.677-85.16c-.638-4.571-7.369-3.799-6.955.803 0 0 .962 8.342.962 8.342l-16.169 2.416c-1.656-14.39-2.687-29.849-2.845-44.165l15.006-2.284.849 6.61c.528 4.528 7.588 3.595 6.945-.892l-.87-6.772c.342-.109 13.608-1.922 13.478-2.197 2.016 14.258 3.343 30.813 4.032 44.232l-13.499 2.016zm-14.311-85.116c14.433-12.536 21.412 26.748 23.717 40.343.325-.346-13.167 1.91-13.374 1.886l-1.143-8.898c-.528-4.513-7.588-3.601-6.945.892l1.163 9.06-14.118 2.148c.129-12.762 1.028-24.244 2.898-32.699 1.137-5.134 3.907-9.656 7.802-12.732zm-.357 137.615c-2.596-8.774-4.873-20.741-6.63-33.989l16.108-2.406 1.243 10.775c.467 4.533 7.541 3.694 6.954-.802l-1.27-11.008 13.027-1.946c.494 11.868.263 21.074.458 24.785.585 11.09-2.727 22.822-9.995 26.963-8.183 4.965-17.735-3.997-19.895-12.372zm-7.185 36.66c2.12-6.166 8.416-11.305 14.59-12.199l1.28 11.713c-5.248 3.183-9.74 7.095-13.442 11.572-3.818-3.74-3.477-8.031-2.428-11.086zm-3.169 56.734c28.531-10.484 29.787 8.494 30.482 34.019.235 7.592.509 15.435 1.743 22.083 3.386 18.24-6.376 27.804-24.815 27.783-3.188-27.821-7.442-55.695-7.41-83.885zm55.652 213.854c.066-.763-.504-34.695-.487-35.381 2.025.354 4.147.642 6.361.867l1.265 44.601c-5.214-.466-7.719-4.761-7.139-10.087zm14.142 10.001-1.248-44c3.607.173 7.482.252 11.32.226-.399 14.573.01 29.296 1.214 43.817-3.444-.054-7.19-.078-11.286-.043zm18.321.195c-1.237-14.596-1.656-29.408-1.244-44.062 4.266-.092 8.737-.254 13.082-.422l-.964 44.77c-3.301-.057-7.272-.192-10.874-.286zm27.716-26.548c-.052 13.867-.083 22.236-2.768 24.835-1.227 1.187-3.581 1.727-7.069 1.928l.967-44.898c3.37-.067 5.896.26 9.065-.041-.151 6.995-.175 12.922-.195 18.176zm16.551-32.631c-8.152 9.429-21.723 7.116-35.088 7.789-17.343.291-60.939 3.716-57.279-14.853 29.56 4.619 65.9 3.563 95.18-2.767.461 3.761-.48 7.062-2.813 9.831zm-72.224-16.87c-.186-3.56-.609-7.101-1.06-10.637-3.455-27.111 33.591-25.665 53.213-24.981 19.807.69 16.962 21.391 17.993 36.587-1.63.351-3.267.667-4.908.956-10.524 1.854-21.223 2.778-31.889 3.29-5.611.269-11.229.402-16.847.381-1.359-.005-16.216.015-16.216-.695-.11-1.628-.2-3.263-.286-4.901zm95.22-9.151c-3.866 2.988-9.052 6.094-18.139 8.507-.579-12.416.857-28.748-8.32-36.973-7.15-7.1-21.714-5.645-30.826-5.108-38.939 2.295-50.972 6.32-43.976 47.255-34.097-3.423-40.963-8.354-43.927-39.068-.488-7.501-1.195-15.057-2.002-22.584 22.315-.121 34.962-13.95 30.925-36.035-1.172-6.15-1.405-13.719-1.631-21.04-.163-28.286-4.969-51.568-37.356-41.229.072-2.334.166-4.665.309-6.99 1.973-25.799 21.415-41.481 45.754-45.194-9.664 23.422 6.756 36.028 29.086 32.107 17.504-3.657 13.066-21.404 12.71-33.039 22.018.421 43.217 1.794 63.248 4.107 11.032 1.296 21.14 9.113 25.19 19.47 8.509 20.975-2.093 161.168-21.045 175.814zm22.281-37.902c4.969-25.709 6.82-46.549 8.208-70.525 17.39 19.322 11.992 54.946-8.208 70.525zm34.058-34.85c-1.365 6.865-6.676 13.174-12.944 17.704 6.6-15.527 6.184-36.077-2.101-50.123 12.262 5.091 17.23 20.625 15.045 32.419zm7.497-4.058c.42-12.551-5.406-26.82-16.421-33.209 6.293-16.121 10.991-32.672 16.667-48.986 5.739 5.863 12.524 10.631 19.918 14.113l-1.046 3.071c-1.377 4.391 5.012 6.603 6.628 2.256 0 0 .907-2.665.907-2.665 6.203 2.194 12.71 3.528 19.305 3.872-12.478 25.999-30.75 50.57-45.958 61.548zm60.456-109.803c-.821 12.543-5.084 26.988-11.325 41.33-6.905-.037-13.75-1.276-20.221-3.573l1.126-3.308c1.527-4.279-5.229-6.577-6.628-2.256l-.971 2.852c-7.398-3.595-14.096-8.625-19.53-14.865 6.24-16.405 20.224-51.278 39.281-52.866 4.209-.351 8.277 1.492 11.046 4.68 5.592 6.439 8.019 15.827 7.222 28.006z"/></g></svg>