<svg id="Capa_1" enable-background="new 0 0 512 512" height="512" viewBox="0 0 512 512" width="512" xmlns="http://www.w3.org/2000/svg"><g><g><path d="m86.153 165.753c-2.057 29.642 43.541 22.084 31.895-5.61-8.079-15.077-29.102-9.486-31.895 5.61zm23.744 9.235c-5.501 6.963-18.783.6-16.863-7.958 4.353-17.47 28.634-5.414 16.863 7.958z"/><path d="m137.292 116.047c-11.325-6.443-29.108-6.977-40.909-4.748-5.202.599-11.787 3.556-14.907 8.864-10.877 23.698 33.934 18.967 51.655 23.26 20.666 2.721 17.472-19.84 4.161-27.376zm3.534 18.68c-3.282 4.759-14.838-.735-22.878-.221-10.55-.91-28.134-2.423-30.75-6.581-3.446-17.445 58.634-13.492 53.628 6.802z"/><path d="m241.947 280.044c10.853-.174 19.48-8.536 23.881-22.08.586-1.842-.431-3.81-2.273-4.397s-3.81.431-4.397 2.273c-5.81 17.312-17.835 20.841-23.591 14.127-3.35-9.675 12.422-6.252 13.012-15.931.348-5.294-4.003-7.185-6.063-10.766 8.514-4.336 9.611 2.408 14.844 4.035 11.93-4.457-9.001-16.181-15.869-11.299 1.952-7.008 10.031-11.519 17.077-5.951 3.474 2.92 7.985-2.636 4.408-5.437-17.723-13.812-39.053 10.406-23.288 26.322 5.688 4.278-3.953 4.349-6.834 6.759-9.551 8.91-3.488 22.685 9.093 22.345z"/><path d="m508.505 88.776h-16.309l-1.105-20.491c-.1-1.854-1.633-3.307-3.49-3.307h-70.751c-1.93 0-3.495 1.565-3.495 3.495v20.303h-10.644c-1.93 0-3.495 1.565-3.495 3.495v130.289c0 1.881 1.489 3.424 3.368 3.493l22.079.802c-.443 2.771-.898 5.402-1.344 7.961-.655 3.765-1.334 7.657-1.966 12.006-.345 2.04 1.39 4.046 3.458 3.998 0 0 13.398.002 13.398.002-.049.061-.099.121-.148.182 1.598-.036 3.337-.079 5.228-.125-15.648 29.455 13.711 84.14.117 110.31-6.534 9.274-30.971 7.513-36.19-.09-22.379-41.449 46.356-134.315-48.848-138.453 2.419-8.668 16.765-30.138 13.138-39.384-3.699-8.812-15.031-6.001-20.724-9.693 27.823-127.797-148.425-196.608-230.366-146.272-46.555 27.446-63.838 83.685-66.47 109.57-.05 35.419-62.491 84.227-52.955 116.045 8.105 18.949 43.138 9.421 40.25 21.605-18.672 90.501-17.355 112.303 37.898 116.094 32.237 5.34 64.564 1.341 80.63-15.521 24.168 25.717 64.234 86.697 49.541 120.979-.791 1.421-.498 3.203.71 4.296 1.211 1.095 3.014 1.207 4.347.279 1.501-2.501 142.585-96.313 141.958-100.214-45.367-52.139-67.991-85.627-43.911-139.956 31.692 10.811 22.464 14.585 36.329-15.718 13.544-2.268 43.562 1.329 36.488 28.056-6.815 32.603-25.495 79.309-5.498 105.993 12.064 19.101 62.221 24.803 78.569 5.432 26.899-28.758-5.685-101.296 13.234-133.356 0 0 2.842 0 6.223.001-.01-.019-.022-.037-.033-.056 0 0 11.158.001 11.158.001 2.097.05 3.842-2.011 3.447-4.07l-3.262-19.542h19.436c1.93 0 3.495-1.565 3.495-3.495v-131.449c0-1.93-1.565-3.495-3.495-3.495zm-384.532-55.452c94.675-51.486 264.104 31.961 213.292 160.086-.361-.307-31.235-16.068-31.626-16.31 24.675-13.338 19.673-57.408-3.339-69.158 1.451-20.988-20.391-41.335-41.009-36.717-9.593-28.091-43.058-31.523-68.332-17.421-26.167-24.132-64.567-4.804-77.578 25.422l-26.276-13.516c8.987-12.422 20.438-23.878 34.868-32.386zm156.503 106.495c-3.846-8.416-22.692 6.07-26.118 10.901l-29.671-15.263c4.057-3.271 14.143-16.807 6.356-19.988-1.9-.324-3.715.954-4.041 2.859-.947 5.529-4.484 10.649-9.298 13.537l-52.271-26.89c2.703-12.558 11.285-23.893 22.688-29.804 1.716-.89 2.387-3.002 1.497-4.717-4.824-6.654-18.5 9.028-21.857 13.16-6.733-1.069-11.346-9.978-8.293-16.078 1.951-4.097-4.536-7.072-6.365-2.912-4.527 9.129 1.065 21.919 10.681 25.141-2.082 3.761-3.701 7.766-4.766 11.91l-37.413-19.246c22.727-49.689 84.583-40.126 79.377 17.896-3.391 1.749-11.257 3.462-8.732 8.624 1.028 1.637 3.188 2.13 4.825 1.104 18.301-11.489 44.704-5.686 56.502 12.417 1.061 1.632 3.246 2.068 4.843 1.021 1.619-1.055 2.077-3.223 1.021-4.843-10.226-16.201-32.52-24.834-51.412-20.431.173-4.188.056-8.109-.317-11.772 8.517.515 17.094-2.568 23.407-8.382 3.377-3.029-1.453-8.274-4.748-5.143-5.215 4.813-12.692 7.22-19.752 6.425-1.751-8.29-4.927-15.018-8.954-20.319 28.407-15.495 67.807-1.039 55.809 34.785-.731 2.203 1.032 4.577 3.342 4.543 6.585-1.489 5.494-16.503 5.682-20.251 23.381-3.158 40.522 20.588 29.218 41.82-3.856-3.448-16.114-12.289-19.201-4.738-.286 1.913 1.031 3.695 2.942 3.981 23.019 5.03 14.61 25.196 21.751 25.36 7.83-1.605 1.518-14.83-1.013-19.17 2.691-2.572 3.867-6.547 4.969-9.938 17.916 11.785 20.096 50.247-3.424 57.62l-36.986-19.027c6.323-9.045 21.39-8.677 19.722-14.192zm-138.243 238.795c-24.331 11.84-41.487 6.227-62.621 5.012-42.892-.432-45.76-21.211-39.468-68.074 29.157 7.613 61.667-.497 83.743-21.192 1.411-1.322 1.482-3.536.161-4.946-1.322-1.411-3.537-1.482-4.946-.161-20.51 19.221-50.754 26.659-77.837 19.362 1.672-9.729 3.927-20.525 6.782-32.471 1.868-7.064-3.653-14.678-10.949-15.076-16.877-1.318-26.896-5.071-29.779-11.154-5.277-27.474 53.909-77.559 53.584-112.324 1.567-15.367 8.523-41.928 24.202-66.068l103.167 53.071c-22.398 30.252-16.831 66.244 10.616 79.48l-21.125 53.669c-.722 1.738.212 3.885 1.977 4.539 0 0 33.762 13.264 33.762 13.264 1.899.798 4.243-.42 4.681-2.433 8.063-28.384 16.663-66.756 38.091-69.415 9.966 1.584 17.634 21.221 16.089 41.202-.359 13.133-8.622 41.956-45.743 43.767-10.434 9.901-71.029 86.488-84.387 89.948zm205.217 20.976-128.88 89.607c1.178-7.006 1.471-17.586-2.117-31.762l116.478-73.797c4.428 5.205 9.262 10.516 14.519 15.952zm-19.016-21.389-113.992 72.222c-6.519-20.405-20.777-47.203-49.867-80.467l66.279-75.502c7.734-.205 14.395-1.743 20.104-4.256-3.749 26.431 24.657 43.264 48.192 35.675 4.711 16.593 14.337 33.797 29.284 52.328zm-32.663-73.113c.178 4.628.746 9.281 1.707 13.975-22.25 6.753-45.753-9.467-38.582-33.392 55.576-48.805-12.897-162.576-46.553-18.099l-26.786-10.523 21.024-53.414c.699-1.775-.161-3.786-1.923-4.517-24.419-10.261-32.649-40.713-10.129-71.303.938.377 139.098 71.758 139.966 71.896-15.35 34.471-40.182 67.915-38.724 105.377zm38.339-44.253-18.844-6.773c10.79-23.748 26.414-47.588 33.801-73.379 4.533 2.522 13.985 1.228 16.041 5.418 2.616 1.656-30.359 71.533-30.998 74.734zm126.292 52.427c3.773 38.417 7.631 77.285-36.673 75.897-57.801 1.296-49.063-51.773-36.571-94.635 12.761-37.532 4.509-58.663-35.237-57.067l3.407-7.827c52.063-2.169 53.097 35.734 43.848 78.811-6.935 34.431-9.419 68.311 30.022 65.94 54.923-5.268-.257-91.275 21.843-123.502l12.564.001c-7.686 16.037-5.412 39.57-3.203 62.382zm-40.057-241.293h63.944l.906 16.808h-64.85zm8.538 171.861c.436-2.721.885-5.297 1.323-7.815.501-2.877 1.016-5.83 1.513-9.004l50.262.192 2.777 16.633zm76.127-23.605h-20.055l-56.176-.215-22.572-.82v-123.424h44.524l-.77 25.428h-22.819c-1.93 0-3.495 1.565-3.495 3.495v50.232c0 1.93 1.565 3.495 3.495 3.495h52.42c1.93 0 3.495-1.565 3.495-3.495v-20.041h21.954v65.345zm-28.944-92.041v43.242h-45.43v-43.242zm28.944 19.707h-21.954v-23.201c0-1.93-1.565-3.495-3.495-3.495h-22.607l.77-25.428h47.286z"/><path d="m447.481 189.648v20.582c0 1.93 1.565 3.495 3.495 3.495h34.374c1.93 0 3.495-1.565 3.495-3.495v-20.582c0-1.93-1.565-3.495-3.495-3.495h-34.374c-1.93 0-3.495 1.564-3.495 3.495zm6.99 3.495h27.384v13.592h-27.384z"/></g></g></svg>