<svg id="Capa_1" enable-background="new 0 0 512.002 512.002" height="512" viewBox="0 0 512.002 512.002" width="512" xmlns="http://www.w3.org/2000/svg"><g><g><path d="m106.202 357.588c.014.046 303.193 2.285 303.225 2.318 7.734.163 14.528-6.718 14.265-14.451l-1.795-141.102c-.1-7.76-6.255-13.947-14.014-14.086l-303.117-5.406c-7.835-.295-14.789 6.608-14.522 14.445 0 0 1.798 144.19 1.798 144.19.096 7.711 6.448 14.033 14.16 14.092zm184.376-127.065c8.609 10.363 24.842 11.721 36.959 5.609-5.405 22.478 14.93 36.626 35.541 25.068-6.783 41.969 38.493 51.973 20.665 91.508l-181.999-1.391v-157.725l91.082 1.624c-10.919 13.242-9.442 26.836-2.248 35.307zm-95.834 120.741-13.663-.104 2.025-157.901 11.639.208v157.797zm-81.652-78.651 15.91.24.436 25.54-16.346.236zm22.911.346 17.595.266.716 24.81-17.878.258zm24.602.371 14.47.219-.31 24.19-13.45.194zm14.559-6.78-14.762-.223-.568-19.669 15.582.222zm-21.768-.329-17.512-.265-.336-19.645 17.28.246zm-24.514-.371-15.79-.238v-19.621l15.454.22zm-15.79 39.779 16.466-.237.402 23.514-16.868-.056zm23.463-.339 17.96-.259.691 23.958-18.247-.06zm24.962-.36 13.158-.19-.313 24.38c-.22-.044-.446-.07-.678-.071l-11.471-.038zm13.989-65.049-15.874-.226-.651-22.554 16.811.442zm-22.88-.327-17.198-.245-.39-22.839 16.935.446zm-24.2-.344-15.334-.219v-23.098l14.943.393zm-15.334 96.64 16.987.056.254 14.866-17.241-.132zm23.987.079 18.33.061.433 14.977-18.508-.141zm25.335.084 11.246.037c.21.001.414-.026.614-.061l-.194 15.117-11.232-.086zm13.469-125.47-17.103-.45-.499-17.276 17.825.318zm-24.113-.635-16.853-.444-.291-17.07 16.647.297zm-23.855-.628-14.823-.39v-16.88l14.532.259zm286.663 141.482c-1.39 1.397-3.247 2.121-5.21 2.143l-18.098-.138c17.47-44.57-32.599-53.421-19.751-97.659 1.339-1.187 2.631-2.424 3.882-3.691 2.892 8.007 10.492 14.332 18.985 16.692-3.995 16.708 2.035 31.499 21.732 32.338l.574 45.098c.026 1.967-.725 3.821-2.114 5.217zm1.451-57.33c-13.835-.364-18.089-10.932-14.746-24.036 4.847.46 9.816-.116 14.42-1.629zm-1.132-88.991.711 55.898c-13.422 6.049-33.326-.38-34.867-16.412-.241-2.908-4.175-4.176-6.069-1.954-5.283 5.796-11.103 11.866-18.489 14.776-20.021 7.385-28.65-12.5-17.651-27.948 2.376-3.186-2.082-7.324-5.083-4.722-26.218 22.505-58.551-2.602-31.146-28.694l105.456 1.881c3.953.07 7.088 3.222 7.138 7.175zm-317.653-5.223c0-4.893 4.169-7.901 8.848-7.332v158.693c-3.853-.117-7.001-3.296-7.05-7.169 0-.001-1.798-144.192-1.798-144.192z"/><path d="m90.244 199.305v.001z"/><path d="m77.519 290.507c1.953.002 3.535-1.604 3.501-3.557l-.524-32.257c-.011-4.545-7.14-4.423-7 .114l.524 32.257c.032 1.913 1.593 3.443 3.499 3.443z"/><path d="m76.96 213.994c1.921.06 3.547-1.462 3.601-3.396l.414-14.061c.022-4.615-6.755-4.819-6.996-.205 0 0-.414 14.061-.414 14.061-.058 1.932 1.462 3.544 3.395 3.601z"/><path d="m77.77 326.935c-1.933.051-3.458 1.659-3.407 3.591l.414 15.717c.049 1.934 1.67 3.461 3.592 3.406 1.933-.051 3.457-1.659 3.406-3.591l-.414-15.715c-.051-1.934-1.65-3.441-3.591-3.408z"/><path d="m503.331 462.009c-3.615-2.446-7.715-3.421-11.99-2.972 4.532-11.459-2.988-25.156-14.502-28.787 2.276-41.308-31.304-37.921-38.407-61.913 4.235-4.786 1.332-30.151 1.954-36.099 29.769-11.403 46.023-51.629 34.958-81.26 26.193-13.08 37.49-50.286 7.587-65.178 24.059-15.02 17.333-51.995-10.632-57.427 23.7-28.008.71-71.173-36.491-65.874 6.422-76.603-111.152-68.782-94.699 6.216-23.55-1.599-42.544 25.911-32.655 47.338-22.131 5.715-30.262 32.535-18.246 51.238h-71.51v-45.301c.038-1.902-1.66-3.563-3.554-3.499 0 0-133.999 2.068-133.999 2.068-1.912.029-3.446 1.587-3.446 3.5v43.234c-9.571-1.377-20.396 3.316-20.265 14.269v60.037l-38.275 4.69c-1.852.227-3.2 1.866-3.065 3.727l14.343 198.126c-5.634 4.249-7.472 12.463-4.807 19.12-8.152-.014-17.092 2.487-21.913 7.92-2.785 3.139-5.441 8.567-2.284 16.603 3.797 7.379 12.591 8.673 20.465 8.947 150.666 4.942 300.331 1.263 451.158 2.061 28.439 1.413 35.99-11.763 37.907-17.496 2.862-8.564-.347-18.357-7.632-23.288zm-52.854-68.717c10.508 7.836 20.451 15.263 19.41 35.867-3.178.051-6.311.84-9.286 2.333 1.392-19.779-23.32-33.084-39.133-21.181-4.262-14.559-24.344-15.692-33.159-4.041-3.107-7.612-9.951-12.382-16.751-13.947 2.666-5.468 4.679-11.231 5.988-17.183 4.02-.546 53.041 1.176 55.185-1.701 3.519 9.222 10.734 14.623 17.746 19.853zm-344.988-16.956-.133 34.723c-5.759 2.571-10.805 7.676-12.26 14.631-1.983-1.367-4.086-2.335-6.232-2.975l1.38-46.303zm77.102 9.22c-5.681-.185-11.378-.301-17.083-.34l.157-9.145 17.023-.075c.01 3.179-.027 6.367-.097 9.56zm-24.083-.338c-6.848.027-13.7.149-20.544.386l-.205-9.41 20.906-.092zm-27.75-8.993.21 9.669c-6.189.28-12.366.645-18.52 1.098l.041-10.686zm-18.337 17.785c6.213-.462 12.45-.831 18.7-1.116l.264 12.145c.002.102.025.197.036.296-2.284 1.986-3.948 4.573-4.872 7.605-4.298-3.193-9.382-4.238-14.186-3.751zm25.893 7.739-.199-9.145c6.753-.235 13.515-.358 20.272-.386l-.239 13.96c-5.823-4.627-13.416-6.147-19.834-4.429zm27.074-9.532c5.674.037 11.338.152 16.987.337-.12 2.982-.277 5.958-.466 8.928-5.077-2.995-11.759-2.672-16.688.449zm24.299-16.251 24.569-.108v20.124c-3.126 2.083-5.302 5.161-6.641 8.792-5.576-5.915-12.24-9.159-18.487-6.51.403-7.427.583-14.892.559-22.298zm31.57-.139 149.091-.655c-1.412 5.796-3.552 11.385-6.386 16.638-4.737.412-9.556 2.188-13.491 5.668-3.112-6.065-10.27-9.057-17.353-7.708-5.702 1.097-10.56 4.758-14.048 10.407-8.668-14.974-29.81-15.782-39.691-1.715-8.654-14.923-32.663-11.777-37.106 4.923-6.379-6.831-13.092-10.485-21.016-9.921zm233.453-118.476c2.839 12.464-3.525 26.131-14.766 32.109l-.33-32.014c5.098.518 10.232.496 15.096-.095zm-14.403 67.278-.284-27.515c15.799-6.292 25.141-24.492 21.578-40.985 2.638-.625 5.092-1.386 7.347-2.245 9.054 26.666-4.158 59.105-28.641 70.745zm-141.674-157.558c-13.714-16.175-6.484-42.349 15.577-45.066 2.473-.265 3.854-3.298 2.476-5.345-12.024-19.241 6.167-45.123 28.325-40.379 2.511.644 4.911-1.945 4.121-4.394-20.597-70.637 89.933-78.173 79.182-5.444-.431 2.422 2.052 4.598 4.393 3.885 35.331-9.719 58.075 36.073 29.02 58.36-2.745 1.968-.982 6.621 2.384 6.269 29.859-2.02 37.181 39.368 8.45 47.718-3.402.918-3.32 5.906.07 6.752 43.694 12.496 14.086 67.447-33.088 60.969l-.711-68.982c-.081-7.787-6.482-14.122-14.269-14.122h-125.783c-.051-.073-.09-.151-.147-.221zm-86.936.221h-25.512l.616-41.364 24.896-.384zm-32.154-24.153-21.449.43.351-17.204 21.353-.329zm-28.453.571-15.896.319-.052-17.303 16.3-.252zm-22.896.459-17.71.355.16-17.42 17.498-.27zm-17.774 7.358 17.794-.357.049 16.122h-17.988zm24.843 15.765-.049-16.262 15.733-.315-.338 16.578h-15.346zm22.688-16.718 21.487-.431-.255 17.149h-21.573zm-73.253-23.07 18.945-.292-.368 40.08h-18.577zm-20.265 54.057c0-4.008 3.261-7.269 7.269-7.269h352.86c3.967 0 7.227 3.228 7.269 7.194l1.846 179.094c.122 3.922-3.312 7.409-7.236 7.344-.01.008-354.724 1.554-354.738 1.559-3.898.077-7.357-3.359-7.269-7.269-.001.001-.001-180.653-.001-180.653zm-2.798 190.766c4.52 5.301 13.444 4.066 19.605 4.116l-1.351 45.319c-8.697.211-16.549 4.67-20.975 12.396l-16.99-183.607 15.509-1.9v113.565c0 3.822 1.493 7.413 4.202 10.111zm-38.32-119.496 11.657-1.428 17.894 193.378c-6.051-1.359-11.281-1.411-15.666-.148zm481.008 230.245c-1.302 4.229-7.577 14.014-31.153 12.716-150.975-.811-299.262 2.894-451.035-2.058-5.718-.201-11.863-.931-14.288-4.773-5.002-13.306 14.899-16.37 24.467-13.912 3.713.977 6.047-4.02 2.912-6.239-4.04-2.659-5.07-10.037-1.959-13.683 4.657-5.548 13.109-5.927 25.831-1.163 2.566 1.036 5.367-1.509 4.617-4.151-4.731-18.389 19.517-29.271 30.112-13.484 2.183 3.21 7.192.985 6.312-2.761-3.808-15.782 18.08-24.524 26.193-10.446 1.905 3.266 6.957 1.553 6.504-2.177-2.293-17.12 21.253-16.497 25.934-2.213 1.323 4.041 7.686 2.269 6.728-1.876-1.604-7.994 5.447-11.833 11.536-9.957 1.964.694 4.463 2.428 5.218 6.749.785 4.153 6.857 3.65 6.948-.579.016-2.395.394-8.033 3.555-8.675 3.777-.763 10.629 4.112 13.839 11.544 1.433 3.585 7.124 2.159 6.701-1.675-.581-7.077 3.033-14.424 10.42-13.865 8.255.695 14.677 8.387 18.611 14.718 1.874 3.226 7.149 1.237 6.425-2.425-3.638-20.121 25.761-23.511 26.782-3.071.291 4.173 6.396 4.399 6.963.242 1.362-10.214 9.378-14.592 16.627-14.403 7.292.191 15.02 4.982 15.846 15.257.199 3.799 5.932 4.351 6.86.662 2.311-8.267 6.909-13.637 12.612-14.735 5.835-1.231 12.772 3.26 10.094 9.041-3.12 6.736 4.186 9.556 6.528 2.559 5.884-17.576 33.345-10.303 31.905 8.823-.435 4.05 5.739 5.236 6.834 1.309 5.918-20.722 31.13-14.002 23.832 1.159-3.2 4.875 4.111 8.64 6.223 3.208 11.248-21.264 42.599-4.833 31.394 16.625-1.896 3.565 3.263 6.973 5.798 3.834 15.358-19 40.112 5.071 22.551 20.544-7.922 4.088-1.661 12.161 4.291 5.539 5.621-3.857 11.168-4.419 15.516-1.477 4.735 3.204 6.803 9.626 4.916 15.269z"/><path d="m249.202 246.881c1.962-.041 3.583-1.915 3.334-3.863l-2.434-23.151c-.186-1.766-1.665-3.114-3.441-3.134l-28.864-.325c-1.878-.056-3.585 1.604-3.539 3.5v24.788c-.04 1.934 1.716 3.619 3.647 3.497-.002 0 31.297-1.312 31.297-1.312zm-27.945-23.434 22.209.25 1.719 16.346-23.928 1.003z"/><path d="m271.06 277.735v35.087c-.235 5.732 10.838 2.838 13.91 3.5l-.502 10.959c-.043.939.293 1.855.934 2.544.64.688 1.53 1.09 2.47 1.115l60.993 1.624c1.908.054 3.523-1.45 3.591-3.37l1.299-35.253c.11-1.926-1.57-3.668-3.498-3.629h-10.47v-12.577c0-1.933-1.567-3.5-3.5-3.5h-61.727c-1.932 0-3.5 1.567-3.5 3.5zm74.528 47.739-53.964-1.437 1.225-26.726h53.777zm-67.528-44.239h54.727v9.077h-43.282c-1.871 0-3.411 1.471-3.496 3.34l-.718 15.67h-7.23v-28.087z"/><path d="m221.067 264.598c-4.475.355-4.285 6.898.198 6.994.188.006 29.901-1.725 30.106-1.731 4.586-.373 4.227-7.145-.403-6.988.001 0-29.901 1.725-29.901 1.725z"/><path d="m250.969 277.91-29.901 1.726c-4.602.382-4.209 7.141.402 6.988 0 0 29.901-1.726 29.901-1.726 4.586-.375 4.229-7.136-.402-6.988z"/><path d="m254.664 296.24c-.111-1.929-1.752-3.407-3.695-3.293l-29.901 1.726c-1.931.111-3.404 1.766-3.293 3.696.106 1.933 1.786 3.409 3.695 3.293l29.901-1.726c1.931-.112 3.404-1.766 3.293-3.696z"/><path d="m265.92 309.671-29.902 1.726c-4.602.382-4.209 7.141.402 6.988 0 0 29.902-1.726 29.902-1.726 4.593-.38 4.219-7.129-.402-6.988z"/><path d="m265.92 324.709-29.902 1.725c-4.602.382-4.209 7.141.402 6.988 0 0 29.902-1.725 29.902-1.725 4.594-.377 4.217-7.139-.402-6.988z"/><path d="m265.92 339.746-29.902 1.726c-4.602.382-4.209 7.141.402 6.988 0 0 29.902-1.726 29.902-1.726 4.593-.38 4.219-7.129-.402-6.988z"/><path d="m258.818 267.586c1.059 1.635 3.242 2.074 4.841 1.031l34.55-22.419c1.621-1.052 2.083-3.22 1.03-4.841-1.052-1.623-3.22-2.082-4.841-1.031l-34.55 22.419c-1.621 1.052-2.083 3.219-1.03 4.841z"/><path d="m223.6 213.508c3.431.047 4.839-4.634 1.863-6.465 0 0-15.246-9.566-15.246-9.566-3.965-2.35-7.573 3.373-3.721 5.93 0 0 15.246 9.566 15.246 9.566.579.362 1.223.535 1.858.535z"/><path d="m361.21 336.891 16.94 5.389c4.403 1.295 6.505-5.146 2.123-6.671 0 0-16.94-5.389-16.94-5.389-4.431-1.287-6.488 5.159-2.123 6.671z"/><path d="m85.493 86.341c2.109 5.651 7.841 8.428 16.857 8.27 59.708.477 118.213-1.756 177.652-2.497 1.28-.016 2.448-.729 3.049-1.858 7.51-14.148 2.088-29.97-6.826-37.675-7.045-6.09-15.639-7.416-23.915-3.947.798-19.208-10.434-34.615-29.304-38.153-23.317-4.673-48.855 10.845-55.918 33.982-20.087-11.833-49.107 1.848-52.656 24.899-10.789-1.737-31.513 2.58-28.939 16.979zm9.094-6.337c12.869-9.045 25.814 1.677 26.396-6.112.561-21.777 29.106-34.876 45.972-21.097 1.9 1.606 5.089.504 5.587-1.935 6.053-25.683 29.733-37.204 49.154-33.502 20.454 3.899 25.337 21.724 23.085 37.105-.536 2.967 3.164 5.193 5.534 3.328 17.337-13.154 35.283 9.128 27.429 27.351-58.746.764-116.35 2.942-175.427 2.469-9.905-.079-12.75-3.107-7.73-7.607z"/></g></g></svg>