<?xml version="1.0" encoding="iso-8859-1"?>
<!-- Generator: Adobe Illustrator 16.0.0, SVG Export Plug-In . SVG Version: 6.00 Build 0)  -->
<!DOCTYPE svg PUBLIC "-//W3C//DTD SVG 1.1//EN" "http://www.w3.org/Graphics/SVG/1.1/DTD/svg11.dtd">
<svg version="1.1" id="Capa_1" xmlns="http://www.w3.org/2000/svg" xmlns:xlink="http://www.w3.org/1999/xlink" x="0px" y="0px"
	 width="565.419px" height="565.419px" viewBox="0 0 565.419 565.419" style="enable-background:new 0 0 565.419 565.419;"
	 xml:space="preserve">
<g>
	<g>
		<path d="M565.342,208.509c-0.968-10.983-10.915-18.042-20.289-21.828c-6.609-2.67-13.248-4.6-19.638-7.897
			c-6.938-3.579-13.455-7.947-19.752-12.542c-10.809-7.885-20.979-15.488-33.411-20.71c-10.824-4.547-22.531-6.541-34.215-6.967
			c-13.767-0.503-27.435,1.648-40.937,4.062c-15.221,2.722-30.322,6.083-45.264,10.065c-13.387,3.568-26.565,7.708-39.521,12.439
			c-4.482-3.939-9.725-6.936-14.724-10.158c-5.438-3.505-9.877-7.991-14.623-12.336c-8.794-8.049-18.849-11.001-30.501-7.562
			c-8.361,2.467-10.826,9.904-8.564,17.739c1.551,5.375,4.672,10.258,7.313,15.129c3.501,6.457,6.692,13.079,9.931,19.673
			c-11.916,6.113-23.668,12.546-35.491,18.836c-0.079-0.119-0.163-0.236-0.255-0.353c-25.2-31.427-66.257,3.674-90.666,17.934
			c-8.418-1.781-16.846-2.293-25.207,0.844c-15.292-11.209-29.043-24.561-45.596-33.969c-0.22-8.754-2.918-18.614-14.062-14.812
			c-0.304,0.104-0.604,0.219-0.904,0.332c-0.079-0.11-0.14-0.223-0.231-0.33c-7.099-8.279-13.562-19.891-26.181-13.959
			c-10.66,5.011-8.059,22.888-7.981,32.121c0.002,0.214,0.036,0.406,0.065,0.603c-3.873,1.758-7.801,3.395-11.795,4.873
			c-2.632,0.974-3.461,3.374-2.391,5.876c2.224,5.201,7.412,8.078,12.102,10.769c0.494,0.284,0.98,0.436,1.453,0.507
			c0.002,5.562,0.516,11.147,0.565,16.706c0.109,12.059-0.026,24.141-0.493,36.19c-0.266,6.843-1.58,13.501-2.232,20.309
			c-0.664,6.944,0.469,12.964,7.601,15.817c6.56,2.625,11.325-6.152,13.171-10.824c3.953-10.001,6.43-20.404,8.188-30.994
			c1.758-10.588,2.824-21.289,4.281-31.91c8.902,10.645,18.85,20.961,30.336,28.805c-9.537,6.737-11.805,18.212-1.153,25.613
			c13.804,9.593,32.823,8.893,49.066,7.26c1.229,10.447,23.515,12.249,31.179,13.165c16.092,1.924,37.211,10.729,50.358-2.717
			c2.617-2.678,4.678-6.146,6.167-10.034c0.271,0.021,0.558,0.021,0.865-0.015c10.81-1.244,20.779-0.192,31.028,3.494
			c8.628,3.105,17.198,6.345,26.1,2.966c-1.332,8.48-1.92,17.128-2.669,25.569c-0.82,9.243-2.445,18.195-4.154,27.314
			c-2.369,12.654-4.118,26.086-8.398,38.269c-3.592,10.222-16.169,30.559-0.592,37.175c0.202,0.086,0.4,0.134,0.6,0.188
			c14.811,9.655,31.063-10.732,38.341-22.283c7.248-11.506,12.08-24.428,17.212-36.958c5.93-14.476,13.229-28.065,20.827-41.716
			c5.655-10.161,10.997-20.556,15.906-31.103c1.835-3.94,3.71-8.119,5.169-12.426c11.235-1.389,18.976-10.273,29.694-13.3
			c13.952-3.94,29.098-2.768,43.333-5.334c16.101-2.901,32.152-6.057,48.295-8.717c14.369-2.368,29.04-3.173,43.3-6.114
			c11.507-2.374,22.976-6.819,32.316-14.051C556.849,230.554,566.374,220.232,565.342,208.509z M513.663,181.03
			c-5.6,4.546-11.858,8.347-18.193,11.706c-5.827,3.09-13.312,6.783-20.416,7.193c1.067-5.856,2.562-11.62,4.015-17.393
			c7.14-3.077,13.935-7.413,19.181-12.329C503.341,173.901,508.38,177.618,513.663,181.03z M260.049,168.127
			c-0.904-1.746-1.805-3.494-2.703-5.243c0.029-0.042,0.066-0.066,0.092-0.117c1.35-2.705,2.696-5.43,2.804-8.505
			c0.045-1.291-1.955-1.286-2,0c-0.081,2.309-1.005,4.405-2.01,6.447c-0.714-1.395-1.424-2.791-2.132-4.188
			c0.33-0.058,0.638-0.255,0.772-0.66c0.571-1.715,1.109-3.464,1.899-5.094c0.559-1.156-1.165-2.171-1.727-1.01
			c-0.764,1.575-1.324,3.238-1.877,4.897c-1.193-2.497-2.205-5.206-2.24-7.972c-0.039-3.057,3.445-3.896,5.812-4.464
			c11.231-2.695,18.076,3.677,25.662,10.854c6.418,6.072,14.409,9.987,21.322,15.29c-11.829,4.601-23.459,9.725-34.88,15.378
			c1.393-3.426,2.224-7.021,3.36-10.548c0.396-1.23-1.534-1.754-1.928-0.531c-1.026,3.184-1.777,6.44-2.969,9.557
			c-0.604-1.188-1.215-2.372-1.824-3.558c0.016-0.048,0.045-0.08,0.055-0.134c0.695-3.9,1.882-7.652,3.333-11.334
			c0.474-1.201-1.462-1.717-1.929-0.531c-1.186,3.008-2.178,6.068-2.887,9.214c-0.875-1.697-1.754-3.392-2.631-5.088
			c0.043-0.08,0.091-0.155,0.113-0.261c0.754-3.59,1.912-7.078,2.666-10.667c0.265-1.258-1.663-1.794-1.928-0.532
			C261.654,162.292,260.769,165.189,260.049,168.127z M218.459,210.252c-1.6,0.838-3.205,1.663-4.809,2.491
			c-0.195-0.46-0.486-0.905-0.914-1.311c-3.8-3.606-8.72-5.226-13.892-4.361c-1.729,0.288-2.938,2.218-2.937,3.856
			c0.005,3.316,0.487,6.324,1.879,9.353c0.05,0.106,0.125,0.191,0.184,0.29c-2.117,1.016-4.242,2.014-6.375,2.998
			c0.344-1.53,0.613-3.076,0.646-4.641c0.027-1.29-1.973-1.287-2,0c-0.041,1.93-0.482,3.829-0.953,5.703
			c-0.069,0.031-0.137,0.063-0.205,0.095c-1.762,0.796-3.538,1.56-5.322,2.308c0.456-1.929,0.526-3.938,1.111-5.84
			c0.379-1.235-1.551-1.761-1.929-0.531c-0.669,2.177-0.664,4.489-1.333,6.667c-0.068,0.222-0.044,0.41,0.014,0.58
			c-1.428,0.584-2.855,1.169-4.295,1.728c0.536-1.973,0.879-3.985,0.912-6.042c0.021-1.291-1.979-1.289-2,0
			c-0.039,2.384-0.533,4.681-1.261,6.942c-0.999,0.378-1.997,0.758-3.001,1.125c0.28-2.159,0.488-4.327,0.893-6.469
			c0.238-1.26-1.689-1.798-1.929-0.531c-0.485,2.569-0.693,5.176-1.081,7.758c-0.869,0.311-1.735,0.631-2.607,0.935
			c0.316-2.498,0.49-5.015,0.951-7.494c0.233-1.261-1.693-1.799-1.93-0.531c-0.416,2.245-0.604,4.52-0.869,6.784
			c-0.325-0.162-0.68-0.3-1.104-0.376c-6.259-1.125-12.572-3.114-18.908-4.949C166.588,212.888,198.649,188.302,218.459,210.252z
			 M35.454,172.146c-2.539-1.246-5.057-2.528-7.447-4.047C30.322,167.649,32.982,169.578,35.454,172.146z M25.093,170.372
			c0.296-0.469,0.608-0.857,0.933-1.177c4.009,2.714,8.455,4.618,12.74,6.829c1.122,1.44,2.127,2.833,2.938,3.938
			c-1.193,0.689-2.375,1.414-3.552,2.146c-4.603-3.451-8.978-7.191-13.46-10.797c-0.035-0.028-0.072-0.048-0.107-0.07
			C24.743,170.946,24.913,170.656,25.093,170.372z M23.73,173.095c4.197,3.391,8.314,6.879,12.609,10.144
			c-1.146,0.722-2.289,1.442-3.429,2.141c-3.313-2.683-6.78-5.147-10.388-7.43C22.757,176.27,23.135,174.637,23.73,173.095z
			 M22.293,180.184c3.037,1.952,5.975,4.03,8.793,6.278c-0.588,0.345-1.176,0.702-1.764,1.026c-0.625,0.344-1.256,0.678-1.885,1.016
			c-1.836-1.125-3.616-2.325-5.234-3.749C22.169,183.224,22.191,181.691,22.293,180.184z M25.409,189.587
			c-0.975,0.512-1.949,1.02-2.93,1.516c-0.055-1.202-0.123-2.433-0.182-3.675C23.299,188.195,24.34,188.91,25.409,189.587z
			 M21.577,298.197c-1.622-0.245-2.146-2.314-2.165-4.877c1.386,1.057,2.801,2.069,4.261,3.021
			C22.945,297.567,22.231,298.297,21.577,298.197z M24.588,294.56c-1.746-1.146-3.425-2.382-5.072-3.669
			c0.127-1.474,0.347-2.963,0.57-4.282c1.94,1.554,3.882,3.105,5.823,4.66C25.48,292.454,25.036,293.578,24.588,294.56z
			 M26.599,289.273c-1.926-1.541-3.852-3.081-5.776-4.622c-0.113-0.091-0.232-0.149-0.353-0.188c0.137-0.727,0.25-1.318,0.302-1.67
			c0.132-0.892,0.251-1.78,0.362-2.668c2.208,1.688,4.493,3.269,6.803,4.82C27.529,286.348,27.079,287.826,26.599,289.273z
			 M28.507,282.926c-2.425-1.632-4.813-3.312-7.108-5.123c0.139-1.306,0.258-2.61,0.359-3.916c2.533,1.784,5.057,3.58,7.826,4.954
			C29.347,279.788,28.976,281.23,28.507,282.926z M30.066,276.876c-2.881-1.463-5.504-3.421-8.153-5.299
			c0.046-0.702,0.075-1.408,0.114-2.111c2.815,1.712,5.676,3.32,8.693,4.631C30.509,275.024,30.294,275.952,30.066,276.876z
			 M31.154,272.119c-3.13-1.388-6.084-3.113-9.006-4.917c0.066-1.446,0.115-2.901,0.16-4.361c3.092,2.123,6.299,4.066,9.502,6.019
			C31.597,269.945,31.39,271.035,31.154,272.119z M32.23,266.771c-3.338-2.029-6.672-4.062-9.863-6.32
			c0.018-0.733,0.025-1.468,0.041-2.202c3.533,1.721,6.969,3.623,10.33,5.663C32.572,264.865,32.409,265.819,32.23,266.771z
			 M33.099,261.794c-3.461-2.077-7.004-4.001-10.65-5.733c0.022-1.34,0.025-2.681,0.039-4.021c3.798,1.973,7.517,4.075,11.134,6.361
			C33.45,259.533,33.284,260.666,33.099,261.794z M33.952,256.245c-3.717-2.317-7.541-4.443-11.442-6.441
			c0.015-1.726,0.012-3.451,0.021-5.178c3.973,2.41,8.076,4.593,12.043,7.01C34.374,253.173,34.172,254.71,33.952,256.245z
			 M34.853,249.474c-3.977-2.385-8.074-4.561-12.021-6.996c-0.099-0.062-0.195-0.083-0.291-0.107
			c0.006-1.297,0.01-2.593,0.016-3.889c4.375,2.162,8.744,4.329,12.776,7.075C35.172,246.862,35.015,248.168,34.853,249.474z
			 M35.601,243.347c-4.137-2.722-8.594-4.889-13.035-7.089c0.004-0.888,0.011-1.775,0.011-2.663c0-1.259-0.044-2.527-0.101-3.799
			c4.776,2.063,9.435,4.348,13.944,6.924C36.142,238.928,35.868,241.138,35.601,243.347z M36.693,234.575
			c-4.633-2.606-9.42-4.912-14.33-6.988c-0.133-2.256-0.293-4.522-0.396-6.785c5.106,2.754,10.285,5.354,15.545,7.797
			C37.228,230.587,36.954,232.58,36.693,234.575z M37.81,226.538c-5.255-2.458-10.43-5.066-15.531-7.835
			c-0.131-0.071-0.26-0.104-0.386-0.118c-0.052-2.237-0.009-4.466,0.21-6.673c5.29,3.875,10.807,7.417,16.269,11.045
			C38.176,224.148,37.988,225.342,37.81,226.538z M38.73,220.797c-5.106-3.382-10.253-6.703-15.206-10.307
			c1.708-0.713,3.421-1.419,5.135-2.126c3.571,2.562,7.284,4.912,11.044,7.19C39.358,217.298,39.031,219.045,38.73,220.797z
			 M40.135,213.479c-3.16-1.922-6.289-3.892-9.322-6.009c1.463-0.607,2.924-1.221,4.381-1.84c2.014,1.146,3.926,2.447,5.865,3.715
			C40.736,210.72,40.426,212.097,40.135,213.479z M41.554,207.288c-1.35-0.891-2.688-1.797-4.064-2.643
			c1.822-0.792,3.636-1.601,5.434-2.442C42.429,203.89,41.978,205.585,41.554,207.288z M48.737,224.101
			c-0.673-0.822-1.446-1.229-2.222-1.33c1.379-8.149,3.184-16.217,5.916-24.111c0.668-1.929-0.139-3.409-1.453-4.211
			c-0.797-2.083-3.196-3.672-5.756-2.307c-8.846,4.718-18.272,8.282-27.502,12.177c-0.939,0.076-1.812,0.489-2.388,1.311
			c-0.746,0.747-0.973,1.708-0.819,2.665c-1.509-0.862-2.995-1.774-4.272-2.893c11.22-4.556,21.931-10.166,32.401-16.278
			c2.083-1.215,9.439-7.246,12.188-5.881c2.148,1.067,1.148,9.264,1.078,11.021c-0.113,2.837,2.254,4.099,4.442,3.813
			c16.315,9.374,29.948,22.563,45.069,33.657c0.547,0.721,1.304,1.288,2.187,1.563c1.707,0.985,3.337,0.386,4.353-0.855
			c13.408-5.572,28.568,1.141,42.408,5.124c-3.276,1.008-6.566,1.966-9.859,2.904c-1.912-1.565-3.98-2.938-5.922-4.471
			c-1.001-0.79-2.426,0.615-1.414,1.414c1.621,1.28,3.326,2.462,4.963,3.726c-1.238,0.348-2.475,0.704-3.713,1.045
			c-2.416-1.887-4.945-3.624-8.018-4.23c-1.26-0.248-1.797,1.68-0.533,1.929c2.316,0.457,4.279,1.61,6.133,2.965
			c-1.512,0.411-3.023,0.821-4.534,1.225c-2.388-1.787-4.9-3.374-7.462-4.911c-1.108-0.666-2.113,1.063-1.01,1.727
			c2.045,1.228,4.076,2.469,6.022,3.838c-1.501,0.396-3.003,0.785-4.507,1.171c-2.334-1.376-4.617-2.806-6.385-4.921
			c-0.828-0.99-2.236,0.433-1.414,1.414c1.441,1.725,3.213,3.025,5.083,4.199c-1.513,0.384-3.026,0.766-4.54,1.142
			c-1.998-1.213-3.926-2.538-5.764-3.99c-1-0.79-2.426,0.615-1.414,1.414c1.449,1.145,2.938,2.226,4.473,3.236
			c-2.344,0.576-4.688,1.155-7.035,1.719c-1.316-0.699-2.56-1.55-3.764-2.499c-1.002-0.788-2.428,0.616-1.414,1.414
			c0.786,0.62,1.588,1.203,2.41,1.745c-1.256,0.299-2.512,0.601-3.77,0.898c-1.51-1.107-2.965-2.298-4.414-3.505
			c-0.984-0.819-2.406,0.588-1.414,1.414c1.094,0.911,2.193,1.817,3.313,2.691c-1.314,0.312-2.626,0.623-3.925,0.95
			c-1.627-1.191-3.155-2.511-4.609-3.949c-0.918-0.908-2.332,0.506-1.414,1.414c1.137,1.124,2.316,2.188,3.552,3.18
			c-1.006,0.271-2.008,0.553-3,0.855c-1.749-1.438-3.595-2.761-5.22-4.345c-0.924-0.9-2.339,0.513-1.414,1.414
			c1.365,1.331,2.883,2.48,4.371,3.664c-1.163,0.397-2.316,0.821-3.454,1.292c-0.22-0.217-0.468-0.42-0.759-0.603
			C69.48,247.916,58.482,236.002,48.737,224.101z M80.604,281.437c-1.133-0.673-2.207-1.441-3.124-2.307
			c1.144,0.371,2.304,0.696,3.472,0.999C80.838,280.565,80.722,281.001,80.604,281.437z M85.988,283.856
			c-1.129-0.366-2.357-0.855-3.577-1.45c0.159-0.601,0.322-1.201,0.476-1.805c1.215,0.279,2.438,0.535,3.671,0.759
			C86.397,282.196,86.2,283.026,85.988,283.856z M91.6,285.245c-1.237-0.243-2.466-0.53-3.688-0.848
			c0.226-0.896,0.437-1.789,0.609-2.69c1.126,0.176,2.257,0.335,3.395,0.47C91.771,283.194,91.641,284.215,91.6,285.245z
			 M96.909,286.083c-1.116-0.134-2.227-0.301-3.334-0.483c0-0.003,0.001-0.003,0.001-0.005c0.017-1.079,0.162-2.145,0.312-3.208
			c1.037,0.103,2.075,0.195,3.118,0.269C96.916,283.791,96.91,284.938,96.909,286.083z M102.263,286.548
			c-1.123-0.062-2.243-0.146-3.36-0.253c0.001-0.013,0.007-0.021,0.007-0.032c0-1.166-0.002-2.328,0.094-3.479
			c1.178,0.063,2.355,0.115,3.535,0.149C102.409,284.134,102.297,285.338,102.263,286.548z M107.576,286.697
			c-1.106-0.003-2.213-0.028-3.317-0.066c0.03-1.223,0.145-2.438,0.275-3.649c1.014,0.017,2.028,0.029,3.042,0.028V286.697z
			 M112.909,286.604c-1.11,0.045-2.222,0.076-3.333,0.092v-3.697c1.112-0.013,2.224-0.03,3.333-0.058V286.604z M117.7,286.337
			c-0.93,0.066-1.859,0.122-2.791,0.172v-3.625c1.155-0.036,2.309-0.075,3.455-0.123C118.182,283.961,118.022,285.166,117.7,286.337
			z M123.459,285.848c-1.214,0.119-2.434,0.229-3.656,0.328c0.257-1.153,0.394-2.333,0.589-3.5c1.509-0.066,3.011-0.136,4.496-0.208
			C124.303,283.561,123.813,284.688,123.459,285.848z M204.384,287.882c-0.956,4.402-2.884,8.438-6.053,11.68
			c-2.319,2.372-5.374,3.415-8.558,3.81c0.098-0.105,0.191-0.22,0.293-0.323c0.904-0.921-0.51-2.336-1.414-1.414
			c-0.611,0.622-1.163,1.3-1.76,1.937c-0.736,0.015-1.471,0.009-2.195-0.018c0.559-0.723,1.164-1.405,1.756-2.109
			c0.824-0.98-0.584-2.402-1.414-1.414c-0.928,1.104-1.896,2.17-2.681,3.379c-1.354-0.106-2.706-0.25-4.054-0.443
			c1.006-1.08,1.971-2.199,3.131-3.128c1.006-0.806-0.418-2.212-1.414-1.414c-1.539,1.231-2.742,2.792-4.148,4.156
			c-0.945-0.162-1.891-0.333-2.835-0.515c0.573-0.625,1.173-1.228,1.772-1.826c0.912-0.913-0.502-2.327-1.414-1.414
			c-0.904,0.905-1.789,1.821-2.607,2.798c-1.233-0.247-2.467-0.498-3.699-0.74c1.011-0.975,2.053-1.917,3.104-2.852
			c0.967-0.858-0.453-2.268-1.414-1.414c-1.393,1.238-2.776,2.483-4.08,3.813c-0.479-0.089-0.957-0.18-1.436-0.262
			c0.566-0.583,1.137-1.162,1.711-1.736c0.913-0.913-0.501-2.327-1.414-1.414c-0.912,0.913-1.812,1.838-2.697,2.774
			c-0.707-0.101-1.412-0.206-2.12-0.285c-0.404-0.045-0.811-0.099-1.216-0.145c0.766-0.823,1.58-1.603,2.43-2.337
			c0.977-0.846-0.444-2.254-1.414-1.414c-1.234,1.066-2.367,2.22-3.406,3.467c-0.886-0.104-1.77-0.203-2.656-0.314
			c1.143-1.062,2.285-2.119,3.261-3.344c0.796-0.997-0.61-2.423-1.414-1.414c-1.3,1.632-2.891,2.975-4.39,4.41
			c-0.521-0.074-1.045-0.133-1.566-0.213c1.034-1.015,2.051-2.045,2.954-3.185c0.792-0.999-0.613-2.426-1.414-1.414
			c-1.201,1.516-2.597,2.843-3.976,4.188c-0.621-0.108-1.245-0.207-1.863-0.329c1.212-1.411,2.523-2.734,3.841-4.052
			c0.913-0.913-0.501-2.327-1.414-1.414c-1.61,1.61-3.185,3.241-4.616,5.005c-0.71-0.16-1.418-0.328-2.121-0.511
			c1.178-1.42,2.434-2.774,3.734-4.084c0.91-0.915-0.504-2.33-1.414-1.414c-1.554,1.564-3.035,3.194-4.41,4.915
			c-0.6-0.179-1.201-0.352-1.796-0.551c-0.015-0.005-0.036-0.013-0.052-0.019c1.147-1.316,2.232-2.688,3.457-3.937
			c0.903-0.921-0.51-2.336-1.414-1.414c-1.424,1.451-2.666,3.062-4.03,4.567c-0.657-0.298-1.323-0.645-1.808-1.013
			c1.665-2.117,3.636-3.966,5.445-5.955c0.866-0.95-0.544-2.37-1.414-1.414c-1.416,1.559-2.904,3.04-4.298,4.61
			c0.034-0.436-0.013-0.854-0.112-1.253c1.108-1.408,2.229-2.807,3.416-4.151c0.85-0.963-0.56-2.383-1.414-1.414
			c-0.586,0.663-1.146,1.348-1.707,2.029c1.526-2.789,4.295-5.239,6.369-7.054c6.323-5.531,14.139-9.516,21.748-12.943
			c7.788-3.508,16.067-6.193,24.465-7.77c5.612-1.053,12.061-1.963,16.236,2.555C206.818,267.336,206.121,279.895,204.384,287.882z
			 M215.247,285.963c-0.67,0.05-1.34,0.093-2.01,0.159c0.175-1.052,0.301-2.116,0.405-3.186c0.567,0.003,1.138,0.018,1.706,0.022
			C215.277,283.958,215.251,284.96,215.247,285.963z M219.875,285.733c-0.876,0.017-1.754,0.057-2.631,0.1
			c0.003-0.95,0.03-1.899,0.101-2.847c0.908,0.014,1.814,0.02,2.725,0.037C220.002,283.927,219.937,284.83,219.875,285.733z
			 M224.743,285.791c-0.955-0.046-1.91-0.071-2.867-0.079c0.061-0.883,0.125-1.765,0.19-2.646c0.892,0.019,1.783,0.035,2.677,0.057
			V285.791z M228.515,286.074c-0.589-0.061-1.182-0.088-1.771-0.133v-2.771c0.742,0.02,1.483,0.034,2.227,0.054
			C228.848,284.176,228.689,285.125,228.515,286.074z M233.079,286.706c-0.857-0.152-1.717-0.283-2.578-0.398
			c0.185-1.01,0.344-2.021,0.47-3.033c0.771,0.019,1.541,0.039,2.312,0.058C233.159,284.454,233.083,285.578,233.079,286.706z
			 M237.84,287.734c-0.93-0.246-1.865-0.463-2.803-0.662c-0.018-1.233,0.079-2.469,0.228-3.697c1.014,0.022,2.027,0.049,3.042,0.067
			C238.107,284.868,237.938,286.298,237.84,287.734z M242.784,289.291c-0.764-0.284-1.512-0.552-2.229-0.781
			c-0.245-0.077-0.493-0.137-0.739-0.211c0.092-1.614,0.266-3.223,0.492-4.824c1.088,0.017,2.176,0.042,3.264,0.051
			C243.395,285.454,243.104,287.371,242.784,289.291z M245.897,290.494c-0.42-0.166-0.834-0.329-1.246-0.49
			c0.017-0.051,0.046-0.086,0.056-0.144c0.35-2.102,0.677-4.201,0.867-6.317c0.435,0.001,0.868,0.015,1.302,0.014
			C246.51,285.866,246.111,288.168,245.897,290.494z M251.025,287.756c-0.252,1.482-0.481,2.973-0.629,4.469
			c-0.863-0.312-1.719-0.639-2.563-0.968c0.19-2.591,0.639-5.15,1.046-7.72c0.975-0.009,1.95-0.012,2.924-0.031
			C251.653,284.95,251.25,286.439,251.025,287.756z M253.534,293.265c-0.391-0.115-0.78-0.243-1.17-0.37
			c0.356-3.094,1.369-6.332,1.492-9.437c0.443-0.013,0.887-0.016,1.329-0.031C254.986,286.735,254.305,290.041,253.534,293.265z
			 M255.465,293.785c0.814-3.419,1.53-6.938,1.725-10.452c1.014-0.046,2.03-0.077,3.043-0.141c-0.23,3.621-1.439,7.468-2.492,11.037
			C256.985,294.117,256.227,293.965,255.465,293.785z M262.541,294.354c-0.911,0.113-1.84,0.139-2.781,0.091
			c1.079-3.687,2.263-7.611,2.483-11.351c0-0.017-0.008-0.026-0.007-0.044c0.485-0.035,0.97-0.065,1.454-0.106
			C263.583,286.759,263.229,290.605,262.541,294.354z M266.816,293.198c-0.305,0.059-0.613,0.141-0.927,0.275
			c-0.408,0.175-0.826,0.311-1.245,0.438c0.623-3.678,0.953-7.43,1.049-11.153c0.672-0.065,1.344-0.126,2.014-0.201
			C267.568,286.116,267.023,289.645,266.816,293.198z M268.811,293.303c0.206-3.669,0.782-7.307,0.905-10.98
			c1.372-0.176,2.742-0.368,4.107-0.59c-1.514,4.019-2.665,8.148-3.563,12.348C269.831,293.739,269.341,293.47,268.811,293.303z
			 M340.837,289.477c-5.048,11.894-11.286,23.48-17.542,34.767c-8.519,15.368-16.354,30.691-23.001,46.97
			c-5.287,12.946-10.631,26.054-18.928,37.417c-4.459,6.108-15.623,20.01-24.043,13.295c2.139-3.256,4.212-6.561,6.626-9.622
			c0.789-1.001-0.616-2.427-1.414-1.414c-2.479,3.144-4.625,6.513-6.821,9.852c-0.248-0.118-0.498-0.215-0.75-0.278
			c-0.863-1.059-1.26-2.399-1.336-3.896c2.791-3.387,5.889-6.493,8.988-9.596c0.912-0.913-0.502-2.327-1.414-1.414
			c-2.482,2.483-4.965,4.972-7.289,7.601c0.518-2.696,1.633-5.587,2.773-8.177c2.846-2.467,5.283-5.334,7.93-8.01
			c0.906-0.918-0.507-2.332-1.414-1.414c-1.432,1.447-2.797,2.956-4.198,4.428c0.153-0.329,0.298-0.646,0.424-0.932
			c1.39-3.157,2.543-6.422,3.536-9.754c1.734-1.704,3.51-3.364,5.449-4.838c1.014-0.77,0.019-2.507-1.01-1.727
			c-1.187,0.9-2.311,1.866-3.408,2.86c0.488-1.868,0.93-3.755,1.348-5.646c2.066-1.784,4.006-3.71,5.939-5.645
			c0.914-0.911-0.5-2.325-1.414-1.414c-1.263,1.264-2.525,2.534-3.828,3.763c0.531-2.611,1.016-5.231,1.49-7.843
			c1.641-1.56,3.319-3.077,5.086-4.506c1.003-0.811-0.422-2.217-1.414-1.414c-1.057,0.854-2.076,1.746-3.082,2.653
			c0.235-1.312,0.475-2.607,0.714-3.91c1.273-1.312,2.487-2.684,3.782-3.996c0.905-0.919-0.508-2.334-1.414-1.414
			c-0.583,0.592-1.146,1.202-1.706,1.817c0.269-1.432,0.534-2.861,0.798-4.29c1.166-1.498,2.574-2.785,4.119-3.957
			c1.014-0.769,0.02-2.507-1.01-1.727c-0.855,0.648-1.676,1.328-2.451,2.047c0.292-1.633,0.568-3.266,0.843-4.897
			c1.134-1.22,2.31-2.399,3.487-3.579c0.913-0.913-0.501-2.326-1.414-1.414c-0.508,0.51-1.012,1.021-1.514,1.531
			c0.301-1.908,0.582-3.819,0.849-5.734c1.028-1.011,2.066-2.011,3.21-2.894c1.006-0.774,0.012-2.515-1.01-1.727
			c-0.621,0.479-1.209,0.996-1.783,1.525c0.235-1.855,0.441-3.722,0.631-5.592c1.455-1.455,2.91-2.909,4.365-4.364
			c0.912-0.913-0.502-2.326-1.414-1.414c-0.883,0.884-1.767,1.767-2.649,2.648c0.153-1.732,0.306-3.464,0.461-5.195
			c0.97-0.827,1.833-1.771,2.425-2.906c0.597-1.143-1.129-2.153-1.727-1.011c-0.111,0.213-0.258,0.399-0.39,0.599
			c0.177-1.849,0.366-3.693,0.575-5.537c1.672-1.788,3.658-3.236,5.85-4.359c1.148-0.588,0.136-2.312-1.01-1.727
			c-1.623,0.832-3.108,1.839-4.469,2.997c0.26-2.042,0.553-4.079,0.887-6.11c1.823-1.174,3.459-2.597,5.258-3.827
			c1.058-0.723,0.059-2.457-1.01-1.727c-1.297,0.887-2.512,1.873-3.77,2.799c0.184-0.987,0.379-1.976,0.588-2.959
			c0.361-1.698,0.77-3.394,1.234-5.072c2.242-1.638,4.5-3.256,6.493-5.197c0.926-0.899-0.489-2.312-1.413-1.414
			c-1.287,1.254-2.688,2.369-4.121,3.446c0.77-2.342,1.671-4.633,2.731-6.845c2.167-1.29,4.352-2.556,6.602-3.697
			c1.149-0.584,0.138-2.309-1.011-1.727c-1.282,0.651-2.541,1.348-3.79,2.061c1.461-2.496,3.154-4.859,5.163-7.011
			c6.586-7.056,15.82-9.586,24.941-11.555c8.586-1.853,20.424-3.438,27.489,3.084C350.063,268.255,344.069,281.857,340.837,289.477z
			 M356.994,275.066c-1.154,0.491-2.331,0.914-3.545,1.229c0.475-2.861,0.661-5.745,0.416-8.621
			c-0.016-0.165-0.044-0.315-0.062-0.478c1.224-0.215,2.447-0.409,3.671-0.614C357.34,269.412,357.117,272.236,356.994,275.066z
			 M362.406,270.338c-0.049,0.295-0.088,0.59-0.114,0.885c-0.005,0.035-0.009,0.071-0.014,0.106
			c-0.01,0.054-0.007,0.103-0.008,0.153c-0.021,0.283-0.036,0.566-0.047,0.852c-1.055,0.628-2.116,1.232-3.197,1.779
			c0.137-2.623,0.343-5.243,0.46-7.868c1.141-0.187,2.281-0.362,3.423-0.542C362.772,267.251,362.613,268.797,362.406,270.338z
			 M367.275,266.077c-0.107,0.607-0.257,1.209-0.346,1.82c-0.081,0.565-0.166,1.126-0.27,1.685
			c-0.784,0.493-1.567,0.988-2.352,1.479c0.021-0.152,0.035-0.306,0.064-0.457c0.006-0.033-0.004-0.061,0-0.093
			c0.221-1.705,0.39-3.415,0.544-5.126c0.827-0.128,1.656-0.242,2.484-0.367C367.37,265.373,367.325,265.726,367.275,266.077z
			 M373.228,266.196c-1.467,0.638-2.899,1.354-4.342,2.061c0.009-0.065,0.019-0.131,0.027-0.196
			c0.136-0.932,0.392-1.829,0.472-2.771c0.003-0.034-0.011-0.057-0.011-0.09c0.019-0.16,0.041-0.32,0.054-0.481
			c1.317-0.196,2.638-0.369,3.955-0.561C373.281,264.84,373.212,265.515,373.228,266.196z M377.505,264.689
			c-0.779,0.199-1.54,0.441-2.29,0.713c0.036-0.395,0.103-0.787,0.164-1.166c0.02-0.114,0.016-0.228,0.006-0.338
			c0.027-0.01,0.054-0.021,0.08-0.03c0-0.001,0.001-0.003,0.001-0.005l0.026-0.004c0.005-0.002,0.011-0.004,0.016-0.006
			c0.078-0.088,0.173-0.165,0.314-0.205c0.56-0.16,1.121-0.3,1.683-0.449V264.689z M379.505,264.11v-1.426
			c0.805-0.194,1.611-0.376,2.419-0.551c-0.02,0.469-0.01,0.938,0.031,1.41C381.137,263.724,380.32,263.911,379.505,264.11z
			 M383.902,263.141c-0.031-0.474-0.021-0.949,0.038-1.419c0.64-0.127,1.282-0.229,1.925-0.346c-0.015,0.466-0.011,0.933,0.01,1.401
			C385.218,262.897,384.559,263.009,383.902,263.141z M390.01,262.1c-0.719,0.109-1.438,0.202-2.155,0.322
			c-0.019-0.469-0.023-0.938,0.006-1.405c0.721-0.119,1.442-0.226,2.165-0.335C390.015,261.153,390.011,261.626,390.01,262.1z
			 M392.012,261.799c0.002-0.471,0.013-0.942,0.023-1.413c0.46-0.064,0.923-0.116,1.383-0.178c0.03,0.466,0.076,0.932,0.123,1.396
			C393.032,261.674,392.52,261.729,392.012,261.799z M395.519,261.355c-0.044-0.467-0.089-0.934-0.115-1.401
			c0.446-0.056,0.896-0.1,1.344-0.153c0.055,0.46,0.104,0.92,0.137,1.382C396.429,261.242,395.974,261.297,395.519,261.355z
			 M401.414,260.73c-0.852,0.067-1.699,0.141-2.549,0.212c-0.039-0.456-0.09-0.911-0.146-1.366c0.835-0.095,1.667-0.199,2.503-0.285
			c0.058,0.457,0.125,0.913,0.208,1.367c-0.009,0.001-0.019,0.002-0.026,0.003C401.406,260.685,401.411,260.707,401.414,260.73z
			 M403.397,260.45l-0.008,0.001c-0.003-0.053,0.005-0.104-0.005-0.156c-0.076-0.399-0.135-0.802-0.186-1.204
			c0.285-0.028,0.567-0.058,0.854-0.086c0.244-0.024,0.487-0.056,0.731-0.081c0.023,0.51,0.054,1.019,0.076,1.527
			c-0.482,0.039-0.965,0.083-1.445,0.121C403.41,260.53,403.402,260.489,403.397,260.45z M409.504,260.062
			c-0.882,0.081-1.766,0.148-2.647,0.223c-0.026-0.526-0.059-1.054-0.08-1.581c0.912-0.102,1.825-0.193,2.737-0.303
			C409.49,258.951,409.5,259.502,409.504,260.062z M351.511,259.511c-7.4-13.423-29.871-11.244-43.011-7.969
			c-13.329,3.323-23.796,10.128-30.535,21.448c-0.355-0.017-0.726-0.003-1.119,0.08c-20.546,4.351-42.232,2.002-63.092,1.868
			c-0.6-8.308-3.434-16.196-8.688-21.182c-4.668-4.431-11.273-4.632-17.312-4.015c-8.152,0.832-16.103,3.198-23.751,6.058
			c-10.95,4.094-21.583,9.492-30.665,16.912c-0.736,0.602-1.477,1.246-2.205,1.926c-0.527-0.259-1.149-0.41-1.891-0.376
			c-16.729,0.761-36.695,2.777-52.627-3.892c1.494-1.599,3.518-2.935,4.74-3.72c4.461-2.867,9.575-4.408,14.692-5.606
			c7.655-1.793,15.306-3.611,22.938-5.5c14.91-3.688,29.73-7.746,44.328-12.531c28.082-9.205,53.974-22.933,79.924-36.874
			c26.65-14.317,53.354-27.482,82.092-37.122c29.299-9.829,60.206-17.75,90.938-21.389c12.522-1.483,25.289-1.724,37.707,0.701
			c12.231,2.389,23.456,7.742,33.81,14.562c1.273,0.839,2.531,1.696,3.778,2.562c-5.817,5.079-12.693,8.347-19.976,10.952
			c-2.964,1.061-6.093,2.323-9.231,2.739c-2.307,0.307-4.527,0.458-6.386,2.018c-7.669,6.438,1.502,20.836,7.909,24.61
			c8.994,5.299,21.427,0.369,29.979-3.384c9.618-4.221,19.061-10.058,27.037-17.016c1.203,0.664,2.418,1.313,3.661,1.931
			c7.601,3.774,18.627,5.617,25.933,11.119c-2.368,5.785-9.062,10.51-13.682,14.275c-6.257,5.103-13.002,9.36-20.247,12.919
			c-15.868,7.793-33.598,11.461-50.829,14.833c-18.354,3.591-36.646,7.666-55.134,10.506
			C390.926,253.978,371.12,256.06,351.511,259.511z M474.494,184.317c-1.289,5.118-2.547,10.245-3.454,15.446
			c-0.323-0.047-0.648-0.085-0.969-0.149c-1.344-0.271-2.422-0.881-3.339-1.686c1.286-4.25,2.684-8.461,4.419-12.55
			C472.265,185.062,473.381,184.705,474.494,184.317z M466.407,186.508c-0.961,2.476-1.83,4.982-2.643,7.513
			c-0.365-0.632-0.719-1.272-1.074-1.898c-0.743-1.31-1.83-3.134-1.423-4.757c0.034,0.195,0.49-0.149,1.089-0.222
			c1.014-0.122,2.021-0.27,3.025-0.439C465.723,186.648,466.065,186.574,466.407,186.508z M411.51,259.864
			c-0.004-0.104-0.01-0.209-0.014-0.313c0,0-0.004,0-0.005,0.001c-0.017-0.466-0.023-0.935,0.022-1.395
			c1.081-0.137,2.159-0.289,3.238-0.435c0.044,0.487,0.091,0.976,0.139,1.464c0.003,0.099,0.007,0.197,0.01,0.297
			C413.771,259.617,412.642,259.751,411.51,259.864z M416.897,259.244c-0.001-0.011-0.002-0.021-0.003-0.03
			c-0.003-0.125-0.01-0.249-0.014-0.373l-0.022,0.003c-0.049-0.462-0.084-0.924-0.121-1.387c1.553-0.217,3.104-0.452,4.653-0.68
			c0.023,0.596,0.048,1.19,0.114,1.783c0.001,0.007,0.005,0.012,0.006,0.02C419.975,258.812,418.438,259.04,416.897,259.244z
			 M426.909,257.359v0.342c-1.135,0.193-2.271,0.388-3.407,0.568c-0.005-0.131-0.012-0.262-0.017-0.393
			c-0.013,0.002-0.023,0.004-0.035,0.005c-0.032-0.465-0.056-0.93-0.072-1.396c1.138-0.169,2.276-0.335,3.414-0.505
			c0.021,0.46,0.069,0.918,0.122,1.377C426.912,257.359,426.91,257.359,426.909,257.359z M428.909,257.358v-0.304
			c-0.016,0.002-0.028,0.004-0.043,0.007c-0.055-0.455-0.089-0.912-0.101-1.371c1.129-0.168,2.259-0.333,3.387-0.501
			c0.016,0.457,0.018,0.914,0.019,1.37c0,0.017,0.009,0.027,0.009,0.044c0.008,0.05,0.016,0.099,0.021,0.148
			C431.104,256.954,430.008,257.167,428.909,257.358z M439.479,255.375c-1.77,0.342-3.539,0.685-5.311,1.016
			c-0.001-0.499-0.012-0.996-0.036-1.492c0.563-0.083,1.126-0.169,1.689-0.25c0.014-0.002,0.024,0.003,0.039,0.002
			c1.229-0.237,2.456-0.475,3.685-0.714C439.532,254.417,439.51,254.896,439.479,255.375z M441.498,254.985
			c0.023-0.479,0.04-0.958,0.052-1.438c2.026-0.398,4.052-0.807,6.077-1.214c0.018,0.482,0.033,0.964,0.067,1.443
			C445.629,254.18,443.563,254.583,441.498,254.985z M449.667,253.396c-0.03-0.484-0.046-0.971-0.059-1.457
			c1.755-0.354,3.507-0.718,5.261-1.076c0.119,0.492,0.229,0.985,0.327,1.481C453.353,252.688,451.51,253.04,449.667,253.396z
			 M460.846,251.321c-1.229,0.214-2.459,0.441-3.688,0.667c-0.102-0.511-0.213-1.019-0.334-1.526
			c1.655-0.34,3.309-0.677,4.964-1.018c-0.005,0.569,0.021,1.139,0.068,1.708C461.521,251.211,461.183,251.263,460.846,251.321z
			 M463.844,250.822c-0.046-0.597-0.06-1.194-0.039-1.791c1.053-0.217,2.104-0.431,3.154-0.646c0.023,0.639,0.062,1.276,0.116,1.913
			C465.998,250.476,464.921,250.641,463.844,250.822z M469.047,249.979c-0.054-0.665-0.088-1.331-0.106-1.999
			c1.394-0.286,2.786-0.572,4.18-0.857c0.079,0.729,0.156,1.456,0.236,2.185C471.919,249.529,470.482,249.746,469.047,249.979z
			 M475.322,249c-0.086-0.76-0.169-1.521-0.246-2.28c0.967-0.199,1.933-0.402,2.898-0.608c0.137,0.812,0.203,1.635,0.235,2.461
			C477.248,248.714,476.285,248.853,475.322,249z M480.196,248.276c-0.04-0.87-0.118-1.736-0.266-2.591
			c0.897-0.196,1.793-0.398,2.688-0.603c0.128,0.938,0.199,1.881,0.237,2.826C481.972,248.036,481.082,248.148,480.196,248.276z
			 M484.84,247.635c-0.047-1.005-0.13-2.008-0.271-3.005c0.561-0.132,1.119-0.269,1.681-0.403c0.011,1.07,0.05,2.139,0.184,3.194
			C485.902,247.495,485.37,247.562,484.84,247.635z M488.416,247.155c-0.146-1.129-0.17-2.271-0.173-3.418
			c0.891-0.223,1.775-0.463,2.665-0.694c0.007,1.254,0.052,2.517,0.213,3.757C490.22,246.919,489.316,247.034,488.416,247.155z
			 M493.101,246.54c-0.175-1.323-0.198-2.678-0.195-4.017c0.678-0.184,1.35-0.382,2.024-0.571c0.018,0.781,0.045,1.562,0.098,2.342
			c0.042,0.638,0.081,1.326,0.231,1.973C494.54,246.357,493.819,246.446,493.101,246.54z M497.185,246.022
			c-0.237-0.645-0.188-2.159-0.219-2.806c-0.028-0.608-0.042-1.217-0.049-1.825c0.894-0.262,1.783-0.536,2.673-0.811
			c0.012,0.879,0.034,1.758,0.081,2.637c0.037,0.717,0.039,1.662,0.241,2.48C499.003,245.805,498.093,245.909,497.185,246.022z
			 M504.257,245.182c-0.757,0.096-1.514,0.187-2.269,0.271c-0.02,0.002-0.037,0.005-0.057,0.007
			c-0.336-0.755-0.245-1.923-0.284-2.654c-0.05-0.948-0.062-1.896-0.066-2.847c0.782-0.25,1.561-0.512,2.339-0.772
			C504.275,241.106,504.279,243.179,504.257,245.182z M510.909,244.16c-1.553,0.279-3.104,0.531-4.656,0.751
			c0.015-2.137-0.009-4.339-0.419-6.381c1.702-0.593,3.395-1.215,5.075-1.865V244.16z M512.909,243.782v-7.913
			c1.727-0.697,3.436-1.44,5.135-2.208c0.614,2.833,0.969,5.719,1.619,8.54C517.431,242.805,515.176,243.333,512.909,243.782z
			 M521.587,241.649c-0.672-2.92-1.025-5.909-1.684-8.836c1.325-0.625,2.639-1.281,3.943-1.955c0.741,3.215,0.972,6.459,1.034,9.737
			C523.791,240.967,522.694,241.322,521.587,241.649z M526.866,239.889c-0.092-3.365-0.38-6.698-1.192-9.993
			c0.226-0.12,0.451-0.233,0.675-0.355c0.896-0.49,1.778-1,2.653-1.525c-0.074,0.228-0.08,0.484,0.044,0.752
			c1.39,3.006,1.74,6.228,1.831,9.478C529.557,238.829,528.223,239.384,526.866,239.889z M532.823,237.35
			c-0.158-3.29-0.627-6.513-2.052-9.592c-0.133-0.288-0.338-0.44-0.562-0.494c1.193-0.743,2.367-1.521,3.527-2.317
			c1.116,3.602,1.695,7.242,1.812,11.001C534.651,236.434,533.744,236.904,532.823,237.35z M541.647,232.148
			c-1.47,1.029-2.88,1.937-4.143,2.692c-0.195-3.691-0.82-7.294-1.965-10.845c-0.029-0.092-0.081-0.154-0.126-0.226
			c1.63-1.165,3.228-2.377,4.803-3.616C541.544,224.03,542.037,228.046,541.647,232.148z M543.758,230.611
			c0.174-4.019-0.487-7.978-1.901-11.767c1.31-1.058,2.606-2.129,3.885-3.217c0.301-0.256,0.604-0.519,0.906-0.78
			c1.361,3.699,2.021,7.531,2.205,11.454C547.212,227.863,545.473,229.312,543.758,230.611z M550.735,224.404
			c-0.312-3.752-1.068-7.434-2.486-10.965c1.417-1.272,2.817-2.609,4.125-4.024c0.003,0.006,0.002,0.012,0.006,0.018
			c1.637,3.093,2.205,6.385,2.409,9.754C553.671,221.004,552.28,222.755,550.735,224.404z M556.453,215.896
			c-0.381-2.565-1.074-5.067-2.347-7.473c-0.123-0.232-0.299-0.355-0.484-0.427c0.863-1.024,1.673-2.087,2.395-3.199
			c0.212,0.411,0.413,0.831,0.596,1.269C557.981,209.37,557.718,212.701,556.453,215.896z"/>
		<path d="M251.767,225.199c-0.554-2.243-2.825-3.188-4.92-2.794c-7.574,1.428-15.03,3.596-22.668,4.667
			c-3.061,0.43-3.482,3.381-2.245,5.518c0.806,11.787,5.612,30.539,20.835,29.052c4.926-0.481,14.802-4.157,14.975-10.296
			c0.083-2.956-1.287-5.984-1.977-8.812C254.361,236.772,253.188,230.957,251.767,225.199z M230.07,234.167
			c3.168-0.577,6.312-1.289,9.457-2.006c-2.664,3.921-4.933,8.109-7.421,12.156C230.967,240.774,230.355,236.946,230.07,234.167z
			 M233.989,248.8c3.757-5.731,6.743-12.017,11.022-17.382c0.285,1.259,0.562,2.521,0.84,3.782
			c-3.168,5.543-7.083,10.636-9.855,16.4C235.244,250.816,234.577,249.864,233.989,248.8z M242.787,253.584
			c-1.231,0.33-2.35,0.339-3.365,0.096c2.164-4.518,5.024-8.624,7.698-12.847c0.578,2.498,1.186,4.986,1.889,7.445
			c0.207,0.723,0.42,1.442,0.617,2.168C247.875,251.982,244.902,253.019,242.787,253.584z"/>
		<path d="M280.178,215.071c-6.404,1.344-12.928,1.989-19.332,3.333c-1.545,0.324-2.41,1.273-2.731,2.401
			c-1.671,0.674-2.849,2.302-2.062,4.521c3.145,8.878,5.989,17.859,9.333,26.667c0.73,1.925,2.721,3.562,4.92,2.793
			c7.957-2.783,16.991-4.324,20.499-12.959c3.167-7.795-4.418-16.522-5.705-23.961C284.711,215.624,282.146,214.66,280.178,215.071z
			 M264.664,225.786c2.209-0.423,4.429-0.78,6.651-1.127c-1.453,2.661-2.865,5.344-4.277,8.028
			C266.25,230.385,265.463,228.083,264.664,225.786z M270.146,241.628c-0.44-1.257-0.893-2.509-1.328-3.768
			c2.51-4.661,4.879-9.398,7.508-13.995c0.652-0.106,1.306-0.209,1.957-0.321c0.213,0.661,0.449,1.316,0.695,1.968
			C275.638,230.65,273.112,236.263,270.146,241.628z M272.324,245.88c3.046-5.151,5.499-10.636,8.526-15.786
			c0.951,2.267,1.867,4.546,2.443,6.925C284.525,242.096,277.57,244.416,272.324,245.88z"/>
		<path d="M314.846,201.071c-5.984,2.105-11.669,5.052-18,6c-1.513,0.227-2.371,1.072-2.716,2.122
			c-1.198,0.843-1.933,2.289-1.411,4.132c2.591,9.158,4.918,18.346,9.069,26.955c0.812,1.686,2.851,2.16,4.518,1.838
			c8.016-1.546,17.749-4.564,20.613-13.102c2.693-8.031-5.064-17.764-7.152-25.151C319.205,201.878,316.915,200.344,314.846,201.071
			z M301.309,214.344c2.1-0.476,4.138-1.14,6.151-1.883c-1.543,2.539-2.973,5.154-4.535,7.692
			C302.374,218.22,301.842,216.281,301.309,214.344z M305.695,228.938c-0.446-1.252-0.87-2.512-1.271-3.779
			c0.015-0.021,0.031-0.033,0.046-0.053c3.32-4.718,5.63-10.097,9.134-14.662c0.172,0.43,0.351,0.857,0.528,1.285
			C311.125,217.368,308.618,223.255,305.695,228.938z M307.695,233.685c3.092-5.608,5.609-11.501,8.481-17.218
			c1.086,2.513,2.117,5.047,2.829,7.702C320.55,229.928,313.18,232.434,307.695,233.685z"/>
		<path d="M350.179,189.738c-6.646,2.314-12.956,5.396-18.955,9.069c-1.322,0.81-1.873,2.005-1.889,3.205
			c-0.319,0.733-0.365,1.622,0.051,2.646c4.094,10.081,5.059,21.063,9.736,30.956c0.695,1.471,2.979,2.458,4.518,1.838
			c7.76-3.134,21.223-5.937,21.604-16.523c0.369-10.252-7.49-18.892-10.144-28.396C354.543,190.539,352.245,189.02,350.179,189.738z
			 M339.123,208.485c-0.417-1.429-0.857-2.85-1.368-4.248c1.756-1.015,3.538-1.976,5.349-2.876
			C341.617,203.65,340.301,206.027,339.123,208.485z M340.687,214.357c0.197-0.192,0.364-0.435,0.484-0.73
			c1.895-4.637,4.327-8.991,7.299-13.022c0.467-0.634,0.465-1.258,0.199-1.764c0.041-0.017,0.081-0.036,0.123-0.053
			c0.377,0.953,0.787,1.892,1.209,2.826c-2.646,5.288-5.339,10.553-8.647,15.462C341.131,216.17,340.91,215.265,340.687,214.357z
			 M344.759,228.589c-1.035-2.666-1.837-5.409-2.562-8.179c0.784,0.221,1.689,0.043,2.272-0.806
			c2.929-4.266,5.364-8.814,7.699-13.42c1.669,3.415,3.342,6.828,4.492,10.452C359.024,224.079,350.988,226.535,344.759,228.589z"/>
		<path d="M386.557,182.809c-4.82,2.791-10.438,4.012-15.979,4.121c-1.67,0.032-2.79,0.899-3.379,2.047
			c-1.396,0.801-2.345,2.334-1.812,4.35c2.684,10.165,6.35,32.188,20.047,33.016c7.52,0.455,13.676-5.815,14.246-13.061
			c0.769-9.723-3.706-19.281-7.246-28.082C391.482,182.833,388.988,181.4,386.557,182.809z M375.459,200.052
			c-0.504-1.769-0.978-3.547-1.44-5.327c1.533-0.139,3.062-0.355,4.575-0.647C377.548,196.068,376.505,198.062,375.459,200.052z
			 M377.522,206.464c-0.133-0.354-0.245-0.715-0.371-1.072c2.251-4.218,4.442-8.467,6.694-12.686
			c0.891-0.296,1.771-0.618,2.638-0.979c0.376,0.947,0.742,1.897,1.104,2.851c-3.227,4.75-5.639,10.014-9.051,14.637
			C378.14,208.177,377.802,207.218,377.522,206.464z M385.078,218.167c-1.952-0.547-3.5-2.552-4.72-4.847
			c0.103-0.088,0.202-0.189,0.298-0.311c3.372-4.283,5.715-9.215,8.589-13.806c0.861,2.592,1.605,5.221,2.15,7.914
			C392.235,211.266,391.55,219.981,385.078,218.167z"/>
		<path d="M439.767,181.199c-0.422-1.668-2.116-3.008-3.856-2.938c-7.495,0.308-13.876,3.971-21.063,5.477
			c-0.021,0.005-0.04,0.015-0.062,0.02c-1.917,0.088-3.694,1.355-3.54,3.837c0.901,14.503,3.907,29.463,9.615,42.848
			c1.77,4.149,5.402,11.997,10.404,12.927c2.632,0.488,5.187-0.804,7.648-1.544c2.944-0.886,5.948-1.571,8.895-2.456
			c4.892-1.469,9.805-2.905,10.278-8.714c0.417-5.099-1.707-10.365-3.521-15.016C450.076,204.144,442.804,193.193,439.767,181.199z
			 M450.122,230.177c-0.723,0.336-1.56,0.542-2.255,0.781c-4.662,1.603-9.515,2.559-14.179,4.145
			c-0.146,0.05-0.276,0.085-0.399,0.114c1.165-1.569,2.389-3.096,3.549-4.672c0.766-1.041-0.972-2.037-1.727-1.01
			c-1.053,1.429-2.159,2.815-3.226,4.231c-0.21-0.354-0.392-0.671-0.522-0.857c-0.304-0.431-0.589-0.87-0.866-1.314
			c1.373-2.225,2.665-4.486,4.501-6.379c0.896-0.926-0.515-2.342-1.414-1.414c-1.694,1.746-2.962,3.779-4.224,5.83
			c-0.248-0.461-0.49-0.926-0.722-1.396c1.259-2.403,2.887-4.592,4.675-6.628c0.849-0.965-0.562-2.385-1.413-1.414
			c-1.58,1.798-3.076,3.699-4.305,5.759c-0.119-0.28-0.246-0.557-0.359-0.84c-0.113-0.281-0.21-0.572-0.32-0.854
			c1.476-2.18,2.747-4.5,4.475-6.498c0.839-0.971-0.568-2.392-1.414-1.414c-1.502,1.736-2.688,3.684-3.927,5.603
			c-0.096-0.27-0.205-0.53-0.3-0.8c1.198-2.073,2.521-4.07,4.197-5.794c0.898-0.925-0.515-2.34-1.414-1.414
			c-1.384,1.423-2.544,3.025-3.599,4.699c-0.168-0.525-0.351-1.043-0.511-1.573c0.896-1.339,1.832-2.646,2.877-3.877
			c0.83-0.977-0.578-2.398-1.414-1.414c-0.767,0.903-1.488,1.838-2.181,2.796c-0.063-0.23-0.134-0.457-0.195-0.688
			c0.953-1.62,1.996-3.187,3.311-4.542c0.896-0.926-0.517-2.341-1.414-1.414c-0.973,1.003-1.81,2.113-2.574,3.273
			c-0.139-0.565-0.289-1.127-0.42-1.695c1.298-1.656,2.686-3.239,4.167-4.733c0.909-0.916-0.505-2.33-1.414-1.414
			c-1.16,1.17-2.244,2.405-3.295,3.669c-0.134-0.646-0.27-1.291-0.394-1.938c0.713-1.008,1.433-2.01,2.217-2.963
			c0.812-0.986-0.594-2.41-1.414-1.414c-0.45,0.547-0.869,1.118-1.291,1.686c-0.138-0.799-0.272-1.599-0.396-2.399
			c0.998-1.245,1.979-2.503,3.101-3.644c0.904-0.92-0.51-2.335-1.414-1.414c-0.732,0.745-1.404,1.542-2.062,2.353
			c-0.06-0.45-0.128-0.899-0.183-1.349c0.916-1.196,1.967-2.287,2.936-3.438c0.825-0.979-0.582-2.402-1.414-1.414
			c-0.595,0.707-1.216,1.393-1.823,2.089c-0.08-0.791-0.172-1.584-0.238-2.372c4.53-1.322,8.854-3.41,13.502-4.223
			c2.636,8.171,7.124,15.967,10.638,23.695c2.218,4.879,4.34,9.831,5.784,15.001c0.442,1.587,0.738,3.143,0.712,4.792
			C450.131,230.117,450.125,230.144,450.122,230.177z"/>
		<path d="M194.947,263.344c-1.06-0.732-2.114-1.141-3.14-1.299c-3.11-0.991-6.638-0.119-9.248,3.128
			c-8.771,8.991-2.269,41.684,12.469,30.266C203.402,288.952,203.748,269.422,194.947,263.344z"/>
	</g>
</g>
<g>
</g>
<g>
</g>
<g>
</g>
<g>
</g>
<g>
</g>
<g>
</g>
<g>
</g>
<g>
</g>
<g>
</g>
<g>
</g>
<g>
</g>
<g>
</g>
<g>
</g>
<g>
</g>
<g>
</g>
</svg>
