<?xml version="1.0" encoding="iso-8859-1"?>
<!-- Generator: Adobe Illustrator 16.0.0, SVG Export Plug-In . SVG Version: 6.00 Build 0)  -->
<!DOCTYPE svg PUBLIC "-//W3C//DTD SVG 1.1//EN" "http://www.w3.org/Graphics/SVG/1.1/DTD/svg11.dtd">
<svg version="1.1" id="Capa_1" xmlns="http://www.w3.org/2000/svg" xmlns:xlink="http://www.w3.org/1999/xlink" x="0px" y="0px"
	 width="548.405px" height="548.405px" viewBox="0 0 548.405 548.405" style="enable-background:new 0 0 548.405 548.405;"
	 xml:space="preserve">
<g>
	<g>
		<path d="M535.526,229.474c4.057-6.459,7.608-13.25,10.325-20.379c2.585-6.787,5-17.506-2.321-22.355
			c-8.172-5.414-20.742-1.711-29.201,0.959c-9.96,3.145-19.349,7.771-28.88,11.977c-0.272,0.12-0.508,0.26-0.723,0.409
			c-38.188-16.913-79.707-27.083-120.019-36.081c-31.14-6.949-62.6-12.41-94.262-16.345c-14.826-1.843-29.68-3.534-44.637-3.524
			c-14.427,0.009-28.829,1.449-43.082,3.597c-28.182,4.245-55.227,12.562-81.025,24.634c-24.217,11.332-46.992,25.464-70.119,38.83
			c-1.36,0.563-4.496,2.02-8.151,4.236c-11.005,6.631-19.795,16.889-22.773,28.891c-3.749,15.109,9.21,29.122,20.834,38.181
			c0.557,0.827,1.395,1.474,2.338,1.773c0.116,0.085,0.229,0.166,0.345,0.251c9.367,10.266,20.439,18.94,31.984,26.62
			c10.473,6.964,21.85,13.21,33.861,17.21c0.028,0.37,0.096,0.756,0.257,1.169c5.036,12.949,10.999,25.479,17.507,37.751
			c5.336,10.059,10.707,20.702,19.803,27.926c6.998,5.56,15.404,7.64,24.162,8.359c11.076,0.911,22.459,0.51,33.572,0.632
			c21.769,0.239,46.986,0.534,66.643-10.237c16.479-9.03,21.819-30.191,20.002-47.938c14.525-1.25,28.967-2.598,43.544-3.37
			c15.052-0.799,29.267-3.446,43.716-7.74c5.051-1.502,10.063-3.119,15.066-4.764c2.393,20.441,28.004,22.355,45.174,20.985
			c10.683-0.852,24.163-1.771,29.889-12.311c0.942-1.737,1.571-3.438,1.944-5.095c0.076,0.006,0.154,0,0.231,0.002
			c0.383,3.278,0.805,6.553,1.412,9.8c0.948,5.066,8.657,2.915,7.714-2.127c-0.564-3.019-0.966-6.06-1.328-9.105
			c1.067-0.214,2.135-0.427,3.201-0.641c2.14-0.429,3.341-2.934,2.794-4.92c-0.608-2.214-2.784-3.222-4.921-2.794
			c-0.665,0.134-1.331,0.267-1.996,0.398c-0.443-3.666-0.96-7.321-1.75-10.938c-1.101-5.039-8.812-2.901-7.714,2.127
			c0.565,2.594,0.985,5.208,1.347,7.831c-2.045-4.81-6.065-8.996-10.58-12.351c-0.594-0.521-1.21-1.008-1.854-1.45
			c3.351-1.217,6.692-2.456,10.025-3.719c8.729-3.307,17.316-7.009,25.944-10.595c0.337,0.533,0.852,1.004,1.621,1.34
			c11.95,5.215,23.809,10.756,36.362,14.392c8.289,2.4,20.771,5.614,28.214-0.614c11.371-9.52,1.435-29.513-3.136-40.409
			c0.128-0.107,0.247-0.222,0.372-0.332c1.221-0.26,2.286-1.104,2.7-2.679c3.827-4.308,6.269-9.614,6.548-16.021
			C546.884,242.395,542.278,234.39,535.526,229.474z M534.471,253.902c-13.794,3.936-27.434,8.391-41.231,12.312
			c-15.418,4.382-31.173,7.563-46.879,10.719c-31.714,6.37-63.665,11.353-95.697,15.805c-32.518,4.521-65.093,8.996-97.95,9.94
			c-31.565,0.908-63.526-1.745-94.759-6.221c-21.449-3.074-42.02-8.031-62.824-13.958c-10.536-3.001-21.42-4.144-31.947-7.165
			c-9.129-2.623-17.998-6.069-27.049-8.95c1.604-6.576,2.179-13.531,2.535-19.402c0.203-3.367,0.361-7.491,0.121-11.721
			c21.111-12.321,45.931-16.993,69.836-20.541c27.947-4.148,56.232-8.241,84.434-9.953c32.418-1.969,64.425,0.619,96.724,3.061
			c32.212,2.434,64.263,5.709,96.405,8.833c7.479,0.728,14.967,1.397,22.408,2.455c7.166,1.019,14.119,2.918,21.231,4.2
			c14.765,2.662,29.816,3.234,44.566,6.018c10.398,1.963,20.594,4.229,31.082,5.822c8.657,1.315,20.902,2.109,27.829,8.136
			c0.205,0.179,0.418,0.323,0.632,0.452c1.147,3.205,1.312,6.249,0.973,9.273C534.736,253.297,534.581,253.59,534.471,253.902z
			 M510.284,227.863c1.264-0.939,2.484-1.934,3.619-3.047c0.16-0.158,0.229-0.33,0.263-0.503c3.34,1.999,6.644,4.065,9.897,6.222
			c-3.714-0.954-7.514-1.605-11.118-2.232C512.059,228.148,511.171,228.009,510.284,227.863z M538.404,192.986
			c2.326,0.697,2.576,3.47,2.018,6.618c-1.126-2.315-2.286-4.616-3.353-6.96C537.518,192.743,537.963,192.855,538.404,192.986z
			 M534.734,192.275c1.546,3.51,3.353,6.898,4.955,10.381c-0.307,1.037-0.653,2.06-1.003,3.007
			c-2.135-4.493-4.356-8.944-6.279-13.53C533.189,192.14,533.964,192.195,534.734,192.275z M530.277,192.198
			c2.243,5.438,4.921,10.68,7.406,16.013c-0.347,0.83-0.642,1.5-0.827,1.929c-0.014,0.03-0.027,0.06-0.041,0.091
			c-2.944-5.871-5.688-11.853-8.304-17.875C529.102,192.284,529.69,192.236,530.277,192.198z M526.475,192.649
			c2.903,6.718,5.965,13.388,9.282,19.912c-0.372,0.784-0.754,1.563-1.146,2.339c-1.088-2.178-2.356-4.302-3.415-6.429
			c-2.491-5.004-4.343-10.314-6.498-15.477C525.288,192.867,525.881,192.751,526.475,192.649z M522.732,193.456
			c1.828,4.275,3.482,8.622,5.308,12.9c1.551,3.634,3.846,7.087,5.426,10.74c-0.339,0.635-0.683,1.268-1.032,1.897
			c-4.31-8.136-8.122-16.504-11.678-25.001C521.41,193.804,522.07,193.625,522.732,193.456z M518.846,194.572
			c3.769,9.006,7.814,17.874,12.427,26.478c-0.562,0.963-1.128,1.922-1.711,2.87c-3.723-9.761-8.333-19.156-12.115-28.894
			C517.908,194.871,518.376,194.72,518.846,194.572z M515.561,195.67c3.578,9.195,7.896,18.086,11.496,27.271
			c-1.366-0.892-2.739-1.774-4.121-2.642c-4.032-7.578-6.26-15.938-9.344-23.928C514.236,196.137,514.896,195.904,515.561,195.67z
			 M511.728,197.064c2.718,7.068,4.798,14.406,7.999,21.264c-0.614-0.373-1.222-0.76-1.838-1.129
			c-4.297-5.502-5.918-12.775-8.602-19.203C510.097,197.675,510.912,197.369,511.728,197.064z M507.454,198.74
			c2.271,5.316,3.8,11.148,6.614,16.213c-0.928-0.534-1.853-1.074-2.784-1.598c-2.151-4.512-4.226-9.052-5.967-13.74
			C506.027,199.318,506.742,199.031,507.454,198.74z M503.481,200.39c1.438,3.852,3.083,7.614,4.825,11.336
			c-0.995-0.543-1.983-1.1-2.985-1.633c-0.437-1.115-0.814-2.256-1.213-3.273c-0.752-1.919-1.41-3.874-2.009-5.848
			C502.557,200.773,503.021,200.587,503.481,200.39z M500.281,201.769c0.583,1.877,1.203,3.74,1.898,5.583
			c0.16,0.425,0.323,0.88,0.489,1.346c-1.017-0.527-2.034-1.054-3.057-1.569c-0.669-1.395-1.239-2.836-1.689-4.316
			C498.708,202.461,499.495,202.117,500.281,201.769z M496.087,203.634c0.225,0.713,0.47,1.416,0.744,2.11
			c-0.867-0.427-1.731-0.858-2.603-1.277C494.848,204.189,495.467,203.912,496.087,203.634z M35.592,218.126
			c0.215-0.105,0.418-0.219,0.602-0.348c23.453-13.549,46.567-27.753,71.129-39.245c26.952-12.611,55.77-20.399,85.254-24.169
			c30.363-3.883,60.004-1.24,90.185,2.9c31.923,4.379,63.59,10.521,94.941,17.926c46.289,10.931,93.599,23.854,134.857,48.165
			c-0.023,0.019-0.049,0.023-0.07,0.046c-1.536,1.508-3.229,2.787-4.986,4.003c-2.05-0.325-4.099-0.642-6.146-0.959
			c1.291-0.862,2.417-1.949,3.337-3.273c0.737-1.062-0.997-2.061-1.728-1.01c-1.217,1.751-2.941,3.013-4.925,3.759
			c-2.357-0.377-4.715-0.767-7.062-1.203c1.648-1.564,3.381-3.004,5.432-4.069c1.145-0.595,0.133-2.32-1.01-1.727
			c-2.603,1.353-4.743,3.288-6.812,5.329c-1.638-0.326-3.272-0.668-4.903-1.051c1.264-1.436,2.512-2.904,4.078-3.992
			c1.052-0.73,0.054-2.465-1.01-1.727c-2.057,1.428-3.596,3.386-5.284,5.203c-2.151-0.523-4.314-0.99-6.488-1.4
			c1.888-1.749,3.941-3.31,5.779-5.115c0.923-0.904-0.492-2.317-1.414-1.414c-2.065,2.029-4.418,3.734-6.483,5.764
			c-0.111,0.109-0.187,0.228-0.233,0.347c-1.487-0.257-2.978-0.501-4.472-0.722c1.404-1.375,2.854-2.707,4.477-3.818
			c1.058-0.723,0.059-2.457-1.01-1.727c-2.182,1.495-4.084,3.33-5.952,5.191c-1.568-0.215-3.141-0.416-4.714-0.604
			c1.055-1.37,2.293-2.585,3.751-3.581c1.059-0.722,0.06-2.455-1.01-1.727c-2.002,1.367-3.706,3.056-5.045,5.04
			c-1.704-0.196-3.409-0.386-5.115-0.57c0.9-0.966,1.788-1.946,2.728-2.899c0.904-0.919-0.51-2.334-1.414-1.414
			c-1.301,1.32-2.502,2.725-3.787,4.046c-1.987-0.214-3.976-0.431-5.958-0.658c0.929-0.938,1.942-1.794,3.03-2.537
			c1.059-0.723,0.06-2.456-1.01-1.727c-1.654,1.131-3.136,2.474-4.441,3.978c-2.297-0.277-4.591-0.573-6.875-0.91
			c1.061-0.973,2.14-1.929,3.164-2.938c0.92-0.906-0.495-2.32-1.414-1.414c-1.372,1.352-2.812,2.617-4.188,3.943
			c-1.971-0.34-3.933-0.716-5.886-1.129c1.188-1.188,2.375-2.375,3.562-3.562c0.913-0.912-0.501-2.326-1.414-1.414
			c-1.491,1.492-2.982,2.984-4.476,4.477c-2.188-0.477-4.375-0.961-6.569-1.41c1.271-1.271,2.542-2.543,3.813-3.813
			c0.913-0.913-0.501-2.327-1.414-1.414c-1.588,1.587-3.175,3.175-4.763,4.763c-0.653-0.123-1.308-0.248-1.964-0.36
			c-0.795-0.137-1.592-0.261-2.388-0.386l4.043-4.043c0.913-0.913-0.501-2.327-1.414-1.414l-5.092,5.088
			c-2.584-0.368-5.175-0.69-7.77-0.982c0.921-1.229,2.045-2.316,3.266-3.259c1.005-0.776,0.012-2.516-1.01-1.727
			c-1.746,1.348-3.317,2.917-4.501,4.74c-2.535-0.27-5.072-0.527-7.606-0.774c0.642-0.856,1.412-1.615,2.312-2.239
			c1.051-0.73,0.053-2.465-1.011-1.727c-1.464,1.017-2.642,2.281-3.542,3.748c-1.853-0.182-3.705-0.361-5.558-0.541
			c0.889-1.062,1.761-2.137,2.543-3.28c0.73-1.068-1.004-2.067-1.727-1.01c-0.972,1.42-2.078,2.741-3.19,4.058
			c-1.889-0.184-3.777-0.367-5.665-0.551c0.975-0.99,1.867-2.062,2.656-3.218c0.729-1.068-1.004-2.067-1.728-1.01
			c-1.005,1.472-2.216,2.804-3.565,3.971c-1.816-0.177-3.635-0.354-5.451-0.53c1.04-1.287,2.197-2.482,3.384-3.669
			c0.912-0.913-0.502-2.327-1.414-1.414c-1.541,1.542-3.043,3.108-4.315,4.854c-2.128-0.207-4.257-0.416-6.386-0.622
			c0.761-0.716,1.639-1.335,2.548-1.942c1.066-0.711,0.066-2.444-1.011-1.727c-1.518,1.014-2.943,2.07-4.008,3.428
			c-1.668-0.161-3.337-0.326-5.004-0.486c0.336-0.526,0.67-1.053,1.014-1.572c0.714-1.08-1.019-2.08-1.727-1.01
			c-0.518,0.781-1.005,1.584-1.521,2.365c-1.891-0.182-3.779-0.368-5.67-0.548c0.737-0.94,1.44-1.908,2.277-2.768
			c0.899-0.925-0.514-2.34-1.414-1.414c-1.197,1.23-2.126,2.68-3.273,3.95c-1.977-0.188-3.952-0.385-5.93-0.569
			c1.079-1.089,2.135-2.245,2.848-3.61c0.598-1.142-1.129-2.152-1.727-1.01c-0.681,1.305-1.694,2.369-2.726,3.4
			c-0.329,0.33-0.35,0.724-0.205,1.051c-1.92-0.178-3.84-0.363-5.762-0.537c0.771-1.521,1.81-2.871,3.059-4.143
			c0.904-0.92-0.51-2.336-1.414-1.414c-1.581,1.609-2.873,3.362-3.767,5.362c-2.113-0.19-4.226-0.392-6.339-0.577
			c0.787-0.936,1.567-1.878,2.31-2.853c0.781-1.027-0.957-2.022-1.728-1.01c-0.95,1.251-1.964,2.452-2.979,3.65
			c-1.937-0.168-3.868-0.351-5.804-0.513c0.543-0.661,1.103-1.309,1.708-1.926c0.902-0.92-0.511-2.336-1.414-1.414
			c-0.975,0.992-1.859,2.048-2.695,3.143c-2.221-0.184-4.441-0.371-6.664-0.547c1.031-1.166,2.093-2.303,3.366-3.188
			c1.052-0.729,0.053-2.464-1.01-1.727c-1.874,1.302-3.319,3.043-4.839,4.717c-1.035-0.08-2.071-0.167-3.107-0.246
			c1.062-1.266,2.22-2.445,3.395-3.62c0.913-0.913-0.501-2.327-1.414-1.414c-1.549,1.55-3.055,3.115-4.377,4.851
			c-1.798-0.135-3.595-0.27-5.392-0.406c0.545-0.814,1.128-1.604,1.816-2.311c0.9-0.923-0.513-2.338-1.413-1.414
			c-1.044,1.07-1.866,2.305-2.668,3.555c-2.37-0.18-4.743-0.359-7.111-0.535c0.548-0.821,1.134-1.613,1.826-2.325
			c0.9-0.923-0.513-2.339-1.413-1.414c-1.051,1.076-1.876,2.318-2.683,3.577c-1.792-0.133-3.582-0.255-5.374-0.385
			c1.053-1.376,2.167-2.707,3.142-4.143c0.728-1.07-1.006-2.069-1.726-1.01c-1.172,1.725-2.535,3.303-3.76,4.985
			c-1.796-0.128-3.593-0.265-5.388-0.386c1.101-1.348,1.987-2.855,2.948-4.31c0.714-1.079-1.019-2.08-1.727-1.01
			c-1.095,1.655-2.053,3.412-3.446,4.841c-0.101,0.104-0.163,0.213-0.21,0.324c-2.428-0.158-4.857-0.318-7.285-0.461
			c1.021-1.188,2.046-2.374,3.146-3.492c0.905-0.92-0.509-2.335-1.414-1.414c-1.494,1.52-2.854,3.16-4.254,4.765
			c-3.384-0.189-6.769-0.366-10.155-0.514c0.533-0.769,1.055-1.545,1.57-2.319c0.718-1.076-1.016-2.076-1.727-1.01
			c-0.723,1.084-1.445,2.174-2.221,3.224c-3.079-0.124-6.16-0.23-9.242-0.308c1.061-1.336,2.081-2.705,3.104-4.066
			c0.774-1.033-0.963-2.028-1.727-1.01c-1.277,1.701-2.562,3.402-3.926,5.035c-2.275-0.047-4.551-0.096-6.828-0.111
			c0.737-0.768,1.488-1.521,2.237-2.271c0.913-0.912-0.501-2.327-1.414-1.414c-1.199,1.199-2.394,2.408-3.521,3.676
			c-2.279-0.004-4.561,0.004-6.843,0.035c0.888-1.291,1.753-2.598,2.567-3.938c0.672-1.106-1.059-2.11-1.727-1.01
			c-1.035,1.704-2.141,3.357-3.285,4.982c-2.105,0.042-4.212,0.096-6.32,0.171c0.652-0.903,1.3-1.81,1.967-2.703
			c0.771-1.035-0.965-2.03-1.727-1.01c-0.939,1.257-1.854,2.531-2.769,3.806c-0.325,0.014-0.649,0.021-0.974,0.035
			c-2.303,0.104-4.604,0.244-6.905,0.387c0.798-1.291,1.591-2.587,2.287-3.938c0.589-1.145-1.136-2.157-1.727-1.01
			c-0.903,1.754-1.96,3.417-2.993,5.095c-2.771,0.188-5.541,0.396-8.312,0.629c1.449-1.586,3.023-3.047,4.748-4.355
			c1.013-0.769,0.019-2.507-1.01-1.727c-2.458,1.865-4.61,3.961-6.552,6.318c-2.053,0.184-4.105,0.375-6.156,0.578
			c2.139-2.004,4.346-3.904,6.15-6.248c0.787-1.023-0.951-2.017-1.727-1.01c-2.033,2.641-4.688,4.676-7.048,7.002
			c-0.176,0.173-0.245,0.364-0.271,0.555c-1.196,0.124-2.393,0.239-3.59,0.369l3.834-3.832c0.912-0.913-0.502-2.327-1.414-1.414
			l-5.606,5.605c-2.47,0.28-4.94,0.568-7.409,0.871c1.688-1.688,3.375-3.375,5.062-5.062c0.913-0.913-0.501-2.327-1.414-1.414
			c-2.291,2.291-4.583,4.583-6.875,6.875c-1.825,0.23-3.65,0.462-5.475,0.701c1.451-2.167,2.987-4.274,4.555-6.365
			c0.775-1.033-0.963-2.027-1.727-1.01c-1.893,2.523-3.737,5.07-5.441,7.72c-2.008,0.267-4.016,0.535-6.021,0.81
			c1.174-2.152,2.654-4.112,4.388-5.876c0.904-0.92-0.509-2.335-1.414-1.414c-2.212,2.25-3.969,4.796-5.325,7.611
			c-2.776,0.384-5.551,0.772-8.323,1.164c1.711-2.281,3.421-4.562,5.132-6.843c0.775-1.033-0.963-2.028-1.727-1.01
			c-2.061,2.748-4.122,5.497-6.184,8.245c-1.686,0.239-3.371,0.479-5.057,0.719c1.92-1.989,3.511-4.218,5.042-6.514
			c0.718-1.077-1.015-2.077-1.727-1.01c-1.482,2.223-3.01,4.37-4.887,6.282c-0.479,0.488-0.301,1.105,0.102,1.45
			c-1.589,0.226-3.177,0.452-4.765,0.677c1.189-1.451,2.307-2.963,3.352-4.518c0.723-1.074-1.012-2.074-1.727-1.01
			c-1.405,2.09-2.936,4.094-4.633,5.952c-0.13,0.019-0.261,0.036-0.391,0.056c-1.562,0.219-3.131,0.457-4.698,0.691
			c1.631-1.729,3.134-3.554,4.243-5.689c0.595-1.143-1.131-2.154-1.727-1.01c-1.407,2.709-3.469,4.862-5.607,7.003
			c-0.059,0.06-0.083,0.124-0.123,0.187c-1.834,0.288-3.67,0.579-5.508,0.889c1.303-1.554,2.469-3.211,3.6-4.906
			c0.718-1.077-1.016-2.077-1.727-1.01c-1.482,2.223-3.011,4.37-4.888,6.281c-0.053,0.055-0.073,0.113-0.11,0.17
			c-1.625,0.289-3.25,0.584-4.873,0.896l3.672-4.897c0.775-1.033-0.963-2.028-1.727-1.01c-1.623,2.165-3.246,4.329-4.87,6.493
			c-1.811,0.366-3.622,0.73-5.427,1.133c0.933-1.206,1.807-2.458,2.658-3.734c0.718-1.076-1.016-2.076-1.727-1.01
			c-1.281,1.921-2.611,3.775-4.156,5.48c-1.352,0.321-2.702,0.649-4.047,0.995c0.889-1.353,1.82-2.679,2.725-4.024
			c0.723-1.074-1.012-2.074-1.727-1.01c-1.29,1.918-2.637,3.797-3.831,5.771c-1.695,0.462-3.386,0.938-5.065,1.446
			c0.899-1.349,1.799-2.697,2.697-4.046c0.719-1.077-1.015-2.077-1.727-1.01c-1.334,2.001-2.667,4.001-4.001,6.002
			c-1.36,0.438-2.717,0.887-4.063,1.359c0.854-1.4,1.686-2.815,2.587-4.19c0.709-1.082-1.023-2.084-1.727-1.01
			c-1.36,2.076-2.567,4.24-3.932,6.31c-1.101,0.413-2.198,0.837-3.288,1.275c0.82-1.231,1.642-2.462,2.463-3.693
			c0.717-1.077-1.016-2.077-1.727-1.01c-1.352,2.028-2.704,4.056-4.056,6.083c-1.229,0.533-2.45,1.081-3.662,1.65
			c1.101-2.074,2.28-4.098,3.681-6.003c0.765-1.041-0.973-2.037-1.727-1.01c-1.955,2.659-3.486,5.543-4.962,8.485
			c-0.7,0.354-1.407,0.693-2.101,1.06c0.843-1.425,1.731-2.813,2.869-4.011c0.888-0.934-0.524-2.35-1.414-1.414
			c-1.344,1.412-2.36,3.063-3.347,4.737c-0.655-2.349-1.532-4.565-2.743-6.498C34.863,218.548,35.226,218.336,35.592,218.126z
			 M30.623,244.814c-1.751,0.199-3.506,0.35-5.25,0.586c-0.061-0.57-0.141-1.137-0.222-1.703c1.771-0.609,3.576-1.105,5.397-1.547
			C30.581,243.085,30.607,243.99,30.623,244.814z M30.47,240.109c-1.905,0.453-3.796,0.961-5.649,1.587
			c-0.079-0.42-0.171-0.837-0.262-1.253c1.951-0.705,3.928-1.34,5.828-2.166C30.416,238.884,30.443,239.497,30.47,240.109z
			 M30.279,236.146c-1.99,0.951-4.096,1.636-6.179,2.374c-0.169-0.642-0.37-1.271-0.567-1.903c2.159-1.132,4.422-2.076,6.592-3.193
			C30.174,234.242,30.226,235.158,30.279,236.146z M29.894,230.175c0.014,0.072,0.047,0.455,0.088,1.047
			c-2.311,1.268-4.756,2.285-7.1,3.486c-0.176-0.479-0.363-0.953-0.555-1.427c2.527-1.567,4.669-3.664,7.073-5.433
			C29.589,228.665,29.748,229.46,29.894,230.175z M28.848,225.79c-2.523,1.779-4.73,3.98-7.322,5.635
			c-0.178-0.383-0.371-0.757-0.561-1.133c2.616-1.739,5.031-3.744,7.426-5.776C28.557,224.933,28.713,225.357,28.848,225.79z
			 M14.101,234.425c0.254,0.518,0.489,1.043,0.713,1.574c-0.512-0.141-1.023-0.285-1.533-0.433
			C13.546,235.183,13.818,234.802,14.101,234.425z M12.15,237.316c1.166,0.346,2.343,0.65,3.519,0.962
			c0.242,0.719,0.471,1.442,0.67,2.177c-1.768-0.412-3.549-0.768-5.328-1.14C11.364,238.642,11.748,237.977,12.15,237.316z
			 M10.11,241.167c2.259,0.475,4.522,0.922,6.759,1.479c0.145,0.703,0.285,1.407,0.391,2.119c-2.617-0.635-5.234-1.266-7.851-1.899
			C9.615,242.296,9.861,241.732,10.11,241.167z M8.674,245.238c0.038-0.154,0.088-0.307,0.131-0.461
			c2.9,0.703,5.801,1.403,8.702,2.105c0.042,0.453,0.083,0.906,0.108,1.361c-3.044-0.681-6.133-1.161-9.203-1.739
			C8.482,246.083,8.568,245.661,8.674,245.238z M14.857,265.337c-0.759-0.937-1.469-1.898-2.131-2.88
			c0.975,0.237,1.941,0.509,2.894,0.825C15.384,263.976,15.133,264.662,14.857,265.337z M16.211,261.388
			c-1.615-0.538-3.264-0.963-4.944-1.289c-0.659-1.172-1.231-2.367-1.7-3.585c2.453,0.646,4.906,1.286,7.333,2.013
			C16.703,259.49,16.478,260.446,16.211,261.388z M17.255,256.546c-2.788-0.83-5.608-1.549-8.423-2.297
			c-0.155-0.582-0.277-1.17-0.381-1.76c3.023,0.683,6.062,1.303,9.019,2.197C17.404,255.308,17.349,255.929,17.255,256.546z
			 M17.627,252.689c-3.098-0.904-6.266-1.559-9.42-2.301c-0.035-0.627-0.028-1.258,0.002-1.891c3.164,0.588,6.348,1.078,9.477,1.81
			C17.689,251.101,17.67,251.896,17.627,252.689z M19.794,228.143c2.342-2.17,4.88-4.127,7.472-5.782
			c0.073,0.104,0.135,0.218,0.203,0.325c-2.411,2.046-4.828,4.083-7.459,5.842C19.935,228.401,19.869,228.269,19.794,228.143z
			 M24.366,274.654c-1.195-0.971-2.397-2.001-3.577-3.082c0.347-0.689,0.664-1.396,0.975-2.105c1.338,0.889,2.688,1.764,4.021,2.66
			C25.35,273.007,24.885,273.859,24.366,274.654z M26.618,270.282c-1.357-0.909-2.729-1.797-4.088-2.704
			c0.226-0.584,0.426-1.18,0.627-1.775c1.366,0.869,2.771,1.674,4.2,2.436C27.123,268.929,26.889,269.619,26.618,270.282z
			 M27.961,266.289c-1.425-0.772-2.826-1.586-4.188-2.466c0.133-0.457,0.246-0.922,0.364-1.384c1.456,0.593,2.903,1.208,4.344,1.84
			C28.318,264.954,28.149,265.627,27.961,266.289z M28.918,262.3c-1.434-0.623-2.873-1.23-4.322-1.818
			c0.146-0.682,0.275-1.368,0.391-2.057c1.457,0.53,2.891,1.126,4.336,1.692C29.197,260.846,29.066,261.575,28.918,262.3z
			 M29.637,258.105c-1.45-0.572-2.89-1.17-4.356-1.694c0.065-0.519,0.116-1.038,0.165-1.558c1.525,0.07,3.042,0.215,4.55,0.444
			C29.891,256.222,29.773,257.159,29.637,258.105z M30.199,253.314c-1.527-0.229-3.063-0.381-4.608-0.455
			c0.019-0.373,0.028-0.747,0.039-1.121c1.575-0.123,3.153-0.207,4.732-0.294C30.312,252.058,30.26,252.679,30.199,253.314z
			 M30.599,248.112c-0.026,0.431-0.055,0.875-0.086,1.327c-1.623,0.095-3.245,0.188-4.865,0.313
			c-0.01-0.793-0.051-1.585-0.101-2.375c1.689-0.242,3.392-0.393,5.089-0.576C30.633,247.312,30.621,247.755,30.599,248.112z
			 M242.98,389.378c-18.839,7.596-40.711,7.041-60.662,6.78c-7.904-0.104-15.828-0.143-23.735-0.337
			c-0.197-0.32-0.4-0.638-0.611-0.954c-0.685-1.028-2.312-0.138-1.789,0.893c-0.572-0.018-1.146-0.025-1.717-0.045
			c-0.271-0.009-0.538-0.036-0.809-0.049c-0.062-0.187-0.124-0.373-0.187-0.56c-0.395-1.183-2.208-0.719-1.941,0.432
			c-1.236-0.102-2.467-0.235-3.682-0.426c-0.117-0.742-0.188-1.493-0.199-2.251c-0.017-1.289-2.017-1.29-2,0
			c0.009,0.631,0.058,1.253,0.131,1.87c-1.457-0.302-2.895-0.671-4.297-1.135c-0.059-0.521-0.1-1.046-0.109-1.572
			c-0.021-1.288-2.021-1.29-2,0c0.005,0.272,0.033,0.544,0.051,0.815c-1.02-0.413-2.025-0.858-3-1.383
			c-0.066-1.203-0.07-2.411-0.07-3.617c-0.001-1.29-2.001-1.29-2,0c0,0.806,0.01,1.607,0.031,2.408
			c-0.985-0.639-1.944-1.338-2.866-2.12c-0.054-0.046-0.101-0.097-0.154-0.143c0.036-1.499,0.122-2.995,0.351-4.482
			c0.194-1.261-1.732-1.803-1.929-0.531c-0.166,1.077-0.263,2.154-0.33,3.233c-0.595-0.603-1.173-1.222-1.734-1.854
			c0.228-1.677,0.338-3.365,0.646-5.03c0.233-1.26-1.694-1.798-1.929-0.531c-0.213,1.149-0.33,2.312-0.457,3.472
			c-1-1.275-1.96-2.588-2.855-3.952c0.155-1.202,0.396-2.391,0.639-3.59c0.256-1.259-1.672-1.795-1.928-0.53
			c-0.107,0.523-0.214,1.048-0.315,1.571c-0.345-0.571-0.685-1.146-1.019-1.726c0.109-1.606,0.432-3.17,0.752-4.755
			c0.255-1.26-1.673-1.796-1.929-0.531c-0.159,0.788-0.315,1.573-0.456,2.359c-0.451-0.827-0.896-1.657-1.335-2.486
			c0.338-1.582,0.426-3.203,0.791-4.78c0.291-1.255-1.638-1.788-1.929-0.531c-0.183,0.789-0.293,1.59-0.401,2.393
			c-0.435-0.826-0.868-1.649-1.304-2.462c-0.008-0.016-0.016-0.03-0.023-0.046c0.127-1.335,0.408-2.65,0.729-3.955
			c0.308-1.253-1.621-1.783-1.929-0.531c-0.125,0.509-0.241,1.021-0.351,1.535c-0.35-0.669-0.705-1.335-1.053-2.007
			c0.004-0.035,0.021-0.062,0.021-0.101v-6.275c0-1.288-2-1.288-2,0v2.479c-0.43-0.854-0.868-1.704-1.292-2.562
			c0.213-0.159,0.363-0.404,0.363-0.754v-5.438c0-1.29-2-1.29-2,0v2.824c-0.644-1.342-1.277-2.688-1.904-4.036
			c0.533-0.859,1.018-1.742,1.359-2.706c0.431-1.219-1.502-1.739-1.93-0.531c-0.123,0.349-0.275,0.687-0.442,1.016
			c-0.384-0.843-0.751-1.691-1.128-2.537c0.33-0.988,0.66-1.979,0.989-2.968c0.409-1.228-1.522-1.749-1.929-0.53
			c-0.088,0.264-0.176,0.526-0.264,0.791c-0.801-1.846-1.582-3.697-2.341-5.561c24.193,9.986,50.714,10.18,76.525,13.357
			c29.241,3.6,58.628,4.135,87.978,1.957C266.071,363.698,259.849,382.578,242.98,389.378z M382.149,327.553
			c1.363-0.45,2.729-0.897,4.094-1.346c-1.159,1.729-2.322,3.463-3.437,5.226C382.45,330.252,382.22,328.965,382.149,327.553z
			 M383.736,333.727c1.2-1.96,2.493-3.868,3.756-5.782c0.604-0.917,1.221-1.827,1.834-2.738c1.144-0.37,2.292-0.728,3.438-1.09
			c-0.427,0.59-0.835,1.185-1.231,1.753c-2.273,3.253-4.201,6.729-6.336,10.072C384.645,335.261,384.15,334.529,383.736,333.727z
			 M386.611,337.448c1.594-2.454,3.065-4.987,4.617-7.469c1.252-2.003,2.789-4.95,4.771-6.89c0.921-0.286,1.851-0.552,2.773-0.831
			c-3.773,5.311-7.192,10.857-10.559,16.456C387.652,338.321,387.11,337.905,386.611,337.448z M389.915,339.765
			c3.785-6.301,7.622-12.547,11.987-18.443c0.438-0.128,0.873-0.268,1.312-0.394c1.059-0.304,2.11-0.626,3.166-0.938
			c-4.498,7.104-9.45,13.911-14.245,20.819C391.368,340.495,390.621,340.154,389.915,339.765z M394.064,341.529
			c5.148-7.41,10.471-14.71,15.204-22.394c1.913-0.579,3.823-1.173,5.729-1.775c-5.906,8.384-12.194,16.495-17.977,24.969
			C396.014,342.097,395.021,341.84,394.064,341.529z M418.143,316.347c1.343-0.435,2.681-0.884,4.02-1.328
			c-6.471,9.378-11.975,19.436-19.235,28.229c-1.27-0.123-2.536-0.28-3.779-0.495C405.284,333.813,411.972,325.263,418.143,316.347z
			 M416.843,343.33c3.304-5.393,7.231-10.35,10.836-15.555c2.369-3.422,5.197-6.666,7.485-10.196
			c0.187,0.128,0.373,0.229,0.563,0.319c0.421,0.302,0.837,0.608,1.243,0.925c-4.426,8.639-10.966,16.021-16.024,24.306
			C419.525,343.206,418.146,343.264,416.843,343.33z M432.782,315.917c0.274,0.178,0.549,0.355,0.822,0.535
			c-2.568,4.104-5.961,7.871-8.642,11.74c-3.534,5.103-7.376,9.922-10.529,15.258c-1.033,0.048-2.104,0.083-3.208,0.101
			c3.907-5.314,7.404-10.924,11.189-16.335c2.949-4.216,6.332-7.984,9.232-12.109c0.135,0.068,0.27,0.139,0.401,0.212
			C432.264,315.531,432.5,315.736,432.782,315.917z M405.335,343.438c7.408-9.287,13.034-19.838,19.981-29.471
			c0.422-0.143,0.841-0.29,1.262-0.434c0.371,0.125,0.756,0.227,1.159,0.278c0.689,0.093,1.425,0.284,2.161,0.542
			c-2.834,4.108-6.188,7.896-9.209,11.852c-4.281,5.602-7.812,11.686-11.995,17.346
			C407.587,343.538,406.466,343.504,405.335,343.438z M423.391,342.972c4.872-7.743,10.869-14.772,15.134-22.863
			c0.925,0.819,1.792,1.699,2.566,2.677c-3.82,7.051-9.626,12.964-13.871,19.815C425.942,342.762,424.659,342.878,423.391,342.972z
			 M439.516,338.428c-0.808,0.613-1.695,1.136-2.637,1.595c2.184-3.381,4.517-6.665,6.753-10.013
			C443.493,333.263,441.984,336.55,439.516,338.428z M443.302,326.869c-3.124,4.841-6.557,9.479-9.563,14.396
			c-1.258,0.392-2.574,0.698-3.92,0.943c3.954-6.037,8.936-11.438,12.523-17.656C442.776,325.267,443.087,326.052,443.302,326.869z
			 M482.604,280.125c-0.875,1.336-1.655,2.725-2.52,4.062c-1.462,0.555-2.926,1.103-4.384,1.666c0.532-0.747,1.078-1.484,1.629-2.22
			c0.774-1.033-0.963-2.028-1.727-1.01c-1.099,1.464-2.197,2.931-3.148,4.492c-1.382,0.542-2.763,1.088-4.143,1.637
			c0.55-0.861,1.154-1.685,1.86-2.417c0.895-0.929-0.519-2.345-1.414-1.414c-1.41,1.465-2.494,3.184-3.385,5
			c-1.976,0.792-3.951,1.587-5.926,2.383c0.719-1.286,1.562-2.485,2.725-3.469c0.985-0.835-0.437-2.242-1.414-1.414
			c-1.925,1.629-3.058,3.794-4.113,6.013c-1.278,0.518-2.558,1.032-3.837,1.547c0.172-0.283,0.34-0.569,0.521-0.848
			c0.708-1.084-1.024-2.085-1.727-1.01c-0.644,0.981-1.213,2.007-1.756,3.047c-2.513,1.006-5.027,2.005-7.548,2.991
			c0.531-0.84,1.172-1.611,1.873-2.326c0.903-0.921-0.51-2.336-1.414-1.414c-1.374,1.399-2.521,2.959-3.198,4.806
			c-1.79,0.692-3.581,1.379-5.379,2.055c0.747-1.21,1.494-2.414,2.491-3.445c0.896-0.928-0.517-2.343-1.414-1.414
			c-1.492,1.543-2.488,3.422-3.655,5.202c-0.156,0.237-0.189,0.47-0.146,0.679c-1.519,0.561-3.041,1.107-4.565,1.649
			c0.762-1.307,1.541-2.6,2.438-3.818c0.766-1.041-0.972-2.037-1.727-1.01c-1.361,1.85-2.462,3.862-3.616,5.842
			c-1.003,0.348-2.004,0.7-3.011,1.038c-1.585,0.533-3.177,1.04-4.768,1.553c0.625-0.766,1.271-1.515,1.964-2.221
			c0.904-0.921-0.51-2.336-1.414-1.414c-1.437,1.462-2.689,3.087-3.922,4.724c-2.311,0.729-4.625,1.447-6.941,2.156
			c0.451-1.066,0.923-2.127,1.435-3.168c0.567-1.153-1.157-2.167-1.727-1.01c-0.795,1.61-1.494,3.267-2.172,4.931
			c-2.499,0.759-4.998,1.517-7.496,2.271c0.798-1.064,1.596-2.128,2.395-3.192c0.774-1.033-0.963-2.028-1.727-1.01
			c-1.298,1.729-2.595,3.458-3.892,5.188c-2.125,0.646-4.249,1.292-6.369,1.954c0.896-1.159,1.722-2.37,2.486-3.632
			c0.671-1.105-1.06-2.11-1.727-1.01c-1.265,2.084-2.695,4.005-4.359,5.771c-1.942,0.62-3.883,1.25-5.817,1.896
			c1.138-1.423,2.335-2.789,3.747-3.957c0.994-0.823-0.429-2.23-1.414-1.414c-2.238,1.853-3.947,4.197-5.71,6.486
			c-1.871,0.622-3.739,1.248-5.615,1.855c0.754-1.072,1.602-2.084,2.396-3.131c0.78-1.028-0.958-2.022-1.727-1.01
			c-1.263,1.661-2.53,3.222-3.5,5.034c-1.947,0.62-3.895,1.249-5.85,1.845c0.611-0.746,1.241-1.479,1.919-2.167
			c0.904-0.921-0.51-2.336-1.414-1.414c-1.391,1.416-2.61,2.984-3.805,4.568c-1.666,0.488-3.333,0.978-5.008,1.438
			c0.173-0.147,0.335-0.305,0.523-0.436c1.052-0.73,0.054-2.466-1.01-1.728c-1.208,0.839-2.134,1.917-2.976,3.082
			c-1.643,0.425-3.286,0.836-4.938,1.223c0.272-0.471,0.533-0.947,0.781-1.437c0.582-1.147-1.145-2.16-1.727-1.01
			c-0.54,1.063-1.146,2.079-1.796,3.067c-2.255,0.493-4.517,0.958-6.794,1.359c0.734-1.164,1.497-2.312,2.315-3.418
			c0.768-1.039-0.97-2.035-1.728-1.01c-1.152,1.561-2.191,3.197-3.202,4.854c-1.89,0.288-3.784,0.543-5.688,0.745
			c1.468-1.616,2.806-3.34,4.118-5.089c0.774-1.033-0.963-2.028-1.728-1.01c-1.517,2.021-3.066,3.996-4.844,5.798
			c-0.173,0.175-0.24,0.367-0.265,0.559c-1.869,0.166-3.742,0.312-5.621,0.427l2.456-3.272c0.773-1.033-0.963-2.028-1.728-1.01
			c-1.107,1.477-2.216,2.954-3.322,4.431c-1.457,0.076-2.915,0.145-4.375,0.206c0.832-1.022,1.632-2.07,2.425-3.127
			c0.773-1.033-0.963-2.028-1.728-1.01c-1.093,1.456-2.206,2.886-3.405,4.247c-2.296,0.089-4.592,0.173-6.886,0.27
			c0.851-1.159,1.66-2.35,2.519-3.507c0.769-1.038-0.969-2.034-1.728-1.01c-1.143,1.541-2.193,3.142-3.39,4.633
			c-1.954,0.093-3.904,0.198-5.849,0.331c0.504-0.641,1.007-1.28,1.465-1.954c0.727-1.07-1.007-2.069-1.728-1.01
			c-0.743,1.095-1.602,2.104-2.395,3.161c-0.852,0.069-1.703,0.144-2.552,0.227c-0.562,0.055-1.122,0.104-1.685,0.16
			c0.604-0.857,1.229-1.699,1.856-2.538c0.773-1.033-0.963-2.028-1.728-1.01c-0.932,1.24-1.854,2.49-2.696,3.793
			c-1.578,0.149-3.156,0.304-4.733,0.449c0.9-1.064,1.812-2.122,2.657-3.232c0.78-1.027-0.957-2.022-1.728-1.01
			c-1.175,1.545-2.476,2.985-3.698,4.491c-2.438,0.223-4.875,0.442-7.312,0.646c0.762-1.255,1.687-2.436,2.879-3.271
			c1.047-0.733,0.049-2.47-1.01-1.727c-1.864,1.307-3.229,3.201-4.274,5.201c-2.419,0.194-4.839,0.379-7.261,0.547
			c0.924-1.053,1.768-2.175,2.747-3.178c0.901-0.924-0.512-2.34-1.414-1.414c-1.239,1.269-2.255,2.732-3.5,4
			c-0.229,0.232-0.308,0.499-0.284,0.75c-1.486,0.096-2.971,0.205-4.459,0.287c1.104-1.61,2.152-3.257,3.313-4.825
			c0.769-1.039-0.969-2.034-1.727-1.011c-1.439,1.946-2.714,4.007-4.125,5.972c-1.616,0.08-3.234,0.151-4.854,0.212
			c0.535-0.682,1.127-1.313,1.848-1.814c1.051-0.729,0.053-2.465-1.01-1.727c-1.393,0.967-2.409,2.256-3.355,3.626
			c-0.422,0.013-0.842,0.032-1.264,0.043c-1.674,0.043-3.343,0.053-5.012,0.065c0.569-0.755,1.172-1.481,1.843-2.164
			c0.903-0.921-0.509-2.336-1.414-1.414c-1.088,1.107-2.022,2.331-2.904,3.599c-2.11-0.001-4.218-0.018-6.323-0.057
			c0.781-1.1,1.549-2.207,2.298-3.33c0.718-1.077-1.015-2.077-1.727-1.01c-0.968,1.45-1.962,2.884-2.99,4.292
			c-1.507-0.038-3.014-0.081-4.519-0.138c0.908-1.246,1.99-2.354,3.079-3.442c0.913-0.913-0.501-2.327-1.414-1.414
			c-1.315,1.314-2.604,2.661-3.656,4.202c-0.132,0.191-0.181,0.383-0.173,0.56c-1.656-0.069-3.312-0.138-4.967-0.227
			c1.068-1.512,2.405-2.816,3.71-4.121c0.913-0.913-0.501-2.327-1.414-1.414c-1.481,1.48-2.968,2.968-4.156,4.702
			c-0.175,0.255-0.206,0.504-0.146,0.724c-1.646-0.095-3.29-0.195-4.933-0.307c1.986-1.588,3.758-3.379,5.306-5.407
			c0.782-1.026-0.956-2.021-1.727-1.011c-1.468,1.926-3.216,3.675-5.142,5.143c-0.396,0.302-0.481,0.75-0.381,1.139
			c-1.18-0.083-2.359-0.166-3.539-0.257c1.147-1.327,2.391-2.57,3.632-3.812c0.913-0.913-0.501-2.327-1.414-1.414
			c-1.616,1.615-3.191,3.251-4.618,5.031c-1.027-0.082-2.055-0.16-3.082-0.248c0.805-0.987,1.561-2.018,2.271-3.071
			c0.722-1.074-1.011-2.074-1.727-1.01c-0.91,1.353-1.894,2.652-2.979,3.866c-1.275-0.111-2.549-0.221-3.824-0.338
			c0.75-0.954,1.465-1.934,2.03-3.02c0.595-1.144-1.131-2.154-1.727-1.011c-0.72,1.384-1.685,2.6-2.659,3.808
			c-1.566-0.147-3.133-0.293-4.701-0.445c0.736-0.921,1.431-1.876,2.087-2.852c0.722-1.074-1.011-2.074-1.727-1.011
			c-0.849,1.263-1.76,2.481-2.761,3.625c-1.619-0.159-3.24-0.321-4.862-0.484c0.808-0.854,1.675-1.657,2.35-2.63
			c0.737-1.062-0.997-2.062-1.727-1.011c-0.868,1.25-2.051,2.228-3.017,3.397c-1.667-0.169-3.335-0.339-5.004-0.509
			c-0.222-0.022-0.456-0.051-0.681-0.074c0.909-1.048,1.8-2.113,2.771-3.103c0.903-0.922-0.51-2.337-1.414-1.414
			c-1.329,1.353-2.507,2.844-3.79,4.238c-2.272-0.274-4.658-0.604-7.139-0.98c1.29-1.745,2.801-3.302,4.343-4.844
			c0.913-0.913-0.501-2.327-1.414-1.414c-1.853,1.853-3.647,3.749-5.117,5.916c-1.407-0.226-2.837-0.462-4.284-0.711
			c0.885-1.143,1.801-2.26,2.815-3.291c0.904-0.922-0.509-2.336-1.414-1.414c-1.317,1.342-2.483,2.819-3.618,4.318
			c-2.436-0.432-4.906-0.891-7.39-1.37c0.634-0.681,1.264-1.366,1.922-2.034c0.905-0.919-0.508-2.334-1.414-1.414
			c-0.959,0.973-1.854,2.016-2.802,3.002c-2.152-0.425-4.305-0.86-6.438-1.304c0.465-0.397,0.941-0.782,1.452-1.129
			c1.061-0.719,0.062-2.453-1.01-1.727c-1.031,0.698-1.96,1.504-2.857,2.351c-2.66-0.562-5.281-1.129-7.82-1.69
			c0.979-0.847,1.967-1.683,2.89-2.589c0.921-0.905-0.494-2.319-1.414-1.414c-1.239,1.219-2.596,2.307-3.889,3.466
			c-1.729-0.389-3.425-0.773-5.052-1.148c0.682-0.627,1.389-1.225,2.152-1.747c1.057-0.724,0.058-2.458-1.01-1.727
			c-1.255,0.859-2.379,1.878-3.467,2.936c-2.455-0.572-4.76-1.121-6.854-1.628c1.361-1.131,2.8-2.152,4.33-3.081
			c1.101-0.668,0.096-2.396-1.01-1.727c-2.038,1.236-3.94,2.635-5.698,4.229c-1.049-0.257-2.032-0.501-2.94-0.728
			c0.938-0.824,1.879-1.646,2.851-2.431c1.003-0.812-0.421-2.219-1.414-1.414c-1.294,1.047-2.54,2.15-3.788,3.252
			c-1.324-0.339-2.402-0.62-3.188-0.832c-0.832-0.226-1.654-0.475-2.475-0.734c1.224-0.699,2.406-1.473,3.662-2.115
			c1.148-0.588,0.136-2.312-1.01-1.727c-1.596,0.816-3.07,1.85-4.666,2.667c-0.186,0.095-0.297,0.224-0.379,0.363
			c-0.831-0.302-1.659-0.611-2.479-0.942c0.981-0.758,1.868-1.648,2.736-2.518c0.913-0.913-0.501-2.327-1.414-1.414
			c-1.087,1.087-2.182,2.222-3.519,3.001c-1.544-0.68-3.07-1.402-4.58-2.169c0.945-0.574,1.793-1.271,2.336-2.287
			c0.607-1.137-1.119-2.147-1.727-1.01c-0.584,1.093-1.664,1.653-2.732,2.188c-0.918-0.491-1.83-0.99-2.736-1.504
			c0.627-0.555,1.41-0.935,2.17-1.315c1.153-0.576,0.141-2.302-1.01-1.727c-1.083,0.542-2.157,1.13-2.964,2.008
			c-1.032-0.604-2.061-1.218-3.081-1.842c0.842-0.544,1.586-1.206,2.08-2.131c0.607-1.139-1.119-2.147-1.727-1.01
			c-0.5,0.936-1.366,1.479-2.275,1.953c-1.359-0.848-2.711-1.704-4.055-2.563c0.67-0.443,1.309-0.936,1.9-1.511
			c0.926-0.9-0.489-2.313-1.414-1.414c-0.714,0.693-1.508,1.235-2.346,1.724c-1.146-0.743-2.287-1.5-3.42-2.271
			c0.729-0.476,1.556-0.84,2.311-1.218c1.153-0.576,0.141-2.302-1.01-1.727c-1.031,0.517-2.107,1.03-3.026,1.744
			c-0.998-0.696-1.997-1.392-2.983-2.106c0.572-0.157,1.143-0.324,1.687-0.577c1.168-0.544,0.151-2.268-1.01-1.727
			c-0.849,0.395-1.762,0.594-2.657,0.854c-1.005-0.751-2.004-1.51-2.993-2.282c0.012-0.004,0.023-0.01,0.035-0.014
			c0.036-0.012,0.06-0.021,0.075-0.026c0.014,0,0.023,0,0.045-0.001c1.284-0.06,1.29-2.061,0-2
			c-0.711,0.032-1.328,0.383-1.997,0.562c-1.017-0.816-2.036-1.631-3.031-2.474c0.144-0.048,0.277-0.084,0.361-0.088
			c1.284-0.059,1.29-2.059,0-2c-0.7,0.03-1.407,0.285-2.05,0.647c-0.966-0.842-1.924-1.693-2.867-2.56
			c0.815-0.24,1.633-0.462,2.291-1.048c0.965-0.86-0.455-2.271-1.414-1.414c-0.338,0.301-0.87,0.38-1.292,0.498
			c-0.416,0.116-0.819,0.261-1.217,0.419c-1.82-1.723-3.608-3.477-5.331-5.291c-0.193-0.438-0.477-0.85-0.855-1.222
			c1.141-1.699,2.111-3.552,2.939-5.504c13.163,4.137,25.977,9.371,39.568,12.009c7.264,1.409,14.387,2.685,21.524,4.718
			c7.712,2.196,15.335,4.66,23.14,6.524c29.715,7.103,60.575,10.45,91.015,12.39c64.197,4.088,128.428-5.987,191.646-16.298
			c23.725-3.87,47.351-8.344,70.827-13.499c20.812-4.57,40.974-11.225,61.4-17.131c-0.078,0.299-0.155,0.6-0.232,0.902
			c-2.538,2.385-5.717,4.294-9.146,5.877c0.479-1.008-1.123-1.867-1.81-0.858c-0.56,0.823-1.184,1.599-1.797,2.382
			c-1.447,0.561-2.913,1.079-4.371,1.56c0.293-0.479,0.584-0.962,0.896-1.432c0.713-1.08-1.021-2.081-1.728-1.01
			c-0.73,1.106-1.398,2.252-2.107,3.372c-0.993,0.303-1.978,0.594-2.938,0.872c0.254-0.413,0.504-0.829,0.771-1.234
			c0.713-1.08-1.021-2.081-1.728-1.01c-0.666,1.009-1.281,2.048-1.921,3.073c-0.855,0.246-1.695,0.489-2.491,0.727
			c-0.368,0.109-0.733,0.229-1.103,0.343c0.071-0.214,0.146-0.426,0.241-0.631c0.541-1.163-1.184-2.178-1.728-1.01
			c-0.349,0.75-0.492,1.56-0.746,2.333c-0.693,0.218-1.392,0.426-2.085,0.646c0.098-0.486,0.186-0.975,0.194-1.476
			c0.024-1.292-1.976-1.289-2,0c-0.015,0.741-0.188,1.458-0.327,2.18c-1.296,0.427-2.592,0.851-3.882,1.292
			c0.197-0.318,0.398-0.634,0.572-0.967c0.595-1.144-1.133-2.154-1.728-1.011c-0.562,1.081-1.271,2.068-1.965,3.063
			c-2.169,0.766-4.333,1.543-6.49,2.344c0.387-0.638,0.772-1.272,1.183-1.896C485.04,280.051,483.307,279.05,482.604,280.125z
			 M485.097,292.151c-0.58-0.259-1.162-0.517-1.743-0.772c0.97-0.384,1.941-0.759,2.914-1.135
			C485.875,290.878,485.486,291.514,485.097,292.151z M486.941,292.968c0.802-1.311,1.621-2.607,2.439-3.908
			c0.826-0.31,1.651-0.624,2.48-0.925c0.021-0.007,0.041-0.014,0.062-0.021c-1.089,1.869-2.153,3.754-3.258,5.613
			C488.091,293.474,487.516,293.222,486.941,292.968z M490.513,294.538c1.462-2.474,2.856-4.988,4.346-7.442
			c1.42-0.479,2.846-0.937,4.274-1.383c-1.958,3.362-4.031,6.65-6.244,9.854C492.096,295.225,491.304,294.882,490.513,294.538z
			 M494.764,296.364c2.564-3.729,4.939-7.575,7.174-11.512c1.209-0.365,2.42-0.729,3.63-1.091
			c-2.376,4.752-4.761,9.532-7.938,13.786C496.673,297.157,495.716,296.765,494.764,296.364z M499.539,298.318
			c3.452-4.765,5.999-10.1,8.658-15.348c1.463-0.44,2.922-0.892,4.377-1.353c-3.16,6.011-6.12,12.123-9.224,18.163
			C502.075,299.305,500.804,298.822,499.539,298.318z M505.238,300.475c3.37-6.571,6.562-13.232,10.057-19.741
			c1.407-0.47,2.805-0.966,4.195-1.479c-4.01,7.29-7.509,14.852-11.42,22.198C507.123,301.139,506.179,300.812,505.238,300.475z
			 M510.774,302.32c-0.257-0.079-0.512-0.165-0.769-0.246c4.206-7.938,7.937-16.124,12.385-23.93
			c1.242-0.499,2.475-1.032,3.697-1.59c-5.158,8.396-9.136,17.467-13.471,26.32C512.001,302.693,511.386,302.506,510.774,302.32z
			 M514.563,303.438c4.715-9.666,9.036-19.571,14.962-28.558c0.22-0.118,0.441-0.233,0.66-0.352c0.348,0.841,0.689,1.684,1.03,2.528
			c-2.264,4.912-5.67,9.187-8.335,13.906c-2.389,4.229-4.643,8.502-6.537,12.959C515.749,303.765,515.155,303.605,514.563,303.438z
			 M518.283,304.405c2.216-5.291,4.939-10.464,8.021-15.258c2.04-3.172,4.179-6.267,5.905-9.585
			c0.281,0.721,0.544,1.446,0.814,2.171c-4.169,7.772-9.149,15.097-12.928,23.069C519.491,304.678,518.886,304.547,518.283,304.405z
			 M522.114,305.18c3.491-7.216,7.947-13.909,11.827-20.924c0.257,0.734,0.496,1.475,0.738,2.215
			c-3.184,6.443-7.318,12.396-10.029,19.062C523.803,305.436,522.957,305.322,522.114,305.18z M526.719,305.716
			c2.405-5.782,5.865-11.055,8.803-16.592c0.282,0.948,0.578,1.992,0.84,3.079c-2.657,4.4-5.384,8.77-7.149,13.605
			C528.341,305.808,527.489,305.76,526.719,305.716z M536.932,295.091c0.174,1.165,0.264,2.332,0.226,3.452
			c-1.185,2.358-2.649,4.576-4.137,6.757c-0.521,0.177-1.07,0.299-1.635,0.378C532.834,301.958,534.853,298.509,536.932,295.091z"/>
		<path d="M501.516,244.099c-6.382-3.372-14.764-3.433-21.795-3.82c-6.347-0.35-12.604-0.734-18.93-1.382
			c-6.806-0.696-16.04-0.097-17.199,7.73c-8.177,25.804,47.961,21.516,59.75,10.953
			C508.073,253.344,506.879,246.933,501.516,244.099z M451.24,249.834c0.139-0.411,0.231-0.858,0.228-1.372
			c0-0.056,0.021-0.104,0.032-0.158c0.018-0.062,0.038-0.125,0.056-0.188c0.057-0.11,0.148-0.211,0.26-0.305
			c0.632,2.336,1.151,4.693,1.825,7.002C452.004,253.599,451.1,251.972,451.24,249.834z M456.141,256.163
			c-1.032-2.945-1.618-6.036-2.442-9.057c0.31-0.057,0.653-0.104,1.016-0.146c0.978,3.166,1.659,6.413,2.567,9.598
			C456.887,256.437,456.504,256.306,456.141,256.163z M459.531,257.132c-1.041-3.405-1.752-6.902-2.776-10.312
			c0.547-0.02,1.132-0.025,1.731-0.025c0.614,3.602,1.338,7.178,2.583,10.604C460.544,257.319,460.027,257.234,459.531,257.132z
			 M463.289,257.663c-1.401-3.467-2.159-7.146-2.787-10.838c0.577,0.018,1.17,0.041,1.77,0.068
			c1.097,3.633,1.979,7.326,3.211,10.916C464.735,257.776,464.003,257.728,463.289,257.663z M468.055,257.868
			c-0.132-0.21-0.337-0.319-0.563-0.347c-1.201-3.453-2.065-7.007-3.101-10.512c0.479,0.029,0.961,0.062,1.441,0.097
			c0.907,3.701,1.858,7.492,3.707,10.742C469.042,257.858,468.544,257.868,468.055,257.868z M471.816,257.771
			c-2.001-3.09-2.995-6.827-3.894-10.508c0.56,0.045,1.11,0.092,1.654,0.139c0.969,3.5,2.081,7.092,3.718,10.28
			C472.803,257.714,472.309,257.747,471.816,257.771z M475.49,257.513c-1.68-3.029-2.82-6.497-3.783-9.92
			c1.013,0.094,1.963,0.185,2.84,0.269c0.938,3.161,1.762,6.411,3.035,9.437C476.888,257.376,476.19,257.45,475.49,257.513z
			 M479.635,257.047c-1.278-2.849-2.078-5.952-2.947-8.983c0.899,0.082,1.632,0.143,2.121,0.168c0.955,2.779,1.37,5.973,2.639,8.557
			C480.85,256.878,480.245,256.966,479.635,257.047z M483.602,256.443c-0.805-1.498-1.189-3.326-1.629-4.861
			c-0.308-1.076-0.607-2.167-0.964-3.236c0.717,0.039,1.433,0.084,2.147,0.133c0.848,2.565,1.425,5.298,2.796,7.527
			C485.19,256.158,484.406,256.304,483.602,256.443z M488.065,255.559c-1.191-1.632-1.67-3.78-2.25-5.675
			c-0.127-0.412-0.262-0.821-0.396-1.23c0.586,0.052,1.17,0.115,1.754,0.178c0.896,2.068,1.562,4.234,2.192,6.422
			C488.944,255.357,488.511,255.458,488.065,255.559z M491.302,254.745c-0.549-1.906-1.129-3.798-1.847-5.629
			c0.623,0.088,1.242,0.198,1.861,0.304c0.748,1.534,1.399,3.115,1.934,4.73C492.653,254.349,492.004,254.548,491.302,254.745z
			 M497.686,251.925c-0.38,0.385-0.955,0.688-1.604,1.055c-0.27,0.152-0.594,0.309-0.957,0.467
			c-0.398-1.199-0.859-2.382-1.377-3.543c0.434,0.096,0.87,0.177,1.301,0.287c0.545,0.139,2.335,0.783,3.095,1.084
			C498.06,251.458,497.924,251.685,497.686,251.925z"/>
		<path d="M152.523,352.701c-0.564-0.2-1.086-0.263-1.568-0.232c-12.055-5.771-23.32,21.232-10.246,29.979
			c8.156,5.457,23.081,4.621,26.178-6.173C169.68,366.542,161.24,355.792,152.523,352.701z M143.498,364.906
			c0.626-1.768,1.773-3.352,3.141-4.607c0.989-0.91,1.037-0.615,1.381-0.301c0.584,0.532,1.211,0.845,1.841,0.985
			c-1.999,1.825-4.171,3.503-6.306,5.138c-0.166,0.127-0.353,0.263-0.549,0.401C143.152,365.958,143.319,365.412,143.498,364.906z
			 M142.51,370.848c0.016-0.02,0.033-0.041,0.045-0.053c0.354-0.346,0.742-0.66,1.121-0.979c0.938-0.786,1.926-1.513,2.896-2.258
			c2.285-1.756,4.604-3.61,6.656-5.646c0.453,0.322,0.887,0.678,1.303,1.058c-3.774,3.166-8.268,5.657-11.869,9.022
			C142.59,371.619,142.533,371.239,142.51,370.848z M145.383,375.965c-0.567-0.324-1.025-0.721-1.406-1.16
			c3.561-3.741,8.521-6.314,12.533-9.604c1.664,2.285,2.713,5.033,2.789,7.706C159.484,379.486,149.041,378.062,145.383,375.965z"/>
		<path d="M222.808,352.701c-0.564-0.2-1.086-0.263-1.568-0.232c-12.055-5.771-23.32,21.232-10.246,29.979
			c8.156,5.457,23.08,4.621,26.178-6.173C239.965,366.542,231.524,355.792,222.808,352.701z M213.783,364.906
			c0.625-1.768,1.772-3.352,3.14-4.607c0.989-0.91,1.038-0.615,1.382-0.301c0.587,0.535,1.217,0.848,1.851,0.987
			c-2.233,1.694-4.445,3.418-6.729,5.042C213.539,365.639,213.657,365.261,213.783,364.906z M212.775,370.099
			c3.771-2.499,7.285-5.354,10.924-8.044c0.329,0.242,0.639,0.515,0.947,0.787c-3.912,2.842-7.948,5.509-11.81,8.414
			C212.797,370.876,212.771,370.491,212.775,370.099z M215.667,375.965c-0.796-0.456-1.392-1.044-1.833-1.715
			c4.17-3.211,8.592-6.081,12.84-9.192c1.73,2.313,2.832,5.117,2.909,7.851C229.769,379.486,219.325,378.062,215.667,375.965z"/>
		<path d="M37.428,281.089c-0.289,0.264-0.741,0.357-1.105,0.48c-0.579,0.194-1.107,0.438-1.562,0.853
			c-0.955,0.87,0.464,2.28,1.414,1.414c0.29-0.264,0.741-0.358,1.106-0.481c0.578-0.194,1.106-0.438,1.561-0.852
			C39.797,281.633,38.379,280.222,37.428,281.089z"/>
	</g>
</g>
<g>
</g>
<g>
</g>
<g>
</g>
<g>
</g>
<g>
</g>
<g>
</g>
<g>
</g>
<g>
</g>
<g>
</g>
<g>
</g>
<g>
</g>
<g>
</g>
<g>
</g>
<g>
</g>
<g>
</g>
</svg>
