<?xml version="1.0" encoding="iso-8859-1"?>
<!-- Generator: Adobe Illustrator 16.0.0, SVG Export Plug-In . SVG Version: 6.00 Build 0)  -->
<!DOCTYPE svg PUBLIC "-//W3C//DTD SVG 1.1//EN" "http://www.w3.org/Graphics/SVG/1.1/DTD/svg11.dtd">
<svg version="1.1" id="Capa_1" xmlns="http://www.w3.org/2000/svg" xmlns:xlink="http://www.w3.org/1999/xlink" x="0px" y="0px"
	 width="192.935px" height="192.935px" viewBox="0 0 192.935 192.935" style="enable-background:new 0 0 192.935 192.935;"
	 xml:space="preserve">
<g>
	<path d="M172.708,52.989c-26.066-2.992-52.625-2.394-78.816-2.793c-23.639-0.36-46.705-1.668-70.202-3.602
		C10.9,45.541,4.716,50.281,3.453,62.792c-1.032,10.226-0.46,20.781-1.291,31.077c-0.746,9.241-3.156,20.569-1.708,29.831
		c2.256,14.434,12.861,14.858,25.251,13.113c1.726,3.896,5.134,7.094,9.725,8.813c7.817,2.93,15.172-2.062,18.494-8.868
		c5.294,4.138,15.992,3.244,21.521,3.27c22.062,0.098,44.133,0.738,66.207,0.727c3.423,3.917,8.935,5.91,14.734,4.73
		c4.252-0.864,7.233-3.706,9.123-7.306c7.922,1.849,16.463,1.97,19.303-7.324c5.361-17.548,7.699-38.867,8.113-57.34
		C193.24,59.554,185.478,54.454,172.708,52.989z M47.005,132.332c-0.998,3.883-4.539,6.657-8.539,5.674
		c-5.281-1.298-6.64-6.606-4.356-10.993c1.66-3.189,4.202-4.512,7.111-5.196c0.059,0.034,0.086,0.088,0.148,0.119
		C45.726,124.123,48.296,127.31,47.005,132.332z M155.088,136.389c-4.533,2.577-7.605-2.311-7.6-6.127
		c0.008-5.432,4.032-8.778,8.804-10.148c0.37,0.125,0.709,0.291,0.988,0.537c1.193,1.055,1.741,3.073,1.934,4.586
		C159.721,129.217,158.842,134.253,155.088,136.389z M184.402,89.984c-1.271,10.39,1.068,45.007-16.76,41.814
		c0.47-2.637,0.524-5.319,0.182-7.728c-0.914-6.419-9.034-16.864-15.464-10.474c-7.785-0.032-13.252,7.838-14.133,15.812
		c-0.18,1.627-0.089,3.169,0.186,4.627c-27.684-0.447-55.474-1.652-83.011-1.949c0.936-6.125-2.134-11.938-7.15-15.407
		c-0.008-0.01-0.011-0.019-0.018-0.026c-6.984-7.599-18.296-0.46-21.958,6.796c-1.432,2.836-1.986,5.708-1.799,8.426
		C4.813,128.75,7.484,114.489,8.148,100.343c0.59-12.55,1.761-24.985,2.026-37.551c0.316-15.02,23.915-8.08,31.007-7.029
		c12.96,1.919,26.692,1.144,39.764,1.277c27.831,0.283,55.612,0.569,83.369,2.692c8.432,0.645,20.26-1.25,21.331,13.783
		C186.031,78.95,185.062,84.602,184.402,89.984z"/>
	<path d="M177.306,67.799c-0.491-0.953-1.36-1.723-2.699-1.837c-27.314-2.317-54.711-1.509-82.086-2.276
		c-23.765-0.666-48.318-7.041-72.003-4.103c-2.24,0.278-2.843,2.677-1.679,3.936c-1.419,3.967-1.647,8.443-2.223,12.577
		c-0.675,4.849-1.267,9.856-1.012,14.752c0.035,0.683,0.398,1.18,0.872,1.493c0.208,0.818,0.834,1.494,1.883,1.414
		c25.38-1.942,52.258,4.522,77.692,5.971c24.657,1.403,49.403-2.988,73.786,2.536c1.623,0.367,2.868-0.385,3.558-1.486
		c0.884,0.183,1.879-0.195,2.1-1.242c0.951-4.504,1.404-9.122,2.194-13.661c0.854-4.91,2.308-9.886,2.406-14.877
		C180.132,69.124,178.793,68.021,177.306,67.799z M19.802,89.268c1.102-4.494,1.994-9.074,2.823-13.612
		c0.659-3.611,1.527-7.406,1.227-11.091c9.657,0.789,19.313,1.733,28.97,2.64c-0.895,6.819,0.34,14.157,0.82,21.001
		C41.944,86.976,30.423,86.656,19.802,89.268z M90.649,82.057c-0.548,3.57-0.955,7.157-0.603,10.723
		c-10.513-0.906-21.516-2.812-32.439-4.127c2.151-6.56,0.96-14.001,1.774-20.844c11.037,1.003,22.08,1.9,33.139,2.371
		c0.018,0.001,0.036,0.001,0.055,0.002C90.945,73.725,91.234,78.24,90.649,82.057z M101.065,93.301
		c-1.979,0.003-3.994-0.069-6.023-0.176c0.512-4.361,1.269-8.621,2.209-12.941c0.735-3.377,1.686-6.641,0.558-9.826
		c7.838,0.256,15.674,0.354,23.51,0.433c-1.264,6.971-1.197,15.195,0.08,22.076C114.609,93.066,107.822,93.291,101.065,93.301z
		 M147.761,71.408c-2.042,2.875-1.503,7.662-1.711,11.074c-0.209,3.41-0.325,6.933,0.379,10.285
		c-6.809-0.264-13.643-0.199-20.479-0.026c0.537-3.312,0.642-6.67,0.846-10.029c0.24-3.967,0.921-7.899,1.217-11.852
		c6.648,0.066,13.297,0.162,19.943,0.334C147.891,71.267,147.815,71.33,147.761,71.408z M150.978,93.001
		c0.058-3.765,0.327-7.485,0.949-11.236c0.571-3.449,1.932-7.098,0.321-10.357c-0.019-0.039-0.049-0.062-0.068-0.1
		c6.928,0.225,13.854,0.587,20.776,1.148c-1.743,7.126-2.768,15.915-1.711,23.308C164.539,94.259,157.774,93.433,150.978,93.001z"/>
</g>
<g>
</g>
<g>
</g>
<g>
</g>
<g>
</g>
<g>
</g>
<g>
</g>
<g>
</g>
<g>
</g>
<g>
</g>
<g>
</g>
<g>
</g>
<g>
</g>
<g>
</g>
<g>
</g>
<g>
</g>
</svg>
