<?xml version="1.0" encoding="iso-8859-1"?>
<!-- Generator: Adobe Illustrator 16.0.0, SVG Export Plug-In . SVG Version: 6.00 Build 0)  -->
<!DOCTYPE svg PUBLIC "-//W3C//DTD SVG 1.1//EN" "http://www.w3.org/Graphics/SVG/1.1/DTD/svg11.dtd">
<svg version="1.1" id="Capa_1" xmlns="http://www.w3.org/2000/svg" xmlns:xlink="http://www.w3.org/1999/xlink" x="0px" y="0px"
	 width="173.986px" height="173.986px" viewBox="0 0 173.986 173.986" style="enable-background:new 0 0 173.986 173.986;"
	 xml:space="preserve">
<g>
	<path d="M33.847,4.57c-3.554-1.464-7.754-1.111-11.559-1.242c-4.602-0.16-9.25-0.202-13.85,0.003
		c-2.428,0.108-3.217,3.987-0.6,4.434c3.516,0.601,7.059,1.029,10.598,1.485c-1.634,13.602-7.59,31.2-1.379,43.754
		c0.62,1.254,2.405,1.962,3.72,1.514c0.206-0.066,0.407-0.146,0.602-0.24c0.062-0.031,0.123-0.061,0.185-0.092
		c0.954-0.475,1.723-1.773,1.631-2.844c-1.177-13.821,2.134-27.349,2.119-41.089c2.845,0.462,5.694,0.838,8.535,0.367
		C37.29,10.048,36.342,5.598,33.847,4.57z"/>
	<path d="M73.19,44.528c1.419-1.304,1.388-4.016-0.48-5.001c-1.139-12.917-2.041-25.569-8.031-37.743
		c-0.806-1.639-3.368-2.342-4.876-1.278c-7.892,5.566-10.17,15.219-11.973,24.206c-1.084,5.398-1.888,10.864-2.755,16.3
		c-0.643,4.034-2.898,8.651-2.373,12.726c0.139,1.076,1.093,2.25,2.338,1.781c4.538-1.71,6.239-7.759,7.229-13.188
		c2.794,0.573,5.613,1.042,8.416,1.56c1.997,0.369,3.971,0.917,5.952,1.252c0.27,3.584,0.634,7.109,1.301,10.478
		c0.839,4.243,7.031,2.373,6.389-1.761C73.84,50.736,73.498,47.627,73.19,44.528z M63.057,38.18
		c-3.362-0.034-6.748-0.014-10.115,0.154c0.12-0.763,0.236-1.494,0.356-2.138c1.533-8.273,2.508-19.178,7.656-26.497
		c4.118,8.594,4.687,18.615,5.235,28.5C65.165,38.185,64.128,38.19,63.057,38.18z"/>
	<path d="M132.652,15.065c2.696-3.678-2.997-7.568-6.078-4.689c-5.162,4.824-10.104,9.984-14.989,15.154
		c-6.003-8.332-12.627-16.281-19.276-24.066c-1.728-2.021-4.853,0.571-3.592,2.771c5.344,9.323,11.604,18.068,17.331,27.152
		c-0.126,0.133-0.252,0.268-0.378,0.401c-4.551,4.798-12.729,11.824-12.9,18.94c-0.038,1.556,1.648,2.292,2.911,1.671
		c5.393-2.653,10.079-9.162,14.496-14.168c2.861,5.585,6.087,14.884,12.613,15.308c1.701,0.11,3.449-1.594,3.312-3.313
		c-0.438-5.503-5.995-12.814-9.812-18.088C122.052,26.75,128.013,21.394,132.652,15.065z"/>
	<path d="M143.314,4.625c-3.736,5.324-2.252,15.231-2.018,21.277c0.305,7.803,0.981,15.957,3.194,23.475
		c0.813,2.762,4.636,2.066,4.837-0.655c1.037-14.05,0.242-27.941,1.91-41.951C151.788,2.154,145.462,1.562,143.314,4.625z"/>
	<path d="M167.395,143.611c-0.493-1.96-3.205-1.075-2.94,0.811c0.62,4.411-0.373,8.895-4.995,10.614
		c-2.795,1.04-5.666,1.23-8.538,1.608c1.235-9.312-2.758-18.879-13.586-18.776c-0.942,0.009-1.728,0.599-2.199,1.373
		c-7.568,0.355-14.627,5.723-17.539,13.143c-0.764,1.945-1.023,3.884-0.904,5.762c-7.272-0.935-15.382,0.013-22.562-0.062
		c-5.496-0.057-10.986-0.268-16.48-0.386c-0.995-0.021-5.673,0.136-7.84-0.019c1.881-6.942-0.708-15.239-8.042-17.597
		c-0.118-0.038-0.224-0.032-0.338-0.052c-5.342-2.9-13.289-0.783-17.871,3.479c-4.572,4.253-5.657,9.917-4.191,15.077
		c-2.191-0.697-4.595-0.479-6.903-0.412c-4.149,0.123-8.375,0.174-12.387-0.999c-2.99-0.874-6.293-3.592-2.315-5.263
		c2.975-1.25,6.316-1.148,9.423-1.868c2.06-0.477,2.723-3.847,0.623-4.769c-0.24-0.105-0.525-0.181-0.794-0.266
		c-3.394-19.646,14.311-18.055,22.834-29.16c4.488-5.846,7.364-12.086,10.625-18.658c8.822-17.782,38.548-17.609,49.136-2.729
		c4.952,6.96,6.154,18.063,14.89,22.04c15.024,6.84,30.191,6.991,39.078,23.283c0.851,1.558,3.322,0.49,2.84-1.197
		c-6.895-24.152-30.677-16.022-43.673-34.2c-9.476-13.253-14.779-28.723-32.253-28.729c0.478-3.166-2.199-6.892-4.609-8.572
		c-2.37-1.652-5.403-1.366-7.894-0.241c-2.482,1.121-4.293,3.645-4.978,6.214c-0.507,1.904-0.301,3.726,0.333,5.422
		c-4.43,1.182-8.732,2.883-11.84,5.836c-10.03,9.53-11.623,25.634-25.677,31.02c-12.487,4.786-18.809,17.154-12.901,29.099
		c-7.738-0.027-18.336,4.503-13.444,12.693c3.271,5.478,8.667,7.243,14.72,7.687c4.78,0.349,12.426,0.123,16.545-2.835
		c1.32,2.473,3.241,4.707,5.675,6.431c7.406,5.244,16.719,0.523,21.286-5.99c0.218-0.311,0.35-0.675,0.542-1.003
		c4.444,2.479,14.47,2.128,17.217,2.315c10.39,0.709,22.962,2.854,33.311,0.936c3.238,5.478,9.705,9.374,16.041,9.313
		c7.49-0.071,12.681-5.762,14.988-12.591C159.563,162.833,169.902,153.579,167.395,143.611z M80.278,71.414
		c3.14-1.742,4.147,2.108,5.427,4.612c-0.667,0.094-1.301,0.146-2.001,0.28c-1.963,0.377-4.104,0.759-6.289,1.212
		C77.12,75.114,77.963,72.698,80.278,71.414z M61.76,157.318c-1.699,3.341-6.129,6.528-9.967,4.763
		c-4.725-2.174-6.046-8.066-2.631-11.849c3.226-3.573,7.594-4.25,11.723-2.798C62.529,150.538,63.674,153.554,61.76,157.318z
		 M136.179,165.262c-6.087,2.092-12.125-4.998-10.476-10.646c1.759-6.023,8.26-8.927,14.174-9.444
		c2.382,2.126,3.399,4.976,3.273,8.906C143.014,158.383,140.485,163.783,136.179,165.262z"/>
	<path d="M79.294,97.714c0.816-1.704-0.521-4.255-2.646-4.248c-11.07,0.037-19.947,13.272-18.848,23.466
		c0.194,1.795,1.355,3.29,3.3,3.301c5.693,0.029,11.368-0.079,17.052,0.312c1.581,0.109,3.261-1.501,3.111-3.111
		C80.665,111.004,81.146,104.006,79.294,97.714z M67.792,105.436c1.924-2.43,4.275-3.782,6.827-4.979
		c-0.138,4.55-0.228,9.113,0.115,13.639c-3.454-0.246-6.913-0.383-10.376-0.416C64.63,110.685,65.798,107.956,67.792,105.436z"/>
	<path d="M115.426,116.058c-2.317-11.761-9.202-21.246-20.217-26.284c-2.671-1.223-5.05,1.434-4.388,3.559
		c-2.132,8.226-1.666,18.407-0.14,26.576c0.271,1.455,2.024,2.844,3.52,2.68c6.319-0.693,12.647-1.529,18.929-2.488
		C114.994,119.817,115.74,117.65,115.426,116.058z M108.38,113.881c-3.672,0.29-7.337,0.747-11.004,1.113
		c-0.517-5.729-0.284-11.748-1.026-17.45C102.076,101.559,106.669,107.036,108.38,113.881z"/>
</g>
<g>
</g>
<g>
</g>
<g>
</g>
<g>
</g>
<g>
</g>
<g>
</g>
<g>
</g>
<g>
</g>
<g>
</g>
<g>
</g>
<g>
</g>
<g>
</g>
<g>
</g>
<g>
</g>
<g>
</g>
</svg>
