<?xml version="1.0" encoding="iso-8859-1"?>
<!-- Generator: Adobe Illustrator 16.0.0, SVG Export Plug-In . SVG Version: 6.00 Build 0)  -->
<!DOCTYPE svg PUBLIC "-//W3C//DTD SVG 1.1//EN" "http://www.w3.org/Graphics/SVG/1.1/DTD/svg11.dtd">
<svg version="1.1" id="Capa_1" xmlns="http://www.w3.org/2000/svg" xmlns:xlink="http://www.w3.org/1999/xlink" x="0px" y="0px"
	 width="186.726px" height="186.727px" viewBox="0 0 186.726 186.727" style="enable-background:new 0 0 186.726 186.727;"
	 xml:space="preserve">
<g>
	<path d="M165.973,49.762c-7.309-33.221-31.478-46.793-63.582-49.482c-33.596-2.814-60.014,15.839-72.23,46.481
		C22.191,66.747,18.3,87.129,17.218,108.557c-0.906,17.938-2.045,37.878,6.615,54.172c0.528,0.994,1.553,1.109,2.359,0.719
		c1.582,1.295,3.774,2.17,6.307,2.763c-1.366,2.032-1.581,4.957-1.247,7.39c0.713,5.196,4.07,9.866,9.435,10.83
		c8.623,1.55,18.266-8.984,17.384-17.787c2.706-0.184,5.044-0.331,6.681-0.302c20.314,0.351,41.354,3.291,62.079,3.604
		c-0.96,3.278-0.307,7.319,1.115,10.005c2.153,4.063,6.812,6.257,11.207,6.7c4.622,0.468,9.233-1.246,12.494-4.538
		c3.098-3.127,5.381-9.605,3.228-13.879c1.709-0.269,3.414-0.559,5.111-0.902c1.887,1.656,5.68,0.853,5.701-2.422
		c0.139-21.428,4.416-43.132,4.435-64.843C170.137,83.08,169.632,66.396,165.973,49.762z M43.209,178.152
		c-5.68,1.412-7.728-6.546-6.989-11.302c4.656,0.57,9.967,0.488,14.886,0.232C50.178,171.911,48.841,176.754,43.209,178.152z
		 M146.904,176.492c-1.784,2.174-4.47,2.782-7.156,2.768c-2.408-0.013-4.615-1.146-6.185-2.926
		c-1.564-1.776-1.262-4.128-1.081-6.375c5.596-0.058,11.162-0.339,16.678-0.959C148.551,171.553,148.667,174.343,146.904,176.492z
		 M163.16,119.461c-0.272,14.139-3.763,28.513-4.143,42.516c-24.505,2.304-49.037-0.317-73.564-1.358
		c-11.512-0.489-22.978-0.864-34.502-0.652c-7.348,0.135-17.213,1.854-24.122-1.11c-0.035-0.015-0.071-0.015-0.106-0.027
		c-7.232-31.543-3.933-67.972,5.452-98.482C43.882,22.282,71.407,2.677,110.994,8.111c36.072,4.952,47.57,33.264,50.723,65.813
		C163.181,89.056,163.453,104.271,163.16,119.461z"/>
	<path d="M156.994,97.841c-1.523-9.186-3.191-45.996-15.635-49.115c-12.207-3.06-26.65,0.586-39.151,0.849
		c-15.681,0.33-36.022,1.447-50.964-3.19c-1.132-0.351-2.604,0.201-3.148,1.281c-7.305,14.51-12.071,29.968-13.589,46.133
		c-0.36,0.363-0.406,1.015-0.128,1.492c0.007,1.566,1.979,2.043,3.019,1.171c17.547,5.031,35.331,4.599,53.53,4.979
		c20.938,0.439,41.012,2.638,61.993,1.094c1.047-0.077,1.829-0.507,2.372-1.103C156.437,100.767,157.27,99.509,156.994,97.841z
		 M38.45,93.816c3.472-13.09,7.399-25.917,12.553-38.467c1.813-4.415,33.625,0.328,37.94,0.671
		c11.842,0.942,48.578-7.382,53.722,7.432c3.566,10.27,4.684,21.525,7.049,32.215C112.898,93.874,75.256,97.575,38.45,93.816z"/>
	<path d="M129.666,23.617c-11.443-0.826-22.887-0.849-34.351-1.183c-4.862-0.142-9.698-0.528-14.541-0.97
		c-0.447-0.041-8.213-2.119-10.417-1.442c-5.358,1.647-8.783,9.915-5.82,14.771c-1.214,0.742-1.042,2.784,0.725,2.878
		c18.481,0.984,36.946,3.4,55.292,5.728c11.35,1.44,12.267-7.994,12.205-16.689C132.746,24.932,131.356,23.738,129.666,23.617z
		 M102.517,35.683c-11.133-0.93-22.01-2.312-33.108-1.532c-0.096-4.327,0.342-8.993,5.867-7.956
		c4.99,0.936,10.118,1.33,15.165,1.775c11.937,1.054,23.959,1.118,35.931,1.686C124.696,40.354,111.782,36.457,102.517,35.683z"/>
	<path d="M48.099,118.029c-7.445-2.934-15.382,3.742-17.761,10.654c-2.985,8.675,3.082,17.343,11.994,18.311
		c8.217,0.891,15.069-5.153,17.423-12.686C62.281,126.224,56.482,118.242,48.099,118.029z M53.807,132.669
		c-1.152,4.412-5.248,8.069-9.846,8.168c-5.914,0.125-8.519-5.342-7.145-10.367c1.298-4.746,4.663-6.894,8.702-8.035
		c0.297,0.32,0.654,0.604,1.146,0.768C51.604,124.852,55.35,126.757,53.807,132.669z"/>
	<path d="M153.14,123.95c-0.885-4.041-3.619-7.893-7.274-9.848c-3.332-1.782-10.259-2.537-11.892,1.781
		c-5.157,0.457-9.239,6.654-10.285,11.736c-1.996,9.699,4.436,17.181,14.335,16.405C148.717,143.189,155.443,134.468,153.14,123.95z
		 M138.025,136.863c-12.303,1.607-8.697-17.967,0.139-17.083c0.565,0.058,0.9-0.253,1.106-0.646
		c0.888-0.019,1.774,0.026,2.617,0.401c2.309,1.03,3.625,3.233,4.314,5.562C148.019,131.233,144.03,136.08,138.025,136.863z"/>
</g>
<g>
</g>
<g>
</g>
<g>
</g>
<g>
</g>
<g>
</g>
<g>
</g>
<g>
</g>
<g>
</g>
<g>
</g>
<g>
</g>
<g>
</g>
<g>
</g>
<g>
</g>
<g>
</g>
<g>
</g>
</svg>
