<svg xmlns="http://www.w3.org/2000/svg" height="512pt" version="1.1" viewBox="-135 0 512 512.00143" width="512pt">
<g id="surface1">
<path d="M 241.910156 333.492188 C 241.914062 333.390625 241.910156 333.285156 241.902344 333.183594 C 241.164062 303.207031 236.484375 273.464844 227.992188 244.777344 C 213.613281 196.195312 187.78125 149.074219 153.230469 108.332031 C 155.597656 102.253906 156.292969 95.527344 155.230469 88.9375 C 163.085938 81.984375 171.304688 75.195312 179.722656 68.738281 C 179.835938 68.652344 179.945312 68.558594 180.046875 68.457031 C 183.285156 65.375 180.734375 61.21875 174.144531 52.46875 C 170.273438 47.328125 166.042969 42.203125 165.246094 41.28125 C 156.144531 30.761719 147.972656 19.34375 140.964844 7.355469 L 140.769531 7.015625 C 139.171875 4.226562 136.480469 -0.445312 132.253906 0.0351562 C 130.898438 0.1875 128.445312 1.027344 127.257812 4.925781 C 123.136719 18.464844 123.957031 32.542969 129.515625 43.570312 C 129.957031 44.429688 132.421875 48.96875 134.839844 53.21875 C 136.292969 55.769531 137.402344 57.683594 138.292969 59.121094 C 137.152344 60.078125 136.03125 61.046875 134.90625 62.011719 C 132.890625 61.105469 130.824219 60.410156 128.726562 59.957031 C 121.863281 58.460938 114.9375 59.589844 108.53125 63.222656 C 106.929688 61.839844 105.324219 60.464844 103.71875 59.121094 C 104.605469 57.683594 105.722656 55.773438 107.171875 53.222656 C 109.675781 48.824219 112.101562 44.34375 112.5 43.554688 C 118.0625 32.542969 118.882812 18.460938 114.753906 4.933594 C 113.574219 1.035156 111.125 0.191406 109.773438 0.0351562 C 105.546875 -0.441406 102.972656 4.015625 101.265625 6.972656 L 101.050781 7.34375 C 94.042969 19.332031 85.875 30.75 76.765625 41.285156 C 75.976562 42.203125 71.746094 47.324219 67.871094 52.46875 C 61.140625 61.40625 58.71875 65.351562 61.953125 68.449219 C 62.058594 68.550781 62.171875 68.648438 62.289062 68.738281 C 71.566406 75.859375 80.539062 83.324219 89.03125 90.9375 C 88.089844 95.613281 88.042969 100.285156 88.929688 104.585938 C 89.125 105.511719 89.367188 106.421875 89.640625 107.3125 C 54.664062 148.289062 28.53125 195.769531 14.019531 244.78125 C 5.511719 273.515625 0.828125 303.308594 0.101562 333.335938 C -0.566406 360.570312 2.0625 387.535156 7.914062 413.484375 C 12.355469 433.261719 18.695312 452.472656 26.761719 470.582031 C 32.933594 484.429688 41.21875 499.667969 55.886719 507.683594 C 61.109375 510.535156 67.261719 512 73.375 512 C 77.28125 512 81.167969 511.402344 84.78125 510.179688 C 92.210938 507.664062 97.890625 502.710938 100.773438 496.222656 C 104.375 488.109375 103.632812 477.816406 98.742188 467.976562 C 95.480469 461.425781 90.925781 455.78125 86.519531 450.324219 C 85.46875 449.015625 84.414062 447.710938 83.378906 446.398438 C 58.03125 414.136719 43.371094 373.164062 40.980469 327.910156 C 39.441406 298.859375 43.222656 268.734375 51.910156 240.796875 C 64.003906 201.90625 85.199219 164.589844 114.882812 129.839844 C 115.199219 129.902344 115.519531 129.972656 115.835938 130.023438 C 117.507812 130.292969 119.195312 130.429688 120.894531 130.429688 C 122.953125 130.429688 125.03125 130.21875 127.113281 129.824219 C 156.804688 164.578125 178.003906 201.898438 190.097656 240.800781 C 198.785156 268.734375 202.566406 298.859375 201.027344 327.910156 C 198.636719 373.164062 183.976562 414.136719 158.625 446.402344 C 157.582031 447.734375 156.515625 449.054688 155.449219 450.375 C 151.0625 455.816406 146.527344 461.445312 143.269531 467.976562 C 138.375 477.820312 137.636719 488.113281 141.242188 496.226562 C 144.128906 502.710938 149.808594 507.667969 157.242188 510.179688 C 160.851562 511.402344 164.738281 512 168.640625 512 C 174.75 512 180.90625 510.53125 186.121094 507.683594 C 200.800781 499.660156 209.089844 484.425781 215.257812 470.582031 C 223.320312 452.472656 229.664062 433.269531 234.105469 413.503906 C 239.9375 387.582031 242.5625 360.664062 241.910156 333.492188 Z M 136.707031 39.921875 C 132.617188 31.800781 131.648438 21.546875 133.921875 11.277344 L 134 11.410156 C 141.261719 23.835938 149.722656 35.664062 159.144531 46.546875 C 161.957031 49.808594 169.746094 59.636719 172.507812 64.121094 C 165.773438 69.355469 159.160156 74.792969 152.773438 80.347656 C 152.757812 80.3125 152.742188 80.28125 152.726562 80.25 C 152.421875 79.535156 152.09375 78.828125 151.742188 78.136719 C 151.386719 77.4375 150.996094 76.757812 150.59375 76.085938 C 150.476562 75.890625 150.355469 75.699219 150.234375 75.507812 C 149.917969 75 149.585938 74.5 149.242188 74.007812 C 149.125 73.839844 149.011719 73.667969 148.890625 73.503906 C 148.433594 72.875 147.960938 72.257812 147.46875 71.660156 C 147.375 71.546875 147.277344 71.441406 147.183594 71.332031 C 146.765625 70.839844 146.335938 70.355469 145.890625 69.886719 C 145.730469 69.71875 145.574219 69.550781 145.410156 69.386719 C 144.960938 68.929688 144.503906 68.484375 144.03125 68.050781 C 143.921875 67.953125 143.816406 67.84375 143.703125 67.746094 C 143.195312 67.289062 142.675781 66.847656 142.140625 66.421875 C 143.542969 65.238281 144.957031 64.0625 146.371094 62.90625 C 148.089844 61.496094 148.34375 58.957031 146.933594 57.234375 C 146.730469 56.988281 146.507812 56.769531 146.261719 56.582031 C 144.417969 54.019531 137.851562 42.160156 136.707031 39.921875 Z M 69.507812 64.121094 C 72.273438 59.636719 80.0625 49.8125 82.871094 46.550781 C 92.300781 35.644531 100.757812 23.824219 108.007812 11.414062 L 108.089844 11.269531 C 110.371094 21.542969 109.402344 31.796875 105.300781 39.921875 C 104.382812 41.75 97.628906 53.976562 95.753906 56.585938 C 95.515625 56.765625 95.296875 56.976562 95.097656 57.214844 C 93.683594 58.929688 93.925781 61.464844 95.632812 62.886719 C 95.640625 62.890625 95.644531 62.894531 95.648438 62.898438 C 97.714844 64.59375 99.792969 66.339844 101.867188 68.113281 C 101.84375 68.132812 101.824219 68.15625 101.804688 68.171875 C 101.3125 68.628906 100.832031 69.097656 100.359375 69.582031 C 100.261719 69.683594 100.164062 69.792969 100.066406 69.894531 C 99.699219 70.28125 99.335938 70.675781 98.980469 71.078125 C 98.832031 71.246094 98.6875 71.417969 98.542969 71.585938 C 98.238281 71.941406 97.941406 72.300781 97.648438 72.664062 C 97.5 72.847656 97.355469 73.035156 97.210938 73.21875 C 96.917969 73.601562 96.628906 73.988281 96.347656 74.378906 C 96.226562 74.546875 96.101562 74.714844 95.980469 74.886719 C 95.628906 75.390625 95.289062 75.902344 94.957031 76.417969 C 94.917969 76.480469 94.875 76.542969 94.835938 76.601562 C 94.457031 77.199219 94.097656 77.804688 93.75 78.417969 C 93.675781 78.542969 93.609375 78.671875 93.539062 78.800781 C 93.273438 79.28125 93.015625 79.761719 92.765625 80.25 C 92.667969 80.445312 92.574219 80.636719 92.480469 80.832031 C 92.265625 81.269531 92.058594 81.710938 91.859375 82.15625 C 91.808594 82.269531 91.75 82.378906 91.703125 82.496094 C 84.585938 76.21875 77.148438 70.0625 69.507812 64.121094 Z M 44.214844 238.402344 C 27.910156 290.8125 27.925781 349.0625 48.121094 400.421875 C 55.300781 418.6875 64.90625 435.933594 77.042969 451.375 C 78.097656 452.71875 79.171875 454.050781 80.246094 455.382812 C 84.570312 460.742188 88.65625 465.800781 91.519531 471.5625 C 95.339844 479.246094 96.027344 487.039062 93.410156 492.945312 C 90.898438 498.585938 85.925781 501.277344 82.199219 502.539062 C 75 504.972656 66.398438 504.234375 59.753906 500.601562 C 44.515625 492.285156 35.460938 472.832031 29.683594 457.222656 C 24.554688 443.371094 21.652344 428.851562 18.378906 414.488281 C 15.148438 400.304688 11.507812 386.527344 9.796875 372.019531 C 6.351562 342.765625 7.738281 313.035156 12.945312 284.070312 C 15.191406 271.585938 18.148438 259.230469 21.75 247.066406 C 35.617188 200.226562 60.351562 154.789062 93.429688 115.304688 C 93.515625 115.433594 93.609375 115.550781 93.695312 115.679688 C 93.945312 116.046875 94.199219 116.40625 94.464844 116.761719 C 94.621094 116.976562 94.777344 117.1875 94.941406 117.394531 C 95.214844 117.75 95.5 118.097656 95.789062 118.445312 C 95.949219 118.632812 96.105469 118.828125 96.273438 119.015625 C 96.621094 119.410156 96.976562 119.789062 97.34375 120.167969 C 97.460938 120.292969 97.574219 120.421875 97.695312 120.542969 C 98.183594 121.03125 98.683594 121.503906 99.199219 121.964844 C 99.347656 122.097656 99.5 122.21875 99.648438 122.347656 C 100.027344 122.671875 100.40625 122.996094 100.796875 123.304688 C 101.007812 123.46875 101.21875 123.625 101.429688 123.78125 C 101.777344 124.042969 102.128906 124.300781 102.484375 124.546875 C 102.714844 124.710938 102.949219 124.867188 103.183594 125.019531 C 103.535156 125.253906 103.894531 125.480469 104.257812 125.699219 C 104.496094 125.84375 104.734375 125.988281 104.976562 126.128906 C 105.363281 126.351562 105.757812 126.558594 106.15625 126.765625 C 106.324219 126.855469 106.484375 126.957031 106.65625 127.039062 C 77.347656 161.933594 56.347656 199.371094 44.214844 238.402344 Z M 117.121094 122.0625 C 116.253906 121.921875 115.367188 121.722656 114.492188 121.476562 C 113.902344 121.3125 113.324219 121.113281 112.75 120.902344 C 106.121094 118.460938 100.546875 113.144531 97.949219 106.640625 C 97.472656 105.46875 97.09375 104.222656 96.824219 102.941406 C 96.039062 99.125 96.230469 94.84375 97.394531 90.550781 C 98.542969 86.246094 100.589844 82.113281 103.25 78.5625 C 105.320312 75.804688 107.761719 73.398438 110.441406 71.535156 C 113.359375 69.511719 117.664062 67.382812 122.871094 67.382812 C 124.199219 67.382812 125.585938 67.519531 127.019531 67.835938 C 129.238281 68.3125 131.433594 69.152344 133.535156 70.324219 C 138.175781 72.90625 142.09375 76.988281 144.558594 81.800781 C 145.59375 83.832031 146.386719 86.027344 146.910156 88.324219 C 146.910156 88.324219 146.910156 88.324219 146.910156 88.328125 C 148.382812 94.789062 147.671875 101.523438 144.90625 107.292969 C 144.902344 107.300781 144.898438 107.308594 144.894531 107.316406 C 144.347656 108.476562 143.726562 109.574219 143.039062 110.585938 C 142.597656 111.242188 142.125 111.875 141.625 112.484375 C 138.101562 116.765625 133.097656 119.984375 127.574219 121.460938 C 124.03125 122.410156 120.511719 122.609375 117.121094 122.0625 Z M 234.015625 345.175781 C 233.683594 370.152344 230.367188 395.0625 223.773438 419.191406 C 219.28125 435.636719 214.863281 451.652344 207.894531 467.296875 C 202.273438 479.910156 194.832031 493.734375 182.257812 500.605469 C 175.617188 504.230469 167.019531 504.972656 159.828125 502.539062 C 156.097656 501.277344 151.125 498.589844 148.613281 492.949219 C 145.984375 487.039062 146.667969 479.246094 150.488281 471.570312 C 153.351562 465.820312 157.421875 460.777344 161.726562 455.433594 C 162.816406 454.085938 163.902344 452.734375 164.96875 451.378906 C 176.425781 436.785156 183.601562 420.640625 192.636719 404.703125 C 199.039062 393.414062 201.382812 378.644531 203.804688 365.910156 C 206.492188 351.804688 208.125 337.5 208.648438 323.148438 C 209.6875 294.570312 206.300781 265.742188 197.796875 238.402344 C 185.675781 199.414062 164.707031 162.007812 135.441406 127.148438 C 135.460938 127.140625 135.480469 127.128906 135.503906 127.117188 C 136.105469 126.835938 136.695312 126.539062 137.28125 126.222656 C 137.433594 126.140625 137.585938 126.054688 137.738281 125.96875 C 138.203125 125.710938 138.664062 125.445312 139.117188 125.164062 C 139.253906 125.082031 139.390625 125 139.527344 124.914062 C 140.085938 124.5625 140.632812 124.195312 141.167969 123.8125 C 141.28125 123.734375 141.390625 123.648438 141.503906 123.5625 C 141.941406 123.246094 142.367188 122.917969 142.789062 122.582031 C 142.929688 122.464844 143.074219 122.351562 143.214844 122.238281 C 143.722656 121.816406 144.222656 121.386719 144.703125 120.941406 C 144.742188 120.90625 144.773438 120.871094 144.8125 120.835938 C 145.261719 120.417969 145.691406 119.988281 146.113281 119.546875 C 146.242188 119.414062 146.371094 119.28125 146.496094 119.144531 C 146.875 118.734375 147.246094 118.320312 147.605469 117.894531 C 147.675781 117.8125 147.746094 117.730469 147.816406 117.648438 C 148.226562 117.148438 148.621094 116.636719 149.003906 116.117188 C 149.042969 116.0625 149.085938 116.015625 149.121094 115.960938 C 181.929688 155.292969 206.480469 200.511719 220.257812 247.070312 C 229.644531 278.78125 234.460938 312.039062 234.015625 345.175781 Z M 234.015625 345.175781 " style=" stroke:none;fill-rule:nonzero;fill:rgb(0%,0%,0%);fill-opacity:1;" />
<path d="M 100.488281 56.472656 C 100.246094 56.308594 99.996094 56.160156 99.734375 56.050781 C 99.992188 56.15625 100.242188 56.304688 100.488281 56.472656 Z M 100.488281 56.472656 " style=" stroke:none;fill-rule:nonzero;fill:rgb(0%,0%,0%);fill-opacity:1;" />
<path d="M 138.421875 104.324219 C 141.132812 99.941406 141.867188 95.222656 140.550781 90.683594 C 139.074219 85.585938 135.046875 81.109375 129.507812 78.410156 C 125.917969 76.660156 121.546875 76.570312 117.203125 78.152344 C 112.042969 80.03125 107.578125 84.035156 105.550781 88.597656 C 103.1875 93.917969 103.753906 100.507812 107 105.386719 C 110.296875 110.351562 116.21875 113.464844 122.253906 113.464844 C 122.507812 113.464844 122.761719 113.460938 123.015625 113.449219 C 129.207031 113.179688 135.113281 109.683594 138.421875 104.324219 Z M 110.355469 103.15625 C 107.855469 99.394531 107.417969 94.324219 109.234375 90.234375 C 110.832031 86.636719 114.414062 83.457031 118.582031 81.941406 C 120.195312 81.351562 121.796875 81.058594 123.3125 81.058594 C 124.90625 81.058594 126.410156 81.382812 127.738281 82.03125 C 132.257812 84.234375 135.515625 87.796875 136.679688 91.804688 C 137.667969 95.21875 137.085938 98.816406 134.996094 102.203125 C 132.414062 106.378906 127.644531 109.210938 122.839844 109.417969 C 117.9375 109.640625 113.027344 107.175781 110.355469 103.15625 Z M 110.355469 103.15625 " style=" stroke:none;fill-rule:nonzero;fill:rgb(0%,0%,0%);fill-opacity:1;" />
<path d="M 126.222656 86.652344 C 124.332031 85.730469 122.054688 85.675781 119.804688 86.492188 C 117.207031 87.4375 114.949219 89.472656 113.914062 91.796875 C 112.699219 94.535156 112.992188 97.925781 114.660156 100.433594 C 116.347656 102.976562 119.378906 104.574219 122.46875 104.574219 C 122.597656 104.574219 122.726562 104.570312 122.855469 104.566406 C 126.011719 104.425781 129.019531 102.648438 130.703125 99.921875 C 132.09375 97.671875 132.46875 95.234375 131.785156 92.878906 C 131.03125 90.277344 129.003906 88.007812 126.222656 86.652344 Z M 127.273438 97.804688 C 126.296875 99.386719 124.492188 100.457031 122.679688 100.539062 C 120.894531 100.613281 118.996094 99.679688 118.015625 98.203125 C 117.09375 96.8125 116.929688 94.941406 117.597656 93.433594 C 118.195312 92.09375 119.601562 90.859375 121.1875 90.28125 C 121.792969 90.058594 122.386719 89.949219 122.941406 89.949219 C 123.496094 89.949219 124.007812 90.058594 124.457031 90.277344 C 126.214844 91.132812 127.476562 92.492188 127.914062 94 C 128.273438 95.25 128.058594 96.53125 127.273438 97.804688 Z M 127.273438 97.804688 " style=" stroke:none;fill-rule:nonzero;fill:rgb(0%,0%,0%);fill-opacity:1;" />
</g>
</svg>