<svg xmlns="http://www.w3.org/2000/svg" height="511pt" version="1.1" viewBox="-160 0 511 511.99836" width="511pt">
<g id="surface1">
<path d="M 45.683594 20.542969 C 37.621094 23.082031 30.027344 29.566406 25.375 37.886719 C 20.265625 47.023438 19.28125 57.203125 22.671875 65.816406 C 25.53125 73.078125 31.808594 79.070312 39.460938 81.84375 C 42.964844 83.113281 46.714844 83.746094 50.59375 83.746094 C 54.1875 83.746094 57.898438 83.199219 61.625 82.105469 C 70.253906 79.578125 77.429688 74.464844 81.832031 67.707031 C 89.273438 56.292969 88.289062 39.886719 79.539062 29.550781 C 71.925781 20.554688 57.6875 16.765625 45.683594 20.542969 Z M 75.078125 63.304688 C 71.722656 68.453125 66.140625 72.382812 59.355469 74.371094 C 55.113281 75.617188 48.6875 76.609375 42.207031 74.261719 C 36.699219 72.265625 32.199219 68.007812 30.171875 62.863281 C 27.671875 56.511719 28.484375 48.839844 32.410156 41.824219 C 36.085938 35.253906 41.953125 30.171875 48.105469 28.234375 C 57.144531 25.390625 67.773438 28.136719 73.382812 34.761719 C 79.8125 42.355469 80.558594 54.894531 75.078125 63.304688 Z M 75.078125 63.304688 " style=" stroke:none;fill-rule:nonzero;fill:rgb(0%,0%,0%);fill-opacity:1;" />
<path d="M 129.351562 82.105469 C 133.082031 83.199219 136.789062 83.746094 140.386719 83.746094 C 144.265625 83.746094 148.015625 83.113281 151.515625 81.84375 C 159.171875 79.070312 165.449219 73.078125 168.308594 65.816406 C 171.699219 57.203125 170.714844 47.023438 165.605469 37.886719 C 160.949219 29.566406 153.359375 23.082031 145.292969 20.542969 C 133.292969 16.765625 119.054688 20.554688 111.441406 29.550781 C 102.691406 39.886719 101.707031 56.289062 109.148438 67.707031 C 113.550781 74.464844 120.726562 79.578125 129.351562 82.105469 Z M 117.59375 34.757812 C 121.714844 29.890625 128.546875 27.117188 135.464844 27.117188 C 137.964844 27.117188 140.476562 27.480469 142.871094 28.234375 C 149.023438 30.171875 154.890625 35.25 158.566406 41.824219 C 162.492188 48.839844 163.304688 56.507812 160.804688 62.863281 C 158.777344 68.003906 154.28125 72.265625 148.769531 74.261719 C 142.289062 76.609375 135.867188 75.617188 131.621094 74.371094 C 124.839844 72.382812 119.253906 68.453125 115.898438 63.304688 C 110.421875 54.894531 111.164062 42.355469 117.59375 34.757812 Z M 117.59375 34.757812 " style=" stroke:none;fill-rule:nonzero;fill:rgb(0%,0%,0%);fill-opacity:1;" />
<path d="M 183.058594 133.476562 C 178.875 131.707031 174.332031 131.757812 170.679688 131.796875 L 153.449219 131.992188 C 153.097656 127.683594 150.195312 123.53125 145.730469 121.300781 C 141.453125 119.160156 136.738281 119.015625 132.949219 118.902344 C 125.535156 118.675781 118.089844 118.519531 110.636719 118.414062 C 110.632812 118.273438 110.644531 118.140625 110.628906 118 C 110.515625 116.964844 110.386719 115.996094 110.261719 115.0625 C 109.792969 111.515625 109.457031 108.953125 110.160156 105.542969 C 111.054688 101.199219 113.511719 97.644531 116.574219 96.265625 C 120.117188 94.675781 124.601562 95.535156 129.347656 96.449219 C 130.164062 96.605469 130.972656 96.761719 131.777344 96.90625 C 148.027344 99.800781 163.234375 96.453125 173.503906 87.71875 C 185.082031 77.878906 190.289062 60.527344 186.46875 44.542969 C 183.078125 30.371094 173.109375 17.351562 159.113281 8.816406 C 149.285156 2.820312 138.832031 -0.21875 128.84375 0.0117188 C 122.070312 0.175781 115.460938 1.917969 109.738281 5.058594 C 102.273438 9.152344 99.390625 13.757812 96.929688 20.332031 C 96.386719 21.78125 95.917969 23.226562 95.488281 24.671875 C 95.058594 23.226562 94.589844 21.78125 94.046875 20.332031 C 91.589844 13.757812 88.707031 9.152344 81.242188 5.058594 C 75.515625 1.917969 68.910156 0.175781 62.132812 0.0117188 C 52.183594 -0.207031 41.699219 2.816406 31.863281 8.816406 C 17.871094 17.351562 7.898438 30.371094 4.511719 44.542969 C 0.691406 60.527344 5.898438 77.878906 17.472656 87.71875 C 27.746094 96.453125 42.953125 99.800781 59.203125 96.90625 C 60.003906 96.761719 60.816406 96.605469 61.632812 96.449219 C 66.378906 95.539062 70.863281 94.675781 74.40625 96.265625 C 77.464844 97.644531 79.925781 101.199219 80.820312 105.542969 C 81.523438 108.953125 81.183594 111.515625 80.714844 115.0625 C 80.589844 115.996094 80.464844 116.964844 80.347656 118 C 80.335938 118.105469 80.347656 118.207031 80.34375 118.308594 C 71.097656 118.378906 61.867188 118.53125 52.679688 118.785156 C 48.722656 118.890625 43.796875 119.027344 39.355469 121.332031 C 35.152344 123.511719 31.515625 128.164062 31.71875 133.367188 L 24.285156 133.449219 C 23.019531 133.460938 21.65625 133.414062 20.207031 133.359375 C 16.019531 133.203125 11.269531 133.03125 7.054688 134.390625 C 4.007812 135.375 1.835938 137.433594 0.9375 140.1875 C -0.0507812 143.21875 0.648438 146.703125 2.855469 149.746094 C 7.207031 155.742188 14.96875 155.847656 20.105469 155.917969 L 41.433594 156.210938 L 36.421875 327.566406 C 35.855469 346.800781 35.15625 370.742188 46.402344 390.175781 C 52.835938 401.292969 63.078125 410.039062 74.707031 414.832031 C 74.667969 414.960938 74.613281 415.082031 74.582031 415.21875 C 73.695312 419.257812 74.671875 423.632812 77.191406 426.914062 C 78.472656 428.582031 80.023438 429.84375 81.667969 430.804688 L 81.960938 507.980469 C 81.96875 509.75 83.125 511.304688 84.816406 511.820312 C 85.207031 511.941406 85.601562 512 85.996094 512 C 87.304688 512 88.5625 511.359375 89.328125 510.234375 C 94.875 502.082031 101.164062 492.839844 103.160156 482 C 104.113281 476.816406 104.015625 471.679688 103.921875 466.707031 L 103.261719 432.320312 C 103.257812 432.128906 103.226562 431.945312 103.195312 431.761719 C 104.171875 431.300781 105.132812 430.753906 106.058594 430.082031 C 110.679688 426.734375 113.042969 421.046875 112.148438 415.949219 C 121.21875 412.820312 129.390625 407.320312 135.3125 399.964844 C 148.3125 383.808594 149.644531 362.273438 149.925781 339.769531 L 152.222656 157.726562 L 171.292969 157.992188 C 171.933594 158 172.589844 158.007812 173.257812 158.007812 C 176.289062 158.007812 179.5625 157.824219 182.769531 156.59375 C 187.78125 154.671875 191.207031 150.417969 191.5 145.761719 C 191.871094 139.898438 187.527344 135.367188 183.058594 133.476562 Z M 99.75 95.640625 C 99.78125 88.316406 99.8125 80.742188 100.0625 73.386719 C 100.214844 68.90625 100.183594 64.445312 100.15625 60.132812 C 100.070312 47.300781 99.984375 35.179688 104.480469 23.15625 C 106.707031 17.210938 108.667969 14.839844 113.613281 12.128906 C 118.214844 9.605469 123.546875 8.203125 129.039062 8.074219 C 137.441406 7.871094 146.40625 10.507812 154.914062 15.699219 C 167.089844 23.121094 175.730469 34.320312 178.625 46.414062 C 181.757812 59.519531 177.601562 73.652344 168.28125 81.578125 C 159.851562 88.746094 147.058594 91.4375 133.191406 88.964844 C 132.421875 88.828125 131.648438 88.679688 130.871094 88.53125 C 125.367188 87.472656 119.132812 86.273438 113.265625 88.910156 C 107.804688 91.367188 103.6875 96.976562 102.257812 103.917969 C 101.28125 108.65625 101.761719 112.28125 102.269531 116.121094 C 102.363281 116.820312 102.457031 117.554688 102.546875 118.316406 C 101.847656 118.308594 101.144531 118.308594 100.445312 118.304688 C 100.476562 118.074219 100.5 117.835938 100.492188 117.59375 L 99.75 95.84375 C 99.75 95.777344 99.75 95.707031 99.75 95.640625 Z M 77.710938 88.910156 C 71.847656 86.273438 65.609375 87.472656 60.109375 88.53125 C 59.332031 88.679688 58.554688 88.828125 57.785156 88.964844 C 43.921875 91.4375 31.128906 88.746094 22.695312 81.574219 C 13.375 73.648438 9.21875 59.519531 12.351562 46.414062 C 15.246094 34.316406 23.886719 23.121094 36.0625 15.695312 C 44.570312 10.507812 53.5 7.855469 61.941406 8.070312 C 67.429688 8.203125 72.765625 9.605469 77.367188 12.128906 C 82.308594 14.839844 84.269531 17.210938 86.496094 23.15625 C 90.992188 35.175781 90.910156 47.296875 90.824219 60.128906 C 90.792969 64.441406 90.761719 68.902344 90.914062 73.382812 L 91.683594 95.976562 C 91.65625 103.175781 91.621094 110.605469 91.375 117.832031 C 91.367188 117.980469 91.390625 118.121094 91.402344 118.265625 C 90.414062 118.265625 89.421875 118.269531 88.433594 118.273438 C 88.523438 117.527344 88.617188 116.804688 88.707031 116.117188 C 89.214844 112.28125 89.695312 108.65625 88.71875 103.914062 C 87.289062 96.976562 83.171875 91.367188 77.710938 88.910156 Z M 43.070312 128.488281 C 44.628906 127.679688 46.472656 127.800781 48.203125 127.632812 C 50.367188 127.421875 52.53125 127.226562 54.695312 127.046875 C 59.027344 126.683594 63.367188 126.382812 67.707031 126.140625 C 76.386719 125.652344 85.078125 125.402344 93.773438 125.390625 C 108.246094 125.367188 122.636719 126.230469 137.070312 127.199219 C 138.796875 127.316406 140.570312 127.441406 142.144531 128.167969 C 143.304688 128.699219 144.394531 129.640625 144.878906 130.84375 C 145.691406 132.871094 140.574219 132.363281 139.339844 132.433594 C 136.722656 132.589844 134.105469 132.707031 131.488281 132.78125 C 124.566406 132.984375 117.636719 132.867188 110.714844 132.867188 C 102.023438 132.921875 93.328125 133.03125 84.632812 133.03125 C 69.695312 133.128906 54.746094 133.101562 39.820312 133.273438 C 39.632812 131.636719 41.011719 129.554688 43.070312 128.488281 Z M 90.277344 494.21875 C 90.429688 490.234375 90.605469 486.226562 90.511719 482.242188 C 90.378906 476.773438 90.257812 471.308594 90.148438 465.839844 C 90.09375 462.988281 90.304688 433.527344 89.742188 433.449219 C 90.105469 433.5 90.464844 433.546875 90.808594 433.578125 C 91.707031 433.667969 92.6875 433.726562 93.726562 433.726562 C 94.214844 433.726562 94.714844 433.714844 95.222656 433.683594 C 94.9375 433.703125 95.925781 463.5 95.851562 466.554688 C 95.757812 470.621094 95.734375 474.695312 95.382812 478.75 C 95.160156 481.359375 95.261719 484.101562 94.464844 486.625 C 93.640625 489.226562 90.226562 492.902344 90.226562 495.558594 C 90.246094 495.113281 90.261719 494.667969 90.277344 494.21875 Z M 101.328125 423.554688 C 99.003906 425.242188 95.546875 425.949219 91.613281 425.558594 C 89.46875 425.34375 85.578125 424.597656 83.585938 422.003906 C 82.597656 420.71875 82.164062 418.980469 82.390625 417.371094 C 84.339844 417.851562 86.3125 418.234375 88.296875 418.488281 C 90.433594 418.761719 92.582031 418.894531 94.726562 418.894531 C 97.933594 418.894531 101.125 418.582031 104.261719 418.007812 C 104.320312 419.960938 103.199219 422.199219 101.328125 423.554688 Z M 141.863281 339.667969 C 141.597656 360.703125 140.417969 380.757812 129.03125 394.910156 C 119.878906 406.28125 104.292969 412.394531 89.316406 410.492188 C 74.773438 408.636719 61.003906 399.304688 53.382812 386.136719 C 43.285156 368.6875 43.949219 346.019531 44.480469 327.800781 L 49.5 156.320312 L 80.410156 156.746094 L 79.648438 208.339844 L 73.570312 208 C 69.890625 207.789062 65.308594 207.53125 61.03125 209.308594 C 55.871094 211.453125 51.835938 216.316406 49.957031 222.65625 C 48.414062 227.855469 48.457031 233.28125 48.492188 238.070312 C 48.523438 242.183594 48.585938 248.210938 51.898438 252.929688 C 49.332031 282.53125 48.367188 312.585938 49.054688 342.277344 C 49.367188 355.992188 50.273438 370.371094 57.40625 382.171875 C 64.695312 394.230469 78.378906 402.160156 92.265625 402.371094 C 92.460938 402.375 92.65625 402.375 92.851562 402.375 C 106.894531 402.375 120.378906 394.695312 127.332031 382.691406 C 132.417969 373.910156 133.8125 363.578125 134.804688 353.753906 C 138.054688 321.554688 138.398438 288.871094 135.828125 256.613281 C 135.816406 256.476562 135.789062 256.34375 135.753906 256.214844 C 138.652344 252.859375 139.648438 248.605469 140.242188 244.886719 C 141.222656 238.707031 141.488281 232.390625 141.019531 226.113281 C 140.980469 225.597656 140.957031 225.050781 140.933594 224.496094 C 140.753906 220.601562 140.417969 213.351562 133.492188 211.546875 C 129.253906 210.4375 124.648438 210.433594 120.195312 210.425781 C 118.253906 210.421875 116.421875 210.421875 114.726562 210.324219 L 108.484375 209.972656 L 109.667969 157.144531 L 144.164062 157.617188 Z M 114.269531 218.375 C 116.1875 218.480469 118.214844 218.484375 120.179688 218.488281 C 124.128906 218.496094 128.210938 218.5 131.457031 219.347656 C 132.105469 219.515625 132.4375 220.316406 132.640625 221.808594 L 59.019531 221.75 C 60.3125 219.386719 62.097656 217.59375 64.121094 216.753906 C 65.714844 216.09375 67.570312 215.910156 69.5 215.910156 C 70.691406 215.910156 71.910156 215.980469 73.113281 216.046875 Z M 87.707031 208.796875 L 88.472656 156.855469 L 101.605469 157.035156 L 100.429688 209.515625 Z M 67.625 260.390625 C 80.113281 262.066406 92.765625 262.90625 105.394531 262.90625 C 109.578125 262.90625 113.761719 262.8125 117.933594 262.628906 C 122.890625 262.410156 127.914062 261.804688 131.988281 259.371094 C 134.332031 290.597656 133.9375 322.199219 130.792969 353.347656 C 129.84375 362.738281 128.527344 372.582031 123.84375 380.671875 C 117.695312 391.289062 105.28125 398.34375 92.828125 398.339844 C 92.660156 398.339844 92.492188 398.339844 92.328125 398.335938 C 79.796875 398.148438 67.445312 390.980469 60.855469 380.085938 C 54.238281 369.132812 53.386719 355.355469 53.082031 342.183594 C 52.429688 313.753906 53.300781 284.988281 55.648438 256.613281 C 59.246094 259.0625 63.640625 259.859375 67.625 260.390625 Z M 57.539062 246.382812 L 131.460938 247.359375 C 131.046875 248.71875 130.480469 249.984375 129.648438 250.949219 C 127.207031 253.769531 122.402344 254.359375 117.574219 254.574219 C 101.296875 255.296875 84.847656 254.5625 68.695312 252.398438 C 64.914062 251.894531 61.050781 251.207031 58.96875 248.90625 C 58.335938 248.207031 57.882812 247.34375 57.539062 246.382812 Z M 132.316406 243.339844 C 132.21875 243.960938 111.476562 242.867188 109.554688 242.824219 C 100.789062 242.632812 92.023438 242.515625 83.257812 242.480469 C 81.085938 242.472656 56.730469 242.574219 56.730469 242.34375 C 56.605469 240.964844 56.566406 239.503906 56.554688 238.007812 C 56.523438 233.875 56.503906 229.621094 57.472656 225.78125 C 57.582031 225.347656 69.175781 225.71875 70.332031 225.707031 C 74.707031 225.660156 79.078125 225.601562 83.453125 225.554688 C 91.839844 225.472656 100.226562 225.574219 108.613281 225.734375 C 116.601562 225.882812 124.960938 226.808594 132.890625 225.804688 C 133.582031 225.714844 132.539062 241.90625 132.316406 243.339844 Z M 179.878906 149.0625 C 177.414062 150.011719 174.359375 149.96875 171.402344 149.929688 L 20.21875 147.855469 C 15.371094 147.789062 11.210938 147.527344 9.382812 145.011719 C 8.65625 144.007812 8.46875 143.101562 8.605469 142.6875 C 8.707031 142.375 9.230469 142.164062 9.535156 142.066406 C 11.367188 141.472656 13.589844 141.316406 15.917969 141.316406 C 17.230469 141.316406 18.582031 141.367188 19.910156 141.417969 C 21.394531 141.472656 22.929688 141.527344 24.375 141.511719 L 170.769531 139.859375 C 173.964844 139.824219 177.28125 139.785156 179.917969 140.902344 C 182.035156 141.796875 183.554688 143.667969 183.453125 145.25 C 183.363281 146.703125 181.859375 148.304688 179.878906 149.0625 Z M 179.878906 149.0625 " style=" stroke:none;fill-rule:nonzero;fill:rgb(0%,0%,0%);fill-opacity:1;" />
<path d="M 99.101562 270.539062 L 88.957031 270.535156 C 87.84375 270.535156 86.941406 271.433594 86.941406 272.546875 C 86.9375 273.660156 87.839844 274.5625 88.957031 274.5625 L 99.097656 274.570312 L 99.101562 274.570312 C 100.210938 274.570312 101.117188 273.667969 101.117188 272.558594 C 101.117188 271.445312 100.214844 270.542969 99.101562 270.539062 Z M 99.101562 270.539062 " style=" stroke:none;fill-rule:nonzero;fill:rgb(0%,0%,0%);fill-opacity:1;" />
<path d="M 99.101562 290.964844 L 88.957031 290.957031 C 87.84375 290.957031 86.941406 291.859375 86.941406 292.972656 C 86.9375 294.085938 87.839844 294.988281 88.957031 294.988281 L 99.097656 294.996094 L 99.101562 294.996094 C 100.210938 294.996094 101.117188 294.09375 101.117188 292.980469 C 101.117188 291.871094 100.214844 290.964844 99.101562 290.964844 Z M 99.101562 290.964844 " style=" stroke:none;fill-rule:nonzero;fill:rgb(0%,0%,0%);fill-opacity:1;" />
<path d="M 99.101562 311.390625 L 88.957031 311.382812 C 87.84375 311.382812 86.941406 312.285156 86.941406 313.394531 C 86.9375 314.507812 87.839844 315.410156 88.957031 315.414062 L 99.097656 315.421875 L 99.101562 315.421875 C 100.210938 315.421875 101.117188 314.519531 101.117188 313.40625 C 101.117188 312.292969 100.214844 311.390625 99.101562 311.390625 Z M 99.101562 311.390625 " style=" stroke:none;fill-rule:nonzero;fill:rgb(0%,0%,0%);fill-opacity:1;" />
<path d="M 99.097656 335.84375 L 99.101562 333.828125 L 99.085938 331.8125 L 88.957031 331.804688 C 87.84375 331.804688 86.941406 332.707031 86.941406 333.820312 C 86.9375 334.933594 87.839844 335.835938 88.953125 335.835938 Z M 99.097656 335.84375 " style=" stroke:none;fill-rule:nonzero;fill:rgb(0%,0%,0%);fill-opacity:1;" />
<path d="M 99.101562 352.238281 L 88.957031 352.230469 C 87.84375 352.230469 86.941406 353.132812 86.941406 354.246094 C 86.9375 355.359375 87.839844 356.261719 88.957031 356.261719 L 99.097656 356.269531 L 99.101562 356.269531 C 100.210938 356.269531 101.117188 355.367188 101.117188 354.253906 C 101.117188 353.140625 100.214844 352.238281 99.101562 352.238281 Z M 99.101562 352.238281 " style=" stroke:none;fill-rule:nonzero;fill:rgb(0%,0%,0%);fill-opacity:1;" />
<path d="M 99.101562 372.664062 L 88.957031 372.65625 C 87.84375 372.65625 86.941406 373.558594 86.941406 374.667969 C 86.9375 375.78125 87.839844 376.683594 88.957031 376.6875 L 99.097656 376.691406 L 99.101562 376.691406 C 100.210938 376.691406 101.117188 375.792969 101.117188 374.679688 C 101.117188 373.566406 100.214844 372.664062 99.101562 372.664062 Z M 99.101562 372.664062 " style=" stroke:none;fill-rule:nonzero;fill:rgb(0%,0%,0%);fill-opacity:1;" />
</g>
</svg>