<svg xmlns="http://www.w3.org/2000/svg" height="512pt" version="1.1" viewBox="-81 0 512 512.00081" width="512pt">
<g id="surface1">
<path d="M 340.957031 59.519531 C 335.839844 54.398438 329.199219 51.507812 323.335938 48.957031 L 225.085938 6.21875 L 222.304688 5.011719 C 213.5625 1.207031 204.21875 -2.175781 194.542969 1.75 C 187.539062 4.59375 182.558594 10.507812 179.746094 19.324219 C 177.820312 25.347656 176.875 32.828125 176.851562 42.199219 L 176.824219 53.742188 L 44.871094 52.828125 C 31.867188 52.742188 17.238281 53.496094 8.1875 63.671875 C 0.578125 72.230469 -0.0273438 84.199219 0 95.726562 L 0.734375 374.007812 C 0.746094 379.242188 0.757812 384.480469 0.765625 389.714844 C 0.78125 400.253906 0.800781 410.789062 0.855469 421.328125 C 0.921875 433.097656 2.363281 447.820312 13.007812 457.304688 C 21.664062 465.007812 32.523438 465.089844 42.105469 465.164062 C 43.667969 465.175781 45.230469 465.1875 46.78125 465.230469 L 86.851562 466.34375 C 86.886719 466.34375 86.925781 466.34375 86.964844 466.34375 C 107.660156 466.34375 128.765625 467.292969 149.179688 468.210938 C 157.914062 468.601562 166.929688 469.007812 175.804688 469.332031 L 175.765625 485.441406 C 175.746094 494.429688 176.695312 503.46875 183.746094 508.679688 C 187.085938 511.148438 190.894531 512 194.632812 512 C 200.480469 512 206.152344 509.914062 209.570312 508.65625 L 302.726562 474.378906 C 312.460938 470.796875 325.789062 465.894531 333.023438 454.910156 C 339.339844 445.320312 339.605469 433.386719 339.824219 423.800781 L 346.65625 119.890625 C 346.738281 116.28125 347.238281 111.761719 347.765625 106.980469 C 349.570312 90.679688 351.808594 70.394531 340.957031 59.519531 Z M 175.871094 442.410156 C 168.316406 442.125 160.65625 441.78125 153.226562 441.449219 C 148.160156 441.222656 143.042969 440.992188 137.902344 440.777344 C 137.941406 440.636719 137.96875 440.484375 137.972656 440.328125 L 140.398438 379.601562 C 140.515625 376.675781 140.761719 370.59375 136.507812 367.550781 C 134.03125 365.78125 130.925781 365.753906 128.660156 365.734375 L 100.019531 365.496094 C 98.386719 365.480469 95.925781 365.460938 94.0625 367.082031 C 91.621094 369.207031 91.851562 372.652344 91.972656 374.503906 L 96.289062 439.742188 C 96.28125 439.742188 96.277344 439.742188 96.269531 439.742188 L 81.167969 439.320312 L 83.554688 379.601562 C 83.671875 376.675781 83.914062 370.59375 79.660156 367.550781 C 77.183594 365.78125 74.082031 365.753906 71.8125 365.738281 L 43.175781 365.496094 C 41.546875 365.480469 39.078125 365.460938 37.21875 367.082031 C 34.777344 369.207031 35.003906 372.65625 35.128906 374.503906 L 39.238281 436.660156 C 37.363281 435.914062 35.597656 434.890625 33.992188 433.457031 C 26.566406 426.847656 25.554688 415.527344 25.507812 406.40625 C 25.453125 396.859375 25.4375 387.308594 25.421875 377.761719 C 25.414062 372.953125 25.40625 368.148438 25.390625 363.339844 L 25.328125 339.625 L 176.128906 338.1875 Z M 133.980469 440.621094 C 122.808594 440.175781 111.535156 439.832031 100.328125 439.761719 L 99.632812 429.230469 L 134.421875 428.257812 L 133.945312 440.167969 C 133.9375 440.324219 133.953125 440.472656 133.980469 440.621094 Z M 99.367188 425.207031 L 98.101562 406.082031 L 135.3125 405.945312 L 134.582031 424.21875 Z M 97.835938 402.050781 L 97.1875 392.273438 L 135.820312 392.734375 L 135.839844 392.734375 L 135.472656 401.914062 Z M 96.921875 388.238281 L 95.996094 374.238281 C 95.882812 372.523438 95.890625 370.835938 96.710938 370.121094 C 97.367188 369.550781 98.632812 369.515625 99.988281 369.527344 L 128.628906 369.765625 C 130.867188 369.785156 132.832031 369.878906 134.164062 370.828125 C 136.351562 372.394531 136.507812 376.058594 136.371094 379.4375 L 136 388.71875 C 135.957031 388.714844 135.914062 388.703125 135.867188 388.703125 Z M 42.519531 425.207031 L 41.257812 406.082031 L 78.46875 405.945312 L 77.738281 424.21875 Z M 77.574219 428.257812 L 77.136719 439.210938 L 59.835938 438.730469 C 58.371094 438.691406 56.898438 438.679688 55.421875 438.667969 C 51.207031 438.636719 47.117188 438.597656 43.355469 437.851562 L 42.789062 429.230469 Z M 40.988281 402.050781 L 40.34375 392.273438 L 78.972656 392.734375 L 78.996094 392.734375 L 78.628906 401.914062 Z M 40.078125 388.238281 L 39.152344 374.238281 C 39.035156 372.523438 39.042969 370.835938 39.867188 370.121094 C 40.519531 369.550781 41.785156 369.515625 43.140625 369.527344 L 71.78125 369.765625 C 74.023438 369.785156 75.988281 369.878906 77.316406 370.828125 C 79.503906 372.394531 79.660156 376.058594 79.527344 379.4375 L 79.15625 388.71875 C 79.109375 388.714844 79.066406 388.703125 79.019531 388.703125 Z M 176.148438 330.125 L 25.308594 331.5625 L 25.269531 317.039062 L 176.171875 319.699219 Z M 67.253906 241.035156 C 71.488281 241.285156 76.265625 241.78125 79.363281 244.492188 C 83.308594 247.945312 83.84375 254.199219 84.035156 259.792969 C 84.605469 276.453125 84.566406 293.324219 83.933594 310.007812 L 43.464844 309.292969 L 43.832031 262.703125 C 43.886719 256.125 44.242188 249.878906 47.976562 245.773438 C 52.441406 240.855469 60.230469 240.621094 67.253906 241.035156 Z M 54.625 227.003906 C 55.417969 223.097656 57.851562 219.929688 60.828125 218.933594 C 65.121094 217.496094 69.882812 220.515625 72.003906 224.265625 C 73.921875 227.652344 74.578125 231.980469 74.082031 237.785156 C 71.878906 237.324219 69.621094 237.136719 67.492188 237.011719 C 63.554688 236.777344 59.113281 236.753906 54.960938 237.671875 C 54.332031 233.863281 53.941406 230.378906 54.625 227.003906 Z M 125.980469 293.96875 C 126.140625 294.019531 126.308594 294.0625 126.484375 294.070312 C 126.523438 294.074219 126.5625 294.074219 126.601562 294.074219 C 126.761719 294.074219 126.917969 294.050781 127.066406 294.015625 L 163.863281 295.535156 L 163.703125 311.414062 L 101.710938 310.320312 L 101.054688 292.941406 Z M 107.1875 227.429688 L 126.738281 226.371094 L 124.65625 289.878906 L 107.832031 289.183594 Z M 147.117188 290.808594 L 128.683594 290.046875 L 130.492188 234.9375 L 150.582031 234.890625 L 147.117188 290.746094 C 147.113281 290.765625 147.117188 290.785156 147.117188 290.808594 Z M 176.191406 311.632812 L 167.734375 311.484375 L 167.914062 293.621094 C 167.925781 292.53125 167.070312 291.632812 165.980469 291.585938 L 151.140625 290.972656 L 154.738281 232.996094 C 154.769531 232.4375 154.574219 231.894531 154.191406 231.488281 C 153.8125 231.082031 153.28125 230.855469 152.726562 230.855469 L 152.722656 230.855469 L 130.625 230.90625 L 130.839844 224.308594 C 130.859375 223.742188 130.640625 223.195312 130.238281 222.800781 C 129.832031 222.40625 129.289062 222.195312 128.71875 222.230469 L 105.046875 223.507812 C 103.96875 223.566406 103.128906 224.464844 103.136719 225.542969 L 103.800781 289.019531 L 99.039062 288.824219 C 98.476562 288.800781 97.933594 289.011719 97.535156 289.410156 C 97.136719 289.808594 96.921875 290.351562 96.941406 290.914062 L 97.671875 310.25 L 87.964844 310.078125 C 88.597656 293.328125 88.636719 276.382812 88.0625 259.65625 C 87.84375 253.21875 87.175781 245.972656 82.019531 241.460938 C 80.804688 240.398438 79.453125 239.601562 78.023438 238.996094 C 78.742188 231.90625 77.949219 226.585938 75.511719 222.28125 C 72.628906 217.183594 66.050781 212.933594 59.546875 215.113281 C 55.164062 216.578125 51.761719 220.828125 50.675781 226.207031 C 49.828125 230.386719 50.347656 234.585938 51.078125 238.871094 C 48.804688 239.8125 46.722656 241.15625 44.992188 243.0625 C 40.304688 248.222656 39.859375 255.578125 39.800781 262.671875 L 39.433594 309.226562 L 25.25 308.976562 L 24.988281 209.335938 L 176.449219 207.273438 Z M 176.46875 199.207031 L 24.964844 201.269531 L 24.9375 191.003906 L 176.488281 190.90625 Z M 68.773438 121.328125 C 63.445312 121.164062 58.113281 121.113281 52.78125 120.945312 L 52.292969 115.25 C 60.0625 115.378906 67.851562 115.511719 75.613281 115.640625 C 75.582031 117.625 75.652344 119.636719 75.503906 121.613281 C 73.257812 121.488281 71.015625 121.398438 68.773438 121.328125 Z M 51.945312 111.210938 L 51.179688 102.296875 C 51.050781 100.753906 51.261719 100.496094 51.304688 100.457031 C 51.480469 100.3125 52.34375 100.308594 52.625 100.308594 L 75.835938 100.238281 L 75.671875 111.609375 Z M 86.820312 126.070312 L 86.707031 137.097656 C 86.601562 137.085938 86.5 137.074219 86.394531 137.078125 L 42.980469 138.1875 L 42.75 129.242188 C 42.714844 127.804688 42.734375 126.34375 43.390625 125.617188 C 44.15625 124.773438 45.90625 124.757812 47.476562 124.808594 Z M 86.082031 173.359375 L 43.875 173.308594 L 43.082031 142.21875 L 86.496094 141.109375 C 86.554688 141.105469 86.609375 141.09375 86.664062 141.085938 L 86.328125 173.386719 C 86.246094 173.375 86.167969 173.359375 86.082031 173.359375 Z M 86.289062 177.371094 L 86.230469 182.902344 L 44.121094 182.929688 L 43.976562 177.339844 L 86.078125 177.390625 C 86.152344 177.390625 86.21875 177.375 86.289062 177.371094 Z M 109.996094 168.707031 L 108.730469 149.585938 L 145.941406 149.449219 L 145.210938 167.722656 Z M 145.050781 171.757812 L 144.605469 182.863281 L 110.933594 182.886719 L 110.261719 172.734375 Z M 108.464844 145.554688 L 107.820312 135.777344 L 146.449219 136.238281 L 146.472656 136.238281 L 146.105469 145.414062 Z M 107.550781 131.742188 L 106.625 117.742188 C 106.511719 116.027344 106.519531 114.339844 107.339844 113.625 C 107.996094 113.054688 109.261719 113.019531 110.617188 113.03125 L 139.257812 113.269531 C 141.5 113.289062 143.460938 113.382812 144.792969 114.332031 C 146.980469 115.898438 147.136719 119.5625 147.003906 122.941406 L 146.632812 132.222656 C 146.585938 132.21875 146.542969 132.207031 146.496094 132.207031 Z M 176.507812 182.84375 L 148.640625 182.859375 L 151.03125 123.101562 C 151.148438 120.175781 151.390625 114.09375 147.136719 111.054688 C 144.664062 109.28125 141.558594 109.257812 139.289062 109.238281 L 110.652344 108.996094 C 109.015625 108.984375 106.558594 108.960938 104.695312 110.582031 C 102.253906 112.707031 102.480469 116.15625 102.601562 118.007812 L 106.894531 182.886719 L 90.261719 182.898438 L 90.871094 124.140625 C 90.882812 123.042969 90.015625 122.140625 88.921875 122.105469 L 79.554688 121.804688 L 79.894531 98.242188 C 79.90625 97.703125 79.695312 97.183594 79.3125 96.796875 C 78.933594 96.414062 78.417969 96.199219 77.878906 96.199219 L 77.875 96.199219 L 52.613281 96.277344 C 51.644531 96.28125 50.023438 96.285156 48.730469 97.355469 C 46.84375 98.921875 47.070312 101.527344 47.164062 102.640625 L 48.726562 120.8125 L 47.609375 120.777344 C 45.820312 120.722656 42.484375 120.613281 40.40625 122.914062 C 38.609375 124.898438 38.679688 127.679688 38.722656 129.34375 L 40.089844 182.933594 L 24.917969 182.941406 L 24.726562 109.929688 C 24.703125 100.542969 25.105469 91.644531 30.234375 85.875 C 36.335938 79.015625 47.21875 78.511719 57.828125 78.585938 L 176.761719 79.410156 Z M 176.78125 71.34375 L 57.882812 70.523438 C 45.96875 70.445312 32.550781 71.140625 24.210938 80.515625 C 16.605469 89.066406 16.640625 101.632812 16.664062 109.949219 L 17.328125 363.359375 C 17.34375 368.164062 17.351562 372.96875 17.359375 377.773438 C 17.375 387.332031 17.390625 396.890625 17.445312 406.449219 C 17.503906 417.242188 18.828125 430.75 28.628906 439.480469 C 36.613281 446.585938 46.574219 446.660156 55.363281 446.726562 C 56.785156 446.738281 58.203125 446.75 59.613281 446.789062 L 96.101562 447.800781 C 96.140625 447.800781 96.175781 447.804688 96.214844 447.804688 C 115.054688 447.804688 134.277344 448.667969 152.863281 449.503906 C 160.40625 449.84375 168.175781 450.1875 175.855469 450.476562 L 175.828125 461.265625 C 167.074219 460.941406 158.171875 460.542969 149.546875 460.152344 C 129.0625 459.234375 107.878906 458.28125 87.019531 458.277344 L 47.007812 457.167969 C 45.402344 457.125 43.785156 457.113281 42.167969 457.101562 C 33.214844 457.03125 24.761719 456.96875 18.375 451.28125 C 10.101562 443.914062 8.976562 431.378906 8.921875 421.28125 C 8.863281 410.753906 8.847656 400.230469 8.828125 389.703125 C 8.820312 384.460938 8.8125 379.222656 8.796875 373.984375 L 8.0625 95.703125 C 8.039062 85.320312 8.488281 75.46875 14.214844 69.027344 C 21.023438 61.371094 33.066406 60.804688 44.8125 60.894531 L 176.804688 61.804688 Z M 197.035156 281.617188 C 196.964844 356.3125 196.890625 433.511719 195.511719 503.894531 C 192.863281 504.039062 190.445312 503.601562 188.539062 502.195312 C 184.371094 499.113281 183.8125 492.332031 183.832031 485.460938 L 184.914062 42.21875 C 184.960938 23.453125 189.101562 12.660156 197.578125 9.21875 C 199.550781 8.417969 201.5625 8.078125 203.613281 8.078125 C 205.777344 8.078125 207.980469 8.472656 210.210938 9.089844 C 200.191406 21.75 198.949219 39.566406 198.601562 56.875 C 197.175781 127.933594 197.101562 206.0625 197.035156 281.617188 Z M 339.753906 106.09375 C 339.207031 111.058594 338.6875 115.746094 338.597656 119.707031 L 331.761719 423.617188 C 331.570312 432.171875 331.332031 442.820312 326.292969 450.472656 C 320.949219 458.582031 311.199219 462.671875 299.945312 466.8125 L 206.789062 501.085938 C 204.421875 501.960938 201.953125 502.777344 199.554688 503.308594 C 200.921875 433.066406 200.996094 356.097656 201.066406 281.621094 C 201.136719 206.082031 201.207031 127.976562 202.632812 56.957031 C 202.976562 39.8125 204.203125 22.183594 214.324219 10.449219 C 215.902344 11.046875 217.492188 11.707031 219.089844 12.402344 L 221.871094 13.613281 L 320.121094 56.351562 C 325.578125 58.722656 331.222656 61.179688 335.253906 65.21875 C 343.371094 73.351562 341.367188 91.503906 339.753906 106.09375 Z M 339.753906 106.09375 " style=" stroke:none;fill-rule:nonzero;fill:rgb(0%,0%,0%);fill-opacity:1;" />
<path d="M 311.230469 132.445312 L 303.507812 131.652344 C 302.695312 131.582031 301.957031 131.195312 301.433594 130.566406 C 300.910156 129.941406 300.664062 129.144531 300.742188 128.332031 L 302.621094 108.398438 C 303.144531 102.832031 299.425781 97.722656 293.964844 96.511719 L 278.105469 92.992188 C 274.863281 92.277344 271.503906 93.03125 268.882812 95.066406 C 266.261719 97.101562 264.699219 100.171875 264.59375 103.492188 L 264.050781 120.777344 C 264.023438 121.617188 263.664062 122.390625 263.039062 122.953125 C 262.410156 123.511719 261.597656 123.785156 260.761719 123.71875 L 249.308594 122.8125 C 246.144531 122.558594 243.011719 123.683594 240.722656 125.886719 C 238.4375 128.089844 237.199219 131.175781 237.332031 134.347656 L 238.125 153.53125 C 238.367188 159.289062 242.886719 163.859375 248.640625 164.164062 L 262.097656 164.875 C 263.742188 164.960938 265.035156 166.371094 264.980469 168.019531 L 264.429688 184.785156 C 264.328125 188 265.617188 191.097656 267.96875 193.285156 C 270.035156 195.207031 272.742188 196.261719 275.535156 196.261719 C 275.921875 196.261719 276.3125 196.242188 276.703125 196.199219 L 289.183594 194.882812 C 294.777344 194.292969 299.050781 189.605469 299.125 183.980469 L 299.285156 171.890625 C 299.300781 170.679688 299.96875 169.9375 300.363281 169.601562 C 300.761719 169.269531 301.605469 168.730469 302.796875 168.917969 C 302.949219 168.941406 303.101562 168.957031 303.253906 168.960938 L 308.945312 169.191406 C 314.53125 169.429688 319.363281 165.03125 319.648438 159.417969 L 320.46875 143.21875 C 320.746094 137.738281 316.6875 133.003906 311.230469 132.445312 Z M 311.597656 159.007812 C 311.535156 160.230469 310.484375 161.191406 309.269531 161.136719 L 303.78125 160.914062 C 300.675781 160.503906 297.550781 161.421875 295.15625 163.449219 C 292.699219 165.527344 291.265625 168.566406 291.222656 171.785156 L 291.066406 183.875 C 291.042969 185.417969 289.871094 186.703125 288.335938 186.863281 L 275.855469 188.183594 C 274.660156 188.308594 273.839844 187.734375 273.460938 187.382812 C 273.082031 187.03125 272.453125 186.257812 272.492188 185.050781 L 273.042969 168.28125 C 273.238281 162.28125 268.519531 157.140625 262.523438 156.820312 L 249.070312 156.113281 C 247.488281 156.027344 246.25 154.773438 246.183594 153.195312 L 245.386719 134.011719 C 245.339844 132.820312 245.949219 132.046875 246.320312 131.691406 C 246.660156 131.363281 247.371094 130.839844 248.417969 130.839844 C 248.503906 130.839844 248.585938 130.84375 248.675781 130.847656 L 260.128906 131.753906 C 263.183594 131.996094 266.128906 131.003906 268.417969 128.957031 C 270.703125 126.910156 272.015625 124.09375 272.109375 121.027344 L 272.652344 103.742188 C 272.691406 102.496094 273.40625 101.761719 273.828125 101.429688 C 274.25 101.101562 275.144531 100.59375 276.359375 100.863281 L 292.21875 104.378906 C 293.714844 104.710938 294.738281 106.113281 294.59375 107.640625 L 292.714844 127.574219 C 292.433594 130.539062 293.328125 133.433594 295.238281 135.726562 C 297.144531 138.015625 299.828125 139.421875 302.742188 139.679688 L 310.40625 140.464844 C 311.59375 140.585938 312.476562 141.617188 312.417969 142.808594 Z M 311.597656 159.007812 " style=" stroke:none;fill-rule:nonzero;fill:rgb(0%,0%,0%);fill-opacity:1;" />
<path d="M 53.273438 294.101562 C 56.140625 296.175781 59.679688 297.210938 63.246094 297.210938 C 66.871094 297.210938 70.523438 296.140625 73.523438 294.003906 C 79.292969 289.890625 82.289062 282.316406 80.980469 275.15625 C 80.085938 270.269531 77.453125 266.195312 73.5625 263.679688 C 69.515625 261.0625 64.472656 260.3125 59.359375 261.570312 C 53.890625 262.917969 49.652344 266.839844 47.417969 272.613281 C 44.445312 280.292969 46.964844 289.527344 53.273438 294.101562 Z M 51.175781 274.070312 C 52.921875 269.558594 56.171875 266.507812 60.320312 265.484375 C 64.34375 264.496094 68.269531 265.054688 71.371094 267.0625 C 74.320312 268.96875 76.320312 272.101562 77.011719 275.882812 C 78.03125 281.445312 75.636719 287.546875 71.183594 290.71875 C 66.597656 293.988281 60.058594 294.035156 55.636719 290.835938 C 50.761719 287.304688 48.84375 280.097656 51.175781 274.070312 Z M 51.175781 274.070312 " style=" stroke:none;fill-rule:nonzero;fill:rgb(0%,0%,0%);fill-opacity:1;" />
<path d="M 229.992188 206.910156 C 222.65625 206.09375 217.082031 209.878906 214.300781 217.582031 C 208.585938 233.382812 210.28125 254.078125 211.640625 270.707031 L 211.875 273.574219 C 212.214844 277.824219 212.71875 282.320312 214.765625 286.449219 C 217.34375 291.65625 222.0625 295.09375 227.082031 295.421875 C 227.347656 295.441406 227.613281 295.449219 227.878906 295.449219 C 232.03125 295.449219 236.261719 293.355469 239.335938 289.746094 C 242.054688 286.554688 243.570312 282.675781 244.6875 279.304688 C 250.4375 262.011719 251.085938 242.769531 246.515625 225.125 C 243.617188 213.941406 238.058594 207.8125 229.992188 206.910156 Z M 221.988281 282.871094 C 220.578125 280.023438 220.199219 276.542969 219.910156 272.929688 L 219.675781 270.046875 C 218.378906 254.199219 216.765625 234.476562 221.882812 220.320312 C 222.472656 218.679688 223.160156 217.515625 223.890625 216.691406 C 230.125 239.273438 230.261719 263.089844 224.230469 285.769531 C 224.226562 285.78125 224.226562 285.796875 224.222656 285.808594 C 223.351562 285.046875 222.574219 284.050781 221.988281 282.871094 Z M 237.035156 276.761719 C 236.117188 279.53125 235.015625 282.386719 233.199219 284.519531 C 231.667969 286.316406 229.65625 287.394531 227.867188 287.375 C 227.976562 287.203125 228.070312 287.015625 228.125 286.804688 C 234.40625 263.183594 234.195312 238.367188 227.570312 214.875 C 227.71875 214.867188 227.871094 214.859375 228.023438 214.859375 C 228.382812 214.859375 228.742188 214.886719 229.09375 214.925781 C 231.945312 215.242188 236.042969 216.855469 238.707031 227.148438 C 242.894531 243.304688 242.296875 260.925781 237.035156 276.761719 Z M 237.035156 276.761719 " style=" stroke:none;fill-rule:nonzero;fill:rgb(0%,0%,0%);fill-opacity:1;" />
</g>
</svg>