<svg xmlns="http://www.w3.org/2000/svg" height="511pt" version="1.1" viewBox="-152 0 511 511.99838" width="511pt">
<g id="surface1">
<path d="M 204.765625 359.371094 C 200.195312 347.613281 184.269531 339.496094 172.328125 337.058594 C 173.539062 329.148438 173.773438 320.839844 173.808594 312.648438 L 174.59375 136.429688 C 174.644531 124.855469 174.703125 111.738281 168.824219 100.199219 C 163.742188 90.222656 150.414062 78.996094 137.941406 79.535156 C 137.890625 79.054688 137.820312 78.582031 137.71875 78.113281 C 136.378906 72.027344 131.203125 68.875 124.761719 67.332031 L 125.054688 16.671875 C 125.074219 13.367188 125.105469 8.367188 121.878906 4.578125 C 117.546875 -0.515625 110.382812 -0.109375 106.539062 0.113281 C 102.503906 0.34375 94.105469 0.828125 90.082031 7.113281 C 87.65625 10.90625 87.789062 15.332031 87.890625 18.5625 L 89.414062 67.605469 C 86.882812 68.046875 84.371094 68.757812 82.023438 70.003906 C 76.894531 72.730469 73.683594 77.574219 73.644531 82.640625 C 73.640625 83.054688 73.660156 83.46875 73.699219 83.875 C 64.214844 85.625 56.800781 93.433594 53.292969 101.261719 C 49.160156 110.484375 48.828125 120.730469 48.535156 129.769531 L 42.289062 322.738281 C 42.136719 327.417969 41.96875 332.894531 42.527344 338.480469 C 32.769531 341.207031 21.957031 344.445312 13.300781 351.464844 C 4.660156 358.464844 -2.605469 371.734375 1.851562 384.316406 C 3.960938 390.273438 8.671875 395.660156 15.113281 399.488281 C 20.785156 402.859375 27.140625 404.746094 32.648438 406.246094 C 42.917969 409.046875 53.328125 411.292969 63.804688 413 C 61.476562 424.910156 66.371094 437.035156 76.890625 444.640625 C 77.820312 445.3125 78.800781 445.964844 79.746094 446.597656 C 83.988281 449.417969 86.777344 451.464844 86.867188 454.074219 C 86.953125 456.589844 84.28125 459.203125 78.699219 462.070312 L 55.265625 474.109375 C 52.773438 475.386719 49.953125 476.839844 47.65625 479.269531 C 44.691406 482.417969 43.457031 486.632812 44.441406 490.277344 C 45.890625 495.664062 51.394531 498.15625 53.742188 499.21875 C 72.441406 507.6875 93.15625 512 113.820312 512 C 127.386719 512 140.9375 510.140625 153.878906 506.386719 C 167.460938 502.445312 170.945312 495.644531 171.476562 490.636719 C 172.242188 483.425781 166.984375 477.34375 161.425781 474.515625 C 157.257812 472.390625 152.839844 471.601562 148.570312 470.839844 C 147.570312 470.660156 146.570312 470.484375 145.578125 470.285156 C 139.980469 469.179688 136.246094 467.6875 133.46875 465.453125 C 130.878906 463.371094 128.558594 459.667969 129.203125 456.09375 C 129.949219 451.984375 134.09375 449.015625 138.480469 445.875 C 140.222656 444.625 142.023438 443.335938 143.6875 441.921875 C 153.4375 433.617188 156.421875 425.835938 154.328125 414.160156 C 154.320312 414.097656 154.292969 414.046875 154.28125 413.988281 C 156.554688 413.660156 158.820312 413.3125 161.078125 412.929688 C 173.945312 410.753906 188.386719 407.101562 197.914062 396.558594 C 206.824219 386.703125 209.574219 371.757812 204.765625 359.371094 Z M 136.4375 87.835938 C 144.816406 86.039062 157.023438 94.789062 161.640625 103.855469 C 166.632812 113.65625 166.578125 125.738281 166.53125 136.394531 L 165.746094 312.613281 C 165.664062 331.25 164.679688 348.945312 153.707031 360.621094 C 152.507812 361.898438 151.183594 363.082031 149.757812 364.175781 C 149.832031 350.582031 149.78125 337.304688 149.726562 324.4375 C 149.664062 310.246094 149.601562 295.574219 149.722656 280.53125 C 150.355469 279.867188 150.957031 279.160156 151.507812 278.390625 C 156.003906 272.09375 155.953125 264.03125 155.917969 258.140625 L 155.21875 145.839844 C 155.152344 135.476562 155.078125 123.734375 151.289062 112.941406 C 148.476562 104.929688 144.035156 95.59375 134.382812 91.15625 C 135.199219 90.113281 135.882812 88.996094 136.4375 87.835938 Z M 144.945312 273.703125 C 141.640625 278.335938 134.910156 280.03125 129.414062 280.992188 C 115.503906 283.429688 101.371094 283.558594 87.414062 281.386719 C 80.078125 280.242188 70.070312 277.832031 67.746094 269.644531 C 67.054688 267.191406 67.011719 264.605469 66.972656 262.058594 C 66.878906 255.6875 66.742188 249.332031 67.128906 243.019531 C 67.363281 239.210938 67.597656 235.398438 67.832031 231.585938 C 67.898438 230.535156 69.019531 220.796875 68.511719 220.589844 C 79.382812 225.042969 92.132812 227.28125 105.40625 227.28125 C 119.472656 227.28125 134.097656 224.785156 147.617188 219.847656 C 147.078125 220.042969 147.632812 230.421875 147.625 231.636719 C 147.597656 235.214844 147.734375 238.738281 147.757812 242.300781 C 147.789062 247.964844 147.585938 253.917969 147.199219 259.679688 C 146.871094 264.570312 147.992188 269.4375 144.945312 273.703125 Z M 141.660156 324.472656 C 141.726562 338.824219 141.789062 353.660156 141.664062 368.882812 C 136.335938 371.199219 130.191406 372.601562 123.5 372.953125 C 111.785156 373.574219 99.878906 371.125 88.359375 368.761719 C 82.578125 367.578125 76.953125 366.292969 71.886719 364.464844 C 71.9375 338.675781 73.363281 312.652344 76.113281 286.988281 C 78.050781 287.65625 80.074219 288.199219 82.152344 288.636719 C 90.027344 290.296875 98.691406 290.484375 106.402344 290.480469 C 112.464844 290.476562 118.53125 290.070312 124.539062 289.265625 C 129.984375 288.535156 136.589844 288.089844 141.625 285.945312 C 141.558594 299.117188 141.609375 311.988281 141.660156 324.472656 Z M 69.015625 212.355469 L 73.75 135.4375 C 74.191406 128.269531 74.644531 120.859375 77.167969 114.296875 C 79.582031 108.035156 84.46875 101.007812 90.007812 99.226562 C 95.132812 100.851562 100.484375 101.679688 105.839844 101.675781 C 110.875 101.675781 115.910156 100.957031 120.761719 99.507812 C 123.070312 98.820312 125.117188 98 126.949219 97.0625 C 127.15625 97.152344 127.371094 97.238281 127.597656 97.292969 C 134.996094 99.09375 139.804688 104.574219 143.683594 115.613281 C 147.023438 125.136719 147.089844 135.6875 147.15625 145.894531 L 147.5625 211.242188 C 122.042969 221.367188 91.859375 221.945312 70.394531 212.667969 C 69.945312 212.472656 69.480469 212.382812 69.015625 212.355469 Z M 96.875 11.460938 C 98.460938 8.984375 102.679688 8.414062 107 8.167969 C 110.636719 7.957031 114.214844 8.011719 115.738281 9.804688 C 116.925781 11.199219 117.007812 13.828125 116.992188 16.625 L 116.773438 54.296875 C 110.195312 54.171875 103.613281 54.597656 97.109375 55.574219 L 95.953125 18.3125 C 95.863281 15.488281 95.871094 13.023438 96.875 11.460938 Z M 116.75 58.332031 L 116.707031 66.183594 C 109.722656 65.71875 102.484375 66.335938 97.492188 66.761719 C 97.480469 66.761719 97.46875 66.761719 97.453125 66.765625 L 97.234375 59.625 C 103.6875 58.632812 110.222656 58.203125 116.75 58.332031 Z M 85.808594 77.125 C 87.992188 75.964844 90.636719 75.792969 93.03125 75.230469 C 96.238281 74.476562 99.496094 73.941406 102.777344 73.625 C 108.320312 73.085938 114.320312 72.917969 119.820312 73.953125 C 122.984375 74.550781 129.039062 76.179688 129.84375 79.84375 C 130.476562 82.71875 128.832031 85.363281 126.988281 87.394531 C 125.167969 89.398438 122.808594 89.765625 120.179688 90.359375 C 113.734375 91.808594 107.058594 92.214844 100.488281 91.574219 C 95.371094 91.078125 81.652344 90.230469 81.707031 82.703125 C 81.726562 80.347656 83.78125 78.207031 85.808594 77.125 Z M 50.347656 323 L 56.597656 130.03125 C 56.878906 121.332031 57.167969 112.332031 60.652344 104.558594 C 63.496094 98.207031 69.65625 91.871094 77.136719 91.601562 C 78.21875 92.863281 79.539062 94.027344 81.070312 95.082031 C 75.773438 99.242188 71.84375 105.691406 69.644531 111.398438 C 66.671875 119.121094 66.15625 127.527344 65.699219 134.945312 L 58.453125 252.738281 C 58.023438 259.757812 57.371094 270.371094 63.203125 278.175781 C 64.703125 280.183594 66.476562 281.820312 68.410156 283.171875 C 65.5625 308.832031 64.035156 334.878906 63.847656 360.714844 C 60.542969 358.714844 57.699219 356.246094 55.515625 353.085938 C 50.089844 345.21875 49.964844 334.804688 50.347656 323 Z M 162.160156 487.148438 C 162.433594 487.011719 162.65625 486.8125 162.832031 486.589844 C 163.324219 487.597656 163.574219 488.683594 163.457031 489.789062 C 162.941406 494.660156 155.828125 497.425781 151.632812 498.644531 C 120.785156 507.59375 86.320312 505.125 57.066406 491.878906 C 55.1875 491.023438 52.636719 489.714844 52.226562 488.179688 C 52.078125 487.636719 52.210938 486.929688 52.550781 486.222656 C 69.753906 495.273438 89.023438 499.832031 108.300781 499.832031 C 126.867188 499.832031 145.4375 495.617188 162.160156 487.148438 Z M 138.859375 435.367188 C 131.953125 441.105469 122.96875 445.289062 121.273438 454.660156 C 120.183594 460.667969 122.988281 467.371094 128.410156 471.738281 C 133.339844 475.703125 139.339844 477.273438 144.011719 478.199219 C 145.054688 478.40625 146.101562 478.59375 147.152344 478.78125 C 151.015625 479.46875 154.664062 480.121094 157.769531 481.703125 C 158.683594 482.167969 159.597656 482.785156 160.425781 483.515625 C 160.394531 483.53125 160.367188 483.535156 160.339844 483.550781 C 127.757812 500.046875 87.929688 499.839844 55.488281 483.214844 C 56.558594 482.515625 57.765625 481.890625 58.953125 481.28125 L 82.382812 469.246094 C 85.898438 467.441406 95.226562 462.644531 94.925781 453.800781 C 94.746094 448.453125 90.707031 443.757812 86.105469 441.390625 C 81.402344 438.976562 76.640625 434.292969 74.070312 429.589844 C 71.382812 424.671875 71.074219 419.625 71.78125 414.195312 C 71.757812 414.386719 87.605469 415.765625 88.75 415.855469 C 107.855469 417.414062 127.3125 417.21875 146.347656 415.015625 C 146.355469 415.203125 146.359375 415.390625 146.394531 415.582031 C 147.265625 420.476562 147.085938 425.300781 144.285156 429.558594 C 142.839844 431.757812 140.941406 433.632812 138.859375 435.367188 Z M 191.933594 391.15625 C 184.058594 399.871094 171.238281 403.039062 159.730469 404.984375 C 118.945312 411.890625 75.734375 409.636719 34.769531 398.46875 C 29.769531 397.105469 24.035156 395.414062 19.230469 392.558594 C 14.40625 389.691406 10.933594 385.808594 9.449219 381.628906 C 8.582031 379.171875 8.394531 376.65625 8.691406 374.1875 C 9.558594 376.230469 10.796875 378.238281 12.480469 380.113281 C 18.082031 386.332031 26.191406 389.179688 33.351562 391.359375 C 57.691406 398.765625 83.167969 402.507812 108.636719 402.507812 C 123.03125 402.507812 137.429688 401.3125 151.609375 398.90625 C 159.804688 397.519531 170.464844 395.335938 180.246094 390.734375 C 187.652344 387.25 193.882812 382.675781 198.605469 377.300781 C 197.695312 382.414062 195.425781 387.289062 191.933594 391.15625 Z M 178.53125 387.085938 C 169.191406 391.476562 158.878906 393.585938 150.9375 394.933594 C 112.285156 401.484375 72.03125 398.917969 34.527344 387.503906 C 27.886719 385.480469 20.386719 382.867188 15.480469 377.414062 C 12.90625 374.558594 11.203125 370.441406 11.175781 366.503906 C 13.003906 363.042969 15.601562 359.980469 18.378906 357.730469 C 25.554688 351.910156 35.125 348.941406 43.914062 346.472656 C 44.933594 350.390625 46.492188 354.203125 48.878906 357.667969 C 57.207031 369.738281 72.152344 373.667969 86.742188 376.664062 C 97.433594 378.855469 108.449219 381.117188 119.726562 381.117188 C 121.121094 381.117188 122.523438 381.082031 123.925781 381.007812 C 138.636719 380.234375 151.300781 374.957031 159.582031 366.144531 C 165.261719 360.101562 168.675781 352.835938 170.730469 344.9375 C 181.433594 347.035156 194.113281 354.230469 197.246094 362.292969 C 198.230469 364.820312 198.792969 367.484375 198.984375 370.175781 C 194.472656 377.070312 187.429688 382.902344 178.53125 387.085938 Z M 178.53125 387.085938 " style=" stroke:none;fill-rule:nonzero;fill:rgb(0%,0%,0%);fill-opacity:1;" />
<path d="M 98 120.683594 L 118.609375 120.71875 C 118.609375 120.71875 118.613281 120.71875 118.613281 120.71875 C 119.722656 120.71875 120.625 119.820312 120.628906 118.707031 C 120.632812 117.59375 119.730469 116.691406 118.617188 116.6875 L 98.011719 116.652344 C 98.007812 116.652344 98.007812 116.652344 98.007812 116.652344 C 96.894531 116.652344 95.992188 117.550781 95.988281 118.664062 C 95.988281 119.777344 96.886719 120.679688 98 120.683594 Z M 98 120.683594 " style=" stroke:none;fill-rule:nonzero;fill:rgb(0%,0%,0%);fill-opacity:1;" />
<path d="M 98 137.425781 L 118.609375 137.464844 C 118.609375 137.464844 118.613281 137.464844 118.613281 137.464844 C 119.722656 137.464844 120.625 136.5625 120.628906 135.453125 C 120.632812 134.339844 119.730469 133.433594 118.617188 133.433594 L 98.011719 133.394531 C 98.007812 133.394531 98.007812 133.394531 98.007812 133.394531 C 96.894531 133.394531 95.992188 134.296875 95.988281 135.410156 C 95.988281 136.519531 96.886719 137.425781 98 137.425781 Z M 98 137.425781 " style=" stroke:none;fill-rule:nonzero;fill:rgb(0%,0%,0%);fill-opacity:1;" />
<path d="M 98 154.171875 L 118.609375 154.207031 C 118.609375 154.207031 118.613281 154.207031 118.613281 154.207031 C 119.722656 154.207031 120.625 153.308594 120.628906 152.195312 C 120.632812 151.082031 119.730469 150.179688 118.617188 150.175781 L 98.011719 150.140625 C 98.007812 150.140625 98.007812 150.140625 98.007812 150.140625 C 96.894531 150.140625 95.992188 151.039062 95.988281 152.152344 C 95.988281 153.265625 96.886719 154.167969 98 154.171875 Z M 98 154.171875 " style=" stroke:none;fill-rule:nonzero;fill:rgb(0%,0%,0%);fill-opacity:1;" />
<path d="M 98 170.914062 L 118.609375 170.953125 C 118.609375 170.953125 118.613281 170.953125 118.613281 170.953125 C 119.722656 170.953125 120.625 170.050781 120.628906 168.9375 C 120.632812 167.828125 119.730469 166.921875 118.617188 166.921875 L 98.011719 166.882812 C 98.007812 166.882812 98.007812 166.882812 98.007812 166.882812 C 96.894531 166.882812 95.992188 167.785156 95.988281 168.894531 C 95.988281 170.007812 96.886719 170.914062 98 170.914062 Z M 98 170.914062 " style=" stroke:none;fill-rule:nonzero;fill:rgb(0%,0%,0%);fill-opacity:1;" />
<path d="M 98 187.65625 L 118.609375 187.695312 C 118.609375 187.695312 118.613281 187.695312 118.613281 187.695312 C 119.722656 187.695312 120.625 186.792969 120.628906 185.683594 C 120.632812 184.570312 119.730469 183.664062 118.617188 183.664062 L 98.011719 183.625 C 98.007812 183.625 98.007812 183.625 98.007812 183.625 C 96.894531 183.625 95.992188 184.527344 95.988281 185.636719 C 95.988281 186.75 96.886719 187.65625 98 187.65625 Z M 98 187.65625 " style=" stroke:none;fill-rule:nonzero;fill:rgb(0%,0%,0%);fill-opacity:1;" />
<path d="M 98 204.398438 L 118.609375 204.4375 C 118.609375 204.4375 118.613281 204.4375 118.613281 204.4375 C 119.722656 204.4375 120.625 203.539062 120.628906 202.425781 C 120.632812 201.3125 119.730469 200.410156 118.617188 200.40625 L 98.011719 200.371094 C 98.007812 200.371094 98.007812 200.371094 98.007812 200.371094 C 96.894531 200.371094 95.992188 201.269531 95.988281 202.382812 C 95.988281 203.496094 96.886719 204.398438 98 204.398438 Z M 98 204.398438 " style=" stroke:none;fill-rule:nonzero;fill:rgb(0%,0%,0%);fill-opacity:1;" />
</g>
</svg>