<svg xmlns="http://www.w3.org/2000/svg" height="511pt" version="1.1" viewBox="-14 0 511 511.99991" width="511pt">
<g id="surface1">
<path d="M 482.128906 94.265625 C 488.125 65.019531 475.421875 32.367188 451.238281 14.867188 C 426.578125 -2.980469 389.925781 -5.011719 365.984375 10.144531 C 348.035156 21.503906 331.707031 37.867188 315.914062 53.691406 C 309.726562 59.894531 303.878906 65.753906 297.996094 71.261719 C 279.0625 88.992188 260.398438 107.171875 242.058594 125.714844 C 223.824219 107.28125 205.007812 88.96875 186.105469 71.261719 C 180.222656 65.753906 174.375 59.894531 168.183594 53.691406 C 152.394531 37.867188 136.066406 21.503906 118.117188 10.144531 C 94.175781 -5.011719 57.523438 -2.980469 32.863281 14.867188 C 8.679688 32.371094 -4.023438 65.019531 1.972656 94.265625 C 6.699219 117.300781 21.375 136.664062 34.324219 153.746094 L 34.460938 153.929688 C 61.695312 189.855469 89.835938 226.976562 117.648438 263.46875 C 102.785156 281.507812 88.210938 299.808594 74.078125 318.214844 C 55.4375 342.492188 37.972656 366.640625 29.132812 395.097656 C 18.96875 427.816406 23.4375 460.570312 41.085938 482.707031 C 53.820312 498.679688 72.757812 508.554688 95.855469 511.265625 C 100.03125 511.757812 104.257812 512 108.503906 512 C 125.648438 512 143.078125 508.042969 158.679688 500.492188 C 193.796875 483.5 220.394531 452.230469 242.058594 424.78125 C 265.457031 454.339844 291.3125 483.988281 325.421875 500.492188 C 341.023438 508.042969 358.453125 512 375.597656 512 C 379.839844 512 384.070312 511.757812 388.246094 511.265625 C 411.34375 508.554688 430.28125 498.679688 443.011719 482.707031 C 460.664062 460.570312 465.132812 427.816406 454.96875 395.097656 C 446.125 366.640625 428.664062 342.492188 410.023438 318.214844 C 395.886719 299.804688 381.238281 281.398438 366.457031 263.460938 C 394.515625 226.644531 422.339844 189.941406 449.777344 153.746094 C 462.726562 136.664062 477.402344 117.304688 482.128906 94.265625 Z M 40.886719 149.058594 L 40.75 148.875 C 28.316406 132.476562 14.226562 113.890625 9.871094 92.644531 C 4.488281 66.402344 15.886719 37.105469 37.589844 21.398438 C 59.367188 5.640625 92.84375 3.6875 113.804688 16.957031 C 130.992188 27.835938 147 43.875 162.476562 59.386719 C 168.71875 65.640625 174.613281 71.542969 180.589844 77.144531 C 199.449219 94.808594 218.214844 113.074219 236.402344 131.460938 C 234.703125 133.195312 232.996094 134.925781 231.300781 136.664062 C 213.089844 118.246094 194.371094 100.019531 175.617188 82.453125 C 169.542969 76.765625 163.332031 70.539062 157.324219 64.519531 C 142.128906 49.292969 126.414062 33.546875 109.914062 23.101562 C 101.898438 18.027344 91.785156 15.347656 80.660156 15.347656 C 66.484375 15.347656 52.339844 19.699219 41.855469 27.289062 C 22.394531 41.375 12.171875 67.648438 16.996094 91.183594 C 21.023438 110.816406 34.582031 128.699219 46.542969 144.480469 L 46.84375 144.871094 C 73.210938 179.65625 100.464844 215.605469 127.703125 251.355469 C 126.105469 253.261719 124.511719 255.171875 122.921875 257.085938 C 95.488281 221.082031 67.746094 184.488281 40.886719 149.058594 Z M 130.351562 248.179688 C 103.304688 212.675781 76.242188 176.984375 50.054688 142.4375 L 49.757812 142.046875 C 38.054688 126.609375 24.789062 109.109375 20.949219 90.375 C 16.429688 68.34375 26 43.742188 44.21875 30.558594 C 54.035156 23.453125 67.316406 19.382812 80.664062 19.382812 C 91.019531 19.382812 100.390625 21.847656 107.757812 26.511719 C 123.878906 36.714844 139.433594 52.300781 154.476562 67.371094 C 160.503906 73.414062 166.738281 79.660156 172.863281 85.398438 C 191.601562 102.949219 210.304688 121.160156 228.496094 139.5625 C 201.503906 167.375 175.269531 195.960938 150.035156 225.101562 C 143.433594 232.722656 136.867188 240.421875 130.351562 248.179688 Z M 403.628906 323.121094 C 421.804688 346.800781 438.820312 370.300781 447.269531 397.488281 C 456.5 427.207031 452.453125 457.933594 436.707031 477.683594 C 411.410156 509.417969 362.296875 509.382812 328.933594 493.234375 C 295.703125 477.15625 271.195312 448.710938 247.175781 418.257812 C 247.796875 417.464844 248.414062 416.675781 249.027344 415.894531 C 249.945312 414.71875 250.863281 413.535156 251.78125 412.359375 C 271.253906 437.214844 297.578125 469.980469 332.101562 486.6875 C 345.378906 493.113281 360.875 496.652344 375.742188 496.652344 C 399.304688 496.652344 418.9375 488.304688 431.019531 473.148438 C 445.285156 455.257812 448.847656 427.09375 440.320312 399.644531 C 432.230469 373.605469 415.617188 350.683594 397.859375 327.554688 C 384.617188 310.308594 370.84375 292.984375 356.898438 275.992188 C 358.410156 274.011719 359.921875 272.03125 361.433594 270.050781 C 375.746094 287.457031 389.929688 305.285156 403.628906 323.121094 Z M 354.382812 279.285156 C 368.097656 296.007812 381.636719 313.046875 394.660156 330.007812 C 412.191406 352.839844 428.578125 375.4375 436.46875 400.84375 C 444.605469 427.03125 441.3125 453.773438 427.867188 470.636719 C 416.566406 484.8125 398.054688 492.621094 375.738281 492.621094 C 361.472656 492.621094 346.601562 489.222656 333.859375 483.058594 C 299.796875 466.574219 273.625 433.71875 254.335938 409.082031 C 287.824219 366.164062 321.25 322.6875 354.382812 279.285156 Z M 242.671875 410.929688 C 220.300781 439.558594 192.457031 475.191406 155.167969 493.234375 C 139.4375 500.847656 123.78125 504.109375 109.257812 504.109375 C 82.507812 504.105469 59.628906 493.035156 47.390625 477.683594 C 31.648438 457.933594 27.601562 427.207031 36.832031 397.488281 C 45.277344 370.304688 62.296875 346.800781 80.472656 323.121094 C 104.648438 291.636719 130.101562 260.433594 156.128906 230.378906 C 202.375 176.976562 251.960938 125.421875 303.507812 77.148438 C 309.488281 71.546875 315.382812 65.640625 321.621094 59.386719 C 337.101562 43.875 353.109375 27.835938 370.292969 16.957031 C 379.625 11.050781 391.4375 8.160156 403.589844 8.160156 C 418.742188 8.160156 434.425781 12.652344 446.507812 21.398438 C 468.210938 37.105469 479.609375 66.402344 474.230469 92.648438 C 469.871094 113.890625 455.78125 132.476562 443.3125 148.929688 C 377.96875 235.128906 310.398438 324.261719 242.671875 410.929688 Z M 242.671875 410.929688 " style=" stroke:none;fill-rule:nonzero;fill:rgb(0%,0%,0%);fill-opacity:1;" />
<path d="M 442.246094 27.289062 C 431.757812 19.699219 417.613281 15.347656 403.4375 15.347656 C 392.316406 15.347656 382.199219 18.03125 374.183594 23.105469 C 357.683594 33.550781 341.96875 49.292969 326.769531 64.527344 C 320.761719 70.546875 314.550781 76.773438 308.480469 82.457031 C 257.117188 130.558594 207.710938 181.929688 161.628906 235.140625 C 135.699219 265.082031 110.335938 296.171875 86.242188 327.554688 C 68.480469 350.6875 51.871094 373.605469 43.78125 399.644531 C 35.253906 427.09375 38.816406 455.257812 53.078125 473.148438 C 65.164062 488.304688 84.792969 496.652344 108.359375 496.652344 L 108.363281 496.652344 C 123.226562 496.652344 138.722656 493.113281 152 486.6875 C 187.765625 469.378906 213.890625 435.949219 236.941406 406.449219 C 304.59375 319.871094 372.109375 230.8125 437.402344 144.679688 L 437.554688 144.480469 C 449.519531 128.699219 463.078125 110.8125 467.101562 91.183594 C 471.929688 67.648438 461.707031 41.375 442.246094 27.289062 Z M 463.15625 90.375 C 459.3125 109.109375 446.046875 126.605469 434.339844 142.046875 L 434.191406 142.246094 C 368.90625 228.363281 301.402344 317.414062 233.765625 403.96875 C 210.988281 433.117188 185.167969 466.160156 150.246094 483.058594 C 137.503906 489.226562 122.628906 492.621094 108.359375 492.621094 C 86.046875 492.621094 67.535156 484.8125 56.234375 470.636719 C 42.792969 453.773438 39.496094 427.03125 47.632812 400.84375 C 55.523438 375.4375 71.914062 352.839844 89.441406 330.007812 C 113.488281 298.691406 138.800781 267.660156 164.675781 237.78125 C 210.667969 184.675781 259.976562 133.40625 311.238281 85.398438 C 317.359375 79.667969 323.59375 73.417969 329.628906 67.367188 C 344.671875 52.296875 360.222656 36.714844 376.34375 26.511719 C 383.710938 21.84375 393.082031 19.378906 403.441406 19.378906 C 416.785156 19.378906 430.066406 23.453125 439.882812 30.558594 C 458.101562 43.742188 467.671875 68.339844 463.15625 90.375 Z M 463.15625 90.375 " style=" stroke:none;fill-rule:nonzero;fill:rgb(0%,0%,0%);fill-opacity:1;" />
<path d="M 267.296875 187.390625 C 259.699219 183.558594 251.847656 179.597656 241.839844 187.800781 C 234.355469 193.941406 227.441406 200.996094 220.757812 207.820312 C 219.6875 208.914062 218.617188 210.003906 217.550781 211.089844 C 208.527344 220.25 199.695312 229.824219 191.304688 239.542969 C 183.308594 248.804688 174.664062 259.796875 173.335938 273.023438 C 172.144531 284.914062 177.121094 295.429688 181.507812 302.15625 C 186.898438 310.425781 193.945312 317.21875 200.757812 323.789062 C 210.261719 332.949219 221.453125 342.605469 234.914062 342.605469 C 235.675781 342.605469 236.445312 342.574219 237.222656 342.507812 C 246.578125 341.738281 254.546875 336.214844 261.765625 330.359375 C 279.085938 316.308594 294.742188 300.203125 308.300781 282.492188 C 313.425781 275.800781 319.003906 267.859375 320.363281 258.300781 C 321.75 248.539062 318.667969 238.066406 310.945312 226.277344 C 300.152344 209.792969 285.058594 196.347656 267.296875 187.390625 Z M 312.378906 257.167969 C 311.296875 264.796875 306.402344 271.710938 301.898438 277.59375 C 288.726562 294.800781 273.515625 310.445312 256.6875 324.097656 C 250.898438 328.792969 244.089844 333.855469 236.5625 334.472656 C 225.414062 335.398438 215.53125 326.828125 206.355469 317.984375 C 199.867188 311.726562 193.15625 305.257812 188.261719 297.753906 C 184.585938 292.109375 180.402344 283.382812 181.359375 273.828125 C 182.453125 262.941406 189.886719 253.523438 197.410156 244.8125 C 205.683594 235.226562 214.394531 225.785156 223.296875 216.746094 C 224.367188 215.65625 225.441406 214.5625 226.519531 213.464844 C 233.050781 206.792969 239.804688 199.898438 246.953125 194.035156 C 249.460938 191.980469 251.46875 191.0625 253.683594 191.0625 C 256.320312 191.0625 259.25 192.359375 263.664062 194.589844 C 280.164062 202.910156 294.183594 215.394531 304.203125 230.695312 C 310.804688 240.773438 313.480469 249.433594 312.378906 257.167969 Z M 312.378906 257.167969 " style=" stroke:none;fill-rule:nonzero;fill:rgb(0%,0%,0%);fill-opacity:1;" />
<path d="M 261.386719 199.101562 C 257.082031 196.929688 254.992188 196.121094 253.671875 196.121094 C 253.355469 196.121094 252.382812 196.121094 250.15625 197.945312 C 243.230469 203.625 236.574219 210.417969 230.128906 216.996094 C 229.050781 218.101562 227.972656 219.199219 226.898438 220.292969 C 218.078125 229.246094 209.445312 238.609375 201.234375 248.113281 C 194.242188 256.214844 187.335938 264.910156 186.386719 274.335938 C 185.753906 280.644531 187.925781 287.980469 192.496094 294.992188 C 197.078125 302.019531 203.578125 308.289062 209.863281 314.347656 C 217.460938 321.671875 226.289062 329.488281 234.933594 329.488281 C 235.335938 329.488281 235.746094 329.46875 236.148438 329.4375 C 241.628906 328.988281 247.050781 325.410156 253.503906 320.175781 C 270.023438 306.773438 284.957031 291.410156 297.886719 274.523438 C 302 269.148438 306.464844 262.875 307.375 256.457031 C 308.28125 250.082031 305.792969 242.347656 299.972656 233.464844 C 290.4375 218.90625 277.09375 207.023438 261.386719 199.101562 Z M 303.382812 255.890625 C 302.609375 261.34375 298.488281 267.101562 294.683594 272.070312 C 281.945312 288.707031 267.238281 303.839844 250.960938 317.042969 C 245.089844 321.804688 240.269531 325.054688 235.820312 325.417969 C 228.417969 326.023438 219.984375 318.503906 212.664062 311.445312 C 206.539062 305.539062 200.207031 299.4375 195.871094 292.789062 C 191.800781 286.546875 189.859375 280.136719 190.402344 274.738281 C 191.230469 266.484375 197.714844 258.363281 204.285156 250.75 C 212.4375 241.308594 221.011719 232.011719 229.769531 223.121094 C 230.847656 222.027344 231.925781 220.925781 233.023438 219.808594 C 239.378906 213.316406 245.953125 206.605469 252.710938 201.0625 C 253.292969 200.589844 253.691406 200.332031 253.921875 200.203125 C 254.542969 200.355469 256.027344 200.910156 259.574219 202.699219 C 274.648438 210.304688 287.453125 221.707031 296.601562 235.675781 C 301.867188 243.714844 304.148438 250.515625 303.382812 255.890625 Z M 303.382812 255.890625 " style=" stroke:none;fill-rule:nonzero;fill:rgb(0%,0%,0%);fill-opacity:1;" />
<path d="M 287.539062 176.617188 C 287.59375 176.617188 287.648438 176.617188 287.699219 176.617188 C 290.453125 176.574219 293.25 175.289062 295.371094 173.09375 C 297.878906 170.496094 299.1875 166.894531 298.875 163.457031 C 298.484375 159.171875 295.195312 155.316406 290.6875 153.863281 C 286.59375 152.542969 282.59375 153.554688 279.976562 156.5625 C 276.890625 160.121094 276.246094 165.859375 278.414062 170.523438 C 280.21875 174.402344 283.539062 176.617188 287.539062 176.617188 Z M 283.023438 159.207031 C 284.300781 157.730469 285.867188 157.332031 287.191406 157.332031 C 288.132812 157.332031 288.949219 157.535156 289.453125 157.695312 C 292.394531 158.644531 294.617188 161.164062 294.859375 163.820312 C 295.070312 166.109375 294.175781 168.527344 292.472656 170.289062 C 291.089844 171.722656 289.328125 172.558594 287.644531 172.582031 C 284.332031 172.617188 282.734375 170.25 282.074219 168.824219 C 280.574219 165.609375 280.976562 161.5625 283.023438 159.207031 Z M 283.023438 159.207031 " style=" stroke:none;fill-rule:nonzero;fill:rgb(0%,0%,0%);fill-opacity:1;" />
<path d="M 311.757812 147.90625 C 311.808594 147.90625 311.863281 147.902344 311.917969 147.902344 C 314.667969 147.863281 317.464844 146.578125 319.585938 144.378906 C 322.09375 141.785156 323.402344 138.183594 323.089844 134.742188 C 322.699219 130.457031 319.410156 126.601562 314.90625 125.148438 C 310.816406 123.828125 306.808594 124.839844 304.195312 127.851562 C 301.105469 131.40625 300.460938 137.148438 302.632812 141.8125 C 304.4375 145.691406 307.753906 147.90625 311.757812 147.90625 Z M 307.238281 130.496094 C 308.519531 129.019531 310.085938 128.621094 311.40625 128.621094 C 312.347656 128.621094 313.167969 128.824219 313.667969 128.984375 C 316.609375 129.933594 318.835938 132.453125 319.078125 135.109375 C 319.285156 137.398438 318.390625 139.816406 316.6875 141.578125 C 315.304688 143.011719 313.542969 143.847656 311.859375 143.871094 C 308.523438 143.886719 306.949219 141.539062 306.289062 140.113281 C 304.792969 136.894531 305.191406 132.851562 307.238281 130.496094 Z M 307.238281 130.496094 " style=" stroke:none;fill-rule:nonzero;fill:rgb(0%,0%,0%);fill-opacity:1;" />
<path d="M 336.855469 121.222656 C 336.90625 121.222656 336.960938 121.222656 337.015625 121.222656 C 339.765625 121.183594 342.5625 119.898438 344.6875 117.699219 C 347.191406 115.101562 348.5 111.5 348.1875 108.0625 C 347.796875 103.777344 344.507812 99.921875 340 98.46875 C 335.910156 97.148438 331.90625 98.15625 329.292969 101.167969 C 326.203125 104.726562 325.5625 110.46875 327.730469 115.132812 C 329.535156 119.011719 332.851562 121.222656 336.855469 121.222656 Z M 332.335938 103.8125 C 333.617188 102.339844 335.183594 101.941406 336.503906 101.941406 C 337.445312 101.941406 338.261719 102.144531 338.765625 102.304688 C 341.707031 103.253906 343.933594 105.773438 344.171875 108.429688 C 344.382812 110.714844 343.488281 113.132812 341.785156 114.898438 C 340.402344 116.332031 338.644531 117.167969 336.957031 117.191406 C 333.644531 117.207031 332.046875 114.855469 331.386719 113.433594 C 329.890625 110.214844 330.289062 106.167969 332.335938 103.8125 Z M 332.335938 103.8125 " style=" stroke:none;fill-rule:nonzero;fill:rgb(0%,0%,0%);fill-opacity:1;" />
<path d="M 361.070312 92.511719 C 361.125 92.511719 361.175781 92.511719 361.230469 92.511719 C 363.984375 92.46875 366.777344 91.183594 368.902344 88.984375 C 371.40625 86.390625 372.714844 82.789062 372.402344 79.351562 C 372.011719 75.066406 368.722656 71.210938 364.21875 69.757812 C 360.128906 68.433594 356.121094 69.445312 353.507812 72.457031 C 350.417969 76.015625 349.777344 81.757812 351.945312 86.417969 C 353.75 90.296875 357.070312 92.511719 361.070312 92.511719 Z M 356.550781 75.101562 C 357.832031 73.625 359.398438 73.226562 360.71875 73.226562 C 361.664062 73.226562 362.480469 73.429688 362.980469 73.59375 C 365.925781 74.542969 368.148438 77.0625 368.390625 79.714844 C 368.597656 82.003906 367.707031 84.421875 366.003906 86.1875 C 364.621094 87.621094 362.859375 88.457031 361.171875 88.480469 C 357.839844 88.527344 356.265625 86.144531 355.601562 84.71875 C 354.105469 81.503906 354.503906 77.457031 356.550781 75.101562 Z M 356.550781 75.101562 " style=" stroke:none;fill-rule:nonzero;fill:rgb(0%,0%,0%);fill-opacity:1;" />
<path d="M 397.945312 76.367188 C 398 76.367188 398.050781 76.367188 398.105469 76.363281 C 400.855469 76.324219 403.652344 75.039062 405.777344 72.839844 C 408.28125 70.246094 409.589844 66.644531 409.277344 63.203125 C 408.886719 58.917969 405.597656 55.0625 401.09375 53.609375 C 397 52.289062 392.996094 53.300781 390.382812 56.3125 C 387.292969 59.867188 386.652344 65.609375 388.820312 70.273438 C 390.625 74.152344 393.945312 76.367188 397.945312 76.367188 Z M 393.425781 58.953125 C 394.707031 57.480469 396.273438 57.082031 397.59375 57.082031 C 398.535156 57.082031 399.355469 57.285156 399.855469 57.445312 C 402.796875 58.394531 405.023438 60.914062 405.261719 63.570312 C 405.472656 65.855469 404.578125 68.277344 402.875 70.039062 C 401.492188 71.472656 399.730469 72.308594 398.042969 72.332031 C 394.730469 72.375 393.136719 69.996094 392.476562 68.570312 C 390.980469 65.355469 391.378906 61.3125 393.425781 58.953125 Z M 393.425781 58.953125 " style=" stroke:none;fill-rule:nonzero;fill:rgb(0%,0%,0%);fill-opacity:1;" />
<path d="M 316.730469 174.273438 C 312.636719 172.953125 308.632812 173.964844 306.019531 176.976562 C 302.933594 180.53125 302.289062 186.273438 304.457031 190.9375 C 306.261719 194.816406 309.578125 197.03125 313.582031 197.03125 C 313.632812 197.03125 313.6875 197.03125 313.742188 197.03125 C 316.492188 196.988281 319.289062 195.703125 321.414062 193.507812 C 323.917969 190.910156 325.226562 187.308594 324.914062 183.871094 C 324.527344 179.582031 321.234375 175.726562 316.730469 174.273438 Z M 318.511719 190.703125 C 317.128906 192.136719 315.371094 192.972656 313.683594 192.996094 C 310.371094 193.039062 308.773438 190.660156 308.113281 189.234375 C 306.617188 186.019531 307.019531 181.976562 309.0625 179.617188 C 310.34375 178.144531 311.910156 177.742188 313.230469 177.742188 C 314.171875 177.742188 314.992188 177.949219 315.492188 178.109375 C 318.433594 179.058594 320.660156 181.574219 320.902344 184.234375 C 321.109375 186.519531 320.214844 188.9375 318.511719 190.703125 Z M 318.511719 190.703125 " style=" stroke:none;fill-rule:nonzero;fill:rgb(0%,0%,0%);fill-opacity:1;" />
<path d="M 337.796875 168.316406 C 337.851562 168.316406 337.90625 168.316406 337.957031 168.316406 C 340.710938 168.277344 343.507812 166.992188 345.628906 164.792969 C 348.136719 162.195312 349.445312 158.59375 349.132812 155.15625 C 348.742188 150.871094 345.453125 147.015625 340.945312 145.5625 C 336.855469 144.242188 332.851562 145.253906 330.234375 148.265625 C 327.148438 151.820312 326.503906 157.5625 328.671875 162.226562 C 330.476562 166.105469 333.796875 168.316406 337.796875 168.316406 Z M 333.28125 150.90625 C 334.558594 149.433594 336.125 149.035156 337.449219 149.035156 C 338.390625 149.035156 339.207031 149.238281 339.707031 149.398438 C 342.652344 150.347656 344.875 152.867188 345.117188 155.523438 C 345.328125 157.808594 344.433594 160.226562 342.730469 161.992188 C 341.347656 163.425781 339.585938 164.261719 337.898438 164.285156 C 334.589844 164.328125 332.992188 161.949219 332.328125 160.523438 C 330.832031 157.308594 331.234375 153.261719 333.28125 150.90625 Z M 333.28125 150.90625 " style=" stroke:none;fill-rule:nonzero;fill:rgb(0%,0%,0%);fill-opacity:1;" />
<path d="M 366.042969 118.878906 C 361.949219 117.558594 357.949219 118.570312 355.332031 121.582031 C 352.246094 125.140625 351.601562 130.878906 353.769531 135.542969 C 355.574219 139.421875 358.894531 141.636719 362.894531 141.636719 C 362.949219 141.636719 363.003906 141.636719 363.054688 141.636719 C 365.808594 141.59375 368.605469 140.308594 370.726562 138.109375 C 373.234375 135.515625 374.542969 131.910156 374.230469 128.472656 C 373.839844 124.1875 370.550781 120.332031 366.042969 118.878906 Z M 367.828125 135.308594 C 366.445312 136.742188 364.683594 137.578125 362.996094 137.605469 C 359.714844 137.691406 358.089844 135.269531 357.425781 133.84375 C 355.929688 130.625 356.332031 126.582031 358.378906 124.226562 C 359.65625 122.75 361.222656 122.351562 362.542969 122.351562 C 363.488281 122.351562 364.304688 122.554688 364.804688 122.71875 C 367.75 123.664062 369.972656 126.183594 370.214844 128.839844 C 370.421875 131.125 369.53125 133.546875 367.828125 135.308594 Z M 367.828125 135.308594 " style=" stroke:none;fill-rule:nonzero;fill:rgb(0%,0%,0%);fill-opacity:1;" />
<path d="M 387.113281 112.925781 C 387.164062 112.925781 387.21875 112.925781 387.273438 112.921875 C 390.027344 112.882812 392.820312 111.597656 394.945312 109.398438 C 397.449219 106.804688 398.757812 103.199219 398.445312 99.761719 C 398.058594 95.476562 394.765625 91.621094 390.261719 90.167969 C 386.167969 88.847656 382.164062 89.859375 379.550781 92.871094 C 376.460938 96.425781 375.820312 102.167969 377.988281 106.832031 C 379.789062 110.710938 383.109375 112.925781 387.113281 112.925781 Z M 382.59375 95.511719 C 383.875 94.039062 385.441406 93.640625 386.761719 93.640625 C 387.703125 93.640625 388.523438 93.84375 389.023438 94.003906 C 391.964844 94.953125 394.1875 97.472656 394.429688 100.125 C 394.636719 102.414062 393.746094 104.832031 392.042969 106.597656 C 390.660156 108.03125 388.898438 108.867188 387.210938 108.890625 C 383.910156 108.957031 382.304688 106.554688 381.644531 105.128906 C 380.148438 101.914062 380.546875 97.867188 382.59375 95.511719 Z M 382.59375 95.511719 " style=" stroke:none;fill-rule:nonzero;fill:rgb(0%,0%,0%);fill-opacity:1;" />
<path d="M 427.132812 74.023438 C 423.042969 72.703125 419.039062 73.710938 416.421875 76.722656 C 413.335938 80.28125 412.691406 86.019531 414.863281 90.683594 C 416.664062 94.5625 419.984375 96.777344 423.988281 96.777344 C 424.039062 96.777344 424.09375 96.777344 424.148438 96.777344 C 426.898438 96.734375 429.695312 95.449219 431.816406 93.253906 C 434.324219 90.65625 435.632812 87.054688 435.320312 83.617188 C 434.929688 79.332031 431.640625 75.476562 427.132812 74.023438 Z M 428.917969 90.453125 C 427.535156 91.886719 425.773438 92.722656 424.085938 92.746094 C 424.054688 92.746094 424.019531 92.746094 423.988281 92.746094 C 420.75 92.746094 419.171875 90.394531 418.515625 88.984375 C 417.023438 85.769531 417.421875 81.722656 419.46875 79.367188 C 420.746094 77.894531 422.3125 77.492188 423.632812 77.492188 C 424.578125 77.492188 425.394531 77.695312 425.898438 77.859375 C 428.839844 78.808594 431.0625 81.324219 431.304688 83.980469 C 431.511719 86.269531 430.621094 88.6875 428.917969 90.453125 Z M 428.917969 90.453125 " style=" stroke:none;fill-rule:nonzero;fill:rgb(0%,0%,0%);fill-opacity:1;" />
<path d="M 341.546875 193.242188 C 337.453125 191.921875 333.449219 192.933594 330.835938 195.945312 C 327.746094 199.5 327.105469 205.242188 329.273438 209.90625 C 331.078125 213.785156 334.398438 215.996094 338.398438 215.996094 C 338.453125 215.996094 338.503906 215.996094 338.558594 215.996094 C 341.3125 215.957031 344.105469 214.671875 346.230469 212.472656 C 348.734375 209.875 350.042969 206.273438 349.730469 202.835938 C 349.339844 198.550781 346.050781 194.695312 341.546875 193.242188 Z M 343.328125 209.671875 C 341.945312 211.105469 340.1875 211.941406 338.5 211.964844 C 338.464844 211.964844 338.433594 211.964844 338.398438 211.964844 C 335.164062 211.964844 333.585938 209.617188 332.929688 208.203125 C 331.433594 204.988281 331.832031 200.945312 333.878906 198.585938 C 335.160156 197.113281 336.726562 196.714844 338.046875 196.714844 C 338.988281 196.714844 339.808594 196.914062 340.308594 197.078125 C 343.25 198.027344 345.476562 200.542969 345.714844 203.199219 C 345.925781 205.488281 345.03125 207.90625 343.328125 209.671875 Z M 343.328125 209.671875 " style=" stroke:none;fill-rule:nonzero;fill:rgb(0%,0%,0%);fill-opacity:1;" />
<path d="M 365.761719 164.53125 C 361.671875 163.207031 357.667969 164.21875 355.050781 167.230469 C 351.964844 170.789062 351.320312 176.527344 353.488281 181.191406 C 355.292969 185.070312 358.613281 187.285156 362.613281 187.285156 C 362.667969 187.285156 362.722656 187.285156 362.773438 187.285156 C 365.527344 187.246094 368.324219 185.960938 370.445312 183.761719 C 372.953125 181.164062 374.261719 177.5625 373.949219 174.125 C 373.558594 169.839844 370.269531 165.984375 365.761719 164.53125 Z M 367.546875 180.960938 C 366.164062 182.394531 364.402344 183.230469 362.714844 183.253906 C 359.398438 183.300781 357.808594 180.917969 357.144531 179.492188 C 355.648438 176.277344 356.050781 172.230469 358.09375 169.875 C 359.375 168.402344 360.941406 168 362.261719 168 C 363.207031 168 364.023438 168.203125 364.523438 168.367188 C 367.46875 169.316406 369.691406 171.832031 369.933594 174.488281 C 370.140625 176.777344 369.25 179.195312 367.546875 180.960938 Z M 367.546875 180.960938 " style=" stroke:none;fill-rule:nonzero;fill:rgb(0%,0%,0%);fill-opacity:1;" />
<path d="M 390.859375 137.847656 C 386.769531 136.53125 382.765625 137.539062 380.148438 140.550781 C 377.0625 144.105469 376.417969 149.847656 378.585938 154.511719 C 380.390625 158.390625 383.710938 160.605469 387.710938 160.605469 C 387.761719 160.605469 387.816406 160.601562 387.871094 160.601562 C 390.621094 160.5625 393.417969 159.277344 395.542969 157.078125 C 398.046875 154.484375 399.355469 150.882812 399.042969 147.441406 C 398.65625 143.15625 395.367188 139.300781 390.859375 137.847656 Z M 392.644531 154.277344 C 391.257812 155.710938 389.5 156.546875 387.8125 156.570312 C 384.46875 156.617188 382.90625 154.234375 382.242188 152.8125 C 380.746094 149.59375 381.148438 145.550781 383.195312 143.191406 C 384.472656 141.71875 386.039062 141.320312 387.359375 141.320312 C 388.304688 141.320312 389.121094 141.523438 389.621094 141.683594 C 392.566406 142.632812 394.789062 145.152344 395.03125 147.808594 C 395.238281 150.09375 394.34375 152.515625 392.644531 154.277344 Z M 392.644531 154.277344 " style=" stroke:none;fill-rule:nonzero;fill:rgb(0%,0%,0%);fill-opacity:1;" />
<path d="M 415.074219 109.136719 C 410.984375 107.816406 406.980469 108.824219 404.363281 111.839844 C 401.277344 115.394531 400.632812 121.136719 402.800781 125.800781 C 404.605469 129.679688 407.925781 131.890625 411.925781 131.890625 C 411.980469 131.890625 412.035156 131.890625 412.085938 131.890625 C 414.839844 131.851562 417.632812 130.566406 419.757812 128.367188 C 422.261719 125.769531 423.574219 122.167969 423.257812 118.730469 C 422.871094 114.445312 419.582031 110.589844 415.074219 109.136719 Z M 416.859375 125.566406 C 415.476562 127 413.714844 127.835938 412.027344 127.859375 C 408.710938 127.890625 407.121094 125.523438 406.457031 124.101562 C 404.964844 120.882812 405.363281 116.839844 407.410156 114.480469 C 408.691406 113.007812 410.253906 112.609375 411.578125 112.609375 C 412.519531 112.609375 413.335938 112.8125 413.839844 112.972656 C 416.78125 113.921875 419.003906 116.441406 419.246094 119.097656 C 419.457031 121.382812 418.5625 123.800781 416.859375 125.566406 Z M 416.859375 125.566406 " style=" stroke:none;fill-rule:nonzero;fill:rgb(0%,0%,0%);fill-opacity:1;" />
<path d="M 210.117188 346.527344 C 207.347656 346.464844 204.527344 347.660156 202.332031 349.789062 C 199.738281 352.296875 198.308594 355.851562 198.503906 359.300781 C 198.75 363.59375 201.90625 367.558594 206.359375 369.164062 C 207.648438 369.632812 208.9375 369.859375 210.183594 369.859375 C 212.84375 369.859375 215.308594 368.820312 217.15625 366.828125 C 220.363281 363.378906 221.199219 357.664062 219.191406 352.929688 C 217.496094 348.9375 214.191406 346.605469 210.117188 346.527344 Z M 214.203125 364.082031 C 211.925781 366.535156 208.914062 365.804688 207.726562 365.375 C 204.816406 364.324219 202.679688 361.734375 202.527344 359.070312 C 202.398438 356.777344 203.371094 354.390625 205.132812 352.683594 C 206.539062 351.328125 208.28125 350.554688 209.9375 350.554688 C 209.972656 350.554688 210.007812 350.554688 210.039062 350.554688 C 213.339844 350.617188 214.863281 353.058594 215.480469 354.503906 C 216.863281 357.769531 216.328125 361.796875 214.203125 364.082031 Z M 214.203125 364.082031 " style=" stroke:none;fill-rule:nonzero;fill:rgb(0%,0%,0%);fill-opacity:1;" />
<path d="M 184.941406 374.398438 C 182.167969 374.347656 179.351562 375.535156 177.15625 377.660156 C 174.5625 380.171875 173.128906 383.726562 173.328125 387.175781 C 173.570312 391.46875 176.730469 395.433594 181.183594 397.039062 C 182.472656 397.503906 183.761719 397.734375 185.007812 397.734375 C 187.667969 397.734375 190.128906 396.691406 191.980469 394.703125 C 195.1875 391.253906 196.023438 385.539062 194.015625 380.804688 C 192.320312 376.8125 189.011719 374.476562 184.941406 374.398438 Z M 189.027344 391.957031 C 186.746094 394.410156 183.738281 393.675781 182.550781 393.246094 C 179.640625 392.199219 177.503906 389.605469 177.351562 386.945312 C 177.222656 384.652344 178.195312 382.265625 179.957031 380.558594 C 181.359375 379.203125 183.105469 378.429688 184.761719 378.429688 C 184.792969 378.429688 184.828125 378.429688 184.863281 378.429688 C 188.164062 378.496094 189.6875 380.933594 190.300781 382.378906 C 191.6875 385.644531 191.152344 389.671875 189.027344 391.957031 Z M 189.027344 391.957031 " style=" stroke:none;fill-rule:nonzero;fill:rgb(0%,0%,0%);fill-opacity:1;" />
<path d="M 158.953125 400.214844 C 156.167969 400.140625 153.363281 401.351562 151.167969 403.476562 C 148.574219 405.984375 147.140625 409.542969 147.339844 412.988281 C 147.582031 417.285156 150.738281 421.246094 155.195312 422.855469 C 156.484375 423.320312 157.773438 423.546875 159.015625 423.546875 C 161.675781 423.546875 164.136719 422.507812 165.988281 420.519531 C 169.195312 417.066406 170.035156 411.351562 168.023438 406.617188 C 166.332031 402.625 163.023438 400.292969 158.953125 400.214844 Z M 163.039062 417.773438 C 160.757812 420.222656 157.75 419.492188 156.5625 419.0625 C 153.652344 418.011719 151.515625 415.421875 151.363281 412.757812 C 151.234375 410.464844 152.207031 408.078125 153.96875 406.371094 C 155.371094 405.015625 157.117188 404.242188 158.773438 404.242188 C 158.808594 404.242188 158.839844 404.246094 158.875 404.246094 C 162.175781 404.308594 163.699219 406.746094 164.3125 408.191406 C 165.699219 411.457031 165.164062 415.488281 163.039062 417.773438 Z M 163.039062 417.773438 " style=" stroke:none;fill-rule:nonzero;fill:rgb(0%,0%,0%);fill-opacity:1;" />
<path d="M 133.777344 428.089844 C 131.003906 428.03125 128.1875 429.226562 125.988281 431.351562 C 123.398438 433.859375 121.964844 437.414062 122.164062 440.863281 C 122.40625 445.15625 125.5625 449.121094 130.019531 450.726562 C 131.308594 451.191406 132.59375 451.421875 133.839844 451.421875 C 136.5 451.421875 138.964844 450.382812 140.816406 448.390625 C 144.023438 444.941406 144.859375 439.226562 142.851562 434.492188 C 141.15625 430.5 137.847656 428.167969 133.777344 428.089844 Z M 137.863281 445.648438 C 135.585938 448.097656 132.574219 447.363281 131.386719 446.9375 C 128.476562 445.886719 126.339844 443.292969 126.1875 440.632812 C 126.058594 438.339844 127.03125 435.953125 128.792969 434.246094 C 130.195312 432.890625 131.941406 432.117188 133.597656 432.117188 C 133.628906 432.117188 133.664062 432.117188 133.699219 432.121094 C 137 432.183594 138.523438 434.621094 139.136719 436.066406 C 140.523438 439.332031 139.988281 443.359375 137.863281 445.648438 Z M 137.863281 445.648438 " style=" stroke:none;fill-rule:nonzero;fill:rgb(0%,0%,0%);fill-opacity:1;" />
<path d="M 100.816406 445.195312 C 98.03125 445.128906 95.226562 446.328125 93.03125 448.457031 C 90.4375 450.964844 89.003906 454.519531 89.203125 457.96875 C 89.445312 462.265625 92.605469 466.230469 97.058594 467.832031 C 98.347656 468.300781 99.636719 468.527344 100.882812 468.527344 C 103.542969 468.527344 106.003906 467.488281 107.855469 465.496094 C 111.0625 462.046875 111.898438 456.332031 109.890625 451.597656 C 108.195312 447.605469 104.886719 445.273438 100.816406 445.195312 Z M 104.902344 462.753906 C 102.625 465.203125 99.613281 464.472656 98.425781 464.042969 C 95.515625 462.992188 93.378906 460.402344 93.226562 457.738281 C 93.09375 455.445312 94.070312 453.058594 95.832031 451.351562 C 97.234375 449.996094 98.980469 449.222656 100.636719 449.222656 C 100.667969 449.222656 100.703125 449.226562 100.738281 449.226562 C 104.039062 449.289062 105.5625 451.726562 106.175781 453.171875 C 107.5625 456.4375 107.027344 460.46875 104.902344 462.753906 Z M 104.902344 462.753906 " style=" stroke:none;fill-rule:nonzero;fill:rgb(0%,0%,0%);fill-opacity:1;" />
<path d="M 181.027344 347.882812 C 182.316406 348.347656 183.605469 348.574219 184.847656 348.574219 C 187.507812 348.574219 189.96875 347.535156 191.820312 345.542969 C 195.027344 342.09375 195.867188 336.378906 193.855469 331.644531 C 192.164062 327.652344 188.855469 325.320312 184.785156 325.242188 C 182.003906 325.175781 179.195312 326.378906 176.996094 328.503906 C 174.402344 331.015625 172.972656 334.570312 173.167969 338.015625 C 173.414062 342.3125 176.570312 346.277344 181.027344 347.882812 Z M 179.800781 331.402344 C 181.203125 330.042969 182.949219 329.273438 184.605469 329.273438 C 184.636719 329.273438 184.671875 329.273438 184.707031 329.273438 C 188.007812 329.335938 189.53125 331.773438 190.144531 333.222656 C 191.53125 336.484375 190.992188 340.515625 188.867188 342.800781 C 186.589844 345.25 183.582031 344.519531 182.394531 344.089844 C 179.484375 343.042969 177.34375 340.449219 177.195312 337.789062 C 177.0625 335.492188 178.039062 333.105469 179.800781 331.402344 Z M 179.800781 331.402344 " style=" stroke:none;fill-rule:nonzero;fill:rgb(0%,0%,0%);fill-opacity:1;" />
<path d="M 159.605469 353.117188 C 156.839844 353.050781 154.015625 354.25 151.820312 356.378906 C 149.226562 358.886719 147.796875 362.445312 147.992188 365.890625 C 148.238281 370.183594 151.394531 374.148438 155.847656 375.757812 C 157.136719 376.222656 158.425781 376.449219 159.671875 376.449219 C 162.332031 376.449219 164.792969 375.410156 166.644531 373.417969 C 169.851562 369.96875 170.6875 364.253906 168.679688 359.519531 C 166.988281 355.527344 163.679688 353.195312 159.605469 353.117188 Z M 163.691406 370.675781 C 161.414062 373.125 158.402344 372.390625 157.214844 371.964844 C 154.308594 370.914062 152.167969 368.324219 152.019531 365.660156 C 151.886719 363.367188 152.859375 360.980469 154.625 359.273438 C 156.027344 357.917969 157.769531 357.144531 159.425781 357.144531 C 159.460938 357.144531 159.496094 357.144531 159.527344 357.148438 C 162.832031 357.210938 164.355469 359.648438 164.96875 361.09375 C 166.355469 364.359375 165.816406 368.386719 163.691406 370.675781 Z M 163.691406 370.675781 " style=" stroke:none;fill-rule:nonzero;fill:rgb(0%,0%,0%);fill-opacity:1;" />
<path d="M 129.859375 401.570312 C 131.148438 402.035156 132.4375 402.265625 133.683594 402.265625 C 136.34375 402.265625 138.808594 401.222656 140.65625 399.234375 C 143.863281 395.785156 144.699219 390.070312 142.691406 385.332031 C 141 381.34375 137.691406 379.007812 133.617188 378.929688 C 130.839844 378.859375 128.027344 380.066406 125.832031 382.191406 C 123.238281 384.699219 121.808594 388.257812 122.003906 391.703125 C 122.25 396 125.40625 399.964844 129.859375 401.570312 Z M 128.636719 385.089844 C 130.039062 383.734375 131.78125 382.960938 133.441406 382.960938 C 133.472656 382.960938 133.507812 382.960938 133.539062 382.960938 C 136.84375 383.027344 138.367188 385.464844 138.980469 386.910156 C 140.367188 390.175781 139.828125 394.203125 137.703125 396.488281 C 135.425781 398.941406 132.417969 398.207031 131.226562 397.78125 C 128.320312 396.730469 126.179688 394.140625 126.027344 391.476562 C 125.898438 389.183594 126.875 386.792969 128.636719 385.089844 Z M 128.636719 385.089844 " style=" stroke:none;fill-rule:nonzero;fill:rgb(0%,0%,0%);fill-opacity:1;" />
<path d="M 108.441406 406.804688 C 105.648438 406.738281 102.851562 407.941406 100.65625 410.066406 C 98.0625 412.574219 96.632812 416.132812 96.828125 419.578125 C 97.074219 423.875 100.230469 427.839844 104.683594 429.445312 C 105.972656 429.910156 107.261719 430.136719 108.507812 430.136719 C 111.167969 430.136719 113.628906 429.097656 115.480469 427.109375 C 118.6875 423.65625 119.523438 417.941406 117.515625 413.207031 C 115.820312 409.21875 112.515625 406.882812 108.441406 406.804688 Z M 112.527344 424.363281 C 110.25 426.8125 107.242188 426.082031 106.050781 425.652344 C 103.144531 424.601562 101.003906 422.011719 100.851562 419.347656 C 100.722656 417.054688 101.695312 414.667969 103.460938 412.964844 C 104.863281 411.605469 106.605469 410.832031 108.261719 410.832031 C 108.296875 410.832031 108.332031 410.832031 108.363281 410.835938 C 111.664062 410.898438 113.191406 413.335938 113.804688 414.78125 C 115.191406 418.046875 114.652344 422.078125 112.527344 424.363281 Z M 112.527344 424.363281 " style=" stroke:none;fill-rule:nonzero;fill:rgb(0%,0%,0%);fill-opacity:1;" />
<path d="M 75.480469 423.910156 C 72.707031 423.839844 69.894531 425.046875 67.695312 427.171875 C 65.101562 429.679688 63.671875 433.238281 63.867188 436.683594 C 64.113281 440.980469 67.269531 444.945312 71.722656 446.550781 C 73.011719 447.015625 74.300781 447.242188 75.546875 447.242188 C 78.207031 447.242188 80.667969 446.203125 82.519531 444.214844 C 85.726562 440.761719 86.5625 435.046875 84.554688 430.3125 C 82.863281 426.324219 79.554688 423.988281 75.480469 423.910156 Z M 79.566406 441.46875 C 77.289062 443.917969 74.277344 443.1875 73.089844 442.757812 C 70.183594 441.710938 68.042969 439.117188 67.894531 436.457031 C 67.761719 434.164062 68.734375 431.777344 70.5 430.070312 C 71.902344 428.710938 73.648438 427.941406 75.300781 427.941406 C 75.335938 427.941406 75.371094 427.941406 75.402344 427.941406 C 78.707031 428.003906 80.230469 430.441406 80.84375 431.890625 C 82.230469 435.152344 81.691406 439.183594 79.566406 441.46875 Z M 79.566406 441.46875 " style=" stroke:none;fill-rule:nonzero;fill:rgb(0%,0%,0%);fill-opacity:1;" />
<path d="M 160.625 305.441406 C 157.859375 305.386719 155.035156 306.578125 152.839844 308.703125 C 150.246094 311.214844 148.816406 314.769531 149.011719 318.21875 C 149.253906 322.511719 152.414062 326.476562 156.867188 328.082031 C 158.15625 328.546875 159.445312 328.777344 160.691406 328.777344 C 163.351562 328.777344 165.8125 327.734375 167.664062 325.746094 C 170.871094 322.296875 171.707031 316.582031 169.699219 311.847656 C 168.003906 307.855469 164.699219 305.519531 160.625 305.441406 Z M 164.710938 323 C 162.433594 325.453125 159.421875 324.71875 158.234375 324.289062 C 155.324219 323.242188 153.1875 320.648438 153.035156 317.988281 C 152.90625 315.695312 153.878906 313.308594 155.644531 311.601562 C 157.042969 310.246094 158.789062 309.472656 160.445312 309.472656 C 160.480469 309.472656 160.515625 309.472656 160.546875 309.472656 C 163.851562 309.539062 165.375 311.976562 165.988281 313.421875 C 167.371094 316.6875 166.835938 320.714844 164.710938 323 Z M 164.710938 323 " style=" stroke:none;fill-rule:nonzero;fill:rgb(0%,0%,0%);fill-opacity:1;" />
<path d="M 135.449219 333.316406 C 132.671875 333.257812 129.859375 334.453125 127.660156 336.578125 C 125.070312 339.085938 123.636719 342.644531 123.835938 346.089844 C 124.078125 350.386719 127.234375 354.351562 131.691406 355.957031 C 132.980469 356.421875 134.269531 356.648438 135.511719 356.648438 C 138.171875 356.648438 140.636719 355.609375 142.488281 353.621094 C 145.695312 350.167969 146.53125 344.453125 144.523438 339.71875 C 142.828125 335.730469 139.523438 333.394531 135.449219 333.316406 Z M 139.535156 350.875 C 137.253906 353.324219 134.246094 352.59375 133.058594 352.164062 C 130.148438 351.113281 128.011719 348.523438 127.859375 345.859375 C 127.730469 343.566406 128.703125 341.179688 130.464844 339.476562 C 131.867188 338.117188 133.613281 337.347656 135.269531 337.347656 C 135.300781 337.347656 135.335938 337.347656 135.371094 337.347656 C 138.671875 337.410156 140.195312 339.847656 140.808594 341.292969 C 142.195312 344.558594 141.660156 348.589844 139.535156 350.875 Z M 139.535156 350.875 " style=" stroke:none;fill-rule:nonzero;fill:rgb(0%,0%,0%);fill-opacity:1;" />
<path d="M 109.460938 359.132812 C 106.667969 359.066406 103.871094 360.269531 101.675781 362.394531 C 99.082031 364.902344 97.652344 368.457031 97.847656 371.90625 C 98.089844 376.199219 101.25 380.164062 105.703125 381.769531 C 106.992188 382.234375 108.28125 382.464844 109.527344 382.464844 C 112.1875 382.464844 114.648438 381.425781 116.5 379.433594 C 119.707031 375.984375 120.542969 370.269531 118.535156 365.535156 C 116.839844 361.542969 113.53125 359.210938 109.460938 359.132812 Z M 113.546875 376.691406 C 111.269531 379.140625 108.257812 378.40625 107.070312 377.980469 C 104.160156 376.929688 102.023438 374.339844 101.871094 371.675781 C 101.742188 369.382812 102.714844 366.996094 104.476562 365.289062 C 105.878906 363.933594 107.625 363.160156 109.28125 363.160156 C 109.3125 363.160156 109.347656 363.160156 109.382812 363.164062 C 112.683594 363.226562 114.207031 365.664062 114.820312 367.109375 C 116.207031 370.375 115.671875 374.402344 113.546875 376.691406 Z M 113.546875 376.691406 " style=" stroke:none;fill-rule:nonzero;fill:rgb(0%,0%,0%);fill-opacity:1;" />
<path d="M 80.527344 409.644531 C 81.816406 410.109375 83.105469 410.339844 84.351562 410.339844 C 87.007812 410.339844 89.472656 409.296875 91.324219 407.308594 C 94.53125 403.859375 95.367188 398.144531 93.359375 393.410156 C 91.664062 389.417969 88.359375 387.085938 84.285156 387.007812 C 81.511719 386.941406 78.695312 388.140625 76.5 390.269531 C 73.90625 392.777344 72.476562 396.332031 72.671875 399.777344 C 72.914062 404.074219 76.070312 408.039062 80.527344 409.644531 Z M 79.300781 393.164062 C 80.703125 391.808594 82.449219 391.035156 84.105469 391.035156 C 84.140625 391.035156 84.171875 391.035156 84.207031 391.035156 C 87.507812 391.101562 89.03125 393.535156 89.644531 394.984375 C 91.03125 398.25 90.496094 402.277344 88.367188 404.5625 C 86.09375 407.011719 83.082031 406.28125 81.894531 405.851562 C 78.984375 404.804688 76.84375 402.210938 76.695312 399.550781 C 76.566406 397.257812 77.539062 394.871094 79.300781 393.164062 Z M 79.300781 393.164062 " style=" stroke:none;fill-rule:nonzero;fill:rgb(0%,0%,0%);fill-opacity:1;" />
<path d="M 176.40625 150.914062 C 178.523438 152.761719 181.144531 153.785156 183.6875 153.785156 C 183.910156 153.785156 184.132812 153.777344 184.351562 153.761719 L 184.355469 153.761719 C 188.414062 153.46875 191.59375 150.964844 193.078125 146.890625 C 194.835938 142.058594 193.699219 136.394531 190.316406 133.117188 C 187.449219 130.34375 183.371094 129.683594 179.410156 131.351562 C 175.046875 133.1875 172.105469 137.3125 172.085938 141.613281 C 172.070312 145.070312 173.683594 148.542969 176.40625 150.914062 Z M 180.976562 135.066406 C 181.550781 134.824219 182.570312 134.484375 183.742188 134.484375 C 184.9375 134.484375 186.296875 134.839844 187.511719 136.015625 C 189.753906 138.1875 190.5 142.179688 189.289062 145.515625 C 188.75 146.992188 187.359375 149.507812 184.0625 149.742188 C 182.382812 149.867188 180.554688 149.183594 179.050781 147.875 C 177.203125 146.265625 176.105469 143.929688 176.117188 141.632812 C 176.128906 138.96875 178.125 136.265625 180.976562 135.066406 Z M 180.976562 135.066406 " style=" stroke:none;fill-rule:nonzero;fill:rgb(0%,0%,0%);fill-opacity:1;" />
<path d="M 149.097656 126.496094 C 151.21875 128.34375 153.835938 129.371094 156.378906 129.371094 C 156.601562 129.371094 156.824219 129.363281 157.046875 129.347656 C 161.109375 129.054688 164.289062 126.550781 165.769531 122.476562 C 167.527344 117.640625 166.394531 111.976562 163.007812 108.703125 C 160.144531 105.925781 156.066406 105.265625 152.105469 106.933594 C 147.742188 108.773438 144.796875 112.898438 144.777344 117.199219 C 144.761719 120.652344 146.378906 124.128906 149.097656 126.496094 Z M 153.667969 110.652344 C 154.246094 110.40625 155.261719 110.066406 156.433594 110.066406 C 157.632812 110.066406 158.988281 110.421875 160.203125 111.597656 C 162.445312 113.769531 163.195312 117.765625 161.980469 121.097656 C 161.445312 122.574219 160.050781 125.089844 156.757812 125.324219 C 155.074219 125.445312 153.25 124.765625 151.746094 123.457031 C 149.898438 121.847656 148.796875 119.515625 148.808594 117.21875 C 148.820312 114.550781 150.820312 111.851562 153.667969 110.652344 Z M 153.667969 110.652344 " style=" stroke:none;fill-rule:nonzero;fill:rgb(0%,0%,0%);fill-opacity:1;" />
<path d="M 122.496094 99.984375 C 124.613281 101.828125 127.234375 102.855469 129.773438 102.855469 C 129.996094 102.855469 130.21875 102.847656 130.441406 102.832031 C 134.503906 102.539062 137.683594 100.035156 139.164062 95.960938 C 140.921875 91.128906 139.785156 85.464844 136.402344 82.1875 C 133.539062 79.414062 129.460938 78.75 125.5 80.417969 C 121.136719 82.257812 118.191406 86.382812 118.171875 90.683594 C 118.15625 94.136719 119.773438 97.613281 122.496094 99.984375 Z M 127.066406 84.136719 C 127.640625 83.894531 128.65625 83.554688 129.832031 83.554688 C 131.027344 83.554688 132.386719 83.90625 133.601562 85.082031 C 135.84375 87.253906 136.589844 91.25 135.378906 94.582031 C 134.839844 96.0625 133.449219 98.574219 130.152344 98.8125 C 128.46875 98.929688 126.644531 98.25 125.140625 96.941406 C 123.292969 95.332031 122.195312 93 122.203125 90.703125 C 122.214844 88.035156 124.214844 85.335938 127.066406 84.136719 Z M 127.066406 84.136719 " style=" stroke:none;fill-rule:nonzero;fill:rgb(0%,0%,0%);fill-opacity:1;" />
<path d="M 152.222656 173.496094 C 154.34375 175.34375 156.960938 176.371094 159.503906 176.371094 C 159.726562 176.371094 159.949219 176.363281 160.171875 176.347656 L 160.167969 176.347656 C 164.234375 176.054688 167.414062 173.550781 168.894531 169.476562 C 170.652344 164.644531 169.519531 158.976562 166.132812 155.703125 C 163.269531 152.925781 159.191406 152.269531 155.230469 153.933594 C 150.867188 155.773438 147.921875 159.898438 147.902344 164.199219 C 147.886719 167.652344 149.503906 171.128906 152.222656 173.496094 Z M 156.792969 157.648438 C 157.371094 157.40625 158.386719 157.066406 159.558594 157.066406 C 160.757812 157.066406 162.117188 157.421875 163.328125 158.597656 C 165.570312 160.769531 166.320312 164.765625 165.105469 168.097656 C 164.570312 169.574219 163.175781 172.089844 159.882812 172.324219 C 158.199219 172.445312 156.375 171.765625 154.871094 170.457031 C 153.023438 168.847656 151.925781 166.511719 151.9375 164.21875 C 151.945312 161.550781 153.945312 158.851562 156.792969 157.648438 Z M 156.792969 157.648438 " style=" stroke:none;fill-rule:nonzero;fill:rgb(0%,0%,0%);fill-opacity:1;" />
<path d="M 132.199219 151.953125 C 132.421875 151.953125 132.644531 151.945312 132.863281 151.929688 C 136.925781 151.636719 140.105469 149.132812 141.589844 145.058594 C 143.347656 140.226562 142.210938 134.5625 138.828125 131.285156 C 135.960938 128.511719 131.882812 127.847656 127.921875 129.519531 C 123.558594 131.355469 120.613281 135.480469 120.59375 139.78125 C 120.582031 143.234375 122.195312 146.710938 124.917969 149.082031 C 127.035156 150.929688 129.65625 151.953125 132.199219 151.953125 Z M 129.488281 133.234375 C 130.0625 132.992188 131.082031 132.652344 132.253906 132.652344 C 133.449219 132.652344 134.808594 133.007812 136.023438 134.183594 C 138.265625 136.355469 139.011719 140.347656 137.800781 143.683594 C 137.261719 145.160156 135.871094 147.675781 132.574219 147.910156 C 130.890625 148.035156 129.066406 147.351562 127.5625 146.042969 C 125.714844 144.433594 124.617188 142.101562 124.625 139.804688 C 124.636719 137.136719 126.636719 134.433594 129.488281 133.234375 Z M 129.488281 133.234375 " style=" stroke:none;fill-rule:nonzero;fill:rgb(0%,0%,0%);fill-opacity:1;" />
<path d="M 105.59375 125.441406 C 105.816406 125.441406 106.039062 125.433594 106.257812 125.417969 C 106.257812 125.417969 106.257812 125.414062 106.257812 125.414062 C 110.320312 125.125 113.5 122.621094 114.984375 118.542969 C 116.742188 113.710938 115.605469 108.046875 112.222656 104.769531 C 109.355469 101.996094 105.28125 101.332031 101.320312 103.003906 C 96.953125 104.84375 94.007812 108.96875 93.992188 113.269531 C 93.976562 116.722656 95.589844 120.195312 98.3125 122.566406 C 100.433594 124.414062 103.050781 125.441406 105.59375 125.441406 Z M 102.882812 106.71875 C 103.460938 106.476562 104.476562 106.136719 105.648438 106.136719 C 106.84375 106.136719 108.203125 106.492188 109.417969 107.667969 C 111.660156 109.839844 112.40625 113.835938 111.195312 117.167969 C 110.660156 118.644531 109.265625 121.160156 105.96875 121.394531 C 104.292969 121.519531 102.460938 120.835938 100.960938 119.527344 C 99.109375 117.914062 98.011719 115.582031 98.023438 113.285156 C 98.035156 110.621094 100.035156 107.917969 102.882812 106.71875 Z M 102.882812 106.71875 " style=" stroke:none;fill-rule:nonzero;fill:rgb(0%,0%,0%);fill-opacity:1;" />
<path d="M 101.730469 80.597656 C 103.488281 75.765625 102.351562 70.101562 98.964844 66.824219 C 96.101562 64.046875 92.023438 63.386719 88.0625 65.054688 C 83.699219 66.894531 80.753906 71.019531 80.734375 75.320312 C 80.71875 78.773438 82.335938 82.246094 85.058594 84.617188 C 87.175781 86.464844 89.796875 87.492188 92.339844 87.492188 C 92.5625 87.492188 92.78125 87.484375 93.003906 87.46875 C 97.066406 87.175781 100.246094 84.671875 101.730469 80.597656 Z M 97.941406 79.21875 C 97.402344 80.695312 96.007812 83.210938 92.714844 83.445312 C 91.027344 83.570312 89.207031 82.886719 87.703125 81.578125 C 85.855469 79.96875 84.757812 77.636719 84.769531 75.339844 C 84.78125 72.671875 86.777344 69.972656 89.628906 68.773438 C 90.203125 68.527344 91.21875 68.1875 92.394531 68.1875 C 93.589844 68.1875 94.949219 68.542969 96.164062 69.71875 C 98.40625 71.890625 99.152344 75.886719 97.941406 79.21875 Z M 97.941406 79.21875 " style=" stroke:none;fill-rule:nonzero;fill:rgb(0%,0%,0%);fill-opacity:1;" />
<path d="M 132.144531 174.976562 C 127.78125 176.8125 124.835938 180.9375 124.816406 185.238281 C 124.800781 188.691406 126.417969 192.167969 129.136719 194.539062 C 131.257812 196.382812 133.875 197.410156 136.417969 197.410156 C 136.640625 197.410156 136.863281 197.402344 137.085938 197.386719 L 137.082031 197.386719 C 141.148438 197.09375 144.328125 194.589844 145.808594 190.515625 C 147.566406 185.683594 146.433594 180.019531 143.046875 176.742188 C 140.183594 173.96875 136.105469 173.304688 132.144531 174.976562 Z M 142.019531 189.140625 C 141.484375 190.617188 140.089844 193.128906 136.796875 193.367188 C 135.113281 193.480469 133.289062 192.804688 131.785156 191.496094 C 129.9375 189.886719 128.835938 187.554688 128.847656 185.257812 C 128.859375 182.589844 130.859375 179.890625 133.707031 178.691406 C 134.285156 178.445312 135.300781 178.105469 136.472656 178.105469 C 137.671875 178.105469 139.027344 178.460938 140.242188 179.636719 C 142.484375 181.808594 143.234375 185.804688 142.019531 189.140625 Z M 142.019531 189.140625 " style=" stroke:none;fill-rule:nonzero;fill:rgb(0%,0%,0%);fill-opacity:1;" />
<path d="M 104.835938 150.558594 C 100.472656 152.398438 97.527344 156.523438 97.507812 160.824219 C 97.492188 164.277344 99.109375 167.75 101.832031 170.121094 C 103.949219 171.96875 106.570312 172.992188 109.113281 172.992188 C 109.335938 172.992188 109.558594 172.984375 109.777344 172.96875 C 113.839844 172.679688 117.019531 170.175781 118.503906 166.097656 C 120.261719 161.265625 119.125 155.601562 115.742188 152.324219 C 112.875 149.550781 108.796875 148.890625 104.835938 150.558594 Z M 114.714844 164.722656 C 114.175781 166.199219 112.785156 168.714844 109.488281 168.949219 C 107.804688 169.070312 105.980469 168.390625 104.476562 167.082031 C 102.628906 165.472656 101.53125 163.140625 101.539062 160.84375 C 101.550781 158.175781 103.550781 155.476562 106.402344 154.273438 C 106.976562 154.03125 107.992188 153.691406 109.164062 153.691406 C 110.363281 153.691406 111.71875 154.046875 112.9375 155.222656 C 115.179688 157.394531 115.925781 161.386719 114.714844 164.722656 Z M 114.714844 164.722656 " style=" stroke:none;fill-rule:nonzero;fill:rgb(0%,0%,0%);fill-opacity:1;" />
<path d="M 78.234375 124.042969 C 73.867188 125.882812 70.925781 130.007812 70.90625 134.308594 C 70.890625 137.761719 72.503906 141.238281 75.226562 143.609375 C 77.34375 145.453125 79.964844 146.480469 82.507812 146.480469 C 82.730469 146.480469 82.953125 146.472656 83.171875 146.457031 C 87.238281 146.164062 90.417969 143.660156 91.898438 139.585938 C 93.65625 134.753906 92.519531 129.089844 89.136719 125.8125 C 86.269531 123.035156 82.191406 122.375 78.234375 124.042969 Z M 88.109375 138.207031 C 87.574219 139.683594 86.179688 142.199219 82.882812 142.4375 C 81.207031 142.5625 79.375 141.875 77.875 140.566406 C 76.023438 138.957031 74.925781 136.625 74.9375 134.328125 C 74.949219 131.660156 76.945312 128.960938 79.796875 127.761719 C 80.371094 127.519531 81.390625 127.179688 82.5625 127.179688 C 83.757812 127.179688 85.117188 127.53125 86.332031 128.707031 C 88.574219 130.878906 89.320312 134.875 88.109375 138.207031 Z M 88.109375 138.207031 " style=" stroke:none;fill-rule:nonzero;fill:rgb(0%,0%,0%);fill-opacity:1;" />
<path d="M 78.644531 101.636719 C 80.402344 96.804688 79.265625 91.140625 75.878906 87.863281 C 73.015625 85.089844 68.9375 84.425781 64.976562 86.09375 C 60.613281 87.933594 57.667969 92.058594 57.648438 96.359375 C 57.632812 99.8125 59.25 103.285156 61.96875 105.65625 C 64.089844 107.503906 66.710938 108.527344 69.25 108.527344 C 69.476562 108.527344 69.695312 108.519531 69.917969 108.503906 C 73.980469 108.214844 77.160156 105.710938 78.644531 101.636719 Z M 69.628906 104.484375 C 67.945312 104.601562 66.121094 103.925781 64.617188 102.617188 C 62.769531 101.007812 61.671875 98.675781 61.679688 96.375 C 61.691406 93.710938 63.691406 91.011719 66.539062 89.808594 C 67.117188 89.566406 68.132812 89.226562 69.308594 89.226562 C 70.503906 89.226562 71.863281 89.582031 73.078125 90.757812 C 75.320312 92.929688 76.066406 96.925781 74.855469 100.257812 C 74.316406 101.734375 72.921875 104.25 69.628906 104.484375 Z M 69.628906 104.484375 " style=" stroke:none;fill-rule:nonzero;fill:rgb(0%,0%,0%);fill-opacity:1;" />
<path d="M 288.023438 398.683594 C 289.863281 400.585938 292.269531 401.574219 294.855469 401.574219 C 296.160156 401.574219 297.515625 401.320312 298.863281 400.804688 C 303.285156 399.109375 306.363281 395.082031 306.523438 390.785156 C 306.648438 387.332031 305.148438 383.808594 302.507812 381.347656 C 300.269531 379.265625 297.402344 378.140625 294.65625 378.242188 C 290.585938 378.402344 287.328125 380.800781 285.710938 384.824219 C 283.796875 389.597656 284.75 395.296875 288.023438 398.683594 Z M 289.453125 386.328125 C 290.039062 384.867188 291.515625 382.402344 294.816406 382.273438 C 296.492188 382.195312 298.300781 382.945312 299.761719 384.300781 C 301.558594 385.972656 302.578125 388.339844 302.492188 390.636719 C 302.394531 393.300781 300.308594 395.933594 297.421875 397.039062 C 296.242188 397.492188 293.25 398.28125 290.921875 395.878906 C 288.75 393.636719 288.132812 389.617188 289.453125 386.328125 Z M 289.453125 386.328125 " style=" stroke:none;fill-rule:nonzero;fill:rgb(0%,0%,0%);fill-opacity:1;" />
<path d="M 321.152344 403.539062 C 317.082031 403.699219 313.820312 406.097656 312.207031 410.121094 C 310.292969 414.894531 311.242188 420.589844 314.519531 423.976562 C 316.359375 425.878906 318.761719 426.871094 321.347656 426.871094 C 322.65625 426.871094 324.007812 426.617188 325.359375 426.101562 C 329.78125 424.40625 332.859375 420.378906 333.015625 416.078125 C 333.144531 412.628906 331.644531 409.101562 329 406.644531 C 326.761719 404.5625 323.902344 403.445312 321.152344 403.539062 Z M 323.914062 422.335938 C 322.734375 422.785156 319.742188 423.578125 317.414062 421.175781 C 315.246094 418.933594 314.628906 414.914062 315.949219 411.621094 C 316.535156 410.164062 318.007812 407.695312 321.308594 407.566406 C 321.378906 407.566406 321.445312 407.5625 321.515625 407.5625 C 323.140625 407.5625 324.855469 408.296875 326.253906 409.597656 C 328.050781 411.269531 329.074219 413.636719 328.988281 415.929688 C 328.886719 418.597656 326.800781 421.230469 323.914062 422.335938 Z M 323.914062 422.335938 " style=" stroke:none;fill-rule:nonzero;fill:rgb(0%,0%,0%);fill-opacity:1;" />
<path d="M 346.875 430.910156 C 342.804688 431.066406 339.546875 433.46875 337.933594 437.492188 C 336.015625 442.265625 336.964844 447.960938 340.242188 451.347656 C 342.082031 453.25 344.488281 454.242188 347.070312 454.242188 C 348.378906 454.242188 349.730469 453.988281 351.082031 453.472656 C 355.503906 451.777344 358.582031 447.75 358.738281 443.449219 C 358.867188 440 357.367188 436.472656 354.726562 434.015625 C 352.488281 431.933594 349.621094 430.804688 346.875 430.910156 Z M 349.636719 449.707031 C 348.457031 450.15625 345.464844 450.949219 343.136719 448.542969 C 340.96875 446.300781 340.351562 442.285156 341.671875 438.992188 C 342.257812 437.53125 343.734375 435.066406 347.035156 434.9375 C 348.710938 434.863281 350.523438 435.613281 351.980469 436.96875 C 353.777344 438.636719 354.796875 441.007812 354.710938 443.300781 C 354.613281 445.964844 352.527344 448.597656 349.636719 449.707031 Z M 349.636719 449.707031 " style=" stroke:none;fill-rule:nonzero;fill:rgb(0%,0%,0%);fill-opacity:1;" />
<path d="M 319.761719 379.792969 C 321.070312 379.792969 322.421875 379.539062 323.769531 379.023438 C 328.191406 377.328125 331.269531 373.304688 331.429688 369.003906 C 331.558594 365.554688 330.058594 362.027344 327.414062 359.570312 C 325.175781 357.488281 322.3125 356.351562 319.566406 356.460938 C 315.496094 356.621094 312.234375 359.019531 310.621094 363.042969 C 308.707031 367.816406 309.65625 373.515625 312.929688 376.898438 C 314.773438 378.804688 317.175781 379.792969 319.761719 379.792969 Z M 314.363281 364.542969 C 314.949219 363.085938 316.421875 360.617188 319.722656 360.488281 C 321.40625 360.417969 323.210938 361.164062 324.667969 362.519531 C 326.464844 364.191406 327.488281 366.558594 327.402344 368.851562 C 327.300781 371.519531 325.214844 374.152344 322.328125 375.257812 C 321.148438 375.707031 318.152344 376.5 315.828125 374.097656 C 313.660156 371.855469 313.042969 367.835938 314.363281 364.542969 Z M 314.363281 364.542969 " style=" stroke:none;fill-rule:nonzero;fill:rgb(0%,0%,0%);fill-opacity:1;" />
<path d="M 346.058594 381.757812 C 341.988281 381.917969 338.730469 384.316406 337.113281 388.339844 C 335.199219 393.113281 336.148438 398.8125 339.425781 402.195312 C 341.265625 404.101562 343.671875 405.089844 346.253906 405.089844 C 347.5625 405.089844 348.914062 404.835938 350.265625 404.320312 C 354.6875 402.625 357.761719 398.597656 357.921875 394.300781 C 358.050781 390.847656 356.550781 387.320312 353.90625 384.863281 C 351.667969 382.78125 348.808594 381.652344 346.058594 381.757812 Z M 348.824219 400.554688 C 347.644531 401.007812 344.648438 401.796875 342.324219 399.394531 C 340.152344 397.152344 339.535156 393.132812 340.855469 389.84375 C 341.441406 388.382812 342.914062 385.914062 346.214844 385.785156 C 347.90625 385.722656 349.707031 386.460938 351.164062 387.816406 C 352.960938 389.488281 353.980469 391.855469 353.894531 394.148438 C 353.796875 396.816406 351.710938 399.449219 348.824219 400.554688 Z M 348.824219 400.554688 " style=" stroke:none;fill-rule:nonzero;fill:rgb(0%,0%,0%);fill-opacity:1;" />
<path d="M 371.78125 409.128906 C 367.710938 409.285156 364.453125 411.6875 362.835938 415.710938 C 360.921875 420.484375 361.875 426.179688 365.148438 429.566406 C 366.988281 431.472656 369.394531 432.460938 371.976562 432.460938 C 373.285156 432.460938 374.636719 432.207031 375.988281 431.691406 C 380.410156 429.996094 383.488281 425.96875 383.648438 421.667969 C 383.773438 418.21875 382.273438 414.691406 379.632812 412.234375 C 377.394531 410.152344 374.527344 409.019531 371.78125 409.128906 Z M 374.546875 427.925781 C 373.367188 428.375 370.371094 429.167969 368.046875 426.761719 C 365.875 424.519531 365.257812 420.5 366.578125 417.210938 C 367.164062 415.75 368.640625 413.285156 371.941406 413.15625 C 372.007812 413.152344 372.078125 413.152344 372.148438 413.152344 C 373.773438 413.152344 375.488281 413.886719 376.886719 415.1875 C 378.683594 416.855469 379.703125 419.222656 379.621094 421.519531 C 379.519531 424.183594 377.433594 426.816406 374.546875 427.925781 Z M 374.546875 427.925781 " style=" stroke:none;fill-rule:nonzero;fill:rgb(0%,0%,0%);fill-opacity:1;" />
<path d="M 375.652344 452.582031 C 373.734375 457.355469 374.6875 463.054688 377.960938 466.441406 C 379.800781 468.34375 382.207031 469.332031 384.789062 469.332031 C 386.097656 469.332031 387.453125 469.082031 388.800781 468.5625 C 393.222656 466.871094 396.300781 462.84375 396.460938 458.542969 C 396.589844 455.09375 395.085938 451.566406 392.445312 449.109375 C 390.207031 447.027344 387.34375 445.894531 384.59375 446.003906 C 380.523438 446.160156 377.265625 448.558594 375.652344 452.582031 Z M 379.390625 454.085938 C 379.976562 452.625 381.453125 450.160156 384.753906 450.03125 C 384.820312 450.027344 384.890625 450.027344 384.960938 450.027344 C 386.585938 450.027344 388.300781 450.761719 389.699219 452.0625 C 391.496094 453.730469 392.515625 456.097656 392.433594 458.394531 C 392.332031 461.058594 390.246094 463.691406 387.359375 464.800781 C 386.179688 465.25 383.1875 466.042969 380.859375 463.636719 C 378.6875 461.394531 378.070312 457.375 379.390625 454.085938 Z M 379.390625 454.085938 " style=" stroke:none;fill-rule:nonzero;fill:rgb(0%,0%,0%);fill-opacity:1;" />
<path d="M 343.523438 359.519531 C 344.828125 359.519531 346.183594 359.265625 347.53125 358.75 C 351.953125 357.054688 355.03125 353.027344 355.191406 348.730469 C 355.320312 345.277344 353.816406 341.75 351.175781 339.292969 C 348.9375 337.214844 346.074219 336.082031 343.324219 336.1875 C 339.253906 336.347656 335.996094 338.746094 334.382812 342.769531 C 332.46875 347.542969 333.417969 353.242188 336.691406 356.625 C 338.535156 358.53125 340.9375 359.519531 343.523438 359.519531 Z M 338.125 344.269531 C 338.707031 342.8125 340.183594 340.347656 343.484375 340.21875 C 343.550781 340.214844 343.621094 340.214844 343.691406 340.214844 C 345.316406 340.214844 347.03125 340.945312 348.429688 342.246094 C 350.226562 343.917969 351.246094 346.285156 351.164062 348.578125 C 351.0625 351.246094 348.976562 353.878906 346.089844 354.984375 C 344.910156 355.4375 341.917969 356.230469 339.589844 353.824219 C 337.417969 351.582031 336.800781 347.5625 338.125 344.269531 Z M 338.125 344.269531 " style=" stroke:none;fill-rule:nonzero;fill:rgb(0%,0%,0%);fill-opacity:1;" />
<path d="M 370.015625 384.816406 C 371.324219 384.816406 372.675781 384.5625 374.027344 384.042969 C 378.445312 382.351562 381.523438 378.324219 381.683594 374.023438 C 381.8125 370.574219 380.3125 367.046875 377.667969 364.589844 C 375.429688 362.507812 372.574219 361.390625 369.820312 361.484375 C 365.75 361.644531 362.488281 364.042969 360.875 368.066406 C 358.960938 372.839844 359.910156 378.535156 363.183594 381.921875 C 365.027344 383.824219 367.433594 384.816406 370.015625 384.816406 Z M 364.617188 369.566406 C 365.203125 368.109375 366.675781 365.640625 369.976562 365.511719 C 370.046875 365.507812 370.117188 365.507812 370.1875 365.507812 C 371.8125 365.507812 373.527344 366.242188 374.921875 367.542969 C 376.71875 369.214844 377.742188 371.578125 377.65625 373.875 C 377.558594 376.539062 375.46875 379.175781 372.582031 380.28125 C 371.402344 380.730469 368.410156 381.523438 366.082031 379.117188 C 363.914062 376.875 363.296875 372.859375 364.617188 369.566406 Z M 364.617188 369.566406 " style=" stroke:none;fill-rule:nonzero;fill:rgb(0%,0%,0%);fill-opacity:1;" />
<path d="M 395.738281 412.183594 C 397.046875 412.183594 398.402344 411.929688 399.75 411.414062 C 404.171875 409.722656 407.25 405.695312 407.410156 401.394531 C 407.535156 397.945312 406.035156 394.417969 403.394531 391.960938 C 401.15625 389.878906 398.289062 388.75 395.542969 388.855469 C 391.476562 389.011719 388.214844 391.410156 386.601562 395.433594 C 384.6875 400.207031 385.636719 405.90625 388.910156 409.292969 C 390.75 411.195312 393.15625 412.183594 395.738281 412.183594 Z M 390.339844 396.9375 C 390.925781 395.476562 392.402344 393.011719 395.703125 392.882812 C 395.769531 392.878906 395.839844 392.878906 395.910156 392.878906 C 397.535156 392.878906 399.25 393.613281 400.648438 394.910156 C 402.445312 396.582031 403.464844 398.949219 403.378906 401.246094 C 403.28125 403.910156 401.195312 406.542969 398.308594 407.648438 C 397.128906 408.101562 394.132812 408.894531 391.808594 406.488281 C 389.636719 404.246094 389.019531 400.226562 390.339844 396.9375 Z M 390.339844 396.9375 " style=" stroke:none;fill-rule:nonzero;fill:rgb(0%,0%,0%);fill-opacity:1;" />
<path d="M 399.410156 432.3125 C 397.496094 437.082031 398.445312 442.78125 401.722656 446.167969 C 403.5625 448.070312 405.96875 449.0625 408.550781 449.0625 C 409.859375 449.0625 411.210938 448.808594 412.5625 448.289062 C 416.984375 446.597656 420.0625 442.570312 420.21875 438.269531 C 420.347656 434.820312 418.847656 431.292969 416.207031 428.835938 C 413.964844 426.753906 411.105469 425.625 408.355469 425.730469 C 404.285156 425.886719 401.027344 428.285156 399.410156 432.3125 Z M 403.152344 433.8125 C 403.738281 432.351562 405.214844 429.886719 408.515625 429.757812 C 410.195312 429.683594 412 430.429688 413.460938 431.785156 C 415.257812 433.457031 416.277344 435.824219 416.195312 438.121094 C 416.09375 440.785156 414.007812 443.417969 411.121094 444.523438 C 409.941406 444.976562 406.945312 445.769531 404.621094 443.363281 C 402.449219 441.121094 401.832031 437.101562 403.152344 433.8125 Z M 403.152344 433.8125 " style=" stroke:none;fill-rule:nonzero;fill:rgb(0%,0%,0%);fill-opacity:1;" />
</g>
</svg>