<?xml version="1.0" encoding="iso-8859-1"?>
<!-- Generator: Adobe Illustrator 19.0.0, SVG Export Plug-In . SVG Version: 6.00 Build 0)  -->
<svg version="1.1" id="Capa_1" xmlns="http://www.w3.org/2000/svg" xmlns:xlink="http://www.w3.org/1999/xlink" x="0px" y="0px"
	 viewBox="0 0 512.004 512.004" style="enable-background:new 0 0 512.004 512.004;" xml:space="preserve">
<g>
	<g>
		<path d="M497.817,0.183c-10.007,2.752-20.148,5.101-30.316,7.335c-43.402,8.231-87.008,15.557-130.416,23.723
			c-11.801,2.22-24.026,3.883-35.59,7.146c-9.293,2.622-17.336,8.389-19.003,18.448c-1.661,10.024,1.96,21.227,4.783,30.759
			c1.819,6.147,3.935,12.219,6.317,18.182c-41.939,30.871-80.083,67-117.725,102.896c-19.604,18.693-38.996,37.605-58.178,56.73
			c-16.249,16.201-37.873,33.361-34.389,58.909c1.594,11.687,6.827,22.855,12.323,33.183c0.296,0.555,0.605,1.102,0.907,1.654
			c-14.662,16.441-41.943,15.327-54.216-3.983c-7.356-11.575-3.63-24.024-5.07-36.787c-1.046-9.265-5.886-19.082-15.515-21.696
			c-1.734-0.471-3.414,0.335-4.371,1.779c-3.271,4.935-6.643,9.816-9.719,14.877c-0.773,1.272-0.398,3.479,1.082,4.125
			c15.953,6.968,4.473,30.127,3.724,42.083c-0.829,13.255,6.353,25.413,16.659,33.279c25.607,19.544,59.15,7.737,82.289-9.805
			c0.184-0.139,0.35-0.283,0.507-0.43c0.685,0.889,1.37,1.777,2.069,2.656c4.986,6.27,10.543,12.496,16.559,18.338
			c-14.391,12.662-27.924,26.437-41.557,39.867c-15.231,15.006-31.433,29.471-45.588,45.494c-5.102,5.773-2.238,13.396,3.259,18.021
			c5.398,4.542,12.85,6.087,19.647,4.332c8.041-2.075,14.619-7.625,20.576-13.137c7.648-7.078,15.183-14.286,22.771-21.429
			c8.959-8.432,17.917-16.864,26.875-25.296c8.512-8.011,17.907-15.697,25.669-24.472c1.521,0.781,3.05,1.533,4.597,2.227
			c10.471,4.697,21.893,7.1,33.251,4.396c10.722-2.553,19.813-9.509,27.553-17.081c18.922-18.512,35.891-39.342,53.681-58.94
			c21.274-23.436,42.548-46.872,63.822-70.308c21.258-23.418,43.166-46.363,63.773-70.355c0.016-0.018,0.027-0.037,0.042-0.054
			c2.281,0.811,4.575,1.583,6.884,2.305c9.14,2.861,19.019,5.37,28.595,3.244c9.838-2.185,15.901-9.691,19.37-18.723
			c4.177-10.879,6.973-22.472,10.066-33.696c7.445-27.009,13.819-54.312,19.084-81.83c5.189-27.125,10.659-55.042,11.854-82.678
			C504.91,1.882,501.129-0.729,497.817,0.183z M295.474,110.335c0.995,2.333,2.03,4.649,3.108,6.943
			c5.379,11.45,11.921,22.312,19.443,32.437c-18.875,5.245-37.943,2.603-55.075-6.931
			C273.977,132.145,284.86,121.368,295.474,110.335z M259.988,145.641c17.029,14.535,42.363,18.38,63.428,10.997
			c7.613,9.33,16.094,17.945,25.297,25.713c-16.895,10.243-36.229,14.559-56.304,13.344c-22.798-1.38-44.732-9.408-65.407-18.943
			C238.059,166.442,249.092,156.106,259.988,145.641z M105.863,375.848c-11.975,9.825-26.322,18.251-42.076,19.461
			c-13.734,1.055-27.673-4.022-36.53-14.832c-4.05-4.942-6.767-11.028-7.077-17.455c-0.407-8.425,2.957-16.532,3.949-24.814
			c1.096-9.163-1.452-19.245-9.186-24.307c2.354-2.883,4.638-5.824,6.93-8.755c12.022,6.602,6.863,25.983,7.924,37.042
			c1.078,11.24,6.979,21.725,15.971,28.565c16.947,12.888,40.639,9.277,53.777-6.311c2.214,3.718,4.563,7.351,7.039,10.898
			C106.343,375.488,106.104,375.651,105.863,375.848z M130.385,445.303c-9.668,9.214-19.334,18.429-29,27.644
			c-8.931,8.513-17.533,18.313-27.527,25.586c-4.19,3.05-9.381,5.781-14.727,4.733c-3.997-0.783-7.818-3.338-8.607-7.271
			c15.426-14.342,29.649-30.074,44.28-45.224c13.59-14.072,27.543-28.035,40.329-42.879c6.026,5.429,12.467,10.402,19.232,14.621
			C145.953,429.565,138.291,437.766,130.385,445.303z M189.723,423.785c-18.852,0.053-36.586-13.48-50.309-26.719
			c9.77,5.121,20.062,9.052,31.241,11.647c8.957,2.08,18.14,3.351,27.325,3.777c5.677,0.264,11.787,0.422,17.748-0.079
			C208.367,418.754,199.723,423.757,189.723,423.785z M242.082,384.692c-5.722,6.278-11.305,12.777-17.217,18.918
			c-8.381,0.335-16.66,1.644-25.109,1.501c-9.463-0.159-18.877-1.262-28.12-3.297c-14.768-3.252-29.864-8.678-43.274-16.177
			c-12.908-14.43-23.78-31.304-30.576-49.37c-3.76-9.996-5.096-20.169-0.65-29.772c20.797,21.642,46.484,37.563,74.844,47.685
			c15.482,5.525,31.586,9.147,47.924,10.928c12.402,1.352,26.564,2.451,39.491,0.532C253.62,371.988,247.86,378.349,242.082,384.692
			z M295.176,326.263c-9.177,10.124-18.379,20.225-27.567,30.337c-7.612-0.09-15.243,1.062-22.864,1.194
			c-7.738,0.134-15.486-0.153-23.191-0.895c-15.873-1.528-31.563-5.087-46.619-10.32c-27.629-9.602-53.342-25.406-74.774-45.354
			c6.016-8.938,14.708-16.303,22.232-23.849c5.889-5.906,11.804-11.784,17.733-17.649c22.975,23.562,53.854,39.068,86.121,45.072
			c18.617,3.464,37.655,3.904,56.419,1.38c13.576-1.825,27.612-5.187,40.45-10.738C313.801,305.714,304.489,315.989,295.176,326.263
			z M348.203,267.767c-4.76,5.257-9.526,10.508-14.289,15.762c-16.802,6.027-33.291,11.716-51.084,14.159
			c-18.294,2.512-37.031,2.229-55.18-1.266c-31.045-5.977-59.453-20.554-83.925-40.251c10.924-10.778,21.907-21.495,32.966-32.134
			c1.514-1.456,3.04-2.899,4.559-4.35c49.675,38.36,120.98,44.405,178.166,20.589c8.413-3.503,16.865-7.785,24.895-12.722
			C372.178,240.872,360.285,254.424,348.203,267.767z M362.527,229.178c-13.938,6.103-28.281,10.753-43.24,13.595
			c-30.528,5.799-62.094,3.42-91.514-6.54c-14.918-5.05-29.016-12.256-42.479-20.407c12.129-11.53,24.389-22.942,36.647-34.36
			c22.402,11.362,46.023,20.73,71.325,22.518c21.67,1.531,44.955-2.872,62.787-15.737c9.581,7.322,19.848,13.756,30.665,19.155
			c2.454,1.225,4.944,2.379,7.45,3.502C384.11,217.871,373.922,224.19,362.527,229.178z M483.725,70.787
			c-3.959,22.198-8.631,44.27-14.018,66.165c-2.774,11.28-5.74,22.513-8.893,33.693c-2.776,9.838-5.09,20.277-9.033,29.728
			c-3.984,9.55-11.861,11.444-21.459,9.751c-8.912-1.572-17.745-4.773-26.117-8.138c-36.502-14.667-67.781-41.686-87.768-75.549
			c-10.061-17.045-17.221-35.513-21.156-54.915c-0.896-4.419-2.105-9.524-0.717-13.965c1.441-4.602,5.814-6.429,10.104-7.659
			c10.535-3.022,21.654-4.484,32.377-6.736c28.844-6.058,57.629-12.484,86.438-18.781c6.344-1.138,12.689-2.269,19.029-3.437
			c16.653-3.067,33.346-6.549,50.114-9.054C489.393,31.472,487.21,51.234,483.725,70.787z"/>
	</g>
</g>
<g>
</g>
<g>
</g>
<g>
</g>
<g>
</g>
<g>
</g>
<g>
</g>
<g>
</g>
<g>
</g>
<g>
</g>
<g>
</g>
<g>
</g>
<g>
</g>
<g>
</g>
<g>
</g>
<g>
</g>
</svg>
