<?xml version="1.0" ?><svg id="Layer_1" style="enable-background:new 0 0 91 91;" version="1.1" viewBox="0 0 91 91" xml:space="preserve" xmlns="http://www.w3.org/2000/svg" xmlns:xlink="http://www.w3.org/1999/xlink"><style type="text/css">
	.st0{fill:#3B6A75;}
</style><g><path class="st0" d="M78.4,64.1c2.8-11.8-1.2-23.6-10.1-31.8c-7.2-6.6-15.4-9.4-24.2-10.5c7.9-3.6,15.1-8.9,18-15.8   c0.8-1.9-0.6-5-3.1-4C47.9,6.3,38,14.7,25.6,16.1c-5.6,0.6-7.4,7-2.8,10.3c9.2,6.7,13,15.2,18.9,24.3c3.4,5.2,10.6,1.7,9.7-4.1   c-1.1-6.9-5.2-13.3-10.3-18.9c15.2,3.3,30.8,12.9,29.7,29.5c-1.3,19.9-32.7,20.8-42.4,7.1c-7.7-10.8-23.4,1.6-14.2,11   C31.4,93.2,71.9,92,78.4,64.1z"/></g></svg>