<?xml version="1.0" encoding="iso-8859-1"?>
<!-- Generator: Adobe Illustrator 19.0.0, SVG Export Plug-In . SVG Version: 6.00 Build 0)  -->
<svg version="1.1" id="Capa_1" xmlns="http://www.w3.org/2000/svg" xmlns:xlink="http://www.w3.org/1999/xlink" x="0px" y="0px"
	 viewBox="0 0 512 512" style="enable-background:new 0 0 512 512;" xml:space="preserve">
<g>
	<g>
		<path d="M409.699,273.013c0.176-47.496,0.792-95.044,0.792-142.553c0-28.009-0.214-56.005-0.86-83.968
			c-0.253-10.978,1.306-25.724-4.949-35.4c-6.64-10.27-19.888-9.903-30.681-10.153c-44.263-1.025-89.67-1.606-134.339,0.387
			c-22.641,1.01-45.258,2.675-67.775,5.274c-15.66,1.808-46.841-0.043-54.617,17.179c-4.588,10.16-3.667,23.035-4.182,33.899
			c-0.646,13.625-1.466,27.24-2.243,40.858c-1.61,28.234-3.266,56.466-4.562,84.716c-2.588,56.463-4.521,112.995-4.752,169.522
			c-0.114,28.244,0.203,56.479,1.358,84.701c0.554,13.512,0.522,27.376,2.495,40.772c1.643,11.159,6.936,20.578,17.453,25.48
			c11.622,5.418,25.488,6.496,38.124,7.252c13.42,0.803,26.909,0.753,40.348,0.874c28.297,0.255,56.6,0.187,84.894-0.286
			c28.29-0.474,56.591-1.253,84.853-2.609c11.231-0.539,22.26-2.347,29.413-11.912c6.408-8.568,7.548-19.711,8.154-30.063
			c1.864-31.866,0.596-63.994,0.714-95.91C409.458,338.387,409.579,305.7,409.699,273.013z M395.81,452.584
			c-0.215,10.422,0.357,22.451-3.705,32.303c-4.395,10.662-15.239,10.462-25.187,10.911c-13.791,0.623-27.586,1.152-41.384,1.588
			c-52.774,1.665-105.909,2.854-158.685,0.655c-11.83-0.493-24.561-1.134-35.776-5.286c-11.388-4.216-12.728-14.526-13.457-25.348
			c-1.785-26.469-2.841-52.987-3.619-79.503c-1.567-53.402-0.776-106.822,1.05-160.205c1.823-53.276,4.112-106.556,6.579-159.807
			c0.284-6.13,0.632-12.258,0.953-18.386c0.286-5.458,0.106-11.285,1.739-16.543c3.86-12.437,16.999-11.882,27.932-13.243
			c19.5-2.429,39.003-4.648,58.565-6.359c37.616-1.107,75.279-1.602,112.865-1.123c13.352,0.17,26.71,0.405,40.053,0.939
			c5.972,0.239,11.957,0.414,17.923,0.794c4.415,0.281,10.141,0.659,12.36,5.141c2.248,4.541,1.435,11.27,1.569,16.12
			c0.188,6.825,0.379,13.648,0.462,20.475c0.915,75.892,0.499,151.894,0.752,227.835c0,16.572,0.014,33.129,0.005,49.675
			C396.783,373.068,396.627,412.85,395.81,452.584z"/>
	</g>
</g>
<g>
	<g>
		<path d="M386.754,250.784c0.851-35.112,3.128-70.61,1.209-105.765c0.214-0.462,0.338-1.005,0.32-1.65
			c-0.493-17.557-1.505-35.083-2.723-52.603c-0.622-8.939-1.243-17.878-1.865-26.818c-0.581-8.36-0.58-16.919-1.631-25.227
			c-1.965-15.537-17.701-14.308-29.923-14.406c-8.325-0.067-16.655,0.18-24.96,0.758c-6.738,0.469-13.766,0.924-19.762,4.351
			c-6.501,3.715-9.346,10.855-17.229,12.359c-7.671,1.464-16.119,0.263-23.864-0.008c-8.765-0.306-17.544-0.496-26.303-0.926
			c-7.099-0.348-13.618-1.302-17.64-7.724c-3.486-5.566-6.944-7.693-13.624-7.136c-8.706,0.726-17.397,1.605-26.108,2.267
			c-12.393,0.941-28.865-0.487-39.2,7.708c-12.812,10.159-8.947,31.301-9.059,45.521c-0.158,19.858-0.971,39.703-2.38,59.511
			c-0.019,0.267-0.004,0.511,0.03,0.741c-0.33,4.914-0.575,9.834-0.743,14.764c-0.607,17.798-0.301,35.598-0.039,53.4
			c0.524,35.517,0.24,70.752-1.56,106.235c-1.031,20.337-1.813,40.64-2.302,60.998c-0.003,0.127,0.018,0.237,0.025,0.358
			c-0.859,11.511-1.36,23.016-1.162,34.632c0.25,14.607,0.018,30.616,4.251,44.745c3.983,13.296,13.358,21.31,26.874,24.102
			c16.429,3.394,33.599,4.501,50.326,5.228c34.953,1.52,69.965-0.419,104.877-2.066c16.528-0.78,33.723-0.345,50.098-2.793
			c13.414-2.005,21.394-11.201,23.178-24.398c1.083-8.007,0.435-16.143,0.161-24.184c-1.317-38.762-0.96-77.497-0.494-116.254
			C385.795,294.595,386.224,272.688,386.754,250.784z M376.7,250.784c-1.08,33.411-1.688,66.846,0.085,100.208
			c-0.663,29.263-0.179,58.634,0.04,87.887c0.085,11.259,1.212,27.747-12.165,31.942c-6.131,1.923-13.017,1.659-19.357,1.993
			c-8.178,0.432-16.356,0.855-24.534,1.27c-31.889,1.617-63.84,3.59-95.784,3.141c-16.25-0.229-32.504-1.093-48.646-3.013
			c-12.585-1.497-28.312-2.036-34.717-14.889c-2.944-5.907-3.877-12.78-4.484-19.276c-5.264-56.347,1.854-112.819,3.697-169.448
			c1.139-34.975-0.835-69.903-1.421-104.867c-0.166-9.904-0.097-19.809,0.067-29.713c0.077-4.673,0.387-9.472,0.47-14.26
			c0.911-9.986,1.685-19.985,2.272-29.997c0.441-7.532,0.791-15.069,1.048-22.609c0.225-6.566-0.543-14.156,1.912-20.389
			c4.917-12.489,23.503-11.626,34.456-12.653c7.359-0.689,14.723-1.293,22.091-1.882c3.213-0.257,9.364-1.966,12.181,0.124
			c2.039,1.513,2.946,5.097,4.733,7.044c8.399,9.156,24.097,7.611,35.256,8.107c7.593,0.338,15.187,0.682,22.781,1.013
			c6.561,0.286,13.427,0.693,19.717-1.584c5.658-2.048,8.879-6.215,13.168-10.137c5.557-5.082,13.47-5.444,20.606-5.911
			c7.313-0.479,14.641-0.708,21.969-0.695c5.298,0.01,17.482-1.83,21.106,3.259c2.327,3.269,1.722,9.24,1.979,13.028
			c0.281,4.124,0.488,8.25,0.702,12.377l1.388,26.818c0.952,18.393,2.069,36.766,3.766,55.106
			C378.236,178.661,377.862,214.847,376.7,250.784z"/>
	</g>
</g>
<g>
	<g>
		<path d="M365.795,141.935c-0.675-15.829-1.641-31.641-2.713-47.447c-0.466-6.872,0.009-14.812-2.449-21.343
			c-2.214-5.881-7.271-9.515-13.169-11.195c-5.498-1.566-11.45-1.515-17.105-1.758c-8.542-0.367-17.086-0.668-25.632-0.943
			c-15.779-0.507-31.56-0.898-47.348-0.97c-18.407-0.084-36.817,0.209-55.209,0.997c-8.537,0.366-17.069,0.838-25.594,1.429
			c-6.882,0.477-15.319,0.179-19.568,6.723c-4.159,6.405-2.232,15.919-2.216,23.093c0.019,8.542-0.148,17.088-0.208,25.63
			c-0.053,7.62-0.047,15.236-0.015,22.85c-0.664,10.634-1.313,21.269-1.947,31.908c-0.986,16.565-1.878,33.132-2.744,49.704
			l-1.144,21.869c-0.413,7.892-1.399,15.985-1.041,23.887c0.27,5.97,1.826,11.801,6.27,16.049c4.726,4.517,11.79,6.309,18.023,7.393
			c15.663,2.722,32.101,2.403,47.954,2.748c31.729,0.691,63.47,0.041,95.154-1.758c7.648-0.434,15.375-0.706,22.987-1.581
			c7.035-0.809,12.742-3.534,16.633-9.643c7.464-11.717,8.369-27.445,9.624-40.868C367.347,206.546,367.17,174.179,365.795,141.935z
			 M235.803,281.62c-13.607-0.162-27.212-0.565-40.805-1.201c1.798-8.683,3.113-17.488,5.021-26.152
			c2.284-10.368,4.863-20.671,7.734-30.893c2.589-9.217,4.601-17.999,11.831-24.74c5.144-4.796,10.473-9.399,15.761-14.045
			c6.516,20.017,13.822,39.778,27.026,56.492c2.309,2.923,6.62,0.862,7.633-2.015c6.469-18.37,11.71-37.047,15.94-56.044
			c4.188,4.496,8.687,8.723,13.121,12.945c3.021,2.877,7.147,5.777,9.108,9.534c2.268,4.344,3.163,9.887,4.374,14.594
			c5.004,19.445,7.985,39.301,9.03,59.344C293.028,281.264,264.408,281.96,235.803,281.62z M267.531,172.715
			c-17.987,5.612-37.023-4.97-43.887-22.017c-3.979-14.664-0.248-30.86,12.416-41.216c8.649-7.072,20.364-10.014,31.187-6.949
			c10.297,2.917,18.802,12.415,23.262,21.846C299.816,144.055,287.499,166.485,267.531,172.715z M277.001,180.569
			c-3.798,15.998-8.201,31.864-13.102,47.563c-9.849-14.14-15.945-30.535-21.621-46.773c6.601,2.703,13.858,3.861,21.306,2.941
			C268.315,183.716,272.816,182.425,277.001,180.569z M354.769,217.034c-0.702,13.944-1.271,28.385-4.254,42.063
			c-1.167,5.352-2.509,12.219-6.391,16.34c-2.334,2.477-6.452,3.318-10.679,3.622c-1.137-21.589-4.336-43.07-9.816-63.99
			c-1.247-4.758-2.364-9.707-4.411-14.198c-2.018-4.428-5.32-7.539-9.014-10.585c-6.991-5.766-14.011-11.9-21.613-16.965
			c12.662-10.688,19.611-27.619,15.915-45.049c-2.833-13.361-12.495-26.51-24.239-33.428c-12.699-7.481-28.446-6.465-41.123,0.555
			c-8.858,4.906-15.535,12.137-19.829,20.46c-4.99,7.927-7.509,17.391-6.352,27.329c1.569,13.479,9.395,25.675,20.336,33.289
			c-6.968,4.949-13.913,9.958-20.578,15.296c-8.335,6.676-11.306,15.1-14.226,25.045c-6.011,20.469-12.021,41.929-14.624,63.214
			c-10.377-0.426-23.279-2.044-24.665-12.168c-0.951-6.948,0.184-14.426,0.455-21.405c0.322-8.284,0.644-16.568,0.965-24.852
			c0.631-16.236,1.249-32.47,1.763-48.709c0.756-23.899,1.477-47.785,1.987-71.682c0.269-5.54,0.563-11.078,0.921-16.609
			c0.172-2.661-0.461-7.836,1.112-10.176c1.332-1.982,4.013-1.69,6.231-1.868c7.537-0.608,15.085-1.089,22.635-1.501
			c14.442-0.788,28.9-1.261,43.362-1.477c28.938-0.432,57.882,0.131,86.792,1.433c5.828,0.263,12.009-0.003,17.73,1.314
			c7.753,1.785,7.703,7.193,8.157,14.258c0.932,14.489,1.864,28.979,2.627,43.478C355.47,159.023,356.228,188.059,354.769,217.034z"
			/>
	</g>
</g>
<g>
	<g>
		<path d="M229.123,391.967c-2.736-10.141-9.597-19.598-19.366-23.894c-10.596-4.66-23.122-1.677-31.818,5.568
			c-4.276,3.562-7.857,8.299-10.552,13.622c-8.313,16.423-9.928,36.367,6.714,48.78C204.146,458.453,237.483,422.96,229.123,391.967
			z M204.509,431.657c-11.347,5.045-23.867,1.863-30.83-6.962c-7.091-12.013-3.547-29.143,6.036-39.578
			c1.064-1.159,2.22-2.235,3.443-3.218c3.104-2.136,6.533-3.867,10.126-5.128c3.358-0.819,6.896-0.872,10.449,0.117
			c7.378,2.054,12.887,8.603,15.515,15.587C224.682,406.918,219.139,425.152,204.509,431.657z"/>
	</g>
</g>
<g>
	<g>
		<path d="M345.932,391.967c-2.735-10.141-9.598-19.598-19.366-23.894c-10.596-4.66-23.122-1.677-31.818,5.568
			c-4.276,3.562-7.858,8.299-10.552,13.622c-8.313,16.423-9.929,36.367,6.713,48.78C320.955,458.453,354.291,422.96,345.932,391.967
			z M321.318,431.657c-11.347,5.045-23.866,1.863-30.83-6.962c-7.091-12.013-3.547-29.143,6.036-39.578
			c1.064-1.159,2.22-2.235,3.442-3.218c3.104-2.136,6.533-3.867,10.127-5.128c3.358-0.819,6.895-0.872,10.448,0.117
			c7.378,2.054,12.888,8.603,15.515,15.587C341.49,406.918,335.948,425.152,321.318,431.657z"/>
	</g>
</g>
<g>
	<g>
		<path d="M210.715,393.603c-5.95,7.437-12.075,14.762-17.86,22.333c-4.445-3.639-8.659-7.563-13.229-11.025
			c-2.888-2.188-5.383,2.236-3.546,4.595c4.181,5.369,9.655,9.993,14.755,14.471c1.429,1.255,4.007,1.67,5.381,0
			c6.963-8.466,13.362-17.41,19.996-26.133C218.595,394.71,213.198,390.499,210.715,393.603z"/>
	</g>
</g>
<g>
	<g>
		<path d="M327.175,415.066c-2.508-3.542-5.358-6.851-8.217-10.129c2.768-3.269,5.586-6.71,7.376-10.451
			c1.008-2.105-1.265-5.301-3.591-3.592c-3.217,2.364-5.973,5.373-8.684,8.366c-2.525-2.935-5.161-5.813-8.36-7.956
			c-2.507-1.679-4.929,1.509-3.816,3.816c1.711,3.548,4.369,6.678,6.937,9.748c-3.309,3.429-6.696,6.861-9.674,10.53
			c-3.092,3.808,1.687,8.818,5.452,5.452c3.284-2.934,6.305-6.336,9.19-9.754c2.307,2.993,4.606,6,7.117,8.808
			C323.883,423.234,329.816,418.796,327.175,415.066z"/>
	</g>
</g>
<g>
	<g>
		<path d="M301.498,311.75c-7.663,0.117-15.287-0.467-22.944-0.553c-2.172-0.024-4.35,0.02-6.53,0.093
			c-5.91-0.306-11.814-0.534-17.709-0.425c-6.649,0.123-13.275,0.412-19.893,0.784c-8.232-0.056-16.466-0.072-24.702-0.003
			c-4.887-0.041-4.891,7.551,0,7.592c8.236,0.068,16.47,0.052,24.702-0.004c6.618,0.371,13.244,0.661,19.893,0.784
			c5.834,0.108,11.679-0.114,17.528-0.415c1.906,0.07,3.811,0.117,5.713,0.119c7.987,0.007,15.948-0.71,23.942-0.589
			C306.249,319.205,306.257,311.678,301.498,311.75z"/>
	</g>
</g>
<g>
	<g>
		<path d="M324.401,337.834c-11.482,0.117-22.908-0.467-34.383-0.553c-3.255-0.024-6.519,0.02-9.786,0.093
			c-8.856-0.306-17.705-0.534-26.538-0.425c-9.964,0.123-19.893,0.412-29.811,0.784c-12.336-0.056-24.675-0.072-37.017-0.003
			c-7.323-0.041-7.33,7.551,0,7.592c12.343,0.07,24.681,0.053,37.018-0.003c9.917,0.371,19.846,0.661,29.81,0.784
			c8.743,0.108,17.502-0.114,26.267-0.415c2.857,0.069,5.712,0.116,8.562,0.118c11.969,0.007,23.898-0.71,35.878-0.589
			C331.521,345.289,331.532,337.762,324.401,337.834z"/>
	</g>
</g>
<g>
</g>
<g>
</g>
<g>
</g>
<g>
</g>
<g>
</g>
<g>
</g>
<g>
</g>
<g>
</g>
<g>
</g>
<g>
</g>
<g>
</g>
<g>
</g>
<g>
</g>
<g>
</g>
<g>
</g>
</svg>
