<?xml version="1.0" encoding="iso-8859-1"?>
<!-- Generator: Adobe Illustrator 19.0.0, SVG Export Plug-In . SVG Version: 6.00 Build 0)  -->
<svg version="1.1" id="Capa_1" xmlns="http://www.w3.org/2000/svg" xmlns:xlink="http://www.w3.org/1999/xlink" x="0px" y="0px"
	 viewBox="0 0 512 512" style="enable-background:new 0 0 512 512;" xml:space="preserve">
<g>
	<g>
		<path d="M392.359,81.699c-0.088-3.116-0.221-6.23-0.4-9.343c-0.622-10.83-1.923-22.033-7.531-31.319
			c-9.93-16.446-30.99-15.451-47.904-17.242c-22.514-2.384-45.067-4.401-67.653-5.969c-45.208-3.139-90.561-4.482-135.871-3.34
			c-8.606,0.217-17.21,0.523-25.81,0.924c-20.662,0.963-41.428,2.434-61.507,7.407c-16.56,4.1-30.817,11.856-37.604,28.231
			c-8.102,19.547-8.228,42.435-8.037,63.259c0.215,23.439,2.603,46.8,5.648,70.022c0.812,6.19,1.701,12.48,4.327,18.143
			c5.209,11.232,17.619,15.552,29.09,17.262c-9.942,15.877-22.166,29.923-36.033,42.658c-2.818,2.588-1.617,8.344,2.386,9.037
			c32.015,5.547,66.41-7.679,84.784-34.825c1.319-1.949,2.643-4.043,4.723-5.145c1.576-0.835,3.409-0.999,5.187-1.139
			c71.456-5.63,143.159,5.222,214.561-1.728c16.594-1.612,34.169-4.315,46.767-15.234c11.894-10.308,17.23-26.148,21.014-41.426
			C389.791,142.472,393.216,112.032,392.359,81.699z M378.366,102.925c-0.087,1.922-0.18,3.844-0.279,5.767
			c-1.115,21.639-3.099,43.331-8.914,64.181c-3.56,12.766-9.027,25.79-19.638,33.73c-10.767,8.057-24.946,9.536-38.363,10.442
			c-36.851,2.49-73.811,2.803-110.729,2.227c-34.972-0.542-69.4-2.601-104.186,0.732c-6.656,0.638-10.244,3.096-13.767,8.651
			c-3.042,4.797-6.439,9.176-10.506,13.155c-14.007,13.705-33.417,21.378-52.852,20.541c6.232-6.071,43.53-44.995,31.814-51.834
			c-1.967-1.148-4.305-1.424-6.57-1.666c-6.649-0.709-13.741-1.493-18.906-5.741c-6.583-5.414-8.073-14.734-9.11-23.195
			c-2.551-20.802-5.093-41.654-5.681-62.624c-0.55-19.61-0.889-41.957,6.786-60.378c5.988-14.37,19.421-19.958,33.796-22.827
			c34.293-6.845,69.456-8.045,104.425-8.01c66.689,0.067,133.373,4.556,199.47,13.429c4.786,0.642,9.793,1.397,13.668,4.277
			c5.25,3.903,7.225,10.783,8.289,17.238C379.389,74.835,379.002,88.939,378.366,102.925z"/>
	</g>
</g>
<g>
	<g>
		<path d="M511.958,397.693c-0.215-23.439-2.603-46.801-5.649-70.022c-0.812-6.19-1.701-12.48-4.327-18.143
			c-5.209-11.232-17.62-15.552-29.09-17.262c9.942-15.877,22.166-29.922,36.033-42.658c2.818-2.588,1.617-8.344-2.386-9.038
			c-32.015-5.547-66.41,7.679-84.784,34.825c-1.319,1.949-2.643,4.043-4.723,5.145c-1.576,0.835-3.409,0.999-5.187,1.139
			c-71.456,5.631-143.16-5.221-214.562,1.729c-16.593,1.612-34.169,4.315-46.767,15.234c-11.894,10.309-17.23,26.148-21.014,41.427
			c-7.295,29.46-10.72,59.9-9.863,90.233c0.088,3.116,0.221,6.23,0.4,9.343c0.622,10.83,1.923,22.033,7.531,31.319
			c9.93,16.446,30.99,15.451,47.904,17.242c22.514,2.384,45.067,4.401,67.653,5.969c45.209,3.138,90.562,4.481,135.872,3.34
			c8.606-0.217,17.21-0.523,25.809-0.924c20.663-0.963,41.429-2.435,61.507-7.407c16.561-4.101,30.817-11.857,37.605-28.232
			C512.024,441.405,512.149,418.517,511.958,397.693z M494.535,455.085c-5.988,14.37-19.422,19.958-33.796,22.827
			c-34.293,6.845-69.456,8.046-104.425,8.01c-66.689-0.067-133.373-4.556-199.47-13.429c-4.786-0.642-9.793-1.397-13.668-4.277
			c-5.25-3.903-7.225-10.784-8.289-17.238c-2.276-13.815-1.889-27.918-1.253-41.905c0.087-1.922,0.18-3.844,0.279-5.767
			c1.115-21.639,3.099-43.331,8.914-64.18c3.56-12.767,9.026-25.79,19.638-33.73c10.767-8.057,24.946-9.536,38.363-10.442
			c36.851-2.49,73.811-2.803,110.729-2.227c34.972,0.545,69.4,2.604,104.186-0.729c6.656-0.638,10.245-3.096,13.767-8.651
			c3.042-4.796,6.439-9.176,10.505-13.155c14.007-13.705,33.417-21.379,52.852-20.541c-6.232,6.071-43.529,44.995-31.814,51.833
			c1.967,1.148,4.305,1.425,6.569,1.666c6.649,0.709,13.741,1.493,18.906,5.741c6.583,5.414,8.072,14.734,9.11,23.195
			c2.551,20.803,5.093,41.654,5.681,62.624C501.87,414.317,502.21,436.664,494.535,455.085z"/>
	</g>
</g>
<g>
	<g>
		<path d="M293.765,76.238c-0.884-5.98-0.833-15.001-5.818-19.334c-4.848-4.214-13.117-3.166-19.038-3.305
			c-15.826-0.372-31.596,0.28-47.396,1.142c-3.859,0.21-7.718,0.423-11.576,0.639c-8.583-0.038-17.17,0.003-25.768,0.155
			c-28.2,0.497-57.074,0.641-85.055,4.444c-10.577,1.438-24.418,2.505-26.762,15.198c-2.309,12.506-0.101,25.758,0.773,38.297
			c0.997,14.311,2.08,28.625,2.862,42.95c0.362,6.633,0.711,13.268,1.105,19.899c0.35,5.881,0.96,11.933,6.383,15.427
			c4.338,2.794,9.648,2.87,14.631,2.971c7.102,0.143,14.205,0.228,21.307,0.391c14.561,0.334,29.125,0.567,43.69,0.699
			c28.78,0.261,57.549,0.524,86.33,0.219c7.105-0.075,14.209-0.175,21.313-0.298c5.785-0.101,12.501,0.538,17.73-2.435
			c4.456-2.534,6.498-6.913,7.309-11.808c1.184-7.141,1.603-14.527,1.993-21.747C299.286,131.841,297.853,103.873,293.765,76.238z
			 M217.798,77.938c10.315-0.277,20.653,0.001,30.974,0.005c0.09,3.128,1.4,6.157,3.723,8.468c1.678,1.669,3.786,2.902,6.033,3.649
			c1.974,0.657,6.331,0.361,7.61,1.641c1.902,1.904,1.41,7.809,1.574,10.291c0.27,4.092,0.478,8.189,0.642,12.287
			c0.301,7.516,0.432,15.038,0.398,22.559c-0.017,3.762-0.077,7.523-0.181,11.284c-0.036,1.297,0.435,3.933-0.169,5.128
			c0.726,0.583,0.632,0.827-0.281,0.731c-0.755,0.083-1.498,0.232-2.229,0.446c-4.724,1.302-8.966,4.504-11.792,8.468
			c-0.899,1.262-1.603,2.533-2.237,3.945c-0.355,0.79-0.814,3.138-1.332,3.639c-1.183,1.146-6.721,0.312-8.597,0.282
			c-8.419-0.135-16.828-0.508-25.229-1.064c-0.081-0.005-0.149,0.008-0.226,0.007C217.088,139.118,217.44,108.528,217.798,77.938z
			 M152.39,169.597c-8.845,0.271-17.69,0.542-26.535,0.814c-3.171,0.097-9.047,1.332-11.12-0.606
			c-0.737-0.689-1.158-2.332-1.801-3.196c-0.879-1.179-1.848-2.154-3.006-3.048c-2.217-1.713-4.812-2.814-7.589-3.177
			c-0.527-0.069-3.568,0.217-3.852-0.022c-0.724-0.609-0.678-5.178-0.788-6.252c-0.967-9.381-1.643-18.791-2.024-28.214
			c-0.184-4.534-0.3-9.071-0.35-13.608c-0.029-2.63-1.195-11.291,0.833-13.131c0.852-0.772,3.511-0.663,4.731-0.993
			c1.929-0.522,3.899-1.198,5.653-2.176c2.535-1.413,4.692-3.412,6.136-5.939c1.466-2.565,1.248-4.804,1.649-7.406
			c0.335-0.05,0.763-0.129,1.306-0.246c1.402-0.112,2.805-0.221,4.207-0.326c2.104-0.159,4.208-0.31,6.313-0.454
			c9.38-0.643,18.753-1.35,28.132-1.975C152.318,109.504,151.558,139.663,152.39,169.597z M154.545,75.772
			c-10.888-0.411-21.697-0.559-32.601-0.309c-6.558,0.15-14.519-1.251-14.213,7.466c0.255,7.285-6.312,8.261-12,9.731
			c-2.449,0.633-4.405,1.323-5.434,3.887c-1.549,3.862-0.562,9.561-0.639,13.646c-0.099,5.234-0.106,10.469-0.026,15.702
			c0.167,10.802,0.659,21.622,1.634,32.383c0.247,2.731-0.038,6.419,2.453,8.225c3.203,2.322,7.423-0.369,11.025,1.437
			c3.69,1.85,3.642,6.094,6.771,8.067c2.763,1.743,7.097,0.71,10.085,0.662c10.334-0.165,20.67-0.249,31.004-0.362
			c0.108,3.025,0.228,6.048,0.37,9.067c-15.459-0.277-30.911-0.743-46.346-1.459c-2.841-0.132-5.682-0.26-8.522-0.407
			c-1.99-0.103-5.964,0.184-7.744-1.055c-1.927-1.341-1.754-3.963-1.98-6.132c-0.363-3.488-0.667-6.982-0.998-10.473
			c-1.191-12.561-2.201-25.127-3.14-37.709c-0.92-12.32-2.076-24.686-2.041-37.051c0.012-4.276-0.82-11.117,1.869-14.754
			c2.855-3.861,11.671-4.26,16.053-5.023c13.801-2.403,27.97-2.958,41.933-3.834c4.381-0.275,8.764-0.519,13.147-0.757
			C154.972,69.735,154.755,72.752,154.545,75.772z M205.171,185.647c-13.791,0.081-27.585,0.062-41.374-0.107
			c-0.704-39.701-1.276-79.306-0.866-119.021c12.529-0.215,25.057-0.488,37.583-0.89c3.193-0.103,6.394-0.22,9.598-0.341
			C208.359,105.403,206.475,145.514,205.171,185.647z M285.017,172.181c-0.195,2.798-0.157,5.821-0.805,8.55
			c-0.729,3.073-2.529,3.362-5.474,3.658c-6.131,0.616-12.488,0.34-18.647,0.472c-14.633,0.314-29.279,0.559-43.93,0.702
			c0.069-3.031,0.117-6.061,0.182-9.091c0.121,0.02,0.234,0.053,0.363,0.062c8.4,0.602,16.81,1.022,25.229,1.205
			c5.105,0.111,12.173,1.64,14.603-4.09c1.482-3.494,1.88-6.213,4.884-8.918c2.49-2.243,5.379-3.264,8.56-4.005
			c6.42-1.495,5.322-6.909,5.378-12.604c0.158-16.09-0.523-32.14-1.803-48.177c-0.343-4.298,0.101-11.747-3.971-14.507
			c-1.905-1.291-4.505-0.755-6.635-1.05c-4.598-0.636-9.013-3.789-7.045-8.924c0.807-2.105-1.24-4.22-3.241-4.254
			c-11.689-0.197-23.221,0.897-34.811,2.073c0.033-2.764,0.064-5.528,0.098-8.292c19.055-0.71,38.221-1.235,57.127,0.738
			c3.455,0.361,4.328-0.009,4.994,3.567c0.57,3.063,1.065,6.143,1.544,9.221c0.979,6.298,1.79,12.62,2.445,18.959
			c1.282,12.404,2.004,24.867,2.147,37.337C286.352,147.279,285.885,159.745,285.017,172.181z"/>
	</g>
</g>
<g>
	<g>
		<path d="M198.539,110.519c-5.078-4.313-13.062-5.137-19.007-2.231c-8.216,4.016-16.84,20.696-10.21,28.81
			c0.449,0.841,0.978,1.671,1.592,2.484c9.966,13.194,27.985,3.481,32.057-9.457C205.096,123.368,204.184,115.314,198.539,110.519z
			 M196.359,129.074c-2.59,7.564-13.346,14.504-19.829,8.39c-0.082-0.388-0.278-0.75-0.628-1.035
			c-0.382-0.31-0.721-0.64-1.036-0.981c-0.153-0.236-0.306-0.475-0.451-0.732c-1.916-3.406-2.161-6.983-1.267-10.297
			c1.405-4.214,4.604-8.104,8.284-9.848C191.733,109.687,199.745,119.183,196.359,129.074z"/>
	</g>
</g>
<g>
	<g>
		<path d="M436.084,442.561c-0.003-0.013-0.008-0.025-0.013-0.037c-0.103-0.96-0.485-1.889-1.165-2.694
			c-2.239-4.728-5.367-8.831-9.4-12.314c-4.242-3.664-12.154,1.253-8.351,6.443c1.171,1.599,2.386,3.169,3.622,4.722
			c-41.81,0.41-83.374,2.998-125.151,5.273c-22.325,1.215-44.721,2.232-67.081,1.627c-5.4-0.146-10.849-0.206-16.227-0.725
			c-3.518-0.339-3.961-0.128-4.336-3.753c-0.299-2.886-0.372-5.821-0.529-8.717c-0.557-10.268-0.851-20.555-1.116-30.836
			c0.043-8.17,0.017-16.341-0.036-24.508c-0.092-14.345,0.699-28.907,0.494-43.329c1.246,1.52,2.454,3.095,3.645,4.755
			c3.53,4.918,11.678,0.414,8.269-4.833c-3.776-5.811-7.813-11.915-13.751-15.72c-1.002-0.642-2.151-0.775-3.244-0.562
			c-0.622-0.03-1.252,0.1-1.748,0.39c-2.952,1.728-4.428,5.393-6.117,8.242c-2.2,3.709-4.281,7.492-6.529,11.171
			c-3.037,4.968,4.448,9.125,7.699,4.5c1.116-1.587,2.206-3.194,3.304-4.793c-0.636,13.381-0.266,26.958-0.331,40.18
			c-0.047,9.402,0.091,18.809,0.479,28.204c-0.128,8.684-0.24,17.369-0.447,26.051c-0.197,8.33-3.025,20.661,7.814,23.167
			c4.776,1.104,10.265,0.485,15.133,0.572c6.492,0.116,12.981,0.086,19.473,0.069c11.906-0.032,23.805-0.254,35.704-0.693
			c24.185-0.893,48.336-2.48,72.503-3.737c23.121-1.203,46.492-2.446,69.704-1.839c-1.798,1.794-3.592,3.591-5.388,5.387
			c-5.048,5.05,3.047,13.068,7.808,7.808c3.886-4.293,7.765-8.594,11.655-12.884C435.046,448.339,437.105,445.231,436.084,442.561z"
			/>
	</g>
</g>
<g>
	<g>
		<path d="M260.258,425.16c-0.284-11.368-0.767-22.725-1.313-34.082c-0.26-5.42-0.101-11.109-0.882-16.478
			c-0.404-2.773-1.077-5.079-3.957-6.159c-3.221-1.207-7.915-0.406-11.268-0.299c-3.984,0.127-10.251-0.582-13.902,1.156
			c-3.352,1.596-2.718,5.136-2.789,8.38c-0.112,5.064-0.223,10.129-0.334,15.193c-0.076,3.455-0.152,6.911-0.228,10.366
			c-0.352,3.961-0.545,7.935-0.783,11.907c-0.248,4.156-1.953,10.619-0.448,14.585c0.942,2.482,2.989,3.103,5.35,3.509
			c5.405,0.931,11.092,1.13,16.561,1.487c3.403,0.222,8.915,1.644,11.95-0.55C261.026,432.143,260.333,428.186,260.258,425.16z
			 M251.271,427.126c-0.274,0.14-0.566,0.223-0.867,0.268c-0.552,0.082-1.136,0.037-1.697-0.012
			c-5.279-0.461-10.559-0.912-15.836-1.394c-0.351-0.032-0.729-0.076-0.988-0.315c-0.316-0.292-0.349-0.772-0.36-1.202
			c-0.213-8.547-0.153-17.1,0.182-25.643c0.165-4.205,0.595-8.426,0.662-12.629c0.018-1.127-0.643-10.685,0.318-10.925
			c5.442-1.363,11.654-0.703,17.222-0.8c0.343-0.006,0.716-0.003,0.987,0.208c0.248,0.193,0.352,0.514,0.428,0.82
			c0.288,1.164,0.352,2.37,0.413,3.567c0.756,14.827,1.051,29.687,1.17,44.516C252.916,424.955,252.49,426.501,251.271,427.126z"/>
	</g>
</g>
<g>
	<g>
		<path d="M313.045,413.959c-0.071-6.249-0.142-12.499-0.191-18.748c-0.094-12.118-0.217-24.242-0.912-36.344
			c-0.326-5.692-0.785-11.376-1.414-17.043c-0.407-3.671-0.63-7.694-4.103-9.855c-3.188-1.984-7.604-1.398-11.139-1.354
			c-6.153,0.078-12.301,0.301-18.452,0.398c-3.076,0.048-7.271-0.468-9.115,2.741c-2.211,3.849-0.579,11.065-0.47,15.291
			c0.493,19.024,0.958,38.084,1.975,57.103c-0.042,1.321-0.079,2.641-0.124,3.963c-0.205,6.02-1.048,12.749-0.349,18.733
			c0.301,2.579,1.131,4.515,3.795,5.364c4.604,1.467,11.596,0.126,16.37,0.098c5.561-0.033,11.14,0.064,16.698-0.112
			c3.815-0.121,6.848-0.763,7.546-4.953C313.955,424.468,313.101,418.809,313.045,413.959z M305.38,422.776
			c-0.009,0.947-0.043,1.973-0.635,2.713c-0.797,0.996-2.254,1.079-3.529,1.079c-3.753,0.001-7.505,0.002-11.258,0.003
			c-3.429,0.001-6.858,0.002-10.288,0.003c-0.711,0-1.452-0.007-2.086-0.328c-1.435-0.727-1.681-2.636-1.75-4.243
			c-0.318-7.439-1.231-14.938-1.315-22.374c-0.08-7.119,0.084-14.302,0.084-21.44c-0.028-9.355-0.082-18.709-0.178-28.064
			c-0.02-1.945,0.148-3.996-0.058-5.929c-0.89-8.332,7.735-6.584,13.32-6.751c3.594-0.108,9.873-1.37,13.285-0.288
			c4.43,1.405,3.524,9.332,3.785,13.18c0.602,8.885,0.829,17.79,0.895,26.694C305.765,392.279,305.517,407.529,305.38,422.776z"/>
	</g>
</g>
<g>
	<g>
		<path d="M367.974,382.655c-0.111-5.802-0.353-11.63-0.87-17.411c-0.273-3.055-0.354-6.249-3.125-8.152
			c-2.951-2.028-7.086-1.25-10.412-1.08c-5.446,0.278-10.891,0.584-16.338,0.834c-3.721,0.171-9.677-0.993-13.012,1.048
			c-2.998,1.835-2.43,5.559-2.252,8.504c0.619,10.249,1.294,20.481,2.228,30.685c0.013,10.232,0.03,20.457-0.448,30.695
			c-0.102,2.178,1.821,3.586,3.774,3.774c10.351,0.997,21.12,1.768,31.5,0.734c9.077-0.905,7.812-9.832,8.159-16.918
			C367.712,404.472,368.184,393.567,367.974,382.655z M360.315,408.828c-0.337,5.023-0.757,10.039-1.151,15.058
			c-0.018,0.234-0.048,0.493-0.223,0.65c-0.164,0.148-0.406,0.16-0.627,0.165c-8.867,0.176-17.7-0.389-26.554-0.389
			c-0.125-0.006-0.262-0.016-0.355-0.099c-0.117-0.104-0.124-0.281-0.123-0.438c0.047-6.978-0.363-13.95-0.363-20.922
			c-0.214-7.485-0.528-14.97-0.878-22.464c-0.139-2.987-0.273-5.974-0.401-8.962c-0.128-2.968-1.735-8.416,3.128-7.984
			c4.688,0.416,9.528-0.173,14.263-0.466c3.953-0.245,7.653-1.096,11.666-0.748c0.524,0.045,1.096,0.127,1.448,0.518
			c0.305,0.339,0.364,0.826,0.408,1.28C361.985,378.916,361.308,393.933,360.315,408.828z"/>
	</g>
</g>
<g>
	<g>
		<path d="M414.849,396.746c0.354-21.226,0.696-42.451,1.163-63.675c0.059-2.701,0.782-6.484-1.339-8.659
			c-2.143-2.197-6.883-2.138-9.694-2.416c-9.685-0.956-18.979,0.535-28.441,2.469c-1.577,0.323-2.679,2.006-2.695,3.54
			c-0.303,28.415,2.412,56.86,3.235,85.297c-0.255,4.429-0.893,9.13-0.485,13.471c0.725,7.72,10.55,5.529,16.052,5.049
			c4.421-0.385,8.863-0.948,13.21-1.852c3.146-0.654,6.772-1.087,8.154-4.379c1.573-3.75,0.518-9.492,0.584-13.475
			C414.679,406.993,414.764,401.87,414.849,396.746z M409.81,333.924c-0.06,0.464-0.115,0.928-0.167,1.393
			c-0.939,8.37-0.706,16.871-0.927,25.279c-0.24,9.123-0.5,18.246-0.747,27.369c-0.224,8.907-0.495,17.813-0.718,26.72
			c-0.06,2.381-0.114,4.8,0.502,7.101c-1.135,0.585-2.423,0.789-3.687,0.974c-3.89,0.567-7.799,0.995-11.715,1.335
			c-2.091,0.182-7.158,1.655-8.207-0.983c-1.088-2.742-0.017-6.927-0.158-9.876c-0.211-4.394-0.368-8.79-0.472-13.188
			c-0.311-13.184-0.097-26.392-0.097-39.578c-0.127-5.485-0.358-10.968-0.729-16.443c-0.185-2.731-0.405-5.459-0.663-8.184
			c-0.354-3.718-0.355-6.24,3.991-6.704c5.695-0.608,11.398-1.217,17.124-1.363c1.24-0.032,2.502-0.039,3.692,0.313
			c1.189,0.352,2.314,1.117,2.813,2.253C410.132,331.451,409.965,332.723,409.81,333.924z"/>
	</g>
</g>
<g>
</g>
<g>
</g>
<g>
</g>
<g>
</g>
<g>
</g>
<g>
</g>
<g>
</g>
<g>
</g>
<g>
</g>
<g>
</g>
<g>
</g>
<g>
</g>
<g>
</g>
<g>
</g>
<g>
</g>
</svg>
