<?xml version="1.0" encoding="iso-8859-1"?>
<!-- Generator: Adobe Illustrator 19.0.0, SVG Export Plug-In . SVG Version: 6.00 Build 0)  -->
<svg version="1.1" id="Capa_1" xmlns="http://www.w3.org/2000/svg" xmlns:xlink="http://www.w3.org/1999/xlink" x="0px" y="0px"
	 viewBox="0 0 512.001 512.001" style="enable-background:new 0 0 512.001 512.001;" xml:space="preserve">
<g>
	<g>
		<path d="M364.56,219.389c-0.041-0.374-0.125-0.762-0.257-1.166c-7.923-24.212-15.551-48.506-23.139-72.825
			c-1.605-5.144-2.963-10.406-6.527-14.6c-3.444-4.053-8.202-7.055-12.42-10.231c-8.651-6.514-17.302-13.655-26.717-19.176
			c4.992-7.126,8.452-15.498,9.948-24.07c0.018-0.101,0.025-0.199,0.037-0.298c5.335-0.858,10.403-4.346,13.289-9.064
			c5.19-8.485,5.176-19.58,1.589-28.64c-1.596-4.031-3.854-7.633-6.693-10.906c-3.86-4.452-9.124-7.012-12.98-11.437
			c-13.78-15.808-41.29-23.568-59.177-9.98c-2.109,1.603-3.984,3.384-5.755,5.345c-1.618,1.792-3.092,4.585-4.87,6.149
			c-2.018,1.774-5.219,2.113-7.622,3.16c-2.258,0.983-4.322,2.24-6.303,3.703c-7.592,5.607-13.101,13.824-15.228,23.036
			c-2.006,8.691-1.764,20.473,7.37,25.134c0.571,0.291,1.153,0.528,1.743,0.717c0.587,11.562,5.176,22.275,12.498,30.603
			c-10.036,3.33-20.222,6.728-29.53,11.631c-4.972,2.619-7.259,7.455-9.857,12.21c-3.231,5.914-6.173,11.981-8.961,18.115
			c-10.699,23.536-18.921,48.07-27.075,72.572c-0.308,0.926-0.347,1.771-0.192,2.524c-5.619,2.818-9.449,7.806-10.485,14.518
			c-1.102,7.135,0.273,16.339,4.519,22.332c4.278,6.038,12.849,6.796,20.382,7.066c-0.197,17.801-1.096,35.511-0.414,53.351
			c0.744,19.489,2.815,38.9,5.652,58.19c2.794,18.994,6.523,37.838,10.547,56.606c2.013,9.39,4.109,18.761,6.229,28.127
			c0.895,3.957,1.445,8.628,2.907,12.736c-1.542,0.043-3.075,0.13-4.593,0.277c-9.275,0.896-19.812,6.71-19.314,17.431
			c0.492,10.59,11.06,15.084,20.1,16.196c12.614,1.553,25.378,2.246,38.072,2.748c25.386,1.004,50.735,0.339,76.123-0.054
			c10.813-0.167,24.062,1.784,34.054-3.335c7.712-3.952,12.918-13.317,8.979-21.684c-3.639-7.729-11.022-9.956-18.715-10.421
			c0.038-0.063,0.079-0.122,0.117-0.186c3.819-6.535,4.752-14.388,5.96-21.718c3.19-19.357,5.641-38.838,7.668-58.349
			c2.253-21.689,4.259-43.404,6.352-65.108c2.03-21.057,4.598-42.15,5.984-63.264c7.182-0.426,14.567-1.605,19.748-6.536
			C377.976,250.943,378.203,226.567,364.56,219.389z M210.074,63.683c-3.681-5.978-1.568-14.13,1.628-19.781
			c3.308-5.848,8.276-10.315,14.32-13.204c2.687-1.284,5.782-1.782,8.354-3.249c3.294-1.878,4.649-5.469,7.078-8.228
			c11.51-13.072,30.144-9.864,43.455-1.498c3.21,2.017,5.185,4.6,7.823,7.212c2.866,2.837,6.546,3.578,9.82,5.716
			c5.721,3.736,9.405,10.234,10.558,16.889c1.138,6.567-0.813,20.491-10.15,20.139c-8.696-0.328-11.215-18.21-11.802-24.656
			c-0.237-2.605-2.444-4.751-5.21-3.969c-15.875,4.488-33.05,14.008-47.365,0.872c-2.795-2.565-8.058-1.765-8.943,2.361
			c-1.415,6.597-3.463,16.252-8.769,21.633C217.293,67.123,213.136,68.655,210.074,63.683z M218.133,74.296
			c1.674-0.457,3.288-1.205,4.753-2.179c0.447-0.298,0.863-0.619,1.264-0.95c6.576-3.748,10.681-10.961,13.478-18.626
			c13.607,7.654,32.036,4.031,45.899-2.866c1.126,8.862,3.839,18.838,10.304,24.237c0.633,0.529,1.29,0.981,1.961,1.377
			c-4.156,19.631-18.493,40.03-40.926,36.799C235.437,109.29,220.995,93.181,218.133,74.296z M181.945,154.184
			c2.292-5.308,4.727-10.551,7.275-15.74c2.24-4.56,4.512-11.762,9.001-14.436c5.209-3.103,11.294-5.142,16.714-7.914
			c4.278-2.187,8.453-4.601,12.628-6.996c7.099,6.368,16.043,10.776,26.052,12.229c14.723,2.137,27.598-3.886,36.937-13.848
			c6.76,6.854,14.609,12.789,22.057,18.787c4.155,3.345,8.884,6.504,12.535,10.419c3.993,4.282,5.181,11.128,6.972,16.559
			c6.815,20.661,13.563,41.335,20.129,62.075c-7.363-1.48-15.185-1.827-22.209-2.17c-0.268-0.013-0.536-0.018-0.805-0.031
			c3.181-10.52,5.345-21.494,8.269-32.061c1.058-3.824,0.627-6.171-2.114-9.079c-2.668-2.83-5.706-5.353-8.967-7.507
			c0.846-1.502,1.404-3.051,1.501-4.613c0.484-7.811-7.555-14.618-13.233-18.743c-2.896-2.104-6.14-3.976-9.535-5.568
			c-1.919-1.127-3.899-2.156-5.945-3.067c-6.429-2.863-15.858-6.841-21.938-1.149c-13.058,12.226,8.078,30.331,16.692,37.421
			c5.087,4.187,12.534,11.989,19.514,7.649c0.293-0.182,0.599-0.378,0.91-0.579c2.598,1.485,3.962,3.37,3.472,6.942
			c-0.477,3.48-1.521,6.992-2.388,10.391c-1.667,6.535-4.26,12.9-5.765,19.443c-2.537-0.026-5.075-0.035-7.612-0.04
			c0.857-3.837,1.711-7.675,2.692-11.481c0.6-2.326-1.152-4.878-3.662-4.807c-12.079,0.345-25.073-0.197-36.948,2.57
			c-0.067-0.473-0.134-0.945-0.197-1.417c3.746-0.043,7.236-0.772,8.586-3.484c1.24-2.489,0.739-5.992,0.707-8.685
			c-0.05-4.186-0.325-8.387-0.771-12.548c-0.642-5.985-1.724-12.53-6.76-16.466c-4.482-3.502-10.413-3.036-14.952,0.096
			c-7.102,4.901-10.169,13.594-10.038,22.135c-0.89,4.371-1.093,8.985,0.173,12.933c1.354,4.222,4.754,5.069,8.46,5.263
			c-0.074,0.514-0.132,1.038-0.19,1.56c-6.615-0.254-13.239-0.226-19.858-0.282c-5.886-0.049-12.808-1.28-18.574-0.188
			c-5.168,0.979-5.906,4.752-4.836,8.898c-0.243,3.038-0.53,6.248-0.268,9.276c-2.797,0.079-5.595,0.152-8.391,0.253
			c-1.383-7.038-3.061-14.001-4.121-21.109c-0.678-4.544-1.91-7.662,1.182-11.27c1.936-2.26,4.393-4.104,6.912-5.718
			c1.531,0.369,3.127,0.422,4.771,0.042c3.916-0.906,7.305-4.128,10.477-6.395l12.144-8.68c6.071-4.339,12.793-8.794,13.544-16.905
			c0.611-6.6-2.152-15.912-8.912-18.521c-8.056-3.108-16.424,3.919-22.412,8.385c-4.354,3.248-8.515,6.714-12.498,10.377
			c-0.824,0.603-1.658,1.193-2.477,1.802c-2.986,2.221-7.356,4.621-9.364,7.859c-2.078,3.351-0.543,6.877,1.275,9.93
			c0.226,0.38,0.467,0.769,0.719,1.163c-6.543,4.6-13.182,9.986-13.703,18.389c-0.637,10.27,0.236,21.278,1.896,31.573
			c-5.972,0.327-12.02,0.781-17.899,1.755C165.797,197.063,172.862,175.22,181.945,154.184z M323.735,175.88
			c-1.207-1.422-2.803-2.567-4.532-3.516c1.216-0.975,2.419-2.035,3.527-3.156c1.926,1.906,3.835,3.827,5.673,5.823
			c2.047,2.223,2.639,2.211,1.931,5.108c-0.564,2.308-1.241,4.59-1.873,6.88c-2.36,8.551-5.343,17.13-7.36,25.79
			c-1.159-0.034-2.319-0.052-3.479-0.079c3.318-8.595,5.008-18.269,6.584-27.212C324.78,182.273,326.075,178.636,323.735,175.88z
			 M317.974,162.63c-1.49,2.026-4.046,3.746-5.974,5.381c-3.162,2.682-4.748,1.54-7.809-0.6c-2.732-1.91-5.372-3.951-7.912-6.109
			c-4.113-3.494-8.11-7.269-11.603-11.391c-3.104-3.663-7.764-14.088,1.239-13.95c5.559,0.085,11.773,3.398,16.571,5.898
			c2.48,1.292,4.845,2.735,7.114,4.316c2.585,2.087,5.015,4.405,7.26,6.982C319.618,156.324,320.589,159.072,317.974,162.63z
			 M296.203,204.041c-0.749,2.849-1.531,5.69-2.305,8.533c-0.603,0.003-1.206,0.002-1.809,0.005
			c-8.684,0.055-17.391,0.249-26.099,0.59c-0.197-3.214-0.645-6.426-1.122-9.634C275.052,205.156,285.831,204.468,296.203,204.041z
			 M258.703,213.496c-0.943,0.046-1.886,0.082-2.829,0.132c-0.162-5.428-0.21-11.4-1.13-16.821c1.254,0.083,2.803,0.257,4.461,0.401
			C259.016,202.628,258.492,208.098,258.703,213.496z M258.682,189.356c-2.765,0.005-6.955,0.662-9.62-0.061
			c-0.546-0.148-0.997-0.451-1.373-0.868c-0.91-4.914-0.934-9.88,0.317-14.755c1.212-4.721,4.591-12.983,10.426-13.059
			c6.966-0.09,7.369,8.848,7.662,14.019c0.146,2.574,0.17,5.145,0.104,7.723c-0.042,1.65,0.272,4.838-0.166,7.001
			C263.62,189.58,261.04,189.352,258.682,189.356z M248.717,214.048c-5.965,0.38-11.925,0.831-17.87,1.382
			c-5.897,0.056-11.793,0.155-17.689,0.292c-0.167-0.608-0.34-1.208-0.519-1.802c-0.141-2.416-0.272-4.923,0.139-7.023
			c-0.04-0.625-0.021-1.248,0.055-1.869c1.375-0.012,2.751-0.024,4.126-0.036c2.064-0.014,4.125-0.013,6.189,0.016
			c8.532,0.118,17.073,0.434,25.606,0.338C248.688,208.298,248.723,211.248,248.717,214.048z M185.474,188.198
			c0.544,9.32,1.712,19.036,3.314,28.339c-1.43,0.063-2.861,0.115-4.29,0.184c-1.449-8.826-2.864-17.564-3.333-26.531
			c-0.286-5.482,0.616-8.404,4.462-12.426c2.016-2.108,4.152-4.08,6.372-5.96c0.974,1.104,2.035,2.149,3.166,3.072
			C190.035,177.95,185.123,182.188,185.474,188.198z M193.411,160.726c-0.323-2.737,4.699-5.879,6.43-7.394
			c2.454-2.149,4.945-4.253,7.482-6.303c3.082-2.489,6.232-4.879,9.417-7.221c1.988-1.262,3.998-2.489,6.054-3.646
			c2.844-1.601,6.602-3.622,9.513-0.935c2.171,2.004,3.123,6.464,3.1,9.323c-0.056,6.991-7.622,10.865-12.578,14.472
			c-4.918,3.578-9.783,7.938-15.062,10.95c-3.957,2.257-6.638,0.621-9.436-2.464C196.864,165.89,193.68,163.004,193.411,160.726z
			 M323.238,486.757c2.862,0.431,7.12,1.79,7.635,5.193c0.573,3.783-3.753,6.664-6.782,7.662
			c-8.389,2.765-18.937,1.751-27.678,1.932c-19.112,0.395-38.263,0.385-57.372-0.143c-9.377-0.259-18.751-0.673-28.111-1.303
			c-9.459-0.637-19.64-0.718-28.9-2.863c-2.971-0.688-8.483-2.563-6.81-6.618c1.757-4.258,8.202-4.21,11.995-4.363
			c3.908-0.159,7.818-0.424,11.724-0.775c6.326,1.916,13.56,2.155,19.813,2.521c9.47,0.553,18.956,0.975,28.437,1.293
			c18.599,0.625,37.852,1.16,56.296-1.764c1.472-0.233,2.907-0.557,4.293-0.973C313.012,486.224,318.278,486.009,323.238,486.757z
			 M324.839,369.893c-1.773,17.908-3.587,35.818-5.748,53.684c-1.093,9.039-2.312,18.061-3.713,27.057
			c-0.964,6.19-1.358,13.913-4.952,19.28c-4.293,6.411-14.521,5.732-21.35,6.175c-8.836,0.574-17.694,0.733-26.547,0.649
			c-17.361-0.165-35.43-0.117-52.648-2.475c-2.3-0.315-8.429-0.597-10.07-2.359c-0.735-0.79-0.868-3.264-1.1-4.241
			c-0.555-2.334-1.102-4.669-1.652-7.004c-2.043-8.676-4.069-17.356-6.031-26.051c-3.922-17.381-7.526-34.823-10.633-52.369
			c-3.521-19.884-5.849-39.838-7.542-59.953c-1.572-18.675-3.351-37.501-4.31-56.238c45.626,2.42,91.591,2.087,137.267,2.051
			c9.739-0.007,19.49,0.034,29.228-0.264C330.671,301.703,328.202,335.921,324.839,369.893z M362.532,248.729
			c-3.138,8.272-13.426,7.566-20.797,7.977c-9.879,0.55-19.782,0.574-29.673,0.644c-39.592,0.279-79.188,0.044-118.774-0.706
			c-9.448-0.179-18.915-0.252-28.35-0.826c-3.902-0.238-10.725,0.28-13.931-2.08c-2.664-1.961-3.422-7.161-3.692-10.324
			c-0.262-3.064-0.135-6.569,1.511-9.275c2.11-3.47,6.343-4.12,10.044-4.765c9.671-1.684,19.541-2.242,29.334-2.686
			c22.191-1.006,44.422-1.513,66.63-1.979c19.74-0.414,39.523-1.989,59.268-2.024c5.652,0.251,11.298,0.572,16.937,1
			c4.838,0.367,9.666,0.889,14.441,1.766c4.344,0.799,9.843,1.534,13.7,3.818C364.721,232.552,364.57,243.357,362.532,248.729z"/>
	</g>
</g>
<g>
	<g>
		<path d="M261.985,311.223c-13.771-1.51-26.651,5.93-35.103,16.363c-5.213,6.434-9.815,14.167-11.811,22.367
			c-3.355,11.221-3.046,23.755,2.762,34.122c5.957,10.633,17.863,17.089,29.532,19.529c24.02,5.023,46.695-16.364,50.408-39.197
			C301.474,341.64,286.673,313.93,261.985,311.223z M255.433,396.411c-9.524,0.168-21.317-4.757-27.708-11.865
			c-7.278-8.094-8.81-19.672-6.574-30.022c2.038-9.435,6.949-18.179,13.788-24.979c3.057-3.04,6.791-5.976,10.87-8.335
			c2.622-1.115,5.308-1.898,8.001-2.256c20.627-2.744,37.303,18.917,37.072,37.98C290.664,374.911,274.529,396.073,255.433,396.411z
			"/>
	</g>
</g>
<g>
</g>
<g>
</g>
<g>
</g>
<g>
</g>
<g>
</g>
<g>
</g>
<g>
</g>
<g>
</g>
<g>
</g>
<g>
</g>
<g>
</g>
<g>
</g>
<g>
</g>
<g>
</g>
<g>
</g>
</svg>
