<?xml version="1.0" encoding="iso-8859-1"?>
<!-- Generator: Adobe Illustrator 19.0.0, SVG Export Plug-In . SVG Version: 6.00 Build 0)  -->
<svg version="1.1" id="Capa_1" xmlns="http://www.w3.org/2000/svg" xmlns:xlink="http://www.w3.org/1999/xlink" x="0px" y="0px"
	 viewBox="0 0 512 512" style="enable-background:new 0 0 512 512;" xml:space="preserve">
<g>
	<g>
		<path d="M75.497,180.298c-7.291,1.51-13.512,9.398-14.61,17.268c-0.954,3.987-0.285,8.264,2.879,12.285
			c7.419,9.428,25.414,8.365,29.874-3.265C98.372,194.247,90.617,177.166,75.497,180.298z M86.599,205.401
			c-4.121,6.759-17.143,4.962-20.162-2.052c-0.358-0.83-0.581-1.645-0.733-2.449c0.06-5.94,4.52-12.541,10.024-13.691
			C86.006,185.062,91.447,197.451,86.599,205.401z"/>
	</g>
</g>
<g>
	<g>
		<path d="M254.443,91.461c-7.292,1.51-13.512,9.398-14.61,17.268c-0.954,3.987-0.285,8.264,2.879,12.285
			c7.419,9.429,25.414,8.365,29.874-3.265C277.318,105.41,269.563,88.329,254.443,91.461z M265.545,116.564
			c-4.121,6.759-17.143,4.962-20.162-2.052c-0.358-0.831-0.581-1.645-0.733-2.449c0.06-5.94,4.52-12.541,10.024-13.691
			C264.952,96.225,270.393,108.614,265.545,116.564z"/>
	</g>
</g>
<g>
	<g>
		<path d="M254.443,136.582c-7.292,1.51-13.512,9.398-14.61,17.268c-0.954,3.987-0.285,8.264,2.879,12.285
			c7.419,9.428,25.414,8.365,29.874-3.265C277.318,150.531,269.563,133.45,254.443,136.582z M265.545,161.685
			c-4.121,6.76-17.143,4.962-20.162-2.052c-0.358-0.831-0.581-1.645-0.733-2.449c0.06-5.94,4.52-12.541,10.024-13.691
			C264.952,141.346,270.393,153.735,265.545,161.685z"/>
	</g>
</g>
<g>
	<g>
		<path d="M41.588,308.692c-2.737-11.155-16.581-9.36-20.735-0.234c-3.06,6.722,1.283,14.773,8.002,15.005
			C36.492,325.089,43.537,316.637,41.588,308.692z M28.263,318.309c-2.417-1.26-3.221-4.887-1.686-7.534
			c2.248-3.877,8.357-4.98,9.174,0.511C36.39,315.584,32.204,319.536,28.263,318.309z"/>
	</g>
</g>
<g>
	<g>
		<path d="M70.491,308.692c-2.737-11.155-16.581-9.359-20.735-0.234c-3.06,6.722,1.283,14.773,8.001,15.005
			C65.395,325.089,72.44,316.638,70.491,308.692z M57.166,318.309c-2.417-1.26-3.221-4.887-1.686-7.534
			c2.248-3.877,8.357-4.98,9.174,0.511C65.293,315.584,61.107,319.536,57.166,318.309z"/>
	</g>
</g>
<g>
	<g>
		<path d="M99.394,308.692c-2.737-11.155-16.581-9.36-20.735-0.234c-3.06,6.722,1.283,14.773,8.002,15.005
			C94.298,325.089,101.343,316.637,99.394,308.692z M86.069,318.309c-2.418-1.26-3.221-4.887-1.686-7.534
			c2.248-3.877,8.357-4.98,9.174,0.511C94.196,315.584,90.01,319.536,86.069,318.309z"/>
	</g>
</g>
<g>
	<g>
		<path d="M128.297,308.692c-2.737-11.155-16.581-9.36-20.735-0.234c-3.06,6.722,1.283,14.773,8.002,15.005
			C123.201,325.089,130.246,316.637,128.297,308.692z M114.973,318.308c-2.418-1.26-3.221-4.887-1.687-7.534
			c2.248-3.876,8.357-4.979,9.174,0.512C123.099,315.584,118.914,319.536,114.973,318.308z"/>
	</g>
</g>
<g>
	<g>
		<path d="M121.385,230.676c-16.855,0.135-33.728,0.673-50.582,0.621c-8.06-0.025-16.134-0.182-24.192-0.363
			c-8.261-0.185-16.777-1.128-24.981,0.03c-2.837,0.401-2.839,5.331,0,5.732c7.852,1.109,15.977,0.252,23.882,0.06
			c8.424-0.204,16.864-0.356,25.291-0.393c16.852-0.074,33.728,0.486,50.582,0.621C125.444,237.017,125.451,230.643,121.385,230.676
			z"/>
	</g>
</g>
<g>
	<g>
		<path d="M121.385,244.579c-16.855,0.135-33.728,0.673-50.582,0.621c-8.06-0.025-16.134-0.182-24.192-0.363
			c-8.261-0.185-16.777-1.128-24.981,0.03c-2.837,0.401-2.839,5.331,0,5.732c7.852,1.109,15.977,0.252,23.882,0.06
			c8.424-0.204,16.864-0.356,25.291-0.393c16.852-0.074,33.728,0.486,50.582,0.621C125.444,250.92,125.451,244.546,121.385,244.579z
			"/>
	</g>
</g>
<g>
	<g>
		<path d="M121.386,258.481c-16.855,0.135-33.728,0.673-50.582,0.621c-8.06-0.025-16.134-0.182-24.192-0.363
			c-8.261-0.185-16.777-1.128-24.981,0.03c-2.838,0.401-2.84,5.331,0,5.732c7.852,1.109,15.977,0.252,23.882,0.06
			c8.424-0.204,16.864-0.356,25.291-0.393c16.852-0.073,33.727,0.487,50.582,0.621C125.445,264.822,125.452,258.448,121.386,258.481
			z"/>
	</g>
</g>
<g>
	<g>
		<path d="M440.027,180.298c-7.292,1.51-13.512,9.398-14.61,17.268c-0.954,3.987-0.285,8.264,2.879,12.285
			c7.419,9.428,25.414,8.365,29.874-3.265C462.902,194.247,455.147,177.166,440.027,180.298z M451.128,205.401
			c-4.121,6.759-17.143,4.962-20.162-2.052c-0.357-0.83-0.581-1.645-0.733-2.449c0.061-5.94,4.521-12.541,10.024-13.691
			C450.535,185.062,455.976,197.451,451.128,205.401z"/>
	</g>
</g>
<g>
	<g>
		<path d="M406.116,308.692c-2.736-11.155-16.58-9.36-20.734-0.234c-3.06,6.722,1.283,14.773,8.001,15.005
			C401.021,325.089,408.066,316.637,406.116,308.692z M392.793,318.309c-2.418-1.26-3.221-4.887-1.686-7.534
			c2.248-3.877,8.357-4.98,9.174,0.511C400.919,315.584,396.733,319.536,392.793,318.309z"/>
	</g>
</g>
<g>
	<g>
		<path d="M435.02,308.692c-2.737-11.155-16.581-9.36-20.735-0.234c-3.06,6.722,1.283,14.773,8.002,15.005
			C429.924,325.089,436.969,316.637,435.02,308.692z M421.696,318.309c-2.418-1.26-3.221-4.887-1.686-7.534
			c2.248-3.877,8.357-4.98,9.174,0.511C429.822,315.584,425.637,319.536,421.696,318.309z"/>
	</g>
</g>
<g>
	<g>
		<path d="M463.923,308.692c-2.737-11.155-16.581-9.36-20.735-0.234c-3.06,6.722,1.283,14.773,8.002,15.005
			C458.827,325.089,465.872,316.637,463.923,308.692z M450.599,318.309c-2.418-1.26-3.221-4.887-1.686-7.534
			c2.248-3.877,8.357-4.98,9.173,0.511C458.725,315.584,454.54,319.536,450.599,318.309z"/>
	</g>
</g>
<g>
	<g>
		<path d="M492.826,308.692c-2.737-11.155-16.581-9.36-20.735-0.234c-3.06,6.722,1.283,14.773,8.002,15.005
			C487.73,325.089,494.775,316.637,492.826,308.692z M479.502,318.309c-2.418-1.26-3.221-4.887-1.686-7.534
			c2.248-3.877,8.357-4.98,9.174,0.511C487.628,315.584,483.443,319.536,479.502,318.309z"/>
	</g>
</g>
<g>
	<g>
		<path d="M485.915,230.676c-16.855,0.135-33.728,0.673-50.582,0.621c-8.06-0.025-16.134-0.182-24.192-0.363
			c-8.261-0.185-16.777-1.128-24.982,0.03c-2.837,0.401-2.839,5.331,0.001,5.732c7.853,1.109,15.977,0.252,23.882,0.06
			c8.424-0.204,16.864-0.356,25.291-0.393c16.852-0.074,33.728,0.486,50.582,0.621C489.975,237.017,489.981,230.643,485.915,230.676
			z"/>
	</g>
</g>
<g>
	<g>
		<path d="M485.915,244.579c-16.855,0.135-33.728,0.673-50.582,0.621c-8.06-0.025-16.134-0.182-24.192-0.363
			c-8.261-0.185-16.777-1.128-24.982,0.03c-2.837,0.401-2.839,5.331,0.001,5.732c7.853,1.109,15.977,0.252,23.882,0.06
			c8.424-0.204,16.864-0.356,25.291-0.393c16.852-0.074,33.728,0.486,50.582,0.621C489.975,250.92,489.981,244.546,485.915,244.579z
			"/>
	</g>
</g>
<g>
	<g>
		<path d="M485.915,258.481c-16.855,0.135-33.728,0.673-50.582,0.621c-8.06-0.025-16.134-0.182-24.192-0.363
			c-8.261-0.185-16.777-1.128-24.982,0.03c-2.838,0.401-2.839,5.331,0,5.732c7.853,1.109,15.977,0.252,23.882,0.06
			c8.424-0.204,16.864-0.356,25.291-0.393c16.853-0.073,33.729,0.487,50.583,0.621C489.975,264.822,489.981,258.448,485.915,258.481
			z"/>
	</g>
</g>
<g>
	<g>
		<path d="M224,319.164c-2.737-11.155-16.581-9.359-20.735-0.234c-3.06,6.722,1.283,14.773,8.002,15.005
			C218.904,335.561,225.949,327.109,224,319.164z M210.675,328.782c-2.418-1.26-3.221-4.888-1.686-7.534
			c2.248-3.877,8.357-4.98,9.174,0.511C218.802,326.057,214.616,330.009,210.675,328.782z"/>
	</g>
</g>
<g>
	<g>
		<path d="M252.903,319.164c-2.737-11.155-16.581-9.359-20.735-0.234c-3.06,6.722,1.283,14.773,8.002,15.005
			C247.807,335.561,254.852,327.109,252.903,319.164z M239.579,328.782c-2.418-1.26-3.221-4.888-1.687-7.534
			c2.248-3.877,8.357-4.98,9.174,0.511C247.705,326.057,243.52,330.009,239.579,328.782z"/>
	</g>
</g>
<g>
	<g>
		<path d="M281.806,319.164c-2.737-11.155-16.581-9.359-20.735-0.234c-3.06,6.722,1.283,14.773,8.002,15.005
			C276.71,335.561,283.755,327.109,281.806,319.164z M268.481,328.782c-2.418-1.26-3.221-4.888-1.686-7.534
			c2.248-3.877,8.357-4.98,9.174,0.511C276.608,326.057,272.422,330.009,268.481,328.782z"/>
	</g>
</g>
<g>
	<g>
		<path d="M310.709,319.165c-2.737-11.155-16.581-9.359-20.735-0.234c-3.06,6.722,1.283,14.773,8.002,15.005
			C305.613,335.562,312.658,327.11,310.709,319.165z M297.385,328.782c-2.418-1.26-3.221-4.888-1.686-7.534
			c2.248-3.877,8.357-4.98,9.174,0.511C305.511,326.057,301.325,330.009,297.385,328.782z"/>
	</g>
</g>
<g>
	<g>
		<path d="M304.907,196.63c-16.855,0.135-33.728,0.673-50.582,0.621c-8.06-0.025-16.134-0.182-24.192-0.363
			c-8.261-0.185-16.777-1.128-24.982,0.03c-2.837,0.401-2.839,5.331,0.001,5.732c7.852,1.109,15.977,0.252,23.882,0.06
			c8.424-0.204,16.864-0.356,25.291-0.393c16.852-0.074,33.728,0.486,50.582,0.621C308.966,202.971,308.973,196.598,304.907,196.63z
			"/>
	</g>
</g>
<g>
	<g>
		<path d="M304.907,210.533c-16.855,0.135-33.728,0.673-50.582,0.621c-8.06-0.025-16.134-0.182-24.192-0.363
			c-8.261-0.185-16.777-1.128-24.982,0.03c-2.837,0.401-2.839,5.331,0.001,5.732c7.852,1.109,15.977,0.252,23.882,0.06
			c8.424-0.204,16.864-0.356,25.291-0.393c16.852-0.074,33.728,0.486,50.582,0.621C308.966,216.874,308.973,210.501,304.907,210.533
			z"/>
	</g>
</g>
<g>
	<g>
		<path d="M304.907,224.436c-16.855,0.135-33.728,0.673-50.582,0.621c-8.06-0.025-16.134-0.182-24.192-0.363
			c-8.261-0.185-16.777-1.128-24.982,0.03c-2.837,0.401-2.839,5.331,0.001,5.732c7.852,1.109,15.977,0.252,23.882,0.06
			c8.424-0.204,16.864-0.356,25.291-0.393c16.852-0.074,33.728,0.486,50.582,0.621C308.966,230.776,308.973,224.403,304.907,224.436
			z"/>
	</g>
</g>
<g>
	<g>
		<path d="M304.907,238.88c-16.855,0.135-33.728,0.673-50.582,0.621c-8.06-0.025-16.134-0.182-24.192-0.363
			c-8.261-0.185-16.777-1.128-24.982,0.03c-2.837,0.401-2.839,5.331,0.001,5.732c7.852,1.109,15.977,0.252,23.882,0.06
			c8.424-0.204,16.864-0.356,25.291-0.393c16.852-0.074,33.728,0.486,50.582,0.621C308.966,245.221,308.973,238.848,304.907,238.88z
			"/>
	</g>
</g>
<g>
	<g>
		<path d="M304.907,252.782c-16.855,0.135-33.728,0.673-50.582,0.621c-8.06-0.025-16.134-0.182-24.192-0.363
			c-8.261-0.185-16.777-1.128-24.982,0.03c-2.837,0.401-2.839,5.331,0.001,5.732c7.852,1.109,15.977,0.252,23.882,0.06
			c8.424-0.204,16.864-0.356,25.291-0.393c16.852-0.074,33.728,0.486,50.582,0.621C308.966,259.123,308.973,252.75,304.907,252.782z
			"/>
	</g>
</g>
<g>
	<g>
		<path d="M304.907,266.685c-16.855,0.135-33.728,0.673-50.582,0.621c-8.06-0.025-16.134-0.182-24.192-0.363
			c-8.261-0.185-16.777-1.128-24.982,0.03c-2.838,0.401-2.84,5.331,0,5.732c7.852,1.109,15.977,0.252,23.882,0.06
			c8.424-0.204,16.864-0.356,25.291-0.393c16.852-0.074,33.728,0.486,50.582,0.621C308.966,273.026,308.973,266.653,304.907,266.685
			z"/>
	</g>
</g>
<g>
	<g>
		<path d="M510.956,186.82c-0.818-11.647-1.149-25.41-11.608-32.871c-9.474-6.758-21.947-7.126-33.108-7.648
			c-17.557-0.821-35.203,0.223-52.708,0.83c-10.657,0.363-23.637-0.398-33.423,4.595c-9.307,4.748-11.592,14.406-12.677,23.943
			c-2.97,26.102-3.267,52.519-2.627,78.755c0.328,13.457,0.912,26.905,1.373,40.357c0.405,11.784-0.028,23.828,1.328,35.55
			c1.105,9.553,4.25,18.687,12.111,24.743c8.634,6.652,20.086,8.474,30.619,9.78c2.751,0.341,5.508,0.586,8.269,0.777
			c-0.649,17.38-0.429,34.719-0.502,52.107c-4.005,2.355-7.482,5.812-9.942,10.212c-0.148,0.265-0.288,0.536-0.432,0.804
			c-0.119-0.041-0.23-0.094-0.355-0.125c-10.025-2.457-21.613-1.372-31.903-1.594c-11.324-0.243-22.65-0.443-33.976-0.596
			c-21.25-0.287-42.455-0.492-63.653,0.869c-0.421-0.783-0.898-1.537-1.401-2.274c0.101-0.413,0.169-0.85,0.161-1.337l-0.923-55.069
			c5.443-0.151,10.875-0.404,16.276-0.808c13.314-0.996,29.81-1.832,37.991-13.95c8.403-12.447,9.349-29.568,10.1-44.065
			c0.858-16.567,0.584-33.162,0.058-49.735c-1.073-33.793-2.441-67.578-3.983-101.353c-0.875-19.145-1.815-38.285-2.857-57.422
			c-0.714-13.118,1.168-27.998-5.257-40.035c-7.98-14.95-26.878-16.443-42.054-16.829c-15.962-0.407-31.931,0.486-47.807,2.121
			c-12.996,1.339-28.95,1.329-41.068,6.502c-11.828,5.049-16.66,16.443-18.593,28.464c-2.42,15.043-2.408,30.726-2.738,45.922
			c-0.748,34.456,0.124,68.962,0.462,103.42c0.327,33.286-0.562,66.863,1.191,100.105c0.765,14.507,6.349,25.912,20.452,31.306
			c12.796,4.894,27.662,5.787,41.458,6.178c-0.864,17.461-1.309,34.882-1.305,52.382c0,0.212,0.011,0.417,0.031,0.616
			c-1.943,1.853-3.657,4.025-5.042,6.504c-0.158,0.282-0.307,0.57-0.46,0.856c-0.285-0.047-0.57-0.093-0.887-0.102
			c-10.824-0.303-21.726,0.52-32.575,0.385c-10.872-0.135-21.739-0.516-32.606-0.844c-20.92-0.631-41.993-1.277-62.828,1.076
			c-1.442-3.337-3.562-6.386-6.385-8.861c-1.441-1.263-2.958-2.326-4.526-3.199c-0.791-17.243-1.323-34.494-1.871-51.747
			c10.241-0.293,20.646-0.5,30.699-1.938c10.321-1.477,16.448-8.455,19.329-18.15c3.429-11.537,4.159-24.2,4.789-36.154
			c1.404-26.66,1.786-53.412,1.884-80.105c0.051-14.12-0.038-28.256-1.028-42.348c-0.818-11.647-1.149-25.41-11.608-32.871
			c-9.474-6.758-21.947-7.126-33.108-7.648c-17.557-0.821-35.204,0.223-52.707,0.83c-10.657,0.363-23.637-0.398-33.423,4.595
			c-9.307,4.748-11.592,14.406-12.677,23.943c-2.97,26.102-3.267,52.519-2.627,78.755c0.328,13.457,0.912,26.905,1.374,40.357
			c0.405,11.784-0.028,23.828,1.328,35.55c1.105,9.553,4.25,18.687,12.111,24.743c8.634,6.652,20.087,8.474,30.619,9.78
			c6.013,0.746,12.053,1.087,18.1,1.196c-0.182,2.525-0.134,5.096-0.249,7.58c-0.257,5.545-0.498,11.086-0.643,16.635
			c-0.27,10.314,0.248,20.638,0.079,30.962c-2.039,1.899-3.831,4.147-5.271,6.723c-4.663,8.344-7.328,18.023-2.565,26.958
			c0.895,1.68,1.979,3.145,3.204,4.413c9.263,10.421,26.793,10.936,37.7,2.371c1.833-1.44,3.406-3.116,4.725-4.959
			c0.151,0.014,0.293,0.04,0.455,0.039c21.444-0.178,42.875-0.159,64.33-0.492c21.384-0.332,43.016,0.765,64.358-0.384
			c0.318-0.017,0.608-0.072,0.895-0.13c0.791,1.322,1.698,2.509,2.707,3.555c9.263,10.421,26.793,10.936,37.7,2.371
			c2.726-2.141,4.88-4.806,6.467-7.768c21.397-1.414,42.885-0.505,64.26,0.846c21.431,1.355,43.653,4.425,65.121,2.825
			c0.048-0.004,0.087-0.018,0.134-0.022c0.469,0.617,0.962,1.205,1.487,1.748c9.263,10.421,26.793,10.936,37.7,2.371
			c11.722-9.206,12.981-28.033,3.27-39.052c0.291-0.605,0.481-1.313,0.529-2.129c1.071-18.239-0.645-36.543-0.47-54.818
			c12.007-0.436,24.376-0.418,36.254-2.117c10.321-1.477,16.448-8.455,19.329-18.15c3.429-11.537,4.159-24.2,4.789-36.154
			c1.404-26.66,1.786-53.412,1.884-80.105C512.036,215.047,511.947,200.911,510.956,186.82z M62.157,354.527
			c-10.631-0.25-21.527-1.126-31.727-4.317c-9.161-2.866-14.343-8.685-16.146-18.087c-1.917-9.996-1.367-20.665-1.828-30.799
			c-0.53-11.635-1.127-23.267-1.606-34.904c-0.938-22.79-1.775-45.813,0.062-68.578c0.537-6.663,1.117-13.383,2.16-19.988
			c0.684-4.332,1.626-9.38,4.664-12.751c3.454-3.832,9.092-4.42,13.908-5.021c6.497-0.811,13.008-1.496,19.533-2.038
			c15.681-1.301,31.405-1.759,47.12-1.454c8.392,0.807,16.904,2.053,24.768,4.803c10.161,3.552,10.671,12.787,11.442,22.26
			c0.916,11.263,1.222,22.564,1.305,33.861c0.17,23.055-0.218,46.125-0.914,69.169c-0.343,11.37-0.618,22.771-1.678,34.102
			c-0.505,5.399-1.221,10.772-2.294,16.089c-0.822,4.069-1.707,8.995-4.581,12.202c-3.303,3.686-8.907,3.33-13.434,3.607
			c-5.771,0.352-11.544,0.674-17.318,0.965C84.461,354.209,73.306,354.788,62.157,354.527z M83.32,365.758
			c-0.39,16.149-0.775,32.297-1.364,48.44c-3.59-0.185-7.179,0.404-10.534,1.715c-0.203-8.552-0.111-17.11-0.558-25.648
			c-0.271-5.181-0.623-10.351-0.999-15.526c-0.203-2.799-0.197-5.762-0.491-8.646C74.024,366.073,78.675,365.937,83.32,365.758z
			 M81.591,458.025c-0.944,0.217-1.946,0.353-2.981,0.409c-7.779,0.421-17.407-3.691-18.297-12.002
			c-0.728-6.797,4.792-15.755,10.484-19.221c10.543-6.419,24.509,0.613,25.003,12.957C96.147,448.832,89.893,456.117,81.591,458.025
			z M227.866,445.807c-20.605-1.247-41.687-0.047-62.294,0.343c-20.468,0.388-40.704,1.593-61.084,3.104
			c1.144-3.639,1.554-7.521,1.211-11.332c20.235-0.294,40.433,0.035,60.665,0.702c10.867,0.358,21.734,0.727,32.606,0.862
			c9.719,0.121,19.773,0.56,29.498-0.394C227.98,441.313,227.766,443.562,227.866,445.807z M256.761,458.025
			c-0.944,0.217-1.947,0.353-2.981,0.409c-7.779,0.421-17.406-3.691-18.297-12.002c-0.728-6.797,4.792-15.755,10.484-19.221
			c10.543-6.419,24.509,0.613,25.003,12.957C271.316,448.832,265.062,456.117,256.761,458.025z M245.948,368.611
			c7.216,0.157,14.472,0.237,21.726,0.163c-0.33,15.969-0.66,31.937-0.99,47.905c-5.796-2.856-12.205-3.211-18.068-1.461
			C248.068,399.65,247.183,384.139,245.948,368.611z M264.903,356.813c-15.218,0.148-30.582,0.27-45.692-1.815
			c-12.53-1.728-27.003-3.978-29.605-18.562c-1.137-6.372-0.757-13.151-0.865-19.594c-0.129-7.717-0.259-15.433-0.387-23.15
			c-0.249-15.066-0.597-30.131-0.9-45.197c-0.62-30.833-1.393-61.669-1.807-92.506c-0.231-17.187-0.315-34.417,0.563-51.589
			c0.632-12.35-0.133-29.641,10.443-38.381c5.328-4.403,12.408-5.188,19.069-5.489c8.038-0.364,16.076-0.738,24.113-1.124
			c17.614-0.846,35.19-1.843,52.821-2.278c0.518-0.013,0.97-0.125,1.374-0.293c5.295,0.366,10.777,0.855,15.623,3.007
			c12.474,5.54,10.224,23.602,10.844,34.827c0.854,15.456,1.674,30.915,2.463,46.375c1.559,30.553,2.944,61.115,4.154,91.684
			c1.173,29.626,3.029,59.707-0.101,89.273c-0.701,6.618-1.918,13.301-4.312,19.535c-2.721,7.086-6.665,10.444-14.05,12.082
			C294.361,356.791,279.466,356.672,264.903,356.813z M403.085,446.816c-9.511-0.221-19.047,0.016-28.564-0.362
			c-11.22-0.445-22.43-1.116-33.647-1.639c-20.25-0.944-40.367-1.12-60.463,1.481c0.878-4.386,0.75-8.989-0.42-13.302
			c20.431,1.671,40.903,2.168,61.404,2.847c10.961,0.363,21.921,0.747,32.88,1.171c9.557,0.37,19.984,1.882,29.638,0.914
			C403.149,440.856,402.816,443.843,403.085,446.816z M431.93,458.025c-0.945,0.217-1.946,0.353-2.981,0.409
			c-6.319,0.342-13.859-2.307-16.943-7.77c-0.149-0.546-0.383-1.061-0.702-1.531c-0.319-0.847-0.55-1.743-0.652-2.701
			c-0.728-6.797,4.792-15.755,10.484-19.221c10.543-6.419,24.509,0.613,25.003,12.957
			C446.485,448.832,440.232,456.117,431.93,458.025z M440.014,415.873c-3.838-1.516-7.882-2.004-11.817-1.557
			c-1.692-16.02-2.255-32.234-2.577-48.333c5.526,0.168,11.062,0.117,16.592-0.037C441.056,382.517,439.153,399.287,440.014,415.873
			z M499.427,286.682c-0.343,11.37-0.617,22.771-1.678,34.102c-0.505,5.399-1.221,10.772-2.294,16.089
			c-0.822,4.069-1.707,8.995-4.581,12.202c-3.302,3.686-8.907,3.33-13.433,3.607c-5.771,0.352-11.544,0.674-17.318,0.965
			c-11.131,0.562-22.287,1.142-33.436,0.88c-10.631-0.25-21.527-1.126-31.727-4.317c-9.161-2.866-14.343-8.685-16.145-18.087
			c-1.917-9.996-1.367-20.665-1.829-30.799c-0.53-11.635-1.127-23.267-1.606-34.904c-0.938-22.79-1.775-45.813,0.062-68.578
			c0.537-6.663,1.117-13.383,2.16-19.988c0.684-4.332,1.626-9.38,4.664-12.751c3.455-3.832,9.092-4.42,13.908-5.021
			c6.497-0.811,13.008-1.496,19.533-2.038c15.68-1.301,31.405-1.759,47.12-1.454c8.392,0.807,16.904,2.053,24.768,4.803
			c10.161,3.552,10.671,12.787,11.442,22.26c0.916,11.263,1.222,22.564,1.305,33.861
			C500.511,240.569,500.122,263.638,499.427,286.682z"/>
	</g>
</g>
<g>
</g>
<g>
</g>
<g>
</g>
<g>
</g>
<g>
</g>
<g>
</g>
<g>
</g>
<g>
</g>
<g>
</g>
<g>
</g>
<g>
</g>
<g>
</g>
<g>
</g>
<g>
</g>
<g>
</g>
</svg>
