<?xml version="1.0" encoding="iso-8859-1"?>
<!-- Generator: Adobe Illustrator 19.0.0, SVG Export Plug-In . SVG Version: 6.00 Build 0)  -->
<svg version="1.1" id="Capa_1" xmlns="http://www.w3.org/2000/svg" xmlns:xlink="http://www.w3.org/1999/xlink" x="0px" y="0px"
	 viewBox="0 0 512 512" style="enable-background:new 0 0 512 512;" xml:space="preserve">
<g>
	<g>
		<path d="M475.378,229.726c-0.897-10.551-2.306-21.074-4.217-31.489c-1.527-8.322-3.057-17.526-11.828-21.087
			c-8.66-3.516-20.152-1.768-29.296-1.766c-10.178,0.002-20.356,0.112-30.533,0.31c1.679-40.315,0.264-80.807-3.878-120.935
			c-1.021-9.885-2.125-19.776-3.494-29.619c-0.988-7.102-2.877-14.632-9.125-18.947c-7.247-5.005-17.847-3.575-26.164-3.712
			c-10.615-0.176-21.231-0.352-31.847-0.527c-41.234-0.683-82.469-1.488-123.706-1.916c-18.13-0.188-36.741,0.115-54.148,5.807
			c-7.559,2.472-16.309,5.881-20.299,13.282c-4.299,7.973-3.44,18.904-3.861,27.656c-1.117,23.242-1.894,46.539-1.848,69.81
			c0.041,20.957,0.331,41.696,2.905,62.445c-1.078,0.035-2.156,0.059-3.234,0.096c-19.531,0.681-41.385-0.253-59.889,6.941
			c-8.027,3.121-15.022,7.837-18.637,15.917c-3.709,8.292-4.326,17.986-5.25,26.915c-2.139,20.654-2.18,41.579-0.164,62.241
			c0.837,8.574,0.712,19.765,5.658,27.17c4.679,7.007,13.184,8.651,20.942,9.876c19.024,3.006,38.311,3.554,57.542,3.927
			c-0.69,39.95,2.976,80.157,5.254,120.012c0.569,9.954,0.79,20.012,1.779,29.933c0.788,7.902,3.819,14.385,10.723,18.669
			c6.983,4.333,15.847,6.047,23.803,7.518c9.286,1.718,18.735,2.65,28.161,3.136c40.29,2.077,80.869-1.615,121.071-3.99
			c10.067-0.595,20.135-1.171,30.205-1.714c8.787-0.474,18.651,0.109,27.094-2.717c17.146-5.739,21.555-23.986,22.758-40.042
			c1.708-22.811,2.592-45.721,2.802-68.593c0.202-21.979,0.499-44.247-1.384-66.183c8.219-0.276,16.437-0.595,24.646-1.083
			c9.538-0.566,19.496-0.792,28.86-2.84c16.951-3.706,24.993-18.424,27.484-34.476C477.319,270.044,477.063,249.544,475.378,229.726
			z M133.603,70.381c0.467-9.581,1.028-19.156,1.654-28.728c0.568-8.674-0.437-17.415,7.988-22.36
			c14.877-8.733,32.988-9.895,49.838-9.829c37.795,0.148,75.633,1.684,113.421,2.499c19.177,0.414,38.353,0.827,57.53,1.241
			c3.854,0.083,8.623-0.504,12.126,1.355c3.346,1.775,4.297,5.704,4.988,9.166c1.765,8.834,2.413,18.041,3.295,26.997
			c4.1,41.639,4.93,83.433,3.149,125.218c-4.041,0.094-8.083,0.199-12.124,0.312c2.75-38.206,2.734-76.581-0.29-114.773
			c-0.648-8.186-0.704-16.953-2.62-24.965c-1.553-6.496-5.852-11.017-12.523-12.184c-8.332-1.457-17.411-0.702-25.828-0.528
			c-7.25,0.149-15.722-0.763-21.761,4.024c-2.895,2.294-4.8,5.626-7.84,7.749c-3.551,2.48-8.194,3.16-12.423,3.444
			c-9.035,0.607-18.219,0.073-27.268,0c-9.88-0.081-19.763-0.112-29.642-0.242c-3.356-0.044-6.749-0.062-10.036-0.814
			c-4.593-1.051-6.89-3.485-9.591-7.12c-4.385-5.901-11.011-5.614-17.754-5.526c-9.567,0.124-19.161,0.904-28.643,2.169
			c-7.002,0.934-14.418,2.484-19.378,7.943c-4.526,4.981-6.003,11.799-6.355,18.333c-1.14,21.151,0.05,42.695,0.213,63.877
			c0.088,11.383,0.228,22.767,0.342,34.15c0.089,8.891,0.024,17.832,0.698,26.705c-4.953,0.103-9.906,0.221-14.859,0.365
			C132.75,142.821,131.841,106.496,133.603,70.381z M151.773,131.093c0.088-18.282,0.072-36.564,0.078-54.847
			c0.003-8.189-0.477-16.553,0.324-24.717c0.791-8.062,4.017-14.003,12.266-16.304c8.532-2.379,17.7-3.118,26.515-3.544
			c3.954-0.191,7.942-0.345,11.9-0.234c5.456,0.153,6.803,2.089,9.885,6.111c8.208,10.709,26.185,7.962,37.867,8.103
			c9.199,0.111,18.399,0.222,27.598,0.333c7.014,0.085,14.179,0.478,21.089-0.997c7.004-1.495,11.391-5.083,16.208-10.088
			c5.668-5.888,16.094-4.28,23.608-4.311c4.25-0.017,8.5,0.02,12.748,0.123c3.917,0.095,8.989-0.23,11.894,2.902
			c2.241,2.417,2.64,6.436,3.006,9.552c0.555,4.723,0.863,9.493,1.224,14.234c3.024,39.636,2.851,79.479-0.434,119.091
			c-11.663,0.375-23.322,0.855-34.967,1.565c-0.44,0.027-0.879,0.06-1.319,0.087c-48.738-0.322-97.484-0.204-146.2-0.102
			c-11.3,0.024-22.598,0.135-33.895,0.331C152.427,162.722,151.698,146.733,151.773,131.093z M380.808,438.51
			c-0.302,9.084-0.534,18.205-1.219,27.27c-0.591,7.827-2.083,16.436-7.819,22.262c-5.861,5.953-14.993,5.412-22.722,5.921
			c-9.397,0.618-18.792,1.247-28.191,1.818c-37.502,2.276-75.086,5.349-112.68,5.164c-18.118-0.089-36.353-0.959-53.872-5.959
			c-6.74-1.924-13.682-4.3-14.968-12.038c-1.501-9.03-1.34-18.61-1.933-27.744c-2.659-40.902-4.039-82.323-9.684-122.96
			c5.787,0.108,11.575,0.193,17.362,0.263c0.165,33.092,2.098,66.23,3.376,99.287c0.535,13.855-1.517,31.884,9.837,42.18
			c11.009,9.983,26.861,9.544,40.765,9.979c35.13,1.102,70.299,0.085,105.398-1.514c8.865-0.404,17.727-0.852,26.589-1.322
			c7.571-0.401,16.143,0.103,23.28-2.819c13.297-5.444,15.589-21.244,16.273-33.844c2.083-38.343,2.587-77.225,0.874-115.616
			c3.204-0.101,6.408-0.2,9.612-0.301c-0.113,17.811,0.674,35.644,0.672,53.457C381.755,400.832,381.434,419.684,380.808,438.51z
			 M362.468,421.244c-0.201,8.023-0.437,16.054-0.873,24.069c-0.376,6.919-0.913,14.643-4.915,20.567
			c-4.44,6.57-12.391,6.237-19.5,6.671c-8.179,0.499-16.358,0.985-24.54,1.438c-32.033,1.775-64.098,3.001-96.186,2.621
			c-7.504-0.089-15.011-0.236-22.51-0.547c-7.954-0.33-16.399-0.506-23.759-3.907c-14.855-6.865-13.209-23.406-13.906-37.301
			c-1.708-34.071-2.739-68.287-5.589-102.292c35.316,0.359,70.636,0.071,105.947-0.613c35.335-0.685,70.663-1.726,105.987-2.832
			C362.111,359.819,363.238,390.534,362.468,421.244z M463.618,266.765c-0.338,13.092,0.523,33.753-11.325,42.689
			c-7.139,5.384-17.923,5.197-26.427,5.845c-9.601,0.732-19.22,1.18-28.841,1.545c-39.931,1.513-79.882,2.752-119.829,3.759
			c-39.738,1.002-79.492,1.641-119.243,1.503c-20.065-0.07-40.165-0.143-60.215-0.958c-9.884-0.402-19.764-1.073-29.537-2.646
			c-3.907-0.629-8.091-1.15-11.822-2.544c-4.733-1.768-6.156-5.232-7.064-9.916c-3.619-18.669-4.525-38.444-3.421-57.406
			c0.567-9.737,1.616-19.445,3.236-29.063c1.371-8.14,2.986-16.072,10.829-20.307c16.157-8.725,37.966-7.44,55.75-8.167
			c19.709-0.806,39.432-1.167,59.155-1.467c40.006-0.608,80.02-0.798,120.028-1.226c40.112-0.429,80.317-0.139,120.406-1.603
			c3.499-0.128,6.998-0.244,10.497-0.369c8.095,0.19,16.25,0.319,24.283,1.066c4.306,0.401,6.098,1.47,7.072,5.777
			c1.139,5.041,1.98,10.191,2.804,15.292C463.056,227.781,464.12,247.318,463.618,266.765z"/>
	</g>
</g>
<g>
	<g>
		<path d="M320.549,71.145c-39.166-1.259-78.35,1.503-117.506,1.87c-2.553,0.025-2.557,3.944,0,3.968
			c39.156,0.367,78.34,3.13,117.506,1.87C325.507,78.694,325.515,71.304,320.549,71.145z"/>
	</g>
</g>
<g>
	<g>
		<path d="M320.549,90.919c-39.166-1.259-78.35,1.503-117.506,1.87c-2.553,0.024-2.557,3.944,0,3.968
			c39.156,0.367,78.34,3.13,117.506,1.871C325.507,98.469,325.515,91.079,320.549,90.919z"/>
	</g>
</g>
<g>
	<g>
		<path d="M320.549,110.692c-39.166-1.259-78.35,1.504-117.506,1.87c-2.553,0.025-2.557,3.944,0,3.968
			c39.156,0.367,78.34,3.13,117.506,1.87C325.507,118.241,325.515,110.851,320.549,110.692z"/>
	</g>
</g>
<g>
	<g>
		<path d="M320.549,445.712c-12.414-0.399-24.83-0.393-37.246-0.188c-26.896-0.497-53.902,0.545-80.752,1.346
			c-5.627,0.168-5.655,8.914,0,8.766c27.712-0.723,55.469-1.05,83.182-1.993c11.606,0.166,23.212,0.151,34.816-0.222
			C325.507,453.261,325.516,445.872,320.549,445.712z"/>
	</g>
</g>
<g>
	<g>
		<path d="M434.596,254.616c-1.176-11.217-4.911-22.97-12.047-31.871c-3.499-4.365-7.95-7.227-12.866-8.944
			c-0.469-5.073-1.055-10.812-4.348-14.759c-3.167-3.795-8.182-5.736-13.087-4.885c-9.455,1.638-14.22,11.45-11.483,19.874
			c-7.671,2.302-14.729,6.431-19.594,12.986c-4.061,5.472-6.498,11.809-7.673,18.414c-2.672,9.492-3.128,21.016,0,30.208
			c1.394,4.097,4.503,5.622,8.602,6.027c4.741,0.468,9.522,0.71,14.299,0.887c-2.796,9.713,7.572,19.852,17.148,20.026
			c10.603,0.193,19.307-9.337,18.109-19.527c4.265,0.018,8.583-0.078,12.617-0.837C436.496,279.914,435.604,264.232,434.596,254.616
			z M393.661,201.049c7.516-1.443,7.715,5.3,8.135,10.975c-3.047-0.355-6.167-0.392-9.274-0.152
			c-2.262,0.175-4.537,0.48-6.789,0.923C385.945,207.586,387.927,202.15,393.661,201.049z M392.596,294.556
			c-7.062-0.493-9.289-6.065-10.598-11.815c0.717,0.021,1.436,0.044,2.152,0.066c6.135,0.181,12.275,0.241,18.413,0.205
			C403.596,289.195,399.7,295.052,392.596,294.556z M425.216,272.222c-2.083,3.097-9.758,2.028-12.966,2.123
			c-5.351,0.159-10.704,0.231-16.057,0.216c-10.371-0.03-20.743-0.423-31.089-1.127c-2.706-0.184-3.395-0.201-4.35-2.785
			c-0.69-1.866-0.881-4.067-1.124-6.036c-0.584-4.72-0.491-9.577,0.354-14.26c2.165-11.983,10.476-23.196,21.406-28.255
			c0.613-0.183,1.229-0.355,1.85-0.509c8.197-2.023,18.416-2.525,26.041,1.656c7.803,4.278,12.092,13.939,14.495,22.079
			c1.235,4.183,2.05,8.491,2.318,12.847C426.312,261.682,427.265,269.176,425.216,272.222z"/>
	</g>
</g>
<g>
	<g>
		<path d="M351.729,283.843c-7.414-2.556-6.327-13.854-5.391-19.828c0.494-3.15-3.844-4.499-4.864-1.341
			c-1.938,5.997-4.233,12.174-2.344,18.529c1.548,5.205,5.366,8.93,10.353,10.784C354.555,293.871,356.871,285.616,351.729,283.843z
			"/>
	</g>
</g>
<g>
	<g>
		<path d="M340.418,289.676c-7.624-4.834-6.633-15.493-5.387-23.169c0.521-3.208-3.819-4.504-4.919-1.356
			c-3.897,11.151-5.498,24.529,6.215,31.523C340.828,299.362,344.811,292.461,340.418,289.676z"/>
	</g>
</g>
<g>
	<g>
		<path d="M444.014,263.756c-0.774-2.727-5.389-2.326-5.121,0.693c0.747,8.425-2.832,15.638-9.225,20.932
			c-3.34,2.766,1.092,8.583,4.671,6.053C443.21,285.164,446.965,274.149,444.014,263.756z"/>
	</g>
</g>
<g>
	<g>
		<path d="M453.346,267.021c-0.452-1.812-3.354-1.455-3.285,0.445c0.363,10.105-3.949,19.229-11.243,26.074
			c-3.578,3.357,1.774,8.663,5.371,5.37C453.106,290.747,456.232,278.619,453.346,267.021z"/>
	</g>
</g>
<g>
	<g>
		<path d="M292.849,214.879c-34.046-1.131-68.283-2.623-102.347-2.465c-34.128,0.158-68.238,0.939-102.347,2.04
			c-3.354,0.109-3.36,5.106,0,5.215c34.109,1.102,68.219,1.883,102.347,2.04c34.065,0.157,68.301-1.334,102.347-2.466
			C295.656,219.15,295.661,214.972,292.849,214.879z"/>
	</g>
</g>
<g>
	<g>
		<path d="M292.849,240.619c-34.046-1.131-68.283-2.623-102.347-2.466c-34.128,0.158-68.238,0.938-102.347,2.04
			c-3.354,0.109-3.36,5.106,0,5.215c34.109,1.102,68.219,1.883,102.347,2.04c34.065,0.157,68.301-1.334,102.347-2.466
			C295.656,244.89,295.661,240.712,292.849,240.619z"/>
	</g>
</g>
<g>
	<g>
		<path d="M292.849,266.359c-34.046-1.131-68.283-2.623-102.347-2.466c-34.128,0.158-68.238,0.939-102.347,2.04
			c-3.354,0.108-3.36,5.106,0,5.215c34.109,1.102,68.219,1.883,102.347,2.04c34.065,0.157,68.301-1.334,102.347-2.466
			C295.656,270.63,295.661,266.452,292.849,266.359z"/>
	</g>
</g>
<g>
	<g>
		<path d="M292.849,292.099c-34.046-1.132-68.283-2.623-102.347-2.466c-34.128,0.157-68.238,0.938-102.347,2.04
			c-3.354,0.108-3.36,5.106,0,5.215c34.109,1.102,68.219,1.883,102.347,2.04c34.065,0.157,68.301-1.335,102.347-2.466
			C295.656,296.37,295.661,292.192,292.849,292.099z"/>
	</g>
</g>
<g>
</g>
<g>
</g>
<g>
</g>
<g>
</g>
<g>
</g>
<g>
</g>
<g>
</g>
<g>
</g>
<g>
</g>
<g>
</g>
<g>
</g>
<g>
</g>
<g>
</g>
<g>
</g>
<g>
</g>
</svg>
