<?xml version="1.0" encoding="iso-8859-1"?>
<!-- Generator: Adobe Illustrator 19.0.0, SVG Export Plug-In . SVG Version: 6.00 Build 0)  -->
<svg version="1.1" id="Capa_1" xmlns="http://www.w3.org/2000/svg" xmlns:xlink="http://www.w3.org/1999/xlink" x="0px" y="0px"
	 viewBox="0 0 511.997 511.997" style="enable-background:new 0 0 511.997 511.997;" xml:space="preserve">
<g>
	<g>
		<path d="M453.977,480.693c-0.144-12.461-0.707-24.913-1.723-37.333c-1.045-12.781-1.444-26.746-4.836-39.158
			c-3.264-11.944-13.467-18.547-22.714-25.771c-22.242-17.378-43.781-36.295-67.528-51.609c-0.508-0.328-1.028-0.516-1.544-0.609
			c0-0.4,0.007-0.8-0.005-1.201c-0.023-0.843-0.207-1.562-0.496-2.175c10.909-4.241,21.079-10.611,29.946-19.253
			c7.331-7.145,13.956-15.873,18.761-25.375c13.833,10.358,34.439-1.728,39.782-16.24c5.565-15.115-3.921-32.262-20.575-31.623
			c-2.531-13.164,11.8-23.877,13.223-37.206c0.955-8.943-4.249-17.617-11.162-23.369c-1.389-1.156-2.886-2.263-3.805-3.82
			c-1.001-1.697-1.2-3.729-1.519-5.674c-1.873-11.413-8.893-21.88-18.742-27.943c-3.087-1.9-6.491-3.435-8.959-6.09
			c-3.033-3.263-4.242-7.758-5.921-11.885c-7.273-17.877-25.767-30.59-45.063-30.979c-8.967-0.181-17.806,2.06-26.759,2.589
			c-13.623,0.805-27.661-2.322-40.747,1.547c-9.632,2.848-18.071,9.533-23.047,18.257c-2.908,5.098-4.647,10.79-7.481,15.93
			c-5.293,9.603-16.053,12.489-23.643,19.995c-5.375,5.316-9.989,12.007-10.451,19.552c-0.13,2.125,0.065,4.319-0.641,6.327
			c-0.842,2.393-2.83,4.162-4.598,5.981c-3.994,4.11-7.233,9.088-8.607,14.652c-4.088,16.55,12.835,26.252,14.631,41.477
			c-16.915-0.472-27.571,16.713-21.934,32.314c4.965,13.74,23.789,26.107,37.388,15.915c8.944,19.618,29.055,33.591,49.649,41.99
			c-0.504,2.081-0.775,4.126-0.841,6.124c-20.954,13.205-41.335,28.004-61.255,42.722c-8.057,5.953-16.283,12.237-21.536,20.956
			c-5.735,9.52-6.872,21.272-8.325,32.052c-3.319,24.634-6.382,49.298-9.816,73.917c-0.567,4.066-1.022,8.342,1.873,11.72
			c3.563,4.157,9.384,3.832,14.376,3.983c12.635,0.383,25.286,0.684,37.928,0.605c50.139-0.313,100.231-0.977,150.377-0.772
			c12.282,0.051,24.563,0.098,36.845,0.037c6.316-0.031,12.632-0.062,18.949-0.093c5.001-0.025,10.236,0.327,14.482-2.752
			C456.027,502.524,454.076,489.317,453.977,480.693z M423.173,236.35c11.621,0.342,16.984,14.68,11.193,24.202
			c-5.203,8.556-16.802,14.539-26.24,9.593c-0.212-0.111-0.427-0.187-0.641-0.261c1.403-3.788,2.504-7.652,3.208-11.557
			c0.03-0.167,0.026-0.321,0.041-0.482c4.016,0.087,8.052-1.613,10.759-5.594C424.833,247.339,423.966,241.815,423.173,236.35z
			 M220.523,269.784c-9.105,6.623-21.908,0.441-25.78-9.342c-4.341-10.969,3.307-23.282,14.711-24.811
			c-0.01,0.072-0.021,0.143-0.031,0.215c-0.036,0.159-0.063,0.316-0.104,0.476c-0.07,0.271-0.085,0.532-0.078,0.787
			c-0.755,5.216-1.396,10.457,1.789,15.141c2.395,3.522,5.831,5.266,9.373,5.56c0.149,3.904,0.733,7.636,1.656,11.218
			C221.558,269.165,221.043,269.406,220.523,269.784z M224.44,249.799c-0.621,0.434-1.335,0.718-2.137,0.794
			c-2.127,0.202-4.156-1.221-5.243-3.06c-2.252-3.81-1.374-8.51-0.974-12.661c0.617-2.493,0.694-5.002,0.389-7.493
			c-0.035-1.178-0.134-2.366-0.327-3.572c-1.683-10.5-11.834-20.477-11.485-30.884c0.332-9.908,12.407-15.037,16.382-24.118
			c2.298-5.251,1.725-11.558,4.707-16.453c4.723-7.753,16.066-8.637,22.001-15.508c3.99-4.62,4.821-11.078,6.971-16.791
			c4.836-12.85,15.753-20.472,29.254-22.13c11.328-1.391,22.844,0.517,34.206-0.572c7.935-0.76,15.773-2.979,23.736-2.6
			c10.58,0.503,20.567,5.65,28.407,12.772c2.762,2.51,5.338,5.327,6.923,8.706c2.841,6.055,2.4,13.631,6.719,18.739
			c3.31,3.914,8.606,5.378,13.003,8.012c5.727,3.429,10.067,9.104,11.878,15.529c1.368,4.855,1.405,10.23,4.157,14.457
			c2.185,3.356,5.794,5.508,8.398,8.55c3.174,3.708,4.726,8.758,4.183,13.608c-0.835,7.453-6.184,13.604-8.331,20.789
			c-2.217,7.419-0.885,15.355-0.445,23.086c0.151,2.653,0.171,5.428-0.984,7.82c-1.155,2.393-3.828,4.256-6.411,3.633
			c-2.226-0.536-3.732-2.744-4.147-4.996c-0.757-4.109,1.119-8.096,0.185-12.286c-0.829-3.719-3.033-6.78-5.782-9.35
			c-6.201-5.798-12.898-8.933-12.531-18.549c0.157-4.09,1.252-8.087,1.639-12.162c0.562-5.933-0.416-12.006-2.812-17.462
			c-2.876-6.55-8.884-12.659-16.022-12.181c-2.929,0.196-5.66,1.479-8.311,2.739c-20.193,9.603-39.11,19.025-62.042,12.653
			c-11.714-3.256-20.938-14.879-33.272-15.46c-7.618-0.359-14.9,4.472-18.743,11.06s-4.597,14.63-3.479,22.175
			c0.73,4.927,2.197,10.06,0.55,14.761c-3.153,9.003-16.229,12.284-17.762,21.699c-0.536,3.294,0.55,6.63,0.544,9.967
			C227.427,245.592,226.39,248.436,224.44,249.799z M255.51,299.333c-14.32-10.338-24.989-25.144-29.036-42.409
			c4.446-1.687,8.132-5.58,8.873-10.925c0.501-3.613-1.422-8.445,0.453-11.74c1.579-2.775,5.503-4.956,7.921-6.985
			c4.524-3.795,8.931-8.136,10.567-14.001c2.348-8.419-2.239-16.447-1.297-24.833c0.383-3.411,3.217-10.922,6.995-14.526
			c1.874-1.244,3.74-1.756,5.602-1.73c0.716,0.267,1.438,0.73,2.161,1.448c6.941,6.886,15.344,11.127,24.643,12.758
			c9.375,4.024,19.426,5.718,30.368,4.548c7.126-0.762,13.981-2.464,20.625-5.013c6.354-1.488,12.333-4.661,17.443-8.773
			c2.715-1.645,5.559-3.338,8.673-3.871c0.776-0.133,1.493-0.158,2.167-0.108c4.205,3.195,7.449,11.601,7.861,15.268
			c0.941,8.386-3.645,16.414-1.297,24.833c1.636,5.865,6.043,10.206,10.567,14.001c2.418,2.029,6.342,4.21,7.921,6.985
			c1.875,3.295-0.048,8.126,0.453,11.74c0.502,3.624,2.359,6.581,4.887,8.637c-0.195,0.351-0.369,0.732-0.496,1.175
			c-3.829,13.389-9.207,25.497-18.513,36.051c-9.177,10.408-20.859,18.769-33.936,23.532
			C318.102,326.693,281.761,318.284,255.51,299.333z M308.855,399.725c-1.014-0.997-1.585-3.168-2.211-4.418
			c-2.978-5.952-6.362-11.708-9.608-17.519c0.608-0.592,1.2-1.199,1.811-1.786c2.331-2.239,4.696-4.444,7.035-6.675
			c1.403-1.339,2.805-2.678,4.221-4.004c0.421-0.394,1.369-0.969,1.998-1.48c0.692,0.774,1.8,1.695,1.97,1.877
			c1.152,1.232,2.29,2.476,3.424,3.724c2.496,2.748,4.956,5.528,7.378,8.342c0.587,0.682,1.158,1.381,1.736,2.072
			c-0.013,0.025-0.029,0.043-0.041,0.069c-1.588,3.345-2.919,6.804-4.321,10.231c-1.282,3.133-2.259,6.825-3.843,9.929
			c-2.482,0.249-5.062-0.144-7.505,0.276C307.791,400.897,310.171,401.021,308.855,399.725z M304.784,360.541
			c-2.491,2.356-4.942,4.759-7.302,7.24c-5.433,5.707-10.67,11.594-15.774,17.596c-1.507-14.66-2.803-29.342-3.895-44.036
			C283.169,350.975,293.543,358.058,304.784,360.541z M280.774,322.17c3.125,1.113,6.238,2.099,9.301,2.955
			c18.57,5.19,37.893,5.607,55.753,0.766c-0.918,9.268-0.95,16.844-10.299,21.709c-7.432,3.867-16.594,5.211-24.861,4.345
			C294.857,350.29,281.279,338.233,280.774,322.17z M320.231,361.304c7.748-0.752,15.538-3.119,21.816-7.202
			c3.086-2.007,5.577-4.488,7.561-7.284c-1.814,8.52-3.158,17.179-4.633,25.684c-0.704,4.057-1.37,8.121-2.05,12.182
			c-4.206-5.027-8.847-9.731-13.445-14.363C326.447,367.265,323.356,364.266,320.231,361.304z M252.573,502.803
			c-11.25,0.042-22.503,0.103-33.751-0.134c-5.621-0.118-11.251-0.268-16.864-0.61c-2.817-0.172-5.616-0.466-8.419-0.789
			c-2.377-0.274-6.292,0.012-8.41-1.173c-1.974-1.105-1.392-2.713-1.335-5.045c0.067-2.757,0.203-5.514,0.319-8.27
			c0.245-5.868,0.565-11.707,1.116-17.555c1.068-11.345,2.565-22.593,4.424-33.835c1.868-11.299,3.644-23.598,8.313-34.145
			c4.468-10.091,12.417-16.975,21.048-23.487c13.581-10.246,27.293-20.589,40.618-31.317c-7.125,11.22-14.29,22.417-21.145,33.801
			c-2.64,4.384-10.492,13.34-2.932,17.045c3.484,1.708,7.902,1.965,11.599,3.377c1.966,0.751,3.875,1.617,5.754,2.541
			c-3.517,2.071-7.014,4.177-10.509,6.294c-5.922,3.586-12.449,6.868-17.889,11.168c-2.887,2.282-3.844,4.928-1.914,8.26
			c3.604,6.219,8.703,12.035,12.685,18.087c12.563,19.096,24.835,38.638,40.246,55.589
			C267.877,502.699,260.226,502.775,252.573,502.803z M246.79,448.789c-3.564-4.794-7.199-9.544-10.656-14.415
			c-1.615-2.275-3.089-5.231-4.935-7.359c0.67-0.387,1.264-0.744,1.421-0.826c11.199-5.819,22.223-12.171,32.997-18.74
			c3.165-1.93,3.329-6.761,0-8.653c-4.045-2.298-8.222-4.3-12.561-5.982c-2.9-1.124-6.315-1.717-9.459-2.647
			c0.485-0.835,0.963-1.675,1.451-2.504c1.397-2.37,2.807-4.733,4.172-7.121c3.072-5.374,6.082-10.785,9.123-16.176
			c4.689-8.31,9.347-16.638,14.051-24.94c1.054,54.072,6.943,107.858,16.308,161.118
			C273.277,484.506,260.049,466.622,246.79,448.789z M282.395,391.974c0.497-0.081,0.999-0.338,1.459-0.824
			c2.624-2.777,5.286-5.516,7.977-8.227c2.3,5.658,4.555,11.344,7.128,16.878c1.095,2.355,2.034,4.185,3.157,5.537
			c-3.179,8.344-5.358,17.236-7.922,25.718c-1.649,5.455-3.189,10.935-4.682,16.428
			C286.746,429.035,284.388,410.524,282.395,391.974z M331.742,464.463c-0.216,1.854-0.433,3.709-0.652,5.563
			c-0.424,3.599-0.853,7.198-1.295,10.795c-0.846,6.882-1.626,13.727-2.268,20.595c-9.47,1.01-19.239,0.652-28.764,0.832
			c0.061-0.52,0.042-1.077-0.074-1.667c-2.314-11.737-4.419-23.511-6.366-35.311c0.017-0.053,0.042-0.095,0.058-0.15
			c2.949-10.719,5.904-21.411,8.465-32.23c1.933-8.169,4.346-16.484,5.822-24.83c1.175,0.246,2.552,0.33,4.23,0.251
			c3.079-0.146,7.125,0.332,10.278-0.707c1.632,8.617,2.23,17.442,4.206,26.014c2.011,8.722,4.435,17.343,6.931,25.938
			C332.669,460.775,331.892,463.182,331.742,464.463z M334.608,440.37c-0.777-2.884-1.558-5.768-2.354-8.647
			c-2.405-8.698-5.986-17.149-8.143-25.908c0.351-0.369,0.674-0.778,0.944-1.264c2.975-5.355,5.088-12.019,6.93-18.166
			c2.348,2.872,4.718,5.724,7.22,8.444c0.547,0.594,1.183,0.948,1.848,1.143c-1,6.176-1.983,12.355-2.927,18.54
			C336.81,423.115,335.676,431.739,334.608,440.37z M347.055,415.72c1.832-14.047,3.818-28.074,5.939-42.08
			c1.438-9.496,3.199-19.068,4.401-28.66c3.771,10.36,8.274,20.35,13.798,29.971c1.605,2.796,3.28,5.551,4.88,8.35
			c0.958,1.676,1.917,3.36,2.836,5.058c0.518,0.957,0.983,3.004,1.733,3.258c-2.197,1.44-6.289,2.964-7.659,3.729
			c-3.592,2.007-7.117,4.091-10.614,6.262c-3.626,2.251-2.511,7.027,1.105,8.455c5.428,2.144,10.423,5.398,15.488,8.278
			c0.961,0.547,7.083,3.186,7.239,4.117c0.265,1.579-2.615,4.298-3.493,5.491c-6.181,8.385-12.624,16.572-19.02,24.794
			c-8.819,11.337-17.56,22.736-25.427,34.728C340.358,463.495,343.949,439.533,347.055,415.72z M441.327,496.413
			c-0.435,2.283-0.551,2.294-2.887,2.516c-5.798,0.552-11.815,0.227-17.64,0.334c-11.231,0.206-22.458,0.443-33.687,0.751
			c-15.406,0.422-30.811,0.853-46.216,1.255c11.556-18.653,25.126-35.913,38.477-53.31c3.486-4.543,6.951-9.103,10.344-13.717
			c2.709-3.685,7.447-8.314,6.436-13.356c-1.037-5.173-6.75-7.046-10.897-9.189c-3.595-1.858-7.266-3.618-10.827-5.557
			c1.879-0.909,3.754-1.828,5.624-2.769c3.101-1.56,6.984-2.85,9.509-5.275c5.747-5.517-0.759-14.213-3.951-19.251
			c-6.914-10.912-13.806-21.759-19.893-33.108c12.515,9.867,25.5,19.184,38.104,28.898c8.887,6.849,18.166,13.694,26.403,21.322
			c7.691,7.123,7.46,17.977,8.458,27.763c2.246,22.031,3.138,44.175,2.882,66.315C441.542,492.102,441.718,494.365,441.327,496.413z
			"/>
	</g>
</g>
<g>
	<g>
		<path d="M250.206,25.054C236.018,7.802,214.357,3.593,193.222,1.55c-9.817-0.949-19.719-1.359-29.621-1.233
			c-30.945-1.588-62.011,2.231-85.775,24.53c-13.887,13.032-23.72,33.286-18.791,52.541c4.865,19.003,22.743,31.322,40.571,36.763
			c6.091,1.859,12.375,3.078,18.686,3.888c3.211,0.412,6.434,0.783,9.661,1.045c2.478,0.201,5.908-0.459,7.874,1.106
			c2.057,1.637,3.832,5.439,5.375,7.631c1.754,2.49,3.579,4.926,5.449,7.329c4.164,5.35,8.524,10.435,13.52,15.025
			c3.027,2.781,6.954,1.267,8.406-2.219c1.956-4.696,3.145-9.727,3.399-14.818c0.107-2.16-0.038-4.307-0.316-6.448
			c-0.205-1.581-0.898-3.106-0.122-4.592c0.852-1.631,1.967-1.524,3.732-1.925c12.268-2.792,24.833-4.092,37.104-6.885
			c18.801-4.28,38.022-14.126,46.148-32.625C266.641,62.178,262.888,40.476,250.206,25.054z M246.925,79.775
			c-10.921,15.675-31.969,21.143-49.516,25.117c-6.277,1.422-12.615,2.646-18.816,4.374c-4.324,1.204-9.922,2.191-13.39,5.305
			c-3.372,3.028-3.036,6.856-2.458,10.951c0.565,3.993,0.413,7.823-0.517,11.514c-5.03-6.027-9.939-12.159-13.987-18.904
			c-2.178-3.629-3.917-7.546-7.823-9.635c-3.948-2.111-9.079-2.199-13.432-2.577c-18.931-1.644-40.239-4.443-52.627-20.655
			c-12.1-15.835-5.696-37.084,6.437-50.901c16.805-19.137,40.61-23.849,64.96-25.536c16.299-1.129,32.738-0.251,48.822,2.623
			c15.218,2.72,31.763,6.079,43.621,16.66C252.763,41.106,258.688,62.891,246.925,79.775z"/>
	</g>
</g>
<g>
	<g>
		<path d="M217.22,34.962c-38.728-0.581-77.563,0.36-116.284,1.22c-2.803,0.063-2.808,4.297,0,4.359
			c38.72,0.86,77.556,1.801,116.284,1.22C221.594,41.695,221.602,35.028,217.22,34.962z"/>
	</g>
</g>
<g>
	<g>
		<path d="M217.22,54.506c-38.728-0.581-77.563,0.36-116.284,1.22c-2.803,0.063-2.808,4.297,0,4.359
			c38.72,0.86,77.556,1.801,116.284,1.22C221.594,61.24,221.602,54.572,217.22,54.506z"/>
	</g>
</g>
<g>
	<g>
		<path d="M217.22,74.05c-38.728-0.581-77.563,0.36-116.284,1.22c-2.804,0.062-2.809,4.296,0,4.358
			c38.721,0.86,77.557,1.801,116.284,1.221C221.594,80.784,221.602,74.116,217.22,74.05z"/>
	</g>
</g>
<g>
</g>
<g>
</g>
<g>
</g>
<g>
</g>
<g>
</g>
<g>
</g>
<g>
</g>
<g>
</g>
<g>
</g>
<g>
</g>
<g>
</g>
<g>
</g>
<g>
</g>
<g>
</g>
<g>
</g>
</svg>
