<?xml version="1.0" encoding="iso-8859-1"?>
<!-- Generator: Adobe Illustrator 19.0.0, SVG Export Plug-In . SVG Version: 6.00 Build 0)  -->
<svg version="1.1" id="Capa_1" xmlns="http://www.w3.org/2000/svg" xmlns:xlink="http://www.w3.org/1999/xlink" x="0px" y="0px"
	 viewBox="0 0 512 512" style="enable-background:new 0 0 512 512;" xml:space="preserve">
<g>
	<g>
		<path d="M509.853,389.481c-3.65-10.731-14.444-10.454-23.936-10.551c-5.547-0.057-11.094-0.128-16.641-0.202
			c0.945-68.05,2.178-136.097,3.325-204.144c0.286-16.934,0.988-33.911,0.845-50.846c-0.114-13.461-0.657-29.596-9.971-40.313
			c-9.257-10.651-24.378-10.522-37.315-10.394c-17.201,0.171-34.402,0.345-51.602,0.535c-69.145,0.763-138.292,1.8-207.405,4.121
			c-17.188,0.577-34.378,1.054-51.565,1.653c-13.643,0.476-28.824-0.302-41.813,4.582C43.508,95.305,48.48,131.921,48.388,158.08
			c-0.121,34.314,0.034,68.665,1.172,102.963c1.137,34.262,1.962,68.742,4.818,102.909c0.513,6.139,1.008,12.279,1.513,18.418
			c-17.093-0.447-37.229-0.802-48.709,12.139c-11.466,12.925-9.303,32.114,7.209,39.227c7.275,3.134,15.339,3.824,23.18,4.001
			c11.766,0.266,23.538,0.366,35.306,0.515c23.884,0.303,47.769,0.514,71.654,0.632c47.423,0.234,94.848,0.113,142.268-0.441
			c47.766-0.558,95.527-1.486,143.277-2.783c11.764-0.319,23.528-0.645,35.292-0.979c9.986-0.283,22.129,1.202,31.543-2.688
			C512.053,425.736,514.569,403.347,509.853,389.481z M67.145,105.443c6.621-10.615,20.475-12.729,31.951-13.444
			c16.133-1.005,32.308-1.568,48.459-2.227c65.283-2.66,130.712-3.006,196.04-3.509c16.513-0.127,33.026-0.23,49.538-0.323
			c15.412-0.087,31.268-1.246,46.642-0.02c5.794,0.462,11.731,1.981,15.399,6.828c4.075,5.384,5.109,12.822,5.759,19.349
			c1.581,15.874,0.565,32.093,0.297,48.009c-1.227,72.82-2.355,145.642-3.798,218.459c-2.199-0.031-4.398-0.061-6.597-0.091
			c-23.393-0.317-46.789-0.392-70.184-0.225c-43.077,0.307-86.127,1.681-129.146,3.87c-14.589-0.019-29.178-0.022-43.767,0.018
			c-47.321,0.129-94.642,0.239-141.963,0.406c-0.375,0.001-0.757-0.001-1.138-0.003c-1.26-63.493-2.776-126.966-2.823-190.481
			c-0.012-16.475,0.046-32.95,0.222-49.424C62.162,130.764,60.559,116.003,67.145,105.443z M300.677,392.169
			c-0.695,2.952-1.018,6.004-1.528,9.025c-0.612,3.627-1.388,4.147-5.119,4.871c-1.934,0.375-4.063,0.292-6.038,0.411
			c-10.403,0.63-20.842,0.899-31.263,0.631c-10.097-0.259-20.182-0.898-30.231-1.915c-4.858-0.492-11.361,0.303-13.818-4.502
			c-1.168-2.285-1.856-4.812-2.616-7.316C240.272,393.036,270.476,392.631,300.677,392.169z M498.012,403.106
			c-0.02,3.402-0.208,6.92-1.269,10.18c-2.781,8.546-11.392,7.411-18.919,7.698c-11.07,0.423-22.141,0.844-33.214,1.202
			c-44.287,1.432-88.586,2.515-132.889,3.294c-88.603,1.559-177.229,1.989-265.842,1.115c-9.484-0.094-41.146,0.908-34.624-17.18
			c6.647-18.436,35.309-14.354,50.377-14.498c44.212-0.424,88.425-0.896,132.637-1.355c3.246-0.034,6.492-0.081,9.739-0.116
			c0.086,4.155,0.63,8.587,1.963,12.155c1.759,4.709,5.597,6.534,10.333,7.207c13.286,1.887,27.031,2.048,40.428,1.995
			c13.284-0.052,26.83-0.183,40.025-1.876c4.314-0.553,7.445-1.897,9.289-5.999c1.994-4.437,4.034-9.866,4.739-14.909
			c45.999-0.724,91.996-1.569,137.995-2.533c6.19,0.174,12.379,0.359,18.568,0.566c5.506,0.184,11.007,0.481,16.509,0.767
			c2.815,0.146,11.228-0.79,13.257,1.655C498.72,394.415,498.026,400.707,498.012,403.106z"/>
	</g>
</g>
<g>
	<g>
		<path d="M443.607,120.371c-0.25-7.991,0.393-18.715-9.811-20.059c-4.729-0.623-9.739-0.036-14.489,0.071l-17.537,0.397
			c-8.017,0.182-16.034,0.348-24.05,0.516c-29.339-0.461-58.727,0.089-87.997,0.727c-46.399,1.012-92.766,3.072-139.067,6.267
			c-11.66,0.805-23.315,1.675-34.965,2.611c-5.482,0.44-10.964,0.896-16.443,1.365c-5.068,0.434-10.66,0.272-15.575,1.716
			c-7.907,2.322-8.672,10.18-8.313,17.204c0.595,11.671,0.682,23.371,0.899,35.052c0.861,46.382,1.062,92.785,1.567,139.172
			c0.127,11.684,0.254,23.367,0.382,35.051c0.086,7.885-2.21,20.184,3.853,26.478c5.875,6.098,15.956,4.88,23.588,4.849
			c11.412-0.047,22.824-0.095,34.235-0.148c46.689-0.217,93.366-0.63,140.048-1.489c46.671-0.858,93.348-1.917,139.993-3.737
			c7.546-0.294,16.724-0.74,21.307-7.792c2.148-3.306,2.683-7.189,2.897-11.047c0.333-6.021,0.337-12.078,0.482-18.106
			c0.558-23.113,1.049-46.236,1.141-69.357C445.938,213.538,445.064,166.92,443.607,120.371z M215.117,362.463
			c-14.012,0.176-28.024,0.356-42.036,0.569c-21.44,0.326-42.88,0.588-64.321,0.836c-4.617,0.053-9.304,0.354-13.913,0.046
			c-1.969-0.132-4.17-0.356-5.918-1.361c-2.931-1.686-2.914-4.641-3.042-7.659c-0.451-10.635-0.401-21.315-0.59-31.958
			l-2.286-128.863c-0.378-21.381-1.873-43.241-0.476-64.591c0.321-4.9,1.252-7.478,6.439-8.164c5.44-0.72,10.973-1.009,16.439-1.49
			c10.962-0.965,21.928-1.87,32.899-2.718c24.393-1.885,48.796-3.438,73.206-4.723c-0.268,20.369,1.367,40.816,2.168,61.158
			c0.827,21.009,1.435,42.027,1.823,63.049C216.285,278.544,216.271,320.52,215.117,362.463z M436.06,296.344
			c-0.109,10.697-0.252,21.394-0.46,32.089c-0.101,5.175-0.213,10.35-0.342,15.525c-0.12,4.814,0.254,10.27-5.078,12.266
			c-3.853,1.442-8.278,1.237-12.327,1.403c-5.529,0.227-11.058,0.444-16.587,0.653c-11.058,0.418-22.118,0.802-33.178,1.155
			c-21.429,0.685-42.862,1.264-64.298,1.701c-26.793,0.546-53.587,0.887-80.382,1.223c0.649-42.266,0.744-84.535-0.166-126.799
			c-0.46-21.367-1.147-42.729-2.059-64.082c-0.845-19.773-1.392-39.742-4.01-59.384c47.461-2.415,94.959-3.812,142.496-4.544
			c22.629,0.062,45.259,0.033,67.891,0.161c2.428,0.014,4.513-0.485,5.991,1.55c1.437,1.981,0.842,5.612,0.921,8.005
			c0.181,5.519,0.351,11.037,0.508,16.557c0.306,10.694,0.567,21.389,0.785,32.084c0.442,21.738,0.619,43.474,0.606,65.217
			C436.357,252.864,436.281,274.606,436.06,296.344z"/>
	</g>
</g>
<g>
	<g>
		<path d="M105.512,150.349c-2.9,0.845-5.716,2.641-8.156,5.608c-2.692,3.274-4.709,7.208-5.183,11.42
			c-2.223,19.768,25.246,22.115,32.674,6.552C131.444,160.107,117.729,146.788,105.512,150.349z M117.58,173.003
			c-5.196,7.357-18.912,6.875-19.649-3.698c-0.244-3.504,1.322-6.966,3.675-9.575C110.668,149.681,124.469,163.248,117.58,173.003z"
			/>
	</g>
</g>
<g>
	<g>
		<path d="M105.512,197.858c-2.9,0.845-5.716,2.641-8.156,5.608c-2.692,3.274-4.709,7.207-5.183,11.42
			c-2.223,19.768,25.246,22.115,32.674,6.552C131.444,207.616,117.729,194.297,105.512,197.858z M117.58,220.512
			c-5.196,7.356-18.912,6.874-19.649-3.698c-0.244-3.504,1.322-6.966,3.675-9.575C110.668,197.19,124.469,210.757,117.58,220.512z"
			/>
	</g>
</g>
<g>
	<g>
		<path d="M105.512,245.367c-2.9,0.845-5.716,2.641-8.156,5.609c-2.692,3.274-4.709,7.207-5.183,11.42
			c-2.223,19.767,25.246,22.114,32.674,6.551C131.444,255.126,117.729,241.807,105.512,245.367z M117.58,268.021
			c-5.196,7.357-18.912,6.875-19.649-3.698c-0.244-3.504,1.322-6.966,3.675-9.575C110.668,244.699,124.469,258.266,117.58,268.021z"
			/>
	</g>
</g>
<g>
	<g>
		<path d="M105.512,292.876c-2.9,0.845-5.716,2.642-8.156,5.608c-2.692,3.274-4.709,7.207-5.183,11.42
			c-2.223,19.768,25.246,22.116,32.674,6.552C131.444,302.634,117.729,289.315,105.512,292.876z M117.58,315.531
			c-5.196,7.356-18.912,6.874-19.649-3.699c-0.244-3.504,1.322-6.966,3.675-9.574C110.668,292.209,124.469,305.776,117.58,315.531z"
			/>
	</g>
</g>
<g>
	<g>
		<path d="M189.158,164.295c-17.929-1.201-36.059,0.325-53.998,0.995c-2.669,0.099-2.674,4.05,0,4.15
			c17.939,0.67,36.069,2.196,53.998,0.995C193.105,170.171,193.112,164.56,189.158,164.295z"/>
	</g>
</g>
<g>
	<g>
		<path d="M189.158,212.765c-17.929-1.201-36.059,0.325-53.998,0.995c-2.669,0.1-2.674,4.051,0,4.15
			c17.939,0.671,36.069,2.197,53.998,0.995C193.105,218.641,193.112,213.029,189.158,212.765z"/>
	</g>
</g>
<g>
	<g>
		<path d="M187.836,258.586c-17.929-1.201-36.059,0.325-53.998,0.995c-2.67,0.099-2.674,4.05,0,4.15
			c17.939,0.67,36.069,2.196,53.998,0.995C191.783,264.462,191.79,258.851,187.836,258.586z"/>
	</g>
</g>
<g>
	<g>
		<path d="M189.158,307.627c-17.929-1.202-36.059,0.324-53.998,0.995c-2.669,0.099-2.674,4.051,0,4.151
			c17.939,0.67,36.069,2.196,53.998,0.995C193.104,313.503,193.112,307.892,189.158,307.627z"/>
	</g>
</g>
<g>
	<g>
		<path d="M352.727,134.008c-4.4-7.569-13.281-7.675-21.021-7.953c-10.593-0.379-21.201-0.323-31.79,0.169
			c-11.264,0.521-22.505,1.537-33.681,3.039c-9.484,1.275-24.92,1.176-32.497,7.483c-4.428,3.685-4.518,10.389-4.868,15.687
			c-0.478,7.228,0.142,14.646,1.782,21.705c1.249,5.372,3.589,9.694,9.2,11.251c6.003,1.666,12.908,2.193,19.288,2.255
			c0.556,4.305,0.92,8.645,1.498,12.946c0.444,3.298,0.136,8.433,2.989,10.783c6.163,5.076,11.89-6.171,14.349-10.093
			c1.173-1.871,2.261-3.782,3.308-5.726c1.4-2.602,3.091-3.203,5.962-3.771c5.166-1.021,10.77-0.992,16.019-1.464l29.034-2.614
			c7.538-0.678,15.013-0.801,19.533-7.79c4.248-6.569,5.694-15.411,5.773-23.1C357.681,149.378,356.527,140.547,352.727,134.008z
			 M348.755,166.341c-0.767,3.441-1.699,8.033-4.253,10.668c-3.201,3.302-8.916,2.83-13.203,3.248l-28.033,2.733
			c-4.672,0.455-9.342,0.938-14.016,1.366c-3.261,0.298-7.259,0.114-10.133,1.975c-2.772,1.795-4.089,5.184-5.667,7.924
			c-0.699,1.214-3.537,6.999-5.617,9.603c-0.531-2.393-0.596-5.666-0.853-7.221c-0.672-4.073-1.392-8.177-1.673-12.299
			c-0.131-1.923-1.418-3.112-3.304-3.304c-6.045-0.616-12.116-1.053-18.069-2.345c-6.293-1.365-6.738-7.413-7.538-13.005
			c-0.872-6.08-0.993-12.861,0.308-18.896c1.501-6.944,13.286-7.518,19.099-8.448c25.788-4.13,51.989-5.676,78.083-4.608
			C350.439,134.409,351.672,153.259,348.755,166.341z"/>
	</g>
</g>
<g>
	<g>
		<path d="M352.727,274.451c-4.4-7.569-13.281-7.675-21.021-7.953c-10.593-0.38-21.201-0.323-31.79,0.169
			c-11.264,0.521-22.505,1.537-33.681,3.039c-9.484,1.275-24.92,1.176-32.497,7.483c-4.428,3.685-4.518,10.389-4.868,15.687
			c-0.478,7.228,0.142,14.646,1.782,21.705c1.249,5.372,3.589,9.694,9.2,11.251c6.003,1.666,12.908,2.193,19.288,2.255
			c0.556,4.305,0.92,8.645,1.498,12.946c0.444,3.298,0.136,8.433,2.989,10.783c6.163,5.076,11.89-6.171,14.349-10.093
			c1.173-1.871,2.261-3.781,3.308-5.726c1.4-2.602,3.091-3.203,5.962-3.771c5.166-1.021,10.77-0.992,16.019-1.464l29.034-2.614
			c7.538-0.678,15.013-0.801,19.533-7.79c4.248-6.569,5.694-15.411,5.773-23.101C357.681,289.82,356.527,280.989,352.727,274.451z
			 M348.755,306.785c-0.767,3.441-1.699,8.033-4.253,10.668c-3.201,3.302-8.916,2.83-13.203,3.248l-28.033,2.733
			c-4.672,0.455-9.342,0.938-14.016,1.366c-3.261,0.298-7.259,0.114-10.133,1.975c-2.772,1.795-4.089,5.184-5.667,7.924
			c-0.699,1.215-3.537,6.999-5.617,9.603c-0.531-2.393-0.596-5.666-0.853-7.221c-0.672-4.073-1.392-8.177-1.673-12.299
			c-0.131-1.923-1.418-3.112-3.304-3.304c-6.045-0.616-12.116-1.053-18.069-2.345c-6.293-1.365-6.738-7.413-7.538-13.004
			c-0.872-6.082-0.993-12.862,0.308-18.897c1.501-6.944,13.286-7.517,19.099-8.448c25.788-4.13,51.989-5.676,78.083-4.608
			C350.439,274.853,351.672,293.703,348.755,306.785z"/>
	</g>
</g>
<g>
	<g>
		<path d="M424.217,222.48c-0.35-5.297-0.441-12.001-4.868-15.687c-7.576-6.307-23.013-6.208-32.497-7.482
			c-11.175-1.502-22.417-2.518-33.681-3.039c-10.588-0.49-21.197-0.547-31.79-0.168c-7.741,0.278-16.622,0.383-21.021,7.953
			c-3.8,6.538-4.954,15.37-4.877,22.807c0.079,7.689,1.525,16.532,5.773,23.1c4.52,6.989,11.995,7.112,19.533,7.79l29.034,2.614
			c5.248,0.472,10.853,0.443,16.019,1.464c2.871,0.568,4.562,1.169,5.962,3.771c1.047,1.945,2.135,3.855,3.308,5.726
			c2.459,3.922,8.186,15.169,14.349,10.093c2.853-2.35,2.546-7.485,2.989-10.783c0.578-4.301,0.943-8.64,1.498-12.946
			c6.38-0.061,13.286-0.589,19.288-2.255c5.61-1.557,7.951-5.879,9.199-11.253C424.074,237.127,424.694,229.708,424.217,222.48z
			 M416.694,235.734c-0.8,5.591-1.245,11.639-7.538,13.005c-5.953,1.292-12.025,1.729-18.069,2.345
			c-1.887,0.192-3.173,1.381-3.304,3.304c-0.281,4.122-1.001,8.226-1.674,12.299c-0.257,1.555-0.322,4.828-0.853,7.221
			c-2.08-2.604-4.918-8.389-5.617-9.603c-1.578-2.74-2.895-6.129-5.667-7.924c-2.874-1.861-6.872-1.676-10.133-1.975
			c-4.674-0.428-9.344-0.911-14.016-1.366l-28.033-2.733c-4.287-0.418-10.002,0.054-13.203-3.248
			c-2.554-2.635-3.486-7.227-4.253-10.668c-2.917-13.082-1.684-31.932,14.869-32.609c26.094-1.067,52.294,0.479,78.082,4.608
			c5.812,0.931,17.598,1.504,19.099,8.448C417.685,222.873,417.564,229.653,416.694,235.734z"/>
	</g>
</g>
<g>
</g>
<g>
</g>
<g>
</g>
<g>
</g>
<g>
</g>
<g>
</g>
<g>
</g>
<g>
</g>
<g>
</g>
<g>
</g>
<g>
</g>
<g>
</g>
<g>
</g>
<g>
</g>
<g>
</g>
</svg>
