<?xml version="1.0" encoding="iso-8859-1"?>
<!-- Generator: Adobe Illustrator 19.0.0, SVG Export Plug-In . SVG Version: 6.00 Build 0)  -->
<svg version="1.1" id="Capa_1" xmlns="http://www.w3.org/2000/svg" xmlns:xlink="http://www.w3.org/1999/xlink" x="0px" y="0px"
	 viewBox="0 0 512.001 512.001" style="enable-background:new 0 0 512.001 512.001;" xml:space="preserve">
<g>
	<g>
		<path d="M511.899,189.79c-1.2-32.773-11.444-64.341-36.738-86.232c0.71-19.244,1.123-38.52,0.287-57.764
			c-0.331-7.624-2.288-16.272-11.575-16.784c-4.457-0.246-9.215,1.415-13.527,2.33c-5.374,1.141-10.745,2.291-16.115,3.449
			c-41.164,8.876-82.28,18.08-123.162,28.181c-45.509,11.244-91.091,22.469-135.522,37.477c-5.014-3.106-11.37-4.138-17.994-4.217
			c-21.507-0.26-43.379,1.304-64.675,5.202c-9.92,0.956-21.838,1.188-30.545,6.043c-9.021,5.029-12.63,14.437-15.024,23.932
			c-1.769,7.018-2.561,14.176-2.935,21.369c-6.099-0.589-11.972-0.606-18.216,0.237c-6.218,0.839-13.965,1.525-19.575,4.503
			c-5.836,3.097-6.473,9.287-6.525,15.228c-0.064,7.479-0.111,14.971,0.061,22.449c0.171,7.477,0.579,14.946,1.166,22.402
			c0.483,6.152-0.01,14.021,5.26,18.276c4.803,3.878,12.623,4.266,18.497,5.016c6.218,0.795,12.6,1.25,18.885,0.862
			c0,0.139-0.001,0.277-0.001,0.415c-0.01,10.457-0.233,21.811,6.154,30.705c6.04,8.41,16.471,13.02,26.073,16.034
			c1.086,0.341,2.183,0.643,3.281,0.941c-6.304,28.593-14.12,56.842-20.38,85.449c-3.323,15.187-6.054,30.506-7.941,45.94
			c-1.653,13.523-3.657,29.1,1.876,42.034c5.541,12.951,21.955,15.116,34.298,17.215c7.573,1.288,15.247,2.12,22.928,2.334
			c6.819,0.19,14.746,0.852,21.104-2.061c12.439-5.701,13.85-23.207,15.435-35.047c2.099-15.679,3.1-31.555,3.858-47.349
			c0.457-9.52,0.724-19.051,0.849-28.584c8.326,1.933,20.271,0.433,24.279-7.721c1.895-3.856,1.481-8.414,1.464-12.577
			l-0.071-17.806c-0.03-7.438,0.363-16.155-5.685-21.596c-5.159-4.641-14.065-4.465-21.342-2.888
			c-0.237-3.839-0.594-7.671-1.259-11.415c9.118,0.499,19.979,1.642,27.684-3.248c36.658,11.619,73.968,21.424,110.939,32.003
			c37.206,10.647,74.401,21.332,111.596,32.019c20.385,5.857,40.854,11.456,61.787,15.008c4.578,0.777,9.451-1.93,9.354-7.125
			c-0.495-26.528-0.74-53.057-0.651-79.586c1.25,0.029,2.541-0.311,3.785-1.154C503.175,263.458,513.144,223.818,511.899,189.79z
			 M44.028,166.181c-0.112,12.351-0.053,24.705-0.065,37.057c-0.008,8.395-0.016,16.791-0.024,25.186
			c-4.179,0.099-8.347,0.184-12.54-0.112c-2.956-0.209-5.894-0.543-8.817-1.029c-1.568-0.261-6.62-0.434-7.713-1.604
			c-1.051-1.125-0.813-6.52-0.985-8.087c-0.234-2.128-0.448-4.259-0.639-6.391c-0.51-5.683-0.881-11.379-1.127-17.08
			c-0.246-5.694-0.432-11.406-0.264-17.104c0.059-2.003-0.077-4.439,0.271-6.413c0.522-2.957,1.905-3.011,4.699-4.066
			c8.696-3.285,18.078-5.538,27.315-7.221C44.085,161.606,44.049,163.895,44.028,166.181z M162.658,317.55
			c3.919,2.056,2.616,9.352,2.476,13.006c-0.242,6.306-0.483,12.613-0.724,18.919c-0.079,2.055,0.501,5.205-1.068,6.571
			c-2.089,1.819-8.038,0.497-10.395,0.112c-0.489-0.08-0.959-0.112-1.414-0.109c-0.008-3.489-0.02-6.978-0.067-10.466
			c-0.117-8.796-0.365-17.594-0.798-26.381c-0.05-1.016-0.095-2.038-0.138-3.063C154.793,316.099,159.555,315.922,162.658,317.55z
			 M137.877,377.475c-0.406,14.295-1.207,28.579-2.402,42.83c-1.115,13.301-2.101,26.891-5.561,39.832
			c-1.489,5.569-3.054,8.393-9.11,8.747c-7.017,0.411-14.173-0.009-21.152-0.765c-6.39-0.692-12.731-1.903-18.961-3.475
			c-5.267-1.328-12.469-2.028-14.816-7.604c-4.891-11.624-2.274-26.89-0.97-38.997c1.465-13.596,3.751-27.083,6.265-40.52
			c5.361-28.657,12.126-56.994,16.64-85.801c7.274,1.326,14.698,1.985,22.029,2.457c8.68,0.559,17.379,0.907,26.077,1.174
			c-0.236,6.112,0.516,12.236,0.855,18.355c0.406,7.322,0.754,14.647,0.989,21.976C138.207,349.615,138.273,363.545,137.877,377.475
			z M173.522,270.265c-0.692,3.284-1.173,8.978-4.199,11.063c-3.6,2.48-10.158,1.388-14.258,1.357
			c-10.38-0.078-20.76-0.283-31.135-0.616c-18.97-0.609-39.905-0.702-56.704-10.794c-9.119-5.479-10.406-14.053-10.691-23.969
			c-0.315-10.978-0.41-21.966-0.613-32.947c-0.388-21.023-2.01-42.455-0.289-63.436c0.83-10.12,2.355-22.326,10.007-29.813
			c3.694-3.614,8.794-4.179,13.699-4.837c5.778-0.776,11.579-1.404,17.382-1.96c18.045-1.729,36.227-3.377,54.38-4.552
			c1.792,0.055,3.584,0.108,5.374,0.192c3.802,0.18,9.63-0.195,12.565,2.769c2.436,2.46,2.617,7.176,3.058,10.383
			c0.801,5.814,1.463,11.654,2.08,17.49c2.277,21.531,3.431,43.182,3.457,64.833C177.664,226.817,177.947,249.252,173.522,270.265z
			 M411.782,283.395c-0.67,20.391-1.251,40.757-2.619,61.107c-18.055-5.001-35.987-10.507-53.9-15.66
			c-37.283-10.726-74.566-21.452-111.849-32.178c-19.37-5.573-38.686-11.444-58.173-16.605c1.888-5.803,2.572-12.287,3.313-17.597
			c1.671-11.96,2.31-24.06,2.775-36.118c0.989-25.655,0.183-51.414-2.105-76.981c-0.622-6.943-1.352-13.879-2.218-20.796
			c-0.717-5.724-1.034-11.884-2.983-17.361c-0.592-1.664-1.324-3.135-2.157-4.466c37.384-7.48,74.354-16.726,111.492-25.364
			c38.893-9.046,77.834-17.915,116.871-26.321c5.826-1.255,11.659-2.478,17.489-3.713c-2.793,16.393-4.022,33.129-5.509,49.641
			c-1.822,20.226-3.119,40.495-4.351,60.765C415.398,202.264,413.116,242.825,411.782,283.395z M461.095,106.348
			c-1.575,40.18-4.107,80.298-5.179,120.502c-1.143,42.894-1.426,85.823-0.649,128.727c-11.841-2.276-23.592-5.075-35.283-8.151
			c-0.551-38.671,2.142-77.415,4.024-116.023c1.96-40.193,5.058-80.308,7.346-120.479c1.151-20.214,3.035-40.644,2.743-60.935
			c2.079-0.438,4.155-0.889,6.235-1.324c4.661-0.975,9.324-1.945,13.988-2.908c1.996-0.412,4.6-0.511,6.459-1.329
			c0.127-0.026,0.254-0.052,0.381-0.078c0.062,0.523,0.148,1.043,0.166,1.445C462.209,65.962,461.886,86.181,461.095,106.348z
			 M490.361,238.118c-4.74,11.538-11.837,20.76-20.69,28.946c0.092-10.077,0.231-20.154,0.43-30.23
			c0.792-40.164,2.897-80.248,4.548-120.375c16.944,19.187,22.813,47.551,23.531,72.286
			C498.666,205.481,496.767,222.525,490.361,238.118z"/>
	</g>
</g>
<g>
	<g>
		<path d="M148.756,141.78c-22.616-0.79-45.382,0.221-67.997,0.794c-3.378,0.086-3.384,5.166,0,5.252
			c22.615,0.573,45.381,1.584,67.997,0.794C153.155,148.466,153.163,141.933,148.756,141.78z"/>
	</g>
</g>
<g>
	<g>
		<path d="M148.756,161.561c-22.616-0.79-45.382,0.221-67.997,0.794c-3.378,0.086-3.384,5.166,0,5.252
			c22.615,0.573,45.381,1.584,67.997,0.794C153.155,168.247,153.163,161.714,148.756,161.561z"/>
	</g>
</g>
<g>
	<g>
		<path d="M148.756,181.342c-22.616-0.79-45.382,0.221-67.997,0.794c-3.378,0.086-3.384,5.166,0,5.252
			c22.615,0.573,45.381,1.584,67.997,0.794C153.155,188.028,153.163,181.496,148.756,181.342z"/>
	</g>
</g>
<g>
	<g>
		<path d="M148.756,201.123c-22.616-0.79-45.382,0.221-67.997,0.794c-3.378,0.086-3.384,5.166,0,5.252
			c22.615,0.573,45.381,1.584,67.997,0.794C153.155,207.809,153.163,201.277,148.756,201.123z"/>
	</g>
</g>
<g>
	<g>
		<path d="M148.756,220.904c-22.616-0.79-45.382,0.221-67.997,0.794c-3.378,0.086-3.384,5.166,0,5.252
			c22.615,0.573,45.381,1.584,67.997,0.794C153.155,227.59,153.163,221.058,148.756,220.904z"/>
	</g>
</g>
<g>
	<g>
		<path d="M148.756,240.685c-22.616-0.79-45.382,0.221-67.997,0.794c-3.378,0.086-3.384,5.166,0,5.252
			c22.615,0.573,45.381,1.584,67.997,0.794C153.155,247.371,153.163,240.839,148.756,240.685z"/>
	</g>
</g>
<g>
</g>
<g>
</g>
<g>
</g>
<g>
</g>
<g>
</g>
<g>
</g>
<g>
</g>
<g>
</g>
<g>
</g>
<g>
</g>
<g>
</g>
<g>
</g>
<g>
</g>
<g>
</g>
<g>
</g>
</svg>
