<?xml version="1.0" encoding="iso-8859-1"?>
<!-- Generator: Adobe Illustrator 19.0.0, SVG Export Plug-In . SVG Version: 6.00 Build 0)  -->
<svg version="1.1" id="Capa_1" xmlns="http://www.w3.org/2000/svg" xmlns:xlink="http://www.w3.org/1999/xlink" x="0px" y="0px"
	 viewBox="0 0 512 512" style="enable-background:new 0 0 512 512;" xml:space="preserve">
<g>
	<g>
		<path d="M502.901,342.83c-5.252-22.276-12.244-44.103-20.003-65.621c-3.298-9.145-6.439-18.631-12.521-26.36
			c-6.181-7.856-14.878-12.165-24.492-14.372c-10.832-2.487-22.1-3.755-33.164-4.659c-11.288-0.922-23.019-1.78-34.096,1.136
			c-4.101,1.08-8.123,2.466-12.132,3.935c-0.859-8.215-2.878-16.487-4.461-24.525c-1.749-8.878-3.271-17.98-5.784-26.68
			c-1.871-6.478-5.113-12.842-11.259-16.165c-7.382-3.991-17.372-3.57-25.516-4.099c-19.48-1.267-38.969-1.044-58.437,0.278
			c-8.679,0.589-18.482,0.363-26.727,3.43c-6.795,2.527-11.374,7.863-14.26,14.38c-3.896,8.796-5.777,18.535-8.168,27.813
			c-1.864,7.231-3.859,14.683-5.119,22.163c-3.119-0.777-6.266-1.433-9.46-1.894c-10.852-1.567-21.796-1.782-32.736-1.228
			c-11.339,0.574-22.84,1.478-34.072,3.178c-9.444,1.429-17.642,5.509-22.998,13.638c-5.789,8.787-9.209,19.736-13.148,29.442
			c-4.107,10.118-7.893,20.368-11.351,30.726c-6.867,20.569-12.651,41.477-17.045,62.712c-0.059-0.009-0.113-0.022-0.173-0.03
			c-13.255-1.75-28.315-9.556-29.851-24.267c-1.708-16.358,10.055-31.983,17.423-45.628c6.978-12.922,13.09-27.145,11.738-42.163
			c-1.378-15.319-9.228-28.821-18.8-40.502c-5.472-6.677-12.875-12.68-10.595-22.235c1.627-6.819,6.51-12.655,12.202-16.946
			c1.03,5.338,2.353,10.566,4.003,15.611c3.002,9.176,8.192,17.589,16.862,22.329c8.182,4.473,17.783,5.484,26.963,5.227
			c23.314-0.654,47.141-5.229,69.92-9.958c9.995-2.075,21.449-3.433,29.785-9.808c7.558-5.78,11.418-14.908,13.074-24.061
			c1.916-10.591,0.967-21.85,4.598-32.1c2.848-8.039,9.314-13.558,16.686-17.406c8.074-4.214,17.133-6.422,25.994-8.287
			c11.133-2.343,22.349-4.314,33.531-6.411c16.761-3.142,42.339-10.014,53.818,7.361c8.581,12.989,8.102,30.663,19.705,41.952
			c6.587,6.408,15.525,8.526,24.5,8.326c11.483-0.257,23.166-2.262,34.451-4.284c11.958-2.143,23.801-4.934,35.454-8.37
			c10.434-3.077,21.798-6.086,31.124-11.863c18.457-11.434,18.895-32.569,15.339-51.801c-2.197-11.881-5.494-23.565-9.809-34.85
			c-3.714-9.713-7.762-19.618-14.191-27.883c-12.96-16.662-34.494-18.973-54.176-17.555c-23.999,1.728-48.017,5.566-71.665,9.909
			c-0.48,0.088-0.959,0.183-1.439,0.272c-70.22,8.299-140.133,19.704-209.079,35.058c-21.924,4.882-44.772,9.868-65.363,19.069
			c-8.777,3.922-17.09,9.311-22.828,17.166c-5.956,8.155-7.943,18.058-9.008,27.904c-1.039,9.6-1.444,19.663-1.039,29.734
			c-17.02,6.504-33.634,19.43-40.693,36.402c-3.939,9.469-2.797,19.08,2.664,27.677c5.587,8.795,13.224,15.861,17.623,25.473
			c10.422,22.778-4.222,44.142-14.301,63.991c-9.769,19.238-15.849,41.64-3.421,61.192c11.612,18.267,32.53,30.561,53.878,33.189
			c-1.102,11.172-1.237,22.404,0.399,33.568c2.737,18.681,11.012,40.524,29.128,49.286c9.147,4.424,19.131,5.67,29.103,6.874
			c11.809,1.426,23.65,2.58,35.509,3.5c47.477,3.683,95.113,3.849,142.681,2.088c46.948-1.737,94.161-4.243,140.935-8.713
			c19.693-1.882,39.592-6.486,53.434-21.705c13.837-15.214,19.395-35.602,19.905-55.792
			C512.522,387.94,508.08,364.795,502.901,342.83z M193.179,185.21c-4.433,9.528-14.103,11.133-23.433,13.314
			c-11.337,2.651-22.763,4.931-34.243,6.874c-11,1.862-22.078,3.521-33.188,4.565c-8.449,0.793-17.842,1.359-25.856-1.993
			c-9.641-4.032-13.492-13.391-15.799-22.92c-0.921-3.805-1.69-7.647-2.331-11.511c23.568-0.602,47.112-3.497,70.499-6.258
			c22.894-2.703,45.68-5.992,68.482-9.337C196.643,167.067,197.12,176.738,193.179,185.21z M492.198,104.282
			c1.117,8.599,1.386,18.892-4.098,26.18c-5.934,7.886-17.225,10.807-26.128,13.8c-10.525,3.538-21.232,6.548-32.06,9.013
			c-11.002,2.505-22.138,4.494-33.346,5.817c-8.927,1.054-19.481,2.498-26.383-4.587c-6.389-6.558-8.656-15.914-11.444-24.922
			c10.1-0.563,20.622-3.69,30.356-5.54c11.859-2.254,23.735-4.438,35.567-6.832l34.397-6.96c10.938-2.214,22.194-3.906,33.034-6.686
			C492.126,103.804,492.167,104.043,492.198,104.282z M71.992,94.622c7.519-5.281,16.384-8.387,25.022-11.293
			c10.843-3.648,21.851-6.785,32.932-9.623c44.498-11.396,89.876-19.965,135.151-27.61c17.665-2.983,35.381-5.724,53.134-8.215
			c0.534,0.192,1.136,0.267,1.807,0.146c3.523-0.635,7.051-1.24,10.582-1.83c24.782-3.307,49.63-6.126,74.516-8.377
			c7.783-0.704,15.571-1.346,23.361-1.963c7.603-0.151,15.263,0.231,22.599,2.316c19.914,5.659,27.646,26.838,33.537,44.692
			c2.121,6.429,4.027,13.028,5.494,19.7c-10.34,1.57-20.606,4.1-30.839,6.171c-12.182,2.465-24.364,4.93-36.546,7.395
			c-11.816,2.391-23.593,4.98-35.38,7.511c-10.311,2.214-21.724,3.531-31.714,7.301c-0.861-2.001-1.823-3.933-2.977-5.736
			c-9.551-14.929-26.882-18.142-43.443-16.598c-10.185,0.95-20.261,3.071-30.32,4.859c-10.035,1.784-20.137,3.316-30.123,5.356
			c-15.701,3.208-32.475,8.662-42.578,21.901c-3.978,5.212-6.257,11.073-7.559,17.266c-24.309,3.55-48.693,6.678-73.044,9.921
			c-22.723,3.025-45.603,5.56-68.145,9.792c-0.693-5.287-1.152-10.605-1.387-15.926C55.218,132.43,54.314,107.039,71.992,94.622z
			 M62.247,390.373c-17.651-2.313-34.622-11.022-44.649-26.111c-12.306-18.519-3.512-38.614,5.895-56.256
			c9.107-17.077,18.924-35.114,15.493-55.157c-1.518-8.868-5.703-17.214-10.997-24.415c-5.073-6.902-12.414-13.038-15.473-21.214
			c-4.152-11.097,4.366-22.224,11.694-29.758c6.145-6.318,13.505-11.485,21.442-15.369c0.238,2.702,0.54,5.395,0.907,8.071
			c-12.66,6.402-23.542,19.102-20.926,34.086c1.482,8.483,8.015,14.294,13.17,20.704c5.706,7.096,10.776,15.11,13.491,23.857
			c5.771,18.591-2.668,35.317-11.606,51.261c-8.526,15.209-19.257,32.508-15.112,50.709c3.997,17.552,21.768,27.14,38.351,29.57
			C63.319,383.68,62.749,387.021,62.247,390.373z M221.811,215.168c2.718-8.945,4.639-18.877,8.751-27.302
			c4.393-9.004,12.787-9.472,21.838-10.379c10.781-1.081,21.605-1.581,32.438-1.689c10.831-0.107,21.666,0.204,32.474,0.933
			c5.033,0.34,10.106,0.656,15.111,1.294c4.315,0.551,7.963,1.256,10.3,5.175c2.15,3.607,2.799,8.136,3.651,12.182
			c1.042,4.948,2.031,9.909,2.983,14.875c1.955,10.206,2.959,20.852,5.531,30.915c-3.745,1.325-7.533,2.543-11.417,3.478
			c-12.925,3.112-26.139,5.017-39.414,5.712c-18.236,0.954-36.595-0.377-54.491-4.015c-11.716-2.382-22.89-6.898-34.277-10.448
			C217.778,229.097,219.725,222.029,221.811,215.168z M459.99,469.863c-18.888,5.876-39.922,5.559-59.492,7.032
			c-22.352,1.683-44.711,3.278-67.088,4.583c-44.309,2.584-88.724,4.03-133.104,2.721c-21.97-0.648-43.905-2.011-65.769-4.282
			c-18.995-1.972-40.738-2.199-52.029-20.115c-5.6-8.886-8.518-18.862-9.784-29.135c15.959,13.516,36.498,20.145,57.094,23.888
			c30.512,5.545,61.827,7.05,92.782,7.534c32.494,0.509,64.986-0.63,97.436-2.244c32.075-1.595,64.242-3.059,96.166-6.678
			c25.492-2.89,54.918-5.49,77.489-19.331C489.033,450.271,479.058,463.931,459.99,469.863z M496.694,416.903
			c-21.334,16.859-50.098,20.578-76.256,23.817c-30.441,3.77-61.136,5.302-91.747,6.978c-61.363,3.359-122.894,5.048-184.104-1.684
			c-25.541-2.809-53.212-8.539-72.629-26.446c-0.107-5.573,0.151-11.152,0.647-16.616c1.842-20.295,6.604-40.508,11.848-60.162
			c5.463-20.471,12.268-40.533,20.309-60.134c3.763-9.172,7.453-19.246,13.032-27.507c5.432-8.042,15.132-8.353,23.949-9.29
			c13.964-1.484,27.786-2.325,41.825-2.006c13.794,0.313,25.809,4.496,38.973,8.159c11.166,3.108,22.67,4.809,34.158,6.345
			c20.217,2.704,40.669,4.926,60.98,3.049c19.498-1.802,38.386-7.347,56.874-13.563c8.727-2.934,14.837-4.532,23.99-4.242
			c9.793,0.311,19.552,1.563,29.211,3.149c8.837,1.451,19.447,2.539,26.86,8.033c7.045,5.222,10.192,14.407,13.075,22.317
			c3.681,10.1,7.194,20.263,10.453,30.507c6.51,20.459,12.009,41.273,15.65,62.444C496.23,384.221,498.099,401.024,496.694,416.903z
			"/>
	</g>
</g>
<g>
	<g>
		<path d="M431.261,394.37c-2.955-14.624-7.516-28.98-12.052-43.176c-4.565-14.283-9.488-28.448-14.526-42.57
			c-2.402-6.732-4.835-13.451-7.473-20.095c-2.202-5.547-4.743-10.595-10.582-12.964c-5.775-2.342-12.782-1.542-18.87-1.577
			c-7.981-0.046-15.962-0.241-23.942-0.385c-15.236-0.276-30.471-0.553-45.707-0.829c-33.651-0.611-67.564-2.652-101.209-1.686
			c-7.015,0.201-9.496,3.101-11.103,9.595c-2.098,8.481-4.077,16.992-6.139,25.482c-0.724,2.983-1.465,5.963-2.192,8.946
			c-4.708,15.464-9.048,31.038-12.895,46.762c-3.542,14.473-6.718,29.031-9.594,43.65c-1.98,10.065-8.098,25.993,6.004,29.558
			c5.857,1.481,12.449,0.844,18.441,1.105c7.95,0.346,15.9,0.685,23.85,1.006c15.184,0.614,30.371,1.164,45.562,1.57
			c30.346,0.811,60.719,1.055,91.064,0.091c15.149-0.481,30.293-1.247,45.405-2.424c7.199-0.561,14.39-1.23,21.571-1.983
			c6.407-0.673,14.678-0.263,20.496-3.343c5.466-2.895,6.431-8.449,6.446-14.119C433.835,409.402,432.76,401.789,431.261,394.37z
			 M397.397,326.327c1.077,2.969,2.145,5.942,3.19,8.922c3.926,11.202,7.684,22.465,11.176,33.81
			c-21.513-1.24-43.042-2.414-64.581-3.459c-0.589-1.85-1.179-3.698-1.768-5.546c-3.668-11.519-7.386-23.022-11.156-34.508
			c3.293,0.041,6.586,0.089,9.879,0.124C361.744,325.858,379.787,327.254,397.397,326.327z M341.399,374.362
			c1.785,5.809,3.559,11.621,5.288,17.446c1.362,4.587,3.469,10.278,4.651,15.987c-19.232-0.484-38.464-1-57.697-1.513
			c-21.581-0.576-43.159-1.346-64.742-1.819c-0.1-0.002-0.199-0.005-0.299-0.007c0.71-3.5,1.57-6.984,2.337-10.423
			c1.821-8.161,3.642-16.322,5.462-24.483C271.383,371.372,306.391,372.884,341.399,374.362z M238.145,361.727
			c0.442-1.981,0.884-3.962,1.326-5.943c2.296-10.291,4.563-20.586,6.81-30.885c14.4,0.006,28.796-0.044,43.157,0.097
			c12.159,0.119,24.318,0.286,36.477,0.447c3.204,9.849,6.49,19.657,9.492,29.456c1.052,3.435,2.111,6.869,3.17,10.302
			C305.113,363.632,271.628,362.387,238.145,361.727z M356.876,285.312c6.525,0.166,13.073,0.27,19.589,0.663
			c3.272,0.197,5.646,0.091,7.47,3.079c1.57,2.572,2.225,6.05,3.21,8.895c2.311,6.679,4.744,13.316,7.177,19.954
			c-16.237-1.1-32.888-0.318-49.091-0.474c-4.554-0.044-9.108-0.074-13.663-0.095c-3.65-11.042-7.332-22.227-11.88-32.969
			L356.876,285.312z M276.344,283.26l37.735,0.961c2.51,11.121,5.747,22.136,9.219,33.088c-11.287-0.028-22.575-0.015-33.861-0.001
			c-13.794,0.017-27.634-0.083-41.482-0.079c2.487-11.479,4.931-22.968,7.333-34.467
			C262.307,282.919,269.325,283.082,276.344,283.26z M190.465,300.087c0.763-2.809,1.53-5.617,2.295-8.425
			c0.467-1.716,1.597-9.609,2.96-10.581c1.161-0.828,7.123,0.299,8.798,0.382c3.265,0.162,6.526,0.308,9.794,0.382
			c6.892,0.156,13.785,0.311,20.677,0.466c4.772,0.108,9.544,0.213,14.316,0.318c-2.847,11.528-5.649,23.066-8.408,34.613
			c-18.517,0.062-37.035,0.377-55.464,1.486C187.11,312.514,188.779,306.298,190.465,300.087z M179.213,341.961
			c1.617-6.072,3.245-12.142,4.876-18.211c18.288,0.896,36.639,1.098,54.991,1.14c-2.791,11.748-5.556,23.503-8.296,35.266
			c-0.111,0.477-0.227,0.953-0.339,1.43c-18.52-0.315-37.038-0.455-55.551-0.363C176.291,354.794,177.724,348.372,179.213,341.961z
			 M188.093,425.498c-7.194-0.281-14.51-0.224-21.673-0.963c-3.945-0.408-3.401-0.628-2.768-4.519
			c0.628-3.858,1.276-7.713,1.946-11.564c0.059-0.336,0.122-0.671,0.181-1.007c10.073,0.596,20.134,2.003,30.205,2.696
			c7.925,0.545,15.865,0.943,23.802,1.341c-0.469,5.114-0.379,10.228,0.742,15.195C209.714,426.321,198.901,425.92,188.093,425.498z
			 M220.761,404.266c-8.259-0.215-16.518-0.453-24.777-0.552c-9.838-0.117-19.734,0.423-29.57,0.192
			c2.271-12.707,4.766-25.374,7.464-37.996c18.248,1.196,36.508,2.249,54.775,3.225c-2.447,10.21-4.943,20.42-7.049,30.694
			C221.303,401.3,221.019,402.78,220.761,404.266z M348.375,426.894c-39.889,1.715-79.818,1.258-119.72,0.042
			c-1.603-4.952-1.777-10.003-1.245-15.066c0.496,0.026,0.992,0.05,1.488,0.076c21.566,1.135,43.16,1.845,64.742,2.619
			c19.514,0.699,39.034,1.273,58.556,1.788C352.058,420.279,350.991,423.928,348.375,426.894z M350.071,374.729
			c21.422,0.903,42.843,1.801,64.257,2.758c3.104,10.423,5.995,21.025,7.146,31.839c-20.761-0.359-41.518-0.822-62.273-1.333
			c-0.379-2.241-0.874-4.455-1.419-6.596C355.498,392.439,352.838,383.565,350.071,374.729z M420.6,421.092
			c-1.947,1.181-7.226,0.921-9.417,1.158c-6.82,0.739-13.649,1.39-20.485,1.962c-10.878,0.911-21.768,1.653-32.669,2.226
			c1.291-3.093,1.843-6.443,1.897-9.878c20.723,0.529,41.448,0.992,62.17,1.442C421.988,419.329,421.597,420.487,420.6,421.092z"/>
	</g>
</g>
<g>
</g>
<g>
</g>
<g>
</g>
<g>
</g>
<g>
</g>
<g>
</g>
<g>
</g>
<g>
</g>
<g>
</g>
<g>
</g>
<g>
</g>
<g>
</g>
<g>
</g>
<g>
</g>
<g>
</g>
</svg>
