<?xml version="1.0" encoding="iso-8859-1"?>
<!-- Generator: Adobe Illustrator 19.0.0, SVG Export Plug-In . SVG Version: 6.00 Build 0)  -->
<svg version="1.1" id="Capa_1" xmlns="http://www.w3.org/2000/svg" xmlns:xlink="http://www.w3.org/1999/xlink" x="0px" y="0px"
	 viewBox="0 0 511.998 511.998" style="enable-background:new 0 0 511.998 511.998;" xml:space="preserve">
<g>
	<g>
		<path d="M394.942,211.571c0.016-25.484,0.038-50.968,0.056-76.452c0.015-20.131-0.028-40.61-4.89-60.277
			c-4.842-19.587-15.104-36.592-31.684-48.363c-17.657-12.538-40.095-19.474-61.196-23.295c-22.479-4.07-45.197-4.228-67.736-0.53
			c-20.934,3.435-42.705,9.818-60.17,22.216c-7.776,5.52-14.501,12.018-19.888,19.906c-0.039,0.056-0.058,0.114-0.092,0.171
			c-24.49,29.742-28.078,71.073-30.337,108.324c-3.081,50.803-2.285,101.724,0.138,152.536c1.212,25.43,2.823,50.84,4.419,76.248
			c0.367,5.834,0.739,11.668,1.114,17.501c0.362,5.631-0.252,12.594,2.071,17.835c4.527,10.212,17.867,8.165,26.97,8.194
			c2.284,0.008,4.567,0.013,6.851,0.02c-1.121,8.475-0.99,17.342-1.183,25.805c-0.22,9.642-0.298,19.287-0.234,28.93
			c0.037,5.492-0.042,11.037,0.277,16.52c0.193,3.326,0.774,6.468,3.458,8.74c5.681,4.808,15.974,4.317,22.867,3.965
			c4.741-0.242,9.477-0.646,14.212-0.984c3.501-0.251,8.015,0.163,11.019-1.917c3.192-2.211,3.436-5.68,3.818-9.205
			c0.543-5.016,0.914-10.054,1.193-15.091c1.044-18.871,0.343-37.823-1.758-56.602c30.853,0.095,61.706,0.211,92.559,0.449
			c1.251,0.01,2.503,0.019,3.754,0.029c-1.289,18.82-1.768,37.444-0.881,56.332c0.224,4.762,0.465,9.529,0.787,14.285
			c0.259,3.815,0.515,7.537,3.854,9.991c5.948,4.371,16.426,4.913,23.587,5.095c6.751,0.171,15.752,0.248,20.44-5.443
			c4.77-5.791,3.77-15.804,4.197-22.809c1.16-19.01,0.625-38.125-1.387-57.061c0.974,0.007,1.949,0.015,2.923,0.022
			c5.747,0.044,11.856,0.697,17.547-0.272c12.127-2.065,11.553-14.505,11.895-24.186c0.439-12.448,0.739-24.901,0.945-37.354
			C395.297,313.765,394.91,262.658,394.942,211.571z M205.805,470.265c-0.239,7.742-0.757,15.474-1.557,23.179
			c-0.022,0.211-0.677,4.169-0.386,3.853c-0.404,0.438-5.215,0.479-5.847,0.537c-3.788,0.348-7.574,0.736-11.367,1.028
			c-3.521,0.272-7.196,0.567-10.72,0.152c-1.376-0.162-3.522-0.288-4.672-1.046c-1.588-1.046-1.29-2.175-1.439-4.202
			c-0.58-7.912-1.081-15.831-1.487-23.754c-0.75-14.632,0.001-29.778-1.525-44.387c12.366,0.037,24.733,0.076,37.099,0.112
			C205.6,440.53,206.265,455.372,205.805,470.265z M353.04,470.414c-0.122,7.815-0.359,15.712-1.264,23.482
			c-0.334,2.872-0.21,5.553-3.118,6.729c-2.899,1.172-7.692,0.526-10.764,0.342c-3.587-0.215-7.099-0.802-10.566-1.748
			c-1.031-0.281-3.726-0.56-4.491-1.402c-1.073-1.181-0.929-3.571-1.083-5.031c-0.787-7.469-1.319-14.972-1.751-22.469
			c-0.843-14.617-1.552-29.355-1.593-44.009c8.971,0.069,17.942,0.138,26.913,0.207c1.755,0.013,3.51,0.027,5.266,0.04
			C352.381,441.113,353.269,455.739,353.04,470.414z M381.369,392.864c-0.15,5.533-0.302,11.068-0.53,16.598
			c-0.089,2.149,0.302,4.061-1.682,4.93c-1.844,0.808-5.865,0.075-7.8,0.076l-35.406,0.018c-47.556,0.024-95.109-0.115-142.664-0.3
			c-11.802-0.046-23.604-0.092-35.406-0.138c-5.419-0.021-11.128,0.489-16.516-0.115c-2.152-0.242-2.886-0.275-3.653-2.135
			c-1.092-2.648-0.635-7.373-0.857-10.181c-1.85-23.337-3.654-46.675-5.121-70.039c-2.951-47.003-4.901-94.12-4.137-141.224
			c0.356-21.975,0.958-44.096,3.255-65.967c2.037-19.399,5.83-39.25,14.756-56.765c11.638-22.834,31.036-37.037,53.344-45.974
			c1.861-0.606,3.726-1.19,5.591-1.741c20.631-6.091,41.956-8.293,63.415-7.37c20.961,0.901,41.779,5.345,61.258,13.157
			c17.737,7.114,33.032,17.962,41.746,35.356c8.148,16.264,9.932,35.144,10.55,53.058c0.751,21.785,0.336,43.642,0.394,65.438
			c0.126,47.235,0.349,94.472,0.307,141.707C382.192,345.124,382.017,368.999,381.369,392.864z"/>
	</g>
</g>
<g>
	<g>
		<path d="M357.671,139.402c-0.537-2.563-1.524-4.303-2.836-5.476c-3.463-3.095-9.196-2.244-14.926-2.146
			c-35.224,0.602-70.414-0.811-105.599-0.811c-21.316,0.021-42.678,0.027-63.971,1.098c-4.087,0.206-8.581,0.626-11.43,3.564
			c-2.863,2.953-3.135,7.513-2.907,11.62c0.297,5.359,1.352,11.086,5.182,14.845c2.76,2.709,6.581,4.006,10.31,5.031
			c26.499,7.286,55.972,8.077,83.31,8.221c18.968,0.1,37.944-0.896,56.797-2.979c8.698-0.961,17.424-1.99,26.058-3.423
			c7.14-1.185,13.26-3.964,16.585-10.752C356.932,152.706,358.953,145.518,357.671,139.402z M346.82,152.474
			c-2.13,7.776-9.337,8.128-16.168,9.229c-8.339,1.344-16.709,2.417-25.114,3.245c-23.754,2.341-47.678,2.951-71.521,1.844
			c-11.763-0.546-23.506-1.51-35.201-2.891c-9.286-1.096-22.393-0.903-30.304-6.613c-3.336-2.402-3.339-6.659-3.3-10.383
			c0.036-3.411,0.598-4.782,4.278-5.286c7.887-1.079,16.335-0.632,24.299-0.87c15.928-0.475,31.86-0.782,47.794-0.947
			c33.324-0.345,66.668-0.053,99.996-0.084C349.72,139.71,348.44,146.557,346.82,152.474z"/>
	</g>
</g>
<g>
	<g>
		<path d="M328.27,57.643c-0.084-5.459,0.531-12.497-4.804-15.791c-3.282-2.026-7.519-1.671-11.22-1.746
			c-37.922-0.77-75.697-0.163-113.485,3.417c-3.276,0.31-6.929,0.839-8.941,3.443c-1.805,2.335-1.681,5.576-1.472,8.52l3.339,47.136
			c0.177,2.495,0.367,5.048,1.379,7.335c2.828,6.392,12.545,6.436,18.448,7.274c16.583,2.352,33.538,2.568,50.26,2.605
			c16.889,0.037,34.006,0.323,50.748-2.225c7.051-1.073,9.819-4.219,11.759-11.005c2.256-7.887,2.788-16.172,3.298-24.32
			C328.092,74.092,328.396,65.855,328.27,57.643z M211.32,49.131c11.266-0.843,22.548-1.464,33.838-1.863
			c12.901-0.457,25.812-0.623,38.721-0.5c6.454,0.062,12.908,0.196,19.361,0.402c2.665,0.085,7.573-0.918,11.339-0.36
			c-8.826,6.193-17.651,12.385-26.477,18.578l-15.211,10.673c-2.474,1.736-4.985,3.918-7.708,5.258
			c-3.015,1.485-4.921,0.287-7.89-0.971c-20.509-8.694-41.065-18.371-60.402-29.534C200.692,48.589,207.398,49.424,211.32,49.131z
			 M197.903,102.466c-1.365-15.216-4.752-31.638-3.847-46.886c0.025-0.418,0.086-0.803,0.168-1.167
			c10.271,5.93,20.434,11.951,30.994,17.399c2.626,1.354,5.276,2.759,7.948,4.167c-5.854,4.452-11.256,9.717-16.833,14.396
			c-6.025,5.055-12.008,10.163-17.832,15.446C198.128,104.763,198.005,103.594,197.903,102.466z M294.431,112.136
			c-9.874,0.536-19.758,0.921-29.647,1.046c-19.736,0.249-39.517-0.529-59.09-3.176c-1.422-0.192-2.928-0.454-4.221-1.037
			c6.117-4.038,12.047-8.361,17.808-12.893c6.751-5.31,14.285-10.531,20.296-16.769c6.325,3.233,12.76,6.288,19.295,8.557
			c4.733,1.643,8.355,0.273,12.367-2.398c2.076-1.382,4.133-2.796,6.184-4.217c10.294,10.852,21.965,20.751,33.891,29.797
			C306.018,112.706,298.282,111.927,294.431,112.136z M319.848,54.506c-0.087,4.003-0.175,8.007-0.263,12.01
			c-0.124,5.645-0.247,11.289-0.368,16.934c-0.156,7.234,0.389,16.055-2.52,22.91c-11.53-9.473-23.083-19.069-34.959-28.114
			c1.875-1.31,3.749-2.62,5.63-3.919c10.809-7.464,21.617-14.928,32.426-22.391C319.88,52.785,319.867,53.654,319.848,54.506z"/>
	</g>
</g>
<g>
	<g>
		<path d="M348.856,181.714c-7.549-0.654-15.472,0.564-23.029,0.871c-8.996,0.366-17.992,0.732-26.988,1.098
			c-33.203,1.35-66.387,2.81-99.569,4.583c-7.861,0.305-15.722,0.664-23.588,1.062c-5.346,0.271-11.087,0.087-15.516,3.536
			c-5.14,4.003-6.619,10.832-7.584,16.934c-2.196,13.886-1.855,28.22-1.77,42.233c0.183,29.875,1.674,59.759,3.455,89.576
			c0.445,7.449,0.924,14.896,1.437,22.34c0.513,7.45,0.45,15.312,1.811,22.658c2.355,12.71,16.145,14.74,26.952,15.787
			c14.612,1.416,29.535,1.222,44.206,1.479c15.173,0.266,30.35,0.32,45.524,0.161c15.173-0.159,30.345-0.522,45.507-1.119
			c7.4-0.291,14.897-0.368,22.274-1.048c6.019-0.555,11.064-2.828,13.558-8.693c2.353-5.535,2.416-12.241,3.06-18.166
			c0.879-8.084,1.551-16.19,2.067-24.304c0.946-14.89,1.36-29.807,1.5-44.725c0.284-30.116-0.153-60.238-0.178-90.354
			C361.976,203.393,366.053,183.205,348.856,181.714z M348.915,360.841c-0.486,6.416-1.082,12.824-1.813,19.218
			c-0.289,2.525-0.166,5.793-1.263,8.146c-1.722,3.692-6.026,3.003-9.598,3.198c-13.777,0.749-27.563,1.328-41.354,1.738
			c-26.89,0.801-53.8,0.935-80.696,0.401c-12.949-0.257-26.871,0.385-39.459-3.113c-2.201-0.611-5.167-1.414-6.483-3.483
			c-1.493-2.346-1.216-6.192-1.44-8.789c-0.583-6.764-1.13-13.532-1.653-20.301c-2.091-27.082-3.793-54.204-4.909-81.344
			c-0.615-14.955-0.952-29.916-0.581-44.883c0.176-7.127,0.37-14.288,1.93-21.273c0.682-3.052,1.306-6.915,3.625-9.161
			c2.597-2.514,7.026-2.339,10.462-2.694c53.898-5.563,108.49-5.581,162.6-5.843c2.971-0.014,6.159-0.356,9.121,0.056
			c3.857,0.537,3.063,3.012,3.102,6.381c0.307,26.805,0.353,53.615,0.448,80.421C351.048,306.629,350.964,333.792,348.915,360.841z"
			/>
	</g>
</g>
<g>
	<g>
		<path d="M186.186,274.738c-9.31,1.575-14.78,9.56-14.539,17.949c-0.287,4.159,0.984,8.447,4.258,12.1
			c8.627,9.627,25.089,3.921,28.898-7.578C208.691,285.465,198.69,272.622,186.186,274.738z M198.319,293.912
			c-1.316,6.492-10.527,11.946-16.553,8.085c-6.363-4.076-6.054-12.324-1.792-17.407c1.541-1.55,3.596-2.666,6.155-3.056
			C193.196,280.457,199.775,286.735,198.319,293.912z"/>
	</g>
</g>
<g>
</g>
<g>
</g>
<g>
</g>
<g>
</g>
<g>
</g>
<g>
</g>
<g>
</g>
<g>
</g>
<g>
</g>
<g>
</g>
<g>
</g>
<g>
</g>
<g>
</g>
<g>
</g>
<g>
</g>
</svg>
