<?xml version="1.0" ?><svg viewBox="0 0 64 64" xmlns="http://www.w3.org/2000/svg"><title/><g data-name="Layer 2" id="Layer_2"><circle cx="32" cy="32" r="27.758" style="fill:#f9bf44"/></g><g data-name="Layer 1" id="Layer_1"><path d="M37.759,31.13a1,1,0,0,1-.9-1.442A6.793,6.793,0,0,1,43,25.88a6.693,6.693,0,0,1,1.939.283,6.847,6.847,0,0,1,4.082,3.324,1,1,0,0,1-1.762.946A4.843,4.843,0,0,0,44.37,28.08a4.718,4.718,0,0,0-1.37-.2,4.805,4.805,0,0,0-4.343,2.692A1,1,0,0,1,37.759,31.13Z" style="fill:#382a12"/><path d="M15.769,31.13a1,1,0,0,1-.9-1.442A6.785,6.785,0,0,1,21,25.88a6.855,6.855,0,0,1,6.024,3.6,1,1,0,1,1-1.768.936A4.855,4.855,0,0,0,21,27.88a4.8,4.8,0,0,0-4.333,2.692A1,1,0,0,1,15.769,31.13Z" style="fill:#382a12"/><path d="M31.389,43.13a12.506,12.506,0,0,1-9.05-3.817,1,1,0,1,1,1.441-1.386,10.782,10.782,0,0,0,17.55-3.283,1,1,0,1,1,1.847.769A12.577,12.577,0,0,1,33.813,42.9,13.1,13.1,0,0,1,31.389,43.13Z" style="fill:#382a12"/><ellipse cx="23.651" cy="29.745" rx="2.5" ry="2.87" style="fill:#382a12"/><ellipse cx="45.645" cy="29.745" rx="2.5" ry="2.87" style="fill:#382a12"/></g></svg>