<?xml version="1.0" ?><svg id="Layer_1" style="enable-background:new 0 0 64 64;" version="1.1" viewBox="0 0 64 64" xml:space="preserve" xmlns="http://www.w3.org/2000/svg" xmlns:xlink="http://www.w3.org/1999/xlink"><style type="text/css">
	.st0{fill:url(#SVGID_1_);}
	.st1{fill:url(#SVGID_2_);}
	.st2{fill:url(#SVGID_3_);}
	.st3{fill:url(#SVGID_4_);}
	.st4{fill:url(#SVGID_5_);}
	.st5{fill:#FFFFFF;}
	.st6{fill:url(#SVGID_6_);}
	.st7{fill:url(#SVGID_7_);}
	.st8{fill:url(#SVGID_8_);}
	.st9{fill:url(#SVGID_9_);}
	.st10{fill:url(#SVGID_10_);}
	.st11{fill:#FFBF0B;}
	.st12{fill:#1A1A54;}
	.st13{fill:#DC2863;}
	.st14{fill:none;stroke:#1A1A54;stroke-width:3;stroke-linecap:round;stroke-linejoin:round;stroke-miterlimit:10;}
	.st15{fill:#0B85FF;}
	.st16{opacity:0.5;fill:#FFFFFF;}
	.st17{fill:#00AF64;}
	.st18{fill:#00D17C;}
	.st19{fill:none;stroke:#00D17C;stroke-width:3;stroke-linecap:round;stroke-linejoin:round;stroke-miterlimit:10;}
	.st20{fill:#8C5C3B;}
	.st21{opacity:0.1;fill:#1A1A54;}
	.st22{opacity:0.2;fill:#1A1A54;}
	.st23{fill:none;stroke:#FFFFFF;stroke-width:2;stroke-linecap:round;stroke-miterlimit:10;}
	.st24{fill:#E86942;}
	.st25{fill:#6642AD;}
	.st26{fill:url(#SVGID_11_);}
	.st27{fill:url(#SVGID_12_);}
	.st28{fill:url(#SVGID_13_);}
	.st29{opacity:0.2;}
	.st30{fill:none;stroke:#1A1A54;stroke-width:2;stroke-miterlimit:10;}
	.st31{fill:#E8E8EE;}
	.st32{fill:#D1D1DC;}
	.st33{fill:none;stroke:#D1D1DC;stroke-width:1.8172;stroke-linecap:round;stroke-miterlimit:10;}
	.st34{opacity:0.5;fill:#E8E8EE;}
	.st35{fill:none;stroke:#E8E8EE;stroke-width:7.1126;stroke-linecap:round;stroke-linejoin:round;stroke-miterlimit:10;}
	.st36{fill:none;stroke:#D1D1DC;stroke-width:2.3709;stroke-linecap:round;stroke-miterlimit:10;}
	.st37{fill:#F2AD00;}
	.st38{fill:none;stroke:#E8E8EE;stroke-width:5;stroke-linecap:round;stroke-linejoin:round;stroke-miterlimit:10;}
	.st39{fill:none;stroke:#FFFFFF;stroke-width:4;stroke-linecap:square;stroke-miterlimit:10;}
</style><circle class="st11" cx="32" cy="32" r="32"/><circle class="st5" cx="44.5" cy="28.5" r="7.5"/><circle class="st12" cx="44.5" cy="28.5" r="4.5"/><circle class="st5" cx="19.5" cy="28.5" r="7.5"/><circle class="st12" cx="19.5" cy="28.5" r="4.5"/><g><path class="st12" d="M20.3,52c-1.3,0-2.3-1.3-1.9-2.6c1.5-4.8,7-8.4,13.6-8.4s12.1,3.6,13.6,8.4C46,50.7,45,52,43.7,52H20.3z"/><path class="st13" d="M22.2,52h19.5c-2.5-2.5-6-4-9.8-4S24.8,49.5,22.2,52z"/></g><radialGradient cx="61.7964" cy="46.9769" gradientTransform="matrix(0.4831 -0.8756 0.5606 0.3093 5.6097 86.5561)" gradientUnits="userSpaceOnUse" id="SVGID_1_" r="5.5641"><stop offset="0.2186" style="stop-color:#DC2863"/><stop offset="0.3467" style="stop-color:#E03B58"/><stop offset="0.6053" style="stop-color:#EB6B3C"/><stop offset="0.9683" style="stop-color:#FDB80F"/><stop offset="1" style="stop-color:#FFBF0B"/></radialGradient><path class="st0" d="M62.7,41C62,43,64,44,63,47s-3.9,2.2-4.9,3.6C57,52,56,43,62.7,41z"/><radialGradient cx="51.1086" cy="59.8821" gradientTransform="matrix(0.8464 -0.5326 0.341 0.5419 -13.6344 54.0698)" gradientUnits="userSpaceOnUse" id="SVGID_2_" r="2.8841"><stop offset="0.2186" style="stop-color:#DC2863"/><stop offset="0.3467" style="stop-color:#E03B58"/><stop offset="0.6053" style="stop-color:#EB6B3C"/><stop offset="0.9683" style="stop-color:#FDB80F"/><stop offset="1" style="stop-color:#FFBF0B"/></radialGradient><path class="st1" d="M52,56.8c-0.8,0.7-0.2,1.7-1.4,2.8c-1.2,1.1-2.3,0-3.1,0.4C46.6,60.4,48.4,56,52,56.8z"/><radialGradient cx="72.1413" cy="95.4962" gradientTransform="matrix(0.7285 0.685 -0.4386 0.4665 -0.843 -36.8112)" gradientUnits="userSpaceOnUse" id="SVGID_3_" r="7.521"><stop offset="0.2186" style="stop-color:#DC2863"/><stop offset="0.3467" style="stop-color:#E03B58"/><stop offset="0.6053" style="stop-color:#EB6B3C"/><stop offset="0.9683" style="stop-color:#FDB80F"/><stop offset="1" style="stop-color:#FFBF0B"/></radialGradient><path class="st2" d="M17.3,60.4c-2.4-1.6-4.4,0.7-8-1.6c-3.6-2.3-1.5-5.8-3-7.7C4.9,49.2,17,50.9,17.3,60.4z"/><circle class="st13" cx="12.3" cy="43" r="3"/><circle class="st13" cx="50" cy="41" r="2"/><circle class="st13" cx="29" cy="38" r="1"/><circle class="st13" cx="52" cy="18" r="1"/><circle class="st13" cx="59" cy="38" r="1"/><circle class="st13" cx="51" cy="51" r="2.5"/><circle class="st13" cx="39" cy="58" r="1.5"/><circle class="st13" cx="26" cy="57" r="1"/><circle class="st13" cx="5" cy="38" r="1"/></svg>