<?xml version="1.0" ?><svg id="Layer_1" style="enable-background:new 0 0 64 64;" version="1.1" viewBox="0 0 64 64" xml:space="preserve" xmlns="http://www.w3.org/2000/svg" xmlns:xlink="http://www.w3.org/1999/xlink"><style type="text/css">
	.st0{fill:url(#SVGID_1_);}
	.st1{fill:url(#SVGID_2_);}
	.st2{fill:url(#SVGID_3_);}
	.st3{fill:url(#SVGID_4_);}
	.st4{fill:url(#SVGID_5_);}
	.st5{fill:#FFFFFF;}
	.st6{fill:url(#SVGID_6_);}
	.st7{fill:url(#SVGID_7_);}
	.st8{fill:url(#SVGID_8_);}
	.st9{fill:url(#SVGID_9_);}
	.st10{fill:url(#SVGID_10_);}
	.st11{fill:#FFBF0B;}
	.st12{fill:#1A1A54;}
	.st13{fill:#DC2863;}
	.st14{fill:none;stroke:#1A1A54;stroke-width:3;stroke-linecap:round;stroke-linejoin:round;stroke-miterlimit:10;}
	.st15{fill:#0B85FF;}
	.st16{opacity:0.5;fill:#FFFFFF;}
	.st17{fill:#00AF64;}
	.st18{fill:#00D17C;}
	.st19{fill:none;stroke:#00D17C;stroke-width:3;stroke-linecap:round;stroke-linejoin:round;stroke-miterlimit:10;}
	.st20{fill:#8C5C3B;}
	.st21{opacity:0.1;fill:#1A1A54;}
	.st22{opacity:0.2;fill:#1A1A54;}
	.st23{fill:none;stroke:#FFFFFF;stroke-width:2;stroke-linecap:round;stroke-miterlimit:10;}
	.st24{fill:#E86942;}
	.st25{fill:#6642AD;}
	.st26{fill:url(#SVGID_11_);}
	.st27{fill:url(#SVGID_12_);}
	.st28{fill:url(#SVGID_13_);}
	.st29{opacity:0.2;}
	.st30{fill:none;stroke:#1A1A54;stroke-width:2;stroke-miterlimit:10;}
	.st31{fill:#E8E8EE;}
	.st32{fill:#D1D1DC;}
	.st33{fill:none;stroke:#D1D1DC;stroke-width:1.8172;stroke-linecap:round;stroke-miterlimit:10;}
	.st34{opacity:0.5;fill:#E8E8EE;}
	.st35{fill:none;stroke:#E8E8EE;stroke-width:7.1126;stroke-linecap:round;stroke-linejoin:round;stroke-miterlimit:10;}
	.st36{fill:none;stroke:#D1D1DC;stroke-width:2.3709;stroke-linecap:round;stroke-miterlimit:10;}
	.st37{fill:#F2AD00;}
	.st38{fill:none;stroke:#E8E8EE;stroke-width:5;stroke-linecap:round;stroke-linejoin:round;stroke-miterlimit:10;}
	.st39{fill:none;stroke:#FFFFFF;stroke-width:4;stroke-linecap:square;stroke-miterlimit:10;}
</style><g><path class="st37" d="M34.1,27.5l8.4,9.9c1.1,1.3,0.9,3.2-0.3,4.2c-1.3,1.1-3.2,0.9-4.2-0.3c-0.1-0.1-0.2-0.3-0.3-0.5l-6.4-11.3   c-0.5-0.9-0.2-2,0.7-2.5C32.6,26.6,33.6,26.8,34.1,27.5z"/></g><g><path class="st37" d="M36.9,23.5l7.8,7.5c1.2,1.2,1.2,3.1,0.1,4.3c-1.2,1.2-3.1,1.2-4.3,0.1c-0.2-0.2-0.3-0.3-0.4-0.5l-5.9-9   c-0.5-0.8-0.3-2,0.5-2.5C35.4,22.8,36.3,22.9,36.9,23.5z"/></g><g><path class="st37" d="M40.4,19l6.7,6.4c1.2,1.2,1.2,3.1,0.1,4.3s-3.1,1.2-4.3,0.1c-0.2-0.2-0.4-0.4-0.5-0.6l-4.8-8   c-0.5-0.9-0.2-2,0.6-2.5C38.9,18.3,39.8,18.4,40.4,19z"/></g><path class="st11" d="M27.9,37.8c-0.1-1.5-5.1,14.6-5.1,14.6L27.3,64H48l-3-5.3c-1.4-2.5-1.9-5.5-1.2-8.3l4.1-17.7  c-1.2,1.3-5.8-3.8-6.8-1.8C38.7,35.9,28,40,27.9,37.8z"/><circle class="st17" cx="28.5" cy="14.5" r="14.5"/><circle class="st22" cx="28.5" cy="14.5" r="14.5"/><circle class="st17" cx="28.5" cy="14.5" r="11.5"/><g><path class="st11" d="M27.1,27.1c0.7,2.3,0.8,4.4,0.8,6.4c0,2,0,3.9,0.1,5.8c0.1,1.8,0.3,3.5,0.7,5c0.4,1.5,1,2.7,1.8,3.5   c1.7,1.8,1.5,4.7-0.3,6.4c-1.8,1.7-4.7,1.5-6.4-0.3c-0.3-0.3-0.5-0.6-0.6-0.9l-0.2-0.4c-1.3-2.4-1.8-5-1.9-7.3   c-0.1-2.3,0.2-4.5,0.5-6.5c0.4-2,0.8-3.9,1.2-5.7c0.4-1.8,0.6-3.6,0.5-5l0-0.2c-0.1-1.1,0.7-2.1,1.8-2.1   C26,25.7,26.8,26.3,27.1,27.1z"/></g><g><path class="st11" d="M45.6,11.2l4.5,12c0.2,0.5,0.2,1.1,0.1,1.6l-0.1,0.3L44.7,44c-0.6,2.2-2.9,3.4-5,2.8s-3.4-2.9-2.8-5   c0-0.1,0.1-0.3,0.1-0.4l7.2-18.1l0,1.9L41,12.7c-0.3-1.3,0.4-2.6,1.7-3C43.9,9.4,45.2,10.1,45.6,11.2z"/></g><polyline class="st39" points="23.4,14.2 27.4,18.2 33.6,12 "/></svg>