<?xml version="1.0" ?><svg viewBox="0 0 64 64" xmlns="http://www.w3.org/2000/svg"><title/><g data-name="Layer 2" id="Layer_2"><circle cx="32" cy="32" r="27.758" style="fill:#f9bf44"/></g><g data-name="Layer 1" id="Layer_1"><path d="M32,44.3a12.578,12.578,0,0,1-11.367-7.08,1,1,0,1,1,1.795-.881,10.667,10.667,0,0,0,19.145,0,1,1,0,1,1,1.795.881A12.578,12.578,0,0,1,32,44.3Z" style="fill:#382a12"/><path d="M26.238,31.013a1,1,0,0,1-.9-.56,4.834,4.834,0,0,0-8.675,0,1,1,0,0,1-1.795-.882,6.833,6.833,0,0,1,12.265,0,1,1,0,0,1-.9,1.44Z" style="fill:#382a12"/><path d="M39.751,30a1,1,0,0,1-.5-1.868l6.125-3.5a1,1,0,0,1,.992,1.736l-6.125,3.5A1,1,0,0,1,39.751,30Z" style="fill:#382a12"/><path d="M46.148,32.774a1,1,0,0,1-.4-.083l-6.4-2.774a1,1,0,1,1,.795-1.835l6.4,2.774a1,1,0,0,1-.4,1.918Z" style="fill:#382a12"/></g></svg>