<?xml version="1.0" ?><svg id="Layer_1" style="enable-background:new 0 0 64 64;" version="1.1" viewBox="0 0 64 64" xml:space="preserve" xmlns="http://www.w3.org/2000/svg" xmlns:xlink="http://www.w3.org/1999/xlink"><style type="text/css">
	.st0{fill:url(#SVGID_1_);}
	.st1{fill:url(#SVGID_2_);}
	.st2{fill:url(#SVGID_3_);}
	.st3{fill:url(#SVGID_4_);}
	.st4{fill:url(#SVGID_5_);}
	.st5{fill:#FFFFFF;}
	.st6{fill:url(#SVGID_6_);}
	.st7{fill:url(#SVGID_7_);}
	.st8{fill:url(#SVGID_8_);}
	.st9{fill:url(#SVGID_9_);}
	.st10{fill:url(#SVGID_10_);}
	.st11{fill:#FFBF0B;}
	.st12{fill:#1A1A54;}
	.st13{fill:#DC2863;}
	.st14{fill:none;stroke:#1A1A54;stroke-width:3;stroke-linecap:round;stroke-linejoin:round;stroke-miterlimit:10;}
	.st15{fill:#0B85FF;}
	.st16{opacity:0.5;fill:#FFFFFF;}
	.st17{fill:#00AF64;}
	.st18{fill:#00D17C;}
	.st19{fill:none;stroke:#00D17C;stroke-width:3;stroke-linecap:round;stroke-linejoin:round;stroke-miterlimit:10;}
	.st20{fill:#8C5C3B;}
	.st21{opacity:0.1;fill:#1A1A54;}
	.st22{opacity:0.2;fill:#1A1A54;}
	.st23{fill:none;stroke:#FFFFFF;stroke-width:2;stroke-linecap:round;stroke-miterlimit:10;}
	.st24{fill:#E86942;}
	.st25{fill:#6642AD;}
	.st26{fill:url(#SVGID_11_);}
	.st27{fill:url(#SVGID_12_);}
	.st28{fill:url(#SVGID_13_);}
	.st29{opacity:0.2;}
	.st30{fill:none;stroke:#1A1A54;stroke-width:2;stroke-miterlimit:10;}
	.st31{fill:#E8E8EE;}
	.st32{fill:#D1D1DC;}
	.st33{fill:none;stroke:#D1D1DC;stroke-width:1.8172;stroke-linecap:round;stroke-miterlimit:10;}
	.st34{opacity:0.5;fill:#E8E8EE;}
	.st35{fill:none;stroke:#E8E8EE;stroke-width:7.1126;stroke-linecap:round;stroke-linejoin:round;stroke-miterlimit:10;}
	.st36{fill:none;stroke:#D1D1DC;stroke-width:2.3709;stroke-linecap:round;stroke-miterlimit:10;}
	.st37{fill:#F2AD00;}
	.st38{fill:none;stroke:#E8E8EE;stroke-width:5;stroke-linecap:round;stroke-linejoin:round;stroke-miterlimit:10;}
	.st39{fill:none;stroke:#FFFFFF;stroke-width:4;stroke-linecap:square;stroke-miterlimit:10;}
</style><path class="st11" d="M10.4,32.1C10,39.9,11.4,48.8,14,52c-0.2,0.5,0,6.1,0,6.1h21v-3.9c0,0,2.3-6.7,3.5-12.8  c0.1-0.7,4.4-6.1,3.6-5.7c-1.7,0.9-3.4-1-3.6-2.5c-0.8-4.9-0.8-4.9-0.8-4.9S10.9,22.8,10.4,32.1z"/><g><path class="st11" d="M16.7,13.1c-0.1,3.5-0.1,7-0.1,10.5c0,1.7,0,3.5,0.1,5.2c0.1,1.7,0.1,3.4,0.3,5.1c0.2,1.8-1.2,3.3-3,3.5   c-1.8,0.2-3.3-1.2-3.5-3c0-0.1,0-0.2,0-0.2c0-1.9,0-3.7,0.1-5.4c0.1-1.8,0.2-3.6,0.3-5.3c0.2-3.5,0.5-7,0.9-10.6   c0.1-1.4,1.3-2.4,2.7-2.2C15.7,10.7,16.7,11.8,16.7,13.1L16.7,13.1z"/></g><g><path class="st11" d="M55.8,36c-1.5,1.1-3,2.4-4.5,3.7c-1.5,1.3-2.9,2.6-4.4,3.9c-2.8,2.6-5.5,5.4-7.8,8.2c-2.1,2.6-5.9,3-8.5,0.8   c-2.6-2.1-3-5.9-0.8-8.5c0.3-0.4,0.6-0.7,1-0.9l0.1-0.1c3.5-2.7,7-4.9,10.6-7c1.8-1,3.6-2,5.4-3c1.8-0.9,3.6-1.8,5.6-2.7   c1.6-0.8,3.6,0,4.4,1.6C57.5,33.4,57,35,55.8,36L55.8,36z"/></g><polygon class="st31" points="11.1,54.8 37.4,57.1 39,64 9,64 "/><circle class="st13" cx="14" cy="60" r="2"/><g><path class="st37" d="M26.2,45.8c-0.1-0.4-0.3-0.9-0.5-1.3c-0.2-0.5-0.5-0.9-0.8-1.3c-0.6-0.9-1.3-1.6-2.1-2.3   c-0.8-0.6-1.7-1.2-2.7-1.6c-1-0.4-2.1-0.6-3.1-0.8l-0.1,0c-0.5-0.1-0.9-0.6-0.8-1.1c0.1-0.5,0.5-0.8,1-0.8c0.6,0.1,1.2,0.1,1.9,0.2   c0.6,0.1,1.2,0.2,1.8,0.4c1.2,0.3,2.4,0.9,3.5,1.6c1.1,0.7,2,1.6,2.9,2.6c0.4,0.5,0.8,1,1.1,1.6c0.3,0.6,0.6,1.1,0.9,1.9   c0.3,0.8-0.1,1.6-0.9,1.9c-0.8,0.3-1.6-0.1-1.9-0.9C26.2,46,26.2,45.9,26.2,45.8L26.2,45.8z"/></g><g><path class="st37" d="M22.7,38.4c0.4-0.7,0.8-1.2,1.2-1.7c0.4-0.5,0.9-1,1.5-1.4c0.5-0.4,1.1-0.8,1.7-1.1c0.6-0.3,1.2-0.5,1.9-0.7   c0.5-0.1,1,0.2,1.1,0.7c0.1,0.4-0.1,0.9-0.5,1.1l-0.1,0c-0.5,0.2-0.9,0.4-1.3,0.7c-0.4,0.3-0.8,0.6-1.1,1c-0.3,0.4-0.7,0.8-0.9,1.2   c-0.3,0.4-0.5,0.9-0.7,1.3c-0.3,0.8-1.1,1.2-1.9,0.9c-0.8-0.3-1.2-1.1-0.9-1.9C22.6,38.6,22.7,38.5,22.7,38.4L22.7,38.4z"/></g><g><path class="st37" d="M17.6,15.3l0.1,6.3l0.1,3.1c0,1,0.1,2.1,0.2,3l0,0.1c0.1,0.8-0.5,1.6-1.3,1.7c-0.8,0.1-1.6-0.5-1.7-1.3   c0-0.1,0-0.1,0-0.2c0-1.3,0-2.2,0.1-3.3l0.2-3.2l0.6-6.3c0-0.5,0.5-0.8,0.9-0.8C17.3,14.5,17.6,14.9,17.6,15.3L17.6,15.3z"/></g><g><path class="st11" d="M23.3,5.8c-0.1,1.9-0.1,3.9-0.1,5.8c0,1.9,0,3.9,0,5.8c0.1,3.9,0.2,7.7,0.6,11.5l0,0c0.2,2-1.3,3.7-3.3,3.9   c-2,0.2-3.7-1.3-3.9-3.3c0-0.1,0-0.2,0-0.2c-0.1-4.1,0-8.1,0.2-12c0.1-2,0.2-4,0.4-6c0.1-2,0.3-3.9,0.5-6c0.2-1.6,1.6-2.7,3.1-2.6   C22.3,2.9,23.4,4.2,23.3,5.8L23.3,5.8z"/></g><g><path class="st37" d="M24.4,7.2c-0.2,3.2-0.3,6.4-0.2,9.6c0,3.2,0.2,6.4,0.5,9.6l0,0c0.1,0.8-0.5,1.6-1.3,1.6s-1.6-0.5-1.6-1.3   c0,0,0-0.1,0-0.1c-0.1-3.3,0-6.6,0.1-9.8c0.2-3.3,0.5-6.5,0.9-9.7c0.1-0.5,0.5-0.8,1-0.7C24.1,6.3,24.4,6.7,24.4,7.2L24.4,7.2z"/></g><g><path class="st11" d="M30.6,3.5c-0.1,2.1-0.2,4.3-0.3,6.4c-0.1,2.2-0.1,4.3,0,6.4c0.1,4.3,0.4,8.5,1,12.6l0,0   c0.3,2.2-1.2,4.2-3.3,4.5c-2.2,0.3-4.2-1.2-4.5-3.3c0-0.1,0-0.1,0-0.2c-0.5-4.6-0.5-9.2-0.4-13.7c0.1-2.3,0.2-4.5,0.4-6.7   c0.2-2.3,0.4-4.4,0.7-6.7C24.3,1,26-0.2,27.7,0C29.5,0.2,30.7,1.7,30.6,3.5L30.6,3.5z"/></g><g><path class="st37" d="M31.4,8.5c-0.1,3.3-0.1,6.6,0,9.9c0.1,3.3,0.3,6.6,0.7,9.8l0,0c0.1,0.8-0.5,1.6-1.3,1.7s-1.6-0.5-1.7-1.3   c0,0,0-0.1,0-0.1c-0.2-3.4-0.2-6.7,0-10.1c0.1-3.3,0.4-6.6,0.7-10c0-0.5,0.5-0.8,0.9-0.8C31.1,7.7,31.5,8.1,31.4,8.5L31.4,8.5z"/></g><g><path class="st11" d="M37.1,8.1c0,1.7,0,3.5,0,5.3c0,1.8,0.1,3.5,0.1,5.3c0.1,3.5,0.3,7.1,0.6,10.5l0,0c0.2,2-1.3,3.8-3.3,3.9   c-2,0.2-3.8-1.3-3.9-3.3c0,0,0-0.1,0-0.1c-0.2-3.7-0.3-7.3-0.3-10.9c0-1.8,0-3.6,0-5.4c0-1.8,0.1-3.6,0.1-5.4   c0.1-1.8,1.6-3.2,3.4-3.1C35.7,4.9,37.1,6.3,37.1,8.1L37.1,8.1z"/></g></svg>