<?xml version="1.0" ?><svg id="Layer_1" style="enable-background:new 0 0 64 64;" version="1.1" viewBox="0 0 64 64" xml:space="preserve" xmlns="http://www.w3.org/2000/svg" xmlns:xlink="http://www.w3.org/1999/xlink"><style type="text/css">
	.st0{fill:url(#SVGID_1_);}
	.st1{fill:url(#SVGID_2_);}
	.st2{fill:url(#SVGID_3_);}
	.st3{fill:url(#SVGID_4_);}
	.st4{fill:url(#SVGID_5_);}
	.st5{fill:#FFFFFF;}
	.st6{fill:url(#SVGID_6_);}
	.st7{fill:url(#SVGID_7_);}
	.st8{fill:url(#SVGID_8_);}
	.st9{fill:url(#SVGID_9_);}
	.st10{fill:url(#SVGID_10_);}
	.st11{fill:#FFBF0B;}
	.st12{fill:#1A1A54;}
	.st13{fill:#DC2863;}
	.st14{fill:none;stroke:#1A1A54;stroke-width:3;stroke-linecap:round;stroke-linejoin:round;stroke-miterlimit:10;}
	.st15{fill:#0B85FF;}
	.st16{opacity:0.5;fill:#FFFFFF;}
	.st17{fill:#00AF64;}
	.st18{fill:#00D17C;}
	.st19{fill:none;stroke:#00D17C;stroke-width:3;stroke-linecap:round;stroke-linejoin:round;stroke-miterlimit:10;}
	.st20{fill:#8C5C3B;}
	.st21{opacity:0.1;fill:#1A1A54;}
	.st22{opacity:0.2;fill:#1A1A54;}
	.st23{fill:none;stroke:#FFFFFF;stroke-width:2;stroke-linecap:round;stroke-miterlimit:10;}
	.st24{fill:#E86942;}
	.st25{fill:#6642AD;}
	.st26{fill:url(#SVGID_11_);}
	.st27{fill:url(#SVGID_12_);}
	.st28{fill:url(#SVGID_13_);}
	.st29{opacity:0.2;}
	.st30{fill:none;stroke:#1A1A54;stroke-width:2;stroke-miterlimit:10;}
	.st31{fill:#E8E8EE;}
	.st32{fill:#D1D1DC;}
	.st33{fill:none;stroke:#D1D1DC;stroke-width:1.8172;stroke-linecap:round;stroke-miterlimit:10;}
	.st34{opacity:0.5;fill:#E8E8EE;}
	.st35{fill:none;stroke:#E8E8EE;stroke-width:7.1126;stroke-linecap:round;stroke-linejoin:round;stroke-miterlimit:10;}
	.st36{fill:none;stroke:#D1D1DC;stroke-width:2.3709;stroke-linecap:round;stroke-miterlimit:10;}
	.st37{fill:#F2AD00;}
	.st38{fill:none;stroke:#E8E8EE;stroke-width:5;stroke-linecap:round;stroke-linejoin:round;stroke-miterlimit:10;}
	.st39{fill:none;stroke:#FFFFFF;stroke-width:4;stroke-linecap:square;stroke-miterlimit:10;}
</style><circle class="st11" cx="32" cy="32" r="32"/><circle class="st5" cx="47.5" cy="23.6" r="7.5"/><path class="st12" d="M48.1,36.6c-2,8.6-10.6,14-19.2,12S15,37.9,17,29.3L48.1,36.6z"/><path class="st13" d="M30.9,39.9c-4.7-1.1-9.1-0.5-12.1,1.3c2.2,3.6,5.7,6.3,10.1,7.3s8.8,0.1,12.3-2.2C39.4,43.5,35.6,41,30.9,39.9  z"/><circle class="st12" cx="47.5" cy="23.6" r="4.5"/><circle class="st5" cx="23.2" cy="17.9" r="7.5"/><circle class="st12" cx="23.2" cy="17.9" r="4.5"/><g><path class="st31" d="M23.5,53c-2.3,8-4.7,12.6-15.5,9.4c-7.2-2.2-9.4-7.2-7.2-15.3s7.5-13.5,14.6-11.1   C27.3,40.1,25.7,44.9,23.5,53z"/><g><path class="st31" d="M11.1,23.8c0.8,2,1.6,4.1,2,6.5c0.4,2.4,0.3,4.9,0,7.1c-0.3,2.2-0.6,4.2-0.9,6.1c-0.3,1.9-0.5,3.8-0.6,5.7    l0,0c-0.3,3-2.9,5.2-5.9,4.9c-3-0.3-5.2-2.9-4.9-5.9c0-0.4,0.1-0.7,0.2-1.1c0.6-2,1.2-4,1.9-6c0.7-2,1.4-3.9,2-5.6    c0.6-1.7,0.9-3.2,1-4.8c0.1-1.6-0.2-3.4-0.6-5.2l0-0.1c-0.3-1.6,0.7-3.2,2.3-3.6C9.2,21.8,10.6,22.5,11.1,23.8z"/></g><line class="st35" x1="17.8" x2="12.5" y1="60.4" y2="58.5"/><line class="st36" x1="20.2" x2="17.2" y1="58.7" y2="57.7"/><line class="st35" x1="20.8" x2="15.5" y1="55.2" y2="53.2"/><line class="st36" x1="22.2" x2="18.6" y1="53.2" y2="52.1"/><line class="st35" x1="22.5" x2="17.2" y1="49.6" y2="47.6"/><line class="st36" x1="24.1" x2="20.2" y1="46.6" y2="45.4"/><line class="st35" x1="23.9" x2="15.7" y1="42.9" y2="39.9"/></g></svg>