<?xml version="1.0" ?><svg viewBox="0 0 64 64" xmlns="http://www.w3.org/2000/svg"><title/><g data-name="Layer 2" id="Layer_2"><path d="M17.7,8.779l-.49-.24-8.48-4.1-.05-.03a.864.864,0,0,0-.26-.08.66.66,0,0,0-.28,0,.447.447,0,0,0-.2.04.669.669,0,0,0-.18.07.435.435,0,0,1-.07.04,1.371,1.371,0,0,0-.18.16,1,1,0,0,0-.16.24.9.9,0,0,0-.08.23,1.23,1.23,0,0,0-.02.2.448.448,0,0,0,.01.11.409.409,0,0,0,.01.11L9.52,15.7l.09.43a1,1,0,0,0,.98.78,1.5,1.5,0,0,0,.21-.02,1.006,1.006,0,0,0,.76-1.2l-.44-1.98a27.41,27.41,0,0,1,4.18-3.87l1.52.74a1,1,0,1,0,.88-1.8Z" style="fill:#30193d"/><path d="M56.73,5.119a.755.755,0,0,0-.08-.24,1,1,0,0,0-.16-.24,1.371,1.371,0,0,0-.18-.16.437.437,0,0,1-.07-.04.669.669,0,0,0-.18-.07.447.447,0,0,0-.2-.04.66.66,0,0,0-.28,0,.864.864,0,0,0-.26.08l-.05.03-8.58,4.15-.39.19a1,1,0,0,0,.44,1.9.966.966,0,0,0,.43-.1l1.42-.69a27.553,27.553,0,0,1,4.25,3.97l-.41,1.83a1.014,1.014,0,0,0,.76,1.2,1.806,1.806,0,0,0,.22.02,1.013,1.013,0,0,0,.98-.78l.05-.24,2.29-10.36a.822.822,0,0,0,.02-.22A1.231,1.231,0,0,0,56.73,5.119Z" style="fill:#30193d"/><circle cx="32" cy="32" r="27.758" style="fill:#66337b"/></g><g data-name="Layer 1" id="Layer_1"><path d="M28.809,29.807,13.4,24.667a1,1,0,0,0-.76.06.941.941,0,0,0-.5.57,9.133,9.133,0,0,0,5.77,11.54,8.985,8.985,0,0,0,2.87.47,9.156,9.156,0,0,0,8.67-6.24A1,1,0,0,0,28.809,29.807Z" style="fill:#30193d"/><path d="M51.839,25.267a.984.984,0,0,0-1.26-.63l-15.39,5.21a1.039,1.039,0,0,0-.58.51,1.052,1.052,0,0,0-.05.76,9.148,9.148,0,0,0,8.65,6.2,9.126,9.126,0,0,0,8.63-12.05Z" style="fill:#30193d"/><path d="M42.6,43.6a1,1,0,0,1-.9-.559,10.667,10.667,0,0,0-19.145,0,1,1,0,0,1-1.795-.882,12.666,12.666,0,0,1,22.735,0,1,1,0,0,1-.9,1.441Z" style="fill:#30193d"/></g></svg>