<?xml version="1.0" encoding="iso-8859-1"?>
<!-- Generator: Adobe Illustrator 19.0.0, SVG Export Plug-In . SVG Version: 6.00 Build 0)  -->
<svg version="1.1" id="Capa_1" xmlns="http://www.w3.org/2000/svg" xmlns:xlink="http://www.w3.org/1999/xlink" x="0px" y="0px"
	 viewBox="0 0 512.001 512.001" style="enable-background:new 0 0 512.001 512.001;" xml:space="preserve">
<g>
	<g>
		<path d="M114.248,324.19c-0.633-5.099-2.406-8.649-4.779-13.086c-4.508-8.43-12.88-14.174-22.385-15.449
			c-9.465-1.27-17.894,3.567-23.867,10.783c-6.4,7.73-9.71,20.473-7.988,30.389c0.742,4.269,4.673,12.617,9.547,14.984
			c8.378,7.475,21.312,10.109,31.893,5.372c7.931-3.55,13.406-10.001,15.851-18.254C113.947,334.112,114.872,329.213,114.248,324.19
			z M104.113,334.446c-1.759,6.925-5.878,13.315-13.255,15.345c-7.158,1.969-16.325,0.496-21.637-4.887
			c-6.55-6.639-6.545-15.83-3.456-24.098c0.893-2.389,1.938-4.727,3.351-6.83c1.76-2.296,3.889-4.32,6.354-5.944
			c7.46-4.917,16.639-2.961,22.822,3.343C104.28,317.479,106.168,326.355,104.113,334.446z"/>
	</g>
</g>
<g>
	<g>
		<path d="M92.11,316.2c-3.469-2.481-8.646-1.635-11.945,0.741c-0.913,0.657-1.878,1.939-2.741,3.549
			c-0.473,0.643-0.875,1.324-1.184,2.009c-2.026,4.491-2.953,9.997,0.438,14.085c2.821,3.4,8.023,4.705,12.154,3.148
			c3.897-1.467,6.454-5.967,7.103-9.914C96.619,325.655,95.849,318.873,92.11,316.2z M90.314,327.867
			c-0.48,3.857-5.301,8.932-8.953,5.254c-0.941-3.146-0.637-5.656,0.625-8.93c0.82-2.127,3.094-3.933,5.557-3.703
			C90.657,320.779,90.622,325.397,90.314,327.867z"/>
	</g>
</g>
<g>
	<g>
		<path d="M448.785,306.437c-5.973-7.215-14.402-12.052-23.867-10.783c-9.505,1.275-17.876,7.02-22.385,15.449
			c-2.374,4.438-4.146,7.987-4.779,13.086c-0.624,5.023,0.301,9.922,1.728,14.739c2.444,8.253,7.92,14.704,15.851,18.254
			c10.581,4.737,23.514,2.103,31.893-5.372c4.874-2.367,8.806-10.716,9.547-14.984C458.496,326.91,455.186,314.168,448.785,306.437z
			 M442.781,344.904c-5.312,5.383-14.479,6.855-21.637,4.887c-7.377-2.029-11.496-8.42-13.256-15.345
			c-2.055-8.092-0.167-16.968,5.822-23.071c6.183-6.304,15.362-8.26,22.823-3.343c2.464,1.624,4.594,3.648,6.354,5.944
			c1.413,2.104,2.458,4.441,3.351,6.83C449.327,329.074,449.332,338.266,442.781,344.904z"/>
	</g>
</g>
<g>
	<g>
		<path d="M435.762,322.499c-0.309-0.685-0.712-1.366-1.185-2.009c-0.862-1.609-1.827-2.892-2.74-3.549
			c-3.3-2.376-8.476-3.223-11.945-0.741c-3.738,2.673-4.508,9.455-3.825,13.618c0.649,3.947,3.205,8.447,7.103,9.914
			c4.131,1.557,9.333,0.252,12.154-3.148C438.714,332.496,437.788,326.99,435.762,322.499z M430.64,333.121
			c-3.651,3.678-8.473-1.396-8.953-5.254c-0.308-2.471-0.343-7.088,2.771-7.379c2.463-0.229,4.737,1.576,5.557,3.703
			C431.277,327.465,431.581,329.975,430.64,333.121z"/>
	</g>
</g>
<g>
	<g>
		<path d="M511.215,251.578c-0.894-7.646-1.474-15.5-2.038-23.163c-1.121-15.229-4.065-32.549-16.565-42.724
			c-4.588-3.736-9.931-5.908-15.339-8.014c-0.6-0.422-1.267-0.81-2.023-1.203c-2.289-1.193-4.081-2.549-6.29-3.84
			c-4.266-2.496-9.195-4.408-13.916-5.992c1.609-6.861,2.418-13.742,3.212-20.854c0.89-7.959,0.149-16.077-5.173-22.523
			c-2.639-3.194-5.045-5.782-8.957-7.369c-4.114-1.667-8.744-2.729-13.069-3.715c-8.717-1.989-17.332-4.836-26.04-1.152
			c-3.565,1.508-7.365,2.57-10.61,4.762c-3.749,2.531-7.166,5.752-10.374,8.918c-5.973,5.894-11.921,12.903-14.702,20.949
			c-0.177,0.512-0.315,1.008-0.447,1.502c-2.577-1.033-5.458-1.247-8.382-1.812c-5.631-1.089-11.39-2.25-17.114-2.755
			c-12.449-1.098-24.997-1.018-37.438-2.006c-14.382-1.143-29.168-0.307-43.598-0.452c-6.655-0.067-13.195,0.323-19.827,0.335
			c-5.815,0.012-11.377,0.01-17.044,0.867c-0.946-1.109-2.013-2.106-3.239-2.918c-4.307-2.852-9.92-3.773-15.004-3.361
			c-2.664,0.217-5.203,0.885-7.596,2.078c-0.33,0.164-0.672,0.342-1.02,0.525c-0.02-0.09-0.041-0.182-0.06-0.268
			c-0.566-2.655-1.743-5.171-3.356-7.355c-2.866-3.884-8.404-4.914-13.019-5.263c-5.504-0.417-12.17,1.523-16.592,4.823
			c-2.024,1.51-4.032,3.434-5.786,5.252c-0.86,0.892-1.53,2.057-2.219,3.176c-0.247-0.289-0.485-0.588-0.746-0.865
			c-1.492-1.434-3.181-2.643-5.121-3.374c-3.202-1.208-6.466-0.774-9.788-0.149c-6.613,1.242-12.896,6.76-15.317,12.961
			c-0.685,1.753-1.199,3.547-1.432,5.417c-0.061,0.483-0.072,0.929-0.068,1.343c-7.837-0.36-15.364,2.346-23.088,3.363
			c-4.643,0.613-9.189,1.709-13.764,2.697c-5.188,1.119-10.828,1.617-15.819,3.355c-8.761,3.053-17.489,5.996-26.202,9.197
			c-5.781,2.125-10.894,4.182-15.588,7.338c-3.986,1.672-7.839,3.588-11.27,6.381C6.89,195.866,3.945,213.186,2.824,228.415
			c-0.563,7.663-1.144,15.517-2.037,23.163c-1.03,8.814-0.886,17.049-0.484,25.875c0.75,16.468,1.795,32.909,2.559,49.359
			c0.72,15.537-0.211,32.826,5.281,47.701c5.779,15.651,19.271,23.366,33.533,30.256c7.288,3.52,14.622,5.327,22.407,7.348
			c4.15,1.078,8.082,2.762,12.269,3.695c4.355,0.973,8.751,1.545,13.121,2.397c16.524,3.228,33.139,5.484,49.891,7.211
			c9.976,1.028,20.074,1.571,30.008,2.763c4.904,0.589,9.754,1.586,14.667,2.125c4.642,0.51,9.289,0.301,13.925,0.908
			c16.034,2.102,32.237,2.525,48.37,3.145c22.534,0.864,45.383,0.045,67.706-3.145c4.638-0.607,9.284-0.398,13.925-0.908
			c4.913-0.539,9.763-1.536,14.667-2.125c9.935-1.191,20.032-1.734,30.008-2.763c16.752-1.727,33.367-3.983,49.89-7.211
			c4.369-0.853,8.766-1.425,13.121-2.397c4.187-0.934,8.118-2.617,12.269-3.695c7.784-2.021,15.119-3.828,22.407-7.348
			c14.262-6.89,27.754-14.604,33.533-30.256c5.492-14.875,4.561-32.164,5.282-47.701c0.762-16.45,1.809-32.892,2.558-49.359
			C512.1,268.627,512.244,260.393,511.215,251.578z M379.231,144.419c1.581-3.03,4.286-5.812,6.273-8.649
			c2.278-3.252,5.729-6.281,8.757-8.874c5.722-4.899,14.165-9.714,21.991-8.634c7.429,1.025,15.128,3.268,22.28,5.479
			c9.436,2.917,11.82,12.813,10.866,21.557c-0.398,3.658-0.492,7.322-0.745,10.991c-0.145,2.103-0.728,4.13-0.89,6.226
			c-0.045,0.596-0.036,1.176,0,1.75c-3.313-1.06-6.639-2.076-10.05-2.958c-3.044-0.786-6.114-1.226-9.143-2.101
			c-2.369-0.684-4.993-1.014-7.497-1.505c0.427-0.813,0.839-1.628,1.224-2.436c1.991-4.179,4.074-8.968,6.754-12.749
			c1.755-2.476,5.477-3.986,7.952-1.191c1.26,1.423,1.659,4.12,2.042,5.891c0.362,1.68,2.823,1.541,3.263,0
			c1.623-5.678,1.454-9.824-4.268-13.056c-5.126-2.894-11.488-1.841-15.16,2.694c-4.467,5.518-7.215,12.422-11.01,18.391
			c-2.484,3.908-4.038,6.266-8.856,5.199c-3.944-0.874-7.773-2.306-11.628-3.474c-3.319-1.006-6.797-1.522-10.137-2.528
			c-2.232-0.672-4.395-1.086-4.291-3.873C377.031,148.58,378.336,146.135,379.231,144.419z M408.705,190.16
			c-0.223-1.105-0.484-2.231-0.822-3.33c0.421,0.031,0.855,0.068,1.31,0.124c4.25,0.521,8.542,1.526,12.739,2.377
			c6.288,1.272,12.425,2.925,18.455,5.011c3.091,1.068,5.508,2.293,8.417,3.768c3.28,1.66,5.862,1.663,1.483,3.95
			c-4.83,2.524-9.01,5.709-14.188,7.462c-3.791,1.282-7.246,3.191-10.999,4.579c-4.177,1.544-8.387,2.387-12.647,3.593
			c-1.107,0.314-2.23,0.607-3.345,0.91c-2.369-2.854-4.394-5.846-7.065-8.234c0.542-1.391,1.166-2.676,2.258-3.961
			c1.085-1.277,2.377-2.352,3.243-3.818C409.748,198.855,409.529,194.249,408.705,190.16z M372.383,171.311
			c-0.167-2.173-1.737-4.727-0.83-6.844c0.498-1.162,1.959-2.231,3.259-3.129c0.741,0.389,1.533,0.75,2.398,1.069
			c3.84,1.419,7.917,1.982,11.792,3.203c4.313,1.358,8.569,2.909,13.001,3.842c-0.223,0.226-0.438,0.448-0.639,0.661
			c-2.981,3.158-5.154,7.116-4.222,11.602c0.52,2.497,2.232,4.329,3.163,6.639c1.547,3.84,1.993,8.224-0.594,11.568
			c-1.682,2.174-3.901,4.176-5.209,6.459c-2.318-0.471-4.563-0.262-6.748,0.336c-0.178-2.104-0.354-4.35-0.811-6.396
			c-0.967-4.336-4.64-8.336-7.896-11.229c-3.435-3.051-7.265-3.928-11.07-3.479c1.125-1.564,2.034-3.182,2.629-4.581
			C371.863,178.076,372.63,174.516,372.383,171.311z M241.522,152.004c6.642,0.018,13.159-0.592,19.804-0.648
			c14.547-0.129,29.443-1.293,43.962-0.451c12.127,0.705,24.376,0.692,36.509,1.197c5.575,0.23,11.376,1.311,16.898,2.074
			c2.83,0.391,10.845-1.459,11.128,2.918c0.118,1.828-2.102,3.455-2.82,5.029c-0.95,2.082-1.178,4.521-0.876,6.773
			c0.643,4.797-0.854,8.117-3.708,11.506c-0.096-0.262-0.187-0.523-0.286-0.785c-1.653-4.35-4.157-7.613-7.752-10.609
			c-3.456-2.877-7.942-3.756-12.36-3.813c-3.311-0.043-5.482,1.002-7.758,2.348c-4.701-6.24-10.316-10.637-19.122-9.152
			c-9.313,1.567-14.532,8.882-16.932,17.676c-0.007,0.028-0.023,0.083-0.046,0.158c-0.127-0.045-0.242-0.088-0.391-0.133
			c-1.854-0.565-3.656-1.3-5.524-1.834c-3.818-1.09-8.084-1.785-11.995-0.729c-7.668,2.07-10.094,8.938-12.306,15.675
			c-0.423-0.564-0.838-1.074-1.243-1.455c-2.255-2.125-4.832-3.762-7.851-4.555c-3.189-0.837-6.309-0.265-9.434,0.559
			c-0.605,0.16-1.208,0.326-1.809,0.502c0.447-1.311,0.835-2.613,0.927-3.889c0.283-3.91-1.192-8.455-3.098-11.857
			c-1.959-3.498-4.892-5.967-8.704-7.246c-1.838-0.617-3.942-1.032-5.898-1.078c0.344-2.631,0.308-5.164-0.243-7.767
			C234.289,152.367,238.064,151.994,241.522,152.004z M115.928,188.999c3.756-1.852,4.153-6.298,4.023-9.963
			c-0.107-2.991-0.444-5.931,0.37-8.886c0.888-3.221,2.739-3.793,5.677-4.838c4-1.424,7.029-3.773,7.556-8.18
			c0.308-2.568,0.019-4.973,1.056-7.482c1.35-3.269,5.165-6.479,8.582-7.5c6.23-1.859,7.081,2.449,11.451,5.004
			c3.617,2.113,6.858,0.447,8.951-2.736c2.83-4.307,6.79-7.996,11.823-9.494c3.293-0.979,5.914-0.92,9.179-0.115
			c3.139,0.775,3.808,1.33,4.437,4.881c0.62,3.495,0.115,7.275,3.471,9.542c3.992,2.696,7.333-0.595,11.008-2.091
			c3.767-1.533,9.684-2.156,13.004,0.906c4.164,3.841,3.097,10.166,1.914,14.869c-1.041,4.136-0.313,8.726,4.513,9.99
			c4.73,1.24,9.247-4.459,13.022,0.345c3.777,4.806,0.797,10.312-0.05,15.501c-0.713,4.371,1.393,8.777,6.476,8.563
			c4.851-0.204,8.588-5.25,13.699-4.351c5.294,0.932,6.766,7.625,11.15,9.961c2.201,1.172,5.666,0.738,6.829-1.791
			c2.351-5.116,2.758-11.576,6.438-16.042c3.445-4.181,9.158-1.357,13.459,0.042c4.316,1.404,9.435,2.516,12.319-2.04
			c2.764-4.364,2.102-9.343,6.45-12.988c4.981-4.177,10.515-1.941,13.998,3.211c2.479,3.667,4.885,7.138,9.704,4.253
			c2.631-1.574,3.217-2.674,6.585-2.455c3.256,0.211,4.68,1.041,6.896,3.345c1.968,2.046,3.036,3.96,3.765,6.775
			c0.868,3.352-0.147,6.402,0.006,9.776c0.152,3.345,4.275,6.746,7.479,4.291c2.439-1.868,4.928-4.105,8.2-3.748
			c2.854,0.312,4.526,2.387,6.185,4.629c1.76,2.379,2.123,4.985,2.155,8.018c0.028,2.648-0.938,5.012-0.138,7.64
			c0.977,3.208,4.534,4.63,7.471,3.04c3.774-2.045,6.76-3.953,10.714-0.92c1.223,0.938,2.254,2.061,3.219,3.25
			c-13.836,3.31-28.062,5.802-42.001,7.254c-9.156,0.955-18.368,0.988-27.503,1.855c-9.396,0.894-19.227,0.826-28.592,0.1
			c-9.34-0.727-19.125,0.098-28.5,0.225c-4.423,0.061-8.729-0.562-13.162-0.377c-1.088,0.046-2.157,0.144-3.215,0.272
			c-1.058-0.129-2.126-0.227-3.215-0.272c-4.433-0.185-8.739,0.438-13.162,0.377c-9.375-0.127-19.16-0.951-28.5-0.225
			c-9.365,0.727-19.196,0.794-28.592-0.1c-9.136-0.867-18.348-0.9-27.503-1.855c-18.517-1.93-37.541-5.689-55.481-10.771
			c-4.26-1.206-8.47-2.049-12.647-3.593c-3.753-1.388-7.208-3.297-10.999-4.579c-5.626-1.905-19.522-5.535-17.551-14.27
			c0.631-2.785,3.639-5.008,5.76-6.713c5.294-4.256,15.329-6.24,20.527-1.066c1.393,1.386,3.776,1.41,5.168,0
			c3.819-3.867,9.274-7.197,14.475-3.5C107.74,186.432,111.043,191.406,115.928,188.999z M27.476,192.97
			c3.347-2.531,6.79-4.748,10.318-6.725c12.032-6.74,25.054-10.673,38.628-14.567c10.077-2.892,20.985-3.875,31.271-5.836
			c1.695-0.324,3.434-0.729,5.185-1.113c-0.72,1.507-1.208,3.129-1.579,4.807c-0.186,0.843-0.521,5.318-0.544,8.374
			c-1.193-1.005-2.365-2.062-3.508-2.622c-2.785-1.367-5.744-2.176-8.837-1.627c-5.307,0.941-8.338,3.025-11.565,6.291
			c-9.788-6.563-22.748-4.275-31.271,4.11c-3.794,3.732-6.945,9.322-5.502,14.803c0.484,1.837,1.479,3.684,2.805,5.267
			c4.076,5.938,10.392,9.504,17.12,12.494c7.993,3.553,15.64,7.56,24.188,9.63c18.458,4.471,37.499,10.613,56.514,12.13
			c9.622,0.768,19.258,1.173,28.872,1.813c4.05,0.27,7.961,0.581,12.046,0.582c19.411,0.002,38.821-0.148,58.231-0.294
			c18.273-0.138,36.744-1.061,54.891,0.712c5.229,0.511,10.406-0.418,15.646-0.418c4.084-0.001,7.996-0.313,12.046-0.582
			c9.614-0.64,19.25-1.045,28.872-1.813c19.016-1.517,38.056-7.659,56.514-12.13c8.548-2.07,16.194-6.077,24.188-9.63
			c6.123-2.721,23.411-10.617,19.578-19.662c-1.697-4.003-5.444-5.14-8.909-7.166c-6.779-3.966-13.77-5.865-21.35-8.016
			c-4.498-1.277-9.153-2.1-13.759-2.896c-4.23-0.731-8.318-1.895-12.635-1.459c-0.049,0.005-0.095,0.018-0.144,0.024
			c0.333-0.046,3.348-4.736,3.916-5.358c1.081-1.186,4.326-4.711,5.681-5.212c1.922-0.71,7.617,1.015,9.717,1.542
			c3.203,0.802,6.359,1.415,9.582,2.088c5.619,1.176,10.806,3.443,16.265,4.893c8.371,2.223,15.966,6.373,23.386,10.732
			c6.854,4.026,13.709,6.324,18.133,13.546c-2.135,18.709-24.171,24.292-39.351,30.813c-7.786,3.346-16.586,5.231-24.808,7.212
			c-9.411,2.267-18.588,4.87-28.155,6.635c-17.628,3.251-35.556,6.137-53.461,7.542c-8.427,0.662-16.987,0.949-25.373,1.849
			c-4.25,0.456-8.629,0.681-12.918,0.736c-3.555,0.046-6.992,0.763-10.526,0.693c-9.298-0.181-18.702-0.595-27.986-0.539
			c-4.193,0.024-8.545,0.065-12.887,0.272c-4.342-0.207-8.693-0.248-12.887-0.272c-9.285-0.056-18.688,0.358-27.986,0.539
			c-3.534,0.069-6.972-0.647-10.526-0.693c-4.29-0.056-8.667-0.28-12.918-0.736c-8.386-0.899-16.946-1.187-25.373-1.849
			c-17.906-1.405-35.833-4.291-53.461-7.542c-9.567-1.765-18.745-4.368-28.155-6.635c-8.222-1.98-17.023-3.866-24.808-7.212
			c-11.845-5.09-26.57-8.686-34.766-19.443c-1.896-2.489-3.509-5.492-4.104-8.594C20.085,197.602,23.88,195.687,27.476,192.97z
			 M500.019,274.564c-0.455,7.197-1.091,14.381-1.181,21.593c-0.191,15.299-2.215,30.581-2.145,45.878
			c0.059,13.075-1.408,30.98-11.736,40.326c-11.096,10.041-26.128,14.609-40.209,18.256c-8.067,2.09-15.664,4.424-23.92,5.809
			c-7.469,1.252-14.903,2.742-22.362,4.047c-3.562,0.623-7.223,0.463-10.815,1.029c-4.306,0.678-8.643,1.246-12.978,1.736
			c-8.055,0.912-16.144,1.527-24.2,2.406c-31.422,3.43-62.929,6.082-94.471,8.295c-31.542-2.213-63.049-4.865-94.471-8.295
			c-8.057-0.879-16.146-1.494-24.2-2.406c-4.335-0.49-8.672-1.059-12.978-1.736c-3.592-0.566-7.253-0.406-10.815-1.029
			c-7.459-1.305-14.893-2.795-22.362-4.047c-8.256-1.385-15.854-3.719-23.92-5.809c-14.081-3.646-29.113-8.215-40.209-18.256
			c-10.328-9.346-11.795-27.251-11.736-40.326c0.07-15.297-1.953-30.579-2.145-45.878c-0.09-7.212-0.727-14.396-1.181-21.593
			c-0.259-4.104-0.886-8.104-0.716-12.236c0.163-3.963,0.837-7.889,1.126-11.838c0.585-7.998,0.865-16.02,1.485-24.01
			c0.387-4.986,0.951-10.268,2.169-15.319c0.769,1.855,1.771,3.622,2.928,5.13c5.456,7.115,13.302,12.074,21.52,15.578
			c7.638,3.256,14.763,7.029,22.755,9.435c9.029,2.716,18.153,5.194,27.102,8.121c10.141,3.317,21.063,3.938,31.368,6.565
			c9.647,2.459,19.616,2.778,29.433,4.362c17.853,2.881,36.247,4.034,54.278,4.591c10.342,0.319,20.718,1.215,31.146,0.469
			c6.553-0.469,13.009-0.551,19.425-1.057c6.416,0.506,12.872,0.588,19.425,1.057c10.428,0.746,20.803-0.149,31.145-0.469
			c18.032-0.557,36.426-1.71,54.279-4.591c9.817-1.584,19.785-1.903,29.433-4.362c10.304-2.627,21.227-3.248,31.368-6.565
			c8.948-2.927,18.073-5.405,27.102-8.121c7.992-2.405,15.117-6.179,22.755-9.435c8.218-3.504,16.064-8.463,21.521-15.578
			c1.156-1.508,2.158-3.274,2.927-5.13c1.218,5.052,1.782,10.333,2.168,15.319c0.621,7.99,0.9,16.012,1.485,24.01
			c0.289,3.949,0.964,7.875,1.127,11.838C500.905,266.46,500.278,270.461,500.019,274.564z"/>
	</g>
</g>
<g>
	<g>
		<path d="M291.295,328.5c-1.66-9.227-9.221-17.353-16.819-22.37c-7.989-5.274-16.965-5.45-25.964-3.083
			c-4.988,1.312-8.47,4.009-12.834,6.621c-4.178,2.502-6.679,5.275-8.874,9.683c-2.44,4.901-5.401,11.255-5.652,17.222
			c-0.166,1.734-0.2,3.493-0.096,5.266c1.102,18.837,24.751,30.572,41.601,27.525c8.922-1.613,19.064-6.845,24.017-14.629
			C291.296,347.471,292.806,336.903,291.295,328.5z M278.566,349.995c-4.986,7.506-16.092,11.058-24.689,10.44
			c-7.741-0.557-16.922-5.514-21.304-11.979c-5.541-8.174-2.39-19.339,3.491-26.297c2.798-3.311,6.11-5.907,9.596-8.309
			c0.437-0.214,0.865-0.419,1.278-0.613c3.814-1.788,8.289-2.709,12.512-2.508c8.584,0.407,15.346,6.287,19.93,13.22
			C284.079,331.057,283.297,342.873,278.566,349.995z"/>
	</g>
</g>
<g>
	<g>
		<path d="M260.913,322.602c-4.64-0.803-10.581-0.369-13.709,3.517c-1.096,1.36-2.027,2.97-2.646,4.674
			c-2.499,3.544-3.246,8.072-0.746,12.741c5.05,9.431,17.983,9.441,23.836,1.054C272.791,337.217,270.883,324.326,260.913,322.602z
			 M262.421,340.4c-3.146,4.561-9.951,4.867-13.131-0.07c-2.109-3.273-0.091-7.43,2.898-10.199c1.54-1.211,3.303-1.514,5.864-1.371
			c3.108,0.172,5.284,1.049,5.751,4.393C264.135,335.524,263.808,338.389,262.421,340.4z"/>
	</g>
</g>
<g>
	<g>
		<path d="M238.528,205.371c-3.337-1.213-6.721-1.49-10.202-0.849c-1.934,0.356-3.916,0.847-5.618,1.862
			c-0.068,0.04-0.14,0.1-0.21,0.15c-0.352-2.01-0.806-3.99-2.093-5.863c-1.792-2.604-4.84-4.275-7.8-5.207
			c-4.073-1.282-7.654-0.539-10.918,1.141c0.281-1.766,0.468-3.549,0.325-5.383c-0.291-3.692-1.695-7.981-4.183-10.846
			c-1.983-2.283-6.221-3.93-9.189-3.413c-3.725,0.649-5.508,3.32-7.678,5.699c-0.79-1.517-1.512-3.13-2.507-4.438
			c-1.547-2.034-3.167-3.776-5.297-5.222c-4.628-3.141-10.192-2.916-15.016-0.051c-4.519,2.683-7.822,7.555-9.327,12.527
			c-1.116,3.685-1.283,7.166-1.251,10.69c-1.164-0.786-2.417-1.444-3.754-1.841c-4.757-1.41-10.047-0.264-14.305,2.093
			c-3.679,2.038-9.261,6.928-9.883,11.328c-0.573,4.047,1.75,5.356,4.006,5.202c2.618-0.179,5.146-2.325,2.953-4.454
			c1.248-1.795,3.303-3.79,5.187-5.015c2.224-1.446,4.973-2.458,7.659-2.367c4.979,0.168,6.107,4.237,9.575,6.579
			c1.225,0.826,3.552,0.64,4.512-0.583c2.42-3.083,1.233-6.063,1.06-9.782c-0.217-4.656-0.184-10.084,2.166-14.248
			c2.737-4.85,8.933-8.625,13.837-4.454c3.577,3.042,4.051,7.534,6.699,11.022c1.075,1.416,3.047,2.397,4.75,1.246
			c3.46-2.341,7.892-10.348,11.133-3.818c3.083,6.209-0.324,11.67-0.344,17.93c-0.01,3.346,4.248,5.119,6.609,2.737
			c1.91-1.927,2.991-3.626,5.653-4.735c3.613-1.503,7.645-0.439,9.228,3.242c1.587,3.69-0.526,10.647,5.445,11.168
			c4.468,0.389,6.172-5.195,10.488-5.958c6.551-1.158,8.223,3.847,12.122,7.379c0.896,0.812,2.288,0.898,3.177,0
			C250.498,213.83,243.285,207.102,238.528,205.371z"/>
	</g>
</g>
<g>
	<g>
		<path d="M255.592,88.845c-5.16-3.917-13.604-6.443-20.048-6.949c-7.664-0.601-15.671,5.542-19.326,11.879
			c-2.238,3.883-3.685,11.721-0.015,14.84c0.956,1.149,2.156,2.104,3.467,2.768c1.179,0.596,2.452,0.87,3.75,1.048
			c0.55,0.075,1.241,0.214,1.792,0.142c0.021-0.002,0.037-0.004,0.057-0.008c-0.981,6.563,1.187,13.013,7.476,16.227
			c12.939,6.611,28.061-6.592,30.021-19.207C263.936,102.053,261.875,93.614,255.592,88.845z M246.792,120.792
			c-5.461,3.687-15.463,2.591-14.552-5.89c0.382-3.557,1.916-7.385-2.372-9.215c-2.017-0.861-4.218,0.118-6.206-0.617
			c-4.309-1.595-1.647-5.666,0.079-8.18c0.334-0.487,0.783-1.243,1.311-2.081c4.648-7.396,14.142-4.416,20.852-2.431
			C260.118,96.582,256.755,114.066,246.792,120.792z"/>
	</g>
</g>
<g>
	<g>
		<path d="M199.095,89.685c-3.185-13.441-20.837-14.788-30.922-9.453c-4.926,2.606-9.129,8.616-10.572,13.936
			c-0.332,1.223-0.413,2.692-0.251,4.194c-0.171,2.629,0.385,5.203,2.225,7.255c1.57,1.751,3.735,2.865,6.085,3.072
			c1.228,0.107,2.44-0.081,3.641-0.34c0.941-0.204,3.855-0.516,3.354-1.363c1.161,1.34,1.717,4.521,2.808,5.818
			c1.428,1.697,3.633,2.719,5.873,2.579c4.934-0.308,10.668-5.679,13.655-9.238C198.602,101.839,200.408,95.224,199.095,89.685z
			 M188.296,102.486c-1.427,1.545-3.058,3.254-4.79,4.455c-2.38,1.65-2.965,1.623-4.147-0.857c-1.018-2.135-1.947-4.351-4.385-5.117
			c-1.229-0.386-2.619-0.233-3.867-0.076c-2.568,0.324-4.686,0.77-5.8-0.298c-0.464-1.294-0.887-2.585-0.781-4.02
			c0.036-0.295,0.092-0.626,0.161-0.979c0.043-0.177,0.084-0.354,0.146-0.535c1.658-4.908,5.359-8.318,10.11-9.955
			c5.35-1.841,11.379-0.71,15.184,3.689C193.614,92.824,191.557,98.957,188.296,102.486z"/>
	</g>
</g>
<g>
</g>
<g>
</g>
<g>
</g>
<g>
</g>
<g>
</g>
<g>
</g>
<g>
</g>
<g>
</g>
<g>
</g>
<g>
</g>
<g>
</g>
<g>
</g>
<g>
</g>
<g>
</g>
<g>
</g>
</svg>
