<?xml version="1.0" encoding="iso-8859-1"?>
<!-- Generator: Adobe Illustrator 16.0.0, SVG Export Plug-In . SVG Version: 6.00 Build 0)  -->
<!DOCTYPE svg PUBLIC "-//W3C//DTD SVG 1.1//EN" "http://www.w3.org/Graphics/SVG/1.1/DTD/svg11.dtd">
<svg version="1.1" id="Capa_1" xmlns="http://www.w3.org/2000/svg" xmlns:xlink="http://www.w3.org/1999/xlink" x="0px" y="0px"
	 width="179.119px" height="179.119px" viewBox="0 0 179.119 179.119" style="enable-background:new 0 0 179.119 179.119;"
	 xml:space="preserve">
<g>
	<g>
		<path d="M132.756,73.307c-9.161-21.158-39.123-34.949-62.108-28.935c-0.016-0.104-0.002-0.201-0.032-0.308
			c-2.028-7.201-11.591-19.234-20.242-15.261c-0.929,0.426-1.846,0.972-2.764,1.501c0.211-0.415,0.276-0.904,0.06-1.446
			c-2.144-5.384-8.814-9.391-13.166-12.932c-2.821-2.296-5.661-4.582-8.481-6.89c-0.133-0.187-0.32-0.334-0.549-0.446
			c-3.268-2.682-6.505-5.402-9.639-8.229c-1.202-1.085-2.681,0.511-1.731,1.731c1.6,2.055,3.333,3.983,5.112,5.868
			c-5.083,0.181-10.205,1.834-14.328,4.59c-0.656-0.496-1.295-1.018-1.959-1.501c-1.585-1.153-3.377,1.334-2.048,2.654
			c3.32,3.297,6.713,6.528,10.113,9.75c0.053,0.08,0.125,0.128,0.2,0.19c1.913,1.813,3.828,3.624,5.733,5.442
			c4.69,4.475,9.715,11.315,15.532,14.22c0.029,0.015,0.058,0.015,0.087,0.028c-2.459,2.9-4.666,5.897-6.439,8.776
			c-0.715,1.162-0.433,2.631,0.464,3.594c4.258,4.573,9.191,8.332,15.02,10.585c-13.163,18.878-14.26,43.512,2.979,63.804
			c18.907,22.256,48.741,32.861,73.462,13.554C138.759,127.461,142.671,96.207,132.756,73.307z M131.796,98.436
			c-0.886-0.678-1.817-1.291-2.641-1.883c-2.766-1.992-5.759-3.669-8.708-5.381c1.143-1.842,1.489-3.955,1.302-6.143
			c1.371,1.457,2.798,2.86,4.306,4.197c1.767,1.567,3.633,3.286,5.661,4.649C131.817,95.39,131.828,96.913,131.796,98.436z
			 M131.08,88.763c-0.754-0.479-1.501-0.955-2.206-1.45c-2.97-2.079-5.747-4.386-8.239-7.018c-1.211-3.277-3.161-6.397-4.956-8.68
			c-0.37-0.471-0.784-0.906-1.189-1.35c5.008,3.735,9.87,7.614,14.786,11.472C130.096,84.024,130.653,86.381,131.08,88.763z
			 M107.519,89.394c-6.253-1.781-11.617-11.387-15.085-16.255c-1.411-1.981-3.298-5.586-5.535-8.523
			c8.221,0.99,15.999,4.285,22.424,9.872C113.818,78.394,119.046,92.677,107.519,89.394z M122.955,70.247
			c-9.01-6.685-19.434-12.008-28.36-18.662C105.776,54.622,116.095,61.286,122.955,70.247z M89.129,50.385
			c4.784,4.682,9.97,8.852,15.402,12.746c-2.627-1.21-5.432-2.132-8.298-2.765c-0.062-0.229-0.16-0.455-0.327-0.666
			c-1.969-2.474-5.076-4.113-7.675-5.857c-1.937-1.3-3.818-2.657-5.647-4.081C84.769,49.82,86.957,50.036,89.129,50.385z
			 M78.742,49.805c1.722,1.925,3.565,3.715,5.627,5.327c1.751,1.369,3.524,2.896,5.353,4.311c-1.848-0.118-3.687-0.158-5.485-0.031
			c-2.497-1.494-5.213-2.705-7.7-4.202c-2.085-1.255-4.075-2.651-5.957-4.18C73.254,50.359,75.988,49.958,78.742,49.805z
			 M78.673,60.247c-0.458,0.107-0.924,0.202-1.37,0.328c-2.079,0.586-1.741,4.05,0.523,3.861c0.126-0.011,0.251-0.004,0.377-0.014
			c1.221,2.989,4.237,5.888,5.957,8.373c3.38,4.879,6.75,9.75,10.526,14.337c0.4,0.486,0.815,0.964,1.24,1.436
			c-13.461-9.96-27.788-19.02-40.502-29.087c1.151-1.233,2.278-2.469,3.383-3.71c3.281,2.973,6.702,5.761,10.221,8.459
			c3.843,2.946,7.92,7.386,12.511,9.058c1.018,0.371,1.834-0.899,1.343-1.748c-2.009-3.481-6.669-5.749-9.881-7.971
			c-4.353-3.011-8.72-6.03-12.92-9.257c0.185-0.216,0.383-0.429,0.565-0.646c0.714,0.328,1.57,0.399,2.49-0.036
			c1.546-0.732,3.132-1.336,4.74-1.858C71.007,54.932,74.753,57.959,78.673,60.247z M36.693,30.151
			c0.389-1.347,1.044-2.383,1.763-3.36c1.935,1.775,3.942,3.375,6.048,4.5c0.338,0.181,0.723,0.239,1.107,0.22
			c-3.373,2.211-6.621,4.995-9.604,8.05C35.561,36.385,35.796,33.261,36.693,30.151z M24.796,29.231
			c-1.53-1.277-3.022-2.507-4.329-3.685c-1.323-1.192-2.659-2.379-4.004-3.557c0.885-0.312,1.766-0.622,2.72-0.836
			c2.439-0.546,5.092-0.196,7.48-0.843C25.182,22.869,24.643,26.073,24.796,29.231z M18.415,18.369
			c-1.466,0.35-2.916,0.904-4.255,1.644c-2.156-1.847-4.354-3.643-6.579-5.4c4.933-2.657,9.912-2.841,15.415-2.808
			c1.977,1.925,3.988,3.818,6.018,5.692c-0.338,0.273-0.639,0.579-0.933,0.89c-0.139-0.258-0.349-0.487-0.698-0.612
			C24.645,16.798,21.174,17.708,18.415,18.369z M27.589,31.615c-0.142-4.396,0.58-8.725,3.72-11.912
			c1.432,1.41,2.885,2.904,4.389,4.418c-0.773,1.387-1.312,2.951-1.691,4.261c-0.857,2.963-0.957,6.187-0.537,9.286
			C31.853,35.527,29.759,33.519,27.589,31.615z M32.436,53.397c3.846-5.613,9.007-10.552,14.089-14.945
			c4.472-3.865,8.238-5.775,13.089-0.975c2.532,2.505,3.889,5.89,6.249,8.488c-1.785,0.727-3.525,1.555-5.176,2.566
			c-0.251,0.021-0.501,0.079-0.733,0.229c-6.268,4.031-11.652,8.901-15.993,14.335C39.496,60.334,35.835,57.209,32.436,53.397z
			 M55.49,132.409c-7.982-7.158-13.286-16.381-15.65-26.356c5.612,7.704,12.82,14.882,18.835,21.905
			c4.011,4.683,8.765,10.657,14.104,15.474C66.54,140.797,60.616,137.005,55.49,132.409z M84.385,146.798
			c-8.321-7.924-17.103-14.965-24.897-23.683c-6.227-6.964-12.516-16.801-20.592-22.082c-0.229-1.699-0.345-3.417-0.406-5.141
			c7.729,7.751,15.438,15.394,22.888,23.537c9.692,10.595,21.837,19.013,33.322,27.647
			C91.294,147.422,87.837,147.344,84.385,146.798z M98.417,146.523c-12.225-10.789-25.631-20.16-36.772-32.108
			c-5.987-6.42-14.043-17.928-23.192-21.386c0.049-2.533,0.313-5.078,0.733-7.618c20.047,21.144,40.744,42.569,66.095,57.311
			c1.668,0.97,3.078-1.512,1.497-2.561c-24.595-16.312-45.232-37.256-67.25-56.693c0.347-1.591,0.836-3.113,1.431-4.583
			c13.253,12.508,26.627,24.917,40.011,37.282c9.25,8.546,21.305,15.326,29.175,25.187c0.049,0.062,0.105,0.091,0.158,0.135
			C106.551,144.006,102.55,145.654,98.417,146.523z M119.521,132.697c-13.609-13.991-30.479-24.801-45.11-37.764
			c-7.437-6.589-19.617-20.367-30.43-20.79c-0.436-0.017-0.531,0.554-0.209,0.771c12.322,8.284,23.11,17.742,33.993,27.863
			c12.59,11.71,26.842,21.037,39.848,32.24c-1.835,2.088-3.772,3.883-5.795,5.399c-0.013-0.1-0.03-0.199-0.075-0.296
			c-4.856-10.322-20.164-18.603-28.41-26.317C69.865,101.205,56.502,88.24,41.71,77.179c1.5-3.153,3.515-6.049,5.754-8.821
			c29.391,13.254,45.921,44.919,74.878,58.007c0.57,0.259,1.222,0.017,1.59-0.404C122.59,128.316,121.153,130.602,119.521,132.697z
			 M124.17,125.524c0.107-0.349,0.037-0.734-0.365-1.052c-24.457-19.371-46.016-44.894-74.771-57.988
			c1.624-1.889,3.333-3.725,5.041-5.551c22.47,22.207,50.805,37.317,72.017,61.043C125.509,123.195,124.826,124.352,124.17,125.524z
			 M104.617,95.265c4.078,1.796,8.579,1.88,13.182-1.336c0.475-0.331,0.887-0.687,1.268-1.055c2.48,1.851,4.96,3.696,7.354,5.661
			c1.712,1.403,3.264,3.459,5.057,4.846c-0.156,1.367-0.37,2.729-0.626,4.085c-0.954-0.704-1.874-1.366-2.567-1.974
			c-3.71-3.261-7.323-6.686-11.157-9.797c-0.883-0.716-1.969,0.362-1.244,1.243c2.884,3.512,6.265,6.663,9.474,9.872
			c1.524,1.525,3.025,3.064,4.502,4.635c0.023,0.024,0.044,0.052,0.066,0.075c-0.614,2.323-1.357,4.615-2.25,6.844
			C121.1,109.708,113.187,102.182,104.617,95.265z"/>
		<path d="M177.046,85.324c-5.884-2.893-12.093-4.534-18.312-6.332c3.791-2.624,7.526-5.262,10.926-8.495
			c2.163-2.057,0.497-5.749-2.387-5.761c-4.414-0.019-8.765-0.185-13.128-0.447c3.424-6.17,7.259-12.034,9.916-18.655
			c1.015-2.528-1.889-4.643-4.127-4.127c-7.43,1.715-14.585,4.208-21.807,6.574c1.05-7.87,2.547-15.641,3.898-23.476
			c0.422-2.446-2.035-5.063-4.505-3.464c-5.597,3.623-10.566,7.963-15.82,12.011c-1.418-7.022-3.034-13.752-6.15-20.359
			c-1.063-2.254-4.096-1.287-4.803,0.628c-2.575,6.983-4.229,13.883-5.525,21.205c-0.37,2.09,2.637,2.999,3.225,0.889
			c1.403-5.029,2.782-9.763,4.647-14.48c1.841,5.879,2.725,11.843,3.799,18.041c0.311,1.797,2.849,2.781,4.319,1.757
			c4.631-3.226,8.938-6.855,13.439-10.228c-1.419,7.369-2.809,14.726-3.715,22.194c-0.26,2.145,2.298,3.733,4.173,3.179
			c6.601-1.948,13.056-4.256,19.644-6.17c-2.859,5.325-6.269,10.331-8.921,15.797c-1.173,2.414,0.278,4.826,2.906,5.066
			c3.106,0.284,6.182,0.479,9.261,0.608c-2.818,2.02-5.711,3.929-8.552,5.997c-2.382,1.734-2.118,5.194,0.809,6.186
			c6.32,2.143,12.867,3.503,19.084,5.89c-3.424,2.868-7.36,4.917-11.835,6.105c-4.122,1.405-2.353,7.969,1.806,6.551
			c7.298-2.49,12.97-5.878,18.421-11.35C179.193,89.191,179.035,86.304,177.046,85.324z"/>
		<path d="M83.219,173.923c-3.851-3.614-6.667-7.647-9.19-12.272c-0.687-1.26-2.138-1.684-3.466-1.41
			c-5.207,1.072-9.106,2.87-12.493,5.858c-0.451-4.433-0.412-8.821-0.665-13.374c-0.128-2.314-2.385-3.562-4.438-2.547
			c-5.989,2.966-11.408,6.543-16.766,10.408c-1.27-7.12-0.677-14.251-0.503-21.561c0.048-2.044-1.943-3.287-3.798-2.893
			c-3.35,0.711-6.532,1.723-9.704,2.829c2.28-5.9,5.191-11.538,6.911-17.684c0.422-1.509-0.502-3.274-2.069-3.643
			c-4.431-1.041-8.84-1.703-13.339-2.385c2.675,0.405,5.727-1.006,9.515-2.732c2.082-0.949,0.577-4.136-1.515-3.592
			c-4.8,1.246-9.346,2.834-14.005,4.529c-1.313,0.478-2.299,1.535-2.29,3.007c0.002,0.269,0.003,0.537,0.005,0.806
			c0.008,1.323,0.936,2.715,2.286,3.002c4.886,1.041,9.824,1.659,14.734,2.521c-2.371,6.868-5.957,13.224-7.933,20.271
			c-0.581,2.07,1.494,4.484,3.688,3.688c3.827-1.389,7.541-2.779,11.405-3.864c-0.25,7.997-0.497,15.664,1.857,23.52
			c0.502,1.675,2.772,2.965,4.363,1.775c5.162-3.855,10.308-7.459,15.849-10.597c0.128,5.417,0.22,10.671,1.454,16.1
			c0.638,2.812,4.172,2.73,5.602,0.732c10.606-14.811,12.835-3.033,20.164,3.846C81.761,180.969,86.111,176.637,83.219,173.923z"/>
	</g>
</g>
<g>
</g>
<g>
</g>
<g>
</g>
<g>
</g>
<g>
</g>
<g>
</g>
<g>
</g>
<g>
</g>
<g>
</g>
<g>
</g>
<g>
</g>
<g>
</g>
<g>
</g>
<g>
</g>
<g>
</g>
</svg>
