<?xml version="1.0" encoding="iso-8859-1"?>
<!-- Generator: Adobe Illustrator 16.0.0, SVG Export Plug-In . SVG Version: 6.00 Build 0)  -->
<!DOCTYPE svg PUBLIC "-//W3C//DTD SVG 1.1//EN" "http://www.w3.org/Graphics/SVG/1.1/DTD/svg11.dtd">
<svg version="1.1" id="Capa_1" xmlns="http://www.w3.org/2000/svg" xmlns:xlink="http://www.w3.org/1999/xlink" x="0px" y="0px"
	 width="192.597px" height="192.597px" viewBox="0 0 192.597 192.597" style="enable-background:new 0 0 192.597 192.597;"
	 xml:space="preserve">
<g>
	<g>
		<path d="M184.559,19.847c-0.255-0.171-0.56-0.281-0.837-0.427c-0.436-1.654-0.972-3.28-1.621-4.877
			c-0.092-0.275-0.253-0.462-0.391-0.679c1.172-1.183,1.515-3.028-0.156-4.45c-5.641-4.797-13.438-12.055-21.539-8.438
			c-15.527,6.934-27.679,22.713-39.188,34.744c-12.259,12.815-24.988,25.165-37.532,37.701C76.546,80.164,60.1,90.742,56.56,100.358
			c-0.027-0.011-0.055-0.021-0.082-0.032c-0.312-0.127-0.558,0.02-0.745,0.232c-3.342-2.013-6.904-3.273-10.758-3.256
			c-10.202,0.044-24.033,14.578-30.207,24.599c-0.332-0.021-0.684,0.076-1.007,0.361c-5.226,4.629-9.449,16.246-4.233,22.427
			c2.434,2.884,5.065,3.342,8.626,2.379c0.48-0.13,3.998-2.334,3.682-2.54c2.956,1.923,5.984,3.741,8.967,5.622
			c7.894,4.976,16.549,10.238,22.147,17.869c3.733,5.088-5.246,11.511-3.727,17.098c2.806,10.323,11.735,8.478,18.06,3.326
			c0.354,0.072,0.73,0.066,1.123-0.092c8.931-3.592,16.781-18.374,22.152-26.066c4.153-5.947,4.956-11.022,3.684-15.771
			c0.31,0.844,1.754,0.996,1.92-0.039c0.729-4.549,0.602-8.236,1.13-10.631c0.467,0.107,0.931,0.246,1.403,0.299
			c1.437,0.162,1.945-2.051,0.727-2.679c-0.168-0.086-0.354-0.147-0.524-0.229c1.363-0.751,3.716-0.453,7.981,1.202
			c1.426,0.553,3.271-0.874,3.13-2.384c-0.77-8.244-3.663-12.952,7.433-10.712c1.739,0.351,3.249-0.754,3.346-2.55
			c0.51-9.478-4.653-16.314,6.198-15.043c1.456,0.172,2.606-1.329,2.638-2.639c0.229-9.309-3.06-13.091,8.854-13.272
			c1.885-0.029,2.777-1.654,2.546-3.342c-0.45-3.289-0.809-6.576-1.194-9.862c3.563,0.782,7.851,1.118,9.615-2.064
			c5.185-9.344-4.804-14.415,10.25-14.655c1.807-0.029,3.151-1.749,2.676-3.512c-4.239-15.721,3.328-5.216,10.043-13.286
			c3.36-4.037,2.547-7.827,0.649-11.872c2.835-0.386,5.58-0.822,8.734-1.164c2.021-0.219,3.298-1.739,2.891-3.795
			c-0.049-0.363-0.155-0.711-0.213-1.071C185.782,22.561,185.747,20.643,184.559,19.847z M161.11,9.986
			c0.045,0.026,0.052,0.074,0.104,0.095c4.858,1.984,9.836,4.116,14.907,5.576c0.028,0.174,0.006,0.33,0.07,0.515
			c0.142,0.335,0.24,0.682,0.369,1.021c-0.222-0.058-0.461-0.108-0.675-0.17c-4.229-1.221-8.439-2.5-12.685-3.664
			c-0.724-0.199-5.057-1.559-7.654-1.344C157.363,11.072,159.221,10.395,161.11,9.986z M116.175,50.11
			c5.158,1.456,10.479,2.294,15.743,3.286c3.914,0.738,7.861,1.763,11.823,2.505c-0.013,0.279-0.054,0.55,0.028,0.858
			c0.333,1.264,0.846,2.763,1.273,4.272c-4.805-2.429-11.457-2.818-16.361-3.74c-5.363-1.008-10.57-2.536-15.827-3.809
			C113.971,52.368,115.062,51.227,116.175,50.11z M105.477,60.848c4.184,2.643,8.818,4.34,13.655,5.699
			c-5.619-1.157-11.341-1.959-16.586-2.781C103.527,62.796,104.499,61.818,105.477,60.848z M89.677,76.55
			c10.344,4.713,21.757,7.915,32.997,9.828c0.012,0.139-0.026,0.258,0.006,0.403c0.083,0.373,0.161,0.718,0.239,1.068
			c-4.188-1.219-9.114-1.321-12.98-1.887c-8.299-1.214-16.647-2.485-24.618-5.084C86.789,79.443,88.223,77.997,89.677,76.55z
			 M83.05,83.076c6.529,2.837,13.577,4.339,20.563,5.695c2.417,0.469,5.114,1.187,7.896,1.896
			c-10.612-1.019-21.653,0.23-31.454-4.823C81.046,84.911,82.069,84.019,83.05,83.076z M81.46,164.189
			c-3.146,4.279-8.93,9.345-12.719,14.593c-0.673,0.16-1.317,0.538-1.8,1.269c-3.286-0.306-6.571-0.609-9.856-0.914
			c0.819-1.335,1.576-2.706,2.27-4.111c0.879-1.687,1.017-3.132,0.855-4.959c-0.339-3.807-3.146-6.885-5.571-9.591
			c-8.445-9.418-20.856-15.408-31.331-22.192c-1.19-0.771-2.665-0.396-3.661,0.473c-7.621,6.646-6.33-4.444-4.89-10.886
			c2.107-1.851,9.973-8.351,13.25-11.665c7.797-7.886,17.875-17.705,28.95-6.074c5.437,5.71,9.575,12.374,15.148,18.011
			c5.338,5.399,10.701,10.581,15.034,16.868C92.172,152.312,85.595,158.566,81.46,164.189z M94.072,131.421
			c-1.717-0.523-3.454-0.998-5.098-1.566c-2.89-0.999-5.79-1.952-8.724-2.796c-2.2-2.558-4.482-5.548-6.867-8.62
			c6.277,3.983,13.56,6.904,20.571,9.14c0.002,0.021-0.014,0.032-0.013,0.054C94.015,128.905,94.024,130.157,94.072,131.421z
			 M94.121,146.122c-1.648-5.625-6.183-10.813-11.544-16.465c2.288,0.936,4.549,1.938,6.801,2.971
			c1.557,0.713,3.165,1.537,4.812,2.225C94.269,138.594,94.276,142.331,94.121,146.122z M98.451,126.449
			c-0.11-0.544-0.438-1.059-1.074-1.325c-9.334-3.904-18.753-5.929-27.29-11.717c-0.271-0.183-0.556-0.203-0.814-0.125
			c-2.812-3.42-5.795-6.686-8.986-9.39c14.125,6.621,28.66,13.275,43.54,17.748C105.684,129.018,105.55,129.757,98.451,126.449z
			 M105.769,116.209c-0.688,0.071-1.268,0.379-1.727,0.794c-14.313-5.728-29.322-9.685-43.749-15.199
			c1.887-0.639,3.587-1.839,5.228-3.185c15.438,7.735,33.188,11.477,49.921,15.062C114.458,115.538,111.542,115.613,105.769,116.209
			z M67.659,96.807c0.71-0.618,1.418-1.234,2.136-1.808c0.994-0.796,1.934-1.668,2.908-2.491c6.253,2.213,12.542,4.295,18.878,6.276
			c7.221,2.26,15.233,5.699,22.859,5.416c0.51,2.032,0.896,3.685,1.132,5.041C99.858,103.882,83.136,102.97,67.659,96.807z
			 M116.378,98.468c-1.438,0.084-2.501,1.169-2.569,2.531c-5.556-2.673-12.054-3.431-18.017-4.917
			c-7.053-1.758-14.091-3.551-21.158-5.23c1.24-1.082,2.421-2.239,3.633-3.357c4.91,3.336,10.49,4.91,16.515,6.085
			c8.729,1.702,18.948,3.487,27.784,3.139c0.2-0.008,0.366-0.059,0.532-0.11C122.09,97.728,120.07,98.253,116.378,98.468z
			 M128.76,83.051c-12.486-2.936-25.063-4.12-37.12-8.45c1.711-1.708,3.425-3.406,5.139-5.105c6.11,2.211,12.291,4.212,18.487,6.171
			c6.217,1.966,12.642,4.64,19.113,5.707C133.58,82.385,131.893,82.69,128.76,83.051z M118.906,73.119
			c-6.77-1.757-13.509-3.62-20.247-5.493c0.178-0.175,0.355-0.354,0.532-0.528c0.679-0.67,1.352-1.345,2.029-2.016
			c5.358,1.347,10.75,2.558,16.095,3.964c5.992,1.576,11.519,4.184,17.299,6.18c0.127,0.905,0.231,1.705,0.294,2.396
			C129.857,75.474,124.176,74.487,118.906,73.119z M145.143,67.746c-12.063-4.65-25.946-2.941-37.593-8.961
			c1.069-1.062,2.13-2.133,3.198-3.196c3.62,2.549,9.213,3.412,13.051,4.373c3.902,0.978,7.822,1.881,11.718,2.892
			c3.381,0.878,6.775,2.514,10.253,2.815C145.726,66.466,145.55,67.184,145.143,67.746z M148.578,53.041
			c-4.393-1.32-9.217-1.609-13.729-2.117c-5.767-0.65-11.497-1.495-17.242-2.266c1.736-1.744,3.449-3.514,5.181-5.262
			c5.135,2.935,10.598,4.696,16.431,5.98c4.954,1.09,10.688,2.673,15.925,2.459C154.227,52.728,152.173,52.721,148.578,53.041z
			 M142.583,45.525c-5.95-0.817-11.869-2.162-17.358-4.607c1.594-1.62,3.209-3.217,4.784-4.859c0.115-0.12,0.232-0.247,0.349-0.369
			c4.295,1.246,8.616,2.386,12.952,3.483c3.633,0.92,7.353,2.229,11.096,2.981c-0.103,0.447-0.141,0.905-0.024,1.34
			c0.398,1.498,0.707,2.719,0.935,3.759C151.264,46.062,146.678,46.089,142.583,45.525z M159.743,39.533
			c-0.02-0.012-0.03-0.03-0.052-0.041c-4.056-2.104-8.773-2.522-13.236-3.348c-4.67-0.865-9.332-1.746-13.975-2.733
			c1.604-1.759,3.259-3.63,4.959-5.519c9.499,3.421,19.725,6.994,29.833,7.981C166.064,38.233,162.768,39.033,159.743,39.533z
			 M139.923,25.168c1.472-1.591,2.98-3.155,4.518-4.654c4.909,1.137,9.776,2.434,14.633,3.772c2.082,0.574,4.323,1.374,6.604,2.075
			c-0.118,0.616-0.046,1.289,0.328,1.969c0.584,1.063,1.003,2.017,1.289,2.881C158.22,29.015,148.986,27.583,139.923,25.168z
			 M173.084,23.329c-3.484-1.192-7.441-1.568-10.946-2.319c-5.001-1.071-10.007-2.096-15.046-2.961
			c2.125-1.887,4.309-3.578,6.55-4.952c-0.057,0.205-0.081,0.432-0.034,0.708c0.16,0.935,1.573,0.667,1.599-0.216
			c-0.049,1.721,12.15,4.866,13.854,5.502c2.427,0.906,5.53,2.525,8.606,3.558C176.139,22.874,174.6,23.108,173.084,23.329z"/>
		<path d="M83.975,145.007c-9.064-10.512-17.109-23.954-29.756-30.536c-10.938-5.693-22.132,8.337-25.501,16.812
			c-1.084,2.729,2.91,4.709,4.735,2.963c7.026,11.056,17.107,22.144,28.698,27.269c10.596,4.685,17.103-5.332,22.283-12.952
			C85.208,147.423,84.798,145.962,83.975,145.007z M70.814,156.068c-5.018,3.758-13.306-3.559-16.78-6.469
			c-6.789-5.685-12.728-12.249-18.687-18.77c2.585-4.824,5.991-8.872,11.417-10.957c5.824-2.237,11.342,4.442,14.781,7.895
			c6.044,6.069,11.174,12.981,16.704,19.512C76.119,150.493,73.919,153.743,70.814,156.068z"/>
	</g>
</g>
<g>
</g>
<g>
</g>
<g>
</g>
<g>
</g>
<g>
</g>
<g>
</g>
<g>
</g>
<g>
</g>
<g>
</g>
<g>
</g>
<g>
</g>
<g>
</g>
<g>
</g>
<g>
</g>
<g>
</g>
</svg>
