<?xml version="1.0" encoding="iso-8859-1"?>
<!-- Generator: Adobe Illustrator 19.0.0, SVG Export Plug-In . SVG Version: 6.00 Build 0)  -->
<svg version="1.1" id="Capa_1" xmlns="http://www.w3.org/2000/svg" xmlns:xlink="http://www.w3.org/1999/xlink" x="0px" y="0px"
	 viewBox="0 0 512 512" style="enable-background:new 0 0 512 512;" xml:space="preserve">
<g>
	<g>
		<g>
			<path d="M375.037,98.455c-0.781,2.697,0.501,5.22,3.102,6.294c0.71,0.293,1.404,0.423,2.084,0.44
				c0.218,0.101,0.471,0.149,0.761,0.091c2.517-0.508,4.789-1.184,7.081-1.493c-1.667,3.07-2.964,7.141-1.619,10.485
				c1.084,2.695,4.395,4.467,7.214,3.976c0.528-0.092,0.723-0.883,0.323-1.224c-1.747-1.492-4.629-1.624-5.351-4.174
				c-0.675-2.385,0.068-5.426,1.104-7.78c-0.826,5.034,1.889,10.066,7.426,11.573c3.155,0.859,6.515,0.223,9.122-1.756
				c1.432-1.087,3.143-2.936,3.614-4.853c0.002,0,0.004,0,0.007,0c0.857,3.298-1.769,6.317-2.421,9.661
				c-0.09,0.464,0.428,1.033,0.897,0.689c3.251-2.386,4.8-6.968,3.481-10.694c1.505-0.531,2.805-1.705,3.893-3.673
				c0.67-1.213-1.127-2.26-1.855-1.084c-2.282,3.686-8.72-1.369-11.04-2.411c-2.423-1.088-4.935-2.154-7.55-2.672
				c-4.864-0.963-9.623,0.105-13.853,2.498c-0.695,0.016-1.357-0.082-1.914-0.399c-3.538-2.019,0.832-6.064,2.64-7.382
				c3.249-2.368,7.212-3.229,10.685-5.153c0.681-0.377,0.372-1.461-0.394-1.455C386.221,88.003,376.959,91.807,375.037,98.455z
				 M392.516,103.785c0.767,0.122,1.552,0.309,2.366,0.594c1.523,0.533,2.994,1.166,4.454,1.82
				c-0.302,1.039-0.674,2.051-0.912,3.121c-0.369,1.662,1.882,2.71,2.794,1.178c0.547-0.918,0.816-1.958,0.93-3.023
				c1.226,0.565,2.455,1.126,3.706,1.645c0.129,0.053,0.254,0.098,0.381,0.146c-0.196,0.395-0.407,0.801-0.699,1.213
				c-1.388,1.959-3.662,3.168-6.067,3.096C394.433,113.426,391.343,108.376,392.516,103.785z"/>
			<path d="M501.657,484.073c-6.658-2.124-13.521-4.281-19.103-8.638c-5.103-3.984-8.018-9.75-12.277-14.5
				c-4.194-4.677-9.23-6.939-14.667-8.152c7.372-1.964,14.514-5.063,21.04-8.576c2.22-1.194,0.708-4.814-1.72-4.079
				c-7.495,2.269-15.275,3.141-23.073,2.199c-7.527-0.909-14.26-3.906-21.335-6.401c-5.556-1.959-11.012-2.826-16.391-2.648
				c0.73-0.32,1.461-0.635,2.201-0.939c1.728-0.71,2.449-3.919,0-4.275c-13.393-1.945-26.773-1.189-39.682,2.355
				c7.1-6.637,15.709-11.89,25.135-14.076c1.378-0.319,1.424-2.542,0-2.832c-17.302-3.526-35.027-0.364-50.489,8.065
				c-14.097,7.684-24.322,22.074-39.016,28.531c-23.409,1.549-46.719,4.877-69.912,8.532c-21.381,3.369-42.898,7.025-64.527,6.195
				c-21.629-0.83-43.702-6.52-60.618-20.023c-6.836-5.456-13.039-12.845-13.483-21.58c-0.422-8.287,4.454-15.963,10.246-21.905
				c14.819-15.202,36.139-22.621,57.252-24.85c21.113-2.229,42.397,0.224,63.55,2.04c22.086,1.896,44.233,3.099,66.396,3.497
				c5.928,0.107,11.936-0.583,17.838-0.099c4.7,0.386,9.578,1.063,14.065-0.882c0.57,2.527,0.975,5.08,1.271,7.765
				c0.374,3.393,0.859,6.8,2.605,9.802c3.072,5.281,8.584,9.197,14.709,9.836c7.55,0.788,15.59-2.983,22.305-6.027
				c8.211-3.723,15.937-9.119,24.783-11.243c9.061-2.175,18.679,0.846,23.911,8.842c3.131,4.786,2.925,12.866,9.3,14.918
				c0.135,0.043,0.268,0.067,0.403,0.103c-0.033,2.5-1.531,4.81-3.342,6.507c-1.105,1.034-0.26,3.03,1.24,2.995
				c5.641-0.131,12.71-0.062,15.211-6.283c1.376-3.423,1.739-9.692-0.69-13.082c0.009-0.122,0.006-0.243,0.012-0.365
				c4.593,1.615,8.625,2.798,10.124,8.719c0.35,1.382,2.241,1.539,2.954,0.386c3.084-4.988,5.206-11.133,3.326-16.957
				c-0.615-1.905-2.023-4.404-3.873-6.029c1.474-0.323,2.959-1.01,4.529-1.287c4.538-0.802,9.005-0.368,13.484,0.559
				c1.85,0.383,2.987-1.353,2.286-2.974c-1.577-3.65-3.107-7.612-6.419-10.068c-3.412-2.529-6.434-2.117-9.985-1.324
				c-0.107-1.249-0.488-2.466-1.26-3.592c-4.097-5.975-11.963,0.23-17.111-2.725c-3.416-1.961-5.715-5.26-9.353-6.97
				c-3.348-1.574-7.195-2.108-10.868-1.985c-8.926,0.299-16.879,4.791-25.262,7.32c-8.901,2.685-20.133,5.24-29.367,2.687
				c-1.532-0.424-2.838-0.975-3.93-1.665c11.788-7.708,21.51-18.323,28.12-30.666c3.861,1.458,8.622,1.331,12.491,1.072
				c6.258-0.418,12.638-1.644,18.641-3.441c10.361-3.101,20.477-9.49,23.689-20.404c1.765-5.997-0.256-11.388-0.134-17.409
				c0.179-8.825,6.77-7.552,11.628-12.092c0.215-0.201,0.408-0.423,0.594-0.652c1.518,0.168,2.758-0.795,4.364-1.257
				c2.604-0.75,5.269-0.782,7.924-0.295c1.56,0.286,2.671-0.881,2.418-2.417c-0.721-4.372-1.426-8.16-5.56-10.656
				c-2.582-1.56-5.445-1.915-8.318-1.689c4.377-3.97,8.851-7.374,14.641-9.478c0.996-0.362,1.609-1.483,1.008-2.477
				c-3.872-6.395-14.899-7.955-20.182-2.547c2.315-5.798,5.988-10.403,11.615-13.77c0.918-0.549,1.12-2.213,0-2.705
				c-4.326-1.9-8.371-2.429-12.898-0.679c-3.172,1.225-6.434,3.251-8.196,6.224c-5.417-0.302-11.594,3.103-14.933,6.654
				c-3.187,3.39-5.465,7.684-6.611,12.188c-1.649,6.478-0.152,12.836,0.243,19.362c0.445,7.35-1.683,14.499-6.813,19.928
				c-4.707,4.98-10.44,6.4-16.512,8.227c1.399-9.396,1.637-19.264,0.603-28.382c-0.943-8.316-3.557-16.498-8.041-23.53
				c-5.796-12.049-16.87-22.119-27.514-29.478c-14.884-10.291-31.895-16.22-49.508-19.91c-41.675-8.732-84.199-2.919-126.305-5.915
				c-19.059-1.356-50.278-4.431-55.496-26.854c2.521,0.798,5.247,1.308,8.208,1.476c8.256,0.468,17.189,0.292,25.066-2.428
				c4.049-1.398,7.935-3.238,12.022-4.536c5.567-1.768,8.958-0.8,13.991,1.861c7.251,3.834,14.95,7.466,22.905,9.582
				c3.455,0.919,7.262,1.282,10.66,0.384c3.327,2.858,6.305,5.952,7.864,10.182c0.558,1.515,2.702,2.034,3.59,0.469
				c4.356-7.682,5.872-17.965-0.65-23.765c0.657,0.103,1.311,0.224,1.959,0.398c2.483,0.668,4.657,1.844,6.913,3.046
				c1.066,0.568,2.716-0.117,2.6-1.492c-0.387-4.582-1.715-8.988-4.911-12.418c-0.87-0.935-1.934-1.83-3.105-2.555
				c0.96,0.154,1.922,0.326,2.896,0.542c1.258,0.279,2.543-0.815,2.147-2.147c-1.801-6.057-8.063-11.296-14.484-11.141
				c2.876-3.07,9.808-3.901,13.304-3.964c1.373-0.024,2.57-1.678,1.684-2.934c-3.847-5.454-9.355-8.977-15.562-8.554
				c1.229-0.895,2.441-1.83,3.734-2.583c2.593-1.511,5.328-2.679,8.055-3.919c1.101-0.501,1.123-2.103,0.37-2.873
				c-4.764-4.868-13.755-5.559-19.576-2.095c-2.758-0.792-5.986-0.692-8.437-0.166c-8.996,1.929-16.059,8.73-24.709,11.675
				c-4.619,1.573-9.756,2.775-14.673,2.563c-2.544-0.11-5.446-0.54-7.384-2.342c-2.103-1.957-2.532-4.483-2.983-7.121
				c0.269-0.249,0.528-0.505,0.805-0.749c5.011-4.405,10.812-8.003,16.879-10.769c14.925-6.803,32.034-9.182,48.302-7.901
				c16.274,1.282,31.569,7.411,47.273,11.382c8.376,2.118,18.268,4.065,27.658,3.647c-3.579,1.687-7.006,3.722-10.228,5.9
				c-1.554,1.051-0.959,3.408,0.949,3.506c6.09,0.313,12.176,0.767,18.26,1.224c-8.313,4.581-17.559,9.332-22.708,17.032
				c-0.692,1.034,0.203,2.86,1.539,2.681c7.922-1.062,15.847-2.107,23.759-3.244c-4.233,4.679-7.662,9.924-10.273,15.784
				c-0.609,1.366,0.431,3.505,2.191,2.85c7.033-2.616,13.95-5.48,20.748-8.641c-2.119,4.76-4.26,10.199-3.667,14.905
				c0.17,1.345,1.397,2.249,2.705,1.552c5.26-2.802,10.529-5.627,15.715-8.575c-0.24,4.41,0.141,8.571,1.65,12.942
				c0.403,1.168,2.039,1.867,2.972,0.785c2.533-2.938,5.07-5.871,7.576-8.831c1.19-1.406,2.366-2.612,3.293-3.992
				c0.199,1.986,0.401,3.971,0.66,5.953c0.232,1.784,0.296,4.15,2.493,4.61c2.048,0.428,3.701-1.543,5.058-2.72
				c1.958-1.7,4.114-3.123,6.17-4.677c-0.496,3.868-1.506,7.434-3.202,11.044c-0.586,1.247,0.416,3.217,2.008,2.613
				c5.418-2.057,10.705-4.385,15.772-7.181c-0.773,4.894-5.296,10.948-7.227,14.652c-0.739,1.418,0.492,3.328,2.163,2.814
				c6.414-1.971,12.638-4.828,18.468-8.188c-0.592,2.093-1.17,4.188-2.202,6.185c-1.752,3.392-4.284,6.322-6.53,9.387
				c-1.054,1.439,0.68,3.141,2.156,2.805c7.75-1.766,16.742-3.285,23.248-8.252c-0.321,0.733-0.648,1.462-1.012,2.17
				c-1.288,2.503-2.769,4.818-4.488,7.047c-0.821,1.064,0.292,2.739,1.532,2.67c6.403-0.359,15.298-3.272,18.936-9.222
				c6.042-0.353,13.204-4.633,16.21-9.394c1.114-1.764,1.053-3.612,0.159-5.482c4.265-5.365,7.039-11.977,6.043-18.875
				c-0.146-1.009-1.543-1.191-2.172-0.573c-3.257,3.202-6.463,6.324-10.093,8.97c0.727-2.66,0.966-5.36,0.296-8.215
				c0.57,0.519,1.395,0.723,2.12,0.206c4.414-3.147,9.33-5.817,13.078-9.799c1.864,1.5,3.856,2.838,5.928,3.378
				c1.996,10.164,1.014,20.354-4.513,29.455c-6.483,10.674-18.217,14.924-27.734,22.224c-3.674,2.818-7.085,6.07-9.227,10.239
				c-2.877,5.597-3.108,12.349-8.988,15.986c-5.954,3.682-14.938,1.858-20.084-2.481c-3.019-2.546-5.014-6.14-3.258-10.035
				c2.486-5.516,13.44-6.931,10.124,2.371c0.545-1.529-1.362-2.79-2.653-2.04c-4.377,2.54-0.662,7.714,3.642,6.346
				c4.549-1.446,5.458-7.599,2.827-11.131c-7.767-10.426-22.728,2.72-16.721,13.159c6.729,11.692,26.06,13.02,33.347,1.445
				c2.319-3.684,2.637-8.124,4.62-11.95c2.379-4.591,6.482-8.132,10.842-10.773c7.051-4.271,14.918-7.309,20.908-13.149
				c9.88-9.633,14.627-25.057,10.974-38.48c5.084,3.993,8.569,9.838,8.68,16.531c0.152,9.122-6.661,15.701-13.518,20.693
				c-3.16,2.301-6.364,4.465-9.391,6.945c-2.578,2.111-6.241,4.293-7.877,7.272c-2.414,4.396-0.241,9.694,3.375,12.705
				c8.099,6.744,24.254,0.779,21.394-11.029c-1.023-4.224-5.31-6.833-9.469-4.783c-4.706,2.32-4.973,8.952-0.629,11.65
				c1.723,1.07,3.727-1.039,2.738-2.738c-0.222-0.381-0.444-0.763-0.666-1.144l4.758-2.084c0.972,0.53-0.232,4.061-0.591,4.759
				c-1.644,3.199-4.906,5.06-8.393,5.427c-3.518,0.371-8.968-1.684-10.47-5.335c-1.232-2.995-0.685-6.61,1.648-8.71
				c1.486-1.338,3.316-2.385,5.072-3.333c8.154-4.4,16.637-8.497,22.124-16.312c7.487-10.665,4.515-26.829-6.866-32.955
				c0.835-0.726,1.505-1.649,2.091-2.673c1.624-2.835,3.589-6.07,4.393-9.257c1.36-5.395-2.441-9.19-7.225-10.813
				c-3.755-1.273-7.121-1.597-9.949-4.732c-2.012-2.231-3.72-3.816-6.62-4.744c-2.442-0.782-4.722-1.128-6.845-2.682
				c-1.412-1.034-2.52-2.405-3.829-3.556c-2.295-2.017-4.62-3.346-7.717-3.581c-2.902-0.22-5.549,0.396-8.143-1.471
				c-1.592-1.146-2.714-2.836-3.779-4.454c-0.43-0.653-0.836-1.32-1.234-1.993c-2.829-10.75-11.575-21.733-21.663-25.04
				c-2.893-0.948-5.85-1.043-8.867-1.126c-4.831-0.133-7.244-0.649-10.479-4.518c-0.839-1.003-1.762-1.814-2.747-2.464
				c-1.042-3.5-2.775-6.779-3.756-10.315c-1.416-5.098-0.241-8.934,1.945-13.552c2.448-5.17,6.719-12.047,3.159-17.745
				c-2.843-4.551-8.455-3.39-12.174-0.647c-2.376,1.752-4.118,4.127-5.986,6.374c-1.61,1.937-3.319,3.218-5.148,4.528
				c2.096-6.289,3.851-13.256-1.638-18.408c-4.884-4.585-11.022-2.06-13.89,3.275c-1.581,2.94-2.25,6.245-3.478,9.326
				c-5.311-3.532-7.94-7.301-8.82-14c-0.491-3.734-1.149-7.756-4.765-9.748c-2.718-1.497-6.316-1.304-8.856,0.491
				c-1.514,1.069-2.181,2.374-2.974,4.017c-1.25,2.59-2.637,4.381-4.512,6.217c-3.472-4.846-11.326-9.577-16.678-5.274
				c-0.672,0.541-1.212,1.17-1.68,1.849c-3.382-2.7-5.583-5.619-8.326-9.186c-2.024-2.632-4.489-4.908-7.73-5.883
				c-3.062-0.922-6.308-0.71-9.246,0.517c-2.033,0.849-4.343,2.916-6.628,2.885c-2.089-0.028-3.88-1.61-5.566-2.621
				c-4.438-2.661-10.227-3.712-12.784,2.03c-0.951,2.136-0.954,4.543-0.295,6.804c-3.283-2.795-6.624-5.458-10.454-6.788
				c-8.883-3.084-18.82-1.462-26.411,3.978c-1.083,0.776-1.322,2.116-0.405,3.144c4.575,5.128,11.183,6.526,17.333,8.962
				c3.541,1.403,6.702,3.037,9.422,5.099c-4.132-0.842-8.373-0.88-12.772-0.753c-3.557,0.103-7.113,0.303-10.662,0.569
				c-1.656-8.257-10.704-14.303-17.847-17.403c-10.811-4.691-23.267-5.156-34.876-4.694c-1.97,0.078-3.031,2.937-1.065,3.934
				c9.274,4.705,15.202,13.681,18.143,23.405c-2.631,0.59-5.245,1.249-7.849,1.942c-1.67-7.271-9.9-13.024-16.181-16.085
				c-7.35-3.582-15.547-5.047-23.651-3.874c-1.362,0.197-2.077,2.178-1.323,3.252c5.762,8.207,8.093,18.225,13.198,26.738
				c-1.314,0.61-2.619,1.238-3.914,1.882c-8.289-11.847-24.846-17.935-38.648-13.748c-1.883,0.571-2.08,2.966-0.525,4.018
				c8.424,5.7,14.407,12.893,19.817,21.223c-1.403,0.982-2.788,1.991-4.155,3.022c-4.319-4.74-12.4-6.76-18.313-7.776
				c-7.846-1.349-15.86-1.001-23.673,0.39c-1.77,0.315-1.842,2.823-0.478,3.654c4.936,3.005,9.592,6.488,14.054,10.152
				c1.832,1.504,3.583,3.185,5.38,4.802c-5.411-1.209-11.648-0.58-16.729-0.405c-7.118,0.245-14.974,0.757-20.633,5.541
				c-0.976,0.826-0.62,2.483,0.396,3.075c4.439,2.584,10.155,2.868,14.884,5.087c3.764,1.766,6.887,4.48,10.24,6.768
				c-13.406-0.488-28.324,3.087-39.617,9.581c-1.289,0.742-1.393,2.847,0,3.562c8.103,4.155,17.28,4.324,25.755,6.981
				c-4.91,1.198-9.783,3.376-14.184,5.27c-7.49,3.223-14.55,7.226-21.254,11.861c-1.74,1.202-1.033,3.686,1.048,3.867
				c9.019,0.786,17.651,2.81,26.067,5.939c-12.767,7.32-24.336,16.435-34.4,27.215c-1.435,1.536,0.013,3.736,1.962,3.371
				c9.465-1.775,18.986-3.414,28.507-2.115c-12.369,8.307-22.463,21.661-29.756,34.133c-1.029,1.76,1.034,3.858,2.803,2.804
				c8.921-5.316,17.967-10.529,28.023-12.988c-9.778,9.566-18.557,20.059-22.964,33.293c-0.689,2.068,2.045,3.382,3.49,2.031
				c7.788-7.28,16.986-12.702,26.902-16.504c-2.658,4.133-4.548,9.055-6.488,13.34c-2.734,6.041-5.045,12.201-6.759,18.611
				c-0.579,2.165,2.068,3.575,3.651,2.125c5.639-5.162,11.725-9.628,18.258-13.469c-2.838,5.827-5.253,11.863-7.145,18.063
				c-1.334,4.373-5.078,12.51-0.174,15.876c0.709,0.486,1.926,0.322,2.496-0.322c6.083-6.872,12.951-12.804,20.576-17.805
				c-1.168,5.336-1.649,10.939-2.017,16.272c-0.207,3.002-2.114,11.451,1.576,13.332c3.745,1.909,7.021-5.435,8.953-7.418
				c2.284-2.345,4.921-4.291,7.502-6.289c1.488-1.152,3.138-2.997,4.919-4.163c-1.948,10.104-1.03,20.407,2.291,30.205
				c0.456,1.344,2.372,2.169,3.438,0.908c5.999-7.104,11.958-14.241,17.876-21.412c1.603,10.239,5.199,19.886,10.818,28.72
				c0.794,1.249,2.779,1.405,3.537,0c4.193-7.782,8.113-15.691,11.805-23.718c1.77,4.691,3.634,9.349,5.654,13.936
				c1.499,3.407,3.493,11.446,7.925,12.37c4.387,0.914,6.798-6.569,8.343-9.303c2.962-5.242,5.916-10.49,8.837-15.756
				c3.985,8.533,8.923,16.321,15.241,23.461c0.89,1.006,2.617,0.68,3.253-0.419c4.118-7.125,8.064-14.339,11.906-21.613
				c3.027,4.616,6.062,9.228,9.138,13.811c1.841,2.743,4.689,9.574,8.785,9.561c4.068-0.013,5.661-6.123,7.139-8.995
				c2.565-4.988,5.107-9.988,7.651-14.986c3.016,7.25,6.786,14.105,11.4,20.512c0.974,1.353,2.733,1.39,3.701,0
				c4.633-6.658,9.188-13.369,13.746-20.078c-2.714,8.466-6.8,24.608,0.369,23.375c2.109-0.363,3.988-2.608,5.722-3.781
				c2.873-1.944,5.862-3.721,8.961-5.279c2.853-1.435,5.802-2.666,8.817-3.714c-1.124,1.007-2.236,2.025-3.361,3.017
				c-2.966,2.617-6.894,5.166-9.017,8.529c-0.415,0.657-0.362,1.507,0,2.168c1.285,2.348,3.257,4.657,5.402,6.864
				c-2.371-0.853-4.762-1.633-7.032-2.466c-6.038-2.215-12.096-4.365-18.186-6.43c-1.58-0.536-3.083,1.139-2.656,2.656
				c1.786,6.351,2.688,12.701,3.153,19.204c-3.014-3.403-6.686-6.332-10.172-9.115c-4.111-3.282-8.337-6.052-13.354-7.71
				c-1.388-0.459-2.785,0.758-2.798,2.132c-0.069,6.938-1.092,13.601-3.083,20.158c-3.511-3.512-7.041-7.005-10.579-10.491
				c-3.792-3.737-7.432-8.168-12.034-10.919c-1.607-0.961-3.829,0.64-3.239,2.49c1.767,5.545,0.454,12.317-1.032,18.392
				c-2.872-4.467-5.969-8.778-9.29-12.934c-3.937-4.927-8.004-10.112-13.634-13.165c-1.52-0.824-4.063,0.598-3.265,2.51
				c3.361,8.048,2.515,16.261,0.885,24.488c-6.852-9.973-16.938-17.133-28.154-21.693c-1.602-0.651-3.145,1.237-2.717,2.717
				c1.965,6.797,3.832,13.605,4.002,20.618c-9.419-9.2-21.471-15.58-34.19-18.84c-1.964-0.503-3.324,1.544-2.496,3.247
				c3.065,6.309,5.221,12.918,6.37,19.778c-9.976-8.309-22.238-13.641-35.016-15.889c-1.893-0.333-3.316,1.414-2.445,3.18
				c3.91,7.922,7.367,16.004,10.441,24.263c-12.3-7.122-26.128-11.279-40.469-8.5c-1.707,0.331-1.868,2.432-0.937,3.55
				c5.736,6.887,11.434,13.805,17.124,20.73c-7.657-2.019-15.592-1.975-23.612-1.221c-9.422,0.886-19.296,2.016-27.461,7.164
				c-1.36,0.858-1.341,3.411,0.488,3.734c10.857,1.912,21.454,5.664,31.53,10.245c-7.156,0.744-14.181,2.407-21.065,4.629
				c-8.703,2.809-18.261,5.828-25.67,11.345c-1.528,1.138-1.13,3.721,1.016,3.752c11.308,0.164,22.522,1.407,33.607,3.516
				c-12.57,4.284-24.267,10.85-34.773,19c-1.532,1.188-0.12,3.4,1.45,3.501c5.683,0.367,11.582-1.641,17.337-1.846
				c4.759-0.169,9.496,0.094,14.199,0.723c-9.472,6.426-18.537,13.406-24.822,23.187c-0.914,1.423,0.626,3.632,2.306,2.999
				c8.203-3.095,16.61-5.321,25.236-6.648c-4.626,5.047-8.278,10.998-11.072,17.223c-1.849,4.118-6.848,12.277-2.255,15.818
				c0.742,0.572,1.769,0.193,2.398-0.309c6.848-5.476,14.666-9.2,23.068-11.352c-2.904,4.837-5.345,9.946-7.148,15.301
				c-1.24,3.685-5.047,12.391-2.213,16.013c3.143,4.017,8.811-2.131,11.308-3.918c5.605-4.009,11.241-7.904,17.218-11.298
				c-0.578,4.766-0.911,9.555-0.873,14.366c0.026,3.259-0.713,9.499,2.468,11.783c3.115,2.237,5.883-0.716,7.944-2.818
				c4.278-4.363,8.459-8.824,12.658-13.264c1.75,3.932,3.494,7.867,5.283,11.781c1.15,2.516,2.865,7.819,6.012,8.678
				c2.579,0.704,3.849-1.589,5.045-3.491c2.363-3.762,4.561-7.626,6.666-11.538c1.78,2.901,3.745,5.676,5.948,8.291
				c2.769,3.288,6.231,7.623,10.344,9.26c2.494,0.992,5.073,0.575,6.599-1.734c2.141-3.241,3.066-8.228,4.031-12.505
				c1.982,2.686,3.965,5.37,6.015,8.009c1.513,1.948,3.234,5.03,5.92,5.432c2.16,0.323,3.134-0.937,4.303-2.452
				c2.483-3.216,4.425-7.111,6.407-10.784c3.875,4.961,9.897,12.862,15.74,11.638c2.561-0.536,4.067-2.657,5.152-4.872
				c1.52-3.103,2.842-6.073,4.599-8.937c1.9,2.41,3.985,4.639,6.361,6.636c2.258,1.898,5.266,4.772,8.28,5.147
				c2.793,0.348,4.05-1.495,5.112-3.803c1.685-3.66,3.139-7.678,4.34-11.611c2.22,2.258,4.446,4.507,6.728,6.709
				c1.285,1.239,3.221,3.888,5.318,3.624c1.909-0.24,2.521-2.241,3.24-3.697c1.768-3.58,3.38-7.244,5.012-10.892
				c2.643,2.14,5.322,4.239,8.063,6.249c2.537,1.861,6.333,5.695,9.8,5.443c3.074-0.223,3.646-2.877,4.369-5.337
				c1.172-3.988,2.234-8.012,3.314-12.029c4.447,4.167,9.94,8.294,15.512,9.906c1.802,0.521,3.49,0.454,4.756-1.083
				c1.036-1.258,1.002-3.836,1.329-5.333c0.483-2.213,1.316-4.413,1.717-6.63c0.316-0.662,0.392-1.354,0.226-2.075
				c1.021,0.7,2.055,1.38,3.102,2.04c1.829,1.167,3.681,2.287,5.583,3.332c2.498,1.372,5.686,3.641,8.65,3.729
				c2.309,0.068,3.726-1.303,4.974-3.115c0.608-0.883,1.18-1.803,1.736-2.736c1.5,17.438,16.785,31.563,35.672,29.788
				c2.064-0.194,2.932-2.761,1.072-3.957c-4.933-3.171-8.457-7.516-10.509-12.742c4.433,2.121,9.146,3.528,14.101,4.074
				c8.252,0.909,15.728-1.69,23.864-2.227c15.69-1.036,25.719,16.163,41.803,12.855c1.52-0.313,2.213-2.627,0.962-3.644
				c-1.934-1.574-3.755-3.242-5.503-4.981c7.662,3.463,15.67,5.935,24.279,5.177c2.42-0.213,2.862-3.333,0.566-4.186
				c-7.999-2.971-14.877-7.866-20.253-14.284c26.176,9.122,54.27,9.772,81.058,2.12C503.509,487.222,503.43,484.639,501.657,484.073
				z M297.248,455.377c-6.661,1.378-13.278,3.004-19.856,4.676c0.093-0.618-0.085-1.308-0.247-1.887
				c-0.025-0.089-0.056-0.192-0.083-0.289C283.771,456.943,290.501,456.089,297.248,455.377z M275.674,458.072
				c0.03,0.109,0.066,0.218,0.086,0.326c0.123,0.628,0.103,1.377,0.361,1.975c-2.376,0.607-4.746,1.218-7.111,1.826
				c-1.358,0.349-2.717,0.698-4.075,1.049c-0.063-0.332-0.132-0.662-0.188-0.982c-0.147-0.845-0.328-1.676-0.527-2.504
				C268.028,459.17,271.848,458.612,275.674,458.072z M257.789,460.771c1.706-0.277,3.42-0.537,5.131-0.805
				c0.132,0.798,0.268,1.596,0.393,2.394c0.064,0.409,0.1,0.839,0.149,1.267c-4.252,1.098-8.502,2.2-12.759,3.283
				c-0.327-0.984-0.557-2.007-0.669-2.413c-0.197-0.712-0.354-1.559-0.61-2.346C252.213,461.688,255.001,461.224,257.789,460.771z
				 M248.249,462.345c0.177,1.426,0.605,3.339,1.197,4.882c-4.293,1.088-8.59,2.162-12.899,3.185
				c-0.719-1.177-1.365-2.318-1.803-3.754c-0.198-0.651-0.384-1.336-0.613-2.004C238.841,463.905,243.545,463.125,248.249,462.345z
				 M232.744,464.873c0.431,1.352,0.826,2.709,1.319,4.056c0.232,0.633,0.515,1.285,0.885,1.863
				c-4.278,1.004-8.565,1.966-12.868,2.854c-1.951-1.626-2.495-4.327-3.559-6.684C223.268,466.339,228.008,465.62,232.744,464.873z
				 M217.202,467.131c0.847,2.043,1.508,5.178,3.085,6.874c-1.307,0.264-2.612,0.534-3.922,0.784
				c-2.969,0.565-5.954,1.076-8.946,1.556c-0.704-1.059-1.414-2.102-1.799-3.406c-0.422-1.431-0.406-3.041-0.956-4.423
				C208.851,468.14,213.029,467.665,217.202,467.131z M190.565,469.379c0.218-0.007,0.436-0.004,0.654-0.012
				c4.174-0.143,8.338-0.407,12.494-0.765c0.111,2.534,0.494,5.809,1.971,8.019c-4.441,0.686-8.9,1.28-13.374,1.747
				C190.488,476.009,190.494,472.498,190.565,469.379z M178.813,469.381c3.511,0.114,7.022,0.105,10.524,0.02
				c-0.222,2.718-0.218,6.742,1.035,9.163c-3.438,0.331-6.883,0.598-10.33,0.774C178.536,476.464,178.679,472.727,178.813,469.381z
				 M165.026,468.367c4.153,0.488,8.333,0.802,12.518,0.969c-0.111,2.743-0.19,5.574,0.229,8.248
				c0.097,0.621,0.248,1.276,0.499,1.855c-4.244,0.182-8.491,0.236-12.733,0.143C163.956,476.868,164.482,471.817,165.026,468.367z
				 M151.887,466.21c3.889,0.843,7.828,1.487,11.79,1.99c-0.543,3.241-1.087,8.408-0.017,11.325
				c-0.574-0.019-1.149-0.032-1.723-0.056c-3.458-0.145-6.975-0.391-10.509-0.751c-0.896-2.294-1.12-4.322-0.668-7.097
				C151.056,469.804,151.445,467.999,151.887,466.21z M150.702,465.937c-1.191,3.678-2.689,9.098-1.228,12.572
				c-3.8-0.435-7.611-1.009-11.386-1.765c-0.257-0.544-0.44-1.146-0.525-1.881c-0.171-1.474-0.119-3.025-0.005-4.502
				c0.207-2.67,0.889-5.13,1.642-7.629C142.97,463.999,146.813,465.055,150.702,465.937z M137.925,462.283
				c-1.417,3.39-1.958,7.264-1.916,10.86c0.011,0.911,0.068,2.102,0.315,3.225c-3.691-0.798-7.343-1.753-10.898-2.943
				c-0.096-0.424-0.175-0.853-0.213-1.289c-0.155-1.808,0.01-3.638,0.376-5.411c0.587-2.851,1.681-5.585,2.858-8.258
				C131.544,459.902,134.711,461.159,137.925,462.283z M125.856,457.24c0.541,0.27,1.091,0.514,1.635,0.774
				c-1.542,3.06-2.901,6.202-3.459,9.623c-0.235,1.437-0.451,3.367-0.302,5.193c-3.498-1.249-6.903-2.701-10.158-4.414
				c-0.762-5.266,1.656-11.353,4.817-15.514C120.805,454.516,123.317,455.972,125.856,457.24z M110.156,446.299
				c2.238,2.183,4.711,4.182,7.313,5.987c-2.059,2.398-3.271,5.398-4.259,8.388c-0.746,2.256-1.264,4.626-1.079,6.948
				c-0.582-0.324-1.169-0.64-1.741-0.981c-3.679-2.194-6.921-4.818-9.745-7.762c0.887-3.016,2.772-5.651,4.9-8.125
				c1.186-1.379,2.478-2.662,3.854-3.851C109.638,446.696,109.895,446.498,110.156,446.299z M104.244,439.221
				c1.439,2.189,3.136,4.246,5.011,6.174c-0.485,0.405-0.942,0.823-1.357,1.189c-1.716,1.517-3.272,3.217-4.66,5.036
				c-1.052,1.378-2.85,3.651-3.809,5.94c-2.721-3.073-5.009-6.464-6.804-10.12c1.71-2.197,3.796-4.162,6.098-5.681
				C100.476,440.602,102.351,439.928,104.244,439.221z M99.972,416.072c-0.682,2.689-0.999,5.473-0.843,8.337
				c0.044,0.817,0.131,1.622,0.246,2.418c-2.052-0.06-4.243,0.779-5.994,1.596c-1.92,0.896-3.798,2.136-5.317,3.686
				c-0.249-2.035-0.378-4.105-0.381-6.202c-0.005-3.048,0.279-6.051,0.784-9.003C92.325,415.432,96.035,414.951,99.972,416.072z
				 M88.788,415.18c1.049-5.136,2.809-10.091,5.173-14.766c2.557,0.122,4.673,1.304,6.511,3.313
				c1.024,1.119,1.915,2.655,3.007,3.842c-1.349,2.334-2.419,4.782-3.174,7.317C96.628,413.586,92.329,413.532,88.788,415.18z
				 M99.599,428.147c0.675,3.467,2.016,6.72,3.827,9.752c-4.476,1.279-8.559,4.829-11.288,8.538
				c-1.806-3.913-3.084-8.095-3.787-12.463C91.428,430.968,95.302,428.081,99.599,428.147z M104.35,406.123
				c-0.31-0.362-0.635-0.721-0.948-1.102c-1.165-1.419-2.325-2.889-3.805-3.999c-1.55-1.163-3.247-1.737-5.038-1.756
				c2.396-4.507,5.33-8.75,8.697-12.632c3.874,2.824,6.829,5.857,8.716,10.366C109.054,399.771,106.445,402.83,104.35,406.123z
				 M122.602,388.875c-3.304,2.032-6.529,4.406-9.483,7.064c-1.702-4.221-5.028-8.238-9.181-10.099
				c0.669-0.748,1.352-1.484,2.051-2.204c3.182-3.278,6.595-6.214,10.193-8.856c2.062,1.295,3.963,2.93,5.488,4.796
				c1.904,2.33,2.857,4.862,3.825,7.602C124.522,387.727,123.556,388.288,122.602,388.875z M126.754,386.485
				c-1.055-5.256-5.104-9.763-9.759-12.291c3.536-2.534,7.243-4.793,11.093-6.795c4.517,3.709,7.548,8.744,7.717,14.707
				C132.72,383.414,129.702,384.877,126.754,386.485z M137.236,381.518c-0.374-5.804-3.286-11.517-8.248-14.585
				c3.991-2.023,8.126-3.785,12.368-5.313c2.057,2.129,3.995,4.269,5.265,7.024c1.342,2.912,1.203,5.983,1.882,8.957
				C144.676,378.715,140.916,380.022,137.236,381.518z M163.003,374.248c-4.406,0.774-8.769,1.745-13.059,2.937
				c-0.454-5.948-2.432-12.522-7.481-15.968c4.603-1.608,9.326-2.951,14.119-4.068C161.652,361.089,163.15,368.102,163.003,374.248z
				 M177.023,372.419c-4.285,0.377-8.56,0.918-12.801,1.627c1.205-3.561-0.445-7.752-1.81-11.031
				c-1.165-2.796-2.47-4.622-4.568-6.154c5.143-1.154,10.36-2.059,15.593-2.759c1.67,2.5,3.146,5.163,3.962,8.06
				C178.383,365.66,177.846,369.03,177.023,372.419z M192.939,371.675c-2.194,0.021-4.388,0.064-6.583,0.149
				c-2.608,0.101-5.22,0.258-7.832,0.466c0.753-3.179,1.142-6.419,0.375-9.664c-0.759-3.213-2.464-6.026-4.384-8.669
				c5.795-0.745,11.603-1.25,17.34-1.582c1.486,2.402,2.282,5.235,2.482,8.051C194.614,364.326,193.585,367.926,192.939,371.675z
				 M194.471,371.673c1.894-6.306,2.064-13.876-1.562-19.357c3.621-0.197,7.213-0.331,10.753-0.411
				c0.987-0.023,1.974-0.023,2.961-0.04c2.414,2.362,3.493,5.968,4.107,9.197c0.739,3.886,0.38,7.414-1.276,10.936
				C204.461,371.773,199.466,371.656,194.471,371.673z M210.966,372.067c3.143-5.811,1.598-15.347-3.059-20.22
				c4.846-0.068,9.692-0.089,14.539-0.055c1.89,2.851,1.199,8.927,0.806,11.469c-0.526,3.4-1.964,6.245-3.167,9.339
				C217.045,372.396,214.006,372.216,210.966,372.067z M221.711,372.711c2.306-3.772,3.148-8.996,3.198-13.153
				c0.024-1.974,0.063-5.462-1.052-7.753c4.7,0.039,9.401,0.102,14.101,0.178c1.892,2.895,2.026,6.643,1.665,10.18
				c-0.213,2.086-0.584,4.156-1.111,6.186c-0.314,1.209-0.812,3.999-1.692,5.525C231.785,373.463,226.749,373.063,221.711,372.711z
				 M252.964,375.14c-4.937-0.352-9.873-0.754-14.811-1.157c0.794-1.65,1.212-3.648,1.628-5.284
				c0.659-2.594,1.079-5.265,1.227-7.939c0.167-3.009-0.18-6.27-1.749-8.756c5.625,0.091,11.25,0.185,16.874,0.235
				c0.44,1.306,0.675,2.703,0.926,4.038c0.488,2.597,0.812,5.243,0.821,7.889c0.015,4.158-1.037,7.517-2.501,11.127
				C254.574,375.238,253.769,375.197,252.964,375.14z M257.136,375.403c1.781-3.543,2.223-7.995,2.124-11.744
				c-0.09-3.419-0.343-7.881-1.814-11.407c2.891,0.022,5.782,0.035,8.673,0.026c2.027-0.006,4.058-0.026,6.091-0.055
				c1.44,3.728,2.273,7.665,2.353,11.678c0.044,2.237-0.131,4.481-0.544,6.68c-0.362,1.926-1.116,3.763-1.569,5.652
				C267.341,376.014,262.237,375.731,257.136,375.403z M273.942,376.295c1.854-3.718,2.11-8.942,1.959-12.826
				c-0.153-3.908-1.003-7.693-2.488-11.268c4.337-0.073,8.677-0.206,13.007-0.467c0.969,3.845,1.508,7.775,1.394,11.764
				c-0.134,4.694-1.358,8.845-2.815,13.178C281.313,376.578,277.627,376.446,273.942,376.295z M302.362,376.956
				c-5.237-0.015-10.473-0.106-15.708-0.233c3.405-7.584,3.476-17.132,0.906-25.059c5.057-0.331,10.096-0.829,15.086-1.607
				c1.504,4.039,2.367,8.32,2.432,12.632c0.039,2.559-0.183,5.119-0.696,7.627C304.063,371.879,303.551,375.252,302.362,376.956z
				 M304.036,376.955c0.418-0.973,0.659-2.093,0.894-2.865c0.909-2.984,1.413-6.099,1.53-9.215
				c0.195-5.186-0.757-10.255-2.776-14.977c4.084-0.669,8.135-1.524,12.136-2.619c2,4.457,3.808,9.068,4.717,13.858
				c0.535,2.824,0.75,5.719,0.464,8.585c-0.243,2.44-1.334,4.722-1.678,7.09C314.229,376.914,309.133,376.958,304.036,376.955z
				 M320.727,376.788c1.009-1.782,1.338-4.104,1.587-6.041c0.368-2.86,0.254-5.758-0.22-8.599
				c-0.893-5.345-2.995-10.306-5.404-15.11c2.807-0.794,5.591-1.693,8.341-2.746c0.196-0.075,0.356-0.179,0.495-0.298
				c-0.083,1.938-0.108,3.889-0.04,5.861c0.31,8.906,2.892,16.676,5.835,24.996c0.192,0.541,0.37,1.079,0.541,1.615
				C328.152,376.605,324.44,376.707,320.727,376.788z M440.675,419.161c-1.813,1.778-4.334,2.242-6.811,2.198
				c1.019-1.804,1.273-3.876,0.889-6.005c3.176,0.001,6.044-1.71,7.896-4.259c0.005,0.091,0.008,0.19,0.013,0.277
				C442.817,414.061,442.746,417.13,440.675,419.161z M457.724,398.543c1.193,3.612,0.278,7.256-1.167,10.636
				c-2.103-3.594-5.698-6.377-9.74-6.913c3.319-1.268,6.392-4.322,7.952-7.823C455.987,395.521,457.111,396.688,457.724,398.543z
				 M461.245,377.275c5.808-0.072,9.318,3.318,11.457,8.135c-3.367-0.575-6.798-0.581-10.219-0.081
				c-1.807,0.264-4.114,0.477-5.985,1.24C458.838,384.137,460.968,380.671,461.245,377.275z M360.881,365.301
				c-0.676-1.514-0.942-3.343-0.784-5.546c0.406-5.667,2.397-11.065,4.597-16.237c1.13,1.852,2.197,3.751,3.069,5.721
				c1.376,3.106,1.765,6.096,2.123,9.337C367.053,361.019,364.052,363.277,360.881,365.301z M371.346,357.296
				c-0.104-5.268-3.15-10.588-6.206-14.851c1.729-4.181,3.043-8.226,2.938-12.47c0.105-0.071,0.209-0.145,0.308-0.241
				c1.012-0.965,1.959-1.971,2.852-3.007c2.428,2.199,4.087,4.807,5.633,7.917c1.074,2.162,2.145,4.357,2.911,6.651
				c0.639,1.915,0.829,3.817,1.053,5.764C377.984,350.737,374.804,354.163,371.346,357.296z M389,334.1
				c-0.332,0.297-0.549,0.713-0.579,1.142c-1.799,3.452-3.862,6.758-6.149,9.902c-0.387-4.034-2.679-8.19-4.424-11.518
				c-1.42-2.708-3.179-6.006-5.819-7.851c2.11-2.6,3.872-5.393,5.289-8.327c3.359,0.54,6.372,1.98,9.379,3.68
				c1.635,0.924,3.305,1.918,4.578,3.323c0.487,0.537,0.844,1.114,1.15,1.712C391.426,328.874,390.288,331.526,389,334.1z
				 M388.105,320.411c-3.153-1.807-6.649-3.727-10.323-3.969c1.485-3.286,2.563-6.731,3.239-10.262
				c2.217-0.383,4.402-1.017,6.724-0.99c2.984,0.035,6.473,0.54,9.138,2.055c-0.514,4.033-1.24,8.003-2.219,11.801
				c-0.466,1.807-1.023,3.58-1.621,5.338C391.731,322.694,389.728,321.341,388.105,320.411z M465.687,273.051
				c2.225,1.077,4.521,3.83,4.613,6.535c-2.283-0.288-4.555-0.199-6.854,0.343c-0.78,0.184-1.694,0.402-2.568,0.717
				c0.317-2.993-0.491-6.299-2.217-8.554C461.063,271.881,463.555,272.019,465.687,273.051z M462.672,255.427
				c3.163-0.535,5.941,0.22,8.333,1.961c-3.803,1.701-7.484,3.816-10.718,6.449c0.069-2.576-1.233-4.789-3.175-6.289
				C458.915,256.701,460.681,255.763,462.672,255.427z M454.816,241.242c2.295-0.967,4.866-1.41,7.364-1.195
				c-3.311,2.378-6.148,5.467-8.182,9.005c-0.224-0.638-0.541-1.262-0.993-1.848c-0.944-1.225-2.052-2.098-3.261-2.689
				C451.356,243.314,452.916,242.043,454.816,241.242z M400.787,312.93c8.064,1.428,16.931-3.889,21.866-9.851
				c7.238-8.744,7.025-18.506,5.876-29.191c-1.09-10.139,2.5-25.533,15.275-26.391c1.564-0.105,3.188,0.122,4.521,0.975
				c2.81,1.798,1.267,5.082-0.965,6.706c-1.82,1.325-3.935,2.188-5.711,3.588c-2.363,1.862-4.244,4.072-3.646,7.172
				c0.215,1.116,1.662,1.056,2.208,0.289c2.546-3.574,6.362-5.007,9.58-7.437c3.506,0.8,8.063,2.694,5.568,6.765
				c-1.512,2.467-4.803,3.447-7.239,4.666c-3.737,1.87-6.589,4.288-8.069,8.264c-0.596,1.604,1.799,2.441,2.654,1.119
				c2.446-3.78,7.354-5.151,11.379-7.324c1.963,1.739,3.218,4.819,2.861,7.247c-0.545,3.71-3.499,4.163-6.155,5.372
				c-2.687,1.223-5.048,2.571-6.475,5.276c-4.294,8.145,1.983,17.49-1.912,25.883c-4.333,9.338-14.167,13.885-23.582,16.369
				c-4.896,1.292-9.954,2.331-15.02,2.585c-3.266,0.164-6.375-0.531-9.5-0.974c2.152-4.637,3.876-9.487,5.113-14.494
				C399.947,317.388,400.389,315.17,400.787,312.93z M397.044,305.932c-3.807-2.275-10.992-2.973-15.746-1.25
				c0.663-4.171,0.787-8.442,0.395-12.688c2.936-1.114,5.839-2.001,9.02-2.163c2.389-0.122,4.717,0.27,7.058,0.547
				C397.879,295.517,397.638,300.769,397.044,305.932z M397.435,283.473c0.148,1.784,0.239,3.601,0.301,5.43
				c-5.375-0.947-11.391-0.415-16.153,2.019c-0.417-3.697-1.215-7.366-2.387-10.924c2.702-1.049,5.233-2.345,8.126-3.063
				c1.88-0.467,3.778-0.966,5.709-1.169c1.074-0.113,2.121-0.026,3.168,0.052C396.783,278.311,397.218,280.856,397.435,283.473z
				 M390.745,261.083c2.112,4.233,3.86,8.603,5.068,13.16c-2.643-0.247-5.685,0.619-7.947,1.189
				c-2.931,0.738-6.529,1.579-9.015,3.577c-1.25-3.565-2.863-7.013-4.836-10.251c2.493-2.077,4.9-4.124,7.807-5.654
				c2.675-1.407,5.437-2.134,8.27-2.947C390.309,260.467,390.528,260.774,390.745,261.083z M389.222,258.925
				c-5.792,0.965-12.05,4.578-15.759,8.946c-0.096-0.151-0.187-0.306-0.284-0.456c-2.012-3.09-4.255-5.931-6.676-8.564
				c1.871-2.061,3.894-3.875,6.272-5.415c2.635-1.706,5.943-3.854,9.146-4.27C384.486,252.312,386.864,255.593,389.222,258.925z
				 M374.45,241.089c2.332,2.169,4.456,4.465,6.459,6.844c-2.992,0.486-6.112,2.645-8.446,4.134
				c-2.535,1.617-4.932,3.529-6.728,5.944c-2.675-2.813-5.568-5.37-8.636-7.69c1.759-2.84,3.803-5.523,6.308-7.745
				c2.309-2.048,4.861-3.218,7.433-4.658C372.066,238.949,373.278,239.998,374.45,241.089z M356.928,228.015
				c4.393,2.632,8.6,5.577,12.572,8.804c-2.487,1.047-4.852,2.86-6.765,4.53c-2.705,2.361-4.894,5.14-6.431,8.371
				c-2.975-2.188-6.108-4.16-9.364-5.933c1.483-2.821,2.741-5.734,4.458-8.449C352.929,232.914,354.678,230.024,356.928,228.015z
				 M340.886,219.985c3.233,1.332,6.435,2.801,9.599,4.438c1.708,0.884,3.389,1.821,5.055,2.788
				c-1.697,1.585-3.086,4.044-4.127,5.572c-2.151,3.157-4.337,6.724-5.527,10.426c-3.565-1.879-7.27-3.527-11.069-4.964
				c2.067-2.295,3.654-5.435,4.759-8.13C340.912,226.853,341.097,223.451,340.886,219.985z M339.478,219.417
				c0.099,4.086,0.004,7.823-1.779,11.621c-1.1,2.341-2.844,4.46-3.914,6.825c-2.772-1.016-5.586-1.935-8.435-2.739
				c2.465-4.061,3.255-8.797,2.582-13.508c-0.246-1.725-0.69-4.435-1.656-6.676C330.726,216.202,335.129,217.686,339.478,219.417z
				 M324.636,214.484c1.333,2.77,1.941,6.148,2.099,8.927c0.229,4.044-0.685,7.907-2.883,11.299
				c-4.218-1.134-8.493-2.054-12.769-2.778c1.539-2.661,2.957-8.183,3.15-9.121c0.577-2.799,0.947-7.563-0.426-10.862
				C317.443,212.663,321.052,213.513,324.636,214.484z M311.695,211.547c0.428,0.887,0.91,1.765,1.158,2.728
				c0.609,2.365,0.6,4.875,0.217,7.278c-0.285,1.789-0.788,3.534-1.37,5.247c-0.175,0.516-1.025,3.315-1.682,4.958
				c-1.379-0.224-2.758-0.431-4.134-0.617c-2.298-0.309-4.599-0.568-6.902-0.804c1.938-3.402,1.953-9.072,1.474-12.655
				c-0.407-3.041-1.401-5.712-2.912-8.18C302.292,210.017,307.012,210.688,311.695,211.547z M296.454,209.386
				c1.62,2.874,2.572,6.211,2.794,9.427c0.15,2.174,0.019,4.373-0.373,6.516c-0.297,1.626-1.02,3.245-1.252,4.876
				c-4.655-0.451-9.318-0.782-13.987-0.998c-0.027-0.036-0.061-0.065-0.098-0.091c0.136-0.971,1.443-5.544,1.51-6.24
				c0.233-2.391,0.078-4.825-0.447-7.169c-0.572-2.556-1.59-5.43-3.415-7.445C286.299,208.496,291.391,208.861,296.454,209.386z
				 M279.611,208.195c2.513,2.993,3.811,6.782,4.071,10.733c0.151,2.277-0.056,4.562-0.636,6.77
				c-0.284,1.082-0.957,2.288-0.927,3.436c-4.925-0.204-9.857-0.299-14.792-0.317c1.079-3.665,0.972-7.959,0.392-11.475
				c-0.557-3.375-1.65-6.911-3.91-9.471C269.086,207.889,274.357,207.981,279.611,208.195z M262.471,207.867
				c2.575,2.755,3.583,7.08,4.005,10.64c0.431,3.636-0.215,6.892-0.871,10.302c-5.01-0.002-10.024,0.063-15.037,0.172
				c1.284-3.791,1.27-8.658,0.961-12.17c-0.251-2.842-0.699-6.271-2.276-8.844C253.656,207.905,258.065,207.862,262.471,207.867z
				 M247.865,207.987c1.632,3.343,2.331,6.83,2.396,10.695c0.041,2.434-0.163,4.874-0.638,7.263
				c-0.207,1.039-0.532,2.054-0.818,3.074c-4.372,0.102-8.742,0.227-13.111,0.353c0.188-3.645,0.17-7.312,0.099-10.954
				c-0.066-3.341,0.06-6.909-0.611-10.23C239.399,208.124,243.629,208.049,247.865,207.987z M225.37,208.3
				c2.925-0.019,5.86-0.055,8.8-0.098c0.792,6.975,0.266,14.191,0.057,21.21c-4.236,0.121-8.47,0.24-12.699,0.333
				c0.017-3.58-0.429-7.078,0.008-10.712c0.435-3.615,1.205-7.178,2.023-10.724C224.161,208.306,224.771,208.304,225.37,208.3z
				 M222.404,208.316c-0.91,3.507-1.766,7.032-2.255,10.625c-0.458,3.365-0.963,7.426-0.057,10.836
				c-1.741,0.036-3.48,0.068-5.219,0.093c-3.988,0.056-7.979,0.068-11.971,0.045c0.063-1.337-0.018-2.685,0.062-4.026
				c0.145-2.43,0.522-4.837,1.109-7.198c0.91-3.66,2.363-7.09,4.16-10.373C212.997,208.369,217.724,208.346,222.404,208.316z
				 M191.553,207.733c5.153,0.337,10.326,0.495,15.478,0.566c-1.873,3.125-3.277,6.515-4.212,10.045
				c-0.913,3.445-1.883,7.851-1.356,11.564c-5.585-0.049-11.169-0.189-16.743-0.488c-0.033-1.119-0.134-2.249-0.077-3.354
				c0.131-2.543,0.583-5.064,1.312-7.503C187.133,214.619,189.035,210.957,191.553,207.733z M190.265,207.64
				c-2.393,3.046-4.266,6.455-5.47,10.174c-1.017,3.141-2.191,7.745-1.755,11.501c-5.187-0.307-10.367-0.735-15.531-1.354
				c-0.142-0.017-0.288-0.036-0.43-0.054c0.191-4.71,1.05-8.809,3.39-13.05c1.7-3.081,3.809-5.95,6.024-8.699
				C181.04,206.84,185.642,207.311,190.265,207.64z M161.125,202.902c0.327,0.095,0.651,0.201,0.978,0.29
				c4.285,1.165,8.661,2.059,13.087,2.763c-5.21,5.92-10.263,13.952-9.477,21.782c-5.608-0.69-11.395-1.498-17.085-2.754
				c1.069-4.258,2.192-8.283,4.431-12.208C155.24,208.956,158.047,205.9,161.125,202.902z M159.644,202.462
				c-6.33,5.313-11.399,14.081-12.465,22.191c-5.502-1.295-10.879-3.029-15.854-5.503c1.396-1.572,2.559-3.435,3.91-5.02
				c1.71-2.005,3.512-3.931,5.402-5.767c3.454-3.356,7.422-6.013,11.065-9.098C154.264,200.536,156.938,201.599,159.644,202.462z
				 M142.572,193.388c2.391,1.993,5.051,3.718,7.854,5.206c-3.943,2.294-7.581,5.724-10.764,8.795
				c-1.896,1.829-3.707,3.748-5.423,5.747c-1.4,1.632-3.116,3.428-4.227,5.362c-2.631-1.398-5.139-3.017-7.483-4.902
				c-1.897-1.526-3.659-3.191-5.312-4.956c1.801-0.503,3.579-1.311,5.228-2.003c2.794-1.174,5.506-2.532,8.111-4.079
				c2.408-1.43,4.718-3.021,6.92-4.75C139.164,196.482,141.078,195.051,142.572,193.388z M141.523,192.478
				c-1.474,1.232-2.842,2.641-4.335,3.825c-2.327,1.845-4.792,3.518-7.351,5.025c-2.555,1.506-5.213,2.843-7.953,3.981
				c-1.876,0.779-3.93,1.282-5.831,2.041c-3.838-4.372-6.986-9.34-9.414-14.653c4.913,0.559,9.788,0.507,14.741-0.236
				c3.03-0.454,6.034-1.124,8.964-2.021c2.194-0.672,4.797-1.331,6.801-2.624C138.445,189.494,139.921,191.043,141.523,192.478z
				 M136.353,186.746c-2.154,0.579-4.285,1.689-6.382,2.338c-2.781,0.86-5.622,1.536-8.497,1.997
				c-4.99,0.8-10.144,1.044-15.215,0.783c-2.315-5.261-3.95-10.829-4.884-16.452c-0.034-0.201-0.053-0.402-0.085-0.603
				c4.984,1.87,10.373,2.81,15.643,3.235c4.365,0.352,11.01,0.848,14.609-2.382C132.358,179.794,134.042,183.487,136.353,186.746z
				 M109.42,139.143c0.64,2.873,1.403,5.67,2.247,8.369c-1.466-0.075-2.95-0.002-4.414-0.134c-1.889-0.171-3.699-0.594-5.487-1.154
				c0.514-3.128,1.145-6.244,1.864-9.349C105.324,138.053,107.375,138.806,109.42,139.143z M103.879,135.815
				c0.831-3.497,1.761-6.982,2.754-10.456c0.245,0.276,0.5,0.539,0.775,0.77c0.318,3.864,0.904,7.725,1.683,11.493
				C107.279,137.166,105.494,136.742,103.879,135.815z M112.085,148.817c0.498,1.52,1.015,3.017,1.567,4.451
				c1.091,2.832,2.357,5.48,3.806,7.915c-5.796,0.432-11.406,0.587-17.058-1.16c0.128-4.294,0.55-8.563,1.211-12.808
				C104.697,148.715,108.726,149.193,112.085,148.817z M118.326,162.58c3.347,5.162,7.611,9.241,12.99,11.796
				c0.002,0.018,0.007,0.035,0.009,0.053c-2.6,1.112-4.812,2.126-7.719,2.358c-2.532,0.202-5.109,0.036-7.634-0.193
				c-5.091-0.462-9.945-1.679-14.849-2.973c-0.595-4.222-0.836-8.417-0.759-12.584C105.897,163.448,112.337,163.265,118.326,162.58z
				 M237.768,187.318c-1.514-2.655-3.536-4.909-5.843-7.017c0.787-0.57,1.526-1.243,2.19-2.058c1.843-2.266,2.619-5.199,2.316-7.982
				C240.903,174.705,240.221,181.587,237.768,187.318z M242.702,160.485c1.905,2.011,3.056,4.478,3.61,7.114
				c-2.742-1.478-5.949-2.506-9.001-2.6c1.295-2.208,1.524-5.128,0.637-7.617C239.669,158.163,241.321,159.027,242.702,160.485z
				 M242.326,152.074c-2.634-0.598-5.389-0.718-8.041-0.3c0.096-2.056-0.28-3.806-1.024-5.281
				C236.846,147.709,240.24,149,242.326,152.074z M237.204,131.858c1.929,0.888,3.585,2.188,4.993,3.731
				c-2.671,0.357-5.247,1.213-7.78,2.29c-0.757,0.322-1.494,0.655-2.191,1.026c0.27-1.147,0.333-2.323,0.13-3.392
				c-0.321-1.694-1.092-3.23-2.185-4.471C232.553,130.838,234.82,130.76,237.204,131.858z M239.158,119.211
				c-2.976,1.185-6.138,2.768-8.751,4.732c0.046-0.511,0.053-1.043-0.021-1.62c-0.25-1.942-1.17-3.355-2.46-4.367
				C231.627,117.386,235.932,117.583,239.158,119.211z M170.599,133.349c6.09,2.622,13.497,1.421,19.659-0.26
				c8.165-2.227,14.419-6.914,21.656-11.021c3.427-1.944,10.901-5.486,14.064-1.193c3.573,4.85-8.131,8.568-11.358,10.198
				c-1.018,0.514-0.281,1.98,0.743,1.762c2.737-0.581,6.905-1.271,10.168-2.874c1.614,1.722,3.439,3.546,3.611,5.986
				c0.157,2.212-1.294,3.508-2.312,5.095c-3.714-1.526-8.196-2.005-11.965-1.926c-13.003,0.274-25.258,5.556-38.134,6.688
				c-6.094,0.536-13.499,0.371-17.847-4.623c-1.666-1.914-2.631-4.202-3.177-6.641c2.456-3.694,4.929-7.276,7.868-10.546
				C163.803,128.053,166.652,131.649,170.599,133.349z M155.199,108.482c0.801-1.212,1.644-2.369,2.506-3.499
				c0.055,2.195,0.274,4.39,0.563,6.557c0.424,3.178,0.777,6.84,2.167,9.748c0.038,0.08,0.102,0.131,0.174,0.161
				c-2.164,2.343-4.062,4.876-5.529,7.599c-0.063-2.19,0.036-4.373,0.131-6.406C155.426,118.027,155.677,113.155,155.199,108.482z
				 M161.151,120.873c-0.337-3.167-1.434-6.292-1.876-9.469c-0.353-2.543-0.494-5.09-0.633-7.643
				c1.716-2.139,3.544-4.122,5.467-5.968c0.545,5.855,1.47,11.745,3.726,17.172C165.47,116.766,163.198,118.731,161.151,120.873z
				 M168.974,114.11c-2.188-5.484-3.151-11.252-4.031-17.091c2.462-2.279,5.08-4.326,7.822-6.176
				c0.379,3.063,0.851,6.121,1.674,9.094c0.763,2.757,1.805,5.975,3.392,8.59C174.908,110.121,171.886,111.986,168.974,114.11z
				 M179.255,107.773c-1.329-2.825-2.846-5.528-3.714-8.619c-0.819-2.914-1.335-5.913-1.906-8.893
				c3.282-2.142,6.742-3.995,10.335-5.598c0.613,2.955,1.179,5.905,2.013,8.829c0.899,3.157,1.744,6.747,3.312,9.694
				C185.875,104.528,182.523,106.059,179.255,107.773z M190.473,102.74c-0.877-3.533-2.513-6.999-3.523-10.5
				c-0.715-2.479-1.052-5.453-1.912-8.027c4.48-1.924,9.162-3.458,13.965-4.676c0.16,1.284,0.566,2.588,0.774,3.826
				c0.331,1.974,0.588,3.96,0.875,5.94c0.466,3.218,0.895,6.626,2.007,9.728C198.523,100,194.452,101.236,190.473,102.74z
				 M203.967,98.745c-0.93-3.539-1.754-7.01-2.307-10.67c-0.389-2.581-0.453-6.181-1.572-8.808
				c3.724-0.903,7.522-1.604,11.351-2.154c0.376,3.336,0.63,6.682,1.054,10.015c0.404,3.175,0.573,6.931,1.798,9.946
				C210.816,97.439,207.37,97.998,203.967,98.745z M222.232,96.585c-2.285,0.034-4.56,0.16-6.824,0.37
				c-0.049-1.555-0.475-3.07-0.756-4.605c-0.436-2.388-0.807-4.789-1.107-7.198c-0.325-2.608-0.229-5.617-1.044-8.201
				c4.187-0.568,8.41-0.925,12.626-1.146c-0.17,3.401-0.195,6.801-0.05,10.209c0.145,3.407,0.095,7.246,0.939,10.615
				C224.758,96.588,223.498,96.566,222.232,96.585z M238.126,97.845c-3.551-0.573-7.13-0.981-10.746-1.158
				c0.026-3.68-0.779-7.496-0.968-11.171c-0.167-3.251-0.218-6.508-0.201-9.764c2.522-0.116,5.04-0.196,7.544-0.209
				c1.749-0.009,3.495,0.013,5.238,0.053c-0.635,3.358-0.797,6.842-0.945,10.235C237.873,89.812,237.792,93.867,238.126,97.845z
				 M250.765,100.513c-3.725-0.936-7.469-1.772-11.242-2.427c-0.069-3.921-0.257-7.822-0.129-11.748
				c0.116-3.576,0.544-7.139,0.71-10.709c4.305,0.123,8.589,0.406,12.859,0.796c-0.872,3.943-1.452,8-1.918,11.992
				C250.595,92.285,250.17,96.563,250.765,100.513z M264.366,104.265c-3.988-1.154-7.981-2.297-11.992-3.336
				c-0.203-4.206-0.419-8.248,0.057-12.512c0.443-3.977,1.28-7.908,1.757-11.879c4.489,0.436,8.959,1.009,13.414,1.692
				c-0.404,1.407-0.62,2.888-0.915,4.301c-0.568,2.722-1.152,5.443-1.574,8.192C264.458,94.981,263.767,99.876,264.366,104.265z
				 M278.159,108.107c-2.76-0.7-5.506-1.452-8.238-2.237c-1.369-0.393-2.737-0.79-4.107-1.187c0.1-2.376-0.113-4.787,0-7.168
				c0.127-2.644,0.416-5.272,0.844-7.884c0.37-2.261,0.831-4.508,1.278-6.755c0.29-1.458,0.685-2.955,0.863-4.455
				c4.313,0.681,8.609,1.47,12.893,2.337c-1.379,4.774-2.236,9.793-2.897,14.695C278.264,99.393,277.555,104.021,278.159,108.107z
				 M293.068,103.776c-0.244,2.351-0.617,4.859-0.543,7.264c-4.314-0.632-8.589-1.508-12.826-2.546
				c0.066-2.263-0.154-4.561-0.049-6.827c0.121-2.628,0.391-5.246,0.765-7.849c0.619-4.31,1.662-8.55,2.324-12.849
				c3.812,0.783,7.612,1.636,11.403,2.534c-0.114,0.803-0.221,1.607-0.321,2.415c-0.111,0.896-0.355,1.838-0.41,2.76
				c-3.271-0.146-6.539-0.137-9.788,0.181c-1.696,0.166-2.876,2.684-0.972,3.588c3.753,1.782,7.454,3.688,11.126,5.658
				C293.402,99.971,293.26,101.924,293.068,103.776z M307.668,89.885c-4.26-0.405-8.557-0.882-12.855-1.13
				c0.13-0.726,0.145-1.49,0.225-2.216c0.101-0.923,0.177-1.844,0.232-2.766c4.278,1.024,8.544,2.112,12.798,3.239
				C307.91,87.958,307.74,88.929,307.668,89.885z M308.51,94.334c0.14,0.01,0.285,0.025,0.426,0.036
				c-1.893,1.684-3.185,4.331-3.271,6.796c-1.475-0.789-2.94-1.595-4.409-2.395c0.071-1.002,0.29-1.919,0.789-3.012
				c0.311-0.682,0.682-1.282,1.112-1.84C304.941,94.065,306.726,94.208,308.51,94.334z M301.832,93.812
				c-0.403,0.558-0.73,1.191-1.004,1.773c-0.334,0.708-0.716,1.589-0.894,2.47c-3.007-1.649-6-3.319-8.951-5.055
				C294.602,93.214,298.217,93.515,301.832,93.812z M305.581,111.793c-3.319,0.128-6.68,0.058-10.198-0.358
				c-0.483-0.057-0.963-0.135-1.445-0.199c0.231-2.128,0.196-4.31,0.36-6.435c0.155-2.006,0.491-4.04,0.659-6.065
				c3.702,2.004,7.373,4.073,11.032,6.161C305.888,107.197,305.722,109.494,305.581,111.793z M310.932,94.54
				c2.839,0.267,5.783,0.624,8.732,0.87c-1.649,1.03-3.076,2.382-4.209,4.068c-0.813,1.21-2.148,3.621-2.357,5.641
				c-2.08-1.1-4.161-2.204-6.24-3.312C306.805,98.784,308.765,96.508,310.932,94.54z M315.215,75.55
				c2.349,0.327,4.697,0.657,7.045,0.991c-1.034,0.705-1.857,1.694-2.403,2.865c-0.201,0.433-0.4,0.985-0.55,1.571
				c-0.975-0.577-1.97-1.132-3.016-1.629c-0.747-0.355-1.5-0.692-2.253-1.029C314.242,77.345,314.667,76.4,315.215,75.55z
				 M312.797,77.765c-2.61-1.148-5.227-2.263-7.733-3.579c3.004,0.384,6.005,0.788,9.005,1.203
				C313.583,76.121,313.111,76.953,312.797,77.765z M320.897,80.157c0.563-1.439,1.589-2.512,2.786-3.413
				c2.229,0.318,4.458,0.635,6.687,0.951c-1.811,1.04-3.263,2.566-4.088,4.617c-0.277,0.688-0.593,1.793-0.734,2.934
				c-1.605-1.213-3.238-2.385-4.942-3.472C320.629,81.23,320.69,80.684,320.897,80.157z M332.094,77.939
				c1.289,0.182,2.577,0.367,3.866,0.546c-2.072,1.517-3.71,3.532-4.487,6.171c-0.445,1.512-0.576,3.045-0.665,4.58
				c-1.326-0.973-2.619-1.971-3.913-2.962C326.737,82.79,328.89,79.479,332.094,77.939z M329.999,95.443
				c-0.086,0.276-0.159,0.553-0.269,0.826c-1.687,4.2-5.111,6.331-8.042,9.523c-0.783,0.853-1.488,1.789-2.055,2.796
				c-1.713-0.916-3.435-1.826-5.156-2.736c-0.034-2.195,1.355-4.765,2.497-6.344c1.184-1.638,2.728-2.983,4.48-3.965
				C324.359,95.73,327.243,95.769,329.999,95.443z M309.093,90.01c0.106-0.882,0.134-1.793,0.16-2.687
				c4.392,1.171,8.772,2.382,13.141,3.617C317.919,90.464,313.31,90.37,309.093,90.01z M307.057,111.719
				c0.08-1.274,0.136-2.55,0.171-3.825c0.019-0.714,0.105-1.497,0.066-2.25c3.026,1.731,6.046,3.47,9.067,5.191
				C313.223,111.22,310.151,111.546,307.057,111.719z M304.228,122.775c1.606-0.877,3.228-1.714,4.86-2.53
				c-0.064,1.006,0.088,2.06,0.466,2.931C307.779,123.043,306.003,122.92,304.228,122.775z M311.17,123.297
				c-0.298-0.647-0.624-1.284-0.765-2.006c-0.111-0.574-0.102-1.122-0.059-1.667c1.275-0.628,2.553-1.249,3.838-1.867
				c-0.309,1.882-0.37,4.136,0.372,5.794C313.427,123.471,312.299,123.379,311.17,123.297z M316.096,123.662
				c-1.159-1.66-1.072-4.443-0.723-6.478c1.217-0.584,2.437-1.168,3.659-1.762c0.593,1.353,1.524,2.568,2.392,4.124
				c0.905,1.624,1.042,3.114,0.808,4.553C320.186,123.951,318.141,123.807,316.096,123.662z M299.532,142.786
				c1.781-1.763,3.816-3.229,5.942-4.596c0.231,1.254,0.734,2.481,1.473,3.509C304.476,142.064,302.007,142.44,299.532,142.786z
				 M312.748,140.849c-1.43,0.216-2.862,0.416-4.292,0.629c-0.727-1.327-1.608-2.507-1.849-4.004
				c0.796-0.494,1.601-0.98,2.407-1.465c1.338-0.806,2.678-1.61,4.017-2.416C312.532,135.924,312.155,138.893,312.748,140.849z
				 M314.223,140.625c-0.972-1.801-0.483-5.38,0.044-7.774c2.055-1.236,4.11-2.473,6.166-3.708
				c-0.495,1.177-0.944,2.382-1.132,3.664c-0.384,2.633,1.013,4.451,2.543,6.432c0.052,0.068,0.109,0.133,0.162,0.201
				C319.413,139.837,316.818,140.231,314.223,140.625z M314.311,156.989c0.572-1.046,1.184-2.062,1.815-3.064
				c0.099,0.337,0.219,0.651,0.355,0.92c0.162,0.318,0.424,0.698,0.743,1.02C316.255,156.244,315.287,156.626,314.311,156.989z
				 M318.571,155.344c-0.116-0.063-0.233-0.127-0.346-0.208c-0.582-0.413-0.888-0.995-1.12-1.657
				c-0.087-0.248-0.145-0.506-0.196-0.768c1.1-1.652,2.278-3.248,3.549-4.779c0.167,1.142,0.478,2.263,0.951,3.342
				c0.33,0.752,0.752,1.632,1.305,2.364C321.338,154.221,319.957,154.79,318.571,155.344z M324.023,153.068
				c-1.576-1.576-2.317-4.063-2.494-6.377c1.108-1.258,2.27-2.48,3.502-3.655c0.066,0.131,0.136,0.263,0.241,0.391
				c1.839,2.25,3.829,4.396,5.961,6.386C328.847,150.942,326.443,152.023,324.023,153.068z M331.487,165.594
				c0.146-1.913,0.698-3.916,1.376-5.914c0.794,1.446,1.904,2.74,3.283,3.312C334.591,163.856,333.036,164.721,331.487,165.594z
				 M337.843,162.045c-2.088-0.118-3.557-1.765-4.533-3.637c0.648-1.787,1.352-3.554,1.926-5.232
				c2.785,2.131,5.776,3.984,9.012,5.397C342.104,159.711,339.97,160.871,337.843,162.045z M350.471,170.271
				c-0.49-1.863-0.787-3.745-0.851-5.645c1.406,0.583,3.13,0.982,4.526,0.655C352.855,166.951,351.633,168.684,350.471,170.271z
				 M355.269,163.876c-1.007-0.139-2.039,0.197-3.062,0.187c-0.903-0.009-1.758-0.138-2.598-0.369
				c0.009-1.059,0.087-2.123,0.261-3.194c1.383,0.34,2.789,0.59,4.22,0.719c1.163,0.105,2.328,0.116,3.493,0.09
				C356.786,162.098,356.017,162.969,355.269,163.876z M366.724,168.953c-1.145,0.599-0.822,0.437-1.033-0.94
				c-0.14-0.917-0.273-1.835-0.422-2.75c1.153,0.885,2.795,1.393,4.272,1.39C368.622,167.55,367.681,168.453,366.724,168.953z
				 M371.488,164.871c-0.222,0.171-0.447,0.365-0.672,0.568c-0.956-0.238-2-0.178-2.964-0.384c-1.007-0.215-1.92-0.647-2.821-1.117
				c-0.17-0.942-0.341-1.883-0.524-2.823c1.614,0.04,3.22,0.205,4.813,0.646c1.464,0.406,2.855,0.968,4.229,1.566
				C372.846,163.822,372.164,164.35,371.488,164.871z M377.737,174.397c0.446-1.45,0.777-2.914,0.992-4.403
				c1.054,0.723,2.1,1.44,3.374,1.823c0.283,0.085,0.577,0.138,0.866,0.203C381.24,172.842,379.501,173.642,377.737,174.397z
				 M385.039,171.022c-0.877-0.077-1.747-0.191-2.596-0.437c-1.257-0.365-2.43-0.982-3.607-1.579
				c0.119-1.102,0.195-2.215,0.181-3.352c1.105,0.406,2.235,0.755,3.421,0.979c2.88,0.543,5.662,0.715,8.214,1.521
				C388.792,169.14,386.922,170.095,385.039,171.022z M389.424,184.302c1.313-2.293,2.651-4.691,3.618-7.145
				c0.885,0.469,1.647,1.179,2.214,1.996c0.446,0.642,0.745,1.363,1.1,2.051C394.083,182.316,391.793,183.377,389.424,184.302z
				 M397.551,180.612c-0.512-1.992-2.227-3.739-4.156-4.404c0.707-2.02,1.133-4.072,1.05-6.13c0.501,0.385,0.988,0.825,1.458,1.333
				c2.087,2.256,3.628,4.955,6.12,6.827c0.035,0.026,0.07,0.048,0.105,0.073C400.596,179.084,399.075,179.854,397.551,180.612z
				 M401.822,195.099c1.108-1.525,2.196-3.183,3.128-4.904c0.626,0.336,1.23,0.718,1.815,1.11c0.455,0.305,0.918,0.632,1.302,1.025
				c0.287,0.293,0.467,0.618,0.644,0.953C406.454,193.999,404.145,194.592,401.822,195.099z M410.816,192.572
				c-0.305,0.11-0.616,0.207-0.924,0.312c-0.133-0.819-0.93-1.57-1.576-2.043c-0.924-0.676-1.895-1.123-2.921-1.49
				c0.572-1.137,1.067-2.296,1.438-3.461c3.496-0.024,8.167,0.345,9.908,3.41C414.912,190.569,413.03,191.774,410.816,192.572z
				 M417.659,188.656c-0.648-3.793-6.96-3.849-10.591-3.563c0.41-1.526,0.598-3.053,0.462-4.54c2.058,0.445,4.191,0.676,6.331,1.246
				c3.131,0.835,5.596,2.303,7.865,4.163C420.304,186.779,418.984,187.72,417.659,188.656z M427.454,196.704
				c-2.105,1.238-4.343,2.088-6.676,2.606c1.195-1.846,2.311-3.869,3.098-5.949c0.842,0.27,1.658,0.549,2.378,1.208
				c0.49,0.449,0.898,0.98,1.184,1.582c0.071,0.149,0.124,0.301,0.174,0.451C427.558,196.635,427.509,196.672,427.454,196.704z
				 M428.804,195.797c-0.334-0.763-0.92-1.495-1.366-1.942c-0.509-0.51-1.111-0.927-1.771-1.216
				c-0.468-0.205-0.94-0.295-1.416-0.365c0.35-1.108,0.607-2.226,0.703-3.339c0.207,0.207,0.414,0.409,0.622,0.621
				c1.759,1.791,3.589,3.25,5.852,4.036C430.583,194.357,429.729,195.112,428.804,195.797z M455.231,165.261
				c-0.975,3.938-3.102,7.259-5.314,10.734c-0.989-1.048-2.178-2.09-3.512-3.117C449.615,170.615,452.633,168.164,455.231,165.261z
				 M445.734,158.7c-0.023,0.087-0.038,0.174-0.046,0.261c-0.568-0.527-1.485-0.545-2.136,0.026
				c-2.626,2.303-5.371,4.207-8.364,5.848c0.26-3.616-0.197-7.073-1.499-10.623c-0.371-1.013-1.677-1.539-2.509-0.662
				c-0.968,1.02-4.496,5.733-6.655,7.257c-0.076-0.034-0.146-0.066-0.222-0.099c0.893-4.509,0.362-8.872-0.992-13.234
				c-0.291-0.939-1.495-1.595-2.396-0.975c-2.834,1.95-5.59,4.019-8.345,6.083c0.076-3.631-0.438-7.68-2.349-10.374
				c-0.299-0.421-0.792-0.846-1.36-0.78c-1.858,0.217-2.493,1.48-3.687,2.931c-1.653,2.008-3.442,4.007-4.8,6.24
				c-3.184-1.167-6.378-2.333-9.569-3.614c-5.402-2.17-10.334-5.145-13.723-10c-1.261-1.806-2.33-3.733-3.395-5.661
				c4.398,1.915,9.019,3.224,13.868,3.922c7.945,1.144,15.678-0.01,23.617-0.423c1.279-0.066,2.567-0.1,3.854-0.088
				c-0.005,3.82-0.666,7.591-1.436,11.348c-0.328,1.6,1.558,2.861,2.807,1.634c2.777-2.726,5.636-6.54,8.846-9.005
				c0.284,1.665,0.144,5.054,0.11,5.974c-0.092,2.507-0.409,5.001-0.714,7.489c-0.198,1.615,1.925,2.052,2.915,1.208
				c3.483-2.97,6.986-6.44,9.22-10.519c0.449,4.286-0.989,8.697,0.782,12.673c0.224,0.503,0.912,0.853,1.444,0.828
				c2.58-0.12,4.769-3.391,6.237-5.18c1.663-2.027,3.062-4.197,4.221-6.507C449.355,148.873,446.317,156.511,445.734,158.7z
				 M443.527,162.933c0.08,2.386-0.631,4.65-1.556,6.885c-1.5-0.942-3.077-1.858-4.681-2.74
				C439.478,165.858,441.542,164.469,443.527,162.933z M432.296,164.471c-1.773-0.883-3.513-1.711-5.155-2.471
				c1.609-1.302,3.067-2.937,4.463-4.486C432.226,159.817,432.462,162.089,432.296,164.471z M421.277,159.356
				c-1.75-0.775-3.128-1.386-3.939-1.79c-1.161-0.579-2.328-1.125-3.5-1.651c2.347-1.733,4.695-3.467,7.002-5.25
				C421.524,153.552,421.565,156.334,421.277,159.356z M408.75,146.951c0.216,2.599,0.545,4.593,0.382,6.975
				c-2.041-0.82-4.091-1.603-6.15-2.365c1.802-1.739,3.365-3.748,4.958-5.674c0.119-0.139,0.22-0.257,0.321-0.375
				C408.116,145.92,408.273,146.398,408.75,146.951z M417.196,134.807c2.146,0.13,4.274,0.443,6.343,1.057
				c-2.078,1.555-4.028,3.607-5.898,5.639C417.834,139.238,417.769,137.007,417.196,134.807z M428.566,140.207
				c-0.056-0.59-0.097-1.219-0.174-1.839c1.746,1.142,3.472,2.296,5.478,2.777c-1.711,2.393-3.395,4.658-5.373,6.741
				C428.713,145.331,428.808,142.77,428.566,140.207z M438.597,140.689c1.695-0.516,3.38-1.126,5.195-0.873
				c1.287,0.179,2.592,0.618,3.88,1.207c-1.182,2.342-2.432,4.632-3.998,6.75c-0.854,1.155-2.041,2.167-2.821,3.354
				c-1.188,1.809-0.867,1.431-0.522-0.393C440.955,147.43,440.24,143.709,438.597,140.689z M450.747,155.258
				c1.148-3.552,2.402-7.843,2.02-11.231c1.135,0.784,2.212,1.579,3.198,2.294c0.943,0.684,1.961,1.575,3.038,2.518
				C456.265,151.019,453.648,153.335,450.747,155.258z M382.91,79.423c1.957,1.62,4.386,2.272,6.868,2.541
				c3.722,0.403,7.479-0.134,11.148,0.796c4.214,1.068,7.965,3.618,10.922,6.751c4.789,5.072,6.754,11.734,10.475,17.363
				c1.131,2.375,2.56,4.505,4.479,6.059c1.567,1.27,3.095,1.842,4.744,2.146c0.717,1.155,1.108,2.473,1.123,3.878
				c0.017,1.598-0.651,3.073-0.834,4.65c-0.073,0.631,0.785,1.085,1.285,0.738c2.816-1.954,2.641-5.84,1.284-8.939
				c0.392,0.026,0.792,0.049,1.205,0.074c2.313,0.139,3.95,0.759,5.387,1.655c1.17,3.169-1.048,7.531-1.179,10.688
				c-0.026,0.642,0.815,0.955,1.25,0.518c2.235-2.249,3.317-5.734,2.937-8.889c0.77,0.654,1.584,1.346,2.523,2.043
				c1.29,0.958,2.752,1.503,4.241,1.962c0.79,2.931-1.603,6.137-1.822,9.117c-0.037,0.504,0.653,0.945,1.078,0.618
				c2.643-2.035,3.853-5.771,3.176-9.01c1.503,0.466,2.956,1.022,4.205,2.012c2.443,1.935,3.69,4.83,6.545,6.372
				c3.598,1.944,12.071,1.598,11.467,7.387c-0.201,1.927-1.97,4.408-2.73,6.237c-1.505,3.623-2.34,5.426-7.197,2.137
				c-6.575-4.453-11.915-10.84-19.949-12.955c-1.537-0.405-3.104-0.608-4.698-0.437c-2.262,0.243-4.028,1.745-6.405,0.984
				c-1.889-0.604-3.745-2.644-5.607-3.521c-1.496-0.703-3.061-1.231-4.662-1.631c-8.752-2.184-17.542,0.012-26.36,0.278
				c-10.271,0.31-20.022-2.489-29.06-7.253c-2.226-1.173-4.291,1.565-2.645,3.429c4.786,5.418,7.193,12.522,12.839,17.219
				c5.086,4.232,11.437,6.414,17.626,8.476c8.119,2.705,15.56,6.134,23.017,10.323c7.062,3.967,14.655,7.551,21.273,12.239
				c1.747,1.237,3.709,2.627,5.093,4.287c1.55,1.859,1.649,2.213,0.214,4.023c-2.806,3.538-8.837,7.193-13.522,5.594
				c-3.485-1.189-6.004-5.206-8.887-7.418c-2.828-2.169-6.02-3.86-9.452-4.857c-3.993-1.161-7.586-1.096-10.624-4.412
				c-2.157-2.354-3.814-5.175-6.364-7.155c-2.484-1.93-5.313-2.784-8.39-3.277c-4.522-0.724-8.478-1.444-12.742-3.213
				c-3.461-1.437-6.806-2.625-10.579-2.765c-6.5-0.24-12.793,0.812-19.003-1.684c-5.202-2.09-9.291-6.607-13.383-10.275
				c-2.504-2.245-7.287-6.185-8.458-9.44c-1.198-3.326,2.115-7.246,2.489-10.678c0.341-3.129-0.542-4.968-2.136-7.508
				c-4.18-6.66,0.274-8.444,4.157-12.641c2.157-2.331,3.75-5.073,4.785-8.075c1.314-3.817,0.592-8.452,3.17-11.682
				c3.233-4.05,8.995-4.395,13.716-4.992c3.726-0.471,7.226-1.096,10.693-2.6c3.816-1.656,7.559-4.327,11.876-4.356
				C378.843,72.316,379.555,76.645,382.91,79.423z M351.466,55.738c0.112,0.891,0.283,1.777,0.499,2.652
				c-4.551,1.909-8.395,6.116-9.113,10.968c-0.891-0.696-1.805-1.363-2.766-1.963c-0.724-3.286-0.38-6.245,1.678-9.444
				c2.089-3.248,5.06-5.783,7.569-8.685c0.963-1.113,1.809-2.26,2.539-3.467C351.245,49.07,351.046,52.417,351.466,55.738z
				 M347.275,63.157c1.439-1.514,3.189-2.628,4.992-3.655c0.837,2.792,2.213,5.406,4.033,7.606c-1.61,0.142-3.281,1.291-4.471,2.168
				c-1.688,1.245-3.175,2.767-4.252,4.556c-1.237-1.411-2.571-2.704-3.993-3.882C344.252,67.428,345.449,65.078,347.275,63.157z
				 M371.751,57.23c0.007,0.047,0.017,0.097,0.024,0.144c-2.57-0.172-5.151,0.841-7.291,2.3c-1.664,1.135-3.433,2.552-4.467,4.332
				c-1.378-1.885-2.363-3.98-2.966-6.22c0.623-0.901,1.234-1.817,1.964-2.636c1.413-1.585,3.035-2.965,4.817-4.118
				c2.888-1.868,6.081-3.052,9.436-3.53C372.041,50.564,371.257,53.725,371.751,57.23z M357.29,68.224
				c1.248,1.287,2.664,2.395,4.256,3.234c-0.96,0.397-1.924,0.779-2.907,1.109c-3.26,1.096-6.636,1.395-10.009,1.799
				c1.146-1.446,2.378-2.802,3.893-3.903C354.017,69.377,355.709,68.99,357.29,68.224z M360.657,64.828
				c1.15-1.924,3.483-3.592,5.156-4.584c1.988-1.179,3.992-1.651,6.161-1.681c0.6,3.101,1.801,6.522,3.459,9.543
				c-1.929-0.211-3.964-0.037-6.036,0.453c-1.028,0.243-2.027,0.567-3.014,0.928C364.027,68.218,362.146,66.632,360.657,64.828z
				 M373.782,46.268c-3.754,0.403-7.372,1.634-10.578,3.69c-2.187,1.402-4.827,3.494-6.569,5.928
				c-0.381-2.18-0.46-4.456-0.252-6.769c2.261-1.902,4.706-3.584,7.37-4.871c3.412-1.648,8.339-3.568,12.262-2.706
				C375.259,43.121,374.475,44.685,373.782,46.268z M357.377,43.591c4.465,0.406,7.96-4.355,10.502-7.393
				c1.596-1.907,3.298-4.356,5.574-5.506c7.935-4.011,4.521,6.602,3.278,9.325c-0.083,0.181-0.168,0.361-0.252,0.542
				c-3.215-1.476-9.073,0.931-11.723,2.059c-3.051,1.299-5.833,3.058-8.228,5.266C356.715,46.455,356.994,45.019,357.377,43.591z
				 M356.205,31.966c-1.499,1.952-2.204,4.716-2.842,6.898c-1.522,5.214-4.256,8.747-7.956,12.612
				c-2.629,2.745-5.32,5.667-6.545,9.344c-0.56,1.681-0.858,3.694-0.566,5.54c-1.534-0.822-3.142-1.536-4.845-2.104
				c-0.641-0.214-1.275-0.388-1.906-0.543c0.529-8.819,7.074-14.259,12.185-21.031c2.553-3.383,4.057-7.215,5.958-10.964
				c1.536-3.032,3.308-5.18,5.732-7.064C356.852,26.719,356.809,29.318,356.205,31.966z M343.984,32.861
				c1.469-4.081,3.911-14.894,10.287-9.499c0.051,0.044,0.086,0.093,0.136,0.137c-2.06,1.38-3.699,3.61-4.88,5.612
				c-2.63,4.462-4.185,9.318-7.425,13.442c-4.646,5.914-12.497,12.654-11.773,20.895c-2.068-0.399-4.092-0.533-6.113-0.542
				c-0.124-2.85,0.306-5.645,1.256-8.387c0.86-2.482,2.317-4.402,3.655-6.473c3.86-0.862,7.421-2.823,10.005-5.98
				C341.334,39.374,342.813,36.114,343.984,32.861z M322.996,62.913c-1.656,0.028-3.317,0.111-5.004,0.18
				c-0.165-0.533-0.308-1.078-0.372-1.673c-0.198-1.837-0.128-3.72,0.181-5.541c0.463-2.736,1.492-5.308,2.968-7.621
				c2.031,0.337,4.108,0.391,6.138,0.162c-1.181,1.819-2.064,3.932-2.696,5.75C323.299,56.792,322.497,60.043,322.996,62.913z
				 M316.263,63.151c-1.135,0.03-2.284,0.042-3.457,0.006c-1.925-0.059-3.547-0.626-5.002-1.492
				c-0.693-3.268,0.915-7.927,1.97-10.324c0.997-2.261,2.384-4.27,4.031-6.061c1.253,1.105,2.807,1.982,4.791,2.518
				c0.321,0.087,0.646,0.157,0.971,0.229c-1.719,2.608-2.867,5.541-3.307,8.697C316.042,58.301,315.808,60.947,316.263,63.151z
				 M338.232,36.292c-2.644,4.213-6.595,6.808-11.627,7.296c0.554-1.745,0.94-3.534,2.023-5.171
				c1.159-1.754,2.651-3.277,4.375-4.468C334.497,35.206,336.238,36.073,338.232,36.292z M332.289,33.294
				c-1.641,0.992-3.069,2.242-4.299,3.874c-1.246,1.654-2.723,4.17-2.96,6.506c-0.047,0-0.094,0.004-0.141,0.004
				c-2.769,0.006-4.926-0.539-6.585-1.585c0.585-2.611,1.11-5.085,2.797-7.507c1.923-2.76,4.652-4.911,7.719-6.274
				C329.727,30.167,330.876,31.912,332.289,33.294z M326.686,21.754c0.306,1.794,0.885,3.752,1.707,5.637
				c-3.229,1.257-6.014,3.241-8.129,6.093c-1.487,2.005-2.905,4.734-3.397,7.454c-1.827-1.836-2.816-4.553-3.24-8.031
				c-0.056-0.461-0.109-0.922-0.162-1.382c1.427-2.36,2.327-5.053,4.232-7.203c2.377-2.684,5.382-4.231,8.791-4.467
				C326.537,20.536,326.589,21.187,326.686,21.754z M317.703,17.794c0.644-1.134,1.006-3.123,1.952-3.953
				c1.568-1.377,4.442-0.892,5.643,0.762c0.743,1.024,0.967,2.545,1.096,4.055c-3.112-0.006-6.142,1.479-8.437,3.589
				c-1.743,1.603-3.616,3.948-4.851,6.41c-0.269-1.89-0.637-3.743-1.324-5.518C314.433,22.268,316.202,20.436,317.703,17.794z
				 M310.443,40.298c0.616,1.575,1.453,3,2.573,4.212c-2.657,2.476-4.528,5.789-5.632,9.275c-0.555,1.752-1.234,4.376-1.195,6.753
				c-1.764-1.403-3.323-3.184-4.971-4.885c1.28-3.139,2.397-6.323,4.079-9.29c0.809-1.427,1.691-2.859,2.775-4.097
				C308.79,41.446,309.599,40.854,310.443,40.298z M308.569,31.176c0.279,2.619,0.64,5.267,1.375,7.679
				c-2.197,1.166-3.887,3.668-5.093,5.621c-1.972,3.191-3.674,6.735-4.352,10.451c-0.896-0.889-1.828-1.736-2.845-2.468
				c-1.147-5.183-0.203-10.578,1.75-15.532c1.016-2.577,2.346-5.027,3.95-7.285c1.187-1.671,2.582-3.101,3.955-4.566
				C308.026,26.982,308.342,29.045,308.569,31.176z M304.778,21.012c0.891,0.911,1.543,1.908,2.054,2.958
				c-4.066,3.178-7.054,8.436-8.853,12.98c-1.453,3.67-3.281,9.729-2.305,14.288c-0.442-0.22-0.901-0.417-1.379-0.584
				c-1.726-0.605-3.349-0.722-4.971-0.733c0.075-11.001,2.711-25.683,13.992-30.206C303.845,20.121,304.338,20.562,304.778,21.012z
				 M295.009,19.658c2.136-2.406,4.732-2.089,6.96-0.839c-5.291,1.88-8.707,7.793-10.765,12.638
				c-2.421,5.699-3.755,12.252-3.018,18.469c-1.241,0.013-2.496,0.034-3.81-0.106c-0.923-0.098-1.648-0.316-2.25-0.613
				c-0.185-1.321-0.53-2.621-0.58-3.974c-0.076-2.056,0.215-4.113,0.736-6.099c0.769-2.929,2.051-5.679,3.482-8.341
				c1.271-0.427,2.492-1.11,3.565-2.076C292.15,26.178,292.643,22.324,295.009,19.658z M280.396,47.766
				c-1.261-1.66-1.675-3.959-3.69-5.618c-0.438-0.36-0.901-0.647-1.373-0.901c0.079-2.048,1.225-4.394,2.025-5.929
				c0.837-1.605,1.9-3.039,3.161-4.305c1.26,0.336,2.592,0.362,3.903,0.125c-1.538,2.69-2.842,5.513-3.552,8.544
				C280.321,42.023,279.863,45.127,280.396,47.766z M266.277,40.839c-1.42,0.408-2.791,0.956-4.035,1.549
				c-0.79,0.377-1.597,0.787-2.413,1.191c-1.137-3.798-0.448-8.761,0.627-12.402c0.547-1.851,1.339-3.622,2.427-5.22
				c0.497-0.731,1.08-1.361,1.679-1.973c0.258-0.119,0.517-0.236,0.769-0.372c2.215-1.198,4.841-3.883,7.467-1.8
				c-2.607,1.771-4.676,5.203-5.707,7.763C265.811,32.749,265.088,37.318,266.277,40.839z M258.717,44.119
				c-2.405,1.143-4.854,2.08-7.149,1.811c-1.979-7.427-0.356-15.073,4.689-20.857c1.859,0.272,3.74,0.228,5.548-0.168
				c-1.083,1.613-1.892,3.442-2.433,5.045C257.959,34.132,257.237,39.813,258.717,44.119z M249.617,45.37
				c-1.092-0.524-2.13-1.419-3.092-2.81c-1.947-2.817-2.688-6.306-3.945-9.472c0.683-2.194,1.644-4.206,3.32-6.123
				c1.286-1.47,2.817-2.639,4.338-3.825c1.509,0.753,3.119,1.344,4.869,1.716c-2.616,2.809-4.423,6.215-5.329,10.068
				C249.18,37.465,248.524,42.185,249.617,45.37z M268.258,30.067c0.736-1.831,1.773-3.519,3.083-4.998
				c0.714-0.806,1.569-1.454,2.39-2.132c0.712,1.309,1.089,3.236,1.798,4.36c1.015,1.61,2.388,2.716,3.92,3.356
				c-1.82,1.76-3.17,3.896-4.151,6.308c-0.402,0.987-1.017,2.389-1.233,3.732c-2.064-0.711-4.333-0.656-6.543-0.173
				c-0.228-1.303-0.497-2.598-0.501-3.95C267.015,34.338,267.425,32.138,268.258,30.067z M289.876,19.816
				c-0.731,1.618-1.454,3.246-2.642,4.573c-2.338,2.611-5.129,2.733-7.25,0.592c0.286-1.729,0.497-3.346,1.632-5.002
				c0.887-1.292,2.05-2.355,3.353-3.21C286.378,18.215,287.978,19.401,289.876,19.816z M281.898,13.02
				c0.705,0.959,1.463,1.96,2.283,2.9c-1.422,0.88-2.674,1.986-3.661,3.418c-0.748,1.084-1.448,2.491-1.794,3.933
				c-0.763-1.462-1.048-3.205-2.027-4.583c-0.95-1.336-1.935-2.14-2.947-2.573c0.47-0.906,1.065-1.755,1.632-2.465
				c1.21-1.515,2.748-2.677,4.55-3.273C280.614,11.246,281.258,12.15,281.898,13.02z M271.998,5.405
				c3.14,0.117,5.333,1.886,7.192,4.066c-1.868,0.573-3.477,1.743-4.771,3.332c-0.664,0.815-1.43,1.843-1.987,2.946
				c-2.083-0.266-4.263,0.766-6.479,1.934c-0.283-1.877-0.461-3.692,0.064-5.756c0.54-2.129,1.561-4.095,2.756-5.937
				C269.766,5.611,270.814,5.361,271.998,5.405z M263.33,8.618c1.352-0.517,2.568-1.25,3.81-1.889
				c-2.304,3.457-3.936,8.035-2.736,11.774c-2.071,1.087-4.159,2.061-6.217,1.99c-2.873-0.098-5.448-1.038-7.866-2.423
				c0.023-0.283,0.06-0.568,0.128-0.859c0.408-1.746,1.641-3.42,2.765-4.772c1.151-1.385,2.476-2.559,3.92-3.584
				C259.035,9.442,261.026,9.498,263.33,8.618z M248.643,4.482c1.239,0.213,2.172,0.992,3.195,1.648
				c1.374,0.882,2.688,1.68,4.02,2.254c-1.874,1.349-3.542,2.974-4.872,4.887c-0.675,0.971-1.388,2.252-1.792,3.575
				c-1.254-2.608-3.77-4.533-4.385-7.441C244.264,6.831,245.757,3.985,248.643,4.482z M243.421,18.481
				c1.725,1.441,3.5,2.789,5.417,3.907c-3.046,2.137-5.899,5.248-7.209,8.641c-1.094-2.122-2.48-4.025-4.103-5.709
				c0.658-1.23,1.385-2.417,2.284-3.512C240.869,20.518,242.212,19.571,243.421,18.481z M242.224,17.467
				c-2.374,1.49-4.39,4.215-5.662,6.884c-1.388-1.303-2.915-2.469-4.535-3.507c0.69-1.41,1.335-2.815,2.402-4.089
				c0.995-1.187,2.16-2.178,3.421-3.043C239.335,14.936,240.773,16.218,242.224,17.467z M212.991,13.078
				c-1.622-0.77-3.15-1.679-4.515-2.824c1.723-0.957,3.532-1.696,5.383-2.236C212.996,9.611,212.726,11.337,212.991,13.078z
				 M214.097,13.574c-0.214-2.027,0.204-4.125,1.432-5.783c0.065-0.088,0.138-0.163,0.207-0.244
				c2.241-0.474,4.528-0.638,6.799-0.491c-0.498,0.628-0.928,1.299-1.287,1.918c-1.108,1.912-2.524,4.3-1.965,6.48
				C217.52,14.884,215.768,14.29,214.097,13.574z M220.183,15.745c-0.084-2.248,1.306-4.595,2.444-6.424
				c0.536-0.86,1.125-1.51,1.771-2.075c2.162,0.309,4.292,0.914,6.337,1.823c-0.93,0.779-1.766,1.67-2.423,2.449
				c-1.495,1.774-2.509,3.746-3.117,5.92C223.561,16.83,221.876,16.286,220.183,15.745z M228.489,18.829
				c-0.792-0.392-1.617-0.74-2.455-1.071c0.838-2.021,1.987-3.925,3.445-5.55c0.841-0.938,1.869-1.637,2.886-2.334
				c0.732,0.395,1.453,0.826,2.155,1.305c0.756,0.517,1.487,1.067,2.207,1.631c-2.592,1.75-5.018,4.391-5.893,7.29
				C230.068,19.651,229.288,19.224,228.489,18.829z M160.776,7.55c8.355,0.282,16.717,0.655,24.673,3.563
				c4.324,1.58,8.393,3.893,11.844,6.949c2.488,2.203,4.3,4.88,6.335,7.419c-3.235,0.29-6.465,0.627-9.685,1.042
				c-6.117,0.787-12.239,1.788-18.316,3.029c-0.011-0.047-0.012-0.09-0.027-0.137C172.89,20.43,167.571,13.428,160.776,7.55z
				 M127.612,16.592c6.595-0.136,12.941,1.108,18.904,4.295c5.876,3.14,9.471,8.151,14.336,12.24
				c-4.09,1.154-8.139,2.434-12.122,3.879c-3.198,1.16-6.35,2.42-9.456,3.77C136.661,32.234,131.183,24.769,127.612,16.592z
				 M98.928,33.942c5.598-0.586,11.195,0.369,16.404,2.844c4.919,2.337,8.724,5.907,12.741,9.406
				c-4.116,2.188-8.12,4.562-12.005,7.111C111.754,45.86,105.613,39.39,98.928,33.942z M72.344,54.765
				c5.478-0.425,10.955-0.379,16.429,0.53c3.451,0.573,6.823,1.452,10.071,2.757c2.212,0.889,4.269,2.136,6.446,3.074
				c-4.248,3.381-8.307,7.005-12.147,10.877C88.058,65.112,79.751,59.79,72.344,54.765z M66.5,80.892
				c-2.121-1.076-4.332-2.018-6.577-2.803c-1.96-0.686-4.324-1.013-6.451-1.68c5.226-2.396,11.15-2.686,16.935-2.858
				c6.592-0.195,13.467-0.568,19.85,1.318c0.047,0.014,0.085,0.005,0.131,0.014c-3.011,3.216-5.895,6.573-8.599,10.11
				c-1.137,1.487-2.255,3.025-3.346,4.606C75.699,85.73,70.564,82.953,66.5,80.892z M39.525,101.323
				c5.539-2.65,11.403-4.356,17.501-5.445c6.254-1.117,12.68-1.254,18.91-2.47c-2.313,3.64-4.475,7.453-6.382,11.388
				c-0.934,1.225-1.785,2.522-2.588,3.857C58.823,103.594,48.416,104.577,39.525,101.323z M30.831,127.862
				c4.795-3.025,9.772-5.739,14.946-8.087c6.088-2.763,12.819-4.221,18.907-6.906c-1.761,3.568-3.236,7.295-4.586,10.894
				c-1.399,3.73-2.597,7.519-3.62,11.352c-0.085-0.05-0.164-0.11-0.257-0.148C48.041,131.591,39.536,129.272,30.831,127.862z
				 M24.058,162.7c9.362-9.23,19.866-17.086,31.399-23.486c-0.833,3.615-1.513,7.268-2.024,10.957
				c-0.563,4.056-0.917,8.148-1.069,12.249C42.917,160.259,33.469,161.125,24.058,162.7z M25.465,194.815
				c3.124-4.63,6.555-9.039,10.347-13.171c5.079-5.535,10.908-10.091,16.424-15.117c0.015,0.001,0.03,0.006,0.045,0.006
				c-0.016,6.049,0.437,12.098,1.364,18.071C43.458,185.656,34.276,189.864,25.465,194.815z M32.321,216.984
				c5.241-10.711,13.385-19.696,22.128-27.842c0.792,4,1.793,7.959,3.039,11.844c0.265,0.827,0.546,1.649,0.832,2.47
				c-0.184,0.007-0.375,0.033-0.58,0.104C48.509,206.759,40.123,211.334,32.321,216.984z M48.766,234.54
				c1.219-3.817,2.594-7.583,4.132-11.288c2.12-5.111,5.454-10.39,6.901-15.831c2.077,5.238,4.592,10.301,7.537,15.095
				C60.733,225.911,54.541,229.928,48.766,234.54z M58.658,257.561c0.07-4.203,3.98-13.859,4.612-15.593
				c1.897-5.208,4.289-10.184,6.964-15.026c3.12,4.481,6.637,8.683,10.553,12.514C72.589,244.476,65.192,250.521,58.658,257.561z
				 M89.882,259.873c-3.062,2.704-5.404,5.916-8.033,8.9c0.17-3.77,0.782-12.512,0.874-13.539c0.376-4.189,1.113-8.331,1.62-12.499
				c4.101,3.613,8.772,7.153,13.789,10.091C95.104,254.721,92.418,257.634,89.882,259.873z M106.24,281.997
				c-2.414-8.685-2.762-17.524-1.36-26.497c1.037,0.116,2.062,0.502,3.011,0.961c4.868,2.354,10.223,3.838,15.652,5.001
				C117.733,268.271,111.972,275.121,106.24,281.997z M137.184,289.761c-4.851-8.446-7.907-17.64-8.997-27.374
				c2.672,0.503,5.333,0.968,7.935,1.456c4.198,0.791,8.419,1.52,12.655,2.189C145.143,274.054,141.272,281.961,137.184,289.761z
				 M173.114,279.094c-1.316,2.341-2.641,4.678-3.95,7.022c-0.884,1.583-2.01,5.319-3.963,5.613
				c-1.156,0.736-1.792,0.258-1.909-1.436c-0.576-1.176-1.141-2.357-1.695-3.542c-1.074-2.295-2.103-4.609-3.096-6.94
				c-1.831-4.298-3.462-8.642-4.957-13.06c8.243,1.21,16.544,2.187,24.872,2.931C176.639,272.815,174.879,275.956,173.114,279.094z
				 M197.951,290.906c-5.333-6.193-9.773-13.145-12.942-20.683c7.838,0.582,15.69,0.951,23.533,1.111
				C205.069,277.889,201.53,284.409,197.951,290.906z M236.569,279.666c-0.563,1.101-5.712,12.852-6.505,12.829
				c-2.256-0.064-7.596-10.315-8.669-11.93c-2.01-3.026-3.975-6.079-5.921-9.145c7.184,0.031,14.354-0.106,21.487-0.437
				c1.382-0.064,2.766-0.133,4.151-0.203C239.598,273.743,238.083,276.704,236.569,279.666z M257.959,288.973
				c-3.968-5.813-7.219-11.974-9.727-18.55c7.495-0.362,15.014-0.629,22.502-0.382C266.457,276.339,262.184,282.64,257.959,288.973z
				 M293.334,281.305c-4.479,1.753-8.822,3.878-12.907,6.419c-1.941,1.207-3.952,2.477-5.702,3.954
				c-0.621,0.524-0.524,2.596-0.498,0.643c0.017-1.242,0.119-2.49,0.211-3.729c0.457-6.164,1.697-12.169,3.203-18.147
				c0.954,0.076,1.91,0.143,2.862,0.243c7.264,0.76,16.199,3.206,22.212,8.172C299.608,278.361,296.228,280.172,293.334,281.305z
				 M289.521,297.06c2.174-2.778,5.754-5.134,8.256-7.43c2.712-2.489,5.571-4.913,7.958-7.723c2.556,3.184,4.03,7.134,3.694,11.995
				c-0.439,6.337-3.982,11.103-8.855,14.764C297.216,304.953,292.336,301.304,289.521,297.06z M281.333,306.382
				c4.716,1.732,9.571,4.044,14.507,5.287c-6.314,3.476-13.66,5.704-19.413,7.345c-1.999,0.57-4.008,1.082-6.021,1.565
				c-0.272-6.429-1.286-12.826-2.693-19.109C272.258,303.091,276.802,304.718,281.333,306.382z M243.766,306.41
				c7.95,3.651,13.461,10.63,20.563,15.498c-7.87,1.569-15.828,2.578-23.831,3.244C242.337,319.032,243.429,312.79,243.766,306.41z
				 M215.635,308.977c2.927,2.681,5.605,5.846,8.292,8.511c2.779,2.756,5.566,5.503,8.363,8.241
				c-6.354,0.366-12.725,0.574-19.092,0.728C214.458,320.932,215.858,314.733,215.635,308.977z M189.383,304.322
				c2.827,2.638,5.249,5.79,7.607,8.773c3.418,4.322,6.532,8.86,9.471,13.514c-4.748,0.1-9.489,0.195-14.214,0.332
				c-1.399,0.041-2.8,0.089-4.202,0.139C189.568,319.554,190.748,311.814,189.383,304.322z M182.18,327.334
				c-6.827,0.329-13.662,0.827-20.448,1.609c0.227-7.143-1.134-13.992-2.932-20.852C167.987,312.677,175.581,319.426,182.18,327.334
				z M126.423,312.141c10.912,3.651,20.347,9.69,28.659,17.666c-7.756,1.133-15.419,2.71-22.904,4.907
				C131.201,326.89,129.333,319.394,126.423,312.141z M95.223,318.786c12.166,2.989,22.855,9.018,32.281,17.395
				c-5.395,1.798-10.689,3.933-15.84,6.513c-1.829,0.708-3.649,1.468-5.456,2.275C102.952,336.079,99.263,327.348,95.223,318.786z
				 M64.113,336.222c13.283-1.308,25.999,4.08,37.166,11.081c-6.42,3.227-12.62,7.081-18.401,11.485
				C76.603,351.283,70.343,343.765,64.113,336.222z M31.253,364.055c6.831-2.861,14.344-3.709,21.738-4.362
				c8.916-0.787,17.754-0.448,26.444,1.746c0.012,0.014,0.023,0.027,0.034,0.041c-5.391,4.448-10.345,9.403-14.684,14.801
				C53.925,371.078,42.746,367.367,31.253,364.055z M17.393,392.825c6.044-3.259,12.844-5.427,19.253-7.493
				c8.156-2.628,16.43-4.415,24.961-4.846c-3.794,5.316-6.987,11.018-9.432,17.06C40.693,395.042,29.099,393.53,17.393,392.825z
				 M30.507,416.642c-4.12,0.057-8.407,0.973-12.619,1.497c9.993-6.856,20.878-11.951,32.466-15.644
				c-0.361,1.107-0.698,2.223-1.007,3.35c-1.096,3.997-1.8,8.093-2.127,12.214C41.695,417.106,36.124,416.565,30.507,416.642z
				 M25.202,441.569c6.074-7.304,13.889-12.868,21.814-18.162c0.014,4.359,0.468,8.71,1.38,12.971
				C40.495,437.415,32.766,439.131,25.202,441.569z M34.184,469.117c0.524-4.135,5.729-13.478,6.565-15.008
				c2.556-4.676,5.633-8.975,8.783-13.252c0.755,2.559,1.671,5.074,2.774,7.522c1.606,3.562,3.591,6.873,5.866,9.957
				C49.484,460.315,41.468,463.971,34.184,469.117z M64.465,481.175c-2.364,1.624-4.693,3.298-7.022,4.973
				c-1.035,0.745-2.068,1.493-3.103,2.236c-0.518,0.371-1.036,0.742-1.555,1.113c-1.491,1.52-1.913,1.596-1.267,0.226
				c-0.349-1.586,1.119-5.216,1.529-6.847c0.637-2.531,1.403-5.031,2.315-7.477c1.671-4.48,3.838-8.672,6.386-12.682
				c3.971,4.443,8.579,8.327,13.573,11.688C71.59,476.474,67.988,478.754,64.465,481.175z M89.916,491.505
				c-1.506,1.58-6.795,8.738-8.715,8.586c-2.365-0.188-0.931-15.5-0.144-22.138c4.865,2.761,9.967,5.091,15.11,6.996
				C94.083,487.134,92,489.319,89.916,491.505z M114.372,498.252c-0.801,1.388-1.619,2.767-2.449,4.139
				c-0.351,0.585-0.71,1.165-1.068,1.745c0.155-0.469,0.026-0.913-0.401-1.332c-0.67-2.87-3.068-6.259-4.291-9.01
				c-0.963-2.166-1.925-4.332-2.888-6.498c5.02,1.462,10.114,2.553,15.278,3.393C117.195,493.228,115.812,495.756,114.372,498.252z
				 M142.459,502.664c-0.56,1.952-0.456,5.071-3.465,4.166c-1.285-0.386-2.892-2.478-3.817-3.389
				c-3.583-3.528-6.63-7.462-9.252-11.706c6.343,0.802,12.644,1.704,18.971,2.443C144.083,497.006,143.271,499.835,142.459,502.664z
				 M165.146,500.422c-0.638,1.118-1.27,2.241-1.904,3.361c-1.002,1.768-0.895,3.076-3.301,1.962
				c-1.733-0.802-3.778-4.519-5.034-6.01c-1.403-1.666-2.835-3.305-4.261-4.95c3.919,0.376,7.855,0.665,11.83,0.777
				c1.823,0.051,3.638,0.062,5.451,0.064C166.996,497.222,166.062,498.817,165.146,500.422z M190.892,497.421
				c-0.844,1.74-1.464,5.214-2.896,6.443c-3.406,2.924-9.351-3.847-12.958-8.345c5.912-0.194,11.777-0.64,17.609-1.268
				C192.016,495.276,191.424,496.325,190.892,497.421z M211.502,502.461c-1.497,0.243-5.428-3.71-6.442-4.607
				c-1.579-1.395-2.996-2.949-4.312-4.586c5.402-0.742,10.78-1.638,16.144-2.639C215.534,495.04,213.435,502.147,211.502,502.461z
				 M234.827,491.37c-0.507,1.122-1.349,4.363-2.292,5.98c-1.953-1.357-3.753-3.421-5.415-4.86c-1.224-1.061-2.47-2.096-3.718-3.129
				c4.564-0.923,9.121-1.911,13.674-2.948C236.327,488.065,235.575,489.717,234.827,491.37z M261.286,485.741
				c-0.7,2.553-1.215,8.478-4.426,7.817c-2.081-0.428-5.038-3.442-6.692-4.67c-1.841-1.366-3.62-2.806-5.38-4.269
				c5.995-1.422,11.993-2.896,18.006-4.375C262.291,482.077,261.789,483.909,261.286,485.741z M283.433,487.284
				c-2.472-0.362-6.23-3.233-7.782-4.28c-2.022-1.365-3.884-2.88-5.661-4.506c5.423-1.287,10.847-2.492,16.285-3.593
				C284.562,478.483,284.031,484.135,283.433,487.284z M311.686,475.426c-1.796,3.191-2.712,5.495-6.946,4.305
				c-3.811-1.071-6.795-4.328-10.141-6.421c3.698-0.666,7.405-1.281,11.127-1.824c0.083,0.015,0.161,0.038,0.257,0.029
				c2.791-0.252,5.576-0.519,8.358-0.794C313.456,472.289,312.569,473.857,311.686,475.426z M251.601,477.95
				c-7.865,1.963-15.722,3.958-23.63,5.74c-23.81,5.358-48.289,7.978-72.695,6.793c-21.706-1.054-46.708-3.939-66.352-13.844
				c-12.752-6.43-26.15-16.702-32.26-29.877c-6.098-13.148-6.43-28.364-2.176-42.098c12.077-38.987,54.376-62.675,92.546-68.743
				c45.279-7.198,93,1.106,136.988-13.979c11.225-3.85,23.865-9.384,28.389-21.312c3.75-9.885-1.009-20.086-8.998-26.277
				c-10.58-8.2-25.5-8.824-38.347-8.981c-6.641-0.081-13.275,0.155-19.909,0.452c-0.247-0.034-0.491-0.017-0.73,0.033
				c-9.231,0.419-18.461,0.941-27.703,0.899c-18.439-0.084-36.798-1.773-55.113-3.774c-15.003-1.639-30.94-2.542-45.489-7.156
				c-11.334-5.111-21.95-10.015-31.273-19.107c-10.967-10.695-18.814-24.067-23.214-38.724c-4.585-15.274-5.574-31.415-3.698-47.214
				c0.975-8.214,2.805-16.385,5.288-24.272c0.852-2.707,1.886-5.354,2.967-7.983c2.181-5.302,4.744-10.672,7.743-15.74
				c4.267-7.213,9.266-13.905,14.79-20.205c11.126-12.688,23.893-22.314,38.576-30.479c16.313-9.071,34.349-15.524,52.65-19.159
				c9.461-1.879,19.042-3.115,28.662-3.798c8.776-0.623,18.662-1.948,27.036,1.333c1.393,1.89,2.563,4.038,3.47,6.53
				c1.963,5.394,4.027,11.674,10.214,13.464c7.988,2.312,13.289-5.608,20.639-6.355c5.381-0.547,5.209,4.078,7.657,7.234
				c1.537,1.981,3.532,2.724,5.978,2.857c4.749,0.258,8.684-0.407,12.827,2.686c3.112,2.323,4.663,6.092,7.833,8.341
				c5.672,4.024,12.463,1.832,18.816,1.637c7.662-0.236,14.895,2.988,20.146,8.392c-1.328,0.329-2.653,0.765-3.917,1.319
				c-0.158-0.28-0.441-0.506-0.881-0.609c-13.51-3.153-27.281-5.022-41.065-6.519c-1.595-0.173-2.551,2.218-1.339,3.232
				c5.073,4.243,11.005,6.489,16.961,9.184c3.702,1.675,6.935,3.875,10.094,6.2c-30.593-9.911-62.942-16.536-95.176-15.186
				c-24.847,1.04-55.621,6.998-71.131,28.133c-0.058-1-0.168-1.957-0.295-2.785c-0.696-4.527-2.822-7.899-5.837-11.212
				c-0.661-0.726-1.959,0.24-1.38,1.065c2.196,3.131,3.437,7.05,3.84,10.835c0.032,0.297,0.035,0.596,0.041,0.894
				c-1.209-2.927-2.995-5.622-5.646-7.921c-1.201-1.041-2.885,0.594-1.76,1.76c9.756,10.12,4.285,24.199,4.929,36.51
				c0.452,8.648,4.087,16.393,12.776,19.205c9.863,3.192,21.143-0.024,30.729-2.733c6.236-1.762,12.387-3.631,18.915-3.916
				c6.031-0.263,16.789,0.733,16.717,8.699c-1.723-0.355-3.498-0.466-5.158-0.343c-6.044,0.446-10.905,4.129-17.06,1.09
				c-0.441-0.218-0.992,0.371-0.562,0.728c3.414,2.837,6.585,3.913,11.038,3.144c3.441-0.594,6.53-1.897,10.126-1.12
				c3.228,0.697,7.073,2.382,5.207,7.334c-0.159,0.421-0.426,0.848-0.731,1.275c-0.143-0.105-0.278-0.217-0.43-0.316
				c-6.442-4.16-14.518,1.017-21.387-1.273c-1.044-0.348-1.933,1.143-1.092,1.877c5.222,4.559,10.493,1.041,16.549,1.774
				c7.953,0.963,6.753,10.491-0.169,12.186c-4.359,1.067-9.4-0.877-13.527-2.233c-4.428-1.454-8.789-3.157-12.988-5.182
				c-3.446-1.662-6.816-4.222-10.596-5.073c-7.158-1.611-14.545,2.517-21.11,4.716c-17.309,5.798-38.254,4.478-47.487-12.992
				c-3.979-7.528-6.437-16.01-8.02-24.349c-1.906-10.039-1.377-19.859-1.937-29.976c-0.033-0.598-0.874-0.737-1.055-0.143
				c-1.586,5.216-2.27,10.927-2.283,16.775c-0.354-0.592-0.677-1.206-0.912-1.881c-1.567-4.498-1.285-9.528-1.642-14.228
				c-0.042-0.557-0.892-0.752-1.031-0.139c-1.234,5.444-1.657,11.136,0.109,16.537c0.323,0.989,0.744,2.089,1.273,3.146
				c-9.572,24.084-12.122,53.065,0.718,76.408c5.8,10.544,14.551,19.4,25.571,24.409c12.465,5.666,26.695,7.612,40.212,8.999
				c30.956,3.177,62.133,0.582,93.161,0.38c29.304-0.191,61.81,1.011,86.825,18.186c12.051,8.274,22.098,20.446,25.358,34.933
				c2.972,13.21,0.125,27.524-8.652,37.809c0.177-1.662-0.41-3.816-0.693-4.998c-1.072-4.481-3.289-7.824-6.917-10.583
				c-0.376-0.286-0.921,0.276-0.651,0.651c1.828,2.543,3.481,5.618,4.444,8.59c0.188,0.581,0.48,1.467,0.742,2.441
				c-2.411-3.987-6.018-7.058-10.521-8.703c-0.809-0.295-1.282,0.94-0.574,1.361c7.21,4.283,11.807,12.495,9.865,20.963
				c-0.913,3.979-3.137,7.567-4.718,11.293c-1.689,3.982-2.836,8.116-3.458,12.4c-0.771,5.311-0.59,10.254,3.804,13.846
				c4.656,3.806,11.466,4.144,17.206,3.962c8.376-0.265,16.511-2.229,24.511-4.593c7.913-2.338,16.393-6.108,24.811-5.243
				c5.052,0.519,8.234,3.071,12.041,6.014c1.887,1.458,3.811,2.797,6.21,3.178c1.128,0.179,2.229,0.175,3.355-0.03
				c4.333-0.789,12.377-4.957,9.557,4.117c-0.635,2.188-1.952,3.969-3.526,5.516c-1.5-1.556-3.571-2.51-5.764-2.927
				c-6.857-1.305-12.338,1.278-17.948-4.354c-0.378-0.379-0.957,0.202-0.587,0.587c4.278,4.452,8.306,6.158,14.366,6.86
				c2.816,0.326,7.526,2.297,8.176,5.465c0.854,4.167-5.301,7.316-7.948,9.432c-1.561-4.247-4.934-7.921-8.987-9.713
				c-1.139-0.504-2.983,0.687-1.987,1.987c2.903,3.788,7.145,6.943,7.473,12.112c0.151,2.386-0.664,5.061-2.858,6.362
				c-4.315,2.558-6.229-1.224-7.619-4.688c-2.402-5.986-4.949-10.849-10.39-14.753c-13.898-9.971-28.796-2.268-41.959,4.783
				c-7.643,4.094-19.068,11.626-28.106,8.95c-11.4-3.376-9.349-15.186-11.712-24.345c-2.275-8.817-6.781-16.691-8.152-25.798
				c-1.467-9.737-0.758-19.912-0.171-29.695c0.041-0.68-1.063-0.839-1.199-0.162c-0.936,4.659-1.747,9.264-2.253,13.908
				c-0.417-1.182-0.796-2.384-0.97-3.661c-0.557-4.081,0.049-8.153,0.451-12.225c0.059-0.593-0.89-0.705-1.031-0.14
				c-1.211,4.883-3.445,13.959-0.769,19.423c-18.905,5.98-38.889,6.352-58.553,6.398c-20.156,0.048-40.296-0.733-60.445,0.167
				c-34.344,1.534-72.538,6.439-98.699,31.052c-21.326,20.064-30.993,54.579-11.219,79.272
				c10.401,12.988,26.991,18.999,42.796,22.21c18.482,3.755,37.579,3.802,56.263,1.632c21.26-2.469,42.107-7.622,62.789-12.983
				c21.662-5.615,43.396-10.649,65.174-15.768c0.04-0.009,0.067-0.034,0.103-0.048c32.302-1.707,64.526,0.383,95.307,9.904
				C361.929,459.465,305.222,464.565,251.601,477.95z M415.165,478.945c-1.803-0.733-3.414,1.701-2.468,3.21
				c4.413,7.044,10.199,12.786,17.071,17.038c-7.37-1.51-14.296-4.988-21.065-8.522c-1.678-0.876-4.151,1.039-2.839,2.839
				c2.645,3.626,5.531,6.961,8.727,10.037c-6.355-0.649-11.936-4.774-17.431-8.012c-5.191-3.059-10.5-5.315-16.625-5.251
				c-6.93,0.073-13.592,2.504-20.523,2.591c-7.752,0.097-15.098-2.191-21.668-6.23c-1.685-1.036-3.501,0.668-3.144,2.417
				c1.297,6.345,4.362,11.849,8.858,16.182c-16.55-1.826-28.423-17.331-24.638-34.448c0.111-0.205,0.219-0.416,0.332-0.619
				c16.412-1.662,32.741-3.416,49.338-3.684c20.735-0.334,41.482,1.623,62.195,2.93c1.387,0.087,3.285-0.256,3.327-1.644
				c0.032-1.045-1.1-1.69-2.068-2.085c-29.756-12.123-62.219-16.555-94.35-16.51c-5.976,0.008-11.945,0.169-17.909,0.455
				c9.989-5.964,17.996-15.115,27.927-21.442c13.575-8.651,29.536-12.395,45.493-12.193c-10.084,3.883-18.989,9.337-26.491,17.734
				c-1.389,1.555-0.073,4.711,2.232,3.834c12.13-4.612,24.89-6.679,37.739-6.001c-4.332,2.051-8.552,4.339-12.5,7.042
				c-2.144,1.467-0.147,4.973,2.055,3.517c1.663-0.901,3.317-1.801,4.973-2.69c4.794-2.089,10.021-3.008,15.338-2.721
				c7.425,0.4,14.122,3.569,20.988,6.096c6.547,2.41,13.255,3.716,20.004,3.893c-6.205,1.789-12.55,3.081-19.108,4.38
				c-2.156,0.427-1.699,4.18,0.526,3.889c2.402,0.022,4.808-0.129,7.207-0.426c3.942,0.073,7.861,0.694,11.597,2.099
				c6.98,2.625,10.699,8.401,14.948,14.122c5.63,7.58,12.954,11.688,21.268,14.837C468.134,491.555,440.198,489.125,415.165,478.945
				z"/>
			<path d="M467.849,143.659c0.816-0.802,0.908-2.221,0.19-3.096c-0.09-0.334-0.232-0.652-0.427-0.931
				c-0.479-0.69-1.312-0.967-2.082-0.546c-1.207,0.66-2.034,2.115-1.537,3.481C464.551,144.105,466.576,144.91,467.849,143.659z"/>
			<path d="M469.864,141.444c-0.156,1.016-0.649,2.145-0.015,3.056c0.249,0.358,0.619,0.437,1.013,0.265
				c1.471-0.641,1.601-3.276,1.478-4.646c-0.15-1.669-0.939-3.003-2.318-3.947c-0.87-0.596-1.894,0.746-1.124,1.457
				C469.964,138.613,470.073,140.079,469.864,141.444z"/>
			<path d="M404.897,121.466c-2.686,0.8-6.015,0.25-7.994-1.81c-0.463-0.482-1.293,0.143-0.933,0.72
				c2.066,3.309,6.268,4.39,9.41,1.92C405.782,121.98,405.345,121.333,404.897,121.466z"/>
			<path d="M370.761,89.689c2.967-1.268,6.008-2.462,9.127-3.309c2.752-0.747,5.589-0.772,8.345-1.417
				c0.746-0.175,0.626-1.167,0-1.396c-5.956-2.177-13.152,2.065-18.333,4.647C368.895,88.713,369.776,90.11,370.761,89.689z"/>
		</g>
	</g>
</g>
<g>
</g>
<g>
</g>
<g>
</g>
<g>
</g>
<g>
</g>
<g>
</g>
<g>
</g>
<g>
</g>
<g>
</g>
<g>
</g>
<g>
</g>
<g>
</g>
<g>
</g>
<g>
</g>
<g>
</g>
</svg>
