<?xml version="1.0" ?><!DOCTYPE svg  PUBLIC '-//W3C//DTD SVG 1.1//EN'  'http://www.w3.org/Graphics/SVG/1.1/DTD/svg11.dtd'><svg enable-background="new 0 0 512 512" height="512px" id="Layer_1" version="1.1" viewBox="0 0 512 512" width="512px" xml:space="preserve" xmlns="http://www.w3.org/2000/svg" xmlns:xlink="http://www.w3.org/1999/xlink"><path d="M164.523,380.633c1.117,0,2.255-0.257,3.31-0.798c3.146-1.607,4.683-5.245,3.652-8.619l-34.113-111.591  l193.387,107.753c3.175,1.758,7.147,0.934,9.354-1.958l134.611-176.774c1.751-2.307,1.979-5.446,0.557-7.98  c-1.426-2.527-4.201-3.93-7.105-3.688l-319.512,32.746l47.366-66.857c1.936-2.734,1.758-6.443-0.435-8.977  c-2.199-2.534-5.837-3.246-8.819-1.737l-146.999,74.66c-1.922,0.975-3.317,2.762-3.801,4.869c-0.484,2.1-0.007,4.313,1.296,6.036  l121.435,160.033C160.123,379.615,162.301,380.633,164.523,380.633z M452.927,193.202L332.34,351.561L128.652,238.077  c-2.578-1.431-5.802-1.175-8.129,0.704c-2.314,1.866-3.252,4.955-2.385,7.795l27.435,89.751L54.163,215.86l112.914-57.354  l-39.593,55.895c-1.652,2.334-1.787,5.417-0.342,7.887c1.43,2.463,4.144,3.844,7.033,3.581L452.927,193.202z" fill="#231F20"/></svg>