<?xml version="1.0" ?><!DOCTYPE svg  PUBLIC '-//W3C//DTD SVG 1.1//EN'  'http://www.w3.org/Graphics/SVG/1.1/DTD/svg11.dtd'><svg enable-background="new 0 0 512 512" height="512px" id="Layer_1" version="1.1" viewBox="0 0 512 512" width="512px" xml:space="preserve" xmlns="http://www.w3.org/2000/svg" xmlns:xlink="http://www.w3.org/1999/xlink"><g><path d="M76.144,282.827c-4.46,0-8.141-3.526-8.311-8.003c-0.024-0.562,0.008-1.105,0.097-1.634l-28.022-0.162   c-4.306-0.024-7.88-3.331-8.239-7.621c-0.365-4.289,2.601-8.141,6.841-8.889l48.569-8.563c0.593-0.114,1.236-0.162,1.78-0.122   l1.431,0.057l-14.357-34.522c-1.145-2.77-0.722-5.947,1.122-8.312c1.844-2.364,4.77-3.534,7.791-3.111l312.574,46.473l69.645-3.843   c4.737-0.414,8.515,3.25,8.766,7.848c0.26,4.583-3.258,8.507-7.839,8.759l-14.479,0.804c0.105,0.448,0.179,0.918,0.212,1.39   c0.276,3.893-2.185,7.45-5.924,8.564l-18.962,5.646c-0.887,0.26-1.796,0.422-2.705,0.341l-40.437-1.609l-309.373,6.509   C76.258,282.827,76.201,282.827,76.144,282.827z M108.609,248.63l165.647,6.597l40.681-2.25l-217.986-32.41L108.609,248.63z" fill="#231F20"/><path d="M326.182,349.539c-2.853,0-5.622-1.472-7.174-4.087c-2.283-3.868-1.081-8.849,2.705-11.253l121.261-76.989   c-73.529-33.555-122.098-55.483-129.702-58.555c-1.569-0.357-3.056-1.17-4.193-2.298c-0.925-0.919-1.607-2.024-2.015-3.218   c-1.512-2.332-7.944-11.902-13.722-20.353c-2.129-3.112-1.902-7.271,0.569-10.131c2.452-2.86,6.547-3.689,9.935-2.048l169.14,82.23   c2.714,1.316,4.494,4.005,4.664,7.011c0.099,1.609-0.284,3.177-1.039,4.534c2.234,1.462,3.647,3.932,3.746,6.653   c0.112,3.145-1.554,6.086-4.314,7.597L330.17,348.516C328.902,349.214,327.53,349.539,326.182,349.539z" fill="#231F20"/><path d="M301.563,352.228c-2.998,0-5.891-1.616-7.377-4.453c-2.137-4.07-0.56-9.1,3.502-11.235l154.295-80.93   l-148.16-69.449c-4.16-1.95-5.949-6.906-3.999-11.066c1.95-4.152,6.874-5.956,11.065-3.998l163.339,76.559   c2.861,1.341,4.713,4.185,4.786,7.345c0.065,3.161-1.656,6.085-4.453,7.556l-169.14,88.721   C304.188,351.919,302.863,352.228,301.563,352.228z" fill="#231F20"/></g></svg>