<svg height="512pt" viewBox="0 -39 512.00018 512" width="512pt" xmlns="http://www.w3.org/2000/svg"><path d="m510.898438 225.289062c-.34375-.328124-.742188-.566406-1.167969-.730468-.550781-.660156-1.335938-1.132813-2.257813-1.25l-34.421875-4.414063c6.421875-17.425781 9.722657-36.027343 9.488281-54.539062-.261718-20.945313-4.863281-41.511719-9.308593-61.402344l-10.136719-45.324219c-.722656-3.234375-1.625-7.257812-4.511719-10.363281-3.054687-3.28125-7.816406-4.875-13.070312-4.378906-4.238281.402343-8.125 2.046875-11.558594 3.5-7.046875 2.984375-15.253906 7.496093-16.132813 15.996093-.484374 4.695313 1.585938 8.777344 3.414063 12.375.328125.648438.65625 1.296876.964844 1.941407 5.273437 10.988281 5.710937 24.832031 1.230469 38.976562-4.292969 13.554688-12.503907 25.871094-19.96875 36.136719-9.3125 12.804688-19.382813 25.027344-30.136719 36.617188-7.671875-2.488282-15.152344-5.902344-22.421875-9.300782l-14.515625-175.886718c-.078125-.957032-.542969-1.839844-1.289063-2.445313-.742187-.609375-1.707031-.8867188-2.65625-.7695312-40.453125 4.8476562-80.804687 11.3359372-120.855468 19.4023442-1.382813-4.363282-2.769532-7.070313-9.167969-7.800782-4.359375-.5-8.519531.175782-12.078125.847656l-53.515625 10.105469c-3.78125.710938-8.960938 1.691407-12.636719 5.304688-2.386719 2.34375-3.675781 5.875-3.371094 9.21875.105469 1.171875.414063 2.253906.878906 3.230469-21.992187 5.8125-43.84375 12.089843-65.515624 18.859374-5.734376 1.789063-11.917969 4.019532-16.484376 8.078126-.578124.0625-1.148437.25-1.660156.609374-16.628906 11.738282-31.9375 23.78125-36.546875 42.03125-2.054687 8.132813-1.597656 16.429688-.898437 24.925782 2.480468 30.199218 7.109375 60.5 13.757812 90.066406 1.351563 6.011719 2.78125 11.863281 5.367188 17.367188 8.257812 17.570312 25.855468 27.492187 44.746094 36.878906-.996094 1.726562-1.144532 3.722656-1.207032 4.578125-.347656 4.816406 1.105469 10.421875 2.390625 15.367187.582031 2.246094 1.132813 4.367188 1.476563 6.234375l12.457031 67.679688c.1875 1.023437.816406 1.910156 1.714844 2.425781l78.457031 45.09375c10.773438 6.191406 24.183594 13.898438 38.722656 14.226562.332032.007813.664063.011719.992188.011719 11.488281 0 22.363281-4.441406 31.984375-8.367187l244.683593-99.902344c.933594-.382812 1.660157-1.144531 1.996094-2.097656l33.671875-95.371094c.460938-1.316406.109375-2.785156-.902343-3.742188zm-14.484376 3.726563-35.039062 14.511719c3.382812-5.738282 6.40625-11.699219 9.007812-17.847656zm-30.085937-124.519531c4.371094 19.535156 8.890625 39.738281 9.144531 59.949218.363282 28.964844-8.300781 58.175782-24.402344 82.253907-.277343.414062-.453124.859375-.539062 1.316406l-28.410156 11.769531c36.621094-58.527344 46.90625-130.234375 27.339844-194.285156-.042969-.144531-.105469-.277344-.175782-.402344 2.5625-1.222656 4.988282-2.722656 7.234375-4.46875zm-41.476563-41.386719c.5-4.816406 6.597657-7.988281 11.859376-10.210937 3.101562-1.316407 6.3125-2.675782 9.46875-2.972657 3.007812-.289062 5.703124.519531 7.226562 2.15625.988281 1.058594 1.605469 2.574219 2.070312 4.171875-8.265624 7.199219-19.875 10.261719-30.617187 8.132813-.035156-.429688-.050781-.855469-.007813-1.277344zm-56.875 130.96875c-5.066406 5.25-10.273437 10.367187-15.621093 15.332031l-.992188-22.273437c5.390625 2.488281 10.914063 4.910156 16.613281 6.941406zm41.203126-38.105469c7.796874-10.726562 16.390624-23.644531 20.988281-38.160156 5.023437-15.867188 4.457031-31.554688-1.597657-44.175781-.332031-.6875-.679687-1.378907-1.035156-2.074219-.492187-.972656-.96875-1.925781-1.390625-2.863281 1.828125.257812 3.667969.402343 5.507813.402343 4.742187 0 9.476562-.847656 13.9375-2.464843.003906.015625.003906.027343.007812.039062 19.765625 64.71875 8.523438 137.410157-30 195.808594l-63.84375 26.4375c3.28125-12.265625 2.84375-25.628906-1.390625-37.566406-2.636719-7.441407-6.773437-14.382813-11.996093-20.367188 26.691406-21.882812 50.507812-47.101562 70.8125-75.015625zm-190.636719 15.796875 3.414062.917969c.097657-.253906.679688-.820312 1.027344-1.160156l7.976563-7.78125c.726562-.710938 1.480468-1.445313 2.117187-1.691406 1.578125-.601563 4.007813 5.257812 4.925781 7.464843.542969 1.320313 1.015625 2.460938 1.515625 3.375l25.234375 46.011719c.914063 1.671875 3.738282 7.277344 1.589844 9.242188-.929688.851562-2.980469.777343-4.574219-.164063-2.085937-1.238281-3.707031-3.550781-5.277343-5.789063l-30.09375-42.953124c-.621094-.890626-1.300782-1.695313-1.957032-2.476563-.914062-1.085937-1.773437-2.105469-2.261718-3.097656-.230469-.464844-.261719-.84375-.226563-.976563zm74.179687 43.898438c-.28125.230469-.472656.523437-.59375.835937-.832031.589844-1.621094 1.214844-2.378906 1.867188-1.097656-5.878906-1.746094-11.851563-1.960938-17.859375l30.074219-22.191407c.660157 3.773438 1.109375 7.5625 1.160157 11.347657.019531 1.546875-.039063 3.0625-.15625 4.546875zm25.277344-15.515625c-1.132812 5.144531-3.195312 9.667968-6.066406 13.261718-2.835938-.730468-5.902344-1.125-9.027344-.878906zm-30.277344-4.609375c.027344-6.449219.546875-12.910157 1.550782-19.300781l24.351562-16.023438.519531 2c1.007813 3.855469 2.015625 7.769531 2.863281 11.710938zm2.539063-24.785157c1.078125-5.339843 2.488281-10.609374 4.226562-15.761718l15.140625-10.101563 2.917969 11.195313zm6.59375-22.195312c2.503906-6.273438 5.523437-12.328125 9.011719-18.066406l2.679687 10.265625zm-5.699219 3.726562c-1.246094-1.789062-2.433594-3.078124-3.589844-4.332031-1.132812-1.230469-2.21875-2.414062-3.347656-4.054687 5.359375-5.113282 11.21875-9.578125 17.035156-13.558594-4.046875 6.945312-7.421875 14.3125-10.097656 21.945312zm-6.558594-1.59375c1.445313 1.5625 2.804688 3.039063 4.277344 5.5.183594.308594.445312.546876.753906.71875-1.527344 4.9375-2.773437 9.964844-3.714844 15.050782l-12.363281-15.824219c2.351563-3.335937 4.964844-6.449219 7.761719-9.355469 1.132812 1.574219 2.222656 2.757813 3.285156 3.910156zm.128906 26.316407c.09375.117187.199219.21875.308594.3125-.804687 5.597656-1.261718 11.25-1.34375 16.894531l-19.269531-19.371094c1.410156-4.902344 3.597656-10.011718 6.773437-15.15625zm-.984374 22.984375c.191406 6.375.855468 12.722656 2.007812 18.964844l-22.109375-18.910157c-1.457031-5.625-1.871094-12.746093-.332031-20.59375zm-12.792969 15.507812-4.015625-7.320312 17.574218 15.03125c-1.441406 1.320312-2.882812 2.519531-4.445312 3.417968-1.929688 1.109376-4 1.765626-6.179688 2.109376.777344-3.042969.320313-7.304688-2.933593-13.238282zm-14.304688 19.332032c1.992188.296874 3.996094.59375 6.003907.832031.1875.03125.375.046875.5625.066406 6.972656.78125 13.949218.71875 20.375-2.972656 2.992187-1.71875 5.398437-4.011719 7.726562-6.230469 2.40625-2.292969 4.679688-4.460938 7.324219-5.703125 7.085937-3.332031 15.605469.429687 20.054687 2.96875 11.480469 6.554687 20.597656 17.460937 25.011719 29.921875 4.386719 12.378906 4.195313 26.484375-.507813 38.746094l-98.699218 40.875c-.085938-.054688-.164063-.117188-.257813-.164063-14.894531-7.304687-26.703125-18.507812-33.25-31.546875-7.21875-14.371094-7.882812-30.90625-1.777343-44.234375 6.410156-13.996093 20.902343-23.785156 35.242187-23.800781h.039063c3.894531 0 7.90625.601562 12.152343 1.242188zm60.773438 104.480468s1.285156-29.054687 1.285156-29.054687c.03125-.738281 10.097656-4.074219 11.339844-4.621094 1.546875-.683594 3.097656-1.359375 4.660156-2.007813 4.085937-1.6875 8.167969-3.378906 12.25-5.070312 9.40625-3.894531 18.8125-7.789062 28.214844-11.683594 3.886719-.972656 7.546875-2.664062 11.175781-4.324218.960938-.4375 8.828125-3.132813 8.90625-3.992188 0 0-2.371094 26.691406-2.371094 26.691406-.285156 3.210938-.609375 6.847656-2.207031 9.675782-2.109375 3.730468-6.378906 6.054687-10.570313 8.113281-17.585937 8.640625-36.03125 15.835937-54.820312 21.382812-3.640625 1.074219-5.941406.996094-7.023438-.242187-.925781-1.050782-.921874-2.980469-.839843-4.867188zm28.089843-124.769531c.011719.320313.085938.625.175782.917969-4.011719 3.558594-8.097656 7.035156-12.253906 10.433594-3.433594-3.160157-7.207032-5.9375-11.238282-8.238282-.960937-.546875-2.085937-1.140625-3.324218-1.71875 4.128906-5.988281 6.585937-13.613281 7.121093-22.074218l18.339844-5.792969zm-20.976562-39.109375c5.328125 1.878906 10.5625 4.160156 15.695312 6.515625l-14.265624 4.507813c-.226563-3.726563-.742188-7.398438-1.429688-11.023438zm18.996094.253906c-6.546875-3.015625-13.285156-5.933594-20.304688-8.148437-.148437-.042969-.296875-.0625-.445312-.089844-.578125-2.359375-1.1875-4.699219-1.792969-7.019531l-10.222656-39.191406c-.285157-1.089844-1.074219-1.980469-2.121094-2.394532-1.046875-.414062-2.230469-.304687-3.183594.296875-3.03125 1.910157-6.144531 3.941407-9.265625 6.105469-.039062-.019531-.070312-.046875-.109375-.066406l-9.746093-76.9375 43.566406-37.625zm-214.386719-142.761718c1.984375-1.953126 5.25-2.695313 8.996094-3.402344l53.515625-10.105469c3.046875-.578125 6.585937-1.160156 9.960937-.773437 2.121094.242187 2.375.273437 3.011719 2.210937-25.304688 5.21875-50.480469 11.066406-75.476562 17.535156-.1875-.207031-.394532-.402343-.636719-.566406-.375-.253906-.597657-.714844-.65625-1.367187-.113281-1.222657.414062-2.679688 1.285156-3.53125zm-87.675781 43.28125c2.890625-5.535157 9.894531-8.109376 16.820312-10.269532 85.664063-26.746094 174.160156-46.03125 263.226563-57.414062l-42.453125 36.660156c-.230469.195312-.417969.425781-.582032.660156-79.375 14.601563-158.574218 34.304688-235.539062 58.59375l-1.996094-11.597656c-1.105468-6.4375-1.828125-12.128906.523438-16.632812zm-15.351563 163.054687c-2.285156-4.859375-3.605469-10.300781-4.871093-15.914063-6.574219-29.246093-11.152344-59.222656-13.609376-89.09375-.648437-7.878906-1.078124-15.535156.710938-22.617187 3.210938-12.722656 12.972656-22.394531 24.6875-31.355469-.570312 4.898438.265625 9.808594.945312 13.753906l30.457032 177.191407c-16.496094-8.347657-31.464844-17.375-38.320313-31.964844zm40.089844.515625-22.058594-128.3125c76.984375-24.339844 156.226563-44.078125 235.640625-58.683594l9.789063 77.273438c-8.636719 6.625-16.9375 14.488281-23.28125 24.164062-7.496094 11.429688-10.550781 22.886719-10.945313 32.828125l-9.628906-17.558593c-.316406-.574219-.738281-1.597657-1.1875-2.679688-2.085938-5.042969-5.972656-14.429688-13.988281-11.359375-1.996094.765625-3.394531 2.132813-4.519531 3.230469l-7.976563 7.78125c-.859375.839844-2.035156 1.988281-2.683594 3.667968-.089843.230469-.164062.464844-.230469.699219v.011719c-.511718 1.882812-.257812 4 .710938 5.960938.09375.191406.210938.371093.3125.558593-34.742188-18.125-74.78125-27.125-114.335938-25.496093-2.789062.117187-5.976562.429687-8.464843 2.695312-4.527344 4.121094-2.738281 10.925781-2.0625 13.484375 5.109375 19.425781 10.089843 38.585937 14.945312 57.316406zm94.140625 44.632812c-.734375-2.492187-1.464844-4.984374-2.175781-7.464843-4.539063-15.902344-8.207031-32.351563-11.75-48.257813l-15.367188-68.949218c5.621094.535156 11.234375 1.289062 16.824219 2.25 12.785156 61.917968 27.953125 124.121093 45.109375 184.988281-8.707031-1.839844-16.890625-6.847657-24.21875-11.335938l-.070313-.042969c1.574219-17.425781-3.460937-34.582031-8.351562-51.1875zm-42.746094-43.390624c-6.273437-24.21875-12.757812-49.265626-19.46875-74.773438-.910156-3.464844-.914062-5.636719-.015625-6.457031.738281-.671875 2.449219-.796875 4-.859375 3.464844-.144532 6.945313-.1875 10.4375-.15625 1.804688 15.675781 3.6875 31.78125 6.082031 47.601562 5.90625 39.03125 15.125 77.804688 27.402344 115.34375l-8.902344-5.457031c-.019531-.195313-.042968-.390625-.09375-.589844-6.699218-25.464843-13.175781-50.46875-19.441406-74.652343zm10.898438 69.953124-31.742188-19.445312-6.125-3.753906c-4.140625-2.542969-8.28125-5.085938-12.433594-7.613282l-1.039062-.640624c-.027344-.015626-.054688-.03125-.085938-.050782l40.1875-11.585937c3.675782 14.15625 7.421876 28.539062 11.238282 43.089843zm-5.871094-105.199218c-2.355469-15.570313-4.21875-31.453125-6-46.921875.847656.023437 1.695312.050781 2.546875.085937 4.558594 16.863282 7.425781 34.402344 10.179687 51.40625 2.828126 17.445313 5.753907 35.484375 10.523438 52.84375 1.820312 6.613282 3.941406 13.273438 5.996094 19.710938 4.699218 14.738281 9.539062 29.945312 10.941406 45.421875l-5.449219-3.335938c-12.957031-38.734375-22.628906-78.835937-28.738281-119.210937zm27.09375 75.894531c-2.039062-6.398437-4.152344-13.015625-5.945312-19.550781-4.714844-17.152344-7.621094-35.082032-10.433594-52.421875-2.703125-16.683594-5.515625-33.878907-9.925782-50.546875 1.136719.070312 2.277344.144531 3.414063.230468l15.644531 70.191407c3.558594 15.960937 7.238282 32.46875 11.8125 48.484375.710938 2.492187 1.445313 4.992187 2.183594 7.496094 4.59375 15.589843 9.328125 31.675781 8.371094 47.6875l-3.78125-2.316407c-1.054688-16.957031-6.277344-33.371093-11.339844-49.253906zm-41.695312-49.433594c.914062 3.53125 1.828124 7.054688 2.734374 10.554688 1.5625 6.035156 3.136719 12.117187 4.726563 18.25l-43.472656 12.535156-4.59375-26.722656zm55.25 182.164063-77.039063-44.28125-12.164063-66.074219c-.386718-2.113281-.96875-4.355469-1.585937-6.726563-1.203125-4.636718-2.445313-9.425781-2.179687-13.082031.011718-.183593.027343-.347656.046874-.496093.929688.460937 2.167969 1.226562 3.089844 1.796874l1.078125.664063c4.144531 2.523437 8.277344 5.058594 12.410157 7.597656l78.140624 47.871094c9.070313 5.554687 19.347657 11.851563 31.152344 12.945313.089844.007812.175782.011718.265625.019531l.636719 72.972656c-12.179688-.769531-23.667969-7.355469-33.851562-13.207031zm-7.886719-250.992188c25.050781 5.171875 49.277343 14.53125 70.339843 27.492188.101563.066406.214844.105468.320313.15625l24.652344 35.1875c.15625.226562.324219.460937.488281.691406-2.242188-.257812-4.496094-.425781-6.746094-.414062-17.273437.019531-34.015625 11.242187-41.65625 27.925781-6.988281 15.261719-6.285156 34.082031 1.882813 50.351562 6.46875 12.882813 17.507812 24.089844 31.398437 32.027344l-7.71875 3.199219c-8.59375 3.558594-18.203125 7.523437-27.816406 7.675781-17.152344-60.613281-32.328125-122.582031-45.144531-184.292969zm316.601562 157.140625-243.210937 99.304688c-7.554688 3.082031-15.929688 6.5-24.398438 7.53125l.035156-.382813c.046876-.566406-.039062-1.113281-.234374-1.605468l-.621094-70.757813c9.832031-.777344 19.113281-4.613281 27.496094-8.082031l83.53125-34.59375-1.203126 27.171875c-.089843 2-.238281 5.351562 1.835938 7.710937 1.601562 1.828125 3.816406 2.363282 5.898438 2.363282 2.226562 0 4.300781-.613282 5.308593-.910157 19.007813-5.613281 37.664063-12.890625 55.457031-21.632812 4.757813-2.335938 9.625-5.015625 12.300782-9.746094 2.03125-3.589844 2.394531-7.691406 2.71875-11.308594l2.558594-28.792969 13.691406-5.671874c.109375.019531.222656.050781.335937.050781.636719 0 1.261719-.300781 1.65625-.859375.003907-.007813.007813-.015625.011719-.023438l87.335938-36.164062zm0 0"/></svg>