<svg height="512pt" viewBox="0 -1 512.00012 512" width="512pt" xmlns="http://www.w3.org/2000/svg"><path d="m232.433594 260.035156-38.207032-62.859375c-4.015624-6.601562-9.011718-14.820312-16.929687-19.183593-8.292969-4.5625-18.339844-4.15625-26.414063-3.824219-8.113281.332031-16.410156.546875-24.433593.757812-16.070313.414063-32.691407.847657-48.910157 2.234375-8.582031.734375-12.488281 9.765625-15.621093 17.023438-.84375 1.953125-1.640625 3.796875-2.464844 5.359375l-36.902344 70.054687c-.34375.652344-.308593 1.441406.101563 2.058594l44.761718 67.695312c3.414063 5.160157 7.660157 11.585938 14.171876 14.855469 4.769531 2.394531 10.214843 2.8125 15.136718 2.8125 1.386719 0 2.730469-.03125 4.007813-.0625l80.9375-2c.730469-.019531 1.394531-.425781 1.738281-1.070312l49.082031-91.847657c.339844-.628906.316407-1.394531-.054687-2.003906zm-52.046875 90.898438-79.753907 1.972656c-5.640624.136719-12.023437.296875-17.226562-2.320312-5.550781-2.785157-9.304688-8.460938-12.617188-13.46875l-44.097656-66.695313 36.347656-68.992187c.894532-1.699219 1.722657-3.613282 2.597657-5.640626 2.847656-6.59375 6.074219-14.066406 12.246093-14.59375 16.101563-1.375 32.660157-1.804687 48.671876-2.222656 8.039062-.207031 16.351562-.425781 24.496093-.757812 7.566407-.308594 16.992188-.695313 24.292969 3.324218 6.972656 3.84375 11.460938 11.226563 15.421875 17.742188l37.605469 61.867188zm0 0"/><path d="m423.164062 356.878906-38.207031-62.855468c-4.011719-6.605469-9.007812-14.824219-16.929687-19.183594-8.289063-4.566406-18.335938-4.15625-26.414063-3.824219-8.113281.328125-16.40625.546875-24.433593.753906-16.070313.417969-32.691407.847657-48.910157 2.234375-8.582031.734375-12.484375 9.765625-15.621093 17.019532-.84375 1.953124-1.640626 3.800781-2.464844 5.363281l-36.902344 70.054687c-.34375.652344-.308594 1.445313.101562 2.058594l44.761719 67.695312c3.410157 5.160157 7.65625 11.582032 14.175781 14.859376 4.765626 2.390624 10.207032 2.808593 15.125 2.808593 1.390626 0 2.738282-.03125 4.019532-.0625l80.933594-2c.730468-.019531 1.394531-.425781 1.738281-1.070312l49.085937-91.84375c.335938-.632813.316406-1.394531-.058594-2.007813zm-52.042968 90.902344-79.757813 1.96875c-5.628906.136719-12.019531.296875-17.226562-2.316406-5.550781-2.789063-9.304688-8.464844-12.613281-13.472656l-44.097657-66.691407 36.34375-68.992187c.894531-1.703125 1.722657-3.617188 2.601563-5.648438 2.847656-6.589844 6.074218-14.058594 12.242187-14.585937 16.101563-1.378907 32.660157-1.808594 48.671875-2.222657 8.039063-.210937 16.351563-.425781 24.496094-.757812 7.566406-.308594 16.992188-.695312 24.292969 3.324219 6.972656 3.839843 11.460937 11.226562 15.421875 17.738281l37.605468 61.867188zm0 0"/><path d="m248.109375 224.027344c3.410156 5.160156 7.660156 11.585937 14.175781 14.855468 4.765625 2.394532 10.214844 2.8125 15.136719 2.8125 1.386719 0 2.730469-.035156 4.007813-.066406l80.9375-2c.726562-.015625 1.390624-.425781 1.734374-1.070312l49.085938-91.84375c.335938-.632813.316406-1.394532-.054688-2.007813l-38.207031-62.855469c-4.015625-6.605468-9.011719-14.824218-16.929687-19.183593-8.292969-4.566407-18.339844-4.15625-26.414063-3.824219-8.113281.328125-16.414062.546875-24.441406.753906-16.070313.417969-32.683594.851563-48.902344 2.234375-8.585937.734375-12.488281 9.765625-15.621093 17.023438-.84375 1.953125-1.640626 3.796875-2.464844 5.359375l-36.90625 70.054687c-.34375.652344-.304688 1.441407.105468 2.058594zm-4.375-137.921875c.894531-1.703125 1.722656-3.617188 2.597656-5.644531 2.851563-6.589844 6.078125-14.0625 12.25-14.589844 16.09375-1.375 32.652344-1.804688 48.664063-2.21875 8.039062-.210938 16.355468-.425782 24.5-.761719 7.566406-.308594 16.992187-.695313 24.292968 3.324219 6.972657 3.84375 11.460938 11.226562 15.421876 17.742187l37.605468 61.867188-47.984375 89.785156-79.753906 1.96875c-5.640625.140625-12.023437.296875-17.226563-2.316406-5.550781-2.785157-9.304687-8.464844-12.617187-13.472657l-44.097656-66.691406zm0 0"/><path d="m387.265625 467.410156 56.15625-105.078125 47.234375-2.035156c1.957031-.085937 3.472656-1.738281 3.390625-3.695313-.085937-1.957031-1.75-3.472656-3.695313-3.390624l-45.113281 1.949218-45.882812-75.488281c-4.894531-8.046875-10.980469-18.0625-20.757813-23.445313-.492187-.269531-.988281-.515624-1.488281-.753906l56.054687-104.890625c.132813.015625.265626.039063.40625.039063.0625 0 .128907 0 .195313-.003906l45.074219-2.476563c1.953125-.109375 3.453125-1.78125 3.34375-3.734375-.105469-1.953125-1.785156-3.441406-3.734375-3.347656l-43.015625 2.367187c-.058594-.136719-.128906-.269531-.207032-.398437l-45.90625-75.523438c-4.148437-6.820312-9.164062-15.050781-16.550781-20.679687l28.65625-36.058594c1.21875-1.53125.964844-3.761719-.570312-4.980469-1.527344-1.21875-3.761719-.960937-4.980469.570313l-29.199219 36.742187c-9.824219-4.613281-21.1875-4.152344-30.429687-3.773437-9.734375.398437-19.695313.65625-29.328125.90625-19.332031.503906-39.324219 1.023437-58.847657 2.691406-1.929687.164063-3.664062.652344-5.242187 1.382813l-32.757813-30.988282c-1.421874-1.34375-3.667968-1.28125-5.011718.140625-1.347656 1.421875-1.285156 3.664063.140625 5.011719l31.886719 30.164062c-3.894532 4.265626-6.464844 10.203126-8.710938 15.40625-1.007812 2.328126-1.957031 4.527344-2.925781 6.367188l-44.34375 84.171875c-.308594.585937-.4375 1.238281-.398438 1.878906-8.460937-2.476562-17.53125-2.121093-25.15625-1.804687-9.742187.398437-19.710937.65625-29.351562.90625-19.324219.503906-39.308594 1.023437-58.824219 2.6875-1.253906.109375-2.421875.355468-3.523438.710937l-28.609374-31.730469c-1.3125-1.453124-3.554688-1.570312-5.007813-.257812s-1.570313 3.554688-.257813 5.007812l27.683594 30.699219c-4.621094 4.292969-7.496094 10.9375-9.984375 16.6875-1.003906 2.328125-1.953125 4.527344-2.921875 6.367188l-44.34375 84.171875c-.605468 1.144531-.535156 2.527344.175782 3.609375l53.785156 81.339843c3.714844 5.625 8.253906 12.464844 14.921875 16.765626l-35.273438 43.4375c-1.234375 1.515624-1.003906 3.75.519531 4.984374.65625.535157 1.445313.792969 2.230469.792969 1.03125 0 2.054688-.449219 2.753907-1.3125l36.175781-44.550781c.066406-.078125.113281-.171875.171875-.257812 4.824218 1.546874 9.921875 1.867187 14.617187 1.867187 1.683594 0 3.320313-.042969 4.871094-.078125l97.25-2.402344c.367187-.011718.71875-.082031 1.054687-.195312l51.4375 77.789062c3.398438 5.144532 7.480469 11.3125 13.253907 15.621094l-26.722657 36.039062c-1.167968 1.574219-.839843 3.792969.734376 4.960938.636718.472656 1.375.699219 2.109374.699219 1.082032 0 2.15625-.496094 2.851563-1.433594l26.921875-36.304687c.109375-.148438.195312-.308594.277344-.464844 5.421875 2.195312 11.324218 2.613281 16.703125 2.613281 1.679687 0 3.3125-.042969 4.859375-.078125l94.644531-2.339844c.082031.09375.15625.195313.25.28125l30.527344 27.703125c.679687.617188 1.53125.921875 2.382812.921875.960938 0 1.925781-.394531 2.625-1.164062 1.316407-1.449219 1.207031-3.691406-.242187-5.007813zm-155.546875-393.703125c1.097656-2.082031 2.101562-4.398437 3.160156-6.855469 3.460938-8.007812 7.039063-16.289062 13.792969-16.867187 19.316406-1.648437 39.199219-2.167969 58.425781-2.667969 9.660156-.25 19.648438-.507812 29.433594-.910156 9.429688-.382812 20.109375-.820312 28.609375 3.859375 8.121094 4.472656 13.433594 13.210937 18.117187 20.921875l44.859376 73.796875-57.050782 106.75-6.292968.15625c-6.402344-.882813-12.84375-.625-18.492188-.398437-9.738281.398437-19.699219.660156-29.328125.910156-15.132813.390625-30.664063.804687-46.0625 1.761718-5.238281-.015624-10.644531-.464843-15.183594-2.746093-6.40625-3.214844-10.828125-9.902344-14.730469-15.804688l-3.375-5.101562-28.980468-47.683594c-4.019532-6.613281-8.855469-14.546875-15.871094-20.15625l-4.394531-6.648437zm-136.535156 295.703125c-6.636719.167969-14.164063.351563-20.171875-2.664062-6.40625-3.21875-10.828125-9.90625-14.726563-15.804688l-52.625-79.589844 43.363282-82.320312c1.097656-2.078125 2.101562-4.398438 3.160156-6.855469 3.460937-8.007812 7.039062-16.289062 13.789062-16.867187 19.3125-1.648438 39.1875-2.164063 58.410156-2.664063 9.664063-.25 19.660157-.511719 29.453126-.914062 9.429687-.382813 20.109374-.820313 28.609374 3.859375 1.054688.582031 2.0625 1.238281 3.027344 1.953125l44.144532 66.765625 15.804687 26-.210937.390625c-3.945313 4.269531-6.539063 10.261719-8.804688 15.507812-1.007812 2.328125-1.953125 4.527344-2.925781 6.367188l-2.738281 5.203125-42.371094 79.28125zm190.730468 96.847656c-6.640624.160157-14.164062.347657-20.171874-2.667968-6.40625-3.21875-10.828126-9.90625-14.726563-15.804688l-52.625-79.589844 40.585937-77.046874 14.015626-26.21875c1.636718-1.5625 3.503906-2.585938 5.714843-2.777344 4.117188-.351563 8.261719-.640625 12.417969-.902344h.058594c1.6875 0 3.320312-.039062 4.871094-.078125l88.359374-2.183594c3.785157.578125 7.441407 1.617188 10.761719 3.445313 8.121094 4.472656 13.429688 13.210937 18.117188 20.921875l44.859375 73.796875-57.050782 106.753906zm0 0"/><path d="m97.609375 441.648438c.128906-9.347657.265625-19.015626-3.03125-28.191407-.664063-1.839843-2.691406-2.796875-4.535156-2.136719-1.84375.664063-2.800781 2.691407-2.136719 4.535157 2.347656 6.542969 2.6875 13.523437 2.660156 20.859375l-27.109375-.296875-1.246093-18.816407c-.132813-1.953124-1.847657-3.433593-3.773438-3.304687-1.953125.132813-3.429688 1.820313-3.300781 3.773437l3.136719 47.304688c.125 1.875 1.683593 3.3125 3.535156 3.3125.078125 0 .15625-.003906.238281-.007812 1.953125-.132813 3.429687-1.820313 3.300781-3.773438l-1.417968-21.390625 26.558593.289063c-.085937 7.332031-.007812 14.84375 1.859375 22.152343.410156 1.601563 1.851563 2.667969 3.429688 2.667969.292968 0 .585937-.035156.882812-.109375 1.894532-.484375 3.039063-2.414063 2.554688-4.3125-1.820313-7.148437-1.714844-14.632813-1.605469-22.554687zm0 0"/><path d="m50.027344 129.996094c.3125 0 .632812-.042969.953125-.132813 1.886719-.523437 2.988281-2.476562 2.464843-4.363281-1.238281-4.464844-2.304687-8.980469-3.203124-13.535156l25.960937-4.253906 2.984375 17.46875c.292969 1.730468 1.792969 2.949218 3.488281 2.949218.199219 0 .402344-.015625.601563-.050781 1.929687-.328125 3.226562-2.160156 2.898437-4.089844l-7.761719-45.445312c-.328124-1.925781-2.15625-3.222657-4.089843-2.894531-1.929688.328124-3.226563 2.160156-2.898438 4.089843l3.582031 20.984375-25.996093 4.261719c-.890625-5.636719-1.535157-11.316406-1.894531-17.003906-.125-1.953125-1.8125-3.441407-3.765626-3.3125-1.953124.125-3.433593 1.808593-3.3125 3.765625.835938 13.152344 3.050782 26.265625 6.574219 38.964844.4375 1.566406 1.863281 2.597656 3.414063 2.597656zm0 0"/><path d="m168.894531 59.8125c1.617188.394531 3.257813.582031 4.890625.582031 9.671875 0 19.054688-6.605469 21.5-15.953125 1.757813-6.699218.058594-14.453125-4.53125-20.738281-7.609375-10.410156-16.648437-13.992187-24.789062-9.824219-8.378906 4.292969-14.027344 12.300782-14.730469 20.898438-.917969 11.199218 7.003906 22.429687 17.660156 25.035156zm-10.59375-24.457031c.507813-6.167969 4.683594-11.980469 10.898438-15.164063 1.027343-.527344 2.246093-.898437 3.644531-.898437 3.207031 0 7.34375 1.972656 12.1875 8.597656 3.347656 4.578125 4.617188 10.09375 3.398438 14.757813-1.882813 7.199218-10.394532 12.097656-17.851563 10.277343-7.414063-1.8125-12.921875-9.695312-12.277344-17.570312zm0 0"/><path d="m431.367188 55.28125c1.261718 0 2.535156-.089844 3.796874-.277344 9.691407-1.4375 17.964844-8.261718 21.601563-17.808594 3.546875-9.320312 2.003906-19.273437-4.136719-26.625-4.550781-5.445312-10.953125-8.199218-18.035156-7.789062-8.753906.527344-17.679688 5.90625-22.75 13.710938-6.566406 10.113281-5.75 23.714843 1.902344 31.640624 4.402344 4.5625 10.910156 7.148438 17.621094 7.148438zm-13.574219-34.925781c3.824219-5.890625 10.746093-10.105469 17.226562-10.496094.316407-.019531.644531-.03125.980469-.03125 3.292969 0 7.617188 1.011719 11.1875 5.289063 4.472656 5.355468 5.578125 12.667968 2.953125 19.554687-2.722656 7.152344-8.859375 12.257813-16.015625 13.320313-5.753906.855468-11.609375-.980469-15.277344-4.78125-6.171875-6.398438-5.148437-16.550782-1.054687-22.855469zm0 0"/><path d="m476 166.292969c-4.023438.273437-8.007812 1.867187-12.539062 5.011719-6.917969 4.800781-11.679688 10.765624-13.773438 17.242187-2.617188 8.109375-.636719 17.09375 4.925781 22.355469 3.742188 3.535156 8.972657 5.4375 14.597657 5.4375 1.664062 0 3.363281-.164063 5.0625-.503906 5.574218-1.113282 11.007812-3.863282 17.101562-8.667969 1.535156-1.210938 1.800781-3.4375.589844-4.976563-1.214844-1.539062-3.441406-1.800781-4.980469-.589844-5.179687 4.082032-9.65625 6.398438-14.097656 7.28125-5.140625 1.027344-10.273438-.175781-13.402344-3.132812-3.617187-3.421875-4.84375-9.460938-3.046875-15.023438 2.035156-6.300781 7.140625-10.871093 11.066406-13.597656 3.433594-2.382812 6.289063-3.578125 8.980469-3.761718 2.863281-.199219 5.613281 1.042968 6.699219 3.003906.953125 1.714844 3.109375 2.332031 4.820312 1.382812 1.714844-.949218 2.332032-3.105468 1.382813-4.820312-2.449219-4.417969-7.710938-7.019532-13.386719-6.640625zm0 0"/><path d="m496.746094 410.0625c-1.519532-1.234375-3.753906-1-4.984375.519531-2.769531 3.417969-7.511719 5.292969-12.078125 4.761719-4.464844-.511719-8.816406-3.304688-11.355469-7.289062-3.851563-6.046876-3.25-14.722657 1.394531-20.179688 4.644532-5.460938 13.113282-7.4375 19.699219-4.597656 1.796875.777344 3.882813-.054688 4.65625-1.851563.777344-1.796875-.054687-3.882812-1.851563-4.660156-9.480468-4.085937-21.214843-1.34375-27.902343 6.511719-6.691407 7.859375-7.519531 19.878906-1.972657 28.585937 3.710938 5.828125 9.890626 9.761719 16.523438 10.523438.796875.09375 1.59375.136719 2.386719.136719 6.199219 0 12.175781-2.746094 16.007812-7.476563 1.234375-1.519531.996094-3.753906-.523437-4.984375zm0 0"/><path d="m200.289062 467.761719c4.570313-1.742188 9.871094-1.410157 14.183594.894531 1.726563.921875 3.871094.273438 4.796875-1.453125.921875-1.726563.269531-3.875-1.457031-4.796875-6.097656-3.257812-13.59375-3.734375-20.050781-1.265625-6.460938 2.464844-11.730469 7.816406-14.105469 14.308594-1.757812 4.804687-1.816406 9.828125-.171875 14.136719 2.320313 6.078124 8.15625 10.769531 15.230469 12.238281 1.695312.355469 3.460937.527343 5.28125.527343 4.207031 0 8.699218-.9375 13.234375-2.785156 1.816406-.738281 2.6875-2.804687 1.949219-4.617187-.738282-1.8125-2.808594-2.6875-4.621094-1.949219-5.1875 2.113281-10.164063 2.765625-14.398438 1.882812-4.664062-.96875-8.605468-4.039062-10.050781-7.824218-1.019531-2.675782-.945313-6.023438.207031-9.175782 1.679688-4.59375 5.40625-8.375 9.972656-10.121093zm0 0"/><path d="m464.871094 441.042969c-1.949219-.15625-3.664063 1.296875-3.820313 3.246093l-1.757812 21.738282-24.785157.917968c.117188-6.191406.566407-12.378906 1.371094-18.539062.253906-1.941406-1.113281-3.71875-3.054687-3.976562-1.925781-.238282-3.71875 1.113281-3.976563 3.054687-2.148437 16.402344-1.945312 33.007813.605469 49.359375.273437 1.746094 1.78125 2.996094 3.5 2.996094.179687 0 .367187-.011719.550781-.042969 1.933594-.300781 3.257813-2.113281 2.957032-4.046875-1.125-7.199219-1.75-14.453125-1.921876-21.710938l24.175782-.898437-1.410156 17.453125c-.160157 1.953125 1.296874 3.660156 3.246093 3.820312.097657.007813.195313.011719.289063.011719 1.828125 0 3.382812-1.40625 3.53125-3.261719l3.746094-46.304687c.15625-1.949219-1.296876-3.660156-3.246094-3.816406zm0 0"/><path d="m186.1875 8.058594c.097656 0 .191406-.003906.289062-.019532l12.015626-1.714843c1.105468-.160157 1.875-1.183594 1.71875-2.292969s-1.191407-1.867188-2.292969-1.71875l-12.011719 1.714844c-1.109375.160156-1.878906 1.183594-1.71875 2.292968.144531 1.011719 1.011719 1.738282 2 1.738282zm0 0"/><path d="m458.417969 4.054688 14.875.570312c.027343.003906.050781.003906.078125.003906 1.082031 0 1.980468-.859375 2.023437-1.949218.042969-1.117188-.828125-2.058594-1.945312-2.101563l-14.875-.57421875c-1.105469-.08593745-2.058594.83203175-2.105469 1.94921875-.042969 1.117187.832031 2.058594 1.949219 2.101563zm0 0"/><path d="m83.246094 73.378906c.175781 0 .355468-.023437.53125-.070312l3.574218-.972656.652344 6.003906c.113282 1.039062.992188 1.808594 2.011719 1.808594.074219 0 .148437-.003907.222656-.011719 1.113281-.121094 1.914063-1.121094 1.792969-2.234375l-.722656-6.640625 5.589844-1.519531c1.082031-.292969 1.71875-1.40625 1.425781-2.488282-.292969-1.078125-1.40625-1.710937-2.488281-1.421875l-4.96875 1.351563-.574219-5.292969c-.121094-1.113281-1.128907-1.910156-2.234375-1.796875-1.113282.121094-1.914063 1.121094-1.792969 2.230469l.644531 5.9375-4.191406 1.136719c-1.082031.292968-1.71875 1.40625-1.425781 2.488281.246093.898437 1.0625 1.492187 1.953125 1.492187zm0 0"/><path d="m116.484375 404.15625-5.816406 1.222656-.945313-6.058594c-.171875-1.105468-1.210937-1.859374-2.3125-1.691406-1.105468.175782-1.863281 1.210938-1.691406 2.316406l.980469 6.265626-4.488281.945312c-1.09375.230469-1.796876 1.300781-1.566407 2.398438.199219.953124 1.042969 1.609374 1.980469 1.609374.136719 0 .277344-.015624.417969-.042968l4.28125-.898438.71875 4.59375c.152343 1 1.015625 1.710938 1.996093 1.710938.105469 0 .210938-.007813.316407-.023438 1.105469-.171875 1.859375-1.210937 1.6875-2.3125l-.75-4.804687 6.023437-1.265625c1.09375-.226563 1.796875-1.300782 1.566406-2.398438-.230468-1.09375-1.300781-1.796875-2.398437-1.566406zm0 0"/><path d="m234.847656 460.746094c1.117188-.015625 2.011719-.9375 1.996094-2.054688-.011719-1.117187-.921875-2.023437-2.050781-1.996094l-5.105469.070313-.042969-4.535156c-.007812-1.113281-.914062-2.007813-2.023437-2.007813-.007813 0-.015625 0-.019532 0-1.121093.011719-2.019531.929688-2.007812 2.046875l.042969 4.550781-2.285157.03125c-1.117187.015626-2.011718.933594-1.996093 2.050782.015625 1.109375.917969 2 2.023437 2h.03125l2.265625-.03125.066407 6.839844c.011718 1.113281.917968 2.007812 2.027343 2.007812h.019531c1.117188-.011719 2.015626-.925781 2.003907-2.042969l-.0625-6.859375zm0 0"/><path d="m491.191406 445.074219-4.671875-.203125 1.113281-6.046875c.203126-1.097657-.527343-2.15625-1.628906-2.359375-1.097656-.199219-2.15625.527344-2.355468 1.628906l-1.214844 6.597656-4.398438-.191406c-1.078125-.023438-2.0625.816406-2.113281 1.9375-.046875 1.117188.820313 2.0625 1.9375 2.113281l3.835937.164063-.785156 4.273437c-.203125 1.101563.527344 2.15625 1.625 2.359375.125.023438.25.03125.371094.03125.957031 0 1.808594-.679687 1.988281-1.65625l.886719-4.828125 5.234375.226563c.03125 0 .058594.003906.089844.003906 1.078125 0 1.972656-.851562 2.023437-1.9375.046875-1.121094-.820312-2.066406-1.9375-2.113281zm0 0"/><path d="m510.03125 373.273438-2.132812-.058594.203124-4.972656c.046876-1.121094-.820312-2.0625-1.9375-2.109376-1.148437-.042968-2.0625.824219-2.109374 1.941407l-.207032 5.03125-2.964844-.082031c-.019531 0-.039062 0-.054687 0-1.09375 0-1.996094.871093-2.023437 1.96875-.03125 1.117187.851562 2.046874 1.96875 2.078124l2.910156.082032-.191406 4.652344c-.042969 1.117187.824218 2.0625 1.941406 2.105468.03125.003906.058594.003906.085937.003906 1.078125 0 1.976563-.855468 2.023438-1.941406l.191406-4.710937 2.183594.058593c.019531.003907.039062.003907.058593.003907 1.09375 0 1.992188-.871094 2.023438-1.972657.03125-1.117187-.851562-2.050781-1.96875-2.078124zm0 0"/><path d="m500.070312 174.433594.804688-7.910156h5.675781c1.117188 0 2.023438-.90625 2.023438-2.027344 0-1.117188-.90625-2.023438-2.023438-2.023438h-5.265625l.527344-5.199218c.113281-1.113282-.699219-2.105469-1.8125-2.21875-1.117188-.121094-2.109375.695312-2.21875 1.8125l-.570312 5.601562h-5.535157c-1.121093 0-2.027343.90625-2.027343 2.027344 0 1.117187.90625 2.027344 2.027343 2.027344h5.125l-.761719 7.503906c-.113281 1.113281.699219 2.105468 1.8125 2.21875.070313.007812.136719.007812.207032.007812 1.027344.003906 1.90625-.773437 2.011718-1.820312zm0 0"/></svg>