<svg height="512pt" viewBox="-11 0 512 512.00186" width="512pt" xmlns="http://www.w3.org/2000/svg"><path d="m468.28125 83.824219c16.140625-4.050781 23.410156-15.742188 22.058594-24.6875-1.070313-7.050781-7.859375-14.28125-23.671875-13.40625-22.480469 1.238281-45.375 1.066406-67.699219.769531-.210938-.863281-.742188-1.652344-1.554688-2.164062-45.820312-28.636719-98.597656-43.96875-152.628906-44.3281255-54.015625-.3984375-107.011718 14.2617185-153.210937 42.2890625-.425781.257813-.773438.589844-1.042969.972656l-41.207031-.425781c-8.636719-.085938-18.417969-.1875-27.261719 3.265625-8.59375 3.363281-17.34375 11.675781-16.238281 21.984375.820312 7.683594 7.386719 14.75 16.726562 18.003906 7.535157 2.625 15.726563 2.730469 23.0625 2.730469h.957031l41.417969-.027344c.289063 10.917969.296875 21.414063.296875 31.570313 0 9.898437.007813 20.128906.277344 30.785156-11.265625.234375-22.585938 2.851562-33.394531 7.890625-25.136719 11.722656-42.726563 34.828125-47.046875 61.800781-2.648438 16.53125-.414063 33.535156 6.296875 47.878906 13.070312 27.945313 42.886719 46.761719 73.558593 47.5625l.851563 47.585938c-6.871094.914062-13.695313 2.902344-20.292969 5.980469-20.847656 9.722656-35.4375 28.886719-39.023437 51.265625-1.421875 8.867187-1.136719 17.898437.742187 26.394531l-22.4375 18.59375c-2.675781 2.21875-8.941406 7.414063-7.640625 14.355469.910157 4.847656 5.503907 8.59375 11.167969 9.109375.507812.046875 1.011719.070312 1.511719.070312 4.03125-.003906 7.8125-1.390625 10.65625-2.433593 7.78125-2.855469 15.460937-5.910157 23.054687-9.125 13.066406 13.792968 31.855469 22.238281 50.886719 22.238281 2.351563 0 4.714844-.128907 7.066406-.394531 28.351563-3.1875 53.3125-25.734376 59.359375-53.613282 2.621094-12.082031 1.585938-24.71875-2.410156-36.359375 5.671875-4.496093 11.261719-9.113281 16.757812-13.871093 2.585938-2.238282 6.128907-5.304688 7.964844-9.535157 2.269532-5.226562 1.136719-11.054687-2.757812-14.175781-3.0625-2.460938-7.019532-2.683594-10.117188-2.597656-11.441406.308594-22.566406 3.660156-32.25 9.6875-2.800781-2.425782-5.804687-4.621094-9.003906-6.535156-11.230469-6.71875-23.667969-9.9375-36.175781-9.609376l-.839844-47.160156c1.164063-.078125 2.332031-.175781 3.496094-.304687 13.992187-1.574219 25.496093-6.144531 36.871093-14.695313 1.449219 4.734375 3.195313 9.34375 5.261719 13.765625 13.824219 29.554688 41.082031 51.785157 72.097657 61.308594l.433593 24.941406c-4.523437.445313-9.03125 1.660157-13.371093 3.683594-12.359376 5.765625-21.011719 17.132813-23.136719 30.410156-1.304688 8.125-.199219 16.492188 3.105469 23.558594 6.574218 14.054687 21.753906 23.421875 37.195312 23.421875 1.398438 0 2.800781-.078125 4.195312-.234375 16.8125-1.890625 31.617188-15.265625 35.203126-31.800781 3.585937-16.535156-4.347657-34.839844-18.867188-43.523438-5.402344-3.234375-11.273438-5.085937-17.253906-5.574218l-.398438-22.949219c8.597656 2.0625 17.417969 3.164062 26.269532 3.164062 3.957031 0 7.933593-.214843 11.886718-.660156 8.304688-.933594 16.574219-2.882813 24.644532-5.792969.730468 11.074219 3.402343 21.84375 7.925781 31.511719 14.320312 30.617187 44.898437 50.910156 78.371093 52.246094.125 7.652343 1.78125 15.15625 4.890626 21.800781 8.859374 18.941406 29.316406 31.566406 50.128906 31.5625 1.878906 0 3.769531-.101562 5.648437-.3125 22.660157-2.546875 42.613281-20.570312 47.445313-42.855469 4.707031-21.707031-5.324219-45.675781-23.933594-57.71875 4.296875-7.652343 7.386719-15.71875 9.191406-24.035156 7.53125-34.730469-7.605468-72.941406-36.316406-93.644531v-64.105469c10.730469-5.53125 19.085938-15.769531 21.660156-27.640625 3.585938-16.535156-4.351562-34.839844-18.867187-43.527344-5.546875-3.316406-11.589844-5.179687-17.734375-5.609375l3.238281-63.976562c17.875-.03125 36.246094-.304688 53.953125-4.75zm-447.203125 396.75c-3.332031 1.222656-6.324219 2.210937-9.09375 1.960937-2.113281-.191406-4.511719-1.507812-4.859375-3.375-.480469-2.554687 2.734375-5.566406 5.199219-7.605468l20.035156-16.605469c.699219 2.011719 1.484375 3.980469 2.378906 5.886719 1.929688 4.128906 4.308594 8.007812 7.042969 11.613281-6.824219 2.855469-13.726562 5.566406-20.703125 8.125zm135.890625-35.757813c-5.421875 25.007813-27.8125 45.230469-53.238281 48.089844-18.324219 2.0625-37.109375-5.023438-50.234375-17.8125 36.402344-16.074219 70.554687-36.347656 102.058594-60.550781 2.953124 9.78125 3.589843 20.242187 1.414062 30.273437zm16.535156-67.972656c1.898438-.046875 4.234375.023438 5.503906 1.042969 1.503907 1.207031 1.535157 3.921875.699219 5.851562-1.105469 2.542969-3.421875 4.675781-6.109375 7.003907-4.886718 4.230468-9.859375 8.335937-14.890625 12.359374-3.136719-6.785156-7.304687-13.089843-12.378906-18.554687 8.25-4.785156 17.589844-7.445313 27.175781-7.703125zm-45.070312 2.152344c11.015625 6.589844 19.523437 16.839844 24.582031 28.578125-32.164063 24.945312-67.164063 45.695312-104.542969 61.988281-2.886718-3.59375-5.367187-7.515625-7.332031-11.71875-4.972656-10.632812-6.625-23.277344-4.648437-35.605469 3.214843-20.058593 16.308593-37.246093 35.03125-45.976562 18.6875-8.71875 39.433593-7.722657 56.910156 2.734375zm55.242187 57.390625c.585938-3.664063 1.789063-7.144531 3.496094-10.34375 1.121094 1.914062 2.609375 3.609375 4.414063 4.921875 3.855468 2.804687 8.917968 3.769531 13.542968 2.585937 2.492188-.644531 4.683594-1.832031 6.808594-2.984375.984375-.535156 1.910156-1.039062 2.863281-1.492187 2.304688-1.085938 5.597657-2.125 8.191407-.890625 1.449218.6875 2.648437 2.070312 3.804687 3.410156l4.058594 4.679688c.847656.980468 1.722656 1.992187 2.070312 3.058593.777344 2.390625-1.285156 5.136719-3.652343 5.996094-3.085938 1.121094-6.605469.066406-9.011719-1.019531-1.589844-.714844-3.105469-1.589844-4.707031-2.511719-1.550782-.894531-3.15625-1.816406-4.851563-2.597656-4.40625-2.027344-8.5625-2.480469-12.015625-1.3125-2.28125.769531-4.105469 2.164062-5.871094 3.511719-1.078125.824218-2.097656 1.601562-3.179687 2.207031-1.53125.859375-3.496094 1.144531-4.886719.710937-.714844-.222656-1.195312-.605468-1.472656-1.164062-.003906-.003906-.003906-.007813-.003906-.007813-.078126-2.242187.042968-4.507812.402343-6.757812zm49.53125 34.261719c-1.765625-1.574219-4.242187-2.601563-7.191406-2.929688-1.617187-.183594-3.210937-.167969-4.75-.152344-1.242187.011719-2.414063.023438-3.574219-.0625-1.925781-.144531-4.546875-.675781-6.066406-2.398437-.664062-.75-1.027344-1.851563-.957031-2.871094.035156-.5.195312-1.195313.75-1.667969 1.140625-.976562 2.894531-.707031 5.644531-.144531.933594.191406 1.898438.386719 2.859375.496094 4.703125.523437 8.957031-1.328125 13.070313-3.121094.875-.382813 1.75-.765625 2.621093-1.117187 2.292969-.929688 7.621094-2.667969 11.3125-.667969-2.996093 6.074219-7.867187 11.210937-13.71875 14.636719zm16.28125-21.929688c-.261719 1.203125-.617187 2.375-1.015625 3.535156-4.878906-2.421875-10.910156-.722656-14.375.683594-.90625.363281-1.808594.757812-2.71875 1.15625-3.792968 1.652344-7.375 3.210938-11.007812 2.808594-.78125-.085938-1.613282-.257813-2.5-.4375-2.828125-.578125-6.355469-1.296875-9.074219 1.027344-1.261719 1.082031-2.03125 2.664062-2.15625 4.457031-.148437 2.09375.582031 4.269531 1.953125 5.828125 1.917969 2.171875 4.960938 3.46875 8.800781 3.753906 1.328125.09375 2.640625.082031 3.910157.070312 1.484374-.011718 2.886718-.027343 4.261718.128907.914063.101562 2.265625.359375 3.507813.96875-2.765625 1.152343-5.675781 1.953125-8.671875 2.289062-13.902344 1.5625-28.273438-6.496093-34.195313-19.15625-1.109375-2.375-1.898437-4.9375-2.390625-7.59375 2.414063.65625 5.367188.25 7.792969-1.109375 1.332031-.746094 2.515625-1.648437 3.660156-2.523437 1.570313-1.203125 3.058594-2.335938 4.710938-2.894531 3.105469-1.050782 6.625.050781 9.035156 1.15625 1.527344.703124 2.980469 1.539062 4.523437 2.425781 1.617188.933593 3.289063 1.898437 5.0625 2.695312 2.734376 1.234375 5.367188 1.855469 7.792969 1.855469 1.507813 0 2.9375-.242188 4.261719-.722656 4.1875-1.523438 7.644531-6.320313 6.113281-11.042969-.601562-1.84375-1.855469-3.289063-2.859375-4.453125l-4.058594-4.679688c-1.296874-1.5-2.910156-3.359374-5.125-4.414062-3.183593-1.511719-7.210937-1.207031-11.648437.890625-1.058594.496094-2.078125 1.054687-3.066406 1.589844-1.996094 1.082031-3.882813 2.105469-5.890625 2.621093-3.414063.878907-7.308594.136719-10.160156-1.9375-1.925782-1.402343-3.402344-3.445312-4.238282-5.703124 3.328125-4.53125 7.796875-8.253907 13.101563-10.726563 4.609375-2.152344 9.445312-3.21875 14.246093-3.21875 3.386719 0 6.753907.550781 10.007813 1.609375-.636719.804688-1.128906 1.714844-1.402344 2.710938-.804687 2.972656.34375 6.355468 2.789063 8.222656 1.496094 1.140625 3.4375 1.738281 5.542968 1.738281.761719 0 1.550782-.078125 2.34375-.238281 2.101563-.429688 4.019532-1.34375 5.753907-2.242188 6.554687 7.894532 9.574219 18.777344 7.382812 28.871094zm-10.289062-31.9375c-1.199219.585938-2.417969 1.101562-3.652344 1.351562-1.828125.371094-3.515625.097657-4.628906-.75-1.160157-.886718-1.722657-2.550781-1.339844-3.957031.230469-.859375.820313-1.625 1.574219-2.128906.929687.445313 1.847656.921875 2.746094 1.457031 1.917968 1.148438 3.675781 2.515625 5.300781 4.027344zm151.929687-260.453125c-1.429687.667969-2.804687 1.417969-4.132812 2.230469l.164062-69.964844 20.089844-.015625-3.246094 64.117187c-4.359375.488282-8.695312 1.683594-12.875 3.632813zm49.652344 43.859375c-.300781 1.378906-.714844 2.726562-1.199219 4.046875-8.820312 7.238281-20.066406 11.570313-31.464843 12-10.59375.390625-21.308594-2.578125-30.265626-8.257813-.113281-.226562-.246093-.445312-.351562-.671874-2.191406-4.6875-3.175781-10.097657-2.914062-15.558594 8.730468 8.320312 20.738281 13.296875 32.789062 13.296875h.074219c12.574219-.023438 25.097656-5.457031 33.890625-14.457031.28125 3.199218.128906 6.4375-.558594 9.601562zm9.925781 136.082031c-5.496093-.519531-11.234375 1.417969-15.074219 5.4375-4.171874 4.363281-5.800781 10.847657-4.511718 16.695313-1.675782-.550782-3.375-1.015625-5.089844-1.398438v-29.902344c6.261719-1.648437 12.925781-2.578124 19.480469-1.503906 1.96875 3.4375 3.699219 7.007813 5.195312 10.671875zm-24.675781 66.242188v-9.90625c1.734375.519531 3.535156.804687 5.347656.804687.289063 0 .578125-.007812.867188-.019531 6.078125-.300781 11.851562-3.773437 15.175781-8.839844 1.746094 2.332031 4.269531 4.058594 7.0625 4.878907-1.707031 6.28125-4.222656 12.398437-7.515625 18.257812-6.675781-3.179688-13.761719-4.914062-20.9375-5.175781zm-56.347656 46.175781c-.15625.960938-.273438 1.921875-.378906 2.886719-5.171876-.203125-10.265626-.890625-15.226563-2.035157 4.925781-4.378906 11.046875-7.421874 17.507813-8.726562-.816407 2.558594-1.472657 5.183594-1.902344 7.875zm3.496094-12.246094c-8.894532 1.253906-17.371094 5.492188-23.6875 11.886719-3.167969-.925781-6.273438-2.027344-9.300782-3.320313 2.601563-.894531 5.046875-2.480468 7.046875-4.644531 2.972657-3.214843 4.605469-7.324219 4.5625-11.3125 5.824219-.910156 12.609375-2.246093 17.90625-6.242187 4.699219-3.546875 7.984375-9.992188 6.945313-15.910156.082031-.035157.167968-.058594.246094-.105469 12.097656-7.382813 26-8.65625 39.5625-3.765625-5.277344.765625-10.519532 2.316406-15.589844 4.679687-12.703125 5.925781-22.480469 16.246094-27.691406 28.734375zm-74.699219-120.605468c-8.347657-7.300782-16.980469-14.851563-22.359375-24.632813-6.949219-12.632813-5.222656-24.066406-1.289063-30.554687 3.269531-5.394532 8.925781-9.289063 15.128907-10.429688 1.886718-.347656 3.886718-.488281 6-.636719 5.570312-.394531 11.328124-.804687 15.292968-5.144531 5.230469-5.726562 3.34375-14.902344-1.699218-19.882812-4.226563-4.175782-10.542969-6.480469-18.769532-6.851563-2.726562-.125-5.46875-.054687-8.117187.011719-3.703125.09375-7.203125.183594-10.710938-.199219-4.820312-.527344-10.820312-2.828125-11.863281-7.582031-1.21875-5.542969 4.925781-10.460938 7.628906-12.320313 15.566406-10.710937 36.375-13.664062 54.304688-7.710937l.046875.011718c8.433593 8.535157 15.480469 18.496094 20.839843 29.570313 5.3125 10.964844 8.691407 22.460937 10.078126 34.074219-.238282.046875-.472657.136718-.691407.28125-2.761719 1.796875-6.28125 2.191406-10.003906 2.613281-4.414063.5-8.984375 1.015625-12.652344 3.976563-4.34375 3.5-6.257812 9.980468-4.875 16.511718.882813 4.183594 2.875 7.96875 4.996094 11.417969-12.488281 6.917969-23.027344 16.488281-30.960937 27.847656-.09375-.132812-.199219-.257812-.324219-.371093zm37.082031-30.441407c-.746094.347657-1.484375.710938-2.21875 1.078125-2.03125-3.269531-3.84375-6.671875-4.625-10.367187-.8125-3.839844-.394531-9.425781 3.460938-12.535157 2.753906-2.21875 6.550781-2.648437 10.570312-3.101562 3.621094-.410156 7.351562-.84375 10.660156-2.613281.550782 7.15625.332032 14.339843-.648437 21.457031-5.8125 1.4375-11.570313 3.457031-17.199219 6.082031zm-15.214844 17.855469c3.042969 2.082031 5.0625 5.625 5.183594 9.328125.023438.742187.453125 1.410156 1.117188 1.742187.664062.332032 1.457031.273438 2.0625-.15625 5.351562-3.765624 10.671874-5.875 15.824218-6.265624 5.910156-.445313 11.523438 1.550781 15.007813 5.34375 3.695312 4.019531 4.609375 10.28125 2.128906 14.558593-.507813.875-.289063 1.988281.507813 2.609375.800781.621094 1.933593.554688 2.65625-.15625 1.984374-1.949218 4.839843-2.875 8.050781-2.597656 3.652343.316406 7.140625 2.210938 9.101562 4.949219 3.746094 5.226562 3.382813 13.355469-.867187 19.324219-3.777344 5.304687-10.242188 9.09375-18.210938 10.671874-8.585937 1.703126-19.207031-.015624-23.570312-7.699218-.132813-.234375-.261719-.472656-.394532-.714844-.816406-1.519531-1.835937-3.40625-3.890624-4.269531-3.078126-1.289063-6 .601562-8.136719 1.976562l-.375.246094c-6.496094 4.160156-15.152344 4.625-22.050781 1.179687-6.019532-3.003906-9.53125-5.78125-10.71875-11.484374 4.988281-15.105469 14.226562-28.464844 26.574218-38.585938zm-30.714844 69.394531c4.972657 3.691407 10.894532 5.8125 19.054688 6.972657 3.644531.515624 7.296875.714843 10.945312.714843 5.847657 0 11.671876-.507812 17.371094-1 6.730469-.585937 14.140625-1.023437 21.304688-1.449219 6.410156-.378906 13.007812-.769531 19.171875-1.265624-.101563 5.277343 3.367187 10.707031 8.632812 13.257812 4.65625 2.253906 10.535157 2.484375 16.550781.640625 4.503907-1.378906 8.558594-3.664063 12.453126-6.011719 1.050781 1.621094 2.359374 3.070313 3.84375 4.308594v10.828125c-14.753907-5.644531-30.46875-4.433594-43.683594 3.433594-.101563-.183594-.191406-.371094-.304688-.550781-1.761718-2.78125-4.542968-4.628907-7.007812-6.140626-5.121094-3.144531-11.277344-6.402343-18.105469-6.738281-5.917969-.289062-11.523437 2.019531-14.929687 5.878907-3.941407-8.089844-12.417969-13.796876-21.503907-14.058594-8.089843-.230469-15.972656 3.914062-20.707031 10.398437-1.757812-6.171875-2.789062-12.644531-3.085938-19.21875zm129.328126 10.316407c-.488282-.675782-.925782-1.386719-1.289063-2.140626-.25-.511718-.703125-.898437-1.246094-1.058593-.546875-.164063-1.136719-.085938-1.625.210937-4.230469 2.574219-8.609375 5.238282-13.320312 6.679688-5.039063 1.542968-9.871094 1.394531-13.605469-.414063-4.160156-2.011719-6.8125-6.363281-6.304688-10.335937.625-4.902344 5.421876-8.390625 9.335938-10.457032 8.609375-4.542968 18.449219-6.371093 28.054688-5.460937zm30.378906-3.410157c-.253906-.832031-1.007813-1.40625-1.878906-1.433593-.875-.039063-1.652344.507812-1.953126 1.324218-2.03125 5.546875-7.566406 9.621094-13.460937 9.914063-2.050781.101562-4.101563-.265625-6.015625-1v-27.203125c2.617188.636718 5.191406 1.476562 7.683594 2.542968.785156.335938 1.703125.136719 2.28125-.492187.578125-.632813.699218-1.558594.296875-2.316406-2.734375-5.136719-1.761719-12.183594 2.257812-16.390625 3.421875-3.578125 8.996094-5.035156 13.820313-3.851563 4.992187 14.351563 6.300781 29.964844 3.078125 44.882813-2.816407-.890625-5.257813-3.167969-6.109375-5.976563zm-30.378906-23.621093c-10.257813-.894532-20.746094 1.09375-29.941407 5.941406-5.542969 2.925781-9.195312 6.554687-10.730469 10.621094-6.4375.539062-13.433593.957031-20.21875 1.359374-7.191406.425782-14.628906.863282-21.414062 1.453126-9.03125.785156-18.367188 1.59375-27.398438.3125-7.617187-1.082032-13.96875-2.976563-19.71875-8.324219.0625-4.195313.429688-8.414063 1.101563-12.601563.347656-2.1875.792969-4.347656 1.3125-6.480468 2.296875 3.808593 5.980469 6.347656 10.730469 8.722656 8.148437 4.0625 18.367187 3.519531 26.035156-1.398438l.390625-.25c1.535156-.988281 3.269531-2.109375 4.378906-1.644531.742188.308594 1.304688 1.351563 1.898438 2.460937.148437.265626.289062.535157.4375.792969 4.1875 7.367188 12.726562 10.335938 21.039062 10.335938 2.328125 0 4.640625-.234375 6.832031-.667969 8.980469-1.78125 16.335938-6.148438 20.714844-12.292969 3.28125-4.609375 4.640625-10.3125 4.023438-15.546875 7.894531-1.152344 15.433594-3.933594 22.734375-6.648437 2.066406-.765625 4.132812-1.535157 6.203125-2.265625.523437-.1875 1.054687-.371094 1.589844-.550782zm-2.929688-29.929688c-2.09375.738281-4.183594 1.515625-6.269531 2.289062-7.199219 2.675782-14.628907 5.417969-22.214844 6.480469-.542969-1.621093-1.292969-3.148437-2.277344-4.519531-2.667969-3.722656-7.167969-6.199219-12.035156-6.621094-2.191406-.1875-4.316406.066406-6.25.71875.371094-2.90625-.070313-5.960937-1.246094-8.773437 1.808594.414062 3.71875.632812 5.703125.632812 1.648438 0 3.347656-.144531 5.070313-.433593 5.527343-.929688 10.640625-3.125 15.585937-5.246094l26.863282-11.527344v26c-1.003907.332031-1.984376.667969-2.929688 1zm-25.527344-19.183594c-4.722656 2.027344-9.613281 4.125-14.664062 4.972656-5.402344.914063-10.410156.171876-14.097656-2.078124-.003907-.003907-.007813-.003907-.011719-.003907-4.332031-4.175781-10.789063-6.347656-17.503907-5.835937-5 .378906-10.085937 2.132812-15.152343 5.226562-.863281-3.28125-2.808594-6.265625-5.4375-8.410156 4.605469-3.414062 9.589843-6.402344 14.914062-8.882812 25.566407-11.925782 53.945313-10.5625 77.855469 3.742187.050781.03125.097656.0625.148438.09375zm-30.410156-29.007812c4.957031-43.519532-17.058594-87.589844-55.738281-110.730469-15.425781-9.226563-32.203125-14.53125-49.296875-15.867187l.863281-62.527344 124.171875-.085938-.179688 75.429688c0 .003906.003907.003906.003907.007812-6.273438 6.035156-10.527344 13.949219-11.929688 22.703125-1.003906 6.261719-.5625 12.664063 1.203125 18.511719-.121094.65625.089844 1.347656.601563 1.828125.390625 1.097656.816406 2.175781 1.304687 3.222656 2.101563 4.492188 5.089844 8.5 8.679688 11.882813l-.128906 54.660156c-6.5-.40625-13.046876-.085938-19.554688.964844zm-94.804688-116.613282c.464844 1.425782.347657 3.003907-.316406 4.222657-1.28125 2.351562-4.363281 3.835937-7.515625 3.609375-3.613281-.257813-6.710937-2.398438-8.675781-4.148438-.523438-.464844-1.25-.628906-1.921875-.429687-.671875.203125-1.1875.734375-1.371094 1.410156-.269531.996094-1.074219 1.90625-2.15625 2.4375-1.078125.53125-2.292969.613281-3.246093.222656-1.058594-.4375-2.019532-1.363281-3.035157-2.339843-1.363281-1.308594-2.90625-2.792969-5.058593-3.402344-3.445313-.976563-6.734376.710937-8.90625 2.070312-.347657.21875-.695313.441406-1.046876.667969-1.71875 1.109375-3.347656 2.160156-5.058593 2.386719-.949219.125-2.0625-.195313-2.761719-.796875-.394531-.335938-.59375-.710938-.601562-1.105469-.011719-.707031.523437-1.570312 1.640624-2.644531.375-.363281.765626-.707031 1.164063-1.042969 15.820313-4.644531 32.105469-5.566406 47.902344-2.800781.410156.457031.75 1.019531.964843 1.683593zm-48.941406-6.207031-1.046875-66.277343 33.550781-.023438-.855468 62.203125c-10.566406-.148437-21.195313 1.21875-31.648438 4.097656zm28.386719-147.910156c50.148437.332031 99.1875 13.890625 142.328125 39.265625-4.28125-.0625-8.5625-.121094-12.847656-.164062l-270.511719-2.777344c43.027344-24.125 91.546875-36.675782 141.03125-36.324219zm-198.167969 74.683594c-7.351562.003906-14.960937.007812-21.691406-2.335938-5.546875-1.933593-11.417969-6.421875-12.023438-12.082031-.675781-6.328125 5.417969-12.15625 11.785157-14.648438 6.296875-2.460937 13.632812-2.808593 20.523437-2.808593 1.386719 0 2.753906.015625 4.09375.027343l324.890625 3.332032c5.832031.0625 11.664063.144531 17.492188.226562 24.710937.34375 50.265625.703125 75.421875-.683594 9.421875-.519531 15.507812 2.25 16.289062 7.40625 1.132813 7.472657-7.832031 14.527344-16.785156 16.777344-17.972656 4.507813-37.101562 4.523438-55.597656 4.535156l-364.144532.253907zm161.664063 6.957031 1.082031 68.449219c-3.960938 1.363281-7.890625 2.9375-11.773438 4.746093-14.875 6.941407-27.84375 16.742188-38.320312 28.589844-6.65625-11.789062-15.226562-20.425781-27.472656-27.753906-11.292969-6.753906-23.59375-10.566406-36.109375-11.421875-.273438-10.699219-.285157-20.992187-.28125-30.957031 0-10.140625-.007813-20.628906-.296875-31.574219zm-67.550781 130.339844c-11.152344-8.695313-27.058594-6.109375-33.714844-4.480469-4.601563 1.128906-9.140625 2.660156-13.53125 4.140625-7.1875 2.425781-13.980469 4.714844-21.1875 5.46875-19.523438 2.042969-39.777344-9.335938-48.582032-26.820312 1.675782-3 3.554688-5.878907 5.625-8.621094 11.539063 11.234375 27.75 17.398437 43.871094 17.398437 7.1875 0 14.355469-1.222656 21.074219-3.761719 7.347656-2.773437 14.144531-6.949218 20.714844-10.992187 8.746093-5.375 17.027343-10.457031 26.492187-12.53125 5.15625 4.957031 9.328125 10.640625 12.882813 17.445313.011719.019531.027343.039062.039062.058593-5.414062 7.003907-10.011719 14.617188-13.683593 22.695313zm-82.523438-53.605469c15.992188-7.457031 33.210938-9.121094 49.445312-5.113281-3.960937 1.773437-7.222656 4.941406-10.402343 8.042968-1.761719 1.71875-3.582031 3.496094-5.449219 4.9375-6.207031 4.789063-14.496094 6.703126-22.171875 5.113282-6.492187-1.339844-12.386719-5.160156-16.351563-10.457032 1.605469-.890624 3.246094-1.738281 4.929688-2.523437zm-8.429688 4.585937c4.550782 6.257813 11.4375 10.78125 19.035157 12.351563 2.039062.421875 4.121093.628906 6.199219.628906 6.894531 0 13.78125-2.273437 19.257812-6.5 2.050781-1.585937 3.957031-3.445312 5.804688-5.246093 4.140624-4.039063 8.054687-7.859376 13.121093-8.28125.503907-.042969.945313-.273438 1.273438-.613282 4.695312 1.65625 9.28125 3.796875 13.699219 6.4375 3.550781 2.125 6.753906 4.375 9.675781 6.789063-9.019531 2.546875-17.105469 7.515625-24.957031 12.34375-6.410157 3.941406-13.035157 8.019531-20.023438 10.65625-20.5 7.738281-45.417969 2.375-60.992188-13.019531 5.066407-6.015626 11.09375-11.277344 17.90625-15.546876zm-28.304687 31.65625c9.328125 16.0625 27.726563 26.765626 46.308594 26.765626 1.644531 0 3.292969-.082032 4.9375-.253907 7.648437-.800781 14.972656-3.269531 22.054687-5.660156 4.3125-1.453125 8.769532-2.957031 13.203125-4.042969 6.21875-1.523437 21.316407-4.007812 31.085938 4.410156-2.691407 6.542969-4.78125 13.367188-6.222657 20.402344-.039062.019532-.078124.03125-.113281.054688-14.804687 8.96875-32.160156 18.695312-50.839843 20.585937-13.941407 1.414063-28.308594-1.652343-40.457032-8.636719-11.515625-6.621093-20.988281-16.734374-26.878906-28.632812.15625-1.574219.347656-3.148438.597656-4.71875 1.140625-7.109375 3.292969-13.917969 6.324219-20.273438zm-7.308594 32.59375c6.234375 10.082032 14.976563 18.625 25.253907 24.53125 10.824218 6.222657 23.3125 9.511719 35.796874 9.511719 2.363282 0 4.730469-.117187 7.082032-.355469 18.269531-1.851562 35.0625-10.714843 49.589844-19.386718-1.421876 9.078125-1.773438 18.246094-1.121094 27.253906-11.015625-1.292969-22.207032 1.617188-31.902344 4.761719-1.929688.628906-3.855469 1.277343-5.789062 1.929687-9.152344 3.085938-18.617188 6.277344-28.226563 6.789063-14.125.753906-28.421875-4.722657-38.753906-14.371094-1.960938-2.933594-3.71875-6.007813-5.21875-9.222656-4.464844-9.535157-6.742188-20.386719-6.710938-31.441407zm83.636719 74.539063c-22.570312 2.535156-45.707031-6.210937-61.839844-21.996094 8.097656 4.238281 17.1875 6.597657 26.308594 6.597657.929688 0 1.863281-.023438 2.792969-.074219 10.15625-.539063 19.890625-3.820313 29.300781-6.992188 1.917969-.648437 3.832031-1.292969 5.746094-1.914062 9.515625-3.089844 20.503906-5.941407 31.027344-4.480469.503906 4.667969 1.28125 9.273438 2.332031 13.789062-11.21875 9.011719-21.902344 13.523438-35.667969 15.070313zm49.328125 3.101563c-8.761719-18.734376-11.675781-40.992188-8.199219-62.675782 5.65625-35.3125 28.703125-65.566406 61.648438-80.929687 3.058594-1.425781 6.148437-2.707031 9.265625-3.835938-.136719.496094-.222657 1.019531-.214844 1.578125.027344 1.554688.738281 3.011719 2.003906 4.101563 1.570313 1.351562 3.84375 2.019531 5.933594 1.738281 2.609375-.34375 4.789063-1.753906 6.714844-2.996094.332031-.214844.664062-.429687.996093-.636718 2.382813-1.488282 4.234376-2.015626 5.664063-1.609376 1.179687.335938 2.238281 1.351563 3.359375 2.429688 1.183594 1.140625 2.527344 2.433594 4.296875 3.160156 2.039063.84375 4.433594.722656 6.570313-.332031 1.195312-.589844 2.214843-1.421875 2.976562-2.414063 2.925781 2.113282 6.023438 3.328126 9.074219 3.550782.308593.019531.621093.03125.929687.03125 4.398438 0 8.507813-2.230469 10.417969-5.738282 1.097656-2.007812 1.363281-4.523437.765625-6.835937 10.871094 2.453125 21.460938 6.660156 31.441406 12.628906 5.375 3.21875 10.429688 6.894531 15.136719 10.964844-17.234375-3.441406-35.960937.21875-50.433594 10.175781-7.128906 4.90625-10.511719 10.925782-9.285156 16.519532 1.503906 6.832031 8.925781 10.023437 15.371094 10.726562 3.78125.414062 7.582031.320312 11.253906.226562 2.582031-.066406 5.25-.132812 7.832031-.015624 7.199219.324218 12.625 2.238281 16.117188 5.6875 3.628906 3.585937 5.164062 10.335937 1.554687 14.285156-2.878906 3.152344-7.601562 3.484375-12.597656 3.839844-2.132813.152343-4.335937.308593-6.445313.695312-7.316406 1.34375-13.992187 5.941406-17.851562 12.304688-6.894531 11.367187-3.898438 25.324218 1.203125 34.597656 5.722656 10.40625 15.027344 18.546875 23.238281 25.726562.265625.234375.574219.378906.894532.449219-6.570313 10.285156-11.074219 21.898437-13.054688 34.246094-.023438.144531-.039062.285156-.0625.429687-6.988281-3.605468-15.5-.859375-21.425781 1.609375l-.957031.398438c-6.207032 2.59375-12.628907 5.273437-18.492188 3.449219-1.097656-.34375-2.179688-.847657-3.324219-1.382813-1.78125-.835937-3.625-1.695313-5.734375-2.027344-3.355468-.523437-6.523437.402344-9.59375 1.296875-3.039062.890625-5.910156 1.726563-8.519531.976563-2.660156-.769531-4.675781-3.078125-6.8125-5.523438-.625-.714843-1.25-1.425781-1.886719-2.101562-3.363281-3.554688-8.996094-6.695313-13.792968-3.835938-2.746094 1.636719-4.386719 5.117188-4.175782 8.867188.042969.785156.15625 1.550781.320313 2.296875-18.078125-10.945313-33.128907-26.871094-42.121094-46.097656zm110.164063 61.714843c-21.652344 2.433594-43.664063-2.402343-62.789063-12.644531-.769531-1.804688-1.4375-3.648438-1.539063-5.5-.105468-1.855469.539063-4.175781 2.210938-5.171875 2.554688-1.519531 6.347656.5625 8.789062 3.144531.605469.636719 1.191407 1.308594 1.78125 1.984375 2.425782 2.773438 4.933594 5.644531 8.734376 6.742188 3.734374 1.078125 7.3125.035156 10.773437-.976563 2.765625-.808594 5.375-1.566406 7.832031-1.183594 1.546875.242188 3.054688.945313 4.652344 1.695313 1.214844.566406 2.472656 1.15625 3.832031 1.578125 7.269531 2.265625 14.699219-.839844 21.25-3.578125l.953125-.398437c5.433594-2.257813 13.304688-4.847657 18.902344-1.25.132812.085937.269531.148437.414062.199218-.332031 3.039063-.53125 6.078125-.570312 9.113282-8.238281 3.179687-16.714844 5.289062-25.226562 6.246093zm39.765624 29.75c-.988281-2.109375-1.867187-4.28125-2.664062-6.496093 3.542969-6.855469 11.25-11.632813 18.964844-11.398438 8.621094.246094 16.878906 6.695312 19.210937 14.996094.234375.820312.957031 1.410156 1.8125 1.46875.859375.054687 1.648438-.433594 1.988281-1.21875 2.242188-5.195313 8.484376-7.308594 13.34375-7.070313 5.917969.292969 11.503907 3.269531 16.1875 6.148438 2.175782 1.335937 4.410157 2.8125 5.714844 4.863281 2.992188 4.714844.199219 11.507812-4.289062 14.894531-5.054688 3.816407-11.898438 4.847657-17.9375 5.757813-.53125.082031-1.007813.371094-1.328125.804687-.316407.433594-.449219.976563-.363281 1.507813.535156 3.378906-.726563 7.101562-3.375 9.96875-2.644532 2.863281-6.261719 4.425781-9.667969 4.148437-.3125-.023437-.609375.03125-.878907.132813-15.792968-8.386719-28.890624-21.773438-36.71875-38.507813zm173.171876 63.9375c-4.210938 19.410157-21.589844 35.109375-41.328126 37.328125-19.746093 2.21875-40.171874-9.226562-48.585937-27.21875-3.855469-8.25-5.136719-18.0625-3.601563-27.632812 2.492188-15.570313 12.660157-28.914063 27.195313-35.691406 6.550781-3.054688 13.421875-4.574219 20.242187-4.574219 8.285157 0 16.488282 2.242187 23.929688 6.691406 17.042969 10.199219 26.359375 31.6875 22.148438 51.097656zm-27.351563-146.09375c-5.746094-.414062-11.480469.40625-16.796875 1.714844v-20.582031c6.519531 5.382812 12.167969 11.785156 16.796875 18.867187zm-23.867187-32.378906c-10.183594-5.914063-21.089844-9.691406-32.246094-11.296875l.117187-50.015625c6.445313 3.925781 13.917969 6.171875 21.460938 6.171875 1.394531 0 2.796875-.078125 4.191406-.234375 2.203125-.246094 4.367187-.699219 6.476563-1.320313zm-7.265626-62.398437c-10.703124 1.199218-21.671874-3.316407-28.859374-11.230469 7.332031 3.300781 15.363281 5.078125 23.390624 5.078125.683594 0 1.363282-.015625 2.042969-.039063 9.558594-.359375 19.019531-3.265625 27.222657-8.210937-5.511719 7.785156-14.261719 13.328125-23.796876 14.402344zm28.804688-40.960938c-8.066406 9.582031-20.53125 15.480469-33.058594 15.5-.023437 0-.042968 0-.066406 0-12.0625 0-24.074219-5.449219-32.164062-14.398438.773437-3.863281 2.21875-7.515624 4.242187-10.8125 6.363281 4.480469 14.15625 6.972657 21.941406 6.972657 1.117188 0 2.234375-.054688 3.347657-.15625 10.074218-.941407 19.707031-6.199219 26-14.121094 4.792968 4.570313 8.1875 10.574219 9.757812 17.015625zm-12.84375-19.621094c-5.617188 7.125-14.253906 11.863282-23.289062 12.707032-7.921876.738281-16.097657-1.519532-22.601563-6.105469 3.238281-4.085938 7.433594-7.453125 12.351563-9.742188 10.207031-4.761719 21.535156-4.21875 31.074218 1.488281.851563.507813 1.667969 1.066407 2.464844 1.652344zm0 0"/><path d="m426.480469 451.84375c4.8125-5.226562 6.648437-13.511719 4.464843-20.152344-1.703124-5.1875-5.609374-8.617187-11-9.664062-5.558593-1.078125-12.113281 1.027344-17.542968 5.628906-5.332032 4.523438-8.421875 10.515625-8.273438 16.03125.207032 7.433594 6.238282 13.933594 14.035156 15.117188.882813.132812 1.773438.199218 2.671876.199218 5.652343 0 11.457031-2.609375 15.644531-7.160156zm-17.710938 2.964844c-5.796875-.878906-10.453125-5.8125-10.601562-11.230469-.117188-4.304687 2.441406-9.105469 6.847656-12.839844 3.722656-3.15625 8.144531-4.945312 12.007813-4.945312.742187 0 1.460937.066406 2.152343.199219 4.984375.96875 7.066407 4.320312 7.933594 6.960937 1.71875 5.230469.203125 12.023437-3.601563 16.15625-3.957031 4.296875-9.601562 6.476563-14.738281 5.699219zm0 0"/><path d="m430.035156 469.785156c-3.6875-.640625-8.082031.78125-11.46875 3.710938-2.847656 2.46875-4.429687 5.558594-4.339844 8.480468.132813 4.316407 3.921876 8.078126 8.820313 8.746094.535156.074219 1.078125.109375 1.621094.109375 3.449219 0 6.992187-1.433593 9.550781-3.9375 2.882812-2.820312 4.097656-7.378906 2.945312-11.085937-.992187-3.210938-3.589843-5.40625-7.128906-6.023438zm1.359375 14.21875c-2.058593 2.015625-5.121093 3.082032-7.800781 2.71875-2.867188-.394531-5.257812-2.578125-5.328125-4.871094-.050781-1.675781 1.050781-3.65625 2.949219-5.300781 2.453125-2.125 5.640625-3.21875 8.128906-2.785156 2.046875.359375 3.417969 1.476563 3.964844 3.238281.707031 2.285156-.097656 5.226563-1.914063 7zm0 0"/><path d="m436.792969 459.222656c.558593 4.605469 2.605469 8.34375 5.617187 10.246094 1.582032 1 3.410156 1.480469 5.292969 1.480469 3.394531 0 6.960937-1.5625 9.550781-4.460938 3.261719-3.644531 4.71875-9.046875 3.800782-14.089843-.886719-4.867188-4.683594-9.230469-9.238282-10.605469-3.902344-1.179688-7.875-.050781-10.90625 3.09375-3.203125 3.328125-4.78125 8.820312-4.117187 14.335937zm11.960937-13.851562c.699219 0 1.339844.121094 1.894532.289062 3.109374.9375 5.816406 4.078125 6.433593 7.460938.699219 3.847656-.390625 7.9375-2.839843 10.675781-2.683594 2.996094-6.933594 3.988281-9.675782 2.257813-1.953125-1.234376-3.359375-3.96875-3.761718-7.316407-.515626-4.277343.667968-8.613281 3.015624-11.046875 1.714844-1.78125 3.453126-2.320312 4.933594-2.320312zm0 0"/><path d="m210.253906 342.921875c5.078125 4.4375 10.957032 8.730469 17.195313 8.730469 1.359375 0 2.738281-.203125 4.128906-.65625 4.484375-1.457032 7.5625-5.1875 10.035156-8.1875l13.71875-16.628906c2.390625-2.902344 5.101563-6.1875 6.078125-10.355469 1.148438-4.933594-.414062-10.503907-4.1875-14.902344-2.894531-3.375-6.988281-6.078125-12.515625-8.273437-3.324219-1.320313-6.777343-2.324219-10.113281-3.292969-2.773438-.804688-5.636719-1.640625-8.359375-2.636719-6.964844-2.558594-11.757813-5.867188-14.644531-10.125-2.949219-4.34375-4.03125-11.125-.390625-15.675781 2.6875-3.351563 7.3125-4.796875 11.785156-6.195313.652344-.207031 1.300781-.40625 1.9375-.613281 7.832031-2.539063 12.453125-6.421875 13.738281-11.546875 1.402344-5.609375-1.53125-10.582031-4.367187-15.394531-2.566407-4.347657-4.984375-8.453125-3.828125-12.460938.722656-2.503906 2.757812-4.480469 4.914062-6.574219 1.464844-1.421874 2.976563-2.890624 4.195313-4.628906 4.285156-6.117187 3.699219-15.355468-1.332031-21.039062-5.433594-6.132813-15.121094-6.417969-22.375-4.644532-5.074219 1.242188-8.933594 4.445313-12.664063 7.546876-.671875.558593-1.34375 1.117187-2.019531 1.660156-8.515625 6.84375-14.796875 12.425781-20.363282 18.105468-7.296874 7.445313-14.035156 15.515626-20.027343 23.984376-.75 1.058593-3.023438 4.269531-1.3125 7.230468 1.441406 2.496094 4.605469 2.664063 5.957031 2.734375l27.882812 1.480469-18.867187 19.5c-4.25 4.390625-8.023437 9.242188-6.875 14.964844 1.113281 5.550781 6.238281 8.335937 10.761719 10.792968 4.019531 2.183594 7.820312 4.246094 8.839844 7.800782.835937 2.925781-.480469 6.070312-1.875 9.394531-1.375 3.289063-2.800782 6.691406-2.464844 10.425781.503906 5.539063 4.628906 9.570313 8.816406 13.226563zm-23.390625-29.847656c-.25-2.734375.925781-5.535157 2.167969-8.5 1.601562-3.824219 3.257812-7.777344 2.027344-12.066407-1.484375-5.1875-6.214844-7.753906-10.789063-10.242187-4.109375-2.230469-7.988281-4.335937-8.730469-8.035156-.78125-3.894531 2.332032-7.761719 5.816407-11.363281l21.949219-22.683594c.550781-.570313.71875-1.40625.429687-2.144532-.289063-.738281-.984375-1.234374-1.773437-1.277343l-32.308594-1.714844c-1.546875-.082031-2.445313-.324219-2.675782-.726563-.097656-.167968-.304687-.871093 1.109376-2.875 5.871093-8.292968 12.46875-16.195312 19.617187-23.488281 5.449219-5.558593 11.621094-11.042969 20.007813-17.785156.695312-.558594 1.382812-1.128906 2.070312-1.699219 3.535156-2.9375 6.875-5.710937 11.042969-6.730468 6.109375-1.5 14.148437-1.390626 18.390625 3.398437 3.847656 4.34375 4.308594 11.390625 1.050781 16.042969-1 1.425781-2.3125 2.699218-3.703125 4.046875-2.4375 2.367187-4.960938 4.820312-5.980469 8.355469-1.640625 5.679687 1.34375 10.738281 4.230469 15.632812 2.535156 4.300781 4.929688 8.359375 3.925781 12.359375-.921875 3.683594-4.640625 6.605469-11.0625 8.683594-.625.203125-1.257812.402343-1.898437.601562-4.816406 1.507813-10.273438 3.214844-13.730469 7.53125-4.863281 6.078125-3.582031 14.894531.199219 20.464844 3.382812 4.980469 8.8125 8.792969 16.597656 11.648437 2.851562 1.046876 5.785156 1.898438 8.621094 2.722657 3.246094.945312 6.605468 1.921875 9.753906 3.171875 4.902344 1.945312 8.480469 4.28125 10.9375 7.148437 2.894531 3.371094 4.167969 7.722657 3.316406 11.351563-.757812 3.246094-3.144531 6.144531-5.253906 8.703125l-13.71875 16.628906c-2.722656 3.300781-5.054688 5.90625-8.167969 6.917969-5.84375 1.894531-12.085937-2.613282-17.421875-7.277344l-18.597656-16.25c-3.71875-3.246094-7.082031-6.496094-7.449219-10.550781zm0 0"/><path d="m263.664062 245.011719c.292969.023437.589844.035156.886719.035156 5.160157 0 10.957031-3.484375 12.757813-7.8125 1.386718-3.328125.378906-6.777344-2.757813-9.460937-3.941406-3.371094-11.324219-3.589844-16.453125-.484376-3.867187 2.34375-5.539062 6.054688-4.589844 10.191407 1.078126 4.695312 6.019532 7.195312 10.15625 7.53125zm-3.476562-14.265625c1.785156-1.078125 4.019531-1.617188 6.144531-1.617188 2.1875 0 4.261719.574219 5.59375 1.714844 1.820313 1.558594 2.363281 3.140625 1.65625 4.839844-1.238281 2.96875-5.988281 5.597656-9.589843 5.300781-2.804688-.226563-5.953126-1.8125-6.546876-4.40625-.695312-3.023437 1.109376-4.839844 2.742188-5.832031zm0 0"/></svg>