<svg height="511pt" viewBox="-90 0 511 511.99851" width="511pt" xmlns="http://www.w3.org/2000/svg"><path d="m326.871094 398.722656c-6.027344-13.613281-18.6875-23.101562-28.859375-30.722656l-82.3125-61.675781c-.132813-.101563-.277344-.175781-.421875-.253907-.007813-.023437-.023438-.042968-.035156-.066406 15.074218-9.34375 27.796874-22.496094 36.066406-38.105468 12.414062 2.734374 26.265625-3.992188 31.390625-15.789063 5.269531-12.125.332031-27.324219-10.765625-34.292969 4.507812-7.289062 6.21875-16.804687 4.691406-26.457031-1.292969-8.144531-4.777344-16.613281-10.65625-25.890625-6.007812-9.472656-13.382812-18.101562-21.769531-25.625.054687-.253906.085937-.511719.082031-.78125l-.289062-20.308594c.074218-.027344.152343-.039062.226562-.074218 13.96875-6.191407 27.46875-12.304688 40.523438-18.214844 13.039062-5.90625 26.527343-12.011719 40.46875-18.191406 1.269531-.5625 2.09375-1.820313 2.101562-3.210938.007812-1.394531-.800781-2.660156-2.066406-3.234375l-165.398438-75.507813c-.925781-.425781-1.992187-.425781-2.921875-.007812l-147.214843 66.480469c-1.175782.53125-1.96875 1.660156-2.070313 2.949219-.101563 1.285156.507813 2.523437 1.585937 3.230468l13.628907 8.933594c-.164063.433594-.25.910156-.230469 1.40625l1.363281 31.324219c-.230469.121093-.457031.234375-.6875.367187-7.589843 4.421875-8.632812 13.722656-9.191406 18.71875-1.039063 9.25-1.523437 18.660156-1.4375 27.96875.019531 1.699219.046875 4.867188 2.210937 7.21875 1.914063 2.082032 4.546876 2.542969 6.6875 2.542969 1.121094 0 2.105469-.125 2.78125-.210937l19.667969-2.539063c1.75-.230469 3.066407-1.710937 3.082031-3.476563.144532-16.492187-.652343-33.363281-7.417968-45.035156-2.125-3.664062-4.726563-5.929687-7.726563-6.722656-.316406-.082031-.632812-.144531-.953125-.195312l-1.164062-26.792969 50.640625 33.1875 1.207031 17.847656c-8.738281 7.898437-15.792969 17.027344-20.675781 26.984375-7.539063 15.371094-9.746094 32.65625-6.214844 48.667969.210937.972656.421875 1.996093.632813 3.046875.839843 4.128906 1.878906 9.214844 3.980468 13.636718-7.75 2.46875-14.207031 8.953126-16.253906 16.878907-2.492188 9.644531 1.753906 20.59375 10.09375 26.039062 7.214844 4.710938 16.972656 4.960938 24.542969.949219 7.839843 12.652344 18.710937 23.359375 31.308593 31.394531-13.761718 9.828125-26.582031 20.273438-38.984374 30.390625-12.636719 10.308594-25.703126 20.964844-39.683594 30.878906-8.257813 5.859376-17.617188 12.492188-23.066406 22.390626-5.976563 10.847656-6.125 23.960937-6.246094 34.492187l-.609375 53.425781c-.113281 9.957032.355469 20.273438 7.300781 27.441406 6.652344 6.867188 16.59375 7.867188 25.867188 7.867188.917968 0 1.832031-.011719 2.734374-.027344l233.519532-3.839844c.035156 0 .070312.015626.109375.015626h.128906c.085937 0 .171875-.019532.257813-.023438l33.699218-.554688c6.707032-.109374 14.269532-.679687 19.152344-6.070312 3.976562-4.390625 4.609375-10.121094 4.949219-16.101562l2.707031-47.808594c.695312-12.332032 1.488281-26.3125-4.066406-38.867188zm-95.015625-31.265625-32.347657 16.019531c-1.167968.582032-1.921874 1.757813-1.964843 3.058594-.039063 1.304688.640625 2.523438 1.769531 3.175782 4.046875 2.328124 8.230469 4.738281 11.128906 8.144531 2.800782 3.292969 3.929688 7.433593 2.878906 10.546875-1.160156 3.449218-4.65625 5.902344-8.765624 8.527344l-30.800782 19.679687 38.5625-118.828125zm-59.644531-8.238281c.988281 1.382812 1.683593 2.847656 1.464843 4.75-.355469 3.136719-2.414062 6.382812-3.675781 9.242188-.207031.472656-1.71875 4.945312-2.199219 4.996093l-4.652343.371094c-1.417969-2.070313-3.058594-3.9375-4.5-5.964844-.550782-.777343-5.347657-7.929687-5.171876-8.183593 3.578126-5.070313 7.53125-10.0625 10.777344-15.320313 2.273438 2.667969 4.28125 5.515625 6.488282 8.234375.511718.628906 1.019531 1.246094 1.46875 1.875zm.367187-22.980469c-9.480469 3.234375-20.839844 1.796875-30.394531-3.839843-8.863282-5.234376-14.730469-12.855469-18.476563-19.519532 12.441407 5.414063 25.910157 8.40625 39.433594 8.40625.902344 0 1.808594-.015625 2.714844-.042968 10.910156-.324219 21.714843-2.609376 31.914062-6.539063-7.449219 9.957031-15.027343 18.0625-25.191406 21.535156zm32.765625-19.871093-16.488281 50.808593-19.394531-22.851562c1.839843-.339844 3.648437-.796875 5.402343-1.398438 13.582031-4.640625 23.21875-16.503906 30.480469-26.558593zm-66.753906 22.117187c6.246094 3.683594 13.175781 5.832031 20.050781 6.367187l-18.617187 26.386719c-5.808594-14.941406-11.128907-30.070312-15.957032-45.335937 4.21875 5.128906 9.101563 9.382812 14.523438 12.582031zm10.539062 32.109375 7.902344 11.5625c-1.195312 2.984375-2.609375 6.011719-3.984375 8.957031-.855469 1.839844-1.730469 3.710938-2.566406 5.601563-2.523438-5.839844-4.976563-11.710938-7.351563-17.617188zm30.980469-2.792969 5.300781 6.246094c.28125.328125.609375.578125.960938.777344l-4.460938 13.746093-7.542968-7.738281zm135.066406-288.800781c-3.695312 1.648438-7.34375 3.285156-10.972656 4.917969l-142.070313-66.476563c-.003906-.027344 0-.054687-.007812-.078125l-1.585938-8.957031zm-291.976562-5.324219-4.714844-3.089843 137.933594-62.285157 1.632812 9.210938zm6.945312 46.628907c1.398438.371093 2.632813 2.070312 3.421875 3.433593 4.421875 7.621094 5.597656 16.957031 6.164063 25.597657.140625 2.1875.226562 4.371093.277343 6.5625.039063 1.738281.503907 4.222656.050782 5.902343-.523438 1.933594-2.746094 1.148438-4.589844 1.328125-2.804688.277344-5.605469.570313-8.40625.851563-1.21875.125-5.960938 1.261719-6.976562.144531-.214844-.234375-.328126-1.074219-.339844-2.5-.085938-9.023438.382812-18.144531 1.386718-27.109375.585938-5.210937 1.558594-10.972656 5.726563-13.398437 1.316406-.769532 2.421875-1.042969 3.285156-.8125zm49.730469-33.421876c-1.363281 3.703126-1.097656 7.621094-.886719 10.769532l.890625 13.175781-52.597656-34.476563 132.914062-55.359374 139.148438 65.113281c-5.925781 2.671875-11.765625 5.316406-17.515625 7.921875-12.25 5.546875-24.90625 11.269531-37.945313 17.0625l-.296874-20.785156c-.0625-4.238282-.144532-10.042969-3.394532-14.652344-3.152344-4.476563-8.203125-6.476563-12.691406-7.996094-43.261719-14.671875-91.90625-12.214844-133.464844 6.746094-5.683594 2.59375-11.8125 6.101562-14.160156 12.480468zm81.914062 9.296876c26.449219-.40625 53.125 7.476562 75.128907 22.15625l.222656 15.625c-12.195313-9.4375-26.105469-16.675782-40.832031-21.007813-28.410156-8.359375-60.121094-6.015625-87 6.429687-7.585938 3.511719-14.589844 7.75-20.910156 12.566407l-.785157-11.5625c21.507813-15.214844 47.832031-23.8125 74.175781-24.207031zm-74.492187 19.535156-1.253906-18.539063c-.1875-2.734375-.378907-5.5625.460937-7.847656 1.449219-3.933594 5.886719-6.410156 10.464844-8.496094 39.9375-18.21875 86.6875-20.582031 128.261719-6.480469 3.429687 1.164063 7.253906 2.636719 9.179687 5.371094 1.84375 2.613282 2.042969 6.386719 2.105469 10.6875l.332031 23.085938c-22.222656-14.164063-48.769531-21.742188-75.121094-21.355469-26.335937.394531-52.644531 8.761719-74.429687 23.574219zm-19.9375 51.898437c8.597656-17.535156 24.550781-32.386719 44.917969-41.816406 15.335937-7.101563 32.339844-10.714844 49.3125-10.714844 11.078125 0 22.144531 1.539063 32.722656 4.652344 26.792969 7.882813 50.734375 25.933594 65.683594 49.519531 5.355468 8.445313 8.507812 16.039063 9.648437 23.210938 1.363281 8.605468-.308593 16.96875-4.589843 22.945312-4.628907 6.46875-12.710938 10.007813-19.664063 8.59375-5.472656-1.105468-10.746094-5.019531-16.128906-11.964844-11.296875-14.570312-17.28125-32.75-16.859375-51.1875.035156-1.46875-.84375-2.804687-2.207032-3.355468-1.363281-.554688-2.925781-.203125-3.921874.875-10.898438 11.789062-24.523438 18.742187-37.382813 19.078125-14.671875.40625-28.449219-8.695313-32.027344-21.113281-.464843-1.613282-2-2.675782-3.679687-2.542969-1.675782.132812-3.023438 1.433593-3.226563 3.101562-3.054687 25.445313-15.847656 49.738281-35.09375 66.660157-5.003906 4.394531-12.628906 10.175781-21.042969 9.535156-7.304687-.550782-9.359374-7.925782-11.460937-18.28125-.222656-1.089844-.4375-2.148438-.660156-3.160156-3.140625-14.246094-1.078125-30.300782 5.660156-44.035157zm14.683594 99.414063c-.507813-.898438-1.382813-1.53125-2.394531-1.730469-1.007813-.203125-2.058594.050781-2.871094.6875-5.425782 4.273437-13.878906 4.644531-19.664063.867187-5.78125-3.773437-8.839843-11.664062-7.113281-18.351562 1.613281-6.242188 7.382812-11.378906 13.746094-12.445312 2.375 2.242187 5.460937 3.777343 9.542968 4.085937.625.046875 1.238282.070313 1.847657.070313 10.25 0 18.769531-6.398438 24.394531-11.34375 17.816406-15.664063 30.449219-37.253907 35.613281-60.425782 7.359375 9.945313 20.328125 16.421875 33.933594 16.074219 12.652344-.328125 25.367187-5.792969 36.460937-15.550781 1.242188 17.160156 7.542969 33.742187 18.136719 47.410156 6.460938 8.335938 13.105469 13.101562 20.3125 14.5625 8.183594 1.652344 17.09375-1.328125 23.46875-7.539062 8.621094 4.878906 12.71875 16.785156 8.761719 25.894531-4.046875 9.316406-15.980469 14.496093-25.550781 11.082031-1.695313-.601562-3.574219.160156-4.363281 1.777344-14.726563 30.125-47.140626 51.03125-80.660157 52.027344-33.515625.984374-67.113281-17.957032-83.601562-47.152344zm31.890625 50.007812c12.078125 40.332032 27.613281 79.789063 46.273437 117.539063l-49.757812-24.800781c-2.867188-1.429688-6.183594-3.371094-6.375-5.71875-.109375-1.371094.8125-3.042969 1.941406-4.929688l13.019531-21.792969c.59375-.996093.664063-2.21875.183594-3.273437-.476562-1.058594-1.445312-1.808594-2.585938-2.015625-6.960937-1.269531-14.28125-1.007813-21.191406.703125zm48.335937 185.800782-106.96875 1.757812c.023438-.160156.046875-.316406.046875-.484375l.101563-72.328125c0-1.953125-1.578125-3.539062-3.53125-3.539062h-.003907c-1.953124 0-3.535156 1.578124-3.535156 3.527343l-.097656 72.328125c0 .210938.023438.414063.058594.609375l-12.042969.199219c-8.910156.15625-18.0625-.171875-23.410156-5.691406-5.074219-5.238282-5.402344-13.960938-5.304688-22.441406l.605469-53.425782c.117188-10.25.25-21.871094 5.367188-31.164062 4.671874-8.476563 13.328124-14.613282 20.96875-20.03125 14.175781-10.054688 27.332031-20.785156 40.058593-31.167969 10.433594-8.507813 21.167969-17.25 32.457031-25.621094l-20.507812 61.789063c-.4375 1.3125-.070312 2.753906.941406 3.695312 1.011719.945313 2.476563 1.214844 3.753906.6875 5.9375-2.4375 12.511719-3.507812 18.945313-3.152344l-10.222656 17.117188c-1.285157 2.148438-3.222657 5.390625-2.917969 9.128906.535156 6.625 7.355469 10.023438 10.265625 11.472656l55.378906 27.605469zm-5.816406-90.65625c-.332031-.824219-.640625-1.652344-.933594-2.492188-.433593-1.257812-.824219-2.546875-.859375-3.875-.058594-2.378906 1.042969-4.347656 1.984375-6.441406.804688-1.785156 1.695313-3.542969 2.5625-5.320313.546875-1.121093 4.367188-10.117187 4.710938-10.128906 0 0 3.484375-.152344 3.484375-.152344.074218.097657.148437.195313.238281.285157 1.585937 1.628906 3.171875 3.253906 4.757813 4.882812 1.25 1.285156 2.503906 2.566406 3.757812 3.851562.957031.984376 3.035156 2.425782 3.183594 3.8125.082031.769532-.171875 1.535157-.417969 2.269532-1.902344 5.601562-4.054687 11.070312-5.808594 16.691406-1.839843 5.90625-3.785156 11.777344-5.695312 17.660156.386719-1.183594-3.171875-6.457031-3.777344-7.707031-1.25-2.621094-3.003906-4.929687-4.402344-7.46875-1.046875-1.898437-1.976562-3.859375-2.785156-5.867187zm167.425781 25.011718-2.707031 47.808594c-.273437 4.84375-.699219 9.074219-3.128906 11.753906-2.984375 3.296875-8.566407 3.660156-14.03125 3.75l-30.175781.496094 2.402343-67.613281c.066407-1.949219-1.457031-3.585938-3.40625-3.65625-1.945312-.054688-3.589843 1.457031-3.660156 3.40625l-2.414063 67.980469-97.417968 1.601562.382812-55.160156c.050782-.027344.101563-.050782.152344-.082032l38.484375-24.589843c5.0625-3.230469 9.765625-6.601563 11.660156-12.222657 1.855469-5.503906.25-12.167968-4.195312-17.390624-2.164063-2.542969-4.753907-4.570313-7.402344-6.320313l29.480469-14.601563c1.644531-.816406 2.390625-2.753906 1.71875-4.460937l-19.414063-49.355469 73.566407 55.121094c10.011718 7.5 21.355468 16 26.632812 27.925781 4.867188 10.996094 4.125 24.074219 3.472656 35.609375zm0 0"/><path d="m68.078125 246.40625c-4.132813-1.449219-9.070313.019531-11.730469 3.5-.679687.886719-.511718 2.152344.375 2.832031.886719.679688 2.152344.511719 2.832032-.375 1.605468-2.097656 4.695312-3.019531 7.183593-2.144531 1.507813.527344 2.773438 1.703125 3.527344 3.136719-.742187-.039063-1.5.019531-2.261719.191406-2.285156.519531-4.148437 1.929687-5.105468 3.867187-.496094 1-.085938 2.210938.914062 2.707032.289062.140625.59375.207031.894531.207031.742188 0 1.460938-.410156 1.8125-1.125.410157-.828125 1.296875-1.46875 2.375-1.714844 1.078125-.246093 2.15625-.046875 2.886719.523438.601562.476562 1.417969.566406 2.109375.242187.691406-.328125 1.140625-1.019531 1.15625-1.785156.097656-4.378906-2.835937-8.609375-6.96875-10.0625zm0 0"/><path d="m252.628906 253.273438c.152344.03125.300782.050781.453125.050781.652344 0 1.273438-.316407 1.65625-.863281 2.660157-3.800782 7.371094-6.039063 12.003907-5.699219 1.117187.070312 2.078124-.757813 2.160156-1.871094.082031-1.109375-.753906-2.078125-1.867188-2.160156-4.320312-.308594-8.707031 1.097656-12.113281 3.753906.253906-2.613281 1.148437-4.914063 2.617187-6.625 2.183594-2.542969 6.503907-3.902344 9.453126-1.863281.914062.628906 2.171874.402344 2.808593-.515625.632813-.914063.402344-2.175781-.515625-2.808594-4.367187-3.019531-11.011718-1.871094-14.8125 2.554687-3.039062 3.546876-4.273437 8.789063-3.386718 14.394532.132812.808594.742187 1.464844 1.542968 1.652344zm0 0"/></svg>