<svg height="511pt" viewBox="-32 1 511 511.99871" width="511pt" xmlns="http://www.w3.org/2000/svg"><path d="m379.300781 239.882812c7.558594-12.8125 12.714844-26.789062 15.765625-41.335937 3.378906-16.105469 2.191406-32.699219 1.015625-48.976563-2.109375-29.171874-15.507812-55.628906-33.722656-78.226562-8.339844-10.347656-17.871094-19.746094-28.378906-27.890625-11.46875-8.894531-23.636719-13.628906-37.375-18.175781-9.773438-3.234375-19.964844-5.15625-30.234375-5.816406-20.375-1.3125-41.191406 2.421874-59.886719 9.953124-19.320313 7.777344-37.542969 19.464844-52.691406 34.0625-14.433594 13.90625-28.101563 30.585938-35.371094 49.472657-5.222656 13.574219-8.324219 27.941406-9.542969 42.417969-.582031 6.917968-.835937 13.941406-.402344 20.875 2.566407 40.914062 25.535157 80.867187 57.351563 106.246093 32.390625 25.839844 74.570313 36.527344 115.164063 28.15625 13.019531-2.6875 25.695312-7.027343 37.601562-12.941406 9.390625-4.695313 18.023438-10.714844 25.980469-17.542969 8.25-7.082031 15.15625-15.3125 22.757812-23.089844 3.375-3.453124 6.054688-7.886718 8.710938-11.949218 1.125-1.722656 2.214843-3.46875 3.257812-5.238282zm-9.175781 1.371094c-.136719.207032-.28125.410156-.417969.617188-.742187.921875-1.394531 1.894531-1.964843 2.898437-26.820313 38.351563-72.515626 62.128907-117.15625 62.125-6.519532 0-13.015626-.507812-19.425782-1.546875-30.0625-4.890625-58.5625-21.316406-80.25-46.257812-21.519531-24.753906-34.121094-55.246094-35.484375-85.863282-1.316406-29.667968 7.585938-58.71875 25.742188-84.003906 16.863281-23.484375 40.996093-42.398437 67.957031-53.253906 17.15625-6.910156 34.304688-10.296875 50.835938-10.296875 33.347656 0 64.183593 13.792969 87.476562 40.285156 21.757812 24.746094 36.378906 54.902344 41.171875 84.917969 5.214844 32.664062-1.175781 63.917969-18.484375 90.378906zm0 0"/><path d="m447.4375 49.578125c-.535156-44.597656-2.460938-46.617187-3.871094-48.09375-.742187-.777344-1.726562-1.21875-2.785156-1.238281-44.695312-.585938-90.070312-.015625-133.949219.53125-38.28125.480468-77.863281.972656-116.8125.699218-2.3125-.015624-9.351562 0-19.09375.023438-31.921875.074219-106.03125.238281-113.273437-.71875-.398438-.15625-.835938-.246094-1.289063-.246094h-.015625c-1.945312.011719-3.519531 1.589844-3.519531 3.535156 0 33.421876 0 65 .289063 99.515626-2.675782.578124-5.371094 1.402343-8.066407 2.488281-16.335937 6.578125-32.371093 23.417969-31.359375 46.199219.511719 11.5625 5.695313 22.546874 13.617188 30.773437-29.699219 41.332031-35.332032 99.460937-13.84375 145.617187 9.632812 20.6875 24.609375 38.75 42.773437 52.742188l.234375 23.667969c.289063 29.027343.585938 59.039062.824219 88.558593.011719 1.867188 1.476563 3.398438 3.335937 3.5 86.496094 4.789063 174.46875 7.824219 259.550782 10.753907 25.148437.867187 51.152344 1.761719 76.738281 2.691406l39.109375 1.417969c.042969.003906.085938.003906.128906.003906.902344 0 1.777344-.347656 2.433594-.972656.6875-.652344 1.085938-1.554688 1.101562-2.507813.570313-35.449219 1.035157-71.5 1.484376-106.363281.976562-75.765625 1.988281-154.109375 4.140624-231.058594l2.054688-73.332031c.105469-3.734375.328125-26.066406.0625-48.1875zm-426.683594 102.378906c-.730468-16.472656 10.34375-32.640625 26.9375-39.324219 14.71875-5.929687 29.40625-2.769531 39.273438 8.457032 11.300781 12.851562 17.75 33.394531 6.6875 50.308594-8.660156 13.234374-25.011719 20.800781-39.785156 18.398437-3.496094-.570313-6.867188-1.675781-10.035157-3.21875-.101562-.09375-.191406-.195313-.304687-.277344-.433594-.320312-.917969-.519531-1.414063-.617187-12.03125-6.621094-20.734375-19.667969-21.359375-33.726563zm35.203125 199.78125c-10.179687-10.097656-18.636719-21.859375-24.621093-34.800781-18.007813-38.964844-13.453126-88.0625 11.160156-123.21875 3.265625 1.433594 6.695312 2.480469 10.234375 3.054688.5.082031 1.003906.152343 1.507812.214843.132813 11.109375.265625 22.222657.398438 33.335938.441406 36.925781.898437 75.109375 1.238281 112.65625zm-36.082031-26.054687c-20.332031-43.667969-15.144531-98.613282 12.71875-137.882813 1.167969.910157 2.371094 1.765625 3.613281 2.5625-12.269531 17.761719-19.945312 38.855469-22.253906 61.273438-2.449219 23.835937 1.34375 47.441406 10.96875 68.265625 7.402344 16.019531 18.3125 30.46875 31.9375 42.46875.25.300781.546875.566406.886719.769531 3.824218 3.308594 7.84375 6.4375 12.066406 9.34375 19.628906 13.496094 42.015625 21.464844 64.765625 23.0625l.234375 9.246094c-48.441406-3.511719-94.429688-35.066407-114.9375-79.109375zm420.6875-225.769532c-.246094 4.410157-.566406 8.816407-.6875 13.128907-.535156 19.066406-1.078125 38.589843-1.621094 57.855469-.726562 26.015624-1.382812 52.554687-2.015625 78.773437-.617187 25.566406-3.40625 52.300781-1.125 77.6875 1.078125 11.972656-.347656 24.726563-.507812 36.761719-.3125 23.558594-.609375 47.121094-.917969 70.679687-.171875 13.101563.234375 26.203125.214844 39.304688-.007813 6.683593-.121094 13.367187-.480469 20.046875-.128906 2.425781.429687 7.269531-2.351563 8.484375-1.132812.496093-2.417968.433593-3.652343.359375-26.183594-1.535156-52.378907-3.296875-78.558594-4.023438-26.664063-.742187-53.332031-1.011718-79.996094-1.726562-.796875-.019532-1.597656-.042969-2.394531-.066406-14.765625-.410157-29.527344-.882813-44.292969-1.257813-13.058593-.378906-157.816406-3.105469-157.835937-5.660156-.117188-14.191407-.992188-28.660157.15625-42.761719.886718-10.910156-.097656-21.855469-.632813-32.753906-.226562-4.65625.324219-8.84375.566407-13.375.09375-1.757813-.175782-14.195313-1.066407-14.800782 8.835938 6.027344 18.832031 11.054688 28.753907 15.480469 7.40625 3.300781 15.21875 5.558594 23.085937 7.449219 6.921875 1.664062 12.933594 1.773438 19.84375 2.414062-.15625 4.222657.167969 8.566407.273437 12.816407.113282 4.476562.132813 12.628906 3.339844 16.207031 4.027344 4.496094 13.699219 4.234375 19.136719 4.394531 63.929687 1.921875 127.863281 3.84375 191.792969 5.761719 5.300781.160156 7.890625.382812 10.542968-4.539062 1.882813-3.492188 2.734376-7.457032 2.507813-11.414063-.566406-9.972656 1.394531-19.695313 1.550781-29.558594.160156-10.007812.632813-20.328125 1.082032-30.125.070312-1.527343.160156-3.066406.253906-4.609375.746094-12.398437 1.011718-27.503906-13.023438-32.429687-5.476562-1.921875-11.421875-1.851563-17.226562-1.761719-5.589844.089844-11.179688.179688-16.769532.265625-55.390624.792969-110.761718 1.546875-166.15625 2.304687-4.109374.054688-15.53125-1.867187-18.375 1.550782-2.875 3.460937-.441406 13.703125-.335937 17.867187.050781 2.066407.289063 29.757813.757813 29.792969-7.019532-.535156-13.140626-.84375-19.925782-2.929688-7.394531-2.277343-14.640625-5.074218-21.488281-8.691406-3.90625-2.0625-8.183594-3.546875-12.0625-5.722656-4.445313-2.492188-7.703125-6.214844-11.914063-9.0625-1.742187-1.179688-5.082031-2.039062-6.097656-3.996094-1.449218-2.792968.5-7.585937.378906-10.613281-.222656-5.570313-.453124-11.140625-.617187-16.714844-.328125-11.160156-.5-22.324219-.597656-33.488281-.199219-22.328125-.097657-44.65625-.367188-66.980469-.03125-2.640625.019531-33.027343-.390625-33.007812 19.152344-.945313 40.476563-17.371094 43.953125-36.542969 2.839844-15.664062-2.621093-32.796875-13.238281-44.519531-8.128906-8.964844-19.605469-14.503907-31.851562-13.523438.082031-.007812-.105469-8.191406-.070313-8.953125.578125-12.9375.980469-25.890625 1.273437-38.839844.195313-8.648437.339844-17.300781.289063-25.953124-.035156-5.703126 1.339844-15.714844-1.664063-20.828126 18.125.480469 36.171876-.644531 54.28125-.644531 17.175782.039063 34.351563.082031 51.523438.121094 34.347656.085937 68.695312.167969 103.046875.25 28.878906 0 57.761719.140625 86.644531.207031 27.609375.066406 55.539063-1.054687 82.960938-.714844 2.789062 14.183594 1.640625 29 1.609375 43.363282-.019531 8.945312.027343 17.890625.140625 26.839844.007812.871093.253906 3.78125.484375 7.230468.335937 4.980469.148437 10.089844-.136719 15.191406zm-300.179688 245.726563c1.058594.011719 2.324219.023437 3.761719.03125 4.585938.03125 10.933594.050781 17.957031.0625 14.042969.019531 30.804688.007813 41.699219 0 5.597657-.003906 9.640625-.011719 10.972657-.003906 20.574218.050781 41.5-.136719 61.738281-.316407 22.550781-.203124 45.875-.410156 68.746093-.289062 4.839844.027344 8.195313 1.113281 10.265626 3.324219 4.011718 4.28125 3.46875 13.277343 2.945312 21.972656-.09375 1.578125-.1875 3.15625-.257812 4.714844l-3.070313 67.507812-200.191406-2.574219c-2.691407-.035156-5.746094-.074218-7.847657-1.316406-3.894531-2.304687-4.570312-8.472656-4.714843-14.203125zm0 0"/><path d="m59.824219 3.363281c-.042969-.21875-.109375-.425781-.191407-.628906.082032.199219.148438.40625.191407.628906zm0 0"/><path d="m248.484375 194.09375c1.296875.210938 2.605469.3125 3.921875.3125 9.203125 0 18.609375-5.011719 23.859375-13.039062 7.785156-11.902344 3.492187-26.074219-4.214844-34.839844-7.035156-8-17.835937-10.378906-28.199219-6.210938-11.609374 4.675782-19.058593 15.679688-18.539062 27.386719.570312 12.78125 10.746094 24.371094 23.171875 26.390625zm-1.992187-47.21875c7.605468-3.0625 15.175781-1.449219 20.246093 4.320312 5.941407 6.757813 9.363281 17.507813 3.613281 26.300782-4.523437 6.914062-13.050781 10.871094-20.734374 9.621094-9.089844-1.476563-16.820313-10.328126-17.242188-19.726563-.445312-10.011719 7.007812-17.652344 14.117188-20.515625zm0 0"/><path d="m250.726562 179.785156c.65625.105469 1.316407.15625 1.976563.15625 4.46875 0 8.90625-2.382812 11.480469-6.316406 3.265625-4.992188 2.453125-11.769531-2.019532-16.859375-3.421874-3.890625-8.671874-5.046875-13.695312-3.023437-5.613281 2.261718-9.21875 7.589843-8.964844 13.261718.273438 6.1875 5.207032 11.800782 11.222656 12.78125zm-.75-22.292968c3.445313-1.386719 6.867188-.660157 9.15625 1.941406 2.710938 3.089844 4.28125 7.988281 1.671876 11.980468-2.0625 3.148438-5.9375 4.953126-9.425782 4.382813-4.132812-.671875-7.648437-4.695313-7.839844-8.972656-.203124-4.550781 3.195313-8.027344 6.4375-9.332031zm0 0"/><path d="m232.464844 296.773438c6.179687 1.003906 12.441406 1.503906 18.730468 1.503906 18.457032 0 37.191407-4.292969 55.054688-12.710938 23.03125-10.855468 43.152344-28.203125 56.660156-48.851562 16.324219-24.953125 22.355469-54.390625 17.445313-85.132813-4.472657-28.011719-18.089844-56.125-38.339844-79.160156-16.9375-19.261719-38.546875-31.769531-62.492187-36.167969-21.925782-4.023437-45.445313-1.34375-68.03125 7.75-25.203126 10.148438-47.769532 27.832032-63.535157 49.789063-17.058593 23.753906-25.414062 51.066406-24.175781 78.988281 2.667969 60.054688 50.40625 114.515625 108.683594 123.992188zm-81.226563-200.621094c15.324219-21.34375 37.257813-38.535156 61.761719-48.402344 15.617188-6.289062 31.226562-9.371094 46.277344-9.371094 30.378906 0 58.476562 12.570313 79.703125 36.710938 19.753906 22.46875 33.03125 49.863281 37.386719 77.132812 4.75 29.730469-1.070313 58.183594-16.835938 82.28125-24.039062 36.75-66.894531 59.695313-108.738281 59.695313-5.929688-.003907-11.847657-.464844-17.679688-1.410157-27.367187-4.453124-53.304687-19.394531-73.027343-42.082031-19.570313-22.507812-31.03125-50.246093-32.269532-78.105469-1.199218-27.003906 6.898438-53.441406 23.421875-76.449218zm0 0"/><path d="m157.15625 372.238281c.566406.078125 1.113281.117188 1.644531.117188 5.769531-.003907 9.210938-4.460938 10.011719-8.960938.925781-5.230469-1.503906-11.265625-7.953125-12.671875-3.695313-.804687-7.214844.339844-9.636719 3.144532-2.828125 3.273437-3.714844 8.148437-2.214844 12.125 1.316407 3.488281 4.210938 5.703124 8.148438 6.246093zm-2.875-15.730469c.835938-.96875 2.207031-2.003906 4.253906-2.003906.453125 0 .941406.054688 1.460938.167969 4.140625.902344 5.410156 4.789063 4.835937 8.019531-.523437 2.9375-2.691406 6.152344-7.125 5.546875-3.082031-.425781-4.378906-2.230469-4.921875-3.671875-.960937-2.550781-.332031-5.941406 1.496094-8.058594zm0 0"/><path d="m337.421875 371.242188c5.867187 0 9.292969-4.363282 10.03125-8.757813.828125-4.929687-1.660156-10.605469-8.011719-11.914063-3.824218-.789062-7.410156.40625-9.839844 3.277344-2.613281 3.085938-3.421874 7.609375-2.007812 11.253906 1.304688 3.375 4.214844 5.515626 8.183594 6.03125.570312.074219 1.117187.109376 1.644531.109376zm-6.0625-7.601563c-.878906-2.269531-.335937-5.222656 1.324219-7.1875 1.035156-1.222656 2.90625-2.554687 5.945312-1.925781 4.046875.835937 5.347656 4.261718 4.839844 7.289062-.511719 3.042969-2.941406 5.859375-7.167969 5.3125-2.476562-.320312-4.183593-1.527344-4.941406-3.488281zm0 0"/><path d="m344.050781 417.308594c-3.824219-.785156-7.414062.40625-9.839843 3.277344-2.617188 3.085937-3.421876 7.609374-2.011719 11.253906 1.308593 3.375 4.214843 5.519531 8.1875 6.035156.566406.074219 1.113281.109375 1.640625.109375 5.871094 0 9.292968-4.363281 10.035156-8.761719.824219-4.929687-1.660156-10.605468-8.011719-11.914062zm4.027344 11.246094c-.511719 3.042968-2.9375 5.859374-7.171875 5.3125-2.472656-.320313-4.179688-1.527344-4.941406-3.488282-.878906-2.269531-.332032-5.222656 1.328125-7.183594 1.035156-1.226562 2.90625-2.554687 5.941406-1.929687 4.050781.835937 5.351563 4.261719 4.84375 7.289063zm0 0"/><path d="m161.949219 416.039062c-3.824219-.789062-7.414063.40625-9.84375 3.273438-2.609375 3.089844-3.417969 7.613281-2.007813 11.253906 1.308594 3.375 4.214844 5.519532 8.1875 6.035156.566406.074219 1.113282.109376 1.640625.109376 5.871094 0 9.292969-4.363282 10.035157-8.757813.824218-4.929687-1.660157-10.605469-8.011719-11.914063zm4.023437 11.242188c-.507812 3.042969-2.941406 5.863281-7.167968 5.316406-2.472657-.324218-4.183594-1.527344-4.941407-3.488281-.878906-2.269531-.332031-5.226563 1.324219-7.1875 1.039062-1.222656 2.90625-2.550781 5.945312-1.925781 4.050782.832031 5.347657 4.257812 4.839844 7.285156zm0 0"/></svg>