<?xml version="1.0" encoding="iso-8859-1"?>
<!-- Generator: Adobe Illustrator 18.0.0, SVG Export Plug-In . SVG Version: 6.00 Build 0)  -->
<!DOCTYPE svg PUBLIC "-//W3C//DTD SVG 1.1//EN" "http://www.w3.org/Graphics/SVG/1.1/DTD/svg11.dtd">
<svg version="1.1" id="Capa_1" xmlns="http://www.w3.org/2000/svg" xmlns:xlink="http://www.w3.org/1999/xlink" x="0px" y="0px"
	 viewBox="0 0 210.396 210.396" style="enable-background:new 0 0 210.396 210.396;" xml:space="preserve">
<g>
	<path d="M203.14,202.071c-0.092-0.182-0.184-0.364-0.276-0.546c-0.131-0.259-0.454-0.263-0.672-0.125
		c-0.06-0.094-0.134-0.17-0.223-0.235c-0.157-4.452,2.022-5.429-3.803-8.976c-0.917-0.559-1.969-0.967-3.088-1.295
		c-3.973-9.124-6.003-18.507-5.98-27.916c0.723-0.223,0.734-1.197,0.065-1.552c0.224-8.268,1.989-16.546,5.603-24.676
		c0.207-0.466,0.113-0.904-0.11-1.25c0.182-0.314,0.376-0.62,0.551-0.938c1.216,0.069,2.434,0.118,3.65,0.189
		c0.567,0.033,0.841-0.357,0.904-0.789c4.156-3.313,3.123-10.302-1.797-12.396c-0.616-0.262-1.187,0.024-1.497,0.456
		c-15.274-1.014-30.831-1.918-46.122-0.608c14.606-9.606,20.838-33.181,24.685-48.676c3.479-14.012,4.385-32.899-11.107-38.349
		c-12.39-8.373-24.426,4.663-36.836,7.094c2.524-4.252,1.93-9.496,1.647-14.341c-0.131-2.253-0.352-4.531-0.663-6.796
		c6.564,4.19,14.397,5.472,21.932,2.937c9.226-3.104,13.029-11.5,19.488-17.99c0.616-0.619,0.332-1.71-0.513-1.942
		c-13.282-3.639-37.77-8.281-42.411,9.971c-0.409-1.294-0.869-2.571-1.456-3.803c-1.19-2.499-3.788-7.588-7.274-7.551
		c-2.386,0.025-3.424,1.514-3.427,3.523c-0.535,0.108-0.99,0.614-0.615,1.214c6.744,10.78,10.031,22.5,10.971,35.102
		c-0.402,0.032-0.803,0.094-1.206,0.099c-13.772-8.214-28.947-15.248-39.16,2.1c-11.095,18.847-3.475,54.462,8.11,71.915
		c0.522,1.077,1.207,2.013,2.014,2.818c-19.733,0.361-39.821,0.21-59.462,1.968c-7.125,0.638-12.81,1.161-17.724,6.928
		c-6.692,7.854-9.576,22.416-9.414,36.595c-0.076,0.001-0.151,0.001-0.226,0.002c-0.682,0.008-0.683,1.052,0,1.06
		c0.087,0.001,0.175,0.002,0.262,0.003c0.235,10.553,2.132,20.798,5.422,27.785c-0.209,0.186-0.199,0.62,0.136,0.678
		c0.065,0.011,0.131,0.016,0.196,0.027c0.142,0.283,0.267,0.607,0.413,0.878c11.623,21.531,48.626,14.563,68.694,14.976
		c39.851,0.821,78.826-3.864,118.48-6.378c0.022-0.001,0.036-0.013,0.058-0.016c0.208,0.087,0.452,0.116,0.704,0.009
		c0.288-0.122,0.576-0.245,0.865-0.368C203.234,202.755,203.27,202.328,203.14,202.071z M153.319,19.282
		c-7.962,4.576-17.636,3.706-25.176-1.163c-0.141-0.091-0.264-0.052-0.396-0.067c-0.041-0.224-0.108-0.441-0.157-0.663
		c13.487-0.225,26.905-3.934,38.256-11.322C162.043,10.843,158.663,16.21,153.319,19.282z M127.458,14.905
		c6.245-15.749,22.958-13.176,36.566-10.259c-11.597,6.222-23.381,10.309-36.661,11.75c0,0-0.004,0.003-0.006,0.003
		c-0.093-0.368-0.169-0.74-0.262-1.108C127.244,15.226,127.379,15.105,127.458,14.905z M193.322,134.855
		c-0.287,0.064-0.55,0.259-0.723,0.628c-1.911,4.056-3.367,8.235-4.386,12.475c-0.146-0.257-0.363-0.472-0.72-0.519
		c-38.29-5.07-77.12-5.946-115.653-3.617c-0.995,0.06-1.012,1.594,0,1.562c38.786-1.254,77.027,0.396,115.653,3.952
		c0.215,0.02,0.342-0.078,0.48-0.158c-0.867,3.943-1.399,7.928-1.505,11.918c-51.039-3.782-102.49-5.221-153.654-5.306
		c-0.887-0.001-0.884,1.348,0,1.376c51.236,1.611,102.423,3.899,153.643,5.825c0.016,3.949,0.363,7.891,1.141,11.777
		c-44.493-1.661-89.101-2.384-133.623-2.451c-0.42-0.001-0.417,0.632,0,0.651c44.632,1.982,89.381,3.311,134.057,3.688
		c0.714,3.052,1.586,6.079,2.789,9.029c-52.06,1.563-103.914,0.446-155.942-1.433c-0.47-0.017-0.46,0.689,0,0.725
		c51.822,4.017,104.036,4.227,155.96,2.53c0.288-0.01,0.502-0.13,0.649-0.301c0.471,1.069,0.87,2.158,1.407,3.207
		c-6.751-1.156-15.484,0.451-20.676,1.028c-20.221,2.247-39.788,8.451-60.334,7.267c-15.265-0.88-29.296,0.028-44.537,0.386
		c-8.673,0.204-22.003,0.571-30.05-2.325c-5.338-1.921-9.313-5.519-12.15-9.94c0.175-0.204,0.087-0.607-0.263-0.61
		c-0.04,0-0.081,0.001-0.121,0c-3.98-6.551-5.539-14.79-5.213-22.194c1.658-37.757,35.209-33.428,61.908-33.186
		c37.376,0.338,74.706,1.567,112.023,3.638C193.427,134.6,193.375,134.728,193.322,134.855z M115.426,6.025
		c1.2-6.516,8.355,5.383,8.793,6.544c1.172,3.112,1.692,6.357,2.084,9.639c0.636,5.324,1.589,12.142-0.425,17.38
		C125.789,27.538,121.991,16.188,115.426,6.025z M90.606,108.478c5.417,0.06,10.837,0.173,16.253,0.017
		c0.754-0.022,0.755-1.15,0-1.171c-5.574-0.161-11.155-0.036-16.73,0.023c-1.196-2.747-2.225-5.589-3.169-8.465
		c0.024,0.002,0.032,0.024,0.058,0.024c9.7-0.103,19.41-0.345,29.101-0.768c0.856-0.038,0.866-1.354,0-1.339
		c-9.701,0.169-19.41,0.521-29.101,1.01c-0.156,0.008-0.264,0.08-0.352,0.167c-0.805-2.535-1.479-5.118-2.078-7.719
		c6.769,0.517,13.5,0.721,20.285,0.313c0.722-0.043,0.736-1.142,0-1.134c-6.831,0.077-13.668,0.138-20.497-0.083
		c-0.569-2.583-1.032-5.191-1.384-7.809c17.234,0.394,34.436,1.451,51.628,2.713c0.989,0.073,0.958-1.421,0-1.525
		c-17.217-1.864-34.457-2.585-51.765-2.69c-0.271-2.3-0.426-4.604-0.524-6.908c9.965,0.419,19.884,0.098,29.808-0.909
		c0.962-0.098,0.985-1.606,0-1.525c-9.936,0.817-19.877,1.141-29.843,1.072c-0.078-2.932,0.04-5.848,0.266-8.75
		c14.919,0.296,29.873,0.332,44.791-0.002c0.933-0.021,0.934-1.429,0-1.45c-14.869-0.333-29.773-0.297-44.643-0.003
		c0.118-1.198,0.183-2.405,0.365-3.592c0.259-1.687,0.666-3.313,1.146-4.9c0.433,0.094,0.866,0.188,1.3,0.283
		c0.286,0.158,0.503-0.059,0.52-0.301c8.268-0.037,16.512-0.167,24.784,0.215c1.108,0.051,1.087-1.627,0-1.711
		c-8.64-0.667-17.39-0.938-26.037-0.161c1.011-2.78,2.409-5.327,4.185-7.558c8.617,0.018,17.216,0.356,25.821,0.789
		c1.096,0.055,1.073-1.603,0-1.692c-8.162-0.679-16.336-0.786-24.517-0.564c3.136-3.314,7.274-5.735,12.624-6.706
		c6.458-1.172,14.395,3.39,19.754,6.791c-0.08,0.388,0.109,0.844,0.629,0.878c0.234,0.015,0.469-0.013,0.704-0.008
		c5.828,3.856,10.079,7.84,17.103,9.527c0.663,0.159,0.894-0.769,0.277-1.004c-4.563-1.739-9.875-5.135-15.489-8.551
		C137.32,42.3,148.8,30.765,159.59,34.569c0.066,0.265,0.212,0.511,0.552,0.638c29.997,11.197,5.531,75.487-14.543,86.82
		c-8.332,0.909-13.244-7.245-20.559-9.636c0.888-0.627,1.794-1.231,2.804-1.7c1.06-0.492,0.302-2.143-0.781-1.852
		c-2.058,0.554-3.695,1.662-5.224,2.938c-0.42-0.025-0.836-0.061-1.275-0.042c-0.752,0.033-0.741,1.081-0.018,1.163
		c-1.65,1.496-3.265,3.079-5.251,4.257c-5.862,3.478-15.501,4.74-20.642-0.466c-0.016-0.085,0.017-0.159-0.035-0.25
		C93.151,113.886,91.838,111.209,90.606,108.478z M135.019,121.572c-6.85-0.998-14.133-1.208-21.178-1.142
		c0.553-0.244,1.113-0.475,1.646-0.757c3.006-1.588,5.367-3.974,7.948-6.068C127.495,115.134,131.179,118.842,135.019,121.572z
		 M13.994,142.472c0.575-1.155,1.177-2.237,1.802-3.26c0.031,0.165,0.112,0.318,0.32,0.382c3.148,0.97,6.471,1.1,9.608,0.019
		c0.695-0.239,0.42-1.299-0.307-1.111c-3.054,0.79-5.966,0.944-9.03,0.106c-0.084-0.023-0.141,0.016-0.211,0.028
		c1.339-2.106,2.795-3.907,4.339-5.492c4.106-0.055,8.213,0.124,12.302,0.5c0.683,0.063,0.843-1.08,0.163-1.205
		c-3.599-0.662-7.16-0.936-10.769-0.937c2.554-2.244,5.359-3.884,8.342-5.145c8.886-0.88,17.775-1.261,26.723-1.191
		c0.904,0.007,0.889-1.339,0-1.395c-6.607-0.409-13.174-0.228-19.717,0.381c6.306-1.413,13.21-1.734,20.453-2.027
		c12.756-0.516,25.506-1.103,38.251-1.832c0.066-0.004,0.092-0.056,0.149-0.072c2.295,1.47,5.143,2.221,8.116,2.255
		c1.936,0.022,3.862-0.248,5.731-0.747c8.376,0.95,17.346,1.744,25.694,1.198c0.246-0.016,0.405-0.19,0.506-0.39
		c3.359,2.106,6.882,3.189,10.913,1.2c0.306-0.151,0.396-0.386,0.422-0.632c0.021,0.003,0.027,0.021,0.05,0.022
		c16.295,0.855,32.603,0.532,48.902,1.627c0.555,0.037,0.912-0.225,1.113-0.586c2.535,1.953,3.048,6.045,1.01,8.6
		c-0.005,0-0.007-0.006-0.012-0.006c-46.755-2.674-94.048-5.372-140.893-4.166c-18.044,0.464-31.526,7.277-36.974,21.013
		c-0.029-0.005-0.039-0.031-0.071-0.032c-3.054-0.134-6.138,0.021-9.202,0.115C12.252,146.947,12.995,144.48,13.994,142.472z
		 M11.538,150.739c2.995,0.089,6.008,0.229,8.997,0.121c-1.379,3.931-2.168,8.366-2.21,13.385c-0.021-0.003-0.028-0.022-0.051-0.023
		c-2.546-0.066-5.091-0.048-7.637-0.02C10.561,159.492,10.835,154.844,11.538,150.739z M59.164,206.606
		c-13.958-0.501-32.987-0.933-41.803-12.333c3.595,0.352,7.223,0.348,10.826,0.099c0.735-0.051,0.743-1.198,0-1.153
		c-3.924,0.242-7.806,0.127-11.705-0.089c-1.242-1.859-2.243-3.975-2.926-6.408c-1.53-5.451-2.666-13.427-2.884-21.401
		c2.534,0.027,5.067,0.045,7.602-0.021c0.014,0,0.018-0.013,0.031-0.014c0.017,1.543,0.09,3.129,0.24,4.773
		c0.122,1.337,0.327,2.573,0.541,3.797c-0.051-0.057-0.05-0.149-0.151-0.156c-1.973-0.132-3.972-0.027-5.95-0.009
		c-0.419,0.004-0.419,0.647,0,0.651c1.977,0.018,3.976,0.123,5.95-0.009c0.127-0.008,0.143-0.115,0.19-0.197
		c0.874,4.809,2.419,8.795,4.517,12.082c-3.112-0.014-6.224,0.008-9.335,0.025c-0.431,0.002-0.431,0.667,0,0.669
		c3.256,0.018,6.512,0.046,9.767,0.026c9.11,13.343,27.737,14.621,46.444,13.774c9.679-0.438,18.854-2.32,28.578-1.698
		c10.09,0.646,19.515,2.189,29.671,1.342c12.208-1.018,67.514-16.571,71.853,0.716C153.819,207.085,106.281,208.297,59.164,206.606z
		"/>
	<path d="M108.181,113.878c-4.629-0.08-9.254-0.005-13.883,0.047c-0.766,0.008-0.767,1.181,0,1.19
		c4.629,0.051,9.254,0.127,13.883,0.046C109.006,115.147,109.008,113.893,108.181,113.878z"/>
	<path d="M46.039,202.169c-5.999-0.363-11.93-1.239-17.77-2.656c-0.36-0.087-0.514,0.465-0.153,0.556
		c5.913,1.49,11.833,2.378,17.923,2.657C46.399,202.743,46.396,202.19,46.039,202.169z"/>
</g>
<g>
</g>
<g>
</g>
<g>
</g>
<g>
</g>
<g>
</g>
<g>
</g>
<g>
</g>
<g>
</g>
<g>
</g>
<g>
</g>
<g>
</g>
<g>
</g>
<g>
</g>
<g>
</g>
<g>
</g>
</svg>
