<?xml version="1.0" encoding="iso-8859-1"?>
<!-- Generator: Adobe Illustrator 18.0.0, SVG Export Plug-In . SVG Version: 6.00 Build 0)  -->
<!DOCTYPE svg PUBLIC "-//W3C//DTD SVG 1.1//EN" "http://www.w3.org/Graphics/SVG/1.1/DTD/svg11.dtd">
<svg version="1.1" id="Capa_1" xmlns="http://www.w3.org/2000/svg" xmlns:xlink="http://www.w3.org/1999/xlink" x="0px" y="0px"
	 viewBox="0 0 207.859 207.859" style="enable-background:new 0 0 207.859 207.859;" xml:space="preserve">
<g>
	<path d="M177.687,202.802c-0.134-4.202-0.283-8.399-0.638-12.589c-0.047-0.551-0.386-0.902-0.794-1.066
		c-0.209-0.398-0.589-0.7-1.181-0.692c-23.324,0.318-46.646,0.729-69.969,1.103c-5.474,0.088-11.039,0.32-16.641,0.57
		c0.074-0.108,0.152-0.212,0.198-0.355c0.448-1.393,0.902-2.801,1.356-4.213c-0.001,0.221,0.149,0.44,0.457,0.467
		c6.759,0.592,13.716,0.141,20.489-0.082c0.871-0.029,0.877-1.353,0-1.357c-6.777-0.034-13.748-0.288-20.489,0.491
		c-0.293,0.034-0.442,0.248-0.451,0.465c0.719-2.237,1.428-4.515,2.134-6.79c0.081,0.061,0.17,0.116,0.293,0.107
		c5.306-0.366,10.544-0.667,15.864-0.403c1.014,0.05,1.019-1.55,0-1.58c-5.293-0.156-10.632,0.001-15.856,0.921
		c0.829-2.694,1.623-5.413,2.382-8.141c9.58,0.242,19.158-0.139,28.679-1.246c0.838-0.098,0.868-1.413,0-1.339
		c-9.45,0.809-18.881,1.259-28.359,1.369c0.784-2.878,1.5-5.769,2.144-8.662c4.994,0.049,9.982,0.073,14.976,0
		c0.813-0.012,0.815-1.252,0-1.264c-4.897-0.072-9.789-0.047-14.685,0c0.71-3.327,1.298-6.657,1.711-9.975
		c1.356,0.292,2.678,0.567,3.919,0.809c9.53,1.862,18.913,1.885,27.711-0.274c2.239,13.034,5.048,26.825,10.233,39.036
		c0.529,1.247,2.424,0.335,2.124-0.895c-3.157-12.956-7.45-25.621-10.512-38.637c7.795-2.209,15.099-6.174,21.58-12.197
		c32.203-29.931,20.857-78.653-11.183-103.497c-0.085-0.066-0.176-0.093-0.265-0.134c1.586-2.848,3.362-5.592,5.339-8.188
		c0.759,0.341,1.514,0.694,2.286,0.991c0.049,0.246,0.173,0.472,0.474,0.54c2.889,0.656,5.66-0.595,7.503-2.851
		c1.28-1.567,2.763-5.101,1.448-7.084c0.087-0.489-0.068-1.002-0.613-1.27c-10.106-4.966-20.504-9.323-30.605-14.352
		c-0.04-0.037-0.059-0.083-0.107-0.116c-2.087-1.433-4.958,1.108-5.968,2.838c-1.181,2.022-1.261,4.434,0.161,6.268
		c-0.18,0.267-0.205,0.625,0.09,0.886c2.552,2.253,5.646,3.941,8.766,5.528c-1.171,1.592-2.099,3.402-2.981,5.203
		c-0.377,0.125-0.511,0.504-0.398,0.808c-0.262,0.539-0.538,1.093-0.796,1.614c-1.378,2.782-2.65,5.609-3.875,8.46
		c-19.742,1.136-37.436,32.412-45.224,46.201c-0.152,0.269-0.166,0.524-0.113,0.757c-1.585-0.567-3.178-1.141-4.76-1.707
		c-0.211-0.502-0.773-0.913-1.336-0.813c-0.321,0.057-0.58,0.213-0.876,0.312c-0.025,0.013-0.054,0.012-0.077,0.028
		c-5.128,1.781-6.47,9.461-3.665,13.561c0.334,0.488,0.839,0.522,1.203,0.303c10.69,7.12,23.049,12.082,35.036,16.567
		c5.538,2.072,21.369,10.463,26.912,7.684c0.418-0.209,0.736-0.757,0.739-1.238c1.598-1.111,2.873-2.61,3.684-4.446
		c0.841-1.904,1.86-5.31,0.209-7.008c-0.025-0.025-0.062-0.032-0.089-0.054c0.224-0.49,0.16-1.099-0.424-1.358
		c-0.426-0.189-0.865-0.358-1.292-0.545c0.053-0.103,0.114-0.197,0.142-0.33c1.874-8.955,9.017-30.015,8.58-46.357
		c16.023,20.869,19.421,51.278-0.027,71.266c-21.993,22.604-61.762,4.752-80.635-14.267c-0.517-0.52-1.161-0.11-1.266,0.439
		c-0.02-0.005-0.029-0.023-0.049-0.026c-2.171-0.387-4.313,1.618-5.429,3.315c-1.136,1.728-1.547,3.863-1.133,5.879
		c-0.306,0.178-0.532,0.491-0.396,0.885c5.503,15.965,27.82,23.385,44.139,27.067c-4.522,13.322-7.395,27.431-11.392,40.926
		c-0.143,0.484-0.011,0.869,0.239,1.153c-18.268,0.826-36.933,1.73-54.535-1.346c-1.033-0.181-1.486,1.115-0.782,1.611
		c-0.968,4.49-1.381,10.287,0.267,14.555c0.401,1.039,2.014,0.96,2.027-0.274c0.008-0.769-0.095-1.534-0.17-2.3
		c5.013,0.428,10.034,0.2,15.019-0.462c0.641-0.085,0.654-1.105,0-1.023c-5.02,0.634-10.023,0.791-15.071,0.783
		c-0.163-1.423-0.348-2.847-0.391-4.281c-0.012-0.393,0.012-0.783,0.014-1.175c10.213-0.258,20.43-0.388,30.646-0.178
		c0.72,0.015,0.716-1.088,0-1.115c-10.234-0.388-20.427-0.278-30.636,0.469c0.033-1.508,0.109-3.011,0.21-4.519
		c21.028,4.085,43.097,1.942,64.397,1.601c25.785-0.411,51.571-0.785,77.357-1.259c0.27,3.751,0.674,7.486,1.11,11.222
		c-47.154-0.343-95.115,0.447-142.172,3.413c-0.961,0.061-0.977,1.484,0,1.506c47.334,1.085,95.496-0.065,142.789-2.316
		c1.098-0.052,1.465-1.154,1.115-1.908C177.597,203.094,177.693,202.992,177.687,202.802z M124.556,9.494
		c0.01-0.105,0.051-0.202,0.005-0.32c-0.59-1.506-0.534-3.226,0.309-4.63c0.385-0.642,0.921-1.219,1.583-1.579
		c0.44-0.239,0.904-0.355,1.358-0.495c9.222,5.786,19.519,11.266,29.926,14.596c0.04,0.542,0.117,1.082,0.081,1.66
		c-0.062,1.021-0.473,2.025-1.013,2.881c-0.925,1.464-2.323,2.48-3.941,2.861c-0.079-0.189-0.159-0.382-0.338-0.514
		c-4.541-3.355-10.046-5.679-15.057-8.278C133.299,13.513,129.086,10.842,124.556,9.494z M127.52,28.027
		c3.734-0.087,7.509-0.105,11.205-0.574c0.634-0.08,0.678-1.008,0-1.023c-3.545-0.076-7.117,0.266-10.662,0.564
		c0.526-0.995,1.025-2.004,1.571-2.988c0.316-0.57,0.669-1.144,1.01-1.714c3.094-0.052,6.164,0.073,9.241,0.57
		c0.847,0.137,1.228-1.135,0.361-1.309c-2.907-0.581-5.823-0.828-8.758-0.693c0.768-1.288,1.512-2.592,2.104-3.944
		c1.145,0.573,2.284,1.143,3.383,1.731c3.016,1.614,6.046,3.38,9.154,4.924c-3.362,4.601-5.958,9.565-7.888,14.936
		c-1.962-2.763-4.73-4.815-8.54-5.854c-1.433-0.39-2.858-0.595-4.275-0.647C126.109,30.673,126.826,29.356,127.52,28.027z
		 M133.617,102.682c-0.667,1.593-0.209,3.507-0.875,5.209c-0.542,1.382-1.417,2.583-2.495,3.571
		c-0.106-0.02-0.203-0.062-0.321-0.051c-0.22,0.022-0.44,0.045-0.66,0.067c-0.649,0.066-1.154,0.396-1.359,1.034
		c-0.065,0.204-0.13,0.407-0.195,0.611c-6.938-2.752-27.003-10.279-29.25-11.165c-3.568-1.408-7.078-2.952-10.579-4.519
		c2.845,0.039,5.689,0.067,8.533-0.024c0.526-0.017,0.527-0.801,0-0.818c-3.473-0.112-6.946-0.051-10.419,0
		c-5.595-2.52-11.176-5.071-16.895-7.277c-0.646-1.554-0.752-3.325-0.406-4.981c3.071-0.009,6.14-0.009,9.21-0.089
		c0.598-0.015,0.599-0.914,0-0.93c-2.958-0.077-5.916-0.076-8.874-0.086c0.054-0.155,0.082-0.321,0.144-0.472
		c0.7-1.706,1.892-2.716,3.234-3.754C92.544,87.307,112.941,95.862,133.617,102.682z M131.196,99.248
		c-0.002,0.008,0.002,0.015,0,0.023c-16.705-7.218-33.979-13.514-51.144-19.659c0.092-0.077,0.182-0.158,0.255-0.278
		c0.417-0.683,0.861-1.416,1.313-2.161c6.251,0.292,12.501,0.585,18.756,0.777c0.815,0.025,0.811-1.231,0-1.264
		c-6.04-0.247-12.084-0.396-18.127-0.547c1.327-2.184,2.803-4.592,4.385-7.092c4.573,0.184,9.172,0.127,13.747,0.053
		c0.67-0.011,0.671-1.03,0-1.041c-4.376-0.071-8.773-0.114-13.15,0.042c1.622-2.542,3.368-5.173,5.209-7.788
		c9.708-0.127,19.403-0.398,29.098-0.924c0.807-0.044,0.82-1.268,0-1.264c-9.361,0.038-18.708,0.321-28.059,0.732
		c2.398-3.324,4.966-6.559,7.644-9.531c5.794,0.28,11.492,0.074,17.23-0.792c0.514-0.077,0.398-0.961-0.123-0.913
		c-5.348,0.493-10.715,0.704-16.083,0.55c2.122-2.266,4.321-4.318,6.571-6.083c0.086,0.038,0.143,0.111,0.257,0.112
		c4.639,0.049,9.247,0.049,13.883-0.158c0.729-0.033,0.731-1.101,0-1.134c-4.119-0.184-8.22-0.194-12.337-0.162
		c2.592-1.814,5.247-3.211,7.945-3.998C151.543,27.105,133.798,85.632,131.196,99.248z M79.459,139.797
		c3.008,0.021,6.016,0.032,9.024-0.045c0.562-0.014,0.563-0.859,0-0.874c-3.773-0.096-7.546-0.059-11.32-0.031
		c-4.683-2.025-9.113-4.453-12.89-7.359c3.662,0.189,7.324,0.379,10.989,0.501c0.818,0.027,0.806-1.213,0-1.264
		c-4.225-0.267-8.452-0.461-12.68-0.646c-2.937-2.521-5.412-5.359-7.138-8.599c0.194-0.15,0.337-0.361,0.322-0.688
		c-0.084-1.786,0.276-3.411,1.289-4.903c1.009-1.487,2.578-1.84,3.742-3.044c0.14-0.145,0.226-0.331,0.269-0.529
		c18.18,21.307,61.218,38.73,84.031,15.383c20.794-21.282,16.854-57.129-2.129-77.877c-0.312-0.341-0.664-0.473-0.999-0.459
		c-0.428-3.482-1.271-6.669-2.747-9.316c0.12-0.09,0.25-0.165,0.317-0.329c0.674-1.66,1.444-3.277,2.258-4.872
		c26.491,22.957,40.307,60.955,17.212,91.545c-13.478,17.852-33.052,24.436-55.04,20.264
		C96.713,145.278,87.807,143.13,79.459,139.797z"/>
	<path d="M107.654,152.026c-2.202-0.26-4.405-0.487-6.611-0.707c-0.714-0.071-0.709,1.045,0,1.116
		c2.203,0.22,4.405,0.433,6.611,0.614C108.318,153.103,108.295,152.101,107.654,152.026z"/>
	<path d="M68.814,122.828c-3.351-0.484-6.71-0.901-10.068-1.333c-0.607-0.078-0.757,0.989-0.146,1.077
		c3.351,0.481,6.7,0.977,10.058,1.406C69.307,124.062,69.467,122.922,68.814,122.828z"/>
	<path d="M88.479,90.159c-5.28-0.375-10.573-0.555-15.861-0.791c-0.455-0.02-0.453,0.684,0,0.707
		c5.285,0.267,10.57,0.589,15.861,0.716C88.89,90.801,88.881,90.187,88.479,90.159z"/>
</g>
<g>
</g>
<g>
</g>
<g>
</g>
<g>
</g>
<g>
</g>
<g>
</g>
<g>
</g>
<g>
</g>
<g>
</g>
<g>
</g>
<g>
</g>
<g>
</g>
<g>
</g>
<g>
</g>
<g>
</g>
</svg>
