<?xml version="1.0" encoding="iso-8859-1"?>
<!-- Generator: Adobe Illustrator 18.0.0, SVG Export Plug-In . SVG Version: 6.00 Build 0)  -->
<!DOCTYPE svg PUBLIC "-//W3C//DTD SVG 1.1//EN" "http://www.w3.org/Graphics/SVG/1.1/DTD/svg11.dtd">
<svg version="1.1" id="Capa_1" xmlns="http://www.w3.org/2000/svg" xmlns:xlink="http://www.w3.org/1999/xlink" x="0px" y="0px"
	 viewBox="0 0 197.126 197.126" style="enable-background:new 0 0 197.126 197.126;" xml:space="preserve">
<g>
	<path d="M21.452,12.654c-0.043-0.007-0.083-0.013-0.127-0.015c-0.135-0.009-0.255-0.04-0.392-0.046
		c-0.292-0.014-0.466,0.198-0.53,0.439C12.544,20.428,6.554,29.839,5.993,40.897C5.66,47.46,7.142,57.312,13.104,61.248
		c-0.165,0.328-0.135,0.778,0.221,1.024C34.463,76.836,49.935,14.794,21.452,12.654z M16.088,61.506
		c-0.041-0.05-0.053-0.115-0.116-0.152c-3.778-2.228-5.856-6.417-6.842-11.043c3.274,0.263,6.552,0.581,9.836,0.641
		c0.491,0.009,0.462-0.688,0-0.744c-3.333-0.403-6.698-0.543-10.049-0.745c-0.423-2.335-0.55-4.755-0.487-7.089
		c2.852,0.231,5.704,0.495,8.561,0.642c0.616,0.032,0.598-0.892,0-0.948c-2.837-0.268-5.686-0.421-8.53-0.606
		c0.118-2.322,0.424-4.538,0.887-6.436c0.036-0.146,0.089-0.282,0.126-0.426c2.278,0.275,4.554,0.544,6.848,0.659
		c0.734,0.036,0.692-1.029,0-1.116c-2.18-0.273-4.368-0.404-6.558-0.525c0.388-1.326,0.881-2.597,1.417-3.844
		c2.597,0.082,5.189,0.157,7.79,0.111c0.709-0.012,0.704-1.064,0-1.097c-2.438-0.115-4.871-0.12-7.308-0.116
		c0.565-1.199,1.212-2.351,1.896-3.481c0.047,0.017,0.07,0.06,0.125,0.065c3.307,0.327,6.586,0.672,9.91,0.721
		c0.579,0.008,0.745-0.96,0.141-1.041c-3.173-0.427-6.342-0.588-9.535-0.748c1.229-1.902,2.629-3.693,4.122-5.416
		c3.073,0.465,6.153,0.971,9.251,1.167c0.622,0.039,0.767-0.972,0.148-1.096c-2.758-0.552-5.567-0.853-8.369-1.159
		c0.928-1.013,1.836-2.044,2.837-2.995c0.156-0.149,0.249-0.309,0.307-0.473C41.833,20.671,36.578,65.532,16.088,61.506z"/>
	<path d="M193.541,46.826c-3.416-3.553-9.058-3.941-12.225,0.004c-0.168,0.209-0.223,0.439-0.204,0.654
		c-46.671-13.072-93.806-25.76-141.384-35.016c-0.53-0.103-0.836,0.323-0.838,0.733c-4.074-4.918-10.105-8.064-18.446-7.983
		c-0.279,0.003-0.413,0.17-0.476,0.364c-26.465,6.452-25.214,67.648-4.536,64.744c6.447,1.573,12.105-0.06,16.728-3.673
		c0.156,0.18,0.38,0.312,0.681,0.331c7.908,0.503,15.82,0.949,23.731,1.406c8.348,18.147,16.663,36.146,24.379,54.588
		c0.011,0.022-0.003,0.042,0.01,0.064c0.074,0.118,0.167,0.214,0.244,0.329c0.017,0.019,0.028,0.045,0.046,0.063
		c0.902,1.346,1.975,2.51,3.161,3.524c-0.065,0.061-0.143,0.101-0.183,0.201c-7.517,18.904-14.054,39.436-18.848,59.2
		c-0.185,0.763,0.399,1.16,0.98,1.132c0.835,2.08,3.32,3.146,5.315,2.047c0.584,0.392,1.569,0.294,1.883-0.58
		c6.803-18.925,13.815-38.433,17.954-58.16c1.474,0.465,3.012,0.732,4.566,0.908c-0.019,0.047-0.06,0.072-0.066,0.129
		c-2.126,19.038-2.557,38.377-3.391,57.509c-0.048,1.098,1.187,1.368,1.869,0.844c1.976,2.023,6.781,2.599,8.347-0.128
		c0.541,0.318,1.37,0.107,1.4-0.724c0.663-18.234,2.101-39.775-1.485-57.912c2.473-0.633,4.627-1.911,6.042-3.811
		c9.717,18.22,19.581,36.659,30.584,54.124c-0.158,1.156-0.42,2.187-1.355,3.253c-1.055,1.203-2.429,1.825-3.961,1.929
		c-8.592-18.963-18.421-37.525-27.769-56.13c-0.2-0.398-0.907-0.113-0.731,0.308c8.005,19.141,16.589,38.452,26.971,56.436
		c-0.12,0.411,0.007,0.901,0.507,1.013c2.484,0.559,4.978-0.357,6.704-2.218c1.548-1.67,2.74-4.53,1.517-6.667
		c-0.293-0.512-0.788-0.508-1.171-0.27c-9.316-18.095-19.944-35.741-30.47-53.148c0.586-1.225,0.93-2.629,0.885-4.265
		c-0.006-0.208-0.052-0.389-0.125-0.547c3.061-16.501,7.043-32.984,9.376-49.587c18.564,0.995,37.128,2.007,55.683,3.161
		c2.399,5.155,8.855,6.99,13.903,4.563c5.249-2.523,6.451-8.011,7.134-13.312C197.252,60.231,198.22,51.693,193.541,46.826z
		 M16.001,68.569C2.077,64.654,0.576,46.727,2.659,34.419C4.574,23.103,8.645,11.631,20.532,7.567
		c0.559-0.191,0.727-0.674,0.67-1.12C39.46,8.599,45.448,27.128,42.465,43.423c-0.21,0.149-0.252,0.419-0.142,0.659
		C39.528,58.142,30.052,70.34,16.001,68.569z M71.526,187.658c-0.097,0.017-0.178-0.022-0.283,0.028
		c-1.199,0.572-2.862,0.123-3.392-1.174c-0.071-0.174-0.204-0.256-0.327-0.352c7.129-18.739,13.302-39,17.774-58.518
		c1.483,1.117,3.155,1.948,4.897,2.623C83.433,149.179,78.07,168.65,71.526,187.658z M102.358,188.671
		c-0.075-0.006-0.151-0.026-0.223-0.011c-1.066,0.219-1.905,0.936-2.999,1.143c-1.458,0.276-2.738-0.133-4.024-0.783
		c-0.057-0.029-0.107-0.008-0.163-0.021c0.992-18.99,2.394-38.146,2.089-57.163c0-0.02-0.017-0.026-0.019-0.045
		c0.488,0.037,0.97,0.12,1.46,0.13c1.018,0.02,2.019-0.085,3.002-0.248C103.707,150.385,101.38,169.843,102.358,188.671z
		 M107.674,122.238c-0.047,0.28,0.01,0.518,0.104,0.734c-0.737,7.015-9.869,6.642-15.004,5.435c-3.587-0.843-6.582-2.39-9.195-4.775
		c0.061,0.029,0.1,0.082,0.179,0.086c5.29,0.297,10.568,0.651,15.866,0.69c0.738,0.005,0.72-1.08,0-1.134
		c-5.283-0.396-10.572-0.477-15.866-0.615c-0.465-0.012-0.586,0.454-0.419,0.772c-0.062-0.059-0.132-0.103-0.193-0.162
		c0.133-0.226,0.171-0.518,0.043-0.865c-0.805-2.178-1.695-4.345-2.539-6.519c3.894,0.684,7.743,0.979,11.7,0.689
		c0.778-0.057,0.798-1.248,0-1.227c-3.924,0.102-7.865-0.023-11.754-0.573c-0.136-0.019-0.244,0.031-0.346,0.085
		c-1.252-3.201-2.574-6.387-3.908-9.568c4.204,0.271,8.519,0.079,12.7-0.201c0.604-0.04,0.616-0.934,0-0.948
		c-4.292-0.095-8.722-0.093-13.007,0.4c-1.326-3.145-2.694-6.276-4.103-9.388c4.984,0.414,10.131,0.4,15.128,0.247
		c0.765-0.023,0.767-1.166,0-1.19c-5.021-0.154-10.197-0.17-15.205,0.251c-0.111,0.009-0.111,0.109-0.166,0.173
		c-1.216-2.677-2.528-5.304-3.807-7.948c5.289,0.072,10.587,0.214,15.873,0.055c0.682-0.021,0.683-1.039,0-1.06
		c-5.436-0.163-10.886-0.007-16.325,0.062c-1.026-2.104-2.087-4.187-3.146-6.27c4.288,0.061,8.576,0.164,12.861-0.041
		c0.634-0.03,0.635-0.955,0-0.985c-4.462-0.214-8.927-0.093-13.393-0.034c-1.088-2.122-2.242-4.198-3.376-6.288
		c4.047,0.228,8.095,0.48,12.145,0.624c0.649,0.023,0.641-0.965,0-1.004c-4.214-0.255-8.435-0.396-12.653-0.565
		c-0.487-0.887-0.938-1.8-1.438-2.678c20.01,1.15,40.026,2.198,60.041,3.269C113.29,88.056,110.524,105.423,107.674,122.238z
		 M177.898,73.169c-0.196-0.293-0.502-0.517-0.944-0.549c-47.563-3.462-95.297-6.615-142.987-7.536
		c1.384-1.316,2.642-2.838,3.799-4.486c9.127,1.005,18.346,1.561,27.513,1.971c0.869,0.039,0.848-1.267,0-1.339
		c-8.926-0.75-17.92-1.36-26.885-1.549c1.471-2.245,2.72-4.744,3.758-7.384c5.516,0.252,10.904,1.031,16.362,1.938
		c0.67,0.111,0.973-0.868,0.287-1.04c-5.315-1.328-10.841-1.747-16.317-1.73c0.822-2.217,1.425-4.547,1.922-6.909
		c2.977,0.248,5.959,0.516,8.943,0.539c0.748,0.006,0.706-1.051,0-1.134c-2.887-0.339-5.8-0.449-8.708-0.57
		c0.384-2.068,0.601-4.164,0.724-6.255c3.099,0.118,6.211,0.222,9.304,0.034c0.693-0.042,0.695-1.036,0-1.078
		c-3.071-0.187-6.162-0.085-9.24,0.032c0.112-2.945-0.058-5.865-0.506-8.673c4.553,0.503,9.132,1.153,13.707,1.3
		c0.716,0.023,0.91-1.171,0.173-1.278c-4.652-0.679-9.396-0.852-14.087-1.174c-0.474-2.484-1.198-4.854-2.159-7.066
		c3.349,0.004,6.656,0.311,9.972,0.789c0.707,0.102,1.029-0.964,0.302-1.094c-3.549-0.633-7.119-0.769-10.718-0.606
		c-0.757-1.585-1.611-3.102-2.656-4.464c48.153,12.264,96.497,23.444,144.417,36.657c0.142,0.039,0.27,0.038,0.393,0.027
		c3.462,3.477,1.431,8.683,0.071,12.734C183.515,65.728,181.119,72.709,177.898,73.169z M194.059,66.09
		c-0.547,4.097-1.307,8.268-5.092,10.58c-3.994,2.44-7.454,1.161-10.481-1.467c4.233-0.255,7.163-7.41,8.299-10.519
		c1.954-5.346,3.975-11.998-1.097-16.236c-0.486-0.406-1.053-0.359-1.485-0.101c-0.454-0.127-0.91-0.253-1.365-0.381
		c1.845-0.528,3.691-1.056,5.536-1.583l4.357,3.289c1.202,1.5,1.61,4.327,1.79,6.171C194.855,59.229,194.507,62.744,194.059,66.09z"
		/>
	<path d="M16.923,56.888c-1.175,0.163-2.102-0.034-3.122-0.634c-0.3-0.176-0.576,0.298-0.272,0.465
		c1.14,0.63,2.231,0.811,3.513,0.598C17.328,57.271,17.202,56.85,16.923,56.888z"/>
	<path d="M91.023,110.284c-3.792-0.436-7.612-0.16-11.372,0.442c-0.488,0.078-0.274,0.799,0.203,0.735
		c3.735-0.502,7.414-0.468,11.169-0.285C91.607,111.205,91.579,110.348,91.023,110.284z"/>
</g>
<g>
</g>
<g>
</g>
<g>
</g>
<g>
</g>
<g>
</g>
<g>
</g>
<g>
</g>
<g>
</g>
<g>
</g>
<g>
</g>
<g>
</g>
<g>
</g>
<g>
</g>
<g>
</g>
<g>
</g>
</svg>
