<?xml version="1.0" encoding="iso-8859-1"?>
<!-- Generator: Adobe Illustrator 18.0.0, SVG Export Plug-In . SVG Version: 6.00 Build 0)  -->
<!DOCTYPE svg PUBLIC "-//W3C//DTD SVG 1.1//EN" "http://www.w3.org/Graphics/SVG/1.1/DTD/svg11.dtd">
<svg version="1.1" id="Capa_1" xmlns="http://www.w3.org/2000/svg" xmlns:xlink="http://www.w3.org/1999/xlink" x="0px" y="0px"
	 viewBox="0 0 179.229 179.229" style="enable-background:new 0 0 179.229 179.229;" xml:space="preserve">
<g>
	<path d="M178.893,14.603c0.682-3.638-2.461-7.829-5.102-9.926c-3.246-2.578-7.214-3.514-11.235-2.462
		c-0.342,0.09-0.517,0.34-0.616,0.623c-29.496,15.906-56.328,36.035-79.193,60.603c-5.668,6.09-10.82,12.82-15.803,19.772
		c-0.099,0.062-0.168,0.151-0.198,0.272c-9.576,13.385-18.492,27.629-28.941,40.085c-0.069,0.051-0.121,0.102-0.154,0.177
		c-7.062,8.394-14.828,15.967-23.997,21.873c-0.403-0.173-0.953-0.075-1.085,0.434C9.852,156.57,6.323,166.357,0.23,175.432
		c-0.822,1.224,0.74,2.419,1.869,1.869c9.404-4.577,18.914-6.664,29.275-7.597c1.346-0.121,1.639-1.747,0.821-2.397
		c0.154-0.067,0.313-0.122,0.431-0.296c11.905-17.474,29.98-25.627,46.649-37.575c13.231-9.484,24.616-21.134,35.264-33.389
		c11.363-13.077,21.803-26.926,33.196-39.978c11.287-12.931,23.32-24.457,31.308-39.811
		C179.37,15.632,179.233,15.038,178.893,14.603z M65.675,89.18c0.066,0.205,0.175,0.408,0.393,0.593
		c2.174,1.854,4.269,3.772,6.328,5.721c-3.6-0.146-7.201-0.294-10.803-0.396C62.952,93.126,64.308,91.127,65.675,89.18z
		 M31.054,166.091c-0.196,0.381-0.085,0.696,0.111,0.945c-8.055,0.112-15.943,1.981-23.426,4.893
		c1.417-1.164,2.745-2.508,4.056-3.573c3.323-2.699,6.779-5.238,10.313-7.652c0.101-0.069,0.16-0.157,0.233-0.239
		c1.865,0.844,4.273,0.282,5.771-1.316c2.094-2.234,1.869-5.838-0.906-7.385c-2.353-1.311-6.193-0.723-6.996,2.162
		c-0.042,0.15,0.009,0.275,0.03,0.41c-0.558,1.401-0.577,3.025,0.188,4.385c-3.229,2.244-6.362,4.596-9.364,7.138
		c-1.238,1.048-2.748,2.167-4.108,3.41c3.477-6.684,5.999-13.807,6.914-21.337c0.133-0.017,0.271-0.055,0.413-0.133
		c7.184-3.954,13.42-9.058,19.06-14.862c4.306,4.984,8.947,9.748,13.675,14.324C40.612,152.407,35.076,158.285,31.054,166.091z
		 M21.873,154.976c0.024-0.02,0.054-0.013,0.077-0.036c0.903-0.893,1.963-1.425,3.26-1.039c1.58,0.47,2.029,2.019,0.953,3.3
		C24.08,159.681,21.683,157.259,21.873,154.976z M60.156,138.02c-3.704,2.381-7.257,4.779-10.628,7.311
		c-0.003-0.003-0.003-0.006-0.006-0.009c-2.581-2.623-5.235-5.202-7.939-7.729c2.52,0.561,5.042,1.111,7.592,1.519
		c0.565,0.091,0.824-0.737,0.242-0.879c-3.026-0.738-6.092-1.275-9.157-1.826c-1.826-1.678-3.648-3.362-5.533-4.958
		c0.09-0.096,0.174-0.2,0.263-0.297c0.068,0.075,0.135,0.153,0.259,0.177c4.373,0.852,8.936,1.13,13.37,1.508
		c0.882,0.075,0.846-1.251,0-1.357c-4.219-0.53-8.532-1.16-12.791-1.271c1.769-1.943,3.466-3.969,5.135-6.028
		c4.302-0.175,8.569,0.223,12.8,1.207c0.581,0.135,0.828-0.744,0.247-0.896c-4.07-1.068-8.115-1.485-12.237-1.328
		c1.298-1.627,2.528-3.327,3.78-5.005c4.104,0.285,8.209,0.591,12.321,0.715c0.724,0.022,0.708-1.063,0-1.116
		c-3.861-0.289-7.732-0.416-11.601-0.552c1.188-1.61,2.299-3.294,3.458-4.934c4.269-0.12,8.545,0.101,12.781,0.65
		c0.752,0.097,0.934-1.208,0.18-1.333c-4.015-0.668-7.981-0.853-12.013-0.67c1.365-1.948,2.702-3.914,4.05-5.875
		c6.118,0.301,12.227,0.599,18.354,0.672c0.916,0.011,0.902-1.359,0-1.413c-5.804-0.346-11.608-0.485-17.419-0.615
		c1.663-2.425,3.326-4.815,4.986-7.229c4.362,0.324,8.729,0.566,13.094,0.83c0.162,0.01,0.25-0.082,0.365-0.138
		c5.953,5.754,11.61,11.755,17.614,17.507C81.918,123.303,71.369,130.812,60.156,138.02z M139.099,61.152
		c-11.843,14.045-22.977,28.726-35.565,42.129c-3.089,3.289-6.275,6.394-9.541,9.37c-2.518-3.352-5.37-6.537-8.402-9.582
		c2.211,0.427,4.438,0.783,6.68,0.958c0.483,0.038,0.577-0.727,0.114-0.84c-2.638-0.646-5.339-1.061-8.043-1.352
		c-2.275-2.22-4.664-4.333-7.07-6.403c4.716,1.003,9.424,2.024,14.171,2.872c0.685,0.123,0.989-0.904,0.292-1.058
		c-4.814-1.063-9.661-1.942-14.506-2.848c-0.34-0.064-0.559,0.184-0.604,0.447c-2.854-2.434-5.748-4.778-8.611-7.018
		c-0.372-0.291-0.784-0.352-1.165-0.282c0.773-1.085,1.571-2.132,2.355-3.199c6.574,0.953,13.145,1.888,19.739,2.705
		c0.535,0.066,0.667-0.87,0.128-0.95c-6.406-0.951-12.821-1.784-19.243-2.605c1.621-2.184,3.278-4.314,4.969-6.394
		c0.09,0.054,0.154,0.136,0.277,0.149c6.609,0.69,13.201,1.425,19.839,1.755c0.616,0.031,0.777-1.006,0.148-1.096
		c-6.402-0.918-12.833-1.458-19.272-2.025c0.244-0.292,0.477-0.599,0.723-0.887c1.424-1.667,2.928-3.252,4.388-4.883
		c0.048,0.004,0.066,0.047,0.12,0.043c6.778-0.456,13.515-0.231,20.244,0.721c1.185,0.167,1.69-1.649,0.499-1.811
		c-6.439-0.873-12.844-1.092-19.315-0.676c2.878-3.161,5.826-6.251,8.834-9.274c0.092,0.073,0.18,0.155,0.322,0.167
		c5.726,0.508,11.442,0.978,17.186,1.223c0.67,0.029,0.638-0.95,0-1.023c-5.47-0.621-10.947-1.034-16.437-1.409
		c2.309-2.297,4.67-4.535,7.051-6.752c6.191,0.675,12.423,1.06,18.637,1.382c0.77,0.04,0.756-1.13,0-1.19
		c-5.907-0.467-11.839-0.866-17.769-1.024c2.836-2.618,5.736-5.161,8.67-7.665c6.992,0.733,13.979,1.451,20.991,1.985
		c0.71,0.054,0.69-1.023,0-1.097c-6.632-0.713-13.271-1.257-19.918-1.784c3.211-2.715,6.527-5.302,9.847-7.882
		c3.775,0.219,7.534,0.684,11.221,1.532c0.838,0.193,1.187-1.052,0.356-1.291c-3.448-0.992-6.883-1.382-10.413-1.173
		c2.128-1.637,4.313-3.198,6.482-4.781c11.769,1.383,23.649,2.854,35.487,3.323c0.789,0.031,0.998-1.284,0.19-1.406
		c-11.147-1.689-22.496-2.513-33.753-3.337c3.272-2.351,6.602-4.623,9.962-6.852c0.035,0.182,0.127,0.347,0.358,0.396
		c5.62,1.19,11.581,1.493,17.3,1.938c1.016,0.079,0.976-1.445,0-1.562c-5.453-0.654-11.093-1.466-16.6-1.458
		c2.845-1.872,5.752-3.653,8.656-5.438c7.035,0.567,14.096,1.107,21.153,1.167c0.822,0.007,0.775-1.153,0-1.246
		c-6.232-0.743-12.516-1.099-18.79-1.406c2.545-1.533,5.16-2.957,7.75-4.42c3.779,1.215,7.735,2.058,11.704,1.922
		c1.083-0.037,1.017-1.503,0-1.636c-3.188-0.416-6.283-0.868-9.348-1.629c0.961-0.53,1.889-1.112,2.857-1.629
		c0.363-0.194,0.556-0.468,0.668-0.761c2.586,0.303,5.041,1.388,7.022,3.142c1.156,1.024,2.143,2.264,2.798,3.668
		c0.597,1.279,0.749,2.653,1.25,3.942C166.764,32.604,151.83,46.053,139.099,61.152z"/>
</g>
<g>
</g>
<g>
</g>
<g>
</g>
<g>
</g>
<g>
</g>
<g>
</g>
<g>
</g>
<g>
</g>
<g>
</g>
<g>
</g>
<g>
</g>
<g>
</g>
<g>
</g>
<g>
</g>
<g>
</g>
</svg>
