<?xml version="1.0" encoding="iso-8859-1"?>
<!-- Generator: Adobe Illustrator 18.0.0, SVG Export Plug-In . SVG Version: 6.00 Build 0)  -->
<!DOCTYPE svg PUBLIC "-//W3C//DTD SVG 1.1//EN" "http://www.w3.org/Graphics/SVG/1.1/DTD/svg11.dtd">
<svg version="1.1" id="Capa_1" xmlns="http://www.w3.org/2000/svg" xmlns:xlink="http://www.w3.org/1999/xlink" x="0px" y="0px"
	 viewBox="0 0 269.581 269.581" style="enable-background:new 0 0 269.581 269.581;" xml:space="preserve">
<g>
	<path d="M231.013,94.367c-0.477-0.418-1.024-0.372-1.431-0.112c-1.565-1.749-3.23-3.455-5.007-5.111
		c-26.894-25.063-67.722-34.023-103.515-31.154C51.606,63.556-11.424,123.485,1.758,196.476c-0.817,0.12-1.206,0.811-1.169,1.469
		c-0.077,0.345-0.001,0.722,0.367,1.05c2.304,2.062,4.606,4.125,6.919,6.175c1.951,1.729,3.842,3.96,6.288,4.931
		c0.436,0.173,0.815-0.001,1.107-0.28c0.01,0.628,0.42,1.248,1.24,1.26c82.562,1.241,165.528,1.556,248.081-0.209
		c1.11-0.024,1.631-0.908,1.588-1.758c0.261-0.098,0.483-0.291,0.568-0.668C275.897,167.875,262.605,122.078,231.013,94.367z
		 M264.763,207.589c-0.062-0.007-0.107-0.036-0.172-0.037c-82.561-1.378-165.526-0.673-248.081,0.954
		c-0.346,0.007-0.602,0.138-0.804,0.316c-0.002-0.198-0.013-0.399-0.117-0.575c-1.331-2.24-4.009-3.827-6.013-5.467
		c-1.429-1.169-2.864-2.328-4.298-3.49c40.412,1.092,80.987-0.175,121.406-0.444c41.492-0.276,83.332,0.963,124.768-1.125
		c2.14-0.108,2.156-3.259,0-3.337c-41.462-1.5-83.276,0.334-124.768,0.648c-40.749,0.308-81.674-0.402-122.394,1.316
		c-0.341-3.076-0.522-6.116-0.632-9.137c20.292,0.936,40.641,1.404,60.954,1.131c0.927-0.012,0.928-1.427,0-1.44
		c-20.331-0.287-40.658-0.491-60.988-0.873c-0.107-4.014,0.001-7.973,0.287-11.876c30.212,2.823,60.508,5.318,90.797,7.111
		c1.098,0.065,1.071-1.595,0-1.694c-30.169-2.789-60.45-4.892-90.698-6.654c0.229-2.734,0.585-5.426,0.999-8.098
		c27.612,1.297,55.028,3.983,82.48,7.189c0.911,0.106,1.135-1.48,0.218-1.614c-27.337-3.991-54.887-5.986-82.487-6.914
		c0.616-3.69,1.417-7.313,2.372-10.871c8.567-0.122,17.125-0.126,25.695-0.118c0.778,0.001,0.769-1.163,0-1.203
		c-8.428-0.439-16.918-0.333-25.354,0.137c1.04-3.715,2.315-7.325,3.706-10.879c9.425,0.249,18.848,0.512,28.277,0.524
		c0.907,0.001,0.902-1.372,0-1.406c-9.217-0.35-18.439-0.459-27.662-0.577c1.686-4.14,3.674-8.12,5.808-12.013
		c12.867,0.929,25.831,1.44,38.716,1.89c0.75,0.026,0.727-1.087,0-1.152c-12.616-1.131-25.439-1.857-38.131-1.811
		c1.773-3.156,3.737-6.189,5.786-9.164c7.967,0.351,15.941,0.524,23.915,0.619c0.765,0.009,0.761-1.159,0-1.186
		c-7.719-0.274-15.441-0.469-23.165-0.506c2.616-3.711,5.452-7.264,8.469-10.662c12.376,1.928,25.121,2.57,37.589,3.341
		c0.838,0.052,0.808-1.201,0-1.288c-12.138-1.296-24.514-2.757-36.756-2.973c2.879-3.177,5.936-6.199,9.14-9.074
		c18.741,1.954,37.68,3.052,56.523,2.682c0.96-0.019,0.959-1.461,0-1.491c-18.472-0.569-36.896-1.13-55.345-2.206
		c3.947-3.454,8.122-6.672,12.499-9.636c14.342,0.496,28.616,1.795,42.841,3.706c0.825,0.111,1.028-1.335,0.198-1.464
		c-13.642-2.13-27.313-3.199-41.095-3.502c5.772-3.759,11.915-7.024,18.305-9.863c22.411,0.317,44.796,1.324,67.154,2.923
		c0.941,0.067,0.923-1.371,0-1.457c-21.359-1.995-42.718-2.851-64.152-2.795c9.606-3.985,19.814-6.88,30.445-8.555
		c9.835,0.267,19.673,0.524,29.508,0.46c0.853-0.006,0.848-1.287,0-1.321c-6.029-0.246-12.064-0.361-18.099-0.44
		c0.488-0.035,0.971-0.09,1.461-0.119c33.814-2.033,72.251,6.505,97.664,30.155c27.872,25.939,27.534,64.146,26.011,99.36
		c-0.12,2.769,4.184,2.763,4.303,0c1.256-29.039,1.356-59.875-13.185-84.737C261.449,135.68,271.118,169.964,264.763,207.589z"/>
	<path d="M53.048,157.414c-0.012,0.392,0.182,0.646,0.433,0.828c-0.146-0.004-0.291-0.006-0.436-0.01
		c-1.533-0.037-1.438,2.141,0,2.321c51.063,6.383,104.779,6.215,155.986,1.423c0.128-0.012,0.222-0.069,0.337-0.099
		c0.918,0.13,1.925-0.274,2.143-1.332C228.371,78.886,55.585,74.834,53.048,157.414z M55.245,157.711
		c10.923-37.938,41.417-55.824,80.179-55.681c25.218,0.092,54.229,8.476,66.559,29.125c-22.233-15.839-50.41-22.396-77.502-17.702
		c-21.766,3.771-60.136,18.08-60.246,45.029c-3.141-0.07-6.278-0.134-9.424-0.209C54.999,158.142,55.169,157.974,55.245,157.711z
		 M207.89,158.134c-47.578,1.82-94.561,1.427-142.05,0.383c3.795-30.118,48.824-42.685,73.663-43.463
		c24.359-0.764,46.103,8.173,65.395,21.991C207.34,143.154,208.481,150.149,207.89,158.134z"/>
</g>
<g>
</g>
<g>
</g>
<g>
</g>
<g>
</g>
<g>
</g>
<g>
</g>
<g>
</g>
<g>
</g>
<g>
</g>
<g>
</g>
<g>
</g>
<g>
</g>
<g>
</g>
<g>
</g>
<g>
</g>
</svg>
