<?xml version="1.0" ?><!DOCTYPE svg  PUBLIC '-//W3C//DTD SVG 1.1//EN'  'http://www.w3.org/Graphics/SVG/1.1/DTD/svg11.dtd'><svg enable-background="new -1.1 60.793 34.362 32.617" height="32.617px" id="Layer_1" version="1.1" viewBox="-1.1 60.793 34.362 32.617" width="34.362px" xml:space="preserve" xmlns="http://www.w3.org/2000/svg" xmlns:xlink="http://www.w3.org/1999/xlink"><g><g><path d="M24.456,93.021c-0.259,0-0.512-0.101-0.701-0.287l-8.522-8.38l-12.266,0.8c-1.036,0.068-1.854-0.171-2.423-0.711    c-0.825-0.782-0.903-1.979-0.892-2.812c0.052-3.438,0.112-7.335-0.011-11.109c-0.06-1.735-0.251-3.487-0.455-5.343    c-0.096-0.87-0.193-1.761-0.281-2.685c-0.027-0.28,0.066-0.56,0.256-0.769c0.189-0.208,0.458-0.327,0.74-0.327    c0.892,0,1.731,0.006,2.538,0.013c1.612,0.012,3.135,0.022,4.619-0.021c3.608-0.104,7.219-0.238,10.828-0.372l4.783-0.174    c0.053-0.002,0.11-0.011,0.169-0.019c0.354-0.042,0.938-0.115,1.386,0.319c0.758,0.746,1.541,1.474,2.322,2.199    c2.122,1.972,4.315,4.01,6.01,6.407c0.975,1.384,0.729,3.373,0.494,5.296c-0.068,0.562-0.138,1.116-0.169,1.634    c-0.1,1.628-0.3,3.234-0.512,4.937c-0.096,0.77-0.194,1.559-0.287,2.38c-0.053,0.47-0.427,0.838-0.896,0.883l-2.769,0.269    c-0.001,0.018-0.002,0.033-0.003,0.051c-0.028,0.45-0.056,0.877,0.031,1.189c0.233,0.847,0.57,1.694,0.959,2.676    c0.179,0.451,0.368,0.93,0.564,1.447c0.101,0.268,0.082,0.564-0.049,0.817c-0.132,0.252-0.364,0.437-0.642,0.507l-4.576,1.154    C24.62,93.012,24.537,93.021,24.456,93.021z M16.664,82.958l8.092,7.956l2.935-0.74c-0.049-0.125-0.1-0.249-0.146-0.37    c-0.411-1.036-0.766-1.931-1.027-2.88c-0.178-0.639-0.137-1.283-0.1-1.854c0.013-0.191,0.025-0.385,0.027-0.574    c-0.024-0.092-0.035-0.188-0.032-0.282l0.024-0.723c0.122-3.376,0.054-5.156-2.767-5.566c-3.699-0.537-4.893-0.144-7.026,4.981    C16.65,82.924,16.657,82.94,16.664,82.958z M1.004,63.403c0.056,0.528,0.112,1.048,0.168,1.559    c0.208,1.894,0.404,3.682,0.467,5.495c0.125,3.822,0.064,7.745,0.012,11.206c-0.013,0.876,0.139,1.207,0.27,1.331    c0.145,0.137,0.471,0.194,0.914,0.165l11.859-0.773c2.259-5.502,3.996-7.211,9.264-6.438c4.513,0.655,4.591,4.187,4.492,7.19    l1.738-0.168c0.064-0.545,0.131-1.076,0.195-1.598c0.208-1.669,0.404-3.246,0.5-4.811c0.033-0.555,0.105-1.15,0.181-1.757    c0.181-1.475,0.386-3.146-0.145-3.897c-1.572-2.229-3.688-4.193-5.735-6.096c-0.712-0.662-1.426-1.324-2.118-1.998    c-0.114,0.015-0.227,0.026-0.327,0.029l-4.781,0.175c-3.615,0.134-7.229,0.268-10.844,0.373c-1.521,0.043-3.063,0.032-4.691,0.021    C1.962,63.408,1.491,63.405,1.004,63.403z"/></g><g><path d="M20.368,75.119c-0.25,0-0.501-0.002-0.751-0.007c-5.066-0.089-10.134-0.182-15.203-0.274l-0.14-0.002    c-0.552-0.011-0.991-0.466-0.981-1.02c0.012-0.552,0.489-0.955,1.02-0.98l0.139,0.003c5.068,0.093,10.135,0.186,15.202,0.273    c0.438,0.01,0.88,0.007,1.321,0.005l0.614-0.002c0.553,0,1,0.446,1,1c0,0.553-0.447,1-1,1l-0.604,0.002    C20.778,75.118,20.573,75.119,20.368,75.119z"/></g><g><path d="M21.589,71.49c-0.006,0-0.011,0-0.017,0L4.277,71.211c-0.552-0.009-0.993-0.464-0.984-1.017s0.505-0.991,1.017-0.983    l17.295,0.279c0.552,0.009,0.993,0.464,0.983,1.017C22.58,71.053,22.133,71.49,21.589,71.49z"/></g><g><path d="M11.743,67.314c-1.149,0-2.298-0.002-3.448-0.005l-3.44-0.004c-0.553,0-1-0.447-1-1s0.447-1,1-1l3.444,0.004    c2.846,0.007,5.691,0.012,8.537-0.017c1.058-0.01,2.146-0.088,3.197-0.163c0.499-0.036,0.998-0.071,1.496-0.102    c0.539-0.029,1.024,0.389,1.057,0.939c0.033,0.552-0.388,1.024-0.938,1.057c-0.49,0.029-0.98,0.064-1.471,0.101    c-1.082,0.077-2.202,0.157-3.32,0.168C15.151,67.31,13.447,67.314,11.743,67.314z"/></g><g><path d="M24.543,70.203c-0.264,0-0.518-0.104-0.706-0.292c-0.205-0.204-0.312-0.487-0.292-0.775l0.392-5.688    c0.038-0.552,0.511-0.95,1.065-0.931c0.552,0.038,0.968,0.517,0.93,1.066l-0.313,4.539l4.265-0.306    c0.555-0.038,1.03,0.375,1.069,0.927c0.039,0.551-0.375,1.028-0.926,1.067L24.615,70.2C24.591,70.202,24.567,70.203,24.543,70.203    z"/></g><g><path d="M22.146,89.619c-0.333,0-0.659-0.167-0.85-0.471c-0.292-0.469-0.149-1.086,0.318-1.378l4.462-2.789    c0.47-0.293,1.086-0.15,1.378,0.317c0.293,0.468,0.151,1.085-0.316,1.378l-4.464,2.789C22.51,89.57,22.327,89.619,22.146,89.619z"/></g><g><path d="M18.99,93.41c-0.174,0-0.35-0.045-0.508-0.14l-4.906-2.9c-0.245-0.146-0.417-0.389-0.472-0.666    c-0.056-0.279,0.011-0.568,0.181-0.796l2.762-3.68c0.333-0.44,0.958-0.53,1.4-0.197c0.441,0.331,0.53,0.959,0.198,1.398    l-2.091,2.785l3.19,1.888l1.774-2.264c0.34-0.438,0.969-0.513,1.403-0.173c0.436,0.34,0.513,0.969,0.173,1.402l-2.317,2.957    C19.582,93.276,19.289,93.41,18.99,93.41z"/></g><g><path d="M21.613,86.268c-0.117,0-0.236-0.003-0.357-0.009c-0.692-0.037-1.689-0.179-2.354-0.979    c-0.773-0.934-0.768-2.351-0.52-4.19c0.044-0.327,0.248-0.612,0.543-0.76l1.932-0.972c0.189-0.096,0.396-0.125,0.59-0.097    c0.017-0.002,0.034-0.004,0.05-0.006c1.125-0.101,2.531-0.098,3.437,0.842c0.617,0.643,0.853,1.58,0.696,2.79    C25.351,85.051,23.894,86.268,21.613,86.268z M20.304,81.875c-0.151,1.421-0.015,1.943,0.139,2.129    c0.12,0.145,0.429,0.23,0.919,0.257c1.808,0.097,2.174-0.77,2.286-1.63c0.072-0.562,0.018-0.968-0.154-1.146    c-0.162-0.169-0.611-0.348-1.814-0.236c-0.046,0.004-0.092,0.006-0.134,0.003L20.304,81.875z"/></g></g></svg>