<?xml version="1.0" encoding="iso-8859-1"?>
<!-- Generator: Adobe Illustrator 16.0.0, SVG Export Plug-In . SVG Version: 6.00 Build 0)  -->
<!DOCTYPE svg PUBLIC "-//W3C//DTD SVG 1.1//EN" "http://www.w3.org/Graphics/SVG/1.1/DTD/svg11.dtd">
<svg version="1.1" id="Capa_1" xmlns="http://www.w3.org/2000/svg" xmlns:xlink="http://www.w3.org/1999/xlink" x="0px" y="0px"
	 width="189.386px" height="189.386px" viewBox="0 0 189.386 189.386" style="enable-background:new 0 0 189.386 189.386;"
	 xml:space="preserve">
<g>
	<path d="M188.039,69.771c-3.869-9.164-16.292-16.096-25.117-10.902c-1.842-4.012-6.529-8.37-9.986-11.505
		c7.029-5.697,3.373-16.277-1.986-21.678c-6.18-6.228-14.684-6.228-20.457-0.317c-4.171-3.833-8.432-7.555-12.928-10.941
		c-20.256-15.256-40.603,3.936-52.83,20.865c-1.358,1.88-0.112,3.913,1.652,4.677c-1.289,0.396-2.155,2.133-0.903,3.219
		c7.768,6.742,15.094,13.842,22.191,21.206c-0.589,0.194-1.148,0.552-1.567,1.228c-4.21,6.798-11.147,11.771-14.933,18.834
		c-19.914-9.179-34.576,19.964-45.693,31.984c-14.694,15.89-34.668,33.792-20.808,55.906c7.21,11.504,18.614,9.144,28.727,3.392
		c0.366-0.085,0.716-0.251,1.009-0.58c0.006-0.007,0.009-0.015,0.015-0.022c5.709-3.401,10.942-7.783,14.677-11.22
		c16.031-14.747,44.568-36.711,45.509-60.148c0.017-0.422-0.076-0.766-0.175-1.104c1.214-0.929,2.355-1.882,3.341-2.771
		c2.645-2.386,8.261-7.624,10.771-12.453c5.248,5.898,10.722,11.634,16.89,16.297c-4.396,9.893,2.883,22.877,14.824,22.18
		c5.848-0.341,10.9-5.807,14.658-9.674c5.701-5.867,11.123-11.636,17.301-17.018C181.146,91.449,193.504,82.713,188.039,69.771z
		 M146.717,29.916c3.58,3.576,5.578,9.177,1.756,13.175c-4.939-5.096-9.947-10.206-15.132-15.122
		C137.794,25.062,142.762,25.965,146.717,29.916z M96.908,17.561c2.91,0.714,5.836,1.358,8.763,2.008
		c3.558,0.79,7.077,2.159,10.661,2.775c0.947,0.687,1.891,1.369,2.891,2.179c-9.273-1.341-18.524-2.44-27.686-4.446
		C93.393,18.92,95.163,18.139,96.908,17.561z M84.719,25.242c1.055-0.924,2.069-1.746,3.066-2.522
		c12.227,3.641,24.943,6.198,37.631,7.286c2.186,2.071,4.331,4.189,6.439,6.35c-16.494-4.534-34.81-2.676-51.204-7.306
		C82.011,27.784,83.319,26.469,84.719,25.242z M79.51,30.12c0.035,0.026,0.035,0.069,0.078,0.09
		c7.416,3.623,15.615,4.632,23.799,5.945c10.935,1.754,21.797,4.286,32.727,5.911c0.455,0.067,0.84-0.009,1.188-0.138
		c1.662,1.688,3.334,3.363,5.049,4.986c0.693,0.658,2.014,1.825,3.607,3.237c-21.952-8.83-47.857-9.981-70.776-15.979
		C76.589,32.787,78.074,31.479,79.51,30.12z M69.605,88.268c-0.731,2.388-0.797,4.787-0.342,7.061
		c-5.191-1.508-11.185-1.729-16.271-1.206C58.147,89.559,63.719,86.793,69.605,88.268z M16.517,173.484
		c-12.62-2.056-11.871-12.852-8.107-22.391c2.903,1.396,5.827,2.75,8.677,4.253c2.35,1.24,5.599,4.518,7.938,7.118
		c1.725,1.918,3.149,4.195,4.099,6.593c0.281,0.708,0.422,1.396,0.55,2.076C25.496,173.189,21.102,174.231,16.517,173.484z
		 M35.588,167.505c-0.765-2.276-2.282-4.602-4.064-6.799c3.135,0.929,6.374,1.785,9.531,2.234
		C39.288,164.569,37.468,166.122,35.588,167.505z M43.479,160.618c-2.296-0.642-4.786-0.942-7.06-1.407
		c-2.636-0.539-5.251-1.177-7.863-1.826c-2.722-2.77-5.554-5.097-7.329-6.43c-0.102-0.077-0.231-0.138-0.336-0.213
		c4.537,0.746,9.058,1.549,13.581,2.411c4.615,0.88,9.918,2.29,14.663,1.534C47.326,156.659,45.454,158.666,43.479,160.618z
		 M56.499,146.696c-1.753,1.815-3.648,3.923-5.648,6.124c-0.098-0.088-0.18-0.19-0.321-0.234c-5.537-1.71-11.872-1.513-17.616-2.403
		c-5.242-0.814-10.487-1.777-15.795-2.012c-0.218-0.01-0.376,0.095-0.523,0.205c-1.929-0.848-3.981-1.575-5.943-2.229
		c0.672-1.304,1.367-2.512,2.057-3.647c13.236,2.155,30.886,7.016,44.067,3.916C56.686,146.509,56.588,146.604,56.499,146.696z
		 M64.681,138.774c-7.959-2.799-17.818-2.76-26.181-3.614c-4.294-0.438-15.775-3.141-18.868,0.787c-0.05,0.063-0.063,0.148,0,0.211
		c3.069,3.054,12.251,1.851,16.398,2.332c8.023,0.929,16.849,3.431,25.094,3.647c-0.147,0.141-0.298,0.282-0.443,0.422
		c-0.218-0.124-0.473-0.209-0.805-0.185c-7.616,0.56-14.669,1.219-22.331,0.568c-7.896-0.671-15.735-1.945-23.648-2.317
		c0.626-0.943,1.236-1.817,1.787-2.521c3.47-4.441,7.382-8.553,11.272-12.653c2.647,4.568,13.392,4.712,17.711,5.337
		c4.787,0.693,9.596,1.233,14.403,1.759c3.243,0.355,7.515,1.497,10.988,1.084C68.27,135.387,66.458,137.101,64.681,138.774z
		 M72.738,130.935c-0.131-0.278-0.344-0.526-0.671-0.695c-5.46-2.824-14.849-1.746-20.909-2.333
		c-4.901-0.475-9.809-1.019-14.68-1.738c-1.415-0.209-7.189-0.562-8.083-1.93c-0.049-0.075-0.123-0.073-0.18-0.128
		c0.8-0.846,1.604-1.691,2.393-2.543c1.098-1.185,2.265-2.629,3.489-4.229c14.605,1.799,29.443,7.506,44.097,7.519
		C76.484,126.941,74.649,128.969,72.738,130.935z M80.571,121.783c-0.225-0.301-0.535-0.553-0.987-0.673
		c-13.713-3.643-29.299-5.495-43.694-6.162c1.498-2.033,3.084-4.242,4.738-6.487c14.001,3.159,28.705,7.862,42.808,8.573
		c0.069,0.003,0.116-0.021,0.181-0.023C82.694,118.633,81.699,120.232,80.571,121.783z M85.048,114.345
		c-0.214-0.467-0.572-0.877-1.102-1.089c-12.482-4.99-27.559-5.986-41.291-7.508c2.46-3.237,5.069-6.44,7.808-9.228
		c0.155,0.642,0.654,1.154,1.559,1.092c3.653-0.255,7.138,0.031,10.743,0.694c2.775,0.51,5.502,1.395,8.296,1.728
		c0.231,0.397,0.468,0.791,0.733,1.168c-0.695-0.052-1.391-0.078-2.014-0.143c-2.969-0.312-5.939-0.615-8.909-0.92
		c-4.044-0.416-8.459-0.104-12.358-0.603c0.003,0.011,0.006,0.022,0.009,0.032c-0.066,0.003-0.117-0.037-0.189-0.012
		c-0.006,0.002-0.013,0.005-0.019,0.007c-0.698,0.245-0.728,1.211,0,1.443c3.949,1.263,7.893,2.104,12.061,2.797
		c2.945,0.489,5.89,0.979,8.835,1.473c1.769,0.296,3.949,1.184,5.531,0.039c0.224-0.162,0.386-0.349,0.522-0.542
		c1.118,0.852,2.316,1.617,3.656,2.173c2.839,1.176,5.815,0.795,8.664-0.299C87.102,109.31,86.218,111.869,85.048,114.345z
		 M97.975,89.902c-3.623,4.424-8.833,10.254-14.873,10.925c-9.256,1.028-7.812-11.325-4.657-16.106
		c3.795-5.752,9.363-10.054,12.79-16.104c0.071-0.126,0.07-0.244,0.122-0.369c2.084,2.218,4.163,4.443,6.211,6.71
		c2.029,2.245,4.047,4.565,6.076,6.899C101.406,84.121,99.664,87.838,97.975,89.902z M132.579,114.292
		c1.17,0.611,2.338,1.224,3.528,1.805c1.541,0.753,3.134,1.642,4.771,2.371C137.37,119.29,134.438,117.389,132.579,114.292z
		 M146.111,115.385c-0.506,0.48-1.004,0.884-1.497,1.251c-2.175-1.298-4.761-2.05-7.048-3.037c-2.211-0.956-4.387-1.99-6.551-3.052
		c-0.435-1.611-0.611-3.332-0.539-5.043c6.113,2.023,11.922,5.611,18.039,7.455C147.721,113.773,146.939,114.599,146.111,115.385z
		 M159.949,101.042c-4.362-1.739-9.024-2.812-13.514-4.14c-7.582-2.243-15.08-4.72-22.631-7.051
		c-0.92-0.284-1.549,1.146-0.662,1.569c10.205,4.872,22.414,9.989,33.904,12.565c-1.025,1.047-2.074,2.062-3.066,3.158
		c-0.976,1.075-1.955,2.136-2.938,3.194c-3.005-1.372-6.238-2.374-9.287-3.584c-3.435-1.362-6.91-2.551-10.472-3.494
		c0.127-0.781,0-1.61-0.545-2.292c-6.196-7.738-13.238-15.038-20.272-22.269c14.116,3.934,28.131,8.372,41.768,13.749
		c2.131,0.84,7.627,4.147,11.81,4.838C162.662,98.525,161.282,99.766,159.949,101.042z M168.152,93.68
		c-0.461-0.348-1.106-0.46-1.807-0.104c-1.881,0.953-14.231-5.714-16.908-6.666c-13.336-4.739-27.211-9.381-41.252-11.344
		c-0.252-0.035-0.47,0.013-0.668,0.092c-2.75-2.828-5.479-5.652-8.14-8.492c-0.924-0.987-1.858-1.967-2.794-2.945
		c10.871,5.212,22.671,8.264,34.28,11.367c14.516,3.881,27.211,9.265,40.759,15.147C170.463,91.736,169.295,92.716,168.152,93.68z
		 M97.68,62.503c6.315,1.872,12.92,3.115,17.607,4.54c4.129,1.255,8.24,2.562,12.352,3.87C117.518,68.549,107.4,66.143,97.68,62.503
		z M174.196,88.412c-0.849-1.245-1.933-2.35-3.16-3.361c1.663,0.538,3.323,1.082,4.987,1.614
		C175.428,87.256,174.818,87.839,174.196,88.412z M181.253,80.386c-0.687,1.086-1.489,2.12-2.336,3.134
		c-30.246-11.286-61.856-21.409-93.118-29.802c-3.038-2.756-6.185-5.381-9.461-7.841c0.003,0,0.006,0.001,0.009,0.001
		c11.174,1.297,21.918,5.165,32.683,8.337c24.54,7.23,49.163,15.093,72.815,24.907C181.686,79.555,181.507,79.983,181.253,80.386z
		 M128.891,55.924c-12.51-3.769-25.129-7.182-37.746-10.572c-2.383-0.641-12.58-3.965-15.205-2.053
		c0.507-0.37,0.418-1.394-0.358-1.321c-0.653,0.06-1.306,0.121-1.959,0.181c-0.542,0.05-1.002,0.437-1.181,0.918
		c-1.443-0.978-2.91-1.926-4.418-2.821c0.706-0.048,1.403-0.296,1.981-0.897c0.915-0.953,1.868-1.862,2.795-2.801
		c25.638,9.142,54.187,16.746,80.871,20.819c0.082,0.013,0.157-0.007,0.236-0.005c2.595,2.474,4.604,4.604,4.684,5.384
		c0.158,1.536,1.375,2.401,2.582,2.415c1.107,0.691,2.597,0.841,3.884-0.196c6.186-4.993,15.396,2.354,16.984,9.512
		C164.973,66.875,146.736,61.302,128.891,55.924z"/>
</g>
<g>
</g>
<g>
</g>
<g>
</g>
<g>
</g>
<g>
</g>
<g>
</g>
<g>
</g>
<g>
</g>
<g>
</g>
<g>
</g>
<g>
</g>
<g>
</g>
<g>
</g>
<g>
</g>
<g>
</g>
</svg>
