<?xml version="1.0" encoding="iso-8859-1"?>
<!-- Generator: Adobe Illustrator 16.0.0, SVG Export Plug-In . SVG Version: 6.00 Build 0)  -->
<!DOCTYPE svg PUBLIC "-//W3C//DTD SVG 1.1//EN" "http://www.w3.org/Graphics/SVG/1.1/DTD/svg11.dtd">
<svg version="1.1" id="Capa_1" xmlns="http://www.w3.org/2000/svg" xmlns:xlink="http://www.w3.org/1999/xlink" x="0px" y="0px"
	 width="185.774px" height="185.774px" viewBox="0 0 185.774 185.774" style="enable-background:new 0 0 185.774 185.774;"
	 xml:space="preserve">
<g>
	<g>
		<path d="M97.879,75.37C97.818,75.455,97.82,75.464,97.879,75.37L97.879,75.37z"/>
		<path d="M171.191,1.291c-15.115-5.922-30.292,9.906-39.604,19.631c-12.085,12.62-23.778,27.86-32.135,43.257
			c-0.897,1.654,0.481,3.415,2.004,3.468c-0.186,0.021-0.372,0.009-0.559,0.035c-2.296,0.317-1.688,3.994,0.537,3.969
			c0.272-0.003,0.523,0.047,0.792,0.057c-0.332,0.275-0.668,0.543-1.002,0.817c-0.605,0.496-1.204,0.96-1.86,1.385
			c-0.492,0.318-1.095,0.618-1.342,1.19c-0.033,0.075-0.049,0.096-0.073,0.139c-0.073-0.026-0.118-0.075-0.197-0.096
			c-4.488-0.921-8.738-2.522-12.752-4.805c-1.22-0.661-2.84-0.563-3.827,0.494C60.057,93.464,30.265,105.304,6.7,124.902
			c-14.425,11.998,15.07,41.257,22.582,50.25c9.264,11.091,17.242,12.495,24.723,8.774c0.637,0.146,1.281,0.254,1.932,0.304
			c1.179,0.091,1.455-1.182,0.948-1.989c5.449-3.688,10.681-9.853,16.005-16.772c10.113-13.144,20.452-25.591,31.177-38.238
			c11.933-14.071,10.451-24.775,9.294-42.148c-0.062-0.929-0.459-1.62-0.987-2.148c0.127-0.217,0.252-0.43,0.374-0.627
			c0.772-1.249,1.484-2.534,2.215-3.808c1.058,1.47,2.019,3.014,3.293,4.356c1.627,1.712,4.016,0.705,4.729-1.107
			c1.003,0.573,2.27,0.636,3.565-0.219c1.93-1.272,3.908-2.541,5.901-3.814c0.13,0.02,0.26,0.056,0.39,0.075
			c1.045,0.153,1.684-0.617,1.65-1.381c15.123-9.628,31.25-19.728,41.385-34.382C183.911,30.41,188.379,8.026,171.191,1.291z
			 M175.037,16.902c0.007,0.018,0.009,0.036,0.017,0.055c-2.914-1.65-6.234-2.969-8.618-4.168C164.07,11.6,160.913,9.9,157.9,9.297
			C165.631,5.526,171.91,8.816,175.037,16.902z M39.4,111.145c-1.485,3.487-0.217,6.297,2.309,8.518
			c-2.895-1.353-6.279-3.021-9.507-3.648C34.622,114.421,37.029,112.812,39.4,111.145z M29.312,117.907
			c5.215,0.354,11.624,4.724,16.049,6.88c6.173,3.007,12.245,6.82,18.707,9.156c1.31,0.474,2.148-0.7,2.056-1.809
			c0.427,1.736,0.421,3.69,0.284,5.522c-12.674-6.699-26.247-12.808-39.618-18.097C27.631,119.01,28.471,118.457,29.312,117.907z
			 M56.023,125.821c2.023,0.508,4.043,1.017,6.029,1.671c2.228,0.735,3.391,2.282,3.961,4.148c-0.119-0.316-0.309-0.61-0.629-0.82
			C62.48,128.918,59.287,127.312,56.023,125.821z M67.116,145.512c0.68,1.741,1.725,3.255,3.178,4.457
			c-6.111-3.602-12.754-6.492-19.337-9.246C56.264,142.81,61.711,144.584,67.116,145.512z M24.356,121.163
			c14.009,6.094,27.339,15.409,41.948,19.788c0.011,0.4-0.038,0.83,0,1.217c-15.168-6.526-30.848-10.768-45.515-18.653
			C21.966,122.714,23.167,121.946,24.356,121.163z M17.037,126.104c0.703-0.505,1.425-0.98,2.136-1.474
			c3.199,2.806,7.014,5.007,10.956,6.923c-4.711-2.033-9.538-3.817-14.171-4.586C16.306,126.679,16.64,126.39,17.037,126.104z
			 M36.701,173.771c1.96,1.345,3.905,2.717,5.872,4.062c0.961,0.656,1.955,1.349,2.977,2.026
			C42.59,179.173,39.568,176.808,36.701,173.771z M51.49,178.594c-0.086,0.064-0.177,0.085-0.264,0.146
			c-2.887-1.459-5.872-2.81-8.586-4.499c-3.518-2.189-7.015-4.351-10.7-6.207c-1.676-2.248-3.223-4.529-4.599-6.608
			c8.582,5.643,18.172,11.227,27.59,14.327C53.824,176.745,52.68,177.695,51.49,178.594z M57.306,173.479
			c-5.491-3.16-11.615-5.452-17.276-8.3c-5.393-2.712-10.611-5.729-15.901-8.625c-0.364-0.54-0.708-1.043-1.007-1.452
			c-2.272-3.115-5.245-6.447-7.634-9.856c12.596,9.989,28.455,15.6,43.03,21.988c1.956,0.858,3.691-1.959,1.706-2.918
			c-15.425-7.453-31.984-12.158-45.803-22.655c-0.384-0.29-0.805-0.212-1.126,0.034c-1.334-2.525-2.078-5.067-1.773-7.574
			c9.168,5.08,18.934,9.101,28.506,13.32c9.482,4.182,18.177,9.394,27.33,14.058C64.241,165.705,60.984,169.816,57.306,173.479z
			 M69.257,158.908c-5.33-6.834-16.938-10.046-24.402-13.221c-10.881-4.63-22.018-8.842-32.534-14.286
			c0.431-0.919,1.032-1.831,1.83-2.732c7.104,5.106,17.339,7.74,25.158,11.176c11.012,4.837,21.519,10.54,32.302,15.794
			C70.828,156.73,70.049,157.814,69.257,158.908z M109.461,78.898c-1.324,1.601-3.991,3.455-4.338,5.544
			c-0.231,1.402,0.484,2.583,1.668,2.919c0.863,18.088-1.794,28.898-14.77,43.221c-5.128,5.659-10.044,11.264-14.661,17.262
			c-2.669-2.039-5.093-3.652-5.052-7.5c0.028-2.642,0.354-5.102,0.014-7.749c-0.577-4.487-2.821-8.162-6.966-9.94
			c-3.982-1.709-8.407-2.307-12.61-3.25c-6.693-1.501-11.011-3.328-8.269-10.754c0.127-0.343,0.097-0.668-0.03-0.946
			c8.669-5.87,17.666-11.229,26.072-17.506c10.59-7.91,12.183-13.83,26.012-10.627c0.973,0.225,1.732-0.144,2.231-0.732
			c1.252,0.619,2.854,0.07,3.732-0.871c1.605-1.721,3.171-3.487,4.651-5.319c1.534,0.56,3.005,1.325,4.438,2.311
			c0.253,0.174,0.434,0.398,0.663,0.588C111.309,76.654,110.389,77.778,109.461,78.898z M126.371,72.507
			c-7.044-2.599-14.099-5.129-21.082-7.997c1.005-1.118,1.992-2.258,2.968-3.41c2.932,2.111,6.609,3.523,9.761,4.88
			c3.708,1.597,7.604,3.272,11.566,4.47C128.512,71.136,127.438,71.821,126.371,72.507z M132.93,68.308
			c-7.662-3.209-15.512-5.575-23.027-9.197c1.438-1.747,2.848-3.529,4.248-5.323c7.197,4.532,14.834,9.308,23.054,11.763
			C135.783,66.477,134.356,67.396,132.93,68.308z M139.952,63.744c-8.574-3.249-16.761-6.811-24.801-11.234
			c0.8-1.033,1.59-2.078,2.384-3.118c0.034,0.023,0.044,0.061,0.088,0.078c5.315,1.964,10.122,4.544,15.033,7.331
			c3.267,1.855,6.712,3.883,10.395,4.825C142.017,62.331,140.996,63.053,139.952,63.744z M145.448,59.988
			c-4.402-2.109-9.065-3.657-13.486-5.775c-4.494-2.153-9.001-4.375-13.86-5.56c1.403-1.843,2.804-3.691,4.212-5.533
			c7.94,4.978,17.652,12.08,27.343,13.813C148.269,57.969,146.869,58.991,145.448,59.988z M153.506,53.935
			c-4.82-1.851-9.812-3.135-14.574-5.277c-5.099-2.293-9.976-5.085-14.854-7.814c1.032-1.336,2.074-2.662,3.123-3.98
			c10.074,4.172,20.388,10.281,31.004,13.088C156.673,51.317,155.11,52.648,153.506,53.935z M163.371,44.986
			c-0.8,0.841-1.661,1.616-2.495,2.421c-9.677-5.509-21.204-9.111-31.725-12.942c1.654-2.026,3.352-4.006,5.087-5.945
			c0.002,0.355,0.131,0.71,0.444,0.996c4.085,3.74,9.215,5.984,14.284,8.065c4.965,2.037,10.939,4.612,16.496,5.151
			C164.75,43.517,164.045,44.277,163.371,44.986z M167.979,39.822c-4.356-2.274-9.666-3.036-14.338-4.515
			c-6.111-1.933-11.891-4.452-17.091-8.215c-0.27-0.195-0.546-0.243-0.814-0.232c1.28-1.385,2.61-2.716,3.952-4.033
			c-0.19,0.74,0.229,1.684,1.233,1.787c6.145,0.634,11.752,4.331,17.058,7.235c3.525,1.93,7.717,4.623,11.929,5.504
			C169.283,38.2,168.636,39.025,167.979,39.822z M172.308,33.733c-4.911-2.858-10.91-4.649-15.99-7.058
			c-4.881-2.315-9.904-4.653-15.396-4.742c-0.165-0.003-0.298,0.037-0.431,0.075c1.816-1.742,3.723-3.384,5.682-4.97
			c0.159,0.479,0.51,0.899,1.145,1.086c5.709,1.682,10.916,4.33,16.142,7.129c3.391,1.816,6.873,3.965,10.592,5.137
			C173.538,31.525,172.96,32.644,172.308,33.733z M175.478,26.316c-3.781-2.053-7.912-3.679-11.735-5.565
			c-4.797-2.366-9.657-4.462-14.818-5.865c1.664-1.228,3.407-2.371,5.192-3.467c0.078,0.049,0.123,0.134,0.215,0.166
			c4.468,1.549,8.376,3.498,12.438,5.975c2.819,1.72,5.904,4.578,9.149,6.002C175.835,24.484,175.702,25.404,175.478,26.316z"/>
	</g>
</g>
<g>
</g>
<g>
</g>
<g>
</g>
<g>
</g>
<g>
</g>
<g>
</g>
<g>
</g>
<g>
</g>
<g>
</g>
<g>
</g>
<g>
</g>
<g>
</g>
<g>
</g>
<g>
</g>
<g>
</g>
</svg>
