<?xml version="1.0" ?><svg viewBox="0 0 64 64" xmlns="http://www.w3.org/2000/svg"><defs><style>.cls-1{fill:#f9d18b;}.cls-2{fill:#ed5c58;}.cls-3{fill:#fbe3b9;}.cls-4{fill:#7fcdee;}.cls-5{fill:#758190;}.cls-6{fill:#b2e1f5;}.cls-7{fill:#fff;}</style></defs><title/><g data-name="Layer 21" id="Layer_21"><path class="cls-1" d="M4,56a2,2,0,0,1-2-2V46a4,4,0,0,1,4-4H58a4,4,0,0,1,4,4v8a2,2,0,0,1-2,2Z"/><path class="cls-2" d="M59,48h3V46a4,4,0,0,0-4-4H56v3A3,3,0,0,0,59,48Z"/><path class="cls-3" d="M9,52A36.8,36.8,0,0,0,34.569,42H6a4,4,0,0,0-4,4v5.369A38.96,38.96,0,0,0,9,52Z"/><path class="cls-2" d="M2,46v4a4,4,0,0,0,4-4V42A4,4,0,0,0,2,46Z"/><path class="cls-4" d="M8,42l4.734-7.1A11,11,0,0,1,21.887,30H34.7a11,11,0,0,1,7.461,2.917L52,42Z"/><path class="cls-1" d="M21.887,30H34.7a10.821,10.821,0,0,1,1.3.087V26H20v4.183A10.96,10.96,0,0,1,21.887,30Z"/><polygon class="cls-5" points="48 38.308 48 26 44 26 44 34.615 48 38.308"/><path class="cls-6" d="M34.569,42a31.323,31.323,0,0,0,6.876-9.684A11,11,0,0,0,34.7,30H21.887a11,11,0,0,0-9.153,4.9L8,42Z"/><rect class="cls-1" height="20" width="32" x="30" y="2"/><path class="cls-3" d="M30,2V16.723A19.852,19.852,0,0,0,37,18c9.779,0,17.825-7,18.876-16Z"/><circle class="cls-5" cx="14" cy="56" r="6"/><circle class="cls-7" cx="14" cy="56" r="2"/><circle class="cls-5" cx="48" cy="56" r="6"/><circle class="cls-7" cx="48" cy="56" r="2"/><rect class="cls-5" height="12" width="4" x="25" y="30"/><rect class="cls-5" height="4" width="8" x="42" y="22"/><rect class="cls-7" height="2" width="2" x="22" y="47"/><rect class="cls-7" height="2" width="2" x="24" y="45"/><rect class="cls-7" height="2" width="2" x="26" y="47"/><rect class="cls-7" height="2" width="2" x="28" y="45"/><rect class="cls-7" height="2" width="2" x="30" y="47"/><rect class="cls-7" height="2" width="2" x="32" y="45"/><rect class="cls-7" height="2" width="2" x="34" y="47"/><rect class="cls-7" height="2" width="2" x="36" y="45"/><rect class="cls-7" height="2" width="2" x="38" y="47"/><rect class="cls-7" height="2" width="6" x="33" y="8"/><rect class="cls-7" height="7" width="2" x="35" y="9"/><path class="cls-7" d="M47,16H45V11a1,1,0,0,0-2,0v5H41V11a3,3,0,0,1,6,0Z"/><rect class="cls-7" height="2" width="4" x="42" y="12"/><path class="cls-7" d="M55,16H53a3.857,3.857,0,0,0-1.121-2.707l-1.172-1.172A5.868,5.868,0,0,1,49,8h2a3.857,3.857,0,0,0,1.121,2.707l1.172,1.172A5.868,5.868,0,0,1,55,16Z"/><path class="cls-7" d="M51,16H49a5.868,5.868,0,0,1,1.707-4.121l1.172-1.172A3.857,3.857,0,0,0,53,8h2a5.868,5.868,0,0,1-1.707,4.121l-1.172,1.172A3.857,3.857,0,0,0,51,16Z"/><rect class="cls-7" height="8" width="2" x="57" y="8"/></g></svg>