<?xml version="1.0" ?><svg id="Layer_1" style="enable-background:new 0 0 64 64;" version="1.1" viewBox="0 0 64 64" xml:space="preserve" xmlns="http://www.w3.org/2000/svg" xmlns:xlink="http://www.w3.org/1999/xlink"><style type="text/css">
	.st0{fill:url(#SVGID_1_);}
	.st1{fill:url(#SVGID_2_);}
	.st2{fill:url(#SVGID_3_);}
	.st3{fill:url(#SVGID_4_);}
	.st4{fill:url(#SVGID_5_);}
	.st5{fill:#FFFFFF;}
	.st6{fill:url(#SVGID_6_);}
	.st7{fill:url(#SVGID_7_);}
	.st8{fill:url(#SVGID_8_);}
	.st9{fill:url(#SVGID_9_);}
	.st10{fill:url(#SVGID_10_);}
	.st11{fill:#FFBF0B;}
	.st12{fill:#1A1A54;}
	.st13{fill:#DC2863;}
	.st14{fill:none;stroke:#1A1A54;stroke-width:3;stroke-linecap:round;stroke-linejoin:round;stroke-miterlimit:10;}
	.st15{fill:#0B85FF;}
	.st16{opacity:0.5;fill:#FFFFFF;}
	.st17{fill:#00AF64;}
	.st18{fill:#00D17C;}
	.st19{fill:none;stroke:#00D17C;stroke-width:3;stroke-linecap:round;stroke-linejoin:round;stroke-miterlimit:10;}
	.st20{fill:#8C5C3B;}
	.st21{opacity:0.1;fill:#1A1A54;}
	.st22{opacity:0.2;fill:#1A1A54;}
	.st23{fill:none;stroke:#FFFFFF;stroke-width:2;stroke-linecap:round;stroke-miterlimit:10;}
	.st24{fill:#E86942;}
	.st25{fill:#6642AD;}
	.st26{fill:url(#SVGID_11_);}
	.st27{fill:url(#SVGID_12_);}
	.st28{fill:url(#SVGID_13_);}
	.st29{opacity:0.2;}
	.st30{fill:none;stroke:#1A1A54;stroke-width:2;stroke-miterlimit:10;}
	.st31{fill:#E8E8EE;}
	.st32{fill:#D1D1DC;}
	.st33{fill:none;stroke:#D1D1DC;stroke-width:1.8172;stroke-linecap:round;stroke-miterlimit:10;}
	.st34{opacity:0.5;fill:#E8E8EE;}
	.st35{fill:none;stroke:#E8E8EE;stroke-width:7.1126;stroke-linecap:round;stroke-linejoin:round;stroke-miterlimit:10;}
	.st36{fill:none;stroke:#D1D1DC;stroke-width:2.3709;stroke-linecap:round;stroke-miterlimit:10;}
	.st37{fill:#F2AD00;}
	.st38{fill:none;stroke:#E8E8EE;stroke-width:5;stroke-linecap:round;stroke-linejoin:round;stroke-miterlimit:10;}
	.st39{fill:none;stroke:#FFFFFF;stroke-width:4;stroke-linecap:square;stroke-miterlimit:10;}
</style><circle class="st11" cx="32" cy="32" r="32"/><g><path class="st12" d="M17.8,42.7c0.5-1.1,1.2-1.8,2.1-2.4c0.9-0.5,2-0.9,3.1-0.9c1.1,0,2.3,0.3,3.2,0.9c0.9,0.6,1.6,1.5,2,2.5   c0.2,0.5-0.1,1.1-0.6,1.3c-0.1,0-0.2,0.1-0.3,0.1l-0.2,0c-1,0-1.7-0.1-2.3-0.1c-0.6,0-1.1,0-1.7,0c-0.5,0-1.1,0.1-1.8,0.1   c-0.6,0-1.4,0.1-2.2,0.1l-0.4,0c-0.6,0-1.1-0.6-1.1-1.2C17.7,42.9,17.8,42.8,17.8,42.7z"/></g><circle class="st5" cx="38.5" cy="24.5" r="7.5"/><circle class="st5" cx="38.5" cy="24.5" r="7.5"/><circle class="st5" cx="38.5" cy="24.5" r="7.5"/><circle class="st12" cx="40.5" cy="24.5" r="4.5"/><circle class="st5" cx="13.5" cy="24.5" r="7.5"/><circle class="st12" cx="15.5" cy="24.5" r="4.5"/><g><g><path class="st31" d="M7,54.3c-1.4-6.3,1.5-9.9,6.8-10.9c5.3-1,9.5,0.9,11,7.2S24.3,62.9,19,63.9C13.7,64.9,8.5,60.6,7,54.3z"/></g><g><path class="st31" d="M8.8,45.8c0.3,0.3,0.6,0.7,0.9,1c0.3,0.3,0.7,0.6,1,0.9c0.3,0.3,0.7,0.5,0.9,0.5c0.2,0.1,0.6,0.1,0.2-0.3    c1.9,0.8,2.7,3,1.9,4.9c-0.8,1.9-3,2.7-4.9,1.9c-1.3-0.8-1.7-1.5-2.1-2.1c-0.4-0.6-0.6-1.2-0.8-1.8c-0.2-0.6-0.4-1.1-0.5-1.7    c-0.1-0.6-0.2-1.1-0.3-1.7C5,46.3,5.7,45.2,6.8,45c0.7-0.1,1.4,0.1,1.8,0.6L8.8,45.8z"/></g><g><path class="st31" d="M12,43.5c0.2,0.3,0.5,0.8,0.7,1.1c0.3,0.4,0.5,0.7,0.8,1c0.3,0.3,0.6,0.6,0.8,0.7c0.2,0.1,0.5,0.2,0.2-0.2    c1.7,1.2,2.1,3.5,0.9,5.1s-3.5,2.1-5.1,0.9c-1.1-1-1.3-1.8-1.6-2.5c-0.2-0.7-0.4-1.3-0.5-1.9c-0.1-0.6-0.1-1.2-0.2-1.7    c0-0.6,0-1.1,0-1.7c0-1.1,0.9-2,2-2c0.7,0,1.3,0.4,1.7,0.9L12,43.5z"/></g><g><path class="st31" d="M15.6,41.4c0.3,0.3,0.6,0.6,0.9,1c0.3,0.3,0.6,0.7,0.8,1c0.3,0.4,0.5,0.8,0.8,1.2c0.2,0.5,0.5,1,0.6,1.7    c0,2-1.6,3.7-3.7,3.7s-3.7-1.6-3.7-3.7c0.1,0,0.3-0.2,0.4-0.4c0.1-0.2,0.2-0.5,0.2-0.8c0-0.3,0.1-0.6,0.1-1l0-1l0-0.4    c0-1.1,0.9-2,2.1-2C14.7,40.7,15.3,41,15.6,41.4z"/></g><g><path class="st32" d="M17.5,42.1c0.2,0.7,0.4,1.4,0.5,2.2c0.2,0.7,0.3,1.5,0.4,2.3l0,0c0.1,0.8-0.5,1.4-1.2,1.5    c-0.8,0.1-1.4-0.5-1.5-1.2c0-0.1,0-0.2,0-0.3c0.1-0.6,0.1-1.3,0.1-2.1c0-0.7,0-1.4-0.1-2.2l0,0c0-0.5,0.4-0.9,0.9-1    C17,41.4,17.4,41.7,17.5,42.1z"/></g><g><path class="st31" d="M19.5,34.7c0.4,1.1,0.8,2.2,1.2,3.3c0.4,1.1,0.7,2.2,1,3.3c0.7,2.2,1.2,4.5,1.6,6.8c0.3,1.6-0.8,3.2-2.4,3.5    c-1.6,0.3-3.2-0.8-3.5-2.4c0-0.1,0-0.3,0-0.4c-0.1-2.1-0.3-4.2-0.7-6.3c-0.2-1.1-0.4-2.1-0.6-3.2c-0.2-1.1-0.5-2.1-0.7-3.1l0-0.1    c-0.3-1.2,0.4-2.3,1.6-2.6C18,33.2,19.1,33.7,19.5,34.7z"/></g></g><g><path class="st12" d="M6.2,10.9c0.8-1.2,1.9-1.9,3.1-2.5c1.2-0.5,2.6-0.8,3.9-0.7C14.6,7.7,16,8,17.1,8.6c0.6,0.2,1.1,0.7,1.7,1   c0.5,0.4,1,0.8,1.4,1.3c0.3,0.3,0.2,0.8-0.1,1c-0.1,0.1-0.3,0.2-0.5,0.2l-0.1,0c-0.6,0-1.2-0.2-1.7-0.3c-0.5-0.1-1.1-0.2-1.6-0.2   c-1-0.2-2-0.2-3-0.2c-1,0-1.9,0.1-2.9,0.2c-1,0.1-2,0.4-3,0.6l-0.2,0c-0.5,0.1-0.9-0.2-1-0.7C6,11.3,6.1,11,6.2,10.9z"/></g><g><path class="st12" d="M44.1,12.1c-1-0.2-2.1-0.5-3-0.6c-1-0.1-1.9-0.2-2.9-0.2c-1,0-1.9,0.1-3,0.2c-0.5,0-1,0.2-1.6,0.2   c-0.5,0.1-1.1,0.2-1.7,0.3l-0.1,0c-0.4,0-0.7-0.3-0.8-0.7c0-0.2,0.1-0.4,0.2-0.5c0.4-0.5,0.9-0.9,1.4-1.3c0.5-0.3,1-0.8,1.7-1   c1.2-0.6,2.5-0.9,3.8-0.9c1.3,0,2.7,0.2,3.9,0.7c1.2,0.5,2.3,1.3,3.1,2.5c0.3,0.4,0.2,0.9-0.2,1.2c-0.2,0.1-0.4,0.2-0.7,0.1   L44.1,12.1z"/></g></svg>