<?xml version="1.0" ?><svg id="Layer_1" style="enable-background:new 0 0 64 64;" version="1.1" viewBox="0 0 64 64" xml:space="preserve" xmlns="http://www.w3.org/2000/svg" xmlns:xlink="http://www.w3.org/1999/xlink"><style type="text/css">
	.st0{fill:url(#SVGID_1_);}
	.st1{fill:url(#SVGID_2_);}
	.st2{fill:url(#SVGID_3_);}
	.st3{fill:url(#SVGID_4_);}
	.st4{fill:url(#SVGID_5_);}
	.st5{fill:#FFFFFF;}
	.st6{fill:url(#SVGID_6_);}
	.st7{fill:url(#SVGID_7_);}
	.st8{fill:url(#SVGID_8_);}
	.st9{fill:url(#SVGID_9_);}
	.st10{fill:url(#SVGID_10_);}
	.st11{fill:#FFBF0B;}
	.st12{fill:#1A1A54;}
	.st13{fill:#DC2863;}
	.st14{fill:none;stroke:#1A1A54;stroke-width:3;stroke-linecap:round;stroke-linejoin:round;stroke-miterlimit:10;}
	.st15{fill:#0B85FF;}
	.st16{opacity:0.5;fill:#FFFFFF;}
	.st17{fill:#00AF64;}
	.st18{fill:#00D17C;}
	.st19{fill:none;stroke:#00D17C;stroke-width:3;stroke-linecap:round;stroke-linejoin:round;stroke-miterlimit:10;}
	.st20{fill:#8C5C3B;}
	.st21{opacity:0.1;fill:#1A1A54;}
	.st22{opacity:0.2;fill:#1A1A54;}
	.st23{fill:none;stroke:#FFFFFF;stroke-width:2;stroke-linecap:round;stroke-miterlimit:10;}
	.st24{fill:#E86942;}
	.st25{fill:#6642AD;}
	.st26{fill:url(#SVGID_11_);}
	.st27{fill:url(#SVGID_12_);}
	.st28{fill:url(#SVGID_13_);}
	.st29{opacity:0.2;}
	.st30{fill:none;stroke:#1A1A54;stroke-width:2;stroke-miterlimit:10;}
	.st31{fill:#E8E8EE;}
	.st32{fill:#D1D1DC;}
	.st33{fill:none;stroke:#D1D1DC;stroke-width:1.8172;stroke-linecap:round;stroke-miterlimit:10;}
	.st34{opacity:0.5;fill:#E8E8EE;}
	.st35{fill:none;stroke:#E8E8EE;stroke-width:7.1126;stroke-linecap:round;stroke-linejoin:round;stroke-miterlimit:10;}
	.st36{fill:none;stroke:#D1D1DC;stroke-width:2.3709;stroke-linecap:round;stroke-miterlimit:10;}
	.st37{fill:#F2AD00;}
	.st38{fill:none;stroke:#E8E8EE;stroke-width:5;stroke-linecap:round;stroke-linejoin:round;stroke-miterlimit:10;}
	.st39{fill:none;stroke:#FFFFFF;stroke-width:4;stroke-linecap:square;stroke-miterlimit:10;}
</style><circle class="st13" cx="32" cy="32" r="32"/><path class="st5" d="M53,28.5c0,4.1-3.4,7.5-7.5,7.5S38,32.6,38,28.5"/><path class="st12" d="M50,28.5c0,2.5-2,4.5-4.5,4.5S41,31,41,28.5"/><g><path class="st12" d="M37.5,27.4c1.4-0.6,2.8-0.8,4.2-1c1.4-0.2,2.8-0.3,4.2-0.2c1.4,0,2.8,0.1,4.2,0.3c1.4,0.2,2.8,0.5,4.2,1.1   c0.5,0.2,0.7,0.7,0.5,1.2c-0.1,0.2-0.3,0.4-0.5,0.5c-1.4,0.6-2.8,0.9-4.2,1.1c-1.4,0.2-2.8,0.3-4.2,0.3c-1.4,0-2.8-0.1-4.2-0.2   c-1.4-0.2-2.8-0.5-4.2-1c-0.6-0.2-0.9-0.9-0.6-1.5C37,27.8,37.2,27.6,37.5,27.4z"/></g><path class="st5" d="M11,28.5c0,4.1,3.4,7.5,7.5,7.5s7.5-3.4,7.5-7.5"/><path class="st12" d="M14,28.5c0,2.5,2,4.5,4.5,4.5s4.5-2,4.5-4.5"/><g><path class="st12" d="M26.5,29.6c-1.4,0.6-2.8,0.8-4.2,1c-1.4,0.2-2.8,0.3-4.2,0.2c-1.4,0-2.8-0.1-4.2-0.3   c-1.4-0.2-2.8-0.5-4.2-1.1C9,29.2,8.8,28.6,9,28.1c0.1-0.2,0.3-0.4,0.5-0.5c1.4-0.6,2.8-0.9,4.2-1.1c1.4-0.2,2.8-0.3,4.2-0.3   c1.4,0,2.8,0.1,4.2,0.2c1.4,0.2,2.8,0.5,4.2,1c0.6,0.2,0.9,0.9,0.6,1.5C27,29.2,26.8,29.4,26.5,29.6z"/></g><g><path class="st12" d="M20.8,47.3c1.8-1,3.6-1.5,5.5-1.9c1.9-0.4,3.8-0.5,5.7-0.5c1.9,0,3.8,0.2,5.7,0.6c1.9,0.4,3.8,1,5.5,2   c0.4,0.2,0.6,0.8,0.3,1.2c-0.1,0.3-0.4,0.4-0.7,0.4l0,0c-1.9,0.2-3.7,0.3-5.4,0.3c-1.8,0.1-3.6,0.1-5.4,0.1c-1.8,0-3.6,0-5.3,0   c-1.8,0-3.6-0.1-5.4-0.2l0,0c-0.6,0-1.1-0.6-1-1.2C20.3,47.8,20.5,47.5,20.8,47.3z"/></g><g><path class="st12" d="M58.7,6c-0.4,1-1,1.8-1.5,2.6c-0.6,0.8-1.2,1.6-1.9,2.3l0-2.1c0.7,0.7,1.3,1.4,1.9,2.1   c0.6,0.7,1.2,1.5,1.6,2.4c0.2,0.4,0.1,0.9-0.3,1.1c-0.3,0.1-0.5,0.1-0.8,0c-0.9-0.5-1.6-1-2.4-1.6c-0.7-0.6-1.4-1.2-2.1-1.9   c-0.6-0.6-0.6-1.5-0.1-2l0,0c0.7-0.7,1.4-1.4,2.1-2.1c0.8-0.7,1.5-1.3,2.5-1.8c0.4-0.2,0.9-0.1,1.1,0.3C58.8,5.5,58.8,5.8,58.7,6z"/></g><g><path class="st12" d="M43.4,13.5c0.4-1,1-1.8,1.5-2.6c0.6-0.8,1.2-1.6,1.9-2.3l0,2.1C46.2,10,45.6,9.3,45,8.5   c-0.6-0.7-1.2-1.5-1.6-2.4c-0.2-0.4-0.1-0.9,0.3-1.1c0.3-0.1,0.5-0.1,0.8,0c0.9,0.5,1.6,1,2.4,1.6c0.7,0.6,1.4,1.2,2.1,1.9   c0.6,0.6,0.6,1.5,0.1,2l0,0c-0.7,0.7-1.4,1.4-2.1,2.1c-0.8,0.7-1.5,1.3-2.5,1.8c-0.4,0.2-0.9,0.1-1.1-0.3   C43.3,13.9,43.3,13.7,43.4,13.5z"/></g><g><path class="st12" d="M54.8,17.4c-1-0.4-1.8-1-2.6-1.5c-0.8-0.6-1.6-1.2-2.3-1.9l2.1,0c-0.7,0.7-1.4,1.3-2.1,1.9   c-0.7,0.6-1.5,1.2-2.4,1.6c-0.4,0.2-0.9,0.1-1.1-0.3c-0.1-0.3-0.1-0.5,0-0.8c0.5-0.9,1-1.6,1.6-2.4c0.6-0.7,1.2-1.4,1.9-2.1   c0.6-0.6,1.5-0.6,2-0.1l0,0c0.7,0.7,1.4,1.4,2.1,2.1c0.7,0.8,1.3,1.5,1.8,2.5c0.2,0.4,0.1,0.9-0.3,1.1C55.2,17.5,55,17.5,54.8,17.4   z"/></g><g><path class="st12" d="M47.3,2.1c1,0.4,1.8,1,2.6,1.5c0.8,0.6,1.6,1.2,2.3,1.9l-2.1,0c0.7-0.7,1.4-1.3,2.1-1.9   c0.7-0.6,1.5-1.2,2.4-1.6C55,1.9,55.5,2,55.7,2.4c0.1,0.3,0.1,0.5,0,0.8c-0.5,0.9-1,1.6-1.6,2.4c-0.6,0.7-1.2,1.4-1.9,2.1   c-0.6,0.6-1.5,0.6-2,0.1l0,0c-0.7-0.7-1.4-1.4-2.1-2.1c-0.7-0.8-1.3-1.5-1.8-2.5c-0.2-0.4-0.1-0.9,0.3-1.1C46.8,2,47.1,2,47.3,2.1z   "/></g></svg>