<?xml version="1.0" ?><svg id="Layer_1" style="enable-background:new 0 0 64 64;" version="1.1" viewBox="0 0 64 64" xml:space="preserve" xmlns="http://www.w3.org/2000/svg" xmlns:xlink="http://www.w3.org/1999/xlink"><style type="text/css">
	.st0{fill:url(#SVGID_1_);}
	.st1{fill:url(#SVGID_2_);}
	.st2{fill:url(#SVGID_3_);}
	.st3{fill:url(#SVGID_4_);}
	.st4{fill:#FFFFFF;}
	.st5{fill:url(#SVGID_5_);}
	.st6{fill:url(#SVGID_6_);}
	.st7{fill:url(#SVGID_7_);}
	.st8{fill:url(#SVGID_8_);}
	.st9{fill:url(#SVGID_9_);}
	.st10{fill:#FFBF0B;}
	.st11{fill:#1A1A54;}
	.st12{fill:#DC2863;}
	.st13{fill:none;stroke:#1A1A54;stroke-width:3;stroke-linecap:round;stroke-linejoin:round;stroke-miterlimit:10;}
	.st14{fill:#0B85FF;}
	.st15{opacity:0.5;fill:#FFFFFF;}
	.st16{fill:#00AF64;}
	.st17{fill:#00D17C;}
	.st18{fill:none;stroke:#00D17C;stroke-width:3;stroke-linecap:round;stroke-linejoin:round;stroke-miterlimit:10;}
</style><circle class="st14" cx="32" cy="32" r="32"/><g><path class="st11" d="M51.7,20.3c-0.9,0-2,0.2-2.9,0.5c-1,0.3-1.9,0.7-2.7,1.3c-0.8,0.5-1.6,1.1-2.3,1.8c-0.7,0.7-1.3,1.5-1.9,2.3   l-2.4-3.7l0,0c1.3-0.2,2.6-0.3,3.9-0.3c1.3,0,2.6,0.1,3.8,0.3c1.3,0.2,2.5,0.5,3.7,0.9c1.2,0.4,2.3,0.8,3.5,1.5   c0.6,0.3,0.8,1,0.5,1.6C54.7,27,54,27.2,53.5,27l-0.1,0c-1-0.3-2.1-0.6-3.2-0.8C49.1,26.1,48,26,46.9,26c-1.1,0-2.2,0.1-3.2,0.2   c-1.1,0.1-2.1,0.4-3.1,0.7l0,0h-0.8c-1.2,0-2.2-1-2.2-2.2c0-0.6,0.3-1.2,0.7-1.6c0.9-0.9,1.8-1.7,2.9-2.5c1-0.7,2.2-1.3,3.3-1.8   c1.2-0.5,2.4-0.8,3.6-1c1.3-0.2,2.4-0.2,3.8,0c0.6,0.1,1,0.7,1,1.3c-0.1,0.6-0.6,0.9-1.1,1L51.7,20.3z"/></g><g><path class="st11" d="M12,18c1.4-0.2,2.5-0.2,3.8,0c1.2,0.2,2.5,0.5,3.6,1c1.2,0.5,2.3,1.1,3.3,1.8c1.1,0.7,2,1.6,2.9,2.5   c0.9,0.8,0.9,2.2,0,3.1c-0.4,0.4-1,0.6-1.5,0.7l-0.8,0l0,0c-1-0.3-2-0.6-3.1-0.7c-1.1-0.2-2.1-0.2-3.2-0.2c-1.1,0-2.2,0.1-3.3,0.3   c-1.1,0.2-2.2,0.4-3.2,0.8l-0.1,0c-0.6,0.2-1.3-0.1-1.5-0.8c-0.2-0.6,0.1-1.2,0.6-1.5c1.2-0.6,2.3-1.1,3.5-1.5   c1.2-0.4,2.4-0.7,3.7-0.9c1.3-0.2,2.5-0.3,3.8-0.3c1.3,0,2.6,0.1,3.9,0.3l0,0l-2.4,3.7c-0.6-0.8-1.2-1.6-1.9-2.3   c-0.7-0.7-1.5-1.3-2.3-1.8c-0.8-0.5-1.8-0.9-2.7-1.3c-0.9-0.3-2-0.5-2.9-0.5l-0.1,0c-0.6,0-1.1-0.5-1.1-1.2   C11.1,18.6,11.5,18.1,12,18z"/></g><ellipse class="st11" cx="32" cy="45.5" rx="14" ry="11.5"/><path class="st16" d="M42,64H22V49c0-3.3,2.7-6,6-6h8c3.3,0,6,2.7,6,6V64z"/><path class="st17" d="M15,64c0-3.3,2.7-6,6-6s6,2.7,6,6"/><path class="st17" d="M23,64c0-4.4,3.6-8,8-8s8,3.6,8,8"/><path class="st17" d="M34,64c0-3.9,3.1-7,7-7s7,3.1,7,7"/><path class="st17" d="M43,64c0-2.2,1.8-4,4-4s4,1.8,4,4"/><path class="st17" d="M12,64c0-2.2,1.8-4,4-4s4,1.8,4,4"/><circle class="st17" cx="29" cy="49" r="3"/><circle class="st17" cx="36" cy="52" r="2"/></svg>