<svg height="512pt" viewBox="-91 0 512 512.0014" width="512pt" xmlns="http://www.w3.org/2000/svg"><path d="m330.582031 472.835938c-3.542969-148.074219-9.226562-298.148438-16.890625-446.0625-.191406-3.699219-.433594-8.308594-2.695312-12.496094-5.542969-10.253906-19.15625-11.238282-24.964844-11.65625-79.765625-5.75-160.707031-.917969-238.984375 3.75-7.164063.429687-16.980469 1.015625-24.332031 6.933594-9.90625 7.972656-10.148438 20.101562-10.34375 29.84375-.035156 1.75-.070313 3.402343-.148438 5.015624-.699218 14.269532-1.144531 28.792969-1.519531 42.359376l-10.6523438 385.710937c-.0976562 3.59375-.2226562 8.0625 1.4726568 12.308594 4.171874 10.476562 16.027343 13.585937 24.582031 15.011719 15.792969 2.632812 31.652343 3.734374 46.542969 4.636718 41.863281 2.539063 84.0625 3.808594 126.230468 3.808594 33.496094 0 66.980469-.800781 100.253906-2.40625 6.160157-.296875 15.46875-.746094 22.222657-6.375 9.761719-8.140625 9.414062-22.613281 9.226562-30.382812zm-15.660156 22.671874c-3.851563 3.210938-9.648437 3.738282-16.273437 4.058594-74.800782 3.605469-150.636719 3.136719-225.394532-1.398437-14.625-.886719-30.1875-1.964844-45.496094-4.515625-9.652343-1.609375-15.183593-4.496094-16.910156-8.824219-.925781-2.328125-.84375-5.371094-.761718-8.316406l10.652343-385.710938c.375-13.511719.816407-27.96875 1.511719-42.148437.085938-1.757813.121094-3.558594.15625-5.304688.179688-8.839844.34375-17.1875 6.605469-22.226562 4.488281-3.613282 11.09375-4.277344 18.636719-4.730469 77.949218-4.648437 158.550781-9.460937 237.660156-3.757813 6.484375.46875 14.261718 1.621094 16.855468 6.417969 1.1875 2.195313 1.347657 5.269531 1.5 8.242188 7.660157 147.816406 13.339844 297.800781 16.882813 445.78125.203125 8.417969-.050781 17.785156-5.625 22.433593zm0 0"/><path d="m286.488281 64.605469c-.222656-6.265625-.507812-14.0625-4.140625-20.832031-5.8125-10.820313-15.167968-10.625-22.6875-10.464844-1.023437.019531-2.082031.042968-3.128906.042968-7.496094-.011718-15.21875-.4375-22.6875-.847656-3.777344-.210937-7.683594-.425781-11.53125-.585937l-68.84375-2.871094c-20.894531-.871094-42.5-1.773437-63.867188-.511719-9.710937.574219-19.515624 1.605469-29.140624 3.066406-5.203126.789063-11.101563 2.007813-15.25 6.5-2.816407 3.054688-4.039063 6.804688-4.96875 10.082032-5.570313 19.679687-6.378907 40.109375-7.160157 59.925781-1.355469 34.371094-2.753906 69.917969-2.992187 104.9375-.101563 15.222656 1.515625 31.972656 14.269531 40.789063 6.566406 4.535156 14.34375 5.585937 22.398437 6.335937 31.960938 2.972656 65.570313 4.453125 101.515626 4.453125 26.105468 0 53.449218-.78125 82.261718-2.34375 6.722656-.363281 15.085938-.816406 22.386719-4.804688 8.171875-4.460937 14.390625-13.253906 17.054687-24.117187 2.269532-9.234375 1.933594-18.515625 1.609376-27.496094zm-6.257812 166.359375c-1.996094 8.132812-6.414063 14.585937-12.121094 17.699218-4.910156 2.683594-10.855469 3.199219-18.117187 3.589844-67.992188 3.683594-127.621094 3.003906-182.304688-2.082031-6.929688-.644531-13.042969-1.433594-17.617188-4.597656-8.90625-6.15625-10.023437-19.863281-9.9375-32.460938.234376-34.855469 1.632813-70.316406 2.984376-104.667969.757812-19.171874 1.539062-38.996093 6.789062-57.527343.636719-2.257813 1.371094-4.582031 2.683594-6.003907 1.945312-2.109374 5.699218-2.828124 9.378906-3.386718 9.320312-1.414063 18.816406-2.414063 28.226562-2.96875 7.375-.4375 14.808594-.605469 22.257813-.605469 13.609375 0 27.253906.566406 40.597656 1.125l68.84375 2.871094c3.78125.15625 7.652344.371093 11.398438.578125 7.597656.417968 15.457031.851562 23.226562.863281 1.136719-.011719 2.253907-.023437 3.351563-.046875 7.636718-.15625 10.839844-.015625 13.632812 5.179688 2.53125 4.710937 2.753906 10.945312 2.953125 16.445312l5.097657 141.253906c.300781 8.292969.605468 16.867188-1.324219 24.742188zm0 0"/><path d="m124.675781 357.851562c-.1875-.765624-.695312-2.804687-2.703125-4.167968-1.957031-1.324219-4-1.078125-4.761718-.984375-5.433594.652343-10.898438 1.472656-16.308594 2.4375-.019532-.148438-.039063-.292969-.058594-.441407-.503906-3.714843-1.023438-7.554687-1.488281-11.320312-.222657-1.824219-.195313-3.722656-.171875-5.734375.023437-1.828125.050781-3.71875-.101563-5.730469-.101562-1.324218-.339843-4.425781-3.019531-6.46875-2.089844-1.59375-4.414062-1.539062-5.53125-1.519531-7.660156.164063-13.886719.550781-19.59375 1.222656-3.667969.429688-9.808594 1.152344-13.601562 6.003907-3.695313 4.726562-3.054688 10.453124-2.589844 14.636718l.167968 1.582032c.21875 2.113281.671876 6.511718 1.160157 10.449218.070312.566406.136719 1.101563.203125 1.609375-7.101563.191407-14.164063 1.148438-21.074219 2.859375-2.449219.605469-4.070313 2.933594-3.785156 5.441406l3.023437 26.503907c.292969 2.582031 2.542969 4.515625 5.105469 4.453125 5.96875-.144532 11.933594-.800782 17.792969-1.960938 1.558594 8.640625 2.46875 17.429688 2.699218 26.1875.019532.753906.078126 3.054688 2.003907 4.820313 1.53125 1.398437 3.292969 1.59375 4.320312 1.59375.257813 0 .46875-.011719.617188-.019531 8.753906-.507813 17.546875-1.675782 26.136719-3.464844 1.289062-.269532 5.207031-1.085938 6.820312-4.777344.746094-1.699219.660156-3.300781.613281-4.15625-.398437-7.386719-1.566406-14.710938-3.472656-21.851562 2.339844-.445313 5.433594-1.121094 9.558594-2.125 14.410156-3.503907 16.109375-4.929688 16.921875-5.609376 7.460937-6.261718 3.917968-19.183593 1.800781-26.90625-.261719-.957031-.5-1.820312-.683594-2.5625zm-7.371093 21.578126c-3.617188 1.652343-21.652344 5.96875-25.761719 6.363281-.828125-.167969-1.714844-.128907-2.578125.15625-2.628906.867187-4.058594 3.707031-3.191406 6.339843h.003906c2.550781 7.722657 4.121094 15.738282 4.667968 23.851563-6.738281 1.378906-13.605468 2.347656-20.5 2.898437-.460937-9.863281-1.722656-19.730468-3.761718-29.378906-.28125-1.335937-1.09375-2.5-2.253906-3.222656-.804688-.5-1.726563-.761719-2.65625-.761719-.410157 0-.820313.050781-1.226563.152344-5.292969 1.332031-10.710937 2.203125-16.164063 2.597656l-1.976562-17.34375c6.675781-1.304687 13.484375-1.84375 20.285156-1.59375 2.773438.125 5.097656-2.0625 5.199219-4.832031.03125-.875-.160156-1.710938-.53125-2.441406-.246094-1.152344-.8125-4.738282-1.957031-15.875l-.175782-1.671875c-.320312-2.871094-.652343-5.835938.519532-7.335938 1.121094-1.433593 3.886718-1.867187 6.863281-2.21875 4.980469-.582031 10.429687-.941406 17.03125-1.117187.035156 1.136718.023437 2.296875.007813 3.507812-.03125 2.257813-.0625 4.59375.242187 7.09375.472656 3.828125.996094 7.703125 1.503906 11.445313.257813 1.886719.511719 3.773437.761719 5.660156.183594 1.375.925781 2.613281 2.050781 3.421875 1.128907.808594 2.542969 1.117188 3.898438.84375 5.933593-1.171875 11.976562-2.164062 18.054687-2.957031.007813.019531.011719.039062.015625.058593.953125 3.472657 3.796875 13.839844 1.628907 16.359376zm0 0"/><path d="m205.738281 325.335938c5.507813-7.140626 6.59375-17.402344 2.832031-26.777344-4.339843-10.816406-17.484374-19.566406-29.410156-14.828125-12.066406 4.796875-23.394531 16.675781-21.703125 30.097656 1.394531 11.058594 11.90625 20.175781 24.445313 21.207031.832031.066406 1.664062.101563 2.488281.101563 8.570313 0 16.589844-3.632813 21.347656-9.800781zm-7.953125-6.132813c-3.113281 4.035156-9.035156 6.320313-15.0625 5.824219-6.820312-.558594-14.410156-5.371094-15.304687-12.457032-1.042969-8.269531 7.183593-16.222656 15.449219-19.507812 6.15625-2.449219 13.867187 2.953125 16.386718 9.234375 2.40625 5.996094 1.832032 12.632813-1.46875 16.90625zm0 0"/><path d="m248.382812 336.855469c.832032.070312 1.664063.101562 2.488282.101562 8.570312 0 16.589844-3.632812 21.347656-9.800781 5.507812-7.140625 6.59375-17.402344 2.832031-26.777344-4.339843-10.816406-17.484375-19.5625-29.410156-14.824218-12.066406 4.796874-23.394531 16.675781-21.703125 30.097656 1.398438 11.058594 11.90625 20.175781 24.445312 21.203125zm.964844-41.972657c1.039063-.414062 2.121094-.601562 3.214844-.601562 5.394531 0 11.078125 4.613281 13.171875 9.835938 2.40625 5.996093 1.828125 12.632812-1.464844 16.90625-3.113281 4.035156-9.027343 6.320312-15.066406 5.828124-6.820313-.558593-14.410156-5.375-15.304687-12.460937-1.042969-8.265625 7.179687-16.21875 15.449218-19.507813zm0 0"/><path d="m282.429688 447.566406c-26.101563-.917968-52.570313-.9375-78.671876-.054687-2.769531.09375-4.941406 2.417969-4.847656 5.1875s2.414063 4.933593 5.1875 4.847656c25.871094-.875 52.105469-.859375 77.980469.050781.058594.003906.117187.003906.175781.003906 2.691406 0 4.921875-2.132812 5.015625-4.84375.097657-2.769531-2.070312-5.09375-4.839843-5.191406zm0 0"/><path d="m282.429688 428.136719c-26.101563-.917969-52.570313-.933594-78.671876-.050781-2.769531.09375-4.941406 2.414062-4.847656 5.183593.09375 2.773438 2.414063 4.9375 5.1875 4.847657 25.871094-.875 52.105469-.855469 77.980469.054687.058594 0 .117187.003906.175781.003906 2.691406 0 4.921875-2.132812 5.015625-4.84375.097657-2.773437-2.070312-5.097656-4.839843-5.195312zm0 0"/><path d="m282.429688 408.710938c-26.101563-.917969-52.570313-.9375-78.671876-.054688-2.769531.09375-4.941406 2.417969-4.847656 5.1875s2.414063 4.941406 5.1875 4.84375c25.871094-.875 52.105469-.855469 77.980469.054688.058594.003906.117187.003906.175781.003906 2.691406 0 4.921875-2.132813 5.015625-4.84375.097657-2.769532-2.070312-5.09375-4.839843-5.191406zm0 0"/><path d="m282.429688 389.28125c-26.101563-.917969-52.570313-.9375-78.671876-.054688-2.769531.097657-4.941406 2.417969-4.847656 5.1875.09375 2.769532 2.414063 4.949219 5.1875 4.847657 25.871094-.875 52.105469-.859375 77.980469.050781.058594.003906.117187.003906.175781.003906 2.691406 0 4.921875-2.132812 5.015625-4.84375.097657-2.769531-2.070312-5.09375-4.839843-5.191406zm0 0"/></svg>