<svg height="512pt" viewBox="0 -118 512.0008 512" width="512pt" xmlns="http://www.w3.org/2000/svg"><path d="m510.527344 40.941406c-.324219-8.328125-1.042969-16.332031-6.234375-22.765625-6.429688-7.964843-16.785157-9.75-25.984375-10.792969-34.792969-3.953124-68.503906-6.058593-100.199219-6.257812-28.542969-.175781-57.082031-.3125-85.625-.449219-14.269531-.066406-28.542969-.132812-42.8125-.207031l-72.449219-.3710938c-49.046875-.2500002-99.769531-.5078122-149.441406 5.9414058-6.664062.867188-13.625 2.105469-19.007812 6.785157-8.257813 7.179687-8.851563 18.476562-8.7656255 28.5.6249995 70.757812 2.4218755 142.46875 5.3515625 213.148437.117187 2.851563.292969 7.160156 2.996094 10.671875 4.144531 5.390625 11.476562 5.480469 15 5.523438l456.253906 5.554687c.628906.007813 1.308594.015625 2.023437.015625 5.71875 0 13.835938-.527343 19.378907-6.082031 5.09375-5.109375 5.96875-12.132812 6.429687-18.894531 4.761719-69.722657 5.800782-140.488281 3.085938-210.320313zm-447.0625 68.148438c-.046875-2.335938-.101563-4.988282.785156-6.628906 1.730469-3.199219 7.511719-3.828126 12.351562-4.015626 5.589844-.222656 11.1875-.441406 16.789063-.65625-.425781 27.519532.292969 55.332032 2.175781 82.753907.109375 1.558593.359375 5.210937 3.359375 7.53125 2.054688 1.589843 4.363281 1.753906 5.867188 1.753906.207031 0 .394531-.003906.570312-.007813 3.464844-.054687 6.945313-.144531 10.429688-.25l.171875 72.1875-49.433594-.601562c.003906-.097656.027344-.191406.023438-.289062zm377.875 156.625-44.511719-.539063c2.257813-23.21875 3.519531-46.792969 3.765625-70.125 4.671875-.035156 9.34375-.144531 13.988281-.378906 2.515625-.125 4.546875-2.097656 4.75-4.609375 2.460938-30.421875 2.722657-61.28125.820313-91.761719 7.710937.597657 15.417968 1.253907 23.113281 1.976563.3125.027344 1.128906.105468 1.625.222656.0625.371094.09375.988281.09375 1.832031.015625 54.25-1.210937 109.21875-3.644531 163.382813zm-31.285156-168.15625c1.875 28.972656 1.746093 58.304687-.386719 87.277344-9.527344.34375-19.128907.261718-28.644531-.242188-1.8125-29.511719-1.125-59.316406 2.042968-88.699219 9.003906.480469 18.003906 1.03125 26.988282 1.664063zm-38.757813 92.128906c.175781 2.503906 2.171875 4.492188 4.671875 4.660156 4.84375.324219 9.710938.53125 14.585938.640625-.246094 23.3125-1.515626 46.875-3.796876 70.0625l-55.652343-.675781.183593-72.328125 18.089844.023437h.007813c2.753906 0 4.992187-2.222656 5.019531-4.976562l.808594-92.457031c5.9375.222656 11.878906.46875 17.8125.75-3.335938 31.246093-3.921875 62.957031-1.730469 94.300781zm-26.886719-7.664062-32.515625-.039063 1.394531-88.445313c10.632813.167969 21.261719.417969 31.886719.753907zm-41.195312 8.496093c.941406.957031 2.230468 1.496094 3.574218 1.5l14.460938.015625-.183594 72.21875-69.230468-.84375 8.644531-170.121094c14.25-.082031 28.511719-.050781 42.769531.109376l-1.472656 93.523437c-.023438 1.34375.496094 2.636719 1.4375 3.597656zm-61.425782 72.769531-50.78125-.621093.160157-71.894531c4.429687.144531 8.855469.257812 13.261719.292968h.039062c2.660156 0 4.863281-2.082031 5.011719-4.746094 1.699219-30.957031-1.367188-62.085937-4.371094-92.207031 15.082031-.347656 30.191406-.601562 45.316406-.746093zm-46.746093-168.9375c2.835937 28.40625 5.761719 57.722657 4.636719 86.613282-10.8125-.183594-21.699219-.71875-32.449219-1.585938-.636719-27.96875-.328125-56.292968.894531-84.269531 8.960938-.277344 17.933594-.527344 26.917969-.757813zm-37.820313 86.570313c.027344 1.074219.074219 3.078125 1.378906 4.96875 2.078126 3.023437 5.59375 3.3125 6.917969 3.421875 5.175781.429688 10.386719.757812 15.609375 1.03125l-.160156 72.203125-54.964844-.667969-.171875-72.691406c5.289063-.234375 10.578125-.519531 15.828125-.871094 2.753906-.1875 4.84375-2.5625 4.675782-5.316406l-5.347657-86.992188c5.683594-.199218 11.378907-.390624 17.074219-.578124-1.222656 28.390624-1.515625 57.125-.839844 85.492187zm-26.269531-84.554687 5.054687 82.246093c-10.121093.605469-20.332031.996094-30.429687 1.164063-1.871094-27.296875-2.582031-54.984375-2.140625-82.378906 9.152344-.351563 18.324219-.699219 27.515625-1.03125zm366.472656 154.214843c-.34375 5.0625-.875 9.832031-3.523437 12.484375-2.992188 3-8.636719 3.183594-14.171875 3.117188l-28.347657-.34375c2.429688-54.210938 3.65625-109.21875 3.640626-163.511719 0-2.085937-.003907-5.96875-2.828126-8.882813-2.570312-2.652343-6.097656-2.984374-7.992187-3.164062-122.546875-11.511719-247.324219-6.609375-367.992187-1.867188-4.824219.1875-16.117188.632813-20.789063 9.265626-2.152344 3.976562-2.0625 8.394531-1.996094 11.617187l3.089844 151.734375-33.039063-.402344c-1.789062-.019531-5.984374-.074218-7.160156-1.601562-.761718-.992188-.859375-3.289063-.925781-4.972656-2.921875-70.566407-4.722656-142.171876-5.34375-212.816407-.070313-7.785156.28125-16.460937 5.3125-20.835937 3.277344-2.847656 8.359375-3.707032 13.71875-4.40625 39.445313-5.125 79.773437-5.957032 119.417969-5.957032 9.605468 0 19.175781.050782 28.675781.097657l72.449219.371093c14.273437.074219 28.542968.140626 42.8125.210938 28.539062.132812 57.078125.269531 85.613281.449219 31.339844.195312 64.6875 2.277343 99.128906 6.191406 7.21875.820313 15.257813 2.113281 19.304688 7.125 3.265625 4.046875 3.75 10.023437 4.015625 16.847656 2.699218 69.476563 1.667968 139.878907-3.070313 209.25zm0 0"/><path d="m455.9375 29.632812c-9.296875-4.042968-20.050781-3.933593-28.765625.289063-9.359375 4.539063-16.070313 13.914063-17.097656 23.882813-.90625 8.785156 2.699219 17.007812 9.894531 22.558593 3.121094 2.410157 7 4.28125 11.851562 5.726563 4.515626 1.34375 8.929688 2.011718 13.101563 2.011718 5.652344 0 10.867187-1.226562 15.285156-3.65625 10.953125-6.027343 16.648438-20.105468 12.96875-32.050781-2.585937-8.390625-8.710937-15.054687-17.238281-18.761719zm-.570312 42.015626c-7.160157 3.941406-16.03125 2.203124-20.679688.820312-3.652344-1.085938-6.457031-2.414062-8.585938-4.050781-5.695312-4.398438-6.429687-9.8125-6.039062-13.582031.679688-6.589844 5.1875-12.824219 11.488281-15.878907 6.023438-2.921875 13.835938-2.964843 20.382813-.117187 5.800781 2.519531 9.9375 6.964844 11.644531 12.511718 2.292969 7.441407-1.390625 16.542969-8.210937 20.296876zm0 0"/><path d="m62.132812 20.203125c-12.679687.707031-23.949218 8.066406-29.414062 19.203125-4.695312 9.566406-4.132812 21.082031 1.433594 29.332031 6.195312 9.171875 17.171875 12.898438 27.128906 12.898438 2.25 0 4.445312-.191407 6.523438-.550781 6.203124-1.074219 11.753906-3.4375 16.050781-6.835938 11.472656-9.078125 14.425781-27.304688 6.449219-39.808594-6.195313-9.703125-16.46875-14.890625-28.171876-14.238281zm15.492188 46.171875c-2.984375 2.363281-6.976562 4.027344-11.535156 4.820312-8.09375 1.402344-18.535156-.550781-23.613282-8.074218-3.539062-5.242188-3.839843-12.992188-.75-19.292969v.003906c3.816407-7.765625 12.042969-13.109375 20.964844-13.605469 7.988282-.449218 14.964844 3.058594 19.148438 9.617188 5.242187 8.210938 3.269531 20.609375-4.214844 26.53125zm0 0"/><path d="m364.464844 31.441406c-75.714844-2.582031-152.519532-3.257812-228.273438-2.007812-2.773437.042968-4.980468 2.328125-4.9375 5.101562.046875 2.742188 2.285156 4.9375 5.019532 4.9375.027343 0 .054687 0 .082031-.003906 75.589843-1.242188 152.21875-.570312 227.769531 2.007812h.171875c2.691406 0 4.921875-2.132812 5.015625-4.847656.089844-2.769531-2.078125-5.09375-4.847656-5.1875zm0 0"/><path d="m353.835938 53.097656c-69.898438-1.503906-140.78125-1.1875-210.675782.949219-2.773437.085937-4.949218 2.402344-4.867187 5.171875.085937 2.71875 2.316406 4.867188 5.015625 4.867188.050781 0 .105468-.003907.15625-.003907 69.726562-2.128906 140.429687-2.449219 210.152344-.945312 2.726562.035156 5.066406-2.140625 5.128906-4.910157.058594-2.769531-2.140625-5.066406-4.910156-5.128906zm0 0"/></svg>