<svg height="512pt" viewBox="0 -41 512.00131 512" width="512pt" xmlns="http://www.w3.org/2000/svg"><path d="m510.96875 178.886719c-.6875-4.253907-2.03125-9.578125-6.375-13.023438-3.585938-2.84375-7.867188-3.382812-11.945312-3.695312-15.382813-1.175781-30.996094-1.453125-46.425782-.847657-4.460937-10.226562-11.996094-18.402343-23.367187-20.015624-7.140625-1.015626-14.664063-.617188-21.941407-.230469-3.691406.199219-7.183593.382812-10.542968.386719-14.335938.011718-28.957032.066406-43.453125.171874-41.78125.292969-83.980469.972657-125.972657 2.015626.234376-5.128907.421876-10.265626.558594-15.410157 16.8125-.957031 33.972656-1.382812 50.597656-1.792969 43.914063-1.082031 89.320313-2.195312 132.757813-13.152343 12.304687-3.105469 26.191406-7.640625 35.878906-17.753907 3.765625-3.929687 6.628907-8.585937 8.550781-13.589843 2.46875 1.183593 5.214844 1.785156 7.957032 1.785156 4.054687-.003906 8.109375-1.300781 11.257812-3.917969 6.652344-5.535156 8.367188-15.917968 3.898438-23.640625-4.117188-7.121093-12.894532-11.203125-21.359375-9.917969-1.195313.183594-2.320313.457032-3.410157.757813-.726562-1.382813-1.535156-2.730469-2.4375-4.019531-10.992187-15.667969-31.054687-20.726563-45.195312-23.167969-19.238281-3.320313-38.625-4.292969-56.707031-4.84375-42.25-1.292969-85.144531-.390625-126.6875.523437-.359375-2.433593-.808594-4.835937-1.425781-7.222656-.292969-1.132812-.980469-3.78125-3.332032-5.535156-1.628906-1.21875-3.375-1.507812-4.414062-1.679688-6.070313-1.007812-14.386719-2.382812-21.640625 1.625-4.960938 2.746094-8.765625 7.785157-10.714844 14.1875-.027344.085938-.046875.175782-.070313.261719-13.179687.230469-29.695312 1.425781-45.136718 7.273438-17.328125 6.566406-30.550782 18.050781-37.230469 32.34375-.34375.738281-.660156 1.480469-.964844 2.230469-9.441406-.03125-18.789062 1.105468-27.917969 3.335937-15.925781 3.894531-29.921874 11.039063-40.476562 20.664063-12.074219 11.011718-19.941406 25.828124-21.582031 40.652343-1.828125 16.484375 4.164062 33.214844 15.640625 43.664063 4.105468 3.738281 8.699218 6.585937 13.257812 9.238281-2.21875 5.058594-3.914062 10.359375-5.417968 15.433594-2.347657 7.9375-9.492188 32.082031 5.742187 44.691406 4.636719 3.835937 10.242187 5.589844 15.667969 7.28125 6.15625 1.921875 11.472656 3.582031 13.75 7.785156 2.488281 4.59375.359375 11.351563-1.460938 16.03125-7.601562 19.574219-19.71875 37.582031-31.4375 54.992188-5.652344 8.398437-11.496094 17.082031-16.824218 25.910156-6.175782 10.230469-12.21875 22.398437-10.230469 35.101563 2.132812 13.625 12.882812 25.273437 31.957031 34.621093 16.703125 8.1875 31.757812 12.234375 45.65625 12.234375 4.183594 0 8.261719-.367187 12.246094-1.097656 31.84375-5.828125 53.105468-34.898438 62.382812-60.15625 3.214844-8.757812 5.546875-17.761719 7.375-26.84375 5.78125-.621094 11.703125-.207031 17.941406.238281 3.574219.253907 7.269532.519531 10.96875.574219.488282.007812.972657.011719 1.460938.011719 17.121094 0 34.878906-4.488281 51.449219-13.015625 16.859375-8.679688 30.625-20.625 39.8125-34.554688 9.910156-15.03125 14.511719-32.886718 12.808593-49.363281l91.480469-1.542969c13.585938-.226562 32.1875-.542968 45.796875-11.070312 5.796875-4.480469 9.921875-10.167969 12.855469-16.160156.308594.078124.628906.125.960937.140624 13.730469.609376 27.667969.917969 41.429688.917969h.097656c4.308594 0 10.214844 0 15.265625-3.199219 6.125-3.875 9.371094-11.164062 9.644531-21.667968.125-4.992188-.210937-10.023438-1.007812-14.953125zm-58.417969-122.703125c4.40625-.667969 9.097657 1.441406 11.164063 5.015625 2.019531 3.492187 1.273437 8.480469-1.628906 10.894531-2.722657 2.265625-7.402344 2.15625-10.015626-.238281-.066406-.058594-.140624-.097657-.207031-.152344.648438-5.089844.40625-10.273437-.738281-15.226563.488281-.117187.964844-.222656 1.425781-.292968zm-109.5625-31.164063c17.714844.542969 36.675781 1.488281 55.304688 4.703125 12.371093 2.136719 29.84375 6.433594 38.683593 19.039063 8.082032 11.519531 6.519532 29.390625-3.484374 39.832031-7.910157 8.253906-19.613282 12.070312-31.085938 14.964844-42.351562 10.679687-87.1875 11.785156-130.550781 12.851562-16.449219.402344-33.421875.828125-50.144531 1.761719.4375-30.914063-.886719-61.957031-3.960938-92.648437 41.128906-.902344 83.5625-1.78125 125.238281-.503907zm-158.304687-5.214843c1.164062-3.835938 3.339844-6.867188 5.96875-8.320313 3.820312-2.113281 8.976562-1.523437 14.839844-.558594 1.035156 4.039063 1.519531 8.234375 2.003906 12.902344 4.121094 39.757813 5.257812 80.148437 3.390625 120.082031-8.761719.230469-17.503907.480469-26.238281.742188-2.128907-37.144532-2.636719-74.777344-1.480469-111.933594.128906-4.144531.273437-8.839844 1.515625-12.914062zm-106.851563 128.867187c-8.964843.410156-20.015625.921875-29.382812 6.238281-3.597657-2.867187-6.132813-7.898437-7.515625-15.011718-1.730469-8.890626-1.207032-17.058594 1.515625-23.625 3.382812-8.171876 10.746093-15.140626 20.191406-19.117188 7.941406-3.34375 17.476563-4.730469 28.320313-4.160156 1.804687 4.84375 4.453124 9.277344 7.929687 12.984375 7.640625 8.148437 18.132813 12.261719 27.386719 15.210937 15.425781 4.914063 31.4375 7.992188 47.585937 9.160156.222657 4.875.472657 9.742188.75 14.601563-32.097656 1.011719-64.660156 2.265625-96.78125 3.71875zm23.90625-87.65625c5.484375-11.738281 17.035157-21.65625 31.691407-27.207031 13.339843-5.054688 27.914062-6.289063 39.933593-6.585938-.125 1.824219-.179687 3.574219-.230469 5.179688-.90625 29.140625-.808593 58.574218.292969 87.835937-14.96875-1.171875-29.796875-4.054687-44.105469-8.613281-8.019531-2.558594-17.042968-6.042969-23.109374-12.511719-8.753907-9.339843-10.59375-25.003906-4.472657-38.097656zm-77.636719 98.871094c-9.144531-8.324219-13.90625-21.789063-12.425781-35.136719 1.378907-12.433594 8.074219-24.949219 18.367188-34.335938 9.320312-8.496093 21.800781-14.835937 36.097656-18.332031 7.425781-1.816406 15.046875-2.820312 22.6875-3.011719-.773437 4.605469-.878906 9.261719-.324219 13.773438-11.167968-.253906-21.164062 1.441406-29.761718 5.058594-11.859376 4.996094-21.179688 13.9375-25.566407 24.53125-3.480469 8.390625-4.203125 18.550781-2.097656 29.382812 1.648437 8.460938 4.78125 14.960938 9.324219 19.390625-1.90625 1.984375-3.585938 4.160157-5.085938 6.46875-3.984375-2.328125-7.933594-4.796875-11.214844-7.789062zm64.335938 259.769531c-15.042969 2.753906-31.949219-.605469-51.675781-10.273438-15.957031-7.824218-24.859375-16.960937-26.457031-27.160156-1.484376-9.496094 3.402343-19.242187 8.90625-28.359375 5.203124-8.617187 10.976562-17.195312 16.558593-25.492187 11.46875-17.039063 23.300781-34.640625 31.320313-54.113282 8.824218 9.917969 21.464844 15.160157 31.464844 17.886719 8.242187 2.25 16.480468 3.351563 24.433593 3.351563 12.789063 0 24.828125-2.863282 34.9375-8.382813-.914062 6.234375-1.71875 12.515625-2.496093 18.632813-2.5625 20.191406-5.210938 41.074218-12.226563 60.167968-8.320313 22.65625-27.078125 48.675782-54.765625 53.742188zm124.203125-171.769531c.914063 7.421875 1.71875 15.035156.167969 22.085937-1.292969 5.875-5.058594 12.984375-11.738282 15.308594-4.339843 1.507812-9.449218.613281-13.011718-2.285156-1.113282-.90625-1.433594-1.496094-1.523438-1.765625-.464844-1.414063 1.386719-4.304688 2.742188-6.417969 5.796875-9.046875 8.472656-17.507812 8.015625-25.226562 4.925781-1.003907 10.15625-1.46875 15.347656-1.699219zm-25.378906 4.824219c-.351563 4.953124-2.5 10.539062-6.4375 16.683593-2.304688 3.597657-5.789063 9.035157-3.820313 14.988281.78125 2.367188 2.328125 4.460938 4.722656 6.40625 4.203126 3.414063 9.640626 5.234376 15.058594 5.234376 2.574219 0 5.148438-.414063 7.578125-1.257813 8.863281-3.082031 15.855469-11.753906 18.25-22.636719 1.828125-8.308594 1.039063-16.804687.109375-24.496094l21.136719-.359374c1.863281 17.5-7.953125 36.261718-24.726563 47.019531-14.246093 9.132812-33.121093 12.839843-53.472656 10.582031.859375-6.738281 1.75-13.636719 2.808594-20.363281 1.359375-8.65625 3.132812-17.652344 8.46875-24.152344 2.769531-3.375 6.308594-5.839844 10.324219-7.648437zm96.574219-6.105469c.191406.230469.398437.441406.617187.632812 1.53125 14.253907-2.503906 29.832031-11.199219 43.019531-8.238281 12.492188-20.695312 23.265626-36.023437 31.152344-15.582031 8.019532-32.253907 12.121094-48.164063 11.894532-3.417968-.050782-6.8125-.292969-10.40625-.546876-5.480468-.394531-11.109375-.785156-16.804687-.449218.960937-5.832032 1.773437-11.667969 2.53125-17.472656 4.300781.484374 8.546875.730468 12.714843.730468 17.851563 0 34.300782-4.390625 47.453126-12.824218 19.636718-12.589844 31.214843-34.691407 29.378906-55.636719l29.902344-.503907zm141.742187-20.738281c-10.144531 7.847656-24.035156 8.707031-39.820313 8.976562l-166.527343 2.804688c-17.976563.304687-38.152344 1.84375-50.050781 16.339843-4.753907 5.789063-7.277344 12.746094-8.875 19.636719-.199219.117188-.402344.226562-.589844.371094-14.507813 11.335937-36.382813 14.5-58.515625 8.464844-10.199219-2.785157-23.550781-8.5-30.289063-19.929688.980469-5.035156.976563-10.5625-1.742187-15.574219-4.222657-7.789062-12.382813-10.335937-19.585938-12.585937-4.703125-1.46875-9.144531-2.855469-12.257812-5.433594-6.8125-5.636719-7.636719-16.796875-2.515625-34.105469 3.589844-12.132812 7.90625-24.484375 17.628906-30.625 6.851562-4.324219 15.394531-5.03125 25.847656-5.503906 32.117188-1.457031 64.675782-2.707031 96.765625-3.71875 57.027344-1.796875 114.878907-2.914063 171.941407-3.3125 14.472656-.105469 29.074218-.160156 43.390624-.171875 3.621094-.003906 7.40625-.203125 11.066407-.398438 6.796875-.363281 13.824219-.734374 19.996093.140626 17.203126 2.445312 21.21875 28.945312 19.546876 42.59375-1.246094 10.136718-4.925782 23.925781-15.414063 32.03125zm76.359375-32.285157c-.125 4.773438-1.085938 10.984375-4.972656 13.445313-2.421875 1.527344-5.964844 1.652344-9.996094 1.640625-12.828125 0-25.808594-.28125-38.628906-.816407 1.320312-4.488281 2.132812-8.878906 2.613281-12.796874.871094-7.105469.476563-15.636719-1.460937-23.804688 14.109374-.449219 28.347656-.144531 42.394531.925781 2.628906.203125 5.101562.472657 6.46875 1.554688 1.636719 1.300781 2.304687 4.292969 2.703125 6.753906.695312 4.320313.992187 8.726563.878906 13.097656zm0 0"/><path d="m323.839844 173.863281c-2.289063.117188-4.261719.210938-5.691406.195313l-56.933594-.835938c-19.882813-.292968-40.445313-.59375-60.292969 5.207032-3.351563.980468-6.867187 2.226562-9.863281 4.679687-3.914063 3.203125-5.957032 7.957031-5.335938 12.402344.601563 4.300781 3.445313 8.027343 8.445313 11.082031 8.574219 5.230469 18.457031 6.929688 27.855469 7.984375 13.265624 1.488281 26.636718 1.925781 39.902343 1.925781 9.492188 0 18.933594-.226562 28.238281-.445312 14.636719-.34375 29.773438-.703125 44.65625-3.070313 5.835938-.925781 11.957032-2.277343 17.167969-5.851562 6.535157-4.484375 10.019531-11.78125 8.878907-18.597657-2.742188-16.386718-24.203126-15.3125-37.027344-14.675781zm22.472656 24.992188c-3.375 2.316406-7.664062 3.359375-13.066406 4.21875-14.21875 2.261719-29.011719 2.609375-43.316406 2.949219-21.980469.519531-44.707032 1.054687-66.78125-1.421876-8.253907-.929687-16.84375-2.367187-23.75-6.582031-2.214844-1.351562-3.574219-2.773437-3.734376-3.902343-.128906-.9375.605469-2.304688 1.753907-3.242188 1.515625-1.242188 3.621093-2.019531 6.320312-2.808594 14.273438-4.171875 29.390625-4.933594 44.386719-4.933594 4.332031 0 8.652344.0625 12.941406.125l56.933594.835938c1.753906.027344 3.878906-.078125 6.339844-.203125 9.484375-.472656 25.359375-1.265625 26.628906 6.300781.480469 2.890625-1.433594 6.453125-4.65625 8.664063zm0 0"/><path d="m69.722656 174.65625c-2.707031-.59375-5.382812 1.125-5.976562 3.832031-2.753906 12.570313-6.113282 25.164063-9.988282 37.4375-.832031 2.640625.632813 5.460938 3.277344 6.296875.5.160156 1.011719.234375 1.511719.234375 2.132813 0 4.109375-1.367187 4.785156-3.507812 3.964844-12.558594 7.402344-25.449219 10.222657-38.3125.589843-2.710938-1.125-5.386719-3.832032-5.980469zm0 0"/><path d="m87.402344 173.140625c-2.652344-.804687-5.457032.6875-6.261719 3.339844-4.203125 13.8125-7.261719 28.082031-9.089844 42.40625-.351562 2.75 1.59375 5.265625 4.34375 5.617187.214844.027344.429688.039063.640625.039063 2.488282 0 4.648438-1.847657 4.972656-4.382813 1.757813-13.769531 4.699219-27.480468 8.738282-40.757812.804687-2.652344-.691406-5.457032-3.34375-6.261719zm0 0"/></svg>