<svg height="511pt" viewBox="0 -107 511.99987 511" width="511pt" xmlns="http://www.w3.org/2000/svg"><path d="m503.957031 45.328125c-2.699219-16.648437-9.203125-27.394531-19.886719-32.855469-7.25-3.699218-16.230468-3.726562-24.15625-3.75-2.652343-.007812-5.160156-.015625-7.414062-.160156-36.578125-2.316406-69.171875-4.0625-99.644531-5.339844-73.492188-3.085937-138.328125-3.542968-198.210938-1.398437-38.777343 1.386719-76.554687 3.925781-112.28125 7.546875-11.492187 1.164062-23.402343 3.007812-31.640625 11.441406-9.101562 9.316406-10.019531 22.746094-10.179687 35.707031-.78125 63.945313-1.589844 130.070313 4.28125 194.996094.96875 10.695313 2.582031 21.789063 10.5625 29.550781 5.550781 5.398438 12.910156 7.75 20.042969 9.480469 26.058593 6.339844 52.59375 7.136719 77.535156 7.40625 6.0625.066406 12.125.097656 18.199218.097656 60.863282 0 122.265626-3.164062 181.8125-6.238281l129.890626-6.699219c11.285156-.582031 24.074218-1.242187 35.191406-7.476562 21.621094-12.132813 27.308594-39 29.847656-61.054688 6.558594-57 5.230469-114.617187-3.949219-171.253906zm-44.070312-26.566406c7.132812.019531 14.507812.042969 19.617187 2.652343 7.632813 3.902344 12.390625 12.25 14.542969 25.523438.035156.226562.066406.453125.105469.679688-29.460938 1.003906-53.222656-.507813-74.699219-4.765626-6.90625-1.367187-13.898437-3.246093-18.269531-7.703124-4.613282-4.707032-6.148438-11.769532-7.1875-19.929688 18.261718.953125 37.441406 2.070312 57.871094 3.363281 2.554687.164063 5.207031.171875 8.019531.179688zm-441.984375 9.066406c5.894531-6.035156 15.414062-7.449219 25.472656-8.46875 19.769531-2.003906 40.191406-3.660156 61.050781-4.988281-.476562 1.097656-.664062 2.335937-.445312 3.550781 1.898437 10.4375-6.164063 20.84375-15.105469 25.730469-10.417969 5.6875-23.445312 6.777344-34.9375 7.734375l-43.328125 3.613281c.191406-10.765625 1.09375-20.824219 7.292969-27.171875zm480.03125 187.605469c-2.265625 19.679687-7.128906 43.542968-24.785156 53.445312-9.066407 5.085938-20.613282 5.683594-30.800782 6.207032l-129.886718 6.699218c-65.339844 3.371094-132.902344 6.851563-199.382813 6.128906-24.363281-.265624-50.246094-1.035156-75.277344-7.121093-5.746093-1.398438-11.589843-3.203125-15.414062-6.921875-5.523438-5.375-6.765625-14.4375-7.5625-23.261719-5.570313-61.574219-5.078125-124.464844-4.34375-185.527344l44.289062-3.691406c12.488281-1.042969 26.636719-2.222656 38.917969-8.933594 11.210938-6.125 22.046875-19.28125 20.46875-34.25.660156-1.386719.648438-3.027343-.066406-4.433593 13.480468-.78125 27.128906-1.425782 40.914062-1.917969 59.617188-2.136719 124.199219-1.679688 197.429688 1.394531 10.195312.429688 20.636718.910156 31.378906 1.445312.992188 8.566407 2.59375 19.722657 10.203125 27.480469 6.28125 6.402344 15 8.84375 23.484375 10.523438 17.890625 3.546875 37.214844 5.257812 59.824219 5.257812 5.792969 0 11.800781-.109375 18.054687-.332031.101563-.003906.195313-.03125.296875-.042969 7.539063 52.289063 8.300781 105.335938 2.257813 157.851563zm0 0"/><path d="m352.648438 43.625c-4.488282-2.164062-9.320313-2.109375-13.210938-2.066406-16.789062.183594-33.863281.074218-50.375-.03125-19.054688-.121094-38.757812-.25-58.171875.078125-17.304687.289062-33.160156.886719-48.464844 1.820312-14.832031.90625-31.59375 2.824219-42.847656 14.199219-12.148437 12.277344-13.152344 30.339844-13.140625 47.789062l.085938 115.132813c.003906 5.292969.007812 11.882813 2.980468 17.761719 4.433594 8.777344 13.65625 12.925781 21.199219 15.558594 23.300781 8.144531 48.222656 10 71.683594 10.796874 9.492187.320313 19.035156.484376 28.589843.484376 14.816407 0 29.65625-.386719 44.367188-1.160157 11.957031-.628906 24.667969-1.527343 37.050781-4.980469 4.519531-1.261718 10.269531-3.246093 14.640625-7.4375 2.984375-2.863281 4.925782-6.339843 6.433594-9.363281 8.777344-17.605469 11.257812-37.289062 12.636719-55.9375 2.839843-38.507812 1.503906-77.183593-.105469-113.496093-.445312-9.96875-2.308594-23.828126-13.351562-29.148438zm3.445312 141.90625c-1.300781 17.625-3.605469 36.144531-11.609375 52.195312-1.121094 2.253907-2.523437 4.796876-4.398437 6.597657-2.742188 2.628906-6.789063 4.007812-10.390626 5.011719-11.398437 3.179687-23.480468 4.027343-34.878906 4.625-23.914062 1.253906-48.167968 1.480468-72.089844.667968-22.667968-.765625-46.683593-2.539062-68.714843-10.238281-5.761719-2.011719-12.734375-5.035156-15.550781-10.609375-1.894532-3.75-1.898438-8.792969-1.902344-13.242188l-.082032-115.132812c-.011718-15.359375.769532-31.152344 10.234376-40.71875 8.765624-8.859375 23.347656-10.449219 36.324218-11.242188 15.15625-.925781 30.867188-1.515624 48.023438-1.804687 19.296875-.324219 38.941406-.195313 57.9375-.074219 16.558594.105469 33.675781.21875 50.550781.03125 3.132813-.035156 6.371094-.074218 8.746094 1.070313 4.648437 2.242187 7.160156 8.960937 7.675781 20.546875 1.597656 36.015625 2.925781 74.355468.125 112.316406zm0 0"/><path d="m104.230469 115.808594c-3.523438-3.167969-7.769531-5.976563-12.988281-8.585938-18.796876-9.402344-39.265626-6.769531-53.417969 6.871094-7.78125 7.5-12.886719 17.964844-14.003907 28.714844-1.28125 12.332031 2.722657 24.851562 10.707032 33.488281 4.203125 4.546875 9.699218 8.363281 16.804687 11.671875 6.683594 3.109375 12.847657 4.898438 18.847657 5.46875 1.296874.121094 2.59375.183594 3.886718.183594 17.3125 0 34.210938-10.761719 41.199219-26.691406 7.511719-17.121094 2.871094-38.621094-11.035156-51.121094zm1.84375 47.089844c-4.578125 10.4375-15.097657 18.171874-26.386719 20.167968-.527344-3.308594-.796875-6.671875-.761719-10.023437.027344-2.773438-2.199219-5.042969-4.972656-5.070313-.015625 0-.03125 0-.050781 0-2.746094 0-4.988282 2.214844-5.015625 4.972656-.035157 3.441407.191406 6.894532.667969 10.308594-4.371094-.609375-8.960938-2.050781-13.984376-4.386718-5.898437-2.746094-10.371093-5.816407-13.667968-9.382813-2.660156-2.875-4.734375-6.335937-6.140625-10.121094 2.683593-.429687 5.40625-.742187 8.113281-.921875 2.765625-.179687 4.859375-2.574218 4.679688-5.339844-.183594-2.765624-2.554688-4.855468-5.339844-4.675781-3.179688.210938-6.371094.585938-9.519532 1.109375-.113281-1.882812-.085937-3.789062.113282-5.6875.875-8.433594 4.878906-16.640625 10.984375-22.523437 5.1875-5.003907 11.511719-8.074219 18.304687-9.148438-.054687 3.054688.296875 6.09375 1.070313 9.066407.585937 2.261718 2.625 3.757812 4.855469 3.757812.417968 0 .84375-.050781 1.265624-.160156 2.683594-.699219 4.292969-3.4375 3.597657-6.121094-.574219-2.195312-.804688-4.445312-.726563-6.699219 4.523438.554688 9.113282 1.945313 13.589844 4.183594 4.402344 2.203125 7.925781 4.515625 10.769531 7.074219 5.257813 4.726562 8.808594 11.300781 10.355469 18.316406-2.632812-.070312-5.285156.035156-7.898438.328125-2.753906.308594-4.738281 2.792969-4.425781 5.550781.285157 2.5625 2.460938 4.457032 4.980469 4.457032.1875 0 .375-.011719.566406-.03125 2.375-.269532 4.789063-.355469 7.175782-.257813.140624.007813.273437-.019531.410156-.023437-.21875 3.898437-1.054688 7.738281-2.609375 11.28125zm0 0"/><path d="m417.792969 79.949219c-7.097657-5.3125-17.628907-5.546875-26.207031-.582031-8.28125 4.792968-12.542969 13.289062-11.394532 22.722656.855469 7.054687 5.5 13.496094 12.417969 17.222656 3.894531 2.101562 8.09375 3.167969 12.1875 3.167969 2.648437 0 5.253906-.449219 7.699219-1.355469 6.949218-2.582031 12.347656-8.8125 14.09375-16.265625 2.113281-9.039063-1.585938-19.515625-8.796875-24.910156zm-.980469 22.621093c-.972656 4.152344-4.039062 7.742188-7.808594 9.140626-3.515625 1.308593-7.753906.855468-11.632812-1.234376-3.128906-1.6875-6.667969-5.09375-7.214844-9.597656-.898438-7.386718 3.660156-11.203125 6.457031-12.820312 4.984375-2.886719 11.363281-2.917969 15.164063-.070313 4.097656 3.066407 6.265625 9.332031 5.035156 14.582031zm0 0"/><path d="m475.339844 77.175781c-7.097656-5.3125-17.628906-5.546875-26.207032-.582031-8.28125 4.792969-12.542968 13.285156-11.394531 22.722656v-.003906c.855469 7.058594 5.496094 13.496094 12.417969 17.226562 3.894531 2.097657 8.097656 3.167969 12.1875 3.167969 2.652344 0 5.257812-.449219 7.703125-1.355469 6.945313-2.582031 12.34375-8.816406 14.089844-16.269531 2.113281-9.035156-1.585938-19.511719-8.796875-24.90625zm-.980469 22.621094c-.972656 4.152344-4.035156 7.742187-7.808594 9.144531-3.511719 1.300782-7.75.851563-11.632812-1.238281-3.128907-1.6875-6.667969-5.09375-7.214844-9.597656-.898437-7.386719 3.660156-11.203125 6.457031-12.820313 2.515625-1.457031 5.382813-2.183594 8.097656-2.183594 2.667969 0 5.183594.703126 7.070313 2.113282 4.097656 3.066406 6.261719 9.332031 5.03125 14.582031zm0 0"/><path d="m414.558594 137.496094c-7.097656-5.3125-17.632813-5.542969-26.210938-.582032-8.28125 4.792969-12.539062 13.285157-11.394531 22.722657.855469 7.054687 5.5 13.492187 12.417969 17.222656 3.898437 2.097656 8.097656 3.167969 12.1875 3.167969 2.652344 0 5.257812-.449219 7.703125-1.359375 6.945312-2.578125 12.34375-8.808594 14.089843-16.265625 2.117188-9.035156-1.582031-19.511719-8.792968-24.90625zm-.980469 22.621094c-.972656 4.152343-4.039063 7.742187-7.808594 9.144531-3.511719 1.300781-7.753906.851562-11.632812-1.238281-3.128907-1.6875-6.667969-5.09375-7.214844-9.597657-.898437-7.386719 3.660156-11.203125 6.457031-12.820312 4.984375-2.886719 11.363282-2.914063 15.164063-.070313 4.097656 3.066406 6.261719 9.335938 5.035156 14.582032zm0 0"/><path d="m472.105469 134.722656c-7.097657-5.3125-17.632813-5.542968-26.210938-.578125-8.277343 4.789063-12.539062 13.285157-11.390625 22.71875.855469 7.054688 5.496094 13.496094 12.417969 17.222657 3.894531 2.101562 8.09375 3.167968 12.183594 3.167968 2.652343 0 5.257812-.449218 7.703125-1.355468 6.949218-2.578126 12.34375-8.8125 14.089844-16.265626 2.117187-9.039062-1.582032-19.515624-8.792969-24.910156zm-.980469 22.621094c-.972656 4.152344-4.039062 7.742188-7.8125 9.140625-3.511719 1.308594-7.75.855469-11.628906-1.234375-3.128906-1.6875-6.667969-5.09375-7.214844-9.597656-.898438-7.382813 3.660156-11.203125 6.457031-12.820313 4.984375-2.886719 11.363281-2.914062 15.164063-.070312 4.097656 3.066406 6.261718 9.335937 5.035156 14.582031zm0 0"/><path d="m40.246094 246.253906 57.464844-.601562c2.773437-.027344 4.996093-2.296875 4.96875-5.070313-.03125-2.773437-2.296876-4.996093-5.074219-4.96875l-57.464844.601563c-2.769531.03125-4.996094 2.300781-4.964844 5.074218.027344 2.753907 2.269531 4.964844 5.015625 4.964844zm0 0"/><path d="m99.296875 255.964844c-18.289063.925781-36.839844 1.058594-55.140625.386718-2.753906-.101562-5.097656 2.0625-5.199219 4.832032-.101562 2.769531 2.0625 5.097656 4.832031 5.199218 7.800782.285157 15.640626.429688 23.488282.429688 10.863281 0 21.742187-.273438 32.523437-.820312 2.769531-.140626 4.902344-2.5 4.761719-5.265626-.140625-2.769531-2.511719-4.90625-5.265625-4.761718zm0 0"/><path d="m266.351562 223.25c-16.140624.464844-32.515624.429688-48.667968-.105469-2.757813-.101562-5.089844 2.082031-5.183594 4.851563-.089844 2.769531 2.082031 5.089844 4.851562 5.183594 8.746094.289062 17.558594.433593 26.367188.433593 7.660156 0 15.316406-.109375 22.921875-.328125 2.773437-.082031 4.953125-2.390625 4.875-5.164062-.082031-2.769532-2.421875-4.96875-5.164063-4.871094zm0 0"/><path d="m159.121094 95.265625c22.695312.449219 45.523437.675781 68.375.675781 31.890625 0 63.828125-.4375 95.5-1.316406 2.773437-.078125 4.957031-2.386719 4.878906-5.15625-.078125-2.773438-2.378906-4.96875-5.15625-4.878906-54.210938 1.5-109.183594 1.71875-163.398438.636718-2.808593-.027343-5.0625 2.148438-5.117187 4.921876-.054687 2.769531 2.148437 5.0625 4.917969 5.117187zm0 0"/><path d="m323.242188 113.308594c-.019532 0-.035157 0-.050782 0-51.839844.5-104.425781 1.21875-156.296875 2.128906-2.773437.050781-4.980469 2.335938-4.929687 5.109375.046875 2.742187 2.285156 4.929687 5.015625 4.929687h.089843c51.847657-.914062 104.40625-1.628906 156.21875-2.128906 2.769532-.027344 4.996094-2.296875 4.96875-5.070312-.027343-2.753906-2.265624-4.96875-5.015624-4.96875zm0 0"/><path d="m260.5625 207.691406 2.644531-2.644531c1.957031-1.960937 1.957031-5.136719-.003906-7.097656-1.960937-1.960938-5.140625-1.957031-7.097656 0l-2.640625 2.640625c-1.960938 1.960937-1.960938 5.140625-.003906 7.101562.980468.980469 2.265624 1.46875 3.550781 1.46875 1.285156 0 2.570312-.488281 3.550781-1.46875zm0 0"/><path d="m223.53125 148.578125c.050781-2.773437-2.15625-5.058594-4.929688-5.109375-19.777343-.351562-39.828124-.273438-59.585937.238281-2.769531.074219-4.957031 2.378907-4.886719 5.148438.070313 2.726562 2.304688 4.890625 5.015625 4.890625h.132813c19.613281-.507813 39.511718-.589844 59.144531-.238282 2.785156.046876 5.058594-2.15625 5.109375-4.929687zm0 0"/><path d="m326.363281 140.65625c-24.464843.789062-49.269531 1.167969-73.757812 1.117188-.003907 0-.007813 0-.011719 0-2.765625 0-5.011719 2.242187-5.019531 5.007812-.003907 2.773438 2.238281 5.027344 5.011719 5.03125 1.410156.003906 2.824218.003906 4.238281.003906 23.214843 0 46.695312-.378906 69.863281-1.125 2.769531-.089844 4.945312-2.410156 4.855469-5.179687-.089844-2.773438-2.421875-4.933594-5.179688-4.855469zm0 0"/></svg>