<svg height="512pt" viewBox="-36 0 512 512.00053" width="512pt" xmlns="http://www.w3.org/2000/svg"><path d="m431 424.90625c-3.351562-2.5-7.117188-3.691406-10.863281-3.515625 1.695312-44.386719 1.261719-89.261719-1.292969-133.539063-.011719-.148437-.050781-.289062-.070312-.433593 2.394531-1.933594 4.640624-4.132813 6.527343-6.722657 5.410157-7.4375 6.558594-16.839843 2.925781-23.953124-2.914062-5.699219-8.292968-9.183594-13.167968-11.835938-15.90625-8.660156-31.558594-11.199219-48.128906-13.882812-4.875-.792969-9.910157-1.609376-14.933594-2.59375-24.429688-4.789063-49.882813-8.160157-75.648438-10.03125-48.59375-3.519532-99.9375-1.832032-152.609375 5.023437-27.644531 3.597656-56.097656 8.683594-84.570312 15.117187-8.460938 1.910157-16.023438 3.839844-22.914063 8.117188-8.597656 5.335938-14.035156 13.621094-14.546875 22.15625-.445312 7.457031 2.84375 15.128906 8.914063 21.089844-.050782.292968-.085938.597656-.082032.90625.351563 43.644531 1.164063 94.289062 6.398438 143.09375.015625.167968.039062.351562.058594.527344-4.980469 1.011718-9.359375 4.238281-12.242188 9.109374-4.128906 6.976563-4.6562498 16.066407-1.347656 23.15625 5.570312 11.9375 17.96875 18.097657 28.148438 22.132813 31.714843 12.570313 65.199218 16.835937 96.660156 19.574219 27.546875 2.394531 54.03125 3.597656 79.605468 3.597656 57.941407 0 111.164063-6.175781 161.144532-18.613281 20.691406-5.152344 42.027344-11.976563 57.902344-26.90625 8.542968-8.035157 12.925781-16.832031 12.671874-25.4375-.179687-6.15625-3.453124-12.339844-8.539062-16.136719zm-34.535156 18.054688c-2.996094-4.796876-6.292969-9.382813-9.507813-13.820313l-1.324219-1.832031c-21.308593-29.507813-40.929687-60.683594-58.308593-92.667969-.847657-1.554687-2.449219-2.550781-4.21875-2.617187-1.78125-.078126-3.445313.800781-4.40625 2.289062l-89.144531 137.753906c-.058594.089844-.09375.1875-.144532.277344-3.378906.125-6.757812.226562-10.140625.296875 26.722657-52.820313 58.472657-103.40625 94.441407-150.402344.59375-.773437.914062-1.667969 1-2.574219 5.09375-.613281 10.179687-1.300781 15.257812-2.070312.046875.070312.078125.144531.128906.210938 25.828125 34.003906 49.871094 70.394531 77.957032 117.996093.164062.273438.351562.519531.554687.75-.789063 1.140625-2.542969 2.058594-4.28125 2.902344-2.589844 1.253906-5.214844 2.421875-7.863281 3.507813zm-9.597656 3.597656c-8.472657 2.90625-17.019532 5.1875-25.269532 7.230468-39.328125 9.75-79.515625 15.738282-119.902344 17.992188l80.867188-124.960938c16.5625 29.769532 35.015625 58.792969 54.933594 86.367188l1.332031 1.84375c2.71875 3.75 5.496094 7.605469 8.039063 11.527344zm-194.4375 26.113281c-21.285157-41.1875-43.324219-83.726563-71.949219-121.507813l-.589844-.78125c-3.5-4.613281-6.808594-8.96875-8.367187-13.851562-.625-1.953125-2.375-3.332031-4.417969-3.480469-2.042969-.148437-3.976563.964844-4.875 2.808594-19.210938 39.40625-42.304688 77.136719-68.648438 112.191406-1.613281-1.132812-2.980469-2.472656-3.953125-4.09375-.039062-.070312-.070312-.148437-.113281-.214843 21.792969-43.226563 45.929687-85.878907 71.769531-126.796876.246094-.390624.410156-.800781.539063-1.222656 3.417969.40625 6.828125.789063 10.226562 1.144532 8.257813 18.6875 19.3125 36.0625 30.019531 52.875 6.160157 9.671874 12.53125 19.675781 18.238282 29.742187 3.78125 6.667969 7.433594 13.644531 10.96875 20.394531 9.570312 18.269532 19.445312 37.089844 33.335937 52.929688-4.066406-.003906-8.125-.058594-12.183593-.136719zm-11.472657-.332031c-44.964843-1.667969-89.765625-7.960938-133.496093-18.90625-1.472657-.367188-2.972657-.761719-4.460938-1.207032 24.128906-32.335937 45.539062-66.886718 63.75-102.902343 1.613281 2.480469 3.394531 4.820312 5.144531 7.128906l.585938.769531c26.972656 35.605469 48.167969 75.859375 68.476562 115.117188zm-154.554687-44.609375c-4.480469-44.472657-5.402344-90.351563-5.769532-130.757813 4.894532 2.535156 10.007813 4.222656 14.667969 5.640625 18.382813 5.59375 37.152344 9.179688 55.761719 11.738281-23.074219 36.707032-44.78125 74.773438-64.660156 113.378907zm185.203125 37.824219c-12.832031-14.851563-22.28125-32.855469-31.433594-50.335938-3.574219-6.820312-7.269531-13.875-11.132813-20.6875-5.835937-10.289062-12.273437-20.402344-18.503906-30.183594-9.492187-14.902344-19.265625-30.253906-26.933594-46.355468 4.242188.390624 8.460938.757812 12.644532 1.113281 31.253906 2.632812 65.4375 4.90625 100.675781 4.90625 21.453125 0 43.296875-.84375 65.105469-2.964844-34.242188 45.335937-64.621094 93.890625-90.421875 144.507813zm198.546875-45.871094c-24.457032-40.832032-46.113282-73.4375-69.015625-103.917969 19.449219-3.464844 44.320312-9.476563 66.910156-21.496094.351563-.183593.707031-.386719 1.0625-.578125 2.25 41.8125 2.601563 84.113282 1.042969 125.992188zm7.03125-144.894532c-3.402344 4.671876-8.910156 7.992188-13.851563 10.621094-19.472656 10.359375-43.078125 17.40625-74.289062 22.175782-36.910157 5.640624-88.582031 10.230468-191.953125 1.515624-32.1875-2.714843-66.332032-6.191406-98.867188-16.09375-6.164062-1.875-13.195312-4.238281-18.605468-8.539062-5.175782-4.109375-8.199219-9.878906-7.886719-15.054688.074219-1.269531.359375-2.554687.824219-3.824218 10.890624 9.757812 25.121093 14.457031 38.988281 18.046875 47.679687 12.351562 97.449219 15.394531 145.738281 15.394531 12.519531 0 24.941406-.203125 37.195312-.503906 59.574219-1.460938 127.847657-5.6875 184.714844-37.375.027344.054687.066406.101562.09375.15625 2.195313 4.300781.527344 9.867187-2.101562 13.480468zm-375.800782-26.457031c28.167969-6.367187 56.3125-11.398437 83.652344-14.957031 52-6.765625 102.667969-8.4375 150.585938-4.960938 25.367187 1.835938 50.414062 5.160157 74.445312 9.867188 5.183594 1.015625 10.304688 1.847656 15.253906 2.648438 15.703126 2.546874 30.535157 4.953124 44.941407 12.792968.257812.140625.515625.289063.773437.433594-54.242187 28.957031-119.582031 32.929688-176.804687 34.332031-58.800781 1.441407-121.328125.671875-180.171875-14.570312-12.957032-3.355469-26.175782-7.703125-35.554688-16.507813.9375-.800781 1.957032-1.546875 3.046875-2.222656 5.5625-3.453125 12.273438-5.148438 19.832031-6.855469zm378.609376 210.835938c-14.199219 13.351562-34.082032 19.65625-53.449219 24.476562-70.949219 17.660157-148.625 22.484375-237.457031 14.757813-30.699219-2.671875-63.316407-6.8125-93.832032-18.90625-8.453125-3.347656-18.675781-8.3125-22.75-17.046875-1.890625-4.046875-1.523437-9.71875.890625-13.796875 1.019531-1.726563 2.769531-3.769532 5.472657-4.355469.535156 1.632813 1.214843 3.253906 2.144531 4.808594 5.21875 8.742187 15.128906 11.84375 24.011719 14.066406 52.40625 13.117187 106.308593 19.675781 160.226562 19.675781 53.40625 0 106.828125-6.4375 158.765625-19.3125 14.519531-3.601562 29.984375-7.917968 44.695313-15.050781 2.890624-1.402344 6.15625-3.175781 8.320312-6.460937 2.324219-3.515626 2.546875-7.515626 2.679688-10.488282 2.140624-.46875 4.046874.496094 5.285156 1.417969 2.605468 1.945313 4.417968 5.316406 4.507812 8.382813.214844 7.144531-5.054687 13.640624-9.511718 17.832031zm0 0"/><path d="m277.9375 211.558594c5.796875 1.871094 11.28125 2.808594 16.398438 2.808594 3.0625 0 5.992187-.335938 8.78125-1.007813 13.78125-3.328125 24.601562-15.523437 26.3125-29.660156.785156-6.511719-.445313-13.121094-3.214844-19.019531l51.746094-60.023438c16.914062-19.621094 34.402343-39.90625 48.800781-62.203125 3.429687-5.320313 7.179687-11.589844 8.1875-18.753906 1.027343-7.265625-1.324219-16.628907-8.878907-21.167969-6-3.609375-14.292968-3.34375-22.183593.699219-8.859375 4.542969-15.417969 12.074219-21.183594 19.535156-8.238281 10.660156-15.691406 22.023437-22.898437 33.015625l-58.535157 89.265625c-16.226562-2.914063-34.550781 5.527344-44.097656 17.742187-5.136719 6.578126-7.472656 14.585938-6.410156 21.96875 1.699219 11.84375 11.859375 21.863282 27.175781 26.800782zm90.261719-150.273438c7.101562-10.828125 14.445312-22.027344 22.445312-32.378906 5.054688-6.539062 10.714844-13.097656 17.820313-16.742188 3.691406-1.890624 8.898437-3.15625 12.433594-1.03125 3.601562 2.164063 4.65625 7.304688 4.109374 11.164063-.722656 5.148437-3.699218 10.089844-6.683593 14.710937-14.015625 21.710938-31.277344 41.734376-47.96875 61.09375l-49.871094 57.851563c-2.636719-2.976563-5.75-5.535156-9.273437-7.453125-.050782-.027344-.101563-.050781-.152344-.078125zm-103.117188 107.683594c8.855469-11.332031 28.003907-18.902344 41.328125-11.652344 8.75 4.761719 14.238282 15.351563 13.050782 25.175782-1.195313 9.90625-9.058594 18.78125-18.699219 21.105468-5.617188 1.355469-12.261719.820313-19.746094-1.59375-8.9375-2.882812-18.972656-9.300781-20.320313-18.675781-.675781-4.691406.925782-9.921875 4.386719-14.359375zm0 0"/><path d="m57.21875 104.65625 51.742188 60.023438c-2.769532 5.898437-4 12.507812-3.210938 19.019531 1.707031 14.136719 12.527344 26.332031 26.308594 29.660156 2.789062.671875 5.71875 1.007813 8.78125 1.007813 5.117187 0 10.605468-.9375 16.402344-2.808594 15.3125-4.9375 25.472656-14.957032 27.175781-26.800782 1.0625-7.382812-1.273438-15.390624-6.414063-21.96875-9.542968-12.214843-27.867187-20.65625-44.09375-17.742187l-58.539062-89.265625c-7.207032-10.992188-14.65625-22.355469-22.894532-33.015625-5.769531-7.460937-12.328124-14.992187-21.183593-19.53125-7.894531-4.046875-16.1875-4.3125-22.1875-.703125-7.554688 4.539062-9.902344 13.902344-8.878907 21.167969 1.011719 7.164062 4.757813 13.4375 8.191407 18.753906 14.394531 22.296875 31.886719 42.585937 48.800781 62.203125zm83.398438 49.8125c11.136718 0 23.035156 6.253906 29.476562 14.5 3.464844 4.4375 5.0625 9.667969 4.386719 14.359375-1.347657 9.375-11.378907 15.792969-20.320313 18.675781-7.484375 2.414063-14.128906 2.949219-19.746094 1.59375-9.636718-2.324218-17.503906-11.199218-18.699218-21.105468-1.1875-9.824219 4.300781-20.414063 13.050781-25.175782 3.628906-1.972656 7.6875-2.847656 11.851563-2.847656zm-126.339844-143.332031c3.535156-2.128907 8.742187-.863281 12.433594 1.027343 7.105468 3.644532 12.765624 10.203126 17.824218 16.742188 8 10.351562 15.339844 21.550781 22.445313 32.378906l57.136719 87.140625c-.046876.027344-.097657.046875-.148438.074219-3.527344 1.921875-6.640625 4.480469-9.273438 7.457031l-49.875-57.851562c-16.691406-19.363281-33.949218-39.382813-47.96875-61.097657-2.984374-4.621093-5.957031-9.566406-6.683593-14.710937-.542969-3.859375.511719-9 4.109375-11.160156zm0 0"/></svg>