<?xml version="1.0" encoding="iso-8859-1"?>
<!-- Generator: Adobe Illustrator 19.0.0, SVG Export Plug-In . SVG Version: 6.00 Build 0)  -->
<svg version="1.1" id="Capa_1" xmlns="http://www.w3.org/2000/svg" xmlns:xlink="http://www.w3.org/1999/xlink" x="0px" y="0px"
	 viewBox="0 0 512 512" style="enable-background:new 0 0 512 512;" xml:space="preserve">
<g>
	<g>
		<path d="M508.123,116.549c-0.598-9.898-0.793-21.032-9.357-27.679c-7.675-5.957-18.256-5.19-27.389-4.946
			c-26.868,0.717-53.771,1.487-80.628,2.74c0.123-13.862-0.843-27.798-1.634-41.626c-0.581-10.163-0.019-22.381-10.312-27.892
			c-9.047-4.843-21.238-2.927-31.045-2.947c-16.335-0.032-32.667-0.089-49.001,0.134c-32.661,0.445-65.311,1.701-97.909,3.774
			c-14.815,0.942-29.62,2.054-44.41,3.329c-12.691,1.095-28.782,0.289-40.695,5.428c-8.557,3.691-12.143,11.031-13.261,19.917
			c-1.903,15.118-1.514,30.904-2.215,46.131c-1.434,31.16-2.869,62.321-4.302,93.481c-2.937,63.805-5.878,127.609-8.826,191.413
			c-0.798,17.279-2.552,34.845-2.368,52.139c0.109,10.216,3,19.71,13.328,23.733c13.332,5.192,31.85,3.176,45.836,3.305
			c15.063,0.138,30.121-0.203,45.141-1.288c0.678,6.477,2.296,12.725,6.234,18.208c10.059,14.005,28.927,16.3,44.795,17.561
			c54.764,4.354,109.899,7.531,164.849,6.499c21.768-0.409,46.969,1.544,67.742-6.203c17.81-6.642,27.989-22.102,31.85-40.172
			c4.939-23.113,4.194-47.793,5.16-71.304c1.101-26.809,1.747-53.631,2.049-80.461C512.445,238.7,511.809,177.581,508.123,116.549z
			 M194.439,99.124c-4.044,6.869-4.412,15.395-4.514,23.137c-0.184,13.99,0.036,27.996,0.054,41.988
			c0.036,27.64-0.133,55.281-0.217,82.92c-0.164,54.114-0.549,108.227-0.948,162.339c-0.087,11.851-0.383,23.732-0.222,35.587
			c-22.734,0.769-45.429,1.188-68.18,0.122c-7.08-0.332-19.22,0.781-22.823-7.479c-1.879-4.307-0.737-10.877-0.553-15.415
			c0.573-14.098,1.196-28.192,1.794-42.289c2.266-53.418,4.534-106.835,6.808-160.253c2.306-54.155,4.25-108.34,6.92-162.479
			c0.246-4.985-0.431-12.01,2.615-16.259c4.592-6.404,14.537-6.105,21.308-6.809c14.036-1.458,28.088-2.765,42.152-3.922
			c26.644-2.193,53.335-3.84,80.046-4.949c29.657-1.231,59.395-2.018,89.079-1.609c6.558,0.09,14.849-0.743,21.247,1.218
			c10.188,3.124,8.573,17.652,9.292,26.318c0.983,11.828,1.857,23.668,3.478,35.42c-18.058-0.218-36.118-0.401-54.178-0.626
			c-26.655-0.333-53.31-0.722-79.965-1.045c-0.484-0.006-0.988-0.021-1.483-0.031c1.241-1.169,0.219-3.733-1.602-3.669
			c-2.971,0.104-6.29,1.131-9.124-0.089c-0.845-0.364-1.498-0.883-1.977-1.482c4.299,0.941,12.707-0.891,13.629-6.122
			c0.468-2.654-1.269-5.167-3.699-6.132c-2.906-1.154-5.965-0.053-8.643,1.198c-4.918,2.299-8.74,7.904-5.508,13.167
			c0.694,1.131,1.595,1.992,2.582,2.709c-3.173-0.037-6.38,0.01-9.536,0.249c0.712-0.914,1.286-1.932,1.665-3.037
			c0.722-2.104,0.733-4.185,0.185-6.04c0.35-3.211,0.182-6.494,0-9.751c-0.256-4.602-0.155-10.061-2.894-13.929
			c-0.762-1.075-2.153-0.822-2.633,0.344c-1.969,4.785-0.551,10.76-0.068,15.791c0.052,0.543,0.102,1.084,0.153,1.624
			c-0.761-0.306-1.577-0.538-2.452-0.661c-6.085-0.86-12.774,3.033-14.22,9.186c-1.021,4.349,0.881,8.381,4.242,10.176
			C201.509,90.732,197.413,94.073,194.439,99.124z M232.626,76.874c0.111-0.807,0.452-1.63,1.115-2.407
			c0.985-1.156,2.509-2.029,3.924-2.541c0.723-0.262,1.602-0.558,2.372-0.581c0.793-0.023,1.738,0.299,1.943,1.011
			c-0.019,0.015-0.04,0.017-0.059,0.032c-1.639,1.35-3.538,2.231-5.495,3.016C235.224,75.886,233.834,76.276,232.626,76.874z
			 M218.35,81.773c-1.785,2.284-4.715,2.918-7.42,3.641c-3.658-0.651-4.544-5.141-2.667-7.943c1.708-2.549,5.578-4.155,8.55-3.11
			C220.037,75.494,220.244,79.349,218.35,81.773z M497.269,413.782c-1.274,19.038-1.016,43.318-14.983,58.197
			c-14.707,15.669-42.037,14.073-61.734,14.839c-47.475,1.844-95.257,0.704-142.632-2.763c-19.823-1.451-43.841-0.251-62.265-8.682
			c-21.606-9.886-15.025-40.451-15.157-59.277c-0.664-95.152-1.234-190.308-1.043-285.463c0.026-13.173-1.348-28.711,14.546-32.641
			c11.4-2.819,24.23-1.217,35.853-1.213c26.655,0.01,53.31,0.045,79.965,0.09c53.192,0.09,106.374,0.575,159.546-0.799
			c9.507,5.151,8.093,18.714,8.659,29.41c2.516,47.619,4.09,95.352,4.069,143.041C502.072,316.959,500.504,365.451,497.269,413.782z
			"/>
	</g>
</g>
<g>
	<g>
		<path d="M475.358,318.092c0.347-44.071,0.693-88.143,1.039-132.214c0.149-18.901,2.817-39.799,0.044-58.508
			c-2.488-16.801-16.747-16.126-30.644-15.792c-48.08,1.154-96.16,2.309-144.241,3.462c-12.575,0.302-25.15,0.607-37.725,0.915
			c-16.011,0.393-42.804-6.185-42.378,17.342c0.234,12.881,0.065,25.833,0.128,38.754c0.131,26.617,0.929,53.227,0.912,79.844
			c-0.028,43.689,0.284,87.369,0.031,131.056c-0.089,15.323-3.881,35.878,2.857,50.244c5.485,11.693,18.092,14.197,29.847,14.877
			c42.52,2.462,85.316,2.56,127.891,3.825c19.297,0.574,39.382,2.814,58.642,1.182c12.269-1.04,23.893-5.687,29.172-17.526
			c6.873-15.412,3.713-36.11,3.884-52.475C475.043,361.417,475.188,339.754,475.358,318.092z M468.237,154.507
			c-0.082,9.711-0.165,19.421-0.247,29.132c-0.316,37.349-0.632,74.698-0.948,112.046c-0.316,37.349-0.602,74.697-0.853,112.046
			c-0.055,8.162,0.716,17.596-3.172,25.056c-4.95,9.496-14.456,11.78-24.427,12.3c-16.9,0.882-34.18-0.699-51.088-1.18
			c-36.521-1.04-73.043-2.079-109.565-3.119c-14.484-0.412-42.307,3.634-46.8-15.061c-1.903-7.917-1.03-16.934-1.148-25.004
			c-0.14-9.626-0.294-19.251-0.462-28.877c-0.723-41.46-0.776-82.927-1.255-124.392c-0.215-18.639-0.02-37.28,0.039-55.919
			c0.029-9.203-0.534-18.569-0.021-27.753c0.663-11.873-3.831-32.771,10.51-38.631c7.532-3.077,20.961-0.737,29.098-0.93
			c10.479-0.247,20.958-0.495,31.437-0.747c36.985-0.888,73.97-1.775,110.954-2.663c8.877-0.214,17.753-0.426,26.63-0.64
			c10.165-0.244,27.583-3.75,31.221,8.91C470.271,136.492,468.302,146.838,468.237,154.507z"/>
	</g>
</g>
<g>
	<g>
		<path d="M351.147,457.411c-8.357-5.519-20.651,0.921-21.177,10.87c-0.562,10.632,12.236,19.076,21.403,13.081
			C359.845,475.821,359.473,462.91,351.147,457.411z M348.127,475.809c-5.077,2.813-11.673-0.462-11.956-6.526
			c-0.265-5.69,7.273-10.199,12.288-7.595C354.305,464.724,353.361,472.909,348.127,475.809z"/>
	</g>
</g>
<g>
	<g>
		<path d="M67.956,72.393c-6.399-1.812-13.81-0.755-20.336-0.63c-7.25,0.138-15.566-0.869-22.678,0.909
			c-12.714,3.176-13.24,14.303-13.599,25.617c-1.054,33.234-1.504,66.434-1.257,99.667c-1.91,33.032-3.728,66.07-5.225,99.136
			c-0.745,16.447-1.495,32.895-2.231,49.343c-0.736,16.449-4.136,35.002-1.853,51.357c1.142,8.18,6.124,12.726,14.002,14.341
			c7.45,1.529,15.545,1.188,23.117,1.621c7.605,0.434,15.854,1.777,23.48,0.979c8.094-0.847,13.614-5.083,15.186-13.177
			c3.099-15.944,0.729-34.516,0.882-50.798c0.323-34.293,0.646-68.588,0.97-102.882c0.26-27.586,0.52-55.171,0.78-82.757
			c0.158-0.565,0.163-1.148,0.016-1.71c0.058-6.139,0.116-12.277,0.174-18.415c0.154-16.401,0.418-32.804,0.464-49.204
			C79.876,85.442,79.377,75.626,67.956,72.393z M70.892,109.73c-0.306,0.036-0.608,0.067-0.919,0.11
			c-2.081,0.29-4.216,0.425-6.057,1.503c-0.851,0.498-0.999,1.781-0.1,2.334c1.819,1.117,3.852,1.266,5.923,1.624
			c0.271,0.047,0.534,0.082,0.801,0.126c-0.102,1.673-0.181,3.222-0.194,4.566c-0.016,1.654-0.033,3.307-0.049,4.96
			c-2.89-0.088-5.829,0.477-8.569,1.29c-2.156,0.639-2.04,3.959,0.373,4.057c2.743,0.111,5.433,0.6,8.133,0.994
			c-0.036,3.551-0.071,7.101-0.107,10.651c-3.227,0.15-6.45,0.354-9.68,0.618c-3.043,0.249-3.396,4.538-0.208,4.844
			c3.278,0.315,6.549,0.565,9.826,0.758c-0.041,4.081-0.082,8.161-0.122,12.241c-3.686,0.01-7.382,0.718-10.841,1.905
			c-1.877,0.644-1.937,3.669,0.341,3.711c3.502,0.064,6.968,0.419,10.437,0.761l-0.137,13.74c-3.887,0.026-7.944,0.777-11.526,1.121
			c-2.46,0.237-1.787,3.834,0.376,4.092c3.445,0.411,7.339,1.223,11.084,1.337l-0.15,15.01c-3.904-0.249-8.014,0.17-11.657,0.505
			c-2.063,0.189-2.166,3.682-0.176,4.096c3.663,0.761,7.79,1.641,11.769,1.797l-0.138,13.837c-3.973-0.138-8.135,0.287-11.744,0.856
			c-1.963,0.309-2.054,3.389-0.167,3.893c3.604,0.961,7.799,1.816,11.843,2.065l-0.118,11.851
			c-4.378,0.184-8.877,1.242-13.045,1.846c-2.634,0.382-2.171,4.537,0.424,4.612c3.938,0.113,8.372,0.684,12.552,0.442
			l-0.156,15.588c-1.681,0.212-3.359,0.543-5.03,0.719c-3.062,0.322-6.139,0.543-9.205,0.854c-2.004,0.203-1.813,3.156-0.16,3.723
			c4.059,1.392,9.542,2.293,14.327,1.518l-0.11,11.062c-0.916-0.027-1.843-0.004-2.726-0.02c-3.481-0.065-6.929,0.219-10.402,0.335
			c-3.092,0.103-3.251,4.365-0.205,4.774c3.447,0.463,6.854,1.091,10.329,1.374c0.957,0.078,1.954,0.207,2.937,0.264l-0.14,13.988
			c-3.269-0.43-6.905-0.008-9.859,0.119c-2.507,0.109-3.728,4.156-0.848,4.73c3.261,0.65,7.078,1.737,10.642,1.704l-0.162,16.19
			c-3.624-0.785-7.62-0.662-11.14-0.996c-2.637-0.25-3.433,3.963-0.83,4.627c3.758,0.959,7.88,2.636,11.904,2.943
			c-0.047,4.67-0.093,9.34-0.14,14.009c-0.88,0.006-1.777,0.086-2.683,0.134c-2.369,0.126-4.712,0.335-7.07,0.593
			c-3.002,0.327-2.263,4.8,0.465,5.062c2.268,0.218,4.52,0.373,6.797,0.463c0.796,0.031,1.616,0.094,2.428,0.098
			c-0.039,3.959-0.079,7.92-0.119,11.88c-4.043-0.318-8.605,0.822-12.092,1.505c-3.394,0.666-2.077,5.422,1.174,5.103
			c3.416-0.336,7.249,0.346,10.849,0.258c-0.048,4.777-0.096,9.554-0.143,14.33c-0.157,0.005-0.311,0.003-0.477,0.03
			c-3.353,0.538-6.5,0.392-9.871,0.273c-2.17-0.077-3.465,3.147-1.355,4.267c3.602,1.912,7.858,2.32,11.857,1.679
			c0.038,1.478,0.007,2.914-0.257,4.021c-1.353,5.663-6.063,9.471-11.904,10.292c-5.376,0.756-11.979-0.653-17.399-0.949
			c-4.867-0.265-15.83,0.989-20.26-1.157c-9.271-4.488-8.262-12.166-7.943-20.56l0.853-22.436
			c1.052-27.669,2.156-55.34,3.072-83.015c1.376-41.592,2.361-83.182,3.357-124.769c0.382-6.744,0.724-13.49,1.007-20.241
			c0.508-12.074-0.944-26.276,1.604-38.077C23,80.21,29.506,81.323,40.743,81.114c6.09-0.113,14.118-1.601,20.054-0.318
			c6.128,1.324,8.769,6.668,9.786,13.223c-0.895,0.04-1.79,0.115-2.674,0.217c-2.257,0.258-4.621,0.35-6.565,1.617
			c-0.683,0.445-0.797,1.388-0.081,1.88c1.833,1.257,4.035,1.415,6.192,1.74c1.181,0.178,2.414,0.342,3.644,0.394
			C71.209,103.163,71.075,106.54,70.892,109.73z"/>
	</g>
</g>
<g>
	<g>
		<path d="M158.118,95.609c-2.243-2.314-4.695-3.978-7.344-5.822c-2.868-1.996-8.62-4.575-10.546-7.34
			c-4.254-6.108,7.956-16.393,11.568-21.772c1.594-2.375-1.87-4.79-3.835-2.959c-5.087,4.737-9.894,10.248-14.319,15.628
			c-2.089,2.541-3.691,5.037-2.811,8.45c0.907,3.517,4.335,5.43,7.103,7.397c5.312,3.774,10.711,8.35,16.65,10.998
			C157.471,101.476,160.572,98.14,158.118,95.609z"/>
	</g>
</g>
<g>
	<g>
		<path d="M173.93,84.306c-3.742,2.192-8.899,0.902-9.141-3.976c-0.236-4.752,5.12-7.107,9.038-5.215
			c1.678,0.811,3.831-1.442,2.15-2.787c-6.835-5.47-16.779-0.756-17,8.002c-0.235,9.4,11.415,14.77,18.232,8.225
			C179.432,86.421,176.58,82.754,173.93,84.306z"/>
	</g>
</g>
<g>
	<g>
		<path d="M196.258,71.4c-4.497-2.948-10.323-1.148-12.654,2.945c-2.877,2.653-4.408,6.634-3.154,10.793
			c2.099,6.966,11.237,8.123,16.333,3.84C202.15,84.467,202.403,75.428,196.258,71.4z M191.75,85.688
			c-6.369,2.304-7.732-4.255-4.104-8.422C194.033,69.931,199.993,82.701,191.75,85.688z"/>
	</g>
</g>
<g>
	<g>
		<path d="M150.912,127.654c-0.353-2.261-2.081-3.999-3.772-5.548c-1.539-2.274-3.943-3.955-6.264-5.714
			c-0.58-0.489-1.18-0.953-1.78-1.415c-1.142-0.959-2.197-1.985-3.017-3.181c-1.354-1.975-4.804-0.827-4.046,1.706
			c1.675,5.593,7.513,7.121,9.7,12.02c2.594,5.812-6.765,15.93-8.362,21.626c-0.647,2.313,2.42,4.219,4.112,2.394
			c0.608-0.656,1.141-1.362,1.667-2.073c0.292-0.107,0.575-0.255,0.828-0.484c3.045-2.739,4.844-6.473,6.99-9.937
			C148.606,134.404,151.442,131.056,150.912,127.654z"/>
	</g>
</g>
<g>
	<g>
		<path d="M163.041,138.658c-0.417-1.516-1.794-2.427-3.311-2.522c-0.066-0.004-0.132-0.008-0.199-0.012
			c-2.285-0.142-3.93,2.333-3.359,4.409c0.631,2.292,3.101,3.008,5.117,2.082c0.058-0.027,0.116-0.053,0.174-0.079
			C162.823,141.911,163.415,140.016,163.041,138.658z"/>
	</g>
</g>
<g>
	<g>
		<path d="M170.609,135.698c-1.92,0-3.761,1.689-3.672,3.672c0.089,1.99,1.613,3.672,3.672,3.672c1.92,0,3.761-1.689,3.672-3.672
			C174.192,137.38,172.667,135.698,170.609,135.698z"/>
	</g>
</g>
<g>
	<g>
		<path d="M140.79,157.646c-4.098,5.86-6.953,12.591-9.784,19.134c-2.265,5.234-5.679,10.782-5.431,16.561
			c0.074,1.708,2.208,2.763,3.479,1.442c4.031-4.187,5.246-10.396,7.34-15.731c2.603-6.631,5.651-13.215,7.447-20.12
			C144.336,157.03,141.849,156.133,140.79,157.646z"/>
	</g>
</g>
<g>
	<g>
		<path d="M153.073,160.529c-5.742,10.286-11.428,20.679-15.017,31.974c-1.269,3.995,4.7,5.45,6.166,1.7
			c4.12-10.531,7.565-21.357,12.34-31.634C157.64,160.251,154.362,158.221,153.073,160.529z"/>
	</g>
</g>
<g>
	<g>
		<path d="M158.523,187.594c-4.861,0-4.869,7.554,0,7.554C163.383,195.148,163.391,187.594,158.523,187.594z"/>
	</g>
</g>
<g>
	<g>
		<path d="M169.127,188.314c-0.114,0.02-0.228,0.041-0.342,0.061c-2.808,0.499-3.452,4.342-1.628,6.166
			c1.824,1.824,5.666,1.179,6.166-1.628c0.02-0.114,0.041-0.228,0.061-0.342C173.869,189.853,171.846,187.83,169.127,188.314z"/>
	</g>
</g>
<g>
	<g>
		<path d="M183.592,189.479c-0.02-0.046-0.04-0.092-0.061-0.137c-0.478-1.101-1.877-1.688-2.99-1.716
			c-0.063-0.001-0.125-0.003-0.188-0.004c-1.242-0.032-2.673,0.72-3.237,1.857c-0.051,0.1-0.101,0.201-0.15,0.302
			c-0.83,1.67-0.566,3.607,0.955,4.782c1.37,1.059,3.652,1.11,4.867-0.29c0.072-0.083,0.145-0.167,0.218-0.25
			C184.222,192.622,184.305,191.12,183.592,189.479z"/>
	</g>
</g>
<g>
	<g>
		<path d="M139.325,245.987c-3.964-3.859-12.317-9.599-9.48-15.646c2.33-4.968,7.442-8.75,10.087-13.683
			c1.301-2.427-1.663-4.5-3.67-2.832c-3.843,3.195-6.921,7.342-10.148,11.146c-1.801,2.121-4.335,4.42-4.593,7.386
			c-0.557,6.399,9.047,14.596,13.332,18.1C137.941,252.983,142.302,248.884,139.325,245.987z"/>
	</g>
</g>
<g>
	<g>
		<path d="M156.974,245.178c-2.333-2.378-4.766-4.65-7.181-6.943c-3.242-3.078-4.476-2.745-1.702-6.61
			c3.411-4.755,7.606-9.527,9.621-15.055c0.585-1.606-1.597-3.382-3.019-2.321c-3.55,2.646-6.098,6.331-8.814,9.812
			c-2.044,2.619-5.299,5.555-6.431,8.773c-0.728,2.071-0.205,3.798,0.973,5.598c2.769,4.225,8.195,8.072,11.932,11.367
			C155.486,252.561,159.949,248.209,156.974,245.178z"/>
	</g>
</g>
<g>
	<g>
		<path d="M180.731,241.962c-1.577-0.132-3.156-0.165-4.734-0.177c0.082-0.344,0.163-0.69,0.224-1.05
			c0.66-3.88,0.212-8.181,0.479-12.119c0.404-5.988,1.204-11.894,2.285-17.796c0.548-2.991-3.513-5.148-5.168-2.178
			c-2.754,4.943-5.668,9.926-7.473,15.306c-0.568,1.691,1.87,3.159,3.053,1.778c0.741-0.865,1.423-1.777,2.098-2.693
			c-0.384,3.189-0.715,6.384-0.939,9.586c-0.108,1.543,0.213,3.902-0.293,5.343c-0.646,1.841-0.703,1.355-2.204,2.249
			c-1.904,1.133-2.577,0.697-4.071,2.737c-1.221,1.668,0.425,4.1,2.324,4.05c4.816-0.126,9.601,0.536,14.418,0.374
			C184.252,247.255,184.169,242.249,180.731,241.962z"/>
	</g>
</g>
<g>
	<g>
		<path d="M302.846,151.876c-0.028-0.987-0.049-1.974-0.064-2.961c-0.071-4.509-1.222-9.445-4.871-12.095
			c-2.586-1.879-5.94-2.253-9.128-2.491c-10.166-0.757-24.467-2.959-33.815,2.099c-8.046,4.353-5.163,16.557-5.084,23.94
			c0.119,11.119,0.014,22.233-0.131,33.352c-0.095,7.292,0.05,15.069,8.122,17.895c5.313,1.862,11.979,1.237,17.432,1.477
			c5.625,0.247,12.539,1.406,18.085,0.059c8.962-2.176,11.286-8.984,11.32-17.518C304.77,181.011,303.242,166.476,302.846,151.876z
			 M298.011,202.034c-1.975,4.51-7.12,6.429-11.816,6.082c-5.646-0.418-10.892-0.45-16.708-0.45c-4.013,0-8.536-1.125-11.225-4.339
			c-2.894-3.459-1.964-8.225-1.983-12.582c-0.051-11.63,0.274-23.261,0.977-34.871c0.531-8.776,2.73-15.357,12.251-15.389
			c6.52-0.022,14.546,0.138,20.638,2.762c8.941,3.854,6.79,16.314,7.148,24.338c0.365,8.181,0.783,16.361,1.094,24.544
			C298.497,194.992,299.2,199.319,298.011,202.034z"/>
	</g>
</g>
<g>
	<g>
		<path d="M372.555,151.876c-0.027-0.987-0.049-1.974-0.064-2.961c-0.071-4.509-1.222-9.445-4.871-12.095
			c-2.586-1.879-5.94-2.253-9.128-2.491c-10.167-0.757-24.467-2.959-33.815,2.099c-8.046,4.353-5.163,16.557-5.084,23.94
			c0.119,11.119,0.014,22.233-0.131,33.352c-0.095,7.292,0.05,15.069,8.122,17.895c5.313,1.862,11.978,1.237,17.432,1.477
			c5.625,0.247,12.539,1.406,18.085,0.059c8.962-2.176,11.286-8.984,11.32-17.518C374.479,181.011,372.951,166.476,372.555,151.876z
			 M367.72,202.034c-1.975,4.51-7.12,6.429-11.816,6.082c-5.646-0.418-10.892-0.45-16.708-0.45c-4.013,0-8.536-1.125-11.225-4.339
			c-2.894-3.459-1.964-8.225-1.983-12.582c-0.051-11.63,0.274-23.261,0.977-34.871c0.531-8.776,2.73-15.357,12.251-15.389
			c6.52-0.022,14.546,0.138,20.638,2.762c8.941,3.854,6.79,16.314,7.148,24.338c0.365,8.181,0.783,16.361,1.094,24.544
			C368.206,194.992,368.909,199.319,367.72,202.034z"/>
	</g>
</g>
<g>
	<g>
		<path d="M442.264,151.876c-0.027-0.987-0.049-1.974-0.064-2.961c-0.071-4.509-1.222-9.445-4.871-12.095
			c-2.586-1.879-5.94-2.253-9.128-2.491c-10.167-0.757-24.467-2.959-33.815,2.099c-8.045,4.353-5.163,16.557-5.084,23.94
			c0.119,11.119,0.014,22.233-0.131,33.352c-0.095,7.292,0.051,15.069,8.122,17.895c5.313,1.862,11.978,1.237,17.432,1.477
			c5.625,0.247,12.539,1.406,18.085,0.059c8.962-2.176,11.286-8.984,11.32-17.518C444.188,181.011,442.66,166.476,442.264,151.876z
			 M437.43,202.034c-1.975,4.51-7.12,6.429-11.816,6.082c-5.646-0.418-10.892-0.45-16.708-0.45c-4.013,0-8.536-1.125-11.225-4.339
			c-2.894-3.459-1.963-8.225-1.983-12.582c-0.051-11.63,0.274-23.261,0.977-34.871c0.531-8.776,2.73-15.357,12.251-15.389
			c6.52-0.022,14.546,0.138,20.638,2.762c8.942,3.854,6.791,16.314,7.148,24.338c0.365,8.181,0.783,16.361,1.094,24.544
			C437.916,194.992,438.618,199.319,437.43,202.034z"/>
	</g>
</g>
<g>
	<g>
		<path d="M302.846,244.448c-0.028-0.988-0.049-1.975-0.064-2.962c-0.071-4.509-1.222-9.444-4.871-12.094
			c-2.586-1.878-5.94-2.253-9.128-2.491c-10.166-0.757-24.467-2.959-33.815,2.099c-8.046,4.354-5.163,16.556-5.084,23.94
			c0.119,11.12,0.014,22.234-0.131,33.352c-0.095,7.292,0.05,15.069,8.122,17.895c5.313,1.862,11.979,1.237,17.432,1.477
			c5.625,0.247,12.539,1.406,18.085,0.059c8.962-2.176,11.286-8.984,11.32-17.518C304.77,273.583,303.242,259.048,302.846,244.448z
			 M298.011,294.604c-1.975,4.51-7.12,6.43-11.816,6.082c-5.646-0.418-10.892-0.45-16.708-0.45c-4.013,0-8.536-1.125-11.225-4.339
			c-2.894-3.46-1.964-8.225-1.983-12.583c-0.051-11.63,0.274-23.261,0.977-34.87c0.531-8.776,2.73-15.357,12.251-15.389
			c6.52-0.022,14.546,0.137,20.638,2.762c8.941,3.854,6.79,16.314,7.148,24.338c0.365,8.181,0.783,16.361,1.094,24.544
			C298.497,287.563,299.2,291.89,298.011,294.604z"/>
	</g>
</g>
<g>
	<g>
		<path d="M372.555,244.448c-0.027-0.988-0.049-1.975-0.064-2.962c-0.071-4.509-1.222-9.444-4.871-12.094
			c-2.586-1.878-5.94-2.253-9.128-2.491c-10.167-0.757-24.467-2.959-33.815,2.099c-8.046,4.354-5.163,16.556-5.084,23.94
			c0.119,11.12,0.014,22.234-0.131,33.352c-0.095,7.292,0.05,15.069,8.122,17.895c5.313,1.862,11.978,1.237,17.432,1.477
			c5.625,0.247,12.539,1.406,18.085,0.059c8.962-2.176,11.286-8.984,11.32-17.518C374.479,273.583,372.951,259.048,372.555,244.448z
			 M367.72,294.604c-1.975,4.51-7.12,6.43-11.816,6.082c-5.646-0.418-10.892-0.45-16.708-0.45c-4.013,0-8.536-1.125-11.225-4.339
			c-2.894-3.46-1.964-8.225-1.983-12.583c-0.051-11.63,0.274-23.261,0.977-34.87c0.531-8.776,2.73-15.357,12.251-15.389
			c6.52-0.022,14.546,0.137,20.638,2.762c8.941,3.854,6.79,16.314,7.148,24.338c0.365,8.181,0.783,16.361,1.094,24.544
			C368.206,287.563,368.909,291.89,367.72,294.604z"/>
	</g>
</g>
<g>
	<g>
		<path d="M442.264,244.448c-0.027-0.988-0.049-1.975-0.064-2.962c-0.071-4.509-1.222-9.444-4.871-12.094
			c-2.586-1.878-5.94-2.253-9.128-2.491c-10.167-0.757-24.467-2.959-33.815,2.099c-8.045,4.354-5.163,16.556-5.084,23.94
			c0.119,11.12,0.014,22.234-0.131,33.352c-0.095,7.292,0.051,15.069,8.122,17.895c5.313,1.862,11.978,1.237,17.432,1.477
			c5.625,0.247,12.539,1.406,18.085,0.059c8.962-2.176,11.286-8.984,11.32-17.518C444.188,273.583,442.66,259.048,442.264,244.448z
			 M437.43,294.604c-1.975,4.51-7.12,6.43-11.816,6.082c-5.646-0.418-10.892-0.45-16.708-0.45c-4.013,0-8.536-1.125-11.225-4.339
			c-2.894-3.46-1.963-8.225-1.983-12.583c-0.051-11.63,0.274-23.261,0.977-34.87c0.531-8.776,2.73-15.357,12.251-15.389
			c6.52-0.022,14.546,0.137,20.638,2.762c8.942,3.854,6.791,16.314,7.148,24.338c0.365,8.181,0.783,16.361,1.094,24.544
			C437.916,287.563,438.618,291.89,437.43,294.604z"/>
	</g>
</g>
<g>
	<g>
		<path d="M302.846,337.019c-0.028-0.988-0.049-1.974-0.064-2.962c-0.071-4.509-1.222-9.444-4.871-12.094
			c-2.586-1.879-5.94-2.253-9.128-2.491c-10.166-0.757-24.467-2.959-33.815,2.099c-8.046,4.353-5.163,16.557-5.084,23.94
			c0.119,11.12,0.014,22.234-0.131,33.352c-0.095,7.292,0.05,15.07,8.122,17.895c5.313,1.862,11.979,1.236,17.432,1.477
			c5.625,0.247,12.539,1.405,18.085,0.059c8.962-2.176,11.286-8.984,11.32-17.518C304.77,366.154,303.242,351.619,302.846,337.019z
			 M298.011,387.176c-1.975,4.511-7.12,6.429-11.816,6.082c-5.646-0.418-10.892-0.45-16.708-0.45c-4.013,0-8.536-1.124-11.225-4.339
			c-2.894-3.459-1.964-8.225-1.983-12.582c-0.051-11.63,0.274-23.261,0.977-34.87c0.531-8.776,2.73-15.357,12.251-15.389
			c6.52-0.023,14.546,0.137,20.638,2.762c8.941,3.854,6.79,16.314,7.148,24.338c0.365,8.18,0.783,16.361,1.094,24.544
			C298.497,380.133,299.2,384.461,298.011,387.176z"/>
	</g>
</g>
<g>
	<g>
		<path d="M372.555,337.019c-0.027-0.988-0.049-1.974-0.064-2.962c-0.071-4.509-1.222-9.444-4.871-12.094
			c-2.586-1.879-5.94-2.253-9.128-2.491c-10.167-0.757-24.467-2.959-33.815,2.099c-8.046,4.353-5.163,16.557-5.084,23.94
			c0.119,11.12,0.014,22.234-0.131,33.352c-0.095,7.292,0.05,15.07,8.122,17.895c5.313,1.862,11.978,1.236,17.432,1.477
			c5.625,0.247,12.539,1.405,18.085,0.059c8.962-2.176,11.286-8.984,11.32-17.518C374.479,366.154,372.951,351.619,372.555,337.019z
			 M367.72,387.176c-1.975,4.511-7.12,6.429-11.816,6.082c-5.646-0.418-10.892-0.45-16.708-0.45c-4.013,0-8.536-1.124-11.225-4.339
			c-2.894-3.459-1.964-8.225-1.983-12.582c-0.051-11.63,0.274-23.261,0.977-34.87c0.531-8.776,2.73-15.357,12.251-15.389
			c6.52-0.023,14.546,0.137,20.638,2.762c8.941,3.854,6.79,16.314,7.148,24.338c0.365,8.18,0.783,16.361,1.094,24.544
			C368.206,380.133,368.909,384.461,367.72,387.176z"/>
	</g>
</g>
<g>
	<g>
		<path d="M442.264,337.019c-0.027-0.988-0.049-1.974-0.064-2.962c-0.071-4.509-1.222-9.444-4.871-12.094
			c-2.586-1.879-5.94-2.253-9.128-2.491c-10.167-0.757-24.467-2.959-33.815,2.099c-8.045,4.353-5.163,16.557-5.084,23.94
			c0.119,11.12,0.014,22.234-0.131,33.352c-0.095,7.292,0.051,15.07,8.122,17.895c5.313,1.862,11.978,1.236,17.432,1.477
			c5.625,0.247,12.539,1.405,18.085,0.059c8.962-2.176,11.286-8.984,11.32-17.518C444.188,366.154,442.66,351.619,442.264,337.019z
			 M437.43,387.176c-1.975,4.511-7.12,6.429-11.816,6.082c-5.646-0.418-10.892-0.45-16.708-0.45c-4.013,0-8.536-1.124-11.225-4.339
			c-2.894-3.459-1.963-8.225-1.983-12.582c-0.051-11.63,0.274-23.261,0.977-34.87c0.531-8.776,2.73-15.357,12.251-15.389
			c6.52-0.023,14.546,0.137,20.638,2.762c8.942,3.854,6.791,16.314,7.148,24.338c0.365,8.18,0.783,16.361,1.094,24.544
			C437.916,380.133,438.618,384.461,437.43,387.176z"/>
	</g>
</g>
<g>
</g>
<g>
</g>
<g>
</g>
<g>
</g>
<g>
</g>
<g>
</g>
<g>
</g>
<g>
</g>
<g>
</g>
<g>
</g>
<g>
</g>
<g>
</g>
<g>
</g>
<g>
</g>
<g>
</g>
</svg>
