<?xml version="1.0" encoding="iso-8859-1"?>
<!-- Generator: Adobe Illustrator 19.0.0, SVG Export Plug-In . SVG Version: 6.00 Build 0)  -->
<svg version="1.1" id="Capa_1" xmlns="http://www.w3.org/2000/svg" xmlns:xlink="http://www.w3.org/1999/xlink" x="0px" y="0px"
	 viewBox="0 0 511.999 511.999" style="enable-background:new 0 0 511.999 511.999;" xml:space="preserve">
<g>
	<g>
		<path d="M503.654,20.908c-4.8,0.982-10.293,3.569-12.44,4.606c-14.262,6.884-30.662,11.145-45.743,15.392
			c-9.714,2.736-19.363,5.526-28.636,8.883c-29.874,10.817-60.204,19.789-90.202,30.235c-29.038,10.112-57.826,21.215-87.177,30.396
			c-29.652,9.274-58.04,22.541-87.392,32.731c-30.027,10.423-60.567,19.522-90.399,30.481c-14.736,5.413-30.128,8.977-44.676,14.877
			c-6.021,2.443-16.281,4.743-16.957,12.727c-0.609,7.196,7.525,12.506,12.358,16.238c12.026,9.289,24.402,18.183,36.489,27.39
			c10.709,8.157,23.033,14.1,34.871,20.408c12.205,6.503,24.174,13.258,27.348,27.221c8.078,35.54,9.176,72.486,13.463,108.532
			c2.181,18.344,5.116,36.552,6.743,54.964c0.821,9.29-0.692,26.352,6.963,33.465c1.573,1.462,3.736,2.114,5.775,1.834
			c1.474,0.419,3.126,0.18,4.322-1.066c9.351-9.747,17.06-21.641,25.387-32.253c10.038-12.792,20.151-25.611,29.363-39.016
			c9.32-13.563,18.426-26.777,28.553-39.73c3.033-3.88,7.678-9.156,10.496-14.48c16.787,10.541,34.239,20.325,51.613,29.466
			c13.84,7.282,31.89,25.055,44.775,7.359c15.319-21.038,24.53-48.041,35.773-71.388c22.513-46.752,42.227-94.866,64.018-141.952
			c12.316-26.613,26.631-52.397,39.076-79.009c6.066-12.972,11.813-26.163,17.107-39.476c5.514-13.863,13.072-27.398,16.988-41.705
			C513.516,20.719,509.018,19.811,503.654,20.908z M115.629,270.563c-9.392-8.447-20.272-14.163-31.328-20.119
			c-13.223-7.123-24.965-15.066-37.002-23.951c-5.758-4.25-11.539-8.473-17.298-12.724c-3.217-2.375-10.722-6.339-14.333-10.65
			c6.518-3.89,16.977-5.555,23.253-7.474c11.471-3.508,22.662-7.396,33.94-11.46c21.566-7.773,43.49-14.975,65.24-22.249
			c42.926-14.357,85.037-31.285,127.642-46.563c40.806-14.633,81.95-27.95,122.984-41.888c20.672-7.021,40.943-15.215,61.597-22.35
			c-13.966,8.498-27.574,17.658-41.622,26.034c-30.745,18.331-61.091,38.152-90.704,58.408
			c-33.337,22.804-67.546,44.192-100.203,68.032c-32.726,23.89-66.644,46.982-101.299,67.897
			C116.197,271.2,115.951,270.854,115.629,270.563z M144.714,454.927c-0.443-5.21-0.877-10.416-1.503-15.619
			c-1.948-16.194-4.446-32.322-6.106-48.546c-3.157-30.857-6.303-61.421-11.252-92.081c-1.01-6.257-1.878-13.48-4.483-19.646
			c16.401-4.827,31.122-15.821,44.932-25.308c17.789-12.219,36.101-23.703,53.593-36.34c33.054-23.88,68.088-44.789,101.014-68.728
			c15.36-11.167,31.664-21.733,48.065-31.281c14.841-8.64,28.215-19.396,43.141-27.924c4.996-2.854,9.868-5.935,14.697-9.095
			c-9.906,8.402-19.718,16.917-29.519,25.417c-16.087,13.951-33.269,26.557-49.71,40.092
			c-17.634,14.518-34.317,30.234-51.457,45.343c-28.274,24.923-54.408,52.245-82.71,76.965
			c-6.496,5.674-12.931,12.124-19.102,18.167c-5.833,5.714-13.578,12.913-18.369,19.579c-5.518,7.678-5.704,15.947-5.754,24.374
			c-1.134,5.643-1.722,11.455-2.441,15.84c-2.372,14.467-5.394,28.805-7.977,43.237c-2.861,15.986-6.44,31.616-10.57,47.316
			C147.612,442.747,146.145,448.833,144.714,454.927z M219.03,374.755c-9.651,12.163-17.894,25.104-26.664,37.915
			c-9.039,13.203-19.012,25.774-28.652,38.538c-2.068,2.737-4.259,5.46-6.452,8.208c3.338-13.891,7.302-27.629,10.427-41.565
			c6.036-26.925,9.062-54.569,15.435-81.391c0.555-2.336,1.203-7.801,2.419-9.461c0.265-0.362,0.443-0.654,0.58-0.911
			c0.162,0.103,0.356,0.204,0.629,0.297c2.998,1.017,7.513,6.175,10.041,8.036c9.162,6.749,18.948,12.783,28.358,19.204
			c1.949,1.329,3.975,2.587,5.949,3.893C226.352,362.526,222.832,369.963,219.03,374.755z M485.141,57.055
			c-5.039,13.384-10.992,26.283-16.669,39.389c-10.592,24.454-22.7,48.951-35.625,72.249
			c-23.399,42.177-40.482,88.352-59.84,132.466c-10.586,24.123-22.315,48.303-34.355,71.721c-2.473,4.81-4.749,11.431-8.386,15.587
			c-5.643,6.451-10.465,5.13-17.618,1.115c-10.31-5.786-20.998-10.955-31.139-17.09c-21.605-13.07-42.767-26.437-63.839-40.273
			c-8.592-5.641-16.376-12.411-24.824-18.076c-1.747-1.172-3.613-2.019-5.493-2.505c0.468-0.655,0.96-1.301,1.502-1.928
			c11.225-12.987,24.864-25.046,37.969-36.027c12.319-10.323,22.714-22.706,34.486-33.656c15.049-13.998,29.619-28.191,45.036-41.8
			c16.049-14.166,31.744-28.773,48.124-42.54c16.163-13.584,33.303-25.914,49.245-39.766c27.062-23.514,55.626-45.684,82.445-69.431
			c1.689-0.918,3.344-1.869,4.909-2.904C488.966,48.026,486.868,52.471,485.141,57.055z"/>
	</g>
</g>
<g>
</g>
<g>
</g>
<g>
</g>
<g>
</g>
<g>
</g>
<g>
</g>
<g>
</g>
<g>
</g>
<g>
</g>
<g>
</g>
<g>
</g>
<g>
</g>
<g>
</g>
<g>
</g>
<g>
</g>
</svg>
