<?xml version="1.0" encoding="iso-8859-1"?>
<!-- Generator: Adobe Illustrator 19.0.0, SVG Export Plug-In . SVG Version: 6.00 Build 0)  -->
<svg version="1.1" id="Capa_1" xmlns="http://www.w3.org/2000/svg" xmlns:xlink="http://www.w3.org/1999/xlink" x="0px" y="0px"
	 viewBox="0 0 511.998 511.998" style="enable-background:new 0 0 511.998 511.998;" xml:space="preserve">
<g>
	<g>
		<path d="M67.615,335.564c0.017-23.653-0.29-47.206-0.658-70.848c-0.117-7.371,2.255-18.229-2.273-24.74
			c-1.945-2.797-4.989-4.621-8.385-5.83c0.199-5.433-0.019-10.901-0.07-16.327c-0.035-3.737,0.655-8.985-1.673-12.306
			c-1.767-2.521-4.845-3.775-8.275-4.389c-1.599-4.117,0.1-8.955-3.852-11.986c-1.757-1.348-3.732-1.775-5.879-1.915
			c-0.41-6.538-0.9-13.146-0.989-19.732c-0.055-4.053-6.34-4.066-6.304,0c0.035,3.934,0.101,7.867,0.176,11.801
			c0.041,2.171-0.187,4.572,0.296,6.717c0.007,0.179,0.031,0.352,0.046,0.527c-0.682-0.053-1.362-0.087-2.037-0.079
			c-9.741,0.102-11.704,9.974-9.704,17.794c-2.428,1.021-4.596,2.408-6.122,4.43c-2.389,3.164-1.769,7.315-1.847,11.073
			c-0.089,4.274-0.142,8.742,0.729,12.963c-0.222,0.083-0.456,0.155-0.672,0.244c-6.621,2.744-7.013,9.938-7.074,16.502
			c-0.084,8.964,0.615,17.853,0.678,26.774c-2.29,32.512-2.266,65.137-3.612,97.77c-0.475,11.526,0.685,22.929,0.653,34.428
			c-0.022,8.068-1.309,17.136,0.364,25.298c0.021,6.365-0.195,13.357,1.053,19.525c3.048,15.062,18.536,13.4,31.03,15.132
			c10.41,1.444,23.441,1.23,28.343-9.653c4.655-10.334,2.811-21.859,2.78-32.8C64.25,395.808,67.596,365.764,67.615,335.564z
			 M24.964,197.902c0.225-3.707,2.29-3.753,5.64-3.287c1.489,0.207,2.952,0.357,4.45,0.474c0.796-0.075,1.583-0.015,2.361,0.166
			c0.002,0.161,0.008,0.364,0.017,0.626c0.489,1.782,0.342,3.365,0.569,4.954c-1.983,0.106-3.821,0.297-5.314,0.46
			c-2.423,0.265-5.256,0.541-8.091,1.065C24.778,200.891,24.873,199.4,24.964,197.902z M18.808,217.209
			c0.76-6.431,7.804-6.176,13.248-6.829c3.379-0.406,6.194-1.19,9.673-0.789c4.063,0.469,5.843,0.206,5.698,4.278
			c-0.215,6.025-0.438,12.203-0.25,18.297c-1.337-0.157-2.636-0.27-3.845-0.354c-7.011-0.486-16.627-1.663-24.868-0.786
			C18.935,226.492,18.265,221.804,18.808,217.209z M49.462,457.98c-4.923,3.016-13.512,1.268-18.607,0.698
			c-4.054-0.453-12.261,0.388-15.659-1.761c-3.104-1.963-4.312-6.038-4.911-10.237c1.927,0.834,4.093,1.376,6.47,1.75
			c9.681,1.523,19.141,2.28,28.82,0.529c2.806-0.508,5.824-0.985,8.555-1.938C53.889,451.311,53.07,455.769,49.462,457.98z
			 M56.851,388.064c-0.913,8.877-1.32,17.763-2.223,26.648c-0.444,4.362-1.003,8.721-1.432,13.084
			c-0.155,1.581,0.081,4.078-0.407,5.556c-1.423,4.316-1.506,3.436-5.328,4.962c-6.078,2.426-14.375,1.818-20.774,1.153
			c-6.315-0.656-14.05-2.366-15.901-8.841c-1.368-4.787-0.376-10.516-0.33-15.44c0.11-11.931-0.016-23.855-0.074-35.783
			c7.483,2.245,16.292,2.393,23.668,2.142c6.776-0.23,16.403,1.299,23.426-0.617C57.301,383.31,57.095,385.688,56.851,388.064z
			 M57.907,275.293c0.651,18.618,0.422,37.399,0.44,56.054c0.013,14.071,0.247,28.172-0.43,42.228
			c-0.462,0.022-0.942,0.13-1.432,0.36c-3.342,1.57-9.467,0.092-13.12,0.1c-4.839,0.01-9.568,0.818-14.393,0.731
			c-5.935-0.107-12.664-1.66-18.616-0.454c-0.012-4.455-0.008-8.911,0.03-13.368c0.17-20.096,0.028-40.395,0.911-60.486
			c0.254-5.781,0.16-11.553,0.097-17.326c0.066-1.189,0.164-2.374,0.218-3.565c0.281-6.28,0.267-12.58,0.36-18.874
			c0.304-5.393,0.584-10.792,0.535-16.182c0.205-0.993,0.523-1.811,1.061-2.238c2.783-2.204,9.674-0.724,13.16-0.725
			c8.409-0.001,22.294-2.474,28.379,4.464C60.538,252.207,57.618,267.029,57.907,275.293z"/>
	</g>
</g>
<g>
	<g>
		<path d="M426.023,34.265c-1.076-0.173-1.778-0.228-2.606-0.168c-0.856-0.127-1.747-0.031-2.55,0.272
			c-2.597,0.36-4.896,2.74-4.775,5.433c0.146,3.26,2.428,5.159,5.504,5.505c0.502,0.057,1.003,0.012,1.502-0.059
			c0.973,0.063,1.974-0.05,2.925-0.365c2.227-0.736,4.153-2.824,4.042-5.309C429.965,37.335,428.45,34.655,426.023,34.265z"/>
	</g>
</g>
<g>
	<g>
		<path d="M358.952,395.728c-0.103-2.528,0.339-4.895-1.495-6.851c-0.029-0.031-0.072-0.041-0.103-0.069
			c-0.41-0.644-1.088-1.151-2.113-1.244c-5.87-0.535-11.825-0.519-17.769-0.423c0.144-0.445,0.278-0.895,0.386-1.357
			c1.008-4.307,0.551-9.267,0.555-13.295c0.012-10.556-0.412-21.107-0.415-31.663c-0.006-18.399,0.485-37.011-1.035-55.358
			c-0.206-2.49-3-2.947-4.234-1.434c-6.385-1.579-13.47-0.742-19.985-0.676c-6.053,0.061-12.158-0.046-18.15,0.802
			c-0.001-12.691-0.296-25.38-1.566-37.882c0.308-0.868,0.222-1.877-0.25-2.667c-0.003-0.027-0.005-0.053-0.008-0.08
			c-0.203-1.792-2.061-2.214-3.059-1.278c-23.717-0.704-48.146-1.46-72.014-0.044c0.029-21.077,0.243-42.154,0.212-63.232
			c-0.016-10.539-0.091-21.079-0.281-31.617c-0.133-7.381,2.15-16.623,0.443-23.793c-0.954-4.007-2.228-3.198-6.557-3.305
			c-0.913-0.023-10.812-0.188-10.822,0.001c0.465-8.967,0.653-17.951,0.449-26.929c-0.186-8.189-1.574-16.366-1.154-24.479
			c0.204-3.958-15.167-2.041-18.371-2.021c-5.013,0.031-19.475-2.805-22.519,2.519c-1.527,2.673-0.673,9.964-0.762,13.155
			c-0.132,4.745,0.067,9.493,0.07,14.238c0.005,7.723-0.93,16.235,0.89,23.86c-2.681,0.032-6.86-1.164-9.336-0.289
			c-4.641,1.642-4.072,8.414-4.204,12.223c-0.234,6.692-0.264,13.388-0.206,20.083c0.109,12.773,0.558,25.542,0.568,38.316
			c0.017,22.184,0.02,44.367,0.028,66.551c0.007,22.184,0.015,44.368,0.023,66.551c0.007,21.072-0.247,41.915,0.55,62.906
			c-8.495-0.027-17.151-0.618-25.555,0.678c-1.637,0.253-2.221,2.125-1.771,3.556c-0.593,4.527-2.02,9.315-0.688,13.749
			c-0.097,1.299,0.694,2.665,2.428,2.753c39.175,1.977,78.795,0.329,118.02,0.387c19.299,0.028,38.598,0.093,57.896,0.172
			c16.348,0.067,33.911,1.861,50.328,0.09c0.235,0.09,0.495,0.146,0.781,0.155c4.902,0.159,9.732,0.402,10.918-5.296
			C359.624,400.555,359.059,398.339,358.952,395.728z M294.36,318.98c-0.009-9.915,0.168-19.936,0.218-29.97
			c5.996,0.851,12.107,0.743,18.165,0.804c6.221,0.063,12.969,0.852,19.124-0.452c-1.16,17.084-0.758,34.365-0.763,51.463
			c-0.005,15.112-0.878,30.629-0.076,45.828c-12.29-0.225-24.594-0.241-36.898-0.179C296.492,364.468,294.381,341.076,294.36,318.98
			z M288.663,248.193c-0.447,4.782-0.732,9.593-0.945,14.415c-3.032-0.336-6.09-0.529-9.164-0.619
			c-0.033-4.504-0.065-9.008-0.077-13.502C281.883,248.392,285.282,248.293,288.663,248.193z M286.663,365.374
			c-2.549-0.253-5.117-0.399-7.695-0.482c0.069-4.114,0.13-8.229,0.163-12.349c2.552-0.085,5.094-0.235,7.619-0.487
			C286.653,356.505,286.625,360.947,286.663,365.374z M287.385,300.537c0.047,4.51,0.086,9.006,0.106,13.489
			c-2.788-0.301-5.598-0.482-8.422-0.575c-0.036-4.116-0.074-8.232-0.118-12.346C281.777,301.015,284.591,300.836,287.385,300.537z
			 M278.899,296.297c-0.046-4.112-0.093-8.225-0.139-12.334c2.854-0.088,5.695-0.263,8.517-0.561
			c-0.006,4.489,0.03,8.977,0.073,13.46C284.552,296.564,281.732,296.387,278.899,296.297z M279.155,347.751
			c0.021-4.118,0.037-8.237,0.032-12.358c2.694-0.091,5.377-0.261,8.042-0.541c-0.127,4.447-0.262,8.918-0.38,13.396
			C284.3,347.991,281.733,347.837,279.155,347.751z M279.171,330.603c-0.013-4.118-0.031-8.236-0.062-12.356
			c2.813-0.093,5.615-0.275,8.396-0.576c0.001,0.436,0.006,0.874,0.005,1.309c-0.004,4.017-0.087,8.087-0.189,12.174
			C284.622,330.868,281.903,330.694,279.171,330.603z M287.305,279.708c-2.846-0.301-5.714-0.478-8.595-0.566
			c-0.044-4.109-0.087-8.218-0.123-12.322c3.006-0.088,5.997-0.277,8.966-0.6C287.4,270.709,287.334,275.207,287.305,279.708z
			 M278.462,385.77c0.185-5.348,0.32-10.707,0.429-16.071c2.615-0.082,5.221-0.232,7.809-0.49
			c0.127,5.832,0.432,11.618,1.045,17.308c-3.138,0.021-6.276,0.048-9.413,0.072C278.387,386.33,278.452,386.082,278.462,385.77z
			 M274.674,248.588c-0.012,4.437-0.043,8.883-0.076,13.329c-4.025-0.027-8.059,0.048-12.074,0.121
			c-0.033-4.395-0.063-8.788-0.075-13.174C266.534,248.792,270.608,248.694,274.674,248.588z M273.98,330.504
			c-3.613-0.013-7.233,0.049-10.839,0.116c-0.013-4.131-0.031-8.262-0.062-12.394c3.648,0.068,7.308,0.132,10.962,0.117
			C274.011,322.398,273.993,326.452,273.98,330.504z M273.997,347.653c-3.625-0.014-7.255,0.049-10.872,0.116
			c0.021-4.13,0.037-8.26,0.032-12.393c3.597,0.067,7.205,0.13,10.808,0.116C273.96,339.548,273.976,343.601,273.997,347.653z
			 M263.102,352.523c3.633,0.068,7.28,0.131,10.92,0.116c0.033,4.058,0.093,8.111,0.16,12.163
			c-3.749-0.018-7.503,0.048-11.243,0.117C263.007,360.79,263.068,356.659,263.102,352.523z M274.083,313.358
			c-3.681-0.017-7.37,0.048-11.043,0.116c-0.036-4.133-0.074-8.266-0.119-12.398c3.753,0.069,7.52,0.137,11.279,0.118
			C274.156,305.248,274.119,309.303,274.083,313.358z M262.87,296.329c-0.046-4.136-0.094-8.271-0.14-12.404
			c3.88,0.072,7.774,0.142,11.661,0.12c-0.046,4.053-0.092,8.109-0.137,12.166C270.458,296.191,266.656,296.259,262.87,296.329z
			 M262.681,279.184c-0.044-4.139-0.088-8.277-0.124-12.41c3.994,0.073,8.004,0.147,12.006,0.121
			c-0.035,4.053-0.077,8.11-0.121,12.169C270.521,279.041,266.592,279.112,262.681,279.184z M262.432,385.77
			c0.185-5.359,0.322-10.729,0.43-16.103c3.793,0.07,7.6,0.138,11.4,0.118c0.108,5.335,0.243,10.665,0.427,15.984
			c0.011,0.322,0.076,0.58,0.135,0.846c-4.181,0.034-8.361,0.056-12.54,0.084C262.352,386.414,262.42,386.124,262.432,385.77z
			 M258.643,248.915c-0.013,4.389-0.043,8.786-0.075,13.185c-1.308,0.016-2.614,0.029-3.913,0.028
			c-2.71-0.002-5.433-0.045-8.16-0.097c-0.032-4.349-0.062-8.696-0.074-13.036C250.496,249.001,254.571,248.971,258.643,248.915z
			 M257.95,330.697c-1.1,0.011-2.201,0.024-3.295,0.023c-2.506-0.002-5.022-0.04-7.543-0.086c-0.014-4.139-0.031-8.28-0.062-12.42
			c2.542-0.046,5.08-0.085,7.605-0.086c1.116-0.001,2.237,0.012,3.358,0.024C257.982,322.335,257.964,326.516,257.95,330.697z
			 M257.968,347.845c-1.106,0.012-2.213,0.025-3.313,0.024c-2.511-0.002-5.033-0.04-7.559-0.086c0.02-4.14,0.036-8.279,0.031-12.422
			c2.516-0.045,5.028-0.083,7.528-0.085c1.09-0.001,2.185,0.012,3.281,0.023C257.931,339.483,257.946,343.664,257.968,347.845z
			 M247.072,352.51c2.535-0.046,5.065-0.084,7.583-0.086c1.108-0.001,2.222,0.012,3.335,0.024c0.033,4.185,0.095,8.365,0.164,12.543
			c-1.169,0.013-2.337,0.026-3.499,0.025c-2.573-0.002-5.157-0.042-7.746-0.089C246.977,360.791,247.039,356.653,247.072,352.51z
			 M258.052,313.548c-1.134,0.012-2.269,0.025-3.397,0.024c-2.539-0.002-5.09-0.041-7.645-0.087
			c-0.035-4.139-0.074-8.278-0.119-12.415c2.595-0.048,5.186-0.087,7.764-0.09c1.169-0.001,2.343,0.012,3.518,0.025
			C258.127,305.185,258.088,309.366,258.052,313.548z M254.655,296.424c-2.596-0.002-5.203-0.042-7.815-0.09
			c-0.046-4.138-0.093-8.275-0.139-12.409c2.659-0.049,5.313-0.091,7.955-0.093c1.232-0.001,2.47,0.012,3.708,0.027
			c-0.048,4.177-0.095,8.358-0.142,12.54C257.031,296.413,255.839,296.425,254.655,296.424z M254.655,279.276
			c-2.659-0.002-5.329-0.044-8.003-0.094c-0.045-4.137-0.088-8.272-0.123-12.403c2.717-0.051,5.429-0.094,8.127-0.096
			c1.29-0.001,2.584,0.012,3.881,0.027c-0.036,4.176-0.08,8.356-0.124,12.538C257.156,279.264,255.902,279.277,254.655,279.276z
			 M246.402,385.77c0.185-5.361,0.322-10.732,0.43-16.108c2.615-0.048,5.225-0.089,7.822-0.09c1.187-0.001,2.38,0.012,3.573,0.025
			c0.109,5.398,0.246,10.791,0.432,16.173c0.013,0.361,0.08,0.656,0.151,0.947c-4.191,0.024-8.382,0.056-12.569,0.061
			C246.321,386.474,246.389,386.154,246.402,385.77z M242.612,248.978c-0.012,4.32-0.042,8.648-0.074,12.978
			c-4.023-0.082-8.053-0.156-12.075-0.145c-0.032-4.358-0.062-8.716-0.074-13.065C234.457,248.868,238.531,248.948,242.612,248.978z
			 M241.922,330.537c-3.613-0.074-7.229-0.133-10.841-0.131c-0.013-3.987-0.03-7.975-0.059-11.964
			c3.652,0.003,7.309-0.058,10.961-0.132C241.952,322.386,241.935,326.462,241.922,330.537z M241.937,347.684
			c-3.623-0.073-7.249-0.133-10.871-0.131c0.02-3.986,0.035-7.973,0.031-11.964c3.601,0.002,7.207-0.057,10.809-0.13
			C241.901,339.536,241.917,343.611,241.937,347.684z M231.039,352.738c3.639,0.002,7.283-0.058,10.923-0.131
			c0.033,4.081,0.093,8.156,0.161,12.23c-3.745-0.076-7.496-0.14-11.24-0.135C230.947,360.715,231.007,356.729,231.039,352.738z
			 M242.023,313.39c-3.681-0.074-7.365-0.136-11.045-0.133c-0.035-3.988-0.072-7.976-0.115-11.963
			c3.757,0.005,7.52-0.06,11.278-0.135C242.097,305.235,242.059,309.313,242.023,313.39z M230.807,296.108
			c-0.045-3.988-0.09-7.977-0.135-11.962c3.884,0.008,7.775-0.061,11.659-0.14c-0.046,4.078-0.092,8.158-0.138,12.239
			C238.4,296.169,234.601,296.103,230.807,296.108z M230.619,278.959c-0.043-3.989-0.084-7.977-0.119-11.961
			c3.999,0.01,8.005-0.062,12.004-0.144c-0.035,4.08-0.078,8.163-0.122,12.247C238.463,279.021,234.537,278.951,230.619,278.959z
			 M230.373,385.77c0.182-5.286,0.316-10.582,0.424-15.883c3.8,0.005,7.605-0.06,11.405-0.137
			c0.108,5.347,0.244,10.689,0.428,16.021c0.013,0.378,0.082,0.691,0.158,0.991c-4.179-0.009-8.364-0.034-12.56-0.084
			C230.294,386.396,230.361,386.116,230.373,385.77z M217.69,248.206c2.957,0.176,5.923,0.317,8.894,0.43
			c-0.012,4.403-0.043,8.814-0.075,13.226c-2.946,0.057-5.883,0.188-8.808,0.405l-0.013-12.497
			C217.688,249.248,217.69,248.727,217.69,248.206z M218.21,352.324c2.565,0.18,5.14,0.298,7.723,0.355
			c0.033,4.029,0.093,8.054,0.159,12.077c-2.635,0.057-5.262,0.174-7.881,0.358C218.252,360.856,218.254,356.592,218.21,352.324z
			 M225.876,335.53c-0.005,4.029,0.011,8.056,0.031,12.082c-2.593,0.058-5.179,0.177-7.756,0.36
			c-0.06-4.275-0.133-8.549-0.206-12.816C220.58,335.346,223.223,335.471,225.876,335.53z M217.881,330.845
			c-0.065-4.275-0.118-8.544-0.122-12.795v-0.057c2.721,0.201,5.452,0.33,8.194,0.391c-0.03,4.028-0.047,8.054-0.061,12.08
			C223.213,330.525,220.543,330.651,217.881,330.845z M225.994,313.314c-2.756,0.061-5.503,0.19-8.24,0.392l-0.013-12.862
			c2.779,0.205,5.57,0.335,8.369,0.395C226.067,305.263,226.029,309.288,225.994,313.314z M217.736,296.56l-0.013-12.865
			c2.848,0.211,5.708,0.34,8.578,0.399c-0.045,4.021-0.091,8.045-0.136,12.07C223.346,296.224,220.536,296.353,217.736,296.56z
			 M217.718,279.413l-0.013-12.868c2.911,0.216,5.834,0.345,8.768,0.403c-0.034,4.018-0.076,8.041-0.12,12.064
			C223.465,279.071,220.586,279.2,217.718,279.413z M217.465,385.942c0.382-5.468,0.592-10.963,0.698-16.473
			c2.661,0.188,5.332,0.306,8.012,0.363c0.108,5.32,0.242,10.634,0.426,15.939c0.011,0.327,0.077,0.589,0.137,0.858
			c-3.121-0.042-6.24-0.083-9.367-0.132C217.412,386.318,217.451,386.139,217.465,385.942z M164.007,96.746
			c0.006-8.186,0.556-16.428-0.829-24.48c6.118,0.52,12.449,0.114,18.438,0.151c4.51,0.028,9.057,0.184,13.596,0.189
			c-1.606,15.719-1.606,32.151-0.792,47.778c-4.315,0.108-8.605,0.226-12.804,0.241c-6.121,0.023-12.306-0.058-18.495-0.04
			C164.935,112.965,164.001,104.462,164.007,96.746z M152.76,324.042c0.008-22.184,0.015-44.367,0.023-66.551
			c0.008-22.183,0.011-44.367,0.028-66.551c0.016-21.15,1.249-42.766,0.121-63.953c9.571,0.323,19.208,0.084,28.684,0.12
			c10.092,0.037,19.855,0.629,29.919,0.366c-0.259,7.674-0.419,15.35-0.541,23.026c-6.261-0.97-12.833-0.382-19.147-0.363
			c-5.094,0.015-10.836-0.828-15.62,1.071c-0.738-0.35-1.846-0.088-1.982,0.815c-0.014,0.089-0.02,0.179-0.033,0.268
			c-0.174,0.232-0.211,0.529-0.096,0.789c-2.639,18.607-1.193,38.259-1.231,57.002c-0.039,19.232-0.031,38.465-0.046,57.697
			c-0.032,39.53-0.057,79.06-0.057,118.591c-3.469,0.078-6.934,0.185-10.392,0.331c-3.411-0.133-6.881,0.011-10.276,0.135
			C154.859,366.424,152.753,344.479,152.76,324.042z M210.788,201.604c-10.522-1.341-21.855-0.567-32.488-0.093
			c0.096-6.737,0.266-13.547,0.275-20.351c10.392,1.083,21.857,1.43,32.026,0.231c0.062-0.007,0.103-0.036,0.162-0.047
			c-0.004,3.42-0.016,6.839-0.008,10.259C210.761,194.939,210.777,198.269,210.788,201.604z M210.765,177.106
			c-0.06-0.011-0.102-0.041-0.165-0.048c-10.176-1.2-21.643-0.853-32.046,0.233c-0.072-7.629-0.4-15.226-1.363-22.665
			c4.581,1.45,9.897,0.739,14.655,0.753c6.291,0.018,12.838,0.603,19.078-0.353C210.828,162.385,210.786,169.745,210.765,177.106z
			 M178.257,206.143c10.655,0.475,22.009,1.252,32.546-0.093c0.026,7.111,0.049,14.221,0.074,21.331
			c-10.672-0.888-21.916-0.392-32.63,0.109c-0.005-5.803-0.003-11.607-0.014-17.41C178.231,208.776,178.248,207.457,178.257,206.143
			z M210.894,232.462c0.012,3.408,0.027,6.816,0.035,10.223c0.013,4.926,0.012,9.852,0.015,14.779
			c-10.558-0.666-22.057-0.819-32.674,0.5c-0.007-8.537-0.014-17.074-0.02-25.61C188.967,232.856,200.218,233.352,210.894,232.462z
			 M210.95,262.772c0,0.844,0.003,1.687,0.002,2.531c-0.008,7.291-0.015,14.582-0.023,21.873c-4.334-1.592-9.334-0.69-13.979-0.669
			c-6.221,0.027-12.441,0.091-18.662,0.157c-0.004-6.295-0.004-12.59-0.009-18.884c-0.001-1.835-0.003-3.67-0.004-5.506
			C188.898,263.593,200.393,263.438,210.95,262.772z M196.951,291.886c4.644,0.02,9.642,0.921,13.975-0.668
			c-0.008,7.542-0.016,15.083-0.023,22.624l-0.001,1.143c-5.05-1.122-10.556-0.519-15.7-0.507c-5.634,0.013-11.266,0.065-16.9,0.126
			c-0.005-7.625-0.005-15.25-0.011-22.874C184.511,291.795,190.73,291.858,196.951,291.886z M195.201,319.831
			c5.176,0.012,10.623,0.622,15.688-0.504c-0.021,7.019-0.152,14.077-0.274,21.145c-10.767,0.001-21.533,0.051-32.301,0.129
			c-0.004-6.965-0.006-13.93-0.01-20.895C183.937,319.767,189.568,319.818,195.201,319.831z M210.527,346.026
			c-0.09,5.895-0.134,11.793-0.095,17.68c-5.026-0.932-10.182-0.604-15.288-0.594c-5.606,0.012-11.224-0.102-16.819,0.264
			c-0.003-5.826-0.005-11.652-0.008-17.478C189.054,345.975,199.789,346.025,210.527,346.026z M195.144,368.866
			c5.131,0.011,10.296,0.343,15.345-0.604c0.097,5.913,0.292,11.813,0.702,17.68c-0.011,0.164,0.004,0.31,0.014,0.461
			c-10.958-0.163-21.93-0.277-32.868-0.13c0-5.89-0.005-11.78-0.008-17.669C183.921,368.968,189.54,368.854,195.144,368.866z
			 M352.953,401.502c-0.125,0.271-0.204,0.47-0.259,0.627c-0.043,0.016-0.067,0.023-0.114,0.042
			c-0.461-0.029-0.993,0.063-1.546,0.221c-16.747-2.404-34.894-0.449-51.759-0.38c-20.041,0.083-40.082,0.152-60.123,0.181
			c-38.255,0.057-76.881-1.484-115.107,0.272c0.294-3.086-0.37-6.281-0.889-9.397c7.883,0.947,15.956,0.434,23.886,0.422
			c5.937-0.009,12.402,0.66,18.49,0.023c8.812,0.317,17.631,0.404,26.447,0.371c17.982-0.069,35.96-0.616,53.943-0.596
			c21.184,0.023,42.367,0.372,63.552,0.328c14.421-0.029,29.062,0.393,43.451-0.59c-0.209,2.095,0.056,4.374,0.171,6.176
			C353.148,400.015,353.009,400.707,352.953,401.502z"/>
	</g>
</g>
<g>
	<g>
		<path d="M511.34,79.467c-0.768-5.855-0.713-15.489-3.919-20.816c-3.588-5.957-11.781-5.398-17.799-5.419
			c-5.614-0.02-11.185,0.279-16.756,0.546c5.651-29.627-25.9-50.772-53.308-47.932c-10.6,1.098-19.422,4.22-26.63,10.618
			c-41.968-3.559-83.513-6.846-125.729-6.85C226.72,9.61,186.361,8.391,145.971,8.513c-7.171,0.022-15.976-1.824-22.935-0.505
			c-6.38,1.209-12.402,7.751-17.362,11.663c-6.216,4.903-12.622,9.063-18.139,14.814c-2.978,3.103-8.378,7.366-9.942,11.534
			c-2.194,5.851-1.611,15.555-1.869,21.882c-0.406,9.929,0.262,19.746,0.642,29.653c0.831,21.696,0.53,43.136,0.51,64.827
			c-0.073,81.132,0.429,162.215,0.419,243.306c-0.002,17.159-0.01,34.222-0.014,51.387c-0.003,9.776-0.824,19.991,0.426,29.698
			c0.626,4.86,1.366,7.718,6.526,9.012c6.643,1.665,15.611,0.797,22.466,1.078c9.925,0.408,19.896,1.903,29.854,2.421
			c19.454,1.013,38.95,0.941,58.401,2.315c23.549,1.663,47.409,2.053,71.048,2.059c11.706,0.003,23.413,0.03,35.118-0.06
			c10.537-0.081,20.949,1.858,31.485,2.186c20.507,0.638,40.763-0.024,61.227,0.168c5.988,0.056,17.276,2.042,22.107-2.733
			c4.278-4.228,1.698-13.216,0.863-18.843c3.373,0.006,6.69-0.054,9.862-0.092c14.473-0.171,43.752,1.905,47.581-16.635
			c3.556-17.218,3.588-35.87,4.992-53.381c1.478-18.441,1.301-36.962,1.129-55.445c-0.385-41.381-0.771-82.762-1.157-124.143
			c-0.374-40.151,1.238-80.865-2.779-120.843c7.438-0.152,14.829-0.55,22.052-1.55C513.026,110.27,512.814,90.714,511.34,79.467z
			 M421.59,16.245c11.911-0.951,23.601,1.899,31.893,10.888c3.393,3.678,7.107,8.544,8.367,13.327
			c1.162,4.412,0.47,9.005,0.49,13.496c-13.074,1.526-25.852,3.878-39.421,2.583c-3.412-0.326-38.551-2.424-38.948-1.034
			C389.667,35.561,397.955,18.131,421.59,16.245z M89.276,48.019c5.319-7.615,13.738-13.379,21.064-18.826
			c2.259-1.679,5.324-4.799,8.411-7.283c0.036,0.101,0.066,0.183,0.079,0.217c0.843,2.251,2.291,4.024,3.451,6.102
			c2.49,4.461,2.771,8.599,2.874,13.581c0.047,2.272,1.073,7.062,0.255,9.175c-2.432,6.282-25.224,0.626-36.633-2.291
			C88.913,48.522,89.069,48.316,89.276,48.019z M389.373,495.47c-5.5,0.076-10.966,0.517-16.482,0.625
			c-13.411,0.263-26.837-0.226-40.286-0.636c-13.006-0.397-25.681-2.146-38.733-2.096c-15.694,0.06-31.467,0.422-47.149-0.17
			c-28.698-1.083-57.29-1.922-85.965-3.583c-13.012-0.754-26.015-0.342-39.047-1.516c-6.984-0.629-13.869-0.947-20.835-1.392
			c-3.501-0.224-9.145,0.007-13.33-0.718c-2.453-10.815-0.124-24.582-0.102-35.255c0.025-11.746,1.433-23.625,0.578-35.38
			c-1.648-22.671-1.706-46.024-0.888-68.75c0.948-26.314-0.682-52.661-0.307-78.997c0.363-25.487-0.045-51.021-0.069-76.481
			c-0.025-26.209,1.271-52.566,0.292-78.711c-0.464-12.392-1.455-24.814-1.317-37.207c0.07-6.314,0.798-12.434,1.261-18.696
			c5.628,2.234,12.4,2.493,17.989,3.194c7.799,0.979,20.066,5.466,26.727-1.598c4.965-5.265,3.412-18.062,2.656-24.249
			c-0.665-5.439-2.929-8.36-5.341-12.995c-0.499-0.958-0.808-1.933-1.062-2.901c4.7-0.221,10.617,0.916,14.437,0.942
			c11.342,0.076,22.639-0.644,34.011-0.556c12.307,0.096,24.472,1.756,36.788,1.684c30.924-0.18,61.838,0.479,92.747,0.521
			c26.8,0.036,53.476,3.178,80.269,3.518c-0.245,0.349-0.496,0.684-0.736,1.045c-4.674,7.039-12.094,20.314-10.572,30.198
			c-11.287-0.892-28.036-4.227-34.461,5.688c-3.212,4.957-2.377,11.33-2.651,16.894c-0.396,8.064-1.12,17.535,0.678,25.527
			c3.416,15.179,24.974,10.177,36.299,10.198c2.316,0.004,4.631,0.024,6.946,0.047c-4.447,57.941,2.05,116.018-0.704,174.062
			c-1.35,28.456-1.18,56.949-2.166,85.432c-0.962,27.787-5.893,55.923-4.34,83.73c0.588,10.539,2.98,19.077,13.674,23.382
			c5.726,2.305,12.135,3.339,18.633,3.787c0.277,3.715,0.75,7.755,0.815,11.606C402.285,497.096,394.175,495.404,389.373,495.47z
			 M471.237,241.63c-6.25,0.185-12.534,0.754-18.7,0.851c-2.788,0.044-2.793,4.29,0,4.334c6.12,0.096,12.356,0.657,18.56,0.846
			c-0.059,2.431-0.096,4.868-0.169,7.295c-0.125,4.141-0.206,8.28-0.271,12.418c-6.059,0.202-12.145,0.735-18.12,0.829
			c-2.788,0.044-2.793,4.29,0,4.334c5.949,0.093,12.007,0.622,18.039,0.826c-0.066,6.581-0.073,13.16-0.045,19.738
			c-6.017,0.205-12.06,0.731-17.994,0.825c-2.788,0.044-2.793,4.29,0,4.334c5.947,0.093,12.002,0.622,18.032,0.826
			c0.047,6.578,0.117,13.154,0.193,19.729c-6.094,0.199-12.215,0.739-18.225,0.833c-2.788,0.044-2.793,4.29,0,4.334
			c6.032,0.094,12.177,0.639,18.293,0.836c0.075,6.571,0.142,13.141,0.181,19.71c-6.176,0.192-12.382,0.747-18.474,0.843
			c-2.788,0.044-2.793,4.29,0,4.334c6.101,0.096,12.316,0.652,18.501,0.844c0.018,6.568-0.004,13.136-0.087,19.704
			c-6.156,0.194-12.342,0.745-18.414,0.84c-2.788,0.044-2.793,4.29,0,4.334c6.039,0.095,12.19,0.64,18.313,0.837
			c-0.123,6.578-0.322,13.158-0.613,19.738c-5.92,0.212-11.863,0.722-17.7,0.814c-2.788,0.044-2.793,4.29,0,4.334
			c5.746,0.09,11.594,0.585,17.422,0.803c-0.157,2.947-0.328,5.894-0.528,8.841c-0.25,3.669-0.57,7.333-0.918,10.995
			c-5.348,0.239-10.706,0.666-15.976,0.749c-2.788,0.044-2.793,4.29,0,4.334c5.081,0.08,10.241,0.484,15.397,0.727
			c-0.744,7.232-1.554,14.458-2.232,21.69c-0.459,4.893,0.376,15.341-2.894,19.298c-3.046,3.685-11.962,3.688-16.076,4.225
			c-12.068,1.573-23.777,1.202-35.837,0.762c-6.678-0.243-18.009,0.208-23.13-5.199c-5.271-5.565-3.571-20.291-3.182-27.244
			c1.427-25.457,4.163-50.761,4.764-76.274c0.606-25.738,0.485-51.423,1.687-77.125c1.506-32.214,0.654-64.895-0.742-97.081
			c-1.113-25.648,0.512-51.292-1.179-76.888c17.416,0.266,34.814,0.778,52.244,0.269c8.249-0.241,16.678-0.118,25.112-0.113
			c0.847,8.277,1.539,16.592,2.161,24.922c-5.386,0.238-10.782,0.67-16.091,0.753c-2.788,0.044-2.793,4.29,0,4.334
			c5.45,0.085,10.991,0.536,16.52,0.77c0.452,6.593,0.849,13.194,1.169,19.806c-5.916,0.212-11.855,0.721-17.689,0.813
			c-2.788,0.044-2.793,4.29,0,4.334c5.921,0.093,11.948,0.617,17.952,0.823c0.28,6.569,0.491,13.142,0.649,19.718
			c-6.218,0.188-12.468,0.751-18.601,0.847c-2.788,0.044-2.793,4.29,0,4.334c6.177,0.097,12.471,0.668,18.731,0.852
			c0.122,6.561,0.195,13.121,0.205,19.677c-6.328,0.177-12.692,0.762-18.936,0.86c-2.788,0.044-2.793,4.29,0,4.334
			c6.245,0.098,12.609,0.683,18.938,0.86C471.451,228.521,471.366,235.079,471.237,241.63z M495.351,101.612
			c-5.598,2.694-18.853,1.299-25.245,1.587c-9.553,0.431-19.181,0.023-28.751,0.306c-19.419,0.576-38.76-0.104-58.177-0.299
			c-8.424-0.085-18.091,1.388-26.385-0.027c-7.621-1.3-8.038-2.6-8.485-9.976c-0.265-4.383-0.556-8.163-0.383-12.558
			c0.209-5.302-0.936-12.741,5.58-15.456c2.434-1.014,7.371-0.209,9.885-0.115c8.014,0.3,15.815,0.765,23.854,0.84
			c37.387,0.349,74.227,1.784,111.587-0.376c0.496,1.741,0.191,4.798,0.374,6.119C500.374,80.054,505.685,96.639,495.351,101.612z"
			/>
	</g>
</g>
<g>
</g>
<g>
</g>
<g>
</g>
<g>
</g>
<g>
</g>
<g>
</g>
<g>
</g>
<g>
</g>
<g>
</g>
<g>
</g>
<g>
</g>
<g>
</g>
<g>
</g>
<g>
</g>
<g>
</g>
</svg>
