<?xml version="1.0" encoding="iso-8859-1"?>
<!-- Generator: Adobe Illustrator 19.0.0, SVG Export Plug-In . SVG Version: 6.00 Build 0)  -->
<svg version="1.1" id="Capa_1" xmlns="http://www.w3.org/2000/svg" xmlns:xlink="http://www.w3.org/1999/xlink" x="0px" y="0px"
	 viewBox="0 0 512 512" style="enable-background:new 0 0 512 512;" xml:space="preserve">
<g>
	<g>
		<path d="M489.273,52.435c-5.211-13.441-12.054-27.296-25.156-34.246C432.711,1.529,394.925,1.646,360.332,3.194
			c-38.356,1.716-76.467,2.128-114.924,1.051c-31.435-0.88-62.856-5.122-94.319-4.082c-24.08,0.796-52.202,1.207-75.014,9.936
			c-22.3,8.533-31.438,28.732-35.741,50.927c-5.679,29.292-4.901,59.665-8.214,89.296c-7.297,65.264-11.235,130.441-14.047,196.035
			c-1.402,32.716-0.991,65.431-1.311,98.162c-0.116,11.896-2.616,27.724,2.217,38.951c3.641,8.459,15.634,12.152,23.903,13.733
			c28.665,5.482,60.077,7.185,89.212,7.894c30.231,0.735,60.504,1.309,90.689,3.078c30.314,1.776,60.552,3.871,90.94,3.824
			c14.317-0.022,28.586-0.715,42.884-1.374c12.292-0.567,29.356,0.913,40.542-5.397c8.28-4.671,9.953-15.2,10.978-23.693
			c1.732-14.35,1.863-29.19,1.951-43.638c0.17-27.961-0.974-56.061-2.727-83.971c-4.12-65.603-3.27-131.31-3.27-197.008
			c26.299,0.742,61.461,5.607,78.398-17.948C499.028,115.956,499.219,78.089,489.273,52.435z M398.992,49.444
			c-5.51,16.742-5.436,34.702-5.97,52.125c-0.147,4.812-0.295,9.624-0.421,14.437c-1.174,44.821-0.372,89.741-0.372,134.575
			c-1.291,63.314,6.333,126.197,5.732,189.447c-0.074,7.829-0.461,15.644-0.789,23.465c-0.32,7.607,0.602,17.084-2.262,24.181
			c-5.921,14.67-32.965,10.577-46.789,11.199c-32.084,1.443-64.343,1.358-96.402-0.795c-64.703-4.345-129.415-4.37-193.967-11.127
			c-7.247-0.759-18.981-0.658-24.959-6.106c-6.291-5.733-4.257-18.981-4.226-26.622c0.075-18.769,0.096-37.542,0.222-56.311
			c0.235-35.16,2.529-70.163,3.669-105.287c2.197-67.76,10.935-135.067,16.053-202.635c1.41-18.606,3.174-38.339,13.585-54.406
			c9.274-14.314,26.13-17.337,41.869-19.321c36.482-4.599,71.562-3.733,108.201-2.106c36.513,1.622,72.933-0.55,109.356,1.149
			c29.749,1.388,59.651,0.352,89.462-0.112c4.489-0.07,10.343,0.91,14.499,2.293c-2.831-0.942-14.494,10.833-16.39,12.982
			C404.24,35.963,401.269,42.527,398.992,49.444z M476.554,127.836c-12.923,23.969-47.987,18.871-72.473,18.009
			c-0.001-0.29,0.001-0.58,0-0.87c-0.008-4.347-0.023-9.46,0.109-14.964c-0.046,1.937,33.66,1.031,35.952,0.703
			c14.403-2.065,22.259-9.513,28.013-22.393c7.813-17.486,12.488-47.598-9.065-57.602c-21.149-9.816-45.403,4.007-55.279,22.953
			c-0.117,0.225-0.216,0.458-0.331,0.684c1.289-7.842,3.51-16.334,5.891-23.61c3.123-9.545,8.06-17.68,17.413-22.288
			c22.05-10.861,38.508-0.271,48.788,20.124C486.935,71.12,488.793,105.136,476.554,127.836z M442.798,105.714
			c2.688-1.509,6.339-2.622,7.861-4.161c3.677-3.718,4.636-9.271,3.85-14.267c-0.712-4.53-1.402-8.823-6.237-10.529
			c-9.736-3.435-22.987,0.556-33.173,0.347c5.463-11.021,17.995-18.107,30.255-17.107c3.611,0.295,7.256,1.271,10.166,3.43
			c14.383,10.668,3.348,35.486-3.576,47.326c-1.436,2.456-3.542,5.127-6.383,4.976c-1.149-0.061-2.225-0.605-3.148-1.293
			c-1.621-1.208-2.932-3.084-2.785-5.101C439.74,107.817,441.07,106.684,442.798,105.714z M437.663,99.05
			c0.195-6.167,2.342-11.914,8.154-9.95c0.193,0.065,0.371,0.086,0.557,0.13c0.008,0.26,0.017,0.532,0.022,0.746
			C446.519,96.009,441.662,97.152,437.663,99.05z M427.431,87.011c0.595-0.102,1.204-0.203,1.818-0.307
			c-3.934,9.245-2.984,23.281,0.565,31.517c0.497,1.153,1.102,2.2,1.756,3.192c-2.033,0.1-4.144,0.197-6.4,0.172
			c-6.888-0.077-13.995-0.386-20.708,1.077c0.601-11.82,2.121-24.696,5.966-35.702C415.915,87.863,421.991,87.945,427.431,87.011z"
			/>
	</g>
</g>
<g>
	<g>
		<path d="M93.143,242.14c0.83-18.509,2.972-37.97,2.224-56.436c-0.556-13.758-11.951-20.066-25.672-18.862
			c-15.076,1.323-12.326,25.254-12.568,35.961c-0.137,6.06-0.519,12.124-0.982,18.19c-0.605,6.354-1.212,12.708-1.805,19.063
			c-2.207,23.663-1.028,47.602-1.057,71.343c-0.012,10.302-1.175,20.377-0.193,30.645c0.488,5.098,0.92,13.941,4.497,17.782
			c3.431,3.684,7.781,2.586,12.565,2.594c6.304,0.011,15.18,1.518,18.996-4.598c3.323-5.325,1.878-13.893,1.633-19.749
			c-0.47-11.227-0.243-22.308,0.157-33.533C91.679,283.739,92.21,262.931,93.143,242.14z M60.318,302.518
			c5.025,0.875,10.282,0.147,15.346,0.745c3.141,0.37,5.42,0.765,7.752,0.094c-0.414,7.621-0.736,15.294-0.695,22.946
			c-4.018,0.013-8.057,0.106-12.071,0.182c-3.734,0.071-7.147-0.304-10.741,0.007c0.121-6.473,0.504-12.975,0.425-19.461
			C60.315,305.525,60.33,304.023,60.318,302.518z M83.488,347.343c-1.924,6.929-9.103,9.61-15.951,7.303
			c-8.283-2.79-7.239-12.124-7.565-19.342c-0.041-0.91-0.023-1.825-0.041-2.737c4.4,0.759,8.851,1.138,13.314,1.153
			c3.235,0.01,6.572,0.499,9.637-0.038C83.059,337.65,84.562,343.476,83.488,347.343z M81.364,296.652
			c-2.061-0.206-21.066-1.746-21.066-0.087c-0.016-8.603,0.032-17.199,0.174-25.788c3.979,1.177,8.415,1.079,12.507,1.126
			c3.856,0.044,7.646,0.259,11.474-0.309C81.98,274.967,88.17,297.333,81.364,296.652z M85.342,244.435
			c-0.218,6.655-0.384,13.308-0.549,19.96c-7.606,0.173-16.91-0.637-24.228,1.638c0.167-8.716,0.374-17.429,0.619-26.14
			c0.061-0.885,0.105-1.768,0.165-2.654c3.35,0.176,6.631-0.393,10.124,0.037c4.693,0.577,9.599,0.312,14.25-0.558
			C85.576,239.301,85.425,241.885,85.342,244.435z M86.101,230.38c-5.359-0.768-10.908-0.004-16.339-0.426
			c-2.836-0.22-5.388,0.213-8.009,0.757c0.361-5.721,0.73-11.447,1.065-17.148c0.247-4.206,0.352-8.519,0.522-12.835
			c3.536,0.842,7.775,0.708,10.88,0.79c3.99,0.106,9.288,0.984,13.572,0.415C87.523,211.363,86.737,220.923,86.101,230.38z
			 M76.224,194.468c-4.313,0.031-8.422-0.593-12.556-0.074c0.241-3.566,0.599-7.102,1.207-10.547
			c1.186-6.718,1.087-9.255,11.634-8.697c9.088,0.481,10.993,6.232,11.289,14.486c0.064,1.805,0.077,3.627,0.083,5.449
			C84.119,194.185,80.088,194.44,76.224,194.468z"/>
	</g>
</g>
<g>
	<g>
		<path d="M371.552,242.14c0.83-18.509,2.972-37.97,2.224-56.436c-0.556-13.758-11.952-20.066-25.673-18.862
			c-15.076,1.323-12.325,25.254-12.567,35.961c-0.137,6.06-0.519,12.124-0.983,18.19c-0.605,6.354-1.212,12.708-1.804,19.063
			c-2.207,23.663-1.028,47.602-1.057,71.343c-0.012,10.302-1.175,20.377-0.194,30.645c0.488,5.098,0.921,13.941,4.498,17.782
			c3.431,3.684,7.781,2.586,12.565,2.594c6.305,0.011,15.18,1.518,18.996-4.598c3.323-5.325,1.878-13.893,1.633-19.749
			c-0.47-11.227-0.243-22.308,0.157-33.533C370.088,283.739,370.619,262.931,371.552,242.14z M338.727,302.518
			c5.025,0.875,10.282,0.147,15.346,0.745c3.141,0.37,5.42,0.765,7.751,0.094c-0.414,7.621-0.736,15.294-0.695,22.946
			c-4.018,0.013-8.057,0.106-12.071,0.182c-3.734,0.071-7.147-0.304-10.741,0.007c0.12-6.473,0.504-12.975,0.425-19.461
			C338.724,305.525,338.738,304.023,338.727,302.518z M361.896,347.343c-1.924,6.929-9.103,9.61-15.951,7.303
			c-8.283-2.79-7.239-12.124-7.565-19.342c-0.041-0.91-0.023-1.825-0.041-2.737c4.4,0.759,8.851,1.138,13.315,1.153
			c3.235,0.01,6.572,0.499,9.637-0.038C361.467,337.65,362.97,343.476,361.896,347.343z M359.773,296.652
			c-2.061-0.206-21.066-1.746-21.066-0.087c-0.016-8.603,0.032-17.199,0.174-25.788c3.979,1.177,8.415,1.079,12.507,1.126
			c3.856,0.044,7.646,0.259,11.473-0.309C360.388,274.967,366.578,297.333,359.773,296.652z M363.75,244.435
			c-0.218,6.655-0.384,13.308-0.549,19.96c-7.606,0.173-16.91-0.637-24.228,1.638c0.167-8.716,0.374-17.429,0.619-26.14
			c0.061-0.885,0.105-1.768,0.165-2.654c3.35,0.176,6.631-0.393,10.124,0.037c4.693,0.577,9.599,0.312,14.25-0.558
			C363.984,239.301,363.833,241.885,363.75,244.435z M364.509,230.38c-5.359-0.768-10.908-0.004-16.339-0.426
			c-2.836-0.22-5.389,0.213-8.009,0.757c0.36-5.721,0.73-11.447,1.065-17.148c0.247-4.206,0.352-8.519,0.522-12.835
			c3.536,0.842,7.775,0.708,10.88,0.79c3.99,0.106,9.288,0.984,13.572,0.415C365.931,211.363,365.146,220.923,364.509,230.38z
			 M354.632,194.468c-4.313,0.031-8.422-0.593-12.556-0.074c0.241-3.566,0.599-7.102,1.207-10.547
			c1.186-6.718,1.087-9.255,11.634-8.697c9.089,0.481,10.993,6.232,11.289,14.486c0.065,1.805,0.077,3.627,0.083,5.449
			C362.527,194.185,358.497,194.44,354.632,194.468z"/>
	</g>
</g>
<g>
	<g>
		<path d="M269.071,110.265c-0.866-4.64-13.085-3.961-13.08-3.378c-0.072-8.055-2.373-15.929-7.176-21.861
			c-4.65-5.743-12.855-10.488-20.182-11.538c-0.087-0.012-0.171-0.008-0.258-0.019c-1.932-0.252,5.193-20.356-3.283-15.601
			c-4.541,2.548-3.467,11.644-3.642,15.888c-1.169,0.242-2.323,0.541-3.443,0.954c-15.756,1.915-26.062,16.432-28.292,31.92
			c0.044-0.309-13.576-0.889-15.122,0.205c-9.134,6.464,12.279,6.945,14.681,7.014c0.038,1.683,0.139,3.36,0.381,5.01
			c2.215,15.097,16.421,24.569,31.012,25.442c0.006,4.108-0.92,13.35,2.434,16.381c0.347,0.314,0.77,0.584,1.238,0.602
			c0.869,0.033,1.516-0.775,1.946-1.531c2.776-4.887,1.246-10.302,1.201-15.693c3.181-0.42,6.301-1.234,9.219-2.574
			c10.236-4.7,16.618-15.252,18.613-26.601C258.917,114.957,270.349,117.108,269.071,110.265z M220.751,136.925
			c-12.43-0.625-23.427-9.826-24.186-22.874c8.25,0.188,16.5,0.282,24.746,0.29C221.253,121.81,220.917,129.368,220.751,136.925z
			 M221.334,106.997c-0.229-0.005-0.459-0.003-0.689-0.009c-7.919-0.179-15.817-0.21-23.728-0.281
			c1.572-10.424,7.515-17.494,15.56-23.192c2.901-1.089,5.887-1.826,8.865-2.132C221.372,89.921,221.344,98.459,221.334,106.997z
			 M230.379,135.675c-0.947,0.306-1.899,0.546-2.852,0.742c0.148-7.363,0.514-14.746,0.706-22.036
			c6.449,0.04,12.931,0.184,19.426,0.338C245.525,124.191,239.465,132.741,230.379,135.675z M228.344,107.085
			c0.002-0.335,0.014-0.675,0.013-1.009c-0.002-8.176-0.026-16.354-0.015-24.53c4.645,0.731,9.087,2.781,12.95,6.602
			c4.9,4.847,7.165,11.743,7.199,18.82C241.769,107.047,235.051,107.122,228.344,107.085z"/>
	</g>
</g>
<g>
	<g>
		<path d="M260.168,432.402c-0.866-4.641-13.085-3.963-13.08-3.38c-0.072-8.055-2.373-15.929-7.176-21.861
			c-4.65-5.743-12.855-10.488-20.182-11.538c-0.087-0.012-0.171-0.008-0.258-0.019c-1.932-0.252,5.193-20.356-3.283-15.601
			c-4.541,2.548-3.468,11.644-3.642,15.888c-1.169,0.242-2.323,0.541-3.443,0.954c-15.756,1.915-26.062,16.432-28.292,31.92
			c0.044-0.309-13.577-0.889-15.123,0.205c-9.132,6.465,12.28,6.946,14.682,7.016c0.038,1.683,0.139,3.36,0.381,5.01
			c2.215,15.097,16.421,24.569,31.012,25.442c0.006,4.108-0.92,13.35,2.434,16.381c0.348,0.314,0.77,0.584,1.238,0.602
			c0.869,0.033,1.516-0.775,1.946-1.531c2.776-4.886,1.245-10.302,1.201-15.693c3.181-0.42,6.301-1.234,9.219-2.574
			c10.236-4.7,16.618-15.252,18.613-26.601C250.014,437.094,261.446,439.246,260.168,432.402z M211.849,459.061
			c-12.43-0.625-23.427-9.826-24.186-22.874c8.25,0.188,16.5,0.283,24.746,0.29C212.35,443.946,212.014,451.504,211.849,459.061z
			 M212.432,429.133c-0.229-0.005-0.459-0.003-0.689-0.009c-7.919-0.179-15.817-0.21-23.728-0.281
			c1.572-10.424,7.514-17.494,15.559-23.192c2.901-1.089,5.887-1.827,8.865-2.132C212.47,412.057,212.442,420.595,212.432,429.133z
			 M221.476,457.811c-0.947,0.306-1.899,0.546-2.851,0.742c0.148-7.363,0.513-14.746,0.706-22.037
			c6.449,0.04,12.93,0.184,19.426,0.338C236.622,446.328,230.562,454.878,221.476,457.811z M219.442,429.22
			c0.002-0.335,0.014-0.675,0.013-1.01c-0.002-8.176-0.026-16.353-0.015-24.53c4.644,0.732,9.086,2.783,12.949,6.603
			c4.9,4.847,7.166,11.743,7.199,18.82C232.866,429.182,226.148,429.258,219.442,429.22z"/>
	</g>
</g>
<g>
	<g>
		<path d="M318.744,209.063c-0.332-7.343,1.085-20.357-7.335-24.172c-4.446-2.014-10.58-0.522-15.213-0.285
			c-7.297,0.373-14.608,0.657-21.911,0.864c-15.518,0.439-31.116,0.332-46.62,0.972c-34.357,1.419-68.252,0.232-102.515-2.44
			c-6.292-0.491-13.114-1.284-14.532,6.397c-0.547,2.963-0.415,6.356-0.236,9.713c-2.701,26.29-1.962,52.798-2.548,79.21
			c-0.313,14.092-1.018,28.189-0.84,42.286c0.161,12.822-1.016,27.622,1.68,40.209c1.671,7.799,5.797,9.317,13.331,10.271
			c16.225,2.054,33.343,2.609,49.689,2.591c33.043-0.037,66.066-3.736,99.092-3.554c10.079,0.055,24.717,2.519,34.28-1.536
			c8.143-3.453,9.068-13.383,9.968-21.05c3.651-31.1,4.999-63.261,4.878-94.548C319.854,238.932,319.427,224.093,318.744,209.063z
			 M242.206,276.162c2.928,5.972,10.17,7.837,13.235,14.281c2.251,4.734,1.742,9.502,2.322,14.308
			c-0.901-0.186-1.807-0.329-2.702-0.549c-15.217-3.74-29.99-14.985-43.209-25.911c8.101-4.396,16.05-9.525,23.799-14.416
			c5.174-3.265,8.809-6.27,12.862-6.944C244.012,262.411,239.065,269.756,242.206,276.162z M216.18,289.522
			c7.931,6.031,15.666,12.157,24.227,16.624c-13.839-0.162-27.703-0.805-41.506-0.497c-14.799,0.33-29.597,1.551-44.389,2.697
			c5.133-6.503,13.256-13.011,12.193-20.695c-0.668-4.833-4.412-6.249-7.328-9.464c-8.33-9.186,0.876-17.208,6.444-25.644
			c10.611,0.741,19.511,13.096,27.31,19.464C200.597,278.103,208.513,283.692,216.18,289.522z M150.996,278.805
			c2.326,2.68,5.706,3.481,7.935,6.446c4.464,5.94-0.453,8.8-4.454,14.153c-2.273,3.041-4.91,6.126-6.877,9.469
			c-11.004,0.817-22.005,1.51-32.999,1.672c0.101-9.17,0.437-18.34,0.648-27.512c6.019-2.457,11.73-7.797,17.009-11.067
			c8.599-5.326,17.91-14.926,27.298-18.488C152.045,260.497,144.483,271.299,150.996,278.805z M309.247,316.534
			c-0.802,11.603,0.92,26.538-2.929,37.595c-4.573,13.138-26.44,9.13-37.888,9.126c-25.878-0.009-51.894,2.083-77.768,2.927
			c-12.677,0.413-25.12,0.578-37.796-0.051c-12.205-0.605-34.084,3.265-37.08-11.819c-2.245-11.302-1.57-24.748-1.303-36.724
			c27.985,0.264,56.379-4.37,84.419-5.066c17.034-0.423,34.086,1.23,51.146,0.578c5.166-0.198,10.362-0.061,15.558,0.105
			c14.205,1.719,29.556,2.698,43.744,1.665C309.311,315.425,309.285,315.977,309.247,316.534z M309.8,307.531
			c-10.039-0.719-20.257-0.327-30.394-0.568c-4.04-0.356-8.101-0.588-12.137-0.717c-1.058-0.109-2.107-0.278-3.164-0.443
			c-1.744-7.811-1.07-15.367-6.076-22.233c-4.265-5.849-10.765-8.004-9.385-17.2c0.438-2.917,3.165-6.048,4.927-9.028
			c1.644,0.517,3.427,1.405,5.448,2.793c9.087,6.239,18.222,12.393,27.27,18.699c4.28,2.983,9.054,5.18,13.414,8.04
			c3.141,2.06,7.492,3.942,9.585,7.213C310.274,295.63,310.416,307.575,309.8,307.531z M310.887,286.991
			c-5.386-5.419-13.73-9.359-19.732-13.446c-11.279-7.681-23.518-19.186-36.166-24.313c-6.951-2.818-11.928,1.787-17.715,5.569
			c-9.795,6.403-20.673,12.215-29.192,20.358c-3.42-2.859-6.727-5.646-9.892-8.209c-10.221-8.277-23.591-28.962-38.36-21.75
			c-10.458,5.107-19.417,13.523-29.183,19.777c-5.356,3.43-10.332,7.309-15.277,11.221c0.006-0.477,0.021-0.954,0.025-1.431
			c0-23.638-0.754-47.267-0.591-70.936c0.027-3.844,0.523-8.478,3.979-10.159c1.564-0.761,3.386-0.69,5.123-0.603
			c12.219,0.611,24.542,0.596,36.656,1.193c14.03,0.692,28.081,1.063,42.128,0.867c24.652-0.342,49.281-1.135,73.923-1.849
			c5.979-0.173,11.961-0.453,17.936-0.736c7.945-0.376,13.729,0.638,16.118,9.096c1.281,4.537,0.418,10.942,0.745,15.714
			c0.507,7.403,0.625,14.7,0.621,22.124C312.025,255.424,311.606,271.195,310.887,286.991z"/>
	</g>
</g>
<g>
	<g>
		<path d="M222.196,207.238c-9.617-3.691-18.925,0.442-23.46,8.561c-5.025,5.439-6.871,13.264-1.644,19.909
			c7.339,9.327,23.571,9.537,31.265,0.583C236.49,226.827,234.196,211.843,222.196,207.238z M224.866,229.995
			c-4.069,7.548-15.071,9.235-21.819,4.126c-9.595-7.265,0.019-19.107,8.639-21.529C222.31,209.607,229.777,220.885,224.866,229.995
			z"/>
	</g>
</g>
<g>
</g>
<g>
</g>
<g>
</g>
<g>
</g>
<g>
</g>
<g>
</g>
<g>
</g>
<g>
</g>
<g>
</g>
<g>
</g>
<g>
</g>
<g>
</g>
<g>
</g>
<g>
</g>
<g>
</g>
</svg>
