<?xml version="1.0" encoding="iso-8859-1"?>
<!-- Generator: Adobe Illustrator 19.0.0, SVG Export Plug-In . SVG Version: 6.00 Build 0)  -->
<svg version="1.1" id="Capa_1" xmlns="http://www.w3.org/2000/svg" xmlns:xlink="http://www.w3.org/1999/xlink" x="0px" y="0px"
	 viewBox="0 0 512.001 512.001" style="enable-background:new 0 0 512.001 512.001;" xml:space="preserve">
<g>
	<g>
		<path d="M494.341,178.114c-8.281-9.27-20.73-15.095-32.553-18.281c-7.958-2.145-16.375-5.37-24.7-5.056
			c1.916-10.2,1.026-20.42-6.039-26.346c-8.038-6.743-21.397-8.277-31.408-8.393c-1.877-0.022-3.804-0.065-5.753-0.099
			c-12.538-0.848-25.488,0.259-36.8,1.878c-20.023,2.864-35.845,15.753-54.857,20.822c-0.079-0.338-0.194-0.681-0.358-1.028
			c-0.596-1.257-0.892-8.212-0.924-9.376c-0.518-5.279,1.523-9.81,6.122-13.592c1.752-0.335,3.502-0.678,5.249-1.029
			c5.085-1.471,9.505-4.239,12.734-8.473c8.597-11.275,7.214-28.532,6.415-41.715c-0.838-13.804-1.677-22.922-17.276-26.211
			c-15.967-3.367-34.184-2.339-50.418-2.158c-11.37,0.127-28.636-0.367-33.836,12.245c-2.372,5.755-1.283,11.522-0.785,17.473
			c0.714,8.529,0.874,16.754,2.29,25.243c1.135,6.805,2.382,16.339,7.733,21.425c4.605,4.375,10.792,4.127,16.686,4.878
			c8.457,1.078,16.953,1.512,16.778,11.956c-0.029,1.727-1.043,9.369-0.509,12.932c-14.373-0.055-28.7-0.933-43.097,0.039
			c-4.663,0.315-9.361,1.528-13.248,4.206c-3.55,2.446-5.977,9.852-9.318,11.091c-1.341,0.497-2.823,0.342-4.244,0.179
			c-10.761-1.23-23.647,0.707-33.163-5.429c-6.078-3.919-11.026-10.411-16.668-15.059c-6.54-5.386-13.356-10.443-20.491-15.016
			c-17.237-11.047-35.619-21.206-53.359-31.469c-11.857-6.86-22.446-15.31-33.415-3.441c-11.562,12.509-23.293,25.263-31.229,40.525
			c-17.484,33.624-18.192,76.974-3.715,111.732c2.658,6.381,6.691,11.759,11.127,17.01c4.032,4.773,11.012,15.607,17.359,17.506
			c5.063,1.515,11.674-2.694,16.04-4.886c9.235-4.637,18.931-8.584,27.705-14.085c18.567-11.641,37.455-22.88,55.416-35.452
			c9.727-6.808,19.532-13.535,28.843-20.91c5.066-4.013,9.729-10.103,15.56-13.607c7.332-4.405,13.827-2.577,21.829-3.273
			c3.13,13.966,23.028,15.533,35.391,16.554c23.443,1.935,46.905,2.65,70.381,3.342c22.46,0.662,46.18,1.212,68.497-1.522
			c10.094-1.237,21.337-3.669,31.03-8.491c21.25-0.232,44.639,6.009,51.19,28.165c9.193,31.093-26.22,48.562-50.122,54.417
			c-28.008,6.86-57.528,5.37-86.141,5.298c-27.744-0.069-55.825-0.235-83.494,1.66c-56.225,3.852-112.448,3.987-165.87,24.277
			c-30.399,11.542-85.792,52.329-55.306,89.74c13.423,16.473,38.063,21.526,58.012,23.923c12.186,1.464,24.504,0.758,36.731,1.465
			c6.956,0.402,13.365-1.692,20.153-1.507c4.611,0.126,4.392,2.426,7.302,4.877c2.772,2.336,7.117,3.009,10.598,3.298
			c7.156,0.592,17.377-0.4,24.512-3.868c-0.226,2.584-0.482,5.173-0.79,7.779c-0.759,6.421,0.427,10.42,5.479,14.553
			c2.556,2.092,5.306,3.456,8.184,4.405c-2.025,4.829-3.817,10.816-0.572,15.091c3.214,4.234,9.49,4.253,14.258,4.422
			c8.53,0.301,18.438,1.45,26.688-1.398c7.402-2.556,9.158-7.402,9.465-14.382c0.148-0.004,0.292-0.006,0.44-0.01
			c23.227-0.58,45.938,0.277,69.127-1.873c0.773-0.072,1.57-0.13,2.361-0.192c-0.757,1.689-0.785,7.694-0.234,9.116
			c0.885,2.289,2.592,3.996,4.701,5.154c7.208,3.957,18.835,3.237,26.604,2.811c6.198-0.34,13.234-0.055,17.454-5.473
			c3.393-4.355,4.666-11.598,3.399-17.5c2.734-0.884,5.374-1.918,7.86-3.177c15.389-7.788,17.441-31.686,17.535-47.034
			c0.111-17.99,0.804-42.205-12.977-55.708c-11.307-11.077-29.433-11.45-44.387-11.396c-22.493,0.082-45.188,0.533-67.628,1.904
			c-23.111,1.412-47.833-0.373-70.47,5.586c-8.313,2.189-16.145,6.499-19.689,14.709c-1.767,4.095-2.136,8.105-1.861,12.12
			c-3.199-1.303-6.955-1.744-11.362-0.982c-8.985,1.554-17.42,5.155-20.123,14.335c-0.184,0.622-0.34,1.287-0.488,1.957
			c-1.014-0.352-2.126-0.6-3.368-0.696c-11.439-0.889-23.498,3.406-34.983,3.772c-14.954,0.477-35.322-5.96-27.539-24.953
			c10.284-25.094,44.855-29.909,68.283-30.316c27.179-0.472,54.37-3.724,81.533-4.891c52.587-2.26,104.95-3.473,157.411-8.266
			c48.755-4.454,111.018-20.114,127.292-72.989C516.014,218.66,511.44,197.253,494.341,178.114z M142.896,209.559
			c-11.406,8.944-23.138,17.387-35.721,24.644c-13.226,7.627-25.541,17.166-39.291,23.79c-6.929,3.338-18.938,11.63-26.221,10.224
			c-6.99-1.349-13.286-10.85-17.643-16.35c-21.8-27.517-20.245-72.433-9.698-103.954c5.126-15.321,14.487-27.561,24.42-40.007
			c2.807-3.518,6.041-6.452,9.089-9.75c3.643-3.941,3.152-4.667,9.492-4.924c8.892-0.361,17.279,6.343,24.822,10.916
			c15.216,9.226,31.233,17.613,46.159,27.233c14.693,9.469,27.467,21.762,41.319,32.339c-0.044,0.509-0.062,1.05-0.018,1.663
			c0.387,5.428,0.341,16.151,5.571,19.653C165.183,194.211,153.534,201.218,142.896,209.559z M204.001,177.464
			c-0.07,0.003-0.14,0.006-0.211,0.009c-7.221,0.324-14.445,0.609-21.659,1.06c-0.833,0.051-1.71,0.093-2.458-0.277
			c-1.211-0.598-1.692-2.053-1.979-3.373c-0.634-2.926-0.89-5.934-0.761-8.925c6.581-0.132,14.344-1.068,20.819,0.235
			C206.105,167.875,204.443,168.495,204.001,177.464z M204.893,464.212c-1.842,0.025-4.87,0.743-6.578,0.03
			c-3.506-1.461-3.207-5.872-3.311-9.72c3.309,0.617,6.724,0.96,10.176,1.398c8.436,1.072,16.65,1.286,24.997,1.216
			C228.66,466.996,212.741,464.106,204.893,464.212z M353.723,456.536c-1.758,7.038-7.773,6.34-13.583,6.742
			c-5.011,0.347-10.975,0.839-15.9-0.47c-5.932-1.577-6.042-4.33-6.727-8.311c3.847-0.212,7.833-0.382,11.865-0.589
			c0.798,0.359,1.749,0.337,2.578-0.139c7.491-0.422,15.096-1.045,22.297-2.434C354.212,453.004,354.177,454.712,353.723,456.536z
			 M357.802,344.175c20.028,5.638,19.766,26.412,20.525,43.766c0.71,16.214,2.149,45.215-17.119,50.798
			c-7.29,2.112-14.978,3.212-22.764,3.915c6.591-15.985,7.857-36.714,7.25-52.451c-0.444-11.505-2.718-22.727-6.209-33.674
			c-1.494-4.685-3.099-10.717-5.904-15.502C341.919,341.219,350.198,342.034,357.802,344.175z M183.308,356.141
			c5.546-8.377,18.896-9.09,27.891-9.926c16.188-1.505,32.254-1.854,48.458-2.575c16.293-0.724,32.554-1.259,48.852-1.997
			c6.072-0.275,12.491-0.601,18.966-0.656c3.715,6.16,5.415,14.757,7.178,21.214c3.027,11.075,4.772,22.56,4.358,34.061
			c-0.353,9.79-1.883,19.767-3.567,29.399c-1.08,6.186-3.489,11.832-5.473,17.628c-7.716,0.486-15.423,0.797-22.838,1.513
			c-16.027,1.548-31.548,1.846-47.617,1.455c-20.293-0.494-40.699,2.395-60.797-1.599c-3.496-0.695-8.205-1.32-10.802-4.052
			c-2.872-3.022-1.867-8.859-1.59-12.777c0.385-5.458,0.771-10.916,1.156-16.374c0.239-3.368,0.476-6.741,0.444-10.117
			c-0.071-7.272-1.409-14.53-3.937-21.349C181.229,372.545,178.45,363.481,183.308,356.141z M148.128,413.817
			c0.955-6.642,0.938-12.953,0.517-19.644c-0.533-8.462,1.674-16.383,10.523-18.926c7.445-2.139,12.32,0.634,15.316,5.588
			c0.158,0.572,0.42,1.034,0.764,1.384c2.642,5.283,3.489,12.472,3.216,18.908c-0.061,0.213-0.131,0.419-0.141,0.669
			c-0.037,0.938-0.079,1.86-0.116,2.793c-0.279,2.548-0.733,4.876-1.315,6.788c-2.501,8.218-10.202,7.488-17.825,8.452
			C152.078,420.712,146.964,421.922,148.128,413.817z M238.833,69.307c-0.751-7.11-2.497-14.585,5.311-18.473
			c6.802-3.387,17.988-2.102,25.477-2.146c13.78-0.081,30.069-1.159,43.528,2.104c9.402,2.279,8.901,8.755,8.95,16.053
			c-7.702,8.163-20.165,7.599-29.109,2.559c-8.632-4.864-16.745-8.021-26.809-7.967C259.371,61.474,246.267,63.563,238.833,69.307z
			 M259.38,111.374c-2.717-0.369-5.876-0.234-8.533-1.04c-6.727-2.039-7.795-6.499-9.218-12.989
			c-1.582-7.213-2.018-14.471-2.393-21.78c6.562-6.676,21.54-8.319,28.788-7.981c12.225,0.57,19.559,8.439,30.451,11.896
			c5.789,1.837,17.291,0.639,23.949-3.912c0.073,5.315-0.361,10.439-1.408,15.891c-1.937,10.085-5.108,14.239-15.202,17.616
			c-4.376,1.464-7.77,2.486-10.395,6.559c-4.495,6.974-4.992,20.49-2.156,28.71c-0.389,0.043-0.766,0.115-1.158,0.151
			c-4.045,0.366-8.081,0.533-12.112,0.629c2.243-6.885,3.767-15.935,1.864-21.598C278.873,114.648,267.391,112.462,259.38,111.374z
			 M410.495,182.012c-14.117,9.65-33.013,11.464-49.551,11.481c-16.319,0.017-32.664,0.937-49.047,0.89
			c-17.711-0.051-35.627-0.808-53.353-1.372c-8.655-0.275-17.554-0.784-26.148-1.78c-3.537-0.41-7.217-0.864-10.628-1.932
			c-7.363-2.306-8.536-9.414-7.541-16.366c1.633-11.399,6.016-16.97,17.602-17.178c8.141-0.145,16.344,0.156,24.445,0.741
			c14.228,1.028,31.062,0.309,45.071-2.538c18.872-3.835,32.906-16.871,51.268-21.534c9.989-2.537,20.675-3.032,30.944-3.342
			c6.564-0.198,13.946-0.376,21.116,0.053c5.796,0.878,11.225,2.433,15.772,5.1C436.18,143.468,421.78,174.299,410.495,182.012z
			 M483.012,269.313c-15.564,18.213-43.065,25.914-65.407,31.552c-26.592,6.71-54.068,7.534-81.26,10.046
			c-24.865,2.297-49.945,2.038-74.872,2.925c-23.546,0.838-47.043,2.937-70.578,3.618c-22.832,0.66-46.636,1.423-69.256,4.585
			c-20.449,2.859-40.545,10.179-53.098,27.571c-9.624,13.334-7.582,31.564,7.625,39.326c7.634,3.897,16.873,5.403,25.383,5.123
			c5.922-0.195,12.163-1.147,18.027-1.824c4.686-0.541,15.178-4.407,18.036,1.35c3.796,7.646-5.57,18.315-11.916,19.789
			c-5.358,1.244-11.16,0.042-16.529-0.248c-13.378-0.723-26.213,0.042-39.449-2.669c-24.514-5.021-59.276-17.358-44.413-49.578
			c9.558-20.719,33.521-35.358,54.068-43.099c25.222-9.504,51.082-14.629,77.826-17.617c53.993-6.034,108.881-7.27,163.177-7.434
			c28.194-0.085,57.091,1.19,84.889-4.36c21.489-4.29,45.245-12.355,57.854-31.624c11.023-16.847,10.278-42.275-5.226-56.26
			c-9.734-8.78-23.324-12.886-36.896-13.601c2.116-1.949,4.052-4.09,5.707-6.499c2.665-3.881,5.498-9.439,7.659-15.576
			c8.442-1.981,22.177,3.166,30.117,5.864c14.983,5.091,24.66,14.977,32.464,28.292
			C510.447,222.002,499.123,250.461,483.012,269.313z"/>
	</g>
</g>
<g>
	<g>
		<path d="M314.279,358.948c-10.196-1.474-20.802-1.218-31.053-0.444c-7.508,0.567-18.115,2.778-25.48,1.063
			c-1.68-0.391-3.105,0.52-3.686,2.093c-0.105,0.286-0.212,0.571-0.317,0.857c-1.416,3.835,4.992,3.817,7.196,3.693
			c6.013-0.337,12.103-0.074,18.15-0.439c11.372-0.686,23.16,0.382,34.409-1.057C316.412,364.341,317.888,359.47,314.279,358.948z"
			/>
	</g>
</g>
<g>
	<g>
		<path d="M314.279,374.927c-10.196-1.475-20.802-1.218-31.053-0.444c-7.508,0.567-18.115,2.778-25.48,1.063
			c-1.68-0.391-3.105,0.521-3.686,2.093c-0.105,0.286-0.212,0.571-0.317,0.857c-1.416,3.835,4.992,3.817,7.196,3.693
			c6.013-0.337,12.103-0.074,18.15-0.439c11.372-0.686,23.16,0.382,34.409-1.057C316.412,380.32,317.888,375.449,314.279,374.927z"
			/>
	</g>
</g>
<g>
	<g>
		<path d="M314.279,390.906c-10.196-1.474-20.802-1.218-31.053-0.444c-7.508,0.567-18.115,2.778-25.48,1.063
			c-1.68-0.391-3.105,0.521-3.686,2.093c-0.105,0.286-0.212,0.571-0.317,0.857c-1.416,3.835,4.992,3.816,7.196,3.693
			c6.013-0.337,12.103-0.074,18.15-0.439c11.372-0.686,23.16,0.382,34.409-1.057C316.412,396.299,317.888,391.428,314.279,390.906z"
			/>
	</g>
</g>
<g>
	<g>
		<path d="M241.354,399.703c-4.88-4.669-12.206-9.205-19.208-8.342c-5.516,0.679-9.109,3.107-12.882,7.129
			c-2.178,2.321-4.392,4.245-6.103,6.999c-3.131,5.039-5.031,11.262-4.184,17.218c2.304,16.184,20.753,22.693,33.878,15.718
			C247.074,430.869,254.501,412.284,241.354,399.703z M232.107,431.429c-9.904,6.747-26.924,2.946-27.367-11.48
			c-0.25-8.13,5.006-15.795,11.811-20.226c4.665-2.27,9.348-2.806,15.278,1.084C243.934,408.748,244.655,422.88,232.107,431.429z"/>
	</g>
</g>
<g>
	<g>
		<path d="M223.272,403.916c-3.18,0.949-2.794,3.866-3.384,6.533c-0.632,2.867-1.476,6.794-0.474,9.602
			c0.869,2.435,3.818,2.225,4.757,0c1.041-2.467,1.063-5.002,1.626-7.57c0.43-1.96,0.842-3.872,1.015-5.869
			C226.968,404.802,224.899,403.43,223.272,403.916z"/>
	</g>
</g>
<g>
</g>
<g>
</g>
<g>
</g>
<g>
</g>
<g>
</g>
<g>
</g>
<g>
</g>
<g>
</g>
<g>
</g>
<g>
</g>
<g>
</g>
<g>
</g>
<g>
</g>
<g>
</g>
<g>
</g>
</svg>
