<?xml version="1.0" encoding="iso-8859-1"?>
<!-- Generator: Adobe Illustrator 19.0.0, SVG Export Plug-In . SVG Version: 6.00 Build 0)  -->
<svg version="1.1" id="Capa_1" xmlns="http://www.w3.org/2000/svg" xmlns:xlink="http://www.w3.org/1999/xlink" x="0px" y="0px"
	 viewBox="0 0 512 512" style="enable-background:new 0 0 512 512;" xml:space="preserve">
<g>
	<g>
		<path d="M446.315,265.983c-2.061-3.08-5.447-5.278-10.981-5.979c-6.645-0.842-13.477,1.312-19.992,2.021
			c-8.089,0.881-16.292,1.01-24.42,1.156c-15.779,0.283-31.584-0.061-47.323,1.334c-14.432,1.279-8.238,17.51-8.69,27.643
			c-0.554,12.424-3.465,24.666-8.544,36.018c-21.547,48.161-83.281,60.108-130.469,50.757c-24.576-4.87-46.975-14.082-62.234-35.101
			c-15.508-21.361-21.823-46.186-19.099-72.32c2.786-26.724,14.61-58.116,34.555-76.898c29.282-27.574,75.11-35.085,112.555-21.683
			c0.411,0.147,0.855,0.296,1.275,0.179c0.447-0.124,0.758-0.516,1.034-0.888c8.096-10.908,11.859-23.947,16.591-36.475
			c5.554-14.703,10.51-29.622,16.022-44.34c2.836-7.57,11.434-19.791,9.043-28.27c-2.328-8.256-14.663-8.608-22.064-10.347
			c-18.577-4.366-39.589-8.238-58.889-5.704c-19.3-2.534-40.312,1.338-58.889,5.704c-23.455,5.512-44.686,12.455-65.096,25.628
			c-39.637,25.584-70.926,68.554-86.056,112.993c-8.051,23.646-11.136,48.787-13.255,73.576c-0.125,1.464-0.217,2.93-0.326,4.395
			c-0.042,0.089-0.063,0.173-0.106,0.262c0.029,0.001,0.058,0.001,0.087,0.001c-1.689,22.836-1.449,45.816,1.606,68.515
			c3.469,25.775,9.434,48.195,22.97,70.578c12.579,20.802,31.285,38.01,50.997,52.028c21.597,15.359,46.167,25.859,71.866,31.852
			c26.499,6.18,53.48,10.995,80.752,11.478c24.323,0.431,48.011-5.965,71.651-11.478c25.7-5.993,50.271-16.493,71.866-31.853
			c19.711-14.019,38.418-31.226,50.997-52.028c13.536-22.383,19.502-44.803,22.971-70.578c2.111-15.682,2.886-31.526,2.612-47.346
			C449.186,282.36,450.548,272.31,446.315,265.983z M226.453,57.535c20.179,0.14,40.402,2.663,61.819,7.617
			c3.534,0.818,7.006,1.756,10.448,2.752c-3.044,6.891-6.022,13.815-8.771,20.856c-7.566,19.383-13.968,39.177-22.057,58.358
			c-2.11,5.002-4.202,10.014-6.299,15.024c-10.17-3.278-21.798-4.977-33.832-5.159c0.092-5.247,0.178-10.494,0.292-15.737
			c0.468-21.531-1.08-43.005-1.529-64.526C226.392,70.323,226.402,63.929,226.453,57.535z M161.098,65.152
			c20.246-4.683,39.44-7.189,58.561-7.567c-0.203,6.369-0.333,12.743-0.288,19.135c0.146,20.807,1.526,41.565,1.111,62.377
			c-0.119,5.988-0.22,11.979-0.322,17.97c-11.868,0.441-23.903,2.309-35.123,5.569c-1.792-4.552-3.587-9.103-5.361-13.659
			c-7.812-20.07-17.465-39.314-26.12-59.023c-2.959-6.74-5.741-13.549-8.489-20.373C150.302,67.893,155.643,66.414,161.098,65.152z
			 M92.928,97.581c13.978-11.427,29.286-19.81,45.763-25.819c2.612,7.021,5.33,14.008,8.257,20.932
			c8.102,19.165,17.326,37.812,24.911,57.198c1.969,5.03,3.949,10.058,5.93,15.086c-9.318,3.329-17.867,7.677-25.016,13.008
			c-2.234,1.666-4.366,3.447-6.439,5.288c-2.783-2.888-5.57-5.774-8.344-8.67c-14.895-15.556-31.174-29.646-46.707-44.545
			c-5.482-5.258-10.815-10.661-16.124-16.087C80.795,108.152,86.721,102.657,92.928,97.581z M70.579,118.872
			c5.111,5.502,10.28,10.955,15.644,16.245c14.816,14.61,30.469,28.311,44.893,43.321c3.232,3.362,6.473,6.718,9.712,10.074
			c-8.941,9.207-16.184,20.04-21.889,31.652c-3.46-1.454-6.923-2.902-10.377-4.366c-19.828-8.405-40.351-14.915-60.508-22.464
			c-6.469-2.423-12.872-5.002-19.261-7.616C38.457,161.272,52.847,138.355,70.579,118.872z M20.274,212.425
			c1.659-6.874,3.748-13.675,6.152-20.389c6.275,2.751,12.579,5.443,18.982,7.943c19.383,7.566,39.177,13.968,58.358,22.057
			c3.99,1.683,7.987,3.355,11.983,5.031c-2.69,6.267-4.961,12.704-6.824,19.192c-1.655,5.764-2.937,11.627-3.857,17.531
			c-1.814-0.016-3.629-0.046-5.442-0.052c-29.062-0.086-58.135-1.507-87.195-2.525C13.868,244.659,16.448,228.279,20.274,212.425z
			 M11.791,269.803c7.559,0.087,15.114,0.135,22.633,0.218c20.991,0.233,41.959,1.383,62.952,1.506
			c2.229,0.013,4.461,0.053,6.691,0.078c-1.297,13.469-0.488,27.04,2.84,40.12c-30.279,12.405-61.2,23.297-91.793,34.92
			C11.36,321.6,10.183,295.565,11.791,269.803z M16.571,355.465c11.265-4.29,22.414-8.917,33.54-13.385
			c19.48-7.822,39.291-14.789,58.731-22.713c0.089-0.036,0.178-0.071,0.267-0.107c1.058,3.144,2.259,6.254,3.637,9.315
			c4.421,9.821,10.276,19.001,17.32,27.1c-24.574,24.171-50.361,47.149-75.317,70.916C35.914,406.924,22.003,383.134,16.571,355.465
			z M99.853,461.477c-14.071-8.117-27.286-17.724-38.941-28.758c10.673-9.777,20.92-20.068,31.219-30.141
			c14.238-13.926,29.028-27.273,43.259-41.205c9.097,9.001,19.836,16.281,31.891,21.007c1.915,0.751,3.882,1.45,5.87,2.126
			c-12.531,30.782-26.551,60.984-39.689,91.511C121.937,472.275,110.755,467.766,99.853,461.477z M217.43,491.164
			c-20.21-0.524-40.307-3.221-59.322-8.123c-5.495-1.417-10.899-2.868-16.232-4.425c5.106-11.678,9.818-23.548,14.641-35.275
			c7.792-18.941,16.374-37.546,24.112-56.51c12.438,3.492,25.966,5.562,39.73,6.026C220.178,425.625,218.384,458.406,217.43,491.164
			z M291.261,483.041c-20.81,5.366-42.918,8.09-65.054,8.21c0.338-11.928,0.33-23.878,0.462-35.746
			c0.232-20.857,1.364-41.693,1.5-62.551c14.176-0.156,28.421-2.052,41.819-5.906c12.336,30.487,23.26,61.573,35.024,92.284
			C300.483,480.619,295.906,481.843,291.261,483.041z M349.517,461.477c-11.692,6.744-23.698,11.463-36.113,15.358
			c-4.641-12.451-9.75-24.75-14.677-37.018c-7.344-18.292-13.964-36.866-21.302-55.16c14.075-4.96,26.949-12.245,37.469-22.138
			c23.627,24.188,46.207,49.436,69.548,73.885C373.8,445.903,361.997,454.278,349.517,461.477z M390.725,430.527
			c-10.178-11.219-20.954-21.948-31.5-32.729c-13.15-13.445-25.799-27.37-38.897-40.865c0.251-0.282,0.518-0.548,0.766-0.834
			c10.017-11.574,16.678-24.948,20.466-39.156c30.62,12.48,60.672,26.421,91.043,39.494
			C426.657,385.559,411.302,410.351,390.725,430.527z M434.127,347.546c-11.312-4.91-22.794-9.469-34.139-14.136
			c-18.995-7.814-37.651-16.425-56.671-24.179c2.345-12.34,2.654-25.161,1.082-37.911c1.428,0.028,2.855,0.055,4.283,0.086
			c21.532,0.468,43.006-1.08,64.526-1.529c8.127-0.169,16.251-0.112,24.375-0.018C439.207,295.911,437.986,322.243,434.127,347.546z
			"/>
	</g>
</g>
<g>
	<g>
		<path d="M493.079,20.546c-16.134-14.229-40.017-17.784-57.605-3.829c-8.657,6.868-13.626,15.564-14.486,26.707
			c-0.844,10.946-1.758,18.886-11.272,25.84c-4.328,3.163-9.187,4.714-13.743,7.192c-2.443-1.647-4.946-3.222-7.544-4.682
			c-7.242-4.071-16.626-10.122-25.42-6.5c-12.96,5.339-6.998,17.338,1.697,27.911c-3.962,3.675-8.976,6.732-13.027,10.202
			c-5.294,4.533-10.733,8.892-15.882,13.592c-12.3,11.227-24.466,22.504-37.025,33.444c-10.062,8.765-19.963,17.892-29.651,27.077
			c-9.095,8.623-21.89,18.73-25.759,31.244c-3.742,12.104,5.269,23.29-3.084,34.3c-6.831,9.004-19.716,12.635-23.32,24.495
			c-6.308,20.757,16.571,27.612,29.671,14.474c3.795-3.806,6.402-9.011,11.449-11.526c9.191-4.581,14.097,3.581,20.917,7.853
			c8.527,5.341,15.056,1.37,22.478-3.817c21.577-15.081,38.855-35.665,58.434-53.176c9.689-8.666,19.78-17.048,29.826-25.324
			c10.964-9.032,26.739-19.459,33.805-32.027c0.839-1.493,1.452-2.963,1.862-4.413c8.95,5.853,19.68,7.885,25.147-2.32
			c4.767-8.901-1.286-19.097-5.437-26.915c-0.779-1.466-1.589-2.907-2.416-4.333c0.158-0.234,0.313-0.473,0.445-0.758
			c6.801-14.741,22.788-16.092,36.247-20.659c10.086-3.421,19.53-8.497,25.554-17.616C518.77,66.048,510.939,36.297,493.079,20.546z
			 M320.81,245.438c-8.271,7.689-17.951,20.463-28.769,24.545c-11.573,4.367-19.39-12.077-31.658-9.861
			c-4.828,0.872-9.389,4.677-12.833,7.938c-5.489,5.07-8.906,8.405-15.355,12.272c-1.218,0.73-2.542,1.487-3.957,1.369
			c-5.471-0.455-3.442-9.066-2.02-12.178c2.242-4.907,6.791-8.063,11.036-11.186c5.414-3.984,11.785-8.168,15.245-14.168
			c2.387-4.141,2.912-8.512,2.479-13.2c-1.107-11.986-4.786-18.124,4.112-28.66c11.62-13.76,25.765-25.248,38.886-37.493
			c8.732-8.15,17.673-16.051,26.481-24.108c9.123-2.551,19.038-4.403,24.135,6.13c3.757,7.765,0.215,18.342,2.918,26.777
			c3.39,10.581,13.57,19.765,24.898,21.213C357.487,211.307,339.277,228.271,320.81,245.438z M408.608,166.248
			c-6.038,6.212-12.618,11.884-19.237,17.454c-1.77,1.49-3.518,2.993-5.272,4.492c-0.466-0.541-1.094-0.995-1.897-1.296
			c-12.912-4.834-23.46-8.44-25.164-24.13c-0.794-7.308,0.459-15.965-4.11-22.349c-5.142-7.184-12.573-8.841-19.968-7.638
			c1.128-1.067,2.273-2.112,3.392-3.19c7.031-6.778,14.211-13.497,20.979-20.55c3.67-3.824,7.873-7.287,11.305-11.337
			c5.397,5.888,10.926,10.87,13.263,13.279c9.493,9.782,18.38,20.09,26.595,30.941c1.313,1.735,3.157,3.501,4.555,5.333
			c0.334,0.549,0.697,1.101,1.09,1.658c0.033,0.058,0.082,0.114,0.113,0.172C418.878,157.774,413.513,161.201,408.608,166.248z
			 M441.24,153.952c-3.26,2.513-11.331-2.165-16.971-6.843c-0.812-1.851-1.87-3.681-3.128-5.496
			c-7.342-10.608-16.029-19.938-24.742-29.39c-8.295-9-17.887-16.986-25.408-26.629c-2.787-3.571-6.418-9.91,1.432-11.448
			c3.428-0.671,7.602,2.672,10.407,4.201c7.848,4.276,14.759,9.106,21.309,15.221c11.331,10.577,21.633,21.818,29.588,35.158
			C436.208,132.884,447.257,149.313,441.24,153.952z M483.41,92.645c-10.259,4.73-22.673,4.472-32.427,10.038
			c-4.992,2.849-10.752,8.357-14.341,13.848c-5.083-7.267-10.851-14.005-17.234-20.343c-5.301-5.263-10.776-10.243-16.603-14.769
			c3.838-0.044,7.116-1.036,11.725-3.918c7.398-4.626,13.069-10.482,15.629-19.068c1.485-4.978,0.591-9.941,1.1-15.008
			c0.816-8.1,4.492-14.33,10.857-19.142c11.105-8.394,25.397-8.678,37.55-2.096C504.827,35.814,512.839,79.077,483.41,92.645z"/>
	</g>
</g>
<g>
	<g>
		<path d="M234.308,343.063c-0.33-8.065-3.663-17.034-6.192-24.595c-2.458-7.35-4.936-16.942-10.955-22.155
			c-0.313-0.271-0.657-0.475-1.013-0.637c-1.438-1.274-3.968-1.446-5.467,0.609c-6.495,8.904-15.728,22.111-18.05,35.461
			c-2.307,13.268,2.104,27.919,16.777,31.166C222.648,365.842,234.875,356.931,234.308,343.063z M202.214,343.955
			c-3.428-11.898,3.903-25.899,10.407-37.122c2.831,7.515,6.141,14.834,8.313,22.662c1.009,3.634,2.75,8.192,2.747,11.986
			C223.668,357.184,205.753,356.243,202.214,343.955z"/>
	</g>
</g>
<g>
</g>
<g>
</g>
<g>
</g>
<g>
</g>
<g>
</g>
<g>
</g>
<g>
</g>
<g>
</g>
<g>
</g>
<g>
</g>
<g>
</g>
<g>
</g>
<g>
</g>
<g>
</g>
<g>
</g>
</svg>
