<?xml version="1.0" encoding="iso-8859-1"?>
<!-- Generator: Adobe Illustrator 16.0.0, SVG Export Plug-In . SVG Version: 6.00 Build 0)  -->
<!DOCTYPE svg PUBLIC "-//W3C//DTD SVG 1.1//EN" "http://www.w3.org/Graphics/SVG/1.1/DTD/svg11.dtd">
<svg version="1.1" id="Capa_1" xmlns="http://www.w3.org/2000/svg" xmlns:xlink="http://www.w3.org/1999/xlink" x="0px" y="0px"
	 width="191.925px" height="191.925px" viewBox="0 0 191.925 191.925" style="enable-background:new 0 0 191.925 191.925;"
	 xml:space="preserve">
<g>
	<path d="M155.531,179.818c0.991-1.271,0.365-2.863-1.261-3.041c-5.438-0.596-9.961,1.518-13.81,4.747
		c3.672-9.182,8.667-17.995,13.186-26.734c2.369-4.58,8.807-14.093,5.813-19.364c-0.446-0.786-1.188-1.03-1.884-0.894
		c-11.688-6.625-23.504-13.376-35.305-19.812c-9.048-4.936-19.3-11.996-29.622-13.658c-7.857-1.265-17.281,6.882-23.008,10.968
		c-11.187,7.983-23.376,17.114-36.439,21.551c-1.41,0.479-1.751,1.774-1.373,2.812c-0.046,0.302-0.035,0.621,0.088,0.959
		c5.723,15.72,12.574,31.627,21.98,45.516c-0.068,0.131-0.154,0.249-0.22,0.38c-5.414-2.814-10.433-4.749-16.708-5.462
		c-2.004-0.228-2.751,2.487-1.548,3.736c2.437,2.341,4.593,4.924,6.466,7.751c0.528,0.857,1.802,0.288,1.59-0.67
		c-0.474-2.144-1.119-3.812-1.963-5.433c4.189,1.164,8.073,2.958,12.013,5.168c1.403,0.786,2.827,0.003,3.376-1.373
		c3.271-8.207,10.598-14.312,18.756-17.401c-2.667,13.49,15.108,15.539,21.36,3.267c5.485,3.206,8.975,6.807,9.257,14.941
		c0.02,0.58,0.243,1.013,0.539,1.364c-0.016,0.444,0.333,0.904,0.868,0.752c0.05-0.015,0.095-0.031,0.144-0.045
		c0.96,0.307,2.079,0.011,2.638-0.847c4.621-1.642,8.367-4.048,10.317-8.473c4.998,3.04,9.402,6.684,13.717,10.716
		c1.215,1.136,2.845,0.777,3.77-0.485c3.48-4.747,7.343-7.998,12.577-9.602c-1.316,3.871,0.114,7.489,5.144,8.805
		c1.401,0.367,2.713-1.529,1.49-2.562C154.784,185.863,154.134,183.338,155.531,179.818z M135.931,185.972
		c-4.58-4.385-9.381-7.963-15.249-10.781c-1.182-0.568-3.072-0.199-3.319,1.351c-0.728,4.575-3.306,7.368-6.648,9.732
		c-0.628-9.098-5.543-14.632-13.674-19.054c-1.426-0.776-3.138-0.077-3.618,1.472c-2.663,8.6-17.673,11.701-11.817-1.656
		c0.83-1.892-0.51-4.169-2.759-3.589c-9.175,2.37-17.435,7.978-22.743,15.748c-7.08-13.758-13.166-27.824-19.297-42.027
		c19.702-5.155,33.767-22.841,52.571-29.992c7.625-2.9,27.256,10.905,34.314,14.354c10.658,5.21,20.557,11.777,31.382,16.637
		c-2.762,7.011-5.6,13.865-8.885,20.764C142.328,167.039,135.576,176.628,135.931,185.972z"/>
	<path d="M135.965,80.933c-15.56-0.483-31.301,0.353-46.845,1.047c-13.969,0.624-27.994-0.191-41.853,1.938
		c-1.457,0.224-2.079,1.938-1.813,3.192c2.113,9.961,5.658,19.717,8.906,29.364c0.389,1.157,2.06,0.947,2.116-0.286
		c0.256-5.707-0.723-9.921-2.268-15.508c-2.381-8.609-4.414-12.436,6.6-12.698c14.807-0.352,29.618-0.094,44.447-0.531
		c12.832-0.378,25.71-0.565,38.543-0.684c-6.806,0.063-12.548,19.591-12.004,25.167c0.231,2.37,3.992,3.321,4.476,0.605
		c1.134-6.367,3.899-11.673,6.866-17.317c1.38-2.625,4.854-5.422,4.576-8.804C147.152,79.619,141.921,81.118,135.965,80.933z"/>
	<path d="M107.334,71.223c0.222-0.113,0.448-0.212,0.662-0.346c1.23-0.774,1.045-2.701-0.406-3.104
		c-0.118-0.033-0.238-0.046-0.355-0.074c0.017-2.123,0.097-4.258,0.112-6.439c0.006-0.802-0.601-1.779-1.454-1.909
		c-3.353-0.514-6.917-0.065-10.271,0.238c-3.567,0.322-8.129,0.412-11.395,2.049c-5.085,2.549-0.403,15.436,2.392,18.369
		c0.597,0.626,1.594,0.127,1.627-0.674c0.094-2.304-0.429-4.519-0.92-6.765c3.494,0.056,6.996,0.037,10.489-0.059
		c1.537-0.042,3.157-0.008,4.746-0.119c0.111,2.308,0.621,4.491,2.051,6.282c1.369,1.717,3.921-0.159,3.462-2.015
		C107.622,74.832,107.438,73.027,107.334,71.223z M86.808,69.803c-0.178-1.114-0.323-2.233-0.39-3.36
		c-0.095-1.592-0.716-0.979,0.8-1.365c4.927-1.253,10.757-1.899,16.035-1.853c-0.132,1.382-0.328,2.841-0.487,4.314
		c-1.652,0.183-3.313,0.526-4.948,0.706C94.132,68.65,90.438,69.038,86.808,69.803z"/>
	<path d="M106.064,40.35c-2.201-2.158-5.348-2.754-8.375-2.365c1.07-3.865,0.229-7.931-3.245-11.032
		c-2.647-2.363-5.764-2.742-8.52-1.78c0.421-5.952-2.515-12.548-5.982-16.911C73.537,0.2,62.307-2.651,53.417,2.818
		c-9.96,6.126-13.145,34.017,0.885,33.027c-3.671,5.928-1.725,13.607,5.202,16.843c3.421,1.598,10.46,2.442,13.89-0.302
		c1.051,1.422,2.63,2.59,4.236,3.23c3.085,1.23,6.523,0.532,8.999-1.406c1.42,2.527,4.617,3.683,8.051,2.457
		c1.221-0.436,0.964-2.077-0.297-2.197c-2.822-0.269-5.436-0.656-4.988-4.197c0.251-1.988-2.939-2.32-3.428-0.464
		c-0.772,2.927-4.313,3.021-6.697,2.386c-3.155-0.84-3.106-2.738-3.262-5.466c-0.068-1.188-1.605-2.067-2.511-1.04
		c-0.762,0.865-1.155,1.76-1.286,2.647c-2.645,2.424-7.331,1.746-10.369,0.352c-2-0.918-4.035-2.472-4.844-4.585
		c-1.242-3.243,0.849-6.527,2.224-9.348c0.752-1.543-0.985-2.976-2.317-1.96c-6.159-0.664-8.231-4.582-7.953-10.862
		c0.231-5.2,2.601-11.692,6.999-14.781c6.496-4.563,14.435-1.156,19.369,3.899c6.197,6.349,5.451,13.33,2.929,20.962
		c-0.685,2.072,1.961,3.208,3.393,1.975c1.805-1.555,2.951-3.405,3.617-5.403c2.035-0.854,4.212-0.752,6.401,1.152
		c3.289,2.86,2.678,7.45,0.099,10.469c-1.574,1.843,0.415,4.799,2.673,3.464c2.315-1.368,4.901-1.777,7.429-0.688
		c3.183,1.373,1.326,3.934,0.036,5.94c-1.025,1.596,1.075,3.872,2.692,2.692C108.5,48.764,109.773,43.984,106.064,40.35z"/>
</g>
<g>
</g>
<g>
</g>
<g>
</g>
<g>
</g>
<g>
</g>
<g>
</g>
<g>
</g>
<g>
</g>
<g>
</g>
<g>
</g>
<g>
</g>
<g>
</g>
<g>
</g>
<g>
</g>
<g>
</g>
</svg>
