<svg height="512pt" viewBox="-50 0 512 512.00198" width="512pt" xmlns="http://www.w3.org/2000/svg"><path d="m187.992188 89.410156c3.347656-9.488281 1.40625-20.445312-4.949219-27.917968-6.691407-7.863282-16.53125-11.203126-26.996094-9.160157-11.355469 2.21875-20.957031 10.488281-24.457031 21.074219-1.878906 5.679688-2.050782 11.738281-.488282 17.058594 2.117188 7.203125 7.578126 13.476562 14.613282 16.78125 3.898437 1.832031 8.273437 2.761718 12.699218 2.761718 3.058594 0 6.148438-.445312 9.121094-1.34375 9.433594-2.851562 17.273438-10.230468 20.457032-19.253906zm-9.46875-3.339844c-2.140626 6.066407-7.464844 11.039063-13.898438 12.984376-4.925781 1.492187-10.261719 1.164062-14.640625-.894532-4.472656-2.101562-7.929687-6.035156-9.25-10.523437-.992187-3.382813-.855469-7.320313.386719-11.082031v.003906c2.378906-7.199219 8.992187-12.839844 16.847656-14.375 6.804688-1.324219 13.15625.792968 17.425781 5.816406 4.019531 4.722656 5.277344 11.984375 3.128907 18.070312zm0 0"/><path d="m231.625 107.246094c3.898438 1.832031 8.273438 2.761718 12.699219 2.761718 3.0625 0 6.148437-.445312 9.121093-1.34375 9.433594-2.851562 17.273438-10.230468 20.457032-19.253906 3.351562-9.488281 1.40625-20.445312-4.945313-27.917968-6.691406-7.863282-16.53125-11.203126-26.996093-9.160157-11.359376 2.21875-20.957032 10.488281-24.457032 21.074219-1.878906 5.679688-2.054687 11.738281-.488281 17.0625 2.117187 7.199219 7.578125 13.472656 14.609375 16.777344zm-4.589844-30.6875c2.378906-7.199219 8.992188-12.839844 16.847656-14.375 1.328126-.257813 2.644532-.386719 3.925782-.386719 5.28125 0 10.0625 2.160156 13.5 6.203125 4.019531 4.722656 5.273437 11.984375 3.128906 18.070312-2.140625 6.066407-7.46875 11.039063-13.898438 12.984376-4.925781 1.492187-10.265624 1.164062-14.644531-.894532-4.472656-2.101562-7.929687-6.035156-9.25-10.523437-.992187-3.382813-.855469-7.320313.390625-11.078125zm0 0"/><path d="m228.304688 123.304688c2.773437-.097657 4.941406-2.417969 4.84375-5.191407-.09375-2.710937-2.320313-4.847656-5.011719-4.847656-.058594 0-.117188.003906-.175781.003906-16.75.578125-33.71875.273438-50.4375-.910156-2.769532-.203125-5.164063 1.890625-5.359376 4.65625-.195312 2.761719 1.886719 5.164063 4.652344 5.359375 11.476563.8125 23.070313 1.21875 34.632813 1.21875 5.632812 0 11.257812-.097656 16.855469-.289062zm0 0"/><path d="m410.230469 379.773438c-3.09375-11.785157-10.148438-22.179688-19.863281-29.265626-3-2.1875-6.238282-4.03125-9.628907-5.519531 12.152344-22.449219 11.046875-47.96875 7.894531-65.625-5.316406-29.828125-19.292968-55.824219-39.351562-73.207031-12.578125-10.902344-28.703125-19.558594-49.269531-26.457031-.894531-4.179688-2.296875-8.277344-4.929688-11.886719-6.6875-9.179688-17.714843-8.917969-25.867187-8.726562-5.421875.128906-10.976563-.003907-16.46875-.199219.433594-4.414063.777344-8.855469 1.03125-13.277344 3.40625-.308594 6.820312-.671875 10.226562-1.117187 7-.910157 15.03125-2.273438 21.71875-7 8.773438-6.195313 13.90625-17.007813 15.691406-33.042969 1.632813-14.675781.972657-29.460938-1.964843-43.9375-1.101563-5.429688-2.699219-11.734375-6.207031-17.363281-4.613282-7.410157-12.464844-13.109376-22.101563-16.050782-6.867187-2.09375-13.425781-2.066406-19.746094-2.03125-2.117187.007813-4.308593.019532-6.453125-.054687-.074218-.003907-.152344-.003907-.230468-.007813-1.515626-6.722656-5.945313-13.015625-12.257813-17.351562-5.226563-3.585938-11.773437-5.960938-19.453125-7.050782-17.953125-2.550781-36.117188 3.125-47.410156 14.8125-3.445313 3.566407-6.007813 7.390626-7.636719 11.375-5.136719.601563-10.132813 1.304688-15.023437 2.132813-10.074219 1.707031-20.339844 4.382813-27.183594 12.320313-5.566406 6.453124-7.378906 14.949218-8.421875 22.40625-2.324219 16.628906-2.199219 33.46875.367187 50.054687.675782 4.375 1.640625 9.410156 4.539063 13.804687 4.929687 7.488282 13.75 10.558594 20.882812 12.394532 6.523438 1.679687 13.078125 2.90625 19.664063 3.828125l-.15625 14.796875v.023437c-10.835938.441407-21.113282 1.066407-31.175782 1.898438-4.738281.390625-11.898437.980469-17.332031 5.355469-5.503906 4.429687-7.492187 11.261718-8.375 16.8125-.546875.03125-1.101562.128906-1.636719.347656-14.820312 6.0625-28.699218 16.707031-40.136718 30.789062-9.5625 11.773438-17.617188 25.976563-24.625 43.429688-13.015625 32.398437-15.71875 61.226562-8.035156 85.679687.066406.203125.152343.394531.242187.585938-.050781.03125-.101563.0625-.152344.09375-9.539062 6.125-16.710937 16.871093-19.671875 29.480469-2.328125 9.921874-2.296875 21.140624.105469 34.296874.230469 1.257813.710937 3.878907 2.957031 5.761719 1.757813 1.472657 3.769532 1.816407 5.378906 1.816407.949219 0 1.753907-.117188 2.296876-.199219l69.09375-10.109375c1.230468-.179688 3.78125-.554688 5.703124-2.59375 1.660157-1.753906 2.03125-3.851563 2.230469-4.976563 1.3125-7.410156 2.539063-16.1875 1.699219-25.09375-.867188-9.203125-4.195312-19.066406-8.6875-25.738281-4.003906-5.949219-11.355469-8.8125-18.539062-10.148438-4.5-17.269531-3.796876-35.992187 2.023437-52.855468 5.152344-14.929688 14.359375-28.53125 26.246094-38.964844-.257813 13.894531-.289063 27.71875-.316407 41.34375-.003906 2.96875-.015624 7.453125 2.671876 11.175781 3.402343 4.714844 9.214843 5.699219 12.339843 6.226563 1.082031.183594 2.167969.332031 3.253907.5-2.109376 46.980468-3.261719 94.605468-3.421876 141.613281-3.945312 1.578125-7.707031 3.730469-11.0625 6.679687-6.074218 5.332032-10.359374 12.898438-12.398437 21.875-1.578125 6.953126-1.820313 14.800782-.742187 23.996094.125 1.074219.363281 3.078125 1.675781 4.898438 1.554687 2.15625 3.777343 3.003906 5.539062 3.5 4.976563 1.40625 10.054688 1.65625 14.539063 1.875 13.953125.679687 28.097656 1.25 42.042968 1.691406 6.203126.199219 12.339844.363281 18.433594.363281 6.695313 0 13.335938-.199219 19.945313-.78125 2.121093-.1875 5.667969-.5 8.695312-2.523437 2.710938-1.804688 4.234375-4.402344 5.144531-6.199219 1.1875-2.347656 2.066407-4.855469 2.65625-7.503906.542969 3.414062 1.550782 6.605469 3.042969 9.546875.90625 1.792968 2.429688 4.390625 5.140625 6.199218 3.03125 2.023438 6.578125 2.335938 8.695313 2.523438 6.613281.582031 13.253906.785156 19.949219.785156 6.089843 0 12.230468-.167968 18.429687-.367187 13.945313-.441407 28.09375-1.011719 42.042969-1.691407 4.484375-.21875 9.570312-.46875 14.542968-1.875 1.757813-.496093 3.980469-1.34375 5.539063-3.503906 1.316406-1.820312 1.546875-3.824218 1.671875-4.898437 1.078125-9.195313.835938-17.042969-.742188-23.992188-2.039062-8.976562-6.324218-16.542969-12.394531-21.875-3.359375-2.949219-7.121093-5.105469-11.066406-6.679687-.160156-46.605469-1.296875-93.816406-3.367187-140.40625 2.335937-.246094 5.050781-.875 7.394531-2.769532 4.648437-3.75 4.792969-9.835937 4.867187-13.105468.421875-18.226563.628906-37.183594-.042968-56.453125 7.179687 4.171875 13.804687 10.203125 19.433593 17.753906 6.167969 8.265625 11.332031 18.515625 15.792969 31.335937 4.480469 12.878907 6.496094 23.378907 6.335938 33.035157-.152344 9.410156-2.46875 18.828125-6.695313 27.234375-.113281.222656-.183594.457031-.261719.6875-1.792968.785156-3.496094 1.671875-5.078125 2.667968-4.347656 2.734376-8.3125 6.53125-11.785156 11.28125-6.222656 8.503907-9.972656 18.980469-10.566406 29.5-.066407 1.191407-.246094 4.359376 1.972656 6.84375 1.636719 1.835938 3.75 2.371094 4.886719 2.660157 23.597656 5.980469 48 12.164062 72.847656 14.617187.921875.089844 2.058594.203125 3.304688.203125 1.519531 0 3.207031-.164062 4.886718-.738281 7.941406-2.703125 9.175782-10.375 9.992188-15.453125l.207031-1.269531c.832031-4.921875 1.550781-9.171875.027344-14.972656zm-58.308594-38.777344c2.894531-7.769532 4.472656-16.046875 4.609375-24.320313.007812-.515625.003906-1.035156.003906-1.554687 7.757813-.628906 15.601563-.800782 23.375-.519532-1.183594 9.117188-3.835937 18.433594-8.820312 27.085938-.023438.039062-.035156.082031-.054688.125-6.253906-1.417969-12.757812-1.714844-19.113281-.816406zm26.832031-59.871094c1.214844 6.8125 2.101563 14.890625 1.90625 23.457031-8.25-.3125-16.574218-.136719-24.808594.523438-.980468-7.589844-3.015624-15.734375-6.214843-24.929688-.238281-.691406-.484375-1.375-.730469-2.054687 9.097656-2.769532 18.4375-4.898438 27.832031-6.34375.765625 3.0625 1.449219 6.179687 2.015625 9.347656zm-205.945312-258.734375c9.097656-9.417969 23.953125-13.957031 38.78125-11.851563 6.132812.871094 11.238281 2.683594 15.179687 5.390626 3.394531 2.328124 5.945313 5.414062 7.332031 8.738281-17.808593-.519531-36.386718-.753907-54.972656.300781-3.078125.175781-6.085937.382812-9.039062.621094.796875-1.082032 1.703125-2.148438 2.71875-3.199219zm-52.195313 99.59375c-1.785156-2.710937-2.460937-6.335937-3-9.820313-2.417969-15.617187-2.535156-31.472656-.347656-47.128906.882813-6.3125 2.230469-12.769531 6.082031-17.238281 4.769532-5.535156 13.035156-7.585937 21.261719-8.980469 10.953125-1.855468 22.429687-3.105468 35.085937-3.824218 21.972657-1.25 44.109376-.660157 64.90625.050781 2.339844.078125 4.628907.066406 6.839844.058593 5.839844-.027343 11.359375-.054687 16.773438 1.597657 7.316406 2.230469 13.179687 6.40625 16.507812 11.753906 2.664063 4.273437 3.964844 9.503906 4.890625 14.054687 2.726563 13.453126 3.34375 27.191407 1.824219 40.832032-1.449219 13.015625-5.210938 21.507812-11.507812 25.953125-4.808594 3.398437-11.410157 4.488281-17.21875 5.242187-23.644532 3.074219-47.925782 2.660156-68.824219 2.035156-19.96875-.601562-39.445313-1.542968-58.265625-6.390624-5.722656-1.476563-11.984375-3.601563-15.007813-8.195313zm72.96875 24.617187c7.984375.242188 16.449219.449219 25.203125.449219 8.109375 0 16.460938-.191406 24.894532-.6875-.246094 4.042969-.578126 8.105469-.980469 12.132813-2.824219-.109375-5.667969-.214844-8.5-.277344-28.4375-.636719-50.460938-.648438-71.136719-.039062-.121094-.203126-.242188-.402344-.394531-.585938l.136719-12.6875c10.160156.980469 20.410156 1.386719 30.777343 1.695312zm-142.542969 163.613282c-7.929687.191406-15.9375.101562-23.859374-.285156.375-9.640626 2.09375-19.855469 5.152343-30.605469l23.367188 3.046875c-2.839844 8.984375-4.402344 18.394531-4.660157 27.84375zm-23.746093 9.761718c5.253906.25 10.535156.390626 15.816406.390626 2.71875 0 5.4375-.042969 8.148437-.109376.347657 4.96875 1.058594 9.902344 2.132813 14.753907-5.199219-.039063-10.726563.667969-16.472656 2.128906-2.226563.5625-4.304688 1.203125-6.261719 1.910156-1.828125-6.042969-2.941406-12.40625-3.363281-19.074219zm46.878906 31.8125c3.558594 5.285157 6.3125 13.558594 7.023437 21.074219.707032 7.503907-.335937 15.21875-1.496093 21.847657l-68.144531 9.972656c-2-11.40625-2.019532-21.019532-.058594-29.367188 2.371094-10.097656 7.957031-18.597656 15.324218-23.328125 3.339844-2.144531 7.453126-3.820312 12.570313-5.121093 4.785156-1.214844 9.34375-1.828126 13.582031-1.828126.832032 0 1.65625.023438 2.464844.070313 9.28125.546875 16.285156 3.042969 18.734375 6.679687zm-14.894531-79.027343c-.148438-.035157-.292969-.085938-.445313-.105469l-23.414062-3.054688c.996093-2.863281 2.058593-5.75 3.238281-8.679687 3.921875-9.765625 8.171875-18.421875 12.832031-26.144531 6.050781 6.429687 12.359375 12.714844 18.816407 18.710937-4.359376 6.007813-8.074219 12.484375-11.027344 19.273438zm32.617187-41.179688c-5.558593 4.125-10.671875 8.863281-15.277343 14.058594-6.699219-6.238281-13.246094-12.789063-19.472657-19.492187 1.496094-2.097657 3.03125-4.121094 4.613281-6.066407 9.511719-11.710937 20.804688-20.761719 32.835938-26.367187-1.039062 12.457031-1.664062 24.980468-2.046875 37.476562-.222656.117188-.445313.234375-.652344.390625zm70.453125 75.851563c5.769532.167968 11.546875.300781 17.332032.417968-.011719 5.632813-.050782 11.269532-.121094 16.914063-19.996094 1.625-40.226563 1.453125-60.199219-.503906.253906-6.492188.519531-12.972657.808594-19.441407 14.355469 1.652344 28.605469 2.210938 42.179687 2.613282zm16.242188 56.378906c-20.097656 1.640625-40.4375 1.5625-60.527344-.222656.265625-9.765625.570312-19.527344.917969-29.269532 11.050781 1.0625 22.175781 1.601563 33.304687 1.601563 9.046875 0 18.09375-.367187 27.09375-1.074219-.179687 9.648438-.4375 19.300782-.789062 28.964844zm-60.796875 9.828125c10.5625.917969 21.1875 1.402344 31.8125 1.402344 9.546875 0 19.09375-.390625 28.589843-1.132813-.445312 10.496094-.992187 20.988282-1.636718 31.460938-19.746094 1.8125-39.695313 1.492187-59.371094-.925782.160156-10.261718.355469-20.53125.605469-30.804687zm-.742188 40.921875c11.308594 1.34375 22.703125 2.027344 34.101563 2.027344 8.265625 0 16.535156-.375 24.769531-1.085938-.652344 9.691406-1.394531 19.367188-2.21875 29.011719-2.453125-.640625-4.605469-1.027344-6.144531-1.246094-11.164063-1.589843-22.5625-2.359375-33.976563-2.351562-5.191406.015625-10.984375.261719-16.765625 1.320312.039063-9.203125.117188-18.433593.234375-27.675781zm72.5625 81.351562c-.617187 1.214844-1.207031 2.015626-1.753906 2.382813-.828125.550781-2.4375.734375-4.011719.875-12.070312 1.0625-24.472656.789063-37.175781.386719-13.886719-.441406-27.976563-1.011719-41.875-1.6875-4.132813-.203125-8.410156-.410156-12.28125-1.503906-.933594-8.003907-.742187-14.714844.574219-20.515626 1.542968-6.800781 4.824218-12.679687 9.230468-16.554687 8.355469-7.339844 21.109376-8.3125 31.289063-8.335937 10.945313-.035157 21.847656.726562 32.535156 2.246093 7.140625 1.015625 16.222657 4.21875 20.300781 10.160157 1.40625 2.042968 2.328126 4.609374 3.046876 6.847656 3.378906 10.53125 3.417968 19.179687.121093 25.699218zm18.503907-36.1875c-2.136719 3.109376-3.386719 6.527344-4.328126 9.460938-.972656 3.027344-1.699218 5.941406-2.207031 8.757812-.488281-3.4375-1.324219-7.039062-2.53125-10.800781-.941406-2.929687-2.191406-6.347656-4.328125-9.460937-2.949218-4.292969-7.042968-7.328125-11.246094-9.488282 4.035157-46.414062 6.132813-93.554687 6.242188-140.160156 7.808594.117188 15.625.175782 23.445312.195313-.019531.183593-.054687.363281-.054687.554687.074219 47.011719 2.179687 94.597656 6.253906 141.449219-4.203125 2.164063-8.296875 5.199219-11.246093 9.492187zm76.65625-94.09375c-20.085938 1.785157-40.425782 1.859376-60.527344.21875-.351563-9.660156-.609375-19.316406-.789063-28.960937 9 .703125 18.042969 1.074219 27.09375 1.074219 11.125 0 22.253907-.539063 33.304688-1.605469.347656 9.746094.652343 19.507813.917969 29.273437zm-60.132813 10.316407c9.5.746093 19.042969 1.136719 28.59375 1.136719 10.625 0 21.25-.484376 31.808594-1.402344.25 10.269531.445312 20.542968.605469 30.804687-19.679688 2.421875-39.628907 2.738281-59.371094.925781-.640625-10.476562-1.191406-20.964843-1.636719-31.464843zm58.039063-68.824219c.28125 6.382812.546874 12.777344.796874 19.179688-19.96875 1.957031-40.199218 2.128906-60.199218.503906-.074219-6.019532-.117188-12.035156-.128906-18.039063 0-.1875-.035157-.363281-.054688-.546875 19.898438-.054687 39.796875-.421875 59.585938-1.097656zm27.066406 170.769531c1.320312 5.800781 1.507812 12.511719.574218 20.515625-3.867187 1.09375-8.144531 1.300782-12.285156 1.503906-13.890625.675782-27.980468 1.246094-41.871094 1.6875-12.703124.402344-25.105468.675782-37.175781-.386718-1.574219-.140625-3.183593-.324219-4.007812-.871094-.550781-.371094-1.140625-1.171875-1.757813-2.386719-3.296875-6.519531-3.257812-15.167969.121094-25.699219.722656-2.242187 1.644531-4.804687 3.046875-6.847656 4.082031-5.941406 13.164063-9.144531 20.300781-10.160156 10.5-1.492188 21.246094-2.25 31.953125-2.25.195313 0 .390625 0 .582031.003906 10.179688.023438 22.933594.996094 31.289063 8.335938 4.410156 3.871094 7.6875 9.75 9.230469 16.554687zm-40.492188-34.933593c-11.332031-.035157-22.808594.761718-33.976562 2.351562-1.539063.21875-3.691406.605469-6.144532 1.246094-.820312-9.648438-1.5625-19.320313-2.214843-29.011719 8.234375.710937 16.5 1.082031 24.769531 1.082031 11.394531 0 22.792969-.679687 34.101562-2.023437.113282 9.242187.191407 18.46875.230469 27.679687-5.78125-1.0625-11.570312-1.308594-16.765625-1.324218zm25.683594-152.359376c-.03125 1.285157-.109375 4.703126-1.136719 5.53125-.726562.585938-2.867187.667969-4.144531.714844-42.132812 1.605469-84.867188 1.792969-127.011719.550782-17.398437-.511719-35.898437-1.269532-54.046875-4.335938-1.582031-.269531-4.878906-.824219-5.871094-2.203125-.78125-1.082031-.777343-3.507813-.773437-5.28125.066406-31.761719.128906-64.605469 3.144531-96.671875.542969-5.761719 1.445313-12.171875 5.3125-15.285156 2.796875-2.253906 7.207032-2.785156 11.859375-3.167969 12.632813-1.042969 25.59375-1.761719 39.632813-2.195313 20.917968-.652343 43.144531-.652343 72.074218-.003906 4.023438.089844 8.152344.257813 12.148438.421875 7.628906.308594 15.527344.628907 23.425781.441407 8.355469-.199219 14.078125.019531 17.421875 4.605468 2.648438 3.636719 3.496094 8.703125 4.195313 14.007813 4.597656 34.886719 4.527343 70.058593 3.769531 102.871093zm9.476562-67.777343c-.574218-10.589844-1.449218-21.246094-2.738281-31.910157 16.980469 6.164063 30.449219 13.65625 41.03125 22.828126 2.464844 2.136718 4.824219 4.429687 7.082031 6.847656-8.351562 5.40625-16.515624 11.230468-24.304687 17.386718-6.335937-6.554687-13.472656-11.695312-21.070313-15.152343zm27.597657 22.792969c7.785156-6.132813 15.945312-11.933594 24.289062-17.292969 7.441407 9.769531 13.402344 21.183593 17.597657 33.734375-9.6875 1.554687-19.316407 3.804687-28.691407 6.699218-3.765625-8.710937-7.992187-16.179687-12.796875-22.621093-.128906-.179688-.265625-.347657-.398437-.519531zm68.292969 147.453124-.019532.105469c-.070312.40625-.136718.824219-.203125 1.246094-.804687 5.007813-1.425781 6.898437-3.316406 7.542969-.925781.3125-2.34375.207031-3.96875.046875-23.84375-2.355469-47.621094-8.339844-70.628906-14.171875.589843-8.40625 3.632812-16.738282 8.605469-23.53125 2.722656-3.726563 5.761718-6.65625 9.027343-8.710938 2.855469-1.796875 6.257813-3.160156 10.109375-4.046875 11.828125-2.722656 24.738282-.078125 34.539063 7.070313 7.742187 5.644531 13.597656 14.28125 16.070312 23.699218.972657 3.714844.527344 6.363282-.214843 10.75zm0 0"/><path d="m248.96875 191.367188c-6.035156-1.375-12.421875-1.503907-18.597656-1.632813-2.671875-.054687-5.199219-.109375-7.628906-.257813-12.882813-.792968-23.445313-1.199218-33.238282-1.277343-13.523437-.105469-25.636718.421875-37.066406 1.605469-7.160156.742187-14.472656 2.1875-19.460938 7.6875-3.117187 3.4375-4.578124 7.730468-5.6875 11.855468-3.996093 14.824219-5.222656 30.082032-3.644531 45.351563.371094 3.605469.960938 7.765625 3.269531 11.542969 3.96875 6.492187 11.328126 9.105468 17.296876 10.652343 20.121093 5.226563 41.054687 5.320313 61.296874 5.414063 3.308594.011718 6.617188.027344 9.914063.066406l1.335937.015625c1.660157.019531 3.335938.039063 5.023438.039063 5.0625 0 10.21875-.183594 15.371094-1.101563 8.753906-1.558594 16.078125-5.140625 21.179687-10.359375 6.007813-6.144531 9.550781-14.925781 10.832031-26.847656 3.257813-30.308594-3.914062-49.042969-20.195312-52.753906zm10.210938 51.683593c-1.03125 9.59375-3.65625 16.429688-8.027344 20.902344-4.585938 4.6875-11.101563 6.664063-15.761719 7.492187-5.933594 1.058594-12.042969.984376-18.511719.90625l-1.34375-.015624c-3.324218-.039063-6.648437-.054688-9.980468-.070313-19.625-.089844-39.917969-.179687-58.820313-5.085937-4.140625-1.078126-9.164063-2.75-11.253906-6.175782-1.214844-1.984375-1.59375-4.824218-1.851563-7.332031-1.449218-14.046875-.320312-28.078125 3.351563-41.710937.730469-2.714844 1.660156-5.769532 3.433593-7.726563 2.855469-3.148437 8.238282-3.945313 13.058594-4.445313 11.058594-1.148437 22.8125-1.65625 35.953125-1.550781 9.605469.074219 19.996094.476563 32.699219 1.257813 2.632812.160156 5.378906.21875 8.035156.273437 5.671875.117188 11.539063.238281 16.574219 1.386719 14.933594 3.402344 13.679687 30.429688 12.445313 41.894531zm0 0"/><path d="m196.117188 216.996094c-.023438 0-.046876 0-.070313 0-12.007813.171875-24.179687.203125-36.171875.101562-.015625 0-.03125 0-.042969 0-2.753906 0-4.996093 2.21875-5.019531 4.976563-.023438 2.769531 2.203125 5.039062 4.976562 5.0625 4.585938.039062 9.195313.058593 13.816407.058593 7.535156 0 15.089843-.054687 22.582031-.160156 2.773438-.039062 4.988281-2.316406 4.949219-5.089844-.039063-2.746093-2.277344-4.949218-5.019531-4.949218zm0 0"/><path d="m194.132812 237.4375-37.886718-1.125c-2.757813-.113281-5.082032 2.09375-5.164063 4.867188-.082031 2.769531 2.09375 5.082031 4.867188 5.167968l37.886719 1.128906h.152343c2.703125 0 4.929688-2.148437 5.011719-4.871093.082031-2.773438-2.09375-5.085938-4.867188-5.167969zm0 0"/></svg>