<svg height="511pt" viewBox="0 -16 511.99948 511" width="511pt" xmlns="http://www.w3.org/2000/svg"><path d="m73.183594 130.257812c-1.023438-5.574218-2.867188-10.8125-4.648438-15.878906-.769531-2.183594-1.492187-4.90625-2.253906-7.792968-1.777344-6.710938-3.789062-14.320313-7.566406-19.410157-4.992188-6.722656-16.664063-4.859375-21.539063-2.902343-6.390625 2.566406-9.214843 8.40625-11.484375 13.101562-.40625.84375-.808594 1.675781-1.226562 2.476562l-.554688 1.0625c-3.765625 7.210938-7.660156 14.667969-12.371094 20.949219-.0625.082031-.121093.164063-.175781.25l-.574219.867188c-1.832031 2.777343-3.730468 5.644531-5.199218 8.902343-3.675782 8.148438-3.917969 16.953126-4.128906 24.722657-1.972657 71.871093-1.949219 144.753906.074218 216.621093.066406 2.386719.167969 5.992188 2.175782 9.128907 2.847656 4.460937 8.089843 5.816406 10.609374 6.46875 10.625 2.75 21.578126 4.125 32.535157 4.125 10.003906 0 20.007812-1.148438 29.757812-3.445313 2.3125-.542968 3.929688-2.636718 3.867188-5.011718l-6.007813-237.820313c-.132812-5.34375-.273437-10.871094-1.289062-16.414063zm-51.722656 13.257813c14.285156 0 28.652343-.152344 42.867187-.449219.042969 1.269532.078125 2.558594.109375 3.863282l.792969 31.34375c-18.027344-.539063-36.257813-.34375-54.261719.589843.160156-7.335937.328125-14.667969.527344-21.980469.117187-4.300781.246094-8.957031 1.035156-13.394531 2.972656.011719 5.945312.027344 8.929688.027344zm44.582031 66.914063c-18.53125-.601563-37.230469.144531-55.667969 2.195312.101562-7.910156.238281-15.808594.390625-23.699219 18.148437-.964843 36.539063-1.164062 54.71875-.605469zm-55.769531 12.304687c18.476562-2.109375 37.234374-2.882813 55.808593-2.265625.074219.003906.140625-.011719.214844-.015625l1.703125 67.5c-19.203125 2.164063-38.65625 2.203125-57.871094.148437-.136718-21.789062-.082031-43.59375.144532-65.367187zm-.066407 75.464844c9.34375.960937 18.730469 1.46875 28.125 1.46875 9.996094 0 19.992188-.5625 29.921875-1.648438l.695313 27.417969c-19.375 1.152344-38.984375 1.535156-58.382813 1.144531-.152344-9.453125-.273437-18.914062-.359375-28.382812zm9.457031-170.4375c5.15625-6.902344 9.214844-14.679688 13.144532-22.203125l.554687-1.058594c.464844-.890625.914063-1.820312 1.371094-2.761719 1.746094-3.613281 3.398437-7.03125 6.183594-8.148437 3.617187-1.453125 8.804687-1.304688 9.734375-.429688 2.628906 3.539063 4.378906 10.15625 5.925781 15.996094.8125 3.082031 1.585937 5.996094 2.484375 8.554688 1.65625 4.699218 3.363281 9.5625 4.246094 14.355468.058594.324219.105468.648438.15625.972656-15.726563.324219-31.625.457032-47.398438.414063.925782-1.628906 1.984375-3.253906 3.097656-4.933594zm-2.828124 251.34375c-1.179688-.304688-3.941407-1.019531-4.667969-2.152344-.507813-.796875-.558594-2.652344-.597657-4.007813-.339843-12.078124-.601562-24.195312-.828124-36.320312 4.859374.09375 9.726562.152344 14.605468.152344 14.625 0 29.304688-.449219 43.851563-1.304688l1.140625 45.125c-17.652344 3.527344-36.066406 3.019532-53.503906-1.492187zm0 0"/><path d="m511.800781 458.742188-43.957031-152.085938c.152344-.46875.257812-.957031.261719-1.476562.941406-94.605469-2.082031-190.421876-8.988281-284.78125-.246094-3.355469-.824219-11.214844-7.058594-14.742188-2.855469-1.613281-5.910156-1.710938-8.140625-1.78125-93.480469-2.902344-190.144531-5.902344-285.226563.089844-2.328125.148437-7.78125.492187-10.597656 4.980468-1.492188 2.382813-1.5625 4.917969-1.609375 6.597657l-2.226563 81.421875c-.019531.714844.117188 1.394531.367188 2.015625-3.238281 4.789062-6.625 9.472656-10.359375 13.539062-.070313.074219-.136719.152344-.199219.230469l-.660156.8125c-2.101562 2.578125-4.273438 5.242188-6.058594 8.335938-4.464844 7.738281-5.582031 16.480468-6.566406 24.1875-9.113281 71.316406-16.339844 143.839843-21.480469 215.554687-.167969 2.382813-.425781 5.976563 1.257813 9.304687 2.390625 4.71875 7.472656 6.589844 9.914062 7.488282 8.535156 3.144531 17.390625 5.363281 26.378906 6.65625-1.457031 17.625-1.792968 35.484375-.96875 53.132812.121094 2.625 2.246094 4.710938 4.871094 4.785156 70.71875 2.007813 134.171875 3 194.179688 3 31.121094 0 61.324218-.269531 91.117187-.796874 2.15625 7.558593 4.328125 15.105468 6.527344 22.632812.707031 2.425781 1.679687 5.75 4.414063 8.28125 3.699218 3.417969 8.78125 3.570312 11.503906 3.570312.140625 0 .273437 0 .398437-.003906 20.992188-.058594 41.890625-5.289062 60.4375-15.121094 2.097657-1.109374 3.128907-3.542968 2.46875-5.828124zm-89.839843-65.675782c19.152343-2.96875 38-7.960937 56.109374-14.878906l7.613282 26.351562c-18.449219 6.019532-37.320313 11.359376-56.1875 15.894532-2.542969-9.109375-5.054688-18.230469-7.535156-27.367188zm13.054687-163.785156c.371094 1.238281.730469 2.480469 1.085937 3.707031l8.707032 30.121094c-17.574219 4.046875-35.160156 8.855469-52.339844 14.320313-1.707031-7.136719-3.402344-14.273438-5.0625-21.398438-.972656-4.191406-2.027344-8.730469-2.390625-13.222656 16.667969-4.285156 33.460937-8.824219 50-13.527344zm-49.121094 2.929688c.484375-1.8125 1.097657-3.648438 1.746094-5.558594l.292969-.859375c3.238281-7.980469 5.195312-16.53125 7.089844-24.800781l.269531-1.171876c.226562-.980468.425781-1.996093.625-3.019531.777343-3.941406 1.507812-7.664062 3.917969-9.449219 3.132812-2.320312 8.1875-3.492187 9.3125-2.882812 3.433593 2.757812 6.808593 8.71875 9.78125 13.972656 1.570312 2.777344 3.054687 5.398438 4.574218 7.648438 2.789063 4.125 5.675782 8.390625 7.742188 12.8125.136718.292968.265625.597656.398437.898437-15.136719 4.300781-30.484375 8.457031-45.75 12.410157zm8.925781 55.003906c17.316407-5.53125 35.054688-10.382813 52.78125-14.445313l6.140626 21.242188c-18.074219 4.113281-35.980469 9.574219-53.296876 16.226562-1.902343-7.675781-3.773437-15.351562-5.625-23.023437zm61.503907 16.503906c.070312-.015625.132812-.050781.203125-.070312l18.746094 64.867187c-18.03125 6.957031-36.839844 11.925781-55.949219 14.804687-5.652344-21.046874-11.117188-42.152343-16.414063-63.273437 17.335938-6.722656 35.289063-12.222656 53.414063-16.328125zm-314.5625-184.519531c5.816406-6.355469 10.628906-13.6875 15.289062-20.78125l.65625-1c.554688-.84375 1.09375-1.722657 1.640625-2.613281 2.097656-3.425782 4.078125-6.660157 6.964844-7.496094 3.742188-1.085938 8.890625-.417969 9.730469.542968 2.257812 3.78125 3.34375 10.539063 4.300781 16.503907.503906 3.152343.984375 6.125 1.625 8.761719 1.179688 4.84375 2.394531 9.847656 2.792969 14.707031.027343.324219.042969.65625.0625.984375-15.675781-1.242188-31.511719-2.691406-47.207031-4.304688 1.082031-1.527344 2.296874-3.035156 3.570312-4.601562zm-26.363281 168.65625c18.15625 3.71875 36.695312 5.621093 55.226562 5.621093.851562 0 1.699219-.011718 2.546875-.019531l-2.035156 27.339844c-19.394531-.78125-38.941407-2.351563-58.207031-4.671875.789062-9.417969 1.609374-18.84375 2.46875-28.269531zm69.285156-148.988281c-.085938 1.292968-.179688 2.582031-.273438 3.855468l-2.332031 31.269532c-17.886719-2.332032-36.042969-3.949219-54.050781-4.808594.886718-7.285156 1.78125-14.5625 2.710937-21.824219.542969-4.265625 1.136719-8.886719 2.363281-13.226563 17.125 1.789063 34.453126 3.386719 51.582032 4.734376zm-57.859375 40.304687c18.15625.847656 36.476562 2.480469 54.507812 4.84375l-1.644531 22.050781c-18.375-2.4375-37.058594-3.554687-55.609375-3.351562.890625-7.859375 1.808594-15.703125 2.746094-23.542969zm-3.851563 33.59375c18.59375-.261719 37.335938.835937 55.753906 3.300781.074219.007813.144532.007813.214844.011719l-5.019531 67.328125c-19.328125.238281-38.683594-1.652344-57.601563-5.609375 2.03125-21.695313 4.257813-43.386719 6.652344-65.03125zm-13.460937 153.640625c-.425781-.84375-.292969-2.695312-.195313-4.046875.863282-12.050781 1.808594-24.132813 2.789063-36.222656 19.292969 2.316406 38.863281 3.886719 58.28125 4.679687l-3.351563 45.003906c-17.917968 1.75-36.191406-.582031-53.09375-6.804687-1.144531-.421875-3.820312-1.40625-4.429687-2.609375zm36.210937 66.695312c-.546875-15.625-.164062-31.382812 1.117188-46.960937 2.859375.191406 5.722656.285156 8.589844.285156 5.667968 0 11.335937-.371093 16.960937-1.117187 2.355469-.308594 4.171875-2.230469 4.347656-4.601563l17.683594-237.238281c.398437-5.332031.808594-10.84375.347656-16.460938-.460937-5.648437-1.773437-11.042968-3.046875-16.261718-.546875-2.246094-.992187-5.03125-1.464844-7.980469-1.101562-6.855469-2.347656-14.625-5.597656-20.066406-4.296875-7.183594-16.101562-6.492188-21.144531-5.03125-3.898437 1.132812-6.675781 3.519531-8.855469 6.199219l1.863282-68.050782c.007812-.355468.027343-1.023437.085937-1.421875.328125-.125 1.066406-.304687 2.714844-.40625 94.613281-5.96875 191.035156-2.972656 284.28125-.078125 1.253906.039063 2.808593.089844 3.511719.484375 1.558593.882813 1.878906 5.289063 1.984374 6.738281 6.117188 83.558594 9.175782 168.257813 9.125 252.246094l-12.476562-43.175781c-1.484375-5.136719-3.019531-10.445313-5.410156-15.554687-2.402344-5.132813-5.511719-9.734376-8.519532-14.179688-1.292968-1.917969-2.683593-4.371094-4.152343-6.964844-3.417969-6.046875-7.296875-12.898437-12.238281-16.863281-6.527344-5.238281-17.351563-.480469-21.570313 2.644531-5.53125 4.105469-6.785156 10.46875-7.789063 15.582032-.179687.917968-.359374 1.828124-.5625 2.707031l-.265624 1.175781c-1.816407 7.929688-3.695313 16.128906-6.660157 23.394531-.039062.09375-.074219.191407-.109375.285157l-.332031.988281c-1.074219 3.144531-2.179687 6.402343-2.777344 9.925781-1.492187 8.808594.507813 17.390625 2.269531 24.964844 13.738282 59.027344 29.046876 118.378906 45.589844 176.910156-84.992187 1.460938-173.390625.789062-277.5-2.117188zm303.144532 36.554688c-1.21875.007812-4.070313.011719-5.058594-.902344-.695313-.640625-1.214844-2.425781-1.597656-3.726562-3.386719-11.597656-6.710938-23.25-10-34.921875 18.890624-4.550781 37.78125-9.894531 56.261718-15.917969l12.53125 43.359375c-16.1875 7.878906-34.125 12.054687-52.136718 12.109375zm0 0"/><path d="m328.148438 80.148438c-4.570313-8.230469-10.527344-17.210938-20.070313-21.410157-7.113281-3.128906-17.917969-4.246093-29 8.207031-6.710937 7.550782-11.703125 17.824219-15.71875 26.078126-1.207031 2.484374-2.347656 4.828124-3.335937 6.675781-11.257813 20.957031-22.628907 44.226562-34.761719 71.132812-5.515625 12.238281-11.226563 25.285157-17.964844 41.054688-11.277344 26.378906-20.929687 52.242187-15.300781 78.582031 2.472656 11.582031 10.265625 23.191406 22.125 23.191406h.25c4.769531-.066406 8.941406-2.109375 12.039062-3.882812 4.65625-2.664063 8.882813-5.832032 12.863282-9.21875-.167969 3.125-.085938 6.257812.25 9.351562.339843 3.148438 1.09375 7.160156 3.953124 10.253906 2.179688 2.355469 5.019532 3.554688 7.945313 3.890626-.570313 17.394531-1.851563 34.933593-3.839844 52.195312-.152343 1.328125.234375 2.667969 1.070313 3.710938.835937 1.046874 2.054687 1.714843 3.386718 1.855468 14.804688 1.570313 29.84375 2.363282 44.746094 2.363282.753906 0 1.507813-.003907 2.261719-.007813 2.472656-.011719 4.566406-1.824219 4.9375-4.269531 3.171875-21.011719 4.074219-42.417969 2.675781-63.621094-.019531-.335938-.078125-.664062-.164062-.976562 2.757812-1.742188 5.140625-3.992188 6.941406-6.394532 1.398438-1.867187 2.546875-3.839844 3.515625-5.871094 3.609375 6.363282 8.808594 11.425782 14.992187 14.304688 12.714844 5.917969 28.585938 1.210938 34.648438-10.277344 2.75-5.203125 3.265625-10.949218 3.53125-15.929687.976562-18.214844-.660156-36.445313-2.570312-55.074219-5.410157-52.71875-12.910157-108.1875-39.40625-155.914062zm-59.28125 24.300781c1.085937-2.023438 2.269531-4.460938 3.523437-7.035157 9.15625-18.847656 18.472656-35.28125 31.644531-29.488281 6.796875 2.992188 11.386719 9.984375 15.335938 17.097657 11.5 20.710937 19.300781 43.097656 24.894531 66.15625-1.199219.371093-2.269531 1.179687-2.921875 2.367187-2.304688 4.171875-5.894531 7.707031-10.105469 9.945313-4.292969 2.28125-10.347656 3.273437-14.191406.34375-2.679687-2.046876-3.972656-5.742188-4.585937-8.484376-.503907-2.246093-.765626-4.601562-1.042969-7.09375-.214844-1.910156-.433594-3.878906-.773438-5.875-.257812-1.507812-.859375-5.039062-3.566406-7.503906-2.992187-2.726562-7.667969-3.253906-11.632813-1.308594-3.207031 1.574219-5.253906 4.292969-6.515624 6.203126-4.089844 6.1875-6.054688 13.09375-7.957032 19.773437-1.375 4.832031-2.675781 9.398437-4.699218 13.550781-1.8125 3.714844-5.019532 7.714844-8.578126 7.792969-3.214843.101563-6.292968-3.148437-7.933593-5.917969-4.839844-8.183594-4.589844-18.355468-4.328125-29.121094.101562-4.191406.207031-8.523437 0-12.785156-.03125-.625-.1875-1.207031-.425782-1.746094 4.671876-9.40625 9.277344-18.339843 13.859376-26.871093zm25.800781 269.683593c-12.171875-.0625-24.429688-.664062-36.550781-1.796874 1.792968-16.734376 2.9375-33.6875 3.421874-50.484376 4.28125-2.53125 7.148438-6.429687 9.496094-9.9375 1.789063-2.671874 3.503906-5.40625 5.136719-8.191406 2.488281 6.15625 6.742187 12.304688 14.242187 14.398438 2.136719.59375 4.257813.75 6.324219.578125 1.101563 18.472656.414063 37.089843-2.070312 55.433593zm65.433593-83.53125c-.21875 4.089844-.585937 8.375-2.382812 11.777344-3.523438 6.675782-13.792969 9.46875-21.539062 5.863282-7.515626-3.5-13.019532-11.851563-14.359376-21.800782-.324218-2.386718-2.296874-4.207031-4.703124-4.339844-2.410157-.128906-4.566407 1.464844-5.144532 3.800782-1.5 6.042968-3.050781 12.289062-6.570312 16.984375-2.683594 3.582031-7.675782 6.851562-12.289063 5.5625-5.066406-1.414063-8.375-7.511719-10.410156-19.1875-.375-2.148438-2.089844-3.808594-4.25-4.109375-2.15625-.304688-4.261719.820312-5.210937 2.78125-3.078126 6.347656-6.625 12.535156-10.546876 18.390625-1.886718 2.816406-3.945312 5.679687-6.585937 7.09375-1.886719 1.007812-4.292969.972656-5.261719-.070313-.871094-.945312-1.183594-3.027344-1.34375-4.511718-.746094-6.914063.03125-14.050782 2.253906-20.640626.738282-2.191406-.117187-4.605468-2.070312-5.84375-.824219-.523437-1.757812-.78125-2.683594-.78125-1.265625 0-2.523437.480469-3.484375 1.40625-6.855469 6.597657-13.945312 13.421876-22.09375 18.085938-2.050781 1.171875-4.71875 2.523438-7.191406 2.558594-5.976563.105468-10.785156-7.609375-12.417969-15.253906-5.015625-23.460938 4.097656-47.699219 14.710938-72.535157 6.714844-15.707031 12.398437-28.695312 17.890625-40.875 3.691406-8.183593 7.308593-16.027343 10.875-23.566406-.09375 9.855469.558593 19.777344 5.832031 28.6875 4.027344 6.816406 10.164062 10.851563 16.472656 10.851563.101563 0 .207032 0 .3125-.003907 6.960938-.148437 13.300782-5.042969 17.390625-13.429687 2.414063-4.949219 3.898438-10.160156 5.332031-15.199219 1.769532-6.222656 3.441407-12.097656 6.675782-16.992187.964844-1.460938 1.800781-2.351563 2.558594-2.722657.171874-.082031.355468-.121093.492187-.132812.097656.242187.234375.71875.390625 1.621093.289062 1.707032.484375 3.453126.691406 5.300782.296875 2.648437.601563 5.390625 1.222656 8.164062 1.402344 6.273438 4.269532 11.210938 8.300782 14.28125 6.488281 4.949219 16.300781 5.160156 24.992187.539063 4.238281-2.253907 8.011719-5.453125 11.007813-9.238281 5.132812 24.480468 8.09375 49.519531 10.605468 73.972656 1.867188 18.21875 3.46875 36.019531 2.53125 53.511718zm0 0"/></svg>