<?xml version="1.0" ?><!DOCTYPE svg  PUBLIC '-//W3C//DTD SVG 1.1//EN'  'http://www.w3.org/Graphics/SVG/1.1/DTD/svg11.dtd'><svg enable-background="new 0 0 512 512" height="512px" id="Layer_1" version="1.1" viewBox="0 0 512 512" width="512px" xml:space="preserve" xmlns="http://www.w3.org/2000/svg" xmlns:xlink="http://www.w3.org/1999/xlink"><g><path clip-rule="evenodd" d="M477.75,133.648c-3.576-40.01-22.757-60.526-62.441-61.826   c-15.094-0.522-24.336-4.888-30.513-17.347c-17.021-34.019-46.303-40.637-80.577-37.234c-9.521,0.952-19.181,0.429-28.795,0.789   c-58.238,1.823-116.662,0.337-174.158,13.596C52.27,42.865,41.379,55.602,43.283,105.586c0.789,21.618,0.534,43.075-2.253,64.52   c-10.194,79.451-13.352,159.146-7.849,239.212c4.087,58.761,30.164,84.676,89.541,85.28c28.794,0.267,57.565,0,86.336,0v-2.438   c17.625,0.87,35.157,2.264,52.688,2.438c18.392,0.092,36.782-0.082,55.104-1.742c52.155-4.795,73.17-25.287,75.701-77.094   c1.045-20.318,6.618-27.029,27.726-26.867c45.188,0.268,61.049-13.933,59.655-58.68   C477.843,264.639,483.694,199.144,477.75,133.648z M367.52,413.672c-1.139,36.805-13.863,49.101-50.576,53.814   c-35.923,4.702-71.869-0.615-107.699,1.73c-30.35,0-60.793,0.533-91.05-0.163c-38.872-0.976-55.986-18.147-59.121-56.949   c-6.014-75.875-3.576-151.576,5.759-227.091c3.483-27.808,5.063-55.545,4.018-83.619c-1.138-32.266,2.601-35.935,34.437-43.958   c56.428-14.304,114.248-11.425,171.628-13.863c15.952-0.708,31.905-1.568,47.881-0.964c27.703,1.045,42.031,20.319,42.101,48.219   c0.278,60.526,3.32,120.958,4.017,181.485C369.517,319.405,369.075,366.579,367.52,413.672z M390.717,124.151   c1.557-14.211-0.859-27.123,19.785-26.948c25.032,0.255,42.123,14.733,41.682,38.64c-0.418,26.24-20.389,1.997-25.799,9.753   C407.715,147.093,387.489,155.534,390.717,124.151z M440.341,244.761c19.877-3.414,9.753,12.818,12.888,19.622   c2.717,39.325-28.934,21.526-45.072,27.111c-18.484,6.362-12.563-11.077-12.911-19.262   C394.038,245.969,390.369,253.214,440.341,244.761z M415.842,363.967c-10.473,0.859-21.99,2.612-21.107-16.835   c1.115-21.805,14.397-32.011,44.91-33.148c11.238-0.43,15.512,2.194,15.604,14.049   C455.504,355.515,448.004,363.259,415.842,363.967z M455.435,191.202c-2.368,27.122-8.987,33.67-49.021,32.544   c-22.663-0.708-12.214-20.063-13.352-30.791c-2.16-19.715,2.531-21.619,41.867-21.538   C447.307,169.234,457.246,170.291,455.435,191.202z" fill-rule="evenodd"/><path clip-rule="evenodd" d="M175.411,149.183c-33.671,18.658-53.71,48.312-64.462,83.271   c-11.68,38.024-12.377,77.616,19.808,107.003c25.288,22.931,57.565,34.1,84.339,34.982c24.22,0.522,39.662-3.924,55.011-8.371   c8.035-2.369,15.884-6.549,13.794-16.498c-2.369-10.555-11.611-9.51-19.553-8.104c-8.638,1.66-16.998,4.621-25.636,6.188   c-38.106,6.978-92.676-17.172-103.056-45.352c-18.855-51.098,15.93-121.028,68.874-138.479   c50.413-16.661,101.686,16.661,116.687,75.793c5.828,23.093-12.98,55.29-36.017,61.989c-10.542,3.065-15.441-2.253-16.835-11.251   c-2.09-14.199-2.879-28.585-4.621-42.819c-2.346-18.739-28.074-40.021-49.438-41.159c-20.318-1.126-40.126,12.214-44.654,32.625   c-3.832,17.091-4.97,34.796-6.362,52.317c-1.138,14.049,6.106,23.721,18.042,31.302c18.322,11.692,33.067,4.715,48.323-6.27   c5.573-4.109,9.939-15.175,20.83-2.879c18.484,20.841,33.136,21.107,56.334,5.41c46.233-31.139,52.944-56.52,29.839-113.365   C311.185,142.716,234.718,116.383,175.411,149.183z M234.532,254.607c-1.649,14.653-6.456,27.993-17.439,38.199   c-5.852,5.411-12.214,11.599-21.107,7.593c-9.149-4.283-6.804-13.352-7.152-22.338c1.648-9.846,2.438-21.097,5.596-31.732   c3.042-10.043,11.077-16.045,22.129-13.085C227.125,236.03,236.088,241.186,234.532,254.607z" fill-rule="evenodd"/></g></svg>