<?xml version="1.0" ?><!DOCTYPE svg  PUBLIC '-//W3C//DTD SVG 1.1//EN'  'http://www.w3.org/Graphics/SVG/1.1/DTD/svg11.dtd'><svg enable-background="new 0 0 512 512" height="512px" id="Layer_1" version="1.1" viewBox="0 0 512 512" width="512px" xml:space="preserve" xmlns="http://www.w3.org/2000/svg" xmlns:xlink="http://www.w3.org/1999/xlink"><g><path clip-rule="evenodd" d="M464.344,188.784c-15.074-45.929-41.227-81.871-79.965-109.888   c-37.835-27.331-78.604-37.985-127.955-49.068c-1.376-0.334-2.884-0.503-4.475-0.503c-1.572,0-3.208,0.169-4.735,0.494   l-2.961,0.607c-36.833,7.555-74.919,15.371-109.49,32.99c-49.179,24.959-79.951,59.717-94.069,106.259   c-20.38,67.108-2.313,130.633,18.049,183.916c12.578,32.989,29.301,56.226,51.125,71.016   c57.208,38.749,107.424,56.802,158.037,56.802c0,0,0.01,0,0.019,0c10.174,0,20.549-0.75,30.805-2.23   c24.06-3.474,55.413-9.26,84.736-23.272c24.435-11.536,39.681-32.926,54.426-53.603l0.603-0.859   c28.374-40.156,42.122-77.186,43.256-116.611C480.057,251.052,474.197,218.739,464.344,188.784z M248.69,459.488   c-14.749,0-28.977-5.539-44.046-11.408c-6.078-2.376-12.193-4.753-18.382-6.764c-10.96-3.656-21.563-9.188-31.824-14.534   l-4.013-2.084c-33.474-17.24-57.268-43.529-70.728-78.128c-18.218-46.848-34.831-102.831-19.936-162.854   c9.159-37.071,29.324-65.627,61.642-87.292c37.025-24.845,79.841-35.165,120.522-43.611c2.23-0.466,4.539-0.69,7.053-0.69   c5.402,0,10.919,1.083,16.257,2.134c1.792,0.352,3.574,0.704,5.375,1.019c46.976,8.017,87.479,26.989,120.377,56.391   c28.767,25.672,47.98,59.334,57.085,100.047c3.035,13.332,5.53,27.071,7.953,40.412c7.988,44.032-1.061,85.624-26.93,123.613   l-2.834,4.149c-18.181,26.691-35.356,51.902-67.551,63.292c-29.928,10.585-61.281,15.521-98.668,15.521l-2.134,0.009   C254.929,459.232,251.83,459.488,248.69,459.488z" fill-rule="evenodd"/><path clip-rule="evenodd" d="M237.42,189.483c0.79-11.833,7.979-19.187,19.639-19.187c0.014,0,0.027,0,0.041,0   c5.559,0.224,10.22,2.221,13.456,5.772c3.564,3.912,5.283,9.475,4.937,16.097c-0.366,8.154-3.712,15.471-10.504,23.026   l-8.953,9.923c-9.155,10.16-18.296,20.306-27.684,30.261c-19.799,21.248-15.37,41.55-8.076,63.973   c2.463,7.724,8.542,12.331,16.257,12.331h0.004c1.042,0,2.116-0.092,3.217-0.256c10.595-1.6,21.275-3.82,31.879-6.023   c7.148-1.518,11.518-5.559,11.993-11.07c1.975-21.325,16.509-32.596,31.884-44.525l2.203-1.709   c34.067-26.678,45.987-69.755,31.106-112.42c-13.346-38.113-44.682-59.105-88.457-59.105l-1.504-0.009   c-12.294,0-25.037,1.956-37.871,5.809c-38.14,11.229-66.093,55.773-59.814,95.313c1.975,12.975,8.972,19.557,20.796,19.557   c0.653,0,1.325-0.023,2.011-0.06c6.481-0.338,12.962-1.051,19.443-1.769c3.268-0.356,6.531-0.718,9.799-1.028   C235.5,212.222,235.952,211.755,237.42,189.483z M194.965,195.695c-1.376,0-2.825-0.064-4.365-0.188   c-5.96-0.439-7.436-1.947-7.084-14.786c0.594-23.227,18.748-48.757,39.644-55.75c13.163-4.415,25.521-6.559,37.78-6.559   c4.589,0,9.214,0.311,13.757,0.928c26.737,3.729,44.27,18.282,53.575,44.493c9.936,27.715,6.006,52.433-11.683,73.471   c-5.776,6.855-12.724,13.4-21.271,20.009c-11.17,8.721-23.83,18.606-27.743,34.019c-2.778,10.822-8.455,15.457-19.634,15.979   c-0.75,0.036-1.495,0.072-2.212,0.072c-3.213,0-5.548-0.648-6.485-3.82c-2.943-9.644-5.201-19.781,2.189-28.41   c13.83-16.326,28.145-32.437,41.609-47.528c7.021-7.738,11.608-17.267,14.022-29.141c4.516-22.395-7.807-42.889-29.278-48.73   c-4.525-1.215-8.954-1.833-13.182-1.833c-17.788,0-31.316,10.736-37.126,29.461C213.356,190.731,207.255,195.695,194.965,195.695z" fill-rule="evenodd"/><path clip-rule="evenodd" d="M295.729,379.341c0.348-27.368-17.551-44.699-47.272-45.221   c-19.584,0-34.996,17.807-35.083,40.54c-0.046,13.218,4.89,25.787,13.542,34.462c6.956,6.983,15.777,10.822,24.84,10.822h0.138   C274.906,419.688,295.383,400.712,295.729,379.341z M253.11,396.836c-3.99,0-8.282-2.065-11.778-5.667   c-4.365-4.497-6.869-10.622-6.7-16.38c0.448-10.769,6.407-16.18,18.218-16.527l1.102-0.019c12.326,0,18.835,6.7,18.835,19.388   C272.786,388.317,264.239,396.754,253.11,396.836z" fill-rule="evenodd"/></g></svg>