<?xml version="1.0" encoding="iso-8859-1"?>
<!-- Generator: Adobe Illustrator 19.0.0, SVG Export Plug-In . SVG Version: 6.00 Build 0)  -->
<svg version="1.1" id="Capa_1" xmlns="http://www.w3.org/2000/svg" xmlns:xlink="http://www.w3.org/1999/xlink" x="0px" y="0px"
	 viewBox="0 0 512 512" style="enable-background:new 0 0 512 512;" xml:space="preserve">
<g>
	<g>
		<path d="M472.625,397.646c-9.14-25.565-19.443-50.783-29.395-76.042c-2.838-7.202-5.662-14.409-8.523-21.602
			c-2.339-5.881-4.226-12.584-8.163-17.637c-8.711-11.181-23.672-6.719-35.174-3.336c-12.95,3.81-25.567,9.167-37.392,15.674
			c-0.921,0.507-1.854,1.024-2.79,1.548c-1.517,0.82-3.018,1.668-4.484,2.57c-0.207,0.128-0.413,0.261-0.619,0.39
			c-4.055,2.463-8.011,5.198-11.414,8.415c-11.977,10.358-21.219,23.949-24.108,39.717c-0.988,5.388-1.299,10.818-1.091,16.248
			c-0.229,0.052-0.46,0.117-0.694,0.2c-17.713,6.304-30.04-8.888-38.123-22.535c-9.379-15.835-17.257-32.648-24.076-49.729
			c-6.817-17.078-14.336-35.397-16.887-53.704c-1.191-8.545-0.693-17.3,2.781-25.282c2.738-6.293,7.533-11.157,12.95-15.205
			c2.587,3.788,5.335,7.427,8.279,10.857c6.835,7.963,15.704,14.346,26.072,16.646c11.974,2.656,24.797,1.13,36.865-0.119
			c22.45-2.323,46.837-9.915,56.454-32.472c9.494-22.269,1.602-48.274-6.105-69.83c-9.14-25.565-19.442-50.783-29.395-76.042
			c-2.838-7.202-5.662-14.409-8.522-21.602c-2.339-5.881-4.226-12.584-8.163-17.637c-8.711-11.181-23.672-6.719-35.174-3.335
			c-12.95,3.809-25.567,9.167-37.392,15.673c-0.921,0.507-1.854,1.024-2.79,1.548c-1.517,0.82-3.018,1.667-4.484,2.57
			c-0.207,0.128-0.413,0.26-0.619,0.39c-4.055,2.463-8.011,5.198-11.415,8.415c-11.976,10.358-21.219,23.949-24.108,39.717
			c-0.813,4.438-1.163,8.903-1.147,13.373c-15.465,5.485-30.109,14.254-42.858,24.451c-13.792,11.031-20.909,25.936-22.738,43.344
			c-1.938,18.437,0.665,37.557,3.689,55.738c3.228,19.407,8.072,38.479,13.913,57.257c11.677,37.541,26.25,74.359,41.979,110.372
			c7.834,17.937,16.018,35.802,25.176,53.107c0.67,1.266,1.355,2.531,2.046,3.794c-28.806,9.175-57.425,18.504-86.784,25.878
			c-30.693,7.709-62.01,13.579-93.433,17.353c-5.201,0.625-11.255,0.666-14.11,5.899c-2.438,4.468-1.942,11.91-0.763,16.698
			c3.634,14.773,20.877,12.6,32.723,12.392c30.974-0.546,61.705-6.752,91.423-15.175c16.759-4.75,33.294-10.253,49.743-15.976
			c13.831-4.813,29.486-8.652,41.201-17.885c2.488,2.741,5.116,5.351,7.924,7.777c28.863,24.931,72.133,25.753,107.144,15.207
			c0.359-0.108,0.687-0.242,1-0.387c6.58,7.063,14.833,12.624,24.357,14.737c11.973,2.656,24.797,1.13,36.865-0.119
			c22.45-2.323,46.837-9.915,56.454-32.472C488.223,445.207,480.332,419.202,472.625,397.646z M277.167,18.248
			c3.546-1.155,7.101-2.315,10.665-3.459c2.737-0.607,5.489-1.149,8.255-1.617c4.275-0.723,10.396-2.15,13.747,1.433
			c3.032,3.242,4.253,8.758,5.819,12.778c2.298,5.901,4.629,11.789,6.951,17.68c8.751,22.209,17.692,44.341,26.501,66.527
			c7.753,19.526,17.125,41.117,15.564,62.586c-1.183,16.271-11.278,26.377-24.468,32.102
			c-13.368-31.328-26.985-62.551-40.505-93.815c-6.87-15.887-13.675-31.817-20.765-47.608c-3.343-7.447-6.515-14.937-9.562-22.509
			c-2.368-5.884-4.341-12.465-7.072-18.348C267.135,21.806,272.107,19.897,277.167,18.248z M245.067,33.637
			c3.969-2.737,8.122-5.156,12.401-7.326c0.558,6.149,2.47,12.641,4.079,18.193c2.185,7.536,5.026,14.927,7.795,22.264
			c6.214,16.467,13.224,32.676,19.946,48.942c13.009,31.482,25.922,63.006,39.077,94.427c-1.258,0.293-2.526,0.558-3.802,0.794
			c-10.652,1.971-22.026,3.044-32.862,2.918c-10.232-0.118-18.948-3.447-26.279-10.613c-6.729-6.577-11.626-14.734-16.276-22.841
			c-5.453-9.506-10.432-19.269-14.918-29.267c-8.843-19.707-18.4-42.131-19.122-63.999
			C214.365,64.726,227.085,46.038,245.067,33.637z M204.945,469.764c-13.278,4.649-26.6,9.178-40.049,13.311
			c-26.884,8.261-54.38,15.068-82.474,17.409c-6.917,0.577-13.855,0.896-20.796,0.925c-3.316,0.013-6.632-0.039-9.947-0.162
			c-2.661-0.099-7.514,0.526-9.775-1.285c-2.334-1.868-3.074-10.911-1.664-11.851c1.897-1.265,7.161-0.816,9.472-1.082
			c3.623-0.417,7.243-0.862,10.859-1.335c27.836-3.642,55.314-9.077,82.456-16.251c28.959-7.655,58.004-17.379,85.022-30.46
			c3.22,5.536,6.705,10.949,10.568,16.055C229.147,462.662,216.187,465.828,204.945,469.764z M267.513,465.627
			c-13.212-8.984-22.696-22.309-30.516-36.006c-8.522-14.927-15.871-30.586-23.056-46.189
			c-15.477-33.613-29.399-68.079-41.621-103.009c-12.031-34.387-21.86-69.936-23.502-106.507
			c-0.829-18.451,0.745-37.097,14.084-51.08c11.738-12.305,27.052-20.889,41.193-30.342c1.569,18.374,8.678,36.645,15.496,53.267
			c6.288,15.33,13.248,31.576,22.266,46.082c-10.913,2.875-18.358,14.115-21.204,24.72c-4.512,16.814,0.691,34.429,5.651,50.512
			c5.184,16.808,10.97,33.45,18.073,49.554c6.63,15.033,14.03,30.724,24.26,43.683c10.002,12.671,26.361,21.854,42.263,16.298
			c2.69,15.345,8.61,30.442,14.327,44.379c7.392,18.021,15.709,37.308,27.216,53.542
			C323.808,480.454,292.951,482.924,267.513,465.627z M430.198,486.16c-10.653,1.971-22.026,3.044-32.862,2.919
			c-10.233-0.118-18.948-3.447-26.279-10.613c-6.729-6.577-11.626-14.734-16.276-22.84c-5.453-9.506-10.432-19.269-14.918-29.267
			c-8.844-19.707-18.4-42.131-19.122-63.999c-0.74-22.404,11.98-41.092,29.962-53.494c3.969-2.737,8.122-5.156,12.401-7.326
			c0.558,6.149,2.47,12.642,4.079,18.193c2.185,7.537,5.026,14.927,7.795,22.264c6.214,16.467,13.225,32.676,19.946,48.942
			c13.01,31.482,25.922,63.006,39.076,94.427C432.743,485.659,431.474,485.924,430.198,486.16z M470.305,449.406
			c-1.183,16.271-11.278,26.377-24.468,32.102c-13.368-31.328-26.985-62.551-40.504-93.815
			c-6.871-15.887-13.676-31.817-20.765-47.608c-3.343-7.447-6.515-14.937-9.561-22.509c-2.368-5.884-4.341-12.465-7.072-18.348
			c4.838-2.193,9.809-4.102,14.87-5.751c3.546-1.156,7.102-2.315,10.665-3.458c2.738-0.607,5.489-1.149,8.255-1.617
			c4.275-0.723,10.396-2.15,13.747,1.433c3.032,3.242,4.253,8.758,5.819,12.779c2.298,5.901,4.629,11.788,6.951,17.68
			c8.751,22.209,17.692,44.341,26.501,66.527C462.494,406.346,471.866,427.937,470.305,449.406z"/>
	</g>
</g>
<g>
</g>
<g>
</g>
<g>
</g>
<g>
</g>
<g>
</g>
<g>
</g>
<g>
</g>
<g>
</g>
<g>
</g>
<g>
</g>
<g>
</g>
<g>
</g>
<g>
</g>
<g>
</g>
<g>
</g>
</svg>
