<svg height="512pt" viewBox="-34 0 512 512.0004" width="512pt" xmlns="http://www.w3.org/2000/svg"><path d="m426.453125 192.636719c-14.152344-30.222657-35.707031-56.867188-62.332031-77.046875-28.398438-21.527344-63.089844-36.503906-100.242188-43.601563 5.511719-18.113281 4.425782-34.601562-3.175781-47.730469-9.574219-16.539062-30.363281-26.546874-49.429687-23.808593-16.710938 2.402343-31.421876 14.570312-36.613282 30.273437-3.820312 11.554688-3.027344 24.914063 2.34375 39.753906-53.019531 8.71875-100.332031 35.347657-131.960937 75.617188-4.816407 6.132812-9.304688 12.632812-13.34375 19.320312-21.34375 35.363282-32.292969 78.328126-31.6757815 124.25.5390625 39.667969 10.9492185 78.589844 30.1054685 112.550782 20.285156 35.957031 49.242188 63.875 83.75 80.738281 35.191406 17.199219 72.261719 27.15625 107.207032 28.792969 3.59375.171875 7.164062.253906 10.710937.253906 35.066406 0 67.789063-8.230469 97.40625-24.527344 49.269531-27.101562 85.503906-75.289062 104.789063-139.347656 5.878906-19.53125 9.542968-39.089844 10.882812-58.125 2.320312-33.007812-4.046875-66.675781-18.421875-97.363281zm-242.300781-158.773438c3.355468-10.144531 13.480468-21.347656 28.542968-23.515625 17.03125-2.453125 32.984376 7.921875 39.355469 18.917969 7.9375 13.710937 5.484375 29.65625 2.027344 40.613281-.042969.140625-.054687.28125-.085937.421875-9.023438-1.367187-18.167969-2.28125-27.382813-2.707031-13.355469-.617188-26.554687-.117188-39.460937 1.429688-5.234376-13.484376-6.25-25.3125-2.996094-35.160157zm250.746094 255.433594c-1.289063 18.296875-4.816407 37.121094-10.480469 55.945313-12.914063 42.886718-40.75 100.855468-100.035157 133.46875-30.976562 17.042968-65.570312 24.792968-102.832031 23.046874-33.59375-1.574218-69.308593-11.183593-103.285156-27.789062-32.675781-15.96875-60.140625-42.480469-79.425781-76.667969-18.339844-32.503906-28.300782-69.773437-28.816406-107.769531-.597657-44.050781 9.859374-85.183594 30.238281-118.949219 3.824219-6.339843 8.078125-12.5 12.644531-18.308593 37.214844-47.378907 97.371094-74.9375 162.527344-74.9375 3.558594 0 7.128906.082031 10.714844.25 48.949218 2.257812 95.800781 18.585937 131.929687 45.972656 25.335937 19.207031 45.847656 44.558594 59.316406 73.320312 13.65625 29.148438 19.707031 61.105469 17.503907 92.417969zm0 0"/><path d="m341.761719 143.0625c-31.757813-24.078125-72.867188-38.429688-115.75-40.40625-61.011719-2.820312-118.175781 21.902344-152.914063 66.128906-4.058594 5.164063-7.839844 10.644532-11.242187 16.28125-17.976563 29.78125-27.199219 65.953125-26.675781 104.609375.449218 33.398438 9.214843 66.164063 25.34375 94.757813 17.089843 30.292968 41.492187 53.816406 70.570312 68.027344 29.605469 14.46875 60.800781 22.84375 90.207031 24.222656 3.027344.144531 6.035157.214844 9.023438.214844 29.535156 0 57.105469-6.9375 82.0625-20.667969 41.496093-22.828125 72.011719-63.394531 88.246093-117.3125 4.949219-16.4375 8.03125-32.894531 9.160157-48.917969 1.957031-27.8125-3.410157-56.179688-15.523438-82.035156-11.921875-25.457032-30.078125-47.902344-52.507812-64.902344zm58.054687 146.238281c-1.078125 15.28125-4.023437 31.003907-8.757812 46.734375-10.78125 35.8125-34.019532 84.21875-83.492188 111.433594-25.839844 14.214844-54.707031 20.6875-85.796875 19.226562-28.058593-1.316406-57.894531-9.34375-86.285156-23.21875-27.25-13.320312-50.160156-35.433593-66.25-63.957031-15.308594-27.140625-23.628906-58.253906-24.058594-89.980469-.496093-36.785156 8.230469-71.125 25.238281-99.304687 3.191407-5.289063 6.738282-10.425781 10.546876-15.269531v-.003906c31.050781-39.53125 81.257812-62.523438 135.644531-62.523438 2.96875 0 5.953125.066406 8.945312.207031 40.878907 1.886719 80.003907 15.519531 110.167969 38.386719 43.234375 32.769531 67.792969 85.753906 64.097656 138.269531zm0 0"/><path d="m327.71875 160.378906c-28.015625-21.238281-64.269531-33.894531-102.082031-35.640625-53.820313-2.492187-104.261719 19.332031-134.917969 58.359375-3.582031 4.5625-6.921875 9.398438-9.925781 14.371094-15.855469 26.273438-23.996094 58.183594-23.535157 92.273438.847657 62.53125 34.074219 118.90625 84.652344 143.625 18.863282 9.21875 51.773438 22.175781 87.703125 22.171874 10.800781 0 21.875-1.167968 32.921875-3.964843 35.308594-8.933594 68.164063-31.644531 90.136719-62.308594 24.574219-34.296875 36.648437-78.058594 33.125-120.0625-3.742187-44.625-24.371094-83.273437-58.078125-108.824219zm16.824219 223.0625c-20.621094 28.773438-51.402344 50.074219-84.460938 58.4375-19.1875 4.855469-59.484375 9.039063-113.78125-17.496094-23.84375-11.652343-43.894531-31.007812-57.976562-55.972656-13.40625-23.765625-20.691407-51.015625-21.066407-78.800781-.4375-32.222656 7.207032-62.296875 22.097657-86.972656 2.789062-4.625 5.894531-9.121094 9.226562-13.363281 28.664063-36.492188 75.988281-56.882813 126.589844-54.546876 35.816406 1.65625 70.089844 13.59375 96.503906 33.621094 31.417969 23.816406 50.652344 59.933594 54.15625 101.691406 3.328125 39.671876-8.078125 81.003907-31.289062 113.402344zm0 0"/><path d="m287.972656 196.246094c-3.503906-2.542969-8.128906-2.332032-13.75.625-9.5 4.996094-19.003906 10.316406-28.191406 15.460937-4.644531 2.597657-9.285156 5.195313-13.941406 7.761719l-47.507813 26.191406c-3.800781 2.09375-8.527343 4.703125-11.875 8.949219-4.144531 5.265625-5.292969 11.746094-6.214843 16.949219-6.238282 35.203125-11.289063 71.082031-15.007813 106.636718-.191406 1.816407.625 3.589844 2.121094 4.628907.851562.59375 1.851562.894531 2.851562.894531.761719 0 1.523438-.175781 2.230469-.527344l116.59375-58.027344c.734375-.363281 1.363281-.902343 1.839844-1.566406 2.8125-3.929687 3.246094-10.496094 3.554687-19.347656.085938-2.359375.160157-4.589844.335938-5.933594l9.324219-71.542968c.136718-1.058594.375-2.441407.648437-4.046876 1.691406-9.875 3.792969-22.164062-3.011719-27.105468zm-111.636718 77.683594c.5-2.820313 1-5.339844 1.722656-7.550782 27.164062 19.398438 55.445312 37.785156 84.195312 54.722656l-99.847656 49.695313c3.585938-32.347656 8.261719-64.886719 13.929688-96.867187zm104.792968-52.265626c-.292968 1.710938-.546875 3.1875-.710937 4.445313l-9.320313 71.539063c-.238281 1.8125-.320312 4.160156-.414062 6.875-.082032 2.414062-.226563 6.429687-.617188 9.582031-29.40625-17.210938-58.335937-35.972657-86.089844-55.792969 1.675782-1.191406 3.570313-2.246094 5.433594-3.273438l47.507813-26.1875c4.675781-2.578124 9.335937-5.1875 13.996093-7.796874 9.136719-5.113282 18.582032-10.398438 27.960938-15.335938 1.804688-.949219 2.820312-1.167969 3.269531-1.21875 1.441407 2.800781-.398437 13.546875-1.015625 17.164062zm0 0"/><path d="m202.296875 192.941406h.023437c2.761719-.015625 4.988282-2.265625 4.976563-5.023437l-.085937-17.351563 13.300781 14.234375c1.308593 1.394531 3.300781 1.925781 5.125 1.363281 1.832031-.5625 3.175781-2.121093 3.46875-4.015624 1.457031-9.386719 1.640625-18.929688.550781-28.367188-.320312-2.746094-2.804688-4.710938-5.542969-4.394531-2.742187.316406-4.710937 2.796875-4.390625 5.542969.574219 4.972656.757813 9.976562.550782 14.96875l-14.472657-15.488282c-1.40625-1.503906-3.589843-1.992187-5.5-1.230468-1.914062.757812-3.164062 2.609374-3.152343 4.667968l.148437 30.117188c.011719 2.753906 2.25 4.976562 5 4.976562zm0 0"/><path d="m230.863281 382.933594c-4.078125-.164063-8.347656 1.292968-12.703125 4.328125-5.527344 3.855469-8.253906 8.925781-7.476562 13.90625.808594 5.199219 5.128906 9.179687 12.164062 11.214843.414063.121094.835938.238282 1.257813.355469 2.660156.746094 5.410156 1.515625 6.429687 2.957031.96875 1.367188.214844 4.09375-1.492187 5.402344-2.046875 1.570313-5.445313 1.972656-8.863281 1.042969-3.746094-1.019531-7.378907-3.355469-10.890626-5.617187-2.324218-1.496094-5.417968-.824219-6.910156 1.5-1.496094 2.320312-.824218 5.414062 1.496094 6.90625 3.960938 2.550781 8.445312 5.4375 13.683594 6.859374 2.078125.566407 4.164062.839844 6.191406.839844 4.285156 0 8.300781-1.230468 11.378906-3.59375 6.007813-4.609375 7.644532-13.363281 3.570313-19.121094-3.070313-4.335937-7.964844-5.703124-11.898438-6.804687-.390625-.109375-.785156-.222656-1.171875-.332031-3.289062-.953125-4.929687-2.300782-5.0625-3.148438-.128906-.832031.96875-2.527344 3.316406-4.164062 2.523438-1.757813 4.730469-2.617188 6.582032-2.539063 1.496094.058594 2.832031 1.019531 2.988281 1.804688.53125 2.710937 3.160156 4.476562 5.867187 3.945312 2.710938-.53125 4.476563-3.160156 3.945313-5.867187-1.074219-5.480469-6.292969-9.632813-12.402344-9.875zm0 0"/><path d="m106.570312 298.464844c-4.855468 2.125-10.210937 2.921875-15.480468 2.3125-.425782-.046875-.71875-.101563-.917969-.144532-.0625-.332031-.113281-.753906-.140625-.976562l-.882812-7.203125 9.226562-1.6875c2.71875-.496094 4.519531-3.097656 4.023438-5.8125-.496094-2.71875-3.097657-4.519531-5.816407-4.023437l-8.65625 1.578124-.734375-5.980468c5.171875-2.320313 10.957032-3.4375 16.589844-3.175782 2.753906.109376 5.101562-2.003906 5.230469-4.761718.128906-2.757813-2.003907-5.101563-4.761719-5.230469-8.582031-.398437-17.433594 1.710937-24.910156 5.945313-1.761719.996093-2.746094 2.953124-2.5 4.960937l3.265625 26.609375c.195312 1.582031.519531 4.230469 2.421875 6.4375 2.4375 2.824219 6.054687 3.242188 7.414062 3.398438 1.527344.175781 3.0625.265624 4.59375.265624 5.503906 0 10.972656-1.136718 16.039063-3.347656 2.527343-1.105468 3.683593-4.054687 2.578125-6.582031-1.101563-2.53125-4.050782-3.6875-6.582032-2.582031zm0 0"/><path d="m333.722656 276.148438c-1.191406 5.636718-2.484375 11.753906-4.667968 17.371093-2.179688-7.410156-2.726563-15.296875-1.519532-22.941406.433594-2.726563-1.429687-5.289063-4.15625-5.71875-2.730468-.425781-5.289062 1.429687-5.71875 4.160156-2.070312 13.113281.179688 26.808594 6.34375 38.570313.800782 1.53125 2.339844 2.539062 4.066406 2.664062.121094.011719.242188.015625.359376.015625 1.59375 0 3.105468-.761719 4.046874-2.066406 2.878907-3.964844 4.949219-8.304687 6.539063-12.746094 1.054687 2.257813 2.230469 4.453125 3.53125 6.5625.746094 1.210938 2.730469 4.433594 6.535156 5.132813 3.515625.640625 7.128907-1.21875 8.996094-4.617188 1.253906-2.285156 1.457031-4.664062 1.605469-6.398437l2.351562-27.496094c.234375-2.753906-1.804687-5.175781-4.554687-5.410156-2.753907-.238281-5.175781 1.804687-5.410157 4.554687l-2.292968 26.792969c-3.101563-5.617187-5.238282-11.84375-6.222656-18.164063-.371094-2.382812-2.394532-4.164062-4.804688-4.226562-2.421875-.085938-4.527344 1.597656-5.027344 3.960938zm0 0"/></svg>