<?xml version="1.0" encoding="iso-8859-1"?>
<!-- Generator: Adobe Illustrator 19.0.0, SVG Export Plug-In . SVG Version: 6.00 Build 0)  -->
<svg version="1.1" id="Capa_1" xmlns="http://www.w3.org/2000/svg" xmlns:xlink="http://www.w3.org/1999/xlink" x="0px" y="0px"
	 viewBox="0 0 512 512" style="enable-background:new 0 0 512 512;" xml:space="preserve">
<g>
	<g>
		<path d="M506.514,408.906c0.024-3.087-0.472-6.189-0.463-9.297c0.014-4.454,0.453-8.892,0.669-13.338
			c0.513-10.516,0.241-21.051-0.121-31.565c-0.397-11.542-0.344-23.096-0.183-34.642c0.209-14.947-0.181-29.93,0.367-44.889
			c0.397-10.834,0.72-21.659,0.804-32.501c0.111-14.304,0.444-28.614-0.036-42.915c-0.479-14.238-1.443-28.188-0.952-42.462
			c0.362-10.514,0.634-21.049,0.121-31.565c-0.216-4.446-0.655-8.884-0.669-13.338c-0.009-3.109,0.486-6.211,0.463-9.297
			c2.913-2.688,4.879-6.409,5.321-11.621c1.131-13.341-3.54-26.412-14.458-34.41c-10.332-7.568-23.613-10.309-36.042-12.09
			c-14.102-2.02-28.276-3.472-42.388-5.46c-11.392-1.606-22.811-3.002-34.237-4.344c-7.859-0.923-15.753-2.237-23.68-2.34
			c-8.205-0.107-16.998,1.09-23.675,6.227c-7.23,5.563-9.36,14.33-9.955,23.037c-0.21,3.069-0.311,6.115-0.402,9.153
			c-1.113-2.37-2.225-4.725-3.192-7.071c-2.799-6.785-5.656-13.562-9.548-19.804c-1.483-2.379-4.822-3.514-7.32-1.919
			c-12.63,8.068-16.745,22.816-25.821,33.839c-9.476-8.048-15.716-19.533-24.298-28.448c-1.991-2.068-6.079-2.325-8.026,0
			c-7.464,8.908-12.047,21.875-21.64,28.796c-2.258,1.629-2.681,1.073-4.608-1.137c-1.923-2.205-3.369-4.795-5.13-7.126
			c-5.347-7.074-12.855-13.078-19.21-19.243c-5.658-5.49-10.91-4.525-16.625,0.424c-6.905,5.979-14.277,11.867-20.708,18.337
			c-2.303,2.317-4.814,5.901-7.696,7.44c-3.437,1.836-5.822-2.075-8.118-4.592c-5.485-6.012-9.493-12.51-15.508-17.798
			c-1.568-10.529-7.137-26.877-20.436-20.58c-5.038,2.385-7.152,7.46-8.246,12.645c-0.172-0.067-0.336-0.139-0.514-0.201
			c-5.366-1.88-11.398-0.583-16.864,0.081c-7.776,0.943-15.638,1.329-23.432,2.191c-12.994,1.437-27.894,0.421-39.956,6.273
			C7.647,59.398,5.213,72.041,4.985,84.788c-0.278,15.499-0.497,30.687-1.873,46.161c-1.782,20.038-2.274,39.79-1.94,59.896
			c0.008,0.484,0.006,0.965,0.012,1.449c-0.438,4.969-0.76,9.939-1.01,14.926c-0.616,12.295,0.599,24.381,0.608,36.65
			c0.008,11.928-0.821,23.817-0.597,35.753c0.081,4.305,0.152,8.943,0.488,13.594c0.018,1.254,0.063,2.508,0.12,3.756
			c0.368,8.092,0.514,16.077,0.379,24.184c-0.334,20.106,0.158,39.858,1.94,59.896c1.376,15.475,1.595,30.662,1.873,46.161
			c0.228,12.747,2.661,25.39,15.116,31.432c12.062,5.852,26.962,4.836,39.956,6.273c7.794,0.862,15.656,1.248,23.432,2.191
			c5.466,0.663,11.498,1.96,16.864,0.08c0.179-0.063,0.342-0.134,0.514-0.201c1.094,5.185,3.208,10.26,8.246,12.645
			c13.299,6.297,18.868-10.051,20.436-20.58c6.015-5.289,10.023-11.786,15.508-17.798c2.296-2.517,4.681-6.427,8.118-4.592
			c2.883,1.539,5.394,5.123,7.696,7.44c6.431,6.471,13.803,12.359,20.708,18.338c5.715,4.949,10.967,5.913,16.625,0.424
			c6.355-6.165,13.863-12.169,19.21-19.243c1.762-2.331,3.207-4.921,5.13-7.126c1.927-2.209,2.35-2.765,4.608-1.137
			c9.593,6.921,14.176,19.888,21.64,28.796c1.948,2.325,6.035,2.068,8.026,0c8.582-8.915,14.822-20.401,24.298-28.448
			c9.076,11.023,13.191,25.772,25.821,33.839c2.497,1.595,5.836,0.46,7.32-1.919c3.892-6.242,6.749-13.019,9.548-19.804
			c0.968-2.346,2.079-4.701,3.192-7.071c0.091,3.038,0.193,6.084,0.402,9.153c0.595,8.707,2.725,17.474,9.955,23.037
			c6.677,5.137,15.469,6.334,23.675,6.227c7.927-0.104,15.821-1.418,23.68-2.34c11.426-1.342,22.845-2.739,34.237-4.344
			c14.111-1.989,28.286-3.44,42.388-5.461c12.43-1.781,25.711-4.522,36.042-12.09c10.918-7.997,15.589-21.068,14.458-34.409
			C511.393,415.314,509.427,411.593,506.514,408.906z M96.906,127.3c-0.289,18.056-1.013,36.102-1.444,54.155
			c-0.215,9.007-0.44,18.029-0.306,27.039c0.04,2.7,0.148,5.383,0.327,8.065c-0.488,6.916-0.97,13.832-1.268,20.759
			c-0.541,12.584-0.813,25.164-0.253,37.752c0.291,6.53,0.699,13.03,1.19,19.548c0.062,0.822,0.139,1.631,0.227,2.433
			c-0.119,2.148-0.192,4.298-0.224,6.46c-0.133,9.01,0.091,18.032,0.306,27.039c0.431,18.053,1.154,36.099,1.444,54.155
			c0.251,15.66-0.307,31.309-0.155,46.966c0.062,6.386,0.743,12.646,1.029,19c0.249,5.536-1.51,5.871-6.758,5.508
			c-14.001-0.968-27.952-2.953-41.943-4.112c-9.097-0.754-23.178,0.303-29.237-8.228c-3.501-4.929-3.434-12.712-3.724-18.518
			c-0.307-6.164-0.204-12.337-0.457-18.5c-0.623-15.19-2.726-30.294-3.768-45.457c-1.625-23.626,0.583-47.079,0.2-70.588
			c-0.416-25.519-0.84-51.039-1.507-76.553c0.394-5.177,0.786-10.355,0.795-15.537c0.025-16.033-0.589-32.026,0.513-48.041
			c1.043-15.163,3.145-30.267,3.768-45.457c0.253-6.164,0.15-12.337,0.457-18.5c0.289-5.806,0.223-13.589,3.724-18.518
			c6.059-8.531,20.141-7.474,29.237-8.228c13.992-1.159,27.943-3.145,41.943-4.113c5.249-0.363,7.008-0.028,6.758,5.508
			c-0.286,6.354-0.967,12.613-1.029,18.999C96.6,95.991,97.157,111.64,96.906,127.3z M117.427,174.668
			c0.332,10.803,0.842,21.596,0.941,32.405c0.088,9.62-0.968,19.175-0.346,28.767c-0.148,3.177-0.305,6.354-0.426,9.533
			c-0.366,9.611-0.816,19.294-0.49,28.911c0.119,3.499,0.359,7.012,0.721,10.506c0.098,6.705,0.601,13.406,0.54,20.14
			c-0.099,10.81-0.609,21.602-0.941,32.405c-0.687,22.333,0.858,44.618,1.8,66.92c0.474,11.205,0.843,22.432,0.696,33.649
			c-0.115,8.833,0.658,19.219-2.481,27.651c-0.802,2.153-2.084,5.599-4.6,3.898c-1.905-1.289-2.32-6.583-2.703-8.646
			c-0.343-1.848-0.618-3.712-0.857-5.584c0.667-5.496-0.371-11.763-0.519-16.861c-0.521-17.877,0.384-35.775,0.135-53.659
			c-0.252-18.057-0.985-36.102-1.416-54.155c-0.216-9.013-0.282-18.024-0.369-27.039c-0.043-4.51-0.119-9.007-0.45-13.507
			c-0.012-0.169-0.035-0.335-0.051-0.503c0.11-4.809-0.046-9.593-0.267-14.429c-0.609-13.329-0.258-26.641,0.302-39.965
			c0.535-12.729,1.439-25.634,1.037-38.37c-0.358-11.346,0.409-22.866,0.616-34.222c0.213-11.738,0.436-23.475,0.599-35.213
			c0.123-8.933-0.039-17.867-0.169-26.799c-0.065-4.489-0.122-8.977-0.13-13.466c-0.013-7.86,0.531-15.706,0.626-23.569
			c0.03-2.469-0.02-4.942,0.135-7.408c0.156-2.474,0.766-4.814,1.147-7.24c0.299-1.899,0.57-5.073,2.335-6.267
			c2.516-1.701,3.798,1.745,4.6,3.898c3.139,8.432,2.366,18.818,2.481,27.651c0.147,11.216-0.222,22.444-0.696,33.649
			C118.285,130.049,116.74,152.335,117.427,174.668z M146.513,300.382c0.042,20.605,0.131,41.11,0.711,61.727
			c0.32,11.398,0.526,22.801,0.398,34.204c-0.061,5.438-0.376,10.868-0.46,16.305c-0.06,3.84,1.324,8.91-1.218,12.28
			c-0.761,1.009-2.477,1.588-3.481,2.4c-2.979,2.407-5.273,5.552-7.589,8.567c-1.5,1.953-2.829,3.968-4.077,6.017
			c0.648-16.886-0.073-33.799-0.882-50.681c-0.832-17.344-1.447-34.711-1.147-52.078c0.157-9.112,0.515-18.22,0.52-27.334
			c0.004-8.642-1.201-17.278-1.157-25.881c0.082-16.156,0.164-32.311,0.246-48.467c0.198-38.891-0.325-77.788,1.538-116.641
			c0.809-16.882,1.53-33.795,0.882-50.681c1.248,2.049,2.577,4.064,4.077,6.017c2.316,3.015,4.61,6.16,7.589,8.567
			c1.004,0.811,2.72,1.391,3.481,2.4c2.542,3.37,1.158,8.44,1.218,12.28c0.085,5.437,0.399,10.868,0.46,16.305
			c0.128,11.403-0.077,22.806-0.398,34.204c-0.322,11.445-0.634,22.89-0.904,34.337c-0.231,9.791-0.337,19.598-0.366,29.414
			C145.869,242.541,146.454,271.515,146.513,300.382z M182.449,210.147c0.322,13.544-0.147,26.999-0.208,40.535
			c-0.059,13.023,0.541,26.038,0.643,39.059c0.1,12.644,0.559,25.014-0.194,37.649c-0.392,6.577-0.433,13.18-0.314,19.765
			c0.225,12.475,0.884,24.935,1.45,37.398c0.581,12.792,1.095,25.596,1.386,38.398c0.198,8.675-0.504,17.64-0.201,26.427
			c-0.778-0.709-1.548-1.428-2.336-2.126c-5.595-4.958-11.152-9.749-16.409-15.061c-3.542-3.579-9.424-6.526-10.391-12.031
			c-0.579-3.298,0.439-7.159,0.586-10.487c0.196-4.451,0.183-8.906,0.233-13.36c0.128-11.403-0.077-22.806-0.398-34.204
			c-0.322-11.45-0.898-22.891-1.343-34.337c-0.397-10.214,0.875-20.367,0.515-30.511c-0.214-6.032-0.049-12.078-0.05-18.114
			c-0.003-13.58-0.36-27.158-0.454-40.738c-0.124-18.013-0.709-36.196-0.011-54.181c0.445-11.445,1.021-22.887,1.343-34.337
			c0.321-11.398,0.526-22.801,0.398-34.204c-0.05-4.453-0.037-8.91-0.233-13.36c-0.147-3.328-1.166-7.189-0.586-10.487
			c0.967-5.505,6.849-8.451,10.391-12.03c5.257-5.312,10.814-10.103,16.409-15.061c0.788-0.698,1.557-1.417,2.336-2.126
			c-0.302,8.787,0.399,17.752,0.201,26.427c-0.291,12.803-0.805,25.606-1.386,38.398c-0.566,12.463-1.225,24.923-1.45,37.398
			c-0.118,6.527-0.187,13.135-0.197,19.764C182.165,193.131,182.248,201.685,182.449,210.147z M220.248,298.752
			c0.058,22.728,0.886,45.319,1.32,68.073c0.21,11.022,0.497,22.025,0.872,33.042c0.255,7.495,1.468,18.855-3.928,24.937
			c-7.355,8.289-14.718,16.321-22.855,23.906c-0.956,0.891-1.881,1.81-2.798,2.736c1.592-9.677,1.114-20.097,1.184-29.588
			c0.092-12.446-0.425-24.873-0.969-37.305c-0.78-17.822-2.699-34.927-2.612-52.768c0.33-68.117-0.367-136.291,2.612-204.335
			c0.545-12.432,1.061-24.859,0.969-37.305c-0.07-9.492,0.409-19.911-1.184-29.588c0.917,0.926,1.842,1.845,2.798,2.736
			c8.137,7.585,15.499,15.616,22.855,23.906c5.396,6.081,4.183,17.441,3.928,24.936c-0.375,11.018-0.662,22.02-0.872,33.042
			c-0.422,22.112-1.169,44.126-1.42,66.212c-0.064,5.653-0.096,11.311-0.081,16.977
			C220.067,251.828,220.188,275.291,220.248,298.752z M248.252,211.168c0.053,13.48,0.403,26.96,0.59,40.439
			c0.18,12.973,0.6,26.015,0.142,38.984c-0.729,20.62-1.545,41.454-0.482,61.963c0.765,14.778,1.278,29.541,1.527,44.334
			c0.215,12.812,0.66,25.613,0.847,38.425c0.058,3.932,0.165,7.865,0.198,11.797c-4.328-6.91-8.731-13.828-14.786-19.239
			c-1.81-1.617-3.824-3.109-6.021-4.088c1.121-7.525,0.825-15.456,0.71-22.851c-0.165-10.631-0.224-21.257-0.342-31.887
			c-0.397-35.802-1.262-71.531-1.262-107.378c-0.161-11.671-0.322-23.342-0.483-35.013c-0.143-10.368,0.894-20.803-0.057-31.095
			c1.373-17.472,1.61-35.242,1.802-52.6c0.118-10.63,0.177-21.256,0.342-31.887c0.115-7.395,0.411-15.326-0.71-22.851
			c2.196-0.979,4.211-2.47,6.021-4.088c6.055-5.412,10.458-12.33,14.786-19.239c-0.033,3.932-0.141,7.865-0.198,11.797
			c-0.187,12.812-0.632,25.613-0.847,38.425c-0.249,14.793-0.761,29.557-1.527,44.334c0,7.644-0.053,15.263-0.032,22.891
			C247.271,191.827,248.217,202.107,248.252,211.168z M278.643,195.24c-0.386,6.559-0.149,13.233-0.269,19.581
			c-0.211,11.138-0.214,22.279-0.239,33.419c-0.024,10.974-0.218,21.959-0.019,32.932c0.314,17.279,0.405,35.057,0.717,52.53
			c0.204,11.412,0.91,22.828,1.5,34.225c0.584,11.305,0.706,22.535,0.664,33.852c-0.018,4.801,0.591,9.747,0.044,14.533
			c-0.33,2.883-1.173,6.516-3.195,8.732c-1.843,2.02-4.664,3.16-6.633,5.16c-2.45,2.489-4.707,5.158-6.903,7.871
			c-1.126,1.39-5.914,5.784-5.939,7.468c0.033-2.267-0.043-4.304-0.029-5.614c0.142-12.902,0.106-25.709-0.253-38.614
			c-0.911-32.702-1.735-65.424-1.237-98.155c0.261-17.153,0.412-34.546,0.177-51.552c-0.181-13.105-0.329-26.215-0.682-39.316
			c-0.474-17.616-0.605-35.305,0.289-52.842c0.828-16.256,1-32.499,1.453-48.761c0.36-12.905,0.395-25.712,0.253-38.614
			c-0.014-1.31,0.062-3.346,0.029-5.614c0.025,1.684,4.813,6.078,5.939,7.468c2.196,2.712,4.453,5.382,6.903,7.871
			c1.969,2,4.79,3.14,6.633,5.16c2.022,2.216,2.865,5.849,3.195,8.732c0.547,4.785-0.062,9.732-0.044,14.533
			c0.042,11.317-0.08,22.547-0.664,33.852c-0.589,11.397-1.296,22.814-1.5,34.225C278.734,183.845,278.51,189.558,278.643,195.24z
			 M300.331,202.071c-0.173,1.815-0.293,3.628-0.323,5.436c-0.213,12.912-0.238,25.774-0.669,38.685
			c-0.425,12.737-0.186,25.489-0.165,38.23c0.011,6.593-0.092,13.191-0.006,19.783c0.337,25.915,0.299,51.682,1.851,77.656
			c0.823,13.779,1.236,27.581,1.756,41.374c0.353,9.35,0.253,18.885,0.929,28.291c-3.782-5.254-6.627-11.093-9.99-16.608
			c-3.251-5.332-3.729-9.553-3.855-15.719c-0.089-4.36-0.731-8.697-0.671-13.062c0.161-11.661,0.676-23.25,0.091-34.909
			c-0.609-12.137-1.007-24.287-1.647-36.422c-0.942-17.852-0.765-35.745-1.01-53.635c-0.15-10.975-0.066-21.956-0.116-32.932
			c-0.05-11.14-0.106-22.281-0.363-33.419c-0.09-3.891-0.045-7.905-0.088-11.939c1.125-8.488,1.134-17.268,1.578-25.685
			c0.64-12.135,1.039-24.284,1.647-36.422c0.585-11.659,0.069-23.248-0.091-34.909c-0.06-4.365,0.583-8.702,0.671-13.062
			c0.126-6.167,0.604-10.387,3.855-15.719c3.363-5.515,6.208-11.355,9.99-16.608c-0.676,9.406-0.576,18.941-0.929,28.291
			c-0.521,13.793-0.933,27.595-1.756,41.374C299.588,154.078,299.428,178.116,300.331,202.071z M321.224,281.779
			c0.429,9.423,0.502,18.823,0.924,28.217c0.323,7.194,0.725,14.388,0.835,21.59c0.223,14.497,0.312,28.993,0.584,43.491
			c0.222,11.834,0.507,23.691,0.496,35.528c-0.005,5.423,0.657,10.598-1.683,15.525c-2.429,5.113-5.072,10.128-7.186,15.385
			c-1.247,3.102-2.523,6.16-3.899,9.165c0.399-10.632-0.272-21.447-0.466-31.956c-0.246-13.366-0.784-26.74-1.572-40.085
			c-0.776-13.159-1.571-26.228-1.551-39.417c0.027-18.217-0.1-36.725-0.158-54.8c-0.044-13.473-0.224-26.945,0.113-40.416
			c0.323-12.911,0.257-25.721-0.137-38.632c-0.204-6.665,1.404-14.143,0.129-20.834c0.123-4,0.059-7.977,0.054-11.76
			c-0.019-13.188,0.775-26.257,1.551-39.417c0.787-13.345,1.326-26.719,1.572-40.085c0.193-10.509,0.865-21.324,0.466-31.956
			c1.376,3.005,2.651,6.063,3.899,9.165c2.114,5.257,4.758,10.272,7.186,15.385c2.34,4.926,1.678,10.102,1.683,15.525
			c0.011,11.836-0.274,23.693-0.496,35.528c-0.272,14.497-0.361,28.994-0.584,43.491c-0.063,4.085-0.221,8.166-0.404,12.247
			c-1.688,16.858-1.331,34.154-1.611,50.853C320.754,256.276,320.643,269.026,321.224,281.779z M498.076,434.761
			c-1.514,4.567-4.705,8.217-8.647,10.896c-9.454,6.423-21.745,8.43-32.844,9.934c-12.884,1.746-25.78,3.132-38.652,5.01
			c-17.779,2.594-35.96,5.637-53.925,6.577c-6.327,0.331-14.151,0.501-19.45-3.576c-5.918-4.552-5.998-13.453-6.282-20.239
			c-0.45-10.751-2.813-21.89-2.096-32.638c0.666-9.981,0.24-20.055,0.14-30.048c-0.155-15.644-0.287-31.288-0.406-46.932
			c-0.058-7.564-0.444-15.117-0.78-22.672c-0.135-3.033-0.095-6.441-0.36-9.797c0.411-6.16,0.236-12.252-0.075-18.435
			c-0.677-13.474-0.61-26.94-0.429-40.425c0.125-9.339,0.128-18.691,0.064-28.038c0.76-4.458,0.615-9.307,0.799-13.456
			c0.335-7.555,0.722-15.108,0.78-22.672c0.119-15.644,0.251-31.288,0.406-46.932c0.1-9.993,0.525-20.067-0.14-30.048
			c-0.717-10.748,1.646-21.888,2.096-32.638c0.284-6.786,0.364-15.686,6.282-20.239c5.299-4.076,13.122-3.907,19.45-3.576
			c17.965,0.939,36.146,3.983,53.925,6.577c12.872,1.878,25.768,3.264,38.652,5.01c11.099,1.504,23.389,3.512,32.844,9.935
			c3.942,2.678,7.133,6.329,8.647,10.896c1.516,4.571,3.78,14.587-1.192,17.357c-6.234,3.478-15.123,2.376-21.986,2.876
			c-10.44,0.762-20.804,0.875-31.268,0.918c-14.942,0.062-33.673-1.25-43.499,12.293c-8.253,11.375-7.321,26.922-8.476,40.249
			c-1.037,11.971-2.444,23.91-3.618,35.868c-0.57,5.809-1.003,11.623-1.021,17.461c-0.001,0.263,0.009,0.516,0.012,0.775
			c-1.35,13.725-1.189,27.383-0.924,41.158c0.203,10.551,0.094,21.106,0.318,31.657c0.335,15.729,0.078,31.702,1.615,47.356
			c1.174,11.958,2.58,23.897,3.618,35.868c1.155,13.327,0.223,28.874,8.476,40.249c9.826,13.544,28.558,12.231,43.499,12.293
			c10.465,0.044,20.828,0.156,31.268,0.918c6.863,0.501,15.752-0.601,21.987,2.873C501.856,420.175,499.592,430.19,498.076,434.761z
			 M495.012,403.413c-7.749-1.801-16.724-1.687-23.635-2.236c-11.369-0.904-22.773-0.487-34.163-0.733
			c-7.734-0.167-18.813,0.836-24.977-4.866c-2.201-2.036-3.74-4.658-4.83-7.616c7.27,1.376,14.837,1.389,22.196,1.689
			c9.022,0.368,17.985,0.084,27.003-0.173c8.413-0.24,16.833-0.115,25.245-0.425c3.97-0.146,8.856,0.077,13.252-0.766
			c-0.002,0.17,0,0.341-0.003,0.511C495.042,392.948,494.495,398.389,495.012,403.413z M398.392,215.365
			c9.376,1.578,18.865,0.598,28.322,0.612c9.477,0.014,23.484,3.921,29.581-5.08c0.187-0.276,0.346-0.586,0.485-0.914
			c6.278-0.083,12.55-0.255,18.834-0.529c4.971-0.217,10.076-0.262,15.048-0.139c3.334,0.082,3.976,1.729,4.059,4.665
			c0.11,3.886,0.139,7.784,0.079,11.722c-6.14-1.286-12.855-1.215-18.848-1.199c-6.583,0.017-13.166,0.066-19.749,0.111
			c-0.985-1.644-2.722-2.824-5.224-2.817c-8.893,0.025-17.785-0.107-26.677-0.257c-8.11-0.147-16.227-0.383-24.319-0.41
			c-0.95-0.003-1.376,0.248-1.611-0.632C398.248,220.034,398.593,215.399,398.392,215.365z M423.372,160.794
			c9.06,0.307,17.997,1.399,27.067,0.625c4.408-0.376,7.148-2.89,8.231-5.936c4.402,0.054,8.804,0.112,13.206,0.157
			c7.258,0.075,14.861,0.659,22.174,0.141c-0.324,6.315-0.473,12.626-0.526,18.939c-4.412-0.745-9.828,0.18-13.595,0.152
			c-6.583-0.05-13.167-0.113-19.75-0.162c-1.862-2.397-5.074-3.878-7.941-3.949c-8.949-0.222-17.951-0.592-26.886-1.136
			c-3.927-0.239-7.825-0.924-11.752-1.11c-3.275-0.155-6.075,0.217-9.204-0.918c-0.57-0.207-1.152-0.338-1.739-0.406
			c0.271-2.539,0.548-5.078,0.811-7.618C409.707,161.376,417.447,160.593,423.372,160.794z M404.728,140.998
			c0.186-4.033,0.504-8.199,1.311-12.075c7.366,1.374,14.961,0.745,22.454,0.608c9.07-0.166,18.063-0.06,27.126,0.262
			c8.064,0.286,16.137,0.201,24.202,0.47c4.669,0.156,10.154,1.322,15.253,1.283c-0.098,5.435-0.34,10.874-0.616,16.303
			c-7.071-0.553-14.423-0.062-21.46-0.099c-5.031-0.026-10.063-0.065-15.094-0.101c-1.384-2.305-3.871-4.069-7.465-4.406
			c-8.633-0.81-17.406-1.125-26.072-1.573C418.481,141.366,411.066,140.324,404.728,140.998z M422.399,189.654
			c9.917,0.337,19.914,0.503,29.84,0.627c3.966,0.05,8.653-3.041,9.411-7.166c0.027-0.145,0.037-0.273,0.059-0.412
			c5.704,0.06,11.407,0.108,17.111,0.146c4.431,0.029,8.872,0.13,13.302,0.07c0.501-0.007,0.958-0.013,1.385-0.024
			c0.01,2.268,0.024,4.537,0.053,6.807c0.041,3.177-0.175,6.941-0.208,10.811c-6.653-0.372-13.856,0.786-19.915,1.054
			c-6.039,0.267-12.072,0.417-18.108,0.506c-3.276-3.721-6.627-4.148-11.828-4.433c-5.249-0.288-10.484-0.802-15.736-1.031
			c-9.319-0.405-18.946,0.545-28.206-0.49c0.324-2.712,0.616-5.428,0.893-8.143C407.115,190.288,415.945,189.434,422.399,189.654z
			 M419.708,237.282c6.302-0.074,12.627-0.129,18.928,0.005c5.944,0.127,11.984-0.336,16.946-4.199
			c5.043-3.926,15.087-1.971,21.47-1.959c5.558,0.01,11.911,0.666,17.68-0.329c-0.036,4.318-0.051,8.637-0.099,12.961
			c-0.036,3.223-0.102,6.443-0.179,9.663c-3.052-0.222-6.286-0.099-9.141-0.413c-8.669-0.954-17.415-1.301-26.136-1.563
			c-0.578-1.167-1.483-2.183-2.745-2.865c-4.723-2.554-9.421-1.587-14.591-1.49c-4.899,0.092-9.804-0.055-14.694-0.338
			c-4.969-0.288-9.915-0.896-14.9-0.86c-3.694,0.027-7.434,0.824-11.127,0.758c-0.712-0.078-1.438-0.13-2.191-0.143
			c-0.036-0.001-0.069,0.004-0.104,0.003c-0.089-3.673-0.175-7.346-0.254-11.019C404.782,238.354,413.56,237.354,419.708,237.282z
			 M399.169,261.702c3.744,0.399,7.31-0.193,11.164-0.286c5.33-0.128,10.596,0.556,15.9,0.945c4.885,0.358,9.786,0.557,14.684,0.63
			c5.224,0.078,10.859,0.652,15.515-1.995c1.169-0.664,2.046-1.63,2.633-2.74c8.759,0.315,17.546,0.708,26.249,1.728
			c1.372,0.161,5.274,0.906,8.935,0.956c-0.158,5.097-0.344,10.193-0.535,15.292c-0.059,1.576-0.119,3.153-0.173,4.729
			c-2.743-0.489-5.599-0.32-8.492-0.423c-5.207-0.185-10.412-0.458-15.617-0.701c-5.563-0.259-11.117-0.434-16.674-0.556
			c-0.289-0.511-0.661-0.992-1.131-1.42c-3.375-3.079-7.154-3.079-11.494-2.724c-4.558,0.373-9.108,0.358-13.681,0.405
			c-4.88,0.05-9.758-0.023-14.638-0.006c-4.354,0.015-8.101-0.502-12.399-0.628C399.026,270.568,399.257,266.071,399.169,261.702z
			 M399.227,288.81c0.002-0.088,0.003-0.177,0.005-0.265c2.601,0.266,5.254,0.144,7.888,0.182
			c5.289,0.075,10.567,0.469,15.858,0.534c4.534,0.056,9.095,0.234,13.628,0.12c3.865-0.098,8.467,0.247,12.177-0.746
			c1.456-0.39,2.638-1.304,3.459-2.47c6.475,0.167,12.944,0.434,19.421,0.756c4.461,0.222,8.922,0.427,13.386,0.564
			c2.871,0.088,5.657,0.361,8.358-0.045c-0.015,4.327,0.163,8.633,0.811,12.886c-0.175,0.845-0.326,1.703-0.44,2.579
			c-6.053-0.591-12.545-0.111-18.164-0.356c-7.833-0.342-15.648-0.531-23.48-0.572c-0.117-0.125-0.219-0.265-0.347-0.376
			c-6.46-5.57-16.175-4.311-24.269-4.457c-9.446-0.171-18.887-0.343-28.329-0.687c-0.066-0.002-0.131,0.005-0.198,0.004
			C399.086,293.912,399.162,291.362,399.227,288.81z M428.375,316.117c8.806,0.153,18.886,2.485,24.505-6.053
			c0.034-0.052,0.054-0.116,0.087-0.17c6.825,0.08,13.644,0.239,20.471,0.541c6.06,0.268,13.263,1.426,19.915,1.054
			c0.033,3.87,0.249,7.634,0.208,10.811c-0.029,2.27-0.043,4.539-0.053,6.807c-0.427-0.011-0.885-0.017-1.385-0.024
			c-4.43-0.06-8.872,0.04-13.302,0.07c-8.281,0.055-16.563,0.118-24.843,0.239c-0.931-1.428-2.319-2.588-4.003-3.145
			c-6.768-2.237-14.301-2.087-21.416-2.659c-9.361-0.751-18.863-1.9-28.195-0.417c-0.283-2.744-0.592-5.487-0.927-8.227
			C409.098,316.024,418.67,315.948,428.375,316.117z M430.675,342.909c8.263,0.338,15.895,1.227,22.446-4.742
			c0.29-0.264,0.541-0.544,0.768-0.832c8.681-0.039,17.361-0.139,26.042-0.205c3.767-0.029,9.182,0.897,13.595,0.152
			c0.053,6.313,0.202,12.624,0.526,18.939c-7.313-0.518-14.917,0.066-22.174,0.141c-4.011,0.042-8.022,0.095-12.033,0.143
			c-0.274-0.361-0.586-0.69-0.945-0.974c-5.269-4.164-10.387-3.4-16.721-3.605c-5.319-0.172-10.618-0.83-15.945-0.66
			c-4.379,0.139-8.739,0.49-13.125,0.397c-3.503-0.074-6.533-1.186-9.807-0.848c-0.314-2.994-0.638-5.987-0.959-8.98
			C411.71,342.769,421.267,342.523,430.675,342.909z M427.454,371.492c10.147-0.177,26.447,4.648,32.732-5.986
			c0.213-0.36,0.395-0.755,0.547-1.173c4.088-0.028,8.177-0.06,12.265-0.082c7.036-0.037,14.389,0.454,21.46-0.099
			c0.276,5.43,0.518,10.868,0.616,16.303c-5.099-0.039-10.584,1.128-15.253,1.283c-8.065,0.269-16.138,0.184-24.202,0.47
			c-9.063,0.322-18.056,0.428-27.126,0.262c-7.492-0.137-15.087-0.766-22.454,0.608c-0.839-4.031-1.148-8.372-1.332-12.553
			C412.037,372.624,419.773,371.626,427.454,371.492z M481.851,122.95c-8.412-0.31-16.832-0.185-25.245-0.425
			c-9.018-0.257-17.98-0.541-27.003-0.173c-7.359,0.3-14.926,0.313-22.196,1.689c1.09-2.958,2.629-5.581,4.83-7.616
			c6.164-5.702,17.242-4.699,24.977-4.866c11.39-0.246,22.793,0.171,34.163-0.733c6.911-0.549,15.886-0.435,23.635-2.236
			c-0.517,5.024,0.03,10.465,0.088,14.616c0.003,0.17,0.001,0.341,0.003,0.511C490.707,122.873,485.821,123.096,481.851,122.95z"/>
	</g>
</g>
<g>
	<g>
		<path d="M86.03,121.109c-1.08-7.479-8.091-17.395-16.751-13.602c-2.143,0.938-4.112,2.69-5.734,4.876
			c-0.986,1.191-1.819,2.63-2.455,4.229c-2.342,5.248-2.785,11.41,0.202,15.357c1.619,3.149,4.473,5.499,8.86,6.011
			C79.824,139.108,87.367,130.378,86.03,121.109z M77.3,129.552c-2.624,1.881-6.111,2.641-8.922,0.703
			c-4.305-2.967-4.212-8.451-1.701-12.49c1.701-2.737,4.401-5.429,7.835-4.033C79.994,115.961,82.406,125.892,77.3,129.552z"/>
	</g>
</g>
<g>
	<g>
		<path d="M86.433,165.225c-1.079-7.479-8.091-17.395-16.751-13.602c-2.143,0.938-4.112,2.69-5.734,4.876
			c-0.986,1.191-1.819,2.63-2.455,4.229c-2.342,5.248-2.785,11.409,0.202,15.357c1.62,3.15,4.473,5.5,8.86,6.011
			C80.227,183.224,87.77,174.495,86.433,165.225z M77.703,173.668c-2.624,1.881-6.111,2.641-8.922,0.703
			c-4.305-2.966-4.211-8.451-1.7-12.49c1.701-2.737,4.401-5.429,7.834-4.033C80.397,160.077,82.809,170.008,77.703,173.668z"/>
	</g>
</g>
<g>
	<g>
		<path d="M86.837,209.341c-1.079-7.479-8.091-17.395-16.751-13.602c-2.143,0.939-4.112,2.69-5.734,4.876
			c-0.986,1.191-1.819,2.63-2.455,4.229c-2.342,5.248-2.785,11.409,0.202,15.357c1.619,3.15,4.473,5.5,8.86,6.011
			C80.631,227.34,88.174,218.61,86.837,209.341z M78.107,217.784c-2.624,1.881-6.111,2.641-8.922,0.703
			c-4.305-2.966-4.212-8.451-1.701-12.49c1.701-2.737,4.401-5.429,7.835-4.033C80.801,204.193,83.213,214.124,78.107,217.784z"/>
	</g>
</g>
<g>
	<g>
		<path d="M87.24,253.458c-1.079-7.479-8.091-17.395-16.751-13.602c-2.143,0.938-4.112,2.69-5.734,4.876
			c-0.986,1.191-1.819,2.63-2.455,4.229c-2.342,5.248-2.785,11.41,0.202,15.357c1.619,3.149,4.473,5.499,8.86,6.011
			C81.034,271.457,88.577,262.727,87.24,253.458z M78.51,261.9c-2.624,1.881-6.111,2.641-8.922,0.703
			c-4.305-2.966-4.211-8.451-1.701-12.49c1.701-2.737,4.401-5.429,7.835-4.033C81.204,248.309,83.616,258.24,78.51,261.9z"/>
	</g>
</g>
<g>
	<g>
		<path d="M87.644,297.574c-1.08-7.479-8.091-17.395-16.751-13.602c-2.143,0.938-4.112,2.69-5.734,4.876
			c-0.986,1.191-1.819,2.63-2.455,4.229c-2.341,5.248-2.785,11.409,0.202,15.357c1.619,3.149,4.473,5.499,8.86,6.011
			C81.438,315.573,88.981,306.844,87.644,297.574z M78.913,306.017c-2.624,1.881-6.111,2.641-8.922,0.703
			c-4.304-2.967-4.211-8.451-1.7-12.49c1.701-2.737,4.401-5.429,7.834-4.033C81.607,292.426,84.019,302.357,78.913,306.017z"/>
	</g>
</g>
<g>
	<g>
		<path d="M88.046,341.69c-1.079-7.479-8.091-17.395-16.75-13.602c-2.143,0.938-4.112,2.69-5.734,4.876
			c-0.986,1.191-1.819,2.63-2.455,4.229c-2.342,5.248-2.785,11.409,0.202,15.357c1.619,3.149,4.473,5.499,8.86,6.011
			C81.841,359.689,89.384,350.96,88.046,341.69z M79.316,350.133c-2.624,1.881-6.111,2.641-8.922,0.703
			c-4.304-2.967-4.21-8.451-1.7-12.49c1.701-2.737,4.401-5.429,7.834-4.033C82.01,336.542,84.422,346.473,79.316,350.133z"/>
	</g>
</g>
<g>
	<g>
		<path d="M88.451,385.807c-1.08-7.48-8.092-17.395-16.752-13.603c-2.143,0.939-4.112,2.69-5.734,4.876
			c-0.986,1.191-1.819,2.63-2.455,4.229c-2.342,5.248-2.785,11.41,0.202,15.357c1.62,3.15,4.474,5.5,8.861,6.012
			C82.245,403.806,89.788,395.076,88.451,385.807z M79.72,394.249c-2.624,1.881-6.111,2.641-8.922,0.703
			c-4.304-2.967-4.211-8.451-1.7-12.49c1.701-2.737,4.401-5.429,7.834-4.033C82.414,380.658,84.827,390.589,79.72,394.249z"/>
	</g>
</g>
<g>
	<g>
		<path d="M49.656,121.883c-1.079-7.479-8.091-17.395-16.75-13.602c-2.143,0.938-4.112,2.69-5.734,4.876
			c-0.986,1.191-1.819,2.63-2.455,4.229c-2.342,5.248-2.785,11.409,0.202,15.357c1.62,3.149,4.473,5.499,8.86,6.011
			C43.45,139.882,50.994,131.152,49.656,121.883z M40.927,130.326c-2.624,1.881-6.111,2.641-8.922,0.703
			c-4.304-2.967-4.211-8.451-1.7-12.49c1.701-2.737,4.401-5.429,7.834-4.033C43.621,116.735,46.033,126.666,40.927,130.326z"/>
	</g>
</g>
<g>
	<g>
		<path d="M50.061,165.999c-1.08-7.479-8.091-17.395-16.751-13.602c-2.142,0.938-4.112,2.69-5.734,4.876
			c-0.986,1.191-1.819,2.63-2.455,4.229c-2.342,5.248-2.785,11.409,0.202,15.357c1.619,3.149,4.473,5.5,8.86,6.011
			C43.855,183.998,51.398,175.269,50.061,165.999z M41.33,174.442c-2.624,1.881-6.111,2.641-8.922,0.703
			c-4.304-2.966-4.21-8.451-1.7-12.49c1.701-2.737,4.401-5.429,7.834-4.033C44.024,160.851,46.436,170.782,41.33,174.442z"/>
	</g>
</g>
<g>
	<g>
		<path d="M50.463,210.115c-1.08-7.479-8.091-17.395-16.751-13.602c-2.143,0.938-4.112,2.69-5.734,4.876
			c-0.986,1.191-1.819,2.63-2.455,4.229c-2.342,5.248-2.785,11.409,0.202,15.357c1.621,3.15,4.474,5.5,8.861,6.011
			C44.257,228.114,51.801,219.385,50.463,210.115z M41.735,218.558c-2.624,1.881-6.111,2.641-8.922,0.703
			c-4.306-2.966-4.212-8.451-1.701-12.49c1.701-2.737,4.401-5.429,7.835-4.033C44.429,204.967,46.841,214.898,41.735,218.558z"/>
	</g>
</g>
<g>
	<g>
		<path d="M50.868,254.232c-1.079-7.479-8.091-17.395-16.751-13.602c-2.143,0.938-4.112,2.69-5.734,4.876
			c-0.986,1.191-1.819,2.63-2.455,4.229c-2.342,5.248-2.785,11.41,0.202,15.357c1.619,3.149,4.473,5.499,8.86,6.011
			C44.662,272.231,52.205,263.501,50.868,254.232z M42.137,262.674c-2.624,1.881-6.111,2.641-8.922,0.703
			c-4.304-2.966-4.211-8.451-1.7-12.49c1.701-2.737,4.401-5.429,7.834-4.033C44.831,249.083,47.243,259.014,42.137,262.674z"/>
	</g>
</g>
<g>
	<g>
		<path d="M51.271,298.348c-1.08-7.479-8.091-17.395-16.751-13.602c-2.143,0.938-4.112,2.69-5.734,4.876
			c-0.986,1.191-1.819,2.63-2.455,4.229c-2.342,5.248-2.785,11.41,0.202,15.357c1.619,3.149,4.473,5.499,8.86,6.011
			C45.065,316.347,52.608,307.618,51.271,298.348z M42.541,306.791c-2.624,1.881-6.111,2.641-8.922,0.703
			c-4.305-2.967-4.211-8.451-1.7-12.49c1.701-2.737,4.401-5.429,7.834-4.033C45.235,293.2,47.647,303.131,42.541,306.791z"/>
	</g>
</g>
<g>
	<g>
		<path d="M51.674,342.464c-1.079-7.479-8.091-17.395-16.751-13.602c-2.143,0.938-4.112,2.69-5.734,4.876
			c-0.986,1.191-1.819,2.63-2.455,4.229c-2.342,5.248-2.785,11.409,0.202,15.357c1.62,3.149,4.474,5.499,8.861,6.011
			C45.469,360.463,53.012,351.734,51.674,342.464z M42.944,350.907c-2.624,1.881-6.111,2.641-8.922,0.703
			c-4.304-2.967-4.211-8.451-1.7-12.49c1.701-2.737,4.401-5.429,7.834-4.033C45.638,337.316,48.05,347.247,42.944,350.907z"/>
	</g>
</g>
<g>
	<g>
		<path d="M52.079,386.581c-1.081-7.48-8.093-17.396-16.752-13.603c-2.143,0.939-4.112,2.69-5.734,4.876
			c-0.986,1.191-1.819,2.63-2.455,4.229c-2.342,5.248-2.785,11.409,0.202,15.357c1.62,3.15,4.474,5.5,8.861,6.012
			C45.873,404.58,53.416,395.851,52.079,386.581z M43.348,395.023c-2.624,1.881-6.111,2.641-8.922,0.703
			c-4.304-2.966-4.211-8.451-1.7-12.49c1.701-2.737,4.401-5.429,7.834-4.033C46.042,381.432,48.454,391.363,43.348,395.023z"/>
	</g>
</g>
<g>
</g>
<g>
</g>
<g>
</g>
<g>
</g>
<g>
</g>
<g>
</g>
<g>
</g>
<g>
</g>
<g>
</g>
<g>
</g>
<g>
</g>
<g>
</g>
<g>
</g>
<g>
</g>
<g>
</g>
</svg>
