<?xml version="1.0" encoding="iso-8859-1"?>
<!-- Generator: Adobe Illustrator 19.0.0, SVG Export Plug-In . SVG Version: 6.00 Build 0)  -->
<svg version="1.1" id="Capa_1" xmlns="http://www.w3.org/2000/svg" xmlns:xlink="http://www.w3.org/1999/xlink" x="0px" y="0px"
	 viewBox="0 0 512.004 512.004" style="enable-background:new 0 0 512.004 512.004;" xml:space="preserve">
<g>
	<g>
		<path d="M488.905,300.293c-10.794-13.648-25.707-23.519-41.19-31.136c-17.844-8.777-37.031-11.964-55.641-18.448
			c-7.506-2.615-14.569-6.049-20.16-11.815c-5.298-5.465-8.838-12.354-11.968-19.221c-6.73-14.762-14.768-28.539-27.521-38.937
			c-24.261-19.781-60.348-23.463-88.889-11.237c-7.533,3.227-12.929,8.142-19.208,13.027c-1.942-1.814-3.876-3.634-5.793-5.469
			c-18.521-17.728-36.549-35.962-54.374-54.387c-8.899-9.199-17.747-18.446-26.583-27.705c-3.706-3.883-7.588-7.673-11.972-9.312
			c0.809-1.752,1.365-3.638,1.54-5.719c0.485-5.736-2.036-10.971-4.905-15.772c-0.257-0.43-0.522-0.857-0.782-1.287
			c4.683-2.645,9.14-6.75,12.172-10.447c4.553-5.553,6.061-12.98,1.005-18.781c-5.11-5.863-13.101-7.368-19.58-2.91
			c-3.063,2.108-6.452,5.806-8.675,9.881c-1.164-1.521-2.339-3.032-3.541-4.514c-0.257-0.317-0.52-0.634-0.781-0.95
			c1.738-1.567,3.245-3.595,4.734-5.107c2.87-2.915,5.895-5.94,7.584-9.726c4.022-9.013-4.108-17.002-12.278-19.643
			c-7.538-2.437-13.124,1.977-16.032,8.697c-0.485,1.121-1.97,4.922-2.847,8.72c-1.764-1.016-3.595-1.908-5.498-2.648
			c-20.684-8.04-42.313,10.797-52.625,27.072c-5.543,8.748-8.558,18.617-6.31,28.926c0.99,4.542,2.834,8.821,5.187,12.86
			c-1.199,0.423-2.369,0.963-3.537,1.442c-3.262,1.337-6.582,2.564-9.653,4.318c-5.462,3.12-10.29,8.25-8.013,14.973
			c2.476,7.312,12.397,13.306,19.994,12.376c4.316-0.528,7.76-3.598,10.424-6.836c1.79-2.175,4.055-4.745,5.772-7.423
			c1.776,1.865,3.589,3.693,5.405,5.518c-6.524,2.937-13.615,7.04-15.937,13.995c-2.452,7.349,3.947,14.785,9.837,18.441
			c5.808,3.605,12.438,1.799,16.962-2.975c2.773-2.926,5.663-7.345,6.818-11.835c1.095,0.768,2.251,1.454,3.496,2.015
			c5.908,2.662,11.242,1.549,15.908-1.424c2.728,5.742,7.955,8.694,12.26,12.888c12.968,12.634,24.493,26.443,37.116,39.463
			c8.523,8.792,17.265,17.389,25.294,26.644c7.241,8.347,14.336,16.694,22,24.644c-19.43,21.842-14.038,58.695-3.482,83.354
			c6.847,15.994,17.164,30.725,31.267,41.112c13.181,9.708,29.405,15.604,38.692,29.78c8.105,12.37,11.543,27.013,15.481,41.077
			c4.095,14.625,8.935,28.84,17.702,41.4c18.21,26.089,46.701,41.445,78.188,44.328c35.991,3.296,68.517-13.046,96.008-34.828
			c27.285-21.619,47.045-51.029,54.711-85.241C513.738,360.025,509.282,326.057,488.905,300.293z M215.152,188.631
			c10.178,9.516,20.505,18.884,30.431,28.653c-2.171,1.728-4.173,3.82-6.065,5.44c-0.762,0.653-1.513,1.318-2.266,1.981
			c-3.696-3.688-7.365-7.403-10.976-11.176c-5.874-6.137-11.735-12.29-17.606-18.432c0.494-0.471,0.992-0.938,1.481-1.414
			C211.788,192.09,213.702,190.478,215.152,188.631z M219.159,241.324c-4.387-4.349-8.73-8.742-13.003-13.206
			c-5.049-5.276-10.088-10.565-15.135-15.845c2.062-2.101,4.079-4.255,6.145-6.332c4.697,4.913,9.382,9.839,14.042,14.788
			c4.667,4.956,9.429,9.817,14.247,14.621C223.301,237.298,221.21,239.288,219.159,241.324z M230.284,240.128
			c3.405,3.343,6.835,6.661,10.279,9.964c-2.181,1.891-4.351,3.795-6.487,5.732c-3.43-3.284-6.842-6.586-10.238-9.905
			C225.977,243.98,228.125,242.048,230.284,240.128z M220.501,248.96c0.059-0.056,0.119-0.108,0.178-0.163
			c3.432,3.354,6.889,6.683,10.358,10c-1.75,1.915-3.252,3.929-4.711,6.051c-3.724-3.684-7.426-7.393-11.094-11.137
			C217.108,252.245,218.882,250.473,220.501,248.96z M235.702,263.248c5.099,4.849,10.21,9.684,15.31,14.529
			c-0.956,0.745-1.946,1.43-2.986,2.02c-6.135,3.477-12.634-6.089-16.557-9.886c-0.441-0.427-0.873-0.865-1.313-1.293
			C232.048,266.878,233.822,265.021,235.702,263.248z M238.904,260.431c2.196-1.875,4.406-3.736,6.631-5.582
			c4.787,4.56,9.591,9.103,14.387,13.652c-1.825,2.21-3.702,4.442-5.727,6.452C249.102,270.109,243.996,265.277,238.904,260.431z
			 M255.645,298.26c0.309-4.893,1.782-8.803,3.904-12.305c16.743,16.197,32.788,32.881,48.049,50.53
			c-2.205,0.882-4.473,1.621-6.802,2.167c-16.309,3.822-34.177-3.469-41.33-19.094C256.428,312.921,255.187,305.532,255.645,298.26z
			 M261.99,282.416c1.71-2.231,3.635-4.366,5.627-6.577c17.969,17.223,35.147,34.964,51.431,53.808
			c0.059,0.068,0.12,0.134,0.179,0.203c-2.393,1.841-4.955,3.463-7.656,4.836C295.534,316.704,279.359,299.162,261.99,282.416z
			 M326.149,337.686c7.239,8.046,14.664,15.92,21.941,23.934c7.139,7.862,14.056,16.102,22.199,22.947
			c-1.494,1.919-2.999,3.829-4.524,5.722c-9.696-6.698-17.403-15.528-25.31-24.189c-7.172-7.855-14.51-15.556-21.678-23.414
			C321.353,341.208,323.818,339.53,326.149,337.686z M398.146,369.246c5.473-5.46,11.058-10.662,16.82-15.808
			c3.435-3.068,6.868-6.177,9.325-9.964c2.783,0.054,8.231,4.122,10.485,5.763c8.634,6.286-3.398,17.391-8.154,22.403
			c-19.091,20.115-38.268,40.191-58.416,59.247c-3.041,2.876-6.629,7.603-10.648,9.111c-3.77,1.414-8.327-4.654-10.375-7.463
			c-1.027-1.409-2.578-3.501-2.17-5.307c0.507-2.239,3.69-4.805,5.137-6.453c4.819-5.485,9.968-10.657,15.013-15.93
			C376.361,393.142,386.663,380.702,398.146,369.246z M373.406,380.584c-8.016-6.277-14.749-13.935-21.629-21.469
			c-7.407-8.113-14.989-16.062-22.379-24.19c1.823-1.665,3.539-3.44,5.135-5.311c7.371,8.207,14.937,16.233,22.354,24.401
			c6.659,7.333,13.131,14.988,20.577,21.541C376.089,377.212,374.738,378.891,373.406,380.584z M330.053,318.264
			c-15.885-17.771-31.932-35.104-49.182-51.642c-0.671-0.643-1.345-1.283-2.017-1.925c0.21-0.111,0.411-0.22,0.627-0.332
			c4.166-2.162,8.502-3.865,13.143-4.688c8.643-1.533,17.58,0.186,25.07,4.706c14.943,9.017,23.285,24.929,17.954,42.148
			C334.348,310.728,332.438,314.662,330.053,318.264z M327.541,321.695c-1.564,1.956-3.262,3.801-5.108,5.491
			c-16.27-18.232-32.683-36.014-50.36-52.961c-0.543-0.52-1.088-1.038-1.632-1.557c1.525-1.719,3.342-3.434,5.164-5.213
			C293.757,284.815,311.101,302.698,327.541,321.695z M272.534,254.733c-0.544,0.778-1.157,1.513-1.806,2.225
			c-4.329-4.108-8.659-8.215-12.979-12.332c1.434-1.232,2.853-2.482,4.215-3.794c0.919-0.885,1.923-1.813,2.824-2.808
			c1.674,2.084,3.297,4.207,4.842,6.388C271.906,247.625,275.169,250.964,272.534,254.733z M267.724,259.952
			c-1.223,1.156-2.448,2.303-3.543,3.518c-0.515,0.571-1.028,1.164-1.54,1.767c-4.608-4.375-9.22-8.746-13.819-13.13
			c0.442-0.371,0.889-0.736,1.329-1.109c1.433-1.214,2.883-2.411,4.33-3.611C258.888,251.583,263.309,255.766,267.724,259.952z
			 M244.567,246.615c-0.259,0.227-0.521,0.452-0.781,0.679c-3.457-3.317-6.894-6.655-10.312-10.012
			c1.822-1.634,3.645-3.265,5.474-4.89c3.453,3.391,6.931,6.757,10.424,10.107C247.765,243.865,246.154,245.227,244.567,246.615z
			 M228.623,232.479c-3.753-3.743-7.479-7.515-11.145-11.345c-5.771-6.03-11.53-12.075-17.298-18.11
			c1.801-1.695,3.619-3.371,5.432-5.052c4.815,5.034,9.617,10.081,14.393,15.154c4.604,4.889,9.3,9.686,14.052,14.428
			C232.242,229.191,230.434,230.836,228.623,232.479z M195.283,197.898c-2.261-2.366-4.521-4.733-6.782-7.1
			c0.023-0.02,0.046-0.04,0.069-0.061c1.813-1.618,3.607-3.254,5.372-4.922c2.228,2.316,4.451,4.635,6.675,6.953
			C198.825,194.463,197.051,196.177,195.283,197.898z M184.015,186.1c-2.79-2.922-5.582-5.841-8.371-8.764
			c1.861-1.574,3.678-3.201,5.485-4.84c2.747,2.856,5.495,5.711,8.243,8.565C187.605,182.761,185.817,184.44,184.015,186.1z
			 M171.273,172.761c-2.913-3.053-5.832-6.1-8.744-9.154c-7.372-7.731-14.831-15.411-22.118-23.237
			c1.499-1.149,3.015-2.316,4.504-3.518c0.423-0.276,0.85-0.556,1.279-0.839c5.927,6.275,11.958,12.456,17.905,18.706
			c4.196,4.41,8.408,8.803,12.624,13.193C174.93,169.556,173.122,171.183,171.273,172.761z M139.734,132.928
			c-1.233,0.888-2.463,1.781-3.682,2.688c-1.477-1.619-2.965-3.227-4.42-4.864c-2.029-2.283-4.125-4.461-6.249-6.607
			c1.766-1.595,3.527-3.195,5.297-4.786c2.236,2.275,4.431,4.591,6.577,6.987c1.46,1.63,2.951,3.232,4.436,4.84
			C141.036,131.763,140.382,132.344,139.734,132.928z M121.357,120.144c-1.579-1.543-3.166-3.083-4.764-4.635
			c-3.259-3.166-5.646-7.054-9.584-9.182c1.53-1.345,3.078-2.668,4.665-3.939c0.523-0.419,1.042-0.844,1.557-1.273
			c3.956,3.022,6.84,7.861,10.422,11.31c0.951,0.916,1.891,1.833,2.829,2.752C124.724,116.872,123.02,118.582,121.357,120.144z
			 M114.855,120.029c1.068,1.029,2.127,2.059,3.179,3.092c-2.126,1.867-4.243,3.742-6.348,5.631
			c-2.118-2.09-4.259-4.163-6.416-6.259c-2.618-2.544-4.674-5.554-7.423-7.743c2.169-2.035,4.337-4.072,6.534-6.072
			C108.364,111.697,111.258,116.565,114.855,120.029z M121.869,127.283c0.058-0.051,0.115-0.104,0.173-0.155
			c2.18,2.223,4.323,4.484,6.418,6.822c1.327,1.481,2.684,2.936,4.031,4.398c-2.26,1.786-4.455,3.634-6.57,5.563
			c-1.882-2.05-3.765-4.098-5.612-6.176c-1.446-1.627-2.928-3.197-4.425-4.746C117.994,130.948,119.999,128.91,121.869,127.283z
			 M135.681,144.038c0.396-0.316,0.808-0.634,1.214-0.951c6.088,6.458,12.293,12.81,18.408,19.236
			c4.193,4.406,8.401,8.796,12.614,13.182c-2.309,1.779-4.696,3.48-6.965,5.286c-3.246-3.402-6.499-6.798-9.743-10.2
			c-6.9-7.236-13.869-14.432-20.71-21.739C132.261,147.115,133.972,145.403,135.681,144.038z M172.289,180.057
			c2.848,2.96,5.697,5.92,8.546,8.879c-2.143,1.827-4.457,3.694-6.712,5.646c-2.971-3.112-5.945-6.221-8.915-9.334
			C167.58,183.528,169.975,181.834,172.289,180.057z M185.326,193.608c2.326,2.417,4.648,4.839,6.97,7.26
			c-2.058,2.098-4.066,4.244-6.006,6.451c-2.533-2.651-5.065-5.302-7.597-7.954C180.922,197.468,183.133,195.548,185.326,193.608z
			 M188.019,215.215c3.966,4.156,7.928,8.315,11.866,12.498c5.322,5.653,10.773,11.178,16.287,16.64
			c-0.342,0.354-0.687,0.702-1.027,1.059c-1.189,1.249-2.732,2.665-3.863,4.252c-8.154-8.377-16.247-16.82-24.469-25.116
			c-1.494-1.508-2.968-3.03-4.427-4.563C184.371,218.538,186.225,216.914,188.019,215.215z M198.109,251.078
			c10.091,10.421,20.173,20.851,30.478,31.059c5.096,5.048,11.357,9.996,18.422,9.21c-1.186,8.743-0.113,18.445,1.257,24.304
			c4.724,20.2,23.847,34.364,44.404,34.303c7.679-0.023,15.253-1.919,22.203-5.23c7.224,8.027,14.633,15.883,21.893,23.879
			c8.128,8.951,15.953,18.41,25.645,25.721c-0.409,0.478-0.808,0.964-1.224,1.436c-7.664,8.701-17.281,16.035-23.405,26.065
			c-2.954,4.839-1.684,10.32,1.347,14.811c2.972,4.403,7.15,8.977,11.889,11.511c4.631,2.476,9.153,1.14,13.265-1.716
			c5.046-3.504,9.317-8.151,13.81-12.311c6.383-5.909,12.59-11.973,18.629-18.232c11.559-11.98,23.049-24.023,34.674-35.939
			c6.642-6.808,17.027-16.706,15.885-27.206c-0.659-6.064-5.093-10.005-10.008-12.992c-4.133-2.511-9.115-6.794-14.307-5.932
			c-2.76,0.458-4.908,2.311-6.931,4.131c-3.498,3.147-6.806,6.517-10.259,9.716c-7.138,6.614-14.349,13.133-21.229,20.019
			c-1.321,1.322-2.585,2.692-3.826,4.081c-7.369-6.039-13.702-13.194-20.15-20.256c-7.737-8.474-15.664-16.769-23.363-25.276
			c2.014-2.749,3.778-5.662,5.237-8.707c9.553-19.943,5.694-42.167-11.401-56.616c-9.54-8.064-21.084-13.384-33.79-12.826
			c-3.63,0.16-8.257,0.817-12.84,2.115c-0.554-3.89-2.715-7.304-4.964-10.52c-3.31-4.734-6.91-9.278-10.685-13.649
			c-5.944-6.881-12.317-13.369-18.87-19.685c10.016-7.674,23.436-13.378,35.799-13.099c12.313,0.278,23.494,6.375,31.937,15.081
			c9.227,9.515,15.014,22.032,22.306,32.998c6.657,10.01,14.065,19.746,23.237,27.599c18.67,15.984,43.005,18.967,65.363,27.229
			c11.192,4.136,22.409,9.549,30.24,18.826c8.263,9.789,14.857,21.395,17.478,34.011c5.02,24.165-2.818,52.638-15.784,73.221
			c-14.188,22.524-37.456,39.851-61.354,50.978c-13.678,6.369-28.731,10.408-43.904,9.801c-13.662-0.547-26.621-6.388-37.129-14.966
			c-23.722-19.366-30.132-48.091-38.9-75.963c-4.516-14.357-9.376-29.032-20.845-39.365c-10.97-9.884-25.143-14.621-36.42-23.975
			C199.448,310.081,190.88,278.777,198.109,251.078z M250.826,222.53c3.156,3.211,6.254,6.495,9.233,9.881
			c-1.322,1.28-2.521,2.767-3.772,3.959c-1.201,1.144-2.437,2.248-3.683,3.34c-3.497-3.356-6.973-6.732-10.43-10.128
			c0.751-0.65,1.486-1.315,2.246-1.956C246.451,225.91,248.805,224.346,250.826,222.53z M202.796,176.849
			c0.518,0.504,1.027,1.016,1.546,1.518c1.822,1.766,3.656,3.519,5.497,5.265c-1.729,1.524-3.251,3.43-4.807,4.934
			c-0.451,0.436-0.91,0.863-1.363,1.297c-2.228-2.332-4.455-4.663-6.682-6.996c0.736-0.728,1.469-1.459,2.191-2.203
			C200.412,179.393,201.712,178.175,202.796,176.849z M197.993,172.132c-1.451,1.411-2.735,3.073-4.128,4.5
			c-0.477,0.489-0.976,0.956-1.459,1.439c-2.69-2.818-5.383-5.633-8.073-8.451c0.245-0.217,0.486-0.438,0.732-0.654
			c1.586-1.39,3.604-2.74,5.336-4.292C192.918,167.173,195.462,169.646,197.993,172.132z M154.971,128.678
			c0.521,0.54,1.037,1.084,1.559,1.623c9.637,9.962,19.347,19.855,29.149,29.655c-1.348,1.055-2.6,2.258-3.766,3.272
			c-0.67,0.583-1.328,1.181-1.989,1.776c-2.864-3.002-5.734-5.998-8.598-9.001c-7.154-7.502-14.386-14.959-21.468-22.545
			C151.776,132.022,153.569,130.459,154.971,128.678z M139.348,112.408c3.842,4.014,7.694,8.018,11.545,12.023
			c-1.995,1.08-3.91,2.416-5.77,3.882c-1.57-1.718-3.149-3.427-4.694-5.165c-2.041-2.297-4.15-4.488-6.287-6.646
			C135.893,115.151,137.683,113.834,139.348,112.408z M121.665,95.388c2.11,0.086,4.181,2.93,5.495,4.287
			c2.106,2.176,4.181,4.382,6.273,6.572c0.591,0.618,1.186,1.232,1.777,1.85c-1.894,1.127-3.698,2.54-5.443,4.06
			c-1.451-1.415-2.909-2.828-4.375-4.252c-3.255-3.162-5.641-7.045-9.57-9.174C117.61,97.062,119.734,95.309,121.665,95.388z
			 M117.065,42.04c2.254-2.63,7.982-7.173,10.312-1.461c1.228,3.013-3.487,6.685-5.441,8.352c-1.987,1.695-4.272,3.036-6.438,4.509
			c-1.073-1.621-2.171-3.226-3.283-4.821C113.906,46.455,115.369,44.02,117.065,42.04z M98.937,10.082
			c1.745,0.12,6.465,2.973,6.73,4.989c0.261,1.983-2.479,4.356-3.689,5.606c-1.896,1.959-4.869,4.164-6.955,6.687
			c-1.385-1.376-2.823-2.7-4.313-3.954C93.495,18.298,93.756,9.725,98.937,10.082z M22.796,106.969
			c-2.904,2.411-11.894-1.88-10.735-5.826c0.831-2.828,8.714-5.241,11.064-6.391c1.961-0.959,3.96-1.86,5.626-3.305
			c0.008-0.007,0.014-0.013,0.022-0.02c0.951,1.252,1.932,2.478,2.937,3.68C28.06,98.232,26.518,103.879,22.796,106.969z
			 M43.604,132.991c-1.862-0.452-4.232-3.141-5.317-4.644c-1.717-2.38-1.105-3.636,0.89-5.758c3.166-3.367,6.299-6.383,9.18-9.892
			c1.02,1.036,2.034,2.078,3.035,3.131c0.896,0.942,1.777,1.916,2.662,2.893C51.614,123.709,48.787,134.251,43.604,132.991z
			 M84.382,111.207c-1.839,1.747-3.709,3.464-5.705,5.055c-1.521,1.212-3.164,2.417-5.085,2.723
			c-5.976,0.954-10.969-7.264-14.434-10.921c-3.244-3.424-6.626-6.714-9.916-10.093c-12.228-12.562-26.258-28.518-16.864-46.66
			c6.512-12.58,22.57-30.286,38.585-26.912c8.32,1.753,15.024,8.803,20.348,14.972c5.835,6.761,10.746,14.275,15.473,21.834
			c2.616,4.183,5.689,8.352,7.672,12.874c5.418,12.355-15.005,23.708-22.298,29.898C89.455,106.271,86.949,108.769,84.382,111.207z
			 M93.215,125.224c-0.784-0.929-1.676-1.958-2.128-3.108c-0.11-0.28-0.228-0.549-0.4-0.795c1.467-1.294,2.911-2.618,4.349-3.949
			c3.026,2.951,5.521,6.776,8.498,9.642c1.622,1.561,3.218,3.129,4.802,4.706c-1.478,1.25-3.021,2.475-4.432,3.809
			C100.362,132.016,96.451,129.055,93.215,125.224z M107.744,139.717c1.662-1.027,3.272-2.306,4.836-3.674
			c1.538,1.604,3.063,3.224,4.558,4.892c1.827,2.039,3.686,4.05,5.551,6.056c-1.522,1.517-3,3.082-4.418,4.714
			C114.748,147.722,111.251,143.717,107.744,139.717z M153.407,188.462c-4.798-4.914-9.687-9.74-14.54-14.599
			c-5.839-5.845-11.433-11.91-16.937-18.056c1.892-0.998,3.667-2.387,5.369-3.912c5.533,5.831,11.142,11.593,16.68,17.413
			c4.552,4.784,9.121,9.552,13.696,14.313C156.101,185.096,154.639,186.673,153.407,188.462z M166.391,202.441
			c-1.072-1.204-2.144-2.407-3.221-3.611c-2.094-2.342-4.238-4.638-6.406-6.91c1.585-1.44,3.257-2.784,4.964-4.088
			c3.08,3.201,6.161,6.402,9.242,9.603C169.299,199.031,167.733,200.691,166.391,202.441z M170.104,206.592
			c1.875-1.37,3.632-2.954,5.372-4.466c2.693,2.801,5.385,5.603,8.073,8.41c-1.58,1.888-3.136,3.796-4.64,5.744
			C175.94,213.08,173.015,209.845,170.104,206.592z M497.524,365.089c-0.531,31.443-14.381,63.272-35.769,86.146
			c-10.891,11.649-24.063,21.658-37.626,29.987c-13.923,8.55-29.211,15.133-45.488,17.408c-28.895,4.039-59.745-5.417-80.326-26.281
			c-10.045-10.183-17.297-22.485-21.836-36.009c-4.384-13.06-7.148-26.623-11.979-39.538c-4.869-13.017-11.741-24.925-22.987-33.422
			c-13.171-9.95-28.574-15.868-39.804-28.371c-18.975-21.127-29.919-54.374-22.682-82.444c1.327-5.148,3.425-10.177,6.197-14.75
			c2.995,3.063,5.977,6.138,8.959,9.214c-12.797,23.026-2.529,55.711,12.474,75.199c8.264,10.733,18.944,17.445,30.641,23.876
			c6.51,3.579,12.791,7.721,18.122,12.927c6.015,5.873,9.446,12.906,12.457,20.656c11.152,28.706,14.752,60.688,36.187,84.333
			c9.219,10.169,20.9,18.434,34,22.733c13.778,4.521,28.752,3.74,42.679,0.272c28.088-6.994,56.036-25.055,75.072-46.785
			c17.194-19.628,26.076-45.474,28.022-71.306c1.908-25.317-9.115-52.859-30.166-67.871c-10.533-7.511-23.147-11.885-35.392-15.706
			c-12.266-3.828-25.472-6.467-36.906-12.487c-12.433-6.546-22.278-16.852-30.455-28.119c-8.209-11.31-14.367-24.083-22.874-35.141
			c-16.295-21.18-42.513-29.59-67.12-17.653c-5.606,2.72-11.178,5.732-16.162,9.501c-3.889-3.657-7.816-7.276-11.744-10.89
			c4.746-3.849,9.291-7.682,15.106-10.188c6.584-2.838,13.796-4.624,20.92-5.373c14.2-1.493,29.281,0.338,42.258,6.508
			c13.623,6.477,24.055,17.528,31.352,30.584c6.95,12.434,11.056,26.265,21.534,36.453c12.104,11.768,29.208,15.725,45.028,19.876
			c17.861,4.687,34.402,11.279,49.886,21.461C484.74,306.748,498.038,334.655,497.524,365.089z"/>
	</g>
</g>
<g>
	<g>
		<path d="M73.59,71.326c-5.574-7.624-17.709-21.893-27.984-12.965c-5.042,4.381-5.695,10.756-2.653,16.452
			c0.695,1.302,1.526,2.527,2.425,3.705c1.724,2.696,3.965,5.164,6.036,7.51c5.875,6.655,15.9,21.872,26.684,16.344
			C92.194,95.147,79.39,79.26,73.59,71.326z M75.723,97.133c-4.733,2.522-10.19-3.234-13.268-6.284
			c-4.029-3.992-6.59-8.734-10.353-13.076c-1.902-2.196-4.356-5.315-4.975-8.34c-0.088-1.446,0.126-2.882,0.719-4.291
			c0.452-0.681,1.093-1.325,1.975-1.913c7.909-5.27,18.804,12.788,22.734,17.985C75.423,85.01,82.655,93.44,75.723,97.133z"/>
	</g>
</g>
<g>
	<g>
		<path d="M98.453,60.338c-2.506-5.707-5.941-10.98-9.86-15.813c-3.09-3.81-6.802-8.237-11.482-10.127
			c-4.401-1.778-10.015-1.218-12.349,3.347c-3.649,7.138,2.37,16.736,5.79,22.881c4.058,7.291,12.363,21.127,22.092,21.316
			C104.793,82.178,101.428,67.112,98.453,60.338z M95.407,71.447c-0.991,9.987-13.462-3.505-15.649-6.125
			c-2.879-3.449-5.265-7.956-7.444-11.875c-1.824-3.284-4.286-8.822-1.661-12.315c2.886-3.836,7.508,0.841,9.88,3.143
			c4.032,3.913,7.325,8.586,10.075,13.469C92.734,61.519,95.857,66.915,95.407,71.447z"/>
	</g>
</g>
<g>
</g>
<g>
</g>
<g>
</g>
<g>
</g>
<g>
</g>
<g>
</g>
<g>
</g>
<g>
</g>
<g>
</g>
<g>
</g>
<g>
</g>
<g>
</g>
<g>
</g>
<g>
</g>
<g>
</g>
</svg>
