<svg height="512pt" viewBox="-110 0 512 512.00265" width="512pt" xmlns="http://www.w3.org/2000/svg"><path d="m110.117188 133.617188c3.066406 0 6.105468-.8125 8.652343-2.484376 4.296875-2.816406 6.546875-7.269531 7.675781-10.511718 2.121094-6.070313 1.804688-12.199219-.867187-16.804688-2.734375-4.722656-7.328125-7.183594-12.921875-6.953125-7.324219.316407-14.828125 5.203125-17.84375 11.621094-3.167969 6.742187-1.726562 15.324219 3.433594 20.414063 3.140625 3.097656 7.535156 4.71875 11.871094 4.71875zm-11.652344-23.414063c2.378906-5.054687 8.550781-9.054687 14.363281-9.304687.179687-.007813.363281-.011719.550781-.011719 2.785156 0 6.371094.921875 8.707032 4.953125 2.078124 3.585937 2.277343 8.488281.542968 13.449218-.921875 2.652344-2.726562 6.269532-6.078125 8.46875-4.613281 3.027344-11.410156 2.269532-15.46875-1.734374-3.980469-3.925782-5.078125-10.578126-2.617187-15.820313zm0 0"/><path d="m185.910156 394.773438c-3.871094 1.097656-7.542968 4.75-6.460937 10.179687.46875 2.347656 2.003906 4.46875 4.207031 5.816406 1.507812.925781 3.195312 1.402344 4.851562 1.402344.761719 0 1.519532-.101563 2.246094-.308594 2.308594-.65625 4.296875-2.351562 5.464844-4.65625 1.171875-2.304687 1.359375-4.914062.527344-7.164062-1.929688-5.183594-6.96875-6.367188-10.835938-5.269531zm6.707032 10.609374c-.660157 1.300782-1.742188 2.246094-2.964844 2.59375-1.226563.347657-2.644532.109376-3.890625-.652343-1.246094-.761719-2.101563-1.914063-2.351563-3.160157-.582031-2.929687 1.390625-4.878906 3.605469-5.503906 2.042969-.582031 4.828125-.199218 5.941406 2.792969.445313 1.195313.320313 2.625-.339843 3.929687zm0 0"/><path d="m263.164062 386.910156c-2.074218-3.769531-5.863281-5.605468-9.890624-4.785156-4.597657.9375-8.253907 4.929688-8.898438 9.710938-.582031 4.347656 1.394531 8.121093 5.296875 10.097656 1.417969.714844 2.988281 1.0625 4.558594 1.0625 2.808593 0 5.628906-1.109375 7.617187-3.175782 3.152344-3.277343 3.691406-8.585937 1.316406-12.910156zm-4.226562 10.109375c-1.875 1.945313-5.070312 2.507813-7.441406 1.308594-3.3125-1.675781-3.285156-4.71875-3.117188-5.953125.339844-2.539062 2.269532-5.59375 5.695313-6.289062.390625-.078126.757812-.117188 1.105469-.117188 2.550781 0 3.933593 1.960938 4.441406 2.890625 1.296875 2.351563 1.476562 5.914063-.683594 8.160156zm0 0"/><path d="m286.5 447.242188-5.453125-40.382813c.382813-.222656.761719-.453125 1.136719-.695313 7.152344-4.664062 12.726562-14.121093 9.542968-23.179687-2.261718-6.421875-8.875-11.332031-16.855468-12.507813-.457032-.066406-.910156-.121093-1.367188-.167968l-11.535156-73.433594c-.941406-6-2.113281-13.472656-6.359375-19.414062-5.898437-8.25-17.097656-12.125-27.234375-9.417969-9.542969 2.542969-17.417969 10.613281-20.070312 20.554687-2.460938 9.234375-.460938 18.636719 1.300781 26.933594 2.40625 11.316406 4.652343 22.082031 6.898437 32.847656 2.121094 10.179688 4.25 20.375 6.503906 31.011719l-16.546874 3.632813c-9.960938-35.347657-20.414063-70.703126-31.300782-105.878907 1.566406.007813 3.183594.140625 4.867188.292969 1.824218.167969 3.707031.339844 5.640625.339844.167969 0 .335937 0 .507812-.003906 5.476563-.089844 12.246094-2.289063 14.828125-8.195313 2.746094-6.277344-.910156-13.402344-6.027344-16.664063-5.210937-3.320312-11.550781-3.460937-15.863281-3.269531-1.257812.054688-2.519531.140625-3.78125.230469-3.023437.210938-5.902343.410156-8.667969.132812-7.359374-23.238281-14.898437-46.378906-22.609374-69.363281.386718-.398437.761718-.8125 1.109374-1.257812 3.84375-4.898438 4.300782-11.230469 4.425782-16.78125.394531-17.558594-.824219-35.25-3.621094-52.59375-1.132812-7.019531-2.683594-15.101563-6.78125-22.214844-3.09375-5.371094-7.835938-9.550781-13.277344-12.257813 1.03125-9.867187 1.917969-19.355468 2.769532-28.539062.894531-9.628906 1.816406-19.582031 2.914062-29.945312.34375-3.226563 1.253906-11.808594-5.09375-15.550782-3.003906-1.773437-6.359375-1.5585935-8.808594-1.402344l-13.480468.851563c-2.210938.140625-5.546876.351563-8.09375 2.667969-3.609376 3.28125-3.15625 8.511718-2.9375 11.023437l5.242187 60.382813c-8.078125 4.1875-12.84375 11.460937-15.421875 16.824218-3.285156 6.835938-4.863281 14.125-6.082031 20.984376-2.757813 15.535156-4.132813 32.117187-4.089844 49.289062.015625 5.613281.300781 11.507812 3.566406 16.496094.558594.855468 1.199219 1.652344 1.898438 2.40625-7.734375 23.066406-15.296875 46.289062-22.679688 69.605468-10.886719-1.59375-22.089843-.574218-32.523437 2.976563-7.671875 2.617187-9.714844 6.761719-10.074219 9.777344-.378906 3.152343.992187 6.445312 3.671875 8.808593 2.1875 1.933594 4.78125 2.929688 7.027344 3.644532 5.019531 1.605468 10.257812 2.410156 15.503906 2.410156 2.65625 0 5.316406-.214844 7.953125-.628906-14.921875 48.230468-29.03125 96.785156-42.171875 145.191406-1.761719 6.496094-4.425781 16.3125-.503906 24.753906.875 1.886719 2.074218 3.585938 3.511718 5.070313l-7.0625 29.28125c-.9960932 4.148437-1.832031 8.90625.933594 12.941406 3.070313 4.484375 8.574219 5.089844 12.382813 5.089844.8125 0 1.546875-.027344 2.164062-.050781 1.507813-.054688 2.8125-1.0625 3.25-2.503907l11.417969-37.652343c.132812-.433594.167969-.871094.132812-1.296876.636719-.199218 1.269532-.417968 1.890626-.679687 12.949218-5.433594 18.054687-19.769531 21.644531-34.453125l35.273437-144.308594 41.582032-1.3125c.164062-.003906.324218-.035156.484374-.066406l35.613282 145.6875c3.589844 14.683594 8.695312 29.019531 21.648437 34.453125 2.730469 1.144531 5.640625 1.683594 8.535157 1.683594 8.394531 0 16.664062-4.523438 20.082031-11.882813 3.921875-8.441406 1.257812-18.257812-.503907-24.753906-.375-1.382812-.761718-2.769531-1.136718-4.15625l13.082031-1.757812c2.488281 8.242187 3.570313 17.121093 4.605469 25.734374 1.402344 11.703126 2.855468 23.808594 7.828125 34.9375 5.902343 13.214844 16.363281 23.921876 25.589843 33.367188.671876.6875 1.585938 1.066406 2.53125 1.066406.171876 0 .34375-.015625.519532-.039062 1.121094-.167969 2.09375-.859375 2.617187-1.867188 6.527344-12.578125 13.925781-26.835937 14.8125-42.414062.042969-.738282.0625-1.472656.074219-2.203125.1875-.320313.292969-.691407.28125-1.089844-.015625-.476563-.125-.9375-.28125-1.382813-.101562-5.359374-.804688-10.632812-1.5-15.765624zm-20.144531-76.894532c-3.765625.359375-7.410157 1.15625-10.792969 1.898438l-6.730469 1.476562-7.308593-51.898437 15.902343-3.019531c.289063-.054688.554688-.175782.78125-.335938zm-51.21875-79.929687c1.976562-7.425781 8.03125-13.671875 15.058593-15.546875 7.238282-1.929688 15.507813.886718 19.664063 6.699218 2.992187 4.1875 4.070313 9.789063 4.894531 14.953126-.222656-.042969-.453125-.054688-.691406-.015626l-39.527344 6.328126c-.464844-4.210938-.460937-8.441407.601563-12.417969zm.820312 20.964843c-.304687-1.492187-.605469-3.011718-.863281-4.546874l39.605469-6.339844c.234375-.039063.449219-.121094.644531-.230469l.828125 5.257813c-.027344.003906-.054687 0-.082031.003906zm.835938 3.960938 39.878906-5.820312c.042969-.003907.082031-.023438.125-.03125l.847656 5.40625c-.304687-.09375-.636719-.125-.972656-.0625l-38.441406 7.300781c-.472657-2.242188-.953125-4.511719-1.4375-6.792969zm2.269531 10.746094 18.488281-3.511719 7.324219 52.015625-14.960938 3.28125c-2.25-10.613281-4.375-20.785156-6.492187-30.941406-1.4375-6.894532-2.882813-13.804688-4.359375-20.84375zm-43.238281-69.164063c1.199219-.082031 2.394531-.167969 3.59375-.21875 3.363281-.144531 8.230469-.078125 11.757812 2.167969 2.566407 1.632812 4.523438 5.1875 3.351563 7.871094-1.242188 2.839844-5.335938 3.90625-8.464844 3.957031-1.746094.027344-3.511719-.132813-5.394531-.304687-2.476563-.226563-5.03125-.460938-7.675781-.265626-1.34375-4.3125-2.695313-8.621093-4.050782-12.925781 2.332032.035157 4.632813-.121093 6.882813-.28125zm-74.953125-248.074219c1.753906-1.59375 6.507812-.914062 8.675781-1.023437 0-.011719 12.15625-.945313 13.359375-.234375 1.613281.949219 2.171875 3.882812 1.65625 8.71875-1.101562 10.40625-2.027344 20.382812-2.921875 30.03125-.003906.148438-.015625.292969-.042969.433594-1.753906.28125-18.453125.878906-18.429687 1.164062-.011719-.136718-2.945313-33.910156-2.945313-33.910156-.113281-1.273438-.371094-4.253906.648438-5.179688zm20.34375 42.03125c-.667969 7.179688-1.371094 14.542969-2.152344 22.125-4.539062-1.140624-9.269531-1.320312-13.753906-.402343l-1.792969-20.636719zm-37.335938 63.1875c1.128906-6.363281 2.578125-13.089843 5.492188-19.160156 2.113281-4.390625 5.960937-10.320312 12.3125-13.613281.335937-.175781.675781-.335937 1.019531-.488281.535156-.082032 1.019531-.277344 1.441406-.566406 2.230469-.777344 4.609375-1.152344 7.027344-1.152344 8.527344 0 17.496094 4.613281 21.886719 12.234375 3.5 6.074219 4.894531 13.414062 5.929687 19.8125 2.726563 16.917969 3.917969 34.179687 3.53125 51.308593-.101562 4.613282-.414062 9.386719-2.917969 12.578126-2.6875 3.421874-7.84375 4.765624-12.039062 5.554687-9.53125 1.789063-19.261719 2.214844-28.914062 1.253906-8.421876-.835937-13.769532-3.15625-16.339844-7.085937-2.203125-3.367188-2.398438-8.089844-2.410156-12.640625-.042969-16.75 1.296874-32.914063 3.980468-48.035157zm27.359375 78.199219 14.785157 60.484375-29.730469.648438zm-85.371093 76.835938c-1.546876-.492188-3.292969-1.144531-4.503907-2.210938-.890625-.789062-1.425781-1.859375-1.328125-2.667969.164063-1.398437 2.109375-2.828124 5.335938-3.929687 9.007812-3.066406 18.65625-4.023437 28.082031-2.820313-1.347656 4.277344-2.691406 8.558594-4.023437 12.839844-.472657-.101562-.96875-.117187-1.472657-.015625-7.324219 1.492188-14.964843 1.078125-22.089843-1.195312zm-3.144532 193.789062c-.796875 2.507813-1.628906 5.003907-2.472656 7.496094-1.082031 3.191406-1.769531 6.332031-2.660156 9.519531-1.210938 4.339844-2.617188 8.632813-3.925782 12.941406-2.511718-.074218-4.941406-.507812-5.953124-1.988281-1.125-1.644531-.535157-4.625.109374-7.289062 1.113282-4.617188 2.285157-9.21875 3.46875-13.816407 1.074219-4.164062 1.75-8.5625 2.882813-12.640624 3.195313 1.089843 6.167969 2.191406 9.628906 2.304687-.351562 1.160156-.710937 2.316406-1.078125 3.472656zm7.65625-11.648437c-7.175781 3.011718-16.457031-.164063-19.472656-6.660156-2.617188-5.632813-1.058594-12.636719.917969-19.921876.046875-.171874.09375-.347656.140625-.519531l33.058594 7.597657c-3 8.871093-7.273438 16.410156-14.644532 19.503906zm17.515625-29.613282c-.515625 2.105469-1.066406 4.199219-1.660156 6.25-.027344-.007812-.050781-.019531-.074219-.023437l-33.128906-7.617187c5.5625-20.414063 11.300781-40.847657 17.195312-61.277344 2.929688.945312 5.882813 1.828125 8.851563 2.65625-.9375 3.597656-1.445313 6.277344-1.460937 6.363281-.277344 1.511719-1.125 6.109375 1.933593 8.671875 1.121094.9375 2.457031 1.335938 3.789063 1.335938 1.640625 0 3.277344-.601563 4.507812-1.527344 2.0625-1.554688 3.230469-3.882813 4.097656-5.953125.722657-1.722657 1.347657-3.496094 1.886719-5.296875 2.496094.519531 4.996094.992187 7.503907 1.429687zm1.984375-57.273437c-.476562 1.5625-1.03125 3.097656-1.660156 4.59375-.691406 1.652344-1.511719 3.3125-2.804688 4.285156-.925781.699219-2.4375 1.015625-3.269531.320313-.832031-.695313-1.019531-2.324219-.554687-4.839844.34375-1.855469.816406-3.933594 1.378906-6.054688 2.296875.597657 4.597656 1.171876 6.910156 1.695313zm-5.789062-5.574219c1.90625-6.132812 4.363281-11.738281 6.355468-12.480468.050782-.019532.113282-.042969.1875-.042969.125 0 .296876.058593.566407.277343.792969.628907.878906 2.273438.871093 3.457032-.011718 3.492187-.417968 7.011718-1.175781 10.453125-2.277343-.519531-4.542969-1.078125-6.804687-1.664063zm44.566406-103.894531c-.480469.617187-.769531 1.386719-.75 2.226563.003906.191406.035156.378906.066406.558593l-25.675781 105.039063c-2.488281-.429688-4.976563-.898438-7.457031-1.414063.816406-3.714843 1.257812-7.519531 1.273437-11.289062.007813-2.191407-.257812-4.929688-2.390625-6.632813-1.4375-1.148437-3.105468-1.453125-4.691406-.859375-3.878906 1.449219-6.898438 8.785157-8.855469 15.214844-2.960937-.824219-5.902343-1.707031-8.824219-2.648437 16.488282-56.9375 34.214844-113.765626 52.945313-169.707032 3.625 1.785156 8.15625 2.945313 13.652344 3.488282 2.242187.222656 4.488281.367187 6.734375.453124zm3.121094 16.984375 2.78125-11.367188 33.183594-.722656 2.65625 10.871094zm119.792968 172.710938c-3.019531 6.496093-12.300781 9.667968-19.472656 6.660156-10.066406-4.222656-14.367187-16.726563-17.515625-29.613282l-56.863281-232.609374c3.734375-.308594 7.457031-.804688 11.148438-1.496094 2.867187-.539063 6.101562-1.316406 9.128906-2.703125 26.421875 78.882812 50.863281 159.558593 72.65625 239.839843 1.976562 7.28125 3.535156 14.285157.917968 19.921876zm2.886719-32.8125c-2.003906-7.308594-4.03125-14.621094-6.078125-21.933594l48.695313-10.6875c5.566406-1.222656 11.320312-2.488282 16.769531-1.683594 4.109375.605469 9.511719 3.027344 11.214844 7.859375 1.953125 5.5625-2.011719 11.835937-6.738282 14.914063-5.6875 3.707031-13.191406 4.714843-19.808593 5.605468zm66.296875 47.550781c-.765625.105469-1.484375.277343-2.117187.453125-5.316407 1.476562-10.167969 4.496094-13.917969 8.53125l-8.441406-55.027344 3.175781-.425781c4.753906-.640625 9.914063-1.339844 14.867187-2.984375l5.175782 38.316406c.496094 3.667969.992187 7.410156 1.257812 11.136719zm-39.710937-17.535157c-1.023438-8.550781-2.09375-17.363281-4.527344-25.847656l15.757813-2.121094 8.339843 54.347657c-.816406-.75-1.71875-1.457031-2.714843-2.070313-3.246094-1.988281-6.902344-2.527344-10.035157-1.472656-.972656.324219-1.863281.816406-2.648437 1.421875-2.175782-7.6875-3.15625-15.800781-4.171875-24.257813zm28.042969 60.695313c-2.257813-2.335937-4.5-4.707031-6.664063-7.140625 3.125-2.058594 7.273437-2.570312 10.804687-1.328125-1.328124 2.886719-2.734374 5.714844-4.140624 8.46875zm11.78125-35.207031c-.449219 7.90625-2.871094 15.640625-6 23.027344-4.96875-1.878907-10.789063-1.125-15.113282 1.957031-4.542968-5.410157-8.582031-11.171875-11.441406-17.574219-.628906-1.410156-1.191406-2.835938-1.707031-4.28125.597656-.871094 1.492187-1.601562 2.542969-1.953125 1.96875-.660156 4.449218-.253906 6.636718 1.089844 1.863282 1.140625 3.550782 2.867187 5.480469 5.597656.378906.539063.992187.855469 1.648437.855469h.0625c.679688-.023438 1.304688-.382813 1.65625-.960938 3.375-5.496094 8.875-9.640625 15.085938-11.367187.390625-.109375.800781-.203125 1.214844-.277344.015625 1.300781.007812 2.597656-.066406 3.886719zm0 0"/></svg>