<svg height="512pt" viewBox="0 -52 512.00046 512" width="512pt" xmlns="http://www.w3.org/2000/svg"><path d="m505.367188 335.394531c-2.949219-2.929687-6.359376-4.878906-10.054688-6.121093 2.25-20.84375-3.339844-41.238282-8.75-60.964844-2.8125-10.246094-5.71875-20.84375-7.449219-31.292969-3.976562-23.996094-2.5-50.773437 4.644531-84.265625 2.925782-13.699219 6.535157-27.523438 10.03125-40.890625 3.652344-13.980469 7.433594-28.441406 10.453126-42.867187 1.390624-6.640626 5.625-26.847657-6.863282-37.132813-6.628906-5.457031-15.238281-6.03125-24.222656-6.167969l-171.253906-2.597656c-.132813-.339844-.257813-.695312-.390625-1.035156-2.234375-5.621094-4.925781-11.433594-9.476563-15.855469-5.429687-5.277344-12.945312-7.4375-19.148437-5.507813-8.859375 2.761719-13.15625 12.714844-12.820313 21.117188.277344 6.875 2.839844 13.117188 5.316406 19.15625.402344.980469.804688 1.957031 1.191407 2.9375 15.410156 38.636719 13.445312 83.882812-5.261719 121.039062-18.707031 37.152344-53.882812 65.683594-94.097656 76.316407-13.179688 3.480469-27.082032 5.171875-40.53125 6.804687-13.261719 1.609375-26.972656 3.277344-40.222656 6.660156-15.414063 3.9375-30.171876 10.21875-41.546876 17.683594-14.738281 9.667969-23.957031 21.101563-27.394531 33.980469-.128906.484375-.148437.96875-.082031 1.433594-7.367188 4.136719-13.566406 10.453125-16.175781 18.992187-4.757813 15.578125 4.703125 31.585938 15.503906 39.863282 11.265625 8.636718 25.089844 12.304687 39.453125 15.589843 37.425781 8.566407 75.308594 15.125 112.597656 19.492188 38.179688 4.46875 76.105469 6.707031 113.46875 6.707031 29.832032 0 59.308594-1.425781 88.246094-4.28125 33.828125-3.339844 67.339844-8.683594 99.601562-15.882812 1.589844-.355469 3.148438-.679688 4.679688-1 11.148438-2.332032 21.675781-4.535157 29.878906-15.132813 10.753906-13.886719 8.476563-29.011719.675782-36.777344zm-252.148438 39.214844c-.054688-2.566406-.257812-5.128906-.601562-7.671875 18.511718 1.265625 37.011718 1.90625 55.5 1.90625 65.621093 0 130.949218-7.96875 194.882812-23.8125.144531-.035156.277344-.085938.402344-.148438.945312 2.113282 1.492187 4.53125 1.523437 7.148438-80.917969 23.621094-167.855469 31.414062-251.707031 22.578125zm-53.226562 23.195313c6.398437-18.453126 6.910156-39.242188 1.421874-57.996094 4.335938.546875 8.679688 1.058594 13.023438 1.546875 9.351562 17.492187 11.683594 38.96875 6.238281 58.03125-6.878906-.445313-13.777343-.988281-20.683593-1.582031zm-19.203126-1.832032c4.441407-19.320312 4.027344-40.039062-1.179687-59.15625 5.792969.863282 11.589844 1.6875 17.398437 2.441406 5.898438 18.722657 5.476563 39.730469-1.175781 58.195313-5.007812-.453125-10.023437-.949219-15.042969-1.480469zm38.472657-54.078125c5.8125.617188 11.632812 1.171875 17.453125 1.6875 10.785156 16.554688 12.527344 38.574219 4.363281 56.585938-.046875.101562-.066406.199219-.101563.300781-5.386718-.234375-10.78125-.515625-16.183593-.84375 5.171875-18.949219 3.117187-40.066406-5.53125-57.730469zm281.933593-.582031c-81.585937 20.125-165.429687 27.367188-249.253906 21.53125-1.273437-6.457031-3.476562-12.726562-6.585937-18.527344 73.960937 5.839844 148.667969 3.101563 221.519531-8.359375 12.128906-1.90625 25.722656-3.292969 33.503906 4.449219.285156.285156.554688.59375.816406.90625zm-21.453124-71.132812c5.40625 19.699218 10.5 38.328124 8.609374 57.558593-7.292968-.886719-15.1875.074219-22.574218 1.238281-8.847656 1.390626-17.722656 2.640626-26.621094 3.773438-3.542969-30.492188 10.871094-61.960938 36.183594-79.269531 1.375 5.632812 2.902344 11.214843 4.402344 16.699219zm7.207031-160.105469c-3.511719 13.441406-7.148438 27.34375-10.101563 41.199219-6.535156 30.613281-9.742187 64.042968-3.191406 94.878906-.101562.050781-.207031.09375-.304688.15625-28.691406 18.453125-45.160156 53.445312-41.207031 87.304687.253907 2.199219-95.363281 6.503907-104.023437 6.570313-19.898438.152344-39.804688-.320313-59.679688-1.414063-8.871094-.492187-17.746094-1.109375-26.582031-1.953125-1.210937-.117187-12.828125-.324218-12.960937-1.058594 2.234374-18.339843-1.421876-37.925781-10.351563-55.253906-7.980469-15.480468-19.867187-28.582031-33.890625-37.492187 1.5.953125 10.820312-4.796875 12.234375-5.511719 5.117187-2.585938 10.457031-4.96875 15.046875-8.253906 6.832031 13.019531 22.292969 22.222656 36.386719 24.792968 3.117187.566407 6.289062.847657 9.46875.847657 11.820312 0 23.703125-3.859375 33.117187-10.972657 13.796875-10.421874 21.46875-26.425781 27.160156-40.699218 6.9375-17.414063 12.34375-35.5625 16.070313-53.9375 2.199219-10.832032 3.65625-22.285156-.507813-32.613282-3.316406-8.214843-10.292968-15.351562-19.394531-19.96875.140625-7.078124-.132812-14.140624-.742187-21.203124-.230469-2.671876.03125-5.308594-.226563-7.925782-.097656-1.015625-1.273437-10.613281-2.199219-10.652344.003907 0 187.078126 6.113282 187.078126 6.113282-.230469 1.453125-.496094 2.949218-.824219 4.515625-2.984375 14.253906-6.742188 28.628906-10.375 42.53125zm-192.648438 95.570312c.519531-.0625 1.035157-.160156 1.546875-.289062-.144531.269531-.285156.542969-.433594.8125-7.347656 13.300781-16.117187 22.597656-26.121093 27.75.851562-3.625-.414063-7.679688-2.632813-10.429688-.980468-1.21875-3.804687-4.539062-7.300781-7.167969 11.203125-2.410156 22.800781-5.957031 34.941406-10.675781zm-10.886719-94.484375c8.875.75 17.515626 3.414063 25.261719 7.78125-1.523437.417969-2.972656.964844-4.316406 1.480469l-23.472656 8.953125c1.199219-6.011719 2.035156-12.101562 2.527343-18.214844zm-3.542968 22.925782 25.925781-9.890626c2.265625-.863281 4.605469-1.757812 6.917969-1.902343 2.277344-.148438 4.335937.539062 5.492187 1.832031 1.902344 2.125 1.332031 5.804688-.316406 8.132812-1.96875 2.769532-5.234375 4.542969-8.410156 6.121094-11.027344 5.46875-22.644531 9.730469-34.589844 12.710938 1.984375-5.566406 3.648437-11.242188 4.980469-17.003906zm31.402344 7.914062c1.789062-.890625 3.601562-1.839844 5.28125-2.992188-.726563 2.972657-1.371094 5.722657-1.996094 8.414063-1.046875 4.480469-2.125 9.113281-3.59375 14.683594-2.550782 9.707031-5.167969 19.621093-8.757813 29.132812-1.054687-2.820312-2.851562-5.253906-4.457031-7.410156l-21.523438-28.902344c12.101563-3.046875 23.871094-7.382812 35.046876-12.925781zm-57.742188 75.464844c.027344.015625.046875.035156.078125.046875 3.523437 1.59375 7.429687 5.441406 9.90625 8.511719 2.027344 2.507812 2.886719 6.714843.742187 9.136718-1.257812 1.425782-3.542968 2.167969-5.972656 1.933594-2.539062-.246094-5.058594-1.410156-7.21875-2.480469-7.894531-3.921875-15.269531-8.796875-21.960937-14.511719 7.980469-.25 16.101562-1.125 24.425781-2.636718zm-29.683594 3.378906c7.628906 6.945312 16.175782 12.796875 25.421875 17.386719 2.484375 1.234375 5.402344 2.574219 8.632813 2.882812.429687.039063.855468.0625 1.277344.0625 1.5625 0 3.058593-.285156 4.402343-.8125.109375.019531.21875.054688.335938.054688.210937 0 .429687-.035157.644531-.105469 13.523438-4.539062 25.09375-15.371094 34.386719-32.195312 7.800781-14.117188 11.929687-29.808594 15.921875-44.984376 1.480468-5.621093 2.570312-10.285156 3.621094-14.792968 1.042968-4.476563 2.121093-9.109375 3.585937-14.675782.0625-.226562.070313-.457031.054687-.679687 1.738282-3.542969 1.988282-8.3125-.917968-11.554687-1.480469-1.65625-3.617188-2.710938-6.066406-3.0625-.144532-.210938-.328126-.398438-.554688-.546876-9.226562-6.085937-19.898438-9.769531-30.90625-10.691406.1875-3.414062.273438-6.835937.242188-10.257812 7.410156.40625 16.335937 1.457031 24.417968 4.867187 8.917969 3.761719 15.742188 10.164063 18.730469 17.574219 3.46875 8.597656 2.117187 18.808594.136719 28.566406-3.640625 17.960938-8.925782 35.695313-15.710938 52.71875-5.324218 13.371094-12.445312 28.304688-24.851562 37.679688-10.394532 7.851562-24.246094 11.148437-37.054688 8.808594-12.816406-2.335938-24.613281-10.304688-31.5625-21.320313-.097656-.152344-.210937-.28125-.324218-.414063 2.078124-1.453124 4.128906-2.953124 6.136718-4.507812zm249.203125-188.085938c7.96875.121094 14.964844.546876 19.835938 4.558594 4.445312 3.664063 6.433593 9.824219 6.015625 18.664063l-189.207032-6.183594c-1.4375-6.808594-3.1875-13.402344-5.234374-19.59375zm-198.0625-25.3125c3.765625-1.167968 8.523438.328126 12.117188 3.824219 3.398437 3.304688 5.589843 7.746094 7.835937 13.398438 7.839844 19.730469 12.351563 45.332031 12.253906 69.082031-8.125-2.738281-16.5-3.613281-23.496093-3.96875-.160157-3.011719-.402344-6.019531-.738281-9.015625.957031.101563 1.941406.175781 2.941406.175781.847656 0 1.707031-.050781 2.558594-.183594 3.125-.484374 5.742187-2.050781 7.1875-4.289062 2.152343-3.34375 1.453124-7.511719.992187-10.269531l-3.011719-17.945313c-.644531-3.859375-1.453125-8.660156-4.382812-12.335937-2.335938-2.925781-6.003906-4.757813-10.0625-5.027344-3.398438-.230469-6.65625.675781-9.21875 2.488281-1.503906-3.964844-2.675782-7.851562-2.835938-11.847656-.222656-5.574219 2.457032-12.402344 7.859375-14.085938zm-1.84375 33.839844c-.398437-1-.8125-2-1.222656-3-.132813-.332031-.269531-.660156-.402344-.992187 1.878907-1.695313 4.550781-2.566407 7.394531-2.371094 2.933594.195313 5.546876 1.476563 7.175782 3.515625 2.28125 2.855469 2.957031 6.910156 3.558594 10.484375l3.011718 17.945313c.472656 2.835937.800782 5.539062-.40625 7.410156-.820312 1.273437-2.425781 2.179687-4.410156 2.488281-1.722656.269531-3.570312.101563-5.398438-.125-1.679687-12.101563-4.773437-24-9.300781-35.355469zm-.457031 115.648438 21.824219 29.308594c1.589843 2.132812 3.234375 4.339843 4.050781 6.761718.8125 2.414063.625 4.800782-.503906 6.382813-1.609375 2.25-4.875 2.65625-7.230469 2.078125-3.117187-.765625-5.824219-3.03125-7.832031-4.917969-7.699219-7.234375-13.378906-16.757813-16.128906-26.96875.253906-.488281.511718-.96875.757812-1.453125 1.84375-3.660156 3.53125-7.394531 5.0625-11.191406zm-8.511719 17.621094c2.382813 6.925781 6.023438 13.453124 10.660157 19.128906l-27.855469 5.246094c6.503906-7.546876 12.28125-15.710938 17.195312-24.375zm-21.65625 29.324218 35.429688-6.667968c.742187.777343 1.5 1.542968 2.285156 2.28125 1.699219 1.597656 3.855469 3.421874 6.425781 4.695312-20.25 7.300781-38.957031 11.203125-56.894531 11.855469 4.476563-3.816407 8.730469-7.882813 12.753906-12.164063zm-154.308593 57.695313c12.808593-3.269531 26.289062-4.90625 39.328124-6.492188 13.683594-1.660156 27.835938-3.378906 41.484376-6.988281 2.3125-.613281 4.609374-1.289062 6.890624-2.015625 31.070313 16.726563 50.296876 53.976563 45.953126 88.988281-49.109376-5.136718-97.757813-14.089844-145.171876-26.832031l-1.695312-.457031c-12.765625-3.441406-25.964844-7-39.496094-5.636719-3.214844.320313-6.550781 1.023437-9.832031 2.09375 8.558594-21.769531 37.375-36.230469 62.539063-42.660156zm66.71875 131.328125c-5.476563-.722656-10.96875-1.507813-16.460938-2.324219l7.816406-59.328125c4.421875.824219 8.847656 1.613281 13.28125 2.375 2.074219 19.71875.476563 40.109375-4.636718 59.277344zm-36.730469-5.542969 9.519531-59.769531c4.855469 1.003906 9.722656 1.972656 14.59375 2.898437l-7.835938 59.484375c-5.421874-.828125-10.847656-1.695312-16.277343-2.613281zm-20.15625-3.589844c1.058593-20.464843 4.746093-40.714843 10.957031-60.238281 4.917969 1.121094 9.839844 2.207031 14.777344 3.25-.015625.058594-.035156.113281-.046875.171875l-9.515625 59.746094c-5.390625-.933594-10.78125-1.914063-16.171875-2.929688zm-63.34375-74.402343c.507812-.070313 1.011719-.144532 1.511719-.195313 4.523437-.457031 9.089843-.277344 13.664062.289063-9.179688 18.53125-13.90625 39.078124-13.75 59.761718-4.792969-1.839844-9.304688-4.074218-13.390625-6.941406-1.222656-18.273438 3.011719-36.933594 11.964844-52.914062zm19.382812.722656c4.945313.851562 9.882813 2.066406 14.769531 3.359375-7.898437 19.386719-12.507812 40.472656-13.417968 61.382812-5.234375-1.222656-10.363282-2.535156-15.253906-4.160156-.402344-20.988281 4.394531-41.871094 13.902343-60.582031zm18.707031 4.414062c.121094.03125.246094.066406.371094.097656l1.699219.460938c3.382813.90625 6.769531 1.785156 10.164063 2.65625-6.5625 19.769531-10.535157 40.273438-11.816407 61.058594-4.59375-.980469-9.183593-1.992188-13.765625-3.035156.816406-20.859376 5.410156-41.921876 13.347656-61.238282zm16.160157 4.210938c5.351562 1.347656 10.722656 2.640625 16.105469 3.894531-6.199219 19.578125-9.902344 39.875-11.011719 60.382813-5.617188-1.082032-11.234375-2.210938-16.84375-3.382813 1.230469-20.734375 5.179687-41.1875 11.75-60.894531zm-80.925781 10.164062c2.96875-9.71875 12.113281-15.847656 21.523437-18.449218-7.660156 14.886718-11.507813 31.765624-11.019531 48.5-7.796875-7.199219-13.914063-18.882813-10.503906-30.050782zm150.953124 64.535156c5.035157-19.128906 6.652344-39.429687 4.722657-59.109374 3.835937.636718 7.675781 1.253906 11.523437 1.847656 5.535156 19.105468 6.066406 39.984375 1.523438 59.371094-2.367188-.257813-4.734375-.507813-7.105469-.785157-3.550781-.414062-7.105469-.867187-10.664063-1.324219zm340.128907-25.570312c-6.613281 8.539062-15.054688 10.304688-25.738281 12.539062-1.558594.328126-3.152344.660157-4.769532 1.023438-31.988281 7.136719-65.214844 12.433594-98.757812 15.742188-39.585938 3.90625-80.175782 5.105468-121.339844 3.628906 2.851562-7.035156 4.398438-14.546875 4.6875-22.109375 22.425781 2.347656 45.0625 3.527343 67.753906 3.527343 62.015625 0 124.382813-8.734374 183.582032-25.855468-.71875 3.714844-2.429688 7.644531-5.417969 11.503906zm0 0"/></svg>