<svg height="511pt" viewBox="-19 1 511 511.999" width="511pt" xmlns="http://www.w3.org/2000/svg"><path d="m226.902344 273.089844c-15.921875 2.316406-31.378906 8.152344-44.691406 16.878906-18.316407 12.003906-33.019532 29.753906-41.398438 49.984375-9.195312 22.191406-10.453125 47.179687-3.457031 68.546875 6.007812 18.339844 18.234375 34.992188 34.425781 46.898438 16.023438 11.777343 36.40625 18.589843 57.390625 19.175781.992187.03125 1.984375.042969 2.972656.042969 19.964844 0 39.535157-5.625 55.40625-15.976563 16.652344-10.859375 30.191407-27.550781 38.117188-46.992187 7.925781-19.445313 9.910156-40.839844 5.59375-60.253907-9.527344-42.832031-54.722657-85.523437-104.359375-78.304687zm56.785156 179.632812c-15.121094 9.859375-33.28125 14.746094-51.46875 14.746094-20.082031 0-40.191406-5.960938-56.25-17.765625-15.015625-11.039063-26.339844-26.453125-31.894531-43.398437-6.476563-19.792969-5.289063-42.988282 3.269531-63.640626 7.839844-18.933593 21.601562-35.546874 38.742188-46.78125 12.457031-8.164062 26.925781-13.625 41.835937-15.796874 3.277344-.476563 6.582031-.710938 9.898437-.710938 17.507813 0 35.355469 6.574219 51.15625 19.015625 17.914063 14.101563 30.808594 33.980469 35.382813 54.542969 8.246094 37.074218-8.859375 79.039062-40.671875 99.789062zm0 0"/><path d="m305.894531 275.921875c-24.554687-19.328125-53.003906-27.800781-80.113281-23.859375-19.292969 2.808594-38.015625 9.878906-54.140625 20.449219-22.1875 14.539062-39.996094 36.042969-50.148437 60.546875-11.121094 26.84375-12.648438 57.046875-4.195313 82.863281 7.253906 22.144531 22.023437 42.257813 41.59375 56.644531 19.367187 14.238282 44.019531 22.472656 69.417969 23.183594 1.203125.035156 2.398437.050781 3.601562.050781 24.152344 0 47.820313-6.800781 67.003906-19.308593 20.136719-13.132813 36.507813-33.320313 46.09375-56.847657 9.589844-23.527343 11.996094-49.40625 6.777344-72.871093-5.953125-26.753907-22.675781-52.578126-45.890625-70.851563zm35.375 142.199219c-9.285156 22.773437-25.109375 42.300781-44.5625 54.988281-19.453125 12.683594-43.691406 19.285156-68.285156 18.605469-24.582031-.691406-48.429687-8.648438-67.140625-22.402344-18.894531-13.890625-33.152344-33.300781-40.144531-54.648438-8.15625-24.910156-6.667969-54.09375 4.089843-80.058593 9.84375-23.765625 27.113282-44.617188 48.628907-58.71875 15.636719-10.246094 33.792969-17.105469 52.507812-19.824219 4.152344-.605469 8.339844-.902344 12.542969-.902344 22.101562 0 44.597656 8.277344 64.488281 23.9375 22.496094 17.707032 38.695313 42.695313 44.449219 68.550782 5.039062 22.671874 2.707031 47.699218-6.574219 70.472656zm0 0"/><path d="m282.28125 307.621094c-16.585938-13.054688-35.816406-18.777344-54.152344-16.109375-13.015625 1.890625-25.644531 6.664062-36.523437 13.792969-14.96875 9.808593-26.984375 24.316406-33.832031 40.847656-7.503907 18.121094-8.535157 38.511718-2.824219 55.949218 4.898437 14.960938 14.871093 28.546876 28.089843 38.261719 14.09375 10.359375 31.734376 15.589844 49.359376 15.589844 15.953124-.003906 31.898437-4.292969 45.164062-12.941406 27.914062-18.207031 42.925781-55.035157 35.6875-87.566407-4.015625-18.0625-15.304688-35.492187-30.96875-47.824218zm-6.925781 132.007812c-26.5625 17.316406-64.378907 16.257813-89.925781-2.523437-12.542969-9.21875-22.003907-22.097657-26.644532-36.261719-5.414062-16.53125-4.421875-35.902344 2.722656-53.144531 6.539063-15.792969 18.015626-29.648438 32.308594-39.015625 10.390625-6.8125 22.457032-11.367188 34.894532-13.175782 2.746093-.398437 5.519531-.597656 8.300781-.597656 14.652343 0 29.570312 5.492188 42.769531 15.886719 14.945312 11.765625 25.707031 28.359375 29.527344 45.527344 6.882812 30.949219-7.394532 65.984375-33.953125 83.304687zm0 0"/><path d="m257.742188 379.867188c-10.039063 4.402343-18.507813 13.222656-23.722657 24.554687-3.261719-6.421875-7.140625-11.75-11.566406-15.886719-6.480469-6.054687-14.359375-9.703125-22.1875-10.265625-8.539063-.617187-16.933594 2.644531-22.175781 8.527344l-.820313-.332031c-.917969-.367188-1.964843-.019532-2.480469.824218-.503906.828126-1.03125 1.65625-1.558593 2.484376-1.351563 2.128906-2.753907 4.332031-3.84375 6.644531-.242188.511719-.257813 1.097656-.042969 1.621093.210938.523438.632812.933594 1.160156 1.128907 3.78125 1.421875 7.558594 2.925781 11.210938 4.378906 11.761718 4.679687 23.90625 9.515625 37.199218 11.882813 1.203126 7.742187 8.453126 14.300781 16.339844 14.410156.070313.003906.136719.003906.207032.003906 7.890624 0 15.277343-6.441406 16.574218-14.1875 16.859375-5.191406 33.359375-11.898438 49.058594-19.941406.832031-.429688 1.261719-1.367188 1.042969-2.277344l-1.789063-7.375c-.136718-.566406-.511718-1.042969-1.03125-1.316406-.515625-.265625-1.121094-.300782-1.664062-.089844l-2.363282.917969c-9.179687-9.03125-24.617187-11.378907-37.546874-5.707031zm30.816406 7.917968c.792968 0 1.476562-.464844 1.808594-1.136718.238281.1875.480468.371093.710937.566406l-43.472656 16.910156c-2.148438.839844-4.4375 1.714844-6.777344 2.390625 12.683594-12.074219 30.179687-19.042969 47.695313-18.730469zm-29.191406-4.21875c8.679687-3.808594 18.589843-3.566406 26.378906.207032-16.765625.40625-33.3125 6.992187-45.871094 18.113281 4.8125-8.390625 11.628906-14.871094 19.492188-18.320313zm-59.390626-1.265625c6.910157.496094 13.910157 3.757813 19.71875 9.1875 3.722657 3.480469 7.046876 7.914063 9.917969 13.226563-11.109375-12.539063-27.785156-19.535156-44.515625-18.660156 4.191406-2.75 9.496094-4.148438 14.878906-3.753907zm24.941407 23.316407c-.863281-.328126-1.71875-.671876-2.566407-1.015626l-36.203124-14.5625c14.234374-.46875 28.769531 5.421876 38.769531 15.578126zm72.914062-12.777344c-15.449219 7.816406-31.671875 14.320312-48.230469 19.339844-.800781.242187-1.371093.957031-1.429687 1.792968-.441406 6.339844-6.355469 11.832032-12.703125 11.828125-.054688 0-.105469 0-.15625 0-6.410156-.089843-12.261719-5.785156-12.523438-12.1875-.039062-.960937-.75-1.757812-1.695312-1.910156-13.460938-2.1875-25.324219-6.910156-37.886719-11.910156-2.988281-1.1875-6.058593-2.410157-9.160156-3.597657.800781-1.433593 1.707031-2.859374 2.59375-4.253906.230469-.363281.464844-.730468.691406-1.09375l43.511719 17.503906c3.453125 1.386719 7.363281 2.960938 11.492188 3.265626 6.011718.449218 11.710937-1.769532 16.734374-3.726563l47.894532-18.632813zm0 0"/><path d="m209.617188 327.445312c.796874 2.207032 2.035156 3.394532 3.679687 3.527344 1.246094.101563 2.210937-.484375 2.785156-.835937 2.21875-1.347657 4.546875-2.542969 6.800781-3.703125.855469-.441406 1.726563-.890625 2.601563-1.351563.75 12.453125.433594 25.015625-.949219 37.414063l-13.8125.703125c-1.023437.050781-1.84375.863281-1.910156 1.886719-.171875 2.621093-.492188 7.503906 2.644531 10.503906 2.074219 1.984375 4.8125 2.449218 7.519531 2.449218.886719 0 1.769532-.050781 2.621094-.113281l37.9375-2.761719c.65625-.050781 1.25-.414062 1.585938-.980468 1.09375-1.824219 2.449218-4.09375 2.605468-6.746094.167969-2.941406-1.59375-6.339844-4.832031-6.945312-.988281-.183594-1.917969-.066407-2.660156.03125l-7.375.9375-1.1875-56.328126c0-.6875-.367187-1.355468-.945313-1.730468-.761718-.488282-1.144531-.738282-10.632812 1.171875-1.476562.296875-8.894531 1.804687-10.277344 2.433593-4.136718 1.882813-8.109375 4.546876-11.949218 7.121094-2.046876 1.375-3.980469 2.671875-5.9375 3.859375-.824219.5-1.179688 1.507813-.855469 2.414063zm6.503906-9.960937c3.703125-2.488281 7.535156-5.058594 11.351562-6.792969 1.238282-.503906 11.816406-2.742187 16.207032-3.414062l1.191406 56.511718c.011718.574219.265625 1.117188.699218 1.488282.4375.375 1.007813.550781 1.574219.476562l9.601563-1.226562c.515625-.066406 1.042968-.132813 1.410156-.066406.960938.179687 1.605469 1.597656 1.539062 2.742187-.078124 1.34375-.765624 2.722656-1.503906 4.007813l-36.882812 2.683593c-2.714844.199219-5.496094.265625-7.054688-1.222656-1.285156-1.230469-1.53125-3.359375-1.492187-5.53125l13.6875-.699219c.984375-.046875 1.785156-.800781 1.902343-1.777344 1.703126-14.242187 2.019532-28.714843.949219-43.015624-.050781-.691407-.453125-1.308594-1.0625-1.632813-.613281-.324219-1.347656-.3125-1.949219.027344-1.722656.980469-3.515624 1.90625-5.253906 2.800781-2.3125 1.1875-4.707031 2.417969-7.046875 3.839844-.054687.035156-.148437.089844-.242187.140625-.082032-.144531-.195313-.378907-.324219-.746094l-1.988281-5.507813c1.574218-1 3.148437-2.058593 4.6875-3.085937zm0 0"/><path d="m472.871094 104.917969-.863282-75.847657c-.007812-.765624-.273437-1.492187-.71875-2.082031-.246093-1.375-1.292968-2.527343-2.742187-2.835937-75.246094-16.027344-153.152344-24.152344-231.566406-24.152344-.199219 0-.402344 0-.601563 0-77.527344.0390625-155.695312 8.019531-232.328125 23.714844-1.914062.390625-3.144531 2.257812-2.753906 4.171875.046875.226562.117187.441406.203125.648437-.03125.179688-.046875.355469-.050781.535156l-.867188 75.847657c-.226562 19.972656-.4843748 42.613281 6.527344 63.164062 5.882813 17.238281 16.535156 32.292969 27.167969 45.992188 25.226562 32.503906 54.019531 62.355469 85.578125 88.746093-5.15625 7.855469-9.582031 16.171876-13.167969 24.820313-12.589844 30.398437-14.316406 64.605469-4.738281 93.855469 8.214843 25.097656 24.953125 47.890625 47.121093 64.1875 21.9375 16.128906 49.855469 25.453125 78.605469 26.257812 1.359375.039063 2.71875.058594 4.078125.058594 27.347656 0 54.148438-7.703125 75.875-21.871094 22.808594-14.875 41.347656-37.734375 52.203125-64.371094 10.855469-26.632812 13.578125-55.941406 7.664063-82.519531-2.992188-13.46875-8.40625-26.726562-15.796875-39.117187.390625-.136719.761719-.339844 1.097656-.617188 31.878906-26.558594 60.941406-56.648437 86.382813-89.429687 10.632812-13.699219 21.285156-28.753907 27.167968-45.992188 7.011719-20.550781 6.753906-43.191406 6.523438-63.164062zm-157.320313 158.101562c-.816406-.640625-1.640625-1.273437-2.464843-1.894531 52.078124-61.988281 103.296874-126.046875 152.324218-190.484375l.394532 34.355469c.089843 7.777344.175781 15.65625-.117188 23.503906-20.246094 26.273438-41.546875 52.90625-62.167969 78.6875-21.027343 26.289062-42.765625 53.464844-63.382812 80.257812-7.167969-8.964843-15.429688-17.214843-24.585938-24.425781zm-184.898437 25.324219c-.027344-.046875-.050782-.09375-.085938-.140625l-122.796875-159.691406c-.292969-7.851563-.203125-15.734375-.117187-23.511719l.394531-34.359375c49.046875 64.464844 100.28125 128.542969 152.375 190.542969-11.054687 7.648437-21.089844 16.828125-29.769531 27.160156zm33.128906-29.4375c-53.003906-63.074219-105.132812-128.300781-154.957031-193.902344-.195313-.253906-.4375-.441406-.707031-.574218.042968-3.730469.203124-7.476563.304687-11.183594.0625-2.226563 1.609375-15.253906-.039063-16.457032 10.800782 7.871094 19.355469 20.730469 27.5625 31.234376.699219.898437 142.53125 182.480468 142.53125 182.480468-5.066406 2.527344-9.980468 5.332032-14.695312 8.402344zm212.421875-123.875c-.378906-.269531-.816406-.46875-1.296875-.574219-91.027344-19.8125-187.300781-20.015625-278.414062-.59375-.042969.007813-.082032.027344-.121094.035157l-21.316406-27.289063c105.761718-24.820313 217.371093-24.722656 323.078124.351563zm24.3125-31.121094c-.277344-.398437-.683594-.699218-1.191406-.820312-106.996094-25.421875-220.015625-25.402344-327.011719.011718l-30.800781-39.433593c-.886719-1.136719-1.78125-2.277344-2.675781-3.421875 64.683593-12.070313 131.015624-18.105469 197.183593-17.839844 66.3125.238281 132.71875 6.753906 197.429688 19.335938-.5.644531-1.003907 1.285156-1.503907 1.925781zm-215.480469 143.5-83.816406-107.304687c88.5625-18.394531 181.914062-18.097657 270.34375.871093l-82.441406 105.542969c-20.867188-9.929687-43.011719-13.640625-64.425782-10.527343-13.660156 1.988281-27.066406 5.863281-39.660156 11.417968zm252.480469-179.390625c8.484375-10.859375 17.214844-22.035156 27.507813-31.355469-1.035157.9375-.722657 13.546876-.601563 15.636719.238281 4.039063.875 8 .921875 12.128907-.269531.132812-.515625.320312-.707031.574218-49.777344 65.539063-101.859375 130.707032-154.816407 193.730469-4.660156-3.320313-9.429687-6.300781-14.285156-8.945313zm-201.132813-60.949219h.601563c76.117187 0 151.753906 7.726563 224.90625 22.925782-4.777344 4.175781-8.183594 9.640625-12.871094 13.828125-1.609375 1.441406-11.917969 14.511719-12.761719 14.347656-65.605468-12.898437-132.964843-19.5625-200.222656-19.804687-67.175781-.261719-134.4375 5.914062-200.027344 18.292968-7.578124-9.550781-15.585937-19.015625-24.980468-27.125 74.390625-14.855468 150.175781-22.425781 225.355468-22.464844zm-196.519531 202.671876c-10.257812-13.21875-20.515625-27.6875-26.0625-43.941407-3.324219-9.742187-4.917969-19.898437-5.652343-30.167969l119.21875 155.03125c.234374.304688.539062.515626.871093.644532-1.484375 1.859375-2.933593 3.75-4.332031 5.679687-30.980469-25.964843-59.253906-55.308593-84.042969-87.246093zm313.421875 213.347656c-10.316406 25.316406-27.902344 47.023437-49.515625 61.117187-21.617187 14.09375-48.574219 21.445313-75.894531 20.671875-27.328125-.765625-53.828125-9.605468-74.617188-24.890625-20.992187-15.429687-36.828124-36.984375-44.589843-60.6875-9.0625-27.671875-7.402344-60.09375 4.550781-88.953125 10.949219-26.433594 30.160156-49.625 54.089844-65.308594 17.390625-11.394531 37.585937-19.023437 58.40625-22.050781 28.824218-4.195312 59.175781 4.894531 85.464844 25.585938 25.015624 19.695312 43.027343 47.46875 49.417968 76.199219 5.601563 25.191406 3.003906 53.003906-7.3125 78.316406zm80.308594-213.347656c-25.128906 32.378906-53.835938 62.097656-85.324219 88.328124-.085937.074219-.152343.15625-.230469.234376-1.703124-2.574219-3.492187-5.109376-5.367187-7.589844.078125-.074219.15625-.144532.226563-.234375 20.722656-26.949219 42.609374-54.308594 63.777343-80.765625 19.421875-24.285156 39.441407-49.320313 58.632813-74.117188-.734375 10.285156-2.328125 20.453125-5.652344 30.203125-5.546875 16.253907-15.804688 30.722657-26.0625 43.941407zm0 0"/></svg>