<svg height="511pt" viewBox="-43 0 511 511.99954" width="511pt" xmlns="http://www.w3.org/2000/svg"><path d="m424.085938 209.421875c-4.65625-14.765625-15.789063-25.605469-26.558594-36.089844-4.171875-4.058593-8.484375-8.261719-12.285156-12.574219-20.816407-23.65625-30.21875-57.601562-24.539063-88.597656.421875-2.289062.90625-4.574218 1.417969-6.996094 2.539062-12.011718 5.167968-24.429687-.515625-35.730468-3.507813-6.972656-9.589844-12.238282-16.683594-14.453125-5.75-1.792969-11.792969-1.472657-17.261719.875-1.652344-5.28125-4.765625-9.699219-8.972656-12.484375-9.414062-6.222656-21.753906-2.953125-29.242188 2.722656-7.867187 5.96875-12.773437 14.71875-17.097656 22.4375l-24.125 43.035156c-7.726562 13.773438-17.191406 28.671875-31.84375 31.070313-12.972656 2.121093-25.640625-7.089844-32.433594-17.15625-6.546874-9.703125-10.023437-21.488281-13.386718-32.886719-.574219-1.949219-1.148438-3.894531-1.738282-5.832031-3.132812-10.3125-7.363281-22.195313-14.992187-32.167969-9.117187-11.921875-20.398437-10.269531-30.257813-7.789062-8.4375 2.125-15.121093 6.742187-18.820312 13.003906-.152344.261718-.296875.527344-.4375.789062-5.035156-2.414062-10.90625-2.617187-16.765625-.527344-8.859375 3.15625-16.597656 11.035157-19.71875 20.070313-3.847656 11.140625-2.832031 22.859375-1.847656 34.191406.273437 3.113281.550781 6.332031.714843 9.441407 1.605469 30.222656-7.925781 61.414062-26.148437 85.582031-3.046875 4.039062-6.414063 8.007812-9.671875 11.847656-5.375 6.335937-10.933594 12.886719-15.445312 20.175781-22.128907 35.769532-15.4492192 81.1875-6.707032 124.644532 7.511719 37.328124 16.863282 75.332031 39.121094 102.429687-.015625.09375-.042969.183594-.054688.285156-.859374 9.4375-1.753906 19.199219-.464843 28.964844 1.042969 7.898437 4.058593 19.046875 12.519531 27.304687 8.996094 8.78125 21.480469 11.859376 33.496094 14.257813 42.476562 8.488281 85.335937 12.734375 128.234375 12.734375 36.460937 0 72.953125-3.070312 109.25-9.207031 11.476562-1.9375 23.410156-4.515625 32.105469-12.679688 14.015624-13.15625 13.492187-34.757812 11.464843-52.109375-.097656-.871094-.515625-1.613281-1.105469-2.167968 9.449219-13.8125 14.507813-30.667969 19.121094-48.164063 11.636719-44.125 21.984375-89.21875 30.753906-134.023437 3.113282-15.917969 5.332032-30.234376.921876-44.226563zm-109.304688-200.144531c4.257812 2.8125 6.992188 8.550781 7.136719 14.972656.015625.636719-.011719 1.277344-.039063 1.914062-7.691406-7.382812-17.640625-12.46875-28.128906-14.449218 5.558594-4.203125 14.503906-6.757813 21.03125-2.4375zm-24.902344 5.917968c11.457032 1.410157 22.472656 6.863282 30.488282 15.160157.273437.28125.609374.460937.964843.550781-.769531 4.242188-2.171875 8.382812-3.539062 12.125-.316407.859375-.644531 1.714844-.96875 2.574219-9.5625-9.902344-22.824219-15.960938-36.585938-16.664063 2.734375-4.78125 5.792969-9.730468 9.640625-13.746094zm-11.882812 17.726563c14.09375.128906 27.824218 6.382813 37.207031 16.882813-2.832031 7.148437-5.964844 14.160156-9.394531 21.015624-9.4375-11.03125-22.058594-19.21875-35.976563-23.335937zm16.289062 58.550781c-8.914062-11.597656-22.3125-19.625-36.722656-22.097656l10.238281-18.261719c13.972657 3.933594 26.644531 12.183594 35.859375 23.417969.050782.0625.113282.109375.167969.164062-2.976563 5.707032-6.15625 11.300782-9.542969 16.777344zm-39.890625-16.445312 1.066407-1.902344c14.410156 2.0625 27.894531 10.117188 36.460937 21.90625.023437.03125.054687.050781.078125.082031-4.472656 6.980469-9.269531 13.761719-14.398438 20.320313-.460937.589844-.914062 1.160156-1.371093 1.730468-5.71875-13.050781-16.492188-23.769531-29.535157-29.480468 2.796876-4.105469 5.328126-8.429688 7.699219-12.65625zm-10.09375 16.011718c12.980469 5.429688 23.652344 16.179688 28.882813 29.257813.050781.132813.132812.242187.207031.355469-8.191406 9.832031-15.628906 16.753906-23.5625 21.984375-.011719-14.804688-5.871094-29.671875-15.941406-40.53125 3.882812-3.105469 7.3125-6.914063 10.414062-11.066407zm-13.730469 13.460938c9.851563 10.417969 15.519532 24.917969 15.222657 39.246094-.011719.429687.117187.832031.339843 1.164062-7.121093 4.097656-14.570312 6.707032-21.839843 7.664063.816406-14.660157-.753907-29.230469-4.675781-43.375 4.007812-.921875 7.636718-2.550781 10.953124-4.699219zm-14.972656 5.363281c3.945313 14.035157 5.5 28.507813 4.621094 43.070313-2.421875.113281-4.816406.046875-7.160156-.222656-6.53125-.75-12.6875-2.964844-18.351563-5.867188-.285156-13.121094 2.769531-26.507812 8.730469-38.179688 4.367188 1.210938 8.535156 1.527344 12.160156 1.199219zm-27.179687-9.03125c3.648437 2.9375 7.425781 5.074219 11.140625 6.535157-5.730469 11.4375-8.828125 24.40625-8.917969 37.234374-5.449219-3.214843-10.367187-6.933593-14.625-10.386718-1.488281-1.207032-2.957031-2.441406-4.417969-3.6875 2.398438-11.242188 8.417969-21.863282 16.820313-29.695313zm-3.054688-2.683593c-8.304687 7.851562-14.386719 18.257812-17.203125 29.355468-5.125-4.570312-10.035156-9.375-14.714844-14.40625 5.289063-10.359375 14.363282-18.605468 25.160157-22.90625 2.128906 3.050782 4.398437 5.691406 6.757812 7.957032zm-9.003906-11.410157c-10.902344 4.542969-20.121094 12.8125-25.804687 23.175781-4.066407-4.546874-7.949219-9.257812-11.628907-14.121093 7.960938-10.050781 19.199219-17.5 31.542969-20.960938 1.664062 4.097657 3.582031 8.09375 5.890625 11.90625zm-7.34375-15.695312c-12.675781 3.636719-24.230469 11.214843-32.59375 21.410156-2.84375-3.90625-5.546875-7.910156-8.128906-11.992187 8.242187-12.3125 21.472656-21.179688 35.992187-24.128907 1.449219 4.902344 2.949219 9.851563 4.730469 14.710938zm-18.382813-48.71875c2.679688 4.097656 4.851563 8.496093 6.675782 12.917969-15.769532 2.613281-30.738282 10.464843-41.84375 21.960937-.566406-1.191406-1.144532-2.375-1.6875-3.574219-1.507813-3.332031-2.703125-6.421875-3.585938-9.296875 9.171875-12.847656 24.667969-21.273437 40.441406-22.007812zm8.183594 16.78125c1.226563 3.308593 2.28125 6.585937 3.234375 9.714843.363281 1.199219.71875 2.410157 1.078125 3.617188-14.820312 3.105469-28.363281 11.960938-37.171875 24.269531-3.078125-5.082031-5.941406-10.292969-8.597656-15.605469 10.800781-11.675781 25.734375-19.59375 41.457031-21.996093zm-47.972656-15.699219c2.691406-4.550781 7.957031-8.101562 14.453125-9.738281 3.832031-.964844 7.117187-1.566407 10.039063-1.566407 4.941406 0 8.835937 1.734376 12.519531 6.351563-14.953125 1.4375-29.433594 9.191406-38.929688 20.835937-1.230469-6.433593-.589843-11.628906 1.917969-15.882812zm277.976562 349.921875c-58.222656 19.191406-119.421874 28.257813-181.929687 26.953125-62.898437-1.316406-123.996094-13.074219-181.660156-34.933594-3.75-13.050781-6.722657-26.621094-9.445313-40.113281 46.953125 25.914063 102.824219 30.859375 160.71875 33.867187 22.152344 1.148438 44.03125 2.140626 65.75 2.140626 16.613282 0 33.132813-.582032 49.605469-2.109376 41.183594-3.824218 77.316406-13.492187 107.511719-28.714843-3.375 14.367187-6.894532 28.679687-10.550782 42.910156zm11.753907-48.054687c-30.335938 15.886718-67.03125 25.925781-109.089844 29.832031-37.738281 3.503906-75.824219 1.980469-114.773437-.042969-58.636719-3.042969-115.15625-8.066406-161.964844-35.039062-2.3125-11.785157-4.402344-23.679688-5.71875-35.414063 59.589844 12.160156 129.710937 24.730469 201.285156 27.503906 9.601562.371094 19.085938.558594 28.460938.558594 62.097656 0 119.148437-8.179687 170.054687-24.34375-2.636719 12.328125-5.394531 24.648437-8.253906 36.945313zm-41.121094 116.195312c-18.113281 17.753906-45.648437 21.949219-72.710937 23.835938-45.605469 3.1875-91.808594 2.613281-137.332032-1.703126-25.675781-2.433593-55-6.398437-78.035156-22.699218-10.398438-7.363282-18.734375-16.675782-25.566406-27.3125 22.921875 13.113281 48.734375 18.902344 71.453125 22.808594 32.949219 5.660156 65.648437 8.484374 97.988281 8.484374 53.964844 0 106.910156-7.894531 158.269531-23.605468-3.671875 7.554687-8.175781 14.421875-14.066406 20.191406zm-44.246094 56.621094c-6.535156.957031-13.074219 1.804687-19.617187 2.558594.441406-9.652344-.332032-19.296876-2.320313-28.746094 6.59375-.558594 13.175781-1.296875 19.636719-2.371094 2.789062 9.234375 3.578125 18.996094 2.300781 28.558594zm-70.730469 6.414062c.101563-10.082031-.460937-20.21875-1.671874-30.214844 7.683593-.132812 15.359374-.367187 23.027343-.703124 1.421875 9.863281 1.601563 19.859374.542969 29.765624-7.296875.507813-14.597656.890626-21.898438 1.152344zm25.410157-31.113281c5.789062-.285156 11.574219-.621094 17.347656-1.023437.65625-.046876 1.3125-.09375 1.96875-.144532 2.039063 9.488282 2.816406 19.1875 2.3125 28.886719-7.007813.761719-14.023437 1.414063-21.039063 1.949219 1-9.878906.796876-19.832032-.589843-29.667969zm-127.730469 26.601563c-.175781-.226563-.394531-.414063-.644531-.546876l-.457031-29.582031c2.628906.285157 5.210937.546875 7.6875.785157 4.335937.410156 8.679687.773437 13.027343 1.117187l-.09375 29.6875c-.074219.203125-.105469.429687-.113281.65625-6.472656-.605469-12.941406-1.316406-19.40625-2.117187zm-23.039062-3.28125c-1.347657-10-1.78125-20.136719-1.289063-30.222657 6.535156 1.253907 12.996094 2.175781 19.175781 2.910157l.460938 30c-6.121094-.804688-12.238282-1.703126-18.347656-2.6875zm-23.167969-4.148438c-1.917969-10.703125-2.664063-21.597656-2.230469-32.457031 4.027344 1.429687 8.261719 2.714843 12.722656 3.855469 2.453125.628906 4.914063 1.179687 7.371094 1.703124-.53125 10.128907-.140625 20.308594 1.140625 30.367188-6.34375-1.0625-12.675781-2.214844-19.003906-3.46875zm-20.089844-5.519531c-3.042969-11.886719-3.996094-24.371094-2.796875-36.589844 5.121094 3.097656 10.65625 5.8125 16.675781 8.171875-.539062 11.058594.121094 22.160156 1.960938 33.078125-5.445313-1.15625-10.890625-2.546875-15.839844-4.660156zm89.953125-14.964844c7.050781.523437 14.109375.960937 21.179688 1.308594 1.042968 10.152343 1.261718 20.4375.652343 30.628906-7.316406-.386719-14.625-.894531-21.925781-1.53125zm25.261719 1.496094c7.367187.324219 14.742187.550781 22.121093.683593l1.21875 30.613282c-7.578124-.085938-15.15625-.300782-22.730468-.652344.609375-10.199219.402344-20.484375-.609375-30.644531zm-136.734375-16.796875c-.914063-6.929688-.609375-14.082032-.046875-21.148438 3.960937 4.003906 8.273437 7.707032 12.996093 11.046875.648438.460938 1.308594.914063 1.972657 1.359375-1.429688 12.195313-.785157 24.683594 1.886719 36.675782-2.3125-1.339844-4.453126-2.910157-6.363282-4.769532-7.011718-6.839844-9.550781-16.371094-10.445312-23.164062zm164.125 48.132812-1.21875-30.582031c3.75.050781 7.503906.082031 11.253906.082031 3.414062 0 6.828125-.027344 10.242188-.070312 1.234374 10.019531 1.804687 20.191406 1.691406 30.300781-7.324219.214844-14.648438.304687-21.96875.269531zm111.179687-9.09375c-3.425781.578125-6.851562 1.117188-10.28125 1.644532 1.121094-9.605469.285157-19.371094-2.453125-28.644532 6.945313-1.324218 13.710938-3.082031 20.140625-5.46875 3.046875 9.898438 3.71875 20.402344 1.941407 30.632813-3.078126.730469-6.230469 1.308593-9.347657 1.835937zm28.445313-10.863281c-4.066406 3.8125-9.226563 6.207031-14.8125 7.886719 1.519531-10.378906.671875-20.976563-2.457032-30.980469 8.707032-3.660156 16.710938-8.597656 23.585938-15.335937 1.1875-1.164063 2.308594-2.375 3.394531-3.605469 1.410157 14.863281 1 31.980469-9.710937 42.035156zm17.683594-68.585937c-82.558594 25.851562-169.300782 31.253906-257.824219 16.042968-24.535157-4.214844-52.710938-10.644531-76.582031-26.277344-6.066407-11.011718-10.796876-23.171874-14.699219-35.917968 57.253906 21.332031 117.820312 32.804687 180.136719 34.109375 3.976562.085937 7.949218.125 11.914062.125 57.964844 0 114.6875-8.914063 168.898438-26.496094-.683594 2.636719-1.359376 5.285156-2.050782 7.914063-2.804687 10.640624-5.761718 21.027343-9.792968 30.5zm40.445312-164.082032c-2.054688 10.492188-4.203125 21-6.425781 31.507813-58.664063 18.960937-125.6875 27.132812-199.324219 24.277343-71.785156-2.78125-142.183594-15.472656-201.878906-27.679687-2.613282-27.230469-.65625-53.441406 12.859375-75.289063 4.230469-6.839843 9.613281-13.183593 14.824219-19.320312 3.320312-3.914062 6.753906-7.964844 9.921874-12.164062 19.210938-25.476563 29.257813-58.359376 27.570313-90.222657-.171875-3.226562-.457031-6.503906-.734375-9.675781-.960938-11.082031-1.871094-21.550781 1.484375-31.265625 2.410156-6.976563 8.597656-13.289063 15.402344-15.714844 3.070312-1.09375 7.574219-1.839843 11.933593.550781-2.191406 10.269532 1.855469 21.265626 5.476563 29.261719 14.582031 32.164063 36.792969 60.921875 64.230469 83.164063 10.269531 8.324218 24.175781 18.125 40.691406 20.027344 1.902344.21875 3.828125.328124 5.773438.328124 11.640624 0 23.929687-3.878906 35.183593-11.183593 10.136719-6.582031 19.378907-15.550781 29.96875-29.089844 17.59375-22.5 31.476563-47.511719 41.265625-74.34375 2.292969-6.289063 4.730469-13.644531 4.550782-21.363281-.007813-.335938-.027344-.667969-.046876-1 4.355469-2.355469 9.144532-2.828125 13.867188-1.351563 5.273438 1.644531 9.816406 5.609375 12.464844 10.875 4.570312 9.082031 2.203125 20.269531-.082032 31.085938-.5 2.359375-1.015624 4.800781-1.453124 7.183593-6.0625 33.078126 3.972656 69.308594 26.1875 94.550782 3.976562 4.519531 8.390624 8.816406 12.660156 12.972656 10.609375 10.324219 20.628906 20.078125 24.746094 33.144531 3.910156 12.402344 1.808593 25.785157-1.117188 40.734375zm0 0"/><path d="m345.871094 182.191406c-12.238282-10.300781-30.246094-16.039062-44.796875-14.28125-7.773438.9375-15.554688 4.390625-23.132813 10.261719-6.933594 5.367187-12.929687 11.691406-17.351562 18.277344-9.375 13.980469-11.734375 28.828125-6.820313 42.9375 4.628907 13.289062 18.644531 29.179687 44.105469 33.921875 4.445312.828125 8.863281 1.234375 13.1875 1.234375 12.734375 0 24.617188-3.53125 33.828125-10.25 12.625-9.207031 20.46875-24.84375 20.472656-40.808594.003907-15.585937-7.28125-31.023437-19.492187-41.292969zm-5.152344 76.382813c-10.765625 7.855469-25.910156 10.6875-41.546875 7.777343-18.527344-3.453124-33.722656-14.949218-38.71875-29.292968-5.246094-15.066406.375-28.253906 6.015625-36.667969 4.003906-5.964844 9.46875-11.714844 15.804688-16.625 6.550781-5.078125 13.164062-8.050781 19.648437-8.832031 1.511719-.179688 3.0625-.269532 4.648437-.269532 11.769532 0 25.199219 4.910157 34.746094 12.941407 10.628906 8.941406 16.972656 22.355469 16.96875 35.878906-.003906 13.746094-6.730468 27.191406-17.566406 35.089844zm0 0"/><path d="m335.175781 193.316406c-8.757812-7.367187-21.632812-11.480468-32.039062-10.222656-5.53125.667969-11.082031 3.132812-16.492188 7.324219-4.976562 3.855469-9.28125 8.390625-12.449219 13.117187-6.695312 9.980469-8.382812 20.570313-4.882812 30.621094 3.304688 9.484375 13.324219 20.828125 31.539062 24.21875 3.191407.59375 6.359376.886719 9.457032.886719 9.109375 0 17.605468-2.523438 24.183594-7.320313 9.011718-6.570312 14.609374-17.734375 14.609374-29.125 0-11.132812-5.203124-22.160156-13.925781-29.5zm-32.867187 20.027344c1.683594 1.414062 3.84375 2.226562 6.0625 2.226562.160156 0 .316406-.007812.476562-.015624 2.804688-.144532 5.425782-1.582032 7.078125-3.820313 1.46875 1.8125 2.753907 3.746094 3.71875 5.839844-.335937.117187-.644531.316406-.890625.609375-2.355468 2.839844-5.960937 4.644531-9.644531 4.832031-3.613281.183594-7.285156-1.191406-9.90625-3.667969.875-2.078125 1.933594-4.070312 3.105469-6.003906zm2.238281-3.433594c1.316406-1.898437 2.714844-3.742187 4.128906-5.53125 1.503907 1.347656 3.023438 2.753906 4.472657 4.238282-.042969.058593-.089844.113281-.125.175781-.875 1.5625-2.597657 2.628906-4.386719 2.722656-1.507813.078125-3.03125-.539063-4.089844-1.605469zm6.675781 16.929688c3.707032-.621094 7.21875-2.476563 9.824219-5.1875 1.253906 5.382812.5 11.085937-.300781 17.085937-.667969 5.035157-1.34375 10.230469-.796875 15.390625-2.578125.609375-5.285157.964844-8.066407 1.0625.109376-.261718.167969-.546875.160157-.84375zm-13.757812 26.574218c-1.253906-9.621093-2.484375-20.292968.296875-30 2.703125 2.070313 6.023437 3.335938 9.417969 3.597657l.820312 27.453125c.007812.25.0625.484375.152344.703125-2.160156-.101563-4.351563-.355469-6.558594-.765625-1.40625-.261719-2.777344-.601563-4.128906-.988282zm34.644531-4.738281c-2.457031 1.789063-5.222656 3.226563-8.210937 4.292969-.359376-4.46875.253906-9.152344.859374-13.699219.925782-6.957031 1.882813-14.152343-.492187-21.050781-2.6875-7.800781-9.234375-13.613281-14.496094-18.28125-.414062-.367188-.957031-.546875-1.511719-.503906-.554687.046875-1.0625.316406-1.40625.746094-4.742187 5.898437-9.589843 12.289062-12.25 19.835937-3.6875 10.453125-2.695312 21.703125-1.398437 31.945313-9.671875-3.855469-17.179687-10.839844-20.070313-19.136719-3.875-11.125.265626-20.84375 4.421876-27.039063 2.929687-4.367187 6.929687-8.578125 11.566406-12.171875 4.824218-3.738281 9.703125-5.929687 14.5-6.507812 9.355468-1.132813 20.996094 2.609375 28.949218 9.304687 7.820313 6.578125 12.488282 16.449219 12.488282 26.402344-.003906 10.128906-4.964844 20.039062-12.949219 25.863281zm0 0"/></svg>