<svg height="512pt" viewBox="-35 0 512 512.00238" width="512pt" xmlns="http://www.w3.org/2000/svg"><path d="m440.351562 413.992188c-.113281-2.886719-.304687-7.71875-3.835937-10.824219-3.070313-2.703125-7.132813-2.738281-9.820313-2.761719-5.230468-.03125-10.308593.652344-15.230468 1.320312-3.878906.527344-7.589844 1.011719-11.316406 1.179688l-26.027344-321.9375c-.476563-5.859375-1.125-13.882812-6.363282-19.53125-5.769531-6.21875-14.40625-7.058594-22.757812-7.390625l-66.105469-2.601563-.34375-16.691406c-.039062-1.902344-1.578125-3.433594-3.484375-3.460937l-12.300781-.175781.789063-20.6875c.066406-1.855469.257812-6.789063-3.5625-9.222657-2.054688-1.3125-4.386719-1.2343748-5.78125-1.1874998l-25.933594.8593748c-1.09375.039063-3.375.113282-5.050782 1.886719-1.894531 1.996094-1.605468 4.640625-1.480468 5.769531l2.402344 22.039063-11.824219-.167969c-1.007813.019531-1.976563.40625-2.65625 1.148438-.683594.746093-1.011719 1.746093-.910157 2.75l1.503907 14.4375-62.320313-2.453126c-5.433594-.214843-12.867187-.507812-18.773437 3.46875-8.644531 5.824219-9.707031 17.855469-10.273438 24.320313l-12.230469 138.832031c0 .015625.003907.035156.003907.050782-2.367188 2.378906-4.714844 4.769531-7.023438 7.195312-22.160156 23.257812-41.953125 48.972656-58.835937 76.433594-8.476563 13.785156-16.289063 28.144531-23.226563 42.679687-3.4375 7.199219-6.722656 14.578125-9.765625 21.933594-.589844 1.433594-1.359375 3.066406-2.171875 4.792969-2.707031 5.753906-5.777343 12.277344-5.64062475 17.984375.02734375.984375.46093775 1.917969 1.20312475 2.570312.648438.566407 1.480469.878907 2.332031.878907.125 0 .25-.007813.371094-.019532 18.183594-1.929687 35.582032-15.996094 49.558594-27.296875l2.214844-1.789062c14.90625-12.003907 29.46875-24.914063 43.660156-38.648438-.953125 13.421875-1.816406 27.355469-2.65625 40.902344-.933594 15.089844-1.898438 30.652344-2.984375 45.4375-3.976563.140625-7.640625.003906-11.703125-.148437-1.847656-.074219-3.761719-.144532-5.792969-.195313-.582031-.011719-1.179687-.035156-1.800781-.0625-5.128906-.199219-12.15625-.472656-16.765625 4.253906-2.839844 2.917969-4.230469 7.085938-3.90625 11.738281.386719 5.628907 3.234375 11.277344 7.25 14.390626 7.566406 5.875 17.777344 6.007812 25.230469 6.105468l29.675781.386719-9.054687 57.296875c-.257813 1.632812-1.042969 6.59375 2.765624 9.164062 1.644532 1.109376 3.421876 1.207032 4.597657 1.273438l28.5 1.570312c.5625.03125 1.242187.066407 1.988281.066407 2.445312 0 5.628906-.398438 7.976562-2.742188 2.800782-2.796875 2.84375-6.765625 2.871094-9.136719l.628906-56.964843 41.035157.535156c9.457031.125 18.996093.296875 28.511719.488281l-2.023438 34.644532c-.070312 1.167968-.210938 3.597656 1.507812 5.507812 1.601563 1.773438 3.808594 2.003906 5.207032 2.003906.289062 0 .546875-.011718.753906-.019531l32.925781-1.277344c1.949219-.078125 3.46875-1.71875 3.394531-3.667969l-1.375-36.292968c22.703126.523437 45.789063 1.019531 68.898438 1.203125l-.476562 55.433593c-.015626 1.5625-.035157 4.171876 1.613281 6.335938 2.3125 3.03125 6.214843 3.132812 8.089843 3.179688l34.589844.90625c.210938.003906.472656.011718.765625.011718 2 0 5.613281-.3125 7.511719-3.417968 1.222656-1.996094 1.046875-4.179688.9375-5.484376l-4.679688-57.148437c10.363282-.199219 20.992188-.867187 31.285157-1.523437 7.671875-.484376 15.601562-.988282 23.324219-1.289063.9375-.035156 1.820312-.441406 2.457031-1.132813.636719-.6875.972656-1.601562.9375-2.539062zm-185.902343-406.90625c.441406-.015626 1.472656-.046876 1.714843.058593.070313.082031.417969.617188.324219 3.015625l-.792969 20.855469-24.425781-.34375-2.476562-22.738281zm17.105469 31.226562.261718 12.855469-54.417968-2.144531-1.195313-11.492188zm-145.617188 36.382812c.644531-7.320312 1.785156-15.4375 7.183594-19.074218 3.6875-2.484375 8.769531-2.496094 14.542968-2.269532l197.058594 7.761719c6.875.269531 13.917969.890625 17.855469 5.132813 3.300781 3.558594 3.988281 9.03125 4.496094 15.292968l26.003906 321.636719-292.242187 2.238281c1.054687-14.484374 1.996093-29.671874 2.90625-44.402343.992187-16.007813 2.015624-32.5625 3.183593-48.140625.015625-.214844.007813-.421875-.015625-.628906 26.144532-26.097657 50.96875-55.0625 74.191406-86.636719 6.859376-9.332031 12.984376-19.304688 13.132813-29.8125 19.425781-3.210938 37.492187-13.589844 49.980469-28.839844 13.214844-16.136719 19.863281-37.316406 18.242187-58.105469-.101562-1.296875-.902343-2.429687-2.09375-2.957031-1.1875-.527344-2.570312-.355469-3.59375.4375-9.597656 7.441406-21.769531 10.582031-35.53125 13.640625l-.558593.128906c-13.132813 2.917969-26.707032 5.9375-38.015626 13.894532-10.324218 7.257812-19.652343 21.273437-17.007812 35.691406-10.316406.957031-19.039062 7.496094-26.507812 13.664062-8.457032 6.980469-16.722657 14.335938-24.71875 21.992188zm72.304688 81.332032c-.660157-.898438-1.925782-1.09375-2.824219-.4375-6.179688 4.523437-10.546875 11.398437-12.136719 18.878906-.972656-.691406-1.992188-1.320312-3.046875-1.878906-.101563-7.628906 2.851563-15.421875 8.027344-21.019532.757812-.820312.707031-2.097656-.113281-2.855468-.820313-.757813-2.097657-.707032-2.855469.113281-5.546875 6.003906-8.769531 13.90625-9.074219 22.039063-1.066406-.355469-2.152344-.660157-3.257812-.875-3.164063-11.878907 4.886718-23.972657 13.769531-30.222657 7.507812-5.277343 16.5-8.21875 25.707031-10.511719-.273438.460938-.53125.925782-.773438 1.40625-1.128906 2.257813-1.609374 4.273438-1.464843 6.167969.203125 2.691407 1.777343 5.03125 4.007812 5.957031 4.183594 1.738282 8.183594-1.796874 9.886719-3.308593 1.691406-1.496094 4.027344-3.109375 5.554688-2.320313.421874.21875.726562.625.910156 1.195313.289062.925781.175781 2.101562-.292969 2.996093-.945313 1.804688-2.824219 3.09375-4.816406 4.457032l-.210938.144531c-2.335937 1.597656-4.925781 3.558594-6.085937 6.535156-1.3125 3.355469-.367188 7.398438 2.296875 9.824219 1.648437 1.507812 3.859375 2.300781 6.066406 2.300781 1.351563 0 2.703125-.296875 3.929687-.90625 1.710938-.859375 3.011719-2.199219 4.15625-3.386719l.503907-.515624c1.054687-1.074219 2.203125-2.101563 3.464843-2.371094.859376-.179688 1.898438.214844 2.0625.785156.03125.101562.074219.199219.117188.292969-.960938 1.347656-1.953125 2.675781-3.003906 3.960937-11.339844 13.851563-27.714844 23.308594-45.339844 26.300782-.191406-.738282-.421875-1.464844-.683594-2.175782l19.40625-8.988281c1.011719-.46875 1.453125-1.667969.984375-2.683594-.46875-1.007812-1.667969-1.449219-2.679687-.980469l-19.410156 8.988282c-.152344-.265625-.320313-.519532-.480469-.777344 4.976562-6.667969 11.78125-11.949219 19.507812-15.066406 1.035157-.417969 1.535157-1.59375 1.117188-2.628906-.417969-1.035157-1.59375-1.539063-2.628907-1.117188-8.035156 3.238281-15.152343 8.628906-20.496093 15.429688-.378907-.433594-.773438-.859376-1.179688-1.269532.921875-7.355468 4.957031-14.269531 10.941407-18.652344.902343-.65625 1.097656-1.921874.4375-2.824218zm36.167968-18.878906c-.5-1.589844-1.53125-2.859376-2.902344-3.570313-2.859374-1.488281-6.257812-.519531-10.09375 2.882813-1.773437 1.566406-4.015624 3.277343-5.660156 2.597656-.8125-.335938-1.441406-1.378906-1.527344-2.527344-.085937-1.144531.257813-2.476562 1.050782-4.058594.855468-1.714844 1.988281-3.292968 3.328125-4.664062 1.203125-.273438 2.40625-.542969 3.605469-.808594l.5625-.125c12.207031-2.714844 23.269531-5.515625 32.851562-11.230469-.113281 13.832031-4.136719 27.554688-11.464844 39.273438-1.433594-1.332031-3.605468-1.816407-5.425781-1.433594-2.320313.488281-4.085937 2.039063-5.511719 3.488281l-.527344.539063c-1.007812 1.046875-1.964843 2.035156-3.058593 2.582031-1.734375.863281-4.035157.542969-5.46875-.761719-1.429688-1.308593-1.960938-3.566406-1.253907-5.375.742188-1.910156 2.683594-3.355469 4.605469-4.671875l.210938-.144531c2.203125-1.507813 4.703125-3.21875 6.109375-5.914063.972656-1.851562 1.183594-4.125.570312-6.078124zm-90.761718 51.652343c7.148437-5.90625 15.527343-12.183593 24.664062-12.183593.121094 0 .242188 0 .363281.003906 8.101563.148437 15.964844 6.285156 17.902344 13.972656.148437.585938.257813 1.171875.347656 1.761719-.03125.277343-.046875.5625-.007812.851562.03125.257813.09375.5.171875.730469.644531 9.1875-5.152344 18.597656-11.683594 27.480469-7.238281 9.839843-14.632812 19.417969-22.171875 28.742187-6.417969-16.902344-22.027344-30.253906-39.695313-34.078125 9.640626-9.570312 19.730469-18.714843 30.109376-27.28125zm-92.398438 164.015625-2.226562 1.796875c-12.011719 9.710938-26.679688 21.574219-41.3125 24.984375.949218-3.40625 2.769531-7.277344 4.328124-10.59375.851563-1.804687 1.65625-3.511718 2.3125-5.101562 2.992188-7.238282 6.226563-14.5 9.609376-21.585938 6.828124-14.3125 14.523437-28.453125 22.871093-42.027344 16.621094-27.035156 36.113281-52.359374 57.929688-75.257812.886719-.929688 1.785156-1.847656 2.675781-2.769531 18.578125 1.90625 35.523438 16.203125 40.441406 34.226562.011719.050781.035156.09375.050782.140625-30.121094 36.414063-62.515626 68.667969-96.679688 96.1875zm97.3125 129.234375c-.015625 5.949219-.03125 11.902344-.097656 17.84375-.015625 1.207031-.039063 3.457031-.796875 4.210938-2.105469 2.152343-11.964844.023437-14.84375-.097657-6.082031-.257812-12.164063-.515624-18.242188-.851562-.21875-.011719-.609375-.03125-.878906-.074219-.050781-.296875-.085937-.941406.113281-2.199219 1.183594-7.484374 3.277344-14.933593 4.179688-22.347656 1.460937-12.015625 3.144531-24 5.035156-35.957031 8.660156.109375 17.480469 1.015625 26.082031.34375-.496093 13.027344-.519531 26.082031-.550781 39.128906zm107.316406-3.90625c-.65625-.003906-1.375-.019531-2.144531.015625-7.617187.320313-15.234375.652344-22.855469.949219-.046875.003906-.09375.003906-.132812-.019531-.898438-.445313.835937-14.367188.933594-15.996094.296874-5.128906-.519532-12.050781 1.035156-16.929688 1.289062-4.035156 5.128906-3.21875 8.71875-3.160156 5.621094.09375 16.421875-2.488281 17.675781 4.847656 1.085937 6.339844.753906 12.8125.488281 19.203126-.179687 4.253906 2.421875 11.101562-3.71875 11.089843zm125.15625 26.640625c-3.1875.882813-7.871094-.222656-11.179687-.214844-4.859375.015626-9.722657.027344-14.578125.042969-1.496094.003907-12.507813.765625-13.519532-.996093-.179687-.316407-.171874-1.527344-.164062-1.984376.054688-6.589843.25-55.449218.476562-55.449218 11.414063.058594 22.816407.015625 34.195313-.132813 1.574219 19.210938 3.148437 38.449219 4.71875 57.625.019531.253907.0625.777344.050781 1.109375zm33.175782-66.90625c-13.816407.722656-27.644532 1.511719-41.488282 1.296875-12.058594-.1875-24.113281-.371093-36.171875-.558593-23.859375-.367188-47.746093-1.101563-71.609375-1.101563-48.363281-.746094-96.777344-2.054687-145.136718-2.054687-12.242188-.160157-24.492188-.21875-36.730469-.503907-6.046875-.140625-12.804688-.707031-17.757813-4.550781-3.21875-2.5-4.992187-7.4375-4.125-11.523438 1.390625-6.550781 7.425782-6.429687 12.9375-6.210937.652344.027344 1.289063.050781 1.902344.066406 2 .046875 3.878906.117188 5.695312.1875 5.574219.210938 10.839844.414063 17.21875-.15625.375-.03125.726563-.140625 1.054688-.277343 29.089844-.226563 58.0625.132812 87.097656-.105469 35.960938 0 71.765625-1.113281 107.683594-1.390625 23.289062-.175782 46.582031-.355469 69.875-.535156 20.507812-.15625 41.164062-1.746094 61.695312-2.578126 2.40625-.097656 5.269532.027344 6.578126 2.050782.71875 1.113281.742187 2.523437.746093 3.851562.007813 4.878906-.285156 9.863282.019531 14.730469.128907 2.0625 1.90625 7.546875-.328124 8.921875-1.277344.789062-7.03125-.15625-8.667969-.082031-3.421875.15625-6.84375.332031-10.265625.511719-.074219.003906-.148438.007812-.222656.011718zm0 0"/><path d="m272.390625 219.8125c-.007813.410156.109375.792969.3125 1.117188l-25.890625 23.246093c-.832031.746094-.898438 2.019531-.15625 2.851563.746094.828125 2.023438.898437 2.851562.152344l11.132813-9.992188-3.109375 52.324219c-.164062 2.753906-.542969 9.199219 3.984375 12.144531 2.265625 1.472656 5.011719 1.488281 7.019531 1.5l21.675782.128906c-1.851563 7.277344-8.023438 13.875-16.296876 17.1875-9.511718 3.804688-20.273437 3.1875-27.542968 2.394532-3.441406-.378907-6.945313-.894532-10.335938-1.394532-6.035156-.886718-12.277344-1.808594-18.53125-2.003906-15.152344-.484375-30.714844 3.476562-43.816406 11.105469-1.570312.917969-3.152344 1.902343-4.679688 2.855469-6.375 3.976562-12.394531 7.734374-19.230468 7.835937-3.023438.050781-6.027344-.648437-9.199219-1.390625-1.582031-.367188-3.21875-.75-4.871094-1.03125-4.636719-.800781-11.113281-.898438-15.617187 3.15625-.828125.746094-.894532 2.023438-.148438 2.851562.398438.445313.949219.667969 1.5.667969.480469 0 .964844-.167969 1.351563-.515625 3.300781-2.972656 8.472656-2.824218 12.230469-2.179687 1.535156.261719 3.113281.628906 4.640624.984375 3.269532.761718 6.660157 1.574218 10.175782 1.496094 7.957031-.121094 14.742187-4.355469 21.308594-8.449219 1.5-.9375 3.054687-1.90625 4.574218-2.789063 12.457032-7.257812 27.253906-11.007812 41.65625-10.558594 6.023438.1875 12.148438 1.089844 18.070313 1.960938 3.425781.503906 6.964843 1.027344 10.484375 1.410156 7.695312.839844 19.132812 1.484375 29.480468-2.65625 9.816407-3.929687 17.082032-12.019531 18.945313-20.914062l22.132813.128906c2.15625 17.398438-8.683594 35.726562-25.0625 42.066406-13.335938 5.160156-27.695313 2.875-42.894532.457032-14.898437-2.367188-30.304687-4.816407-44.558594.488281-8.210937 3.054687-15.214843 8.429687-21.984374 13.625-.988282.761719-1.972657 1.515625-2.960938 2.265625-7.519531 5.695312-15.730469 11.148437-24.824219 12.492187-8.339843 1.226563-18.726562-1.878906-22.464843-10.199219-.457032-1.019531-1.652344-1.472656-2.671876-1.015624-1.015624.457031-1.46875 1.652343-1.011718 2.671874 3.941406 8.777344 13.699218 12.835938 22.628906 12.835938 1.398438 0 2.777344-.101562 4.109375-.296875 9.996094-1.476563 18.726563-7.25 26.671875-13.269531.996094-.753906 1.988281-1.515625 2.984375-2.277344 6.535156-5.015625 13.289063-10.203125 20.929687-13.046875 13.261719-4.933594 27.472657-2.675781 42.519532-.28125 15.058594 2.394531 30.632812 4.871094 44.984375-.683594 17.875-6.917969 29.773437-26.800781 27.683593-45.808593l24.703126.140624h.011718c1.078125 0 1.96875-.847656 2.019532-1.925781.492187-10.660156 1.328124-21.71875 2.136718-32.417969.675782-8.929687 1.359375-18.101562 1.855469-27.113281l5.453125 7.691407c.394531.554687 1.019531.851562 1.652344.851562.402344 0 .8125-.117188 1.164062-.371094.910156-.644531 1.125-1.90625.480469-2.816406l-44.171875-62.300781c-.335938-.472657-.851562-.777344-1.425781-.839844-.570313-.066406-1.144531.117187-1.574219.503906l-20.265625 18.195313-2.21875-22.0625c-.058594-.558594-.34375-1.066406-.789063-1.40625-.445312-.335938-1.011718-.472656-1.5625-.382813l-17.847656 3.070313c-.550781.09375-1.039062.410156-1.34375.878906-.308594.464844-.410156 1.039062-.28125 1.582031 2.695313 11.25 4.015625 23.378907 3.824219 35.074219zm20.46875 47.859375c-.042969-1.507813-.023437-3.183594.761719-3.929687.621094-.585938 1.851562-.730469 3.160156-.839844l13.710938-1.117188c2.179687-.179687 4.804687-.203125 5.769531 1.191406.535156.777344.578125 2.023438.574219 3.453126l-.042969 32.972656-23.050781-.136719zm21.027344-78.285156 33.644531 47.453125c-.492188 10.570312-1.320312 21.523437-2.121094 32.117187-.761718 10.082031-1.550781 20.484375-2.050781 30.597657l-22.527344-.132813.042969-32.984375c.003906-1.636719.007812-3.878906-1.289062-5.753906-2.414063-3.496094-7.324219-3.097656-9.421876-2.925782l-13.710937 1.117188c-1.554687.128906-3.910156.320312-5.613281 1.9375-2.15625 2.050781-2.066406 5.25-2.019532 6.972656l.878907 31.457032-21.140625-.125c-2.023438-.011719-3.664063-.082032-4.84375-.847657-2.265625-1.472656-2.339844-5.328125-2.152344-8.519531l3.273438-55.117188c.023437-.367187-.0625-.710937-.214844-1.019531l27.253906-24.46875c.347656-.167969.632812-.429687.835938-.75zm-27.300781-5.828125 2.296874 22.847656-12.449218 11.175781c0-10.589843-1.171875-21.449219-3.453125-31.683593zm0 0"/><path d="m278.503906 176.257812c.085938.011719.175782.019532.261719.019532.476563 0 .941406-.171875 1.3125-.484375.433594-.371094.691406-.910157.707031-1.480469.035156-1.347656-.167968-2.601562-.34375-3.710938-.375-2.335937-.53125-3.730468.640625-5.347656 1.90625-2.625 5.34375-4.011718 8.699219-5.210937l.269531-.097657c3.613281-1.289062 7.710938-2.75 10.539063-5.929687 4.621094-5.191406 4.128906-12.738281 3.355468-17.960937-.101562-.695313-.210937-1.398438-.324218-2.097657-.746094-4.734375-1.515625-9.632812.058594-13.828125 1.105468-2.949218 3.304687-5.527344 5.636718-8.253906 3.46875-4.054688 7.054688-8.25 6.910156-13.925781-.148437-5.855469-4.84375-11.152344-10.925781-12.328125-5.417969-1.050782-11.457031 1.183594-15.390625 5.6875-3.449218 3.949218-5.296875 9.386718-5.207031 15.320312.0625 4.046875.992187 8.027344 1.890625 11.878906 1.308594 5.589844 2.542969 10.875 1.121094 15.921876-1.28125 4.570312-4.699219 8.441406-8.003906 12.1875l-.714844.8125c-3.714844 4.230468-7.734375 9.265624-8.425782 15.492187-.546874 4.949219 2.269532 12.601563 7.933594 13.335937zm-3.917968-12.890624c.5625-5.0625 4.140624-9.503907 7.449218-13.269532l.710938-.808594c3.601562-4.082031 7.328125-8.308593 8.859375-13.765624 1.703125-6.050782.289062-12.09375-1.074219-17.9375-.851562-3.640626-1.734375-7.40625-1.785156-11.015626-.074219-4.863281 1.457031-9.453124 4.207031-12.605468 3.003906-3.4375 7.554687-5.160156 11.582031-4.378906 4.191406.8125 7.554688 4.53125 7.652344 8.464843.105469 4.128907-2.832031 7.566407-5.941406 11.203125-2.457032 2.871094-4.996094 5.839844-6.351563 9.457032-1.945312 5.195312-1.089843 10.625-.261719 15.875.109376.6875.21875 1.375.316407 2.058593 1.042969 7.03125.285156 11.695313-2.375 14.683594-2.144531 2.410156-5.566407 3.632813-8.878907 4.8125l-.273437.097656c-3.949219 1.410157-8.023437 3.085938-10.605469 6.644531-1.921875 2.644532-1.835937 5.117188-1.519531 7.347657-1.273437-1.921875-1.9375-4.804688-1.710937-6.863281zm0 0"/><path d="m184.890625 282.878906c3.730469 2.378906 7.886719 3.714844 12.066406 4.574219l.183594 19.03125c.003906.425781.140625.835937.390625 1.175781 1.628906 2.214844 4.304688 3.5625 7.046875 3.5625.105469 0 .207031-.003906.3125-.003906 2.847656-.109375 5.558594-1.675781 7.070313-4.09375 1.195312-1.914062 1.542968-4.148438 1.820312-5.941406l1.796875-11.660156c.386719.007812.773437.023437 1.15625.023437 7.699219 0 14.789063-1.566406 19.71875-7.003906 3.804687-4.203125 5.511719-10.453125 4.449219-16.320313-.886719-4.914062-3.636719-9.578125-7.632813-13.03125 4.363281-7.863281 6.773438-14.617187 7.5625-21.152344 1.105469-9.214843-2.402343-19.988281-8.535156-26.191406-4.394531-4.453125-9.882813-6.464844-15.859375-5.820312-14.414062 1.558594-24.980469 21.320312-25.070312 33.882812-.003907.890625.023437 1.789063.050781 2.6875.078125 2.441406.148437 4.746094-.492188 6.832032-1.046875 3.394531-3.875 5.953124-6.871093 8.664062-3.101563 2.808594-6.304688 5.707031-7.835938 9.828125-3.011719 8.09375 2.21875 16.839844 8.671875 20.957031zm24.894531 17.691406c-.242187 1.574219-.492187 3.203126-1.25 4.414063-.800781 1.277344-2.289062 2.140625-3.796875 2.195313-1.304687.046874-2.648437-.511719-3.5625-1.453126l-.171875-17.570312c1.898438.277344 3.773438.496094 5.585938.707031 1.644531.191407 3.292968.355469 4.929687.472657zm-29.78125-37.242187c1.1875-3.191406 3.894532-5.644531 6.761719-8.238281 3.265625-2.957032 6.644531-6.015625 8.019531-10.46875.839844-2.730469.753906-5.484375.671875-8.148438-.027343-.847656-.054687-1.695312-.050781-2.535156.042969-5.617188 2.492188-12.792969 6.394531-18.726562 2.523438-3.835938 7.835938-10.382813 15.070313-11.167969 4.777344-.511719 9 1.046875 12.554687 4.640625 5.238281 5.308594 8.347657 14.925781 7.394531 22.871094-.769531 6.390624-3.28125 13.105468-7.902343 21.128906-.511719.890625-.277344 2.019531.542969 2.628906 3.9375 2.921875 6.65625 7.160156 7.46875 11.628906.84375 4.65625-.488282 9.59375-3.472657 12.886719-5.820312 6.425781-16.128906 6.210937-26.402343 5.019531-6.625-.765625-14.132813-1.636718-19.988282-5.375-5.121094-3.265625-9.335937-10.035156-7.0625-16.144531zm0 0"/><path d="m145.542969 102.28125c1.003906 8.640625 7.792969 16.15625 16.511719 18.273438 1.675781.40625 3.40625.605468 5.148437.605468 6.773437 0 13.703125-2.988281 18.355469-8.183594 5.582031-6.230468 7.921875-15.410156 6.109375-23.953124-.886719-4.160157-2.652344-7.722657-5.105469-10.300782-8.429688-8.851562-22.824219-5.214844-32.097656 2.695313v.003906c-6.367188 5.433594-9.785156 13.429687-8.921875 20.859375zm11.546875-17.789062c6.730468-5.75 19.417968-10.472657 26.542968-2.988282 1.941407 2.039063 3.355469 4.929688 4.082032 8.359375 1.554687 7.304688-.425782 15.128907-5.164063 20.417969-4.882812 5.449219-12.734375 8-19.542969 6.347656-6.996093-1.699218-12.652343-7.929687-13.449218-14.8125-.710938-6.113281 2.175781-12.75 7.53125-17.324218zm0 0"/><path d="m161.566406 70.757812c.371094.660157 1.054688 1.03125 1.761719 1.03125.335937 0 .675781-.085937.988281-.257812.972656-.550781 1.316406-1.78125.769532-2.753906l-3.847657-6.84375c-.546875-.972656-1.78125-1.316406-2.753906-.769532-.972656.546876-1.316406 1.777344-.769531 2.75zm0 0"/><path d="m144.359375 72.804688 5.988281 3.421874c.316406.179688.660156.265626 1 .265626.699219 0 1.382813-.367188 1.753906-1.019532.554688-.96875.214844-2.203125-.753906-2.753906l-5.988281-3.421875c-.964844-.550781-2.203125-.214844-2.753906.75-.550781.96875-.214844 2.203125.753906 2.757813zm0 0"/><path d="m135.089844 91.890625c.046875 0 .09375 0 .136718-.003906l6.417969-.425781c1.113281-.074219 1.957031-1.039063 1.882813-2.152344-.074219-1.109375-1.03125-1.945313-2.152344-1.878906l-6.414062.425781c-1.113282.074219-1.957032 1.035156-1.882813 2.148437.070313 1.070313.960937 1.886719 2.011719 1.886719zm0 0"/><path d="m140.859375 109.628906-4.226563 3.898438c-.820312.757812-.875 2.035156-.117187 2.855468.398437.429688.941406.652344 1.484375.652344.492188 0 .980469-.179687 1.367188-.535156l4.234374-3.902344c.816407-.757812.871094-2.035156.113282-2.855468-.757813-.816407-2.03125-.871094-2.855469-.113282zm0 0"/><path d="m154.789062 124.253906c-1.070312-.320312-2.195312.289063-2.515624 1.355469l-2.558594 8.558594c-.320313 1.066406.285156 2.195312 1.355468 2.511719.191407.058593.386719.085937.578126.085937.871093 0 1.671874-.5625 1.933593-1.441406l2.5625-8.554688c.316407-1.070312-.289062-2.195312-1.355469-2.515625zm0 0"/><path d="m170.058594 125.496094c-1.117188.0625-1.96875 1.015625-1.90625 2.128906l.425781 7.699219c.0625 1.074219.953125 1.90625 2.015625 1.90625.039062 0 .078125 0 .113281-.003907 1.117188-.058593 1.96875-1.011718 1.90625-2.128906l-.425781-7.699218c-.0625-1.109376-1.023438-1.957032-2.128906-1.902344zm0 0"/><path d="m195.933594 121.226562c-1.867188-1.125-3.214844-3.074218-3.609375-5.214843-.203125-1.097657-1.257813-1.820313-2.355469-1.617188s-1.820312 1.257813-1.617188 2.351563c.601563 3.261718 2.652344 6.226562 5.492188 7.941406.324219.195312.6875.289062 1.039062.289062.6875 0 1.355469-.347656 1.734376-.972656.578124-.957031.269531-2.199218-.683594-2.777344zm0 0"/><path d="m212.679688 102.992188-9.023438-2.878907c-1.058594-.335937-2.199219.246094-2.535156 1.308594-.339844 1.066406.246094 2.199219 1.308594 2.539063l9.019531 2.878906c.203125.066406.410156.097656.613281.097656.855469 0 1.652344-.546875 1.925781-1.40625.339844-1.0625-.246093-2.199219-1.308593-2.539062zm0 0"/><path d="m202.296875 89.429688c.265625 0 .539063-.050782.800781-.164063l9.84375-4.261719c1.023438-.441406 1.496094-1.628906 1.054688-2.65625-.445313-1.023437-1.632813-1.492187-2.65625-1.050781l-9.847656 4.257813c-1.023438.445312-1.496094 1.632812-1.050782 2.65625.328125.761718 1.074219 1.21875 1.855469 1.21875zm0 0"/><path d="m190.292969 72.660156c.582031 0 1.15625-.246094 1.554687-.726562l6.410156-7.707032c.714844-.855468.597657-2.128906-.261718-2.84375-.855469-.710937-2.128906-.597656-2.84375.261719l-6.410156 7.703125c-.714844.859375-.59375 2.132813.261718 2.847656.375.3125.835938.464844 1.289063.464844zm0 0"/><path d="m352.496094 343.769531-2.140625.261719c-1.109375.132812-1.894531 1.140625-1.761719 2.25.125 1.023438.996094 1.773438 2.003906 1.773438.082032 0 .164063-.003907.246094-.015626l2.136719-.257812c1.105469-.132812 1.894531-1.140625 1.761719-2.246094-.132813-1.109375-1.136719-1.894531-2.246094-1.765625zm0 0"/><path d="m353.429688 327.699219c-.367188-.011719-.738282-.015625-1.117188.007812-.640625.039063-1.277344.128907-1.914062.253907-.136719-.210938-.316407-.402344-.539063-.554688l-9.851563-6.839844c-.644531-.449218-1.449218-1.007812-2.503906-1.257812-1.496094-.359375-3.03125.105468-3.921875 1.183594-1.492187 1.808593-.523437 4.144531-.207031 4.914062l4.832031 11.660156c.066407.160156.160157.296875.261719.429688-.023438.054687-.054688.109375-.078125.171875-.570313 1.40625-.894531 2.878906-1.007813 4.359375-11.824218 1.480468-23.148437 5.070312-33.664062 10.691406-2.835938 1.519531-5.777344 3.285156-8.054688 5.886719-.34375.394531-.660156.800781-.957031 1.214843-.277343.042969-.546875.136719-.796875.300782-3.449218 2.265625-7.605468 3.308594-11.722656 2.929687-4.109375-.378906-8.011719-2.15625-10.992188-5.007812-.804687-.773438-2.085937-.746094-2.855468.0625-.769532.804687-.742188 2.082031.0625 2.855469 3.636718 3.480468 8.402344 5.652343 13.417968 6.113281.671876.058593 1.34375.089843 2.015626.089843 2.929687 0 5.828124-.589843 8.53125-1.699218-.171876 1.128906-.1875 2.257812 0 3.355468 1.0625 6.238282 7.238281 9.519532 11.792968 11.449219.128906.054688.25.097657.378906.152344l-1.171874 10.996094c-.117188 1.109375.6875 2.105469 1.796874 2.222656.070313.007813.144532.011719.214844.011719 1.019532 0 1.898438-.769532 2.007813-1.808594l1.050781-9.894531c.832031.308593 1.65625.597656 2.460938.863281l1.011718 10.109375c.105469 1.042969.980469 1.820313 2.007813 1.820313.066406 0 .132812-.003907.203125-.011719 1.109375-.109375 1.917968-1.101563 1.808594-2.210938l-.847657-8.464843c3.761719.976562 7.273438 1.503906 10.671875 1.597656.351563.011718.699219.015625 1.046875.015625 2.148438 0 4.238281-.1875 6.246094-.539063l2.652344 8.085938c.277343.851562 1.066406 1.390625 1.917969 1.390625.207031 0 .421874-.03125.628906-.101563 1.0625-.347656 1.636718-1.488281 1.289062-2.546875l-2.542968-7.769531c.933593-.289062 1.839843-.617188 2.726562-.984375.75 3.464844 2.023438 6.78125 3.800781 9.863281.375.648438 1.050781 1.011719 1.75 1.011719.34375 0 .691407-.085937 1.007813-.269531.964844-.558594 1.296875-1.792969.742187-2.761719-1.695312-2.933594-2.875-6.113281-3.511719-9.445313-.019531-.097656-.050781-.183593-.082031-.273437 1.355469-.816406 2.628907-1.738281 3.792969-2.773437 6.164062-5.464844 8.929688-13.921876 6.984375-21.175782 2.886719-.628906 5.550781-2.152344 7.402344-4.488281 1.953125-2.46875 3.070312-5.722656 3.320312-9.679687.148438-2.328126-.035156-4.453126-.546875-6.351563 3.472656-5.96875 5.199219-13.003906 4.84375-19.898437-.035156-.699219-.433594-1.328126-1.046875-1.664063s-1.359375-.332031-1.96875.011719c-5.238281 2.964844-9.644531 7.25-12.777343 12.390625zm-16.320313-3.84375c-.078125-.183594-.132813-.339844-.175781-.46875.246094.132812.519531.324219.769531.496093l8.203125 5.695313c-1.824219.972656-3.480469 2.289063-4.839844 3.832031zm7.425781 51.675781c-4.578125 4.0625-11.386718 6.277344-18.671875 6.082031-5.414062-.148437-11.214843-1.515625-18.085937-4.242187-.191406-.117188-.398438-.199219-.625-.25-.472656-.191406-.9375-.371094-1.417969-.574219-5.847656-2.476563-8.828125-5.148437-9.382813-8.40625-.375-2.191406.507813-4.765625 2.355469-6.878906 1.847657-2.113281 4.417969-3.644531 6.917969-4.980469 9.992188-5.347656 20.746094-8.769531 31.972656-10.207031.695313 3.710937 2.730469 7.125 5.839844 9.285156 2.003906 1.394531 4.34375 2.148437 6.710938 2.316406.007812.144531.03125.285157.074218.429688 1.730469 5.871093-.554687 12.871093-5.6875 17.425781zm16.355469-32.582031c-.195313 3.121093-1.023437 5.621093-2.453125 7.429687-2.855469 3.601563-8.785156 4.378906-12.699219 1.664063-3.855469-2.679688-5.4375-8.328125-3.605469-12.863281 1.613282-3.988282 6.089844-7.1875 10.414063-7.4375 2.164063-.125 5.140625.457031 7.058594 3.957031 1.039062 1.898437 1.472656 4.335937 1.285156 7.25zm1.324219-10.65625c-1.226563-1.667969-2.792969-2.910157-4.582032-3.683594 2.035157-3.023437 4.589844-5.679687 7.527344-7.828125-.253906 3.96875-1.269531 7.902344-2.945312 11.511719zm0 0"/><path d="m288.582031 222.289062c-1.957031 1.964844-2.195312 4.796876-2.355469 6.671876l-1.449218 17.160156c-.082032 1-.257813 3.074218 1.199218 4.515625 1.085938 1.074219 2.496094 1.238281 3.535157 1.238281.265625 0 .507812-.011719.714843-.019531l32.511719-1.464844h.003907c1.113281-.050781 1.972656-.996094 1.921874-2.109375-.007812-.210938-.050781-.410156-.117187-.601562-.070313-.609376-.160156-2.378907-.242187-4.09375-.820313-16.453126-1.882813-22.226563-4.363282-23.765626-2.230468-1.386718-4.921875-.855468-7.082031-.429687-.800781.15625-1.5625.308594-2.171875.339844-3.222656.175781-6.539062.199219-9.75.21875-1.652344.011719-3.304688.023437-4.949219.054687-1.957031.039063-5.234375.101563-7.40625 2.285156zm1.460938 25.53125c-.855469.039063-1.152344-.023437-1.203125-.027343-.046875-.085938-.117188-.378907-.035156-1.332031l.699218-8.324219 14.8125-.953125.523438 9.621094c.003906.121093.027344.234374.050781.347656zm18.8125-.847656c.015625-.125.023437-.253906.015625-.386718l-.523438-9.660157 11.472656-.738281c.222657 3.082031.367188 5.945312.449219 7.601562.050781 1.023438.09375 1.925782.136719 2.664063zm2.054687-23.207031c.894532-.046875 1.828125-.234375 2.734375-.410156 1.488281-.296875 3.171875-.628907 4.078125-.152344.785156 1.019531 1.355469 4.804687 1.757813 8.957031l-11.351563.730469-.484375-8.996094c1.089844-.03125 2.179688-.070312 3.265625-.128906zm-14.84375.277344c1.628906-.027344 3.261719-.039063 4.898438-.050781.871094-.007813 1.75-.011719 2.636718-.023438l.496094 9.179688-14.246094.917968.398438-4.765625c.148438-1.707031.347656-3.308593 1.195312-4.164062.941407-.945313 2.796876-1.058594 4.621094-1.09375zm0 0"/><path d="m298.5625 160.863281c-2.675781 2.621094-4.152344 6.777344-1.800781 9.644531 1.820312 2.210938 4.851562 2.261719 6.484375 2.292969l49.675781.863281c.363281.007813.773437.011719 1.21875.011719 3.265625 0 8.449219-.382812 11.117187-4.292969 1.214844-1.773437 1.632813-4.019531 1.183594-6.320312-.570312-2.886719-2.398437-5.597656-4.894531-7.246094-2.003906-1.324218-4.113281-1.714844-5.976563-2.058594-1.273437-.234374-2.476562-.457031-3.550781-.949218-1-.457032-1.421875-1.21875-2.148437-2.632813-.242188-.472656-.492188-.960937-.78125-1.453125-3.914063-6.636718-11.199219-10.21875-18.117188-8.902344-7.507812 1.421876-13.292968 8.503907-13.6875 16.027344-6.542968-1.605468-13.882812.269532-18.722656 5.015625zm20.074219-.316406c.675781.292969 1.457031.191406 2.039062-.257813.582031-.449218.871094-1.183593.757813-1.910156-1.003906-6.425781 3.902344-13.378906 10.292968-14.59375 5.257813-.988281 10.832032 1.816406 13.882813 6.988282.246094.421874.460937.835937.667969 1.242187.816406 1.59375 1.742187 3.402344 4.058594 4.464844 1.53125.699219 3.042968.980469 4.503906 1.25 1.695312.316406 3.160156.585937 4.480468 1.457031 1.589844 1.050781 2.796876 2.835938 3.15625 4.65625.171876.871094.214844 2.140625-.550781 3.261719-1.59375 2.332031-5.410156 2.582031-8.933593 2.519531l-49.675782-.863281c-1.453125-.023438-2.875-.140625-3.429687-.816407-.742188-.902343.179687-2.898437 1.503906-4.195312 2.945313-2.886719 7.050781-4.4375 11.148437-4.4375 2.085938-.003906 4.171876.398438 6.097657 1.234375zm0 0"/></svg>