<?xml version="1.0" encoding="iso-8859-1"?>
<!-- Generator: Adobe Illustrator 18.0.0, SVG Export Plug-In . SVG Version: 6.00 Build 0)  -->
<!DOCTYPE svg PUBLIC "-//W3C//DTD SVG 1.1//EN" "http://www.w3.org/Graphics/SVG/1.1/DTD/svg11.dtd">
<svg version="1.1" id="Capa_1" xmlns="http://www.w3.org/2000/svg" xmlns:xlink="http://www.w3.org/1999/xlink" x="0px" y="0px"
	 viewBox="0 0 195.907 195.907" style="enable-background:new 0 0 195.907 195.907;" xml:space="preserve">
<g>
	<path d="M175.624,189.735c0.527-62.254,2.247-124.642,1.142-186.891c-0.015-0.858-0.917-1.075-1.464-0.717
		c-0.033-0.492-0.262-0.969-0.859-1.133c-5.535-1.515-11.88-0.982-17.523-0.466c-1.035,0.095-1.228,1.316-0.586,1.808
		c-0.36,5.805-0.663,11.631-0.967,17.456c-10.722-1.625-22.027-1.277-32.811-1.015c-0.274-2.549-0.608-5.059-1.008-7.479
		c-0.073-0.439-0.525-0.473-0.831-0.279c-1.052-0.945-2.861-1.281-4.107-1.194c-2.07,0.145-3.885,1.25-4.829,3.11
		c-0.214,0.423-0.025,0.791,0.28,0.957c-0.278,2.315-0.463,4.709-0.605,7.127c-3.809-0.508-7.84-0.59-11.729-0.541
		c-0.04-1.661-0.063-3.327-0.113-4.981c0.626-0.015,1.265-0.524,0.992-1.217c-1.665-4.228-8.083-3.741-11.022-1.413
		c-0.136,0.108-0.157,0.247-0.196,0.382c-0.26-0.786-1.48-0.78-1.495,0.173c-0.038,2.45-0.077,4.953-0.099,7.475
		c-5.773,0.128-11.405,0.145-17.143-0.503c-0.21-2.675-0.476-5.331-0.836-7.929c0.377-0.437,0.448-1.099-0.206-1.493
		c-0.049-0.03-0.111-0.041-0.161-0.069c-0.086-0.073-0.179-0.106-0.293-0.126c-2.365-1.216-5.531-1.324-8.083-1.165
		c-1.095,0.069-1.106,1.66,0,1.711c2.552,0.116,4.765,0.952,7.184,1.434c0.181,9.228,0.047,18.448,0.18,27.666
		c-1.07,0.483-1.904,1.169-3.172,1.248c-1.152,0.072-2.255-0.246-3.195-0.866c0.113-9.551,0.11-19.166-0.271-28.709
		c-0.038-0.945-1.431-0.946-1.469,0c-0.109,2.737-0.13,5.486-0.182,8.231c-5.783-0.395-11.584-0.05-17.383-0.493
		c-0.154-6.105-0.302-12.211-0.512-18.313c-0.035-1.015-1.558-1.02-1.58,0c-0.004,0.169-0.004,0.339-0.008,0.508
		c-0.124-0.128-0.254-0.255-0.468-0.301c-5.554-1.195-12.206-0.228-17.963,0.02c-0.419-1.172-2.39-1.035-2.437,0.429
		c-2.026,62.699-0.536,125.7,0.326,188.415c0.014,0.987,0.776,1.485,1.544,1.502c0.048,0.124,0.127,0.231,0.273,0.254
		c6.567,1.007,13.32,1.139,19.953,1.039c1.278-0.019,1.677-1.322,1.238-2.192c0.521-0.152,0.95-0.57,0.943-1.275
		c-0.117-12.299-0.145-24.609-0.186-36.917c8.564,0.384,17.213-0.122,25.713-1.211c-0.018,4.145,0.088,8.286,0.368,12.376
		c0.095,1.383,1.938,1.591,2.412,0.583c3.334,1.721,7.493,1.385,10.739-0.429c0.152-0.053,0.283-0.112,0.397-0.236
		c0.186-0.114,0.384-0.211,0.563-0.334c0.827-0.572,0.524-1.677-0.156-2.003c0.239-2.969,0.319-5.985,0.337-9.011
		c22.769-1.322,45.248-1.64,68.046-0.601c0.969,0.044,0.936-1.396,0-1.487c-22.567-2.193-45.525-2.112-68.052,0.523
		c-0.007-1.519-0.084-3.036-0.128-4.556c22.67,0.198,45.531,0.378,68.164-0.977c0.504-0.03,0.758-0.413,0.766-0.796
		c0.225,15.954,0.616,31.878,1.242,47.716c0.026,0.664,0.459,1.041,0.955,1.158c0.012,0.357,0.159,0.715,0.611,0.879
		c6.625,2.404,13.978,1.436,19.872-2.408C176.771,191.514,176.437,190.196,175.624,189.735z M22.88,73.973
		c3.468,0.128,6.945,0.3,10.416,0.199c0.765-0.022,0.767-1.167,0-1.19c-3.472-0.102-6.949,0.071-10.418,0.199
		c-0.005-2.575-0.024-5.15-0.031-7.725c3.699,0.247,7.411,0.32,11.108,0.015c0.66-0.054,0.674-1.08,0-1.041
		c-3.711,0.217-7.4,0.305-11.112,0.149c-0.01-3.657-0.038-7.313-0.052-10.97c3.81,0.234,7.652-0.28,11.326-1.268
		c0.774-0.208,0.447-1.402-0.331-1.201c-3.643,0.941-7.267,1.308-11,1.443c-0.014-3.424-0.043-6.848-0.061-10.272
		c3.748,0.069,7.489,0.192,11.232-0.039c0.55-0.034,0.551-0.821,0-0.855c-3.744-0.232-7.489-0.109-11.238-0.039
		c-0.019-3.445-0.08-6.889-0.105-10.335c4.195,0.626,8.425,0.942,12.663,0.625c0.53-0.039,0.544-0.85,0-0.837
		c-4.252,0.107-8.45,0.024-12.67-0.49c-0.028-3.735-0.082-7.469-0.114-11.204c0.076,0.045,0.13,0.116,0.232,0.128
		c3.183,0.378,6.332,0.36,9.453-0.409c0.644-0.159,0.528-1.272-0.16-1.187c-3.102,0.383-6.172,0.623-9.293,0.351
		c-0.109-0.009-0.164,0.05-0.243,0.082c-0.022-2.472-0.053-4.943-0.075-7.414c3.407,0.257,6.814,0.546,10.227,0.713
		c0.818,0.04,0.804-1.203,0-1.264c-3.408-0.261-6.825-0.399-10.238-0.57c-0.02-2.049-0.027-4.098-0.062-6.146
		c5.609,0.964,12.506,2.053,17.858,0.407c0.192-0.059,0.322-0.194,0.445-0.332c-0.537,26.259-0.532,52.544-0.345,78.832
		c-5.725-0.623-11.658-0.188-17.384,0.281C22.905,79.73,22.886,76.851,22.88,73.973z M22.995,136.175
		c4.328-0.261,8.648-0.519,12.96-0.991c0.708-0.077,0.745-1.157,0-1.134c-4.333,0.131-8.645,0.476-12.963,0.82
		c-0.007-2.833-0.006-5.666-0.01-8.499c3.286,0.157,6.545,0.01,9.802-0.616c0.487-0.094,0.384-0.935-0.119-0.877
		c-3.23,0.377-6.45,0.508-9.685,0.409c-0.005-3.063-0.006-6.125-0.009-9.187c5.197-0.362,10.401-0.365,15.609-0.271
		c0.705,0.013,0.679-1.014,0-1.078c-5.229-0.495-10.407-0.268-15.61,0.327c-0.003-3.566-0.007-7.132-0.01-10.698
		c3.225,0.058,6.448,0.135,9.674,0.1c0.634-0.007,0.635-0.979,0-0.986c-3.226-0.035-6.449,0.042-9.675,0.1
		c-0.002-3.194-0.018-6.387-0.021-9.58c0.06,0.207,0.256,0.387,0.528,0.341c3.255-0.552,6.534-0.606,9.822-0.371
		c0.678,0.049,0.65-0.964,0-1.041c-3.402-0.403-6.712-0.145-10.055,0.57c-0.273,0.058-0.35,0.285-0.296,0.489
		c-0.003-3.454-0.023-6.907-0.027-10.361c5.81-0.337,11.587-0.054,17.391-0.194c0.166,22.726,0.46,45.456,0.692,68.176
		c-5.999-0.295-11.981-0.008-17.962,0.614C23.008,146.883,23.008,141.529,22.995,136.175z M23.058,191.334
		c0.111-0.208,0.189-0.447,0.184-0.742c-0.044-3.055-0.037-6.111-0.072-9.167c2.463,0.525,4.945,0.755,7.479,0.591
		c0.897-0.058,0.888-1.477,0-1.394c-2.526,0.235-5.001,0.079-7.488-0.321c-0.028-2.504-0.022-5.009-0.045-7.514
		c4.276,0.232,8.542,0.445,12.823,0.543c0.786,0.018,0.767-1.149,0-1.208c-4.276-0.33-8.548-0.546-12.832-0.742
		c-0.024-2.702-0.019-5.405-0.037-8.107c3.629,0.056,7.255,0.119,10.885,0.051c0.646-0.012,0.647-0.992,0-1.004
		c-3.631-0.068-7.259-0.005-10.889,0.051c-0.02-3.021-0.016-6.042-0.031-9.062c5.986-0.481,11.972-0.52,17.97-0.456
		c0.125,12.359,0.233,24.717,0.275,37.068c0.001,0.194,0.047,0.356,0.105,0.508C35.291,190.349,29.106,190.499,23.058,191.334z
		 M117.128,11.972c1.307,0.155,2.091,1.031,3.235,1.468c-0.338,8.703-0.465,17.845,0.244,26.471c-1.084,0.29-2.054,0.91-3.23,1.039
		c-1.313,0.144-2.567-0.168-3.752-0.697c0.75-8.646,0.588-18.175-0.47-26.738C114.097,12.321,115.628,11.793,117.128,11.972z
		 M111.296,23.259c0.023,0,0.034-0.023,0.056-0.025c-0.04,0.92-0.102,1.831-0.126,2.754c-3.815,0.341-7.525,0.798-11.359,0.799
		c-0.02-1.466-0.069-2.925-0.1-4.39C103.567,22.909,107.533,23.314,111.296,23.259z M90.652,14.256
		c1.429-0.891,3.026-1.212,4.685-0.868c1.042,0.217,1.787,0.74,2.561,1.268c-0.062,1.988-0.12,3.983-0.172,5.979
		c-0.528,0.32-0.622,1.139-0.033,1.4c-0.152,6.388-0.206,12.8,0.072,19.149c0.007,0.159,0.105,0.238,0.162,0.357
		c-1.131-0.087-2.208,0.181-3.365,0.18c-1.484-0.002-2.867-0.366-4.23-0.914c0.051-0.096,0.132-0.172,0.141-0.289
		c0.699-8.625-0.21-17.867-0.953-26.513C89.785,14.329,90.239,14.514,90.652,14.256z M87.795,22.997
		c-0.002,1.321-0.017,2.639,0.004,3.962c-0.105-0.045-0.18-0.129-0.306-0.14c-2.858-0.253-5.781,0.129-8.659,0.023
		c-2.584-0.096-5.247-0.578-7.833-0.516c-0.047-1.514-0.166-3.019-0.268-4.527C76.306,23.016,82.121,23.622,87.795,22.997z
		 M42.811,21.608c5.661,0.834,11.621,1.533,17.289,0.699c-0.021,1.393-0.083,2.781-0.093,4.175c-0.016-0.004-0.02-0.021-0.037-0.024
		c-5.359-1.04-11.343-0.201-16.759,0.052c-0.116,0.005-0.171,0.08-0.26,0.118C42.914,24.955,42.852,23.282,42.811,21.608z
		 M43.619,79.805c21.339,0.492,43.081,1.336,64.381-0.121c0.146-0.01,0.217-0.102,0.328-0.154c-0.025,1.252-0.097,2.48-0.105,3.736
		c-0.082-0.021-0.147-0.076-0.234-0.082c-0.218-0.014-0.436-0.029-0.654-0.043c-1.244-0.081-1.23,1.588-0.27,1.991
		c-9.103-3.819-22.04-2.119-31.757-2.077c-10.561,0.046-21.132,0.272-31.653,1.228C43.646,82.789,43.628,81.297,43.619,79.805z
		 M69.599,149.676c-8.571,0.6-17.16,1.112-25.722,1.814c-0.005-1.423-0.01-2.847-0.014-4.269c8.604,0.702,17.321,0.61,25.885-0.571
		C69.708,147.66,69.619,148.665,69.599,149.676z M81.79,162.396c-2.979,1.498-5.992,1.606-9.324,0.735
		c-0.215-5.671-0.249-11.325-0.246-16.98c0.494-0.396,0.48-1.223,0.002-1.619c0.006-3.686,0.02-7.37,0.012-11.066
		c0.023,0.004,0.031,0.026,0.055,0.028c3.247,0.279,6.369,0.977,9.517,1.781C81.673,144.272,81.384,153.421,81.79,162.396z
		 M153.054,144.814c-0.006-0.382-0.256-0.756-0.766-0.772c-22.677-0.716-45.539,0.114-68.21,0.954
		c-0.142-3.795-0.35-7.576-0.667-11.276c-0.063-0.742-0.894-0.946-1.325-0.582c-3.183-0.902-6.497-1.273-9.798-1.353
		c-0.514-0.013-0.757,0.34-0.792,0.722c-0.22,0.025-0.423,0.128-0.467,0.403c-0.628,3.82-0.957,7.704-1.175,11.6
		c-8.67,0.975-17.242,1.654-25.995,1.558c-0.059-20.008-0.095-40.019-0.197-60.032c21.499-0.034,42.915-0.695,64.421,0.157
		c0.051,0.002,0.093-0.027,0.142-0.032c0.036,4.55,0.214,9.092,0.667,13.525c-0.426,0.126-0.697,0.66-0.3,1.064
		c1.878,1.913,6.001,2.31,8.53,1.837c2.625-0.491,4.882-2.483,4.882-5.279c0-0.687-0.453-1.011-0.955-1.097
		c0.238-3.592,0.254-7.248,0.21-10.912c3.401,0.584,7.404,0.954,10.664-0.098c-0.007,1.38-0.019,2.762-0.031,4.141
		c-0.023,2.727-1.471,9.093,0.915,11.073c0.326,0.27,0.725,0.367,1.094,0.3c3.099,1.475,6.764,1.54,9.746-0.309
		c0.354-0.219,0.516-0.528,0.554-0.848c0.3-0.158,0.55-0.407,0.574-0.859c0.248-4.644,0.294-9.343,0.241-14.045
		c0.104,0.136,0.228,0.263,0.436,0.294c2.469,0.374,5.29,0.595,7.669-0.332C152.773,104.689,152.773,124.778,153.054,144.814z
		 M118.986,97.644c0.037,0.252,0.171,0.395,0.315,0.515c-1.033,2.694-5.522,2.848-8.437,2.084c0.023-0.085,0.093-0.123,0.098-0.223
		c0.457-9.517-0.314-19.457-1.295-28.954c0.228,0.101,0.492,0.129,0.777-0.003c3.096-1.441,6.075-1.18,9.149-0.163
		C118.528,79.533,117.709,89.048,118.986,97.644z M121.164,79.737c3.322,0.549,7.58,1.117,10.819-0.204
		c-0.016,1.294-0.04,2.587-0.048,3.882c-1.81,0.111-3.629,0.546-5.445,0.642c-1.756,0.093-3.497,0.007-5.239-0.164
		C121.227,82.5,121.198,81.128,121.164,79.737z M134.27,83.678c-0.041-4.47-0.061-8.946-0.285-13.412
		c0.23,0.004,0.48-0.037,0.765-0.193c0.515-0.281,0.162-1.187-0.408-0.968c1.432-0.549,3.222-0.427,4.726-0.347
		c1.303,0.07,2.51,0.447,3.777,0.333c-0.426,9.653-0.732,19.518-0.243,29.164c-0.059,0.024-0.116,0.026-0.176,0.061
		c-2.353,1.384-4.917,1.759-7.412,0.974c0.042-0.434-0.082-0.882-0.469-1.105l-0.305-0.176c-0.183-0.106-0.361-0.082-0.539-0.079
		c0.393-2.217,0.631-5.702,0.628-6.327C134.318,88.962,134.294,86.32,134.27,83.678z M153.155,82.882
		c-0.052-0.01-0.089-0.055-0.145-0.053c-2.491,0.064-4.792,0.624-7.321,0.364c-0.322-0.033-0.528,0.148-0.675,0.38
		c-0.02-1.343-0.096-2.67-0.131-4.012c1.503-0.031,3.008-0.112,4.508-0.177c1.281-0.055,2.582-0.085,3.859-0.243
		C153.224,80.389,153.178,81.634,153.155,82.882z M153.297,77.236c-1.565,0.001-3.184,0.297-4.72,0.458
		c-1.248,0.131-2.496,0.273-3.742,0.428c-0.097-3.287-0.176-6.583-0.322-9.835c-0.025-0.567-0.477-0.803-0.903-0.759
		c-1.346-1.064-3.224-1.144-4.91-1.157c-1.548-0.012-3.805,0.057-5.108,1.018c-0.308,0.227-0.495,0.528-0.611,0.843
		c-0.329,0.062-0.633,0.278-0.662,0.727c-0.191,3.026-0.27,6.061-0.319,9.098c-1.725-0.044-3.458,0.396-5.181,0.502
		c-1.882,0.115-3.758,0.02-5.63-0.198c-0.023-0.003-0.033,0.019-0.055,0.019c-0.061-2.433-0.129-4.882-0.153-7.281
		c0.716-0.268,0.997-1.433,0.193-1.903c-3.588-2.103-8.127-1.681-11.651,0.295c-0.169,0.094-0.213,0.234-0.287,0.363
		c-0.283-0.1-0.631,0.016-0.65,0.424c-0.12,2.515-0.151,5.099-0.215,7.663c-0.121-0.063-0.207-0.161-0.373-0.172
		c-21.314-1.312-43.052-0.317-64.394,0.321c-0.104-16.707-0.261-33.412-0.628-50.106c0.083,0.032,0.13,0.102,0.235,0.107
		c5.42,0.254,11.402,1.092,16.759,0.052c0.019-0.004,0.024-0.023,0.042-0.028c-0.017,4.148-0.007,8.297,0.041,12.433
		c-0.056,0.155-0.046,0.307,0.002,0.481c0.001,0.051,0,0.103,0,0.154c0.007,0.602,0.449,0.895,0.911,0.937
		c2.24,1.749,6.404,2.334,8.197-0.042c0.522,0.103,1.137-0.167,1.226-0.869c0.544-4.296,0.706-8.745,0.633-13.205
		c4.837,1.944,12.038,2.197,16.747,0.86c0.048-0.014,0.056-0.055,0.099-0.072c0.113,4.047,0.357,8.075,0.943,11.95
		c0.049,0.321,0.243,0.464,0.469,0.535c-0.094,0.328-0.04,0.709,0.299,0.907c2.293,1.338,6.524,2.73,8.899,0.933
		c0.294-0.222,0.425-0.658,0.351-1.023c0.441-0.039,0.863-0.324,0.888-0.911c0.183-4.171,0.218-8.37,0.181-12.57
		c3.704,0.524,7.623,0.639,11.276-0.153c-0.032,4.323,0.121,8.634,0.51,12.723c0.079,0.835,0.88,1.053,1.411,0.731
		c2.696,1.554,7.115,2.205,8.983-0.495c0.344-0.137,0.647-0.392,0.702-0.89c0.461-4.161,0.527-8.563,0.373-12.978
		c10.457,0.585,21.379,1.047,31.778,0.11c0.008-0.001,0.01-0.008,0.018-0.008C154.163,44.129,153.645,60.674,153.297,77.236z
		 M155.04,25.668c-0.044-0.008-0.059-0.046-0.106-0.051c-10.411-0.938-21.345-0.473-31.816,0.113
		c-0.092-1.812-0.267-3.607-0.438-5.401c10.792,0.481,21.765,1.753,32.567,1.604C155.184,23.18,155.101,24.42,155.04,25.668z
		 M173.499,65.041c-4.661-0.598-9.498-0.109-14.114,0.575c-0.677,0.1-0.524,1.289,0.163,1.205c4.666-0.565,9.265-0.412,13.934-0.53
		c-0.494,41.213-0.365,82.458-0.742,123.635c-0.002,0.208,0.043,0.386,0.107,0.547c-5.059,2.613-10.404,3.397-16.088,2.322
		c0.015-0.08,0.048-0.146,0.049-0.235c0.065-5.756,0.099-11.522,0.161-17.28c4.221,0.785,8.411,0.819,12.629-0.129
		c0.578-0.13,0.327-0.98-0.242-0.879c-4.129,0.736-8.251,0.82-12.379,0.132c0.033-3.072,0.05-6.148,0.081-9.221
		c1.936,0.026,3.872,0.064,5.81,0.02c0.514-0.012,0.515-0.788,0-0.799c-1.936-0.044-3.869-0.006-5.803,0.02
		c0.037-3.576,0.057-7.156,0.092-10.732c4.32,0.463,8.632,0.613,12.978,0.187c0.467-0.046,0.487-0.757,0-0.744
		c-4.336,0.122-8.654,0.051-12.971-0.294c0.031-3.171,0.049-6.344,0.079-9.516c2.756,0.045,5.511,0.103,8.268,0.062
		c0.514-0.008,0.515-0.792,0-0.799c-2.755-0.041-5.508,0.017-8.262,0.062c0.035-3.713,0.056-7.427,0.09-11.14
		c4.267,0.04,8.532,0.095,12.8,0.024c0.574-0.009,0.575-0.883,0-0.892c-4.265-0.071-8.528-0.016-12.793,0.025
		c0.122-13.392,0.213-26.786,0.313-40.179c3.158,0.358,6.228,0.296,9.31-0.512c0.478-0.125,0.261-0.779-0.198-0.717
		c-3.03,0.409-6.055,0.62-9.105,0.351c0.084-11.323,0.099-22.637,0.165-33.957c3.749,0.255,7.448,0.126,11.151-0.599
		c0.587-0.115,0.463-1.135-0.143-1.059c-3.664,0.461-7.321,0.643-11.002,0.448c0.022-3.815,0.032-7.627,0.055-11.442
		c3.414,0.262,6.839,0.593,10.258,0.675c0.561,0.013,0.535-0.798,0-0.855c-3.4-0.362-6.836-0.48-10.254-0.664
		c0.023-3.745,0.031-7.488,0.055-11.234c0.04,0.054,0.086,0.106,0.174,0.124c3.315,0.689,6.658,0.934,10.026,0.504
		c0.403-0.052,0.427-0.68,0-0.651c-3.323,0.228-6.568,0.134-9.844-0.516c-0.17-0.034-0.284,0.059-0.355,0.175
		c0.023-3.796,0.033-7.589,0.055-11.385c0.077,0.043,0.131,0.112,0.235,0.121c3.304,0.282,6.597,0.542,9.911,0.681
		c0.754,0.032,0.722-1.076,0-1.153c-3.3-0.351-6.598-0.584-9.911-0.793c-0.103-0.007-0.153,0.054-0.23,0.084
		c0.014-2.501,0.022-5,0.036-7.501c0.066,0.027,0.106,0.082,0.19,0.084c3.087,0.072,6.17,0.128,9.255-0.009
		c0.741-0.033,0.742-1.12,0-1.153c-3.085-0.138-6.169-0.082-9.255-0.009c-0.082,0.002-0.121,0.056-0.185,0.082
		c0.012-2.331,0.032-4.663,0.034-6.992c5.348,0.118,10.691,0.998,16.008,0.934c0.327-0.004,0.575-0.141,0.78-0.315
		C174.152,23.821,173.752,44.428,173.499,65.041z"/>
	<path d="M32.635,144.014c-2.856-0.143-5.735-0.033-8.594-0.019c-0.407,0.002-0.407,0.63,0,0.632
		c2.859,0.014,5.738,0.124,8.594-0.019C33.017,144.59,33.018,144.034,32.635,144.014z"/>
	<path d="M167.991,184.037c-3.214,0.781-6.376,0.838-9.581-0.016c-0.779-0.208-1.092,0.957-0.331,1.201
		c3.382,1.087,6.871,1.182,10.263,0.088C169.148,185.05,168.821,183.836,167.991,184.037z"/>
	<path d="M168.027,118.064c-3.245,0.588-6.493,0.856-9.788,0.718c-0.529-0.022-0.521,0.781,0,0.818
		c3.39,0.238,6.714,0.068,10.045-0.604C168.897,118.872,168.634,117.954,168.027,118.064z"/>
	<path d="M170.824,102.907c-4.229,0.384-8.328,0.698-12.58,0.61c-0.554-0.012-0.517,0.77,0,0.837
		c4.172,0.535,8.603,0.525,12.73-0.332C171.592,103.893,171.465,102.849,170.824,102.907z"/>
	<path d="M167.495,77.721c-3.078-0.155-6.174-0.03-9.255,0c-0.622,0.006-0.623,0.961,0,0.967c3.081,0.03,6.178,0.155,9.255,0
		C168.116,78.656,168.117,77.752,167.495,77.721z"/>
</g>
<g>
</g>
<g>
</g>
<g>
</g>
<g>
</g>
<g>
</g>
<g>
</g>
<g>
</g>
<g>
</g>
<g>
</g>
<g>
</g>
<g>
</g>
<g>
</g>
<g>
</g>
<g>
</g>
<g>
</g>
</svg>
