<?xml version="1.0" encoding="iso-8859-1"?>
<!-- Generator: Adobe Illustrator 18.0.0, SVG Export Plug-In . SVG Version: 6.00 Build 0)  -->
<!DOCTYPE svg PUBLIC "-//W3C//DTD SVG 1.1//EN" "http://www.w3.org/Graphics/SVG/1.1/DTD/svg11.dtd">
<svg version="1.1" id="Capa_1" xmlns="http://www.w3.org/2000/svg" xmlns:xlink="http://www.w3.org/1999/xlink" x="0px" y="0px"
	 viewBox="0 0 208.143 208.143" style="enable-background:new 0 0 208.143 208.143;" xml:space="preserve">
<g>
	<path style="stroke:#1D1D1B;stroke-width:0;stroke-linecap:round;stroke-linejoin:round;" d="M41.578,19.29
		c0.012,0,0.012-0.019,0-0.019"/>
	<path d="M168.1,18.537c0.764-0.695,0.477-2.361-0.892-2.424c-16.733-0.766-33.691-1.373-50.674-1.494
		c0.129-4.034,0.707-8.621,0.02-12.583c0.426-0.719,0.153-1.843-0.936-1.829c-6.491,0.085-12.985,0.143-19.475-0.059
		c-0.247-0.183-0.558-0.208-0.814-0.013c-0.065-0.002-0.13-0.001-0.195-0.003c-0.307-0.011-0.496,0.24-0.53,0.504
		c-0.484-0.089-1.023,0.149-1.033,0.795c-0.034,2.147,0.269,4.269,0.435,6.402c-0.263,2.288-0.134,4.729,0.094,6.924
		c-17.182,0.405-34.305,1.483-51.155,3.734c-0.241,0.032-0.4,0.166-0.51,0.33c-0.351-0.307-1.048-0.138-1.102,0.476
		c-4.065,46.504-2.883,94.179-0.938,140.776c0.052,1.238,1.964,1.249,1.934,0c-0.032-1.319-0.041-2.636-0.069-3.954
		c4.135-0.092,8.252,0.106,12.359,0.658c0.849,0.114,1.228-1.18,0.361-1.309c-4.239-0.631-8.471-0.805-12.742-0.662
		c-0.042-2.092-0.022-4.18-0.055-6.272c6.946,0.987,14.211,0.781,21.212,0.823c0.747,0.004,0.736-1.109,0-1.153
		c-6.965-0.408-14.187-1.098-21.154-0.553c-0.026,0.002-0.041,0.026-0.066,0.032c-0.027-1.84-0.009-3.677-0.029-5.517
		c3.116,0.194,6.233,0.394,9.354,0.478c0.665,0.018,0.647-0.969,0-1.023c-3.114-0.255-6.237-0.394-9.359-0.54
		c-0.052-4.996-0.027-9.988-0.039-14.983c0.048,0.018,0.076,0.059,0.137,0.06c4.184,0.039,8.377,0.161,12.561,0.065
		c0.658-0.015,0.659-1.008,0-1.023c-4.183-0.095-8.376,0.026-12.561,0.065c-0.062,0-0.091,0.042-0.139,0.061
		c-0.005-2.562,0.018-5.123,0.021-7.685c7.759,0.289,15.541,0.253,23.256-0.683c0.623-0.076,0.659-1.039,0-1.004
		c-7.763,0.418-15.484,0.821-23.254,0.712c0.005-3.233,0.032-6.465,0.046-9.697c0.028,0.006,0.039,0.032,0.07,0.034
		c6.964,0.417,13.786,0.083,20.63-1.281c0.642-0.128,0.359-1.064-0.267-0.968c-6.753,1.033-13.533,1.553-20.363,1.301
		c-0.029-0.001-0.039,0.022-0.066,0.026c0.043-9.372,0.13-18.743,0.208-28.115c4.14,0.045,8.278,0.128,12.418,0.026
		c0.694-0.017,0.695-1.061,0-1.078c-4.137-0.102-8.273-0.019-12.41,0.026c0.021-2.505,0.034-5.01,0.055-7.514
		c5.989,0.375,11.861,0.268,17.792-0.69c0.616-0.1,0.478-1.147-0.148-1.096c-5.866,0.479-11.75,0.819-17.636,0.659
		c0.025-3.15,0.04-6.3,0.063-9.451c8.158,0.65,16.444,0.297,24.352-1.934c0.737-0.208,0.42-1.258-0.311-1.13
		c-8.038,1.415-15.89,2.301-24.033,1.915c0.061-8.599,0.064-17.203,0.076-25.806c9.787,0.309,19.635,0.467,29.404-0.234
		c1.014-0.073,1.041-1.615,0-1.599c-9.81,0.154-19.588,0.474-29.4,0.299c0.003-3.538,0.044-7.072,0.032-10.612
		c0.095,0.05,0.169,0.12,0.31,0.118c41.386-0.791,82.233-3.159,123.667-1.046c-2.607,46.257-0.47,93.295-0.481,139.637
		c-5.008,0.058-10.034,0.078-15.07,0.079c-0.207-0.058-0.422-0.068-0.616,0.001c-35.998-0.003-72.592-1.036-108.198,2.449
		c-0.651,0.064-0.664,0.975,0,1.023c7.114,0.514,14.272,0.798,21.444,0.994c-0.86,2.67-1.257,5.813-0.145,8.222
		c0.09,0.196,0.229,0.281,0.367,0.363c-0.073,0.469,0.167,0.992,0.794,1.025c2.797,0.147,5.609,0.257,8.422,0.361
		c-2.853,8.292-5.381,16.725-7.97,25.118c-0.134,0.101-0.179,0.281-0.138,0.448c-0.512,1.659-1.015,3.325-1.537,4.977
		c-0.218,0.69,0.286,1.271,0.898,1.426c-0.171,0.497-0.019,1.123,0.625,1.369c3.349,1.278,9.794,3.083,12.883,0.559
		c0.316-0.259,0.322-0.615,0.182-0.926c0.147-0.141,0.268-0.321,0.31-0.592c1.702-11.072,5.046-21.364,8.923-31.833
		c0.037-0.099-0.014-0.173-0.017-0.263c14.269,0.156,28.618-0.255,42.829-1.245c4.895,8.633,9.079,17.254,12.131,26.733
		c0.071,0.222,0.196,0.378,0.337,0.505c-0.006,1.086,0.619,2.18,1.678,2.731c1.505,0.783,3.849,0.456,5.443,0.5
		c2.298,0.064,4.595,0.142,6.893,0.181c0.831,0.014,1.255-0.589,1.301-1.23c0.521-0.321,0.854-0.974,0.487-1.671
		c-4.954-9.427-8.748-19.116-12.295-29.136c0.839-0.087,1.69-0.137,2.527-0.229c0.281-0.031,0.471-0.179,0.64-0.339
		c0.492,0.231,1.16,0.134,1.281-0.509c0.374-1.988,0.727-3.976,1.051-5.972c0.107-0.655,0.235-1.292,0.319-1.924
		c5.099-0.125,10.19-0.235,15.261-0.3c0.696-0.009,1.132-0.419,1.309-0.928c0.256-0.223,0.427-0.554,0.425-0.997
		C168.761,112.677,170.855,65.203,168.1,18.537z M96.132,14.72c-0.039-1.158-0.037-2.316-0.009-3.474
		c0.026,0.155,0.125,0.299,0.328,0.307c2.425,0.099,4.841,0.22,7.269,0.172c0.494-0.01,0.487-0.732,0-0.762
		c-2.423-0.151-4.841-0.131-7.269-0.135c-0.205,0-0.303,0.14-0.328,0.294c0.007-0.266-0.017-0.531-0.002-0.797
		c0.071-1.263,0.313-2.541,0.424-3.812c5.253,0.303,10.501,0.603,15.765,0.637c0.436,0.003,0.424-0.636,0-0.669
		c-5.235-0.412-10.478-0.561-15.726-0.707c0.012-0.354,0.025-0.709-0.002-1.061c-0.035-0.452-0.435-0.798-0.852-0.874
		c0.072-0.807,0.326-1.6,0.589-2.437c6.07,0.944,12.136,1.43,18.286,1.235c-0.532,3.817-0.026,8.132,0.098,11.955
		C108.512,14.563,102.319,14.595,96.132,14.72z M76.069,204.718c-0.021,0.137,0,0.258,0.017,0.379
		c-1.312-0.074-2.729,0.228-4.012,0.21c-2.094-0.029-4.137-0.384-6.159-0.906c0.203-0.191,0.35-0.44,0.348-0.721
		c-0.002-0.206-0.003-0.411-0.004-0.617c0-0.053-0.043-0.088-0.053-0.138c0.441-1.245,0.861-2.508,1.291-3.762
		c1.27,0.209,2.542,0.403,3.817,0.459c0.488,0.021,0.6-0.753,0.116-0.858c-1.186-0.257-2.402-0.393-3.621-0.51
		c0.919-2.7,1.794-5.425,2.64-8.16c1.394,0.026,2.79,0.069,4.182,0.015c0.347-0.014,0.347-0.526,0-0.539
		c-1.34-0.052-2.685-0.011-4.028,0.014c0.602-1.96,1.148-3.934,1.697-5.907c2.086,0.648,4.381,0.825,6.467,0.183
		c0.6-0.185,0.336-0.997-0.252-0.914c-2.109,0.294-3.987,0.362-6.005,0.001c0.452-1.646,0.887-3.296,1.296-4.948
		c2.087-0.236,4.209-0.429,6.227-0.957c0.437-0.114,0.36-0.831-0.109-0.804c-1.986,0.116-3.968,0.546-5.933,0.949
		c0.332-1.376,0.657-2.752,0.942-4.133c3.559,0.12,7.144,0.129,10.72,0.179C80.61,183.049,77.74,193.851,76.069,204.718z
		 M155.681,199.92c-1.991-0.034-3.983-0.05-5.974-0.071c-0.664-0.007-4.537,0.231-5.471-0.683c0.238-0.247,0.368-0.593,0.235-1.032
		c-2.8-9.239-6.836-18.276-12.338-26.242c4.067-0.3,8.105-0.7,12.143-1.1c0.003,0.069-0.045,0.112-0.026,0.188
		C146.727,181.03,150.86,190.763,155.681,199.92z M149.081,163.238c-0.118,1.682-0.206,3.365-0.289,5.049
		c-0.068-0.009-0.094-0.067-0.171-0.064c-27.765,0.934-55.483,1.934-83.26,2.626c0.012-0.046,0.053-0.08,0.059-0.127
		c0.146-1.197-0.026-2.421-0.074-3.64c3.979-0.131,7.957-0.255,11.933-0.47c0.666-0.036,0.673-1.069,0-1.041
		c-3.988,0.162-7.97,0.416-11.953,0.663c0.04-1.073,0.2-2.128,0.405-3.178c27.707,0.66,55.737-0.611,83.445-1.329
		C149.141,162.216,149.117,162.717,149.081,163.238z"/>
	<path d="M73.307,194.3c-1.469-0.133-2.7,0.094-4.024,0.723c-0.131,0.063-0.016,0.248,0.113,0.193
		c1.307-0.564,2.521-0.721,3.912-0.544C73.541,194.701,73.546,194.321,73.307,194.3z"/>
	<path d="M71.988,133.779c-9.483,0.438-18.928,0.968-28.426,0.875c-0.408-0.004-0.405,0.615,0,0.632
		c9.47,0.395,18.984,0.483,28.426-0.447C72.653,134.773,72.68,133.747,71.988,133.779z"/>
	<path d="M65.372,95.353c-7.497,0.763-14.937,1.726-22.471,2.101c-0.653,0.033-0.661,1.04,0,1.023
		c7.556-0.203,15.18-0.61,22.624-1.992C66.156,96.368,66.02,95.287,65.372,95.353z"/>
	<path d="M56.622,86.123c-4.312,0.724-8.606,0.898-12.933,0.215c-0.817-0.129-1.174,1.115-0.346,1.255
		c4.564,0.772,9.086,0.77,13.59-0.34C57.678,87.069,57.351,86,56.622,86.123z"/>
	<path d="M53.97,47.766c-3.46,0.554-6.911,0.772-10.407,0.511c-0.944-0.071-0.936,1.393,0,1.469
		c3.634,0.295,7.203,0.113,10.758-0.707C55.164,48.845,54.791,47.635,53.97,47.766z"/>
	<path d="M56.783,38.472c-3.543,0.415-7.003,0.791-10.577,0.615c-0.887-0.044-0.878,1.319,0,1.376
		c3.588,0.232,7.247,0.154,10.748-0.73C57.635,39.56,57.516,38.386,56.783,38.472z"/>
</g>
<g>
</g>
<g>
</g>
<g>
</g>
<g>
</g>
<g>
</g>
<g>
</g>
<g>
</g>
<g>
</g>
<g>
</g>
<g>
</g>
<g>
</g>
<g>
</g>
<g>
</g>
<g>
</g>
<g>
</g>
</svg>
