<svg id="Capa_1" enable-background="new 0 0 512.004 512.004" height="512" viewBox="0 0 512.004 512.004" width="512" xmlns="http://www.w3.org/2000/svg"><g><g><path d="m509.334 297.829c-.532-.787-1.361-1.324-2.297-1.487-19.751-3.006-33.795-23.773-29.229-43.223.438-1.877-.917-3.88-2.822-4.173l-15.584-2.722c-.363-9.854 15.863-22.655 22.485-23.662 1.695-.519 2.734-2.224 2.419-3.968l-32.448-179.662c-.303-1.9-2.309-3.245-4.181-2.799-23.762 7.198-45.106-17.443-49.873-33.742-.557-1.664-2.258-2.661-3.98-2.327l-343.85 66.096c-1.511.291-2.656 1.534-2.819 3.064-3.322 31.011-42.344 45-42.735 45.137-1.63.567-2.603 2.238-2.293 3.936l36.052 197.123c.321 2.012 2.545 3.36 4.477 2.714 27.574-8.527 36.816 3.585 38.783 6.951l-12.967 78.875c-.31 1.883.946 3.667 2.823 4.011 19.306 3.538 32.422 22.174 29.238 41.542-.31 1.883.946 3.667 2.823 4.011l318.734 58.421c1.821.346 3.67-.853 4.055-2.718 4.098-19.352 22.546-31.714 42.004-28.151 1.863.345 3.662-.864 4.055-2.717l37.655-177.843c.197-.931.007-1.9-.525-2.687zm-431.157 14.751c-8.728-5.065-20.088-5.806-33.807-2.215l-34.839-190.489c3.934-1.64 11.46-5.149 19.268-10.788 14.1-10.183 22.683-22.765 24.962-36.528l338.512-65.07c6.399 19.061 30.865 41.653 53.317 36.125l31.307 173.344c-6.552 2.729-21.846 10.867-24.392 28.059l-9.189-1.605-22.882-174.072c-.244-1.854-1.901-3.195-3.767-3.031-26.249 2.224-47.992-34.703-48.208-35.076-.755-1.302-2.26-1.976-3.732-1.675l-284.051 58.263c-1.426.293-2.521 1.437-2.753 2.873-.938 16.577-17.406 35.725-29.913 38.285-1.84.424-3.042 2.448-2.536 4.267l41.188 160.073-3.738 22.737c-1.299-1.187-2.867-2.386-4.747-3.477zm11.303-36.401-36.419-141.54c7.648-3.035 26.016-13.044 31.349-40.438l279.319-57.292c5.207 8.188 24.85 36.184 50.18 36.497l22.182 168.745-288.459-50.391c-1.857-.363-3.786 1.006-4.056 2.88-2.777 19.43-22.753 33.615-42.013 29.832-1.859-.363-3.786 1.005-4.056 2.88zm376.554 197.524c-20.808-2.19-40.022 10.677-45.905 30.765l-312.268-57.236c1.72-20.71-11.872-40.021-31.947-45.392l17.782-108.16c.001-.003.001-.005.002-.008l10.166-61.835c20.584 2.305 41.299-12.403 45.908-32.597l320.582 56.003c-1.33 10.415 1.137 20.81 7.091 29.615 5.955 8.806 14.683 14.966 24.845 17.611z"/><path d="m467.283 305.869c-7.819-1.366-14.574-5.739-19.02-12.314s-5.989-14.472-4.345-22.237c.438-1.878-.917-3.88-2.822-4.173l-267.453-46.722c-1.857-.364-3.787 1.006-4.056 2.88-1.265 7.692-5.462 14.414-11.818 18.928-6.356 4.513-14.088 6.257-21.765 4.918-1.859-.364-3.786 1.006-4.056 2.88l-23.723 144.291c-.31 1.883.946 3.667 2.823 4.011 15.433 2.829 25.917 17.725 23.371 33.207-.309 1.883.946 3.667 2.823 4.011l260.412 47.731c1.821.347 3.67-.852 4.055-2.718 3.276-15.469 18.025-25.354 33.577-22.502 1.866.346 3.662-.863 4.055-2.717l30.765-145.3c.437-1.878-.918-3.881-2.823-4.174zm-34.118 144.845c-16.903-1.521-32.422 8.886-37.445 25.095l-253.998-46.556c1.12-16.813-9.854-32.403-26.058-37.024l7.566-46.022 318.245 65.26zm9.76-46.094-318.558-65.325 13.943-84.808c8.352.637 16.589-1.632 23.513-6.547 6.923-4.916 11.783-11.942 13.932-20.04l260.739 45.549c-.936 8.46 1.134 16.875 5.971 24.029 4.838 7.154 11.876 12.208 20.077 14.49z"/><path d="m157.121 296.867 10.432-16.277 14.105 4.381 2.035 16.755c.497 4.53 7.561 3.646 6.949-.845l-2.299-18.925-3.605-29.669c-.28-3.173-4.793-4.206-6.421-1.466l-27.09 42.269c-2.506 3.789 3.5 7.634 5.894 3.777zm21.842-34.08 1.77 14.567-9.262-2.877z"/><path d="m228.58 265.119c-6.967-9.709-20.251-11.641-20.813-11.718-1.842-.255-3.559.975-3.914 2.799l-9.037 46.441c-.44 2.015 1.174 4.078 3.229 4.168 14.947 1.604 28.864 1.572 34.079-22.734 1.404-7.344.212-13.721-3.544-18.956zm-3.331 17.641c-3.359 17.57-12.901 18.403-22.833 17.477l7.62-39.158c3.635 1.045 9.472 3.38 12.878 8.15 2.576 3.609 3.361 8.161 2.335 13.531z"/><path d="m270.602 266.94c-1.412-.709-3.121-.382-4.174.794l-13.655 15.243-5.471-20.135c-.8-3.451-6.111-3.341-6.79.138l-10.022 43.868c-1.078 4.415 5.884 6 6.824 1.56l6.904-30.218 3.488 12.837c.623 2.618 4.253 3.478 5.984 1.418l9.389-10.48-6.191 30.862c-.955 4.429 6.015 5.857 6.863 1.377l8.715-43.444c.312-1.55-.452-3.114-1.864-3.82z"/><path d="m286.843 271.366c-1.88-.427-3.76.755-4.187 2.64l-9.753 43.031c-1.064 4.403 5.866 6.006 6.827 1.547l9.752-43.031c.428-1.885-.754-3.76-2.639-4.187z"/><path d="m297.14 280.858 10.957 2.453-10.762 37.813c-1.302 4.338 5.529 6.318 6.732 1.916l10.871-38.197 11.348 2.54c4.385 1.071 5.994-5.904 1.529-6.831l-29.147-6.524c-4.416-1.06-5.974 5.903-1.528 6.83z"/><path d="m374.367 313.018c2.943-13.312-3.774-26.157-14.976-28.634-11.2-2.478-22.708 6.339-25.652 19.65-1.398 6.32-.688 12.741 1.999 18.079 9.427 18.982 34.859 11.154 38.629-9.095zm-6.835-1.511c-2.756 14.092-18.926 20.46-25.541 7.458-12.311-26.194 30.086-42.259 25.541-7.458z"/><path d="m377.605 334.404 7.439-26.59 8.833 29.607c.931 3.491 6.316 3.15 6.805-.419l7.286-43.261c.82-4.467-6.215-5.651-6.902-1.162l-4.786 28.413-7.99-26.783c-.903-3.284-5.91-3.256-6.725.058l-10.702 38.252c-1.287 4.354 5.583 6.277 6.742 1.885z"/><path d="m437.947 303.203-20.264-5.2c-1.83-.51-3.86.712-4.272 2.564l-9.335 38.443c-.493 1.863.802 3.906 2.697 4.254l25.501 5.237c4.404.993 5.888-6.009 1.408-6.856l-21.949-4.507 3.153-12.984 11.973 2.505c4.401 1.009 5.91-5.986 1.434-6.852l-11.754-2.459 2.837-11.683 16.829 4.319c4.385 1.19 6.156-5.717 1.742-6.781z"/><path d="m99.912 171.722 3.044-19.092 14.679-1.631 8.572 14.539c2.249 3.947 8.394.322 6.03-3.555l-9.682-16.422c-.001-.001-.001-.002-.002-.003l-15.177-25.743c-1.526-2.795-6.076-1.936-6.472 1.226l-7.905 49.579c-.778 4.465 6.246 5.61 6.913 1.102zm6.373-39.974 7.452 12.64-9.638 1.071z"/><path d="m136.766 161.924c.403 2.023 2.712 3.267 4.627 2.527 10.47-3.22 27.994-8.609 22.131-34.475-1.653-7.292-5.299-12.658-10.836-15.952-10.272-6.109-23.217-2.562-23.763-2.407-1.789.504-2.871 2.318-2.466 4.131zm12.374-41.865c3.806 2.275 6.348 6.132 7.557 11.464 3.955 17.444-4.456 22.028-13.929 25.155l-8.691-38.934c3.748-.496 10.032-.693 15.063 2.315z"/><path d="m171.142 151.498c.801 4.491 7.786 3.134 6.878-1.303l-5.77-30.454 8.335 10.368c1.619 2.147 5.291 1.485 6.052-1.096l4.409-13.362 6.68 30.76c.901 4.452 7.87 2.937 6.841-1.485l-9.403-43.301c-.626-3.41-5.771-3.679-6.744-.354l-6.412 19.434-13.073-16.262c-2.133-2.831-6.935-.615-6.167 2.844z"/><path d="m214.087 143.858c.808 4.49 7.791 3.12 6.875-1.314l-8.288-43.336c-.791-4.474-7.793-3.132-6.875 1.314z"/><path d="m221.144 101.068c2.964-.358 8.76-1.549 11.694-2.203l5.274 38.96c.559 4.524 7.61 3.541 6.937-.939l-5.327-39.355 11.416-2.214c4.473-.801 3.11-7.8-1.333-6.872l-29.322 5.688c-4.093.689-3.431 7.045.661 6.935z"/><path d="m286.408 128.171c13.968.112 22.036-15.662 19.05-28.608-2.63-13.377-13.919-22.46-25.185-20.246-11.255 2.214-18.272 14.898-15.641 28.275 2.365 12.024 11.731 20.579 21.776 20.579zm-4.784-41.986c7.881-1.383 14.999 5.255 16.966 14.729 4.45 21.834-21.902 28.918-27.09 5.328-1.886-9.59 2.656-18.588 10.124-20.057z"/><path d="m310.054 118.834c.58 4.522 7.626 3.507 6.933-.97l-3.827-27.345 19.946 23.596c2.243 2.825 7.049.361 6.068-3.108l-10.64-42.561c-1.038-4.424-7.957-2.69-6.791 1.697l6.988 27.954-18.043-21.346c-2.117-2.677-6.721-.616-6.139 2.744z"/><path d="m339.571 91.438v.004c0 .001.001.002.001.004l3.515 20.044c.291 1.904 2.304 3.259 4.174 2.819l25.465-5.409c4.456-.879 2.975-7.855-1.454-6.848l-21.917 4.655-2.293-13.075 15.435-2.816c4.482-.75 3.195-7.769-1.257-6.887l-15.388 2.807-2.092-11.931 17.151-2.778c4.495-.661 3.352-7.701-1.119-6.91l-20.652 3.346c-1.879.266-3.253 2.197-2.888 4.06z"/><path d="m218.886 393.785-15.029-5.665-3.853-15.592c-.586-2.751-4.446-3.601-6.131-1.346l-10.031 12.542-16.019-1.153c-2.802-.29-4.796 3.116-3.175 5.415l8.829 13.417-6.047 14.879c-1.144 2.57 1.483 5.527 4.169 4.693l15.488-4.25 12.282 10.349c2.1 1.883 5.711.297 5.751-2.515l.744-16.043 13.638-8.483c2.435-1.409 2.047-5.342-.616-6.248zm-18.284 9.758c-.978.609-1.594 1.66-1.647 2.81l-.501 10.797-8.266-6.965c-.882-.745-2.081-1.002-3.182-.698l-10.424 2.861 4.07-10.014c.434-1.067.314-2.279-.319-3.242l-5.942-9.03 10.781.776c1.146.081 2.265-.405 2.985-1.305l6.751-8.441 2.593 10.493c.276 1.118 1.086 2.029 2.164 2.435l10.114 3.813z"/><path d="m292.594 409.701-16.016-4.582-5.305-15.792c-.809-2.695-4.724-3.223-6.221-.841l-9.307 13.816-16.657.165c-2.813-.064-4.527 3.498-2.722 5.656l10.264 13.121-4.99 15.894c-.93 2.656 1.928 5.386 4.538 4.336l15.65-5.707 13.574 9.658c2.241 1.705 5.717-.17 5.526-2.976l-.591-16.648 13.379-9.925c2.313-1.601 1.606-5.489-1.122-6.175zm-17.906 11.576c-.925.687-1.453 1.784-1.412 2.935l.405 11.399-9.295-6.613c-.94-.67-2.152-.829-3.228-.436l-10.716 3.908 3.417-10.883c.345-1.099.127-2.297-.583-3.205l-7.028-8.984 11.406-.113c1.152-.012 2.225-.589 2.868-1.544l6.373-9.461 3.632 10.813c.367 1.092 1.248 1.934 2.355 2.25l10.967 3.138z"/><path d="m374.248 423.182-15.207-6.509-3.258-16.217c-.464-2.776-4.283-3.79-6.066-1.615l-10.89 12.451-16.431-1.912c-2.778-.417-4.931 2.903-3.41 5.27l8.477 14.204-6.896 15.035c-1.256 2.516 1.238 5.589 3.958 4.872l16.128-3.672 12.169 11.205c2.016 1.974 5.691.548 5.856-2.259l1.492-16.474 14.417-8.11c2.496-1.3 2.281-5.246-.339-6.269zm-19.114 9.181c-1.004.565-1.666 1.587-1.77 2.735l-1.018 11.243-8.305-7.648c-.847-.783-2.036-1.093-3.147-.838l-11.007 2.506 4.706-10.262c.48-1.047.414-2.263-.176-3.252l-5.785-9.694 11.214 1.305c1.139.131 2.28-.305 3.039-1.172l7.433-8.498 2.224 11.068c.227 1.129.995 2.075 2.054 2.528l10.378 4.442z"/><path d="m214.331 325.537-50.646-8.951c-4.461-.854-5.701 6.169-1.218 6.893l50.646 8.951c4.432.869 5.718-6.168 1.218-6.893z"/><path d="m210.044 339.793-50.645-8.951c-1.904-.335-3.719.934-4.056 2.838-.336 1.903.934 3.719 2.838 4.056l50.645 8.951c4.432.868 5.719-6.17 1.218-6.894z"/><path d="m351.562 350.577-50.646-8.951c-4.468-.854-5.698 6.169-1.219 6.894l50.645 8.951c4.434.868 5.72-6.169 1.22-6.894z"/><path d="m347.275 364.832-50.645-8.951c-4.467-.854-5.698 6.169-1.219 6.893l50.646 8.951c4.433.87 5.719-6.168 1.218-6.893z"/><path d="m409.142 361.45-27.95-5.555c-4.439-.951-5.832 6.046-1.364 6.865l27.95 5.555c4.41.965 5.848-6.045 1.364-6.865z"/><path d="m406.36 377.664-30.086-6.587c-4.423-1.036-5.946 5.932-1.497 6.838l30.086 6.587c4.39 1.051 5.966-5.931 1.497-6.838z"/><path d="m241.693 168.719c-.208 1.316.35 2.636 1.438 3.404l14.686 10.376-.221 17.98c-.125 2.81 3.391 4.603 5.594 2.847l14.406-10.761 17.031 5.766c2.636.99 5.427-1.808 4.436-4.44l-5.783-17.026 10.747-14.417c1.749-2.192-.034-5.738-2.852-5.591l-17.98.239-10.39-14.677c-1.551-2.349-5.453-1.727-6.199.985l-5.329 17.174-17.168 5.346c-1.272.395-2.209 1.479-2.416 2.795zm23.423-2.006c1.1-.343 1.961-1.204 2.302-2.305l3.772-12.158 7.355 10.39c.665.94 1.759 1.51 2.903 1.477l12.729-.169-7.608 10.206c-.689.923-.879 2.126-.508 3.217l4.094 12.053-12.057-4.081c-1.093-.371-2.295-.177-3.217.511l-10.198 7.618.156-12.729c.014-1.152-.539-2.237-1.48-2.901l-10.397-7.345z"/><path d="m352.119 130.753c-1.55-2.351-5.453-1.727-6.199.985l-5.329 17.173-17.168 5.346c-2.712.748-3.328 4.653-.979 6.2l14.686 10.376-.221 17.98c-.125 2.81 3.391 4.603 5.594 2.847l14.406-10.761 17.032 5.766c2.636.99 5.427-1.808 4.437-4.44l-5.783-17.026 10.747-14.417c1.75-2.195-.036-5.733-2.852-5.591l-17.98.239zm13.762 31.737c-.689.923-.879 2.126-.508 3.217l4.094 12.054-12.058-4.082c-1.092-.37-2.295-.178-3.217.511l-10.198 7.618.156-12.729c.014-1.152-.539-2.237-1.48-2.901l-10.397-7.345 12.154-3.785c1.1-.343 1.961-1.204 2.302-2.305l3.772-12.157 7.355 10.39c.665.94 1.731 1.52 2.903 1.477l12.729-.169z"/></g></g></svg>