<svg height="512pt" viewBox="-32 0 512 512.00169" width="512pt" xmlns="http://www.w3.org/2000/svg"><path d="m79.054688 468.996094c6.457031 3.632812 14.054687 5.453125 22.699218 5.453125 4.566406 0 9.421875-.507813 14.558594-1.527344 20.644531-4.09375 37.15625-14.878906 45.300781-29.589844 9.34375-16.871093 6.824219-39.660156-5.640625-54.320312-9.363281-16.160157-26.925781-27.582031-45.621094-28.859375-22.101562-1.511719-44.511718 11.199218-54.566406 30.898437-8.726562 17.089844-6.097656 40.148438 6.128906 57.878907 3.472657 8.503906 9.394532 15.710937 17.140626 20.066406zm76.375-29.085938c-7.136719 12.882813-21.894532 22.390625-40.492188 26.078125-13.152344 2.609375-24.058594 1.546875-32.414062-3.152343-12.699219-7.140626-19.613282-24.523438-16.085938-40.433594 1.832031-8.28125 6.222656-16.386719 12.691406-23.4375 8.828125-9.625 16.960938-16.375 27.972656-18.058594 3.882813-.59375 7.582032-.890625 11.09375-.890625 12.769532 0 23.066407 3.917969 30.699219 11.703125 12.101563 12.347656 14.910157 33.0625 6.535157 48.191406zm-96.046876-47.019531c9.339844-18.304687 30.191407-30.101563 50.691407-28.707031 11.84375.808594 23.199219 6.007812 31.984375 13.992187-9.929688-4.902343-22.136719-6.378906-36.027344-4.257812-13.820312 2.113281-23.601562 10.992187-32.113281 20.269531-7.304688 7.964844-12.28125 17.195312-14.382813 26.6875-.960937 4.320312-1.277344 8.695312-1.023437 12.984375-5.28125-13.839844-5.234375-29.011719.871093-40.96875zm0 0"/><path d="m444.652344 477.753906-16.117188-42.023437c-10-26.082031-22.445312-58.542969-48.058594-78.15625-11.113281-8.511719-24.632812-14.183594-39.097656-16.410157-5.265625-.808593-10.574218-1.089843-15.84375-.882812l-44.234375-64.53125c.65625-1.171875 1.273438-2.367188 1.851563-3.582031 6.730468-14.144531 7.910156-30.550781 3.824218-45.433594l41.570313-50.449219c13.457031-16.332031 27.371094-33.21875 38.257813-51.988281 12.359374-21.308594 18.976562-42.191406 19.667968-62.074219.832032-23.886718-7.253906-46.1875-22.183594-61.183594-.722656-.726562-1.71875-1.0976558-2.75-1.0312495-1.023437.0703125-1.964843.5820315-2.582031 1.4023435-43.601562 58.019532-85.609375 118.382813-124.871093 179.429688-5.492188-.789063-11.058594-.84375-16.523438-.085938l-121.988281-175.550781c-.726563-1.046875-1.964844-1.617187-3.21875-1.503906-1.269531.113281-2.375.898437-2.902344 2.054687-14.539063 31.9375-18.984375 68.519532-12.511719 103.007813 5.128906 27.332031 19.609375 71.199219 85.757813 136.480469-.269531 6.269531.273437 12.558593 1.714843 18.636718 1.242188 5.230469 3.132813 10.253906 5.558594 14.929688-.148437.140625-.292968.292968-.421875.464844l-45.324219 61.136718c-6.070312-.410156-12.203124-.175781-18.28125.757813-14.464843 2.222656-27.984374 7.898437-39.097656 16.40625-25.609375 19.613281-38.058594 52.074219-48.058594 78.15625l-16.113281 42.023437c-1.210937 3.148438-2.5781248 6.714844-2.67187475 10.636719-.17578125 7.558594 4.73046875 15.195313 12.49999975 19.460937 5.035156 2.761719 10.992188 4.148438 17.632813 4.148438 4.882812 0 10.136719-.75 15.664062-2.253906 4.9375-1.34375 9.75-3.121094 14.398438-4.839844 5.253906-1.941406 10.214843-3.777344 15.398437-5.066406 10.546875-2.628906 21.855469-2.867188 32.789063-3.101563 11.632812-.25 23.65625-.507812 35.246093-3.546875 30.128907-7.902344 54.195313-36.136718 57.21875-67.136718 1.945313-19.933594-3.746093-38.851563-16.144531-54.304688l40.074219-58.191406 38.910156 56.894531c-13.140625 15.683594-19.222656 35.105469-17.222656 55.601563 3.027344 31 27.09375 59.234374 57.222656 67.136718 11.585938 3.039063 23.613282 3.296875 35.246094 3.546875 10.933594.230469 22.242188.472657 32.785156 3.101563 5.1875 1.292968 10.378906 3.210937 15.402344 5.066406 4.652344 1.71875 9.460938 3.496094 14.394531 4.839844 5.53125 1.503906 10.78125 2.253906 15.667969 2.253906 6.640625 0 12.597656-1.386719 17.632812-4.148438 7.769532-4.265624 12.675782-11.902343 12.496094-19.460937-.089844-3.921875-1.457031-7.488281-2.664062-10.636719zm-104.347656-129.601562c13.296874 2.046875 25.703124 7.242187 35.875 15.035156 24.023437 18.394531 36.074218 49.820312 45.757812 75.074219l16.113281 42.023437c1.050781 2.738282 2.140625 5.574219 2.203125 8.269532.039063 1.703124-.355468 3.425781-1.097656 5.082031-2.382812 1.53125-5.476562 2.191406-8.15625 1.871093-5.441406-.640624-10.203125-4.085937-14.140625-7.367187-.867187-.722656-1.726563-1.460937-2.585937-2.199219-3.578126-3.078125-7.28125-6.265625-11.710938-8.382812-6.300781-3.007813-13.941406-3.859375-23.367188-2.589844-3.910156.523438-7.800781 1.347656-11.5625 2.144531-3.519531.746094-7.15625 1.515625-10.742187 2.019531-23.316406 3.300782-47.570313-4.285156-64.859375-20.285156s-26.726562-39.585937-25.242188-63.09375c.46875-7.441406 2.261719-17.550781 7.738282-26.554687.203125-.195313.390625-.402344.597656-.59375 14.511719-13.734375 33.941406-21.328125 53.648438-21.328125 3.84375-.003906 7.699218.285156 11.53125.875zm-72.1875-55.890625 32.765624 52.671875c-7.347656 2.546875-14.355468 6.09375-20.789062 10.558594l-34.589844-49.359376c8.328125-3.125 16.058594-7.890624 22.613282-13.871093zm49.324218 48.714843c-4.257812.578126-8.46875 1.484376-12.589844 2.691407l-33.769531-54.285157c2.191407-2.253906 4.222657-4.65625 6.066407-7.183593zm61.964844-279c-.648438 18.707032-6.949219 38.480469-18.71875 58.773438-10.59375 18.265625-24.320312 34.925781-37.597656 51.039062l-38.820313 47.109376c-1.5625-3.722657-3.480469-7.296876-5.753906-10.652344-6.074219-8.945313-14.523437-16.109375-24.089844-20.957032 39.015625-55.273437 77.53125-111.960937 114.5625-168.597656 7.25 12.289063 10.972657 27.371094 10.417969 43.285156zm-17.332031-52.945312c1.625 1.867188 3.132812 3.847656 4.542969 5.914062-37.445313 57.304688-76.421876 114.683594-115.902344 170.601563-2.988282-1.289063-6.0625-2.359375-9.191406-3.191406 37.980468-58.9375 78.507812-117.207031 120.550781-173.324219zm-268.675781 5.421875 116.660156 167.886719c-6.328125 1.785156-12.347656 4.660156-17.882813 8.535156-38.871093-51.730469-73.519531-107.125-103.035156-164.714844 1.273437-3.957031 2.683594-7.863281 4.257813-11.707031zm-9.507813 93.003906c-4.699219-25.035156-3.390625-51.21875 3.566406-75.75 29.203125 56.464844 63.316407 110.792969 101.492188 161.59375-5.527344 4.410157-10.511719 9.832031-14.742188 16.164063-5.347656 8.003906-8.910156 17.21875-10.550781 26.761718-30.652344-30.726562-69.882812-76.089843-79.765625-128.769531zm96.195313 105.9375c9.113281-13.648437 21.980468-22.625 36.222656-25.285156 2.917968-.542969 5.898437-.808594 8.902344-.808594 18.160156 0 37.085937 9.636719 47.457031 24.914063 11.132812 16.410156 12.746093 38.75 4.105469 56.917968-8.46875 17.789063-26.746094 30.988282-46.574219 33.625-14.042969 1.867188-28.128907-1.441406-38.660157-9.070312-9.8125-7.113281-17.191406-18.570312-20.242187-31.441406-3.914063-16.496094-.628906-34.757813 8.789063-48.851563zm-33.78125 131.484375 35.242187-50.390625c1.847656 1.789063 3.796875 3.441407 5.839844 4.921875 5.171875 3.746094 11.082031 6.570313 17.394531 8.410156l-35.1875 49.367188c-7.101562-5.304688-14.980469-9.445312-23.289062-12.308594zm27.5625-59.558594c1.488281 2.179688 3.105468 4.25 4.835937 6.1875l-36.433594 52.097657c-3.265625-.945313-6.582031-1.707031-9.933593-2.261719zm-164.589844 194.964844 16.113281-42.023437c9.683594-25.253907 21.730469-56.679688 45.757813-75.074219 10.171874-7.792969 22.578124-12.988281 35.875-15.035156 23.46875-3.609375 47.835937 4.039062 65.183593 20.453125.203125.191406.390625.398437.59375.59375 5.480469 9.003906 7.269531 19.113281 7.738281 26.554687 1.484376 23.507813-7.953124 47.09375-25.242187 63.09375s-41.542969 23.582032-64.859375 20.285156c-3.582031-.503906-7.222656-1.277343-10.738281-2.019531-3.761719-.796875-7.652344-1.621093-11.566407-2.144531-9.425781-1.265625-17.066406-.417969-23.367187 2.59375-4.429687 2.113281-8.132813 5.300781-11.710937 8.378906-.859376.738282-1.71875 1.476563-2.585938 2.199219-3.9375 3.28125-8.699219 6.726563-14.136719 7.367187-2.683593.320313-5.777343-.339843-8.15625-1.875-.746093-1.652343-1.140625-3.375-1.097656-5.078124.058594-2.695313 1.148437-5.53125 2.199219-8.269532zm184.542968-54.917968c-2.75 28.160156-24.609374 53.804687-51.976562 60.984374-10.78125 2.828126-21.871094 3.0625-33.605469 3.316407-11.324219.242187-23.035156.492187-34.34375 3.308593-5.5625 1.386719-10.941406 3.375-16.140625 5.296876-4.507812 1.664062-9.171875 3.386718-13.808594 4.648437-7.839843 2.136719-19.070312 3.652344-28.039062-1.269531-1.160156-.636719-2.222656-1.375-3.1875-2.179688.753906.101563 1.511719.15625 2.261719.15625.613281 0 1.226562-.035156 1.824219-.105468 6.527343-.773438 12.113281-4.832032 16.25-8.277344.882812-.738282 1.757812-1.488282 2.632812-2.242188 3.535156-3.039062 6.875-5.914062 10.820312-7.796875 5.570313-2.664062 12.46875-3.394531 21.085938-2.234375 3.765625.503906 7.578125 1.3125 11.265625 2.09375 3.585937.757813 7.292969 1.542969 11.011719 2.066406 24.519531 3.46875 49.996094-4.503906 68.171875-21.320312 18.167969-16.816406 28.085937-41.605469 26.527343-66.3125-.285156-4.578125-1.054687-10.105469-2.777343-15.824219 9.402343 13.328125 13.644531 29.121094 12.027343 45.691407zm-16.753906-61.898438c-1.390625-1.3125-2.824218-2.570312-4.292968-3.78125l36.210937-50.800781c3.109375.675781 6.292969 1.113281 9.523437 1.316406l-38.617187 56.074219c-.917969-.949219-1.855469-1.886719-2.824219-2.808594zm53.714844-53.660156c.117188-.015625.230469-.027344.347656-.042969 3.519532-.46875 6.996094-1.238281 10.394532-2.277344l35.3125 50.386719c-2.277344 1.746094-4.472657 3.609375-6.574219 5.59375-.5625.535156-1.121094 1.078125-1.667969 1.625zm172.597656 193.113281c-4.632812-1.261719-9.296875-2.984375-13.804687-4.648437-5.199219-1.921876-10.578125-3.910157-16.140625-5.296876-11.3125-2.816406-23.019532-3.066406-34.347656-3.308593-11.734376-.253907-22.820313-.488281-33.601563-3.316407-27.367187-7.179687-49.226563-32.824218-51.976563-60.984374-1.617187-16.570313 2.625-32.363282 12.027344-45.691407-1.722656 5.71875-2.492187 11.246094-2.78125 15.824219-1.558594 24.707031 8.359375 49.496094 26.53125 66.3125s43.65625 24.78125 68.167969 21.320312c3.722656-.523437 7.429687-1.308593 11.011719-2.066406 3.6875-.78125 7.503906-1.589844 11.265625-2.09375 8.617187-1.160156 15.519531-.429687 21.089843 2.234375 3.941407 1.882813 7.28125 4.757813 10.816407 7.796875.875.753906 1.75 1.503906 2.632812 2.242188 4.140625 3.445312 9.726563 7.503906 16.253907 8.277344.597656.066406 1.207031.105468 1.824218.105468.746094 0 1.503906-.054687 2.261719-.15625-.964844.804688-2.03125 1.542969-3.191406 2.179688-8.964844 4.917968-20.195313 3.40625-28.039063 1.269531zm0 0"/><path d="m285.714844 443.332031c8.144531 14.710938 24.65625 25.496094 45.300781 29.589844 5.136719 1.019531 9.992187 1.527344 14.558594 1.527344 8.640625 0 16.242187-1.820313 22.699219-5.453125 7.746093-4.355469 13.667968-11.5625 17.140624-20.066406 12.226563-17.730469 14.855469-40.785157 6.128907-57.875-10.058594-19.703126-32.488281-32.421876-54.566407-30.898438-18.695312 1.277344-36.261718 12.699219-45.621093 28.859375-12.464844 14.660156-14.984375 37.449219-5.640625 54.316406zm79.089844 19.503907c-8.355469 4.699218-19.265626 5.757812-32.414063 3.152343-18.597656-3.6875-33.355469-13.195312-40.492187-26.082031-8.375-15.125-5.566407-35.839844 6.535156-48.1875 7.632812-7.785156 17.929687-11.703125 30.699218-11.703125 3.511719 0 7.210938.296875 11.09375.890625 11.011719 1.683594 19.144532 8.4375 27.972657 18.058594 6.46875 7.050781 10.855469 15.15625 12.695312 23.441406 3.523438 15.90625-3.394531 33.289062-16.089843 40.429688zm-27.550782-98.652344c20.515625-1.398438 41.347656 10.402344 50.691406 28.707031 6.105469 11.957031 6.152344 27.128906.871094 40.96875.25-4.289063-.066406-8.664063-1.023437-12.984375-2.101563-9.492188-7.078125-18.722656-14.386719-26.6875-8.507812-9.277344-18.289062-18.15625-32.109375-20.269531-13.894531-2.125-26.09375-.648438-36.023437 4.253906 8.78125-7.980469 20.136718-13.179687 31.980468-13.988281zm0 0"/><path d="m195.277344 288.351562c7.78125 5.640626 17.675781 8.671876 27.902344 8.671876 2.273437 0 4.5625-.148438 6.847656-.453126 17.621094-2.34375 33.871094-14.085937 41.402344-29.917968 7.714843-16.214844 6.269531-36.167969-3.683594-50.835938-10.980469-16.179687-31.738282-25.039062-50.480469-21.539062-12.816406 2.390625-24.335937 10.390625-32.4375 22.519531-8.351563 12.5-11.265625 28.695313-7.796875 43.320313 2.734375 11.523437 9.382812 21.8125 18.246094 28.234374zm-7.089844-69.3125c7.492188-11.214843 18.082031-18.601562 29.816406-20.789062 2.507813-.46875 5.050782-.695312 7.605469-.695312 14.972656 0 30.160156 7.808593 38.792969 20.53125 9.164062 13.503906 10.492187 31.886718 3.382812 46.832031-6.960937 14.628906-21.992187 25.480469-38.289062 27.648437-11.554688 1.539063-23.164063-1.191406-31.847656-7.484375-8.089844-5.863281-14.171876-15.300781-16.6875-25.898437-3.214844-13.554688-.515626-28.558594 7.226562-40.144532zm0 0"/><path d="m208.273438 270.070312c4.542968 3.289063 10.292968 5.054688 16.222656 5.054688 1.308594 0 2.625-.085938 3.941406-.261719 10.285156-1.367187 19.410156-7.964843 23.8125-17.214843 4.453125-9.355469 3.613281-20.875-2.136719-29.347657-6.34375-9.347656-18.351562-14.464843-29.207031-12.4375-7.441406 1.386719-14.105469 5.992188-18.765625 12.96875-4.792969 7.175781-6.464844 16.46875-4.472656 24.867188 1.605469 6.761719 5.371093 12.574219 10.605469 16.371093zm-.253907-37.308593c3.59375-5.382813 8.632813-8.914063 14.183594-9.949219 8.042969-1.503906 17.324219 2.476562 22.0625 9.457031 4.367187 6.4375 4.996094 15.207031 1.601563 22.339844-3.332032 7.007813-10.539063 12.210937-18.359376 13.25-5.492187.726563-10.992187-.550781-15.085937-3.515625-3.808594-2.761719-6.679687-7.234375-7.875-12.277344-1.546875-6.519531-.25-13.734375 3.472656-19.304687zm0 0"/><path d="m213.53125 246.691406h.015625l10.960937-.097656-.394531 9.859375c-.046875 1.117187.824219 2.054687 1.9375 2.101563h.082031c1.078126 0 1.972657-.851563 2.015626-1.9375l.402343-10.054688 9.023438-.078125c1.113281-.011719 2.011719-.921875 2-2.039063-.007813-1.117187-.929688-2.023437-2.035157-2.003906l-8.828124.078125.410156-10.238281c.046875-1.113281-.820313-2.054688-1.933594-2.097656-1.152344-.035156-2.054688.824218-2.101562 1.9375l-.417969 10.433594-11.15625.097656c-1.117188.007812-2.011719.921875-2.003907 2.035156.011719 1.109375.914063 2.003906 2.023438 2.003906zm0 0"/></svg>