<svg height="512pt" viewBox="-138 0 512 512.00161" width="512pt" xmlns="http://www.w3.org/2000/svg"><path d="m184.585938 383.269531c-7.664063-6.136719-14.867188-10.886719-23.859376-15.667969 21.972657-11.222656 44.242188-25.472656 58.722657-47.128906 16.648437-24.890625 21.144531-58.25 12.027343-89.234375-8.253906-28.0625-27.28125-53.988281-53.582031-73.007812-4.6875-3.386719-14.578125-10.285157-21.40625-14.628907 15.835938-7.914062 31.125-16.957031 43.839844-29.203124 17.457031-16.816407 29.289063-39.234376 33.320313-63.132813 3.167968-18.769531-.90625-34.308594-11.171876-42.632813-7.125-5.777343-27.191406-12.238281-37.027343-6.226562-6.199219 3.785156-6.226563 13.214844-5.769531 22.164062l-123.960938 4.039063c.023438-.441406.046875-.886719.070312-1.335937.527344-9.652344 1.121094-20.585938-5.679687-24.722657-9.851563-5.988281-29.902344.515625-37.015625 6.308594-10.25 8.347656-14.289062 23.894531-11.082031 42.65625 4.082031 23.890625 15.964843 46.285156 33.453125 63.058594 13.46875 12.917969 28.15625 20.925781 45.535156 29.265625-7.882812 4.460937-15.679688 9.199218-23.003906 14.519531-26.261719 19.074219-45.234375 45.042969-53.429688 73.121094-9.046875 31.007812-4.4804685 64.355469 12.21875 89.210937 8.804688 13.109375 22.699219 28.867188 58.492188 47.101563-8.390625 4.507812-16.488282 9.53125-23.914063 15.480469-21.210937 16.988281-36.203125 41.574218-42.210937 69.234374-3.4375 15.847657-7.492188 44.0625 4.007812 55.011719 3.136719 2.984375 7.082032 4.480469 11.777344 4.480469 2.285156 0 4.75-.355469 7.386719-1.0625 17.007812-4.585938 15.933593-19.320312 14.84375-31.367188l141.882812-3.078124c-.070312.832031-.144531 1.667968-.222656 2.519531-1.101563 12.148437-2.476563 27.269531 14.796875 31.925781 2.636719.710938 5.101562 1.0625 7.386719 1.0625 4.695312 0 8.640625-1.496094 11.777343-4.480469 11.5-10.949219 7.445313-39.164062 4.003907-55.011719-6.007813-27.660156-20.996094-52.25-42.207031-69.238281zm-66.6875-259.8125c-13.746094-8.09375-23.601563-15.421875-31.832032-23.671875-1.425781-1.425781-2.792968-2.914062-4.132812-4.425781l73.75-2.222656c-1.898438 2.28125-3.894532 4.476562-5.984375 6.582031-9.3125 9.367188-20.3125 16.933594-31.800781 23.738281zm20.335937-47.246093.226563 10.371093-62.128907 1.871094c-2.539062-3.417969-4.875-6.992187-6.996093-10.707031zm22.691406 10.078124c-.480469-.222656-1.007812-.347656-1.574219-.335937l-16.855468.507813-.222656-10.339844 25.257812-.5625c-1.996094 3.710937-4.195312 7.296875-6.605469 10.730468zm10.117188-17.878906-105.378907 2.347656c-2.457031-5.148437-4.511718-10.515624-6.15625-16.039062l117.800782-4.4375c.011718 0 .019531-.003906.03125-.003906-1.574219 6.25-3.691406 12.316406-6.296875 18.132812zm8.902343-32.203125c-.292968 2.496094-.695312 4.964844-1.15625 7.417969-.523437-.269531-1.113281-.429688-1.746093-.410156l-87.703125 3.308594.050781-11.9375 90.644531-2.957032c.058594 1.777344.058594 3.363282-.089844 4.578125zm-94.644531 10.464844-27.617187 1.042969c-.855469-3.742188-1.539063-7.53125-2.003906-11.375-.023438-.203125-.042969-.429688-.058594-.65625l29.730468-.96875zm-44.941406 62.800781c-16.40625-15.734375-27.550781-36.742187-31.378906-59.148437-1.308594-7.65625-3.089844-26.484375 8.574219-35.988281 5.875-4.78125 22.683593-9.515626 28.878906-5.746094 3.1875 1.9375 2.652344 11.78125 2.296875 18.296875-.210938 3.863281-.40625 7.511719-.070313 10.304687 3.121094 25.773438 14.628906 49.777344 32.402344 67.585938 7.964844 7.980468 17.292969 15.097656 29.824219 22.71875-4.738281 2.664062-9.515625 5.234375-14.25 7.78125-2.664063 1.433594-5.351563 2.882812-8.039063 4.347656-18.816406-8.886719-34.371094-16.851562-48.238281-30.152344zm-17.707031 207.273438c-15.542969-23.136719-19.769532-54.269532-11.300782-83.285156 7.757813-26.585938 25.796876-51.226563 50.796876-69.382813 11.78125-8.558594 25.027343-15.683594 37.835937-22.574219 19.175781-10.316406 39.007813-20.980468 54.730469-36.804687 17.730468-17.847657 29.1875-41.875 32.253906-67.65625.332031-2.792969.125-6.441407-.09375-10.304688-.367188-6.515625-.921875-16.359375 2.257812-18.300781 6.1875-3.785156 23.007813.914062 28.890626 5.683594 11.691406 9.480468 9.945312 28.3125 8.65625 35.96875-3.78125 22.414062-14.878907 43.445312-31.253907 59.214844-17.667969 17.019531-41.109375 27.800781-63.777343 38.230468-27.730469 12.753906-56.402344 25.945313-75.089844 50.714844-20.804688 27.582031-23.773438 66.320312-9.734375 97.445312.003906.007813.003906.011719.007812.019532 3.757813 8.320312 8.710938 16.101562 14.882813 22.972656 13.664062 15.210938 31.019531 23.746094 49.535156 32.179688-1.859375.832031-3.726562 1.664062-5.601562 2.5-7.507813 3.335937-15.113282 6.726562-22.578126 10.417968-22.398437-10.9375-45.117187-24.261718-60.417968-47.039062zm97.144531 30.234375-1.097656-.496094c-6.144531-2.78125-12.179688-5.515625-18-8.4375 7.808593-.757813 15.890625-1.535156 23.980469-2.308594 6.796874-.652343 13.585937-1.300781 20.210937-1.945312-7.878906 4.882812-16.324219 9.125-25.09375 13.1875zm20.660156-29.789063.257813 9.902344c-5.507813.535156-11.109375 1.070312-16.710938 1.609375-11.613281 1.113281-23.226562 2.226563-34.003906 3.292969-.109375.011718-.210938.042968-.316406.066406-4.394532-2.609375-8.601563-5.441406-12.5625-8.601562zm16.269531 8.34375c-3.90625.386719-7.90625.777344-11.980468 1.171875l-.257813-9.914062 24.25-2.398438c-3.722656 4.09375-7.746093 7.773438-12.011719 11.140625zm17.71875-18.183594c-.605468-.335937-1.3125-.496093-2.050781-.425781l-102.460937 10.144531c-1.007813-1.007812-2-2.039062-2.960938-3.109374-4.488281-4.996094-8.320312-10.601563-11.476562-16.644532l129.226562-9.109375c-2.625 6.875-6.078125 13.3125-10.277344 19.144531zm-125.183593-79.164062c17.046875-.882812 42.816406-2.773438 67.761719-4.601562 9.238281-.675782 18.585937-1.359376 27.5625-2l.421874 10.898437c-9.820312.660156-19.632812 1.292969-29.316406 1.917969-22.800781 1.472656-46.320312 2.996094-69.023437 4.78125.636719-3.746094 1.507812-7.421875 2.59375-10.996094zm25.773437 45.226562 2.078125 15.289063-24.820312 1.75c-2.015625-4.859375-3.617188-9.949219-4.769531-15.207031zm112.105469 7.539063-105.992187 7.46875-2.070313-15.277344 111.066406-7.394531c-.585937 5.203125-1.59375 10.289062-3.003906 15.203125zm-140.867187-12.707031c-.421876-3.027344-.722657-6.089844-.855469-9.191406-.183594-4.28125-.0625-8.527344.316406-12.707032 23.113281-1.835937 47.136719-3.390625 70.414063-4.890625 24.046874-1.550781 48.90625-3.160156 72.75-5.074219 1.460937 7.183594 2.078124 14.65625 1.789062 22.246094zm102.765624-36.035156-.421874-10.910157c13.148437-.925781 25.285156-1.730469 34.847656-2.238281 1.449218 3.347656 2.691406 6.8125 3.71875 10.363281-12.527344 1-25.324219 1.917969-38.144532 2.785157zm-32.53125-15.671876c-23.515624 1.722657-47.777343 3.5-64.695312 4.429688 2.617188-6.46875 5.992188-12.539062 10.089844-18.042969 16.722656-1.914062 34.195312-3.519531 51.097656-5.070312 17.070312-1.566407 34.722656-3.1875 51.644531-5.132813.191407-.019531.375-.066406.558594-.121094 3.050781 3.046876 5.929687 6.292969 8.578125 9.785157 2.339844 3.085937 4.441406 6.359375 6.3125 9.777343-16.917969.953126-40.597656 2.691407-63.585938 4.375zm-36.84375-31.863281c4.890626-.355469 9.800782-.679687 14.695313-.988281l.453125 8.757812c-8.816406.832032-17.664062 1.699219-26.375 2.644532 3.496094-3.761719 7.25-7.210938 11.226562-10.414063zm32.6875 6.140625c-4.472656.410156-8.984374.824219-13.515624 1.246094l-.445313-8.632812c5.628906-.34375 11.230469-.671876 16.738281-.996094 11.515625-.671875 23.421875-1.367188 35.246094-2.226563 2.726562 1.941407 5.386719 3.964844 7.949219 6.113281-15.148438 1.664063-30.789063 3.101563-45.972657 4.496094zm2.367188-15.4375c-7.949219.460938-16.082031.941406-24.242188 1.472656 8.554688-5.589843 17.816407-10.453124 27.464844-15.105468 7.628906 3.664062 15.296875 7.59375 22.660156 12.050781-8.707031.574219-17.402343 1.085937-25.882812 1.582031zm-84.234375 328.730469c-5.585937 1.503906-9.660156.941406-12.453125-1.714844-6.472656-6.164062-7.210938-24.25-1.96875-48.390625 5.664062-26.078125 19.769531-49.238281 39.71875-65.21875 15.484375-12.398437 34.421875-20.820312 52.734375-28.960937 17.648437-7.84375 35.738281-15.898438 51.132813-27.632813.632812-.253906 1.164062-.675781 1.550781-1.21875 4.738281-3.734375 9.21875-7.824218 13.316406-12.40625 8.375-9.363281 14.511719-20.394531 18.398437-32.1875.457032-.617187.714844-1.378906.691407-2.199218 8.746093-28.8125 4.203125-61.789063-14.191407-86.058594-14.027343-18.515625-33.589843-30.449219-53.296874-40.246094 2.808593-1.304688 5.640624-2.609375 8.488281-3.917969 4.777343-2.199219 9.589843-4.417969 14.382812-6.703125.09375.070313.179688.144532.28125.207032 6.042969 3.527343 19.136719 12.632812 24.484375 16.496093 25.035156 18.105469 43.128906 42.707031 50.941406 69.277344 8.53125 28.996094 4.375 60.140625-11.121093 83.308594-16.796875 25.121093-45.371094 39.992187-70.835938 51.960937-2.488281 1.167969-4.988281 2.332032-7.492187 3.5-25.167969 11.714844-51.191406 23.832032-70.777344 44.125-13.609375 14.105469-22.382812 31.777344-24.703125 49.765625-.550781 4.273438-.113281 9.09375.3125 13.753907 1.203125 13.238281 1.382813 21.5-9.59375 24.460937zm16.292969-37.3125c.253906-1.984375.601562-3.960937 1.027344-5.933594.257812.0625.523437.101563.796874.101563.074219 0 .144532-.003906.21875-.007813 31.378907-1.925781 64.433594-3.714843 99.359376-3.675781v13.023438l-101.554688 2.203124c-.089844-2.046874-.074219-3.96875.152344-5.710937zm105.445312-9.511719c11.546875.0625 23.304688.328125 35.269532.859375.734374 2.867188 1.300781 5.753907 1.675781 8.652344.109375.832031.164062 1.707031.191406 2.617187l-37.136719.804688zm-102.523437-3.460937c2.457031-7.671875 6.167969-15.109375 10.976562-21.992188l109.527344-6.5625c6.625 7.808594 11.746094 16.558594 15.074219 25.710938-48.570313-2.011719-93.570313.269531-135.578125 2.84375zm27.371093-39.878907 22.695313-1.699218.125 10.152344-33.398437 2c.992187-1.136719 2.003906-2.265626 3.0625-3.359376 2.398437-2.484374 4.914062-4.84375 7.515624-7.09375zm26.894532 8.210938c-.015625-.03125-.023438-.0625-.039063-.089844l-.125-10.121094 48.152344-3.601562c4.136719 3.121094 8.15625 6.515625 11.960937 10.21875zm-16.859375-16.050781c9.628906-6.867188 20.128906-12.683594 30.878906-18.039063 7.945313 3.953125 16.457031 8.464844 24.800781 13.875zm130.808593 96.289062c-2.792968 2.65625-6.863281 3.21875-12.449218 1.714844-10.976563-2.960937-10.796875-11.222656-9.59375-24.460937.160156-1.792969.324218-3.609376.433594-5.40625.191406-.445313.296874-.933594.285156-1.449219-.007813-.339844-.078125-.664063-.179688-.972657.058594-2.042968.015625-4.039062-.230468-5.929687-2.320313-17.984375-11.089844-35.65625-24.703126-49.761719-13.757812-14.253906-30.367187-24.164062-45.519531-31.953125 4.09375-1.953125 8.191407-3.867187 12.273438-5.765625 2.511719-1.171875 5.015625-2.335937 7.511719-3.511718 2.355468-1.105469 4.734374-2.238282 7.128906-3.398438 10.804687 5.410156 18.757812 10.449219 27.292968 17.285156 19.949219 15.976563 34.058594 39.140625 39.722657 65.21875 5.238281 24.140625 4.503906 42.226563-1.972657 48.390625zm0 0"/></svg>