<svg height="511pt" viewBox="0 -4 511.99993 511" width="511pt" xmlns="http://www.w3.org/2000/svg"><path d="m59.28125 166.597656c5.578125 6.769532 14.425781 11.046875 26.300781 12.714844 3.363281.472656 6.621094.707031 9.769531.707031 6.535157 0 12.597657-1.011719 18.101563-3.035156 9.550781-3.507813 17.277344-10.238281 21.191406-18.464844 4.773438-10.03125 3.9375-22.089843-2.296875-33.085937-6.828125-12.039063-18.679687-20.246094-30.9375-21.414063-7.992187-.757812-16.773437 1.59375-24.695312 6.628907-1.097656.699218-2.179688 1.425781-3.214844 2.171874-9.476562 6.785157-16.242188 15.21875-19.054688 23.753907-3.507812 10.644531-1.652343 22.148437 4.835938 30.023437zm-1-28.757812c2.546875-7.726563 8.785156-15.445313 17.570312-21.734375.976563-.703125 2-1.390625 3.03125-2.046875 6.300782-4.003906 13.132813-6.140625 19.523438-6.140625.882812 0 1.757812.042969 2.621094.125 10.964844 1.042969 21.621094 8.472656 27.804687 19.382812 5.574219 9.835938 6.363281 20.535157 2.164063 29.359375-3.464844 7.28125-10.367188 13.257813-18.933594 16.40625-7.53125 2.765625-16.25 3.476563-25.914062 2.121094-7.457032-1.046875-17.625-3.855469-23.746094-11.285156-5.535156-6.710938-7.152344-16.988282-4.121094-26.1875zm0 0"/><path d="m395.085938 60.515625c-3.085938-6.429687-9.804688-9.636719-15.855469-12.132813-35.375-14.59375-72.117188-26.773437-109.203125-36.195312-9.570313-2.433594-19.5-3.9375-27.339844 1.457031-5.382812 3.710938-8.078125 9.492188-10.28125 15.78125-.148438.234375-.28125.488281-.375.765625-.082031.257813-.128906.515625-.15625.773438-.101562.308594-.207031.617187-.308594.929687-16.234375 49.054688-31.175781 99.242188-44.417968 149.171875-5.546876 20.90625-4.0625 37.027344 4.382812 48.125-.015625.0625-.046875.117188-.0625.179688l-8.3125 33.601562c-.457031 1.832032.613281 3.699219 2.421875 4.238282l11.289063 3.359374c-3.714844 3.761719-5.933594 9.042969-5.835938 14.332032.117188 6.625 3.863281 13.117187 9.535156 16.539062 1.910156 1.152344 3.886719 1.910156 5.804688 2.644532 2.101562.808593 4.089844 1.574218 5.617187 2.742187 4.300781 3.296875 4.921875 9.8125 3.632813 14.8125-1.324219 5.144531-4.300782 9.757813-7.453125 14.644531-.480469.75-.964844 1.5-1.441407 2.25-4.632812 7.296875-10.207031 17.117188-12.21875 28.398438-2.082031 11.679687.269532 23.003906 6.460938 31.074218 5.480469 7.15625 14.046875 11.277344 22.335938 11.277344 2.761718 0 5.496093-.460937 8.074218-1.417968 11.277344-4.183594 16.816406-15.855469 18.242188-25.378907 1.320312-8.84375.039062-17.644531-1.195313-26.15625-.179687-1.246093-.359375-2.484375-.53125-3.726562-1.265625-9.117188-2.011719-18.699219 1.078125-26.984375 1.328125-3.566406 3.339844-6.875 5.46875-10.375 1.363282-2.246094 2.777344-4.570313 4.015625-7.003906 2.46875-4.832032 4.8125-11.578126 3.570313-18.273438l6.964844 2.074219c.335937.101562.675781.148437 1.007812.148437 1.496094 0 2.882812-.957031 3.363281-2.453125l10.414063-32.28125c.136718-.421875.179687-.855469.15625-1.273437 23.851562-8.210938 39.097656-31.996094 48.558594-49.363282 21.757812-39.960937 41.988281-81.378906 60.132812-123.109374 2.257812-5.195313 6.460938-14.867188 2.460938-23.195313zm-142.921876 244.511719c-1.125 2.199218-2.40625 4.308594-3.765624 6.542968-2.203126 3.628907-4.484376 7.382813-6.050782 11.582032-3.636718 9.753906-2.847656 20.386718-1.457031 30.421875.175781 1.253906.359375 2.511719.542969 3.773437 1.214844 8.375 2.363281 16.28125 1.195312 24.09375-1.71875 11.496094-8.457031 17.851563-13.707031 19.796875-7.355469 2.730469-16.957031-.507812-22.34375-7.53125-4.980469-6.5-6.84375-15.804687-5.109375-25.535156 1.398438-7.851563 4.863281-15.824219 11.226562-25.851563.46875-.734374.941407-1.46875 1.417969-2.203124 3.316407-5.144532 6.746094-10.464844 8.355469-16.710938 1.871094-7.253906.6875-16.929688-6.179688-22.191406-2.339843-1.792969-4.902343-2.777344-7.382812-3.726563-1.703125-.65625-3.3125-1.273437-4.6875-2.101562-3.640625-2.195313-6.042969-6.363281-6.121094-10.617188-.078125-4.25 2.171875-8.5 5.730469-10.828125.414063-.273437.75-.613281 1.007813-1l49.179687 14.640625c.035156.355469.109375.707031.261719 1.046875 2.523437 5.71875-.242188 12.730469-2.113282 16.398438zm15.53125-20.746094-76.867187-22.882812 1.796875-7.273438c22.292969 13.835938 48.441406 21.292969 74.679688 21.292969 1.089843 0 2.179687-.042969 3.269531-.066407zm4.195313-12.996094c-27.449219.941406-55.046875-6.601562-78.238281-21.3125l1.582031-6.386718c22.351563 14.730468 48.800781 22.660156 75.566406 22.660156.90625 0 1.8125-.011719 2.722657-.03125zm2.949219-9.148437c-27.828125.851562-55.515625-7.164063-78.574219-22.726563l1.054687-4.261718c.984376.800781 2.019532 1.570312 3.113282 2.292968 2.375 1.570313 4.820312 3.097656 7.265625 4.535156 12.277343 7.214844 33.632812 17.46875 55.851562 17.46875 4.167969 0 8.363281-.371093 12.539063-1.179687zm5.238281-12.125c-25.621094 7.835937-54.097656-5.488281-68.796875-14.128907-2.339844-1.375-4.675781-2.835937-6.949219-4.339843-13.070312-8.652344-16.566406-24.164063-10.679687-47.378907 36.820312 22.214844 78.628906 35.035157 121.546875 37.296876-8.703125 12.261718-20.199219 23.988281-35.121094 28.550781zm37.796875-32.457031c-43.511719-1.875-85.945312-14.789063-123.144531-37.464844.382812-1.4375.777343-2.882813 1.164062-4.320313 43.839844 18.824219 82.820313 30.0625 125.507813 36.195313-1.113282 1.84375-2.289063 3.714844-3.527344 5.589844zm8.40625-14.117188c-.839844 1.542969-1.726562 3.140625-2.664062 4.769531-43.144532-6.050781-82.378907-17.320312-126.660157-36.378906 7.265625-26.910156 15.007813-53.859375 23.179688-80.640625 48.621093 8.855469 95.976562 23.816406 140.863281 44.5-11.042969 22.898438-22.632812 45.554688-34.71875 67.75zm36.46875-71.390625c-45.066406-20.773437-92.609375-35.816406-141.421875-44.746094.625-2.039062 1.265625-4.074219 1.894531-6.113281 49.429688 8.054688 97.21875 23.277344 142.199219 45.292969-.882813 1.859375-1.78125 3.710937-2.671875 5.566406zm4.382812-9.222656c-45.144531-22.09375-93.105468-37.394531-142.703124-45.53125 4.328124-13.902344 8.757812-27.746094 13.296874-41.503907l146.949219 48.414063c-5.652343 12.917969-11.507812 25.800781-17.542969 38.621094zm20.21875-45.324219c-.316406.15625-.679687.195312-1.085937.097656-19.050781-4.691406-37.628906-11.070312-56.070313-17.71875-18.46875-6.660156-37.136718-12.875-55.742187-19.214844-2.875-.980468-34.257813-11.898437-34.398437-11.550781 1.621093-4.09375 3.550781-7.515625 6.640624-9.644531 7.308594-5.03125 16.839844-1.003906 24.597657.820312 9.199219 2.160157 18.34375 4.550782 27.425781 7.164063 18.164062 5.234375 36.0625 11.371094 53.613281 18.386719 6.746094 2.691406 13.4375 5.515625 20.070313 8.46875 4.929687 2.191406 13.824218 4.074218 16.3125 9.265625.925781 1.925781 1.472656 12.527343-1.363282 13.925781zm0 0"/><path d="m297.953125 122.835938c-6.78125-4.3125-15.671875-6.203126-25.011719-5.3125-1.285156.121093-2.578125.28125-3.851562.472656-11.523438 1.742187-21.382813 6.183594-27.765625 12.507812-7.957031 7.890625-11.53125 18.980469-9.328125 28.945313 1.894531 8.5625 7.835937 16.394531 17.65625 23.277343 8.546875 5.984376 17.257812 9.546876 25.886718 10.582032 1.679688.203125 3.355469.300781 5.015626.300781 8.316406 0 16.226562-2.496094 22.25-7.125 8.808593-6.765625 13.542968-17.890625 12.980468-30.519531-.609375-13.828125-7.441406-26.519532-17.832031-33.128906zm2.390625 60.445312c-6.394531 4.910156-15.257812 7.105469-24.320312 6.015625-7.964844-.957031-16.054688-4.28125-24.050782-9.882813-6.164062-4.316406-13.949218-11.4375-16.03125-20.839843-1.878906-8.492188 1.351563-18.382813 8.230469-25.203125 5.777344-5.726563 14.839844-9.769532 25.523437-11.382813 1.199219-.179687 2.417969-.328125 3.628907-.445312 8.453125-.804688 16.4375.867187 22.460937 4.703125 9.292969 5.910156 15.410156 17.367187 15.964844 29.894531.5 11.296875-3.65625 21.1875-11.40625 27.140625zm0 0"/><path d="m511.199219 259.230469c-2.199219-6.78125-8.429688-10.855469-14.09375-14.136719-33.113281-19.1875-67.898438-36.164062-103.394531-50.453125-9.15625-3.6875-18.800782-6.507813-27.289063-2.203125-5.828125 2.953125-9.269531 8.324219-12.296875 14.261719-.179688.214843-.34375.449219-.472656.710937-.117188.246094-.199219.496094-.257813.746094-.144531.292969-.289062.585938-.429687.878906-22.636719 46.449219-44.148438 94.195313-63.941406 141.90625-8.285157 19.976563-8.964844 36.15625-2.078126 48.28125-.027343.058594-.0625.105469-.085937.167969l-12.726563 32.191406c-.695312 1.753907.113282 3.746094 1.835938 4.523438l6.667969 3.003906c.519531 7.320313-5.558594 13.976563-11.890625 16.683594-7.902344 3.375-17.273438 2.722656-25.402344 1.636719-1.59375-.210938-3.191406-.445313-4.789062-.675782-7.671876-1.117187-15.605469-2.273437-23.617188-1.289062-12.527344 1.539062-23.644531 8.121094-33.457031 13.925781l-17.859375 10.570313c-1.496094.886718-4.28125 2.535156-4.980469 5.78125-.789063 3.6875 1.496094 7.15625 6.265625 9.515624 12.683594 6.273438 26.90625 9.378907 41.148438 9.378907 16.789062 0 33.601562-4.316407 47.925781-12.855469 1.339843-.796875 2.667969-1.632812 4.003906-2.472656 5.441406-3.417969 10.582031-6.648438 16.277344-7.292969 6.578125-.746094 12.988281 2.039063 19.789062 4.984375 5.957031 2.582031 12.117188 5.253906 18.859375 5.734375 7.921875.570313 15.917969-2.074219 21.945313-7.246094 5.210937-4.476562 8.769531-10.703125 10.050781-17.425781l8.414062 3.789062c.46875.210938.964844.3125 1.449219.3125 1.320313 0 2.585938-.742187 3.191407-2.011718l14.628906-30.597656c.191406-.40625.292968-.828126.324218-1.246094 24.738282-4.953125 43.023438-26.488282 54.714844-42.441406 26.898438-36.691407 52.476563-75.039063 76.03125-113.976563 2.933594-4.847656 8.390625-13.871094 5.539063-22.660156zm-178.949219 220.894531c-4.621094 3.96875-10.757812 5.996094-16.835938 5.558594-5.539062-.398438-10.890624-2.714844-16.554687-5.167969-7.347656-3.1875-14.953125-6.480469-23.394531-5.527344-7.296875.828125-13.367188 4.644531-19.242188 8.335938-1.285156.808593-2.570312 1.617187-3.859375 2.382812-24.472656 14.582031-56.789062 15.847657-82.320312 3.214844-1.429688-.707031-2.175781-1.402344-2.417969-1.753906.1875-.199219.621094-.542969 1.601562-1.125l17.859376-10.570313c9.214843-5.453125 19.65625-11.636718 30.714843-12.992187 7.070313-.871094 14.195313.167969 21.738281 1.265625 1.625.238281 3.25.472656 4.871094.691406 9.082032 1.210938 19.640625 1.90625 29.117188-2.144531 9.917968-4.238281 15.109375-12.5 16.039062-20.0625l50.632813 22.808593c-.652344 5.808594-3.507813 11.273438-7.949219 15.085938zm22.824219-16.140625-73.125-32.941406 2.753906-6.972657c21.085937 17.382813 47.246094 28.445313 74.417969 31.449219zm5.890625-12.316406c-27.332032-2.734375-53.675782-13.894531-74.691406-31.566407l2.421874-6.125c20.871094 18.179688 47.050782 29.738282 74.566407 32.882813zm4.144531-8.675781c-27.691406-2.867188-54.058594-14.511719-74.835937-33.011719l1.617187-4.082031c.867187.925781 1.789063 1.824218 2.773437 2.6875 2.140626 1.867187 4.359376 3.707031 6.597657 5.464843 12.714843 9.976563 36.492187 25.386719 62.027343 25.386719 1.1875 0 2.378907-.042969 3.574219-.113281zm6.8125-11.316407c-26.441406 4.335938-52.882813-12.664062-66.296875-23.1875-2.140625-1.679687-4.261719-3.4375-6.304688-5.222656-11.800781-10.324219-13.195312-26.164063-4.261718-48.386719 33.527344 26.933594 73.25 45.222656 115.480468 53.195313-10.261718 10.988281-23.222656 21.074219-38.617187 23.601562zm41.792969-27.117187c-42.871094-7.671875-83.203125-26.128906-117.042969-53.570313.574219-1.378906 1.15625-2.753906 1.730469-4.128906 40.9375 24.507813 78.066406 40.855469 119.554687 52.628906-1.351562 1.679688-2.765625 3.375-4.242187 5.070313zm10.214844-12.871094c-1.039063 1.417969-2.132813 2.878906-3.28125 4.375-41.945313-11.757812-79.328126-28.164062-120.667969-52.964844 10.796875-25.699218 22.066406-51.375 33.742187-76.828125 47 15.269531 91.9375 36.421875 133.660156 62.914063-14 21.21875-28.515624 42.125-43.453124 62.503906zm45.675781-65.878906c-41.890625-26.605469-87.003907-47.863282-134.183594-63.230469.894531-1.9375 1.796875-3.871094 2.695313-5.804687 47.90625 14.582031 93.238281 36.050781 134.875 63.875-1.121094 1.722656-2.257813 3.4375-3.386719 5.160156zm5.574219-8.558594c-41.792969-27.921875-87.28125-49.488281-135.347657-64.175781 6.144531-13.199219 12.382813-26.328125 18.71875-39.351563l139.167969 67.597656c-7.324219 12.046876-14.847656 24.03125-22.539062 35.929688zm26.179687-42.019531c-5.054687-2.457031-10.207031-4.171875-15.238281-6.636719-3.417969-1.671875-6.832032-3.339844-10.246094-5.011719-.980469-.480469-9.164062-3.75-9.164062-4.484375-35.019532-17.132812-69.941407-34.671875-104.960938-51.683594 2.148438-3.84375 4.523438-6.976562 7.867188-8.671874 6.53125-3.308594 14.28125-.421876 20.714843 1.777343 7.386719 2.523438 14.449219 5.894531 21.457031 9.308594 16.304688 7.9375 32.46875 16.160156 48.488282 24.660156 8.007812 4.246094 15.984375 8.566407 23.917968 12.953125 3.964844 2.191406 7.925782 4.402344 11.875 6.628906 2.53125 1.429688 8.40625 3.566407 8.40625 7.339844 1.398438 4.316406-.574218 9.234375-3.117187 13.820313zm0 0"/><path d="m406.617188 308.027344c-6.144532-5.179688-14.695313-8.238282-24.078126-8.605469-1.289062-.050781-2.59375-.066406-3.882812-.046875-11.648438.1875-22.015625 3.273438-29.183594 8.691406-8.941406 6.757813-13.964844 17.269532-13.109375 27.4375.734375 8.742188 5.574219 17.292969 14.386719 25.425782 7.671875 7.074218 15.828125 11.765624 24.242188 13.945312 3.457031.894531 6.949218 1.335938 10.371093 1.335938 6.339844 0 12.433594-1.515626 17.5625-4.460938 9.632813-5.527344 15.808594-15.921875 16.941407-28.511719 1.238281-13.78125-3.839844-27.277343-13.25-35.210937zm9.226562 34.851562c-1.011719 11.257813-6.453125 20.507813-14.929688 25.371094-6.988281 4.015625-16.066406 5.003906-24.90625 2.714844-7.765624-2.011719-15.339843-6.386719-22.515624-13.003906-5.535157-5.105469-12.296876-13.199219-13.101563-22.792969-.730469-8.667969 3.792969-18.039063 11.515625-23.878907 6.492188-4.902343 16.015625-7.699218 26.816406-7.875 1.210938-.019531 2.441406-.003906 3.65625.042969 8.488282.335938 16.175782 3.054688 21.636719 7.660157 8.417969 7.097656 12.949219 19.269531 11.828125 31.761718zm0 0"/><path d="m177.824219 297.742188c-5.878907-3.476563-12.664063-4.042969-17.917969-4.144532-1.621094-.03125-3.25-.023437-4.875-.011718-3.972656.027343-7.722656.050781-11.378906-.539063-3.144532-.511719-8.882813-2.023437-11.988282-6.433594-2.539062-3.597656-2.773437-12.152343-.394531-14.296875.199219-.175781.367188-.378906.515625-.585937l20.683594-3.8125c1.890625-.347657 3.15625-2.140625 2.847656-4.039063l-5.386718-33.484375c-.070313-.441406-.230469-.847656-.441407-1.210937 17.523438-18.152344 20.300781-46.265625 20.839844-66.035156 1.234375-45.492188.441406-91.582032-2.351563-136.988282-.347656-5.65625-.996093-16.179687-8.339843-21.785156-5.671875-4.3242188-13.113281-4.128906-19.640625-3.601562-38.140625 3.066406-76.40625 8.90625-113.726563 17.355468-9.628906 2.179688-19.160156 5.351563-23.691406 13.71875-3.113281 5.75-2.886719 12.125-1.996094 18.730469-.027343.28125-.027343.5625.015625.855469.042969.261718.117188.507812.210938.742187.046875.328125.09375.65625.144531.984375 7.824219 51.0625 17.308594 102.5625 28.191406 153.070313 4.554688 21.144531 13.203125 34.832031 25.765625 40.882812.011719.0625.011719.125.027344.1875l7.855469 33.710938c.378906 1.625 1.824219 2.734375 3.441406 2.734375.210937 0 .425781-.019532.640625-.058594l8.566406-1.578125.039063.085937c3.007812 6.453126 5.183593 11.117188 5.300781 17.832032.089844 5.242187-1.546875 10.46875-4.613281 14.71875-3.035157 4.210937-7.328125 7.417968-11.878907 10.8125l-.449218.335937c-5.410156 4.042969-10.167969 7.824219-13.601563 13.144531-4.238281 6.566407-5.101562 14.351563-2.261719 20.316407 3.308594 6.949219 11.09375 11.261719 22.511719 12.46875 1.375.144531 2.769531.261719 4.164063.378906 6.265625.53125 12.1875 1.027344 16.796875 4.070313 4.1875 2.765624 6.886719 7.382812 9.742187 12.273437 1.558594 2.667969 3.167969 5.425781 5.085938 7.976563 5.941406 7.902343 14.90625 13.5625 24.59375 15.535156 2.632812.535156 5.324218.800781 8.023437.800781 7.210938 0 14.453125-1.890625 20.679688-5.496094 9.3125-5.390625 15.332031-14.101562 16.113281-23.300781.492188-5.773438-1.039062-11.257812-2.519531-16.566406-1.609375-5.75-3.125-11.183594-1.816407-16.246094 1.148438-4.441406 4.378907-8.175781 7.800782-12.128906 3.351562-3.875 6.816406-7.878906 8.71875-12.972656 3.851562-10.324219-.5625-22.800782-10.046875-28.40625zm-169.03125-262.523438c4.074219-7.523438 15.078125-8.859375 22.5625-11.058594 9.199219-2.707031 18.496093-5.074218 27.863281-7.105468 18.738281-4.058594 37.773438-6.757813 56.902344-8.066407 6.839844-.464843 13.691406-.757812 20.542968-.867187 5.554688-.089844 13.972657-1.714844 18.683594 1.878906 3.601563 2.75 4.78125 7.914062 5.300782 13.132812-13.347657 2.0625-26.769532 3.84375-40.152344 5.851563-20.035156 3.003906-40.066406 6.007813-60.101563 9.011719-10.019531 1.503906-20.035156 3.007812-30.050781 4.507812-1.414062.214844-23.15625 3.578125-23.085938 4.324219-.417968-4.386719-.25-8.3125 1.535157-11.609375zm-.574219 18.613281 152.902344-23.621093c.832031 14.074218 1.46875 28.210937 1.914062 42.371093-50.253906.828125-99.929687 8.980469-147.8125 24.261719-2.460937-14.351562-4.804687-28.695312-7.003906-43.011719zm7.695312 47.03125c47.695313-15.277343 97.1875-23.425781 147.257813-24.242187.058594 2.058594.097656 4.117187.148437 6.171875-49.582031 1.964843-98.773437 10.160156-146.316406 24.375-.367187-2.101563-.726562-4.203125-1.089844-6.304688zm1.792969 10.308594c47.335938-14.191406 96.324219-22.378906 145.707031-24.339844.566407 25.414063.53125 50.863281-.152343 76.125-.046875 1.757813-.117188 3.582031-.210938 5.460938-41.183593 14.207031-81.253906 21.992187-129.363281 25.125-5.75-27.273438-11.097656-54.800781-15.980469-82.371094zm16.824219 86.363281c47.605469-3.140625 87.4375-10.832031 128.253906-24.761718-.152344 2.148437-.351562 4.347656-.601562 6.582031-39.617188 18.089843-83.28125 25.867187-126.726563 22.558593-.3125-1.457031-.613281-2.917968-.925781-4.378906zm1.816406 8.492188c6.210938.445312 12.425782.675781 18.636719.675781 36.652344 0 73.015625-7.707031 106.589844-22.648437-2.183594 14.875-7.097657 30.542968-18.320313 41.382812-19.269531 18.617188-50.691406 19.6875-67.707031 18.664062-2.714844-.164062-5.460937-.402343-8.160156-.707031-15.582031-1.773437-25.742188-14.007812-31.039063-37.367187zm26.425782 43.761718c1.242187.265626 2.511718.480469 3.8125.628907 2.824218.320312 5.695312.570312 8.535156.742187 2.75.164063 5.851562.277344 9.214844.277344 17.273437 0 41.351562-2.964844 59.109374-16.832031l.648438 4.015625c-24.398438 13.402344-52.710938 18.832031-80.324219 15.445312zm3.46875 14.871094-1.496094-6.410156c5.03125.5625 10.082031.84375 15.128906.84375 22.535156 0 44.945312-5.570312 64.898438-16.253906l.847656 5.273437c-24.027344 13.304688-52.042969 19.121094-79.378906 16.546875zm2.671874 11.464844-1.703124-7.308594c3.898437.328125 7.808593.503906 11.71875.503906 23.398437 0 46.761718-5.851562 67.371093-16.984374l1.488281 9.257812zm112.332032 47.554688c-1.453125 3.898437-4.359375 7.257812-7.4375 10.8125-3.804688 4.398437-7.738282 8.941406-9.300782 14.988281-1.785156 6.898437.0625 13.519531 1.851563 19.917969 1.371094 4.917968 2.667969 9.5625 2.289063 14.066406-.578126 6.796875-5.410157 13.609375-12.613282 17.78125-7.078125 4.101562-15.738281 5.515625-23.753906 3.886718-8.015625-1.632812-15.433594-6.316406-20.351562-12.855468-1.667969-2.222656-3.109376-4.6875-4.632813-7.292969-3.140625-5.375-6.386719-10.9375-11.953125-14.609375-6.113281-4.035156-13.222656-4.632812-20.097656-5.214844-1.347656-.113281-2.6875-.222656-4.011719-.363281-6.167969-.652344-14.101563-2.652344-16.875-8.480469-2.144531-4.503906-.464844-9.898437 1.820313-13.445312 2.792968-4.332032 7.039062-7.6875 11.894531-11.3125l.445312-.332032c4.773438-3.566406 9.710938-7.25 13.382813-12.34375 3.953125-5.480468 6.0625-12.222656 5.945312-18.976562-.128906-7.566406-2.425781-13.070312-5.226562-19.121094l40.5-7.460937c-1.433594 5.9375 0 13.445312 2.765625 17.363281 3.40625 4.835938 9.3125 8.148438 16.632812 9.335938 4.242188.6875 8.46875.660156 12.558594.632812 1.5625-.011719 3.128906-.023438 4.691406.007812 4.386719.085938 9.996094.523438 14.457031 3.160157 6.515626 3.855469 9.667969 12.757812 7.019532 19.855469zm0 0"/></svg>