<?xml version="1.0" encoding="iso-8859-1"?>
<!-- Generator: Adobe Illustrator 18.0.0, SVG Export Plug-In . SVG Version: 6.00 Build 0)  -->
<!DOCTYPE svg PUBLIC "-//W3C//DTD SVG 1.1//EN" "http://www.w3.org/Graphics/SVG/1.1/DTD/svg11.dtd">
<svg version="1.1" id="Capa_1" xmlns="http://www.w3.org/2000/svg" xmlns:xlink="http://www.w3.org/1999/xlink" x="0px" y="0px"
	 viewBox="0 0 225.176 225.176" style="enable-background:new 0 0 225.176 225.176;" xml:space="preserve">
<g>
	<g>
		<path d="M221.994,188.63c-0.03-33.172,0.644-66.437-0.899-99.577c0.021-0.03,0.046-0.06,0.067-0.09
			c0.139-0.034,0.284-0.053,0.421-0.09c0.951-0.254,1.119-1.121,0.828-1.827c0.382-1.35-1.527-2.471-2.667-1.442
			c-0.165,0.149-0.322,0.313-0.487,0.463c-3.516-0.086-7.1,0.165-10.683,0.432c-0.281-0.391-0.713-0.683-1.326-0.721
			c-16.538-1.033-33.195-1.488-49.774-1.536c3.089-3.665,6.091-7.544,8.23-11.674c0.397-0.766,0.154-1.584-0.346-2.144
			c0.192-0.648-0.052-1.346-0.642-1.723c-0.116-0.074-0.231-0.148-0.348-0.222c-0.35-0.224-0.699-0.268-1.01-0.194
			c0.511-2.436,0.371-4.871-0.422-7.305c-0.619-3.841-1.047-7.701-1.282-11.581c-0.263-4.033-0.336-8.08-0.21-12.12
			c0.254-8.112,1.326-15.833-0.544-23.74c0.113-0.091,0.235-0.175,0.348-0.266c1.619-1.306-0.537-4.137-2.242-2.906
			c-7.675,5.54-15.152,11.648-22.328,17.821c-0.4,0.344-0.444,0.818-0.285,1.231c-22.066-0.524-44.103-0.801-66.151-1.936
			c2.031-1.854,3.821-4.132,5.539-6.395c5.629,0.138,11.262,0.17,16.891,0.029c0.957-0.024,0.958-1.463,0-1.487
			c-5.263-0.132-10.528-0.103-15.792,0.011c0.797-1.054,1.585-2.087,2.374-3.044c1.133-1.374,2.388-2.752,3.632-4.159
			c6.159,0.231,12.253,0.706,18.38,1.389c0.806,0.09,0.995-1.278,0.193-1.424c-5.739-1.047-11.587-1.457-17.422-1.294
			c2.041-2.387,3.937-4.889,5.059-7.662c0.002-0.006-0.002-0.011,0-0.017c9.161,3.696,24.139,2.725,33.377,3.733
			c11.351,1.238,22.718,3.06,34.107,3.794c1.755,0.113,2.154-2.724,0.418-3.086c-12.201-2.547-24.763-3.649-37.153-4.925
			c-9.856-1.016-24.441-4.904-33.94-1.703c-0.696,0.235-1.132,0.917-0.94,1.655c0.048,0.185,0.096,0.369,0.145,0.554
			c-3.76,3.343-6.683,8.195-9.717,12.038c-3.19,4.041-7.696,8.348-9.362,13.271c-0.09,0.266,0.001,0.497,0.148,0.692
			c0,0.014-0.009,0.027-0.009,0.041c-0.106,19.986-0.385,39.987-0.036,59.974c-2.668-0.052-5.337,0.506-7.986,0.93
			c-3.968,0.636-7.936,1.337-11.865,2.184c-0.405,0.087-0.618,0.361-0.742,0.68c-0.119,0.06-0.241,0.092-0.354,0.181
			c-12.65,9.895-25.584,19.129-38.813,28.218c-0.283,0.194-0.435,0.441-0.526,0.699c-1.009-0.981-3.147-0.557-3.212,1.282
			c-1.14,32.475,0.431,65.242,5.007,97.412c0.014,0.096,0.097,0.126,0.133,0.203c-0.582,0.868-0.209,2.294,1.174,2.355
			c59.133,2.628,120.358,1.756,179.48-1.175c0.316-0.015,0.568-0.112,0.792-0.24c4.115-0.353,11.292-7.965,13.351-9.74
			c7.257-6.254,15.054-13.421,20.092-21.64C223.204,189.933,222.731,189.033,221.994,188.63z M203.926,89.207
			c3.708,0.399,7.681,0.729,11.497,0.542c-8.847,8.919-16.752,19.629-24.364,29.355c-2.586-0.39-5.062-0.276-7.588,0.493
			c-0.32,0.097-0.552,0.257-0.746,0.438c-26.185,0.086-52.387,0.031-78.588,0.09c2.077-2.631,4.165-5.251,6.395-7.758l0.003-0.003
			c7.71,1.157,16.034,0.79,23.786,0.708c0.975-0.01,0.963-1.453,0-1.506c-7.355-0.402-15.208-1.065-22.616-0.424
			c2.251-2.392,4.642-4.663,6.81-7.117c6.787-0.148,13.558-0.389,20.276-0.85c0.256,0.86,1.579,0.549,1.641-0.322
			c0.021-0.291,0.031-0.586,0.051-0.878c0.29-0.053,0.527-0.181,0.778-0.444c2.966,0.363,5.938,0.683,8.906,0.968
			c0.732,0.07,0.912-1.188,0.175-1.296c-2.649-0.389-5.309-0.747-7.971-1.078c1.644-1.248,3.508-3.192,3.803-3.482
			c0.927-0.913,1.769-1.907,2.67-2.846c0.009,0,0.011,0.009,0.02,0.009c5.511,0.063,11.017,0.164,16.527-0.019
			c0.897-0.029,0.898-1.365,0-1.394c-5.067-0.168-10.131-0.094-15.2-0.032c1.213-1.299,2.479-2.547,3.648-3.889
			c0.498-0.572,1.008-1.168,1.514-1.751C171.489,87.991,187.737,88.858,203.926,89.207z M158.791,15.146
			c1.263,12.003-1.397,24.174-0.475,36.266c0.423,5.555,0.124,15.303,3.887,19.705c-5.034,5.955-9.293,12.561-14.462,18.448
			c-1.695,1.93-4.934,4.437-6.932,6.868c1.111-21.166,0.391-42.89,0.083-63.992c-0.019-1.317-1.054-1.899-2.043-1.808
			c-0.126-0.245-0.33-0.436-0.532-0.624C145.268,25.318,152.175,20.344,158.791,15.146z M35.714,105.742
			c4.879,0.438,9.76,0.897,14.659,0.991c0.733,0.014,0.697-1.039,0-1.116c-4.442-0.485-8.908-0.665-13.373-0.838
			c2.457-1.877,4.819-3.848,7.201-5.801c4.8-0.05,9.505-0.47,14.232-1.448c0.715-0.148,0.397-1.18-0.296-1.076
			c-4.064,0.612-8.161,0.983-12.267,1.179c0.637-0.533,1.316-1.025,1.944-1.566c0.432-0.372,0.6-0.792,0.609-1.199
			c3.41-0.205,6.819-0.487,10.216-0.837c2.549-0.262,5.119-0.393,7.569-1.042c0.063,2.949,0.094,5.898,0.191,8.846
			c0.059,1.774,2.669,1.768,2.752,0c0.147-3.151,0.225-6.302,0.329-9.453c2.883,0.024,5.765,0.058,8.649,0.008
			c0.801-0.014,0.803-1.232,0-1.246c-2.869-0.05-5.737-0.016-8.606,0.008c0.071-2.258,0.09-4.518,0.149-6.776
			c4.138,0.103,8.286,0.255,12.424,0.09c0.813-0.033,0.814-1.232,0-1.264c-4.13-0.165-8.269-0.014-12.4,0.089
			c0.073-2.898,0.126-5.797,0.191-8.695c5.169,0.143,10.347,0.118,15.514-0.008c0.861-0.021,0.863-1.318,0-1.339
			c-5.157-0.126-10.325-0.151-15.484-0.009c0.033-1.598,0.086-3.196,0.105-4.795c0.029-2.448,0.046-4.896,0.069-7.345
			c5.54-0.344,11.072-0.487,16.63-0.346c0.881,0.022,0.862-1.293,0-1.357c-5.549-0.41-11.091-0.298-16.616,0.264
			c0.024-2.637,0.052-5.274,0.074-7.911c0.015-1.825-0.539-7.832-0.476-12.21c5.236,0.056,10.462,0.073,15.699-0.035
			c0.801-0.017,0.803-1.229,0-1.246c-5.228-0.109-10.446-0.09-15.674-0.035c0.075-1.455,0.251-2.609,0.588-3.169
			c3.925-6.513,25.46-2.072,32.326-1.855c10.654,0.337,21.321,0.537,31.98,0.399c0.453,0.582,1.25,0.864,2.163,0.393
			c0.071-0.037,0.142-0.073,0.213-0.11c-1.316,21.497-1.633,44.372,1.293,65.799c-1.766-0.191-3.531-0.401-5.298-0.549
			c-0.44-0.037-0.634,0.415-0.563,0.783c-20.588-0.782-41.501-0.11-62.007,0.954c-1.633,0.085-1.646,2.486,0,2.547
			c14.096,0.528,28.386,0.841,42.628,0.676c-4.736,4.712-8.89,10.611-12.329,16.036c-29.455,0.08-58.908,0.328-88.335,1.152
			C20.455,116.623,28.245,111.371,35.714,105.742z M9.695,220.558c-0.192-3.368-0.349-6.728-0.528-10.093
			c5.792-0.396,11.592-0.468,17.395-0.275c0.891,0.03,0.876-1.317,0-1.376c-5.845-0.39-11.642-0.214-17.464,0.333
			c-0.17-3.228-0.309-6.452-0.466-9.679c4.279,0.111,8.549-0.067,12.786-0.754c0.583-0.095,0.454-1.103-0.141-1.041
			c-4.238,0.445-8.455,0.677-12.7,0.65c-0.368-7.637-0.685-15.27-0.975-22.904c4.553-0.406,9.095-0.475,13.672-0.304
			c0.858,0.032,0.835-1.248,0-1.32c-4.583-0.395-9.157-0.224-13.719,0.266c-0.168-4.522-0.282-9.047-0.42-13.571
			c5.026,0.218,9.982,0.058,14.975-0.673c0.708-0.104,0.549-1.334-0.17-1.26c-4.934,0.509-9.884,0.778-14.843,0.695
			c-0.114-3.812-0.203-7.627-0.297-11.441c6.59,0.133,13.176,0.272,19.768,0.176c0.885-0.013,0.886-1.363,0-1.376
			c-6.6-0.097-13.196,0.043-19.794,0.176c-0.108-4.438-0.157-8.883-0.23-13.326c9.328-0.001,18.642,0.206,27.965,0.638
			c1.036,0.048,1.015-1.518,0-1.599c-9.318-0.745-18.654-0.859-27.989-0.453c-0.041-2.701-0.12-5.397-0.14-8.102
			c0.234,0.158,0.511,0.25,0.825,0.211c0.21,0.127,0.45,0.223,0.757,0.229c30.931,0.662,61.887,0.652,92.843,0.459
			c-0.101,0.226-0.16,0.489-0.153,0.795c0.053,2.612,0.089,5.239,0.128,7.864c-0.317,0.29-0.308,0.821,0.018,1.125
			c0.391,27.591,0.22,55.773,3.477,83.067C72.567,217.831,40.837,218.704,9.695,220.558z M188.718,219.041
			c-0.099-0.019-0.179-0.062-0.29-0.066c-27.029-0.919-54.492-1.372-81.984-1.284c0.178-3.12,0.283-6.254,0.376-9.39
			c0.065,0.087,0.143,0.168,0.271,0.199c7.243,1.748,15.226,1.766,22.614,1.231c0.92-0.067,0.944-1.465,0-1.45
			c-7.549,0.115-14.949-0.601-22.466-0.877c-0.173-0.006-0.298,0.07-0.391,0.176c0.256-9.264,0.16-18.589-0.103-27.925
			c4.418,0.575,8.885,0.54,13.227-0.561c0.812-0.206,0.459-1.379-0.341-1.237c-4.337,0.771-8.556,1.07-12.915,0.603
			c-0.126-4.24-0.291-8.482-0.475-12.721c4.513,0.056,9.022,0.102,13.536-0.005c0.753-0.018,0.755-1.153,0-1.171
			c-4.531-0.108-9.057-0.061-13.586-0.005c-0.195-4.413-0.423-8.814-0.645-13.217c6.7,0.833,13.442,1.252,20.188,0.792
			c0.91-0.062,0.931-1.446,0-1.432c-6.791,0.101-13.511-0.032-20.257-0.755c-0.252-4.976-0.477-9.912-0.713-14.862
			c6.055,0.351,12.092,0.921,18.103,1.757c1.01,0.14,1.466-1.392,0.43-1.56c-6.176-1.001-12.373-1.518-18.609-1.787
			c-0.123-2.615-0.268-5.254-0.377-7.856c-0.013-0.32-0.101-0.587-0.227-0.82c26.614-0.177,53.228-0.471,79.825-0.607
			c0.811-0.004,1.347-0.41,1.669-0.949c1.888,0.255,3.803,0.512,5.694,0.565C191.679,155.639,190.179,187.278,188.718,219.041z
			 M218.915,187.778c-0.162,0.846-0.324,1.691-0.487,2.537c-0.027,0.141,0.006,0.251,0.004,0.379
			c-4.461,4.773-8.484,9.961-13.161,14.569c-2.492,2.454-5.045,4.847-7.686,7.141c-1.543,1.34-3.939,3.991-6.267,5.778
			c3.661-32.011,4.217-64.324,3.67-96.513c-0.018-1.053-0.752-1.622-1.56-1.744c8.729-8.933,18.263-18.342,25.848-28.426
			c-0.762,16.119-0.855,32.239-0.899,48.376c-0.021,7.834-0.029,15.668-0.029,23.503c-0.001,3.917,0.001,7.834,0.002,11.751
			c-1.297,4.578-0.475,8.54,2.408,11.903C220.07,186.705,219.08,186.92,218.915,187.778z"/>
		<path d="M112.978,43.521c-0.169-1.949-2.854-3.041-3.93-1.064c-5.034,9.245-9.849,18.646-14.287,28.214
			c-1.017,0.193-1.269,1.238-0.956,2.068c-2.389,5.239-4.692,10.514-6.771,15.878c-0.522,1.347,1.718,2.297,2.345,0.988
			c2.543-5.31,5.118-10.584,7.735-15.834c4.544-0.019,8.923,0.246,13.445,1.155c0.67,0.135,1.24-0.026,1.679-0.347
			c0.678,4.607,1.403,9.207,2.219,13.794c-0.134,0.313-0.197,0.665-0.099,1.056c0.312,1.243,0.624,2.486,0.936,3.729
			c0.695,2.766,4.751,1.576,4.23-1.166C116.469,75.935,114.391,59.802,112.978,43.521z M98.888,70.202
			c3.356-6.639,6.818-13.22,10.474-19.719c0.601,6.801,1.391,13.579,2.326,20.337C107.469,70.173,103.156,69.911,98.888,70.202z"/>
		<path d="M50.107,170.81c10.392-3.622,15.321-19.529,2.538-25.11c-26.999-11.787-16.862,41.387-14.502,51.772
			c0.175,0.773,0.738,1.053,1.311,1.012c6.766,10.385,23.742,3.844,26.071-7.18C67.876,180.171,59.53,173.66,50.107,170.81z
			 M47.333,148.893c9.887,4.55,11.202,10.23,3.946,17.04c-3.35,1.663-6.733,1.868-10.15,0.616c-1.546-0.363-2.804,1.268-2.478,2.535
			c-0.065,0.002-0.113,0.025-0.173,0.034c-0.039-0.955-0.093-1.907-0.125-2.865C38.157,160.338,36.849,148.756,47.333,148.893z
			 M52.928,198.883c-4.844,1.048-8.131-1.484-11.957-3.923c-0.104-0.066-0.206-0.089-0.31-0.13
			c-1.052-7.659-1.695-15.321-2.067-23.027c0.036,0.004,0.061,0.023,0.099,0.025c9.27,0.519,21.798,3.923,22.855,15.092
			C62.072,192.453,58.419,197.694,52.928,198.883z"/>
		<path d="M169.64,185.559c-5.657,3.329-9.777,7.293-16.749,7.881c-7.117,0.6-13.71-2.46-16.876-9.022
			c-7.09-14.691,6.486-27.58,20.67-28.091c2.19-0.079,2.19-3.31,0-3.402c-17.509-0.737-32.936,15.896-24.859,33.267
			c6.811,14.648,32.007,16.331,40.193,1.746C172.86,186.436,171.16,184.664,169.64,185.559z"/>
	</g>
	<path d="M23.277,185.38c-4.636,0.37-9.261,0.833-13.889,1.296c-0.505,0.05-0.517,0.841,0,0.799c4.634-0.37,9.264-0.74,13.889-1.203
		C23.84,186.216,23.854,185.334,23.277,185.38z"/>
	<path d="M39.671,113.163c-4.575,0.616-9.154,0.834-13.766,0.673c-0.53-0.018-0.522,0.784,0,0.818
		c4.701,0.309,9.347,0.087,13.999-0.649C40.462,113.917,40.217,113.09,39.671,113.163z"/>
	<path d="M86.062,48.84c-5.065-0.313-10.13-0.535-15.204-0.647c-0.796-0.018-0.782,1.176,0,1.227
		c5.065,0.331,10.131,0.553,15.204,0.684C86.881,50.126,86.869,48.89,86.062,48.84z"/>
	<path d="M123.744,194.923c-5.298-0.097-10.584-0.257-15.861-0.764c-0.885-0.085-0.869,1.281,0,1.376
		c5.277,0.579,10.552,0.903,15.861,0.689C124.579,196.191,124.586,194.939,123.744,194.923z"/>
</g>
<g>
</g>
<g>
</g>
<g>
</g>
<g>
</g>
<g>
</g>
<g>
</g>
<g>
</g>
<g>
</g>
<g>
</g>
<g>
</g>
<g>
</g>
<g>
</g>
<g>
</g>
<g>
</g>
<g>
</g>
</svg>
