<?xml version="1.0" encoding="iso-8859-1"?>
<!-- Generator: Adobe Illustrator 18.0.0, SVG Export Plug-In . SVG Version: 6.00 Build 0)  -->
<!DOCTYPE svg PUBLIC "-//W3C//DTD SVG 1.1//EN" "http://www.w3.org/Graphics/SVG/1.1/DTD/svg11.dtd">
<svg version="1.1" id="Capa_1" xmlns="http://www.w3.org/2000/svg" xmlns:xlink="http://www.w3.org/1999/xlink" x="0px" y="0px"
	 viewBox="0 0 196.491 196.491" style="enable-background:new 0 0 196.491 196.491;" xml:space="preserve">
<g>
	<path d="M194.04,47.612c1.228-0.419,1.524-2.362,0.023-2.691c-4.633-1.017-9.767-0.844-14.518-1.021
		c0.068-1.585,0.112-3.163,0.191-4.752c0.04-0.803-0.531-1.164-1.128-1.138c-0.008-0.024-0.002-0.042-0.011-0.066
		c-3.393-8.734-21.189-10.583-28.875-11.626c-16.999-2.307-33.587,0.368-49.053,7.485c-0.125-0.101-0.263-0.187-0.421-0.22
		c-0.073-0.399-0.305-0.778-0.787-0.95c-2.176-0.776-4.742-0.433-7.031-0.35c-2.214,0.081-4.425,0.235-6.637,0.363
		c-0.17-0.207-0.408-0.334-0.659-0.417c-0.144-0.171-0.32-0.323-0.563-0.423c-18.625-7.633-53.28-10.159-68.488,6.456
		c-0.225,0.246-0.382,0.634-0.256,0.969c0.378,1.002,0.429,1.23,1.058,1.472c-0.017,1.729-0.053,3.462-0.074,5.192
		c-4.38,0.027-9.275-0.301-13.209,1.201c-0.774,0.296-1.164,1.404-0.751,2.051c-4.216,39.463-3.122,79.943-0.771,119.491
		c0.04,0.682,0.479,1.094,0.993,1.249c-0.043,0.534,0.251,1.13,0.878,1.089c29.173-1.921,58.483-4.076,87.579-6.928
		c3.209,3.549,7.519,6.145,12.52,5.62c4.444-0.466,9.151-3.848,9.689-8.455c0.126,0.175,0.311,0.31,0.591,0.33
		c26.371,1.885,52.941,0.821,79.315-0.546c0.872-0.045,1.329-0.692,1.409-1.372c0.6,0.184,1.326-0.069,1.339-0.901
		C196.946,121.753,195.047,84.576,194.04,47.612z M101.006,35.47c11.615-4.263,23.465-6.981,35.96-6.92
		c7.278,0.035,34.959,1.565,38.564,10.24c0.324,0.781,1.052,1.073,1.732,1.03c-4.258,33.861-4.893,70.925,0.941,104.725
		c-9.658-5.499-20.42-7.761-31.434-7.913c5.632-4.456,8.723-11.812,6.557-19.547c0.348-0.473,0.113-1.277-0.612-1.287
		c-4.308-0.061-8.971-0.627-13.242-0.132c-0.645,0.075-1.065,0.554-1.23,1.08c-0.49-0.54-1.482-0.036-1.297,0.737
		c0.531,2.214-0.127,4.581-1.947,6.025c-1.73,1.373-3.65,1.055-5.692,0.934c-0.13-0.008-0.236,0.067-0.352,0.11
		c-6.946-6.605-7.458-28.731,2.736-29.774c3.719,2.084,6.062,6.309,4.848,10.616c-0.317,1.124,0.669,1.826,1.563,1.742
		c0.014,0.731,0.519,1.51,1.372,1.535c4.621,0.134,9.581-0.482,14.075-1.537c0.639-0.15,0.658-0.79,0.34-1.19
		c0.006-0.052,0.052-0.069,0.052-0.126c-0.039-13.425-3.757-30.188-20.463-29.587c-3.311,0.119-6.283,0.945-8.935,2.285
		c1.572-7.098-0.189-15.138-5.884-19.974c-5.052-4.289-12.299-5.027-17.89-1.673C101.1,49.747,101.285,42.593,101.006,35.47z
		 M124.657,138.758c-6.847,1.302-13.55,3.091-19.911,5.095c-0.501-12.633-2.056-25.229-2.675-37.862
		c2.288-0.42,4.582-1.134,6.761-2.084c-0.22,1.534-0.376,3.061-0.427,4.554C107.992,120.52,113.731,133.641,124.657,138.758z
		 M120.407,131.999c-8.278-7.38-9.973-19.659-7.835-30.065c2.035-9.908,10.122-24.388,22.573-22.5
		c13.882,2.104,15.555,14.695,16.405,26.05c-4.04-0.299-8.26-0.203-12.224,0.389c1.299-4.921-1.319-10.51-5.919-12.415
		c-0.004-0.628-0.431-1.279-1.256-1.382c-9.831-1.235-10.9,10.944-10.753,17.938c0.132,6.251,0.892,14.961,7.718,16.757
		c2.517,1.441,5.902,0.672,7.998-1.293c2.048-1.921,2.476-4.798,1.68-7.368c0.115,0.069,0.161,0.18,0.315,0.221
		c3.557,0.949,7.676,0.518,11.386-0.338C153.634,136.408,132.302,142.603,120.407,131.999z M92.427,35.297
		c2.144,0.076,4.458,0.346,6.536-0.234c-0.851,7.69-1.136,15.459-1.289,23.19c-0.024,1.227,1.134,1.677,2.027,1.365
		c0.207,0.039,0.433,0.04,0.683-0.112c5.36-3.248,12.624-2.454,17.125,1.99c4.708,4.648,5.305,11.497,4.023,17.64
		c-0.09,0.432,0,0.8,0.191,1.087c-6.707,4.759-10.881,13.112-12.522,21.513c-10.633,2.389-20.983-1.28-22.044-13.563
		c-0.469-5.428-0.485-10.942-0.652-16.384c-0.377-12.277-0.47-24.555-0.394-36.838C88.217,35.076,90.32,35.223,92.427,35.297z
		 M100.436,106.246c-0.319,3.367-0.438,6.807-0.407,10.286c-0.884-3.425-1.852-6.827-2.991-10.174
		C98.15,106.435,99.289,106.374,100.436,106.246z M52.847,29.319c10.527-0.435,20.406,1.655,30.325,4.931
		c-0.098,11.783-0.017,23.563,0.295,35.342c-1.558-0.201-3.16-0.021-4.734-0.046c-2.017-0.033-4.015-0.223-6.021-0.419
		c-0.315-0.031-0.525,0.111-0.678,0.308c-0.302,0.043-0.59,0.182-0.679,0.52c-5.473,20.702-9.499,42.082-12.872,63.229
		c-0.229,1.437,1.465,2.206,2.303,1.435c4.277,1.531,9.914,1.848,13.845,0.081c0.449-0.202,0.56-0.578,0.539-0.961
		c0.377,0.06,0.773-0.106,0.859-0.575c0.62-3.402,0.931-6.88,1.299-10.327c2.711,0.348,5.41,0.341,8.126,0.029
		c0.492,2.802,0.985,5.605,1.477,8.408c0.3,1.71,2.884,0.98,2.6-0.717c-0.536-3.19-1.072-6.381-1.607-9.571
		c-0.133-0.793-1.029-1.075-1.703-0.967c-3.369,0.54-6.675,0.477-10.05,0.036c-0.728-0.095-1.285,0.681-1.315,1.315
		c-0.173,3.743-0.483,7.53-0.427,11.279c-0.131-0.062-0.247-0.158-0.397-0.166c-2.433-0.117-4.883,0.454-7.338,0.421
		c-1.743-0.024-3.466-0.215-5.191-0.385c4.614-20.235,8.691-40.873,11.333-61.456c3.138,0.825,7.435,1.726,10.675,0.965
		c0.196,7.921-1.244,20.025,2.817,27.431c2.121,3.868,5.149,5.871,8.553,6.613c2.047,8.376,3.936,16.738,5.425,25.231
		c-3.636-0.937-7.86-0.572-11.325,0.727c-0.744,0.279-0.708,1.521,0.2,1.479c3.896-0.18,7.466,0.195,11.328,0.626
		c0.243,0.027,0.442-0.022,0.62-0.101c0.347,3.376,0.737,6.692,1.12,9.96c-27.25-11.86-59.543-10.437-84.915,5.548
		c3.252-29.279,3.853-59.729,2.905-89.493c0.165-0.234,0.168-0.551-0.031-0.807c-0.131-3.995-0.285-7.98-0.468-11.945
		c0.303-0.341,0.279-0.919-0.058-1.242c-0.09-1.885-0.162-3.783-0.263-5.66c-0.046-0.849-0.736-1.246-1.384-1.205
		C20.784,35.645,52.015,29.353,52.847,29.319z M16.779,48.049c-0.041,3.264-0.104,6.532-0.154,9.798
		c-3.918-1.154-7.963-1.537-12.095-1.273c0.027-2.306,0.049-4.606,0.082-6.919C8.536,49.97,12.812,48.888,16.779,48.049z
		 M4.021,144.12c0.302,0.207,0.693,0.311,1.13,0.09c0.156-0.079,0.287-0.293,0.269-0.47c-0.007-0.068-0.014-0.137-0.02-0.206
		c-0.002-0.018-0.018-0.024-0.021-0.042c2.415-0.032,8.478,0.028,9.138,0.015c0.791-0.015,0.789-1.198,0-1.227
		c-2.197-0.082-4.391-0.111-6.589-0.115c-1.064-0.002-3.023-0.402-3.934,0.398c-0.066-3.25-0.06-6.495-0.097-9.743
		c2.22,0.015,4.441,0.032,6.658-0.056c0.61-0.024,0.611-0.924,0-0.948c-2.221-0.088-4.445-0.072-6.669-0.057
		c-0.029-2.773-0.014-5.544-0.025-8.315c3.1,0.335,6.216,0.767,9.329,0.845c0.53,0.013,0.677-0.874,0.128-0.95
		c-3.126-0.431-6.307-0.518-9.46-0.692c-0.013-3.762,0.054-7.524,0.066-11.286c2.644-0.311,5.272-0.322,7.946-0.261
		c0.624,0.014,0.791-1,0.151-1.114c-2.699-0.48-5.405-0.335-8.089,0.094c0.012-3.259,0.06-6.522,0.084-9.782
		c2.387,0.275,4.801,0.676,7.204,0.722c0.552,0.01,0.701-0.882,0.133-0.986c-2.407-0.44-4.892-0.534-7.328-0.742
		c0.056-7.344,0.174-14.715,0.261-22.067c2.532,0.083,5.059,0.201,7.591,0.082c0.705-0.033,0.707-1.064,0-1.097
		c-2.529-0.119-5.051-0.001-7.58,0.082c0.033-2.734,0.067-5.473,0.097-8.207c3.147,0.31,6.311,0.679,9.468,0.742
		c0.903,0.018,0.861-1.283,0-1.376c-3.13-0.337-6.304-0.373-9.455-0.465c0.033-3.037,0.073-6.081,0.108-9.12
		c4.147-0.198,8.15,0.332,12.087,1.448c-0.476,30.475-1.245,61.012-1.139,91.437c0.002,0.476,0.297,0.697,0.631,0.771
		c0.068,0.207,0.186,0.392,0.331,0.553c-4.087-0.075-8.177-0.101-12.269-0.096C4.076,149.358,4.079,146.742,4.021,144.12z
		 M193.644,158.005c-26.436,1.336-52.872,1.104-79.315,1.959c-0.225,0.007-0.378,0.104-0.503,0.22
		c-0.001-0.048,0.014-0.091,0.012-0.139c-0.066-1.571-2.261-1.893-2.739-0.371c-3.027,9.632-12.123,7.424-18.191,2.463
		c-0.121-0.261-0.337-0.465-0.654-0.558c-0.269-0.238-0.541-0.473-0.795-0.721c-0.649-0.631-1.708-0.018-1.665,0.747
		c-28.332,0.986-56.925,3.621-85.013,7.375c0.021-0.111,0.058-0.211,0.051-0.342c-0.274-5.227-0.484-10.446-0.65-15.661
		c17.337,0.638,34.664,1.493,51.988,2.404c0.784,0.041,0.765-1.14,0-1.209c-12.533-1.119-25.075-1.764-37.638-2.037
		c27.335-14.262,55.218-16.636,84.195-5.327c0.395,0.154,0.746,0.038,1.018-0.191c0.546-0.006,1.03-0.362,1.056-1.066
		c10.532-1.811,20.524-3.73,30.357-4.608c0.454-0.017,0.895-0.081,1.34-0.128c13.859-1.101,27.449,0.013,41.876,6.672
		c1.359,0.627,2.496-1.094,1.426-2c-0.676-33.398-1.666-66.005-0.345-99.349c3.809,0.568,7.81,1.358,11.699,1.557
		c0.814,36.739,0.768,73.727,3.102,110.401C194.079,158.031,193.877,157.993,193.644,158.005z"/>
	<path d="M104.915,65.667c-0.177-0.19-0.406-0.328-0.693-0.254c-5.765,1.493-6.458,7.674-6.489,12.775
		c-0.032,5.316-0.221,15.484,7.343,15.425c0.472-0.004,0.754-0.293,0.931-0.639c0.837-0.017,1.691-0.249,2.464-0.835
		c2.633-1.994,2.555-6.39,2.704-9.321C111.396,78.448,112.524,64.597,104.915,65.667z M108.39,80.224
		c-0.004,1.376-0.039,11.008-3.182,11.048c-6.4-1.977-6.912-18.796-1.766-23.549c0.282,0.478,0.81,0.826,1.506,0.713
		C108.742,67.815,108.395,78.321,108.39,80.224z"/>
	<path d="M88.016,109.664c-2.807-6.164-5.296-12.395-7.307-18.865c-0.359-1.157-2.428-1.421-2.62,0
		c-0.886,6.552-1.607,13.124-2.333,19.695c-0.053,0.479,0.298,0.762,0.701,0.875c0.092,0.382,0.345,0.728,0.868,0.754
		c3.072,0.154,6.18,0.397,9.255,0.335c0.852-0.017,1.276-0.672,1.274-1.326C88.141,110.739,88.268,110.218,88.016,109.664z
		 M85.081,109.845c-2.435,0.021-4.879,0.155-7.306,0.283c0.734-4.427,1.448-8.857,2.127-13.292
		C81.42,101.253,83.103,105.611,85.081,109.845z"/>
	<path d="M44.931,162.076c-13.211-0.553-26.451-0.824-39.673-0.88c-0.745-0.003-0.739,1.12,0,1.153
		c13.211,0.586,26.45,0.958,39.673,1.047C45.783,163.401,45.777,162.111,44.931,162.076z"/>
	<path d="M14.515,85.211c-3.078,0.175-6.063,0.235-9.118-0.278c-0.8-0.134-1.159,1.062-0.341,1.237
		c3.183,0.682,6.422,0.98,9.656,0.502C15.54,86.549,15.346,85.163,14.515,85.211z"/>
</g>
<g>
</g>
<g>
</g>
<g>
</g>
<g>
</g>
<g>
</g>
<g>
</g>
<g>
</g>
<g>
</g>
<g>
</g>
<g>
</g>
<g>
</g>
<g>
</g>
<g>
</g>
<g>
</g>
<g>
</g>
</svg>
