<?xml version="1.0" encoding="iso-8859-1"?>
<!-- Generator: Adobe Illustrator 18.0.0, SVG Export Plug-In . SVG Version: 6.00 Build 0)  -->
<!DOCTYPE svg PUBLIC "-//W3C//DTD SVG 1.1//EN" "http://www.w3.org/Graphics/SVG/1.1/DTD/svg11.dtd">
<svg version="1.1" id="Capa_1" xmlns="http://www.w3.org/2000/svg" xmlns:xlink="http://www.w3.org/1999/xlink" x="0px" y="0px"
	 viewBox="0 0 192.55 192.55" style="enable-background:new 0 0 192.55 192.55;" xml:space="preserve">
<g>
	<path d="M147.098,153.765c0.395-0.412,0.784-0.835,1.145-1.321c3.337-4.491,4.796-10.242,4.438-15.793
		c-0.845-13.107-12.018-22.54-24.923-22.546c-13.6-0.006-22.911,9.546-21.265,23.07c0.945,7.763,5.207,15.588,11.591,19.618
		c-2.564,8.669-5.482,17.792-6.747,26.743c-0.161,1.139,1.011,1.683,1.733,1.128c0.221,0.145,0.483,0.21,0.782,0.007
		c3.442-2.339,6.479-5.091,9.221-8.201c1.554,2.427,3.115,4.848,4.689,7.262c0.503,0.771,1.497,0.514,1.849-0.082
		c0.543,0.081,1.146-0.154,1.297-0.778c1.351-5.559,2.277-11.456,2.923-17.293c1.477,6.305,3.418,12.697,6.259,18.257
		c0.246,0.483,0.751,0.556,1.161,0.385c-0.539,1.091,1.073,2.049,1.654,0.959c1.614-3.028,3.228-6.055,4.842-9.083
		c2.887,1.397,5.822,2.966,8.873,3.854c0.715,0.208,1.162-0.387,1.147-0.978c0.65,0.162,1.449-0.279,1.137-1.067
		C155.639,169.65,150.8,161.878,147.098,153.765z M128.811,181.516c-1.569-2.382-3.14-4.762-4.729-7.131
		c-0.318-0.474-1.129-0.731-1.554-0.2c-2.485,3.107-5.329,5.796-8.486,8.187c2.556-7.947,4.06-16.548,5.596-24.723
		c3.504,1.78,7.551,2.463,11.992,1.458c0.267-0.029,0.532-0.058,0.798-0.087c0.099,0.506,0.224,1.032,0.327,1.543
		C131.004,167.388,129.563,174.56,128.811,181.516z M130.96,157.419c-11.433,0.251-19.626-7.002-22.016-18.253
		c-3.009-14.164,8.225-24.263,22.046-22.291c10.759,1.535,19.115,9.792,19.463,20.914c0.161,5.133-1.402,11.201-5.193,14.87
		C141.528,156.273,135.875,156.487,130.96,157.419z M147.827,173.731c-0.51-0.224-1.197-0.181-1.485,0.389
		c-1.504,2.982-3.008,5.964-4.512,8.945c-2.249-7.892-5.183-15.564-7.433-23.482c0.021-0.264,0.05-0.534,0.07-0.798
		c4.203-0.505,8.225-1.319,11.428-3.926c3.032,7.724,6.16,16.122,10.838,22.967C153.955,176.179,150.772,175.026,147.827,173.731z"
		/>
	<path d="M127.228,120.697c-22.263,3.68-12.067,38.649,6.476,32.91c0.168,0.088,0.358,0.142,0.564,0.101
		C154.728,149.585,147.814,117.294,127.228,120.697z M134.535,151.66c-9.265,2.089-16.287-4.634-17.82-13.479
		c-1.504-8.673,4.478-15.611,13.433-15.572c7.883,0.034,14.595,6.718,14.794,14.61C145.122,144.317,140.31,148.822,134.535,151.66z"
		/>
	<path d="M169.915,4.103c-0.026-0.5-0.404-0.751-0.784-0.758c0.159-0.072,0.333-0.126,0.489-0.202c0.997-0.484,0.809-1.876,0-2.406
		c-0.282-0.185-0.564-0.37-0.845-0.554c-0.577-0.378-1.529-0.146-1.839,0.482c-0.105,0.212-0.21,0.424-0.314,0.636
		c-0.236,0.479-0.107,0.984,0.173,1.363c-3.165-0.135-6.413,0.11-9.623,0.311c-8.494-0.443-18.967-1.324-21.113-1.331
		c-7.613-0.025-15.227-0.059-22.84-0.092c-17.763-0.076-35.538-0.31-53.294,0.272c-0.245,0.008-0.419,0.112-0.551,0.245
		c-0.555-0.234-1.238-0.157-1.648,0.508c-5.177,8.396-10.491,16.678-16.224,24.709c-3.298,4.62-6.703,9.159-10.217,13.617
		c-1.669,2.118-8.254,8.906-7.961,10.095c-0.087-0.351-0.674-0.478-0.833-0.109c-0.203,0.474-0.291,0.663-0.31,1.159
		c-0.004,0.092,0.047,0.16,0.063,0.244c-0.346,0.057-0.658,0.278-0.651,0.747c0.065,4.242,0.154,8.482,0.229,12.723
		c-0.14,0.018-0.28,0.029-0.42,0.048c-0.441,0.059-0.342,0.838,0.106,0.785c0.109-0.013,0.219-0.019,0.328-0.032
		c0.303,16.933,0.653,33.862,0.975,50.789c-0.561,0.039-0.56,0.899,0.018,0.915c0.059,3.143,0.13,6.285,0.184,9.428
		c-0.001,0.02,0,0.036,0.001,0.056c0.332,19.155,0.569,38.312,0.449,57.485c-0.003,0.475,0.195,0.816,0.481,1.039
		c0.044,0.12,0.042,0.25,0.146,0.352c3.948,3.876,7.8,2.997,13.463,3.486c13.795,1.193,27.791,1.28,41.622,1.677
		c28.994,0.832,58.115,1.225,87.098-0.109c0.063-0.003,0.108-0.031,0.166-0.041c0.839,0.738,2.57,0.372,2.604-1.102
		C170.462,128.622,173.123,65.983,169.915,4.103z M40.928,32.963c6.906-9.311,13.304-19.001,19.126-29.026
		c0.089-0.154,0.126-0.304,0.154-0.451c0.423,0.017,0.847,0.021,1.271,0.038c-0.471,0.2-0.859,0.607-0.907,1.251
		c-1.193,15.728-2.254,31.598-1.868,47.381c-5.428,0.09-10.856,0.14-16.285,0.135c-2.785-0.003-5.569-0.032-8.354-0.05
		c-3.342-0.021-6.729,0.728-9.925,0.79C30.846,49.069,36.285,39.223,40.928,32.963z M166.024,189.228
		c-22.646,0.19-45.265,0.721-67.915,0.377c-10.098-0.154-20.197-0.395-30.288-0.788c-9.276-0.361-32.872,1.812-41.643-3.221
		c0.031-0.117,0.075-0.224,0.076-0.362c0.013-1.839,0.019-3.679,0.03-5.519c7.444,0.331,14.884,0.541,22.336,0.62
		c0.505,0.006,0.5-0.758,0-0.781c-7.443-0.345-14.882-0.562-22.332-0.656c0.018-3.049,0.026-6.101,0.037-9.152
		c8.285,0.487,16.646,0.276,24.939,0.123c0.646-0.012,0.647-0.992,0-1.004c-8.291-0.153-16.653-0.363-24.936,0.123
		c0.026-7.212,0.002-14.43-0.024-21.646c5.485,0.353,10.918,0.29,16.38-0.424c0.718-0.094,0.747-1.227,0-1.153
		c-5.45,0.543-10.908,0.797-16.381,0.622c-0.01-2.515-0.052-5.03-0.07-7.544c8.358,0.261,16.704,0.186,25.031-0.688
		c0.652-0.068,0.681-1.074,0-1.041c-8.349,0.398-16.684,0.736-25.041,0.67c-0.024-3.176-0.083-6.351-0.122-9.526
		c5.742,0.064,11.496,0.186,17.23-0.056c0.622-0.026,0.623-0.941,0-0.967c-5.739-0.242-11.497-0.12-17.244-0.055
		c-0.038-2.961-0.105-5.921-0.156-8.881c6.021,0.07,12.04,0.138,18.061,0.024c0.67-0.013,0.671-1.028,0-1.041
		c-6.027-0.113-12.052-0.046-18.079,0.025c-0.049-2.733-0.123-5.465-0.184-8.197c12.377,0.197,24.64-0.315,36.914-2.054
		c0.596-0.084,0.462-1.114-0.143-1.059c-12.243,1.112-24.501,1.933-36.795,2.018c-0.079-3.404-0.23-6.803-0.331-10.206
		c5.347,1.058,10.769,1.022,16.14,0.105c0.783-0.134,0.442-1.296-0.326-1.183c-5.325,0.782-10.523,0.711-15.845,0.106
		c-0.103-3.385-0.256-6.768-0.379-10.152c10.122,0.233,20.205-0.147,30.269-1.322c0.772-0.09,0.789-1.309,0-1.227
		c-10.091,1.053-20.174,1.536-30.313,1.351c-0.239-6.383-0.533-12.762-0.873-19.138c9.271-0.954,18.557-1.224,27.88-0.844
		c0.73,0.03,0.728-1.102,0-1.134c-9.367-0.418-18.642,0.025-27.93,1.143c-0.212-3.909-0.421-7.819-0.699-11.724
		c3.932,2.116,10.676,1.137,14.945,1.26c7.426,0.214,14.851,0.187,22.278,0.066c1.839-0.03,1.895-2.76,0.194-2.939
		c0.37-5.317,0.664-10.639,0.945-15.961c0.06,0.03,0.102,0.079,0.184,0.081c9.474,0.125,18.952,0.365,28.426,0.167
		c0.813-0.017,0.815-1.247,0-1.264c-9.474-0.197-18.953,0.042-28.426,0.167c-0.063,0.001-0.093,0.043-0.143,0.063
		c0.158-3.012,0.318-6.025,0.476-9.038c5.398,0.039,10.798,0.111,16.194-0.03c0.574-0.015,0.575-0.877,0-0.892
		c-5.379-0.14-10.763-0.069-16.144-0.03c0.155-2.948,0.37-5.894,0.542-8.842c6.307-0.361,12.591-0.213,18.905,0.111
		c0.891,0.046,0.843-1.254,0-1.357c-6.264-0.769-12.535-0.71-18.814-0.24c0.206-3.445,0.372-6.892,0.633-10.335
		c0.046-0.609-0.245-0.998-0.645-1.21c20.581,0.76,41.202,0.6,61.793,0.695c9.764,0.045,24.19,2.575,35.605,1.248
		c2.607,0.282,5.236,0.313,7.727-0.16c0.162-0.031,0.215-0.15,0.334-0.218C166.17,66.42,167.688,127.893,166.024,189.228z"/>
	<path d="M55.231,157.442c-9.25-0.058-18.518-0.197-27.765,0.074c-0.789,0.023-0.791,1.204,0,1.227
		c9.248,0.271,18.515,0.132,27.765,0.074C56.116,158.812,56.118,157.448,55.231,157.442z"/>
	<path d="M42.669,75.58c-5.754,0.248-11.462,0.211-17.193-0.39c-0.402-0.042-0.501,0.656-0.096,0.712
		c5.743,0.792,11.498,1.15,17.29,0.775C43.368,76.631,43.379,75.549,42.669,75.58z"/>
	<path d="M76.26,45.29c-4.339,0.83-8.677,1.349-13.096,1.426c-0.454,0.008-0.456,0.704,0,0.707c4.49,0.026,8.944-0.336,13.348-1.218
		C77.111,46.084,76.856,45.175,76.26,45.29z"/>
</g>
<g>
</g>
<g>
</g>
<g>
</g>
<g>
</g>
<g>
</g>
<g>
</g>
<g>
</g>
<g>
</g>
<g>
</g>
<g>
</g>
<g>
</g>
<g>
</g>
<g>
</g>
<g>
</g>
<g>
</g>
</svg>
