<?xml version="1.0" encoding="iso-8859-1"?>
<!-- Generator: Adobe Illustrator 18.0.0, SVG Export Plug-In . SVG Version: 6.00 Build 0)  -->
<!DOCTYPE svg PUBLIC "-//W3C//DTD SVG 1.1//EN" "http://www.w3.org/Graphics/SVG/1.1/DTD/svg11.dtd">
<svg version="1.1" id="Capa_1" xmlns="http://www.w3.org/2000/svg" xmlns:xlink="http://www.w3.org/1999/xlink" x="0px" y="0px"
	 viewBox="0 0 186.072 186.072" style="enable-background:new 0 0 186.072 186.072;" xml:space="preserve">
<g>
	<path d="M177.116,141.848c-1.577-2.268-6.445-8.336-9.703-6.575c-2.189-26.452-4.245-59.151-20.253-80.037
		c-7.649-9.979-18.267-17.041-29.963-21.294c1.794-1.533,2.905-4.081,2.61-6.372c-0.435-3.365-3.086-5.447-6.119-5.939
		c1.683-3.394,2.128-7.864-1.622-9.963c-1.114-0.624-2.316-0.832-3.436-0.685c1.455-4-1.525-9.321-6.028-10.461
		c-4.943-1.252-11.428,1.261-13.726,5.833C86.8,2.033,82.07-0.884,77.045,0.244c-5.941,1.334-8.89,8.569-4.679,13.166
		c-9.932,0.91-12.107,15.419-2.935,18.816c-15.774,4.54-29.941,14.034-40.087,27.332c-14.532,19.048-17.348,42.198-16.218,65.276
		c-0.139,0.001-0.279-0.004-0.418-0.003c-0.711,0.008-0.7,1.052,0,1.097c0.16,0.01,0.319,0.012,0.479,0.022
		c0.042,0.771,0.076,1.543,0.126,2.313c-3.923,1.097-5.937,4.243-7.147,8.057c-1.993,6.282-2.929,14.408-2.658,20.935
		c0.021,0.503,0.435,0.815,0.861,0.867c14.548,22.517,58.338,26.156,82.373,27.519c29.274,1.659,70.82-0.707,94.277-20.814
		c0.504,0.168,1.105,0.035,1.209-0.593c0.033-0.202,0.041-0.403,0.07-0.606c0.218-0.368,0.244-0.749,0.129-1.105
		C183.225,155.174,181.394,147.999,177.116,141.848z M66.073,22.513c0.546-3.897,3.908-6.339,7.594-6.981
		c0.969-0.169,0.998-1.349,0.413-1.909c0.177-0.247,0.261-0.545,0.028-0.861c-3.101-4.205-0.143-9.848,5.088-9.814
		c4.988,0.033,7.382,4.425,8.58,8.615c0.349,1.221,2.19,0.978,2.209-0.299c0.01-0.674-0.089-1.327-0.2-1.976
		c1.225-4.102,5.828-6.67,10.096-6.462c4.503,0.219,9.272,6.015,4.393,9.519c-0.987,0.709-0.504,2.03,0.435,2.176
		c0.143,0.424,0.818,0.623,1.062,0.135c0.172-0.344,0.392-0.606,0.631-0.83c0.161-0.114,0.305-0.235,0.449-0.357
		c1.336-0.793,3.204-0.3,4.283,0.673c2.432,2.192,0.778,5.763-0.853,7.83c-0.894,1.134-0.06,2.531,1.356,2.329
		c3.617-0.516,6.26,2.755,4.572,5.964c-0.64,1.215-1.695,1.77-2.807,2.359c-7.347-2.236-15.03-3.415-22.649-3.42
		c-6.431-0.004-12.771,0.827-18.899,2.378c-0.06-0.071-0.082-0.157-0.188-0.207C68.328,29.77,65.524,26.439,66.073,22.513z
		 M26.103,170.936c0.135-0.09,0.24-0.225,0.244-0.439c0.08-4.187,0.102-8.373,0.028-12.561c-0.014-0.777-1.195-0.779-1.208,0
		c-0.074,4.188-0.052,8.373,0.028,12.561c0,0.031,0.027,0.042,0.031,0.071c-3.123-1.38-6.098-2.901-8.841-4.606
		c0.517-6.626,0.818-13.281,0.627-19.927c-0.022-0.753-1.086-0.729-1.153,0c-0.588,6.369-0.712,12.773-0.636,19.166
		c-3.756-2.461-7.119-5.222-9.819-8.414c1.332-7.62,0.072-22.673,8.037-26.704c0.136,1.854,0.299,3.703,0.471,5.55
		c-0.18,0.009-0.361,0.008-0.541,0.018c-0.401,0.021-0.388,0.573,0,0.614c0.199,0.021,0.399,0.032,0.599,0.053
		c0.018,0.185,0.029,0.372,0.047,0.557c0.053,0.536,0.874,0.56,0.855,0c-0.005-0.159-0.009-0.319-0.014-0.479
		c16.407,1.646,32.98,2.139,49.416,3.618c0.974,0.088,0.945-1.395,0-1.506c-16.253-1.909-33.04-3.616-49.439-2.905
		c-0.098-3.189-0.162-6.387-0.178-9.584c7.716,0.448,15.446,0.66,23.174,0.72c0.901,0.007,0.893-1.354,0-1.395
		c-7.718-0.346-15.447-0.542-23.174-0.501c-0.003-3.285,0.088-6.563,0.231-9.835c0.047,0.209,0.183,0.395,0.468,0.392
		c6.614-0.081,13.227-0.242,19.833-0.565c0.784-0.038,0.795-1.24,0-1.227c-6.615,0.109-13.226,0.381-19.833,0.733
		c-0.263,0.014-0.394,0.189-0.454,0.384c0.184-4.041,0.5-8.064,0.999-12.051c0.044,0.012,0.064,0.051,0.115,0.054
		c15.614,0.71,31.305,1.029,46.935,0.989c1.043-0.003,1.039-1.581,0-1.618c-15.602-0.543-31.276-0.73-46.886-0.524
		c1.541-11.502,4.635-22.689,10.59-33.097c3.105-5.427,6.983-10.379,11.426-14.773c0.091,0.108,0.228,0.185,0.41,0.196
		c10.584,0.65,21.154,1.311,31.734,2.044c0.731,0.051,0.916-1.189,0.175-1.296c-10.309-1.503-20.918-2.163-31.339-1.886
		c4.113-3.917,8.729-7.29,13.632-10.177c9.025,1.853,18.23,3.32,27.453,3.379c0.964,0.006,0.921-1.373,0-1.469
		c-8.499-0.88-16.944-1.679-25.36-3.114c4.416-2.413,9.073-4.369,13.867-5.852c0.057,0.449,0.337,0.891,0.907,0.948
		c6.58,0.651,13.231,1.597,19.849,1.657c0.926,0.008,1.187-1.494,0.225-1.662c-5.903-1.026-11.954-1.367-17.938-1.822
		c6.213-1.628,12.626-2.434,19.057-2.257c26.492,0.73,52.25,14.494,61.717,40.36c7.914,21.62,10.014,46.619,12.184,69.327
		c0.01,0.104,0.059,0.18,0.083,0.274c-36.426,21.16-83.303,18.006-123.47,5.193c12.3,1.475,24.518,3.316,36.696,5.665
		c0.815,0.157,1.17-1.076,0.346-1.255c-13.895-3.022-27.959-5.052-42.137-6.145c-7.364-2.534-14.502-5.342-21.238-8.408
		c-0.907-0.413-1.703,0.859-0.797,1.365c7.685,4.294,16.392,8.192,25.741,11.501c-1.061,8.201-1.502,16.521-2.044,24.773
		C33.785,173.846,29.817,172.528,26.103,170.936z M179.645,161.708c-3.268,2.742-6.936,5.076-10.811,7.169
		c-0.778-6.38-2.313-13.302-5.323-18.755c-0.648-1.175-2.39-0.359-2.107,0.888c0.803,3.534,2.287,6.924,3.287,10.416
		c0.812,2.833,1.478,5.698,2.173,8.558c-4.548,2.284-9.415,4.185-14.484,5.758c0.25-5.071-0.164-10.335-2.195-14.97
		c-0.463-1.055-1.899-0.243-1.733,0.731c0.85,5.005,1.84,9.78,2,14.814c-4.651,1.354-9.435,2.476-14.298,3.341
		c1.037-5.51,0.954-11.261-0.486-16.662c-0.256-0.959-1.913-0.804-1.79,0.242c0.672,5.706,0.753,11.133,0.17,16.766
		c-15.118,2.485-30.673,2.909-43.902,2.504c-1.7-0.052-3.487-0.125-5.333-0.217c-0.033-6.157,0.201-12.276,0.327-18.428
		c0.018-0.876-1.434-1.121-1.571-0.213c-0.914,6.094-0.928,12.411-0.37,18.545c-5.383-0.301-11.242-0.776-17.34-1.536
		c0.567-6.388,1.083-13.033,0.727-19.43c-0.063-1.129-1.569-1.067-1.711,0c-0.831,6.273-0.841,12.845-0.767,19.186
		c-8.252-1.093-16.808-2.67-24.946-4.981c0.856-8.191,1.827-16.434,2.189-24.664c40.308,13.904,92,16.85,125.19-6.237
		c0.382-0.266,0.564-0.623,0.609-0.988c0.53-0.215,0.921-0.694,0.85-1.465c-0.121-1.321-0.238-2.681-0.353-4.042
		c0.011-0.009,0.024-0.004,0.034-0.013c3.451-2.962,9.74,9.867,10.54,12.055c1.324,3.623,1.943,7.44,2.071,11.28
		C180.071,161.423,179.852,161.534,179.645,161.708z"/>
	<path d="M54.345,156.615c-0.047-1.04-1.571-1.042-1.617,0c-0.238,5.286-0.14,10.58,0.037,15.866c0.033,0.993,1.51,0.994,1.544,0
		C54.485,167.194,54.583,161.901,54.345,156.615z"/>
	<path d="M101.989,162.564c-0.104-1.098-1.606-1.101-1.71,0c-0.497,5.23-0.144,10.623,0.056,15.866c0.039,1.028,1.56,1.03,1.599,0
		C102.133,173.188,102.486,167.795,101.989,162.564z"/>
	<path d="M118.068,163.208c-0.046-0.833-1.413-1.14-1.552-0.21c-0.822,5.511-0.676,11.202-0.855,16.763
		c-0.036,1.094,1.626,1.08,1.692,0C117.686,174.283,118.373,168.693,118.068,163.208z"/>
	<path d="M40.955,88.366c-5.623,1.232-11.325,1.566-17.037,0.856c-0.731-0.091-0.912,1.189-0.176,1.297
		c5.963,0.872,11.726,0.632,17.544-0.952C42.063,89.356,41.735,88.195,40.955,88.366z"/>
	<path d="M43.785,79.059c-6.832-0.775-13.635-0.887-20.498-0.51c-0.736,0.04-0.746,1.175,0,1.153
		c6.845-0.207,13.678,0.076,20.498,0.678C44.638,80.455,44.614,79.153,43.785,79.059z"/>
	<path d="M65.595,65.134c-11.46-0.243-22.92-0.292-34.375-0.777c-1.081-0.046-1.068,1.606,0,1.673
		c11.454,0.722,22.903,1.143,34.375,0.628C66.572,66.615,66.581,65.155,65.595,65.134z"/>
</g>
<g>
</g>
<g>
</g>
<g>
</g>
<g>
</g>
<g>
</g>
<g>
</g>
<g>
</g>
<g>
</g>
<g>
</g>
<g>
</g>
<g>
</g>
<g>
</g>
<g>
</g>
<g>
</g>
<g>
</g>
</svg>
