<?xml version="1.0" encoding="iso-8859-1"?>
<!-- Generator: Adobe Illustrator 18.0.0, SVG Export Plug-In . SVG Version: 6.00 Build 0)  -->
<!DOCTYPE svg PUBLIC "-//W3C//DTD SVG 1.1//EN" "http://www.w3.org/Graphics/SVG/1.1/DTD/svg11.dtd">
<svg version="1.1" id="Capa_1" xmlns="http://www.w3.org/2000/svg" xmlns:xlink="http://www.w3.org/1999/xlink" x="0px" y="0px"
	 viewBox="0 0 210.182 210.182" style="enable-background:new 0 0 210.182 210.182;" xml:space="preserve">
<g>
	<path d="M209.585,64.701c-0.167-0.133-0.335-0.266-0.502-0.399c-0.944-0.75-2.115-0.672-2.82,0.363l-0.206,0.302
		c-5.735-3.323-19.499-8.786-20.842-9.296c-9.723-3.692-19.444-7.391-29.17-11.076c-18.93-7.173-37.676-14.564-57.701-18.026
		c-0.159-0.027-0.294,0.005-0.441,0.009c-0.052-0.006-0.107,0.004-0.161,0.003c-0.132,0.014-0.262,0.025-0.383,0.063
		c-0.108,0.023-0.208,0.008-0.319,0.052C64.857,39.619,32.961,53.634,1.276,67.73c-1.137,0.506-1.171,1.823-0.637,2.772
		c-0.771,0.641-0.988,1.897,0.166,2.479c11.942,6.018,24.052,11.706,36.239,17.221c-0.013,0.108-0.051,0.195-0.045,0.317
		c1.123,22.82,1.643,47.512,6.26,69.912c-0.074,0.463,0.025,0.964,0.429,1.415c16.33,18.263,39.424,20.084,62.651,19.288
		c20.362-0.698,40.881-2.729,53.159-20.772c0.496-0.728,0.441-1.422,0.131-1.99c0.039-0.171,0.096-0.328,0.094-0.532
		c-0.189-21.275,0.153-41.714,3.303-62.79c3.318-1.67,6.611-3.385,9.896-5.113c10.954,19.718,13.038,38.897,12.314,61.359
		c-0.007,0.232,0.033,0.439,0.109,0.623c-9.891,6.636-11.475,21.362-3.207,31.146c0.405,0.48,1.249,0.685,1.836,0.485
		c13.041-4.442,19.623-21.221,11.774-32.987c0.042-0.088,0.1-0.152,0.131-0.254c6.655-22.239,0.294-47.635-15.524-64.408
		c9.607-5.223,19.085-10.637,28.296-16.337c0.921-0.57,1.151-1.46,0.96-2.26C210.258,66.553,210.488,65.418,209.585,64.701z
		 M40.625,91.828c5.225,2.345,10.46,4.666,15.708,6.953c1.261,0.55,2.606,1.181,4.016,1.866c-6.238-0.44-12.483-0.783-18.732-1.042
		C41.283,97.008,40.947,94.388,40.625,91.828z M155.688,157.837c0.01,0.081,0.05,0.138,0.067,0.214
		c-0.024,0.031-0.056,0.043-0.079,0.076c-12.972,18.656-35.967,18.57-56.354,18.761c-15.001,0.14-28.908-1.506-41.158-8.389
		c5.065,0.863,10.253,1.416,15.343,1.214c0.847-0.033,0.827-1.23,0-1.302c-6.028-0.516-12.037-0.828-18.048-1.538
		c-3.045-1.95-5.983-4.248-8.8-6.963c10.695,2.051,21.964,2.494,32.774,3.416c0.781,0.067,0.761-1.126,0-1.209
		c-10.876-1.182-22.113-2.947-33.082-2.946c0.051-2.05,0.034-4.122,0.019-6.194c8.233,1.367,16.867,2.413,25.153,1.523
		c0.772-0.083,0.782-1.134,0-1.209c-8.372-0.792-16.772-0.876-25.149-1.761c-0.038-2.659-0.133-5.335-0.262-8.019
		c8.293-0.287,16.472,0.264,24.749,0.335c0.574,0.005,0.725-0.902,0.138-1.023c-8.065-1.661-16.807-1.346-24.949-0.362
		c-0.179-3.422-0.459-6.863-0.751-10.305c6.056,0.751,12.222,1.079,18.292,0.502c0.752-0.071,0.778-1.161,0-1.19
		c-6.137-0.231-12.259-0.324-18.39-0.656c-0.272-3.08-0.587-6.162-0.92-9.24c10.629,0.103,21.254,0.473,31.879,0.517
		c0.977,0.004,0.932-1.389,0-1.488c-10.583-1.122-21.396-1.056-32.038-0.483c-0.711-6.419-1.516-12.779-2.324-19.085
		c7.212,0.5,14.428,0.919,21.654,1.159c9.524,4.798,21.242,11.184,31.128,13.199c0.037,0.037,0.047,0.092,0.09,0.124
		c2.672,1.945,6.429,3.008,9.571,3.947c0.468,0.14,0.856,0.075,1.159-0.104l1.066,0.115c0.317,0.138,0.675,0.186,1.072,0.036
		c0.04-0.015,0.08-0.032,0.12-0.047c0.095-0.024,0.173-0.063,0.256-0.101c17.31-6.559,34.479-14.067,51.26-22.362
		C155.126,116.876,153.277,137.714,155.688,157.837z M187.538,177.597c-6.522,4.718-7.795-8.167-7.015-12.236
		c1.23-6.417,6.03-10.956,11.786-13.434c0.047,0.168,0.079,0.335,0.184,0.509C197.445,160.693,195.483,171.85,187.538,177.597z
		 M192.838,148.874c-1.469,0.28-2.808,0.729-4.082,1.254c4.401-20.979-1.921-43.709-13.141-61.61c1-0.532,1.973-1.103,2.969-1.64
		C192.404,105.604,196.923,125.858,192.838,148.874z M107.828,115.596c-0.116-0.074-0.216-0.166-0.35-0.218
		c-6.162-2.376-12.27-4.861-18.384-7.333c4.276,0.441,8.55,0.562,12.835,0.015c0.632-0.081,0.679-1.023,0-1.023
		c-4.871,0-9.718-0.036-14.566-0.563c-0.446-0.048-0.663,0.27-0.663,0.615c-4.758-1.934-9.488-3.926-14.222-5.908
		c5.004,0.321,10.114,0.745,15.043-0.083c0.458-0.077,0.465-0.861,0-0.932c-5.543-0.852-11.294-0.126-16.869,0.257
		c-5.418-2.276-10.789-4.66-16.184-6.989c5.677,0.383,11.355,0.408,17.056,0.064c0.557-0.034,0.567-0.868,0-0.874
		c-6.904-0.069-13.797-0.333-20.687-0.758c-5.001-2.171-9.986-4.381-14.976-6.581c12.54,0.628,25.093,0.677,37.646,0.356
		c0.668-0.017,0.672-1.045,0-1.041c-13.631,0.08-27.242-0.288-40.863-0.729c-6.4-2.831-12.777-5.728-19.159-8.612
		c8.768,0.67,17.511,0.776,26.307,0.379c0.559-0.025,0.566-0.877,0-0.874c-9.48,0.056-18.96-0.26-28.424-0.805
		c-0.19-0.011-0.328,0.055-0.42,0.159c-2.338-1.06-4.687-2.085-7.021-3.156c5.672-2.322,11.346-4.662,17.019-7.001
		c6.514,0.06,13.009-0.134,19.508-0.738c0.718-0.067,0.732-1.192,0-1.134c-5.459,0.429-10.925,0.577-16.395,0.591
		c4.994-2.063,9.967-4.19,14.956-6.273c9.297-0.304,18.588-0.778,27.875-1.295c0.7-0.039,0.709-1.123,0-1.097
		c-8.284,0.305-16.566,0.661-24.843,1.12c6.284-2.631,12.546-5.309,18.813-7.977c6.482-0.985,12.957-1.988,19.419-3.111
		c0.807-0.14,0.455-1.338-0.336-1.219c-4.768,0.713-9.523,1.493-14.275,2.292c5.684-2.433,11.358-4.886,17.018-7.364
		c6.868,0.048,13.721-0.256,20.571-0.976c0.71-0.075,0.741-1.171,0-1.134c-5.637,0.283-11.273,0.423-16.911,0.483
		c4.076-1.797,8.154-3.592,12.209-5.428c21.864,5.21,42.569,13.169,63.54,21.169c9.719,3.708,19.439,7.412,29.158,11.118
		c3.477,1.326,7.379,3.878,11.264,4.952C171.293,84.777,139.943,100.476,107.828,115.596z"/>
	<path d="M61.072,111.133c-5.718-1.532-11.409-2.084-17.325-1.859c-0.882,0.034-0.889,1.396,0,1.376
		c5.734-0.13,11.417,0.413,17.053,1.469C61.439,112.238,61.717,111.305,61.072,111.133z"/>
</g>
<g>
</g>
<g>
</g>
<g>
</g>
<g>
</g>
<g>
</g>
<g>
</g>
<g>
</g>
<g>
</g>
<g>
</g>
<g>
</g>
<g>
</g>
<g>
</g>
<g>
</g>
<g>
</g>
<g>
</g>
</svg>
