<?xml version="1.0" encoding="iso-8859-1"?>
<!-- Generator: Adobe Illustrator 18.0.0, SVG Export Plug-In . SVG Version: 6.00 Build 0)  -->
<!DOCTYPE svg PUBLIC "-//W3C//DTD SVG 1.1//EN" "http://www.w3.org/Graphics/SVG/1.1/DTD/svg11.dtd">
<svg version="1.1" id="Capa_1" xmlns="http://www.w3.org/2000/svg" xmlns:xlink="http://www.w3.org/1999/xlink" x="0px" y="0px"
	 viewBox="0 0 263.533 263.533" style="enable-background:new 0 0 263.533 263.533;" xml:space="preserve">
<g>
	<path d="M242.854,72.995c0.175-0.402,0.206-0.882-0.037-1.396c-3.9-8.244-14.441-7.811-22.542-7.91
		c-15.917-0.196-32.13,2.665-47.928,4.565c-0.041-0.07-0.054-0.144-0.107-0.212c-9.411-12.143-18.903-24.272-28.661-36.139
		c-5.618-6.831-11.781-14.983-20.328-17.539c-0.097-0.632-0.555-1.227-1.393-1.322c-9.386-1.06-14.099,8.541-17.806,16.309
		c-0.619,0.068-0.786,0.675-0.547,1.142c-0.467,0.976-0.924,1.919-1.371,2.786c-1.198,2.32-2.379,4.659-3.549,7.007
		c-0.019,0.021-0.02,0.05-0.036,0.073c-6.081,12.206-11.685,24.79-15.621,37.806c-17.802-3.355-38.711,0.269-56.436,2.632
		c-6.694,0.893-14.682,1.312-15.143,8.215c-2.335,8.217,7.076,15.911,12.361,21.32c10.839,11.092,22.902,20.922,35.834,29.47
		c-7.221,17.91-13.635,37.494-16.62,56.573c-1.233,7.881-1.599,16.569,8.006,18.059c0.079,0.012,0.144-0.008,0.219-0.005
		c11.919,4.093,24.488-6.336,33.989-13.139c16.242-11.629,30.671-25.537,42.698-41.481c17.302,14.801,38.221,27.937,58.248,38.527
		c10.625,5.618,24.03,8.439,29.917-4.534c0.34-0.748,0.049-1.416-0.45-1.773c2.603-6.292,0.495-12.416-1.704-19.401
		c-4.618-14.662-9.094-29.42-14.239-43.905c14.022-8.106,27.217-19.588,37.144-32.33C242.021,89.63,246.461,80.863,242.854,72.995z
		 M197.509,127.46c-0.762,0.203-1.366,0.898-1.076,1.906c6.091,21.208,16.091,41.913,16.501,63.988
		c-6.847,9.012-17.648,6.273-27.87,0.832c1.299-0.111,2.608-0.322,3.728-0.389c3.097-0.186,6.171-0.457,9.254-0.799
		c0.644-0.072,0.678-1.058,0-1.032c-2.888,0.112-5.758,0.277-8.637,0.529c-1.234,0.108-2.469,0.217-3.702,0.334
		c-0.525,0.05-1.811,0.025-2.793,0.167c-2.858-1.632-5.648-3.42-8.259-5.179c3.53,0.412,7.074,0.654,10.641,0.603
		c0.856-0.012,0.856-1.306,0-1.329c-4.318-0.116-8.615-0.379-12.905-0.817c-3.291-2.264-6.233-4.361-8.58-5.819
		c-1.464-0.91-2.898-1.863-4.354-2.784c10.822,1.172,21.849,1.293,32.679,1.124c0.945-0.015,0.947-1.454,0-1.469
		c-11.698-0.187-23.392-0.965-35.083-1.192c-2.984-1.906-5.986-3.789-8.95-5.724c6.567,0.628,13.284,0.324,19.783-0.499
		c1.016-0.129,1.051-1.733,0-1.626c-7.424,0.751-14.706,0.666-22.135,0.579c-2.77-1.817-5.545-3.628-8.305-5.461
		c4.436,0.648,8.873,1.289,13.336,1.725c0.671,0.065,0.831-1.071,0.16-1.185c-5.288-0.9-10.617-1.512-15.94-2.163
		c-2.487-1.657-4.985-3.292-7.468-4.959c-0.262-0.176-0.533-0.185-0.781-0.107c-0.442-0.036-0.884,0.093-1.226,0.505
		c-9.235,11.131-18.859,21.746-29.87,31.169c-10.37,8.873-27.754,25.139-43.274,23.622c-0.167-0.174-0.371-0.328-0.664-0.424
		c-2.7-0.885-4.185-3.441-4.815-7.066c2.509,0.256,4.991,0.345,7.518,0.123c0.496-0.043,0.514-0.788,0-0.787
		c-2.563,0.006-5.13-0.105-7.68-0.375c-0.171-1.397-0.195-2.972-0.158-4.618c7.999-0.178,16.002-0.18,24.002-0.131
		c0.868,0.005,0.865-1.321,0-1.346c-7.994-0.238-15.965-0.09-23.951,0.245c0.112-2.273,0.4-4.741,0.806-7.322
		c2.539,0.094,5.1-0.006,7.601-0.333c0.799-0.105,0.852-1.347,0-1.294c-2.459,0.152-4.915,0.21-7.372,0.279
		c0.419-2.444,0.946-4.985,1.545-7.569c6.394-0.18,12.802-0.181,19.194-0.012c0.984,0.026,0.971-1.463,0-1.521
		c-6.284-0.38-12.529-0.355-18.805-0.07c0.784-3.24,1.676-6.529,2.615-9.768c2.816,0.005,5.608,0.087,8.419,0.337
		c0.794,0.071,0.763-1.128,0-1.224c-2.67-0.336-5.378-0.427-8.069-0.294c0.716-2.43,1.454-4.796,2.191-7.111
		c5.172-0.067,10.345-0.093,15.515-0.298c0.918-0.036,0.927-1.434,0-1.434c-5.021-0.002-10.039,0.164-15.057,0.298
		c0.908-2.815,1.798-5.47,2.638-7.936c2.675,0.321,5.293,0.336,7.942-0.284c0.763-0.178,0.618-1.458-0.188-1.391
		c-2.409,0.2-4.808,0.273-7.213,0.091c0.982-2.862,1.851-5.347,2.554-7.385c2.796-0.101,5.595-0.025,8.392,0.026
		c0.94,0.017,0.9-1.342,0-1.434c-2.647-0.269-5.267-0.201-7.912,0.002c0.372-1.095,0.695-2.064,0.894-2.727
		c0.12-0.4,0.048-0.724-0.122-0.967c-0.035-0.474-0.248-0.94-0.747-1.275c-2.268-1.523-4.51-3.078-6.726-4.665
		c9.713,0.991,19.477,1.912,29.222,2.304c0.839,0.034,0.793-1.182,0-1.276c-10.336-1.236-20.791-1.89-31.189-2.481
		c-2.192-1.601-4.325-3.279-6.463-4.95c3.847,0.073,7.698,0.15,11.54-0.016c0.789-0.034,0.786-1.181,0-1.224
		c-4.438-0.242-8.892-0.163-13.338-0.136c-2.534-2.023-4.991-4.147-7.434-6.29c2.469,0.138,4.935,0.265,7.403,0.482
		c0.689,0.061,0.86-1.126,0.165-1.219c-3.018-0.406-6.092-0.616-9.145-0.597c-0.135-0.122-0.281-0.229-0.415-0.351
		c-2.354-2.133-5.511-4.759-8.678-7.697c9.03,0.439,18.051,0.958,27.091,1.222c0.95,0.028,0.939-1.416,0-1.469
		c-9.517-0.534-19.037-0.783-28.56-1.144c-2.546-2.451-5.002-5.095-6.982-7.84c7.817,0.26,15.607,0.223,23.417-0.311
		c1.001-0.068,1.019-1.619,0-1.574c-8.159,0.363-16.324,0.498-24.489,0.288c-1.627-2.55-2.801-5.17-3.142-7.801
		c0.226-0.549,0.591-1.057,1.02-1.544c9.39-0.036,18.778-0.024,28.164-0.32c0.976-0.031,0.983-1.515,0-1.521
		c-8.827-0.052-17.65,0.167-26.473,0.363c11.969-8.122,55.608-6.08,66.657-7.81c0.334,0.224,0.8,0.243,1.017-0.189
		c0.002,0,0.004-0.001,0.005-0.001c0.282-0.064,0.365-0.37,0.285-0.611c1.029-2.149,1.979-4.335,2.966-6.503
		c2.229,0.371,4.619,0.31,6.835,0.261c0.684-0.015,0.665-0.993,0-1.049c-2.064-0.174-4.27-0.367-6.382-0.206
		c1.084-2.394,2.159-4.793,3.235-7.191c8.089,0.24,16.206,0.173,24.287-0.2c0.873-0.04,0.882-1.347,0-1.364
		c-7.919-0.153-15.864-0.002-23.778,0.432c1.555-3.459,3.152-6.9,4.765-10.333c3.334,0.224,6.652,0.301,9.996,0.111
		c0.893-0.051,0.907-1.418,0-1.399c-3.118,0.066-6.239,0.03-9.354-0.105c0.238-0.502,0.457-1.012,0.698-1.513
		c0.96-1.998,2.123-4.75,3.464-7.805c9.615,0.242,19.227,0.25,28.819-0.554c1.038-0.087,1.073-1.656,0-1.644
		c-9.347,0.104-18.687,0.398-28.034,0.429c1.289-2.886,2.737-5.966,4.33-8.927c4.394,0.201,8.791-0.197,13.052-1.327
		c1.026-0.272,0.582-1.749-0.433-1.568c-3.874,0.69-7.711,0.988-11.597,1.052c1.098-1.92,2.268-3.734,3.495-5.394
		c3.816,0.143,7.608,0.147,11.42-0.282c1.002-0.113,1.059-1.637,0-1.609c-3.369,0.09-6.74,0.187-10.11,0.213
		c2.525-3.03,5.293-5.256,8.311-5.902c11.557,4.921,19.388,16.499,27.004,26.047c7.476,9.373,14.949,18.755,22.554,28.024
		c0.579,0.706,1.31,0.65,1.863,0.253c14.929,0.392,56.879-11.38,67.465,1.806C245.181,94.548,212.717,115.141,197.509,127.46z"/>
	<path d="M73.45,63.501c-15.05-10.024-29.29-20.963-43.996-31.446c-0.984-0.701-2.146,0.847-1.282,1.662
		c13.067,12.318,28.684,22.688,44.264,31.521C73.571,65.882,74.521,64.214,73.45,63.501z"/>
	<path d="M77.102,49.516c-6.115-12.089-11.646-24.217-16.486-36.881c-0.686-1.795-3.564-1.076-2.934,0.809
		c4.331,12.967,10.112,25.676,17.306,37.307C75.822,52.099,77.811,50.917,77.102,49.516z"/>
	<path d="M171.923,15.845c-0.308-1.16-2.313-0.971-2.164,0.293c1.33,11.249,3.849,22.487,6.122,33.578
		c0.279,1.361,2.224,0.748,2.04-0.563C176.37,38.054,174.805,26.686,171.923,15.845z"/>
	<path d="M206.509,18.099c-4.126,4.585-7.824,9.549-11.592,14.429c-3.322,4.302-7.475,8.568-9.315,13.756
		c-0.443,1.248,1.585,2.123,2.157,0.91c2.529-5.361,7.129-9.928,10.819-14.534c3.41-4.258,6.867-8.498,9.949-13.002
		C209.349,18.456,207.484,17.016,206.509,18.099z"/>
	<path d="M42.932,143.604c-10.674-2.875-20.758-6.261-31.095-10.165c-1.336-0.505-2.185,1.609-0.963,2.285
		c9.614,5.324,20.871,8.735,31.779,9.941C43.847,145.797,44.048,143.905,42.932,143.604z"/>
	<path d="M37.836,153.201c-13.569,5.558-26.382,13.859-37.45,23.447c-1.102,0.955,0.384,2.933,1.579,2.046
		c11.792-8.753,23.962-16.267,36.687-23.559C39.657,154.559,38.973,152.736,37.836,153.201z"/>
	<path d="M125.669,181.523c-7.153,13.116-15.29,28.991-17.843,43.799c-0.18,1.046,1.305,1.892,1.854,0.781
		c6.843-13.838,11.334-29.495,17.394-43.76C127.47,181.411,126.185,180.578,125.669,181.523z"/>
	<path d="M161.934,250.355c-7.372-21.911-15.038-44.134-24.221-65.359c-0.368-0.852-1.744-0.243-1.486,0.627
		c6.563,22.076,14.901,43.946,23.195,65.425C160.014,252.581,162.477,251.969,161.934,250.355z"/>
	<path d="M236.858,158.185c-7.808-5.726-16.254-10.694-24.399-15.926c-1.116-0.716-2.118,1.037-1.033,1.767
		c8.035,5.405,15.945,11.194,24.303,16.092C236.999,160.862,237.994,159.018,236.858,158.185z"/>
	<path d="M262.388,128.409c-16.005-0.358-32.14,0.73-48.184,0.598c-1.322-0.011-1.285,1.923,0,2.028
		c15.791,1.293,32.782,2.018,48.493-0.342C264.029,130.493,263.651,128.437,262.388,128.409z"/>
</g>
<g>
</g>
<g>
</g>
<g>
</g>
<g>
</g>
<g>
</g>
<g>
</g>
<g>
</g>
<g>
</g>
<g>
</g>
<g>
</g>
<g>
</g>
<g>
</g>
<g>
</g>
<g>
</g>
<g>
</g>
</svg>
