<?xml version="1.0" encoding="iso-8859-1"?>
<!-- Generator: Adobe Illustrator 16.0.0, SVG Export Plug-In . SVG Version: 6.00 Build 0)  -->
<!DOCTYPE svg PUBLIC "-//W3C//DTD SVG 1.1//EN" "http://www.w3.org/Graphics/SVG/1.1/DTD/svg11.dtd">
<svg version="1.1" id="Capa_1" xmlns="http://www.w3.org/2000/svg" xmlns:xlink="http://www.w3.org/1999/xlink" x="0px" y="0px"
	 width="194.531px" height="194.531px" viewBox="0 0 194.531 194.531" style="enable-background:new 0 0 194.531 194.531;"
	 xml:space="preserve">
<g>
	<g>
		<path d="M192.426,63.605c-0.765-0.887-2.534-0.94-3.29,0c-2.832,3.529-0.979,8.082-6.729,8.599
			c-4.633,0.417-9.426-0.714-14.027-1.127c-6.093-0.548-11.44,0.988-14.22,4.912c-11.511-10.667-29.23-14.244-37.285,1.067
			c-2.683-2.244-5.879-3.695-9.876-3.629c-0.688,0.011-1.352,0.082-2.021,0.141c-0.449-2.754-3.113-5.121-4.729-7.467
			c0.673-0.41,1.146-1.106,1.069-1.998c-0.821-9.658-4.136-19.613-6.862-28.875c-0.398-1.351-0.82-2.721-1.259-4.093
			c0.139-0.424,0.089-0.901-0.294-1.256c-0.052-0.048-0.108-0.088-0.16-0.136c-2.195-6.578-5.088-13.106-10.052-17.896
			C72.106,1.629,53.767,13.266,43.31,17.739c-1.451,0.621-2.07,3.046-1.127,4.296C54.751,38.698,64.302,57.02,72.117,76.317
			c0.525,1.297,1.848,2.464,3.372,1.915c1.374-0.462,2.714-1.013,4.055-1.562c-0.007,0.415,0.051,0.828,0.241,1.159
			c1.165,2.026,2.213,4.114,3.344,6.157c-5.398,4.434-10.497,9.499-15.967,13.587c-6.596-2.235-13.461-3.613-20.042-3.986
			c-10.274-0.582-22.135,4.852-21.025,16.167c-0.674-0.06-0.91,0.881-1.522,1.114c0.481-0.23,0.658-0.982,0.26-1.436
			c-0.051-0.059-0.102-0.117-0.154-0.177c-0.642-0.731-1.778,0.048-1.56,0.908c0.167,0.659,0.372,1.308,0.589,1.954
			c-3.256,1.057-6.695,1.128-10.327,0.164c-1.722-0.407-3.627,1.164-3.013,3.013c0.615,5.481-0.66,9.229-3.742,11.322
			c-0.866-0.443-1.742-0.87-2.582-1.349c-1.122-0.642-2.111,1.061-1.009,1.726c0.437,0.264,0.901,0.501,1.342,0.761
			c-0.804,0.281-1.664,0.513-2.627,0.647c-1.921,0.609-2.472,3.354-0.575,4.402c1.507,1.06,2.677,2.127,3.529,3.202
			c-0.234,0.567-0.145,1.266,0.5,1.544c0.202,0.089,0.399,0.189,0.599,0.28c1.135,2.551,0.496,5.148-1.991,7.792
			c-0.465,0.698-0.39,1.662,0,2.366c2.619,3.473,3.306,7.466,2.061,11.978c-0.618,1.492,0.9,2.896,2.26,2.969
			c7.789,0.417,11.378,3.607,10.546,11.439c-0.222,2.089,2.824,2.703,3.824,1.2c0.267,0.137,0.576,0.219,0.94,0.166
			c6.931-1.006,11.305,1.328,12.674,8.342c0.275,1.41,2.327,1.921,3.263,0.861c5.343-6.053,12.144-4.631,16.699,1.217
			c0.629,0.808,2.268,0.809,2.897,0c3.378-4.34,7.618-4.481,12.141-6.709c0.782-0.385,1.008-1.12,0.888-1.823
			c2.126,2.021,4.284,3.927,6.479,5.655c2.109,1.66,5.787-0.235,4.837-2.727c0.205,0.026,0.39,0.084,0.627,0.062
			c16.293-1.477,21.409-16.874,20.255-33.271c0.021-0.004,0.036,0.004,0.056-0.001c11.726-2.654,23.207-7.311,29.507-18.104
			c2.137-3.661,2.888-7.616,2.755-11.63c10.009-0.29,22.844-2.962,27.231-13.092c3.586-8.278-0.356-17.645-5.59-24.251
			c-0.156-0.197-0.335-0.377-0.495-0.571c1.454-2.125,3.754-3.12,7.5-3.001c5.121,0.163,10.147,1.512,15.258,1.863
			C187.586,79.054,199.349,71.625,192.426,63.605z M100.65,74.257c-5.545,1.352-10.425,4.238-15.021,7.746
			c-0.424-1.376-0.878-2.742-1.326-4.111c4.689-2.072,9.027-4.667,12.902-8.006C98.203,71.417,99.379,73.019,100.65,74.257z
			 M83.349,22.87c-5.092-3.034-10.552-5.511-15.919-8.027C73.534,13.834,79.16,15.397,83.349,22.87z M63.815,15.694
			c0.009,0.005,0.012,0.012,0.021,0.016c7.543,3.895,14.944,7.812,22.004,12.425c0.738,1.844,1.378,3.725,1.953,5.63
			c-10.305-4.773-20.386-8.571-29.183-16.158C60.354,16.873,62.095,16.211,63.815,15.694z M56.559,18.502
			c8.807,8.43,20.434,15.312,32.218,18.669c0.36,1.371,0.705,2.747,1.029,4.13c-12.077-7.243-24.298-14.61-36.732-21.186
			C54.229,19.568,55.393,19.027,56.559,18.502z M49.661,21.728c0.358-0.167,0.722-0.34,1.083-0.511
			c13.029,7.855,25.728,17.732,39.838,23.465c0.27,1.2,0.54,2.4,0.815,3.598c-12.056-6.642-24.528-12.656-36.674-19.215
			C53.082,26.584,51.402,24.132,49.661,21.728z M57.577,33.567c11.099,7.093,22.56,14.47,34.782,18.695
			c0.2,0.794,0.392,1.592,0.608,2.38C82.694,48.15,71.332,42.459,60.15,37.674C59.322,36.288,58.435,34.937,57.577,33.567z
			 M66.375,48.872c-1.347-2.658-2.779-5.276-4.257-7.869c10.686,5.876,20.839,13.085,32.055,17.592
			c0.669,2.034,1.402,4.042,2.297,5.984c-0.114,0.075-0.247,0.11-0.348,0.205c-0.155,0.146-0.326,0.267-0.482,0.41
			c-4.722-2.597-9.845-4.538-14.641-7.037c-4.489-2.339-8.92-4.769-13.476-6.964C67.137,50.421,66.765,49.643,66.375,48.872z
			 M69.305,54.797c7.752,4.665,15.675,10.268,24.111,12.289c-1.505,1.214-3.048,2.364-4.665,3.396
			c-5.354-2.748-10.746-5.288-16.006-8.164C71.666,59.779,70.503,57.28,69.305,54.797z M82.166,74.105
			c-0.081-0.755-0.622-1.415-1.661-1.411c-4.727,0.02-5.521-3.773-6.784-7.724c4.048,2.629,8.251,5.094,12.619,6.974
			C84.983,72.714,83.597,73.441,82.166,74.105z M34.776,138.542c-1.528,7.533,5.423,15.967,14.059,18.786
			c1.93,0.63,3.923,0.889,5.916,0.889c2.219,2.856,4.485,5.682,6.826,8.408c-1.295,0.021-2.553,0.055-3.795,0.069
			c-1.051-0.438-2.112-0.87-3.129-1.33c-0.924-0.417-1.751,0.39-1.691,1.143c-2.056-0.176-4.136-0.498-6.359-1.231
			c-6.339-2.093-11.726-6.654-16.11-11.529c-8.814-9.799-9.47-20.497-2.543-29.312c0.953,0.523,1.906,1.047,2.909,1.461
			c0.218,0.09,0.401,0.051,0.568-0.013c1.196,1.658,2.412,3.304,3.627,4.933C34.402,133.047,34.279,135.629,34.776,138.542z
			 M53.443,126.081c5.665,2.543,11.218,5.537,16.929,8.061c0.549,1.075,0.802,2.157,0.905,3.235
			c-3.394-1.034-6.816-2.011-10.122-3.277c-5.358-2.055-10.383-4.675-15.437-7.352c1.806-1.193,4.052-1.97,7.095-2.062
			c0.027-0.001,0.054,0.004,0.08,0.003C52.744,125.223,52.86,125.819,53.443,126.081z M70.87,141.128
			c-0.127,0.406-0.231,0.817-0.404,1.213c-8.441-3.696-17.239-6.153-25.048-11.36c-0.86-0.573-1.638,0.334-1.476,1.132
			c-0.173-0.237-0.344-0.475-0.511-0.713c0.032-0.043,0.061-0.09,0.093-0.132c0.547-0.735-0.166-1.5-0.919-1.546
			c0.502-0.721,1.068-1.372,1.7-1.959c0.057,0.086,0.067,0.184,0.16,0.256C51.202,133.218,61.468,138.762,70.87,141.128z
			 M50.189,140.678c-1.924-2.489-3.803-5.014-5.571-7.62c-0.055-0.082-0.116-0.161-0.173-0.242
			c7.304,5.148,16.066,9.18,24.73,11.868c-0.686,0.994-1.493,1.939-2.399,2.804C61.486,144.873,55.807,142.516,50.189,140.678z
			 M64.599,149.309c-1.606,1.167-3.351,2.108-5.077,2.731c-2.582-2.99-5.124-6.01-7.581-9.095
			C56.185,145.019,60.298,147.475,64.599,149.309z M50.192,152.19c-3.234-0.988-6.196-2.909-8.481-5.355
			c-2.65-2.838-2.739-6.039-1.726-9.119C43.161,142.376,46.565,147.268,50.192,152.19z M25.005,115.341
			c0.559,1.213,1.173,2.411,1.848,3.59c-0.592,0.359-1.137,0.75-1.665,1.152c-1.488-0.969-2.951-1.993-4.417-3.003
			C22.21,116.711,23.59,116.135,25.005,115.341z M15.839,117.52c0.781,0.048,1.516,0.03,2.234-0.018
			c1.754,1.379,3.521,2.782,5.355,4.098c-1.107,1.088-2.047,2.277-2.815,3.556c-1.749-0.739-3.468-1.525-5.156-2.385
			C15.912,121.195,16.062,119.455,15.839,117.52z M22.884,152.879c-4.277-2.535-8.542-5.104-12.801-7.692
			c0.114-0.916,0.343-1.861,0.749-2.853c0.228-0.556,0.388-1.103,0.493-1.64c2.54,1.419,5.073,2.845,7.761,3.919
			c0.788,2.574,1.887,5.105,3.292,7.49C22.529,152.359,22.721,152.621,22.884,152.879z M14.764,124.546
			c1.561,0.95,3.17,1.84,4.835,2.564c-0.749,1.676-1.273,3.453-1.554,5.305c-2.203-1.266-4.488-2.411-6.801-3.511
			C12.777,127.661,13.959,126.208,14.764,124.546z M7.329,131.35c0.606-0.295,1.168-0.616,1.719-0.945
			c2.881,1.593,5.786,3.113,8.724,4.56c-0.085,2.064,0.075,4.183,0.479,6.303c-2.288-1.278-4.599-2.522-6.948-3.681
			C10.806,135.191,9.245,133.074,7.329,131.35z M11.159,158.638c0.107-0.593,0.135-1.158,0.155-1.724
			c1.21,1.013,2.508,1.964,3.86,2.856C13.938,159.297,12.622,158.897,11.159,158.638z M57.58,181.672
			c-5.487-5.708-12.762-6.677-18.68-1.741c-2.67-6.441-8.445-9.094-15.874-6.991c0.484-4.582-0.768-7.955-3.239-10.339
			c1.513,0.883,2.999,1.729,4.379,2.563c7.04,4.257,14.705,9.349,22.707,11.52c1.365,0.369,2.019-1.444,0.924-2.192
			c-6.191-4.235-13.498-7.079-20.063-10.733c-5.673-3.156-11.019-7.355-16.716-10.498c-0.325-1.812-0.795-3.562-0.961-5.381
			c6.879,4.784,13.933,9.751,21.18,14.474c4.318,3.753,9.47,6.995,14.801,8.899c5.205,2.844,10.514,5.358,15.931,7.428
			C60.403,179.428,58.951,180.354,57.58,181.672z M69.664,176.001c-1.67,0.512-3.203,0.961-4.642,1.453
			c-2.588-1.511-5.176-3.013-7.764-4.516c1.645-0.139,3.253-0.483,4.813-1.027c2.675,1.411,5.373,2.767,8.088,4.043
			C69.999,175.95,69.837,175.947,69.664,176.001z M83.207,175.125c-1.167,0.411-1.778,1.482-1.891,2.572
			c-5.625-7.34-11.832-14.263-17.964-21.248c6.154-2.62,11.173-7.9,12.779-14.363c0.692,0.077,1.407,0.205,2.076,0.233
			c1.526,0.063,1.554-1.969,0.333-2.463c-0.635-0.257-1.291-0.468-1.937-0.702c0.051-0.654,0.132-1.301,0.11-1.972
			c-0.006-0.185-0.056-0.347-0.067-0.527c0.013,0.005,0.027,0.011,0.04,0.016c1.504,0.525,2.476-1.829,1.078-2.558
			c-0.555-0.289-1.13-0.55-1.69-0.831c-4.067-14.655-27.638-17.949-37.397-8.442c-1.563-2.063-3.146-4.114-4.742-6.128
			c-0.066-0.084-0.135-0.166-0.201-0.25c0.195-0.855-0.569-1.854-1.493-1.85c-1.049-1.317-2.1-2.633-3.172-3.931
			c0.147-0.107,0.282-0.195,0.431-0.306c0.927-0.681,0.729-1.786,0.038-2.268c8.684-21.229,41.993-6.144,55.064,4.215
			C100.342,126.794,105.171,167.396,83.207,175.125z M128.67,126.266c-4.069,9.42-16.015,12.852-25.136,15.19
			c-2.045-13.026-7.649-25.715-14.41-31.655c-5.045-4.432-11.131-7.948-17.614-10.604c6.982-4.746,13.304-10.444,20.232-15.285
			c14.136-9.877,23.301-2.862,30.034,9.927C127.064,103.883,133.658,114.72,128.67,126.266z M135.725,111.639
			c-0.603-2.658-1.533-5.272-2.583-7.815c2.458,1.468,4.964,2.836,7.547,4.088c1.677,0.813,3.43,1.728,5.231,2.419
			C142.317,111.116,138.612,111.407,135.725,111.639z M150.121,109.112c-0.033-0.032-0.042-0.086-0.079-0.114
			c-2.046-1.568-4.745-2.209-7.13-3.147c-3.493-1.376-6.877-2.977-10.166-4.783c-0.305-0.168-0.598-0.182-0.85-0.099
			c-1.147-2.457-2.376-4.823-3.6-6.979c-0.207-0.365-0.421-0.771-0.63-1.15c8.413,5.448,17.578,10.44,26.978,13.863
			C153.321,107.701,151.784,108.493,150.121,109.112z M157.027,104.295c-10.526-5.028-21.32-9.065-31.373-15.138
			c-1.029-1.896-2.154-3.791-3.35-5.631c11.607,5.84,23.209,15.843,35.967,18.388C157.942,102.775,157.543,103.583,157.027,104.295z
			 M157.7,91.273c-10.225-5.614-22.316-8.849-32.902-13.337c-1.474-0.625-2.788,1.484-1.283,2.197
			c11.503,5.455,23.357,11.676,35.373,15.997c0.075,0.765,0.162,1.531,0.117,2.296c-5.426-2.354-10.937-4.402-16.215-7.205
			c-7.113-3.776-13.997-7.864-21.43-11.005c-0.366-0.155-0.719-0.138-1.026-0.022c8.044-13.016,22.549-7.887,31.821,2.306
			c-0.003,0.097,0.011,0.205,0.009,0.303c-7.152-4.105-15.373-7.078-22.979-8.793c-2.051-0.462-2.917,2.617-0.87,3.154
			c10.835,2.845,19.227,9.217,29.206,13.712C157.577,91.011,157.648,91.138,157.7,91.273z"/>
		<path d="M56.382,106.734c-1.15-0.118-1.377,1.75-0.27,1.999c13.834,3.119,24.183,12.987,29.607,25.917
			c5.58,13.3,1.16,24.518-9.284,33.358c-2.262,1.915,0.621,5.216,3.039,3.939C111.338,155.134,83.905,109.566,56.382,106.734z"/>
		<path d="M121.485,118.35c-3.029,5.448-7.392,9.562-13.07,12.145c-1.644,0.748-0.458,3.567,1.232,2.923
			c6.443-2.455,12.909-6.857,15.059-13.709C125.31,117.789,122.452,116.61,121.485,118.35z"/>
		<path d="M117.063,104.666c-2.563,4.996-6.535,7.734-11.707,9.604c-1.57,0.566-1.464,3.295,0.42,3.105
			c6.04-0.605,13.548-5.452,14.199-11.919C120.132,103.898,117.748,103.33,117.063,104.666z"/>
		<path d="M112.946,93.625c-5.961,3.417-11.111,6.499-17.972,7.849c-2.23,0.438-1.253,3.714,0.928,3.364
			c6.839-1.095,14.188-3.406,19.137-8.501C116.408,94.927,114.662,92.643,112.946,93.625z"/>
		<path d="M109.454,82.061c-3.047,1.597-5.649,4.045-8.364,6.135c-3.163,2.435-6.503,4.606-10.006,6.517
			c-2.056,1.121-0.249,4.108,1.816,3.107c6.474-3.137,14.032-7.35,18.756-12.904C112.985,83.353,111.338,81.073,109.454,82.061z"/>
	</g>
</g>
<g>
</g>
<g>
</g>
<g>
</g>
<g>
</g>
<g>
</g>
<g>
</g>
<g>
</g>
<g>
</g>
<g>
</g>
<g>
</g>
<g>
</g>
<g>
</g>
<g>
</g>
<g>
</g>
<g>
</g>
</svg>
