<?xml version="1.0" encoding="iso-8859-1"?>
<!-- Generator: Adobe Illustrator 16.0.0, SVG Export Plug-In . SVG Version: 6.00 Build 0)  -->
<!DOCTYPE svg PUBLIC "-//W3C//DTD SVG 1.1//EN" "http://www.w3.org/Graphics/SVG/1.1/DTD/svg11.dtd">
<svg version="1.1" id="Capa_1" xmlns="http://www.w3.org/2000/svg" xmlns:xlink="http://www.w3.org/1999/xlink" x="0px" y="0px"
	 width="186.814px" height="186.814px" viewBox="0 0 186.814 186.814" style="enable-background:new 0 0 186.814 186.814;"
	 xml:space="preserve">
<g>
	<g>
		<path d="M178.592,78.085c4.657-0.007,4.85-6.772,0.686-7.49c-0.084-0.194-0.113-0.384-0.241-0.581
			c-8.119-12.487-27.772-21.001-39.894-29.291c-9.764-6.679-17.865-14.607-25.619-23.423c-4.815-5.475-11.475-14.434-18.916-16.659
			C80.909-3.455,67.448,13.084,59.27,21.653C41.931,39.822,24.152,57.55,5.3,74.185c-1.107,0.977-0.844,2.448-0.024,3.404
			c-0.006,1.453,0.914,2.93,2.633,2.78c4.825-0.422,9.677-0.718,14.524-1.034c-3.196,11.743-2.194,25.517-2.05,37.124
			c0.165,13.234-2.124,32.411,2.919,44.808c0.56,1.377,2.298,1.419,2.845,0c4.32-11.205,0.462-28.23,0.182-40.064
			c-0.338-14.287,1.23-28.173,1.992-42.287c26.453-1.509,53.178-1.621,79.871-1.418c0.248,0.17,0.488,0.356,0.736,0.523
			c0.779,0.522,1.512,0.135,1.858-0.504c19.42,0.163,38.819,0.471,58.075,0.538c-5.996,27.411-0.284,56.676-3.787,84.501
			c-0.014,0.105,0.02,0.188,0.025,0.283c-0.717,0.073-1.438,0.15-2.095,0.189c-15.42,0.913-31.121-0.658-46.634,0.101
			c-1.791,0.088-3.585,0.146-5.379,0.197c3.131-19.179,3.05-38.675,0.664-57.946c-0.15-1.211-0.754-2.477-2.094-2.751
			c-13.006-2.646-26.359-2.671-39.374-0.071c-1.165,0.232-2.281,1.612-2.149,2.822c2.037,18.636-0.313,37.417,2.961,55.947
			c0.338,1.909,3.446,1.452,3.357-0.454c-0.577-12.355,0.221-24.641,0.489-36.995c0.032-1.496-1.065-16.09-0.005-16.306
			c5.514-1.125,11.274-1.171,16.877-1.182c2.855-0.007,14.257-0.802,14.708,2.743c0.666,5.243,0.954,10.528,1.2,15.805
			c0.597,12.834-0.208,25.81-2.429,38.457c-0.383-0.162-0.779-0.133-1.133,0.029c-29.51,0.17-59.341-3.413-88.591,0.517
			c-2.188,0.294-2.301,2.718-1.032,3.583c-0.705,2.83-0.304,6.496,0.127,8.607c0.423,2.078,1.249,4.197,2.547,5.874
			c-0.005,0.046-0.035,0.091-0.021,0.138c2.247,7.897,42.827,3.433,47.843,3.25c37.638-1.372,75.18,0.912,112.812,0.081
			c2.558-0.057,3.763-2.229,3.452-4.531c-0.717-5.322-0.918-10.655-1.732-15.961c-0.386-2.508-2.644-2.966-4.467-2.153
			c-1.98-0.516-4.201-0.486-6.391-0.315c6.523-27.511,3.212-56.413,5.822-84.44C175.821,78.074,177.21,78.088,178.592,78.085z
			 M21.511,180.521c-1.196-1.702-1.651-3.563-1.728-6.02c-0.008-0.253,0.031-0.532,0.051-0.801c1.686,2.332,3.583,4.546,5.774,6.352
			C24.092,180.192,22.686,180.346,21.511,180.521z M29.522,179.733c-3.552-2.558-6.549-5.548-9.22-9.002
			c0.163-0.805,0.32-1.612,0.39-2.396c1.324,0.112,2.656,0.192,3.983,0.293c3.548,3.193,6.378,7.397,9.733,10.822
			C32.723,179.535,31.077,179.627,29.522,179.733z M39.144,179.244c-2.067-2.097-4.263-4.101-6.272-6.23
			c-1.335-1.416-2.696-2.791-4.123-4.086c2.526,0.171,5.07,0.252,7.603,0.386c2.905,3.273,5.761,6.72,8.941,9.731
			C43.264,179.102,41.195,179.166,39.144,179.244z M49.773,178.935c-3.054-3.225-6.278-6.347-9.519-9.424
			c1.685,0.079,3.376,0.115,5.063,0.182c2.331,2.198,4.494,4.562,6.653,6.947c0.587,0.647,1.221,1.42,1.899,2.215
			C52.559,178.878,51.203,178.903,49.773,178.935z M59.258,178.771c-1.637-1.589-3.581-3.046-4.951-4.469
			c-1.452-1.506-2.904-2.995-4.394-4.444c2.036,0.067,4.074,0.105,6.112,0.16c1.208,1.787,2.422,3.569,3.676,5.324
			c0.787,1.103,1.64,2.257,2.534,3.388C61.382,178.741,60.415,178.753,59.258,178.771z M66.639,178.605
			c-1.57-1.662-3.209-3.278-4.671-5.014c-0.961-1.14-1.874-2.319-2.795-3.493c1.504,0.034,3.004,0.039,4.508,0.067
			c1.927,1.784,3.78,3.645,5.584,5.563c0.731,0.776,1.555,1.737,2.448,2.683C70.021,178.483,68.331,178.52,66.639,178.605z
			 M76.984,178.215c-1.684-1.718-3.851-3.252-5.452-4.752c-1.169-1.095-2.35-2.168-3.542-3.229c1.415,0.022,2.816,0.018,4.23,0.038
			c2.025,2.372,4.219,4.6,6.556,6.666c0.416,0.368,0.892,0.788,1.393,1.211C79.108,178.175,78.046,178.183,76.984,178.215z
			 M86.681,178.011c-0.736-0.311-1.993-1.479-2.522-1.829c-1.64-1.088-3.161-2.349-4.648-3.634
			c-0.819-0.708-1.587-1.484-2.379-2.231c1.601,0.019,3.189,0.024,4.79,0.043c2.067,1.994,3.998,4.141,5.966,6.215
			c0.439,0.463,0.899,0.949,1.363,1.431C88.394,178.016,87.538,177.998,86.681,178.011z M95.05,177.99
			c-2.035-1.817-4.087-3.606-6.019-5.558c-0.68-0.688-1.377-1.35-2.061-2.027c1.741,0.018,3.472,0.028,5.214,0.047
			c2.272,2.536,4.66,5.203,7.253,7.556C97.975,178.008,96.512,177.984,95.05,177.99z M106.036,178.034
			c-1.823-1.242-3.604-2.541-5.289-4.055c-1.234-1.109-2.396-2.298-3.562-3.481c1.912,0.018,3.836,0.045,5.736,0.052
			c1.34,0.006,2.678-0.03,4.018-0.04c1.737,2.002,3.517,3.965,5.402,5.83c0.51,0.504,1.121,1.132,1.799,1.773
			C111.438,178.085,108.737,178.048,106.036,178.034z M120.533,178.173c-0.37-0.305-0.778-0.596-1.245-0.961
			c-1.719-1.344-3.359-2.779-4.954-4.267c-0.851-0.795-1.644-1.652-2.458-2.486c2.57-0.044,5.141-0.107,7.709-0.173
			c2.682,2.324,4.98,5.253,7.434,7.969C124.858,178.228,122.696,178.199,120.533,178.173z M132.817,178.328
			c-2.469-2.673-5.006-5.579-7.737-8.177c1.621-0.042,3.243-0.067,4.864-0.104c3.147,2.475,5.906,5.461,8.756,8.333
			C136.739,178.358,134.776,178.353,132.817,178.328z M143.711,178.424c-2.857-2.946-5.939-5.93-9.229-8.475
			c2.228-0.039,4.459-0.01,6.688-0.021c2.17,2.108,4.287,4.268,6.373,6.461c0.63,0.661,1.261,1.361,1.901,2.065
			C147.536,178.442,145.624,178.442,143.711,178.424z M154.93,178.483c-1.625-1.551-3.375-3.004-4.966-4.515
			c-1.435-1.361-2.871-2.72-4.327-4.055c0.83,0.007,1.66-0.021,2.492-0.008c1.148,0.02,2.301,0.068,3.451,0.123
			c2.393,1.945,4.508,4.16,6.583,6.516c0.542,0.615,1.065,1.263,1.59,1.909C158.147,178.455,156.539,178.488,154.93,178.483z
			 M164.647,178.426c-1.564-1.764-3.271-3.431-4.838-5.072c-1.051-1.1-2.178-2.116-3.34-3.091c2.182,0.096,4.362,0.156,6.538,0.057
			c0.07-0.003,0.13-0.001,0.198-0.003c2.302,1.833,4.374,3.902,6.357,6.124c0.516,0.578,1.03,1.248,1.557,1.947
			C168.962,178.403,166.805,178.414,164.647,178.426z M172.489,166.846c-0.278,0.982-0.039,1.832,0.477,2.452
			c0.234,2.075,0.409,4.157,0.585,6.239c-0.883-0.743-1.737-1.453-2.461-2.115c-1.212-1.11-2.481-2.143-3.796-3.106
			C169.911,170.313,171.612,169.942,172.489,166.846z M14.118,73.672c1.846-1.417,3.628-2.909,5.437-4.368
			c0.019,0.622,0.145,1.259,0.402,1.881c0.201,0.487,0.465,1.023,0.767,1.564C18.519,73.031,16.312,73.3,14.118,73.672z
			 M24.137,72.303c-1.264-1.432-2.536-3.015-1.826-4.204c0.226-0.379,0.192-0.741,0.027-1.031c1.262-1.041,2.495-2.117,3.743-3.174
			c1.035,1.097,2.057,2.206,3.11,3.286c1.405,1.443,2.873,3.05,4.518,4.333C30.512,71.712,27.318,71.957,24.137,72.303z
			 M37.704,71.308c-0.055-0.171-0.136-0.34-0.265-0.5c-1.723-2.149-4.18-3.814-6.247-5.63c-1.082-0.951-2.127-1.942-3.187-2.917
			c1.113-0.955,2.188-1.955,3.292-2.92c2.203,2.076,4.124,4.425,6.021,6.801c1.235,1.547,2.626,3.588,4.296,5.068
			C40.311,71.252,39.004,71.248,37.704,71.308z M45.958,71.101c-1.937-2.756-5.094-4.997-7.388-7.52
			c-1.809-1.99-3.61-3.951-5.595-5.728c0.933-0.823,1.849-1.668,2.779-2.496c2.271,3.076,4.58,6.123,7.001,9.085
			c1.723,2.108,3.778,4.803,6.181,6.638C47.943,71.091,46.95,71.081,45.958,71.101z M53.346,71.047
			c-1.987-2.886-5.292-5.109-7.724-7.651c-2.902-3.033-5.504-6.335-8.075-9.65c0.601-0.539,1.187-1.098,1.787-1.638
			c5.385,6.248,10.209,12.955,15.889,18.953C54.597,71.061,53.971,71.045,53.346,71.047z M57.771,71.08
			c0.059-0.328,0.003-0.686-0.256-1.011c-5.303-6.667-10.579-13.374-16.463-19.538c1.764-1.596,3.505-3.223,5.263-4.826
			c3.976,5.102,7.238,10.732,10.928,16.049c2.133,3.073,5.032,7.128,8.552,9.398C63.122,71.125,60.447,71.089,57.771,71.08z
			 M70.997,71.198c-0.045-0.07-0.039-0.144-0.104-0.212c-2.148-2.196-4.851-3.708-7.061-5.879c-2.744-2.696-4.983-5.924-7.208-9.043
			c-2.853-4-5.583-8.06-8.736-11.799c1.158-1.061,2.314-2.124,3.472-3.184c7.972,10.002,15.482,21.217,24.654,30.145
			C74.338,71.209,72.672,71.216,70.997,71.198z M80.125,71.248c-8.271-10.969-18.302-21.054-27.523-31.307
			c0.293-0.272,0.593-0.537,0.885-0.811c0.882-0.829,1.92-1.949,3.073-3.254C65.94,48.627,76.471,62.332,89.567,71.3
			C86.426,71.307,83.273,71.27,80.125,71.248z M94.799,71.26c-13.27-11.695-25.522-23.377-37.042-36.756
			c1.335-1.545,2.815-3.298,4.383-5.133c2.148,8.855,13.076,17.702,19.12,23.799c5.979,6.032,12.148,12.41,18.772,18.037
			C98.289,71.221,96.544,71.249,94.799,71.26z M106.242,71.144c-7.08-7.198-15.1-13.667-22.34-20.614
			c-7.098-6.812-13.307-16.1-20.986-22.06c1.38-1.605,2.837-3.264,4.336-4.914c13.614,16.697,28.502,34.715,45.951,47.513
			C110.882,71.093,108.561,71.123,106.242,71.144z M118.908,71.007c-0.084-0.201-0.206-0.394-0.384-0.568
			C102.035,54.187,85.221,38.242,68.757,21.92c1.802-1.925,3.665-3.793,5.55-5.513C97.936,28.216,108.841,55.76,129.776,70.9
			C126.153,70.942,122.53,70.967,118.908,71.007z M135.969,70.84c-11.675-9.987-21.676-21.186-32.005-32.585
			c-8.094-8.932-16.82-18.488-28.183-23.156c2.198-1.891,4.414-3.5,6.598-4.721c14.737,24.831,41.583,42.916,64.48,60.355
			C143.229,70.774,139.6,70.8,135.969,70.84z M84.519,9.33c3.478-1.491,6.827-1.783,9.811-0.059
			c8.651,4.998,15.755,13.604,23.022,21.763c-8.174-6.551-16.229-13.22-23.873-20.471c-0.861-0.817-2.1,0.429-1.298,1.297
			c10.327,11.166,22.049,20.897,33.752,30.57c10.82,8.943,20.586,19.182,31.262,28.203c-1.324,0.015-2.648,0.025-3.971,0.039
			C131.412,48.628,103.272,34.56,84.519,9.33z M162.055,70.586c-3.363-4.896-7.545-9.249-12.059-13.306
			c6.559,4.216,13.102,8.452,19.188,13.237C166.807,70.53,164.43,70.561,162.055,70.586z"/>
		<path d="M105.119,131.633c-2.086-4.445-8.459-5.286-11.365-1.122c-0.181,0.26-0.251,0.567-0.249,0.881
			c-1.734,2.528-2.56,5.913-1.976,8.684c1.072,5.086,6.906,6.295,10.935,3.592C106.18,141.175,106.918,135.472,105.119,131.633z
			 M99.803,139.622c-1.748,1.657-3.8,0.788-4.044-1.344c-0.194-1.695,0.187-3.609,0.917-5.296c1.643-0.491,3.424-1.135,4.198,0.836
			C101.623,135.723,101.317,138.188,99.803,139.622z"/>
		<path d="M57.904,91.126c-0.226-1.373-1.67-2.125-2.91-2.215c-7.41-0.542-17.332-0.701-22.211,6.078
			c-4.167,5.789-4.661,18.235-0.642,24.076c0.563,0.818,1.656,1.151,2.549,0.912c0.071,0.712,0.476,1.36,1.309,1.503
			c6.577,1.123,13.229,1.028,19.836,1.848c1.635,0.202,2.665-1.44,2.811-2.811C59.692,110.68,59.515,100.893,57.904,91.126z
			 M52.348,94.77c0.478,3.29,0.731,6.59,0.871,9.895c-2.912-0.206-5.888,0.035-8.803-0.028c0.275-3.253,0.634-6.623,0.07-9.709
			C47.109,94.551,49.925,94.618,52.348,94.77z M40.119,96.21c-0.363,2.641-0.319,5.459-0.192,8.243
			c-1.504-0.073-3.008-0.147-4.51-0.242c0.118-1.682,0.494-3.35,1.401-4.988C37.578,97.849,38.747,96.901,40.119,96.21z
			 M36.498,117.805c-0.146-0.013-0.265,0.03-0.395,0.053c0.514-3.406-0.318-6.887-0.625-10.34c1.519,0.28,3.067,0.57,4.643,0.847
			c0.038,0.702,0.081,1.416,0.106,2.094c0.105,2.832,0.284,5.371,1.579,7.658C40.035,118.044,38.265,117.947,36.498,117.805z
			 M53.141,117.94c-3.047,0.253-6.102,0.309-9.157,0.245c-0.554-2.574-0.023-6.362,0.154-9.191c3.13,0.429,6.251,0.672,9.186,0.449
			C53.333,112.274,53.283,115.105,53.141,117.94z"/>
		<path d="M153.038,88.565c-0.035-1.612-1.354-3.085-3.032-3.032c-3.192,0.1-6.364,0.424-9.534,0.762
			c-0.652-2.388-4.285-2.228-4.58,0.46c-2.574,0.256-5.154,0.481-7.746,0.541c-1.689,0.039-2.844,1.317-2.951,2.95
			c-0.586,8.911-1.947,17.969-1.375,26.906c0.091,1.427,0.986,2.218,2.012,2.451c-0.128,0.31-0.141,0.646,0.115,0.947
			c2,2.364,5.977,1.894,8.82,2.062c4.724,0.28,9.69,0.576,14.399-0.039c1.296-0.169,2.429-0.762,2.795-2.128
			C154.759,110.009,153.264,99.202,153.038,88.565z M130.823,93.052c1.617-0.09,3.229-0.252,4.843-0.395
			c-0.093,3.866-0.112,7.74-0.054,11.585c0.002,0.202,0.009,0.419,0.012,0.625c-1.914,0.196-3.829,0.375-5.742,0.578
			C130.137,101.313,130.412,97.183,130.823,93.052z M129.503,118.241c-0.215,0.011-0.457,0.02-0.694,0.03
			c0.158-0.32,0.264-0.692,0.299-1.119c0.225-2.853,0.404-5.703,0.578-8.553c2.019,0.107,4.041,0.051,6.062-0.003
			c0.177,3.157,0.633,6.437,1.818,9.246c-0.528,0.027-1.066,0.05-1.592,0.083C133.819,118.066,131.661,118.126,129.503,118.241z
			 M146.575,117.162c-1.85,0.269-3.73,0.403-5.611,0.505c-0.27-3.045-0.593-6.05-0.785-9.089c2.389,0.078,4.752,0.199,6.969-0.712
			C147.083,110.954,146.948,114.046,146.575,117.162z M140.026,104.334c0-0.03-0.002-0.062-0.002-0.093
			c-0.004-3.987,0.383-7.989,0.547-11.983c2.143-0.198,4.283-0.403,6.432-0.517c0.062,4.312,0.21,8.578,0.212,12.843
			C144.869,103.649,142.483,103.974,140.026,104.334z"/>
	</g>
</g>
<g>
</g>
<g>
</g>
<g>
</g>
<g>
</g>
<g>
</g>
<g>
</g>
<g>
</g>
<g>
</g>
<g>
</g>
<g>
</g>
<g>
</g>
<g>
</g>
<g>
</g>
<g>
</g>
<g>
</g>
</svg>
