<?xml version="1.0" ?><svg id="Layer_1" style="enable-background:new 0 0 200 200;" version="1.1" viewBox="0 0 200 200" xml:space="preserve" xmlns="http://www.w3.org/2000/svg" xmlns:xlink="http://www.w3.org/1999/xlink"><g><path d="M118,135.5c-0.6-1.1-1-2.1-1-2.7c0-0.3,0.1-0.5,0.1-0.7c0.1-0.2,0.3-0.6,0.6-0.9c0.3-0.3-0.4-1.8-1.6-3.2   c-1.2-1.5-2.7-2.2-3.5-1.4c-0.7,0.8-1.4,1.7-1.9,2.8c-0.5,1.1-0.8,2.4-0.7,3.7c0.1,2.5,1.1,4.3,1.9,5.8c1.4,2.4,3,4.2,3.9,5.7   c0.5,0.7,0.8,1.3,0.8,2.1c0.1,0.8-0.3,1.9-0.9,2.9c-0.1,0.3,0.8,1.5,1.1,1.3c1.3-0.5,2.6-1.4,3.5-2.9c0.5-0.7,0.7-1.7,0.9-2.6   c0.1-0.9,0.1-1.8-0.1-2.6C120.6,139.6,119,137.4,118,135.5z"/><path d="M103.5,135.5c-0.6-1.1-1-2.1-1-2.7c0-0.3,0.1-0.5,0.1-0.7c0.1-0.2,0.3-0.6,0.6-0.9c0.3-0.3-0.4-1.8-1.6-3.2   c-1.2-1.5-2.7-2.2-3.5-1.4c-0.7,0.8-1.4,1.7-1.9,2.8c-0.5,1.1-0.8,2.4-0.7,3.7c0.1,2.5,1.1,4.3,1.9,5.8c1.4,2.4,3,4.2,3.9,5.7   c0.5,0.7,0.8,1.3,0.8,2.1c0.1,0.8-0.3,1.9-0.9,2.9c-0.1,0.3,0.8,1.5,1.1,1.3c1.3-0.5,2.6-1.4,3.5-2.9c0.5-0.7,0.7-1.7,0.9-2.6   c0.1-0.9,0.1-1.8-0.1-2.6C106.1,139.6,104.5,137.4,103.5,135.5z"/><path d="M89,135.5c-0.6-1.1-1-2.1-1-2.7c0-0.3,0.1-0.5,0.1-0.7c0.1-0.2,0.3-0.6,0.6-0.9c0.3-0.3-0.4-1.8-1.6-3.2   c-1.2-1.5-2.7-2.2-3.5-1.4c-0.7,0.8-1.4,1.7-1.9,2.8c-0.5,1.1-0.8,2.4-0.7,3.7c0.1,2.5,1.1,4.3,1.9,5.8c1.4,2.4,3,4.2,3.9,5.7   c0.5,0.7,0.8,1.3,0.8,2.1c0.1,0.8-0.3,1.9-0.9,2.9c-0.1,0.3,0.8,1.5,1.1,1.3h0c1.3-0.5,2.6-1.4,3.5-2.9c0.5-0.7,0.7-1.7,0.9-2.6   c0.1-0.9,0.1-1.8-0.1-2.6C91.6,139.6,90.1,137.4,89,135.5z"/><path d="M175.3,56.6c-0.1-0.6-0.1-1.2-0.4-1.8c-0.1-0.3-0.2-0.8-0.4-1.1l-0.6-1.1c-0.4-0.5-1.1-1-1.7-1.2c-0.3-0.1-0.7-0.3-1-0.3   c-0.3-0.1-0.6-0.1-0.8-0.2c-1.1-0.2-2-0.3-3-0.4c-2-0.1-3.9-0.1-5.8-0.1c-3.8,0.1-7.6,0.4-11.3,0.6l-1.4,0.1c-0.4,0-0.8,0-1.3,0   l-2.8,0l-5.6-0.1L128,50.7c-15-0.2-30-0.3-45-0.5l-22.5-0.2L49.3,50c-1.6-0.1-3.6-0.3-5.5-0.4c-1.9-0.2-3.8-0.3-5.7-0.4   c-2-0.1-3.9-0.1-6.1,0c-0.3,0-0.5,0-0.8,0.1c-0.3,0-0.5,0.1-0.9,0.1c-0.9,0.2-1.8,0.4-2.6,0.9c-1.6,0.8-2.3,2.8-2.8,4.4   c-0.1,0.7-0.2,1.2-0.2,1.8c-0.1,0.6-0.1,1.1-0.1,1.6c0,1,0,2,0,3c0.1,2,0.2,3.9,0.3,5.8l0.5,5.6l0.1,1.3c0,0.5,0,0.7,0,1.2l0,2.8   c0,3.8,0,7.5,0.1,11.4c0.1,3,0.2,6,0.5,9.1c0.3,3.1,0.9,6.3,2.2,9.6c0.4,0.8,0.7,1.6,1.3,2.4l0.8,1.2c0.3,0.4,0.6,0.8,0.9,1.1   c0.7,0.7,1.4,1.4,2.3,1.9c0.4,0.3,0.8,0.6,1.3,0.8l1.3,0.6c3.6,1.3,6.9,1.3,10,1.3c3.1,0,6-0.2,8.9-0.2c2.8-0.1,5.8,0,8.8,0h17.7   h17.7c2.8,0,5.7,0.2,8.6,0.4l8.8,0.6c11.8,0.7,23.7,1.3,35.8,0.6c5.7-0.4,11.1-1.5,14.8-3.7c0.9-0.5,1.7-1.2,2.4-1.8   c0.6-0.7,1.1-1.4,1.3-2.1c0.4-1.4,0-2.2-0.4-2.2c-0.5-0.1-1,0.4-1.7,0.7c-0.7,0.3-1.8,0.7-3.4,1c-3.1,0.6-8,1-13.4,1.3   c-1.7,0.1-3.4,0.2-5.1,0.2c0.7-2.5,1.6-5,1.9-7.9c0.1-0.8,0.1-1.7-0.1-2.6l-0.2-0.7l-0.3-0.7c-0.2-0.5-0.5-0.9-0.9-1.3   c-1.5-1.6-3.2-2.1-4.8-2.5c-1.6-0.4-3.2-0.6-4.6-0.8c-1.5-0.2-3-0.3-4.4-0.4c-3-0.2-5.9-0.4-8.9-0.5c-5.9-0.2-11.8-0.1-17.6-0.1   c-5.8,0-11.6-0.1-17.4-0.3c-7.1-0.2-14.3-0.4-21.6-0.2c-1.8,0.1-3.6,0.2-5.5,0.3c-1.9,0.2-3.9,0.3-6.2,1.1   c-0.6,0.2-1.2,0.5-1.8,0.8c-0.6,0.4-1.3,0.8-1.8,1.4c-0.3,0.3-0.5,0.6-0.8,1c-0.2,0.4-0.4,0.7-0.6,1.1c-0.2,0.4-0.3,0.7-0.4,1.1   c-0.1,0.4-0.2,0.7-0.2,1.1c-0.3,2.7,0.1,4.6,0.5,6.5c0.2,0.8,0.4,1.4,0.6,2.1l-5.8,0.2c-2.8,0-5.5-0.1-7.5-0.9   c-1.9-0.7-3.2-2-4.1-4.2c-1.8-4.5-2-10.4-2.2-16.2c-0.1-3.7-0.1-7.4-0.1-11.2l0-2.8c0-0.4,0-1.1,0-1.6L32.2,72l-0.5-5.6   c-0.2-1.8-0.3-3.7-0.3-5.4c0-0.9,0-1.8,0-2.6c0-0.4,0-0.8,0.1-1.2c0-0.4,0.1-0.8,0.1-1c0-0.1,0-0.1,0-0.1c0,0,0,0,0,0   c0.2,0,0.7-0.1,1-0.1c1.6-0.1,3.4-0.1,5.2,0c1.8,0.1,3.6,0.2,5.5,0.3c1.9,0.1,3.7,0.3,5.8,0.4l11.4-0.1L83,56.3   c15-0.2,30-0.3,45-0.5l11.2-0.2l5.6-0.1l2.8,0c0.4,0,1,0,1.5,0l1.4-0.1c3.8-0.3,7.5-0.7,11.1-0.9c1.8-0.1,3.7-0.2,5.4-0.1   c0.9,0,1.8,0.1,2.5,0.2c0.2,0,0.4,0.1,0.5,0.1c0.1,0,0.2,0,0.3,0.1c0.2,0.1,0.4,0.2,0.5,0.3c0.2,0.2,0.2,0.4,0.3,0.7   c0.1,0.4,0.2,0.9,0.3,1.3c0.1,1,0.2,2,0.3,3c0.1,2.1,0,4.2-0.1,6.3c-0.1,2.1-0.3,4.2-0.4,6.4c-0.1,2.1-0.4,4.2-0.4,6.5   c0.1,8.5,0.2,17-0.9,25.5v0c-0.7,4.9,0.8,5.3,1.7,0.3v0c1.5-8.5,1.8-17.1,2-25.7c0.1-2,0.4-4.1,0.6-6.3c0.2-2.1,0.5-4.3,0.7-6.4   c0.2-2.2,0.3-4.3,0.3-6.6C175.5,58.9,175.4,57.8,175.3,56.6z M57.6,102.7c0.1-0.4,0.1-0.5,0.2-0.6c0-0.1,0.2-0.1,0.3-0.2   c0.2-0.1,0.3-0.2,0.6-0.3c1.1-0.4,2.6-0.6,4.3-0.7c1.7-0.1,3.5-0.2,5.2-0.3c7-0.2,14.1,0,21.2,0.2c5.9,0.2,11.8,0.2,17.7-0.1   c5.9-0.2,11.7-0.6,17.5-0.8c2.9-0.1,5.8-0.2,8.7-0.3c2.8,0,5.9-0.1,8.4,0.2c1.3,0.2,2.5,0.5,3.1,1c0.6,0.5,0.9,1.5,1,2.8   c0,2.5-0.5,5.3-0.9,8.1c-9.2,0.2-18.6-0.3-27.9-0.8l-8.8-0.5c-2.9-0.2-5.9-0.4-9-0.4H81.5H63.8c-1.9,0-3.8,0-5.7,0   c0.1-1,0.1-2.1-0.1-3.2C57.7,105.2,57.4,103.6,57.6,102.7z"/><path d="M97,82.5H82.6c-1.1,0-2.1,1.5-2.1,3.4s0.9,3.4,2.1,3.4H97c7.8,0,15.7-0.9,23.4-2.6c0.5-0.1,0.5-1.6,0-1.8   C112.6,83.4,104.8,82.5,97,82.5z"/></g></svg>