<?xml version="1.0" ?><svg id="Layer_1" style="enable-background:new 0 0 200 200;" version="1.1" viewBox="0 0 200 200" xml:space="preserve" xmlns="http://www.w3.org/2000/svg" xmlns:xlink="http://www.w3.org/1999/xlink"><g><path d="M167.8,25.4l-0.3,0l-1,0l-4.2-0.1l-6.8-0.1c-6.9-0.1-13.7-0.2-20.6-0.4c-27.4-0.4-54.9-0.6-82.4-0.6l-16.3,0l-3.1,0l-0.8,0   l-0.2,0c0,0-0.1,0-0.1,0l0,0.1l0.2,0.3l0.8,1.4l3.1,5.4l2.5,4.2l1.7,2.7c2.3,3.6,4.7,7.3,7.6,10.6c2.9,3.4,6.3,6.5,10.2,8.9   c3.9,2.4,8.2,4.2,12.6,5.2c3.5,0.8,7,1.1,10.4,1.3c0,0.9,0,1.7,0,2.4c0,1.6,0.1,3.1,0.1,4.7l0,4.8l0,4c-3.8,1.6-7.4,3.7-10.5,6.5   c-5,4.3-8.9,10-11,16.2c-2.2,6.3-2.7,12.9-2.1,19.4c0.7,6.5,2.9,13,6.7,18.5c1.1,1.7,2.5,3.2,3.8,4.7c1.5,1.4,2.9,2.8,4.6,4   c1.4,1.1,2.9,2,4.4,2.9c-0.9,1.9-1.9,3.7-3.1,5.5c-0.3,0.5-0.6,0.9-0.9,1.4c-0.4,0.5-0.5,0.7-0.8,1.1c-0.6,0.7-1.4,1.4-2.4,2.3   l-0.4,0.4l-0.5,0.5c-0.3,0.4-0.7,0.9-1,1.3c-0.6,1-1,2-1.1,3.1c-0.1,1.1,0.4,2.2,0.9,3.1c0.3,0.4,0.6,0.9,1.1,1.3   c0.4,0.4,0.9,0.8,1.3,1.1c1.9,1.2,3.4,1.5,4.7,1.7c1.4,0.3,2.7,0.4,4,0.4c2.6,0.1,5,0,7.4-0.1c4.8-0.3,9.6-0.8,14.2-1.2   c1.1-0.1,2.3-0.2,3.3-0.2c1,0,2.3,0,3.5,0h7.1c9,0,16.2-1.5,16.2-3.4c0-1.9-7.3-3.4-16.2-3.4h-7.1c-1.2,0-2.3,0-3.6,0   c-1.3,0-2.5,0.1-3.7,0.2c-4.8,0.4-9.4,1-14,1.2c-2.3,0.1-4.6,0.2-6.7,0.1c-1.1-0.1-2.1-0.1-3.1-0.3c-0.5-0.1-0.9-0.2-1.3-0.3   l-0.3-0.1c-0.1,0-0.1,0-0.1-0.1l-0.2-0.1l0,0l0.4-0.4c0.8-0.7,1.7-1.6,2.7-2.6c0.4-0.5,1.1-1.3,1.4-1.7c0.4-0.5,0.7-1,1.1-1.5   c1.3-2,2.5-4.1,3.6-6.4c1.8,0.8,3.7,1.2,5.6,1.8c1.9,0.4,3.9,0.9,5.9,1.1c3.9,0.5,7.9,0.5,11.9,0.1c3.9-0.4,7.8-1.3,11.6-2.7   c1.1-0.4,2.1-0.8,3.1-1.3c0.5,0.8,1,1.6,1.5,2.4c2.4,3.8,4.9,7.7,6.8,11.6l0,0c0.4,0.8,0.6,1.4,0.8,1.8c0,0.1,0.2,0.1,0.2,0.2   c0,0.1-0.1,0.2-0.1,0.3c0,0.1,0.1,0.2,0.3,0.2c0.1,0,0.3,0,0.4-0.2c0.2-0.1,0.2-0.3,0.3-0.5c0.2-0.7,0-1.6-0.4-2.6v0   c-1.8-4.3-4.1-8.2-6.3-12.2c-0.4-0.8-0.9-1.5-1.3-2.3c1.8-1,3.5-2,5.1-3.2c6.6-4.7,11.6-11.7,14.1-19.4c1.1-3.7,1.3-7.2,0.8-9.7   c-0.5-2.5-1.3-3.9-2.2-3.9c-0.9,0-1.9,1.4-2.6,3.5c-0.8,2.1-1.6,4.9-2.5,8c-2.1,6.4-6.1,12-11.6,15.9c-2.7,1.9-5.7,3.6-8.9,4.7   c-3.2,1.1-6.5,2-10,2.3c-3.4,0.4-6.9,0.4-10.3-0.1c-1.7-0.1-3.4-0.6-5.1-0.9c-1.6-0.5-3.3-0.9-4.9-1.6c-1.6-0.5-3.1-1.4-4.6-2.1   c-1.4-0.9-2.9-1.7-4.2-2.8c-1.4-1-2.5-2.2-3.8-3.3c-1.1-1.3-2.3-2.5-3.1-3.9c-3.1-4.5-5-9.8-5.6-15.3c-0.6-5.6-0.2-11.3,1.5-16.6   c1.7-5.2,4.8-10,8.9-13.7c4.1-3.8,9.2-6.4,14.6-8c5.4-1.7,11.3-2.2,17-1.6c5.7,0.5,11.4,2.1,16.4,4.9c5,2.8,9.5,6.7,12.5,11.6   c3.1,4.9,4.8,10.7,5.3,16.5v0c0.1,1.5,0.6,2.3,1,2.3c0.4,0,0.8-0.8,0.8-2.4v0c-0.1-6.1-1.5-12.4-4.5-17.9c-3-5.6-7.6-10.2-13-13.6   c-1.1-0.7-2.3-1.4-3.6-2c0.2-1.8,0.4-3.6,0.5-5.4c0.2-2.3,0.3-4.7,0.2-7.1c0-0.6,0-1.2-0.1-1.9c-0.1-0.6-0.1-1.3-0.2-1.9l-0.2-1   c-0.1-0.3-0.2-0.7-0.3-1.1c0,0,0,0,0,0c1.5-0.6,2.4-1.2,2.4-1.9c0-1.3-2.9-2.3-7.1-2.9c-1-0.3-1.9-0.5-2.7-0.6   c-1.8-0.3-3.5-0.3-5.1-0.3c-3.3,0-6.5,0.2-9.7,0.3c-1.6,0.1-3.2,0.2-4.7,0.3l-4.7,0c-0.4,0-0.8,0-1.2,0.1c-1.4,0-2.8,0-4.2-0.1   c-4.2-0.1-8-0.4-11.8-1.2c-3.8-0.8-7.3-2.3-10.5-4.3c-6.4-4-11.3-10.4-15.6-17.4l-1.6-2.6L43.8,31h8.8c27.5,0,54.9-0.2,82.4-0.6   c6.9-0.1,13.7-0.2,20.6-0.4l2.6-0.1l0.9-0.1c0.5,0,1.6-0.3,1,0.4l-0.4,0.8l-0.2,0.4l-0.5,0.9c-0.8,1.5-1.6,3-2.5,4.4   c-1.7,2.9-3.5,5.7-5.5,8.4c-2,2.7-4.3,5.1-6.8,7.2c-1.2,1.1-2.6,2-4,2.9c-1.4,0.8-2.8,1.6-4.4,2.2c-1.5,0.7-3.1,1.1-4.7,1.6   c-0.8,0.2-1.6,0.3-2.4,0.5l-1.2,0.2l-1.2,0.1h0c-1.7,0.1-2.6,0.6-2.6,1c0,0.4,0.9,0.8,2.7,0.7h0l1.3,0l1.3-0.2   c0.9-0.1,1.7-0.2,2.6-0.3c1.7-0.4,3.5-0.7,5.1-1.4c1.7-0.5,3.3-1.4,4.9-2.1c1.5-0.9,3.1-1.8,4.5-2.9c2.8-2.1,5.4-4.6,7.6-7.3   c2.3-2.7,4.3-5.5,6.2-8.4c1-1.4,1.9-2.9,2.8-4.4l1.8-3.1l2.1-3.7l1.1-1.9l0.3-0.5l0.1-0.1C167.9,25.3,167.9,25.4,167.8,25.4z    M115.4,64.7c0.1,0.2,0.1,0.3,0.2,0.6l0.1,0.7c0.1,0.4,0.1,1,0.2,1.5c0.1,0.5,0.1,1,0.1,1.6c0.1,2.1,0.1,4.3,0,6.6   c-0.1,1.2-0.1,2.3-0.2,3.5c-2.9-1-5.9-1.7-8.9-2.1c-6.3-0.9-12.7-0.6-18.9,1.1l0-1.7l0-4.8c0-1.6-0.1-3.3-0.1-4.9   c0-0.7,0-1.5,0-2.1c7.2,0.1,14.3,0,21.4-0.1c2.2,0,4.2-0.2,6-0.4C115.2,64.2,115.3,64.4,115.4,64.7z"/><path d="M127.1,117.1c-0.9,0-1.9,0.9-2.5,2.2c-0.7,1.3-1.4,3-1.9,4.9c-1.3,3.9-3.7,7.3-7.1,9.7c-3.3,2.4-7.4,3.9-11.7,4.3   c-2.1,0.2-4.3,0.2-6.4,0c-2.1-0.2-4.2-0.7-6.1-1.5c-1-0.3-1.9-0.9-2.8-1.3c-0.9-0.6-1.8-1-2.6-1.7c-0.9-0.6-1.5-1.3-2.3-2   c-0.6-0.8-1.4-1.5-1.9-2.4c-1.9-2.7-3-5.9-3.4-9.4c-0.4-3.4-0.1-7,0.9-10.2c1-3.2,2.9-6.1,5.4-8.4c2.5-2.4,5.6-4,9-5.1   c3.4-1.1,7-1.4,10.6-1.1c3.6,0.3,7.2,1.2,10.3,2.9c3.2,1.7,6,4.1,8,7.2c2,3.1,3.2,6.7,3.6,10.4   C126.3,116.6,126.7,117.2,127.1,117.1c0.4,0,0.8-0.5,0.8-1.6v0c0-4-0.8-8.1-2.8-11.8c-1.9-3.7-5-6.8-8.5-9.1   c-3.5-2.3-7.6-3.7-11.8-4.3c-4.2-0.6-8.5-0.5-12.7,0.6c-4.1,1.1-8.2,2.9-11.6,5.8c-3.4,2.9-6,6.7-7.5,10.9c-1.5,4.2-1.8,8.7-1.4,13   c0.4,4.4,1.9,8.8,4.5,12.5c0.7,1.2,1.7,2.2,2.6,3.2c1,0.9,2,1.9,3.1,2.7c1.1,0.9,2.3,1.5,3.4,2.2c1.2,0.6,2.4,1.2,3.7,1.7   c2.5,1,5.1,1.6,7.8,1.9c2.6,0.4,5.3,0.3,7.9,0.1c5.3-0.6,10.5-2.4,14.9-5.6c4.5-3.2,7.9-7.9,9.6-13.1c0.8-2.5,0.7-4.9,0.3-6.6   C128.9,118.1,128.1,117.1,127.1,117.1z"/><path d="M100.1,100.1c-1.7,3.1-2.5,6.2-2.5,9.3v5.7c0,0.4,1.5,0.8,3.4,0.8c1.9,0,3.4-0.4,3.4-0.8v-5.7c0-3.1-0.9-6.2-2.5-9.3   C101.8,99.9,100.2,99.9,100.1,100.1z"/></g></svg>