<svg height="512pt" viewBox="-15 0 512 512.0004" width="512pt" xmlns="http://www.w3.org/2000/svg"><path d="m479.773438.617188c-1.300782-.816407-2.957032-.824219-4.261719-.015626-4.9375 3.050782-9.863281 6.113282-14.78125 9.191407-39.472657 24.699219-78.921875 50.667969-117.25 77.1875-38.3125 26.5-76.523438 54.257812-113.582031 82.496093-37.0625 28.238282-73.960938 57.71875-109.675782 87.621094-35.714844 29.898438-71.21875 61.042969-105.53125 92.570313-6.4375 5.910156-11.519531 10.578125-12.097656 21.144531-.214844 3.894531-.445312 7.785156-.675781 11.679688-.453125 7.59375-.921875 15.441406-1.242188 23.1875-1.019531 24.769531-.886719 49.875.402344 74.621093.140625 2.636719.371094 7.042969 3.4375 10.164063 2.398437 2.449218 5.683594 3.171875 7.859375 3.65625l68.003906 15.050781c6.09375 1.347656 12.789063 2.828125 19.628906 2.828125 2.441407 0 4.898438-.1875 7.355469-.636719 7.175781-1.316406 13.371094-4.597656 20.148438-8.429687 66.800781-37.765625 127.914062-85.101563 181.289062-140 .644531-.363282 1.183594-.914063 1.550781-1.589844 37.917969-39.21875 71.90625-82.261719 101.183594-128.4375.988282-1.5625.789063-3.597656-.484375-4.9375-1.273437-1.339844-3.296875-1.640625-4.90625-.730469-15.015625 8.484375-32.039062 12.902344-49.3125 12.722657-3.964843-.039063-8.441406-.371094-11.546875-2.5625-6.027344-4.25-5.664062-14.191407-4.910156-19.742188 4.445312-32.773438 26.273438-58.398438 43.800781-74.121094 18.085938-16.222656 39.316407-29.34375 59.847657-42.03125 4.695312-2.902344 9.554687-5.902344 14.300781-8.898437 3.890625-2.449219 8.726562-5.503907 11.945312-10.273438 3.8125-5.65625 4.535157-12.558593 5.113281-18.105469l6.257813-59.777343c.15625-1.527344-.566406-3.015625-1.867187-3.832031zm-185.824219 209.335937c-.378907 5.375-.816407 9.789063-2.65625 13.613281-2.058594 4.28125-5.929688 7.753906-9.671875 11.109375l-7.351563 6.589844c-.953125-30.304687-2.679687-60.9375-5.144531-91.144531 8.886719-6.574219 17.816406-13.109375 26.78125-19.59375.539062 26.421875-.105469 53.105468-1.957031 79.425781zm-32.464844-54.171875c2.335937 29.617188 3.96875 59.605469 4.84375 89.246094.027344.957031.398437 1.8125.976563 2.488281l-16.792969 15.0625-3.566407-39.613281c-.136718-1.527344-1.128906-2.84375-2.554687-3.398438-1.429687-.554687-3.050781-.25-4.179687.785156-1.46875 1.34375-2.984376 2.644532-4.515626 3.925782l-4.703124-42.960938c-.082032-.730468-.363282-1.382812-.765626-1.933594 1.519532-1.164062 3.039063-2.335937 4.558594-3.496093 8.835938-6.730469 17.746094-13.4375 26.699219-20.105469zm-121.871094 206.253906c-.960937-13.625-1.894531-26.652344-3.226562-40.535156 2.894531-2.015625 5.722656-4.152344 8.464843-6.386719l3.257813 36.203125c.078125.847656.417969 1.628906.949219 2.25zm16.496094-14.796875c-.09375-.195312-.199219-.386719-.324219-.5625l-3.609375-40.105469c-.136719-1.527343-1.128906-2.84375-2.554687-3.398437-1.429688-.554687-3.050782-.25-4.179688.785156-1.152344 1.050781-2.328125 2.082031-3.519531 3.097657-.695313-18.015626-1.929687-36.179688-3.695313-54.085938-.011718-.105469-.042968-.207031-.0625-.3125 6.851563-5.671875 13.75-11.320312 20.671876-16.949219l9.675781 98.9375c.039062.425781.160156.816407.320312 1.1875zm19.984375-17.921875-9.703125-99.203125c-.015625-.164062-.058594-.316406-.09375-.472656 6.335937-5.117187 12.699219-10.203125 19.074219-15.273437l9.046875 46.015624c.011719.066407.039062.125.054687.191407-2.234375 1.71875-4.515625 3.382812-6.84375 4.945312-1.234375.828125-1.914062 2.269531-1.765625 3.746094 1.527344 15.441406 2.53125 29.773437 3.597657 44.945313l.207031 2.933593zm21.175781-18.988281c-.933593-13.242187-1.851562-25.957031-3.152343-39.480469 2.894531-2.015625 5.722656-4.152344 8.464843-6.386718l3.257813 36.203124c.050781.554688.222656 1.078126.476562 1.546876zm16.226563-14.554687-3.585938-39.855469c-.136718-1.527344-1.128906-2.84375-2.558594-3.398438-1.425781-.554687-3.046874-.25-4.179687.785157-.539063.492187-1.097656.964843-1.644531 1.449218l-8.78125-44.660156c-.085938-.441406-.253906-.839844-.464844-1.210938 10.285156-8.132812 20.617188-16.183593 30.972656-24.152343l4.960938 45.355469c-1.171875.847656-2.355469 1.679687-3.554688 2.484374-1.230468.828126-1.910156 2.265626-1.761718 3.746094 1.523437 15.414063 2.527343 29.722656 3.589843 44.867188l.195313 2.761718zm20.792968-18.648438c-.929687-13.152344-1.84375-25.789062-3.136718-39.226562 2.894531-2.015626 5.722656-4.152344 8.464844-6.386719l3.257812 36.199219c.046875.488281.183594.945312.382812 1.367187zm-108.890624-13.84375c1.753906-1.472656 3.523437-2.933594 5.285156-4.402344 1.660156 17.90625 2.800781 36.039063 3.382812 53.972656.003906.125.03125.242188.046875.363282-1.390625 1.011718-2.796875 2-4.21875 2.957031-1.234375.828125-1.910156 2.265625-1.765625 3.746094 1.523438 15.386719 2.527344 29.671875 3.589844 44.796875l.234375 3.335937c.015625.253907.0625.503907.125.742188l-11.515625 10.328125c-.058594-.105469-.109375-.214844-.175781-.3125l-3.609375-40.105469c-.136719-1.527344-1.128906-2.84375-2.558594-3.398437-1.425781-.554688-3.046875-.25-4.179688.785156-1.007812.921875-2.042968 1.820312-3.082031 2.714844-1.378906-17.84375-3.519531-35.769532-6.382812-53.394532-.050781-.3125-.144531-.605468-.261719-.886718 8.34375-7.140626 16.707031-14.230469 25.085938-21.242188zm-85.386719 74.25c7.375-6.65625 14.792969-13.285156 22.25-19.882812.460937 19.152343 1.90625 38.449218 4.332031 57.433593.046875.359375.152344.691407.285156 1.011719-1.753906 1.308594-3.527344 2.585938-5.335937 3.800781-1.234375.828125-1.914063 2.265625-1.765625 3.746094 1.523437 15.414063 2.527344 29.722656 3.59375 44.871094l.125 1.789062-7.738282 6.941407c-4.855468 4.351562-9.835937 8.816406-15.308593 12.277343-1.457031-36.933593-1.585938-74.300781-.382813-111.183593.007813-.273438-.007812-.542969-.054687-.804688zm31.085937 85.949219c-.902344-12.804688-1.804687-25.148438-3.066406-38.257813 2.894531-2.015625 5.722656-4.148437 8.46875-6.386718l3.257812 36.203124c.015626.199219.050782.394532.097657.589844zm16.207032-14.53125-3.480469-38.660157c-.136719-1.527343-1.128907-2.839843-2.554688-3.394531-1.429687-.554687-3.050781-.253906-4.179687.78125-.96875.882813-1.957032 1.742188-2.953125 2.601563-2.304688-19.082032-3.632813-38.441406-3.921875-57.621094-.007813-.601562-.15625-1.167969-.398438-1.679688 7.769532-6.832031 15.578125-13.617187 23.410156-20.359374 2.796876 17.945312 4.847657 36.171874 6.085938 54.273437-1.585938 1.171875-3.1875 2.316406-4.820312 3.414063-1.234376.828124-1.910157 2.265624-1.765626 3.742187 1.523438 15.414063 2.53125 29.722656 3.59375 44.871094l.230469 3.261719c.007813.140624.042969.273437.066407.410156zm13.679687-55.316407c2.894531-2.015624 5.722656-4.152343 8.464844-6.386718l3.257812 36.203125c.066407.75.351563 1.4375.777344 2.019531l-9.300781 8.339844c-.949219-13.496094-1.875-26.414063-3.199219-40.175782zm22.558594 142.285157c-6.132813 3.464843-11.691407 6.421875-17.632813 7.511719-7.738281 1.417968-15.902344-.386719-23.789062-2.132813l-68.003906-15.050781c-1.394532-.308594-3.125-.691406-3.847657-1.429688-.929687-.945312-1.058593-3.441406-1.140625-4.933594-1.273437-24.5-1.40625-49.351562-.394531-73.871093.316406-7.671875.78125-15.484375 1.230469-23.039063.234375-3.90625.464844-7.8125.679687-11.71875.386719-7.011718 3.027344-9.703125 9.5-15.652344 3.875-3.558593 7.769531-7.109374 11.671875-10.660156-1.039062 37.015625-.769531 74.449219.84375 111.402344.058594 1.34375.78125 2.566406 1.929688 3.269531.644531.386719 1.367187.585938 2.097656.585938.578125 0 1.152344-.125 1.691406-.371094 8.808594-4.074219 15.902344-10.4375 22.761719-16.585937l43.382813-38.910157c.507812-.0625 1.011718-.21875 1.484374-.484375 27.8125-15.597656 55.652344-29.953125 80.515626-41.511718 4.226562-1.96875 8.242187-3.792969 12.222656-5.335938-3.5625 5.4375-7.480469 10.699219-11.308594 15.847656-6.859375 9.226563-13.957031 18.765625-19.183594 29.398438-.804687 1.640625-.410156 3.617187.96875 4.816406.960938.839844 2.371094 1.597656 4.339844 1.597656 1.429688 0 3.152344-.398437 5.207031-1.457031 15.984375-8.226563 31.652344-17.527344 46.804688-26.523437 13.289062-7.886719 27.035156-16.046876 40.867187-23.398438 1.628906-.867188 3.476563-1.851562 5.164063-2.101562 2.007812-.296876 4.398437.328124 6.707031.933593l20.59375 5.410157c-51.855469 52.566406-110.9375 97.972656-175.363281 134.394531zm343.820312-432.53125c-.511719 4.898437-1.09375 10.449219-3.78125 14.4375-2.097656 3.117187-5.425781 5.355469-9.558593 7.960937-4.71875 2.976563-9.558594 5.96875-14.238282 8.859375-20.832031 12.875-42.371094 26.1875-60.996094 42.890625-18.535156 16.625-41.632812 43.835938-46.40625 79.039063-1.722656 12.707031 1.207032 22.445312 8.257813 27.414062 4.917969 3.464844 10.90625 3.984375 16.113281 4.035157 13.777344.113281 27.488282-2.441407 40.253906-7.503907-26.96875 40.886719-57.707031 79.175781-91.636718 114.367188l-25.011719-6.566407c-2.804687-.738281-6.292969-1.65625-9.941406-1.113281-3.058594.457031-5.667969 1.839844-7.765625 2.957031-14 7.441407-27.824219 15.648438-41.195313 23.585938-13.433593 7.972656-27.273437 16.191406-41.304687 23.632812 4.167968-6.832031 9.019531-13.351562 13.753906-19.71875 6.078125-8.171874 12.363281-16.621093 17.347656-25.832031.757813-1.398437.621094-3.113281-.351562-4.375-.96875-1.261719-2.59375-1.835937-4.140625-1.460937-8.132813 1.96875-15.515625 5.253906-23.636719 9.03125-16.75 7.785156-34.839844 16.835937-53.355469 26.667968l157.234375-141.015624c4.125-3.703126 8.804688-7.898438 11.558594-13.621094 2.652344-5.515625 3.082031-11.628906 3.429688-16.542969 1.996093-28.410156 2.617187-57.238281 1.851562-85.71875 14.6875-10.550781 29.445312-20.964844 44.222656-31.183594 38.226563-26.449219 77.574219-52.351562 116.941406-76.984375 2.582032-1.617187 5.167969-3.230468 7.757813-4.839844zm0 0"/><path d="m318.453125 238.734375c-1.511719-1.632813-4.0625-1.730469-5.695313-.21875-22.160156 20.535156-45.308593 40.578125-68.796874 59.578125-1.730469 1.402344-1.996094 3.941406-.597657 5.671875.796875.984375 1.964844 1.496094 3.136719 1.496094.890625 0 1.789062-.292969 2.535156-.898438 23.625-19.113281 46.910156-39.277343 69.203125-59.929687 1.632813-1.515625 1.726563-4.066406.214844-5.699219zm0 0"/><path d="m329.035156 253.722656c-1.515625-1.632812-4.066406-1.730468-5.699218-.214844-22.164063 20.535157-45.308594 40.578126-68.792969 59.578126-1.730469 1.398437-2 3.9375-.597657 5.667968.796876.984375 1.960938 1.496094 3.136719 1.496094.890625 0 1.785157-.292969 2.53125-.898438 23.625-19.109374 46.910157-39.273437 69.207031-59.929687 1.628907-1.515625 1.726563-4.066406.214844-5.699219zm0 0"/><path d="m264.964844 335.949219c.796875.984375 1.960937 1.496093 3.136718 1.496093.890626 0 1.785157-.292968 2.53125-.898437 23.625-19.109375 46.90625-39.273437 69.203126-59.933594 1.632812-1.511719 1.730468-4.0625.21875-5.695312-1.515626-1.632813-4.0625-1.730469-5.695313-.21875-22.164063 20.539062-45.3125 40.582031-68.796875 59.578125-1.730469 1.398437-1.996094 3.9375-.597656 5.671875zm0 0"/><path d="m103.617188 426.730469c-12.277344-.941407-28.300782 14.648437-30.332032 26.320312-.816406 4.6875.617188 9.371094 3.742188 12.234375 2.414062 2.207032 5.691406 3.378906 10.027344 3.585938.476562.023437.960937.035156 1.4375.035156 8.207031 0 16.484374-3.304688 22.390624-8.996094 6-5.785156 8.601563-16.148437 5.925782-23.585937-2.054688-5.695313-6.738282-9.105469-13.191406-9.59375zm1.667968 27.375c-4.679687 4.511719-11.367187 7.023437-17.847656 6.714843-2.34375-.113281-4.011719-.609374-4.964844-1.484374-1.082031-.992188-1.582031-2.960938-1.246094-4.902344 1.578126-9.070313 14.28125-19.683594 21.285157-19.683594.167969 0 .332031.007812.492187.019531 3.234375.246094 5.265625 1.648438 6.214844 4.285157 1.601562 4.453124-.234375 11.484374-3.933594 15.050781zm0 0"/><path d="m139.582031 438.785156c-6.785156.875-12.730469 6.519532-15.621093 11.726563-2.285157 4.117187-2.871094 8.355469-1.640626 11.925781 2.015626 5.851562 8.125 8.589844 13.855469 8.589844.78125 0 1.558594-.050782 2.316407-.152344 6.289062-.839844 11.910156-4.585938 14.65625-9.777344 3.136718-5.914062 2.222656-13.542968-2.167969-18.132812-3.148438-3.289063-7.085938-4.738282-11.398438-4.179688zm6.441407 18.539063c-1.546876 2.929687-4.84375 5.058593-8.597657 5.558593-2.953125.394532-6.652343-.667968-7.480469-3.070312-.46875-1.359375-.078124-3.324219 1.066407-5.386719 0-.003906 0-.003906 0-.003906 1.855469-3.34375 5.851562-7.15625 9.601562-7.640625.246094-.03125.488281-.046875.722657-.046875 1.421874 0 2.652343.585937 3.820312 1.804687 2.027344 2.121094 2.402344 5.894532.867188 8.785157zm0 0"/><path d="m127.492188 404.039062c-4.203126.511719-7.472657 3.21875-9.210938 7.625-1.875 4.75-1.089844 9.449219 2.210938 13.222657 5.257812 6.023437 15.96875 8.753906 23.808593 8.753906 2.074219 0 3.949219-.191406 5.46875-.5625 4.023438-.992187 6.558594-3.390625 6.949219-6.585937.347656-2.828126-1.222656-5.03125-1.890625-5.972657-2.867187-4.019531-16.429687-17.820312-27.335937-16.480469zm20.351562 21.207032c-5.070312 1.242187-17.109375-.886719-21.28125-5.664063-1.320312-1.511719-1.554688-2.996093-.78125-4.960937.933594-2.367188 2.117188-2.511719 2.6875-2.582032.191406-.023437.386719-.03125.59375-.03125 5.585938 0 15.828125 8.507813 19.152344 13.132813-.109375.035156-.234375.070313-.371094.105469zm0 0"/><path d="m183.515625 416.414062c-4.164063-.253906-8.3125 2-11.96875 6.53125-2.6875 3.324219-4.800781 7.554688-5.519531 11.042969-.796875 3.875.1875 7.671875 2.640625 10.152344 2.015625 2.042969 4.929687 3.117187 8.351562 3.117187.730469 0 1.488281-.046874 2.261719-.148437 5.195312-.667969 9.890625-3.167969 12.878906-6.863281 3.523438-4.359375 4.371094-11.074219 2.054688-16.328125-1.964844-4.46875-5.863282-7.203125-10.699219-7.503907zm2.375 18.761719c-1.695313 2.097657-4.480469 3.53125-7.636719 3.9375-1.765625.226563-3.238281-.015625-3.851562-.636719-.519532-.527343-.714844-1.703124-.476563-2.859374.949219-4.605469 5.773438-11.15625 8.953125-11.15625.046875 0 .09375 0 .140625.003906 1.816407.113281 3.066407.996094 3.816407 2.703125 1.09375 2.480469.679687 6-.945313 8.007812zm0 0"/><path d="m227.324219 394.660156c-4.601563-3.503906-10.859375-4.246094-15.941407-1.890625-4.691406 2.175781-8.898437 7.902344-10.226562 13.917969-1.042969 4.742188-.195312 9.042969 2.398438 12.105469 2.375 2.808593 6.066406 4.417969 10.03125 4.417969.351562 0 .707031-.011719 1.0625-.039063 3.367187-.242187 6.714843-1.570313 9.953124-3.953125 4.34375-3.1875 7.144532-7.394531 7.890626-11.84375.8125-4.875-1.117188-9.625-5.167969-12.714844zm-2.785157 11.382813c-.535156 3.195312-3.183593 5.554687-4.710937 6.679687-1.96875 1.445313-3.960937 2.28125-5.761719 2.410156-1.742187.132813-3.457031-.480468-4.359375-1.546874-1.253906-1.480469-.960937-3.867188-.675781-5.15625.78125-3.546876 3.304688-7.210938 5.746094-8.34375.867187-.40625 1.851562-.597657 2.859375-.597657 1.6875 0 3.433593.546875 4.796875 1.589844 1.1875.902344 2.515625 2.5 2.105468 4.964844zm0 0"/><path d="m331.890625 116.140625c-4.625-.300781-8.761719 2.503906-11.371094 7.703125-3.667969 7.296875-3.011719 17.683594-2.484375 26.03125.117188 1.800781.222656 3.5.277344 5.019531.097656 2.71875.398438 10.992188 6.914062 13.976563 1.320313.601562 2.683594.871094 4.027344.871094 3.699219 0 7.261719-2.03125 9.40625-4.679688 2.664063-3.289062 3.605469-7.277344 4.273438-10.757812 1.03125-5.351563 1.640625-10.285157 1.863281-15.078126.179687-3.804687.15625-8.28125-1.359375-12.640624-2.125-6.117188-6.550781-10.117188-11.546875-10.445313zm4.847656 22.703125c-.203125 4.410156-.769531 8.964844-1.722656 13.933594-.507813 2.636718-1.128906 5.367187-2.621094 7.207031-1.039062 1.28125-2.824219 2.011719-3.8125 1.554687-1.285156-.589843-2.070312-3.050781-2.210937-6.933593-.058594-1.632813-.171875-3.382813-.289063-5.238281-.464843-7.375-1.046875-16.558594 1.640625-21.902344 1.085938-2.164063 2.382813-3.359375 3.640625-3.277344 1.332031.089844 3.296875 1.703125 4.457031 5.042969 1.0625 3.066406 1.0625 6.578125.917969 9.613281zm0 0"/><path d="m363.554688 89.800781c-4.59375-.292969-8.757813 2.503907-11.371094 7.703125-3.667969 7.296875-3.011719 17.683594-2.480469 26.03125.113281 1.800782.21875 3.5.277344 5.019532.097656 2.722656.390625 10.992187 6.910156 13.976562 1.320313.605469 2.683594.871094 4.027344.871094 3.703125 0 7.261719-2.03125 9.40625-4.679688 2.664062-3.285156 3.601562-7.277344 4.273437-10.757812 1.03125-5.34375 1.640625-10.277344 1.863282-15.082032.179687-3.804687.15625-8.28125-1.359376-12.636718-2.125-6.113282-6.550781-10.113282-11.546874-10.445313zm4.851562 22.707031c-.207031 4.414063-.773438 8.96875-1.726562 13.929688-.507813 2.640625-1.128907 5.371094-2.617188 7.207031-1.042969 1.285157-2.820312 2.007813-3.816406 1.554688-1.285156-.589844-2.070313-3.050781-2.210938-6.933594-.058594-1.632813-.167968-3.382813-.285156-5.238281-.46875-7.378906-1.046875-16.558594 1.640625-21.902344 1.050781-2.09375 2.328125-3.28125 3.519531-3.28125.039063 0 .082032 0 .117188.003906 1.335937.085938 3.296875 1.703125 4.457031 5.042969 1.0625 3.0625 1.0625 6.582031.921875 9.617187zm0 0"/><path d="m396.40625 66.128906c-4.636719-.304687-8.761719 2.503906-11.375 7.699219-3.664062 7.296875-3.007812 17.6875-2.480469 26.035156.113281 1.796875.222657 3.496094.277344 5.019531.097656 2.71875.394531 10.988282 6.910156 13.972657 1.324219.605469 2.683594.871093 4.03125.871093 3.699219 0 7.257813-2.03125 9.402344-4.679687 2.667969-3.289063 3.605469-7.277344 4.273437-10.757813 1.03125-5.339843 1.640626-10.273437 1.867188-15.078124.175781-3.804688.152344-8.28125-1.363281-12.640626-2.125-6.113281-6.546875-10.113281-11.542969-10.441406zm4.847656 22.703125c-.207031 4.414063-.769531 8.972657-1.726562 13.933594-.507813 2.636719-1.125 5.363281-2.617188 7.207031-1.039062 1.28125-2.816406 2.007813-3.816406 1.550782-1.28125-.589844-2.070312-3.050782-2.210938-6.933594-.058593-1.628906-.167968-3.382813-.285156-5.238282-.46875-7.375-1.046875-16.554687 1.640625-21.902343 1.085938-2.160157 2.367188-3.371094 3.640625-3.277344 1.332032.089844 3.292969 1.703125 4.453125 5.042969 1.066407 3.066406 1.066407 6.582031.921875 9.617187zm0 0"/><path d="m431.917969 41.269531c-4.625-.304687-8.761719 2.503907-11.371094 7.699219-3.667969 7.296875-3.011719 17.6875-2.484375 26.035156.113281 1.796875.222656 3.496094.277344 5.019532.097656 2.71875.394531 10.988281 6.914062 13.972656 1.320313.605468 2.683594.875 4.027344.875 3.699219 0 7.257812-2.035156 9.40625-4.679688 2.660156-3.285156 3.601562-7.277344 4.273438-10.761718 1.027343-5.34375 1.636718-10.277344 1.863281-15.078126.175781-3.804687.152343-8.28125-1.363281-12.640624-2.125-6.113282-6.546876-10.113282-11.542969-10.441407zm4.847656 22.703125c-.207031 4.414063-.769531 8.972656-1.722656 13.933594-.511719 2.636719-1.132813 5.367188-2.621094 7.207031-1.039063 1.28125-2.820313 2.007813-3.8125 1.550781-1.289063-.585937-2.074219-3.050781-2.210937-6.929687 0-.003906 0-.003906 0-.003906-.058594-1.628907-.171876-3.382813-.289063-5.238281-.464844-7.375-1.046875-16.554688 1.640625-21.902344 1.050781-2.09375 2.328125-3.28125 3.523438-3.28125.039062 0 .078124.003906.117187.003906 1.332031.089844 3.292969 1.703125 4.457031 5.042969 1.0625 3.066406 1.0625 6.582031.917969 9.617187zm0 0"/><path d="m51.632812 462.144531c-2.183593-.40625-4.292968 1.042969-4.695312 3.234375l-1.847656 10.007813c-.402344 2.191406 1.042968 4.292969 3.234375 4.695312.246093.046875.492187.066407.734375.066407 1.90625 0 3.601562-1.355469 3.960937-3.300782l1.84375-10.007812c.40625-2.1875-1.042969-4.292969-3.230469-4.695313zm0 0"/><path d="m70.839844 469.378906c-2.210938-.359375-4.269532 1.132813-4.628906 3.332032l-1.355469 8.304687c-.359375 2.195313 1.132812 4.269531 3.332031 4.628906.21875.035157.4375.050781.652344.050781 1.941406 0 3.652344-1.402343 3.976562-3.382812l1.351563-8.304688c.359375-2.199218-1.132813-4.269531-3.328125-4.628906zm0 0"/><path d="m92.558594 473.925781c-2.171875-.515625-4.34375.820313-4.859375 2.984375-.824219 3.429688-1.304688 6.960938-1.433594 10.488282-.082031 2.222656 1.65625 4.09375 3.882813 4.175781h.148437c2.160156 0 3.949219-1.707031 4.027344-3.882813.109375-2.996094.519531-5.992187 1.214843-8.90625.519532-2.164062-.816406-4.339844-2.980468-4.859375zm0 0"/><path d="m112.015625 473.839844c-2.238281-.160156-4.144531 1.527344-4.296875 3.746094l-.75 11.066406c-.152344 2.21875 1.527344 4.144531 3.746094 4.296875.09375.003906.1875.007812.28125.007812 2.097656 0 3.871094-1.628906 4.019531-3.757812l.75-11.066407c.148437-2.21875-1.527344-4.144531-3.75-4.292968zm0 0"/><path d="m319.601562 204.839844c2.226563 0 4.03125-1.804688 4.03125-4.03125v-14.527344c0-2.226562-1.804687-4.03125-4.03125-4.03125-2.226562 0-4.03125 1.804688-4.03125 4.03125v14.527344c0 2.226562 1.804688 4.03125 4.03125 4.03125zm0 0"/></svg>