<svg height="511pt" viewBox="-40 0 511 511.99932" width="511pt" xmlns="http://www.w3.org/2000/svg"><path d="m387.082031 104.644531c2.148438 0 4.308594-.179687 6.453125-.550781 19.308594-3.367188 35.246094-21.308594 37.074219-41.734375 1.703125-19.007813-8.574219-39.144531-25.570313-50.105469-20.699218-13.34375-49.855468-12.09375-69.335937 2.972656-12.769531 9.878907-21.730469 25.097657-25.523437 43.160157-.261719-.050781-.53125-.082031-.808594-.082031 0 0 0 0-.003906 0-5.207032.003906-10.308594.011718-15.335938.019531.167969-1.550781.332031-3.144531.410156-4.777344.253906-5.285156-.558594-9.542969-2.492187-13.015625-2.726563-4.886719-7.910157-7.90625-12.902344-7.515625-6.691406.519531-11.308594 6.609375-12.410156 12.355469-.875 4.566406-.042969 9.125.886719 13.042968-4.238282.023438-8.414063.046876-12.535157.074219.386719-4.691406-.179687-8.835937-1.710937-12.316406-2.207032-5.027344-6.417969-8.597656-11.265625-9.550781-6.101563-1.199219-12.796875 2.128906-15.921875 7.914062-2.238282 4.144532-2.613282 9.375-1.140625 14.214844-2.503907.027344-4.992188.054688-7.460938.085938.902344-3.609376 1.042969-7.15625.382813-10.40625-1.042969-5.164063-4.191406-9.632813-8.421875-11.960938-5.003907-2.75-11.191407-2.324219-15.390625 1.070312-2.261719 1.824219-3.976563 4.496094-5.09375 7.945313-1.4375 4.4375-1.644532 9.234375-.667969 13.789063-4.253906.078124-8.464844.160156-12.644531.242187.113281-.507813.125-1.046875.023437-1.589844-.253906-1.351562-.273437-2.855469-.292969-4.445312-.015624-1.03125-.03125-2.09375-.105468-3.191407-.304688-4.351562-1.667969-7.726562-4.050782-10.027343-2.03125-1.960938-4.761718-3.160157-8.351562-3.660157-7.546875-1.058593-14.640625 1.539063-18.507812 6.777344-3.285157 4.453125-4.074219 10.449219-2.367188 16.949219-5.816406.164063-11.605469.335937-17.390625.519531-1.140625-3.933594-2.429687-7.769531-3.902344-11.488281-6.230469-15.742187-14.941406-28.089844-25.890625-36.703125-12.949218-10.191406-29.316406-14.617188-43.773437-11.84375-16.480469 3.160156-31.722657 15.671875-41.824219 34.320312-10.289062 19-13.640625 45.523438 2.078125 61.941407 7.152344 7.472656 17.886719 12.257812 31.90625 14.214843 22.054687 3.082032 35.679687-2.867187 43.300781-8.523437-1.179687 22.769531-14.554687 45.644531-27.539062 67.84375-3.980469 6.804687-8.097656 13.839844-11.722656 20.671875-24.777344 46.671875-35.261719 95.160156-30.316407 140.21875 5.632813 51.320312 32.355469 97.207031 71.484375 122.75 13.566406 8.855469 29.128906 15.835938 47.8125 21.359375l-.058594 18.917969c-.007812 2.128906-.015624 4.78125 1.1875 7.371094 3.042969 6.558593 11.28125 7.527343 14.382813 7.890624 16.027344 1.878907 32.261719 2.210938 48.214844 2.210938 4.375 0 8.734375-.027344 13.054687-.050781 26.492188-.152344 53.886719-.308594 80.820313-2.046875 1.945312-.125 4.613281-.296875 7.046875-1.773438 3.84375-2.328125 5.140625-6.621094 5.78125-9.652344 1.492187-7.050781 1.472656-14.460937-.015625-21.515624 2.09375-.699219 4.179687-1.417969 6.242187-2.179688 50.875-18.777344 90.1875-57.25 105.152344-102.921875 9.488281-28.953125 10.039062-63.320313 1.582031-99.394531-7.78125-33.21875-22.3125-65.226563-35.320312-92.621094l-.179688-.378906c-13.007812-27.394532-26.429687-55.679688-23.585937-84.488282 7.371094 6.019532 16.878906 9.671876 26.554687 9.667969zm-271.714843 98.339844c.363281 14.828125.777343 29.648437 1.1875 44.171875.59375 21.253906 1.207031 43.136719 1.652343 64.75-4.792969-8.28125-8.246093-17.105469-10.140625-26.175781-3.757812-18.011719-1.484375-36.671875 1.230469-52.546875 1.722656-10.066406 3.863281-20.214844 6.070313-30.199219zm9.246093 43.945313c-.683593-24.355469-1.390625-49.539063-1.84375-74.195313-.007812-.570313-.140625-1.113281-.367187-1.605469 1.988281-9.460937 3.828125-19.023437 5.242187-28.597656 2.375-16.101562 3.285157-30.949219 2.734375-44.703125 5.800782-.355469 11.613282-.6875 17.433594-.992187-1.457031 82.28125-1.21875 165.644531.695312 247.945312-8.71875-6.203125-16.332031-13.484375-22.601562-21.503906.351562-.609375.5625-1.316406.546875-2.074219-.449219-24.695313-1.15625-49.898437-1.839844-74.273437zm32.078125 103.152343c-2.035156-84.152343-2.304687-169.476562-.808594-253.65625 8.800782-.425781 17.613282-.800781 26.433594-1.113281-1.46875 88.3125-1.652344 177.816406-.554687 266.144531-8.980469-3.03125-17.386719-6.832031-25.070313-11.375zm33.164063 13.855469c-1.136719-89.222656-.957031-179.667969.53125-268.886719 8.214843-.257812 16.4375-.464843 24.664062-.621093-.167969 90.910156-1.496093 183.019531-3.953125 273.875-7.335937-1.023438-14.433594-2.484376-21.242187-4.367188zm33.257812-269.644531c8.191407-.121094 16.382813-.191407 24.574219-.210938l-7.050781 164.632813c-1.546875 36.117187-3.144531 73.46875-1.734375 110.304687.015625.367188.09375.714844.199218 1.050781-3.203124.046876-6.46875.015626-9.816406-.121093-3.421875-.140625-6.804687-.375-10.144531-.691407 2.46875-91.210937 3.808594-183.691406 3.972656-274.964843zm25.578125 164.765625 7.066406-164.984375c5.859376.007812 11.722657.042969 17.574219.101562 1.769531 89.722657 2.527344 180.699219 2.246094 270.414063-8.671875 2.777344-18.273437 4.507812-28.734375 5.179687.078125-.339843.128906-.691406.113281-1.058593-1.394531-36.511719.195313-73.695313 1.734375-109.652344zm32.710938-164.777344c7.503906.105469 15 .257812 22.484375.449219.582031 81.496093 3.105469 164.054687 7.511719 245.398437.039062.671875.253906 1.289063.574218 1.832032-7.34375 7.484374-15.660156 13.609374-24.640625 17.964843-1.203125.582031-2.433593 1.132813-3.683593 1.664063.253906-88.707032-.5-178.617188-2.246094-267.308594zm37.75 239.542969c-3.871094-73-6.21875-146.921875-7.015625-220.144531.183593.839843.359375 1.675781.554687 2.53125 3.550782 15.597656 8.550782 30.992187 13.386719 45.875 4.539063 13.976562 9.238281 28.425781 12.660156 42.875 7.757813 32.730468 8.085938 62.355468.976563 88.050781-4.21875 15.253906-11.355469 29.210937-20.5625 40.8125zm-44.597656-286.9375c.519531-2.710938 2.578124-5.636719 5.117187-5.835938 1.84375-.136719 4.054687 1.289063 5.230469 3.40625 1.179687 2.117188 1.664062 4.960938 1.484375 8.703125-.074219 1.511719-.234375 3.03125-.40625 4.640625-.019531.183594-.007813.363281-.003907.542969-3.421874.011719-6.816406.023438-10.160156.035156-.972656-3.882812-1.953125-7.890625-1.261718-11.492187zm-41.230469 11.222656c-1.566407-3.265625-1.621094-7-.136719-9.746094 1.441406-2.664062 4.640625-4.347656 7.269531-3.828125 2.191407.429688 4.328125 2.347656 5.441407 4.882813 1.054687 2.398437 1.390624 5.472656.996093 9.125-4.519531.035156-8.976562.074219-13.371093.117187-.058594-.1875-.113282-.371094-.199219-.550781zm-36.683594-10.140625c.625-1.933594 1.460937-3.332031 2.484375-4.160156 1.628906-1.316406 4.339844-1.429688 6.441406-.273438 2.175782 1.195313 3.824219 3.625 4.40625 6.496094.535156 2.652344.210938 5.730469-.925781 8.914062-4.203125.058594-8.355469.121094-12.46875.1875-1.117187-3.617187-1.105469-7.5625.0625-11.164062zm-45.78125.195312c2.074219-2.8125 6.355469-4.210937 10.902344-3.578124 1.8125.253906 3.113281.75 3.863281 1.472656.894531.867187 1.449219 2.523437 1.609375 4.792968.058594.871094.074219 1.777344.085937 2.738282.027344 1.863281.050782 3.785156.429688 5.816406.019531.097656.058594.183594.082031.277344-5.867187.128906-11.683593.269531-17.460937.417968-1.085938-3.136718-2.191406-8.304687.488281-11.9375zm158 18.207032c-.796875 6.46875-.996094 13.214844-.585937 20.40625-59.242188-1.65625-119.253907-.644532-178.410157 3.003906-.625-7.289062-1.675781-14.265625-3.179687-20.933594 54.1875-1.695312 108.867187-2.4375 182.175781-2.476562zm-10.09375 430.4375c-.511719 2.414062-1.210937 3.902344-2.074219 4.425781-.746094.453125-2.210937.546875-3.386718.621094-26.699219 1.726562-53.972657 1.878906-80.351563 2.03125-19.839844.117187-40.351563.234375-60.28125-2.105469-4.617187-.539062-7.234375-1.613281-8.007813-3.273438-.445312-.964843-.441406-2.484374-.4375-3.953124l.050782-16.714844c6.277344 1.640625 12.871094 3.152344 19.859375 4.519531 22.546875 4.417969 44.171875 6.621094 64.804687 6.621094 24.828125 0 48.203125-3.203125 69.964844-9.585938 1.101562 5.726563 1.066406 11.710938-.140625 17.414063zm78.0625-313.882813.179687.378907c13.417969 28.253906 27.152344 58.554687 34.753907 91 8.117187 34.632812 7.636719 67.5-1.394531 95.042968-14.207032 43.351563-51.695313 79.9375-100.28125 97.871094-41.710938 15.394531-90.292969 17.824219-144.398438 7.226562-30.800781-6.035156-53.953125-14.59375-72.871094-26.945312-37.128906-24.238281-62.503906-67.929688-67.875-116.875-4.769531-43.445312 5.40625-90.324219 29.421875-135.5625 3.546875-6.683594 7.4375-13.335938 11.558594-20.378906 15.046875-25.722656 30.59375-52.3125 28.546875-80.058594 5.121094-7.414062 7.410156-17.089844 6.183594-26.917969-1.492188-11.933593-7.945313-22.390625-17.269532-27.96875-9.078124-5.4375-21.261718-6.019531-31.792968-1.527343-9.328125 3.976562-15.835938 11.3125-17.855469 20.125-1.058594 4.632812-.796875 9.015624.757813 12.683593 3.589843 8.453125 14.296874 12.78125 23.867187 9.652344 7.492187-2.453125 13.871094-8.949219 17.496094-17.828125.839843-2.058594-.148438-4.414062-2.207031-5.257812-2.0625-.839844-4.414063.148437-5.257813 2.210937-2.730469 6.679687-7.300781 11.496094-12.539063 13.210937-4.882812 1.597657-11.804687-.121093-13.9375-5.136718-1.121093-2.648438-.792968-5.667969-.320312-7.734375 1.4375-6.265625 6.234375-11.554688 13.160156-14.507813 8.203125-3.5 17.585938-3.105468 24.488282 1.027344 7.210937 4.316406 12.226562 12.558594 13.410156 22.050781 1.1875 9.492188-1.644532 18.714844-7.574219 24.671875-8.671875 8.714844-23.535156 12.332032-40.757813 9.925782-12.179687-1.703126-21.332031-5.671876-27.199218-11.804688-12.910156-13.484375-9.710938-36.097656-.8125-52.527344 8.945312-16.515625 22.160156-27.535156 36.253906-30.242187 12.195312-2.335938 26.128906 1.496093 37.269531 10.261719 9.8125 7.722656 17.679688 18.9375 23.378907 33.335937 9.605468 24.253906 11.714843 53.375 6.457031 89.027344-2.433594 16.484375-6.167969 33.097656-9.777344 49.160156-3.03125 13.480469-6.164063 27.414063-8.539063 41.308594-2.847656 16.621093-5.210937 36.222656-1.175781 55.550781 5.546875 26.605469 23.3125 51.171875 48.730469 67.398438 21.859375 13.953124 49.539062 21.984374 80.050781 23.230468 2.589844.105469 5.140625.160156 7.648438.160156 20.976562 0 39.195312-3.6875 54.246093-10.984374 26.550782-12.871094 47.722657-39.796876 56.636719-72.019532 7.476563-27.019531 7.171875-57.992187-.902343-92.058594-3.5-14.769531-8.246094-29.378906-12.839844-43.507812-4.777344-14.714844-9.722656-29.929688-13.191406-45.171875-4.539063-19.9375-5.558594-35.992187-3.210938-50.515625 2.847656-17.632812 11.339844-33.050781 23.296875-42.300781 16.863281-13.046875 42.113281-14.128907 60.03125-2.574219 14.542969 9.378906 23.347656 26.503906 21.90625 42.609375-1.515625 16.914063-14.59375 31.75-30.429687 34.507813-16.066407 2.796874-33.699219-8.523438-36.992188-23.761719-1.640625-7.601563.566406-16.222657 5.90625-23.058594 5.019531-6.417969 11.976562-10.230469 19.09375-10.453125 7.523438-.242188 14.730469 3.265625 18.277344 8.921875 3.65625 5.828125 2.867187 14.007813-1.761719 18.238281-2.296875 2.101563-5.742187 3.085938-9.195313 2.636719-3.039062-.394531-5.582031-1.867187-6.984374-4.039063-1.207032-1.871093-3.699219-2.410156-5.570313-1.207031-1.871094 1.207031-2.410156 3.699219-1.207031 5.570313 2.6875 4.175781 7.328125 6.972656 12.726562 7.671875 5.78125.75 11.644532-1 15.671875-4.683594 7.488281-6.84375 8.875-19.351563 3.152344-28.472656-5.042969-8.039063-15-13.019531-25.363281-12.695313-9.515625.296875-18.695313 5.234375-25.191406 13.546875-6.796876 8.699219-9.574219 19.8125-7.433594 29.726563 1.101562 5.089844 3.386718 9.804687 6.519531 13.929687-.382813.515625-.660156 1.113281-.761719 1.789063-4.9375 32.613281 10.324219 64.757812 23.792969 93.117187zm0 0"/><path d="m137.949219 384.609375c-5.453125-2.222656-11.125-2.179687-15.980469.125-3.175781 1.511719-5.628906 3.707031-8 5.832031-1.230469 1.105469-2.394531 2.144532-3.597656 3.035156-2.917969 2.15625-7.359375 3.980469-11.085938 2.628907-1.523437-.550781-3.027344-1.660157-4.464844-3.289063-5.050781-5.726562-6.820312-14.636718-5.410156-27.25.1875-1.675781.449219-3.554687.722656-5.542968 2.128907-15.414063 5.34375-38.703126-14.113281-45.445313-6.054687-2.097656-12.429687-.476563-17.492187 4.449219-5.671875 5.523437-8.25 13.753906-6.269532 20.015625 1.523438 4.8125 5.429688 7.949219 11 8.84375 2.183594.347656 4.320313.296875 6.371094.050781-3.386718 13.824219-4.203125 26.195312-2.503906 37.648438 2.402344 16.167968 10.308594 30.441406 21.691406 39.152343 6.484375 4.960938 14.167969 8.269531 22.230469 9.570313 2.429687.394531 4.84375.585937 7.210937.585937 8.734376 0 16.867188-2.621093 23.019532-7.542969 9.136718-7.308593 13.074218-19.945312 9.359375-30.046874-2.066407-5.628907-6.808594-10.421876-12.6875-12.820313zm-1.707031 36.570313c-6.050782 4.835937-14.765626 6.765624-23.914063 5.292968-6.746094-1.089844-13.183594-3.859375-18.609375-8.011718-9.734375-7.449219-16.519531-19.820313-18.617188-33.9375-1.78125-11.996094-.484374-25.253907 3.96875-40.535157.402344-1.378906.039063-2.863281-.949218-3.90625-.769532-.808593-1.832032-1.25-2.921875-1.25-.308594 0-.621094.035157-.929688.105469-3.296875.785156-6.703125 1.59375-9.738281 1.109375-3.722656-.59375-4.371094-2.640625-4.585938-3.3125-1.042968-3.304687.800782-8.492187 4.207032-11.804687 1.640625-1.597657 5.023437-4.0625 9.230468-2.609376 12.207032 4.230469 11.191407 19.136719 8.761719 36.722657-.28125 2.042969-.546875 3.972656-.746093 5.753906-1.679688 15 .734374 25.949219 7.375 33.480469 2.34375 2.652344 4.953124 4.515625 7.761718 5.535156 5.710938 2.070312 12.675782.679688 18.628906-3.726562 1.511719-1.117188 2.871094-2.332032 4.183594-3.511719 2.035156-1.824219 3.957032-3.546875 6.082032-4.554688 2.785156-1.320312 6.148437-1.300781 9.472656.058594 3.816406 1.554687 6.867187 4.597656 8.167968 8.136719 2.550782 6.9375-.320312 15.757812-6.828124 20.964844zm0 0"/><path d="m351.375 360.148438c.273438 1.992187.535156 3.871093.722656 5.542968 1.410156 12.613282-.359375 21.523438-5.414062 27.25-1.4375 1.628906-2.9375 2.734375-4.464844 3.289063-3.726562 1.355469-8.167969-.46875-11.082031-2.628907-1.207031-.890624-2.367188-1.929687-3.601563-3.035156-2.371094-2.125-4.824218-4.320312-8-5.832031-4.851562-2.304687-10.527344-2.351563-15.976562-.125-5.878906 2.398437-10.621094 7.191406-12.691406 12.820313-3.714844 10.101562.222656 22.734374 9.359374 30.042968 6.15625 4.925782 14.285157 7.542969 23.019532 7.542969 2.367187 0 4.78125-.191406 7.210937-.582031 8.0625-1.300782 15.746094-4.609375 22.230469-9.570313 11.382812-8.714843 19.289062-22.984375 21.691406-39.15625 1.699219-11.449219.882813-23.816406-2.503906-37.648437 2.050781.25 4.1875.296875 6.371094-.050782 5.570312-.890624 9.476562-4.03125 11-8.839843 1.980468-6.265625-.597656-14.496094-6.269532-20.015625-5.0625-4.925782-11.441406-6.550782-17.492187-4.449219-19.453125 6.742187-16.238281 30.035156-14.109375 45.445313zm8.734375 4.648437c-.199219-1.78125-.464844-3.707031-.746094-5.75-2.429687-17.589844-3.449219-32.492187 8.761719-36.726563 4.203125-1.453124 7.585938 1.011719 9.230469 2.609376 3.40625 3.3125 5.25 8.5 4.203125 11.804687-.210938.671875-.859375 2.71875-4.582032 3.3125-3.035156.484375-6.445312-.324219-9.738281-1.109375-1.398437-.332031-2.867187.105469-3.851562 1.144531-.992188 1.042969-1.351563 2.527344-.953125 3.90625 4.453125 15.28125 5.753906 28.542969 3.96875 40.535157-2.09375 14.117187-8.878906 26.488281-18.613282 33.9375-5.429687 4.152343-11.863281 6.921874-18.613281 8.011718-9.148437 1.476563-17.863281-.453125-23.910156-5.292968-6.507813-5.207032-9.378906-14.023438-6.828125-20.96875 1.296875-3.535157 4.351562-6.578126 8.167969-8.136719 1.6875-.6875 3.382812-1.03125 5.007812-1.03125 1.582031 0 3.09375.324219 4.464844.976562 2.121094 1.007813 4.042969 2.730469 6.078125 4.554688 1.316406 1.175781 2.675781 2.394531 4.1875 3.511719 5.953125 4.40625 12.917969 5.796874 18.628906 3.722656 2.808594-1.015625 5.421875-2.878906 7.757813-5.53125 6.644531-7.53125 9.058593-18.480469 7.378906-33.480469zm0 0"/><path d="m272.160156 437.679688c-8.277344-3.921876-18.089844-4.429688-26.75-4.878907-1.539062-.078125-3.050781-.160156-4.523437-.253906-14.257813-.925781-28.71875-1.34375-42.996094-1.238281-11.253906.082031-24.316406.445312-36.949219 3.742187-1.433594.375-4.097656 1.070313-5.992187 3.214844-2.726563 3.085937-2.695313 8.136719.066406 11.742187 2.078125 2.707032 5.046875 4.128907 7.679687 5.160157 9.625 3.777343 19.925782 5.003906 30.515626 6.019531 1.546874.148438 3.109374.304688 4.695312.457031 11.335938 1.117188 23.402344 2.300781 35.34375 2.300781 12.660156 0 25.179688-1.335937 36.515625-5.503906 6.296875-2.320312 10.023437-6.191406 10.226563-10.621094.101562-2.351562-.773438-6.796874-7.832032-10.140624zm-5.179687 13.195312c-20.292969 7.464844-45.789063 4.957031-68.285157 2.746094-1.589843-.15625-3.164062-.308594-4.714843-.457032-10.378907-1-19.675781-2.101562-28.34375-5.5-1.597657-.628906-3.347657-1.421874-4.222657-2.5625-.457031-.597656-.492187-1.347656-.421874-1.5.121093-.136718.5625-.378906 1.984374-.75 11.734376-3.0625 24.203126-3.402343 34.96875-3.480468 1.402344-.011719 2.808594-.015625 4.210938-.015625 12.710938 0 25.542969.414062 38.207031 1.238281 1.507813.097656 3.054688.179688 4.628907.257812 8.296874.433594 16.878906.875 23.714843 4.117188 2.59375 1.226562 3.214844 2.292969 3.226563 2.488281 0 .25-.917969 1.929688-4.953125 3.417969zm0 0"/></svg>