<svg height="512pt" viewBox="0 -20 512.00166 512" width="512pt" xmlns="http://www.w3.org/2000/svg"><path d="m228.257812 214.617188 44.066407-.9375c2.226562-.046876 3.992187-1.890626 3.945312-4.117188s-1.894531-3.980469-4.117187-3.945312l-44.066406.9375c-2.222657.046874-3.992188 1.890624-3.941407 4.117187.046875 2.195313 1.839844 3.945313 4.027344 3.945313zm0 0"/><path d="m229.714844 230.347656c14.066406-.054687 28.335937-.277344 42.410156-.65625 2.226562-.058594 3.980469-1.914062 3.921875-4.136718-.058594-2.226563-1.90625-3.980469-4.136719-3.921876-14.015625.378907-28.222656.597657-42.226562.652344-2.226563.007813-4.023438 1.820313-4.015625 4.046875.007812 2.21875 1.808593 4.015625 4.03125 4.015625zm0 0"/><path d="m272.773438 234.59375c-12.960938 1.078125-26.132813 1.628906-39.148438 1.632812-2.226562 0-4.03125 1.804688-4.03125 4.03125 0 2.226563 1.804688 4.03125 4.03125 4.03125 13.242188-.003906 26.636719-.5625 39.820312-1.664062 2.21875-.183594 3.867188-2.132812 3.683594-4.351562-.1875-2.214844-2.136718-3.863282-4.355468-3.679688zm0 0"/><path d="m129.082031 214.46875c1.730469.648438 3.601563.972656 5.542969.972656 1.625 0 3.300781-.226562 4.992188-.683594 5.011718-1.351562 8.921874-4.601562 10.449218-8.6875 1.324219-3.53125.933594-7.746093-1.070312-11.558593-2.882813-5.492188-9.066406-8.660157-15.738282-8.082031-6.207031.542968-11.167968 4.34375-12.957031 9.921874-2.296875 7.175782 1.722657 15.472657 8.78125 18.117188zm-1.101562-15.65625c1.140625-3.554688 4.558593-4.222656 5.976562-4.347656 2.8125-.25 6.34375.835937 7.902344 3.796875.921875 1.757812 1.167969 3.621093.660156 4.980469-.734375 1.953124-3.066406 3.210937-5.003906 3.734374-2.046875.550782-4.035156.53125-5.605469-.058593-2.996094-1.121094-4.902344-5.0625-3.929687-8.105469zm0 0"/><path d="m165.074219 214.46875c1.734375.648438 3.601562.972656 5.546875.972656 1.625 0 3.300781-.226562 4.992187-.683594 5.011719-1.351562 8.917969-4.601562 10.449219-8.683593 1.324219-3.535157.933594-7.746094-1.070312-11.5625-2.886719-5.488281-9.066407-8.660157-15.742188-8.078125-6.203125.539062-11.167969 4.339844-12.953125 9.917968-2.296875 7.175782 1.722656 15.472657 8.777344 18.117188zm-1.097657-15.65625c1.136719-3.554688 4.558594-4.222656 5.976563-4.347656.253906-.023438.515625-.035156.777344-.035156 2.65625 0 5.707031 1.136718 7.121093 3.832031.925782 1.757812 1.171876 3.621093.660157 4.980469-.730469 1.953124-3.0625 3.207031-5.003907 3.734374-2.042968.550782-4.035156.53125-5.601562-.058593-2.996094-1.121094-4.90625-5.058594-3.929688-8.105469zm0 0"/><path d="m133.257812 217.628906c-6.207031.539063-11.167968 4.339844-12.957031 9.921875-2.296875 7.171875 1.722657 15.46875 8.777344 18.113281 1.734375.648438 3.601563.976563 5.546875.976563 1.625 0 3.300781-.230469 4.992188-.6875 5.015624-1.351563 8.921874-4.601563 10.453124-8.683594 1.320313-3.53125.929688-7.746093-1.074218-11.5625-2.882813-5.488281-9.058594-8.664062-15.738282-8.078125zm9.261719 16.8125c-.730469 1.953125-3.066406 3.207032-5.003906 3.730469-2.042969.550781-4.035156.53125-5.605469-.058594-2.996094-1.121093-4.902344-5.058593-3.929687-8.105469 1.140625-3.554687 4.558593-4.222656 5.976562-4.347656 2.804688-.246094 6.34375.832032 7.902344 3.796875.921875 1.757813 1.167969 3.621094.660156 4.984375zm0 0"/><path d="m169.25 217.628906c-6.203125.539063-11.164062 4.339844-12.953125 9.921875-2.296875 7.171875 1.722656 15.46875 8.777344 18.113281 1.734375.648438 3.601562.976563 5.546875.976563 1.625 0 3.300781-.230469 4.992187-.6875 5.011719-1.351563 8.921875-4.597656 10.449219-8.683594 1.324219-3.53125.933594-7.746093-1.070312-11.5625-2.886719-5.488281-9.066407-8.664062-15.742188-8.078125zm9.261719 16.8125c-.730469 1.953125-3.0625 3.207032-5.003907 3.730469-2.042968.550781-4.035156.53125-5.601562-.058594-2.996094-1.121093-4.902344-5.058593-3.929688-8.105469 1.136719-3.554687 4.558594-4.222656 5.976563-4.347656.253906-.023437.515625-.035156.78125-.035156 2.652344 0 5.703125 1.140625 7.117187 3.832031.925782 1.757813 1.171876 3.621094.660157 4.984375zm0 0"/><path d="m327.597656 214.46875c1.734375.648438 3.601563.972656 5.542969.972656 1.625 0 3.300781-.226562 4.992187-.683594 5.015626-1.351562 8.921876-4.601562 10.453126-8.683593 1.324218-3.53125.933593-7.746094-1.074219-11.5625-2.882813-5.488281-9.0625-8.667969-15.738281-8.078125-6.207032.539062-11.167969 4.339844-12.953126 9.921875-2.296874 7.171875 1.722657 15.46875 8.777344 18.113281zm-1.097656-15.65625c1.136719-3.554688 4.554688-4.222656 5.972656-4.347656.253906-.023438.519532-.035156.78125-.035156 2.65625 0 5.707032 1.136718 7.121094 3.832031.925781 1.757812 1.171875 3.621093.660156 4.980469-.730468 1.953124-3.0625 3.210937-5.003906 3.734374-2.042969.550782-4.035156.53125-5.605469-.058593-2.992187-1.121094-4.902343-5.058594-3.925781-8.105469zm0 0"/><path d="m363.59375 214.46875c1.730469.648438 3.597656.972656 5.542969.972656 1.625 0 3.300781-.226562 4.992187-.683594 5.011719-1.351562 8.921875-4.601562 10.453125-8.683593 1.320313-3.53125.929688-7.746094-1.074219-11.5625-2.882812-5.488281-9.066406-8.667969-15.742187-8.078125-6.203125.539062-11.164063 4.339844-12.953125 9.921875-2.296875 7.171875 1.722656 15.46875 8.78125 18.113281zm-1.097656-15.65625c1.136718-3.554688 4.554687-4.222656 5.972656-4.347656.253906-.023438.515625-.035156.78125-.035156 2.65625 0 5.707031 1.136718 7.121094 3.832031.921875 1.757812 1.171875 3.621093.660156 4.980469-.730469 1.953124-3.066406 3.210937-5.003906 3.734374-2.046875.550782-4.035156.53125-5.605469-.058593-2.996094-1.121094-4.902344-5.058594-3.925781-8.105469zm0 0"/><path d="m331.773438 217.628906c-6.203126.539063-11.167969 4.34375-12.953126 9.921875-2.296874 7.171875 1.722657 15.46875 8.777344 18.113281 1.734375.648438 3.601563.976563 5.542969.976563 1.625 0 3.304687-.230469 4.992187-.6875 5.015626-1.351563 8.921876-4.597656 10.453126-8.683594 1.324218-3.53125.933593-7.746093-1.070313-11.5625-2.886719-5.488281-9.0625-8.65625-15.742187-8.078125zm9.261718 16.8125c-.730468 1.953125-3.0625 3.207032-5.003906 3.730469-2.042969.550781-4.035156.53125-5.605469-.058594-2.992187-1.121093-4.902343-5.058593-3.925781-8.105469 1.136719-3.554687 4.554688-4.222656 5.972656-4.347656.253906-.023437.519532-.035156.78125-.035156 2.65625 0 5.707032 1.140625 7.121094 3.832031.925781 1.757813 1.171875 3.621094.660156 4.984375zm0 0"/><path d="m367.769531 217.628906c-6.207031.539063-11.167969 4.34375-12.953125 9.921875-2.300781 7.171875 1.722656 15.46875 8.773438 18.113281 1.734375.648438 3.601562.976563 5.546875.976563 1.625 0 3.300781-.230469 4.992187-.6875 5.011719-1.351563 8.921875-4.597656 10.453125-8.683594 1.320313-3.53125.929688-7.746093-1.074219-11.5625-2.882812-5.488281-9.058593-8.65625-15.738281-8.078125zm9.261719 16.8125c-.730469 1.953125-3.066406 3.207032-5.003906 3.730469-2.046875.550781-4.035156.53125-5.605469-.058594-2.992187-1.121093-4.902344-5.058593-3.925781-8.105469 1.136718-3.554687 4.554687-4.222656 5.972656-4.347656.253906-.023437.519531-.035156.78125-.035156 2.65625 0 5.707031 1.140625 7.121094 3.832031.921875 1.757813 1.171875 3.621094.660156 4.984375zm0 0"/><path d="m511.976562 355.457031c-1.71875-67.777343-2.847656-136.507812-3.359374-204.277343-.007813-1.265626-.023438-3.386719-1.261719-5.320313-1.472657-2.292969-3.945313-3.160156-5.132813-3.574219-9.796875-3.4375-20.390625-4.886718-30.769531-4.277344-.007813-1-.011719-2.007812-.019531-3.007812-.105469-13.757812-.242188-27.675781-.40625-41.355469-.023438-1.929687.09375-3.910156.214844-6.007812.503906-8.507813 1.125-19.101563-9.976563-25.183594-7.578125-4.152344-16.628906-3.9375-23.230469-3.785156-1.894531.046875-5.832031.140625-8.359375 3.089843-1.546875 1.804688-1.925781 3.933594-2.171875 5.34375-4.492187 25.355469-7.5625 54.019532-8.710937 80.632813-5.859375-.476563-11.71875-.921875-17.585938-1.332031-.84375-2.929688-1.554687-5.898438-1.464843-8.730469.082031-2.566406 1.03125-5.863281 3.460937-7.417969.453125-.292968 1.039063-.574218 1.660156-.871094 1.25-.601562 2.660157-1.28125 3.972657-2.449218 4.015624-3.582032 4.203124-9.105469 4.3125-12.410156l3.652343-109.363282c.039063-1.074218-.359375-2.117187-1.097656-2.898437-.738281-.785157-1.757813-1.238281-2.832031-1.265625l-41.539063-.99218775c-.488281-.01171875-1.976562-.04687505-3.316406 1.01171875-1.070313.839844-1.6875 2.054687-1.839844 3.613281-3.242187 34.289063-3.15625 69.050782.253907 103.320313.574218 5.75 1.566406 12.261719 6.160156 16.777343.804687.792969 1.65625 1.453126 2.40625 2.039063.855468.664063 1.664062 1.289063 2.152344 1.917969 1.316406 1.699218 1.28125 4.710937 1.101562 7.144531-.226562 3.042969-.664062 6.085937-1.277344 9.074219-8.71875-.472656-17.445312-.882813-26.175781-1.210938-.152344-.597656-.425781-1.136718-.796875-1.585937l1.109375-12.265625c.078125-.867188.179687-1.953125.453125-2.433594.289062-.507812 1.207031-1.125 2.089844-1.722656l.257812-.171875c11.339844-7.695313 10.273438-22.304688 9.496094-32.972657l-5.054688-69.3125c-.136718-1.902343-1.589843-3.445312-3.476562-3.703124-8.398438-1.140626-16.949219-1.546876-25.414062-1.210938-1.011719.042969-3.125.125-4.855469 1.667969-1.464844 1.296875-1.914063 3.019531-2.132813 3.847656-3.636718 13.871094-4.167968 28.1875-4.683594 42.089844-.472656 12.738281-.960937 25.910156-.882812 38.914062.039062 6.996094.914062 14.730469 7.097656 19.039063.644532.453125 1.304688.828125 1.882813 1.15625.582031.332031 1.554687.882812 1.710937 1.136718.121094.300782.054688 1.339844.023438 1.835938l-.96875 14.972656c-9.601563-.214844-19.203125-.347656-28.808594-.390625.355469-.640625.542969-1.378906.5-2.164062-.152344-2.605469-.070312-5.238281.246094-7.832031.113281-.921876.210937-1.246094.238281-1.3125.4375-.332032 2.394531-.394532 3.441406-.425782 3.105469-.101562 7.792969-.25 9.949219-4.652344.734375-1.5.835938-3.015624.902344-4.019531 1.527344-23.230469 1.582031-46.792969.164062-70.03125-.070312-1.140625-.621094-2.199219-1.515625-2.910156s-2.050781-1.007813-3.179687-.820313c-3.851563.652344-8.074219.167969-12.15625-.300781l-22.363282-2.5625c-2.136718-.238281-4.097656 1.238281-4.4375 3.367188-3.164062 19.765625-3.835937 39.609375-4.296874 59.898437-.085938 3.855469-.269532 11.875 5.464843 16.210938 1.5625 1.179687 3.238281 1.828125 4.71875 2.398437 1.199219.464844 2.328125.902344 2.945313 1.476563 1.378906 1.289062 1.734375 8.789062.4375 13.707031-16.476563.125-32.949219.507813-49.414063 1.144531-1.46875-4.464844-1.542969-7.394531-.179687-8.664062.613281-.578125 1.746094-1.011719 2.941406-1.476563 1.480469-.570312 3.160156-1.21875 4.71875-2.402343 5.734375-4.332032 5.554688-12.351563 5.464844-16.207032-.457032-20.285156-1.132813-40.132812-4.292969-59.898437-.339844-2.128907-2.296875-3.609375-4.441406-3.367188l-22.363281 2.5625c-4.082032.464844-8.300782.949219-12.15625.300781-1.128907-.191406-2.285157.105469-3.179688.816407-.894531.714843-1.445312 1.773437-1.515625 2.914062-1.417969 23.238281-1.359375 46.800781.167969 70.03125.066406 1.003907.164062 2.519531.898437 4.019531 2.15625 4.402344 6.84375 4.550782 9.949219 4.648438 1.050781.035156 3.003906.097656 3.40625.382812.0625.113282.160156.4375.273438 1.359376.238281 1.949218.34375 3.917968.316406 5.882812-9.523438.488281-19.042969 1.066406-28.558594 1.726562l-.785156-12.195312c-.03125-.5-.097656-1.539062.015625-1.824219.164062-.265625 1.136719-.820312 1.714843-1.148437.582032-.332032 1.238282-.703125 1.886719-1.15625 6.183594-4.308594 7.058594-12.042969 7.097657-19.039063.074218-13.027343-.414063-26.214843-.886719-38.96875-.511719-13.847656-1.042969-28.164062-4.679688-42.035156-.21875-.828125-.671875-2.550781-2.132812-3.851563-1.734375-1.542968-3.84375-1.625-4.855469-1.664062-8.46875-.339844-17.019531.070312-25.414062 1.207031-1.890626.257813-3.339844 1.804688-3.480469 3.703125l-5.050781 69.3125c-.78125 10.667969-1.847657 25.28125 9.496093 32.972656l.257813.171876c.882812.597656 1.796875 1.214843 2.089844 1.726562.273437.476562.371093 1.5625.449218 2.433594l1.101563 12.132812c-9.023438.757813-18.042969 1.601563-27.050781 2.515625-.570313-2.855469-.972657-5.757812-1.1875-8.660156-.179688-2.433594-.214844-5.449219 1.101562-7.148437.488281-.625 1.292969-1.253907 2.148438-1.917969.753906-.582031 1.605468-1.246094 2.410156-2.035157 4.589844-4.519531 5.585937-11.03125 6.160156-16.777343 3.410156-34.273438 3.496094-69.03125.25-103.324219-.144531-1.554688-.765625-2.769531-1.832031-3.609375-1.347657-1.058594-2.832031-1.023437-3.324219-1.011719l-41.53125.992188c-1.078125.027344-2.097656.480468-2.835938 1.261718-.738281.785157-1.136718 1.828126-1.097656 2.90625l3.652344 109.363282c.109375 3.300781.296875 8.824218 4.3125 12.40625 1.3125 1.167968 2.726562 1.847656 3.972656 2.449218.621094.296876 1.207032.578126 1.664063.871094 2.425781 1.554688 3.378906 4.851563 3.457031 7.421875.097656 3.070313-.742188 6.304688-1.679688 9.476563-3.636718.425781-7.277343.863281-10.910156 1.316406-.566406.070312-1.238281.160156-1.964844.296875-.863281-28.582031-4.078124-60.183594-8.976562-87.847656-.25-1.410157-.625-3.542969-2.171875-5.34375-2.53125-2.953125-6.46875-3.042969-8.363281-3.089844-6.605469-.152344-15.652344-.367187-23.230469 3.785156-11.101563 6.082031-10.476563 16.675781-9.976563 25.183594.125 2.097656.238282 4.078125.21875 6.007813-.164062 13.679687-.300781 27.597656-.410156 41.355468-.007812 1.003906-.011718 2.007813-.015625 3.007813-10.378906-.613281-20.976562.839843-30.773437 4.277343-1.1875.414063-3.65625 1.28125-5.128906 3.578126-1.238282 1.929687-1.253907 4.050781-1.265626 5.316406-.507812 67.769531-1.636718 136.5-3.3593745 204.28125-.0859375 3.382812-.2851565 11.3125 5.8085935 14.902344 1.792969 1.058593 3.6875 1.414062 5.210938 1.695312.753906.140625 1.46875.277344 2.035156.464844 3.835937 1.289062 5.84375 6.609375 5.96875 15.8125l.519531 39.507812c.019532 1.515625.054688 4.050782 1.773438 6.191406 1.855468 2.304688 4.699218 2.828126 5.914062 3.054688 3.121094.574219 6.304688.863281 9.480469.863281h.253906c1.445313-.007812 5.277344-.023437 7.613281-3.054687 1.726563-2.242188 1.625-4.9375 1.566407-6.386719l-1.617188-41.992187c-.089843-2.363282-.183593-4.804688.566407-6.652344 1.335937-3.285156 5.566406-5.304688 9.785156-7.089844.441406-.1875.816406-.453125 1.148437-.757812 1.640625 3.234374 1.773438 7.628906 1.738281 12.234374l-.265624 36.910157c-.011719 1.410156-.03125 4.351562 2.171874 6.492187 2.015626 1.957032 4.703126 2.027344 5.996094 2.066406l19.148438.519532c.039062.003906.074218.003906.113281.003906.105469 0 .203125-.023438.308594-.03125-.207031 3.53125-.398438 7.0625-.570313 10.585938-.039062.761718-.136718 2.789062 1.3125 4.472656 1.554688 1.804687 3.726563 1.910156 4.546875 1.953125 9.238281.453125 18.582031.679687 27.875.679687 2.773438 0 5.542969-.019531 8.300781-.058594 4.480469-.066406 8.855469-.210937 13.164063-1.207031.761719-.175781 2.34375-.539062 3.667969-1.78125 1.371094-1.28125 1.871094-2.859375 2.027344-4.234375 8.804687.996094 17.714843 1.582032 26.574218 1.75-2.222656 6.261719-4.359375 12.546875-6.402344 18.828125-.417968 1.285157-1.394531 4.292969.402344 7.035157 1.914063 2.921874 5.355469 3.082031 6.648438 3.140624 1.824218.085938 3.652344.128907 5.488281.128907 2.824219 0 5.65625-.101563 8.460937-.304688 4.191407-.300781 8.527344-1.003906 11.859376-4.070312 2.9375-2.707031 4.082031-6.363281 5.003906-9.875 1.035156-3.945313 1.996094-7.929688 2.890625-11.929688l46.171875.914063c.128906.011718.257812.035156.390625.035156.113281 0 .234375-.003906.351562-.011719.011719-.003906.023438-.007812.035157-.007812l46.503906.917969 2.625 15.0625c.242187 1.394531.648437 3.722656 2.421875 5.535156 1.714843 1.742187 3.949219 2.222656 5.152343 2.480468 5.980469 1.289063 12.066407 1.933594 18.167969 1.933594 2.394531 0 4.792969-.097656 7.1875-.296875 1.433594-.121093 4.097657-.34375 6.199219-2.269531 1.445312-1.324219 2.324219-3.15625 2.6875-5.609375.710938-4.804687-.511719-9.421875-1.824219-13.734375-.445312-1.46875-.914062-2.929688-1.382812-4.390625 21.183593.773437 42.664062 1.257813 63.859375 1.429687.109375.003907.226562.003907.355468.003907 1.429688 0 3.941407-.128907 5.882813-1.96875 1.628906-1.539063 2.054687-3.542969 2.257813-4.507813 1.226562-5.789062 1.148437-11.617187 1.074218-16.757812-.207031-15.117188-.671875-30.367188-1.355468-45.5625 1.3125 1.753906 2.410156 3.832031 3.199218 6.1875 1.765625 5.265625 1.996094 11.179687 2.21875 16.894531l.726563 18.683594c.054687 1.390625.144531 3.710937 1.660156 5.714843 1.210937 1.601563 2.855469 2.375 4.152344 2.871094 3.109375 1.1875 6.324219 1.535156 9.453125 1.535156 2.316406 0 4.585937-.1875 6.734375-.367187 1.710937-.144531 3.332031-.28125 4.894531-.320313 1.292969-.035156 3.980469-.109374 5.992188-2.066406 2.207031-2.140625 2.1875-5.078125 2.175781-6.492187l-.269531-36.910157c-.03125-4.605468.101562-9 1.742187-12.234374.332031.304687.707031.570312 1.144531.757812 4.21875 1.785156 8.453125 3.804688 9.789063 7.089844.75 1.84375.65625 4.289062.566406 6.652344l-1.617187 41.992187c-.058594 1.449219-.160157 4.144531 1.566406 6.386719 2.335937 3.03125 6.167968 3.046875 7.613281 3.054687h.253906c3.171875 0 6.363281-.289062 9.480469-.863281 1.214844-.226562 4.058594-.75 5.914062-3.054688 1.71875-2.140624 1.753907-4.675781 1.773438-6.191406l.519531-39.507812c.125-9.203125 2.132813-14.523438 5.96875-15.8125.566407-.1875 1.277344-.324219 2.035157-.464844 1.519531-.28125 3.417968-.636719 5.210937-1.695312 6.089844-3.59375 5.890625-11.523438 5.804687-14.910157zm-12.433593-205.570312c-8.542969 3.867187-18.609375 4.105469-27.316407.566406-.226562-.09375-.460937-.15625-.695312-.207031-.007812-1.386719-.019531-2.777344-.027344-4.167969 9.445313-.617187 19.113282.679687 28.039063 3.808594zm-61.320313-83.15625c7.382813-.175781 13.917969-.082031 19.167969 2.796875 1.515625.828125 2.65625 1.757812 3.523437 2.816406-2.9375 2.5-7.558593 2.960938-11.191406 2.210938-4.988281-1.027344-9.636718-3.9375-14.132812-6.820313.0625-.28125.132812-.558594.203125-.707031.238281-.121094.859375-.261719 2.429687-.296875zm-33.074218-57.855469c-.269532.242188-.535157.496094-.808594.71875-3.867188 3.152344-9.136719 4.683594-14.089844 4.097656-4.136719-.492187-8.125-2.484375-11.09375-5.4375zm-21.632813 114.863281c-1.105469-1.429687-2.417969-2.449219-3.574219-3.34375-.632812-.492187-1.230468-.957031-1.699218-1.417969-2.671876-2.628906-3.335938-7.285156-3.789063-11.828124-3.074219-30.882813-3.402344-62.171876-.988281-93.15625 4.238281 4.234374 9.84375 6.992187 15.835937 7.703124 1.039063.125 2.082031.1875 3.121094.1875 5.703125 0 11.316406-1.851562 15.929687-5.234374l-3.261718 97.605468c-.085938 2.601563-.292969 5.476563-1.621094 6.660156-.460938.410157-1.257812.792969-2.097656 1.199219-.773438.371094-1.652344.792969-2.523438 1.351563-4.296875 2.757812-6.976562 7.972656-7.164062 13.953125-.09375 2.921875.375 5.742187 1.023437 8.410156-2.53125-.164063-5.066406-.3125-7.597656-.464844.5625-2.953125.957031-5.949219 1.179687-8.941406.289063-3.875.230469-8.816406-2.773437-12.683594zm-36.4375-96.953125c-.601563.503906-1.191406.96875-1.78125 1.351563-4.167969 2.6875-9.480469 2.144531-12.273437 1.578125-1.925782-.390625-3.03125-1.15625-3.164063-1.441406-.015625-.132813-.054687-.257813-.082031-.386719.121094-.511719.238281-1.023438.371094-1.53125 5.632812-.210938 11.300781-.050781 16.929687.429687zm-12.261719 95.78125c-1.21875-2.433594-3.367187-3.65625-4.9375-4.550781-.472656-.269531-.917968-.523437-1.265625-.761719-3.160156-2.203125-3.613281-7.539062-3.644531-12.472656-.074219-12.832031.410156-25.914062.878906-38.625.363282-9.78125.738282-19.804688 2.238282-29.5625 1.011718.429688 2.125.777344 3.339843 1.023438 2.066407.417968 4.09375.625 6.050781.625 4.582032 0 8.785157-1.132813 12.191407-3.332032.488281-.316406.941406-.644531 1.382812-.980468l4.300781 59 .015626.195312c.703124 9.667969 1.503906 20.632812-5.984376 25.710938l-.242187.164062c-1.492187 1.007812-3.351563 2.265625-4.574219 4.402344-1.148437 2.003906-1.34375 4.144531-1.484375 5.707031l-1.210937 13.355469c-.019532.191406-.035156.515625-.015625.910156-2.378907-.074219-4.757813-.140625-7.136719-.207031l.949219-14.652344c.09375-1.496094.242187-3.765625-.851563-5.949219zm-34.335937-65.945312c-2.367188 2.144531-5.621094 3.390625-8.800781 3.25-1.882813-.085938-3.847657-.621094-5.691407-1.179688-1.648437-.503906-3.503906-1.125-4.679687-2.148437-.660156-.578125-1.160156-1.367188-1.4375-2.214844l15.648437 1.792969c1.585938.183594 3.25.367187 4.960938.5zm-16.511719 66.386718c-1.757812-1.640624-3.765625-2.417968-5.539062-3.101562-1.082032-.417969-2.105469-.8125-2.765626-1.3125-2.152343-1.628906-2.351562-5.765625-2.265624-9.597656.355468-15.730469.855468-31.183594 2.546874-46.4375.019532.015625.039063.039062.058594.054687 2.375 2.074219 5.1875 3.042969 7.636719 3.789063 2.34375.714844 4.898437 1.394531 7.667969 1.523437.292968.011719.589844.019531.882812.019531 4.964844 0 9.859375-1.910156 13.558594-5.195312.828125 19.601562.609375 39.363281-.675781 58.894531-.015625.238281-.039063.640625-.070313.867188-.609375.195312-2.074218.242187-2.988281.273437-3.011719.09375-7.136719.226563-9.671875 3.707032-1.191406 1.632812-1.546875 3.421874-1.753906 5.113281-.375 3.070312-.472656 6.195312-.292969 9.28125.035156.609375.214844 1.171875.488281 1.675781-1.21875 0-2.4375.003906-3.65625.007812 1.109375-6.046874 1.304688-15.394531-3.160156-19.5625zm-71.714844-60.699218 15.652344-1.792969c-.28125.847656-.78125 1.636719-1.441406 2.214844-1.171875 1.023437-3.03125 1.644531-4.679688 2.148437-1.84375.558594-3.808594 1.09375-5.6875 1.179688-3.171875.128906-6.433594-1.109375-8.800781-3.25 1.707031-.132813 3.371094-.320313 4.957031-.5zm4.929688 75.484375c-.207032-1.691407-.5625-3.480469-1.753906-5.113281-2.539063-3.480469-6.660157-3.613282-9.671876-3.707032-.910156-.03125-2.367187-.078125-2.980468-.273437-.035156-.25-.0625-.636719-.078125-.867188-1.285157-19.53125-1.503907-39.292969-.675781-58.894531 3.699218 3.285156 8.59375 5.195312 13.558593 5.195312.292969 0 .589844-.007812.882813-.019531 2.769531-.128906 5.324218-.808593 7.671875-1.523437 2.449219-.746094 5.257812-1.714844 7.632812-3.789063.019531-.015625.039063-.039062.058594-.054687 1.691406 15.253906 2.191406 30.703125 2.546875 46.4375.089844 3.832031-.113281 7.96875-2.265625 9.59375-.660156.5-1.683594.894531-2.765625 1.316406-1.769531.683594-3.78125 1.460938-5.535156 3.097656-4.582032 4.277344-3.789063 10.695313-2.652344 14.910156-1.199219.050782-2.398438.101563-3.597656.15625.007812-2.160156-.113282-4.324218-.375-6.464843zm-39.558594-105.253907c.132812.511719.25 1.027344.375 1.539063-.027344.121094-.066406.238281-.078125.363281-.136719.304688-1.246094 1.070313-3.171875 1.460938-2.796875.566406-8.105469 1.109375-12.273438-1.582032-.59375-.378906-1.183593-.84375-1.785156-1.347656 5.632813-.484375 11.300782-.640625 16.933594-.433594zm-12.933594 102.761719c-.140625-1.566406-.335937-3.707031-1.480468-5.710937-1.222657-2.136719-3.085938-3.394532-4.578126-4.402344l-.242187-.164062c-7.488281-5.082032-6.6875-16.042969-5.980469-25.714844l4.3125-59.191406c.441406.332031.894532.664062 1.382813.980468 3.40625 2.199219 7.609375 3.332032 12.191406 3.332032 1.960937 0 3.988281-.207032 6.050781-.625 1.214844-.246094 2.328125-.59375 3.339844-1.027344 1.5 9.761718 1.875 19.785156 2.238281 29.566406.46875 12.671875.953125 25.773438.878907 38.628906-.027344 4.929688-.480469 10.265625-3.640626 12.46875-.347656.242188-.792968.492188-1.265624.761719-1.570313.894531-3.722657 2.117187-4.9375 4.546875-1.09375 2.191406-.949219 4.457031-.851563 5.957031l.789063 12.253907c-2.367188.179687-4.734376.355468-7.097657.542968zm-36.074218-120.859375c-2.96875 2.953125-6.957032 4.945313-11.09375 5.433594-4.953126.59375-10.222657-.941406-14.089844-4.09375-.273438-.222656-.539063-.476562-.808594-.71875zm-19.695313 115.210938c-.867187-.558594-1.746094-.980469-2.519531-1.351563-.839844-.40625-1.636719-.789062-2.097656-1.199219-1.332032-1.183593-1.535157-4.058593-1.621094-6.660156l-3.261719-97.605468c4.613281 3.382812 10.226563 5.230468 15.925781 5.230468 1.042969 0 2.085938-.058594 3.125-.183594 5.992188-.710937 11.59375-3.46875 15.835938-7.703124 2.414062 30.972656 2.082031 62.265624-.992188 93.15625-.449218 4.542968-1.113281 9.199218-3.785156 11.828124-.46875.460938-1.066406.925782-1.699219 1.414063-1.15625.898437-2.46875 1.914063-3.578125 3.347656-3 3.867188-3.054687 8.808594-2.769531 12.683594.21875 2.980469.613281 5.960937 1.171875 8.90625-2.558594.269531-5.113281.546875-7.667969.832031.6875-2.765625 1.195313-5.699218 1.101563-8.742187-.1875-5.980469-2.867188-11.199219-7.167969-13.953125zm-12.488281 33c106.632812-13.265625 214.957031-15.574219 322.0625-6.863282-.050782 1.789063-.089844 3.5625-.121094 5.324219l-11.417969 164.679688c-3.882812-.34375-7.675781-.382813-10.824219-.390625l.4375-17.167969c.027344-1.070313-.375-2.113281-1.117187-2.886719-.742187-.777344-1.761719-1.226562-2.835937-1.246094-8.378907-.160156-16.796876-.320312-25.226563-.476562.050781-15.027344-.535156-30.226562-1.746094-45.199219-.167969-2.058593-1.859375-3.65625-3.921875-3.707031-23.3125-.566406-46.726562-.855469-70.171875-.875.976563-6.789062 2.359375-13.6875 3.710938-20.367188 2.679687-13.273437 5.453125-26.996093 5.246093-40.945312-.015624-.96875-.042968-2.78125-1.050781-4.476562-2.019531-3.398438-6.121093-3.621094-7.46875-3.695313-5.035156-.277344-10.050781-.070313-14.898437.128906l-68.457032 2.816407c-1.046874.042968-2.792968.113281-4.433593 1.234374-1.761719 1.199219-3.632813 3.714844-2.546875 8.882813.738281 3.523437 1.492187 7.046875 2.246094 10.566406 3.285156 15.308594 6.648437 31.097657 8.480468 46.832031-24.46875.621094-48.894531 1.53125-73.203125 2.746094-.96875.046875-3.246093.160156-4.914062 1.996094-1.726563 1.902344-1.5625 4.253906-1.492188 5.257812l2.785157 39.480469c-8.074219.328125-16.144532.683594-24.199219 1.101563-1.105469.058594-2.136719.566406-2.855469 1.410156-.714844.839844-1.058594 1.9375-.945312 3.039062l1.621093 15.472657h-2.519531c-1.488281 0-3.046875.003906-4.640625.085937-4.554687-52.429687-7.640625-105.648437-9.152344-158.230468-.015625-.605469-.050781-1.917969.125-2.84375.1875-.289063.328125-.609376.441407-.945313.570312-.429687 2.195312-.636719 3.003906-.738281zm288.761718 186.886718c-2.261718-.132812-4.046874-.238281-5.367187-.253906l-273.804687-2.53125c-3.507813-.035156-7.136719-.066406-10.105469-1.28125-2.089844-.859375-4.386719-2.828125-4.488281-5.132812-.097657-2.382813 2.1875-4.628906 4.496093-5.617188 3.140625-1.339844 7-1.339844 10.734375-1.339844l152.320313.007813h.121093c14.429688 0 29.101563-.085937 43.292969-.171875 29.386719-.167969 59.769531-.347656 89.59375.226562.859375.015626 1.878907.019532 3.019531.019532 6.648438.003906 24.300782.015625 25.976563 6.429687.777344 2.984375-.007813 4.394531-.667969 5.199219-5.109375 6.226562-26.140625 4.976562-35.121094 4.445312zm-269.175781-36.300781c6.964844-.347656 13.941407-.648437 20.917969-.929687.167969 1.820312.238281 3.683594.308594 5.628906.085937 2.421875.175781 4.890625.46875 7.382812h-20.429688zm24.886719-47.6875c71.957031-3.558593 144.929688-4.515625 216.980469-2.855469 1.003906 13.535157 1.480469 27.226563 1.4375 40.78125-71.105469-1.292968-143.707031-2.132812-215.707031.507813zm142.535156-12.011719c-.015625.105469-.007812.210938-.011718.316407-20.980469.039062-41.980469.292969-62.957032.769531-1.855468-16.359375-5.316406-32.59375-8.6875-48.328125-.753906-3.511719-1.507812-7.019531-2.242187-10.53125-.035157-.15625-.058594-.296875-.082031-.425781l67.960937-2.796875c4.660156-.191407 9.476563-.390625 14.125-.132813.390625.019532.683594.050782.894531.085938 0 .0625.003906.117187.003906.15625.191407 13.082031-2.371093 25.78125-5.089843 39.226562-1.425781 7.0625-2.898438 14.367188-3.914063 21.660156zm104.628906 71.78125c-2.429687-.042968-4.859374-.085937-7.292968-.121093-.015625-4.429688-.289063-8.878907-.824219-13.273438 2.816406.050781 5.640625.105469 8.453125.160157zm-16.253906-13.550781c.589844 4.410157.878906 8.890625.898438 13.34375-3.738282-.035156-7.476563-.0625-11.214844-.082031.011719-.113281.039062-.21875.042969-.335938.144531-4.363281.515625-8.769531 1.109375-13.09375 3.054687.054688 6.117187.113282 9.164062.167969zm-225.96875 13.554688c-.355468-2.445313-.449218-5.003907-.542968-7.671875-.066407-1.847656-.144532-3.738282-.304688-5.644532 6.890625-.25 13.789062-.476562 20.6875-.664062-.148438 4.667969.105469 9.351562.757812 13.980469zm28.75 0c-.730468-4.683594-1.011718-9.441407-.832031-14.179688 6.511719-.15625 13.023437-.289062 19.539063-.398437-.320313 4.851562-.269532 9.738281.148437 14.578125zm26.976563 0c-.464844-4.882813-.515625-9.816407-.152344-14.714844 6.179687-.082031 12.363281-.144531 18.542969-.195313-.222656 4.160157-.113282 8.359376.359375 12.488282.089843.800781.210937 1.613281.375 2.421875zm27.535156 0c-.433594-.824219-.632813-2.074219-.777344-3.332031-.4375-3.847657-.535156-7.753907-.296875-11.621094 8.320313-.042969 16.640625-.066406 24.957032-.054688.003906.019532 0 .039063.003906.058594.378906 2.269531.472656 4.652344.570312 7.167969.097656 2.558593.207032 5.167969.617188 7.785156zm33.265625-.003907c-.535156-2.511718-.640625-5.242187-.75-8.089843-.089844-2.242188-.191406-4.554688-.496094-6.886719 6.527344.023438 13.046875.058594 19.5625.109375-.351562 4.921875-.355468 9.894531-.035156 14.820313-6.09375.027343-12.203125.042968-18.28125.046874zm26.355469-.085937c-.335938-4.832031-.339844-9.714844.023437-14.542969.003906-.058594-.003906-.113281-.003906-.171875 5.054688.046875 10.105469.097657 15.148438.160157-.308594 4.816406-.214844 9.667968.292968 14.46875-.609375.003906-1.230468.007812-1.84375.007812-4.496094.027344-9.046875.054688-13.617187.078125zm23.59375-.132813c-.554688-4.746093-.679688-9.550781-.34375-14.316406 5.414062.070313 10.824219.148438 16.230469.230469-.296876 3.640625-.539063 7.320313-.710938 10.957031-.042969.851563-.085938 1.914063.011719 3.058594-5.082031.019531-10.148438.042969-15.1875.070312zm23.332031-.097656c-.199219-.671875-.144531-1.839844-.105469-2.644531.179688-3.722656.425781-7.496094.734375-11.214844 6.097656.097657 12.1875.203125 18.261719.308594-.558594 4.296875-.921875 8.65625-1.0625 12.980469-.007813.195312.019531.382812.039063.570312-5.964844-.015625-11.925782-.015625-17.867188 0zm-281.046875-255.480468c5.253906-2.875 11.789063-2.964844 19.167969-2.792969 1.574218.035156 2.195312.175781 2.433594.296875.070312.152344.140624.425781.203124.707031-4.496093 2.882813-9.148437 5.792969-14.132812 6.820313-3.636719.75-8.257812.289062-11.195312-2.210938.871093-1.058594 2.011718-1.992188 3.523437-2.820312zm-14.109375 76.554687c-.007812 1.390625-.019531 2.78125-.027344 4.171875-.234375.046875-.46875.109375-.699218.203125-8.699219 3.539063-18.769532 3.304687-27.3125-.566406 8.925781-3.128907 18.589843-4.425781 28.039062-3.808594zm-2.851562 230.746094c-1.40625 3.457031-1.265626 7.085937-1.152344 10.003906l1.617187 41.992187c.007813.207032.023438.648438.011719.996094-.238281.035156-.609375.070313-1.175781.074219-2.746094.019531-5.527344-.234375-8.234375-.734375-.53125-.097656-.84375-.179688-1.027344-.242188-.046875-.363281-.054688-.929687-.058594-1.179687l-.523437-39.507813c-.171875-12.996093-4.027344-20.847656-11.460938-23.347656-1.101562-.367187-2.175781-.570312-3.121093-.746094-1.042969-.195312-2.023438-.378906-2.597657-.714843-2.007812-1.183594-1.882812-6.128907-1.839843-7.753907 1.660156-65.523437 2.765624-131.925781 3.300781-197.503906 4.917969 1.886719 10.175781 2.847656 15.4375 2.847656 4.605469 0 9.210937-.738281 13.589843-2.210937-.328124 62.621094-.0625 125.847656.800782 188.300781.054687 3.875.128906 9.183594 3.015625 13.5625 1.566406 2.371094 3.671875 4.046875 5.660156 5.496094-4.246094 1.886719-9.898437 4.921875-12.242187 10.667969zm48.109374 45.449219c-.226562-.046876-.457031-.082032-.695312-.089844l-19.152344-.523438c-.070312 0-.1875-.003906-.320312-.011718-.003906-.125-.003906-.269532-.003906-.425782l.269531-36.910156c.039062-5.332031.097656-13.386719-4.734375-19.199219-1.695313-2.035156-3.78125-3.53125-5.617188-4.851562-1.828125-1.308594-3.554687-2.542969-4.539062-4.039063-1.472656-2.230468-1.632813-5.367187-1.683594-9.234375-.976562-70.316406-1.191406-141.617187-.648438-211.925781.105469-13.746094.242188-27.652344.40625-41.324219.027344-2.214843-.105468-4.429687-.230468-6.574219-.152344-2.554687-.25-4.800781-.179688-6.792968 3 1.675781 6.585938 2.585937 10.359375 2.585937 1.617188 0 3.265625-.164062 4.921875-.503906 5.191406-1.070313 9.800782-3.542969 13.96875-6.113281 4.40625 27.285156 7.171875 57.640625 7.6875 84.707031-.871094 2.359375-.800781 4.816406-.757812 6.367187 1.523437 52.976563 4.636718 106.597657 9.238281 159.417969-.425781.148438-.855469.296875-1.28125.476563-4.867187 2.078125-9.660156 7.019531-9.386719 13.375.210938 4.96875 3.664063 9.59375 8.847656 11.964844-2.808593 23.03125-4.96875 46.371093-6.46875 69.625zm40.851563 17.507812c-11.203125.167969-22.554687-.007812-33.769531-.519531 1.4375-28.191407 3.882812-56.660157 7.277344-84.675781 2.007812.183593 3.976562.210937 5.832031.230468l27.480469.253906c.332031 27.832032 1.710937 55.984376 4.113281 83.695313.003906.046875.007812.089844.011719.132813-3.386719.714843-6.972657.824218-10.945313.882812zm69.210937 15.433594c-.644531 2.453125-1.332031 4.757812-2.664062 5.984375-1.511719 1.394531-4.246094 1.765625-6.976562 1.960937-4.191407.300782-8.441407.363282-12.640626.179688 5.359376-16.457032 11.371094-32.921875 17.878907-48.945313 4.355469.425781 8.5625.613281 12.304687.757813-1.804687 13.460937-4.457031 26.933594-7.902344 40.0625zm129.171876-51.703125c-2.222657 1.109375-4.917969 1.4375-8.210938 1.75-32.066406 3.042969-66.679688 3.617187-112.226562 1.851562-8.257813-.320312-15.113282-.683593-21.921876-2.210937-1.851562-.414063-2.949218-.878906-3.269531-1.375-.339843-.527344-.351562-1.964844-.359375-2.65625-.023437-2.96875.101563-5.972656.375-8.925782.019532-.195312.066406-.710937.132813-1.019531.238281-.085937.730469-.199219 1.746093-.292969 8.351563-.78125 16.972657-.777343 25.34375-.769531l61.625.027344c3.378907-.003906 6.78125-.019531 10.183594-.035156 12.6875-.074219 25.808594-.144531 38.492188.914062 4.601562.382813 10.648437 4.957031 11.34375 8.582031.121094.632813.445312 2.308594-3.253906 4.160157zm-100.839844 26.390625c8.203125.347656 16.449218.582031 24.699218.71875-.121093 2.488281-.140624 4.984375-.050781 7.480468l-23.8125-.472656zm32.765625.8125c6.84375.0625 13.6875.070312 20.503906-.011719l.007813 7.964844-20.558594-.40625c-.105469-2.515625-.085938-5.039063.046875-7.546875zm28.574219 8.113281-.011719-12.21875c0-1.082031-.4375-2.117187-1.207031-2.875-.769532-.753906-1.800782-1.171875-2.890626-1.152344-20.429687.335938-41.144531.019531-61.554687-.941406-1.183594-.054687-2.320313.40625-3.125 1.265625-.808594.855469-1.199219 2.023438-1.074219 3.195312l1.230469 11.367188-8.652344-.171875c1.441407-7.253906 2.652344-14.554687 3.613281-21.855469 14.171876.480469 27.292969.726563 39.625.726563 15.347657 0 29.476563-.378907 42.914063-1.136719l4.191406 24.054688zm50.933593 24.003906c-.0625.4375-.136719.691407-.1875.820313-.199219.0625-.601562.136718-1.390625.203125-7.699218.640625-15.4375.140625-22.992187-1.484375-.5-.105469-.851563-.199219-1.054688-.273438-.109375-.328125-.21875-.949218-.269531-1.242187l-8.078125-46.332031c5.109375-.355469 10.128906-.765626 15.089844-1.238282.542969-.050781 1.113281-.105468 1.695312-.171875 6.253907 12.691407 11.515625 25.976563 15.628907 39.507813 1.085937 3.582031 2.027343 7.058594 1.558593 10.210937zm-9.113281-51.535156c.429688-.175781.859375-.363281 1.28125-.574219 8.277344-4.136718 8.050781-10.394531 7.570312-12.894531-1.515624-7.875-11.066406-14.464844-18.589843-15.09375-13.042969-1.089844-26.34375-1.011719-39.210938-.941406-3.386719.019531-6.757812.03125-10.132812.035156l-61.652344-.027344c-8.535156-.011719-17.339844-.007812-26.066406.804688-1.585938.148437-5.300781.492187-7.488281 3.449219-1.257813 1.695312-1.523438 3.546874-1.671876 5.144531-.300781 3.226562-.4375 6.5-.410156 9.742187.019532 2.15625.160156 4.652344 1.636719 6.949219 2.273437 3.53125 6.488281 4.476563 8.289063 4.878906.769531.175781 1.546874.324219 2.324218.46875-2.804687 6.972657-5.523437 14.023438-8.132812 21.117188-9.96875-.089844-20.03125-.734375-29.945313-1.90625-2.089843-25.640625-3.3125-51.601563-3.621093-77.304688l226.832031 2.101563c-.015625.152344-.042969.300781-.042969.457031l1.097656 80.964844c-9.65625-.230469-19.300781-.515625-28.882812-.871094-.691406-.03125-1.335938.132813-1.910156.414063-3.269532-9.167969-7.039063-18.171876-11.273438-26.914063zm78.351562 27.871094c-.003906.03125-.011718.058593-.015624.082031-.148438.003906-.324219.007812-.523438.003906-9.191406-.074218-18.433594-.21875-27.679688-.410156l-1.101562-81.25c0-.09375-.019531-.183594-.03125-.273438l3.441406.03125c1.121094.007813 2.902344.117188 4.964844.238282 4.5.265625 9.121094.484375 13.617188.484375 1.972656 0 3.914062-.046875 5.8125-.144531 1.300781 21.96875 2.113281 44.265624 2.417968 66.269531.066406 4.714843.140625 10.066406-.902344 14.96875zm45.21875-74.054688c-4.832031 5.8125-4.773437 13.867188-4.734374 19.199219l.265624 36.90625c.003907.160156.003907.304688 0 .429688-.132812.007812-.253906.011718-.324218.011718-1.789063.050782-3.597656.199219-5.34375.347656-4.601563.382813-8.949219.746094-12.636719-.664062-.269531-.105469-.441406-.183594-.550781-.238281-.054688-.324219-.074219-.867188-.085938-1.128907l-.726562-18.683593c-.234375-5.992188-.5-12.78125-2.628906-19.144531-2.210938-6.601563-6.292969-11.863282-11.390626-14.808594-.175781-3.324219-.335937-6.65625-.535156-9.96875-.003906-.101563-.03125-.195313-.046875-.292969 6.179688-1.0625 11.328125-3.121094 14.402344-6.867187 1.890625-2.300782 3.8125-6.316407 2.238281-12.351563-1.601562-6.132813-7.246094-9.242187-13.835937-10.820313l11.382812-164.15625c.042969-.222656.078125-.453124.082031-.6875.003907-.238281.011719-.484374.015626-.722656l.628906-9.074218c.042968-.648438-.082032-1.265626-.320313-1.832032.941407-24.261718 3.542969-50.414062 7.386719-74.222656 4.167969 2.566406 8.777344 5.039062 13.972656 6.109375 1.652344.339844 3.300782.503906 4.917969.503906 3.773437 0 7.359375-.910156 10.359375-2.585937.070312 1.996094-.03125 4.238281-.179688 6.792968-.125 2.144532-.257812 4.363282-.230468 6.578126.164062 13.671874.300781 27.574218.40625 41.324218.542968 70.304688.328125 141.605469-.648438 211.921875-.050781 3.867188-.210937 7.003907-1.683594 9.234375-.984374 1.496094-2.710937 2.730469-4.535156 4.042969-1.84375 1.316406-3.925781 2.808594-5.621094 4.847656zm51.191407-1.695312c-.574219.339843-1.554688.523437-2.597657.714843-.945312.179688-2.019531.378907-3.121093.75-7.433594 2.496094-11.289063 10.351563-11.460938 23.34375l-.523437 39.507813c0 .25-.007813.820313-.058594 1.183594-.183594.0625-.496094.144531-1.027344.242187-2.707031.496094-5.476562.75-8.234375.730469-.566406-.003906-.9375-.035156-1.171875-.074219-.015625-.34375.003906-.785156.007813-.996094l1.621093-41.988281c.109376-2.917969.25-6.550781-1.15625-10.003906-2.339843-5.746094-7.996093-8.785156-12.242187-10.667969 1.988281-1.449218 4.09375-3.125 5.65625-5.496094 2.890625-4.378906 2.964844-9.6875 3.019531-13.5625.863282-62.453124 1.128906-125.679687.796875-188.300781 4.382813 1.472657 8.984375 2.210938 13.59375 2.210938 5.261719 0 10.515625-.960938 15.4375-2.847657.53125 65.574219 1.636719 131.980469 3.300781 197.503907.042969 1.621093.167969 6.566406-1.839843 7.75zm0 0"/><path d="m170.835938 271.253906-15.269532.960938c-2.222656.140625-3.910156 2.054687-3.769531 4.277344.132813 2.136718 1.910156 3.777343 4.019531 3.777343.085938 0 .171875 0 .257813-.007812l15.269531-.960938c2.222656-.140625 3.910156-2.054687 3.769531-4.277343-.140625-2.222657-2.054687-3.902344-4.277343-3.769532zm0 0"/><path d="m170.539062 288c-5.070312-.90625-10.253906-1.203125-15.398437-.875-2.21875.140625-3.90625 2.054688-3.765625 4.277344s2.066406 3.902344 4.277344 3.769531c4.5-.289063 9.03125-.03125 13.46875.765625.238281.042969.476562.0625.714844.0625 1.914062 0 3.613281-1.371094 3.960937-3.320312.390625-2.195313-1.066406-4.289063-3.257813-4.679688zm0 0"/><path d="m202.414062 270.472656c-4.320312.539063-8.714843.8125-13.070312.8125-2.226562.003906-4.03125 1.808594-4.027344 4.035156 0 2.226563 1.804688 4.027344 4.03125 4.027344h.003906c4.683594-.003906 9.414063-.296875 14.058594-.875 2.210938-.273437 3.777344-2.289062 3.503906-4.496094-.273437-2.210937-2.289062-3.78125-4.5-3.503906zm0 0"/><path d="m201.058594 286.648438c-3.785156.160156-7.582032-.183594-11.285156-1.011719-2.171876-.484375-4.328126.878906-4.816407 3.050781-.484375 2.171875.878907 4.328125 3.054688 4.816406 3.6875.828125 7.457031 1.242188 11.238281 1.242188.714844 0 1.429688-.015625 2.144531-.042969 2.226563-.09375 3.953125-1.972656 3.859375-4.199219-.089844-2.222656-1.976562-3.953125-4.195312-3.855468zm0 0"/><path d="m231.785156 270.554688h-9.761718c-2.226563 0-4.03125 1.804687-4.03125 4.027343 0 2.226563 1.804687 4.03125 4.03125 4.03125h9.761718c2.226563 0 4.03125-1.804687 4.03125-4.03125 0-2.222656-1.804687-4.027343-4.03125-4.027343zm0 0"/><path d="m230.953125 288.785156c-3.457031.347656-7.039063.011719-10.363281-.972656-2.136719-.632812-4.378906.585938-5.011719 2.71875s.585937 4.378906 2.71875 5.011719c3.21875.953125 6.621094 1.4375 10 1.4375 1.160156 0 2.316406-.054688 3.464844-.171875 2.214843-.222656 3.828125-2.199219 3.605469-4.414063-.222657-2.214843-2.207032-3.824219-4.414063-3.609375zm0 0"/><path d="m264.328125 277.730469c.1875.023437.375.039062.5625.039062 1.980469 0 3.707031-1.460937 3.988281-3.476562.308594-2.203125-1.230468-4.242188-3.4375-4.550781-4.976562-.691407-10.046875-.992188-15.070312-.886719-2.226563.046875-3.992188 1.890625-3.945313 4.117187.046875 2.226563 1.863281 3.984375 4.117188 3.945313 4.59375-.097657 9.230469.175781 13.785156.8125zm0 0"/><path d="m258.40625 295.5c2.457031 0 4.914062-.136719 7.351562-.414062 2.210938-.25 3.800782-2.246094 3.550782-4.460938-.25-2.210938-2.25-3.796875-4.460938-3.550781-3.808594.433593-7.679687.476562-11.496094.140625-2.222656-.199219-4.175781 1.4375-4.375 3.65625-.195312 2.21875 1.441407 4.175781 3.660157 4.371094 1.917969.171874 3.84375.257812 5.769531.257812zm0 0"/><path d="m282.710938 276.066406c3.003906-.320312 6.035156-.199218 9.007812.367188.253906.046875.503906.070312.753906.070312 1.898438 0 3.589844-1.347656 3.957032-3.285156.414062-2.1875-1.023438-4.296875-3.210938-4.707031-3.746094-.710938-7.566406-.867188-11.355469-.460938-2.214843.234375-3.820312 2.21875-3.585937 4.433594.234375 2.210937 2.21875 3.816406 4.433594 3.582031zm0 0"/><path d="m285.382812 287.761719c-2.152343-.554688-4.351562.746093-4.910156 2.898437-.554687 2.15625.742188 4.355469 2.898438 4.910156 2.535156.652344 5.152344.980469 7.773437.980469 2.144531 0 4.289063-.21875 6.386719-.660156 2.179688-.457031 3.574219-2.59375 3.117188-4.773437-.457032-2.179688-2.59375-3.574219-4.773438-3.117188-3.449219.722656-7.078125.640625-10.492188-.238281zm0 0"/><path d="m313.941406 276.097656 11.03125.46875c.058594.003906.117188.003906.171875.003906 2.148438 0 3.933594-1.695312 4.027344-3.859374.09375-2.226563-1.632813-4.105469-3.859375-4.199219l-11.03125-.46875c-2.207031-.105469-4.105469 1.628906-4.199219 3.855469-.09375 2.222656 1.632813 4.101562 3.859375 4.199218zm0 0"/><path d="m325.042969 285.453125c-2.773438.664063-5.796875.535156-8.503907-.359375-2.117187-.699219-4.394531.453125-5.09375 2.566406-.695312 2.113282.453126 4.394532 2.566407 5.089844 2.402343.792969 4.902343 1.191406 7.40625 1.191406 1.84375 0 3.6875-.214844 5.496093-.648437 2.167969-.515625 3.503907-2.691407 2.984376-4.855469-.515626-2.164062-2.691407-3.503906-4.855469-2.984375zm0 0"/><path d="m339.53125 276.269531h.496094c2.777344 0 5.570312-.246093 8.308594-.730469 2.191406-.390624 3.652343-2.484374 3.261718-4.675781-.386718-2.191406-2.480468-3.652343-4.671875-3.265625-2.410156.429688-4.871093.636719-7.308593.605469-.015626 0-.03125 0-.046876 0-2.207031 0-4.007812 1.777344-4.027343 3.992187-.023438 2.226563 1.761719 4.050782 3.988281 4.074219zm0 0"/><path d="m338.210938 295.171875c.292968.003906.582031.007813.875.007813 3.539062 0 7.058593-.476563 10.476562-1.414063 2.144531-.589844 3.40625-2.8125 2.816406-4.957031-.59375-2.148438-2.8125-3.40625-4.957031-2.816406-2.941406.808593-5.984375 1.1875-9.03125 1.117187-2.21875-.03125-4.070313 1.714844-4.121094 3.941406-.046875 2.226563 1.71875 4.070313 3.941407 4.121094zm0 0"/></svg>