<svg height="511pt" viewBox="0 -22 511.99916 511" width="511pt" xmlns="http://www.w3.org/2000/svg"><path d="m510.226562 16.003906c-1.441406-5.027344-3.589843-8.722656-6.570312-11.292968-5.058594-4.371094-14.695312-7.546876-31.871094 2.128906-50.027344 28.195312-91.660156 68.523437-131.917968 107.519531-19.972657 19.347656-40.238282 39.058594-59.835938 58.121094l-2.582031 2.511719c-29.40625-38.875-55.023438-68.960938-80.46875-94.515626-11.273438-11.320312-24.734375-23.820312-41.917969-28.863281-.828125-.242187-3.34375-.980469-5.589844.679688-1.539062 1.132812-2.304687 2.914062-2.28125 5.289062.042969 4.359375.640625 8.628907 1.21875 12.753907.160156 1.167968.324219 2.332031.476563 3.496093 2.84375 22.105469 1.023437 44.539063-1.363281 65.488281-2.570313 22.5-6.910157 40.976563-13.28125 56.476563-10.707032 26.078125-30.542969 47.546875-46.628907 63.339844-20.960937 20.582031-39.65625 39.507812-56.113281 62.703125-14.175781 19.980468-30.5625 46.800781-31.46875 77.109375-.433594 14.605469 3.605469 29.429687 11.371094 41.742187 8.34375 13.222656 20.375 22.226563 33.875 25.355469 3.96875.917969 8.042968 1.378906 12.242187 1.378906 13.226563-.003906 27.683594-4.578125 43.820313-13.832031 32.722656-18.757812 59.054687-46.671875 84.515625-73.667969l3.476562-3.683593c55.878907-59.171876 114.535157-117.160157 174.339844-172.355469 6.066406-5.601563 12.15625-11.1875 18.25-16.769531 34.78125-31.882813 70.746094-64.847657 102.183594-101.175782 14.894531-17.203125 33.804687-43.175781 26.121093-69.9375zm-32.21875 64.667969c-31.132812 35.972656-66.925781 68.777344-101.535156 100.503906-6.097656 5.589844-12.195312 11.179688-18.273437 16.789063-59.9375 55.320312-118.722657 113.4375-174.730469 172.742187l-3.480469 3.691407c-25.058593 26.566406-50.972656 54.039062-82.660156 72.203124-19.414063 11.132813-35.84375 14.925782-50.230469 11.589844-25.34375-5.871094-39.734375-34.609375-39.007812-59 .839844-28.148437 16.464844-53.628906 29.984375-72.683594 16.074219-22.65625 34.503906-41.308593 55.1875-61.617187 16.632812-16.332031 37.171875-38.597656 48.441406-66.027344 6.652344-16.203125 11.175781-35.378906 13.828125-58.628906 2.449219-21.453125 4.304688-44.472656 1.351562-67.429687-.15625-1.195313-.320312-2.390626-.488281-3.582032-.4375-3.113281-.851562-6.089844-1.039062-9.046875 14.195312 4.992188 25.941406 15.976563 35.914062 25.992188 25.355469 25.464843 50.921875 55.523437 80.355469 94.488281l-3.753906 3.652344c-6.316406 6.144531-12.738282 12.386718-19.242188 18.707031-8.097656-2.109375-17.175781-2.058594-28.394531.136719-19.742187 3.863281-39.539063 12.738281-58.835937 26.371094-6.917969 4.886718-13.707032 10.3125-20.75 16.585937-17.179688 15.300781-33.328126 32.363281-48.945313 48.867187l-1.765625 1.867188c-19.714844 20.828125-34.378906 38.878906-46.140625 56.796875-7.25 11.042969-14.917969 24.371094-16.800781 39.464844-2.058594 16.527343 4.101562 32.488281 15.691406 40.664062 8.582031 6.054688 20.363281 8.144531 32.316406 5.738281 20.222656-4.070312 36.144532-19.164062 48.941406-31.292968l140.996094-133.644532c51.363282-48.683593 104.472656-99.023437 156.144532-149.140624 16.585937-16.082032 35.382812-34.316407 51.664062-54.566407 7.914062-9.84375 15.546875-20.742187 17.773438-33.679687.359374-2.085938.597656-4.804688-.75-7.320313-1.445313-2.691406-4.207032-4.382812-8.207032-5.03125-14.703125-2.375-27.632812 6.996094-39.410156 17.472657-48.511719 43.167968-94.992188 90.011718-139.945312 135.316406-21.25 21.417968-42.820313 43.152344-64.785157 64.683594l-3.617187-4.007813c-1.511719-1.671875-3.070313-3.382813-4.835938-4.972656 15.222656-14.75 30.144532-29.253907 44.519532-43.234375l12.164062-11.828125c19.59375-19.0625 39.855469-38.769531 59.820312-58.109375 39.894532-38.644532 81.144532-78.605469 130.265626-106.289063 7.230468-4.070312 17.023437-7.910156 22.644531-3.054687 1.757812 1.519531 3.09375 3.945312 4.09375 7.417968 6.601562 23-10.804688 46.652344-24.472657 62.445313zm-250.1875 163.027344 3.832032 4.242187c-3.371094 3.289063-6.75 6.570313-10.140625 9.84375-2.605469-3.246094-5.121094-6.558594-7.546875-9.933594 3.074218-2.972656 6.140625-5.9375 9.191406-8.890624 1.617188 1.386718 3.109375 3.011718 4.664062 4.738281zm61.605469-41.757813c1.558594 2.386719 3.046875 4.832032 4.4375 7.304688.671875 1.195312 1.285157 2.34375 1.382813 3.285156.128906 1.199219-.578125 2.6875-1.84375 3.886719-2.375 2.246093-6.207032 3.3125-10.507813 2.925781-2.898437-.257812-5.808593-1.113281-8.6875-2.140625 5.089844-5.09375 10.164063-10.183594 15.21875-15.261719zm-21.488281 21.519532c4.308594 1.675781 9.121094 3.453124 14.234375 3.914062.808594.074219 1.613281.109375 2.40625.109375 5.664063 0 10.808594-1.84375 14.367187-5.210937 3.097657-2.933594 4.714844-6.890626 4.320313-10.59375-.257813-2.464844-1.316406-4.507813-2.375-6.390626-1.753906-3.121093-3.664063-6.203124-5.664063-9.1875 4.246094-4.277343 8.488282-8.546874 12.707032-12.800781 44.867187-45.214843 91.257812-91.96875 139.582031-134.96875 10.292969-9.15625 21.378906-17.378906 32.765625-15.539062 1.738281.28125 2.324219.765625 2.382812.882812.050782.089844.191407.519531-.089843 2.140625-1.914063 11.128906-8.875 20.996094-16.109375 29.996094-15.96875 19.863281-34.578125 37.910156-50.992188 53.832031-51.28125 49.734375-103.996094 99.707031-155.066406 148.113281l-17.574219-19.464843c8.429688-8.257813 16.792969-16.546875 25.105469-24.832031zm-13.472656 49.746093c.03125.035157.066406.058594.101562.089844l-10.257812 9.722656c-.203125-.613281-.539063-1.1875-1.039063-1.660156-5.820312-5.480469-11.363281-11.285156-16.59375-17.351563 3.472657-3.351562 6.933594-6.710937 10.386719-10.074218zm-59.558594 56.636719c-.023438-.023438-.042969-.050781-.066406-.074219-6.398438-5.9375-12.773438-12.003906-19.078125-18.128906 4.984375-4.5 9.945312-9.03125 14.886719-13.589844 5.734374 6.441407 11.613281 12.757813 17.597656 18.890625.042968.046875.097656.078125.144531.121094zm-38.859375-26.335938c2.621094 2.632813 5.257813 5.261719 7.917969 7.882813-3.832032 3.417969-7.671875 6.816406-11.527344 10.1875-2.894531 2.527344-6.203125 5.023437-8.824219 4.34375-.949219-.246094-2.574219-.800781-2.816406-1.734375-.703125-2.71875 3.894531-9.863281 10.253906-15.917969 1.660157-1.578125 3.324219-3.167969 4.996094-4.761719zm5.835937-5.570312c5.136719-4.90625 10.367188-9.917969 15.734376-15.066406 2.535156 3.058594 5.105468 6.097656 7.714843 9.113281-5.09375 4.703125-10.210937 9.375-15.351562 14.011719-2.71875-2.679688-5.417969-5.367188-8.097657-8.058594zm46.226563-44.425781c2.433594 3.359375 4.960937 6.65625 7.570313 9.886719-8.085938 7.761718-16.222657 15.476562-24.425782 23.109374-2.640625-3.054687-5.242187-6.136718-7.804687-9.238281 2.816406-2.707031 5.664062-5.445312 8.570312-8.242187 5.386719-5.183594 10.746094-10.355469 16.089844-15.515625zm6.097656 58.039062c-.066406-.078125-.117187-.164062-.191406-.238281-5.933594-6.082031-11.761719-12.347656-17.445313-18.738281 8.15625-7.585938 16.242188-15.253907 24.28125-22.964844 5.328126 6.15625 10.96875 12.046875 16.886719 17.621094.382813.359375.816407.625 1.273438.808593zm-27.777343-48.332031c-14.5625 14.019531-27.953126 26.847656-40.9375 39.210938-4.5 4.289062-14.726563 15.183593-12.5 23.78125.667968 2.582031 2.703124 5.984374 8.597656 7.515624 7.09375 1.839844 13.210937-3.507812 16.152344-6.078124 4.019531-3.507813 8.015624-7.054688 12.003906-10.613282 6.378906 6.203125 12.828125 12.34375 19.304687 18.359375l-36.042969 34.164063c-.042968-.050782-.074218-.109375-.121093-.160156l-14.734375-15.648438c1.257812-2.066406 2.164062-3.992188 2.703125-5.761719.976562-3.214843.777343-6-.601563-8.269531-1.371094-2.265625-3.730468-3.726562-7.015625-4.339844-13.515625-2.535156-26.21875 15.007813-31.644531 22.5-1.1875 1.632813-2.386719 3.421875-2.902344 5.683594-.753906 3.28125.316406 6.601562 2.714844 8.464844 1.308594 1.015625 2.726562 1.414062 3.816406 1.648437 1.386719.296875 2.8125.445313 4.257813.445313 2.628906 0 5.320312-.496094 7.964843-1.445313l14.839844 16.523438-13.886718 13.164062c-1.582032 1.5-3.21875 3.046875-4.902344 4.613281l-14.414063-15.3125c1.261719-2.066406 2.164063-3.992187 2.703125-5.761718.980469-3.214844.777344-6-.601562-8.269532-1.371094-2.265624-3.730469-3.726562-7.011719-4.339843-13.523437-2.53125-26.222656 15.007812-31.648437 22.5-1.183594 1.632812-2.382813 3.417969-2.902344 5.683593-.75 3.28125.316406 6.601563 2.71875 8.464844 1.304687 1.015625 2.722656 1.414063 3.8125 1.648438 1.386718.296875 2.8125.445312 4.257812.445312 2.628906 0 5.320313-.496094 7.96875-1.445312l12.589844 14.019531c-5.5 3.230469-11.351562 5.746094-17.558594 6.996094-9.789062 1.972656-19.296875.359375-26.074218-4.421875-9.191407-6.484375-14.035157-19.46875-12.335938-33.078125 1.675781-13.457031 8.796875-25.769531 15.535156-36.039063 11.496094-17.511718 25.878906-35.207031 45.261719-55.679687l1.761719-1.867188c15.503906-16.378906 31.53125-33.320312 48.453125-48.386719 6.816406-6.070312 13.371093-11.3125 20.039062-16.023437 18.363281-12.972656 37.113281-21.398437 55.730469-25.042969 5.21875-1.019531 9.871094-1.53125 14.109375-1.53125 1.980469 0 3.871094.113282 5.683594.335938-17.933594 17.410156-36.441407 35.339844-55.144531 53.347656zm-48.289063 120.429688-13.375-14.890626c.277344-.203124.558594-.390624.835937-.605468 1.628907-1.261719 4.714844-4.226563 7.707032-7.785156l13.707031 14.558593c.050781.054688.117187.09375.171875.148438zm-5-38.007813c-.722656 2.386719-2.800781 5.710937-5.851563 9.363281-2.824218 3.378906-5.566406 5.953125-6.632812 6.78125-4.398438 3.414063-9.53125 4.914063-13.738281 4.007813-.175781-.039063-.308594-.070313-.398438-.097657-.003906-.089843 0-.207031.03125-.332031.179688-.789062.847657-1.753906 1.570313-2.757812 3.746094-5.167969 15.144531-20.890625 23.632812-19.300781 1.09375.203124 1.539063.507812 1.601563.589843.050781.105469.121093.65625-.214844 1.746094zm-35.347656 74.5-12.097657-13.46875c.277344-.203125.5625-.390625.835938-.605469 1.628906-1.261718 4.714844-4.226562 7.707031-7.785156l13.273438 14.101562c-3.089844 2.6875-6.328125 5.324219-9.71875 7.757813zm-3.722657-36.585937c-.722656 2.386718-2.804687 5.710937-5.851562 9.363281-2.824219 3.378906-5.566406 5.953125-6.632812 6.78125-4.398438 3.414062-9.53125 4.914062-13.738282 4.007812-.175781-.039062-.308594-.070312-.398437-.097656-.003907-.089844 0-.207031.03125-.332031.179687-.789063.847656-1.753906 1.574219-2.757813 3.742187-5.167969 15.140624-20.890625 23.628906-19.300781 1.09375.203125 1.539062.507812 1.605468.585938.050782.109374.117188.660156-.21875 1.75zm0 0"/></svg>