<svg height="512pt" viewBox="-1 0 512 512.00055" width="512pt" xmlns="http://www.w3.org/2000/svg"><path d="m472.734375 74.304688c1.121094 0 2.253906-.03125 3.40625-.097657 9.808594-.558593 17.203125-3.066406 22.605469-7.667969 4.386718-3.738281 7.769531-9.238281 10.054687-16.351562 4.390625-13.652344.796875-30.972656-8.535156-41.179688-6.976563-7.625-16.476563-10.550781-26.761719-8.234374-12.378906 2.792968-25.515625 14.734374-31.945312 29.042968-4.585938 10.203125-4.972656 20.09375-1.144532 28.035156-2.789062 2.988282-5.578124 5.96875-8.371093 8.9375-10.679688-14.761718-21.566407-29.644531-32.40625-44.289062-1.410157-1.90625-4.035157-5.445312-8.308594-6.027344-2.808594-.378906-5.261719.660156-7.078125 1.605469-4.605469 2.402344-8.644531 5.902344-11.675781 10.125-2.300781 3.195313-3.390625 6.175781-3.335938 9.105469.101563 5.371094 4.054688 9.375 6.175781 11.527344 12.585938 12.75 26.644532 24.054687 41.78125 33.632812-2.800781 2.929688-5.609374 5.84375-8.421874 8.746094-12.894532-13.484375-26.027344-27.074219-39.074219-40.417969-1.652344-1.6875-4.726563-4.835937-9.03125-4.835937-.007813 0-.015625 0-.019531 0-2.84375.007812-5.121094 1.371093-6.792969 2.554687-4.234375 3.011719-7.757813 7.027344-10.1875 11.625-1.839844 3.480469-2.515625 6.582031-2.058594 9.476563.835937 5.308593 5.296875 8.734374 7.691406 10.574218 13.644531 10.480469 28.457031 19.441406 44.046875 26.710938-52.273437 52.351562-107.164062 98.339844-172.605468 125.871094-16.859376 7.09375-34.609376 12.988281-51.777344 18.691406-22.539063 7.492187-45.847656 15.234375-67.671875 25.835937-31.335938 15.21875-56.070313 34.664063-73.511719 57.792969-20.234375 26.828125-30.179688 59.347656-27.289062 89.214844 3.21875 33.230468 23.140624 63.578125 50.757812 77.3125 13.855469 6.890625 30.519531 10.378906 49.574219 10.378906 1.011719 0 2.03125-.007812 3.054687-.027344 47.671875-.917968 94.738282-23.003906 125.90625-59.085937 28.863282-33.414063 43.179688-76.015625 57.023438-117.21875 5.769531-17.175781 11.738281-34.9375 18.664062-51.714844 15.464844-37.453125 36.558594-72.144531 62.699219-103.105469 14.863281-17.605468 30.691406-33.699218 46-49.261718 1.398437-1.417969 2.796875-2.84375 4.199219-4.269532 10.363281 14.3125 20.898437 28.714844 31.378906 42.875 1.410156 1.902344 4.035156 5.445313 8.3125 6.023438.40625.054687.808594.082031 1.199219.082031 2.3125 0 4.324219-.878906 5.875-1.6875 4.605469-2.402344 8.644531-5.902344 11.679687-10.125 2.296875-3.199219 3.386719-6.175781 3.332032-9.105469-.101563-5.375-4.054688-9.375-6.175782-11.523437-12.109375-12.269531-25.585937-23.183594-40.066406-32.523438 2.675781-2.800781 5.347656-5.632812 8.011719-8.496093 12.492187 13.054687 25.179687 26.179687 37.769531 39.054687 1.652344 1.691406 4.726562 4.835937 9.03125 4.835937h.019531c2.84375-.007812 5.121094-1.367187 6.792969-2.554687 4.234375-3.007813 7.757812-7.027344 10.1875-11.625 1.839844-3.480469 2.511719-6.582031 2.058594-9.472656-.835938-5.3125-5.296875-8.738281-7.691406-10.578125-13.398438-10.292969-27.929688-19.121094-43.21875-26.320313 3.425781-3.976562 6.8125-8.03125 10.140624-12.179687 1.851563.199218 3.761719.308594 5.726563.308594zm-23.824219-41.183594c5.371094-11.953125 16.460938-22.246094 26.367188-24.480469 1.761718-.394531 3.457031-.59375 5.09375-.59375 5.371094 0 10.046875 2.144531 13.945312 6.40625 7.382813 8.074219 10.308594 22.375 6.808594 33.269531-1.820312 5.664063-4.378906 9.929688-7.605469 12.679688-4.015625 3.417968-9.847656 5.300781-17.835937 5.753906-10.09375.574219-22.640625-2.007812-27.585938-10.964844-3.238281-5.863281-2.949218-13.703125.8125-22.070312zm-26.628906 43.035156c-14.921875-9.351562-28.757812-20.449219-41.128906-32.984375-1.84375-1.867187-3.816406-4.027344-3.851563-6.015625-.023437-1.125.574219-2.515625 1.816407-4.246094 2.300781-3.203125 5.367187-5.859375 8.859374-7.679687 1.347657-.699219 1.96875-.804688 2.269532-.765625.902344.125 2.308594 2.023437 2.910156 2.835937 11.125 15.03125 22.308594 30.320313 33.257812 45.464844-1.199218 1.269531-2.398437 2.539063-3.597656 3.804687-.167968-.148437-.339844-.289062-.535156-.414062zm-68.070312-2.359375c-2.082032-1.597656-4.328126-3.46875-4.636719-5.429687-.175781-1.113282.222656-2.570313 1.21875-4.457032 1.84375-3.488281 4.519531-6.535156 7.730469-8.816406 1.238281-.878906 1.847656-1.066406 2.140624-1.066406h.003907c.910156 0 2.558593 1.6875 3.265625 2.410156 13.089844 13.390625 26.273437 27.027344 39.210937 40.5625-1.253906 1.277344-2.507812 2.554688-3.765625 3.828125-16.027344-7.226563-31.222656-16.320313-45.167968-27.03125zm-130.527344 373.820313c-29.695313 34.378906-74.539063 55.421874-119.960938 56.292968-19.011718.355469-35.464844-2.835937-48.882812-9.507812-25.183594-12.527344-43.367188-40.347656-46.320313-70.871094-2.699219-27.882812 6.664063-58.347656 25.695313-83.582031 16.667968-22.101563 40.417968-40.738281 70.597656-55.394531 10.390625-5.046876 21.183594-9.445313 32.09375-13.492188-14.53125 8.191406-28.277344 17.046875-41.140625 26.546875-19.949219 14.730469-35.015625 29.632813-46.0625 45.558594-13.527344 19.503906-21.003906 40.761719-21.621094 61.476562-.4375 14.695313 3.402344 26.265625 11.105469 33.460938 6.304688 5.886719 15.183594 9.011719 26.445312 9.316406-1.714843 14.203125 4.359376 30.957031 18.820313 36.878906 4.4375 1.816407 9.097656 2.421875 13.757813 2.421875 3.402343 0 6.804687-.320312 10.121093-.734375 45.777344-5.710937 88.824219-26.941406 121.21875-59.785156 11.9375-12.101563 26.109375-38.027344 39.109375-62.640625-10.988281 30.335938-24.113281 59.902344-44.976562 84.054688zm74.335937-166.742188c-5.191406 12.574219-9.824219 25.613281-14.234375 38.542969-.292968.257812-.5625.546875-.78125.894531-4.730468 7.667969-10.59375 18.808594-17.375 31.707031-13.121094 24.941407-29.449218 55.984375-41.8125 68.523438-31.128906 31.554687-72.496094 51.957031-116.480468 57.441406-6.777344.847656-13.867188 1.292969-19.828126-1.148437-9.480468-3.882813-17.183593-17.386719-13.101562-32.433594.335938-1.242188.058594-2.566406-.742188-3.570313-.800781-1.003906-2.011718-1.578125-3.324218-1.511719-7.867188.339844-18.699219-.617187-25.648438-7.109374-7.53125-7.03125-8.804687-18.742188-8.546875-27.324219.570313-19.152344 7.550781-38.902344 20.183594-57.121094 10.535156-15.1875 25.003906-29.472656 44.226563-43.667969 29.824218-22.023437 64.464843-40.585937 102.96875-55.175781.792968-.300781 1.433593-.828125 1.882812-1.480469 6.207031-2.285156 12.382812-4.675781 18.457031-7.234375 24.535157-10.320312 47.570313-23.152343 69.523438-37.886719 3.125 8.835938 10.277343 15.835938 16.96875 21.820313 3.429687 3.070313 7.378906 6.289063 12.082031 7.5-9.238281 15.796875-17.398438 32.234375-24.417969 49.234375zm170.210938-131.355469c1.84375 1.867188 3.816406 4.027344 3.855469 6.015625.019531 1.125-.574219 2.511719-1.820313 4.246094-2.300781 3.203125-5.363281 5.855469-8.859375 7.679688-1.347656.703124-1.980469.800781-2.265625.765624-.902344-.121093-2.308594-2.023437-2.910156-2.835937-10.734375-14.503906-21.53125-29.257813-32.136719-43.914063 1.367188-1.402343 2.738281-2.8125 4.113281-4.226562 14.492188 9.203125 27.960938 20.046875 40.023438 32.269531zm26.941406-30.628906c2.082031 1.601563 4.328125 3.472656 4.640625 5.433594.171875 1.113281-.226562 2.570312-1.222656 4.457031-1.84375 3.484375-4.515625 6.535156-7.730469 8.816406-1.238281.878906-1.847656 1.066406-2.140625 1.066406 0 0 0 0-.003906 0-.910156 0-2.558594-1.6875-3.265625-2.410156-12.6875-12.976562-25.476563-26.207031-38.066407-39.363281 1.324219-1.457031 2.644532-2.921875 3.957032-4.398437 15.539062 7.125 30.28125 15.992187 43.832031 26.398437zm-78.558594-1.304687c-.070312.046874-.148437.078124-.21875.128906-.472656.339844-.84375.769531-1.121093 1.246094-2.289063 2.335937-4.574219 4.660156-6.847657 6.972656-15.417969 15.671875-31.355469 31.875-46.417969 49.714844-12.921874 15.304687-24.621093 31.507812-35.058593 48.484374-.164063-.019531-.328125-.050781-.5-.050781-.042969 0-.089844 0-.132813 0-3.628906 0-7.21875-2.9375-10.585937-5.949219-6.765625-6.050781-13.476563-12.609374-15.371094-20.578124 52.375-36.472657 98.722656-83.625 144.820313-132.992188 3.355468 3.375 7.742187 5.949219 12.90625 7.597656-13.273438 16.207032-27.441407 31.09375-41.472657 45.425782zm0 0"/><path d="m264.785156 232.414062c-1.421875-1.714843-3.964844-1.953124-5.679687-.53125-1.710938 1.421876-1.949219 3.964844-.527344 5.679688 8.386719 10.109375 17.363281 19.933594 26.671875 29.191406.789062.78125 1.816406 1.171875 2.84375 1.171875 1.035156 0 2.070312-.398437 2.859375-1.1875 1.570313-1.582031 1.5625-4.132812-.015625-5.703125-9.132812-9.078125-17.929688-18.707031-26.152344-28.621094zm0 0"/><path d="m247.523438 249.675781c-1.421876-1.714843-3.964844-1.953125-5.679688-.53125s-1.949219 3.964844-.527344 5.679688c8.382813 10.105469 17.355469 19.925781 26.671875 29.1875.785157.785156 1.816407 1.175781 2.84375 1.175781 1.035157 0 2.070313-.398438 2.859375-1.191406 1.570313-1.578125 1.5625-4.128906-.019531-5.699219-9.132813-9.082031-17.929687-18.710937-26.148437-28.621094zm0 0"/><path d="m229.476562 268.894531c-1.421874-1.714843-3.964843-1.949219-5.675781-.527343-1.714843 1.421874-1.953125 3.960937-.53125 5.675781 8.386719 10.109375 17.359375 19.929687 26.675781 29.191406.785157.78125 1.816407 1.175781 2.84375 1.175781 1.035157 0 2.070313-.398437 2.859376-1.191406 1.570312-1.578125 1.5625-4.132812-.019532-5.699219-9.132812-9.082031-17.933594-18.710937-26.152344-28.625zm0 0"/><path d="m212.214844 286.15625c-1.417969-1.710938-3.960938-1.949219-5.675782-.527344-1.714843 1.421875-1.949218 3.960938-.53125 5.675782 8.394532 10.117187 17.367188 19.9375 26.675782 29.191406.785156.785156 1.816406 1.171875 2.84375 1.171875 1.035156 0 2.070312-.394531 2.859375-1.1875 1.570312-1.578125 1.5625-4.132813-.019531-5.703125-9.125-9.070313-17.925782-18.703125-26.152344-28.621094zm0 0"/><path d="m190.28125 303.0625c-1.402344-1.734375-3.941406-1.996094-5.667969-.597656-1.730469 1.402344-1.996093 3.941406-.59375 5.671875 8.101563 10 16.78125 19.71875 25.792969 28.886719.785156.800781 1.832031 1.207031 2.875 1.207031 1.019531 0 2.039062-.386719 2.824219-1.160157 1.589843-1.558593 1.609375-4.113281.050781-5.699218-8.832031-8.984375-17.339844-18.507813-25.28125-28.308594zm0 0"/><path d="m172.835938 322.078125c-1.402344-1.730469-3.941407-1.996094-5.671876-.59375-1.730468 1.402344-1.996093 3.941406-.59375 5.671875 8.105469 10 16.785157 19.71875 25.796876 28.882812.789062.804688 1.832031 1.207032 2.875 1.207032 1.019531 0 2.039062-.382813 2.824218-1.15625 1.589844-1.558594 1.609375-4.113282.050782-5.703125-8.832032-8.980469-17.335938-18.507813-25.28125-28.308594zm0 0"/><path d="m156.148438 339.15625c-1.402344-1.734375-3.941407-1.996094-5.671876-.59375-1.730468 1.402344-1.992187 3.941406-.59375 5.667969 8.109376 10.007812 16.789063 19.726562 25.792969 28.886719.789063.804687 1.832031 1.207031 2.875 1.207031 1.023438 0 2.042969-.386719 2.828125-1.15625 1.585938-1.5625 1.609375-4.113281.046875-5.703125-8.824219-8.980469-17.332031-18.503906-25.277343-28.308594zm0 0"/><path d="m104.402344 400.554688c-5.949219-5.652344-13.242188-11.5625-22.222656-12.5-5.007813-.519532-9.171876.820312-11.71875 3.78125-2.386719 2.769531-3.082032 6.691406-1.957032 11.042968 3.652344 14.128906 16.640625 27.8125 28.859375 39.335938 4.363281 4.113281 9.714844 8.445312 16.347657 9.40625.746093.109375 1.496093.160156 2.25.160156 3.574218 0 7.1875-1.1875 9.996093-3.347656 2.8125-2.167969 4.570313-5.152344 4.949219-8.414063.535156-4.613281-1.59375-8.648437-3.972656-12.320312-6.410156-9.894531-13.988282-19.027344-22.53125-27.144531zm18.496094 38.535156c-.160157 1.382812-1.101563 2.367187-1.859376 2.953125-1.65625 1.273437-4.074218 1.902343-6.167968 1.597656-4.402344-.636719-8.355469-3.882813-11.972656-7.292969-10.722657-10.105468-23.429688-23.269531-26.585938-35.484375-.257812-.996093-.566406-2.808593.257812-3.765625.753907-.875 2.535157-1.253906 4.773438-1.023437 6.574219.6875 12.539062 5.605469 17.503906 10.324219 8.082032 7.679687 15.253906 16.320312 21.320313 25.683593 1.453125 2.242188 2.984375 4.820313 2.730469 7.007813zm0 0"/></svg>