<svg height="512pt" viewBox="0 -7 512.00015 512" width="512pt" xmlns="http://www.w3.org/2000/svg"><path d="m510.523438 329.851562c-2.953126-13.460937-9.914063-24.917968-19.601563-32.253906-9.476563-7.175781-21.671875-10.425781-33.460937-8.917968-6.152344.789062-14.359376 2.484374-21.753907 7.824218.582031-8.761718-.664062-17.109375-6.460937-23.683594-6.441406-7.3125-16.304688-9.394531-25.042969-10.769531-55.296875-8.691406-111.730469-10.015625-167.734375-3.925781-13.933594 1.511719-27.984375 3.511719-41.765625 5.941406-2.671875.472656-5.566406.871094-8.625 1.296875-9.757813 1.347657-20.8125 2.875-29.351563 7.515625-10.25 5.566406-10.390624 16.648438-10.496093 24.742188-.152344 11.976562 1.339843 24.117187 4.441406 36.09375 6.804687 26.269531 21.296875 50.734375 40.800781 68.890625 6.675782 6.214843 13.9375 11.761719 21.648438 16.625-31.644532 1.835937-67.292969 8.210937-97.109375 17.632812-1.679688.53125-2.957031 1.90625-3.363281 3.617188-.402344 1.714843.125 3.515625 1.390624 4.742187 22.957032 22.25 54.628907 38.347656 91.585938 46.550782 25.6875 5.703124 51.832031 7.230468 74.992188 7.230468 9.632812 0 18.746093-.265625 27.097656-.601562 25.910156-1.054688 56.191406-3.402344 84.335937-12.824219 21.378907-7.15625 50.839844-21.652344 69.792969-50.074219.972656-1.457031 1.109375-3.320312.363281-4.90625-.746093-1.585937-2.269531-2.664062-4.011719-2.84375-16.394531-1.679687-32.417968-2.589844-47.914062-3.46875-11.480469-.648437-23.257812-1.320312-35.214844-2.304687 5.640625-3.695313 11.125-8.011719 16.265625-13.085938 3.652344-3.605469 6.96875-7.441406 10.007813-11.460937 12.160156 9.703125 27.632812 14.738281 43.101562 14.738281 11.773438 0 23.539063-2.914063 33.816406-8.894531 24.859376-14.457032 38.425782-45.339844 32.265626-73.425782zm-82.136719 8.261719c6.515625-5.90625 13.949219-9.269531 20.933593-9.46875 7.5625-.234375 14.835938 3.722657 17.703126 9.585938 3.011718 6.152343 1.300781 13.523437.015624 17.371093-2.539062 7.582032-7.164062 13.929688-13.023437 17.871094-6.230469 4.191406-13.867187 5.550782-20.417969 3.644532-6.75-1.96875-12.117187-7.578126-13.359375-13.960938-.039062-.214844-.117187-.414062-.183593-.613281 2.945312-7.789063 5.371093-15.78125 7.445312-23.792969.3125-.179688.613281-.386719.886719-.636719zm-240.941407-62.84375c3.15625-.4375 6.136719-.847656 8.992188-1.351562 13.566406-2.394531 27.398438-4.363281 41.113281-5.851563 55.121094-5.996094 110.671875-4.695312 165.097657 3.863282 4.707031.742187 10.339843 2.671874 14.875 5.675781-28.164063 14.496093-60.917969 23.058593-97.464844 25.464843-32.101563 2.113282-66.4375-.375-108.070313-7.835937-16.355469-2.929687-33.445312-6.601563-48.964843-13.351563 6.953124-4.597656 16.84375-5.566406 24.421874-6.613281zm201.429688 200.828125c-26.957031 9.023438-56.359375 11.285156-81.570312 12.308594-27.816407 1.132812-64.265626 1.429688-99.515626-6.394531-22.722656-5.042969-45.167968-13.660157-64.570312-26.671875 40.835938 10.3125 86.285156 15.386718 138.023438 15.386718 4.230468 0 8.503906-.03125 12.816406-.097656 59.066406-.925781 103.515625-8.21875 141.558594-23.410156-12.703126 13.6875-28.171876 22.660156-46.742188 28.878906zm20.839844-41.824218c9.003906.507812 17.738281 1.507812 26.632812 1.832031-37.839844 15.96875-82.316406 23.582031-142.445312 24.523437-60.714844.949219-112.722656-4.855468-158.589844-17.722656 14.117188-6.378906 30.738281-8.144531 45.84375-10.3125 16.34375-2.34375 32.867188-3.855469 49.386719-3.902344 20.722656 9.5625 43.726562 14.636719 67.113281 14.636719 7.652344 0 15.351562-.542969 23.015625-1.648437 11.308594-1.632813 25.328125-4.910157 39.386719-11.402344.53125.273437 1.113281.460937 1.742187.527344 16.394531 1.679687 32.417969 2.589843 47.914063 3.46875zm-25.410156-32.5c-20.21875 19.957031-46.542969 27.332031-65.0625 30.003906-28.765626 4.152344-57.90625-.144532-83.410157-11.664063-.78125-.765625-1.8125-1.257812-2.960937-1.382812-12.652344-6.0625-24.355469-13.917969-34.585938-23.445313-18.125-16.875-31.597656-39.628906-37.929687-64.078125-2.070313-7.996093-3.402344-16.183593-3.90625-24.429687-.34375-5.605469-1.957031-11.617188-.089844-16.933594 17.167969 7.929688 35.964844 12.027344 53.867187 15.234375 32.746094 5.871094 61.121094 8.71875 87.5 8.71875 7.816407 0 15.460938-.25 22.988282-.746094 38.996094-2.570312 73.902344-11.957031 103.847656-27.871093 2.847656 6.230468.957031 14.578124-.265625 21.121093-6.226563 33.242188-14.964844 70.777344-39.992187 95.472657zm88.921874-7.136719c-20.152343 11.722656-48.144531 9.292969-66.195312-5.449219 2.855469-4.535156 5.40625-9.25 7.707031-14.097656 3.773438 5.441406 9.488281 9.714844 16.058594 11.628906 2.851563.832031 5.832031 1.238281 8.839844 1.238281 6.882812 0 13.929687-2.128906 19.957031-6.183593 7.683594-5.164063 13.695312-13.332032 16.929688-22.996094 3.058593-9.148438 2.875-18.003906-.515626-24.9375-4.605468-9.417969-15.449218-15.527344-26.976562-15.191406-6.03125.171874-12.207031 2.019531-18.054688 5.3125.902344-4.207032 1.734376-8.390626 2.523438-12.515626 1.054688-.253906 2.042969-.828124 2.765625-1.746093 4.988281-6.324219 11.917969-9.746094 22.464844-11.097657 9.214843-1.179687 18.746093 1.359376 26.152343 6.96875 7.792969 5.902344 13.425782 15.285157 15.871094 26.421876 5.171875 23.574218-6.660156 50.507812-27.527344 62.644531zm0 0"/><path d="m205.273438 207.050781c5.351562 1.46875 10.800781 2.597657 16.261718 3.324219 5.832032.777344 11.640625 1.160156 17.390625 1.160156 21.984375 0 43.0625-5.617187 60.675781-16.355468 29.128907-17.753907 48.414063-49.949219 50.328126-84.019532 1.902343-34.070312-13.664063-68.21875-40.628907-89.113281-21.066406-16.332031-49.746093-24.007813-80.761719-21.617187-11.214843.875-20.160156 2.777343-28.15625 5.984374-18.671874 7.484376-37.863281 24.589844-51.933593 46.128907-15-4.734375-31.855469-6.53125-49.027344-5.195313-11.027344.847656-20.238281 2.804688-28.160156 5.984375-26.628907 10.679688-48.238281 37.644531-58.644531 57.488281-15.410157 29.339844-16.800782 64.242188-3.640626 91.089844 14.308594 29.214844 46.277344 50.4375 83.433594 55.382813 5.824219.777343 11.628906 1.160156 17.375 1.160156 21.984375 0 43.066406-5.621094 60.695313-16.363281 14-8.542969 25.960937-20.609375 34.792969-35.039063zm-1.164063-191.355469c7.027344-2.820312 15.035156-4.503906 25.207031-5.296874 28.53125-2.199219 54.757813 4.742187 73.859375 19.550781 24.402344 18.914062 38.492188 49.816406 36.769531 80.652343-1.734374 30.832032-19.183593 59.96875-45.546874 76.039063-20.277344 12.359375-45.683594 17.265625-71.542969 13.820313-4.230469-.5625-8.457031-1.375-12.621094-2.425782.398437-.816406.785156-1.640625 1.164063-2.46875.074218-.15625.144531-.316406.214843-.476562.320313-.707032.632813-1.417969.9375-2.132813.125-.289062.242188-.582031.363281-.875.246094-.589843.488282-1.179687.722657-1.769531.128906-.328125.253906-.652344.378906-.980469.214844-.566406.429687-1.132812.636719-1.699219.121094-.335937.242187-.671874.363281-1.011718.203125-.574219.398437-1.148438.589844-1.722656.109375-.328126.21875-.652344.324219-.976563.203124-.621094.394531-1.242187.582031-1.863281.085937-.28125.175781-.5625.257812-.84375.238281-.808594.46875-1.621094.6875-2.433594.023438-.09375.050781-.1875.074219-.277344.246094-.921875.476562-1.847656.695312-2.773437.050782-.207031.09375-.417969.140626-.625.164062-.703125.320312-1.410157.46875-2.121094.0625-.308594.121093-.617187.183593-.925781.121094-.609375.238281-1.222656.351563-1.832032.058594-.339843.117187-.679687.175781-1.019531.097656-.589843.191406-1.179687.28125-1.769531.054687-.34375.105469-.691406.152344-1.039062.085937-.589844.160156-1.183594.234375-1.777344.042968-.335938.085937-.671875.121094-1.007813.074218-.640625.136718-1.277343.195312-1.917969.027344-.285156.054688-.570312.082031-.859374.074219-.921876.140625-1.84375.191407-2.765626 1.914062-34.058593-13.648438-68.207031-40.617188-89.121093-.949219-.730469-1.914062-1.441407-2.890625-2.140625-.308594-.222656-.625-.4375-.9375-.65625-.683594-.476563-1.375-.945313-2.070313-1.40625-.363281-.238282-.722656-.472656-1.085937-.707032-.691406-.441406-1.390625-.875-2.089844-1.300781-.347656-.210937-.691406-.421875-1.039062-.628906-.894531-.527344-1.800781-1.039063-2.710938-1.539063-.15625-.085937-.308593-.175781-.460937-.257812-1.0625-.574219-2.140625-1.128906-3.226563-1.667969-.339843-.167969-.683593-.328125-1.027343-.492187-.769532-.371094-1.539063-.734375-2.320313-1.085938-.410156-.183594-.820313-.367187-1.230469-.546875-.335937-.144531-.664062-.296875-1-.441406 12.828125-18.957031 29.71875-33.851563 46.011719-40.382813zm-110.375 231.683594c-33.886719-4.511718-62.921875-23.621094-75.777344-49.867187-11.785156-24.039063-10.4375-55.476563 3.515625-82.042969 9.621094-18.339844 29.410156-43.191406 53.511719-52.855469 6.964844-2.796875 15.210937-4.527343 25.210937-5.296875 3.4375-.265625 6.863282-.398437 10.257813-.398437 13.621094 0 26.746094 2.140625 38.445313 6.3125 9.261718 3.292969 17.730468 7.875 25.160156 13.625 3.816406 2.957031 7.375 6.207031 10.664062 9.703125 16.441406 17.480468 26.0625 41.121094 26.238282 65.175781.011718 1.921875-.035157 3.847656-.140626 5.773437v.003907c-.785156 14.136719-5.015624 28.386719-12.242187 41.210937-8.152344 14.464844-19.667969 26.507813-33.304687 34.828125-20.28125 12.359375-45.691407 17.273438-71.539063 13.828125zm0 0"/><path d="m88.753906 155.492188c-12.585937-3.640626-24.269531 3.390624-28.410156 17.101562-2.574219 8.523438-.667969 18.023438 5.09375 25.417969v.003906c2.632812 3.371094 5.671875 5.800781 9.035156 7.210937 2.445313 1.03125 5.136719 1.542969 7.980469 1.542969 2.234375 0 4.558594-.316406 6.929687-.957031 8.121094-2.191406 14.996094-7.757812 18.382813-14.894531 3.085937-6.492188 3.226563-13.242188.40625-19.519531-3.332031-7.398438-10.589844-13.347657-19.417969-15.90625zm9.980469 31.136718c-2.152344 4.527344-6.621094 8.089844-11.957031 9.527344-3.171875.859375-6.164063.804688-8.433594-.148438-1.761719-.742187-3.453125-2.132812-5.015625-4.140624-3.714844-4.769532-5.023437-11.042969-3.410156-16.382813 2.015625-6.683594 7.292969-12.917969 16.050781-10.382813 5.957031 1.722657 10.972656 5.710938 13.082031 10.402344 1.601563 3.5625 1.496094 7.304688-.316406 11.125zm0 0"/><path d="m123.605469 99.328125c-3.132813-11.519531-12.929688-18.71875-28.324219-20.8125-9.632812-1.3125-18.21875 2.710937-26.234375 12.296875-4.710937 5.640625-7.824219 12.316406-9.003906 19.3125-1.621094 9.628906.828125 18.804688 6.550781 24.542969 6.019531 6.035156 14.328125 7.503906 20.988281 7.503906.863281 0 1.703125-.023437 2.5-.066406 6.757813-.363281 12.59375-1.960938 17.34375-4.757813 6.625-3.902344 11.914063-10.640625 14.886719-18.976562 2.402344-6.734375 2.847656-13.320313 1.292969-19.042969zm-10.710938 15.683594c-2.1875 6.132812-5.933593 11.003906-10.542969 13.71875-3.355468 1.972656-7.660156 3.113281-12.800781 3.386719-4.03125.214843-11.460937-.085938-15.875-4.507813-3.445312-3.460937-4.855469-9.375-3.769531-15.824219.882812-5.246094 3.238281-10.28125 6.816406-14.558594 5.785156-6.921874 11.089844-9.632812 17.210938-8.804687 11.261718 1.535156 17.996094 6.085937 20.023437 13.527344 1.285157 4.730469.128907 9.714843-1.0625 13.0625zm0 0"/><path d="m186.035156 174.003906c6.753906-10.539062 7.15625-24.882812 1.003906-35.699218-6.085937-10.695313-21.441406-20.558594-34.601562-18.191407-13.183594 2.371094-25.910156 16.617188-29.085938 27.921875-2.417968 8.613282-1.074218 18.296875 3.59375 25.898438 5.703126 9.28125 16.144532 15.472656 27.25 16.15625.695313.042968 1.390626.066406 2.085938.066406 11.859375 0 23.367188-6.1875 29.753906-16.152344zm-8.417968-5.394531c-4.761719 7.425781-13.925782 12.042969-22.804688 11.5-7.90625-.484375-15.320312-4.859375-19.34375-11.410156-3.238281-5.265625-4.167969-11.980469-2.488281-17.960938 2.261719-8.042969 12.496093-19.214843 21.226562-20.78125 8.472657-1.523437 19.929688 5.898438 24.140625 13.296875 4.363282 7.671875 4.070313 17.859375-.730468 25.355469zm0 0"/><path d="m223.96875 85.921875c5.023438 3.453125 11.082031 5.164063 17.167969 5.164063 6.78125 0 13.597656-2.121094 19.0625-6.316407 5.863281-4.5 9.957031-11.085937 11.234375-18.0625 1.359375-7.445312-.527344-15.320312-5.058594-21.066406-2.835938-3.597656-6.421875-6.128906-9.558594-8.132813-8.875-5.675781-17.753906-7.011718-25.667968-3.855468-8.558594 3.414062-15.179688 9.855468-18.167969 17.679687-4.660157 12.210938.0625 27.082031 10.988281 34.589844zm-1.644531-31.027344c1.992187-5.21875 6.558593-9.574219 12.527343-11.953125 4.867188-1.941406 10.441407-.933594 16.578126 2.988282 2.433593 1.554687 5.179687 3.472656 7.09375 5.902343 2.777343 3.523438 3.925781 8.410157 3.074218 13.074219-.835937 4.570312-3.566406 8.917969-7.488281 11.929688-6.921875 5.3125-17.445313 5.675781-24.476563.84375-7.113281-4.882813-10.320312-14.894532-7.308593-22.785157zm0 0"/><path d="m279.488281 127.335938c5.019531 5.5625 12.371094 8.550781 19.6875 8.550781 4.191407 0 8.371094-.980469 12.097657-3.019531 10.4375-5.710938 15.640624-18.917969 11.835937-30.066407-2.945313-8.636719-10.738281-14.714843-23.164063-18.074219-9.621093-2.601562-18.71875 2.582032-23.742187 13.519532-3.25 7.078125-3.808594 14.792968-1.523437 21.164062 1.023437 2.855469 2.640624 5.523438 4.808593 7.925782zm5.804688-24.914063c1.511719-3.296875 4.671875-8.351563 9.792969-8.351563.710937 0 1.460937.097657 2.25.308594 9.015624 2.4375 14.503906 6.355469 16.308593 11.648438 2.203125 6.464844-1.082031 14.738281-7.171875 18.070312-6.171875 3.375-14.765625 1.855469-19.5625-3.460937-1.269531-1.40625-2.246094-3-2.816406-4.597657 0 0 0 0 0-.003906-1.386719-3.867187-.9375-8.960937 1.199219-13.613281zm0 0"/><path d="m240.800781 117.824219c-5.867187 4.335937-12.339843 12.609375-13.578125 21.328125-.546875 3.851562-.15625 7.933594 1.195313 12.484375.722656 2.4375 2.003906 6.003906 4.785156 8.800781 2.597656 2.609375 6.25 4.304688 10.566406 4.898438 1.050781.144531 2.105469.214843 3.15625.214843 9.46875 0 18.546875-5.714843 21.929688-14.1875 3.335937-8.359375 1.257812-18.777343-5.5625-27.863281-5.347657-7.128906-14.792969-11.367188-22.492188-5.675781zm18.769531 29.828125c-2.074218 5.1875-8.417968 8.601562-14.441406 7.777344-2.09375-.289063-3.808594-1.015626-4.832031-2.042969-.90625-.910157-1.632813-2.371094-2.292969-4.597657-.917968-3.097656-1.214844-5.867187-.878906-8.230468.699219-4.910156 4.742188-11.089844 9.621094-14.691406.621094-.460938 1.289062-.648438 1.96875-.648438 2.6875 0 5.585937 2.957031 6.582031 4.28125 3.632813 4.84375 6.664063 12.15625 4.273437 18.152344zm0 0"/></svg>