<svg height="512pt" viewBox="0 -50 512.00036 512" width="512pt" xmlns="http://www.w3.org/2000/svg"><path d="m503.863281 190.742188c-7.277343-9.738282-17.757812-16.269532-27.003906-22.03125l-164.015625-102.1875c-1.46875-.917969-3.003906-1.773438-4.488281-2.605469-4.992188-2.792969-9.703125-5.433594-11.296875-9.679688-.847656-2.246093-1.121094-4.992187-1.410156-7.898437-.359376-3.59375-.765626-7.671875-2.375-11.613282-7.425782-18.1875-24.125-31.628906-42.539063-34.25-23.464844-3.339843-47.992187 11.195313-57.449219 32.710938-13.191406-10.515625-32.054687-13.339844-47.675781-6.441406-15.359375 6.78125-25.886719 22.207031-27.296875 38.726562-13.753906-5.921875-30.152344-5.105468-43.15625 2.65625-13.144531 7.847656-21.683594 22.125-22.84375 37.222656-6.589844-2.289062-13.996094-2.734374-21.289062-1.179687-10.402344 2.222656-19.351563 8.269531-24.558594 16.589844-10.8125 17.277343-5.964844 38.964843-.574219 57.929687l31.210937 109.832032c6.160157 21.679687 13.105469 42.144531 30.203126 54.242187 9.886718 6.996094 22 9.988281 31.734374 12.394531 108.039063 26.699219 219.007813 45.417969 329.824219 55.640625 3.625.335938 7.621094.703125 11.753907.703125 5.796874 0 11.871093-.726562 17.59375-3.285156 13.078124-5.84375 17.484374-19.207031 14.0625-28.238281-1.324219-3.503907-3.585938-6.453125-6.730469-8.832031 9.15625-13.496094 13.960937-29.722657 13.582031-46.050782-.402344-17.382812-6.671875-34.382812-17.648438-47.867187-.1875-.230469-.398437-.425781-.613281-.613281 9.625-8.730469 17.761719-19.113282 23.8125-30.726563.378907-.71875.539063-1.492187.546875-2.25 9.558594-2.054687 18.730469-6.703125 23.726563-16.46875 5.46875-10.6875 3.472656-24.988281-5.085938-36.429687zm-200.394531-118.101563c1.449219.8125 2.816406 1.578125 4.089844 2.371094l164.011718 102.1875c8.914063 5.554687 18.128907 11.296875 24.285157 19.527343 5.148437 6.890626 7.582031 17.203126 4.222656 25.222657-58.195313-2.722657-116.714844-12.363281-173.320313-21.703125l-264.125-43.5625c29.972657-26.371094 64.054688-47.882813 101.445313-64.019532 39.957031-17.238281 81.785156-27.5 124.359375-30.542968.375.671875.804688 1.296875 1.3125 1.847656 3.261719 3.546875 9.5625 6.347656 13.71875 8.671875zm165.660156 252.6875c.339844 14.707031-4.148437 29.3125-12.640625 41.308594-4.90625-1.578125-10.058593-2.253907-13.730469-2.628907l-65.5-6.667968c5.769532-17.757813 2.636719-37.828125-7.925781-53.109375 5.695313.882812 11.457031 1.351562 17.230469 1.351562 7.597656 0 15.207031-.777343 22.683594-2.367187 16.035156-3.40625 31.101562-10.464844 44.054687-20.304688.125.214844.257813.433594.417969.636719 9.585938 11.769531 15.058594 26.609375 15.410156 41.78125zm-306.828125-64.957031c-28.277343 6.386718-58.1875 2.882812-84.226562-9.867188-1.226563-.597656-2.574219-.648437-3.773438-.25-4.363281-16.761718-6.628906-34.175781-8.621093-51.304687l166.019531 19.234375c-17.859375 21.148437-42.347657 36.082031-69.398438 42.1875zm79.648438-38.878906c.484375-.609376.785156-1.300782.945312-2.011719l127.84375 14.808593c-4.058593 14.359376-20.597656 22.480469-34.636719 27.960938-19.621093 7.660156-45.539062 16.542969-72.015624 17.226562-26.015626.660157-50.097657-7.195312-66.300782-21.578124 17.007813-8.875 32.128906-21.261719 44.164063-36.40625zm-107.652344 51.992187c10.117187 0 20.257813-1.109375 30.207031-3.355469 8.378906-1.894531 16.527344-4.574218 24.351563-7.96875.222656.941406.722656 1.824219 1.492187 2.527344 9.679688 8.824219 21.570313 15.429688 34.945313 19.605469-8.371094 22.949219-26.335938 42.453125-48.554688 52.597656-18.367187-2.050781-37.921875-5.21875-54.1875-14.585937-18.742187-10.792969-34.152343-30.777344-43.390625-56.277344-.570312-1.566406-1.105468-3.144532-1.625-4.730469 17.871094 8.066406 37.28125 12.1875 56.761719 12.1875zm100.699219 13.355469c8.21875 1.761718 16.882812 2.679687 25.863281 2.679687 1.15625 0 2.320313-.015625 3.484375-.046875 18.082031-.464844 35.722656-4.476562 51.445312-9.398437.308594.539062.714844 1.035156 1.230469 1.445312 11.210938 8.910157 24.101563 15.464844 37.730469 19.464844.136719 1.03125.578125 2.027344 1.359375 2.832031 13.046875 13.414063 17.523437 34.972656 10.925781 52.484375l-172.945312-17.609375c18.707031-12.273437 33.453125-30.789062 40.90625-51.851562zm172.171875 6.59375c-27.726563 5.890625-57.417969-.480469-80.347657-17.042969 4.535157-1.605469 8.863282-3.242187 12.917969-4.824219 16.46875-6.429687 35.992188-16.265625 40.871094-35.425781.058594-.230469.078125-.460937.101563-.691406l74.496093 8.628906c3.921875.453125 10.828125 1.25 18.527344.949219-14.195313 24.539062-38.78125 42.5-66.566406 48.40625zm49.1875-59.292969-395.785157-45.851563c-1.519531-.179687-3.03125.347657-4.109374 1.425782-1.082032 1.078125-1.609376 2.59375-1.4375 4.109375 2.878906 25.121093 5.851562 51.097656 14.734374 75.609375 10.039063 27.714844 27.019532 49.570312 47.804688 61.539062 21.0625 12.125 46.003906 14.664063 68.007812 16.90625l256.175782 26.078125c12.625 1.285157 19.160156 4.234375 21.175781 9.5625 2.222656 5.867188-2.851563 12.914063-8.792969 15.570313-6.851562 3.0625-15.082031 2.601562-24.347656 1.75-110.320312-10.175782-220.789062-28.8125-328.34375-55.386719-11.339844-2.804687-20.628906-5.382813-28.355469-10.851563-8.242187-5.832031-16.457031-13.953124-26.363281-48.8125l-31.210938-109.832031c-5.023437-17.671875-9.203124-36.085937-.5625-49.890625 3.777344-6.039062 10.398438-10.457031 18.167969-12.113281 2.199219-.472656 4.402344-.703125 6.5625-.703125 5.488281 0 10.726563 1.484375 14.972657 4.332031 1.617187 1.085938 3.71875 1.132813 5.382812.117188 1.664062-1.011719 2.589844-2.902344 2.367188-4.835938-1.601563-14.039062 5.753906-28.902343 17.886718-36.148437 12.132813-7.242188 28.707032-6.667969 40.304688 1.398437 1.621094 1.128907 3.753906 1.191407 5.441406.175781.847656-.511718 1.5-1.246093 1.914062-2.101562.414063-.851562.585938-1.820312.460938-2.800781-1.894531-15.1875 7.238281-31.308594 21.242188-37.492188 14.003906-6.1875 32.066406-2.070312 42.015624 9.5625 1.21875 1.425781 3.132813 2.046875 4.953126 1.617188 1.820312-.429688 3.25-1.84375 3.703124-3.660157 5.199219-20.945312 27.640626-36.074218 49.007813-33.035156 14.964844 2.128906 28.578125 13.167969 34.6875 28.125 1.0625 2.601563 1.363281 5.625 1.683594 8.828125.148437 1.484375.242187 3.183594.390625 4.941407-43.132813 3.265624-85.496094 13.742187-125.972656 31.210937-41.660157 17.972656-79.316407 42.460937-111.929688 72.78125-1.398438 1.296875-1.933594 3.277344-1.382812 5.105469.550781 1.824218 2.09375 3.179687 3.972656 3.488281l274.355468 45.253906c54 8.90625 109.730469 18.09375 165.523438 21.355469-10.144531 5.074219-23.707031 3.898438-34.300781 2.671875zm0 0"/><path d="m252.230469 83.867188c-31.652344 5.210937-62.789063 13.921874-92.550781 25.894531-10.871094 4.371093-23.449219 9.929687-34.335938 18.019531-9.375 6.96875-10.085938 15.074219-6.636719 20.015625 1.460938 2.09375 3.710938 3.679687 6.691407 4.714844 7.925781 2.746093 15.058593.238281 21.585937-2.875 6.71875-3.210938 14.019531-6.511719 23.667969-10.707031 16.070312-6.980469 32.5625-13.578126 49.019531-19.597657 8.96875-3.28125 18.105469-6.457031 27.152344-9.441406 4.15625-1.367187 7.589843-2.390625 10.769531-2.019531 3.691406.429687 8.367188 2.5625 9.207031 3.84375.132813 1.324218-.957031 4.640625-8.945312 12.484375-14.558594 14.285156-19.195313 27.699219-13.777344 39.863281 5.027344 11.277344 17.828125 18.871094 32.617187 19.347656 11.871094.371094 23.074219-3.28125 33.898438-6.824218l1.304688-.425782c10.804687-3.53125 21.355468-6.609375 31.558593-5.503906 6.417969.695312 12.578125 3.054688 17.820313 6.8125 3.253906 2.339844 6.167968 5.207031 9.253906 8.242188 1.847656 1.820312 3.757812 3.703124 5.777344 5.492187 10.039062 8.890625 22.277344 15.066406 35.390625 17.863281 4.214843.898438 8.203125 1.347656 11.949219 1.347656 6.5 0 12.273437-1.351562 17.253906-4.046874 2.925781-1.585938 4.972656-3.4375 6.261718-5.660157 3.46875-5.988281.835938-13.152343-3.554687-17.132812-3.890625-3.527344-8.863281-4.992188-12.859375-6.171875-16.183594-4.769532-30.492188-9.460938-41.722656-18.542969-2.03125-1.640625-3.972656-3.433594-6.023438-5.328125-4.648437-4.289062-9.453125-8.726562-15.613281-11.582031-9.214844-4.273438-20.78125-4.550781-34.375-.816407-4.144531 1.136719-8.214844 2.523438-12.148437 3.863282-6.054688 2.066406-11.773438 4.015625-17.703126 5.117187-7.484374 1.386719-16.746093.25-19.382812-5.535156-2.355469-5.167969 1.535156-12.078125 6.597656-16.234375 2.71875-2.234375 5.808594-4.101562 9.074219-6.082031 4.074219-2.460938 8.285156-5.007813 12.019531-8.449219 5.628906-5.1875 8.167969-11.207031 7.148438-16.949219-1.34375-7.566406-8.433594-12.933593-19.457032-14.714843-16.21875-2.621094-32.824218-.601563-46.933593 1.71875zm56.542969 14.742187c.390624 2.203125-1.132813 5.136719-4.074219 7.847656-3 2.761719-6.605469 4.941407-10.421875 7.25-3.425782 2.074219-6.96875 4.21875-10.246094 6.910157-11.140625 9.148437-12.722656 20.710937-9.347656 28.113281 5.226562 11.460937 19.589844 13.207031 30.304687 11.214843 6.644531-1.234374 12.980469-3.390624 19.105469-5.480468 3.796875-1.292969 7.71875-2.628906 11.566406-3.6875 11.253906-3.089844 20.515625-3.007813 27.523438.246094 4.734375 2.195312 8.765625 5.917968 13.035156 9.859374 2.082031 1.917969 4.234375 3.90625 6.519531 5.753907 12.664063 10.242187 27.957031 15.277343 45.1875 20.359375 3.328125.980468 6.769531 1.996094 8.964844 3.984375 1.492187 1.355469 2.265625 3.601562 1.621094 4.710937-.332031.574219-1.132813 1.207032-2.375 1.882813-5.695313 3.085937-13.214844 3.660156-22.351563 1.710937-11.429687-2.433594-22.09375-7.816406-30.84375-15.566406-1.824218-1.617188-3.558594-3.324219-5.398437-5.132812-3.21875-3.171876-6.550781-6.449219-10.4375-9.238282-6.640625-4.765625-14.445313-7.75-22.574219-8.632812-1.832031-.199219-3.65625-.289063-5.472656-.289063-10.230469 0-20.175782 2.929688-30.269532 6.230469l-1.308593.425781c-10 3.273438-20.34375 6.652344-30.464844 6.335938-9-.289063-19.851563-4.550781-23.804687-13.421875-1.320313-2.96875-5.339844-11.988282 11.648437-28.660156 6.921875-6.792969 13.136719-14.109376 11.753906-21.578126-1.5-8.128906-13.707031-11.335937-17.867187-11.820312-5.625-.648438-10.851563 1.074219-15.050782 2.457031-9.152343 3.019531-18.394531 6.230469-27.460937 9.546875-16.640625 6.089844-33.316406 12.757813-49.570313 19.820313-9.757812 4.238281-17.160156 7.585937-23.992187 10.851562-5.609375 2.679688-9.703125 3.9375-14 2.449219-1.347656-.46875-1.707031-.90625-1.765625-.988281-.539062-.777344 1.105469-3.816407 4.402344-6.265625 9.972656-7.410156 21.824218-12.636719 32.105468-16.769532 29.078126-11.699218 59.507813-20.210937 90.441407-25.304687 13.308593-2.1875 28.914062-4.105469 43.710937-1.714844 4.996094.808594 10.5625 2.964844 11.207032 6.589844zm0 0"/></svg>