<svg height="511pt" viewBox="0 -9 511.99964 511" width="511pt" xmlns="http://www.w3.org/2000/svg"><path d="m511.882812 442.621094c-.65625-8.339844-4-16.421875-9.539062-23.238282 2.152344-2.109374 3.964844-4.476562 5.359375-7.003906 6.539063-11.8125 3.503906-26.691406-7.546875-37.023437-.003906-.003907-.003906-.003907-.007812-.007813 3.101562-2.539062 5.691406-5.59375 7.554687-8.96875 6.539063-11.8125 3.503906-26.691406-7.546875-37.023437 0 0-.003906 0-.003906-.003907 3.097656-2.53125 5.683594-5.582031 7.554687-8.960937 6.527344-11.8125 3.492188-26.691406-7.550781-37.035156h-.003906c3.097656-2.535157 5.683594-5.585938 7.554687-8.964844 6.527344-11.808594 3.492188-26.691406-7.550781-37.03125 0 0-.003906 0-.003906-.003906 3.097656-2.53125 5.683594-5.585938 7.554687-8.964844 6.527344-11.808594 3.492188-26.691406-7.550781-37.03125h-.003906c3.097656-2.535156 5.679687-5.585937 7.550781-8.964844 6.421875-11.601562 3.605469-26.164062-6.953125-36.457031 2.546875-2.664062 4.710938-5.597656 6.46875-8.769531 9.117188-16.5 4.8125-37.363281-10.71875-51.925781-9.117188-8.527344-21.03125-12.886719-32.699219-11.972657-2.046875.164063-4.082031.492188-6.085937.976563-1.476563-10.085938-6.761719-19.898438-15.074219-27.699219-8.3125-7.773437-18.953125-12.066406-29.605469-12.074219-2.390625-8.042968-7.167968-15.683594-13.769531-21.878906-9.117187-8.527344-21.035156-12.894531-32.699219-11.972656-8.195312.648437-16.195312 3.921875-22.957031 9.328125-1.386719-1.125-2.851563-2.113281-4.390625-2.960938-11.808594-6.527343-26.683594-3.492187-37.019531 7.546875 0 0-.003907 0-.003907.003906-2.535156-3.097656-5.59375-5.683593-8.972656-7.550781-11.800781-6.519531-26.675781-3.488281-37.019531 7.546875-.003906 0-.003906 0-.003906.003906-2.535157-3.097656-5.589844-5.683593-8.96875-7.554687-11.804688-6.515625-26.683594-3.484375-37.027344 7.550781h-.003906c-2.535157-3.09375-5.585938-5.679687-8.964844-7.550781-11.808594-6.515625-26.6875-3.484375-37.03125 7.550781v.003906c-2.535156-3.097656-5.585937-5.679687-8.96875-7.550781-11.804687-6.527343-26.683594-3.492187-37.019531 7.546875 0 .003906-.003906.003906-.003906.007813-2.542969-3.105469-5.597657-5.691407-8.972657-7.554688-11.59375-6.410156-26.148437-3.597656-36.453125 6.953125-2.671875-2.546875-5.605468-4.707031-8.769531-6.457031-16.503906-9.132813-37.371094-4.828125-51.914063 10.710937-8.410156 8.96875-12.894531 21.191407-11.984374 32.691407.652343 8.339843 4 16.425781 9.539062 23.242187-2.144531 2.105469-3.960938 4.472656-5.363281 7.003906-6.519531 11.800782-3.484375 26.675782 7.550781 37.023438-3.09375 2.535156-5.679688 5.585938-7.550781 8.96875-6.519531 11.804688-3.484375 26.683594 7.550781 37.027344v.003906c-3.09375 2.53125-5.679688 5.585938-7.550781 8.964844-6.519531 11.800781-3.488281 26.683594 7.546875 37.027344.003906.003906.003906.003906.003906.003906-3.09375 2.535156-5.679688 5.585937-7.550781 8.964844-6.523438 11.808593-3.488281 26.683593 7.550781 37.023437 0 0 .003906.003906.003906.003906-3.101562 2.539063-5.6875 5.59375-7.554687 8.972657-6.523438 11.804687-3.488281 26.683593 7.550781 37.019531 0 0 .003906.003906.003906.007812-3.101562 2.539063-5.6875 5.59375-7.554687 8.96875-6.40625 11.59375-3.597657 26.144531 6.957031 36.453125-2.550781 2.675782-4.710938 5.609375-6.457031 8.769532-9.132813 16.507812-4.8281252 37.371093 10.710937 51.914062 8.167969 7.664062 19.035156 12.058594 29.601563 12.101562 2.390625 8.046876 7.171875 15.683594 13.773437 21.855469 8.207032 7.695313 19.132813 12.101563 29.742188 12.101563.988281 0 1.972656-.039063 2.949218-.113282 2.046876-.164062 4.078126-.492187 6.085938-.976562 1.480469 10.089844 6.765625 19.902344 15.082031 27.683594 8.210938 7.695312 19.136719 12.101562 29.746094 12.101562.984375 0 1.96875-.039062 2.945313-.117187 8.191406-.648438 16.191406-3.921875 22.960937-9.328125 1.386719 1.125 2.851563 2.113281 4.382813 2.953125 11.8125 6.535156 26.6875 3.503906 37.023437-7.539063.003906 0 .007813-.003906.011719-.007812 2.535156 3.097656 5.589844 5.679687 8.964844 7.546875 11.804687 6.535156 26.683593 3.503906 37.023437-7.539063 0 0 .003906-.003906.007813-.007812 2.539062 3.09375 5.589843 5.679687 8.96875 7.542968 11.808593 6.539063 26.683593 3.507813 37.023437-7.535156 0 0 0-.003906.003906-.003906 2.53125 3.085938 5.582031 5.671875 8.960938 7.542969 11.804687 6.527343 26.683593 3.496093 37.03125-7.539063 0 0 .003906-.003906.003906-.003906 2.53125 3.089844 5.585937 5.671875 8.964844 7.542969 11.804687 6.527343 26.683593 3.496093 37.03125-7.539063 0 0 0-.003906.003906-.003906 2.53125 3.089844 5.582031 5.671875 8.960937 7.542969 11.585938 6.40625 26.144532 3.605469 36.464844-6.945313 2.667969 2.542969 5.601563 4.703125 8.769532 6.453125 16.503906 9.144531 37.367187 4.835938 51.917968-10.710937 8.402344-8.972656 12.878906-21.191406 11.972656-32.6875zm-464.78125-50.238282c-.078124.160157-.15625.320313-.230468.484376-.320313.691406-.621094 1.386718-.894532 2.09375-.042968.105468-.082031.21875-.121093.324218-.242188.636719-.464844 1.277344-.671875 1.925782-.050782.152343-.101563.304687-.152344.460937-.21875.714844-.414062 1.433594-.589844 2.160156-.039062.152344-.070312.308594-.105468.464844-.152344.660156-.289063 1.324219-.402344 1.996094-.019532.109375-.042969.21875-.0625.328125-.121094.746094-.214844 1.492187-.292969 2.242187-.015625.171875-.03125.34375-.046875.515625-.136719 1.535156-.179688 3.085938-.128906 4.648438.003906.089844 0 .183594.003906.273437-7.523438-.464843-15.164062-3.8125-21.066406-9.34375-14.019532-13.125-14.519532-29.433593-8.792969-39.78125 2.0625-3.738281 4.910156-7.085937 8.46875-9.941406 1.246094-1 1.9375-2.535156 1.859375-4.132813-.074219-1.597656-.90625-3.058593-2.242188-3.9375-1.0625-.699218-2.054687-1.480468-2.953124-2.324218-6.359376-5.953125-10.566407-15.957032-5.632813-24.886719 2.082031-3.769531 5.558594-6.984375 9.777344-9.042969 1.671875-.816406 2.753906-2.492187 2.804687-4.351562.054688-1.859375-.929687-3.59375-2.554687-4.503906-1.59375-.894532-3.074219-1.972657-4.394531-3.214844-6.359376-5.953125-10.566407-15.957032-5.632813-24.882813 2.082031-3.773437 5.558594-6.984375 9.777344-9.042969 1.675781-.816406 2.757812-2.5 2.804687-4.363281.050782-1.863281-.941406-3.601562-2.570312-4.503906-1.5625-.863281-3.035156-1.941406-4.378906-3.203125-6.359376-5.953125-10.566407-15.957031-5.636719-24.882812 2.09375-3.777344 5.566406-6.984376 9.773437-9.03125 1.675782-.8125 2.757813-2.492188 2.8125-4.351563.054688-1.859375-.929687-3.597656-2.554687-4.507813-1.59375-.894531-3.074219-1.976562-4.394531-3.210937-6.359376-5.960937-10.566407-15.972656-5.636719-24.894531 2.09375-3.78125 5.5625-6.988282 9.773437-9.03125 1.675782-.8125 2.757813-2.492188 2.8125-4.351563.054688-1.863281-.929687-3.597656-2.554687-4.507812-1.59375-.894531-3.074219-1.976563-4.394531-3.214844-9.425782-8.835937-8.925782-18.933594-5.636719-24.894531 2.09375-3.777344 5.5625-6.984375 9.773437-9.03125 1.671875-.8125 2.757813-2.488282 2.8125-4.351563.054688-1.863281-.929687-3.597656-2.554687-4.507812-1.59375-.894531-3.074219-1.972657-4.394531-3.210938-9.429688-8.839843-8.929688-18.929687-5.636719-24.882812 1.53125-2.773438 3.84375-5.277344 6.683593-7.246094 1.226563-.851563 2.011719-2.210937 2.132813-3.699219.121094-1.492187-.429687-2.957031-1.5-4-6.023437-5.847656-9.675781-13.28125-10.277344-20.929687-.691406-8.746094 2.792969-18.113281 9.316407-25.070313 8.179687-8.738281 17.59375-12.226562 26.035156-12.226562 5.101562 0 9.84375 1.273437 13.742187 3.433594 3.746094 2.066406 7.085938 4.914062 9.925781 8.460937.996094 1.246094 2.515626 1.941406 4.121094 1.871094 1.59375-.070313 3.058594-.894531 3.941406-2.222657.722657-1.082031 1.511719-2.085937 2.351563-2.976562 5.949219-6.359375 15.957031-10.566406 24.882813-5.632812 3.773437 2.082031 6.984374 5.554687 9.042968 9.777343.816406 1.675781 2.5 2.757813 4.363282 2.808594h.132812c1.8125 0 3.488281-.980469 4.371094-2.574219.867187-1.5625 1.945312-3.035156 3.203125-4.378906 5.953125-6.359375 15.957031-10.566406 24.882812-5.632812 3.78125 2.09375 6.988281 5.5625 9.03125 9.769531.8125 1.675781 2.488281 2.757812 4.351563 2.816406 1.828125.0625 3.597656-.929687 4.507812-2.554687.894532-1.597657 1.976563-3.078126 3.214844-4.394532 8.835938-9.429687 18.933594-8.929687 24.890625-5.636718 3.78125 2.09375 6.988281 5.5625 9.035156 9.769531.8125 1.675781 2.488281 2.761719 4.351563 2.816406 1.898437.046875 3.597656-.933594 4.507812-2.558594.894532-1.59375 1.976563-3.074219 3.210938-4.390625 8.835937-9.429687 18.9375-8.929687 24.894531-5.640625 3.78125 2.09375 6.988281 5.566407 9.03125 9.773438.816406 1.675781 2.492187 2.757812 4.351563 2.8125 1.832031.0625 3.601562-.925781 4.511718-2.550781.894532-1.601563 1.976563-3.082032 3.210938-4.398438 8.839844-9.425781 18.925781-8.925781 24.890625-5.632812 3.78125 2.089843 6.992187 5.558593 9.035156 9.769531.8125 1.675781 2.488281 2.757812 4.351563 2.8125 1.878906.046875 3.597656-.929688 4.507812-2.550781.894531-1.597657 1.976562-3.078126 3.214844-4.398438 5.953125-6.359375 15.957031-10.570312 24.886718-5.632812 1.976563 1.089843 3.796876 2.550781 5.414063 4.339843.914063 1.007813 2.199219 1.601563 3.5625 1.640625 1.367187.054688 2.683594-.476562 3.65625-1.433594 5.75-5.671874 12.976563-9.113281 20.339844-9.695312 8.734375-.683594 18.109375 2.789062 25.070312 9.300781 4.882813 4.582031 8.519531 10.09375 10.535157 15.886719-.015626.003906-.035157.011719-.050782.015625-.082031.023437-.164062.050781-.25.074219-.769531.210937-1.53125.445312-2.289062.703125-.257813.085937-.511719.179687-.769532.269531-.613281.222656-1.226562.457031-1.832031.707031-.242187.101563-.484375.195313-.722656.296875-.816406.355469-1.628906.730469-2.429687 1.136719-.042969.023437-.085938.050781-.128907.070313-.757812.390624-1.503906.808593-2.238281 1.242187-.238281.136719-.46875.28125-.703125.425781-.566406.347656-1.128906.710938-1.683594 1.085938-.226562.152344-.453125.304687-.671875.460937-.75.523438-1.488281 1.066407-2.207031 1.640625-1.390625-1.125-2.855469-2.117187-4.394531-2.964844-11.808594-6.523437-26.683594-3.492187-37.019532 7.546876 0 0-.003906.003906-.003906.003906-2.535156-3.097656-5.589844-5.683594-8.976562-7.550782-11.058594-6.113281-24.828125-3.828124-35.027344 5.574219-.679688.625-1.347656 1.285157-1.992188 1.972657v.003906c-2.535156-3.097656-5.585937-5.679688-8.96875-7.554688-11.804687-6.515625-26.683593-3.480468-37.027343 7.550782 0 0-.003907 0-.003907.003906-.316406-.386719-.640624-.765625-.972656-1.136719-2.332031-2.59375-5.039062-4.78125-7.992187-6.417969-1.109375-.609375-2.25-1.109375-3.402344-1.554687-10.390625-4-22.457031-1.332031-31.636719 7.132812-.679687.625-1.34375 1.28125-1.992187 1.972657 0 0 0 0-.003907.003906-1.898437-2.324219-4.089843-4.355469-6.492187-6.019532-.800781-.554687-1.628906-1.066406-2.472656-1.53125-11.804688-6.527343-26.683594-3.492187-37.019531 7.546876-.003907.003906-.003907.003906-.007813.007812-2.539063-3.101562-5.59375-5.691406-8.972656-7.554688-10.863281-6.007812-24.332031-3.914062-34.472657 5.066407-.675781.601562-1.335937 1.230469-1.980468 1.886719-2.667969-2.546876-5.601563-4.707032-8.769532-6.453126-16.503906-9.136718-37.367187-4.832031-51.914062 10.707032-8.410156 8.972656-12.890625 21.191406-11.984375 32.691406.65625 8.34375 4 16.429688 9.542969 23.246094-2.148438 2.105468-3.960938 4.472656-5.363282 7.003906-.816406 1.476562-1.480468 2.996094-2 4.554688-1.039062 3.113281-1.492187 6.355468-1.386718 9.617187.265625 8.144531 4.039062 16.382813 10.933594 22.847656.003906.003907.003906.003907.003906.003907-3.09375 2.53125-5.679688 5.585937-7.550782 8.964843-6.519531 11.804688-3.484374 26.6875 7.546876 37.03125h.003906c-3.09375 2.535157-5.679688 5.585938-7.550782 8.96875-6.523437 11.800781-3.488281 26.679688 7.546876 37.027344.003906.003906.003906.003906.003906.003906-3.09375 2.535157-5.679688 5.585938-7.550782 8.964844-6.523437 11.808594-3.492187 26.683594 7.546876 37.019531.003906.003906.003906.003906.007812.007813-3.101562 2.539062-5.6875 5.59375-7.554688 8.972656-6.523437 11.804687-3.492187 26.683594 7.546876 37.019531.003906 0 .003906.003906.007812.003906-3.101562 2.542969-5.6875 5.597657-7.554688 8.972657-.398437.726562-.765624 1.460937-1.09375 2.207031-4.929687 11.1875-1.84375 24.582031 8.046876 34.246094-2.546876 2.675781-4.707032 5.609375-6.453126 8.769531-.375.683594-.726562 1.382813-1.0625 2.085937zm53.957032 38.484376c-.097656.199218-.1875.402343-.28125.605468-.203125.4375-.402344.878906-.585938 1.320313-.097656.230469-.195312.464843-.285156.695312-.171875.433594-.335938.871094-.492188 1.308594-.082031.222656-.160156.445313-.234374.671875-.179688.527344-.339844 1.0625-.496094 1.597656-.035156.125-.078125.253906-.113282.382813-.183593.660156-.34375 1.328125-.488281 1.996093-.042969.1875-.074219.378907-.113281.570313-.097656.488281-.1875.980469-.265625 1.472656-.039063.242188-.070313.484375-.105469.726563-.03125.222656-.070312.445312-.097656.671875-2.203125.707031-4.449219 1.15625-6.71875 1.335937-8.742188.683594-18.113281-2.792968-25.066406-9.316406-6.222656-5.824219-10.425782-13.171875-11.828125-20.695312-1.261719-6.75-.242188-13.167969 3.03125-19.082032 1.808593-3.273437 4.214843-6.242187 7.171875-8.847656.421875-.375.855468-.738281 1.300781-1.09375 1.246094-1.003906 1.9375-2.539062 1.859375-4.132812-.007812-.203126-.03125-.398438-.0625-.59375-.226562-1.363282-1.011719-2.578126-2.179688-3.347657-1.058593-.699219-2.054687-1.480469-2.957031-2.324219-6.355469-5.953124-10.5625-15.957031-5.628906-24.882812 2.082031-3.773438 5.554687-6.984375 9.777344-9.042969.625-.304687 1.171875-.734375 1.605469-1.246093.730468-.851563 1.164062-1.941407 1.199218-3.105469.03125-1.164063-.339844-2.277344-1.019531-3.167969-.40625-.539062-.925781-.996094-1.535156-1.335938-1.597657-.894531-3.078125-1.976562-4.398438-3.214843-6.359375-5.953125-10.566406-15.957031-5.628906-24.882813 2.082031-3.773437 5.554687-6.984375 9.777344-9.042968 1.671875-.816407 2.753906-2.5 2.804687-4.363282.050782-1.863281-.941406-3.597656-2.570312-4.503906-1.566406-.867188-3.039063-1.945312-4.382813-3.203125-6.359375-5.957031-10.566406-15.957031-5.632812-24.882813 2.09375-3.78125 5.5625-6.988281 9.769531-9.03125 1.675781-.816406 2.761719-2.492187 2.816406-4.351562.054688-1.863281-.929687-3.597656-2.554687-4.507812-1.597657-.898438-3.078125-1.976563-4.398438-3.210938-6.359375-5.964844-10.566406-15.972656-5.636719-24.894531 2.09375-3.78125 5.5625-6.988281 9.773438-9.035157 1.675781-.8125 2.757812-2.488281 2.8125-4.351562.054688-1.859375-.929688-3.597656-2.554688-4.507812-1.597656-.894532-3.074218-1.972657-4.394531-3.210938-9.425781-8.835938-8.925781-18.9375-5.636719-24.894531 2.09375-3.78125 5.5625-6.988281 9.769532-9.03125 1.675781-.8125 2.761718-2.492188 2.816406-4.351563s-.929688-3.597656-2.554688-4.507812c-1.597656-.894532-3.078124-1.976563-4.398437-3.210938-9.425781-8.839844-8.925781-18.929687-5.636719-24.882812 1.34375-2.425782 3.28125-4.648438 5.644532-6.484375.339843-.261719.6875-.519531 1.042968-.765625.460938-.320313.855469-.707032 1.183594-1.152344.539062-.734375.871094-1.613281.949219-2.542969.015625-.1875.019531-.375.015625-.558593-.035156-1.109376-.4375-2.175782-1.140625-3.03125-.117188-.140626-.242188-.277344-.375-.410157-6.023438-5.847656-9.675781-13.28125-10.277344-20.929687-.6875-8.746094 2.792969-18.113282 9.316406-25.070313.46875-.5.941407-.980469 1.417969-1.449219.148438-.140624.292969-.277343.441406-.417968.339844-.320313.679688-.636719 1.019532-.941406.164062-.148438.332031-.296876.496093-.441407.34375-.296875.691407-.585937 1.035157-.867187.148437-.121094.296874-.242188.449218-.363282.480469-.378906.964844-.75 1.449219-1.097656.007813-.007812.019531-.015625.027344-.019531.496093-.359375 1-.699219 1.503906-1.027344.144531-.09375.292969-.183593.4375-.273437.363281-.230469.726563-.449219 1.089844-.664063.167969-.097656.335937-.191406.503906-.289062.359375-.203125.722656-.398438 1.082031-.585938.152344-.078125.304688-.15625.453125-.234375.488281-.242187.976563-.476562 1.464844-.695312.019531-.007813.039063-.015625.054687-.027344.515626-.226562 1.027344-.433594 1.542969-.632812.140625-.054688.28125-.105469.421875-.15625.375-.140626.746094-.273438 1.121094-.394532.167969-.054687.332031-.109375.5-.160156.363281-.117188.730469-.222656 1.09375-.324219.148438-.042969.300781-.085937.449219-.125.476562-.125.953125-.238281 1.429687-.339843.027344-.003907.058594-.011719.085938-.019532.511718-.109375 1.019531-.199218 1.527344-.28125.128906-.019531.257812-.035156.386718-.054687.375-.058594.753906-.105469 1.128906-.148438.15625-.015625.3125-.03125.472657-.046875.359375-.035156.714843-.0625 1.074219-.085937.144531-.007813.285156-.019531.429687-.023438.453125-.023437.898437-.035156 1.347656-.035156.039063 0 .074219-.003906.113281-.003906.574219 0 1.140626.023437 1.707032.054687.125.007813.246094.015625.371094.023438.542968.039062 1.082031.085937 1.617187.152344.015625 0 .035156 0 .050781.003906.546875.070312 1.089844.15625 1.625.253906.125.023438.246094.046875.367188.070312.519531.101563 1.035156.214844 1.542968.34375.011719.003907.019532.003907.035157.007813.515625.128906 1.019531.28125 1.519531.4375.121094.039063.238281.078125.355469.117187.488281.160157.972656.328126 1.445312.515626.007813.003906.015625.003906.019531.007812.476563.1875.945313.394531 1.402344.605469.113282.050781.222656.105469.335938.15625.453125.21875.898437.445312 1.332031.683593 3.746094 2.066407 7.085937 4.914063 9.929687 8.464844.871094 1.085938 2.144532 1.761719 3.523438 1.859375.195312.015625.394531.019531.597656.007813 1.589844-.070313 3.054688-.894532 3.941406-2.222656.71875-1.082032 1.511719-2.082032 2.347657-2.976563 5.953125-6.359375 15.957031-10.566406 24.886719-5.632813 3.769531 2.085938 6.980468 5.554688 9.039062 9.777344.101562.210938.21875.410156.347656.601563.894532 1.328125 2.382813 2.164062 4.015625 2.207031 1.863281.054688 3.601563-.945312 4.503907-2.574219.867187-1.5625 1.945312-3.035156 3.207031-4.378906 5.953125-6.359375 15.953125-10.566406 24.878906-5.632813 3.78125 2.089844 6.988281 5.5625 9.03125 9.769532.816406 1.675781 2.492187 2.761718 4.355469 2.8125 1.835937.054687 3.597656-.925782 4.507812-2.550782.894532-1.597656 1.976563-3.078124 3.210938-4.398437 8.839844-9.425781 18.9375-8.925781 24.894531-5.636719.472656.261719.933594.546875 1.386719.847656 3.175781 2.125 5.855468 5.242188 7.644531 8.925782.8125 1.675781 2.492187 2.761718 4.351563 2.8125 1.863281.050781 3.601562-.929688 4.511718-2.554688.890625-1.59375 1.972656-3.074218 3.210938-4.394531 8.835937-9.425781 18.933594-8.921875 24.894531-5.636719 3.777344 2.09375 6.984375 5.566406 9.03125 9.773438.8125 1.675781 2.488281 2.761718 4.351563 2.8125 1.832031.046875 3.597656-.929688 4.507812-2.554688.894531-1.59375 1.976562-3.070312 3.210938-4.394531 8.839843-9.425781 18.933593-8.925781 24.890624-5.632813.945313.523438 1.855469 1.132813 2.722657 1.816407 2.59375 2.054687 4.78125 4.796875 6.316406 7.953125.8125 1.675781 2.488281 2.761718 4.351563 2.8125 1.863281.046875 3.597656-.929688 4.507812-2.554688.894531-1.59375 1.976562-3.074218 3.214844-4.394531 5.953125-6.359375 15.957031-10.566406 24.886718-5.632813 1.972657 1.089844 3.792969 2.550782 5.410157 4.339844.914062 1.007813 2.203125 1.601563 3.5625 1.644532 1.394531.046874 2.683593-.480469 3.65625-1.4375.339843-.335938.6875-.667969 1.039062-.988282 5.289063-4.816406 11.742188-7.855468 18.390625-8.613281.300782-.039063.613282-.070313.910156-.09375 8.746094-.6875 18.113282 2.789063 25.074219 9.300781 7.160157 6.714844 11.601563 15.515625 12.257813 24.042969-.710938.371094-1.40625.765625-2.09375 1.175781-.167969.097656-.332032.203125-.496094.304688-.617188.378906-1.226562.773437-1.828125 1.179687-.207031.140625-.414063.28125-.617187.425781-.738282.519532-1.46875 1.054688-2.179688 1.625-1.386719-1.125-2.855469-2.117187-4.390625-2.964843-10.191406-5.636719-22.347656-4.34375-32.535156 3.46875-1.601563 1.242187-3.113281 2.613281-4.484375 4.078125-.003906.003906-.003906.003906-.003906.003906-2.535157-3.09375-5.59375-5.683594-8.972657-7.550781-11.800781-6.519531-26.675781-3.488281-37.023437 7.546875 0 .003906 0 .003906-.003906.003906-1.582032-1.933594-3.367188-3.667969-5.3125-5.15625-1.164063-.890625-2.386719-1.695312-3.652344-2.394531-11.804688-6.519531-26.683594-3.484375-37.027344 7.546875 0 0-.003906.003906-.003906.003906-2.535156-3.09375-5.585938-5.679688-8.96875-7.550781-11.804688-6.519531-26.683594-3.484375-37.027344 7.546875 0 0 0 0-.003906.003906-2.53125-3.097656-5.585938-5.679688-8.964844-7.550781-2.949219-1.632813-6.09375-2.667969-9.3125-3.128907-1.605469-.230468-3.234375-.316406-4.863281-.261718-7.335938.238281-14.738281 3.320312-20.855469 8.960937-.679688.628907-1.34375 1.285157-1.988281 1.976563-.003907 0-.003907.003906-.007813.003906-2.539062-3.101562-5.59375-5.6875-8.972656-7.554688-11.59375-6.40625-26.140625-3.597656-36.453125 6.957032-2.667969-2.546875-5.601563-4.710938-8.769531-6.457032-16.503906-9.132812-37.367188-4.828124-51.910156 10.710938-8.414063 8.96875-12.894532 21.191406-11.988282 32.691406.65625 8.339844 4 16.425782 9.542969 23.242188-2.148437 2.105468-3.960937 4.472656-5.363281 7.003906-6.523438 11.800781-3.488282 26.675781 7.546875 37.023438h.003906c-3.097656 2.535156-5.683594 5.589843-7.554687 8.96875-6.515626 11.804687-3.484376 26.683593 7.550781 37.03125h.003906c-3.097656 2.535156-5.683594 5.585937-7.550781 8.964843-6.523438 11.800781-3.492188 26.683594 7.546875 37.03125v.003907c-2.316407 1.898437-4.351563 4.089843-6.015625 6.492187-.550782.800781-1.066406 1.625-1.53125 2.472656-6.527344 11.804688-3.492188 26.683594 7.546875 37.019531.003906.003907.003906.003907.007812.007813-.390625.316406-.769531.640625-1.140625.972656-2.597656 2.332031-4.785156 5.042969-6.414062 7.996094-6.527344 11.808594-3.492188 26.683594 7.546875 37.023437.003906 0 .003906 0 .007812.003907-3.101562 2.539062-5.691406 5.59375-7.554687 8.96875-3.117188 5.636719-4.121094 11.957031-2.984375 18.273437.382812 2.105469 1 4.210938 1.855469 6.292969 1.773437 4.339844 4.558593 8.4375 8.082031 11.890625-2.550781 2.671875-4.710938 5.609375-6.457031 8.769531-.335938.621094-.65625 1.246094-.964844 1.878907zm391.550781 37.609374c-13.125 14.023438-29.4375 14.523438-39.773437 8.796876-3.753907-2.074219-7.097657-4.925782-9.945313-8.46875-.996094-1.242188-2.519531-1.945313-4.121094-1.867188-1.589843.074219-3.054687.898438-3.9375 2.222656-.738281 1.105469-1.523437 2.109375-2.335937 2.976563-8.839844 9.425781-18.933594 8.921875-24.894532 5.625-3.785156-2.09375-6.992187-5.5625-9.035156-9.761719-.8125-1.675781-2.488281-2.757812-4.351562-2.8125-1.851563-.046875-3.597656.929688-4.507813 2.554688-.894531 1.59375-1.972656 3.074218-3.210937 4.394531-8.835938 9.425781-18.9375 8.921875-24.894532 5.625-3.785156-2.09375-6.992187-5.5625-9.03125-9.761719-.8125-1.675781-2.492187-2.757812-4.351562-2.8125-1.875-.0625-3.601562.929688-4.511719 2.554688-.890625 1.59375-1.972656 3.074218-3.210937 4.394531-8.835938 9.425781-18.933594 8.921875-24.894532 5.625-3.785156-2.09375-6.992187-5.5625-9.03125-9.761719-.8125-1.675781-2.488281-2.757812-4.351562-2.8125-1.851562-.042969-3.597656.929688-4.507812 2.554688-.894532 1.597656-1.976563 3.074218-3.214844 4.394531-5.953125 6.359375-15.957032 10.566406-24.886719 5.625-3.777344-2.085938-6.988281-5.554688-9.042969-9.765625-.8125-1.675782-2.492187-2.757813-4.351562-2.808594-1.832032-.046875-3.59375.929688-4.503906 2.554688-.894532 1.597656-1.976563 3.074218-3.214844 4.394531-5.953125 6.363281-15.953125 10.566406-24.886719 5.625-3.773437-2.085938-6.988281-5.554688-9.039063-9.765625-.816406-1.675782-2.492187-2.753906-4.355468-2.808594-1.863282-.046875-3.59375.929688-4.503906 2.554688-.894532 1.597656-1.976563 3.074218-3.214844 4.394531-5.953125 6.363281-15.957032 10.566406-24.898438 5.617187-1.964844-1.078125-3.777344-2.527344-5.382812-4.3125-.910156-1.015625-2.199219-1.609375-3.5625-1.652344-1.363282-.042968-2.683594.476563-3.660156 1.433594-5.761719 5.671875-12.992188 9.113282-20.351563 9.699219-8.734375.6875-18.109375-2.792969-25.070313-9.316406-8-7.488281-12.609374-17.585938-12.332031-27.011719.132813-4.46875 1.324219-8.761719 3.539063-12.765625 2.0625-3.742187 4.914062-7.085937 8.46875-9.945313 1.246094-1 1.9375-2.535156 1.859375-4.132812-.074219-1.59375-.90625-3.058594-2.242188-3.9375-1.0625-.699219-2.054687-1.480469-2.949219-2.320312-2.765624-2.589844-4.925781-5.683594-6.265624-8.960938-1.59375-3.863281-2.777344-9.769531.628906-15.929688 2.082031-3.769531 5.558594-6.980468 9.777344-9.039062 1.398437-.683594 2.371093-1.96875 2.6875-3.457031.0625-.292969.109374-.589844.117187-.898438.054687-1.859375-.929687-3.59375-2.554687-4.503906-1.59375-.890625-3.074219-1.972656-4.398438-3.214844-6.355469-5.953125-10.5625-15.957031-5.628906-24.882812.257812-.472657.539062-.933594.84375-1.386719 2.117187-3.171875 5.238281-5.855469 8.933594-7.65625 1.671874-.816406 2.753906-2.5 2.804687-4.363281s-.941406-3.597657-2.570313-4.503907c-1.5625-.867187-3.035156-1.945312-4.382812-3.203124-6.355469-5.957032-10.5625-15.957032-5.632812-24.882813 2.09375-3.78125 5.5625-6.988281 9.773437-9.03125 1.671875-.816406 2.757813-2.492187 2.8125-4.351563.054687-1.863281-.929687-3.597656-2.554687-4.507812-1.59375-.894531-3.074219-1.976562-4.398438-3.214844-9.425781-8.839844-8.925781-18.9375-5.636719-24.894531 2.09375-3.78125 5.566407-6.988281 9.773438-9.03125 1.675781-.8125 2.757812-2.492187 2.8125-4.351563.054687-1.859374-.929688-3.597656-2.554688-4.507812-1.59375-.894531-3.074219-1.976562-4.394531-3.210938-1.769531-1.660156-3.1875-3.359374-4.300781-5.070312-.375-.570312-.710938-1.140625-1.019531-1.710938-.152344-.285156-.300782-.570312-.4375-.855468-3.167969-6.554688-2.242188-12.976563.121093-17.257813 2.09375-3.78125 5.5625-6.988281 9.773438-9.035156 1.671875-.8125 2.757812-2.488281 2.8125-4.347656.054687-1.863281-.929688-3.601563-2.554688-4.507813-1.597656-.898437-3.074219-1.976562-4.398437-3.214844-9.425782-8.835937-8.925782-18.929687-5.636719-24.882812 1.535156-2.769531 3.847656-5.277344 6.6875-7.246094.304687-.210937.585937-.457031.832031-.726562.746094-.8125 1.207032-1.855469 1.300782-2.972656.015624-.183594.019531-.371094.015624-.554688-.027343-.925781-.3125-1.820312-.8125-2.585938-.203124-.308593-.4375-.59375-.703124-.855468-6.027344-5.847656-9.679688-13.28125-10.277344-20.933594-.691406-8.742188 2.792968-18.113281 9.316406-25.070312.46875-.5.941406-.976563 1.417969-1.445313.144531-.144531.292969-.28125.441406-.421875.335937-.320312.675781-.636719 1.019531-.941406.164063-.148438.332032-.292969.496094-.4375.34375-.296875.6875-.585938 1.035156-.867188.148438-.121094.296875-.246094.445313-.367187.480469-.375.957031-.742188 1.4375-1.089844.015625-.007813.027343-.019531.042969-.027344.496093-.359375 1-.699219 1.5-1.023437.148437-.097656.300781-.1875.449218-.285156.355469-.222657.714844-.441407 1.070313-.652344.175781-.101563.347656-.199219.523437-.296875.351563-.199219.703125-.386719 1.054688-.570313.160156-.082031.320312-.167968.480468-.25.464844-.234375.933594-.457031 1.402344-.664062.039063-.019532.078125-.039063.113282-.054688.507812-.226562 1.019531-.433594 1.527343-.628906.152344-.058594.304688-.113281.457031-.167969.359376-.132812.71875-.261719 1.078126-.382812.179687-.058594.355468-.117188.535156-.171875.347656-.109375.699218-.210938 1.050781-.308594.160156-.042969.324219-.089844.484375-.132812.449219-.117188.898438-.226563 1.34375-.320313.054688-.011719.113281-.027344.171875-.039063.5-.105468 1.003906-.199218 1.503906-.277343.144531-.023438.292969-.042969.4375-.0625.359375-.054688.714844-.101563 1.070313-.140625.171875-.019532.34375-.035156.511718-.050782.34375-.035156.683594-.058593 1.023438-.082031.160156-.007812.320312-.019531.476562-.027343.421876-.019532.84375-.03125 1.261719-.035157.0625 0 .128907-.003906.191407-.003906.566406 0 1.128906.023437 1.683593.054687.132813.003907.269531.015626.402344.023438.527344.039062 1.054687.082031 1.574219.148438.027344.003906.058594.003906.085937.007812.542969.070312 1.078125.15625 1.609375.253906.128906.023438.253906.046875.382813.074219.515625.097656 1.027343.210937 1.527343.335937.015626.003907.027344.007813.042969.007813.515625.132813 1.019531.28125 1.519531.441406.121094.035157.234376.074219.351563.113281.496094.164063.984375.335938 1.460937.523438h.003907c.480469.191406.949219.398438 1.414062.609375.105469.050781.210938.101563.320313.152344.453125.21875.902344.445312 1.339844.683593 2.339843 1.292969 4.523437 2.890626 6.527343 4.773438 1.199219 1.128906 2.335938 2.359375 3.398438 3.691406.996093 1.242188 2.515625 1.945313 4.121093 1.867188 1.59375-.066406 3.058594-.894532 3.941407-2.21875.722656-1.082032 1.511719-2.085938 2.347656-2.980469 5.953125-6.359375 15.960937-10.5625 24.886719-5.628906 3.773437 2.082031 6.984375 5.554687 9.042968 9.777343.816407 1.671876 2.5 2.753907 4.363282 2.804688 1.832031.066406 3.597656-.941406 4.503906-2.574219.863281-1.558593 1.941406-3.03125 3.203125-4.378906 5.953125-6.355469 15.957031-10.566406 24.882813-5.632813 3.78125 2.09375 6.988281 5.5625 9.03125 9.773438.8125 1.671875 2.488281 2.757812 4.351562 2.8125 1.863281.050781 3.597656-.929688 4.507812-2.554688.894532-1.597656 1.976563-3.074218 3.210938-4.394531 8.839844-9.425781 18.9375-8.925781 24.894531-5.636719 3.78125 2.09375 6.988281 5.5625 9.035157 9.773438.8125 1.671875 2.488281 2.757812 4.351562 2.8125h.144531c.097657 0 .1875-.011719.28125-.019531.105469-.003907.214844-.007813.320313-.019531.140625-.015626.277344-.046876.414062-.074219.074219-.015625.152344-.027344.226563-.046875.179687-.046875.355469-.105469.527343-.171875.03125-.011719.058594-.019531.089844-.03125.828125-.332031 1.5625-.882813 2.117188-1.605469.003906-.003906.003906-.003906.007812-.007812.136719-.183594.265625-.375.378906-.578126.894532-1.597656 1.976563-3.074218 3.210938-4.394531 8.839844-9.425781 18.9375-8.925781 24.894531-5.636719 3.78125 2.089844 6.988281 5.5625 9.03125 9.773438.8125 1.671875 2.492188 2.757812 4.351563 2.8125 1.832031.046875 3.597656-.929688 4.507812-2.554688.894532-1.597656 1.976563-3.078124 3.214844-4.398437 8.835938-9.425781 18.929688-8.925781 24.886719-5.632813 3.785156 2.089844 6.992187 5.5625 9.039062 9.769532.8125 1.675781 2.488281 2.761718 4.347657 2.816406 1.871093.046875 3.601562-.929688 4.511718-2.554688.894532-1.597656 1.976563-3.078124 3.214844-4.398437 1.007812-1.078125 2.121094-2.085937 3.289062-2.988281 6.917969-5.308594 14.988282-6.296875 21.597657-2.644532 1.972656 1.09375 3.792969 2.550782 5.414062 4.339844.914063 1.011719 2.199219 1.605469 3.5625 1.644532 1.363281.042968 2.679688-.476563 3.648438-1.433594.523437-.515625 1.066406-1.007813 1.621093-1.488282 2.800782-2.4375 5.953126-4.4375 9.238282-5.835937 3.066406-1.316406 6.257812-2.117187 9.484375-2.375 8.734375-.691406 18.113281 2.789063 25.074219 9.304687 14.011718 13.132813 14.515624 29.449219 8.804687 39.785157-2.082031 3.75-4.933594 7.09375-8.480469 9.933593-1.246094 1-1.941406 2.535157-1.867187 4.128907.074219 1.597656.902343 3.0625 2.238281 3.945312 1.078125.710938 2.066406 1.496094 2.960938 2.339844 6.367187 5.949219 10.574218 15.953125 5.632812 24.878906-2.09375 3.78125-5.5625 6.988281-9.769531 9.03125-1.675781.816407-2.761719 2.492188-2.816407 4.355469-.054687 1.859375.929688 3.597656 2.554688 4.507812 1.597656.894532 3.074219 1.972657 4.398438 3.210938 9.433593 8.835938 8.929687 18.933594 5.636718 24.894531-2.09375 3.78125-5.566406 6.988281-9.773437 9.03125-1.675781.816407-2.761719 2.492188-2.816407 4.351563-.050781 1.863281.933594 3.601562 2.554688 4.507812 1.597656.894532 3.078125 1.976563 4.398438 3.214844 9.433593 8.832031 8.933593 18.933594 5.636718 24.890625-2.09375 3.78125-5.566406 6.992187-9.773437 9.035156-1.675781.8125-2.757813 2.488281-2.8125 4.351563-.054688 1.859375.929687 3.597656 2.554687 4.507812 1.59375.894532 3.074219 1.976563 4.398438 3.214844 9.433594 8.832031 8.929687 18.929688 5.632812 24.890625-2.09375 3.78125-5.5625 6.988281-9.773437 9.03125-1.675781.8125-2.757813 2.492187-2.8125 4.351563-.054688 1.863281.929687 3.601562 2.554687 4.507812 1.59375.894531 3.074219 1.976562 4.398438 3.21875 6.363281 5.949219 10.574218 15.949219 5.632812 24.882812-2.085937 3.773438-5.558594 6.984376-9.78125 9.042969-1.671875.816407-2.753906 2.492188-2.804687 4.351563-.054688 1.859375.933593 3.597656 2.554687 4.503906 1.597656.894531 3.074219 1.972656 4.398438 3.214844 6.363281 5.953125 10.574218 15.953125 5.628906 24.890625-1.523438 2.761719-3.832031 5.265625-6.675781 7.230469-1.230469.851562-2.015625 2.207031-2.140625 3.699218-.121094 1.492188.429687 2.960938 1.503906 4 6.023438 5.851563 9.675781 13.285156 10.277344 20.933594.703125 8.742188-2.777344 18.113281-9.292969 25.070312zm0 0"/><path d="m201.742188 145.863281c-8.445313-5.222656-18.796876-5.410156-27.683594-.492187-8.847656 4.890625-14.167969 13.738281-14.238282 23.667968-.085937 12.820313 9.710938 24.753907 22.304688 27.164063 1.59375.304687 3.199219.453125 4.800781.453125 11.066407-.003906 21.890625-7.019531 25.957031-17.457031 4.65625-11.949219-.238281-26.589844-11.140624-33.335938zm1.824218 29.703125c-2.910156 7.472656-11.683594 12.320313-19.5625 10.816406-7.875-1.507812-14.238281-9.257812-14.183594-17.273437.042969-6.265625 3.4375-11.867187 9.074219-14.988281 2.765625-1.527344 5.742188-2.289063 8.6875-2.289063 3.101563 0 6.164063.847657 8.894531 2.539063 6.820313 4.214844 10 13.726562 7.089844 21.195312zm0 0"/><path d="m283.546875 145.863281c-8.445313-5.222656-18.796875-5.410156-27.683594-.492187-8.847656 4.890625-14.171875 13.738281-14.238281 23.667968-.085938 12.820313 9.710938 24.753907 22.304688 27.164063 1.589843.304687 3.195312.453125 4.796874.453125 11.066407-.003906 21.894532-7.019531 25.960938-17.457031 4.65625-11.949219-.238281-26.589844-11.140625-33.335938zm1.824219 29.703125c-2.910156 7.472656-11.6875 12.320313-19.5625 10.816406-7.875-1.507812-14.234375-9.257812-14.183594-17.273437.042969-6.265625 3.4375-11.867187 9.078125-14.988281 2.761719-1.527344 5.738281-2.289063 8.683594-2.289063 3.101562 0 6.164062.847657 8.898437 2.539063 6.816406 4.214844 9.996094 13.726562 7.085938 21.195312zm0 0"/><path d="m365.347656 145.863281c-8.441406-5.222656-18.792968-5.410156-27.679687-.492187-8.847657 4.890625-14.171875 13.738281-14.238281 23.667968-.085938 12.820313 9.710937 24.753907 22.304687 27.164063 1.589844.304687 3.195313.453125 4.796875.453125 11.066406-.003906 21.894531-7.019531 25.960938-17.457031 4.652343-11.949219-.238282-26.589844-11.144532-33.335938zm1.824219 29.703125c-2.910156 7.472656-11.6875 12.320313-19.558594 10.816406-7.875-1.507812-14.238281-9.257812-14.183593-17.273437.042968-6.269531 3.433593-11.871094 9.074218-14.988281 2.765625-1.527344 5.742188-2.289063 8.683594-2.289063 3.101562 0 6.164062.847657 8.898438 2.539063 6.820312 4.214844 10 13.726562 7.085937 21.195312zm0 0"/><path d="m447.152344 145.863281c-8.445313-5.222656-18.792969-5.410156-27.679688-.492187-8.851562 4.890625-14.171875 13.738281-14.238281 23.667968-.089844 12.820313 9.707031 24.753907 22.300781 27.164063 1.59375.304687 3.199219.453125 4.800782.453125 11.066406 0 21.890624-7.019531 25.960937-17.457031 4.652344-11.949219-.242187-26.589844-11.144531-33.335938zm1.824218 29.703125c-2.910156 7.472656-11.683593 12.320313-19.558593 10.816406-7.875-1.507812-14.238281-9.257812-14.183594-17.273437.042969-6.269531 3.433594-11.871094 9.074219-14.988281 5.683594-3.140625 12.253906-3.046875 17.582031.25 6.820313 4.214844 9.996094 13.726562 7.085937 21.195312zm0 0"/><path d="m201.742188 222.742188c-8.445313-5.226563-18.796876-5.410157-27.683594-.496094-8.847656 4.890625-14.167969 13.738281-14.238282 23.667968-.085937 12.824219 9.710938 24.753907 22.304688 27.164063 1.59375.304687 3.199219.453125 4.800781.453125 11.066407 0 21.890625-7.019531 25.957031-17.457031 4.65625-11.945313-.238281-26.585938-11.140624-33.332031zm1.824218 29.703124c-2.910156 7.46875-11.6875 12.320313-19.5625 10.8125-7.875-1.507812-14.238281-9.257812-14.183594-17.273437.042969-6.265625 3.4375-11.867187 9.074219-14.984375 2.769531-1.53125 5.742188-2.292969 8.683594-2.292969 3.101563 0 6.164063.847657 8.898437 2.539063 6.820313 4.21875 10 13.726562 7.089844 21.199218zm0 0"/><path d="m283.546875 222.742188c-8.445313-5.226563-18.796875-5.410157-27.683594-.496094-8.847656 4.890625-14.171875 13.738281-14.238281 23.667968-.085938 12.824219 9.710938 24.753907 22.304688 27.164063 1.589843.304687 3.195312.453125 4.796874.453125 11.066407 0 21.894532-7.019531 25.960938-17.457031 4.65625-11.945313-.238281-26.585938-11.140625-33.332031zm1.824219 29.703124c-2.910156 7.46875-11.6875 12.320313-19.5625 10.8125-7.875-1.507812-14.234375-9.257812-14.183594-17.273437.042969-6.265625 3.4375-11.867187 9.074219-14.984375 2.769531-1.53125 5.742187-2.292969 8.6875-2.292969 3.101562 0 6.164062.847657 8.898437 2.539063 6.816406 4.21875 9.996094 13.726562 7.085938 21.199218zm0 0"/><path d="m365.347656 222.742188c-8.445312-5.226563-18.789062-5.410157-27.679687-.496094-8.847657 4.890625-14.171875 13.738281-14.238281 23.667968-.085938 12.824219 9.710937 24.753907 22.304687 27.164063 1.589844.304687 3.195313.453125 4.796875.453125 11.066406 0 21.894531-7.019531 25.960938-17.457031 4.652343-11.945313-.238282-26.585938-11.144532-33.332031zm1.824219 29.703124c-2.910156 7.46875-11.6875 12.320313-19.558594 10.8125-7.875-1.507812-14.238281-9.257812-14.183593-17.273437.042968-6.265625 3.433593-11.867187 9.074218-14.984375 2.765625-1.53125 5.742188-2.292969 8.683594-2.292969 3.101562 0 6.164062.847657 8.898438 2.539063 6.820312 4.21875 10 13.726562 7.085937 21.199218zm0 0"/><path d="m447.152344 222.742188c-8.445313-5.226563-18.792969-5.410157-27.679688-.496094-8.851562 4.890625-14.171875 13.738281-14.238281 23.667968-.089844 12.824219 9.707031 24.753907 22.300781 27.164063 1.59375.304687 3.199219.453125 4.800782.453125 11.066406 0 21.890624-7.019531 25.960937-17.457031 4.652344-11.945313-.242187-26.585938-11.144531-33.332031zm1.824218 29.703124c-2.910156 7.46875-11.683593 12.320313-19.558593 10.8125-7.875-1.507812-14.238281-9.257812-14.183594-17.273437.042969-6.265625 3.433594-11.867187 9.074219-14.988281 5.683594-3.140625 12.253906-3.042969 17.582031.25 6.820313 4.21875 9.996094 13.726562 7.085937 21.199218zm0 0"/><path d="m201.742188 299.617188c-8.445313-5.222657-18.796876-5.410157-27.683594-.496094-8.847656 4.894531-14.167969 13.742187-14.238282 23.671875-.085937 12.820312 9.710938 24.753906 22.304688 27.164062 1.59375.304688 3.199219.449219 4.800781.449219 11.066407 0 21.890625-7.019531 25.957031-17.457031 4.65625-11.945313-.238281-26.585938-11.140624-33.332031zm1.824218 29.703124c-2.910156 7.472657-11.6875 12.320313-19.5625 10.816407-7.875-1.507813-14.238281-9.257813-14.183594-17.277344.042969-6.261719 3.4375-11.867187 9.074219-14.984375 2.769531-1.527344 5.742188-2.292969 8.683594-2.292969 3.101563 0 6.164063.851563 8.898437 2.542969 6.820313 4.214844 10 13.726562 7.089844 21.195312zm0 0"/><path d="m283.546875 299.617188c-8.445313-5.222657-18.796875-5.410157-27.683594-.496094-8.847656 4.894531-14.171875 13.742187-14.238281 23.671875-.085938 12.820312 9.710938 24.753906 22.304688 27.164062 1.589843.304688 3.195312.449219 4.796874.449219 11.066407 0 21.894532-7.019531 25.960938-17.457031 4.65625-11.945313-.238281-26.585938-11.140625-33.332031zm1.824219 29.703124c-2.910156 7.472657-11.6875 12.320313-19.5625 10.816407-7.875-1.507813-14.234375-9.257813-14.183594-17.277344.042969-6.261719 3.4375-11.867187 9.074219-14.984375 2.769531-1.527344 5.742187-2.292969 8.6875-2.292969 3.101562 0 6.164062.851563 8.898437 2.542969 6.816406 4.214844 9.996094 13.726562 7.085938 21.195312zm0 0"/><path d="m365.347656 299.617188c-8.445312-5.222657-18.789062-5.40625-27.679687-.496094-8.847657 4.890625-14.171875 13.742187-14.238281 23.671875-.085938 12.820312 9.710937 24.753906 22.304687 27.164062 1.589844.304688 3.195313.449219 4.796875.449219 11.066406 0 21.894531-7.019531 25.960938-17.457031 4.652343-11.945313-.238282-26.585938-11.144532-33.332031zm1.824219 29.703124c-2.910156 7.472657-11.6875 12.320313-19.558594 10.816407-7.875-1.507813-14.238281-9.257813-14.183593-17.277344.042968-6.261719 3.433593-11.867187 9.074218-14.984375 2.765625-1.527344 5.742188-2.292969 8.683594-2.292969 3.101562 0 6.164062.851563 8.898438 2.542969 6.820312 4.214844 10 13.726562 7.085937 21.195312zm0 0"/><path d="m447.152344 299.617188c-8.445313-5.222657-18.792969-5.40625-27.679688-.496094-8.851562 4.890625-14.171875 13.742187-14.238281 23.671875-.089844 12.820312 9.707031 24.753906 22.300781 27.164062 1.59375.304688 3.199219.449219 4.800782.449219 11.066406 0 21.890624-7.019531 25.960937-17.457031 4.652344-11.945313-.242187-26.585938-11.144531-33.332031zm1.824218 29.703124c-2.910156 7.472657-11.683593 12.320313-19.558593 10.816407-7.875-1.507813-14.238281-9.257813-14.183594-17.277344.042969-6.265625 3.433594-11.867187 9.074219-14.984375 5.683594-3.140625 12.253906-3.046875 17.582031.246094 6.820313 4.21875 10 13.730468 7.085937 21.199218zm0 0"/><path d="m201.742188 376.496094c-8.445313-5.226563-18.796876-5.410156-27.683594-.496094-8.847656 4.890625-14.167969 13.738281-14.238282 23.667969-.085937 12.820312 9.710938 24.753906 22.304688 27.164062 1.59375.304688 3.199219.453125 4.796875.453125 11.070313 0 21.894531-7.019531 25.960937-17.457031 4.65625-11.945313-.238281-26.585937-11.140624-33.332031zm1.824218 29.703125c-2.910156 7.46875-11.683594 12.316406-19.5625 10.8125-7.875-1.507813-14.238281-9.257813-14.183594-17.273438.042969-6.265625 3.4375-11.867187 9.074219-14.988281 2.769531-1.527344 5.742188-2.289062 8.683594-2.289062 3.101563 0 6.164063.847656 8.898437 2.539062 6.820313 4.21875 10 13.726562 7.089844 21.199219zm0 0"/><path d="m283.546875 376.496094c-8.445313-5.226563-18.796875-5.410156-27.683594-.496094-8.847656 4.890625-14.171875 13.738281-14.238281 23.667969-.085938 12.820312 9.710938 24.753906 22.304688 27.164062 1.589843.304688 3.195312.453125 4.796874.453125 11.066407 0 21.894532-7.019531 25.960938-17.457031 4.65625-11.945313-.238281-26.585937-11.140625-33.332031zm1.824219 29.703125c-2.910156 7.46875-11.6875 12.316406-19.5625 10.8125-7.875-1.507813-14.234375-9.257813-14.183594-17.273438.042969-6.265625 3.4375-11.867187 9.074219-14.988281 2.769531-1.527344 5.742187-2.289062 8.6875-2.289062 3.101562 0 6.164062.847656 8.898437 2.539062 6.816406 4.21875 9.996094 13.726562 7.085938 21.199219zm0 0"/><path d="m365.347656 376.496094c-8.445312-5.226563-18.789062-5.410156-27.679687-.496094-8.847657 4.890625-14.171875 13.738281-14.238281 23.667969-.085938 12.820312 9.710937 24.753906 22.304687 27.164062 1.589844.304688 3.195313.453125 4.796875.453125 11.066406 0 21.894531-7.019531 25.960938-17.457031 4.652343-11.945313-.238282-26.585937-11.144532-33.332031zm1.824219 29.703125c-2.910156 7.46875-11.6875 12.320312-19.558594 10.8125-7.875-1.507813-14.238281-9.257813-14.183593-17.273438.042968-6.265625 3.433593-11.867187 9.074218-14.988281 2.765625-1.527344 5.742188-2.289062 8.683594-2.289062 3.101562 0 6.164062.847656 8.898438 2.539062 6.820312 4.21875 10 13.726562 7.085937 21.199219zm0 0"/><path d="m447.152344 376.496094c-8.445313-5.226563-18.792969-5.410156-27.679688-.496094-8.851562 4.890625-14.171875 13.738281-14.238281 23.667969-.089844 12.820312 9.707031 24.753906 22.300781 27.164062 1.59375.304688 3.199219.453125 4.800782.453125 11.066406 0 21.890624-7.019531 25.960937-17.457031 4.652344-11.945313-.242187-26.585937-11.144531-33.332031zm1.824218 29.703125c-2.910156 7.46875-11.683593 12.316406-19.558593 10.8125-7.875-1.507813-14.238281-9.257813-14.183594-17.273438.042969-6.265625 3.433594-11.867187 9.074219-14.988281 5.679687-3.136719 12.253906-3.046875 17.582031.25 6.820313 4.21875 9.996094 13.726562 7.085937 21.199219zm0 0"/></svg>