<?xml version="1.0" ?><svg id="Layer_1" style="enable-background:new 0 0 52 52;" version="1.1" viewBox="0 0 52 52" xml:space="preserve" xmlns="http://www.w3.org/2000/svg" xmlns:xlink="http://www.w3.org/1999/xlink"><style type="text/css">
	.st0{fill:#231F20;}
</style><g><g><path class="st0" d="M45.3236046,18.7251835c3.7887993,5.3671265-4.7066307,11.0889912-7.9648361,5.1388264    c-1.4591141-2.6646481-1.1448746-5.8074265,1.5738792-7.4761887c2.5442963-1.5616817,6.3739357-0.051693,6.8101807,2.9699707    c0.2061043,1.4275856,2.3744392,0.8204823,2.1696281-0.5981388c-0.6041451-4.1846447-5.4837456-6.2547178-9.2092476-4.7827978    c-4.2484932,1.6785517-5.5784264,6.5937147-3.6365852,10.56635c1.8449821,3.7744732,6.0082817,5.4343872,9.8445244,3.3240356    c3.4896088-1.9196625,4.6716995-6.9962673,2.3552628-10.2776756    C46.4378586,16.4158535,44.4860268,17.5386925,45.3236046,18.7251835L45.3236046,18.7251835z"/></g><g><path class="st0" d="M36.0875473,26.268507c0.0612602,5.5858459,0.209568,11.1777134,0.1789551,16.7637196    c-0.0177307,3.2355194,0.1749458,5.8630257-3.4615974,6.4754791c-2.8270054,0.4761162-6.073122,0.0042953-8.9523582,0.0063286    c-2.6525517,0.0018768-5.3051014,0.0037498-7.9576521,0.0056267c-2.5618896,0.001812-6.8984184,0.9263268-8.6626377-0.8392525    C4.3908305,45.836792,6.0037613,35.2590218,6.0034947,31.4143257c-0.0003686-5.3165836,0.0037684-10.6331768,0.0226326-15.9497309    c0.0101619-2.8640108-0.4043317-6.1337795,0.0475149-8.9715605c0.3124337-1.9622121,0.8185225-3.5907123,2.554256-4.2254176    c0.9375725-0.3428423,2.7138252-0.0008049,3.7223568-0.0011039c5.2733393-0.0015638,10.5466776-0.0031276,15.8200159-0.0046914    c4.5299397-0.0013435,7.5451717-0.8459163,8.4677181,5.5023432c0.4086571,2.8120842,0.0065613,6.0380144,0.0096436,8.878068    c0.0015755,1.4476986,2.2515793,1.4502316,2.25,0c-0.0042839-3.9441805,2.057148-14.1540623-2.9624329-16.3072052    c-2.4008675-1.029851-6.129015-0.3236917-8.6955166-0.3229306c-4.0325546,0.0011958-8.0651073,0.0023917-12.0976601,0.0035875    c-5.065979,0.0015023-10.8607912-1.7768295-11.3030777,4.483696c-0.6274335,8.8812523-0.0859828,18.010334-0.0854502,26.9149437    c0.000263,4.3960991-0.2004056,8.8579826,0.1270223,13.2435799c0.1374588,1.8411331,0.0732622,4.41782,1.3328199,5.9028511    c1.2909803,1.5220757,2.8362789,1.1743011,4.7133188,1.2131233c4.6367769,0.0959015,9.2883844-0.0065689,13.9258909-0.0098457    c3.6916676-0.0026093,11.5804977,1.9226952,13.829731-2.0788383c1.4146538-2.5167618,0.8345871-6.7864914,0.8084106-9.4528847    c-0.0456963-4.6546478-0.1020927-9.3092136-0.153141-13.9638042    C38.3216782,24.8215961,36.0716362,24.8178291,36.0875473,26.268507L36.0875473,26.268507z"/></g><g><path class="st0" d="M5.2676978,11.4575901c10.4166851,0.0808544,20.8333721,0.1617088,31.2500591,0.2425632    c1.4481621,0.011241,1.4495888-2.2387476,0-2.25c-10.416687-0.0808544-20.833374-0.1617088-31.2500591-0.2425632    C3.8195333,9.1963491,3.8181055,11.4463387,5.2676978,11.4575901L5.2676978,11.4575901z"/></g><g><path class="st0" d="M5.393208,42.6418381c10.625,0,21.25,0,31.875,0c1.4477692,0,1.4501648-2.25,0-2.25    c-10.625,0-21.25,0-31.875,0C3.9454405,40.3918381,3.9430425,42.6418381,5.393208,42.6418381L5.393208,42.6418381z"/></g><g><path class="st0" d="M19.1432076,46.8918381c1.25,0,2.5,0,3.75,0c1.4477692,0,1.4501667-2.25,0-2.25c-1.25,0-2.5,0-3.75,0    C17.6954403,44.6418381,17.6930428,46.8918381,19.1432076,46.8918381L19.1432076,46.8918381z"/></g><g><path class="st0" d="M21.2682076,7.6418386c1.4477692,0,1.4501667-2.25,0-2.25    C19.8204403,5.3918386,19.8180428,7.6418386,21.2682076,7.6418386L21.2682076,7.6418386z"/></g><g><path class="st0" d="M42.9093246,19.9439716c-0.1230698-0.7438736-0.406086-1.9768562-1.3320122-2.1141472    c-0.8138542-0.1206722-1.6728134,0.7734222-1.879673,1.4851418c-0.2269745,0.7809181-0.1272011,2.0005665,0.7083664,2.3721447    c0.4383659,0.1949425,0.910862,0.0276108,1.3565521,0.1529102c0.9894447,0.2781677,0.7732201,1.2488804-0.105957,1.4851532    c-0.8753929,0.2352524-1.2105293-0.3453159-1.3362465-1.1260662c-0.0765266-0.4752636-0.7993622-0.2735615-0.7232094,0.199379    c0.1502838,0.933321,0.653183,1.7167225,1.6669579,1.823946c0.8491898,0.0898151,1.6100998-0.4631138,1.8479614-1.2756138    c0.2195053-0.7497883-0.0332718-1.4769001-0.7781982-1.7529907c-0.6969414-0.2583046-1.6936531,0.0845413-1.9348907-0.8338413    c-0.1737785-0.6615772,0.2613144-1.8757229,1.076355-1.5627632c0.5857506,0.2249165,0.6130028,0.7550983,0.7107849,1.3461285    C42.2647133,20.6184139,42.9875679,20.4168873,42.9093246,19.9439716L42.9093246,19.9439716z"/></g><g><path class="st0" d="M40.8307076,24.2980881c0,0.1354179,0,0.270834,0,0.40625c0,0.4825897,0.75,0.4833889,0.75,0    c0-0.135416,0-0.2708321,0-0.40625C41.5807076,23.8155003,40.8307076,23.8146992,40.8307076,24.2980881L40.8307076,24.2980881z"/></g><g><path class="st0" d="M40.9557076,17.4230881c0,0.333334,0,0.6666679,0,1c0,0.4825897,0.75,0.4833889,0.75,0    c0-0.3333321,0-0.666666,0-1C41.7057076,16.9405003,40.9557076,16.9396992,40.9557076,17.4230881L40.9557076,17.4230881z"/></g><g><path class="st0" d="M26.4343491,19.4751492c-0.0076485,4.7796154,0.0257034,9.5586853,0.1000557,14.3377285    c0.4746895-0.3616066,0.949379-0.7232094,1.4240685-1.084816c-1.754261-0.5794754-3.5445709-1.0699692-5.2909985-1.6813107    c-1.0270023-0.3595047-2.1765366-0.6878567-3.0802345-1.2805328c-1.1056862-0.7251472-1.0277977-1.1093731-1.0287571-2.3914776    c-0.0006084-0.8146591-0.1617031-1.7915783-0.0019379-2.595768c0.284481-1.4319687,0.636734-1.5995617,1.9640598-2.433342    c1.9929237-1.2518845,4.3651714-2.5335922,6.746664-2.5673676c1.4465923-0.0205173,1.4507618-2.2705765,0-2.25    c-2.9963055,0.0424957-5.7867165,1.5239143-8.2663822,3.1193123c-2.448576,1.5753918-2.6956978,2.317915-2.6935673,5.1697044    c0.0017757,2.3770161-0.4549942,4.2946339,1.7356339,5.6791573c2.7416954,1.732811,6.2794781,2.3977585,9.3173809,3.4012527    c0.6924152,0.2287216,1.435009-0.3816719,1.4240704-1.0848122c-0.0743523-4.7790432-0.1077042-9.5581131-0.1000557-14.3377285    C28.6866665,18.0272865,26.4366703,18.0250874,26.4343491,19.4751492L26.4343491,19.4751492z"/></g><g><path class="st0" d="M27.7297707,23.6939526c1.369482-0.002533,2.2295723,0.4508648,2.4438992,1.9237385    c0.1974583,1.3569717-0.6858139,3.1106224-2.2357788,2.965168c-1.4409313-0.1352234-1.4316826,2.1156445,0,2.25    c2.7283516,0.2560387,4.6818905-2.6464329,4.5102749-5.1438103c-0.1890984-2.7517815-2.0937042-4.2499523-4.7183952-4.2450962    C26.2821236,21.4466286,26.2794952,23.6966343,27.7297707,23.6939526L27.7297707,23.6939526z"/></g><g><path class="st0" d="M17.2262192,22.576025c-1.4978409-0.0267487-3.4286709-0.3984718-4.8398628,0.1921062    c-1.3650131,0.5712547-2.0225449,1.6349049-2.0944138,3.0661354c-0.0657053,1.3084869,0.1069384,3.2640667,1.4551268,3.8956604    c1.4920263,0.6989765,3.712925,0.5394611,5.3133554,0.4673805c1.4420338-0.0649471,1.4500446-2.3153076,0-2.25    c-1.1607037,0.0522766-2.3229265,0.035944-3.4775705-0.1055794c0.0758657,0.0093002-0.8028135-0.1119862-0.8124943-0.1217709    c-0.2901726-0.2932777-0.2484503-1.3131046-0.2384701-1.6848106c0.025712-0.9576111,0.5236855-1.2303143,1.4456921-1.2671375    c1.0757418-0.0429649,2.1719522,0.0387878,3.2486372,0.0580158C18.6746387,24.8518925,18.6748047,22.6018963,17.2262192,22.576025    L17.2262192,22.576025z"/></g><g><path class="st0" d="M13.8520985,29.2251682c0.0076637,1.4174957-0.0160389,2.8340816-0.0711203,4.2505245    c-0.0563097,1.4480019,2.1937857,1.4455452,2.249999,0c0.0550823-1.4164467,0.0787849-2.8330326,0.0711212-4.2505245    C16.0942745,27.7777805,13.8442574,27.7747059,13.8520985,29.2251682L13.8520985,29.2251682z"/></g></g></svg>