<?xml version="1.0" ?><svg id="Layer_1" style="enable-background:new 0 0 52 52;" version="1.1" viewBox="0 0 52 52" xml:space="preserve" xmlns="http://www.w3.org/2000/svg" xmlns:xlink="http://www.w3.org/1999/xlink"><style type="text/css">
	.st0{fill:#231F20;}
</style><g><g><path class="st0" d="M6.541707,3.3409545c6.2266903,0.0010562,12.4533815,0.0021126,18.6800728,0.0031688    c5.9217873,0.0010047,12.855526-0.9977698,18.6800728,0.0031691c2.6047478,0.4476216,4.6645317,0.8095136,5.3963318,4.019546    c0.2672043,1.1720905-0.0032349,2.7559872-0.0046501,3.9626169c-0.0038719,3.3021803-0.0077477,6.6043615-0.0116196,9.9065409    c-0.0034866,2.9719086,0.0036697,5.9440136-0.0104599,8.9158878c-0.0112648,2.3697414,0.165184,2.9528217-1.4817772,4.9450588    c-1.7765465,2.1489944-2.5457077,1.9754105-5.1725845,2.0371132c-5.8352013,0.1370659-11.7143917-0.1423416-17.5512676-0.2132683    c-3.2502346-0.0394936-6.5004692-0.0789871-9.7507048-0.1184807C12.617733,36.7695313,9.4581451,37.241375,6.83391,36.6892204    c-5.301796-1.1155281-4.172431-5.726469-4.233798-9.7584171c-0.0452809-2.9750462-0.0728493-5.9503403-0.0822861-8.9257183    c-0.0104852-3.3059397,0.0020266-6.6120329,0.0365145-9.9178095c0.00771-0.7390041-0.3767121-3.4102192,0.052098-3.9668336    C3.5313191,2.9199071,6.524034,3.2202542,7.792829,3.2180288c1.4476542-0.0025394,1.4502711-2.2525439,0-2.25    c-8.003994,0.0140393-7.4479303,1.5274808-7.5065036,9.1027546c-0.0357862,4.6282272-0.027831,9.2568283,0.0238612,13.8849049    c0.0386922,3.4641685-0.7119403,8.1592751,0.3239638,11.5244827c1.7485827,5.6803894,12.4396935,3.5449028,16.6311111,3.5958328    c8.8221359,0.1071968,17.8941936,0.8385468,26.7031384,0.3102837c4.8591766-0.2913971,7.3253899-2.4045258,7.5507317-7.2530937    c0.2291222-4.9298782,0.0116425-9.9238758,0.0174294-14.8598137c0.0045319-3.8618059,0.9260445-9.0182791-0.1172447-12.7434483    c-1.5595627-5.5685949-11.1856422-3.4332614-15.3827591-3.4339733C26.2049408,1.0942903,16.3733234,1.0926224,6.541707,1.0909544    C5.0939288,1.0907089,5.0915518,3.3407085,6.541707,3.3409545L6.541707,3.3409545z"/></g><g><path class="st0" d="M1.287208,30.5535851c15.9569807-0.4453354,31.9174347-0.5292034,47.8782158-0.2515888c0-0.75,0-1.5,0-2.25    c-15.959404,0.0838623-31.9188118,0.1677265-47.8782158,0.2515888    C-0.1601919,28.3111916-0.1632466,30.5612068,1.287208,30.5535851    c15.9594049-0.0838623,31.9188118-0.1677265,47.8782158-0.2515888c1.4487686-0.0076141,1.4488029-2.2248001,0-2.25    c-15.9607811-0.2776146-31.9212341-0.1937466-47.8782158,0.2515888    C-0.1576934,28.3439102-0.163575,30.5940742,1.287208,30.5535851z"/></g><g><path class="st0" d="M19.9388542,11.1519098c-1.5823803-0.4204569-3.3216724-0.2473907-4.5711241,0.906002    c-1.3621511,1.2574282-1.4023466,2.8627529-1.3922653,4.6027002c0.0088615,1.5293941,0.5036764,2.7338085,1.9306345,3.4399967    c1.3724842,0.6792297,3.3961086,0.7885246,4.6765022-0.1251163c1.1687088-0.8339462,0.0463276-2.7862015-1.1356182-1.9428082    c-0.6023426,0.4298077-1.4700546,0.4048119-2.1656761,0.187067c-1.1112213-0.3478355-1.0565929-0.9948978-1.0552597-1.9978542    c0.0010319-0.7752142-0.0938854-1.6452942,0.4415913-2.2830868c0.6737728-0.802515,1.7258148-0.8689709,2.6730766-0.6172733    C20.74156,13.6937571,21.3391876,11.5239935,19.9388542,11.1519098L19.9388542,11.1519098z"/></g><g><path class="st0" d="M23.4559441,19.4739494c0.0142345-1.8054295,0.0206032-3.6111336,0.0427074-5.4164848    c0.0079308-0.6477566-0.056633-1.7042217,0.9077625-1.5520649c0.615406,0.0970955,0.9392738,1.0989647,0.638052,1.5784225    c-0.325161,0.5175591-0.8831177,0.4719944-1.4953384,0.4805546c-1.4507942,0.0202856-1.4461613,2.2002182,0,2.25    c1.2162762,0.0418682,1.6573505,0.2415504,2.1110744,1.3710899c0.2607384,0.649107,0.431509,1.1437778,0.9181519,1.673605    c0.9816399,1.0687466,2.5695057-0.5256443,1.5909901-1.5909901c-0.7630329-0.8307438-0.5625381-2.0727444-1.5288105-2.8574648    c-0.8688107-0.7055712-2.0148277-0.8091812-3.0914059-0.84624c0,0.75,0,1.5,0,2.25    c1.6717739-0.0233746,3.4865646-0.480526,3.8359108-2.3682661c0.3067398-1.6574965-0.2220097-3.5687141-1.986227-4.0658722    c-1.5924702-0.4487591-3.4382324,0.0012226-3.9692535,1.6913185c-0.3105431,0.9883757-0.1823521,2.1692152-0.1903973,3.1895704    c-0.0110722,1.404274-0.0221443,2.808548-0.0332165,4.212822C21.1945248,20.9221191,23.4445152,20.9235325,23.4559441,19.4739494    L23.4559441,19.4739494z"/></g><g><path class="st0" d="M31.2179928,19.3434753c0.0078869-2.3471375-0.2796021-4.9304857,0.438776-7.1915245    c-0.5508728,0.2241116-1.1017475,0.4482241-1.6526222,0.6723356c1.7127914,1.181097,2.2817993,4.0700407,2.3626099,5.9910898    c0.0468636,1.1140747,1.496212,1.5316372,2.096405,0.5678082c1.4457321-2.3216572,1.0325012-5.1898565,3.1489296-7.1192389    c-0.6401634-0.2651644-1.2803307-0.5303297-1.9204941-0.795495c0.2703476,2.7041435,0.3575134,5.4078102,0.2619209,8.1236877    c-0.050972,1.4481697,2.1990967,1.4461708,2.25,0c0.0955963-2.7159424,0.008419-5.4196081-0.2619209-8.1236877    c-0.0965843-0.9660816-1.1601524-1.4886379-1.9204941-0.795495c-0.9338112,0.8512821-1.6455803,1.8555298-2.0775833,3.0488596    c-0.5649414,1.5605469-0.51334,3.0646877-1.4231682,4.5257511c0.6987991,0.18927,1.3976021,0.37854,2.096405,0.5678101    c-0.1184845-2.81672-1.0302887-6.2467136-3.4769917-7.9338989c-0.6244984-0.4306383-1.4477577,0.0275383-1.6526222,0.6723347    c-0.7857418,2.4730568-0.5105515,5.2305508-0.5191498,7.7896633    C28.9631271,20.7914352,31.2131214,20.7934151,31.2179928,19.3434753L31.2179928,19.3434753z"/></g><g><path class="st0" d="M26.2919636,34.0932007c1.4477692,0,1.4501667-2.25,0-2.25    C24.8441963,31.8432007,24.8417988,34.0932007,26.2919636,34.0932007L26.2919636,34.0932007z"/></g><g><path class="st0" d="M35.7887268,48.6038857c-3.4106903,0.0458603-6.8213825,0.0917206-10.2320728,0.1375847    c-1.7053452,0.0229301-3.4106903,0.0458603-5.1160355,0.0687904c-1.6492138,0.0221786-3.2086277,1.0856667-1.7760201-0.5000992    c4.1902847-4.6382675,13.214529-3.8398895,16.324934,1.6019859c0.7184296,1.2569466,2.663208,0.1247711,1.9428062-1.1356201    c-2.47118-4.3235092-6.1204109-5.5269241-10.9514656-5.5057106c-4.7451439,0.0208397-8.4443626,1.0048714-10.7484903,5.8117828    c-0.1640015,0.3421402-0.2438307,0.7998848,0,1.1356163c1.290803,1.7773209,4.8372068,0.8470345,6.669961,0.8223915    c4.6287937-0.0622406,9.2575874-0.1244812,13.8863831-0.1867218    C37.2353935,50.8344345,37.2394714,48.5843773,35.7887268,48.6038857L35.7887268,48.6038857z"/></g><g><path class="st0" d="M34.7294426,49.5307007c0,0.1041679,0,0.2083321,0,0.3125c0,1.4477692,2.25,1.4501648,2.25,0    c0-0.1041679,0-0.2083321,0-0.3125C36.9794426,48.0829315,34.7294426,48.0805359,34.7294426,49.5307007L34.7294426,49.5307007z"/></g><g><path class="st0" d="M30.3271732,38.1607513c-0.5948353,1.9258118-0.2470474,3.9520645-0.7427006,5.8859482    c-0.3596859,1.4033813,1.8098068,2.0020523,2.1696262,0.5981407c0.4961948-1.9359894,0.1533985-3.9780464,0.7427044-5.885952    C32.9250984,37.3722572,30.7538776,36.7792778,30.3271732,38.1607513L30.3271732,38.1607513z"/></g><g><path class="st0" d="M19.6068592,39.6704979c0.2995529,0.1614609,0.4642696,0.427372,0.7018337,0.6633911    c0.2493916,0.2477684,0.6491966,0.4035454,0.8729382,0.6402817c0.5421448,0.5736237,0.5909214,2.1838799,0.5347347,2.9292526    c-0.1088715,1.4442596,2.141655,1.4372787,2.25,0c0.0952168-1.263134-0.1453648-2.9925995-0.819706-4.0925789    c-0.3064137-0.4998207-0.7463703-0.636734-1.1694164-0.9902611c-0.4458542-0.3725853-0.7022266-0.805851-1.2347679-1.0928917    C19.4678497,37.0406609,18.3304024,38.9824867,19.6068592,39.6704979L19.6068592,39.6704979z"/></g></g></svg>