<?xml version="1.0" ?><svg id="Layer_1" style="enable-background:new 0 0 52 52;" version="1.1" viewBox="0 0 52 52" xml:space="preserve" xmlns="http://www.w3.org/2000/svg" xmlns:xlink="http://www.w3.org/1999/xlink"><style type="text/css">
	.st0{fill:#231F20;}
</style><g><g><path class="st0" d="M27.1198959,12.1066313c2.1669083,1.0379725,3.7240047,4.052886,6.1579971,4.1465425    c0.7572899,0.0291405,1.4424057-0.6948748,2.1615028-0.7512112c2.2643013-0.177392,5.4013481,0.8102665,6.8553047,2.6122131    c2.7487755,3.4066582,3.3226547,10.5945263-1.7500877,12.6543884c-1.9172096,0.778513-6.0613708,0.6678143-8.0339203,0.0433388    c-2.9381351-0.9301643-4.2572212-3.252737-6.5233974-4.9753418c-0.639555-0.4861469-0.7173157-0.5367737-1.4697571-0.865881    c-0.6922054-0.3027611-1.201622,0.2070236-1.7717266-0.4386234c-0.6092968-0.6900311-0.3015766-2.5411224-0.3062153-3.3474998    c-0.375,0.375-0.75,0.75-1.125,1.125c0.7404461,0.1014042,1.4808903,0.2028103,2.2213364,0.3042145    c0.5631084,0.1153355,1.2570629-0.1582317,1.3838825-0.7857437c1.139246-1.2208385,2.2784901-2.4416752,3.4177361-3.6625137    c0.614645-0.1608696,0.9088516-0.794035,0.7857437-1.3838844c-0.4345245-2.0819445-0.5097656-3.6492805-0.3606644-5.7045631    c0.1048069-1.4446898-2.1456757-1.438056-2.25,0c-0.1581287,2.1797132-0.002039,4.1797791,0.4410362,6.3027039    c0.2619152-0.4612961,0.5238304-0.9225903,0.7857456-1.3838844c-2.7967396,0.7319832-4.4164028,2.3996773-4.9892235,5.2340031    c0.4612942-0.2619152,0.9225883-0.5238304,1.3838825-0.7857437c-1.2068672-0.2471867-1.590538-0.298933-2.8194752-0.3845882    c-0.6047344-0.0421486-1.1283092,0.5495644-1.125,1.125c0.0094757,1.6472473-0.2534142,3.4755154,0.1634502,5.0820847    c0.0977192,0.3765965,0.4119835,0.6847191,0.7857456,0.7857437c0.956398,0.2585087,2.2364216-0.2219086,3.0812187,0.1511383    c0.656229,0.2897778,2.0632706,2.2711544,2.6697197,2.7635689c1.9155083,1.5553246,3.896862,2.859396,6.3592892,3.3091946    c5.688343,1.0390701,10.4268341-0.1343117,12.7160721-5.5522404c2.3389816-5.5356617,0.2718239-10.3818645-4.8024406-13.5817499    c-1.6368904-1.0322409-2.9968224-1.4573736-4.9321213-1.1631508c-2.6541061,0.4035034-2.3214569,1.169817-4.4415817-0.4722767    c-1.189724-0.9214735-2.1451797-1.6780586-3.5334339-2.3430471C26.9558754,9.5412807,25.8131294,11.4806757,27.1198959,12.1066313    L27.1198959,12.1066313z"/></g><g><path class="st0" d="M46.5830765,24.6121998c0.6944466,0,1.3888893,0,2.0833321,0c1.4477692,0,1.4501686-2.25,0-2.25    c-0.6944427,0-1.3888855,0-2.0833321,0C45.1353073,22.3621998,45.1329117,24.6121998,46.5830765,24.6121998L46.5830765,24.6121998    z"/></g><g><path class="st0" d="M29.7497425,22.2788677c1.4477692,0,1.4501667-2.25,0-2.25    C28.3019753,20.0288677,28.2995777,22.2788677,29.7497425,22.2788677L29.7497425,22.2788677z"/></g><g><path class="st0" d="M28.9580765,31.5705338c0,1.1944427,0,2.3888893,0,3.5833321c0,1.4477692,2.25,1.4501686,2.25,0    c0-1.1944427,0-2.3888893,0-3.5833321C31.2080765,30.1227665,28.9580765,30.1203671,28.9580765,31.5705338L28.9580765,31.5705338z    "/></g><g><path class="st0" d="M39.5414085,32.2372017c0,1.0555534,0,2.1111107,0,3.1666641c0,1.4477692,2.25,1.4501686,2.25,0    c0-1.0555534,0-2.1111107,0-3.1666641C41.7914085,30.7894325,39.5414085,30.787035,39.5414085,32.2372017L39.5414085,32.2372017z"/></g><g><path class="st0" d="M33.78685,33.1546822c0.0022469,2.3821449,0.0044975,4.7642899,0.0067444,7.146431    c0.0016022,1.6971283,0.7464943,5.6575966,0.0067482,7.1464348c-1.4856834,2.9901276-11.4545193,1.5015984-14.4506435,1.5287704    c-2.4797192,0.0224876-4.9595308,0.053154-7.4393101,0.0674667c-4.289762,0.0247612-6.577744-1.7818794-7.3139968-6.3159981    c-0.8108687-4.9936295-0.0480003-10.7831612-0.0573277-15.8500576c-0.009726-5.2833805-0.0100684-10.5667782-0.0010281-15.8501587    c0.0029421-1.7192192-0.8082759-6.7313466,0.4896817-8.0674143c0.7250395-0.7463281,6.5625424-0.0116439,7.7203383-0.0129817    c5.1468964-0.0059464,10.2937984-0.0064771,15.4406948-0.0015922c1.286726,0.0012212,2.5734482,0.0027809,3.8601723,0.0046792    c1.6755524,0.7695403,2.2810287,1.996727,1.8164215,3.6815591c0.4765701,2.3618355,0.0081711,5.3594799,0.0118561,7.7756453    c0.0022087,1.447669,2.2522125,1.4502573,2.25,0c-0.0051575-3.3828058,1.9862747-12.0601692-2.4887772-13.566247    c-2.9084206-0.9788276-7.2748947-0.1476914-10.274889-0.1485658C19.1816788,0.691434,14.9998226,0.693673,10.8179703,0.6996585    C5.788167,0.7068576,2.3766623-0.5723279,2.3021657,5.0837746C2.1934738,13.336154,2.274946,21.5966969,2.295635,29.8496284    c0.0107613,4.2927399,0.027607,8.5854645,0.0507569,12.8781586c0.0112832,2.0922203-0.5152451,4.7926865,0.8236713,6.5771828    c2.6941645,3.5907593,10.664011,1.9713707,14.319809,1.9382172c3.7196541-0.0337334,7.4393101-0.0674667,11.1589642-0.1012001    c1.7352371-0.0157394,5.1053181,0.6341629,6.5736217-0.9469261c1.0887299-1.1723595,0.8138695-3.1197701,0.8261986-4.5341225    c0.0363235-4.1678276-0.0078735-8.3383217-0.0118065-12.5062561C36.0354805,31.706974,33.7854805,31.7044582,33.78685,33.1546822    L33.78685,33.1546822z"/></g><g><path class="st0" d="M3.9167109,42.0748901c10.1108608-0.066082,20.2217216-0.132164,30.3325844-0.198246    c1.4472961-0.0094604,1.4505119-2.2594833,0-2.25c-10.1108627,0.066082-20.2217216,0.132164-30.3325844,0.198246    C2.4694128,39.8343468,2.466198,42.0843697,3.9167109,42.0748901L3.9167109,42.0748901z"/></g><g><path class="st0" d="M19.2497425,46.1955338c1.4477692,0,1.4501667-2.25,0-2.25    C17.8019753,43.9455338,17.7995777,46.1955338,19.2497425,46.1955338L19.2497425,46.1955338z"/></g></g></svg>