<?xml version="1.0" ?><svg id="Layer_1" style="enable-background:new 0 0 52 52;" version="1.1" viewBox="0 0 52 52" xml:space="preserve" xmlns="http://www.w3.org/2000/svg" xmlns:xlink="http://www.w3.org/1999/xlink"><style type="text/css">
	.st0{fill:#231F20;}
</style><g><g><path class="st0" d="M2.7613094,4.45715c1.7717092-0.0022573,4.2847157-0.6344981,5.2723055,1.4067283    c0.3599358,0.7439418,0.0391483,2.57726,0.100502,3.433795c0.1447506,2.0208206,0.4025068,4.0421629,1.056406,5.9655609    c1.0069265,2.9618044,2.5930901,5.62185,3.3926144,8.6828375c0.9184465,3.5162888,1.2441034,7.1016712,1.3713427,10.7217636    c0.0215607,0.61343,0.4980745,1.1172867,1.125,1.125c5.9645834,0.07341,11.9291677,0.1468201,17.8937531,0.2202301    c2.6152763,0.0321846,5.3521729-0.1662598,7.9527779,0.0978775c2.6795654,0.2721558,7.3207932,0.8230362,6.8482208,4.4483757    c0.5056953,1.2610512,0.0392036,2.0722389-1.3994789,2.4335709c-0.7811241,1.0073128-1.7633247,1.3538246-2.9466019,1.0395317    c-1.4484177-0.036335-1.4476814,2.2136841,0,2.25c2.5894089,0.0649529,5.5466118,0.1621552,6.5441895-2.543335    c0.9450989-2.5631714-0.077095-6.7690125-2.2320862-8.4968529c-2.9800415-2.3893509-8.2950935-1.3995171-11.784729-1.4424667    c-6.9586811-0.0856438-13.9173622-0.1712875-20.8760452-0.2569313c0.375,0.375,0.75,0.75,1.125001,1.125    c-0.186367-5.3023186-0.8467169-10.5444775-2.8238487-15.5070324c-1.1503925-2.8874588-2.477047-5.3768692-2.8481131-8.5106745    c-0.288991-2.4406452,0.0876989-4.9932084-0.3324871-7.3915157C10.1324282,2.8727462,9.7641611,2.5833905,9.4142876,2.472868    C7.3736253,1.8282377,4.8752193,2.2044566,2.7613094,2.2071502C1.3136237,2.2089949,1.3110664,4.4589982,2.7613094,4.45715    L2.7613094,4.45715z"/></g><g><path class="st0" d="M41.5908623,44.8772049c0.3208542,0.9194374-1.2801399,2.2873383-2.1064949,2.5608902    c-1.0895805,0.3606911-1.773098-1.2475052-1.7990227-2.1252556c-0.027935-0.9456215,0.2402916-1.1982231,0.9653435-1.7791061    c0.4052048-0.3246346,0.7899628-0.6577568,1.3558006-0.5810051c0.6917419,0.0938301,1.5261803,0.7105064,1.5181198,1.4521408    c-0.0157356,1.4482727,2.2342529,1.4493141,2.25,0c0.024826-2.2846031-2.5951385-4.2046204-4.8034401-3.6259308    c-1.0212402,0.2676163-1.9767418,1.1262512-2.7211876,1.8481216c-0.8178177,0.7930183-0.8658104,1.8164597-0.8035545,2.9091911    c0.11129,1.9534492,1.9863167,4.9418983,4.3269539,4.2722664c1.0977211-0.3140526,2.4327049-1.4321861,3.2014771-2.2741203    c0.8200188-0.8980522,1.1941071-2.084816,0.7856331-3.2553329C43.2864342,42.9206276,41.1119881,43.5049629,41.5908623,44.8772049    L41.5908623,44.8772049z"/></g><g><path class="st0" d="M23.0661392,42.9186363c0.8728752,0.6815758,1.7088242,1.7439423,1.2198238,2.9178581    c-0.2689209,0.6455841-0.8066807,0.9086952-1.4625435,1.037735c-0.4285412,0.0843163-1.4499626,0.2644386-1.8759384,0.0873146    c-0.9633427-0.4005661-1.1717319-2.6713867-0.5573158-3.4000244c0.339695-0.4028435,1.0607529-0.4282875,1.646862-0.4847031    c0.3112373-0.0299606,1.3852654-0.2413559,1.6060638,0.0438881c0.8851223,1.1434631,2.4669476-0.4593658,1.5909901-1.590992    c-0.7303009-0.9434547-2.1399174-0.7959557-3.1970539-0.7028961c-1.0723305,0.0943947-2.6275253,0.1372566-3.3281822,1.0858955    c-1.3124218,1.7769203-1.2241325,5.2505913,0.5774937,6.7021637c1.6896763,1.3613739,5.2694435,0.6384888,6.5338364-0.9999504    c1.5799408-2.0473404,0.7455997-4.796936-1.1630459-6.2872772C23.5288868,40.4466743,21.9255295,42.0280075,23.0661392,42.9186363    L23.0661392,42.9186363z"/></g><g><path class="st0" d="M25.6771526,45.8139839c3.777853,0.0767822,7.5553913,0.0920219,11.3337345,0.0457268    c1.4467888-0.0177269,1.4507141-2.2677727,0-2.25c-3.778347,0.0462952-7.5558872,0.0310555-11.3337345-0.0457268    C24.2287159,43.5345421,24.228857,45.7845459,25.6771526,45.8139839L25.6771526,45.8139839z"/></g><g><path class="st0" d="M15.0943804,46.0380898c1.2777777,0,2.5555563,0,3.833333,0c1.4477692,0,1.4501667-2.25,0-2.25    c-1.2777767,0-2.5555553,0-3.833333,0C13.6466131,43.7880898,13.6442146,46.0380898,15.0943804,46.0380898L15.0943804,46.0380898z    "/></g><g><path class="st0" d="M16.5440826,32.7492447c-0.0482559-3.7995758-0.0808144-7.599226-0.0870705-11.3991203    c-0.0050449-3.0639935-1.155653-8.0031157,2.2474289-8.8912191c2.9413795-0.7676134,7.163002-0.0049553,10.2244682-0.0054092    c3.7179909-0.0005512,7.4359779,0.0007524,11.153965,0.0030718c-0.375-0.375-0.75-0.75-1.125-1.125    c-0.0344849,7.3604584-0.0689735,14.7209148-0.1034584,22.0813732c-0.0067863,1.4480286,2.243206,1.4498405,2.25,0    c0.0344849-7.3604584,0.0689735-14.7209148,0.1034584-22.0813732c0.0028534-0.6084414-0.517746-1.1246214-1.125-1.125    c-4.9573174-0.0030928-9.9146347-0.0041122-14.871954-0.0020227c-2.3028202,0.0009699-8.4508533-1.1825333-10.3208475,0.296092    c-1.627964,1.2872496-0.6770134,5.3191233-0.6813126,7.0496483c-0.0125885,5.0665741,0.0209808,10.1328144,0.0853233,15.1989594    C14.312458,34.1959877,16.5625076,34.1999702,16.5440826,32.7492447L16.5440826,32.7492447z"/></g><g><path class="st0" d="M30.1422348,11.9129553c-0.0193062,1.4396439-0.0386143,2.8792868-0.0579205,4.3189306    c-0.0091,0.6786709,0.3674374,3.7528648-0.0287895,4.1588078c0.3648548-0.0964394,0.7297096-0.1928787,1.0945644-0.2893181    c-1.4055824-0.2631016-2.9153824-1.2629757-3.2169418-2.6993656c-0.1748028-0.8326225-1.3170319-1.0808315-1.8803082-0.4964256    c-1.4188652,1.4720898-2.7089767,3.0372925-3.9000854,4.6979275c0.698801,0.1892681,1.3976021,0.3785381,2.096405,0.5678082    c-0.0348167-3.3082619-0.0430775-6.6164703-0.0247841-9.9248638c0.0080051-1.4480686-2.2419853-1.4497757-2.25,0    c-0.0182934,3.3083944-0.0100327,6.6166039,0.0247841,9.9248638c0.0124645,1.1844883,1.471035,1.4396935,2.0964031,0.5678082    c1.0830002-1.5099087,2.2598591-2.9058132,3.5482674-4.2425537c-0.62677-0.1654758-1.25354-0.3309498-1.8803101-0.4964256    c0.2732391,1.3014946,1.0253525,2.2873726,2.114069,3.0405731c0.8381786,0.5798721,2.4664555,1.6480103,3.5412407,1.1168709    c1.1177311-0.5523624,0.8654575-2.1950817,0.8786297-3.1772976c0.0315895-2.3557796,0.0631828-4.7115593,0.0947762-7.0673399    C32.4116592,10.464612,30.1616669,10.4638901,30.1422348,11.9129553L30.1422348,11.9129553z"/></g></g></svg>