<?xml version="1.0" ?><svg id="Layer_1" style="enable-background:new 0 0 52 52;" version="1.1" viewBox="0 0 52 52" xml:space="preserve" xmlns="http://www.w3.org/2000/svg" xmlns:xlink="http://www.w3.org/1999/xlink"><style type="text/css">
	.st0{fill:#231F20;}
</style><g><g><path class="st0" d="M6.0578885,4.7241664C18.1665096,4.7172036,30.430769,4.1360312,42.5239868,4.7140675    c8.2924995,0.396368,6.4689713,10.9473543,6.5061874,16.7956619c0.018795,2.9533501,0.0161705,5.9068451-0.0095177,8.8601513    c-0.0163078,1.8744507,0.3008881,3.616478-0.7759705,5.2178192c-1.2742043,1.8948021-2.3513336,1.445446-4.6657639,1.5027618    c-11.5601196,0.2862816-23.699007,0.9447479-35.2253685,0.0026932c-2.3149624-0.1892052-4.2739239-0.1955833-5.1570721-2.2867622    c-0.4834142-1.1446609-0.1117463-3.7575722-0.1206493-4.9020805c-0.0226445-2.9110336-0.0336876-5.8221512-0.0339577-8.7332706    s0.0100427-5.8222408,0.0323367-8.7332754c0.0219207-2.862298-0.9149578-7.4828744,3.1905546-7.2371078    c1.4463186,0.0865803,1.4412527-2.163723,0-2.25c-7.0437212-0.4216552-5.4229193,6.2089343-5.4536333,11.4278088    c-0.02665,4.5283298-0.0262299,9.0568199,0.0012608,13.585144c0.0162538,2.6773739-0.6903141,7.0389748,0.7172146,9.5390892    c0.8598673,1.5273323,1.4365888,1.3954163,2.9101696,1.7999039c3.8816595,1.0654907,9.6106892,0.0894241,13.698514,0.1061783    c9.2343521,0.0378418,18.7686157,0.62257,27.9715691-0.1136093c6.2975349-0.5037651,5.1481209-5.7847557,5.1746254-10.8941879    c0.0238342-4.5941505-0.0046501-9.1885395-0.0876999-13.782011c-0.0457993-2.5331249,0.3447113-5.9614038-0.8095016-8.3602161    c-2.4760323-5.1459565-9.8521271-3.8044159-14.4708328-3.8017604c-9.9528542,0.005723-19.9057083,0.0114458-29.8585625,0.0171685    C4.6101575,2.4749987,4.6076875,4.7249999,6.0578885,4.7241664L6.0578885,4.7241664z"/></g><g><path class="st0" d="M20.6417847,14.0554781c1.9496746-0.0028677,3.8993511-0.0057344,5.8490257-0.0086021    c0.8791656-0.0012922,1.7808685-0.0651646,2.6586494-0.0039091c1.5654373,0.1092415,1.2174301-0.153348,1.4495106,1.4309845    c0.5660591,3.8642998,0.8819447,7.7195225,1.6235561,11.5668201c0.3616066-0.4746895,0.7232094-0.9493809,1.084816-1.4240704    c-2.1843567,0.0040855-4.3687115,0.0081692-6.5530663,0.0122547c-1.3659992,0.0025539-5.8512535,0.6839161-6.8360825-0.1158276    c-1.1046181-0.8970184,0.1022301-5.0673885,0.3513527-6.3743534c0.3739872-1.9620514,0.6980953-3.880434,0.7595463-5.8788805    c0.0445347-1.4483156-2.2055092-1.4468718-2.25,0c-0.0936413,3.0453386-0.9620476,5.9455767-1.2953968,8.959548    c-0.1478462,1.3367577-0.6497574,4.1647854,0.4855862,5.2602787c1.1165276,1.0773373,4.1349277,0.4079285,5.508461,0.4053612    c3.2765331-0.0061264,6.5530663-0.0122547,9.8295994-0.0183811c0.7761841-0.0014515,1.2215805-0.7145653,1.0848122-1.4240685    c-0.5559883-2.8843231-1.0176468-5.780098-1.3284492-8.7019787c-0.1384659-1.301754,0.2954445-4.4637737-0.7076721-5.4644947    c-0.9052048-0.9030457-2.5862217-0.4841051-3.7383041-0.4824104c-2.6586475,0.0039091-5.317297,0.0078192-7.9759445,0.0117292    C19.1941128,11.8076067,19.1915302,14.0576105,20.6417847,14.0554781L20.6417847,14.0554781z"/></g><g><path class="st0" d="M19.3912029,24.8838081c4.25,0,8.5,0,12.7500019,0c1.4477654,0,1.4501648-2.25,0-2.25    c-4.2500019,0-8.5000019,0-12.7500019,0C17.9434357,22.6338081,17.9410381,24.8838081,19.3912029,24.8838081    L19.3912029,24.8838081z"/></g><g><path class="st0" d="M24.6063461,12.7582188c-0.005106-0.8913269-0.0102119-1.7826538-0.0153179-2.6739807    c-0.0008106-0.1417055-0.0923195-0.925601-0.000452-1.0556545c0.1190929-0.1685972,0.4584255-0.1038837,0.6624813-0.1011419    c1.8571472,0.0249605,1.7026806,1.9054689,1.5971851,3.3086796c-0.1085835,1.444294,2.1419411,1.437335,2.25,0    c0.1023655-1.3615837,0.1209641-2.8214769-0.6700058-4.0047178c-0.7461472-1.1161895-1.8679619-1.5408206-3.1771793-1.5539613    c-1.1419048-0.0114617-2.362093,0.2763562-2.7688293,1.4881177c-0.2049866,0.6107025-0.1468258,1.2857151-0.1431999,1.9186783    c0.005106,0.8913269,0.0102119,1.7826538,0.0153179,2.6739807C22.3646374,14.2055817,24.6146545,14.2086954,24.6063461,12.7582188    L24.6063461,12.7582188z"/></g><g><path class="st0" d="M2.3081362,32.9848862c15.693449-0.2301979,31.3879128-0.3402138,47.083046-0.3300438    c1.4478073,0.0009384,1.4501266-2.2490597,0-2.25c-15.6951332-0.0101681-31.3895969,0.0998478-47.083046,0.3300438    C0.8615947,30.7561054,0.8573644,33.0061684,2.3081362,32.9848862L2.3081362,32.9848862z"/></g><g><path class="st0" d="M18.181982,49.5509224c4.35569-2.4215889,11.9113655-2.1349564,16.3848782-0.3073807    c1.3396111,0.5472717,1.9228096-1.6284599,0.5981407-2.1696281c-5.0542965-2.0648422-13.2341785-2.1813622-18.1186371,0.5342026    C15.7805967,48.3118286,16.9140186,50.2558594,18.181982,49.5509224L18.181982,49.5509224z"/></g><g><path class="st0" d="M30.5995369,38.7588081c0,2.5,0,5,0,7.5c0,1.4477654,2.25,1.4501648,2.25,0c0-2.5,0-5,0-7.5    C32.8495369,37.311039,30.5995369,37.3086433,30.5995369,38.7588081L30.5995369,38.7588081z"/></g><g><path class="st0" d="M20.0995369,38.8421402c0,2.6111107,0,5.2222214,0,7.8333321c0,1.4477692,2.25,1.4501686,2.25,0    c0-2.6111107,0-5.2222214,0-7.8333321C22.3495369,37.3943748,20.0995369,37.3919754,20.0995369,38.8421402L20.0995369,38.8421402z    "/></g></g></svg>