<?xml version="1.0" ?><svg id="Layer_1" style="enable-background:new 0 0 52 52;" version="1.1" viewBox="0 0 52 52" xml:space="preserve" xmlns="http://www.w3.org/2000/svg" xmlns:xlink="http://www.w3.org/1999/xlink"><style type="text/css">
	.st0{fill:#231F20;}
</style><g><g><path class="st0" d="M21.1751938,33.9638138c-3.9986591,0.0336494-12.1726675,1.4601097-15.2649937-1.3654175    c-2.5650856-2.3437767-3.228055-6.8335171-1.7293782-9.973402c1.8596134-3.8960857,6.3559694-3.8228283,10.0868635-3.6721115    c0.779109,0.0314732,1.2175779-0.7407913,1.0848141-1.4240704c-1.1959524-6.1550522,1.0215826-14.0042887,8.1797171-15.0175018    c3.5426273-0.5014486,8.2784176-0.0125935,9.3575687,4.0841289c0.3401337,1.2912269,0.0794373,2.9860849,0.3195496,4.3607635    c0.1866074,1.0683613,1.5419846,0.947444,2.0562172,0.2687387c2.102478-2.7749281,7.461998,2.2195797,9.2436676,3.3700781    c1.8594398,1.2007198,2.9434319,1.9714041,3.6133232,4.1774855c0.5330467,1.7554379,0.4397278,3.8573914,0.3540115,5.6697407    c-0.52071,11.0094719-11.3409996,9.3400497-19.3006592,9.6379929c-1.443409,0.0540314-1.4504757,2.3042946,0,2.25    c5.7486839-0.2151833,12.4860268,0.9762421,17.465065-2.6994514c4.2220001-3.1168194,4.466507-8.5041256,3.9979744-13.3479843    c-0.6127739-6.3350029-4.5376434-7.3366604-9.4171333-10.8472137c-2.9270363-2.1058578-5.5275574-2.4762621-7.8990593,0.6537352    c0.6854057,0.0895796,1.3708115,0.1791592,2.056221,0.2687387c-0.6167908-3.5312347,0.2960739-6.5884161-3.1873512-8.6861572    c-2.9946995-1.8034271-8.1589966-2.0302343-11.4003677-1.0874221c-6.8876877,2.0034099-8.7878017,11.4724503-7.6083727,17.542469    c0.3616047-0.4746895,0.7232094-0.949379,1.0848141-1.4240685c-3.7451267-0.1512928-8.001255-0.773757-10.7313614,2.3691196    c-2.1225657,2.4434814-2.6121304,6.3034821-2.2252955,9.4114761c1.2480862,10.0276451,12.6283665,7.7912292,19.8641663,7.7303352    C22.6223335,36.2016335,22.6257839,33.9516068,21.1751938,33.9638138L21.1751938,33.9638138z"/></g><g><path class="st0" d="M19.863966,46.2136536c1.7531242,1.3345985,2.8667946,3.40271,4.0834427,5.2037888    c0.4730396,0.7002716,1.4797726,0.7496605,1.9428101,0c1.3514042-2.1879349,3.5288258-4.0554199,5.4046307-5.7871132    c1.0662537-0.9843369-0.5278988-2.5724068-1.5909901-1.590992c-2.0310135,1.8749809-4.2943039,3.8752594-5.7564507,6.2424889    c0.647604,0,1.2952061,0,1.9428101,0c-1.4636593-2.1667442-2.7846508-4.4077606-4.8906345-6.0109825    C19.8477154,43.3939629,18.7256184,45.347065,19.863966,46.2136536L19.863966,46.2136536z"/></g><g><path class="st0" d="M24.1036701,22.5994587c0.2138805,8.9439583,0.2700672,17.8873501,0.1685753,26.8333111    c-0.0164299,1.448288,2.2335587,1.4492683,2.25,0c0.1014919-8.9459381,0.0453072-17.8893299-0.1685753-26.8333111    C26.3191051,21.1540089,24.0689774,21.1486244,24.1036701,22.5994587L24.1036701,22.5994587z"/></g></g></svg>