<?xml version="1.0" ?><svg id="Layer_1" style="enable-background:new 0 0 52 52;" version="1.1" viewBox="0 0 52 52" xml:space="preserve" xmlns="http://www.w3.org/2000/svg" xmlns:xlink="http://www.w3.org/1999/xlink"><style type="text/css">
	.st0{fill:#231F20;}
</style><g><g><path class="st0" d="M25.0666504,22.1605453c-2.7316437-1.6121674-6.6117039-1.5203228-8.6153793,1.1176414    c-1.7008238,2.2392426-2.3163557,6.7809525-0.9420261,9.3100548c1.8507652,3.4058571,5.4110737,4.484314,9.1119938,3.9734535    c3.791214-0.5233269,5.4589272-5.8690586,5.0784225-9.0974598c-0.1674423-1.4206791-2.4194336-1.4375744-2.25,0    c0.2711411,2.3005066-0.4843655,6.130331-3.1901455,6.8769436c-2.3593273,0.6510162-5.4643822-0.3898811-6.6078491-2.5812607    c-0.7914791-1.5168133-0.6538792-4.4262104-0.0287056-5.984045c1.0439034-2.6012459,3.9960041-3.0370579,6.3080711-1.6725178    C25.1808224,24.8409595,26.3141403,22.8967934,25.0666504,22.1605453L25.0666504,22.1605453z"/></g><g><path class="st0" d="M28.8007317,18.4941444c-5.9582539-4.0272255-13.7018757-2.2799892-18.0241261,3.1135731    c-4.3233538,5.3949394-2.5757942,13.5548458,2.6266308,17.5741215c2.8236713,2.1815071,5.1810455,3.0428009,8.6960564,3.1086311    c3.9626274,0.0742149,5.7858906-1.1345825,9.0085945-3.4823189c2.331234-1.6983032,3.860466-3.4996605,4.1985207-6.4417686    c0.302124-2.6293831,0.5299225-7.8712502-1.1343994-10.1637516c-0.8425331-1.1605358-2.7954788-0.0388813-1.9428101,1.1356182    c1.1210213,1.544136,0.9029694,5.6008396,0.8567429,7.5102024c-0.0940132,3.8828907-2.1586094,5.3205395-5.1235924,7.3476849    c-3.2620792,2.2302666-7.1776619,2.6108551-10.8963013,0.8055191c-5.0705862-2.4616852-8.3427076-9.3557224-5.4701052-14.7652397    c3.0008564-5.6510391,10.8953466-7.2964859,16.0691719-3.7994633    C28.8679848,21.2499828,29.9951954,19.3014908,28.8007317,18.4941444L28.8007317,18.4941444z"/></g><g><path class="st0" d="M41.1368103,24.796587c0.7194176,6.3880062,1.6010056,11.909235-3.1142197,17.0984173    c-3.3825531,3.7225533-8.242403,6.8452415-13.2936821,7.0784569C14.2903795,49.4554024,7.0569429,43.2107697,4.0770087,33.445919    C0.9966143,23.3518753,9.635211,10.7412586,20.0308628,9.9065542c4.6871204-0.3763456,10.9926262-0.69977,14.4859219,2.768774    c3.8584976,3.8311586,4.7960587,9.1355639,6.7808533,13.9418097c0.5449562,1.3196316,2.7227631,0.7413025,2.1696243-0.5981388    c-2.3526688-5.6970768-3.7296906-12.6296892-8.9385643-16.6628113C30.692934,6.3862414,22.8008728,7.2748446,18.3273468,7.8258123    C11.9042797,8.616889,8.4909401,13.2059441,4.4607954,17.9465694c-3.2831903,3.86199-3.8032856,9.4426212-2.9612656,14.3465595    c0.9151578,5.3298988,3.5803409,10.5105782,7.7935038,13.8968353c5.2191114,4.1947746,9.9712543,5.5649109,16.7288704,4.995945    c5.3446865-0.4500008,9.8191452-4.1201019,13.5916786-7.699913c5.5389366-5.2559814,4.5840988-11.4893646,3.7732277-18.6894093    C43.2265892,23.373888,40.9747543,23.3576202,41.1368103,24.796587L41.1368103,24.796587z"/></g><g><path class="st0" d="M42.2505569,1.7776734c-0.0313148,1.3371657-0.0404091,2.674273-0.0161743,4.0116568    c0.0159264,0.878911-0.1707115,2.1518984,0.5668602,2.8179364c0.7386398,0.6670046,2.15625,0.3856468,3.0591087,0.3855352    c1.3033218-0.0001621,2.6066437-0.0003242,3.9099693-0.0004854c1.4477577-0.0001802,1.4501724-2.2501802,0-2.2500005    c-0.9774933,0.0001216-1.9549866,0.0002427-2.932476,0.0003643c-0.9294472,0.0001154-2.0258026,0.1513343-2.9420357-0.0157223    c0.2241096,0.1723351,0.4482231,0.3446698,0.6723328,0.517005c-0.2507973-0.3551326-0.0917702-1.8235307-0.0963783-2.4575524    c-0.0072899-1.0031235,0.0053062-2.0059104,0.0287933-3.0087371C44.534481,0.3292393,42.2844658,0.3297682,42.2505569,1.7776734    L42.2505569,1.7776734z"/></g><g><path class="st0" d="M38.8972931,5.114584c0.0296021,1.3313107,0.061348,2.6625686,0.0963135,3.9937496    c0.0262108,0.9978666-0.1556091,2.3049898,0.6050644,3.0862837c0.7086143,0.7278233,1.8104553,0.5455217,2.7388725,0.5461874    c1.4777756,0.0010605,2.955555,0.002121,4.4333344,0.0031815c1.4478111,0.0010386,1.450119-2.2489595,0-2.25    c-1.0431404-0.0007486-2.086277-0.0014973-3.1294136-0.0022459c-0.4346428-0.0003119-0.8692818-0.0006237-1.3039207-0.0009356    c-0.2607841-0.0001869-0.5215721-0.0003738-0.7823563-0.0005617c-0.551487-0.0733347-0.6835899-0.0541248-0.3963013,0.0576305    c0.2077255,0.3122263,0.1015625-0.8060513,0.0979652-0.9403515c-0.0133667-0.4991846-0.0263443-0.9983807-0.0389328-1.4975863    c-0.0251732-0.9984126-0.0484238-1.9968691-0.0706253-2.9953518C41.1151505,3.6689181,38.865036,3.6637437,38.8972931,5.114584    L38.8972931,5.114584z"/></g><g><path class="st0" d="M42.8012314,7.6398621c-7.0960693,6.9374275-14.1320896,13.9434967-21.6071072,20.4770126    c-1.0922852,0.95471,0.5044689,2.5406609,1.5909901,1.5909901c7.4750118-6.5335083,14.5110397-13.539587,21.6071053-20.4770126    C45.4293671,8.2168932,43.837822,6.6264439,42.8012314,7.6398621L42.8012314,7.6398621z"/></g></g></svg>