<?xml version="1.0" ?><svg id="Layer_1" style="enable-background:new 0 0 52 52;" version="1.1" viewBox="0 0 52 52" xml:space="preserve" xmlns="http://www.w3.org/2000/svg" xmlns:xlink="http://www.w3.org/1999/xlink"><style type="text/css">
	.st0{fill:#231F20;}
</style><g><g><path class="st0" d="M41.0472336,16.0819225c0.2606392,1.5085773,0.5190964,3.5362873-1.4923019,3.8149319    c-1.3257828,0.1836643-2.354763-0.4548855-3.308136-1.3321838c-2.6539421-2.4421768,4.2088432-5.4170408,4.6982765-2.7689075    c0.2628021,1.4219227,2.4316673,0.8196449,2.1696281-0.5981388c-1.0305138-5.5757017-12.0519562-1.5441113-9.3483009,3.9239826    c0.5203972,1.0524921,2.1129646,2.1871281,3.1721153,2.6792469c1.0486069,0.4872208,2.486824,0.4797878,3.5886841,0.1961479    c3.0521698-0.7856884,3.1322403-3.9515896,2.6896629-6.5132189    C42.9708252,14.0597153,40.8021584,14.6634197,41.0472336,16.0819225L41.0472336,16.0819225z"/></g><g><path class="st0" d="M47.3347778,13.4025059c3.1905518,3.4669189,1.1597214,10.2971973-1.7337341,12.8153191    c-1.860466,1.619133-3.6751709,2.3984089-5.226223,4.4171715c-4.3322716,5.6386356-9.57127,10.548708-14.5293961,15.6488323    c0.5889664,0.0758934,1.1779327,0.1517906,1.7668991,0.227684c-2.9012718-4.5162392-7.5245991-7.243248-10.5777245-11.6122589    c-1.2518997-1.7914619-2.3872995-3.1957569-3.7596378-4.7982864c-1.3170233-1.5379391-1.2239466,1.0521889-1.4663944-2.3157921    c-0.1856146-2.5784817,1.4021463-3.0759239,3.2572861-4.7179756c4.8732796-4.3135204,9.0667706-9.3067894,13.8685379-13.6560211    c3.4191437-3.0969138,10.4919357-5.059587,14.517128-1.5515494c2.0554428,1.7913623,3.1181908,4.838675,4.8656769,6.9518619    c0.9235306,1.1168022,2.5074997-0.4826794,1.5909882-1.5909901c-2.1144943-2.557003-3.2419395-6.1721568-6.1874619-7.98206    c-2.5694237-1.5788043-6.4008446-1.6507452-9.2646332-1.1939597c-7.3787441,1.1769381-12.4939041,9.6305485-17.6108856,14.3837318    c-2.8653803,2.6616611-11.9502096,7.6282177-7.7300014,12.2327003c1.4389629,1.5699863,3.75319,2.3506756,5.1854944,4.1451206    c0.9734764,1.2196083,1.7186537,2.5824585,2.7561331,3.7663918c2.8156528,3.2131157,6.2583237,5.4098091,8.6126842,9.074707    c0.3842373,0.5981178,1.2436142,0.7659569,1.766901,0.227684c3.7611198-3.8688354,7.5846004-7.6861992,11.284399-11.6135063    c1.2980194-1.3778419,2.3362083-2.9065704,3.563282-4.330574c1.7688103-2.0526772,4.2394447-3.0107841,6.0678711-4.9549389    c3.4300957-3.6471939,3.9904175-11.4517183,0.5737991-15.1642818    C47.9430923,10.743722,46.3551483,12.3380222,47.3347778,13.4025059L47.3347778,13.4025059z"/></g><g><path class="st0" d="M22.3221455,43.094471c-1.1870899,1.0398026-2.0012703,2.025898-2.8206787,3.351696    c0.5889664-0.0758934,1.1779327-0.1517906,1.7668991-0.227684c-3.4486217-3.3738708-6.5451574-6.9626694-10.171279-10.2051697    c-1.3238735-1.183815-6.5806489-4.6036739-7.0001678-6.2595921c-0.5511758-2.1755924,2.8457222-4.177145,4.109561-5.3699188    c3.5310106-3.3324699,6.4396725-7.2317162,9.6538258-10.8549471c1.4754944-1.6632862,3.1845284-4.0227518,5.1221466-5.1175995    c3.1120472-1.75846,6.7193546-1.4734931,10.1498833-1.5850472c1.4442101-0.0469632,1.4506683-2.297173,0-2.25    c-2.9473286,0.0958414-6.6671925-0.4165292-9.4568214,0.7350712c-2.9520397,1.2186456-5.3518028,4.310719-7.4061985,6.6265855    c-2.6793852,3.0203991-5.126461,6.2493334-7.9340954,9.1558657c-2.4870057,2.5746117-5.3784022,4.6525917-7.4052343,7.6357574    c-0.2651717,0.3902893-0.1756084,1.048975,0.1759094,1.3633041c6.432395,5.7518883,12.4381447,11.7162895,18.5714798,17.7166786    c0.5273399,0.5159111,1.3842354,0.3914642,1.7668991-0.227684c0.6092167-1.1598244,1.432169-2.125267,2.4688625-2.896328    C25.0044327,43.7295647,23.4077835,42.1435318,22.3221455,43.094471L22.3221455,43.094471z"/></g></g></svg>