<?xml version="1.0" ?><svg id="Layer_1" style="enable-background:new 0 0 52 52;" version="1.1" viewBox="0 0 52 52" xml:space="preserve" xmlns="http://www.w3.org/2000/svg" xmlns:xlink="http://www.w3.org/1999/xlink"><style type="text/css">
	.st0{fill:#231F20;}
</style><g><g><path class="st0" d="M20.2418098,26.3869286c1.033493-1.2813492,2.0669861-2.5626984,3.1004772-3.8440475    c-0.5303288,0-1.0606594,0-1.5909901,0c1.10149,1.1544075,2.422287,4.5599213,4.4760857,4.0149803    c0.7873249-0.2089043,1.5430164-0.9975548,2.0892448-1.5451527c0.938118-0.9404716,0.5578346-1.2453823,1.726511-0.6187687    c0.6777325,0.3633823,1.303791,1.1657696,1.8511772,1.6840992c1.0511379,0.9953442,2.6450214-0.592907,1.5909901-1.5909901    c-1.1620445-1.1003647-3.2466831-3.7608738-5.1576405-2.7772121c-0.6996822,0.3601608-1.4153156,2.2149773-2.1684589,2.2378139    c-0.797718,0.024189-2.2787857-2.4317741-2.8169193-2.99576c-0.3873177-0.4059277-1.2145653-0.4666996-1.5909901,0    c-1.0334911,1.2813492-2.0669842,2.5626984-3.1004772,3.8440475    C17.7498989,25.9129238,19.3322525,27.5146217,20.2418098,26.3869286L20.2418098,26.3869286z"/></g><g><path class="st0" d="M27.397892,49.1147118c-2.3727188-0.0186119-1.5178833,0.1665382-2.8919315-1.1763344    c-1.9575768-1.9131584-1.9321709-4.0992203-2.4914207-6.5657845c-0.6600952-2.9113388-2.2872753-4.4553375-4.4517708-6.519207    c-5.1238937-4.8856907-8.7760782-11.7596893-3.6282883-18.3844318c1.2553272-1.6154928,3.1121521-2.9835854,4.5943661-4.3959103    c0.8851051-0.8433723,1.7573662-1.828043,2.760849-2.5286474c2.3198032-1.6196213,6.1682034-1.663414,8.6497669-0.4106026    c5.0446606,2.5467844,10.5127277,7.9823885,10.963953,13.5609579c0.2772255,3.4274273-0.7787514,6.5006504-3.2634697,8.7520866    c-1.4358101,1.3010025-2.733017,2.7569656-3.9647942,4.2518539c-2.1693687,2.6327515-2.9123478,4.6862831-3.2785759,7.9982681    c-0.2653427,2.3996353-0.1173286,1.5484505-1.6637611,3.1432915c-0.0959625,0.0989647-1.6988163,2.3275375-1.6339912,2.3146439    c-1.4189377,0.2822227-0.8183117,2.4513588,0.5981388,2.1696281c1.9763775-0.3930969,1.8996506-2.809063,4.1500702-3.5750847    c0.4727688-0.1609268,0.8257313-0.5690002,0.8259296-1.0848122c0.0018158-4.6919479,0.8440742-7.4644394,4.01791-11.0308075    c1.6472549-1.8509865,4.2479744-3.3318787,5.4866219-5.4468575c1.6827621-2.8733082,1.7997475-9.5958138,0.4303436-12.5593338    c-1.8727303-4.0527687-7.8278389-8.0863066-11.5327568-10.4366436c-3.9536171-2.5081081-7.6050472-2.2901592-11.3039608,0.6223159    c-3.4245434,2.6964417-8.8716593,6.9161797-10.0701809,11.2957325c-1.0376444,3.791687-0.6783152,9.2003517,1.553607,12.5175705    c1.816659,2.7000256,4.8252249,4.3597469,6.8460379,6.8643131c2.6019077,3.2247696,0.7852859,4.7872009,2.0440903,7.8304558    c1.6047649,3.8796425,3.4313889,5.0133591,7.2532177,5.0433388C28.8460598,51.3760719,28.847477,49.1260834,27.397892,49.1147118z    "/></g><g><path class="st0" d="M21.3744221,43.6588287c3.1944771-0.0806885,6.3885803-0.0974922,9.5837231-0.0504303    c1.4483719,0.0213356,1.4489288-2.2286568,0-2.25c-3.1951504-0.0470657-6.3892517-0.0302582-9.5837231,0.0504303    C19.9291515,41.4453316,19.9236012,43.6954727,21.3744221,43.6588287L21.3744221,43.6588287z"/></g><g><path class="st0" d="M25.3463154,25.0553341c-0.0127201,5.5555897-0.0254402,11.1111813-0.0381603,16.666769    c-0.003315,1.4479027,2.2466793,1.450016,2.25,0c0.0127201-5.5555878,0.0254402-11.1111794,0.0381603-16.666769    C27.5996323,23.6074314,25.3496361,23.60532,25.3463154,25.0553341L25.3463154,25.0553341z"/></g><g><path class="st0" d="M25,1.7219714c0,1.111111,0,2.2222223,0,3.3333335c0,1.4477673,2.25,1.4501653,2.25,0    c0-1.1111114,0-2.2222226,0-3.3333335C27.25,0.2742038,25,0.2718058,25,1.7219714L25,1.7219714z"/></g><g><path class="st0" d="M10.4179821,8.5123549c0.7686377,0.7906837,1.3458118,1.6972628,1.7761154,2.7117062    c0.2373161,0.559474,1.0625439,0.6824036,1.5392141,0.4035959c0.5791178-0.3387308,0.6418495-0.9775286,0.403595-1.5392141    c-0.5021725-1.1838732-1.2321672-2.2456198-2.1279345-3.167078C10.9978704,5.8812637,9.4076624,7.4730592,10.4179821,8.5123549    L10.4179821,8.5123549z"/></g><g><path class="st0" d="M4.625,24.5969715c0.9444447,0,1.8888888,0,2.8333335,0c1.4477677,0,1.4501653-2.25,0-2.25    c-0.9444447,0-1.8888888,0-2.8333335,0C3.1772323,22.3469715,3.1748345,24.5969715,4.625,24.5969715L4.625,24.5969715z"/></g><g><path class="st0" d="M40.0165024,7.6786637c-0.2677612,0.5676465-0.5408974,1.2633462-1.0926743,1.6147304    c-1.2178841,0.7755795-0.0905533,2.7236662,1.1356201,1.9428091c0.9145088-0.5823841,1.447525-1.4629736,1.8998642-2.4219217    c0.2590561-0.5491886,0.1530495-1.2136321-0.403595-1.5392132C41.0667648,6.9890809,40.2768669,7.1267033,40.0165024,7.6786637    L40.0165024,7.6786637z"/></g><g><path class="st0" d="M44.7916679,23.8469715c0.8611107,0,1.7222214,0,2.5833321,0c1.4477692,0,1.4501648-2.25,0-2.25    c-0.8611107,0-1.7222214,0-2.5833321,0C43.3438988,21.5969715,43.3414993,23.8469715,44.7916679,23.8469715L44.7916679,23.8469715    z"/></g></g></svg>