<?xml version="1.0" ?><svg id="Layer_1" style="enable-background:new 0 0 52 52;" version="1.1" viewBox="0 0 52 52" xml:space="preserve" xmlns="http://www.w3.org/2000/svg" xmlns:xlink="http://www.w3.org/1999/xlink"><style type="text/css">
	.st0{fill:#231F20;}
</style><g><g><path class="st0" d="M33.7231331,23.1801453c0.6758957,3.3188095,1.5698242,6.5287571,2.7071686,9.7201538    c0.1685486,0.4729538,0.5634117,0.824028,1.0848122,0.8259315c4.2018127,0.0153351,8.4036255,0.030674,12.605442,0.0460091    c-0.2651672-0.6401672-0.5303307-1.2803307-0.7954979-1.920496c-2.2594032,2.2026196-4.8368225,3.309721-7.4852295,4.9015102    c-0.7962189,0.4785576-1.877224,0.8608246-2.2277946,1.8183899c-0.379364,1.0362053,0.6759338,2.6837959,0.9862175,3.6135101    c1.0416298,3.1211014,1.752285,6.2878952,2.286087,9.5323639c0.62677-0.3648529,1.25354-0.7297096,1.8803101-1.0945625    c-2.1621552-1.7246628-4.3243103-3.4493217-6.4864616-5.1739807c-0.7444992-0.5938568-1.9608765-2.1725159-3.1026154-2.1879387    c-1.0521812-0.0142136-1.8482323,0.8491936-2.6641159,1.4163208c-2.5769863,1.7912788-5.0450077,3.6948395-7.7537613,5.2901993    c0.5508747,0.4234886,1.1017494,0.846981,1.6526241,1.2704735c0.5566711-3.0258026,0.608984-8.2336273,2.6274719-10.6920853    c0.4196129-0.5110779,0.4832325-1.4264107-0.2276859-1.7668991c-2.6390648-1.263958-5.7012272-3.0880814-7.5060616-5.4670868    c-0.323801,0.56427-0.6476021,1.12854-0.9714031,1.6928101c2.9932652,0.0328445,8.4953556,1.0644035,11.1278324-0.707119    c2.8058472-1.888195,3.0253372-8.2323818,4.3765793-11.0426369c0.6245728-1.2989559-1.3148918-2.441534-1.9428101-1.1356163    c-1.1221695,2.3338356-1.4485893,5.1118488-2.5546265,7.350256c-2.0412102,4.1310062-7.0477753,3.3285618-11.0069752,3.2851162    c-0.7785702-0.0085449-1.5019588,0.9934692-0.971405,1.6928062c2.0676327,2.7254105,5.2606583,4.8122635,8.3132515,6.2742767    c-0.0758953-0.5889664-0.1517906-1.1779327-0.2276859-1.7668991c-2.5163002,3.0647774-2.5116577,7.9102211-3.20611,11.6849365    c-0.1706543,0.927597,0.7524281,1.8006554,1.6526222,1.2704735c2.4213142-1.4260635,6.1665287-5.3724899,8.9134617-5.3677406    c2.7957077,0.0048332,6.1857224,3.9315033,8.3668823,5.6713219c0.8989601,0.7170639,2.0688591,0.051445,1.8803101-1.0945625    c-0.4538269-2.7583771-3.566452-10.5799103-2.6328239-12.2380409c0.408535-0.725563,3.6479034-1.8399086,4.4307976-2.3182907    c1.5287476-0.9341354,2.7912369-1.8794327,4.0641098-3.1203156c0.7030563-0.6853867,0.1695137-1.9169731-0.7954941-1.9204941    c-1.8007774-0.0065727-3.6015549-0.0131454-5.4023323-0.0197182c-1.1206131-0.0040913-4.382637,0.4198513-5.4023323-0.0197182    c-2.5363007-1.0933475-2.918457-6.4227448-3.42313-8.9007969C35.6040115,21.1641922,33.4347801,21.7642651,33.7231331,23.1801453    L33.7231331,23.1801453z"/></g><g><path class="st0" d="M25.9064102,39.9964409c-8.4312458,0.4495659-15.3925133-1.3458366-20.0907269-8.9265766    c-2.0190747-3.2578506-2.4445183-7.0877228-2.6819847-10.8334789c-0.311347-4.9111423,0.6638658-7.7706089,4.1843042-11.125576    c3.0631332-2.9191566,5.8200455-6.233695,10.2660131-6.6325579c3.3835888-0.3035536,7.8925247-0.9328765,11.1567211,0.1537657    c7.5693855,2.5198286,11.844841,11.7732658,11.1337852,19.1329594c-0.1391602,1.4403496,2.1117668,1.4307613,2.25,0    c0.791996-8.1974516-3.7310715-17.2085514-11.4686966-20.7580376c-4.121336-1.8905838-10.2146854-1.3510586-14.5748596-0.6577772    c-4.5179157,0.7183626-7.1603556,4.127059-10.3539534,7.1706581c-2.9338465,2.7960482-4.7186365,5.3434582-4.9186211,9.523592    c-0.2139508,4.4720535,0.2790659,9.8850498,2.3492181,13.9321632c4.7411947,9.268959,13.0113783,11.790081,22.7488003,11.2708664    C27.346756,42.1696396,27.355793,39.9191551,25.9064102,39.9964409L25.9064102,39.9964409z"/></g><g><path class="st0" d="M33.750679,22.1609821c-10.3055687,0.0059872-20.6111374,0.0119762-30.9167061,0.0179653    c-1.4477309,0.0008411-1.4502015,2.2508411,0,2.25c10.3055687-0.0059891,20.6111374-0.0119781,30.9167061-0.0179653    C35.19841,24.410141,35.2008781,22.1601391,33.750679,22.1609821L33.750679,22.1609821z"/></g><g><path class="st0" d="M3.8340147,14.0837393c11.8888884,0,23.7777767,0,35.6666679,0c1.4477654,0,1.4501648-2.25,0-2.25    c-11.8888912,0-23.7777786,0-35.6666679,0C2.3862469,11.8337393,2.3838491,14.0837393,3.8340147,14.0837393L3.8340147,14.0837393z    "/></g><g><path class="st0" d="M6.583952,34.3470879c7.6389074-0.0068359,15.2778149-0.0136681,22.9167233-0.0205002    c1.44771-0.001297,1.4502201-2.251297,0-2.25c-7.6389084,0.0068321-15.2778158,0.0136642-22.9167233,0.0205002    C5.1362414,32.098381,5.1337314,34.3483849,6.583952,34.3470879L6.583952,34.3470879z"/></g><g><path class="st0" d="M18.9574146,40.1656723c-5.7971811-8.1406212-5.8444128-21.5681858-3.6520586-30.9100647    c0.7355967-3.1344643,1.1697474-6.7128038,5.1736689-7.1800838c4.3411179-0.5066327,5.6439667,3.4092064,6.4341469,6.7525373    c1.0770626,4.5571632,1.6621971,9.28866,2.4808407,13.899641c0.2526913,1.4232635,2.4214306,0.8201256,2.1696281-0.5981388    c-0.7276096-4.0982399-1.4068413-8.2084007-2.1833649-12.2977114c-0.513258-2.7029076-1.0344963-5.8941708-2.925806-8.0638638    c-2.3529129-2.6992404-7.7406502-3.1103306-10.3005257-0.6426414c-4.3790579,4.2213564-4.457715,14.9852533-4.2489204,20.4765453    c0.2464695,6.4821129,1.2616615,14.2959995,5.1095829,19.6993961    C17.8475494,42.4709396,19.7997227,41.3484726,18.9574146,40.1656723L18.9574146,40.1656723z"/></g></g></svg>