<?xml version="1.0" ?><svg id="Layer_1" style="enable-background:new 0 0 52 52;" version="1.1" viewBox="0 0 52 52" xml:space="preserve" xmlns="http://www.w3.org/2000/svg" xmlns:xlink="http://www.w3.org/1999/xlink"><style type="text/css">
	.st0{fill:#231F20;}
</style><g><g><path class="st0" d="M15.363225,13.984108c5.8748236-0.0591002,11.7496481-0.1181993,17.6244736-0.1772995    c1.4469948-0.0145569,1.4506493-2.2645931,0-2.25c-5.8748245,0.0591002-11.749649,0.1181993-17.6244736,0.1772995    C13.9162312,11.7486639,13.9125757,13.9987011,15.363225,13.984108L15.363225,13.984108z"/></g><g><path class="st0" d="M20.6126041,17.4529705c2.9169941-0.1168098,5.8339901-0.2336216,8.7509842-0.3504333    c1.442955-0.0577831,1.450346-2.3080788,0-2.25c-2.9169941,0.1168118-5.8339901,0.2336226-8.7509842,0.3504343    C19.1696491,15.2607546,19.1622562,17.5110512,20.6126041,17.4529705L20.6126041,17.4529705z"/></g><g><path class="st0" d="M20.2375774,21.8281441c2.9015217,0.0108814,7.3533268-1.113018,8.2460899,2.182806    c0.7020893,2.5919113,0.0204372,6.4503937,0.028923,9.1288319c0.0019703,0.6221199,0.5142555,1.1060333,1.125,1.125    c1.6240673,0.0504379,3.2481365,0.1008759,4.8722019,0.15131c-0.3237991-0.56427-0.6476021-1.1285362-0.9714012-1.6928062    c-0.5352173,1.1396179-6.3443871,10.04282-7.8013821,9.8878174c-0.8937588-0.0950813-3.698801-3.9659843-4.4769592-4.6386528    c-2.1832695-1.887291-4.5804806-3.1741905-5.9808149-5.8312683c-0.134532,0.5130692-0.2690639,1.0261421-0.4035959,1.5392113    c1.6147308-0.5853767,3.1248398-0.5105019,4.5303307,0.2246284c0.4634418,0.1829262,1.0298939-0.1244545,1.2704735-0.5170059    c2.178093-3.5539341,1.3984566-8.4296436,1.4688358-12.4177666c0.0255604-1.4484177-2.2244358-1.4486084-2.25,0    c-0.041399,2.3459301,0.7777405,9.5779209-1.5762444,10.1676025c-1.7755833,0.4447899-2.6947956-0.5901947-4.5790138,0.5997334    c-0.5303726,0.3349438-0.6956539,0.9850445-0.403595,1.5392132c1.5006447,2.8474159,3.9526348,4.2589264,6.332634,6.286644    c2.183651,1.8604317,3.6891747,4.5883408,5.9486752,6.237587c0.328598,0.2398491,0.8009739,0.1717339,1.1356182,0    c1.7957897-0.9215813,2.5764351-3.5371323,3.6727238-5.0676918c1.7100239-2.387413,3.7913876-4.1836128,5.0551205-6.8744354    c0.3621941-0.7712021-0.0679703-1.664753-0.971405-1.6928101c-1.6240654-0.0504341-3.2481346-0.100872-4.8722019-0.15131    c0.375,0.375,0.75,0.75,1.125,1.125c-0.0087643-2.7663116-0.0175285-5.5326252-0.0262947-8.2989388    c-0.0038738-1.2230682,0.5146828-3.3874454-0.3098869-4.476902c-1.5070152-1.9911308-8.1299038-0.7780762-10.1888313-0.7857971    C18.7895947,19.5727139,18.7876663,21.8227062,20.2375774,21.8281441L20.2375774,21.8281441z"/></g><g><path class="st0" d="M41.6784782,10.9757662c6.2238884,4.2088299,6.9574471,11.5989237,6.3707085,18.5489044    c-0.5782394,6.8493176-3.1749268,12.2042179-9.1014633,15.8880482c-4.8918571,3.0406952-10.9597015,4.3501396-16.67733,3.7392693    c-4.4330597-0.4736252-10.8472309-4.3782539-13.6940613-7.9003868C0.7480685,31.5663853,2.3328233,16.6008472,11.072197,7.8544278    c9.1222515-9.1296043,25.2946014-4.7534513,32.7718849,4.4376683c0.9141388,1.1236649,2.4975548-0.4766369,1.590992-1.5909901    C37.2085686,0.5890393,19.3717041-3.87958,9.4812069,6.2634377C-0.053829,16.0419197-2.4060915,33.8008499,7.8724756,43.9840813    c9.7489424,9.6585236,25.0949059,9.9699059,35.6237564,0.9349747c9.6331024-8.2662811,10.1421738-28.5662918-0.6821365-35.8861008    C41.611412,8.2196589,40.4842262,10.1681681,41.6784782,10.9757662L41.6784782,10.9757662z"/></g></g></svg>