<?xml version="1.0" ?><svg id="Layer_1" style="enable-background:new 0 0 52 52;" version="1.1" viewBox="0 0 52 52" xml:space="preserve" xmlns="http://www.w3.org/2000/svg" xmlns:xlink="http://www.w3.org/1999/xlink"><style type="text/css">
	.st0{fill:#231F20;}
</style><g><g><path class="st0" d="M40.6085854,5.7598019c2.2965546,3.2090464,3.9684753,7.3325186,1.6560593,11.0352135    c-2.7076759,4.3355961-8.5595703,5.5816917-12.3687744,2.0738411c-3.4011402-3.1320686-3.8030262-8.3464947-1.4244957-12.3046494    c2.0439758-3.4014163,12.2066422-6.9125404,13.5648994-0.6132112c0.3050423,1.4147353,2.4745522,0.8160491,2.1696281-0.5981393    c-1.2540283-5.8159375-10.2911644-6.096972-14.4296875-3.4017978c-4.7570992,3.0980158-7.0224304,11.9088669-3.5257206,16.7013969    c3.7147255,5.0913391,10.4107609,5.9746323,15.3447399,2.1380348c5.4676819-4.2515984,4.6328888-11.0287037,0.9561577-16.1663074    C41.7159843,3.456845,39.7636147,4.5791035,40.6085854,5.7598019L40.6085854,5.7598019z"/></g><g><path class="st0" d="M33.7954063,10.9443417c1.0230064-1.0538664,2.0460129-2.1077328,3.0690193-3.1615987    c-0.6401634-0.2651653-1.2803268-0.5303302-1.9204941-0.7954955c0.0582619,2.9685974,0.0718765,5.9370232,0.0408401,8.9060268    c-0.0151405,1.4482613,2.234848,1.4493523,2.25,0c0.0310364-2.9690065,0.0174217-5.9374332-0.0408401-8.9060268    c-0.0187531-0.9554853-1.2279854-1.5088959-1.9204941-0.795495c-1.0230064,1.0538664-2.0460129,2.1077328-3.0690193,3.1615982    C31.195322,10.3928871,32.7846031,11.9856386,33.7954063,10.9443417L33.7954063,10.9443417z"/></g><g><path class="st0" d="M43.4942589,18.6468258c3.4349823-0.0060291,4.9036827-0.191721,5.3749046,3.4578819    c0.3673172,2.8448524,0.0002747,5.9455051,0.0004082,8.8149738c0.0001221,2.6118431,0.0002403,5.22369,0.0003624,7.8355331    c0.0001106,2.377655,0.559391,5.5354767,0.0003624,7.8355331c-0.8385048,3.4499168-4.3457718,2.4349976-7.3936234,2.4208527    c-2.6025162-0.0120773-5.2050323-0.0241508-7.8075485-0.0362282c-5.5303478-0.0256615-11.0606956-0.0513268-16.5910435-0.0769882    c-2.6025162-0.0120773-5.2050333-0.0241508-7.8075495-0.0362282c-2.953094-0.0137024-5.7227955,0.6723709-6.5421901-2.6756516    c-0.5537088-2.2624397,0.0013146-5.3847847,0.0283628-7.7197723c0.0335324-2.8947716,0.091867-5.7892647,0.1769016-8.682991    c0.073282-2.493782-0.1400521-5.2574348,0.2877789-7.7144756c0.6278956-3.6060162,2.1027801-3.5724773,5.5236473-3.5961494    c5.624485-0.0389233,11.248971-0.0778465,16.873455-0.1167679c1.4472656-0.0100155,1.4505291-2.2600384,0-2.25    c-5.3120136,0.0367603-10.6240282,0.0735207-15.9360418,0.110281c-1.8522754,0.0128174-6.8436451-1.027195-8.1993217,0.8863811    c-0.8271738,1.1675797-0.4576678,3.7706966-0.5117396,4.9662552c-0.116263,2.5706444-0.2121935,5.1423149-0.2877787,7.7144756    c-0.1699956,5.7849426-0.2680728,11.5801125-0.2011766,17.3677444c0.0239601,2.0729523-0.1967252,3.2688065,1.8069618,3.9088745    c2.130909,0.6807137,5.7334113,0.0460052,7.9570842,0.056324c2.6025162,0.0120773,5.2050333,0.0241508,7.8075504,0.0362282    c5.8556614,0.0271721,11.7113228,0.0543442,17.5669842,0.0815163c4.4026299,0.0204315,10.3960571,1.1211166,14.572094-0.1645203    c0.3634186-0.1118813,0.6999664-0.3999596,0.7857475-0.7857437c1.1168365-5.0229378,0.1410942-11.2692261,0.1408577-16.4261589    c-0.0002365-5.120018,1.0441818-11.5061703-0.1637497-16.4754829c-0.0926857-0.3813-0.4164352-0.6790848-0.7857437-0.7857456    c-2.0380249-0.5885944-4.5798836-0.2036304-6.6759567-0.1999512    C42.0466042,16.3993664,42.0439873,18.6493721,43.4942589,18.6468258L43.4942589,18.6468258z"/></g><g><path class="st0" d="M2.2979553,19.7927399c4.4042158,3.3099651,8.3686266,7.2180767,12.7609234,10.4446926    c2.6758204,1.9656811,5.0980177,3.8827152,7.2773314,6.4229183c0.7830009,0.9126625,1.450779,2.2591782,2.7871265,2.3676796    c2.5649929,0.2082634,5.9753895-4.8739433,7.5842323-6.4696808c4.7902031-4.7511845,9.5676079-9.3903446,15.3249245-12.977375    c1.2263947-0.7640896,0.0980873-2.7114563-1.1356201-1.9428082c-3.9488525,2.4602871-7.5061989,5.361002-10.89291,8.5473366    c-2.3642197,2.2243404-8.6745434,10.8616772-11.8531742,9.0729771c-1.6718197-0.9407768-3.2532425-3.5295887-4.7591095-4.791851    c-1.6540298-1.3864555-3.5758486-2.334116-5.1639032-3.8081741c-3.4460993-3.1987267-7.0203562-5.9723091-10.7942028-8.8085251    C2.275753,16.9797764,1.1531206,18.9323444,2.2979553,19.7927399L2.2979553,19.7927399z"/></g><g><path class="st0" d="M30.7470055,33.1369743c6.2786407,4.5051727,14.1546249,8.7271004,17.8334465,15.800621    c0.6683578,1.2850952,2.6107521,0.148674,1.9428101-1.1356201c-3.865345-7.4321594-12.0566139-11.8835144-18.6406384-16.607811    C30.7042408,30.348629,29.5796413,32.2993431,30.7470055,33.1369743L30.7470055,33.1369743z"/></g><g><path class="st0" d="M17.9862099,31.9939327c-2.2631369,3.0595226-5.684371,5.1511059-8.4780378,7.6897488    c-2.9233742,2.6565094-5.6117697,5.5382538-8.126646,8.5819016c-0.9156259,1.1081429,0.667526,2.708622,1.5909903,1.590992    c2.7669935-3.348774,5.7498379-6.4947014,9.00811-9.3709106c2.7246351-2.4051476,5.7672453-4.4074326,7.9483938-7.3561134    C20.7907944,31.9645252,18.8388748,30.8412228,17.9862099,31.9939327L17.9862099,31.9939327z"/></g></g></svg>