<?xml version="1.0" ?><svg id="Layer_1" style="enable-background:new 0 0 52 52;" version="1.1" viewBox="0 0 52 52" xml:space="preserve" xmlns="http://www.w3.org/2000/svg" xmlns:xlink="http://www.w3.org/1999/xlink"><style type="text/css">
	.st0{fill:#231F20;}
</style><g><g><path class="st0" d="M2.2272406,5.9765c15.8557501,0.0051861,31.7114983,0.0103722,47.5672493,0.0155582    c-0.375-0.375-0.75-0.75-1.125-1.125c-0.0544243,10.6590881-0.1088486,21.3181763-0.1632729,31.9772644    c-0.013195,2.5840225-0.0263901,5.1680412-0.0395851,7.7520638c-0.0092125,1.8044624,0.4609299,2.4112778-1.076931,3.0869827    c-1.1004601,0.4835167-2.8362083,0.2285042-4.0147247,0.2570724c-5.5774651,0.1352081-11.1565399,0.2044449-16.7356548,0.2063293    c-5.2508926,0.00177-10.5019131-0.0555115-15.7515173-0.1718369c-2.2853165-0.0506439-6.3755436,0.7503853-7.4949179-1.8395119    c-0.794534-1.8383141-0.0288272-5.7974548-0.038938-7.8308868C3.2987869,27.210783,3.2436249,16.1170292,3.1884627,5.0232744    c-0.0071971-1.4474216-2.2572122-1.4504409-2.25,0C1.006591,18.7246761,0.9278062,32.4356918,1.142887,46.1354218    c0.0629663,4.010685,0.8364353,3.8460503,4.8238249,3.9624596c6.8889503,0.2011223,13.7807207,0.3004303,20.6726112,0.2988892    c6.5619984-0.0014687,13.1294231-0.0692139,19.6882915-0.2834473c3.257164-0.1063881,4.216507-0.3451881,4.3791237-3.5789223    c0.6950417-13.8211136,0.1420822-27.8263245,0.2127533-41.6673431c0.0031052-0.6083088-0.5179558-1.1248016-1.125-1.125    C33.9387398,3.736872,18.0829906,3.7316859,2.2272406,3.7264998C0.7794527,3.7260263,0.7770956,5.9760256,2.2272406,5.9765    L2.2272406,5.9765z"/></g><g><path class="st0" d="M2.6440041,14.8009157c15.3886786,0.1121674,30.7773552,0.2243338,46.1660347,0.3365011    c1.4481468,0.0105553,1.4496346-2.2394333,0-2.25C33.42136,12.7752495,18.0326824,12.6630831,2.6440041,12.5509157    C1.1958588,12.5403605,1.1943719,14.790349,2.6440041,14.8009157L2.6440041,14.8009157z"/></g><g><path class="st0" d="M41.4355698,2.9399388c0,1.3055556,0,2.6111109,0,3.9166667c0,1.4477673,2.25,1.4501657,2.25,0    c0-1.3055558,0-2.6111112,0-3.9166667C43.6855698,1.4921712,41.4355698,1.4897732,41.4355698,2.9399388L41.4355698,2.9399388z"/></g><g><path class="st0" d="M32.6855698,2.6899388c0,1.2222221,0,2.4444444,0,3.6666667c0,1.4477677,2.25,1.4501653,2.25,0    c0-1.2222223,0-2.4444447,0-3.6666667C34.9355698,1.2421712,32.6855698,1.2397732,32.6855698,2.6899388L32.6855698,2.6899388z"/></g><g><path class="st0" d="M24.862957,3.02299c0.0328999,1.2498648,0.0658016,2.4997303,0.0987034,3.7495954    c0.0380421,1.4451241,2.2881908,1.450808,2.25,0C27.1787586,5.5227203,27.1458569,4.2728548,27.112957,3.02299    C27.0749149,1.5778657,24.8247643,1.5721816,24.862957,3.02299L24.862957,3.02299z"/></g><g><path class="st0" d="M16.9355679,2.9399388c0,1.5555556,0,3.1111109,0,4.666667c0,1.4477673,2.25,1.4501657,2.25,0    c0-1.5555558,0-3.1111112,0-4.666667C19.1855679,1.4921712,16.9355679,1.4897732,16.9355679,2.9399388L16.9355679,2.9399388z"/></g><g><path class="st0" d="M8.6018496,3.0232844c0.0356693,1.110858,0.0713396,2.2217155,0.1070099,3.3325729    c0.0463762,1.4442759,2.2965822,1.4506803,2.25,0c-0.0356703-1.1108575-0.0713406-2.221715-0.1070099-3.3325729    C10.8054724,1.5790091,8.5552673,1.5726043,8.6018496,3.0232844L8.6018496,3.0232844z"/></g><g><path class="st0" d="M9.8939018,23.6482716c1.4477682,0,1.4501657-2.25,0-2.25    C8.4461346,21.3982716,8.4437361,23.6482716,9.8939018,23.6482716L9.8939018,23.6482716z"/></g><g><path class="st0" d="M16.3105679,23.9816055c1.4477692,0,1.4501667-2.25,0-2.25    C14.8628006,21.7316055,14.8604031,23.9816055,16.3105679,23.9816055L16.3105679,23.9816055z"/></g><g><path class="st0" d="M22.5605679,23.8982716c1.4477692,0,1.4501667-2.25,0-2.25    C21.1128006,21.6482716,21.1104031,23.8982716,22.5605679,23.8982716L22.5605679,23.8982716z"/></g><g><path class="st0" d="M28.8105679,23.8982716c1.4477692,0,1.4501667-2.25,0-2.25    C27.3628006,21.6482716,27.3604031,23.8982716,28.8105679,23.8982716L28.8105679,23.8982716z"/></g><g><path class="st0" d="M35.6439018,24.0649395c1.4477692,0,1.4501648-2.25,0-2.25    C34.1961327,21.8149395,34.193737,24.0649395,35.6439018,24.0649395L35.6439018,24.0649395z"/></g><g><path class="st0" d="M42.8939018,23.8982716c1.4477692,0,1.4501648-2.25,0-2.25    C41.4461327,21.6482716,41.443737,23.8982716,42.8939018,23.8982716L42.8939018,23.8982716z"/></g><g><path class="st0" d="M42.3105698,32.8982735c1.4477654,0,1.4501648-2.2500019,0-2.2500019    C40.8628006,30.6482716,40.8604012,32.8982735,42.3105698,32.8982735L42.3105698,32.8982735z"/></g><g><path class="st0" d="M35.8939018,32.6482735c1.4477692,0,1.4501648-2.2500019,0-2.2500019    C34.4461327,30.3982716,34.443737,32.6482735,35.8939018,32.6482735L35.8939018,32.6482735z"/></g><g><path class="st0" d="M29.1439018,32.3982735c1.4477673,0,1.4501667-2.2500019,0-2.2500019    C27.6961346,30.1482716,27.693737,32.3982735,29.1439018,32.3982735L29.1439018,32.3982735z"/></g><g><path class="st0" d="M22.8939018,32.5649376c1.4477673,0,1.4501667-2.2499981,0-2.2499981    C21.4461346,30.3149395,21.443737,32.5649376,22.8939018,32.5649376L22.8939018,32.5649376z"/></g><g><path class="st0" d="M16.2272358,32.4816055c1.4477673,0,1.4501648-2.25,0-2.25    C14.7794676,30.2316055,14.77707,32.4816055,16.2272358,32.4816055L16.2272358,32.4816055z"/></g><g><path class="st0" d="M9.5605688,32.6482735c1.4477673,0,1.4501657-2.2500019,0-2.2500019    C8.1128006,30.3982716,8.1104031,32.6482735,9.5605688,32.6482735L9.5605688,32.6482735z"/></g><g><path class="st0" d="M9.6439018,41.3149376c1.4477682,0,1.4501657-2.25,0-2.25    C8.1961346,39.0649376,8.1937361,41.3149376,9.6439018,41.3149376L9.6439018,41.3149376z"/></g><g><path class="st0" d="M16.1439018,41.3149376c1.4477673,0,1.4501667-2.25,0-2.25    C14.6961346,39.0649376,14.6937361,41.3149376,16.1439018,41.3149376L16.1439018,41.3149376z"/></g><g><path class="st0" d="M22.5605679,41.1482735c1.4477692,0,1.4501667-2.25,0-2.25    C21.1128006,38.8982735,21.1104031,41.1482735,22.5605679,41.1482735L22.5605679,41.1482735z"/></g></g></svg>