<?xml version="1.0" ?><!DOCTYPE svg  PUBLIC '-//W3C//DTD SVG 1.1//EN'  'http://www.w3.org/Graphics/SVG/1.1/DTD/svg11.dtd'><svg enable-background="new 67.551 -190.625 36.907 34.092" height="34.092px" id="Layer_1" version="1.1" viewBox="67.551 -190.625 36.907 34.092" width="36.907px" xml:space="preserve" xmlns="http://www.w3.org/2000/svg" xmlns:xlink="http://www.w3.org/1999/xlink"><g><g><path d="M87.559-183.867c-0.019,0-0.036,0-0.055-0.001c-0.542-0.028-1.084-0.045-1.627-0.063    c-1.227-0.037-2.496-0.076-3.752-0.254c-0.567-0.08-1.146-0.132-1.727-0.184c-2.321-0.208-4.951-0.445-7.172-2.524    c-0.388-0.361-0.424-0.963-0.084-1.37c1.404-1.686,3.168-2.43,5.524-2.357c2.604,0.085,5.206,0.157,7.811,0.228    c3.933,0.107,8,0.219,12.001,0.38c0.129,0.006,0.264,0.007,0.401,0.009c1.145,0.012,3.524,0.038,3.66,3.109    c0.014,0.289-0.1,0.569-0.31,0.77c-1.611,1.532-3.688,1.699-5.518,1.846c-0.323,0.026-0.646,0.052-0.964,0.085    c-1.847,0.194-3.717,0.231-5.525,0.268c-0.783,0.016-1.565,0.03-2.348,0.06c-0.062,0.001-0.119-0.001-0.176-0.009    C87.652-183.87,87.606-183.867,87.559-183.867z M75.405-187.708c1.543,1.022,3.314,1.182,5.172,1.349    c0.615,0.055,1.228,0.11,1.828,0.195c1.148,0.162,2.307,0.198,3.535,0.235c0.558,0.017,1.115,0.033,1.671,0.063    c0.03,0.001,0.059,0.004,0.088,0.008c0.034-0.005,0.069-0.008,0.105-0.009c0.792-0.028,1.585-0.044,2.378-0.06    c1.768-0.035,3.595-0.072,5.356-0.258c0.334-0.034,0.672-0.062,1.013-0.089c1.475-0.119,2.874-0.23,3.939-1.003    c-0.135-0.679-0.549-0.717-1.633-0.728c-0.159-0.002-0.314-0.003-0.462-0.011c-3.987-0.16-8.048-0.271-11.976-0.379    c-2.606-0.07-5.214-0.143-7.819-0.228C77.23-188.665,76.251-188.395,75.405-187.708z"/></g><g><path d="M72.183-171.263c-2.586,0-4.096-1.259-4.613-3.848c-0.047-0.232-0.009-0.476,0.106-0.684    c1.171-2.095,2.676-3.436,4.236-3.777c1.072-0.234,2.128,0.001,3.063,0.68c1.551,1.128,3.275,1.39,5.103,1.665    c0.608,0.092,1.217,0.185,1.823,0.308c0.541,0.108,0.892,0.637,0.782,1.178s-0.638,0.893-1.179,0.782    c-0.573-0.116-1.149-0.203-1.725-0.289c-0.734-0.111-1.479-0.224-2.222-0.394c-0.615,2.096-1.824,4.361-5.332,4.38    C72.211-171.263,72.196-171.263,72.183-171.263z M69.612-175.145c0.363,1.391,1.104,1.926,2.602,1.882    c1.878-0.01,2.798-0.794,3.434-2.976c-0.624-0.26-1.242-0.595-1.851-1.037c-0.471-0.343-0.947-0.454-1.457-0.343    C71.431-177.419,70.448-176.525,69.612-175.145z"/></g><g><path d="M95.805-167.956c-1.047,0-1.819-0.267-2.36-0.811c-0.52-0.521-0.77-1.257-0.743-2.184    c0.047-1.645,0.117-3.289,0.188-4.934l0.086-2.052c0.021-0.551,0.458-0.979,1.04-0.958c0.552,0.022,0.98,0.487,0.958,1.04    l-0.086,2.057c-0.07,1.635-0.141,3.27-0.188,4.904c-0.006,0.201,0.008,0.563,0.163,0.719c0.149,0.149,0.525,0.222,1.04,0.218    c1.44-0.032,2.879-0.024,4.319-0.019l1.838,0.007c0.552,0,1,0.447,1,1c0,0.552-0.448,1-1,1l-1.849-0.007    c-1.42-0.006-2.842-0.013-4.265,0.018C95.9-167.956,95.853-167.956,95.805-167.956z"/></g><g><path d="M98.158-157.37c-0.462,0-0.876-0.321-0.977-0.791l-0.579-2.716c-8.939,1.891-13.055-0.022-17.235-7.77    c-0.076-0.14-0.117-0.296-0.12-0.456c-0.114-5.901,2.983-9.72,8.72-10.75c2.379-0.427,4.879,0.202,7.295,0.813l0.892,0.223    c4.308,1.057,7.923,6.166,7.438,10.516c-0.399,3.616-3.05,5.615-5.075,6.813l0.621,2.911c0.114,0.54-0.229,1.071-0.77,1.187    C98.298-157.376,98.228-157.37,98.158-157.37z M81.244-169.38c3.823,6.98,7.285,8.343,15.899,6.334    c0.042-0.01,0.083-0.017,0.124-0.021c0.033-0.025,0.069-0.05,0.107-0.072c2.723-1.584,3.987-3.194,4.229-5.385    c0.37-3.327-2.622-7.542-5.928-8.352l-0.904-0.227c-2.21-0.557-4.494-1.133-6.452-0.781    C83.609-177.038,81.23-174.177,81.244-169.38z"/></g><g><path d="M80.586-156.533c-0.536,0-0.979-0.424-0.999-0.964c-0.02-0.552,0.412-1.016,0.964-1.035    c0.804-0.029,1.605-0.063,2.408-0.096c1.776-0.075,3.612-0.153,5.426-0.171c3.086-0.031,6.174-0.025,9.24-0.019l3.346,0.005    l1.706-2.134c0.345-0.433,0.976-0.501,1.405-0.156c0.433,0.346,0.501,0.975,0.156,1.405l-2.007,2.509    c-0.19,0.238-0.479,0.376-0.782,0.376l-3.829-0.005c-3.059-0.007-6.136-0.013-9.215,0.019c-1.783,0.019-3.604,0.095-5.362,0.169    c-0.807,0.033-1.613,0.067-2.421,0.097C80.61-156.533,80.598-156.533,80.586-156.533z"/></g><g><path d="M87.838-178.009c-0.528,0-0.971-0.415-0.998-0.95l-0.28-5.578c-0.028-0.551,0.396-1.021,0.946-1.05    c0.552-0.029,1.021,0.396,1.051,0.946l0.28,5.58c0.028,0.553-0.396,1.021-0.947,1.05C87.872-178.01,87.855-178.009,87.838-178.009    z"/></g><g><path d="M79.748-168.248c-0.199,0-0.399-0.06-0.576-0.184l-4.741-3.347c-0.451-0.318-0.56-0.941-0.24-1.394    c0.318-0.451,0.941-0.56,1.394-0.24l4.742,3.347c0.451,0.318,0.559,0.942,0.24,1.395    C80.371-168.395,80.062-168.248,79.748-168.248z"/></g><g><path d="M83.655-157.369c-0.131,0-0.265-0.026-0.393-0.081c-0.509-0.217-0.744-0.805-0.526-1.313l1.672-3.904    c0.218-0.508,0.807-0.742,1.313-0.526c0.508,0.217,0.743,0.805,0.525,1.313l-1.672,3.904    C84.412-157.597,84.043-157.369,83.655-157.369z"/></g><g><path d="M89.234-168.526c-0.033,0-0.066-0.001-0.101-0.005l-5.577-0.558c-0.551-0.056-0.951-0.545-0.896-1.095    s0.551-0.944,1.094-0.896l5.578,0.558c0.55,0.056,0.951,0.545,0.896,1.095C90.177-168.911,89.742-168.526,89.234-168.526z"/></g><g><path d="M86.443-166.016c-0.017,0-0.031,0-0.047-0.001c-0.552-0.024-0.979-0.492-0.953-1.045l0.281-6.136    c0.024-0.552,0.505-0.974,1.045-0.953c0.552,0.025,0.979,0.493,0.953,1.045l-0.281,6.136    C87.417-166.434,86.974-166.016,86.443-166.016z"/></g></g></svg>