<?xml version="1.0" ?><!DOCTYPE svg  PUBLIC '-//W3C//DTD SVG 1.1//EN'  'http://www.w3.org/Graphics/SVG/1.1/DTD/svg11.dtd'><svg height="512px" style="enable-background:new 0 0 512 512;" version="1.1" viewBox="0 0 512 512" width="512px" xml:space="preserve" xmlns="http://www.w3.org/2000/svg" xmlns:xlink="http://www.w3.org/1999/xlink"><g id="_x35_1"><g><g><g><g><g><g><path d="M418.346,266.334c-0.051,0.392,0.705,0.25,0.845,0.311         C418.996,265.954,418.147,266.362,418.346,266.334z" style="fill:#202020;"/><path d="M415.226,260.879l0.322-0.049c0,0-0.263-0.103-0.525-0.204         c-0.272-0.082-0.544-0.165-0.544-0.165s0.19,0.099,0.382,0.197C415.047,260.762,415.226,260.879,415.226,260.879z" style="fill:#202020;"/><path d="M411.902,256.763c-0.208,0.657,0.144,0.921,0.64,1.16c0.461,0.264,1.081,0.521,1.177,1.045         l-0.143,0.303c0,0,0.271-0.073,0.543-0.146c0.276-0.066,0.553-0.133,0.553-0.133         C413.849,258.055,412.278,257.542,411.902,256.763z" style="fill:#202020;"/><path d="M410.748,252.718c-0.035,0.555-0.855,0.049,0.644,0.509c-0.04-0.088-0.044-0.127-0.064-0.186         C411.2,252.982,411.027,252.896,410.748,252.718z" style="fill:#202020;"/><path d="M411.327,253.042C411.941,253.354,411.138,252.448,411.327,253.042L411.327,253.042z" style="fill:#202020;"/><path d="M408.321,252.094c-0.001-0.021,0.996-0.132,0.996-0.132c-0.072-0.348-0.844-0.689-0.485-0.793         C407.82,251.137,407.962,251.493,408.321,252.094z" style="fill:#202020;"/><path d="M407.281,252.8l0.47-0.076C407.711,252.585,407.604,252.511,407.281,252.8z" style="fill:#202020;"/><path d="M408.77,252.619c0,0-0.256,0.017-0.511,0.035c-0.254,0.036-0.508,0.071-0.508,0.071         c0.065,0.235-0.051,0.639,0.454-0.028C408.021,253.042,408.299,252.735,408.77,252.619z" style="fill:#202020;"/><path d="M409.204,252.99c0.357,0.427,0.801,0.837-0.117,0.928c0.737,0.213,1.152,0.14,1.206-0.096         C410.339,253.607,410.011,253.189,409.204,252.99z" style="fill:#202020;"/><path d="M410.862,257.661c0,0,0.154,0.592,0.144,0.599l0.601-0.043         C411.321,258.226,411.102,257.313,410.862,257.661z" style="fill:#202020;"/><path d="M403.221,250.767c-0.036,0.276,0.196,0.737,0.239,1.09l0.431-0.317         C403.669,251.351,403.25,251.177,403.221,250.767z" style="fill:#202020;"/><path d="M403.46,251.857l-0.645,0.475C403.392,252.388,403.496,252.163,403.46,251.857z" style="fill:#202020;"/><path d="M406.811,254.169c0,0,0.398-0.154,0.797-0.308c0.413-0.161,0.836-0.255,0.836-0.255         s-0.491,0.077-0.969,0.227c-0.478,0.135-0.921,0.286-0.921,0.286L406.811,254.169z" style="fill:#202020;"/><polygon points="400.76,250.732 401.125,250.093 400.475,251.059        " style="fill:#202020;"/><path d="M399.128,250.845c0.271-0.53-0.371-0.897-0.085-1.223c-0.443,0.095-0.822,0.55-1.163,0.959         C398.242,250.352,398.628,250.411,399.128,250.845z" style="fill:#202020;"/><path d="M397.308,251.177c0.181-0.127,0.368-0.354,0.572-0.596         C397.688,250.703,397.498,250.879,397.308,251.177z" style="fill:#202020;"/><path d="M401.719,252.195c-0.05-0.167-0.146-0.604-0.508-0.789l0.254,0.777         C401.542,252.188,401.63,252.191,401.719,252.195z" style="fill:#202020;"/><path d="M401.474,252.208l-0.009-0.025c-0.275-0.021-0.466-0.037-0.548-0.043         C400.987,252.149,401.155,252.17,401.474,252.208z" style="fill:#202020;"/><path d="M401.782,252.199c-0.023-0.001-0.041-0.002-0.063-0.003         C401.743,252.272,401.758,252.297,401.782,252.199z" style="fill:#202020;"/><path d="M404.71,253.163c-0.264,0.204-0.674,0.409-0.834,0.661c-0.134,0.258-0.189,0.527,0.261,0.877         C404.49,254.184,403.926,253.778,404.71,253.163z" style="fill:#202020;"/><path d="M402.097,253.171l0.685,0.178c-0.014-0.205-0.137-0.504,0.051-0.721L402.097,253.171z" style="fill:#202020;"/><polygon points="401.762,253.418 402.097,253.171 401.843,253.105        " style="fill:#202020;"/><path d="M398.479,251.905c-0.295,0.338-0.618,0.367-0.983,0.422c0.391,0.153,0.796,0.234,1.181,0.233         C398.73,252.315,398.899,251.877,398.479,251.905z" style="fill:#202020;"/><path d="M399.935,252.121c-0.021,0.014-0.047,0.032-0.065,0.044         C399.909,252.231,399.941,252.252,399.935,252.121z" style="fill:#202020;"/><path d="M393.899,252.321c0.021,0.048,0.038,0.091,0.058,0.141c0.005-0.045,0.009-0.081,0.014-0.134         L393.899,252.321z" style="fill:#202020;"/><path d="M398.742,252.705c0.294,0.15,0.47-0.04,0.638-0.28c-0.22,0.079-0.453,0.129-0.703,0.135         C398.652,252.67,398.647,252.743,398.742,252.705z" style="fill:#202020;"/><path d="M396.305,251.541c0.153,0.163,0.327,0.3,0.51,0.427         C396.664,251.722,396.358,251.338,396.305,251.541z" style="fill:#202020;"/><path d="M399.77,251.95c0.015-0.013,0.028-0.027,0.044-0.035         C399.718,251.749,399.729,251.83,399.77,251.95z" style="fill:#202020;"/><path d="M399.77,251.95c-0.151,0.112-0.271,0.304-0.39,0.474c0.179-0.061,0.345-0.145,0.489-0.259         C399.832,252.11,399.796,252.026,399.77,251.95z" style="fill:#202020;"/><path d="M392.811,257.313c0.052-0.721,0.825-1.388,1.493-0.614c0.657-0.54,0.228-2.911-0.347-4.237         c-0.02,0.314-0.02,0.605-0.696,1.031c0.237,0.394,1.501,0.921,0.93,1.573c-0.896,0.371-0.733-0.255-1.169-0.636         c0.37,0.898-1.14,1.307-0.945,2.628l0.786-0.465C392.877,256.798,392.592,257.126,392.811,257.313z" style="fill:#202020;"/><path d="M395.246,252.536l0.278-0.089c-0.317-0.125-0.545-0.414-0.963-0.978         c-0.463,0.352-0.559,0.62-0.591,0.859l1.37,0.101L395.246,252.536z" style="fill:#202020;"/><path d="M396.773,252.443c-0.217,0.784-0.886,1.118-0.476,1.967c0.816-0.055,0.572-0.655,1.06-0.996         c-1.317,0.194,0.379-0.437-0.573-0.881c0.259-0.133,0.491-0.174,0.712-0.207c-0.237-0.096-0.467-0.214-0.682-0.359         c0.012,0.02,0.021,0.033,0.03,0.048l0.006-0.002l-0.001,0.012c0.057,0.098,0.075,0.157,0.011,0.101         c-0.004,0.01-0.02,0.014-0.027,0.016c-0.009,0.109-0.033,0.204-0.06,0.296c-0.382-0.162-0.06-0.204,0.06-0.296         c0.005-0.039,0.015-0.075,0.017-0.117l-0.005-0.01l-1.32,0.43C395.804,252.556,396.153,252.533,396.773,252.443z" style="fill:#202020;"/><path d="M403.398,256.377c-0.041-0.069-0.039-0.125-0.042-0.182         C403.271,256.291,403.238,256.357,403.398,256.377z" style="fill:#202020;"/><path d="M402.855,255.904c0.096-0.109,0.176-0.423,0.487-0.342c0.271,0.236-0.001,0.376,0.014,0.634         c0.188-0.208,0.657-0.563,0.068-0.944l-0.094,0.106c-0.531-0.269-1.214-1.248-1.121-1.355         C402.365,254.708,402.502,255.211,402.855,255.904z" style="fill:#202020;"/><path d="M399.776,254.374l-1.099,0.384l0.56,0.679l-0.028-0.408         C399.834,255.189,399.699,254.687,399.776,254.374z" style="fill:#202020;"/><polygon points="393.774,251.931 393.92,251.102 393.285,252.272        " style="fill:#202020;"/><polygon points="392.346,252.03 392.398,251.309 392.021,251.744        " style="fill:#202020;"/><path d="M281.944,418.438l3.102-0.205C283.578,418.297,282.636,418.365,281.944,418.438z" style="fill:#202020;"/><path d="M259.497,418.389l-0.55,0.354C259.988,418.548,260.414,418.403,259.497,418.389z" style="fill:#202020;"/><path d="M92.004,296.724c-0.673,4.517-1.715,9.563-0.906,9.017l0.79-1.387         C91.746,301.197,91.834,298.779,92.004,296.724z" style="fill:#202020;"/><path d="M170.031,383.214c-0.079,0.431-0.16,0.878-0.241,1.322c0.271,1.096,0.527,2.127,0.755,3.049         C170.391,386.271,170.215,384.778,170.031,383.214z" style="fill:#202020;"/><path d="M166.764,380.027l0.509-5.954C167.095,375.413,166.925,377.328,166.764,380.027z" style="fill:#202020;"/><path d="M338.16,342.395c0,0,0.321,0.145,0.803,0.362c0.459,0.25,1.097,0.578,1.679,0.985         c0.595,0.396,1.163,0.838,1.563,1.203c0.418,0.35,0.668,0.612,0.668,0.612c-1.39-1.782-2.607-2.635-3.354-3.147         c-0.776-0.485-1.142-0.607-1.271-0.606C337.985,341.818,338.56,342.41,338.16,342.395z" style="fill:#202020;"/><path d="M257.097,252.321c-3.899-0.309-7-0.438-9.725-0.477         C252.068,252.297,255.855,252.978,257.097,252.321z" style="fill:#202020;"/><path d="M273.111,426.816c1.898-0.143,2.709-0.304,2.653-0.479         C273.812,426.472,272.706,426.622,273.111,426.816z" style="fill:#202020;"/><path d="M236.116,251.847c0.687,0.079,1.36,0.119,2.06,0.186c2.849-0.132,5.715-0.239,9.195-0.188         C243.904,251.506,239.934,251.299,236.116,251.847z" style="fill:#202020;"/><path d="M409.421,284.063c0.036-0.034,0.053-0.074,0.095-0.104         C409.408,283.947,409.403,283.994,409.421,284.063z" style="fill:#202020;"/><path d="M417.389,270.568c0.049,0.133,0.05,0.35,0.061,0.554         C417.504,271.022,417.498,270.855,417.389,270.568z" style="fill:#202020;"/><path d="M342.365,251.686C345.273,251.634,342.825,251.598,342.365,251.686L342.365,251.686z" style="fill:#202020;"/><path d="M356.508,254.808c-0.618,0.088-1.088,0.202-1.16,0.384         C355.587,255.002,355.992,254.881,356.508,254.808z" style="fill:#202020;"/><path d="M207.147,256.761c-0.085-0.001-0.154-0.001-0.252-0.002         C207.762,256.913,207.612,256.884,207.147,256.761z" style="fill:#202020;"/><path d="M346.741,252.044c-1.092-0.097-2.351-0.178-3.72-0.235         C343.623,251.872,344.753,251.948,346.741,252.044z" style="fill:#202020;"/><path d="M346.152,251.671c1.002,0.03,1.791,0.054,2.542,0.077         C349.062,251.616,348.737,251.533,346.152,251.671z" style="fill:#202020;"/><path d="M338.313,251.728c1.664-0.012,3.217,0.025,4.709,0.082c-0.571-0.053-0.811-0.098-0.656-0.124         C341.512,251.694,340.309,251.707,338.313,251.728z" style="fill:#202020;"/><path d="M411.534,359.067c0.023-0.192,0.05-0.413,0.074-0.623         C411.281,355.51,411.334,356.798,411.534,359.067z" style="fill:#202020;"/><path d="M100.204,372.417c-0.016-0.136-0.024-0.209-0.038-0.333c-0.009,0.137-0.02,0.308-0.027,0.431         L100.204,372.417z" style="fill:#202020;"/><path d="M100.792,382.862c-0.983-4.448-0.862-6.978-0.654-10.348l-2.277,3.455L100.792,382.862z" style="fill:#202020;"/><path d="M316.367,403.677l-0.709,7.336c-1.168-8.854-0.766-15.261-1.764-8.372         c0.618,0.259,0.943,2.17,1.121,4.908c0.09,1.368,0.142,2.943,0.176,4.622l0.01,0.608c-0.006,0.091-0.01,0.183-0.009,0.275         c0.023,0.189-0.05,0.364-0.047,0.555c-0.097,0.357-0.164,0.738-0.357,1.077c-0.319,0.704-0.881,1.31-1.475,1.753         c-0.611,0.428-1.254,0.702-1.858,0.863c-0.15,0.05-0.303,0.056-0.447,0.104c-0.046,0.009-0.053,0.022-0.129,0.029         l-0.228,0.021c-0.149,0.017-0.296,0.032-0.438,0.047c-0.567,0.065-1.07,0.142-1.496,0.232         c-0.851,0.18-1.392,0.415-1.52,0.724l-4.836-0.52c1.386,0.024,1.607-0.121,2.977-0.097         c-9.404-1.184-6.986,1.787-19.104,1.436c-4.223-0.189-7.17-0.549-4.291-0.842l-9.408,0.611         c-2.738-0.049-2.069-0.478,0.656-0.431l-14.352,0.197l0.106-0.072c-2.047,0.388-6.688,0.987-8.953,1.242         c-3.646-0.354,1.83-0.262,0.896-0.57l-7.946,0.599c-3.237-0.641,3.348-1.262,8.837-1.17         c-7.421-2.468-6.594,0.622-22.609-0.819l7.502-0.314c-4.837-1.401-10.693-0.894-19.176-1.769         c2.013,0.457,16.984,2.204,8.36,2.819c-2.431-0.187-5.634-0.275-10.288,0.222c-0.042-0.879-4.585-0.662-10.271-0.612         l0.388-1.165c-3.073,0.168-4.488,0.4-5.587,0.656c-0.653,0.138-0.764,0.233-1.112,0.366c-0.163,0.036-0.338,0.075-0.539,0.12         c-0.201,0.015-0.435,0.032-0.708,0.016c-0.942-0.354-1.583-0.896-1.979-1.409c-0.405-0.513-0.578-1-0.633-1.404         c-0.111-0.812,0.183-1.3,0.461-1.717c-0.075-0.268-0.08-0.501-0.119-0.688c0-0.097-0.006-0.182-0.016-0.259         c-0.006-0.038-0.012-0.074-0.018-0.107c-0.007-0.029-0.007-0.144-0.011-0.203c-0.027-0.568-0.077-0.794-0.142-0.798         c-0.065-0.004-0.146,0.216-0.236,0.539c-0.043,0.137-0.098,0.403-0.137,0.491c-0.043,0.096-0.089,0.196-0.133,0.295         c-0.176,0.401-0.311,0.842-0.517,0.747c-0.089-0.052-0.22-0.239-0.322-0.658c-0.02-0.106-0.042-0.226-0.066-0.359         c-0.027-0.128-0.031-0.471-0.046-0.736c-0.016-0.58-0.035-1.268-0.057-2.079c0.445-9.123-0.03-15.529-0.728-26.444         c0.401-6.385,0.712,1.118,1.045-1.173l-0.929-5.659c0.022-1.387,0.308-0.938,0.452-0.713         c-0.36-4.769-1.163-0.393-1.479-7.891c-0.321-0.505-0.364-1.72-0.271-3.402c0.046-0.842,0.126-1.8,0.224-2.846         c0.049-0.522,0.102-1.066,0.155-1.629c0.027-0.281,0.055-0.567,0.083-0.856c0.027-0.297,0.029-0.722,0.04-1.087         c0.035-3.035-1.211-6.512-3.736-8.924c-1.242-1.208-2.768-2.146-4.391-2.677c-1.622-0.538-3.319-0.656-4.838-0.413         c-0.758-0.054-1.058-0.092-1.088-0.173c-0.031-0.083,0.208-0.227,0.527-0.334c0.63-0.251,1.596-0.446,1.099-0.677         c-2.302,0.12-4.195,0.787-5.664,1.57c-1.479,0.787-2.563,1.706-3.395,2.594c-1.671,1.778-2.438,3.387-2.964,4.913         c-0.5,1.538-0.728,3.075-0.589,4.995c0.179,1.503,0.401,3.354,0.714,5.977l-0.764,8.905c0.874-6.543,1.908,1.817,2.758,9.141         c0.422-2.32,0.792-4.304,0.968-5.635l0.625,11.687c-0.191,1.412-0.591,0.234-1.078-1.681c0.104,0.797,0.203,1.552,0.28,2.142         c-0.431,4.18-1.102,2.013-1.752-0.981c0.243-1.423,0.483-2.835,0.717-4.209c-0.707-2.888-1.49-5.588-2.171-4.986         c0.134,0.759,0.25,2.222,0.315,3.83c-0.193-0.755-0.364-1.237-0.479-0.887c-0.123,0.396,0.134,1.616,0.432,3.526         l-1.298,2.657l0.516,0.645l-0.813,15.29c0.327,2.735,0.692,5.382,1.064,8.083c0.395,1.952-0.037,4.243-1.629,6.171         c-0.786,0.948-1.843,1.801-3.152,2.32c-0.649,0.271-1.357,0.464-2.107,0.557c-0.777,0.104-1.674,0.156-2.537,0.231         c-3.504,0.276-7.355,0.497-11.696,0.631c4.308-0.952,0.926-1.555,1.16-2.683c2.369,0.598,5.731,0.471,9.626,0.225         c0.974-0.063,1.98-0.13,3.014-0.197c0.844-0.083,1.51-0.227,2.237-0.497c1.395-0.57,2.663-1.523,3.598-2.774         c-1.031,1.279-1.74,1.412-1.905,1.36c-0.197-0.08-0.001-0.419,0.203-0.732c0,0.001-0.397,0.478-1.182,1         c-0.388,0.271-0.891,0.497-1.456,0.704c-0.29,0.064-0.587,0.188-0.908,0.214c-0.176,0.021-0.281,0.057-0.522,0.075         l-0.751,0.051c-4.013,0.271-8.025,0.543-8.025,0.543c0.363-0.922-3.408-0.691-7.601-1.072         c3.169,1.822-11.963,1.214-18.494,1.772c-0.405-0.612,1.16-1.236,9.127-1.089c-8.791-1.372-11.358,2.141-19.986,0.975         c1.945-0.015,2.994,0.079,3.762-0.231c-2.271,0.271-6.184,0.3-9.203,0.193c-0.754-0.026-1.453-0.062-2.057-0.104         c-0.33-0.015-0.521-0.056-0.705-0.089c-0.185-0.039-0.349-0.053-0.481-0.108c-0.534-0.194-0.639-0.334-0.163-0.398         c0-0.001,0.336,0.062,0.681,0.058c0.178,0.007,0.315,0.023,0.527,0.017c0.182-0.001,0.303-0.002,0.303-0.002         c-0.187-0.006-0.442-0.001-0.58-0.016c-0.146-0.011-0.295-0.021-0.445-0.033c-0.302-0.009-0.602-0.096-0.914-0.139         c-0.612-0.155-1.236-0.377-1.842-0.701c-1.195-0.668-2.31-1.734-2.972-3.097c-0.34-0.672-0.586-1.404-0.679-2.168         c-0.045-0.188-0.038-0.384-0.055-0.576l-0.021-0.29l-0.007-0.4l-0.019-1.659c-0.042-2.211-0.083-4.411-0.123-6.525         c-0.217-8.455-0.655-15.538-1.429-16.502c0.2-0.128,1.866,1.693,2.179,2.475l-5.209-23.045         c1.33,2.03,4.496-5.763,5.247,4.947c0.189-3.075,0.41-6.88-0.058-13.362c-0.189,2.099-1.923,5.229-2.044,2.362         c1.48-7.869,0.792-5.463,2.054-15.162c-0.285,3.144-2.37-0.35-2.303-5.318c0.312,0.776,2.058-0.414,2.275,1.403         l-2.047-12.369c0.369,3.088,1.735,0.546,2.313-2.223c-0.4,1.284,0.037-10.692-0.166-13.989l-0.474,5.242         c0.31-13.964-2.878-13.794-2.771-27.646c0.423,1.676,2.602,4.141,2.859-2.905c-0.524-1.614-1.784-5.188-3.015-9.891         c-0.615-2.352-1.223-4.985-1.727-7.797c-0.117-0.704-0.236-1.418-0.357-2.141c-0.054-0.362-0.107-0.727-0.162-1.093         l-0.076-0.551l-0.041-0.673c-0.089-1.803,0.268-3.729,1.135-5.454c0,0,0.127-0.139,0.318-0.347         c0.191-0.206,0.439-0.479,0.724-0.717c0.536-0.506,1.133-0.909,1.133-0.909c0,0,0.111-0.138,0.306-0.377         c0.214-0.221,0.514-0.548,0.901-0.913c0.782-0.722,1.963-1.561,3.296-2.146c1.327-0.588,2.782-0.939,3.887-1.006         c0.139-0.014,0.271-0.027,0.397-0.041c0.102-0.007,0.198-0.014,0.288-0.021c0.179-0.013,0.335-0.024,0.463-0.034         c0.257-0.019,0.404-0.029,0.404-0.029c-0.372,0.096-0.785,0.203-1.235,0.319c-0.547,0.141-1.127,0.26-1.717,0.497         c-1.182,0.424-2.419,1.074-3.521,1.991c-2.231,1.799-3.794,4.739-3.857,7.636c-0.033,0.718,0.048,1.431,0.172,2.11         l0.428,2.248c0.277,1.505,0.553,2.998,0.819,4.444c0.518,2.894,0.967,5.604,1.29,7.847c0.475-5.225,0.706-1.454,0.652-9.28         c0.562-2.765,0.852,4.265,0.885,6.568c0,0,0.091-4.556,0.182-9.11c0.011-0.569,0.022-1.14,0.034-1.699         c0.005-0.28,0.011-0.559,0.017-0.833c0.013-0.142,0.026-0.281,0.039-0.419c0.075-0.491,0.168-0.941,0.351-1.294         c0.151-0.363,0.335-0.638,0.465-0.828c0.129-0.19,0.23-0.28,0.224-0.285c-0.303-0.104-0.293-0.562,0.085-1.157         c0.367-0.589,1.119-1.291,2.063-1.66c0.46-0.223,0.969-0.313,1.456-0.415c0.779-0.076,1.562-0.146,2.189-0.229         c1.272-0.162,2.063-0.354,1.889-0.609c0,0-1.237,0.08-3.092,0.199c-1.087,0.053-1.62,0.137-2.362,0.366         c-0.707,0.227-1.405,0.606-1.999,1.104c-1.221,0.986-1.883,2.408-2.086,3.438c-0.188,1.062-0.044,1.726-0.068,1.763         c-0.152,0.108-0.326-0.041-0.488-0.19c-0.161-0.175-0.364-0.479-0.469-0.908c-0.253-0.849-0.265-2.304,0.615-3.907         c0.845-1.578,2.723-3.2,5.258-3.572c0.582-0.097,1.394-0.125,2.146-0.164c0.764-0.029,1.54-0.059,2.324-0.088         c1.569-0.043,3.172-0.055,4.786-0.028c3.284,0.488-2.457,2.178-2.188,2.586c1.676-0.421,12.253-0.804,13.439-0.506         l-5.477,0.654c7.187,0.46,11.729-1.621,20.366-0.454c2.981,0.079,8.901,1.576,9.417,0.852         c-4.862-1.396-5.813-5.714-2.572-6.764c1.045,0.094,15.653,1.335,19.057,2.024c4.909,1.095-7.37,2.609-3.19,3.55         c0.179-0.334,2.892-0.747,4.022-0.88c3.131,0.286-1.296,1.036,5.506,0.885c1.135-1.241,13.836,0.105,3.216-1.049         c6.653-0.354,7.071,0.255,14.885,0.201c-2.487-0.801,7.016-2.729,13.682-3.082c-0.392,0.315,1.105,0.727,1.83,0.914         c13.64,0.112,20.963,0.675,33.682,0.687c1.173,0.3,7.311,0.663,4.696,1.197c1.83-0.22,3.51-0.641,7.434-0.67         c7.592,1.072-8.748,0.166-2.96,1.455c0.495-0.721,10.146-0.994,15.734-1.444c-1.719-1.114-12.911-0.214-18.507,0.236         c-0.025-1.536,9.716-3.145,23.011-3.854c10.564-0.382,4.581,0.992,6.415,0.774c19.846,0.269,16.906-2.682,33.387-1.574         c6.539,0.979,0.295,1.947,1.745,2.653c-8.607,0.371-13.214-0.622-19.049-0.582l7.183,0.463         c-2.738,0.325-8.483,0.572-11.613,0.288c5.48,0.879,33.527,0.169,48.84,0.981c2.721-0.328,7.417-0.667,5.194-1.061         l-4.845,0.136c-4.453-0.789,9.119-1.091,2.985-1.459c6.5-0.555,13.785-1.427,22.934-0.981l1.719,1.116         c-0.196-0.326-5.979-0.665-8.552-0.325c3.813-0.495,14.028,1.511,18.208,0.049l-6.414-0.773         c6.525-0.561,14.591-1.746,22.698-1.394c-3.689-1.102-1.868,0.126-7.63-1.164c4.994,1.604-20.741-0.067-12.719,1.619         c-5.911-1.497-10.232-0.635-17.96-1.911c0.238,0.368,2.737,0.704-4.069,0.522c-0.308,0.107-1.032,0.244-1.493,0.324         c-0.209-0.012-0.281-0.017-0.46-0.027c0.136,0.016,0.238,0.027,0.375,0.043c-0.294,0.055-0.32,0.066,0.141,0.015         c1.621,0.161,2.935,0.354,3.468,0.56c-3.378,0.845-14.203,0.819-17.862,1.256c-4.039-0.175,1.688-0.422-0.517-0.815         l-5.468,0.654c-0.541-0.818-10.73-1.358-1.216-1.837l-8.563-0.037c-5.042-0.458-11.977-0.641-16.255-0.297         c-4.039-0.177-10.202,0.905-6.684,0.265l-13.431,0.506l-0.124-0.205c-13.252-0.103-27.279,1.354-42.429-0.122         c-4.461,0.206-9.072,0.458-16.536,0.226l-1.454-0.707c-5.728,0.247-17.202-0.707-19.663,0.029         c-6.18-1.902-27.8-0.415-37.874-0.752l-0.38,0.923c-6.935-0.052-13.584,0.209-22.191,0.58l0.529,0.816         c-7.421,0.67-19.078-0.58-30.815-0.497c0.797-0.312,3.774-0.23,5.881-0.042c-1.753-0.23-3.53-0.382-5.322-0.474         c-0.896-0.046-1.796-0.077-2.699-0.095l-0.678-0.012c-0.231-0.002-0.415-0.01-0.791,0.007         c-0.662,0.019-1.324,0.063-1.98,0.185c-2.637,0.41-5.116,1.667-7.064,3.418c-0.982,0.876-1.806,1.906-2.516,2.996         c-0.671,1.117-1.226,2.3-1.58,3.545c-0.344,1.241-0.559,2.519-0.549,3.784c-0.017,0.71,0.022,1.086,0.043,1.541l0.069,1.338         c0.089,1.779,0.163,3.54,0.203,5.273c0.081,3.467,0.028,6.824-0.308,10.004c0.297,3.169,0.196,5.464-0.009,7.686         c-0.002-0.294-0.017-0.559-0.042-0.784c-0.002,0.324-0.006,0.806-0.011,1.301c-0.14,1.398-0.303,2.84-0.434,4.401         c0.198-1.326,0.362-2.598,0.438-3.702c0.017,2.444,0.118,6.15,0.322,9.784l-0.876,1.548c0.009,0.295,0.016,0.533,0.025,0.841         c-0.324,3.565,0.415,2.866,1.074,0.964c0.144,1.83,0.317,3.506,0.528,4.807c-1.414,2.896,0.477,9.532-1.032,13.486         c0.736,2.448,0.554,18.268,2.102,20.204c-0.201,0.124-0.297,1.194-0.311-0.768c-0.176,4.052-0.352,8.1,0.083,11.733         l-1.113,1.719l1.498,8.846c-0.68,5.374-1.074,7.601-1.932,2.265c1.319,12.885,0.497,10.454,1.804,21.411l-0.72-0.533         c0.028,3.915,0.993,10.177,0.397,12.539c-0.342,2.19-0.525,5.995-0.627,10.821c-0.084,3.055,1.102,6.633,3.72,9.249         c1.301,1.304,2.931,2.375,4.775,3.045c0.917,0.351,1.896,0.56,2.89,0.692c0.495,0.06,1.006,0.069,1.502,0.095         c0.389,0.001,0.779,0.002,1.172,0.003c12.554,0.035,26.824,0.059,38.069,0.695c-4.363-2.122,10.454,0.95,11.345-0.693         c1.309,0.501,4.444,0.784,0.802,1.221c0.717-0.024,1.413-0.049,2.087-0.072l0.633-0.031c0.235-0.016,0.467-0.031,0.698-0.047         c0.462-0.024,0.912-0.126,1.356-0.192c1.771-0.336,3.368-0.975,4.751-1.788c2.782-1.63,4.7-3.965,5.855-6.468         c0.547-1.268,0.938-2.574,1.089-3.897c0.059-0.328,0.058-0.659,0.078-0.988l0.019-0.493l0.007-0.246l-0.003-0.176         l-0.044-1.375c-0.082-1.835-0.261-3.681-0.608-5.662c0.504-1.313,0.736,2.457,1.033,1.288         c-0.108-0.921-0.437-3.646-0.137-4.841c0.299-1.169,0.421,1.681,0.64,3.497c-0.084-11.725-1.631-12.91-3.082-13.764         c0.688-5.941,0.59-8.905-0.362-13.196c0.475-2.068,0.972-5.519,1.143,1.766c0.035-2.049,0.208-8.308,0.229-14.107         c-0.006-1.449-0.013-2.87-0.019-4.189c-0.014-0.66-0.027-1.294-0.04-1.894c-0.009-0.297-0.019-0.586-0.027-0.864         c-0.002-0.2-0.004-0.394-0.005-0.578c0.032-1.48,0.352-2.475,0.121-2.67c0.319-0.389,0.859-1.315,1.589-2.072         c0.712-0.767,1.558-1.377,1.907-1.588c1.57-0.726,2.956-0.752,4.05-0.568c1.101,0.188,1.959,0.573,2.731,1.076         c0.768,0.512,1.464,1.15,2.111,2.069c0.17,0.224,0.297,0.491,0.466,0.749c0.116,0.286,0.299,0.561,0.397,0.89         c0.266,0.632,0.428,1.383,0.502,2.24c0,0,0.007-0.121,0.018-0.303c-0.009-0.181-0.021-0.422-0.033-0.663         c-0.011-0.243-0.068-0.479-0.087-0.662c-0.021-0.184-0.053-0.302-0.053-0.302c0.519,0.563,0.901,1.29,1,2.122         c0.128,0.883,0.107,2.011,0.076,3.158c-0.076,2.341-0.307,5.146-0.222,8.787l-0.144-0.209         c-1.012,16.693,0.485,7.208-0.67,23.676l0.873-0.896c0.938,0.768,0.661,4.415,0.24,9.065         c-0.211,2.325-0.458,4.901-0.607,7.494l-0.092,1.943c-0.006,0.344-0.033,0.598-0.017,1.015         c0.018,0.391,0.011,0.783,0.065,1.169c0.171,1.548,0.685,3.029,1.456,4.255c0,0-0.39-0.981-0.583-1.995         c-0.104-0.504-0.152-1.017-0.198-1.391c-0.012-0.38-0.02-0.634-0.02-0.634c0.376,1.468,0.856,3.195,1.806,4.957         c0.955,1.74,2.375,3.524,4.329,4.833c0.964,0.662,2.049,1.209,3.193,1.574c0.571,0.201,1.155,0.336,1.744,0.443         c0.472,0.092,0.937,0.182,1.394,0.271c1.697,0.322,3.266,0.566,4.576,0.625c1.143,0.163-1.804,0.262-3.399,0.383         c13.725,1.107,1.778-1.144,12.006-1.409c1.885,0.616-2.431,1.568,4.453,1.683c3.429,0.5,19.965-2.002,29.357-0.819         c-2.068-0.476-4.125-0.949,0.627-1.307c7.281-0.17,19.684,1.797,26.261,0.298c0.926,0.13,1.275,0.255,1.313,0.373         c5.566-0.387,18.088-0.643,21.44-1.455c1.286,0.754,4.092,1.039,7.575,1.087c1.741,0.023,3.652-0.013,5.628-0.079         c0.426-0.005,1.154-0.06,1.792-0.12c0.646-0.112,1.298-0.207,1.924-0.414c1.263-0.357,2.463-0.925,3.522-1.651         c2.144-1.426,3.73-3.458,4.632-5.55c0.472-1.039,0.753-2.104,0.928-3.114c0.066-0.509,0.155-0.999,0.158-1.479         c0.011-0.238,0.021-0.474,0.03-0.703c0.001-0.19,0.003-0.378,0.005-0.561c0.018-2.825,0.259-4.643,0.954-4.612l-0.148-17.12         l0.283,0.448c0.185-10.944-0.481-14.813-1.15-18.66c0.189-2.529,0.449-0.683,0.596-0.474         c0.28-7.995,0.391-12.39,0.258-16.462c-0.037-1.393,0.169-2.766,0.951-4.219c0.774-1.413,2.167-3.014,4.73-3.677         c0,0,0.276,0.212,0.553,0.424c0.13,0.098,0.253,0.218,0.341,0.311c0.087,0.09,0.145,0.15,0.145,0.15         c0.606-0.1,2.011,0.063,3.441,1.189c1.417,1.097,2.691,3.268,2.553,5.756c-0.28,7.23-0.508,16.062,0.021,23.891         c-0.103-0.153-0.277-0.478-0.404-1.723c0.529,8.822-0.097,19.383-0.443,28.546c-0.087,2.291-0.156,4.494-0.187,6.562         c-0.001,1.367,0.17,2.897,0.583,4.197c0.422,1.315,0.971,2.536,1.69,3.559c1.38,2.091,3.221,3.457,4.892,4.23         c1.691,0.767,3.231,0.951,4.344,0.776c0,0,0.23,0.057,0.644,0.091c0.411,0.046,0.996,0.111,1.699,0.089         c0.173-0.002,0.354-0.005,0.54-0.007c0.146-0.011,0.299-0.021,0.455-0.032c0.313-0.021,0.643-0.044,0.984-0.068         c0.682-0.047,1.409-0.098,2.138-0.148c2.91-0.202,5.821-0.404,5.821-0.404c-15.064-0.256,2.243-1.426-3.953-1.972         c5.924-0.193,15.315,0.99,8.035,1.159l-1.139-0.164c-2.675,1.713,18.72,0.607,18.314,1.773         c7.41-0.021,14.774,0.022,22.085,0.101c0.788,0.013,2.147,0.024,3.293-0.198c1.172-0.224,2.333-0.565,3.4-1.104         c2.159-1.023,3.998-2.671,5.311-4.661c0.675-0.988,1.157-2.097,1.548-3.23c0.344-1.148,0.575-2.339,0.607-3.538         c0.033-1.833,0.066-3.662,0.1-5.488c0.235-14.398,0.49-28.563,0.527-42.446l-1.331,3.199l0.076-9.687         c0.31-2.542,1.041-3.412,0.986,3.497c0.755-3.634-0.632-11.588-0.921-11.784c0.539-13.529,1.552,5.284,1.583,1.135         l-0.099-5.635l-0.155,1.271c-0.544-4.568-1.121-4.974-1.055-13.277c0.266-5.255,0.82-2.696,0.872-4.765         c0.094,0.013,0.139-0.687,0.038-3.173l0.114-12.203l-1.052,4.88c-0.518-5.408,0.056-11.474-1.136-5.844         c0.229-1.033,0.412-2.519,0.557-4.339c0.072-0.909,0.136-1.902,0.19-2.964c0.024-0.531,0.05-1.079,0.075-1.643         c0.012-0.255,0.022-0.514,0.034-0.775l0.03-0.092c0.157-0.493,0.2-1.075,0.203-1.647c0.007-1.144-0.146-2.246,0.14-2.511         c-0.767-0.789-0.753-1.567-0.66-2.533c-0.22,0.24-1.4,0.384-1.256-0.448c2.438,0.305,1.058-1.524,2.813-2.197         c-1.163,0.602-0.287-2.365-1.939-1.423c0.197-0.694,0.913-0.042,1.487-0.568c-0.945-1.653,0.613-3.643,0.295-5.687         c-0.32-0.031-0.81,0.311-1.286-0.128l1.6-1.078c-0.156-0.403-1.847-0.372-0.735-1.109c-0.27,0.104-0.676,0.26-0.778-0.011         c1.56-4.003-1.277-8.179,1.653-12.243c-0.62,0.55-0.682,0.183-0.705-0.237c-0.148,0.273-0.79-0.006-1.225,0.048l1.205-1.702         c-1.204-0.311-0.082-1.824-1.232-2.002l0.207,0.539c-1.358-0.717-3.02,1.003-4.764,0.897         c1.545,0.803-2.287,2.116-0.076,3.433c-0.355,0.291-0.562-0.248-0.966-0.092c0.747,0.333,0.903,0.736,0.568,1.483         l-0.186-0.085c0.183,2.099-0.555,2.998-1.045,5.355l0.862-0.175c-0.115,0.507-0.386,0.613-0.602,0.851         c1.307,0.581,0.073-1.423,1.515-0.894c-1.754,0.672-0.026,3.572-2.02,4.026c-0.011,0.779,0.998-0.229,0.986,0.551         l-0.539,0.207l0.695,0.196c-0.115,0.511-0.79,0.769-1.247,0.788c0.055-0.124-0.128-0.353-0.167-0.485         c-0.635,0.662,0.217,1.868,0.01,2.096l0.333-0.749c0.505,2.127-0.204,4.724,0.893,6.778l0.407-0.156         c0.753,1.569-0.446,1.257-0.099,2.979l-0.097-0.063c0.405,0.345,0.609,0.805,0.563,1.276         c-0.477-0.436-0.926,0.818-1.454,0.248c0.809,1.701,0.636,0.841,2.147,1.965l-0.675,0.259         c0.61,0.384,0.933,0.415,1.106,1.275c-0.579-0.705-1.028,0.55-1.794-0.241c-0.737,0.903-0.365,1.573-0.078,2.121         c0.144,0.274,0.266,0.518,0.218,0.744c-0.024,0.113-0.092,0.223-0.22,0.329c-0.032,0.027-0.068,0.054-0.108,0.08         l-0.063,0.039l-0.07,0.375c-0.097,0.503-0.212,1.001-0.347,1.498c0.467,1.989,0.766,2.047,0.956,1.084         c0.096-0.481,0.165-1.219,0.214-2.097c0.012-0.22,0.022-0.447,0.034-0.683l0.008-0.177l0.007-0.02l0.013-0.038         c0.016-0.052,0.028-0.105,0.038-0.16c0.075-0.436-0.032-0.918,0.168-0.686c0.305-0.194,0.654-0.023,0.903,0.268         c0.125,0.145,0.225,0.32,0.281,0.494c0.014,0.044,0.025,0.087,0.034,0.13c0.006,0.38,0.011,0.755,0.017,1.121         c0.005,0.794-0.004,1.55-0.027,2.229c-0.042,5.536-2.389,9.413-2.354,23.339c0.008-1.386-0.133-1.479-0.125-2.861         c-0.477,5.212,0.646,10.21-0.129,16.604c1.13,3.583-0.064,8.301,1.376,9.332l-0.333-12.773         c0.376,7.242,2.063,14.032,1.245,25.962c-0.291-0.93-0.673-4.479-0.887-6.918c-0.425,3.488,0.282,6.717-0.155,10.334         c-1.441-1.032-0.313-15.525-1.412-23.283c-0.608,3.745,1.044,14.676-0.518,10.778c1.986,5.604-0.25,13.721,1.266,23.15         l-0.863-0.622c0.136,1.492,0.543,4.585,0.521,7.331l-1.12-4.973c0.956,7.635-0.835,14.719-0.315,22.042         c-0.026-15.333,1.04-3.441,1.672-9.925c0.577,9.456,0.013,12.175-0.646,15.177c-0.164,0.75-0.334,1.519-0.494,2.413         c-0.037,0.225-0.076,0.456-0.117,0.697c-0.019,0.121-0.037,0.244-0.057,0.37l-0.027,0.19l-0.036,0.109         c-0.048,0.138-0.089,0.279-0.123,0.426c-0.061,0.144-0.119,0.289-0.167,0.442c-0.237,0.601-0.581,1.266-1.175,1.951         c-0.574,0.689-1.446,1.385-2.652,1.758c0.646-0.188,1.866-0.685,2.598-1.292c0.378-0.272,0.667-0.506,0.801-0.521         c0.14-0.011,0.16,0.217-0.159,0.797c-0.824,0.838-2.058,1.503-3.217,1.57c-0.286,0.023-0.565,0.03-0.832-0.004         c-0.384-0.04-0.751-0.079-1.098-0.115c-0.91-0.098-1.707-0.203-2.325-0.316c-14.028,0.179,2.154,0.888-3.817,1.419         c-4.776-1.053-6.888,0.428-13.038,0.766l-0.043-0.879c-15.985-0.563-4.239,1.83-18.63,1.149l6.082-1.218l-7.502,0.314         l1.548-0.998c-4.082,0.37-6.758,0.507-9.414,0.517c-1.327,0.005-2.65-0.022-4.141-0.067         c-0.372-0.013-0.756-0.025-1.152-0.038c-0.18-0.009-0.438-0.01-0.564-0.025c-0.117-0.015-0.236-0.028-0.357-0.044         c-0.481-0.063-0.984-0.185-1.493-0.421c0.378,0.476,0.193,0.833-0.791,0.796c-0.481-0.04-1.148-0.234-1.891-0.722         c-0.733-0.488-1.517-1.311-2.051-2.478c-0.209-0.858-0.127-1.183-0.06-1.291c0.075-0.108,0.188-0.013,0.252-0.021         c0.074-0.009,0.053-0.107,0.012-0.613c-0.013-0.126-0.048-0.274-0.042-0.458c-0.005-0.092-0.009-0.19-0.014-0.298         c-0.004-0.053-0.008-0.108-0.012-0.166c-0.001-0.086-0.001-0.175-0.002-0.267c-0.007-0.765-0.016-1.744-0.027-2.999         c0.138,0.566,0.284,1.146,0.413,1.766c0.064,0.31,0.125,0.63,0.178,0.962c0.024,0.167,0.049,0.337,0.074,0.51         c0.026,0.102,0.053,0.206,0.08,0.313c0.189,0.839,0.332,1.718,0.711,3.062c0.395,0.085,1.255,0.693,1.644,0.604         c-0.425-0.565-0.823-1.214-1.105-1.919c-0.148-0.35-0.24-0.721-0.327-1.092c-0.009-0.192-0.076-0.374-0.075-0.568         c-0.003-0.219-0.039-0.292-0.036-0.764c-0.041-3.071-0.159-5.947-0.163-7.764c-0.032,1.398-0.08,3.07-0.205,3.928         l-1.217-14.548c0.33-2.291,0.595-0.474,0.854,1.326c-0.095-2.947-0.498-4.986-0.573-9.319         c0.714,1.122,1.45,0.854,1.786,6.986l-0.792-13.861c0.311-0.926,0.853-7.114,1.115-5.314         c0.21-3.843-0.136-8.556-0.466-13.582c-0.077-1.257-0.155-2.533-0.235-3.819l-0.051-0.967l-0.113-1.422         c-0.125-0.959-0.324-1.907-0.61-2.833c-1.152-3.704-3.665-6.914-6.979-8.933c-0.783-0.205-2.241-1.044-5.488-1.391         c-3.549-0.442-7.188,0.504-10.024,2.5c-2.853,1.974-4.959,4.967-5.852,8.412c-0.124,0.429-0.214,0.864-0.278,1.307         c-0.074,0.441-0.144,0.885-0.16,1.333l-0.038,0.673l-0.015,0.33l-0.003,0.227l-0.007,0.91         c-0.007,1.22,0.001,2.461,0.027,3.731c0.053,2.541,0.182,5.199,0.427,8.037l-1.279,6.439c0.29,8.889,1.611-8.718,2.094,6.083         c0.408,10.479-1.091,3.911-1.447,7.587c0.645,5.212,1.957,14.271,0.916,23.897         C316.272,409.153,316.462,406.654,316.367,403.677z M226.067,418.776c2.124-0.184,6.359-0.752,7.912-0.234         C231.561,419.548,229.688,419.066,226.067,418.776z M168.344,399.353c-0.291-1.578-0.147-4.021,0.186-6.777         C168.601,394.576,168.569,396.841,168.344,399.353z M310.487,252.4c-0.09,0.014-0.153,0.024-0.227,0.043         C305.522,252.101,307.203,252.235,310.487,252.4z M320.327,252.781c0.989-0.123,0.921-0.245,0.503-0.367         c-0.687,0.222-2.896,0.237-5.412,0.175C316.117,252.819,317.389,252.978,320.327,252.781z M417.443,328.004l-0.229,1.915         C416.962,325.595,417.19,326.806,417.443,328.004z" style="fill:#202020;"/><path d="M167.142,380.458c0.148-0.602,0.313-0.768,0.477-0.908         C167.472,378.714,167.301,378.697,167.142,380.458z" style="fill:#202020;"/><path d="M337.195,342.021l0.446,0.242c0.265,0.098,0.419,0.132,0.519,0.132         c0,0-0.237-0.103-0.474-0.204C337.44,342.105,337.195,342.021,337.195,342.021z" style="fill:#202020;"/><path d="M167.913,260.226c-2.026-0.127-3.156-0.287-3.907-0.453         C163.895,259.987,164.816,260.168,167.913,260.226z" style="fill:#202020;"/><path d="M372.468,251.289l-6.304,0.228c3.05-0.043,4.138,0.148,5.677,0.288         C371.7,251.6,370.498,251.304,372.468,251.289z" style="fill:#202020;"/><path d="M395.433,256.722c0.096-0.107,0.203-0.012,0.298-0.121l-0.025-0.408         C395.296,256.22,395.01,256.549,395.433,256.722z" style="fill:#202020;"/><path d="M378.303,254.206c0.499,0.739,4.453,0.488,8.867,0.352c-0.265,0.002-0.516,0.009-0.78,0         C387.69,253.523,382.986,253.866,378.303,254.206z" style="fill:#202020;"/><path d="M388.193,254.532c0.681-0.012,1.368-0.023,2.053-0.035c0.342,0,0.683,0,1.021,0l0.478,0.006         l0.052,0.011c0.014-0.104,0.01-0.161-0.008-0.187c-0.009-0.013-0.021-0.018-0.036-0.017         c-0.117,0.005-0.257,0.011-0.415,0.019C390.557,254.372,389.407,254.479,388.193,254.532z" style="fill:#202020;"/><path d="M332.807,252.292c2.094,0.19,1.313-0.944,2.499-0.644         C337.644,250.708,321.347,252.786,332.807,252.292z" style="fill:#202020;"/><polygon points="381.877,256.64 380.295,255.728 377.821,256.463        " style="fill:#202020;"/><path d="M347.018,255.97l7.055,0.252c-0.106-0.153,0.789-0.243,1.89-0.311         C351.616,255.881,346.852,255.701,347.018,255.97z" style="fill:#202020;"/><path d="M355.962,255.912c2.265,0.019,4.419-0.001,5.677-0.151         C360.415,255.77,357.779,255.8,355.962,255.912z" style="fill:#202020;"/><polygon points="372.233,256.913 370.147,256.723 365.166,256.656        " style="fill:#202020;"/><path d="M271.184,255.794l-7.698,0.261c-0.784,0.313,1.313,0.504,4.18,0.379         C269.508,256.217,272.365,256.096,271.184,255.794z" style="fill:#202020;"/><path d="M294.468,258.292c-2.082-0.189-2.223-0.394-3.396-0.693l-0.234,1.13L294.468,258.292z" style="fill:#202020;"/><path d="M272.016,258.556c-0.768,0.313-11.175,0.899-1.416,0.829         C271.38,259.073,279.092,258.813,272.016,258.556z" style="fill:#202020;"/><polygon points="156.008,257.126 157.966,257.111 157.685,255.258        " style="fill:#202020;"/><path d="M101.453,303.727c0.444-9.123-1.144-2.166-0.589-10.411c-0.439-2.141-0.453,6.739-0.831,4.543         C100.495,303.364,100.234,306.256,101.453,303.727z" style="fill:#202020;"/><path d="M100.033,297.858c-0.073-0.883-0.162-1.817-0.282-2.811         C99.867,296.643,99.956,297.394,100.033,297.858z" style="fill:#202020;"/><polygon points="418.385,268.329 418.771,267.718 418.148,268.112        " style="fill:#202020;"/><path d="M417.01,267.155l1.182-0.144l-1.069-0.367C417.175,266.783,417.276,267.051,417.01,267.155z" style="fill:#202020;"/><path d="M209.77,416.396l-0.448,0.285c0.909,0.307,2.282,0.33,5.033,0.379L209.77,416.396z" style="fill:#202020;"/><polygon points="289.336,417.281 287.967,417.257 290.526,418.326        " style="fill:#202020;"/><path d="M314.076,383.255c-0.045,2.726,0.194,5.929,0.148,8.667         C314.031,385.98,315.408,382.518,314.076,383.255z" style="fill:#202020;"/></g></g></g></g><g><g><g><g><path d="M255.435,90.387c-0.255-0.073-0.164,0.692-0.202,0.828         C255.655,91.058,255.425,90.189,255.435,90.387z" style="fill:#202020;"/><polygon points="259.761,88.818 259.664,89.123 260.354,88.411        " style="fill:#202020;"/><path d="M263.782,89.219c-0.228-1.325-1.478-0.008-2.146-0.498l-0.093-0.304l-0.416,1.017         C262.005,89.312,263.212,88.782,263.782,89.219z" style="fill:#202020;"/><path d="M265.479,92.282c-0.047-0.519,0.511-0.36-0.451-0.233c0.038,0.06,0.047,0.093,0.067,0.137         C265.181,92.187,265.293,92.212,265.479,92.282z" style="fill:#202020;"/><path d="M265.096,92.186C264.686,92.171,265.297,92.64,265.096,92.186L265.096,92.186z" style="fill:#202020;"/><path d="M267.003,92.23l-0.608,0.349c0.061,0.314,0.515,0.464,0.303,0.646         C267.277,93.079,267.226,92.768,267.003,92.23z" style="fill:#202020;"/><path d="M267.684,91.389l-0.314,0.138C267.396,91.658,267.46,91.714,267.684,91.389z" style="fill:#202020;"/><path d="M266.709,91.818l0.66-0.292c-0.039-0.22,0.026-0.636-0.297,0.095         C267.189,91.251,267.006,91.594,266.709,91.818z" style="fill:#202020;"/><path d="M266.409,91.563c-0.252-0.332-0.618-0.579,0-0.924         C265.34,90.628,265.358,91.56,266.409,91.563z" style="fill:#202020;"/><path d="M264.158,87.913l-0.379-0.432l-0.421,0.385C263.568,87.675,264.134,88.319,264.158,87.913z" style="fill:#202020;"/><path d="M270.141,93.569c0.097-0.262-0.007-0.758,0.032-1.112l-0.461,0.219         C269.871,92.907,270.209,93.164,270.141,93.569z" style="fill:#202020;"/><path d="M270.173,92.457l0.696-0.327C270.355,91.955,270.208,92.152,270.173,92.457z" style="fill:#202020;"/><polygon points="268.05,89.988 266.878,90.792 268.245,90.009        " style="fill:#202020;"/><polygon points="272.318,94.152 271.831,94.679 272.656,93.909        " style="fill:#202020;"/><path d="M273.788,94.453c-0.388,0.441,0.067,0.951-0.275,1.193c0.41,0.019,0.875-0.331,1.292-0.613         C274.424,95.136,274.104,94.995,273.788,94.453z" style="fill:#202020;"/><path d="M275.484,94.634c-0.197,0.067-0.431,0.229-0.68,0.399         C275.008,94.973,275.226,94.861,275.484,94.634z" style="fill:#202020;"/><path d="M271.839,92.495c0.003,0.175-0.02,0.624,0.254,0.893l-0.028-0.816         C271.996,92.548,271.918,92.521,271.839,92.495z" style="fill:#202020;"/><path d="M272.063,92.545l0.002,0.026c0.242,0.091,0.41,0.155,0.481,0.182         C272.485,92.727,272.34,92.665,272.063,92.545z" style="fill:#202020;"/><path d="M271.781,92.477c0.021,0.007,0.037,0.012,0.058,0.018         C271.836,92.414,271.829,92.386,271.781,92.477z" style="fill:#202020;"/><path d="M269.49,90.997c0.439-0.344,1.289-0.627,0.713-1.44         C269.833,90.017,270.159,90.48,269.49,90.997z" style="fill:#202020;"/><path d="M271.732,91.468l-0.593-0.319c-0.035,0.203,0.008,0.52-0.216,0.69L271.732,91.468z" style="fill:#202020;"/><polygon points="272.104,91.3 271.732,91.468 271.951,91.586        " style="fill:#202020;"/><path d="M274.671,93.602c0.367-0.256,0.659-0.17,1.002-0.117c-0.301-0.263-0.636-0.471-0.987-0.56         C274.565,93.145,274.287,93.521,274.671,93.602z" style="fill:#202020;"/><path d="M273.425,93.024c0.022-0.008,0.051-0.019,0.071-0.026         C273.479,92.925,273.455,92.896,273.425,93.024z" style="fill:#202020;"/><path d="M278.854,94.61c0-0.051,0-0.099,0-0.152c-0.02,0.041-0.038,0.078-0.06,0.121L278.854,94.61z" style="fill:#202020;"/><path d="M274.668,92.77c-0.224-0.219-0.438-0.083-0.658,0.105c0.222-0.019,0.447-0.008,0.676,0.051         C274.74,92.826,274.766,92.757,274.668,92.77z" style="fill:#202020;"/><path d="M276.478,94.587c-0.082-0.2-0.191-0.381-0.313-0.557         C276.221,94.309,276.365,94.763,276.478,94.587z" style="fill:#202020;"/><path d="M273.526,93.23c-0.017,0.008-0.032,0.019-0.049,0.022         C273.518,93.438,273.529,93.356,273.526,93.23z" style="fill:#202020;"/><path d="M273.526,93.23c0.167-0.07,0.328-0.223,0.483-0.356c-0.179,0.013-0.352,0.05-0.514,0.124         C273.515,93.061,273.524,93.15,273.526,93.23z" style="fill:#202020;"/><path d="M281.652,90.347c-0.32,0.649-1.271,0.99-1.617,0.022c-0.802,0.265-1.207,2.653-1.182,4.089         c0.131-0.287,0.23-0.56,0.984-0.72c-0.063-0.448-1.016-1.391-0.272-1.799c0.947-0.025,0.577,0.502,0.83,1.012         c-0.011-0.97,1.521-0.806,1.849-2.096l-0.907,0.142C281.398,90.801,281.787,90.602,281.652,90.347z" style="fill:#202020;"/><path d="M277.744,93.964l-0.278,0c0.238,0.218,0.351,0.543,0.515,1.216         c0.521-0.172,0.701-0.389,0.813-0.602c0,0-0.29-0.142-0.58-0.284c-0.296-0.129-0.591-0.258-0.591-0.258L277.744,93.964z" style="fill:#202020;"/><path d="M276.352,93.592c0.44-0.679,1.158-0.789,1.061-1.718c-0.767-0.202-0.732,0.444-1.279,0.618         c1.249,0.218-0.476,0.3,0.238,1.012c-0.273,0.048-0.492,0.017-0.698-0.019c0.182,0.163,0.348,0.344,0.492,0.545         c-0.004-0.021-0.007-0.037-0.011-0.055h-0.007l0.006-0.011c-0.02-0.11-0.018-0.172,0.021-0.099         c0.007-0.008,0.022-0.007,0.029-0.007c0.042-0.101,0.094-0.184,0.146-0.263c0.288,0.269-0.012,0.211-0.146,0.263         c-0.017,0.035-0.037,0.067-0.051,0.106l0.001,0.011l1.312-0.011C277.254,93.778,276.933,93.693,276.352,93.592z" style="fill:#202020;"/><path d="M271.252,88.067c0.024,0.076,0.01,0.131,0,0.187C271.356,88.18,271.402,88.123,271.252,88.067         z" style="fill:#202020;"/><path d="M271.668,88.649c-0.118,0.085-0.268,0.373-0.548,0.225c-0.207-0.29,0.086-0.366,0.132-0.621         c-0.231,0.161-0.759,0.403-0.28,0.904l0.114-0.083c0.45,0.38,0.858,1.478,0.743,1.563         C271.854,89.919,271.847,89.401,271.668,88.649z" style="fill:#202020;"/><path d="M274.189,90.899l1.136-0.077l-0.332-0.8l-0.089,0.398         C274.361,90.1,274.349,90.619,274.189,90.899z" style="fill:#202020;"/><polygon points="278.824,95.018 278.403,95.742 279.373,94.868        " style="fill:#202020;"/><polygon points="280.102,95.415 279.785,96.065 280.274,95.79        " style="fill:#202020;"/><path d="M199.677,207.287l-0.867-0.683C199.196,206.95,199.46,207.156,199.677,207.287z" style="fill:#202020;"/><path d="M205.234,212.839l0.381-0.139C205.211,212.609,205.001,212.618,205.234,212.839z" style="fill:#202020;"/><path d="M317.1,180.45c-1.131,1.068-2.668,2.056-1.877,2.22l0.901-0.076         C316.36,181.639,316.705,180.979,317.1,180.45z" style="fill:#202020;"/><path d="M264.4,227.096c0.151,0.059,0.31,0.122,0.466,0.183c0.32-0.314,0.621-0.609,0.893-0.875         C265.35,226.613,264.886,226.849,264.4,227.096z" style="fill:#202020;"/><path d="M263.725,230.475c0,0-0.524-0.065-1.049-0.13c-0.522-0.088-1.045-0.175-1.045-0.175         C262.104,230.31,262.78,230.447,263.725,230.475z" style="fill:#202020;"/><path d="M180.343,169.335c0,0-0.254-0.284-0.509-0.568c-0.26-0.285-0.499-0.576-0.499-0.576         C179.67,170.189,179.931,169.241,180.343,169.335z" style="fill:#202020;"/><path d="M311.924,122.043c0.361,1.194,0.705,2.094,1.096,2.835         C312.691,123.415,312.7,122.02,311.924,122.043z" style="fill:#202020;"/><path d="M207.77,203.635c-0.509-0.328-0.8-0.4-0.915-0.265         C207.375,203.719,207.719,203.863,207.77,203.635z" style="fill:#202020;"/><path d="M314.62,127.948c-0.025-0.223-0.084-0.425-0.123-0.646c-0.529-0.718-0.993-1.468-1.478-2.423         C313.252,125.972,313.582,127.151,314.62,127.948z" style="fill:#202020;"/><path d="M236.894,83.706c0.044,0.026,0.09,0.033,0.132,0.067         C237.01,83.666,236.96,83.671,236.894,83.706z" style="fill:#202020;"/><path d="M251.5,89.521c-0.123,0.059-0.329,0.075-0.521,0.101         C251.076,89.669,251.233,89.652,251.5,89.521z" style="fill:#202020;"/><path d="M293.684,103.324C292.926,102.849,293.518,103.313,293.684,103.324L293.684,103.324z" style="fill:#202020;"/><path d="M291.74,98.253c0.214,0.032,0.402,0.018,0.52-0.123         C292.093,98.249,291.918,98.281,291.74,98.253z" style="fill:#202020;"/><path d="M322.615,134.676c0.008,0.027,0.015,0.049,0.024,0.08         C322.694,134.437,322.682,134.493,322.615,134.676z" style="fill:#202020;"/><path d="M292.793,102.25c0.22,0.275,0.488,0.566,0.799,0.856         C293.477,102.949,293.238,102.685,292.793,102.25z" style="fill:#202020;"/><path d="M292.729,102.662c-0.234-0.204-0.418-0.364-0.593-0.516         C291.971,102.189,292.004,102.315,292.729,102.662z" style="fill:#202020;"/><path d="M294.721,104.014c-0.418-0.294-0.789-0.594-1.129-0.908c0.112,0.146,0.146,0.224,0.092,0.218         C293.902,103.468,294.218,103.662,294.721,104.014z" style="fill:#202020;"/><path d="M204.018,104.485c0.065-0.027,0.131-0.068,0.206-0.093         C204.72,103.465,204.438,103.806,204.018,104.485z" style="fill:#202020;"/><path d="M311.248,205.758c0.025-0.041,0.026-0.074,0.047-0.112c-0.037,0.03-0.084,0.067-0.118,0.095         L311.248,205.758z" style="fill:#202020;"/><path d="M309.219,208.834c0.365-1.802,1.047-2.333,1.958-3.094c0,0-0.621-0.152-1.243-0.305         c-0.615-0.159-1.23-0.318-1.23-0.318s0.15,0.915,0.277,1.844C309.1,207.898,309.219,208.834,309.219,208.834z" style="fill:#202020;"/><path d="M188.676,192.042c0,0,0.125,0.663,0.303,1.305c0.168,0.649,0.337,1.299,0.337,1.299         c-1.31-1.06-2.107-2.192-2.553-2.708c-0.453-0.511-0.57-0.413-0.442,0.929c1.161-0.39,2.434,1.806,3.807,3.943         c0.716,1.049,1.412,2.113,2.109,2.813c0.709,0.693,1.365,1.054,1.918,0.767c0,0,0.141,0.422,0.281,0.843         c0.141,0.423,0.29,0.844,0.29,0.844c-0.273-0.405-0.429-0.387-0.692-0.794c0.481,1.71,1.276,1.9,2.143,2.143         c0.883,0.239,1.895,0.489,3.147,2.172c0.799,1.24,1.265,2.216,0.353,1.687l2.706,1.953c0.644,0.7,0.165,0.856-0.464,0.138         c0,0,0.215,0.228,0.573,0.534c0.353,0.311,0.822,0.725,1.292,1.14c0.472,0.412,0.935,0.832,1.297,1.13         c0.366,0.293,0.61,0.489,0.61,0.489l-0.076,0.03c0.805,0.173,2.387,0.787,3.157,1.065c0.762,1.05-0.659-0.186-0.603,0.25         l2.521,1.22c0.497,1.198-1.683,0.296-3.123-0.978c0.221,1.767,0.802,2.009,1.723,2.376c0.922,0.384,2.229,0.807,4.139,3         c0,0-0.601-0.289-1.179-0.616c-0.585-0.319-1.17-0.639-1.17-0.639c0.581,2.154,2.603,2.916,4.776,5.226         c-0.211-0.362-1.229-1.64-1.784-2.689c-0.565-1.041-0.694-1.825,0.738-1.271c0.611,0.611,1.506,1.318,3.172,1.675         c-0.42,0.75,1.04,1.423,2.852,2.256l-0.657,0.972c2.1,0.697,2.197,0.096,3.575,0.139c2.124,1.097,2.237,2.118,2.49,3.025         c3.558,1.602-1.942-2.319,2.39-0.848c1.404,0.799,2.724,1.176,4.125,1.508c1.428,0.246,2.952,0.433,4.876,0.52         c2.069,0.89-0.544,0.605,0.155,1.109l2.127-0.463c0.464,0.129,0.256,0.374,0.15,0.498c1.7-0.052,0.371-1.112,2.954-0.97         c0.224-0.288,0.635-0.251,1.188-0.069c0.555,0.165,1.25,0.484,2.034,0.809c1.555,0.69,3.507,1.198,5.139,0.608         c0.771,0.364-0.417,0.695-0.201,1.152c2.243-0.399,3.181-0.564,4.026-0.754c0.84-0.232,1.59-0.509,3.342-1.197         c0,0,0.191,0.042,0.479,0.105c0.288,0.05,0.673,0.117,1.057,0.184c0.775,0.132,1.551,0.265,1.551,0.265         c-1.157-0.35-1.026-0.838-0.331-1.367c0.349-0.267,0.839-0.532,1.384-0.817c0.544-0.301,1.143-0.603,1.717-0.89         c-0.816-0.322-1.5-0.608-1.948-0.728c0,0,0.926-0.275,1.852-0.55c0.459-0.137,0.919-0.274,1.263-0.376         c0.345-0.096,0.569-0.188,0.569-0.188c0.479,0.104,0.173,0.58-0.377,1.151c0.246-0.122,0.474-0.272,0.649-0.389         c1.416,0.184,0.845,0.969-0.047,1.788c-0.507-0.149-1.011-0.345-1.495-0.524c-0.854,0.821-1.679,1.715-1.401,2.366         c0.243-0.166,0.725-0.343,1.26-0.477c-0.23,0.223-0.373,0.414-0.24,0.514c0.15,0.105,0.535-0.203,1.139-0.58         c0,0,0.272,0.292,0.545,0.584c0.275,0.288,0.552,0.576,0.552,0.576l0.14-0.548c0,0,1.335-0.032,2.671-0.064         c0.674-0.004,1.339-0.068,1.841-0.103c0.504-0.038,0.839-0.063,0.839-0.063c3.412-2.182,5.964-4.818,11.019-7.551         c-0.944,1.438,0.319,1.558,0.696,2.627c-0.987-0.248-1.996,0.284-3.152,1.004c-1.166,0.678-2.498,1.523-4.016,1.868         c1.582-0.354,1.406,0.238,1.069,0.56c0,0,1.233-0.704,2.467-1.408c0.615-0.339,1.2-0.75,1.648-1.025         c0.444-0.285,0.74-0.474,0.74-0.474c0.223,0.892,1.366,0.24,2.839-0.036c-0.868-0.608-0.048-1.311,1.197-2.034         c1.226-0.764,2.884-1.589,3.719-2.375c0.421,0.47,0.264,1.302-2.267,2.412c1.657-0.09,2.319-0.986,2.871-1.976         c0.563-0.986,1.099-1.918,2.642-2.207c-0.547,0.376-0.908,0.467-0.976,0.865c1.056-1.244,4.435-2.966,3.995-2.044         c0,0-0.135,0.099-0.27,0.197c-0.139,0.093-0.277,0.186-0.277,0.186c0.953-0.571,2.102-1.375,3.304-2.249         c1.148-0.944,2.396-1.905,3.404-2.96c2.092-2.029,3.47-4.084,3.173-4.835c0.175,0.109,0.895,1.725,0.913,2.14         c0,0,0.13-0.575,0.326-1.438c0.166-0.881,0.375-2.043,0.562-3.184c0.205-1.126,0.306-2.306,0.406-3.148         c0.087-0.845,0.145-1.409,0.145-1.409c0.561,1.384,4.756,1.375,2.907,4.657c0.421-0.341,0.891-0.727,1.395-1.278         c0.491-0.561,0.988-1.314,1.5-2.338c-0.605,0.465-2.616,0.217-2.112-0.62c2.831-1.195,1.747-0.97,4.729-2.961         c-0.865,0.722-1.862-1.428-0.936-2.793c0.12,0.391,1.809,0.993,1.651,1.64c0,0,0.142-1.169,0.283-2.339         c0.11-1.173,0.176-2.335,0.176-2.335c-0.2,1.087,1.404,1.039,2.393,0.48c-0.532,0.217,1.793-3.255,2.093-4.389         c-0.001,0-0.294,0.364-0.613,0.712c-0.312,0.35-0.624,0.7-0.624,0.7c2.398-4.226-0.565-5.45,1.139-9.68         c0.225,0.656,1.992,2.227,3.019,0.002c-0.32-0.698-1.098-2.249-1.881-4.091c-0.721-1.834-1.479-3.945-1.445-5.919         l0.719-0.623c0,0-0.036-0.771-0.071-1.542c-0.019-0.382-0.036-0.764-0.05-1.051c-0.026-0.288-0.043-0.479-0.043-0.479         c0.348,0.521,0.696,1.263,1.107,2.16c0.39,0.893,0.857,1.947,1.193,3.035c0.352,1.09,0.707,2.243,0.958,3.327         c0.232,1.079,0.409,2.101,0.506,2.942c0.946-1.612,0.827-0.286,1.5-2.936c0.376-0.404,0.517,0.015,0.498,0.63         c-0.021,0.614-0.168,1.43-0.264,1.827c0,0,0.132-0.382,0.33-0.954c0.206-0.571,0.459-1.338,0.673-2.118         c0.226-0.778,0.451-1.556,0.621-2.139c0.179-0.583,0.255-0.98,0.255-0.98c-0.626,0.021-0.71-1.247-0.773-2.496         c-0.037-1.248-0.197-2.499-0.699-2.443c0,0,0.024,0.435,0.062,1.086c0.039,0.654,0.021,1.52,0.034,2.396         c0.043,1.756-0.071,3.513-0.071,3.513c-0.642-0.004-1.214-1.165-1.609-2.826c-0.2-0.833-0.334-1.789-0.357-2.798         c-0.05-1.013-0.03-2.086,0.164-3.153c0.625-1.053,2.06,1.068,2.475,1.042c-0.289-0.632-0.397-4.291-0.076-4.679l0.51,1.939         c0.674-2.491-1.357-4.12-0.184-7.075c0.051-1.016,1.503-3.15,0.76-3.301c-1.334,1.788-5.656,2.158-6.727,1.175         c0.134-0.317,1.007-5.088,1.485-6.308c0.878-1.781,2.9,2.129,3.658,0.634c-0.34-0.025-0.865-0.896-1.046-1.258         c0.137-1.098,1.108,0.3,0.612-1.996c-1.293-0.185-0.729-4.681-1.228-0.91c-0.729-2.16-0.189-2.409-0.842-4.997         c-0.305,0.512-1.066,0.078-1.939-0.687c-0.878-0.766-1.758-1.888-2.263-2.866c0.342,0.027,0.576-0.563,0.677-0.85         c-1.316-4.302-1.777-6.771-3.674-10.575c0.097-0.483-0.539-2.49,0.339-1.965c-0.494-0.439-1.149-0.723-1.83-1.851         c-0.357-2.772,1.62,2.484,1.762,0.144c-0.356,0.104-1.004-0.523-1.724-1.344c-0.758-0.799-1.609-1.782-2.303-2.448         c-0.306,0.554,0.229,1.485,1.018,2.454c0.786,0.97,1.745,2.042,2.424,2.747c-1.368,0.741-4.262-1.317-7.271-4.366         c-2.262-2.523-0.051-1.785-0.566-2.133c-0.937-1.301-1.74-2.128-2.479-2.673c-0.754-0.532-1.409-0.816-2.017-1.086         c-0.601-0.277-1.171-0.525-1.774-0.974c-0.608-0.445-1.181-1.155-1.934-2.245c-0.824-2.138,1.283-1.467,1.441-2.291         c1.169,0.824,1.785,1.749,2.314,2.578c0.537,0.825,0.918,1.623,1.548,2.332c0,0-0.296-0.519-0.593-1.038         c-0.292-0.525-0.626-1.018-0.626-1.018c0.88,0.402,2.27,1.715,2.74,2.665c-0.126-0.481-0.636-1.254-1.372-2.21         c-0.754-0.94-1.77-2.032-2.878-3.174c-2.237-2.271-4.964-4.596-6.748-6.464c-0.912-0.304-2.392-0.898-2.018-0.163         c0,0,0.344,0.203,0.688,0.406c0.35,0.197,0.68,0.422,0.68,0.422c0.332,0.771-0.41,0.507-1.087,0.293         c-0.68-0.213-1.265-0.423-0.567,0.299c-2.037-0.786-4.394-1.368-6.675-3.196l0.08-1.241         c-0.109,0.328,1.344,1.503,2.199,1.688c-0.635-0.138-1.413-1.014-2.285-1.809c-0.855-0.815-1.849-1.463-2.781-1.118         c0,0,0.368,0.406,0.736,0.812c0.371,0.396,0.717,0.824,0.717,0.824c-1.04-0.263-2.282-0.375-3.489-0.643         c-1.229-0.228-2.457-0.545-3.542-1.218c0.613,1.467,0.594,0.126,1.681,2.027c-0.374-1.03,1.105-0.412,2.414,0.305         c1.323,0.674,2.542,1.322,1.837-0.003c0.88,2.217,2.5,2.097,3.799,4.481c0.139-0.346-0.323-1.047,1.335,0.239         c0.137-0.034,0.396-0.017,0.558-0.001c0.045,0.048,0.061,0.064,0.1,0.105c-0.025-0.038-0.044-0.066-0.069-0.103         c0.105,0.007,0.118,0.002-0.027-0.038c-0.312-0.43-0.551-0.805-0.577-1.065c1.354-0.138,4.12,1.88,5.276,2.287         c0.896,0.927-0.683,0.001-0.379,0.74c0,0,0.44,0.138,0.881,0.276c0.448,0.132,0.873,0.298,0.873,0.298         c-0.382,0.751,1.64,3.218-0.896,1.654c0,0,0.492,0.438,0.985,0.877c0.246,0.219,0.492,0.438,0.678,0.603         c0.185,0.164,0.298,0.284,0.298,0.284c0.406,0.706,0.958,1.454,1.559,2.107c0.589,0.665,1.192,1.27,1.775,1.622         c0.746,0.984,2.751,1.751,1.576,1.34c0,0,0.775,0.7,1.55,1.4c0.742,0.737,1.484,1.474,1.484,1.474l-0.139,0.155         c0.631,0.808,1.276,1.62,1.971,2.426c0.713,0.792,1.389,1.637,2.051,2.518c1.325,1.754,2.448,3.774,2.834,6.196         c0.42,0.56,0.808,1.151,1.196,1.874c0.383,0.725,0.811,1.563,1.104,2.69l-0.492,0.679c0.219,0.385,0.408,0.901,0.584,1.462         c0.162,0.566,0.281,1.188,0.421,1.769c0.134,0.582,0.278,1.125,0.438,1.558c0.143,0.438,0.315,0.761,0.543,0.891         c-0.327,0.59-0.374,1.392-0.249,2.312c0.075,0.933,0.315,1.987,0.615,3.071c0.265,1.094,0.539,2.225,0.792,3.267         c0.194,1.055,0.348,2.027,0.361,2.793l0.934,0.016c0.087,1.062,0.192,2.099,0.391,3.199c0.173,1.108,0.356,2.283,0.564,3.609         l0.811-0.169c0.34,1.163,0.156,2.676-0.138,4.325c-0.173,0.824-0.366,1.685-0.527,2.565c-0.168,0.88-0.375,1.773-0.46,2.684         c-0.278-0.289-0.081-1.191,0.189-1.821c-0.607,1.03-0.855,2.112-1.026,3.218c-0.192,1.102-0.17,2.252-0.226,3.388         c-0.071,1.13-0.073,2.279-0.292,3.342c-0.227,1.06-0.539,2.069-1.164,2.909c-0.033,1.024-0.361,1.676-0.774,2.261         c0.027-0.087,0.039-0.17,0.038-0.246c-0.043,0.092-0.092,0.233-0.14,0.379c-0.26,0.369-0.597,0.72-0.891,1.123         c0.332-0.311,0.642-0.617,0.824-0.916c-0.249,0.717-0.588,1.819-0.811,2.956l-0.989,0.104         c-0.029,0.086-0.054,0.156-0.084,0.246c-0.749,0.869,0.012,0.978,0.862,0.7c-0.104,0.58-0.164,1.131-0.142,1.594         c-1.612,0.233-0.911,2.915-2.802,3.323c0.143,0.51-0.456,1.811-0.953,3.165c-0.55,1.321-1.028,2.686-0.552,3.382         c-0.188-0.078-0.453,0.156-0.126-0.379c-0.857,0.987-1.771,1.905-2.085,3.119l-1.225-0.239l-0.566,3.142         c-1.657,0.875-2.395,1.123-1.953-0.695c-0.813,1.958-1.278,2.673-1.718,3.287c-0.447,0.615-0.768,1.231-1.592,2.9         l-0.38-0.634c-0.439,0.438-0.854,1.177-1.283,1.822c-0.437,0.635-0.913,1.146-1.39,1.173         c-1.485,0.425-4.16,2.556-7.476,4.738c-3.308,2.179-7.331,4.315-10.832,5.091c1.043,0.676,0.212,0.842-0.866,0.935         c-1.075,0.103-2.336,0.218-2.183,1.041c-0.56-0.312-1.581-0.286-0.655-1.053c-1.609,0.786-2.93,1.085-4.115,1.295         c-1.181,0.239-2.172,0.578-3.225,1.506c-0.513-0.399,0.573-0.887,0.148-1.095c-0.249,0.168-0.999,0.678-1.424,0.469         c-0.414-0.211,0.415-0.528,0.904-0.866c-0.868,0.219-1.519,0.496-2.017,0.782c-0.501,0.271-0.842,0.582-1.075,0.917         c-0.468,0.671-0.502,1.438-0.515,2.178c-1.981-0.325-2.88-0.198-4.145,0.949c-0.355-0.185-0.819-0.402-0.905-0.6         c-0.087-0.206,0.206-0.365,1.338-0.607c-0.645,0.084-2.637,0.034-4.461,0.153c-1.83,0.02-3.512,0.212-3.583,0.777         c-0.408-0.306-1.821-0.133-2.172-0.007c-1.467-0.047-2.256-0.205-3.043-0.272c-0.788-0.069-1.567-0.138-3-0.264l0.771,0.29         c-1.295,1.229-2.447,0.065-4.759-0.215l0.092-0.13c-0.637-0.243-1.149-0.42-1.568-0.558c-0.416-0.156-0.74-0.261-1.005-0.332         c-0.529-0.143-0.82-0.152-1.108-0.166c-0.288-0.014-0.574-0.031-1.091-0.189c-0.512-0.174-1.25-0.52-2.428-1.152l0.028,0.916         c-0.502,0.843-1.579,0.247-2.859-0.656c-1.307-0.847-2.757-2.073-4.318-2.293l0.842,0.868         c-0.913,0.008-1.753-1.066-2.493-2.23c-0.759-1.138-1.381-2.433-2.046-2.909c-0.24-0.306,0.616,0.021,1.106,0.137         c-3.235-2.931-1.032,0.824-3.956-0.509c-0.202-0.827,1.42-0.994-0.354-2.145c-0.343-0.449-1.863-0.874-3.6-1.48         c-0.839-0.344-1.722-0.744-2.502-1.223c-0.779-0.48-1.408-1.1-1.803-1.773c0.207,0.767,0.434,1.549-0.971,0.899         c-0.984-0.62-1.833-2.035-2.798-3.219c-0.894-1.271-1.913-2.32-3.142-2.568c-0.108-0.302-0.094-0.467-0.018-0.558         c-1.52-0.956-4.29-3.785-5.557-4.16c0.659-1.57-1.26-3.481-2.966-5.399c-1.74-1.885-3.212-3.772-2.003-4.411         c0,0-0.185-0.282-0.431-0.722c-0.242-0.442-0.565-1.032-0.888-1.622c-0.324-0.59-0.654-1.178-0.862-1.638         c-0.22-0.454-0.367-0.757-0.367-0.757l0.316,0.01c-0.645-1.59-1.173-2.62-1.703-3.364c-0.534-0.742-1.086-1.188-1.584-1.662         c-0.079-0.826,0.355-0.354,0.513-0.341c-0.577-2.474-0.812-3.833-1.292-5.031c-0.253-0.596-0.5-1.167-0.856-1.826         c-0.342-0.662-0.83-1.403-1.356-2.393l0.808-0.607c-0.352-0.518-0.374-2.383-0.336-4.693         c-0.007-2.312,0.066-5.045-0.494-7.503c0.104,0.047,0.281,0.148,0.419,0.536c-0.338-1.376-0.194-2.905-0.049-4.429         c0.269-1.519,0.555-3.042,0.937-4.428c0.344-1.393,0.612-2.67,0.686-3.756c0.051-1.088-0.205-2.008-0.874-2.674         c0,0,0.01-0.944,0.021-1.889c-0.008-0.954,0.069-1.899,0.069-1.899c-0.753,2.291-0.997,2.059-1.277,1.433         c-0.266-0.619-0.462-1.617-0.963-0.693c0.317-1.955,2.31-4.549,1.818-2.224l-0.259,0.31c0.731,0.655,1.208-0.771,1.827-2.235         c0.294-0.738,0.578-1.501,0.854-2.047c0.303-0.537,0.591-0.855,0.851-0.721c1.636-4.395,3.947-8.453,6.587-12.132         c2.643-3.686,5.608-6.998,8.638-10.087l-1.661-0.188c0,0,0.545-0.544,1.09-1.089c0.534-0.556,1.117-1.06,1.117-1.06         c0.807-0.332,1.488,0-0.094,1.471c1.331-0.257,2.178-2.971,2.05-3.234c3.582-2.388-0.222,2.243,0.802,1.411         c0,0,0.306-0.313,0.622-0.615c0.314-0.305,0.629-0.61,0.629-0.61l-0.401,0.142c0.723-1.334,0.424-1.905,2.543-3.463         c1.467-0.814,1.158,0.125,1.714-0.215c0.053,0.078,0.256-0.012,0.83-0.542c0,0,0.792-0.527,1.584-1.054         c0.816-0.489,1.632-0.978,1.632-0.978l-1.862-0.056c1.156-1.355,3.097-1.921,0.952-1.959         c0.406,0.022,0.888-0.104,1.471-0.259c0.289-0.083,0.595-0.186,0.915-0.307c0.159-0.063,0.322-0.127,0.49-0.194l0.236-0.097         l0.091-0.017c0.491-0.095,0.984-0.354,1.48-0.59c0.979-0.493,1.854-1.112,2.205-0.972c0.336-1.035,1.05-1.312,1.932-1.619         c-0.299-0.105-0.915-1.123-0.108-1.329c0.354,1.178,0.797,1.268,1.307,1.233c0.514-0.023,1.114-0.148,1.735,0.546         c-0.967-0.869,1.988-1.093,0.564-2.307c0.695-0.063,0.36,0.839,1.028,1.192c1.183-1.4,3.465-0.569,5.225-1.359         c-0.055-0.317-0.504-0.698-0.227-1.272l1.404,1.264c0.323-0.255-0.112-1.875,0.841-0.958c-0.16-0.24-0.403-0.6-0.173-0.758         c1.033,0.172,1.989,0.037,2.946-0.142c0.958-0.171,1.902-0.458,2.86-0.706c0.964-0.2,1.944-0.353,2.938-0.309         c0.993,0.043,2.01,0.378,3.011,1.025c-0.56-0.58-0.22-0.667,0.178-0.721c-0.269-0.128-0.044-0.789-0.123-1.218         c0,0,0.426,0.269,0.852,0.539c0.42,0.291,0.84,0.581,0.84,0.581c0.254-1.21,1.737-0.125,1.89-1.281l-0.518,0.221         c0.686-1.377-1.048-2.994-1.016-4.739c-0.388,0.786-0.945,0.218-1.586-0.24c-0.636-0.442-1.362-0.793-1.956,0.36         c-0.329-0.332,0.212-0.58,0.02-0.97c-0.291,0.771-0.687,0.958-1.492,0.684l0.069-0.19c-1.077,0.202-1.862,0.18-2.704,0.057         c-0.423-0.066-0.855-0.134-1.341-0.21c-0.485-0.052-1.024-0.096-1.658-0.108l0.329,0.818         c-0.541-0.021-0.699-0.267-0.984-0.436c-0.361,1.392,1.48-0.189,1.182,1.328c-0.489-0.804-1.413-0.646-2.31-0.522         c-0.892,0.153-1.754,0.294-2.215-0.625c-0.805,0.175,0.46,0.918-0.339,1.09l-0.338-0.475l-0.036,0.722         c-0.546,0.009-0.978-0.585-1.112-1.02c0.141,0.021,0.333-0.209,0.46-0.28c-0.85-0.468-1.862,0.738-2.148,0.594l0.854,0.104         c-2.025,1.062-4.873,1.246-6.514,3.041l0.295,0.322c-1.244,1.3-1.381,0.06-2.922,1.049l0.022-0.116         c-0.17,0.521-0.522,0.904-0.985,1.063c0.222-0.623-1.157-0.493-0.829-1.22c-1.293,1.473-0.551,0.943-0.956,2.792         l-0.532-0.485c-0.085,0.728,0.029,1.032-0.673,1.587c0.384-0.847-0.973-0.657-0.59-1.713         c-1.176-0.227-1.641,0.428-2.008,0.944c-0.18,0.269-0.341,0.502-0.569,0.577c-0.114,0.038-0.246,0.036-0.406-0.02         c-0.04-0.014-0.082-0.032-0.125-0.053l-0.067-0.034l-0.147,0.004c-0.199,0.002-0.406-0.011-0.623-0.042         c-0.366,0.749-0.227,1.013,0.156,1.014c0.344,0.022,1.188-0.366,1.229-0.346c0.429-0.159,0.81-0.501,0.697-0.207         c0.321,0.167,0.334,0.562,0.199,0.928c-0.068,0.183-0.174,0.359-0.3,0.497c-0.032,0.035-0.064,0.066-0.098,0.096         c-0.11,0.07-0.218,0.139-0.324,0.206c-0.229,0.137-0.453,0.256-0.662,0.35c-0.823,0.431-1.793,0.348-3.086,0.483         c-0.643,0.072-1.383,0.174-2.186,0.47c-0.799,0.302-1.687,0.761-2.665,1.469c0.396-0.272,0.339-0.404,0.735-0.676         c-0.887,0.32-1.496,0.995-2.15,1.676c-0.655,0.685-1.393,1.329-2.468,1.776c-0.198,1.668-2.23,1.831-1.497,3.157         c0,0,0.184-0.203,0.46-0.506c0.288-0.292,0.673-0.68,1.058-1.069c0.386-0.389,0.772-0.778,1.062-1.07         c0.287-0.296,0.49-0.48,0.49-0.48c-0.832,0.945-1.397,2.126-2.19,3.306c-0.741,1.243-1.77,2.414-3.423,3.61         c0.013-0.418,0.542-1.584,1.013-2.296c-1.173,0.515-1.393,1.84-2.571,2.421c-0.404-0.611,0.451-1.653,1.574-2.838         c1.157-1.155,2.536-2.483,3.218-3.757c-1.442,0.367-3.026,4.235-3.129,2.159c-0.01,0.699-0.243,1.232-0.595,1.712         c-0.34,0.491-0.812,0.918-1.323,1.368c-1.042,0.875-2.174,1.936-2.661,3.657l-0.52-0.72         c-0.251,0.473-0.602,1.573-1.201,2.309l0.202-2.067c-0.457,1.359-1.423,2.223-2.406,3.091         c-0.945,0.889-1.974,1.734-2.47,2.96c3.073-4.451,1.546-0.403,3.358-1.88c-1.444,2.976-2.363,3.458-3.492,3.99         c-1.12,0.522-2.4,1.125-4.004,4.529c0.321-0.99,2.321-3.055,1.866-1.499c-0.889,1.116-1.979,2.656-2.8,3.229         c-1.945,4.563,1.096-0.313,0.694,1.823c-1.623,1.086-0.654,2.351-1.088,4.444l-0.821-0.312         c-1.305,2.486-0.927,3.02-0.619,3.438c0.337,0.433,0.625,0.762-0.422,3.016c0,0-0.165-0.593-0.28-1.182         c-0.121-0.594-0.242-1.188-0.242-1.188s-0.134,0.643-0.268,1.286c-0.105,0.649-0.21,1.298-0.21,1.298l-0.809-0.805         c-0.033,1.488-0.171,2.415-0.39,3.317c-0.2,0.906-0.522,1.774-0.973,3.112c0.376-0.254,0.743-0.081,0.958,0.45         c0.233,0.535,0.329,1.424,0.129,2.621c-0.403,0.773-0.568,0.514-0.693,0.484c-0.119-0.028-0.236,0.174-0.382,1.908         c-0.455-0.846-1.022-1.83,0.061-3.192c-0.255-0.203-0.405-0.867-0.654-1.08c-0.447,0.847-0.714,1.979-0.819,3.06         c-0.097,1.083-0.108,2.104-0.184,2.74c0.094-0.486,0.215-1.065,0.377-1.348c0,0,0.036,0.326,0.088,0.815         c0.061,0.489,0.106,1.134,0.223,1.782c0.207,1.283,0.415,2.566,0.415,2.566c-0.389,0.771-0.606,0.132-0.817-0.515         c0.001,1.035,0.388,1.765,0.43,3.269c-0.694-0.409-1.461-0.328-1.701-2.522c0,0,0.015,0.31,0.084,0.774         c0.063,0.462,0.146,1.079,0.229,1.696c0.084,0.612,0.168,1.225,0.231,1.684c0.07,0.458,0.134,0.762,0.134,0.762         c-0.303,0.322-0.789,2.532-1.068,1.904c-0.208,1.38,0.302,3.048,0.76,4.793c0.229,0.874,0.536,1.762,0.727,2.662         c0.194,0.9,0.321,1.809,0.359,2.715c0.169,0.161,0.366,0.508,0.6,1.239c0.18,1.678,0.362,3.269,0.605,4.937         c0.355,1.635,0.791,3.356,1.933,5.084c0,0-0.12,0.643-0.24,1.286c-0.119,0.647-0.226,1.301-0.226,1.301         c1.423,2.826,0.392-3.405,2.741,1.247c0.844,1.624,0.777,2.02,0.448,2.214c-0.319,0.189-0.85,0.14-0.745,0.806         c0.688,0.708,1.604,1.669,2.534,2.813c0.453,0.579,0.879,1.22,1.231,1.935c0.375,0.703,0.694,1.47,0.888,2.334         C189.535,193.767,189.223,192.934,188.676,192.042z M214.757,219.593c-0.727-0.231-2.288-0.585-2.425-1.343         C213.589,217.922,213.843,218.674,214.757,219.593z M270.01,227.886c-0.465,0.392-1.318,0.389-2.291,0.228         C268.372,227.921,269.129,227.829,270.01,227.886z M301.669,109.1c0.029,0.009,0.051,0.015,0.081,0.018         C302.57,110.375,302.288,109.922,301.669,109.1z M299.689,106.732c-0.315-0.11-0.379-0.004-0.362,0.172         c0.308-0.026,0.849,0.403,1.363,1.001C300.685,107.593,300.523,107.177,299.689,106.732z M215.579,102.409l-0.627,0.164         C215.914,101.58,215.736,101.986,215.579,102.409z" style="fill:#202020;"/><path d="M263.828,230.081c-0.222-0.121-0.297-0.277-0.363-0.435         C263.198,229.828,263.209,229.999,263.828,230.081z" style="fill:#202020;"/><path d="M180.531,169.543l-0.01-0.118c-0.063-0.055-0.122-0.08-0.177-0.091L180.531,169.543z" style="fill:#202020;"/><path d="M328.924,146.845c-0.037,0.714-0.147,1.12-0.28,1.396         C328.862,148.254,329.003,147.918,328.924,146.845z" style="fill:#202020;"/><path d="M285.655,98.811c0,0,0.454,0.171,0.908,0.342c0.445,0.19,0.891,0.381,0.891,0.381         c-0.826-0.434-1.027-0.76-1.387-1.092C286.011,98.643,286.197,99.071,285.655,98.811z" style="fill:#202020;"/><path d="M278.98,89.964c-0.127,0.07-0.197-0.054-0.323,0.018l-0.11,0.393         C278.939,90.48,279.322,90.262,278.98,89.964z" style="fill:#202020;"/><path d="M285.359,95.382c0.195-0.754-1.077-1.057-2.42-1.51c0.078,0.033,0.153,0.06,0.228,0.103         C282.367,94.763,283.873,95.024,285.359,95.382z" style="fill:#202020;"/><path d="M282.63,93.761c-0.205-0.074-0.411-0.152-0.612-0.238l-0.303-0.124l-0.142-0.063l-0.043-0.028         c-0.052,0.091-0.069,0.145-0.063,0.175c0.007,0.031,0.012,0.026,0.162,0.063C281.881,93.591,282.255,93.65,282.63,93.761z" style="fill:#202020;"/><path d="M296.399,104.618c-0.394-0.551-0.9,0.493-1.002,0.031         C294.24,104.937,299.492,106.417,296.399,104.618z" style="fill:#202020;"/><path d="M285.371,92.688l0.081,1.037l1.045-0.295c0,0-0.278-0.192-0.556-0.384         C285.656,92.866,285.371,92.688,285.371,92.688z" style="fill:#202020;"/><path d="M294.951,98.967c0,0-0.426-0.398-0.884-0.752c-0.452-0.365-0.904-0.729-0.904-0.729         c-0.054,0.147-0.349,0.064-0.688-0.071C293.662,98.196,294.854,99.203,294.951,98.967z" style="fill:#202020;"/><path d="M292.476,97.414c-0.607-0.423-1.22-0.772-1.657-0.839         C291.176,96.754,291.921,97.18,292.476,97.414z" style="fill:#202020;"/><path d="M288.344,93.87l0.524,0.482c0,0,0.354,0.211,0.701,0.433c0.349,0.219,0.696,0.439,0.696,0.439         s-0.475-0.347-0.949-0.694C288.843,94.18,288.344,93.869,288.344,93.87z" style="fill:#202020;"/><path d="M312.346,116.401c0,0,0.418,0.475,0.836,0.949c0.414,0.478,0.798,0.98,0.798,0.98         c0.395,0.051,0.202-0.651-0.439-1.356C313.008,116.603,312.368,115.912,312.346,116.401z" style="fill:#202020;"/><path d="M309.51,108.797c0.317,0.656,0.194,0.825,0.225,1.317l0.91-0.675L309.51,108.797z" style="fill:#202020;"/><path d="M314.437,114.577c0.4,0.021,2.95,2.6,0.956-0.086         C314.98,114.447,313.253,112.469,314.437,114.577z" style="fill:#202020;"/><polygon points="326.263,151.187 326.199,150.539 324.359,150.789        " style="fill:#202020;"/><path d="M325.015,186.133c1.596-2.833-0.778-1.133,0.792-3.623c-0.136-0.842-1.281,2.03-1.354,1.18         C324.196,185.641,323.541,186.474,325.015,186.133z" style="fill:#202020;"/><path d="M324.452,183.69c0.045-0.311,0.079-0.644,0.093-1.005         C324.452,183.238,324.439,183.513,324.452,183.69z" style="fill:#202020;"/><polygon points="253.653,90.45 254.232,90.822 253.852,90.208        " style="fill:#202020;"/><path d="M254.744,89.047l0.144,1.178l0.345-1.078C255.1,89.202,254.846,89.311,254.744,89.047z" style="fill:#202020;"/><path d="M218.499,224.596l0.278-0.177c-0.146-0.416-0.553-0.69-1.382-1.218L218.499,224.596z" style="fill:#202020;"/><polygon points="197.099,206.082 197.398,206.466 197.622,205.09        " style="fill:#202020;"/><path d="M183.498,186.434c0.317,0.939,1.045,1.885,1.402,2.808c-0.531-0.939-0.61-1.834-0.692-2.39         C184.141,186.289,184.066,186.055,183.498,186.434z" style="fill:#202020;"/></g></g></g></g></g></g></g><g id="Layer_1"/></svg>