<?xml version="1.0" ?><!DOCTYPE svg  PUBLIC '-//W3C//DTD SVG 1.1//EN'  'http://www.w3.org/Graphics/SVG/1.1/DTD/svg11.dtd'><svg height="512px" style="enable-background:new 0 0 512 512;" version="1.1" viewBox="0 0 512 512" width="512px" xml:space="preserve" xmlns="http://www.w3.org/2000/svg" xmlns:xlink="http://www.w3.org/1999/xlink"><g id="_x32_06"><g><g><g><g><g><g><path d="M326.015,110.566c0.275,0.22,0.559-0.491,0.677-0.583         C326.068,109.842,325.932,110.746,326.015,110.566z" style="fill:#202020;"/><polygon points="320.393,110.068 320.566,109.792 319.65,110.345        " style="fill:#202020;"/><path d="M315.856,109.129c0.249,1.36,1.676,0.027,2.412,0.651l0.069,0.322l0.59-0.93         c-0.517-0.06-1.132,0.045-1.688,0.12C316.682,109.355,316.182,109.362,315.856,109.129z" style="fill:#202020;"/><path d="M313.523,106.122c0.144,0.516-0.597,0.398,0.616,0.198c-0.057-0.059-0.072-0.092-0.105-0.134         C313.926,106.186,313.776,106.174,313.523,106.122z" style="fill:#202020;"/><path d="M314.034,106.186C314.568,106.183,313.711,105.738,314.034,106.186L314.034,106.186z" style="fill:#202020;"/><path d="M311.57,106.425l0.706-0.467c-0.147-0.296-0.795-0.348-0.558-0.571         C310.975,105.653,311.149,105.946,311.57,106.425z" style="fill:#202020;"/><path d="M310.942,107.391l0.348-0.201C311.225,107.067,311.126,107.026,310.942,107.391z" style="fill:#202020;"/><path d="M312.043,106.768l-0.753,0.422c0.107,0.208,0.123,0.628,0.344-0.154         C311.58,107.422,311.719,107.048,312.043,106.768z" style="fill:#202020;"/><path d="M312.475,106.957c0.389,0.264,0.855,0.488,0.18,0.906         C313.922,107.755,313.8,106.809,312.475,106.957z" style="fill:#202020;"/><path d="M315.468,110.428l0.403,0.447l0.451-0.371C316.099,110.688,315.489,110.02,315.468,110.428z" style="fill:#202020;"/><path d="M306.983,106.177c0.006,0.278,0.38,0.69,0.492,1.031l0.478-0.385         C307.652,106.672,307.098,106.574,306.983,106.177z" style="fill:#202020;"/><path d="M307.476,107.208c0,0-0.175,0.146-0.35,0.292c-0.178,0.166-0.355,0.331-0.355,0.331         C307.499,107.695,307.565,107.523,307.476,107.208z" style="fill:#202020;"/><path d="M310.888,108.835c0,0,0.288-0.257,0.576-0.514c0.299-0.257,0.598-0.514,0.598-0.514         s-0.356,0.262-0.713,0.523c-0.344,0.262-0.687,0.525-0.687,0.525L310.888,108.835z" style="fill:#202020;"/><path d="M305.2,106.585c0,0-0.002-0.16-0.005-0.319s-0.029-0.321-0.029-0.321         c0.042,0.003,0.023,0.967,0.002,0.967L305.2,106.585z" style="fill:#202020;"/><path d="M304.038,106.697c0.271-0.53-0.371-0.897-0.085-1.223c-0.443,0.095-0.822,0.55-1.163,0.959         C303.152,106.205,303.538,106.264,304.038,106.697z" style="fill:#202020;"/><path d="M302.218,107.029c0.181-0.127,0.368-0.354,0.572-0.596         C302.598,106.555,302.408,106.731,302.218,107.029z" style="fill:#202020;"/><path d="M305.623,107.986c-0.052-0.159-0.177-0.577-0.268-0.739c0,0,0.044,0.188,0.087,0.376         c0.051,0.187,0.102,0.374,0.102,0.374C305.568,107.994,305.596,107.99,305.623,107.986z" style="fill:#202020;"/><path d="M305.552,108.021l-0.008-0.023c-0.086,0.006-0.14,0.011-0.175-0.004         C305.399,108.005,305.447,108.008,305.552,108.021z" style="fill:#202020;"/><path d="M305.644,107.984l-0.021,0.002C305.647,108.059,305.658,108.082,305.644,107.984z" style="fill:#202020;"/><path d="M308.909,108.298c-0.398,0.489-1.186,1.064-0.248,1.609         C308.891,109.34,308.338,109.031,308.909,108.298z" style="fill:#202020;"/><path d="M306.093,108.87l0.849-0.033c-0.057-0.197-0.272-0.452-0.09-0.72L306.093,108.87z" style="fill:#202020;"/><path d="M305.914,109.172c0,0,0.025-0.071,0.051-0.142c0.007-0.067,0.145-0.166,0.128-0.161         c0,0-0.075,0.002-0.149,0.005c-0.032-0.008-0.064-0.016-0.064-0.016L305.914,109.172z" style="fill:#202020;"/><path d="M303.391,107.757c-0.296,0.338-0.619,0.367-0.984,0.422c0.392,0.153,0.796,0.234,1.181,0.233         C303.641,108.168,303.81,107.73,303.391,107.757z" style="fill:#202020;"/><path d="M304.845,107.973c-0.021,0.014-0.047,0.032-0.065,0.044         C304.819,108.083,304.852,108.105,304.845,107.973z" style="fill:#202020;"/><path d="M298.81,108.173c0.021,0.048,0.038,0.091,0.059,0.141c0.004-0.045,0.008-0.081,0.013-0.134         L298.81,108.173z" style="fill:#202020;"/><path d="M303.652,108.557c0.294,0.15,0.47-0.04,0.638-0.28c-0.22,0.079-0.453,0.129-0.703,0.135         C303.563,108.523,303.558,108.596,303.652,108.557z" style="fill:#202020;"/><path d="M301.215,107.393c0.153,0.163,0.327,0.3,0.51,0.427         C301.574,107.575,301.269,107.19,301.215,107.393z" style="fill:#202020;"/><path d="M304.68,107.803c0.015-0.013,0.028-0.027,0.044-0.035         C304.628,107.601,304.64,107.683,304.68,107.803z" style="fill:#202020;"/><path d="M304.68,107.803c-0.151,0.112-0.271,0.304-0.39,0.474c0.179-0.061,0.345-0.145,0.489-0.259         C304.743,107.962,304.706,107.879,304.68,107.803z" style="fill:#202020;"/><path d="M297.721,113.166c0.052-0.721,0.825-1.387,1.493-0.614c0.657-0.54,0.228-2.911-0.346-4.237         c-0.021,0.314-0.021,0.605-0.697,1.031c0.237,0.394,1.501,0.921,0.93,1.573c-0.896,0.371-0.733-0.255-1.169-0.636         c0.37,0.898-1.14,1.307-0.945,2.627l0.786-0.465C297.787,112.65,297.502,112.978,297.721,113.166z" style="fill:#202020;"/><path d="M300.156,108.388l0.278-0.089c-0.317-0.125-0.545-0.414-0.963-0.978         c-0.463,0.352-0.559,0.62-0.591,0.859l1.37,0.101L300.156,108.388z" style="fill:#202020;"/><path d="M301.684,108.296c-0.217,0.784-0.885,1.118-0.476,1.967c0.816-0.055,0.572-0.655,1.06-0.996         c-1.317,0.194,0.379-0.437-0.573-0.881c0.259-0.133,0.491-0.174,0.712-0.207c-0.237-0.096-0.467-0.214-0.682-0.359         c0.012,0.02,0.021,0.033,0.03,0.048l0.006-0.002l-0.001,0.012c0.057,0.098,0.075,0.157,0.012,0.101         c-0.005,0.01-0.021,0.014-0.028,0.016c-0.009,0.109-0.033,0.204-0.06,0.296c-0.382-0.162-0.06-0.204,0.06-0.296         c0.005-0.039,0.015-0.075,0.017-0.117l-0.005-0.01l-1.32,0.43C300.714,108.408,301.063,108.386,301.684,108.296z" style="fill:#202020;"/><path d="M308.192,111.669c-0.054-0.063-0.062-0.118-0.075-0.173         C308.048,111.601,308.027,111.67,308.192,111.669z" style="fill:#202020;"/><path d="M307.555,111.315c0.075-0.122,0.095-0.482,0.437-0.441c0.322,0.195,0.064,0.37,0.126,0.622         c0.148-0.229,0.59-0.646-0.095-0.939l-0.08,0.118c-0.59-0.169-1.58-0.896-1.511-1.034         C306.778,110.28,307.05,110.73,307.555,111.315z" style="fill:#202020;"/><path d="M304.687,110.227l-1.099,0.384l0.56,0.679l-0.028-0.408         C304.744,111.042,304.609,110.54,304.687,110.227z" style="fill:#202020;"/><polygon points="298.685,107.783 298.83,106.955 298.195,108.125        " style="fill:#202020;"/><polygon points="297.256,107.882 297.309,107.162 296.932,107.597        " style="fill:#202020;"/><path d="M351.225,386.782l-0.199-3.229C351.087,385.08,351.153,386.062,351.225,386.782z" style="fill:#202020;"/><path d="M349.786,406.408l0.044,0.482C350.118,406.288,350.125,406.014,349.786,406.408z" style="fill:#202020;"/><path d="M127.5,254.492c3.322-2.303,6.872-4.313,6.234-4.821l-1.191,0.06         C130.537,251.886,128.933,253.329,127.5,254.492z" style="fill:#202020;"/><path d="M167.487,412.545c-0.437-0.078-0.892-0.159-1.342-0.24c-1.113,0.271-2.14,0.535-3.145,0.569         C164.399,412.989,165.898,412.701,167.487,412.545z" style="fill:#202020;"/><path d="M170.72,409.278l6.041,0.509C175.401,409.609,173.458,409.439,170.72,409.278z" style="fill:#202020;"/><path d="M350.565,259.238l-0.703-4.317C349.854,260.832,350.218,258.504,350.565,259.238z" style="fill:#202020;"/><path d="M165.699,132.457c-3.205,2.336-5.68,4.282-7.805,6.049         C161.808,135.755,165.169,133.775,165.699,132.457z" style="fill:#202020;"/><path d="M359.574,396.199c-0.148-1.886-0.312-2.699-0.487-2.653         C359.228,395.494,359.382,396.595,359.574,396.199z" style="fill:#202020;"/><path d="M149.22,145.929c0.581-0.393,1.126-0.806,1.708-1.217c2.11-1.979,4.251-3.95,6.966-6.207         C155.002,140.535,151.807,142.995,149.22,145.929z" style="fill:#202020;"/><path d="M333.834,129.531c-0.001-0.049-0.02-0.089-0.014-0.141         C333.74,129.463,333.771,129.498,333.834,129.531z" style="fill:#202020;"/><path d="M329.195,114.558c0.132,0.053,0.293,0.198,0.451,0.328         C329.609,114.778,329.481,114.67,329.195,114.558z" style="fill:#202020;"/><path d="M246.557,107.538C249.508,107.486,247.024,107.45,246.557,107.538L246.557,107.538z" style="fill:#202020;"/><path d="M260.905,110.661c-0.627,0.088-1.104,0.202-1.177,0.384         C259.971,110.854,260.382,110.733,260.905,110.661z" style="fill:#202020;"/><path d="M130.071,168.775c-0.066,0.055-0.119,0.1-0.196,0.164         C130.643,168.486,130.508,168.562,130.071,168.775z" style="fill:#202020;"/><path d="M250.996,107.897c-1.107-0.097-2.384-0.178-3.773-0.235         C247.833,107.724,248.98,107.8,250.996,107.897z" style="fill:#202020;"/><path d="M250.399,107.523c1.017,0.03,1.818,0.054,2.579,0.077         C253.35,107.468,253.021,107.386,250.399,107.523z" style="fill:#202020;"/><path d="M242.446,107.58c1.688-0.012,3.263,0.025,4.777,0.082c-0.58-0.053-0.822-0.098-0.667-0.124         C245.691,107.547,244.471,107.56,242.446,107.58z" style="fill:#202020;"/><path d="M391.396,178.935c-0.129-0.148-0.277-0.318-0.418-0.48         C388.554,176.697,389.557,177.536,391.396,178.935z" style="fill:#202020;"/><path d="M158.588,261.318c-0.014-0.13-0.021-0.2-0.034-0.318c-0.008,0.147-0.017,0.33-0.024,0.464         L158.588,261.318z" style="fill:#202020;"/><path d="M159.115,271.74c-0.879-3.992-0.768-6.655-0.585-10.276l-2.019,5.05L159.115,271.74z" style="fill:#202020;"/><path d="M351.046,331.035l-0.679,7.394c-1.091-9.577-0.688-16.19-1.646-9.313         c1.159,0.973,1.207,8.418,1.255,15.862c0.047,7.444,0.094,14.889,1.287,15.652l-0.508,4.919         c0.025-1.435-0.115-1.691-0.09-3.109c-1.162,9.585,1.729,7.547,1.389,19.977c-0.186,4.336-0.542,7.366-0.83,4.365         l0.603,9.762c-0.049,2.826-0.477,2.13-0.429-0.691c0,0,0.038,3.601,0.075,7.201c-0.001,1.089-0.396,2.126-0.814,2.832         c-0.091,0.186-0.21,0.334-0.308,0.471c-0.092,0.141-0.18,0.259-0.266,0.345c-0.157,0.185-0.247,0.29-0.247,0.29l-0.009-0.101         c-0.287,0.579-0.976,1.477-1.984,2.071c-0.488,0.327-1.052,0.529-1.589,0.707c-0.292,0.054-0.499,0.126-0.831,0.172         c-0.354,0.041-0.678,0.078-0.965,0.111c-3.7-0.354,1.855-0.262,0.908-0.57l-8.062,0.599c-1.642-0.32-0.793-0.636,1.163-0.859         c0.978-0.112,2.232-0.201,3.591-0.257c0.679-0.019,1.384-0.037,2.093-0.057c0.682-0.01,1.542-0.002,1.842-0.023         c-0.144-0.066-0.281-0.13-0.415-0.19c-0.217-0.063-0.426-0.125-0.627-0.184c-0.412-0.113-0.797-0.207-1.161-0.284         c-0.729-0.155-1.378-0.242-1.995-0.282c-1.233-0.08-2.343,0.03-3.724,0.172c-2.763,0.284-6.614,0.696-14.739-0.024         l7.611-0.314c-4.906-1.401-10.848-0.894-19.455-1.769c2.043,0.457,17.231,2.204,8.481,2.819         c-2.466-0.187-5.716-0.275-10.437,0.222c-0.044-0.879-4.652-0.662-10.42-0.612l0.394-1.165         c-6.235,0.336-5.742,0.929-9.412,1.453c-6.949-0.115-8.39-1.017-10.025-1.776c-11.13-0.185,7.685,1.446-5.487,1.666         c-9.256-0.445-15.755,0.03-26.829,0.727c-6.478-0.4,1.134-0.712-1.19-1.045l-5.742,0.929         c-1.406-0.022-0.952-0.308-0.723-0.451c-4.838,0.359-0.398,1.163-8.005,1.479c-2.051,1.282-15.617-1.874-25.033-0.418         c-2.319-0.331,1.121-0.713,0.411-1.164c-12.917,0.955-11.073,0.694-21.679,1.979l-9.035-0.764         c6.638,0.874-1.843,1.908-9.273,2.758c2.354,0.423,4.366,0.792,5.716,0.968c0,0-2.964,0.156-5.929,0.313         c-0.741,0.039-1.482,0.078-2.177,0.115c-0.733,0.025-1.5,0.013-2.115-0.077c-1.253-0.159-2.054-0.462-2.055-0.461         c-1.437-0.849,0.011-0.454,2.072-0.528c-0.42-0.026-0.826-0.102-1.212-0.151c-0.38-0.089-0.733-0.172-1.042-0.244         c-1.946-1.178-2.047-1.854-1.58-1.821c0.483,0.004,1.718,0.426,3.098,0.521c1.159,0.629,2.44,0.909,3.88,1.127         c2.93-0.707,5.669-1.489,5.059-2.171c-0.77,0.134-2.254,0.249-3.886,0.314c0.766-0.192,1.255-0.363,0.9-0.479         c-0.201-0.062-0.611-0.028-1.213,0.058c-0.585,0.092-1.358,0.213-2.301,0.361c0,0-0.124-0.088-0.309-0.22         c-0.182-0.116-0.407-0.324-0.612-0.521c-0.21-0.182-0.391-0.406-0.519-0.566c-0.125-0.155-0.207-0.259-0.207-0.259         s-0.135,0.087-0.278,0.171c-0.147,0.083-0.294,0.166-0.294,0.166c0.004-0.009-0.161-0.047-0.407-0.208         c-0.257-0.136-0.605-0.363-0.992-0.67c-0.762-0.625-1.623-1.66-2.035-2.857c-0.208-0.592-0.353-1.196-0.367-1.773         c-0.041-0.283,0.002-0.565-0.001-0.825c0.02-0.405,0.038-0.787,0.055-1.141c0.076-1.482,0.126-2.471,0.126-2.471         c-1.31-11.306-3.184-20.847-3.648-38.346c0.908,4.195,1.5,0.646,2.588,0.659c-1.161,5.074,0.483,13.734,0.249,23.063         c0.125-4.846,0.651-3.843,0.837-2.624l-1.06-16.405c0.894,0.213,0.671-3.633,1.037-8.045         c-1.757,3.643-1.163-12.047-1.686-18.584c0.579-0.604,1.17,0.82,1.03,9.077c0.655-4.713,0.142-7.513-0.386-10.235         c-0.53-2.732-1.077-5.389-0.524-10.015c0.012,1.99-0.078,3.098,0.214,3.78c-0.507-4.472-0.091-16.017,0.401-13.558         l0.011,1.992c0.206-13.38,0.02-40.52-1.357-41.528c0.179-0.254,1.672,0.63,1.954,1.259c0,0-1.158-5.115-2.317-10.229         c-0.285-1.254-0.57-2.508-0.837-3.683c-0.301-1.129-0.582-2.184-0.822-3.087c-0.483-1.784-0.805-2.974-0.805-2.974         c0.332,0.24,0.78-0.229,1.278-0.913c0.521-0.707,0.939-1.483,1.42-2.051c0.924-1.098,1.782-1.047,2.115,4.231         c0.167-3.297,0.357-7.399-0.052-13.751c-0.163,2.316-1.685,6.765-1.787,3.92c1.301-9.154,0.702-6.159,1.794-17.138         c-0.247,3.465-2.044,1.518-1.974-3.588c0.266,0.538,1.763-2.125,1.949-0.429c0,0-0.109-0.692-0.274-1.73         c-0.358-1.139-1.081-2.645-2.348-3.757c-0.643-0.557-1.548-0.962-2.431-0.975c-0.877-0.029-1.668,0.215-2.274,0.522         c-0.315,0.131-0.579,0.308-0.815,0.456c-0.239,0.141-0.436,0.286-0.593,0.416c-0.316,0.25-0.497,0.393-0.497,0.393         c0.704-0.552,1.144-0.902,1.332-1.169c0.185-0.273,0.116-0.463-0.155-0.6c-0.276-0.148-0.728-0.178-1.314-0.12         c-0.267,0.057-0.661,0.07-0.908,0.211c-0.257,0.134-0.527,0.291-0.801,0.465c1.026-0.496-8.394,7.974-10.951,10.668         l4.181-3.409c-5.461,5.037-7.959,8.339-10.26,11.531c-2.323,3.208-4.456,6.311-9.541,11.196         c0.935-1.499,1.695-5.138-3.953-0.082c-0.442,0.789-1.155,2.061-2.076,3.704c-0.509,0.831-0.809,1.629-1.37,2.391         c-0.563,0.755-1.349,1.507-2.42,2.036c-1.062,0.526-2.426,0.821-3.89,0.625c-1.456-0.195-2.975-0.87-4.26-1.942         c-1.335-1.181-2.172-2.25-3.203-3.4c-0.988-1.148-1.963-2.345-2.907-3.584l-0.819-2.318l-5.845-7.572         c2.3,2.039,6.446,6.072,10.781,10.456c1.079,1.1,2.174,2.218,3.261,3.327c0.531,0.544,1.004,0.9,1.526,1.251         c0.537,0.298,1.052,0.557,1.579,0.678c1.038,0.283,1.989,0.199,2.754-0.096c0.769-0.283,1.371-0.735,1.85-1.232         c-0.725,0.309-1.125,0.294-1.386,0.27c-0.127-0.021-0.224-0.036-0.311-0.05c-0.084-0.033-0.156-0.062-0.234-0.081         c-0.156-0.033-0.34-0.065-0.68-0.136c-0.34-0.083-0.844-0.169-1.629-0.761c-0.173-0.35-0.113-0.444,0.072-0.434         c0.18,0.023,0.476,0.165,0.795,0.249c0.639,0.234,1.292,0.129,1.65,0.027c-0.044-0.04-1.311,0.448-2.577-1.488         c-2.458-3.86-4.915-7.72-4.915-7.72c-0.566,1.362-8.839-11.101-9.299-9.949l12.16,16.028         c-0.568,1.353-9.313-7.753-16.376-18.786c-1.437-3.046,3.192,0.873,3.382,0.419c-1.291-1.184-7.544-9.914-7.961-11.081         l3.618,4.267c-0.912-1.582-1.864-2.937-2.839-4.203c-0.488-0.633-0.981-1.245-1.479-1.851l-0.728-0.885         c-0.15-0.206-0.349-0.388-0.487-0.617c-0.602-0.875-1.063-2.002-1.101-3.315c-0.018-0.653,0.07-1.343,0.272-2.033         c0.226-0.683,0.563-1.364,1.042-1.97c0.286-0.434,0.702-0.945,1.256-1.304c0.125-0.102,0.267-0.19,0.421-0.269         c0.166-0.095,0.252-0.139,0.474-0.277c0.438-0.271,0.873-0.54,1.291-0.799c1.668-1.04,3.033-1.954,2.999-2.4         c-4.651,2.141-8.17-0.531-6.349-3.47c0.866-0.617,12.929-9.302,15.999-11.021c4.493-2.402-3.997,6.852-0.167,4.813         c-0.078-0.374,1.748-2.477,2.533-3.324c2.599-1.847-0.331,1.646,4.817-2.956c0.073-1.695,10.736-9.045,1.802-2.921         c4.901-4.659,5.617-4.47,11.607-9.664c-2.435,1.029,3.645-6.708,8.555-11.373c-0.099,0.499,1.322-0.175,2.002-0.51         c10.589-8.91,16.6-13.311,26.414-21.69c1.099-0.544,6.066-4.316,4.397-2.185c1.269-1.374,2.292-2.803,5.298-5.413         c6.549-4.191-6.637,5.896-1.338,3.06c-0.086-0.875,7.179-7.449,11.194-11.477c-2.048,0.287-10.092,8.352-14.115,12.385         c-1.016-1.152,5.451-8.8,15.239-18.107c7.896-7.256,4.176-2.266,5.448-3.641c3.868-3.221,6.508-5.655,8.502-7.652         c0.251-0.254,0.494-0.5,0.729-0.738c0.308-0.276,0.563-0.622,0.893-0.826c0.635-0.382,1.231-0.741,1.799-1.083         c0.54-0.327,1.069-0.534,1.578-0.796c0.511-0.243,1.008-0.51,1.509-0.677c1-0.367,1.985-0.78,3.059-1.006         c0.536-0.13,1.091-0.265,1.678-0.38c0.59-0.078,1.211-0.149,1.873-0.212c0.659-0.085,1.372-0.076,2.136-0.055         c0.762,0.011,1.576,0.038,2.471,0.2c0.444,0.071,0.903,0.145,1.38,0.221c0.479,0.095,0.988,0.267,1.505,0.415         c0.276,0.077,0.436,0.211,0.726,0.21l0.201,0.021l0.345,0.022c0.252,0.016,0.508,0.032,0.77,0.049         c6.634,0.979,0.299,1.947,1.77,2.653c-1.086,0.046-2.132,0.071-3.083,0.08c-0.229-0.012-0.465,0.035-0.682-0.028         c-0.217-0.058-0.432-0.115-0.644-0.171c-0.453-0.123-0.894-0.243-1.325-0.36c-0.882-0.13-1.721-0.313-2.534-0.412         c-0.814-0.063-1.6-0.159-2.367-0.206c-3.06-0.138-5.838,0.08-8.772,1.09c0,0,0.46-0.124,1.15-0.31         c0.691-0.171,1.63-0.288,2.553-0.451c0.933-0.104,1.867-0.151,2.562-0.21c0.699-0.019,1.165-0.002,1.165-0.001         c-1.408,0.199-3.542,0.675-5.672,1.277c-0.528,0.167-1.047,0.375-1.567,0.55c-0.259,0.09-0.517,0.179-0.771,0.267         c-0.244,0.114-0.485,0.227-0.721,0.338c-0.463,0.232-0.962,0.395-1.364,0.649c-0.378,0.298-0.737,0.569-1.058,0.797         c0.296-0.182,0.667-0.434,1.093-0.742c0.457-0.255,1.048-0.433,1.656-0.704c1.251-0.478,2.818-0.919,4.622-1.255         c0.899-0.179,1.873-0.25,2.878-0.388c0.507-0.021,1.026-0.043,1.556-0.065c0.529-0.034,1.067-0.046,1.615-0.005         c0.547,0.024,1.104,0.049,1.668,0.074c0.559,0.079,1.125,0.159,1.698,0.24c0.581,0.049,1.13,0.247,1.708,0.386l0.907,0.239         l0.941,0.007c9.75,0.034,20.748,0.059,28.516,0.465c2.761-0.329,7.525-0.668,5.271-1.061l-4.916,0.136         c-4.518-0.789,9.251-1.091,3.029-1.459c6.595-0.555,13.986-1.427,23.267-0.981l1.744,1.116         c-0.199-0.326-6.067-0.665-8.676-0.325c3.868-0.495,14.231,1.511,18.473,0.049l-6.509-0.773         c6.621-0.561,14.804-1.746,23.029-1.394c-3.742-1.102-1.895,0.126-7.741-1.164c5.067,1.604-21.043-0.067-12.903,1.619         c-5.998-1.497-10.381-0.635-18.222-1.911c0.242,0.368,2.778,0.704-4.128,0.522c-0.312,0.107-1.047,0.244-1.515,0.324         c-0.212-0.012-0.285-0.017-0.467-0.027c0.139,0.016,0.243,0.027,0.381,0.043c-0.298,0.055-0.324,0.066,0.143,0.015         c1.644,0.161,2.977,0.354,3.518,0.56c-3.427,0.845-14.41,0.819-18.123,1.256c-4.098-0.175,1.713-0.422-0.523-0.815         l-5.547,0.654c-0.55-0.818-10.887-1.358-1.233-1.837l-8.689-0.037c-1.279-0.115-2.678-0.212-4.124-0.288         c-0.724-0.032-1.459-0.065-2.197-0.098c-0.665-0.021-1.333-0.042-1.996-0.063c-0.103,0-0.182-0.019-0.241-0.052l-0.05-0.02         l-0.032-0.011l-0.173-0.046l-0.691-0.18l-0.684-0.167l-0.648-0.091c-0.43-0.055-0.854-0.108-1.271-0.162         c-0.843-0.126-1.616-0.114-2.357-0.116c-0.739,0.006-1.444-0.008-2.075,0.088c-2.425-0.053-5.406,0.651-7.236,1.31         c-0.914,0.27-1.562,0.643-1.728,0.682c-0.167,0.068,0.132-0.097,1.124-0.582c0,0-0.985,0.348-2.44,0.899         c-0.752,0.313-1.506,0.739-2.747,1.365c-0.305,0.112-0.527,0.393-0.789,0.605c-0.224,0.202-0.451,0.406-0.68,0.611         c-0.309,0.284-0.622,0.573-0.935,0.862c-2.506,2.31-5.012,4.62-5.012,4.62l-0.228-0.074         c-10.282,8.659-20.15,19.017-32.786,27.883c-3.305,3.099-6.695,6.331-12.6,11.075l-1.579,0.42         c-4.255,3.965-13.717,10.802-15.137,12.986c-5.995,2.624-21.697,18.012-29.68,24.397l0.304,0.955         c-2.69,2.266-5.274,4.545-7.985,7.002c-1.349,1.236-2.737,2.508-4.191,3.841l-0.546,0.505l-0.721,0.693         c-0.52,0.482-0.976,1.068-1.432,1.639c-0.877,1.178-1.575,2.496-2.101,3.901c0,0,0.255-0.091,0.51-0.182         c0.262-0.078,0.524-0.156,0.524-0.156c-0.879,2.297-1.394,5.042-1.098,8.063c0.167,1.505,0.559,3.075,1.257,4.606         c0.158,0.39,0.37,0.76,0.582,1.135l0.313,0.547l0.256,0.418c0.341,0.56,0.687,1.128,1.038,1.704         c2.796,4.608,5.834,9.714,9.162,14.652c-0.708-0.502-2.31-3.063-3.334-4.949c3.166,6.437,7.595,12.504,11.984,18.399         c1.096,1.475,2.186,2.941,3.264,4.392l0.518,0.675c0.199,0.245,0.38,0.495,0.599,0.728c0.442,0.463,0.871,0.925,1.385,1.328         c0.979,0.834,2.125,1.523,3.365,1.991c2.46,0.988,5.299,0.986,7.673,0.184c1.205-0.378,2.298-0.949,3.274-1.609l0.72-0.51         c0.229-0.171,0.42-0.346,0.631-0.519l0.575-0.481l0.439-0.345c1.896-2.267,3.511-3.702,5.099-4.966         c-0.194,0.192-0.36,0.375-0.495,0.542c0.216-0.207,0.538-0.516,0.867-0.832c1.006-0.787,2.044-1.571,3.132-2.451         c-0.969,0.669-1.897,1.347-2.67,1.997c1.608-1.594,4.004-4.075,6.343-6.645l1.37-0.113c0.189-0.197,0.342-0.356,0.54-0.562         c2.432-1.923,1.752-2.292,0.247-1.743c1.175-1.349,2.25-2.64,3.074-3.74c1.179-0.163,2.721-1.835,4.394-3.619         c1.663-1.773,3.463-3.665,4.83-3.945c0.393-0.64,1.35-1.751,2.591-3.119c0.11-0.123,0.222-0.248,0.337-0.376         c0.09-0.1,0.179-0.209,0.285-0.303c0.201-0.201,0.428-0.395,0.681-0.566c0.492-0.342,1.187-0.579,1.75-0.314         c0.533,0.276,0.818,0.802,0.986,1.294c0.08,0.251,0.149,0.5,0.196,0.746c0.03,0.079,0.05,0.347,0.075,0.552         c0.025,0.211,0.05,0.417,0.075,0.617c0.207,1.586,0.483,2.674,0.87,2.795c-0.202,0.314-0.302,1.476-0.309-0.477         c-0.188,4.229-0.377,8.423,0.05,11.678l-1.122,2.691l1.476,7.579c-0.697,5.956-1.099,8.447-1.943,3.833         c0.643,5.873,0.759,8.405,0.875,10.678c0.116,2.282,0.231,4.308,0.871,9.353l-0.72-0.04         c0.016,3.879,0.965,9.543,0.361,12.287c-0.699,4.81-0.777,15.629-0.849,28.167c-0.072,12.526-0.136,26.802-0.806,38.128         c1.068-2.427,0.823,0.239,0.516,3.564c-0.307,3.324-0.676,7.28,0.146,7.585c-0.505,1.396-0.798,4.542-1.224,1.004         c0.46,11.331-0.846,17.109,0.519,24.909c-0.508,1.312-0.729-2.416-1.03-1.25c0.105,0.904,0.426,3.599,0.123,4.781         c-0.303,1.154-0.416-1.659-0.63-3.443c0.006,1.443,0.036,2.725,0.086,3.863c0.007,0.151,0.015,0.301,0.022,0.447         c0.017,0.214,0.032,0.424,0.048,0.631c0.039,0.413,0.063,0.812,0.148,1.192c0.079,0.38,0.155,0.746,0.229,1.101         c0.109,0.345,0.214,0.678,0.316,1c0.898,2.553,2.239,4.006,3.28,4.867c2.178,1.678,3.292,1.297,4.102,1.058         c1.391,1.196,2.916,1.912,4.362,2.292c0.729,0.169,1.435,0.295,2.121,0.317c0.369,0.027,0.636,0.028,0.892,0.026         c0.264-0.004,0.523-0.008,0.779-0.012c2.049-0.058,3.89-0.32,6.066-0.796c2.099,0.475,5.599,0.972-1.792,1.142         c4.158,0.069,25.4,0.696,25.825-0.467c1.302,0.295,5.811,0.086,6.906-0.048c9.329,0.069,10.151,0.174,19.312,0.063         l-2.54-0.19c3.618-1.403,7.616-0.313,15.002-0.481l-0.212,0.145c16.937,1.012,7.313-0.485,24.021,0.67l-0.909-0.873         c1.558-1.877,14.804,1.107,24.501,0.39l-3.501-0.499c5.296-0.643,14.803,2.554,20.121,2.788         c1.16,0.163-1.83,0.262-3.448,0.383c13.925,1.107,1.804-1.144,12.181-1.409c1.913,0.616-2.467,1.568,4.518,1.683         c3.479,0.5,20.256-2.002,29.784-0.819c-2.099-0.476-4.185-0.949,0.636-1.307c0.931-0.022,1.912-0.006,3.009,0.022         c1.374,0.022,2.845-0.159,4.305-0.605c2.919-0.875,5.752-2.921,7.471-5.789c0.864-1.422,1.451-3.024,1.708-4.646         c0.082-0.404,0.112-0.811,0.136-1.215l0.035-0.605l0.008-0.45c-0.001-0.567-0.002-1.126-0.004-1.673         c-0.035-2.186-0.199-4.183-0.579-5.836c0.128-0.916,0.251-1.258,0.369-1.29c-0.403-5.55-0.696-18.057-1.52-21.564         c1.501-2.319,1.109-10.95,0.689-19.049c-0.421-8.085-0.868-15.612,0.524-15.023l-0.2-17.102l0.285,0.579         c0.152-10.781-0.526-14.971-1.207-19.209c0.182-2.421,0.448-0.422,0.595-0.131c0.514-15.622,0.392-17.152-1.037-31.611         l0.9-0.71c-0.269-2.013,0.069-7.519,0.336-14.522c0.133-3.504,0.249-7.385,0.263-11.423c0.007-2.02-0.012-4.079-0.067-6.153         c-0.037-1.047-0.074-2.089-0.11-3.12c-0.016-0.343-0.031-0.684-0.048-1.023c-0.005-0.289,0.013-0.58,0.044-0.878         c0.091,0.216,0.183,0.62,0.259,1.349c-0.022-0.586,0.021-1.228,0.338-1.741c0.292-0.557,0.986-0.704,1.533-0.484         c0.278,0.101,0.541,0.253,0.784,0.438c0.117,0.098,0.245,0.185,0.354,0.294l0.377,0.368c0.811,0.826,1.626,1.658,2.443,2.492         c3.266,3.375,6.503,6.876,9.476,10.021c5.96,6.305,10.854,11.179,14.058,12.011c0,0,2.119,1.786,4.238,3.573         c0.269,0.227,0.537,0.454,0.802,0.677c0.337,0.285,0.65,0.566,0.986,0.825c0.362,0.249,0.698,0.5,1.044,0.704         c0.357,0.194,0.687,0.384,1.006,0.534c0.652,0.285,1.206,0.486,1.615,0.582c0.397,0.119,0.634,0.154,0.634,0.155         c-2.374-0.682-3.738-1.908-4.531-2.723c-0.426-0.444-0.648-0.71-0.84-0.943c-0.188-0.231-0.316-0.408-0.394-0.536         c-0.307-0.516,0.209-0.274,0.937,0.162c0.383,0.24,0.826,0.52,1.235,0.775c0.427,0.26,0.867,0.438,1.137,0.536         c0.604,0.125,0.525-0.002-0.609-1.133c1.145,1.01,2.73,1.869,4.385,2.193c1.659,0.314,3.315,0.06,4.443-0.358         c0.283-0.107,0.54-0.205,0.766-0.291c0.222-0.1,0.412-0.185,0.567-0.254c0.319-0.131,0.507-0.184,0.522-0.117         c0.024,0.077-0.138,0.257-0.52,0.586c-0.381,0.328-1.038,0.749-2.056,1.147c0,0-0.341,0.052-0.681,0.103         c-0.335,0.063-0.677,0.057-0.677,0.057c-0.358,0.27-0.304,0.434,0.129,0.507c0.218,0.046,0.52,0.036,0.898-0.018         c0.385-0.034,0.826-0.156,1.325-0.324c0.983-0.353,2.141-1.006,3.169-1.979c0.243-0.253,0.491-0.513,0.745-0.776         c0.222-0.285,0.447-0.576,0.677-0.87c0.354-0.509,0.717-1.029,1.083-1.555c2.854-4.15,5.81-8.578,6.182-8.084         c4.14-6.276,8.307-12.478,12.473-18.615c1.043-1.533,2.084-3.064,3.124-4.591l0.78-1.144c0.118-0.165,0.282-0.43,0.44-0.69         c0.154-0.258,0.319-0.512,0.457-0.777c0.547-1.065,0.983-2.179,1.253-3.323c1.068-4.559,0.098-9.481-2.97-13.22         c-0.368-0.479-0.802-0.887-1.223-1.309l-1.023-0.965l-1.991-1.868c-1.327-1.244-2.65-2.485-3.972-3.724         c-2.645-2.474-5.278-4.938-7.899-7.39c-5.25-4.898-10.467-9.733-15.668-14.479l1.512,3.171l-7.224-6.662         c-1.702-1.964-1.866-3.101,3.287,1.651c-2.225-3.039-9.126-7.432-9.468-7.351c-9.8-9.625,5.008,2.451,1.912-0.403         l-4.298-3.768l0.851,0.982c-3.795-2.71-4.485-2.559-10.678-8.27c-3.769-3.781-1.475-2.447-2.994-3.896         c0.073-0.062-0.423-0.571-2.357-2.192l-9.088-8.404l2.959,4.107c-4.409-3.303-8.58-7.864-5.15-3.142         c-0.622-0.875-1.615-2.023-2.885-3.372c-0.636-0.674-1.339-1.398-2.1-2.162c-0.383-0.38-0.777-0.772-1.183-1.176         c-0.184-0.182-0.371-0.367-0.56-0.554l-0.047-0.084c-0.261-0.448-0.663-0.871-1.084-1.258         c-0.843-0.774-1.761-1.402-1.765-1.792c-1.099,0.039-1.666-0.495-2.318-1.212c0.03,0.324-0.656,1.295-1.176,0.629         c1.862-1.603-0.418-1.809,0.263-3.562c-0.337,1.267-1.945-1.377-2.355,0.481c-0.382-0.613,0.581-0.705,0.576-1.484         c-1.857-0.411-2.284-2.903-4.011-4.04c-0.238,0.216-0.313,0.809-0.958,0.867l0.275-1.911         c-0.403-0.155-1.515,1.119-1.314-0.199c-0.104,0.269-0.262,0.675-0.531,0.568c-1.915-3.845-6.913-4.55-7.952-9.453         c-0.01,0.83-0.323,0.628-0.649,0.363c0.103,0.294-0.536,0.582-0.788,0.939l-0.45-2.036c-1.038,0.683-1.405-1.166-2.311-0.433         l0.538,0.208c-1.443,0.524-1.287,2.91-2.536,4.131c1.633-0.605,0.029,3.116,2.49,2.364c-0.023,0.459-0.562,0.25-0.718,0.653         c0.75-0.329,1.152-0.174,1.48,0.577l-0.187,0.08c1.676,1.275,1.847,2.426,3.263,4.375l0.45-0.756         c0.298,0.426,0.195,0.698,0.226,1.018c1.309-0.578-1.004-1.011,0.356-1.723c-0.681,1.751,2.627,2.421,1.625,4.203         c0.57,0.532,0.501-0.893,1.069-0.361l-0.209,0.539l0.613-0.383c0.301,0.429,0.039,1.102-0.254,1.453         c-0.056-0.124-0.347-0.142-0.472-0.202c0.064,0.916,1.528,1.095,1.559,1.401l-0.331-0.75c1.913,1.056,3.36,3.327,5.618,3.895         l0.158-0.407c1.667,0.497,0.631,1.176,2.14,2.077l-0.111,0.029c0.527-0.068,1.005,0.089,1.323,0.441         c-0.642,0.061-0.016,1.236-0.792,1.244c1.803,0.545,1.05,0.095,2.896-0.27l-0.261,0.674c0.692-0.194,0.933-0.412,1.687,0.037         c-0.911-0.045-0.283,1.131-1.382,1.168c0.173,1.154,0.919,1.328,1.518,1.484c0.299,0.078,0.562,0.15,0.697,0.339         c0.067,0.094,0.104,0.217,0.096,0.384c-0.001,0.042-0.006,0.086-0.013,0.133l-0.014,0.074l0.235,0.307         c0.312,0.415,0.609,0.84,0.893,1.279c1.808,1.011,2.051,0.829,1.456,0.03c-0.298-0.399-0.806-0.953-1.432-1.588         c-0.158-0.158-0.321-0.322-0.491-0.491l-0.128-0.126l-0.009-0.018l-0.02-0.035c-0.027-0.047-0.06-0.092-0.093-0.136         c-0.272-0.35-0.701-0.594-0.396-0.586c0.061-0.357,0.422-0.5,0.804-0.49c0.191,0.005,0.388,0.049,0.556,0.124         c0.041,0.019,0.081,0.04,0.119,0.062c0.289,0.255,0.574,0.506,0.853,0.752c0.6,0.539,1.162,1.06,1.657,1.541         c4.131,3.807,5.469,8.192,15.955,17.664c-1.036-0.952-1.201-0.911-2.234-1.859c3.597,3.909,8.104,6.485,12.389,11.421         c3.448,1.604,6.192,5.709,7.932,5.343l-9.819-8.465c5.693,4.66,11.922,8.038,20.337,16.781         c-0.894-0.417-3.814-2.554-5.79-4.059c2.337,2.695,5.235,4.372,7.66,7.164c-1.74,0.368-11.873-10.356-18.438-14.831         c2.406,3.007,11.725,9.235,7.751,7.736c5.539,2.347,10.142,9.545,18.24,14.85l-1.045,0.218         c1.212,0.917,3.808,2.723,5.856,4.612l-4.484-2.559c6.374,4.497,10.5,10.661,16.35,15.27         c-11.538-10.439-1.892-3.122-6.341-8.014c3.745,3.01,6.034,5.083,7.613,6.722c0.396,0.41,0.746,0.792,1.063,1.155         c0.155,0.183,0.305,0.358,0.449,0.528c0.086,0.132,0.168,0.259,0.248,0.383c0.312,0.493,0.462,0.985,0.602,1.478         c0.224,1.008,0.338,2.089,0.256,3.657c-0.052,0.778-0.184,1.685-0.52,2.641c-0.191,0.48-0.399,0.914-0.727,1.433         c-0.624,0.936-1.293,1.964-2.014,3.097c0.377-0.623,0.969-1.484,1.612-2.364l0.489-0.66c0.123-0.17,0.174-0.24,0.272-0.358         c0.175-0.214,0.318-0.449,0.461-0.656c0.499-0.866,0.884-1.41,0.688,0.014c-0.109,0.299-0.288,0.564-0.438,0.85         c-0.238,0.325-0.481,0.657-0.728,0.992c-0.68,0.894-1.369,1.8-2.029,2.667c-1.338,1.723-2.594,3.262-3.477,4.183         c-7.72,11.958,1.948-1.33-0.959,4.012c-3.557,3.457-3.507,6.06-6.676,11.446l-0.756-0.45         c-4.718,6.601-4.932,7.75-5.045,8.723c-0.058,0.486-0.089,0.928-0.646,1.985c-0.279,0.528-0.689,1.211-1.3,2.129         c-0.076,0.113-0.155,0.23-0.236,0.351c-0.066,0.086-0.136,0.174-0.207,0.266c-0.137,0.189-0.292,0.38-0.479,0.551         c-0.345,0.384-0.806,0.697-1.322,0.985c-0.001,0,0.719-0.761,1.075-1.77l0.132-0.372l0.067-0.18l0.106-0.26         c0.141-0.341,0.271-0.659,0.384-0.931c0.226-0.545,0.375-0.909,0.375-0.909s-0.247,0.407-0.616,1.018         c-0.177,0.288-0.382,0.625-0.603,0.984c-0.149,0.228-0.298,0.485-0.48,0.688c-0.343,0.439-0.733,0.782-1.046,0.973         c-0.302,0.229-0.533,0.279-0.527,0.3c0,0.001,0.101-0.305,0.148-0.602c0.045-0.321,0.053-0.594,0.053-0.594         c-1.226,1.132-2.599,0.903-3.769-0.026c-0.151-0.113-0.314-0.303-0.476-0.448c-0.247-0.241-0.496-0.483-0.748-0.729         c-0.529-0.527-1.073-1.07-1.65-1.646c-1.15-1.166-2.429-2.463-3.971-4.027c1.097,1.883-1.774,0.46-7.198-4.722         c-3.504-4.045,2.479,1.276-5.396-6.097c1.937,1.15,4.249,2.439,7.321,6.435c0.489,0.088,2.041,1.215,2.562,1.333         c-3.872-4.471-10.443-10.091-13.329-12.83c1.113,1.099,2.439,2.419,3.084,3.191l-11.745-9.678         c-1.758-2.084-0.325-1.035,1.138,0.04c-1.175-1.061-2.174-1.861-3.3-2.788c-0.562-0.472-1.156-0.973-1.825-1.535         c-0.166-0.146-0.337-0.294-0.514-0.448l-0.268-0.237c-0.122-0.06-0.245-0.121-0.37-0.184         c-0.501-0.269-1.045-0.486-1.632-0.707c0.561-0.146,0.763-0.516,1.711-0.419c0.274-0.005,0.455,0.107,0.698,0.253         c0.245,0.146,0.535,0.338,0.882,0.591c0.693,0.504,1.617,1.247,2.869,2.33c0,0-0.706-0.608-1.766-1.521         c-0.526-0.455-1.142-0.985-1.801-1.553c-0.164-0.142-0.331-0.286-0.5-0.432c-0.158-0.153-0.473-0.206-0.703-0.315         c-0.501-0.218-1.015-0.331-1.523-0.473c-1.028-0.217-2.081-0.28-3.142-0.105c-1.059,0.166-2.095,0.644-2.778,1.194         c-0.688,0.544-1.139,1.08-1.403,1.468c-0.136,0.194-0.242,0.346-0.314,0.45c-0.062,0.11-0.095,0.168-0.095,0.168         c-0.098,0.086-0.25,0.254-0.443,0.48c-0.186,0.23-0.373,0.544-0.601,0.879c-0.188,0.353-0.425,0.779-0.588,1.169         c-0.046,0.348-0.092,0.7-0.135,1.033c-0.18,1.326-0.355,2.307-0.466,1.261c-0.188,3.84,0.1,9.042,0.379,14.517         c0.278,5.481,0.549,11.232,0.299,16.337c0.121,0.643,0.237,1.834,0.326,4.148c-0.147,9.8-0.956,18.168-0.081,30.474         l-1.179,6.07c0.124,4.708,0.5,2.615,0.893,1.322c0.395-1.296,0.806-1.792,1.025,5.965c0.376,11.006-1.011,3.578-1.346,7.247         c0.586,5.721,1.822,15.505,0.833,25.138C350.951,336.686,351.133,334.151,351.046,331.035z M320.185,408.743         c2.155-0.184,6.452-0.752,8.027-0.234C325.759,409.515,323.858,409.033,320.185,408.743z M156.958,404.248         c0.516,1.2,1.065,3.087,2.658,4.865C158.284,408.092,157.117,406.341,156.958,404.248z M214.215,108.252         c-0.091,0.014-0.156,0.024-0.229,0.043c-0.3-0.021-0.576-0.041-0.826-0.059c-0.233-0.018-0.539-0.034-0.556-0.048         c-0.159-0.025-0.274-0.048-0.337-0.097c-0.14-0.075-0.176-0.096-0.141-0.08c0.043,0.006,0.13,0.095,0.334,0.13         c0.115,0.015,0.149,0.032,0.591,0.051C213.408,108.211,213.799,108.231,214.215,108.252z M224.198,108.634         c1.004-0.123,0.935-0.245,0.511-0.367c-0.697,0.222-2.938,0.237-5.491,0.175         C219.927,108.671,221.217,108.831,224.198,108.634z M372.02,153.362l1.285,1.476         C369.887,152.077,370.95,152.733,372.02,153.362z" style="fill:#202020;"/><path d="M170.283,409.656c0.61,0.148,0.779,0.313,0.921,0.478         C172.052,409.986,172.07,409.815,170.283,409.656z" style="fill:#202020;"/><path d="M350.695,260.034l0.01-0.339c-0.047-0.227-0.094-0.364-0.14-0.457L350.695,260.034z" style="fill:#202020;"/><path d="M102.06,197.293c-1.644,1.24-2.62,1.863-3.306,2.231         C98.808,199.762,99.635,199.292,102.06,197.293z" style="fill:#202020;"/><path d="M277.098,107.142l-6.396,0.228c3.094-0.043,4.197,0.148,5.76,0.288         C276.319,107.453,275.099,107.156,277.098,107.142z" style="fill:#202020;"/><path d="M300.343,112.575c0.096-0.107,0.204-0.012,0.298-0.121l-0.025-0.408         C300.206,112.073,299.92,112.401,300.343,112.575z" style="fill:#202020;"/><path d="M283.018,110.059c0.506,0.739,4.518,0.488,8.996,0.352c-0.269,0.002-0.523,0.009-0.792,0         C292.542,109.376,287.769,109.718,283.018,110.059z" style="fill:#202020;"/><path d="M293.052,110.385c0.69-0.012,1.389-0.023,2.082-0.035c0.348,0,0.693,0,1.037,0l0.484,0.006         l0.052,0.011c0.014-0.104,0.01-0.161-0.008-0.187c-0.009-0.013-0.021-0.018-0.036-0.017c-0.119,0.005-0.26,0.011-0.421,0.019         C295.449,110.224,294.283,110.332,293.052,110.385z" style="fill:#202020;"/><path d="M236.859,108.144c2.125,0.19,1.333-0.944,2.536-0.644         C241.767,106.56,225.232,108.638,236.859,108.144z" style="fill:#202020;"/><polygon points="286.644,112.492 285.038,111.581 282.528,112.316        " style="fill:#202020;"/><path d="M251.277,111.823l7.157,0.252c-0.108-0.153,0.801-0.243,1.917-0.311         C255.942,111.734,251.109,111.553,251.277,111.823z" style="fill:#202020;"/><path d="M260.352,111.764c2.298,0.019,4.483-0.001,5.76-0.151         C264.869,111.623,262.195,111.653,260.352,111.764z" style="fill:#202020;"/><polygon points="276.859,112.766 274.744,112.576 269.689,112.509        " style="fill:#202020;"/><path d="M178.814,125.81l-5.766,5.275c-0.402,0.755,1.34-0.483,3.469-2.468         C177.796,127.236,179.921,125.26,178.814,125.81z" style="fill:#202020;"/><path d="M198.556,114.08c-0.975,0.161-1.484,0.28-1.928,0.294c-0.447,0.014-0.775,0.021-1.336,0.134         l0.284,1.117c0,0,0.17-0.112,0.424-0.279c0.243-0.186,0.623-0.365,1.005-0.547c0.383-0.187,0.766-0.374,1.053-0.514         c0.143-0.076,0.268-0.125,0.358-0.155C198.505,114.098,198.556,114.08,198.556,114.08z" style="fill:#202020;"/><path d="M181.249,127.361c-0.388,0.745-8.032,8.054-0.554,1.564         C181.095,128.174,186.872,122.89,181.249,127.361z" style="fill:#202020;"/><polygon points="90.879,202.778 92.379,201.476 90.965,200.246        " style="fill:#202020;"/><path d="M128.362,240.885c-7.532,6.567-1.211,2.653-8.031,8.413c-1.437,1.961,5.556-4.696,4.009-2.719         C128.423,242.063,130.853,240.097,128.362,240.885z" style="fill:#202020;"/><path d="M124.34,246.579c-0.654,0.722-1.337,1.495-2.045,2.333         C123.473,247.629,124.015,246.993,124.34,246.579z" style="fill:#202020;"/><polygon points="328.207,112.316 328.015,111.619 327.888,112.345        " style="fill:#202020;"/><path d="M326.414,112.545l0.688-0.972l-0.99,0.545C326.249,112.173,326.516,112.277,326.414,112.545z" style="fill:#202020;"/><path d="M303.65,406.363l-0.454,0.285c0.922,0.307,2.315,0.33,5.106,0.379L303.65,406.363z" style="fill:#202020;"/><polygon points="350.096,379.001 350.069,380.424 351.121,377.882        " style="fill:#202020;"/><path d="M348.946,308.86c-0.05,2.839,0.163,6.294,0.114,9.143         C348.898,311.69,350.179,308.669,348.946,308.86z" style="fill:#202020;"/></g></g></g></g><g><g><g><g><path d="M259.145,128.909c-0.294-0.055-0.188,0.703-0.232,0.842         C259.41,129.564,259.13,128.712,259.145,128.909z" style="fill:#202020;"/><polygon points="263.844,126.959 263.787,127.279 264.407,126.443        " style="fill:#202020;"/><path d="M268.206,126.444c-0.595-1.186-1.541,0.422-2.383,0.055l-0.162-0.28l-0.233,1.078         C266.366,127.009,267.503,126.236,268.206,126.444z" style="fill:#202020;"/><path d="M271.038,128.79c-0.244-0.47,0.435-0.521-0.588-0.055c0.063,0.044,0.085,0.073,0.124,0.107         C270.67,128.818,270.804,128.795,271.038,128.79z" style="fill:#202020;"/><path d="M270.574,128.842C270.107,128.964,270.962,129.205,270.574,128.842L270.574,128.842z" style="fill:#202020;"/><path d="M272.689,128.14c0,0-0.128,0.147-0.257,0.294c-0.128,0.151-0.263,0.284-0.264,0.284         c0.195,0.278,0.756,0.203,0.599,0.466C273.35,128.79,273.15,128.532,272.689,128.14z" style="fill:#202020;"/><path d="M273.058,127.075l-0.271,0.262C272.869,127.446,272.963,127.468,273.058,127.075z" style="fill:#202020;"/><path d="M272.208,127.892l0.579-0.555c-0.133-0.184-0.231-0.593-0.273,0.216         C272.486,127.164,272.435,127.556,272.208,127.892z" style="fill:#202020;"/><path d="M271.784,127.769c-0.403-0.213-0.877-0.309-0.355-0.86         C270.303,127.294,270.638,128.162,271.784,127.769z" style="fill:#202020;"/><path d="M268.214,125.078l-0.497-0.297l-0.315,0.497C267.56,125.034,268.305,125.474,268.214,125.078z         " style="fill:#202020;"/><path d="M276.664,127.856c-0.036-0.276-0.397-0.65-0.536-0.984l-0.366,0.416         C276.04,127.415,276.527,127.478,276.664,127.856z" style="fill:#202020;"/><path d="M276.128,126.873l0.531-0.648C276.063,126.351,276.01,126.587,276.128,126.873z" style="fill:#202020;"/><polygon points="272.843,125.643 271.979,126.877 273.047,125.579        " style="fill:#202020;"/><polygon points="279.22,127.122 279.029,127.848 279.417,126.722        " style="fill:#202020;"/><path d="M280.864,126.484c-0.107,0.6,0.664,0.715,0.477,1.128c0.427-0.251,0.666-0.82,0.875-1.329         C281.925,126.63,281.509,126.715,280.864,126.484z" style="fill:#202020;"/><path d="M282.594,125.515c-0.14,0.185-0.252,0.466-0.378,0.768         C282.37,126.099,282.503,125.864,282.594,125.515z" style="fill:#202020;"/><path d="M277.811,126.02c0.099,0.145,0.321,0.535,0.746,0.599l-0.484-0.666         C277.992,125.974,277.902,125.997,277.811,126.02z" style="fill:#202020;"/><path d="M278.056,125.932l0.017,0.021c0.285-0.063,0.483-0.108,0.568-0.126         C278.567,125.84,278.391,125.872,278.056,125.932z" style="fill:#202020;"/><path d="M277.745,126.036c0.024-0.006,0.042-0.01,0.065-0.016         C277.765,125.954,277.742,125.934,277.745,126.036z" style="fill:#202020;"/><path d="M274.726,125.909c0.283-0.516,0.952-1.16,0.018-1.614         C274.604,124.877,275.143,125.134,274.726,125.909z" style="fill:#202020;"/><path d="M277.153,125.199l-0.735,0.036c0.069,0.193,0.275,0.444,0.145,0.709L277.153,125.199z" style="fill:#202020;"/><polygon points="277.419,124.862 277.153,125.199 277.426,125.186        " style="fill:#202020;"/><path d="M281.174,125.249c0.185-0.425,0.496-0.566,0.841-0.748c-0.441-0.005-0.869,0.061-1.25,0.198         C280.791,124.95,280.764,125.424,281.174,125.249z" style="fill:#202020;"/><path d="M279.646,125.543c0.017-0.02,0.037-0.043,0.053-0.063         C279.637,125.431,279.598,125.42,279.646,125.543z" style="fill:#202020;"/><polygon points="285.554,123.145 285.443,123.037 285.481,123.166        " style="fill:#202020;"/><path d="M280.653,124.585c-0.34-0.039-0.452,0.204-0.543,0.491c0.193-0.152,0.408-0.283,0.654-0.377         C280.753,124.586,280.734,124.516,280.653,124.585z" style="fill:#202020;"/><path d="M283.477,124.813c-0.211-0.097-0.434-0.164-0.66-0.218         C283.051,124.773,283.493,125.022,283.477,124.813z" style="fill:#202020;"/><path d="M279.866,125.654c-0.012,0.017-0.021,0.034-0.034,0.047         C279.982,125.83,279.944,125.756,279.866,125.654z" style="fill:#202020;"/><path d="M279.866,125.654c0.119-0.152,0.18-0.373,0.244-0.578c-0.157,0.125-0.302,0.25-0.412,0.404         C279.752,125.522,279.815,125.59,279.866,125.654z" style="fill:#202020;"/><path d="M284.653,118.12c0.239,0.681-0.229,1.591-1.141,1.128c-0.405,0.749,0.864,2.792,1.931,3.789         c-0.101-0.299-0.208-0.569,0.278-1.227c-0.384-0.268-1.785-0.266-1.488-1.091c0.703-0.688,0.789-0.047,1.353,0.135         c-0.694-0.68,0.558-1.648-0.162-2.788c0,0-0.132,0.187-0.264,0.375c-0.137,0.181-0.272,0.362-0.272,0.362         C284.795,118.619,284.928,118.21,284.653,118.12z" style="fill:#202020;"/><path d="M284.162,123.479l-0.238,0.193c0.354-0.009,0.681,0.169,1.303,0.525         c0.324-0.512,0.314-0.797,0.255-1.032l-1.373,0.451L284.162,123.479z" style="fill:#202020;"/><path d="M282.692,124.135c-0.056-0.813,0.477-1.357-0.223-2.009c-0.771,0.333-0.326,0.812-0.688,1.303         c1.229-0.645-0.224,0.544,0.869,0.625c-0.21,0.217-0.428,0.338-0.636,0.447c0.269,0.006,0.537,0.035,0.802,0.094         c-0.018-0.014-0.031-0.023-0.047-0.035l-0.005,0.004l-0.003-0.012c-0.091-0.071-0.13-0.121-0.047-0.09         c0.001-0.011,0.016-0.02,0.022-0.024c-0.029-0.106-0.038-0.204-0.044-0.299c0.436,0.016,0.131,0.17,0.044,0.299         c0.009,0.037,0.011,0.076,0.024,0.115l0.008,0.008c0,0,0.291-0.218,0.583-0.437c0.293-0.212,0.571-0.452,0.571-0.452         C283.614,123.688,283.277,123.833,282.692,124.135z" style="fill:#202020;"/><path d="M275.003,122.496c0.058,0.057,0.071,0.111,0.089,0.165         C275.149,122.545,275.164,122.475,275.003,122.496z" style="fill:#202020;"/><path d="M275.653,122.798c-0.063,0.133-0.057,0.459-0.382,0.472c-0.328-0.163-0.097-0.363-0.18-0.609         c-0.127,0.246-0.502,0.702,0.182,0.928l0.063-0.126c0.586,0.104,1.531,0.841,1.471,0.972         C276.458,123.804,276.184,123.361,275.653,122.798z" style="fill:#202020;"/><path d="M279.106,123.353c-0.001,0,0.242-0.171,0.476-0.361c0.234-0.186,0.469-0.371,0.469-0.371         l-0.756-0.452l0.157,0.377C278.802,122.61,279.083,123.024,279.106,123.353z" style="fill:#202020;"/><polygon points="285.825,123.455 285.998,124.279 286.172,122.944        " style="fill:#202020;"/><polygon points="287.183,122.788 287.419,123.473 287.609,122.908        " style="fill:#202020;"/><path d="M235.512,114.198l-0.51,0.023C235.232,114.242,235.39,114.229,235.512,114.198z" style="fill:#202020;"/><path d="M238.714,115.306l0.182-0.317C238.689,115.133,238.585,115.253,238.714,115.306z" style="fill:#202020;"/><path d="M292.314,98.235c-0.925-0.132-2.127-0.508-1.566,0.08l0.643,0.499         C291.653,98.426,291.978,98.283,292.314,98.235z" style="fill:#202020;"/><path d="M265.532,113.684c0.067,0.072,0.139,0.149,0.209,0.225c0.126-0.282,0.243-0.545,0.351-0.786         C265.923,113.292,265.732,113.483,265.532,113.684z" style="fill:#202020;"/><path d="M265.373,116.974l-0.914-0.438C264.668,116.698,264.962,116.845,265.373,116.974z" style="fill:#202020;"/><path d="M219.102,105.593l-0.889,0.329C218.843,106.404,218.813,105.868,219.102,105.593z" style="fill:#202020;"/><path d="M304.88,112.015c0.65-0.152,1.103-0.362,1.44-0.617         C305.477,111.546,304.599,111.386,304.88,112.015z" style="fill:#202020;"/><path d="M239.461,106.692c-0.28,0.057-0.434,0.175-0.485,0.344         C239.264,106.99,239.449,106.893,239.461,106.692z" style="fill:#202020;"/><path d="M307.604,110.217c-0.132,0.016-0.236,0.058-0.36,0.083c-0.231,0.398-0.486,0.78-0.923,1.098         C306.945,111.299,307.548,111.021,307.604,110.217z" style="fill:#202020;"/><path d="M243.002,117.57c0.02,0.043,0.052,0.071,0.068,0.12         C243.109,117.589,243.069,117.572,243.002,117.57z" style="fill:#202020;"/><path d="M254.746,127.79c-0.145,0.045-0.375,0.036-0.591,0.017         C254.255,127.872,254.432,127.892,254.746,127.79z" style="fill:#202020;"/><path d="M294.475,119.603C294.12,119.854,294.457,119.712,294.475,119.603L294.475,119.603z" style="fill:#202020;"/><path d="M291.193,117.808c0.039-0.119,0.047-0.25-0.027-0.416         C291.223,117.577,291.227,117.71,291.193,117.808z" style="fill:#202020;"/><path d="M306.983,103.707l0.024-0.025C306.811,103.677,306.847,103.68,306.983,103.707z" style="fill:#202020;"/><path d="M293.735,119.596c0.188,0.008,0.39-0.009,0.595-0.056         C294.223,119.528,294.039,119.541,293.735,119.596z" style="fill:#202020;"/><path d="M293.988,119.884c-0.146,0.044-0.26,0.079-0.368,0.112         C293.634,120.138,293.716,120.188,293.988,119.884z" style="fill:#202020;"/><path d="M294.982,119.279c-0.211,0.128-0.431,0.206-0.652,0.261c0.1,0.006,0.152,0.029,0.145,0.063         C294.582,119.534,294.732,119.438,294.982,119.279z" style="fill:#202020;"/><path d="M219.104,108.335c0.006,0.035,0.021,0.064,0.023,0.108         C219.631,108.403,219.463,108.347,219.104,108.335z" style="fill:#202020;"/><path d="M288.002,111.044c0.016-0.016,0.016-0.04,0.028-0.056c-0.022,0.001-0.051,0.003-0.071,0.004         L288.002,111.044z" style="fill:#202020;"/><path d="M286.828,112.261c0.195-1.184,0.578-1.234,1.131-1.27l-1.469-1.82         c0,0,0.091,0.769,0.183,1.539C286.751,111.486,286.828,112.261,286.828,112.261z" style="fill:#202020;"/><path d="M227.929,111.053l0.68,1.161c-1.774,0.397-2.517-0.501-2.013,0.93         c0.676-1.051,1.695-0.548,2.73-0.123c1.031,0.442,2.075,0.834,2.642-0.274l0.472,0.771c-0.186-0.106-0.274,0.014-0.458-0.093         c0.874,1.671,1.673-1.219,3.219-0.247c0.52,0.404,0.817,0.898,0.311,1.021c0,0,0.387-0.023,0.772-0.057         c0.384-0.032,0.768-0.065,0.768-0.065c0.372,0.176,0.144,0.552-0.231,0.377c0,0,0.527,0.124,1.054,0.249         c0.524,0.133,1.057,0.222,1.057,0.221l-0.036,0.065c0.408-0.286,1.235-0.673,1.622-0.828c0.422,0.488-0.329,0.179-0.28,0.513         l1.284-0.259c0.304,0.74-0.797,1.095-1.566,0.773c0.43,2.688,1.097-0.309,3.091,1.63l-1.178,0.046         c0.392,1.518,1.379,1.274,2.494,2.366c-0.245-0.479-2.075-2.717-0.67-3.018c0.311,0.272,0.769,0.455,1.546,0.087         c-0.163,0.864,0.551,0.776,1.397,0.88l-0.255,1.137c0.978-0.164,0.997-0.755,1.612-1.204         c0.993,0.248,1.084,1.168,1.231,1.955c1.627,0.4-0.946-1.583,1.015-1.546c1.299,0.637,2.323,0.182,3.97-0.369         c0.917,0.475-0.209,0.698,0.108,1.057c0,0,0.224-0.215,0.448-0.431c0.221-0.223,0.442-0.445,0.442-0.445         c0.203,0.028,0.124,0.311,0.083,0.454c0.72-0.34,0.115-1.16,1.218-1.447c0.168-0.637,0.705-0.154,1.393,0.311         c0.686,0.479,1.53,0.894,2.199,0.139c0.341,0.322-0.15,0.717-0.041,1.166c1.859-1.011,1.604-0.722,3.058-2.078l1.343,0.66         c-1.014-0.796,0.134-1.924,1.073-2.852c-0.365-0.395-0.672-0.741-0.87-0.901l1.549-0.754         c0.212,0.161,0.098,0.591-0.119,1.094c0.102-0.103,0.196-0.209,0.268-0.309c0.623,0.352,0.406,1.058,0.05,1.761         c-0.227-0.211-0.451-0.44-0.668-0.666c-0.337,0.736-0.658,1.547-0.513,2.219c0.099-0.143,0.3-0.275,0.525-0.358         c-0.091,0.2-0.145,0.376-0.083,0.488c0.069,0.118,0.224-0.153,0.47-0.471l0.521,1.26l0.039-0.524l2.341,0.511         c0.717-0.742,1.332-1.655,2.045-2.522c0.713-0.867,1.538-1.595,2.661-2.158c-0.385,1.068,0.21,1.547,0.427,2.654         c-0.92-0.986-1.821,0.892-3.183,0.897c0.7-0.001,0.648,0.554,0.506,0.771c0,0,0.536-0.375,1.071-0.749         c0.533-0.368,1.051-0.76,1.051-0.76c0.141,0.914,0.636,0.562,1.329,0.79c-0.867-1.682,1.442-1.551,2.203-2.387         c0.221,0.566,0.17,1.253-1.011,1.404c1.627,0.995,1.041-2.513,2.563-1.729c-0.269,0.092-0.441,0.044-0.461,0.373         c0.486-0.68,2.142-0.803,1.952-0.172l-0.268,0.103c1.901-0.319,5.472-2.047,5.066-3.581c0.101,0.174,0.534,1.802,0.55,2.136         c0,0,0.278-1.528,0.451-3.07c0.19-1.525,0.271-3.045,0.271-3.044c0.343,1.321,2.853,3.583,1.765,4.997         c0.497-0.042,1.124-0.12,1.766-1.001c-0.377-0.001-1.608-1.32-1.297-1.62c1.734,0.715,1.075,0.325,3,0.625         c-0.563,0.009-1.195-2.038-0.563-2.372c0.073,0.326,1.188,1.681,1.065,2.024c0,0,0.12-0.698,0.241-1.396         c0.056-0.358,0.112-0.716,0.154-0.985c0.01-0.251,0.016-0.419,0.016-0.419c-0.113,0.558,1.011,1.412,1.673,1.628         c-0.395-0.198,1.217-0.91,1.45-1.354l-0.873,0.086c1.734-0.975-0.27-3.459,1.329-4.574c0.073,0.48,1.148,2.402,2.074,2.01         c-0.293-1.099-1.526-5.203-0.535-6.917l0.627,0.288c0,0,0.184-0.338,0.368-0.675c0.183-0.339,0.392-0.678,0.392-0.678         c0.09,1.82,0.242,5.825,0.071,7.594c0.854-0.052,0.588,0.433,1.396-0.24c0.632,0.23,0.057,1.019-0.171,1.238         c0,0,0.54-0.293,1.08-0.587c0.531-0.276,1.063-0.553,1.063-0.553c-0.399-0.469-0.218-0.97-0.01-1.46         c0.2-0.474,0.423-0.928,0.111-1.334c0,0-0.344,0.617-0.687,1.234c-0.34,0.635-0.68,1.271-0.68,1.271         c-0.825-0.897-0.805-3.76,0.799-4.494c0.605,0.198,0.864,2.027,1.127,2.344c-0.033-0.226,0.18-0.604,0.387-0.837         c0.122-0.138,0.214-0.216,0.285-0.247c0.07-0.033,0.166-0.05,0.177,0.032c0.032-0.021-0.016,0.192-0.018,0.372         c0.003,0.173-0.026,0.375-0.034,0.382c0.208,0.014,0.222-0.022,0.272-0.182c0.015-0.04-0.038-0.044-0.055-0.077l-0.009-0.01         l-0.041-0.104l-0.08-0.216l-0.143-0.438c-0.087-0.296-0.158-0.597-0.214-0.904c-0.063-0.277-0.14-0.379-0.17-0.593         c-0.034-0.19-0.042-0.39-0.019-0.593l0.023-0.154l0.003-0.019l0.001-0.002c-0.089,0.38,0.199-0.855-0.199,0.853l0.001,0.005         v0.01l0.004,0.042l0.008,0.082l0.029,0.333l0.061,0.681c0.028,0.109-0.014,0.246-0.057,0.378         c-0.026,0.093-0.033,0.084-0.039,0.075l-0.022-0.007c-0.062-0.017-0.158-0.048-0.081,0.049         c0.033,0.078,0.038,0.173,0.054,0.351c0.187,0.165-0.185,1.715,0.237,1.126c0.476-1.36,2.372-5.252,3.426-5.839         c0.054,0.088,0.442,0.729,0.711,1.47c0.283,0.736,0.445,1.57,0.36,1.989c-0.159,0.639-0.836,0.857-1.437,1.149         c-0.622,0.281-1.166,0.605-1.347,1.086c0.238-0.234,0.733-0.335,0.901-0.338c-0.001,0.21-0.22,0.355-0.364,0.5         c-0.14,0.144-0.225,0.283-0.034,0.398c0.256-0.173,0.402-0.213,0.497-0.196c0.058,0.017,0.051,0.006,0.061,0.015         c0.021-0.005-0.036,0.023,0.044-0.007c0.104-0.047,0.254-0.083,0.307-0.12c0.287-0.141,0.503-0.171,0.408-0.152         c-0.018-0.041-0.823,0.377-0.346,0.034c0.048,0.007,0.088,0.02,0.119,0.036c0.055,0.017-0.069,0.006,0.193-0.062         c0.42-0.08,0.516-0.133,0.743-0.111l0.04,0.005l0.021,0.003l0.01,0.001l0.006,0.001l0.001,0h0.001         c0.164,0.122-0.224-0.166-0.185-0.136l-0.005,0l-0.18,0.018c-0.121,0.012-0.244,0.024-0.372,0.037         c-0.129,0.013-0.261,0.026-0.398,0.04c-0.077,0.005-0.146,0.013-0.134,0.036l-0.022-0.023         c-0.027-0.032-0.043-0.07-0.036-0.104c0.006-0.03-0.064,0.086-0.083,0.141c0.394,0.094,0.976,0.509,1.292,1.176         c0.341,0.653,0.443,1.476,0.28,1.97c-0.213-0.239-0.666-0.324-0.876-0.367c-1.311,1.397-2.44,1.708-3.718,2.897         c-0.32-0.104-1.188,0.179-1.278-0.455c-0.038,0.325,0.076,0.798-0.314,1.167c-1.475-0.145,0.784-0.898-0.651-1.358         c0.429,0.584-0.378,1.638-0.696,2.463c0.884,0.728,1.52-0.963,1.772-1.804c1.033,1.134,1.081,3.268-0.037,5.041         c-1.069,1.281-1.141-0.39-1.237-0.042c-1.247,0.724-1.375,1.603-1.531,2.38c-0.149,0.78-0.328,1.443-1.644,1.602         c-1.316-0.334-1.053-1.639-1.601-2.129c0.835-0.95,1.916-0.458,2.59-0.956l-1.104,0.171c0.149-0.487,0.686-1.134,1.211-1.141         c-1.109-0.286-4.059,2.409-6.346,2.715c-0.172,0.468-0.59,1.081-0.129,1.277l0.534-0.445c0.938,0.388-0.611,1.574,0.332,1.48         c-0.544,0.935-1.075,2.211-2.469,2.396l-0.718-0.889c0.168,0.281,1.064,0.21,1.239-0.258         c-0.275,0.688-2.456-0.452-2.356,1.119l1.164,0.289c-0.582,0.94-1.181,2.475-2.408,2.66c0.946,0.78,0.194-0.227,1.506,0.592         c-1.336-1.133,2.811-1.238,1.009-2.256c1.434,0.956,1.618-0.1,3.228,0.519c-0.205-0.316-0.681-0.428,0.29-0.748         c-0.01-0.117,0.021-0.288,0.042-0.392c0.032-0.007,0.044-0.006,0.073-0.008l-0.069-0.012c0.012-0.07,0.01-0.082-0.025-0.003         c-0.286-0.028-0.547-0.107-0.711-0.251c0.043-0.984,1.436-1.711,1.688-2.346c0.595-0.139-0.006,0.49,0.466,0.673l0.364-0.969         c0.471,0.672,2.047,0.378,1.073,1.5l1.115-0.608c0.878,0.012,1.858-0.395,2.218-1.019c0.608-0.184,0.784-1.596,0.695-0.771         c0,0,0.35-0.383,0.7-0.767c0.346-0.393,0.692-0.786,0.692-0.786l0.133,0.157c1.881-1.204,2.452-3.583,5.169-4.093         c0.363-0.626,0.692-1.292,1.673-1.983l0.675,0.313c0.228-0.421,0.828-0.821,1.351-1.272c0.519-0.432,0.963-0.943,0.803-1.35         c0.561,0.031,1.072-0.223,1.576-0.814c0.116-0.118,0.267-0.362,0.391-0.559c0.13-0.229,0.222-0.332,0.465-0.958         c0.099-0.257,0.187-0.523,0.263-0.793l0.103-0.404l0.017-0.094l0.03-0.19l0.093-0.671l0.011-0.3         c0.003-0.201-0.001-0.404-0.013-0.607c-0.021-0.382-0.08-0.867-0.151-1.149c-0.069-0.277-0.151-0.553-0.246-0.824         c-0.207-0.612-0.376-0.871-0.581-1.254c-0.217-0.395-0.382-0.593-0.57-0.855c-0.192-0.266-0.365-0.465-0.525-0.641         c-0.672-0.761-1.195-1.203-1.554-1.664l-0.682,0.629c-1.056-0.986-2.156-1.527-4.058-2.041l-0.238,0.79         c-0.212-0.009-0.454-0.049-0.682-0.11c-0.346-0.093-0.705-0.191-1.084-0.293c-0.079-0.02-0.159-0.043-0.24-0.072l-0.03-0.011         l-0.016-0.005l-0.008-0.002l-0.004-0.001l-0.269-0.036l-0.254-0.017c-0.172-0.008-0.347-0.01-0.524-0.004         s-0.356,0.019-0.535,0.04l-0.334,0.049c-0.194,0.036-0.392,0.073-0.592,0.11c-0.686,0.148-1.228,0.291-1.717,0.46         c-0.512,0.176-0.933,0.375-1.326,0.652c-0.079-0.329,0.406-0.53,0.8-0.553c-3.069-0.276-2.962,3.675-5.218,3.703         c-0.177,0.513-0.498,0.634-0.876,0.667c0.032-0.027,0.054-0.063,0.063-0.102c-0.043,0.02-0.1,0.061-0.153,0.105         c-0.243,0.013-0.505,0.01-0.761,0.045c0.271,0.039,0.514,0.057,0.685,0.019c-0.263,0.228-0.619,0.633-0.894,1.112         l-0.715-0.553c-0.025,0.035-0.053,0.054-0.078,0.093c-0.597,0.059-0.061,0.577,0.559,0.928         c-0.114,0.273-0.191,0.555-0.203,0.834c-1.198-0.856-0.753,1.202-2.113,0.354c0.046,0.198-0.035,0.423-0.172,0.67         c-0.069,0.124-0.151,0.254-0.238,0.389c-0.059,0.081-0.046,0.102-0.062,0.148c-0.021,0.049-0.065,0.115-0.097,0.174         c-0.276,0.489-0.579,1.09-0.275,1.808c-0.121-0.161-0.291-0.169-0.08-0.315c-0.541,0.135-1.075,0.251-1.28,0.864         l-0.744-0.856c0,0-0.058,0.473-0.141,0.935c-0.084,0.468-0.168,0.936-0.168,0.936c-0.957-0.263-1.372-0.489-1.157-1.573         c-0.915,1.92-0.976,1.062-1.775,2.84l-0.226-0.687c-0.463,0.224-0.859,1.468-1.389,1.021         c-0.807-0.425-2.149,0.064-3.754,0.538c-1.596,0.48-3.452,0.961-5.045,0.658c1.024,1.936-1.545-0.602-1.326,0.998         c-0.272-0.46-0.729-0.665-0.344-1.178c-1.402,0.749-2.335-0.352-3.169,1.133c-0.242-0.476,0.216-0.77,0.021-1.045         c-0.103,0.123-0.412,0.495-0.607,0.218c-0.19-0.276,0.161-0.445,0.362-0.693c-1.483,0.281-1.466,1.839-1.418,3.296         c-0.876-0.576-1.253-0.481-1.756,0.524c-0.324-0.451-0.822-0.91,0.14-1.157c-0.278-0.013-1.13-0.12-1.904-0.078         c-0.774,0.045-1.486,0.165-1.494,0.757c-0.185-0.291-0.777-0.065-0.921,0.072c-1.249-0.043-1.356-0.111-2.58-0.046l0.337,0.2         c-0.503,1.39-1.032,0.286-2.027,0.428l0.034-0.143c-1.118-0.526-1.36-0.435-1.608-0.353c-0.245,0.084-0.496,0.15-1.559-0.514         l0.048,0.88c-0.182,0.927-0.668,0.61-1.261,0.141c-0.595-0.48-1.279-1.16-1.969-0.883l0.401,0.556         c-0.812,0.533-1.611-2.765-2.215-3.142c-0.119-0.188,0.276-0.216,0.499-0.297c-1.563-1.415-0.416,1.086-1.797,1.102         c-0.127-0.65,0.603-1.484-0.251-1.756c-0.171-0.274-0.896,0.078-1.716,0.305c-0.816,0.227-1.749,0.376-2.179-0.381         c0.133,0.533,0.28,1.068-0.423,1.238c-0.491-0.052-1-0.664-1.529-1.108c-0.526-0.459-1.064-0.775-1.721-0.201         c-0.074-0.162-0.077-0.294-0.043-0.407c-0.831,0.16-2.448-0.236-3.186,0.367c0.254-1.54-0.921-1.62-2.045-1.718         c-1.125-0.086-2.196-0.174-1.532-1.4c0,0-0.517-0.215-1.005-0.462c-0.496-0.24-0.982-0.488-0.982-0.488l0.195-0.213         c-0.542-0.438-0.974-0.581-1.385-0.585c-0.184,0.009-0.358,0.057-0.545,0.114c-0.215,0.031-0.409,0.092-0.623,0.137         c-0.166-0.367,0.197-0.416,0.309-0.513c-1.434-1.818-1.683-1.861-4.011-1.911l0.393-0.836         c-0.722,0.105-1.708-3.108-4.087-3.618c0.079-0.068,0.221-0.18,0.437-0.174c-0.65-0.168-1.174-0.603-1.635-1.129         c-0.115-0.131-0.227-0.269-0.335-0.409c-0.171-0.162,0.018-0.169-0.814-0.719c-0.711-0.448-1.104-0.555-1.654-0.738         c-0.382-0.104-0.841-0.202-1.155-0.239c-1.327-0.162-2.216-0.044-2.86,0.273c-0.642,0.323-1.003,0.877-0.976,1.745         c0,0-0.405,0.371-0.774,0.764c-0.371,0.389-0.712,0.816-0.712,0.816c1.205-0.491,1.244-0.071,1.176,0.382         c-0.077,0.468-0.229,1.028,0.292,1.073c-0.335,0.27-0.918,0.318-1.366,0.282c-0.444-0.041-0.753-0.237-0.279-0.68         c0.002-0.005,0.249,0.038,0.249,0.038c-0.137-0.414-0.379-0.576-0.723-0.523c-0.085,0.013-0.176,0.038-0.271,0.071         c-0.092,0.032-0.186,0.068-0.335,0.173c-0.135,0.09-0.272,0.194-0.408,0.307l-0.236,0.202l-0.049,0.044l-0.024,0.022         l-0.012,0.011l-0.13,0.162l-0.022,0.032c-0.122,0.17-0.23,0.355-0.32,0.544c-0.135,0.308-0.23,0.672-0.254,0.883         c-0.014,0.12-0.028,0.238-0.042,0.354c-0.004,0.093-0.008,0.184-0.012,0.273c-0.002,0.16-0.004,0.313-0.006,0.454         c-0.003,0.512-0.06,0.798-0.348,0.863c0.509,1.552,1.069,2.52,1.622,3.585c0.559,1.028,1.13,2.003,1.738,2.952         c1.218,1.89,2.566,3.677,4.352,5.172c0,0,0.107-0.341,0.215-0.683c0.115-0.337,0.229-0.675,0.229-0.675         s0.285,0.256,0.571,0.513c0.151,0.127,0.302,0.254,0.415,0.35c0.106,0.085,0.177,0.143,0.177,0.143         c0.112,0.459-0.156,1.179-1.048,0.453c0.076,1.008,1.826,0.535,2.015,0.31c1.347,1.582-1.526,0.834-1.042,1.205l0.756,0.401         l-0.07-0.237c0.871-0.067,1.236-0.525,2.215,0.199c0.507,0.63-0.105,0.901,0.125,1.105c-0.052,0.079,0.012,0.171,0.376,0.279         c0,0,0.367,0.261,0.734,0.522c0.372,0.252,0.744,0.504,0.744,0.504l-0.077-1.262c0.945-0.048,1.406,0.884,1.31-0.551         c0.009,0.537,0.401,1.079,0.854,1.525c0.367,0.385,0.877,0.707,1.395,0.993c1.03,0.584,2.123,0.946,2.238,1.324         c1.077-0.326,1.767,0.064,2.638,0.548c-0.132-0.301,0.241-1.429,0.945-0.949c-1.301,2.082,0.97,1.616,0.918,3.5         c-0.119-1.306,2.395,0.667,2.115-1.231c0.586,0.452-0.306,0.861-0.014,1.6c0.967-0.101,1.79,0.375,2.66,0.919         c0.869,0.54,1.75,1.237,2.837,1.374c0.128-0.295-0.062-0.864,0.517-1.187l0.608,1.855c0.456-0.026,0.893-1.66,1.322-0.371         c-0.031-0.291-0.073-0.727,0.223-0.745c0.88,0.692,1.899,1.005,2.927,1.271c0.517,0.125,1.042,0.222,1.569,0.31l1.607,0.167         c1.073,0.102,2.121,0.313,3.168,0.597c1.047,0.291,2.07,0.78,3.09,1.629c-0.531-0.683-0.134-0.701,0.309-0.675         c-0.275-0.18,0.071-0.787,0.05-1.226c0,0,0.414,0.352,0.843,0.659c0.432,0.318,0.864,0.637,0.864,0.637         c0.383-1.189,1.937-0.007,2.146-1.151l-0.565,0.186c0.757-1.331-0.943-3.058-0.743-4.795         c-0.417,0.757-0.91,0.166-1.439-0.342c-0.536-0.489-1.1-1.007-1.837,0.036c-0.239-0.384,0.292-0.533,0.185-0.951         c-0.387,0.708-0.795,0.819-1.462,0.408l0.103-0.175c-0.501-0.011-0.925-0.065-1.311-0.166         c-0.383-0.122-0.728-0.276-1.074-0.452c-0.694-0.352-1.396-0.79-2.432-1.224l-0.016,0.873         c-0.449-0.205-0.487-0.51-0.659-0.769c-0.823,1.157,1.301,0.376,0.512,1.67c-0.255-1.84-3.347-0.836-3.258-2.857         c-0.704-0.21-0.056,1.03-0.763,0.806l-0.042-0.576l-0.37,0.614c-0.438-0.252-0.48-0.97-0.367-1.413         c0.096,0.086,0.353-0.026,0.483-0.028c-0.412-0.789-1.739-0.299-1.885-0.559l0.574,0.52c-1.042-0.026-2.083-0.46-3.136-0.815         c-1.062-0.333-2.118-0.654-3.235-0.527l-0.015,0.434c-1.691,0.112-0.959-0.843-2.604-1.22l0.094-0.063         c-0.468,0.231-0.961,0.231-1.358,0c0.582-0.258-0.324-1.165,0.4-1.415c-1.823,0.039-0.993,0.226-2.644,1.101l0.076-0.716         c-0.607,0.377-0.782,0.651-1.619,0.426c0.883-0.205-0.002-1.15,1.037-1.486c-0.854-2.125-2.946,0.118-2.694-2.227         c-0.462,0.271-0.619,0.525-0.602,0.756c0.012,0.228,0.235,0.456,0.374,0.58c0.335,0.268,0.798,0.397,0.503,0.465         c0.019,0.357-0.296,0.583-0.668,0.665c-0.374,0.085-0.772,0.028-1.095-0.271c-0.642-0.432,0.074-2.697-1.511-3.653         c0.153,0.105,0.239-0.008,0.392,0.097c-0.339-0.764-1.506-0.186-1.791-1.302c-1.034,0.676-0.862-0.669-1.802,0.437         c0,0,0.4,0.175,0.799,0.35c0.406,0.167,0.811,0.335,0.811,0.335c-0.514-0.108-1.194,0.058-1.859,0.039         c-0.667-0.016-1.333-0.212-1.674-1.013c0.286-0.145,0.854-0.176,1.232-0.171c-0.092-0.588-0.826-0.276-0.899-0.907         c0.515-0.511,0.928-0.259,1.359,0.018c0.498,0.323,1.108,0.749,1.833,0.581c-0.064-0.775-2.163-0.236-0.843-1.217         c-1.769,1.182-1.03-1.08-2.877-0.759l0.653-0.571c-0.221-0.021-0.775,0.005-0.997-0.255c0,0,0.306-0.088,0.611-0.176         c0.301-0.095,0.603-0.19,0.603-0.19c-1.331,0.029-0.594-1.82-1.522-2.126c1.203,1.36-0.524,0.99-0.471,2.007         c-1.228-0.504-1.012-1.165-0.724-1.852c0.295-0.699,0.633-1.451-0.191-2.305c0.259,0.187,0.281,1.306-0.352,1.114         c-0.135-0.495-0.189-1.188,0.068-1.64c-0.443-0.567-0.588-0.403-0.756-0.146c-0.153,0.266-0.279,0.668-0.672,0.518         c0.327-0.487,0.16-0.575-0.174-0.613c-0.332-0.034-0.832-0.03-1.079-0.203l0.823-0.309c0.007-0.074,0.023-0.109,0.03-0.132         c0.001-0.015,0.001-0.026,0.008-0.018l0.001,0.001l-0.078,0.021l-0.155,0.039c-0.103,0.023-0.202,0.045-0.298,0.066         c-0.414,0.071-0.645,0.146-0.92,0.173c-0.229,0.024-0.428,0.046-0.607,0.065c-0.157,0.012-0.291,0.009-0.405,0.002         c-0.094,0.003-0.159,0.005-0.223,0c-0.123-0.008-0.207-0.026-0.282-0.043c-0.051-0.003-0.1-0.01-0.171-0.031         c-0.034-0.01-0.082-0.03-0.122-0.048c-0.024-0.006-0.054-0.016-0.089-0.04l-0.027-0.02l-0.007-0.006l-0.002-0.001l-0.001,0         l0,0c-0.648-0.62,0.883,0.843,0.726,0.693l0.015,0.008l0.063,0.031c0.086,0.043,0.179,0.089,0.278,0.139         c0.183,0.085,0.469,0.249,0.662,0.316c0.038-0.037,0.003,0.038,0.006,0.061c-0.001,0.017-0.014,0.042-0.008,0.055         c0.033-0.002,0.069-0.004,0.107-0.007c0,0,0.024,0.076,0.061,0.188c0.016,0.127,0.217,0.176,0.35,0.241         c0.044,0.032-0.029-0.054-0.059-0.093l-0.116-0.141c-0.08-0.083-0.157-0.198-0.245-0.243c-0.176-0.088-0.34-0.17-0.481-0.24         c-0.282-0.141-0.47-0.234-0.47-0.234s0.232,0.116,0.58,0.289c0.167,0.112,0.392,0.125,0.574,0.379         c0.094,0.106,0.187,0.221,0.274,0.341l0.128,0.184c0.03,0.05,0.112,0.162,0.074,0.141c-0.163,0.083-0.103-0.014-0.1-0.049         c0.009-0.043,0.015-0.073,0.015-0.073s0.129,0.215,0.259,0.431c0.137,0.208,0.274,0.417,0.274,0.417         c-0.149-0.357,0.045-0.626,0.223-0.724c0.203-0.106,0.472-0.106,0.853-0.092c-0.382-0.512-0.456-1.556,0.253-1.771         c0.292,0.191,0.255,0.425,0.288,0.544c0.007,0.135,0.125,0.143,0.405,0.047c-0.087,0.568-0.008,1.237-0.564,0.551         c0.041,0.281-0.031,0.585,0.021,0.864c0.292,0.215,0.5,0.211,0.625,0.142c0.038-0.021,0.034-0.026,0.053-0.048l0.02-0.031         c0.012-0.026,0.012,0.044-0.014-0.189c-0.078-0.636,0.005-1.306-0.015-1.647c-0.006,0.331-0.013,0.692-0.019,1.028         c0.002,0.175,0.011,0.341,0.023,0.489c0.008,0.107,0.009,0.083,0.01,0.063l0.003-0.046c0,0-0.004-0.018-0.013-0.048         c-0.002-0.021-0.002,0.013-0.007-0.056c-0.003-0.06-0.007-0.125-0.011-0.193c-0.006-0.138-0.008-0.295-0.005-0.467         c0.026-0.37,0.002-0.696,0.037-1.059c0.018-0.183,0.049-0.372,0.094-0.564c0.011-0.147,0.032-0.29,0.072-0.436         c0.031-0.136,0.116-0.311,0.147-0.406c0.021-0.084,0.057-0.168,0.106-0.246c0.024-0.039,0.052-0.076,0.083-0.111l0.011-0.013         l0.006-0.006c-0.761,0.989,1.706-2.216-1.707,2.218h0.001h0.001l0.003,0l0.024,0.003l0.048,0.006         c0.063,0.007,0.123,0.015,0.178,0.021c0.221,0.026,0.368,0.044,0.368,0.044c0.054,0.459-0.308,0.513-0.665,0.565         c0.384,0.178,0.855,0.032,1.382,0.344c-0.558,0.47-0.975,1.079-1.859,0.819l2.019,0.561         c-0.085,0.326,0.272,1.288-0.087,1.342c0.599,0.993,2.933,0.518,3.728,1.832c0.143-0.064,0.341-0.079,0.644,0.026         c0.965,0.95,1.375,2.374,3.229,2.57c0,0-0.077,1.559-0.046,1.58c0.789,0.395,0.687-0.179,0.693-0.7         c0.081-0.481,0.222-0.903,1.444-0.354c1.628,0.576-0.064,1.257,0.252,1.883c1.083-0.075,2.905-0.552,3.731,1.048         C228.636,111.534,228.381,111.185,227.929,111.053z M243.664,116.188c-0.346,0.108-1.097,0.516-1.205-0.041         C243.043,115.251,243.197,115.782,243.664,116.188z M268.004,115.1c-0.188,0.317-0.56,0.222-0.99-0.057         C267.291,114.934,267.616,114.924,268.004,115.1z M298.204,116.628c0.004-0.019,0.007-0.033,0.006-0.054         C298.986,116.495,298.704,116.512,298.204,116.628z M296.766,117.049c-0.063,0.179,0.007,0.279,0.123,0.354         c-0.025-0.242,0.246-0.419,0.599-0.552C297.279,116.706,297.037,116.663,296.766,117.049z M219.448,115.669l-0.116-0.342         C220.002,115.446,219.731,115.547,219.448,115.669z" style="fill:#202020;"/><path d="M265.402,116.592c-0.101-0.141-0.14-0.302-0.174-0.465         C265.12,116.284,265.131,116.454,265.402,116.592z" style="fill:#202020;"/><path d="M219.266,105.533c-0.008-0.016-0.022-0.023-0.031-0.037c-0.052,0.026-0.096,0.06-0.134,0.097         L219.266,105.533z" style="fill:#202020;"/><path d="M305.009,101.468c0-0.198,0.015-0.39,0.086-0.557         C304.931,101.057,304.896,101.256,305.009,101.468z" style="fill:#202020;"/><path d="M290.676,122.003l0.738-0.625c-0.386,0.242-0.615,0.142-0.879,0.118         C290.643,121.672,290.932,121.858,290.676,122.003z" style="fill:#202020;"/><path d="M282.459,119.653c-0.05,0.137-0.184,0.088-0.231,0.226l0.171,0.37         C282.771,120.068,282.914,119.655,282.459,119.653z" style="fill:#202020;"/><path d="M288.646,119.729c-0.381-0.639-0.788-0.177-1.31,0.211c0.033-0.018,0.063-0.039,0.103-0.046         C287.693,120.914,288.176,120.318,288.646,119.729z" style="fill:#202020;"/><path d="M287.214,120.025c-0.156,0.108-0.356,0.221-0.509,0.251         C286.803,120.687,286.927,120.271,287.214,120.025z" style="fill:#202020;"/><path d="M295.423,118.397c-0.363-0.019,0.292,0.916-0.01,0.738         C295.581,120.133,296.648,117.12,295.423,118.397z" style="fill:#202020;"/><polygon points="287.155,117.735 287.742,118.469 287.748,117.658        " style="fill:#202020;"/><path d="M291.851,116.152c0,0-0.997,0.244-0.997,0.244c0.084,0.129,0.013,0.265-0.096,0.396         C291.325,116.552,291.997,116.375,291.851,116.152z" style="fill:#202020;"/><path d="M290.758,116.792c-0.295,0.127-0.558,0.282-0.65,0.495         C290.259,117.2,290.579,117.006,290.758,116.792z" style="fill:#202020;"/><polygon points="288.265,116.921 288.608,116.961 289.263,116.708        " style="fill:#202020;"/><path d="M301.079,110.616l0.698-0.885c-0.11-0.313-0.458-0.273-0.699,0.071         C301.009,110.133,300.763,110.48,301.079,110.616z" style="fill:#202020;"/><path d="M296.976,110.432c0.343,0.001,0.472,0.161,0.773,0.321l-0.601-0.958L296.976,110.432z" style="fill:#202020;"/><path d="M299.306,108.498c-0.106-0.315,0.613-1.626-0.359-0.772         C299.057,108.045,298.446,108.809,299.306,108.498z" style="fill:#202020;"/><path d="M306.109,98.299l0.216,0.152l1.136-1.465c0,0-0.342,0.326-0.684,0.651         C306.443,97.968,306.109,98.299,306.109,98.299z" style="fill:#202020;"/><path d="M297.382,106.271c1.27-0.434-0.471-1.085,0.77-1.354c-0.036-0.529-1.013,0.219-1.007-0.267         C296.829,105.486,296.351,105.532,297.382,106.271z" style="fill:#202020;"/><path d="M297.145,104.651c0.051-0.133,0.098-0.283,0.133-0.462         C297.175,104.417,297.147,104.55,297.145,104.651z" style="fill:#202020;"/><polygon points="257.093,128.878 257.746,129.289 257.333,128.65        " style="fill:#202020;"/><path d="M258.373,127.55l0.144,1.187l0.396-1.055C258.767,127.729,258.481,127.821,258.373,127.55z" style="fill:#202020;"/><path d="M245.623,118.999l0.119-0.268c-0.083-0.327-0.285-0.388-0.689-0.512L245.623,118.999z" style="fill:#202020;"/><polygon points="234.052,114.876 234.24,114.975 234.258,113.836        " style="fill:#202020;"/><path d="M223.894,111.316c0.381,0.306,0.96,0.375,1.332,0.661         C224.265,111.614,224.52,110.137,223.894,111.316z" style="fill:#202020;"/></g></g></g></g></g></g></g><g id="Layer_1"/></svg>