<?xml version="1.0" ?><svg data-name="Layer 1" id="Layer_1" viewBox="0 0 128 128" xmlns="http://www.w3.org/2000/svg"><defs><style>.cls-1{fill:#f6ecd9;}.cls-2{fill:#e56c6c;}.cls-3{fill:#dd5e58;}</style></defs><title/><path class="cls-1" d="M56.68458,19.357V48.136A34.60492,34.60492,0,0,1,46.549,72.60541L38.3113,80.84313a19.33335,19.33335,0,0,0,0,27.34147l0,0a19.33332,19.33332,0,0,0,27.34146,0L85.21571,88.62171A34.60493,34.60493,0,0,0,95.35126,64.15232V19.357A5.20423,5.20423,0,0,0,90.147,14.15278H61.88881A5.20423,5.20423,0,0,0,56.68458,19.357Z"/><path class="cls-2" d="M95.35126,63.80409A15.2933,15.2933,0,0,0,82.3534,91.484l2.8623-2.86231A34.605,34.605,0,0,0,95.35126,64.15229Z"/><path class="cls-3" d="M37.46577,81.77857a19.31867,19.31867,0,0,0,.84552,26.406h.00006a19.33276,19.33276,0,0,0,22.893,3.314A30.54276,30.54276,0,0,0,37.46577,81.77857Z"/><path class="cls-3" d="M90.147,14.15277H61.88884A5.20425,5.20425,0,0,0,56.68455,19.357V30.48615H95.3513V19.357A5.20429,5.20429,0,0,0,90.147,14.15277Z"/></svg>