<?xml version="1.0" ?><svg enable-background="new 0 0 52 52" id="Layer_1" version="1.1" viewBox="0 0 52 52" xml:space="preserve" xmlns="http://www.w3.org/2000/svg" xmlns:xlink="http://www.w3.org/1999/xlink"><g><g><path d="M31.4319668,36.4918289c3.8108959,0.0222778,7.6217899,0.0445557,11.4326878,0.0668335    c1.4034767,0.0082054,3.9420242-0.5533104,4.9058266,0.615448c0.6018486,0.7298317,0.0426331,4.6984138,0.0517807,5.7064323    c0.0060539,0.6672668,0.5596085,4.9863167,0.334156,5.266098c-0.3992348,0.4954453-4.914814,0.0013351-5.6620216,0.0015373    c-3.7746811,0.0010262-7.5493622,0.0020523-11.3240452,0.0030785c0.416666,0.4166641,0.833334,0.8333321,1.2499981,1.25    c0.2573318-4.6924515,0.3972855-9.3852386,0.4200554-14.0847015c0.0077934-1.6089287-2.492197-1.61092-2.5000019,0    c-0.022768,4.6994476-0.1627216,9.3922348-0.4200516,14.0847015c-0.037014,0.6749573,0.6027012,1.2501755,1.25,1.25    c3.066927-0.0008354,6.1338558-0.001667,9.2007847-0.0025024c2.4528885-0.0006638,5.6348114,0.4755478,8.0368652-0.0282478    c3.2384529-0.6792183,1.9366226-5.2753448,1.9142609-7.7399635c-0.0205383-2.2634773,1.300972-7.7663383-1.4089622-8.7438126    c-1.9892349-0.717514-5.3814621-0.0741653-7.4777298-0.086422c-3.3345375-0.0194931-6.6690712-0.0389862-10.003603-0.0584793    C29.8229847,33.9824257,29.8211327,36.4824142,31.4319668,36.4918289L31.4319668,36.4918289z"/></g><g><path d="M35.3825569,34.8145752c-0.0519829-1.6193085-0.3274994-3.3776207,0.1498909-4.9278755    c0.4564552-1.4822578,1.9226723-3.411356,3.5694695-3.6742592c4.2021179-0.6708508,4.7797089,4.8318405,4.9600258,7.8527489    c0.0954323,1.5987968,2.5960846,1.6097145,2.5,0c-0.1622543-2.7183151-0.7080612-5.442791-1.9367294-7.8949471    c-1.0914307-2.1782627-3.2025414-2.4817715-5.5232964-2.4578018c-2.4779778,0.0255928-3.5890617,1.7091122-5.0582275,3.5004616    c-1.8242035,2.2242432-1.2483025,4.8864098-1.1611328,7.6016731    C32.9340744,36.4193268,35.4343033,36.426445,35.3825569,34.8145752L35.3825569,34.8145752z"/></g><g><path d="M33.0149651,29.8166904c-10.0919838-0.0001144-20.1839657-0.0002308-30.2759476-0.0003452    c0.4166665,0.416666,0.8333333,0.833334,1.25,1.25c0.0269668-5.4853802,0.0539334-10.9707623,0.0809-16.4561424    c0.0117426-2.388546-0.4834046-5.4219379,0.0380707-7.7440667c0.7999101-3.5619974,4.1006665-2.8027368,7.2278638-2.913219    C22.1801205,3.5697932,33.0307693,3.5657423,43.87677,3.8777082c-0.4166679-0.4166665-0.8333321-0.8333333-1.25-1.25    c0.1753769,7.3410997,0.2013664,14.6805134,0.0779762,22.0226822c-0.0270462,1.6093407,2.47295,1.6096706,2.5,0    c0.1233902-7.3421574,0.0974007-14.6815729-0.0779762-22.0226822c-0.0164871-0.6901106-0.5597649-1.2301465-1.25-1.2499999    C36.8590431,1.1758558,29.8398857,1.097819,22.819521,1.1810942c-3.1905899,0.0378467-6.380991,0.1071643-9.5702124,0.2079405    c-2.8999872,0.0916368-6.975275-0.4673281-9.7305212,0.4160341C0.3957312,2.8063548,1.606896,7.0882511,1.5937115,9.7701607    C1.5588133,16.8688889,1.5239153,23.967617,1.4890171,31.0663452c-0.003322,0.6757412,0.5753974,1.2499924,1.2500001,1.25    c10.0919819,0.0001144,20.1839638,0.0002289,30.2759476,0.0003471    C34.6235962,32.3167076,34.6262589,29.8167095,33.0149651,29.8166904L33.0149651,29.8166904z"/></g><g><path d="M4.7645149,5.4116654c4.6144629,3.3756413,9.1342411,6.1120772,13.3318596,10.1045399    c1.3619671,1.2954006,3.1417065,4.6627808,5.4096031,4.2286568c2.7857285-0.5332508,5.6331367-5.2568159,7.5464096-7.0905933    c3.3352013-3.1966248,6.6038132-6.659009,10.8677673-8.5033779c1.4726753-0.6370053,0.2010345-2.7914238-1.2617989-2.1586766    c-3.3760376,1.4603029-5.0094299,3.1232481-7.5401802,5.6090355c-1.1952763,1.1740389-2.6219273,2.1175451-3.8335552,3.2852526    c-1.5576134,1.5011511-2.9824448,3.7645245-4.7820187,4.9371624c-1.7740326,1.1559944-1.8475533,0.6467075-3.2609005-0.7541256    c-1.7629337-1.747324-3.5888824-3.450902-5.4483404-5.0950289c-3.018611-2.6690459-6.5363798-4.3581734-9.7670479-6.7215204    C4.7263455,2.3020172,3.4777095,4.4703221,4.7645149,5.4116654L4.7645149,5.4116654z"/></g><g><path d="M26.2518101,17.7496395c2.5452576,2.837347,4.7251625,6.2173233,7.7436695,8.5772724    c1.2531281,0.9797287,3.0345612-0.7773514,1.767765-1.767767c-3.0184097-2.3598747-5.1985874-5.7401237-7.7436676-8.5772715    C26.9429741,14.7817221,25.1797085,16.5545063,26.2518101,17.7496395L26.2518101,17.7496395z"/></g><g><path d="M17.7124729,15.4479408c-3.8143787,5.5107174-10.4099903,8.7673397-14.9025364,13.744173    c-1.0756788,1.1916332,0.686933,2.9651127,1.767767,1.767767c4.6605144-5.1629086,11.3246689-8.5163612,15.2934456-14.2501411    C20.7889767,15.3837309,18.6230297,14.1324387,17.7124729,15.4479408L17.7124729,15.4479408z"/></g></g></svg>