<?xml version="1.0" ?><svg enable-background="new 0 0 52 52" id="Layer_1" version="1.1" viewBox="0 0 52 52" xml:space="preserve" xmlns="http://www.w3.org/2000/svg" xmlns:xlink="http://www.w3.org/1999/xlink"><g><g><path d="M26.121912,20.7984962c2.8303928-0.8380127,6.124979-1.7799091,9.0561962-1.0266418    c5.2976952,1.3614063,6.8726082,7.5983181,4.1055756,11.886322c-1.7019958,2.6375389-4.3626823,4.8425407-6.5256767,7.1006279    c-1.966238,2.052681-5.175436,6.9284706-7.9973927,7.4133682c-2.6650372,0.4579353-4.4824371-2.8239899-6.4427471-4.6318016    c-2.2580891-2.0824318-4.5007-4.7766609-5.7284899-7.5932922c-1.205945-2.7665119-1.7267914-6.5980129-1.2475672-9.6622486    c0.7978954-5.1018753,9.7772083-6.3364239,13.4798641-3.8961945c1.3472443,0.8878994,2.6009483-1.2761116,1.2617989-2.1586761    c-3.6858864-2.4291792-10.2920046-1.6911182-14.1095028,0.2316875c-3.7893629,1.9086342-3.1983719,5.4378777-3.1107597,9.2305546    c0.1295729,5.6090946,2.2499676,9.4837894,5.88379,13.6836681c1.8887167,2.18293,6.3157663,8.3698196,9.738061,8.4001389    c1.2043438,0.0106697,1.7653675-0.7242393,2.6206417-1.5031548c2.6183472-2.3845825,4.9679127-5.1863174,7.4200687-7.7462807    c3.3272934-3.4735718,7.9874954-7.0774612,8.6199989-12.1894913c0.4564896-3.6894302-1.1645508-7.6852779-4.3256874-9.7389507    c-3.9593697-2.5722542-9.1644077-1.453371-13.3627701-0.2103329    C23.9181595,18.8435059,24.5734463,21.2569599,26.121912,20.7984962L26.121912,20.7984962z"/></g><g><path d="M17.9361095,17.400589c-0.139904-2.1770582-0.5235825-4.7851963-0.1287689-6.940239    c0.6432095-3.5108633,4.6789474-5.7996349,8.0927486-5.735878c7.2146072,0.1347418,6.0693321,9.2642412,6.334198,14.2534294    c0.0849609,1.600441,2.585495,1.6104488,2.5,0c-0.3504066-6.6005173,0.3815498-16.6488838-8.834198-16.7534294    c-3.2782154-0.037189-6.9437637,1.6726553-9.1121044,4.1196136c-2.4677649,2.7848549-1.5697727,7.665801-1.3518744,11.0565033    C15.5387764,18.9981689,18.0395184,19.0097103,17.9361095,17.400589L17.9361095,17.400589z"/></g><g><path d="M26.0751858,31.101099c1.0920258,0.8479786,1.3418484,1.9581356,0.5307484,3.1197414    c-0.3821411,0.5472755-0.6858215,0.783535-0.8064804,1.4874878c-0.0511665,0.2985191-0.0269947,0.6046715-0.0299931,0.9055595    c0.0035,0.2196732,0.007,0.4393425,0.0105,0.6590157c-0.1043682,0.337429,0.0080776,0.4403381,0.3373394,0.3087234    c0.4304123-0.0203247,0.442812-0.0269585,0.0371971-0.0199013c-0.1965961,0.0005875-0.3931923,0.0011749-0.5897865,0.0017586    c-0.5023289,0.001503-1.0888081,0.0633698-1.5738773-0.0667305c0.2910175,0.2910156,0.5820332,0.5820351,0.8730507,0.8730507    c-0.3234177-1.0524178,0.2446861-2.2226334-0.1046886-3.2529182c-0.2541676-0.7495232-1.0083408-1.0304489-1.3725071-1.6753883    c-0.3540344-0.6269989-0.5865002-2.5535774-0.0910892-3.0931015c0.5834274-0.6353779,3.260952-0.1583672,3.9946003-0.0745392    c1.5957165,0.1823311,1.5826817-2.3191566,0-2.5c-1.6056519-0.183466-4.1246052-0.5444927-5.6310387,0.2617912    c-1.4097176,0.7545204-1.0541382,2.7309017-1.0483608,4.055172c0.0070515,1.6159668,0.2449856,2.5567818,1.3262901,3.7248993    c0.0778027,0.0840454,0.5337162,0.4665031,0.403471,0.1890182c0.1438122,0.3063889-0.0749149,1.1865883-0.0715389,1.544796    c0.0060978,0.6471901-0.0022259,1.5310631,0.5056286,2.0364532c0.7853718,0.781559,2.9832592,0.6293259,3.9621983,0.4483452    c1.3563995-0.2507629,1.5465565-1.1870003,1.5483608-2.4319229c0.0017414-1.2021027,0.028862-1.3540115,0.6439228-2.2992325    c0.3960228-0.6086044,0.6383324-1.3200531,0.7051735-2.0409203c0.1450539-1.5643806-0.572443-2.9824181-1.7913532-3.9289246    C26.5872898,28.3582878,24.8054638,30.1151371,26.0751858,31.101099L26.0751858,31.101099z"/></g></g></svg>