<?xml version="1.0" ?><svg enable-background="new 0 0 52 52" id="Layer_1" version="1.1" viewBox="0 0 52 52" xml:space="preserve" xmlns="http://www.w3.org/2000/svg" xmlns:xlink="http://www.w3.org/1999/xlink"><g><g><path d="M26.9695587,6.4870009c0.5263462-0.5136619,1.0526943-1.0273232,1.5790405-1.5409851    c1.196106-0.4942489,2.2101307-0.2507195,3.042078,0.730588c1.4753895,0.3456621,1.7603931,1.0456147,0.8550091,2.0998573    c-0.2296677,1.1998305-0.9835434,1.9391103-2.2616272,2.2178407c-1.1014328,0.3841829-1.2722511,2.1025848,0,2.4106979    c2.3495636,0.5690155,4.0940933,6.3054781-0.2189751,6.0270491c-0.8409634-0.054287-3.113781-1.2687111-2.9941654-2.2634277    c0.1267929-1.0543919-1.4701729-1.680891-2.1338825-0.8838825c-0.7929363,0.9521904-1.5800648,2.1252785-2.81217,2.5174675    c-3.3227882,1.0576725-4.3411617-4.7349024-0.5313969-5.6107512c1.0266933-0.2360325,1.2431946-1.7938843,0.2985992-2.284687    c-2.4845848-1.290967-3.8549156-4.9887271-0.2864437-5.5185356c1.4407444-0.2139063,1.9604206,0.5796361,2.5233402,1.7274628    c0.7083607,1.4443841,2.8651752,0.178791,2.1586781-1.2617979c-0.7906456-1.6121686-0.9315529-2.4568536-2.8138695-2.8194828    c-1.7245903-0.3322428-4.2162838-0.483253-5.5893593,0.839699c-2.9449253,2.8374178-0.1365986,7.693635,2.7458572,9.1913309    c0.0995331-0.7615623,0.1990662-1.5231247,0.2985992-2.284687c-4.1029358,0.9432478-5.7690506,5.581358-3.0883007,8.89499    c3.0349903,3.7515049,6.4088135,1.3253231,8.864233-1.6232414c-0.7112942-0.2946281-1.4225883-0.5892563-2.1338844-0.8838844    c-0.4497395,3.7399845,5.9635334,6.019249,8.691534,4.1042194c3.8715744-2.7178135,1.9092941-9.2557936-2.3137951-10.2785387    c0,0.803566,0,1.607132,0,2.4106979c3.3640079-1.173377,6.8067875-6.2763042,3.1350956-9.2257185    c-3.068594-2.4649558-9.0815411-0.7377434-9.5141945,3.3077197C24.2986813,8.0847692,26.7999687,8.0727196,26.9695587,6.4870009    L26.9695587,6.4870009z"/></g><g><path d="M24.2705975,18.4044266c0.1758232,10.1938896,0.2265568,20.3880005,0.1522045,30.5831337    c-0.0117359,1.6090508,2.4882526,1.6107025,2.5,0c0.0743523-10.1951332,0.0236187-20.3892441-0.1522045-30.5831337    C26.7428818,16.7974701,24.242794,16.7924118,24.2705975,18.4044266L24.2705975,18.4044266z"/></g><g><path d="M26.5237885,39.7372971c1.3325939-0.0938454,2.6645832-0.118885,3.9997444-0.0751915    c1.6091766,0.0526657,1.607296-2.4473991,0-2.5c-1.3351803-0.0436935-2.6671696-0.0186539-3.9997444,0.0751915    C24.9279537,37.3496857,24.9155712,39.8505554,26.5237885,39.7372971L26.5237885,39.7372971z"/></g><g><path d="M25.940485,43.7377014c1.1388893,0,2.2777786,0,3.4166679,0c1.6086311,0,1.6112938-2.5,0-2.5    c-1.1388893,0-2.2777786,0-3.4166679,0C24.3318558,41.2377014,24.3291912,43.7377014,25.940485,43.7377014L25.940485,43.7377014z"/></g><g><path d="M25.6059055,47.7114868c1.8892632,0.0385475,3.7783298,0.0449715,5.6678085,0.019268    c1.6073895-0.021862,1.6119442-2.5219231,0-2.5c-1.8894806,0.0257034-3.7785473,0.0192795-5.6678085-0.019268    C23.9965305,45.1786499,23.9967003,47.6786537,25.6059055,47.7114868L25.6059055,47.7114868z"/></g></g></svg>