<?xml version="1.0" ?><svg enable-background="new 0 0 52 52" id="Layer_1" version="1.1" viewBox="0 0 52 52" xml:space="preserve" xmlns="http://www.w3.org/2000/svg" xmlns:xlink="http://www.w3.org/1999/xlink"><g><g><path d="M25.0586338,29.2557106c5.5271091,0.0616837,9.3017216-4.1235294,14.8846111-3.1534786    c1.3709526,0.2382088,5.7167854,1.005022,6.671032,1.8156471c2.2442169,1.9064426,0.8904915,8.2611942-0.0120277,10.572897    c-1.2846985,3.2906113-3.7851257,5.6513252-6.4980812,7.8136902c-3.3546867,2.6738548-5.8531876,1.9264336-8.0233154-1.8590164    c-2.0826702-3.6329002-5.7208557-10.4345207-5.7776527-14.433979c-0.0228252-1.6073227-2.522892-1.6119576-2.5,0    c0.0698376,4.9178238,3.3334503,9.8360863,5.3006535,14.2637901c1.3057671,2.9389687,4.5906696,7.3218498,8.3321819,6.7280159    c3.4297333-0.5443497,8.2216835-5.9119263,10.0025177-8.6164017c2.7900543-4.2371368,3.6094666-10.9335442,2.6726341-15.8440456    c-0.0782623-0.4102383-0.4791107-0.7748299-0.8730469-0.8730507c-2.088871-0.5208149-4.187809-0.5889492-6.264061-1.2331009    c-1.9133987-0.5936298-3.8954163-1.3320141-5.9393921-1.2498074c-4.3494415,0.1749306-7.4896755,3.6189079-11.9760532,3.56884    C23.4494305,26.737751,23.4483166,29.2377396,25.0586338,29.2557106L25.0586338,29.2557106z"/></g><g><path d="M33.2271805,46.9032784c-10.1530628,0.0380898-20.3061256,0.0761795-30.4591904,0.1142693    c0.4166667,0.4166641,0.8333335,0.8333321,1.2500002,1.25c0.0393939-12.814476,0.0787883-25.628952,0.1181827-38.443428    c0.003068-0.9979582-0.4305677-4.228507,0.0151515-4.9286447c0.8135624-1.277946,2.9156132-1.1213918,4.1531658-1.2392805    c3.0826397-0.2936511,6.3446159-0.043936,9.4386244-0.0559404c6.2925186-0.0244145,12.5850353-0.0204937,18.8775444,0.0040343    c-0.4166679-0.4166665-0.8333359-0.8333333-1.25-1.25c0.5926132,7.2692595,0.7996559,14.5304604,0.6222153,21.8216667    c-0.0391655,1.6093636,2.4608536,1.6086483,2.5,0c0.1774406-7.2912159-0.0296021-14.5524178-0.6222153-21.8216667    c-0.055088-0.6757226-0.5280952-1.2471859-1.25-1.2499999c-5.9778862-0.0233018-11.9557667-0.0280567-17.93367-0.0073103    c-5.2305994,0.018153-11.011385-0.6380725-16.1119041,0.6216903C2.0428934,1.8501132,1.6590399,2.3857069,1.657385,2.9240172    C1.61092,18.0385265,1.5644549,33.153038,1.5179899,48.2675476c-0.0020715,0.6738663,0.5743632,1.252533,1.25,1.25    c10.1530638-0.0380898,20.3061275-0.0761795,30.4591904-0.1142693    C34.8355293,49.3972473,34.8387146,46.8972359,33.2271805,46.9032784L33.2271805,46.9032784z"/></g><g><path d="M3.9773345,11.8564653c10.6666851-0.011941,21.3333683-0.0238819,32.0000534-0.0358238    c1.608551-0.0018005,1.6113739-2.5018034,0-2.5C25.3107033,9.3325834,14.6440191,9.3445244,3.9773345,9.3564653    C2.3687832,9.3582668,2.3659635,11.8582697,3.9773345,11.8564653L3.9773345,11.8564653z"/></g><g><path d="M3.5611577,41.9851227c8.166317,0.157074,16.332634,0.3141518,24.498951,0.4712296    c1.6093693,0.0309525,1.6093616-2.4690475,0-2.5c-8.166317-0.1570778-16.332634-0.3141556-24.498951-0.4712296    C1.9517894,39.4541664,1.9517961,41.9541664,3.5611577,41.9851227L3.5611577,41.9851227z"/></g><g><path d="M18.2273216,45.5946198c1.4722214,0,2.9444447,0,4.416666,0c1.6086311,0,1.6112957-2.5,0-2.5    c-1.4722214,0-2.9444447,0-4.416666,0C16.6186905,43.0946198,16.6160259,45.5946198,18.2273216,45.5946198L18.2273216,45.5946198z    "/></g><g><path d="M16.2273216,7.5112872c3.5555553,0,7.1111107,0,10.666666,0c1.6086311,0,1.6112957-2.5,0-2.5    c-3.5555553,0-7.1111107,0-10.666666,0C14.6186905,5.0112872,14.6160259,7.5112872,16.2273216,7.5112872L16.2273216,7.5112872z"/></g></g></svg>