<?xml version="1.0" ?><svg enable-background="new 0 0 52 52" id="Layer_1" version="1.1" viewBox="0 0 52 52" xml:space="preserve" xmlns="http://www.w3.org/2000/svg" xmlns:xlink="http://www.w3.org/1999/xlink"><g><g><path d="M2.8380568,7.449708c2.1682012-0.01196,4.8079605-0.4316335,6.9346619-0.0382519    c1.8414993,0.3406267,2.99226,1.5674229,4.6153927,2.3204269c2.322937,1.0776577,4.8402672,0.890274,7.3451595,0.9358654    c8.9291763,0.1625214,17.8583546,0.3250427,26.7875309,0.4875641c-0.4166679-0.416666-0.8333359-0.833333-1.25-1.25    c0.1003418,12.0284052,0.0798035,24.056572-0.0616112,36.0845604c0.4166641-0.4166679,0.8333321-0.8333321,1.25-1.25    c-13.8014984,0.0134392-27.6029987,0.0268784-41.4044991,0.0403175c-2.067606,0.0020142-3.1955302,0.6385269-3.9483337-1.9528961    c-0.3778706-1.3007698-0.0177462-3.1167564-0.0188425-4.4527473c-0.0028372-3.4580688-0.0056746-6.9161415-0.008512-10.3742142    C3.0732591,20.9985886,2.4092324,13.6014204,3.4381461,6.662837C3.6715262,5.089016,1.2629793,4.4099126,1.0274485,5.9982381    c-0.9785026,6.5986304-0.455452,13.4615364-0.4499921,20.1158733c0.0054428,6.6334705-0.6929077,13.7002659,0.4574107,20.2530651    c0.0934887,0.5325584,0.6949399,0.9181976,1.2053488,0.9177017c15.4063234-0.0150032,30.8126488-0.0300026,46.2189751-0.0450058    c0.681591-0.0006638,1.2420311-0.5722809,1.25-1.25c0.1414146-12.0279922,0.161953-24.0561562,0.0616112-36.0845604    c-0.0057144-0.6848211-0.5682869-1.2375917-1.25-1.25C39.9223328,8.4988108,31.3238678,8.342309,22.7254009,8.1858063    c-1.8297787-0.0333033-4.3235264,0.2132177-6.101284-0.2604904c-1.8356791-0.4891419-2.8443136-2.018796-4.5142221-2.6459212    c-2.7245855-1.0232038-6.42489-0.3453903-9.2718382-0.3296866C1.2298574,4.9585791,1.2264271,7.4585981,2.8380568,7.449708    L2.8380568,7.449708z"/></g><g><path d="M3.5866711,16.5483913c15.6117697-0.1047459,31.2232304-0.0440178,46.8337135,0.1821842    c1.6092987,0.0233192,1.609951-2.4766712,0-2.5c-15.6104813-0.226202-31.221941-0.2869301-46.8337135-0.1821833    C1.978578,14.0591812,1.9749819,16.559206,3.5866711,16.5483913L3.5866711,16.5483913z"/></g><g><path d="M28.1472034,23.0210342c0.0774536,1.7485523,0.3187714,3.8374004-1.9134159,4.3713894    c-1.589613,0.38027-3.112114-1.9018784-3.2575703-3.172575c-0.1884842-1.6465969-0.1071758-2.608469,1.6339607-2.6929569    c0.7444687-0.0361233,1.4206314-0.1937408,2.0289516,0.3052559c0.3628139,0.2976112,0.5702133,0.6612186,0.9841347,0.9322014    c1.3499928,0.8838062,2.6040268-1.279953,1.2617989-2.1586761c-0.4585609-0.3002071-0.6725712-0.8850708-1.1698494-1.1853161    c-0.4304142-0.2598763-0.8863716-0.3547974-1.381855-0.4037552c-1.1919289-0.1177731-2.8381538-0.1176643-3.9680176,0.3384686    c-2.4130726,0.9741726-2.3033085,4.8285446-1.4366665,6.8325195c0.9550705,2.2084503,3.4608421,4.32547,5.9697113,3.6155319    c1.2345963-0.3493557,2.5989761-1.3855171,3.3287086-2.4370518c0.8568249-1.2346706,0.4824238-2.938242,0.4201088-4.3450356    C30.5762215,21.4186172,28.0758305,21.4098186,28.1472034,23.0210342L28.1472034,23.0210342z"/></g><g><path d="M24.5794792,29.7698631c0.0270882,1.584095,0.0198936,3.1676216-0.0215836,4.7514    c-0.0421486,1.6093445,2.4578781,1.6083717,2.5,0c0.0414791-1.5837822,0.0486717-3.1673088,0.0215836-4.7514    C27.0519981,28.1628876,24.5519123,28.1578503,24.5794792,29.7698631L24.5794792,29.7698631z"/></g></g></svg>