<?xml version="1.0" ?><svg enable-background="new 0 0 52 52" id="Layer_1" version="1.1" viewBox="0 0 52 52" xml:space="preserve" xmlns="http://www.w3.org/2000/svg" xmlns:xlink="http://www.w3.org/1999/xlink"><g><g><path d="M14.1850023,12.1123619c0.4612684-1.3967848,0.3464479-2.579464,0.5869036-4.00492    c-0.1926432-1.3812838,0.2729673-2.577877,1.3968315-3.5897799c0.1263485,0.5648007,0.306263,1.1100659,0.5397453,1.6357965    c1.8251629,2.162344,2.2323303,4.3576803,5.1291676,5.6373529c2.3288841,1.02878,6.4776859,1.4870939,8.8772469,0.4357777    c0.9862766-0.4321156,1.9032249-1.5155087,2.5229912-2.3347073c0.5768394-0.7624598,1.3110313-3.6227164,1.9682884-4.1387062    c0.1543312-1.50001,0.5045471-1.2411332,1.0506516,0.7766309c0.1233788,1.1038837,0.2524529,2.2071013,0.3872261,3.3096519    c0.2253418,1.7497616,0.4596558,3.5115337,0.8842583,5.2266798c1.114399,4.5015554,4.5575104,8.0382376,5.102623,12.6310339    c0.4988136,4.2027397,0.5217972,10.105051-0.1677361,14.2780895c-0.7004089,4.2388496-2.5995636,5.5883331-6.5807381,5.6670494    c-1.740593,0.0344162-7.5361214,0.6906433-7.9821072-2.0041275c-0.1681118-1.0157738-1.8651543-1.260601-2.284687-0.2985992    c-1.2727566,2.9184723-12.4650078,3.2063141-14.8726835,1.3271027c-2.1129808-1.6492004-1.3844519-3.9811745-1.2983303-6.6344147    c0.0622721-1.9184875,0.1698637-3.8357468,0.3007421-5.7506447c0.2615957-3.8274555,0.5519733-7.6718807,1.0059757-11.4812431    c0.5060501-4.2460785,2.0513887-8.0337839,3.4839249-12.0335102c0.5434599-1.5173702-1.8712873-2.1706638-2.410697-0.6645985    c-2.1293945,5.9453945-3.4522924,11.1846066-4.0285249,17.4786797C7.4751172,31.08671,7.1817598,34.59729,7.0219111,38.1146812    c-0.1251731,2.7543755-0.851716,6.5104713,0.0090194,9.140583c1.2407856,3.79142,5.1017609,2.7893791,8.455533,2.8283234    c4.2188072,0.0489883,10.2252636,1.247448,12.2878799-3.4822044c-0.7615623-0.0995331-1.5231247-0.1990662-2.284687-0.2985992    c0.4949532,2.9906464,2.5334091,3.5121689,5.2795753,3.7648621c3.0837421,0.2837563,9.6668835,1.0029907,12.3930454-0.9682961    c2.4968033-1.805439,1.79002-6.3301353,1.8254356-8.9094658c0.0673599-4.9058914,1.0183334-10.6734371-0.2935448-15.4356518    c-0.4866409-1.7665348-1.5563622-3.0582066-2.4729538-4.6214333c-1.4796906-2.523592-2.2769394-5.2893314-2.7588921-8.1589613    c-0.3879547-2.3099632,0.2614708-8.7677803-2.582119-10.1021414c-1.3766747-0.6460063-2.6801758,0.0774612-3.4526558,1.2954067    c-0.2790184,0.4399161-0.3328247,0.9960744-0.5225182,1.4649193c-1.098259,2.7144384-2.7530956,4.8330317-5.963604,5.5223255    c-4.7353115,1.0166674-7.8819351-3.7520785-8.6194382-7.6683917c-0.0995846-0.5288165-0.6904907-0.9224687-1.205349-0.9177005    c-5.8524752,0.0542002-4.0846891,6.0711851-5.3423338,9.8795071    C11.2686338,12.9790058,13.6820374,13.6354113,14.1850023,12.1123619L14.1850023,12.1123619z"/></g><g><path d="M12.4001007,10.9384241c-0.078742,3.4928179,0.8601246,6.4182882,3.0270329,9.1675558    c1.6159878,2.0502853,4.0439835,5.1313076,6.5874958,5.9877834c7.540451,2.5390968,13.6555595-4.1231098,17.5806885-9.5472889    c0.9445267-1.305253-1.2233009-2.5544043-2.1586761-1.2617989c-2.7842674,3.8476067-7.8339558,9.406908-13.0497475,8.5184994    c-5.3570881-0.9124756-9.6011362-7.7927742-9.4867935-12.8647509    C14.9363832,9.3290491,12.4363728,9.3295155,12.4001007,10.9384241L12.4001007,10.9384241z"/></g><g><path d="M25.3056087,25.9412575c0,6.8333321,0,13.6666679,0,20.5c0,1.6086311,2.5,1.6112938,2.5,0    c0-6.8333321,0-13.6666679,0-20.5C27.8056087,24.3326263,25.3056087,24.3299618,25.3056087,25.9412575L25.3056087,25.9412575z"/></g><g><path d="M20.3056984,33.6859627c4.1386681,0.0688133,8.2773361,0.1376266,12.4160042,0.20644    c1.6093369,0.0267563,1.6096954-2.473238,0-2.5000019c-4.1386681-0.0688114-8.2773361-0.1376247-12.4160042-0.2064362    C18.6963596,31.1592064,18.6960049,33.6591988,20.3056984,33.6859627L20.3056984,33.6859627z"/></g><g><path d="M19.1389427,38.1912575c5.3055553,0,10.6111107,0,15.9166679,0c1.6086311,0,1.6112938-2.5,0-2.5    c-5.3055573,0-10.6111126,0-15.9166679,0C17.5303116,35.6912575,17.527647,38.1912575,19.1389427,38.1912575    L19.1389427,38.1912575z"/></g><g><path d="M19.0556087,42.1079254c4.75,0,9.5,0,14.2500019,0c1.6086311,0,1.6112938-2.5,0-2.5    c-4.7500019,0-9.5000019,0-14.2500019,0C17.4469795,39.6079254,17.444315,42.1079254,19.0556087,42.1079254L19.0556087,42.1079254    z"/></g></g></svg>