<?xml version="1.0" ?><svg enable-background="new 0 0 52 52" id="Layer_1" version="1.1" viewBox="0 0 52 52" xml:space="preserve" xmlns="http://www.w3.org/2000/svg" xmlns:xlink="http://www.w3.org/1999/xlink"><g><g><path d="M27.7010536,12.5297794c0.2390347,0.8746424,0.3409977,1.5284176-0.5381489,1.9891424    c-0.7228584,0.3788204-1.5736618,0.3842945-1.9320545-0.4440947c-0.1591949-0.36796-0.170578-0.8721571-0.0935726-1.266469    c0.1406918-0.7204094,0.511507-0.7919855,1.1469841-1.0439072c0.1352158-0.0545988,0.2704334-0.1091976,0.4056511-0.1637964    c0.3589153-0.0850191,0.3550472-0.1293478-0.0116024-0.1329861c0.2931633,0.231986,0.4768295,0.4995794,0.8249435,0.679635    c1.4269638,0.7380733,2.6928673-1.4184799,1.261797-2.1586761c-0.3281174-0.169714-0.529726-0.5340509-0.8602943-0.7271538    c-0.3592072-0.2098341-0.7641296-0.2743711-1.1734486-0.2450514c-0.8664513,0.0620632-2.0937805,0.6115503-2.8242359,1.0913725    c-1.6730194,1.0989714-1.6296234,4.0686359-0.6243763,5.5898371c1.1226292,1.6988297,3.2504539,1.9099312,4.9828548,1.0558834    c2.023056-0.9973354,2.4039917-2.8473549,1.846199-4.8883352C29.6881218,10.3151083,27.2756233,10.9731197,27.7010536,12.5297794    L27.7010536,12.5297794z"/></g><g><path d="M32.9190216,8.2310114c2.8448715,2.705616,4.842823,8.7677279,1.5595284,12.2621412    c-2.2594452,2.4047337-2.6932507,1.0088997-4.4984493,2.1574326c-1.9469109,1.2386913-1.6854019,1.5591087-1.7005959,4.0925198    c-0.0261402,4.3586426,0.0622921,8.721777,0.0934219,13.0802937c0.0161076,2.2551346,0.592062,4.5183601-1.5514946,6.1978607    c-0.6443176,1.5112076-1.3748951,1.6323318-2.1917324,0.363369c-0.361227-1.2585068-0.0054779-2.2578506,1.0672474-2.9980354    c0.4292755-0.5181808,0.5162544-1.2560844,0-1.767765c-1.7202454-1.7050056-0.103838-2.3246384-0.0611401-4.2410774    c0.0412006-1.8492432-1.3979282-3.1093826-2.6843529-4.1539688c0,0.5892525,0,1.1785088,0,1.767765    c0.8978519-1.2414589,1.9769917-2.3079948,3.2374249-3.1996059c0.7500439-0.578495,0.8480854-1.5968838,0-2.1586761    c-2.7930183-1.8501606-1.0738602-4.4221001-2.6801968-6.4133358c-0.3668003-0.4546909-1.0972176-0.6188984-1.549017-0.9628716    c-2.4584618-1.8717346-3.6847343-2.6641674-5.1098557-5.4179974C11.95152,7.3738647,27.243288-0.1887245,33.1324539,8.22931    c0.9155655,1.3087206,3.0838776,0.0606928,2.1586761-1.2617974c-5.1592674-7.374712-18.0656986-6.4476709-21.3035965,2.4974246    c-1.8896084,5.2202759-0.1567764,9.5035934,3.9446554,12.9851036c0.8745461,0.7423611,2.9401875,1.5236626,3.4304867,2.3537903    c0.4991398,0.8450947,0.2082748,1.6023445,0.4060116,2.5060272c0.4502373,2.0576267,1.4023685,3.3188496,3.1583939,4.4820824    c0-0.7195587,0-1.4391174,0-2.1586761c-1.4345722,1.1064625-2.5862637,2.1732082-3.7433929,3.590517    c-0.3922291,0.4804192-0.5651455,1.3088608,0,1.767765c2.5664825,2.0840073-0.0924454,3.2976532,0.3862457,5.3833694    c0.294281,1.2822227,1.4582405,2.1186523,2.3592472,3.0116768c0-0.5892525,0-1.1785088,0-1.767765    c-1.0972462,1.3244972-3.0951195,2.8247795-2.6185627,4.7116165c0.3014984,1.1937294,2.609705,3.4560509,3.8210297,3.6070404    c4.5403061,0.5659523,5.7694054-6.1762581,5.7479534-9.1797791c-0.0155697-2.1800499-0.0311413-4.3600998-0.046711-6.5401459    c-0.0146255-2.0475731-0.716032-5.5574799-0.0533848-7.4744549c0.9706631-2.808033,4.622366-3.1136856,6.3028545-5.4864712    c3.2986946-4.6576443,1.3894768-11.1936207-2.3955727-14.7933884C33.5210876,5.3546071,31.75033,7.1195278,32.9190216,8.2310114    L32.9190216,8.2310114z"/></g></g></svg>