<?xml version="1.0" ?><svg enable-background="new 0 0 52 52" id="Layer_1" version="1.1" viewBox="0 0 52 52" xml:space="preserve" xmlns="http://www.w3.org/2000/svg" xmlns:xlink="http://www.w3.org/1999/xlink"><g><g><path d="M24.8885555,19.6932278c-0.0073872,5.4464588,0.0540733,10.8916531,0.1843948,16.3365536    c0.0384407,1.6060524,2.5385838,1.6120377,2.5,0c-0.1303215-5.4449043-0.191782-10.8900986-0.1843948-16.3365536    C27.3907375,18.084507,24.8907413,18.0820293,24.8885555,19.6932278L24.8885555,19.6932278z"/></g><g><path d="M25.7039337,38.4075966c2.7609653,0.1790619,5.3296947,1.3396378,6.3297386,4.0816116    c1.2131538,3.3262978-2.616745,5.6016617-5.4610825,5.6886635c-1.6560421,0.0506554-3.267128-0.0747108-4.3595753-1.5005646    c-0.8011436-1.0456467-1.3382015-3.2927513-1.0191956-4.5595932c0.0045586-0.3183022,0.0091152-0.6366043,0.0136738-0.9549065    c0.5940971-0.612072,1.2999535-0.9960327,2.117569-1.1518784c1.279253-0.4546661,2.705143-0.6006775,4.0454483-0.7205124    c1.5897236-0.1421394,1.6046867-2.6434784,0-2.5c-2.3024101,0.2058563-4.9756126,0.5035477-7.0299854,1.649971    c-1.6842899,0.9399033-1.6858158,2.3760872-1.6374989,4.1553192c0.1447697,5.3311348,2.95224,8.3958931,8.3644466,8.0594749    c3.7246532-0.2315216,8.3088398-3.2133064,7.7140789-7.4160385c-0.6593971-4.6594582-4.7237682-7.0491791-9.0776176-7.3315468    C24.0975647,35.8034134,24.1038799,38.3038254,25.7039337,38.4075966L25.7039337,38.4075966z"/></g><g><path d="M21.7029343,21.4154243c1.1944771-0.026247,2.3889561-0.0524921,3.5834332-0.0787392    c1.6063328-0.0352955,1.6120453-2.5354195,0-2.5c-1.1944771,0.026247-2.3889561,0.0524921-3.5834332,0.0787392    C20.0966015,18.9507198,20.090889,21.4508457,21.7029343,21.4154243L21.7029343,21.4154243z"/></g><g><path d="M22.9535427,25.0265179c1,0,2,0,3,0c1.6086311,0,1.6112957-2.5,0-2.5c-1,0-2,0-3,0    C21.3449135,22.5265179,21.3422489,25.0265179,22.9535427,25.0265179L22.9535427,25.0265179z"/></g><g><path d="M24.7868767,18.2765179c0,0.7222214,0,1.4444447,0,2.166666c0,1.6086311,2.5,1.6112957,2.5,0    c0-0.7222214,0-1.4444447,0-2.166666C27.2868767,16.6678867,24.7868767,16.6652222,24.7868767,18.2765179L24.7868767,18.2765179z"/></g><g><path d="M18.1843853,8.6214914c2.9731674-6.4347258,13.7926579-6.3782115,16.981535-0.2365093    c0.1926231,0.3709879,0.6623344,0.639431,1.0793381,0.6191006c3.2358131-0.1577606,7.914238-0.9650469,10.7501335,1.0414391    c2.5865898,1.8300934,2.5101357,10.5816031,1.4727936,13.1025438c-2.6396484,6.4148636-15.5262222,4.3074875-21.1751614,4.4262085    c-6.1773891,0.1298256-15.5944538,2.0847454-20.3151875-2.6787872c-3.487699-3.5193195-5.1470623-7.8044338-2.0323038-12.1651201    c2.7850327-3.8990688,6.7055883-3.807539,11.0152817-3.6031904c1.6083021,0.0762587,1.6043901-2.4239264,0-2.5    c-6.7147846-0.318388-10.8846264,0.2826295-14.29282,6.4867573c-2.7643759,5.0321503-0.1943818,9.8316746,3.5420752,13.5493202    c4.973465,4.9484234,11.7978592,3.6271744,18.2461662,3.4916553c4.4762535-0.0940742,8.9525051-0.1881485,13.4287548-0.2822227    c2.975769-0.0625401,6.9882126,0.4825916,9.8320274-0.6797314c5.0458527-2.0623436,5.0198593-9.0799713,4.6119499-13.6388435    c-0.3940811-4.4043303-1.9092064-8.5511513-6.7956886-9.209054c-1.9516945-0.2627711-4.7933769,0.7109456-6.5955772,0.0765109    c-2.3755989-0.8362908-0.3294373-0.2609549-2.2132072-1.7442966c-2.2154312-1.7445033-4.092741-2.9214892-6.9881077-3.2543006    c-4.9497757-0.5689577-10.5158958,1.1866267-12.7106781,5.9367223    C15.3553438,8.8105402,17.5095482,10.0820179,18.1843853,8.6214914L18.1843853,8.6214914z"/></g></g></svg>