<?xml version="1.0" ?><svg enable-background="new 0 0 52 52" id="Layer_1" version="1.1" viewBox="0 0 52 52" xml:space="preserve" xmlns="http://www.w3.org/2000/svg" xmlns:xlink="http://www.w3.org/1999/xlink"><g><g><path d="M25.8639812,13.3662462c2.2239399,0.3462963,4.3734455,2.3794098,6.1549892,3.6459475    c2.8022118,1.9921513,3.6775665,2.3991356,2.4423065,5.8950729c-1.9513512,5.5225563-5.097538,9.1676617-9.1442795,13.2839413    c0.5892544,0,1.1785107,0,1.767767,0c-4.0138073-3.1059341-5.3624153-6.8129616-7.5603695-11.1262226    c-1.3642635-2.677227-2.8538132-5.1175385-0.7614384-7.8193417c1.5425549-1.9918404,4.3028049-3.3466434,6.5397167-4.3853807    c1.4578114-0.6769514,0.1895542-2.8326302-1.261797-2.1586771c-4.1029606,1.9052591-10.15907,5.1214581-8.9663,10.3735275    c0.7357016,3.2394772,2.8661852,6.3601665,4.1626081,9.3985863c1.3484688,3.1604023,3.3574352,5.3786678,6.079813,7.4852734    c0.5306072,0.4105911,1.2458248,0.5309105,1.767767,0c2.45467-2.4968491,5.157774-5.0552063,7.0897884-7.9965916    c2.0178337-3.0720348,2.9037666-6.9744987,4.1177444-10.4102039c0.200489-0.5674114-0.1503563-1.08881-0.5744514-1.4116383    c-3.1644478-2.408843-7.1576328-6.5572128-11.1892662-7.1849899    C24.954649,10.7104673,24.2765293,13.1190605,25.8639812,13.3662462L25.8639812,13.3662462z"/></g><g><path d="M13.1582251,7.1916685c5.0047388-3.1054974,10.4716711-3.3934553,16.2179718-3.0481834    c3.0275269,0.1819115,5.8392906,0.4288764,8.5725861,1.9516478c3.872879,2.1576538,4.8245964,4.562829,5.0256767,8.6840305    c0.288559,5.9142418-0.04245,10.3553429-3.6339455,15.2488766c-2.3036728,3.1388302-3.5792122,6.7619114-6.1271667,9.7495174    c-3.0385056,3.5628014-6.9791164,9.9075317-11.6033916,5.5427284c-3.0145187-2.8453712-5.3198357-6.6135674-7.6202803-10.0481949    c-3.0856619-4.6069813-4.0799074-8.8856392-4.7398252-14.3475399C8.6787624,16.1978493,6.25913,8.2376318,12.5256681,6.7984843    c1.5674124-0.3599653,0.9039927-2.7709336-0.6645994-2.4106975C5.7813778,5.7840242,5.7420459,9.8071566,6.1714439,15.3414955    c0.5362616,6.9116573,1.0308723,13.9256344,4.7999268,19.9043694c3.0529404,4.8427849,6.6672821,10.9659424,11.6166973,14.081768    c1.4666557,0.9233093,2.3970928,1.6158943,4.0113735,0.9118347c2.5106735-1.0950127,5.0464306-5.0820847,6.9017563-7.078743    c1.9113579-2.0569611,3.581852-4.1171494,4.9089737-6.5999451c1.694046-3.1692429,4.2376366-5.8513985,5.7873535-9.0543995    c2.2290459-4.6070595,2.2429314-12.9031601,0.7647285-17.7243252C43.4280701,4.7783065,37.4099693,2.4706876,32.6222,1.9008549    c-7.117115-0.8470678-14.4862156-0.7395793-20.7257729,3.1321368C10.5320492,5.8796039,11.7859221,8.0431976,13.1582251,7.1916685    L13.1582251,7.1916685z"/></g></g></svg>