<?xml version="1.0" ?><!DOCTYPE svg  PUBLIC '-//W3C//DTD SVG 1.1//EN'  'http://www.w3.org/Graphics/SVG/1.1/DTD/svg11.dtd'><svg enable-background="new 0 0 39.574 39.979" height="39.979px" id="Layer_1" version="1.1" viewBox="0 0 39.574 39.979" width="39.574px" xml:space="preserve" xmlns="http://www.w3.org/2000/svg" xmlns:xlink="http://www.w3.org/1999/xlink"><g><g><g><path d="M18.174,28.041c-0.143,0-0.287-0.041-0.415-0.125c-2.957-1.969-4.576-4.285-4.811-6.883     c-0.264-2.917,1.233-6.01,4.451-9.197c-0.042-0.53-0.084-1.02-0.122-1.475c-0.479-5.646-0.387-6.38,3.922-9.812     c0.086-0.069,0.187-0.118,0.294-0.143c5.863-1.386,9.804,0.761,12.045,6.559c1.711,1.167,3.418,2.464,4.268,4.229     c1.128,2.344,1.273,4.668,0.42,6.722c-0.973,2.343-3.135,4.155-6.253,5.242c-0.392,0.138-0.819-0.07-0.955-0.461     c-0.137-0.391,0.07-0.818,0.461-0.955c2.704-0.942,4.558-2.464,5.362-4.401c0.685-1.648,0.551-3.549-0.387-5.497     c-0.721-1.498-2.281-2.639-3.954-3.771c-0.129-0.087-0.228-0.213-0.282-0.359c-1.946-5.223-5.104-7.042-10.217-5.886     c-3.691,2.945-3.67,3.207-3.229,8.406c0.047,0.556,0.099,1.165,0.15,1.834c0.017,0.223-0.066,0.442-0.228,0.598     c-3.05,2.943-4.48,5.713-4.253,8.231c0.191,2.123,1.587,4.064,4.148,5.769c0.345,0.23,0.438,0.695,0.208,1.04     C18.654,27.924,18.417,28.041,18.174,28.041z"/></g></g><g><g><path d="M38.823,39.979c-0.136,0-0.272-0.037-0.396-0.114c-3.2-1.996-6.139-3.689-9.695-4.196     c-1.192-0.17-2.294-1.975-2.499-3.095c-0.217-1.182-0.174-2.387-0.132-3.553c0.02-0.573,0.041-1.146,0.029-1.715     c-0.04-1.95-0.196-3.943-0.348-5.872c-0.357-4.569-0.729-9.294,0.372-13.996c0.095-0.403,0.498-0.652,0.901-0.56     c0.403,0.095,0.653,0.498,0.56,0.901c-1.048,4.476-0.687,9.082-0.338,13.537c0.153,1.949,0.312,3.965,0.353,5.958     c0.012,0.597-0.01,1.198-0.03,1.799c-0.041,1.135-0.079,2.208,0.107,3.229c0.145,0.787,0.915,1.808,1.239,1.88     c3.839,0.547,7.051,2.397,10.273,4.409c0.352,0.219,0.459,0.682,0.24,1.033C39.318,39.854,39.074,39.979,38.823,39.979z"/></g></g><g><g><path d="M30.216,29.239c-0.926,0-1.923-0.2-2.956-0.602c-0.387-0.15-0.578-0.585-0.428-0.971c0.15-0.386,0.589-0.576,0.971-0.427     c1.85,0.719,3.493,0.658,4.63-0.168c1.285-0.936,1.914-2.79,1.771-5.219c-0.024-0.414,0.291-0.769,0.705-0.793     c0.377-0.028,0.769,0.29,0.793,0.704c0.174,2.958-0.673,5.273-2.386,6.521C32.442,28.918,31.386,29.239,30.216,29.239z"/></g></g><g><g><path d="M23.98,34.495c-0.398,0-0.729-0.313-0.748-0.716l-0.494-10.816c-2.696-0.186-4.57-1.449-5.575-3.763     c-0.165-0.38,0.009-0.822,0.389-0.987c0.379-0.162,0.821,0.009,0.986,0.389c0.855,1.968,2.417,2.885,4.914,2.885     c0.001,0,0.002,0,0.004,0l0,0c0.4,0,0.73,0.315,0.749,0.715l0.525,11.508c0.02,0.414-0.301,0.765-0.715,0.783     C24.004,34.495,23.992,34.495,23.98,34.495z"/></g></g><g><g><path d="M0.75,38.688c-0.301,0-0.584-0.182-0.699-0.479c-0.149-0.386,0.042-0.82,0.428-0.97l0.569-0.221     c4.793-1.862,9.776-3.79,15.2-3.71c2.449,0.035,4.899,0.027,7.347,0.018c1.098-0.004,2.194-0.008,3.291-0.008     c0.414,0,0.75,0.336,0.75,0.75s-0.336,0.75-0.75,0.75c-1.095,0-2.19,0.004-3.285,0.008c-2.458,0.01-4.915,0.018-7.374-0.018     c-5.129-0.058-9.762,1.716-14.636,3.609l-0.569,0.221C0.932,38.672,0.841,38.688,0.75,38.688z"/></g></g><g><g><path d="M11.246,30.241c-0.405,0-0.81-0.021-1.212-0.069c-2.249-0.266-4.39-0.99-6.279-1.629     c-0.716-0.242-1.389-0.47-2.007-0.649c-0.249-0.073-0.442-0.269-0.513-0.519c-0.069-0.25-0.005-0.518,0.171-0.709L6.58,21.04     L1.826,19.62c-0.396-0.119-0.622-0.537-0.504-0.934c0.119-0.396,0.529-0.625,0.934-0.504l5.903,1.763     c0.247,0.074,0.439,0.271,0.508,0.52c0.069,0.25,0.005,0.517-0.171,0.707l-5.187,5.64c0.3,0.099,0.608,0.204,0.926,0.311     c1.819,0.615,3.882,1.313,5.975,1.561c1.721,0.201,3.606-0.171,5.429-0.532c0.59-0.117,1.179-0.233,1.762-0.332     c1.252-0.212,2.522-0.533,3.752-0.842c0.563-0.142,1.125-0.283,1.689-0.416c0.398-0.093,0.807,0.154,0.902,0.558     c0.095,0.403-0.155,0.807-0.559,0.902c-0.557,0.131-1.111,0.271-1.667,0.411c-1.257,0.317-2.558,0.644-3.868,0.866     c-0.569,0.097-1.144,0.21-1.72,0.325C14.392,29.928,12.812,30.241,11.246,30.241z"/></g></g><g><g><path d="M3.977,12.877c-0.192,0-0.384-0.073-0.53-0.22c-0.293-0.293-0.293-0.768,0-1.061c0.463-0.463,0.938-0.916,1.415-1.368     c1.04-0.989,2.117-2.012,3.007-3.121c0.846-1.052,1.529-2.218,2.254-3.454c0.315-0.539,0.632-1.078,0.961-1.605     c0.22-0.352,0.682-0.458,1.034-0.239c0.351,0.219,0.458,0.682,0.239,1.033c-0.322,0.517-0.632,1.043-0.94,1.57     c-0.72,1.228-1.464,2.497-2.378,3.634c-0.954,1.187-2.067,2.245-3.144,3.268c-0.467,0.444-0.934,0.887-1.388,1.341     C4.36,12.804,4.169,12.877,3.977,12.877z"/></g></g><g><g><path d="M2.041,19.651c-0.178,0-0.355-0.063-0.498-0.189c-0.31-0.275-0.338-0.75-0.063-1.059c0.849-0.954,2.182-1.881,3.47-2.777     c0.795-0.552,1.607-1.117,2.272-1.668c-0.429-0.138-0.867-0.282-1.297-0.424c-0.788-0.26-1.547-0.511-2.157-0.687     c-0.397-0.115-0.627-0.531-0.513-0.929c0.114-0.397,0.527-0.629,0.929-0.513c0.625,0.181,1.403,0.437,2.211,0.703     c0.845,0.279,1.723,0.568,2.485,0.789c0.248,0.072,0.441,0.265,0.513,0.512c0.071,0.248,0.011,0.514-0.16,0.707     c-0.831,0.936-2.15,1.853-3.427,2.74C4.59,17.704,3.332,18.579,2.602,19.4C2.453,19.566,2.247,19.651,2.041,19.651z"/></g></g><g><g><path d="M26.885,19.975c-0.344,0-0.654-0.238-0.731-0.589c-0.089-0.404,0.167-0.805,0.571-0.894     c2.968-0.653,5.854-1.746,6.86-5.281c0.114-0.397,0.527-0.63,0.927-0.516c0.398,0.113,0.63,0.528,0.517,0.927     c-1.227,4.304-4.723,5.617-7.981,6.334C26.993,19.969,26.938,19.975,26.885,19.975z"/></g></g><g><g><path d="M17.206,10.617c-0.199,0-0.398-0.079-0.546-0.236c-0.902-0.958-1.875-2.404-2.816-3.803     c-0.91-1.351-1.85-2.748-2.67-3.618c-0.284-0.301-0.27-0.776,0.031-1.06c0.303-0.285,0.776-0.271,1.061,0.032     c0.904,0.959,1.879,2.408,2.822,3.809c0.907,1.349,1.847,2.743,2.664,3.612c0.284,0.302,0.27,0.776-0.032,1.06     C17.575,10.55,17.391,10.617,17.206,10.617z"/></g></g><g><g><path d="M25.596,12.877c-0.223,0-0.443-0.099-0.591-0.287l-3.549-4.517C21.2,7.747,21.257,7.275,21.582,7.02     c0.327-0.256,0.797-0.199,1.054,0.126l3.549,4.518c0.256,0.326,0.199,0.797-0.127,1.053     C25.921,12.825,25.757,12.877,25.596,12.877z"/></g></g><g><g><path d="M10.429,35.14c-0.39,0-0.719-0.302-0.747-0.697l-0.322-4.516c-0.029-0.413,0.281-0.772,0.694-0.802     c0.41-0.028,0.771,0.281,0.802,0.694l0.322,4.517c0.029,0.413-0.281,0.772-0.694,0.801C10.465,35.139,10.447,35.14,10.429,35.14z     "/></g></g><g><g><path d="M13.334,34.495c-0.414,0-0.75-0.336-0.75-0.75v-3.872c0-0.414,0.336-0.75,0.75-0.75s0.75,0.336,0.75,0.75v3.872     C14.084,34.159,13.748,34.495,13.334,34.495z"/></g></g></g></svg>