<?xml version="1.0" ?><!DOCTYPE svg  PUBLIC '-//W3C//DTD SVG 1.1//EN'  'http://www.w3.org/Graphics/SVG/1.1/DTD/svg11.dtd'><svg enable-background="new 0 0 38.125 40.723" height="40.723px" id="Layer_1" version="1.1" viewBox="0 0 38.125 40.723" width="38.125px" xml:space="preserve" xmlns="http://www.w3.org/2000/svg" xmlns:xlink="http://www.w3.org/1999/xlink"><g><g><g><path d="M19.707,40.395c-0.262,0-0.529-0.007-0.803-0.02c-5.008-0.243-8.117-2.688-11.381-5.619     c-0.821-0.737-1.45-2.123-1.529-3.37c-0.28-4.42-0.475-8.915-0.663-13.261c-0.063-1.441-0.125-2.881-0.19-4.322     c-0.554-1.137-1.551-2.182-2.604-3.286l-0.579-0.61C0.342,8.187-0.264,6.73,0.104,5.455c0.385-1.333,1.8-2.301,4.326-2.959     c0.274-0.074,0.567,0.018,0.754,0.232l2.448,2.796c2.634,3.003,5.357,6.108,7.973,9.247c0.49,0.587,0.499,1.414,0.506,2.143     c0.002,0.269,0.003,0.538,0.034,0.783c0.052,0.411-0.24,0.786-0.651,0.837c-0.407,0.051-0.786-0.24-0.837-0.651     c-0.038-0.299-0.043-0.626-0.046-0.955c-0.004-0.431-0.01-1.02-0.158-1.197c-2.604-3.124-5.321-6.223-7.949-9.219L4.366,4.069     c-1.646,0.483-2.619,1.103-2.82,1.802c-0.203,0.704,0.317,1.744,1.505,3.01l0.57,0.601c1.131,1.185,2.3,2.41,2.944,3.828     c0.04,0.087,0.062,0.181,0.066,0.276c0.068,1.491,0.133,2.983,0.198,4.475c0.188,4.339,0.382,8.826,0.662,13.231     c0.054,0.858,0.499,1.868,1.034,2.348c3.047,2.735,5.937,5.017,10.453,5.237c5.29,0.26,8.223-2.228,10.982-6.039     c0.243-0.335,0.712-0.411,1.047-0.167c0.335,0.243,0.411,0.712,0.167,1.047C28.653,37.2,25.513,40.395,19.707,40.395z"/></g></g><g><g><path d="M30.287,6.324c-0.192,0-0.384-0.073-0.53-0.22l-0.709-0.708c-0.395-0.394-0.702-0.7-1.271-1.275     c-1.616-1.634-3.478-2.305-5.864-2.103c-0.947,0.08-1.875-0.093-2.773-0.261C18.4,1.619,17.715,1.491,17.028,1.5     c-1.04,0.015-2.2,0.329-3.182,0.86c-1.477,0.798-2.925,1.742-4.326,2.653C8.928,5.4,8.334,5.786,7.736,6.164     C7.388,6.383,6.923,6.281,6.702,5.93C6.48,5.58,6.585,5.117,6.936,4.896c0.592-0.374,1.179-0.756,1.767-1.139     c1.426-0.928,2.9-1.888,4.43-2.716C14.32,0.398,15.731,0.019,17.005,0c0.839-0.004,1.63,0.137,2.409,0.282     c0.837,0.156,1.626,0.301,2.374,0.241c2.813-0.233,5.129,0.595,7.055,2.543c0.566,0.572,0.872,0.876,1.264,1.268l0.71,0.709     c0.293,0.293,0.293,0.768,0,1.061C30.671,6.25,30.479,6.324,30.287,6.324z"/></g></g><g><g><path d="M29.689,35.181c-0.079,0-0.159-0.013-0.238-0.039c-0.393-0.131-0.604-0.555-0.474-0.948     c0.12-0.36,0.415-0.789,0.887-1.46c0.295-0.419,0.844-1.201,0.896-1.448c0.134-4.932,0.219-9.39,0.312-14.244l0.035-1.847     c0.008-0.415,0.353-0.74,0.764-0.736c0.415,0.008,0.744,0.35,0.736,0.764l-0.036,1.847c-0.092,4.859-0.178,9.321-0.315,14.292     c-0.015,0.56-0.45,1.218-1.166,2.235c-0.252,0.359-0.634,0.902-0.691,1.072C30.295,34.982,30.002,35.181,29.689,35.181z"/></g></g><g><g><path d="M12.175,11.765c-0.2,0-0.4-0.08-0.548-0.238c-0.283-0.302-0.267-0.777,0.036-1.06l3.965-3.71     c0.139-0.13,0.322-0.202,0.512-0.202h6.737c0.224,0,0.437,0.1,0.579,0.273c0.49,0.594,0.891,0.998,1.278,1.389     c0.367,0.37,0.714,0.72,1.104,1.193c0.263,0.32,0.217,0.792-0.102,1.056c-0.32,0.262-0.792,0.217-1.056-0.102     c-0.346-0.42-0.668-0.746-1.011-1.09c-0.335-0.337-0.708-0.713-1.141-1.218h-6.091l-3.75,3.508     C12.543,11.698,12.359,11.765,12.175,11.765z"/></g></g><g><g><path d="M22.504,34.388c-0.028,0-0.056-0.001-0.083-0.005l-6.911-0.774c-0.174-0.02-0.336-0.099-0.457-0.226     c-4.181-4.35-4.816-10.888-4.614-15.607c0.018-0.414,0.354-0.739,0.782-0.717c0.414,0.018,0.735,0.368,0.717,0.782     c-0.188,4.354,0.364,10.338,4.013,14.308l6.219,0.697l3.211-4.125c0.314-0.928,2.41-7.341,1.669-10.977     c-0.083-0.406,0.179-0.802,0.585-0.885c0.405-0.083,0.802,0.179,0.885,0.585c0.879,4.313-1.654,11.581-1.762,11.888     c-0.027,0.077-0.066,0.148-0.116,0.212l-3.546,4.554C22.953,34.283,22.734,34.388,22.504,34.388z"/></g></g><g><g><path d="M33.472,38.707c-0.206,0-0.411-0.084-0.559-0.25L15.312,18.813c-1.553,1.047-3.249,0.891-4.646-0.467     c-1.099-1.066-3.139-2.799-4.629-4.063l-1.122-0.956c-0.314-0.27-0.351-0.743-0.081-1.058c0.27-0.313,0.743-0.35,1.058-0.081     l1.116,0.951c1.59,1.35,3.569,3.029,4.704,4.131c1.005,0.977,2.078,0.963,3.189-0.038c0.148-0.133,0.346-0.198,0.542-0.192     c0.199,0.011,0.386,0.1,0.519,0.249L34.03,37.456c0.276,0.309,0.25,0.783-0.058,1.059C33.829,38.644,33.649,38.707,33.472,38.707     z"/></g></g><g><g><path d="M13.143,28.22c-0.196,0-0.392-0.077-0.54-0.229c-0.288-0.298-0.279-0.772,0.019-1.061l9.338-9.027     c-1.947-6.677,9.382-13.985,9.5-14.058c1.152-0.72,2.522-0.599,3.859,0.342c1.789,1.259,3.077,3.656,2.756,5.131     c-0.511,2.351-9.193,8.594-10.782,9.454c-1.668,0.905-3.448,0.501-4.295,0.214l-9.334,9.023     C13.519,28.15,13.331,28.22,13.143,28.22z M23.419,17.543c0.571,0.202,1.951,0.565,3.161-0.09     c2.221-1.202,9.729-7.066,10.03-8.453c0.154-0.707-0.702-2.564-2.153-3.585c-0.836-0.589-1.578-0.689-2.201-0.297     C29.975,6.542,21.958,12.738,23.419,17.543z"/></g></g><g><g><path d="M3.464,37.9c-0.18,0-0.361-0.064-0.504-0.195c-0.307-0.279-0.329-0.753-0.051-1.06c0.553-0.608,4.995-4.946,9.699-9.539     c4.492-4.387,9.138-8.923,9.661-9.499c0.279-0.306,0.754-0.328,1.06-0.051c0.307,0.278,0.329,0.753,0.051,1.06     c-0.553,0.609-5.007,4.958-9.723,9.563c-4.48,4.375-9.114,8.9-9.636,9.475C3.871,37.817,3.667,37.9,3.464,37.9z"/></g></g><g><g><path d="M4.431,39.835c-0.161,0-0.323-0.052-0.46-0.158L1.068,37.42c-0.327-0.254-0.386-0.726-0.132-1.052     c0.254-0.328,0.725-0.387,1.052-0.132l2.904,2.258c0.327,0.254,0.386,0.726,0.131,1.052C4.876,39.736,4.655,39.835,4.431,39.835z     "/></g></g><g><g><path d="M31.858,40.723c-0.189,0-0.378-0.071-0.524-0.214c-0.296-0.29-0.301-0.764-0.012-1.061l3.549-3.63     c0.29-0.296,0.765-0.301,1.061-0.012c0.296,0.29,0.301,0.764,0.012,1.061l-3.549,3.63C32.247,40.648,32.053,40.723,31.858,40.723     z"/></g></g></g></svg>