<?xml version="1.0" ?><!DOCTYPE svg  PUBLIC '-//W3C//DTD SVG 1.1//EN'  'http://www.w3.org/Graphics/SVG/1.1/DTD/svg11.dtd'><svg enable-background="new 0 0 40.556 39.561" height="39.561px" id="Layer_1" version="1.1" viewBox="0 0 40.556 39.561" width="40.556px" xml:space="preserve" xmlns="http://www.w3.org/2000/svg" xmlns:xlink="http://www.w3.org/1999/xlink"><g><g><g><path d="M20.643,39.561c-1.691,0-3.395-0.758-5.151-2.282c-1.867-1.623-3.827-2.427-6.194-3.134     c-7.504-2.24-10.35-7.084-8.954-15.243c0.038-0.223,0.086-0.449,0.135-0.676c0.128-0.602,0.25-1.17,0.156-1.618     c-0.525-2.528-0.762-5.699,1.863-8.202L1.248,6.595C1.102,6.383,1.074,6.11,1.176,5.873c0.102-0.236,0.318-0.404,0.573-0.445     l4.306-0.681L5.231,1.709c-0.074-0.271,0.01-0.56,0.217-0.749s0.501-0.25,0.766-0.151l4.914,1.81l0.935-2.166     c0.086-0.201,0.256-0.354,0.465-0.419c0.208-0.063,0.435-0.036,0.621,0.079c1.387,0.865,2.657,2.035,3.886,3.167     c2.345,2.159,4.555,4.206,7.308,3.986c0.385-0.03,0.68-0.379,1.119-0.951c0.116-0.151,0.234-0.305,0.359-0.452     c-0.02-0.045-0.038-0.086-0.058-0.121c-0.698-0.48-1.286-0.666-1.756-0.552c-0.466,0.113-0.897,0.543-1.28,1.277     c-0.192,0.368-0.645,0.51-1.012,0.318s-0.51-0.645-0.318-1.012c0.592-1.136,1.352-1.822,2.257-2.041     c0.924-0.227,1.94,0.053,3.026,0.82c0.275,0.19,0.401,0.463,0.523,0.727c0.047,0.104,0.103,0.224,0.179,0.361     c0.172,0.311,0.103,0.698-0.166,0.931c-0.182,0.157-0.368,0.399-0.565,0.656c-0.496,0.646-1.112,1.449-2.192,1.534     c-3.394,0.267-5.962-2.097-8.441-4.38c-0.951-0.875-1.928-1.775-2.936-2.505l-0.858,1.987c-0.158,0.366-0.575,0.543-0.948,0.407     L7.059,2.719l0.662,2.442c0.056,0.205,0.021,0.425-0.094,0.604c-0.116,0.179-0.302,0.3-0.513,0.333L3.159,6.724l0.952,1.38     c0.223,0.323,0.159,0.764-0.147,1.01c-2.014,1.624-2.57,3.774-1.861,7.188c0.158,0.758-0.01,1.544-0.158,2.237     c-0.044,0.207-0.088,0.412-0.123,0.614c-1.277,7.466,1.087,11.519,7.905,13.554c2.21,0.66,4.557,1.533,6.749,3.438     c2.011,1.747,3.824,2.28,5.653,1.649l-1.968-4.512c-0.151-0.346-0.021-0.75,0.303-0.943c2.286-1.365,2.398-3.416,1.863-6.073     c-0.064-0.319-0.147-0.442-0.262-0.613c-0.236-0.353-0.432-0.705-0.432-1.463c0-0.414,0.336-0.75,0.75-0.75s0.75,0.336,0.75,0.75     c0,0.362,0.048,0.435,0.177,0.626c0.154,0.229,0.364,0.542,0.487,1.153c0.511,2.539,0.649,5.36-2.009,7.292l2.019,4.629     c0.16,0.367,0.004,0.794-0.354,0.972C22.515,39.327,21.581,39.561,20.643,39.561z"/></g></g><g><g><path d="M11.413,33.975c-0.258,0-0.509-0.133-0.648-0.372l-0.68-1.168c-0.524-0.901-1.048-1.803-1.578-2.7     c-1.844-3.132-1.386-6.326,1.197-8.339c1.414-1.102,3.269-2.04,5.365-2.714c3.832-1.232,7.737-0.921,11.511-0.619     c0.981,0.078,1.962,0.156,2.941,0.208c0.508,0.027,1.018,0.025,1.531,0.021c-0.739-0.48-1.411-1.012-2.108-1.563     c-1.094-0.864-2.225-1.758-3.723-2.518c-0.231-0.117-0.385-0.345-0.408-0.603s0.089-0.51,0.296-0.665l7.45-5.615l-5.719-0.46     c-0.413-0.034-0.72-0.396-0.687-0.809c0.034-0.413,0.403-0.701,0.808-0.688l6.816,0.549c0.332,0.027,0.606,0.269,0.674,0.595     l0.13,0.626c0.06,0.284-0.05,0.578-0.283,0.753l-7.364,5.551c1.129,0.676,2.046,1.4,2.939,2.106     c0.996,0.786,1.937,1.529,3.064,2.102c0.319,0.162,0.479,0.526,0.383,0.871l-0.198,0.707c-0.091,0.322-0.386,0.546-0.722,0.546     c-0.303,0-0.605,0.004-0.908,0.009c-0.668,0.009-1.36,0.019-2.051-0.018c-0.993-0.053-1.987-0.132-2.981-0.211     c-3.796-0.305-7.382-0.591-10.933,0.552c-1.931,0.621-3.626,1.475-4.902,2.47c-2,1.559-2.302,3.889-0.827,6.394     c0.531,0.9,1.056,1.804,1.583,2.708l0.679,1.166c0.208,0.357,0.088,0.817-0.27,1.025C11.671,33.941,11.541,33.975,11.413,33.975z     "/></g></g><g><g><path d="M1.388,18.148c-0.104,0-0.211-0.021-0.313-0.068c-0.376-0.173-0.542-0.618-0.369-0.994     c1.206-2.629,2.919-4.156,4.431-5.504c0.428-0.382,0.848-0.756,1.244-1.145c3.763-3.698,7.838-4.26,12.557-4.91l0.284-0.039     c0.405-0.062,0.789,0.229,0.846,0.641c0.057,0.41-0.23,0.789-0.641,0.846l-0.284,0.039c-4.638,0.64-8.302,1.145-11.71,4.494     c-0.414,0.405-0.851,0.796-1.297,1.194c-1.47,1.311-2.99,2.666-4.065,5.009C1.944,17.986,1.672,18.148,1.388,18.148z"/></g></g><g><g><path d="M36.958,15.716c-0.49,0-1.01-0.088-1.549-0.264c-0.975-0.317-1.937-1.303-2.956-2.347     c-0.432-0.442-0.877-0.899-1.289-1.259c-0.177-0.155-0.271-0.384-0.254-0.618c0.017-0.233,0.142-0.446,0.339-0.575     c1.023-0.667,2.178-0.369,2.941-0.174c0.207,0.053,0.483,0.124,0.608,0.129c0.334-0.166,0.747-0.058,0.956,0.264     c0.227,0.347,0.13,0.811-0.217,1.038c-0.509,0.332-1.097,0.181-1.72,0.022c-0.18-0.047-0.361-0.093-0.54-0.129     c0.083,0.085,0.166,0.17,0.249,0.254c0.807,0.827,1.722,1.765,2.347,1.969c0.583,0.189,1.422,0.333,2.104-0.068     c0.486-0.285,0.83-0.806,1.024-1.549c-0.323-0.453-0.695-0.933-1.081-1.431c-2.132-2.75-4.786-6.174-2.494-9.174     c0.78-1.021,2.067-1.253,3.203-0.578c1.215,0.724,2.085,2.432,1.305,4.175c-0.321,0.718-1.013,1.037-1.624,1.318     c-0.25,0.115-0.486,0.225-0.672,0.349c-0.179,0.117-0.392,0.149-0.585,0.105c0.539,0.898,1.256,1.859,2.051,2.886     c0.481,0.621,0.941,1.215,1.319,1.768c0.113,0.166,0.155,0.37,0.117,0.567c-0.326,1.676-1.161,2.479-1.805,2.856     C38.211,15.561,37.61,15.716,36.958,15.716z M37.295,2.339c-0.227,0-0.463,0.097-0.677,0.376     c-0.773,1.013-0.687,2.165-0.095,3.462c0.054-0.142,0.15-0.268,0.286-0.358c0.282-0.188,0.583-0.326,0.873-0.46     c0.389-0.18,0.792-0.366,0.883-0.57c0.426-0.951-0.044-1.88-0.703-2.272C37.699,2.419,37.502,2.339,37.295,2.339z"/></g></g><g><g><path d="M10.882,18.827c-1.476,0-2.602-1.024-4.548-3.214c-0.186-0.208-0.24-0.503-0.141-0.764     c0.099-0.262,0.334-0.445,0.612-0.479l7.744-0.929c0.41-0.039,0.785,0.244,0.834,0.656c0.049,0.411-0.244,0.784-0.655,0.834     l-6.31,0.756c2.195,2.377,2.677,2.104,6.822-0.219c0.361-0.203,0.818-0.074,1.021,0.288c0.203,0.361,0.074,0.818-0.288,1.021     C13.583,18.116,12.111,18.827,10.882,18.827z"/></g></g><g><g><path d="M15.079,30.75c-0.296,0-0.603-0.028-0.923-0.089c-2.365-0.449-3.133-2.715-3.75-4.535     c-0.281-0.829-0.546-1.611-0.913-2.171c-0.227-0.347-0.13-0.812,0.217-1.039c0.346-0.223,0.811-0.13,1.038,0.217     c0.471,0.72,0.78,1.631,1.078,2.512c0.667,1.968,1.208,3.276,2.608,3.542c2.124,0.4,3.557-1.313,5.079-3.129     c0.799-0.954,1.553-1.854,2.435-2.479c0.339-0.238,0.806-0.159,1.045,0.179c0.24,0.338,0.16,0.806-0.178,1.046     c-0.724,0.513-1.418,1.341-2.153,2.218C19.188,28.78,17.538,30.75,15.079,30.75z"/></g></g><g><g><path d="M18.833,18.81c-0.13,0-0.261-0.033-0.381-0.104c-0.407-0.24-0.825-0.435-1.229-0.623     c-1.245-0.578-2.532-1.176-2.913-2.96c-0.192-0.897,1.123-5.246,1.569-6.373c0.152-0.385,0.589-0.574,0.974-0.421     c0.385,0.152,0.573,0.588,0.421,0.974c-0.608,1.536-1.51,5.01-1.489,5.562c0.207,0.951,0.853,1.293,2.07,1.858     c0.417,0.194,0.891,0.414,1.361,0.692c0.356,0.211,0.475,0.671,0.264,1.027C19.339,18.678,19.089,18.81,18.833,18.81z"/></g></g></g></svg>