<?xml version="1.0" ?><!DOCTYPE svg  PUBLIC '-//W3C//DTD SVG 1.1//EN'  'http://www.w3.org/Graphics/SVG/1.1/DTD/svg11.dtd'><svg enable-background="new 0 0 31.45 38.738" height="38.738px" id="Layer_1" version="1.1" viewBox="0 0 31.45 38.738" width="31.45px" xml:space="preserve" xmlns="http://www.w3.org/2000/svg" xmlns:xlink="http://www.w3.org/1999/xlink"><g><g><g><path d="M25.384,22.862c-0.227,0-0.452-0.103-0.599-0.298c-0.25-0.331-0.184-0.801,0.147-1.05     c4.007-3.023,4.712-7.627,2.011-12.529l-1.828,6.559c-0.055,0.198-0.189,0.365-0.372,0.461c-0.183,0.097-0.395,0.113-0.59,0.048     c-0.398-0.134-0.884-0.245-1.354-0.352c-1.33-0.303-2.479-0.565-2.787-1.475c-0.413-1.221-0.074-2.585,0.253-3.905     c0.079-0.318,0.157-0.634,0.222-0.941c0.124-0.587,0.474-1.072,0.783-1.501c0.09-0.125,0.18-0.249,0.261-0.373     c0.989-1.508,1.33-2.598,1.073-3.43c-0.236-0.765-1.02-1.465-2.441-2.167v3.317c0,0.251-0.125,0.485-0.334,0.624     c-0.873,0.581-1.987,1.005-3.065,1.416c-2.153,0.82-4.187,1.594-4.616,3.455c-0.29,1.259,0.674,2.286,1.79,3.476     c0.636,0.678,1.293,1.378,1.767,2.187c0.166,0.283,0.129,0.641-0.091,0.883l-1.929,2.123c-0.142,0.156-0.344,0.246-0.555,0.246     c-1.498,0-2.961-0.773-4.015-2.122c-1.192-1.525-1.667-3.542-1.238-5.262c0.899-3.613,0.676-4.222-1.86-5.146     C5.865,7.604,5.706,8.1,5.545,8.597c-0.519,1.609-1.056,3.274-1.293,4.92c-0.504,3.502-0.265,6,2.477,7.628     c0.356,0.211,0.474,0.672,0.262,1.028c-0.211,0.356-0.672,0.474-1.028,0.262c-3.652-2.167-3.694-5.67-3.196-9.132     c0.255-1.771,0.812-3.498,1.35-5.167c0.236-0.733,0.473-1.467,0.684-2.205c0.057-0.197,0.191-0.363,0.374-0.458     C5.357,5.377,5.57,5.361,5.765,5.428c4.062,1.382,4.696,2.658,3.568,7.186c-0.319,1.282,0.051,2.806,0.965,3.976     c0.689,0.881,1.592,1.426,2.517,1.527l1.298-1.429c-0.364-0.502-0.822-0.99-1.268-1.465c-1.232-1.312-2.628-2.8-2.158-4.839     c0.609-2.641,3.231-3.639,5.544-4.52c0.895-0.341,1.748-0.665,2.434-1.057V0.75c0-0.25,0.125-0.484,0.333-0.624     c0.208-0.14,0.471-0.166,0.704-0.069c2.564,1.061,3.902,2.164,4.338,3.577c0.398,1.292,0,2.783-1.252,4.694     c-0.094,0.143-0.196,0.286-0.3,0.429c-0.243,0.337-0.473,0.656-0.531,0.933c-0.068,0.324-0.151,0.657-0.234,0.993     c-0.275,1.11-0.56,2.258-0.288,3.063c0.15,0.14,1.12,0.361,1.7,0.493c0.245,0.056,0.494,0.113,0.74,0.175l2.086-7.485     c0.079-0.281,0.313-0.492,0.601-0.539c0.29-0.047,0.578,0.077,0.742,0.319c4.128,6.074,3.566,12.206-1.466,16.002     C25.7,22.813,25.541,22.862,25.384,22.862z"/></g></g><g><g><path d="M5.701,31.896c-0.125,0-0.248-0.031-0.359-0.092c-1.25-0.682-2.034-1.368-2.726-1.973     c-0.524-0.458-0.976-0.854-1.538-1.16c-0.227-0.123-0.374-0.354-0.39-0.611c-0.132-2.066,0.555-3.086,1.155-3.579     c0.536-0.439,1.501-0.875,3.069-0.458c2.54,0.677,5.029,1.523,7.663,2.418c1.066,0.362,2.158,0.733,3.289,1.105l13.325-4.373     c0.191-0.064,0.401-0.046,0.58,0.047c0.179,0.093,0.313,0.254,0.372,0.448l1.277,4.209c0.111,0.366-0.071,0.757-0.423,0.908     l-5.64,2.405c-0.38,0.164-0.822-0.015-0.984-0.396c-0.163-0.381,0.015-0.821,0.396-0.984l5.02-2.141l-0.859-2.832L16.1,29.049     c-0.002,0.001-0.004,0.001-0.006,0.002c-1.348,0.434-3.447,0.984-5.477,1.518c-1.875,0.492-3.646,0.957-4.686,1.291     C5.856,31.884,5.778,31.896,5.701,31.896z M2.171,27.577c0.53,0.337,0.971,0.722,1.432,1.126c0.608,0.531,1.235,1.08,2.183,1.631     c1.093-0.335,2.728-0.764,4.449-1.216c1.06-0.278,2.139-0.561,3.113-0.829c-0.423-0.143-0.842-0.286-1.257-0.426     c-2.61-0.887-5.076-1.726-7.567-2.39c-0.526-0.14-1.253-0.225-1.731,0.168C2.385,25.978,2.169,26.657,2.171,27.577z"/></g></g><g><g><path d="M2.748,38.738c-0.286,0-0.557-0.165-0.682-0.438l-1.998-4.375c-0.168-0.368-0.014-0.802,0.348-0.983l4.951-2.467     c0.37-0.184,0.821-0.034,1.006,0.337c0.185,0.371,0.034,0.821-0.337,1.006l-4.302,2.144l1.409,3.086l12.184-4.42     c1.337-0.633,3.303-1.108,5.205-1.568c1.693-0.409,3.292-0.796,4.206-1.233c0.209-0.1,0.453-0.098,0.66,0.005     c1.355,0.678,2.176,1.176,2.97,1.658c0.717,0.436,1.394,0.846,2.426,1.362c0.199,0.1,0.343,0.282,0.395,0.499     c0.051,0.216,0.003,0.444-0.13,0.622l-2.595,3.462c-0.188,0.251-0.515,0.358-0.815,0.269l-12.009-3.593L3.004,38.693     C2.919,38.724,2.833,38.738,2.748,38.738z M18.012,33.254l9.564,2.861l1.75-2.335c-0.669-0.36-1.193-0.678-1.738-1.009     c-0.704-0.427-1.431-0.869-2.549-1.44c-1.056,0.436-2.566,0.801-4.156,1.186C19.905,32.753,18.909,32.994,18.012,33.254z"/></g></g></g></svg>