<?xml version="1.0" ?><!DOCTYPE svg  PUBLIC '-//W3C//DTD SVG 1.1//EN'  'http://www.w3.org/Graphics/SVG/1.1/DTD/svg11.dtd'><svg enable-background="new 0 0 39.254 35.561" height="35.561px" id="Layer_1" version="1.1" viewBox="0 0 39.254 35.561" width="39.254px" xml:space="preserve" xmlns="http://www.w3.org/2000/svg" xmlns:xlink="http://www.w3.org/1999/xlink"><g><g><g><path d="M26.239,33.76c-0.322,0-0.62-0.209-0.718-0.534c-0.096-0.32-0.222-0.642-0.348-0.963c-0.31-0.796-0.631-1.62-0.603-2.502     c0.259-7.973-0.367-13.961-2.031-19.417c-0.546-1.793-1.65-3.509-2.718-5.168c-0.238-0.37-0.475-0.739-0.706-1.107     c-0.419-0.669-1.008-1.262-1.632-1.89c-0.209-0.21-0.418-0.421-0.624-0.637C6.349,2.889,1.597,10.438,1.501,25.93l2.005,0.935     c0.002-0.004,0.005-0.008,0.007-0.012c0.164-0.274,0.318-0.534,0.335-0.697c0.14-1.382,0.25-2.767,0.36-4.151     c0.104-1.303,0.208-2.606,0.335-3.907c0.048-0.479,0.286-0.867,0.497-1.209c0.071-0.115,0.143-0.23,0.201-0.347     c0.186-0.37,0.638-0.52,1.006-0.334c0.371,0.186,0.52,0.636,0.334,1.006c-0.077,0.154-0.17,0.308-0.264,0.46     c-0.125,0.205-0.268,0.436-0.282,0.571c-0.126,1.291-0.229,2.584-0.333,3.878c-0.111,1.396-0.222,2.791-0.363,4.184     c-0.05,0.495-0.299,0.911-0.539,1.314c-0.101,0.169-0.21,0.351-0.311,0.553c-0.182,0.363-0.621,0.516-0.988,0.344l-3.071-1.431     C0.169,26.964,0,26.699,0,26.407C0,9.71,5.422,1.321,17.065,0.006c0.238-0.03,0.477,0.063,0.639,0.24     c0.273,0.301,0.56,0.588,0.844,0.875c0.654,0.658,1.331,1.339,1.839,2.15c0.228,0.364,0.461,0.728,0.696,1.092     c1.123,1.745,2.284,3.55,2.891,5.543c1.715,5.62,2.361,11.758,2.096,19.903c-0.019,0.575,0.234,1.223,0.501,1.909     c0.14,0.358,0.278,0.717,0.386,1.075c0.119,0.396-0.105,0.815-0.502,0.935C26.384,33.75,26.311,33.76,26.239,33.76z"/></g></g><g><g><path d="M25.162,35.561c-0.082,0-0.165-0.014-0.246-0.042l-9.57-3.313c-0.302-0.104-0.504-0.389-0.504-0.708     c0-1.763,0.003-3.518,0.007-5.266c0.008-4.107,0.016-8.179-0.021-12.251c-0.022-2.448-0.112-4.941-0.198-7.352     c-0.039-1.093-0.078-2.187-0.111-3.279c-0.013-0.414,0.313-0.76,0.727-0.772c0.421-0.026,0.76,0.313,0.772,0.727     c0.033,1.09,0.072,2.181,0.111,3.271c0.087,2.421,0.176,4.924,0.199,7.392c0.036,4.078,0.028,8.155,0.021,12.268     c-0.003,1.57-0.006,3.146-0.007,4.729l8.565,2.966c0.22-0.276,0.438-0.553,0.657-0.83c3.096-3.924,6.298-7.973,12.167-7.664     c-0.167-4.095-1.342-12.469-7.747-18.043l-0.406-0.354c-2.368-2.067-4.604-4.02-7.669-4.567c-0.826-0.148-1.667-0.198-2.557-0.25     c-0.415-0.024-0.829-0.049-1.242-0.083c-0.413-0.035-0.719-0.397-0.685-0.811c0.035-0.412,0.396-0.711,0.811-0.685     c0.4,0.034,0.802,0.058,1.205,0.081c0.895,0.053,1.82,0.107,2.733,0.271c3.473,0.62,5.973,2.803,8.391,4.914l0.404,0.353     c7.333,6.381,8.237,16.102,8.285,19.985c0.002,0.216-0.088,0.423-0.249,0.567c-0.161,0.145-0.374,0.212-0.591,0.187     c-5.591-0.673-8.547,3.067-11.672,7.029c-0.33,0.418-0.661,0.837-0.996,1.253C25.601,35.461,25.385,35.561,25.162,35.561z"/></g></g><g><g><path d="M15.269,24.403c-3.428,0-5.901-0.983-7.349-2.921c-1.643-2.199-1.839-5.467-0.583-9.714     c0.081-0.272,0.308-0.476,0.587-0.525l6.89-1.233c0.409-0.071,0.797,0.198,0.871,0.606s-0.198,0.797-0.606,0.871l-6.43,1.151     c-0.977,3.547-0.819,6.22,0.473,7.948c1.149,1.539,3.217,2.319,6.147,2.319c0.414,0,0.75,0.336,0.75,0.75     S15.683,24.403,15.269,24.403z"/></g></g><g><g><path d="M14.947,28.92c-0.072,0-0.144-0.01-0.216-0.032l-9.679-2.903c-0.397-0.119-0.622-0.537-0.503-0.934     c0.119-0.397,0.54-0.619,0.934-0.503l9.679,2.903c0.397,0.119,0.622,0.537,0.503,0.934C15.567,28.71,15.269,28.92,14.947,28.92z"/></g></g><g><g><path d="M8.494,12.788c-0.414,0-0.75-0.336-0.75-0.75c0-0.112-0.013-0.23-0.025-0.348c-0.037-0.366-0.083-0.822,0.117-1.25     c1.422-3.049,3.203-6.131,6.565-8.055c0.024-0.129,0.042-0.341,0.053-0.48c0.019-0.233,0.04-0.466,0.079-0.662     c0.081-0.406,0.476-0.672,0.882-0.588c0.406,0.081,0.669,0.476,0.588,0.882c-0.029,0.145-0.041,0.317-0.055,0.489     c-0.048,0.597-0.104,1.273-0.667,1.585c-3.087,1.708-4.75,4.597-6.086,7.463c-0.024,0.07,0.001,0.318,0.016,0.466     c0.017,0.168,0.033,0.337,0.033,0.498C9.244,12.452,8.908,12.788,8.494,12.788z"/></g></g></g></svg>