<?xml version="1.0" ?><!DOCTYPE svg  PUBLIC '-//W3C//DTD SVG 1.1//EN'  'http://www.w3.org/Graphics/SVG/1.1/DTD/svg11.dtd'><svg enable-background="new 0 0 40.864 38.283" height="38.283px" id="Layer_1" version="1.1" viewBox="0 0 40.864 38.283" width="40.864px" xml:space="preserve" xmlns="http://www.w3.org/2000/svg" xmlns:xlink="http://www.w3.org/1999/xlink"><g><g><g><path d="M19.785,38.283c-0.354,0-0.669-0.251-0.736-0.612l-2.196-11.716l-4.893,2.448c-0.333,0.167-0.737,0.064-0.95-0.241     L10.546,27.5c-0.17-0.242-0.181-0.562-0.029-0.814l2.909-4.864l-0.442-0.091c-0.963-0.197-1.839-0.376-2.712-0.566     c-0.922-0.2-2.848-0.415-4.709-0.622c-2.036-0.228-3.959-0.441-4.975-0.667c-0.405-0.09-0.66-0.49-0.57-0.895     s0.488-0.657,0.895-0.57c0.938,0.208,2.909,0.428,4.816,0.641c1.987,0.222,3.864,0.431,4.861,0.648     c0.867,0.188,1.737,0.365,2.694,0.562l1.48,0.304c0.237,0.049,0.437,0.21,0.534,0.433s0.082,0.479-0.043,0.687l-2.896,4.842     l4.711-2.356c0.211-0.104,0.458-0.105,0.669-0.001c0.21,0.104,0.359,0.303,0.403,0.533l2.38,12.694     c0.076,0.406-0.192,0.799-0.6,0.875C19.878,38.279,19.831,38.283,19.785,38.283z"/></g></g><g><g><path d="M40.113,19.893c-0.114,0-0.231-0.026-0.341-0.082c-1.331-0.682-3.825-0.901-6.238-1.113     c-3.228-0.283-6.564-0.577-8.262-1.99c-0.248-0.206-0.337-0.549-0.219-0.85c0.45-1.151,1.201-2.323,1.927-3.456     c0.609-0.951,1.186-1.85,1.466-2.566c0.15-0.387,0.589-0.576,0.971-0.426c0.387,0.15,0.577,0.585,0.426,0.971     c-0.334,0.856-0.948,1.815-1.6,2.83c-0.566,0.885-1.149,1.794-1.558,2.654c1.503,0.857,4.283,1.102,6.98,1.339     c2.673,0.235,5.198,0.457,6.79,1.271c0.369,0.189,0.515,0.641,0.326,1.01C40.649,19.743,40.386,19.893,40.113,19.893z"/></g></g><g><g><path d="M36.241,15.699c-0.336,0-0.642-0.228-0.727-0.568c-0.982-3.927-2.547-6.669-4.921-8.629     c-1.55-1.279-2.135-1.448-4.945-2.256l-1.23-0.356c-0.397-0.116-0.626-0.532-0.51-0.93c0.116-0.398,0.528-0.627,0.93-0.51     l1.226,0.354c2.838,0.816,3.695,1.063,5.485,2.541c2.634,2.174,4.356,5.168,5.421,9.422c0.101,0.401-0.144,0.809-0.546,0.909     C36.363,15.692,36.302,15.699,36.241,15.699z"/></g></g><g><g><path d="M29.146,28.604c-0.276,0-0.542-0.153-0.673-0.417c-0.327-0.66-0.869-1.55-1.443-2.492     c-0.696-1.143-1.484-2.437-2.071-3.621c-0.104-0.212-0.104-0.46,0.002-0.67c0.106-0.211,0.306-0.359,0.537-0.401l14.484-2.598     c0.408-0.071,0.798,0.198,0.871,0.605c0.073,0.408-0.198,0.798-0.605,0.871l-13.479,2.417c0.481,0.875,1.036,1.787,1.542,2.616     c0.591,0.971,1.15,1.888,1.506,2.606c0.184,0.371,0.032,0.821-0.339,1.005C29.37,28.578,29.257,28.604,29.146,28.604z"/></g></g><g><g><path d="M3.655,13.762c-0.039,0-0.078-0.003-0.117-0.009c-0.409-0.064-0.688-0.448-0.625-0.857     C3.753,7.545,8.1,3.906,14.838,2.912c0.412-0.053,0.79,0.224,0.852,0.633c0.061,0.409-0.223,0.791-0.633,0.852     C9.012,5.288,5.126,8.471,4.396,13.128C4.337,13.498,4.019,13.762,3.655,13.762z"/></g></g><g><g><path d="M24.627,36.025c-0.355,0-0.671-0.254-0.737-0.616c-0.073-0.407,0.196-0.798,0.604-0.872     c0.391-0.07,0.797-0.113,1.203-0.155c0.791-0.082,1.538-0.16,2.099-0.461c3.79-2.031,7.708-4.131,7.696-9.292     c-0.001-0.414,0.334-0.751,0.748-0.752c0.001,0,0.001,0,0.002,0c0.413,0,0.749,0.335,0.75,0.748     c0.014,6.062-4.503,8.482-8.487,10.618c-0.82,0.44-1.752,0.537-2.652,0.63c-0.368,0.038-0.736,0.076-1.091,0.141     C24.717,36.021,24.672,36.025,24.627,36.025z"/></g></g><g><g><path d="M0.75,19.893c-0.332,0-0.635-0.221-0.725-0.557c-0.106-0.4,0.131-0.812,0.531-0.918l12.477-3.328l-2.436-3.454     c-0.178-0.252-0.183-0.587-0.014-0.845l0.354-0.538c0.195-0.3,0.577-0.416,0.908-0.282l4.646,1.883     c0.352-1.512,0.796-3.486,1.233-5.433c0.5-2.228,0.993-4.419,1.332-5.845c0.096-0.403,0.498-0.649,0.903-0.556     c0.402,0.096,0.651,0.5,0.556,0.903c-0.338,1.42-0.829,3.605-1.328,5.826c-0.526,2.344-1.063,4.729-1.438,6.301     c-0.051,0.213-0.191,0.393-0.386,0.493c-0.193,0.1-0.423,0.11-0.626,0.028l-4.115-1.668l2.257,3.201     c0.141,0.2,0.176,0.457,0.092,0.688s-0.275,0.405-0.512,0.469L0.943,19.867C0.879,19.885,0.813,19.893,0.75,19.893z"/></g></g><g><g><path d="M13.979,36.025c-0.081,0-0.163-0.013-0.243-0.041C8.453,34.174,4.922,30.323,2.94,24.214     c-0.127-0.395,0.089-0.817,0.482-0.945c0.397-0.126,0.817,0.089,0.945,0.482c1.825,5.63,5.049,9.168,9.854,10.814     c0.392,0.135,0.601,0.562,0.467,0.953C14.582,35.83,14.291,36.025,13.979,36.025z"/></g></g><g><g><path d="M22.364,13.508c-0.122,0-0.245-0.03-0.355-0.09c-0.193-0.104-0.332-0.288-0.378-0.503L19.053,0.907     c-0.087-0.404,0.171-0.804,0.576-0.891c0.397-0.087,0.803,0.17,0.891,0.576l2.393,11.146l5.959-2.329     c0.387-0.15,0.822,0.039,0.972,0.425c0.151,0.386-0.039,0.821-0.425,0.972l-6.78,2.65C22.55,13.49,22.457,13.508,22.364,13.508z"/></g></g><g><g><path d="M19.787,38.283c-0.057,0-0.113-0.006-0.17-0.02c-0.403-0.093-0.655-0.496-0.562-0.899     c0.373-1.614,0.896-3.825,1.429-6.083c0.574-2.434,1.161-4.92,1.588-6.767c0.052-0.224,0.203-0.411,0.411-0.51     c0.207-0.098,0.449-0.095,0.654,0.008l6.342,3.17c0.37,0.185,0.521,0.635,0.336,1.006c-0.185,0.37-0.636,0.521-1.006,0.336     l-5.491-2.744c-0.398,1.711-0.891,3.797-1.375,5.846c-0.532,2.255-1.054,4.465-1.427,6.076     C20.437,38.049,20.128,38.283,19.787,38.283z"/></g></g><g><g><path d="M19.882,23.246c-0.107,0-0.216-0.023-0.316-0.07l-2.551-1.188c-0.218-0.102-0.374-0.3-0.42-0.536     c-0.251-1.283-1.016-5.189,3.336-6.265c0.115-0.028,0.232-0.028,0.341-0.004c0.196-0.041,0.401-0.009,0.579,0.109     c2.161,1.449,3.103,2.666,3.051,3.944c-0.054,1.324-1.181,2.531-3.653,3.913C20.135,23.214,20.008,23.246,19.882,23.246z      M18,20.793l1.847,0.859c1.669-0.973,2.528-1.805,2.556-2.476c0.026-0.644-0.714-1.487-2.199-2.511     C18.265,17.176,17.61,18.389,18,20.793z"/></g></g></g></svg>