<?xml version="1.0" ?><!DOCTYPE svg  PUBLIC '-//W3C//DTD SVG 1.1//EN'  'http://www.w3.org/Graphics/SVG/1.1/DTD/svg11.dtd'><svg enable-background="new 0 0 39.266 38.813" height="38.813px" id="Layer_1" version="1.1" viewBox="0 0 39.266 38.813" width="39.266px" xml:space="preserve" xmlns="http://www.w3.org/2000/svg" xmlns:xlink="http://www.w3.org/1999/xlink"><g><g><g><path d="M12.257,38.813c-0.086,0-0.171-0.003-0.257-0.008c-1.128-0.07-2.154-0.61-2.815-1.483     c-0.373-0.492-0.551-1.241-0.695-1.843L8.281,34.65c-0.206-0.804-0.438-1.239-0.587-1.378c-0.098-0.091-0.184-0.152-0.27-0.214     c-0.349-0.254-0.655-0.505-1.154-1.225c-0.533-0.769-1.083-1.527-1.631-2.286c-1.353-1.87-2.751-3.803-3.891-5.86     c-0.955-1.724-1.265-4.157,0.73-5.816c1.832-1.527,3.499-0.528,4.839,0.274l0.353,0.209c6.407,3.755,10.298,9.399,14.17,16.72     c0.193,0.366,0.054,0.82-0.313,1.014c-0.365,0.192-0.82,0.054-1.014-0.313c-3.752-7.094-7.502-12.551-13.603-16.126l-0.364-0.217     c-1.415-0.847-2.138-1.217-3.11-0.409c-1.625,1.352-0.7,3.355-0.377,3.938c1.095,1.978,2.467,3.874,3.794,5.707     c0.555,0.768,1.11,1.534,1.648,2.311c0.394,0.568,0.584,0.707,0.804,0.866c0.129,0.094,0.259,0.189,0.408,0.327     c0.062,0.057,0.121,0.12,0.178,0.189c1.149-1.07,2.296-1.606,3.331-1.556c0.835,0.028,1.586,0.399,2.233,1.103     c1.492,1.622,2.53,3.928,0.971,5.531C14.569,38.321,13.427,38.813,12.257,38.813z M9.559,33.676     c0.062,0.188,0.121,0.39,0.176,0.606l0.214,0.85c0.099,0.415,0.249,1.043,0.432,1.284c0.403,0.532,1.011,0.849,1.712,0.892     c0.816,0.056,1.645-0.283,2.258-0.913c1.096-1.127-0.78-3.234-0.998-3.471c-0.37-0.402-0.757-0.604-1.182-0.619     c-0.617-0.036-1.448,0.39-2.299,1.193C9.78,33.585,9.672,33.644,9.559,33.676z"/></g></g><g><g><path d="M17.456,38.55c-0.473,0-0.941-0.091-1.291-0.23l-0.187-0.074c-0.395-0.155-0.841-0.332-1.454-0.673     c-0.362-0.201-0.492-0.657-0.291-1.02c0.2-0.362,0.658-0.494,1.02-0.291c0.527,0.293,0.908,0.443,1.276,0.589l0.193,0.076     c0.365,0.146,0.96,0.166,1.249,0.042c3.269-1.404,3.36-1.56,3.28-5.547c-0.056-2.712,0.624-4.65,2.138-6.099     c2.899-2.775,3.426-6.056,1.658-10.321c-0.159-0.383,0.022-0.821,0.405-0.979c0.382-0.158,0.821,0.022,0.979,0.405     c2.009,4.845,1.353,8.764-2.006,11.979c-1.189,1.138-1.722,2.722-1.675,4.984c0.088,4.405-0.188,5.237-4.188,6.955     C18.233,38.489,17.844,38.55,17.456,38.55z"/></g></g><g><g><path d="M3.967,18.575c-0.373,0-0.695-0.277-0.743-0.656c-0.052-0.411,0.24-0.786,0.651-0.838     c3.871-0.486,8.339-2.767,11.118-5.674c2.581-2.698,5.695-1.207,6.719-0.714c1.151,0.552,2.146,1.32,3.199,2.133l0.63,0.483     c0.207,0.158,0.658,0.19,0.896,0.068l2.252-1.155c0.191-0.099,0.344-0.413,0.302-0.624l-0.244-1.22     c-0.054-0.269-0.4-0.663-0.727-0.827c-1.926-0.968-2.898-2.706-3.838-4.385c-0.73-1.306-1.486-2.656-2.696-3.63     c-0.095-0.075-0.339-0.044-0.459,0.092l-3.09,3.438c-0.167,0.186-0.199,0.552-0.103,0.7c1.184,1.81,2.851,2.578,4.614,3.39     c0.597,0.275,1.214,0.559,1.801,0.883c0.362,0.2,0.493,0.656,0.293,1.02c-0.2,0.36-0.655,0.494-1.02,0.293     c-0.538-0.298-1.103-0.558-1.701-0.833c-1.792-0.825-3.823-1.76-5.243-3.931c-0.478-0.731-0.371-1.84,0.243-2.524l3.089-3.437     c0.644-0.719,1.796-0.838,2.516-0.259c1.437,1.157,2.265,2.636,3.064,4.066c0.868,1.551,1.688,3.016,3.203,3.778     c0.615,0.309,1.354,1.027,1.523,1.872l0.244,1.222c0.174,0.876-0.294,1.844-1.088,2.251l-2.251,1.155     c-0.754,0.386-1.823,0.299-2.489-0.208l-0.639-0.49c-0.989-0.764-1.924-1.484-2.932-1.969c-2.212-1.062-3.702-0.944-4.986,0.399     c-2.999,3.138-7.827,5.599-12.015,6.125C4.029,18.573,3.998,18.575,3.967,18.575z"/></g></g><g><g><path d="M32.268,21.394c-0.403,0-0.791-0.064-1.157-0.194c-1.031-0.366-1.841-1.233-2.341-2.509     c-0.364-0.93-0.641-1.894-0.908-2.825c-0.119-0.414-0.237-0.829-0.364-1.24c-0.122-0.396,0.101-0.815,0.496-0.938     c0.394-0.122,0.814,0.101,0.938,0.496c0.13,0.421,0.251,0.845,0.373,1.269c0.27,0.939,0.523,1.827,0.862,2.691     c0.341,0.87,0.827,1.423,1.445,1.642c0.667,0.236,1.506,0.085,2.431-0.439c1.024-0.58,2.12-1.019,3.18-1.442l0.486-0.194     l0.658-0.526l-0.627,0.411l-0.115-0.176c-0.23-0.354-0.782-0.867-1.154-1.073l-6.766-3.758c-0.362-0.2-0.492-0.657-0.291-1.02     c0.2-0.363,0.657-0.493,1.02-0.291l6.765,3.757c0.59,0.326,1.314,1.001,1.686,1.568l0.11,0.17     c0.27,0.413,0.343,0.903,0.203,1.348c-0.139,0.441-0.477,0.799-0.927,0.98l-0.491,0.197c-1.06,0.424-2.062,0.824-2.996,1.354     C33.911,21.145,33.06,21.394,32.268,21.394z"/></g></g><g><g><path d="M24.194,13.609c-0.398,0-0.73-0.314-0.748-0.717c-0.088-1.963,0.84-3.499,2.836-4.695     c0.356-0.214,0.816-0.097,1.029,0.258c0.213,0.355,0.098,0.816-0.258,1.029c-1.521,0.911-2.172,1.941-2.109,3.342     c0.019,0.413-0.302,0.764-0.716,0.782C24.218,13.609,24.206,13.609,24.194,13.609z"/></g></g></g></svg>