<?xml version="1.0" ?><!DOCTYPE svg  PUBLIC '-//W3C//DTD SVG 1.1//EN'  'http://www.w3.org/Graphics/SVG/1.1/DTD/svg11.dtd'><svg enable-background="new 0 0 40.759 39.952" height="39.952px" id="Layer_1" version="1.1" viewBox="0 0 40.759 39.952" width="40.759px" xml:space="preserve" xmlns="http://www.w3.org/2000/svg" xmlns:xlink="http://www.w3.org/1999/xlink"><g><g><g><path d="M26.099,29.631c-0.411,0-0.747-0.332-0.75-0.744c-0.003-0.414,0.33-0.753,0.744-0.756     c3.023-0.024,5.572-1.048,7.371-2.96c1.802-1.917,2.75-4.604,2.602-7.373c-0.29-5.434-4.898-9.048-11.173-8.831     c-3.789,0.141-6.036,1.538-7.071,4.397c-1.433,3.963-1.052,7.376,1.162,10.436c0.302,0.416,0.641,0.807,0.998,1.221     c0.172,0.199,0.344,0.397,0.511,0.599c0.266,0.318,0.222,0.791-0.097,1.056c-0.316,0.265-0.79,0.223-1.056-0.097     c-0.162-0.193-0.327-0.385-0.492-0.576c-0.363-0.42-0.739-0.854-1.079-1.322c-2.527-3.493-2.972-7.36-1.357-11.825     c1.253-3.461,4.009-5.223,8.426-5.386c7.007-0.269,12.396,4.049,12.727,10.249c0.17,3.176-0.926,6.267-3.007,8.48     c-2.086,2.218-5.009,3.405-8.452,3.433C26.103,29.631,26.101,29.631,26.099,29.631z"/></g></g><g><g><path d="M15.083,32.862c-0.755,0-1.547-0.057-2.375-0.17c-4.037-0.555-7.355-3.211-9.104-7.287     c-1.452-3.39-0.686-7.161,2.104-10.348c2.464-2.814,5.697-3.5,8.534-3.921c0.399-0.054,0.791,0.222,0.853,0.632     c0.061,0.41-0.223,0.791-0.632,0.853c-3.284,0.487-5.705,1.229-7.626,3.425c-2.43,2.774-3.088,5.889-1.854,8.768     c0.902,2.105,3.133,5.734,7.928,6.393c3.492,0.479,6.214-0.148,8.094-1.866c2.677-2.447,2.91-6.353,2.811-8.462     c-0.09-1.924-1.196-3.315-2.367-4.789c-0.414-0.521-0.842-1.058-1.226-1.625c-0.233-0.343-0.144-0.809,0.199-1.041     c0.343-0.234,0.81-0.144,1.041,0.199c0.354,0.52,0.745,1.012,1.159,1.533c1.268,1.596,2.579,3.245,2.691,5.652     c0.193,4.096-0.978,7.52-3.297,9.64C20.26,32.054,17.934,32.862,15.083,32.862z"/></g></g><g><g><path d="M35.852,39.952c-0.587,0-1.173-0.407-1.454-1.054l-0.33-0.751c-0.167-0.379,0.006-0.821,0.385-0.988     c0.375-0.164,0.822,0.005,0.988,0.385l0.33,0.751c0.021,0.047,0.047,0.084,0.07,0.111c0.1-0.104,0.271-0.329,0.37-0.594     l3.096-8.267c0.145-0.39,0.579-0.583,0.965-0.439c0.388,0.145,0.585,0.577,0.439,0.965l-3.096,8.267     c-0.231,0.62-0.773,1.374-1.413,1.563C36.087,39.936,35.969,39.952,35.852,39.952z"/></g></g><g><g><path d="M34.148,38.601c-0.148,0-0.302-0.021-0.457-0.065l-5.325-1.514c-0.398-0.113-0.63-0.528-0.517-0.927     c0.113-0.397,0.527-0.63,0.927-0.517l5.15,1.465c-0.617-3.199-2.015-6.153-3.251-8.769c-0.178-0.374-0.018-0.821,0.357-0.998     c0.374-0.177,0.821-0.019,0.998,0.357c1.306,2.76,2.785,5.888,3.411,9.332c0.092,0.515-0.052,0.988-0.396,1.301     C34.803,38.486,34.49,38.601,34.148,38.601z"/></g></g><g><g><path d="M9.405,13.557c-0.295,0-0.575-0.175-0.694-0.466L3.766,1.035C3.608,0.651,3.792,0.214,4.175,0.056     c0.387-0.156,0.822,0.026,0.979,0.409L10.1,12.522c0.157,0.383-0.026,0.821-0.41,0.979C9.597,13.539,9.5,13.557,9.405,13.557z"/></g></g><g><g><path d="M0.751,11.393c-0.275,0-0.54-0.151-0.672-0.415c-0.186-0.37-0.035-0.82,0.336-1.006L5.98,7.189     c0.371-0.185,0.82-0.035,1.006,0.336c0.186,0.37,0.035,0.82-0.336,1.006l-5.565,2.782C0.978,11.367,0.863,11.393,0.751,11.393z"/></g></g><g><g><path d="M7.553,8.301c-0.27,0-0.529-0.145-0.664-0.399C6.695,7.535,6.835,7.082,7.201,6.888l5.254-2.781     c0.364-0.192,0.82-0.054,1.014,0.313s0.054,0.819-0.313,1.014L7.902,8.214C7.791,8.272,7.671,8.301,7.553,8.301z"/></g></g></g></svg>