<?xml version="1.0" encoding="iso-8859-1"?>
<!-- Generator: Adobe Illustrator 16.0.0, SVG Export Plug-In . SVG Version: 6.00 Build 0)  -->
<!DOCTYPE svg PUBLIC "-//W3C//DTD SVG 1.1//EN" "http://www.w3.org/Graphics/SVG/1.1/DTD/svg11.dtd">
<svg version="1.1" id="Capa_1" xmlns="http://www.w3.org/2000/svg" xmlns:xlink="http://www.w3.org/1999/xlink" x="0px" y="0px"
	 width="579.845px" height="579.845px" viewBox="0 0 579.845 579.845" style="enable-background:new 0 0 579.845 579.845;"
	 xml:space="preserve">
<g>
	<g>
		<path d="M578.342,268.285c-8.568-90.576-170.136-229.5-217.26-94.86c-0.306,1.224-0.306,2.142,0.306,3.06
			c-18.359-6.426-37.638-10.404-56.916-11.934c-20.196-32.742-18.666-71.298,5.508-102.816c1.53-1.836,0.612-4.59-0.918-6.12
			c-9.18-10.098-16.829-20.808-28.764-28.458c-2.448-1.53-5.508-0.306-7.038,1.836c-27.54,41.004-38.25,89.352-32.13,138.312
			c-1.53,0.306-3.06,0.306-4.59,0.612C-6.424-45.671-98.531,560.821,135.56,505.436c1.53-0.307,2.448-1.225,3.06-2.448
			c61.506,66.708,216.342,66.402,283.968,3.672c0.306,1.224,1.224,2.448,2.754,2.754
			C559.37,549.499,587.216,360.392,578.342,268.285z M257.042,83.461c4.59-14.688,11.628-28.458,19.584-41.616
			c6.12-0.306,10.71,2.448,13.464,7.956c7.344,8.568,6.733,11.322,0.918,20.808c-17.442,28.764-14.382,64.872,0.918,93.33
			c-14.688-0.612-29.682,0-44.676,2.142C246.637,137.623,248.779,110.695,257.042,83.461z M427.484,501.764
			c13.464-13.771,22.644-30.601,26.01-49.879c0.918-5.508-7.038-10.098-9.792-4.283c-29.376,63.954-89.353,85.68-156.673,89.046
			c-62.73,3.06-149.328-17.442-166.158-87.517c-1.224-4.896-7.956-2.754-7.344,2.143c2.448,16.523,8.568,30.906,18.054,43.452
			C-85.373,511.249,11.018,8.797,226.135,169.447c-22.644,4.896-45.288,12.852-66.708,23.562c-4.896,2.448-0.612,9.18,4.284,7.038
			c44.064-18.972,90.882-28.152,136.17-24.174c0.306,0.306,0.612,0.918,0.918,1.224c2.448,3.366,7.038,2.448,8.568,0
			c42.228,5.202,82.62,21.42,118.116,51.714c6.119,5.202,14.993-3.672,8.874-8.874c-21.114-18.054-44.064-31.518-68.238-40.698
			c0.612-0.306,1.224-0.918,1.836-1.836c33.048-75.276,99.756-44.982,146.574-2.142c37.638,34.272,49.266,72.522,50.796,121.482
			C570.08,378.751,540.704,529.915,427.484,501.764z"/>
		<path d="M248.779,245.335c-1.836-4.59-8.568-3.978-8.874,1.224c-1.224,34.884-0.306,66.402-11.934,100.369
			c-14.688,43.146-60.282,84.149-104.652,47.43c-51.408-42.229,76.194-146.574,115.668-150.858c3.366-0.306,3.366-5.202,0-5.202
			c-56.304-0.306-178.704,107.1-124.236,164.934c31.518,33.354,82.008,14.994,105.876-15.606
			C245.414,354.883,264.691,284.809,248.779,245.335z"/>
		<path d="M328.646,246.559c-3.06-0.918-5.201,0.612-6.426,3.06c-1.224-0.306-3.06,0.306-3.366,1.836
			c-15.605,66.096,59.67,243.271,145.656,161.262C526.628,353.047,374.24,259.411,328.646,246.559z M464.51,394.663
			c-8.874,19.891-40.698,27.234-59.364,22.95c-23.562-5.508-39.779-30.6-50.796-49.878c-18.054-30.601-33.354-74.358-30.294-111.384
			c0.612,0.306,0.918,0.612,1.53,0.918c28.152,7.956,54.468,26.928,77.724,44.063C427.178,319.081,480.116,359.779,464.51,394.663z"
			/>
		<path d="M310.286,454.64c-6.426-29.683-16.218-59.059-33.967-83.845c-2.142-2.754-7.038-3.672-8.568,0
			c-10.098,20.809-18.666,42.534-20.808,65.484c-1.53,1.53-1.53,4.284-0.306,5.813c0,0.919,0,1.837-0.306,2.755
			c0,4.283,5.814,4.59,7.038,0.918c15.606,6.426,33.66,5.813,48.96,14.688C306.614,463.207,311.204,459.229,310.286,454.64z
			 M297.128,446.071c-13.464-5.814-28.458-9.18-42.84-10.404c2.754-18.359,10.098-35.496,18.054-52.326
			C284.582,402.619,291.926,424.039,297.128,446.071z"/>
	</g>
</g>
<g>
</g>
<g>
</g>
<g>
</g>
<g>
</g>
<g>
</g>
<g>
</g>
<g>
</g>
<g>
</g>
<g>
</g>
<g>
</g>
<g>
</g>
<g>
</g>
<g>
</g>
<g>
</g>
<g>
</g>
</svg>
