<?xml version="1.0" encoding="iso-8859-1"?>
<!-- Generator: Adobe Illustrator 16.0.0, SVG Export Plug-In . SVG Version: 6.00 Build 0)  -->
<!DOCTYPE svg PUBLIC "-//W3C//DTD SVG 1.1//EN" "http://www.w3.org/Graphics/SVG/1.1/DTD/svg11.dtd">
<svg version="1.1" id="Capa_1" xmlns="http://www.w3.org/2000/svg" xmlns:xlink="http://www.w3.org/1999/xlink" x="0px" y="0px"
	 width="571.677px" height="571.678px" viewBox="0 0 571.677 571.678" style="enable-background:new 0 0 571.677 571.678;"
	 xml:space="preserve">
<g>
	<path d="M550.533,314.65c-7.038-0.918-13.771-1.836-20.502-3.366c6.731-3.672,12.546-8.263,16.83-15.3
		c1.836-3.061,0.306-6.12-2.143-7.957c-4.896-3.672-9.485-7.038-14.076-10.098c22.339-16.524,20.502-50.49,11.322-76.5
		c-1.224-3.978-8.262-4.896-8.874,0c-3.672,24.48,15.3,58.446-16.523,70.686c-5.814,2.142-5.509,9.18,0,11.628
		c6.426,2.754,11.628,6.426,16.83,10.405c-5.509,6.426-12.853,9.792-21.114,12.852c-5.202,1.836-5.508,9.18,0,11.016
		c8.874,2.754,17.136,4.284,26.01,4.896c-134.946,122.399-265.608-46.207-410.04-26.01c1.836-87.823-10.098-176.563-19.584-263.467
		c70.074-37.944,167.382,29.988,230.112,53.856c49.572,18.972,153,35.802,176.256-30.6c3.366,25.704,19.278,59.058-2.754,79.254
		c-3.061,2.754-1.225,7.344,2.142,8.568c23.868,8.262,2.754,18.36,2.448,33.048c-0.306,11.016,7.956,15.606,17.442,18.36
		c3.06,0.918,4.59-3.366,2.142-4.896c-24.48-14.382,16.218-38.862-11.934-53.55c19.277-24.174,4.896-57.222,0.918-85.68
		c-0.612-4.284-5.508-4.896-8.568-3.06c-0.306-5.814-8.568-7.038-11.016-1.224c-31.212,76.5-141.372,39.168-192.475,14.382
		c-33.354-16.218-63.036-36.108-99.45-44.064c-29.682-6.426-74.358-9.18-106.794,4.896c-0.612-4.284-0.918-8.568-1.53-12.546
		c-0.306-2.448-1.836-3.978-3.672-4.896C95.205-3.285,76.845-0.531,70.725,7.12c-1.836,2.142-1.224,5.508,0.612,7.038
		c-1.836-1.224-4.896-0.306-5.202,2.448c-15.606,179.01,42.228,363.835-44.676,531.828c-2.754-1.224-5.508,2.448-3.978,4.896l0,0
		c1.53,2.754,3.978,5.813,6.732,8.262c0.306,0.612,0.918,0.918,1.224,1.53c0.612,0.612,1.224,0.918,1.836,0.612
		c10.098,7.344,24.174,11.628,33.048,3.672c1.836-1.53,1.53-4.896-0.306-6.427c43.452-45.899,56.304-135.558,63.342-194.004
		c2.448-19.584,3.672-39.474,4.59-59.363c89.352-8.874,159.732,46.512,248.472,70.686c66.708,18.054,134.334,1.53,176.256-54.773
		c0.612-0.612,0.612-1.53,0.918-2.143C555.735,319.24,554.51,315.262,550.533,314.65z M116.013,299.35
		c-9.486,2.143-18.972,4.896-28.458,8.874c2.448-83.232-5.508-168.3-11.322-248.472c0.918,0.306,2.142,0,3.06-1.224
		c5.508-6.732,11.628-12.546,17.748-17.136C104.69,127.377,116.013,212.751,116.013,299.35z M75.927,15.381
		c3.06-0.918,5.814-2.448,9.18-3.06c3.366-0.306,6.426,0.918,9.486,2.142c0.306,5.202,0.918,10.098,1.224,15.3
		c-8.262,5.202-15.3,12.24-20.502,20.808c-0.918-11.322-1.53-22.338-2.142-33.354c0-0.918-0.612-1.836-0.918-2.142
		C73.479,15.688,74.396,15.994,75.927,15.381z M53.283,560.062c-4.59,0-8.874,0.306-13.464-0.919
		c-2.754-0.918-5.202-2.142-7.65-3.672c0-0.306,0.306-0.306,0.612-0.611c37.638-73.135,51.714-154.836,54.774-238.681
		c9.792-3.06,19.584-5.508,28.764-6.731C115.095,383.806,101.325,498.25,53.283,560.062z"/>
	<path d="M26.967,562.51L26.967,562.51"/>
	<path d="M394.472,215.2c-0.918-0.306-2.142-0.612-3.06-0.918c11.628-10.098,17.136-24.48,1.53-34.272
		c-0.612-2.754-3.979-4.59-7.038-2.142c-20.196,15.606-37.639,21.114-48.654-6.426c-3.978-9.792-6.426-20.196-9.486-30.294
		c-5.813-19.89-14.075-34.578-30.905-47.124c-43.758-33.354-97.308,11.934-113.833,51.408
		c-43.452,103.734,115.362,173.196,191.862,125.766c0.612,0.306,1.225,0.306,1.53-0.306c14.688-9.18,22.032-27.54,8.568-33.048
		c4.284-4.59,7.649-10.098,11.628-15.912C399.063,219.79,397.533,215.812,394.472,215.2z M377.642,264.465
		c-0.918-0.612-2.142-0.612-3.365,0c-51.103,25.399-111.384,12.852-153.612-23.868c-52.938-45.9-33.354-139.536,41.922-145.656
		c55.08-4.284,53.244,62.73,72.828,95.778c13.464,22.95,37.332,11.628,52.326-2.754c12.546,9.792-0.307,18.666-7.65,23.256
		c-2.754,1.836-3.06,6.12,0,7.956c2.143,1.224,3.979,2.142,5.814,3.06c-3.979,5.814-7.65,11.322-14.382,14.688
		c-4.591,2.142-2.143,9.486,2.447,9.18C389.882,245.799,384.069,256.815,377.642,264.465z"/>
	<path d="M220.358,142.372c0-1.224-0.612-2.448-1.836-1.836l0,0c-0.612-0.612-1.224-1.224-2.142-1.53
		c-3.366-1.836-7.038,2.448-4.59,5.202c-18.666,15.3-13.464,60.894,13.77,61.812C257.385,207.244,235.659,157.671,220.358,142.372z
		 M230.763,197.757c-13.158,8.874-21.114-10.404-22.338-19.89c-1.224-9.486,0.612-21.726,6.732-29.988
		C225.254,159.813,243.92,188.883,230.763,197.757z"/>
	<path d="M285.537,140.841c-7.344-9.792-29.07-24.48-41.922-19.278c-2.754,0.918-3.978,5.202-0.918,6.732
		c3.978,1.836,8.262,1.836,12.24,3.06c5.814,1.53,10.71,4.59,15.606,7.65c11.628,7.956,18.972,23.256,7.65,34.884
		c-7.65,7.65-20.196-4.59-25.092-9.792c-7.65-8.262-13.77-19.278-14.994-30.6c-0.306-3.06-4.896-3.06-4.896,0
		c-0.612,18.972,26.316,63.648,49.572,46.206C295.941,170.523,294.411,152.164,285.537,140.841z"/>
	<path d="M314.913,206.938c-9.486-13.158-32.742-13.158-46.818-10.098c-17.748,3.672-25.398,17.442-21.42,33.048
		c-2.142,0-4.284,2.142-2.754,4.59c3.06,4.59,11.322,14.688,17.442,7.65c1.836-2.448,2.142-5.814,2.754-8.874
		c1.224-8.262,5.508-7.956,13.158-7.65C286.148,226.215,330.825,229.275,314.913,206.938z M291.657,218.872
		c-8.262-0.306-16.524-1.836-24.786-0.918c-3.978,0.612-7.038,2.754-8.568,6.732c-0.918,2.754-1.53,5.508-1.836,8.262
		c-0.306,2.754-1.53,2.754-3.06,1.836v-0.306c-4.896-16.524,1.53-27.54,18.36-30.6c11.016-2.142,27.234-0.612,35.802,7.344
		C316.136,218.565,295.329,218.872,291.657,218.872z"/>
</g>
<g>
</g>
<g>
</g>
<g>
</g>
<g>
</g>
<g>
</g>
<g>
</g>
<g>
</g>
<g>
</g>
<g>
</g>
<g>
</g>
<g>
</g>
<g>
</g>
<g>
</g>
<g>
</g>
<g>
</g>
</svg>
