<?xml version="1.0" encoding="iso-8859-1"?>
<!-- Generator: Adobe Illustrator 16.0.0, SVG Export Plug-In . SVG Version: 6.00 Build 0)  -->
<!DOCTYPE svg PUBLIC "-//W3C//DTD SVG 1.1//EN" "http://www.w3.org/Graphics/SVG/1.1/DTD/svg11.dtd">
<svg version="1.1" id="Capa_1" xmlns="http://www.w3.org/2000/svg" xmlns:xlink="http://www.w3.org/1999/xlink" x="0px" y="0px"
	 width="583.713px" height="583.713px" viewBox="0 0 583.713 583.713" style="enable-background:new 0 0 583.713 583.713;"
	 xml:space="preserve">
<g>
	<path d="M447.834,292.789c1.836-3.06,3.366-6.426,4.59-9.792c19.278-51.714-52.326-57.834-88.128-51.408
		c-6.426-28.152-11.934-57.222-23.868-82.314c-8.262-17.442-18.054-34.272-27.233-51.102c-5.202-9.486-9.486-19.584-12.24-29.988
		c-10.71-34.272,37.638-3.06,45.9,1.53c0.306,0,0.611,0,0.611,0c0,0.306,0.307,0.306,0.307,0.612
		c2.754,5.814,11.016,0.612,8.567-4.896c-16.218-36.414-49.266-82.926-97.308-58.752c-23.256,11.628-29.376,68.544-34.884,88.434
		c-13.158,47.43-23.868,96.084-26.622,145.35c-0.306-0.306-0.612-0.612-0.918-0.612c-46.206-7.65-94.86,18.666-66.096,69.769
		c0.306,0.306,0.612,0.918,0.918,1.224c-0.306,0-0.306-0.306-0.612-0.306c-116.892-22.032-80.784,287.64,68.238,249.695
		c0.612-0.306,1.224-0.611,1.836-0.918c18.36,19.584,62.118,22.95,83.844,24.174c58.445,3.366,124.848-31.212,137.394-91.8
		c0.918-4.896-5.813-8.262-8.262-3.366c-24.48,47.736-55.692,74.358-110.466,81.702c-27.54,3.672-98.838,0.307-104.346-35.802
		c-0.612-3.978-6.426-2.754-6.732,0.918c-0.612,6.426,0.918,11.935,3.366,16.83c-65.79-0.612-102.204-46.206-118.422-107.406
		c-13.77-52.326-6.732-115.668,53.55-128.826c1.224-0.306,1.836-1.529,1.53-2.754c33.048,51.714,131.274,43.452,181.458,38.557
		c41.004-3.979,99.756-13.464,127.602-48.654c0.612,0.612,1.224,0.918,1.836,1.224c62.118,24.175,80.172,108.937,52.326,165.853
		c-16.524,33.66-59.977,87.21-100.98,74.052c-1.224-0.306-2.754,0.918-2.447,2.448c19.277,53.855,103.733-52.632,113.832-70.074
		C543,413.047,514.236,318.799,447.834,292.789z M238.836,79.813c9.792-34.578,14.994-75.276,63.342-62.73
		c25.093,6.426,33.049,24.48,42.229,44.676c-14.076-11.016-28.458-19.278-45.9-24.786c-2.754-0.918-5.508,0.918-6.426,3.672
		c-8.874,29.988,9.792,58.14,23.868,83.538c19.278,34.272,27.846,71.604,37.332,109.242c-1.836-0.612-3.672-0.306-5.508,1.224
		c-36.414,33.66-103.734,27.234-139.536-4.59c-0.306-0.306-0.612-0.306-0.918-0.612C215.274,178.957,225.066,129.385,238.836,79.813
		z M203.034,259.741c0.918-7.65,2.142-15.3,3.366-22.95c37.332,36.414,109.548,43.452,148.411,6.732c0.306,0,0.918,0,1.224,0
		c1.836,7.344,3.978,14.688,6.12,22.032c-26.316,13.464-55.386,20.196-84.456,22.032c-14.076,0.918-28.458-0.306-41.922-3.672
		c-14.688-3.672-22.95-14.382-34.884-21.726C201.81,261.883,203.034,261.271,203.034,259.741z M404.994,316.045
		c-27.54,15.3-60.282,20.196-91.188,23.868c-29.987,3.365-60.282,3.672-90.27,1.224c-22.338-1.836-43.452-7.956-63.342-18.36
		c-28.764-15.3-27.54-40.085,3.978-74.357c10.404-2.754,20.808-3.366,31.518-1.836c0.612,0,1.224-0.306,1.53-0.612
		c-0.306,4.896-0.612,9.486-0.612,14.382c0,1.836,0.918,2.448,2.142,2.754c-0.306,0.306-0.918,0.918-0.612,1.53
		c2.448,27.846,42.534,34.578,64.566,36.108c35.802,2.754,76.194-7.345,107.406-24.786c0.306-0.306,0.306-0.306,0.611-0.612
		c2.448-0.612,4.284-2.754,3.366-5.814c-2.754-8.874-5.202-18.054-7.344-27.54c14.994-3.366,29.376-3.978,45.288-1.836
		C479.046,249.031,427.026,303.805,404.994,316.045z"/>
	<path d="M268.518,401.419c-37.944-11.322-75.276-23.256-112.608-35.802c-2.142-0.612-3.672,2.754-1.53,3.672
		c33.966,16.218,70.074,27.846,105.876,38.556c-15.606,18.972-42.84,25.092-66.402,23.256c-11.628-0.918-22.95-5.202-31.518-13.158
		c-11.628-10.71-7.65-25.703-3.978-38.861c0.918-3.366-3.978-5.508-5.814-2.448c-17.442,28.152,0,54.162,28.764,62.73
		c30.6,8.873,67.932-1.53,84.15-29.683c0.306,0,0.612,0,0.612,0.307C271.578,411.211,274.026,402.949,268.518,401.419z"/>
	<path d="M435.288,344.809c-0.306-0.612-0.612-0.918-0.918-0.918c-0.612-2.448-3.366-4.59-6.12-3.06
		c-28.458,18.359-61.2,33.354-85.374,57.834c-1.53,1.529-1.53,3.672-0.306,4.896c-1.53-0.611-3.672,0-3.672,2.143
		c3.672,30.294,42.84,29.682,64.872,22.031C435.9,416.719,448.141,374.185,435.288,344.809z M405.912,415.495
		c-17.136,10.403-54.162,12.546-62.118-10.404l-0.306-0.306c1.53,0.918,3.366,0.918,4.896-0.307
		c24.175-21.42,55.998-31.823,80.172-52.938C427.026,376.327,432.534,399.276,405.912,415.495z"/>
	<path d="M328.8,433.854c-7.649-5.813-13.464-13.464-21.113-18.972c-4.284-3.06-8.568,3.978-4.284,7.038
		c5.508,3.978,10.098,8.874,14.994,13.77c-9.181,2.754-18.36,4.896-28.152,5.509c3.06-9.486,6.12-18.973,10.71-27.847
		c1.224-2.754-2.142-4.59-3.978-2.142c-7.039,10.404-12.853,21.726-17.136,33.966c-0.918,2.754,1.53,5.508,4.284,5.508
		c14.688,0,31.519-1.224,44.37-9.18C331.554,439.057,331.248,435.69,328.8,433.854z"/>
</g>
<g>
</g>
<g>
</g>
<g>
</g>
<g>
</g>
<g>
</g>
<g>
</g>
<g>
</g>
<g>
</g>
<g>
</g>
<g>
</g>
<g>
</g>
<g>
</g>
<g>
</g>
<g>
</g>
<g>
</g>
</svg>
