<?xml version="1.0" encoding="iso-8859-1"?>
<!-- Generator: Adobe Illustrator 16.0.0, SVG Export Plug-In . SVG Version: 6.00 Build 0)  -->
<!DOCTYPE svg PUBLIC "-//W3C//DTD SVG 1.1//EN" "http://www.w3.org/Graphics/SVG/1.1/DTD/svg11.dtd">
<svg version="1.1" id="Capa_1" xmlns="http://www.w3.org/2000/svg" xmlns:xlink="http://www.w3.org/1999/xlink" x="0px" y="0px"
	 width="580.432px" height="580.432px" viewBox="0 0 580.432 580.432" style="enable-background:new 0 0 580.432 580.432;"
	 xml:space="preserve">
<g>
	<path d="M397.643,80.395c-16.83-21.726-28.151-47.124-43.451-69.768c-2.143-3.366-7.956-3.366-8.874,1.224
		c-6.732,30.294-11.628,61.812-13.158,93.024c-0.307,3.366,4.284,6.426,7.344,4.284c3.672-2.754,7.65-3.672,11.628-5.202
		c3.061,30.906,19.584,70.992-4.59,96.084c-9.486,9.792-26.01,4.59-32.436-5.508c-6.12-9.792-5.509-24.174-5.202-35.19
		c0.306-14.994,5.813-33.66,3.365-48.96c3.061,0.612,6.12,0.918,9.792,1.224c3.061,0,5.509-3.672,3.673-6.426
		c-16.219-22.338-18.973-51.714-18.666-78.642c0-4.284-6.12-6.12-8.263-2.142C285.647,48.265,273.408,72.745,258.719,96
		c-2.142,3.366,0.612,7.956,4.59,7.956c7.344,0.306,14.688,0.918,22.032-0.918c-3.672,31.824,4.284,66.708-13.77,95.472
		c-6.732,10.71-18.972,10.404-29.07,5.202c-13.77-7.038-15.3-27.846-15.912-41.31c-0.918-19.584,2.142-39.474,5.202-59.058
		c3.672,1.836,5.202,2.754,9.792,2.142c2.754-0.306,4.59-1.836,4.896-4.896c1.836-33.048-4.59-65.484-13.464-97.308
		c-1.224-3.978-6.12-4.284-8.262-1.224c-16.524,24.786-23.868,54.162-41.922,78.03c-1.836,2.448,0,7.344,3.06,7.65
		c7.956,1.224,15.912,2.448,23.868,2.142c-15.3,41.616-34.884,167.688,36.108,163.098c1.836,67.319-14.382,135.863-20.196,202.878
		c-2.448,28.458-15.606,117.197,29.682,124.235c75.275,11.628,45.287-279.071,54.773-320.993c0.306-1.224,0.306-2.142,0-3.06
		c80.479,14.382,100.674-110.16,68.85-167.994c5.202,0.306,10.099-0.306,15.606-0.612C396.419,87.433,399.785,83.455,397.643,80.395
		z M372.857,78.252c-4.896-0.918-7.65,5.202-4.896,7.956c10.71,59.67,28.458,174.114-68.238,161.568
		c-2.447-0.306-3.365,2.142-2.754,3.978c-0.918,0.918-1.836,1.836-2.142,3.672c-10.709,42.84-5.202,91.493-5.202,135.251
		c0,18.666,2.753,192.168-38.556,174.727c-57.834-24.174,30.906-305.388,4.284-310.59c1.224,0.306,2.754-1.224,1.836-2.448
		l-1.836-3.672c0-1.53-0.918-2.754-2.448-3.366c-1.224-1.224-3.366-1.53-4.896-0.918c-66.402-7.038-42.534-109.548-32.436-153.918
		c0-0.306,0-0.612,0-0.918c1.836-1.224,2.448-4.284-0.306-4.896c-7.038-1.224-13.77-3.06-20.502-4.896
		c13.464-19.89,20.196-42.84,31.518-63.954c7.038,25.704,10.71,52.326,9.792,78.948c-0.612-0.306-1.224-0.306-1.53-0.612
		c-0.918-0.306-1.836-0.306-2.448-0.306c-0.306-2.448-3.672-3.06-4.284-0.612c-10.71,32.436-29.682,133.416,34.272,123.012
		c38.862-6.426,34.578-89.964,30.599-116.892c-0.306-1.53-1.529-2.142-2.753-2.448c-0.306-1.224-1.53-2.448-3.366-2.448
		c-5.202,0.306-10.098-0.306-15.3-0.612c9.792-16.524,18.36-33.66,26.928-50.796c1.529,20.502,5.201,41.31,15.3,58.752
		c-1.225-0.306-2.754-0.612-3.979-1.224c-4.284-1.53-6.426,3.672-4.284,6.732c-9.485,29.988-17.135,119.646,33.66,106.182
		c22.032-5.814,26.929-28.764,28.152-48.654c1.224-20.196,0.306-52.326-9.792-70.686c-1.836-3.366-7.038-1.836-7.038,1.836
		c0,0.612,0,1.224,0,2.142c-3.06,0.306-5.508,0.306-8.262,0.612c2.448-24.174,5.508-48.348,10.098-72.521
		c10.71,17.442,20.502,35.802,32.437,52.632C380.812,78.865,376.835,78.865,372.857,78.252z"/>
</g>
<g>
</g>
<g>
</g>
<g>
</g>
<g>
</g>
<g>
</g>
<g>
</g>
<g>
</g>
<g>
</g>
<g>
</g>
<g>
</g>
<g>
</g>
<g>
</g>
<g>
</g>
<g>
</g>
<g>
</g>
</svg>
