<?xml version="1.0" encoding="iso-8859-1"?>
<!-- Generator: Adobe Illustrator 18.0.0, SVG Export Plug-In . SVG Version: 6.00 Build 0)  -->
<!DOCTYPE svg PUBLIC "-//W3C//DTD SVG 1.1//EN" "http://www.w3.org/Graphics/SVG/1.1/DTD/svg11.dtd">
<svg version="1.1" id="Capa_1" xmlns="http://www.w3.org/2000/svg" xmlns:xlink="http://www.w3.org/1999/xlink" x="0px" y="0px"
	 viewBox="0 0 263.09 263.09" style="enable-background:new 0 0 263.09 263.09;" xml:space="preserve">
<g>
	<path d="M39.713,41.102c-0.11,0.045-0.209,0.11-0.318,0.156c-9.736,0.971-19.083,13.16-21.374,21.332
		c-1.146,4.09-0.698,9.781,4.2,10.984c5.709,1.402,12.675-4.827,16.356-8.538c4.563-4.601,9.059-11.084,9.7-17.687
		C48.868,41.26,45.24,38.843,39.713,41.102z"/>
	<path d="M57.722,215.208c-3.409-1.007-8.451-1.037-10.664,2.319c-0.193,0.294-0.314,0.624-0.461,0.942
		c-0.077-0.03-0.118-0.047-0.204-0.081c-1.033-0.409-2.206,0.629-2.172,1.654c0.335,10.048,5.816,19.134,14.661,24.03
		c6.42,3.554,20.226,5.577,19.818-5.641C78.35,228.846,66.388,217.767,57.722,215.208z"/>
	<path d="M249.37,82.935c-0.943-4.813-3.992-11.405-8.196-14.234c-1.661-1.117-3.273-1.29-4.684-0.843
		c-0.588-0.646-1.149-1.168-1.974-1.6c-1.124-0.589-2.427-0.07-2.813,1.145c-1.62,5.081-1.106,10.644,1.044,15.504
		c1.702,3.846,5.372,9.735,10.126,10.01C248.294,93.231,250.222,87.285,249.37,82.935z"/>
	<path d="M248.608,186.041c4.599-7.182,9.267-17.762,1.124-18.281c-0.683-0.044-1.393,0.04-2.11,0.178
		c-7.547-2.404-15.847,10.902-17.616,16.472c-1.186,3.738-2.564,9.59,1.738,11.869c4.347,2.303,9.146-1.272,12.213-4.112
		c0.348-0.322,0.817-0.855,1.333-1.484C246.603,189.342,247.703,187.761,248.608,186.041z"/>
	<path d="M256.579,157.288c9.538-20.4,8.157-44.678-1.278-64.869c-0.159-0.34-0.387-0.527-0.634-0.649
		c7.947-13.266-8.25-35.467-21.727-34.897c-0.023-0.05-0.02-0.098-0.048-0.149C216.127,26.801,181.825,6.503,147.72,3.429
		c-22.812-2.056-83.169,0.176-92.383,27.953c0.114-0.343-0.367-0.62-0.609-0.354c-0.381,0.417-0.762,0.835-1.142,1.252
		c-9.019-7.034-24.33,0.13-31.427,8.354c-10.02,11.614-16.673,27.465-7.227,38.403c-31.094,42.441-9.007,104.244,24.067,138.538
		c-4.972,8.272,2.321,21.71,9.337,27.624c6.195,5.222,24.525,14.447,32.437,8.065c56.077,16.42,122.655,5.051,155.386-47.207
		c0.273-0.436,0.308-0.856,0.217-1.23c8.89-0.25,16.799-8.195,20.849-17.641C261.548,177.105,267.122,161.793,256.579,157.288z
		 M253.019,187.779c-5.41,11.39-16.646,18.281-28.324,10.182c-0.898-0.623-1.974,0.78-1.167,1.513
		c3.156,2.869,6.351,4.44,9.476,5.05c-34.561,52.344-94.13,56.748-150.703,47.091c1.036-1.438,1.768-3.305,2.049-5.754
		c0.161-1.404-2.149-2.034-2.714-0.735c-8.818,20.247-58.981-12.075-34.91-31.614c0.598-0.485-0.045-1.55-0.755-1.296
		c-2.035,0.73-3.65,1.688-4.917,2.816c-34.759-37.53-47.499-87.57-24.867-134.62c1.711,1.658,3.814,3.192,6.408,4.548
		c0.523,0.273,1.127-0.417,0.655-0.849c-5.274-4.822-9.937-9.854-10.455-17.464c-0.482-7.077,4.878-14.964,8.907-20.349
		c8.257-11.036,23.56-20.316,34.156-6.299c0.855,1.13,3.211,0.531,2.555-1.077c-0.846-2.076-1.908-3.76-3.132-5.107
		c45.188-47.973,141.566-30.892,173.828,23.897c-1.711,0.716-3.327,1.896-4.777,3.631c-0.843,1.008,0.275,2.868,1.523,1.974
		c18.073-12.939,40.405,24.022,18.628,34.003c-0.971,0.445-0.279,2.116,0.733,1.739c3.286-1.224,5.735-2.889,7.55-4.824
		c8.777,20.955,8.273,41.01,1.753,62.389c-1.242-0.315-2.589-0.556-4.186-0.623c-1.735-0.073-2.196,2.84-0.419,3.092
		C264.584,161.176,257.01,179.375,253.019,187.779z"/>
	<path d="M151.817,57.092c-2.675-9.592-11.279-12.456-18.27-9.633c-1.871,0.599-3.514,1.804-4.934,3.329
		c-0.362,0.364-0.708,0.746-1.039,1.154c-0.006,0.008-0.013,0.017-0.02,0.026c-0.521,0.646-0.996,1.348-1.427,2.103
		c-0.028,0.047-0.049,0.097-0.077,0.144c-0.272,0.489-0.553,0.968-0.783,1.5c-0.861,1.749-1.519,3.551-1.894,5.213
		c-1.482,6.562,0.62,13.433,6.043,17.535c5.211,3.941,12.387,4.351,17.512,0.037C153.034,73.36,153.845,64.364,151.817,57.092z"/>
	<path d="M140.276,34.749c-11.169,1.408-18.295,10.575-21.733,20.567c-0.163,0.472,0.616,0.812,0.816,0.344
		c3.256-7.629,8.411-14.8,16.689-17.435c10.153-3.231,18.62,1.863,21.976,11.489c0.409,1.174,2.415,1.089,2.308-0.312
		C159.579,39.562,149.571,33.577,140.276,34.749z"/>
	<path d="M153.521,80.146c-5.536,5.753-11.233,9.61-19.606,7.104c-7.612-2.278-15.603-11.213-15.878-19.335
		c-0.028-0.82-1.223-0.813-1.269,0c-0.529,9.306,7.812,19.327,16.358,22.196c7.747,2.601,19.81-0.084,22.437-8.777
		C155.915,80.169,154.361,79.274,153.521,80.146z"/>
	<path d="M155.372,171.882c-7.154-7.264-19.475-11.183-29.111-6.699c-10.414,4.846-5.845,16.007,2.73,23.487
		c6.508,6.746,16.631,11.743,25.504,6.601C163.814,189.869,162.097,178.711,155.372,171.882z"/>
	<path d="M138.826,157.203c-9.314-3.385-21.492,0.127-24.369,10.494c-2.723,9.809,1.712,21.981,10.533,27.043
		c0.646,0.371,1.451-0.577,0.826-1.07c-6.264-4.942-9.561-12.612-9.566-20.544c-0.009-12.597,11.58-15.701,21.957-13.679
		C139.683,159.733,140.235,157.715,138.826,157.203z"/>
	<path d="M152.41,201.254c-7.067-0.519-13.475,1.031-19.782-3.263c-0.557-0.38-1.128,0.442-0.697,0.904
		c4.97,5.335,14.001,6.163,20.761,4.435C153.897,203.023,153.559,201.339,152.41,201.254z"/>
	<path d="M155.889,159.495c-1.522-0.572-2.3,1.698-1.059,2.512c12.871,8.445,15.736,23.617,3.582,34.552
		c-0.697,0.627,0.219,1.839,1.011,1.31C173.37,188.546,172.476,165.733,155.889,159.495z"/>
	<path d="M54.536,122.888c-1.508,0.166-2.772,0.828-3.828,1.801c-1.16,0.111-2.388,0.982-3.171,2.04
		c-2.526,3.41-3.527,8.769-2.91,12.903c0.594,3.978,2.977,8.211,7.12,9.299c4.239,1.114,6.936-2.083,8.629-5.539
		C63.007,138.019,64.656,121.773,54.536,122.888z"/>
	<path d="M58.532,116.221c-5.441-1.519-11.662,1.288-15.12,5.533c-4.447,5.459-3.924,12.932-2.652,19.424
		c0.116,0.588,1.055,0.45,1.039-0.14c-0.158-5.884-0.959-12.406,2.757-17.439c3.42-4.632,8.326-5.58,13.719-5.486
		C59.368,118.133,59.576,116.513,58.532,116.221z"/>
	<path d="M70.657,126.417c-0.479-1.418-2.628-1.212-2.654,0.359c-0.124,7.533,0.827,16.482-5.168,22.313
		c-4.752,4.623-12.875,3.748-17.258-0.835c-0.486-0.508-1.424,0.173-0.996,0.769c4.13,5.747,12.126,7.77,18.353,4.035
		C70.85,148.31,73.416,134.589,70.657,126.417z"/>
</g>
<g>
</g>
<g>
</g>
<g>
</g>
<g>
</g>
<g>
</g>
<g>
</g>
<g>
</g>
<g>
</g>
<g>
</g>
<g>
</g>
<g>
</g>
<g>
</g>
<g>
</g>
<g>
</g>
<g>
</g>
</svg>
