<?xml version="1.0" encoding="iso-8859-1"?>
<!-- Generator: Adobe Illustrator 18.0.0, SVG Export Plug-In . SVG Version: 6.00 Build 0)  -->
<!DOCTYPE svg PUBLIC "-//W3C//DTD SVG 1.1//EN" "http://www.w3.org/Graphics/SVG/1.1/DTD/svg11.dtd">
<svg version="1.1" id="Capa_1" xmlns="http://www.w3.org/2000/svg" xmlns:xlink="http://www.w3.org/1999/xlink" x="0px" y="0px"
	 viewBox="0 0 228.274 228.274" style="enable-background:new 0 0 228.274 228.274;" xml:space="preserve">
<g>
	<path d="M208.156,55.104c-15.936-19.949-43.852-28.834-68.045-32.73C94.224,14.983,27.659,25.947,5.823,73.172
		c-13.901,30.063-3.983,102.848,41.343,96.325c-1.228,1.608-2.255,3.497-2.47,3.923c-2.41,4.77-4.011,10.845-0.486,15.542
		c3.011,4.011,8.457,4.331,12.644,2.025c0.571-0.314,1.108-0.689,1.627-1.092c-0.413,4.768,1.052,9.189,6.208,10.948
		c5.532,1.888,10.035-0.687,13.254-4.747c0.092,1.283,0.328,2.564,0.799,3.832c1.377,3.705,4.717,7.038,8.79,7.432
		c5.739,0.555,9.562-3.781,11.625-9.091c1.91,5.968,6.121,10.76,13.378,9.545c5.135-0.86,7.704-5.152,8.579-9.966
		c0.443-2.442,0.472-4.952-0.169-7.362c-0.269-1.01-0.795-1.88-1.367-2.72c44.858,15.733,98.452-6.367,107.509-56.524
		C231.433,107.173,223.559,74.387,208.156,55.104z M223.153,130.158c-8.83,50.063-63.066,69.239-106.645,52.135
		c-0.06-0.024-0.108-0.011-0.166-0.029c-1.058-1.186-3.469-0.245-3.022,1.667c0.728,3.114,3.567,4.921,4.204,8.153
		c0.784,3.972-0.335,10.28-4.606,11.788c-8.095,2.857-10.888-6.182-12.038-13.013c0.178-1.94,0.144-3.784-0.113-5.341
		c-0.237-1.434-2.61-1.408-2.87,0c-1.027,5.566-1.096,15.399-7.768,17.665c-4.395,1.493-7.768-2.717-8.548-6.586
		c-0.518-2.572-0.146-5.274,0.4-7.914c0.522-1.446,0.928-2.884,1.183-4.232c0.404-2.139-2.422-2.864-3.215-0.886
		c-2.219,5.537-4.789,14.74-12.534,14.139c-6.48-0.504-6.324-6.975-4.808-12.7c1.237-2.161,2.088-4.563,2.505-6.908
		c0.027-0.058,0.058-0.131,0.085-0.187c0.142-0.301,0.138-0.575,0.052-0.806c0.035-0.277,0.093-0.56,0.115-0.834
		c0.114-1.377-1.89-1.796-2.527-0.685c-2.695,4.701-5.093,15.226-12.906,12.926c-4.249-1.251-4.419-6.354-3.52-9.871
		c0.164-0.643,4.069-8.942,3.685-9.238c0.864,0.665,1.749-0.573,1.361-1.361c-0.027-0.055-0.059-0.083-0.087-0.132
		c0.015-0.561-0.305-1.134-0.975-1.08C-7.107,171.512-6.459,81.679,24.562,53.652c32.273-29.159,83.713-34.804,124.672-25.574
		c21.79,4.911,46.624,14.469,59.16,34.17C220.041,80.555,226.925,108.774,223.153,130.158z"/>
	<path d="M89.883,153.914c-5.247-1.619-8.671,1.923-10.558,6.206c-0.406,0.641-0.767,1.283-1.078,1.864
		c-1.32,2.466-1.888,5.456,0.279,7.611c1.183,1.176,3.1,0.575,3.59-0.948c0.129-0.399,0.243-0.798,0.357-1.198
		c0.331-0.192,0.639-0.455,0.866-0.895c0.925-1.796,2.086-3.351,3.375-4.807c1.001,2.714,2.096,5.39,3.395,7.985
		c0.64,1.28,2.799,1.633,3.738,0.482C97.371,165.892,95.74,155.72,89.883,153.914z"/>
	<path d="M55.127,122.562c-0.084,0.052-0.169,0.106-0.253,0.158c0.24-1.019-0.166-2.261-1.093-2.707
		c-0.429-0.284-0.859-0.568-1.288-0.852c-0.451-0.431-0.942-0.594-1.425-0.633c-0.723-0.863-1.908-1.328-2.965-0.561
		c-2.226,1.615-4.408,3.276-6.563,4.967c-1.915-2.467-3.866-4.901-5.861-7.254c-1.083-1.278-3.299,0.411-2.337,1.803
		c0.068,0.099,0.132,0.2,0.2,0.299c-0.158,0.097-0.324,0.183-0.446,0.328c-1.672-0.073-3.318,1.793-2.254,3.568
		c1.353,2.258,2.859,4.411,4.354,6.57c-1.889,1.512-3.773,3.029-5.642,4.564c-0.51,0.306-1.005,0.675-1.477,1.195
		c-1.573,1.732,0.387,4.895,2.461,3.798c0.125,0.045,0.19,0.15,0.335,0.173c0.159,0.025,0.309,0.019,0.464,0.035
		c0.068,0.129,0.079,0.232,0.168,0.378c0.53,0.86,1.622,1.362,2.618,1.065c2.45-0.731,4.91-1.783,7.347-2.994
		c0.755,0.961,1.491,1.938,2.309,2.851c0.89,0.993,2.23,0.798,3.131,0.086c0.757,0.184,1.577-0.106,2.19-0.622
		c1.235-0.349,2.206-1.701,1.441-3.232c-0.384-0.784-0.78-1.561-1.19-2.332c-0.191-0.367-0.469-0.582-0.77-0.734
		c3.119-1.924,6.133-3.952,8.942-5.816C60.049,124.984,57.745,120.937,55.127,122.562z"/>
	<path d="M137.748,122.989c-0.336,0.288-0.691,0.549-1.029,0.836c-0.32-1.386-1.945-2.457-3.54-1.669
		c-3.758,1.858-7.243,4.091-10.434,6.655c-2.307-3.096-4.662-6.159-7.129-9.145c-1.702-2.059-5.343,0.702-3.736,2.883
		c0.312,0.423,0.617,0.855,0.928,1.28c-0.007,0.108-0.016,0.212,0.001,0.326c-0.207,0.039-0.412,0.086-0.601,0.175
		c-1.912-1.302-4.539,1.676-2.84,3.873c1.967,2.543,3.915,5.228,5.874,7.938c-2.272,2.661-4.339,5.523-6.129,8.618
		c-0.752,1.3-0.01,2.831,1.16,3.396c0.071,0.044,0.149,0.07,0.228,0.102c-0.096,0.086-0.197,0.167-0.293,0.254
		c-1.289,1.161-0.455,3.155,1.019,3.566c0.468,1.435,2.486,2.516,4.082,1.244c2.675-2.132,5.32-4.299,7.938-6.498
		c3.245,4.017,6.699,7.787,10.578,10.906c1.594,1.282,4.333,0.051,4.203-1.759c1.431-0.254,2.729-1.914,1.752-3.392
		c-2.793-4.23-5.772-8.356-8.798-12.453c0.223-0.195,0.45-0.384,0.67-0.582c2.626-2.353,8.492-5.784,8.219-9.835
		c0.238-0.376,0.517-0.713,0.737-1.104c0.409-0.728,0.392-1.414,0.155-1.996c0.106-0.093,0.218-0.181,0.324-0.275
		C143.383,124.307,140.04,121.024,137.748,122.989z"/>
</g>
<g>
</g>
<g>
</g>
<g>
</g>
<g>
</g>
<g>
</g>
<g>
</g>
<g>
</g>
<g>
</g>
<g>
</g>
<g>
</g>
<g>
</g>
<g>
</g>
<g>
</g>
<g>
</g>
<g>
</g>
</svg>
