<?xml version="1.0" encoding="iso-8859-1"?>
<!-- Generator: Adobe Illustrator 18.0.0, SVG Export Plug-In . SVG Version: 6.00 Build 0)  -->
<!DOCTYPE svg PUBLIC "-//W3C//DTD SVG 1.1//EN" "http://www.w3.org/Graphics/SVG/1.1/DTD/svg11.dtd">
<svg version="1.1" id="Capa_1" xmlns="http://www.w3.org/2000/svg" xmlns:xlink="http://www.w3.org/1999/xlink" x="0px" y="0px"
	 viewBox="0 0 260.687 260.687" style="enable-background:new 0 0 260.687 260.687;" xml:space="preserve">
<g>
	<path d="M260.536,129.595c0.959-6.913-2.726-15.451-8.941-19.23c12.546-12.31,8.663-34.437-11.509-37.236
		c-12.275-1.703-24.321,5.284-33.922,12.075c-4.688,3.316-12.186,8.078-16.425,13.743c-8.119-26.659-39.518-27.622-70.063-27.191
		c-6.077,0.086-13.151-0.038-20.055,0.701c-1.722-0.013-3.472,0.298-5.206,0.78c-6.839,1.302-13.212,3.786-17.823,8.833
		c-2.551,2.792-4.54,6.169-6.167,9.863C55.893,78.745,28.173,57.477,9.779,71.568C-3.237,81.539,4.24,97.924,16.673,103.5
		c-8.002,1.068-15.668,9.496-16.557,16.932c-0.988,8.268,4.451,16.84,12.073,19.435c-11.109,5.61-15.274,28.577-4.885,36.445
		c16.801,12.726,43.28-6.196,55.641-20.403c1.047,6.759,3.114,13.173,6.634,18.728c10.746,16.965,32.804,18.354,50.858,18.842
		c17.579,0.476,44.881,1.757,59.17-10.707c7.275-6.345,10.326-14.792,11.512-23.943c15.445,13.841,41.068,25.812,60.326,16.696
		c14.626-6.924,9.176-24.96-2.392-31.555C254.941,141.542,259.589,136.432,260.536,129.595z M65.726,109.119
		c-1.832-0.443-3.7-0.831-5.412-1.564c-3.241-1.386-6.025-3.287-8.862-5.355c-0.91-0.663-1.683,0.693-1.103,1.43
		c3.092,3.94,9.103,8.607,14.815,9.9c-0.325,2.844-0.587,5.695-0.734,8.523c-0.079,0.001-0.141-0.031-0.224-0.021
		c-13.042,1.671-25.229,1.292-37.858-2.725c-1.785-0.567-2.384,2.053-0.754,2.732c12.063,5.019,25.193,6.997,38.115,4.796
		c-0.458,2.678-0.802,5.414-1.079,8.163c-7.117,1.032-14.856,6.465-19.022,10.964c-1.626,1.756,0.812,4.124,2.6,2.6
		c3.527-3.008,7.308-5.481,11.711-7.011c1.404-0.487,2.855-0.763,4.307-1.022c-0.142,3.12-0.173,6.243,0.032,9.33
		c-8.472,6.156-15.782,13.733-24.951,19.032c-5.862,3.386-14.111,7.638-21.213,5.307c-15.495-5.086-10.023-32.704,5.11-32.725
		c1.277-0.002,1.434-1.756,0.292-2.153c-0.501-0.174-0.972-0.207-1.461-0.318c-0.112-0.152-0.256-0.282-0.444-0.346
		c-7.991-2.727-16.24-9.808-13.505-19.249c2.501-8.637,9.939-9.183,17.2-10.824c1.775-0.401,2.079-3.025,0.507-3.884
		c-0.058-0.032-0.12-0.029-0.179-0.06c0.457-0.621,0.404-1.571-0.59-1.952C12.76,98.76-3.562,81.677,18.229,73.346
		c6.396-2.445,16.217,1.663,21.693,4.33c10.465,5.097,19.776,12.041,28.453,19.741C67.202,101.137,66.352,105.088,65.726,109.119z
		 M185.797,153.575c0.184,0.205,0.4,0.41,0.59,0.614c-0.397,4.361-1.252,8.395-3.02,11.665
		c-11.624,21.491-37.587,21.891-58.68,21.808c-19.684-0.077-37.044-0.526-48.197-18.094c-6.338-9.984-8.066-20.11-8.061-30.589
		c0.076-0.031,0.157-0.044,0.232-0.077c1.526-0.667,1.114-2.793-0.147-3.498c0.193-5.56,0.742-11.215,1.323-17.02
		c0.288-1.82,0.629-3.623,0.961-5.429c0.158-0.315,0.214-0.646,0.177-1.005c0.612-3.224,1.291-6.424,2.157-9.547
		c1.256-4.525,2.923-8.164,4.923-11.157c0.075,1.741,0.33,3.467,0.917,5.01c1.369,3.6,3.929,6.232,7.02,7.898
		c-1.205,2.451-0.855,5.564,1.635,7.565c1.068,0.859,2.759,1.431,4.023,0.519c1.354-0.976,2.17-2.264,2.722-3.681
		c0.739,1.552,1.813,2.994,3.387,4.147c1.633,1.195,4.583,0.012,4.91-1.997c0.302-1.847,0.15-3.573-0.328-5.233
		c1.531,1.801,3.877,2.94,6.426,3.08c2.162,0.119,3.318-2.061,2.981-3.913c-0.403-2.221-1.637-4.189-3.327-5.59
		c4.432-6.048,5.584-14.883,1.393-21.178c1.662-0.098,3.346-0.184,5.08-0.253c31.129-1.256,72.973-1.94,71.1,40.446
		c-0.15,0.317-0.265,0.667-0.293,1.076c-0.382,5.585,0.225,12.606,0.627,19.74c-1.031,0.26-1.231,2.046-0.021,2.245
		c0.051,0.008,0.097,0.025,0.148,0.033c0.159,3.36,0.256,6.71,0.126,9.932C185.588,151.356,184.884,152.562,185.797,153.575z
		 M241.948,141.672c-0.615-0.068-1.221-0.171-1.848-0.171c-0.446,0-0.831,0.179-1.138,0.45c-0.216,0.001-0.43,0.044-0.646,0.037
		c-1.839-0.06-2.328,2.966-0.444,3.279c0.747,0.124,1.495,0.114,2.245,0.153c1.83,0.861,3.654,1.736,5.458,2.65
		c9.567,5.678,9.661,13.302,0.286,22.872c-5.92,2.4-16.114,0.542-21.96-0.69c-12.112-2.554-22.85-8.253-32.333-15.958
		c0.262-3.881,0.248-7.834,0.165-11.773c8.695,2.907,15.309,8.986,20.316,17.056c1.297,2.09,4.201,0.27,3.233-1.889
		c-4.283-9.556-13.561-15.828-23.602-18.09c-0.14-4.634-0.357-9.217-0.393-13.595c5.576,1.898,13.824,0.779,17.106-3.139
		c0.843-1.007,0.032-2.314-1.23-2.114c-3.341,0.529-6.244,2.207-9.687,2.519c-2.118,0.191-4.135-0.206-6.168-0.469
		c0.016-0.853-0.021-1.758,0.018-2.589c0.156-0.321,0.271-0.678,0.299-1.095c0.115-1.658,0.062-3.132,0.074-4.677
		c5.765,0.372,11.505-1.584,15.785-5.544c1.272-1.177-0.381-3.345-1.86-2.41c-4.416,2.792-8.92,4.236-13.874,4.698
		c-0.106-2.66-0.36-5.16-0.778-7.478c6.102-8.672,19.235-15.792,27.546-19.971c7.045-3.542,15.648-6.996,23.649-4.41
		c17.221,5.566,11.61,20.154,3.37,29.074c-0.019-0.001-0.037-0.01-0.056-0.011c-1.421-0.067-2.061,1.033-2.046,2.171
		c-1.842,1.933,0.725,5.11,3.074,3.742c0.067-0.039,0.12-0.088,0.186-0.127c4.715,3.391,8.657,7.137,8.358,13.829
		C254.726,135.311,248.692,140.439,241.948,141.672z"/>
	<path d="M155.801,94.434c-0.458-0.055-0.871,0.02-1.316,0.005c-12.479-4.039-32.814,26.653-10.232,33.886
		c0.033,0.011,0.069,0.011,0.102,0.022c-0.588,1.164-0.634,2.455-0.012,3.809c-0.172,0.528-0.346,1.05-0.513,1.609
		c-0.966,3.24,3.445,5.943,5.781,3.365c0.115-0.126,0.18-0.266,0.288-0.395c0.011,0.071,0.013,0.15,0.025,0.22
		c0.039-0.017,0.079-0.033,0.118-0.05c0.849,2.962,6.194,3.346,6.277-0.816c0.019-0.992,0.098-1.996,0.176-3.001
		c0.72,0.808,1.449,1.614,2.385,2.254c2.517,1.721,5.314-0.638,5.55-3.185c0.225-2.427-0.455-5.201-1.885-7.319
		c2.809-2.162,5.057-5.023,6.208-8.471C172.006,106.628,166.36,95.707,155.801,94.434z"/>
	<path d="M138.633,162.626c-3.083-1.99-6.686-3.408-10.373-3.801c0.211-5.898-1.867-11.678-7.073-14.913
		c-6.945-4.315-14.992-1.067-20.189,4.712c-4.58,4.445-7.723,11.142-7.272,16.162c1.053,11.738,13.776,16.562,23.459,12.297
		c1.183,3.606,3.967,5.648,7.506,7.139c2.543,1.071,4.696-1.942,4.172-4.172c-0.23-0.981-0.594-1.91-1.015-2.811
		c1.538,0.377,3.092,0.598,4.599,0.44c2.377-0.249,4.957-3.009,3.122-5.438c-0.491-0.65-1.079-1.309-1.731-1.933
		c1.749-0.229,3.435-0.793,4.796-1.765C140.746,167.034,140.92,164.102,138.633,162.626z"/>
</g>
<g>
</g>
<g>
</g>
<g>
</g>
<g>
</g>
<g>
</g>
<g>
</g>
<g>
</g>
<g>
</g>
<g>
</g>
<g>
</g>
<g>
</g>
<g>
</g>
<g>
</g>
<g>
</g>
<g>
</g>
</svg>
