<?xml version="1.0" encoding="iso-8859-1"?>
<!-- Generator: Adobe Illustrator 18.0.0, SVG Export Plug-In . SVG Version: 6.00 Build 0)  -->
<!DOCTYPE svg PUBLIC "-//W3C//DTD SVG 1.1//EN" "http://www.w3.org/Graphics/SVG/1.1/DTD/svg11.dtd">
<svg version="1.1" id="Capa_1" xmlns="http://www.w3.org/2000/svg" xmlns:xlink="http://www.w3.org/1999/xlink" x="0px" y="0px"
	 viewBox="0 0 246.148 246.148" style="enable-background:new 0 0 246.148 246.148;" xml:space="preserve">
<g>
	<path d="M246.143,126.493c0.193-7.188-5.569-12.291-12.046-14.396c11.503-6.217,14.62-23.731,3.417-32.671
		c-11.013-8.789-28.144-0.317-34.916,10.975c-0.391-2.339-0.812-4.66-1.321-6.922c-2.271-10.086-8.376-17.013-17.791-18.181
		c-0.128-0.642-0.588-1.222-1.423-1.265c-22.27-1.136-44.528-1.27-66.794,0.021c-17.342,1.006-40.416,0.231-57.034,6.416
		c-9.162,3.41-13.875,12.286-16.08,22.896c-7.71-9.013-23.432-15.354-33.3-7.081c-4.918,4.123-5.286,12.875-2.35,18.284
		c1.993,3.672,5.589,5.925,9.542,6.998c-6.352,1.617-11.287,7.545-10.863,14.656c0.295,4.966,4.555,10.63,9.618,12.315
		c-11.257,4.294-20.365,17.262-10.76,28.034c11.109,12.458,30.851,0.646,39.414-10.873c1.634,7.472,4.714,14.235,10.27,18.606
		c13.995,11.011,41.027,7.678,57.432,7.889c23.137,0.298,53.083,3.008,75.47-3.419c13.573-3.897,16.498-15.067,17.316-27.929
		c0.004-0.005,0.003-0.014,0.007-0.02c5.876,11.085,20.356,20.85,32.343,14.199c5.112-2.836,8.1-8.318,6.673-14.115
		c-1.38-5.604-5.873-9.309-10.968-11.495C239.098,138.76,245.927,134.517,246.143,126.493z M14.875,167.469
		c-9.428-0.65-13.694-10.414-9.388-18.31c3.485-6.39,10.254-8.399,16.639-10.51c0.668-0.221,0.714-1.081,0.237-1.426
		c0.026-0.366-0.142-0.742-0.549-0.832c-5.942-1.311-12.373-2.22-13.247-9.729c-1.029-8.838,6.705-12.603,14.328-12.617
		c1.02-0.002,1.434-1.107,1.051-1.841c1.69-0.184,1.694-2.454-0.002-2.637c-6.436-0.691-12.431-1.866-15.369-8.542
		c-3.694-8.391,3.668-14.559,11.233-14.868c8.64-0.354,16.213,3.848,21.799,10.061c-0.381,2.346-0.639,4.759-0.819,7.199
		c-3.014-0.933-5.987-1.671-8.856-3.167c-3.234-1.686-6.043-3.919-8.631-6.473c-0.831-0.819-2.006,0.4-1.266,1.265
		c4.548,5.318,11.477,10.223,18.627,11.183c-0.269,5.844-0.119,11.763,0.306,17.285c-2.658,0.174-5.282,0.729-7.947,0.931
		c-2.941,0.223-5.787,0.124-8.728-0.048c-0.871-0.051-1.074,1.358-0.208,1.535c5.278,1.079,11.8,1.776,17.107,0.188
		c0.207,2.272,0.437,4.484,0.69,6.543c-0.09,2.621-0.101,5.384-0.03,8.184c-4.874,2.253-9.274,5.989-12.494,10.206
		c-0.533,0.698,0.604,1.529,1.198,0.925c3.462-3.52,7.183-5.967,11.413-8.16c0.157,2.959,0.422,5.938,0.905,8.848
		C36.146,160.937,25.907,168.231,14.875,167.469z M201.251,149.008c-0.142,0.206-0.255,0.441-0.289,0.734
		c-2.33,19.962-10.718,24.134-28.809,26.814c-4.967,0.736-10.223,0.686-15.237,0.962c-13.969,0.771-27.956,1.239-41.947,1.179
		c-12.355-0.053-25.896,0.656-38.071-1.608c-26.69-4.964-30.927-20.595-32.258-39.708c-0.08-11.434-0.465-22.821,0.578-34.246
		c1.266-13.858,6.248-24.095,19.629-30.888c5.591-2.838,23.333-2.976,30.821-3.667c28.113-2.596,56.296-2.905,84.48-1.544
		c18.988,5.449,19.222,27.601,20.381,44.198C201.41,123.841,201.696,136.386,201.251,149.008z M227.563,137.16
		c-0.412-0.002-0.676,0.26-0.857,0.576c-1.306-0.109-2.2,1.8-0.841,2.452c4.038,1.938,8.356,3.563,11.226,7.15
		c7.433,9.286-2.285,17.102-11.238,16.026c-9.747-1.171-16.599-8.319-21.486-16.251c0.161-3.175,0.28-6.449,0.388-9.73
		c2.683,1.882,5.213,3.939,7.362,6.441c2.493,2.904,4.128,6.224,6.043,9.501c0.627,1.073,2.352,0.365,2.014-0.849
		c-2.035-7.314-8.575-13.649-15.349-16.869c0.124-4.285,0.194-8.623,0.169-12.987c5.379,1.686,11.232,1.685,16.354-0.883
		c1.061-0.532,0.323-2.309-0.813-1.928c-5.219,1.748-10.199,2.419-15.544,1.055c-0.06-5.261-0.285-10.526-0.683-15.73
		c7.275-1.662,14.653-6.207,17.969-13.044c0.506-1.043-0.895-2.376-1.731-1.335c-4.612,5.744-9.406,10.182-16.398,12.484
		c-0.277-3.206-0.604-6.393-1.053-9.518c5.724-8.157,14.818-15.955,25.395-14.49c7.219,1,11.846,6.672,12.41,13.882
		c0.71,9.083-4.88,14.803-12.549,17.938c-0.144-0.006-0.29-0.023-0.434-0.026c-1.665-0.03-1.957,2.409-0.388,2.868
		c0.037,0.011,0.076,0.022,0.114,0.033c0.125,0.055,0.255,0.099,0.405,0.117c5.857,1.688,13.077,3.466,14.255,10.557
		C243.739,133.237,234.732,137.194,227.563,137.16z"/>
	<path d="M85.268,98.764c-6.636-4.645-13.49-9.006-20.232-13.494c-1.468-0.977-3.733,0.297-3.614,2.073
		c0.426,6.311,1.446,12.461,3.122,18.563c0.221,0.806,0.73,1.279,1.327,1.513c0.104,0.066,0.151,0.182,0.284,0.217
		c7.247,1.891,18.54,4.358,25.915,2.153c0.699-0.209,1.472-0.821,1.592-1.592C94.326,103.967,88.213,100.826,85.268,98.764z"/>
	<path d="M186.621,82.797c-0.048-1.835-1.972-2.912-3.574-2.051c-11.392,6.128-23.133,12.686-32.917,21.232
		c-0.561,0.491-0.626,1.124-0.408,1.67c-0.641,0.801-0.48,2.216,0.749,2.563c10.276,2.906,21.899,2.908,32.444,1.866
		c-0.008-0.028-0.016-0.056-0.023-0.084c1.429-0.021,2.207-1.205,2.24-2.365c0.345-0.262,0.617-0.633,0.7-1.184
		C186.903,97.314,186.805,89.991,186.621,82.797z"/>
	<path d="M186.406,129.972c-0.012-0.084-0.07-0.143-0.114-0.211c-0.081-0.681-0.644-1.304-1.515-1.074
		c-41.874,11.023-79.672,10.108-121.239-1.78c-0.555-0.159-0.883,0.219-0.937,0.649c-0.254,0.149-0.452,0.37-0.406,0.743
		c0.633,5.146,1.656,10.258,2.8,15.312c0.98,4.329,1.694,9.964,4.09,13.755c0.354,0.56,0.937,0.753,1.567,0.637
		c3.098-0.568,3.99-5.614,5.168-7.998c1.692-3.429,3.596-6.733,5.583-9.991c-0.139,3.452,1.357,6.775,5.259,7.769
		c3.577,0.91,6.439-1.494,8.242-4.555c0.549,2.994,2.334,5.541,5.971,5.798c2.557,0.18,4.474-1.413,5.75-3.486
		c0.361-0.587,0.722-1.238,1.068-1.912c0.355,3.469,2.098,6.665,6.173,6.849c3.866,0.174,6.384-3.221,7.203-6.85
		c1.054,2.568,3.571,4.568,6.562,4.757c3.258,0.205,6.715-1.93,8.239-4.892c0.97,2.556,3.487,4.512,6.554,4.525
		c2.637,0.012,5.096-1.235,6.669-3.336c0.382-0.51,0.719-1.118,1.018-1.757c0.314,1.479,0.958,2.861,2.177,4.005
		c1.991,1.868,5.042,2.699,7.698,2.052c2.406-0.586,4.458-2.829,5.435-5.368c2.023,3.375,4.046,6.749,6.071,10.123
		c1.568,2.613,2.804,6.571,5.838,7.732c0.792,0.303,1.583-0.344,1.833-1.041c2.06-5.743,3.957-11.518,5.357-17.462
		C185.456,138.975,187.013,134.111,186.406,129.972z M75.202,145.016c-1.091,2.066-2.128,4.158-3.104,6.281l-0.822,1.826
		c-0.731,2.282-0.974,2.471-0.729,0.567c-1.92-3.155-2.388-8.225-3.241-11.771c-1.044-4.343-1.905-8.735-3.03-13.057
		c5.671,2.089,11.461,3.862,17.331,5.358C79.321,137.731,77.16,141.308,75.202,145.016z M88.065,145.355
		c-4.992,0.115-4.855-5.782-4.123-9.431c0.136-0.208,0.256-0.425,0.393-0.633c0.076-0.116,0.098-0.228,0.137-0.342
		c3.324,0.789,6.675,1.471,10.042,2.073C94.007,140.13,91.879,145.267,88.065,145.355z M101.71,146.299
		c-2.18,0.468-4.158-1.438-4.841-3.295c-0.366-0.994-0.496-2.044-0.502-3.102c0.245-0.77,0.444-1.527,0.547-2.229
		c0.015-0.101-0.008-0.188-0.014-0.281c3.185,0.526,6.389,0.944,9.6,1.307C105.806,141.686,104.397,145.722,101.71,146.299z
		 M114.31,147.882c-4.532,0.575-5.385-4.95-5.162-8.421c0.026-0.163,0.081-0.326,0.098-0.488c3.214,0.316,6.443,0.466,9.671,0.621
		C118.125,142.651,118.428,147.359,114.31,147.882z M128.974,145.706c-3.978,0.707-6.554-2.382-6.593-5.95
		c3.844,0.117,7.689,0.097,11.532-0.013C133.295,142.541,132.403,145.097,128.974,145.706z M147.35,141.753
		c-0.714,1.64-2.071,2.933-3.841,3.356c-3.64,0.869-6.556-2.064-6.199-5.518c3.57-0.163,7.134-0.421,10.688-0.772
		C147.808,139.796,147.764,140.8,147.35,141.753z M162.62,142.237c-0.43,1.938-1.743,3.466-3.732,3.871
		c-1.779,0.362-3.815-0.218-5.097-1.512c-1.592-1.606-1.76-4.046-1.869-6.242c3.247-0.387,6.489-0.819,9.706-1.394
		c0.012,0.219,0.068,0.445,0.208,0.678c0.067,0.111,0.133,0.223,0.2,0.334C162.508,139.373,162.98,140.619,162.62,142.237z
		 M181.558,142.148c-1.328,5.236-2.869,10.411-4.627,15.517c-2.063-2.212-4.074-7.472-5.27-9.466c-2.369-3.95-4.737-7.9-7.106-11.85
		c6.579-1.284,13.086-2.869,19.46-4.845C182.598,134.675,182.317,139.154,181.558,142.148z"/>
</g>
<g>
</g>
<g>
</g>
<g>
</g>
<g>
</g>
<g>
</g>
<g>
</g>
<g>
</g>
<g>
</g>
<g>
</g>
<g>
</g>
<g>
</g>
<g>
</g>
<g>
</g>
<g>
</g>
<g>
</g>
</svg>
