<?xml version="1.0" encoding="iso-8859-1"?>
<!-- Generator: Adobe Illustrator 18.0.0, SVG Export Plug-In . SVG Version: 6.00 Build 0)  -->
<!DOCTYPE svg PUBLIC "-//W3C//DTD SVG 1.1//EN" "http://www.w3.org/Graphics/SVG/1.1/DTD/svg11.dtd">
<svg version="1.1" id="Capa_1" xmlns="http://www.w3.org/2000/svg" xmlns:xlink="http://www.w3.org/1999/xlink" x="0px" y="0px"
	 viewBox="0 0 194.915 194.915" style="enable-background:new 0 0 194.915 194.915;" xml:space="preserve">
<g>
	<path d="M170.742,15.498c0.095-1.501-1.896-2.747-3.164-1.816c-16.417,12.051-33.406,23.294-49.928,35.181
		c4.992-9.801,9.994-20.308,13.224-30.412c2.071-6.478-2.791-11.423-7.432-15.674c-0.198-0.181-0.457-0.235-0.721-0.229
		c-0.269-0.575-0.736-1.059-1.548-1.098c-19.631-0.944-39.619-2.212-59.249-0.863c-0.829,0.057-1.27,0.62-1.361,1.234
		c-0.387,0.363-0.629,0.882-0.485,1.542c3.71,16.994,7.073,35.483,13.931,51.663c-13.552-8.57-30.301-14.458-45.365-19.221
		c-1.59-0.502-2.396,1.231-1.78,2.383c-3.571,19.941-2.699,41.244-2.31,61.374c0.029,1.484,1.483,2.09,2.713,1.557
		c15.52-6.724,31.084-13.349,46.632-20.009c-8.953,34.712-11.532,72.219-13.879,107.801c-0.045,0.681,0.24,1.144,0.653,1.435
		c-0.179,0.667,0.058,1.454,0.864,1.6c22.044,4.001,45.044,3.418,67.271,1.405c1.085,0.748,3.009-0.178,2.789-1.88
		c0.116-0.181,0.222-0.368,0.336-0.55c0.033-0.014,0.073-0.02,0.104-0.036c0.262-0.139,0.524-0.277,0.785-0.416
		c1.008-0.534,1.116-1.473,0.752-2.239c0.26-0.459,0.496-0.932,0.748-1.396c2.212-3.506,4.034-7.147,5.594-11.055
		c0.002-0.004,0.004-0.009,0.006-0.013c0,0-0.001,0-0.001,0c0.068-0.17,0.145-0.33,0.212-0.501c0.107-0.275,0.144-0.539,0.125-0.788
		c0.67-1.863,1.11-3.706,1.153-5.476c0.071-2.952-1.868-6.409-2.843-9.124c-1.806-5.031-3.595-10.068-5.446-15.082
		c-0.096-0.26-0.243-0.456-0.395-0.644c-5.365-20.719-11.483-41.232-18.248-61.535c7.016,3.459,14.229,6.504,21.508,9.38
		c5.411,2.138,10.861,4.177,16.346,6.116c2.743,0.969,5.494,1.914,8.253,2.833c1.753,1.459,3.13,1.885,4.149,1.329
		c0.024,0.028,0.034,0.061,0.061,0.088c0.074,0.072,0.147,0.144,0.221,0.216c0.567,0.554,1.483,0.6,2.113,0.127
		c0.756,0.084,1.539-0.348,1.532-1.369c-0.004-0.497-0.036-0.995-0.041-1.493c0.638-0.161,1.167-0.668,1.172-1.579
		C169.967,70.59,168.994,43.173,170.742,15.498z M140.985,90.2c-10.816-4.057-21.368-8.766-32.171-12.845
		c-0.046-0.027-0.089-0.036-0.138-0.054l-0.015-0.006c-0.015-0.006-0.024,0.007-0.039,0.002c-0.229-0.067-0.456-0.059-0.682,0.039
		c-0.032,0.016-0.052,0.039-0.082,0.059c-0.387,0.208-0.702,0.591-0.624,1.149c5.206,37.249,12.811,74.573,20.431,111.423
		c-21.558,1.832-42.557,0.715-64.087-0.498c0.066-0.174,0.138-0.345,0.153-0.558c2.543-36.88,9.369-72.938,13.314-109.575
		c0.178-0.353,0.216-0.74,0.109-1.13c0.01-0.453-0.218-0.776-0.552-0.956c-0.564-0.591-1.429-0.926-2.364-0.518
		c-15.36,6.703-30.707,13.439-46.089,20.094c-0.139-19.069,1.599-38.254,1.042-57.269c15.621,5.991,30.772,13.596,46.5,19.099
		c1.044,0.366,1.571-0.803,1.157-1.598C73.755,39.087,67.49,21.421,63.525,3.559c18.747,1.057,37.589,0.79,56.361,1.652
		c-4.399,17.028-8.927,34.57-11.285,51.971c-0.065,0.475,0.162,0.8,0.454,1.027c0.106,0.649,0.64,1.216,1.382,0.903
		c16.97-7.154,34.943-15.917,50.446-26.154c0.051,0.857,0.093,1.716,0.179,2.565c0.105,1.035,0.065,1.839,0.385,2.566
		c1.33,20.207,2.233,40.479,4.097,60.633C157.901,95.078,148.871,93.158,140.985,90.2z"/>
</g>
<g>
</g>
<g>
</g>
<g>
</g>
<g>
</g>
<g>
</g>
<g>
</g>
<g>
</g>
<g>
</g>
<g>
</g>
<g>
</g>
<g>
</g>
<g>
</g>
<g>
</g>
<g>
</g>
<g>
</g>
</svg>
