<?xml version="1.0" encoding="iso-8859-1"?>
<!-- Generator: Adobe Illustrator 18.0.0, SVG Export Plug-In . SVG Version: 6.00 Build 0)  -->
<!DOCTYPE svg PUBLIC "-//W3C//DTD SVG 1.1//EN" "http://www.w3.org/Graphics/SVG/1.1/DTD/svg11.dtd">
<svg version="1.1" id="Capa_1" xmlns="http://www.w3.org/2000/svg" xmlns:xlink="http://www.w3.org/1999/xlink" x="0px" y="0px"
	 viewBox="0 0 230.17 230.17" style="enable-background:new 0 0 230.17 230.17;" xml:space="preserve">
<g>
	<path d="M174.524,80.059c8.273-20.654,8.398-43.86-9.57-59.349C147.167,5.378,117.682-2.728,94.773,0.831
		C73.672,4.108,53.437,19.087,48.508,40.693c-3.94,17.27,3.999,33.816,19.81,40.825c-3.062,1.469-5.158,4.689-4.462,8.234
		c0.5,2.547,2.883,5.144,5.535,5.589c-7.414,5.348-8.479,16.244-5.231,24.466c3.329,8.426,10.99,10.948,19.199,9.36
		c-1.769,2.519-1.508,6.137,0.324,8.721c1.324,1.867,4.831,4.629,7.912,5.302c-1.313,0.998-1.939,2.893-1.544,4.6
		c-2.061-0.169-4.13-0.257-6.208-0.258c-7.397-1.547-14.593-3.64-22.538-5.401c-0.196-0.14-0.387-0.244-0.587-0.391
		c-0.745-0.548-1.462-0.511-2.053-0.198c-0.385-0.079-0.734-0.174-1.123-0.251c-0.354-0.07-0.495,0.205-0.474,0.47
		c-0.441,0.127-0.804,0.395-1.099,0.737c-0.813,0.605-1.353,1.596-1.382,2.625c-0.042,1.458,0.734,2.343,1.884,2.881
		c0.048,0.09,0.085,0.185,0.206,0.249c0.989,0.524,2.025,0.968,3.039,1.45c-13.33,14.929-12.045,44.183,4.454,56.109
		c0.332,2.855,1.065,5.535,2.536,7.643c-2.337-0.005-4.568-0.387-6.963-1.21c-1.429-0.491-2.535,1.513-1.464,2.515
		c3.442,3.221,7.132,5.459,11.46,6.715c1.559,0.764,3.19,1.094,4.784,0.472c1.104-0.431,0.877-1.85-0.27-1.999
		c-1.234-0.158-2.426-0.758-3.545-1.556c1.068,0.109,2.149,0.182,3.272,0.184c1.762,0.002,2.263-1.974,1.317-3.181
		c-1.981-2.529-3.53-5.188-4.503-8.266c-0.67-2.123-1.94-6.784-0.839-8.891c2.615-5.007,9.618,7.821,10.274,10.997
		c-0.057,0.55,0.088,1.115,0.513,1.526c0.038,0.037,0.077,0.074,0.116,0.111c0.666,0.642,1.534,0.648,2.235,0.281
		c0.458,0.145,0.963,0.074,1.339-0.381c0.304-0.368,0.706-0.851,1.163-1.364c0.391-0.193,0.721-0.54,0.955-1.016
		c1.385-1.388,3.068-2.673,4.524-2.454c2.335,0.351,1.408,6.757,1.561,8.483c0.14,1.583,1.983,2.301,3.041,1.479
		c0.093,0.014,0.184-0.002,0.276-0.002c0.5,0.459,1.267,0.608,1.773-0.027c0.955-1.199,1.952-2.304,2.984-3.345
		c1.748-1.315,3.462-2.726,5.463-3.648c2.772-1.277,4.681-0.365,4.886,2.819c0.135,2.102-0.264,4.112,0.51,6.096
		c0.244,0.626,0.904,1.047,1.557,1.105c0.888,0.591,2.303,0.228,2.993-0.682c0.256-0.073,0.503-0.22,0.7-0.498
		c4.718-6.669,9.715-13.695,16.116-18.89c1.967-1.597,4.393-3.171,6.882-3.805c0.032-0.014,0.06-0.018,0.092-0.032
		c2.336,0.564,4.5,1.672,5.938,3.55c0.014,0.061,0.034,0.109,0.047,0.172c0.075,0.047,0.11,0.098,0.181,0.145
		c0.126,0.182,0.275,0.338,0.386,0.534c2.353,4.141-0.239,7.725-1.58,11.532c-0.406,0.587-0.826,1.169-1.262,1.732
		c-1.971,2.195-4.027,4.251-5.782,6.138c-1.579,1.697,0.432,4.504,2.522,3.269c1.793-1.251,3.694-2.148,5.693-2.729
		c0.134,0.077,0.247,0.186,0.417,0.197c2.405,0.172,4.062,1.753,4.399,4.104c-0.803,1.073-2,1.936-3.735,2.512
		c-2.26,1.507-0.131,5.185,2.139,3.66c4.079-2.74,8.537-6.342,9.491-11.437c0.175-0.934-0.119-1.854-0.962-2.363
		c-3.33-2.008-7.2-1.987-10.947-1.073c1.003-1.407,1.959-2.948,2.857-4.527c0.308,0.235,0.72,0.295,1.14-0.016
		c17.744-13.201,20.438-44.995,5.265-61.426c1.366-0.513,2.735-1.024,4.06-1.569c0.538-0.221,0.792-0.688,0.82-1.153
		c0.146-0.069,0.285-0.167,0.38-0.351c0.861-1.692,0.119-3.862-1.286-5.066c-1.217-1.043-2.717-1.237-4.159-0.864
		c-0.016,0.005-0.029,0.001-0.046,0.007c-7.132,2.585-14.244,4.58-21.437,6.11c-0.425-0.332-0.982-0.515-1.653-0.388
		c-5.747,1.089-11.502,2.153-17.241,3.29c-0.003,0-0.007,0.001-0.01,0.001c1.096-2.611,0.352-5.222-1.428-7.092
		c3.022-0.334,5.974-1.112,8.394-3.02c1.613-1.272,2.902-2.921,3.136-5.029c0.061-0.549,0.065-1.11-0.041-1.655
		c-0.035-0.166-0.108-0.318-0.156-0.479c5.022,1.136,10.783,0.325,14.553-3.419c2.891-2.871,3.668-6.824,2.288-10.352
		c4.031,0.377,8.083-0.723,10.26-4.597c1.276-2.27,1.281-4.597,0.334-6.596c9.424,2.469,20.512-1.148,26.626-8.699
		C184.346,92.068,184.299,79.622,174.524,80.059z M152.02,206.479c5.773-9.829,9.279-20.956-1.34-23.729
		c-13.352-3.487-27.704,12.982-34.748,25.992c0.102-2.116,0.377-4.228,0.887-6.333c0.259-1.4-0.916-3.059-2.503-2.503
		c-4.475,1.569-8.312,3.685-11.664,6.449c-1.799,1.069-3.494,2.409-4.804,3.865c0.102-6.109-1.975-11.985-7.591-15.318
		c-1.26-0.748-2.543,0.031-3.035,1.235c-0.892,2.179-1.783,4.359-2.675,6.538c-3.565-6.652-8.915-11.732-16.121-14.904
		c-1.077-0.474-2.622-0.191-2.902,1.181c-0.775,3.792-1.693,9.133-1.549,14.217c-15.609-12.992-12.627-36.792-3.314-53.013
		c13.303,6.094,28.612,8.584,44.097,8.449c0.064,0.01,0.128,0.02,0.193,0.03c0-0.003,0.001-0.005,0.001-0.005
		c0.195,0.021,0.382,0.06,0.577,0.083c0.332,0.039,0.621-0.015,0.88-0.118c7.22-0.151,14.454-0.876,21.538-2.077
		c4.18-0.164,8.339-0.659,12.447-1.775c0.802-0.218,1.267-0.694,1.503-1.251c4.491-1.192,8.873-2.545,13.063-4.077
		C165.787,166.297,167.987,192.348,152.02,206.479z M177.08,96.901c-2.038,2.31-4.681,4.128-7.469,5.415
		c-6.56,3.028-13.08,2.537-19.921,1.025c-0.025-0.005-0.042,0.014-0.067,0.011c-0.097,0-0.181,0.001-0.269,0.043
		c-0.911,0.12-1.479,1.385-0.477,1.874c0.443,0.216,0.923,0.328,1.379,0.513c2.421,2.978,1.807,5.919-1.853,8.824
		c-2.683,1.309-5.389,1.448-8.119,0.417c-1.003-0.265-2.125,0.935-1.448,1.883c3.163,4.424,0.609,9.758-4.18,11.643
		c-3.321,1.307-6.617,0.894-10.083,0.758c-0.15-0.006-0.234,0.084-0.353,0.128c-0.054-0.037-0.089-0.097-0.151-0.121
		c-0.06-0.023-0.12-0.047-0.18-0.07c-0.434-0.169-1.023,0.272-0.971,0.74c0.515,4.599-0.726,6.892-4.878,8.257
		c-2.985,0.981-6.167,0.991-9.276,1.024c-1.882,0.02-1.84,2.759,0,2.895c4.037,0.299,4.941,3.55,4.082,7.067
		c-2.518,0.194-5.052,0.35-7.621,0.439c-0.74,0.026-1.417-0.03-2.139-0.026c-3.886-0.728-7.783-1.343-11.705-1.723
		c-0.111-0.81-0.032-1.65,0.414-2.339c0.751-1.161,1.99-1.336,3.221-1.59c0.666-0.137,0.509-0.992,0-1.199
		c-0.023-0.009-0.042-0.006-0.065-0.014c0.574-0.458,0.191-1.528-0.598-1.27c-2.566,0.835-7.148-2.688-8.565-4.506
		c-1.938-2.488-2.226-5.884-0.097-8.356c0.157-0.182,0.159-0.403,0.108-0.611c-0.005-0.087-0.044-0.153-0.076-0.232
		c-0.01-0.016-0.012-0.034-0.023-0.049c-0.105-0.217-0.279-0.396-0.582-0.384c-8.76,0.328-16.285-0.725-19.158-10.471
		c-2.555-8.666,0.196-15.878,6.844-21.53c0.652-0.554,0.183-1.359-0.474-1.534c-0.079-0.082-0.166-0.159-0.28-0.195
		c-2.7-0.854-5.566-1.473-5.71-4.992c-0.136-3.326,2.741-4.555,5.135-6.029c0.031-0.019,0.028-0.049,0.055-0.069
		c0.833-0.258,1.259-1.595,0.292-2.015C49.404,70.796,45.467,45.905,58.16,26.605C69.837,8.849,91.729,2.02,112.005,3.57
		c15.798,1.208,33.876,7.492,46.824,16.722c20.812,14.835,20.107,38.198,12.842,59.925c-0.456,1.363,1.16,1.969,2.074,1.263
		C183.364,81.885,181.04,92.412,177.08,96.901z"/>
	<path d="M72.135,163.765c-0.075-0.079-0.175-0.1-0.272-0.125c0.192-1.335-0.997-2.611-2.106-3.157
		c-0.994-0.49-2.142-0.585-3.204-0.342c-3.643-2.233-7.694,0.376-9.33,3.88c-1.923,4.116-0.824,9.013,2.681,11.907
		c3.438,2.838,7.814,2.87,11.055-0.242C74.142,172.626,75.38,167.207,72.135,163.765z M67.802,161.183
		c0.539,0.016,4.451,1.305,1.816,2.597c-0.979,0.48-3.387-0.878-3.475-1.831c-0.01-0.109-0.071-0.164-0.122-0.228
		c0.023-0.05,0.061-0.099,0.066-0.149C66.632,161.351,67.18,161.165,67.802,161.183z M65.317,162.567
		c0.236,1.301,1.669,2.369,3.181,2.715c-0.024,0.075-0.085,0.113-0.089,0.205c-0.065,1.525,0.13,3.137-0.555,4.553
		c-1.313,2.716-4.355,2.181-5.118-0.554C61.958,166.697,63.554,164.491,65.317,162.567z M70.83,173.077
		c-2.43,3.527-6.71,4.197-9.902,1.195c-4.155-3.907-2.47-13.87,3.889-13.317c-0.028,0.023-0.063,0.032-0.09,0.056
		c-0.164,0.146-0.175,0.303-0.136,0.45c-3.76,2.276-5.734,8.096-1.896,11.275c1.56,1.292,3.573,1.238,5.133-0.04
		c2.105-1.724,2.401-4.671,2.124-7.209c-0.006-0.06-0.053-0.083-0.069-0.136c0.511-0.056,0.99-0.193,1.354-0.5
		C72.306,167.653,72.667,170.41,70.83,173.077z"/>
	<path d="M112.076,20.767c0.094-0.775-0.317-1.568-1.31-1.465c-10.822,1.131-33.281,22.756-24.547,34.764
		c4.473,6.15,12.038,1.837,15.593-2.788c6.26-8.146,8.578-18.66,10.782-28.466C112.784,21.965,112.525,21.279,112.076,20.767z"/>
	<path d="M126.76,16.107c-1.619-0.714-3.086,0.394-3.494,1.677c-0.48-0.056-0.958,0.137-1.198,0.702
		c-6.094,14.36-11.597,31.951-8.361,47.743c2.201,10.744,10.684,20.301,22.42,15.493C161.487,71.333,146.001,24.589,126.76,16.107z"
		/>
	<path d="M95.298,69.105C82.12,68.11,77.171,84.618,79.185,94.931c0.064,0.327,0.236,0.559,0.443,0.747
		c0.883,2.314,2.958,4.053,5.876,3.696c6.142-0.75,4.94-6.88,6.931-10.836c3.159-6.277,6.615,4.509,7.872,6.792
		c1.185,2.152,2.562,4.454,4.706,5.796c4.593,2.875,7.576-0.12,8.281-4.829C114.873,85.74,107.116,69.998,95.298,69.105z"/>
</g>
<g>
</g>
<g>
</g>
<g>
</g>
<g>
</g>
<g>
</g>
<g>
</g>
<g>
</g>
<g>
</g>
<g>
</g>
<g>
</g>
<g>
</g>
<g>
</g>
<g>
</g>
<g>
</g>
<g>
</g>
</svg>
