<?xml version="1.0" encoding="iso-8859-1"?>
<!-- Generator: Adobe Illustrator 19.0.0, SVG Export Plug-In . SVG Version: 6.00 Build 0)  -->
<svg version="1.1" id="Capa_1" xmlns="http://www.w3.org/2000/svg" xmlns:xlink="http://www.w3.org/1999/xlink" x="0px" y="0px"
	 viewBox="0 0 511.999 511.999" style="enable-background:new 0 0 511.999 511.999;" xml:space="preserve">
<g>
	<g>
		<path d="M511.992,117.408c0.168-5.935-2.704-10.939-7.118-14.02c3.568-4.958,4.792-11.48,2.569-17.492
			c-2.02-5.46-6.532-9.209-11.783-10.886c2.281-5.635,1.392-12.435-2.783-17.515c-6.117-7.444-15.584-9.014-24.595-7.69
			c-0.444-6.887-3.779-13.46-9.619-17.604c-6.274-4.453-14.244-4.976-21.085-2.252c-2.098-6.743-7.246-11.906-14.608-14.373
			c-9.296-3.114-19.011,0.539-27.475,5.056c-4.203-5.828-12.194-8.471-19.46-7.416c-10.813,1.571-21.124,8.787-29.583,15.344
			c-16.34,12.667-28.568,29.713-35.366,49.19c-12.708,5.323-25.348,11.006-38.597,14.597c-22.922,6.213-44.553,2.901-66.761-4.373
			c-3.545-24.983-17.341-47.386-35.856-64.212c-8.706-7.912-20.245-15.524-32.614-12.163c-7.117,1.935-12.513,8.002-13.734,14.797
			c-8.299-4.166-17.243-6.926-26.54-3.841c-6.972,2.313-12.519,8.43-14.06,15.444c-9.324-3.664-19.3-5.567-28.864-1.03
			c-7.34,3.482-11.949,10.717-11.96,18.294c-17.313-0.778-31.49,15.484-29.099,32.912c-6.375,2.101-11.612,7.572-12.751,14.36
			c-1.219,7.269,2.115,14.859,8.088,19c-0.497,0.541-0.983,1.09-1.445,1.658c-5.663,6.958-6.849,15.186-4.891,23.828
			c3.757,16.592,16.809,32.737,28.56,44.543c2.708,2.721,5.524,5.318,8.428,7.801c-3.871,83.329-4.691,166.749-6.028,250.149
			c-0.266,16.568-2.761,37.985,13.494,48.232c14.495,9.138,29.663-0.937,31.807-16.736c1.354-9.971-0.26-20.503-0.809-30.5
			c-0.583-10.605-1.125-21.213-1.625-31.823c-1-21.212-2.002-42.446-2.521-63.677c-0.587-24.058-0.784-48.138-1.09-72.2
			c-0.263-20.643,0.618-41.553-0.199-62.228c17.47,8.104,36.543,12.698,56.043,13.202c21.755,0.563,43.33-3.991,63.114-13.006
			c14.981-6.826,29.46-19.319,45.545-24.633c9.971-1.582,20.535-0.174,30.524,3.042c20.994,6.759,39.802,18.781,60.82,25.594
			c39.849,12.916,83.285,10.711,117.599-14.966c15.267-11.424,27.864-25.755,38.583-41.459c5.137-7.525,10.758-15.471,14.225-23.937
			c1.875-4.58,1.776-8.484,0.338-11.865C505.811,130.817,511.775,125.043,511.992,117.408z M19.504,97.851
			c3.093-0.006,6.447-3.436,5.103-6.698c-6.298-15.285,7.306-29.21,22.89-24.437c4.255,1.304,8.047-3.742,5.767-7.502
			c-4.458-7.354,3.551-13.673,10.371-14.356c8.015-0.803,16.129,3.108,23.337,6.106c4.65,1.934,7.399-4.026,5.81-7.557
			c-3.597-7.992,6.116-12.799,12.565-12.702c8.151,0.123,15.47,4.65,22.164,8.854c4.306,2.704,8.54-2.497,6.541-6.541
			c-2.048-4.142,0.88-8.336,4.771-9.821c4.276-1.632,8.968-0.634,12.954,1.282c8.17,3.928,15.352,10.999,21.498,17.532
			c11.565,12.294,20.243,27.188,24.853,43.411c-0.538-0.184-1.073-0.367-1.607-0.55c-20.133-6.9-39.865-15.107-61.169-17.6
			c-40.231-4.707-76.021,17.02-107.567,39.26c-3.588,2.53-7.455,5.009-11.119,7.718c-0.37-0.229-0.783-0.436-1.246-0.611
			C5.737,109.981,10.395,97.87,19.504,97.851z M17.861,160.811c-5.143-7.999-11.385-18.404-5.975-27.78
			c4.171-7.229,12.979-11.875,19.652-16.46c29.953-20.579,63.156-40.36,100.897-37.168c22.46,1.9,43.595,10.646,65.106,16.674
			c13.345,3.739,26.528,5.979,39.868,5.992c2.19,0.445,4.379,0.778,6.565,1.01c-18.802,8.662-38.482,15.068-58.944,18.809
			c-0.751-0.396-1.518-0.771-2.296-1.125c-13.359-8.356-29.388-9.321-45.377-6.305c-2.197,0.326-4.387,0.741-6.564,1.255
			c-0.337,0.08-0.62,0.228-0.855,0.42c-15.549,4.072-30.657,11.436-42.786,18.908c-2.545,1.567-3.518,5.662-1.007,7.813
			c5.375,4.605,8.963,11.142,14.312,15.942c0.622,0.559,1.256,1.106,1.896,1.646c-26.579,11.814-56.111,12.604-83.192,2.337
			C18.723,162.126,18.286,161.472,17.861,160.811z M187.986,135.155c2.189,2.916,3.248,6.456,2.327,10.889
			c-1.545,7.437-7.391,12.342-13.875,15.637c-14.269,7.25-31.922,7.981-47.066,3.266c-7.041-2.192-13.733-5.643-19.7-9.972
			c-4.36-3.163-10.52-7.988-13.613-13.245c16.035-7.969,31.939-17.196,50.063-19.114
			C161.219,121.019,177.005,124.41,187.986,135.155z M56.541,490.368c-16.837-4.345-12.348-32.615-12.246-45.109
			c0.319-39.257,0.784-78.517,0.953-117.775c0.178-41.254-0.005-82.489-0.877-123.73c5.707,4.422,11.726,8.401,18.001,11.907
			c-1.084,18.035-0.239,36.381-0.112,54.41c0.137,19.472,0.364,38.94,0.995,58.403c1.273,39.272,2.451,78.549,4.364,117.798
			c0.453,9.302,1.39,18.691,1.318,28.005C68.884,481.216,65.918,492.788,56.541,490.368z M439.896,199.954
			c-15.639,11.436-33.772,18.735-53.163,20.258c-18.129,1.425-36.26-1.256-53.58-6.566c22.178-14.625,45.906-26.828,71.053-35.482
			c22.802-7.848,46.392-12.335,70.316-14.638C464.978,177.279,453.399,190.08,439.896,199.954z M484.57,147.569
			c-1.698,2.955-3.479,5.862-5.301,8.743c-53.419,3.569-107.502,23.608-150.435,55.294c-0.2,0.148-0.353,0.318-0.482,0.496
			c-1.101-0.371-2.2-0.749-3.293-1.14c-21.881-7.831-41.937-21.904-65.216-25.497c-13.528-2.088-28.781-0.672-40.464,6.594
			c-5.287,2.324-10.455,5.109-15.555,8.039c-16.579,9.523-33.004,16.951-52.014,20.152c-47.736,8.04-97.844-11.792-127.546-50.37
			c27.017,10.309,58.706,8.712,84.261-4.74c3.194,2.184,6.556,4.118,10.071,5.708c14.282,6.456,30.154,8.259,45.546,5.313
			c13.922-2.665,29.371-9.584,34.929-23.589c4.578-11.536-0.306-21.051-8.81-27.397c23.85-3.011,47.028-10.26,68.076-21.937
			c27.993-2.104,55.604-17.252,82.757-23.776c21.154-5.083,41.291-2.892,61.15,5.896c20.113,8.9,38.813,21.105,57.63,32.396
			c4.779,2.867,9.557,5.734,14.335,8.602l7.167,4.301c1.962,1.177,5.154,2.494,6.597,4.368
			C490.876,138.791,486.557,144.111,484.57,147.569z M495.671,123.144c-0.969,0.295-2.022,0.45-3.142,0.424
			c-10.882-0.252-19.69-10.828-28.407-16.099c-11.969-7.238-23.948-14.459-36.005-21.549
			c-18.573-10.921-38.512-20.606-60.405-21.636c-17.699-0.833-33.809,4.258-49.624,10.592c6.788-12.256,15.635-23.165,26.207-32.457
			c6.219-5.466,13.066-10.161,20.395-14.018c3.96-2.084,8.243-4.29,12.757-4.752c3.364-0.345,9.106,0.835,9.627,5.06
			c0.523,4.249,4.42,7.104,8.543,4.903c6.319-3.372,13.071-7.264,20.399-7.525c5.007-0.178,15.233,3.438,13.413,10.202
			c-1.01,3.751,3.39,7.63,6.879,5.289c10.414-6.988,24.633,0.615,20.716,13.738c-1.145,3.837,2.72,7.839,6.607,6.607
			c6.078-1.925,12.812-3.659,18.779-0.414c4.777,2.598,7.933,9.664,2.274,13.261c-4.373,2.779-1.567,9.473,3.504,8.312
			c11.782-2.7,15.996,12.912,5.405,17.747c-4.661,2.128-1.889,8.687,2.42,8.938C505.66,110.327,503.118,120.877,495.671,123.144z"/>
	</g>
</g>
<g>
	<g>
		<path d="M407.39,135.042c-12.129-7.472-27.237-14.836-42.786-18.908c-0.235-0.192-0.518-0.341-0.855-0.42
			c-2.177-0.514-4.367-0.93-6.564-1.255c-15.989-3.016-32.019-2.052-45.377,6.305c-12.727,5.783-22.147,17.17-16.338,31.807
			c5.558,14.005,21.006,20.924,34.928,23.589c15.392,2.946,31.265,1.143,45.546-5.313c6.629-2.997,12.731-7.195,18.14-12.05
			c5.349-4.8,8.937-11.337,14.313-15.942C410.908,140.704,409.935,136.609,407.39,135.042z M384.87,154.975
			c-5.967,4.329-12.659,7.779-19.701,9.972c-15.145,4.716-32.798,3.985-47.066-3.266c-6.484-3.295-12.331-8.201-13.875-15.637
			c-0.921-4.433,0.137-7.973,2.327-10.889c10.981-10.746,26.768-14.137,41.864-12.539c18.125,1.918,34.029,11.146,50.064,19.114
			C395.389,146.986,389.229,151.812,384.87,154.975z"/>
	</g>
</g>
<g>
</g>
<g>
</g>
<g>
</g>
<g>
</g>
<g>
</g>
<g>
</g>
<g>
</g>
<g>
</g>
<g>
</g>
<g>
</g>
<g>
</g>
<g>
</g>
<g>
</g>
<g>
</g>
<g>
</g>
</svg>
