<?xml version="1.0" encoding="iso-8859-1"?>
<!-- Generator: Adobe Illustrator 19.0.0, SVG Export Plug-In . SVG Version: 6.00 Build 0)  -->
<svg version="1.1" id="Capa_1" xmlns="http://www.w3.org/2000/svg" xmlns:xlink="http://www.w3.org/1999/xlink" x="0px" y="0px"
	 viewBox="0 0 512.002 512.002" style="enable-background:new 0 0 512.002 512.002;" xml:space="preserve">
<g>
	<g>
		<path d="M302.054,440.845c-3.514-31.905-13.94-62.861-31.234-89.926c14.138-9.892,24.129-25.765,26.033-43.32
			c1.507-13.886-2.043-28.877-10.822-39.878c-0.764-0.957-1.576-1.86-2.411-2.739c-0.897-9.074-3.479-18.485-5.952-27.052
			c-3.039-10.525-6.468-20.938-10.276-31.21c-3.477-9.378-7.313-18.622-11.272-27.805c-0.738-1.712-1.542-3.631-2.481-5.511
			c9.487-8.836,14.078-26.278,0.714-34.18c-8.883-5.252-20.836,0.458-22.321,9.298c-6.656-0.744-13.503,0.929-15.072,8.726
			c-1.79,8.899,5.43,13.972,12.747,16.8c-1.968,3.653-3.513,7.553-4.923,10.329c-4.514,8.883-8.721,17.926-12.578,27.113
			c-8.476,20.182-14.997,40.896-18.406,62.535c-0.068,0.439-0.02,0.828,0.105,1.163c0.242,0.653-7.301,11.164-8.097,13.061
			c-2.795,6.661-4.838,14.172-4.517,21.441c0.445,10.062,5.509,20.803,11.303,28.909c1.592,2.227,20.308,21.023,22.744,18.041
			c-17.37,21.263-28.889,47.377-36.346,73.645c-4.063,14.313-6.768,29.008-8.304,43.803c-1.419,13.67-0.53,27.375,14.19,32.783
			c6.036,2.217,12.795,2.632,19.135,3.28c8.667,0.885,17.368,1.44,26.077,1.664c16.027,0.412,32.743,0.347,48.586-2.364
			c14.046-2.403,21.85-11.198,23.545-25.141C303.965,469.952,303.635,455.198,302.054,440.845z M277.867,274.597
			c-10.04,6.817-20.599,11.278-33.124,8.856c-10.963-2.121-20.729-8.879-27.324-17.802c5.067-2.487,10.492-4.256,16.087-5.211
			C250.152,257.599,267.584,262.807,277.867,274.597z M268.461,241.412c0.196,0.695,0.401,1.389,0.596,2.087
			c1.179,4.239,2.286,8.641,3.5,13.008c-8.185-4.497-17.689-6.674-27.066-6.625c-0.277,0.001-0.555,0.021-0.832,0.026
			C252.558,247.013,260.523,244.316,268.461,241.412z M225.965,162.122c-1.254-2.181-1.813-4.942,0.948-6.464
			c2.692-1.484,5.849,0.536,7.66,2.338c3.276,3.259,9.136-0.024,7.822-4.554c-2.026-6.983,6.442-9.777,10.434-4.212
			c4.19,5.844,0.252,12.834-4.538,16.87c-2.084-1.678-4.636-2.586-7.853-2.069c-2.457,0.395-4.536,1.759-6.333,3.646
			C230.935,166.534,227.658,165.072,225.965,162.122z M240.898,176.437c1.387-1.808,1.19-2.506,2.908-0.679
			c1.003,1.066,1.623,3.072,2.216,4.326c1.336,2.825,2.614,5.677,3.859,8.543c-7.147,2.074-14.065,5.324-20.528,9.246
			C232.748,190.672,236.186,182.586,240.898,176.437z M217.106,224.617c2.398-5.625,4.888-11.217,7.478-16.76
			c8.58-6.029,17.757-10.192,27.582-13.845c2.283,5.581,4.445,11.212,6.496,16.883c-16.1,4.423-31.391,12.529-45.082,22.22
			C214.735,230.272,215.904,227.437,217.106,224.617z M210.527,240.762c15.854-10.154,32.694-17.157,50.436-23.354
			c0.067,0.196,0.139,0.391,0.206,0.587c1.933,5.642,3.735,11.325,5.438,17.038c-14.777,4.054-29.116,11.299-42.388,18.763
			c-8.961,3.259-17.315,8.414-24.231,14.959C203.436,259.412,206.893,250.046,210.527,240.762z M202.525,276.134
			c2.917-2.85,6.143-5.351,9.582-7.508c1.879,7.63,0.891,16.227-3.599,22.804c-4.337,6.354-10.26,8.623-17.139,10.5
			C192.16,292.189,196.237,283.327,202.525,276.134z M193.142,318.364c-0.675-2.272-1.147-4.519-1.466-6.74
			c9.697-0.855,18.926-7.922,23.584-16.249c3.252-5.813,4.404-12.104,3.657-18.298c5.981,7.198,14.065,12.445,23.505,14.797
			c13.609,3.391,30.132,0.653,41.118-8.519c1.992,4.324,3.216,9.188,3.446,14.57c0.99,23.233-15.244,44.419-37.522,50.569
			C226.304,354.889,200.076,341.688,193.142,318.364z M221.647,358.971c5.751,1.754,11.854,2.63,18.128,2.451
			c6.341-0.181,12.461-1.491,18.205-3.689c-1.678,7.773-7.21,14.293-15.714,15.51C232.58,374.628,224.059,367.958,221.647,358.971z
			 M238.379,381.974c-1.842,3.445-2.768,7.187-4.499,10.712c-0.907,1.846-2.582,5.288-5.11,5.283
			c-3.408-0.006-3.618-3.724-4.171-6.082c-1.49-6.359-2.403-12.779-3.23-19.219C225.307,377.817,231.34,381.311,238.379,381.974z
			 M261.962,371.832c-0.846,5.941-1.854,11.832-3.479,17.702c-0.455,1.643-0.736,4.042-1.669,5.52
			c-2.26,3.58-3.158,2.503-4.57-0.843c-1.766-4.185-3.385-8.439-5.075-12.655c-0.028-0.069-0.064-0.131-0.095-0.198
			C253.08,379.925,258.235,376.484,261.962,371.832z M282.723,496.266c-5.159,2.235-11.214,2.425-16.725,2.861
			c-7.6,0.602-15.219,0.951-22.842,1.045c-14.509,0.179-29.063-0.518-43.475-2.221c-5.065-0.598-11.847-1.176-15.383-5.371
			c-3.802-4.508-2.494-12.148-2.086-17.54c0.972-12.886,3.021-25.664,6.029-38.23c5.842-24.396,15.567-46.995,26.586-69.265
			c-0.434,5.981-0.109,11.965,0.618,18.018c0.743,6.172,1.091,14.774,6.553,18.852c4.433,3.31,10.76,2.277,14.789-1.194
			c2.89-2.49,4.438-5.737,5.79-9.111c3.547,8.693,8.991,17.505,17.867,10.578c5.295-4.134,6.518-12.685,7.926-18.812
			c0.959-4.168,1.825-8.476,2.432-12.804c7.797,16.303,13.579,33.488,17.097,51.341c2.554,12.959,3.788,26.146,3.757,39.354
			C291.634,473.47,293.597,491.554,282.723,496.266z"/>
	</g>
</g>
<g>
	<g>
		<path d="M144.707,416.937c-3.514-31.905-13.939-62.861-31.234-89.926c14.139-9.892,24.129-25.765,26.033-43.32
			c1.508-13.886-2.042-28.877-10.822-39.878c-0.764-0.957-1.576-1.86-2.41-2.738c-0.898-9.074-3.479-18.486-5.953-27.053
			c-3.039-10.525-6.468-20.938-10.275-31.21c-3.478-9.378-7.313-18.622-11.273-27.805c-0.738-1.712-1.541-3.631-2.481-5.511
			c9.487-8.836,14.078-26.278,0.714-34.18c-8.883-5.252-20.836,0.458-22.32,9.298c-6.656-0.744-13.504,0.929-15.072,8.726
			c-1.791,8.899,5.429,13.972,12.746,16.8c-1.967,3.653-3.513,7.553-4.923,10.329c-4.514,8.883-8.72,17.926-12.578,27.113
			c-8.476,20.182-14.997,40.896-18.405,62.535c-0.069,0.439-0.02,0.828,0.104,1.163c0.242,0.654-7.301,11.164-8.097,13.06
			c-2.795,6.661-4.838,14.173-4.516,21.442c0.444,10.062,5.508,20.803,11.302,28.909c1.592,2.227,20.308,21.023,22.744,18.041
			c-17.37,21.263-28.889,47.377-36.346,73.645c-4.063,14.313-6.768,29.008-8.304,43.803c-1.419,13.67-0.53,27.375,14.191,32.783
			c6.035,2.217,12.795,2.632,19.134,3.28c8.667,0.885,17.368,1.44,26.077,1.664c16.027,0.412,32.744,0.347,48.586-2.364
			c14.047-2.403,21.85-11.198,23.545-25.141C146.618,446.044,146.288,431.291,144.707,416.937z M120.521,250.688
			c-10.041,6.817-20.6,11.279-33.124,8.856c-10.964-2.121-20.73-8.879-27.325-17.802c5.067-2.488,10.492-4.256,16.087-5.211
			C92.806,233.691,110.238,238.898,120.521,250.688z M111.114,217.504c0.197,0.696,0.402,1.39,0.596,2.087
			c1.179,4.239,2.287,8.641,3.501,13.008c-8.186-4.497-17.689-6.674-27.066-6.625c-0.277,0.001-0.556,0.021-0.833,0.026
			C95.211,223.105,103.176,220.408,111.114,217.504z M68.618,138.214c-1.253-2.181-1.813-4.942,0.948-6.464
			c2.692-1.484,5.849,0.536,7.66,2.338c3.276,3.259,9.137-0.024,7.822-4.554c-2.025-6.983,6.442-9.777,10.434-4.212
			c4.191,5.844,0.252,12.834-4.537,16.87c-2.084-1.678-4.637-2.586-7.854-2.069c-2.457,0.395-4.535,1.759-6.333,3.646
			C73.588,142.626,70.313,141.164,68.618,138.214z M83.552,152.529c1.387-1.809,1.19-2.506,2.909-0.68
			c1.003,1.066,1.622,3.073,2.215,4.327c1.336,2.824,2.613,5.677,3.859,8.543c-7.147,2.074-14.064,5.324-20.528,9.246
			C75.401,166.764,78.839,158.679,83.552,152.529z M59.76,200.709c2.398-5.625,4.889-11.217,7.479-16.76
			c8.579-6.029,17.756-10.192,27.581-13.845c2.284,5.581,4.445,11.212,6.496,16.883c-16.1,4.423-31.391,12.529-45.081,22.22
			C57.389,206.365,58.558,203.529,59.76,200.709z M53.181,216.854c15.854-10.154,32.694-17.157,50.436-23.354
			c0.067,0.196,0.14,0.391,0.206,0.587c1.933,5.642,3.735,11.325,5.438,17.038c-14.777,4.054-29.116,11.299-42.388,18.763
			c-8.961,3.259-17.314,8.414-24.231,14.959C46.089,235.504,49.545,226.138,53.181,216.854z M45.18,252.226
			c2.917-2.85,6.143-5.351,9.581-7.508c1.879,7.63,0.891,16.228-3.599,22.804c-4.336,6.354-10.26,8.623-17.139,10.5
			C34.814,268.282,38.891,259.419,45.18,252.226z M35.795,294.456c-0.675-2.272-1.146-4.519-1.465-6.74
			c9.697-0.855,18.925-7.922,23.583-16.249c3.252-5.813,4.404-12.104,3.658-18.298c5.98,7.198,14.064,12.445,23.504,14.797
			c13.609,3.391,30.132,0.653,41.119-8.519c1.991,4.324,3.216,9.188,3.444,14.57c0.992,23.233-15.242,44.419-37.521,50.569
			C68.957,330.981,42.729,317.781,35.795,294.456z M64.301,335.063c5.751,1.753,11.855,2.63,18.129,2.451
			c6.34-0.181,12.46-1.491,18.204-3.689c-1.678,7.773-7.21,14.293-15.714,15.51C75.234,350.72,66.713,344.051,64.301,335.063z
			 M81.033,358.066c-1.843,3.445-2.768,7.187-4.5,10.712c-0.906,1.846-2.582,5.288-5.109,5.283
			c-3.408-0.006-3.619-3.724-4.172-6.082c-1.49-6.359-2.403-12.779-3.229-19.219C67.96,353.91,73.994,357.403,81.033,358.066z
			 M104.615,347.924c-0.846,5.941-1.854,11.832-3.479,17.702c-0.455,1.644-0.736,4.043-1.67,5.521
			c-2.26,3.58-3.158,2.503-4.569-0.843c-1.767-4.185-3.385-8.439-5.076-12.655c-0.028-0.069-0.064-0.13-0.095-0.198
			C95.733,356.017,100.889,352.576,104.615,347.924z M125.377,472.358c-5.16,2.235-11.215,2.425-16.726,2.861
			c-7.599,0.602-15.219,0.951-22.841,1.045c-14.51,0.179-29.063-0.519-43.477-2.221c-5.064-0.598-11.846-1.177-15.382-5.371
			c-3.802-4.508-2.493-12.148-2.086-17.54c0.972-12.886,3.021-25.664,6.03-38.23c5.842-24.396,15.567-46.995,26.585-69.265
			c-0.433,5.981-0.109,11.965,0.618,18.018c0.743,6.172,1.091,14.774,6.553,18.852c4.434,3.311,10.761,2.278,14.789-1.193
			c2.89-2.49,4.438-5.737,5.79-9.111c3.547,8.693,8.991,17.505,17.867,10.578c5.296-4.134,6.518-12.685,7.926-18.812
			c0.959-4.168,1.825-8.476,2.433-12.804c7.797,16.303,13.578,33.488,17.096,51.341c2.554,12.959,3.789,26.146,3.758,39.354
			C134.287,449.563,136.25,467.646,125.377,472.358z"/>
	</g>
</g>
<g>
	<g>
		<path d="M457.176,416.937c-3.513-31.905-13.939-62.861-31.234-89.926c14.139-9.892,24.129-25.765,26.033-43.32
			c1.508-13.886-2.042-28.877-10.822-39.878c-0.764-0.957-1.576-1.86-2.41-2.738c-0.897-9.074-3.479-18.486-5.953-27.053
			c-3.039-10.525-6.467-20.938-10.275-31.21c-3.478-9.378-7.313-18.622-11.273-27.805c-0.738-1.712-1.541-3.631-2.481-5.511
			c9.487-8.836,14.078-26.278,0.715-34.18c-8.884-5.252-20.837,0.458-22.321,9.298c-6.656-0.744-13.504,0.929-15.072,8.726
			c-1.791,8.899,5.43,13.972,12.746,16.8c-1.967,3.653-3.513,7.553-4.923,10.329c-4.514,8.883-8.72,17.926-12.578,27.113
			c-8.476,20.182-14.997,40.896-18.405,62.535c-0.069,0.439-0.02,0.828,0.104,1.163c0.242,0.654-7.301,11.164-8.097,13.06
			c-2.795,6.661-4.838,14.173-4.516,21.442c0.444,10.062,5.508,20.803,11.303,28.909c1.591,2.227,20.307,21.023,22.743,18.041
			c-17.369,21.263-28.889,47.377-36.346,73.645c-4.063,14.313-6.768,29.008-8.304,43.803c-1.419,13.67-0.53,27.375,14.191,32.783
			c6.035,2.217,12.795,2.632,19.134,3.28c8.667,0.885,17.368,1.44,26.077,1.664c16.027,0.412,32.744,0.347,48.586-2.364
			c14.047-2.403,21.851-11.198,23.545-25.141C459.087,446.044,458.758,431.291,457.176,416.937z M432.99,250.688
			c-10.041,6.817-20.6,11.279-33.124,8.856c-10.964-2.121-20.73-8.879-27.325-17.802c5.067-2.488,10.492-4.256,16.087-5.211
			C405.274,233.691,422.707,238.898,432.99,250.688z M423.583,217.504c0.196,0.696,0.401,1.39,0.596,2.087
			c1.179,4.239,2.287,8.641,3.501,13.008c-8.186-4.497-17.689-6.674-27.066-6.625c-0.277,0.001-0.556,0.021-0.832,0.026
			C407.681,223.105,415.645,220.408,423.583,217.504z M381.087,138.214c-1.253-2.181-1.813-4.942,0.948-6.464
			c2.693-1.484,5.849,0.536,7.66,2.338c3.276,3.259,9.137-0.024,7.822-4.554c-2.025-6.983,6.442-9.777,10.434-4.212
			c4.191,5.844,0.252,12.834-4.537,16.87c-2.084-1.678-4.637-2.586-7.854-2.069c-2.457,0.395-4.535,1.759-6.332,3.646
			C386.057,142.626,382.781,141.164,381.087,138.214z M396.021,152.529c1.387-1.809,1.19-2.506,2.909-0.68
			c1.003,1.066,1.622,3.073,2.215,4.327c1.336,2.824,2.613,5.677,3.859,8.543c-7.146,2.074-14.064,5.324-20.528,9.246
			C387.87,166.764,391.308,158.679,396.021,152.529z M372.229,200.709c2.398-5.625,4.889-11.217,7.479-16.76
			c8.579-6.029,17.756-10.192,27.581-13.845c2.284,5.581,4.445,11.212,6.496,16.883c-16.1,4.423-31.39,12.529-45.081,22.22
			C369.857,206.365,371.026,203.529,372.229,200.709z M365.649,216.854c15.854-10.154,32.694-17.157,50.436-23.354
			c0.067,0.196,0.14,0.391,0.206,0.587c1.933,5.642,3.735,11.325,5.438,17.038c-14.777,4.054-29.116,11.299-42.388,18.763
			c-8.961,3.259-17.315,8.414-24.231,14.959C358.558,235.504,362.015,226.138,365.649,216.854z M357.648,252.226
			c2.917-2.85,6.143-5.351,9.581-7.508c1.879,7.63,0.891,16.228-3.599,22.804c-4.336,6.354-10.26,8.623-17.139,10.5
			C347.283,268.282,351.359,259.419,357.648,252.226z M348.265,294.456c-0.676-2.272-1.147-4.519-1.466-6.74
			c9.697-0.855,18.925-7.922,23.583-16.249c3.252-5.813,4.404-12.104,3.658-18.298c5.98,7.198,14.064,12.445,23.504,14.797
			c13.609,3.391,30.132,0.653,41.119-8.519c1.991,4.324,3.216,9.188,3.445,14.57c0.991,23.233-15.243,44.419-37.522,50.569
			C381.426,330.981,355.198,317.781,348.265,294.456z M376.77,335.063c5.752,1.753,11.855,2.63,18.129,2.451
			c6.34-0.181,12.46-1.491,18.204-3.689c-1.678,7.773-7.21,14.293-15.714,15.51C387.703,350.72,379.182,344.051,376.77,335.063z
			 M393.502,358.066c-1.843,3.445-2.769,7.187-4.5,10.712c-0.906,1.846-2.582,5.288-5.109,5.283
			c-3.408-0.006-3.619-3.724-4.172-6.082c-1.489-6.359-2.403-12.779-3.229-19.219C380.429,353.91,386.463,357.403,393.502,358.066z
			 M417.084,347.924c-0.846,5.941-1.853,11.832-3.479,17.702c-0.455,1.644-0.736,4.043-1.67,5.521
			c-2.26,3.58-3.158,2.503-4.569-0.843c-1.767-4.185-3.385-8.439-5.076-12.655c-0.027-0.069-0.063-0.13-0.095-0.198
			C408.202,356.017,413.357,352.576,417.084,347.924z M437.846,472.358c-5.16,2.235-11.215,2.425-16.726,2.861
			c-7.6,0.602-15.219,0.951-22.841,1.045c-14.51,0.179-29.063-0.519-43.476-2.221c-5.065-0.598-11.847-1.177-15.383-5.371
			c-3.802-4.508-2.493-12.148-2.086-17.54c0.972-12.886,3.021-25.664,6.03-38.23c5.842-24.396,15.567-46.995,26.585-69.265
			c-0.433,5.981-0.109,11.965,0.619,18.018c0.742,6.172,1.09,14.774,6.552,18.852c4.434,3.311,10.761,2.278,14.789-1.193
			c2.89-2.49,4.438-5.737,5.79-9.111c3.547,8.693,8.991,17.505,17.867,10.578c5.296-4.134,6.518-12.685,7.926-18.812
			c0.959-4.168,1.826-8.476,2.433-12.804c7.797,16.303,13.579,33.488,17.096,51.341c2.554,12.959,3.789,26.146,3.758,39.354
			C446.756,449.563,448.719,467.646,437.846,472.358z"/>
	</g>
</g>
<g>
	<g>
		<path d="M499.91,0.249c-29.89,13.721-60.775,25.984-92.373,35.166c-31.395,9.123-64.043,14.294-96.525,17.651
			c-64.88,6.705-130.265,3.052-193.792-11.875C81.277,32.746,45.901,21.156,12.114,6.24c-2.748-1.213-5.195,2.687-2.411,4.126
			c11.942,6.173,24.086,11.852,36.4,17.053c2.892,13.362,5.659,26.759,8.72,40.083c1.512,6.583,2.856,13.27,4.643,19.784
			c1.112,4.059,2.859,8.438,6.755,10.596c10.405,5.765,20.247-8.929,26.313-15.111c8.152-8.308,16.562-16.448,24.46-25.016
			c5.477,19.182,11.979,37.564,21.529,55.345c1.521,2.829,5.617,3.214,7.808,1.006c13.699-13.809,27.498-27.539,40.887-41.654
			c7.482,17.013,16.611,33.157,27.93,47.997c1.785,2.339,5.544,3.727,7.863,1.013c12.334-14.428,23.002-29.995,31.707-46.799
			c6.92,8.824,13.65,17.759,20.278,26.846c3.947,5.411,7.756,10.97,11.887,16.243c2.747,3.508,6.231,6.756,10.964,6.782
			c10.868,0.061,13.997-15.536,17.1-23.292c3.958-9.897,8.501-19.805,12.238-29.876c12.765,13.859,25.505,27.385,40.428,39.165
			c2.408,1.901,6.51,2.243,8.136-1.049c8.274-16.754,14.623-34.29,18.18-52.613c6.57,4.049,13.173,8.025,19.642,12.304
			c8.668,5.733,17.346,11.42,25.768,17.513c2.301,1.666,5.762,0.352,7.105-1.863c10.813-17.81,16.583-38.149,18.635-58.778
			c0.118-1.18-0.082-2.168-0.498-2.969c12.832-5.599,25.425-11.788,37.744-18.702C505.051,2.844,502.656-1.011,499.91,0.249z
			 M92.617,68.862c-4.099,4.193-8.188,8.396-12.296,12.58c-2.61,2.658-7.681,10.229-10.757,5.308
			c-2.198-3.515-2.605-9.219-3.693-13.26c-1.511-5.607-3.032-11.208-4.636-16.789c-2.503-8.711-5.005-17.421-7.507-26.132
			c18.796,7.59,37.985,14.064,57.493,19.428C104.852,56.109,98.789,62.549,92.617,68.862z M143.923,102.233
			c-8.146-15.336-15.097-31.816-19.17-48.707c18.424,4.55,37.11,8.125,55.999,10.729C168.26,76.701,156.098,89.479,143.923,102.233z
			 M219.538,109.852c-10.022-13.429-18.311-28.121-24.292-43.786c2.221,0.247,4.444,0.482,6.671,0.703
			c14.466,1.432,29.051,2.258,43.649,2.449C238.147,83.519,229.473,97.171,219.538,109.852z M308.953,88.348
			c-1.812,4.747-3.624,9.494-5.436,14.241c-1.093,2.859-3.229,13.205-7.271,11.073c-1.88-0.992-3.315-3.919-4.544-5.547
			c-1.758-2.331-3.51-4.666-5.264-6.999c-3.071-4.082-6.152-8.156-9.213-12.247c-4.869-6.51-9.55-13.085-14.164-19.73
			c12.686-0.281,25.35-1.048,37.924-2.334c5.648-0.577,11.264-1.272,16.855-2.06C314.611,72.491,311.932,80.549,308.953,88.348z
			 M369.242,98.812c-13.482-10.563-26.684-22.592-36.883-36.337c17.34-2.994,34.462-6.922,51.492-11.548
			C380.572,67.333,375.89,83.443,369.242,98.812z M439.751,74.772c-14.261-8.788-27.938-18.378-41.718-27.857
			c0.361-0.107,0.725-0.209,1.087-0.317c18.438-5.457,36.534-11.615,54.208-18.792C451.512,44.229,446.617,59.831,439.751,74.772z"
			/>
	</g>
</g>
<g>
</g>
<g>
</g>
<g>
</g>
<g>
</g>
<g>
</g>
<g>
</g>
<g>
</g>
<g>
</g>
<g>
</g>
<g>
</g>
<g>
</g>
<g>
</g>
<g>
</g>
<g>
</g>
<g>
</g>
</svg>
