<?xml version="1.0" encoding="iso-8859-1"?>
<!-- Generator: Adobe Illustrator 19.0.0, SVG Export Plug-In . SVG Version: 6.00 Build 0)  -->
<svg version="1.1" id="Capa_1" xmlns="http://www.w3.org/2000/svg" xmlns:xlink="http://www.w3.org/1999/xlink" x="0px" y="0px"
	 viewBox="0 0 512 512" style="enable-background:new 0 0 512 512;" xml:space="preserve">
<g>
	<g>
		<path d="M482.864,201.042c-0.113-5.514-3.567-10.474-8.947-12.026c-3.167-0.914-6.297-0.509-9.415,0.096
			c10.256-9.28,21.186-23.007,9.039-29.132c-6.596-3.326-15.277,0.621-21.282,3.539c-3.231,1.57-6.26,3.513-9.077,5.728
			c1.141-4.67,2.251-9.347,3.27-14.041c1.565-7.208,4.59-15.494,3.521-22.936c-0.907-6.311-5.751-10.684-12.217-10.232
			c-6.985,0.488-12.297,5.691-16.207,11.017c-10.174,13.855-12.356,31.081-16.66,47.243c-3.938,14.788-11.348,30.917-26.926,35.684
			c-4.2-2.238-9.085-3.216-13.869-3.563c-10.31-0.749-20.92,0.308-31.251,0.471l-33.844,0.534
			c-22.563,0.356-45.126,0.712-67.688,1.068c-10.815,0.171-21.687,0.67-32.502,0.473c-3.406-0.063-7.536-0.181-10.473-2.157
			c-3.781-2.545-3.349-7.649-3.391-11.672c-0.226-22.239-0.341-44.479-0.621-66.718c-0.158-12.468-0.315-24.935-0.473-37.403
			c-0.052-4.061-0.076-8.586-1.004-12.725c1.012-9.314,1.074-18.725,0.156-28.304c-0.845-8.799-2.316-17.543-4.488-26.112
			c-2.313-9.122-6.321-17.699-8.72-26.742c-0.794-2.994-4.958-4.28-7.126-1.882c-4.547,5.028-6.863,12.311-9.373,18.531
			c-2.764,6.852-5.044,13.881-7.033,20.996c-0.612,2.192-1.217,4.418-1.797,6.667c-5.939-11.248-13.097-22.093-22.559-30.615
			c-3.277-2.952-7.897-0.766-8.275,3.428c-1.889,21.001-2.721,42.219-1.278,63.275c-6.68,1.39-13.081,3.674-18.916,7.796
			c-7.379,5.212-11.581,12.553-13.949,20.742c-10.843,4.651-23.187,4.51-33.728,10.165c-11.476,6.156-15.627,17.656-16.324,30.04
			c-0.685,12.167-1.082,26.924,8.764,35.768c10.066,9.042,24.352,8.788,35.441,15.804c0.231,0.147,0.463,0.265,0.693,0.37
			c-0.371,19.086-0.551,38.18-0.894,57.257c-0.281,15.626-0.563,31.251-0.843,46.877c-0.254,14.073-1.854,29.475,2.752,43.051
			c3.832,11.29,13.071,21.909,25.173,24.147c-3.347,22.629-6.311,45.395-8.387,68.166c-1.096,12.008-2.28,24.028-3.097,36.059
			c-0.644,9.479,0.701,19.421,8.862,25.448c7.536,5.564,17.534,5.787,26.517,6.192c10.572,0.478,22.07,1.329,32.522-0.736
			c9.499-1.876,14.401-8.957,15.438-18.211c1.335-11.929,1.232-24.161,1.782-36.151c1.179-25.73,2.611-51.511,2.407-77.28
			c1.904,0.89,3.907,1.512,5.983,1.77c8.714,1.083,17.216-2.239,23.271-8.255c14.69,13.223,36.845,13.122,50.712-1.188
			c5.148,6.099,12.778,10.333,20.799,10.371c5.572,0.027,10.524-1.703,14.768-4.581c-2.77,22.084-4.467,44.275-5.176,66.53
			c-0.391,12.303-0.735,24.676-0.375,36.984c0.268,9.107,2.276,18.615,10.822,23.466c8.563,4.861,20.212,3.604,29.643,3.709
			c10.606,0.119,22.593,1.619,32.967-1.06c9.938-2.565,14.117-10.689,15.091-20.287c1.179-11.628,1.184-23.504,1.151-35.181
			c-0.074-26.862-1.695-54.149-7.143-80.512c2.412-1.142,4.727-2.648,6.886-4.557c13.613-12.032,14.221-35.446,15.77-52.125
			c1.583-17.056,1.854-34.233,0.834-51.333c7.888,5.175,17.198,8.224,26.638,8.487c9.51,0.265,23.762-3.206,24.946-14.743
			c0.202-1.978-1.606-6.809-0.565-8.079c1.04-1.268,4.923-1.375,6.377-1.657c5.313-1.032,9.933-2.74,13.422-7.101
			c4.964-6.202,4.637-14.32,0.683-20.345C473.91,217.611,483.104,212.815,482.864,201.042z M77.497,121.759
			c-1.918,14.411-1.433,29.401-2.04,43.918c-0.379,9.056-0.652,18.119-0.872,27.184c-8.61-3.98-18.353-5.042-26.566-9.906
			c-10.793-6.393-10.044-20.415-9.533-31.51c0.581-12.646,6.345-21.083,18.521-25.065c6.962-2.278,14.253-3.752,20.816-6.832
			C77.704,120.283,77.596,121.019,77.497,121.759z M180.284,220.227c-4.762,3.791-12.434,2.469-13.241-4.941
			c-0.358-3.29-4.576-6.046-7.236-2.997c-3.799,4.355-8.372,9.009-14.262,10.225c-5.13,1.06-12.221-1.484-12.951-7.382
			c-0.519-4.173-5.544-6.012-8.074-2.187c-9.499,14.366-31.011,12.647-37.188-3.845c-0.189-0.505-0.477-0.892-0.813-1.193
			c0.084-7.73,0.133-15.459,0.129-23.188c8.436,8.671,23.212,9.028,32.22-0.136c3.826,4.855,9.608,7.906,16.159,7.497
			c6.266-0.392,11.641-4.042,14.719-9.199c6.801,5.99,17.048,6.666,23.994,0.539c0.051,3.547,0.102,7.094,0.151,10.641
			c0.11,7.824-0.897,17.025,4.072,23.673C178.665,218.668,179.447,219.49,180.284,220.227z M154.843,44.098
			c2.075-6.465,4.485-12.799,6.981-19.11c1.256-3.177,2.939-6.403,4.465-9.676c1.928,5.152,3.276,10.636,4.542,15.736
			c2.105,8.485,3.539,17.127,4.234,25.842c0.438,5.482,0.629,11.037,0.626,16.607c-0.154-0.092-0.291-0.197-0.452-0.285
			c-8.561-4.712-20.529,1.058-29.349,4.164C149.151,66.384,151.332,55.032,154.843,44.098z M121.739,30.208
			c7.776,7.759,15.048,15.844,20.806,25.353c-1.671,7.833-2.77,15.84-2.518,23.704c-1.86,0.586-3.722,1.172-5.582,1.76
			c-4.387,0.326-8.779,0.619-13.111,1.106C119.502,64.791,119.351,47.453,121.739,30.208z M86.41,128.581
			c0.641-11.806,4.411-20.833,14.41-27.487c10.827-7.205,23.697-9.438,36.239-11.771c8.681-1.614,17-6.996,26.024-6.738
			c12.647,0.361,9.604,10.897,9.701,20.493c0.018,1.739,0.035,3.478,0.053,5.217c-0.018,0.098-0.029,0.198-0.046,0.296
			c-0.074,0.444-0.041,0.848,0.061,1.211c0.079,7.867,0.158,15.734,0.237,23.602c0.114,11.383,3.988,29.528-2.108,39.837
			c-4.459,7.541-15.142,8.808-19.144,0.083c-1.373-2.995-6.255-2.118-6.959,0.913c-2.742,11.811-17.646,13.131-22.49,2.08
			c-1.119-2.552-5.083-2.21-6.305,0c-6.803,12.31-23.502,11.29-29.466-0.349c-0.019-2.752-0.041-5.503-0.08-8.254
			C86.354,154.7,85.704,141.588,86.41,128.581z M85.973,251.28c0.102-10.562,0.265-21.128,0.406-31.696
			c9.566,12.731,28.894,14.912,40.738,3.803c3.512,4.842,9.403,7.972,15.434,8.305c7.403,0.409,14.084-3.067,19.127-8.186
			c6.212,8.69,19.736,10.02,26.972,0.991c2.387,0.642,4.884,0.985,7.348,1.147c9.299,0.612,18.823-0.2,28.135-0.397
			c10.256-0.218,20.512-0.436,30.768-0.653c20.17-0.428,40.339-0.856,60.509-1.284c10.256-0.218,20.512-0.484,30.768-0.653
			c7.715-0.127,16.783-1.037,24.148,1.818c8.474,3.285,8.561,13.24,9.414,20.998c0.652,5.922,1.126,11.862,1.462,17.81
			c-11.733,7.917-27.854,4.102-34.177-9.067c-1.541-3.21-6.83-2.367-7.593,0.992c-1.606,7.082-6.731,12.927-13.955,14.655
			c-7.719,1.847-16.335-2.321-19.321-9.716c-1.295-3.206-4.575-4.115-7.292-1.925c-7.02,5.658-15.227,12.715-24.64,13.504
			c-7.221,0.605-16.327-3.792-16.164-11.926c0.067-3.343-4.637-5.629-6.959-2.882c-5.447,6.447-12.037,13.83-20.652,15.708
			c-6.865,1.497-17.08-2.231-16.203-10.553c0.45-4.278-5.934-5.585-7.865-2.13c-9.186,16.43-32.594,16.01-40.486-1.258
			c-1.256-2.745-6-2.751-7.253,0c-7.38,16.203-29.564,17.834-37.745,1.301c-1.578-3.191-5.646-1.739-6.748,0.882
			c-5.307,12.607-21.111,12.549-28.385,3.691C85.851,260.127,85.93,255.699,85.973,251.28z M160.18,497.544
			c-2.311,3.265-7.024,3.45-10.663,3.678c-5.458,0.342-10.942,0.441-16.41,0.411c-8.282-0.045-18.067,0.531-25.911-2.619
			c-5.922-2.378-7.571-7.518-7.855-13.082c20.799,3.325,41.912,4.991,62.899,2.501C162.194,491.687,161.908,495.102,160.18,497.544z
			 M163.898,436.919c-0.377,10.888-0.753,21.776-1.13,32.664c-0.12,3.486-0.241,6.972-0.362,10.458
			c-20.998,1.258-42.016,2.083-62.991,0.05c0.076-1.358,0.174-2.694,0.251-3.974c0.65-10.805,1.366-21.606,2.124-32.405
			c0.478-6.813,0.909-13.631,1.321-20.452c2.645,4.109,7.153,7.125,12.03,7.813c7.435,1.05,14.259-2.843,19.13-8.238
			c4.056,4.618,9.554,7.799,15.803,8.657c4.426,0.607,9.739-0.024,14.093-2.142C164.075,431.874,163.985,434.397,163.898,436.919z
			 M164.563,419.241c-4.035,1.896-7.725,3.969-12.565,3.683c-6.116-0.362-11.103-4.046-14.009-9.287c-1.551-2.794-5.63-2.628-7.22,0
			c-2.854,4.716-7.128,9.321-12.832,10.22c-24.068,3.794-9.79-47.939-12.235-47.879c7.3-0.179,14.176-3.585,18.379-9.146
			c4.541,5.958,11.083,10.172,18.945,10.757c8.275,0.616,16.137-3.67,21.099-10.114c1.032,1.662,2.22,3.261,3.538,4.742
			C166.096,387.844,165.216,403.542,164.563,419.241z M364.953,479.364c-0.197,4.445,0.225,10.297-2.51,14.107
			c-2.398,3.341-6.938,3.738-10.734,3.89c-5.27,0.211-10.578,0.054-15.851,0.015c-9.184-0.067-19.614,1.056-28.615-0.966
			c-8.806-1.978-9.726-10.297-10.043-17.94c11.511,0.122,23.023,0.259,34.534,0.174c10.85-0.08,22.339,0.768,33.262-0.412
			C364.98,478.609,364.971,478.987,364.953,479.364z M365.386,465.343c-0.021,1.208-0.059,2.416-0.088,3.624
			c-11.336-0.892-23.342,0.645-34.574,1.048c-11.256,0.404-22.504,1.035-33.75,1.642c-0.28-9.323-0.413-18.651-0.392-27.977
			c0.016-7.024,0.118-14.048,0.281-21.07c10.785,10.402,28.726,10.069,39.442-1.188c7.64,6.886,18.53,10.129,28.395,7.582
			c0.08,1.425,0.169,2.849,0.234,4.276C365.419,443.959,365.569,454.655,365.386,465.343z M297.2,410.718
			c0.418-12.362,1.026-24.718,1.782-37.063c3.782,3.457,8.92,5.426,14.278,5.691c9.439,0.466,17.459-5.512,24.412-11.468
			c6.532,4.133,14.147,6.216,21.546,5.573c1.829,15.537,3.719,31.053,4.898,46.645c-8.745,2.417-18.68,0.257-24.423-7.269
			c-1.94-2.543-5.482-2.913-7.358,0C323.521,426.515,304.32,424.769,297.2,410.718z M376.563,340.12
			c-1.84,8.222-5.214,17.171-13.117,21.35c-6.914,3.657-17.118,3.112-22.883-2.507c-1.291-1.258-3.911-1.919-5.49-0.708
			c-5.629,4.314-11.367,8.732-18.494,10.104c-5.09,0.98-11.867,0.018-13.92-5.564c-1.327-3.611-6.37-4.783-8.492-1.11
			c-7.258,12.564-26.132,10.849-33.126-0.762c-2.012-3.34-6.146-2.8-8.26,0c-10.405,13.787-32.019,14.203-42.431,0.185
			c-2.497-3.362-7.383-3.908-9.777,0c-7.586,12.381-27.721,11.27-32.43-3.057c-0.955-2.906-5.516-4.093-7.053-0.922
			c-3.352,6.914-9.49,11.272-17.347,11.214c-7.718-0.057-14.329-5.632-15.747-13.096c-0.865-4.562-7.746-4.181-8.85,0
			c-2.59,9.803-14.603,11.756-22.033,6.2c-9.039-6.759-11.315-19.263-11.737-29.818c-0.158-3.979-0.252-7.964-0.313-11.954
			c4.698,5.406,11.463,9.189,18.359,9.945c10.386,1.139,20.669-3.707,26.722-11.951c6.305,7.518,16.012,12.287,25.912,11.638
			c9.126-0.599,17.029-5.42,22.168-12.537c4.953,6.898,12.504,11.971,21.29,11.984c8.252,0.012,16.104-4.408,20.767-11.055
			c4.458,6.868,11.49,11.851,20.127,12.156c8.405,0.298,16.655-4.367,21.125-11.372c5.058,7.035,12.145,12.077,21.475,12.663
			c9.282,0.583,17.854-4.194,23.068-11.499c5.481,5.691,13.393,9.154,21.301,8.271c7.165-0.799,13.741-5.193,17.528-11.281
			c4.039,5.708,9.833,10.061,16.934,11.559c6.027,1.272,12.089,0.247,17.335-2.455C378.475,330.588,377.621,335.392,376.563,340.12z
			 M380.577,313.719c-9.996,10.138-28.899,7.457-32.511-7.755c-0.912-3.845-6.548-3.633-7.574,0
			c-4.223,14.936-24.325,19.755-31.398,4.165c-1.27-2.797-5.737-2.556-7.08,0c-3.77,7.173-10.711,12.302-19.006,12.449
			c-8.216,0.145-16.929-5.674-18.339-14.047c-0.73-4.337-6.3-3.092-7.604,0c-2.954,7-8.507,12.828-16.657,12.99
			c-7.75,0.155-15.646-5.98-16.062-13.953c-0.245-4.72-6.614-5.564-8.144-1.102c-2.484,7.256-8.818,13.046-16.688,13.518
			c-8.113,0.486-15.529-4.765-17.313-12.724c-0.749-3.34-6.023-4.188-7.566-0.989c-8.255,17.11-32.13,19.479-41.293,1.804
			c-1.337-2.578-5.631-2.666-6.941,0c-4.092,8.319-12.725,14.474-22.251,13.927c-8.535-0.49-14.9-5.272-19.167-12.01
			c0.001-12.165,0.311-24.359,0.589-36.529c2.884,2.337,6.33,4,10.174,4.644c8.833,1.48,17.008-2.533,22.106-9.283
			c11.346,13.972,33.569,14.383,44.53,0.069c5.622,7.108,14.196,11.807,23.356,12.229c8.909,0.41,17.337-3.595,23.183-10.049
			c3.771,6.061,10.443,10.018,18.082,10.463c10.284,0.599,18.733-5.765,25.329-13.209c3.527,6.442,10.459,10.748,18.072,11.754
			c11.673,1.543,21.848-5.095,30.579-12.264c5.813,7.475,15.161,12.148,24.756,10.876c8.175-1.084,15.252-6.371,19.052-13.496
			c9.518,10.21,24.229,13.33,36.81,7.517c0.024,0.861,0.064,1.723,0.083,2.584C381.945,287.927,381.742,300.898,380.577,313.719z
			 M453.816,211.934c-4.965,0.089-5.244,6.446-1.102,8.137c4.735,1.934,6.639,7.604,4.136,11.999
			c-2.125,3.729-5.616,4.401-9.538,5.09c-6.671,1.172-13.986,4.195-13.425,12.264c0.316,4.542,2.034,7.274-2.965,9.563
			c-3.798,1.738-8.448,1.682-12.524,1.434c-9.923-0.602-19.039-4.533-26.577-10.959c-0.106-0.091-0.217-0.171-0.326-0.252
			c-0.025-0.254-0.043-0.509-0.069-0.764c-0.913-8.867-1.101-19.449-6.758-26.832c23.418-9.581,28.191-40.138,34.446-62.125
			c1.989-6.992,4.41-13.899,8.402-20.028c2.423-3.721,14.267-16.481,15.874-5.326c1.05,7.292-2.193,16.2-3.957,23.214
			c-2.093,8.317-4.592,16.397-7.672,24.402c-1.446,3.76,4.176,6.878,6.752,3.93c7.064-8.086,16.652-15.517,27.435-17.722
			c0.7-0.143,2.495-0.677,3.116-0.312c1.768,1.042-0.161,3.734-0.76,4.715c-1.51,2.476-3.342,4.769-5.273,6.924
			c-3.966,4.422-8.494,8.12-13.544,11.235c-2.847,1.756-2.596,6.718,0.979,7.493c4.215,0.915,8.091,0.389,12.266-0.49
			c3.685-0.776,10.356-2.854,11.714,2.319C477.324,210.817,460.391,211.817,453.816,211.934z"/>
	</g>
</g>
<g>
	<g>
		<path d="M58.183,147.938c-0.944-3.284-2.828-5.031-5.931-2.71c-5.122,3.833-7.394,10.571-5.842,16.793
			c0.711,2.849,2.794,5.866,5.729,5.771c1.725-0.055,3.228-1.202,4.365-2.5C58.764,162.714,59.72,153.288,58.183,147.938z"/>
	</g>
</g>
<g>
	<g>
		<path d="M116.743,128.727c-10.731-0.5-19.21,10.496-14.27,20.368c1.288,2.575,5.985,2.155,6.465-0.845
			c0.521-3.268,3.369-8.452,7.273-8.25c4.081,0.211,5.086,4.535,5.111,7.773c0.036,4.566,7.233,7.283,9.288,2.516
			C134.717,140.757,127.117,129.211,116.743,128.727z"/>
	</g>
</g>
<g>
</g>
<g>
</g>
<g>
</g>
<g>
</g>
<g>
</g>
<g>
</g>
<g>
</g>
<g>
</g>
<g>
</g>
<g>
</g>
<g>
</g>
<g>
</g>
<g>
</g>
<g>
</g>
<g>
</g>
</svg>
