<?xml version="1.0" encoding="iso-8859-1"?>
<!-- Generator: Adobe Illustrator 19.0.0, SVG Export Plug-In . SVG Version: 6.00 Build 0)  -->
<svg version="1.1" id="Capa_1" xmlns="http://www.w3.org/2000/svg" xmlns:xlink="http://www.w3.org/1999/xlink" x="0px" y="0px"
	 viewBox="0 0 512.001 512.001" style="enable-background:new 0 0 512.001 512.001;" xml:space="preserve">
<g>
	<g>
		<path d="M491.344,86.124c-26.345-55.16-91.485-86.568-150.727-86.119c-59.456,0.451-116.944,34.237-147.174,85.303
			c-16.822,28.415-25.091,62.242-20.237,95.124c4.092,27.725,18.33,55.672,41.565,72.077c4.183,2.953,8.517,5.62,13.033,7.978
			c-4.14,2.258-7.62,5.229-10.425,8.964c-0.414,0.004-0.832,0.023-1.254,0.059c-6.686,0.57-11.697,5.227-16.432,9.509
			c-16.502,14.925-32.758,30.109-48.961,45.35c-2.783,2.265-5.561,4.537-8.329,6.82c-23.073,19.028-45.368,38.988-67.413,59.195
			c-11.276,10.335-22.481,20.749-33.576,31.279c-5.295,5.025-10.567,10.074-15.816,15.147c-4.829,4.667-10.003,9.577-12.963,15.72
			c-5.665,11.757-1.064,23.684,6.421,33.362c7.395,9.56,16.539,19.683,28.016,24.21c13.798,5.444,25.494-1.849,37.049-8.867
			c13.405-8.141,26.801-16.295,40.17-24.494c26.128-16.024,52.155-32.215,77.942-48.784c13.19-8.475,26.317-17.051,39.359-25.753
			c11.843-7.901,24.466-15.384,35.271-24.7c6.115-5.272,11.257-11.925,13.204-19.575c25.818-18.688,57.779-26.28,85.513-41.581
			c26.493-14.617,50.496-34.009,70.433-56.762C485.908,214.057,519.819,145.745,491.344,86.124z M48.516,497.518
			c-5.939-3.284-11.178-8.88-15.389-13.268c-8.36-8.712-16.719-19.301-7.756-30.676c6.992-8.874,16.055-16.649,24.331-24.498
			C48.985,451.896,48.983,474.688,48.516,497.518z M91.976,433.796c-0.139,8.396-0.321,16.788-0.619,25.18
			c-0.284,7.982-1.249,16.433-0.727,24.445c-3.544,2.175-7.087,4.351-10.633,6.522c-5.557,3.404-11.402,8.033-17.757,9.769
			c-1.948,0.531-3.855,0.655-5.718,0.47c-1.075-24.964-1.539-49.892-2.934-74.839c9.271-9.027,18.603-17.993,28.031-26.856
			c3.526-3.315,7.061-6.626,10.6-9.936C92.042,403.629,92.225,418.714,91.976,433.796z M137.557,454.42
			c-1.588,0.99-3.173,1.986-4.762,2.975c-10.825,6.735-21.675,13.43-32.535,20.109c0.285-5.457,0.143-11.008,0.173-16.338
			c0.05-8.756-0.072-17.521-0.297-26.274c-0.434-16.888-1.207-33.928-3.24-50.71c14.702-13.71,29.526-27.343,44.499-40.813
			c-1.768,36.754-3.221,73.478-3.901,110.279C137.489,453.921,137.525,454.17,137.557,454.42z M428.761,34.42
			c12.427,7.403,23.765,16.507,33.439,27.225c-10.412,4.608-21.511,7.567-31.505-0.552c-4.505-3.66-7.215-8.891-7.139-14.743
			C423.625,41.212,425.695,37.72,428.761,34.42z M291.436,19.817c-0.054,4.031-0.246,7.848-2.057,11.876
			c-2.394,5.325-6.478,9.936-11.681,12.634c-9.163,4.753-20.286,3.327-28.667-2.271C261.991,32.64,276.313,25.097,291.436,19.817z
			 M188.636,193.564c-2.215-7.772-3.526-15.728-4.037-23.734c8.787-0.137,16.571,6.44,18.617,15.423
			c2.215,9.723-2.035,18.322-8.133,25.454C192.473,205.123,190.293,199.379,188.636,193.564z M186.242,357.376
			c-1.099,21.937-3.167,44.151-2.676,66.122c0.014,0.62,0.136,1.159,0.308,1.653c-12.253,7.86-24.553,15.649-36.89,23.378
			c0.165-36.365-0.399-72.678-1.264-109.031c14.315-12.821,28.773-25.481,43.407-37.9
			C187.447,320.105,187.168,338.885,186.242,357.376z M232.628,391.512c-0.222,0.544-0.351,1.167-0.339,1.882
			c0,0.01,0,0.021,0,0.031c-9.954,6.673-19.948,13.289-29.99,19.829c-2.961,1.929-5.931,3.844-8.899,5.763
			c1.231-20.453,0.493-41.187,0.553-61.641c0.059-19.816,0.883-39.928-0.104-59.771c6.237-5.255,12.503-10.469,18.809-15.625
			c2.661-1.129,5.482-1.223,8.428,0.969c4.709,3.502,8.551,8.565,12.56,12.819c2.26,2.398,4.52,4.796,6.779,7.194
			C237.693,332.448,234.524,361.97,232.628,391.512z M267.932,368.571c-7.848,6.816-16.896,12.498-25.669,18.229
			c1.623-26.085,2.326-52.274,3.284-78.402c0.962,1.021,1.924,2.042,2.886,3.062c8.644,9.173,19.048,18.15,25.939,28.762
			C281.575,351.316,277.117,360.592,267.932,368.571z M290.017,344.545c-2.136-8.428-7.812-15.455-13.823-21.908
			c14.087-9.241,40.924-15.426,44.294,5.417C309.953,332.839,299.649,338.048,290.017,344.545z M464.553,214.623
			c-12.168-2.742-14.655-17.257-8.808-26.947c5.987-9.921,17.378-15.084,28.675-16.113
			C479.724,186.529,472.76,201.085,464.553,214.623z M485.956,166.353c-15.675-0.538-32.136,7.066-38.777,21.932
			c-5.666,12.682-0.62,28.99,12.53,33.996c-5.024,7.629-10.4,14.877-15.928,21.621c-19.862,24.231-44.065,44.762-71.357,60.169
			c-13.708,7.739-28.315,13.665-42.73,19.914c-2.436-10.854-14.576-17.863-25.233-18.478c-12.194-0.703-23.935,4.25-32.878,12.284
			c-0.842-0.875-1.676-1.745-2.489-2.607c-11.862-12.582-23.314-25.71-35.609-37.866c-2.337-2.31-4.927-4.39-7.784-5.831
			c14.82-9.065,35.272-2.98,50.822,1.22c18.719,5.056,37.75,6.384,56.924,3.203c7.209-1.196,14.273-3.042,21.104-5.477
			c8.056,13.796,34.351,7.851,45.804,0.956c7.908-4.761,14.202-12.213,15.766-21.479c1.255-7.432-0.217-15.618-5.411-21.065
			c3.751-5.167,7.086-10.676,9.92-16.511c7.739-15.932,11.742-33.26,11.734-50.517c16.476-1.703,27.166-18.253,23.256-34.104
			c-3.86-15.656-21.838-25.1-36.034-16.702c-0.578-1.062-1.174-2.118-1.792-3.165c-8.955-15.164-21.541-27.775-36.304-36.681
			c2.435-6.715,0.998-14.976-1.966-21.168c-3.789-7.914-11.161-13.617-19.623-15.782c-17.425-4.458-33.921,6.324-38.942,22.98
			c-26.908,2.523-51.934,15.674-69.165,36.157c-14.82-6.706-33.291,0.258-39.676,15.518c-5.749,13.74,2.165,32.274,17.275,33.397
			c-4.562,26.473,0.701,55.11,21.907,72.583c29.058,23.943,71.693,18.338,99.921-3.807c0.227,0.235,0.484,0.458,0.776,0.664
			c14.967,10.506,32.688-1.403,39.155-15.809c5.267-11.734,3.203-27.729-9.275-32.413c4.192-17.994,1.242-36.736-13.417-51.099
			c-11.604-11.368-28.694-17.594-44.886-15.187c-16.567,2.463-32.558,14.767-37.444,31.046c-5.03,16.755,1.627,35.891,18.22,43.012
			c14.849,6.373,38.362,0.063,38.925-19.076c0.238-8.083-5.208-15.436-13.042-17.388c-7.764-1.935-10.908,9.578-3.296,11.956
			c7.943,2.482,0.938,12.032-3.413,14.09c-6.342,3-14.219,1.547-19.828-2.354c-13.901-9.667-11.063-29.768-0.126-40.34
			c5.388-5.208,11.881-8.126,18.666-9.146c-1.21,8.617,3.585,17.125,11.838,21.335c9.384,4.788,21.479,4.177,30.848-0.794
			c1.833,3.14,3.229,6.549,4.043,10.193c3.504,15.686-1.275,31.317-10.403,44.369c-12.567-6.848-28.268-7.291-40.98-0.415
			c-12.678,6.857-19.27,20.101-19.208,34.112c-17.183,0.637-34.138-4.866-45.576-17.227c11.233-7.152,17.639-21.351,14.676-34.531
			c-3.084-13.721-15.958-22.07-28.998-19.719c2.405-19.296,11.194-38.001,24.308-51.96c0.827-0.879,1.676-1.732,2.537-2.572
			c9.017,9.396,22.458,12.402,34.687,6.59c11.48-5.455,19.392-18.388,18.88-31.08c11.103-1.107,22.423-0.216,33.253,2.81
			c28.254,7.895,51.862,30.895,62.175,58.185c11.058,29.26,6.25,61.865-10.035,88.203c-16.834,27.226-45.709,44.668-77.217,49.11
			c-8.158,1.15-16.238,1.298-24.257,0.659c-1.149-13.832-11.56-26.537-25.796-28.241c-11.414-1.367-26.894,5.918-29.608,18.072
			c-4.158-0.076-8.27,0.307-12.241,1.405c-14.645-9.302-26.865-22.858-35.622-38.208c10.295-10.121,15.705-25.853,9.998-39.666
			c-4.308-10.429-14.588-16.711-25.158-15.369c-0.347-19.978,4.197-40.086,12.324-58.302C207.388,82,224.263,61.15,244.91,45.149
			c9.387,8.894,23.946,11.628,35.89,6.035c11.453-5.364,22.033-20.834,19.302-34.118c8.599-2.459,17.412-4.196,26.349-5.124
			c32.773-3.402,67.421,3.419,96.778,19.334c-9.301,7.879-7.778,25.03,0.045,33.589c11.22,12.276,31.479,12.985,44.798,3.745
			c3.006,3.828,5.828,7.819,8.407,12.003C493.125,107.62,493.894,137.607,485.956,166.353z M252.548,256.415
			c5.804-6.678,12.65-12.012,22.473-10.945c10.253,1.114,17.829,9.976,18.929,19.775c-5.528-0.832-11.032-2.001-16.517-3.459
			C269.622,259.709,261.066,257.283,252.548,256.415z M360.212,268.259c17.087-7.062,32.449-17.938,44.514-31.872
			c5.569,10.14,0.771,21.872-9.293,28.235C386.385,270.344,369.374,275.618,360.212,268.259z M421.335,114.385
			c11.588-2.094,24.197,2.903,27.29,15.255c2.999,11.974-5.903,20.878-16.604,23.462
			C430.956,139.777,427.438,126.645,421.335,114.385z M373.569,66.853c-13.281-6.498-27.978-10.124-43.192-10.116
			c-1.25,0.001-2.498,0.028-3.743,0.075c5.853-10.762,17.974-18.024,30.382-15.119c6.251,1.463,11.729,5.267,14.742,11.012
			C374.292,57.538,374.3,62.045,373.569,66.853z M308.01,69.053c-0.4,8.607-3.761,16.504-12.152,20.708
			c-7.792,3.904-18.72,2.855-26.246-1.878C280.646,78.534,293.953,72.166,308.01,69.053z M231.144,133.992
			c-12.4-1.258-17.133-14.651-10.8-25.577c5.731-9.89,17.876-13.587,28.664-11.59c-3.581,4.662-6.782,9.659-9.521,14.973
			C235.97,118.619,233.136,126.142,231.144,133.992z M237.95,151.988c11.089-1.859,21.626,6.593,22.669,18.179
			c0.968,10.75-5.231,17.975-13.273,23.314c-1.812-2.862-3.396-5.97-4.686-9.361C238.752,173.844,237.311,162.886,237.95,151.988z
			 M303.935,217.375c4.057-22.218,28.533-35.725,48.69-25.8c-8.83,9.831-20.09,17.562-31.587,21.77
			C315.512,215.368,309.743,216.714,303.935,217.375z M358.451,204.636c10.036-9.995,18.141-23.011,22.245-36.722
			C398.045,177.783,377.559,214.724,358.451,204.636z M358.441,121.269c-5.439,2.215-10.973,3.838-17.063,2.265
			c-7.072-1.827-12.413-7.832-12.508-14.934C339.71,108.874,350.612,113.577,358.441,121.269z"/>
	</g>
</g>
<g>
</g>
<g>
</g>
<g>
</g>
<g>
</g>
<g>
</g>
<g>
</g>
<g>
</g>
<g>
</g>
<g>
</g>
<g>
</g>
<g>
</g>
<g>
</g>
<g>
</g>
<g>
</g>
<g>
</g>
</svg>
