<?xml version="1.0" encoding="iso-8859-1"?>
<!-- Generator: Adobe Illustrator 19.0.0, SVG Export Plug-In . SVG Version: 6.00 Build 0)  -->
<svg version="1.1" id="Capa_1" xmlns="http://www.w3.org/2000/svg" xmlns:xlink="http://www.w3.org/1999/xlink" x="0px" y="0px"
	 viewBox="0 0 511.999 511.999" style="enable-background:new 0 0 511.999 511.999;" xml:space="preserve">
<g>
	<g>
		<path d="M510.457,111.731c-4.294-10.743-15.948-10.285-25.678-10.388c-12.125-0.128-24.252-0.192-36.377-0.271
			c-13.932-0.09-27.863-0.099-41.795-0.042c2.521-20.947,2.143-42.496,3.511-63.524c0.515-7.921,2.515-17.392-0.8-24.98
			c-3.645-8.339-11.937-8.954-19.754-6.651c-20.42,6.015-40.6,13.676-60.318,21.672c-19.014,7.711-38.605,15.271-56.447,25.523
			c-5.592-11.118-17.236-13.177-29.697-11.465c-9.652,1.326-18.044,5.261-23.822,12.021c-26.732-18.181-57.608-31.267-87.738-42.592
			c-11.854-4.456-28.976-11.616-38.836,0.504c-4.219,5.187-5.021,12.058-4.859,18.532c0.21,8.391,0.675,16.792,1.569,25.139
			c1.87,17.441,4.487,35.612,10.07,52.389c-16.521,0.105-33.044,0.213-49.565,0.315c-11.053,0.068-23.177-0.859-34.036,1.54
			C5.67,111.709,1.264,119.684,0.479,129.499c-0.938,11.739-0.168,23.745-0.391,35.523c-0.164,8.707-0.409,18.711,6.57,25.114
			c3.783,3.471,8.641,4.766,13.708,5.204c0.046,32.059,2.009,64.064,4.078,96.055c2.249,34.784,5.071,69.528,8.211,104.243
			c1.538,17.001,3.13,33.998,4.817,50.984c1.336,13.457,0.859,29.684,9.256,41.075c8.92,12.103,24.354,12.907,38.108,13.764
			c17.037,1.062,34.075,2.165,51.124,3.021c68.926,3.462,138.042,3.805,206.979,0.51c17.766-0.849,35.52-1.934,53.256-3.256
			c14.488-1.079,30.736-0.642,44.408-6.098c12.568-5.016,19.896-15.67,23.523-28.344c4.316-15.089,5.342-31.429,7.322-46.946
			c9.697-75.905,14.801-153.386,10.988-229.906c8.678-1.742,15.683-6.537,19.3-15.062c4.298-10.129,5.058-22.112,6.849-32.882
			C510.16,133.035,514.197,121.092,510.457,111.731z M325.932,38.741c17.486-6.263,35.053-12.318,52.775-17.876
			c4.598-1.441,9.174-2.979,13.794-4.336c3.319-0.974,6.198-2.007,7.185,2.146c0.781,3.28,0.101,7.055-0.114,10.371
			c-0.321,4.936-0.624,9.873-0.964,14.807c-1.307,18.945-4.286,38.235-4.353,57.244c-6.917,0.05-13.837,0.113-20.755,0.199
			c-32.032,0.398-64.11,0.968-96.146,2.288c0.601-4.769,0.983-9.679,1.095-14.622c16.445-0.446,32.678,1.092,48.865,4.214
			c5.145,0.992,7.314-6.94,2.168-7.864c-16.847-3.024-33.995-3.674-51.039-2.364c-0.049-1.907-0.134-3.814-0.278-5.714
			c17.442-6.349,34.917-12.621,52.255-19.249c4.443-1.698,2.549-8.906-1.99-7.215c-17.08,6.362-34.033,13.067-51.008,19.706
			c-0.623-4.331-1.529-8.59-2.79-12.698C291.971,52.179,308.781,44.884,325.932,38.741z M221.506,72.329
			c2.66-11.621,9.994-18.454,21.727-20.569c4.654-0.839,10.378-1.606,14.947-0.004c5.361,1.879,6.902,7.403,8.051,12.429
			c2.883,12.592,2.853,25.771,0.75,38.481c-0.08,0.481-0.094,0.939-0.063,1.377c-14.006,0.652-28,1.458-41.979,2.47
			C222.311,95.446,218.92,83.631,221.506,72.329z M99.539,25.208c1.852-8.778,9.105-8.14,16.219-6.037
			c34.477,10.196,66.621,26.304,99.6,40.268c-1.027,1.956-1.906,4.057-2.579,6.343c-0.681,2.31-1.099,4.629-1.333,6.949
			c-13.891-6.729-27.809-13.386-42.078-19.289c-4.28-1.771-7.404,5.572-3.175,7.529c14.797,6.85,29.963,12.819,45.134,18.775
			c0.17,2.683,0.574,5.354,1.149,8.004c-12.535-3.467-26.255-4.287-38.978-5.66c-4.405-0.476-4.371,6.422,0,6.894
			c12.99,1.402,26.741,3.532,39.932,2.616c1.472,5.267,3.544,10.417,5.793,15.341c-0.232,0.018-0.465,0.035-0.696,0.053
			c-6.363,0.021-12.728,0.04-19.09,0.063c-29.243,0.107-58.486,0.278-87.729,0.462c-5.279-18.339-10.361-36.216-11.967-55.375
			C99.015,43.483,97.729,33.793,99.539,25.208z M13.885,180.852c-2.557-2.864-2.584-7.596-2.693-11.191
			c-0.176-5.738-0.188-11.492-0.172-17.231c0.014-5.247,0.023-10.494,0.041-15.741c0.018-4.901-0.645-11.177,4.607-13.619
			c3.545-1.647,7.87-1.373,11.662-1.368c6.097,0.007,12.191,0.08,18.287-0.01c46.612-0.69,93.227-1.473,139.836-2.366
			c6.943-0.133,13.888-0.25,20.832-0.373c0.148,10.324,1.043,20.696,1.628,30.97c0.597,10.476,1.123,20.955,1.607,31.437
			c-55.452,0.662-110.903,1.325-166.354,2.052c-5.724,0.075-11.449,0.191-17.174,0.225C22.064,183.66,16.78,184.098,13.885,180.852z
			 M27.96,195.515c2.274-0.045,4.509-0.132,6.619-0.148c12.882-0.093,25.763-0.198,38.644-0.307
			c8.381-0.071,16.762-0.142,25.143-0.213c-11.703,10.606-22.623,22.433-33.457,33.743c-10.67,11.137-20.982,22.49-30.902,34.249
			C32.219,240.375,30.404,217.916,27.96,195.515z M36.851,297.782c-0.819-9.558-1.585-19.12-2.346-28.682
			c11.572-12.062,23.13-24.148,34.87-36.042c12.838-13.006,26.684-25.159,39.364-38.299c12.85-0.109,25.7-0.22,38.55-0.327
			c11.024-0.093,22.049-0.178,33.072-0.266c-23.949,23.646-46.918,48.354-70.282,72.567c-23.438,24.291-46.628,48.81-69.487,73.644
			C39.314,326.18,38.066,311.982,36.851,297.782z M47.138,408.388c-2.13-20.375-4.075-40.768-5.932-61.168
			c25.12-24.67,49.873-49.699,74.376-74.985c25.139-25.943,50.871-51.444,75.197-78.153c6.437-0.051,12.871-0.105,19.308-0.155
			c0.689,15.859,1.327,31.719,1.839,47.584c-30.097,28.64-57.977,59.875-86.619,89.945c-26.004,27.299-52.766,54.201-77.553,82.672
			C47.551,412.214,47.338,410.302,47.138,408.388z M56.313,476.674c-2.573-6.061-3.068-12.979-3.81-19.438
			c-1.384-12.051-2.71-24.109-4.005-36.17c28.589-26.795,55.311-55.76,82.492-83.926c27.104-28.087,55.26-55.546,81.258-84.709
			c0.085,3.051,0.18,6.102,0.254,9.154c0.494,20.479,0.867,40.954,1.098,61.43c-12.529,12.428-23.717,26.341-35.297,39.638
			c-12.85,14.755-25.934,29.305-39.246,43.644c-24.693,26.597-49.946,52.671-75.588,78.356
			C60.367,482.868,57.862,480.324,56.313,476.674z M211.414,495.407c-15.205-0.197-30.406-0.579-45.597-1.172
			c-3.942-0.154-7.884-0.321-11.825-0.498c12.118-11.685,23.558-23.981,34.436-36.869c8.497-10.065,17.295-20.632,24.861-31.789
			C212.83,448.526,212.092,471.965,211.414,495.407z M213.543,411.119c-10.544,13.572-20.019,28.075-30.636,41.596
			c-11.011,14.022-22.689,27.577-34.724,40.744c-10.472-0.501-20.94-1.075-31.404-1.74c-8.171-0.52-16.337-1.08-24.492-1.81
			c-7.395-0.662-15.104-0.857-22.322-2.707c-0.506-0.13-1.002-0.274-1.494-0.425c26.686-24.103,52.381-49.277,77.057-75.44
			c13.42-14.228,26.613-28.669,39.573-43.316c9.778-11.052,19.802-22.22,28.608-34.156
			C213.93,359.612,213.902,385.361,213.543,411.119z M217.004,152.047c-0.925-11.029-1.646-22.23-3.258-33.229
			c22.699-0.389,45.4-0.731,68.102-1.067c0.379,20.908,0.913,41.813,1.498,62.715c-21.343,0.259-42.685,0.521-64.027,0.775
			C218.604,171.506,217.818,161.774,217.004,152.047z M221.793,495.51c6.305-100.07,4.982-200.934-1.543-300.949
			c-0.016-0.239-0.033-0.477-0.049-0.715c21.169-0.165,42.338-0.33,63.507-0.496c0.641,22.469,1.3,44.936,1.824,67.408
			c1.169,50.077,1.629,100.181,2.001,150.27c0.209,27.925,0.173,55.848,0.943,83.763C266.255,495.412,244.021,495.67,221.793,495.51
			z M293.98,196.381c-0.051-1.037-0.105-2.074-0.157-3.11c0.892-0.007,1.782-0.014,2.673-0.021
			c17.518-0.139,35.035-0.306,52.553-0.482c-9.217,10.93-18.211,22.065-27.336,33.063c-8.515,10.264-17.282,20.533-25.276,31.282
			C295.77,236.861,294.98,216.614,293.98,196.381z M327.456,230.078c10.403-12.461,21.021-24.782,31.228-37.408
			c20.235-0.209,40.473-0.439,60.709-0.665c-3.633,4.258-7.038,8.755-10.551,13.026c-5.654,6.877-11.309,13.755-16.963,20.632
			c-11.084,13.479-22.166,26.958-33.25,40.438c-20.174,24.538-40.852,48.773-59.973,74.154c-0.566-24.927-1.173-49.86-1.952-74.788
			C307.59,254.309,317.489,242.016,327.456,230.078z M462.58,386.559c-1.676,16.349-3.577,32.68-5.855,48.956
			c-1.761,12.567-2.465,27.252-9.212,38.37c-7.396,12.188-22.669,12.545-35.359,13.678c-16.659,1.487-33.339,2.767-50.031,3.835
			c-4.552,0.292-9.106,0.56-13.661,0.82c10.764-12.218,20.294-25.787,29.899-38.809c11.987-16.251,23.71-32.68,35.173-49.304
			c11.264-16.333,22.253-32.83,32.947-49.539c7.064-11.037,14.457-22.06,21.199-33.403
			C466.465,342.968,464.814,364.763,462.58,386.559z M468.533,304.456c-10.322,14.468-19.341,29.969-29.042,44.837
			c-10.834,16.606-21.782,33.147-32.854,49.596c-11.064,16.438-22.279,32.784-33.625,49.029
			c-10.301,14.75-21.524,29.231-30.879,44.649c-14.713,0.797-29.436,1.447-44.166,1.93c0.691-15.22,1.117-30.476,1.375-45.742
			c47.923-60.71,95.019-122.125,140.7-184.55c6.523-8.915,13.048-17.829,19.571-26.743c3.487-4.767,7.376-9.538,11.023-14.445
			C470.39,250.197,469.777,277.336,468.533,304.456z M470.729,209.793c-5.109,5.786-9.512,12.48-14.117,18.525
			c-6.059,7.954-12.117,15.908-18.178,23.862c-11.896,15.616-23.691,31.303-35.459,47.016
			c-23.926,31.946-47.363,64.26-70.801,96.566c-11.052,15.235-21.883,30.598-32.715,45.978c0.414-31.573,0.057-63.189-0.648-94.678
			c23.123-24.891,44.511-51.426,66.359-77.43c11.215-13.348,22.43-26.695,33.643-40.043c5.493-6.538,10.986-13.075,16.479-19.613
			c4.982-5.93,10.4-11.742,14.897-18.09c5.53-0.062,11.06-0.12,16.589-0.182c7.902-0.088,16.01,0.247,23.999-0.092
			C470.776,197.675,470.758,203.735,470.729,209.793z M497.91,126.467c-1.006,5.902-2.033,11.8-3.049,17.7
			c-0.945,5.483-1.793,10.981-2.71,16.47c-0.73,4.369-1.354,9.662-4.237,13.224c-5.443,6.729-18.621,4.738-26.108,4.807
			c-46.516,0.428-93.033,0.75-139.546,1.329c-9.702,0.121-19.404,0.234-29.105,0.353c-1.117-20.92-2.428-41.818-4.13-62.703
			c58.708-0.866,117.419-1.718,176.101-3.251c3.822-0.1,7.638-0.285,11.449-0.499c2.021,0.057,4.044,0.106,6.065,0.167
			c3.581,0.106,12.55-1.211,15.193,1.809C499.947,118.287,498.382,123.698,497.91,126.467z"/>
	</g>
</g>
<g>
</g>
<g>
</g>
<g>
</g>
<g>
</g>
<g>
</g>
<g>
</g>
<g>
</g>
<g>
</g>
<g>
</g>
<g>
</g>
<g>
</g>
<g>
</g>
<g>
</g>
<g>
</g>
<g>
</g>
</svg>
