<?xml version="1.0" encoding="iso-8859-1"?>
<!-- Generator: Adobe Illustrator 19.0.0, SVG Export Plug-In . SVG Version: 6.00 Build 0)  -->
<svg version="1.1" id="Capa_1" xmlns="http://www.w3.org/2000/svg" xmlns:xlink="http://www.w3.org/1999/xlink" x="0px" y="0px"
	 viewBox="0 0 511.997 511.997" style="enable-background:new 0 0 511.997 511.997;" xml:space="preserve">
<g>
	<g>
		<path d="M418.16,447.651c-5.152-1.759-10.613-1.444-15.954-1.121c-6.137,0.372-12.282,0.643-18.422,0.961
			c1.173-0.986,2.233-2.109,3.112-3.416c3.356-4.987,3.604-11.102,3.431-16.92c-0.506-16.958-2.56-33.873-5.98-50.483
			c-0.115-0.556-0.324-1.037-0.597-1.453c4.517-4.922,7.176-12.097,8.247-18.547c1.838-11.064,3.913-25.216-5.446-33.64
			c-4.61-4.149-10.799-5.337-16.831-5.495c-5.092-0.133-10.23,0.162-15.352,0.501c-2.162-17.608-4.712-35.167-7.461-52.693
			c-1.022-6.521-1.283-14.73-5.961-19.937c-4.546-5.06-10.9-4.937-17.107-4.416c-0.554-3.875-0.986-7.849-1.195-11.841
			c8.372,0.031,16.357-5.899,18.435-14.373c2.851-11.63-5.833-22.622-6.031-34.163c-0.021-1.196-0.861-2.168-1.895-2.634
			c-0.434-1.156-1.806-2.072-3.278-1.411c-10.172,4.569-18.893,12.989-23.236,23.336c-4.549,10.836-1.993,23.543,9.856,28.099
			c0.064,0.025,0.129,0.044,0.193,0.068c-0.596,4.355-0.675,8.788-0.116,13.379c-5.907,0.144-13.233,0.208-17.036,4.114
			c-5.019,5.156-2.99,14.762-2.748,21.118c0.691,18.113,1.707,36.089,3.359,54.129c-8.569,0.401-17.139,0.801-25.708,1.212
			c-1.263-17.827-2.638-35.637-4.143-53.446c-0.561-6.634-0.555-14.97-6.605-19.261c-3.953-2.804-9.265-3.128-14.379-3.097
			c-1.363-3.821-2.42-7.809-3.025-11.852c1.64-0.169,3.256-0.541,4.796-1.142c11.471-4.481,17.179-17.612,15.582-29.311
			c-1.653-12.107-10.013-23.196-21.578-27.367c-3.439-1.24-5.405,3.962-2.43,5.763c0.057,0.035,0.112,0.072,0.169,0.107
			c0.994,7.235-6.087,13.473-10.38,18.677c-4.166,5.05-7.638,11.237-6.984,18.003c0.756,7.827,7.017,13.214,14.189,14.853
			c-0.035,4.098,0.552,8.217,1.882,12.292c-6.874-0.314-17.017-2.617-22.5,2.197c-5.684,4.992-3.026,16.994-2.754,23.431
			c0.735,17.373,0.945,34.987,3.699,52.203c-7.224,0.038-14.447,0.045-21.671,0.008c-2.118-22.405-6.054-44.977-13.365-66.302
			c-2.651-7.732-7.24-14.075-15.701-15.674c-2.598-0.491-5.149-0.474-7.676-0.203c0.175-2.453,0.234-4.889,0.191-7.313
			c5.585-1.243,10.313-5.854,12.752-11.021c8.201-17.367-3.814-33.535-14.45-46.367c-2.268-2.736-6.167-0.261-6.404,2.653
			c-0.467,5.743-4.752,9.973-8.051,14.356c-3.411,4.532-6.022,9.256-6.603,15.004c-0.807,8.001,2.576,15.226,8.362,19.954
			c2.301,2.597,5.19,4.605,8.283,5.363c-0.226,2.878-0.566,5.744-1.017,8.583c-4.985,1.075-9.954,2.274-15.077,1.656
			c-3.579-0.433-5.199,3.509-4.799,6.299c1.833,12.771,5.255,25.232,6.695,38.113c1.25,11.182,2.424,22.891,1.837,34.22
			c-6.757-0.126-13.7-0.372-20.336,0.832c-12.434,2.255-18.449,13.354-15.164,25.16c1.502,5.397,4.3,9.944,7.934,13.607
			c-0.089,0.274-0.152,0.57-0.153,0.909c-0.061,15.448-0.257,30.894-0.412,46.341c-0.073,7.221-0.277,14.454-0.211,21.674
			c0.049,5.339,0.61,10.842,3.829,15.288c0.189,0.261,0.388,0.51,0.589,0.755c-8.657-0.532-17.612-1.238-26.092-0.374
			c-7.755,0.79-15.867,5.487-16.519,14.087c-0.602,7.932,6.017,12.347,12.998,13.647c7.368,1.371,15.044,1.232,22.615,1.276
			c1.576,18.104,17.811,26.729,34.438,29.164c21.733,3.183,44.299,3.092,66.223,4.042c22.911,0.992,45.819,1.941,68.754,2.081
			c22.29,0.136,45.199,0.565,67.338-2.343c17.024-2.235,41.337-11.199,45.662-30.284c7.039-0.084,14.245-0.218,20.962-1.818
			c6.619-1.577,13.042-5.48,14.209-12.691C431.232,456.821,425.309,450.093,418.16,447.651z M345.227,318.614
			c-10.434,0.547-20.87,1.052-31.306,1.548c4.532-2.346,9.066-4.69,13.538-7.137c5.27-2.883,10.84-5.753,15.987-9.053
			C344.044,308.852,344.637,313.732,345.227,318.614z M340.082,277.467c0.898,6.734,1.755,13.474,2.592,20.217
			c-6.165,3.126-12.099,7.144-17.858,10.818c-6.04,3.853-11.962,7.905-17.933,11.871c0.268-8.931,0.425-17.841,0.418-26.761
			C318.522,288.758,329.577,283.748,340.082,277.467z M336.701,254.836c1.478,5.398,1.977,11.193,2.635,16.808
			c-11.25,5.202-21.679,11.65-32.031,18.381c-0.022-3.444-0.073-6.891-0.158-10.341c-0.076-3.065-0.14-6.131-0.207-9.196
			c9.998-5.073,20.404-9.962,29.528-16.396C336.552,254.329,336.63,254.576,336.701,254.836z M314.124,199.114
			c3.012-7.039,8.083-12.599,14.417-16.609c-1.245,6.001,0.979,11.977,2.92,17.851c1.271,3.844,2.774,8.186,1.807,12.27
			c-1.081,4.562-5.36,8.223-10.087,8.333c-0.211,0.005-0.411-0.005-0.615-0.008c0.147-4.018,0.587-7.995,1.442-11.841
			c0.183-0.822-1.062-1.466-1.441-0.607c-1.721,3.895-3.158,7.75-4.232,11.627C311.025,217.038,311.156,206.05,314.124,199.114z
			 M306.495,253.073c0.754-1.457,1.825-1.178,3.511-1.427c3.511-0.519,7.042-0.932,10.56-1.397c4.223-0.559,9.132-1.851,12.532-0.2
			c-9.159,4.408-17.751,10.306-26.269,15.973c-0.067-2.779-0.131-5.559-0.225-8.336C306.575,256.799,306,254.028,306.495,253.073z
			 M264.818,322.499c-6.699,0.33-13.398,0.662-20.096,1.02c-1.683,0.09-3.363,0.198-5.044,0.303
			c8.173-4.449,16.309-8.954,24.386-13.593C264.313,314.319,264.558,318.409,264.818,322.499z M261.791,268.58
			c0.109,2.224,0.219,4.448,0.329,6.672c-12.224,5.254-23.871,12.109-35.41,18.794c0.021-3.389,0.018-6.777,0.014-10.159
			c-0.002-2.868,0.005-5.737,0.009-8.607c11.595-4.989,22.939-10.365,33.973-16.534C261.97,261.566,261.645,265.604,261.791,268.58z
			 M240.55,225.666c-3.356-1.102-6.286-3.716-6.741-7.305c-0.738-5.822,4.281-11.104,7.562-15.357
			c3.813-4.943,7.045-10.79,6.787-16.703c5.747,4.951,9.897,11.526,10.459,19.416c0.576,8.07-3.941,19.254-12.885,20.427
			c0.09-4.871,0.964-9.705,2.907-14.297c0.689-1.629-1.563-3.088-2.45-1.433C243.576,215.286,241.617,220.419,240.55,225.666z
			 M229.35,255.323c3.952-0.134,7.917-0.176,11.871-0.222c3.448-0.04,9.595-1.005,14.175-0.014
			c-9.857,5.377-19.341,11.279-28.658,17.534c0-4.253-0.023-8.507-0.128-12.758C226.519,256.216,225.523,255.453,229.35,255.323z
			 M226.666,298.469c12.032-5.17,24.319-10.256,35.787-16.596c0.391,7.73,0.831,15.455,1.292,23.179
			c-10.982,6.125-21.791,12.491-32.588,18.92c-1.973,0.017-3.946,0.041-5.919,0.056
			C226.206,315.549,226.548,307.009,226.666,298.469z M188.618,324.023c-5.93-0.063-11.86-0.152-17.792-0.277
			c-4.968-0.105-9.937-0.157-14.905-0.203c10.431-5.382,21.009-10.749,30.789-17.22C187.491,312.21,188.133,318.113,188.618,324.023
			z M185.792,299.863c-12.021,6.282-23.181,14.331-34.333,22.039c0.019-7.921,0.2-15.793-0.002-23.694
			c5.806-3.141,11.618-6.273,17.355-9.535c4.471-2.542,9.228-4.924,13.611-7.74C183.717,287.209,184.834,293.524,185.792,299.863z
			 M179.315,267.205c0.63,2.545,1.226,5.1,1.799,7.659c-5.22,2.604-10.168,6.016-15.102,9.019
			c-4.957,3.018-9.854,6.134-14.747,9.256c-0.099-1.961-0.218-3.925-0.389-5.894c-0.39-4.477-0.8-9.094-1.341-13.728
			c4.682-2.502,9.394-4.946,14.024-7.544c4.5-2.524,9.365-4.837,13.615-7.851C178.062,261.13,178.609,264.351,179.315,267.205z
			 M148.059,219.589c-2.426-5.618-2.046-12.285,1.798-18.092c3.219-4.862,7.319-9.089,9.591-14.228
			c6.838,7.676,12.028,17.416,9.916,27.875c-0.848,4.197-3.754,9.82-8.08,11.761c-0.498-4.761-1.337-9.503-2.48-14.264
			c-0.615-2.561-4.284-1.432-3.876,1.068c0.73,4.477,1.034,9.022,1.019,13.573C152.405,226.198,150.307,222.62,148.059,219.589z
			 M165.505,248.965c3.95-0.078,7.635,0.8,9.719,4.346c-4.957,2.266-9.551,5.575-14.151,8.409
			c-4.063,2.503-8.049,5.125-12.053,7.719c-0.734-5.374-1.693-10.721-3.088-15.844C152.473,251.918,158.794,249.097,165.505,248.965
			z M123.717,335.381c6.195-0.955,12.802,0.016,19.028,0.081c8.02,0.083,16.051,0.183,24.07,0.033
			c34.095-0.64,68.214-1.712,102.275-3.364c21.818-1.059,43.565-2.73,65.312-4.494c7.737-0.116,15.474-0.219,23.211-0.298
			c5.84-0.06,12.571-0.872,18.2,1.156c6.388,2.302,7.888,7.77,7.849,13.999c-0.053,8.444-1.843,32.279-15.214,29.806
			c-8.178-1.513-11.776-12.887-18.211-17.302c-7.861-5.394-16.232-2.158-23.445,2.577c-3.533,2.319-7.377,5.66-11.609,6.467
			c-5.482,1.046-9.754-3.376-13.34-6.855c-8.212-7.97-17.396-11.891-28.882-8.635c-11.822,3.351-20.045,12.096-29.335,19.528
			c-9.048,7.239-19.501,10.435-30.773,6.358c-5.241-1.896-9.521-5.325-12.906-9.695c-3.267-4.218-6.109-9.124-10.881-11.836
			c-12.178-6.922-22.798,4.222-32.692,9.657c-9.638,5.294-22.034,4.156-31.059-1.913
			C117.167,355.171,108.646,337.704,123.717,335.381z M321.89,401.79c18.595-0.06,37.19-0.203,55.784-0.411
			c0.589,5.292,1.146,10.589,1.657,15.892c0.063,0.648,0.136,1.307,0.214,1.973c-32.668-1.307-65.564-0.511-98.246-0.737
			c-34.187-0.237-68.374-0.494-102.561-0.71c-18.514-0.118-37.032-0.03-55.547-0.021c-0.088-2.507-0.176-5.014-0.278-7.519
			c-0.15-3.69-0.3-7.38-0.452-11.07C188.92,401.277,255.397,402.006,321.89,401.79z M122.252,394.079
			c-0.361-8.86-0.716-17.721-1.033-26.583c12.262,8.034,29.711,8.656,42.297,0.593c5.805-3.72,13.971-12.047,21.497-8.251
			c5.298,2.672,7.59,9.714,11.243,14.094c7.382,8.853,19.809,14.144,31.324,13.181c13.867-1.16,23.362-9.815,33.149-18.781
			c5.076-4.65,10.289-9.31,17.028-11.336c7.07-2.126,12.314,0.103,17.572,4.821c8.085,7.255,15.683,13.773,26.934,8.621
			c8.128-3.722,17.424-17.354,26.291-7.98c6.464,6.835,9.313,17.535,20.127,18.667c2.354,0.246,4.511,0.052,6.489-0.485
			c0.624,4.76,1.206,9.524,1.765,14.291c-66.737,0.883-133.443,0.46-200.18-0.139C158.586,394.627,140.418,394.383,122.252,394.079z
			 M325.54,425.821c18.245,0.183,36.564,0.839,54.813,0.454c0.26,2.879,0.351,5.756-0.061,8.47
			c-0.853,5.619-4.952,7.795-10.102,8.91c-12.401,2.686-25.898,2.66-38.535,3.571c-13.291,0.958-26.594,1.726-39.907,2.305
			c-26.636,1.157-53.249,1.384-79.901,0.706c-13.33-0.339-26.63-1.104-39.93-2.043c-6.317-0.446-12.631-0.943-18.948-1.393
			c-6.597-0.469-13.621-0.364-20.072-1.915c-6.957-1.672-8.707-6.301-9.095-12.956c-0.166-2.834-0.288-5.672-0.399-8.511
			C190.778,424.552,258.158,425.145,325.54,425.821z M372.378,492.706c-7.448,5.23-17.127,7.27-26.005,8.341
			c-19.65,2.372-39.848,2.238-59.614,2.298c-40.256,0.122-80.378-2.227-120.536-4.761c-10.411-0.657-21.239-1.032-31.059-4.935
			c-7.588-3.016-16.093-9.276-19.516-17.004c1.241,0.021,2.477,0.055,3.706,0.107c11.057,0.473,22.114,0.921,33.171,1.381
			c22.451,0.935,44.911,1.653,67.376,2.157c44.921,1.008,89.861,0.874,134.783-0.057c9.561-0.199,19.121-0.444,28.68-0.721
			C380.707,484.671,377.295,489.253,372.378,492.706z M420.612,463.644c-0.43,3.079-4.115,4.296-6.664,4.914
			c-7.662,1.859-16.242,1.05-24.072,1.347c-9.718,0.369-19.437,0.697-29.158,0.985c-76.996,2.282-154.331,2.806-231.313-0.264
			c-10.725-0.427-21.465-0.875-32.158-1.853c-3.104-0.284-7.962-0.645-9.944-3.493c-3.172-4.559,4.152-7.405,7.44-7.906
			c10.009-1.525,20.673-0.625,30.786-1.057c3.972-0.169,7.928-0.454,11.878-0.772c5.435,0.518,10.993,0.381,15.56,0.641
			c14.615,0.83,29.265,1.091,43.9,1.302c24.606,0.354,49.199,0.631,73.801,0.329c19.145,0.963,38.543-0.523,57.698-1.04
			c18.959-0.512,37.918-1.032,56.875-1.606c8.816-0.267,19.463-2.155,28.044,0.354C416.53,456.471,421.171,459.639,420.612,463.644z
			"/>
	</g>
</g>
<g>
	<g>
		<path d="M152.856,115.199c-2.194,0.623-4.396,1.192-6.604,1.745c-0.851-6.989-2.728-13.868-4.504-20.663
			c-1.43-5.469-2.51-11.386-4.492-16.808c4.932-0.781,10.016-1.619,14.494-3.688c4.33-2.001,2.23-9.383-2.447-9.034
			c-5.549,0.415-11.009,2.431-16.446,3.627c-5.623,1.237-11.537,1.924-17.021,3.634c-4.268,1.331-3.357,7.413,1.037,7.664
			c3.974,0.227,8.116-0.248,12.171-0.871c0.298,5.757,1.75,11.691,2.617,17.239c1.114,7.125,2.036,14.49,4.195,21.393
			c-0.233,0.055-0.465,0.109-0.698,0.164c-5.484,1.29-11.418,2.039-16.512,4.508c-2.622,1.271-2.029,5.77,0.829,6.339
			c5.712,1.137,11.739-0.019,17.44-0.869c6.329-0.944,12.574-2.536,18.748-4.196C162.221,123.622,159.416,113.337,152.856,115.199z"
			/>
	</g>
</g>
<g>
	<g>
		<path d="M235.147,75.755c-0.853,6.6-1.228,13.213-2.347,19.789c-0.544,3.196-1.17,6.378-1.873,9.542
			c-0.479,2.158-0.699,6.26-2.141,8.097c-0.325,0.414-0.414,0.584-0.43,0.649c-0.694-0.259-1.801-3.501-1.969-3.92
			c-1.061-2.635-1.936-5.358-2.744-8.079c-1.948-6.562-3.314-13.227-3.649-20.069c-0.321-6.551-10.121-6.626-10.237,0
			c-0.107,6.109-1.031,11.982-2.901,17.808c-1.055,3.287-3.732,13.373-8.697,12.717c-3.666-0.484-4.49-11.042-5.136-13.831
			c-1.549-6.686-3.096-13.342-4.956-19.949c-0.861-3.06-6.009-2.599-5.729,0.775c0.841,10.127,2.205,20.23,3.588,30.298
			c0.992,7.221,4.781,13.796,12.968,13.619c8.129-0.176,13.289-6.124,16.475-13.77c0.156,0.477,0.298,0.956,0.463,1.43
			c2.235,6.45,5.966,15.123,14.388,13.66c8.326-1.446,9.91-11.76,11.427-18.495c2.206-9.793,4.211-20.206,4.298-30.272
			C246.007,68.599,236.01,69.081,235.147,75.755z"/>
	</g>
</g>
<g>
	<g>
		<path d="M268.598,95.588c-0.772-6.954-0.908-14.34-2.989-21.056c-0.587-1.895-3.78-2.226-4.18,0
			c-1.242,6.896-0.746,14.079-1.109,21.056c-0.382,7.336-1.572,15.146-0.922,22.452c0.61,6.859,9.968,6.822,10.641,0
			C270.756,110.78,269.401,102.825,268.598,95.588z"/>
	</g>
</g>
<g>
	<g>
		<path d="M312.003,105.932c-3.191-8.901-12.497-8.106-19.522-11.585c-3.766-1.865-3.997-6.416-1.49-9.565
			c3.488-4.381,10.154-3.793,14.835-2.188c3.563,1.222,5.986-4.425,2.581-6.123c-7.069-3.525-15.766-4.426-22.313,0.76
			c-5.578,4.419-7.968,12.708-4.708,19.211c1.673,3.338,4.525,5.572,7.923,7.014c3.534,1.5,7.929,1.655,11.169,3.724
			c4.409,2.815,0.118,5.689-3.588,5.761c-4.066,0.08-7.026-2.204-9.45-5.253c-3.838-4.829-10.393,1.319-8.047,6.209
			c3.504,7.302,12.397,11.225,20.25,9.772C307.623,122.193,315.037,114.397,312.003,105.932z"/>
	</g>
</g>
<g>
	<g>
		<path d="M356.501,72.225c-2.447-1.004-4.351,0.259-5.668,2.145c-0.275,0.394-0.524,0.815-0.748,1.248
			c-3.569,6.92-0.867,14.987-2.667,22.292c-0.091,0.372-0.207,0.762-0.487,1.022c-0.431,0.401-1.095,0.37-1.68,0.314
			c-4.265-0.404-8.528-0.847-12.799-1.181c1.143-5.534,2.379-11.426,2.042-16.743c-0.347-5.476-7.618-6.448-9.445-1.278
			c-2.276,6.443-2.311,14.603-2.975,21.406c-0.667,6.817-1.8,14.085-0.721,20.882c0.373,2.349,4.197,2.812,5.187,0.678
			c1.364-2.941,2.262-6.074,2.966-9.231c0.375-1.678,0.404-7.278,2.146-7.952c0.822-0.318,1.749-0.089,2.575,0.219
			c1.821,0.679,3.649,0.64,5.558,1.041c2.456,0.517,4.578-0.488,7.078-0.093c0.301,0.047,0.611,0.11,0.857,0.29
			c0.534,0.39,0.574,1.18,0.414,1.822c-1.014,4.077-1.282,8.217-1.026,12.438c0.308,5.078,8.217,6.822,9.367,1.268
			c1.45-7.003,1.138-14.538,1.583-21.668c0.478-7.657,0.749-15.368,1.813-22.968C360.215,75.719,358.815,73.172,356.501,72.225z"/>
	</g>
</g>
<g>
	<g>
		<path d="M376.5,113.861c-0.735-0.951-1.784-1.788-2.989-2.062c-1.012-0.23-2.047-0.23-3.059,0
			c-1.205,0.274-2.254,1.111-2.989,2.062c-0.773,1.001-1.235,2.206-1.235,3.486c0,0.622,0.113,1.248,0.314,1.845
			c0.38,1.301,1.353,2.461,2.504,3.138c1.25,0.734,3.067,1.091,4.465,0.565c0.749-0.178,1.401-0.521,1.957-1.03
			c0.432-0.255,0.776-0.6,1.032-1.032c0.773-1.001,1.235-2.206,1.235-3.487C377.736,116.067,377.274,114.863,376.5,113.861z"/>
	</g>
</g>
<g>
	<g>
		<path d="M397.435,115.407c-0.025-0.104-0.044-0.21-0.078-0.313c-0.403-1.246-1.077-2.267-2.118-3.071
			c-2.184-1.687-5.826-1.771-7.763,0.462c-0.899,1.037-1.582,2.039-1.906,3.397c-0.507,2.129,0.035,4.161,1.382,5.688
			c0.609,0.823,1.346,1.525,2.229,2.081c1.192,0.75,2.346,0.946,3.709,1.118c1.589,0.201,3.227-0.897,4.138-2.076
			c0.881-1.141,1.134-2.31,1.052-3.621C398.312,117.849,398.047,116.526,397.435,115.407z"/>
	</g>
</g>
<g>
	<g>
		<path d="M415.794,112.173c-1.233-1.133-2.75-1.847-4.459-1.847c-1.617,0-3.315,0.704-4.458,1.847
			c-1.094,1.093-1.917,2.888-1.847,4.458c0.073,1.631,0.609,3.322,1.847,4.459c1.234,1.133,2.75,1.847,4.458,1.847
			c1.617,0,3.315-0.704,4.459-1.847c1.094-1.093,1.917-2.888,1.847-4.459C417.568,115.001,417.032,113.31,415.794,112.173z"/>
	</g>
</g>
<g>
	<g>
		<path d="M462.262,62.524c-10.049-15.552-30.838-21.415-47.749-14.981c-11.956-14.698-29.375-24.236-48.225-26.282
			c-17.97-1.95-36.217,3.708-51.05,13.844c-30.51-25.046-71.298-44.589-110.871-30.23c-8.806,3.195-17.248,7.761-24.353,13.894
			c-3.404,2.938-5.961,7.251-9.527,9.875c-4.551,3.349-13.451-2.224-18.129-3.907c-19.922-7.169-42.641-11.368-62.138-0.546
			c-9.143,5.074-16.441,12.496-19.756,22.562c-2.711,8.233-2.589,17.482,1.02,25.333c-20.694,12.013-37.772,38.162-23.013,61.148
			c15.164,23.618,44.684,23.903,69.363,18.593c8.097,13.694,25.39,20.304,40.909,18.778c19.419-1.91,35.455-14.129,50.055-26.308
			c10.203,22.94,38.564,26.95,60.051,15.168c5.292-2.902,12.416-11.282,18.673-8.046c5.804,3,10.484,7.518,16.593,10.188
			c11.146,4.873,23.539,6.805,35.645,5.506c12.287-1.319,23.888-5.737,33.534-13.32c17.028,18.625,43.542,25.041,66.734,12.775
			c11.118-5.881,21.065-16.279,23.497-28.962c1.809-9.435-0.999-19.186-7.672-25.751C468.675,99.257,472.367,78.162,462.262,62.524z
			 M453.706,139.778c-3.562,9.812-12.605,17.175-22.039,21.024c-18.733,7.643-42.581,1.881-54.084-15.399
			c-1.714-2.576-4.613-2.698-6.919-0.892c-11.206,8.773-25.386,13.43-39.583,13.354c-6.829-0.036-13.579-1.189-20.03-3.437
			c-7.197-2.507-12.463-7.136-18.994-10.764c-6.966-3.869-13.114-2.014-19.347,2.184c-6.899,4.646-14.06,8.249-22.244,10.007
			c-13.923,2.991-32.714-3.16-36.689-18.409c-0.73-2.801-3.915-3.137-5.903-1.558c-13.835,10.983-29.496,23.593-47.797,25.266
			c-14.044,1.283-29.461-3.413-35.818-16.941c-0.874-1.859-3.359-2.583-5.215-2.122c-20.401,5.07-49.489,9.28-63.001-11.638
			c-5.936-9.188-5.256-20.65-0.125-30.055c5.517-10.113,14.85-16.571,24.523-22.277c2.843-1.677,2.892-5.143,0.964-7.483
			c-12.839-15.589,1.123-36.599,17.45-41.775c20.179-6.396,40.651,1.479,59.302,8.989c4.424,1.781,9.037,3.198,13.78,1.836
			c4.637-1.332,7.04-5.057,9.75-8.718c4.97-6.712,11.471-12.437,18.984-16.144c15.909-7.85,35.413-9.078,52.4-4.358
			c22.124,6.147,41.254,19.957,58.103,35.141c2.195,1.979,5.375,2.072,7.571,0c14.315-13.504,34.542-18.765,53.747-15.04
			c7.922,1.537,20.845,5.024,26.368,11.425c3.582,4.152,4.337,11.384,8.865,14.653c5.393,3.893,6.896,0.474,12.118-1.462
			c12.328-4.571,27.53,0.743,34.574,11.924c8.125,12.898,4.119,31.964-8.078,40.937c-2.652,1.951-3.232,6.06,0,7.894
			C454.71,120.689,456.838,131.149,453.706,139.778z"/>
	</g>
</g>
<g>
	<g>
		<path d="M452.212,204.434c-5.766-17.063-27.372-15.897-41.335-11.629c-7.25,2.217-13.872,4.161-15.028,12.785
			c-0.613,4.572,1.063,9.557,5.053,12.14c2.44,1.58,8.125,1.811,7.723,5.016c-0.384,3.062-2.205,4.944-1.275,8.337
			c3.717,13.574,23.344,9.509,32.173,4.341C450.031,229.271,456.24,216.351,452.212,204.434z M444.466,212.683
			c-0.757,11.022-11.845,17.885-22.137,17.955c-2.985,0.021-6.694-0.314-5.714-4.148c0.58-2.268,1.565-3.927,1.142-6.363
			c-0.727-4.182-4.568-6.5-8.319-7.584c-2.607-0.753-5.566-0.847-6.59-3.784c-0.942-2.704,0.514-5.562,2.521-7.325
			C414.879,193.077,445.559,196.757,444.466,212.683z"/>
	</g>
</g>
<g>
	<g>
		<path d="M467.909,260.34c-4.093-9.396-18.649-12.067-25.876-4.672c-10.557,10.805,2.452,29.986,16.447,25.518
			C466.775,278.537,471.386,268.322,467.909,260.34z M456.54,273.834c-4.081,1.712-8.927-1.018-10.706-4.827
			c-1.888-4.043,0.299-8.322,3.789-10.482c3.943-1.464,9.247,0.224,11.258,4.025C463.014,266.581,460.622,272.121,456.54,273.834z"
			/>
	</g>
</g>
<g>
</g>
<g>
</g>
<g>
</g>
<g>
</g>
<g>
</g>
<g>
</g>
<g>
</g>
<g>
</g>
<g>
</g>
<g>
</g>
<g>
</g>
<g>
</g>
<g>
</g>
<g>
</g>
<g>
</g>
</svg>
