<?xml version="1.0" encoding="iso-8859-1"?>
<!-- Generator: Adobe Illustrator 16.0.0, SVG Export Plug-In . SVG Version: 6.00 Build 0)  -->
<!DOCTYPE svg PUBLIC "-//W3C//DTD SVG 1.1//EN" "http://www.w3.org/Graphics/SVG/1.1/DTD/svg11.dtd">
<svg version="1.1" id="Capa_1" xmlns="http://www.w3.org/2000/svg" xmlns:xlink="http://www.w3.org/1999/xlink" x="0px" y="0px"
	 width="569.366px" height="569.365px" viewBox="0 0 569.366 569.365" style="enable-background:new 0 0 569.366 569.365;"
	 xml:space="preserve">
<g>
	<g>
		<path d="M206.26,124.145c-2.448,12.546-2.142,25.398-3.978,37.944c-0.918,5.508,6.732,7.956,8.568,2.448
			c3.672-12.24,3.978-24.786,7.344-37.026C220.336,119.555,207.791,116.495,206.26,124.145z"/>
		<path d="M441.574,462.887c-0.306-29.376-3.06-59.976-2.754-86.598c0.612-66.402-1.836-190.332-86.904-205.02
			c-0.918,0-1.529,0-2.142,0c0-6.732-6.426-14.382-7.956-21.42c-2.448-10.404-1.836-20.808-1.53-31.518
			c10.71-5.814,19.891-12.852,26.622-21.726c12.546-16.524,13.771-31.518,8.263-44.676c0.306-2.142-0.918-3.978-2.448-4.896
			c-17.748-30.6-72.216-49.266-103.428-46.818c-39.474,3.06-126.99,50.49-64.566,88.434c5.508,3.366,12.24,6.12,19.584,8.262
			c-1.53,2.448-2.142,5.202-2.754,7.956c-8.874-4.896-17.136-10.71-24.786-17.748c-1.53-1.53-4.59,0-3.672,2.142
			c18.666,46.512,87.516,53.856,135.557,34.884c-4.283,16.524,0,39.78,12.24,49.878c0.918,0.918,2.448,1.224,3.672,1.53
			c-1.836,3.366-0.918,7.956,3.979,8.874c33.66,5.814,52.02,31.212,62.424,62.118c-75.276,37.332-195.534,55.998-263.771-4.59
			c8.874-29.988,25.398-55.08,55.08-70.38c2.754-1.53,0.918-5.814-2.142-4.896c-112.914,33.966-70.074,205.326-55.386,289.477
			c6.12,35.189,2.448,74.357,38.862,91.8c46.512,22.644,126.684,24.786,176.867,18.054c42.229-5.813,64.26,1.224,75.888-46.206
			c3.366-13.77,4.591-29.07,5.202-44.676c0.918-1.53,1.836-2.754,2.754-4.284C445.858,467.477,444.022,464.417,441.574,462.887z
			 M347.02,97.523c1.53-5.202,2.754-11.322,2.754-16.83c1.53-0.918,2.754-2.142,3.978-3.06c0,3.366,0,6.732-0.918,9.792
			c-0.611,1.53,0.307,2.754,1.53,3.366C352.222,93.239,349.774,95.381,347.02,97.523z M227.375,107.621
			c0.306-3.366,0.918-6.426,1.836-9.486c5.508,1.224,11.322,2.448,17.442,3.06c0,4.896,1.53,10.098,3.366,14.688
			C242.062,113.741,234.413,111.293,227.375,107.621z M203.2,40.301c14.688-16.218,38.862-23.562,59.67-28.152
			c29.987-6.426,85.373,13.158,99.755,41.31c-23.867,30.294-76.806,37.332-111.995,36.72
			C225.844,89.567,175.048,71.207,203.2,40.301z M256.444,117.719c-0.918-5.202-1.836-10.71-3.06-15.912
			c4.896,0.306,9.792,0.612,14.688,0.306c0,5.814,1.836,11.934,3.978,17.442C266.849,119.249,261.646,118.637,256.444,117.719z
			 M338.758,103.337c-19.278,12.24-40.698,17.442-61.812,16.83c-1.53-6.12-2.142-11.934-1.836-18.054
			c5.508-0.306,11.322-0.918,16.83-1.53c0.306,4.896,0.612,9.792,1.53,14.688c0.306,2.142,4.284,2.142,4.59,0
			c0.918-5.508,1.224-10.404,1.53-15.606c6.426-1.224,12.546-2.448,18.666-4.284c0,4.59,0,9.18,0.306,13.77
			c0,4.284,6.732,4.284,6.732,0c0-5.202,0-10.71,0.306-15.912c4.896-1.836,9.485-3.672,14.076-5.814
			c-0.307,3.978-0.612,8.262-1.836,12.24C336.616,100.889,337.534,102.419,338.758,103.337z M390.472,549.484
			c-48.349,0-92.106,5.814-140.76-0.918c-22.95-3.06-54.774-6.426-73.44-21.113c-14.382-11.322-11.934-39.78-14.688-55.692
			c-0.612-2.754-0.918-5.813-1.53-9.18c40.698,30.906,99.144,38.556,147.798,43.452c32.13,3.365,85.067,6.119,116.892-14.688
			C420.154,524.087,410.667,549.484,390.472,549.484z M426.58,471.761c-62.117,50.185-210.221,18.054-268.973-21.114
			c-10.71-57.527-27.234-137.088-12.852-199.206c52.326,56.304,212.058,60.588,269.586,6.426
			c8.567,32.436,9.792,69.156,10.71,96.084c0.306,11.016,1.529,30.294,2.447,52.632c-3.06-4.896-7.649-8.568-13.77-9.18
			c-7.038-0.612-13.771,4.896-18.054,11.016c-3.979-2.448-9.181-3.672-14.076-5.202c13.464-36.107-6.426-74.357-42.229-87.516
			c-34.271-12.24-68.237-4.896-90.269,20.195c-2.754-1.836-5.202-3.672-7.956-5.508c0.918-0.611,1.53-1.836,1.53-3.366
			c-0.612-7.649-3.366-26.621-15.912-21.42c-9.18,3.979-10.71,15.912-9.792,25.398c-7.344-2.754-15.912-5.814-22.338,0
			c-5.508,5.202-3.672,14.076-0.612,19.89c3.366,6.732,10.71,12.546,18.36,11.935c7.344-0.307,12.546-5.508,15.606-11.935
			c3.06,1.225,6.12,1.836,9.486,2.754c-0.612,0.918-0.918,1.836-1.53,2.754c-13.158,28.152-5.814,65.179,24.48,72.828
			c-5.202,7.345-10.71,16.83-6.12,25.093c4.59,8.262,13.464,1.836,19.278-3.979c2.448,6.732,5.814,13.464,13.464,14.076
			c5.508,0.306,9.18-4.59,11.934-10.098c3.672,6.119,8.874,11.016,16.524,9.18c9.792-2.143,9.485-14.382,7.344-23.562
			c17.136,0.612,34.271-5.813,46.206-18.054c2.754,2.448,6.426,3.672,9.18,6.426c6.426,6.12,13.464-7.649,3.672-8.874
			c-2.754-0.306-5.813-1.224-8.262-2.447c1.836-2.448,3.366-4.896,4.896-7.345c2.448,1.225,4.896,2.448,7.345,3.366
			c2.142,0.918,3.978,1.836,6.12,2.754c0,3.979,5.201,6.427,7.955,2.448c3.061-4.59,6.427-11.628,12.547-11.934
			c3.672-0.307,6.426,3.06,8.262,6.12c1.836,3.365,2.142,7.344,0,10.403c-3.061,4.59-12.546,2.754-16.524,1.225
			c-3.365-1.53-6.731,0.918-6.12,4.59c1.225,7.038,1.837,17.136-7.344,18.972c-8.874,1.836-2.448-13.464-1.224-15.912
			c1.224-2.142-1.836-4.59-3.672-2.754c-4.59,5.202-8.568,11.017-7.344,18.36c0.918,5.508,6.119,8.262,11.016,8.567
			c12.24,0.612,18.054-12.239,17.136-23.256c7.038,1.225,14.076,1.53,19.584-3.672c0.612-0.612,0.918-1.224,1.225-1.836
			C427.804,441.772,427.498,457.073,426.58,471.761z M293.47,431.062c5.813,3.672,12.239,6.12,18.972,7.65
			c1.53,4.896,2.754,9.792,1.53,14.688c-1.836,7.345-10.404-11.628-10.71-12.852c-1.225-4.284-7.956-4.59-9.181,0
			c-1.224,4.896-2.447,11.934-6.731,15.3c-3.671,2.754-7.344-13.464-7.65-14.994c-0.612-3.365-5.202-3.978-7.344-1.836
			c-2.448,2.448-5.202,5.202-7.956,7.345c-0.918,0.611-1.224,1.224-1.224,1.529c0-0.306,0-0.306,0-0.611
			c0.306-5.509,3.672-11.629,6.426-16.219c0.918,0,1.836,0.307,2.754,0.307c3.672,0,4.284-5.202,0.918-6.427
			c-33.354-10.71-39.474-39.474-24.174-69.155c17.748-34.272,56.609-42.229,90.269-27.847c27.54,11.628,41.311,41.005,32.437,69.462
			c-11.322,35.803-46.512,31.213-75.276,26.622C292.246,422.801,289.186,428.615,293.47,431.062z M227.375,337.427
			c-0.918,1.224-1.836,2.448-2.754,3.672c-0.306,0-0.612-0.306-1.224-0.306c-2.754-0.306-3.978,3.366-2.448,5.202
			c-2.448,3.06-5.508,5.813-9.486,6.426c-0.918,0.306-2.754-0.306-4.284-1.224c-1.53-0.918-3.672-2.755-4.896-4.591
			c-1.224-1.836-2.142-3.672-2.448-6.12c-0.306-1.224,0-3.365,0.612-3.978c3.672-4.284,14.688-0.612,18.666,1.224
			c2.448,1.225,4.896-0.918,4.59-3.365c-1.224-7.038-0.918-15.606,4.59-20.809c4.59-4.284,4.896,10.71,4.896,12.853l0,0
			c-3.672-1.225-5.508,3.978-2.448,6.12c4.896,3.365,10.098,5.201,15.606,6.731c-2.142,2.754-3.978,5.508-5.814,8.262
			c-3.06-2.142-6.12-3.978-9.486-5.201c0.306-1.53,0.612-2.755,0.612-4.284C231.964,335.896,228.599,335.896,227.375,337.427z"/>
		<path d="M282.455,378.737c-0.612-6.732,0.306-13.465,0.306-19.891c0-4.284-6.426-6.426-8.568-2.448
			c-3.366,6.732-3.672,14.688-4.59,22.339c-0.612,7.037-2.448,15.605,2.754,21.42c4.59,5.201,12.24,0.611,12.546-5.202
			C285.208,389.753,283.066,383.938,282.455,378.737z"/>
		<path d="M324.07,381.491c-2.448-8.568-0.306-19.278,1.836-27.54c1.53-6.12-7.038-8.263-9.18-2.448
			c-5.202,14.076-12.546,46.206,4.59,55.08c3.979,2.142,8.262-0.612,8.568-4.896C330.802,394.648,326.212,388.223,324.07,381.491z"
			/>
	</g>
</g>
<g>
</g>
<g>
</g>
<g>
</g>
<g>
</g>
<g>
</g>
<g>
</g>
<g>
</g>
<g>
</g>
<g>
</g>
<g>
</g>
<g>
</g>
<g>
</g>
<g>
</g>
<g>
</g>
<g>
</g>
</svg>
