<?xml version="1.0" encoding="iso-8859-1"?>
<!-- Generator: Adobe Illustrator 16.0.0, SVG Export Plug-In . SVG Version: 6.00 Build 0)  -->
<!DOCTYPE svg PUBLIC "-//W3C//DTD SVG 1.1//EN" "http://www.w3.org/Graphics/SVG/1.1/DTD/svg11.dtd">
<svg version="1.1" id="Capa_1" xmlns="http://www.w3.org/2000/svg" xmlns:xlink="http://www.w3.org/1999/xlink" x="0px" y="0px"
	 width="587.44px" height="587.44px" viewBox="0 0 587.44 587.44" style="enable-background:new 0 0 587.44 587.44;"
	 xml:space="preserve">
<g>
	<g>
		<path d="M583.289,79.424c-15.911-2.448-29.376-8.568-43.451-16.218c-0.919-0.306-1.53-0.612-2.448-0.612
			c-0.307-3.06-2.143-4.59-4.59-5.508c-0.612-4.59-5.509-8.874-11.017-6.12c-80.478,40.392-160.956,76.5-253.368,57.528
			C180.899,90.44,100.421,53.414,9.845,50.66c-3.672,0-6.732,3.06-6.732,6.732c-0.612,33.354-4.59,66.402,6.732,98.226
			c10.71,29.682,31.518,26.01-4.896,54.162c-3.06,2.448-2.448,8.874,1.224,10.404c10.71,4.59,20.502,9.486,30.6,14.994
			c-9.18,2.754-18.972,5.814-23.256,6.732c-3.06,0.612-4.59,3.672-4.896,6.426c-4.896,49.266-18.054,101.897,2.754,149.328
			c5.814,13.158,20.196,25.397,33.66,29.988c15.912,5.508,16.83-0.307,6.12,14.382c-8.874,12.546-14.382,26.928-23.562,39.474
			c-1.836,2.448-0.306,5.202,1.836,6.426c23.868,59.059,85.986,53.244,140.454,42.534c126.684-24.786,255.816-8.568,383.418,4.896
			c6.426,0.611,7.956-7.345,4.59-11.322c-11.935-14.994-25.092-25.398-40.393-36.108c2.754-2.754,2.754-7.956-2.142-9.485
			c-1.53-0.612-2.754-0.918-4.284-1.225c-3.978-11.016-9.18-21.113-16.218-30.294c-5.508-7.038-5.814-10.403-3.06-12.24
			c17.136,7.956,36.414,10.71,52.938,20.503c1.224,0.918,2.754,0.918,3.979,0.306c-3.366,20.196,1.224,43.758,6.119,63.036
			c1.225,4.896,8.568,2.754,7.345-2.143c-2.143-10.403-3.672-21.113-4.284-31.823c-0.612-10.099,0.612-20.196-0.918-29.988
			c-0.307-2.143-2.448-3.061-4.59-3.061c18.054-47.735,32.742-95.472,28.764-147.186c-0.306-2.448-1.224-3.978-3.06-5.202
			c20.808-74.358-35.496-138.006,7.956-210.528C588.798,85.544,587.268,80.036,583.289,79.424z M505.26,494.666
			c11.321,7.649,22.031,15.912,31.518,25.092c-100.674-10.404-201.348-19.584-302.94-14.994
			c-63.036,2.754-154.836,54.774-194.616-16.218c156.06,3.672,307.836-23.256,463.284-0.918
			C501.894,490.076,502.506,492.83,505.26,494.666z M473.436,427.04c-4.284,0.918-6.426,7.344-2.754,10.098
			c12.546,10.099,21.42,23.256,30.6,36.108c-63.342-17.748-135.558-12.546-199.817-10.099
			c-86.599,3.366-172.891,11.322-259.183,14.994c10.71-15.912,18.666-33.354,33.66-46.512c3.366-3.06,1.53-9.18-2.754-10.098
			c-55.998-12.24-61.812-54.774-58.752-103.734c2.448-39.168,0-63.954,41.922-74.664c5.508-1.53,6.732-9.486,1.53-12.24
			c-33.66-18.666-36.108-16.524-9.792-45.594c3.06-3.366,2.448-7.956-1.224-10.404c-34.578-21.726-32.13-53.55-31.212-87.516
			c1.224-41.922,58.752-17.136,85.986-11.016c61.2,13.464,119.646,36.72,180.846,49.572c84.762,17.748,168.606-22.95,242.046-59.976
			c-1.224,37.944-19.584,84.762-10.403,122.094c5.813,23.256,13.158,87.822-8.874,104.652c-3.672,2.754-4.896,9.18,0,11.628
			C553.607,328.508,518.417,416.33,473.436,427.04z M563.399,382.976c-4.59,20.196-11.628,39.78-18.666,59.364
			c-13.77-5.508-28.764-7.65-43.146-12.24c4.284-1.224,9.181-3.366,12.853-7.344c29.988-30.294,23.562-74.052,23.256-113.526
			c0-2.142-1.224-4.59-3.366-5.813l-18.972-9.486c2.448,1.225,4.284,1.837,5.813,1.53c0.307,0.307,0.612,0.918,1.225,1.225
			c13.77,8.873,33.966,10.403,49.878,12.545C575.027,310.147,564.93,375.938,563.399,382.976z M573.191,297.602L573.191,297.602
			c-14.688-1.224-29.682-5.202-44.063-8.568c7.344-11.016,7.649-20.196,4.59-34.578c10.71,50.49-4.284-85.374-7.345-96.39
			c1.225-27.54,10.404-54.468,11.322-82.314c18.054,8.262,35.19,9.486,24.786,31.824c-7.344,15.3-8.568,32.436-8.874,49.266
			C553.607,206.108,582.065,246.806,573.191,297.602z"/>
		<path d="M109.602,296.378c1.53-34.884,7.344-69.462,8.874-104.346c0-2.754-4.284-3.366-4.59-0.612
			c-5.202,34.884-10.098,69.768-13.77,104.958c0,1.224-0.306,2.448-0.306,3.672c-1.53,0-3.06,0.306-4.59,0.306
			c-3.978,0-8.262,0.307-12.24,0.307c-0.306-21.42-0.918-42.534-2.142-63.954c-0.306-5.202-7.65-5.202-7.956,0
			c-1.224,21.726-1.836,43.758-2.142,65.484c-0.306,11.628-4.59,33.048,2.142,43.451c2.142,3.061,6.12,3.061,8.262,0
			c5.814-8.874,3.366-26.315,2.448-38.25c3.366,0,7.038,0.307,10.404,0.307c1.53,0,3.366,0.306,5.202,0.306
			c-3.06,26.928-5.814,59.67,7.956,82.008c2.142,3.366,8.262,2.143,7.956-2.142C112.662,356.966,108.377,327.896,109.602,296.378z"
			/>
		<path d="M138.06,257.822c-1.836-4.284-8.874-5.508-10.098,0c-5.814,29.988-10.71,61.812-3.672,91.8
			c0.918,3.366,6.732,2.754,6.12-0.918c-0.918-8.262-0.918-16.83-0.918-25.092c6.12,0.306,12.546,0.918,18.36,0
			c1.224,6.426,1.836,12.852,2.142,19.277c0.306,6.732,10.404,6.732,10.404,0C159.786,313.208,149.075,285.362,138.06,257.822z
			 M130.104,317.798c0.612-13.464,2.448-26.622,4.896-39.78c4.896,13.158,9.18,26.316,12.24,39.78
			C141.425,317.186,135.611,317.492,130.104,317.798z"/>
		<path d="M199.259,367.676c-20.196,4.59-27.54,3.979-27.54-15.912c0-13.464,0-27.233,0-40.698
			c0.306-28.458,1.53-56.916,3.06-85.374c0-2.754-4.59-3.366-4.896-0.612c-7.65,48.348-8.262,97.614-8.568,146.268
			c0,2.448,1.53,4.284,3.978,4.896c12.24,4.59,27.846,8.262,37.638-2.448C205.379,371.042,202.932,367.063,199.259,367.676z"/>
		<path d="M218.538,338.912c-6.12-0.918-12.546-0.918-18.972-0.612c-1.836-26.315-4.896-52.326-1.53-78.948
			c0.612-3.672-5.508-4.284-6.426-0.918c-6.12,28.152-1.224,56.61-2.142,85.068c0,2.754,2.448,5.202,5.202,5.202
			c7.956,0,15.912,0.611,23.562-0.612C222.821,347.174,222.821,339.524,218.538,338.912z"/>
		<path d="M305.747,224.468c-0.611-5.202-9.485-3.978-9.18,1.224c2.142,51.102,4.284,102.204,4.896,153.306
			c-4.284-7.038-8.262-14.382-12.24-21.727c-2.754-4.896-10.098-2.447-10.404,2.755c0,3.06,0,5.813,0,8.567
			c-8.568-41.922-12.546-84.456-19.584-126.99c-0.612-3.366-5.814-2.448-5.814,0.918c0.918,17.748,2.448,35.19,4.284,52.938
			c-2.142-7.65-4.896-14.994-8.262-22.032c-1.224-2.448-3.366-3.06-5.202-2.448c0.918-1.836,1.836-3.366,2.754-5.202
			c1.53-2.754-2.448-4.896-3.978-2.448c-19.278,28.152-35.496,79.254,6.426,95.778c1.836,0.611,4.896-0.307,5.814-2.448
			c3.978-9.486,6.12-18.973,6.426-29.07c3.06,22.645,7.038,44.982,11.934,67.014c1.224,5.814,8.874,4.591,10.404,0
			c2.142-6.12,3.672-11.321,4.59-17.136c4.59,7.956,9.486,15.606,13.771,23.868c2.447,4.59,9.792,2.448,9.792-2.754
			C311.867,341.36,314.01,281.996,305.747,224.468z M247.914,347.479c-24.48-13.157-17.748-45.594-7.038-68.85l0,0
			C250.361,299.744,255.563,325.142,247.914,347.479z"/>
		<path d="M347.363,344.726c-6.731-0.918-12.546,2.143-18.666,3.672c-0.612-10.098-0.612-20.502-0.612-30.905
			c0.307,0.306,0.919,0.611,1.53,0.611c5.508,0.307,11.322,0.307,16.83,0.612c4.896,0.306,4.896-7.65,0-7.344
			c-5.508,0.306-11.322,0.611-16.83,0.611c-0.611,0-0.918,0.307-1.53,0.612c0.307-11.322,1.225-22.644,2.755-33.66
			c4.59,0.306,9.18,0.918,13.464,0.612c2.447,0.306,3.672-1.836,3.365-3.672c0-1.836-0.918-3.672-3.365-3.672
			c-4.284-0.306-8.568,0.306-12.853,0.612c0-0.612,0-1.224,0.307-1.836c0.611-3.06-3.979-4.59-4.896-1.224
			c-7.649,27.54-6.426,56.304-8.262,84.762c-0.306,2.448,2.448,5.202,4.896,4.896c8.874-0.612,16.524-3.366,24.48-7.038
			C351.342,351.152,350.729,345.338,347.363,344.726z"/>
		<path d="M390.815,339.218c-5.814-0.612-11.322,1.836-17.136,3.366c-0.307-25.704,0-51.102,3.366-76.806
			c0.306,0.918,0.918,1.836,2.447,2.142c1.225,0,2.448,0.306,3.979,0.612c0.611,0.306,0.918,0.306,1.836,0.306
			c1.53,0,3.06,0,4.896,0c2.448,0,3.979-1.836,3.672-3.978c0-2.142-1.224-3.978-3.672-3.978c-1.529,0-3.06,0-4.896,0
			c-0.612,0-1.225,0.306-1.836,0.306c-1.225,0.306-2.448,0.306-3.979,0.612c-1.836,0.306-2.754,1.53-2.754,2.754
			c-0.611-3.06-5.202-4.284-6.12-0.612c-6.426,27.846-7.038,56.61-7.649,85.068c0,2.754,2.447,5.508,5.202,5.202
			c9.18-0.918,16.218-3.672,24.479-7.344C396.936,345.032,394.487,339.83,390.815,339.218z"/>
		<path d="M390.815,305.864c-3.672,0.306-7.344,0.306-11.322,0.611c-3.978,0.307-3.978,5.814,0,6.12
			c3.672,0.307,7.344,0.307,11.322,0.612C395.712,313.514,395.712,305.558,390.815,305.864z"/>
		<path d="M482.615,177.038c-45.594,39.168-39.78,100.368-36.414,155.142c-12.239-21.726-22.338-44.064-27.54-68.85
			c-1.224-5.814-10.403-4.59-10.403,1.53c0.306,26.928,0.918,53.244,7.649,79.254c0.918,3.978,6.732,2.142,6.12-1.836
			c-2.142-14.076-3.06-28.152-3.366-42.229c7.65,19.584,18.055,38.25,29.376,56.916c2.754,4.59,10.404,2.754,10.404-2.754
			c0-27.234-2.448-54.162-1.836-81.09c0.612-35.802,14.076-61.812,34.578-89.964C494.243,178.262,486.899,173.672,482.615,177.038z"
			/>
	</g>
</g>
<g>
</g>
<g>
</g>
<g>
</g>
<g>
</g>
<g>
</g>
<g>
</g>
<g>
</g>
<g>
</g>
<g>
</g>
<g>
</g>
<g>
</g>
<g>
</g>
<g>
</g>
<g>
</g>
<g>
</g>
</svg>
