<?xml version="1.0" encoding="iso-8859-1"?>
<!-- Generator: Adobe Illustrator 16.0.0, SVG Export Plug-In . SVG Version: 6.00 Build 0)  -->
<!DOCTYPE svg PUBLIC "-//W3C//DTD SVG 1.1//EN" "http://www.w3.org/Graphics/SVG/1.1/DTD/svg11.dtd">
<svg version="1.1" id="Capa_1" xmlns="http://www.w3.org/2000/svg" xmlns:xlink="http://www.w3.org/1999/xlink" x="0px" y="0px"
	 width="595.354px" height="595.354px" viewBox="0 0 595.354 595.354" style="enable-background:new 0 0 595.354 595.354;"
	 xml:space="preserve">
<g>
	<path d="M566.292,331.797c9.485-14.075,6.426-31.824-10.099-43.452c-8.262-5.814-19.277-7.038-28.151-2.142
		c-9.792,5.508-12.853,17.442-13.464,28.765c-9.486-7.956-21.114-10.099-32.742-1.837c-0.918-2.447-1.836-4.896-3.366-6.731
		c1.224-0.918,1.836-2.142,2.142-3.979c4.896-79.56-51.714-183.6-139.842-190.025c-53.244-4.284-104.651,14.688-141.983,52.326
		c-21.726,22.644-41.004,70.992-30.6,102.204c-13.464,0.918-25.398,7.344-29.07,19.584c-10.404-6.732-25.704-5.202-36.414-0.612
		c-14.688,6.426-23.256,21.726-21.42,36.72c-10.098-10.71-26.316-16.218-39.168-6.12c-13.464,10.71-12.852,25.704-5.202,38.557
		c-11.628-1.53-23.868-0.307-31.212,9.792c-8.262,11.628-6.426,27.54-1.53,40.392c9.486,24.174,36.108,37.638,51.102,17.136
		c13.464,41.922,70.38,8.263,77.112-30.294c7.65,5.508,18.054,3.979,28.458-0.918c9.486-4.59,16.83-12.852,21.42-22.338
		c1.53,57.222,52.02,96.39,105.57,110.772c69.155,18.359,146.268-29.683,174.726-91.494c3.978-1.53,7.65-3.366,10.71-5.508
		c0,11.934,5.508,23.562,15.912,30.6c9.486,6.732,16.523,2.142,20.808-5.202c11.017,16.524,43.146,10.098,46.206-12.852
		c18.973,11.321,36.108-6.12,38.862-26.622C597.504,346.791,584.651,331.491,566.292,331.797z M183.18,340.978
		c-0.612,15.605-32.742,67.014-51.408,36.414c-2.754-4.59-9.18-1.53-8.262,3.365c3.366,16.83-5.814,30.906-17.748,41.923
		c-17.748,16.218-35.496,10.403-45.9-8.874c0-0.307,0.306-0.612,0.306-0.918c0.612-1.837-1.836-3.061-3.06-1.837l0,0
		c-2.142-0.306-4.284,1.837-3.978,4.284l0,0c-6.12,6.427-14.076,11.935-22.644,7.956c-8.874-3.978-14.382-13.77-17.748-22.338
		c-3.366-8.874-5.202-19.584-0.918-28.458c5.814-12.24,22.644-9.792,33.354-7.344c3.978,0.918,7.038-3.979,3.978-7.038
		c-9.792-9.792-14.688-23.256-3.978-34.578c11.628-11.934,25.704-1.53,34.884,7.65c-0.612,0.611-1.53,1.224-2.142,1.836
		c-3.978,4.284-6.12,10.403,0,12.852c2.142,0.918,3.366-1.53,1.836-3.06c0-0.307-0.306-0.307-0.306-0.612
		c0.306-0.612,0.612-1.224,0.918-1.836c1.224-2.142,3.366-3.672,5.202-5.202c4.896-3.672,10.71-6.426,16.524-7.956
		c3.672-0.918,3.06-7.038-0.918-6.731c-5.202,0.611-10.404,2.754-14.994,5.508c-1.224-14.076,5.508-25.093,18.054-32.436
		c6.426-3.672,14.076-4.59,21.114-3.366c4.896,0.918,8.568,3.672,11.934,6.426c0,0.306,0,0.306,0,0.612
		c0.306,2.142,1.836,2.753,3.366,2.142c0.612,0.306,0.918,0.611,1.53,1.224c2.448,1.836,6.426-1.224,5.202-3.978
		c-0.918-2.142-2.142-3.978-3.366-5.814c7.344-18.972,33.966-19.89,49.266-7.956c2.448,1.836,6.426,2.142,7.956-0.918
		c11.016-22.032,28.152-16.83,38.862,1.53c1.53,2.448,3.978,2.448,5.814,1.224c0,0.306,0,0.612,0,0.918
		c0,2.142,3.366,2.754,3.672,0.612c6.12-22.644,30.6-29.682,51.714-28.458c10.098,0.612,20.502,4.59,27.846,11.934
		c8.874,9.18,4.896,22.338,2.448,33.048c-0.307,0.918,0,1.836,0.306,2.447c-0.612,0.307-0.918,0.612-1.53,0.919
		c-2.142,1.529-0.306,4.59,2.143,3.672c8.874-3.672,16.218-0.918,16.83,8.874c0.611,8.874-6.732,14.993-14.076,18.359
		c-3.366,1.53-2.143,7.038,0.918,7.65c32.436,8.567,15.912,40.392-1.224,56.304c-8.263,7.65-19.278,14.382-30.906,14.076
		c-16.218-0.306-18.972-20.808-22.95-32.436c-0.918-2.448-3.366-2.755-5.202-1.53c-0.612-2.143-3.978-2.754-4.59-0.307
		c-2.754,12.24-15.3,10.71-24.174,5.814c-13.77-7.65-14.076-23.256-10.71-36.72c0.306-1.53,0-2.754-0.918-3.672
		c7.344,6.731,17.748,9.792,26.928,4.896c2.448-1.224,1.224-4.896-1.224-4.896c-5.508,0-10.71,0.306-16.218-1.53
		c-6.732-2.143-11.322-8.568-13.77-14.994c-1.224-3.06-6.12-2.142-5.202,1.53c1.53,5.508,4.59,10.71,8.874,14.688
		c-1.836-1.224-4.284-1.224-5.814,0.918c-11.016,18.666-32.13,8.263-41.004-5.813c-0.918-1.225-2.142-1.53-3.06-1.225
		C185.934,338.835,183.18,338.835,183.18,340.978z M316.596,470.415c-65.178,3.979-124.542-52.326-128.826-115.056
		c0-0.918-0.612-1.53-1.224-2.142c0-0.612,0.306-1.225,0.306-1.837c7.65,14.383,26.928,15.606,40.698,7.956
		c-1.836,15.301,3.978,30.906,19.584,37.332c9.792,3.979,23.868,3.061,28.458-6.119c1.224,14.382,8.874,29.069,23.255,33.659
		c14.994,4.591,31.212-5.508,42.228-14.993c21.421-18.36,36.108-55.692,7.038-69.463c7.956-6.426,11.935-15.911,9.181-26.621
		c-2.143-7.956-8.263-11.322-14.994-10.71c31.518-55.999-84.15-77.725-94.554-25.398c-7.65-26.01-37.944-24.786-51.714-4.59
		c-6.426-3.672-14.382-5.508-22.338-5.814c1.53-91.494,90.27-155.142,177.785-138.924
		c77.418,14.382,111.384,101.898,118.729,170.441c-7.65-3.671-16.83-1.835-24.175,7.65c-5.201,6.732-5.813,15.912-2.142,23.256
		c2.448,5.202,7.344,8.263,12.853,10.404c-14.994,8.568-31.519,20.808-26.622,37.332c2.754,9.792,10.098,13.464,18.666,13.771
		C416.046,436.755,375.653,466.743,316.596,470.415z M578.531,387.184c-7.037,7.956-16.218,4.283-24.479,0.611
		c-2.142-0.918-4.284,0.918-3.979,2.754c-0.306,0.307-0.306,0.307-0.611,0.612c-2.448,8.874-7.038,14.994-15.912,17.748
		c-11.322,3.672-19.89-3.672-19.584-14.994c0-5.202-7.65-5.202-7.956,0c-1.224,12.853-7.956,17.748-18.054,8.263
		c-6.427-6.427-9.181-15.606-9.181-24.786c0.307-0.307,0.918-0.918,1.225-1.225c0.918-1.224,1.224-2.754,0.611-3.672
		c2.448,1.53,5.202,2.754,8.263,3.366c3.06,0.612,4.283-3.672,1.224-4.59c-7.344-2.143-13.464-6.426-17.442-12.853
		c-1.224-2.142-3.978-0.306-3.06,1.836c1.53,3.366,3.672,6.12,5.813,8.568c0,0-0.306,0-0.306,0.306
		c-0.306,0.612-0.306,1.225-0.306,1.53c-5.814,2.448-10.71,5.814-16.524,8.262c-0.918,0-1.53,0.307-2.448,0.918
		c-8.567,2.755-21.42-0.306-16.218-12.239c5.508-12.853,24.48-20.502,36.414-26.011c5.508-2.447,2.142-9.792-2.754-10.403
		c-10.404-0.918-25.398-5.202-18.36-18.36c6.427-12.546,17.137-8.262,22.338,2.448c0.612,0.918,1.53,1.224,2.448,1.224
		c0.307,2.754,3.061,5.508,6.12,3.366c11.322-7.956,21.42-3.366,29.07,6.732c2.448,3.06,7.956,2.447,7.956-2.143
		c0-16.83,6.12-42.228,27.846-30.294c17.748,9.792,16.218,30.294,0.306,40.698c-0.306,0.306-0.611,0.612-0.918,0.918
		c-3.365-4.59-8.262-9.792-14.075-7.956c-3.061,0.918-2.754,6.426,0.918,6.12c0.306,0,0,0,0.306,0c0,0,0,0,0.306,0.306
		c0.918,0.612,1.53,1.225,2.448,1.836c2.142,2.143,3.672,4.896,5.508,7.345c3.979,6.426,6.732,14.075,8.874,21.42
		c1.225,3.672,7.038,3.06,6.732-0.918c-0.307-7.345-2.754-14.076-6.12-20.502c18.972-7.65,31.824,1.529,31.824,21.726
		C586.182,372.801,583.733,381.063,578.531,387.184z"/>
</g>
<g>
</g>
<g>
</g>
<g>
</g>
<g>
</g>
<g>
</g>
<g>
</g>
<g>
</g>
<g>
</g>
<g>
</g>
<g>
</g>
<g>
</g>
<g>
</g>
<g>
</g>
<g>
</g>
<g>
</g>
</svg>
