<?xml version="1.0" encoding="iso-8859-1"?>
<!-- Generator: Adobe Illustrator 16.0.0, SVG Export Plug-In . SVG Version: 6.00 Build 0)  -->
<!DOCTYPE svg PUBLIC "-//W3C//DTD SVG 1.1//EN" "http://www.w3.org/Graphics/SVG/1.1/DTD/svg11.dtd">
<svg version="1.1" id="Capa_1" xmlns="http://www.w3.org/2000/svg" xmlns:xlink="http://www.w3.org/1999/xlink" x="0px" y="0px"
	 width="561.12px" height="561.12px" viewBox="0 0 561.12 561.12" style="enable-background:new 0 0 561.12 561.12;"
	 xml:space="preserve">
<g>
	<g>
		<path d="M503.533,508.274c-13.157,10.404-26.928,17.748-41.31,25.093c1.224-13.465,1.224-26.929,3.672-40.393
			c0.612-4.284-1.836-9.486-7.038-9.18c-21.726,1.836-39.168,9.486-53.855,20.808c24.786-39.78,29.987-104.346,38.25-144.738
			c14.994-71.604,27.233-143.819,35.496-216.342c0.611-3.978-5.814-4.59-7.038-0.918c0,0.612-0.307,0.918-0.307,1.53
			c0-1.224,0-2.754-1.224-4.284c-36.108-50.184-89.046-82.926-131.58-126.684c1.224-3.672,0.306-8.262-4.896-9.18
			c-70.992-13.77-118.422,9.18-174.114,52.632c-1.224,0-2.448-0.306-3.672-0.306c-5.508-0.612-6.732,8.568-1.53,9.486
			c-33.048,52.02-63.342,106.182-96.084,158.508c0,0.306,0,0.306-0.306,0.612c-5.202-0.918-11.016,3.06-8.874,9.486
			c28.458,91.188,62.73,180.846,79.56,275.094c0.306,2.447,2.142,3.672,4.284,3.978c-4.59,7.038-8.568,14.076-12.24,22.338
			c1.224-3.06-61.2-35.496-66.708-38.25c-3.978-1.836-10.71,1.225-8.568,6.426c8.874,22.032,19.584,38.557,36.108,55.998
			c3.06,3.366,7.956-1.529,4.896-4.896c-1.836-2.142-50.184-53.55-14.994-35.802c18.36,9.18,33.354,22.031,46.818,37.025
			c3.06,3.366,8.874,1.53,10.098-2.754c5.202-20.808,14.076-34.271,26.622-51.102c-5.508,7.344,18.666,33.966,22.95,41.616
			c2.142,3.978,8.568,3.978,10.71,0c9.18-16.524,19.89-32.437,30.294-48.042c21.114-31.519,20.502,39.474,18.36,55.998
			c-0.918,6.119,7.344,7.956,11.322,4.59c15.3-13.771,31.518-26.01,46.818-39.475c0,0,13.157,25.093,14.382,27.234
			c3.06,5.508,10.403,3.672,12.239-1.53c6.12-17.748,15.606-32.741,22.339-49.266c1.224,2.754,2.447,5.508,3.978,7.956
			c-0.306,3.366-0.918,6.731-1.53,9.792c-0.918,6.731,5.509,10.403,10.404,9.18c4.896,10.71,9.18,21.727,12.546,33.354
			c1.53,5.813,9.792,7.038,12.853,1.529c11.016-19.584,22.644-34.578,41.615-47.43c38.557-26.316,26.011,19.278,22.645,36.72
			c-1.225,6.12,4.59,11.322,10.404,8.263c15.3-8.568,30.294-16.219,44.676-25.704c0.306,8.262,0.918,16.83,0.918,25.092
			c0,7.649,11.934,7.649,11.934,0c0-12.853,1.225-25.704,1.225-38.556C516.08,506.438,508.429,504.297,503.533,508.274z
			 M378.073,535.509c-4.283-11.322-9.18-22.338-14.382-33.354c14.994-97.613,16.219-195.228,44.064-291.005
			c0.611-2.142-0.918-3.978-2.448-4.59v-0.306c-0.306-0.612-0.612-0.918-0.918-1.53c12.546-9.18,27.234-11.016,41.004-18.054
			c5.202-2.754,1.224-9.792-3.672-8.874c-14.076,2.448-30.6,10.71-41.616,20.808c-32.436-46.206-73.134-85.986-106.794-131.274
			c10.098-9.792,18.666-22.644,31.212-29.07c6.12-3.06,0.612-12.852-5.508-9.18c-13.771,7.956-22.645,23.256-33.048,35.19
			c-1.53,1.836-1.225,3.978,0.306,5.202c24.48,54.162,72.216,96.39,106.182,144.432c1.225,1.53,2.755,2.448,4.284,3.06
			c-39.779,76.193-36.107,172.89-44.676,259.182c-0.612-1.53-1.53-3.06-2.142-4.59c-2.448-5.508-11.322-3.672-12.546,1.53
			c-4.591,18.972-14.076,34.884-21.727,52.02c-3.672-7.956-7.038-15.912-9.18-24.479c-1.225-4.59-7.956-6.732-11.322-3.061
			c-12.546,14.994-27.845,26.622-42.533,39.168c0.918-25.397-4.59-48.042-18.666-70.686c-2.448-3.979-8.568-4.284-11.016,0
			c-9.18,16.523-19.584,32.436-29.988,48.348c-14.994,22.95-24.48-4.284-30.294-24.479c-1.53-5.509-8.262-5.509-11.016-1.53
			c-3.978,5.508-7.956,10.71-11.934,15.912c-11.016-94.554-45.594-183.601-74.358-273.87c0.612-0.306,1.224-0.918,1.836-1.53
			c35.19-49.266,83.232-101.898,101.286-160.344c37.026,7.344,74.358,14.382,111.69,5.508c9.18-2.142,5.202-16.524-3.978-14.382
			c-33.66,8.568-67.32,3.366-100.98-0.918c50.184-32.436,93.024-52.02,156.06-39.78c1.224,0.306,2.142,0.306,3.365,0
			c35.803,48.348,89.047,80.172,124.849,128.521c3.672,5.202,11.016,3.06,12.852-1.224c-16.523,65.178-26.622,131.58-39.474,197.37
			c-10.404,53.856-17.442,125.767-48.96,172.278c-2.448,3.672,0.306,7.038,3.672,7.649
			C383.582,527.553,380.828,531.225,378.073,535.509z"/>
		<path d="M299.125,193.707c-11.628-11.628-40.698-7.038-55.386-7.344c-0.918,0-2.142,0-3.06,0
			c-0.612-10.404-1.224-20.808-1.836-31.518c-0.306-6.732-10.404-6.732-10.71,0c-0.306,10.098-0.306,20.196-0.306,30.294
			c-15.606-1.224-35.496-2.142-41.616,6.426c-0.612,0.918-0.612,2.754,0,3.672c6.732,8.874,28.458,6.732,42.228,6.12
			c0.306,8.568,0.612,17.136,0.612,25.704c0.306,14.076-5.202,42.534,3.978,55.08c4.59,6.426,14.076,2.448,12.546-5.202
			c0.306,2.754,0.612-11.628,0.306-15.3c-1.53-13.158-2.142-26.316-3.06-39.474c-0.306-7.038-0.918-13.77-1.224-20.808
			c16.218,0,37.026-1.224,50.49,4.59C298.819,209.007,304.021,198.603,299.125,193.707z"/>
	</g>
</g>
<g>
</g>
<g>
</g>
<g>
</g>
<g>
</g>
<g>
</g>
<g>
</g>
<g>
</g>
<g>
</g>
<g>
</g>
<g>
</g>
<g>
</g>
<g>
</g>
<g>
</g>
<g>
</g>
<g>
</g>
</svg>
