<?xml version="1.0" encoding="iso-8859-1"?>
<!-- Generator: Adobe Illustrator 18.0.0, SVG Export Plug-In . SVG Version: 6.00 Build 0)  -->
<!DOCTYPE svg PUBLIC "-//W3C//DTD SVG 1.1//EN" "http://www.w3.org/Graphics/SVG/1.1/DTD/svg11.dtd">
<svg version="1.1" id="Capa_1" xmlns="http://www.w3.org/2000/svg" xmlns:xlink="http://www.w3.org/1999/xlink" x="0px" y="0px"
	 viewBox="0 0 236.107 236.107" style="enable-background:new 0 0 236.107 236.107;" xml:space="preserve">
<g>
	<path d="M198.876,197.043c-2.156-0.088-4.174,0.316-6.133,0.341c-0.879-0.144-1.774-0.251-2.685-0.32
		c2.309-6.121,0.753-13.856-2.66-19.093c-0.639-0.981-2.341-1.213-2.922,0c-2.672,5.582-6.959,9.434-12.23,12.316
		c1.041-6.649,3.073-11.417,9.174-15.752c1.508-1.072,1.041-3.538-0.97-3.581c-6.759-0.144-13.041,0.975-19.07,4.185
		c-3.881,2.067-9.628,9.773-14.503,13.198c2.043-3.901,3.408-7.757,3.497-11.929c0.432-1.669,0.422-3.26-0.397-4.517
		c-0.165-0.811-0.372-1.634-0.642-2.478c-0.386-1.205-2.008-1.796-2.943-0.777c-3.003,3.271-6.492,5.758-10.045,8.055
		c2.708-27.155,2.79-54.727,3.141-81.968c14.366,7.967,28.857,15.685,42.991,24.069c1.275,0.757,2.871-0.218,2.896-1.662
		c0.39-22.816-5.189-46.347-8.035-68.964c-0.166-1.316-1.515-2.503-2.851-1.636c-12.249,7.947-24.951,14.416-38.625,19.505
		c4.305-20.799,6.828-42.702,8.682-63.791c0.1-1.141-1.098-1.711-2.047-1.506c-0.283-0.32-0.683-0.553-1.219-0.586
		c-9.194-0.581-18.037,0.641-27.185,1.407c-8.917,0.747-17.802,0.181-26.735,0.315c-1.003,0.015-1.322,0.839-1.137,1.563
		c-0.493,0.201-0.879,0.628-0.85,1.258c0.882,19.043,4.203,38.701,8.152,57.394c-12.734-8.03-25.969-14.803-39.925-20.464
		c-1.135-0.46-2.342,0.694-2.338,1.781c0.086,23.486,0.226,46.968,0.589,70.451c0.019,1.213,1.291,2.419,2.556,1.947
		c13.687-5.098,28.636-9.844,41.098-17.684c2.37,28.067,4.171,56.358,7.745,84.308c-1.452,1.583-2.884,3.197-4.283,4.858
		c0.062-5.638-0.31-11.191-1.103-16.844c-0.207-1.476-2.502-1.637-3.137-0.41c-3.611,6.973-7.161,13.342-13.963,17.138
		c-5.554-6.412-8.922-14.43-14.874-20.615c-1.017-1.057-2.582-0.428-3.04,0.803c-3.024,8.128-3.859,16.091-2.672,24.398
		c-6.947-4.264-14.634-6.156-23.009-5.5c-1.639,0.129-2.502,2.364-0.884,3.265c6.163,3.432,10.597,7.931,14.324,13.644
		c-4.405,4.553-8.2,10.91-8.288,16.834c-0.008,0.543,0.302,1.066,0.768,1.338c2.679,1.566,5.775-1.055,8.147-2.325
		c3.415-1.828,6.726-3.53,10.392-4.195c0.231,0.338,0.471,0.671,0.712,1.005c0.925,1.862,2.174,3.622,3.264,5.108
		c2.948,4.021,6.633,7.235,10.756,9.999c1.2,0.805,2.615-0.52,2.317-1.781c-0.703-2.973-1.452-6.099-0.096-8.78
		c2.456,4.063,5.098,7.98,8.023,11.735c0.5,0.642,1.382,0.535,2.012,0.1c0.317,0.06,0.661-0.018,0.967-0.356
		c2.757-3.039,4.92-6.465,6.205-10.385c0.404-1.216,0.717-2.455,0.939-3.717c0.146-1.115,0.226-1.7,0.249-1.836l0.003,0.003
		c0.002,0.034-0.043,0.434-0.15,1.339c2.892,2.965,4.354,7.624,3.378,11.648c-0.266,1.096,0.504,1.969,1.57,2.061
		c6.506,0.562,14.777-5.373,17.493-12.124c1.976,3.306,5.097,6.213,7.745,8.415c5.261,4.374,11.451,7.266,18.09,8.82
		c1.229,0.288,2.741-1.172,1.828-2.377c-4.629-6.106-5.214-11.961-4.766-18.989c0.103,0.028,0.205,0.049,0.307,0.068
		c2.276,2.165,3.488,5.06,3.194,8.529c-0.107,1.264,1.328,1.704,2.264,1.299c5.179-2.24,9.822-4.888,12.365-9.571
		c4.127,7.63,11.705,11.294,20.357,13.613c1.334,0.357,2.489-1.128,1.791-2.329c-2.289-3.935-3.394-7.853-4.222-11.99
		c0.022-0.487,0.056-0.977,0.062-1.462c3.289-0.059,7.834-1.617,8.899-2.012c4.663-1.73,14.027-5.937,13.486-12.017
		C200.576,197.837,199.916,197.085,198.876,197.043z M133.597,178.445c-3.378,2.115-6.724,4.184-9.682,6.685
		c1.202-6.624,4.376-12.362,9.792-17.35C133.644,171.336,133.608,174.89,133.597,178.445z M133.747,165.372
		c-0.448-0.466-1.113-0.759-1.807-0.639c-10.891,1.88-19.115,7.819-26.363,15.217c-1.411-27.78-4.534-55.585-7.027-83.268
		c-0.149-1.66-2.306-1.944-2.962-0.852c-11.2,3.02-21.423,9.958-32.673,12.421c-8.362,1.831-7.136,0.547-7.288-7.941
		c-0.114-6.322-0.217-12.645-0.306-18.967c-0.076-5.419-0.144-10.839-0.201-16.258c-0.077-7.257-4.257-18.331,6.367-16.179
		C71.956,51.026,83.627,60.158,92.49,65.8c0.901,0.574,1.75,0.234,2.259-0.411c0.709,0.247,1.679-0.104,1.577-1
		c-2.266-19.907-4.422-40.182-8.125-59.862c17.835,1.599,35.188-1.914,52.913-0.84c-3.557,21.028-6.659,42.823-7.648,64.078
		c-0.479,1.412,0.53,3.263,2.317,2.634c6.576-2.313,12.986-4.903,19.255-7.966c3.383-1.653,6.711-3.408,9.965-5.303
		c6.184-3.602,7.544-7.909,9.979,1.763c2.146,8.521,2.347,18.098,3.485,26.82c1.215,9.315,2.746,18.631,2.964,28.024
		c-13.707-8.017-27.628-15.584-42.228-21.873c-0.828-1.192-3.172-0.888-3.197,0.966
		C135.683,116.996,134.241,141.196,133.747,165.372z"/>
</g>
<g>
</g>
<g>
</g>
<g>
</g>
<g>
</g>
<g>
</g>
<g>
</g>
<g>
</g>
<g>
</g>
<g>
</g>
<g>
</g>
<g>
</g>
<g>
</g>
<g>
</g>
<g>
</g>
<g>
</g>
</svg>
