<?xml version="1.0" encoding="iso-8859-1"?>
<!-- Generator: Adobe Illustrator 18.0.0, SVG Export Plug-In . SVG Version: 6.00 Build 0)  -->
<!DOCTYPE svg PUBLIC "-//W3C//DTD SVG 1.1//EN" "http://www.w3.org/Graphics/SVG/1.1/DTD/svg11.dtd">
<svg version="1.1" id="Capa_1" xmlns="http://www.w3.org/2000/svg" xmlns:xlink="http://www.w3.org/1999/xlink" x="0px" y="0px"
	 viewBox="0 0 254.835 254.835" style="enable-background:new 0 0 254.835 254.835;" xml:space="preserve">
<g>
	<path d="M47.21,60.407c-1.435-3.542-5.39-5.149-9.013-4.446c-3.69,0.716-6.306,4.024-6.668,7.689
		c-0.138,1.398-0.152,3.518,0.991,4.557c0.903,0.821,2.257,0.807,3.176,0.073c0.353-0.283,0.515-0.943,0.359-1.361
		c-0.026-0.072-0.053-0.143-0.079-0.215c-0.154-0.413-0.409-0.68-0.701-0.828c0.2-0.365,0.115-1.27,0.225-1.689
		c0.212-0.808,0.584-1.651,1.13-2.292c0.89-1.043,2.228-1.645,3.608-1.515c3.103,0.29,3.638,3.642,1.404,5.428
		c-2.072,1.657,0.607,5.041,2.819,3.654C47.476,67.571,48.532,63.672,47.21,60.407z"/>
	<path d="M61.257,58.286c-3.234-0.515-6.454,0.715-8.33,3.442c-1.698,2.469-2.2,6.178-0.424,8.741
		c1.185,1.712,3.534,0.61,3.236-1.365c-0.295-1.955-0.127-4.132,1.589-5.445c1.611-1.233,4.139-0.971,5.529,0.472
		c1.397,1.452,1.225,3.67,0.195,5.261c-1.027,1.587-1.24,3.512,0.892,4.211c0.761,0.25,1.78-0.012,2.316-0.612
		C70.88,67.816,68.259,59.401,61.257,58.286z"/>
	<path d="M232.342,100.745c-1.727-4.457-7.508-6.513-11.798-7.16c-5.409-0.816-10.527,0.401-15.02,3.199
		c-0.327,0.073-0.658,0.132-0.984,0.209c-0.932,0.231-1.377,0.887-1.476,1.608c-0.344,0.518-0.124,1.172,0.34,1.572
		c0.439,0.7,1.231,1.172,2.267,0.926c6.232-1.546,10.078,1.112,14.633,4.827c1.904,1.553,4.18,3.138,6.762,3.123
		C231.478,109.023,233.876,104.707,232.342,100.745z"/>
	<path d="M228.17,85.791c-22.218-8.877-45.69,4.543-53.468,26.061c-0.081,0.226-0.102,0.444-0.078,0.649
		c-3.063,4.998-4.355,10.002-4.269,14.836c-3.645,0.607-7.379,3.336-8.723,6.151c-0.081,0.169-0.031,0.307-0.042,0.461
		c-3.857-0.7-7.902-0.298-11.082,1.418c-3.926,2.117-6.86,6.43-8.074,11.1c-0.889-2.019-2.606-3.757-4.522-4.857
		c-4.037-2.32-8.738-1.888-12.72,0.335c-3.44,1.92-10.796,9.852-10.416,15.117c-3.569-1.847-8.01-2.982-9.906-3.007
		c-2.473-0.033-5.284,1.063-7.439,2.8c1.715-19.273,23.418-51.081,25.878-62.428c3.486-16.079,0.269-34.133-10.154-47.105
		C93.469,22.82,55.877,25.057,33.088,43.684C4.236,67.266-6.219,110.972,3.586,146.121c4.999,17.921,15.768,34.195,30.769,45.265
		c16.356,12.07,35.593,17.886,49.754,33.156c0.421,0.454,0.985,0.503,1.473,0.319c4.019,1.498,9.237,0.415,11.962-3.338
		c2.318-3.194,2.368-6.836,0.962-9.79c2.594-0.236,4.921-1.483,6.176-4.485c0.933-2.231,0.472-4.555-1.044-6.402
		c0.196-0.022,0.413,0.003,0.602-0.031c3.087-0.566,5.663-2.819,6.651-5.802c0.764-2.308,0.395-4.704-0.895-6.631
		c2.355-0.867,4.357-2.64,5.067-5.248c0.668-2.458,0.081-5.113-1.313-7.227c1.242,0.48,2.564,0.79,3.935,0.796
		c6.487,0.027,11.385-4.719,13.734-10.389c0.347,0.511,0.72,1.004,1.136,1.448c3.133,3.34,7.863,4.332,12.225,3.171
		c9.184-2.443,14.583-12.983,10.531-21.636c0.492-0.306,1.007-0.587,1.544-0.835c-0.328,7.782,5.643,15.02,13.508,15.876
		c6.3,0.686,14.787-3.521,16.023-10.223c20.154,14.988,53.471,17.888,64.791-9.642C260.529,121.726,251.635,95.165,228.17,85.791z
		 M141.901,152.848c0.157,1.335,0.51,2.623,1.038,3.837c-1.034,0.189-2.099,0.261-3.341-0.099c-2.846-0.823-4.814-2.977-5.843-5.642
		C136.46,150.753,139.323,151.306,141.901,152.848z M106.161,157.84c1.452,0.13,5.938,1.257,8.896,2.897
		c-0.142,0.103-0.276,0.223-0.331,0.42c-0.149,0.541-0.1,1.021,0.029,1.47c-5.472-0.82-12.898-0.495-15.622,3.895
		c-0.592-1.003-1.08-2.078-1.364-3.289C98.638,159.537,101.8,157.449,106.161,157.84z M108.943,172.302
		c-0.008-0.002-0.015-0.008-0.024-0.01c-1.253-0.339-2.743-0.57-4.181-0.697c-0.129-0.329-0.353-0.622-0.75-0.795
		c-0.906-0.396-1.697-0.874-2.4-1.414c1.536-1.637,3.084-2.951,5.562-3.599C106.867,168.217,107.568,170.472,108.943,172.302z
		 M106.183,185.349c-0.679-0.263-1.382-0.422-2.065-0.433c-0.445-0.183-0.869-0.41-1.25-0.699c-1.43-1.084-3.056,1.208-1.872,2.426
		c0.036,0.037,0.082,0.055,0.119,0.091c-0.063,0.535,0.254,1.11,0.689,1.394c1.26,0.824,2.789,0.398,4.078,1.257
		c1.69,1.127,2.174,3.172,1.49,5.022c-0.79,2.139-2.825,3.45-5.06,3.552c-0.93,0.043-1.758-0.157-2.568-0.427
		c-0.909-0.795-1.799-1.651-2.815-2.207c-0.795-0.435-2.099,0.092-1.984,1.139c0.38,3.466,4.424,4.203,6.317,6.645
		c1.771,2.283-0.264,4.997-2.621,5.704c-0.679,0.203-1.359,0.256-2.035,0.225c-2.084-2.135-5.132-3.402-8.591-2.921
		c-1.646,0.229-1.206,2.848,0.385,2.849c0.355,0,0.683,0.085,1.024,0.133c1.229,0.821,2.633,1.512,4.125,2
		c2.009,2.034,2.614,5.188,0.386,7.991c-3.376,4.246-8.149,1.564-10.743-1.902c-0.401-0.536-1.155-0.772-1.809-0.682
		c-18.877-20.914-49.981-26.028-65.302-52.663C-6.282,124.964,4.628,63.289,45.628,40.599c21.836-12.084,53.065-8.338,66.934,13.915
		c13.654,21.91,5.442,46.376-5.87,67.048c-7.812,14.275-27.554,41.859-5.458,51.904c0.04,0.184,0.048,0.37,0.182,0.543
		c1.563,2.036,3.551,1.705,5.885,2.134c2.174,0.4,3.711,2.102,4.041,4.306C111.858,183.896,109.019,185.515,106.183,185.349z
		 M146.45,166.39c-3.037,1.552-6.866,2.054-9.868,0.114c-3.202-2.07-3.738-5.332-3.858-8.812c-0.038-1.12-1.489-1.514-2.089-0.566
		c-1.252,1.981-1.278,4.266-0.592,6.39c-1.792,3.719-4.019,7.162-8.101,8.697c-5.749,2.162-11.124-0.746-11.713-6.865
		c2.596-0.116,5.204,0.29,7.806,0.45c0.613,0.037,0.97-0.339,1.101-0.807c1.565-0.085,3.152-0.667,4.419-1.444
		c3.863-2.369,6.126-6.944,5.538-11.418c0.824-0.433,1.725-0.72,2.648-0.94c0.843,3.57,3.17,6.666,6.672,8.006
		c1.874,0.717,4.3,0.966,6.459,0.499c0.244,0.28,0.456,0.578,0.733,0.838c0.465,0.439,1.166,0.348,1.63-0.005
		c0.633,0.52,1.895,0.081,1.951-0.907c0.204-3.581,1.77-6.647,4.226-8.868C154.943,156.883,152.233,163.433,146.45,166.39z
		 M146.96,155.695c-0.139,0.03-0.274,0.066-0.41,0.099c-1.513-6.206-0.885-12.777,5.435-16.607
		c7.097-4.302,14.226-0.293,18.939,5.157C161.351,141.88,148.564,145.652,146.96,155.695z M173.234,151.705
		c-2.618,0.212-4.958-1.855-5.071-4.318c1.807,0.252,3.625,0.578,5.49,0.787c1.381,0.155,1.944-2.05,0.713-2.633
		c-0.071-0.034-0.15-0.056-0.222-0.088c0.022-0.134,0.086-0.242,0.061-0.398c-0.435-2.757-1.807-5.04-3.709-6.839
		c0.648-0.389,1.328-0.607,2.058-0.779c1.566,3.707,3.889,7.209,6.79,10.395C177.453,149.439,176.075,151.475,173.234,151.705z
		 M248.638,137.174c-12.84,45.87-88.314,17.643-69.671-26.55c7.415-14.842,22.985-25.381,40.123-22.3
		C241.763,92.4,254.831,115.048,248.638,137.174z"/>
</g>
<g>
</g>
<g>
</g>
<g>
</g>
<g>
</g>
<g>
</g>
<g>
</g>
<g>
</g>
<g>
</g>
<g>
</g>
<g>
</g>
<g>
</g>
<g>
</g>
<g>
</g>
<g>
</g>
<g>
</g>
</svg>
