<?xml version="1.0" encoding="iso-8859-1"?>
<!-- Generator: Adobe Illustrator 19.0.0, SVG Export Plug-In . SVG Version: 6.00 Build 0)  -->
<svg version="1.1" id="Layer_1" xmlns="http://www.w3.org/2000/svg" xmlns:xlink="http://www.w3.org/1999/xlink" x="0px" y="0px"
	 viewBox="0 0 511.999 511.999" style="enable-background:new 0 0 511.999 511.999;" xml:space="preserve">
<g>
	<g>
		<path d="M180.082,327.382c-0.067-1.21-0.148-2.407-0.228-3.605c-0.172-2.614-0.334-5.216-0.483-7.83
			c-0.288-5.078-0.495-10.167-0.726-15.256c-0.218-5.043-0.483-10.098-0.714-15.141c-0.218-4.986-0.287-9.972-0.403-14.957
			c-0.241-10.201-0.898-20.393-1.566-30.583c-0.311-4.698-0.726-9.396-1.06-14.093c-0.369-5.25-0.726-10.513-1.151-15.763
			c-0.391-4.858-0.817-9.707-1.232-14.566c-0.231-2.694-0.46-5.389-0.76-8.072c-0.346-3.04-0.794-6.046-1.243-9.061
			c-0.357-2.36-0.979-4.721-1.6-7.024c-0.634-2.406-1.463-4.686-2.464-6.966c-0.703-1.589-1.796-3.052-2.97-4.318
			c-0.575-0.622-1.371-1.117-2.107-1.543c-1.371-0.783-2.878-0.991-4.41-1.174c-4.755-0.565-9.557-0.899-14.336-1.325
			c-7.726-0.691-15.498-0.794-23.236-1.301c-3.834-0.242-7.657-0.542-11.503-0.68c-0.606-0.023-1.216-0.036-1.827-0.036
			c-2.682,0-5.39,0.232-8.006,0.738c-2.809,0.542-5.895,2.372-7.093,5.055c-0.46,1.036-0.714,1.784-0.863,2.832
			c-0.073,0.506-0.141,1.014-0.206,1.52c-0.513,3.519-1.22,7-1.867,10.5c-0.668,3.581-1.22,7.197-1.841,10.789
			c-0.691,3.995-1.566,7.921-2.545,11.859c-0.147,0.613-0.308,1.223-0.473,1.83c-0.362-0.715-0.727-1.428-1.093-2.141
			c-2.257-4.445-4.445-8.912-6.76-13.322c-1.197-2.268-2.475-4.478-3.777-6.701c-1.29-2.234-2.798-4.353-4.226-6.494
			c-1.359-2.038-2.74-4.054-4.157-6.046c-1.669-2.349-3.581-4.744-6.183-6.103c-2.314-1.209-4.881-1.289-7.415-1.117
			c-5.803,0.391-11.595,0.886-17.364,1.658c0.518-0.069,1.036-0.139,1.543-0.208c-4.997,0.668-9.995,1.324-15.015,1.82
			c-2.372,0.231-4.732,0.472-7.081,0.806c-1.877,0.277-3.569,1.002-5.286,1.762c-0.875,0.391-1.969,1.267-2.626,1.854
			c-0.898,0.817-1.623,1.773-2.292,2.786c-1.048,1.577-1.243,3.823-1.371,5.63c-0.034,0.575-0.046,1.14-0.057,1.716
			c-0.034,1.197,0.023,2.406,0.057,3.615c0.231,9.718,0.588,19.425,0.588,29.143c0.011,10.144,0.403,20.277,0.749,30.409
			c0.346,10.052,0.668,20.092,0.991,30.144c0.149,4.732,0.241,9.464,0.449,14.185c0.218,5.158,0.495,10.316,0.794,15.475
			c0.288,5.193,0.541,10.398,0.76,15.59c0.054,1.227,0.101,2.456,0.147,3.683c0.003,7.083-0.333,14.159-0.872,21.235
			c-0.185,2.349-0.357,4.709-0.552,7.058c-0.093,1.013-0.139,2.015-0.07,3.029c0.08,1.278,0.391,3.317,1.209,4.399
			c0.518,0.691,0.944,1.474,1.623,2.015c1.497,1.186,2.395,1.866,4.283,2.395c1.129,0.323,2.372,0.391,3.546,0.414
			c2.107,0.034,4.237-0.092,6.344-0.161c2.292-0.08,4.583-0.185,6.863-0.346c4.64-0.334,9.246-0.909,13.864-1.347
			c2.475-0.231,4.963-0.311,7.427-0.564c1.289-0.139,2.557-0.288,3.834-0.506c1.911-0.323,4.144-1.197,5.469-2.637
			c0.932-1.025,1.727-2.026,2.084-3.396c0.208-0.794,0.357-1.602,0.3-2.418c-0.046-0.598-0.092-1.197-0.092-1.796
			c-0.069-4.883,0.357-9.799,0.657-14.67c0.311-4.963,0.449-9.926,0.472-14.9c0.023-5.286,0.195-10.547,0.564-15.81
			c0.139-1.994,0.272-3.985,0.414-5.974c0.766,1.155,1.519,2.319,2.257,3.488c1.289,2.026,2.488,4.088,3.661,6.183
			c1.335,2.36,2.729,4.675,4.134,7.001c2.729,4.514,6.01,8.774,9.361,12.85c1.646,2.015,3.396,3.949,5.204,5.826
			c1.623,1.681,3.293,3.351,5.089,4.836c2.061,1.716,4.191,3.661,7.047,3.661c2.269,0,4.421-1.22,5.561-3.178
			c0.657-1.115,0.904-2.329,0.807-3.529c0.248-0.92,0.573-1.83,0.851-2.723c0.506-1.589,1.048-3.178,1.612-4.755
			c1.147-3.276,2.375-6.524,3.656-9.75c1.983-4.438,4.196-8.771,6.189-13.209c1.263-2.794,2.488-5.598,3.697-8.412
			c0.181,1.576,0.364,3.153,0.551,4.727c0.833,6.935,2.203,13.794,3.271,20.703c0.629,5.326,1.265,10.642,2.003,15.948
			c0.161,1.14,0.357,2.269,0.564,3.409c0.506,2.821,1.232,5.469,2.488,8.06c0.115,0.162,0.218,0.311,0.334,0.46
			c0.645,1.106,1.52,1.969,2.614,2.626c1.325,0.886,2.694,1.348,4.295,1.394c1.347,0.023,2.672-0.265,3.972-0.552
			c1.243-0.277,2.488-0.529,3.743-0.771c2.314-0.45,4.652-0.817,6.966-1.278c2.499-0.506,4.963-1.128,7.427-1.751
			c2.223-0.564,4.456-1.117,6.655-1.75c2.2-0.634,4.329-1.301,6.437-2.2c1.22-0.529,2.372-1.106,3.42-1.911
			c0.84-0.634,1.531-1.14,2.188-1.911c0.598-0.587,1.048-1.266,1.347-2.038c0.575-0.979,0.852-2.038,0.863-3.179
			C180.29,330.25,180.152,328.798,180.082,327.382z M161.72,329.96c-1.75,0.369-3.5,0.68-5.251,1.025
			c-3.046,0.59-6.093,1.19-9.157,1.678c-1.894,0.241-3.793,0.479-5.685,0.762c-0.202,0.03-0.405,0.062-0.607,0.095
			c-0.509-1.938-0.878-3.912-1.247-5.876c-0.473-2.544-0.875-5.112-1.29-7.669c-0.817-4.986-1.923-9.902-3.12-14.807
			c-2.314-9.453-3.766-19.068-5.723-28.59c-0.311-1.554-0.449-3.512-1.405-4.79c-0.84-1.128-1.681-1.992-3.097-2.383
			c-0.922-0.254-1.843-0.254-2.763,0c-0.875,0.241-1.646,0.691-2.291,1.336c-1.382,1.106-2.223,2.706-3.052,4.237
			c-0.541,0.99-1.014,2.015-1.474,3.051c-0.714,1.589-1.417,3.178-2.084,4.79c-1.056,2.542-2.104,5.073-3.158,7.605
			c-2.693,6.111-5.584,12.128-8.345,18.199c-1.814,3.995-3.325,8.11-4.873,12.208c-0.924-0.941-1.829-1.905-2.738-2.859
			c-2.324-2.428-4.419-5.056-6.51-7.694c-2.785-3.748-5.384-7.613-7.837-11.593c-1.37-2.234-2.752-4.433-4.191-6.621
			c-1.266-1.934-2.717-3.8-4.121-5.631c-1.831-2.395-3.661-4.778-5.573-7.104c-0.668-0.829-1.37-1.623-2.084-2.418
			c-0.357-0.403-0.726-0.806-1.117-1.197c-1.716-1.692-4.018-2.521-6.414-1.866c-2.268,0.622-3.604,2.487-4.259,4.616
			c-0.38,1.186-0.404,2.511-0.506,3.754c-0.103,1.301-0.219,2.613-0.288,3.926c-0.172,2.763-0.323,5.527-0.472,8.29
			c-0.185,3.569-0.403,7.127-0.552,10.697c-0.161,3.915-0.231,7.841-0.311,11.767c-0.161,7.414-1.14,14.771-2.118,22.128
			c-0.072,0.53-0.145,1.061-0.232,1.592c-0.905,0.003-1.809-0.008-2.716-0.023c-1.647-0.023-3.317-0.047-4.963,0.023
			c-3.432,0.149-6.852,0.287-10.294,0.311c-3.373,0.023-6.747,0-10.121-0.057c-0.905-0.014-1.813-0.032-2.721-0.052
			c-0.201-3.66-0.281-7.331-0.447-10.99c-0.218-4.963-0.346-9.936-0.529-14.9c-0.184-5.101-0.403-10.201-0.483-15.302
			c-0.08-4.974,0.011-9.949,0.069-14.922c0.126-9.833,0.483-19.69,0.092-29.523c-0.391-9.73-1.036-19.459-1.877-29.166
			c-0.255-2.94-0.509-5.872-0.799-8.796c0.25-6.22,0.532-12.437,0.766-18.654c0.308-8.138,0.195-16.288,0.51-24.428
			c0.092-0.049,0.185-0.099,0.278-0.147c2.171-0.729,4.448-1.078,6.697-1.494c1.393-0.264,2.786-0.495,4.18-0.748
			c3.081-0.536,6.172-1.042,9.263-1.51c2.758-0.331,5.501-0.597,8.274-0.815c1.324-0.103,2.66-0.195,3.995-0.288
			c1.483-0.094,2.982-0.25,4.476-0.239c0.274,0.273,0.536,0.558,0.791,0.855c1.522,2.118,2.902,4.342,4.301,6.547
			c1.336,2.072,2.672,4.144,3.995,6.229c2.717,4.306,5.032,8.855,7.358,13.369c2.223,4.318,4.57,8.555,6.793,12.873
			c1.025,1.992,2.003,4.007,3.235,5.895c0.749,1.129,1.647,2.314,2.845,3.017c0.898,0.518,2.2,0.921,3.247,0.921
			c1.186,0,2.13-0.392,3.155-0.945c1.579-0.863,2.545-2.555,3.225-4.144c0.529-1.267,0.99-2.534,1.405-3.834
			c2.383-7.496,4.547-15.004,5.976-22.741c0.737-3.938,1.474-7.887,2.269-11.814c0.346-1.715,0.714-3.42,1.06-5.135
			c0.23-1.106,0.437-2.229,0.7-3.338c0.349-0.085,0.703-0.158,1.062-0.223c4.406-0.466,8.871-0.321,13.286-0.088
			c4.41,0.231,8.82,0.426,13.23,0.598c8.634,0.311,17.258,1.038,25.831,2.068c0.082,0.015,0.164,0.029,0.246,0.046
			c0.239,0.408,0.458,0.827,0.664,1.256c1.744,4.824,2.539,9.941,3.241,15.012c0.502,5.162,0.879,10.335,1.234,15.507
			c0.334,4.721,0.703,9.441,0.979,14.162c0.588,10.329,1.301,20.657,1.889,30.986c0.588,10.26,0.876,20.53,1.002,30.801
			c0.103,9.684,0.472,19.356,0.944,29.028c0.208,4.237,0.46,8.475,0.794,12.701c0.276,3.391,0.706,6.768,1.161,10.135
			C165.497,329.205,163.608,329.564,161.72,329.96z"/>
	</g>
</g>
<g>
	<g>
		<path d="M325.27,197.108c-0.402-4.031-1.232-8.083-2.29-11.998c-1.692-6.218-4.099-12.539-8.013-17.708
			c-1.486-1.946-3.017-3.628-4.927-5.158c-2.326-1.854-4.733-3.212-7.52-4.26c-2.406-0.898-4.801-1.461-7.368-1.704
			c-0.745-0.07-1.49-0.103-2.235-0.103c-2.434,0-4.861,0.351-7.242,0.898c-1.186,0.264-2.337,0.726-3.489,1.128
			c-2.292,0.817-4.56,1.9-6.632,3.189c-1.727,1.058-3.361,2.21-4.986,3.431c-3.316,2.487-6.77,5.032-9.533,8.141
			c-2.531,2.867-4.972,5.858-7.014,9.104c-0.253-0.199-0.504-0.397-0.758-0.595c-3.063-2.406-6.172-4.537-9.695-6.195
			c-4.606-2.154-9.42-3.454-14.427-4.249c-5.032-0.783-10.018-1.174-15.084-0.495c-2.406,0.334-4.698,0.863-6.978,1.715
			c-2.993,1.14-5.458,2.786-7.898,4.848c-1.762,1.486-3.12,3.512-4.445,5.389c-0.944,1.335-1.739,2.832-2.452,4.318
			c-0.852,1.761-1.716,3.512-2.499,5.319c-1.37,3.189-2.706,6.38-3.696,9.718c-1.463,4.963-1.969,10.236-2.119,15.394
			c-0.149,4.871,0.611,9.8,1.693,14.542c0.737,3.235,1.946,6.334,3.155,9.419c2.752,6.989,5.803,14.013,9.798,20.393
			c4.146,6.632,8.912,12.907,13.944,18.894c2.326,2.763,4.686,5.504,7.266,8.026c2.683,2.626,5.423,5.181,8.21,7.702
			c5.562,5.02,11.123,10.052,17.099,14.578c5.769,4.375,11.756,8.429,17.974,12.124c1.163,0.703,2.326,1.417,3.512,2.061
			c2.349,1.278,5.078,1.209,7.438-0.012c2.13-1.094,3.811-2.844,5.412-4.593c2.591-2.822,4.974-5.849,7.312-8.878
			c2.223-2.891,4.41-5.815,6.39-8.889c2.003-3.074,3.915-6.195,5.768-9.35c3.857-6.575,7.646-13.138,11.169-19.885
			c1.9-3.638,3.373-7.518,4.951-11.307c1.313-3.178,2.488-6.401,3.592-9.649c1.197-3.477,2.349-6.966,3.258-10.524
			c0.956-3.731,1.658-7.496,2.234-11.307c1.14-7.61,1.704-15.222,1.819-22.914C326.018,204.132,325.616,200.62,325.27,197.108z
			 M264.452,193.631c0.008-0.023,0.022-0.047,0.032-0.071c-0.013,0.03-0.025,0.061-0.039,0.092
			C264.448,193.645,264.45,193.638,264.452,193.631z M311.932,226.799c-0.406,2.899-0.864,5.771-1.388,8.652
			c-0.598,3.281-1.577,6.494-2.498,9.684c-1.686,5.844-3.939,11.512-6.222,17.133c-1.591,3.445-3.255,6.814-5.016,10.19
			c-1.831,3.477-3.926,6.829-5.93,10.201c-2.015,3.397-4.076,6.747-6.149,10.098c-1.801,2.906-3.839,5.651-5.889,8.39
			c-1.558,1.932-3.127,3.861-4.726,5.762c-1.543,1.827-3.092,3.681-4.768,5.39c-2.512-1.294-4.932-2.805-7.299-4.284
			c-3.739-2.334-7.341-4.839-10.885-7.452c-7.001-5.539-13.631-11.492-20.238-17.488c-6.587-5.985-12.121-12.971-17.564-19.975
			c-1.219-1.681-2.448-3.342-3.565-5.091c-1.301-2.038-2.511-4.077-3.697-6.183c-2.075-3.676-3.798-7.514-5.489-11.371
			c-0.613-1.577-1.234-3.163-1.845-4.748c-1.404-3.606-2.311-7.374-2.884-11.199c-0.387-3.712-0.341-7.361,0.059-11.064
			c0.592-3.777,1.562-7.407,2.973-10.96c0.865-1.928,1.786-3.831,2.787-5.683c1.54-2.864,3.053-5.7,4.946-8.338
			c0.728-0.832,1.491-1.596,2.311-2.333c0.838-0.569,1.695-1.075,2.606-1.54c1.673-0.603,3.356-1.039,5.105-1.35
			c3.578-0.323,7.156-0.091,10.726,0.343c3.721,0.592,7.328,1.471,10.839,2.836c2.42,1.119,4.683,2.422,6.9,3.934
			c1.055,0.715,2.076,1.518,3.108,2.279c0.886,0.695,1.773,1.391,2.654,2.094c0.102,0.223,0.212,0.435,0.331,0.636
			c0.944,1.625,2.522,2.832,4.329,3.328c1.866,0.518,3.903,0.253,5.573-0.726c0.495-0.38,0.979-0.76,1.463-1.127
			c0.734-0.743,1.282-1.585,1.647-2.541c1.347-2.764,2.906-5.509,4.679-8.008c1.686-2.056,3.504-3.946,5.512-5.702
			c3.42-2.528,6.986-4.893,10.831-6.721c1.892-0.68,3.817-1.221,5.786-1.597c1.367-0.093,2.712-0.107,4.071-0.01
			c1.432,0.288,2.821,0.673,4.191,1.17c0.846,0.448,1.645,0.935,2.426,1.475c0.828,0.737,1.588,1.507,2.31,2.342
			c1.664,2.339,3.064,4.842,4.262,7.45c0.819,2.081,1.651,4.185,2.197,6.351c0.635,2.519,1.173,5.026,1.676,7.586
			c0.246,1.998,0.46,3.988,0.58,6.001c0.149,2.557,0.172,5.089,0.172,7.646C312.95,217.122,312.436,221.984,311.932,226.799z"/>
	</g>
</g>
<g>
	<g>
		<path d="M511.956,317.239c-0.115-1.761-0.334-3.535-0.529-5.296c-0.428-3.714-0.94-7.428-1.461-11.134
			c-0.658-5.174-1.173-10.35-1.647-15.534c-0.506-5.55-0.829-11.112-1.255-16.673c-0.449-5.838-0.979-11.675-1.52-17.513
			c-0.557-5.931-1.45-11.806-2.363-17.691c-0.335-2.519-0.66-5.048-0.782-7.594c-0.149-2.97-0.207-5.953-0.403-8.923
			c-0.404-6.091-1.106-12.136-1.946-18.181c-0.829-5.872-1.646-11.744-2.614-17.582c-0.253-1.509-0.506-3.017-0.76-4.526
			c-0.3-1.808-0.703-3.592-1.163-5.354c-0.575-2.177-1.463-4.237-2.349-6.298c-1.255-2.937-3.409-5.849-6.77-6.298
			c-1.75-0.241-3.477-0.414-5.228-0.495c-3.05-0.132-6.104-0.168-9.159-0.168c-2.801,0-5.601,0.03-8.4,0.04
			c-5.757,0.011-11.515,0-17.271,0.024c-3.063,0-6.137,0.023-9.2,0.115c-3.892,0.103-7.91,0.357-11.698,1.22
			c-2.084,0.472-3.903,1.554-5.423,3.016c-1.209,1.174-1.818,2.902-2.072,4.526c-0.254,1.669-0.449,3.35-0.68,5.032
			c-0.369,2.822-0.611,5.653-0.932,8.475c-0.032,0.269-0.064,0.536-0.094,0.805c-0.698,4.353-1.691,8.622-2.693,12.92
			c-0.552,2.372-1.104,4.744-1.681,7.104c-0.054,0.217-0.11,0.434-0.168,0.651c-0.709-1.596-1.416-3.194-2.101-4.797
			c-2.395-5.63-4.858-11.181-7.656-16.626c-1.313-2.557-2.914-4.951-4.503-7.358c-0.703-1.06-1.543-2.061-2.303-3.074
			c-1.405-1.877-2.96-3.697-4.675-5.297c-0.737-0.691-1.566-1.266-2.383-1.841c-0.3-0.139-0.599-0.277-0.899-0.403
			c-0.771-0.46-1.612-0.68-2.51-0.68c-0.748-0.08-1.497-0.011-2.257,0c-1.325,0.023-2.648,0.046-3.984,0.138
			c-2.694,0.185-5.377,0.426-8.072,0.622c-6.678,0.506-13.402,0.806-20.046,1.704c-1.831,0.254-3.651,0.564-5.446,1.036
			c-1.969,0.518-3.72,1.359-5.297,2.637c-1.911,1.543-2.775,3.938-2.924,6.334c-0.057,0.921-0.08,1.841-0.103,2.763
			c-0.046,3.006-0.08,6.023-0.139,9.027c-0.103,5.688-0.391,11.376-0.472,17.076c-0.103,6.171-0.195,12.332-0.529,18.503
			c-0.3,5.538-0.853,11.066-1.21,16.604c-0.38,5.884-0.714,11.779-0.817,17.685c-0.129,7.533-0.03,15.058,0.203,22.581
			c-0.287,1.951-0.555,3.902-0.778,5.86c-0.645,5.676-1.209,11.353-1.841,17.029c-0.598,5.412-1.106,10.847-1.531,16.281
			c-0.219,2.798-0.265,5.596-0.472,8.394c-0.093,1.266-0.219,2.534-0.334,3.8c-0.046,0.611-0.092,1.209-0.139,1.82
			c-0.126,1.692,0.047,3.35,0.392,5.02c0.68,3.327,3.949,6.137,7.23,6.724c1.67,0.3,3.374,0.46,5.066,0.552
			c2.717,0.138,5.423,0.334,8.141,0.392c5.343,0.126,10.709-0.161,16.063-0.23c6.516-0.093,13.011-0.529,19.413-1.831
			c2.994-0.611,6.275-1.451,8.509-3.684c0.794-0.794,1.957-2.499,2.164-3.651c0.185-0.99,0.323-2.003,0.38-3.016
			c0.046-0.691,0.069-1.394,0.092-2.084c0.116-2.729,0.208-5.458,0.265-8.187c0.149-7.795,0.149-15.602,0.575-23.385
			c0.137-2.438,0.366-4.864,0.637-7.284c0.63,0.951,1.264,1.899,1.907,2.84c1.532,2.234,3.155,4.41,4.686,6.644
			c1.727,2.511,3.386,5.055,4.986,7.656c1.531,2.475,2.914,5.032,4.364,7.554c0.794,1.393,1.566,2.821,2.476,4.144
			c1.255,1.831,3.293,3.72,5.699,3.558c1.151-0.069,2.142-0.184,3.178-0.783c1.117-0.668,1.739-1.554,2.522-2.568
			c0.76-1.002,1.382-2.141,2.049-3.212c0.771-1.209,1.531-2.429,2.291-3.638c1.44-2.326,2.868-4.663,4.387-6.932
			c3.454-5.147,7.035-10.201,10.49-15.337c1.016-1.513,2.03-3.025,3.048-4.53c0.318,5.459,0.424,10.918,0.879,16.367
			c0.218,2.694,0.552,5.377,0.863,8.06c0.218,1.934,0.437,3.869,0.703,5.792c0.391,2.752,0.737,5.504,1.75,8.118
			c0.472,1.197,0.898,2.246,1.612,3.271c0.414,0.529,0.817,1.058,1.232,1.589c0.726,0.598,1.474,1.163,2.246,1.693
			c1.509,1.058,3.489,1.151,5.251,1.025c1.278-0.092,2.556-0.264,3.833-0.357c2.971-0.231,5.942-0.426,8.924-0.68
			c3.477-0.3,6.955-0.749,10.431-1.14c4.813-0.552,9.684-0.945,14.45-1.866c1.174-0.218,2.314-0.588,3.42-1.048
			c0.84-0.288,1.647-0.657,2.418-1.094c0.703-0.518,1.382-1.058,2.049-1.612c0.657-0.645,1.151-1.382,1.486-2.223
			c0.645-1.106,0.967-2.303,0.967-3.582C512.001,318.253,511.991,317.758,511.956,317.239z M383.308,171.752
			c0.139,0.102,0.272,0.21,0.402,0.326c-0.142-0.109-0.284-0.216-0.424-0.323C383.294,171.754,383.301,171.753,383.308,171.752z
			 M343.318,330.616v-0.001c0.007,0.009,0.015,0.018,0.022,0.028C343.333,330.633,343.326,330.624,343.318,330.616z
			 M497.371,314.513c-2.531,0.276-5.081,0.414-7.614,0.62c-3.12,0.264-6.229,0.564-9.35,0.794c-3.189,0.254-6.38,0.449-9.568,0.564
			c-1.085,0.038-2.177,0.045-3.265,0.046c-0.551-2.449-0.848-4.98-1.215-7.438c-0.312-2.073-0.608-4.147-0.903-6.226
			c-0.668-5.909-1.065-11.84-1.688-17.758c-0.311-2.937-0.645-5.861-0.886-8.797c-0.126-1.474-0.241-2.947-0.391-4.41
			c-0.103-1.094-0.265-2.177-0.414-3.27c-0.172-1.267-0.472-2.268-1.071-3.466c-0.714-1.428-2.291-2.511-3.8-2.914
			c-0.564-0.08-1.129-0.161-1.692-0.231c-1.151,0-2.211,0.288-3.212,0.863c-1.266,0.552-2.314,1.934-2.97,3.086
			c-0.449,0.794-0.991,1.554-1.474,2.326c-0.726,1.129-1.463,2.246-2.188,3.373c-1.22,1.877-2.464,3.754-3.638,5.666
			c-2.717,4.41-5.469,8.786-8.29,13.115c-2.545,3.926-5.297,7.703-7.841,11.641c-1.212,1.875-2.393,3.783-3.6,5.674
			c-0.961-1.856-1.951-3.685-2.94-5.524c-2.108-3.915-4.457-7.703-6.783-11.48c-2.303-3.72-4.524-7.485-6.747-11.261
			c-1.106-1.889-2.291-3.731-3.5-5.55c-0.565-0.852-1.151-1.692-1.739-2.534c-0.506-0.726-1.186-1.808-1.773-2.337
			c-0.587-0.565-1.22-1.071-1.9-1.531c-1.232-0.726-2.429-0.898-3.834-0.956c-2.786-0.126-5.987,2.13-6.517,4.963
			c-0.529,2.878-0.38,5.872-0.519,8.797c-0.088,1.692-0.301,3.383-0.511,5.061c-0.542,3.865-1.169,7.75-1.492,11.635
			c-0.323,4.03-0.611,8.06-0.806,12.102c-0.185,3.789-0.38,7.564-0.588,11.353c-0.135,2.456-0.266,4.916-0.481,7.368
			c-0.432,0.073-0.867,0.142-1.302,0.206c-3.731,0.358-7.463,0.491-11.217,0.336c-4.088-0.162-8.175-0.391-12.263-0.542
			c-3.651-0.126-7.289-0.311-10.927-0.46c-1.115-0.051-2.228-0.078-3.347-0.101c-0.049-1.209-0.085-2.42-0.131-3.63
			c-0.103-2.66-0.172-5.331-0.023-7.979c0.334-5.585,0.794-11.146,1.358-16.719c0.552-5.492,1.014-10.997,1.486-16.501
			c0.46-5.366,0.852-10.732,0.979-16.121c0.092-3.892-0.057-7.761-0.208-11.653c-0.08-1.818-0.172-3.65-0.334-5.469
			c-0.192-2.048-0.627-4.047-0.937-6.07c-0.14-1.185-0.253-2.372-0.35-3.561c0.908-8.272,1.944-16.528,2.496-24.831
			c0.403-5.999,0.575-11.998,0.886-17.997c0.3-5.699,0.598-11.41,0.863-17.11c0.042-0.96,0.093-1.92,0.15-2.877
			c2.659-0.828,5.42-1.238,8.172-1.629c4.388-0.501,8.787-0.982,13.175-1.538c4.173-0.533,8.328-1.238,12.49-1.862
			c1.185,1.151,2.215,2.413,3.243,3.698c1.874,2.663,3.646,5.353,5.201,8.216c1.534,2.836,2.875,5.756,4.179,8.691
			c2.084,5.081,4.053,10.211,6.001,15.339c1.013,2.694,1.969,5.412,3.006,8.095c0.483,1.255,1.104,3.132,2.177,4.054
			c0.956,0.806,1.785,1.507,3.029,1.841c1.174,0.323,2.418,0.287,3.581-0.103c4.571-1.554,6.38-7.001,7.967-11.088
			c1.094-2.809,1.727-5.769,2.36-8.706c0.611-2.809,1.197-5.62,1.796-8.429c0.657-3.029,1.256-6.056,1.693-9.131
			c0.46-3.27,0.76-6.563,1.14-9.844c0.01-0.073,0.017-0.145,0.026-0.216c0.171-1.286,0.341-2.581,0.581-3.856
			c0.69-0.185,1.387-0.334,2.1-0.458c8.761-0.925,17.553-0.925,26.355-0.904c4.858,0.011,9.73,0.023,14.589,0.103
			c3.671,0.056,7.374,0.052,11.044,0.272c0.122,0.238,0.239,0.479,0.351,0.723c1.63,4.256,2.301,8.723,2.947,13.214
			c0.752,5.848,1.459,11.687,2.112,17.548c0.61,5.446,1.163,10.938,1.324,16.419c0.161,5.976,0.346,11.917,1.14,17.847
			c0.783,5.861,1.428,11.71,1.785,17.628c0.657,11.1,1.06,22.211,1.831,33.311c0.38,5.412,0.76,10.824,1.393,16.224
			c0.334,2.763,0.645,5.527,0.933,8.301c0.133,1.304,0.281,2.618,0.411,3.934C497.442,314.501,497.406,314.508,497.371,314.513z"/>
	</g>
</g>
<g>
</g>
<g>
</g>
<g>
</g>
<g>
</g>
<g>
</g>
<g>
</g>
<g>
</g>
<g>
</g>
<g>
</g>
<g>
</g>
<g>
</g>
<g>
</g>
<g>
</g>
<g>
</g>
<g>
</g>
</svg>
