<?xml version="1.0" encoding="iso-8859-1"?>
<!-- Generator: Adobe Illustrator 19.0.0, SVG Export Plug-In . SVG Version: 6.00 Build 0)  -->
<svg version="1.1" id="Layer_1" xmlns="http://www.w3.org/2000/svg" xmlns:xlink="http://www.w3.org/1999/xlink" x="0px" y="0px"
	 viewBox="0 0 512.005 512.005" style="enable-background:new 0 0 512.005 512.005;" xml:space="preserve">
<g>
	<g>
		<path d="M233.48,252.595c-0.078,0.034-0.155,0.07-0.234,0.102c0.078-0.032,0.158-0.067,0.236-0.102H233.48z"/>
	</g>
</g>
<g>
	<g>
		<path d="M511.731,322.65c-0.286-0.998-0.786-1.858-1.522-2.594c-1.434-1.771-3.791-2.444-5.923-2.918
			c-3.093-0.686-6.26-1.222-9.391-1.646c-3.866-0.537-7.719-0.949-11.623-1.16c-3.194-0.174-6.389-0.348-9.582-0.596
			c-1.812-0.247-3.608-0.504-5.407-0.863c-2.319-0.461-4.626-0.972-6.947-1.496c-4.4-0.996-8.89-1.528-13.365-2.086
			c-2.826-0.42-5.619-0.831-8.319-1.754c-0.312-5.243,0.431-10.547,0.798-15.763c0.436-6.273,0.523-12.533,0.586-18.805
			c0.051-5.762,0.126-11.573-0.273-17.321c-0.25-3.516-0.511-7.02-0.91-10.525c-0.213-1.933-0.475-3.878-0.949-5.775
			c-0.536-2.095-1.771-4.352-3.691-5.473c-0.997-0.584-2.122-0.869-3.246-0.869c-1.252,0-2.503,0.353-3.575,1.044
			c-1.084,0.699-1.833,1.608-2.656,2.556c-3.915,4.538-8.293,8.629-12.595,12.781c-4.365,4.227-8.941,8.243-13.494,12.27
			c-9.141,8.094-18.219,16.248-27.783,23.831c-0.617,0.481-1.217,0.961-1.829,1.442c-9.283,7.094-18.483,14.38-28.124,20.979
			c-5.425,3.719-10.893,7.374-16.367,11.013c0.523-1.344,1.043-2.691,1.582-4.027c0.908-2.13,1.831-4.253,2.691-6.408
			c0.836-2.083,1.596-4.178,2.395-6.273c1.683-4.389,3.379-8.779,4.963-13.205c1.558-4.365,2.993-8.767,4.364-13.182
			c0.624-2.033,1.247-4.091,2.02-6.074c0.873-2.207,1.795-4.401,2.694-6.597c0.353-0.868,0.122-2.034-0.291-2.877
			c0.122-1.349-0.034-2.733-0.267-4.037c-0.497-2.819-2.48-5.187-4.326-7.245c-0.873-0.959-1.734-1.92-2.607-2.88
			c-2.918-3.241-5.923-6.372-9.129-9.34c-1.721-1.596-3.453-3.156-5.237-4.665c-2.694-2.255-5.673-3.99-8.767-5.624
			c-2.83-1.483-5.686-2.929-8.729-3.953c-2.078-0.69-4.336-1.083-6.552-1.083c-0.632,0-1.26,0.031-1.879,0.098
			c-1.422,0.149-2.844,0.387-4.252,0.66c-4.378,0.811-8.705,1.957-12.881,3.504c-1.12,0.415-2.224,0.867-3.338,1.292
			c1.053-2.759,2.097-5.527,3.239-8.24c-0.162,0.387-0.324,0.772-0.486,1.146c1.458-3.466,2.955-6.92,4.378-10.399
			c0.598-1.446,1.11-2.929,1.583-4.427c0.137-0.461,0.275-0.923,0.412-1.373c0.112-0.398,0.199-0.798,0.261-1.21
			c0.188-1.084,0.237-1.733,0.063-2.83c-0.236-1.41-1.11-2.594-2.418-3.193c-0.674-0.387-1.397-0.586-2.171-0.586
			c-0.31,0.036-0.62,0.078-0.93,0.119c0.07-0.011,0.138-0.021,0.208-0.031c-3.218,0.411-6.435,0.898-9.627,1.522
			c-3.194,0.625-6.389,1.325-9.6,1.875c0.23-1.225,0.468-2.448,0.696-3.67c0.186-1.011,0.374-2.02,0.548-3.031
			c0.174-1.011,0.325-2.056,0.436-3.081c0.126-1.148,0.014-2.17-0.186-3.317c-0.199-1.184-1.271-2.444-2.255-3.018
			c-1.248-0.724-2.756-0.885-4.154-0.561c-0.748,0.187-1.483,0.449-2.232,0.686c-2.78,0.873-5.549,1.808-8.355,2.631
			c-3.849,1.145-7.732,2.357-11.702,3.032c-0.129,0.012-0.26,0.022-0.389,0.03c-0.242-3.18-0.357-6.371-0.741-9.536
			c-0.286-2.294-0.586-4.588-0.923-6.871c-0.287-2.007-0.548-4.027-0.96-6.01c-0.598-2.83-1.235-5.636-2.37-8.317
			c-0.536-1.272-1.346-2.432-2.581-3.142c-0.751-0.443-1.619-0.659-2.487-0.659c-0.992,0-1.982,0.282-2.8,0.834
			c-1.508,1.022-2.219,2.556-3.018,4.102c-1.821,3.504-3.754,6.959-5.538,10.476c-1.621,3.204-3.241,6.422-4.838,9.64
			c-1.518,3.057-2.846,6.169-4.153,9.306c0.021-0.051,0.041-0.102,0.062-0.154c-0.988,2.306-2.001,4.6-3.054,6.873
			c0.116-1.277,0.231-2.556,0.334-3.829c0.262-3.28,0.349-6.559,0.325-9.839c-0.062-6.571-0.935-13.094-1.833-19.591
			c-0.399-2.979-0.798-5.973-1.397-8.916c-0.648-3.154-1.446-6.235-2.319-9.327c-1.795-6.247-3.629-12.483-5.762-18.618
			c-2.132-6.123-5.088-12.009-8.082-17.734c-2.98-5.712-5.873-11.485-9.066-17.083c-3.254-5.686-6.833-11.123-10.612-16.461
			c-3.553-5.05-6.846-10.276-10.512-15.238c-1.82-2.444-3.542-4.939-5.287-7.433c-1.971-2.843-4.153-5.536-6.409-8.156
			c-2.095-2.444-4.215-4.85-6.372-7.232c-1.483-1.646-3.005-3.204-4.763-4.552c-1.252-0.955-2.652-1.385-4.12-1.385
			c-0.623,0-1.26,0.078-1.902,0.226c-2.494,0.574-4.028,2.906-4.715,5.175c-1.732,5.877-2.926,11.899-4.479,17.827
			c-0.38-0.204-0.76-0.412-1.141-0.606c-1.808-0.923-3.716-1.672-5.537-2.569c-4.002-1.958-7.855-4.165-11.597-6.585
			c-1.696-1.098-3.404-2.182-5.126-3.268c-0.724-0.461-1.447-0.923-2.207-1.346c-1.084-0.618-2.195-0.91-3.343-0.91
			c-0.635,0-1.282,0.088-1.943,0.262c-2.095,0.548-3.603,2.319-4.738,4.04c-0.836,1.272-1.373,2.806-1.933,4.216
			c-0.424,1.072-0.798,2.207-1.097,3.33c-0.3,1.148-0.612,2.283-0.91,3.417c-0.523,1.983-0.885,4.015-1.247,6.035
			c-0.189,1.064-0.407,2.127-0.609,3.189c-0.673-0.159-1.354-0.296-2.027-0.425c-2.145-0.398-4.289-0.722-6.447-1.011
			c0.374,0.051,0.749,0.101,1.123,0.15c-1.921-0.286-3.816-0.637-5.724-0.986c-1.993-0.352-3.995-0.476-5.999-0.476
			c-0.191,0-0.382,0-0.573,0.003c-2.794,0.05-5.599,0.25-8.343,0.686c-0.972,0.149-1.92,0.411-2.844,0.736
			c-0.598,0.199-1.16,0.461-1.733,0.724c-0.724,0.337-1.309,0.848-1.933,1.346c-0.972,0.773-1.309,2.331-1.398,3.493
			c-0.037,0.548-0.037,1.097-0.025,1.645c0.012,1.921,0.126,3.841,0.211,5.749c0.101,2.033,0.163,4.077,0.362,6.086
			c0.281,2.785,0.661,5.559,1.114,8.319c-2.734,0.06-5.468,0.162-8.205,0.342c-2.519,0.163-5.05,0.337-7.569,0.425
			c-2.095,0.062-4.178,0.112-6.26,0.374c-1.795,0.225-3.654,0.523-5.187,1.583c-0.947,0.648-1.733,1.373-2.32,2.369
			c-0.836,1.434-1.061,3.466-0.61,5.077c0.461,1.683,1.596,3.254,2.469,4.75c0.711,1.211,1.384,2.42,2.058,3.642
			c1.346,2.408,2.755,4.764,4.289,7.058c1.512,2.237,3.108,4.426,4.682,6.637c-3.029,0.071-6.056,0.173-9.078,0.378
			c-2.107,0.149-4.252,0.337-6.335,0.699c-1.895,0.337-3.566,1.197-4.925,2.594C0.848,126.129,0,128.062,0,130.168
			c0,1.996,0.761,3.58,1.572,5.35c1.522,3.331,3.243,6.597,4.864,9.876c3.18,6.398,6.235,12.882,10.088,18.905
			c2.008,3.142,4.377,6.074,6.672,9.017c2.045,2.631,4.103,5.262,6.235,7.831c4.515,5.437,9.315,10.613,14.241,15.675
			c2.457,2.531,5.038,4.95,7.52,7.458c2.382,2.395,4.664,4.863,7.22,7.058c2.943,2.531,6.172,4.738,9.34,6.959
			c2.643,1.845,5.3,3.678,8.031,5.412c5.824,3.704,11.846,7.158,18.044,10.188c3.553,1.746,7.344,2.98,11.086,4.203
			c3.218,1.061,6.423,2.056,9.702,2.88c3.205,0.811,6.459,1.472,9.689,2.12c3.367,0.686,6.746,1.31,10.151,1.784
			c6.945,0.96,13.842,1.26,20.838,0.623c2.744-0.249,5.487-0.586,8.205-1.072c2.295-0.411,4.564-1.098,6.796-1.783
			c0.858-0.265,1.712-0.557,2.565-0.853c-0.747,1.56-1.465,3.133-2.248,4.674c-1.509,3.006-3.156,5.948-4.689,8.941
			c-1.621,3.192-3.492,6.248-5.162,9.414c-0.798,1.509-1.534,3.042-2.281,4.589c-0.474,0.972-0.898,1.969-1.309,2.993
			c-0.349,0.873-0.573,1.808-0.86,2.705c-0.42,1.333,0.04,2.743,0.967,3.713c0.086,0.387,0.194,0.762,0.303,1.139
			c0.275,0.898,0.66,1.746,1.022,2.606c0.612,1.422,1.398,2.769,2.232,4.066c0.761,1.197,1.609,2.32,2.382,3.504
			c0.843,1.274,1.7,2.528,2.707,3.655c0.885,1.204,1.783,2.398,2.666,3.599c1.621,2.219,3.255,4.428,4.975,6.583
			c1.373,1.708,2.756,3.393,4.103,5.125c1.447,1.871,2.918,3.679,4.502,5.425c0.836,0.91,1.77,1.746,2.656,2.606
			c1.92,1.895,3.965,3.667,6.172,5.226c1.983,1.409,4.352,2.393,6.647,3.167c1.583,0.537,3.199,0.847,4.839,1.063
			c-0.285,0.635-0.572,1.271-0.854,1.904c-0.724,1.609-1.471,3.192-2.319,4.738c-1.983,3.592-3.965,7.183-5.861,10.824
			c-1.82,3.466-3.928,6.759-5.973,10.088c-2.107,3.417-4.252,6.833-6.297,10.287c-2.407,4.053-4.626,8.18-6.821,12.345
			c-1.085,2.07-2.207,4.128-3.241,6.223c-0.625,1.271-1.226,2.555-1.833,3.836c-0.38,0.527-0.725,1.089-0.986,1.754
			c-0.09,0.231-0.145,0.485-0.205,0.737c-0.065,0.136-0.129,0.272-0.194,0.407c-0.436,0.923-0.648,1.808-0.362,2.831
			c0.231,0.852,0.792,1.568,1.521,2.05c1.258,2.337,3.128,4.403,4.815,6.381c1.77,2.07,3.529,4.166,5.336,6.198
			c3.778,4.252,7.944,8.13,11.534,12.545c3.803,4.689,7.482,9.464,11.548,13.941c3.928,4.339,8.031,8.542,12.258,12.595
			c4.564,4.389,9.577,8.317,14.603,12.171c3.504,2.693,6.984,5.412,10.936,7.456c3.466,1.784,7.296,3.005,11.023,4.128
			c1.373,0.424,2.794,0.686,4.202,0.96c3.33,0.648,6.583,0.748,9.939,0.412c3.292-0.324,6.572-0.887,9.801-1.584
			c5.724-1.233,11.435-2.594,16.998-4.439c5.749-1.907,11.422-4.053,17.172-5.985c5.474-1.834,11.049-3.417,16.549-5.237
			c11.335-3.766,22.67-7.706,33.719-12.284c5.861-2.431,11.434-5.462,17.059-8.379c0.88-0.455,1.751-0.925,2.627-1.383
			c2.274,2.692,4.857,5.14,7.337,7.619c3.204,3.192,6.521,6.246,9.851,9.301c3.33,3.056,6.572,6.187,9.64,9.515
			c3.18,3.429,6.347,6.871,9.453,10.363c1.447,1.621,2.893,3.23,4.352,4.838c4.277,4.665,10.363,8.318,16.872,8.006
			c5.238-0.25,9.789-3.168,13.68-6.448c1.933-1.633,3.616-3.628,4.938-5.785c1.646-2.657,2.207-5.774,2.107-8.854
			c-0.101-3.131-1.023-6.223-2.756-8.83c-0.887-1.334-1.971-2.568-3.019-3.791c-1.297-1.522-2.743-2.893-4.176-4.265
			c-1.634-1.572-3.218-3.192-4.814-4.789c-1.471-1.483-2.968-2.955-4.326-4.552c-1.609-1.882-3.218-3.754-5.001-5.473
			c-1.696-1.634-3.491-3.156-5.251-4.713c-3.525-3.121-7.072-6.193-10.859-8.984c-1.222-1.062-2.202-2.351-3.269-3.561
			c-0.052-0.061-0.111-0.117-0.165-0.175c3.342-2.008,6.687-4.012,9.979-6.112c5.024-3.192,9.826-6.746,14.628-10.25
			c4.839-3.529,9.626-7.108,14.415-10.688c4.914-3.678,9.815-7.344,14.765-10.972c5.013-3.667,10.113-7.308,14.852-11.348
			c2.407-2.047,4.701-4.178,6.983-6.373c2.12-2.019,4.041-4.288,5.948-6.496c4.266-4.889,8.355-9.902,12.297-15.051
			c1.272-1.672,2.507-3.492,3.342-5.413c0.499-1.134,1.098-2.457,1.022-3.741C511.968,324.271,511.881,323.46,511.731,322.65z
			 M329.034,285.68c-1.373,3.542-2.806,7.046-4.265,10.538c-1.54,3.704-2.984,7.443-4.497,11.16
			c-0.883,2.068-1.759,4.128-2.599,6.198c-0.72,1.795-1.364,3.613-2.088,5.401c-0.187,0.426-0.378,0.852-0.569,1.271
			c-0.201,0.458-0.41,0.932-0.588,1.416c-1.214-1.066-2.391-2.167-3.581-3.244c-2.806-2.519-5.686-4.95-8.591-7.37
			c-2.856-2.395-5.886-4.602-8.891-6.821c-1.422-1.061-2.918-2.033-4.451-2.943c-0.591-0.352-1.184-0.724-1.779-1.089
			c7.942-3.907,15.841-7.878,23.908-11.517c3.954-1.783,8.018-3.316,11.885-5.299c3.085-1.57,6.061-3.342,8.904-5.313
			C330.909,280.61,330.009,283.158,329.034,285.68z M309.131,329.814c-5.722,3.729-11.63,7.17-17.545,10.592
			c-0.517-0.678-1.113-1.287-1.738-1.896c-0.823-0.799-1.633-1.609-2.468-2.407c-1.983-1.871-4.277-3.393-6.485-4.963
			c-4.258-3.02-8.576-5.942-12.738-9.094c-2.907-2.27-5.823-4.512-8.748-6.745c-0.808-0.654-1.598-1.333-2.39-2.008
			c1.22-0.535,2.441-1.067,3.663-1.593c6.141-2.538,12.316-5.001,18.385-7.706c1.937,1.652,3.877,3.3,5.788,4.992
			c2.407,2.132,4.926,4.128,7.383,6.198c2.581,2.156,5.15,4.326,7.731,6.484c2.607,2.17,5.213,4.339,7.72,6.608
			c0.465,0.415,0.889,0.855,1.286,1.324C309.024,329.673,309.081,329.742,309.131,329.814z M195.582,218.344
			c0.407-0.204,0.773-0.48,0.986-0.906c0.972-1.983,1.933-3.965,2.968-5.924c0.91-1.695,1.884-3.342,2.844-5.012
			c2.047-3.581,4.092-7.173,5.912-10.888c1.784-3.629,3.504-7.308,5.512-10.812c2.132-3.741,4.302-7.444,6.523-11.135
			c1.237-2.07,2.55-4.098,3.931-6.079c0.553,2.332,0.926,4.712,1.274,7.072c0.4,3.214,0.735,6.432,0.829,9.681
			c0.051,1.859,0.062,3.716,0.037,5.574c-0.012,1.334-0.099,2.618,0.138,3.941c0.211,1.197,0.91,2.195,1.746,3.055
			c1.26,1.309,3.193,1.659,4.914,1.834c2.544,0.261,5.125-0.262,7.594-0.837c1.309-0.311,2.594-0.673,3.89-1.034
			c1.82-0.499,3.616-1.048,5.412-1.596c1.471-0.454,2.923-0.946,4.372-1.45c-0.313,1.411-0.64,2.82-0.942,4.231
			c-0.149,0.699-0.311,1.396-0.449,2.106c-0.062,0.262-0.099,0.537-0.15,0.811c-0.087,0.637-0.174,1.271-0.261,1.907
			c0,0.998,0.3,1.907,0.736,2.794c0.449,0.923,1.322,1.882,2.232,2.381c0.511,0.287,1.036,0.537,1.584,0.724
			c0.798,0.236,1.621,0.312,2.443,0.399c0.998,0.112,2.047-0.163,3.019-0.286c1.072-0.15,2.132-0.349,3.192-0.574
			c3.669-0.753,7.306-1.692,10.957-2.536c-1.333,2.975-2.743,5.917-4.137,8.859c-1.809,3.816-3.516,7.669-5.35,11.46
			c-0.062,0.129-0.103,0.257-0.159,0.387c-0.523,0.946-1.065,1.882-1.548,2.847c-0.487,0.985-0.936,1.983-1.36,3.005
			c-0.001,0.001-0.001,0.004-0.002,0.005c-6.968,2.738-13.96,5.413-20.975,8.038c-4.028,1.496-8.131,2.743-12.159,4.24
			c-0.312,0.114-0.613,0.254-0.924,0.37c-0.091-0.056-0.173-0.103-0.266-0.162c0.077,0.061,0.15,0.119,0.226,0.179
			c-0.009,0.002-0.017,0.006-0.026,0.01c-1.196-0.927-2.417-1.813-3.68-2.669c-1.297-0.885-2.631-1.721-3.903-2.643
			c-2.606-1.871-5.1-3.878-7.745-5.686c-2.968-2.02-5.811-4.19-8.703-6.324c-2.744-2.033-5.549-3.977-8.305-6.023
			c-0.939-0.691-1.946-1.276-2.931-1.894C195.116,219.304,195.347,218.824,195.582,218.344z M191.981,225.235
			c1.495,0.976,2.954,1.994,4.408,3.05c2.095,1.533,4.24,2.98,6.322,4.515c2.207,1.609,4.39,3.241,6.597,4.839
			c1.881,1.365,3.815,2.625,5.675,4.012c1.812,1.411,3.611,2.846,5.398,4.306c0.824,0.673,1.646,1.355,2.463,2.037
			c-1.664,0.732-3.301,1.508-4.952,2.257c-1.352,0.599-2.693,1.201-4.041,1.812c-0.071,0.027-0.141,0.057-0.211,0.085
			c-1.963,0.517-3.925,1.036-5.881,1.578c-3.138-2.472-6.254-4.966-9.454-7.377c-1.281-0.995-2.533-2.008-3.817-2.989
			c-1.015-0.766-2.068-1.477-3.092-2.221c-1.798-1.425-3.469-3-5.162-4.563c-0.52-0.481-0.98-1.026-1.458-1.549
			c1.964-1.833,3.73-3.852,5.111-6.189C190.586,227.643,191.291,226.442,191.981,225.235z M79.081,83.148
			c-0.051,0.411-0.112,0.811-0.162,1.221c0.384-2.756,0.746-5.513,1.232-8.256c0.499-2.844,1.135-5.662,1.82-8.468
			c1.398-5.794,2.95-11.674,5.133-17.234c0.178-0.387,0.361-0.768,0.557-1.144c1.669,0.5,3.297,1.135,4.916,1.783
			c3.485,1.503,6.932,3.088,10.482,4.425c3.433,1.304,6.975,2.272,10.412,3.555c-0.364,1.385-0.722,2.771-1.026,4.166
			c-0.387,1.746-0.773,3.504-1.146,5.251c-0.349,1.595-0.536,3.23-0.786,4.839c-1.073,6.746-1.621,13.592-2.232,20.376
			c-0.077,0.857-0.127,1.716-0.196,2.572c-1.165-0.332-2.31-0.758-3.466-1.16c-2.432-0.86-4.963-1.497-7.457-2.207
			c-5.387-1.533-10.862-2.668-16.423-3.354c-0.823-0.099-1.647-0.165-2.472-0.241c0.032-0.252,0.055-0.506,0.089-0.761
			c-0.037,0.251-0.072,0.505-0.106,0.76h-0.001C78.526,87.226,78.804,85.193,79.081,83.148z M47.482,67.764
			c2.806-0.255,5.612-0.182,8.429,0.039c2.554,0.422,5.044,1.125,7.576,1.685c2.528,0.542,5.109,1.011,7.536,1.917
			c0.261,0.121,0.526,0.235,0.794,0.339c-0.273,1.467-0.569,2.929-0.806,4.404c-0.412,2.581-0.848,5.151-1.272,7.72
			c-0.225,1.384-0.461,2.78-0.786,4.153c-0.056,0.247-0.149,0.485-0.225,0.725c-1.446-0.035-2.892-0.061-4.339-0.083
			c-2.636-0.04-5.269-0.051-7.901-0.051c-2.238,0-4.474,0.006-6.709,0.01c-0.444-2.344-0.836-4.697-1.184-7.07
			c-0.067-0.507-0.133-1.013-0.2-1.521c-0.297-2.599-0.533-5.216-0.981-7.789c-0.211-1.184-0.424-2.369-0.711-3.542
			c-0.061-0.249-0.122-0.495-0.187-0.739C46.835,67.889,47.157,67.821,47.482,67.764z M22.627,100.226
			c1.68-0.17,3.367-0.315,5.05-0.49c2.432-0.236,4.85-0.637,7.282-0.811c5.288-0.398,10.562-0.536,15.862-0.66
			c5.162-0.126,10.326-0.211,15.488-0.186c4.822,0.012,9.608,0.107,14.405,0.628c3.578,0.551,7.094,1.287,10.611,2.178
			c3.42,0.87,6.915,1.815,10.211,3.082c0.828,0.362,1.646,0.735,2.458,1.131c0.486,0.236,0.947,0.511,1.409,0.786
			c0.661,0.393,1.291,0.602,1.952,0.739c-0.113,1.936-0.234,3.869-0.334,5.805c-0.175,3.355-0.337,6.697-0.474,10.051
			c-0.087,1.945-0.075,3.915,0.012,5.861c0.026,0.676,0.106,1.36,0.182,2.043c-3.77-1.738-7.552-3.352-11.406-4.9
			c-6.222-2.519-12.994-3.118-19.59-3.928c-6.634-0.823-13.406-1.073-20.076-1.172c-0.921-0.015-1.844-0.022-2.764-0.022
			c-6.019,0-12.016,0.28-18.03,0.402c-0.44-0.71-0.885-1.417-1.322-2.131c-1.621-2.657-3.317-5.251-5.026-7.857
			C26.323,107.399,24.438,103.835,22.627,100.226z M172.287,228.06c-0.249,0.15-0.499,0.337-0.735,0.499
			c-0.431,0.315-0.879,0.584-1.343,0.823c-3.547,1.264-7.275,2.214-10.981,2.862c-3.767,0.444-7.545,0.688-11.332,0.767
			c-4.216,0.083-8.466-0.287-12.65-0.799c-11.475-1.705-22.779-4.511-33.642-8.57c-5.942-2.646-11.594-5.929-17.169-9.299
			c-5.796-3.499-11.388-7.441-16.851-11.459c-2.723-2.28-5.259-4.708-7.84-7.159c-2.955-2.794-5.961-5.538-8.841-8.43
			c-5.692-5.706-10.93-11.779-15.908-18.109c-2.698-3.484-5.497-6.965-7.772-10.735c-1.272-2.106-2.556-4.189-3.604-6.422
			c-1.07-2.279-2.121-4.58-3.142-6.882c-0.957-2.396-1.914-4.81-2.791-7.251c2.579-0.097,5.166-0.194,7.753-0.282
			c6.448-0.213,12.882-0.598,19.316-0.998c6.023-0.374,12.096-0.461,18.132-0.311c6.69,0.168,13.37,0.383,20.026,1.182
			c4.786,0.739,9.539,1.967,14.042,3.742c2.906,1.151,5.803,2.321,8.681,3.519c2.403,1.077,4.772,2.168,7.118,3.378
			c2.531,1.297,4.95,2.73,7.408,4.176c4.01,2.36,7.742,5.324,11.44,8.189c-0.014-0.011-0.029-0.022-0.042-0.032
			c2.556,2.095,5.05,4.227,7.495,6.448c2.207,1.994,4.115,4.326,6.048,6.583c-0.287-0.374-0.561-0.735-0.848-1.11
			c1.149,1.491,2.296,2.974,3.445,4.462c1.841,2.599,3.767,5.186,5.397,7.934c1.733,2.918,3.417,5.849,4.988,8.866
			c3.175,6.092,6.34,12.198,9.309,18.388c0.509,1.226,0.998,2.456,1.427,3.723c0.623,1.858,1.172,3.728,1.708,5.624
			c0.632,2.203,1.264,4.403,1.912,6.601C172.39,228.004,172.339,228.03,172.287,228.06z M172.485,199.54
			c-1.656-3.328-3.278-6.67-4.949-9.988c-1.659-3.317-3.418-6.572-5.251-9.802c-1.634-2.88-3.516-5.599-5.375-8.329
			c-4.078-6.035-8.754-11.846-14.167-16.735c-2.594-2.357-5.237-4.651-7.981-6.847c-3.067-2.468-6.136-4.999-9.439-7.158
			c-1.406-0.921-2.873-1.732-4.308-2.601c-0.246-0.543-0.497-1.084-0.744-1.628c-0.424-0.928-0.88-1.831-1.352-2.732
			c-0.113-0.378-0.257-0.75-0.454-1.105c-0.225-0.407-0.438-0.813-0.642-1.223c-0.141-0.466-0.257-0.929-0.356-1.41
			c-0.47-4.51-0.123-9.11,0.086-13.616c0.187-4.027,0.399-8.056,0.637-12.083c0.486-7.954,1.346-15.87,2.294-23.786
			c0.41-3.042,0.785-6.128,1.485-9.111c0.873-3.704,1.783-7.383,2.83-11.048c1.061-3.766,2.07-7.532,3.069-11.322
			c0.189-0.721,0.379-1.443,0.576-2.166c0.449,0.485,0.898,0.97,1.344,1.455c2.076,2.24,4.143,4.48,6.065,6.854
			c1.736,2.518,3.263,5.162,4.896,7.748c1.522,2.431,3.205,4.751,4.726,7.17c1.646,2.607,3.23,5.274,4.988,7.806
			c1.92,2.769,3.89,5.513,5.849,8.243c3.592,5.013,6.959,10.2,9.952,15.588c3.205,5.762,6.459,11.485,9.602,17.271
			c1.646,3.018,3.098,6.084,4.46,9.222c3.392,9.279,6.111,18.831,7.705,28.576c0.78,6.639,1.284,13.278,1.403,19.952
			c0.121,6.771-0.359,13.485-1.128,20.197c-0.333,2.269-0.7,4.539-1.267,6.763c-0.61,2.4-1.383,4.68-2.313,6.961
			c-1.029,2.395-2.044,4.8-3.123,7.169c-0.375,0.827-0.745,1.665-1.118,2.502c-0.966-3.766-1.994-7.511-3.461-11.133
			C175.678,205.888,174.057,202.72,172.485,199.54z M174.288,257.446c1.584-2.929,3.205-5.824,4.552-8.866
			c0.699-1.583,1.371-3.168,2.07-4.751c0.205-0.466,0.408-0.931,0.614-1.396c0.142,0.128,0.279,0.261,0.42,0.389
			c1.123,0.998,2.196,2.033,3.354,2.98c1.309,1.072,2.668,2.056,4.066,2.993c2.432,1.645,4.814,3.353,7.27,4.962
			c1.089,0.722,2.101,1.553,3.161,2.319c-0.589,0.177-1.18,0.344-1.767,0.531c-2.008,0.637-3.965,1.373-5.973,2.008
			c-4.19,1.346-8.529,2.257-12.794,3.342c-2.145,0.548-4.252,1.21-6.36,1.859c-0.924,0.286-1.841,0.577-2.756,0.873
			C171.564,262.295,172.962,259.896,174.288,257.446z M170.441,274.617c-0.001-0.004-0.001-0.006-0.002-0.009
			c0.009-0.066,0.019-0.129,0.029-0.195C170.458,274.482,170.45,274.549,170.441,274.617z M201.376,312.572
			c-1.184-0.574-2.318-1.235-3.395-1.987c-2.141-1.787-4.108-3.756-6.115-5.694c-1.434-1.373-2.73-2.881-4.015-4.389
			c-2.429-2.83-4.962-5.576-7.293-8.479c-1.777-2.345-3.552-4.697-5.177-7.158c-1.539-2.333-2.797-4.805-3.926-7.347
			c-0.144-0.369-0.288-0.742-0.426-1.118c1.415-0.773,2.902-1.429,4.367-2.085c1.585-0.711,3.189-1.386,4.789-2.064
			c1.875-0.75,3.816-1.32,5.735-1.963c2.058-0.686,4.128-1.297,6.21-1.921c2.07-0.61,4.077-1.409,6.085-2.17
			c2.045-0.773,4.103-1.509,6.161-2.245c2.095-0.748,4.153-1.595,6.235-2.357c2.058-0.772,4.153-1.446,6.197-2.219
			c4.227-1.609,8.48-3.192,12.632-5.012c1.266-0.551,2.531-1.113,3.807-1.665c-0.168,0.072-0.334,0.138-0.502,0.205
			c0.245-0.103,0.491-0.205,0.736-0.307c0.004-0.001,0.009-0.002,0.012-0.005c-0.002,0.003-0.006,0.003-0.01,0.005
			c2.339-0.97,4.697-1.887,7.055-2.824c1.659-0.661,3.295-1.371,4.919-2.111c1.667-0.577,3.331-1.166,4.996-1.767
			c4.389-1.596,8.816-3.092,13.218-4.639c4.041-1.421,8.044-2.955,12.085-4.389c3.553-1.259,7.108-2.468,10.724-3.553
			c3.373-1.007,6.877-1.629,10.358-2.135c1.499-0.167,2.979-0.277,4.49-0.17c1.762,0.312,3.448,0.807,5.12,1.458
			c3.859,1.759,7.78,3.652,11.225,6.138c2.238,1.875,4.388,3.836,6.515,5.832c1.998,1.882,3.759,3.959,5.472,6.079
			c1.569,2.111,3.175,4.247,4.38,6.591c0.076,0.228,0.143,0.455,0.201,0.688c0.004,0.099,0.005,0.199,0.004,0.3
			c-0.026,0.093-0.052,0.187-0.081,0.281c-0.522,0.987-1.123,1.921-1.773,2.83c-1.693,2.085-3.58,3.953-5.647,5.665
			c-3.464,2.519-7.02,4.916-10.9,6.772c-4.215,2.02-8.478,3.904-12.681,5.924c-8.094,3.878-15.962,8.206-24.044,12.084
			c-2.371,1.144-4.755,2.24-7.16,3.313c-3.82,1.56-7.656,3.064-11.495,4.568c-4.19,1.621-8.33,3.417-12.545,4.999
			c-4.327,1.609-8.703,2.906-13.168,4.053c-4.302,1.098-8.517,2.556-12.868,3.393c-1.795,0.348-3.604,0.623-5.4,0.935
			c-1.533,0.262-3.056,0.583-4.587,0.852c-2.051,0.186-4.093,0.183-6.156,0.041c-0.751-0.129-1.495-0.287-2.239-0.494
			C202.782,313.118,202.077,312.847,201.376,312.572z M185.675,371.555c3.94-6.92,8.38-13.567,12.458-20.427
			c1.185-2.007,2.221-4.115,3.317-6.173c1.11-2.106,2.281-4.176,3.479-6.235c1.047-1.833,2.083-3.691,2.968-5.599
			c0.523-1.098,1.036-2.196,1.559-3.291c0.563-1.172,1.166-2.34,1.58-3.563c0.489-0.077,0.985-0.111,1.468-0.201
			c1.845-0.349,3.642-0.86,5.462-1.297c2.02-0.499,4.041-0.91,6.085-1.31c4.128-0.798,8.143-1.994,12.183-3.092
			c1.896-0.523,3.816-0.96,5.699-1.471c2.12-0.587,4.203-1.272,6.26-2.008c0.318-0.113,0.627-0.257,0.944-0.374
			c1.547,1.307,3.031,2.674,4.595,3.964c1.675,1.373,3.429,2.657,5.157,3.976c3.746,2.996,7.485,5.992,11.39,8.793
			c3.442,2.471,6.928,4.897,10.31,7.439c1.059,0.841,2.079,1.72,3.108,2.599c0.398,0.325,0.796,0.643,1.194,0.962
			c-3.049,1.734-6.133,3.432-9.27,4.976c-1.629,0.791-3.234,1.645-4.868,2.427c-1.319,0.536-2.63,1.082-3.936,1.645
			c-5.018,2.068-10.188,3.683-15.201,5.767c-5.249,2.183-10.662,4.015-16.198,5.288c-2.78,0.648-5.561,1.284-8.341,1.945
			c-2.656,0.624-5.226,1.497-7.794,2.395c-5.549,1.945-11.036,4.041-16.623,5.861c-2.78,0.91-5.599,1.572-8.43,2.283
			c-2.643,0.66-5.288,1.359-7.944,1.994c-1.784,0.418-3.562,0.882-5.329,1.374C182.499,377.303,184.05,374.408,185.675,371.555z
			 M421.086,431.229c1.522,1.309,3.042,2.617,4.552,3.953c1.596,1.41,3.055,2.98,4.515,4.539c1.396,1.509,2.792,2.979,4.277,4.401
			c1.471,1.41,2.991,2.769,4.477,4.153c1.458,1.373,2.968,2.681,4.414,4.066c1.39,1.323,2.692,2.774,3.907,4.275
			c0.367,0.538,0.696,1.08,0.997,1.659c0.285,0.794,0.496,1.591,0.665,2.427c0.087,0.867,0.116,1.721,0.062,2.59
			c-0.072,0.315-0.155,0.618-0.25,0.926c-0.285,0.577-0.604,1.123-0.967,1.654c-0.808,0.971-1.693,1.844-2.661,2.661
			c-1.61,1.184-3.333,2.216-5.14,3.085c-0.891,0.346-1.789,0.633-2.728,0.831c-0.693,0.051-1.37,0.055-2.058,0.003
			c-0.906-0.188-1.774-0.431-2.647-0.736c-1.256-0.589-2.424-1.288-3.552-2.1c-2.289-1.881-4.316-4.043-6.363-6.173
			c-1.497-1.572-3.031-3.105-4.552-4.651c-3.117-3.154-6.235-6.335-9.514-9.34c-3.393-3.118-6.909-6.123-10.4-9.142
			c-3.392-2.955-6.658-6.072-9.876-9.214c-0.833-0.821-1.615-1.68-2.422-2.515c2.306-1.257,4.605-2.525,6.873-3.859
			c2.533-1.496,4.976-3.154,7.457-4.738c1.754-1.121,3.526-2.221,5.294-3.326c0.684,0.737,1.39,1.457,2.013,2.202
			c0.632,0.833,1.278,1.655,1.972,2.446c0.806,0.926,1.792,1.672,2.773,2.406C415.24,426.126,418.163,428.682,421.086,431.229z
			 M485.818,341.193c-1.845,2.083-3.729,4.19-5.774,6.086c-1.221,1.148-2.418,2.382-3.715,3.454c-1.13,0.919-2.26,1.846-3.392,2.776
			c-4.681,3.456-9.438,6.774-14.229,10.08c-5.027,3.479-9.989,7.045-14.951,10.637c-9.79,7.083-19.466,14.341-29.68,20.826
			c-4.527,2.855-9.202,5.473-13.743,8.292c-2.73,1.696-5.437,3.404-8.13,5.125c-2.196,1.41-4.378,2.893-6.634,4.202
			c-2.73,1.596-5.45,3.156-8.242,4.639c-2.432,1.309-4.914,2.544-7.383,3.803c-4.992,2.538-9.948,5.099-15.026,7.435
			c-10.772,4.312-21.862,7.717-32.984,10.996c-5.55,1.646-11.123,3.154-16.659,4.863c-5.524,1.696-10.924,3.816-16.423,5.624
			c-7.877,2.574-16.035,4.549-24.229,5.852c-1.909,0.203-3.775,0.285-5.692,0.143c-4.01-0.74-7.955-1.824-11.777-3.251
			c-3.862-1.839-7.31-4.434-10.79-6.897c-2.387-1.692-4.746-3.423-7.077-5.183c-9.094-7.352-17.507-15.492-25.095-24.395
			c-1.884-2.219-3.766-4.439-5.699-6.622c-1.945-2.182-4.015-4.252-6.085-6.321c-1.946-1.946-3.89-3.915-5.698-5.985
			c-1.809-2.07-3.604-4.14-5.474-6.148c-0.281-0.298-0.563-0.596-0.844-0.891c4.687-1.11,9.485-1.726,14.188-2.763
			c5.985-1.322,11.834-2.942,17.619-4.976c10.333-3.647,20.567-7.574,30.862-11.34c0.638-0.201,1.276-0.41,1.911-0.63
			c1.971-0.681,3.915-1.414,5.846-2.18c4.241-1.537,8.471-3.095,12.672-4.717c5.712-2.195,11.236-4.776,16.759-7.394
			c5.699-2.705,11.199-5.873,16.698-8.966c5.026-2.819,10.051-5.624,14.965-8.642c4.912-3.018,9.725-6.209,14.564-9.351
			c5.387-3.492,10.787-6.97,16.198-10.425c9.939-6.372,19.329-13.581,28.844-20.551c5.449-4.002,10.786-8.118,16.074-12.333
			c4.477-3.58,8.779-7.383,13.156-11.086c9.391-7.919,18.792-15.775,27.684-24.267c0.296-0.283,0.593-0.566,0.889-0.849
			c0.102,0.761,0.199,1.523,0.3,2.283c-0.044-0.312-0.088-0.624-0.129-0.935c1.284,12.132,1.609,24.403,1.297,36.611
			c-0.149,5.849-1.11,11.648-1.659,17.471c-0.162,1.795-0.41,3.828,0.037,5.586c0.461,1.784,1.247,3.367,2.707,4.527
			c1.957,1.545,4.227,2.345,6.621,2.968c2.569,0.661,5.263,0.873,7.881,1.222c1.522,0.199,3.042,0.348,4.564,0.511
			c0.04,0.005,0.083,0.01,0.127,0.015c2.832,0.39,5.646,0.823,8.441,1.457c3.367,0.76,6.734,1.522,10.151,2.033
			c6.669,0.982,13.396,1.286,20.094,2.048c2.669,0.446,5.36,0.911,8.008,1.523C493.885,331.942,489.894,336.61,485.818,341.193z"/>
	</g>
</g>
<g>
	<g>
		<path d="M235.601,293.649c-0.127-0.47-0.351-0.926-0.569-1.38c-0.482-1.262-0.898-2.541-1.375-3.796
			c-0.798-2.083-1.721-4.103-2.755-6.072c-1.645-3.111-3.076-6.302-4.523-9.493c0.768-0.276,1.539-0.55,2.298-0.845
			c1.21-0.486,2.395-0.972,3.592-1.483c1.072-0.461,2.07-0.923,2.893-1.795c0.997-1.072,1.434-2.519,1.048-3.953
			c-0.461-1.639-2.034-2.972-3.775-2.972c-0.047,0-0.095,0.001-0.142,0.003c-1.572,0.05-2.806,0.624-4.215,1.284
			c-0.739,0.343-1.477,0.671-2.222,0.996c-1.782,0.72-3.561,1.451-5.298,2.296c-1.683,0.823-3.305,1.795-4.938,2.719
			c-3.044,1.708-6.029,3.601-9.202,5.031c-0.497,0.19-0.988,0.383-1.472,0.582c-0.874,0.348-1.559,0.736-2.047,1.572
			c-0.449,0.786-0.573,1.746-0.337,2.618c0.236,0.848,0.798,1.595,1.558,2.033c0.722,0.424,1.82,0.673,2.631,0.348
			c1.496-0.61,3.03-1.11,4.527-1.744c1.508-0.637,3.005-1.334,4.49-2.033c0.773-0.363,1.553-0.717,2.325-1.083
			c0.131,0.306,0.256,0.614,0.389,0.92c0.877,2.104,1.753,4.219,2.642,6.321c0.787,1.825,1.711,3.582,2.576,5.369
			c0.655,1.619,1.235,3.256,1.752,4.932c0.211,0.673,0.399,1.359,0.586,2.033c0.573,1.957,1.92,3.33,3.866,3.965
			c2.855,0.909,5.948-1.559,5.885-4.49c0-0.05,0-0.087,0-0.124c-0.01,0.085-0.021,0.172-0.031,0.256
			C235.824,295.01,235.814,294.447,235.601,293.649z"/>
	</g>
</g>
<g>
	<g>
		<path d="M281.6,267.64c-0.137-2.37-0.809-4.628-1.969-6.697c-0.487-0.86-1.11-1.646-1.708-2.432
			c-0.786-1.048-1.609-2.058-2.569-2.955c-1.297-1.197-2.868-2.134-4.465-2.87c-0.885-0.41-1.784-0.848-2.719-1.146
			c-0.873-0.3-1.758-0.548-2.668-0.711c-0.823-0.147-1.655-0.234-2.489-0.234c-0.15,0-0.302,0.004-0.454,0.009
			c-0.859,0.026-1.721,0.188-2.556,0.337c-2.369,0.398-4.552,1.221-6.61,2.468c-2.369,1.422-4.102,3.58-5.537,5.898
			c-1.123,1.821-1.958,3.791-2.432,5.886c-0.236,1.046-0.439,2.104-0.587,3.169c-0.2,0.501-0.383,1.011-0.548,1.532
			c-0.362,1.121-0.474,2.306-0.623,3.479c-0.162,1.185-0.162,2.357-0.05,3.542c0.247,2.732,1.182,5.351,2.704,7.62
			c1.472,2.195,3.305,4.015,5.437,5.549c0.974,0.699,2.157,1.135,3.268,1.522c1.322,0.461,2.831,0.561,4.24,0.648
			c4.327,0.262,8.492-1.458,11.885-4.027c0.935-0.699,1.858-1.41,2.769-2.146c1.608-1.322,2.943-2.88,4.053-4.638
			c0.898-1.422,1.508-3.031,2.106-4.602c0.337-0.859,0.637-1.734,0.885-2.631C281.562,272.103,281.736,269.822,281.6,267.64z
			 M273.533,271.143c-0.281,1.57-0.776,3.105-1.364,4.595c-0.431,0.924-0.916,1.804-1.494,2.635
			c-0.817,0.944-1.727,1.741-2.694,2.515c-1.328,0.964-2.654,1.865-4.128,2.577c-0.722,0.26-1.447,0.463-2.197,0.61
			c-0.862,0.065-1.71,0.048-2.572-0.026c-0.593-0.104-1.17-0.236-1.741-0.423c-0.518-0.259-1.008-0.547-1.487-0.873
			c-1.156-0.985-2.206-2.075-3.174-3.239c-0.683-0.954-1.274-1.938-1.782-2.993c-0.221-0.593-0.413-1.187-0.574-1.792
			c0.025-0.078,0.046-0.155,0.06-0.235c0.195-1.025,0.333-2.04,0.439-3.071c0.327-1.667,0.944-3.228,1.584-4.8
			c0.251-0.551,0.53-1.068,0.875-1.572c0.378-0.46,0.756-0.916,1.143-1.38c0.803-0.966,1.574-1.943,2.515-2.78
			c0.735-0.526,1.502-1.005,2.316-1.405c0.99-0.346,2-0.556,3.032-0.735c0.588-0.055,1.169-0.071,1.759-0.042
			c0.796,0.153,1.552,0.383,2.303,0.666c1.056,0.518,2.076,1.066,3.044,1.731c0.643,0.599,1.217,1.242,1.766,1.92
			c0.678,0.908,1.322,1.825,1.84,2.831c0.226,0.643,0.395,1.294,0.525,1.969C273.629,268.934,273.63,270.038,273.533,271.143z"/>
	</g>
</g>
<g>
	<g>
		<path d="M313.199,417.912c-0.464-1.83-1.661-3.003-3.02-4.174c-1.034-0.885-1.994-1.858-2.979-2.806
			c-1.884-1.808-3.704-3.665-5.524-5.549c-1.734-1.795-3.393-3.653-5.113-5.463c-1.858-1.957-3.754-3.89-5.648-5.811
			c-3.492-3.529-7.108-6.908-10.675-10.349c-1.034-0.998-2.083-1.994-3.117-2.993c-0.86-0.823-1.759-1.583-2.719-2.281
			c-0.996-0.726-2.417-1.361-3.767-1.361c-0.714,0-1.407,0.178-2.007,0.613c-1.121,0.809-1.907,1.657-2.244,3.041
			c-0.126,0.487-0.225,0.986-0.324,1.472c-0.25,1.272-0.499,2.558-0.736,3.828c-0.686,3.53-1.235,7.096-1.559,10.675
			c-0.149,1.633-0.275,3.291-0.262,4.938c0.009,0.666,0.036,1.344,0.06,2.023c-1.238-0.341-2.467-0.711-3.701-1.1
			c-2.457-0.773-4.95-1.397-7.444-1.994c-2.382-0.574-4.763-1.11-7.121-1.734c-2.868-0.76-5.748-1.609-8.678-2.02
			c-3.429-0.461-7.855-0.623-9.889,2.844c-1.146,1.969-0.923,4.289,0.087,6.246c0.325,0.624,0.674,1.235,1.023,1.834
			c1.185,2.07,2.42,4.115,3.791,6.06c3.266,4.639,7.083,8.854,10.612,13.292c1.833,2.295,3.653,4.578,5.624,6.76
			c2.107,2.332,4.602,4.289,7.183,6.074c2.432,1.695,6.024,0.461,7.42-1.946c0.736-1.247,0.935-2.78,0.548-4.176
			c-0.399-1.447-1.297-2.42-2.494-3.255c-0.492-0.341-0.986-0.69-1.475-1.041c-2.735-2.273-4.98-4.936-7.18-7.739
			c0.047,0.062,0.096,0.126,0.143,0.188c-2.743-3.534-5.554-7.005-8.363-10.482c-1.119-1.532-2.197-3.083-3.216-4.68
			c2.255,0.395,4.502,0.838,6.76,1.231c3.779,0.674,7.532,1.384,11.235,2.369c1.808,0.487,3.617,0.949,5.463,1.322
			c1.633,0.337,3.367,0.811,4.939-0.062c2.206-1.222,2.468-3.48,2.707-5.774c0.162-1.621,0.174-3.267,0.325-4.901
			c0.172-1.763,0.369-3.507,0.596-5.251c0.39-2.3,0.804-4.598,1.252-6.884c0.344,0.357,0.689,0.715,1.033,1.074
			c1.422,1.471,2.856,2.918,4.252,4.414c2.744,2.943,5.437,5.924,8.056,8.979c2.656,3.105,5.2,6.297,7.745,9.49
			c2.393,2.998,4.916,5.886,7.307,8.889c0.366,0.492,0.731,0.986,1.16,1.424c0.761,0.799,1.971,1.422,3.005,1.683
			C310.481,425.931,314.246,422.102,313.199,417.912z"/>
	</g>
</g>
<g>
	<g>
		<path d="M359.845,378.91c-0.026-2.515-0.438-5.098-0.998-7.553c-0.324-1.434-0.86-2.781-1.446-4.117
			c-0.75-1.744-1.746-3.216-2.906-4.713c-2.657-3.379-6.136-6.235-9.865-8.329c-2.157-1.211-4.502-2.107-6.859-2.819
			c-0.96-0.287-1.945-0.574-2.929-0.736c-1.983-0.312-3.965-0.648-5.985-0.661c-0.036,0-0.072,0-0.108,0
			c-1.524,0-3.07,0.256-4.569,0.537c-1.122,0.199-2.269,0.536-3.33,0.972c-2.294,0.949-4.6,1.871-6.658,3.291
			c-1.957,1.36-3.904,2.831-5.599,4.515c-3.592,3.58-6.386,7.844-8.118,12.62c-0.3,0.823-0.475,1.683-0.624,2.544
			c-0.175,0.96-0.312,1.971-0.362,2.943c-0.037,0.91-0.075,1.795-0.05,2.706c0.05,2.157,0.487,4.277,0.998,6.36
			c0.66,2.681,1.522,5.387,2.606,7.931c0.188,0.438,0.389,0.872,0.597,1.302c0.415,1.02,0.879,2.018,1.373,2.988
			c1.272,2.494,3.105,4.751,5.026,6.76c2.132,2.257,4.664,4.176,7.245,5.874c2.306,1.522,4.827,2.719,7.457,3.553
			c1.483,0.474,3.08,0.674,4.626,0.86c1.533,0.187,3.055,0.275,4.588,0.199c1.472-0.076,2.943-0.3,4.365-0.637
			c1.446-0.324,2.806-0.947,4.153-1.533c1.21-0.537,2.319-1.284,3.379-2.083c1.422-1.072,2.756-2.219,3.977-3.516
			c1.996-2.107,3.729-4.539,5.201-7.046c1.634-2.769,2.681-5.923,3.48-9.017c0.736-2.842,1.11-5.811,1.297-8.729
			C359.895,381.892,359.845,380.396,359.845,378.91z M348.986,385.604c-0.446,2.846-1.154,5.625-2.188,8.308
			c-0.879,1.889-1.966,3.644-3.189,5.334c-1.205,1.478-2.508,2.847-3.964,4.076c-0.895,0.618-1.813,1.165-2.788,1.634
			c-0.997,0.361-2.004,0.64-3.041,0.837c-1.718,0.158-3.418,0.123-5.136-0.062c-1.338-0.244-2.625-0.599-3.903-1.074
			c-1.953-0.896-3.808-1.971-5.583-3.174c-0.183-0.479-0.476-0.913-0.888-1.258c-1.165-0.992-2.274-2.096-3.263-3.281
			c-1.312-1.851-2.488-3.766-3.456-5.821c-0.803-2.229-1.262-4.579-1.666-6.914c-0.172-1.61-0.218-3.213-0.097-4.841
			c0.188-1.078,0.433-2.129,0.797-3.159c0.985-1.936,2.226-3.751,3.531-5.501c1.355-1.528,2.83-2.88,4.38-4.199
			c0.73-0.525,1.465-1.031,2.218-1.527c0.793-0.515,1.665-0.928,2.528-1.325c1.493-0.562,2.982-1.056,4.552-1.364
			c1.417-0.088,2.807-0.009,4.209,0.137c2.148,0.419,4.222,0.914,6.273,1.682c1.717,0.809,3.325,1.774,4.858,2.883
			c1.232,1.008,2.398,2.083,3.439,3.282c0.445,0.654,0.843,1.33,1.2,2.045c0.558,1.538,0.937,3.113,1.202,4.736
			C349.293,379.891,349.282,382.771,348.986,385.604z"/>
	</g>
</g>
<g>
	<g>
		<path d="M431.549,350.846c-0.513-1.16-1.486-2.082-2.347-3.005c-0.935-0.998-1.882-1.983-2.793-3.019
			c-1.858-2.132-3.553-4.401-5.375-6.571c-3.424-4.061-7.111-7.869-10.509-11.953c-1.805-2.366-3.534-4.792-5.241-7.226
			c-0.998-1.422-2.07-2.806-3.168-4.153c-1.917-2.4-4.452-5.619-7.755-5.619c-0.455,0-0.925,0.061-1.41,0.194
			c-3.106,0.859-4.028,3.928-4.502,6.709c-0.312,1.808-0.487,3.642-0.648,5.462c-0.286,3.18-0.637,6.336-1.036,9.503
			c0.026-0.155,0.049-0.313,0.071-0.471c-0.219,1.629-0.44,3.261-0.668,4.886c-0.242,1.664-0.419,3.408-0.74,5.103
			c-1.439-0.41-2.846-0.92-4.248-1.465c-2.208-1.049-4.322-2.202-6.423-3.476c-2.381-1.447-5.026-3.331-7.955-3.18
			c-2.469,0.137-4.689,1.572-5.4,4.04c-0.61,2.07,0,3.653,0.798,5.499c0.947,2.257,2.096,4.415,3.205,6.597
			c1.171,2.333,2.269,4.715,3.366,7.096c2.146,4.664,4.327,9.303,6.647,13.892c1.185,2.345,2.432,4.677,3.567,7.058
			c1.084,2.283,2.095,4.589,3.204,6.871c0.923,1.871,3.553,2.37,5.251,1.373c1.921-1.11,2.295-3.367,1.384-5.262
			c-0.526-1.087-1.023-2.192-1.502-3.307c-1.214-3.011-2.366-6.041-3.599-9.039c-1.471-3.553-2.929-7.108-4.314-10.686
			c-1.218-3.167-2.318-6.381-3.571-9.536c1.845,0.811,3.701,1.583,5.604,2.254c0.949,0.337,1.895,0.648,2.856,0.947
			c1.247,0.388,2.769,1.023,4.066,0.972c1.683-0.075,3.131-0.61,4.327-1.808c1.061-1.061,1.545-2.444,2.095-3.791
			c0.612-1.545,0.849-3.291,1.197-4.926c0.935-4.401,1.659-8.904,2.146-13.392c0.09-0.827,0.169-1.652,0.24-2.48
			c1.596,2.248,3.173,4.518,4.835,6.72c2.331,3.092,4.676,6.173,7.046,9.24c-0.262-0.324-0.512-0.66-0.773-0.998
			c2.269,2.943,4.427,5.962,6.509,9.029c1.122,1.634,2.195,3.317,3.204,5.026c0.388,0.648,0.75,1.322,1.098,1.994
			c0.736,1.422,1.708,2.257,2.955,3.205c0.949,0.548,1.971,0.823,3.055,0.836c1.609,0,3.168-0.648,4.289-1.784
			c0.761-0.76,1.272-1.645,1.572-2.681c0.063-0.536,0.137-1.072,0.213-1.609C432.372,352.816,432.097,351.793,431.549,350.846z"/>
	</g>
</g>
<g>
</g>
<g>
</g>
<g>
</g>
<g>
</g>
<g>
</g>
<g>
</g>
<g>
</g>
<g>
</g>
<g>
</g>
<g>
</g>
<g>
</g>
<g>
</g>
<g>
</g>
<g>
</g>
<g>
</g>
</svg>
