<?xml version="1.0" encoding="iso-8859-1"?>
<!-- Generator: Adobe Illustrator 19.0.0, SVG Export Plug-In . SVG Version: 6.00 Build 0)  -->
<svg version="1.1" id="Layer_1" xmlns="http://www.w3.org/2000/svg" xmlns:xlink="http://www.w3.org/1999/xlink" x="0px" y="0px"
	 viewBox="0 0 511.999 511.999" style="enable-background:new 0 0 511.999 511.999;" xml:space="preserve">
<g>
	<g>
		<path d="M135.644,147.388c-0.008,0.003-0.016,0.007-0.023,0.01c0.046-0.021,0.093-0.039,0.139-0.06
			C135.723,147.355,135.683,147.371,135.644,147.388z"/>
	</g>
</g>
<g>
	<g>
		<path d="M137.822,146.207c-0.104,0.044-0.205,0.092-0.308,0.136c0.151-0.07,0.301-0.128,0.452-0.197
			C137.918,146.167,137.87,146.186,137.822,146.207z"/>
	</g>
</g>
<g>
	<g>
		<path d="M201.217,343.879c-0.128-0.054-0.257-0.108-0.385-0.162c0.264,0.113,0.529,0.225,0.795,0.338
			C201.491,343.995,201.354,343.936,201.217,343.879z"/>
	</g>
</g>
<g>
	<g>
		<path d="M222.493,91.793c-0.092-0.647-0.209-1.272-0.358-1.906c-0.266-1.098-0.774-2.173-1.26-3.19
			c-0.544-1.132-1.351-2.149-2.219-3.062c-0.531-0.566-1.259-1.029-1.93-1.399c-0.636-0.358-1.432-0.612-2.137-0.842
			c-0.861-0.288-1.752-0.427-2.642-0.427c-1.75,0-3.486,0.537-4.949,1.524c-2.416,1.618-4.369,4.091-5.247,6.864
			c-0.2,0.623-0.267,1.253-0.263,1.885c-0.119,0.645-0.181,1.295-0.2,1.929c-0.046,1.179,0.265,2.438,0.658,3.547
			c0.395,1.145,1.018,2.301,1.827,3.213c1.907,2.15,4.737,3.19,7.58,3.154c2.485-0.023,4.992-1.236,7.073-2.52
			c1.131-0.694,2.323-1.664,3.003-2.842c0.381-0.659,0.67-1.341,0.925-2.069c0.23-0.669,0.243-1.432,0.312-2.126
			C222.666,92.949,222.608,92.372,222.493,91.793z M211.373,91.238c-0.002-0.001-0.002-0.003-0.003-0.007l0.002-0.006
			c0,0,0.002,0.006,0.003,0.008C211.375,91.236,211.373,91.238,211.373,91.238z M211.418,91.358
			c0.002-0.003,0.003-0.007,0.006-0.009c0.046,0.111,0.092,0.221,0.137,0.331C211.509,91.575,211.461,91.466,211.418,91.358z"/>
	</g>
</g>
<g>
	<g>
		<path d="M448.717,317.175c-0.358,0.052-0.717,0.101-1.075,0.151c0.567-0.081,1.133-0.149,1.698-0.23
			C449.131,317.122,448.925,317.149,448.717,317.175z"/>
	</g>
</g>
<g>
	<g>
		<path d="M98.861,290.173c0,0.002,0,0.003,0,0.005c0.006,0.056,0.013,0.113,0.02,0.168
			C98.874,290.29,98.868,290.232,98.861,290.173z"/>
	</g>
</g>
<g>
	<g>
		<path d="M95.129,275.152c0.009,0.023,0.018,0.045,0.028,0.068c0.015,0.033,0.029,0.068,0.043,0.101
			C95.175,275.265,95.151,275.208,95.129,275.152z"/>
	</g>
</g>
<g>
	<g>
		<path d="M77.895,268.322c-0.309-0.082-0.617-0.119-0.927-0.119c-1.036,0-2.065,0.402-2.99,0.811
			c-1.34,0.59-2.484,1.756-2.982,3.132c-0.52,1.409-0.462,2.819-0.23,4.275c0.129,0.37,0.267,0.74,0.441,1.086
			c0.162,0.358,0.381,0.682,0.658,0.958c0.406,0.521,0.948,1.03,1.514,1.364c0.577,0.347,1.202,0.613,1.848,0.787
			c0.82,0.242,1.594,0.196,2.416,0.081c1.235-0.185,2.252-0.914,3.177-1.699c0.427-0.37,0.774-0.914,1.039-1.41
			c0.427-0.797,0.566-1.479,0.658-2.369c0.031-0.289,0.03-0.582,0.006-0.874C82.805,271.582,80.462,269.003,77.895,268.322z
			 M76.583,274.497c0,0,0-0.002,0-0.005c0.085,0.068,0.168,0.133,0.252,0.197C76.746,274.628,76.663,274.564,76.583,274.497z
			 M76.579,274.421v-0.003c0.12,0.05,0.24,0.101,0.358,0.156C76.814,274.53,76.694,274.48,76.579,274.421z"/>
	</g>
</g>
<g>
	<g>
		<path d="M73.118,210.903c-0.209-2.832-1.029-5.605-1.987-8.263c-0.624-1.721-1.328-3.42-2.265-5.003
			c-0.705-1.202-1.583-2.333-2.462-3.408c-1.374-1.688-2.957-3.062-4.933-3.999c-1.167-0.554-2.38-0.993-3.639-1.236
			c-0.709-0.142-1.387-0.206-2.061-0.206c-0.863,0-1.717,0.105-2.619,0.287c-2.344,0.462-4.171,2.103-5.418,4.056
			c-0.775,1.19-1.214,2.668-1.653,4.021c-0.485,1.525-0.705,3.131-0.983,4.714c-0.116,0.682-0.301,1.341-0.474,2.01
			c-0.01,0.039-0.02,0.079-0.028,0.12c-0.793-0.215-1.589-0.409-2.399-0.593c-2.056-0.462-4.172-0.715-6.274-0.855
			c-2.137-0.138-4.217-0.011-6.332,0.335c-1.177,0.184-2.311,0.554-3.42,0.993c-1.432,0.554-2.692,1.248-3.813,2.324
			c-0.912,0.866-1.491,1.976-1.964,3.12c-0.498,1.177-0.671,2.357-0.82,3.616c-0.151,1.19,0,2.462,0.208,3.628
			c0.252,1.423,0.656,2.764,1.199,4.092c0.993,2.438,2.369,4.644,3.929,6.759c1.629,2.195,3.396,4.275,5.418,6.123
			c3.444,3.144,7.627,5.304,12.04,6.713c1.872,0.6,3.756,1.179,5.686,1.525c2.219,0.404,4.438,0.694,6.679,0.855
			c0.901,0.058,1.803,0.07,2.705,0.092c0.577,0.024,1.156,0.024,1.744,0.024c0.741-0.013,1.468-0.151,2.173-0.37
			c0.947-0.312,1.607-0.855,2.37-1.467c0.473-0.381,0.924-1.017,1.259-1.491c0.265-0.37,0.544-0.717,0.763-1.109
			c0.265-0.485,0.531-0.971,0.797-1.445c0.461-0.82,0.82-1.71,1.225-2.566c0.971-2.068,1.792-4.218,2.658-6.343
			c1.225-3.028,1.989-6.217,2.334-9.476C73.038,215.963,73.314,213.433,73.118,210.903z M64.806,215.865
			c-0.113,0.832-0.218,1.664-0.366,2.492c-0.404,2.265-1.085,4.426-1.859,6.586c-0.643,1.805-1.371,3.576-2.097,5.353
			c-0.747,1.711-1.453,3.468-2.44,5.052c-0.358,0.084-0.717,0.152-1.08,0.213c-1.343,0.138-2.673,0.204-4.021,0.234
			c-1.354,0.029-2.714-0.156-4.056-0.332c-2.766-0.556-5.459-1.255-8.088-2.305c-1.797-0.813-3.474-1.773-5.068-2.942
			c-1.939-1.573-3.614-3.374-5.166-5.334c-1.305-1.773-2.47-3.639-3.38-5.65c-0.408-1.086-0.722-2.184-0.924-3.328
			c-0.062-0.715-0.075-1.417-0.03-2.135c0.094-0.518,0.225-1.018,0.399-1.517c0.134-0.253,0.272-0.497,0.424-0.736
			c0.109-0.116,0.219-0.227,0.333-0.336c0.333-0.211,0.673-0.397,1.029-0.567c1.107-0.402,2.22-0.7,3.385-0.91
			c2.401-0.242,4.795-0.092,7.197,0.141c1.043,0.161,2.081,0.343,3.118,0.542c1.41,0.278,2.773,0.751,4.113,1.26
			c0.005,0.001,0.009,0.001,0.013,0.003c0.104,0.13,0.199,0.267,0.328,0.371c0.751,0.612,1.872,0.982,2.819,0.623
			c0.647-0.243,1.085-0.59,1.479-1.156c0.323-0.452,0.52-0.983,0.704-1.502c0.335-0.937,0.636-1.861,0.855-2.819
			c0.255-1.179,0.544-2.346,0.809-3.524c0.243-1.052,0.462-2.104,0.728-3.154c0.121-0.451,0.197-0.914,0.298-1.367
			c0.2-0.145,0.401-0.289,0.6-0.437c0.361-0.257,0.735-0.484,1.116-0.696c0.09-0.031,0.179-0.066,0.27-0.096
			c0.48-0.031,0.968,0.002,1.454,0.013c0.586,0.023,1.172,0.033,1.747,0.106c0.168,0.03,0.331,0.084,0.499,0.12
			c0.467,0.461,0.921,0.932,1.349,1.437c0.728,1.03,1.388,2.066,1.932,3.201c0.833,2.217,1.4,4.568,1.806,6.899
			C65.222,211.742,65.011,213.781,64.806,215.865z"/>
	</g>
</g>
<g>
	<g>
		<path d="M83.611,129.896c-0.173-1.386-0.393-2.738-0.774-4.09c-0.612-2.196-1.571-4.402-2.855-6.298
			c-1.445-2.114-3.328-3.87-5.581-5.096c-1.052-0.577-2.242-0.983-3.421-1.202c-0.809-0.162-1.63-0.23-2.45-0.255
			c-0.067-0.002-0.131-0.003-0.198-0.003c-0.815,0-1.646,0.188-2.448,0.316c-1.202,0.184-2.391,0.75-3.478,1.294
			c-1.248,0.612-2.346,1.57-3.398,2.472c-1.131,0.947-2.068,2.114-2.969,3.281c-1.139,1.487-1.952,3.176-3.043,4.689
			c-0.514,0.645-1.03,1.294-1.522,1.967c-0.188,0.25-0.365,0.537-0.517,0.835c-0.547-0.255-1.098-0.502-1.654-0.743
			c-1.168-0.508-2.37-0.925-3.594-1.294c-1.328-0.406-2.668-0.59-4.044-0.774c-1.364-0.173-2.738-0.127-4.114-0.024
			c-1.641,0.127-3.291,0.381-4.887,0.797c-2.53,0.647-4.807,1.964-6.701,3.767c-0.984,0.925-1.722,2.149-2.334,3.339
			c-0.74,1.42-1.225,2.97-1.34,4.576c-0.394,5.685,2.566,11.139,5.834,15.565c1.642,2.235,3.456,4.315,5.524,6.162
			c2.161,1.942,4.611,3.56,7.141,4.934c2.15,1.156,4.38,2.149,6.599,3.166c1.859,0.866,3.778,1.687,5.719,2.357
			c0.741,0.255,1.468,0.498,2.219,0.704c1.491,0.394,3.005,0.452,4.518,0.243c2.865-0.404,5.477-1.884,7.673-3.697
			c2.819-2.324,4.991-5.201,7.164-8.112c0.971-1.318,1.918-2.681,2.762-4.091c0.715-1.177,1.41-2.333,2.022-3.582
			c0.843-1.687,1.525-3.454,2.103-5.245c0.452-1.374,0.866-2.751,1.225-4.149c0.669-2.692,1.005-5.524,1.063-8.285
			C83.877,132.243,83.762,131.064,83.611,129.896z M74.898,136.843c-0.516,3.192-1.426,6.323-2.608,9.33
			c-1,2.194-2.21,4.248-3.516,6.28c-1.028,1.6-2.105,3.177-3.251,4.689c-1.235,1.537-2.559,2.985-4.058,4.257
			c-0.68,0.482-1.38,0.916-2.123,1.297c-0.488,0.181-0.978,0.328-1.49,0.438c-0.535,0.021-1.051,0.002-1.575-0.043
			c-3.975-0.739-7.713-2.386-11.422-3.937c0.255,0.104,0.498,0.209,0.751,0.312c-2.594-1.157-5.048-2.485-7.331-4.175
			c-1.779-1.455-3.353-3.097-4.805-4.884c-1.445-1.961-2.674-4.012-3.698-6.215c-0.515-1.287-0.907-2.588-1.167-3.949
			c-0.063-0.758-0.073-1.494-0.021-2.251c0.082-0.392,0.185-0.768,0.313-1.15c0.339-0.698,0.717-1.364,1.152-2.003
			c0.355-0.403,0.724-0.768,1.129-1.118c0.615-0.422,1.248-0.779,1.914-1.099c1.369-0.506,2.778-0.827,4.219-1.05
			c1.78-0.19,3.516-0.21,5.286-0.024c2.03,0.364,3.942,1.018,5.853,1.753c1.13,0.536,2.251,1.092,3.35,1.68
			c1.071,0.583,2.357,0.505,3.298-0.168c0.939-0.101,1.836-0.514,2.524-1.195c0.002-0.003,0.006-0.006,0.008-0.008
			c0.525-0.425,0.93-0.881,1.356-1.53c0.197-0.301,0.312-0.658,0.45-0.983c0.331-0.742,0.623-1.491,0.922-2.241
			c0.372-0.792,0.829-1.539,1.329-2.26c0.901-1.032,1.921-1.987,2.983-2.857c0.668-0.485,1.343-0.916,2.073-1.285
			c0.37-0.114,0.742-0.209,1.119-0.294c0.408-0.027,0.811-0.032,1.221-0.014c0.331,0.074,0.654,0.162,0.977,0.265
			c0.412,0.212,0.806,0.444,1.196,0.697c0.47,0.41,0.909,0.843,1.32,1.318c0.477,0.707,0.885,1.448,1.249,2.22
			c0.517,1.377,0.892,2.779,1.141,4.24C75.167,132.879,75.121,134.849,74.898,136.843z"/>
	</g>
</g>
<g>
	<g>
		<path d="M511.767,356.132c-0.253-2.796-0.75-5.569-1.444-8.285c-1.675-6.505-5.143-12.537-9.903-17.274
			c-1.779-1.767-3.756-3.304-5.788-4.773c-1.618-1.177-3.513-1.998-5.362-2.726c-1.792-0.717-3.639-1.214-5.546-1.537
			c-3.003-0.498-5.997-1.052-8.99-1.583c-1.19-0.22-2.379-0.427-3.582-0.636c-0.363-0.06-0.733-0.113-1.1-0.167
			c-0.038-5.202-0.909-10.318-2.418-15.312c-0.763-2.52-1.629-5.003-2.449-7.499c-1.803-5.419-3.501-10.873-5.339-16.282
			c-1.849-5.418-3.953-10.803-6.286-16.025c-0.613-1.376-1.225-2.738-1.826-4.114c-1.548-3.467-3.49-6.771-5.709-9.856
			c-2.195-3.028-4.633-5.871-7.071-8.702c-3.685-4.264-7.684-8.181-11.925-11.879c-4.46-3.894-9.359-7.349-14.235-10.688
			c-4.622-3.166-9.289-6.24-14.074-9.151c-4.402-2.681-9.118-4.853-13.635-7.315c-4.691-2.576-9.267-5.339-13.936-7.939
			c-4.703-2.622-9.545-5.05-14.108-7.892c-4.595-2.849-9.024-5.907-13.375-9.097c-2.919-2.298-5.796-4.654-8.487-7.241
			c-2.969-2.859-5.823-5.783-8.499-8.929c-0.871-1.177-1.72-2.358-2.547-3.575c-1.006-1.491-1.884-3.074-2.762-4.645
			c-1.486-2.666-2.77-5.436-3.979-8.241c-0.972-2.461-1.899-4.944-2.861-7.404c-1.031-2.651-2.205-5.244-3.34-7.841
			c-1.872-4.612-3.482-9.33-5.313-13.963c-1.734-4.366-3.563-8.706-5.55-12.971c-0.441-1.657-0.906-3.31-1.369-4.965
			c-0.636-2.288-1.306-4.565-2.149-6.794c-0.925-2.462-2.035-4.865-3.121-7.268c-1.825-4.009-3.881-7.893-6.355-11.555
			c-2.6-3.881-6.021-7.129-9.464-10.237c-1.272-1.145-2.612-2.213-3.979-3.243c-0.1-0.419-0.273-0.815-0.624-1.098
			c-1.918-1.548-3.815-3.107-5.847-4.518c-1.977-1.374-4.149-2.518-6.264-3.662c-4.356-2.38-9.093-4.126-13.773-5.755
			c-2.137-0.74-4.31-1.351-6.483-1.953c-2.16-0.6-4.414-0.937-6.621-1.34c-1.444-0.255-2.934-0.393-4.391-0.577
			c-1.133-0.151-2.324-0.255-3.479-0.301c-1.397-0.059-2.796-0.139-4.205-0.139c-2.993,0.013-6.009,0.406-8.954,0.925
			c-2.439,0.427-4.9,0.832-7.28,1.513c-2.426,0.695-4.819,1.399-7.198,2.232c-4.841,1.708-9.486,3.894-14.062,6.227
			c-1.999,1.017-3.987,2.081-5.929,3.212c-1.456,0.843-2.901,1.688-4.31,2.635c-2.831,1.918-5.385,4.251-7.637,6.83
			c-2.219,2.507-4.021,5.326-5.477,8.331c-0.925,1.93-1.676,3.929-2.623,5.846c-0.106,0.217-0.219,0.425-0.34,0.631
			c-0.008,0.005-0.016,0.008-0.024,0.013c-1.079,0.344-2.179,0.583-3.291,0.768c-2.585,0.252-5.189,0.251-7.783,0.229
			c-2.495-0.024-4.979-0.012-7.464,0.035c-4.586,0.081-9.162,0.184-13.74,0.6c-2.287,0.208-4.575,0.439-6.863,0.636
			c-2.668,0.242-5.396,0.439-7.985,1.156c-2.333,0.647-4.726,2.022-5.407,4.517c-0.948,3.409,1.524,6.76,3.501,9.279
			c1.802,2.3,3.778,4.553,5.87,6.609c3.442,3.374,7.222,6.32,10.792,9.532c1.098,0.985,2.179,1.993,3.268,2.991
			c-2.533,2.035-4.992,4.152-7.391,6.365c-2.923,2.705-5.938,5.304-8.758,8.112c-2.912,2.901-5.789,5.916-8.343,9.141
			c-1.005,1.272-2.033,2.472-2.588,4.009c-0.232,0.647-0.312,1.294-0.289,1.987c0.035,1.133,0.452,1.953,1.167,2.809
			c1.03,1.225,2.416,1.872,3.975,2.16c2.485,0.475,5.154,0.521,7.684,0.324c1.598-0.122,3.179-0.328,4.756-0.571
			c-1.896,2.045-3.567,4.404-4.539,7.021c-0.462,1.272-0.67,2.612-0.728,3.963c-0.023,0.67,0.092,1.502,0.219,2.149
			c0.162,0.787,0.406,1.629,0.809,2.323c0.645,1.128,1.492,2.043,2.471,2.779c-0.257,0.361-0.539,0.701-0.768,1.071
			c-0.866,1.399-1.792,2.762-2.646,4.183c-2.658,4.46-4.946,9.197-7.152,13.9c-2.508,5.339-4.045,11.161-5.546,16.835
			c-1.433,5.442-1.699,11.219-1.733,16.812c-0.035,5.2,0.23,10.399,0.866,15.565c0.369,3.028,0.843,6.021,1.42,9.024
			c0.566,2.878,1.548,5.674,2.508,8.447c1.906,5.5,4.76,10.631,7.823,15.565c2.808,4.53,5.997,8.794,9.243,13.023
			c3.501,4.552,6.736,9.359,10.445,13.75c3.664,4.334,7.535,8.447,11.555,12.457c4.067,4.067,8.505,7.777,13.265,11.012
			c1.059,0.726,2.136,1.421,3.205,2.133c-3.567,0.603-7.054,1.567-10.415,2.965c-4.611,1.931-9.187,3.895-13.195,6.945
			c-0.63,0.48-1.271,0.96-1.896,1.46c-0.282-2.267-0.562-4.535-0.844-6.803c-0.265-2.056-0.543-4.114-0.866-6.171
			c-0.138-0.866-0.278-1.733-0.427-2.588c-0.081-0.416-0.151-0.833-0.23-1.236c-0.081-0.335-0.174-0.636-0.289-0.947
			c-0.359-0.889-0.843-2.035-1.618-2.681c-0.474-0.393-0.958-0.786-1.456-1.144c-0.728-0.323-1.445-0.704-2.23-0.866
			c-1.676-0.358-3.236-0.219-4.9,0.162c-0.544,0.115-1.063,0.347-1.583,0.554c-0.786,0.335-1.537,0.658-2.3,1.039
			c-0.809,0.404-1.629,0.889-2.379,1.41c-1.55,1.085-3.051,2.206-4.553,3.35c-1.091,0.824-2.151,1.69-3.221,2.543
			c-0.131-1.379-0.376-2.743-0.839-4.045c-0.006-0.014-0.015-0.023-0.02-0.036c-0.023-0.174-0.045-0.348-0.068-0.522
			c-0.162-1.353-0.324-2.704-0.462-4.067c-0.282-2.711-0.62-5.41-0.98-8.109c0.01,0.084,0.021,0.168,0.03,0.252
			c-0.408-3.075-0.703-6.169-1.107-9.243c-0.439-3.455-0.832-6.968-1.629-10.365c-0.37-1.582-0.717-3.189-1.248-4.736
			c-0.578-1.676-1.202-3.317-1.872-4.957c-0.408-0.997-0.892-1.96-1.404-2.907c0.18-0.299,0.287-0.617,0.329-0.995
			c0.115-0.879,0.196-1.758,0.263-2.641c0.175-0.27,0.324-0.559,0.456-0.887c0.59-1.41,0.613-2.97,0.728-4.484
			c0.093-1.063,0.139-2.127,0.173-3.19c0.081-2.333,0.266-4.644,0.555-6.968c0.036-0.333-0.048-0.69-0.185-1.03
			c-0.275-1.516-1.099-2.978-2.669-3.41c-1.052-0.289-2.103,0.011-3.133,0.219c-0.6,0.127-1.213,0.243-1.813,0.37
			c-1.098,0.235-2.186,0.49-3.289,0.696c-0.002,0.001-0.005,0.001-0.007,0.001c-0.179-0.373-0.346-0.755-0.51-1.136
			c-0.482-1.161-0.952-2.332-1.393-3.514c-0.207-0.531-0.38-1.075-0.566-1.618c-0.138-0.393-0.276-0.796-0.415-1.202
			c-0.348-0.993-0.787-2.137-1.525-2.934c-0.647-0.682-1.467-1.202-2.438-1.202c-1.144,0-1.999,0.682-2.658,1.548
			c-0.393,0.52-0.659,1.121-0.937,1.71c-0.567,1.19-1.086,2.415-1.629,3.616c-1.19,2.612-2.462,5.177-3.733,7.743
			c-1.021,2.068-1.97,4.168-2.914,6.27c-0.175,0.052-0.358,0.088-0.531,0.145c-1.133,0.37-2.265,0.866-3.351,1.364
			c-0.774,0.347-1.548,0.682-2.298,1.063c-3.179,1.594-5.939,3.802-8.551,6.194c-2.543,2.323-4.634,5.142-6.517,8.018
			c-1.767,2.705-2.969,5.812-3.674,8.955c-0.75,3.385-1.305,6.887-1.272,10.353c0.044,2.971,0.088,5.971,0.364,8.937
			c-0.263-0.156-0.513-0.333-0.782-0.475c-1.833-0.955-4.126-1.772-6.241-1.772c-0.084,0-0.168,0.001-0.253,0.005
			c-1.075,0.023-2.184,0.323-3.097,0.889c-1.259,0.796-2.033,2.09-2.53,3.454c-0.393,1.076-0.589,2.23-0.762,3.363
			c-0.151,1.017-0.324,2.068-0.335,3.097c-0.013,1.017,0.012,2.023,0.046,3.039c0.127,3.317,0.497,6.622,0.728,9.926
			c0.255,3.455,0.669,6.841,1.583,10.191c0.135,0.499,0.274,0.994,0.415,1.49c0.932,6.737,2.29,13.435,4.126,19.968
			c0.32,1.139,0.706,2.263,1.075,3.389c-1.274,0.179-2.543,0.402-3.783,0.711c-2.646,0.651-5.205,1.542-7.719,2.597
			c-0.599,0.253-1.198,0.506-1.801,0.759c-2.215,0.974-4.315,2.103-6.425,3.311c-5.454,3.144-9.741,7.789-12.468,13.439
			c-1.467,3.05-2.484,6.227-2.9,9.59c-0.406,3.224,0.092,6.437,0.935,9.557c0.994,3.664,2.43,7.165,3.152,10.91
			c0.089,1.012,0.12,2.007,0.07,3.023c-0.133,0.611-0.303,1.197-0.505,1.789c-1.07,2.124-2.453,4.047-3.826,5.99
			c-2.334,3.293-3.848,7.118-3.756,11.184c0.196,9.013,7.8,15.323,14.906,19.574c3.697,2.207,7.856,3.79,11.936,5.154
			c4.54,1.537,9.312,2.692,14.074,3.304c2.923,0.37,5.834,0.866,8.77,1.085c3.501,0.278,6.979,0.532,10.48,0.671
			c3.49,0.127,6.98,0.184,10.469,0.23c6.356,0.07,12.676-0.312,19.008-0.728c2.542-0.173,5.084-0.543,7.626-0.809
			c2.392-0.253,4.773-0.577,7.165-0.866c5.992-0.723,12.061-1.179,18.08-0.569c2.389,0.408,4.697,1.06,6.96,1.925
			c3.363,1.491,6.536,3.416,9.728,5.209c5.211,2.911,10.699,5.245,16.546,6.47c7.014,1.468,14.143,1.468,21.227,0.728
			c4.691-0.498,9.325-1.386,13.946-2.3c4.611-0.912,9.302-1.836,13.786-3.258c2.53-0.796,5.037-1.583,7.522-2.472
			c4.543-1.6,9.057-3.26,13.819-4.052c2.179-0.174,4.324-0.113,6.493,0.115c3.518,0.582,6.985,1.437,10.47,2.204
			c1.698,0.369,3.396,0.74,5.096,1.109c1.802,0.393,3.662,0.6,5.477,0.901c6.851,1.131,13.957,1.71,20.903,1.318
			c3.236-0.197,6.505-0.255,9.728-0.613c3.802-0.404,7.569-0.809,11.324-1.467c3.363-0.59,6.667-1.214,9.995-1.976
			c3.328-0.751,6.575-1.664,9.857-2.589c2.668-0.763,5.293-1.745,7.961-2.541c4.94-1.464,9.802-2.899,14.9-3.704
			c4.091-0.426,8.094-0.372,12.183,0.039c2.949,0.431,5.889,0.887,8.83,1.341c3.513,0.554,7.037,0.96,10.55,1.422
			c1.664,0.219,3.35,0.276,5.015,0.404c3.304,0.278,6.599,0.359,9.914,0.278c4.565-0.116,9.083-0.717,13.612-1.236
			c7.047-0.833,14.062-2.253,20.96-3.941c16.084-3.927,30.725-12.779,41.655-25.225c2.81-3.192,5.543-6.6,8.79-9.376
			c1.422-0.96,2.934-1.743,4.498-2.442c1.658-0.661,3.325-1.309,4.992-1.955c2.091-0.796,4.149-1.699,6.148-2.704
			c2.38-1.177,4.552-2.704,6.621-4.356c6.089-4.841,10.502-11.358,13.785-18.338c1.387-2.947,2.727-6.135,3.559-9.289
			c0.37-1.399,0.787-2.785,1.063-4.195c0.416-2.196,0.751-4.392,1.04-6.609c0.196-1.491,0.323-2.993,0.45-4.494
			C512.09,360.269,511.964,358.177,511.767,356.132z M164.091,157.855c0.197,3.744,0.265,7.464,0.173,11.209
			c-0.081,3.953-0.381,7.916-0.682,11.856c-0.073,1.025-0.182,2.032-0.312,3.046c-0.377,2.312-1.009,4.558-1.879,6.737
			c-0.888,1.957-1.958,3.798-3.228,5.538c-1.394,1.741-2.939,3.377-4.659,4.801c-1.033,0.73-2.097,1.351-3.236,1.889
			c-0.734,0.276-1.463,0.487-2.227,0.63c-0.987,0.074-1.961,0.058-2.963-0.043c-1.416-0.235-2.78-0.591-4.129-1.097
			c-0.786-0.369-1.53-0.786-2.253-1.274c-0.573-0.49-1.093-1.009-1.579-1.59c-0.501-0.735-0.922-1.494-1.296-2.301
			c-0.366-0.953-0.649-1.904-0.832-2.909c-0.051-0.762-0.048-1.505,0.009-2.257c0.219-1.106,0.547-2.171,0.945-3.222
			c1.045-2.234,2.44-4.309,3.714-6.414c1.306-2.161,2.334-4.53,2.889-6.991c0.623-2.773,0.462-5.592-0.728-8.192
			c-0.508-1.075-1.156-2.033-1.999-2.877c-0.937-0.937-2.161-1.491-3.385-1.918c-1.098-0.369-2.346-0.439-3.479-0.543
			c-0.704-0.059-1.421-0.059-2.126-0.081c-0.797-0.013-1.607,0-2.404,0c-1.359,0.009-2.726,0.025-4.08-0.097
			c-0.389-0.08-0.772-0.176-1.153-0.296c-0.168-0.085-0.329-0.175-0.492-0.271c-0.113-0.111-0.221-0.222-0.328-0.339
			c-0.038-0.061-0.075-0.122-0.111-0.183c-0.014-0.288-0.014-0.571,0-0.857c0.083-0.385,0.187-0.755,0.312-1.127
			c0.474-0.941,1.043-1.826,1.666-2.679c1.525-1.866,3.263-3.536,5.137-5.063c0.843-0.615,1.7-1.201,2.597-1.753
			c0.964-0.599,2.003-1.084,3.053-1.536c0.056-0.023,0.113-0.046,0.169-0.07c0.145-0.06,0.288-0.12,0.426-0.183
			c-0.12,0.051-0.238,0.101-0.357,0.15c0.126-0.054,0.253-0.107,0.379-0.16c0.484-0.22,0.907-0.483,1.289-0.806
			c0.296-0.124,0.592-0.249,0.888-0.374c1.411-0.603,2.821-1.206,4.211-1.863c0.554-0.259,1.092-0.54,1.637-0.815
			c2.97-0.659,5.919-1.532,8.641-2.858c3.562-1.748,6.917-4.051,9.783-6.802c0.036,0.202,0.078,0.402,0.113,0.604
			c0.474,3.78,0.876,7.561,1.181,11.353C163.71,149.825,163.894,153.846,164.091,157.855z M156.682,125.178
			c0.028-0.003,0.056-0.008,0.084-0.012c-0.002,0.001-0.005,0.002-0.005,0.002C156.734,125.173,156.707,125.176,156.682,125.178z
			 M156.778,125.169c0.002-0.001,0.006-0.002,0.009-0.003c0.09-0.012,0.181-0.023,0.271-0.033
			C156.964,125.147,156.871,125.16,156.778,125.169z M125.039,99.63c-2.669-2.297-4.956-4.896-7.164-7.618
			c-0.041-0.056-0.083-0.112-0.123-0.167c0.582,0.01,1.164,0.015,1.745,0.015c1.752,0.001,3.502-0.043,5.253-0.111
			c4.657-0.184,9.302-0.197,13.947-0.255c2.252-0.024,4.506-0.081,6.747-0.116c2.45-0.046,4.888-0.081,7.326-0.323
			c2.247-0.225,4.434-0.548,6.578-1.167c0.082,0.819,0.18,1.637,0.273,2.449c0.301,2.576,0.67,5.153,1.098,7.706
			c0.384,2.248,0.893,4.476,1.234,6.729c0.153,1.403,0.304,2.813,0.313,4.225c0,1.656-0.077,3.275-0.255,4.914
			c-0.295,1.704-0.705,3.359-1.317,4.98c-0.343,0.708-0.726,1.38-1.166,2.04c-0.456,0.52-0.929,1.003-1.44,1.468
			c-0.303,0.201-0.607,0.386-0.925,0.558c-0.282,0.089-0.562,0.165-0.853,0.233c-0.166-0.04-0.327-0.084-0.491-0.136
			c-2.268-1.172-4.328-2.896-6.346-4.442c-5.528-4.338-10.762-9.038-15.993-13.728C130.724,104.402,127.848,102.056,125.039,99.63z
			 M118.529,141.549c-1.374,0.156-2.729,0.29-4.116,0.369c-0.562,0.03-1.123,0.026-1.683,0.005c0.841-0.899,1.676-1.809,2.503-2.719
			c2.207-2.426,4.414-4.829,6.679-7.188c2.324-2.425,4.645-4.864,6.979-7.279c1.906-1.967,3.8-3.969,5.846-5.8
			c0.571,0.525,1.149,1.05,1.72,1.574c3.385,3.097,6.656,6.309,10.237,9.187c1.04,0.832,2.091,1.675,3.19,2.415
			c0.184,0.124,0.389,0.212,0.58,0.325c-1.38,0.853-2.802,1.638-4.298,2.306c-1.91,0.751-3.843,1.458-5.833,1.953
			c-2.426,0.6-4.853,1.179-7.279,1.78c-2.334,0.566-4.691,1.039-7.037,1.548C123.527,140.559,121.039,141.092,118.529,141.549z
			 M158.49,304.08c-2.864-2.43-5.601-4.977-8.304-7.601c-2.738-2.658-5.444-5.384-7.949-8.262c-2.6-2.969-5.003-6.067-7.418-9.174
			c-2.295-2.938-4.651-5.833-6.983-8.747c-2.478-3.285-4.825-6.624-7.069-10.077c-2.204-3.412-4.008-7.009-5.639-10.721
			c-1.021-2.782-1.922-5.577-2.704-8.437c-0.692-2.554-1.061-5.219-1.43-7.847c-0.96-8.348-1.279-16.774-0.312-25.126
			c0.699-3.576,1.581-7.083,2.54-10.601c0.891-3.293,1.874-6.505,3.151-9.662c1.877-4.203,3.758-8.474,6.301-12.327
			c0.774-1.177,1.618-2.311,2.346-3.524c0.255-0.427,0.531-0.855,0.728-1.305c0.342-0.744,0.506-1.465,0.597-2.207
			c0.343-0.02,0.687-0.039,1.03-0.06c2.3-0.143,4.611-0.378,6.911-0.175c0.33,0.068,0.647,0.151,0.963,0.258
			c0.062,0.033,0.122,0.07,0.183,0.108c0.076,0.07,0.15,0.142,0.22,0.217c0.147,0.226,0.281,0.456,0.407,0.695
			c0.156,0.462,0.273,0.918,0.363,1.391c0.028,0.411,0.029,0.812,0.011,1.225c-0.184,1.003-0.469,1.974-0.825,2.933
			c-1.174,2.521-2.841,4.752-4.387,7.055c-0.406,0.6-0.786,1.202-1.156,1.813c-0.682,1.109-1.156,2.38-1.607,3.605
			c-0.462,1.249-0.717,2.612-0.832,3.94c-0.151,1.642,0.023,3.225,0.324,4.842c0.23,1.305,0.796,2.53,1.317,3.743
			c0.44,1.017,0.994,1.977,1.629,2.877c1.664,2.37,3.907,4.183,6.529,5.385c2.554,1.157,5.222,1.71,8.007,1.953
			c1.295,0.116,2.635,0,3.929-0.219c1.56-0.276,2.993-0.843,4.426-1.525c2.392-1.131,4.471-2.888,6.31-4.782
			c1.929-1.977,3.616-4.196,5.015-6.588c1.294-2.195,2.265-4.633,2.993-7.071c0.809-2.704,1.144-5.512,1.386-8.308
			c0.347-3.871,0.427-7.776,0.578-11.659c0.301-7.949-0.151-15.876-0.427-23.826c-0.127-3.71-0.255-7.418-0.473-11.115
			c-0.18-3.013-0.6-6.015-1.092-8.994c1.221-2.142,2.022-4.531,2.537-6.929c0.889-4.205,0.855-8.47,0.301-12.71
			c-0.49-3.721-1.34-7.369-1.897-11.085c-0.311-2.498-0.553-4.997-0.794-7.495c-0.116-1.213-0.209-2.438-0.324-3.651
			c-0.016-0.176-0.033-0.353-0.052-0.528c0.273-0.532,0.515-1.091,0.745-1.68c0.75-1.941,1.318-3.94,2.056-5.893
			c0.082-0.217,0.168-0.435,0.258-0.653c0.816-1.719,1.732-3.338,2.824-4.9c1.565-1.903,3.317-3.627,5.222-5.189
			c3.532-2.561,7.525-4.574,11.408-6.544c3.022-1.537,6.082-2.946,9.187-4.297c1.494-0.539,2.989-1.079,4.484-1.617
			c1.491-0.544,3.039-0.925,4.552-1.387c3.532-1.086,7.219-1.838,10.877-2.409c3.546-0.399,7.106-0.406,10.658-0.226
			c0.268,0.031,0.538,0.063,0.806,0.097c3.225,0.5,6.327,1.354,9.464,2.224c1.71,0.473,3.421,0.937,5.107,1.467
			c1.272,0.406,2.515,0.895,3.744,1.408c1.417,0.636,2.805,1.316,4.171,2.06c1.502,0.832,2.889,1.895,4.287,2.877
			c2.652,1.856,5.4,3.562,7.993,5.483c3.41,2.714,6.654,5.709,9.576,8.96c0.666,1.008,1.358,2,1.992,3.032
			c1.278,2.077,2.387,4.21,3.462,6.401c1.967,4.801,3.71,9.691,5.643,14.502c1.879,4.66,3.805,9.294,5.65,13.957
			c0.408,1.462,0.798,2.929,1.194,4.388c0.474,1.745,0.901,3.524,1.491,5.245c0.37,1.086,0.763,2.242,1.328,3.247
			c0.426,0.78,0.924,1.506,1.411,2.238c0.136,0.403,0.274,0.805,0.411,1.209c1.756,5.13,3.986,10.076,5.87,15.16
			c0.925,2.472,1.791,4.957,2.751,7.417c1.143,2.901,2.472,5.743,3.835,8.539c2.462,5.05,5.65,9.811,9.359,14.028
			c3.768,4.298,7.801,8.296,12.086,12.086c2.484,2.184,5.165,4.149,7.777,6.159c2.173,1.664,4.414,3.224,6.656,4.783
			c4.576,3.19,9.406,5.951,14.235,8.724c4.864,2.785,9.614,5.732,14.431,8.585c4.472,2.646,9.105,4.979,13.612,7.568
			c4.945,2.855,9.682,6.008,14.398,9.243c3.47,2.385,6.891,4.848,10.263,7.364c3.713,2.991,7.323,6.076,10.686,9.472
			c3.543,3.576,7.055,7.232,10.222,11.142c3.645,4.938,6.169,10.467,8.573,16.081c2.442,6.235,4.624,12.525,6.659,18.916
			c0.983,3.085,1.941,6.171,2.935,9.256c0.175,0.547,0.348,1.093,0.522,1.639c-0.851,0.086-1.704,0.172-2.556,0.258
			c-1.514,0.15-3.005,0.393-4.518,0.52c-2.653,0.218-5.38,0.1-8.04-0.168c-6.005-1.017-11.881-2.991-17.543-5.201
			c-1.395-0.608-2.771-1.249-4.126-1.957c-1.9-0.99-3.681-2.144-5.437-3.366c-3.374-2.688-6.557-5.592-9.759-8.477
			c-3.339-3.016-6.725-5.975-10.202-8.828c-3.698-3.028-7.407-6.031-10.862-9.336c-1.745-1.664-3.422-3.397-5.097-5.142
			c-1.54-1.607-2.929-3.376-4.326-5.107c-1.551-2.093-3.065-4.172-4.173-6.543c-0.202-0.497-0.404-0.992-0.594-1.49
			c-0.472-1.264-1.533-2.181-2.839-2.181c-0.259,0-0.527,0.036-0.801,0.113c-1.445,0.393-2.635,2.127-2.069,3.639
			c0.971,2.576,2.091,5.084,3.628,7.372c0.74,1.097,1.467,2.195,2.241,3.27c1.537,2.137,3.086,4.287,4.773,6.32
			c3.409,4.091,7.002,7.961,10.78,11.717c3.444,3.432,6.922,6.817,10.203,10.41c3.467,3.779,6.887,7.592,10.446,11.278
			c1.444,1.479,3.027,2.843,4.621,4.159c1.748,1.427,3.619,2.794,5.557,3.929c-1.191,0.122-2.383,0.229-3.576,0.358
			c-2.462,0.265-4.946,0.289-7.43,0.324c-4.637,0.085-9.344-0.061-13.971-0.582c-4.401-0.688-8.749-1.941-12.888-3.584
			c-2.434-1.106-4.715-2.427-6.888-3.985c-3.671-2.953-7.211-6.058-10.554-9.389c-3.755-3.743-7.487-7.487-11.311-11.161
			c-3.559-3.409-7.165-6.771-10.388-10.515c-3.203-3.724-6.278-7.554-9.297-11.44c0.022,0.026,0.043,0.055,0.066,0.081
			c-1.228-1.683-2.344-3.4-3.228-5.294c-0.536-1.34-0.987-2.706-1.394-4.089c-0.339-1.151-1.397-1.93-2.553-1.93
			c-0.226,0-0.455,0.03-0.683,0.092c-1.364,0.381-2.23,1.859-1.838,3.236c0.532,1.813,1.109,3.627,1.838,5.372
			c0.983,2.38,2.276,4.553,3.697,6.691c1.341,2.045,2.715,4.067,4.079,6.113c1.513,2.265,3.05,4.506,4.611,6.748
			c1.617,2.298,3.421,4.494,5.176,6.679c3.224,4.032,6.494,8.031,9.672,12.109c3.12,4.009,6.24,8.008,9.636,11.797
			c1.329,1.479,2.786,2.855,4.218,4.229c0.132,0.129,0.291,0.232,0.426,0.358c-0.274,0.021-0.551,0.038-0.825,0.059
			c-2.512,0.175-5.044-0.003-7.548-0.298c-2.698-0.412-5.359-0.972-7.97-1.781c-1.177-0.37-2.369-0.717-3.547-1.109
			c-2.809-0.919-5.63-1.838-8.385-2.937c-2.483-1.124-4.853-2.472-7.075-4.066c-0.897-0.645-1.783-1.301-2.662-1.969
			c-6.03-4.96-10.876-11.182-15.693-17.278c-4.633-6.123-9.053-12.41-13.642-18.573c-2.403-3.224-4.749-6.482-6.841-9.925
			c-2.127-3.501-4.067-7.083-6.031-10.677c-0.347-0.639-1.031-0.985-1.719-0.985c-0.346,0-0.691,0.088-0.997,0.27
			c-0.97,0.554-1.225,1.767-0.715,2.726c1.998,3.744,3.697,7.673,5.558,11.486c1.964,4.045,3.975,8.053,6.089,12.029
			c4.113,7.752,7.811,15.737,12.504,23.179c1.697,2.702,3.552,5.301,5.498,7.832c-7.619-0.143-15.279,0.062-22.849-0.836
			c-3.074-0.476-6.053-1.212-8.946-2.325c-5.824-2.639-10.999-6.348-16.118-10.141c-1.306-1.03-2.616-2.041-3.861-3.13
			c-1.029-0.901-2.081-1.779-3.074-2.714c-1.953-1.824-3.765-3.79-5.433-5.871c-4.765-6.379-8.453-13.542-11.911-20.682
			c0.032,0.078,0.065,0.158,0.097,0.236c-0.97-2.296-1.912-4.589-2.73-6.949c-0.925-2.669-1.699-5.362-2.472-8.077
			c-1.501-5.282-2.472-10.684-3.336-16.09c-0.138-1.474-0.267-2.948-0.408-4.433c-0.138-1.513-0.104-3.05-0.15-4.563
			c-0.081-3.074,0.012-6.159,0.079-9.233c0.024-1.318-1.121-2.416-2.425-2.416c-1.341,0-2.38,1.098-2.416,2.416
			c-0.058,2.635-0.127,5.257-0.184,7.892c-0.046,1.964-0.116,3.941-0.046,5.904c0.104,2.37,0.196,4.715,0.416,7.083
			c0.255,2.589,0.589,5.154,0.947,7.73c0.323,2.323,0.728,4.611,1.121,6.91c0.138,0.809,0.312,1.606,0.474,2.415
			c0.23,1.156,0.393,2.346,0.694,3.49c0.532,2.056,0.993,4.159,1.664,6.182c0.763,2.276,1.514,4.54,2.392,6.771
			c1.78,4.518,3.825,8.873,5.985,13.229c0.462,0.948,1.029,1.861,1.548,2.785c0.902,1.63,1.839,3.213,2.866,4.762
			c2.566,3.883,5.707,7.257,9.047,10.48c3.351,3.271,7.107,6.182,10.839,9.001c5.326,4.021,11.046,7.522,17.494,9.475
			c5.812,1.768,12.028,2.091,18.073,2.324c1.721,0.069,3.455,0.012,5.176-0.059c2.507-0.115,5.003-0.23,7.512-0.404
			c1.513-0.105,2.842-0.532,3.94-1.642c0.809-0.808,1.334-1.849,1.532-2.968c0.432,0.451,0.848,0.911,1.306,1.341
			c1.583,1.478,3.282,2.819,4.992,4.159c2.057,1.606,4.195,3.015,6.505,4.218c2.103,1.097,4.334,1.987,6.563,2.796
			c2.022,0.74,4.044,1.479,6.1,2.114c1.144,0.347,2.288,0.705,3.432,1.063c3.05,0.948,6.194,1.502,9.359,1.872
			c1.445,0.173,2.888,0.312,4.344,0.335c1.78,0.046,3.514-0.151,5.268-0.416c1.688-0.255,3.34-0.647,4.992-1.075
			c2.302-0.6,3.912-2.733,4.091-5.068c1.491,0.744,3.017,1.411,4.558,2.029c2.23,0.901,4.484,1.676,6.795,2.346
			c3.881,1.133,7.948,1.445,11.959,1.848c4.183,0.427,8.434,0.347,12.629,0.255c2.554-0.046,5.119-0.404,7.638-0.796
			c2.195-0.335,4.321-0.821,6.402-1.617c1.075-0.301,2.022-0.855,2.819-1.641c1.19-1.203,1.872-2.843,1.872-4.53
			c0-0.397-0.045-0.79-0.119-1.176c0.569,0.212,1.135,0.43,1.707,0.634c4.032,1.445,8.238,2.415,12.491,2.842
			c1.826,0.185,3.617,0.265,5.444,0.243c2.239-0.022,4.383-0.207,6.586-0.486c0.523-0.073,1.045-0.147,1.567-0.221
			c1.766-0.207,3.544-0.421,5.309-0.695c0.255,4.275-0.058,8.561-0.545,12.816c-0.366,2.351-0.861,4.644-1.644,6.891
			c-0.434,0.864-0.921,1.679-1.469,2.474c-1.656,1.93-3.484,3.613-5.383,5.298c-0.521,0.394-1.038,0.792-1.558,1.19
			c-0.832,0.624-1.733,1.131-2.612,1.699c-1.652,1.063-3.374,2.056-5.119,2.969c-3.872,2.027-7.748,3.976-11.714,5.798
			c-1.687,0.68-3.37,1.34-5.098,1.932c-2.081,0.717-4.195,1.328-6.309,1.953c-4.426,1.294-8.853,2.566-13.266,3.859
			c-4.078,1.202-8.181,2.323-12.341,3.201c-4.15,0.876-8.3,1.609-12.493,2.229c-5.323,0.522-10.657,0.937-16.012,0.937
			c-5.628,0-11.266-0.184-16.894-0.498c-5.615-0.312-11.219-0.717-16.812-1.318c-5.592-0.589-11.173-1.305-16.755-1.987
			c-2.235-0.283-4.463-0.567-6.689-0.85c-5.067-0.712-10.126-1.441-15.173-2.28c-2.6-0.427-5.165-0.993-7.73-1.596
			c-2.566-0.612-5.154-1.248-7.66-2.114c-5.201-1.792-10.319-3.813-15.507-5.628c-5.059-1.762-10.094-3.514-15.086-5.455
			c-6.063-2.598-12.076-5.305-18.042-8.134c-6.567-3.097-13.303-5.766-20.006-8.532c-4.055-1.817-8.066-3.691-12.024-5.726
			c-3.917-2.022-7.614-4.448-11.302-6.841C173.005,313.779,165.477,309.333,158.49,304.08z M122.844,318.854
			c0.001,0.002,0.001,0.003,0.001,0.003c-0.015-0.012-0.029-0.023-0.045-0.035C122.814,318.832,122.829,318.844,122.844,318.854z
			 M79.519,250.157c0.971-1.745,1.884-3.524,2.796-5.304c0.051-0.099,0.1-0.198,0.15-0.298c0.101,0.327,0.205,0.654,0.312,0.98
			c0.486,1.456,0.96,2.911,1.353,4.402c0.209,0.786,0.485,1.502,1.039,2.126c0.335,0.37,0.705,0.67,1.133,0.937
			c0.671,0.427,1.421,0.532,2.195,0.636c1.364,0.173,2.785-0.173,4.113-0.497c0.548-0.131,1.091-0.268,1.635-0.412
			c-0.38,2.391-0.876,4.758-1.311,7.127c-0.143,0.75-0.136,1.445,0.128,2.119c-0.573-0.677-1.172-1.33-1.829-1.931
			c-1.652-1.514-3.651-2.554-5.719-3.363c-2.346-0.912-4.888-1.063-7.384-1.098c-0.103,0-0.205-0.001-0.308-0.001
			c-0.46,0-0.924,0.021-1.388,0.04C77.45,253.79,78.509,251.985,79.519,250.157z M51.902,291.272
			c0.028-1.296,0.174-2.591,0.335-3.879c0.463-2.697,1.054-5.302,1.968-7.872c1.13-2.38,2.52-4.58,4.059-6.715
			c0.929-1.121,1.876-2.227,2.916-3.257c1.051-1.031,2.138-1.995,3.272-2.931c1.104-0.787,2.204-1.538,3.395-2.188
			c1.162-0.642,2.37-1.203,3.59-1.738c1.066-0.431,2.145-0.728,3.286-0.923c2.275-0.249,4.593-0.294,6.864-0.071
			c1.101,0.183,2.164,0.476,3.222,0.866c0.935,0.43,1.821,0.937,2.66,1.533c1.262,1.1,2.304,2.367,3.331,3.681
			c0.706,1,1.385,1.994,2.042,3.017c0.726,1.135,1.328,2.347,1.942,3.538c0.055,0.131,0.111,0.264,0.167,0.395
			c-0.022-0.047-0.041-0.094-0.063-0.143c0.039,0.09,0.077,0.179,0.116,0.268c0.051,0.119,0.1,0.236,0.15,0.355
			c-0.01-0.024-0.021-0.051-0.031-0.076c0.013,0.029,0.024,0.058,0.036,0.086c0.142,0.333,0.283,0.669,0.425,1.009
			c0.906,2.333,1.571,4.726,2.146,7.162c0.524,2.226,0.831,4.509,1.134,6.78v0.002c0,0.001,0,0.002,0,0.005
			c0.03,0.226,0.06,0.453,0.091,0.677c-0.025-0.168-0.052-0.339-0.073-0.508c0.521,4.537,0.933,9.088,1.377,13.636
			c0.209,2.241,0.301,4.494,0.37,6.747c0.024,1.098,0.024,2.184,0.012,3.282c0,0.544-0.023,1.098-0.046,1.642
			c-0.003,0.129,0.035,0.233,0.039,0.357c-0.567-0.785-1.127-1.573-1.717-2.341c-1.144-1.502-2.323-2.993-3.618-4.368
			c-0.427-0.45-0.888-0.866-1.34-1.282c-0.959-0.879-2.045-1.653-3.293-2.045c-1.502-0.474-2.75-0.358-4.275-0.092
			c-0.578,0.162-1.121,0.381-1.653,0.648c-0.52,0.232-0.983,0.498-1.456,0.797c-0.901,0.59-1.745,1.318-2.553,2.022
			c-1.017,0.914-1.907,1.964-2.819,2.97c-1.076,1.19-2.127,2.415-3.166,3.627c-1.836,2.13-3.661,4.392-5.805,6.234
			c-0.038,0.024-0.077,0.046-0.116,0.07c-0.009,0.002-0.02,0.005-0.028,0.007c-0.008-0.002-0.016-0.006-0.024-0.008
			c-1.438-0.735-2.76-1.643-4.053-2.605c-1.389-1.169-2.745-2.362-4.013-3.664c-1.328-1.34-2.542-2.785-3.743-4.229
			c-1.19-1.421-2.416-2.808-3.744-4.103c-0.058-0.055-0.123-0.102-0.182-0.158c-0.195-0.815-0.37-1.635-0.514-2.471
			c-0.334-2.808-0.498-5.615-0.561-8.432C51.913,294.808,51.867,293.041,51.902,291.272z M87.993,315.312c0,0-0.005,0-0.007,0.001
			c-0.007-0.003-0.014-0.006-0.021-0.009c0.002,0,0.005,0,0.005,0l0.002-0.001C87.979,315.307,87.986,315.311,87.993,315.312z
			 M38.236,327.932c-0.334-3.01-0.406-6.052-0.607-9.074c-0.181-2.736-0.294-5.483-0.035-8.211c0.147-0.661,0.339-1.302,0.556-1.935
			c1.406,0.849,2.742,1.812,4.054,2.808c1.06,0.84,2.078,1.704,3.051,2.648c1.122,1.089,2.084,2.305,3.06,3.529
			c1.971,2.573,3.963,5.175,6.379,7.333c1.653,1.479,3.376,2.831,5.177,4.126c0.647,0.461,1.397,0.855,2.103,1.225
			c2.241,1.19,4.933,2.311,7.512,1.71c2.495-0.566,4.31-2.449,6.089-4.172c1.225-1.177,2.426-2.391,3.605-3.616
			c2.688-2.786,5.248-5.785,8.228-8.255c0.146-0.104,0.295-0.204,0.445-0.302c0.206,0.23,0.407,0.467,0.601,0.706
			c1.688,2.281,3.286,4.627,4.88,6.984c1.144,1.698,2.37,3.396,3.779,4.887c0.728,0.763,1.571,1.456,2.426,2.068
			c1.109,0.797,2.495,1.468,3.894,1.468c1.513,0.012,2.796-0.474,3.894-1.491c0.086-0.081,0.174-0.16,0.264-0.236
			c0.926-0.649,1.912-1.22,2.866-1.82c1.34-0.855,2.669-1.745,4.009-2.612c1.236-0.797,2.508-1.571,3.756-2.357
			c1.695-1.073,3.389-2.135,5.196-3.002c1.258,3.823,1.832,7.872,2.487,11.831c0.805,4.892,1.83,9.739,2.637,14.619
			c0.37,3.069,0.623,6.125,0.634,9.219c0.01,3.09-0.249,6.15-0.637,9.198c-0.251,1.559-0.471,3.144-0.924,4.656
			c-0.54,1.759-1.206,3.451-1.908,5.153c-0.967,2.287-1.947,4.58-3.094,6.783c-1.313,2.533-2.792,4.922-4.414,7.277
			c-0.331,0.426-0.66,0.849-0.994,1.273c-0.983,1.248-2.139,2.344-3.361,3.34c-1.537,1.108-3.173,1.946-4.871,2.765
			c-1.369,0.558-2.744,1.089-4.167,1.532c-1.657,0.523-3.312,0.908-5.005,1.237c-0.856,0.096-1.703,0.192-2.565,0.229
			c-1.328,0.058-2.646,0.081-3.975,0.081c-2.392-0.012-4.783-0.184-7.165-0.406c0.324,0.047,0.659,0.093,0.983,0.139
			c-0.851-0.116-1.71-0.23-2.566-0.347c-1.539-0.266-3.069-0.55-4.586-0.948c-1.586-0.42-3.112-0.952-4.643-1.548
			c-1.566-0.717-3.13-1.471-4.6-2.369c-1.585-0.979-3.091-2.007-4.583-3.12c-1.04-0.823-2.077-1.661-3.055-2.577
			c-1.068-0.993-2.018-2.054-2.944-3.175c-1.823-2.584-3.435-5.309-5.007-8.055c-1.634-2.821-3.031-5.738-4.369-8.713
			c-0.748-1.843-1.454-3.706-2.173-5.561c-0.043-1.165-0.518-2.32-1.272-3.257c-0.179-0.462-0.362-0.922-0.542-1.385
			c-0.697-1.813-1.385-3.628-2.047-5.452c0.218-0.474,0.184-1.045-0.056-1.561c-0.149-0.315-0.29-0.623-0.431-0.935
			c-0.729-1.82-1.363-3.672-1.994-5.524c-0.427-1.265-0.848-2.529-1.213-3.809c-0.075-0.278-0.152-0.556-0.228-0.836
			c-0.082-0.315-0.161-0.631-0.234-0.948C39.671,335.424,38.794,331.713,38.236,327.932z M497.786,364.428
			c-0.067,0.93-0.173,1.853-0.288,2.779c-0.43,2.308-0.946,4.544-1.538,6.824c-0.524,2.025-1.328,3.997-2.092,5.954
			c-0.393,0.858-0.789,1.718-1.177,2.584c-1.185,2.59-2.778,5.022-4.47,7.323c-1.571,1.942-3.272,3.72-5.183,5.33
			c-2.014,1.435-4.129,2.645-6.383,3.671c-3.029,1.214-6.127,2.266-9.119,3.586c-2.705,1.19-5.108,2.576-7.407,4.438
			c-1.422,1.156-2.727,2.403-3.986,3.732c-1.584,1.664-3.144,3.363-4.691,5.062c-3.313,3.652-6.825,7.076-10.672,10.152
			c-4.762,3.509-9.844,6.476-15.256,8.858c-5.6,2.227-11.406,3.851-17.298,5.128c1.567-1.104,3.105-2.247,4.593-3.432
			c4.586-3.664,8.62-7.915,12.179-12.56c2.612-3.385,4.53-7.141,6.332-11c1.895-4.091,3.639-8.274,5.165-12.525
			c0.566-1.596,1.052-3.351,0.843-5.051c-0.013-0.786-0.209-1.502-0.59-2.172c-0.566-0.971-1.502-1.688-2.576-1.989
			c-0.381-0.104-0.76-0.153-1.13-0.153c-1.896,0-3.565,1.293-4.174,3.169c-0.727,2.277-1.271,4.611-1.987,6.887
			c-0.718,2.324-1.65,4.581-2.528,6.836c-0.52,1.211-1.045,2.424-1.562,3.644c-1.46,3.379-3.418,6.559-5.62,9.502
			c-3.275,4.134-6.991,7.835-11.068,11.187c-0.573,0.43-1.149,0.858-1.718,1.288c-0.763,0.566-1.502,1.202-2.3,1.721
			c-1.71,1.086-3.385,2.219-5.142,3.213c-3.023,1.697-6.103,3.239-9.255,4.657c-3.296,0.253-6.59,0.407-9.912,0.346
			c-1.895-0.035-3.789-0.197-5.685-0.312c-2.844-0.18-5.659-0.524-8.49-0.865c-6.368-0.968-12.778-2.229-19.207-2.394
			c-2.866-0.071-5.721,0.138-8.559,0.518c1.987-1.566,3.895-3.236,5.736-4.971c1.202-1.144,2.334-2.357,3.49-3.559
			c0.796-0.821,1.629-1.642,2.391-2.497c1.988-2.241,3.941-4.484,5.847-6.782c0.983-1.179,1.884-2.439,2.819-3.664
			c0.717-0.947,1.364-1.976,1.942-3.016c0.647-1.144,1.294-2.276,1.826-3.478c0.715-1.617,1.467-3.212,1.848-4.946
			c0.439-1.93-0.255-3.929-2.01-4.957c-0.677-0.392-1.45-0.596-2.227-0.596c-0.389,0-0.78,0.052-1.16,0.157
			c-0.982,0.265-2.206,1.029-2.622,2.01c-0.935,2.157-1.652,4.378-2.467,6.581c-0.735,1.608-1.508,3.191-2.456,4.684
			c-1.152,1.811-2.368,3.56-3.624,5.304c-1.518,1.947-3.061,3.864-4.682,5.733c-1.098,1.259-2.173,2.541-3.317,3.755
			c-2.626,2.781-5.401,5.38-8.388,7.747c-3.015,2.3-6.202,4.434-9.486,6.328c-0.099,0.058-0.199,0.117-0.298,0.175
			c-0.115,0.036-0.232,0.07-0.347,0.107c-4.645,1.467-9.289,3.039-14.04,4.137c-2.403,0.543-4.806,1.202-7.233,1.641
			c-2.605,0.46-5.209,0.921-7.804,1.4c-3.235,0.377-6.451,0.744-9.701,0.957c-1.93,0.127-3.859,0.255-5.789,0.381
			c-5.462,0.356-11.042-0.006-16.471-0.611c-2.065-0.301-4.154-0.551-6.188-0.984c-2.438-0.521-4.876-1.029-7.302-1.571
			c-3.636-0.815-7.245-1.599-10.922-2.071c-1.788-0.937-3.522-1.975-5.149-3.181c-1.748-1.404-3.313-2.99-4.728-4.738
			c-1.142-1.551-2.121-3.176-2.927-4.927c-0.715-1.818-1.179-3.695-1.49-5.614c-0.212-1.855-0.234-3.711-0.044-5.574
			c0.411-2.475,1.151-4.898,2.083-7.226c0.886-1.959,1.977-3.773,3.245-5.505c1.815-2.229,3.91-4.146,6.164-5.927
			c4.264-3.164,8.907-5.838,13.508-8.489c1.109-0.636,1.664-1.999,1.318-3.235c-0.197-0.717-0.671-1.341-1.318-1.722
			c-0.41-0.237-0.98-0.409-1.513-0.409c-0.245,0-0.484,0.037-0.696,0.12c-3.328,1.329-6.679,2.623-9.833,4.298
			c-2.947,1.56-5.755,3.271-8.366,5.35c-3.559,2.831-6.493,6.379-8.551,10.434c-1.016,2.01-1.744,4.195-2.357,6.366
			c-0.671,2.392-1.039,4.876-1.039,7.361c0.012,2.184,0.369,4.392,0.889,6.517c0.566,2.323,1.467,4.576,2.646,6.644
			c2.149,3.772,5.33,6.885,8.809,9.423c-1.713,0.243-3.415,0.585-5.061,0.997c-2.669,0.658-5.281,1.594-7.869,2.53
			c-5.061,1.826-10.157,3.674-15.391,4.946c-4.335,1.052-8.669,2.1-13.033,3c-0.247-0.236-0.517-0.45-0.84-0.603
			c-1.983-0.953-3.881-1.969-5.668-3.243c-2.364-1.916-4.47-4.12-6.396-6.482c-2.052-2.729-3.718-5.627-5.107-8.729
			c-1.351-3.38-2.222-6.84-2.787-10.427c-0.268-2.32-0.351-4.621-0.119-6.941c0.408-2.362,1.06-4.63,1.937-6.868
			c1.529-3.383,3.482-6.552,5.555-9.619c0.96-1.421,0.554-3.513-0.612-4.68c-0.725-0.725-1.756-1.131-2.781-1.131
			c-0.66,0-1.318,0.168-1.887,0.53c-1.503,0.948-2.52,2.196-3.525,3.641c-0.983,1.41-1.918,2.854-2.809,4.333
			c-1.941,3.258-3.374,6.887-4.217,10.573c-0.912,3.986-0.82,7.995-0.219,12.017c0.59,4.009,1.617,7.824,3.224,11.544
			c1.433,3.339,3.166,6.46,5.35,9.372c2.149,2.877,4.565,5.535,7.279,7.902c0.255,0.22,0.522,0.414,0.781,0.623
			c-3.526,0.189-7.05,0.145-10.585-0.243c-3.652-0.565-7.176-1.503-10.615-2.857c-4.348-1.946-8.475-4.346-12.85-6.239
			c-1.191-0.516-2.402-0.976-3.624-1.406c-0.87-0.844-1.691-1.737-2.447-2.692c-2.279-3.069-4.111-6.486-5.645-9.989
			c-1-2.442-1.707-4.939-2.111-7.552c-0.146-1.434-0.17-2.853-0.032-4.287c0.198-1.136,0.484-2.229,0.888-3.302
			c1.003-2.103,2.336-3.941,3.701-5.805c0.266-0.342,0.532-0.683,0.797-1.035c-0.184,0.243-0.37,0.486-0.554,0.728
			c0.359-0.462,0.74-0.889,1.179-1.282c1.156-1.016,1.282-2.9,0.543-4.17c-0.634-1.09-1.801-1.699-2.991-1.699
			c-0.59,0-1.184,0.149-1.724,0.462c-1.71,0.993-2.796,2.461-3.906,4.045c-0.809,1.154-1.525,2.392-2.173,3.639
			c-1.525,2.934-2.276,6.146-2.324,9.452c-0.023,1.583,0.22,3.177,0.486,4.737c0.301,1.71,0.786,3.396,1.353,5.037
			c1.016,2.982,2.495,5.825,4.055,8.563c0.628,1.093,1.31,2.152,2.014,3.195c-3.126-0.391-6.351-0.302-9.486-0.073
			c-6.378,0.462-12.698,1.399-19.053,2.081c-3.455,0.37-6.887,0.659-10.354,0.889c-3.339,0.219-6.654,0.278-10.007,0.335
			c-2.105,0.038-4.215,0.01-6.324-0.025c-0.501-0.513-1.113-0.831-1.832-1.123c-1.282-0.52-2.566-0.993-3.883-1.421
			c-1.561-0.5-3.142-0.925-4.673-1.52c-1.796-0.844-3.44-1.919-5.033-3.104c-1.986-1.622-3.765-3.42-5.373-5.408
			c-1.023-1.425-1.917-2.898-2.668-4.483c-0.771-2.058-1.266-4.168-1.603-6.338c-0.22-2.141-0.25-4.235-0.036-6.383
			c0.161-1.075,0.341-2.158,0.682-3.18c0.081-0.157,0.166-0.31,0.252-0.46c0.912-1.71,0.728-3.79-0.671-5.201
			c-0.817-0.817-1.945-1.238-3.068-1.238c-1.1,0-2.197,0.404-2.999,1.238c-0.75,0.786-1.41,1.618-2.068,2.495
			c-0.406,0.544-0.741,1.457-0.96,2.045c-0.23,0.624-0.427,1.236-0.59,1.896c-0.75,3.212-0.623,6.436-0.173,9.672
			c0.209,1.548,0.498,3.05,0.879,4.565c0.404,1.57,1.063,3.061,1.699,4.54c1.271,2.935,3.374,5.523,5.523,7.857
			c1.396,1.513,2.995,2.836,4.651,4.082c-1.173-0.169-2.344-0.341-3.521-0.507c-5.802-0.831-11.571-2.621-16.999-4.846
			c-3.229-1.441-6.247-3.13-9.086-5.225c-1.513-1.221-2.923-2.482-4.195-3.942c-0.505-0.743-0.952-1.492-1.353-2.292
			c-0.233-0.674-0.417-1.344-0.561-2.043c-0.03-0.474-0.04-0.94-0.03-1.418c0.141-0.645,0.324-1.268,0.544-1.893
			c1.009-2.001,2.306-3.801,3.555-5.668c1.085-1.596,2.01-3.271,2.714-5.062c0.797-2.044,1.122-4.113,1.202-6.297
			c0.127-3.71-0.924-7.453-1.93-10.989c-0.629-2.207-1.285-4.388-1.706-6.639c-0.085-1.032-0.114-2.043-0.053-3.081
			c0.343-1.781,0.88-3.477,1.547-5.164c0.819-1.735,1.755-3.381,2.863-4.946c1.077-1.256,2.23-2.361,3.495-3.4
			c3.025-2.167,6.256-3.88,9.643-5.407c1.516-0.6,3.053-1.235,4.639-1.637c1.614-0.417,3.22-0.749,4.864-1.015
			c0.38-0.035,0.762-0.073,1.142-0.108c1.094,2.815,2.28,5.592,3.624,8.298c1.617,3.271,3.685,6.32,5.72,9.336
			c2.219,3.304,4.876,6.273,8.018,8.724c1.721,1.353,3.444,2.68,5.235,3.94c1.478,1.039,3.074,1.941,4.657,2.785
			c3.686,1.942,7.591,3.363,11.671,4.206c3.883,0.796,7.846,1.213,11.809,1.364c1.989,0.079,3.963,0.104,5.951-0.035
			c2.137-0.162,4.229-0.532,6.332-0.983c1.768-0.394,3.513-1.006,5.201-1.653c1.121-0.439,2.23-0.912,3.328-1.41
			c1.93-0.866,3.651-1.987,5.315-3.293c2.576-2.022,4.622-4.553,6.54-7.176c1.075-1.491,2.056-3.028,3.016-4.598
			c0.947-1.56,1.756-3.271,2.495-4.934c0.912-2.033,1.813-4.067,2.612-6.135c0.671-1.722,1.353-3.479,1.688-5.304
			c0.404-2.207,0.728-4.415,0.947-6.645c0.508-4.911,0.647-9.879,0.265-14.79c-0.112-1.397-0.263-2.789-0.431-4.179
			c0.956-0.313,1.847-0.87,2.547-1.535c0.321-0.315,0.597-0.695,0.862-1.073c0.796-0.922,1.68-1.74,2.619-2.516
			c3.964-2.891,8.252-5.059,12.729-7.023c2.005-0.782,4.025-1.521,6.114-2.054c2.247-0.566,4.503-0.983,6.793-1.333
			c1.344-0.138,2.69-0.283,4.035-0.283c1.05-0.007,2.089,0.032,3.126,0.099c3.336,2.189,6.686,4.349,10.219,6.219
			c5.055,2.683,10.22,5.135,15.477,7.384c0.256,0.108,0.51,0.217,0.766,0.324c-0.367,0.054-0.738,0.089-1.105,0.15
			c-1.756,0.278-3.513,0.566-5.268,0.866c-1.895,0.324-3.756,0.717-5.628,1.133c-3.559,0.774-7.129,1.93-10.41,3.501
			c-1.617,0.774-3.271,1.513-4.841,2.379c-3.328,1.826-6.645,3.72-9.557,6.182c-1.19,1.006-1.294,2.97-0.554,4.252
			c0.993,1.698,3.12,2.16,4.806,1.259c2.416-1.294,4.669-2.855,7.027-4.241c3.073-1.803,6.191-3.517,9.462-4.923
			c4.131-1.643,8.412-2.758,12.724-3.789c2.929-0.696,5.9-1.35,8.894-1.79c1.605-0.202,3.227-0.363,4.848-0.318
			c2.089,0.982,4.173,1.972,6.248,2.986c5.304,2.576,10.665,4.979,16.096,7.257c5.351,2.23,10.78,4.159,16.27,5.997
			c0.964,0.323,1.912,0.684,2.869,1.024c-1.416,0.158-2.833,0.279-4.244,0.499c-5.199,0.809-10.318,2.149-15.368,3.581
			c-4.275,1.214-8.609,2.439-13.012,3.074c-1.189,0.177-2.373,0.349-3.559,0.523c-3.409,0.362-6.818,0.522-10.227,0.183
			c-2.818-0.432-5.593-1.07-8.387-1.643c-1.861-0.369-3.698-0.658-5.582-0.888c-2.265-0.278-4.506-0.578-6.782-0.717
			c-4.876-0.289-9.754,0.243-14.548,1.098c-4.703,0.832-9.243,2.252-13.646,4.113c-3.593,1.513-7.222,3.293-10.434,5.546
			c-1.594,1.121-3.224,2.206-4.749,3.42c-0.659,0.531-1.374,1.016-1.976,1.594c-0.867,0.82-1.688,1.629-2.472,2.507
			c-1.052,1.179-1.374,2.819-0.544,4.23c0.901,1.548,3.2,2.333,4.773,1.248c1.825-1.248,3.767-2.392,5.742-3.398
			c2.897-1.493,5.721-3.081,8.713-4.399c5.401-2.206,11.006-3.711,16.781-4.56c4.88-0.585,9.857-0.782,14.739-0.135
			c1.607,0.218,3.205,0.429,4.809,0.633c2.06,0.393,4.12,0.765,6.18,1.148c1.224,0.22,2.453,0.408,3.683,0.566
			c-0.57,0.417-1.149,0.82-1.707,1.259c-2.76,2.173-5.13,4.714-7.441,7.338c-3.962,4.494-7.788,9.289-10.099,14.87
			c-0.866,2.115-1.491,4.264-1.964,6.494c-0.197,0.901-0.324,1.815-0.485,2.727c-0.613,3.409-0.567,6.805,0.127,10.192
			c0.474,2.287,3.131,3.581,5.268,2.993c2.311-0.636,3.513-2.993,2.98-5.258c-0.137-0.631-0.259-1.263-0.378-1.895
			c-0.15-1.467-0.222-2.918-0.165-4.402c0.038-0.903,0.16-1.798,0.265-2.699c0.371-2.198,0.906-4.325,1.692-6.413
			c1.667-3.726,4.016-6.994,6.445-10.25c0.954-1.162,1.909-2.332,2.863-3.492c2.023-2.467,4.348-4.719,6.836-6.722
			c2.698-2.031,5.624-3.673,8.642-5.145c0.093-0.016,0.19-0.03,0.283-0.045c2.484-0.406,4.923-1.052,7.372-1.642
			c0.809-0.196,1.594-0.497,2.392-0.74c0.832-0.265,1.698-0.485,2.52-0.797c3.559-1.305,7.106-2.668,10.688-3.929
			c5.278-1.84,10.662-3.297,16.195-4.127c4.768-0.613,9.537-0.72,14.323-0.702c1.154,0.367,2.313,0.725,3.489,1.008
			c2.98,0.728,5.962,1.421,8.965,2.035c3.764,0.758,7.553,1.373,11.347,1.964c-0.221,0.103-0.45,0.195-0.672,0.298
			c-1.085,0.52-2.173,1.029-3.258,1.537c-0.809,0.381-1.56,0.855-2.333,1.282c-0.843,0.474-1.688,0.947-2.531,1.41
			c-0.983,0.544-1.918,1.225-2.865,1.826c-3.732,2.369-7.176,5.118-10.226,8.319c-1.953,2.056-3.685,4.344-5.247,6.702
			c-1.687,2.554-2.98,5.339-4.078,8.181c-0.797,2.058-1.328,4.218-1.71,6.391c-0.381,2.265-0.578,4.565-0.393,6.863
			c0.207,2.416,0.832,4.669,2.033,6.772c0.971,1.71,2.358,3.154,3.698,4.576c1.56,1.653,4.321,1.571,5.892,0
			c0.775-0.774,1.214-1.848,1.214-2.947c0-1.167-0.473-2.081-1.214-2.947c-0.53-0.611-1.054-1.221-1.566-1.847
			c-0.393-0.574-0.757-1.168-1.084-1.788c-0.283-0.804-0.483-1.619-0.634-2.468c-0.167-1.736-0.112-3.467,0.083-5.203
			c0.421-2.521,1.101-4.947,2.042-7.316c1.264-2.795,2.816-5.391,4.645-7.846c2.248-2.809,4.794-5.338,7.609-7.576
			c2.301-1.74,4.701-3.356,7.173-4.842c1.063-0.623,2.091-1.317,3.2-1.871c1.427-0.72,2.856-1.44,4.296-2.16
			c1.191-0.494,2.377-0.984,3.561-1.48c1.214-0.508,2.497-0.878,3.733-1.294c0.658-0.222,1.323-0.416,1.992-0.599
			c2.724,0.383,5.447,0.78,8.167,1.167c5.984,0.843,12.016,1.664,18.048,2.137c11.161,0.879,22.393,1.617,33.578,0.879
			c6.24-0.416,12.41-1.19,18.535-2.426c2.794-0.562,5.561-1.218,8.315-1.933c1.935,0.895,3.735,1.986,5.461,3.247
			c1.307,1.059,2.51,2.196,3.586,3.484c0.308,0.429,0.585,0.863,0.836,1.323c0.217,0.593,0.386,1.191,0.51,1.81
			c0.028,0.554,0.017,1.101-0.028,1.659c-0.23,1.239-0.567,2.427-1.016,3.605c-1.252,2.775-2.855,5.368-4.674,7.803
			c-0.797,1.052-1.594,2.115-2.369,3.19c-1.756,2.415-3.467,4.864-5.176,7.315c-0.994,1.432-0.555,3.582,0.612,4.749
			c1.432,1.445,4.124,1.606,5.535,0c5.582-6.344,11.128-13.173,13.82-21.295c0.589-1.768,0.832-3.685,0.935-5.536
			c0.128-2.091-0.472-4.321-1.386-6.194c-1.586-3.281-4.566-5.725-7.54-7.741c4.789-1.452,9.535-3.029,14.331-4.466
			c2.842-0.855,5.638-1.756,8.446-2.715c3.12-1.051,6.123-2.484,9.129-3.824c2.415-1.063,4.772-2.253,7.129-3.444
			c1.319-0.659,2.626-1.338,3.922-2.039c1.531,0.013,3.063,0.077,4.604,0.249c1.729,0.265,3.432,0.669,5.078,1.28
			c0.949,0.459,1.835,0.985,2.692,1.588c0.744,0.631,1.409,1.31,2.037,2.057c1.142,1.586,2.042,3.256,2.831,5.029
			c0.84,2.151,1.495,4.366,1.878,6.645c0.116,1.309,0.109,2.581-0.017,3.884c-0.263,1.46-0.552,2.909-0.831,4.359
			c-0.219,1.168-0.184,2.242,0.439,3.293c0.554,0.96,1.479,1.675,2.554,1.964c2.115,0.59,4.806-0.694,5.257-2.98
			c0.255-1.33,0.508-2.646,0.717-3.987c0.219-1.456,0.358-2.865,0.289-4.333c-0.081-1.502-0.381-3.016-0.728-4.461
			c-0.59-2.403-1.607-4.749-2.646-6.979c-0.532-1.167-1.144-2.3-1.802-3.408c-0.671-1.144-1.525-2.184-2.334-3.225
			c-2.9-3.689-6.929-5.649-11.297-6.618c0.697-0.53,1.41-1.035,2.09-1.598c1.802-1.491,3.501-3.028,5.073-4.749
			c1.318-1.445,2.495-3.05,3.478-4.727c0.925-1.57,1.56-3.35,2.137-5.083c0.485-1.47,0.82-2.972,1.084-4.488
			c0.933,0.047,1.867,0.077,2.792,0.158c1.62,0.259,3.225,0.584,4.842,0.917c2.528,0.518,5.046,1.028,7.483,1.891
			c1.236,0.607,2.396,1.306,3.527,2.097c1.895,1.583,3.646,3.283,5.23,5.171c1.089,1.527,2.021,3.115,2.826,4.809
			c0.992,2.616,1.699,5.287,2.169,8.04C497.983,359.142,497.974,361.765,497.786,364.428z"/>
	</g>
</g>
<g>
	<g>
		<path d="M26.801,361.697c0.249-0.104,0.498-0.206,0.747-0.311c0.351-0.149,0.697-0.298,1.052-0.448
			C27.997,361.189,27.4,361.444,26.801,361.697z"/>
	</g>
</g>
<g>
	<g>
		<path d="M27.548,361.387c-0.084,0.036-0.168,0.073-0.255,0.107c0.077-0.032,0.154-0.065,0.23-0.096
			c0.07-0.029,0.139-0.059,0.21-0.089C27.671,361.335,27.61,361.36,27.548,361.387z"/>
	</g>
</g>
<g>
	<g>
		<path d="M25.018,362.452c0.236-0.098,0.471-0.197,0.705-0.296c0.048-0.021,0.096-0.042,0.144-0.063
			C25.586,362.213,25.301,362.334,25.018,362.452z"/>
	</g>
</g>
<g>
</g>
<g>
</g>
<g>
</g>
<g>
</g>
<g>
</g>
<g>
</g>
<g>
</g>
<g>
</g>
<g>
</g>
<g>
</g>
<g>
</g>
<g>
</g>
<g>
</g>
<g>
</g>
<g>
</g>
</svg>
