<?xml version="1.0" encoding="iso-8859-1"?>
<!-- Generator: Adobe Illustrator 19.0.0, SVG Export Plug-In . SVG Version: 6.00 Build 0)  -->
<svg version="1.1" id="Capa_1" xmlns="http://www.w3.org/2000/svg" xmlns:xlink="http://www.w3.org/1999/xlink" x="0px" y="0px"
	 viewBox="0 0 512.002 512.002" style="enable-background:new 0 0 512.002 512.002;" xml:space="preserve">
<g>
	<g>
		<g>
			<path d="M404.57,70.522c-0.907,3.694-1.193,7.605,1.053,10.896c2.135,3.128,5.401,4.739,9.124,4.025
				c0.501-0.096,0.491-0.9,0-1.003c-2.975-0.623-6.096-2.205-7.687-4.892c-1.571-2.654-1.212-5.808-0.491-8.724
				c0.009,0.001,0.018,0.002,0.027,0.003c-0.092,2.956,1.591,6.127,3.587,8.058c3.59,3.473,8.426,4.284,13.092,2.98
				c0.396-0.111,0.283-0.645-0.092-0.681c-3.707-0.356-8.217-1.064-11.118-3.58c-1.406-1.219-2.188-2.53-2.634-3.957
				c1.655,2.466,4.781,3.97,7.993,4.277c5.503,0.525,10.695-2.377,12.258-7.722c0.14,0.104,0.269,0.223,0.406,0.33
				c0.679,2.706-2.107,7.694-2.62,9.501c-0.167,0.588,0.498,1.081,1.019,0.783c2.422-1.384,3.052-4.735,3.504-7.263
				c0.073-0.406,0.116-0.808,0.142-1.205c0.858,0.853,1.687,1.756,2.538,2.661c0.773,0.823,2.014-0.047,1.798-1.047
				c-1.308-6.042-7.818-9.634-13.583-10.221c-3.497-0.356-6.278,0.668-9.587,1.627c-3.728,1.08-6.96,0.486-10.458,0.41
				c-0.54-0.203-1.075-0.446-1.603-0.773c-1.136-0.705-2.739-1.645-2.046-3.38c0.31-0.777,1.891-1.948,2.555-2.398
				c3.078-2.085,6.756-2.619,10.183-3.845c0.433-0.155,0.566-0.937,0-1.018c-5.298-0.762-13.959,0.79-16.053,6.638
				c-1.049,2.929,1.568,6.065,4.695,7.517C401.718,69.537,403.088,70.175,404.57,70.522z M414.492,69.701
				c1.511-0.502,2.915-1.031,4.313-1.417c-0.06,0.562-0.07,1.132-0.062,1.697c0.015,1.015-0.057,2.085,0.913,2.667
				c0.417,0.25,0.903,0.138,1.251-0.161c0.849-0.73,0.512-1.876,0.364-2.848c-0.094-0.616-0.215-1.217-0.4-1.799
				c1.568-0.226,3.189-0.175,5.002,0.393c0.335,0.105,0.646,0.237,0.96,0.366c-0.11,0.297-0.197,0.65-0.367,1.11
				c-0.983,2.659-2.946,4.518-5.724,5.174c-2.443,0.577-5.258,0.286-7.386-1.049c-1.355-0.85-1.946-2.004-2.465-3.237
				C412.146,70.385,413.368,70.074,414.492,69.701z"/>
			<path d="M475.745,86.945c0.959,0.569,2.201,0.414,2.797-0.6c0.545-0.928,0.324-2.573-0.188-3.45
				c-0.065-0.112-0.148-0.203-0.239-0.284c-0.591-1.301-1.675-2.288-3.322-2.206c-0.849,0.042-1.424,0.65-1.487,1.487
				C473.164,83.788,474.064,85.949,475.745,86.945z"/>
			<path d="M475.981,77.463c1.835,0.756,3.373,1.668,4.431,3.407c0.893,1.467,0.76,3.133,1.497,4.611c0.246,0.493,0.9,0.383,1.171,0
				c1.276-1.808-0.052-4.591-1.242-6.124c-1.341-1.729-3.444-3.154-5.694-3.101C475.408,76.273,475.367,77.21,475.981,77.463z"/>
			<path d="M506.628,113.32c-12.788-1.773-25.616,0.669-38.428-0.541c-10.199-0.963-18.145-6.256-26.59-10.937
				c2.533,0.151,5.052,0.127,7.527-0.249c1.122-0.171,2.165-0.51,3.163-0.944c0.933,1.665,1.722,3.395,2.4,5.23
				c0.392,1.059,1.836,1.112,2.209,0c0.904-2.689,1.609-5.384,2.19-8.137c1.883,2.483,3.521,5.085,4.978,7.877
				c0.568,1.089,1.996,0.646,2.376-0.311c1.226-3.089,1.978-6.197,2.415-9.423c2.512,3.286,2.747,7.679,4.096,11.645
				c0.374,1.1,1.893,1.392,2.52,0.329c1.727-2.928,3.075-5.926,4.095-9.085c0.404,3.21-0.271,6.731,0.474,9.885
				c0.205,0.866,1.382,1.404,2.145,0.872c3.632-2.533,7.266-6.319,8.358-10.763c0.726-0.164,1.393-0.661,1.525-1.424
				c0.148-0.849,0.27-1.708,0.378-2.569c2.475-4.531,1.978-10.734,0.071-15.319c-2.441-5.869-7.722-10.139-13.543-12.404
				c-7.598-2.956-15.822-1.427-23.552-3.546c-8.275-2.269-12.022-10.321-18.784-14.924c-1.482-1.009-3-1.874-4.543-2.622
				c2.553-3.765,3.899-8.53,5.622-12.713c1.91-4.636,3.839-9.263,5.769-13.891c3.88,0.983,7.912-0.508,9.923-4.983
				c2.46-5.474-0.288-11.778-6.053-13.558c-3.797-1.173-10.068,0.937-10.51,4.819c-2.316,2.976-1.435,7.843,1.454,10.711
				c0.224,0.223,0.459,0.424,0.693,0.625c-10.896,5.898-30.086,15.501-37.43,1.873c4.52-0.714,8.131-5.04,7.704-10.04
				c-0.612-7.157-8.731-11.03-14.976-7.447c-2.953,1.694-3.76,5.03-3.515,8.228c0.135,1.768,0.737,4.094,2.092,5.457
				c0.94,1.334,2.255,2.46,3.937,3.184c0.01,0.004,0.02,0.006,0.03,0.011c-2.412,6.704-9.025,10.889-16.047,11.259
				c-7.545,0.397-14.415-3.298-19.921-8.155c0.078-0.053,0.16-0.097,0.236-0.154c3.668-2.728,4.603-9.178,1.591-12.619
				c-2.403-2.744-7.621-3.886-10.516-1.466c-3.282,2.744-5.207,7.28-3.143,11.231c1.35,2.585,4.172,4.166,7.045,4.311
				c4.239,10.537,8.068,21.539,13.254,31.661c-2.097,1.119-4.117,2.355-6.045,3.712c-5.281-3.533-13.348-3.693-19.463-3.814
				c-1.429-0.028-2.359,1.628-1.632,2.843c2.649,4.427,5.141,8.956,7.479,13.558c-7.236,0.252-14.384,2.403-20.944,5.341
				c-1.138,0.509-1.119,2.13-0.376,2.918c3.804,4.035,7.471,8.224,11.305,12.236c-6.858,2.829-13.334,6.545-19.648,10.431
				c-1.496,0.921-1.007,2.855,0.451,3.449c5.675,2.313,11.356,4.611,17.036,6.912c-6.652,4.07-13.124,8.417-19.123,13.417
				c-1.384,1.153-0.163,3.228,1.371,3.31c5.854,0.312,13.058,0.724,19.219-0.684c-3.409,2.843-6.777,5.74-10.152,8.619
				c-1.156,0.986-0.24,3.141,1.261,3.045c5.525-0.355,10.761,0.166,15.976,1.622c-5.128,4.708-9.805,9.877-14.195,15.285
				c-1.016,1.251-0.506,3.705,1.47,3.549c5.653-0.446,11.051-0.374,16.522,0.381c-6.016,3.302-11.949,6.746-17.814,10.315
				c-1.413,0.86-1.201,2.617,0,3.516c5.263,3.942,10.853,7.253,16.486,10.555c-7.899,0.733-15.737,1.971-23.511,3.595
				c-1.618,0.338-1.887,2.38-0.915,3.467c6.614,7.395,13.196,14.816,19.749,22.265c0.074,0.084,0.152,0.146,0.229,0.213
				c-0.73,0.931-1.485,1.849-2.279,2.748c-1.411,1.596-3.086,3.346-4.952,5.046c-11.643-0.961-20.852-10.169-27.781-18.856
				c-6.72-8.425-11.751-18.213-15.045-28.456c-7.601-23.641-5.657-49.146,1.403-72.657c2.874-9.571,6.81-20.248,2.713-30.073
				c-3.429-8.221-11.449-13.248-19.037-17.164c-20.766-10.717-42.684-19.507-65.052-26.247
				c-25.506-7.686-51.733-12.705-78.264-15.083c-1.963-0.176-2.596,2.356-1.493,3.605c6.051,6.853,12.663,12.942,20.053,18.158
				c-27.916-3.976-56.137-5.775-84.299-3.643c-21.63,1.637-43.375,5.355-63.871,12.59c-2.137,0.754-2.323,3.85,0,4.531
				c33.985,9.969,49.425,49.01,36.888,80.866c-0.566,1.438,0.878,3.118,2.325,3.052c32.243-1.468,56.307,29.217,47.065,60.197
				c-0.563,1.889,1.231,3.243,2.945,2.945c13.763-2.391,29.033-3.763,42.813-0.69c14.202,3.167,20.185,13.818,25.16,26.419
				c0.547,1.387,2.015,2.218,3.436,1.398c27.922-16.114,61.147-8.706,83.583,12.288c-28.383-7.6-58.577-6.613-86.964,0.671
				c-1.302,0.334-2.604,0.683-3.907,1.032c-3.877-7.851-14.26-11.831-22.252-13.629c-1.592-0.358-2.656,0.939-2.435,2.435
				c0.727,4.912,1.492,9.813,2.147,14.731c-8.416-7.063-18.873-11.188-29.925-12.109c-1.375-0.115-2.191,1.369-1.937,2.542
				c1.478,6.81,3.407,13.49,5.696,20.065c-8.149-5.15-18.2-8.066-27.39-10.272c-1.331-0.32-2.799,0.902-2.326,2.327
				c2.021,6.099,4.038,12.199,6.056,18.299c-4.342-2.356-8.904-4.196-13.752-5.421c-4.534-1.146-9.619-2.282-13.631,0.762
				c-0.592,0.449-1.116,1.225-0.821,2.017c2.079,5.58,4.295,11.151,6.212,16.805c-6.613-3.981-13.861-6.648-21.671-3.888
				c-1.081,0.382-1.762,1.629-1.098,2.7c3.168,5.113,6.106,10.328,8.643,15.768c-6.816,0.113-13.515,1.347-20.055,3.352
				c-1.578,0.484-1.929,2.682-0.463,3.542c3.911,2.295,7.366,4.967,10.537,8.131c-5.317,1.641-10.47,3.982-15.747,5.71
				c-1.299,0.426-1.54,1.822-0.746,2.824c2.136,2.693,4.424,5.248,6.858,7.666c-6.551,1.972-12.421,5.113-17.878,9.402
				c-0.947,0.745-0.484,2.202,0.355,2.759c3.673,2.438,7.334,4.893,10.99,7.355c-5.515,4.103-10.622,8.671-15.437,13.596
				c-0.902,0.923-0.547,2.668,0.785,2.974c3.61,0.829,7.101,1.897,10.541,3.205c-1.996,2.943-3.99,5.887-5.966,8.844
				c-0.979,1.464-3.968,4.287-3.521,6.392c0.427,2.015,2.146,2.156,3.983,2.601c3.507,0.851,7.027,1.669,10.547,2.472
				c-2.972,5.629-5.131,11.713-6.808,17.83c-0.313,1.141,0.573,2.308,1.757,2.307c5.396-0.008,10.789-0.296,16.171-0.683
				c-0.12,3.906-0.149,7.812-0.033,11.72c0.07,2.363-0.641,6.741,1.3,8.639c1.187,1.161,2.542,0.914,3.965,0.37
				c3.418-1.305,6.78-4.036,9.933-6.317c2.49,5.951,5.822,11.326,10.131,16.22c0.71,0.806,2.2,0.786,2.912,0
				c3.203-3.539,6.388-7.093,9.533-10.683c3.149,6.081,8.197,13.238,14.289,15.651c2.306,0.914,4.275-0.015,5.765-1.887
				c2.805-3.524,4.881-7.959,7.024-12.09c3.547,4.412,8.681,9.266,13.957,9.725c3.863,0.335,6.253-3.176,7.872-6.161
				c1.193-2.199,1.87-4.726,3.31-6.357c0.601,4.236,2.04,8.413,3.179,12.495c0.347,1.243,1.883,1.938,3.015,1.227
				c2.949-1.851,5.938-3.446,9.1-4.764c-0.651,2.318-1.302,4.636-1.952,6.954c-0.492,1.751-1.804,4.35-0.92,6.193
				c0.55,1.146,1.38,1.56,2.602,1.792c1.113,0.211,2.367-0.136,3.508-0.122c1.675,0.02,3.26,0.246,4.835,0.59
				c-3.058,4.388-5.866,8.901-8.461,13.597c-0.63,1.14-0.049,2.49,1.171,2.879c3.584,1.145,7.154,2.333,10.722,3.525
				c-2.506,3.399-4.642,6.988-6.368,10.898c-0.482,1.092-0.219,2.829,1.248,3.066c2.993,0.485,5.963,1.035,8.956,1.476
				c-1.62,3.725-2.832,7.596-3.165,11.681c-0.075,0.917,0.9,1.921,1.827,1.827c3.559-0.358,7.131-0.442,10.696-0.742
				c0.029,3.714,0.395,8.783,3.227,10.686c3.008,2.022,7.223-0.432,10.21-2.308c0.542,1.603,1.221,3.203,1.595,4.815
				c0.397,1.709,0.954,3.918,2.543,4.956c1.272,0.83,2.377,0.398,3.477-0.478c2.303-1.836,4.583-3.478,7.01-5.131
				c0.655,0.196,1.311,0.403,1.965,0.588c15.512,4.392,32.417,8.394,48.625,6.573c16.221-1.822,28.197-11.371,42.379-18.356
				c8.076-3.977,16.74-5.973,25.752-4.966c9.01,1.007,16.845,5.396,25.025,8.954c26.941,11.718,57.983,1.996,74.521-22.125
				c9.167-13.371,13.419-29.917,12.653-46.045c-0.84-17.674-6.994-40.178,8.846-53.374c3.712-2.146,7.705-3.799,11.614-5.62
				c3.482-1.622,12.132-5.507,11.795-10.467c-0.389-5.733-9.374-2.221-12.434-1.563c-4.015,0.862-7.818,2.032-11.619,3.578
				c-3.647,1.483-7.335,3.431-11.212,3.428c0.237-0.258,0.462-0.527,0.69-0.793c9.295-3.652,18.21-8.73,27.168-13.014
				c3.575-1.71,7.67-3.369,11.137-5.675c0.203,0.177,0.447,0.313,0.76,0.355c3.193,0.433,6.43,1.175,9.647,0.908
				c1.811-0.15,2.21-2.576,0.431-3.181c-2.056-0.699-4.219-0.959-6.388-1.162c0.596-1.049,1.14-2.102,1.635-3.195
				c0.503-0.928,0.914-1.93,1.204-3.023c0.609-2.299-2.999-3.286-3.556-0.98c-2.131,8.042-14.388,11.856-20.981,15.38
				c-5.816,3.108-11.897,5.88-17.715,9.055c1.108-1.676,2.172-3.389,3.299-5.037c4.199-6.14,9.311-10.651,16.846-11.726
				c1.717-0.245,2.002-3.023,0.489-3.741c-6.03-2.861-12.377-5.892-19.238-5.225c-5.591,0.543-9.943,3.757-14.096,7.266
				c-2.426,2.049-4.855,4.258-7.655,5.802c-2.605,1.436-5.788,1.567-8.235,3.235c-4.518,3.081-7.995,11.345-9.071,16.52
				c-0.031,0.15-0.034,0.291-0.016,0.422c-0.085,0.405-0.143,0.82-0.21,1.231c-0.26,0.099-0.506,0.277-0.711,0.549
				c-3.06,4.06-5.721,8.41-8.461,12.69c-0.643,1.004,0.01,2.291,1.066,2.621c2.866,0.896,5.639,1.938,8.31,3.261
				c-3.701,3.878-7.258,7.893-10.715,11.991c-0.962,1.141-0.644,2.887,0.882,3.341c5.416,1.613,10.626,3.644,15.723,6.024
				c-4.238,2.784-8.45,5.607-12.666,8.424c-1.142,0.764-1.527,2.892,0,3.555c6,2.605,11.864,5.448,17.17,9.235
				c-6.07,1.168-12.192,1.697-18.415,1.566c-1.64-0.034-2.629,1.832-1.842,3.211c3.937,6.901,9.015,14.132,11.641,21.847
				c-2.586-1.091-5.214-2.079-7.89-2.93c-2.711-0.863-7.055-2.941-9.797-1.079c-2.496,1.694-1.929,5.361-1.873,7.897
				c0.084,3.763,0.167,7.526,0.251,11.289c-1.741-1.558-3.511-3.084-5.341-4.536c-2.415-1.917-5.433-4.865-8.516-5.455
				c-2.262-0.434-3.52,0.5-4.842,2.12c-2.022,2.477-2.946,5.323-4.923,7.621c-1.631-5.211-4.24-12.218-8.598-13.899
				c-4.387-1.692-9.321,3.398-12.844,6.902c-1.973-3.895-5.307-9.074-8.875-9.941c-3.312-0.805-6.465,4.125-8.568,7.749
				c-0.535-1.347-1.78-2.427-2.862-3.53c-1.732-1.766-3.447-3.337-5.937-3.846c-0.91-0.186-1.815,0.127-2.309,0.94
				c-1.392,2.29-3.707,4.162-5.369,6.308c-2.077-3.29-6.556-5.909-10.328-6.004c-3.51-0.088-5.693,5.075-7.293,8.849
				c-2.419-2.541-5.626-5.017-8.939-3.444c-1.749,0.83-2.689,2.587-3.554,4.212c-1.696,3.185-3.799,7.709-6.882,9.704
				c-3.982,2.577-9.564,2.898-14.116,3.675c-6.215,1.061-12.547,1.424-18.842,1.048c-11.52-0.688-25.476-3.359-34.673-10.827
				c-9.137-7.419-10.322-19.734-10.969-30.685c-0.663-11.204-1.202-22.507-5.617-32.999c-3.571-8.486-9.748-16.255-18.231-20.205
				c-8.55-3.981-17.874-2.862-26.809-1.008c-9.966,2.069-21.568,5.968-31.214,0.724c-10.017-5.445-13.376-18.292-10.276-28.699
				c4.121-13.831,16.59-22.967,29.535-27.881c12.593-4.781,27.964-8.934,41.125-4.215c22.907,8.214,32.904,36.713,59.19,38.546
				c0.31,0.022,0.58-0.02,0.824-0.096c1.686,8.839-0.408,17.957-3.419,26.926c-3.959,11.795-9.929,22.167-16.597,32.584
				c-4.34,6.78-8.035,16.408-2.037,23.468c6.243,7.348,19.65,7.44,28.425,7.501c12.76,0.089,25.567-0.193,38.324-0.5
				c3.326-0.08,9.587-0.361,14.423-2.141c2.305,0.67,4.554-0.923,6.86-1.339c3.229-0.583,5.753,0.05,8.477,1.795
				c1.174,0.752,3.147-0.211,2.978-1.709c-0.005-0.043-0.011-0.084-0.016-0.126c9.239,1.574,19.889,0.42,29.032-0.267
				c3.457-0.26,7.694-0.81,10.456-2.853c4.884,0.274,10.27-3.808,15.09-1.421c1.503,0.744,3.677-0.889,2.525-2.524
				c-0.351-0.498-0.672-1.004-0.976-1.511c1.543-0.166,3.085-0.398,4.681-0.292c1.392,0.092,2.568-1.773,1.692-2.949
				c-1.727-2.318-1.721-5.397-3.511-7.678c-1.574-2.007-4.141-2.952-6.439-3.854c-3.132-1.229-8.876-2.897-12.293-0.943
				c-1.049-1.613-2.47-3.004-4.287-3.982c-3.394-1.827-7.356-1.526-10.94-2.684c-5.903-1.906-6.965-8.255-6.15-13.675
				c2.553-16.996,17.042-29.834,14.308-47.513c4.884-2.004,9.706-4.161,14.445-6.488c11.301-5.551,22.064-12.087,32.223-19.524
				c8.125-5.948,16.927-11.218,24.814-17.466c22.516-17.838,31.808-48.89,32.35-76.583c0.386-19.715-3.284-39.303-8.732-58.18
				c-4.962-17.19-11.518-38.19,4.144-51.876c1.342,1.081,2.679,2.145,4.307,2.868c6.415,2.846,13.947,1.282,20.729,2.323
				c4.006,0.615,7.988,1.708,11.746,3.227c2.537,1.026,5.4,3.147,8.202,3.367c5.66,0.445,8.827-7.977,10.546-11.978
				c0.489-1.138,0.205-2.733-1.236-3.039c-2.436-0.517-4.865-1.021-7.287-1.527c9.251,0.316,18.431,0.803,27.156,5.337
				c1.351,0.702,2.728-0.989,1.641-2.127c-2.671-2.796-5.668-4.978-9.028-6.621c4.851-0.866,9.638-1.982,14.378-3.396
				C507.675,115.349,507.888,113.495,506.628,113.32z M440.501,5.654c4.703-3.203,11.664,1.524,9.518,7.021
				C446.344,22.09,433.906,10.145,440.501,5.654z M359.67,17.235c-1.375,2.368-5.302,2.266-6.971,0.249
				c-2.474-2.989-0.953-8.12,3.351-8.111C360.432,9.382,361.513,14.06,359.67,17.235z M337.29,427.46
				c2.923-0.036,5.856,1.065,8.467,2.282c2.383,1.11,3.801,2.596,4.689,5.128c0.186,0.529,0.33,1.04,0.47,1.543
				c-1.354,0.018-2.68,0.259-3.835,0.867c-1.382-2.261-3.019-4.184-6.194-5.039c-1.798-0.484-3.726-0.538-5.514-0.117
				c-0.012-1.455-0.282-2.885-0.754-4.239C335.496,427.676,336.373,427.471,337.29,427.46z M334.783,436.225
				c0.117-0.383,0.214-0.769,0.297-1.157c1.606-0.472,3.258-0.608,5.05-0.08c2.958,0.872,4.036,3.24,5.919,5.368
				c-1.49,0.028-2.962,0.087-4.421,0.222c-2.122,0.196-4.218,0.553-6.31,1.205c0.071-0.463,0.115-0.948,0.108-1.472
				c-0.018-1.367-0.314-2.592-0.807-3.693C334.683,436.498,334.739,436.369,334.783,436.225z M455.491,102.403
				c-0.509-0.873-1.063-1.701-1.675-2.496c0.958-0.527,1.88-1.126,2.788-1.741C456.247,99.582,455.879,100.995,455.491,102.403z
				 M464.84,101.879c-1.372-2.146-2.876-4.189-4.489-6.166c1.818-1.066,3.722-1.875,5.91-1.963c0.125-0.005,0.251-0.001,0.376-0.004
				C466.264,96.535,465.65,99.218,464.84,101.879z M474.599,103.58c-1.002-3.47-1.865-6.924-4.193-9.67
				c2.439,0.262,4.872,0.794,7.288,1.441C476.885,98.195,475.873,100.931,474.599,103.58z M482.456,105.568
				c-0.33-3.048,0.038-6.108-0.659-9.035c1.949,0.59,3.883,1.19,5.794,1.722C486.074,100.963,484.722,103.42,482.456,105.568z
				 M396.813,14.557c-0.313-0.256-0.594-0.543-0.846-0.855c-0.855-1.06-1.367-2.403-1.6-3.757c-0.196-1.138-0.21-2.34,0.218-3.413
				c1.108-2.781,4.614-2.758,7.072-2.191c2.346,0.542,3.772,2.53,4.012,4.896C406.126,13.765,400.664,17.707,396.813,14.557z
				 M363.355,28.616c5.905,3.726,12.693,5.965,19.788,4.959c6.714-0.952,12.63-4.701,16.042-10.342
				c8.459,12.181,26.08,5.563,38.427-0.708c-1.187,2.893-2.371,5.788-3.57,8.676c-1.779,4.286-4.3,8.804-5.176,13.385
				c-12.859-4.734-27.308-1.797-40.326,2.17c-5.305,1.617-10.761,3.497-15.926,5.924C370.105,44.524,366.704,36.536,363.355,28.616z
				 M347.03,58.181c4.591,0.464,9.238,1.581,13.77,1.708c-2.726,2.197-5.199,4.701-7.303,7.591c-0.26,0.357-0.498,0.718-0.733,1.079
				C350.761,65.153,348.849,61.69,347.03,58.181z M332.877,78.297c5.505-1.962,10.999-2.925,16.806-3.485
				c-0.499,1.311-0.958,2.655-1.425,4.044c-1.261,3.75-3.923,6.676-5.596,10.154C339.476,85.379,336.143,81.862,332.877,78.297z
				 M325.188,102.843c5.291-3.126,10.691-6.043,16.022-9.096c-0.552,3.529-0.211,7.268,0.025,10.751
				c0.014,0.211,0.03,0.424,0.045,0.635c-0.105,1.386-0.144,2.778-0.146,4.173C335.819,107.149,330.505,104.993,325.188,102.843z
				 M331.336,124.815c-2.084,0.124-4.164,0.153-6.245,0.123c5.211-3.915,10.717-7.378,16.225-10.883
				c0.253,3.309,0.758,6.591,1.466,9.786C338.957,123.594,335.167,124.587,331.336,124.815z M335.027,135.968
				c2.984-2.518,5.959-5.05,8.889-7.629c0.918,3.146,2.042,6.221,3.239,9.271C343.169,136.649,339.118,136.088,335.027,135.968z
				 M337.929,155.744c3.68-4.252,7.573-8.284,11.602-12.218c1.726,4.275,3.409,8.566,4.655,13.011
				c0.056,0.201,0.106,0.402,0.161,0.603C348.935,156.211,343.424,155.706,337.929,155.744z M336.746,172.689
				c6.182-3.684,12.437-7.238,18.753-10.688c1.532,7.566,1.869,15.213,0.917,22.636c-0.022-0.012-0.039-0.027-0.061-0.039
				C349.594,181.057,342.966,177.133,336.746,172.689z M329.539,191.756c8.528-1.573,17.109-2.604,25.765-3.279
				c0.183-0.014,0.355-0.058,0.522-0.115c-1.506,7.971-4.548,15.616-9.229,22.548C340.885,204.548,335.206,198.158,329.539,191.756z
				 M140.92,18.42c46.836,5.329,93.333,18.486,135.359,39.913c10.203,5.202,19.587,11.836,18.998,24.581
				c-0.272,5.894-2.318,11.629-4.024,17.221c-1.832,6.003-3.372,12.083-4.485,18.262c-3.956,21.966-2.847,44.969,5.882,65.697
				c4.302,10.217,10.298,19.719,17.984,27.734c5.841,6.091,13.516,13.024,22.232,13.613c-6.009,4.439-13.177,7.336-19.717,3.828
				c-4.131-2.216-7.228-6.366-10.244-9.848c-3.824-4.416-7.525-8.936-10.96-13.663c-6.112-8.411-11.409-17.474-14.552-27.434
				c-3.505-11.11-4.659-22.892-5.23-34.479c-0.627-12.735-0.015-25.471,1.515-38.124c1.245-10.299,6.066-25.234-1.031-34.205
				c-6.848-8.658-16.931-14.204-27.407-17.233c-19.22-5.557-39.106-9.589-58.73-13.431c-7.659-1.5-15.354-2.875-23.074-4.103
				c-0.157-0.263-0.381-0.505-0.703-0.699C154.667,31.198,147.277,25.331,140.92,18.42z M44.625,76.388
				c-6.805-12.796-17.67-22.45-30.377-28.933c31.687-2.931,63.693-2.399,95.247,1.769c16.159,2.135,32.178,5.254,47.966,9.307
				c15.184,3.898,29.867,9.166,44.84,13.743c12.162,3.717,26.532,7.577,39.717,5.82c-30.065,15.517-65.925,12.778-98.692,17.363
				c-32.599,4.561-64.06,14.602-93.525,29.164C54.188,108.568,52.517,91.228,44.625,76.388z M88.338,147.374
				c-9.157-11.569-23.191-18.479-37.786-19.34c30.839-15.473,64.447-25.63,98.699-29.782c29.305-3.552,60.054-2.557,87.468-13.89
				c-20.604,16.425-43.82,29.354-65.359,44.527c-25.509,17.97-49.898,37.648-72.833,58.811
				C100.77,173.577,97.312,158.713,88.338,147.374z M165.887,215.562c-4.74-10.887-10.932-20.277-23.235-24.064
				c-12.94-3.983-27.827-3.325-41.465-1.339c23.823-21.632,48.757-42.022,75.181-60.412c20.642-14.366,42.934-26.776,62.602-42.529
				c-5.174,6.267-9.836,13.152-14.416,19.393c-7.977,10.872-15.478,22.099-22.473,33.627
				C187.669,163.991,177.327,190.282,165.887,215.562z M247.296,226.774c-22.097-17.171-52.38-22.295-77.815-10.377
				c11.11-24.697,21.23-50.334,35.197-73.553c6.785-11.28,14.103-22.253,21.747-32.968c4.29-6.014,8.701-11.946,13.24-17.774
				c2.868-3.683,5.98-7.239,8.684-11.059c-8.415,26.702-12.272,57.234-2.92,83.834c2.486,7.072,5.894,13.805,8.061,20.992
				c2.531,8.395,1.831,16.313,1.185,24.904c-0.636,8.465,0.001,17.482,2.728,25.694
				C254.332,232.993,251.051,229.692,247.296,226.774z M148.579,232.116c2.9,1.711,5.482,3.898,8.356,5.624
				c-5.235,1.441-10.469,3.002-15.675,4.7c-0.798-4.804-1.48-9.622-2.157-14.445C142.413,228.985,145.563,230.336,148.579,232.116z
				 M109.641,232.766c9.607,1.29,18.242,5.397,25.471,11.751c-6.577,2.293-13.092,4.802-19.485,7.571
				C113.186,245.768,111.209,239.342,109.641,232.766z M85.821,245.355c8.445,2.417,16.266,6.004,24.464,9.138
				c-6.252,2.88-12.374,6.007-18.305,9.416C89.927,257.725,87.873,251.54,85.821,245.355z M62.859,259.104
				c3.92-1.793,9.124,0.167,12.948,1.458c4.275,1.443,8.316,3.392,12.162,5.717c-2.214,1.341-4.403,2.716-6.556,4.141
				c-3.827,2.533-7.553,5.235-11.161,8.087C67.475,272.184,65.222,265.595,62.859,259.104z M46.808,274.652
				c7.299-1.343,13.849,2.718,19.849,6.79c-3.734,3.139-7.311,6.457-10.7,9.951c-0.028-0.069-0.042-0.139-0.077-0.207
				C52.958,285.616,50,280.071,46.808,274.652z M36.23,296.201c5.611-1.248,11.259-1.823,17.057-1.967
				c-2.837,3.1-5.534,6.32-8.044,9.682c-0.011-0.011-0.017-0.024-0.028-0.035C42.445,301.031,39.447,298.482,36.23,296.201z
				 M28.563,313.376c4.824-1.613,9.778-3.333,14.147-5.921c-2.821,4.08-5.39,8.338-7.658,12.776
				C32.698,318.088,30.554,315.84,28.563,313.376z M17.831,331.939c4.636-3.331,9.702-5.781,15.164-7.436
				c-0.704,1.545-1.382,3.104-2.013,4.69c-1.201,3.022-2.259,6.138-3.157,9.313C24.485,336.33,21.156,334.137,17.831,331.939z
				 M14.237,354.817c3.838-3.712,7.887-7.154,12.128-10.399c-0.982,4.605-1.61,9.289-1.817,13.961
				c-0.162-0.121-0.335-0.228-0.52-0.302C20.815,356.796,17.56,355.713,14.237,354.817z M21.108,375.987
				c-0.399-0.082-4.93-1.499-5.13-1.05c2.129-4.777,5.586-8.91,8.495-13.238c-0.006,5.194,0.533,10.341,1.692,15.313
				C24.48,376.67,22.793,376.333,21.108,375.987z M23.123,397.384c1.274-4.877,2.949-9.533,4.848-14.192
				c1.699,4.792,4.059,9.35,7.164,13.548C31.134,397.014,27.131,397.208,23.123,397.384z M45.46,414.243
				c-1.038,0.666-2.145,1.628-3.272,2.118c-2.168,0.941-1.392,1.259-1.191-1.24c0.312-3.87,0.027-7.89-0.105-11.865
				c0.29,0.277,0.578,0.554,0.877,0.826c2.893,2.631,5.956,4.827,9.155,6.665C49.102,411.911,47.279,413.074,45.46,414.243z
				 M63.705,426.495c-3.361-4.035-6.02-8.439-7.987-13.31c4.97,2.233,10.215,3.72,15.636,4.673
				C68.783,420.718,66.235,423.599,63.705,426.495z M94.772,425.709c-0.687,1.217-1.874,4.248-2.917,5.167
				c-1.901,1.675-3.005,0.24-4.636-1.125c-3.672-3.071-6.54-6.768-8.73-10.931c6.525,0.622,13.231,0.638,19.958,0.381
				C97.222,421.37,95.997,423.539,94.772,425.709z M120.013,422.417c-1.454,2.791-1.739,5.615-5.923,4.495
				c-3.542-0.948-7.045-4.782-9.493-8.012c6.02-0.349,12.014-0.827,17.87-1.192C121.649,419.277,120.831,420.847,120.013,422.417z
				 M133.2,428.075c-1.099-3.497-2.197-7.073-3.872-10.308c0.641-0.166,1.37-0.238,2.234-0.166c3.9,0.327,8.273,3.001,11.527,5.833
				C139.641,424.671,136.336,426.191,133.2,428.075z M148.215,439.091c-1.164-0.127-4.39-0.795-5.046-0.019
				c0.254-1.789,1.817-5.476,2.08-6.409c0.506-1.793,1.011-3.587,1.517-5.38c2.926,3.739,4.765,8.138,6.009,12.713
				C151.279,439.586,149.779,439.261,148.215,439.091z M146.435,457.107c2.36-3.992,4.888-7.878,7.565-11.664
				c0.028,0.152,0.058,0.303,0.085,0.455c0.832,4.64,1.324,9.443,1.955,14.223C152.835,459.128,149.632,458.127,146.435,457.107z
				 M152.13,474.245c1.426-2.79,3.023-5.462,4.834-8.021c0.555,3.123,1.266,6.197,2.264,9.171
				C156.82,475.147,154.463,474.803,152.13,474.245z M158.585,488.971c0.793-2.888,1.596-5.699,2.706-8.492
				c0.726,1.488,1.553,2.94,2.505,4.347c0.808,1.194,1.689,2.309,2.613,3.376C163.815,488.6,161.203,488.923,158.585,488.971z
				 M171.768,497.879c-0.89-0.784-1.017-3.272-1.023-5.401c2.146,1.809,4.47,3.396,6.915,4.806
				C175.708,498.378,173.476,499.384,171.768,497.879z M188.986,503.773c-0.89,0.688-1.744,1.41-2.554,2.191
				c-0.147,0.138-0.283,0.287-0.426,0.429c-0.047-0.047-0.084-0.088-0.138-0.139c-0.264-1.724-1.102-4.006-2.237-5.986
				c2.16,0.957,4.361,1.823,6.592,2.598C189.806,503.156,189.394,503.458,188.986,503.773z M384.104,381.578
				c1.522-2.399,3.042-4.801,4.483-7.249c0.04,3.095,0.438,6.258,1.075,9.392C387.831,382.95,385.985,382.227,384.104,381.578z
				 M383.403,399.983c2.667-3.058,5.37-6.082,8.101-9.082c1.126,3.664,2.452,7.159,3.762,10.29c0.557,1.333,1.104,2.664,1.633,3.994
				C392.488,403.225,387.987,401.501,383.403,399.983z M387.671,418.81c3.84-2.5,7.675-5.007,11.481-7.557
				c1.762,5.17,3.069,10.407,3.481,15.867C397.941,423.828,392.863,421.28,387.671,418.81z M384.91,435.958
				c5.996-0.079,11.892-0.77,17.755-2.086c-0.004,0.055-0.004,0.109-0.008,0.164c-0.577,7.929-2.966,15.798-6.881,22.763
				C393.453,449.446,388.883,442.61,384.91,435.958z M375.724,457.687c1.662-2.76,12.489,2.61,16.52,4.582
				c-0.342,0.463-0.687,0.923-1.044,1.375c-3.967,5.017-9.065,9.617-14.86,12.584l-0.292-8.782
				C375.987,465.598,374.757,459.294,375.724,457.687z M352.393,473.444c1.109-1.496,2.489-5.913,4-6.787
				c2.893-1.675,12.166,8.268,15.4,11.506c-3.525,1.179-7.246,1.712-11.086,1.356c-3.972-0.368-7.829-1.397-11.624-2.74
				C350.337,475.823,351.42,474.756,352.393,473.444z M339.538,463.584c2.545,2.671,3.823,7.615,4.868,11.39
				c-5.259-2.173-10.435-4.691-15.661-6.651C331.744,465.326,336.44,460.333,339.538,463.584z M317.689,459.41
				c2.073,0.604,3.965,4.146,5.268,6.989c-3.378-1.003-6.82-1.837-10.3-2.452C314.344,461.587,316.408,459.036,317.689,459.41z
				 M300.673,459.566c1.401,0.789,2.569,2.191,3.796,3.362c-2.056-0.143-4.116-0.195-6.175-0.151
				C299.19,461.752,299.985,460.628,300.673,459.566z M283.335,461.071c1.547-0.27,3.651,1.29,5.563,2.641
				c-3.335,0.616-6.573,1.528-9.753,2.618C280.266,463.914,281.682,461.359,283.335,461.071z M264.411,470.917
				c1.184-2.006,1.317-3.943,3.742-4.454c1.94-0.409,3.329,0.822,4.588,2.284c-3.197,1.294-6.367,2.675-9.555,4.01
				C263.619,472.167,264.032,471.559,264.411,470.917z M101.099,392.636c5.398,0.862,10.962,0.099,16.568-1.075
				c-5.877,2.17-11.769,4.335-17.851,5.577C99.991,395.513,100.244,393.969,101.099,392.636z M99.714,392.38
				c-0.909,1.486-1.367,3.277-1.335,5.031c-1.261,0.225-2.528,0.422-3.809,0.552c-2.071,0.211-4.173,0.269-6.272,0.193
				c0.142-1.763,1.047-3.596,1.751-5.061c0.642-1.334,1.367-2.549,2.357-3.534C94.796,390.955,97.237,391.848,99.714,392.38z
				 M91.451,388.992c-1.357,1.314-2.333,2.99-3.132,4.779c-0.614,1.375-1.334,2.89-1.299,4.317
				c-3.462-0.222-6.903-0.82-10.181-1.817c0.105-0.426,0.211-0.853,0.347-1.276c0.471-1.458,1.146-2.838,1.96-4.134
				c1.685-2.681,4.05-4.968,6.809-6.52C87.497,386.046,89.31,387.616,91.451,388.992z M85.377,383.698
				c-2.91,1.48-5.337,3.46-7.187,6.18c-1.065,1.566-2.326,3.788-2.759,5.93c-4.007-1.377-7.736-3.34-10.904-5.906
				c1.387-2.941,2.889-5.874,5.489-7.923c3.107-2.448,7.488-3.698,11.259-5.059C82.256,379.333,83.616,381.613,85.377,383.698z
				 M67.755,359.401c4.472,0.302,7.993,1.474,11.552,4.154c-0.121,1.603-0.116,3.201-0.002,4.782
				c-4.748-1.114-10.588-0.132-14.797,1.31c-3.44,1.179-7.144,3.236-9.183,6.357c-0.582-2.16-0.927-4.47-0.978-6.942
				c-0.056-2.758,0.154-5.525,0.588-8.278C58.982,359.223,63.454,359.11,67.755,359.401z M55.142,359.632
				c0.727-4.024,1.913-8.009,3.486-11.874c3.649-2.033,8.126-2.121,12.209-1.837c4.285,0.299,8.647,1.563,12.066,4.229
				c-1.79,3.82-2.986,7.904-3.462,11.996c-2.808-2.878-7.496-3.643-11.311-3.919C63.708,357.907,59.266,358.094,55.142,359.632z
				 M65.932,370.598c2.665-0.79,5.447-1.2,8.224-1.246c1.77-0.029,3.526,0.217,5.281,0.378c0.259,2.19,0.766,4.333,1.527,6.392
				c-4.121,1.305-8.768,2.336-12.105,5.138c-1.632,1.37-2.861,3.141-3.929,4.968c-0.51,0.872-1.067,1.78-1.518,2.726
				c-3.404-3.042-6.071-6.826-7.604-11.36C58.354,374.17,61.67,371.863,65.932,370.598z M83.366,349.207
				c-3.541-2.96-7.83-4.352-12.529-4.722c-3.415-0.27-8.156-0.52-11.388,1.341c1.757-3.964,3.885-7.788,6.285-11.377
				c3.801,0.768,7.801,0.603,11.505,1.875c3.842,1.319,6.76,4.254,9.933,6.694C85.725,344.952,84.453,347.034,83.366,349.207z
				 M91.52,338.112c-1.26,1.188-2.439,2.479-3.537,3.848c-2.674-2.719-6.111-5.357-9.518-6.723
				c-2.017-0.809-4.171-1.129-6.315-1.398c-1.839-0.231-3.698-0.531-5.557-0.649c2.587-3.715,5.447-7.164,8.449-10.237
				c0.96-0.983,1.95-1.922,2.955-2.84c3.8,0.343,6.71,2.444,9.597,5.531c2.861,3.059,4.785,6.512,6.382,10.313
				C93.138,336.649,92.315,337.362,91.52,338.112z M95.132,335.03c-2.511-6.565-8.76-15.285-16.023-15.921
				c3.934-3.441,8.186-6.404,12.689-8.905c0.666,0.149,1.313,0.348,1.928,0.612c2.692,1.156,4.437,3.875,5.945,6.275
				c1.419,2.257,2.599,4.655,3.526,7.154c0.575,1.55,0.897,3.21,1.4,4.788C101.267,330.747,98.087,332.728,95.132,335.03z
				 M105.97,328.344c-0.374-2.098-1.299-4.228-2.087-6.061c-1.211-2.82-2.747-5.495-4.585-7.953c-1.4-1.871-2.891-3.698-5.123-4.581
				c-0.321-0.127-0.643-0.228-0.966-0.313c4.097-2.163,8.388-3.956,12.823-5.385c6.703,3.826,6.517,13.564,8.489,20.714
				C111.606,325.801,108.744,326.991,105.97,328.344z M121.807,322.469c-1.962,0.545-3.918,1.143-5.858,1.798
				c-0.314-2.196-0.917-4.402-1.353-6.529c-0.548-2.674-1.17-5.36-2.309-7.853c-1.142-2.502-2.862-4.742-5.089-6.207
				c4.24-1.299,8.603-2.278,13.05-2.931c0.183-0.027,0.368-0.044,0.552-0.069c3.242,2.033,5.347,6.126,6.574,9.539
				c0.732,2.036,1.22,4.172,1.426,6.327c0.132,1.374-0.005,2.784,0.061,4.163C126.473,321.226,124.114,321.829,121.807,322.469z
				 M140.624,319.032c-3.423,0.178-6.849,0.678-10.225,1.356c0.666-3.935-1.003-9.041-2.427-12.237
				c-1.17-2.626-2.97-5.904-5.534-7.68c4.942-0.618,9.922-0.908,14.91-0.953c0.764,1.358,1.335,3.105,1.655,3.952
				c0.643,1.706,1.132,3.476,1.443,5.274c0.325,1.877,0.481,3.783,0.445,5.688C140.863,315.957,140.42,317.532,140.624,319.032z
				 M152.495,319.908c-3.524-0.783-7.128-1.032-10.745-0.919c0.697-1.593,0.571-3.764,0.542-5.4
				c-0.041-2.306-0.346-4.611-0.917-6.846c-0.525-2.056-1.316-5.107-2.8-7.231c4.462-0.006,8.925,0.155,13.364,0.425
				c0.304,0.019,0.609,0.043,0.913,0.063c0.352,1.152,0.834,2.29,1.097,3.445c0.506,2.224,0.711,4.5,0.66,6.778
				c-0.05,2.275-0.377,4.534-0.988,6.726C153.339,317.959,152.885,318.928,152.495,319.908z M156.58,321.07
				c-0.84-0.297-1.689-0.548-2.541-0.777c0.396-0.99,0.667-2.052,0.917-2.976c0.624-2.306,0.952-4.706,0.985-7.094
				c0.039-2.836-0.175-7.078-1.561-10.118c3.842,0.277,7.701,0.664,11.512,1.295c0.574,1.802,1.505,3.499,1.872,5.361
				c0.499,2.528-0.226,5.298-0.692,7.793c-0.674,3.601-1.898,6.692-3.302,9.926C161.486,323.129,159.105,321.961,156.58,321.07z
				 M164.864,325.135c0.568-0.876,0.97-1.906,1.35-2.816c1.05-2.513,1.699-5.169,2.204-7.84c0.421-2.231,1.016-4.698,0.808-6.984
				c-0.173-1.892-0.902-3.975-1.775-5.815c3.732,0.688,7.409,1.613,10.959,2.93c0.5,4.759,0.545,9.77-0.309,14.427
				c-0.503,2.746-1.481,5.336-2.814,7.788c-0.754,1.388-1.825,2.697-2.628,4.097C170.161,328.806,167.582,326.839,164.864,325.135z
				 M173.8,331.901c1.202-1.408,2.084-3.232,2.881-4.767c1.343-2.59,2.31-5.327,2.777-8.213c0.468-2.888,0.502-5.827,0.442-8.745
				c-0.034-1.653,0.025-3.448-0.304-5.119c1.238,0.493,2.46,1.034,3.662,1.63c1.699,4.43,4.001,8.657,6.487,12.712
				c-0.169,1.301-0.238,2.615-0.521,3.904c-0.477,2.171-1.337,4.243-2.399,6.189c-0.87,1.592-1.867,3.113-2.926,4.585
				c-0.414,0.576-1.993,3.189-3.071,4.32C178.513,336.186,176.189,333.985,173.8,331.901z M188.175,345.276
				c-2.248-2.008-4.452-4.114-6.659-6.223c0.557-0.533,1.028-1.285,1.395-1.724c1.58-1.893,3.093-3.883,4.376-5.991
				c1.648-2.708,3.517-6.444,3.703-9.943c0.22,0.347,0.439,0.695,0.66,1.039c1.628,2.529,3.305,5.032,4.997,7.528
				c-0.342,2.959-1.449,5.797-3.016,8.337c-0.956,1.549-2.062,2.991-3.209,4.401c-0.547,0.672-1.102,1.341-1.673,1.993
				C188.421,345.067,188.213,345.193,188.175,345.276z M189.257,346.231c2.429-2.156,4.667-5.589,6.171-8.383
				c1.137-2.112,1.89-4.257,2.151-6.507c1.84,2.703,3.695,5.399,5.531,8.106c-0.518,2.171-1.179,4.297-2.14,6.336
				c-1.087,2.308-2.9,4.165-4.196,6.286C194.168,350.331,191.682,348.346,189.257,346.231z M197.999,352.857
				c1.891-1.778,3.288-4.662,4.244-6.797c0.771-1.722,1.361-3.505,1.738-5.333c1.609,2.385,3.201,4.78,4.744,7.203
				c-0.464,3.005-1.825,6.025-3.288,8.654C202.825,355.612,200.362,354.337,197.999,352.857z M206.478,356.949
				c1.331-1.791,2.101-4.042,2.684-6.145c0.11-0.396,0.287-0.902,0.463-1.456c0.718,1.146,1.428,2.296,2.121,3.455
				c1.14,1.909,2.01,3.843,2.691,5.793C211.622,358.374,208.985,357.792,206.478,356.949z M283.145,445.029
				c-0.597,0.034-1.286,0.096-2.014,0.193c0.321-1.144,0.347-2.451-0.031-3.96c-0.119-0.475-0.28-0.91-0.459-1.326
				c1.709-0.069,3.381,0.22,4.952,1.21c1.617,1.02,3.042,2.862,3.575,4.839C287.283,445.2,285.16,444.913,283.145,445.029z
				 M290.648,434.803c3.079-0.736,5.856-1.252,8.9,0.622c2.051,1.263,3.43,3.166,4.305,5.316c-2.111-0.317-4.232-0.523-6.38-0.584
				c-1.7-0.049-4.072-0.343-5.995,0.033C291.764,438.306,291.424,436.475,290.648,434.803z M307.882,405.273
				c-0.64,5.528,0.483,11.909,5.337,15.295c2.983,2.08,6.432,2.196,9.871,2.944c4.979,1.082,8.566,4.31,8.316,9.108
				c-2.327-1.803-5.355-2.893-8.239-3.342c-4.133-0.644-8.497-0.331-12.514-1.606c-5.719-1.814-9.493-7.453-10.02-13.287
				c-0.057-0.628-0.9-0.618-0.969,0c-0.62,5.499,1.284,10.576,5.808,13.949c4.745,3.538,10.666,3.417,16.26,4.268
				c3.93,0.598,10.231,2.538,9.949,7.709c-0.318,5.829-9.516,5.057-13.434,5.262c-8.5,0.444-17.366-0.601-25.805,0.196
				c-0.161-0.702-0.345-1.389-0.591-2.044c0.027-0.024,0.051-0.05,0.077-0.075c-0.002,0.013-0.004,0.027-0.005,0.04
				c-0.156,0.14,3.092,0.153,2.989,0.155c1.067-0.02,2.135-0.005,3.201,0.036c2.612,0.1,5.213,0.393,7.797,0.779
				c1.343,0.201,2.471-0.752,2.168-2.168c-0.949-4.429-3.504-8.516-7.638-10.596c-3.361-1.692-8.305-2.089-11.366,0.393
				c-1.07-1.332-2.404-2.488-3.867-3.375c-2.431-1.474-5.153-2.229-7.976-2.613c4.055-8.086,2.384-18.566,1.681-27.16
				c-0.437-5.339-0.846-10.733,0.019-16.049c0.645-3.968,3.268-8.415,3.374-12.474c2.007-0.4,3.971-0.878,5.807-1.284
				c6.275-1.387,12.483-3.042,18.619-4.954c5.729-1.785,11.389-3.789,16.967-6.002C325.611,375.258,309.775,388.93,307.882,405.273z
				 M274.616,393.971c0.123,5.163,0.751,10.3,0.913,15.462c0.182,5.808-0.854,10.806-2.232,16.361
				c-0.029,0.059-0.06,0.117-0.08,0.177c-2.91-0.105-5.834,0.013-8.579,0.014c-6.135,0.004-22.919,2.437-22.679-7.384
				c0.192-7.84,8.428-15.953,12.912-21.821c6.025-7.885,12.606-16.417,18.237-25.464c1.925,0.215,3.929,0.11,5.933-0.152
				c-1.365,2.318-2.019,5.228-2.736,7.727C274.897,383.803,274.495,388.878,274.616,393.971z M291.083,347.333
				c-0.559-4.894-1.838-9.947-4.139-14.394c0.217-4.874-0.238-9.826-1.538-14.845c4.574-0.077,9.198-0.287,13.829-0.642
				c1.658,2.971,3.358,5.882,4.611,9.09c1.412,3.613,2.438,7.386,3.037,11.219c0.63,4.033,0.78,8.15,0.456,12.219
				c-0.287,3.607-1.189,6.947-2.044,10.388c-5.185,1.615-10.427,3.045-15.717,4.296c1.128-1.904,1.229-5.009,1.467-6.979
				C291.46,354.244,291.476,350.775,291.083,347.333z M286.771,335.468c1.515,4.074,2.647,8.226,3.007,12.691
				c0.244,3.028,0.2,6.096-0.154,9.113c-0.186,1.581-0.463,3.155-0.826,4.705c-0.252,1.076-0.642,1.96-0.532,2.99
				c-4.269,0.983-8.569,1.855-12.902,2.596C281.263,357.416,285.74,346.66,286.771,335.468z M325.469,352.705
				c-0.2,0.291-0.422,0.555-0.668,0.785c-2.18,2.031-5.625,2.098-8.348,3.093c-1.192,0.436-8.942,2.235-9.243,3.168
				c2.191-6.793,2.183-14.788,1.186-21.579c-1.031-7.022-3.453-14.965-7.91-20.819c6.103-0.505,12.215-1.273,18.249-2.393
				c1.467-0.272,5.565,10.722,6.018,12.078c1.446,4.329,2.248,8.865,2.368,13.427C327.21,343.853,327.501,349.738,325.469,352.705z
				 M346.429,340.668c-0.09,0.961-0.319,1.891-0.527,2.823c-1.94,1.014-3.89,2.009-5.853,2.978
				c-4.109,2.028-8.265,3.928-12.461,5.711c3.286-12.594,0.21-27.306-7.94-37.392c5.556-1.065,11.042-2.418,16.385-4.129
				c1.811,1.769,3.222,4.127,4.457,6.206c1.743,2.934,3.145,6.067,4.153,9.328c0.966,3.125,1.581,6.354,1.796,9.618
				C346.546,337.425,346.58,339.056,346.429,340.668z M361.742,334.562c-4.574,2.776-9.236,5.41-13.959,7.923
				c0.397-2.085,0.273-4.402,0.165-6.259c-0.212-3.671-0.895-7.321-2.022-10.82c-1.668-5.179-4.413-11.311-8.712-15.134
				c5.228-1.732,10.318-3.798,15.196-6.271c1.117,1.617,1.954,3.505,2.839,5.161c1.587,2.969,3.152,5.955,4.38,9.095
				c1.081,2.764,1.909,5.631,2.301,8.576C362.285,329.508,362.042,331.982,361.742,334.562z M371.259,328.525
				c-2.533,1.685-5.097,3.327-7.687,4.927c0.854-5.452-0.947-11.648-2.944-16.431c-1.344-3.218-2.986-6.305-4.701-9.339
				c-0.84-1.487-1.626-2.901-2.66-4.113c3.781-1.963,7.434-4.168,10.926-6.643c4.04,2.813,7.485,6.622,9.935,10.857
				c1.354,2.34,2.42,4.836,3.159,7.437c0.727,2.558,0.745,5.192,1.34,7.749c0.03,0.131,0.11,0.232,0.212,0.302
				C376.321,325.092,373.785,326.845,371.259,328.525z M379.793,322.575c0.572-5.113-1.999-11.193-4.515-15.464
				c-2.608-4.427-6.087-7.971-10.321-10.728c4.393-3.184,8.529-6.793,12.335-10.897c3.995,2.866,7.421,6.225,10.018,10.559
				c3.154,5.262,4.194,10.659,4.804,16.642C388.164,316.203,384.009,319.49,379.793,322.575z M393.392,311.54
				c0.151-10.265-6.541-21.412-15.266-26.956c0.139-0.155,0.284-0.301,0.422-0.457c2.334-2.632,4.407-5.385,6.262-8.234
				c1.943,0.713,3.889,1.397,5.749,2.363c2.66,1.381,5.153,3.072,7.402,5.054c4.221,3.72,6.739,8.16,9.392,12.927
				C403.297,301.766,398.533,306.849,393.392,311.54z M414.411,284.653c-1.76,3.632-3.852,7.092-6.191,10.401
				c-1.813-5.098-5.896-9.779-9.901-13.134c-3.54-2.965-8.129-5.922-12.856-7.033c2.168-3.456,4.011-7.057,5.545-10.79
				c4.678,2.368,9.757,3.947,14.467,6.26c4.502,2.211,8.157,4.957,11.539,8.443C416.203,280.773,415.344,282.728,414.411,284.653z
				 M417.61,277.32c-2.898-3.325-6.976-5.796-10.786-7.716c-4.872-2.456-10.187-4.806-15.494-6.322
				c1.581-3.98,2.83-8.102,3.766-12.35c3.824,2.469,8.317,3.833,12.76,4.709c5.049,0.995,10.414,1.533,15.584,1.341
				C422.127,263.924,420.196,270.739,417.61,277.32z M423.683,255.641c-5.056-0.24-10.043-0.252-15.058-1.171
				c-4.69-0.859-9.026-2.458-13.349-4.359c0.674-3.205,1.184-6.475,1.527-9.81c0.097-0.945,0.155-1.883,0.223-2.824
				c7.99,5.011,19.535,6.106,28.407,2.885C425.16,245.489,424.578,250.595,423.683,255.641z M425.235,222.974
				c0.406,5.32,0.503,10.674,0.275,16.013c-4.855,0.864-9.424,1.887-14.408,1.544c-4.945-0.341-9.649-1.749-13.992-4.119
				c0.289-4.672,0.247-9.282-0.074-13.847c3.398,3.15,8.504,3.169,13.103,3.195c4.793,0.026,10.652-0.435,15.087-2.886
				C425.228,222.907,425.232,222.94,425.235,222.974z M425.083,221.243c-1.799,0.843-3.577,1.661-5.557,2.153
				c-2.791,0.694-5.671,0.96-8.542,1.001c-4.211,0.06-10.356,0.299-13.991-2.525c-0.275-3.609-0.718-7.192-1.297-10.758
				c4.145,1.825,8.544,2.708,13.21,2.503c4.89-0.214,10.617-1.455,14.675-4.491C424.221,213.147,424.726,217.187,425.083,221.243z
				 M423.387,207.928c-4.877,2.245-9.313,4.269-14.865,4.511c-4.34,0.189-8.839-0.507-12.945-2.072
				c-0.731-4.364-1.66-8.704-2.73-13.037c8.487,5.158,20.154,2.744,27.824-3.081C421.711,198.78,422.628,203.342,423.387,207.928z
				 M417.39,181.709c0.926,3.22,1.833,6.445,2.618,9.7c0.121,0.503,0.234,1.009,0.353,1.512c-8.771,5.956-18.647,7.852-27.941,2.736
				c-1.052-4.127-2.215-8.25-3.452-12.385c-0.048-0.159-0.093-0.323-0.141-0.482c4.352,2.3,8.858,4.275,13.922,4.029
				c4.953-0.241,10.801-1.746,14.611-5.071C417.374,181.736,417.377,181.721,417.39,181.709z M417.106,180.71
				c-0.161-0.063-0.343-0.069-0.52,0.036c-4.445,2.632-9.042,4.55-14.297,4.743c-4.923,0.181-9.523-1.804-13.843-4.006
				c-1.101-3.725-2.186-7.516-3.151-11.367c3.419,1.998,7.353,3.05,11.334,3.339c3.029,0.221,6.073-0.021,9.057-0.568
				c2.749-0.505,6.006-1.095,8.508-2.507C415.104,173.837,416.113,177.272,417.106,180.71z M411.471,146.702
				c-0.343,3.701-0.233,7.495,0.189,11.174c-2.199,1.202-5.371,1.12-7.733,1.264c-3.089,0.188-6.219,0.142-9.278-0.37
				c-2.344-0.392-4.649-1.037-6.832-1.978c-2.091-0.901-3.823-2.191-5.675-3.415c-0.458-4.137-0.642-8.273-0.417-12.371
				C389.666,147.399,401.812,147.618,411.471,146.702z M381.801,139.809c0.291-3.923,0.955-7.807,2.102-11.618
				c3.457,2.942,8.587,4.544,12.784,5.483c5.768,1.291,12.092,1.629,17.976,0.974c-1.622,3.296-2.588,6.946-3.055,10.721
				c-5.68,0.518-11.424,0.694-17.053-0.395C389.864,144.068,385.841,142.164,381.801,139.809z M395.88,160.286
				c3.772,0.48,7.591,0.368,11.363-0.054c1.43-0.16,3.255-0.198,4.609-0.899c0.236,1.714,0.53,3.399,0.881,5.028
				c0.352,1.629,0.749,3.247,1.162,4.861c-2.432,0.463-4.81,1.556-7.236,2.096c-3.019,0.673-6.117,1.021-9.211,0.91
				c-4.445-0.16-8.648-1.379-12.487-3.464c-1.102-4.542-2.033-9.143-2.625-13.751C385.909,158.203,391.439,159.722,395.88,160.286z
				 M415.247,133.527c-0.075-0.036-0.162-0.06-0.268-0.06c-5.937,0.024-11.692,0.356-17.573-0.807
				c-2.479-0.49-4.909-1.197-7.249-2.151c-2.127-0.867-4.017-2.075-5.997-3.168c0.587-1.832,1.284-3.646,2.109-5.439
				c1.806,0.585,3.662,1.019,5.551,1.255c6.631,0.829,13.21-0.629,19.84-0.655c3.973-0.015,7.76,0.512,11.136,2.714
				C419.489,127.449,417.031,130.299,415.247,133.527z M476.219,127.818c-0.877,2.026-1.951,4.168-3.343,5.295
				c-2.753,2.227-6.214-0.388-9.174-1.637c-5.117-2.159-10.505-3.549-16.025-4.15c-6.13-0.667-12.879,0.508-18.187-3.233
				c-4.175-2.942-7.298-5.446-12.576-6.195c-10.985-1.559-22.133,3.231-32.609-2.059c-13.002-6.567-15.986-20.24-11.585-33.186
				c0.44-1.293-1.375-1.861-2.074-0.874c-4.255,6.003-4.981,13.6-3.099,20.553c-0.801-1.382-1.525-2.789-1.846-4.651
				c-0.804-4.669-0.364-9.479,0.322-14.129c0.117-0.793-0.916-1.097-1.208-0.333c-1.963,5.133-2.792,11.026-1.65,16.465
				c0.647,3.083,2.174,7.236,5.769,7.419c0.129,0.007,0.237-0.023,0.33-0.072c1.558,3.346,3.741,6.39,6.436,8.826
				c2.515,2.273,5.428,4.046,8.551,5.311c-17.82,30.436,5.69,65.879,8.653,97.3c1.721,18.251-0.551,37.764-10.535,53.489
				c-8.449,13.309-21.378,23.405-35.597,29.958c-19.385,8.934-40.967,11.307-62.079,11.725c-0.226,0.004-0.428,0.044-0.618,0.099
				c-0.018-0.051-0.033-0.101-0.052-0.152c-5.253-14.627-16.424-27.428-28.124-37.366c-0.584-0.497-1.32,0.249-0.836,0.836
				c9.372,11.361,20.553,21.547,25.511,35.843c5.372,15.489,1.668,32.115-5.395,46.412c-4.045,8.186-8.773,15.054-14.201,22.346
				c-3.952,5.309-8.074,10.487-12.073,15.761c-5.537,7.301-18.811,23.297-6.078,30.673c11.101,6.43,40.344-5.375,44.743,10.365
				c-2.676-1.692-6.045-2.272-9.052-1.365c-5.773-4.797-18.603-1.732-23.895,0.32c-1.345,0.522-0.85,2.498,0.603,2.188
				c5.007-1.068,10.536-1.354,15.612-0.546c2.843,0.453,8.219,2.565,4.177,6.45c-1.942,1.866-5.033,2.23-7.575,2.563
				c-10.13,1.324-20.737,0.726-30.943,0.919c-10.355,0.196-21.253,1.149-31.359-1.616c-5.012-1.371-9.788-3.627-10.201-9.437
				c-0.362-5.091,2.378-9.661,5.049-13.76c9.632-14.785,18.293-31.343,20.546-49.112c1.068-8.42-0.256-16.351-4.556-23.702
				c-4.923-8.417-10.963-16.292-16.503-24.308c-5.79-8.377-12.179-16.956-14.74-26.981c-2.856-11.181,0.298-21.625,6.078-31.238
				c0.355-0.591-0.46-1.21-0.947-0.731c-6.747,6.636-9.923,16.585-9.437,25.95c0.154,2.971,0.693,5.853,1.498,8.659
				c-7.325-4.159-15.492-5.696-23.968-6.467c-10.625-0.966-21.413-1.289-32.049-0.315c-18.798,1.722-36.39,8.286-50.317,21.259
				c-12.827,11.948-22.417,28.529-24.503,46.099c-2.139,18.02,9.112,32.936,26.576,37.204c11.069,2.705,22.969,0.973,33.608-2.702
				c9.615-3.322,18.71-8.06,28.633-10.086c4.672-0.037,9.255,0.82,13.668,3.35c23.78,13.632,15.45,44.326,21.7,66.25
				c6.409,22.481,33.016,28.547,53.723,28.185c11.832-0.207,23.185-2.917,34.068-7.482c11.055-4.637,22.178-10.141,34.337-10.98
				c15.833-1.093,30.341,5.085,44.476,11.372c10.61,4.719,21.629,8.033,32.929,3.547c21.278-8.445,33.745-33.149,32.304-55.273
				c-0.706-10.841-5.158-20.909-9.183-30.845c-1.988-4.908-3.983-9.86-5.347-14.985c-1.109-4.165-1.995-11.775,0.142-15.731
				c2.647-4.898,4.687-10.979,10.104-12.712c4.078-1.305,7.285-2.35,10.767-5.04c3.57-2.758,6.864-6.167,10.949-8.175
				c5.562-2.734,11.353-1.144,16.654,1.335c-3.833,1.853-7.102,4.907-9.9,8.082c-4.724,5.361-9.256,10.894-13.982,16.254
				c-0.885,1.004-0.667,2.921,0.85,3.221c5.972,1.179,10.76-0.658,16.256-2.884c3.109-1.259,6.257-2.278,9.536-2.992
				c1.149-0.25,6.915-1.916,9.492-1.801c-2.484,4.25-11.346,6.843-14.946,8.456c-4.836,2.167-8.804,4.419-11.479,9.107
				c-6.612,8.192-8.182,19.442-7.611,30.058c0.471,8.749,2.032,17.426,1.902,26.208c-0.112,7.621-1.446,15.196-3.96,22.393
				c-10.877,31.137-44.915,49.97-76.298,36.531c-7.022-3.007-13.774-6.81-21.266-8.575c-7.526-1.774-15.483-1.685-22.964,0.273
				c-15.023,3.932-26.615,15.294-41.308,19.967c-17.27,5.492-35.962,1.275-52.994-3.102c-13.877-3.566-29.457-8.77-36.592-22.302
				c-7.416-14.065-4.702-31.043-10.524-45.645c-7.372-18.489-25.139-20.706-42.823-20.286c-19.95,0.474-41.241,3.62-59.38-6.855
				c-25.596-14.781-28.089-46.195-19.286-71.79c8.307-24.155,25.78-44.591,46.571-59.062c17.872-12.439,38.111-21.028,58.757-27.686
				c21.209-6.839,43.106-12.601,65.462-13.612c0.041-0.002,0.081-0.004,0.122-0.005c16.425-0.729,32.838,1.02,48.943,4.223
				c1.282,1.347,2.529,2.732,3.723,4.172c5.054,6.096,9.746,13.19,15.403,19.068c1.351,7.681,5.311,14.124,12.996,17.526
				c10.028,4.44,22.307,1.313,30.984-4.715c0.83-0.576,0.353-2.02-0.72-1.707c-8.646,2.524-17.539,6.331-26.662,3.648
				c-5.957-1.752-11.597-6.672-14.364-12.562c3.782,3.528,8.021,6.455,13.075,8.185c10.384,3.553,23.423,1.776,28.98-8.657
				c1.188-2.23-2.051-4.131-3.389-1.981c-8.222,13.219-26.78,7.2-35.884-1.349c-5.122-4.811-9.417-10.272-13.75-15.695
				c-1.837-5.235-3.578-10.454-4.526-15.989c-1.309-7.644-0.863-15.024-0.13-22.693c0.699-7.313,0.418-14.204-1.721-21.261
				c-2.01-6.634-5.087-12.874-7.484-19.366c-10.962-29.691-4.675-60.021,1.671-89.894c1.057-0.865,0.901-3.038-0.81-2.825
				c-7.479,0.933-14.734,1.714-22.271,0.902c-8.022-0.864-15.857-2.881-23.556-5.245c-14.952-4.592-29.633-9.874-44.798-13.778
				c-30.423-7.831-61.757-12.336-93.156-13.339c-9.832-0.314-19.67-0.237-29.495,0.171c25.044-4.801,50.513-6.311,76.261-4.958
				c37.469,1.968,74.394,9.301,110.838,17.894c9.361,2.207,18.956,3.916,27.821,7.783c8.328,3.632,18.535,10.603,18.499,20.714
				c-0.032,8.938-1.997,17.92-3.054,26.771c-1.509,12.627-1.704,25.465-0.84,38.145c0.792,11.63,2.348,23.475,6.4,34.462
				c3.727,10.106,9.41,19.355,15.871,27.931c3.223,4.278,6.63,8.414,10.088,12.502c3.281,3.879,6.588,8.099,11.053,10.691
				c8.786,5.101,18.589,1.06,25.958-4.633c16.276-12.574,24.081-32.169,24.534-52.361c0.291-12.954-3.32-24.436-8.359-36.238
				c-3.351-7.849-6.212-16.465-7.37-25.144c-1.044-7.829-2.312-18.554,1.987-25.637c2.247-3.702,4.203-6.767,5.755-10.846
				c1.594-4.189,3.553-7.849,6.647-11.14c5.653-6.015,13.229-9.827,20.761-12.942c9.097-3.763,18.708-6.899,28.598-7.479
				c9.419-0.552,19.479,1.177,26.901,7.403c3.927,3.294,6.792,7.227,10.507,10.2c0.68,1.948,0.647,3.987-0.181,6.48
				c-0.757,2.28-2.189,4.268-2.633,6.637c-0.096,0.51,0.441,1.066,0.949,0.73c2.94-1.948,4.051-6.159,4.406-9.501
				c0.103-0.969,0.081-1.823-0.04-2.604c1.415,0.846,2.972,1.547,4.754,2.029c2.241,3.327-0.714,8.367,0.158,12.341
				c0.113,0.515,0.887,0.753,1.238,0.327c2.002-2.428,2.42-7.327,1.725-10.363c-0.147-0.641-0.379-1.227-0.67-1.769
				c1.535,0.272,3.09,0.433,4.651,0.549c0.762,1.077,1.344,2.283,1.717,3.57c0.616,2.126,0.314,4.218,0.578,6.362
				c0.104,0.845,1.185,1.292,1.689,0.457c1.943-3.22,0.819-7.115-1.329-10.225c5.285,0.276,10.584,0.402,15.468,2.706
				c4.087,1.928,7.643,5.056,9.766,9.079c1.319,2.499,1.8,4.932,1.835,7.394c-0.366,1.914-0.913,3.667-1.715,5.492
				c-6.159-2.659-13.184-4.408-19.751-5.093c-2.961-0.309-6.001-0.212-8.784,0.951c-2.937,1.228-4.876,3.727-7.598,5.271
				c-6.976,3.957-17.027,0.824-24.52,0.18c-9.267-0.796-18.616-0.662-27.853,0.389c-2.061,0.235-2.103,3.046,0,3.24
				c6.879,0.633,13.563,6.692,19.48,9.919c6.053,3.301,12.304,6.225,18.697,8.804C450.592,122.545,463.423,126.593,476.219,127.818z
				 M487.14,117.266c-1.375,0.192-1.093,2.152,0,2.513c1.668,0.551,3.225,1.225,4.7,2.012c-11.202-3.28-23.723-3.16-35.314-2.882
				c-6.168-1.527-12.283-3.294-18.336-5.568c-6.979-2.622-13.777-5.709-20.354-9.22c-2.723-1.454-5.389-3.278-8.154-4.86
				c5.6,0.172,11.192,0.438,16.788,0.876c3.379,0.264,6.84,0.823,10.311,1.247c3.821,2.429,7.749,4.739,11.549,7.127
				c5.323,3.346,10.689,5.608,16.942,6.535c11.212,1.661,22.497-0.376,33.745,0.015C495.095,115.955,491.144,116.707,487.14,117.266
				z"/>
			<path d="M411.096,364.033c0.077-0.782,0.021-1.722-0.251-2.545c1.318-0.635,2.505-1.512,3.488-2.72
				c0.687-0.845,0.065-2.155-1.092-1.877c-2.686,0.645-4.927,2.155-7.698,2.584c-1.867,0.289-3.501,0.686-4.896,2.054
				c-2.281,2.237-3.058,5.944-0.815,8.449c0.467,0.521,1.386,0.108,1.372-0.568c-0.018-0.839,0.043-1.684,0.221-2.502
				c1.742,1.861,4.343,2.813,6.821,1.451C409.86,367.47,410.916,365.866,411.096,364.033z M406.936,366.612
				c-1.939,0.911-3.376-0.431-4.698-1.748c0.462-0.721,1.01-1.156,1.64-1.452c0.044,0.359,0.129,0.709,0.257,1.028
				c0.408,1.015,1.621,1.213,2.269,0.296c0.41-0.58,0.687-1.339,0.749-2.097c0.513-0.095,1.021-0.204,1.516-0.342
				c0.109,0.332,0.199,0.671,0.214,1.037C408.934,364.72,408.205,366.017,406.936,366.612z"/>
			<path d="M429.204,344.314c1.256,0.629,3.13,0.019,3.473-1.472c0.042-0.181,0.047-0.372,0.021-0.561
				c-0.012-0.348-0.14-0.678-0.468-0.922c-0.008-0.006-0.019-0.008-0.027-0.014c-0.145-0.122-0.319-0.213-0.52-0.254
				c-1.132-0.23-2.176-0.093-3.215,0.408c-0.803,0.388-0.932,1.652-0.288,2.232C428.476,343.996,428.83,344.186,429.204,344.314z"/>
			<path d="M425.781,57.843c2.844,0.906,4.854,2.752,7.444,4.053c0.752,0.377,1.614-0.397,1.175-1.175
				c-1.086-1.925-3.121-3.129-5.112-3.979c-1.079-0.461-2.208-0.802-3.366-0.996c-1.513-0.253-3.406-0.008-4.672-1.075
				c-0.597-0.504-1.462,0.332-0.869,0.869C421.922,56.938,423.856,57.23,425.781,57.843z"/>
		</g>
	</g>
</g>
<g>
</g>
<g>
</g>
<g>
</g>
<g>
</g>
<g>
</g>
<g>
</g>
<g>
</g>
<g>
</g>
<g>
</g>
<g>
</g>
<g>
</g>
<g>
</g>
<g>
</g>
<g>
</g>
<g>
</g>
</svg>
