<?xml version="1.0" encoding="iso-8859-1"?>
<!-- Generator: Adobe Illustrator 19.0.0, SVG Export Plug-In . SVG Version: 6.00 Build 0)  -->
<svg version="1.1" id="Capa_1" xmlns="http://www.w3.org/2000/svg" xmlns:xlink="http://www.w3.org/1999/xlink" x="0px" y="0px"
	 viewBox="0 0 512.002 512.002" style="enable-background:new 0 0 512.002 512.002;" xml:space="preserve">
<g>
	<g>
		<g>
			<path d="M459.54,153.909c-0.528,0.108-0.48,0.885,0,1.022c2.308,0.654,5.309,2.538,4.16,5.371
				c-0.608,1.498-1.783,1.671-3.087,1.414c-3.633-3.511-10.98-6.447-15.78-6.245c-4.836,0.204-6.263,3.368-9.746,5.784
				c-2.651,1.838-5.886,0.77-4.18-2.842c1.04-2.203,3.465-3.503,4.876-5.443c0.159-0.218-0.057-0.589-0.325-0.558
				c-5.01,0.578-10.264,5.874-7.882,11.15c0.956,2.118,2.997,3.714,5.388,3.337c0.281-0.044,0.548-0.185,0.807-0.36
				c-0.576,2.473-0.503,5.049,0.9,7.312c1.423,2.295,4.104,4.251,6.841,3.219c0.497-0.187,0.746-0.977,0.164-1.255
				c-1.875-0.899-3.82-1.696-4.947-3.557c-1.211-2-1.264-4.411-0.728-6.63c0.652,0.325,0.87,2.509,1.231,3.17
				c2.281,4.168,7.842,6.028,12.326,4.952c0.662-0.159,0.538-1.026-0.008-1.229c-2.588-0.965-5.556-0.946-7.914-2.5
				c-1.872-1.233-2.287-2.984-2.761-4.802c2.216,2,6.116,3.229,8.163,3.229c2.853,0,6.34-1.342,8.565-3.595
				c-0.066,0.627-0.15,1.252-0.329,1.871c-0.415,1.434-1.086,2.777-1.23,4.275c-0.036,0.376,0.402,0.503,0.675,0.382
				c2.28-1.013,3.336-4.293,3.042-7.01c1.432,1.478,2.272,3.192,1.894,5.523c-0.397,2.447-2.047,4.402-2.409,6.858
				c-0.064,0.432,0.352,0.877,0.79,0.608c4.843-2.97,5.612-9.932,1.927-13.557c2.621,0.862,5.492,0.374,6.551-2.722
				C468.022,156.672,463.72,153.05,459.54,153.909z M444.967,164.843c-1.695-0.416-3.24-1.322-4.448-2.576
				c-0.233-0.242-0.415-0.453-0.582-0.64c2.298-1.475,4.802-2.175,7.851-1.606c-0.19,0.854-0.189,1.807-0.078,2.625
				c0.18,1.323,2.493,1.324,2.673,0c0.079-0.581,0.096-1.231,0.037-1.866c1.059,0.379,2.114,0.795,3.175,1.206
				C451.733,164.494,447.748,165.525,444.967,164.843z"/>
			<path d="M509.308,165.167c-0.331-0.78-0.709-1.52-1.111-2.239c0.534-0.195,1.001-0.6,1.242-1.27
				c2.938-8.158,1.72-16.775-4.632-22.929c-0.911-0.882-2.634-0.796-3.254,0.419c-2.232,4.372-5.33,8.005-8.791,11.409
				c-0.583-0.229-1.17-0.45-1.764-0.657c-5.952-2.072-12.269-2.728-18.434-3.883c-5.9-1.106-11.525-3.045-17.348-4.44
				c-5.338-1.279-11.191-0.891-16.36-2.718c-1.451-0.513-2.812-1.408-4.143-2.425c0.729-7.395-4.096-15.836-4.898-22.947
				c-0.942-8.351-0.494-16.818-1.993-25.115c-1.202-6.649-3.747-13.345-8.397-18.364c-5.715-6.168-14.006-8.999-21.383-12.565
				c-1.462-0.707-3.514,0.477-2.936,2.258c1.52,4.686,6.016,7.311,7.636,11.901c2.206,6.248-0.472,12.931-2.161,18.944
				c-2.089,7.44-2.764,16.331,0.193,23.717c-1.333-0.75-2.666-1.49-3.991-2.225c-11.237-6.233-22.026-12.644-32.005-20.798
				c-18.713-15.291-35.152-33.405-56.73-44.829c-1.374-0.728-3.69,0.531-2.958,2.274c8.656,20.596,25.484,36.364,39.924,52.94
				c7.655,8.787,15.361,17.608,23.736,25.723c4.561,4.419,9.401,8.991,14.524,13.14c-2.362,0.003-4.717,0.302-6.859,0.786
				c-11.846,2.676-22.829,9.319-35.418,7.106c-6.685-1.175-11.283-4.991-15.547-9.38c2.802-3.32,5.585-6.644,8.315-10.028
				c2.096-2.598,5.673-5.759,6.366-9.209c0.671-3.341-1.285-7.143-2.344-10.206c-1.532-4.435-3.198-8.844-5.247-13.069
				c-7.611-15.694-21.048-28.592-34.574-39.263c-28.988-22.868-64.231-35.816-100.187-42.814
				c-21.236-4.133-43.492-7.543-65.087-4.624c-2.661,0.36-2.005,4.036,0,4.765c12.032,4.373,22.744,11.089,31.983,19.741
				c-10.667-3.073-21.761-4.139-32.894-4.573c-16.033-0.626-32.195-1.054-48.22-0.051c-12.692,0.795-26.022,2.298-38.155,6.63
				c-14.639,2.436-29.173,6.62-43.613,9.927c-2.194,0.502-2.35,3.494-0.601,4.596C18.359,61.638,39.798,65.94,49.741,85.526
				c10.832,21.339,4.815,45.833-1.265,67.604c-0.469,1.678,0.831,3.158,2.474,3.248c14.745,0.802,28.467,8.222,36.184,21.07
				c4.197,6.988,6.354,15.111,6.276,23.257c-0.036,3.789-0.574,7.509-1.544,11.167c-0.577,2.178-1.566,4.522-0.781,6.785
				c1.626,4.685,7.563,3.126,11.396,3.462c6.764,0.592,13.366,2.672,19.307,5.943c12.016,6.617,21.195,17.612,24.884,30.87
				c0.494,1.775,2.789,2.389,4.096,1.081c10.375-10.385,25.758-15.124,40.059-11.068c10.386,2.946,19.124,10.326,24.222,19.718
				c-13.586,0.329-25.934,6.357-37.903,12.464c-6.955,3.549-13.902,7.202-21.284,9.799c-8.681,3.054-17.736,4.017-26.833,5.01
				c-29.655,3.238-56.748,15.156-78.083,36.309c-21.022,20.842-33.216,49.276-32.786,78.978
				c0.445,30.724,14.444,62.098,43.128,75.779c17.276,8.24,36.678,12.421,55.77,12.925c19.991,0.528,40.483-3.772,59.801,3.227
				c2.436,0.883,3.519-2.273,2.259-3.88c-4.749-6.057-12.019-8.564-19.29-10.212c-9.381-2.126-18.952-3.334-28.487-4.525
				c-19.822-2.477-42.876-4.537-59.825-16.179c-14.268-9.8-19.463-28.496-15.52-44.907c4.113-17.114,17.894-30.046,33.724-36.735
				c20.756-8.77,44.014-6.449,65.046,0.104c-5.989,5.281-9.023,10.177-9.519,18.478c-0.602,10.069-0.237,20.286-0.353,30.374
				c-0.059,5.106-0.106,10.212-0.179,15.317c-0.061,4.242-0.87,9.305,0.933,13.319c2.958,6.588,11.263,7.131,17.514,7.769
				c4.582,0.467,9.182,0.765,13.786,0.893c4.443,0.123,9.685,0.723,14.032-0.451c0.859-0.232,1.614-0.572,2.286-0.984
				c1.765,0.383,3.397,0.37,5.348,0.482c2.716,0.156,5.332,0.726,7.95,1.44c1.543,0.421,3.011-1.037,2.585-2.583
				c-0.199-0.722-0.411-1.278-0.086-1.911c1.492,0.464,2.977,1.059,4.526,1.394c2.3,0.498,4.665,0.605,7.016,0.71
				c4.372,0.196,8.744,0.391,13.116,0.587c1.189,0.053,2.413,0.101,3.533-0.301c0.391-0.14,0.712-0.332,0.991-0.554
				c0.337,0.217,0.728,0.35,1.123,0.338c3.613-0.108,7.256-0.087,10.861-0.273c1.534-0.079,2.424-1.613,1.711-2.982
				c-0.791-1.518-1.033-3.291-1.977-4.723c0.445-0.328,0.895-0.712,1.44-1.08c0.917-0.62,1.117-1.597,0.678-2.586
				c-1.564-3.524-3.659-7.092-7.161-8.986c-3.015-1.631-5.537-1.375-8.304-0.429c-0.558-0.827-1.197-1.587-1.913-2.236
				c-4.679-4.242-11.624-3.59-17.278-5.506c-8.846-2.998-14.167-9.577-14.169-19.044c-0.002-8.293,5.104-14.078,7.55-21.438
				c1.006-0.51,2.006-1.035,2.994-1.584c4.399,2.608,9.801,3.354,14.845,3.819c8.388,0.773,16.932,0.712,25.342,0.454
				c15.531-0.476,31.51-2.311,46.194-7.679c1.008,6.767,1.714,13.574,2.066,20.413c0.465,9.025,0.541,18.083,0.096,27.11
				c-0.214,4.349-0.557,8.688-0.995,13.021c-0.402,3.982-1.849,9.123-0.462,12.99c1.746,4.871,7.804,5.99,12.283,6.597
				c8.435,1.142,17.096,1.365,25.56,0.425c1.988-0.221,3.814-0.695,5.221-1.537c2.092,0.705,4.526,0.112,6.741,0.246
				c1.734,0.105,4.222,1.07,5.993,0.539c1.474-0.442,1.956-1.481,1.962-2.678c0.195,0.004,0.4,0.003,0.636,0.013
				c1.826,0.074,3.149,0.077,4.912,0.841c1.305,0.566,3.349-0.049,3.183-1.826c-0.055-0.592-0.113-1.189-0.177-1.786
				c3.088,0.774,6.267,0.475,9.479,0.547c3.831,0.086,7.66,0.313,11.475,0.676c2.635,0.251,6.837,1.408,9.581,0.09
				c0.85,0.172,1.807,0.107,2.768,0.03c3.343-0.268,6.424-0.161,9.77,0.16c1.209,0.116,2.33-1.364,1.902-2.497
				c-0.124-0.328-0.247-0.657-0.371-0.987c1.256-0.222,2.485-0.493,3.797-0.42c1.143,0.064,1.982-0.988,2.039-2.039
				c0.254-4.706-1.913-9.164-6.194-11.344c-3.261-1.661-8.486-3.558-12.127-1.901c-0.705-1.254-1.658-2.395-2.772-3.287
				c-3.373-2.702-7.917-3.297-11.27-5.969c-5.339-4.255-2.055-12.298-0.984-18.014c3.427-18.293,1.354-38.143-7.787-54.634
				c11.858-11.756,20.032-26.706,25.305-42.469c6.098-18.23,6.408-36.915,10.132-55.572c1.85-9.267,4.779-18.329,8.702-26.928
				c3.674-8.055,8.703-15.198,13.008-22.857c3.745,0.976,7.489,2.008,11.419,2.251c7.879,0.487,15.38,0.588,23.05,2.745
				c4.616,1.298,9.191,3.183,13.899,3.069c7.234,1.083,17.76-1.376,18.814-9.748c0.267-2.118-0.325-3.936-1.459-5.5
				c3.466-6.057,2.736-12.767-0.003-18.962c-0.526-1.19-2.29-0.977-2.876,0c-1.263,2.106-2.59,4.17-3.806,6.305
				c-0.578,1.016-1.377,2.128-1.78,3.224c-0.904,2.459-0.338,2.53-0.918-0.201c-0.665-3.132-1.787-7.679-4.217-9.937
				c-0.569-0.529-1.339-0.611-2.02-0.261c-1.393,0.716-1.742,2.19-2.447,3.533c-0.972,1.853-2.1,3.535-3.379,5.117
				c-0.806-3.433-2.404-6.868-5.346-8.544c-0.764-0.435-1.666-0.277-2.3,0.297c-2.239,2.025-3.874,5.199-5.186,8.222
				c-0.388-0.173-0.773-0.358-1.151-0.566c-0.332-0.182-0.651-0.378-0.963-0.581c0.522-3.747-0.396-7.134-1.91-10.713
				c-0.349-0.825-1.564-0.815-2.117-0.273c-1.44,1.41-2.837,2.866-4.255,4.301c-1.014-0.639-2.111-1.174-3.36-1.528
				c-0.08-0.023-0.162-0.037-0.243-0.059c0.04-0.048,0.087-0.087,0.123-0.142c0.987-1.553,1.969-3.103,3.076-4.575
				c0.879-1.168,2.055-2.291,2.664-3.64c1.228,0.008,2.456-0.013,3.68-0.083c1.611,2.419,3.148,4.831,4.386,7.495
				c0.512,1.101,2.012,1.052,2.791,0.36c2.492-2.216,4.019-4.84,4.636-7.864c2.57,2.641,3.959,6.133,5.262,9.682
				c0.516,1.405,2.799,2.13,3.566,0.466c1.644-3.566,2.8-7.156,3.504-10.882c0.284,0.686,0.543,1.387,0.771,2.11
				c0.73,2.316,0.613,4.833,1.31,7.096c0.534,1.732,0.984,2.913,3.033,2.925c2.626,0.015,4.185-2.708,5.608-4.596
				c2.393-3.173,4.425-6.594,6.116-10.184c2.788-0.76,5.354-2.267,7.293-4.44C513.358,174.772,512.567,169.444,509.308,165.167z
				 M239.739,466.927c-0.199-1.506-1.391-4.208-1.576-5.258c2.234-0.495,4.563-0.043,6.627,1.12
				c1.887,1.063,2.432,2.357,2.826,3.888C244.993,466.545,242.318,466.672,239.739,466.927z M243.375,453.155
				c2.486,1.408,3.93,3.761,4.816,6.357c-0.523,0.319-0.981,0.683-1.335,1.12c-0.602-0.308-1.216-0.587-1.817-0.823
				c-2.064-0.812-4.286-1.129-6.274-0.576c0.402-2.264,0.009-4.689-0.923-6.874C239.679,452.171,241.437,452.058,243.375,453.155z
				 M408.547,457.896c2.897,1.307,5.114,3.664,5.212,6.781c-1.245,0.037-2.424,0.317-3.431,1.021
				c-1.167-2.346-2.753-4.323-5.561-5.164c-1.383-0.415-2.895-0.718-4.355-0.729c0.28-1.132,0.249-2.329-0.017-3.508
				C403.255,456.344,405.67,456.599,408.547,457.896z M398.644,462.868c1.484-0.034,2.971,0.077,4.38,0.473
				c2.594,0.729,3.795,2.609,4.541,4.837c-1.621-0.214-3.269-0.268-4.886-0.169c-0.785,0.048-1.619,0.107-2.43,0.238
				c-0.038-1.721-0.823-3.567-1.819-5.195C398.5,462.99,398.579,462.932,398.644,462.868z M503.701,143.72
				c0.889,1.182,1.574,2.429,2.075,3.724c-0.523-0.296-1.068-0.534-1.553-0.709c-0.808-0.292-1.561-0.417-2.304-0.433
				C502.544,145.472,503.146,144.617,503.701,143.72z M501.324,147.089c0.895,0.105,1.779,0.343,2.549,0.652
				c0.985,0.396,1.714,1.089,2.508,1.695c0.358,1.514,0.503,3.076,0.424,4.671c-1.703-2.757-5.191-4.11-8.448-3.83
				C499.428,149.294,500.413,148.226,501.324,147.089z M497.111,151.299c2.018-0.33,4.058-0.128,5.908,0.949
				c1.695,0.986,2.375,2.579,3.577,3.881c-0.171,1.102-0.432,2.212-0.783,3.324c-2.59-3.125-5.922-5.532-9.64-7.383
				C496.501,151.829,496.796,151.554,497.111,151.299z M429.235,132.18c-1.449-0.947-2.957-1.649-4.597-1.798
				c-0.641-0.059-1.249-0.01-1.824,0.122c-1.931-2.176-4.062-4.145-6.315-5.976c1.377-0.653,2.693-1.429,4.343-1.633
				c2.175-0.268,4.3,0.079,6.271,0.921C427.763,126.61,428.494,129.401,429.235,132.18z M408.33,143.589
				c0.768-2.043,1.972-3.934,3.376-5.596c1.962-2.322,4.592-3.944,6.793-5.962c0.268,0.194,0.541,0.381,0.809,0.578
				c-0.902,0.928-1.647,2.044-2.228,3.161c-0.989,1.901-1.6,3.989-2.547,5.91c-1.83,3.709-4.057,4.423-6.837,4.157
				C407.89,145.086,408.054,144.323,408.33,143.589z M406.243,145.626c-0.838-0.152-1.721-0.354-2.655-0.563
				c-2.441-0.547-4.36-0.417-5.891,0.186c0.723-4.345,2.584-8.456,5.765-11.569c2.875-2.813,6.25-4.074,9.87-5.241
				c1.419,0.948,2.822,1.922,4.216,2.913c-2.924,1.618-5.67,4.362-7.548,6.756C408.533,139.98,406.56,142.919,406.243,145.626z
				 M426.764,122.308c-1.891-0.748-3.92-1.043-6.017-0.815c-1.786,0.194-4.042,0.758-5.556,1.987
				c-2.662-2.054-5.481-3.926-8.369-5.689c-0.003-0.012-0.007-0.023-0.01-0.035c3.106-1.422,6.63-2.145,10.009-1.972
				c1.898,0.097,3.783,0.472,5.57,1.121c1.307,0.475,2.445,1.235,3.656,1.851C426.261,119.939,426.503,121.124,426.764,122.308z
				 M425.721,116.94c-2.576-1.599-6.212-2.233-8.9-2.356c-3.71-0.17-7.107,0.663-10.199,2.509c-0.755-2.655-1.552-5.222-2.146-7.827
				c2.73-1.519,5.776-2.398,8.892-2.8c2.467-0.319,5.053-0.435,7.457,0.335c1.76,0.563,2.791,1.727,4.148,2.669
				C425.122,111.966,425.338,114.458,425.721,116.94z M424.861,107.316c-2.511-2.18-7.566-2.44-10.153-2.215
				c-3.693,0.322-7.428,1.158-10.436,3.222c-0.387-1.875-0.644-3.78-0.69-5.758c0.889-0.894,1.763-1.808,2.877-2.445
				c2.235-1.279,4.948-1.699,7.488-1.76c4.491-0.109,7.911,1.402,10.743,4.356C424.741,104.25,424.792,105.784,424.861,107.316z
				 M424.307,94.644c0.147,1.975,0.234,3.953,0.307,5.932c-2.503-2.415-6.469-3.539-9.756-3.646
				c-3.858-0.125-8.294,0.795-11.232,3.397c0.005-0.082,0.002-0.162,0.008-0.244c0.187-2.496,0.742-4.914,1.401-7.311
				c2.824-1.725,6.108-2.693,9.425-2.756c2.065-0.039,4.137,0.267,6.087,0.952c1.479,0.52,2.502,1.397,3.646,2.284
				C424.234,93.717,424.273,94.182,424.307,94.644z M423.954,91.041c-2.29-1.749-6.633-2.255-8.699-2.297
				c-3.528-0.071-6.861,0.863-9.814,2.578c0.82-2.828,1.704-5.644,2.264-8.531c4.595-2.666,10.917-0.964,15.172,2.223
				C423.364,86.997,423.708,89.022,423.954,91.041z M422.395,83.236c-2.331-1.832-4.859-2.698-8.305-3.04
				c-1.973-0.196-4.162-0.048-6.057,0.685c0.273-1.956,0.372-3.943,0.202-5.899c1.186-0.668,2.436-1.2,3.837-1.502
				c1.927-0.415,3.648-0.067,5.444,0.142C419.827,76.45,421.365,79.749,422.395,83.236z M402.614,63.639
				c4.75,2.064,9.449,4.502,13.086,8.027c-2.531-0.128-5.353,0.693-7.628,1.966c-0.204-1.305-0.538-2.591-1.05-3.835
				C406.027,67.38,404.301,65.522,402.614,63.639z M404.722,122.967c2.413,1.469,4.81,2.965,7.174,4.515
				c-7.876,1.25-14.047,9.365-15.158,17.056c-1.767-1.458-3.557-2.881-5.352-4.295c-0.057-1.115-0.185-2.241-0.114-3.323
				c0.177-2.685,1.113-5.351,2.646-7.561C396.476,125.668,400.423,123.469,404.722,122.967z M393.751,149.055
				c-1.376,2.68-1.913,6.239-2.288,9.624c-0.766,6.908-6.722,8.225-10.514,12.987c-0.11,0.138-0.201,0.287-0.305,0.429
				c-0.316-0.254-0.645-0.483-0.981-0.698c-0.56-4.262-0.117-8.452,1.818-12.546c2.295-4.855,6.377-9.059,11.612-10.255
				C393.313,148.744,393.533,148.893,393.751,149.055z M403.162,122.022c-3.724,0.68-7.158,2.575-9.622,5.626
				c-2.325,2.879-3.886,7.171-3.908,11.215c-2.119-1.661-4.234-3.326-6.334-5.012c0.153-3.638,0.885-7.296,2.856-10.396
				c2.122-3.339,5.1-5.163,8.687-6.336C397.624,118.738,400.403,120.362,403.162,122.022z M311.108,53.073
				c3.857,2.526,7.551,5.258,11.157,8.105c-1.119,0.506-2.161,1.497-2.832,2.334c-0.314,0.392-0.768,1.042-1.107,1.736
				C315.548,61.411,313.065,57.388,311.108,53.073z M319.155,66.363c0.292-0.68,0.637-1.312,1.1-1.902
				c0.479-0.612,1.032-1.149,1.676-1.587c0.472-0.321,1.012-0.514,1.505-0.78c1.418,1.136,2.823,2.289,4.215,3.458
				c-1.889,1.337-3.414,4.133-3.945,6.562C322.135,70.235,320.613,68.32,319.155,66.363z M327.254,76.255
				c-0.836-0.95-1.665-1.908-2.486-2.873c0.405-1.473,0.834-2.89,1.655-4.291c0.695-1.187,1.476-1.903,2.428-2.529
				c2.041,1.736,4.061,3.499,6.066,5.282c-1.198,0.843-2.198,2.048-2.908,3.23c-0.747,1.244-1.603,2.812-1.892,4.372
				C329.16,78.385,328.198,77.328,327.254,76.255z M331.089,80.532c0.11-1.693,1.165-3.531,1.981-4.836
				c0.834-1.333,1.784-2.189,2.936-2.875c1.967,1.759,3.925,3.529,5.878,5.305c-1.573,0.956-2.785,2.847-3.456,4.346
				c-0.577,1.29-1.272,2.923-1.426,4.49C335.015,84.833,333.045,82.689,331.089,80.532z M338.174,88.216
				c-0.196-1.93,0.878-4.306,1.649-5.803c0.844-1.64,1.927-2.437,3.23-3.226c2.005,1.825,4.01,3.649,6.025,5.461
				c-3.188,1.616-5.754,5.51-5.731,9.062C341.619,91.882,339.894,90.051,338.174,88.216z M344.691,95.135
				c-0.328-2.155,0.366-4.396,1.617-6.197c1.081-1.556,2.446-2.401,3.939-3.242c2.196,1.965,4.405,3.915,6.642,5.827
				c-0.648,0.177-1.292,0.382-1.833,0.773c-1.3,0.941-2.396,2.265-3.265,3.608c-0.998,1.541-1.629,3.21-1.738,4.914
				C348.271,98.92,346.481,97.027,344.691,95.135z M350.998,101.839c0.168-2.968,1.495-5.705,3.79-7.795
				c0.951-0.866,2.05-1.177,3.108-1.665c1.479,1.252,2.966,2.494,4.474,3.71c0.685,0.552,1.379,1.088,2.073,1.624
				c-1.92,0.713-3.803,2.387-4.882,3.651c-1.656,1.94-2.601,4.214-2.837,6.662C354.82,105.958,352.914,103.893,350.998,101.839z
				 M357.617,108.989c0.356-2.724,1.394-5.328,3.336-7.334c0.955-0.986,2.1-1.81,3.339-2.402c0.495-0.237,0.971-0.389,1.429-0.565
				c2.531,1.905,5.116,3.723,7.745,5.469c-2.904,1.312-5.37,3.868-6.879,6.528c-0.744,1.311-1.77,3.478-2.2,5.577
				C362.108,113.86,359.861,111.426,357.617,108.989z M373.44,125.371c-2.727-2.588-5.366-5.262-7.964-7.976
				c0.263-2.461,1.52-5.128,2.643-6.839c1.763-2.683,4.021-4.225,6.733-5.491c3.14,2.048,6.33,4.015,9.549,5.936
				c-3.204,0.918-6.144,2.47-8.319,5.222c-2.357,2.982-2.75,5.985-2.482,9.296C373.548,125.469,373.493,125.421,373.44,125.371z
				 M382.427,133.152c-2.485-2.01-4.934-4.07-7.311-6.234c-0.018-0.511-0.098-1.036-0.173-1.618
				c-0.356-2.769,0.151-5.247,1.731-7.582c2.07-3.058,5.374-4.926,8.867-6.036c2.549,1.512,5.112,3.002,7.676,4.492
				C386.222,118.224,382.29,126.045,382.427,133.152z M379.3,146.134c4.058-0.684,8.049-0.557,11.842,1.321
				c-4.501,1.381-8.399,5.846-10.439,9.657c-2.109,3.94-3.241,8.778-2.808,13.364c-1.72-0.739-3.612-1.113-5.574-1.279
				c-0.826-4.576-1.907-9.287-0.398-13.784C373.333,151.209,376.142,148.734,379.3,146.134z M359.029,231.383
				c0.634,7.761,1.663,15.866-0.837,23.421c-4.754,14.37-19.548,23.371-34.498,20.775c-7.29-1.266-13.381-5.387-18.386-10.678
				c-1.278-7.916-3.703-15.671-4.67-23.669c-1.177-9.737-1.362-19.543-0.613-29.321c1.537-20.057,7.721-37.844,15.776-55.99
				c3.329,3.895,7.224,7.244,11.792,9.963c7.174,4.269,15.312,6.818,23.58,7.799c8.803,1.045,17.713-1.408,25.86,1.744
				c-7.993,9.676-14.413,21.939-17.098,34.07C358.325,216.771,358.426,223.998,359.029,231.383z M278.426,214.853
				c-0.066-4.262,0.043-8.529,0.315-12.783c0.552-8.63,1.811-17.201,3.737-25.632c1.832-8.021,4.271-15.888,7.257-23.554
				c1.706-4.379,3.595-8.685,5.681-12.897c1.456-2.939,3.338-5.756,4.489-8.826c4.04,4.778,6.892,10.788,9.959,16.238
				c0.931,1.654,1.943,3.227,3.011,4.745c-0.013,0.02-0.028,0.034-0.041,0.055c-10.351,16.992-15.334,38.288-16.83,57.935
				c-0.788,10.351-0.465,20.808,0.905,31.097c0.74,5.556,1.565,11.534,3.142,17.193c-1.507-2.141-2.885-4.347-4.123-6.55
				c-5.345-9.508-11.307-18.498-17.344-27.513C278.948,221.235,278.475,218.006,278.426,214.853z M276.043,100.531
				c-0.101-0.326-0.238-0.632-0.356-0.949c5.971,0.906,12.283,0.706,18.271,0.971c5.112,0.226,10.245,0.73,15.362,1.033
				c-9.463,2.524-18.924,8.914-26.355,14.375c-4.635,3.407-9.033,7.129-13.129,11.17c-0.042,0.041-0.087,0.084-0.129,0.126
				C274.46,118.99,278.919,109.815,276.043,100.531z M271.437,129.923c4.276-4.275,8.887-8.217,13.784-11.764
				c4.319-3.128,8.861-5.97,13.555-8.502c4.358-2.351,9.187-4.112,13.533-6.524c-1.029,7.017-6.252,13.046-10.975,18.284
				c-0.049,0.055-0.082,0.113-0.124,0.169c-3.666-0.898-7.506-1.247-11.464-1.077c-1.807,0.078-2.11,2.522-0.42,3.102
				c3.281,1.126,5.979,2.918,8.3,5.118c-5.192,5.523-8.287,14.458-11.143,21.374c-3.372,8.164-6.04,16.621-8.036,25.223
				c-1.901,8.192-3.185,16.537-3.845,24.921c-0.335,4.251-0.503,8.515-0.503,12.778c0,1.464-0.048,3.001-0.05,4.549
				c-0.781-1.171-1.562-2.342-2.339-3.52c-7.755-11.747-16.697-23.914-18.148-38.358c-1.285-12.784,3.426-25.073,9.28-36.285
				C266.051,136.8,268.621,132.738,271.437,129.923z M311.663,144.117c-1.079-1.656-2.129-3.349-3.14-5.108
				c-0.401-0.697-0.809-1.392-1.224-2.081c0.286-1.093,0.884-2.023,1.757-2.759c1.081-0.911,2.43-1.457,3.82-1.801
				c1.441,1.219,2.818,2.54,4.121,3.957c0.304,0.331,0.605,0.667,0.907,1.001C315.029,138.592,312.673,141.147,311.663,144.117z
				 M318.87,138.392c1.775,1.978,3.536,3.967,5.392,5.831c-1.89,0.385-3.704,1.546-4.948,2.915
				c-0.994,1.093-1.898,2.706-2.228,4.341c-1.676-1.971-3.227-4.062-4.7-6.249C313.568,142.1,315.744,139.721,318.87,138.392z
				 M307.777,133.504c-0.458,0.438-1.007,1.136-1.419,1.908c-0.852-1.352-1.748-2.67-2.691-3.941
				c0.978-1.306,2.432-2.073,3.836-2.933c1.475,0.879,2.903,1.852,4.269,2.93C310.306,131.815,308.925,132.406,307.777,133.504z
				 M302.977,130.557c-1.8-2.313-3.793-4.433-6.088-6.21c3.273,0.676,6.369,1.852,9.275,3.424
				C304.909,128.448,303.775,129.403,302.977,130.557z M376.079,146.824c-2.294,2.084-4.092,4.911-5.094,7.545
				c-1.818,4.778-0.902,9.865,0.167,14.752c-2.755-0.123-5.605,0.102-8.288,0.277c-0.398-1.878-1.058-3.693-1.135-5.68
				c-0.112-2.901,0.411-5.856,1.617-8.505c0.995-2.186,2.371-4.021,4-5.606C370.242,148.61,373.169,147.573,376.079,146.824z
				 M356.597,152.765c2.679-0.6,5.318-1.363,7.872-2.192c0.193-0.063,0.389-0.132,0.583-0.196c-1.264,1.495-2.31,3.173-3.075,4.939
				c-1.65,3.804-2.605,9.997-0.687,14.176c-0.463,0.025-0.92,0.045-1.368,0.059c-2.136,0.068-4.274,0.013-6.404-0.15
				c-0.887-3.359-1.551-6.569-0.763-10.143c0.454-2.059,1.231-3.999,2.722-5.528C355.826,153.374,356.206,153.062,356.597,152.765z
				 M346.448,154.012c2.61-0.015,5.228-0.292,7.82-0.767c-3.51,4.323-4.364,11.079-1.938,16.056
				c-3.548-0.345-7.059-1.029-10.48-2.017c-0.267-1.346-0.41-3.265-0.409-3.57c0.004-1.83,0.456-3.677,1.278-5.308
				C343.602,156.654,344.925,155.22,346.448,154.012z M338.021,152.952c2.211,0.604,4.457,0.931,6.718,1.028
				c-1.656,1.414-3.011,3.132-3.832,5.354c-0.663,1.796-1.209,4.932-0.733,7.445c-2.109-0.681-4.173-1.498-6.189-2.425
				c-0.263-2.903-0.409-5.838,1.081-8.498C335.767,154.604,336.956,153.812,338.021,152.952z M336.34,152.435
				c-3.093,2.91-4.241,7.026-3.537,11.362c-1.031-0.505-2.052-1.033-3.05-1.607c-1.27-0.73-2.476-1.508-3.631-2.326
				c-0.581-4.133,1.04-7.87,4.077-10.587C332.071,150.561,334.091,151.649,336.34,152.435z M329.155,148.537
				c-3.056,2.521-4.52,6.629-4.098,10.546c-2.449-1.843-4.635-3.894-6.652-6.1c-0.017-0.531-0.012-1.062,0.106-1.603
				c0.292-1.341,0.991-2.551,1.924-3.546c1.39-1.481,2.994-2.24,4.774-2.691C326.467,146.352,327.767,147.502,329.155,148.537z
				 M143.142,13.916c14.922-0.539,29.844,1.391,44.567,3.873c17.11,2.885,34.053,6.877,50.435,12.641
				c30.566,10.754,60.358,28.082,81.025,53.494c6.345,7.802,10.626,16.464,13.926,25.927c0.953,2.734,2.358,5.536,2.097,8.456
				c-0.281,3.141-2.522,5.174-4.45,7.641c-2.669,3.415-5.271,6.863-7.862,10.329c-2.218-2.397-4.442-4.839-6.929-7.021
				c-3.122-2.74-6.542-4.791-10.182-6.226c4.87-5.514,9.706-11.58,10.785-19.041c1.091-7.543-2.073-14.52-6.83-20.214
				c-11.422-13.674-30.001-22.143-46.048-28.933c-18.084-7.651-36.906-13.469-55.591-19.441
				c-10.604-3.389-21.248-6.652-31.898-9.893c-8.692-2.645-17.457-5.65-26.321-7.863C147.668,16.332,145.434,15.075,143.142,13.916z
				 M157.685,22.792c13.051,4.611,26.51,8.433,39.53,12.792c17.367,5.815,34.889,11.266,52.032,17.723
				c16.454,6.197,32.845,13.564,47.11,23.98c6.619,4.834,13.678,11.132,15.675,19.437c0.182,0.758,0.292,1.502,0.368,2.24
				c-4.71-1.951-10.326-1.676-15.312-1.94c-7.48-0.396-15.496-1.552-22.945-0.796c-0.023,0.002-0.041,0.015-0.063,0.019
				c-5.047-8.295-15.891-13.084-23.742-17.679c-13.397-7.84-26.997-15.326-40.643-22.722c-11.716-6.351-23.363-13.204-35.72-18.272
				c-0.097-0.216-0.222-0.429-0.406-0.631C168.751,31.644,163.417,26.938,157.685,22.792z M54.286,84.812
				c-8.932-18.948-28.092-25.485-45.102-35.08c9.686-2.143,19.539-4.345,29.054-7.271c0.294,0.114,0.627,0.145,0.984,0.047
				c12.662-3.463,25.071-6.298,38.083-7.45c10.512,1.078,21.403,0.367,31.879,1.327c13.821,1.267,27.318,4.093,40.262,9.151
				c24.738,9.666,47.376,24.723,70.136,38.211c5.938,3.519,11.863,7.058,17.774,10.623c2.955,1.783,5.913,3.562,8.876,5.33
				c0.359,0.214,0.727,0.423,1.096,0.63c-14.299-2.83-29.353-3.237-43.716-2.921c-18.123,0.399-36.252,2.642-53.914,6.727
				c-33.97,7.856-66.035,22.312-94.25,42.702C60.593,126.379,63.574,104.513,54.286,84.812z M96.657,212.423
				c0.253-0.718,0.487-1.365,0.561-1.734c5.631-27.951-13.833-54.764-41.396-58.925c28.222-20.272,60.516-34.818,94.346-42.663
				c17.538-4.067,35.444-6.418,53.444-6.871c15.298-0.385,30.275,1.234,45.403,2.621c-5.456,1.7-10.757,4.237-15.856,6.519
				c-7.903,3.538-15.727,7.258-23.458,11.158c-15.344,7.74-30.309,16.272-44.595,25.833
				C138.952,165.866,115.211,186.946,96.657,212.423z M147.719,248.284c-4.341-8.679-10.884-16.112-19.027-21.646
				c-5.494-3.734-11.755-6.581-18.202-8.201c-3.104-0.78-6.299-1.279-9.493-1.49c-0.797-0.053-1.887,0.108-2.871,0.075
				c18.815-26.527,43.332-48.348,70.355-66.278c13.372-8.873,27.331-16.83,41.603-24.16c7.12-3.657,14.327-7.146,21.595-10.498
				c6.135-2.829,12.561-5.164,18.8-7.82c-11.311,7.804-21.268,18.604-30.611,28.291c-10.912,11.315-21.072,23.367-30.532,35.918
				c-9.721,12.897-18.648,26.389-26.714,40.38C156.999,222.605,148.698,235.831,147.719,248.284z M192.065,244.467
				c-13.73-3.99-28.818-0.698-40.016,7.912c0.231-3.257,0.411-6.463,1.26-9.763c1.025-3.986,2.515-7.85,4.23-11.586
				c3.162-6.886,6.992-13.485,10.845-20.003c7.76-13.128,16.282-25.812,25.52-37.946c9.321-12.242,19.388-23.886,30.029-34.995
				c9.926-10.363,21.522-19.357,31.184-29.921c1.06,5.798-4.386,13.724-6.918,18.687c-3.169,6.211-6.859,12.102-10.651,17.947
				c-6.399,9.862-15.17,20.178-18.901,31.462c-3.273,9.899,5.005,21.084,9.619,29.646c-0.852,21.838-5.658,43.255-7.082,65.026
				C215.868,258.378,205.422,248.349,192.065,244.467z M230.78,210.722c10.788,20.672,22.598,42.023,38.829,58.932
				c-14.363-3.118-30.791-0.027-44.747,4.141C225.894,252.749,231.104,231.774,230.78,210.722z M62.55,467.45
				c2.505,2.453,5.287,4.582,8.284,6.417c-1.479-0.589-2.943-1.216-4.372-1.943c-1.431-0.728-2.819-1.547-4.184-2.408
				c-0.057-0.311-0.106-0.622-0.075-0.92C62.248,468.165,62.383,467.798,62.55,467.45z M61.75,466.668
				c-0.328,0.463-0.562,1.002-0.675,1.51c-0.032,0.146-0.058,0.33-0.078,0.526c-1.906-1.281-3.734-2.684-5.453-4.209
				c0.142-0.549,0.289-1.096,0.526-1.616c0.307-0.675,0.739-1.228,1.192-1.763C58.608,463.131,60.113,464.976,61.75,466.668z
				 M55.58,458.373c0.29,0.523,0.607,1.018,0.916,1.521c-0.965,0.893-1.759,2.215-2.131,3.548c-2.141-2.03-4.09-4.255-5.785-6.661
				c-0.039-0.055-0.072-0.114-0.111-0.17c0.065-0.234,0.149-0.471,0.297-0.726c0.429-0.742,0.981-1.426,1.581-2.036
				c0.712-0.724,1.524-1.254,2.405-1.659C53.54,454.309,54.475,456.378,55.58,458.373z M50.49,425.903
				c-0.328,1.844-0.548,3.705-0.675,5.572c-2.371-0.086-4.7,0.436-7.05,1.053c-0.952,0.25-1.984,0.5-2.686,1.06
				c-0.437-3.162-0.578-6.36-0.696-9.553C43.031,424.185,47.877,423.404,50.49,425.903z M39.345,423.078
				c-0.075-1.977-0.16-3.95-0.332-5.906c0.024-0.155,0.05-0.308,0.075-0.463c2.183-0.03,4.336-0.417,6.549-0.267
				c2.383,0.161,4.69,0.701,6.974,1.362c-0.741,2.103-1.328,4.256-1.79,6.435C48.373,422.655,42.433,422.59,39.345,423.078z
				 M49.742,432.758c-0.127,2.932,0.02,5.869,0.397,8.776c-1.424-0.123-2.862,0.154-4.209,0.84c-1.139,0.58-2.408,1.544-3.117,2.732
				c-1.078-3.193-1.891-6.483-2.481-9.784c-0.02-0.112-0.03-0.224-0.049-0.336C43.019,433.45,46.524,432.809,49.742,432.758z
				 M46.092,443.846c1.318-0.805,2.753-1.06,4.215-1c0.439,2.794,1.119,5.549,2.04,8.229c-1.271,0.429-2.392,1.343-3.304,2.372
				c-0.372,0.419-0.961,1.12-1.411,1.879c-1.74-2.723-3.157-5.63-4.282-8.658C44.234,445.694,44.896,444.576,46.092,443.846z
				 M55.493,411.141c-0.938,1.783-1.762,3.623-2.477,5.503c-4.031-1.599-9.461-2.599-13.694-1.391
				c0.554-3.402,1.178-6.768,1.957-10.084c2.418,0.241,4.781,0.432,7.144,1.279c2.809,1.008,4.873,2.731,7.284,4.307
				C55.637,410.884,55.562,411.011,55.493,411.141z M56.315,409.657c-3.263-3.621-9.665-6.045-14.734-5.731
				c0.763-3.072,1.661-6.101,2.783-9.071c2.991,0.438,6.312,2.266,8.672,3.564c2.657,1.462,4.876,3.4,7.247,5.199
				C58.835,405.54,57.51,407.555,56.315,409.657z M61.169,402.467c-2.75-2.887-6.654-5.086-10.121-6.669
				c-1.041-0.475-3.895-2.006-6.11-2.401c1.174-2.904,2.559-5.753,4.236-8.533c0.215-0.356,0.452-0.681,0.674-1.028
				c2.972,1.967,6.389,3.27,9.134,5.697c2.91,2.572,4.411,5.411,5.882,8.698C63.566,399.583,62.334,400.998,61.169,402.467z
				 M66.125,396.979c-1.068-3.004-3.361-5.79-5.548-7.829c-2.649-2.469-6.336-5.222-10.023-6.392
				c2.264-3.354,4.823-6.313,7.651-8.92c3.236,1.873,6.143,4.284,8.515,7.19c1.427,1.748,2.651,3.682,3.625,5.718
				c0.748,1.561,1.098,3.392,1.742,5.018C69.989,393.378,68.005,395.127,66.125,396.979z M73.497,390.712
				c-0.343-1.398-1.019-2.794-1.569-4c-1.045-2.29-2.383-4.428-3.961-6.389c-2.461-3.058-5.461-5.492-8.887-7.276
				c3.442-3.038,7.232-5.624,11.275-7.897c2.942,2.919,5.848,5.644,8.031,9.376c1.262,2.159,2.292,4.45,3.056,6.831
				c0.386,1.201,0.568,2.565,0.849,3.873C79.232,386.84,76.288,388.676,73.497,390.712z M83.863,384.422
				c-0.271-1.213-0.702-2.413-1.04-3.445c-0.814-2.491-1.902-4.897-3.234-7.154c-1.971-3.339-4.693-6.972-8.023-9.346
				c3.889-2.105,7.99-3.949,12.225-5.654c0.034-0.014,0.068-0.027,0.101-0.04c2.538,3.282,4.877,6.577,6.438,10.55
				c1.465,3.727,1.863,7.511,2.464,11.358C89.751,381.733,86.764,382.984,83.863,384.422z M102.546,378.063
				c-2.59,0.513-5.163,1.156-7.71,1.946c-0.206,0.064-0.41,0.14-0.616,0.206c0.056-4.129-1.342-8.486-2.897-12.115
				c-1.483-3.464-3.541-7.007-6.243-9.788c3.621-1.445,7.255-2.858,10.86-4.34c2.057,3.458,3.955,6.927,5.12,10.871
				C102.341,369.178,102.758,373.593,102.546,378.063z M115.316,376.196c-0.009,0.121-0.024,0.241-0.033,0.362
				c-3.784,0.166-7.554,0.574-11.291,1.241c0.42-8.253-1.793-17.703-6.99-24.263c1.78-0.742,3.553-1.501,5.308-2.304
				c2.882-1.319,5.719-2.721,8.563-4.104c0.617,2.155,1.562,4.278,2.163,6.407c0.879,3.115,1.549,6.289,1.956,9.502
				c0.355,2.802,0.527,5.629,0.515,8.454C115.499,373.061,115.437,374.631,115.316,376.196z M116.872,376.505
				c0.539-4.79,0.007-10.003-0.674-14.582c-0.461-3.101-1.132-6.184-2.05-9.183c-0.606-1.98-1.237-4.197-2.253-6.105
				c4.183-2.021,8.395-3.972,12.803-5.513c0.037-0.013,0.074-0.023,0.111-0.036c1.243,5.762,2.659,11.338,2.937,17.315
				c0.291,6.243-0.529,12.185-1.573,18.285C123.074,376.476,119.97,376.423,116.872,376.505z M127.67,376.795
				c1.53-6.078,1.798-12.689,1.423-18.876c-0.343-5.672-1.157-11.79-3.329-17.142c4.371-1.46,8.771-2.534,13.199-3.32
				c0.721,6.5,1.576,12.781,0.976,19.422c-0.354,3.915-1.048,7.804-2.066,11.601c-0.831,3.098-2.272,6.054-3.198,9.107
				C132.346,377.25,130.009,376.986,127.67,376.795z M136.221,377.815c1.434-2.752,2.253-6.075,3.022-8.957
				c0.967-3.623,1.631-7.329,1.99-11.061c0.631-6.559,0.702-14.02-1.164-20.532c3.57-0.595,7.157-1.025,10.763-1.327
				c0.848,7.195,0.931,14.51,0.371,21.72c-0.294,3.785-0.676,7.609-1.558,11.308c-0.917,3.843-2.712,7.089-4.29,10.638
				C142.335,378.899,139.286,378.3,136.221,377.815z M146.759,379.942c4.185-5.803,5.144-13.889,5.743-20.774
				c0.681-7.82,0.565-15.59-0.651-23.315c3.151-0.245,6.315-0.407,9.492-0.522c0.669,3.523,1.612,6.975,1.935,10.591
				c0.37,4.132,0.339,8.3-0.085,12.426c-0.867,8.446-3.45,16.616-7.511,24.06C152.746,381.495,149.765,380.675,146.759,379.942z
				 M164.458,345.038c-0.347-3.18-0.771-6.625-1.801-9.752c3.28-0.106,6.572-0.171,9.879-0.233
				c-2.937,8.097-4.551,16.879-6.246,25.205c-1.639,8.049-2.955,16.553-8.053,22.992c-0.102-0.05-0.202-0.102-0.318-0.14
				c-0.274-0.09-0.553-0.171-0.828-0.26c3.987-7.474,6.51-15.621,7.392-24.059C164.96,354.223,164.957,349.604,164.458,345.038z
				 M196.49,467.536c0.756-2.135,0.663-4.629-0.232-6.969c-0.035-0.138,5.306,0.122,6.146,0.787
				c1.186,0.939,2.159,7.091,2.415,7.161C202.149,467.784,199.219,467.288,196.49,467.536z M207.902,464.675
				c-0.525-2.161-1.36-4.173-3.178-5.514c-1.16-0.856-2.391-1.314-3.655-1.509c0.474-1.245,0.251-2.766-0.33-4.242
				c3.109,0.243,6.557,0.358,8.27,3.164c1.453,2.38,1.948,5.355,2.009,8.195C209.971,464.634,208.892,464.532,207.902,464.675z
				 M203.304,438.209c3.879,4.991,9.869,7.978,15.937,9.373c3.718,0.855,8.207,0.735,11.459,2.936
				c2.741,1.854,3.358,4.643,4.068,7.466c-2.319-1.492-5.126-2.128-7.754-1.298c-0.329,0.104-0.306,0.534,0,0.646
				c3.082,1.137,6.107,2.734,7.665,5.722c0.446,0.856,1.751,3.58,1.013,4.47c-0.39,0.47-4.373-0.262-4.958-0.297
				c-5.061-0.3-10.521-1.137-15.695-0.972c0.007-4.394-0.827-9.682-3.908-12.935c-3.019-3.188-7.57-3.379-11.465-2.004
				c-0.821-1.293-1.826-2.405-2.737-3.048c-2.967-2.095-7.937-0.354-9.8-2.585c-1.78-2.131-0.167-6.603-0.237-9.081
				c-0.087-3.091-0.182-6.181-0.291-9.271c-0.171-4.859,0.23-10.232-0.939-15.02c6.515-3.509,14.045-5.616,20.779-8.435
				C199.271,413.445,195.942,428.736,203.304,438.209z M217.071,398.368c6.535-4.048,12.515-9.052,17.618-14.777
				c0.233,2.814,0.197,5.657-0.334,8.435c-0.593,3.099-2.261,5.661-3.204,8.567C226.304,400.265,221.739,399.412,217.071,398.368z
				 M233.892,400.724c-0.452-0.011-0.896-0.035-1.342-0.055c1.827-2.34,2.7-6.007,3.143-8.728c0.506-3.106,0.437-6.137-0.323-9.146
				c0.501-0.577,1.004-1.152,1.487-1.743c3.89-4.765,8.113-10.782,11.104-17.092c0.348,6.502,0.756,13.077,0.122,19.56
				c-0.313,3.194-0.91,6.376-1.873,9.439c-0.871,2.769-2.423,5.22-3.478,7.873C239.784,400.83,236.837,400.793,233.892,400.724z
				 M252.449,400.688c-2.693,0.086-5.388,0.125-8.082,0.137c1.299-1.844,2.126-4.164,2.84-6.206c1.055-3.017,1.73-6.154,2.134-9.322
				c0.976-7.647,0.27-15.262-0.672-22.862c0.027-0.061,0.058-0.122,0.085-0.183c0.079-0.065,0.15-0.133,0.228-0.198
				c3.189,1.291,6.606,2.025,10.142,2.355c0.379,6.469,0.83,12.875-0.206,19.341c-0.48,2.995-1.216,5.965-2.264,8.813
				c-0.659,1.791-1.433,3.536-2.339,5.216C254.056,398.259,253.032,399.594,252.449,400.688z M255.923,400.567
				c-0.465,0.021-0.931,0.03-1.396,0.049c0.561-1.021,1.001-2.061,1.238-2.516c1.779-3.418,3.056-7.091,3.893-10.849
				c1.636-7.352,1.825-15.286,0.584-22.766c3.085,0.214,6.247,0.152,9.425-0.128c1.563,5.734,2.543,11.595,2.41,17.56
				c-0.07,3.151-0.415,6.293-1.04,9.382c-0.56,2.769-1.515,5.427-2.167,8.162C264.599,399.994,260.288,400.366,255.923,400.567z
				 M270.27,399.263c2.426-5.052,3.05-11.473,3.179-16.886c0.146-6.155-0.701-12.328-2.806-18.113
				c3.762-0.378,7.529-1.016,11.188-1.771c0.933,6.079,1.578,12.276,1.558,18.414c-0.019,5.862-1.091,11.171-2.651,16.631
				C277.274,398.237,273.783,398.795,270.27,399.263z M293.203,394.495c-3.512,1.018-7.043,1.891-10.594,2.653
				c1.662-5.026,2.108-10.665,2.117-15.774c0.012-6.447-0.922-12.749-1.986-19.072c2.024-0.43,4.016-0.886,5.946-1.349
				c1.198,5.611,3.023,11.07,3.997,16.745C293.668,383.432,293.616,388.822,293.203,394.495z M294.788,394.031
				c0.732-5.002,0.209-10.338-0.552-15.226c-0.943-6.048-2.339-12.329-4.456-18.117c1.137-0.276,2.261-0.553,3.351-0.822
				c0.066,0.889,0.153,1.785,0.276,2.694c1.164,8.57,3.676,16.925,5.283,25.417c0.287,1.517,0.554,3.038,0.811,4.56
				C297.932,393.065,296.361,393.556,294.788,394.031z M343.131,461.387c-0.346,0.366-0.509,0.752-0.546,1.122
				c-2.934-2.808-6.984-4.606-10.794-5.154c-1.458-0.21-2.135,1.859-0.627,2.274c4.267,1.174,10.141,4.217,11.277,9.005
				c1.258,5.297-6.04,4.906-9.48,5.225c-7.434,0.69-16.782,1.295-23.886-1.422c-5.789-2.214-3.669-8.267-3.097-13.031
				c0.479-3.987,0.792-8.001,1.037-12.009c0.531-8.684,0.646-17.419,0.138-26.107c-0.949-16.232-3.414-32.3-7.289-48.084
				c-2.161-8.801-4.552-18.216-2.363-27.255c1.909-7.886,7.071-15.251,12.509-21.138c0.618-0.669-0.336-1.628-1.001-1.001
				c-4.423,4.172-8.117,8.685-10.843,13.586c0.426-1.902,0.876-3.81,1.835-5.551c2.174-3.947,4.958-7.447,7.947-10.79
				c0.304-0.34-0.091-0.94-0.511-0.663c-7.565,4.977-15.325,13.689-12.927,23.549c0.071,0.294,0.291,0.448,0.536,0.482
				c-1.241,3.704-1.949,7.613-2.013,11.754c-7.801,1.769-15.586,3.705-23.556,4.569c-6.353,0.689-12.364,0.081-18.582-0.495
				c8.355-8.772,7.945-21.853,5.716-33.626c-0.08-0.42-0.81-0.33-0.756,0.102c0.926,7.419,0.172,14.817-2.142,21.729
				c1.344-7.593,0.008-15.582-2.808-23.162c-0.16-0.431-0.794-0.267-0.694,0.191c2.077,9.565,0.804,19.302-1.258,28.791
				c-2.888,5.106-5.177,10.506-8.707,15.341c-4.41,6.038-9.286,11.746-14.801,16.806c-10.756,9.867-22.956,15.429-36.146,21.192
				c-1.681,0.734-3.284,1.534-4.816,2.392c-0.393-0.074-0.816,0.102-0.976,0.562c-8.888,5.25-14.955,12.806-16.418,23.983
				c-0.566,4.328-0.749,11.736,3.948,13.894c5.938,2.727,13.95,1.894,20.689,1.257c0.456,0.149,0.901,0.312,1.306,0.517
				c2.401,1.212,3.814,3.238,4.158,5.943c0.085,0.669,0.099,1.138,0.202,1.571c-0.773,0.133-1.546,0.319-2.309,0.544
				c-4.3-6.603-12.646-5.317-19.445-4.021c-1.058,0.202-0.817,1.923,0.254,1.878c4.793-0.203,12.788-0.368,15.766,4.134
				c0.883,1.336,1.545,3.521,1.015,5.13c-1.099,3.339-5.077,2.856-7.824,2.903c-9.115,0.158-19.007,0.172-27.937-1.775
				c-3.06-0.667-6.159-1.598-7.333-5.019c-0.847-2.47-0.336-5.91-0.319-8.48c0.031-4.766,0.089-9.531,0.141-14.296
				c0.105-9.796,0.097-19.602,0.372-29.395c0.127-4.52,0.247-9.508,2.691-13.483c2.092-3.404,5.737-5.323,8.427-8.167
				c5.195-5.493,7.103-13.07,8.511-20.284c3.627-18.587,4.77-38.473,20.174-51.715c1.308-1.124-0.453-3.463-1.865-2.418
				c-4.353,3.223-7.69,7.126-10.327,11.457c0.044-0.218,0.081-0.439,0.13-0.654c0.992-4.403,3.639-7.751,5.97-11.544
				c0.296-0.481-0.384-1.004-0.78-0.602c-3.312,3.364-6.115,6.187-7.501,10.797c-0.864,2.874-1.998,6.362-2.287,9.706
				c-16.258-2.577-33.746-0.476-49.349,4.57c-7.589,2.454-14.571,6.141-21.787,9.479c-7.536,3.486-15.402,6.174-23.01,9.492
				c-13.252,5.778-24.339,14.161-31.894,26.635c-6.263,10.342-10.41,23.069-10.442,35.358c-0.544,6.622,0.092,13.879,0.908,20.019
				c1.112,8.362,4.045,16.185,9.267,22.866c9.113,11.66,25.35,20.382,40.444,20.113c5.855,1.815,11.887,3.096,17.677,4.122
				c12.796,2.269,25.759,3.47,38.599,5.453c7.175,1.108,16.038,1.976,23.283,5.172c-11.275-1.885-22.872-1.195-34.353-0.688
				c-17.182,0.759-34.06-0.462-50.634-5.311c-16.234-4.749-32.021-12.101-42.241-26.081c-8.961-12.258-14.26-27.309-16.039-42.327
				c-3.493-29.486,5.672-59.884,25.614-81.977c19.619-21.736,47.394-34.255,76.211-37.767c8.578-1.045,17.244-1.599,25.632-3.807
				c7.449-1.961,14.494-5.209,21.341-8.688c14.275-7.251,28.425-16.038,44.882-16.242c0.691,1.71,1.271,3.465,1.718,5.262
				c0.305,1.229,1.695,1.985,2.897,1.645c0.059-0.016,0.118-0.033,0.177-0.05c0.925,0.507,2.247,0.304,2.718-0.759
				c21.628-5.987,47.082-11.26,64.307,6.633c0.092,0.21,0.193,0.416,0.297,0.622c-0.561,4.398,0.069,8.807,4.094,11.701
				c4.468,3.213,12.785,4.464,17.586,1.575c0.574-0.345,0.183-1.165-0.44-1.044c-4.296,0.839-10.487,0.206-14.396-1.869
				c-2.849-1.513-4.269-4.336-4.804-7.404c5.071,5.648,14.781,7.859,20.253,2.403c0.398-0.397-0.007-1.074-0.544-0.934
				c-4.205,1.101-12.001-0.255-15.21-3.114c-0.893-0.795-1.615-1.714-2.326-2.621c-0.062-0.324-0.193-0.647-0.431-0.951
				c-4.469-5.723-9.919-9.561-15.934-11.999c-16.42-20.123-30.005-41.477-41.951-64.556c-2.828-5.464-5.586-10.963-8.358-16.455
				c-1.602-3.174-3.697-6.619-3.661-10.303c0.043-4.396,3.2-8.895,5.312-12.59c6.596-11.545,13.808-22.731,20.76-34.061
				c4.588-7.477,15.372-21.13,10.281-30.415c-2.183-3.982-6.814-6.058-10.549-8.256c-6.543-3.85-13.128-7.631-19.664-11.494
				c-23.713-14.014-47.057-29.896-72.463-40.72c-8.313-3.542-16.853-6.206-25.597-8.096c11.268,0.45,22.545,1.407,33.361,4.764
				c13.777,4.275,26.388,11.927,39.017,18.739c12.474,6.728,24.919,13.513,37.219,20.554c6.305,3.609,12.631,7.221,18.797,11.064
				c6.071,3.784,12.047,8.338,12.311,16.151c0.228,6.751-3.096,13.096-6.157,18.901c-3.167,6.006-6.504,11.94-9.386,18.089
				c-5.041,10.755-9.081,22.581-7.679,34.62c1.657,14.244,10.255,26.39,18.148,37.903c7.368,10.748,14.733,21.43,22.119,32.085
				c8.281,11.947,14.036,25.901,28.857,31.012c13.499,4.655,28.727,0.605,38.004-10.253c11.171-13.076,8.155-28.15,7.483-43.972
				c-0.698-16.452,6.371-29.428,13.992-42.879c-0.073,0.702-0.122,1.405-0.139,2.103c-0.214,8.329,2.443,18.481,8.714,24.297
				c2.813,2.609,6.068,3.879,9.818,4.469c0.197,0.031,0.395,0.054,0.593,0.08c-3.003,2.273-5.444,5.772-7.479,8.601
				c-3.614,5.025-6.519,10.505-8.863,16.225c-4.788,11.686-7.366,24.257-7.773,36.867c-0.484,14.989-1.024,28.61-8.578,41.985
				c-6.636,11.75-16.4,21.126-27.847,28.12c-0.336-2.05-0.672-4.099-0.997-6.148c-0.128-0.806-1.538-0.626-1.439,0.195
				c0.319,2.651,0.576,5.33,0.784,8.023c0,0.076,0.011,0.152,0.019,0.228c0.636,8.375,0.769,16.893,0.602,25.19
				c-0.238,11.843-4.742,23.032-5.587,34.857c-0.722,10.107-0.539,21.178,0.917,31.22c0.553,3.817,1.67,7.705,4.385,10.58
				C337.051,451.545,348,456.236,343.131,461.387z M182.765,429.389c0.039,5.245-0.674,11.351,0.24,16.604
				c-0.295-0.056-0.594-0.114-0.888-0.169c-3.191-0.599-8.082-0.643-9.964-3.462c-1.613-2.417-1.257-8.084-0.966-10.956
				c0.412-4.064,2.045-8.123,4.63-11.296c1.996-2.45,4.361-4.431,6.954-6.108C182.086,419.013,182.728,424.478,182.765,429.389z
				 M344.741,365.85c-2.039-5.711-4.039-12.582-8.283-17.207c0.178-0.044,0.359-0.105,0.543-0.212
				c2.295-1.328,4.513-2.766,6.651-4.302c3.621,4.82,7.125,9.723,9.805,15.15c3.342,6.769,4.95,13.782,4.976,21.276
				c-0.043,0.028-0.085,0.058-0.128,0.086c-3.243,2.085-6.577,3.717-9.987,5.143C348.858,378.996,347.022,372.237,344.741,365.85z
				 M336.59,350.568c3.04,4.829,4.974,10.225,6.866,15.636c2.3,6.577,3.96,13.281,3.318,20.21
				c-3.377,1.343-6.827,2.518-10.351,3.725c1.169-4.971,2.255-9.845,2.327-15.031C338.864,366.853,337.849,358.694,336.59,350.568z
				 M344.463,343.529c3.118-2.302,6.06-4.811,8.791-7.517c3.689,5.553,7.378,11.144,10.192,17.197
				c2.989,6.428,4.45,12.914,4.892,19.803c-2.655,2.353-5.46,4.534-8.394,6.528C360.4,366.243,352.881,353.516,344.463,343.529z
				 M340.38,448.081c-6.041-4.342-6.613-10.415-6.912-17.368c-0.271-6.305-0.328-12.609-0.034-18.915
				c0.285-6.11,0.859-12.131,2.171-18.104c3.781-0.36,7.553-1.266,11.25-2.572c-0.221,10.582,0.852,21.315,1.648,31.834
				c0.421,5.571,0.866,11.141,1.372,16.705c0.47,5.166,0.184,11.253,2.184,16.064c0.019,0.046,0.055,0.082,0.078,0.126
				c-1.458,0.046-2.911,0.253-4.302,0.6C346.467,453.091,342.936,449.918,340.38,448.081z M354.504,472.588
				c-1.021-0.434-2.731-0.415-3.809-0.491c-1.276-0.09-2.702-0.209-4.062-0.083c0.134-0.911,0.084-1.952-0.211-3.157
				c-0.272-1.11-0.707-2.144-1.257-3.111c1.649-0.159,3.236-0.327,5.038,0.599c2.22,1.141,3.871,3.358,4.581,5.726
				c0.058,0.163,0.096,0.331,0.14,0.498C354.801,472.568,354.661,472.573,354.504,472.588z M358.724,469.534
				c-0.393,0.042-0.814,0.168-1.185,0.374c-0.014-0.033-0.03-0.068-0.043-0.1c-1.341-3.027-3.736-5.61-6.877-6.785
				c-0.923-0.345-2.073-0.599-3.25-0.683c0.945-1.328,1.179-2.74,0.955-4.154c3.624,0.392,7.384,0.409,10.503,2.495
				c3.03,2.027,4.056,5.608,4.293,9.131C361.713,469.455,360.245,469.371,358.724,469.534z M380.673,395.886
				c1.917,10.264,1.218,19.955-0.891,30.124c-1.237,5.963-4.26,14.149,0.258,19.463c3.961,4.66,19.106,6.729,15.997,14.414
				c-0.031-0.034-0.066-0.077-0.097-0.11c-3.313-3.502-7.642-5.199-12.396-4.353c-1.768,0.315-1.331,3.125,0.418,3.097
				c3.673-0.059,17.198,8.293,9.377,11.015c-1.229,0.428-3.38-0.895-4.592-1.143c-2.353-0.482-4.898-0.489-7.29-0.656
				c-1.18-0.082-14.792-0.418-14.558,1.104c-0.596-3.875-1.786-7.585-5.081-10.153c-1.976-1.54-4.345-2.393-6.814-2.707
				c0.031-0.086,0.077-0.155,0.096-0.256c0.997-5.163-0.39-10.855-0.876-16.064c-0.552-5.915-1.099-11.83-1.597-17.75
				c-0.893-10.61-1.297-21.384-2.804-31.934c9.082-3.767,17.558-9.823,24.395-16.142
				C376.473,381.163,379.254,388.288,380.673,395.886z M378.596,362.298c-0.678,0.833-1.369,1.657-2.078,2.468
				c-2.073,2.374-4.269,4.643-6.577,6.791c-0.246-13.163-8.254-26.034-15.908-36.357c2.554-2.604,4.935-5.362,7.092-8.281
				c4.63,4.316,9.009,9.099,12.268,14.509C377.31,347.932,378.914,354.819,378.596,362.298z M380.255,360.193
				c0.789-13.522-8.813-25.495-18.538-34.071c1.477-2.054,2.851-4.177,4.114-6.364c5.82,2.197,11.053,5.345,15.734,9.557
				c2.483,2.234,4.721,4.762,6.362,7.685c1.328,2.363,1.869,4.709,2.365,7.179C387.437,349.801,384.106,355.174,380.255,360.193z
				 M391.543,341.583c-1.281-5.022-5.206-9.802-8.669-12.95c-4.526-4.114-10.312-8.485-16.514-9.827
				c1.385-2.48,2.641-5.032,3.733-7.659c4.869,1.763,9.619,3.315,14.043,6.257c2.483,1.651,4.791,3.552,6.889,5.67
				c2.017,2.037,4.462,4.4,5.22,7.251C394.87,334.159,393.291,337.913,391.543,341.583z M400.207,317.242
				c-0.912,3.643-1.974,7.253-3.178,10.813c-0.681-1.195-1.672-2.298-2.469-3.248c-2.261-2.697-4.851-5.099-7.674-7.197
				c-4.583-3.406-10.471-6.702-16.343-7.566c1.072-2.7,2.002-5.462,2.742-8.29c3.066,2.896,6.877,4.774,10.874,6.325
				c3.072,1.192,6.215,2.202,9.232,3.533c2.618,1.155,4.781,2.764,7.13,4.255C400.415,316.325,400.322,316.785,400.207,317.242z
				 M400.893,314.256c-3.354-3.129-8.659-4.708-12.735-6.17c-5.197-1.863-10.473-3.805-14.578-7.518
				c0.813-3.341,1.396-6.758,1.714-10.239c8.125,5.608,18.29,8.657,28.047,9.788C402.693,304.857,401.928,309.578,400.893,314.256z
				 M403.542,298.657c-4.905-1.027-9.818-1.782-14.632-3.291c-4.769-1.496-9.368-3.558-13.516-6.348
				c0.021-0.294,0.05-0.586,0.068-0.881c0.178-2.987,0.366-5.956,0.574-8.917c4.205,3.007,8.741,5.319,13.811,6.752
				c4.154,1.174,10.593,2.779,15.157,1.126C404.508,290.948,404.052,294.807,403.542,298.657z M405.222,285.422
				c-2.342,0.501-4.569,0.84-7.084,0.638c-2.965-0.238-5.908-0.814-8.76-1.656c-4.656-1.376-9.232-3.544-13.26-6.342
				c0.338-4.626,0.751-9.226,1.377-13.796c3.331,3.166,8.069,5.542,11.87,7.128c5.078,2.119,11.826,4.092,17.503,3.343
				C406.219,278.281,405.697,281.847,405.222,285.422z M409.206,264.406c-0.829,2.977-1.504,5.98-2.085,9
				c-2.834-0.297-5.676-0.178-8.519-0.679c-2.902-0.512-5.766-1.324-8.5-2.425c-2.819-1.134-5.516-2.556-8.043-4.243
				c-1.526-1.019-2.901-2.248-4.316-3.413c0.627-4.232,1.425-8.443,2.523-12.631c3.776,3.589,8.661,6.221,13.356,8.214
				c5.024,2.132,10.627,3.774,16.16,4.178C409.587,263.076,409.39,263.746,409.206,264.406z M410.241,260.877
				c-5.571-0.71-10.891-1.758-16.154-3.986c-4.944-2.093-9.146-5.081-13.504-8.06c0.292-1.058,0.596-2.116,0.926-3.171
				c0.988-3.152,2.137-6.256,3.445-9.293c3.05,4.397,7.465,8.021,11.942,10.763c4.632,2.836,10.355,5.408,15.914,6.052
				C411.865,255.766,411.013,258.341,410.241,260.877z M413.363,251.69c-5.56-1.322-10.733-2.696-15.77-5.753
				c-4.783-2.903-8.475-6.689-12.101-10.789c1.297-2.897,2.736-5.73,4.338-8.469c0.34-0.582,0.716-1.157,1.104-1.731
				c2.569,4.661,7.026,8.606,11.229,11.588c2.658,1.886,5.509,3.48,8.509,4.754c1.907,0.81,4.031,1.747,6.166,2.134
				C415.568,246.146,414.415,248.916,413.363,251.69z M417.496,242.073c-1.812-0.653-3.737-1.075-5.516-1.792
				c-2.958-1.192-5.788-2.727-8.428-4.514c-4.848-3.279-8.216-7.493-11.956-11.779c1.867-2.606,4.062-5.16,5.841-7.835
				c3.512,4.308,7.785,7.841,12.752,10.434c2.716,1.418,5.584,2.551,8.541,3.353c1.562,0.424,3.299,0.88,5.031,1.117
				C421.42,234.517,419.351,238.241,417.496,242.073z M424.8,229.543c-1.899-0.286-3.832-0.455-5.699-0.949
				c-2.983-0.789-5.873-1.91-8.608-3.338c-4.757-2.483-9.007-5.883-12.532-9.922c0.479-0.769,0.933-1.545,1.315-2.34
				c1.341,0.117,2.676,0.272,3.959,0.654c3.34,0.994,5.014,3.411,7.639,5.402c4.237,3.213,8.369,2.552,13.378,2.944
				c2.014,0.157,3.986,0.522,5.943,0.97C428.266,224.992,426.472,227.202,424.8,229.543z M497.813,202.931
				c0.821,3.643,0.112,7.256-1.435,10.838c-1.091-0.769-2.314-1.448-3.597-2.046C494.845,209.687,496.543,205.923,497.813,202.931z
				 M482.543,205.739c0.498-0.745,1.391-3.359,2.144-4.911c1.659,2.516,1.204,5.813,1.892,8.639
				c-1.979-0.563-3.821-0.971-5.253-1.255c-0.194-0.038-0.39-0.07-0.585-0.104C481.379,207.351,481.988,206.568,482.543,205.739z
				 M471.811,201.089c1.517,1.557,2.303,4.056,2.688,6.311c-2.12-0.19-4.233-0.414-6.266-0.914
				C469.374,204.62,470.471,202.655,471.811,201.089z M459.687,196.559c0.72,1.611,0.986,3.411,0.886,5.183
				c-0.012,0.208-0.042,0.422-0.082,0.638c-1.245-1.068-2.422-2.203-3.674-3.238C457.837,198.353,458.804,197.501,459.687,196.559z
				 M452.018,189.585c-0.589,0.796-1.158,1.61-1.699,2.441c-0.639-1.678-1.335-3.332-2.159-4.924
				c1.415,0.144,2.837,0.277,4.269,0.377c0.373,0.026,0.746,0.043,1.119,0.064C452.991,188.205,452.497,188.938,452.018,189.585z
				 M448.701,195.528c-2.391-0.363-4.814-0.532-7.047-1.608c-2.436-1.174-4.489-3.035-6.918-4.241
				c-2.775-1.378-5.704-2.194-8.697-2.73c6.67-1.593,13.466-0.762,20.464-0.019C446.959,189.862,447.839,192.69,448.701,195.528z
				 M466.928,191.091c-0.807-1.386-1.7-2.666-2.742-3.855c0.768-0.103,1.534-0.219,2.296-0.365c0.816-0.157,1.627-0.377,2.435-0.63
				C468.649,188.035,467.992,189.639,466.928,191.091z M479.499,191.538c-1.316-2.752-2.905-5.287-5.163-7.341
				c2.325-0.925,4.664-1.774,7.068-2.054C481.109,185.378,480.479,188.486,479.499,191.538z M494.86,187.845
				c-0.776,1.255-1.599,2.48-2.467,3.674c-0.458,0.652-0.938,1.287-1.44,1.905c-1.109,1.498-1.22,1.59-0.333,0.278
				c-1.21-4.022-2.031-7.574-3.653-11.176c3.234,0.705,6.335,1.948,9.679,2.17C496.082,185.76,495.497,186.814,494.86,187.845z
				 M504.327,178.564c-0.019,0.012-0.038,0.024-0.057,0.036c-4.126,2.571-10.641,0.929-14.841-0.195
				c-3.425-0.916-6.615-1.493-10.117-0.682c-4.29,0.993-8.108,3.432-12.337,4.632c-15.972,4.532-33.354-1.618-49.301,3.747
				c-1.625,0.547-1.98,3.303,0,3.663c4.93,0.895,10.229,1.583,14.754,3.861c3.078,1.549,5.605,4.01,8.861,5.23
				c4.688,1.757,9.086,0.946,13.106,4.455c2.667,2.329,4.76,4.917,8.014,6.48c7.261,3.486,16.102,1.902,23.754,4.154
				c4,1.177,13.939,4.377,8.406,10.257c-6.202,6.59-17.824,3.304-25.492,1.158c-4.651-1.302-9.208-2.094-14.03-2.406
				c-5.794-0.375-11.622-0.468-17.259-2.038c-4.521-1.259-8.793-3.447-13.538-3.807c-2.409-0.183-5.027,0.35-7.394-0.229
				c-2.549-0.623-4.218-2.604-6.141-4.213c-2.526-2.114-5.159-3.303-8.427-3.798c-4.663-0.706-9.249-0.392-13.068-3.613
				c-3.715-3.132-5.711-8.004-6.685-12.671c-0.895-4.288-0.992-9.348,0.354-13.542c1.724-5.367,6.101-7.188,9.679-10.973
				c2.287-2.42,3.17-5.243,3.569-8.486c0.291-2.365,0.019-5.606,1.562-7.61c2.295-2.979,5.803-1.188,8.942-0.611
				c7.729,1.418,10.182-5.533,12.859-11.233c3.627-7.722,8.743-0.987,13.165,1.673c3.794,2.282,7.844,3.177,12.202,3.677
				c11.227,1.286,22.034,5.057,33.228,6.846c10.299,1.646,21.162,4.074,27.553,12.796
				C508.082,169.539,509.397,175.341,504.327,178.564z"/>
			<path d="M496.199,167.57c-1.407-0.117-2.851,0.746-3.271,2.121c-0.434,1.419,0.365,3.022,1.691,3.631
				c0.201,0.092,0.407,0.152,0.614,0.194c0.592,0.304,1.231,0.453,1.811,0.311c1.437-0.35,2.173-2.039,2.026-3.391
				C498.9,168.892,497.766,167.7,496.199,167.57z"/>
			<path d="M501.338,163.211c-1.135-0.82-2.611-0.735-3.921-0.5c-1.736,0.311-4.017,0.532-5.401,1.675
				c-0.29,0.239-0.101,0.69,0.208,0.789c2.354,0.752,5.946-1.719,7.82,0.051c2.069,1.955,0.455,5.877,1.747,8.232
				c0.26,0.473,0.931,0.428,1.201,0c0.988-1.564,0.507-3.835,0.238-5.584C502.982,166.263,502.767,164.244,501.338,163.211z"/>
		</g>
	</g>
</g>
<g>
</g>
<g>
</g>
<g>
</g>
<g>
</g>
<g>
</g>
<g>
</g>
<g>
</g>
<g>
</g>
<g>
</g>
<g>
</g>
<g>
</g>
<g>
</g>
<g>
</g>
<g>
</g>
<g>
</g>
</svg>
