<svg height="512pt" viewBox="-86 0 512 512.00139" width="512pt" xmlns="http://www.w3.org/2000/svg"><path d="m336.808594 409.441406c-4.75-24.457031-14.890625-44.851562-29.328125-58.980468-11.316407-11.074219-25.367188-18.578126-38.953125-25.835938l-.691406-.371094c-12.488282-6.671875-26.644532-14.234375-37.328126-25.300781-11.132812-11.527344-16.710937-25.972656-14.921874-38.640625.101562-.726562-.011719-1.433594-.269532-2.070312 4.253906-3.558594 8.136719-7.542969 11.546875-11.890626 4.019531 7.039063 12.09375 12.242188 21.664063 13.675782 1.777344.265625 3.523437.398437 5.222656.398437 5.550781 0 10.605469-1.402343 14.574219-4.097656 6.617187-4.492187 10.457031-12.847656 9.78125-21.28125-.5625-7.023437-4.066407-13.785156-9.6875-18.824219 2.417969-3.402344 4.136719-7.179687 5.023437-11.140625.0625-.011719.128906-.023437.195313-.035156 13.847656-2.765625 25.003906-9.960937 30.613281-19.734375 6.851562-11.9375 3.886719-25.542969-3.378906-32.972656 7.285156-10.066406 8.875-24.042969 3.6875-35.410156-4.726563-10.351563-14.773438-17.878907-25.882813-19.960938 7.28125-11.628906 11.363281-26.488281 4.09375-38.757812-4.292969-7.25-12.441406-12.664063-22.359375-14.863282-5.203125-1.152344-10.417968-1.425781-15.566406-1.363281 2.589844-5.332031 2.839844-12 .046875-17.679687-3.953125-8.039063-12.953125-13.296876-22.929687-13.390626-5.960938-.035156-12.199219 1.648438-18.277344 4.980469-.832032-3.246093-2.445313-6.226562-4.769532-8.738281-4.289062-4.640625-10.582031-7.265625-17.320312-7.15234375-8.257812.11718775-17.050781 7.25781275-23.585938 12.67187475-8.113281-6.164062-16.441406-8.824219-24.808593-7.910156-1.300781.144531-2.636719.371094-3.964844.679687-8.730469 2.003907-16.308594 6.925782-20.277344 13.160157-.847656 1.335937-2.769531 5.777343-3.851562 8.4375-.683594 1.683593-1.214844 3.058593-1.617188 4.195312-8.640625-1.746093-17.902343.222657-25.042969 5.507813-8.363281 6.1875-13.226562 16.492187-12.691406 26.882812.03125.617188.082032 1.238282.132813 1.863282.144531 1.773437.28125 3.453124-.140625 4.652343-.839844 2.398438-4.109375 3.808594-7.570313 5.300781-1.097656.472657-2.234375.964844-3.332031 1.503907-8.550781 4.210937-14.964844 12.640625-16.738281 22.003906-1.4375 7.570313.175781 15.6875 4.234375 22.238281-7.4375 4.058594-13.105469 11.117188-15.316406 19.378906-2.679688 10.023438-.054688 21.066407 6.851562 28.8125 1.359375 1.527344 2.839844 2.890626 4.269531 4.210938 2.796875 2.582031 5.433594 5.019531 6.382813 7.964844.476562 1.488281.566406 3.265625.664062 5.148437.078125 1.488281.152344 3.03125.421875 4.628907.996094 5.964843 4.726563 11.265624 9.71875 14.644531-.019531.203125-.039062.402343-.03125.609375.246094 4.433594 1.679688 8.757812 3.988281 12.558594-1.960937 1.730468-3.671874 3.617187-5.117187 5.671874-6.777344 9.636719-6.484375 22.660157.679687 30.292969 3.917969 4.171875 9.585938 6.289063 15.351563 6.289063 5.125 0 10.328125-1.671875 14.453125-5.066406 7.210938-5.945313 10.519531-16.398438 8.511719-26.152344.605469-.246094 1.199219-.507813 1.785156-.796875 4.871094 11.554687 12.808594 21.742187 22.589844 29.695312-.003907.621094.117187 1.25.417969 1.839844 4.371093 8.636719 2.851562 20.441406-3.871094 30.070313-6.953125 9.957031-17.886719 16.441406-26.632813 20.976562-3.277343 1.703125-6.691406 3.351562-9.992187 4.945312-7.496094 3.617188-15.246094 7.359376-22.382813 12.148438-22.199219 14.894531-38.957031 40.652344-47.1875 72.519531-7.289062 28.238281-7.59375 57.566407-7.8867185 85.933594-.03125 3.332031-.0859375 8.367187 2.8124995 12.339844 4.175782 5.726562 11.898438 6.121093 16.050782 6.335937 60.59375 3.113282 120.414062 5.808594 180.140625 5.808594 37.855469 0 75.679687-1.082031 113.613281-3.832031 5.214844-.375 12.363281-.894531 17.964844-5.011719 8.589844-6.3125 9.875-17.511719 9.984375-28.671875.207031-21.371094.421875-43.46875-3.765625-65.042969zm-97.1875-32.546875c.589844 1.53125 2.042968 2.554688 3.683594 2.585938 1.726562.035156 3.617187 1.144531 4.925781 2.902343 1.285156 1.71875 2.136719 4.035157 2.605469 7.078126 1.457031 9.449218-1.726563 18.601562-4.65625 24.617187-3.003907 6.160156-6.980469 11.847656-11.109376 17.316406-2.511718-35.871093.710938-72.226562 9.6875-106.789062 4.6875 6.3125 7.335938 14.234375 7.242188 22.0625-.113281 9.605469-4.367188 19.265625-11.375 25.839843-1.195312 1.121094-1.589844 2.855469-1.003906 4.386719zm-9.335938-26-60.863281 49.546875c-.417969.339844-1.394531 1.132813-1.75 1.183594-.273437.027344-1.007813-.292969-2.191406-.96875-23.058594-13.203125-44.738281-28.9375-64.441407-46.761719-.050781-.050781-.117187-.082031-.171874-.128906-2.019532-9.101563-4.320313-18.132813-6.902344-27.070313 18.8125 17.90625 39.136718 34.371094 60.535156 49.03125 2.457031 1.683594 6.171875 4.226563 10.644531 4.285157h.164063c4.234375 0 7.714844-2.128907 10.917968-4.3125 21.652344-14.777344 41.835938-31.785157 60.085938-50.613281-2.101562 8.363281-3.882812 16.824218-5.332031 25.351562-.242188.125-.472657.277344-.695313.457031zm-140.320312 23.597657c-.320313-1.320313-1.285156-2.390626-2.5625-2.84375-8.496094-3.035157-14.132813-13.234376-13.113282-23.722657.878907-9.0625 5.796876-16.746093 10.921876-22.457031 10.71875 35.964844 16.78125 73.554688 18.0625 111.234375-2.410157-3.296875-5.089844-6.378906-7.730469-9.410156-5.117188-5.878907-9.953125-11.429688-12.53125-18.070313-3.980469-10.242187-1.523438-23 5.980469-31.027344.925781-.992187 1.292968-2.382812.972656-3.703124zm21.609375-57.414063c2.726562 1.769531 5.953125 2.605469 9.132812 2.449219.675781 3.320312 2.5625 6.394531 5.367188 8.390625 2.988281 2.128906 6.789062 2.878906 10.34375 2.230469 1.625 3.5625 4.714843 6.425781 8.542969 7.617187 3.640624 1.132813 7.59375.644531 10.859374-1.144531 1.640626 2.039062 3.835938 3.625 6.335938 4.488281 1.464844.507813 3 .753906 4.53125.753906 3.070312 0 6.132812-.996093 8.597656-2.898437.597656-.460938 1.128906-.9375 1.636719-1.398438.519531-.46875 1.375-1.242187 1.761719-1.394531.234375.054687.722656.273437 1.058594.425781.277343.121094.550781.246094.828124.359375 4.65625 1.910157 10.222657 1.488281 14.535157-1.105469 3.015625-1.816406 5.378906-4.675781 6.695312-7.941406 4.53125.453125 9.261719-.800781 12.875-3.570312 2.773438-2.125 4.859375-5.117188 6.011719-8.425782 1.585938.511719 3.28125.699219 4.953125.503907 2.964844-.347657 5.695313-1.886719 7.617187-4.121094.796876.640625 1.601563 1.265625 2.417969 1.878906-.199219.148438-.390625.308594-.566406.496094-19.054687 20.359375-40.394531 38.648437-63.425781 54.367187-2.269532 1.546876-4.464844 2.898438-6.429688 2.910157-1.882812-.023438-3.917968-1.316407-6.191406-2.871094-22.628906-15.5-44.007812-33.066406-63.652344-52.222656 3.390625-1.886719 6.949219-4.054688 10.433594-6.574219 1.195312 2.742188 3.171875 5.136719 5.730469 6.796875zm158.492187-81.386719c.4375 5.507813-2.082031 11.117188-6.273437 13.964844-3.503907 2.382812-8.503907 3.234375-14.070313 2.398438-6.269531-.9375-14.464844-4.65625-16.933594-12.039063-.15625-.46875-.398437-.878906-.691406-1.242187 1.570313-2.597657 2.984375-5.289063 4.210938-8.066407 7.511718 1.011719 15.519531-.851562 22.457031-5.316406 1.507813-.96875 2.925781-2.039063 4.242187-3.1875 4.054688 3.636719 6.667969 8.589844 7.058594 13.488281zm-216.828125-49.390625c-.113281-2.210937-.242187-4.714843-1.039062-7.207031-1.597657-4.964844-5.3125-8.394531-8.589844-11.421875-1.347656-1.246094-2.621094-2.421875-3.722656-3.652344-5.042969-5.65625-7.035157-14.046875-5.078125-21.367187 1.957031-7.324219 7.871094-13.597656 15.066406-15.980469 1.292969-.429687 2.285156-1.488281 2.628906-2.808594.347656-1.320312 0-2.726562-.917968-3.734375-4.746094-5.210937-6.878907-12.746094-5.5625-19.671875 1.308593-6.925781 6.054687-13.160156 12.375-16.273437.917968-.449219 1.914062-.878906 2.96875-1.335938 4.441406-1.917968 9.96875-4.300781 11.984374-10.027344.988282-2.820312.765626-5.566406.566407-7.988281-.042969-.539062-.089844-1.082031-.117188-1.617187-.394531-7.609375 3.3125-15.457032 9.4375-19.988282 4-2.960937 9.054688-4.519531 14.074219-4.519531 2.660156 0 5.3125.4375 7.796875 1.335938 2.097656.761719 4.40625-.320313 5.164063-2.414063.222656-.617187.289062-1.253906.214843-1.863281.703125-2.722656 4.425781-11.417969 5.265625-12.828125 2.816406-4.421875 8.671875-8.113281 15.285156-9.636719 1.023438-.234375 2.046876-.410156 3.035157-.515625 7.058593-.777344 14.039062 1.894532 21.332031 8.152344 1.476562 1.269531 3.648438 1.300781 5.164062.074219.660157-.539063 1.378907-1.132813 2.140626-1.761719 5.007812-4.152344 13.394531-11.105469 18.996093-11.183594 4.417969-.042968 8.542969 1.601563 11.285157 4.5625 2.460937 2.660156 3.574218 6.078125 3.21875 9.878906-.144532 1.582032.648437 3.097657 2.03125 3.882813 1.378906.78125 3.089843.679687 4.371093-.261719 4.457031-3.273437 11.363281-7.152344 19.050781-7.152344h.21875c6.847657.066407 13.1875 3.640626 15.769532 8.890626 2.609375 5.308593.597656 12.566406-4.144532 14.929687-1.710937.855469-2.585937 2.792969-2.097656 4.640625.488282 1.847656 2.195313 3.09375 4.117188 2.992188 7.71875-.421876 15.699218-.855469 23.132812.792968 7.75 1.714844 14.007813 5.761719 17.167969 11.097656 6.5 10.972657.28125 25.589844-7.703125 35.609376-.984375 1.238281-1.15625 2.933593-.441406 4.339843.714844 1.410157 2.199218 2.273438 3.765625 2.203125 10.71875-.472656 21.316406 6.046875 25.769531 15.808594 4.457031 9.757812 2.421875 22.023438-4.941406 29.824219-.824219.871093-1.214844 2.0625-1.070313 3.25.140625 1.191406.804688 2.253906 1.8125 2.902343 7.996094 5.175782 8.648438 17.351563 4.234375 25.046876-4.449218 7.753906-13.636718 13.527343-25.199218 15.839843-11.316407 2.261719-21.429688.417969-27.75-5.054687-3.660157-3.171875-5.910157-8.304688-5.863282-13.402344.03125-3.890625 1.445313-7.199219 3.976563-9.316406 1.207031-1.007813 1.71875-2.628906 1.304687-4.152344-.414062-1.519531-1.675781-2.65625-3.230468-2.917969-6.671876-1.105469-12.738282-5.828125-15.457032-12.019531-2.71875-6.195312-2.082031-13.855469 1.617188-19.515625 1.097656-1.679687.792968-3.910156-.710938-5.234375-1.507812-1.324219-3.757812-1.339844-5.28125-.035156-5.320312 4.546875-13.292968 5.953125-19.847656 3.496094-6.550781-2.457032-11.636719-8.757813-12.652344-15.679688-.277344-1.878906-1.824218-3.308594-3.714844-3.4375-1.902343-.125-3.617187 1.082031-4.148437 2.902344-2.183594 7.554687-9.160156 13.519531-16.964844 14.5-7.804687.980468-16.042969-3.066406-20.03125-9.84375-.933593-1.585938-2.820312-2.335938-4.585937-1.828125-1.769532.507812-2.96875 2.144531-2.917969 3.984375.222656 8.257812.117187 15.542968-3.460937 20.992187-1.851563 2.820313-5.394532 4.898438-8.824219 5.167969-1.5625.125-3.753907-.09375-5.316407-1.8125-1.320312-1.449219-3.496093-1.742188-5.152343-.683594-1.65625 1.054688-2.308594 3.152344-1.546875 4.960938 3.648437 8.660156 2.644531 19.320312-2.550782 27.148437-5.195312 7.832031-14.625 12.894531-24.023437 12.902344-1.828125.003906-3.429687 1.238281-3.894531 3.007813-1.59375 6.058593-7.964844 10.75-14.242188 10.46875-6.257812-.289063-12.191406-5.546876-13.222656-11.730469-.191406-1.144531-.257812-2.390625-.324219-3.710938zm26.285157 63.8125c-5.503907 4.53125-14.285157 4.292969-18.796876-.515625-5.054687-5.382812-3.953124-14.464844.035157-20.136718 1.027343-1.460938 2.242187-2.824219 3.644531-4.082032 2.054688 1.878906 4.378906 3.453125 6.917969 4.601563 4.359375 1.96875 9.246093 2.65625 14.011719 2.164062 1.304687 6.796875-.933594 13.949219-5.8125 17.96875zm21.265624-28.03125c-.417968-1.242187-1.414062-2.203125-2.671874-2.574219-1.253907-.375-2.613282-.113281-3.640626.699219-5.492187 4.328125-13.460937 5.300781-19.832031 2.425781-1.167969-.527343-2.273437-1.183593-3.304687-1.941406 2.898437-1.480468 6.199218-2.726562 9.914062-3.722656 2.152344-.578125 3.425782-2.789062 2.847656-4.9375-.578124-2.152344-2.789062-3.429688-4.9375-2.847656-5.03125 1.347656-9.472656 3.121094-13.308593 5.300781-.890625-1.566406-1.566407-3.25-1.996094-4.996094.84375.148438 1.691406.265625 2.554687.304688.300782.011719.601563.019531.902344.019531 8.675782 0 17.0625-5.675781 20.503906-13.605469 11.148438-.917969 21.625-7.023437 27.839844-16.386719 5.070313-7.644531 7.039063-17.058593 5.695313-26.039062.902343.078125 1.835937.082031 2.789062.003906 5.871094-.460937 11.734375-3.90625 14.929688-8.777344 3.082031-4.699218 4.261719-10.140624 4.667969-15.339843 5.859374 4.335937 13.363281 6.519531 20.59375 5.609375 7.539062-.949219 14.527343-5.226563 19.128906-11.265625 3.203125 5.664062 8.34375 10.214843 14.515625 12.53125 5.683593 2.132812 11.960937 2.253906 17.714843.566406-.945312 5.492187-.316406 11.238281 1.953126 16.410156 2.964843 6.753907 8.542968 12.109375 15.269531 14.929688-1.632813 2.957031-2.511719 6.421875-2.542969 10.171875-.0625 7.390625 3.25 14.886718 8.648438 19.5625 6.410156 5.554687 15.503906 8.28125 25.726562 7.914062-.714844 1.9375-1.710938 3.800782-2.957031 5.539063-4.636719-2.472657-9.964844-4.023438-15.722657-4.515625-2.222656-.1875-4.171874 1.457031-4.359374 3.675781s1.457031 4.171875 3.675781 4.359375c3.746093.316406 7.238281 1.183594 10.371093 2.519531-.441406.324219-.890624.640625-1.359374.941407-6.125 3.941406-13.25 5.253906-19.53125 3.601562-1.992188-.523438-4.054688.535156-4.792969 2.457031-10.015625 26.113281-37.589844 44.648438-65.550781 44.101563-27.964844-.5625-54.769532-20.203125-63.734376-46.695313zm63.574219 54.753907c.460938.007812.917969.011718 1.378907.011718 14.644531 0 29.128906-4.660156 41.480468-12.636718-.148437 7.8125 1.820313 15.945312 5.652344 23.683593-3.382812 1.511719-6.230469 4.164063-7.953125 7.449219-3.300781-.269531-6.757813.40625-9.890625 1.996094-3.003906 1.527344-5.507812 3.785156-7.234375 6.457031-3.429687-.914063-7.203125-.824219-10.820313.316406-3.074218.964844-5.808593 2.617188-7.96875 4.753907-2.09375-1.726563-4.640624-2.902344-7.328124-3.308594-2.816407-.425782-5.738282.003906-8.339844 1.152344-1.617188-2.464844-3.917969-4.488282-6.605469-5.695313-2.777344-1.25-5.929687-1.613281-8.933594-1.121094-1.15625-3.179687-3.273437-6.019531-6.050781-7.960937-2.160156-1.511719-4.699219-2.457032-7.3125-2.800782 3.503906-7.421874 4.761719-15.449218 3.601562-22.789062 11.046876 6.425781 23.578126 10.238281 36.324219 10.492188zm-45.085937 20.695312c.105468-.027344.210937-.035156.3125-.070312 2.457031-.828126 5.417968-.40625 7.539062 1.082031 2.125 1.484375 3.539063 4.121093 3.605469 6.710937.035156 1.414063.804687 2.707032 2.035156 3.40625 1.230469.699219 2.738281.703125 3.96875.007813 1.984375-1.117188 4.613281-1.234375 6.6875-.300781 2.078125.933593 3.730469 2.976562 4.210938 5.203124.316406 1.449219 1.398437 2.609376 2.820312 3.019532 1.425781.414062 2.960938.007812 3.996094-1.046875 1.519531-1.546875 3.882813-2.339844 6.023437-2.011719 2.140626.324219 4.167969 1.773438 5.15625 3.699219.695313 1.339843 2.078126 2.183593 3.582032 2.183593h.054687c1.523438-.019531 2.910157-.902343 3.574219-2.273437 1.191406-2.460937 3.578125-4.402344 6.550781-5.335937 2.96875-.9375 6.042969-.707032 8.425781.628906 1.054688.589844 2.316407.675781 3.441407.234375 1.125-.445313 1.992187-1.367188 2.363281-2.519531.746094-2.316407 2.589844-4.363282 5.054688-5.617188 2.46875-1.25 5.210937-1.53125 7.523437-.765625 1.070313.355469 2.246094.246094 3.234375-.304687.988281-.550782 1.699219-1.496094 1.957031-2.597657.636719-2.695312 2.921875-5.039062 5.578125-5.910156 2.234375 3.34375 4.808594 6.570313 7.734375 9.601563.804688.839843 1.632813 1.652343 2.46875 2.449218-.621093.75-1.53125 1.296875-2.476562 1.40625-1.386719.160156-2.914063-.578125-3.648438-1.761718-.984375-1.589844-2.9375-2.296876-4.710937-1.699219-1.773438.597656-2.90625 2.335937-2.730469 4.199219.3125 3.316406-1.195313 6.769531-3.839844 8.792968-2.644531 2.027344-6.367187 2.582032-9.488281 1.417969-1.171875-.4375-2.484375-.304687-3.546875.359375-1.058594.660156-1.753906 1.78125-1.875 3.027344-.242187 2.480468-1.777344 4.914062-3.910156 6.199218-2.136719 1.285157-5.007813 1.503907-7.3125.554688-.203125-.082031-.40625-.171875-.605469-.261719-1.042969-.46875-2.46875-1.105469-4.21875-1.136719-3.367188-.042968-5.636719 1.988282-7.292969 3.484376-.414062.375-.804687.726562-1.152343.996093-1.523438 1.171875-3.761719 1.535157-5.574219.910157s-3.347657-2.296876-3.816407-4.15625c-.386718-1.511719-1.609374-2.667969-3.140624-2.96875-1.527344-.296876-3.097657.316406-4.019532 1.574218-1.410156 1.921875-4.183594 2.835938-6.457031 2.128906-2.277344-.707031-4.042969-3.039062-4.113281-5.417968-.042969-1.46875-.882813-2.800782-2.191406-3.46875-1.308594-.671875-2.878907-.578125-4.097657.246094-1.78125 1.207031-4.449219 1.175781-6.203125-.074219s-2.652344-3.761719-2.097656-5.839844c.40625-1.511719-.101562-3.121094-1.296875-4.128906-1.199219-1.007813-2.875-1.230469-4.292969-.570313-2.207031 1.027344-5.0625.824219-7.101562-.496094-1.847656-1.199218-3.113282-3.375-3.3125-5.578124 2.359375-2.1875 4.601562-4.578126 6.625-7.210938zm-109.949219 197.574219c-1.222656-1.671875-1.292969-4.386719-1.261719-7.503907.285156-27.882812.582032-56.714843 7.628906-84 7.734376-29.953124 23.316407-54.046874 43.871094-67.839843 4.289063-2.878907 8.917969-5.398438 13.601563-7.761719-3.476563 5.464844-6.203125 11.890625-6.90625 19.148438-1.167969 12.011718 4.453125 23.835937 13.523437 29.667968-7.011718 10.160156-8.792968 23.75-4.292968 35.328125 3.09375 7.949219 8.621093 14.300781 13.972656 20.441407 5.261718 6.039062 10.226562 11.746093 12.726562 18.621093.273438.75.75 1.359375 1.339844 1.8125-.042969 16.351563-1 32.679688-2.867188 48.859375-14.839843-.5625-29.707031-1.210937-44.613281-1.917968 3.496094-28.636719 2.6875-57.539063-2.433593-85.949219-.394532-2.191407-2.492188-3.652344-4.679688-3.25-2.191406.394531-3.648438 2.488281-3.253906 4.679687 5.011718 27.8125 5.773437 56.105469 2.292968 84.132813-9.546874-.460938-19.113281-.941407-28.695312-1.433594-3.890625-.199219-8.1875-.613281-9.953125-3.035156zm99.414063 7.070312c5.117187-44.84375 3.3125-90.8125-5.179688-135.328125 17.96875 15.363282 37.40625 29.066406 57.914062 40.804688 1.367188.785156 3.554688 2.035156 6.183594 2.035156.335938 0 .679688-.019531 1.03125-.0625 2.632813-.335938 4.550782-1.898438 5.820313-2.933594l54.691406-44.519531c-6.304687 47.15625-2.746094 95.953125 10.628906 141.316406-43.605469.988281-87.222656.25-131.089843-1.3125zm223.769531-27.769531c-.085938 9.066406-.960938 18.039062-6.695313 22.253906-3.449218 2.535156-8.277344 3.070313-13.773437 3.464844-8.085938.585938-16.171875 1.089844-24.25 1.53125-2.871094-28.699219-.105469-58.496094 8.003906-86.175781.625-2.136719-.601563-4.378907-2.738281-5.003907-2.132813-.625-4.375.601563-5 2.738282-8.359375 28.539062-11.230469 59.253906-8.324219 88.855468-10.5625.511719-21.117187.917969-31.675781 1.210938-.019532-.300781-.0625-.601562-.152344-.902344-5.804688-19.402344-9.75-39.460937-11.855469-59.75.558594-.265625 1.066407-.65625 1.472657-1.179687 5.433593-7.027344 11.589843-14.988281 15.902343-23.839844 4.925781-10.109375 6.785157-20.265625 5.378907-29.375-.671876-4.378906-2.019532-7.871094-4.109376-10.675781-1.183593-1.582032-2.613281-2.910156-4.1875-3.917969 6.015626-7.605469 9.441407-17.105469 9.554688-26.878906.085938-6.972657-1.53125-13.84375-4.578125-20.023438 2.898437 1.601563 5.765625 3.140625 8.554687 4.628907l.691407.367187c13.085937 6.992187 26.621093 14.222656 37.109375 24.488281 13.265625 12.980469 22.617187 31.914063 27.054687 54.757813 4.03125 20.769531 3.820313 42.453125 3.617188 63.425781zm0 0"/></svg>