<svg height="511pt" viewBox="-78 0 511 511.99936" width="511pt" xmlns="http://www.w3.org/2000/svg"><path d="m356.851562 235.167969c-.78125-1.429688-2.34375-2.253907-3.960937-2.074219-11.5 1.21875-20.472656.847656-28.242187-1.167969-9.59375-2.492187-17.375-7.664062-21.917969-14.5625-5.542969-8.414062-6.035157-19.132812-5.46875-26.644531.496093-6.601562 1.824219-13.03125 3.230469-19.835938.652343-3.152343 1.324218-6.40625 1.902343-9.652343 6.988281-39.441407-.738281-79.269531-21.203125-109.269531-14.402344-21.113282-35.792968-36.773438-61.855468-45.277344-24.792969-8.089844-52.175782-8.859375-77.101563-2.175782-25.828125 6.925782-49.730469 24.222657-65.578125 47.453126-20.464844 30-28.191406 69.828124-21.199219 109.269531.574219 3.246093 1.246094 6.5 1.898438 9.652343 1.40625 6.804688 2.734375 13.234376 3.230469 19.835938.566406 7.507812.074218 18.230469-5.46875 26.644531-4.539063 6.898438-12.324219 12.070313-21.917969 14.5625-7.765625 2.019531-16.742188 2.390625-28.242188 1.167969-1.621093-.171875-3.179687.644531-3.960937 2.074219-.78125 1.425781-.628906 3.179687.386718 4.453125 11.246094 14.082031 28.097657 23.453125 45.910157 26.003906-8.964844 4.738281-18.992188 7.429688-29.148438 7.734375-1.347656.039063-2.589843.753906-3.304687 1.898437-.710938 1.148438-.804688 2.574219-.242188 3.804688 6.683594 14.644531 19.355469 26.3125 34.410156 31.9375-12.277343 12.9375-22.078124 28.238281-28.515624 45.070312-13.339844 34.882813-11.636719 72.84375-9.988282 109.554688.605469 13.488281 1.234375 27.433594 1.089844 40.945312-.011719 1.074219.40625 2.105469 1.160156 2.875.753906.761719 1.78125 1.195313 2.851563 1.199219l320.292969 1.355469h.015624c1.984376 0 3.675782-1.445312 3.984376-3.40625 5.832031-37.167969 10.996093-85.785156-.953126-132.257812-6.324218-24.582032-17.378906-46.722657-31.808593-64.722657 15.800781-5.359375 29.179687-17.355469 36.117187-32.554687.558594-1.226563.46875-2.65625-.246094-3.800782-.714843-1.148437-1.953124-1.859374-3.304687-1.902343-10.15625-.300781-20.1875-2.992188-29.148437-7.730469 17.8125-2.550781 34.664062-11.921875 45.910156-26.007812 1.015625-1.269532 1.167968-3.023438.386718-4.449219zm-249.390624 47.714843c1.640624 1.878907 3.730468 3.488282 6.164062 4.65625 2.972656 1.429688 6.21875 2.132813 9.445312 2.132813 2.417969 0 4.820313-.40625 7.09375-1.183594-.191406 2.292969.019532 4.519531.699219 6.542969 1.398438 4.167969 4.78125 7.796875 9.277344 9.960938 2.972656 1.429687 6.21875 2.132812 9.445313 2.132812 4.4375 0 8.839843-1.328125 12.453124-3.925781.378907-.269531.742188-.550781 1.097657-.84375.96875 4.921875 3.714843 9.277343 7.910156 12.289062 3.613281 2.597657 8.015625 3.925781 12.453125 3.925781 3.226562 0 6.472656-.703124 9.445312-2.132812 4.5-2.167969 7.882813-5.796875 9.28125-9.960938.308594-.921874.515626-1.886718.640626-2.878906 3.496093 2.324219 7.652343 3.527344 11.851562 3.527344 3.226562 0 6.472656-.703125 9.445312-2.132812 4.496094-2.164063 7.882813-5.792969 9.277344-9.960938.679688-2.023438.890625-4.246094.699219-6.542969 2.277344.777344 4.675781 1.1875 7.09375 1.1875 3.230469 0 6.472656-.703125 9.445313-2.132812 2.902343-1.398438 5.332031-3.410157 7.070312-5.777344 25.710938 12.167969 47.390625 35.054687 61.519531 64.140625-.117187.019531-.234375.019531-.351562.050781-35.988281 8.777344-71.242188 21.199219-104.785157 36.917969l-.585937.277344c-5.019531 2.351562-9.753906 4.574218-14.722656 5.152344-7.363281.855468-15.0625-2.03125-22.554688-4.832032-45.445312-17.015625-92.414062-31.300781-139.667969-42.496094 15.625-27.078124 41.019532-48.125 70.859376-58.09375zm10.945312-227.847656c16.582031-21.199218 41.523438-34.195312 66.726562-34.765625.398438-.011719.796876-.015625 1.195313-.015625 23.117187 0 48.660156 15.027344 62.492187 36.890625 10.75 16.992188 15.210938 39.09375 12.566407 62.234375-.335938 2.933594-.921875 6.113282-2.730469 7.449219-1.410156 1.046875-3.785156 1.15625-6.515625 1.1875-13.191406.144531-26.421875-.210937-39.214844-.550781-18.300781-.492188-37.222656-1-56.199219-.035156-.835937.042968-2.742187.203124-5.628906.445312-32.421875 2.710938-45.175781 2.761719-49.757812 2.109375-.238282-.191406-.5-.347656-.777344-.480469-5.050781-25.945312 1.542969-53.628906 17.84375-74.46875zm-20.125 82.519532c2.40625.542968 5.917969.816406 11.078125.816406 2.765625 0 6-.078125 9.792969-.234375 11.695312-.476563 25.308594-1.617188 32.621094-2.226563 2.601562-.21875 4.660156-.390625 5.363281-.425781 18.664062-.953125 37.425781-.449219 55.570312.039063 12.871094.34375 26.175781.699218 39.523438.554687 2.882812-.035156 7.167969-.085937 10.703125-2.410156.035156-.003907.070312.003906.105468 0 6.140626-.554688 12.703126 3.226562 15.269532 8.832031 2.5625 5.605469 1.144531 13.054688-3.300782 17.328125-4.445312 4.269531-11.941406 5.390625-17.441406 2.601563-1.273437-.644532-2.792968-.566407-3.996094.203124-1.203124.773438-1.910156 2.121094-1.855468 3.546876.886718 23.390624-12.53125 47.195312-33.390625 59.230468-20.28125 11.707032-47.335938 12.242188-68.917969 1.363282-20.957031-10.5625-37.105469-31.898438-42.140625-55.679688-.277344-1.304688-1.1875-2.390625-2.421875-2.894531-1.238281-.507813-2.644531-.367188-3.757812.375-4.160157 2.773437-10.902344 1.605469-14.425782-2.496094-3.535156-4.113281-4.210937-10.765625-1.644531-16.171875 2.445313-5.144531 8.039063-10.273438 13.265625-12.351562zm96.300781 166.355468c-.710937 2.113282-2.582031 4.03125-5.132812 5.257813-4.371094 2.101562-9.875 1.667969-13.699219-1.074219-3.621094-2.597656-5.425781-6.925781-4.828125-11.570312.617187-4.816407 3.585937-8.699219 7.941406-10.378907.816407-.3125 1.628907-.449219 2.421875-.449219 3.457032 0 6.554688 2.542969 7.894532 3.824219 4.414062 4.222657 6.738281 10.410157 5.402343 14.390625zm7.554688-18.832031c.621093-4.816406 3.589843-8.695313 7.945312-10.375.816407-.316406 1.628907-.449219 2.421875-.449219 3.457032 0 6.550782 2.539063 7.890625 3.820313 4.417969 4.222656 6.738281 10.410156 5.402344 14.390625-.707031 2.117187-2.578125 4.035156-5.128906 5.257812-4.371094 2.105469-9.878907 1.671875-13.699219-1.074218-3.621094-2.597657-5.425781-6.921876-4.832031-11.570313zm26.519531-17.449219c.617188-4.820312 3.585938-8.699218 7.941406-10.378906.816406-.316406 1.628906-.449219 2.425782-.449219 3.457031 0 6.550781 2.542969 7.886718 3.824219 4.417969 4.222656 6.738282 10.410156 5.402344 14.386719-.707031 2.117187-2.578125 4.035156-5.128906 5.261719-4.371094 2.101562-9.878906 1.671874-13.699219-1.074219-3.617187-2.601563-5.425781-6.925781-4.828125-11.570313zm-82.882812-33.652344c11.449218 5.769532 24.292968 8.640626 37.050781 8.640626 12.929687 0 25.769531-2.953126 36.96875-8.816407-.601563 7.511719 1.578125 15.28125 6.132812 21.285157-2.824219 3.125-4.703125 7.121093-5.269531 11.519531-.070312.566406-.113281 1.128906-.144531 1.691406-4.414063-2.296875-9.117188-2.742187-13.332031-1.121094-6.808594 2.628907-11.691407 8.746094-12.910157 16.078125-5.652343-5.148437-12.453125-6.886718-18.308593-4.632812-2.265626.875-4.320313 2.140625-6.097657 3.707031-1.460937-6.917969-6.214843-12.632813-12.738281-15.152344-4.214844-1.625-8.917969-1.175781-13.332031 1.121094-.03125-.5625-.074219-1.125-.144531-1.691406-.503907-3.90625-2.042969-7.496094-4.363282-10.441407 3.878906-7.0625 5.484375-15.183593 4.65625-23.140624.609375.324218 1.21875.644531 1.832032.953124zm-1.863282 44.097657c1.339844-1.28125 4.433594-3.820313 7.890625-3.820313.792969 0 1.609375.132813 2.421875.449219 4.355469 1.679687 7.328125 5.558594 7.945313 10.375.59375 4.648437-1.210938 8.972656-4.832031 11.570313-3.820313 2.746093-9.328126 3.179687-13.699219 1.074218-2.550781-1.222656-4.417969-3.140625-5.128907-5.257812-1.335937-3.980469.984376-10.167969 5.402344-14.390625zm-8.261718-10.445313c.597656 4.644532-1.210938 8.96875-4.828126 11.570313-3.824218 2.746093-9.328124 3.179687-13.703124 1.074219-2.546876-1.226563-4.417969-3.144532-5.128907-5.261719-1.335937-3.976563.988281-10.164063 5.402344-14.386719 1.648437-1.578125 5.953125-5.0625 10.316406-3.375 4.355469 1.679688 7.324219 5.558594 7.941407 10.378906zm193.003906 102.007813c-40.617188 5.515625-79.636719 17.898437-116.011719 36.863281l-1.988281 1.039062c-7.574219 3.976563-15.40625 8.085938-23.527344 8.75-10.09375.828126-20.242188-3.628906-30.0625-7.9375l-.597656-.261718c-41.941406-18.378906-85.722656-33.261719-130.179688-44.277344.550782-1.628906 1.121094-3.253906 1.738282-4.863281 1.386718-3.621094 2.941406-7.160157 4.648437-10.617188 47.625 11.183594 94.976563 25.542969 140.820313 42.707031 6.917968 2.589844 14.636718 5.480469 22.644531 5.480469 1.199219 0 2.40625-.066406 3.617187-.207031 6.273438-.726562 11.839844-3.335938 17.21875-5.859375l.585938-.277344c33.058594-15.492187 67.804687-27.734375 103.269531-36.386719.636719-.15625 1.183594-.460937 1.648437-.859374 2.316407 5.390624 4.382813 10.964843 6.175782 16.707031zm3.808594 134.285156-57.605469-.246094 1.382812-69.742187c.042969-2.222656-1.722656-4.0625-3.949219-4.109375-.027343 0-.054687 0-.082031 0-2.1875 0-3.984375 1.753906-4.027343 3.953125l-1.386719 69.867187-187.929688-.796875-9.1875-66.582031c-.304687-2.207031-2.332031-3.753906-4.546875-3.445313-2.203125.304688-3.746094 2.339844-3.441406 4.546876l9.03125 65.449218-51.039062-.21875c0-12.433594-.566407-25.074218-1.117188-37.335937-1.414062-31.425781-2.867188-63.792969 5.351562-93.726563 44.160157 10.914063 87.65625 25.6875 129.3125 43.945313l.597657.261719c9.785156 4.289062 19.875 8.714843 30.765625 8.714843 1.054687 0 2.121094-.042969 3.1875-.128906 9.761718-.796875 18.332031-5.296875 26.625-9.648437l1.964844-1.03125c35.894531-18.714844 74.417968-30.875 114.53125-36.179688.074218.292969.160156.582031.238281.878906 11.222656 43.640625 6.808593 89.648438 1.324219 125.574219zm-34.285157-245.714844c-1.734375-.074219-3.34375.980469-3.953125 2.621094-.609375 1.636719-.09375 3.480469 1.277344 4.566406 10.804688 8.550781 23.980469 13.964844 37.648438 15.5625-6.867188 11.359375-18.035157 20.042969-30.820313 23.730469-.285156.082031-.550781.195312-.796875.328125-11.890625-13.183594-25.726562-23.71875-40.882812-30.796875.609374-6.414062-2.457032-13.964844-8.160157-19.421875-5.746093-5.496094-12.773437-7.386719-18.789062-5.070313-.441407.171876-.875.355469-1.296875.554688-4.34375-5.660156-5.816406-13.480469-3.746094-20.3125.183594-.589844.207031-1.191406.117188-1.765625 18.089843-13.222656 29.894531-34.71875 30.964843-56.605469 7.355469 1.410156 15.4375-.746094 20.859375-5.957031 6.90625-6.636719 9.027344-17.78125 5.042969-26.496094-3.148437-6.871093-9.917969-11.847656-17.324219-13.207031.5625-1.859375.871094-3.792969 1.082032-5.644531 2.851562-24.960938-2.035157-48.917969-13.761719-67.457031-15.507813-24.515626-44.5625-41.238282-70.6875-40.628907-27.589844.625-54.839844 14.777344-72.890625 37.859375-17.761719 22.703125-24.925782 52.882813-19.359375 81.203125-6.207031 3.25-12.050781 9.035157-14.96875 15.179688-3.953125 8.328125-2.824219 18.328125 2.8125 24.886719 4.941406 5.75 13.054687 8.050781 19.980469 6.207031 5.441406 20.207031 17.746093 37.957031 34.269531 49.777343-.015625.414063.011719.839844.132812 1.261719 2.0625 7.273438 1.3125 15.40625-1.953125 22.242188-.757812-.410157-1.542968-.78125-2.363281-1.097657-6.015625-2.320312-13.042969-.425781-18.789063 5.070313-6.117187 5.851563-9.199218 14.109375-7.96875 20.796875-18.050781 6.199219-34.539062 16.21875-48.414062 29.066406-12.746094-3.703125-23.882812-12.371094-30.734375-23.703125 13.671875-1.597656 26.84375-7.011719 37.652344-15.5625 1.371093-1.085937 1.886719-2.929687 1.277343-4.566406-.613281-1.640625-2.214843-2.71875-3.957031-2.621094-16.410156.714844-32.957031-5.417969-45.15625-16.382812 7.8125.207031 14.550781-.492188 20.714844-2.097657 11.527344-2.992187 20.980469-9.363281 26.621094-17.929687 5.378906-8.164063 7.71875-19.121094 6.777343-31.683594-.535156-7.121093-1.980468-14.109375-3.378906-20.863281-.640625-3.09375-1.300781-6.296875-1.855468-9.425781-6.625-37.390625.632812-75.046875 19.921874-103.320313 14.777344-21.660156 37.015626-37.777344 61.007813-44.210937 23.433594-6.285157 49.183594-5.554688 72.507813 2.058593 24.355468 7.945313 44.308593 22.523438 57.699218 42.152344 19.285156 28.273438 26.546875 65.929688 19.921875 103.320313-.554687 3.128906-1.21875 6.332031-1.855469 9.425781-1.398437 6.753906-2.84375 13.742188-3.378906 20.863281-.945312 12.5625 1.398438 23.519531 6.777344 31.683594 5.640625 8.566406 15.09375 14.933594 26.621094 17.929687 6.164062 1.601563 12.894531 2.296876 20.714844 2.097657-12.203126 10.964843-28.746094 17.101562-45.160157 16.382812zm0 0"/></svg>