<svg height="512pt" viewBox="-82 0 512 512.00051" width="512pt" xmlns="http://www.w3.org/2000/svg"><path d="m309.871094 314.414062c-.386719-.578124-.902344-1.007812-1.480469-1.308593 6.742187-20.574219 2.648437-34.90625-1.148437-42.515625-7.828126-15.675782-23.855469-24.527344-39.878907-32.105469.195313-1.480469.355469-2.96875.441407-4.457031.933593-15.636719-4.082032-31.667969-13.753907-43.988282-.171875-.21875-.359375-.414062-.5625-.585937.351563-4.042969.152344-8.0625-.617187-11.917969 8.730468-1.644531 16.28125-6.292968 20.761718-12.941406 6.21875-9.222656 5.589844-21.84375-1.457031-29.355469-1.519531-1.621093-3.351562-2.945312-5.382812-3.933593 7.316406-9.566407 11.835937-18.308594 15.207031-29.257813 3.824219-12.417969 2.714844-29.214844-8.140625-39.417969 9.394531-8.929687 18.578125-19.558594 28.027344-32.402344 1.273437-1.734374.960937-4.164062-.707031-5.519531-1.671876-1.355469-4.109376-1.164062-5.546876.441407-7.5 8.378906-24.566406 15.070312-47.996093 6.359374-8.679688-3.226562-17.054688-7.910156-25.152344-12.4375-8.027344-4.492187-16.324219-9.132812-25.167969-12.542968-25.761718-9.933594-55.246094-8.457032-78.871094 3.949218-24.535156 12.886719-42.101562 37.429688-45.847656 64.054688-1.765625 12.535156-.402344 25.652344 3.933594 37.933594 2.023438 5.734375 6.398438 16.695312 12.601562 24.5625-5.921874 1.902344-11.796874 5.921875-16.21875 11.324218-5.203124 6.355469-7.351562 13.59375-5.894531 19.851563 1.664063 7.132813 7.039063 13.386719 14.378907 16.726563 5.726562 2.605468 12.003906 3.148437 17.5625 1.632812 2.945312 8.914062 7.4375 17.296875 13.136718 24.765625-6.589844 10.53125-9.128906 23.351563-7.417968 35.597656-7.730469 2.113281-15.609376 4.457031-22.816407 8.714844-9.335937 5.515625-15.601562 13.367187-17.648437 22.105469-1.480469 6.332031-.679688 12.644531.917968 18.507812-24.261718 23.285156-42.910156 53.042969-53.941406 86.148438-11.144531 33.441406-14.035156 68.820312-8.359375 102.308594 1.046875 6.1875 2.574219 13.234374 7.453125 18.59375 6.921875 7.605468 17.492188 8.695312 27.355469 8.695312.945313 0 1.886719-.007812 2.8125-.023438l275.789063-4.527343c4.683593-.078125 10.507812-.171875 15.5625-3.070313 8.039062-4.601562 10.777343-14.195312 12.265624-22.039062 10.980469-57.808594-1.484374-119.015625-34.199218-167.925782zm-9.84375-40.222656c4.242187 8.5 8.808594 27.039063-8.292969 55.726563-3.378906 5.664062-7.222656 11.289062-10.941406 16.730469-5.242188 7.667968-10.589844 15.507812-14.976563 23.894531-4.3125-28.359375-10.921875-56.351563-19.78125-83.671875-.261718-.8125-.757812-1.476563-1.390625-1.957032 1.945313-3.007812 3.59375-6.183593 4.902344-9.484374 7.730469-7.972657 13.335937-18.027344 16.199219-28.785157 14.113281 6.773438 27.867187 14.699219 34.28125 27.546875zm-137.777344-31.082031c5.566406 1.121094 11.242188 1.695313 16.925781 1.695313 16.207031 0 32.441407-4.511719 46.089844-13.269532 2.398437-1.539062 4.660156-3.183594 6.796875-4.90625 9.730469 8.742188 14.65625 22.796875 12.585938 36.347656-2.058594 13.5-11.105469 26.347657-23.605469 33.527344-12.042969 6.914063-27.210938 8.902344-41.617188 5.453125-5.375-1.289062-14.980469-4.597656-18.914062-12.304687-3.53125-6.910156-1.820313-15.269532-.007813-24.121094 1.507813-7.390625 3.0625-14.984375 1.746094-22.421875zm15.300781 66.6875c5.246094 1.257813 10.585938 1.878906 15.878907 1.878906 11.234374 0 22.242187-2.789062 31.625-8.179687 5.367187-3.082032 10.128906-6.984375 14.15625-11.464844 9.636718 30.28125 16.480468 61.390625 20.453124 92.890625-.316406 1.101563-.140624 2.226563.402344 3.148437 1.339844 11.160157 2.316406 22.371094 2.933594 33.605469.363281 6.648438.410156 14.117188-3.652344 18.621094-3.125 3.464844-8.324218 4.839844-14.296875 6.15625l-53.238281 11.742187c-3.402344.75-6.898438 1.363282-8.953125-.042968-2.289063-1.570313-2.738281-5.609375-2.882813-9.738282l-4.835937-139.253906c.820313.234375 1.628906.453125 2.410156.636719zm82.207031-76.25c-.480468 8.101563-2.796874 16.097656-6.605468 23.292969 0-13.496094-5.515625-26.722656-15.078125-35.664063 4.285156-4.375 7.789062-9.152343 10.351562-14.203125 1.132813-2.222656 2.078125-4.507812 2.84375-6.820312 6.113281 9.917968 9.179688 21.777344 8.488281 33.394531zm14.539063-133.875c-3.445313 11.179687-7.996094 19.519531-16.140625 29.574219-.621094-.011719-1.246094-.003906-1.871094.039062-2.402344.164063-4.675781.746094-6.71875 1.683594-.078125-.902344-.15625-1.800781-.234375-2.691406-1.246093-14.375-2.546875-29.222656-7.984375-41.769532 4.613282-2.46875 9.164063-5.246093 13.628906-8.367187 4.386719-3.0625 8.664063-6.40625 12.882813-10.058594 8.773437 7.75 9.570313 21.414063 6.4375 31.589844zm-190.160156 10.109375c-3.910157-11.066406-5.136719-22.867188-3.554688-34.125 3.390625-24.101562 19.335938-46.34375 41.613281-58.042969 12.089844-6.347656 25.871094-9.5625 39.808594-9.5625 10.957032 0 22.011719 1.988281 32.414063 6 8.304687 3.203125 16.351562 7.703125 24.132812 12.054688 8.363281 4.679687 17.015625 9.519531 26.277344 12.960937 9.828125 3.65625 20.445313 5.144532 29.910156 4.203125 2.648438-.265625 5.195313-.714843 7.625-1.347656-10.511719 12.257813-20.929687 21.875-32.003906 29.609375-13.21875 9.238281-34.226563 20.265625-59.226563 20.351562-22.046874.113282-42.722656-9.03125-55.320312-24.351562-1.015625-1.234375-2.667969-1.753906-4.207031-1.320312-1.539063.433593-2.679688 1.738281-2.898438 3.320312-2.40625 17.136719-12.609375 60.984375-23.601562 67.820312-1.289063.804688-2.097657.703126-2.714844.5-6.523437-2.152343-13.871094-15.648437-18.253906-28.070312zm21.324219 70.394531c-.316407-1.183593-1.160157-2.15625-2.285157-2.648437-1.125-.488282-2.410156-.4375-3.496093.136718-4.269532 2.265626-9.855469 2.238282-14.9375-.074218-5.082032-2.3125-8.769532-6.503906-9.867188-11.214844-.882812-3.804688.675781-8.511719 4.28125-12.917969 4.632812-5.660156 11.652344-9.535156 17.269531-9.585937 1.113281.6875 2.257813 1.246094 3.441407 1.636718 1.109374.367188 2.230468.546876 3.355468.546876 2.082032 0 4.160156-.625 6.144532-1.855469 13.691406-8.519531 22.605468-48.171875 25.898437-65.460938 14.136719 13.40625 34.320313 21.207031 55.601563 21.207031h.296874c14.273438-.050781 28.824219-3.429687 42.953126-9.855468 4.777343 11.289062 6.007812 25.304687 7.183593 38.882812.292969 3.351563.59375 6.816406.941407 10.164063.175781 1.667969 1.367187 3.054687 2.992187 3.480469 1.625.421874 3.339844-.203126 4.308594-1.574219 1.515625-2.144531 4.179687-3.5 7.300781-3.714844 3.621094-.25 7.238281 1.0625 9.453125 3.425781 4.464844 4.757813 4.753906 13.253906.65625 19.332032-3.898437 5.78125-11.144531 9.515624-19.394531 9.996093-1.253906.070313-2.402344.726563-3.109375 1.765625-.703125 1.042969-.878907 2.355469-.476563 3.546875 2.90625 8.617188 1.910156 18.796875-2.730468 27.925781-4.136719 8.136719-11.167969 15.546876-20.332032 21.429688-20.191406 12.960938-46.644531 15.648438-69.03125 7.003906-22.386718-8.644531-40.171875-28.40625-46.417968-51.578125zm45.085937 103.285157c-14.433594-2.050782-27.5625-11.484376-33.964844-24.625-6.25-12.820313-5.753906-28.496094 1.03125-40.984376 8.703125 9.359376 19.4375 16.820313 31.359375 21.421876 1.425782.550781 2.867188 1.046874 4.316406 1.511718.011719.03125.015626.0625.027344.089844 2.597656 6.847656.988282 14.710938-.714844 23.039062-1.324218 6.472657-2.664062 13.089844-2.054687 19.546876zm-78.476563-3.878907c1.515626-6.480469 6.578126-12.675781 13.894532-17 6.203125-3.664062 13.363281-5.828125 20.445312-7.773437.777344 2.585937 1.734375 5.121094 2.921875 7.558594 7.96875 16.355468 25.238281 28.039062 43.292969 29.429687.21875.507813.445312 1.019531.703125 1.523437 3.085937 6.03125 8.234375 10.042969 13.632813 12.714844.652343 18.738282.792968 37.492188 1.765624 56.214844.316407 6.074219.609376 12.140625.820313 18.21875.039063 1.109375-.351563 12.414062.445313 12.726562-.054688-.019531-.097657-.050781-.152344-.066406-42.945313-14.949218-78.265625-49.238281-94.492188-91.714844-2.570312-6.738281-4.972656-14.597656-3.277344-21.832031zm264.082032 201.253907c-1.242188 6.527343-3.203125 13.597656-8.351563 16.546874-3.257812 1.863282-7.738281 1.9375-11.691406 2.003907l-30.195313.496093 4.023438-77.433593c.113281-2.207031-1.582031-4.085938-3.785156-4.203125-2.242188-.105469-4.089844 1.582031-4.203125 3.789062l-4.054688 77.976563-192.382812 3.160156c1.839843-23.289063 2.292969-56.984375-1.882813-83.03125-.347656-2.179687-2.402344-3.667969-4.582031-3.3125-2.179687.347656-3.664063 2.398437-3.316406 4.582031 4.109375 25.632813 3.601562 59.050782 1.746093 81.894532l-37.152343.609374c-9.265625.15625-18.75-.1875-24.074219-6.035156-3.40625-3.746094-4.609375-9.457031-5.464844-14.511718-5.457031-32.191407-2.667968-66.222657 8.058594-98.417969 10.199219-30.613281 27.15625-58.234375 49.15625-80.207031 17.136719 44.464843 54.183594 80.332031 99.191406 96.003906.441406.152344.886719.222656 1.328125.222656.605469 0 1.195313-.140625 1.730469-.394531l1.671875 48.125c.132813 3.898437.417969 12.015625 6.378906 16.105469 2.464844 1.691406 5.175781 2.253906 7.90625 2.253906 2.496094 0 5-.46875 7.34375-.988282l53.238281-11.738281c5.671876-1.25 13.441407-2.964843 18.550782-8.632812 5.839844-6.480469 6.199218-15.585938 5.710937-24.457031-.648437-11.871094-1.707031-23.710938-3.148437-35.5 4.363281-12.3125 11.742187-23.125 19.546875-34.539063 3.789062-5.542969 7.707031-11.273437 11.210937-17.15625 2.554688-4.28125 4.652344-8.367187 6.386719-12.269531 30.132813 46.675781 41.476563 104.433594 31.105469 159.058594zm0 0"/></svg>