<svg height="512pt" viewBox="-97 0 512 512.00033" width="512pt" xmlns="http://www.w3.org/2000/svg"><path d="m107.789062 215.222656c.398438.121094.804688.183594 1.199219.183594 1.71875 0 3.3125-1.109375 3.847657-2.835938.003906-.003906.003906-.007812.003906-.011718 5.667968-18.1875 26.230468-30.992188 47.890625-29.789063 25.511719 1.417969 44.703125 18.921875 53.871093 29.230469.890626 1 2.21875 1.503906 3.558594 1.3125 1.332032-.179688 2.484375-1.015625 3.074219-2.222656 6.917969-14.152344 14.566406-31.027344 18.875-48.878906 4.640625-19.214844 4.835937-37.070313.589844-53.070313-2.40625-9.070313-5.941407-16.121094-10.808594-21.554687-6.125-6.84375-14.597656-10.832032-22.734375-10.679688-7.113281.136719-13.269531 3.152344-19.21875 6.070312-2.949219 1.445313-5.730469 2.808594-8.582031 3.816407-9.445313 3.339843-20.390625 2.578125-29.28125-2.035157-1.832031-.953124-3.613281-2.066406-5.5-3.246093-4.070313-2.542969-8.277344-5.171875-13.335938-6.328125-8.738281-1.988282-17.007812-.328125-24.570312 4.933594-14.75 10.269531-23.8125 32.789062-25.992188 49.367187-2.179687 16.601563-.949219 34.714844 3.375 49.6875 1.574219 5.453125 4.1875 11.042969 8.222657 17.59375.621093 1.003906 2.105468 2.785156 5.601562 6.90625 2.382812 2.8125 6.28125 7.410156 7.269531 8.914063.382813 1.214843 1.335938 2.226562 2.644531 2.636718zm-3.765624-16.765625c-1.980469-2.335937-4.449219-5.242187-4.886719-5.917969-3.640625-5.914062-5.972657-10.871093-7.335938-15.601562-4.03125-13.949219-5.167969-30.859375-3.128906-46.402344 2.015625-15.351562 10.425781-35.324218 22.601563-43.796875 4.097656-2.855469 8.457031-4.285156 13.011718-4.285156 1.695313 0 3.417969.199219 5.164063.59375 3.730469.851563 7.1875 3.011719 10.851562 5.300781 1.9375 1.214844 3.941407 2.46875 6.0625 3.566406 10.832031 5.621094 24.167969 6.550782 35.679688 2.480469 3.289062-1.160156 6.417969-2.695312 9.441406-4.175781 5.398437-2.648438 10.496094-5.148438 15.824219-5.25 5.796875-.125 11.992187 2.878906 16.574218 7.996094 4 4.464844 6.949219 10.433594 9.023438 18.246094 3.898438 14.6875 3.683594 31.210937-.636719 49.109374-3.609375 14.957032-9.75 29.363282-15.730469 41.949219-16.457031-16.742187-35.929687-26.46875-55.363281-27.550781-22.382812-1.21875-43.917969 10.648438-53.160156 28.472656-1.101563-1.324218-2.421875-2.882812-3.992187-4.734375zm0 0"/><path d="m180.011719 216.394531-.695313-.527343c-1.183594-.898438-2.582031-2.4375-3.933594-3.925782-2.375-2.613281-4.828124-5.3125-7.777343-6.699218-9.421875-4.433594-25.734375 11.695312-27.566407 13.550781-3.996093 4.046875-6.308593 9.339843-6.34375 14.527343-.042968 5.996094 3.074219 11.710938 7.941407 14.558594 2.222656 1.296875 4.746093 1.925782 7.25 1.925782 3.664062 0 7.273437-1.351563 9.792969-3.933594 2.308593-2.363282 3.582031-5.707032 3.484374-9.179688-.011718-.296875-.027343-.59375-.054687-.886718l2.289063.175781c.019531 1.121093.199218 2.265625.535156 3.398437.96875 3.226563 3.140625 5.949219 5.960937 7.46875 5.324219 2.867188 12.457031 1.488282 16.589844-3.214844 3.738281-4.246093 4.722656-10.78125 2.445313-16.25-2.113282-5.089843-6.257813-8.222656-9.917969-10.988281zm1.421875 21.914063c-1.664063 1.894531-4.671875 2.539062-6.710938 1.441406-.941406-.503906-1.710937-1.507812-2.0625-2.683594-.308594-1.035156-.25-2.070312.167969-2.839844.648437-1.203124.644531-2.648437-.007813-3.847656-.65625-1.199218-1.871093-1.984375-3.230468-2.089844l-13.527344-1.03125c-1.714844-.125-3.324219.839844-4.007812 2.417969-.683594 1.578125-.289063 3.414063.976562 4.574219.652344.59375 1.039062 1.566406 1.070312 2.667969.035157 1.28125-.40625 2.523437-1.1875 3.320312-1.675781 1.71875-4.910156 2.023438-7.207031.679688-2.386719-1.394531-3.972656-4.425781-3.949219-7.539063.019532-3.101562 1.484376-6.355468 4.019532-8.921875 6.921875-7.007812 16.25-12.65625 18.402344-11.914062 1.488281.699219 3.476562 2.890625 5.234374 4.820312 1.597657 1.761719 3.25 3.578125 5.023438 4.925781l.714844.542969c3.113281 2.351563 6.058594 4.574219 7.332031 7.644531 1.105469 2.652344.667969 5.875-1.050781 7.832032zm0 0"/><path d="m118.1875 168.488281 19.273438-.820312c3.28125-.140625 8.246093-.355469 11.863281-3.714844 3.035156-2.8125 3.953125-6.648437 4.144531-10.25h12.996094c.191406 3.601563 1.109375 7.4375 4.140625 10.25 3.625 3.359375 8.585937 3.574219 11.867187 3.714844l19.273438.820312c1.207031.050781 2.527344.109375 3.910156.109375 4.054688 0 8.671875-.484375 12.664062-2.976562 4.292969-2.683594 7.347657-7.382813 8.601563-13.234375 1.050781-4.921875.71875-9.976563.453125-14.042969-.261719-4.027344-4.457031-4.441406-8.894531-4.882812-2.894531-.285157-6.910157-.546876-11.9375-.777344-8.957031-.40625-18.027344-.574219-19.441407-.589844-.636718-.007812-1.601562-.085938-2.625-.167969-4.488281-.363281-10.070312-.8125-13.535156 1.773438-3.613281 2.699219-4.273437 7.617187-4.410156 11.941406h-13.128906c-.136719-4.324219-.796875-9.242187-4.414063-11.941406-3.464843-2.585938-9.046875-2.136719-13.53125-1.773438-1.023437.082031-1.988281.160157-2.625.167969-1.414062.015625-10.484375.183594-19.441406.589844-5.027344.226562-9.042969.488281-11.9375.777344-4.4375.441406-8.632813.855468-8.894531 4.882812-.269532 4.066406-.597656 9.121094.453125 14.046875 1.257812 5.847656 4.308593 10.546875 8.597656 13.226563 3.996094 2.496093 8.613281 2.980468 12.667969 2.980468 1.382812 0 2.703125-.058594 3.910156-.109375zm56.332031-17.84375c.027344-.664062.03125-1.4375.035157-2.277343.007812-1.8125.035156-7.332032 1.199218-8.199219.535156-.34375 1.84375-.449219 3.292969-.449219 1.769531 0 3.746094.160156 4.78125.242188 1.21875.097656 2.269531.183593 3.179687.195312 7.808594.089844 26.011719.683594 32.488282 1.511719.148437 2.988281.160156 6.132812-.460938 9.03125-.78125 3.644531-2.601562 6.589843-4.988281 8.082031-2.996094 1.871094-7.1875 1.855469-11.960937 1.652344l-19.273438-.820313c-2.78125-.121093-5.386719-.328125-6.726562-1.570312-1.617188-1.503907-1.667969-4.941407-1.566407-7.398438zm-73.625.054688c-.621093-2.898438-.609375-6.042969-.460937-9.027344 6.476562-.832031 24.679687-1.425781 32.484375-1.515625.914062-.011719 1.964843-.097656 3.183593-.191406 1.882813-.15625 6.886719-.558594 8.066407.195312 1.171875.878906 1.199219 6.394532 1.207031 8.210938.007812.839844.011719 1.609375.039062 2.277344.101563 2.453124.046876 5.894531-1.574218 7.394531-1.335938 1.242187-3.941406 1.453125-6.722656 1.570312l-19.273438.820313c-4.773438.203125-8.964844.222656-11.960938-1.652344-2.386718-1.492188-4.203124-4.4375-4.988281-8.082031zm0 0"/><path d="m314.796875 402.75c-7.558594-39.660156-27.886719-72.359375-55.773437-89.71875-3.894532-2.421875-7.960938-4.578125-11.894532-6.660156-6.113281-3.238282-11.886718-6.296875-17.082031-10.28125-9.390625-7.203125-14.554687-16.609375-13.808594-25.160156.011719-.152344-.003906-.300782-.007812-.453126.847656-.558593 1.734375-1.105468 2.644531-1.664062 2.164062-1.328125 4.398438-2.699219 6.46875-4.488281 5.597656-4.839844 8.636719-11.550781 11.046875-17.460938 4.234375-10.386719 8.828125-23.53125 12.078125-37.953125 8.277344-2.707031 15.121094-7.953125 19.285156-14.808594 4.621094-7.597656 5.5625-17.148437 2.457032-24.917968-3.046876-7.621094-9.882813-13.257813-17.546876-14.742188.34375-12.933594 1.800782-25.613281 3.316407-38.847656.808593-7.050781 1.648437-14.347656 2.296875-21.675781 2.601562-29.261719-1.890625-51.511719-13.742188-68.027344-2.414062-3.367187-6.292968-8.042969-12.054687-9.765625-3.335938-.996094-7.273438-.648438-10.46875 1.015625-2.824219-5.445313-7.65625-9.851563-13.445313-11.980469-6.738281-2.472656-14.492187-1.75-20.726562 1.746094-4.292969-4.578125-10.558594-7.207031-16.878906-6.8789062-6.34375.3242182-12.304688 3.5820312-16.109376 8.5859372-5.621093-2.902343-11.84375-5.71875-18.675781-6.425781-8.207031-.855469-15.875 1.808594-20.613281 6.929688-3.308594-1.875-7.5-3.753907-12.152344-4.351563-6.734375-.871094-13.164062 1.214844-17.214844 5.574219-3.082031 3.320312-4.421874 7.886718-3.925781 12.101562-1.925781.359375-3.835937 1.097656-5.660156 2.195313-5.050781 3.050781-8.792969 8.53125-9.757813 14.296875-1.484374 8.871094 1.964844 17.304687 5.824219 24.523437-5.378906 21.027344-7.667969 42.757813-6.808593 64.617188.40625 10.289062 2.105468 20.296875 3.78125 29.984375-7.519532 1.871094-14.078126 7.367187-17.09375 14.527344-3.328126 7.894531-2.210938 17.46875 2.847656 24.390624 4.386718 6.003907 11.578125 9.78125 18.976562 10.171876.515625 7.804687 1.425782 15.652343 3.394532 23.324218 4.132812 16.140625 12.683593 28.9375 24.078124 36.03125.371094.230469.753907.449219 1.132813.671875-.222656.988281-.085937 2.054688.480469 2.988281 5.929687 9.773438 1.808594 22.996094-5.332032 31.007813-8.132812 9.132813-19.988281 14.246094-31.433593 18.703125l-2.960938 1.144531c-11.328125 4.375-23.039062 8.902344-32.636719 17-10.65625 8.988281-23.492187 24.933594-28.222656 68.765625-3.261718 30.183594-3.753906 60.839844-1.464844 91.113282.195313 2.578124.488282 6.480468 2.988282 9.566406 4.28125 5.28125 11.757812 4.625 15.351562 4.308594 11.640625-1.019532 23.851563-.671876 35.664063-.335938 5.960937.171875 12.121093.347656 18.164062.347656h.015625l59.4375-.003906c9.996094-.003906 20.175782-.132812 30.019532-.257812 19.609374-.246094 39.886718-.503907 59.675781.242187 4.492187.167969 9.003906.234375 13.515625.234375 8.566406 0 17.121094-.242188 25.488281-.476562 16.164063-.457032 32.878906-.929688 49.242187.367187 2.167969.183594 4.078126-1.398437 4.324219-3.554687 3.4375-29.882813 6.488281-68.886719-.503906-105.585938zm-115.710937-22.671875c-6.027344-9.445313-15.382813-16.730469-25.945313-20.492187.492187-.46875.933594-.925782 1.324219-1.332032l47.679687-49.457031c1.820313 25.582031-6.617187 51.609375-23.058593 71.28125zm-96.878907-67.859375c16.269531 16.9375 34.097657 32.476562 53.097657 46.257812-.246094.347657-.425782.742188-.550782 1.160157-9.417968 4.367187-17.160156 11.972656-21.628906 21.414062l-.125.269531c-.394531.828126-1.304688 2.765626-1.78125 2.917969-.007812.003907-.648438.140625-2.78125-1.429687-21.242188-15.644532-31.933594-44.851563-26.230469-70.589844zm160.515625-140.042969c2.183594 5.464844 1.472656 12.261719-1.855468 17.738281-2.371094 3.902344-6.070313 7.214844-10.5 9.496094 1.796874-10.335937 2.777343-21.136718 2.359374-31.910156-.0625-1.601562-.09375-3.1875-.117187-4.773438 4.394531 1.375 8.308594 4.929688 10.113281 9.449219zm-200.8125 20.042969c-3.421875-4.683594-4.179687-11.160156-1.925781-16.503906 1.96875-4.671875 6.160156-8.300782 11.019531-9.691406 1.21875 7.410156 2.277344 14.96875 2.570313 22.558593.0625 1.554688.117187 3.113281.171875 4.671875.070312 1.917969.136718 3.84375.21875 5.78125-4.722656-.480468-9.242188-2.972656-12.054688-6.816406zm23.671875 36.253906c-2.921875-11.414062-3.355469-23.660156-3.777343-35.503906-.054688-1.570312-.109376-3.136719-.171876-4.703125-.414062-10.621094-2.195312-20.917969-3.917968-30.875-1.667969-9.652344-3.394532-19.628906-3.789063-29.632813-.851562-21.597656 1.488281-43.066406 6.949219-63.800781.265625-1 .132812-2.066406-.367188-2.972656-3.476562-6.308594-6.875-13.699219-5.699218-20.71875.578125-3.460937 2.921875-6.882813 5.96875-8.726563 1.070312-.644531 2.554687-1.289062 4.226562-1.289062.640625 0 1.304688.09375 1.984375.320312 1.722657.5625 3.601563-.078124 4.609375-1.578124 1.007813-1.496094.898438-3.484376-.273437-4.859376-1.761719-2.078124-1.398438-5.960937.777343-8.304687 2.246094-2.417969 6.183594-3.597656 10.277344-3.066406 3.578125.460937 7.394532 2.078125 12.015625 5.089843.929688.601563 2.066407.800782 3.144531.539063 1.078126-.257813 2-.949219 2.550782-1.910156 2.941406-5.121094 9.789062-6.839844 15.253906-6.273438 6.652344.691407 12.960938 4.042969 19.066406 7.285157.96875.511718 2.105469.609374 3.144532.269531 1.042968-.339844 1.902343-1.089844 2.375-2.078125 2.078124-4.304688 6.675781-7.355469 11.445312-7.601563 4.746094-.242187 9.65625 2.328125 12.160156 6.394531.609375.992188 1.617188 1.667969 2.765625 1.863282 1.152344.1875 2.324219-.121094 3.222657-.859375 4.394531-3.601563 10.929687-4.710938 16.265624-2.746094 5.335938 1.960937 9.601563 7.03125 10.621094 12.625.328125 1.808594 1.839844 3.164063 3.671875 3.296875 1.839844.125 3.527344-.988281 4.113281-2.730469.597657-1.769531 3.554688-2.792969 5.976563-2.074219 2.585937.777344 5.070313 2.917969 7.816406 6.746094 10.675781 14.875 14.6875 35.355469 12.261719 62.609375-.644531 7.226563-1.472656 14.46875-2.277344 21.472657-1.96875 17.167968-4.003906 34.921874-3.300781 53.132812 1.089844 28.238281-7.960937 56.917969-15.746094 76.007812-2.054687 5.046876-4.605469 10.734376-8.851562 14.40625-1.574219 1.359376-3.4375 2.503907-5.414063 3.714844-2.203125 1.351563-4.480468 2.75-6.585937 4.589844-5.898438 5.164062-8.757813 12.230469-11.523438 19.066406-.464843 1.144532-.921875 2.28125-1.398437 3.402344-3.164063 7.5-6.339844 12.390625-10.292969 15.855469-4.714844 4.132812-10.6875 5.855469-15.582031 4.5-2.933594-.8125-5.65625-2.707031-8.535156-4.707031-2.332032-1.617188-4.738282-3.289063-7.484376-4.566407-2.363281-1.097656-4.863281-1.871093-7.28125-2.617187-4.785156-1.476563-8.914062-2.753906-10.695312-5.953125-.800781-1.441407-1.117188-3.371094-1.453125-5.414063-.289063-1.769531-.589844-3.59375-1.222656-5.464844-3.046875-8.964843-11.582031-13.234374-19.113281-17.003906-2.636719-1.320312-5.125-2.566406-7.378907-3.96875-9.625-5.992187-16.914062-17.070312-20.53125-31.1875zm27.5625 44.019532c5.445313 2.832031 10.167969 5.859374 11.828125 10.734374.417969 1.234376.652344 2.660157.898438 4.167969.410156 2.515625.878906 5.363281 2.363281 8.035157 3.351563 6.027343 9.730469 7.996093 15.359375 9.734374 2.261719.699219 4.394531 1.359376 6.261719 2.226563 2.117187.984375 4.144531 2.390625 6.285156 3.878906 3.304687 2.296875 6.726563 4.671875 10.980469 5.851563 1.789062.496094 3.65625.734375 5.550781.734375 6.035156 0 12.375-2.449219 17.5-6.941407 6.300781-5.523437 9.941406-12.9375 12.410156-18.78125.488281-1.160156.964844-2.335937 1.441407-3.515624 1.46875-3.628907 2.902343-7.128907 4.710937-10.199219 1.5 7.144531 5.652344 14.210937 11.964844 20.253906l-52.039063 53.984375c-.851562.886719-2.140625 2.222656-3.035156 2.363281-1.097656.164063-3.109375-1.261719-4.074219-1.953125-20.011719-14.367187-38.710937-30.730468-55.644531-48.636718 8.515625-10.808594 9.816406-22.847657 7.238281-31.9375zm109.890625 231.214843c-19.992187-.753906-40.375-.496093-60.082031-.246093-9.820313.125-19.972656.253906-29.914063.253906l-59.441406.007812c-.003906 0-.007812 0-.015625 0-2.316406 0-4.664062-.03125-7.015625-.074218 1.351563-15.761719 2.328125-31.613282 2.933594-47.492188 24.257812.375 48.648438.570312 73.0625.570312 33.683594 0 67.40625-.359374 100.851562-1.078124.050782 0 .101563-.015626.152344-.019532.808594 16.121094 2.1875 32.210938 4.128906 48.183594-8.214843.164062-16.5.203125-24.660156-.105469zm84.6875-.128906c-15.515625-.980469-31.105468-.539063-46.214844-.113281-1.898437.050781-3.800781.105468-5.714843.15625-4.386719-35.75-5.921875-72.089844-4.539063-108.070313.085938-2.222656-1.648437-4.097656-3.875-4.183593-2.199218-.074219-4.097656 1.648437-4.183594 3.875-.667968 17.398437-.652343 34.882812.015626 52.347656-57.535157 1.230468-115.875 1.398437-173.4375.503906.660156-21.921875.613281-43.875-.15625-65.679688-.082032-2.226562-1.953126-4.003906-4.171876-3.886718-2.226562.078125-3.964843 1.945312-3.886718 4.171875 1.421875 40.125.382812 80.738281-3.066406 120.757812-.949219-.027343-1.902344-.050781-2.84375-.078125-12.039063-.34375-24.488282-.703125-36.597657.363282-3.363281.292968-6.988281.363281-8.378906-1.355469-.847656-1.042969-1.058594-3.007813-1.21875-5.097657-2.25-29.785156-1.765625-59.945312 1.441406-89.640624 2.324219-21.53125 7.3125-48.199219 25.40625-63.46875 8.566407-7.226563 19.636719-11.503907 30.34375-15.636719l2.980469-1.15625c7.773438-3.027344 16.21875-6.574219 23.746094-11.617188-1.71875 11.960938-.511719 24.648438 3.585937 36.554688 5.144531 14.953125 14.628907 28.085937 26.703125 36.976562 1.21875.898438 4.078125 3.003907 7.519532 3.003907.804687 0 1.640624-.113282 2.496093-.386719 3.816407-1.222657 5.5-4.792969 6.617188-7.160157l.121093-.257812c4.15625-8.78125 12.128907-15.882812 21.332032-18.996094.234375-.078125.445312-.183594.652344-.296875 13.714843 1.898438 26.363281 10.96875 32.277343 23.523438.566407 1.207031 1.695313 2.054687 3.015625 2.265625.210938.035156.421875.050781.628906.050781 1.105469 0 2.171876-.453125 2.9375-1.273437 20.925782-22.257813 31.585938-53.484376 28.734376-83.882813 4.355468 2.824219 8.914062 5.246094 13.363281 7.605469 3.808593 2.019531 7.75 4.105468 11.40625 6.382812 25.980469 16.167969 44.976562 46.921875 52.113281 84.378906 6.5 34.09375 4.027344 70.554688.847656 99.320313zm0 0"/></svg>