<svg height="512pt" viewBox="-88 0 512 512.00101" width="512pt" xmlns="http://www.w3.org/2000/svg"><path d="m337.125 485.046875c-.066406-26.296875-.132812-53.492187-5.269531-79.976563-5.78125-29.832031-17.769531-55.03125-34.671875-72.871093-6.773438-7.148438-14.453125-13.292969-22.265625-19.058594 9.796875-6.644531 17.003906-17.117187 19.550781-28.679687 2.8125-12.761719-.066406-26.714844-7.699219-37.320313-1.117187-1.554687-2.34375-3.085937-3.53125-4.566406-3.988281-4.976563-7.757812-9.675781-7.164062-14.652344.578125-4.816406 5.105469-8.421875 9.894531-12.242187 2.046875-1.628907 4.160156-3.3125 6.0625-5.167969 12.984375-12.664063 14.136719-35.128907 2.519531-49.058594-2.71875-3.257813-5.929687-5.949219-9.035156-8.554687-4.347656-3.644532-8.453125-7.085938-10.660156-11.605469-1.429688-2.933594-2.027344-6.269531-2.453125-9.8125 11.742187-5.804688 24.410156-12.625 33.125-23.871094 9.3125-12.019531 13.175781-31.820313 1.996094-44.839844-7.511719-8.753906-19.402344-11.585937-28.921876-13.074219-13.652343-2.136718-28.320312-2.890624-44.414062-2.269531-10.53125-24.386719-34.96875-42.648437-62.414062-46.582031-26.25-3.757812-54.269532 5.175781-74.96875 23.902344-19.253907 17.425781-32.003907 43.199218-34.976563 70.722656-.023437.195312-.011719.386719-.003906.578125-13.230469 7.640625-24.304688 15.71875-33.890625 24.664063-6.554688 6.109374-15.320313 15.632812-15.800782 27.695312-.457031 11.460938 7.078126 23.015625 19.195313 29.441406 9.289063 4.925782 19.8125 6.53125 29.464844 7.671875-2.269531 3.453125-4.628907 6.855469-6.972657 10.234375-11.214843 16.15625-22.8125 32.867188-23.4375 53.042969-.453124 14.753906 5.613282 29.679687 16.234376 39.925781 8.703124 8.398438 20.4375 13.617188 32.496093 14.691406-3.425781 2.308594-6.910156 4.566407-10.332031 6.773438-14.230469 9.179688-28.949219 18.675781-39.644531 32.441406-16.980469 21.855469-20.933594 50.285156-23.769531 79.9375-1.800782 18.800782-3.492188 37.863282-5.03125 56.660156-.859376 10.464844-.578126 21.050782 7.195312 27.597657 5.554688 4.675781 13.0625 5.175781 18.804688 5.175781.832031 0 1.625-.007812 2.371093-.019531l287.941407-3.785157c3.828124-.046874 9.074218-.117187 13.339843-3.132812 7.175781-5.074219 7.148438-15.164062 7.136719-20.015625zm-56.789062-325.96875c2.964843 2.484375 5.765624 4.832031 8.019531 7.535156 8.875 10.640625 7.960937 28.453125-1.957031 38.125-1.609376 1.574219-3.476563 3.0625-5.453126 4.636719-5.582031 4.445312-11.90625 9.484375-12.875 17.585938-1 8.339843 4.25 14.882812 8.878907 20.65625 1.171875 1.464843 2.28125 2.847656 3.277343 4.230468 6.316407 8.773438 8.695313 20.316406 6.371094 30.875-2.324218 10.542969-9.320312 20.003906-18.714844 25.316406-.972656-.691406-1.941406-1.382812-2.90625-2.070312-6-4.269531-12.203124-8.679688-17.972656-13.320312-19.15625-15.402344-29.828125-31.523438-31.785156-47.933594 13.925781-12.214844 23.359375-29.808594 25.570312-48.164063 8.140626 2.628907 16.878907 1.964844 23.847657-2.011719 9.652343-5.503906 14.65625-17.207031 11.640625-27.222656-1.605469-5.347656-5.78125-10.046875-11.167969-12.574218-3.359375-1.574219-6.949219-2.167969-10.359375-1.8125-.4375-3.070313-1.328125-6.074219-2.929688-8.644532-2.195312-3.523437-5.515624-5.847656-9.601562-6.722656-8.648438-1.855469-17.898438-2.304688-27.234375-2.109375-.097656-.082031-.183594-.171875-.289063-.246094-16.082031-11.214843-28.167968-28.453125-33.285156-47.386719 16.566406-.488281 33.183594 1.609376 48.921875 6.410157 12.242188 3.734375 27.726563 11.035156 31.972657 24.605469.835937 2.667968 1.21875 5.535156 1.546874 8.546874-.710937 1.140626-.84375 2.605469-.210937 3.902344.195313.394532.453125.726563.742187 1.023438.5 4.207031 1.246094 8.460937 3.226563 12.519531 2.957031 6.0625 7.925781 10.222656 12.726563 14.25zm-103.203126-58.742187c5.546876 13.652343 14.417969 26.046874 25.546876 35.691406-2.800782.1875-5.589844.40625-8.351563.628906-5.578125.457031-11.941406 1.285156-16.871094 5.351562-5.472656 4.507813-7.257812 11.300782-7.863281 17.144532l-4.695312.800781c-1.09375-5.566406-3.789063-10.703125-7.894532-14.515625 8.90625-13.90625 15.746094-29.132812 20.128906-45.101562zm76.289063 70.957031c.464844-1.855469 1.3125-5.757813 1.585937-10.292969 2.117188-.351562 4.457032.003906 6.675782 1.042969 3.34375 1.570312 5.914062 4.40625 6.875 7.597656 1.925781 6.402344-1.550782 14.265625-7.917969 17.894531-4.808594 2.746094-11.089844 3.207032-16.960937 1.449219 4.585937-4.707031 8.039062-10.859375 9.742187-17.691406zm-7.824219-1.953125c-2.089844 8.382812-7.378906 15.421875-14.144531 18.824218-6.78125 3.410157-15.273437 3.464844-22.765625 3.511719-9.792969.066407-19.082031-.347656-24.945312-5.90625-4.5625-4.324219-6.703126-11.769531-6.371094-22.128906.25-7.683594 1.953125-12.726563 5.210937-15.410156 3.128907-2.582031 7.84375-3.160157 12.402344-3.535157 7.894531-.648437 16.003906-1.222656 23.914063-1.222656 7.5 0 14.828124.515625 21.625 1.976563 1.980468.421875 3.394531 1.410156 4.453124 3.105469 3.0625 4.910156 2.25 14.265624.621094 20.785156zm-93.183594-17.109375c4.941407 5.371093 6.40625 14.125 3.421876 21.5-3.039063 7.503906-10.390626 13.597656-19.1875 15.898437-6.222657 1.628906-13.3125 1.484375-20.449219-.347656 13.933593-10.355469 26.164062-22.921875 36.214843-37.050781zm-44.546874 42.851562c5.121093 1.945313 11.9375 3.773438 19.539062 3.773438 3.621094 0 7.417969-.414063 11.285156-1.425781 11.210938-2.933594 20.640625-10.855469 24.617188-20.671876 1.140625-2.820312 1.816406-5.761718 2.050781-8.699218l3.945313-.675782c.289062 10.757813 3.265624 18.902344 8.890624 24.234376 7.683594 7.285156 18.511719 8.121093 29.113282 8.121093.476562 0 .953125 0 1.425781-.003906 7.597656-.046875 16.105469-.109375 23.941406-3.292969-2.644531 19.78125-14.652343 38.476563-31.726562 48.777344-18.769531 11.320312-43.660157 12.5-63.417969 3-18.941406-9.109375-33.167969-28.039062-36.84375-48.738281 2.4375-1.402344 4.828125-2.871094 7.179688-4.398438zm18.285156 55.953125c2.535156 1.652344 5.164062 3.144532 7.886718 4.449219 9.960938 4.792969 21.085938 7.160156 32.230469 7.160156 13.625 0 27.273438-3.542969 38.84375-10.523437.960938-.578125 1.902344-1.1875 2.832031-1.8125 1.597657 7.78125 4.875 15.433594 9.808594 22.929687-.117187.332031-.207031.675781-.234375 1.039063-1.476562 20.34375-3.871093 41.871094-11.3125 61.433594-8.027343 21.097656-21.410156 37.542968-37.683593 46.304687-.386719.207031-.789063.414063-1.195313.617187 2.089844-8.8125 2.832031-17.84375 2.164063-26.929687-.160157-2.21875-2.09375-3.882813-4.3125-3.722656-2.222657.160156-3.890626 2.09375-3.726563 4.3125.683594 9.320312-.261719 18.578125-2.765625 27.558593-2.144531-.820312-4.222656-2.472656-6.1875-4.207031-14.78125-13.074219-25.71875-30.777343-30.796875-49.84375-4.886719-18.355469-8.765625-36.359375-2.820313-54.765625 5.144532-9.214844 6.929688-17.5 7.269532-24zm-18.332032 41.230469c-.429687 13.371094 2.582032 26.421875 6.09375 39.605469 5.480469 20.589844 17.289063 39.699218 33.246094 53.8125 1.679688 1.484375 3.546875 2.996094 5.617188 4.214844-13.402344 7.332031-29.160156 9.292968-42.902344 5.171874-15.695312-4.707031-28.265625-17.453124-32.023438-32.472656-2.9375-11.734375-.847656-25.472656 5.886719-38.683594 6.0625-11.894531 15.082031-22.234374 24.082031-31.648437zm64.527344 96.847656c17.976563-9.675781 32.675782-27.625 41.394532-50.535156 6.765624-17.777344 9.53125-36.824219 11.144531-55.21875 14.464843 13.203125 21.457031 30.933594 24.796875 43.945313 4 15.605468 3.964844 29.246093-.109375 40.546874-5.777344 16.023438-20.894531 28.726563-38.519531 32.367188-14.8125 3.054688-31.128907-.117188-44.796876-8.496094 2.210938-.640625 4.253907-1.621094 6.089844-2.609375zm-70.136718-358.386719c18.941406-17.140624 44.515624-25.332031 68.414062-21.898437 15.386719 2.203125 29.710938 9.382813 40.613281 19.757813-47.042969-1.308594-95.082031 12.683593-134.199219 38.945312 5.703126-14.242188 14.3125-26.976562 25.171876-36.804688zm-29.410157 49.675782c40.648438-30.417969 93.019531-46.292969 143.722657-43.539063.667968.03125 1.296874-.113281 1.867187-.371093 2.761719 3.558593 5.160156 7.371093 7.128906 11.390624-4.554687.304688-9.21875.710938-14.007812 1.222657-42.492188 4.53125-83.789063 15.726562-122.75 33.269531-6.480469 2.921875-12.546875 5.867188-18.242188 8.871094.574219-3.667969 1.347657-7.28125 2.28125-10.84375zm-7.6875 97.496094c-10.308593-1.167969-20.96875-2.382813-30.011719-7.175782-7.695312-4.082031-15.292968-12.464844-14.914062-21.996094.363281-9.09375 7.730469-16.980468 13.242188-22.121093 14.804687-13.8125 33.441406-25.53125 58.640624-36.878907 38.183594-17.191406 78.65625-28.160156 120.292969-32.605468 24.632813-2.628906 45.890625-2.453125 64.988281.535156 8.15625 1.277344 18.257813 3.609375 24.054688 10.359375 8.089844 9.425781 5.207031 25.019531-2.253906 34.652344-7.023438 9.070312-17.550782 15.148437-27.730469 20.285156-.316406-2.175781-.746094-4.359375-1.421875-6.523437-4.191406-13.398438-17.09375-23.742188-37.316406-29.910157-41.632813-12.703125-89.101563-7.472656-126.976563 13.984375-8.277343 4.691406-19.875 12.320313-25.035156 24.394532-2.644531 6.183593-3.300781 12.707031-3.9375 19.015624-.328125 3.238282-.636719 6.300782-1.195313 9.304688-1.617187 8.679688-5.386718 16.871094-10.03125 24.765625-.132812-.027344-.257812-.070313-.394531-.085937zm-26.671875 71.148437c.550782-17.789063 10.96875-32.804687 22-48.699219 9.757813-14.058594 19.847656-28.597656 23.019532-45.652344.621093-3.335937.964843-6.707031 1.292968-9.96875.601563-5.96875 1.171875-11.605468 3.332032-16.65625 4.199218-9.832031 14.335937-16.433593 21.59375-20.546874 18.871093-10.695313 40.253906-17.136719 62.023437-19.117188-8.988281 44.207031-37.882813 83.589844-77.371094 105.410156-1.453125.800782-2.265625 2.410156-2.050781 4.058594 2.386719 18.003906 11.972656 35.054688 25.753906 47.023438-.015625.203124-.027344.40625-.011718.613281.492187 5.695312-.179688 14.4375-5.71875 24.757812-.347657.390625-.625.859375-.804688 1.386719-.015625.050781-.03125.101562-.050781.152344-4.34375 7.542968-11.320313 15.863281-22.300781 24.414062-.730469-.515625-1.625-.8125-2.589844-.753906-12.496094.835938-25.335938-3.855469-34.34375-12.550781-9.011719-8.695313-14.160156-21.355469-13.773438-33.871094zm286.890625 249.429687c-2.054687 1.453126-5.195312 1.609376-8.789062 1.65625l-59.058594.773438c-.871094-30.960938 4.304687-62.636719 15.011719-91.683594.769531-2.089844-.300782-4.410156-2.390625-5.179687-2.085938-.769531-4.40625.300781-5.175781 2.390625-11.046876 29.964844-16.390626 62.640625-15.503907 94.582031l-169.445312 2.226563c2.042969-32.917969-.691407-65.890626-8.148438-98.023438-.503906-2.167969-2.667969-3.519531-4.839843-3.015625-2.167969.5-3.519532 2.667969-3.015626 4.835937 7.328126 31.570313 9.988282 63.96875 7.921876 96.308594l-43.296876.570313c-6.234374.089843-12.128906-.105469-15.878906-3.261719-4.980468-4.191406-5.035156-12.460938-4.355468-20.773438 1.535156-18.757812 3.226562-37.785156 5.023437-56.546874 2.71875-28.425782 6.460937-55.609376 22.113281-75.757813 9.851563-12.683594 23.351563-21.394531 37.648438-30.613281 2.824218-1.824219 5.699218-3.679688 8.558594-5.578125-1.859376 2.855469-3.597657 5.804687-5.15625 8.871093-7.617188 14.941407-9.933594 30.675782-6.527344 44.296876 4.433594 17.726562 19.164062 32.734374 37.53125 38.242187 16.332031 4.898437 35.066406 2.382813 50.664062-6.695313 12.355469 8.660157 27.09375 13.316407 41.511719 13.316407 4.371094 0 8.714844-.429688 12.949219-1.304688 20.3125-4.191406 37.765625-18.921875 44.472656-37.523437 4.636719-12.851563 4.746094-28.085938.335938-45.285156-1.527344-5.949219-3.769532-12.820313-7.039063-19.859376 3.285156 2.421876 6.59375 4.78125 9.847656 7.09375 10.78125 7.671876 21.929688 15.601563 31.027344 25.207032 15.847656 16.726562 27.121094 40.535156 32.613281 68.859375 4.988282 25.738281 5.054688 52.539062 5.117188 78.460937.015625 5.585938-.425782 11.078125-3.726563 13.410156zm0 0"/></svg>