<svg id="Capa_1" enable-background="new 0 0 512 512" height="512" viewBox="0 0 512 512" width="512" xmlns="http://www.w3.org/2000/svg"><g><g><path d="m509.119 280.314-26.005-4.689c-.062-.011-.107-.067-.106-.13.429-47.389 13.686-38.664-25.785-44.92-.062-.01-.111-.066-.111-.129-.191-52.427 13.638-37.089-37.258-52.256-.046-.014-.081-.053-.091-.099-11.629-55.798 4.772-45.057-37.863-50.98-.053-.007-.098-.049-.11-.101-9.866-43.657 1.167-28.841-47.565-31.329-.061-.003-.114-.049-.123-.11l-2.895-19.852c-.264-1.809-1.874-3.117-3.699-2.989l-64.362 4.291c-.04.003-.079-.014-.105-.045-15.122-18.334-48.1-23.104-62.595-2.028-.035.05-.1.068-.155.043-35.512-16.403-73.794 24.113-76.772 58.041-.005.061-.053.108-.114.113-32.8 2.626-61.348 30.702-68.593 63.353-.012.054-.057.092-.111.097-29.703 2.406-48.597 42.083-32.055 66.767.036.054.025.126-.026.167-30.89 24.595-30.168 70.709 2.343 92.719.041.028.062.078.053.128-12.312 63.757 48.658 107.884 100.894 67.671.055-.042.134-.032.177.023 27.376 35.199 72.746 22.331 92.984-10.597.014-.022.034-.039.058-.049 17.048-6.987 31.095-20.308 40.129-37.415.059-.111.224-.075.239.05 5.231 46.282-4.852 30.589 47.895 32.698.062.003.114.042.123.103.26 1.8 4.007 27.714 5.286 36.558.244 1.685 1.664 3.013 3.367 3 2.473-.019 73.177 5.096 85.88.785 1.034-.351 1.816-1.189 2.072-2.25 1.147-4.751 5.382-22.307 5.721-23.711.014-.057.064-.09.123-.091 61.453-.943 48.415 14.037 57.991-29.331.008-.034.022-.063.051-.083 2.54-1.674 42.059-7.362 40.17-12.282 0-.001 3.826-97.553 3.826-97.553.064-1.75-1.164-3.278-2.883-3.588zm-344.814-196.897c36.01-19.558 60.402 17.404 39.524 52.33-.949 1.684-.354 3.82 1.331 4.771 1.654.942 3.816.371 4.772-1.329 10.646-18.581 13.261-46.01-3.553-60.262-.051-.044-.061-.12-.021-.175 14.299-19.732 47.078-9.805 56.363 10.14 16.346 29.579 6.786 71.903-15.261 97.417-.046.053-.124.059-.178.015-3.276-2.706-6.933-5.05-10.939-6.991-.076-.037-.098-.128-.04-.19 5.741-6.156 16.556-52.392 4.487-53.57-.017-.002-.035-.001-.052.002-1.892.346-3.153 2.154-2.821 4.05 4.733 28.104-7.615 63.062-37.49 66.91-.077.01-.146-.051-.146-.129.108-36.615-33.082-66.246-69.506-63.816-.081.005-.147-.063-.137-.143 2.357-18.945 16.615-39.818 33.667-49.03zm-137.18 141.836c5.216-11.456 14.939-19.305 26.323-21.395.084-.015.16.055.152.141-1.161 11.415.545 22.576 5.448 32.416.016.032.017.07.003.103-1.551 3.645-2.784 7.414-3.671 11.28-.011.047-.048.084-.095.094-9.913 2.169-18.955 5.972-26.842 11.28-.062.041-.146.022-.184-.041-5.886-9.954-6.346-22.431-1.134-33.878zm197.574 177.363c3.984-6.483 8.241-45.848-2.994-44.734-.014.001-.029.005-.043.009-1.828.6-2.833 2.564-2.244 4.399 17.592 53.3-52.537 104.139-88.051 57.161-.047-.062-.033-.147.035-.186 4.59-2.684 31.079-40.531 21.437-45.829-.013-.007-.028-.013-.043-.018-1.854-.512-3.779.566-4.305 2.419-22.971 79.824-124.961 76.212-116.962-15.141.008-.097.117-.15.198-.096 41.37 27.734 127.558-13.56 83.378-61.779-.004-.004-.009-.009-.013-.013-10.095-8.836-23.546-11.26-35.168-6.35-1.621.685-2.664 2.425-2.238 4.132.54 2.16 2.84 3.237 4.794 2.393 18.88-9.055 43.277 12.343 36.726 32.289-14.639 42.322-86.802 37.98-104.296 4.758-30.367-55.132 34.013-102.602 99.339-75.82 1.799.703 3.818-.174 4.533-1.958.007-.016.011-.034.013-.052 1.085-11.105-47.334-13.716-55.679-11.678-.095.023-.175-.064-.151-.159 8.698-33.8 51.11-56.712 83.977-44.878 1.829.603 3.803-.385 4.417-2.209.004-.013.008-.027.009-.041 1.145-9.324-28.902-8.094-35.756-6.746-.081.016-.151-.049-.149-.132.229-8.878 5.689-17.579 13.663-21.507 4.103-1.943.954-8.356-3.095-6.284-10.94 5.391-18.035 17.223-17.567 29.415.002.058-.035.11-.092.125-18.344 4.92-35.597 17.848-45.02 33.908-.058.098-.205.076-.234-.034-20.731-78.276 91.746-122.244 124.191-56.232 11.862 24.142 7.841 59.678-27.882 84.64-1.586 1.108-1.973 3.292-.865 4.878 6.391 6.784 28.042-21.099 30.885-26.092.037-.064.116-.077.179-.038 29.08 18.342 12.909 63.776-6.911 84.816-12.406 13.281-28.619 22.194-45.656 25.101-1.907.325-3.189 2.135-2.864 4.042 2.189 7.968 25.427-3.968 31.041-6.722.089-.044.182.03.173.13-1.854 19.978 10.034 40.648 28.834 48.301 1.746.724 3.836-.114 4.565-1.923.73-1.792-.132-3.835-1.923-4.565-17.867-7.272-28.383-28.354-23.486-47.003.008-.03.026-.056.051-.074 30.303-21.045 53.266-69.857 28.165-101.881-.071-.09 0-.215.114-.199 13.104 1.895 27.066-2.155 36.757-11.272 3.347-3.064-1.531-8.265-4.802-5.101-10.263 9.66-26.238 12.518-39.255 7.169-.067-.027-.098-.105-.069-.172 3.063-6.973 5.026-14.524 5.673-22.056.005-.061.053-.108.113-.113 12.74-1.157 24.105-7.638 32.066-18.353.036-.048.101-.065.155-.042 41.207 17.753 30.811 80.61-3.404 100.16-1.642 1.009-2.16 3.155-1.162 4.801.007.011.015.022.024.032 4.912 5.37 13.473-6.059 17.61-9.269.054-.042.13-.031.176.02 30.291 33.594 19.643 99.445-20.738 121.827-.113.067-.243-.061-.174-.174zm276.486-24.062c-46.379 13.479-36.385-2.54-45.242 38.794-.009.043-.032.082-.074.097-2.811 1.013-50.027-5.215-52.154 1.299-.001.001-5.601 23.206-6.005 24.881-.014.059-.066.094-.127.092l-78.168-2.22c-.062-.002-.114-.049-.124-.11-8.734-54.341 4.129-36.986-49.967-39.22-.064-.003-.118-.052-.125-.116l-4.074-39.69c-.002-.018 0-.036.006-.053 10.329-29.907 4.719-64.768-14.889-86.713-.041-.046-.043-.113-.004-.161 18.613-23.041 23.257-61.668 2.298-84.107-.044-.047-.046-.118-.003-.167 24.527-28.145 34.465-74.907 15.45-107.257-.048-.082.006-.184.101-.191l56.539-3.769c.067-.004.126.043.136.11l2.847 19.521c.26 1.784 1.79 3.107 3.593 3.107h38.083c.059 0 .111.042.126.1 9.271 37.477-2.341 29.007 36.498 34.438.054.008.099.05.111.103 12.031 56.774-7.193 41.532 45.235 56.764.055.016.094.068.095.124.691 49.436-12.8 40.333 26.576 46.607.063.01.111.067.111.131-.387 47.526-13.975 38.063 26.733 45.698.063.012.109.068.107.132l-3.594 91.657c-.003.056-.042.104-.095.119z"/><path d="m456.557 293.299 2.652-27.181c.246-2.037-1.555-3.969-3.608-3.841 0 0-28.383.987-28.383.987-4.539.094-4.295 7.222.244 7.001 0 0 24.387-.848 24.387-.848l-2.418 24.785c-5.52 1.568-10.239 5.057-13.376 9.704l-27.108-1.111c-1.091-7.652-6.887-13.805-14.369-15.395l1.119-27.513h29.162c1.935 0 3.503-1.568 3.503-3.503-2.517-55.759 11.712-48.339-28.124-48.542.092-37.102 4.466-24.502-35.242-25.856l.269-18.625 28.319-.457c1.934-.031 3.477-1.624 3.445-3.559-.031-1.934-1.616-3.492-3.559-3.445l-28.105.453c.695-33.989 3.848-24.5-27.442-24.796.463-24.526 1.476-16.097-27.021-17.56l.236-21.937c.022-1.947-1.556-3.542-3.504-3.54-1.917 0-3.481 1.544-3.502 3.465l-.237 22.012h-15.198c-1.935 0-3.503 1.568-3.503 3.503v37.119c-.035 2.765 2.734 3.846 5.116 3.503.319.777-.94 38.931 1.072 37.864 1.398 1.98 11.177.308 13.172.585 2.428 8.965 10.379 15.68 19.962 16.248 1.837 36.197-4.752 23.29 43.85 25.85.53 24.153-4.901 21.321 20.318 21.22l-1.114 27.4c-9.087 1.539-15.981 10.031-15.158 19.513l-12.782.498c-.757-62.165 14.255-54.088-27.831-53.92-1.486-12.183-11.871-21.656-24.441-21.69l-.667-16.892c-.038-1.966-1.909-3.594-3.865-3.345l-25.916 2.715c-4.519.407-3.787 7.508.73 6.967 0 0 22.198-2.325 22.198-2.325l.548 13.868c-24.708 6.644-22.651 44.201 2.721 48.045l-.507 9.971-24.625-3.212c-2.042-.312-4.021 1.438-3.956 3.504 0 0 .247 28.136.247 28.136-.025 4.538 7.112 4.487 7.005-.062 0 0-.212-24.111-.212-24.111 29.146 2.274 28.399 10.859 29.052-14.031 10.971-1.254 19.778-9.722 21.546-20.53l22.461-.204-1.612 50.651c-.031.971.343 1.912 1.033 2.597.996 2.175 18.94-.04 20.816.305 2.52 4.933 7.187 8.59 12.772 9.707l-3.046 31.11c-31.48-.212-20.858-3.182-22.673 30.024l-35.25 2.124-.201-24.48h18.089c1.934 0 3.503-1.568 3.503-3.503v-51.001c0-1.935-1.568-3.503-3.503-3.503h-17.07l.69-19.306c.069-1.933-1.442-3.556-3.375-3.625-1.911-.086-3.556 1.442-3.625 3.375l-.699 19.556c-32.099-.197-20.833-3.941-22.808 35.901l-17.304.649c-1.892.071-3.385 1.633-3.371 3.527l.247 32.333c-.03 4.538 7.106 4.495 7.005-.054 0 0-.221-28.933-.221-28.933l13.644-.511c-.632 20.957.042 13.874 21.792 15.095.533 44.546-6.245 29.676 42.456 29.374.432 3.014-1.748 11.496 3.503 11.36h16.262l.455 21.843c.038 1.935 1.649 3.472 3.574 3.429 1.934-.04 3.469-1.64 3.429-3.574l-.452-21.697h18.46c1.935 0 3.503-1.568 3.503-3.503v-41.397c0-1.935-1.568-3.503-3.503-3.503h-15.519l3.043-31.08c7.08-1.337 12.723-6.738 14.433-13.681l24.263.994c-4.082 13.547 5.516 28.265 19.23 30.249l-1.079 13.671-23.051-.862c-1.953-.107-3.696 1.596-3.633 3.546l.493 38.009c-.005 4.536 7.131 4.459 7.004-.091 0 0-.446-34.325-.446-34.325 28.621-.561 25.729 8.951 27.729-19.837 28.806-3.603 26.633-47.27-2.548-47.848zm-164.356-172.297h38.717v30.114h-38.717zm5.116 37.119h37.104c1.935 0 3.503-1.568 3.503-3.503v-16.051l20.703-.713-.638 44.207h-11.919c-8.552-20.969-41.381-15.353-42.246 7.525l-6.508.241v-31.706zm13.477 32.691c.104-19.669 29.985-19.667 30.086.001-.104 19.667-29.984 19.666-30.086-.001zm21.65 40.631-.947-19.323c9.982-2.588 17.239-12.345 16.313-23.054 8.946.167 36.079-.458 45.422-.666v19.441c-28.907.796-24.813-6.29-24.865 23.82zm42.929-16.596h45.983v38.035h-45.983zm-68.082 59.23c-23.252-.417-23.248-34.972.001-35.385 23.251.416 23.248 34.971-.001 35.385zm-3.121 37.142h36.379v43.996h-36.379zm98.971 84.73h-34.723v-34.392h34.723zm-12.394-79.151c-14.905-.079-14.904-22.723.001-22.8 14.905.079 14.903 22.723-.001 22.8zm65.242 17.552c-22.267-.118-22.265-33.945.001-34.06 22.265.119 22.264 33.946-.001 34.06z"/></g></g></svg>