<svg id="Capa_1" enable-background="new 0 0 512 512" height="512" viewBox="0 0 512 512" width="512" xmlns="http://www.w3.org/2000/svg"><g><g><path d="m474.277 212.208c8.125-19.627 1.446-44.541-16.49-58.687 7.219-11.516 8.799-26.11 4.2-41.965-.015-.05-.03-.1-.047-.149-9.376-27.657-31.166-47.155-52.238-66.011-6.978-6.23-14.08-12.54-20.503-19.391-23.5-24.484-57.9-32.545-88.886-20.466-22.014 8.582-37.678 25.842-44.313 47.582-6.635-21.742-22.299-39-44.312-47.582-32.335-12.606-68.386-3.279-91.888 23.753-5.574 5.432-11.637 10.857-17.501 16.105-21.073 18.855-42.862 38.353-52.239 66.01-.017.049-.032.099-.047.149-4.599 15.855-3.019 30.449 4.2 41.965-17.936 14.147-24.616 39.061-16.491 58.687-12.071 8.738-18.1 22.601-16.537 38.235 1.858 18.588 14.181 35.802 30.677 42.868 7.066 3.471 18.037 7.171 32.702 7.17 14.172-.001 31.805-3.484 52.666-13.946 13.48 10.785 28.633 16.426 44.168 16.425 1.211 0 2.427-.034 3.643-.103 15.602-.883 30.656-7.473 42.427-18.558 1.867 3.259 4.695 8.923 7.512 17.373 4.28 12.843 9.355 34.785 9.686 67.146-7.104.28-13.531.539-19.22.775-20.232.767-36.046 18.184-35.487 38.319h-27.41c-6.098 0-11.437 4.517-12.009 10.588-.656 6.967 4.831 12.849 11.666 12.849h26.966l-.323 9.632-33.928.465c-6.835 0-12.322 5.881-11.666 12.848.572 6.072 5.91 10.588 12.009 10.588h32.782l-.276 8.227c-.34 10.131 3.178 20.12 10.18 27.449 7.055 7.384 16.549 11.44 26.722 11.44.134 0 .27-.001.404-.002l70.25-.741c10.082-.107 19.503-4.215 26.455-11.553 6.744-7.119 10.217-16.73 10.105-26.535l-.095-8.286h34.96c6.099 0 11.438-4.517 12.01-10.589.656-6.967-4.834-12.848-11.618-12.847l-35.626-.488-.11-9.61h28.06c6.098 0 11.437-4.517 12.009-10.588.656-6.967-4.831-12.848-11.665-12.848h-28.672l-.043-3.724c-.116-10.058-4.017-19.81-11.242-26.808-7.306-7.076-16.919-10.773-27.092-10.395-5.615.208-11.002.41-16.176.604 1.781-56.519 15.828-70.972 20.141-74.091 24.822 14.893 55.049 11.821 78.042-6.965 20.864 10.463 38.494 13.946 52.667 13.946 14.662-.001 25.637-3.7 32.702-7.17 16.496-7.066 28.819-24.28 30.677-42.868 1.562-15.631-4.467-29.494-16.538-38.232zm-330.198 70.761c27.824-13.008 45.615-35.069 47.634-59.133 1.343-16.011-4.99-30.435-16.94-38.585-9.053-6.174-29.318-14.036-63.298 2.691-1.734.853-2.448 2.951-1.595 4.685.854 1.734 2.951 2.448 4.686 1.594 22.824-11.235 42.804-12.367 56.263-3.188 9.839 6.71 14.701 18.729 13.909 32.217-.84 14.298-13.307 40.296-48.98 56.188-19.981 8.902-52.197 21.699-80.886 7.552-.059-.029-.117-.056-.177-.081-14.263-6.071-24.93-21.006-26.546-37.163-1.27-12.703 3.397-23.977 12.833-31.252 10.659 15.893 27.007 24.144 47.651 24.143 25.268.496 56.579-14.675 69.186-22.759 1.65-1.005 2.174-3.158 1.169-4.809s-3.157-2.173-4.809-1.17c-11.291 6.874-33.76 18.781-57.366 21.292-22.518 2.394-39.388-4.593-50.142-20.767-10.526-17.262-5.239-41.801 11.726-55.292 11.232 12.646 28.006 18.351 45.565 18.434 14.068 0 28.517-3.888 40.491-11.663 1.621-1.053 2.082-3.22 1.029-4.841-1.054-1.62-3.219-2.082-4.841-1.029-15.584 10.119-35.731 12.999-52.763 8.617-3.305-17.704 3.293-35.88 17.798-48.826 14.81-13.217 34.099-17.635 51.605-11.819 1.834.61 3.815-.382 4.424-2.217.609-1.834-.383-3.815-2.217-4.424-19.908-6.618-41.769-1.669-58.472 13.238-15.34 13.691-22.818 32.656-20.589 51.566-3.758-1.551-7.283-3.497-10.464-5.858-14.205-10.545-18.908-27.139-13.25-46.731 8.801-25.876 29.873-44.734 50.251-62.969 5.956-5.329 12.114-10.84 17.826-16.411.069-.068.137-.14.201-.213 21.537-24.854 54.566-33.461 84.154-21.927 12.991 5.065 23.878 13.622 31.484 24.747 19.227 27.749 14.668 67.367-11.788 90.978-.361-17.529-7.896-34.7-21.21-47.839-2.974-2.935-6.153-5.564-9.48-7.904 10.448-8.803 16.358-22.908 15.14-36.527-.173-1.925-1.871-3.352-3.798-3.173-1.924.172-3.345 1.872-3.173 3.797 1.069 11.942-4.41 24.344-13.957 31.596-.156.118-.29.254-.42.391-11.761-6.597-24.997-9.657-38.151-8.57-1.926.16-3.358 1.85-3.199 3.777.16 1.926 1.834 3.348 3.777 3.199 17.414-1.449 35.038 5.262 48.346 18.395 13.492 13.274 20.267 30.964 19.047 48.596-10.748 7.175-24.407 13.083-41.527 5.073-1.737-.858-3.831-.146-4.688 1.587-.856 1.733-.146 3.831 1.587 4.688 14.04 6.938 30.002 5.801 44.945-3.205 2.463-1.484 4.849-3.156 7.15-4.977 9.284 5.181 15.157 15.295 15.447 26.841.305 12.191-5.68 23.107-15.618 28.488-.898.486-1.54 1.341-1.755 2.339-.216.999.016 2.042.634 2.855 23.479 30.894 14.374 63.35-5.065 81.81-18.725 17.782-49.859 25.345-78.794 3.948zm18.128 141.382c-2.602 0-4.72-2.117-4.72-4.719s2.118-4.72 4.72-4.72h27.518l-.317 9.439zm-7.285 33.534c-2.602 0-4.72-2.117-4.72-4.72 0-2.602 2.118-4.719 4.768-4.72l33.644-.46-.333 9.9zm212.174-9.439c2.602 0 4.72 2.117 4.72 4.719s-2.118 4.72-4.72 4.72h-35.384l-.114-9.925zm-7.285-33.534c2.602 0 4.719 2.117 4.719 4.72 0 2.602-2.117 4.719-4.719 4.719h-28.484l-.108-9.439zm-66.79-40.931c8.124-.304 15.875 2.627 21.775 8.247 5.898 5.62 9.2 13.202 9.293 21.349l.807 70.378c.093 8.008-2.941 15.57-8.541 21.295s-13.094 8.924-21.102 9.008l-70.25.741c-.109.001-.218.002-.328.002-8.129 0-15.724-3.196-21.416-9.021-5.769-5.903-8.794-13.697-8.516-21.946l2.301-68.518c.522-15.575 13.127-28.283 28.695-28.929 16.538-.687 39.175-1.564 67.282-2.606zm-41.357-5.436c-.128-12.079-.89-22.793-2.052-32.244h22.566c-1.303 8.873-2.233 19.301-2.603 31.556-6.34.24-12.315.47-17.911.688zm21.674-39.243h-24.691c-4.456-29.043-12.615-44.623-16.146-50.265 8.924-10.34 14.55-22.955 16.005-36.174 1.769-16.08-2.628-32.175-12.736-46.772 10.227-7.121 16.239-19.316 15.903-32.735-.329-13.156-6.703-24.821-16.914-31.493 9.564-9.189 17.104-21.04 21.243-33.266 4.139 12.227 11.679 24.077 21.242 33.266-10.211 6.672-16.585 18.337-16.914 31.493-.336 13.419 5.676 25.614 15.903 32.735-10.108 14.596-14.505 30.692-12.735 46.772 1.701 15.461 9.092 30.105 20.813 41.236 2 1.899 4.102 3.656 6.28 5.288-5.115 4.594-12.68 15.314-17.253 39.915zm210.512-79.555c-1.616 16.157-12.283 31.091-26.546 37.163-.059.025-.118.052-.177.081-9.539 4.704-19.52 6.548-29.319 6.547-22.366-.278-40.808-8.279-56.332-16.63-38.329-17.633-43.533-45.528-44.214-53.657-1.13-13.464 4.07-25.507 13.909-32.217 13.459-9.179 33.44-8.047 56.263 3.188 1.79.88 3.965.091 4.763-1.762.747-1.734-.139-3.766-1.835-4.598-33.882-16.623-54.095-8.776-63.135-2.611-11.95 8.15-18.283 22.574-16.94 38.585 2.019 24.064 19.81 46.125 47.634 59.133-28.936 21.397-60.07 13.834-78.792-3.946-19.439-18.46-28.544-50.916-5.066-81.811.618-.813.85-1.856.634-2.855-.215-.998-.856-1.853-1.755-2.339-9.938-5.381-15.922-16.297-15.618-28.488.29-11.547 6.163-21.66 15.447-26.841 2.301 1.821 4.688 3.492 7.151 4.977 14.89 8.975 30.793 10.135 44.798 3.277 1.532-.75 2.434-2.452 1.985-4.097-.602-2.203-3.002-3.21-4.939-2.25-17.126 8.009-30.772 2.104-41.527-5.073-1.22-17.632 5.555-35.322 19.047-48.596 13.309-13.132 30.931-19.834 48.346-18.395 1.985.154 3.714-1.356 3.787-3.365.069-1.885-1.482-3.473-3.362-3.623-13.112-1.051-26.287 2.011-37.998 8.582-.13-.138-.264-.273-.419-.391-9.548-7.252-15.026-19.654-13.956-31.595.172-1.925-1.249-3.625-3.173-3.798-1.932-.179-3.626 1.248-3.798 3.173-1.22 13.618 4.69 27.723 15.138 36.527-3.327 2.34-6.506 4.969-9.48 7.904-13.314 13.139-20.849 30.31-21.21 47.839-26.454-23.606-31.017-63.233-11.788-90.978 7.606-11.125 18.493-19.683 31.484-24.747 28.149-10.973 59.368-3.673 80.929 18.428 6.859 6.9 13.936 13.758 21.253 20.124 20.378 18.235 41.45 37.092 50.251 62.969 7.294 23.963-2.709 44.191-23.714 52.589 2.229-18.911-5.249-37.876-20.589-51.567-16.689-14.894-38.525-19.847-58.424-13.254-1.577.522-2.632 2.1-2.422 3.747.29 2.268 2.533 3.591 4.581 2.91 17.504-5.815 36.795-1.399 51.604 11.819 14.505 12.946 21.103 31.122 17.798 48.826-16.96 4.363-37.007 1.526-52.562-8.487-1.603-1.032-3.801-.806-4.927.732-1.198 1.636-.763 3.919.914 5.008 11.976 7.776 26.422 11.664 40.491 11.663 17.558-.084 34.334-5.788 45.565-18.434 16.965 13.491 22.252 38.031 11.726 55.292-10.754 16.175-27.634 23.163-50.142 20.767-23.607-2.511-46.075-14.418-57.367-21.292-1.85-1.125-4.336-.332-5.122 1.823-.574 1.572.125 3.33 1.555 4.2 11.816 7.185 35.281 19.579 60.194 22.229 3.055.325 6.028.487 8.919.487 20.642-.001 36.992-8.251 47.651-24.143 9.434 7.274 14.101 18.548 12.831 31.251z"/><path d="m217.322 445.679c0 20.483 16.665 37.148 37.149 37.148h15.612c20.483 0 37.148-16.664 37.148-37.148v-12.326c0-20.484-16.664-37.148-37.148-37.148h-15.612c-20.484 0-37.149 16.665-37.149 37.148zm6.999-12.326c0-16.625 13.525-30.149 30.15-30.149h15.612c16.624 0 30.149 13.525 30.149 30.149v12.326c0 16.624-13.524 30.149-30.149 30.149h-15.612c-16.624 0-30.15-13.525-30.15-30.149z"/></g></g></svg>