<svg height="511pt" viewBox="-91 0 511 511.99691" width="511pt" xmlns="http://www.w3.org/2000/svg"><path d="m147.871094 226.40625c1.691406.902344 3.601562 1.351562 5.582031 1.351562 2.644531 0 5.40625-.796874 7.910156-2.355468 1.585938-.984375 2.953125-2.167969 4.175781-3.425782 2.667969 3.132813 6.457032 5.191407 10.480469 5.445313 4.53125.285156 8.890625-1.859375 11.574219-5.238281 4.0625 2.730468 9.097656 4.0625 13.949219 3.53125 5.058593-.558594 8.90625-3.480469 9.800781-7.445313 1.046875-4.660156-2.28125-8.5625-3.378906-9.84375-8.136719-9.53125-19.601563-16.210937-32.28125-18.804687-5.734375-1.175782-11.960938-1.632813-17.53125-1.292969-6.214844.375-12.273438 3.820313-17.144532 6.589844l-.628906.355469c-6.78125 3.847656-12.992187 8.566406-18.453125 14.03125-1.136719 1.132812-3.792969 3.789062-3.679687 7.503906.101562 3.292968 2.460937 6.308594 5.871094 7.511718 2.523437.890626 5.035156.695313 7.164062.382813 4.109375-.597656 8.164062-1.773437 11.988281-3.453125.914063 2.199219 2.550781 4.058594 4.601563 5.15625zm-17.753906-9.679688c-1.15625.167969-2.449219.296876-3.316407-.007812-.175781-.0625-.320312-.160156-.417969-.246094.128907-.234375.453126-.679687 1.242188-1.464844 4.949219-4.949218 10.578125-9.230468 16.734375-12.71875l.632813-.359374c4.144531-2.355469 9.304687-5.289063 13.648437-5.554688 4.886719-.292969 10.363281.109375 15.425781 1.148438 10.929688 2.234374 20.792969 7.96875 27.769532 16.140624 1.78125 2.085938 1.648437 2.804688 1.640624 2.832032-.0625.277344-1.09375 1.015625-2.816406 1.203125-4.207031.46875-8.648437-1.375-11.289062-4.691407-1.015625-1.273437-2.695313-1.816406-4.265625-1.363281-1.5625.445313-2.707031 1.792969-2.894531 3.410157-.273438 2.390624-3.027344 4.496093-5.683594 4.324218-2.789063-.175781-5.566406-2.574218-6.457032-5.574218-.433593-1.445313-1.632812-2.53125-3.113281-2.8125s-2.996093.289062-3.925781 1.476562c-1.808594 2.304688-3.679688 4.691406-5.925781 6.089844-1.882813 1.175781-4.0625 1.46875-5.425781.742187-.511719-.273437-.964844-.925781-1.101563-1.589843-.070313-.339844-.046875-.644532.058594-.78125 1.21875-1.546876 1.140625-3.75-.183594-5.207032-.789063-.867187-1.878906-1.320312-2.984375-1.320312-.753906 0-1.511719.210937-2.183594.644531-4.558594 2.933594-9.800781 4.898437-15.167968 5.679687zm0 0"/><path d="m321.890625 379.792969c-10.476563-36.039063-32.679687-65.386719-60.910156-80.507813-5.140625-2.753906-10.515625-5.074218-15.71875-7.316406-7.652344-3.308594-14.886719-6.429688-21.464844-10.816406-9.21875-6.148438-19.34375-17.875-17.542969-30.6875.050782-.386719.03125-.761719-.019531-1.125 17.058594-12.136719 28.503906-32.058594 30.003906-52.507813 8.589844 1.375 17.246094-.757812 23.492188-5.992187 8.472656-7.101563 11.195312-19.398438 6.339843-28.605469-1.472656-2.789063-3.734374-5.179687-6.453124-7 10.734374-2.46875 21.25-5.847656 31.402343-10.148437 6.230469-2.636719 13.679688-6.640626 15.996094-14.253907 2.652344-8.703125-2.355469-17.996093-14.105469-26.164062-14.304687-9.945313-30.488281-18.179688-47.953125-24.5-.027343-.171875-.050781-.339844-.101562-.511719-1.5625-5.0625-2.894531-10.34375-4.179688-15.449219-1.777343-7.0625-3.613281-14.367187-6.136719-21.429687-5.347656-14.976563-13.0625-26-22.925781-32.757813-8.207031-5.625-18.871093-8.910156-31.691406-9.761719-7.566406-.5-15.160156-.1718745-22.503906.148438-3.039063.132812-6.183594.269531-9.253907.339844-1.316406.035156-2.640624.054687-3.96875.078125-10.382812.171875-21.121093.347656-30.894531 5.015625-11.078125 5.285156-20.082031 16.246094-26.042969 31.691406-2.414062 6.261719-4.230468 12.742188-5.988281 19.011719-1.59375 5.691406-3.253906 11.550781-5.320312 17.113281-19.332031 4.402344-40.0625 11.703125-57.742188 25.191406-3.695312 2.824219-8.324219 6.734375-11.300781 11.953125-3.332031 5.835938-3.972656 12.53125-1.714844 17.90625 2.835938 6.761719 9.277344 10.351563 15.09375 13.183594 15.589844 7.59375 31.894532 13.886719 48.558594 18.746094-4.453125 2.089843-8.25 5.582031-10.480469 10.070312-4.46875 9.003907-1.976562 20.597657 5.796875 26.96875 6.210938 5.085938 15.027344 6.214844 22.375 3.324219 4.824219 18.445312 15.765625 34.757812 30.601563 45.90625-.035157.53125.03125 1.078125.21875 1.613281 4.433593 12.589844-.3125 32.359375-20.90625 48.136719-7.425781 5.691406-15.886719 10.417969-24.070313 14.992188-9.402344 5.253906-19.121094 10.6875-27.699218 17.746093-25.578126 21.054688-35.992188 51.859375-40.222657 73.992188-5.320312 27.820312-4.121093 56.292969-2.960937 83.828125.222656 5.320312.640625 15.230468 7.988281 20.238281 4.300781 2.933594 9.5625 3.0625 13.40625 3.152344 53.269531 1.285156 107.082031 1.390625 159.480469 1.390625h15.597656l74.328125-.015625c8.609375-.003907 17.511719-.003907 26.285156-2.074219 7.308594-1.726562 13.777344-5.070312 20.972657-10.847656 6.582031-5.285156 7.167968-10.839844 7.910156-17.871094l.019531-.164062c4.335937-41.007813 2.558594-73.175782-5.59375-101.230469zm-64.71875-73.398438c.433594.230469.859375.472657 1.289063.714844-4.402344 43.074219-7.792969 86.605469-10.144532 130.082031-7.703125-.246094-16.882812-1.378906-21.886718-7.191406-5.355469-6.226562-4.726563-16.226562-3.714844-25.109375 4.082031-35.832031 9.933594-72.023437 15.664062-107.121094 1.234375.539063 2.464844 1.070313 3.6875 1.597657 5.046875 2.183593 10.265625 4.433593 15.105469 7.027343zm-26.394531-12.097656c-4.914063 30.082031-9.933594 60.992187-13.898438 91.867187-14.21875-.949218-28.5-1.457031-42.792968-1.523437-.003907-.101563.007812-.195313 0-.296875-1.703126-17.179688-2.171876-34.597656-1.40625-51.875 2.316406 3.425781 5.210937 6.351562 9.046874 8.371094 8.585938 4.511718 20.183594 2.691406 28.203126-4.4375 6.472656-5.75 10.71875-14.664063 11.953124-25.09375.894532-7.519532.257813-14.949219-.597656-22.199219 3.078125 1.917969 6.261719 3.621094 9.492188 5.1875zm-113.328125-1.914063c5.042969 2.460938 9.808593 5.566407 14.792969 8.835938 3.351562 2.195312 6.820312 4.46875 10.390624 6.527344 7.949219 4.582031 15.445313 7.277344 22.421876 8.085937-1.304688 6.167969-4.0625 11.648438-7.894532 15.535157-4.507812 4.574218-10.613281 7.046874-16.34375 6.625-9.804687-.730469-17.292968-9.558594-20.363281-17.984376-3.164063-8.671874-3.261719-18.21875-3.003906-27.625zm95.625-4.050781c.898437 7.324219 1.660156 14.820313.804687 22.027344-1.003906 8.46875-4.308594 15.578125-9.304687 20.015625-5.476563 4.867188-13.503907 6.265625-19.09375 3.324219-5.960938-3.132813-9.09375-10.371094-11.621094-17.886719 1.46875-.191406 2.910156-.472656 4.320313-.859375 10.183593-2.765625 17.488281-10.058594 24.554687-17.113281 3.457031-3.453125 6.765625-6.742188 10.339844-9.507813zm-96.300781-275.21875c8.1875-3.90625 18.03125-4.070312 27.554687-4.226562 1.347656-.023438 2.691406-.042969 4.027344-.078125 3.148437-.074219 6.332031-.210938 9.410156-.347656 7.128906-.308594 14.496094-.628907 21.621094-.15625 11.359375.753906 20.667969 3.566406 27.667969 8.363281 8.433593 5.78125 15.125 15.476562 19.890624 28.820312.074219.214844.140626.4375.214844.652344-43.683594-11.601563-90.96875-11.394531-134.570312.5625.6875-2.117187 1.398437-4.21875 2.191406-6.269531 3.628906-9.40625 10.390625-21.78125 21.992188-27.320313zm-27.738282 45.605469c.261719-.941406.535156-1.894531.800782-2.84375 45.207031-13.433594 94.875-13.652344 140.175781-.585938 1.015625 3.632813 1.941406 7.289063 2.847656 10.882813.898437 3.570313 1.824219 7.226563 2.835937 10.867187-11.523437-3.632812-23.527343-6.464843-35.882812-8.40625-30.300781-4.765624-63.84375-4.554687-99.691406.636719-4.761719.6875-9.78125 1.488281-14.960938 2.46875 1.429688-4.34375 2.671875-8.730469 3.875-13.019531zm-76.410156 66.871094c-1.292969-3.082032-.8125-7.117188 1.285156-10.792969 2.246094-3.9375 5.90625-7.03125 9.1875-9.539063 23.929688-18.261718 54.347656-24.558593 78.175782-28.007812 35.050781-5.074219 67.78125-5.292969 97.285156-.652344 33.695312 5.300782 64.726562 17.292969 89.746094 34.691406 4.027343 2.800782 13.164062 10.082032 10.996093 17.191407-1.34375 4.417969-6.8125 7.226562-11.425781 9.183593-13.253906 5.609376-27.144531 9.605469-41.34375 11.9375 1.679688-8.597656 1.429688-17.203124-4.453125-23.785156-2.972656-3.328125-6.914063-5.355468-10.375-6.996094-34.714844-16.445312-75.910156-22.183593-110.195313-15.351562-10.828124 2.160156-25.914062 7.378906-36.3125 19.984375-7.359374 8.917969-10.679687 20.308594-9.441406 30.742187-17.847656-4.890624-35.3125-11.449218-51.941406-19.550781-4.492188-2.191406-9.4375-4.878906-11.1875-9.054687zm80.605469 68.511718c-.265625-1.375-1.222657-2.515624-2.535157-3.007812-.460937-.175781-.941406-.261719-1.421874-.261719-.882813 0-1.75.289063-2.46875.847657-4.96875 3.847656-12.671876 3.742187-17.53125-.242188-4.863282-3.984375-6.484376-11.511719-3.6875-17.144531 2.796874-5.628907 9.773437-8.890625 15.886718-7.421875 1.515625.363281 3.105469-.179688 4.082032-1.390625.976562-1.214844 1.164062-2.882813.488281-4.285157-4.761719-9.835937-2.601563-22.941406 5.375-32.613281 8.886719-10.777343 22.125-15.304687 31.667969-17.207031 32.160156-6.40625 72.457031-.761719 105.167968 14.730469 2.871094 1.363281 5.84375 2.875 7.8125 5.082031 5.421875 6.0625 3.164063 16.371094.238282 25.652344-.519532 1.648437.074218 3.445312 1.472656 4.464844 1.394531 1.019531 3.289062 1.035156 4.703125.035156 2.222656-1.570313 5.28125-2.042969 8.390625-1.296875 3.53125.84375 6.546875 3.070312 8.066406 5.953125 3.023438 5.730468 1.054688 14.101562-4.386719 18.664062-5.292969 4.433594-13.5 5.714844-20.914062 3.265625-1.234375-.410156-2.589844-.195312-3.640625.570313-1.050782.765625-1.667969 1.992187-1.65625 3.292968.195312 21.785157-12.828125 43.699219-32.402344 54.53125-19.109375 10.570313-44.332031 10.675782-64.265625.265626-19.425781-10.144532-34.15625-30.257813-38.441406-52.484376zm33.453125 58.929688c.421875.230469.828125.480469 1.253906.703125 11.1875 5.84375 23.582031 8.761719 35.890625 8.761719 11.859375 0 23.636719-2.71875 34.160156-8.136719.265625 10.101563 5.535157 19.121094 12.300781 26.019531-4.886718 3.414063-9.140624 7.648438-13.253906 11.757813-6.609375 6.597656-12.851562 12.835937-20.964844 15.039062-8.246093 2.238281-18.140624.082031-29.410156-6.414062-3.371094-1.945313-6.738281-4.152344-9.996094-6.285157-5.65625-3.707031-11.492187-7.519531-17.894531-10.375 5.980469-9.488281 9.378907-20.308593 7.914063-31.070312zm-25.328125 50.027344c2.761719-2.117188 5.4375-4.488282 7.960937-7.058594-.105468 8.769531.386719 18.058594 3.558594 26.769531 4.832031 13.253907 15.566406 22.386719 27.34375 23.261719.617188.046875 1.234375.070312 1.851562.070312 7.488282 0 15.152344-3.3125 20.832032-9.074218.5625-.570313 1.089844-1.171875 1.613281-1.785156-.589844 16.46875-.09375 33.039062 1.503906 49.40625-22.269531.15625-44.539062 1.386718-66.625 3.683593l-4.976562-80.371093c2.359375-1.558594 4.683593-3.179688 6.9375-4.902344zm-25.042969 15.628906c3.421875-1.910156 6.886719-3.855469 10.324219-5.886719l5.328125 85.976563c.410156 6.625.832031 13.472656-.246094 19.914062-.796875 4.769532-2.820312 11.398438-7.9375 15.910156-4.355469 3.839844-10.566406 5.121094-15.113281 3.117188-.230469-.097656-.460938-.167969-.695313-.226562-1.140625-37.511719-2.09375-75.113282-2.859375-112.402344 3.632813-2.164063 7.371094-4.261719 11.199219-6.402344zm-62.285156 182.105469c-3.519532-2.398438-4.230469-8.105469-4.476563-13.917969-1.140625-27.074219-2.320312-55.070312 2.824219-81.972656 5.628906-29.441406 18.921875-54.046875 37.429688-69.28125 2.367187-1.949219 4.828124-3.75 7.355468-5.46875 1.199219 57.496094 2.855469 115.6875 4.933594 173.128906-13.019531-.1875-26.03125-.421875-39.007812-.734375-3.808594-.089844-6.894532-.277344-9.058594-1.753906zm183.9375 3.140625c-41.902344.007812-84.851563.011718-127.800782-.539063-.6875-19.046875-1.328124-38.179687-1.921874-57.34375 1.660156.433594 3.382812.671875 5.132812.671875 5.523438 0 11.25-2.113281 15.738281-6.074218 6.894531-6.078126 9.546875-14.570313 10.5625-20.625 1.226563-7.351563.777344-14.667969.335938-21.746094l-.117188-1.890625c38.433594-4.019531 77.433594-4.761719 115.984375-2.203125-.398437 3.265625-.800781 6.53125-1.171875 9.796875-1.207031 10.574219-1.863281 22.585937 5.613281 31.277343 6.984376 8.117188 18.234376 9.671876 27.570313 9.988282-1.003906 19.59375-1.789063 39.164062-2.363281 58.679687zm121.5-23.753906-.015625.160156c-.671875 6.351562-.980469 9.25-4.945313 12.433594-6.210937 4.988281-11.691406 7.847656-17.777344 9.285156-7.855468 1.855468-16.28125 1.855468-24.429687 1.859375l-18.703125.003906c1.886719-63.894531 6.085938-128.472656 12.496094-192.085937 22.078125 15.144531 39.328125 40.171874 48.058594 70.210937 7.851562 27.011719 9.542968 58.195313 5.316406 98.132813zm0 0"/></svg>