<svg height="512pt" viewBox="-88 0 512 512.00241" width="512pt" xmlns="http://www.w3.org/2000/svg"><path d="m164.113281 138.800781c3.289063-4.402343 5.214844-9.683593 5.777344-15.113281l6.140625-.46875c.5 5.589844 2.445312 11.054688 5.832031 15.582031 5.824219 7.792969 15.613281 12.335938 25.351563 12.335938 2.96875 0 5.929687-.421875 8.773437-1.304688 12.234375-3.789062 21.324219-15.402343 22.105469-28.242187.859375-14.175782-7.035156-26.269532-20.117188-30.804688-11.382812-3.945312-27.171874-1.714844-36.800781 12.160156-2.519531 3.632813-4.113281 7.820313-4.828125 12.160157l-6.632812.511719c-.667969-4.523438-2.292969-8.894532-4.914063-12.671876-9.628906-13.875-25.417969-16.105468-36.796875-12.160156-13.085937 4.535156-20.980468 16.628906-20.117187 30.804688v.003906c.78125 12.835938 9.867187 24.449219 22.101562 28.238281 2.84375.882813 5.804688 1.304688 8.773438 1.304688 9.734375 0 19.527343-4.546875 25.351562-12.335938zm23.6875-31.257812c5.179688-7.460938 12.714844-10.4375 19.703125-10.4375 2.753906 0 5.425782.464843 7.832032 1.296875 7.613281 2.640625 15.480468 9.988281 14.710937 22.699218-.574219 9.410157-7.488281 18.253907-16.441406 21.03125-9.023438 2.792969-19.65625-.636718-25.285157-8.160156-5.578124-7.457031-5.800781-18.820312-.519531-26.429687zm-55.429687 34.585937c-8.953125-2.773437-15.867188-11.617187-16.4375-21.027344-.773438-12.710937 7.09375-20.058593 14.710937-22.699218 8.503907-2.945313 20.3125-1.265625 27.53125 9.140625 5.28125 7.609375 5.058594 18.972656-.519531 26.429687-5.628906 7.523438-16.261719 10.957032-25.285156 8.15625zm0 0"/><path d="m331.605469 376.890625c-6.75-34.398437-21.085938-63.773437-41.179688-85.082031-.324219-.574219-.789062-1.046875-1.332031-1.398438-5.574219-5.738281-11.574219-10.875-17.972656-15.332031-4.65625-3.242187-9.5625-6.160156-14.304688-8.980469-7.089844-4.21875-13.785156-8.203125-19.824218-13.21875-11.210938-9.324218-17.335938-21.203125-16.375-31.773437.003906-.035157-.003907-.066407 0-.097657 17.65625-12.125 30.066406-31.679687 33.363281-52.863281 7.742187-1.519531 17.335937-5.011719 24.164062-12.933593 7.667969-8.910157 9.195313-21.867188 3.621094-30.820313-.011719-.023437-.03125-.042969-.042969-.066406 5.644532-3.992188 8.207032-11.835938 5.601563-18.371094-1.085938-2.730469-2.882813-4.953125-4.46875-6.914063-1.699219-2.101562-3.167969-3.917968-3.488281-5.835937-.320313-1.945313.515624-4.167969 1.480468-6.742187.910156-2.417969 1.941406-5.160157 2.09375-8.167969.414063-8.328125-5.894531-14.925781-12.332031-17.765625-5.578125-2.464844-11.574219-2.84375-17.074219-2.957032-.695312-2.8125-1.519531-5.578124-2.515625-8.273437-8.835937-23.902344-29.1875-41.070313-55.832031-47.113281-27.972656-6.339844-57.320312 1.355468-76.597656 20.078125-7.097656 6.894531-13.074219 15.300781-17.777344 25-1.625 3.355469-3.085938 6.867187-4.394531 10.5-.425781-.003907-.855469.035156-1.28125.171875-7.863281 2.515625-16.777344 5.363281-23.867188 11.3125-9.632812 8.085937-11.703125 19.089844-9.480469 26.40625.554688 1.828125 1.332032 3.46875 2.085938 5.0625 1.074219 2.273437 2.003906 4.234375 1.996094 6.089844-.007813 1.863281-.949219 3.824218-2.046875 6.09375-.875 1.816406-1.78125 3.695312-2.351563 5.832031-1.234375 4.628906-.386718 9.800781 2.324219 14.191406 1.574219 2.546875 3.675781 4.632813 6.074219 6.140625-1.175782 1.746094-2.144532 3.632812-2.828125 5.652344-3.53125 10.433594.089843 21.546875 9.226562 28.3125 7.464844 5.527344 16.640625 6.671875 24.628907 3.378906 4.414062 16.347656 14.332031 31.117188 27.617187 41.59375-.011719.222656-.023437.449219.003906.675781 1.773438 17.171875-13.585937 31.640625-27.277343 38.808594-6.792969 3.558594-14.21875 6.394531-21.402344 9.136719-9.855469 3.761718-20.042969 7.648437-29.214844 13.566406-19.550781 12.617188-34.410156 34.78125-41.847656 62.40625-6.566406 24.410156-7.023438 49.78125-7.464844 74.320312l-1.2929688 71.808594c-.0625 3.382813-.1640622 9.046875 3.5507808 13.023438 3.875 4.144531 9.777344 4.261718 13.300782 4.332031l301.355468 5.90625c.4375.007813.914063.019531 1.417969.019531 2.617188 0 5.972657-.257812 8.828125-2.199218 5.246094-3.570313 5.667969-10.316407 5.894532-13.945313 2.449218-39.09375 4.980468-79.515625-2.761719-118.96875zm-65.09375-95.195313c5.890625 4.101563 11.421875 8.828126 16.574219 14.105469 2.070312 18.480469-2.789063 37.675781-13.472657 52.894531-1.113281 1.585938-2.277343 3.117188-3.507812 4.742188-3.390625 4.472656-6.894531 9.09375-9.101563 14.613281-3.230468 8.070313-3.167968 16.621094-3.109375 24.894531l.011719 2.074219c.160156 36.304688-6.113281 71.988281-18.652344 106.058594-.148437.398437-.207031.804687-.226562 1.207031l-25.367188-.496094c7.664063-37.949218 15.292969-77.292968 22.671875-115.355468 7.1875-37.082032 14.613281-75.363282 22.074219-112.386719 4.078125 2.433594 8.230469 4.949219 12.105469 7.648437zm-135.351563 218.554688-16.097656-147.730469c1.476562 2.484375 3.664062 4.136719 5.433594 5.46875l43.300781 32.550781c.039063.027344.082031.046876.121094.074219l1.300781 110.304688zm-16.492187-241.722656c9.378906 32.351562 21.15625 64.089844 35.179687 94.753906.121094.679688.421875 1.3125.859375 1.851562 3.78125 8.203126 7.722657 16.324219 11.820313 24.363282l-37.183594-27.953125c-1.355469-1.015625-2.757812-2.070313-3.40625-3.21875-1.402344-2.484375.242188-6.304688 2.078125-8.824219.84375-1.152344 1.800781-2.273438 2.8125-3.460938 2.210937-2.589843 4.5-5.273437 5.972656-8.730468.449219-1.050782.429688-2.246094-.054687-3.285156-.484375-1.035157-1.386719-1.820313-2.484375-2.152344-6.679688-2.027344-13.058594-4.949219-18.953125-8.691406-.179688-.117188-.371094-.199219-.566406-.28125l-5.285157-48.523438c3.058594-1.636719 6.179688-3.597656 9.210938-5.847656zm8.359375-7.28125c11.015625 8.046875 22.5625 15.558594 34.378906 22.339844 2.371094 1.359374 4.9375 2.742187 7.648438 3.765624l-27.667969 24.503907c-5.941407-16.136719-11.28125-32.492188-15.972657-49.007813.546876-.523437 1.082032-1.058594 1.613282-1.601562zm35.300781 101.179687 12.355469-26.851562c3.132812 7.886719 6.65625 15.660156 10.519531 23.1875.140625.277343.316406.523437.511719.753906-4.136719 8.359375-8.382813 16.65625-12.753906 24.867187-3.671876-7.25-7.21875-14.570312-10.632813-21.957031zm-17.929687-42.542969c.164062-.105468.324218-.210937.472656-.34375l10.101562-8.945312c4.140625 6.367188 8.878906 12.339844 14.125 17.832031l-11.164062 24.265625c-4.792969-10.8125-9.308594-21.757812-13.535156-32.808594zm46.578124-14.84375-16.964843 16.859376c-4.8125-5.15625-9.148438-10.761719-12.933594-16.714844l15.648437-13.855469c5.078126 4.230469 9.832032 8.816406 14.25 13.710937zm-.875 45.484376c-3.710937-7.59375-7.054687-15.410157-9.992187-23.316407l16.121094-16.019531c1.933593 2.40625 3.789062 4.882812 5.566406 7.421875.5625.808594 1.378906 1.328125 2.261719 1.566406-4.472656 10.199219-9.128906 20.320313-13.957032 30.347657zm17.261719-37.964844c-6.648437-9.269532-14.332031-17.722656-22.914062-25.214844 2.328125-.976562 4.421875-2.246094 6.246093-3.359375l36.878907-22.519531c-.0625.128906-.136719.25-.1875.390625-6.164063 17.050781-12.855469 33.972656-20.023438 50.703125zm-80.3125 25.390625c-.726562.945312-1.535156 1.890625-2.359375 2.859375-1.0625 1.246094-2.164062 2.535156-3.1875 3.9375-1.742187 2.386718-2.9375 4.855468-3.585937 7.273437l-2.09375-19.207031c3.617187 1.976562 7.363281 3.703125 11.226562 5.136719zm48.921875 61.765625c13.4375-7.839844 26.660156-16.386719 39.316406-25.421875 3.871094-2.765625 7.773438-5.875 9.238282-10.808594 2.179687-7.347656-2.371094-13.835937-6.328125-17.996094 7.640625-5.394531 15.800781-11.460937 23.421875-18.378906-4.457032 22.679687-8.875 45.453125-13.207032 67.789063-7.460937 38.488281-15.175781 78.285156-22.921874 116.609374-.007813.042969-.003907.082032-.011719.121094l-28.199219-.550781zm75.09375-120.066406c-2.253906 11.164062-4.507812 22.449218-6.75 33.789062-.347656.195312-.683594.429688-.972656.734375-10.304688 10.878906-22.84375 19.914063-33.789062 27.527344-1.015626.703125-1.648438 1.835937-1.722657 3.066406s.421875 2.429687 1.34375 3.25c6.222657 5.542969 8.644531 9.730469 7.621094 13.171875-.738281 2.484375-3.351563 4.511719-6.191406 6.539062-9.808594 7.003907-19.96875 13.707032-30.300781 20.011719 20.582031-38.722656 38.59375-79.148437 53.628906-120.320312.625.558593 1.25 1.117187 1.90625 1.660156 4.796875 3.988281 10.003906 7.382813 15.226562 10.570313zm20.285156-201.746094c3.789063 1.671875 7.757813 5.507812 7.535157 9.988281-.085938 1.75-.816407 3.683594-1.585938 5.730469-1.199219 3.199218-2.5625 6.820312-1.886719 10.898437.664063 4.015625 3.058594 6.976563 5.171876 9.585938 1.34375 1.664062 2.613281 3.234375 3.25 4.832031 1.347656 3.378906-.433594 7.847656-3.734376 9.378906-.085937.039063-.15625.09375-.234374.136719-2.847657-1.867187-6.191407-3.101563-9.675782-3.46875-2.460937-.253906-4.863281-.074219-7.085937.515625-.085938-2.207031-.285157-4.828125-.566407-7.9375-.136718-1.515625-.265624-2.945312-.273437-3.546875-.128906-8.289063-.453125-15.0625-1.019531-21.3125-.507813-5.589844-1.089844-11.339844-2.046875-17.019531 4.257812.152344 8.464843.59375 12.152343 2.21875zm-196.1875 29.363281c-.65625-1.386719-1.277343-2.699219-1.660156-3.960937-2.015625-6.632813 2.039063-13.761719 6.949219-17.882813 4.820313-4.046875 10.910156-6.441406 17.085937-8.496094-.441406 1.628907-.863281 3.269531-1.242187 4.9375-1.933594 8.488281-3.097656 17.726563-3.457031 27.457031l-.070313 1.917969c-.332031 8.671875-.667969 17.59375.511719 26.285157-4.960938.449218-9.753906 2.410156-13.703125 5.457031-1.9375-.792969-3.683594-2.292969-4.921875-4.296875-1.550781-2.511719-2.058594-5.382813-1.394531-7.875.375-1.398438 1.078125-2.859375 1.824219-4.40625 1.332031-2.757813 2.835937-5.882813 2.847656-9.574219.011718-3.679687-1.46875-6.804687-2.769532-9.5625zm36.421876 72.273437c-.261719-1.347656-1.191407-2.472656-2.46875-2.980468-.480469-.191406-.988282-.289063-1.492188-.289063-.832031 0-1.65625.257813-2.347656.757813-7.328125 5.257812-15.242188 3.199218-20.207032-.480469-4.761718-3.523437-9.289062-10.679687-6.390624-19.246094 2.539062-7.507812 10.984374-12.734375 18.851562-11.675781 1.296875.183594 2.601562-.285156 3.496094-1.246094.894531-.960937 1.265625-2.296875.992187-3.578125-1.953125-9.246093-1.566406-19.417969-1.191406-29.257812l.070313-1.921875c.339843-9.226563 1.4375-17.964844 3.261718-25.964844 1.867188-8.207031 4.53125-15.902344 7.910156-22.878906 4.289063-8.847656 9.71875-16.492188 16.136719-22.730469 17.34375-16.84375 43.859375-23.738281 69.199219-17.996094 23.933594 5.425781 42.175781 20.75 50.050781 42.042969 3.570313 9.664062 4.804688 20.78125 5.761719 31.335938.546875 6.046874.859375 12.628906.984375 20.710937.015625.90625.144531 2.335937.308594 4.148437.253906 2.820313.914062 10.167969.402343 12.246094-1.089843 1.59375-.902343 3.789063.535157 5.175782 1.605469 1.539062 4.15625 1.492187 5.703125-.113282 0 0 .003906-.003906.003906-.007812 2.625-2.71875 6.261719-2.785156 8.195312-2.582032 3.996094.417969 7.664063 2.582032 9.574219 5.648438 3.691407 5.9375 2.453125 15.089844-2.890625 21.292969-6.117187 7.101562-15.464844 9.757812-22.226562 10.730469-1.8125.261718-3.222656 1.714843-3.429688 3.535156-2.507812 22.035156-16.082031 42.46875-35.421875 53.320312-19.339843 10.855469-43.851562 11.792969-63.96875 2.457032-20.117187-9.34375-35.214843-28.671876-39.402343-50.453126zm29.0625 54.074219c2.246093 1.347657 4.5625 2.582031 6.945312 3.6875 10.269531 4.769531 21.566406 7.132813 32.867188 7.132813 12.488281 0 24.980468-2.886719 36.089843-8.605469.457031 6.390625 2.703125 12.824219 6.535157 18.925781l-36.597657 22.347656c-2.664062 1.628907-5.421875 3.3125-8.179687 3.691407-4.148438.5625-8.644532-1.765625-12.890625-4.203125-11.386719-6.53125-22.519531-13.757813-33.148438-21.5 4.644531-6.304688 7.863281-13.5625 8.378907-21.476563zm-53.929688 50.539063c4.964844-1.898438 10.042969-3.84375 15.03125-6.058594l25.28125 231.996094-15.101562-.296875c-10.25-38.425781-20.574219-78.121094-16.519532-118.183594.070313-.671875.140625-1.347656.214844-2.023437.628906-5.894532 1.277344-11.992188-.371094-18.105469-1.5625-5.78125-4.898437-10.503907-8.121094-15.066407-.992187-1.402343-1.929687-2.730468-2.816406-4.085937-12.5625-19.191406-13.847656-45.675781-3.230468-66.007813 1.855468-.726562 3.730468-1.445312 5.632812-2.167968zm-73.257812 222.085937c-1.371094-1.46875-1.433594-4.445312-1.378907-7.371093l1.289063-71.8125c.433594-24.046876.882812-48.917969 7.191406-72.367188 6.917969-25.691406 20.566406-46.195312 38.433594-57.726562 3.601562-2.324219 7.375-4.296876 11.277344-6.097657-7.949219 21.550781-5.378907 46.519531 7.296874 65.882813.964844 1.472656 1.988282 2.921875 2.976563 4.320312 2.945313 4.171875 5.730469 8.113282 6.917969 12.515625 1.257812 4.660157.714844 9.753907.140625 15.148438-.074219.691406-.148438 1.378906-.21875 2.066406-4.117188 40.65625 6.339843 81.980469 16.148437 118.832031l-41.964844-.820312c-5.425781-24.121094-8.941406-48.84375-10.421874-73.515625-.132813-2.21875-2.042969-3.910157-4.265626-3.78125-2.222656.132812-3.917968 2.042969-3.785156 4.265625 1.46875 24.445312 4.910156 48.9375 10.1875 72.867187l-32.257812-.632812c-3.042969-.058594-6.136719-.246094-7.566406-1.773438zm316.859374-.886719c-.210937 3.34375-.644531 6.601563-2.382812 7.785157-1.179688.800781-3.210938.828125-5.550781.78125l-31.296875-.613281c1.957031-26.242188 2.550781-52.855469 1.742187-79.144532-.066406-2.226562-1.902343-3.996094-4.152343-3.90625-2.226563.066406-3.976563 1.925782-3.90625 4.152344.800781 26.15625.207031 52.636719-1.753907 78.742188l-35.699219-.699219c12.53125-34.550781 18.8125-70.695313 18.652344-107.460938l-.015625-2.101562c-.054687-7.835938-.109375-15.238281 2.53125-21.835938 1.804688-4.511719 4.835938-8.507812 8.042969-12.738281 1.21875-1.609375 2.484375-3.277344 3.679688-4.980469 9.769531-13.921875 15.140624-30.851562 15.40625-47.847656 15.371093 19.316406 26.449218 44.277344 32.078124 72.960937 7.539063 38.429688 5.039063 78.324219 2.625 116.90625zm0 0"/></svg>