<?xml version="1.0" ?><svg data-name="Layer 1" id="Layer_1" viewBox="0 0 64 64" xmlns="http://www.w3.org/2000/svg"><defs><style>.cls-1{fill:#f3f0f3;}.cls-2{fill:#ee6161;}.cls-3{fill:#de5454;}.cls-4{fill:#8bdf9e;}.cls-5{fill:#72c485;}.cls-6{fill:#fbb03b;}.cls-7{fill:#ffbc5c;}.cls-8{fill:#fca956;}.cls-9{fill:#f3d55b;}.cls-10{fill:#e8ab4a;}.cls-11{fill:#918291;}</style></defs><path class="cls-1" d="M32,63.606a1.036,1.036,0,0,1-1.036-1.036V42.922a1.036,1.036,0,1,1,2.072,0V62.57A1.036,1.036,0,0,1,32,63.606Z"/><path class="cls-1" d="M18.653,63.606a1.036,1.036,0,0,1-1.036-1.036V46.03a1.036,1.036,0,0,1,2.072,0V62.57A1.036,1.036,0,0,1,18.653,63.606Z"/><path class="cls-1" d="M45.347,63.606a1.036,1.036,0,0,1-1.036-1.036V46.03a1.036,1.036,0,0,1,2.072,0V62.57A1.036,1.036,0,0,1,45.347,63.606Z"/><path class="cls-2" d="M29.254,6.777A18.647,18.647,0,1,0,15.907,40.559c.518.083,1.046.135,1.585.177.384.02.767.031,1.161.031s.777-.011,1.16-.031c.539-.042,1.068-.094,1.586-.177A18.642,18.642,0,0,0,29.254,6.777Z"/><path class="cls-3" d="M6.482,22.114A18.661,18.661,0,0,1,21.894,3.753a18.647,18.647,0,1,0-5.987,36.806c.518.083,1.046.135,1.585.177.384.02.767.031,1.161.031s.777-.011,1.16-.031c.539-.042,1.068-.094,1.586-.177.168-.024.329-.067.495-.1A18.644,18.644,0,0,1,6.482,22.114Z"/><path class="cls-4" d="M34.746,6.777A18.647,18.647,0,1,1,48.093,40.559c-.518.083-1.046.135-1.585.177-.384.02-.767.031-1.161.031s-.777-.011-1.16-.031c-.539-.042-1.068-.094-1.586-.177A18.642,18.642,0,0,1,34.746,6.777Z"/><path class="cls-5" d="M57.518,22.114A18.661,18.661,0,0,0,42.106,3.753a18.647,18.647,0,1,1,5.987,36.806c-.518.083-1.046.135-1.585.177-.384.02-.767.031-1.161.031s-.777-.011-1.16-.031c-.539-.042-1.068-.094-1.586-.177-.168-.024-.329-.067-.495-.1A18.644,18.644,0,0,0,57.518,22.114Z"/><path class="cls-6" d="M28.674,11.519a.089.089,0,0,0-.011-.052A4.132,4.132,0,0,0,23,9.073a3.156,3.156,0,0,0-.415.218,4.149,4.149,0,0,0-1.741,2.145.776.776,0,0,1-.031.093,4.1,4.1,0,0,0-.207,1.3,4.251,4.251,0,0,0,.062.726A4.154,4.154,0,0,0,27.9,15.529a4.025,4.025,0,0,0,.943-2.1,2.842,2.842,0,0,0,.052-.6A3.876,3.876,0,0,0,28.674,11.519Zm-3.928.269a1.037,1.037,0,1,1-1.036,1.036A1.039,1.039,0,0,1,24.746,11.788Z"/><path class="cls-6" d="M43.181,11.519a.1.1,0,0,0-.01-.052,4.15,4.15,0,0,0-7.824-.031c-.01.031-.021.072-.031.093a4.076,4.076,0,0,0-.207,1.3,2.842,2.842,0,0,0,.052.6,4.025,4.025,0,0,0,.943,2.1,4.151,4.151,0,0,0,7.3-2.7A3.877,3.877,0,0,0,43.181,11.519Zm-3.927.269a1.037,1.037,0,1,1-1.036,1.036A1.039,1.039,0,0,1,39.254,11.788Z"/><path class="cls-4" d="M49.679,46.57a1.032,1.032,0,0,1-.9,1.533h-6.86a1.031,1.031,0,0,1-.9-1.533l3.171-5.762v-.041c.383.031.766.041,1.16.041s.777-.01,1.161-.031v.031Z"/><path class="cls-7" d="M42.6,3.71A18.647,18.647,0,1,0,29.254,37.492c.518.083,1.047.135,1.585.176.384.021.767.031,1.161.031s.777-.01,1.161-.031c.538-.041,1.067-.093,1.585-.176A18.642,18.642,0,0,0,42.6,3.71Z"/><path class="cls-8" d="M19.829,19.046A18.664,18.664,0,0,1,35.241.685,18.7,18.7,0,0,0,32,.394a18.65,18.65,0,0,0-2.746,37.1c.518.083,1.047.135,1.585.176.384.021.767.031,1.161.031s.777-.01,1.161-.031c.538-.041,1.067-.093,1.585-.176.168-.025.329-.067.495-.1A18.645,18.645,0,0,1,19.829,19.046Z"/><path class="cls-9" d="M38.218,24.228H43.9c-2.611,4.383-6.974,7.254-11.9,7.254s-9.285-2.871-11.9-7.254h5.678v1.036A1.04,1.04,0,0,0,26.819,26.3h2.072a1.039,1.039,0,0,0,1.036-1.036,1.04,1.04,0,0,1,1.037-1.036h2.072a1.04,1.04,0,0,1,1.037,1.036A1.039,1.039,0,0,0,35.109,26.3h2.072a1.04,1.04,0,0,0,1.037-1.036Z"/><path class="cls-10" d="M39.232,25.264V24.228H38.218v1.036A1.04,1.04,0,0,1,37.181,26.3H38.2A1.039,1.039,0,0,0,39.232,25.264Z"/><path class="cls-10" d="M30.942,25.264a1.039,1.039,0,0,1,1.036-1.036H30.964a1.04,1.04,0,0,0-1.037,1.036A1.039,1.039,0,0,1,28.891,26.3h1.014A1.04,1.04,0,0,0,30.942,25.264Z"/><path class="cls-10" d="M21.118,24.228H20.1c2.611,4.383,6.974,7.254,11.9,7.254.17,0,.338-.012.507-.019A14.088,14.088,0,0,1,21.118,24.228Z"/><path class="cls-7" d="M36.332,43.461A1.033,1.033,0,0,1,35.43,45H28.57a1.033,1.033,0,0,1-.9-1.534L30.839,37.7v-.031c.384.021.767.031,1.161.031s.777-.01,1.161-.031V37.7Z"/><path class="cls-2" d="M22.984,46.57a1.031,1.031,0,0,1-.9,1.533h-6.86a1.032,1.032,0,0,1-.9-1.533l3.171-5.762v-.031c.384.021.767.031,1.161.031s.777-.01,1.16-.041v.041Z"/><circle class="cls-9" cx="39.254" cy="12.69" r="4.101"/><path class="cls-10" d="M41.255,14.79A4.082,4.082,0,0,1,37.54,8.975,4.095,4.095,0,1,0,42.969,14.4,4.08,4.08,0,0,1,41.255,14.79Z"/><circle class="cls-9" cx="24.746" cy="12.69" r="4.101"/><path class="cls-10" d="M26.747,14.79a4.082,4.082,0,0,1-3.715-5.815A4.095,4.095,0,1,0,28.461,14.4,4.08,4.08,0,0,1,26.747,14.79Z"/><circle class="cls-11" cx="39.254" cy="12.829" r="1.036"/><circle class="cls-11" cx="24.746" cy="12.829" r="1.036"/></svg>