<?xml version="1.0" ?><svg data-name="Layer 1" id="Layer_1" viewBox="0 0 64 64" xmlns="http://www.w3.org/2000/svg"><defs><style>.cls-1{fill:#8bdf9e;}.cls-2{fill:#edb798;}.cls-3{fill:#918291;}.cls-4{fill:#ffbc5c;}.cls-5{fill:#fca956;}.cls-6{fill:#f3d55b;}.cls-7{fill:#e8ab4a;}.cls-8{fill:#72c485;}.cls-9{fill:#4f4c5f;}</style></defs><path class="cls-1" d="M38.013,6.2a1.274,1.274,0,0,1-.421.062c-2.364.422-3.094,1.583-3.3,2.6a3.991,3.991,0,0,1-2.206.666,3.915,3.915,0,0,1-2.327-.687A8.95,8.95,0,0,1,36.286.367c.059-.019.116-.035.175-.051,1.151-.309,2.436.75,2.868,2.374S39.175,5.887,38.013,6.2Z"/><polygon class="cls-2" points="52.548 55.427 52.456 64 43.307 64 43.307 56.805 46.391 54.749 49.475 56.805 51.531 54.749 52.548 55.427"/><polygon class="cls-2" points="20.693 56.805 20.693 64 11.544 64 11.452 55.427 12.469 54.749 14.525 56.805 17.609 54.749 20.693 56.805"/><path class="cls-3" d="M46,41.063,45.815,41,32,34.773,18.185,41,18,41.063A12.371,12.371,0,0,0,9.386,52.688v5.14l2.066-1.377,1.017-.679,2.056,2.056,3.084-2.056,2.056,2.056V64h24.67V57.828l2.056-2.056,3.084,2.056,2.056-2.056,1.017.679,2.066,1.377v-5.14A12.371,12.371,0,0,0,46,41.063Z"/><polygon class="cls-2" points="32 36.246 20.693 41.386 32 50.637 43.307 41.386 32 36.246"/><path class="cls-4" d="M43.307,10.548A8.737,8.737,0,0,0,38.7,11.9a9.858,9.858,0,0,0-4.41-3.033,7.316,7.316,0,0,0-4.533-.02A9.87,9.87,0,0,0,25.3,11.9a8.737,8.737,0,0,0-4.6-1.347c-6.25,0-11.307,6.908-11.307,15.419,0,7.339,3.762,13.486,8.8,15.038a8.509,8.509,0,0,0,2.508.381,8.737,8.737,0,0,0,4.6-1.347,8.98,8.98,0,0,0,6.7,3.4,8.98,8.98,0,0,0,6.7-3.4,8.737,8.737,0,0,0,4.605,1.347,8.509,8.509,0,0,0,2.508-.381c5.037-1.552,8.8-7.7,8.8-15.038C54.614,17.456,49.557,10.548,43.307,10.548Z"/><path class="cls-5" d="M14.525,25.967c0-7.3,3.729-13.414,8.736-15a8.364,8.364,0,0,0-2.568-.416c-6.25,0-11.307,6.908-11.307,15.419,0,7.339,3.762,13.486,8.8,15.038a8.509,8.509,0,0,0,2.508.381,8.379,8.379,0,0,0,2.552-.41C18.249,39.384,14.525,33.267,14.525,25.967Z"/><path class="cls-5" d="M49.475,25.967c0-7.3-3.729-13.414-8.736-15a8.364,8.364,0,0,1,2.568-.416c6.25,0,11.307,6.908,11.307,15.419,0,7.339-3.762,13.486-8.8,15.038a8.509,8.509,0,0,1-2.508.381,8.379,8.379,0,0,1-2.552-.41C45.751,39.384,49.475,33.267,49.475,25.967Z"/><path class="cls-6" d="M47.419,18.586A5.137,5.137,0,0,1,38.4,22.791a1.037,1.037,0,0,1,.36-1.594l7.2-3.361A1.036,1.036,0,0,1,47.419,18.586Z"/><path class="cls-7" d="M47.419,18.586a1.035,1.035,0,0,0-1.449-.75l-.777.362a1.035,1.035,0,0,1,.083.252,5.078,5.078,0,0,1-4.3,6,5.118,5.118,0,0,0,6.442-5.867Z"/><path class="cls-6" d="M38.168,29.051H43.8a13.876,13.876,0,0,1-11.8,7.2,13.876,13.876,0,0,1-11.8-7.2h5.633v1.028a1.031,1.031,0,0,0,1.028,1.027h2.056a1.03,1.03,0,0,0,1.028-1.027,1.031,1.031,0,0,1,1.028-1.028h2.056a1.031,1.031,0,0,1,1.028,1.028,1.03,1.03,0,0,0,1.028,1.027H37.14a1.031,1.031,0,0,0,1.028-1.027Z"/><path class="cls-7" d="M32.547,30.079a1.03,1.03,0,0,0,1.028,1.027h1.509a1.03,1.03,0,0,1-1.028-1.027,1.031,1.031,0,0,0-1.028-1.028H31.519A1.031,1.031,0,0,1,32.547,30.079Z"/><path class="cls-7" d="M42.291,29.051a13.993,13.993,0,0,1-11.046,7.168c.251.015.5.027.755.027a13.876,13.876,0,0,0,11.8-7.2Z"/><path class="cls-7" d="M25.351,31.106H26.86a1.031,1.031,0,0,1-1.028-1.027V29.051H24.323v1.028A1.031,1.031,0,0,0,25.351,31.106Z"/><path class="cls-8" d="M37.592,6.257c-2.364.422-3.094,1.583-3.3,2.6a7.043,7.043,0,0,0-2.014-.36,8.24,8.24,0,0,1,2.909-4.533A2.884,2.884,0,0,0,37.592,6.257Z"/><path class="cls-6" d="M34.148,23.387a1.025,1.025,0,0,1-.884,1.552H30.736a1.025,1.025,0,0,1-.884-1.552l1.264-2.118a1.03,1.03,0,0,1,1.768,0Z"/><path class="cls-7" d="M34.148,23.387l-1.264-2.118a1.026,1.026,0,0,0-1.475-.306,1.013,1.013,0,0,1,.294.306l1.264,2.118a1.025,1.025,0,0,1-.884,1.552h1.181A1.025,1.025,0,0,0,34.148,23.387Z"/><path class="cls-6" d="M25.236,21.2a1.037,1.037,0,0,1,.36,1.594,5.137,5.137,0,0,1-9.015-4.205,1.036,1.036,0,0,1,1.45-.75Z"/><path class="cls-7" d="M16.581,18.586a1.035,1.035,0,0,1,1.449-.75l.777.362a1.035,1.035,0,0,0-.083.252,5.078,5.078,0,0,0,4.3,6,5.118,5.118,0,0,1-6.442-5.867Z"/><circle class="cls-9" cx="37.14" cy="51.665" r="1.028"/><circle class="cls-9" cx="37.14" cy="55.777" r="1.028"/><circle class="cls-9" cx="37.14" cy="59.888" r="1.028"/><polygon class="cls-9" points="33.028 49.79 33.028 63.996 30.972 63.996 30.972 49.79 32 50.633 33.028 49.79"/><path class="cls-8" d="M39.329,2.7c.432,1.624-.154,3.2-1.316,3.505a1.262,1.262,0,0,1-.4.062h-.02a2.938,2.938,0,0,1-2.447-2.426c-.411-1.542.1-3.033,1.141-3.464l.093-.031A.248.248,0,0,0,36.461.32C37.612.012,38.9,1.071,39.329,2.7Z"/></svg>