<?xml version="1.0" encoding="iso-8859-1"?>
<!-- Generator: Adobe Illustrator 16.0.0, SVG Export Plug-In . SVG Version: 6.00 Build 0)  -->
<!DOCTYPE svg PUBLIC "-//W3C//DTD SVG 1.1//EN" "http://www.w3.org/Graphics/SVG/1.1/DTD/svg11.dtd">
<svg version="1.1" id="Capa_1" xmlns="http://www.w3.org/2000/svg" xmlns:xlink="http://www.w3.org/1999/xlink" x="0px" y="0px"
	 width="189.635px" height="189.636px" viewBox="0 0 189.635 189.636" style="enable-background:new 0 0 189.635 189.636;"
	 xml:space="preserve">
<g>
	<path d="M175.174,128.56c-20.053-15.594-41.612-31.517-63.57-44.289c3.128-3.953,1.408-10.116-1.718-13.914
		c1.811-1.688,3.33-3.61,3.964-6.063c2.539,3.514,5.183,6.298,9.461,7.653c3.849,1.218,8.693-7.863,10.222-9.64
		c13.353-15.54,28.587-28.689,40.5-45.542c0.845-1.196,0.291-2.334-0.685-2.884c-0.08-0.336-0.224-0.669-0.479-0.984
		c-3.994-4.939-8.703-8.845-13.81-12.569c-0.814-0.594-2.12-0.325-2.784,0.359c-19.795,20.408-37.406,42.459-55.831,64.035
		c-1.816-1.892-5.024-2.22-7.564-2.027c-2.788,0.212-5.507,1.565-7.34,3.677c-0.227-0.332-0.415-0.618-0.408-0.662
		c0.263-1.613,1.393-3.123,2.328-4.4c1.43-1.954,3.111-3.949,2.134-6.462c-1.548-3.983-6.544-5.794-10.659-7.409
		C64.521,34.287,50.416,20.361,35.158,8.283C24.563-0.103,19.626,12.672,12.574,20.14c-1.102,1.167-0.187,2.602,1.021,2.747
		c0.054,0.048,0.082,0.107,0.144,0.15c13.952,9.842,25.812,23.114,39.428,33.542c6.764,5.18,13.619,10.668,20.916,15.061
		c1.673,1.007,4.078,0.428,5.875,0.716c-3.233,2.382-4.575,6.669-4.737,10.794c-1.381-1.146-2.681-2.412-4.337-3.119
		c-0.023-0.01-0.038,0.002-0.061-0.007c-0.395-1.274-2.298-2.099-3.475-0.961c-6.29,6.084-10.294,14.001-16.343,20.428
		c-7.522,7.994-14.113,16.04-21.111,24.463c-6.248,7.521-16.267,10.02-6.926,18.804c5.361,5.042,8.321,11.431,14.588,4.939
		c12.674-13.129,24.149-27.819,36.177-41.676c-1.256,11.454-2.353,22.809-3.061,34.387c-0.759,12.422-3.959,24.341-4.309,36.77
		c-2.318-0.309-4.772,0.01-7.082,0.08c-3.754,0.115-7.513,0.1-11.251,0.502c-0.448-0.475-1.287-0.454-1.547,0.348
		c-1.498,4.63-1.225,3.61-1.782,8.548c-0.142,1.262,1.13,2.185,2.243,2.242c13.284,0.7,26.183-2.229,39.518-1.363
		c13.71,0.89,27.082,2.546,40.858,1.938c12.009-0.529,18.155,3.321,19.582-9.225c0.094-0.815-0.513-1.534-1.125-1.961
		c-6.192-4.32-17.131-1.049-24.324-0.99c0.072-13.431-2.084-26.813-3.35-40.165c-0.797-8.413-1.1-18.293-4.309-26.418
		c13.666,9.896,24.793,22.695,38.725,32.294c11.051,7.613,18.41-1.493,24.644-11.094
		C178.297,130.171,176.783,128.611,175.174,128.56z M133.883,121.493c-7.261-6.691-14.792-12.702-24.208-15.951
		c-1.099-0.379-1.675,1.226-0.762,1.808c0.082,0.053,0.155,0.112,0.237,0.164c-0.101,0.285-0.14,0.6-0.026,0.952
		c7.147,22.341,3.597,47.199,10.441,69.821c-0.522,1.089,0.034,2.717,1.642,2.861c3.978,0.672,7.963,0.721,11.956,0.145
		c2.434-0.16,12.872,3.224,5.954,2.337c-10.176-1.305-21.442,1.009-31.768,0.635c-11.511-0.417-22.851-2.104-34.39-1.789
		c-7.194,0.196-21.174,6.146-24.165-2.103c2.988,0.425,5.996,0.602,9.017,0.68c3.077,0.08,6.641,0.526,9.64-0.393
		c1.095,0.387,2.566-0.162,2.513-1.648c-0.94-26.127,9.128-51.929,8.056-78.123c0.552-1.053,0.233-2.206-0.513-2.935
		c-0.187-0.213-0.404-0.384-0.66-0.473c-0.806-0.409-1.787-0.366-2.559,0.537c-8.721,10.202-17.635,20.255-26.299,30.521
		c-6.705,7.944-12.107,20.834-22.442,11.642c-6.055-5.385,3.889-10.284,7.436-13.139c5.835-4.697,9.926-11.958,14.939-17.41
		c8.02-8.723,14.572-17.167,21.505-26.592c1.926,2.579,4.598,4.89,7.534,6.064c1.325,0.53,2.664-0.79,2.688-2.047
		c0.044-2.275,0.236-4.516,0.859-6.71c0.596-2.1,1.993-3.805,2.75-5.839c0.428-1.148-0.461-2.263-1.533-2.568
		c-0.316-0.758-0.632-1.517-0.948-2.275c-0.273-0.656-0.88-1.163-1.64-0.931c-4.904,1.491-13.182-6.807-16.813-9.354
		c-6.403-4.489-12.041-9.899-18.277-14.547c-9.687-7.22-17.4-17.263-27.323-23.959C20.803,17.219,24.263,13.132,27.909,9
		c2.581-2.924,12.786,9.064,14.806,11.087c10.45,10.466,20.798,21.015,33.398,28.687c1.328,1.279,2.916,2.235,4.461,3.297
		c1.444,0.993,2.947,1.927,4.291,3.053c1.767,1.48,0.787,2.194-0.481,3.809c-2.882,3.672-4.295,7.685-0.274,10.05
		c0.045,1.494,2.141,2.336,3.223,0.827c1.394-1.944,3.841-2.737,6.09-3.128c2.444-0.425,4.203,0.538,6.486,1.051
		c0.402,0.091,0.866-0.054,1.195-0.329c0.131,0.005,0.238,0.065,0.382,0.033c3.248-0.74,5.063-2.881,7.117-5.556
		c6.05-7.882,11.967-15.918,18.474-23.434c5.968-6.895,12.809-13.058,18.89-19.877c3.319-3.722,6.663-7.409,10.066-11.054
		c3.593-3.847,10.922,5.358,13.179,8.207c-8.579,11.399-18.306,21.667-28.428,31.712c-4.633,4.597-8.757,9.737-12.918,14.753
		c-4.647,5.599-7.578,4.198-13.176,0.259c-0.442-0.312-0.953-0.058-1.219,0.342c-0.549-0.588-1.469-0.807-2.073-0.047
		c-1.65,2.079-3.531,4.085-5.682,5.654c-1.364,0.995-1.363,2.693,0,3.689c2.099,1.533,3.3,3.194,3.651,5.818
		c0.258,1.925-0.846,3.756-0.984,5.661c-0.013,0.18,0.087,0.308,0.131,0.464c-0.294,0.563-0.243,1.321,0.444,1.783
		c21.455,14.442,40.528,32.083,62.268,46.19C158.573,146.853,144.991,131.727,133.883,121.493z"/>
	<path d="M102.918,127.193c-0.396-2.529-1.625-5.678-1.029-8.207c0.476-2.021-1.246-3.627-3.22-3.221
		c-3.844,0.793-7.614,1.299-11.536,0.94c-2.93-0.27-3.575,4.328-0.924,5.162c-0.462,5.023-1.249,10.118-1.195,15.144
		c0.054,4.992,5.352,5.188,9.359,5.148c4.756-0.047,8.242-2.069,8.909-7.071C103.638,132.427,103.332,129.829,102.918,127.193z
		 M98.249,135.936c-0.629,2.216-4.359,1.689-6.07,1.754c-1.073,0.041-2.248,0.088-3.253-0.369c-0.024-0.447-0.049-0.894-0.098-1.339
		c-0.196-2.219-0.002-4.479,0.074-6.699c0.061-1.784,0.256-4.915-0.625-7.081c2.989,0.361,6.086,0.15,9.025-0.576
		c0.531,3.01,0.918,6.09,1.209,9.088C98.682,132.481,98.737,134.213,98.249,135.936z"/>
</g>
<g>
</g>
<g>
</g>
<g>
</g>
<g>
</g>
<g>
</g>
<g>
</g>
<g>
</g>
<g>
</g>
<g>
</g>
<g>
</g>
<g>
</g>
<g>
</g>
<g>
</g>
<g>
</g>
<g>
</g>
</svg>
