<?xml version="1.0" encoding="iso-8859-1"?>
<!-- Generator: Adobe Illustrator 16.0.0, SVG Export Plug-In . SVG Version: 6.00 Build 0)  -->
<!DOCTYPE svg PUBLIC "-//W3C//DTD SVG 1.1//EN" "http://www.w3.org/Graphics/SVG/1.1/DTD/svg11.dtd">
<svg version="1.1" id="Capa_1" xmlns="http://www.w3.org/2000/svg" xmlns:xlink="http://www.w3.org/1999/xlink" x="0px" y="0px"
	 width="193.061px" height="193.061px" viewBox="0 0 193.061 193.061" style="enable-background:new 0 0 193.061 193.061;"
	 xml:space="preserve">
<g>
	<path d="M192.206,97.616c-0.182-1.485-1.314-2.571-2.885-2.198c-6.991,1.664-13.916,1.297-21.028,1.613
		c-6.38,0.28-12.57,0.857-18.818-0.836c-0.302-4.619,1.486-20.857,2.095-36.046c2.343,0.106,4.686,0.212,7.034,0.289
		c3.07,0.1,3.021-4.545,0-4.734c-2.296-0.144-4.59-0.303-6.884-0.463c0.061-2.9,0.07-5.718-0.012-8.336
		c3.187,0.054,6.372,0.142,9.561,0.144c2.412,0.001,2.395-3.637,0-3.728c-3.229-0.123-6.503-0.29-9.765-0.447
		c-0.508-6.79-1.798-11.647-4.44-12.374c-12.093-3.326-28.279-1.688-40.835-2.201c-19.947-0.814-39.98,0.048-59.816,2.188
		c-1.362,0.146-2.453,1.017-2.479,2.479c-0.05,2.806-0.149,5.709-0.264,8.654c-2.12,0.22-4.262,0.361-6.366,0.634
		c-2.041,0.265-2.068,2.956,0,3.195c2.059,0.238,4.12,0.418,6.183,0.569c-0.083,1.943-0.17,3.907-0.253,5.881
		c-2.104,0.28-4.17,0.647-6.174,1.148c-2.224,0.556-1.153,4.186,0.932,3.381c0.632-0.244,1.265-0.488,1.897-0.733
		c0.357-0.138,0.547-0.59,0.235-0.89c0.798,0.768,1.813,1.39,2.922,1.945c-0.484,13.209-0.573,26.735,1.732,38.71
		c-7.313,0.127-14.599,0.656-21.898,1.106c-5.844,0.362-12.837-0.892-18.302,1.19c-1.697,0.646-1.974,2.941-2.096,4.516
		c-0.543,7.033-0.75,14.141-2.427,21.027c-0.288,1.184,0.587,2.624,1.924,2.526c2.543-0.186,3.145-0.171,4.307-0.677
		c-0.938,12.395-0.823,25.439-0.147,37.781c0.048,0.881,0.699,1.615,1.617,1.617c58.583,0.101,117.076,1.087,175.728,0.034
		c1.219-0.022,1.994-0.941,2.096-2.096c0.312-3.575-0.975-37.653,4.347-37.088c1.522,0.162,2.22-1.506,1.842-2.734
		C193.62,114.454,193.217,105.925,192.206,97.616z M99.22,33.084c4.893,0.066,46.609-0.36,47.099,4.325
		c0.183,1.74,0.269,3.493,0.363,5.244c-31.911-1.643-65.114-4.216-96.84-1.647C56.115,27.848,86.299,32.911,99.22,33.084z
		 M48.606,46.298c14.157,0.614,28.386-0.338,42.572-0.566c18.589-0.298,37.115,0.669,55.667,1.099
		c0.055,2.678,0.016,5.368-0.055,8.062c-20.097-1.457-40.149-3.179-60.331-2.736c-11.948,0.263-25.492-1.543-37.99-0.756
		C48.506,49.7,48.581,48.002,48.606,46.298z M183.786,121.698c-0.681,0.222-1.422,0.781-1.546,1.545
		c-2.566,15.795,8.543,37.319-15.188,37.29c-23.562-0.03-47.044,0.612-70.595,1.352c-22.674,0.712-44.948-0.524-67.595-1.094
		c-10.128-0.255-20.188,3.425-20.105-10.236c0.058-9.639,2.143-17.601-0.003-27.003c0.046-0.254,0.007-0.522-0.157-0.719
		c-0.238-0.838-1.074-0.903-1.646-0.511c-1.211-0.248-1.861-0.342-2.913-0.401c0.148-4.448,0.822-8.741,1.306-13.198
		c0.643-5.912,1.343-7.395,8.013-7.295c10.651,0.159,21.292-1.112,31.945-1.195c2.17-0.017,2.783-2.376,1.904-3.774
		c0.247-12.66,0.717-25.297,1.071-37.95c11.731,2.536,30.016-0.238,38.182-0.549c20.206-0.771,40.094,0.91,60.161,1.95
		c-0.551,12.147-1.75,24.373-1.106,36.373c0.044,0.823,0.508,1.352,1.088,1.642c-0.26,1.116,0.175,2.415,1.59,2.89
		c6.297,2.116,13.599,1.07,20.102,0.675c6.673-0.405,13.434,1.263,19.765-0.685c0.66,6.743-0.511,13.541,0.288,20.249
		C186.752,120.782,186.279,120.883,183.786,121.698z"/>
	<path d="M108.93,65.625c0.004-1.242-1.055-2.336-2.312-2.312c-6.66,0.127-13.306,0.319-19.943,0.946
		c-0.296-0.04-0.599-0.036-0.88,0.061c-0.02,0.002-0.04,0.002-0.06,0.004c-1.14,0.115-1.438,1.168-1.031,1.903
		c-0.051,4.733-0.231,9.471-0.872,14.164c-0.478,3.496-1.117,7.319-0.361,10.826c0.594,2.752,1.626,4.409,4.447,5.073
		c1.958,0.46,4.232-0.098,6.19-0.316c3.836-0.431,7.998,0.88,11.773,1.513c1.569,0.264,2.593-0.854,2.384-2.384
		C106.951,85.508,108.897,75.28,108.93,65.625z M94.107,92.288c-1.446,0.127-2.874,0.306-4.325,0.387
		c-3.428,0.19-2.739-4.083-2.696-6.071c0.14-6.489,0.82-12.953,0.961-19.453c5.416,0.533,10.817,0.861,16.255,0.805
		c-0.071,8.415-0.001,16.785,0.127,25.187C101.052,92.392,97.484,91.991,94.107,92.288z"/>
	<path d="M49.967,104.113c-3.631-0.175-7.244,0.63-10.873,0.899c-0.7-0.586-1.865-0.432-2.3,0.659
		c-1.662,4.173-1.258,9.301-1.444,13.715c-0.068,1.616,1.677,2.251,2.939,1.687c2.926-1.31,7.118-0.424,10.08,0.302
		c0.883,0.216,2.095-0.272,2.252-1.279c0.754-4.812,0.545-9.639,0.845-14.482C51.52,104.768,50.745,104.149,49.967,104.113z
		 M39.383,117.38c0.25-3.754,0.596-7.641,0.259-11.323c-0.005-0.052-0.044-0.073-0.053-0.123c2.91,0.424,5.845,0.713,8.771,1.019
		c-0.191,3.542-0.613,7.071-1.074,10.59C44.632,117.222,42.049,117.297,39.383,117.38z"/>
	<path d="M102.954,104.947c0.025-0.843-0.597-1.598-1.388-1.822c-4.049-1.152-9.089-0.919-13.077,0.391
		c-1.159,0.381-1.799,1.478-1.519,2.675c1.123,4.805,1.104,9.633,1.388,14.529c0.105,1.801,2.537,2.032,3.082,0.638
		c3.3,0.654,6.814,0.806,10.049,0.238c0.883-0.155,1.302-1.183,1.117-1.967c-0.559-2.377-0.064-5.214,0.067-7.629
		C102.802,109.65,102.882,107.298,102.954,104.947z M91.542,118.782c-0.017-3.749,0.05-7.512-0.179-11.25
		c2.607-0.232,5.267-0.104,7.852-0.382c0.026,1.617,0.05,3.233,0.088,4.85c0.05,2.111,0.42,4.442,0.291,6.602
		C96.896,118.863,94.23,118.771,91.542,118.782z"/>
	<path d="M157.487,107.551c-1.106-2.21-3.625-2.177-5.741-1.864c-2.732,0.404-5.49,1.015-8.249,1.188
		c-0.688,0.043-1.424,0.46-1.569,1.194c-0.817,4.094-0.511,8.813,0.359,12.886c0.059,0.277,0.174,0.494,0.314,0.674
		c-0.125,0.467,0.035,0.993,0.636,1.144c4.017,1.014,7.925,0.835,12.034,0.772c0.832-0.013,1.676-0.577,1.867-1.421
		C158.077,117.962,159.497,111.561,157.487,107.551z M145.612,120.673c0.011-0.062,0.04-0.111,0.043-0.175
		c0.201-3.58-0.625-7.104-0.551-10.703c2.792-0.735,7.974-2.338,8.712,0.21c0.863,2.977,0.262,6.637-0.227,9.862
		C150.937,120.173,148.275,120.461,145.612,120.673z"/>
	<path d="M51.709,131.828c0.043-1.095-0.927-1.934-1.965-1.965c-1.483-0.045-2.861,0.135-4.321,0.351
		c-1.342,0.199-0.951,1.945,0,2.339c0.808,0.335,1.602,0.586,2.41,0.811c0.255,7.248,1.312,14.39,0.606,21.639
		c-3.365,0.496-6.816,1.418-10.158,0.952c0.011-0.051,0.051-0.081,0.058-0.133c0.56-4.373,0.089-9.08,0.503-13.545
		c0.206-2.228,0.389-4.434,0.427-6.673c0.053-3.141,0.53-3.242,3.59-3.452c0.997-0.067,0.984-1.451,0-1.537
		c-4.956-0.437-7.016-0.491-7.519,4.989c-0.541,5.896-3.038,15.615,0.243,20.963c0.011,0.019,0.029,0.019,0.041,0.035
		c0.013,0.243,0.098,0.474,0.374,0.601c4.434,2.032,9.263,0.905,13.97,0.956c0.673,0.007,1.507-0.51,1.612-1.228
		C52.793,148.592,51.384,140.209,51.709,131.828z"/>
	<path d="M79.233,131.605c0.056-1.222-1.029-2.105-2.163-2.163c-4.123-0.209-8.306,0.235-12.441,0.271
		c-1.753,0.015-2.618,1.979-2.144,3.342c-0.272,3.438-0.031,7.007-0.131,10.438c-0.138,4.719,0.09,9.201,0.571,13.885
		c0.099,0.963,0.804,2.034,1.926,1.926c2.821-0.27,13.183,1.25,13.885-3.536c0.424-2.889-0.14-5.978-0.122-8.896
		C78.646,141.787,79,136.682,79.233,131.605z M74.165,154.812c-2.43,0.733-5.228,0.486-7.837,0.568
		c-1.718-6.626,0.493-14.52-1.469-21.013c3.346,0.348,6.705,0.018,10.055-0.359c-0.008,4.925-0.364,9.85-0.347,14.778
		C74.569,149.705,75.569,154.389,74.165,154.812z"/>
	<path d="M104.274,131.828c-0.002-1.11-0.954-2.146-2.101-2.102c-4.445,0.179-8.884,0.517-13.33,0.696
		c-2.045,0.083-2.512,2.425-1.415,3.546c0.628,7.815,1.095,15.537,1.423,23.406c0.039,0.928,0.776,1.815,1.769,1.769
		c4.146-0.192,8.291-0.408,12.441-0.354c1.487,0.019,2.188-1.336,2.008-2.635C103.96,148.18,104.29,139.869,104.274,131.828z
		 M90.34,134.553c3.274,0.041,6.525-0.109,9.773-0.452c0.076,6.958-0.42,13.778,0.551,20.697c-2.78,0.188-5.553,0.428-8.328,0.661
		C92.177,148.734,92.732,140.919,90.34,134.553z"/>
	<path d="M131.603,130.836c-2.306-2.304-10.199-1.68-12.728-0.242c-0.311,0.176-0.543,0.499-0.692,0.855
		c-0.054-0.205-0.089-0.414-0.146-0.618c-0.379-1.323-2.516-1.101-2.441,0.33c0.442,8.562,0.715,16.967,0.435,25.548
		c-0.031,0.974,0.799,1.631,1.696,1.696c3.748,0.271,9.964,2.522,12.803-1.053c2.687-3.382,1.936-9.471,2.004-13.471
		C132.609,139.422,135.242,134.472,131.603,130.836z M128.063,152.254c-0.276,4.442-4.957,3.381-8.597,2.917
		c0.215-7.282,0.669-14.812-0.865-21.958c1.546,1.714,3.354,1.535,5.75,1.33c1.404-0.12,4.414-1.077,4.61,1.035
		c0.188,2.039-0.765,4.302-0.92,6.362C127.785,145.359,128.277,148.819,128.063,152.254z"/>
	<path d="M157.61,134.182c-3.29-5.474-10.233-2.822-15.446-3.507c-2.258-0.297-2.68,3.231-0.691,3.936
		c1.78,7.838,0.462,16.227-0.435,24.099c-0.113,0.993,1.008,2.148,2.015,2.015c3.838-0.511,7.702-0.738,11.552-1.136
		c1.298-0.134,2.079-0.912,2.212-2.212c0.469-4.594,0.136-9.194,0.985-13.741C158.311,140.906,159.151,136.747,157.61,134.182z
		 M154.426,138.797c-0.114,2.697-1.381,5.237-1.553,7.915c-0.187,2.898-0.214,5.799-0.378,8.696c-2.528,0.284-5.05,0.61-7.563,0.997
		c-0.342-7.223,0.484-14.488-1.3-21.52C147.89,134.975,154.638,133.792,154.426,138.797z"/>
</g>
<g>
</g>
<g>
</g>
<g>
</g>
<g>
</g>
<g>
</g>
<g>
</g>
<g>
</g>
<g>
</g>
<g>
</g>
<g>
</g>
<g>
</g>
<g>
</g>
<g>
</g>
<g>
</g>
<g>
</g>
</svg>
