<?xml version="1.0" encoding="iso-8859-1"?>
<!-- Generator: Adobe Illustrator 16.0.0, SVG Export Plug-In . SVG Version: 6.00 Build 0)  -->
<!DOCTYPE svg PUBLIC "-//W3C//DTD SVG 1.1//EN" "http://www.w3.org/Graphics/SVG/1.1/DTD/svg11.dtd">
<svg version="1.1" id="Capa_1" xmlns="http://www.w3.org/2000/svg" xmlns:xlink="http://www.w3.org/1999/xlink" x="0px" y="0px"
	 width="188.271px" height="188.27px" viewBox="0 0 188.271 188.27" style="enable-background:new 0 0 188.271 188.27;"
	 xml:space="preserve">
<g>
	<path d="M126.376,110.986c3.348-25.963,4.804-52.578,9.58-78.32c0.838-0.783,0.571-2.576-0.722-3.059
		c-1.426-0.532-2.898-0.873-4.369-1.236c0.604-3.388,1.17-6.782,1.702-10.183c0.418-2.67,1.273-5.638,1.105-8.417
		c1.559-0.964,1.47-4.03-0.673-4.625c-6.475-1.799-13.275-2.464-19.954-3.087c-6.465-0.604-12.539-2.379-19.065-2.008
		c-0.81,0.046-1.44,0.506-1.689,1.286c-2.141,6.69-3.608,13.498-2.967,20.478l-2.553-1.316c-1.151-0.593-2.5-0.081-2.891,1.176
		C68.483,71.251,68.521,125.817,63.023,177.148c-2.669-0.473-5.702-0.225-8.281,0.055c-0.077,0.008-0.107,0.07-0.176,0.091
		c-1.16-0.566-3.234,1.113-1.411,2.392c0.224,0.157,0.347,0.238,0.62,0.201c-1.893,1.636-2.403,3.682-1.528,6.138
		c0.044,1.047,0.802,1.765,1.831,1.83c24.734,1.604,49.665-2.02,74.487-1.055c1.117,0.044,2.146-0.991,2.106-2.106
		c0.012-2.899-0.211-5.781-0.667-8.646c-0.134-1.136-0.855-2.107-2.104-2.104c-0.961,0.002-1.921,0.005-2.882,0.008
		c-0.474,0.001-0.834,0.159-1.142,0.372c-10.793,0.857-2.343-26.919-1.512-32.908C123.77,131.283,125.066,121.133,126.376,110.986z
		 M114.91,176.934c0.039,0.835,0.739,1.791,1.683,1.683c2.435-0.276,4.869-0.554,7.304-0.83c0.305,0.202,0.658,0.355,1.12,0.356
		c2.239,2.213,1.509,3.686-2.188,4.415c-3.824-0.058-7.648-0.071-11.473-0.039c-7.649,0.02-15.3,0.301-22.945,0.576
		c-7.76,0.279-30.861,5.573-32.966-3.723c2.923,0.13,6.107,0.965,8.907,0.195c0.766-0.211,0.947-1.03,0.635-1.614
		c6.569-18.299,5.52-41.859,7.665-61.295c1.141-10.336,14.099-91.812,15.705-91.032c1.215,0.589,2.322-0.137,2.728-1.091
		c0.331-0.116,0.621-0.318,0.681-0.703c0.707-4.504,1.412-8.993,2.276-13.47c0.421-1.802,0.798-3.614,1.129-5.435
		c0.406-2.082,7.988,0.063,9.035,0.285c8.521,1.809,17.267,3.36,25.927,4.528c-0.601,1.773-0.805,3.689-1.084,5.667
		c-0.65,4.618-1.263,9.238-2.031,13.838c-0.171,1.025,0.256,1.92,1.281,2.256c1.517,0.498,2.996,0.891,4.51,1.184
		c-5.957,19.654-6.167,42.852-8.838,63.331C120.521,122.472,113.649,150.214,114.91,176.934z"/>
	<path d="M77.582,153.852c-3.819-0.088-5.723,5.094-6.673,7.958c-1.027,3.097-2.376,8.044-0.722,11.123
		c0.155,0.288,0.397,0.374,0.645,0.383c0.012,0.002,0.013,0.015,0.025,0.017c1.486,0.218,2.979,0.407,4.477,0.519
		c1.74,0.129,3.497,0.723,5.217,0.453c0.271-0.043,0.462-0.221,0.61-0.438c0.185-0.088,0.353-0.21,0.462-0.37
		C84.577,169.137,85.268,154.028,77.582,153.852z M71.972,171.153c0.266-2.153,0.698-4.288,1.281-6.381
		c0.504-1.807,1.925-7.094,4.329-7.358c2.687-0.297,2.103,9.794,2.02,14.111C77.34,170.673,74.351,171.034,71.972,171.153z"/>
	<path d="M94.262,154.872c-8.602-3.394-9.712,13.597-9.176,18.295c0.16,1.401,1.604,1.621,2.316,0.795
		c0.702,0.225,1.419,0.401,2.159,0.576c1.084,0.255,2.007,0.802,2.998,1.139c0.535,1.656,2.777,1.515,3.324-0.052
		c1.172-3.363,1.236-7.741,1.47-11.271C97.558,161.27,97.795,156.264,94.262,154.872z M87.917,172.374
		c0.335-2.472,0.722-4.966,1.271-7.389c0.207-0.914,2.528-8.466,3.987-5.942c1.392,2.407,0.334,6.798-0.026,9.355
		c-0.162,1.151-0.486,2.451-0.68,3.747c-0.37,0.016-0.753,0.046-1.168,0.082C90.17,172.328,89.043,172.342,87.917,172.374z"/>
	<path d="M106.15,157.17c-4.008-0.413-5.955,4.564-6.778,7.576c-0.821,3-2.349,9.103-0.604,12.003
		c0.512,0.85,1.657,0.853,2.258,0.13c2.161,0.385,4.625,1.273,6.775,1.026c0.897,0.113,1.823-0.247,2.025-1.34
		C110.737,171.634,113.915,157.97,106.15,157.17z M101.956,174.303c0.3-1.703,0.333-3.614,0.582-5.026
		c0.352-1.993,1.008-6.896,3.335-7.646c1.721-0.556,1.021,8.908,0.459,12.584C104.892,174.081,103.373,174.165,101.956,174.303z"/>
	<path d="M84.729,122.928c-3.925-0.316-5.83,4.534-6.998,7.47c-1.31,3.295-2.629,7.845-1.848,11.464
		c-0.247,0.287-0.298,0.743,0.018,1.021c1.001,0.884,2.75,1.223,4.015,1.493c1.492,0.317,3.596,1.197,5.028,0.307
		c0.547-0.34,0.815-1.038,0.612-1.651c0.472-1.174,0.733-2.561,1.053-3.595c0.819-2.649,1.612-5.332,2.041-8.075
		C89.125,128.323,88.812,123.257,84.729,122.928z M85.104,135.587c-0.4,1.683-1.676,3.896-2.269,5.89
		c-0.53-0.045-1.067-0.061-1.573-0.074c-1.019-0.026-2.146-0.046-3.25,0.017c0.26-2.407,1.169-4.944,1.952-7.184
		c0.931-2.66,1.909-6.322,4.421-7.97C86.714,124.74,85.263,134.925,85.104,135.587z"/>
	<path d="M96.981,127.011c-3.584,0.545-5.137,4.872-6.191,7.82c-1.046,2.924-2.624,7.888-1.331,10.954
		c0.034,0.079,0.104,0.104,0.146,0.172l0.002,0.002c0.334,0.543,0.865,0.747,1.361,0.616c1.621,0.609,3.439,1.225,5.123,1.357
		c0.478,1.388,3.06,1.365,2.973-0.483c-0.1-2.131,1.057-4.556,1.654-6.576c0.755-2.553,1.354-5.126,1.418-7.796
		C102.202,130.289,100.307,126.505,96.981,127.011z M98.792,137.593c-0.718,2.57-1.527,5.095-2.239,7.658
		c-1.393-0.502-3.032-0.538-4.594-0.361c0.533-4.975,1.359-11.068,4.725-14.903c1.648-1.877,3.006,0.835,3.082,2.363
		C99.854,134.11,99.259,135.919,98.792,137.593z"/>
	<path d="M110.287,127.671c-7.219,0.859-8.572,14.351-7.792,19.777c0.026,0.188,0.13,0.319,0.258,0.417
		c-0.109,0.332-0.078,0.708,0.209,0.94c1.607,1.3,4.995,1.985,7.105,1.624c0.634,0.396,1.439,0.494,2.151,0.077
		c1.318-0.772,1.545-2.965,1.916-4.295C115.333,141.921,119.222,126.606,110.287,127.671z M111.82,137.547
		c-0.312,2.33-0.908,4.626-1.546,6.885c-0.195,0.698-0.589,1.567-0.878,2.444c-1.633-0.394-3.661-0.384-5.207,0.085
		c0.682-3.728,1.502-7.533,2.853-11.069c0.509-1.332,2.23-5.346,4.259-4.373C112.704,132.192,111.969,136.442,111.82,137.547z"/>
	<path d="M86.912,91.472c-3.632,0.236-5.071,6.151-5.867,8.874c-0.962,3.289-2.634,8.627-1.114,11.971
		c0.091,0.299,0.279,0.573,0.681,0.717c2.67,0.952,5.525,2.111,8.387,1.724c1.098-0.149,1.218-1.858,0.303-2.32
		c-0.106-0.054-0.224-0.072-0.332-0.12c0.835-1.427,0.823-3.842,1.082-5.41c0.419-2.544,0.887-5.092,1.107-7.662
		C91.398,96.42,90.876,91.214,86.912,91.472z M88.767,103.988c-0.349,2.187-2.12,5.327-1.856,7.672
		c-1.577-0.326-3.229-0.423-4.827-0.621c0.406-5.161,1.432-12.576,4.907-16.345c1.716-1.86,2.259,1.923,2.322,3.018
		C89.434,99.797,89.093,101.938,88.767,103.988z"/>
	<path d="M104.062,98.353c-0.118-0.111-0.33,0.036-0.231,0.179c3.325,4.816-1.333,11.5-3.166,16.992
		c-1.592-0.54-3.309-0.774-4.999-0.806c1.059-5.445,2.249-13.087,7.602-15.991c0.502-0.271,0.577-1.178,0-1.427
		c-6.303-2.721-11.842,13.705-9.637,17.998c0.095,0.185,0.249,0.305,0.42,0.392c0.025,0.234,0.117,0.454,0.387,0.577
		c1.788,0.814,3.763,1.169,5.657,1.677c-0.122,1.499,2,2.162,2.428,0.581C104.098,112.699,109.697,103.683,104.062,98.353z"/>
	<path d="M117.783,98.709c-3.909-2.224-7.31,2.282-8.725,5.255c-2.134,4.482-3.24,10.276-2.529,15.219
		c0.111,0.771,0.746,0.947,1.349,0.803c0.029,0.004,0.039,0.031,0.068,0.033c2.072,0.164,4.153,1.044,6.207,0.976
		c0.091-0.004,0.136-0.063,0.218-0.077c0.584,0.274,1.303,0.231,1.797-0.271c2.347-2.392,2.781-8.272,3.402-11.395
		C120.208,106.054,121.267,100.69,117.783,98.709z M114.816,112.701c-0.384,1.291-1.229,3.104-1.508,4.798
		c-1.173-0.337-2.497-0.372-3.746-0.331c0.792-2.751,1.251-5.608,2.059-8.354c0.579-1.972,1.133-3.875,2.195-5.651
		c0.7-1.172,2.583-2.547,2.861-0.43C117.102,105.982,115.729,109.635,114.816,112.701z"/>
	<path d="M92.528,64.691c-8.005-1.634-9.608,13.222-9.395,18.249c0.014,0.332,0.272,0.543,0.55,0.608
		c0.195,0.338,0.489,0.618,0.986,0.661c3.237,0.282,5.863,2.465,9.089,2.631c1.303,0.067,1.596-1.672,0.626-2.311
		c-0.076-0.05-0.169-0.086-0.247-0.135c1.637-2.953,1.994-7.637,2.351-10.606C96.9,70.363,96.655,65.533,92.528,64.691z
		 M84.758,81.677c0.464-1.969,1.037-3.923,1.609-5.853c0.729-2.458,1.991-6.93,4.66-7.995c4.362-1.741,0.984,10.424-0.083,15.04
		C88.935,82.129,86.78,81.683,84.758,81.677z"/>
	<path d="M111.21,68.256c-1.619-3.699-6.07-1.213-7.911,0.704c-3.62,3.769-5.093,10.871-5.534,15.901
		c-0.043,0.49,0.302,1.03,0.719,1.273c0.049,0.521,0.334,1.025,0.908,1.191c2.171,0.629,4.31,1.344,6.563,1.559
		c0.544,0.824,1.651,1.188,2.497,0.324c2.188-2.24,2.218-7.069,2.747-9.963C111.845,75.712,112.708,71.677,111.21,68.256z
		 M106.996,81.574c-0.273,1.241-0.802,2.648-1.123,4.034c-1.609-0.426-3.276-0.606-4.938-0.771
		c1.633-3.229,2.317-6.927,3.863-10.205c0.621-1.318,1.588-3.067,2.962-3.833c0.137,0.51,0.181,1.041,0.211,1.565
		C108.148,75.451,107.657,78.572,106.996,81.574z"/>
	<path d="M121.383,69.271c-5.808-2.438-9.747,12.53-8.916,17.758c-0.08,0.062-0.191,0.101-0.256,0.174
		c-0.477,0.541-0.394,1.372,0.172,1.771c0.688,0.749,1.804,0.971,2.787,1.348c1.455,0.558,3.165,1.265,4.748,1.068
		c0.415-0.052,0.752-0.218,1.032-0.431c0.659,0.16,1.408-0.046,1.886-0.769c1.854-2.812,1.712-8.377,1.867-11.617
		C124.859,75.338,124.873,70.736,121.383,69.271z M114.501,86.449c0.503-2.227,1.018-4.425,1.8-6.611
		c0.239-0.668,3.667-7.657,4.148-6.946c1.425,2.108,0.594,6.369,0.358,8.706c-0.184,1.827-0.879,3.893-1.14,5.834
		C118.214,86.819,116.158,86.378,114.501,86.449z"/>
	<path d="M94.51,29.328c-4.125,0.589-5.729,7.793-6.549,10.904c-0.946,3.592-2.572,9.084-0.849,12.668
		c0.222,0.461,0.563,0.642,0.927,0.708c0.107,0.24,0.271,0.465,0.57,0.627c1.584,0.862,3.195,1.478,4.947,1.826
		c1.786,2.101,3.417-4.241,3.583-4.954C98.086,47.062,103.744,28.01,94.51,29.328z M95.123,42.863
		c-0.449,2.701-1.044,5.377-1.645,8.047c-0.162,0.721-0.411,1.457-0.55,2.189c-0.983-0.392-1.957-0.805-2.888-1.311
		c-0.007-0.004-0.014-0.003-0.021-0.006c0.544-4.785,1.558-9.632,3.19-14.158c0.458-1.268,2.26-6.064,2.593-3.052
		C96.105,37.299,95.566,40.187,95.123,42.863z"/>
	<path d="M107.214,33.573c-4.042,0.208-5.665,6.028-6.406,9.118c-1.061,4.424-2.213,9.952-1.103,14.445
		c0.068,0.278,0.354,0.338,0.608,0.27c0.182,0.241,0.422,0.429,0.763,0.438c2.203,0.06,4.243,0.903,6.429,1.123
		c1.165,0.117,1.498-1.114,1.05-1.934c0.413-0.068,0.801-0.257,1.043-0.747c1.902-3.85,1.914-9.815,2.123-14.028
		C111.878,39.083,111.662,33.344,107.214,33.573z M101.237,55.716c2.131-5.726,1.431-12.393,4.709-17.855
		c2.824-4.704,2.541,5.808,2.397,7.163c-0.355,3.34-2.023,7.09-1.827,10.426c0.016,0.25,0.156,0.445,0.27,0.653
		C104.973,55.605,103.12,55.497,101.237,55.716z"/>
	<path d="M124.5,36.902c-8.518-3.464-10.38,16.255-11.205,20.688c-0.059,0.31,0.032,0.594,0.19,0.835
		c-0.192,1.017,0.226,2.14,1.442,2.371c3.146,0.596,5.971,2.056,9.203,2.115c1.494,0.027,2.092-1.331,1.743-2.474
		c2.338-2.347,2.606-9.203,2.835-11.832C129.068,44.455,128.986,38.728,124.5,36.902z M122.654,41.192
		c1.902-1.293,1.646,8.432,1.578,9.226c-0.175,2.047-0.488,4.066-0.922,6.073c-0.114,0.527-0.304,1.065-0.448,1.606
		c-2.152-0.916-4.568-1.264-6.902-1.382c0.665-1.89,1.199-3.828,1.794-5.739C118.692,47.959,119.86,43.092,122.654,41.192z"/>
</g>
<g>
</g>
<g>
</g>
<g>
</g>
<g>
</g>
<g>
</g>
<g>
</g>
<g>
</g>
<g>
</g>
<g>
</g>
<g>
</g>
<g>
</g>
<g>
</g>
<g>
</g>
<g>
</g>
<g>
</g>
</svg>
