<?xml version="1.0" encoding="iso-8859-1"?>
<!-- Generator: Adobe Illustrator 19.0.0, SVG Export Plug-In . SVG Version: 6.00 Build 0)  -->
<svg version="1.1" id="Layer_1" xmlns="http://www.w3.org/2000/svg" xmlns:xlink="http://www.w3.org/1999/xlink" x="0px" y="0px"
	 viewBox="0 0 511.999 511.999" style="enable-background:new 0 0 511.999 511.999;" xml:space="preserve">
<g>
	<g>
		<path d="M267.898,114.533c-0.46-2.038-1.431-4.029-2.45-5.844c-1.306-2.326-3.059-4.427-5.198-6.008
			c-1.805-1.327-4.03-2.141-6.282-2.141c-0.322,0-0.646,0.017-0.968,0.052c-2.786,0.31-5.36,1.578-7.648,3.146
			c-2.089,1.419-3.668,3.183-5.099,5.247c-0.722,1.032-1.144,2.313-1.592,3.483c-0.423,1.144-0.46,2.45-0.547,3.655
			c-0.2,2.687,2.401,4.95,4.95,4.95c1.306,0,2.574-0.536,3.494-1.454c0.97-0.983,1.343-2.153,1.443-3.495
			c0.005-0.078,0.011-0.157,0.017-0.236c0.057-0.249,0.126-0.492,0.206-0.735c0.221-0.404,0.454-0.787,0.707-1.163
			c0.423-0.453,0.852-0.873,1.307-1.272c0.808-0.537,1.639-0.998,2.518-1.414c0.31-0.11,0.616-0.206,0.93-0.29
			c0.016,0.004,0.034,0.009,0.05,0.012c0.076,0.042,0.151,0.086,0.226,0.129c0.336,0.304,0.647,0.622,0.951,0.961
			c0.677,0.978,1.271,1.994,1.783,3.068c0.326,0.941,0.567,1.886,0.749,2.867c0.058,0.591,0.104,1.182,0.143,1.768
			c0.037,0.397,0.076,0.796,0.112,1.194c0.062,0.559,0.136,1.131,0.224,1.69c0.2,0.821,0.534,1.555,0.87,2.326
			c0.472,0.796,1.107,1.43,1.903,1.89c1.219,0.722,2.698,0.908,4.055,0.536c0.895-0.249,1.679-0.698,2.337-1.357
			c1.082-1.082,1.355-2.275,1.542-3.731C268.954,119.756,268.482,117.082,267.898,114.533z"/>
	</g>
</g>
<g>
	<g>
		<path d="M354.951,333.743c-0.677-1.202-1.613-2.236-2.547-3.261c0.547-1.395,1.012-2.797,1.316-4.301
			c0.485-2.401,0.485-4.899-0.435-7.2c-0.472-1.169-1.033-2.263-1.914-3.183c-0.821-0.833-1.741-1.58-2.786-2.102
			c-3.383-1.679-7.225-1.567-10.845-0.883c-1.748,0.329-3.488,0.713-5.234,0.996c-0.78,0.077-1.55,0.119-2.324,0.112
			c0.542-2.511,1.311-4.972,1.675-7.524c0.249-1.74,0.31-3.357,0.037-5.11c-0.274-1.767-0.833-3.446-1.753-4.987
			c-0.759-1.267-1.84-2.5-3.097-3.295c-1.394-0.889-2.95-1.309-4.568-1.309c-0.286,0-0.577,0.014-0.867,0.04
			c-3.172,0.285-5.845,1.877-8.319,3.768c-1.33,1.019-2.525,2.114-3.607,3.407c-1.095,1.33-2.052,2.785-2.947,4.264
			c-0.761,1.25-1.394,2.565-1.98,3.906c-0.717-0.813-1.484-1.578-2.407-2.203c-1.454-0.983-2.985-1.257-4.701-1.443
			c-4.415-0.51-8.904-0.51-13.332-0.609c-4.014-0.079-7.985-0.336-11.963-0.799c-3.118-0.537-6.192-1.163-9.277-1.85
			c-3.716-0.843-7.42-1.755-10.966-3.163c-4.05-1.843-7.717-4.303-11.406-6.749c-2.368-1.572-4.717-3.132-6.998-4.812
			c-2.109-1.841-4.114-3.766-6.06-5.783c-2.188-2.248-4.446-4.464-6.44-6.885c-0.759-1.042-1.43-2.127-1.998-3.29
			c-0.413-1.14-0.725-2.306-1.001-3.492c-0.386-1.675-2.031-2.766-3.686-2.766c-0.325,0-0.648,0.042-0.965,0.129
			c-2.052,0.56-3.109,2.65-2.649,4.651c0.485,2.114,1.132,4.117,2.052,6.081c1.132,2.376,2.836,4.477,4.502,6.492
			c1.666,2.015,3.358,4.004,5.037,6.006c1.567,1.879,3.183,3.669,4.888,5.422c1.803,1.866,4.004,3.457,6.068,5.012
			c5.932,4.427,11.878,9.005,19.064,11.23c4.614,1.419,9.315,2.65,14.065,3.52c2.823,0.51,5.696,1.032,8.569,1.244
			c2.624,0.198,5.236,0.347,7.86,0.397c4.605,0.093,9.232-0.02,13.831,0.346c0.314,0.321,0.61,0.656,0.896,1.007
			c1.071,1.472,2.056,2.971,2.847,4.6c0.6,1.639,1.017,3.299,1.302,5.026c0.464,4.435,0.129,8.833-0.37,13.25
			c-0.372,2.3-0.82,4.559-1.394,6.838c-0.518,2.117-1.333,4.164-2.165,6.179c-0.99,2.181-2.005,4.308-3.385,6.278
			c-1.144,1.379-2.371,2.67-3.732,3.834c-0.998,0.694-2.041,1.277-3.147,1.799c-2.174,0.873-4.408,1.639-6.661,2.281
			c-1.231,0.348-2.45,0.647-3.694,0.934c-0.64,0.145-1.298,0.239-1.955,0.329c-4.678,0.413-9.347,0.608-14.025,0.082
			c-4.072-0.673-7.942-2.093-11.772-3.596c-2.248-1.018-4.425-2.135-6.57-3.369c-2.314-1.318-4.589-2.673-6.902-3.993
			c-2.238-1.267-4.427-2.574-6.604-3.942c-2.114-1.308-4.107-2.854-6.098-4.347c-3.264-2.558-6.474-5.152-9.61-7.853
			c-1.529-1.307-3.034-2.65-4.539-3.993c-1.704-1.529-3.483-2.997-5.148-4.564c-2.027-1.891-5.187-2.003-7.188,0
			c-0.946,0.945-1.493,2.249-1.493,3.593c0,1.43,0.584,2.537,1.493,3.593c1.529,1.778,3.42,3.257,5.223,4.738
			c1.914,1.567,3.83,3.109,5.77,4.639c4.141,3.245,8.37,6.38,12.697,9.377c3.929,2.723,8.109,4.976,12.313,7.225
			c4.602,2.451,9.053,5.199,13.928,7.102c2.351,0.92,4.688,1.815,7.101,2.56c2.065,0.646,4.129,1.208,6.268,1.567
			c1.666,0.274,3.358,0.424,5.024,0.622c1.132,0.125,2.288,0.125,3.432,0.186c1.157,0.063,2.363,0.076,3.531,0.037
			c2.848-0.087,5.647-0.224,8.47-0.672c2.351-0.373,4.676-0.908,6.939-1.642c2.176-0.696,4.29-1.454,6.381-2.387
			c2.96-1.318,5.534-3.595,7.71-5.969c0.115-0.126,0.205-0.273,0.317-0.399c0.081,0.025,0.157,0.055,0.239,0.078
			c0.895,0.248,1.815,0.46,2.735,0.621c2.164,0.41,4.378,0.66,6.579,0.635c3.929-0.05,7.885-0.274,11.814-0.51
			c2.015-0.125,4.03-0.274,6.031-0.485c1.019-0.113,2.04-0.224,3.059-0.361c1.306-0.162,2.562-0.348,3.818-0.746
			c0.982-0.311,1.915-0.808,2.836-1.268c1.866-0.92,3.669-2.003,5.398-3.159c2.687-1.79,4.937-4.041,6.877-6.615
			c2.512-3.296,4.862-6.915,5.297-11.143C357.003,338.942,356.331,336.218,354.951,333.743z M296.479,313.669
			c0.1,0.005,0.198,0.016,0.295,0.027c0.004,0.005,0.009,0.01,0.012,0.014C296.683,313.696,296.58,313.683,296.479,313.669z
			 M347.953,341.058c-0.131,0.59-0.305,1.158-0.516,1.721c-0.689,1.426-1.509,2.748-2.428,4.046
			c-1.215,1.512-2.496,2.93-3.989,4.196c-1.236,0.9-2.538,1.694-3.841,2.508c-1.194,0.739-2.417,1.524-3.685,2.159
			c-1.25,0.402-2.529,0.593-3.839,0.801c0.386-0.05,0.771-0.099,1.145-0.149c-0.279,0.036-0.563,0.076-0.848,0.115
			c-0.245,0.031-0.491,0.065-0.735,0.096c-0.083,0.014-0.169,0.025-0.253,0.036c0.034-0.005,0.067-0.01,0.1-0.016
			c-0.143,0.02-0.285,0.037-0.428,0.055c0.174-0.024,0.348-0.046,0.525-0.069c0.011-0.003,0.024-0.004,0.035-0.006
			c-3.221,0.424-6.466,0.585-9.713,0.672c-3.214,0.086-6.465,0.11-9.68-0.172c-0.068-0.01-0.135-0.019-0.203-0.026
			c-0.853-0.126-1.709-0.259-2.558-0.428c0.285-0.646,0.6-1.283,0.865-1.938c0.97-2.388,1.815-4.776,2.562-7.239
			c0.61-2.04,0.982-4.177,1.281-6.279c0.386-2.65,0.672-5.286,0.858-7.947c0.373-5.336,0.05-10.919-1.704-15.992
			c-0.542-1.576-1.246-3.039-2.063-4.443c0.177-0.405,0.343-0.81,0.531-1.214c0.398-0.846,0.796-1.69,1.219-2.523
			c0.776-1.541,1.746-2.972,2.76-4.347c0.965-1.199,1.993-2.28,3.182-3.267c1.135-0.823,2.3-1.583,3.549-2.213
			c0.527-0.191,1.059-0.348,1.616-0.467c0.299-0.02,0.593-0.025,0.894-0.015c0.076,0.02,0.15,0.041,0.224,0.064
			c0.066,0.037,0.13,0.077,0.195,0.115c0.164,0.153,0.316,0.31,0.466,0.476c0.229,0.348,0.44,0.706,0.631,1.079
			c0.186,0.584,0.329,1.161,0.439,1.757c0.045,0.673,0.042,1.327-0.011,1.994c-0.413,2.217-1.111,4.354-1.831,6.49
			c-0.66,1.952-1.38,4.016-1.343,6.106c0.136,5.796,7.262,6.393,11.628,6.032c2.298-0.189,4.595-0.651,6.883-1.017
			c0.991-0.104,1.975-0.155,2.971-0.092c0.383,0.078,0.76,0.167,1.138,0.279c0.1,0.053,0.2,0.109,0.298,0.169
			c0.056,0.182,0.105,0.365,0.15,0.548c0.003,0.313-0.003,0.619-0.021,0.926c-0.36,1.731-0.936,3.389-1.358,5.106
			c-0.186,0.734-0.274,1.505-0.31,2.264c-0.076,1.578,0.846,3.133,1.84,4.277c0.792,0.911,1.699,1.701,2.496,2.608
			c0.224,0.334,0.428,0.67,0.617,1.022c0.102,0.321,0.187,0.646,0.262,0.976C347.975,340.281,347.973,340.668,347.953,341.058z"/>
	</g>
</g>
<g>
	<g>
		<path d="M329.16,356.557c-0.032,0.005-0.064,0.011-0.097,0.015c0.051-0.006,0.102-0.014,0.152-0.021
			c0.184-0.025,0.367-0.051,0.552-0.074C329.568,356.503,329.364,356.529,329.16,356.557z"/>
	</g>
</g>
<g>
	<g>
		<path d="M407.859,320.403c-0.186-2.873-1.082-5.709-2.786-8.046c-0.957-1.318-2.089-2.438-3.333-3.483
			c-0.564-0.477-1.162-0.915-1.764-1.344c1.123-2.469,1.848-5.094,1.702-7.871c-0.15-3.073-1.865-5.932-4.378-7.673
			c-1.094-0.759-2.263-1.267-3.507-1.741c-0.911-0.346-1.865-0.474-2.81-0.636c-0.051-0.401-0.113-0.801-0.201-1.205
			c-0.348-1.667-0.92-3.308-1.903-4.727c-2.475-3.531-6.579-5.185-10.745-5.646c-0.601-0.064-1.19-0.092-1.774-0.092
			c-1.251,0-2.48,0.129-3.76,0.316c-2.065,0.311-4.092,1.28-5.895,2.288c-2.474,1.393-4.481,3.405-6.153,5.664
			c-2.433-2.383-5.028-4.604-7.747-6.665c-5.173-3.943-10.783-7.138-16.54-10.159c-2.562-1.344-5.223-2.526-7.872-3.681
			c-3.172-1.38-6.342-2.786-9.626-3.906c-2.164-0.733-4.352-1.467-6.541-2.176c-0.585-0.198-1.182-0.373-1.779-0.559
			c-0.26-0.087-0.522-0.175-0.784-0.236c-0.046-0.01-0.078-0.004-0.123-0.014c0.003-0.076,0.02-0.146,0.021-0.222
			c0.05-2.19-0.336-4.403-0.66-6.567c-0.448-2.885-1.43-5.647-2.463-8.37c-0.635-1.704-1.355-3.383-2.164-5
			c-0.833-1.64-1.89-3.109-3.022-4.551c-1.642-2.078-3.508-3.968-5.336-5.882c-1.891-1.99-3.83-3.905-5.932-5.672
			c-3.023-2.537-6.082-5.024-9.178-7.486c-3.271-2.6-6.902-4.814-10.558-6.852c-3.533-1.978-7.151-3.794-10.695-5.769
			c-2.407-1.349-4.768-2.794-7.131-4.227c0.205-0.444,0.446-0.87,0.631-1.329c0.709-1.79,1.083-3.643,1.43-5.535
			c0.113-0.645,0.16-1.262,0.107-1.866c2.181-0.791,4.315-1.698,6.406-2.723c8.594-4.242,15.234-12.076,19.363-20.607
			c2.015-4.155,3.657-8.506,5.235-12.836c1.388-3.793,2.161-7.788,3.358-11.646c1.458-0.13,2.91-0.299,4.327-0.715
			c2.413-0.722,4.701-1.717,6.74-3.209c1.43-1.058,2.773-2.238,3.731-3.756c0.957-1.516,1.592-3.182,2.003-4.911
			c1.604-6.604-0.336-13.967-5.272-18.679c-2.413-2.313-5.944-3.42-9.104-4.228c-0.962-0.252-1.933-0.391-2.909-0.49
			c0.026-0.185,0.051-0.371,0.074-0.555c0.161-1.293,0.348-2.599,0.46-3.905c0.236-2.861,0.324-5.709,0.348-8.568
			c0.015-2.232-0.023-4.466-0.053-6.699c2.625-1.936,4.479-4.878,5.311-8.027c0.621-2.375,0.97-4.763,0.796-7.224
			c-0.118-1.572-0.12-3.195-0.403-4.753c0.092-1.369,0.181-2.73,0.191-4.114c0-1.642-0.112-3.282-0.223-4.925
			c-0.076-1.144-0.15-2.289-0.237-3.445c-0.223-2.961-0.771-5.858-1.617-8.693c-0.746-2.538-1.778-4.975-2.823-7.388
			c-1.107-2.574-2.387-5.074-3.793-7.499c-2.935-5.049-6.728-9.389-11.181-13.157c-4.327-3.655-9.078-6.827-14.102-9.426
			c-5.336-2.763-11.057-4.888-16.95-6.045c-2.96-0.572-5.969-0.945-8.966-1.157C234.413,0.034,233.521,0,232.631,0
			c-2.836,0-5.657,0.347-8.419,1.048c-1.766,0.448-3.433,1.244-5.099,1.965c-1.306,0.572-2.562,1.257-3.805,1.978
			c-2.149,1.249-4.268,2.548-6.504,3.642c-1.303,0.466-2.622,0.826-3.991,1.085c-1.541,0.126-3.064,0.119-4.606-0.021
			c-3.577-0.645-7.071-1.797-10.63-2.53c-3.743-0.784-7.561-1.256-11.391-1.143c-3.979,0.112-7.959,0.833-11.703,2.2
			c-7.262,2.65-13.468,7.724-18.307,13.68c-4.975,6.119-8.743,12.97-11.379,20.395c-1.132,3.209-1.779,6.541-2.251,9.899
			c-0.386,2.735-0.646,5.484-0.734,8.258c-0.099,2.934-0.112,5.845-0.05,8.793c0.099,5.869,0.684,11.726,0.621,17.596
			c-0.021,1.478-0.141,2.965-0.314,4.438c-0.665,3.963-1.892,7.742-3.399,11.463c-1.738,3.881-3.812,7.569-5.974,11.235
			c-0.833,1.418-1.654,2.848-2.487,4.278c-1.84,3.195-3.407,6.48-4.8,9.887c-1.804,4.453-2.611,9.24-3.034,14.003
			c-0.386,4.34,0.224,8.806,1.083,13.058c0.715,3.521,1.472,7.043,2.005,10.593c0.37,3.12,0.485,6.237,0.187,9.365
			c-0.381,2.267-0.952,4.453-1.779,6.608c-1.038,2.309-2.274,4.525-3.462,6.75c-0.733,1.357-1.504,2.737-2.114,4.154
			c-1.058,2.439-2.151,4.851-3.059,7.35c-1.755,4.837-2.65,9.937-3.048,15.06c-0.198,2.587-0.025,5.173,0.373,7.724
			c0.2,1.23,0.448,2.424,0.771,3.631c0.41,1.58,1.118,3.097,1.79,4.565c1.083,2.362,2.972,4.352,5,5.907
			c2.04,1.567,4.44,2.551,6.915,3.197c4.148,1.094,8.318,1.052,12.486,0.599c0.202,1.198,0.415,2.382,0.708,3.566
			c0.315,1.251,0.812,2.492,1.345,3.684c-0.16,0.6-0.322,1.2-0.482,1.8c-0.361,1.392-0.759,2.811-1.008,4.228
			c-0.596,3.358-1.157,6.716-1.642,10.109c-0.982,6.654-1.206,13.357-1.293,20.072c-0.074,6.143,0.311,12.262,0.472,18.406
			c0.174,6.355,0.311,12.71,0.274,19.064c-0.062,12.959-0.336,25.905-0.534,38.864c-0.2,13.444-0.846,26.862-1.604,40.281
			c-0.317,5.592-0.896,11.162-1.504,16.729c-0.367,2.585-0.737,5.176-1.157,7.757c-0.621,3.855-1.281,7.724-1.704,11.602
			c-0.672,6.18-1.182,12.374-1.281,18.592c-0.05,3.133-0.149,6.279,0.1,9.401c0.398,4.987,1.058,9.912,2.562,14.712
			c1.331,4.228,3.407,8.108,6.554,11.255c3.407,3.394,7.972,5.409,12.324,7.225c6.678,2.773,13.854,4.489,21.005,5.435
			c6.516,0.857,13.058,1.43,19.637,1.679c6.442,0.249,12.871,0.348,19.314,0.547c6.28,0.2,12.536,0.486,18.767,1.244
			c6.604,0.796,13.194,1.679,19.798,2.438c6.18,0.709,12.361,1.394,18.567,1.829c6.53,0.472,13.083,0.559,19.636,0.685
			c12.623,0.236,25.283,0.012,37.856-1.206c2.972-0.285,5.932-0.722,8.904-1.082c3.533-0.446,7.076-0.807,10.608-1.318
			c7.363-1.069,14.439-3.781,20.532-8.071c2.861-2.001,5.422-4.315,7.784-6.877c1.082-1.158,2.077-2.388,3.097-3.619
			c2.275-2.761,4.34-5.734,6.194-8.792c3.482-5.746,6.119-12.026,7.984-18.469c1.803-6.192,3.42-12.435,5.161-18.641
			c1.679-5.968,3.11-11.951,4.042-18.082c1.939-12.872,3.768-25.792,3.843-38.827c0.074-13.182-0.784-26.526-3.805-39.397
			c-0.253-1.069-0.518-2.135-0.782-3.202c1.627-0.851,3.085-2.181,4.386-3.359c1.865-1.691,3.657-3.445,5.373-5.286
			c1.928-2.077,3.756-4.389,4.875-7.014C407.549,326.036,408.034,323.264,407.859,320.403z M269.748,220.324
			c-0.073-0.055-0.146-0.11-0.219-0.164c-0.301-0.236-0.6-0.465-0.892-0.693C269.007,219.751,269.378,220.036,269.748,220.324z
			 M288.237,114.742c1.771,0.307,3.504,0.769,5.185,1.417c0.25,0.124,0.493,0.258,0.73,0.401c0.347,0.309,0.671,0.626,0.985,0.975
			c0.33,0.498,0.62,1.001,0.893,1.535c0.294,0.853,0.515,1.706,0.674,2.596c0.073,0.935,0.081,1.855,0.014,2.795
			c-0.154,0.777-0.36,1.528-0.616,2.274c-0.229,0.448-0.476,0.874-0.754,1.292c-0.191,0.207-0.391,0.403-0.599,0.59
			c-1.254,0.894-2.567,1.652-3.972,2.299c-0.536,0.226-1.073,0.449-1.608,0.677c0.41-0.175,0.821-0.347,1.231-0.522
			c-1.605,0.646-3.208,1.307-4.812,1.953c-0.982,0.409-1.815,0.734-2.599,1.479c-0.994,0.956-1.468,2.101-1.915,3.383
			c-0.435,1.244-0.734,2.562-1.107,3.818c-0.572,1.953-1.145,3.893-1.73,5.833c-0.551,1.768-1.266,3.482-1.96,5.202
			c-1.148,2.652-2.257,5.342-3.574,7.906c-1.432,2.781-3.019,5.441-4.812,8.009c-0.729,0.879-1.512,1.717-2.291,2.556
			c-0.575-0.311-1.218-0.492-1.903-0.444c-0.932,0.061-1.834,0.063-2.755-0.005c-0.61-0.123-1.19-0.283-1.774-0.489
			c-1.018-0.503-1.957-1.101-2.885-1.762c-2.175-1.812-4.087-3.861-5.869-6.068c-1.14-1.551-2.278-3.091-3.256-4.761
			c-1.043-1.798-2.053-3.631-2.955-5.512c-0.035-0.098-0.068-0.196-0.099-0.296c-0.149-2.546-2.203-4.636-4.805-4.636
			c-2.997,0-5.646,3.096-4.639,6.093c1.38,4.092,3.632,7.922,6.056,11.479c1.939,2.835,4.253,5.508,6.728,7.859
			c2.114,2.015,4.539,3.818,7.2,5.026c0.528,0.242,1.069,0.418,1.608,0.595c-0.944,0.467-1.885,0.939-2.856,1.361
			c-2.453,0.843-4.918,1.577-7.466,2.076c-2.506,0.491-5.012,0.93-7.527,1.329c-3.132,0.32-6.227,0.363-9.357,0.043
			c-3.128-0.485-6.242-1.288-9.282-2.094c-3.574-0.955-7.22-1.825-10.654-3.216c-0.604-0.259-1.209-0.521-1.813-0.777
			c-0.051-3.296,0.034-6.59,0.396-9.875c0.536-3.579,1.376-7.033,2.702-10.398c1.577-3.488,3.602-6.664,5.835-9.773
			c0.782-1.081,1.554-2.164,2.313-3.271c1.753-2.538,2.947-5.36,4.104-8.195c1.07-2.611,1.419-5.336,1.755-8.122
			c0.361-2.972,0.472-5.994,0.547-8.991c0.126-5.064-0.119-10.128,0.415-15.162c0.579-3.654,1.521-7.239,2.862-10.681
			c0.701-1.518,1.514-2.939,2.474-4.298c0.598-0.706,1.228-1.361,1.912-1.983c0.601-0.403,1.219-0.759,1.872-1.081
			c1.141-0.403,2.294-0.719,3.487-0.946c3.08-0.309,6.13-0.16,9.192,0.16c2.403,0.417,4.776,0.9,7.148,1.481
			c2.339,0.559,4.626,1.281,6.951,1.89c5.272,1.393,10.857,2.201,16.329,1.853c1.311-0.082,2.58-0.279,3.833-0.537
			c-0.149,3.19-0.352,6.368-0.672,9.548c-0.332,2.28-0.715,4.548-1.256,6.797c-0.534,2.249-1.219,4.526,0.175,6.64
			C281.655,115.052,285.143,114.514,288.237,114.742z M243.943,192.207c-0.143,0.446-0.272,0.896-0.437,1.338
			c-0.636,1.231-1.296,2.437-2.069,3.574c-0.231,0.253-0.465,0.492-0.715,0.725c-0.834,0.567-1.707,1.075-2.574,1.591
			c-1.365,0.812-2.739,1.608-4.18,2.275c-1.174,0.417-2.347,0.71-3.569,0.915c-2.903,0.286-5.817,0.334-8.731,0.217
			c-2.561-0.11-5.159-0.259-7.713-0.549c-1.033-0.177-2.017-0.427-3.006-0.768c-0.921-0.429-1.794-0.929-2.662-1.463
			c-0.04-2.955-0.16-5.905-0.319-8.852c1.466,0.548,2.966,1.001,4.481,1.409c2.885,0.771,5.808,1.218,8.768,1.529
			c1.281,0.136,2.549,0.274,3.83,0.361c1.219,0.099,2.388,0,3.595-0.15c2.587-0.31,5.185-0.546,7.76-0.882
			C238.941,193.154,241.439,192.697,243.943,192.207z M132.988,231.141c-2.744-0.291-5.514-0.296-8.253-0.58
			c-1.602-0.259-3.174-0.626-4.701-1.173c-0.557-0.283-1.091-0.58-1.618-0.915c-0.398-0.355-0.768-0.729-1.122-1.128
			c-0.391-0.601-0.733-1.211-1.048-1.856c-0.481-1.333-0.831-2.685-1.095-4.079c-0.248-2.414-0.185-4.785,0.088-7.2
			c0.671-4.135,1.779-8.096,3.317-11.988c0.58-1.233,1.153-2.465,1.726-3.696c0.609-1.307,1.392-2.551,2.077-3.818
			c0.646-1.169,1.343-2.326,2.015-3.495c1.902-3.307,3.482-6.863,4.34-10.595c1.617-6.976,0.734-14.04-0.709-20.954
			c-0.758-3.637-1.679-7.241-2.273-10.904c-0.265-2.58-0.272-5.131-0.009-7.711c0.501-3.174,1.287-6.239,2.445-9.238
			c2.358-5.297,5.524-10.197,8.53-15.14c1.654-2.735,3.073-5.696,4.327-8.618c1.293-3.023,2.425-6.094,3.246-9.276
			c0.87-3.322,1.293-6.766,1.481-10.186c0.186-3.544-0.087-7.101-0.249-10.645c-0.099-2.3-0.174-4.615-0.26-6.928
			c-0.176-4.573,0.055-9.21,0.596-13.75c0.578-3.813,1.482-7.523,2.887-11.124c1.963-4.422,4.414-8.579,7.279-12.471
			c2.291-2.877,4.816-5.529,7.663-7.861c1.923-1.39,3.916-2.63,6.058-3.654c1.87-0.699,3.776-1.218,5.735-1.561
			c2.677-0.248,5.323-0.234,7.99,0.03c2.148,0.37,4.258,0.875,6.376,1.391c0.771,0.186,1.543,0.373,2.325,0.559
			c1.157,0.274,2.3,0.596,3.469,0.858c1.454,0.336,2.947,0.46,4.427,0.646c2.624,0.336,5.298,0.062,7.897-0.373
			c2.586-0.423,5.024-1.219,7.412-2.313c3.864-1.768,7.338-4.238,11.172-6.078c1.391-0.512,2.802-0.904,4.263-1.177
			c3.29-0.284,6.606-0.079,9.879,0.29c4.843,0.729,9.503,2.07,14.057,3.886c5.255,2.311,10.231,5.182,14.837,8.602
			c2.527,2.024,4.845,4.228,6.885,6.744c2.751,3.773,4.991,7.884,6.88,12.153c1.223,3.045,2.171,6.13,2.719,9.375
			c0.102,0.894,0.203,1.787,0.305,2.681c-0.03,0.234-0.061,0.471-0.091,0.706c-0.138,0.774-0.352,1.533-0.531,2.293
			c-0.233,1.024-0.376,2.067-0.501,3.105c-0.198,1.33-0.445,2.678-0.817,3.958c-0.37,1.323-0.862,2.615-1.374,3.891
			c-0.423,0.915-0.895,1.787-1.437,2.631c-0.071,0.073-0.143,0.144-0.215,0.214c-0.02,0.012-0.041,0.024-0.061,0.034
			c-1.092,0.351-2.203,0.594-3.337,0.806c-3.526,0.35-7.12,0.378-10.645,0.078c-3.66-0.614-7.28-1.488-10.939-2.144
			c-4.725-0.858-9.452-1.33-14.252-1.406c-2.463-0.036-4.938,0.285-7.375,0.698c-1.405,0.223-2.748,0.683-4.079,1.193
			c-1.766,0.684-3.395,1.48-4.913,2.611c-1.231,0.92-2.325,1.879-3.37,2.997c-1.132,1.194-2.089,2.551-3.034,3.893
			c-1.854,2.636-3.034,5.833-4.055,8.866c-0.895,2.625-1.493,5.336-1.891,8.085c-0.248,1.667-0.435,3.345-0.572,5.026
			c-0.125,1.667-0.062,3.344-0.051,5.011c0.048,5.948,0.218,11.953-0.443,17.873c-0.363,1.983-0.935,3.853-1.654,5.745
			c-0.989,2.159-2.162,4.191-3.474,6.192c-1.157,1.767-2.325,3.533-3.407,5.36c-1.89,3.146-3.345,6.616-4.539,10.073
			c-1.293,3.743-1.865,7.735-2.314,11.652c-0.547,4.626-0.348,9.265-0.198,13.904c0.074,2.624,0.26,5.247,0.41,7.872
			c0.61,10.434,0.262,20.868-0.522,31.289c-0.321,4.352-0.801,8.691-1.332,13.018c-0.213,1.426-0.427,2.858-0.683,4.28
			c-0.739,4.21-1.798,8.3-3.34,12.281c-0.559,1.18-1.199,2.296-1.948,3.376c-0.734,0.86-1.514,1.657-2.366,2.403
			c-1.027,0.732-2.093,1.369-3.225,1.914c-0.858,0.284-1.711,0.515-2.587,0.688c-0.631,0.032-1.25,0.029-1.877-0.01
			c-0.502-0.109-0.989-0.243-1.473-0.407c-0.531-0.284-1.037-0.586-1.531-0.924c-0.304-0.273-0.59-0.553-0.869-0.848
			c-0.288-0.436-0.546-0.882-0.789-1.349c-0.19-0.565-0.347-1.136-0.484-1.722c-0.086-1.395-0.017-2.79-0.169-4.185
			c-0.161-1.492-0.485-2.735-1.592-3.843c-0.932-0.92-2.487-1.741-3.843-1.592c-1.182,0.125-2.04,0.224-3.109,0.784
			c-0.324,0.175-0.646,0.348-0.97,0.536c-0.522,0.285-1.058,0.572-1.592,0.833c-1.717,0.875-3.446,1.75-5.21,2.534
			c-1.513,0.593-3.014,1.065-4.614,1.363c-1.002,0.069-1.978,0.068-2.98-0.009c-1.216-0.221-2.396-0.527-3.559-0.952
			c-0.753-0.376-1.469-0.786-2.164-1.257c-0.606-0.534-1.157-1.102-1.678-1.717c-0.185-0.284-0.32-0.589-0.487-0.879
			c-0.022-1.053-0.453-2.032-1.211-2.742c-0.269-0.853-0.551-1.698-0.744-2.585c-0.285-1.355-0.41-2.723-0.833-4.055
			c-0.522-1.679-1.89-3.395-3.694-3.781C134.817,231.329,133.897,231.243,132.988,231.141z M382.028,406.382
			c-0.159,1.189-0.32,2.381-0.48,3.57c-0.71,4.724-1.329,9.492-2.239,14.178c-0.945,4.849-2.04,9.613-3.395,14.364
			c-1.355,4.787-2.712,9.564-4.016,14.365c-1.23,4.569-2.589,9.053-4.28,13.48c-1.153,2.472-2.329,4.925-3.766,7.251
			c-1.448,2.36-3.017,4.59-4.675,6.788c-2.205,2.582-4.463,5.027-7.076,7.215c-2.386,1.715-4.887,3.116-7.534,4.389
			c-1.544,0.601-3.087,1.171-4.706,1.592c-1.939,0.517-3.887,0.863-5.859,1.168c-5.365,0.663-10.721,1.402-16.086,2.156
			c-12.185,1.514-24.463,2.453-36.73,2.756c-6.454,0.162-12.934,0.424-19.388,0.186c-6.305-0.223-12.598-0.646-18.878-1.23
			c-6.505-0.61-12.996-1.344-19.487-2.065c-6.43-0.708-12.872-0.996-19.338-1.12c-12.81-0.236-25.644-0.025-38.378-1.679
			c-0.382-0.053-0.768-0.104-1.153-0.152c-5.306-0.95-10.443-2.429-15.444-4.45c-2.238-1.014-4.354-2.221-6.355-3.634
			c-0.843-0.713-1.616-1.469-2.337-2.3c-0.433-0.666-0.817-1.342-1.169-2.051c-0.676-1.952-1.112-3.944-1.433-5.974
			c-0.758-6.871-0.084-13.782,0.382-20.674c0.41-6.081,0.684-12.175,1.318-18.231c0.66-6.392,1.543-12.796,1.779-19.227
			c0.26-6.802,0.336-13.606,0.198-20.421c-0.26-12.71-1.281-25.394-1.704-38.104c-0.223-6.827-0.386-13.667-0.472-20.508
			c-0.087-6.169-0.076-12.336-0.211-18.505c-0.136-5.236-0.286-10.459-0.497-15.694c-0.2-4.688-0.522-9.378-0.746-14.078
			c-0.223-4.887-0.285-9.788-0.149-14.687c0.119-4.647,0.522-9.239,1.058-13.86c0.281-1.838,0.563-3.678,0.93-5.503
			c3.074,2.301,6.755,3.69,10.681,4.203c2.636,0.347,5.272,0.076,7.872-0.497c2.046-0.453,4.046-1.303,5.98-2.18
			c0.332,1.073,0.792,2.102,1.233,3.137c0.672,1.578,1.815,2.96,2.972,4.216c0.472,0.508,1.032,0.945,1.578,1.368
			c1.082,0.833,2.114,1.567,3.321,2.177c1.879,0.945,3.83,1.392,5.907,1.628c1.914,0.211,3.719-0.025,5.622-0.311
			c1.939-0.285,3.743-1.132,5.509-1.928c1.914-0.87,3.582-2.213,5.198-3.519c1.419-1.144,2.574-2.611,3.657-4.067
			c0.97-1.306,1.753-2.661,2.425-4.141c1.592-3.507,2.675-7.151,3.494-10.894c0.846-3.805,1.306-7.747,1.667-11.628
			c0.534-5.596,0.932-11.18,1.244-16.788c0.109-2.042,0.153-4.092,0.19-6.139c1.115,0.434,2.254,0.81,3.436,1.068
			c2.263,0.497,4.626,0.658,6.926,0.92c3.917,0.448,7.809,0.658,11.752,0.361c2.275-0.162,4.515-0.547,6.665-1.318
			c1.642-0.585,3.172-1.394,4.688-2.215c1.654-0.895,3.345-1.84,4.838-2.96c0.341-0.25,0.648-0.531,0.962-0.805
			c1.219,0.744,2.446,1.478,3.634,2.257c2.003,1.307,3.967,2.673,5.969,3.954c4.241,2.72,8.409,5.492,12.398,8.572
			c4.084,3.285,7.889,6.913,11.703,10.492c3.405,3.189,6.434,6.774,9.327,10.431c0.971,1.394,1.788,2.816,2.515,4.334
			c1.288,3.514,2.363,7.047,3.024,10.721c0.166,1.83,0.241,3.629,0.088,5.466c-0.727,3.955-1.938,7.858-3.396,11.603
			c-1.215,2.554-2.593,5.049-4.263,7.339c-0.419,0.534-0.816,1.075-1.163,1.666c-1.468,2.525-0.161,6.169,2.797,6.852
			c2.45,0.572,4.415-0.398,6.194-2.003c0.957-0.882,1.829-1.84,2.687-2.811c2.077-2.325,3.743-4.925,5.261-7.648
			c0.697-1.281,1.244-2.673,1.803-4.004c0.062-0.145,0.118-0.291,0.18-0.438c0.321,0.112,0.639,0.224,0.98,0.325
			c1.033,0.299,2.04,0.684,3.048,1.045c3.295,1.209,6.589,2.388,9.824,3.72c4.411,1.914,8.781,3.857,13.021,6.129
			c2.401,1.293,4.75,2.636,7.089,4.03c1.883,1.121,3.65,2.397,5.407,3.694c2.463,2.079,4.859,4.205,7.178,6.442
			c2.379,2.285,4.6,4.683,6.77,7.174c0.595,0.792,1.194,1.583,1.786,2.376c0.759,1.033,1.392,2.176,2.077,3.246
			c1.369,2.139,2.562,4.415,3.743,6.652c2.259,4.305,4.332,8.67,6.285,13.108c2.096,5.35,4.062,10.8,5.405,16.403
			c0.722,3.059,1.419,6.119,2.052,9.191c0.524,2.553,0.879,5.132,1.226,7.708c-0.006-0.045-0.012-0.089-0.02-0.134
			c0.722,7.275,1.168,14.526,1.118,21.838c-0.062,7.25-0.534,14.45-1.306,21.664C381.991,406.647,382.01,406.516,382.028,406.382z
			 M399.905,322.551c-0.146,0.792-0.353,1.555-0.63,2.308c-0.396,0.797-0.856,1.539-1.36,2.269
			c-2.015,2.449-4.409,4.582-6.874,6.561c-0.56,0.428-1.128,0.848-1.71,1.24c-0.041,0.027-0.083,0.05-0.125,0.078
			c-0.582-1.845-1.194-3.681-1.886-5.493c-2.525-6.566-5.398-12.971-8.619-19.227c-1.493-2.884-3.071-5.696-4.8-8.444
			c-1.99-3.172-4.352-6.094-6.79-8.943c-0.263-0.305-0.557-0.584-0.827-0.884c0.243-0.392,0.455-0.805,0.723-1.185
			c0.734-0.87,1.523-1.65,2.389-2.386c0.861-0.606,1.75-1.132,2.704-1.59c0.888-0.337,1.776-0.598,2.708-0.777
			c0.967-0.081,1.919-0.073,2.889,0.009c0.878,0.161,1.722,0.379,2.563,0.667c0.43,0.215,0.836,0.451,1.235,0.717
			c0.25,0.226,0.484,0.453,0.712,0.699c0.126,0.2,0.241,0.399,0.35,0.606c0.252,0.738,0.425,1.494,0.606,2.25
			c0.05,0.249,0.074,0.511,0.124,0.759c0.15,0.87,0.361,1.654,0.908,2.387c0.957,1.281,2.201,2.128,3.768,2.501
			c0.536,0.125,1.12,0.161,1.667,0.248c0.732,0.126,1.432,0.319,2.115,0.572c0.422,0.216,0.813,0.45,1.199,0.714
			c0.095,0.089,0.187,0.183,0.278,0.281c0.139,0.217,0.265,0.435,0.384,0.663c0.036,0.117,0.069,0.232,0.099,0.348
			c0.012,0.361,0.007,0.709-0.014,1.07c-0.139,0.634-0.324,1.25-0.542,1.869c-0.502,1.07-1.07,2.105-1.578,3.177
			c-0.472,0.994-0.709,1.815-0.759,2.921c0.012,0.746,0.2,1.442,0.572,2.077c0.311,0.448,0.635,0.896,0.982,1.318
			c1.322,1.084,2.79,1.937,4.175,2.923c0.73,0.62,1.414,1.273,2.06,1.986c0.291,0.432,0.546,0.872,0.781,1.339
			c0.226,0.648,0.392,1.299,0.521,1.971C399.964,320.96,399.965,321.747,399.905,322.551z"/>
	</g>
</g>
<g>
</g>
<g>
</g>
<g>
</g>
<g>
</g>
<g>
</g>
<g>
</g>
<g>
</g>
<g>
</g>
<g>
</g>
<g>
</g>
<g>
</g>
<g>
</g>
<g>
</g>
<g>
</g>
<g>
</g>
</svg>
