<?xml version="1.0" encoding="iso-8859-1"?>
<!-- Generator: Adobe Illustrator 18.0.0, SVG Export Plug-In . SVG Version: 6.00 Build 0)  -->
<!DOCTYPE svg PUBLIC "-//W3C//DTD SVG 1.1//EN" "http://www.w3.org/Graphics/SVG/1.1/DTD/svg11.dtd">
<svg version="1.1" id="Capa_1" xmlns="http://www.w3.org/2000/svg" xmlns:xlink="http://www.w3.org/1999/xlink" x="0px" y="0px"
	 viewBox="0 0 89.644 89.644" style="enable-background:new 0 0 89.644 89.644;" xml:space="preserve">
<g>
	<path d="M89.314,33.756c0.11-0.007,0.22-0.019,0.33-0.026c-0.465-1.34-0.902-2.687-1.328-4.01c-0.042-0.104-0.074-0.209-0.115-0.31
		c-0.072-0.009-0.146-0.019-0.218-0.027c-0.154-0.086-0.318-0.16-0.486-0.215c0.129-0.686-0.029-1.387-0.551-1.921
		c-0.673-0.691-1.244-1.435-1.781-2.197c-0.801-4.07-3.686-7.242-4.79-11.202c-1.315-4.718-4.228-4.575-8.569-4.03
		c-0.451,0.057-0.869,0.273-1.133,0.598c-0.208,0.038-0.417,0.066-0.623,0.11c-7.154-0.577-14.48-1.035-21.41-1.017
		c-9.69,0.025-20.62-1.208-30.621-0.204c-0.397-0.109-0.813-0.168-1.177-0.196c-0.745-0.31-1.448-0.268-2.101-0.008
		c0.009,0.053,0.009,0.106,0.013,0.16c-0.275,0.049-0.55,0.097-0.823,0.133c-0.985,0.128-1.48,0.28-2.087,1.101
		c-0.146,0.197-0.186,0.415-0.187,0.637c-2.714,1.669-4.557,7.046-5.415,9.349c-1.714,4.596-5.209,7.816-5.614,13.063
		c-0.108,1.394-0.344,2.867-0.206,4.201c0.003,0.058,0.012,0.11,0.016,0.167c-0.175,0.262-0.318,0.546-0.408,0.862
		c-0.128,0.459,0.173,0.849,0.591,0.965c0.067,0.497,0.139,0.983,0.211,1.426c0.531,3.269,1.96,6.433,4.803,8.098
		c-1.654,5.011-0.837,11.189-1.1,16.327c-0.179,3.511-1.279,9.95,1.752,12.645c0.293,0.261,0.601,0.432,0.91,0.555
		c-0.016-0.091-0.003-0.181-0.008-0.271c1.94,1.728,5.024,2.006,8.242,1.496c10.644-1.686,22.461-0.28,33.228-0.139
		c10.712,0.142,21.639,1.371,32.333,0.657c4.101-0.275,5.566-2.791,5.452-5.754h0.147c0.153-3.638-0.109-7.381,0.029-10.982
		c0.189-4.973-0.393-9.319-2.148-13.975c-0.068-0.183-0.16-0.339-0.266-0.468c0.56-0.346,1.106-0.731,1.621-1.197
		C89.673,44.657,89.461,38.718,89.314,33.756z M77.391,45.358c-0.401-0.154-0.821-0.346-1.275-0.598
		c-0.3-0.167-0.638-0.375-0.992-0.604c0.893-0.969,1.981-1.674,3.144-2.478c0.61-0.423,1.22-0.844,1.83-1.266
		c0.048,0.411,0.245,0.792,0.66,1.036c0.335,0.196,0.767,0.228,1.153,0.121C80.487,42.912,79.079,44.38,77.391,45.358z
		 M79.878,33.776c-2.894,1.091-6.285,2.224-8.96,4.096c0.35-0.38,0.704-0.771,1.118-1.059c1.557-1.086,2.975-2.399,4.593-3.374
		c1.567,0.099,3.133,0.207,4.696,0.296c-0.596,0.533-1.148,1.075-1.646,1.483c-0.26,0.213-0.366,0.483-0.385,0.759
		c-0.963,0.686-1.898,1.413-2.852,2.127c-1.508,1.131-3.183,2.242-4.556,3.574c-0.3-0.269-0.604-0.535-0.89-0.823
		c-0.016-0.053-0.03-0.1-0.061-0.148c2.769-2.647,5.641-4.55,9.288-6.112C80.689,34.396,80.352,33.597,79.878,33.776z
		 M75.826,26.054c-0.271,0.209-0.549,0.435-0.854,0.664c-0.989,0.743-2.124,1.239-3.009,2.061c-0.269,0.012-0.537,0.013-0.807,0.028
		c0.259-0.264,0.519-0.525,0.772-0.8c1.053-1.148,2.422-2.771,3.931-3.861c-0.057,0.061-0.111,0.119-0.17,0.179
		C75.119,24.921,75.338,25.656,75.826,26.054z M73.457,33.284c-0.259,0.196-0.519,0.388-0.775,0.588
		c-1.468,1.143-2.839,2.308-4.255,3.457c-0.177-0.403-0.317-0.809-0.396-1.213c-0.021-0.43-0.027-0.857-0.038-1.286
		c0.061-0.531,0.233-1.053,0.544-1.56C70.178,33.193,71.819,33.222,73.457,33.284z M80.598,26.09
		c-0.537,0.24-1.059,0.462-1.571,0.765c-0.796,0.471-0.772,1.295-0.358,1.85c-1.428-0.041-2.859-0.039-4.293-0.011
		c0.238-0.164,0.474-0.328,0.697-0.5c1.172-0.912,1.972-2.277,3.561-2.444c0.521-0.055,0.547-0.837,0-0.833
		c-0.084,0-0.157,0.014-0.237,0.018c0.055-0.064,0.115-0.123,0.168-0.189c0.348-0.285,0.67-0.588,0.96-0.915
		C79.836,24.631,80.199,25.376,80.598,26.09z M77.786,20.202c0.413,0.633,0.797,1.271,1.085,1.92
		c-0.162,0.105-0.325,0.204-0.492,0.298c-0.064-0.173-0.209-0.312-0.43-0.298c-1.977,0.124-3.49,1.655-5.199,2.492
		c-0.984,0.48-1.885,1.788-2.665,2.547c-0.787,0.764-1.621,1.42-2.552,1.924c-0.141,0.015-0.28,0.023-0.421,0.038
		c-0.128-0.187-0.27-0.369-0.441-0.539c-0.001-0.005-0.003-0.011-0.004-0.017c1.172-0.919,2.129-2.048,3.071-3.253
		c1.117-1.426,2.429-2.716,3.871-3.836c-0.187,0.221-0.334,0.467-0.391,0.757c-0.111,0.574,0.272,1.349,0.967,1.269
		c1.216-0.139,2.172-1.359,2.908-2.257C77.37,20.911,77.606,20.561,77.786,20.202z M76.534,18.339
		c-0.16,0.511-0.564,1.007-0.966,1.419c-0.073-0.196-0.294-0.342-0.544-0.219c-1.771,0.871-3.797,2.018-5.185,3.419
		c-1.279,1.291-2.254,2.723-3.557,3.885c-0.08-0.497-0.144-0.997-0.188-1.5c0.166-0.093,0.306-0.215,0.474-0.306
		c0.157-0.084,0.222-0.255,0.211-0.418c1.71-1.938,3.472-3.572,5.467-5.002c0.079,0.184,0.261,0.324,0.468,0.313
		c1.103-0.058,1.506-1.086,2.051-1.939c0.378-0.218,0.763-0.436,1.162-0.647C76.121,17.676,76.315,18.006,76.534,18.339z
		 M71.907,15.337c0.67-0.08,1.332-0.158,1.976-0.233c0.389-0.047,0.744-0.146,1.086-0.265c0.061,0.308,0.131,0.613,0.218,0.912
		c-0.06,0.05-0.12,0.106-0.18,0.151c-0.651,0.488-1.194,0.943-1.705,1.6c-0.296,0.382-0.638,0.729-0.863,1.13
		c-2.352,1.209-4.658,2.602-6.468,4.455c-0.003-0.13-0.009-0.258-0.013-0.387c-0.02-0.83-0.129-1.654-0.273-2.475
		c0.057-0.004,0.112,0.008,0.169-0.021c0.596-0.319,0.642-0.967,0.988-1.519c0.536-0.851,1.499-1.417,2.342-1.916
		C70.072,16.242,71.011,15.826,71.907,15.337z M64.941,16.068c1.328-0.109,2.645-0.245,3.942-0.386
		c-0.397,0.205-0.79,0.414-1.165,0.643c-0.644,0.394-1.878,1.352-2.368,2.334c-0.185-0.729-0.392-1.455-0.63-2.166
		C64.823,16.366,64.894,16.223,64.941,16.068z M63.079,38.318c-1.6,0.781-3.264,1.43-4.905,2.125
		c1.522-1.097,3.242-1.961,4.898-2.899C63.079,37.805,63.078,38.061,63.079,38.318z M55.917,44.946
		c0.119-0.145,0.171-0.3,0.181-0.448c2.1-1.581,4.509-2.668,6.829-3.94c-0.064,0.409-0.162,0.804-0.283,1.188
		c-1.272,0.823-2.615,1.525-3.978,2.209c-0.946,0.475-2.474,1.053-3.153,2.027c-0.221-0.019-0.442-0.029-0.663-0.065
		C55.247,45.662,55.597,45.337,55.917,44.946z M52.047,37.491c-0.428,0.186-3.276,1.425-4.183,2.608
		c-0.113-0.36-0.219-0.723-0.305-1.098c0.343-0.18,0.667-0.35,0.936-0.477c1.406-0.668,2.694-1.587,3.879-2.59
		c0.89-0.753,2.083-1.983,3.356-2.619c1.948,0.125,3.896,0.199,5.847,0.209c-0.178-0.013-0.364,0.028-0.535,0.163
		c-0.961,0.757-2.527,1.118-3.646,1.58C55.614,36.008,53.819,36.724,52.047,37.491z M63.031,36.4
		c-1.222,0.436-2.47,0.837-3.623,1.398c-0.087,0.042-0.175,0.079-0.262,0.12c0.458-0.339,0.904-0.706,1.311-0.958
		c0.81-0.503,1.661-0.879,2.55-1.146C63.015,36.009,63.023,36.205,63.031,36.4z M62.972,34.408c-0.246,0.042-0.49,0.089-0.727,0.149
		c0.283-0.427-0.116-0.96-0.612-1.032c0.446,0.002,0.892,0.022,1.338,0.015c0,0.151-0.001,0.3-0.001,0.449
		C62.967,34.129,62.971,34.269,62.972,34.408z M61.943,28.331c-0.687,0.479-1.446,0.803-2.194,1.166
		c-0.712-0.003-1.424-0.014-2.137-0.034c0.274-0.12,0.533-0.26,0.824-0.363c1.187-0.421,2.281-1.062,3.368-1.714
		C61.841,27.703,61.888,28.019,61.943,28.331z M61.662,25.633c-1.544,0.596-3.071,1.236-4.699,1.588
		c-0.594,0.128-1.197,0.313-1.798,0.528c2.159-1.232,4.317-2.494,6.459-3.777C61.627,24.493,61.64,25.058,61.662,25.633z
		 M52.937,15.887c1.042,0.177,2.13,0.279,3.238,0.351c-2.926,1.372-6.115,2.481-9.056,3.907c-0.039-0.52-0.076-1.04-0.111-1.56
		c1.759-0.62,3.33-1.801,4.97-2.831C52.296,15.8,52.619,15.833,52.937,15.887z M47.022,15.493c0.231-0.021,0.443-0.09,0.636-0.199
		c0.359,0.024,0.716,0.064,1.074,0.093c-0.594,0.37-1.185,0.753-1.773,1.128c0.002-0.086-0.004-0.173-0.002-0.259
		C46.967,15.796,47.003,15.588,47.022,15.493z M47.151,22.721c0.944-0.659,1.887-1.336,2.927-1.788
		c3.129-1.36,6.217-2.729,9.159-4.468c0.063-0.038,0.1-0.087,0.146-0.132c0.669-0.004,1.342-0.019,2.019-0.045
		c-0.11,0.88-0.097,1.804-0.054,2.736c-1.451,0.432-2.779,1.151-4.14,1.993c-2.792,1.727-6.101,2.197-8.923,3.791
		c-0.52,0.295-0.3,1.152,0.307,1.133c2.422-0.074,4.699-1.421,6.91-2.333c2.158-0.888,3.818-2.442,5.913-3.289
		c0.065,0.883,0.131,1.751,0.169,2.599c-3.23,1.667-6.582,3.208-9.934,4.506c-1,0.387-2.845,0.587-3.649,1.483
		c-0.24-0.018-0.479-0.036-0.719-0.053C46.593,27.071,47.003,24.751,47.151,22.721z M47.267,32.735
		c2.313,0.129,4.62,0.316,6.926,0.48c-1.357,0.643-2.621,1.678-3.967,2.335c-1.005,0.489-2.037,0.86-3.07,1.219
		c-0.109-0.802-0.191-1.599-0.273-2.352C47.439,34,47.567,33.296,47.267,32.735z M25.395,21.578
		c0.092-2.034,1.049-4.029,1.483-6.026c2.735-0.049,5.484-0.174,8.23-0.278c-3.195,1.288-6.733,2.408-8.724,4.918
		c-0.313,0.395-0.04,0.826,0.375,0.829c-0.508,0.312-0.989,0.652-1.409,1.043C25.366,21.902,25.388,21.74,25.395,21.578z
		 M34.602,17.161c-1.175,0.654-2.356,1.298-3.587,1.839c-0.357,0.157-0.734,0.316-1.12,0.48c0.894-0.519,1.789-1.042,2.726-1.465
		C33.275,17.718,33.94,17.444,34.602,17.161z M24.996,24.709c0.605-0.38,1.155-0.889,1.746-1.29
		c0.587-0.327,1.188-0.625,1.794-0.915c0.796-0.314,1.62-0.565,2.433-0.806c0.293-0.086,0.38-0.341,0.325-0.564
		c0.247-0.131,0.498-0.25,0.74-0.393c3.017-1.78,6.629-3.746,10.038-4.539c0.591-0.137,0.822-0.602,0.806-1.077
		c0.284,0.002,0.568-0.007,0.851-0.003c-0.121,0.487-0.203,0.988-0.268,1.478c-2.565,0.524-4.801,1.811-7.079,3.227
		c-3.691,2.293-7.725,3.872-11.388,6.213c-0.208,0.133-0.318,0.303-0.357,0.481C24.761,25.918,24.884,25.313,24.996,24.709z
		 M36.024,40.943c-1.512,0.875-3.604,1.763-4.456,3.356c-2.506-0.469-4.171-1.977-5.388-3.983c3.997-2.998,8.189-5.411,12.99-6.981
		c0.348-0.114,0.416-0.458,0.303-0.714c0.671-0.012,1.343-0.017,2.014-0.026c-4.732,1.514-9.391,4.568-13.254,7.482
		c-0.834,0.629-0.5,2.148,0.525,2.083c-0.134,0.885,0.782,1.812,1.772,1.585c0.68-0.155,0.862-0.215,1.414-0.627
		c0.276-0.205,0.401-0.477,0.39-0.747c2.927-2.36,6.508-3.999,9.821-5.892c-0.219,0.736-0.422,1.346-0.504,1.616
		c-0.007,0.021-0.017,0.042-0.023,0.063C39.731,39.035,37.84,39.891,36.024,40.943z M39.898,41.482
		c-0.978,1.219-2.259,2.137-3.829,2.606c0.425-0.328,0.843-0.648,1.259-0.915C38.193,42.616,39.046,42.051,39.898,41.482z
		 M37.908,32.643c-4.446,1.314-8.841,3.303-12.557,6.099c-0.2-0.43-0.39-0.87-0.566-1.324c0.802-0.367,1.687-0.608,2.413-1.069
		c1.573-1.002,2.892-2.243,4.633-2.98c0.232-0.099,0.316-0.303,0.301-0.511C34.057,32.77,35.983,32.696,37.908,32.643z
		 M33.71,28.089c0.842-0.492,1.906-0.768,2.706-1.126c1.77-0.789,3.627-2.005,5.309-3.163c-0.086,0.421,0.25,0.908,0.724,0.903
		c0.162-0.001,0.311-0.038,0.467-0.055c-0.002,0.123-0.011,0.245-0.013,0.367c-1.201,0.638-2.42,1.238-3.615,1.887
		c-0.669,0.365-1.538,0.839-2.188,1.45c-0.994-0.005-1.987,0.001-2.982,0.001c-0.08-0.122-0.201-0.216-0.366-0.255
		C33.737,28.095,33.723,28.091,33.71,28.089z M37.31,36.748c1.706-1.208,3.479-2.318,5.527-3.04
		c-0.034,0.204-0.075,0.414-0.121,0.628C40.975,35.201,39.138,35.963,37.31,36.748z M42.441,28.542
		c-0.551-0.033-1.102-0.055-1.654-0.082c0.702-0.558,1.426-1.09,2.154-1.618c0.028,0.452,0.067,0.9,0.131,1.333
		C42.838,28.253,42.626,28.379,42.441,28.542z M43.015,22.605c-0.007,0.006-0.015,0.013-0.023,0.018
		c0.006-0.397-0.379-0.779-0.835-0.519c-2.589,1.476-5.451,2.891-8.294,3.77c-1.333,0.411-3.199,0.946-3.439,2.48
		c-0.658,0.002-1.317,0-1.975,0.001c0.088-0.115,0.132-0.252,0.111-0.391c1.696-1.253,3.71-2.31,5.431-3.283
		c3.155-1.783,6.026-3.952,9.27-5.553C43.204,20.188,43.098,21.378,43.015,22.605z M33.154,23.252
		c-1.239,0.737-2.762,1.229-4.18,1.846c1.867-1.209,3.785-2.305,5.686-3.528c2.848-1.831,5.493-3.912,8.765-4.713
		c-0.051,0.433-0.083,0.828-0.107,1.199C39.788,19.429,36.377,21.333,33.154,23.252z M24.634,26.538
		c-0.098,0.522,0.44,1.078,1.075,0.836c-0.203,0.261-0.395,0.533-0.544,0.848c-0.021,0.043-0.024,0.089-0.039,0.134
		c-0.283,0.001-0.567-0.001-0.851,0C24.387,27.747,24.51,27.143,24.634,26.538z M23.865,33.189c1.973-0.055,3.945-0.139,5.918-0.227
		c-1.288,0.69-2.503,1.544-3.902,1.91c-0.587,0.153-1.205,0.318-1.82,0.514c-0.075-0.225-0.149-0.449-0.221-0.674
		C23.877,34.201,23.889,33.692,23.865,33.189z M13.424,14.709c1.694,0.309,3.406,0.513,5.13,0.648
		c-1.915,1.055-3.845,2.08-5.703,3.211c-0.417,0.253-0.847,0.477-1.279,0.694C12.072,17.952,12.699,16.264,13.424,14.709z
		 M10.937,20.847c0.058-0.128,0.121-0.28,0.186-0.438c3.342-1.87,6.856-3.43,10.403-4.89c0.557,0.02,1.115,0.042,1.673,0.049
		c-0.019,0.038-0.034,0.077-0.053,0.116c-2.417,1.32-4.788,2.717-7.169,4.119c-1.979,1.166-4.149,2.348-6.159,3.68
		C10.184,22.59,10.551,21.703,10.937,20.847z M8.327,27.039c2.369-1.003,4.717-2.805,6.519-4.457
		c2.23-2.043,4.861-3.724,7.558-5.239c-1.031,2.506-1.743,5.223-2.203,7.927c-0.629,0.553-1.24,1.128-1.994,1.522
		c-0.802,0.418-2.503,0.673-2.872,1.624c-1.26,0.009-2.521,0.019-3.781,0.027c1.862-1.759,4.426-2.595,6.556-4.062
		c0.504-0.347,0.058-1.146-0.483-0.83c-2.57,1.503-6.499,2.236-8.258,4.874c-0.532-0.012-1.093-0.021-1.661-0.012
		C7.923,27.962,8.125,27.5,8.327,27.039z M19.936,27.147c-0.053,0.413-0.123,0.829-0.163,1.239c-0.504,0.003-1.01,0.006-1.514,0.01
		c0.198-0.097,0.395-0.199,0.558-0.342C19.182,27.731,19.563,27.448,19.936,27.147z M3.888,33.798
		c1.358-0.146,2.691-0.331,4.027-0.487c0.849,0.072,1.708,0.104,2.57,0.118c-1.554,0.128-3.019,0.854-4.556,1.466
		c-0.701,0.28-1.537,0.553-2.361,0.881C3.64,35.116,3.739,34.456,3.888,33.798z M3.58,39.153c-0.008-0.06-0.007-0.122-0.015-0.181
		c0.913-0.496,1.802-1.104,2.655-1.488c2.131-0.958,4.138-1.974,6.342-2.721c0.542-0.185,0.553-0.933,0-1.112
		c-0.347-0.112-0.685-0.173-1.018-0.212c0.929-0.002,1.861-0.021,2.783-0.052c0.874,0.149,1.75,0.308,2.631,0.404
		c-3.27,1.355-6.169,3.412-9.434,4.779c-1.217,0.51-2.54,0.962-3.661,1.674C3.768,39.904,3.671,39.542,3.58,39.153z M5.44,43.626
		c-0.037,0.033-0.051,0.07-0.083,0.105c-0.298-0.449-0.567-0.928-0.793-1.45c0.9-0.464,2.041-1.252,2.595-1.71
		c1.358-1.125,3.299-1.952,4.812-2.888c1.781-1.102,3.543-2.2,5.458-3.061c0.326-0.147,0.277-0.567,0.063-0.779
		c0.284,0.021,0.568,0.039,0.853,0.04c0.356,0.001,0.655-0.076,0.917-0.197c-0.194,0.897-0.379,1.833-0.583,2.772
		c-0.118,0.083-0.251,0.162-0.359,0.248c-1.518,1.213-3.145,1.611-4.815,2.505C10.824,40.65,7.715,41.539,5.44,43.626z M8.781,44.04
		c0.002-0.001,0-0.003,0.002-0.005c3.176-2.331,6.398-4.6,9.707-6.737c-0.219,0.939-0.468,1.868-0.771,2.756
		c-2.189,1.243-4.701,2.178-6.878,3.267c-0.845,0.423-1.69,0.804-2.465,1.25C8.51,44.415,8.644,44.241,8.781,44.04z M17.092,41.624
		c-1.16,2.495-2.998,4.399-6.321,4.714c-0.179,0.017-0.341,0.005-0.512,0.008c0.941-0.667,1.977-1.247,2.811-1.961
		C14.318,43.315,15.731,42.505,17.092,41.624z M71.178,74.186c-0.206,0.775-0.337,1.7-0.399,2.567
		c-0.102-0.002-0.203-0.004-0.269-0.004c-4.292,0.067-8.567,0.008-12.844-0.086c0.054-0.367,0.025-0.739-0.09-1.091
		c-0.129-0.746-0.39-1.477-0.659-2.184c-0.041-0.109-0.065-0.22-0.096-0.33c0.072-1.173,0.038-2.336,0.011-2.776
		c-0.093-1.534-0.328-3.199-0.933-4.659c-0.002-0.342,0.003-0.681-0.001-1.022c-0.061-5.074,7.042-9.242,11.23-8.288
		c2.817,0.646,3.558,8.583,3.58,10.904c0.023,2.352,0.204,4.632,0.489,6.903C71.19,74.139,71.184,74.164,71.178,74.186z
		 M79.739,54.451c0.649,0.295,1.263,0.082,1.83-0.317c-0.003,0.322,0.009,0.649,0.01,0.973c-0.085,0.057-0.179,0.1-0.257,0.169
		c-0.048,0.043-0.076,0.072-0.092,0.092c-0.034,0.011-0.075,0.022-0.136,0.045c-0.298,0.109-0.589,0.247-0.874,0.392
		c-0.642,0.329-1.203,0.813-1.591,1.418c-0.709,1.106,0.693,2.489,1.795,1.796c0.478-0.3,0.828-0.706,1.193-1.111
		c0.019,0.691,0.043,1.383,0.065,2.075c-1.733,0.931-4.024,2.262-3.015,3.966c0.362,0.61,1.101,0.621,1.608,0.207
		c0.316-0.257,0.438-0.642,0.62-0.99c0.236-0.454,0.496-0.896,0.78-1.319c0.016-0.024,0.037-0.045,0.053-0.069
		c0.033,1.347,0.031,2.688-0.004,4.023c-0.474,0.358-1.019,0.664-1.461,0.976c-0.98,0.694-1.968,1.419-2.195,2.662
		c-0.163,0.895,0.794,1.972,1.71,1.315c0.632-0.452,1.216-0.953,1.822-1.434c-0.046,1.309-0.062,2.619-0.081,3.93
		c-0.244,0.09-0.461,0.265-0.566,0.547c0.125-0.334-0.022-0.127-0.22-0.016c-0.255,0.142-0.517,0.271-0.775,0.41
		c-0.329,0.175-0.665,0.468-0.892,0.808c-0.778,0.458-1.444,1.021-1.855,1.789c-0.549,0.04-1.105,0.069-1.657,0.078
		c-0.066-0.696-0.187-1.396-0.3-2.086c0.129,0,0.259,0.001,0.388,0.001c-0.142-1.331-0.313-2.67-0.299-4.122
		c0.032-3.225-0.151-5.994-0.688-9.137c-0.801-4.7-2.55-8.804-7.626-9.681c-5.45-0.944-8.287,1.769-11.33,5.874
		c-1.725,2.327-2.85,3.986-2.959,6.884c-0.106,2.798,0.155,5.7,0.348,8.564c-0.013,0.074-0.025,0.151-0.037,0.225
		c-0.157,1,0.131,1.927,0.097,2.923c-0.002,0.085,0.012,0.163,0.018,0.246c-1.502-0.04-3.004-0.08-4.508-0.118
		c-6.169-0.156-12.257-0.55-18.405-0.771c-3.74-0.135-7.52,0.006-11.262,0.057c-1.744,0.025-3.885,0.694-5.891,0.893
		c-0.454-0.37-0.92-0.727-1.33-1.162c-0.375-0.398-0.761-0.574-1.184-0.639c-0.102-0.17-0.227-0.339-0.378-0.503
		c0.455,0.492-0.14-2.719-0.187-3.733c-0.113-2.391-0.038-4.795,0.007-7.189c0.076-4.015,0.458-8.788-0.536-12.912
		c4.093,0.495,7.902-1.277,10.612-4.638c1.106-1.375,1.889-2.952,2.441-4.612c2.169,5.446,7.781,8.948,14.901,7.026
		c3.124-0.843,5.26-3.107,6.691-5.805c0.484,1.551,1.255,3.045,2.454,4.479c2.793,3.346,7.977,4.732,12.146,4.212
		c3.769-0.472,8.225-3.469,9.217-7.327c1.923,2.344,4.294,4.342,6.227,5.504c2.451,1.473,5.102,1.826,7.559,1.141
		c-0.046,0.48-0.07,0.964-0.097,1.449c-0.105,0.084-0.21,0.17-0.316,0.266c-0.565,0.499-1.443,0.874-1.771,1.576
		C79.446,53.981,79.468,54.327,79.739,54.451z M83.736,36.776c-0.173,0.075-0.339,0.162-0.51,0.239
		c-0.221-0.22-0.549-0.311-0.902-0.084c-2.069,1.329-4.139,2.657-6.209,3.987c-0.338,0.217-0.658,0.438-0.969,0.666
		c1.7-1.414,3.392-2.854,5.188-4.128c0.301,0.087,0.629,0.053,0.937-0.175c0.564-0.421,1.046-0.894,1.516-1.385
		c0.132-0.076,0.259-0.161,0.393-0.232c0.296-0.16,0.416-0.401,0.433-0.65c0.049-0.057,0.099-0.111,0.153-0.172
		C83.766,35.461,83.757,36.115,83.736,36.776z"/>
	<path d="M40.529,66.715c1.239-3.152,0.402-7.355,0.325-10.637c-0.037-1.583-1.441-2.524-2.928-2.229
		c-4.863,0.961-10.037,0.483-14.977,0.55c-1.82,0.024-4.202-0.053-5.872,0.928c-0.038-0.02-0.075-0.041-0.117-0.054
		c-0.034-0.011-0.068-0.018-0.103-0.025c-0.065-0.013-0.128-0.022-0.194-0.021c-0.067-0.001-0.13,0.008-0.195,0.021
		c-0.035,0.007-0.068,0.014-0.102,0.025c-0.065,0.02-0.125,0.048-0.183,0.084c-0.061,0.033-0.111,0.075-0.161,0.118
		c-0.016,0.016-0.031,0.03-0.046,0.047c-0.119,0.124-0.197,0.278-0.208,0.468c-0.671,2.284-0.749,4.872-0.777,7.241
		c-0.031,2.508-0.612,5.468,0.786,7.671c0.415,0.652,1.317,0.653,1.747,0.023c6.839,0.641,14.165,1.549,21.018,0.669
		c1.772-0.229,2.32-1.831,1.702-2.968c0.207-0.6,0.317-1.229,0.296-1.765C40.536,66.813,40.532,66.762,40.529,66.715z
		 M18.396,68.076c0.099-1.265-0.034-2.585-0.049-3.853c-0.027-2.255-0.055-4.67-0.504-6.929c1.827-0.842,5.486,0.317,7.234,0.513
		c3.619,0.406,7.337,0.863,11.001,0.749c-0.164,2.078-0.333,4.298-0.004,6.297c-0.001,0.734,0.065,1.672,0.216,2.439
		C30.392,66.852,24.238,67.513,18.396,68.076z"/>
	<path d="M66.31,65.413c-1.332,0-2.445,1.113-2.445,2.445c0,1.333,1.113,2.446,2.445,2.446c1.333,0,2.446-1.113,2.446-2.446
		C68.755,66.526,67.643,65.413,66.31,65.413z"/>
</g>
<g>
</g>
<g>
</g>
<g>
</g>
<g>
</g>
<g>
</g>
<g>
</g>
<g>
</g>
<g>
</g>
<g>
</g>
<g>
</g>
<g>
</g>
<g>
</g>
<g>
</g>
<g>
</g>
<g>
</g>
</svg>
