<?xml version="1.0" encoding="iso-8859-1"?>
<!-- Generator: Adobe Illustrator 16.0.0, SVG Export Plug-In . SVG Version: 6.00 Build 0)  -->
<!DOCTYPE svg PUBLIC "-//W3C//DTD SVG 1.1//EN" "http://www.w3.org/Graphics/SVG/1.1/DTD/svg11.dtd">
<svg version="1.1" id="Capa_1" xmlns="http://www.w3.org/2000/svg" xmlns:xlink="http://www.w3.org/1999/xlink" x="0px" y="0px"
	 width="545.237px" height="545.238px" viewBox="0 0 545.237 545.238" style="enable-background:new 0 0 545.237 545.238;"
	 xml:space="preserve">
<g>
	<g>
		<path d="M544.533,167.701c-1.156-8.516-4.953-18.501-12.141-20.99c-1.064-0.369-2.15-0.557-3.227-0.557
			c-5.398,0-9.639,4.686-12.357,8.209c-5.848,7.575-9.428,16.591-12.889,25.309c-2.023,5.1-4.117,10.372-6.619,15.205
			c-4.562,8.814-9.689,12.919-16.135,12.92l-0.123-0.001c-0.826,0-13.818,1.118-15.072,1.345c-1.676,0.303-3.369,0.596-5.084,0.879
			c-5.023-7.967-14.445-12.968-22.844-16.475c-9.67-4.038-20.383-7.099-30.861-4.829c-7.482,1.62-14.084,6.981-15.002,14.817
			c-0.602,5.141,2.383,9.16,6.381,12.179c-4.252,0.108-8.602,0.171-12.959,0.171c-21.789,0-45.273-1.361-71.795-4.16
			c-14.67-1.548-29.338-3.482-43.53-5.553c-0.104-0.43-0.294-0.871-0.595-1.316c-9.626-14.244-21.573-27.177-33.616-39.397
			c-12.768-12.955-28.225-27.435-45.728-33.521c-15.012-5.22-29.438,3.275-32.831,18.509c-3.539,15.891,4.787,31.274,15.303,43.036
			c-0.941-0.014-1.883-0.026-2.826-0.026c-4.499,0-8.938,0.157-13.194,0.468c-16.325,1.191-31.528,4.977-45.188,11.252
			c-13.113,6.025-26.157,15.856-37.721,28.43c-7.338,7.977-13.797,16.983-20.043,25.693c-11.1,15.477-22.576,31.48-39.189,41.822
			c-0.534,0.333-0.971,0.76-1.303,1.271c-6.568,4.938-10.652,10.449-12.477,16.844c-1.791,6.27-0.809,13.344,2.916,21.025
			c8.467,17.457,27.046,28.293,37.367,33.196c16.538,7.857,35.726,8.865,50.595,8.865c3.889,0,8.011-0.076,13.362-0.246
			c19.062-0.607,72.701-9.164,78.312-10.23c34.67-6.6,70.816-13.725,106.896-22.608c5.109,4.818,10.416,9.408,15.891,13.781
			c0.131,0.205,0.32,0.352,0.539,0.426c21.51,17.094,45.719,30.727,71.947,40.446c17.027,6.312,36.256,12.505,54.697,10.604
			c6.076-0.627,12.594-2.475,15.961-8c3.92-6.434-0.012-14.607-3.525-20.207c-6.777-10.799-16.506-20.061-25.852-28.598
			c-10.334-9.439-21.395-18.057-32.365-26.729c-4.389-3.467-8.633-7.03-12.801-10.676c17.859-4.731,36.014-8.393,53.131-15.49
			c0.074,0.084,22.781-8.867,33.955-13.68c10.893,8.61,22.801,15.762,36.342,20.182c11.287,3.687,34.197,7.427,35.967-9.865
			c0.83-8.106-3.221-16.252-7.053-23.156c-3.652-6.576-7.857-12.88-12.436-18.87c2.363-2.014,4.252-3.67,5.27-4.616
			c7.305-6.807,12.887-15.091,16.596-24.623c3.342-8.593,4.803-18.002,6.215-27.104c0.182-1.162,0.359-2.318,0.543-3.467
			C544.727,190.862,546.117,179.346,544.533,167.701z M529.066,154.813c0.826,0,1.617,0.445,2.422,1.359
			c0.91,1.035,1.666,2.197,2.309,3.442c-2.643-0.849-5.129-2.124-7.525-3.566C527.273,155.238,528.207,154.813,529.066,154.813z
			 M524.781,157.487c3.178,1.938,6.469,3.555,10.049,4.458c0.332,0.882,0.623,1.79,0.869,2.72c-4.275-1.441-8.43-3.117-12.15-5.683
			C523.971,158.423,524.379,157.935,524.781,157.487z M522.406,160.602c4.232,2.9,8.938,4.735,13.811,6.344
			c0.135,0.703,0.256,1.409,0.352,2.121c-5.328-1.672-10.326-4.086-15.002-7.17C521.852,161.438,522.129,161.018,522.406,160.602z
			 M520.541,163.614c5.049,3.333,10.48,5.896,16.271,7.618c0.072,0.815,0.127,1.629,0.162,2.437
			c-5.939-2.52-12.25-4.542-17.02-9.015C520.152,164.295,520.348,163.951,520.541,163.614z M451.871,211.405
			c-1.131,0.161-2.287,0.315-3.445,0.471c-0.08-1.289-0.189-2.574-0.334-3.859C449.459,209.05,450.738,210.172,451.871,211.405z
			 M445.928,206.5c0.004,0.023-0.006,0.044-0.004,0.068c0.254,1.85,0.42,3.707,0.525,5.568c-1.295,0.167-2.596,0.333-3.93,0.494
			c-0.023,0.004-0.051,0.006-0.076,0.009c-0.715-2.888-0.986-5.85-1.164-8.831C442.857,204.623,444.426,205.518,445.928,206.5z
			 M436.293,201.44c0.959,0.42,1.941,0.873,2.932,1.346c0.182,3.394,0.422,6.786,1.209,10.078c-1.18,0.133-2.355,0.271-3.549,0.394
			c-0.648-4.003-0.648-8.118-1.332-12.129C435.795,201.233,436.053,201.334,436.293,201.44z M433.338,200.197
			c0.953,4.36,0.893,8.866,1.562,13.254c-1.016,0.1-2.025,0.202-3.045,0.297c-0.998-4.946-1.471-9.999-2.281-14.989
			C430.855,199.211,432.107,199.698,433.338,200.197z M427.443,198.044c0.93,5.275,1.385,10.637,2.414,15.882
			c-1.076,0.094-2.133,0.201-3.219,0.289c-1.416-5.701-2.207-11.521-3.238-17.305C424.758,197.233,426.107,197.619,427.443,198.044z
			 M421.295,196.461c1.1,5.978,1.885,12.006,3.322,17.908c-0.854,0.064-1.699,0.134-2.561,0.195
			c-0.516-6.199-1.73-12.299-2.771-18.432C419.955,196.223,420.625,196.336,421.295,196.461z M413.9,195.858
			c1.102-0.047,2.215-0.018,3.332,0.064c1.045,6.25,2.312,12.459,2.834,18.774c-1.197,0.08-2.385,0.166-3.596,0.238
			c-1.168-6.315-1.867-12.694-2.6-19.075C413.881,195.86,413.891,195.859,413.9,195.858z M411.893,196.032
			c0.729,6.365,1.426,12.727,2.572,19.029c-0.039,0.002-0.074,0.005-0.111,0.007c-0.898-0.479-1.787-0.975-2.639-1.536
			c-1.531-5.521-2.439-11.18-3.492-16.821C409.482,196.381,410.734,196.17,411.893,196.032z M406.309,197.315
			c0.967,5.186,1.801,10.387,3.121,15.479c-1.34-0.546-2.811-1.213-4.189-2.039c-1.205-3.812-1.562-7.923-1.998-11.895
			C404.148,198.223,405.203,197.724,406.309,197.315z M400.482,202.441c0.205-0.688,0.535-1.298,0.951-1.854
			c0.303,2.781,0.633,5.592,1.256,8.312C400.82,207.191,399.703,205.059,400.482,202.441z M259.761,204.602
			c-1.97-0.301-3.922-0.603-5.866-0.905c0-2.287-0.006-4.577-0.098-6.86C255.853,199.379,257.848,201.965,259.761,204.602z
			 M251.667,194.26c0.231,3.032,0.229,6.087,0.228,9.125c-1.126-0.176-2.234-0.354-3.351-0.529
			c-0.039-4.176-0.157-8.352-0.241-12.525C249.433,191.632,250.562,192.936,251.667,194.26z M242.14,183.472
			c1.382,1.506,2.771,3.007,4.129,4.538c0.071,4.844,0.222,9.686,0.271,14.528c-1.403-0.224-2.794-0.446-4.181-0.669
			C241.595,195.758,242.212,189.602,242.14,183.472z M240.125,181.261c0.362,6.743-0.5,13.538,0.204,20.282
			c-0.889-0.144-1.755-0.285-2.637-0.428c0.207-4.943,0.252-9.897,0.116-14.841c-0.055-1.996,0.098-5.096-0.343-7.818
			C238.353,179.393,239.245,180.315,240.125,181.261z M230.253,180.899c0.069-3.064,0.598-6.169,0.673-9.251
			c0.997,1.013,1.99,2.028,2.974,3.048c-0.014,0.242,0.065,0.494,0.287,0.719c2.633,2.65,1.648,10.926,1.691,14.33
			c0.047,3.682-0.012,7.369-0.162,11.05c-1.553-0.253-3.097-0.505-4.627-0.755C230.688,193.667,230.111,187.283,230.253,180.899z
			 M228.923,169.63c0.325,4.087-0.604,8.37-0.694,12.409c-0.133,5.881,0.443,11.79,0.836,17.668
			c-0.808-0.133-1.623-0.267-2.422-0.398c-0.565-0.094-1.14-0.186-1.708-0.278c0.151-11.218-0.319-22.429-0.367-33.646
			C226.035,166.786,227.49,168.2,228.923,169.63z M219.761,160.936c1.089,0.98,2.169,1.971,3.238,2.974
			c-0.251,0.155-0.438,0.411-0.437,0.798c0.03,11.334,0.518,22.663,0.377,33.998c-1.011-0.164-2.031-0.326-3.049-0.487
			c-0.031-8.505-0.307-17.007-0.328-25.511C219.553,169.09,220.334,164.774,219.761,160.936z M217.015,158.514
			c2.084,4.481,0.539,11.32,0.551,16.05c0.021,7.78,0.284,15.557,0.32,23.337c-0.727-0.114-1.459-0.225-2.188-0.336
			c-1.11-10.081-0.879-20.245-1.193-30.371c-0.106-3.434-0.294-6.864-0.534-10.289c-0.02-0.289-0.028-0.63-0.035-0.988
			C214.971,156.772,216,157.634,217.015,158.514z M209.244,152.21c0.934,0.71,1.867,1.419,2.784,2.151
			c0.141,1.65,0.015,3.562,0.084,4.637c0.193,2.99,0.324,5.986,0.417,8.981c0.304,9.764,0.094,19.553,1.135,29.273
			c-1.053-0.157-2.121-0.302-3.18-0.454c-0.453-9.418-1.666-18.783-1.906-28.213C208.445,163.332,209.751,157.58,209.244,152.21z
			 M202.741,163.441c0.304-4.66,1.28-10.647,0.21-15.719c1.36,0.913,2.707,1.847,4.033,2.812c1.141,5.76-0.457,12.336-0.406,18.053
			c0.084,9.33,1.407,18.609,1.889,27.924c-1.199-0.168-2.408-0.322-3.614-0.481C204.494,185.159,202.034,174.304,202.741,163.441z
			 M200.381,146.045c2.258,5.762,0.547,13.831,0.232,19.514c-0.555,10.018,1.836,20.149,2.23,30.202
			c-1.018-0.129-2.039-0.249-3.062-0.37c-1.276-10.973-2.337-22.203-2.21-33.246c0.064-5.563,1.331-12.198-0.059-17.854
			C198.477,144.863,199.434,145.446,200.381,146.045z M194.96,142.828c2.479,5.893,0.672,14.061,0.602,20.211
			c-0.123,10.654,0.959,21.523,2.191,32.113c-0.768-0.086-1.543-0.155-2.314-0.236c-0.789-11.975-2.484-23.874-2.877-35.877
			c-0.188-5.694,0.529-12.028-0.638-17.783C192.96,141.754,193.974,142.285,194.96,142.828z M187.343,139.41
			c0.792,0.254,1.578,0.532,2.353,0.85c2.005,6.969,0.701,15.603,1.014,22.57c0.478,10.656,1.994,21.238,2.717,31.879
			c-1.237-0.123-2.479-0.238-3.72-0.348c-1.522-10.365-2.222-20.795-2.431-31.268C187.119,155.227,188.015,147.26,187.343,139.41z
			 M185.308,138.846c0.916,8.62-0.166,17.529,0.006,26.162c0.193,9.77,0.966,19.516,2.361,29.186
			c-0.738-0.061-1.479-0.115-2.217-0.17c-2.035-18.455-2.494-37.021-2.552-55.578C183.712,138.533,184.514,138.664,185.308,138.846z
			 M180.906,138.346c0.057,18.209,0.502,36.428,2.437,54.543c-0.853-0.824-1.696-1.674-2.53-2.541
			c-1.435-11.508-2.26-23.355-1.737-34.939c0.192-4.253,1.366-11.94-0.577-16.856C179.303,138.422,180.104,138.352,180.906,138.346z
			 M175.557,139.342c0.295-0.109,0.593-0.214,0.897-0.307c0.864,2.244,0.731,5.243,0.798,7.307c0.119,3.667-0.1,7.347-0.264,11.01
			c-0.451,10.06,0.332,20.451,1.521,30.506c-1.236-1.391-2.431-2.832-3.569-4.316C175.256,168.811,175.533,154.076,175.557,139.342z
			 M165.585,150.937c0.729-3.273,2.311-6.059,4.531-8.192c-1.121,9.229-2.336,18.459-2.746,27.74
			C164.974,164.35,164.062,157.772,165.585,150.937z M169.242,174.614c0.176-11.271,1.75-22.454,3.088-33.641
			c0.396-0.26,0.799-0.512,1.223-0.737c-0.031,13.548-0.271,27.095-0.557,40.64C171.603,178.86,170.343,176.767,169.242,174.614z
			 M81.812,247.7c2.101-3.104,4.27-6.162,6.459-9.203c0.917-1.272,1.849-2.533,2.793-3.785c0.29-0.385,0.597-0.755,0.904-1.124
			c0.371-0.155,0.678-0.363,0.938-0.604c6.824,2.581,12.627,6.961,16.585,12.948c-8.779,10.33-16.043,21.811-24.062,32.727
			c-5.191-0.783-10.381-1.572-15.57-2.365C73.613,266.712,75.998,256.294,81.812,247.7z M114.204,258.797
			c-4.442,8.358-11.915,14.474-18.171,21.449c-1.315-0.193-2.63-0.395-3.945-0.591c6.762-9.377,13.047-19.115,20.404-28.032
			c0.241,0.599,0.468,1.21,0.678,1.833c0.533,1.586,0.955,3.234,1.322,4.906C114.391,258.498,114.291,258.634,114.204,258.797z
			 M116.1,267.035c0.056,0.306,0.109,0.612,0.166,0.915c0.893,4.745,2.246,10.299,1.469,15.153c-0.013,0.08-0.005,0.153-0.015,0.231
			c-4.833-0.653-9.662-1.34-14.49-2.036C107.664,276.66,112.348,272.2,116.1,267.035z M61.353,263.053l0.604-0.84
			c3.152-4.387,6.441-8.787,9.912-13.108c-4.097,8.186-6.548,17.13-9.958,25.667c-0.042,0.104-0.054,0.199-0.087,0.301
			c-2.768-0.421-5.536-0.846-8.305-1.262C56.183,270.241,58.779,266.634,61.353,263.053z M15.645,311.204
			c-2.243,3.959-4.616,7.849-7.098,11.656C9.179,318.764,11.553,314.862,15.645,311.204z M8.41,326.688
			c4.04-6.01,7.819-12.229,11.246-18.615c0.349-0.24,0.695-0.479,1.061-0.719c0.422-0.275,0.781-0.605,1.072-0.984
			c0.637-0.434,1.262-0.877,1.883-1.323c-1.059,1.762-2.158,3.506-3.159,5.258c-3.878,6.785-7.981,13.389-11.479,20.362
			C8.708,329.331,8.493,328.005,8.41,326.688z M9.887,333.444c3.136-6.557,6.806-12.811,10.544-19.045
			c2.137-3.562,4.135-7.207,6.219-10.801c0.146-0.252,0.358-0.724,0.604-1.274c1.697-1.354,3.336-2.769,4.938-4.222
			c-6.879,12.869-13.953,25.633-20.948,38.44C10.729,335.507,10.264,334.472,9.887,333.444z M14.594,342.038
			c-0.1-0.139-0.209-0.272-0.307-0.412c-0.711-0.997-1.332-1.993-1.912-2.985c8.182-14.996,16.508-29.914,24.48-45.023
			c0.332-0.336,0.67-0.665,0.998-1.005c0.826,0.726,1.625,1.476,2.436,2.213c-1.004,1.963-2.717,4.107-3.515,5.504
			c-2.013,3.522-3.89,7.112-5.872,10.653C25.177,321.202,19.193,331.257,14.594,342.038z M15.976,343.877
			c5.057-12.219,12.006-23.489,18.405-35.032c1.742-3.144,3.436-6.308,5.218-9.431c0.553-0.968,1.381-2.118,2.09-3.318
			c0.811,0.754,1.596,1.529,2.393,2.298c-4.486,5.895-7.002,13.289-10.694,19.658c-5.342,9.215-10.729,18.401-15.841,27.748
			C17.008,345.165,16.484,344.524,15.976,343.877z M18.953,347.391c4.9-8.992,10.06-17.838,15.209-26.689
			c3.898-6.701,6.615-14.723,11.356-20.928c1.148,1.132,2.273,2.284,3.39,3.443c-10.865,14.602-19.554,30.825-26.676,47.553
			C21.092,349.668,19.996,348.542,18.953,347.391z M23.777,352.227c7.053-16.711,15.734-32.928,26.531-47.529
			c0.553,0.588,1.089,1.189,1.634,1.783c-0.054,0.043-0.111,0.063-0.162,0.123c-5.809,6.568-9.184,14.861-13.354,22.473
			c-4.543,8.291-9.043,16.631-11.682,25.722C25.729,353.959,24.738,353.104,23.777,352.227z M28.438,356.134
			c2.561-9.236,7.117-17.664,11.713-26.048c4.081-7.442,7.361-15.645,13.042-22.067c0.029-0.033,0.036-0.07,0.06-0.104
			c0.812,0.902,1.604,1.82,2.397,2.738c-4.323,7.344-8.673,14.674-13.002,22.016c-4.696,7.964-9.688,15.947-12.381,24.841
			C29.653,357.056,29.039,356.602,28.438,356.134z M31.984,358.735c2.596-9,7.646-17.051,12.393-25.059
			c4.227-7.132,8.444-14.271,12.648-21.42c0.732,0.866,1.449,1.747,2.166,2.627c-1.002,1.871-2.654,3.93-3.309,5.008
			c-1.852,3.053-3.777,6.061-5.635,9.108c-6.115,10.033-9.729,21.242-16.342,31.033C33.26,359.608,32.618,359.177,31.984,358.735z
			 M35.59,361.108c6.777-9.998,10.51-21.459,16.763-31.719c2.097-3.439,4.27-6.834,6.343-10.289
			c0.419-0.697,1.109-1.644,1.752-2.662c0.516,0.646,1.018,1.301,1.525,1.953c-8.385,14.498-16.224,29.295-24.025,44.11
			C37.157,362.046,36.365,361.591,35.59,361.108z M39.687,363.489c7.671-14.57,15.382-29.119,23.608-43.385
			c0.439,0.578,0.868,1.164,1.302,1.748c-1.746,6.76-6.459,13.146-9.586,19.246c-4.095,7.989-8.357,15.893-12.431,23.895
			C41.609,364.511,40.642,364.013,39.687,363.489z M44.378,365.864c4.343-8.537,8.883-16.971,13.251-25.494
			c2.731-5.33,6.576-10.678,8.458-16.489c0.65,0.899,1.27,1.821,1.904,2.729c-0.748,2.414-2.191,4.738-3.319,6.854
			c-1.649,3.09-3.269,6.196-4.946,9.271c-4.393,8.045-9.164,15.844-12.917,24.207C45.995,366.597,45.183,366.239,44.378,365.864z
			 M49.646,368.075c-0.334-0.125-0.662-0.266-0.994-0.395c4.199-9.408,9.723-18.142,14.574-27.22
			c1.878-3.514,4.726-7.59,6.239-11.737c0.53,0.781,1.036,1.578,1.556,2.365c-1.165,2.043-2.887,4.551-3.212,5.172
			c-1.978,3.778-3.851,7.614-5.772,11.424c-3.527,6.983-7.035,13.963-10.076,21.176C51.186,368.608,50.411,368.358,49.646,368.075z
			 M53.859,369.444c3.696-8.768,8.131-17.186,12.385-25.688c1.871-3.738,3.73-7.494,5.786-11.136
			c0.55,0.851,1.077,1.713,1.615,2.568c-0.631,1.746-2.37,5.092-2.696,5.805c-1.78,3.887-3.678,7.722-5.579,11.549
			c-2.927,5.894-5.968,11.726-8.925,17.603C55.579,369.924,54.717,369.694,53.859,369.444z M58.445,370.608
			c3.496-6.936,7.076-13.826,10.5-20.799c1.877-3.82,3.756-7.654,5.406-11.58c0.113-0.271,0.307-0.654,0.518-1.096
			c0.217,0.354,0.424,0.715,0.639,1.069c-2.281,3.084-3.516,7.769-4.99,11.131c-3.195,7.287-6.786,14.353-9.625,21.781
			C60.075,370.958,59.26,370.79,58.445,370.608z M62.882,371.483c2.769-7.211,6.243-14.072,9.363-21.141
			c1.323-2.994,2.435-7.336,4.367-10.291c0.521,0.879,1.026,1.77,1.534,2.655c-4.5,9.578-7.319,19.873-12.266,29.248
			C64.882,371.809,63.881,371.655,62.882,371.483z M67.99,372.237c4.527-8.813,7.275-18.391,11.367-27.4
			c0.775,1.39,1.533,2.789,2.28,4.195c-2.726,8.221-7.901,15.478-11.22,23.488C69.609,372.428,68.803,372.34,67.99,372.237z
			 M72.476,372.749c3.066-7.282,7.619-13.94,10.424-21.311c0.27,0.521,0.521,1.051,0.786,1.574
			c-3.314,6.418-5.557,13.36-8.386,20.006C74.364,372.934,73.423,372.846,72.476,372.749z M77.391,373.188
			c2.488-5.967,4.564-12.146,7.411-17.941c0.494,1.004,0.971,2.017,1.451,3.025c-2.556,4.779-3.967,10.197-6.31,15.096
			C79.092,373.309,78.238,373.254,77.391,373.188z M85.812,373.682c-1.247-0.056-2.495-0.105-3.732-0.179
			c1.911-4.229,3.233-8.784,5.252-12.946c0.598,1.291,1.181,2.59,1.756,3.893c-0.027,0.142-0.029,0.293,0.019,0.463
			c-0.087-0.311-0.411,1.134-0.546,1.541c-0.361,1.09-0.764,2.168-1.168,3.242C86.893,371.018,86.389,372.37,85.812,373.682z
			 M90.662,373.842c-0.904-0.022-1.812-0.036-2.713-0.067c0.486-1.179,0.925-2.379,1.371-3.547c0.254-0.662,0.733-1.623,1.135-2.621
			c0.393,0.928,0.756,1.869,1.138,2.803C91.367,371.573,91.041,372.715,90.662,373.842z M159.539,367.731
			c-1.562,0.262-3.146,0.514-4.738,0.764c-0.678-1.562-1.29-3.153-1.89-4.752c-0.448-1.194-2.383-0.678-1.929,0.531
			c0.57,1.52,1.145,3.037,1.774,4.531c-1.162,0.178-2.323,0.354-3.494,0.526c-1.05-1.877-1.911-3.85-2.761-5.827
			c-0.506-1.183-2.229-0.162-1.727,1.01c0.744,1.733,1.504,3.461,2.385,5.127c-0.471,0.065-0.931,0.139-1.402,0.205
			c-0.936-1.986-1.72-4.041-2.493-6.104c-0.448-1.194-2.383-0.678-1.929,0.531c0.74,1.973,1.496,3.939,2.365,5.854
			c-1.062,0.146-2.121,0.291-3.189,0.431c-0.794-1.447-1.512-2.935-2.172-4.459c-0.51-1.181-2.232-0.16-1.727,1.01
			c0.548,1.266,1.131,2.51,1.768,3.725c-0.582,0.074-1.158,0.152-1.741,0.226c-1.161-1.959-2.11-4.029-3.122-6.07
			c-0.572-1.156-2.298-0.143-1.727,1.01c0.881,1.779,1.706,3.589,2.673,5.32c-1.077,0.127-2.146,0.264-3.229,0.385
			c-1.272-2.084-2.321-4.295-3.654-6.346c-0.7-1.076-2.433-0.074-1.727,1.01c1.169,1.799,2.116,3.725,3.19,5.578
			c-0.778,0.082-1.547,0.18-2.327,0.258c-1.195-2.412-2.056-4.977-3.589-7.215c-0.725-1.057-2.458-0.059-1.727,1.01
			c1.362,1.99,2.195,4.236,3.203,6.406c-1.004,0.096-2.006,0.193-3.013,0.281c-1.01-1.996-2.057-3.969-3.287-5.844
			c-0.704-1.072-2.437-0.072-1.727,1.01c1.059,1.613,1.983,3.299,2.864,5.01c-0.91,0.076-1.818,0.156-2.73,0.225
			c-0.731-2.118-1.605-4.182-2.488-6.243c-0.507-1.183-2.229-0.162-1.727,1.01c0.761,1.776,1.506,3.559,2.152,5.377
			c-0.828,0.057-1.655,0.123-2.484,0.174c-0.968-2.041-1.874-4.11-2.766-6.188c-0.506-1.183-2.229-0.162-1.727,1.01
			c0.764,1.781,1.545,3.555,2.357,5.313c-0.111,0.006-0.223,0.017-0.334,0.021c-0.793,0.041-1.585,0.071-2.377,0.106
			c-1.043-1.873-2.014-3.78-2.642-5.842c-0.374-1.229-2.306-0.707-1.929,0.531c0.576,1.893,1.426,3.666,2.355,5.399
			c-1.194,0.044-2.387,0.08-3.576,0.105c-3.421-9.086-7.348-17.967-11.771-26.567c23.637-0.466,47.25-3.06,70.533-7.062
			c0.202-0.035,0.372-0.098,0.552-0.152C160.599,349.336,160.135,358.573,159.539,367.731z M198.957,359.569
			c-0.006,0.082-0.009,0.137-0.014,0.201c-0.225,0.231-0.409,0.479-0.54,0.744c-6.155,1.19-12.325,2.375-18.515,3.553
			c-3.959,0.754-8.058,1.516-12.27,2.268c0.108-1.803,0.201-3.604,0.287-5.405h2.963c1.289,0,1.289-2,0-2h-2.871
			c0.065-1.478,0.131-2.953,0.188-4.433c1.031-0.235,2.155-0.217,3.158,0.088c1.237,0.377,1.762-1.555,0.531-1.928
			c-1.132-0.346-2.417-0.412-3.617-0.221c0.057-1.594,0.124-3.189,0.169-4.785c0.809-0.066,1.621-0.078,2.441-0.08
			c1.289,0,1.289-2,0-2c-0.802,0.002-1.6,0.014-2.393,0.072c0.041-1.627,0.08-3.256,0.108-4.883c0.91-0.033,1.816,0.116,2.76,0.467
			c1.212,0.451,1.729-1.482,0.531-1.928c-1.081-0.4-2.174-0.58-3.266-0.554c0.024-1.75,0.055-3.502,0.065-5.254
			c0.486-0.02,0.973-0.02,1.451-0.02c1.289-0.002,1.289-2.002,0-2c-0.485,0-0.967,0.008-1.443,0.03
			c0.006-1.674,0.023-3.348,0.017-5.021c0.817-0.258,1.659-0.416,2.54-0.432c1.287-0.023,1.29-2.023,0-2
			c-0.876,0.016-1.719,0.139-2.539,0.352c-0.002-0.119,0-0.24,0-0.359c-0.012-1.332-0.033-2.678-0.047-4.016
			c1.072-0.234,2.145-0.471,3.222-0.689c1.264-0.256,0.728-2.184-0.531-1.928c-0.907,0.185-1.812,0.383-2.715,0.58
			c-0.017-1.361-0.026-2.715-0.048-4.078c0.851-0.17,1.701-0.342,2.553-0.512c1.264-0.252,0.728-2.18-0.532-1.928
			c-0.688,0.139-1.377,0.274-2.065,0.414c-0.036-1.892-0.064-3.779-0.124-5.67c1.022-0.232,2.053-0.433,3.093-0.607
			c1.27-0.213,0.729-2.141-0.532-1.928c-0.882,0.147-1.757,0.317-2.626,0.508c-0.059-1.585-0.135-3.168-0.217-4.75
			c0.908-0.075,1.818-0.101,2.738-0.102c1.289-0.001,1.289-2.001,0-2c-0.958,0.001-1.906,0.033-2.85,0.113
			c-0.094-1.576-0.191-3.149-0.316-4.721c0.435-0.039,0.871-0.064,1.311-0.071c1.288-0.02,1.29-2.02,0-2
			c-0.492,0.008-0.98,0.035-1.468,0.079c-0.134-1.512-0.284-3.02-0.454-4.523c0.307,0.008,0.611,0.036,0.914,0.103
			c1.258,0.271,1.792-1.656,0.531-1.928c-0.559-0.121-1.115-0.164-1.668-0.154c-0.182-1.448-0.38-2.924-0.586-4.421
			c0.752-0.176,1.504-0.359,2.254-0.547c1.251-0.312,0.721-2.241-0.531-1.929c-0.664,0.166-1.33,0.326-1.996,0.484
			c-0.155-1.122-0.312-2.238-0.463-3.375c1.244-0.249,2.488-0.498,3.732-0.747c1.264-0.253,0.728-2.18-0.532-1.928
			c-1.155,0.231-2.31,0.462-3.464,0.693c-0.176-1.387-0.338-2.781-0.479-4.178c1.097-0.374,2.241-0.617,3.362-0.895
			c1.252-0.309,0.721-2.237-0.531-1.928c-1.016,0.25-2.025,0.497-3.016,0.806c-0.094-1.12-0.178-2.24-0.232-3.358
			c1.162-0.166,2.328-0.292,3.514-0.307c1.289-0.016,1.29-2.016,0-2c-1.208,0.015-2.401,0.139-3.59,0.304
			c-0.035-1.416-0.041-2.829,0.016-4.229c1.316-0.42,2.675-0.537,4.051-0.048c1.219,0.434,1.738-1.499,0.531-1.928
			c-1.491-0.53-2.995-0.487-4.453-0.126c0.239-2.955,0.726-5.849,1.586-8.625c1.764-5.69,6.271-3.325,10.282-0.737
			c2.733,1.764,4.978,6.638,6.499,10.627c4.459,11.688,7.053,24.187,9.176,36.592c-0.244-0.039-0.496-0.069-0.77-0.065
			c-3.941,0.054-8.709,0.494-11.828,3.172c-1.656,1.421-1.453,4.203,0,5.656c1.537,1.537,3.73,1.422,5.363,0.214
			c0.027-0.011,0.057-0.018,0.085-0.028c-0.501,0.467,0.328-0.077,0.061-0.021c0.571-0.215,1.167-0.366,1.758-0.511
			c1.499-0.368,3.022-0.461,4.562-0.482c0.791-0.011,1.445-0.224,1.993-0.55c0.115,0.715,0.23,1.429,0.345,2.142
			c2.107,13.138,3.719,26.367,4.773,39.632c0.359,4.52,0.643,9.049,0.707,13.581C199.068,356.643,199.052,358.108,198.957,359.569z
			 M199.881,291.513c-2.564-14.555-5.428-29.645-11.586-43.176c-4.078-8.958-16.703-19.322-26.113-11.154
			c-4.981,4.324-5.377,12.904-5.559,18.938c-0.242,8.083,0.733,16.197,1.748,24.203c2.196,17.342,2.847,35.034,2.608,52.694
			c-0.777-0.459-1.723-0.688-2.814-0.5c-23.985,4.125-48.329,6.627-72.679,6.838c-11.099-19.678-25.051-37.628-42.25-52.646
			c1.614-1.867,3.199-3.764,4.74-5.693c24.671,3.679,49.301,7.64,74.032,10.901c3.552,0.47,4.593-3.264,3.204-5.804
			c0.104-0.266,0.185-0.559,0.236-0.882c0.892-5.565-0.08-11.201-0.989-16.708c-1.087-6.581-2.142-13.576-4.521-19.827
			c-4.286-11.257-13.681-19.421-24.763-23.431c4.439-3.547,9.199-6.816,14.349-9.711c16.755-9.416,36.384-13.992,60.007-13.992
			c21.701,0,43.846,3.75,65.262,7.379c5.826,0.986,11.852,2.007,17.644,2.908c36.669,5.703,84.968,12.261,133.38,12.337l0.775,0.001
			c22,0,44.094-1.506,65.67-4.478c5.316-0.731,11.006-1.647,17.393-2.804c1.691-0.306,5.777-0.456,8.762-0.565
			c2.83-0.104,4.037-0.147,4.648-0.299c5.061-0.386,9.148-2.342,12.547-5.234c1.471,8.428,4.867,15.634,9.598,22.112
			c-4.426,2.184-8.98,4.087-13,7c-0.152,0.112-0.293,0.24-0.434,0.366c-7.248-0.872-15.492,2.553-22.1,4.822
			c-10.686,3.672-21.037,8.194-31.512,12.408c-1.266,0.51-35.961,15.563-53.115,17.582c-17.078,2.008-34.715,3.035-51.145,8.475
			c-4.531,1.035-49.717,12.614-71.696,23.348c-0.501,0.245-0.883,0.553-1.191,0.889c-1.318,0.385-2.442,1.33-2.842,2.527
			c-16.925,6.93-35.392,11.819-53.51,13.981C203.408,313.334,201.797,302.387,199.881,291.513z M453.393,273.096
			c-0.9-0.87-1.793-1.745-2.682-2.626c-0.4-2.954-1.014-5.879-1.75-8.784c0.891-0.365,1.781-0.726,2.672-1.09
			C452.311,264.75,452.785,268.934,453.393,273.096z M448.309,268.051c-1.426-1.448-2.832-2.904-4.225-4.364
			c1.004-0.41,2.006-0.822,3.008-1.234C447.561,264.31,447.973,266.175,448.309,268.051z M279.139,326.2
			c-0.701-0.809-1.408-1.613-2.1-2.43c-0.541-4.742-0.729-9.494-0.785-14.26c0.672-0.267,1.349-0.519,2.023-0.775
			C278.435,314.563,278.931,320.374,279.139,326.2z M274.764,321.03c-0.945-1.149-1.879-2.311-2.807-3.477
			c0.142-2.121,0.211-4.246,0.24-6.373c0.688-0.291,1.377-0.582,2.067-0.863C274.318,313.895,274.453,317.466,274.764,321.03z
			 M270.181,312.05c-0.021,1.036-0.055,2.071-0.099,3.106c-0.589-0.758-1.187-1.514-1.766-2.281
			C268.935,312.593,269.558,312.323,270.181,312.05z M279.787,343.255c-0.787-1.007-1.51-2.054-2.039-3.232
			c-0.527-1.176-2.25-0.158-1.728,1.01c0.438,0.976,1.011,1.867,1.638,2.722c-1.582,0.366-3.158,0.747-4.745,1.108
			c-0.504-1.166-0.914-2.371-1.235-3.613c-0.323-1.248-2.251-0.719-1.929,0.531c0.312,1.207,0.711,2.387,1.186,3.533
			c-1.189,0.271-2.377,0.545-3.568,0.812c-0.848-1.784-1.591-3.633-1.822-5.6c-0.148-1.264-2.15-1.279-2,0
			c0.252,2.135,0.974,4.115,1.847,6.045c-1.375,0.308-2.746,0.623-4.123,0.928c-0.847-1.291-1.651-2.604-2.276-4.021
			c-0.52-1.178-2.242-0.16-1.727,1.01c0.537,1.219,1.207,2.359,1.921,3.478c-0.966,0.211-1.927,0.434-2.894,0.645
			c-0.517-1.115-0.999-2.246-1.396-3.412c-0.413-1.213-2.345-0.692-1.929,0.531c0.384,1.129,0.844,2.229,1.332,3.313
			c-0.815,0.179-1.629,0.357-2.445,0.533c-0.608-1.184-1.17-2.391-1.646-3.639c-0.457-1.191-2.391-0.674-1.93,0.531
			c0.463,1.209,0.992,2.387,1.563,3.541c-0.825,0.178-1.648,0.358-2.474,0.534c-0.756-1.646-1.461-3.313-2.444-4.846
			c-0.694-1.082-2.426-0.08-1.727,1.01c0.867,1.351,1.518,2.808,2.177,4.263c-0.908,0.19-1.814,0.389-2.724,0.58
			c-0.967-1.754-1.79-3.593-2.032-5.595c-0.152-1.264-2.154-1.276-2,0c0.262,2.164,1.035,4.129,2.013,6.021
			c-1.081,0.227-2.159,0.459-3.242,0.686c-0.854-1.584-1.768-3.137-2.583-4.742c-0.584-1.147-2.31-0.137-1.727,1.011
			c0.715,1.408,1.507,2.774,2.268,4.158c-0.941,0.194-1.88,0.396-2.822,0.59c-0.865-1.39-1.564-2.884-1.777-4.513
			c-0.164-1.26-2.166-1.276-2,0c0.234,1.789,0.867,3.412,1.726,4.938c-0.639,0.131-1.274,0.266-1.913,0.396
			c-0.884-1.696-1.777-3.389-2.639-5.1c-0.579-1.152-2.305-0.139-1.727,1.01c0.761,1.513,1.548,3.01,2.332,4.508
			c-1.049,0.214-2.091,0.435-3.141,0.646c-0.915-1.627-1.648-3.332-2.053-5.182c-0.275-1.261-2.203-0.728-1.928,0.53
			c0.391,1.787,1.074,3.47,1.927,5.068c-1.235,0.248-2.464,0.504-3.7,0.752c-0.872-1.557-1.555-3.209-2.221-4.871
			c-0.474-1.182-2.409-0.668-1.93,0.531c0.645,1.606,1.305,3.217,2.107,4.748c-0.566,0.11-1.129,0.227-1.695,0.338
			c-0.023-0.062-0.027-0.119-0.064-0.18c-1.169-1.937-1.901-4.043-2.613-6.179c-0.406-1.217-2.338-0.694-1.93,0.531
			c0.715,2.139,1.469,4.262,2.584,6.227c-1.614,0.318-3.227,0.642-4.844,0.957c0.014-0.612,0.013-1.188,0.021-1.68
			c0.09-5.459-0.342-10.938-0.773-16.375c-0.229-2.856-0.492-5.713-0.771-8.565c19.135-2.355,38.498-7.33,56.28-14.773
			c6.695,8.83,13.902,17.164,21.58,24.977C282.176,342.704,280.979,342.973,279.787,343.255z M283.162,330.718
			c-0.654-0.72-1.314-1.435-1.961-2.16c-0.135-6.865-0.789-13.705-0.939-20.568c1.082-0.399,2.168-0.789,3.256-1.172
			C283.162,314.78,283.682,322.766,283.162,330.718z M288.537,336.442c-1.189-1.225-2.367-2.461-3.531-3.711
			c0.791-8.852,0.092-17.748,0.547-26.619c0.734-0.252,1.475-0.49,2.209-0.736C287.268,315.725,288.725,326.081,288.537,336.442z
			 M290.475,338.413c0.449-11.246-1.307-22.483-0.674-33.719c1.141-0.375,2.283-0.738,3.428-1.104
			c-0.15,12.858-0.732,25.762,0.992,38.516C292.961,340.886,291.709,339.657,290.475,338.413z M296.564,344.348
			c-2.227-13.687-1.48-27.584-1.328-41.404c1.133-0.358,2.268-0.714,3.4-1.07c0.18,15.025-0.963,30.072,0.695,45.009
			C298.41,346.038,297.475,345.208,296.564,344.348z M301.59,348.944c-2.102-15.811-0.732-31.779-0.959-47.696
			c1.117-0.35,2.234-0.699,3.352-1.051c0.016,17.352,0.342,34.696,1.371,52.015C304.09,351.132,302.83,350.05,301.59,348.944z
			 M307.455,353.993c-1.121-18.021-1.463-36.076-1.475-54.135c0-0.104-0.031-0.188-0.057-0.275c1.375-0.436,2.75-0.876,4.121-1.319
			c-0.854,19.559-0.311,39.102,0.953,58.629C309.811,355.934,308.625,354.973,307.455,353.993z M313.111,358.567
			c-1.355-20.303-1.961-40.625-1.037-60.964c1.016-0.335,2.029-0.681,3.043-1.024c0.006,21.519,0.109,43.039,1.281,64.527
			C315.297,360.268,314.199,359.425,313.111,358.567z M318.488,362.671c-1.27-22.236-1.367-44.507-1.371-66.773
			c0.715-0.248,1.428-0.505,2.143-0.76c0.133,23.649,1.836,47.242,3.773,70.805C321.51,364.862,319.986,363.784,318.488,362.671z
			 M325.156,367.446c-2.008-24.301-3.803-48.635-3.904-73.028c0.994-0.364,1.984-0.748,2.975-1.128
			c0.346,25.463,3.561,50.793,4.027,76.248C327.219,368.845,326.182,368.155,325.156,367.446z M330.27,370.881
			c-0.379-26.163-3.76-52.19-4.055-78.36c1.189-0.472,2.373-0.958,3.555-1.458c-1.607,13.062-0.627,26.206,0.455,39.286
			c1.145,13.838,1.352,27.545,1.381,41.393C331.16,371.454,330.713,371.172,330.27,370.881z M333.609,373.03
			c-0.008-13.676-0.098-27.229-1.234-40.881c-1.119-13.408-2.312-26.953-0.701-40.361c0.391,0.253,0.775,0.521,1.162,0.788
			c-0.062,15.317,1.436,30.562,2.611,45.823c0.924,11.969-0.703,24.141,0.51,36.071C335.176,373.991,334.385,373.52,333.609,373.03z
			 M338.086,375.778c-1.678-12.938,0.211-26.348-0.789-39.342c-1.09-14.137-2.434-28.25-2.469-42.431
			c0.896,0.672,1.783,1.379,2.664,2.104c4.127,27.101-0.049,54.69,4.189,81.777C340.477,377.196,339.277,376.493,338.086,375.778z
			 M346.23,380.436c-0.771-0.422-1.547-0.843-2.312-1.271c-0.014-0.008-0.025-0.016-0.041-0.022
			c-4.576-26.832-0.512-54.189-4.121-81.099c0.84,0.738,1.67,1.497,2.494,2.267c0.26,14.17,2.781,28.164,3.508,42.307
			C346.404,355.161,346.248,367.852,346.23,380.436z M348.223,381.522c-0.023-12.324-0.096-24.672-0.389-36.988
			c-0.34-14.158-3.051-28.131-3.533-42.278c1.318,1.272,2.617,2.567,3.902,3.86c-0.121,13.98,3.602,27.353,3.861,41.301
			c0.225,12.043-0.27,24.197,0.213,36.25C350.918,382.959,349.564,382.247,348.223,381.522z M358.715,386.905
			c-1.471-0.719-2.936-1.445-4.389-2.188c-0.568-12.389-0.111-24.917-0.262-37.301c-0.162-13.272-3.613-26.03-3.852-39.268
			c0.914,0.928,1.818,1.844,2.717,2.75c0.004,0.027-0.006,0.047,0,0.074C357.805,335.819,359.453,361.573,358.715,386.905z
			 M365.521,390.12c-1.621-0.738-3.238-1.488-4.84-2.258c0.781-24.828-0.736-50.055-5.273-74.486c0.656,0.646,1.309,1.283,1.955,1.9
			c1.174,1.121,2.354,2.227,3.543,3.324c0.082,14.188,0.918,28.354,1.57,42.524C362.904,370.42,366.426,380.696,365.521,390.12z
			 M367.414,390.975c0.928-8.771-2.109-18.248-2.793-26.816c-1.154-14.485-1.617-29.186-1.707-43.735
			c1.141,1.032,2.301,2.038,3.453,3.055c-0.098,0.149-0.162,0.326-0.139,0.563c2.271,23.064,4.506,46.133,6.48,69.223
			C370.936,392.522,369.17,391.758,367.414,390.975z M374.783,394.104c-1.959-22.976-4.178-45.928-6.439-68.877
			c1.225,1.062,2.459,2.111,3.695,3.16c0.801,11.209,2.32,22.334,3.959,33.448c1.686,11.435,2.254,23.185,4.543,34.517
			C378.613,395.625,376.691,394.883,374.783,394.104z M442.537,397.745c1.055,3.523-0.199,5.775-2.727,7.168
			c-1.008-5.902-1.65-11.861-2.656-17.764C439.512,390.508,441.428,394.043,442.537,397.745z M434.455,383.59
			c1.523,7.322,2.203,14.777,3.473,22.14c-1.303,0.438-2.795,0.735-4.402,0.922c-0.783-9.316-1.613-18.644-3.271-27.844
			C431.705,380.354,433.119,381.95,434.455,383.59z M427.707,376.165c2.049,10.107,2.971,20.391,3.832,30.662
			c-1.035,0.062-2.102,0.088-3.18,0.084c-1.445-12.432-4.373-24.654-6.955-36.898C423.422,371.956,425.572,374.008,427.707,376.165z
			 M418.867,367.616c2.678,13.035,5.936,26.029,7.486,39.258c-1.605-0.057-3.211-0.166-4.762-0.309
			c-1.598-14.084-6.307-27.918-6.1-42.107C416.631,365.497,417.746,366.559,418.867,367.616z M413.555,362.698
			c-0.65,14.748,4.326,29.063,6.014,43.66c-1.33-0.15-2.6-0.314-3.754-0.482c-2.34-16.139-5.695-32.11-8.025-48.248
			C409.729,359.298,411.65,360.987,413.555,362.698z M405.508,355.667c2.316,16.701,5.801,33.215,8.254,49.894
			c-1.395-0.226-2.521-0.435-3.268-0.576c-0.75-0.144-1.496-0.308-2.244-0.463c-1.83-17.666-5.566-35.076-7.389-52.744
			C402.42,353.063,403.967,354.36,405.508,355.667z M398.688,350.002c1.73,18.132,5.611,35.976,7.52,54.08
			c-1.064-0.238-2.129-0.483-3.191-0.744c-1.021-6.059-1.701-12.131-2.527-18.217c-1.74-12.815-4.717-25.418-5.721-38.319
			C396.08,347.86,397.383,348.934,398.688,350.002z M387.371,340.901c1.77,1.398,3.531,2.803,5.291,4.211
			c0.822,13.021,3.646,25.777,5.623,38.652c0.975,6.346,1.623,12.709,2.637,19.047c-1.311-0.338-2.619-0.688-3.926-1.058
			c-0.078-1.91-0.504-3.91-0.729-5.516c-0.637-4.525-1.459-9.019-2.213-13.525c-2.32-13.938-6.371-27.936-7.053-42.106
			C387.127,340.704,387.248,340.804,387.371,340.901z M384.932,338.948c0.438,13.979,4.576,27.453,6.742,41.223
			c0.635,4.021,1.32,8.031,1.98,12.047c0.393,2.4,1.377,5.929,1.453,9.002c-2.256-0.659-4.504-1.35-6.742-2.094
			c-1.258-10.371-3.471-20.549-4.4-30.998c-0.949-10.696-1.633-21.413-2.682-32.102
			C382.492,337.002,383.715,337.973,384.932,338.948z M379.113,334.25c1.094,10.638,1.803,21.308,2.688,31.964
			c0.904,10.876,3.141,21.438,4.479,32.21c-1.184-0.405-2.363-0.823-3.541-1.254c-2.381-11.088-2.855-22.694-4.523-33.924
			c-1.635-10.987-3.178-21.987-4.045-33.063C375.807,331.55,377.459,332.901,379.113,334.25z M452.277,286.183
			c-0.83-1.556-1.609-3.136-2.457-4.683c-0.621-1.131-2.35-0.122-1.729,1.011c0.807,1.468,1.551,2.968,2.334,4.446
			c-1.67,0.699-3.334,1.405-5.008,2.099c-0.73-1.086-1.285-2.293-1.867-3.467c-0.572-1.155-2.299-0.143-1.727,1.01
			c0.545,1.099,1.086,2.193,1.732,3.224c-1.398,0.575-2.797,1.154-4.197,1.728c-0.895-1.827-1.771-3.697-1.668-5.729
			c0.066-1.29-1.934-1.283-2,0c-0.119,2.343,0.871,4.409,1.855,6.467c-1.344,0.547-2.682,1.103-4.029,1.646
			c-1.334-2.137-2.492-4.454-2.367-7.021c0.062-1.29-1.938-1.282-2,0c-0.137,2.821,1.051,5.409,2.494,7.779
			c-1.229,0.493-2.449,1-3.682,1.489c-0.977-1.58-1.629-3.309-2.025-5.174c-0.27-1.263-2.197-0.728-1.93,0.53
			c0.414,1.939,1.105,3.729,2.084,5.381c-1.344,0.531-2.686,1.068-4.035,1.595c0.031,0.027,0.059,0.059,0.09,0.087
			c-0.025,0.01-0.049,0.019-0.072,0.026c-1.156-2.188-2.096-4.469-2.949-6.803c-0.438-1.201-2.373-0.683-1.93,0.531
			c0.875,2.389,1.826,4.735,2.994,6.987c-1.611,0.606-3.229,1.193-4.855,1.748c-0.881-2.343-1.686-4.712-2.477-7.088
			c-0.406-1.218-2.338-0.694-1.93,0.531c0.805,2.41,1.619,4.813,2.516,7.189c-1.16,0.38-2.322,0.752-3.49,1.111
			c-1.104-2.376-1.953-4.855-2.238-7.477c-0.139-1.268-2.141-1.281-2,0c0.311,2.841,1.158,5.496,2.32,8.072
			c-1.568,0.469-3.143,0.922-4.721,1.358c-1.193-2.108-2.062-4.348-2.721-6.699c-0.348-1.24-2.277-0.714-1.93,0.53
			c0.656,2.341,1.506,4.598,2.656,6.721c-1.025,0.276-2.053,0.551-3.082,0.819c-1.328-2.42-2.541-4.885-3.367-7.525
			c-0.385-1.228-2.314-0.703-1.93,0.53c0.82,2.625,2.004,5.098,3.309,7.512c-1.627,0.418-3.256,0.83-4.887,1.233
			c-1.332-2.088-2.271-4.354-2.762-6.823c-0.25-1.265-2.18-0.728-1.93,0.531c0.482,2.423,1.383,4.706,2.646,6.8
			c-1.18,0.291-2.357,0.58-3.537,0.869c-1.197-1.838-2.332-3.717-3.174-5.748c-0.486-1.174-2.424-0.66-1.93,0.531
			c0.838,2.019,1.906,3.889,3.062,5.717c-0.684,0.168-1.367,0.336-2.051,0.504c-1.119-1.998-2.201-4.016-2.898-6.207
			c-0.391-1.225-2.322-0.7-1.93,0.531c0.691,2.172,1.725,4.188,2.818,6.176c-1.33,0.33-2.658,0.664-3.984,1.002
			c-1.102-1.77-2.064-3.622-3.002-5.495c-0.576-1.152-2.301-0.142-1.727,1.01c0.852,1.703,1.729,3.385,2.705,5.008
			c-0.982,0.256-1.963,0.514-2.941,0.777c-1.318-2.091-2.273-4.396-2.84-6.828c-0.293-1.256-2.223-0.724-1.93,0.531
			c0.566,2.43,1.514,4.747,2.787,6.872c-0.309,0.125-0.594,0.269-0.844,0.439c-2.789-2.551-5.559-5.135-8.318-7.762
			c-5.959-5.672-12.043-11.576-18.754-16.497c31.643-8.644,66.666-6.555,94.643-24.978c5.516,5.812,13.289,15.005,19.273,20.273
			C453.932,285.497,453.102,285.835,452.277,286.183z M455.756,275.343c-0.857-5.154-1.383-10.36-2.232-15.517
			c0.639-0.261,1.279-0.517,1.92-0.775c0.807,6.172,1.881,12.308,2.678,18.479C457.328,276.806,456.539,276.078,455.756,275.343z
			 M460.365,279.541c-0.84-7.108-2.117-14.157-3.021-21.26c1.074-0.432,2.156-0.848,3.232-1.272
			c0.916,8.381,2.209,16.717,2.787,25.123C462.357,281.277,461.354,280.417,460.365,279.541z M465.482,283.894
			c-0.52-9.258-2.002-18.421-2.982-27.644c0.393-0.152,0.781-0.312,1.174-0.463c0.402-0.153,0.809-0.311,1.213-0.467
			c0.648,10.207,1.783,20.367,3.025,30.515C467.096,285.197,466.285,284.552,465.482,283.894z M470.119,287.533
			c-1.354-10.965-2.604-21.938-3.279-32.969c1.164-0.452,2.344-0.905,3.529-1.354c1.273,12.237,1.268,24.752,3.305,36.906
			C472.477,289.274,471.291,288.415,470.119,287.533z M475.98,291.699c-2.42-12.874-2.279-26.214-3.688-39.211
			c1.396-0.512,2.801-1.008,4.217-1.47c1.227,14.327,1.525,28.766,3.184,43.053C478.443,293.303,477.203,292.516,475.98,291.699z
			 M481.844,295.351c-1.852-14.901-2.074-29.993-3.383-44.946c1.598-0.481,3.205-0.899,4.814-1.253c0,0.018-0.008,0.029-0.008,0.047
			c0.924,16.262,0.945,32.668,3.424,48.792C485.053,297.155,483.436,296.277,481.844,295.351z M488.873,299.066
			c-2.697-16.46-2.662-33.248-3.605-49.867c-0.008-0.158-0.047-0.297-0.107-0.416c0.682-0.123,1.363-0.235,2.045-0.331
			c-0.598,10.711,0.842,21.372,2.127,32.001c0.766,6.312,0.803,13.185,1.812,19.639
			C490.385,299.753,489.621,299.425,488.873,299.066z M493.578,301.139c-0.102-1.226-0.17-2.455-0.369-3.644
			c-0.939-5.621-1.205-11.383-1.877-17.042c-1.273-10.711-2.744-21.435-2.115-32.227c0.014-0.001,0.025-0.003,0.037-0.004
			c1.254-0.1,2.48,0.118,3.67,0.562c0.148,17.902,1.348,35.828,3.791,53.566C495.66,301.966,494.613,301.564,493.578,301.139z
			 M498.824,303.104c-2.486-17.652-3.707-35.505-3.889-53.329c0.379,0.226,0.752,0.477,1.121,0.739
			c1.951,17.792,3.629,35.618,5.408,53.427C500.578,303.679,499.697,303.397,498.824,303.104z M504.195,304.7
			c-0.246-0.062-0.486-0.137-0.732-0.203c0.018-0.088,0.041-0.174,0.029-0.28c-1.73-17.311-3.367-34.634-5.246-51.929
			c1.049,0.955,2.045,2.007,2.986,3.072c2.203,16.585,1.268,33.742,5.551,49.996C505.834,305.122,504.953,304.895,504.195,304.7z
			 M509.014,305.87c-4.307-15.477-3.713-31.836-5.453-47.739c0.803,0.992,1.547,1.936,2.217,2.747
			c0.838,1.019,1.66,2.057,2.471,3.105c0.6,9.359,1.262,18.708,2.307,28.031c0.512,4.562,0.525,9.769,1.598,14.438
			C511.078,306.288,510.021,306.086,509.014,305.87z M523.914,289.424c2.344,5.159,4.26,11.646,0.283,15.238
			c-0.164,0.148-0.336,0.287-0.514,0.418C523.188,299.903,523.797,294.653,523.914,289.424z M521.572,284.756
			c0.111,0.209,0.229,0.43,0.35,0.655c0.4,6.87-0.859,13.82-0.113,20.659c-0.873,0.324-1.828,0.531-2.836,0.646
			c-1.4-10.107-1.334-20.366-2.32-30.527C518.387,279.003,520.033,281.863,521.572,284.756z M516.99,306.843
			c-0.896,0.006-1.816-0.039-2.74-0.127c-1.4-5.275-1.316-11.322-1.908-16.585c-0.865-7.728-1.418-15.484-1.916-23.244
			c1.318,1.806,2.578,3.658,3.811,5.528C515.748,283.843,515.453,295.432,516.99,306.843z M515.285,247.841
			c-0.307-0.535-0.584-1.089-0.859-1.64c-0.576-1.153-2.303-0.141-1.727,1.01c0.354,0.712,0.721,1.418,1.137,2.09
			c-0.525,0.521-1.047,1.044-1.584,1.556c-0.387-0.773-0.773-1.548-1.16-2.321c-0.576-1.153-2.303-0.141-1.727,1.01
			c0.455,0.911,0.912,1.823,1.367,2.734c-0.328,0.302-0.652,0.606-0.982,0.904c-2.58-3.098-5.631-6.538-9.104-9.102
			c2.801-1.534,5.727-2.837,8.602-4.255c0.42-0.208,0.746-0.464,1.031-0.738c1.914,2.096,3.959,4.128,6.121,6.112
			c0.266,0.245,0.545,0.435,0.826,0.594C516.596,246.487,515.941,247.164,515.285,247.841z M522.154,239.655
			c-0.035-0.035-0.061-0.074-0.098-0.109c-0.684-0.627-1.348-1.257-2-1.889c0.938,0.297,1.871,0.606,2.805,0.928
			C522.625,238.94,522.4,239.304,522.154,239.655z M523.979,236.864c-2.254-0.789-4.521-1.524-6.826-2.137
			c-0.406-0.431-0.807-0.863-1.197-1.298c2.936,0.724,5.904,1.314,8.846,2.025C524.529,235.926,524.264,236.401,523.979,236.864z
			 M525.803,233.644c-4.041-0.999-8.143-1.735-12.141-2.894c-0.402-0.495-0.781-1.001-1.164-1.505c4.412,1.6,8.949,2.79,13.473,4.07
			C525.914,233.424,525.861,233.535,525.803,233.644z M526.883,231.497c-5.551-1.571-11.156-2.95-16.49-5.189
			c-0.262-0.396-0.51-0.8-0.762-1.201c3.289,1.229,7.031,1.603,10.359,2.224c2.652,0.494,5.246,1.266,7.844,2.015
			C527.521,230.066,527.221,230.793,526.883,231.497z M528.615,227.484c-1.965-0.569-3.926-1.161-5.91-1.638
			c-4.789-1.15-10.551-1.152-14.836-3.818c-0.607-1.158-1.152-2.357-1.664-3.578c3.52,1.221,7.27,2.02,10.812,3.023
			c2.861,0.81,5.721,1.627,8.57,2.479c0.701,0.209,2.635,0.73,3.912,1.132C529.221,225.892,528.928,226.694,528.615,227.484z
			 M530.211,222.897c-2.953-1.338-7.676-1.931-9.656-2.498c-5.033-1.443-10.424-2.492-15.311-4.431
			c-0.434-1.229-0.811-2.501-1.148-3.8c8.732,3.404,17.9,5.414,26.799,8.316C530.678,221.295,530.457,222.104,530.211,222.897z
			 M531.373,218.537c-9.248-3.011-18.795-5.047-27.832-8.713c-0.17-0.824-0.33-1.656-0.455-2.515
			c-0.027-0.181-0.084-0.328-0.129-0.489c-0.043-0.332-0.074-0.666-0.111-1c9.672,3.722,18.699,9.102,28.719,11.89
			C531.498,217.985,531.438,218.262,531.373,218.537z M531.984,215.75c-10.102-2.831-19.211-8.297-28.99-12.008
			c-0.137-0.052-0.262-0.064-0.379-0.061c-0.039-0.413-0.08-0.825-0.121-1.238c0.32-0.521,0.631-1.054,0.938-1.588
			c9.662,4.062,19.359,8.031,29.215,11.6C532.426,213.557,532.205,214.657,531.984,215.75z M533.037,210.475
			c-9.66-3.502-19.168-7.387-28.641-11.367c0.439-0.826,0.855-1.668,1.268-2.511c5.066,2.777,10.193,5.405,15.492,7.718
			c3.834,1.674,8.375,2.578,12.213,4.436C533.26,209.326,533.148,209.902,533.037,210.475z M533.75,206.758
			c-2.695-1.15-5.633-1.819-8.35-2.851c-6.533-2.48-12.764-5.741-18.879-9.112c0.301-0.646,0.574-1.294,0.861-1.941
			c4.645,2.189,9.273,4.395,14.01,6.384c3.986,1.676,8.805,2.451,12.982,4.075C534.174,204.463,533.965,205.612,533.75,206.758z
			 M534.705,201.44c-2.471-0.805-5.07-1.318-7.508-2.128c-6.553-2.178-12.771-5.313-19.004-8.276c0.463-1.078,0.91-2.145,1.35-3.201
			c3.48,3.033,7.584,4.994,11.883,6.738c4.373,1.773,8.959,3.889,13.547,5.196C534.883,200.326,534.799,200.883,534.705,201.44z
			 M535.293,197.773c-3.578-1.088-7.039-2.753-10.525-4.052c-5.193-1.934-10.312-4.064-14.41-7.857
			c0.232-0.569,0.463-1.127,0.691-1.684c8.006,4.285,15.93,8.785,24.492,11.875C535.459,196.627,535.381,197.201,535.293,197.773z
			 M535.82,194.032c-8.383-3.062-16.145-7.505-23.994-11.703c0.104-0.248,0.211-0.505,0.314-0.748
			c0.096-0.22,0.205-0.482,0.326-0.775c7.152,5.158,15.545,7.682,23.596,11.166C535.98,192.658,535.91,193.344,535.82,194.032z
			 M536.303,189.913c-7.869-3.327-16.152-5.832-23.051-10.997c0.318-0.768,0.631-1.5,0.941-2.231
			c3.629,2.736,7.564,4.901,11.623,6.966c3.42,1.739,6.91,4.057,10.545,5.596C536.34,189.469,536.326,189.691,536.303,189.913z
			 M536.699,185.35c-0.039,0.588-0.105,1.178-0.154,1.767c-2.828-1.313-5.574-3.108-8.258-4.458
			c-4.615-2.321-9.191-4.669-13.279-7.85c0.244-0.557,0.482-1.084,0.725-1.617c6.404,4.318,13.664,9.072,20.988,11.809
			C536.713,185.114,536.705,185.239,536.699,185.35z M536.852,182.914c-7.076-2.734-14.109-7.398-20.277-11.562
			c0.205-0.443,0.408-0.862,0.611-1.287c3.689,2.661,7.627,4.83,11.791,6.699c2.57,1.153,5.453,1.904,8.016,3.136
			C536.957,180.954,536.906,181.966,536.852,182.914z M529.986,175.037c-4.227-1.8-8.203-4.104-11.908-6.805
			c0.303-0.607,0.6-1.189,0.896-1.756c5.139,4.6,11.828,6.629,18.061,9.38c0.008,0.629,0.012,1.253,0.004,1.864
			C534.736,176.721,532.24,175.996,529.986,175.037z"/>
		<path d="M263.518,260.242c0.302-10.464-8.762-20.017-18.411-22.531c-1.311-0.342-2.416-0.053-3.256,0.568
			c-8.721,0.83-15.003,6.892-15.736,16.118c-0.771,9.713,6.497,18.75,15.884,20.577
			C252.307,276.979,263.194,271.471,263.518,260.242z M238.897,247.233c-1.692,2.264-3.311,4.586-4.775,6.99
			C234.356,250.776,236.229,248.463,238.897,247.233z M234.764,259.197c2.412-4.61,5.482-8.902,8.703-13.011
			c0.391-0.018,0.785-0.024,1.185-0.012c0.166,0.005,0.312-0.021,0.467-0.031c0.479,0.195,0.94,0.419,1.394,0.655
			c-3.111,5.28-7.383,9.792-10.568,15.009C235.46,260.989,235.06,260.114,234.764,259.197z M243.201,267.079
			c-2.084-0.405-3.852-1.389-5.264-2.738c3.211-5.62,7.797-10.35,11.105-15.927c3.263,2.525,5.555,6.204,6.397,10.416
			C256.869,265.976,248.702,268.149,243.201,267.079z"/>
		<path d="M301.586,269.007c9.943,4.021,22.105-4.84,22.867-14.966c0.84-11.166-8.182-21.713-19.707-20.723
			c-1.387,0.119-2.387,0.806-3.021,1.722c-6.887,0.408-10.781,6.541-11.457,13.698C289.479,257.073,293.697,265.817,301.586,269.007
			z M316.523,253.105c-0.055,5.856-7.822,10.605-13.107,8.034c-1.406-0.684-2.672-2.488-3.602-4.71
			c4.771-3.641,9.242-7.727,13.172-12.263C315.24,246.344,316.555,249.554,316.523,253.105z M307.465,241.416
			c1.119,0.174,2.156,0.526,3.105,1.015c-3.514,4.036-7.512,7.709-11.744,10.993c-0.113-0.459-0.215-0.922-0.297-1.385
			C301.188,248.266,304.395,244.894,307.465,241.416z M302.129,242.908c-1.307,1.463-2.596,2.937-3.822,4.455
			C298.607,244.778,299.77,242.892,302.129,242.908z"/>
		<path d="M360.385,265.576c8.361,2.833,19.385-4.248,21.309-12.446c2.422-10.319-8.047-19.293-17.004-21.489
			c-1.891-0.465-3.367,0.347-4.209,1.602C346.033,237.766,345.764,260.622,360.385,265.576z M373.953,251.107
			c-0.072,4.291-8.025,8.272-11.818,6.649c-0.457-0.196-0.871-0.434-1.262-0.691c3.641-3.983,7.309-7.932,11.285-11.568
			C373.297,247.117,373.988,248.998,373.953,251.107z M370.154,243.27c-4.025,3.667-7.73,7.655-11.408,11.679
			c-0.43-0.649-0.764-1.355-0.998-2.101c1.371-2.147,3.398-3.987,5.166-5.727c1.799-1.771,3.666-3.49,5.598-5.123
			C369.088,242.388,369.639,242.813,370.154,243.27z M364.082,240.569c0.393-0.084,0.727-0.219,1.035-0.375
			c0.199,0.081,0.398,0.172,0.598,0.26c-1.688,1.464-3.32,2.993-4.922,4.547c-1.092,1.059-2.271,2.177-3.359,3.372
			C357.973,244.75,360.344,241.365,364.082,240.569z"/>
	</g>
</g>
<g>
</g>
<g>
</g>
<g>
</g>
<g>
</g>
<g>
</g>
<g>
</g>
<g>
</g>
<g>
</g>
<g>
</g>
<g>
</g>
<g>
</g>
<g>
</g>
<g>
</g>
<g>
</g>
<g>
</g>
</svg>
