<?xml version="1.0" encoding="iso-8859-1"?>
<!-- Generator: Adobe Illustrator 16.0.0, SVG Export Plug-In . SVG Version: 6.00 Build 0)  -->
<!DOCTYPE svg PUBLIC "-//W3C//DTD SVG 1.1//EN" "http://www.w3.org/Graphics/SVG/1.1/DTD/svg11.dtd">
<svg version="1.1" id="Capa_1" xmlns="http://www.w3.org/2000/svg" xmlns:xlink="http://www.w3.org/1999/xlink" x="0px" y="0px"
	 width="579.222px" height="579.222px" viewBox="0 0 579.222 579.222" style="enable-background:new 0 0 579.222 579.222;"
	 xml:space="preserve">
<g>
	<g>
		<path d="M175.243,207.344c-14.511,0.066-28.984,1.449-43.498,1.5c-1.612,0.006-2.889,1.074-3.375,2.57
			c-4.858,14.953-7.051,30.57-11.083,45.729c-0.354,0.525-0.487,1.121-0.459,1.709c-0.318,1.154-0.646,2.305-0.99,3.453
			c-0.655,0.564-1.092,1.41-1.092,2.537v1.141c-0.065,0.395-0.063,0.762,0,1.104v5.256c0,2.471,2.221,3.719,4.431,3.375
			c18.117-2.824,36.603-0.586,53.997-7.5c0.249-0.1,0.473-0.219,0.68-0.352c1.067-0.492,1.885-1.49,1.89-3.023
			c0.056-17.045,1.375-34.061,1.484-51.105C179.605,212.036,178.949,207.329,175.243,207.344z M134.333,215.809
			c5.581-0.077,11.157-0.327,16.732-0.597c-7.267,6.262-14.463,12.596-21.425,19.191
			C131.007,228.155,132.468,221.932,134.333,215.809z M127.387,244.854c0.163-0.111,0.324-0.236,0.479-0.391
			c10.055-9.991,20.742-19.276,31.499-28.498c0.431-0.369,0.691-0.775,0.84-1.191c2.886-0.129,5.773-0.238,8.661-0.316
			c-13.386,13.217-27.396,26-42.888,36.699C126.464,249.06,126.93,246.958,127.387,244.854z M168.771,262.392
			c-15.159,5.244-31.247,4.168-47.025,5.988v-1.508c0.753-2.344,1.438-4.705,2.079-7.078c16.82-10.846,31.939-24.176,46.267-38.137
			C169.757,235.239,168.907,248.808,168.771,262.392z"/>
		<path d="M169.812,294.465c-5.424,1.252-10.713,1.252-16.138,0c-4.394-1.014-6.259,5.735-1.861,6.75
			c6.655,1.536,13.205,1.536,19.86,0C176.071,300.201,174.207,293.452,169.812,294.465z"/>
		<path d="M574.792,411.46c-5.447,1.229-11.051,1.426-16.567,2.214v-2.882c3.15-0.462,6.396-0.594,9.43-1.582
			c1.115-0.362,1.166-2.691,0.796-6.246c-3.524-38.259-1.688-86.929-1.312-135.652c-0.048,0.007-0.097,0.009-0.145,0.016V134.313
			c0.13-2.559-0.25-5.515-2.375-6.39c-1.563-0.645-3.062-0.438-5.362-0.386c-51.336,1.519-102.547,3.62-153.916,1.68
			c-28.618-1.08-57.009-1.768-85.551,1.081c-13.708,1.368-27.385,3.016-41.149,3.72c-13.26,0.679-27.007-2.146-40.076,0.405
			c-2.004,0.392-2.706,1.986-2.477,3.537c-0.058,0.261-0.093,0.537-0.093,0.838c0,0,0.425,123.939,1.061,124.504
			c1.41,28.568,2.501,57.098,4.079,82.898c-0.391,1.069-0.328,2.292,0.201,3.218c0.833,13.144,1.804,25.54,3.024,36.815
			c-8.209-1.365-16.784-0.515-25.049,0.602c-0.797-65.423-10.863-130.388-16.567-195.487c0-0.002,0.001-0.002,0.001-0.002
			c2.197-21.018-1.12-55.984-26.762-60.771c-18.459-3.447-40.532,12.078-42.785,30.162c-0.624-2.252-1.312-4.461-1.982-6.586
			c-2.834-8.992-6.518-18.01-11.445-26.068c-1.424-2.33-4.589-2.185-6.044,0c-8.868,13.315-4.974,31.735-6.478,46.764
			c-0.132,1.325,0.392,2.244,1.196,2.783c-0.292,0.081-0.589,0.146-0.88,0.23c-4.261,1.242-9.289,3.199-11.528,7.323
			c-0.385,0.708-0.627,1.415-0.767,2.118c-2.443,5.008,0.582,10.945,4.484,14.875c0.128,15.005,2.56,29.896,2.589,44.918
			c0.014,6.949-0.479,13.99-2.798,20.586c-1.947,5.539-6.724,9.432-11.466,12.547c-22.091,14.518-49.544,17.334-73.351,28.074
			c-0.252,0.143-0.506,0.279-0.756,0.425c-2.088,1.204-5.404,2.684-5.865,5.302c-0.017,0.097-0.052,0.175-0.095,0.24
			c0.009,0.277,0.024,0.557,0.042,0.837c3.98,15.722,4.626,31.783,4.838,47.905c-8.224,4.01-13.334,12.063-12.86,21.532
			c0.43,8.592,6.125,15.08,14.025,16.828c0.36,4.194,0.848,8.378,1.519,12.544c0.426,4.377,0.535,6.14,4.07,5.675
			c18.772-2.47,35.741-3.628,54.653-4.079c-0.044,0.256-0.063,0.528-0.05,0.823c2.227,46.613,83.587,49.49,86.415,3.362
			c18.273-0.559,36.538-2.76,54.509-5.987c2.026-0.362,2.723-1.967,2.475-3.525c-0.169-2.4,1.613-2.561,2.862-2.826
			c8.557-1.826,16.477-5.263,25.156-5.493c0.419,6.46,1.553,12.838,4.914,17.8c6.399,9.446,20.622,9.146,30.751,9.169
			c2.511,8.691,7.83,16.247,16.674,20.522c11.258,5.441,25.584,4.076,35.404-3.729c4.699-3.733,7.744-8.636,9.322-13.995
			c0.441,0.109,0.919,0.147,1.435,0.077c13.412-1.82,26.82-4.545,40.291-6.491c0.329,0.152,0.642,0.075,0.873-0.122
			c7.837-1.112,15.694-1.955,23.589-2.188c1.534,8.412,5.478,16.489,10.899,22.151c10.688,11.16,27.482,8.709,38.002-1.16
			c4.034-3.786,6.805-8.436,8.447-13.463c0.19,0.256,0.362,0.527,0.562,0.775c7.494,9.31,20.062,12.76,31.587,11.046
			c8.2-1.219,16.181-5.158,21.171-11.931c3.43-4.653,4.815-10.05,4.721-15.523c3.965-0.51,7.938-0.948,11.911-1.378
			c-0.971,9.407,2.376,17.976,12.619,19.32c9.309,1.224,18.804-2.188,27.815-4.037c1.511-0.311,2.569-1.896,2.569-3.375v-10.499
			C579.223,412.479,576.997,410.963,574.792,411.46z M12.974,371.015c0.004,0.393,0.012,0.783,0.017,1.176
			c-0.84,0.412-1.681,0.822-2.526,1.225C11.207,372.53,12.047,371.723,12.974,371.015z M8.456,376.521
			c1.533-0.687,3.058-1.392,4.568-2.124l0.015,1.055c-1.782,0.903-3.551,1.829-5.302,2.788
			C7.937,377.649,8.182,377.078,8.456,376.521z M6.984,383.626c-0.047-0.938-0.002-1.858,0.125-2.759
			c1.96-1.114,3.953-2.168,5.961-3.195c0.014,0.865,0.021,1.73,0.037,2.596l-6.111,3.491C6.993,383.714,6.986,383.671,6.984,383.626
			z M7.276,385.902c1.959-1.12,3.918-2.239,5.878-3.359c0.015,0.672,0.023,1.344,0.041,2.016c-1.805,1.107-3.562,2.279-5.261,3.542
			C7.657,387.406,7.438,386.671,7.276,385.902z M8.848,389.899c1.43-1.074,2.904-2.078,4.415-3.032
			c0.04,1.242,0.08,2.485,0.133,3.729c-0.969,0.439-1.931,0.896-2.887,1.368C9.871,391.357,9.322,390.66,8.848,389.899z
			 M12.281,393.317c0.401-0.194,0.806-0.385,1.209-0.573c0.021,0.405,0.032,0.812,0.054,1.217
			C13.099,393.776,12.683,393.556,12.281,393.317z M193.883,161.01c-3.466-6.456-7.096-12.828-10.127-19.496
			C189.383,146.163,192.185,153.954,193.883,161.01z M180.71,139.479c4.148,9.801,9.737,18.875,14.492,28.377
			c0.495,3.276,0.822,6.598,0.951,9.93c-7.427-12.352-12.403-26.008-17.801-39.358C179.185,138.719,179.96,139.085,180.71,139.479z
			 M175.928,137.739c6.08,14.941,11.519,30.352,20.301,43.953c-0.003,1.139-0.021,2.277-0.063,3.41
			c-4.076-6.311-7.325-13.066-10.691-19.826c-4.57-9.181-9.09-18.376-12.756-27.959
			C173.805,137.386,174.878,137.524,175.928,137.739z M170.566,137.272c3.336,8.824,7.38,17.324,11.568,25.773
			c4.291,8.652,8.325,17.445,13.845,25.377c-0.009,0.125-0.013,0.253-0.022,0.379c-1.607-0.374-3.212-0.668-4.816-0.904
			c-8.458-16.34-15.633-33.287-21.908-50.582C169.679,137.284,170.124,137.282,170.566,137.272z M167.186,137.528
			c6.193,17.102,13.251,33.877,21.546,50.062c-0.526-0.057-1.054-0.115-1.58-0.16c-0.864-1.84-1.959-3.595-2.953-5.325
			c-2.525-4.395-4.655-8.888-6.58-13.582c-4.183-10.2-7.394-20.755-12.205-30.696C166.004,137.708,166.594,137.612,167.186,137.528z
			 M163.475,138.286c0.018,0.074,0.021,0.146,0.058,0.223c4.819,9.869,8.102,20.359,12.156,30.547
			c1.595,4.004,3.348,7.961,5.445,11.729c1.182,2.123,2.62,4.26,3.753,6.498c-0.961-0.051-1.922-0.085-2.882-0.098
			c-3.725-7.343-7.893-14.325-10.98-22.074c-3.445-8.646-6.313-17.508-9.738-26.163C162.011,138.7,162.742,138.483,163.475,138.286z
			 M159.423,139.649c3.63,9.184,6.716,18.57,10.372,27.746c2.766,6.941,6.532,13.243,9.946,19.791
			c-0.499,0.008-0.998,0.014-1.497,0.029c-3.05-7.163-8.041-13.656-11.691-20.562c-4.299-8.131-7.896-16.637-10.42-25.483
			C157.207,140.606,158.306,140.103,159.423,139.649z M154.341,142.173c2.237,7.691,5.303,15.057,8.832,22.25
			c3.838,7.822,9.367,14.977,12.922,22.89c-0.471,0.026-0.94,0.048-1.41,0.081c-2.763-6.283-6.813-12.18-10.062-18.14
			c-4.58-8.401-9.059-16.884-11.957-26.022C153.213,142.862,153.774,142.512,154.341,142.173z M150.952,144.464
			c2.577,7.889,6.292,15.295,10.213,22.608c3.593,6.702,8.314,13.421,11.45,20.485c-0.806,0.074-1.611,0.148-2.417,0.24
			c-5.934-14.373-14.903-27.199-22.014-40.995C149.055,145.979,149.985,145.202,150.952,144.464z M146.704,148.292
			c6.946,13.363,15.64,25.834,21.445,39.756c-1.141,0.148-2.28,0.311-3.421,0.487c-2.589-5.466-5.866-10.731-8.6-16.078
			c-3.823-7.479-7.809-14.846-10.664-22.761C145.857,149.216,146.277,148.752,146.704,148.292z M144.034,151.603
			c2.44,6.457,5.56,12.595,8.743,18.725c3.167,6.1,6.984,12.234,9.94,18.531c-0.688,0.115-1.374,0.233-2.062,0.355
			c-5.722-11.896-11.841-23.596-18.084-35.227C143.008,153.173,143.501,152.378,144.034,151.603z M141.514,156.25
			c5.899,11.011,11.677,22.085,17.105,33.336c-0.665,0.124-1.329,0.25-1.993,0.38c-5.945-10.326-11.894-20.74-15.707-32.069
			C141.091,157.34,141.296,156.794,141.514,156.25z M140.149,161.688c3.771,10.033,9.066,19.403,14.406,28.688
			c-0.592,0.119-1.184,0.238-1.775,0.359c-0.471-2.537-2.214-4.907-3.569-6.992c-1.607-2.474-3.399-4.846-4.961-7.354
			c0.025-0.65-0.121-1.291-0.483-1.809C140.769,170.282,139.737,165.886,140.149,161.688z M141.675,179.721
			c0.677-0.106,1.253-0.484,1.689-1.006c1.047,1.574,2.152,3.113,3.209,4.672c1.457,2.147,3.865,5.035,4.259,7.75
			c-0.733,0.152-1.468,0.307-2.202,0.461c-2.771-3.966-5.495-7.958-8.645-11.639C140.549,179.88,141.113,179.812,141.675,179.721z
			 M138.259,180.202c-0.114,0.318-0.099,0.686,0.18,1.008c2.947,3.422,5.495,7.135,8.072,10.834
			c-1.062,0.223-2.126,0.445-3.188,0.664c-3.223-3.785-5.865-8.001-8.693-12.082C135.84,180.494,137.051,180.354,138.259,180.202z
			 M130.458,181.074c0.645,0.151,1.35,0.132,2.021-0.056c2.856,4.064,5.495,8.287,8.633,12.142
			c-1.194,0.241-2.389,0.477-3.584,0.704c-0.038-0.108-0.092-0.216-0.174-0.318c-3.055-3.815-5.437-8.096-7.773-12.379
			C129.874,181.135,130.166,181.104,130.458,181.074z M123.758,181.817c1.222-0.152,2.445-0.291,3.669-0.424
			c2.427,4.436,4.882,8.854,7.975,12.864c-0.919,0.166-1.837,0.327-2.757,0.48c0.007-0.233-0.072-0.478-0.292-0.692
			C128.754,190.519,126.259,186.151,123.758,181.817z M130.57,195.069c-0.97,0.148-1.939,0.291-2.909,0.419
			c-3.143-4.265-6.53-8.349-9.253-12.9c1.065-0.181,2.134-0.341,3.202-0.49C124.258,186.659,126.852,191.288,130.57,195.069z
			 M128.408,174.37c-1.069,0.113-2.142,0.23-3.214,0.353c1.012-0.841,2.05-1.649,3.115-2.424
			C128.362,172.991,128.4,173.681,128.408,174.37z M128.067,170.024c-2.247,1.57-4.387,3.279-6.408,5.129
			c-1.742,0.224-3.482,0.469-5.214,0.758c3.708-2.828,7.133-6.076,11.245-8.254C127.839,168.445,127.96,169.235,128.067,170.024z
			 M126.131,161.264c-4.424,1.922-8.042,5.695-11.625,9.147c0.025-0.846,0.053-1.69,0.06-2.552c1.628-1.389,3.272-2.758,4.931-4.107
			c1.691-1.375,3.404-2.725,5.161-4.016c0.274-0.201,0.559-0.388,0.838-0.58C125.714,159.853,125.924,160.556,126.131,161.264z
			 M124.778,156.924c-1.698,1.064-3.387,2.783-4.433,3.604c-1.951,1.529-3.876,3.102-5.777,4.699
			c-0.006-0.704-0.01-1.408-0.02-2.119c3.157-2.816,6.148-5.822,9.48-8.424C124.278,155.42,124.528,156.168,124.778,156.924z
			 M122.719,150.965c0.212,0.579,0.409,1.162,0.614,1.743c-3.115,2.381-5.929,5.113-8.823,7.756
			c-0.011-0.766-0.021-1.533-0.027-2.302c2.713-2.369,4.946-5.308,7.902-7.36C122.489,150.876,122.6,150.93,122.719,150.965z
			 M116.917,137.348c0.281,0.553,0.549,1.109,0.817,1.668c-0.591,0.412-1.157,0.855-1.713,1.316
			C116.279,139.321,116.567,138.321,116.917,137.348z M115.355,143.444c1.077-0.871,2.113-1.794,3.237-2.596
			c0.15,0.328,0.305,0.655,0.452,0.986c-1.311,1.096-2.628,2.186-3.951,3.269C115.17,144.546,115.26,143.994,115.355,143.444z
			 M114.781,147.913c1.717-1.363,3.404-2.763,5.086-4.17c0.233,0.549,0.48,1.092,0.707,1.644c-1.948,1.895-3.97,3.712-5.994,5.526
			C114.626,149.907,114.694,148.907,114.781,147.913z M114.491,153.682c2.307-2.08,4.633-4.141,6.878-6.287
			c0.177,0.45,0.342,0.905,0.514,1.357c-2.828,1.797-5.009,4.37-7.405,6.701C114.48,154.863,114.48,154.272,114.491,153.682z
			 M114.246,174.846c0.051-0.508,0.071-1.039,0.107-1.558c3.846-3.58,7.62-7.948,12.321-10.071c0.216,0.811,0.416,1.625,0.602,2.443
			c-4.82,2.486-8.68,6.33-13.088,9.459C114.206,175.026,114.236,174.944,114.246,174.846z M115.232,183.176
			c0.358-0.076,0.72-0.131,1.079-0.201c2.627,4.543,5.951,8.597,9.083,12.791c-0.761,0.087-1.521,0.166-2.282,0.236
			c-3.228-4.033-5.926-8.464-9.061-12.572C114.444,183.346,114.848,183.257,115.232,183.176z M111.902,183.916
			c3.133,3.961,5.792,8.269,8.851,12.281c-0.68,0.047-1.358,0.092-2.039,0.124c-3.032-3.905-6.05-7.819-8.954-11.821
			c-0.01-0.015-0.022-0.025-0.033-0.038C110.449,184.257,111.176,184.086,111.902,183.916z M107.854,185.057
			c0.015,0.145,0.067,0.297,0.179,0.451c2.675,3.686,5.449,7.296,8.238,10.896c-0.728,0.015-1.455,0.024-2.183,0.019
			c-2.439-3.656-4.665-7.455-7.271-11C107.155,185.286,107.508,185.178,107.854,185.057z M104.986,186.288
			c2.398,3.242,4.469,6.703,6.671,10.078c-0.473-0.019-0.944-0.029-1.417-0.057c-1.979-3.219-3.908-6.467-6.117-9.537
			C104.401,186.598,104.695,186.445,104.986,186.288z M102.569,188.032c1.628,2.287,3.112,4.664,4.573,7.059
			c-0.143-0.089-0.287-0.175-0.43-0.264c-0.162-0.508-0.475-1.004-0.991-1.456C104.159,192.004,101.335,189.864,102.569,188.032z
			 M15.399,315.68c1.705-0.827,3.434-1.605,5.179-2.35c1.489,7.636,2.79,15.307,4.297,22.938c0.874,4.426,7.621,2.547,6.75-1.861
			c-1.557-7.882-2.889-15.806-4.44-23.689c2.348-0.864,4.72-1.679,7.108-2.461c1.016,9.39,1.263,18.946,4.082,28.013
			c1.336,4.296,8.094,2.461,6.75-1.861c-2.836-9.119-3.071-18.804-4.11-28.27c2.078-0.634,4.164-1.255,6.25-1.875
			c0.03,0.167,0.053,0.331,0.109,0.507c3.028,9.355,5.075,18.92,9.353,27.835c1.952,4.067,7.987,0.516,6.044-3.533
			c-4.001-8.34-5.813-17.407-8.646-26.163c-0.072-0.225-0.168-0.424-0.269-0.615c14.531-4.389,28.839-9.262,41.109-18.36
			c1.937-1.436,3.6-2.988,5.059-4.631c0.472,8.647,1.398,17.275,1.612,25.938c0.24,9.738,0.016,21.729-7.646,28.853
			c-4.105,3.817-10.796,5.445-16.052,6.834c-7.217,1.908-14.698,2.786-22.084,3.747c-12.434,1.615-24.875,3.387-36.361,8.479
			C19.154,340.565,18.259,328.035,15.399,315.68z M22.358,412.267c-0.123-0.757-0.289-2.675-0.478-5.349
			c1.056,1.643,1.984,3.356,2.917,5.067C23.985,412.082,23.171,412.167,22.358,412.267z M81.248,416.335
			c-0.017-0.345-0.084-0.653-0.175-0.946c1.74-0.021,3.479-0.042,5.219-0.05c-1.646,0.73-3.298,1.451-4.95,2.172
			C81.307,417.12,81.266,416.733,81.248,416.335z M81.59,419.57c6.027-2.622,12.031-5.281,17.905-8.223
			c0.055,0.209,0.096,0.424,0.157,0.63c-5.629,4.03-11.221,8.114-17.076,11.813C82.145,422.446,81.821,421.035,81.59,419.57z
			 M113.396,383.167c-0.332,0.071-0.664,0.144-0.985,0.23c-0.607-6.971-2.379-14.249-5.645-20.31c1.271-0.463,2.6-0.827,3.978-1.103
			C111.302,369.105,111.796,376.208,113.396,383.167z M112.718,361.664c0.796-0.105,1.604-0.19,2.428-0.241v20.438
			C113.708,375.217,113.254,368.444,112.718,361.664z M110.251,382.087c-2.558-5.465-4.354-11.271-7.407-16.506
			c-0.118-0.203-0.277-0.315-0.447-0.39c0.799-0.483,1.617-0.938,2.477-1.33C107.827,369.27,109.542,375.78,110.251,382.087z
			 M108.385,382.796c-3.976-4.232-7.42-8.94-11.02-13.521c1.1-1.192,2.313-2.244,3.62-3.17c0.002,0.155,0.032,0.318,0.131,0.486
			C104.113,371.728,105.901,377.418,108.385,382.796z M105.136,382.178c-3.714-2.743-7.393-5.538-11.1-8.294
			c0.614-1.087,1.286-2.11,2.021-3.062C99.053,374.641,101.95,378.54,105.136,382.178z M106.22,385.452
			c-4.55-2.871-9.112-5.722-13.571-8.734c0.147-0.354,0.312-0.693,0.471-1.037C97.491,378.932,101.816,382.247,106.22,385.452z
			 M105.359,387.271c-0.44,0.407-0.848,0.849-1.247,1.297c-4.142-2.854-8.444-5.459-12.747-8.07c0.11-0.391,0.21-0.784,0.33-1.172
			c0.072-0.236,0.162-0.455,0.24-0.688C96.349,381.611,100.86,384.432,105.359,387.271z M102.869,390.133
			c-0.116,0.162-0.25,0.311-0.361,0.478c-3.934-2.328-7.886-4.617-12.02-6.582c0.106-0.506,0.23-1.008,0.351-1.511
			C94.898,384.981,98.954,387.448,102.869,390.133z M101.458,392.312c-3.589-1.495-7.18-2.98-10.879-4.19
			c-0.324-0.105-0.595-0.044-0.802,0.104c0.096-0.729,0.196-1.454,0.321-2.178C93.994,387.94,97.734,390.109,101.458,392.312z
			 M90.048,390.049c3.393,1.109,6.693,2.452,9.984,3.819c-3.508-0.937-7.047-1.759-10.594-2.574c0.045-0.52,0.106-1.036,0.162-1.555
			C89.711,389.87,89.848,389.984,90.048,390.049z M96.006,394.907c-2.252-0.149-4.507-0.235-6.769-0.213
			c0.019-0.461,0.033-0.922,0.059-1.382C91.54,393.828,93.775,394.357,96.006,394.907z M99.561,397.195
			c-0.169,0.605-0.323,1.217-0.447,1.837c-3.312-0.16-6.622-0.504-9.948-0.777c-0.004-0.521,0.009-1.04,0.017-1.56
			C92.653,396.659,96.107,396.878,99.561,397.195z M89.915,409.241c-0.129-1.041-0.237-2.089-0.336-3.138
			c3.024-0.01,6.027-0.336,9.034-0.622c0.031,0.845,0.088,1.688,0.199,2.522C95.878,408.641,92.926,409.109,89.915,409.241z
			 M96.856,410.434c-2.434,1.191-4.89,2.335-7.358,3.455c0.485-0.741,0.712-1.685,0.642-2.655
			C92.405,411.128,94.638,410.839,96.856,410.434z M89.41,404.102c-0.094-1.279-0.168-2.562-0.209-3.844
			c3.207,0.264,6.399,0.594,9.592,0.76c-0.1,0.815-0.152,1.64-0.182,2.464C95.549,403.773,92.491,404.104,89.41,404.102z
			 M83.287,425.71c5.851-3.678,11.431-7.747,17.045-11.77c0.053,0.134,0.119,0.26,0.174,0.393
			c-5.213,4.816-10.445,9.611-15.842,14.224C84.161,427.638,83.688,426.697,83.287,425.71z M85.693,430.303
			c5.353-4.559,10.539-9.304,15.702-14.073c0.224,0.426,0.446,0.854,0.699,1.259c-4.575,5.455-9.07,10.979-13.526,16.533
			C87.507,432.866,86.549,431.623,85.693,430.303z M89.972,435.447c4.384-5.464,8.805-10.896,13.302-16.267
			c0.123,0.156,0.266,0.297,0.393,0.448c-3.764,5.997-7.489,12.013-10.716,18.32C91.908,437.169,90.908,436.339,89.972,435.447z
			 M94.602,439.108c3.153-6.184,6.789-12.085,10.474-17.96c0.396,0.381,0.791,0.76,1.226,1.101
			c-3.173,6.07-6.317,12.155-9.396,18.273C96.113,440.081,95.35,439.604,94.602,439.108z M98.673,441.449
			c3.044-6.046,6.15-12.06,9.285-18.058c0.078,0.048,0.163,0.088,0.242,0.135c-2.44,6.346-4.566,12.776-5.958,19.452
			C101.025,442.516,99.827,442.017,98.673,441.449z M104.141,443.656c1.363-6.596,3.445-12.953,5.844-19.223
			c0.162,0.07,0.316,0.15,0.482,0.218c-1.595,6.626-2.54,13.366-2.005,20.208C106.996,444.532,105.555,444.121,104.141,443.656z
			 M110.502,445.265c-0.585-6.776,0.315-13.438,1.878-19.992c0.68,0.184,1.391,0.322,2.12,0.434
			c-0.602,6.625-1.548,13.214-2.305,19.826C111.629,445.451,111.064,445.364,110.502,445.265z M118.151,446.019
			c-1.329-0.025-2.659-0.109-3.983-0.244c0.753-6.624,1.704-13.224,2.314-19.857c0.523,0.027,1.058,0.038,1.605,0.025
			C118.347,432.626,118.179,439.333,118.151,446.019z M118.753,382.31c-0.53,0.079-1.064,0.176-1.606,0.305v-21.273
			c0.977-0.001,1.909,0.067,2.823,0.165C119.921,368.465,119.65,375.41,118.753,382.31z M120.151,446.016
			c0.026-6.731,0.175-13.471-0.092-20.188c0.385-0.043,0.757-0.113,1.132-0.177c0.559,6.746,2.014,13.401,2.376,20.157
			C122.433,445.912,121.296,445.99,120.151,446.016z M170.723,381.831c-1.351,0.265-2.707,0.515-4.069,0.738
			c3.054-4.225,6.239-8.458,10.452-11.27c0.15,1.041,0.217,2.094,0.244,3.146C174.845,376.625,172.653,379.12,170.723,381.831z
			 M177.279,377.21c-0.084,1.093-0.212,2.183-0.435,3.254c-1.05,0.27-2.109,0.516-3.173,0.752
			C174.785,379.799,175.985,378.458,177.279,377.21z M163.92,382.998c-1.235,0.176-2.474,0.34-3.714,0.48
			c3.358-4.162,6.737-8.294,10.818-11.791c0.948-0.16,1.899-0.304,2.85-0.456C169.993,374.474,166.951,378.84,163.92,382.998z
			 M157.418,383.763c-1.501,0.139-3.003,0.258-4.501,0.344c3.622-3.509,6.845-7.402,10.328-11.05
			c1.368-0.25,2.738-0.488,4.108-0.731C163.727,375.847,160.609,379.833,157.418,383.763z M149.856,384.272
			c-0.152-0.273-0.325-1.402-0.391-1.594c1.206-1.512,2.361-3.062,3.531-4.604c0.757-0.996,1.524-1.983,2.325-2.944
			c0.217-0.261,0.447-0.512,0.677-0.762c1.316-0.234,2.632-0.475,3.947-0.715C156.832,377.057,153.25,381.14,149.856,384.272z
			 M148.634,380.385c-0.224-0.584-0.447-1.168-0.681-1.744c0.989-1.122,1.965-2.256,2.945-3.387c0.621-0.103,1.24-0.217,1.861-0.323
			C151.234,376.726,149.688,378.895,148.634,380.385z M148.991,414.419c-3.616-1.438-7.274-2.762-11.011-3.838
			c0.293-0.902,0.553-1.82,0.747-2.763c3.177,0.699,6.386,1.2,9.607,1.667C148.571,411.205,148.786,412.856,148.991,414.419z
			 M148.049,407.437c-3.017-0.444-6.021-0.933-8.997-1.595c0.111-0.874,0.178-1.759,0.203-2.647c2.782-0.061,5.554,0.23,8.279,0.813
			C147.716,405.169,147.887,406.314,148.049,407.437z M147.089,376.595c-0.103-0.229-0.19-0.469-0.295-0.695
			c0.348-0.053,0.694-0.109,1.042-0.162C147.588,376.024,147.338,376.31,147.089,376.595z M146.987,400.698
			c0.07,0.399,0.13,0.789,0.196,1.187c-2.619-0.512-5.285-0.751-7.95-0.688c-0.005-0.104-0.005-0.206-0.012-0.309
			C141.8,400.688,144.391,400.67,146.987,400.698z M139.023,398.909c-0.146-1.02-0.361-2.009-0.629-2.969
			c2.392-0.762,4.792-1.472,7.248-1.957c0.353,1.576,0.684,3.152,0.978,4.72C144.08,398.685,141.547,398.715,139.023,398.909z
			 M137.775,394.049c-0.041-0.108-0.076-0.223-0.119-0.33c1.823-1.736,4.608-3.938,6.671-5.434c0.196,0.838,0.341,1.461,0.573,2.551
			c0.104,0.406,0.189,0.815,0.289,1.225C142.678,392.564,140.224,393.278,137.775,394.049z M136.779,391.809
			c-0.341-0.661-0.713-1.298-1.113-1.908c2.332-2.03,4.878-3.836,7.164-5.899c0.267,0.756,0.531,1.514,0.773,2.285
			C141.174,387.899,138.904,389.826,136.779,391.809z M134.484,388.302c-0.021-0.026-0.039-0.058-0.061-0.082
			c2.387-2.575,4.705-5.213,7.024-7.85c0.228,0.542,0.434,1.103,0.648,1.656C139.75,384.296,136.993,386.176,134.484,388.302z
			 M133.05,386.762c-0.689-0.662-1.428-1.262-2.209-1.798c2.306-3.564,5.276-6.62,8.016-9.859c0.598,1.055,1.172,2.135,1.699,3.261
			C138.077,381.185,135.602,384.007,133.05,386.762z M129.123,383.945c-0.195-0.103-0.386-0.212-0.586-0.307
			c2.29-4.545,4.69-9.033,6.856-13.637c0.855,1.028,1.639,2.144,2.382,3.303C134.867,376.841,131.613,380.093,129.123,383.945z
			 M126.673,382.906c-0.068-0.022-0.14-0.04-0.209-0.062c2.524-4.99,4.75-10.147,6.383-15.493c0.374,0.344,0.749,0.688,1.105,1.057
			C131.686,373.315,129.108,378.076,126.673,382.906z M124.474,382.354c-0.565-0.104-1.14-0.185-1.729-0.226
			c1.92-6.087,3.955-12.232,4.658-18.541c1.347,0.653,2.595,1.449,3.768,2.349C129.508,371.622,127.167,377.08,124.474,382.354z
			 M120.841,381.545c0.791-6.551,1.069-13.138,1.124-19.741c1.227,0.237,2.402,0.553,3.514,0.964
			C124.874,369.148,122.797,375.387,120.841,381.545z M125.553,445.592c-0.39-6.825-1.874-13.543-2.399-20.362
			c0.142-0.038,0.29-0.064,0.431-0.105c2.634,6.397,4.877,12.961,7.526,19.356C129.304,444.971,127.443,445.337,125.553,445.592z
			 M133.026,443.919c-2.683-6.419-4.938-13.01-7.568-19.443c0.631-0.253,1.239-0.541,1.834-0.85c3.191,6.146,7,11.962,9.825,18.3
			c0.058,0.131,0.136,0.226,0.219,0.305C135.951,442.874,134.509,443.438,133.026,443.919z M138.923,441.429
			c0.013-0.164-0.001-0.335-0.08-0.515c-2.823-6.335-6.631-12.148-9.822-18.294c0.27-0.176,0.538-0.353,0.798-0.541
			c3.645,6.101,7.712,11.942,11.436,18.002C140.504,440.563,139.721,441.006,138.923,441.429z M142.904,438.945
			c-3.755-6.098-7.85-11.98-11.508-18.131c0.504-0.446,0.984-0.918,1.444-1.409c1.985,2.69,3.896,5.438,5.947,8.079
			c2.235,2.88,4.638,6.305,7.929,8.076C145.554,436.797,144.281,437.929,142.904,438.945z M148.021,434.056
			c-0.063-0.059-0.115-0.12-0.203-0.166c-3.616-1.902-6.296-6.06-8.682-9.229c-1.69-2.245-3.31-4.544-4.98-6.804
			c0.019-0.023,0.039-0.044,0.058-0.067c5.509,4.014,10.798,8.373,16.763,11.672C150.153,431.123,149.154,432.648,148.021,434.056z
			 M151.798,427.635c-5.842-3.262-11.04-7.531-16.444-11.478c0.126-0.198,0.233-0.41,0.354-0.612
			c5.345,3.854,10.664,7.841,16.576,10.729C152.13,426.732,151.975,427.191,151.798,427.635z M152.852,424.351
			c-5.768-2.847-10.972-6.796-16.186-10.566c0.214-0.436,0.433-0.87,0.62-1.321c4.087,1.168,8.081,2.63,12.026,4.224
			c0.343,1.729,1.466,3.157,3.432,3.148c0.294-0.001,0.588-0.013,0.882-0.016C153.487,421.405,153.217,422.91,152.852,424.351z
			 M212.243,407.143c-0.472,0.084-0.945,0.157-1.418,0.237c-0.999-1.505-1.984-3.019-2.815-4.633
			c-0.59-1.146-2.315-0.135-1.727,1.011c0.712,1.383,1.537,2.69,2.388,3.984c-0.39,0.063-0.777,0.134-1.167,0.196
			c-1.222-2.078-2.467-4.136-4.15-5.895c-0.894-0.933-2.306,0.483-1.414,1.414c1.379,1.439,2.441,3.105,3.45,4.811
			c-0.679,0.104-1.356,0.215-2.036,0.316c-1.271-2.118-2.486-4.271-3.844-6.339c-0.704-1.072-2.437-0.071-1.727,1.01
			c1.209,1.841,2.306,3.748,3.428,5.642c-1.218,0.177-2.434,0.365-3.653,0.531c-0.886-1.54-1.745-3.095-2.548-4.683
			c-0.581-1.15-2.307-0.139-1.727,1.01c0.676,1.338,1.391,2.65,2.128,3.951c-1.048,0.138-2.096,0.276-3.145,0.404
			c-1.302-1.911-2.52-3.862-3.155-6.126c-0.349-1.24-2.278-0.713-1.929,0.531c0.604,2.153,1.688,4.032,2.886,5.854
			c-0.783,0.092-1.565,0.191-2.35,0.278c-0.984-1.778-2.085-3.482-3.365-5.105c-0.798-1.013-2.203,0.413-1.414,1.414
			c0.984,1.247,1.854,2.557,2.642,3.913c-1.392,0.146-2.781,0.304-4.175,0.435c-0.472-0.916-0.904-1.854-1.295-2.819
			c-0.478-1.18-2.413-0.665-1.929,0.531c0.343,0.846,0.714,1.672,1.104,2.485c-0.781,0.068-1.56,0.155-2.341,0.22
			c-0.807-1.328-1.632-2.646-2.437-3.977c-0.666-1.102-2.396-0.097-1.727,1.01c0.635,1.051,1.281,2.094,1.923,3.139
			c-1.346,0.1-2.691,0.199-4.038,0.282c-0.616-1.009-1.154-2.062-1.557-3.19c-0.43-1.206-2.362-0.688-1.929,0.531
			c0.348,0.979,0.787,1.898,1.278,2.787c-0.626,0.034-1.251,0.077-1.877,0.108c-1.1-2.018-2.15-4.059-3.074-6.167
			c-0.516-1.179-2.238-0.16-1.727,1.01c0.784,1.79,1.657,3.534,2.575,5.255c-0.922,0.039-1.844,0.09-2.767,0.12
			c-0.878-1.665-1.897-3.284-3.68-3.844c-1.233-0.388-1.757,1.543-0.531,1.929c0.861,0.271,1.448,1.178,1.917,1.976
			c-1.177,0.03-2.354,0.075-3.53,0.092c-0.916-6.753-2.033-14.281-3.83-21.629c7.425-0.406,14.872-1.484,22.13-2.88
			c4.938-0.95,8.509-1.137,9.676-6.48c1.121-5.138,0.836-10.854-0.625-15.889c-0.393-1.351-1.844-2.771-3.375-2.569
			c-12.07,1.586-23.932,4.415-35.999,6c-0.165,0.021-0.312,0.069-0.465,0.108c-5.662-8.771-13.969-14.876-26.534-15.107
			c-14.187-0.261-25.347,7.42-30.772,20.29c-4.39,10.413-4.391,22.52-3.148,33.744c-0.394,0.004-0.786,0.017-1.18,0.021
			c-1.398-2.202-2.825-4.388-4.135-6.646c-0.126-0.217-0.298-0.334-0.48-0.403c-0.131-0.33-0.42-0.592-0.883-0.592
			c-1.14,0-1.268,1.56-0.392,1.921c0.014,0.028,0.012,0.057,0.028,0.085c1.117,1.927,2.321,3.799,3.52,5.676
			c-0.851,0.016-1.702,0.022-2.552,0.044c-1.603-2.493-3.002-5.13-4.897-7.433c-0.82-0.995-2.227,0.428-1.414,1.414
			c1.559,1.893,2.777,4.004,4.05,6.08c-0.826,0.023-1.652,0.042-2.479,0.068c-1.013-1.779-1.989-3.58-3.001-5.36
			c-0.636-1.121-2.364-0.112-1.727,1.011c0.835,1.47,1.645,2.953,2.47,4.429c-1.116,0.041-2.234,0.068-3.351,0.116
			c-1.53-2.354-3.219-4.603-5.049-6.758c-0.836-0.983-2.243,0.438-1.414,1.414c1.487,1.752,2.876,3.562,4.155,5.446
			c-0.551,0.025-1.102,0.046-1.652,0.073c-1.412-2.524-2.77-5.077-3.933-7.731c-0.516-1.179-2.238-0.16-1.727,1.011
			c1.025,2.342,2.208,4.603,3.441,6.837c-0.857,0.045-1.715,0.084-2.572,0.133c-0.889-2.07-1.908-4.081-3.143-5.979
			c-0.699-1.077-2.432-0.074-1.727,1.011c1.059,1.629,1.956,3.336,2.748,5.094c-0.746,0.045-1.493,0.082-2.24,0.13
			c-1.298-2.224-2.724-4.376-3.781-6.733c-0.526-1.175-2.249-0.156-1.727,1.011c0.92,2.053,2.122,3.947,3.273,5.872
			c-1.085,0.073-2.172,0.136-3.257,0.216c-1.396-2.159-2.814-4.3-4.446-6.3c-0.815-1-2.222,0.424-1.414,1.414
			c1.312,1.605,2.473,3.315,3.601,5.051c-0.721,0.057-1.442,0.099-2.162,0.158c-0.805-1.633-1.561-3.289-2.368-4.922
			c-0.572-1.154-2.297-0.142-1.727,1.011c0.671,1.354,1.302,2.73,1.957,4.094c-0.787,0.068-1.574,0.131-2.361,0.202
			c-1.04-1.546-1.92-3.209-2.869-4.807c-0.657-1.106-2.387-0.102-1.727,1.011c0.789,1.327,1.537,2.688,2.357,4.001
			c-0.478,0.046-0.956,0.085-1.434,0.132c-1.317-2.165-2.554-4.379-3.697-6.644c-0.581-1.15-2.307-0.139-1.727,1.011
			c1.005,1.988,2.085,3.938,3.225,5.853c-0.719,0.072-1.438,0.138-2.155,0.214c-1.277-2.525-2.698-4.98-3.843-7.576
			c-0.519-1.178-2.242-0.158-1.727,1.011c1.025,2.324,2.27,4.54,3.438,6.794c-0.591,0.063-1.183,0.121-1.773,0.188
			c-1.112-2.017-2.181-4.059-3.438-5.992c-0.452-0.695-1.334-0.521-1.711-0.018c-0.838-12.356-2.059-37.675-2.156-44.932
			c13.891-7.112,29.806-8.188,45.011-10.302c11.855-1.646,26.934-3.793,35.697-12.839c7.423-7.662,8.267-19.798,8.313-29.852
			c0.057-12.352-1.846-24.619-1.917-36.965c-0.005-0.771-0.224-1.4-0.565-1.908c2.16-5.834,2.923-12.32,3.124-19.156
			c0.462-15.648-2.312-31.154-2.54-46.771c13.597,1.229,27.084-1.312,40.457-4.077c16.038-3.317,32.739-7.231,48.942-2.87
			c5.85,64.48,15.649,128.842,16.165,193.661c-0.065,0.384-0.062,0.783,0.008,1.187
			C212.373,396.315,212.347,401.728,212.243,407.143z M221.523,399.391c-0.716-0.596-1.433-1.188-2.178-1.743
			c0.004-0.907,0.007-1.814,0.009-2.722c1.414,1.265,2.873,2.479,4.323,3.7C222.958,398.873,222.237,399.118,221.523,399.391z
			 M225.915,397.913c-1.675-1.426-3.371-2.825-5.014-4.286c0.803-0.106,1.61-0.21,2.42-0.309c1.571,1.357,3.166,2.686,4.791,3.978
			C227.376,397.49,226.644,397.693,225.915,397.913z M230.565,396.693c-1.54-1.192-3.049-2.422-4.534-3.681
			c1.1-0.114,2.204-0.206,3.31-0.287c1.461,1.137,2.963,2.221,4.446,3.328C232.709,396.246,231.633,396.452,230.565,396.693z
			 M236.494,395.636c-1.351-1.046-2.725-2.059-4.094-3.077c1.219-0.044,2.435-0.056,3.647-0.032c1.204,0.912,2.4,1.832,3.611,2.731
			C238.6,395.366,237.545,395.488,236.494,395.636z M242.738,395c-1.083-0.734-2.141-1.505-3.182-2.297
			c0.937,0.078,1.868,0.185,2.794,0.317c0.715,0.608,1.406,1.247,2.084,1.896C243.869,394.943,243.301,394.964,242.738,395z
			 M243.572,255.545C243.621,255.543,243.669,255.542,243.572,255.545l-0.58-114.773c5.699-0.7,11.443-0.145,17.172,0.246
			c6.775,0.462,13.557,0.253,20.333-0.094c13.769-0.704,27.47-2.445,41.182-3.813c28.533-2.849,57.018-1.898,85.621-0.818
			c50.951,1.924,101.772-0.266,152.691-1.774V271.8c0,0.393,0.068,0.738,0.165,1.062c-0.035,3.49-0.067,6.982-0.112,10.465
			c-2.196-1.932-5.657-1.41-8.44-1.234c-6.146,0.389-12.272,1.174-18.38,1.932c-17.214,2.135-34.379,4.665-51.543,7.159
			c-45.967,6.681-92.057,11.069-138.371,14.634c-32.343,2.488-64.689,5.065-96.865,9.247
			C245.496,295.772,244.625,275.607,243.572,255.545z M499.064,297.176c3.555,5.414,6.702,11.062,9.862,16.707
			c-1.262,0.052-2.518,0.103-3.768,0.153c-3.553-5.864-6.521-12.077-10.396-17.751c3.847-0.554,7.693-1.102,11.542-1.646
			c3.579,6.229,6.764,12.677,10.329,18.908c-1.827,0.089-3.651,0.169-5.469,0.243c-3.335-5.949-6.629-11.917-10.377-17.626
			C500.087,295.093,498.354,296.094,499.064,297.176z M311.358,336.371c-7.535-5.221-12.956-12.689-19.234-19.248
			c1.542-0.144,3.084-0.279,4.625-0.419c6.729,6.789,13.319,13.709,20.471,20.057c-1.811,0.196-3.618,0.399-5.429,0.594
			C311.839,337.002,311.726,336.625,311.358,336.371z M261.732,322.239c5.038,6.224,9.709,12.714,15.023,18.688
			c-1.677,0.157-3.353,0.326-5.029,0.48c-5.384-6.514-10.018-13.594-14.696-20.631c4.122-0.492,8.246-0.956,12.372-1.403
			c0.01,0.016,0.015,0.03,0.025,0.046c4.839,7.204,10.021,14.139,15.7,20.691c-1.968,0.19-3.936,0.395-5.904,0.581
			c-5.76-6.292-10.709-13.237-16.077-19.868C262.335,319.822,260.928,321.247,261.732,322.239z M269.351,341.631
			c-0.868,0.079-1.735,0.166-2.604,0.244c-5.597-6.365-10.058-13.583-14.989-20.47c1.043-0.13,2.086-0.245,3.129-0.372
			c0.024,0.114,0.069,0.23,0.147,0.35C259.616,328.27,264.159,335.195,269.351,341.631z M271.65,319.138
			c1.493-0.158,2.986-0.307,4.479-0.461c5.488,6.99,10.988,13.964,16.841,20.647c-1.799,0.181-3.597,0.37-5.396,0.547
			C281.799,333.322,276.545,326.371,271.65,319.138z M278.465,318.438c1.622-0.165,3.246-0.319,4.869-0.479
			c5.105,7.216,10.61,14.146,16.591,20.649c-1.506,0.154-3.01,0.316-4.515,0.47C289.503,332.413,283.968,325.442,278.465,318.438z
			 M285.621,317.734c1.348-0.131,2.695-0.253,4.044-0.381c0.047,0.104,0.104,0.21,0.199,0.307
			c6.578,6.692,12.139,14.386,19.798,19.92c-2.42,0.257-4.839,0.521-7.259,0.771C296.343,331.873,290.778,324.955,285.621,317.734z
			 M299.331,316.469c1.841-0.164,3.684-0.321,5.524-0.481c5.787,7.36,12.813,13.517,19.57,19.966
			c-1.508,0.168-3.013,0.349-4.52,0.514C312.678,330.183,306.054,323.281,299.331,316.469z M307.214,315.781
			c2.395-0.205,4.786-0.406,7.182-0.605c5.819,6.745,11.729,13.432,17.882,19.876c-1.76,0.2-3.52,0.412-5.279,0.609
			C320.263,329.162,313.115,323.061,307.214,315.781z M316.854,314.972c2.118-0.175,4.235-0.341,6.354-0.512
			c5.951,6.395,12.271,12.704,17.72,19.581c-2.052,0.238-4.103,0.487-6.153,0.722C328.6,328.357,322.676,321.703,316.854,314.972z
			 M325.748,314.256c2.273-0.183,4.547-0.358,6.821-0.539c5.101,6.675,10.263,13.469,16.239,19.393
			c-1.854,0.219-3.707,0.444-5.562,0.662C337.915,326.893,331.696,320.597,325.748,314.256z M334.928,313.53
			c1.874-0.147,3.747-0.293,5.621-0.44c5.315,6.544,10.51,13.396,16.831,18.986c-2.013,0.242-4.023,0.49-6.037,0.729
			C345.255,326.991,340.041,320.216,334.928,313.53z M342.951,312.902c2.456-0.192,4.911-0.384,7.367-0.576
			c5.234,6.194,10.442,12.409,15.541,18.715c-1.94,0.237-3.879,0.479-5.819,0.714C353.52,326.376,348.255,319.501,342.951,312.902z
			 M352.764,312.134c1.684-0.132,3.366-0.266,5.051-0.397c6.188,6.062,12.96,11.51,18.766,17.964
			c-2.802,0.35-5.601,0.713-8.401,1.057C363.125,324.479,357.962,318.293,352.764,312.134z M360.481,311.525
			c2.874-0.229,5.749-0.458,8.623-0.69c5.123,5.964,9.881,12.314,15.455,17.854c-1.858,0.234-3.718,0.477-5.575,0.71
			c-0.018-0.022-0.021-0.046-0.038-0.067C373.325,322.842,366.666,317.436,360.481,311.525z M371.554,310.635
			c1.054-0.086,2.107-0.175,3.161-0.262c5.3,5.688,10.031,11.879,15.259,17.623c-0.956,0.122-1.913,0.247-2.869,0.368
			C381.42,322.946,376.626,316.641,371.554,310.635z M377.261,310.164c2.28-0.188,4.561-0.393,6.841-0.588
			c4.388,5.735,8.217,11.872,12.678,17.545c-1.456,0.188-2.912,0.378-4.368,0.563C387.146,322.041,382.448,315.883,377.261,310.164z
			 M386.446,309.375c2.191-0.188,4.382-0.391,6.573-0.587c0.021,0.056,0.023,0.109,0.059,0.165
			c3.592,5.963,7.338,11.874,11.96,17.087c-1.986,0.259-3.974,0.528-5.962,0.785C394.547,321.247,390.737,315.135,386.446,309.375z
			 M395.2,308.593c1.783-0.161,3.565-0.331,5.348-0.497c3.455,5.804,7.24,11.397,10.844,17.106c-1.309,0.17-2.615,0.346-3.925,0.517
			C402.668,320.552,398.842,314.616,395.2,308.593z M402.76,307.891c2.068-0.193,4.139-0.396,6.207-0.6
			c3.752,5.448,6.617,11.469,10.459,16.848c-0.24,0.033-0.48,0.067-0.722,0.101c-1.711,0.231-3.424,0.452-5.136,0.677
			C409.999,319.22,406.23,313.65,402.76,307.891z M411.186,307.078c2.025-0.2,4.052-0.422,6.077-0.631
			c3.403,5.52,6.64,11.143,10.2,16.56c-1.938,0.279-3.875,0.556-5.812,0.824C417.687,318.573,414.805,312.584,411.186,307.078z
			 M419.474,306.217c1.027-0.106,2.056-0.223,3.083-0.332c3.688,5.627,8.532,10.404,12.157,16.062
			c-1.688,0.249-3.379,0.499-5.067,0.744C426.072,317.317,422.847,311.722,419.474,306.217z M424.793,305.645
			c2.019-0.219,4.034-0.44,6.052-0.667c3.569,5.254,6.812,10.722,10.316,16.019c-1.427,0.211-2.854,0.422-4.28,0.633
			C433.379,315.923,428.565,311.166,424.793,305.645z M433.078,304.721c1.819-0.208,3.64-0.418,5.457-0.64
			c3.111,5.396,5.985,10.914,9.764,15.865c-1.652,0.241-3.305,0.481-4.955,0.727C439.831,315.416,436.602,309.972,433.078,304.721z
			 M440.688,303.808c1.549-0.191,3.096-0.398,4.644-0.598c3.623,5.017,6.349,10.6,9.733,15.764
			c-1.492,0.213-2.985,0.425-4.478,0.641C446.676,314.743,443.773,309.224,440.688,303.808z M447.57,302.923
			c1.864-0.241,3.727-0.496,5.59-0.745c3.394,5.058,5.776,10.716,9.119,15.801c-1.679,0.226-3.357,0.456-5.035,0.689
			C453.803,313.556,451.1,307.979,447.57,302.923z M455.376,301.882c2.133-0.288,4.264-0.584,6.395-0.879
			c3.507,5.069,6.476,10.449,9.446,15.839c-2.237,0.271-4.477,0.549-6.713,0.844C461.062,312.657,458.676,306.997,455.376,301.882z
			 M463.99,300.698c1.516-0.211,3.03-0.428,4.546-0.643c1.875,2.779,3.657,5.623,5.434,8.466c1.192,1.908,2.364,3.832,3.511,5.771
			c0.336,0.569,0.661,1.146,0.983,1.721c-1.701,0.185-3.402,0.373-5.104,0.573C470.386,311.196,467.448,305.797,463.99,300.698z
			 M477.575,310.562c-2.208-3.642-4.459-7.275-6.837-10.816c1.311-0.186,2.62-0.377,3.93-0.564
			c3.599,5.254,6.9,10.692,10.057,16.221c-1.291,0.122-2.581,0.231-3.871,0.364C479.992,313.773,478.09,311.412,477.575,310.562z
			 M476.859,298.867c0.803-0.115,1.605-0.231,2.409-0.348c-0.024,0.192,0.02,0.404,0.168,0.619
			c3.561,5.16,6.743,10.562,10.135,15.832c-0.889,0.074-1.777,0.146-2.665,0.226C483.752,309.634,480.448,304.16,476.859,298.867z
			 M481.234,298.236c1.345-0.193,2.688-0.389,4.033-0.582c0.04,0.13,0.108,0.258,0.214,0.379c4.306,4.979,7.303,10.824,10.65,16.448
			c-1.435,0.09-2.867,0.19-4.302,0.303C488.261,309.293,484.951,303.633,481.234,298.236z M487.472,297.336
			c1.699-0.245,3.4-0.489,5.103-0.733c3.907,5.562,6.85,11.7,10.304,17.533c-1.505,0.067-3.003,0.139-4.485,0.22
			C494.88,308.588,491.799,302.557,487.472,297.336z M508.435,294.343c2.002-0.28,4.005-0.552,6.007-0.828
			c3.826,6.306,6.656,13.229,10.471,19.533c-2.012,0.149-4.024,0.276-6.036,0.385C515.235,307.161,512.021,300.649,508.435,294.343z
			 M516.59,293.218c1.721-0.234,3.44-0.466,5.16-0.696c3.765,6.484,7.46,13.022,10.595,19.836c-1.725,0.194-3.454,0.366-5.188,0.514
			C523.223,306.583,520.369,299.613,516.59,293.218z M523.895,292.231c0.629-0.084,1.258-0.162,1.887-0.245
			c-0.044,0.27,0.019,0.558,0.263,0.812c5.249,5.453,9.006,11.939,12.05,18.789c-1.225,0.188-2.451,0.365-3.685,0.521
			C531.317,305.275,527.652,298.721,523.895,292.231z M527.766,291.728c1.515-0.197,3.028-0.4,4.545-0.592l0.356-0.044
			c3.417,6.475,6.461,13.126,9.49,19.786c-0.681,0.13-1.361,0.258-2.045,0.375C536.991,304.147,533.141,297.417,527.766,291.728z
			 M534.783,290.83c1.795-0.222,3.591-0.429,5.388-0.634c0.005,0.141,0.036,0.287,0.11,0.438c3.053,6.172,5.727,12.576,9.102,18.587
			c-1.724,0.466-3.465,0.885-5.223,1.254C541.155,303.868,538.145,297.265,534.783,290.83z M542.172,289.963
			c1.993-0.218,3.989-0.408,5.986-0.586c2.039,3.782,3.717,7.751,5.534,11.644c0.884,1.891,1.783,3.976,2.915,5.873
			c-1.722,0.648-3.468,1.238-5.238,1.765C547.935,302.627,545.232,296.185,542.172,289.963z M555.42,300.01
			c-1.711-3.604-3.27-7.282-5.114-10.821c1.487-0.115,2.978-0.211,4.47-0.239c0.232-0.005,0.425-0.003,0.601,0.001
			c-0.199,0.277-0.271,0.644-0.047,1.029c1.436,2.474,2.979,4.879,4.52,7.287c-0.042,2.789-0.082,5.596-0.123,8.368
			c-0.408,0.18-0.821,0.345-1.233,0.515C557.273,304.194,556.35,301.968,555.42,300.01z M557.104,289.049
			c1.016,0.145,2.062-0.124,2.873-0.675c-0.024,1.756-0.051,3.492-0.077,5.244C558.945,292.11,558.001,290.594,557.104,289.049z
			 M246.792,322.019c0.9-0.117,1.803-0.221,2.704-0.334c4.941,6.815,9.372,13.991,14.807,20.413c-0.911,0.08-1.822,0.172-2.734,0.25
			c-5.6-4.983-10.075-10.984-13.967-17.396c-0.175-0.288-0.423-0.426-0.681-0.461C246.878,323.665,246.834,322.849,246.792,322.019z
			 M247.099,327.922c3.375,5.323,7.193,10.34,11.767,14.665c-1.83,0.157-3.659,0.331-5.49,0.483
			c-1.85-2.356-3.859-4.585-5.824-6.853C247.397,333.479,247.249,330.71,247.099,327.922z M247.737,339.459
			c1.103,1.258,2.198,2.521,3.255,3.816c-1.006,0.083-2.011,0.178-3.016,0.259C247.896,342.186,247.816,340.822,247.737,339.459z
			 M304.204,408.178c-0.151,0.115-0.307,0.23-0.455,0.354c-2.239-2.387-4.68-4.569-7.191-6.676c1.082-0.556,2.219-1.037,3.377-1.468
			C301.436,402.947,302.698,405.634,304.204,408.178z M301.868,399.735c0.636-0.193,1.275-0.366,1.915-0.525
			c0.889,2.501,1.834,4.979,3.068,7.328c-0.346,0.168-0.687,0.347-1.02,0.541C304.42,404.689,303.246,402.149,301.868,399.735z
			 M302.292,409.897c-0.104,0.108-0.212,0.215-0.312,0.327c-3.26-1.706-6.125-4.053-9.269-5.961c0.646-0.499,1.343-0.96,2.061-1.4
			c0.055,0.098,0.119,0.194,0.225,0.282C297.544,405.276,300.02,407.483,302.292,409.897z M300.727,411.829
			c-0.213,0.319-0.417,0.646-0.603,0.978c-3.785-1.362-7.452-2.992-11.03-4.846c0.577-0.822,1.257-1.598,2.015-2.323
			C294.413,407.556,297.363,410.025,300.727,411.829z M299.295,414.628c-0.124,0.342-0.246,0.683-0.337,1.03
			c-3.92-1.18-7.878-2.229-11.806-3.382c0.193-0.906,0.506-1.771,0.912-2.6C291.708,411.566,295.441,413.23,299.295,414.628z
			 M298.637,417.648c-0.002,0.027-0.008,0.055-0.009,0.082c-0.059,0.174-0.104,0.346-0.15,0.519
			c-3.828-0.623-7.644-1.318-11.449-2.069c-0.092-0.645-0.123-1.271-0.109-1.887C290.819,415.432,294.747,416.473,298.637,417.648z
			 M287.063,418.352c3.531,0.687,7.53,1.281,11.081,1.855c-0.015,0.232-0.021,0.464-0.019,0.693
			c-3.189,0.087-8.12,0.312-11.302,0.104C286.805,419.894,287.068,419.416,287.063,418.352z M287.326,422.59
			c2.916,0.133,8.127,0.362,11.05,0.293c0.007,0.021,0.015,0.045,0.02,0.067c-0.52,0.302-1.036,0.605-1.554,0.91
			c-2.393,0.373-7.146,0.686-9.558,0.854C287.076,424.133,287.159,423.549,287.326,422.59z M287.827,426.825
			c1.439-0.049,2.871-0.174,4.301-0.327c-1.259,0.641-2.544,1.219-3.879,1.695C288.097,427.739,287.957,427.283,287.827,426.825z
			 M288.963,430.057c2.969-1.086,5.689-2.664,8.405-4.264c0.673-0.105,1.346-0.213,2.02-0.323c0.02,0.035,0.045,0.069,0.063,0.105
			c-3.244,2.017-6.459,4.083-9.769,5.992C289.429,431.073,289.188,430.569,288.963,430.057z M290.661,433.313
			c2.44-1.407,4.83-2.9,7.217-4.398c-1.869,2.276-3.706,4.578-5.457,6.947C291.781,435.059,291.205,434.199,290.661,433.313z
			 M293.746,437.416c2.364-3.232,4.898-6.332,7.465-9.406c0.327,0.366,0.667,0.728,1.028,1.069
			c-2.102,3.508-4.138,7.05-5.968,10.709C295.382,439.057,294.537,438.265,293.746,437.416z M297.894,441.015
			c1.754-3.528,3.701-6.946,5.717-10.327c0.219,0.258,0.439,0.515,0.673,0.756c0.018,0.018,0.036,0.031,0.053,0.048
			c-1.449,3.712-2.645,7.5-3.229,11.468C299.986,442.397,298.922,441.732,297.894,441.015z M308.144,445.305
			c-1.777-0.315-3.504-0.823-5.159-1.493c0.475-3.802,1.583-7.444,2.951-11.001c0.828,0.561,1.709,1.003,2.631,1.303
			C308.135,437.823,307.892,441.542,308.144,445.305z M308.713,405.779c-1.196-2.239-2.107-4.6-2.961-6.989
			c0.596-0.104,1.19-0.188,1.785-0.261c0.688,2.334,1.381,4.666,2.091,6.993C309.321,405.599,309.016,405.681,308.713,405.779z
			 M309.566,398.34c0.91-0.054,1.813-0.056,2.715-0.031c0.055,2.301,0.321,4.582,0.563,6.865c-0.408-0.012-0.817-0.006-1.227,0.026
			C310.922,402.917,310.24,400.629,309.566,398.34z M310.158,445.582c-0.271-3.709-0.049-7.368,0.362-11.021
			c0.706,0.091,1.419,0.119,2.132,0.076c0.43,3.687,0.784,7.379,1.444,11.031C312.771,445.745,311.456,445.708,310.158,445.582z
			 M324.375,415.827c-0.221-0.744-0.492-1.468-0.832-2.151c3.117-1.712,6.497-2.974,9.689-4.554c0.803,1.218,1.491,2.544,2.07,3.962
			C331.669,414.04,328.046,415.036,324.375,415.827z M335.986,414.972c0.186,0.59,0.361,1.188,0.506,1.81
			c0.242,1.037,0.409,2.063,0.521,3.077c-4.021-0.104-8.016-0.632-12.039-0.681c-0.011,0-0.017,0.005-0.025,0.005
			c-0.025-0.472-0.071-0.94-0.142-1.406C328.564,416.971,332.27,415.949,335.986,414.972z M322.546,412.006
			c-0.162-0.228-0.327-0.453-0.508-0.667c-0.089-0.168-0.199-0.315-0.294-0.479c2.068-2.466,4.187-4.886,6.486-7.134
			c1.408,1.091,2.685,2.353,3.813,3.767C328.897,409.052,325.616,410.332,322.546,412.006z M320.574,409.157
			c-0.21-0.261-0.407-0.535-0.634-0.773c1.139-2.375,2.359-4.708,3.592-7.036c0.075-0.143,0.113-0.281,0.123-0.415
			c1.011,0.475,1.98,1.019,2.911,1.619C324.451,404.643,322.49,406.878,320.574,409.157z M321.806,400.337
			c-1.172,2.215-2.333,4.433-3.423,6.686c-0.298-0.212-0.601-0.413-0.919-0.591c0.993-2.265,2.123-4.467,3.235-6.679
			c0.413,0.137,0.819,0.286,1.223,0.441C321.885,400.243,321.838,400.275,321.806,400.337z M315.633,405.657
			c-0.254-0.078-0.506-0.166-0.762-0.225c-0.244-2.334-0.521-4.664-0.585-7.015c1.522,0.141,3.014,0.405,4.466,0.771
			C317.676,401.329,316.596,403.467,315.633,405.657z M318.278,445.095c-0.729,0.161-1.459,0.288-2.188,0.387
			c-0.605-3.263-0.964-6.562-1.337-9.858c1.336,3.11,2.728,6.196,3.884,9.377C318.516,445.028,318.4,445.067,318.278,445.095z
			 M320.562,444.464c-1.271-3.499-2.837-6.876-4.285-10.31c-0.042-0.101-0.098-0.184-0.159-0.26
			c0.017-0.006,0.032-0.009,0.048-0.016c1.775,3.479,3.829,6.784,5.983,10.032C321.633,444.113,321.1,444.292,320.562,444.464z
			 M324.016,443.111c-2.122-3.189-4.144-6.438-5.908-9.843c2.341,3.058,4.365,6.34,6.559,9.505
			C324.449,442.886,324.237,443.005,324.016,443.111z M326.404,441.786c-2.295-3.295-4.41-6.713-6.855-9.898
			c0.144-0.117,0.291-0.225,0.43-0.35c2.838,2.978,5.914,5.705,9.085,8.33C328.231,440.563,327.34,441.2,326.404,441.786z
			 M330.537,438.505c-3.219-2.662-6.342-5.432-9.218-8.456c0.329-0.447,0.618-0.91,0.859-1.389c3.731,2.194,7.51,4.279,11.47,6.009
			C332.764,436.055,331.713,437.333,330.537,438.505z M334.654,432.936c-3.988-1.723-7.779-3.823-11.525-6.033
			c0.317-0.525,0.607-1.068,0.842-1.642c4.14,1.094,8.274,2.186,12.487,2.951C336.037,429.869,335.426,431.447,334.654,432.936z
			 M336.861,426.264c-4.144-0.763-8.214-1.836-12.287-2.912c0.168-0.715,0.286-1.446,0.344-2.188
			c0.021,0.002,0.035,0.014,0.058,0.014c4.071,0.05,8.112,0.591,12.184,0.687C337.201,423.37,337.092,424.838,336.861,426.264z
			 M415.299,414.624c-0.009-1.136,0.091-2.246,0.238-3.342c2.658,1.479,5.383,2.797,8.181,3.942c-2.785-0.242-5.59-0.342-8.41-0.37
			C415.305,414.779,415.299,414.699,415.299,414.624z M425.952,408.391c-2.653-1.608-5.413-3.039-8.305-4.243
			c0.321-0.666,0.683-1.31,1.062-1.938C420.833,404.584,423.345,406.549,425.952,408.391z M419.852,400.508
			c0.59-0.807,1.219-1.581,1.906-2.303c2.519,3.351,5.059,6.681,7.656,9.964c-0.046,0.035-0.09,0.074-0.136,0.109
			C425.899,405.985,422.487,403.624,419.852,400.508z M426.497,411.053c-0.605,0.791-1.118,1.638-1.536,2.515
			c-3.104-1.243-6.118-2.7-9.049-4.359c0.252-1.105,0.558-2.192,0.954-3.235C420.245,407.366,423.449,409.081,426.497,411.053z
			 M415.575,418.804c-0.008-0.062-0.011-0.121-0.021-0.182c-0.07-0.597-0.119-1.185-0.161-1.767c2.852,0.03,5.687,0.126,8.501,0.385
			c-0.018,0.163-0.04,0.325-0.049,0.489c-0.142,0.417-0.242,0.827-0.323,1.234c-2.625,0.071-5.247,0.192-7.868,0.388
			C415.63,419.17,415.598,418.985,415.575,418.804z M415.975,421.33c2.456-0.177,4.913-0.291,7.372-0.359
			c0.021,0.912,0.178,1.795,0.452,2.644c-2.196,0.916-4.444,1.663-6.784,2.093C416.588,424.247,416.245,422.781,415.975,421.33z
			 M417.625,427.603c2.396-0.474,4.701-1.242,6.951-2.186c0.389,0.722,0.859,1.407,1.387,2.062
			c-2.313,1.201-4.646,2.365-7.011,3.465C418.469,429.849,418.015,428.737,417.625,427.603z M419.781,432.745
			c1.638-0.761,3.257-1.56,4.868-2.371c-1.448,1.104-2.898,2.204-4.35,3.305C420.129,433.364,419.942,433.064,419.781,432.745z
			 M421.293,435.417c2.354-1.781,4.697-3.577,7.056-5.354c0.231,0.295,0.457,0.598,0.704,0.877
			c-1.899,2.394-3.986,4.618-6.383,6.521C422.184,436.808,421.73,436.12,421.293,435.417z M423.92,439.016
			c2.204-1.763,4.148-3.788,5.943-5.952c-1.415,2.58-2.834,5.158-4.188,7.771C425.064,440.265,424.479,439.659,423.92,439.016z
			 M431.225,444.471c-1.421-0.583-2.748-1.367-3.983-2.311c1.388-2.695,2.849-5.353,4.308-8.011
			C431.35,437.584,431.255,441.024,431.225,444.471z M431.075,407.062c-2.675-3.375-5.287-6.799-7.876-10.245
			c1.278-1.124,2.688-2.099,4.203-2.911c1.534,4.219,3.068,8.438,4.603,12.655C431.691,406.721,431.38,406.885,431.075,407.062z
			 M429.207,393.035c0.719-0.305,1.456-0.574,2.214-0.804c0.266,3.564,0.757,7.131,1.373,10.668
			C431.598,399.611,430.402,396.323,429.207,393.035z M433.215,445.141c0.022-3.708,0.1-7.41,0.313-11.104
			c0.788,0.28,1.603,0.47,2.429,0.562c0.647,3.52,1.41,7.008,2.512,10.429c0.09,0.278,0.264,0.456,0.468,0.565
			C436.902,445.787,434.997,445.61,433.215,445.141z M433.387,391.735c0.188-0.039,0.384-0.062,0.573-0.096
			c-0.028,2.397,0.031,4.789,0.196,7.169C433.818,396.456,433.551,394.097,433.387,391.735z M435.964,391.371
			c0.34-0.029,0.675-0.07,1.019-0.087c0.492-0.021,0.975-0.022,1.451-0.015v13.916c-0.524-0.035-1.05-0.034-1.575,0.003
			C436.18,400.624,435.894,396.014,435.964,391.371z M440.16,445.43c0.234-0.216,0.366-0.531,0.236-0.936
			c-1.042-3.238-1.779-6.537-2.404-9.865c0.146-0.011,0.293-0.03,0.439-0.047c1.231,3.473,2.29,7.004,3.527,10.474
			C441.35,445.213,440.751,445.333,440.16,445.43z M443.851,444.478c-1.223-3.399-2.247-6.868-3.443-10.277
			c0.332-0.095,0.662-0.199,0.987-0.324c1.887,3.079,3.783,6.146,5.312,9.413C445.796,443.736,444.843,444.133,443.851,444.478z
			 M449.647,416.037c-0.015-0.054-0.022-0.108-0.038-0.163c3.207-2.062,6.548-3.865,10.002-5.46c0.097,0.331,0.21,0.657,0.298,0.991
			c0.01,0.203,0.039,0.404,0.052,0.607C456.365,412.876,453.218,415.086,449.647,416.037z M460.128,413.974
			c0.126,1.132,0.285,2.257,0.506,3.364c-3.537,0.131-7.055,0.465-10.521,1.251c-0.021-0.22-0.061-0.437-0.09-0.654
			C453.516,416.918,456.607,414.777,460.128,413.974z M448.896,413.963c-0.061-0.128-0.136-0.244-0.199-0.37
			c2.967-2.719,6.093-5.251,9.272-7.721c0.376,0.861,0.729,1.735,1.042,2.63C455.521,410.097,452.141,411.9,448.896,413.963z
			 M447.629,411.856c-0.096-0.129-0.177-0.27-0.277-0.394c2.771-3.301,5.302-6.903,8.39-9.854c0.492,0.778,0.938,1.594,1.36,2.425
			C453.86,406.543,450.663,409.104,447.629,411.856z M446.235,409.704c-0.081-0.112-0.173-0.215-0.257-0.325
			c2.286-3.776,4.902-7.339,7.364-11.004c0.438,0.505,0.856,1.03,1.259,1.573C451.521,402.867,448.985,406.41,446.235,409.704z
			 M444.592,407.825c-0.027-0.024-0.053-0.056-0.079-0.081c1.312-4.789,3.066-10.983,4.408-13.286
			c1.078,0.711,2.079,1.527,3.011,2.429C449.497,400.542,446.896,404.088,444.592,407.825z M445.737,397.659
			c-1.016,2.954-1.798,5.992-2.67,8.998c-0.157-0.098-0.317-0.192-0.48-0.282c0.794-4.554,2.404-8.896,3.815-13.297
			c0.296,0.139,0.599,0.267,0.886,0.417C446.515,394.928,446.045,396.766,445.737,397.659z M440.707,405.606
			c-0.092-0.027-0.183-0.063-0.273-0.089v-14.124c1.458,0.163,2.824,0.493,4.12,0.938
			C443.166,396.737,441.573,401.068,440.707,405.606z M448.449,442.35c-1.535-3.234-3.4-6.284-5.263-9.345
			c0.69-0.406,1.35-0.881,1.961-1.43c2.219,2.784,4.433,5.563,6.921,8.103C450.96,440.666,449.758,441.565,448.449,442.35z
			 M453.508,438.29c-2.521-2.569-4.763-5.388-7.012-8.208c0.073-0.097,0.156-0.189,0.226-0.289c2.857,2.188,6.047,3.854,9.333,5.344
			C455.293,436.253,454.442,437.307,453.508,438.29z M457.119,433.442c-3.33-1.497-6.574-3.163-9.438-5.417
			c0.041-0.099,0.093-0.193,0.131-0.292c0.085-0.113,0.157-0.235,0.236-0.354c3.28,1.526,6.362,3.462,9.627,5.033
			C457.494,432.76,457.313,433.105,457.119,433.442z M458.535,430.618c-2.845-1.375-5.559-2.999-8.376-4.415
			c3.168,0.42,6.31,0.934,9.405,1.667C459.269,428.807,458.924,429.724,458.535,430.618z M460.101,425.942
			c-3.457-0.821-6.968-1.375-10.507-1.821c0.046-0.151,0.067-0.312,0.108-0.468c3.667-0.197,7.321-0.621,10.989-0.81
			C460.545,423.89,460.35,424.924,460.101,425.942z M460.911,420.831c-3.618,0.177-7.222,0.593-10.837,0.802
			c0.038-0.337,0.091-0.669,0.104-1.008c3.561-0.849,7.178-1.181,10.814-1.301C460.979,419.828,460.949,420.33,460.911,420.831z
			 M466.806,408.735c0.007-0.249,0.023-0.497,0.036-0.746c3.328,0.206,6.619,0.791,9.938,1.129
			c-0.008,0.187-0.017,0.372-0.015,0.556c-3.186,0.312-6.381,0.514-9.563,0.855C467.08,409.929,466.957,409.329,466.806,408.735z
			 M485.992,395.147c-0.233,0.103-0.471,0.197-0.7,0.312c-0.018-0.031-0.028-0.062-0.051-0.096c-2.25-3.374-4.515-6.737-6.92-10.003
			c0.699-0.43,1.421-0.806,2.159-1.136C482.171,387.94,484.067,391.549,485.992,395.147z M482.339,383.504
			c1.306-0.432,2.652-0.722,4.021-0.892c0.327,3.834,1.081,7.623,1.324,11.462C485.824,390.589,483.986,387.095,482.339,383.504z
			 M483.515,396.374c0.021,0.033,0.048,0.06,0.071,0.088c-0.212,0.145-0.422,0.29-0.627,0.443c-2.988-2.651-5.725-5.558-8.328-8.593
			c0.649-0.671,1.334-1.278,2.047-1.828C479.051,389.715,481.291,393.038,483.515,396.374z M481.426,398.214
			c-0.396,0.384-0.777,0.779-1.129,1.198c-3.071-2.132-6.19-4.194-9.046-6.614c0.623-1.052,1.312-2.04,2.058-2.967
			C475.851,392.788,478.518,395.622,481.426,398.214z M479.115,401.018c-0.239,0.381-0.461,0.77-0.658,1.168
			c-3.219-1.462-6.328-3.135-9.316-5.044c0.342-0.875,0.721-1.729,1.133-2.556C473.08,396.918,476.119,398.937,479.115,401.018z
			 M477.717,404.027c-0.062,0.204-0.121,0.408-0.173,0.614c-3.219-1.199-6.434-2.411-9.674-3.555
			c0.173-0.684,0.371-1.356,0.584-2.022C471.43,400.941,474.521,402.584,477.717,404.027z M477.228,406.649
			c-0.054,0.168-0.101,0.334-0.146,0.5c-3.371-0.326-6.712-0.929-10.091-1.149c0.105-0.989,0.265-1.972,0.452-2.945
			C470.721,404.211,473.972,405.438,477.228,406.649z M467.549,412.478c2.479-0.271,4.968-0.462,7.453-0.666
			c-2.45,0.466-4.901,0.924-7.302,1.601C467.659,413.1,467.599,412.789,467.549,412.478z M467.924,415.427
			c3.151-0.916,6.398-1.434,9.621-2.074c0.143,0.329,0.297,0.653,0.471,0.972c-3.295,1-6.641,1.837-9.979,2.693
			C468.012,416.487,467.968,415.957,467.924,415.427z M468.215,419.187c-0.004-0.049-0.009-0.1-0.013-0.147
			c1.511-0.389,3.022-0.772,4.531-1.167c-1.397,0.761-2.771,1.566-4.11,2.438C468.484,419.938,468.337,419.568,468.215,419.187z
			 M469.407,422.188c3.262-2.146,6.72-3.91,10.255-5.532c0.057,0.062,0.106,0.129,0.163,0.191
			c-3.396,1.964-6.769,3.968-10.097,6.046C469.612,422.664,469.517,422.424,469.407,422.188z M471.753,426.181
			c-0.369-0.498-0.716-1.015-1.044-1.543c2.422-1.513,4.865-2.985,7.326-4.43c-0.638,0.541-1.271,1.085-1.893,1.649
			C474.711,423.16,473.049,424.576,471.753,426.181z M474.093,428.831c-0.36-0.34-0.706-0.691-1.038-1.057
			c1.271-1.681,3.044-3.126,4.502-4.502c1.456-1.375,3.001-2.651,4.589-3.873c0.086,0.103,0.163,0.214,0.251,0.313
			c-2.979,2.871-5.767,5.901-7.999,9.374C474.299,428.999,474.189,428.924,474.093,428.831z M475.954,430.369
			c2.188-3.443,4.935-6.431,7.875-9.261c0.108,0.086,0.216,0.177,0.326,0.26c-1.102,1.399-2.204,2.799-3.241,4.248
			c-1.317,1.842-2.297,3.874-3.367,5.854C477.001,431.124,476.473,430.753,475.954,430.369z M479.293,432.477
			c1.086-1.965,2.086-3.979,3.349-5.852c0.985-1.463,2.081-2.85,3.186-4.23c0.302,0.146,0.606,0.282,0.918,0.397
			c-1.608,3.644-2.959,7.376-4.025,11.229C481.533,433.592,480.398,433.06,479.293,432.477z M489.822,435.641
			c-1.764-0.178-3.504-0.525-5.199-1.007c1.073-3.886,2.434-7.648,4.068-11.316c0.392,0.066,0.786,0.119,1.183,0.144
			C489.479,427.513,490.019,431.594,489.822,435.641z M490.001,394.063c-0.104,0.011-0.21,0.016-0.313,0.029
			c-0.245-3.899-1.021-7.746-1.342-11.64c0.861-0.031,1.729-0.003,2.597,0.059C490.136,386.316,489.87,390.162,490.001,394.063z
			 M491.771,435.772c0.153-4.117-0.405-8.253,0.092-12.367c0.321-0.036,0.643-0.07,0.96-0.134c0.729,4.157,1.8,8.253,2.257,12.447
			C493.981,435.799,492.876,435.812,491.771,435.772z M503.21,405.58c-0.071-0.32-0.137-0.645-0.23-0.958
			c3.797-1.276,8.459-2.788,12.326-3.823c0.241,1.065,1.04,2.535,1.125,3.625C512.528,404.888,507.126,405.282,503.21,405.58z
			 M516.867,406.111c-0.004,1.027,0.479,2.248,0.354,3.28c-3.724-0.505-9.944-0.674-13.658-1.216c-0.01-0.207-0.013-0.414-0.03-0.62
			C507.36,407.247,513.051,406.562,516.867,406.111z M502.262,402.756c-0.109-0.231-0.222-0.464-0.345-0.688
			c3.819-1.439,7.397-3.479,11.165-5.084c0.311,0.685,0.576,1.382,0.809,2.086C509.962,400.122,506.12,401.46,502.262,402.756z
			 M502.188,399.827c2.977-1.921,5.799-4.078,8.74-6.065c0.083-0.057,0.147-0.119,0.207-0.187c0.379,0.537,0.717,1.089,1.036,1.646
			C508.809,396.682,505.578,398.465,502.188,399.827z M509.918,392.034c-3.361,2.273-6.558,4.786-10.021,6.891
			c-0.322-0.477-0.665-0.932-1.037-1.354c2.484-3.046,5.076-6.02,8.159-8.444c1.056,0.895,2.026,1.867,2.906,2.903
			C509.924,392.031,509.921,392.032,509.918,392.034z M498.406,395.002c1.432-2.973,2.889-5.915,4.786-8.6
			c0.767,0.453,1.51,0.941,2.227,1.46C502.826,389.972,500.559,392.432,498.406,395.002z M496.071,395.264
			c-0.058-0.032-0.112-0.069-0.171-0.102c-0.126-0.065-0.256-0.117-0.383-0.178c0.635-3.729,1.475-7.378,2.653-10.947
			c1.115,0.396,2.201,0.875,3.261,1.404C499.309,388.513,497.71,391.883,496.071,395.264z M493.615,394.308
			c-0.534-0.13-1.072-0.228-1.614-0.271c-0.125-3.821,0.139-7.582,0.944-11.311c1.116,0.165,2.226,0.41,3.32,0.716
			C495.09,386.986,494.25,390.607,493.615,394.308z M497.058,435.511c-0.48-4.308-1.571-8.515-2.312-12.786
			c0.285-0.108,0.567-0.227,0.847-0.356c1.599,4.172,2.885,8.459,4.86,12.459C499.34,435.123,498.206,435.35,497.058,435.511z
			 M504.719,433.311c-0.759,0.35-1.541,0.647-2.336,0.925c-2.087-4.116-3.371-8.568-5.049-12.871
			c0.088-0.061,0.182-0.115,0.269-0.179c3.065,3.822,6.865,6.921,10.346,10.352C506.956,432.182,505.883,432.774,504.719,433.311z
			 M509.593,430.356c-3.523-3.48-7.434-6.585-10.503-10.485c0.438-0.459,0.838-0.934,1.166-1.436
			c2.106,1.736,4.174,3.521,6.293,5.242c1.847,1.5,3.883,2.71,5.742,4.164C511.493,428.735,510.59,429.573,509.593,430.356z
			 M513.547,426.284c-1.282-1.017-2.641-1.931-4.034-2.826c-2.979-1.913-5.586-4.54-8.317-6.835
			c0.007-0.017,0.016-0.031,0.021-0.048c0.051-0.066,0.086-0.146,0.135-0.214c4.859,1.381,9.732,3.739,14.368,6.038
			C515.165,423.77,514.429,425.062,513.547,426.284z M516.379,420.496c-4.523-2.247-9.255-4.531-14.013-5.931
			c0.146-0.317,0.302-0.629,0.42-0.959c2.399,0.496,4.741,1.276,7.163,1.752c1.333,0.262,5.732,0.821,7.043,1.065
			C517.472,417.624,516.592,419.747,516.379,420.496z M517.242,414.361c-0.005,0.039,0,0-3.417-0.345
			c-1.105-0.205-2.221-0.394-3.344-0.587c-2.456-0.426-4.789-1.198-7.181-1.728c0.099-0.504,0.182-1.013,0.227-1.528
			c3.631,0.49,10.271,0.96,13.902,1.469C517.262,412.521,517.366,413.393,517.242,414.361z M539.215,406.141
			c-1.031-1.547-2.063-3.095-3.096-4.643c-0.711-1.066-2.443-0.066-1.727,1.011c0.861,1.292,1.723,2.583,2.584,3.875
			c-0.592,0.062-1.184,0.129-1.773,0.191c-1.517-2.075-2.979-4.184-4.316-6.386c-0.668-1.102-2.397-0.096-1.728,1.01
			c1.174,1.936,2.45,3.793,3.771,5.623c-1.157,0.127-2.314,0.254-3.473,0.385c-0.832-1.248-1.665-2.497-2.498-3.746
			c-0.712-1.066-2.443-0.065-1.727,1.011c0.665,0.997,1.331,1.996,1.996,2.993c-1.265,0.147-2.528,0.297-3.791,0.454
			c-0.354-1.524-1.437-5.184-1.529-5.495c-3.584-11.959-8.13-19.041-18.294-23.766c-13.531-6.289-29.525-2.979-37.918,9.706
			c-1.55,2.342-2.766,4.982-3.704,7.772c-0.254-0.431-0.796-0.722-1.373-0.444c-0.097,0.046-0.187,0.101-0.282,0.147
			c-3.78-5.133-9.012-9.062-15.959-10.794c-12.49-3.111-25.73,3.082-32.109,14.041c-2.91,5-4.146,10.857-4.048,16.833
			c-0.503,0.018-1.007,0.046-1.51,0.067c-0.946-1.541-1.919-3.067-2.747-4.677c-0.592-1.146-2.316-0.135-1.728,1.01
			c0.668,1.297,1.432,2.538,2.198,3.777c-0.977,0.056-1.951,0.117-2.927,0.188c-1.124-1.673-2.234-3.354-3.435-4.976
			c-0.758-1.024-2.495-0.029-1.727,1.01c1.002,1.354,1.938,2.753,2.877,4.153c-1.648,0.141-3.297,0.294-4.943,0.471
			c-0.976-1.188-1.898-2.419-2.749-3.671c-0.72-1.062-2.453-0.062-1.727,1.01c0.672,0.99,1.396,1.963,2.145,2.92
			c-1.325,0.155-2.649,0.312-3.975,0.487c-0.777-1.036-1.556-2.073-2.332-3.109c-0.765-1.019-2.501-0.022-1.728,1.011
			c0.603,0.803,1.204,1.604,1.807,2.407c-1.468,0.204-2.938,0.414-4.403,0.637c-0.744-1.181-1.456-2.367-2.218-3.399
			c-0.757-1.025-2.494-0.029-1.728,1.01c0.63,0.854,1.225,1.776,1.823,2.711c-1.24,0.193-2.479,0.392-3.719,0.593
			c-1.299-2.023-2.483-4.116-3.574-6.274c-0.581-1.151-2.307-0.139-1.727,1.01c0.974,1.929,2.018,3.799,3.152,5.612
			c-1.623,0.27-3.244,0.544-4.866,0.82c-0.797-1.187-1.6-2.368-2.448-3.519c-0.758-1.023-2.495-0.028-1.728,1.01
			c0.696,0.942,1.359,1.908,2.018,2.878c-1.106,0.19-2.213,0.381-3.318,0.569c-1.288-1.84-2.48-3.738-3.514-5.766
			c-0.585-1.149-2.312-0.138-1.728,1.01c0.912,1.792,1.945,3.488,3.062,5.129c-1.293,0.221-2.586,0.44-3.879,0.657
			c-1.634-1.984-3.297-3.942-4.652-6.143c-0.675-1.096-2.405-0.092-1.727,1.011c1.213,1.967,2.668,3.736,4.13,5.507
			c-1.344,0.222-2.688,0.439-4.03,0.652c-1.159-1.62-2.059-3.42-2.953-5.206c-0.577-1.153-2.302-0.142-1.727,1.01
			c0.774,1.55,1.565,3.092,2.503,4.537c-1.513,0.23-3.024,0.457-4.536,0.67c0.357-5.665-0.716-11.505-3.125-16.814
			c-5.908-13.021-21.325-17.874-34.606-16.206c-11.369,1.429-24.216,6.22-26.012,21.067c-0.403,3.333-0.65,5.775-0.258,9.071
			c-0.493,0.005-1.006,0.011-1.529,0.016c-0.903-2.329-1.776-4.668-2.574-7.037c-0.41-1.216-2.342-0.693-1.929,0.531
			c0.738,2.191,1.541,4.355,2.372,6.512c-0.725-0.001-1.46-0.007-2.208-0.021c-0.787-1.528-1.5-3.098-2.262-4.644
			c-0.57-1.155-2.295-0.143-1.727,1.011c0.58,1.178,1.133,2.368,1.71,3.545c-0.562-0.029-1.125-0.056-1.688-0.104
			c-1.277-3.099-2.477-6.225-3.429-9.446c-0.365-1.233-2.296-0.708-1.929,0.531c0.872,2.951,1.957,5.822,3.112,8.666
			c-1.511-0.21-2.99-0.504-4.381-0.933c-1.505-2.567-2.502-5.361-3.346-8.266c-0.359-1.235-2.289-0.71-1.929,0.531
			c0.672,2.312,1.453,4.516,2.462,6.614c-1.767-0.896-3.283-2.1-4.387-3.728c-2.137-3.153-2.624-7.352-3.014-11.042
			c-0.638-6.054-1.516-20.12-2.144-20.682c-1.064-10.271-1.942-21.502-2.712-33.403c56.923-4.611,113.614-11.592,170.2-19.243
			c18.772-2.538,37.529-5.603,56.366-7.773c0.47,0.564,1.271,0.35,1.597-0.18c7.629-0.858,15.271-1.568,22.934-2.025
			c4.346-0.259,8.771-0.453,13.226-0.672c0.024,0.042,0.047,0.083,0.071,0.125c0.481,0.834,1.569,0.48,1.816-0.219
			c10.25-0.521,20.639-1.253,30.644-3.29c0.35,0.177,0.777,0.063,1.078-0.224c4.523-0.969,8.968-2.211,13.275-3.84
			c-0.438,32.119-0.562,62.728,1.732,88.617c-0.778-1.072-1.563-2.139-2.488-3.095c-0.896-0.93-2.311,0.486-1.414,1.414
			c0.996,1.029,1.832,2.188,2.671,3.346c-1.124,0.179-2.248,0.358-3.374,0.524c-0.776-0.925-1.602-1.807-2.463-2.667
			c-0.912-0.913-2.326,0.501-1.414,1.414c0.524,0.523,1.034,1.057,1.531,1.599c-1.831,0.256-3.664,0.499-5.499,0.725
			c-1.28-2.145-2.775-4.151-4.275-6.151c-0.764-1.02-2.501-0.023-1.727,1.01c1.323,1.765,2.642,3.537,3.815,5.401
			c-0.718,0.085-1.435,0.172-2.15,0.254c-1.413-1.923-2.769-3.886-3.863-6.012c-0.591-1.146-2.315-0.135-1.727,1.011
			c0.952,1.85,2.107,3.569,3.32,5.253C541.267,405.913,540.241,406.029,539.215,406.141z M543.225,413.335
			c0.024-0.237,0.02-0.458,0.004-0.671c1.425-0.155,2.848-0.328,4.271-0.492c-1.492,1.289-2.966,2.601-4.439,3.91
			C543.068,415.211,543.123,414.296,543.225,413.335z M543.205,418.614c2.618-2.304,5.203-4.645,7.898-6.856
			c0.04-0.006,0.08-0.01,0.12-0.015v0.568c-2.747,2.344-5.278,4.913-7.795,7.505C543.34,419.43,543.261,419.032,543.205,418.614z
			 M544.166,421.92c2.304-2.386,4.598-4.78,7.059-6.993v2.604c-2.074,1.909-4.005,3.955-5.848,6.092
			C544.896,423.123,544.488,422.56,544.166,421.92z M547.924,425.259c-0.334-0.133-0.654-0.273-0.95-0.438
			c1.537-1.773,3.135-3.485,4.829-5.105c0.191,0.288,0.428,0.543,0.692,0.761C550.939,422.037,549.421,423.638,547.924,425.259z
			 M552.221,425.977c-0.748-0.009-1.461-0.048-2.105-0.146c1.438-1.544,2.905-3.059,4.405-4.539c0.37,0.03,0.752,0.005,1.134-0.081
			c0.393-0.088,0.785-0.159,1.178-0.237C555.249,422.595,553.717,424.268,552.221,425.977z M554.997,425.851
			c1.696-1.871,3.45-3.687,5.247-5.458c1.142-0.161,2.285-0.296,3.432-0.422c-1.624,1.805-3.248,3.607-4.872,5.413
			C557.54,425.579,556.272,425.744,554.997,425.851z M564.169,424.365c-0.724,0.157-1.446,0.312-2.173,0.455
			c1.551-1.722,3.102-3.444,4.651-5.167c0.817-0.085,1.636-0.173,2.454-0.266C567.393,420.981,565.729,422.622,564.169,424.365z
			 M572.223,422.516c-1.523,0.344-3.046,0.706-4.57,1.062c1.476-1.496,3.014-2.931,4.57-4.346V422.516z"/>
	</g>
</g>
<g>
</g>
<g>
</g>
<g>
</g>
<g>
</g>
<g>
</g>
<g>
</g>
<g>
</g>
<g>
</g>
<g>
</g>
<g>
</g>
<g>
</g>
<g>
</g>
<g>
</g>
<g>
</g>
<g>
</g>
</svg>
