<?xml version="1.0" encoding="iso-8859-1"?>
<!-- Generator: Adobe Illustrator 16.0.0, SVG Export Plug-In . SVG Version: 6.00 Build 0)  -->
<!DOCTYPE svg PUBLIC "-//W3C//DTD SVG 1.1//EN" "http://www.w3.org/Graphics/SVG/1.1/DTD/svg11.dtd">
<svg version="1.1" id="Capa_1" xmlns="http://www.w3.org/2000/svg" xmlns:xlink="http://www.w3.org/1999/xlink" x="0px" y="0px"
	 width="195.392px" height="195.392px" viewBox="0 0 195.392 195.392" style="enable-background:new 0 0 195.392 195.392;"
	 xml:space="preserve">
<g>
	<path d="M155.853,84.992c-1.812-0.078-3.152,0.55-4.035,1.538c-3.388,0.555-6.621,1.709-9.66,3.296
		c-6.033-14.88-10.832-29.969-11.227-47.411c7.506-0.18,13.575-2.442,18.827-8.637c2.104-2.482-0.514-6.202-3.526-4.57
		c-6.752,3.66-11.099,6.223-19.13,5.608c-2.109-0.162-3.693,1.84-3.77,3.77c-0.339,8.532,0.245,17.933,1.763,27.465
		c-16.255,0.021-32.96,1.001-49.082,3.073c-0.664-0.939-1.677-1.571-2.724-1.598c-1.594-3.257-3.341-6.454-5.188-9.611
		c0.169,0.005,0.323,0.033,0.494,0.035c7.258,0.07,15.365-3.561,17.638-10.838c0.537-1.718-0.966-4.035-2.902-3.81
		c-6.742,0.781-12.558,3.352-19.56,2.285c-4.688-0.714-9.015-2.665-13.827-2.969c-2.513-0.159-4.733,1.839-5.418,4.125
		c-0.035,0.115-0.069,0.231-0.104,0.346c-0.813,2.714,0.548,5.35,2.786,6.846c2.154,1.441,4.52,1.446,7.003,1.817
		c2.763,0.413,5.318,1.014,7.924,1.491c0.926,5.428,3.169,10.615,5.609,15.731c-3.432,4.844-6.387,10.011-9.14,15.289
		c-0.171-0.078-0.326-0.179-0.499-0.254c-0.348-0.32-0.737-0.624-1.22-0.886c-19.162-10.376-44.296,2.983-53.562,20.871
		c-11.082,21.395,7.455,48.715,27.629,55.95c21.001,7.531,45.755-7.125,48.321-29.231c0.16-1.378,0.246-2.798,0.294-4.233
		c7.053,0.366,12.53,0.811,18.694-3.094c7.426-4.704,12.633-15.852,17.411-22.882c4.561-6.711,9.721-13.169,13.516-20.322
		c1.206,4.078,2.599,8.097,4.192,11.998c-6.497,6.263-11.147,14.833-12.774,23.902c-4.041,22.53,13.271,44.3,36.029,46.359
		c21.407,1.937,36.861-16.086,38.575-36.407C197.312,105.097,181.043,86.07,155.853,84.992z M59.37,102.398
		c5.219,5.322,8.01,12.942,9.087,20.745c-7.298-0.094-14.585-0.769-20.53-0.964c3.648-3.767,6.225-8.808,8.42-13.403
		C57.354,106.671,58.358,104.537,59.37,102.398z M37.087,154.298C19.7,151.452,6.789,126.979,15.18,111.562
		c6.703-12.315,22.521-16.43,35.516-14.826c1.054,0.378,1.988,0.896,2.937,1.396c-4.49,9.261-7.153,19.131-14.675,26.538
		c-1.009,0.994,0.008,2.896,1.415,2.433c0.722-0.238,1.381-0.572,2.047-0.896c0.225,0.176,0.495,0.319,0.822,0.407
		c8.478,2.289,16.984,2.949,25.606,3.368C68.132,146.413,53.936,157.057,37.087,154.298z M79.292,122.668
		c-1.214-11.699-5.996-23.693-14.788-30.745c2.061-3.995,4.282-7.893,6.72-11.62c1.091,2.36,2.121,4.721,2.941,7.104
		c3.906,11.35,8.159,22.892,14.386,33.212C85.721,121.635,82.597,122.291,79.292,122.668z M124.706,73.069
		c-5.259,14.597-17.615,28.085-26.46,40.664c-0.944,1.342-2.073,2.49-3.339,3.489c-7.324-14.21-12.354-29.266-18.833-43.739
		c0.03-0.07,0.066-0.139,0.109-0.207c15.94,1.78,32.782,1.28,48.759-0.704C124.861,72.735,124.771,72.888,124.706,73.069z
		 M159.164,155.536c-18.119-0.146-29.69-18.128-26.552-34.67c1.025-5.408,3.252-9.718,6.293-13.162
		c4.463,7.988,9.899,15.108,16.453,20.633c0.904,0.763,2.666,0.07,2.181-1.269c-3.248-8.952-6.947-17.401-10.538-25.735
		c3.913-2.169,8.319-3.694,12.905-4.74c15.835,2.903,24.852,14.268,24.395,31.061C183.915,141.903,174.19,155.657,159.164,155.536z"
		/>
</g>
<g>
</g>
<g>
</g>
<g>
</g>
<g>
</g>
<g>
</g>
<g>
</g>
<g>
</g>
<g>
</g>
<g>
</g>
<g>
</g>
<g>
</g>
<g>
</g>
<g>
</g>
<g>
</g>
<g>
</g>
</svg>
