<?xml version="1.0" encoding="iso-8859-1"?>
<!-- Generator: Adobe Illustrator 16.0.0, SVG Export Plug-In . SVG Version: 6.00 Build 0)  -->
<!DOCTYPE svg PUBLIC "-//W3C//DTD SVG 1.1//EN" "http://www.w3.org/Graphics/SVG/1.1/DTD/svg11.dtd">
<svg version="1.1" id="Capa_1" xmlns="http://www.w3.org/2000/svg" xmlns:xlink="http://www.w3.org/1999/xlink" x="0px" y="0px"
	 width="189.045px" height="189.045px" viewBox="0 0 189.045 189.045" style="enable-background:new 0 0 189.045 189.045;"
	 xml:space="preserve">
<g>
	<path d="M187.454,65.018c-0.656-8.227,1.281-18.398-2.08-26.082c-2.013-4.6-13.043-3.156-16.142-3.228
		c-30.926-0.719-61.769-3.031-92.72-2.735c-15.184,0.145-30.401,1.089-45.545,2.13c-7.637,0.525-17.641,0.089-24.8,3.451
		c-1.885,0.885-1.764,2.921-0.694,4.212c-0.335,0.267-0.579,0.672-0.615,1.232C3.011,72.825,1.124,101.77,0.871,130.66
		c-0.107,12.199-5.073,24.769,9.946,25.398c10.889,0.456,22.975-3.105,33.781-4.153c15.061-1.461,30.295-1.078,45.39-0.508
		c30.357,1.145,60.545,4.33,90.961,3.104c1.757-0.07,2.715-1.294,2.969-2.646c1.78,1.194,4.871,0.425,4.886-2.388
		C188.953,121.146,189.709,93.294,187.454,65.018z M38.179,146.591c-9.097,1.379-23.186,5.44-32.381,3.43
		c-0.988-0.217,0.522-26.933,0.586-30.919c0.401-25.04,3.066-50.055,1.795-75.104c-0.003-0.06-0.03-0.1-0.037-0.157
		c0.086-0.012,0.164,0.012,0.252-0.008c19.61-4.531,42.223-3.414,62.264-4.072c23.198-0.761,46.449,0.511,69.618,1.555
		c11.588,0.522,23.177,0.972,34.773,1.248c7.883,0.187,6.65,28.211,7.151,33.517c2.28,24.149,0.688,48.329,0.494,72.528
		c-0.469-0.307-1.02-0.525-1.745-0.489C133.662,150.472,85.18,139.466,38.179,146.591z"/>
	<path d="M89.208,56.238c-3.285-6.285-17.017-4.086-22.577-3.893c-13.928,0.482-29.466-1.771-42.654,3.076
		c-3.271,1.202-1.092,4.7,0.987,4.532c20.335,0.439,41.079-0.581,61.211,1.572C88.997,61.827,90.321,58.366,89.208,56.238z"/>
	<path d="M98.326,69.551c-23.188-5.384-49.167-0.102-72.63,1.791c-2.047,0.165-2.394,2.807-0.476,3.514
		c22.448,8.278,47.653-2.719,70.93,2.593C101.29,78.622,103.474,70.746,98.326,69.551z"/>
	<path d="M93.181,87.211C71.118,87.093,49.159,89.484,27.171,89c-2.143-0.047-2.393,2.961-0.487,3.599
		c8.991,3.009,17.925,2.567,27.298,1.933c13.111-0.888,26.076-0.286,39.199-0.078C97.853,94.527,97.852,87.236,93.181,87.211z"/>
	<path d="M149.266,83.188c0.117-2.017-0.047-4.109-0.077-5.945c-0.069-4.095-0.667-8.243-2.062-12.1
		c-1.604-4.436-6.695-10.164-11.967-7.699c-4.692,2.193-5.757,8.852-6.396,13.375c-0.661,4.688-0.235,9.21-0.048,13.855
		c-1.569,0.435-2.911,1.522-4.075,2.646c-2.253,2.178-5.954,4.187-8.641,6.48c-4.479,3.823-11.009,11.372-8.122,17.772
		c2.005,4.444,8.786,2.015,11.894,0.692c3.065-1.306,7.278-2.968,10.388-5.267c-2.121,7.182-6.011,13.638-8.3,20.815
		c-0.439,1.376,0.773,3.176,2.3,3.019c2.805-0.287,7.543-1.369,8.851,2.65c0.655,2.013,3.021,2.132,4.194,0.548
		c2.513-3.391,6.824-2.871,10.087-1.305c1.785,0.856,4.174-0.547,3.514-2.702c-2.821-9.221-4.596-18.292-2.133-27.68
		c6.377,3.996,18.626,14.712,23.952,6.057C180.32,95.894,159.138,84.903,149.266,83.188z M166.544,105.502
		c-3.272,0.145-13.124-7.192-17.771-6.85c-1.067-1.41-3.808-1.503-4.552,0.728c-3.109,9.338-1.997,18.646,0.675,27.801
		c-3.258-0.485-6.435,0.098-9.078,2.03c-1.944-2.491-4.854-3.201-8.198-3.248c2.896-7.349,6.578-14.449,5.837-22.593
		c-0.013-0.138-0.055-0.263-0.109-0.381c-0.053-1.507-1.67-2.94-3.222-2.42c-3.156,1.057-6.08,3.627-9.048,5.173
		c-1.722,0.897-3.482,1.668-5.328,2.269c-0.694,0.227-1.437,0.442-2.164,0.532c-0.448,0.056-0.822-0.083-0.934-0.035
		c-0.113-1.061,1.605-4.204,2.193-5.165c1.918-3.134,4.933-5.736,7.691-8.109c2.933-2.522,6.403-4.844,8.33-8.324
		c0.249-0.449,0.219-1.032,0.012-1.519c1.725-6.855,1.982-14.302,4.75-20.801c2.528-5.935,6.552,0.691,7.562,4.154
		c0.921,3.158,1.072,6.56,1.23,9.828c0.134,2.775-0.538,6.071,0.487,8.687c0.415,1.06,1.755,1.655,2.686,1.096
		c4.638,2.412,9.63,3.922,14.121,6.748c2.35,1.478,4.516,3.302,5.906,5.729C168.346,102.097,168.523,105.415,166.544,105.502z"/>
</g>
<g>
</g>
<g>
</g>
<g>
</g>
<g>
</g>
<g>
</g>
<g>
</g>
<g>
</g>
<g>
</g>
<g>
</g>
<g>
</g>
<g>
</g>
<g>
</g>
<g>
</g>
<g>
</g>
<g>
</g>
</svg>
