<?xml version="1.0" encoding="iso-8859-1"?>
<!-- Generator: Adobe Illustrator 16.0.0, SVG Export Plug-In . SVG Version: 6.00 Build 0)  -->
<!DOCTYPE svg PUBLIC "-//W3C//DTD SVG 1.1//EN" "http://www.w3.org/Graphics/SVG/1.1/DTD/svg11.dtd">
<svg version="1.1" id="Capa_1" xmlns="http://www.w3.org/2000/svg" xmlns:xlink="http://www.w3.org/1999/xlink" x="0px" y="0px"
	 width="195.877px" height="195.878px" viewBox="0 0 195.877 195.878" style="enable-background:new 0 0 195.877 195.878;"
	 xml:space="preserve">
<g>
	<path d="M44.973,116.234c-2.552-0.022-3.855,1.546-4.132,3.357c-1.623,1.014-3.073,2.32-4.18,3.674
		c-6.431,7.865-2.738,19.074,7.398,21.32c7.731,1.714,14.567-4.875,15.757-12.168C61.342,123.052,54.093,116.313,44.973,116.234z
		 M46.602,136.117c0.117-0.024-0.695-0.125-1.266-0.293c-1.088-0.319-2.027-1.233-2.788-2.034c-1.137-1.195-0.43-2.947,0.26-4.153
		c1.019-1.778,2.84-2.845,4.615-3.737c0.172-0.087,0.367-0.111,0.551-0.164c2.092,0.747,3.307,2.075,3.267,4.477
		C51.195,132.931,49.091,135.603,46.602,136.117z"/>
	<path d="M158.554,129.899c-0.409-4.063-2.262-7.697-5.568-10.147c-2.182-1.617-5.889-3.019-8.956-2.615
		c-6.771-1.066-12.939,7.247-13.439,13.688c-0.727,9.368,7.408,16.999,16.786,15.354
		C154.78,144.878,159.271,137.039,158.554,129.899z M146.15,137.062c-3.87,1.307-6.069-2.267-5.846-5.55
		c0.176-2.596,1.787-4.298,3.766-5.57c2.266,0.548,4.491,0.746,5.285,3.978C149.962,132.393,148.772,136.176,146.15,137.062z"/>
	<path d="M188.794,90.179c-6.36-6.546-18.812-6.284-27.06-6.158c-6.487,0.099-12.979,0.346-19.473,0.634
		c-0.152-0.317-0.309-0.635-0.591-0.933c-6.487-6.858-13.179-20.46-23.197-22.771c-3.134-0.723-6.278-1.056-9.432-1.176
		c0.269-0.384,0.442-0.852,0.381-1.457c-0.212-2.129-0.119-4.786-0.916-6.779c-1.304-3.266-5.929-2.397-5.872,0.802h-0.057
		c0.019,0.177,0.064,0.351,0.09,0.527c0.018,0.097-0.007,0.175,0.019,0.275c0.294,1.182,0.487,2.356,0.571,3.572
		c0.075,1.082,0.044,2.078,0.444,3.035c-8.101,0.216-16.251,1.335-24.403,0.787c-22.337-1.502-39.803,0.569-43.917,25.418
		c-0.335-0.008-0.668-0.017-1.004-0.025C23.38,85.665,8.196,84.664,2.294,95.9c-4.012,7.638-1.909,21.373-0.101,29.411
		c2.328,10.351,14.687,7.722,21.475,5.16c0.859-0.323,1.231-0.994,1.233-1.661c0.015-0.046,0.059-0.053,0.071-0.103
		c2.542-10.696,10.545-16.038,21.421-15.847c9.93,0.174,14.396,9.393,20.022,15.804c0.772,0.88,2.1,0.476,2.632-0.383
		c15.636,4.323,35.141,6.128,50.833,3.597c0.708-0.114,1.17-0.438,1.433-0.865c0.707,0.941,2.553,0.838,2.947-0.531
		c3.38-11.71,9.939-17.054,22.296-16.978c12.062,0.074,14.929,8.714,21.011,16.896c0.252,0.339,0.546,0.567,0.853,0.749
		c0.562,1.098,1.716,1.942,3.272,1.711C191.958,129.835,204.519,106.361,188.794,90.179z M175.493,97.596
		c-0.071-1.032,0.042-1.462,0.607-2.316c0.641-0.968,0.637-2.146,0.251-3.193c5.71,1.073,9.812,4.472,12.283,10.234
		c0.104,0.258,0.158,0.497,0.249,0.751c-2.055-0.153-4.115-0.196-6.18-0.196c3.304-3.952-3.666-8.622-5.857-4.154
		c-0.717,1.46-1.153,2.814-1.104,4.36c-2.281,0.127-4.564,0.282-6.848,0.471c1.017-1.118,1.215-2.626,0.786-3.946
		C171.522,101.684,175.725,100.955,175.493,97.596z M97.523,67.121c8.476-0.924,16.838-2.05,24.555,4.307
		c4.573,3.768,7.909,9.02,11.796,13.621c-11.526,0.575-23.056,1.219-34.573,1.545c-0.642,0.018-1.28,0.013-1.922,0.029
		c0.159-3.385,0.172-6.783,0.301-10.168C97.792,73.443,98.197,70.109,97.523,67.121z M64.876,65.93
		c7.609,0.065,15.188,1.383,22.789,1.727c1.509,0.068,3.021,0.034,4.532-0.055c-0.521,2.864-0.121,6.014,0.056,8.854
		c0.213,3.41,0.464,6.838,0.913,10.232c-17.944,0.307-35.766-0.174-53.698-0.628C44.105,74.748,50.035,65.802,64.876,65.93z
		 M81.255,97.315c-1.092-0.3-2.298-0.03-3.245,0.601c0.76-1.887,0.889-3.683-0.052-5.344c2.374,0.076,4.749,0.12,7.125,0.17
		c-0.472,1.108-0.463,2.437,0.085,3.648c0.119,0.262,0.236,0.525,0.354,0.788c0.062,0.131,0.122,0.264,0.182,0.396
		c0.009,0.028,0.002,0.01,0.019,0.057c0.011,0.033,0.036,0.057,0.049,0.089c0.01,0.022,0.02,0.043,0.029,0.065
		c-0.01-0.025-0.009-0.02-0.017-0.042c0.692,1.792,2.855,2.631,4.492,2.102c-0.16,0.487-0.267,0.984-0.21,1.551
		c0.052,0.528,0.265,2.222,0.211,1.558c0.055,0.34,0.178,0.659,0.33,0.963c-2.464-0.067-4.93-0.13-7.394-0.197
		c0.093-0.241,0.201-0.474,0.354-0.724C84.869,100.854,83.632,97.969,81.255,97.315z M66.746,97.815
		c-2.617,0-4.137,2.417-3.67,4.818c0.036,0.188,0.073,0.375,0.109,0.563c-1.756-0.041-3.512-0.097-5.268-0.133
		c0.126-0.426,0.207-0.872,0.27-1.341c0.272-0.714,0.48-1.441,0.44-2.241c-0.026-0.539-0.159-1.051-0.35-1.53
		c0.26,0.845,1.227,1.452,2.062,1.439c-0.559-0.097-0.385-0.077,0.522,0.058c0.455,0,0.921-0.104,1.339-0.279
		c0.95-0.4,1.739-0.849,2.402-1.663c1.313-1.613,1.488-3.83,0.481-5.405c1.973,0.08,3.945,0.156,5.918,0.232
		c-1.533,2.507-0.698,5.765,1.082,8.092c0.767,1.001,1.859,1.406,3.039,0.797c0.484-0.25,0.893-0.625,1.291-1.004
		c-0.049,0.266-0.076,0.539-0.054,0.825c0.067,0.86,0.263,1.679,0.456,2.505c-2.183-0.059-4.364-0.117-6.546-0.174
		c0.048-0.247,0.096-0.494,0.144-0.741C70.882,100.232,69.364,97.815,66.746,97.815z M52.565,91.613
		c1.934,0.068,3.868,0.15,5.801,0.226c-0.813,1.013-1.216,2.377-0.88,3.787c0.078,0.329,0.125,0.657,0.213,0.985
		c0.021,0.078,0.155,0.477,0.281,0.813c-0.722-1.28-1.983-2.196-3.604-2.196c-0.98,0-1.811,0.324-2.48,0.833
		c0.297-0.573,0.559-1.165,0.767-1.765C52.975,93.398,52.897,92.462,52.565,91.613z M37.06,100.197
		c-0.123,1.065,0.104,2.128,0.725,3.028c-0.979,0.067-1.96,0.113-2.938,0.191c0.244-1.018,0.075-2.027-0.302-2.941
		C35.323,100.846,36.297,100.788,37.06,100.197z M32.389,91.272c-0.389,0.856-0.498,1.824-0.141,2.782
		c0.521,1.399,1.011,2.891,1.012,4.396c0,0.079,0.026,0.142,0.033,0.217c-0.496-0.424-1.069-0.766-1.739-0.95
		c-0.961-0.264-2.042-0.158-3.017,0.219c0.246-0.881,0.419-1.768,0.575-2.512c0.293-1.401-0.043-2.777-0.814-3.854
		C29.644,91.422,31.011,91.33,32.389,91.272z M23.062,102.023c0.697,0.351,1.552,0.378,2.579-0.037
		c-0.074,0.767-0.023,1.516,0.184,2.225c-1.028,0.094-2.057,0.191-3.085,0.279C22.922,103.643,23.072,102.828,23.062,102.023z
		 M16.548,94.694c1.209-0.6,2.5-1.102,3.841-1.535c-0.175,1.223-0.125,3.136,0.282,4.906c-1.471-0.667-3.279-0.389-4.472,0.568
		C16.505,97.321,16.751,96.036,16.548,94.694z M10.663,99.077c0.04,0.173,0.081,0.342,0.118,0.517
		c0.413,1.911,2.753,2.398,4.169,1.48c-0.016,0.439,0.032,0.905,0.208,1.406c0.188,0.535,0.195,1.172,0.244,1.766
		c0.023,0.282,0.13,0.493,0.196,0.74c-2.812,0.151-5.626,0.252-8.448,0.209C7.905,102.777,9.14,100.785,10.663,99.077z
		 M22.211,126.866c-8.754-1.104-15.703-2.378-16.022-14.327c-0.033-1.23,0.037-2.375,0.157-3.479
		c11.599,1.913,23.053,0.054,34.76-0.429C31.735,109.919,22.354,117.14,22.211,126.866z M41.557,95.943
		c-0.701,0-1.311,0.183-1.869,0.444c0.329-0.757,0.632-1.534,0.933-2.334c0.36-0.957,0.251-1.926-0.139-2.782
		c1.257,0.019,2.511,0.077,3.767,0.106c-0.23,0.531-0.367,1.108-0.319,1.735c0.018,0.238,0.075,0.771,0.115,1.117
		c0.028,0.303,0.05,0.607,0.071,0.91c0.05,0.763,0.172,1.386,0.408,1.98C43.766,96.42,42.778,95.943,41.557,95.943z M45.684,98.806
		c0.771,0.617,2.064,0.905,2.913,0.566c0.742-0.297,1.339-0.785,1.877-1.337c-0.283,0.797-0.375,1.684-0.197,2.578
		c0.154,0.768,0.606,1.531,1.119,2.179c0.017,0.043,0.036,0.086,0.053,0.129c-1.02-0.015-2.04-0.056-3.06-0.068
		c-0.952-0.011-1.899,0.039-2.849,0.055C46.238,101.651,46.223,100.12,45.684,98.806z M121.18,128.637
		c-0.401-0.694-1.074-1.261-1.922-1.367c-8.611-1.073-17.516-0.516-26.202-0.995c-8.283-0.458-16.539-1.473-24.838-1.565
		c-4.039-9.135-12.38-15.443-22.324-16.16c15.792-0.294,31.729,0.792,47.485,1.312c12.966,0.428,25.94,0.725,38.915,0.889
		C126.019,114.172,122.117,120.456,121.18,128.637z M141.151,104.939c0.21-1.5,0.252-2.886-0.453-4.447
		c-1.054-2.336-5.108-2.336-6.162,0c-0.701,1.552-0.661,2.93-0.455,4.419c-2.248-0.021-4.497-0.029-6.746-0.069
		c2.171-2.785-0.312-7.216-3.806-7.216c-3.426,0-5.891,4.266-3.938,7.059c-2.372-0.058-4.743-0.116-7.114-0.182
		c-0.002-0.025,0.012-0.049,0.009-0.075c-0.022-0.201,0.044-1.141-0.045-0.985c1.494-2.605-0.4-5.971-3.426-5.971
		c-3.007,0-4.947,3.371-3.427,5.971c0.112,0.19,0.249,0.524,0.398,0.886c-2.044-0.056-4.089-0.115-6.131-0.165
		c-0.974-0.024-1.946-0.053-2.919-0.078c0.844-0.953,1.38-2.157,1.236-3.295c-0.227-1.804-1.061-3.351-2.945-3.87
		c-0.934-0.257-2.076-0.088-3.022,0.395c0.162-0.96,0.25-1.938,0.293-2.908c0.025-0.57-0.105-1.097-0.324-1.579
		c2.028,0.011,4.057,0.018,6.086,0c-0.589,1.369-0.443,3.063,0.749,4.295c-0.249-0.415-0.249-0.35,0,0.195
		c0.171,0.441,0.341,0.882,0.51,1.323c0.848,2.201,3.628,2.201,4.476,0c0.112-0.292,0.224-0.583,0.337-0.874
		c0.078-0.201,0.754-1.244,0.173-0.644c1.226-1.265,1.336-3.009,0.692-4.396c2.837-0.048,5.678-0.125,8.517-0.179
		c-1.468,0.925-2.248,2.754-1.841,4.591c0.103,0.462,0.562,1.96,0.222,0.707c0.122,0.45,0.243,0.899,0.365,1.35
		c0.273,1.008,0.5,1.884,1.234,2.689c1.08,1.187,3.225,1.187,4.305,0c0.734-0.806,0.962-1.682,1.234-2.689
		c0.093-0.345,0.186-0.689,0.279-1.034c0.151-0.473,0.103-0.426-0.146,0.142c0.223-0.365,0.375-0.754,0.453-1.165
		c0.419-1.891-0.414-3.784-1.969-4.678c3.386-0.07,6.771-0.168,10.156-0.253c-0.866,0.735-1.447,1.808-1.441,3.041
		c0.009,1.697,0.401,3.457,1.441,4.827c1.984,2.611,5.64,1.682,5.999-1.625c0.084-0.768,0.247-1.393,0.502-2.127
		c0.542-1.556-0.177-3.252-1.416-4.242c3.195-0.09,6.385-0.243,9.577-0.356c-1.25,0.709-2.165,1.984-2.07,3.524
		c0.146,2.422,0.76,4.534,2.371,6.388c1.375,1.582,3.966,0.644,4.505-1.188c0.031-0.109,0.061-0.217,0.092-0.326
		c-0.224,1.657-0.187,3.137,0.235,4.74C145.584,104.896,143.369,104.932,141.151,104.939z M153.218,97.694
		c-1.684-0.986-4.445-0.413-5.364,1.409c0.258-0.927,0.521-1.85,0.871-2.755c0.708-1.825-0.477-3.891-2.111-4.77
		c2.58-0.102,5.165-0.161,7.741-0.288c0.833-0.041,1.656-0.066,2.484-0.102c-1.964,2.26-2.133,5.295-1.335,8.098
		c0.878,3.085,5.109,2.911,6.064,0c0.514-1.567,1.028-3.127,1.57-4.684c0.494-1.422-0.042-2.693-0.993-3.554
		c2.507-0.029,5.006,0.024,7.509,0.199c-0.23,0.328-0.436,0.679-0.573,1.074c-0.683,1.955-0.709,4.062-0.088,6.034
		c-0.272-0.324-0.535-0.659-0.931-0.891c-2.09-1.224-5.217-0.155-5.753,2.341c-0.293,1.364-0.647,2.98-0.038,4.304
		c-2.767,0.23-5.53,0.444-8.288,0.581c0.16-0.634,0.32-1.315,0.613-1.739C155.792,101.227,154.92,98.691,153.218,97.694z
		 M171.561,126.83c-1.951-7.943-7.527-13.446-14.469-16.404c11.02-0.714,22.121-1.825,32.946-0.604
		C189.572,119.309,179.666,124.475,171.561,126.83z"/>
</g>
<g>
</g>
<g>
</g>
<g>
</g>
<g>
</g>
<g>
</g>
<g>
</g>
<g>
</g>
<g>
</g>
<g>
</g>
<g>
</g>
<g>
</g>
<g>
</g>
<g>
</g>
<g>
</g>
<g>
</g>
</svg>
