<?xml version="1.0" encoding="iso-8859-1"?>
<!-- Generator: Adobe Illustrator 16.0.0, SVG Export Plug-In . SVG Version: 6.00 Build 0)  -->
<!DOCTYPE svg PUBLIC "-//W3C//DTD SVG 1.1//EN" "http://www.w3.org/Graphics/SVG/1.1/DTD/svg11.dtd">
<svg version="1.1" id="Capa_1" xmlns="http://www.w3.org/2000/svg" xmlns:xlink="http://www.w3.org/1999/xlink" x="0px" y="0px"
	 width="194.037px" height="194.037px" viewBox="0 0 194.037 194.037" style="enable-background:new 0 0 194.037 194.037;"
	 xml:space="preserve">
<g>
	<path d="M169.407,91.437c-0.765-19.59-6.172-36.902-21.574-49.743c-8.006-6.675-18.411-11.07-29.691-13.399
		c0.926-3.061,1.916-6.087,3.219-9.037c1.092-2.473,2.896-4.862,4.1-7.36c7.226,1.888,14.395,4.099,21.653,6.208
		c3.165,0.92,5.341-3.932,2.277-5.401C120.024-1.366,71.145-8.58,46.314,17.264c-0.511,0.532,0.021,1.224,0.66,1.133
		c7.794-1.098,12.599-5.273,20.27-7.932c1.061,2.931,2.529,5.781,3.74,8.583c1.357,3.14,2.119,7.32,4.208,10.166
		c-13.719,3.396-26.126,9.774-34.569,19.06C28.383,61.738,25.693,82.053,24.728,99.44c-1.373,24.715,0.909,50.894,10.609,73.814
		c0.81,1.914,3.291,1.558,4.47,0.252c4.494,0.996,9.066,1.743,13.683,2.321c-0.961,2.466-2.207,4.829-3.461,7.15
		c-1.606,2.975-3.597,5.946-2.991,9.415c0.386,2.204,3.199,1.985,4.25,0.555c2.027-2.76,2.772-7.117,3.981-10.344
		c0.81-2.163,1.235-4.257,1.32-6.411c22.241,2.387,45.53,0.758,67.402,0.195c4.681-0.119,9.379-0.059,13.843-0.36
		c0.398,1.159,0.863,2.3,1.35,3.426c1.138,2.638,2.928,5.795,5.518,7.201c1.591,0.864,3.982-0.575,3.273-2.517
		c-0.877-2.401-2.674-4.276-4.039-6.415c-0.461-0.722-0.865-1.475-1.285-2.22c8.234-1.26,15.228-4.659,19.084-14.282
		C169.596,141.608,170.217,112.195,169.407,91.437z M71.015,9.345c7.74-1.981,15.922-2.142,23.846-2.088
		c8.62,0.059,16.891,1.384,25.042,3.27c-1.3,2.199-2.131,4.9-2.845,6.918c-1.111,3.138-2.172,6.693-2.428,10.16
		c-11.476-1.892-23.7-1.638-35.212,0.655c0.1-3.133-1.655-5.928-3.064-8.753C74.692,16.177,73,12.613,71.015,9.345z
		 M156.521,156.096c-1.89,8.367-8.934,12.098-17.546,13.677c-0.554-0.246-1.183-0.129-1.613,0.268
		c-11.325,1.699-24.899,0.069-33.171,0.274c-21.5,0.532-42.982-1.021-64.424-0.58C27.312,137.25,23.25,91.142,40.23,59.692
		c18.774-34.773,80.122-35.245,107.43-11.452C174.636,71.742,163.205,126.49,156.521,156.096z"/>
	<path d="M99.208,43.041c-0.087-0.053-0.131-0.14-0.232-0.18c-4.82-1.878-11.207-1.888-16.196-0.738
		c-2.807,0.646-8.26,3.868-7.775,7.508c1.024,7.676,11.447,8.347,17.522,8.897c5.639,0.51,17.869,1.794,20.066-5.584
		C114.8,45.529,104.928,43.135,99.208,43.041z M107.62,52.373c-2.454,3.05-10.6,1.824-13.983,1.595
		c-4.198-0.285-8.474-0.604-12.229-2.665c-0.737-2.541,0.169-3.973,2.718-4.296c1.829-0.665,4.097-0.573,6.021-0.674
		c2.233-0.117,4.471,0.115,6.654-0.172c0.229,0.434,0.627,0.783,1.241,0.916C99.936,47.486,110.764,48.466,107.62,52.373z"/>
	<path d="M147.535,89.893c0.049-5.876,4.278-23.35-2.754-26.302c-0.707-0.297-1.612,0.018-2.188,0.556
		c-13.675-1.736-27.271,0.987-40.963,1.872c-17.028,1.1-34.905,1.63-51.935,0.581c-0.393-0.024-0.706,0.111-0.966,0.308
		c-1.498-0.784-3.95-0.054-4.184,2.216c-1.675,16.227,0.317,31.385,1.243,47.498c0.032,0.558,0.23,0.988,0.498,1.332
		c-1.072,0.354-1.132,2.303,0.148,2.616c31.838,7.791,64.605-1.234,96.908,1.308c2.378,0.188,3.009-2.282,2.053-3.897
		C151.417,111.054,147.467,98.051,147.535,89.893z M141.741,116.518c-30.809-2.779-61.417,4.613-92.269,1.641
		c0.276-0.246,0.523-0.542,0.681-0.946c2.314-5.933,0.116-13.757-0.508-19.875c-0.918-9.005-0.661-18.305,0.16-27.317
		c30.499,5.629,61.505-4.279,91.758-0.445c0.048,0.7,0.098,1.402,0.103,2.096c0.038,5.442-0.406,10.883-0.717,16.313
		C140.411,97.376,143.736,107.258,141.741,116.518z"/>
	<path d="M65.416,134.168c-6.034-3.508-14.978-0.37-17.943,6.007c-3.269,7.032,3.172,15.185,10.374,15.848
		c6.146,0.565,11.424-3.908,13.446-9.438C73.032,141.829,70.478,135.494,65.416,134.168z M66.666,144.801
		c-1.009,2.948-4.151,5.666-7.278,5.907c-3.896,0.301-8.71-4.306-6.813-8.244c1.702-3.53,6.387-5.205,10.411-5.728
		c1.422,1.09,2.891,1.676,3.799,3.396C67.529,141.542,67.149,143.389,66.666,144.801z"/>
	<path d="M137.959,134.681c-0.015-0.017-0.016-0.045-0.031-0.061c-2.75-2.852-7.825-2.382-11.134-0.899
		c-3.672,1.646-6.206,4.665-7.476,8.455c-2.761,8.238,5.727,15.113,13.417,14.405c6.527-0.601,12.306-6.211,13.03-12.726
		C146.329,138.774,142.65,134.524,137.959,134.681z M140.314,143.119c-0.859,3.466-3.866,6.433-7.279,7.298
		c-4.009,1.018-8.872-2.28-7.764-6.599c0.565-2.206,2.554-4,4.43-5.123c1.993-1.193,4.094-1.006,6.228-1.113
		C138.582,138.649,141.178,139.63,140.314,143.119z"/>
</g>
<g>
</g>
<g>
</g>
<g>
</g>
<g>
</g>
<g>
</g>
<g>
</g>
<g>
</g>
<g>
</g>
<g>
</g>
<g>
</g>
<g>
</g>
<g>
</g>
<g>
</g>
<g>
</g>
<g>
</g>
</svg>
