<svg height="511pt" viewBox="-12 0 511 511.99967" width="511pt" xmlns="http://www.w3.org/2000/svg"><path d="m320.320312 294.851562c11.367188-4.824218 18.894532-16.757812 18.304688-29.019531-.632812-13.242187-14.214844-30.457031-29.160156-31.667969-6.605469-.535156-13.496094 1.9375-19.398438 6.960938-6.863281 5.84375-11.519531 14.421875-12.152344 22.394531-.726562 9.144531 2.550782 18.347657 8.761719 24.628907h.003907c5.785156 5.847656 13.9375 9.007812 22.058593 9.007812 3.960938 0 7.914063-.75 11.582031-2.304688zm-34.367187-30.691406c.460937-5.828125 4.128906-12.457031 9.339844-16.894531 4.257812-3.628906 9.066406-5.425781 13.519531-5.0625 9.035156.730469 21.207031 12.507813 21.757812 24.011719.425782 8.820312-5.210937 17.738281-13.398437 21.210937-8.105469 3.441407-18.519531 1.359375-24.761719-4.949219-4.585937-4.636718-7-11.480468-6.457031-18.316406zm0 0"/><path d="m363.707031 288.148438c5.789063 5.847656 13.9375 9.007812 22.0625 9.007812 3.960938 0 7.914063-.75 11.582031-2.304688 11.367188-4.824218 18.894532-16.757812 18.304688-29.019531-.632812-13.242187-14.214844-30.453125-29.160156-31.667969-6.605469-.535156-13.496094 1.9375-19.398438 6.964844-6.863281 5.839844-11.519531 14.421875-12.152344 22.394532-.726562 9.140624 2.550782 18.347656 8.761719 24.625zm-.726562-23.988282c.464843-5.828125 4.128906-12.457031 9.339843-16.894531 3.902344-3.320313 8.257813-5.109375 12.386719-5.109375.382813 0 .757813.015625 1.136719.046875 9.03125.730469 21.207031 12.507813 21.757812 24.011719.421876 8.820312-5.214843 17.738281-13.402343 21.210937-8.105469 3.441407-18.519531 1.359375-24.761719-4.949219-4.585938-4.636718-7-11.480468-6.457031-18.316406zm0 0"/><path d="m347.902344 363.199219c7.867187 0 15.742187-1.128907 23.34375-3.402344 7.683594-2.292969 13.625-5.394531 18.167968-9.476563 5.90625-5.308593 9.277344-13.242187 9.011719-21.222656-.246093-7.378906-3.496093-13.890625-9.15625-18.335937-7.515625-5.898438-20.664062-8.339844-40.195312-7.464844-10.089844.453125-19.90625 2.464844-29.171875 5.972656-4.335938 1.640625-10.660156 4.382813-15.5 9.242188-5.113282 5.132812-7.683594 11.933593-6.878906 18.195312 1.09375 8.511719 8.027343 15.78125 19.523437 20.464844 9.828125 4.007813 20.332031 6.027344 30.855469 6.027344zm42.464844-33.835938c.1875 5.628907-2.183594 11.222657-6.34375 14.960938-3.636719 3.265625-8.570313 5.800781-15.082032 7.746093-1.527344.457032-3.066406.84375-4.613281 1.199219l-.652344-41.871093c9.640625.605468 16.546875 2.515624 20.613281 5.707031 3.753907 2.945312 5.914063 7.300781 6.078126 12.257812zm-40.929688-18.007812c2.148438-.097657 4.195312-.144531 6.171875-.15625l.664063 42.695312c.003906.257813.035156.507813.085937.75-7.472656.859375-15.046875.566407-22.433594-.851562.054688-.300781.082031-.605469.066407-.921875l-2.042969-38.945313c5.679687-1.4375 11.527343-2.304687 17.488281-2.570312zm-43.917969 24.320312c-.488281-3.804687 1.230469-8.097656 4.597657-11.472656 2.882812-2.894531 6.78125-5.175781 12.640624-7.394531.414063-.15625.832032-.296875 1.246094-.445313l1.859375 35.414063c-1.949219-.609375-3.875-1.296875-5.773437-2.070313-5.03125-2.050781-13.613282-6.601562-14.570313-14.03125zm0 0"/><path d="m487.789062 490.210938-.863281-30.851563c-.253906-9.113281-1.039062-18.566406-7.429687-25.203125-6.789063-7.054688-17.132813-7.890625-26.292969-8.117188-19.730469-.488281-39.535156-.742187-59.367187-.78125l-.613282-42.039062c-.003906-.234375-.039062-.464844-.078125-.691406 13.710938-9.90625 31.667969-29.527344 40.402344-67.054688 6.789063-29.175781 5.523437-57.050781-3.671875-80.617187-9.824219-25.1875-28.722656-43.695313-51.179688-52.933594 2.832032-7.4375.890626-16.851563-5.109374-23.359375-3.917969-4.25-8.777344-6.835938-13.492188-8.410156l.660156-42.492188c10.136719-5.289062 17.0625-16.816406 15.875-28.351562-1.511718-14.667969-17.125-27.867188-31.539062-26.640625-6.722656.574219-13.140625 4.433593-18.078125 10.867187-5.484375 7.15625-8.058594 16.25-6.714844 23.726563 1.570313 8.734375 7.707031 16.152343 15.523437 20.171875l-.476562 41.425781c-5.238281 1.1875-9.96875 3.355469-13.894531 6.453125-8.339844 6.578125-12.273438 17.519531-9.949219 26.863281-4.199219 1.746094-8.234375 3.792969-12.074219 6.109375-.058593-.359375-.152343-.71875-.320312-1.066406-1.59375-3.324219-3.402344-7.09375-6.375-10.164062-3.726563-3.84375-8.65625-5.691407-13.1875-4.9375-3.058594.507812-5.570313 2.097656-7.621094 3.871093-1.347656-1.667969-2.976563-3.328125-4.703125-5.066406-4.054688-4.082031-8.648438-8.710937-9.195312-13.566406-.769532-6.878907 1.496093-14.554688 6.734374-22.816407 2.542969-4.015624 5.449219-7.734374 8.519532-11.671874 2.488281-3.1875 5.058594-6.480469 7.40625-9.929688 7.40625-10.878906 12.09375-22.734375 13.554687-34.28125 1.660157-13.132812-.824219-26.136719-6.996093-36.613281-7.097657-12.046875-19.375-21.40625-34.566407-26.359375-17.023437-5.546875-36.183593-4.902344-52.835937 1.703125-.785156-.671875-1.632813-1.289063-2.566406-1.824219-5.015626-2.886719-11.773438-3.003906-18.070313-.320312-4.171875 1.777343-7.75 4.496093-10.957031 7.1875-3.015625-3.460938-6.15625-6.507813-9.445313-9.160157-12.539062-10.113281-29.066406-14.6875-46.539062-12.886719-16.238281 1.679688-32.324219 8.890626-44.125 19.78125-13.414063 12.382813-23.8125 30.035157-30.910157 52.46875-3.542968 11.191407-5.835937 22.242188-6.914062 32.960938-8.011719.941406-15.378906 6.03125-19.015625 13.257812-3.832031 7.609376-3.300781 17.140626 1.347656 24.28125 4.441407 6.816407 12.394531 11.078126 20.511719 11.078126.382812 0 .769531-.007813 1.152344-.027344.179687-.011719.351562-.050782.523437-.082032 7.261719 22.371094 22.03125 40.707032 40.761719 50.746094-1.089844 3.425782-1.703125 6.96875-1.875 10.53125-11.59375 5.097656-23.253906 11.472656-34.546875 17.664063-11.722656 6.425781-23.839844 13.066406-35.679687 18.132812-1.472657.632813-2.433594 2.078125-2.445313 3.683594l-.546875 88.082031c-.03125 5.207032.296875 11.097656 4.628906 15.117188 3.578125 3.320312 8.433594 3.796875 12.144532 3.796875.832031 0 1.605468-.023438 2.296874-.042969l206.53125-6.410156c2.164063-.066406 3.886719-1.828125 3.90625-3.992188l.726563-77.511718c.054687-6.019532.125-13.503907-3.429687-19.941407-3.746094-6.785156-10.566407-10.746093-16.046876-13.925781l-52.085937-30.246094c-.609375-3.371094-1.625-6.667968-3.058594-9.804687 2.066407-1.324219 4.089844-2.738281 6.046875-4.253907 15.039063-11.617187 26.359375-28.082031 32.722656-47.03125.898438.109376 1.800782.171876 2.703126.171876 7.667968 0 15.261718-3.902344 19.574218-10.292969 4.898438-7.25 5.257813-17.210938.890625-24.792969-3.667969-6.367188-10.464843-10.679688-17.71875-11.546875-1.027343-13.148437-4.089843-26.476563-9.117187-39.625 3.523437-1.140625 7.15625-2.566406 10.4375-4.765625 5.652344-3.785156 9.234375-9.476562 9.582031-15.21875.035156-.582031.03125-1.152344.007813-1.71875 12.449218-2.351562 24.667968-.429688 33.65625 5.34375 10.164062 6.527344 16.042968 18.507812 14.292968 29.132812-1.375 8.328126-6.734375 15.34375-12.414062 22.769532-2.757813 3.609375-5.609375 7.339844-8.03125 11.296875-8.539063 13.957031-11.585938 31.160156-8.363282 47.199219 3.054688 15.175781 11.691407 29.136718 23.851563 38.703124-2.738281 3.28125-5.792969 7.851563-5.484375 13.296876.261719 4.644531 2.980469 9.097656 7.453125 12.210937 3.003906 2.089844 6.367187 3.335937 9.507813 4.359375-6.046876 11.832031-10.234376 25.398438-12.320313 40.238281-3.605469 25.613281-.523437 50.449219 8.902344 71.816407 9.058593 20.523437 24.285156 37.644531 42.5 48.082031l.554687 41.210937c-22.664062.71875-45.285156 1.726563-67.800781 3.027344-11.988281.695312-25.097656 2.800781-31.421875 13.15625-3.929688 6.4375-3.824219 14.054688-3.742188 20.175781.050782 3.441407-.054687 6.976563-.167968 10.714844-.234375 7.785156-.472656 15.832031.726562 23.394531 1.6875 10.609375 11.707032 10.742188 17.695313 10.820313l1.234375.019531c27.109375.515625 54.667968.960938 81.324218 1.390625 13.515626.21875 27.03125.4375 40.546876.664063l121.855468 2.054687c.535156.007813 1.078125.015625 1.628906.015625 5.863282 0 12.183594-.679688 16.46875-5.472656 4.070313-4.554688 4.253907-10.558594 4.09375-16.316406zm-102.289062-83.601563c-23.875 6.496094-49.503906 4.949219-72.417969-4.402344l-.171875-12.738281c10.996094 4.867188 22.945313 7.292969 34.722656 7.292969 13.101563 0 25.988282-3 37.109376-8.957031.15625-.085938.320312-.175782.480468-.265626zm-57.265625-320.773437c-.941406-5.238282 1.089844-12.0625 5.175781-17.394532 3.488282-4.546875 7.992188-7.367187 12.359375-7.738281 10.039063-.859375 21.777344 9.136719 22.835938 19.429687 1.054687 10.230469-7.257813 20.855469-17.441407 22.292969-10.179687 1.445313-21.113281-6.46875-22.929687-16.589843zm15.617187 24.367187c1.609376.300781 3.246094.457031 4.890626.457031 1.179687 0 2.367187-.082031 3.550781-.246094.117187-.019531.234375-.042968.351562-.0625l-.585937 37.9375c-.476563-.0625-.941406-.125-1.394532-.175781-2.46875-.273437-4.886718-.359375-7.246093-.277343zm-17.410156 51.441406c5.730469-4.523437 14.234375-6.527343 23.328125-5.519531 5.394531.605469 12.875 2.460938 17.890625 7.902344 3.945313 4.28125 5.304688 10.558594 3.449219 15.171875-16.492187-5.089844-34.480469-5.339844-51.980469.179687-1.109375-6.113281 1.765625-13.363281 7.3125-17.734375zm-252.832031-135.554687c25.753906-23.773438 60.964844-21.996094 80.132813-6.542969 8.042968 6.484375 15.191406 15.714844 21.859374 28.214844 2.222657 4.171875 4.214844 8.375 6.011719 12.601562.015625.285157.0625.574219.144531.859375.171876.585938.472657 1.089844.847657 1.519532 3.652343 9.019531 6.339843 18.132812 8.011719 27.203124-.199219.003907-.394532.007813-.59375.042969-11.945313 2.082031-24.941407-.910156-34.769532-8.007812-9.828125-7.097657-16.757812-18.492188-18.539062-30.484375-.320313-2.175782-2.320313-3.6875-4.507813-3.40625-2.183593.285156-3.730469 2.269531-3.484375 4.453125.6875 6.054687 1.464844 12.914062-.585937 18.65625-1.679688 4.707031-6.3125 9.167969-11.148438 8.484375-3.796875-.535156-6.691406-3.984375-8.078125-5.992188-6.0625-8.769531-6.625-21.042968-7.074218-30.902344-.09375-1.992187-1.625-3.617187-3.605469-3.828124-1.992188-.203126-3.820313 1.0625-4.324219 2.992187-7.507812 28.683594-28.613281 53.296875-55.667969 65.328125.980469-10.433594 3.199219-21.238281 6.671875-32.214844 6.671875-21.078125 16.324219-37.558594 28.699219-48.976562zm-54.207031 112.640625c-3.066406-4.707031-3.429688-11.238281-.902344-16.253907 2.164062-4.304687 6.496094-7.558593 11.222656-8.613281-.464844 11.285157.5 22.117188 2.898438 32.269531-5.191406-.1875-10.386719-3.054687-13.21875-7.402343zm200.84375 119.125c2.527344 4.582031 2.472656 10.628906 2.421875 15.96875l-.6875 73.640625-32.816407 1.019531-1.570312-47.636719c-.074219-2.226562-1.925781-3.960937-4.160156-3.898437-2.226563.074219-3.972656 1.9375-3.898438 4.164062l1.566406 47.621094-130.375 4.042969-4.695312-46.175782c-.226562-2.21875-2.203125-3.835937-4.417969-3.605468-2.214843.226562-3.828125 2.203125-3.605469 4.417968l4.640626 45.613282-23.332032.726562c-3.410156.105469-6.902344.070313-8.703125-1.601562-1.933593-1.796875-2.070312-5.667969-2.046875-9.160156l.53125-85.460938c11.394532-5.054688 22.847656-11.332031 33.949219-17.417969 10.21875-5.601562 20.742187-11.367187 31.113281-16.109375 1.753906 11.789063 8.15625 22.925782 18.054688 29.753906 7.167968 4.945313 15.789062 7.378907 24.425781 7.378907 10.3125 0 20.644531-3.476563 28.507813-10.285157 9.042968-7.828124 14.183593-19.511718 14.683593-31.355468l47.375 27.507812c4.863281 2.824219 10.371094 6.019532 13.039063 10.851563zm-80.375-13.097657c-11.5625 10.011719-30.484375 11.050782-43.078125 2.367188-11.9375-8.238281-17.714844-24.894531-13.804688-38.84375 8.703125 3.460938 18.078125 5.164062 27.582031 5.164062 13.105469 0 26.4375-3.230468 38.511719-9.433593 5.792969 13.527343 1.921875 31.105469-9.210937 40.746093zm17.359375-55.410156c-20.929688 16.164063-49.160157 20.558594-71.925781 11.1875-20.957032-8.621094-37.453126-28.582031-44.132813-53.390625-2.597656-9.636719-3.738281-20.023437-3.46875-30.894531 25.398437-10.082031 46.378906-30.335938 57.820313-55.066406 1.148437 5.953125 3.140624 11.867187 6.753906 17.09375 3.6875 5.335937 8.515625 8.671875 13.585937 9.390625 9.246094 1.304687 17.136719-6.117188 19.867188-13.757813.125-.347656.242187-.699218.347656-1.046875 3.714844 6.082031 8.617187 11.4375 14.453125 15.65625 11.726562 8.464844 26.625 11.894531 40.875 9.410157.136719-.023438.257812-.070313.390625-.109376.304687 2.546876.535156 5.085938.679687 7.617188-.058593.3125-.085937.636719-.066406.972656.023438.285156.074219.558594.148438.824219.21875 5.289063.105468 10.535156-.394532 15.707031-2.566406 26.667969-15.628906 51.496094-34.933593 66.40625zm53.832031-71.539062c2.816406 4.890625 2.578125 11.574218-.582031 16.253906-2.863281 4.234375-8.140625 6.855469-13.269531 6.726562 1.410156-5.539062 2.417968-11.246093 2.980468-17.078124.421875-4.378907.582032-8.804688.519532-13.257813 4.253906.90625 8.203124 3.621094 10.351562 7.355469zm-13.898438-66.660156c-2.660156 1.78125-5.808593 2.96875-9.03125 3.984374-1.652343-3.746093-3.445312-7.46875-5.417968-11.164062-3.023438-5.675781-6.164063-10.730469-9.449219-15.230469 2.863281-2.40625 5.839844-4.691406 9.097656-6.078125 3.984375-1.699218 8.054688-1.738281 10.894531-.109375 3.140626 1.808594 5.09375 5.628907 7.140626 10.074219 1.394531 3.015625 2.972656 6.4375 2.789062 9.511719-.199219 3.246093-2.449219 6.613281-6.023438 9.011719zm41.125 103.910156c-2.828124-14.070313-.15625-29.160156 7.335938-41.402344 2.203125-3.597656 4.804688-7.003906 7.558594-10.605469 6.027344-7.886719 12.261718-16.039062 13.960937-26.355469 2.296875-13.925781-4.894531-28.886718-17.886719-37.230468-10.800781-6.933594-25.292968-9.246094-39.875-6.410156-.535156-1.351563-1.117187-2.632813-1.660156-3.808594-.738281-1.601563-1.582031-3.417969-2.617187-5.234375 14.375-5.101563 30.585937-5.378907 45.074219-.660157 13.320312 4.34375 24.015624 12.433594 30.117187 22.785157 5.269531 8.945312 7.378906 20.136719 5.941406 31.511719-1.300781 10.285156-5.527343 20.921874-12.21875 30.753906-2.199219 3.230468-4.691406 6.421875-7.097656 9.503906-3.058594 3.917969-6.21875 7.96875-8.976563 12.316406-6.246093 9.851563-8.914062 19.28125-7.933593 28.03125.855469 7.648438 6.75 13.582032 11.488281 18.351563 1.816406 1.828125 3.53125 3.558593 4.640625 5.054687.054687.070313.125.121094.179687.1875l-6.710937 7.464844c-10.875-8.398438-18.613281-20.777344-21.320313-34.253906zm22.523438 59.183594c-2.394531-1.664063-3.890625-3.925782-4.011719-6.046876-.179687-3.214843 2.570313-6.5625 5.402344-9.710937l11.996094-13.339844c2.296875-2.550781 4.378906-4.695312 6.667969-5.074219 2.257812-.371093 4.617187 1.09375 6.070312 2.59375 2.0625 2.128907 3.503906 5.132813 4.898438 8.039063.335937.699219.851562 1.246094 1.460937 1.636719-4.511719 3.261718-8.675781 6.914062-12.394531 10.914062-4.140625 4.453125-7.863282 9.414063-11.167969 14.789063-3.15625-1-6.398437-2.042969-8.921875-3.800781zm8.855469 119.777343c-8.820313-19.992187-11.6875-43.3125-8.292969-67.441406 2.304688-16.378906 8.585938-39.710937 25.433594-57.835937 8.269531-8.902344 18.976562-15.949219 30.960937-20.382813 41.808594-15.464844 87.75 6.246094 104.59375 49.425781 10.863281 27.847656 7.804688 56.621094 3.328125 75.859375-4.277344 18.375-15.78125 51.519531-44.757812 67.050781-19.0625 10.21875-43.992188 10.707032-65.058594 1.269532-19.839844-8.882813-36.679688-26.359375-46.207031-47.945313zm43.53125 76.894531c13.667969 5.128907 28.15625 7.726563 42.664062 7.726563 10 0 20.003907-1.238281 29.757813-3.710937l.152344 10.316406c-24.113282.027344-48.257813.398437-72.367188 1.085937zm-9.875 90.289063c-11.140625-.179687-22.441407-.363281-33.796875-.550781l-1.628906-17.660156c-.0625-.707032-.238282-2.582032.105468-3.058594.148438-.207032.828125-.664063 4.035156-.644532l152.785157 1.800782.578125 22.152344-81.527344-1.375c-13.515625-.226563-27.035156-.445313-40.550781-.664063zm174.359375-.050781c-2.417969 2.703125-7.433594 2.851562-11.953125 2.769531l-32.261719-.542969-.683594-26.378906c-.054687-2.167969-1.8125-3.902344-3.984375-3.925781l-156.667969-1.84375c-2.308593-.027344-7.742187-.09375-10.679687 4.003906-2.097656 2.921875-1.773437 6.414063-1.582031 8.5l1.546875 16.78125c-13.136719-.222656-26.320313-.453125-39.394531-.703125l-1.285157-.019531c-7.578125-.097657-9.324219-.8125-9.835937-4.023438-1.082032-6.816406-.851563-14.476562-.628906-21.886719.105468-3.660156.222656-7.449218.171874-11.066406-.089843-6.464844.042969-11.742187 2.558594-15.863281 4.375-7.160156 14.601563-8.707031 25.007813-9.308594 71.277343-4.121093 143.613281-5.3125 214.992187-3.542969 7.90625.195313 16.015625.792969 20.683594 5.644532 4.398438 4.570312 4.960938 11.992187 5.179688 19.839844l.863281 30.851562c.117187 4.304688.050781 8.367188-2.046875 10.714844zm0 0"/></svg>