<svg height="512pt" viewBox="0 -138 512.00024 512" width="512pt" xmlns="http://www.w3.org/2000/svg"><path d="m497.425781 14.894531c-.257812-1.230469-1.074219-2.269531-2.207031-2.8125s-2.457031-.523437-3.574219.050781l-69.234375 35.429688c-.367187.1875-.675781.4375-.960937.710938-3.027344-.609376-6.167969-.925782-9.417969-.875-20.535156.316406-43.078125 15.566406-54.992188 31.730468l-79.074218-20.46875c-5-1.292968-11.222656-2.902344-17.410156-1.738281-6.941407 1.3125-12.554688 5.835937-17.0625 9.46875l-6.761719 5.449219c-6.34375-5.953125-13.28125-11.644532-22.152344-11.464844-5.914063.117188-11.027344 2.972656-15.539063 5.492188-1.097656.613281-2.1875 1.222656-3.289062 1.792968-10.226562 5.289063-22.296875 6.964844-33.597656 4.761719l1.359375-4.445313c.578125-1.894531-.304688-3.925781-2.082031-4.796874l-32.28125-15.839844.957031-4.855469c.050781-.257813.074219-.515625.074219-.78125 0-3.585937-2.445313-4.964844-17.449219-9.828125-8.214844-2.667969-18.1875-5.609375-24.785157-7.554688-3.539062-1.046874-6.335937-1.871093-7.21875-2.167968l-47.808593-16.101563c-1.167969-.394531-2.722657-1.058593-4.367188-1.765625-5.734375-2.460937-12.867187-5.519531-18.398437-3.765625-8.207032 2.605469-8.074219 11.660157-7.996094 17.070313.015625.785156.027344 1.53125.011719 2.214844l-2.136719 106.4375c-.0859375 4.335937-.195312 9.734374 2.480469 14.503906 3.167969 5.652344 9.1875 8.460937 13.582031 10.515625l71.3125 33.300781c1.523438.710938 3.957031 1.847656 6.667969 1.847656 1.1875 0 2.421875-.214844 3.660156-.777344 2.9375-1.34375 4.382813-3.949218 5.171875-6.277343l20.503906 6.226562c.390625.117188.785156.175781 1.171875.175781 1.550781 0 2.988281-.90625 3.652344-2.351562 8.996094 8.398438 20.277344 14.152344 32.382813 16.464844-.273438 2.65625-.078126 5.355468.660156 7.957031 2.679687 9.433594 12.101562 16.246094 21.8125 16.246094.945312 0 1.894531-.0625 2.835937-.195313.347657-.050781.671875-.15625.980469-.28125.332031.410156.652344.832032 1.011719 1.222656 5.003906 5.441407 12.363281 8.265626 19.695312 8.265626 5.542969 0 11.066407-1.628907 15.550781-4.941407 3.882813 3.800781 8.765626 6.363281 13.980469 7.179688 1.171875.1875 2.351563.273437 3.519531.273437 6.75 0 13.285157-2.976562 17.417969-7.992187 4.019531 2.769531 8.738281 4.207031 13.289063 4.207031 4.03125 0 7.929687-1.117188 11.085937-3.40625 4.046875-2.933594 6.597657-7.964844 7.957031-13.636719.101563.007813.203126.035157.3125.039063.371094.003906.742188.007812 1.113282.007812 18.625 0 31.710937-8.960937 43.082031-18.679687 2.234375-1.910157 4.8125-4.488281 5.753906-7.953125 15.886719-.714844 31.570313-7.332032 43.132813-18.253906.289062-.273438.511718-.589844.703125-.917969 5.585937 1.671875 11.449219 2.527343 17.347656 2.527343 11.34375 0 22.800781-3.121093 32.578125-9.492187.875-.570313 1.730469-1.171875 2.570312-1.785156.296876.066406.601563.113281.914063.113281.421875 0 .847656-.0625 1.269531-.203125l70.050782-23.300781c1.699218-.566406 2.824218-2.191406 2.753906-3.984375-1.546875-39.550781-6.449219-79.25-14.570313-117.992188zm-.550781 42.796875c-.753906.15625-1.476562.523438-2.058594 1.113282-10.046875 10.183593-23.773437 16.566406-38.015625 17.773437-2.589843-4.933594-5.851562-9.554687-9.691406-13.605469 6.851563-4.914062 15.890625-6.570312 22.402344-7.386718 2.46875-.3125 5.027343-.5625 7.5-.804688 6.253906-.613281 12.6875-1.257812 18.972656-2.925781.304687 1.941406.601563 3.886719.890625 5.835937zm1.285156 9.082032c.875 6.492187 1.660156 12.996093 2.351563 19.507812-13.09375-.625-26.136719 2.597656-37.414063 9.214844-.570312-3.75-1.539062-7.507813-2.871094-11.183594 14.046876-1.777344 27.488282-7.964844 37.933594-17.539062zm-34.316406 37.789062c10.835938-7.363281 24.417969-11.046875 37.488281-10.160156.484375 5.085937.917969 10.179687 1.289063 15.273437-.09375.039063-.1875.0625-.277344.109375-12.109375 6.335938-26.085938 9.578125-39.792969 9.320313.929688-4.757813 1.375-9.632813 1.292969-14.542969zm26.753906-82.835938c1.484375 7.347657 2.839844 14.730469 4.089844 22.136719-5.847656 1.652344-11.996094 2.257813-18.460938 2.894531-2.527343.246094-5.140624.503907-7.71875.828126-7.84375.984374-18.933593 3.089843-27.453124 9.867187-2.839844-2.21875-5.90625-4.128906-9.164063-5.679687zm-166.578125 138.089844c10.757813-2.742187 21.191407-7.382812 30.421875-13.539062 1.859375 3.015625 4.011719 5.832031 6.4375 8.40625-11.035156 1.9375-21.625 6.171875-30.957031 12.386718zm26.675781-20.757812c-9.296874 6.335937-19.957031 11.003906-30.921874 13.488281-.453126.101563-.863282.292969-1.234376.527344l-11.480468-14.109375c4.394531 1.003906 8.917968 1.503906 13.445312 1.503906 9.757813 0 19.546875-2.308594 28.167969-6.773438.589844 1.824219 1.265625 3.613282 2.023437 5.363282zm1.753907-52.667969c-6.34375 12.101563-8.117188 26.140625-5.785157 39.222656-12.324218 7.011719-27.734374 8.726563-41.292968 4.566407-5.308594-1.628907-10.339844-4.171876-14.882813-7.417969 11.972657-12.886719 17.46875-31.429688 14.546875-48.761719l47.46875 12.285156c-.015625.035156-.039062.070313-.054687.105469zm-132.703125 9.492187c10.761718 6.347657 18.527344 18.03125 20.222656 30.40625-3.484375 1.460938-7.117188 2.570313-10.847656 3.261719-13.984375 2.59375-28.777344-.601562-40.496094-8.585937zm27.75 26.539063c-.746094-3.800781-1.9375-7.492187-3.535156-11 4.75-2.058594 10.636718-1.25 14.761718 1.875-3.324218 3.519531-7.109375 6.589844-11.226562 9.125zm18.988281-19.632813c-.820313 1.464844-1.726563 2.871094-2.675781 4.246094-6.636719-5.164062-16.085938-6.34375-23.75-2.683594-.78125-1.171874-1.621094-2.296874-2.496094-3.402343 6.140625-8.90625 16.007812-15.214844 26.6875-16.972657 11.128906-1.832031 23.023438 1.296876 31.8125 8.363282.242188.191406.5.347656.765625.476562-1.769531 9.214844-6.089844 17.933594-12.5625 24.761719-4.351563-4.21875-8.003906-9.15625-10.640625-14.578125-.65625-1.347656-2.007812-2.222656-3.507812-2.265625-1.507813-.035156-2.898438.746094-3.632813 2.054687zm-17.929687-30.121093c4.003906-3.226563 8.542968-6.886719 13.496093-7.820313 4.410157-.835937 9.230469.414063 13.894531 1.621094l20.417969 5.285156c.011719.074219.011719.152344.03125.230469.9375 3.804687 1.363281 7.710937 1.339844 11.617187-10.105469-6.722656-22.816406-9.550781-34.796875-7.582031-12.21875 2.011719-23.554688 8.996094-30.96875 18.90625-1.75-1.59375-3.625-3.054687-5.59375-4.386719zm-152.730469 101.835937c-.589844 2.996094-1.15625 3.660156-1.4375 3.792969-.3125.140625-1.183594.074219-3.570313-1.039063l-71.3125-33.304687c-4.410156-2.058594-8.203125-4.015625-9.960937-7.148437-1.601563-2.859376-1.519531-6.867188-1.449219-10.402344l2.136719-106.4375c.015625-.769532.003906-1.609375-.011719-2.492188-.082031-5.621094.261719-8.597656 2.375-9.269531.34375-.109375.753906-.160156 1.210938-.160156 3.054687 0 8.273437 2.238281 11.566406 3.652343 1.796875.773438 3.5 1.5 4.96875 1.996094l47.8125 16.105469c1.027344.34375 3.605468 1.105469 7.507812 2.257813 8.453125 2.496093 29.433594 8.6875 36.007813 11.527343zm26.074219 2.191406-17.253907-5.238281 22.886719-115.929687 27.265625 13.378906zm133.589843 6.929688c2.566407-2.527344 5.683594-3.21875 8.328125-3.21875 1.4375 0 2.734375.203125 3.722656.425781 6.492188 1.476563 12.386719 6.273438 14.332032 11.671875.058594.167969.117187.34375.175781.519532-.59375.207031-1.152344.542968-1.613281 1.03125-6.988282 7.472656-19.457032 9.5625-28.527344 4.835937-.558594-4.855469-.367188-11.367187 3.582031-15.265625zm-11.082031 19.566406c-.605469.035156-1.214844.195313-1.78125.523438-5.585938 3.253906-13.230469 2.992187-18.578125-.636719-.335937-.226563-.695313-.378906-1.058594-.492187-.078125-.179688-.152343-.359376-.257812-.53125-.015625-.023438-.03125-.039063-.042969-.058594.085938-.59375.171875-1.1875.292969-1.78125 1.21875-5.910156 4.1875-10.507813 8.140625-12.613282 3.941406-2.097656 10.78125-1.027343 12.9375 1.890626-.820313 4.730468-.414063 9.613281.347656 13.699218zm-29.320312-4.605468c-.242188 1.167968-.417969 2.335937-.542969 3.5-7.578125 3.285156-17.054688 2.246093-23.558594-2.863282-.039063-.03125-.085937-.046875-.125-.078125.726563-1.683593 1.691406-3.253906 2.921875-4.613281 5.730469-6.300781 16.441406-7.566406 23.621094-3.035156-1.007813 2.175781-1.792969 4.550781-2.316406 7.089844zm-32.347657-.765626c-4.050781.023438-8.054687-2.449218-9.828125-6.0625-.027344-.054687-.0625-.097656-.089844-.148437 1.210938-1.265625 2.636719-2.308594 4.230469-3.007813 2.074219-.910156 4.15625-1.1875 5.851563-.777343 1.601562.382812 2.964844 1.492187 3.394531 2.757812.027344.089844.078125.164063.109375.25-1.589844 2.121094-2.808594 4.488281-3.667969 6.988281zm-13.707031 7.804688c-.539062-1.898438-.59375-3.90625-.269531-5.863281 3.242187 3.464843 7.761719 5.703125 12.515625 6.070312-.128906 3.445313.355468 6.914063 1.472656 10.164063-6.058594-.148438-12.058594-4.523438-13.71875-10.371094zm24.820312 13.738281c-2.847656-3.097656-4.347656-7.300781-4.53125-11.574219 4.828126 2.828126 10.367188 4.289063 15.921876 4.289063 3.175781 0 6.34375-.488281 9.386718-1.433594.515625 3.839844 1.679688 7.503907 3.472656 10.800781.054688.097657.113282.191407.167969.289063-7.136719 5.1875-18.4375 4.128906-24.417969-2.371094zm44.542969 7.996094c-5.328125-.835937-10.390625-4.578125-13.207031-9.761719-.992188-1.824218-1.714844-3.808594-2.183594-5.894531 3.398438 1.566406 7.136719 2.359375 10.878906 2.359375 4.34375 0 8.6875-1.074219 12.5-3.21875 1.46875 4.34375 3.417969 8.078125 5.839844 11.171875-2.964844 3.980469-8.550781 6.171875-13.828125 5.34375zm39.324219-5.476563c-4.824219 3.496094-12.136719 1.757813-16.417969-1.945312-3.125-2.699219-5.539062-6.597656-7.242187-11.59375 2.792968.769531 5.683594 1.15625 8.582031 1.15625 7.527344 0 15.070313-2.542969 20.886719-7.328125.308594 7.816406-1.402344 16.511719-5.808594 19.710937zm51.964844-31.875c-11.828125 10.109376-22.882813 16.828126-38.132813 16.730469.347657-6.226562-.464843-12.433593-2.09375-16.96875-2.871093-7.96875-10.964843-14.71875-20.136719-16.800781-7.5-1.699219-14.605468.09375-19.496093 4.917969-1.109375 1.097656-2.023438 2.289062-2.796875 3.539062-5.660156-3.691406-14.136719-3.902343-19.691406-.941406-2.027344 1.074219-3.863282 2.53125-5.488282 4.292969-8.734375-5.597656-20.730468-5.257813-29.351562.390625-1.75-2.519531-4.5-4.414063-7.707032-5.183594-3.453124-.832031-7.246093-.40625-10.980468 1.234375-4.859375 2.132812-8.683594 6.125-10.964844 10.859375-12.179688-2.167969-23.46875-8.289063-31.910156-17.355469l28.855468-94.546875c3.992188.835938 8.078126 1.257813 12.167969 1.257813 9.519531 0 19.054688-2.246094 27.5-6.613282 1.171875-.605468 2.339844-1.257812 3.511719-1.914062 4.046875-2.257812 7.867188-4.390625 11.765625-4.46875 5.566406-.105469 10.765625 3.992188 15.652344 8.515625l-50.847657 40.980469c-.941406.757812-1.492187 1.898437-1.5 3.109375-.011718 1.210937.523438 2.359375 1.457032 3.132812 14.042968 11.660157 33.144531 16.632813 51.09375 13.304688 15.671875-2.90625 29.890625-12.039063 39.191406-24.90625 5.671875 8.796875 13.707031 16.132812 22.96875 21.039062.144531.523438.390625 1.023438.753906 1.46875l36.386719 44.722657c1.597656 1.964843 3.285156 4.203124 3.078125 5.90625-.179688 1.472656-1.847656 3.070312-3.285156 4.296874zm10.113281-9.847656c-1.050781-2.238281-2.550781-4.089844-3.652344-5.445312l-1.113281-1.367188c9.429688-6.132812 20.246094-10.042968 31.429688-11.339844.738281-.085937 1.390624-.375 1.945312-.792968 2.492188 1.769531 5.125 3.324218 7.878906 4.640625-10.074218 8.65625-23.222656 13.832031-36.488281 14.304687zm28.832031-29.117187c-15.683594-14.632813-19.570312-40.816407-9.039062-60.90625 8.464844-16.148438 32.132812-34.359375 52.566406-34.675781.160156-.003907.324219-.003907.488281-.003907 13.910157 0 29.421875 9.199219 37.523438 25.417969 0 .019531-.003907.035156-.003907.050781.042969 1.132813.554688 2.132813 1.339844 2.839844 1.703125 4.019531 2.96875 8.425781 3.664063 13.1875 3.300781 22.558594-7.03125 46.546875-25.128907 58.335937-18.773437 12.234376-45.746093 10.367188-61.410156-4.246093zm80.6875-2.738281c4.90625-6.269532 8.695313-13.476563 11.171875-21.1875 1.1875.046874 2.375.078124 3.566407.078124 13.4375 0 27.035156-3.0625 39.140624-8.828124.238282 3.9375.449219 7.875.621094 11.8125zm0 0"/><path d="m432.085938 88.234375c-5.855469-7.011719-14.03125-10.515625-22.425782-9.601563-10.527344 1.136719-20.503906 6.9375-26.683594 15.511719-5.324218 7.386719-7.242187 16.121094-5.402343 24.597657 2.476562 11.394531 11.976562 20.398437 23.109375 21.902343 1.167968.160157 2.351562.238281 3.546875.238281 6.636719 0 13.570312-2.417968 19.859375-6.984374 6.902344-5.007813 11.886718-11.769532 14.039062-19.042969 2.613282-8.820313.296875-19.023438-6.042968-26.621094zm-1.6875 24.332031c-1.652344 5.578125-5.574219 10.835938-11.046876 14.808594-5.734374 4.160156-11.988281 6.035156-17.589843 5.28125-7.710938-1.042969-14.566407-7.613281-16.308594-15.625-1.730469-7.960938 1.257813-14.273438 4.0625-18.171875 4.792969-6.648437 12.84375-11.328125 21.011719-12.214844 5.675781-.613281 11.273437 1.847657 15.367187 6.757813 4.632813 5.550781 6.359375 12.898437 4.503907 19.164062zm0 0"/><path d="m79.128906 114.25c-6.261718-4.667969-15.003906-5.042969-22.269531-.957031-7.097656 3.988281-11.054687 11.195312-10.332031 18.808593.925781 9.773438 9.945312 17.859376 19.816406 17.859376.140625 0 .285156-.003907.429688-.007813 9.886718-.234375 18.730468-8.5 19.714843-18.417969.660157-6.671875-2.230469-13.457031-7.359375-17.285156zm-.664062 16.488281c-.585938 5.90625-6.027344 11.015625-11.882813 11.15625-5.722656.160157-11.492187-4.894531-12.027343-10.554687-.425782-4.457032 1.914062-8.578125 6.253906-11.019532 2.132812-1.199218 4.441406-1.792968 6.679687-1.792968 2.480469 0 4.871094.730468 6.820313 2.1875 2.867187 2.136718 4.535156 6.167968 4.15625 10.023437zm0 0"/></svg>