<svg height="511pt" viewBox="-23 0 511 511.997" width="511pt" xmlns="http://www.w3.org/2000/svg"><path d="m381.976562 387.640625c-30.957031-12.839844-62.777343-23.945313-93.550781-34.683594l-11.117187-3.882812c-13.773438-4.816407-29.878906-2.011719-44.089844.464843-1.554688.269532-3.082031.535157-4.578125.789063-17.359375 2.90625-34.5625 7.484375-51.128906 13.597656-18.730469 6.914063-36.707031 15.804688-53.433594 26.429688-11.214844 7.121093-23.816406 16.183593-32.277344 29.378906-9.132812 14.253906-11.179687 31.3125-5.339843 44.523437 4.777343 10.800782 15.109374 19.679688 28.34375 24.359376 11.144531 3.941406 22.652343 4.761718 35.457031 5.363281 28.390625 1.332031 56.949219 1.84375 85.484375 1.84375 48.167968 0 96.265625-1.457031 143.355468-2.886719 10.496094-.316406 21.355469-.648438 31.886719-3.800781 12.214844-3.660157 21.8125-10.789063 27.03125-20.078125 9.890625-17.613282 2.539063-40.363282-9.835937-53.734375-12.796875-13.828125-30.546875-21.1875-46.207032-27.683594zm49.011719 77.46875c-4.1875 7.457031-12.113281 13.246094-22.3125 16.300781-9.523437 2.851563-19.839843 3.164063-29.820312 3.46875-74.828125 2.269532-152.207031 4.617188-228.214844 1.046875-12.15625-.570312-23.039063-1.335937-33.144531-4.910156-11.15625-3.941406-19.777344-11.238281-23.660156-20.019531-4.757813-10.765625-2.9375-24.90625 4.753906-36.90625 7.613281-11.878906 19.339844-20.277344 29.8125-26.929688 16.242187-10.316406 33.707031-18.953125 51.898437-25.667968 16.097657-5.941407 32.8125-10.386719 49.671875-13.210938 1.515625-.253906 3.058594-.523438 4.628906-.796875 13.242188-2.308594 28.253907-4.921875 40.042969-.796875l11.125 3.882812c30.664063 10.703126 62.371094 21.769532 93.117188 34.519532 14.898437 6.175781 31.78125 13.179687 43.378906 25.710937 10.394531 11.230469 16.730469 30.054688 8.722656 44.308594zm0 0"/><path d="m448.925781 411.523438c-13.773437-16.816407-32.746093-26.105469-49.835937-34.132813.019531-.1875.042968-.371094.035156-.5625l-5.171875-130.472656c-1.78125-44.859375-3.992187-100.6875-34.898437-142.246094-17.746094-23.863281-44.398438-41.167969-73.40625-47.742187.007812-.195313.019531-.390626-.003907-.589844-.652343-5.953125-4.046875-11.578125-9.308593-15.441406-4.382813-3.21875-10.003907-5.1875-16.253907-5.691407-.273437-.023437-.542969-.03125-.816406-.046875l-.246094-30.601562c-.019531-2.214844-1.820312-3.996094-4.03125-3.996094-.011719 0-.023437 0-.03125 0-2.230469.0195312-4.019531 1.839844-4 4.0625l.25 30.898438c-13.253906 1.972656-25.351562 10.558593-31.160156 22.800781-.234375.492187-.359375 1.007812-.382813 1.523437-8.628906 2.714844-16.960937 6.335938-24.777343 10.84375-10.769531 6.210938-20.730469 14.125-29.730469 23.511719l-25.996094-9.59375c-1.722656-.636719-3.65625-.027344-4.707031 1.480469-.089844.132812-.183594.269531-.273437.40625-13.257813-2.136719-27.613282 5.074218-33.703126 17.0625-6.230468 12.269531-3.320312 28.578125 6.773438 37.933594.171875.160156.355469.292968.546875.417968-.316406 1.089844-.628906 2.179688-.925781 3.273438-.5625 2.0625.582031 4.203125 2.605468 4.882812l18 6.03125c-2.007812 5.425782-3.832031 11.015625-5.460937 16.761719-11.621094 41.035156-12.429687 84-13.207031 125.550781-.003906.160156.023437.3125.035156.46875-4.894531 1.273438-9.847656 2.339844-14.84375 3.171875-.242188-.632812-.496094-1.261719-.761719-1.882812-4.167969-9.554688-10.953125-16.222657-20.179687-19.820313-20.710938-8.078125-47.578125 1.933594-58.167969 6.613282-3.945313 1.742187-8.003906 3.855468-10.957031 7.484374-3.742188 4.601563-4.507813 10.734376-1.902344 15.253907 2.992188 5.203125 9.378906 7.417969 17.976562 6.246093 4.148438-.566406 8.199219-1.523437 12.117188-2.445312 3.773438-.890625 7.339844-1.734375 10.980469-2.253906 5.757812-.824219 13.878906-.957032 19.871093 3.105468 4.636719 3.144532 7.851563 10.160157 5.046876 15.207032-2.910157 5.242187-10.511719 6.332031-13.644532 6.554687-2.335937.167969-4.695312.148438-7.195312.125-4.25-.039062-8.640625-.082031-13.066406.851563-7.722657 1.628906-15.902344 7.226562-16.773438 16.050781-.75 7.617187 4.550781 14.140625 10.132812 17.222656 5.691407 3.144531 12.09375 3.761719 17.644532 4.09375 2.210937.132813 4.546875.226563 6.953125.226563 9.195312 0 19.4375-1.382813 27.738281-7.34375 6.886719-4.941406 11.84375-12.695313 14.6875-22.789063 3.761719-.421875 7.523438-.949219 11.273438-1.585937l-1.132813 38.753906c0 .027344.003906.054688.003906.078125-12.070312 8.8125-25.261719 19.949219-34.222656 35.753906-10.066406 17.746094-12.339844 38.933594-5.933594 55.300781 5.28125 13.503907 16.785157 24.632813 31.554688 30.535157 12.546875 5.015625 25.507812 6.054687 39.933593 6.824219 31.992188 1.695312 64.167969 2.347656 96.320313 2.347656 54.277344 0 108.476563-1.859375 161.539063-3.675782 11.828124-.40625 24.058593-.824218 35.917968-4.839843 13.644532-4.621094 24.339844-13.566407 30.117188-25.1875 10.847656-21.820313 2.703125-50.105469-10.945313-66.769531zm-78.292969-89.828126-.859374-20.460937c-.09375-2.226563-1.992188-3.960937-4.199219-3.859375-2.222657.09375-3.949219 1.972656-3.855469 4.195312l.847656 20.210938c-16.941406-.070312-33.847656-1.78125-50.523437-5.148438-4.875-.984374-10.324219-2.332031-13.25-5.875-1.125-1.359374-1.855469-3.003906-2.324219-4.796874l36.886719 2.351562c.089843.003906.175781.007812.261719.007812 2.109374 0 3.882812-1.640624 4.019531-3.777343.144531-2.222657-1.542969-4.136719-3.765625-4.277344l-37.113282-2.367187c-.378906-.027344-.746093.019531-1.101562.09375 0-.640626.007812-1.277344.019531-1.90625.1875-10.144532 1.027344-20.382813 2.492188-30.425782.90625-6.226562 2.234375-13.25 6.53125-17.800781 1.261719-1.335937 2.742187-2.402344 4.367187-3.273437l-3.285156 22.910156c-.316406 2.207031 1.214844 4.25 3.417969 4.566406.195312.027344.386719.039062.578125.039062 1.972656 0 3.699218-1.449218 3.984375-3.460937l3.773437-26.304687c.023438-.167969.015625-.332032.019532-.5 4.023437-.703126 8.382812-.890626 12.695312-.972657l8.433594-.167969-.804688 18.925782c-5.238281.832031-9.902344 4.269531-12.585937 9.5625-3.535157 6.96875-2.53125 14.796875 2.558593 19.941406 3.195313 3.230469 7.679688 4.925781 12.160157 4.925781 3.023437 0 6.046875-.769531 8.675781-2.363281 6.023438-3.644531 9.0625-11.121094 7.5625-18.601562-1.230469-6.125-5.082031-10.738282-10.355469-12.675782.007813-.0625.023438-.117187.027344-.179687l.835937-19.691407 14.554688-.285156-1.042969 31.414063c-.074219 2.226562 1.667969 4.089843 3.894531 4.164062h.136719c2.164063 0 3.953125-1.71875 4.027344-3.898437l1.046875-31.457032c.003906-.128906-.019531-.253906-.027344-.382812l16.269532-.320312c.097656 2.324218.1875 4.628906.277343 6.898437l2.929688 73.886719c-6.058594.589844-12.125.972656-18.191407 1.136718zm-38.148437-48.863281c1.363281-2.6875 4.089844-5.355469 7.835937-5.355469.394532 0 .796876.03125 1.214844.089844 5.148438.769532 6.515625 5.636719 6.808594 7.109375.695312 3.460938-.21875 7.929688-3.832031 10.117188-3.3125 2.003906-8.214844 1.40625-10.925781-1.335938-3.167969-3.203125-2.574219-7.722656-1.101563-10.625zm-31.972656-71.675781c-.316407-4.582031-1.34375-9.105469-3.144531-13.355469-.730469-1.71875-1.613282-3.398437-2.613282-5.03125l85.855469-.785156c1.058594 6.53125 1.882813 13.082031 2.539063 19.585937zm-176.359375 128.890625c-.847656-8.949219-3.625-17.589844-8.117188-25.351563 7.523438-2.195312 14.902344-4.871093 22.085938-8.003906 6.652344 6.355469 11.265625 14.753906 13.035156 23.785156-8.808594 3.832032-17.84375 7.03125-27.003906 9.570313zm34.503906-13.019531c-2.09375-8.910156-6.535156-17.21875-12.75-23.925782 9.039062-4.4375 17.722656-9.605468 25.953125-15.414062 7.726563 4.960938 13.75 12.355469 17.023437 20.945312.046876.125.113282.242188.171876.359376-3.882813 2.777343-7.855469 5.4375-11.9375 7.945312-5.988282 3.6875-12.160157 7.042969-18.460938 10.089844zm37.066406-22.980469c-3.617187-8.53125-9.535156-15.980469-17-21.433594 6.824219-5.292969 13.285156-11.054687 19.320313-17.226562 8.007812 4.464843 15.035156 10.65625 20.476562 18.03125-7.035156 7.386719-14.65625 14.300781-22.796875 20.628906zm28.339844-26.675781c-5.578125-7.21875-12.519531-13.375-20.359375-18.039063 5.726563-6.410156 11.007813-13.214843 15.769531-20.378906 2.984375 4.621094 6.800782 8.707031 11.351563 11.925781 2.96875 2.097656 6.203125 3.765625 9.601562 5.019532-4.917969 7.480468-10.386719 14.660156-16.363281 21.472656zm-12.59375-69.082032c-.011719 0-.023438 0-.035156 0l-87.332032.792969c1.121094-6.105469 2.429688-12.171875 3.957032-18.1875l90.027344.851563c-1.679688 2.773437-3.027344 5.617187-3.949219 8.433594-.882813 2.683593-1.472657 5.433593-1.808594 8.207031-.277344-.058594-.5625-.097657-.859375-.097657zm24.011719 36.007813c-12.648438-8.945313-18.53125-26.828125-13.683594-41.601563 4.957031-15.109374 20.5-25.785156 31.667969-25.785156.34375 0 .6875.007813 1.027344.03125 10.449218.640625 21.425781 6.261719 28.757812 14.03125.242188.378906.542969.703125.890625.980469 2.464844 2.789063 4.460937 5.828125 5.804687 8.996094 6.078126 14.335937 1.433594 32.472656-10.804687 42.191406-12.164063 9.65625-30.933594 10.152344-43.660156 1.15625zm23.953125-191.613281c4.757812.382812 8.957031 1.820312 12.132812 4.152344 2.8125 2.0625 4.828125 4.933593 5.675782 7.9375-15.574219-2.386719-31.636719-1.765626-47.054688 1.683593 6.582031-9.058593 18.09375-14.683593 29.246094-13.773437zm-60.519532 34.429687c24.726563-14.261719 54.9375-19.121093 82.890626-13.335937 26.988281 5.585937 51.96875 21.125 68.992187 42.808594l-62.84375 1.503906c-2.226563.054687-3.984375 1.902344-3.933594 4.128906.054688 2.191406 1.847657 3.933594 4.03125 3.933594h.097657l66.703124-1.597656c.515626-.011719.996094-.128907 1.445313-.316407 2.371094 3.574219 4.546875 7.246094 6.535156 11.015625l-95.910156-.292968c-.003906 0-.007813 0-.011719 0-2.222656 0-4.027344 1.796874-4.035156 4.015624-.003906 2.226563 1.792969 4.039063 4.019531 4.046876l96.777344.292968h.011719c1.011718 0 1.921875-.382812 2.628906-.996094 1.753906 3.828126 3.328125 7.734376 4.765625 11.699219l-126.121094-3.789062c-2.242187-.089844-4.082031 1.683593-4.152343 3.90625-.066407 2.226562 1.683593 4.085937 3.910156 4.152343l128.25 3.855469h.121094c.234374 0 .460937-.027343.683593-.066406 2.203125 7.164063 3.976563 14.476563 5.40625 21.855469l-90.71875.828125c-8.699219-8.890625-21.226562-15.117188-33.472656-15.871094-11.292969-.691406-22.753906 5.90625-30.890625 14.847656l-93.839844-.886719c12.691406-43.53125 37.027344-77.492187 68.660156-95.738281zm-91.246093 29.535157c3.984375-7.847657 12.703125-12.945313 21.464843-13.027344-7.660156 12.285156-13.882812 25.347656-18.578124 39.023437-5.738282-7.15625-7.058594-17.78125-2.886719-25.996093zm8.015625 36.433593c5.277344-17.933593 13.214844-34.851562 23.632812-50.382812l20.011719 7.386719c-11.574219 13.546874-21.332031 29.695312-28.898437 47.933593zm7.0625 63.964844c.28125.0625.574218.101563.875.101563h.039062l87.84375-.796876c.199219 0 .386719-.03125.578125-.0625.28125 4.929688 1.359375 9.804688 3.160157 14.394532-.035157.050781-.078126.089844-.113282.140625-22.414062 35.683593-58.054687 62.660156-98.226562 75.195312.558594-29.4375 1.21875-59.558593 5.84375-88.972656zm-47.632813 153.183594c-8.414062 6.039062-20.191406 6.175781-29.507812 5.617187-4.671875-.28125-10.011719-.773437-14.226563-3.101562-3.167968-1.75-6.398437-5.429688-6.007812-9.375.445312-4.527344 5.574218-7.929688 10.410156-8.949219 2.808594-.59375 5.738281-.695313 8.800781-.695313.832031 0 1.675781.007813 2.527344.011719 2.554687.023438 5.1875.050781 7.847656-.140625 9.386719-.671875 16.71875-4.566406 20.117188-10.683594 4.011719-7.21875 2.257812-19.136718-7.570313-25.796874-6.523437-4.421876-15.113281-5.90625-25.539062-4.414063-3.996094.570313-7.910156 1.496094-11.691406 2.386719-3.902344.921875-7.589844 1.792968-11.355469 2.308594-1.867188.253906-8.101563.84375-9.898438-2.28125-.902343-1.570313-.398437-4.210938 1.171875-6.144532 1.875-2.304687 4.933594-3.859375 7.957032-5.195312 9.667968-4.273438 34.085937-13.457032 51.980468-6.476563 7.253906 2.828125 12.394532 7.90625 15.714844 15.527344 2.871094 6.585937 3.882812 14.507813 3.195312 24.9375-.710937 10.757813-3.707031 25.125-13.925781 32.464844zm21.089844-50.941407c3.9375-.675781 7.847656-1.480468 11.726563-2.417968 4.804687 7.578125 7.65625 16.234375 8.292968 25.199218-6.613281 1.546876-13.273437 2.742188-19.945312 3.582032.359375-2.359375.636718-4.804688.804687-7.355469.480469-7.234375.199219-13.460937-.878906-19.007813zm85.140625 4.519532c26.945312-16.578125 49.988281-38.957032 66.640625-64.714844.214844-.332031.355469-.691406.464844-1.050781 2.640625.453125 5.328125.6875 8.015625.6875 9.960937 0 19.925781-3.113281 27.6875-9.277344 9.230468-7.328125 14.921875-18.574219 16.195312-30.234375l83.535156.421875c.613282 7.488281 1.039063 14.878906 1.378907 22.078125l-55.171875 1.085938c-11.476563.222656-23.34375 1.144531-31.253906 9.523437-5.628907 5.960937-7.484376 14.179687-8.648438 22.171875-1.511719 10.378906-2.378906 20.953125-2.574219 31.4375-.132812 7.085938.378907 14.40625 4.960938 19.957031 4.605469 5.574219 11.640625 7.386719 17.871093 8.644531 17.542969 3.539063 35.335938 5.316407 53.160157 5.316407 8.511719 0 17.035156-.421875 25.539062-1.234375l1.785157 45c-32.941407-15.15625-66.628907-28.46875-99.277344-41.34375-4.171875-1.648438-8.351563-3.296875-12.535156-4.949219-15.503907-6.132813-33.652344-2.558594-49.664063.597656-1.75.34375-3.472656.683594-5.160156 1.003907-19.550781 3.703124-38.925781 9.527343-57.59375 17.308593-18.746094 7.820313-36.816407 17.628907-53.824219 29.207031l1.011719-34.59375c23.523437-4.988281 46.523437-14.167968 67.457031-27.042968zm271.308594 160.898437c-4.820313 9.699219-13.871094 17.207031-25.480469 21.136719-10.738281 3.636719-22.367187 4.035156-33.613281 4.417969-84.320313 2.890625-171.511719 5.882812-257.152344 1.335937-13.699219-.730468-25.964844-1.703125-37.367188-6.257812-12.710937-5.078125-22.570312-14.550782-27.042968-25.984375-5.539063-14.160157-3.457032-32.703125 5.4375-48.386719 8.671875-15.285156 21.964844-26.050781 33.828125-34.566406 18.324219-13.15625 38.023437-24.167969 58.546875-32.722656 18.148437-7.570313 36.984375-13.234376 55.988281-16.832032 1.703125-.324218 3.445313-.667968 5.214844-1.015625 14.925781-2.9375 31.835937-6.269531 45.140625-1.007812 4.1875 1.652343 8.367187 3.304687 12.546875 4.949219 34.550781 13.628906 70.28125 27.71875 104.925781 43.957031 16.828125 7.886719 35.898438 16.828125 49.066406 32.902343 12.007813 14.660157 19.285156 39.316407 9.960938 58.074219zm0 0"/><path d="m394.0625 407.292969c-8.433594-4.566407-19.507812-4.503907-29.5-.96875-.285156-.203125-.59375-.382813-.9375-.511719-20.101562-7.328125-40.996094-12.785156-62.113281-16.238281-1.398438-5.125-3.675781-10.007813-6.851563-14.355469-9.683594-13.253906-25.679687-19.890625-42.78125-17.765625-17.125 2.136719-31.011718 12.5-37.148437 27.726563-1.460938 3.621093-2.386719 7.402343-2.824219 11.234374-.261719.039063-.523438.105469-.78125.203126l-28.367188 10.554687c-6.859374-7.535156-16.058593-11.6875-26.515624-11.832031-.195313-.003906-.390626-.003906-.582032-.003906-16.394531 0-33.871094 9.691406-43.644531 24.257812-8.671875 12.925781-9.640625 29.589844-2.414063 41.46875 5.632813 9.25 16.390626 15.890625 28.78125 17.769531 2.472657.375 4.953126.558594 7.421876.558594 9.15625 0 18.136718-2.519531 25.761718-7.085937.5.292968 1.066406.492187 1.683594.546874 27.21875 2.308594 54.605469 3.464844 82.003906 3.464844 31.039063 0 62.089844-1.484375 92.894532-4.449218 1.082031-.101563 2.015624-.628907 2.671874-1.390626 7.683594 6.933594 18.226563 10.925782 28.835938 10.925782 2.507812 0 5.019531-.222656 7.496094-.679688 11.660156-2.160156 22.058594-9.234375 27.8125-18.933594 4.960937-8.355468 6.300781-17.398437 3.882812-26.152343-3.085937-11.160157-12.121094-21.492188-24.785156-28.34375zm-39.363281 3.933593c-4.683594 3.09375-8.695313 7.0625-11.46875 11.734376-1.664063 2.800781-2.882813 5.820312-3.71875 8.945312-.21875-.097656-.449219-.183594-.695313-.242188l-39.972656-9.390624c3.460938-7.53125 4.867188-15.992188 4.15625-24.257813 17.523438 3.019531 34.871094 7.445313 51.699219 13.210937zm-132.492188-23.035156c5.027344-12.46875 16.492188-20.96875 30.667969-22.734375 1.761719-.222656 3.507812-.328125 5.234375-.328125 12.121094 0 23.097656 5.34375 30.039063 14.847656 10.261718 14.042969 8.917968 35.773438-2.988282 48.445313-11.90625 12.675781-33.515625 15.367187-48.164062 6.003906-14.65625-9.363281-21.289063-30.105469-14.789063-46.234375zm-10.480469 16.804688c.679688 9.5 4.214844 18.804687 10.085938 26.300781l-29.507812 11.539063c1.875-9.9375.402343-20.40625-4.582032-28.910157zm-72.136718 65.863281c-10.058594-1.523437-18.695313-6.753906-23.097656-13.988281-5.628907-9.242188-4.734376-22.417969 2.21875-32.78125 8.210937-12.238282 23.347656-20.691406 36.957031-20.691406.152343 0 .304687 0 .457031.003906 7.113281.097656 17.078125 2.578125 24.175781 13.824218 7.269531 11.515626 6.148438 28.027344-2.664062 39.253907-8.453125 10.765625-23.738281 16.546875-38.046875 14.378906zm40.941406-5.519531c1.222656-1.226563 2.378906-2.519532 3.445312-3.882813 2.121094-2.699219 3.871094-5.652343 5.257813-8.761719l38.574219-15.085937c1.519531 1.308594 3.136718 2.519531 4.84375 3.609375 7.304687 4.667969 15.847656 6.925781 24.40625 6.925781 12.605468 0 25.238281-4.898437 33.976562-14.199219 1.300782-1.382812 2.492188-2.851562 3.585938-4.378906l42.351562 9.949219c.3125.074219.621094.109375.925782.109375.132812 0 .257812-.019531.386718-.035156-.464844 8.523437 1.867188 17.261718 6.863282 24.453125-54.601563 5.125-109.933594 5.554687-164.617188 1.296875zm227.5-7.664063c-4.589844 7.722657-12.941406 13.375-22.347656 15.113281-12.207032 2.261719-25.386719-2.496093-32.808594-11.835937-7.574219-9.523437-8.714844-23.769531-2.714844-33.871094 5.945313-10.003906 18.183594-15.253906 28.726563-15.253906 4.222656 0 8.171875.84375 11.339843 2.554687 10.585938 5.730469 18.378907 14.476563 20.847657 23.398438 1.84375 6.683594.820312 13.375-3.042969 19.894531zm0 0"/><path d="m137.628906 420.59375c-7.9375 5.289062-13.574218 16.316406-9.269531 25.617188 1.984375 4.277343 5.824219 7.652343 10.535156 9.253906 2.242188.757812 4.46875 1.128906 6.617188 1.128906 6.066406 0 11.539062-2.953125 15.109375-8.421875 5.304687-8.132813 4.46875-18.761719-2.03125-25.851563-5.511719-6.007812-13.542969-6.671874-20.960938-1.726562zm16.238282 23.171875c-1.328126 2.035156-5.191407 6.503906-12.378907 4.0625-2.59375-.878906-4.769531-2.753906-5.8125-5.003906-2.378906-5.140625 1.402344-12.175781 6.421875-15.523438 2.347656-1.5625 6.835938-3.578125 10.546875.46875 4.679688 5.105469 3.914063 11.871094 1.222657 15.996094zm0 0"/><path d="m385.949219 428.503906c-6.199219-3.675781-12.929688-3.648437-17.996094.074219-6.660156 4.894531-9.699219 14.089844-7.226563 21.863281 2.453126 7.691406 10.109376 13.25 18.058594 13.25.296875 0 .59375-.007812.890625-.023437 8.480469-.445313 15.996094-7.316407 17.109375-15.640625.957032-7.144532-3.496094-15.171875-10.835937-19.523438zm2.84375 18.457032c-.605469 4.527343-4.886719 8.410156-9.542969 8.65625-4.636719.253906-9.398438-3.101563-10.839844-7.625-1.433594-4.5.421875-10.050782 4.316406-12.914063 3.300782-2.425781 7.125-.8125 9.109376.363281 4.492187 2.660156 7.480468 7.613282 6.957031 11.519532zm0 0"/><path d="m255.476562 421.34375c1.195313 0 2.402344-.09375 3.609376-.28125 6.617187-1.023438 12.625-4.804688 16.070312-10.113281 4.09375-6.3125 3.945312-15.511719-.375-22.890625-3.9375-6.726563-10.429688-10.472656-17.390625-10.03125-8.316406.527344-16.503906 6.457031-20.371094 14.75-3.351562 7.1875-2.804687 14.667968 1.503907 20.519531 3.738281 5.082031 10.140624 8.046875 16.953124 8.046875zm-11.148437-25.15625c2.617187-5.613281 8.199219-9.773438 13.578125-10.113281 5.519531-.355469 8.78125 4.117187 9.917969 6.058593 2.773437 4.734376 3.003906 10.671876.566406 14.429688-2.214844 3.414062-6.152344 5.855469-10.539063 6.535156-5.085937.785156-10.238281-1.054687-12.835937-4.578125-3.429687-4.664062-1.902344-9.730469-.6875-12.332031zm0 0"/><path d="m274.457031 197.902344c-3.449219-9.019532-12.21875-14.59375-21.828125-13.871094-9.0625.683594-15.917968 6.734375-17.894531 15.796875-1.84375 8.441406 1.894531 17.613281 9.082031 22.304687 3.363282 2.191407 7.355469 3.273438 11.347656 3.273438 4.578126 0 9.152344-1.425781 12.757813-4.242188 6.882813-5.367187 9.632813-15.152343 6.535156-23.261718zm-11.496093 16.90625c-4.050782 3.164062-10.386719 3.40625-14.738282.570312-4.375-2.855468-6.734375-8.671875-5.609375-13.832031 1.203125-5.523437 5.175781-9.066406 10.621094-9.476563.320313-.023437.644531-.035156.972656-.035156 4.8125 0 10.378907 2.625 12.71875 8.746094 1.835938 4.804688.128907 10.832031-3.964843 14.027344zm0 0"/></svg>