<svg id="Capa_1" enable-background="new 0 0 512 512" height="512" viewBox="0 0 512 512" width="512" xmlns="http://www.w3.org/2000/svg"><path d="m503.81 258.323c2.77 1.55 5.56 3.2 8.19 5.06v-4.83c-2.05-1.32-4.15-2.55-6.23-3.72-4.07-2.28-9.5-5.17-15.4-7.31-2.86-1.03-5.68-1.83-8.37-2.36-.11-.02-.3-.07-.52-.13-.86-.21-1.61-.39-2.28-.49v-.03c.14-2.77-.79-4.91-2.76-6.37.18-.5.36-1.05.54-1.66.07-.22.12-.4.16-.51.94-2.58 1.71-5.4 2.3-8.39 1.22-6.15 1.55-12.29 1.7-16.96.25-8.04.04-16.53-3.2-24.2-.33-.79-1.13-1.28-1.98-1.22-.85.05-1.57.64-1.79 1.47-2.01 7.36-4.09 14.97-4.78 22.79-.52 5.83-.24 11.65.06 16.07.29 4.21.63 7.41 1.11 10.38.01.09.02.22.04.38.04.36.08.71.13 1.04-.3.13-.61.29-.92.47-1.08.65-2.05 1.59-2.87 2.79-.76 1.11-1.19 2.16-1.33 3.23-.03.28-.04.56-.03.84-.49.1-1.02.23-1.59.37-.22.06-.41.11-.52.13-2.69.53-5.51 1.33-8.37 2.36-5.81 2.1-11.15 4.94-15.2 7.2-.16-.16-.34-.3-.55-.41l-17.86-8.82c-1.03-.51-2.32-1.15-3.82-1.22-1.19-.04-2.29.27-3.16.52l-43.57 12.67c.02-.55.04-1.11.06-1.65.23-6.83.46-13.66.68-20.49.21-6.55.41-13.11.58-19.66.02-.57.12-1.62.24-2.84.6-6.23.77-10.36-.02-12.85.25-.09.51-.18.76-.28 1.16-.51 2.14-1.18 2.94-1.95.74.95 1.87 1.86 3.13 2.81.24.18.43.32.55.42 3.75 3.17 7.92 6.34 13.54 10.27 2.96 2.07 6.4 4.42 10.17 6.78s7.87 4.72 12.14 6.8c11.47 5.59 23.85 9.1 35.81 12.49.19.06.37.08.55.08.64 0 1.26-.31 1.64-.85.49-.7.48-1.64-.02-2.33-7.88-10.83-19.48-18.22-30.85-24.6-6.62-3.71-15.45-8.42-25.03-11.88-4.63-1.67-9.18-2.96-13.52-3.81-.2-.04-.53-.13-.93-.23-2.11-.54-3.64-.85-4.81-.87.06-.47.1-.91.12-1.28.22-4.29-1.27-7.55-4.43-9.69-.12-.08-.25-.14-.38-.22.4-.92.79-2.09 1.23-3.55.12-.4.21-.72.28-.91 1.51-4.16 2.76-8.72 3.72-13.56 1.98-9.98 2.51-19.97 2.75-27.56.41-13.03.08-26.78-5.14-39.12-.33-.79-1.12-1.28-1.97-1.22s-1.57.65-1.8 1.47c-3.27 12-6.66 24.42-7.79 37.12-.84 9.46-.39 18.93.11 26.12.23 3.42.49 6.43.78 9.2.29 2.76.63 5.27 1.02 7.69.02.16.05.4.08.7.09.94.2 1.83.36 2.64-.73.24-1.49.58-2.27 1.05-1.62.97-3.07 2.38-4.31 4.2-1.12 1.64-1.76 3.19-1.95 4.73-.1.76-.06 1.52.06 2.28-.99.13-2.19.4-3.67.78-.4.1-.72.19-.92.23-4.35.85-8.9 2.14-13.53 3.81-9.58 3.46-18.41 8.17-25.03 11.88-11.37 6.38-22.97 13.77-30.85 24.6-.5.69-.51 1.63-.02 2.33.38.54 1 .85 1.64.85.18 0 .37-.02.55-.08 11.97-3.39 24.34-6.9 35.81-12.49 8.53-4.16 16.4-9.45 22.31-13.58 2.81-1.97 5.26-3.75 7.47-5.42 2.22-1.68 4.2-3.27 6.07-4.85.12-.1.31-.24.55-.42 1.02-.77 1.95-1.51 2.66-2.26.48.41.98.8 1.54 1.11.29.16.58.28.88.41-.94 2.11-1.28 5.06-1.52 8.01-.05.55-.08.99-.12 1.25-.96 6.41-1.9 12.9-2.8 19.28-1.49 10.6-2.9 21.28-4.25 31.97-.28-.07-.58-.09-.89-.03l-106.97 21.89c-4.96-2.12-9.9-4.25-14.8-6.43-15.71-6.96-31.43-14.44-46.76-22.23-2.97-1.52-6.04-3.08-9.55-3.5-5.14-.61-10.03 1.42-14.12 3.34.14-4.44.28-8.88.39-13.33.02-.42.09-1.21.18-2.13.39-4.04.62-7.35.06-9.58.08-.03.15-.05.22-.08.77-.33 1.45-.75 2.03-1.23.58.62 1.33 1.22 2.15 1.83.17.13.31.24.4.31 2.87 2.43 6.07 4.86 10.38 7.87 4.53 3.18 10.57 7.22 17.12 10.42 8.8 4.3 18.28 6.99 27.45 9.59.18.05.37.07.55.07.64 0 1.26-.31 1.64-.85.48-.7.48-1.63-.02-2.32-6.08-8.36-15-14.05-23.73-18.94-5.08-2.85-11.86-6.46-19.21-9.12-3.56-1.29-7.07-2.27-10.41-2.93-.14-.03-.38-.1-.67-.17-1.27-.32-2.35-.57-3.28-.66.02-.18.03-.35.04-.51.18-3.44-1.02-6.06-3.56-7.79.28-.69.53-1.48.8-2.39.09-.29.16-.52.21-.66 1.16-3.2 2.13-6.71 2.86-10.43 1.52-7.67 1.93-15.33 2.12-21.15.31-10.01.05-20.59-3.97-30.1-.33-.79-1.13-1.27-1.97-1.22-.86.06-1.58.65-1.8 1.47-2.51 9.19-5.1 18.7-5.97 28.46-.65 7.26-.3 14.52.08 20.04.36 5.24.78 9.23 1.38 12.95.02.11.03.29.06.5.06.59.12 1.15.21 1.68-.47.18-.95.4-1.44.7-1.3.77-2.46 1.9-3.44 3.34-.9 1.32-1.42 2.57-1.58 3.83-.06.46-.04.93 0 1.4-.72.12-1.51.31-2.41.54-.29.07-.53.14-.67.17-3.34.66-6.85 1.64-10.41 2.93-7.35 2.66-14.13 6.27-19.21 9.12-8.73 4.89-17.65 10.58-23.72 18.94-.51.69-.51 1.62-.03 2.32.38.54 1 .85 1.64.85.19 0 .37-.02.55-.07 9.17-2.6 18.65-5.29 27.45-9.59 6.55-3.19 12.59-7.24 17.12-10.42 4.31-3.01 7.51-5.44 10.38-7.87.09-.07.23-.18.4-.31.65-.49 1.26-.96 1.78-1.45.29.22.6.43.92.61.1.05.2.09.3.14-.62 1.64-.86 3.74-1.03 5.85-.03.4-.06.73-.09.92-.73 4.91-1.44 9.83-2.14 14.74-.27 1.92-.52 3.85-.78 5.77-.27-.04-.54-.02-.81.06-29.74 8.56-60.05 16.62-90.12 23.99.23-11.3.61-22.77.99-33.87.14-4.17.29-8.34.42-12.5.13-4.01.25-8.01.36-12.01 0-.36.06-.96.13-1.68.3-3.05.48-5.61.12-7.44.47-.22.89-.47 1.28-.76.44.43.96.84 1.52 1.26.13.09.24.17.3.23 2.31 1.95 4.88 3.9 8.32 6.31 1.82 1.27 3.93 2.72 6.25 4.16 2.33 1.45 4.85 2.9 7.48 4.19 7.06 3.45 14.65 5.6 21.99 7.68.18.05.36.07.55.07.64 0 1.25-.31 1.64-.85.48-.7.47-1.63-.03-2.32-4.89-6.74-12.06-11.31-19.08-15.24-4.06-2.28-9.49-5.17-15.39-7.31-2.87-1.03-5.69-1.83-8.37-2.36-.12-.02-.3-.07-.52-.13-.86-.21-1.62-.39-2.29-.49v-.03c.15-2.77-.79-4.91-2.75-6.37.18-.5.35-1.05.54-1.66.06-.22.12-.4.16-.51.93-2.58 1.7-5.4 2.3-8.39 1.22-6.15 1.54-12.29 1.69-16.96.26-8.04.04-16.53-3.2-24.21-.33-.78-1.12-1.27-1.97-1.21-.85.05-1.57.64-1.8 1.47-2.01 7.36-4.08 14.97-4.78 22.79-.52 5.83-.24 11.65.06 16.07.14 2.1.3 3.95.48 5.65s.39 3.24.63 4.73c.02.09.03.22.04.38.04.36.08.71.13 1.04-.3.13-.6.29-.91.47-1.09.65-2.06 1.59-2.88 2.79-.75 1.11-1.19 2.16-1.32 3.23-.04.28-.05.56-.04.84-.49.1-1.01.23-1.59.37-.22.06-.4.11-.51.13-2.69.53-5.51 1.33-8.38 2.36-5.9 2.14-11.32 5.03-15.39 7.31-7.02 3.93-14.19 8.5-19.08 15.24-.5.69-.51 1.62-.02 2.32.38.54.99.85 1.64.85.18 0 .36-.02.54-.07 7.34-2.08 14.93-4.23 21.99-7.68 5.26-2.57 10.1-5.81 13.73-8.35 3.45-2.42 6.01-4.36 8.32-6.31.06-.06.17-.14.3-.23.44-.33.84-.65 1.21-.98.15.1.3.21.45.3-.42 1.29-.6 2.86-.73 4.43-.03.31-.04.56-.07.71-.58 3.93-1.15 7.85-1.71 11.78-2.2 15.64-4.16 31.54-5.82 47.23-.26 2.45-.5 4.91-.74 7.37l-34.45 11.58c-4.25 1.43-8.57 2.89-12.84 4.55v4.29c4.66-1.86 9.44-3.47 14.12-5.04l32.72-11.01c-.92 9.49-1.73 19.03-2.45 28.53-14.49 1.67-30.37 3.69-44.39 10.32v4.42c13.62-6.89 29.52-9 44.08-10.68-.07.96-.15 1.92-.22 2.88l-.26 3.52c-.17 2.41-.27 3.87 1.64 4.1h.01c2.33.27 4.67.4 7.01.4 2.56 0 5.13-.16 7.68-.48 1.04-.13 1.8-1.05 1.75-2.09-.15-2.7-.27-5.45-.38-8.25 27.83 1.25 55.8 8.13 81 19.96.06.02.12.03.18.06-.49 5.59-.94 11.19-1.37 16.77-47.55-7.75-94.98-6.24-141.12 4.46v4.91c12.57 2.29 22.99 10.91 30.65 18.16 5.06 4.8 9.94 9.96 14.5 15.35 2.38 2.81 5.07 6.13 6.84 9.85 1.43 3.02 2.26 6.34 2.82 9.05-10.92 1.46-21.41 3.38-31.5 5.78-5.07-10.78-14.77-18.7-23.31-24.56v4.87c7.56 5.39 15.06 11.99 19.35 20.66-6.62 1.67-13.07 3.56-19.35 5.65v4.22c41.62-14.1 90.75-18.82 149.82-14.43 72.56 5.4 143.49 22.16 210.8 49.8 13.05 5.36 24.93 10.73 35.87 16.22.2.15.42.26.65.33 10.8 5.44 20.68 11.02 29.85 16.83h7.35c-10.17-6.75-21.2-13.15-33.39-19.38 29.39-32.9 68.5-57.09 111.05-68.77v-4.16c-44.03 11.87-84.52 36.91-114.74 71.05-10.75-5.35-22.39-10.59-35.12-15.82-4.71-1.94-9.44-3.81-14.19-5.64 12.13-13.42 24.7-27.18 39.09-38.56 16.66-13.17 33.59-21.29 50.34-24.14.45-.07.84-.3 1.12-.61 3.44.34 6.89.7 10.38 1.08 19.26 2.13 41.47 5.16 63.12 11.45v-4.17c-21.59-6.15-43.57-9.15-62.68-11.25-25.02-2.76-48.77-4.42-71.43-4.98h-.03c-2.55-.07-5.09-.11-7.61-.15-.92-17.95-1.3-37.03-1.15-58.93 29.71-5.19 59.94-5.99 89.88-2.38-1.02 10.79-1.93 21.61-2.69 32.35l-.26 3.52c-.17 2.41-.27 3.87 1.64 4.1h.01c2.32.27 4.66.4 7 .4 2.57 0 5.14-.16 7.69-.48 1.04-.13 1.8-1.05 1.74-2.09-.58-10.93-.83-22.53-.76-35.82 13.12 2.86 26.08 6.73 38.65 11.52v-4.29c-12.49-4.68-25.35-8.46-38.37-11.27-.08-.02-.16-.02-.24-.03.02-2.57.06-5.19.11-7.9.22-11.73.62-23.67 1.02-35.21.06-1.92.12-3.83.19-5.75 12.44 5.21 24.94 10.63 37.29 16.18v-4.39c-11.91-5.32-23.96-10.55-35.95-15.57-.4-.17-.82-.19-1.21-.11.03-.95.06-1.91.1-2.86.12-4.01.24-8.01.35-12.01.01-.36.07-.95.14-1.68.29-3.05.47-5.61.11-7.44.47-.22.9-.47 1.28-.76.44.43.97.84 1.53 1.26.12.09.23.17.3.23 2.31 1.95 4.87 3.9 8.32 6.31 1.81 1.27 3.93 2.72 6.25 4.17s4.84 2.9 7.47 4.18c3.67 1.79 7.47 3.23 11.31 4.48v-4.22c-3.27-1.1-6.48-2.35-9.55-3.85-5.01-2.45-9.68-5.58-13.19-8.04-2.27-1.59-4.15-2.97-5.81-4.28 1.81.45 3.67 1.02 5.57 1.71 5.62 2.03 10.86 4.82 14.79 7.03zm-121.43-60.75c.49.12.89.22 1.13.27 4.15.82 8.5 2.05 12.95 3.66 9.3 3.36 17.94 7.96 24.43 11.6 9.14 5.13 18.42 10.91 25.55 18.6-9.83-2.84-19.76-5.98-28.97-10.48-8.28-4.04-15.99-9.21-21.78-13.26-5.51-3.86-9.59-6.96-13.24-10.04-.14-.12-.36-.29-.63-.49.22.05.41.1.56.14zm-26.12.35c-3.64 3.08-7.73 6.18-13.24 10.04-5.79 4.05-13.49 9.22-21.77 13.26-9.22 4.5-19.15 7.64-28.98 10.48 7.13-7.69 16.42-13.47 25.55-18.6 6.49-3.64 15.14-8.24 24.44-11.6 4.44-1.61 8.8-2.84 12.94-3.66.25-.05.65-.15 1.14-.27.14-.04.33-.09.56-.14-.27.2-.49.37-.64.49zm-175.3 31.71c7.07 2.56 13.65 6.07 18.6 8.85 6.44 3.6 12.97 7.64 18.2 12.85-6.94-2.04-13.9-4.32-20.38-7.48-6.3-3.08-12.17-7.02-16.58-10.1-3.66-2.57-6.5-4.69-9.01-6.75 2.94.61 6.02 1.5 9.17 2.63zm-40.96 4.12c-4.41 3.08-10.28 7.02-16.58 10.1-6.48 3.16-13.44 5.44-20.37 7.48 5.22-5.21 11.75-9.25 18.19-12.85 4.95-2.78 11.53-6.29 18.61-8.85 3.14-1.13 6.22-2.02 9.16-2.63-2.51 2.06-5.35 4.18-9.01 6.75zm-63.41-20.59c5.62 2.03 10.86 4.82 14.8 7.03 4.63 2.6 9.32 5.47 13.24 9.05-4.99-1.5-9.96-3.21-14.61-5.47-5.01-2.45-9.68-5.58-13.18-8.04-2.28-1.59-4.15-2.97-5.81-4.28 1.8.45 3.67 1.02 5.56 1.71zm-32.8 2.57c-3.51 2.46-8.18 5.59-13.19 8.04-4.65 2.26-9.62 3.97-14.61 5.47 3.92-3.58 8.61-6.46 13.24-9.05 3.94-2.21 9.18-5 14.8-7.03 1.89-.69 3.76-1.26 5.57-1.71-1.66 1.31-3.54 2.69-5.81 4.28zm423.03 35.1c.07-.06.18-.13.31-.23.43-.33.84-.65 1.21-.98.15.1.29.21.45.3-.43 1.29-.61 2.86-.73 4.43-.03.31-.05.56-.07.71-.59 3.93-1.16 7.85-1.71 11.78-.1.72-.2 1.45-.3 2.17-4.51-2.92-9.31-5.38-14.3-7.35 2.54-1.57 4.86-3.15 6.82-4.52 3.45-2.42 6.02-4.36 8.32-6.31zm-25.16 7.49c3.94-2.21 9.18-5 14.8-7.03 1.89-.69 3.75-1.26 5.56-1.71-1.66 1.31-3.53 2.69-5.81 4.28-3.51 2.46-8.18 5.59-13.19 8.04-4.65 2.27-9.61 3.97-14.6 5.47 3.92-3.58 8.61-6.45 13.24-9.05zm-72.54-123.66c.91-10.21 3.35-20.34 5.99-30.23 2.91 10.08 3.07 21.02 2.73 31.49-.23 7.44-.75 17.22-2.67 26.92-.92 4.63-2.12 9-3.56 12.97-.08.23-.2.63-.35 1.11-.04.14-.1.33-.17.55-.03-.33-.06-.61-.09-.79-.76-4.72-1.3-9.81-1.76-16.53-.48-7.05-.93-16.32-.12-25.49zm-5.12 94.25c.9-6.37 1.84-12.85 2.8-19.24.05-.33.09-.86.15-1.52.42-5.11 1.03-6.82 1.5-7.31.03.01.06.02.09.04.94 1.52.22 9.06-.02 11.56-.13 1.34-.24 2.41-.25 3.11-.18 6.55-.38 13.09-.59 19.64-.22 6.83-.45 13.65-.68 20.48-.65 18.92-1.31 38.49-1.67 57.76-.54 29.63-.25 54.09.91 76.76-6.44-.05-12.81-.02-19.08.12.09-1.34.25-3.42.45-6.22l.06-.84c1.83-25.63 4.12-51.59 6.82-77.15 2.72-25.67 5.92-51.65 9.51-77.19zm-190.28 124.57c10.75-4.19 21.82-7.42 33.06-9.67-9 5.02-17.56 11.46-24.43 18.46-2.68-3.14-5.57-6.07-8.63-8.79zm3.36 8.87c-5.2-1.43-10.46-2.63-15.75-3.54-.12-.02-.24-.03-.36-.03-.1-3.31-.17-6.7-.22-10.17 6 3.89 11.48 8.49 16.33 13.74zm43.82-20.79c.05-.02.1-.05.15-.08 8.57-1.08 17.19-1.61 25.82-1.59-3.08 1.56-6.09 3.47-8.99 5.41-11.51 7.71-21.3 16.35-31.64 27.95-6.76-3.24-13.71-6.06-20.81-8.4 9.64-9.77 22.73-18.39 35.47-23.29zm19.21 7.06c5.52-3.69 11.42-7.24 17.14-8.17.24-.04.46-.13.65-.23 8.34.47 16.66 1.48 24.89 3-10.48 4.98-20.18 11.31-27.73 18.15-9.54 8.64-16.24 18.86-19.5 29.69-8.03-6.04-16.61-11.39-25.6-15.96 9.84-10.93 19.2-19.15 30.15-26.48zm17.64 15.71c8.42-7.63 19.66-14.63 31.66-19.7.03-.01.05-.03.08-.05 4.47.99 8.91 2.12 13.31 3.42 4.97 1.46 9.64 3.06 14.06 4.8-15.25 9.45-26.95 24.98-31.72 42.25-12.63 1.73-24.91 3.91-36.87 6.56-3-2.75-6.09-5.4-9.29-7.94 2.86-10.66 9.34-20.79 18.77-29.34zm63.75-9.61c8.58 3.72 16.1 8.03 22.72 13.01.18.14.38.24.59.31-.39 4.98-.77 9.96-1.13 14.93l-.06.82c-.08 1.14-.23 3.18-.36 4.94-.04.61-.08 1.19-.11 1.69-18.61.52-36.47 1.85-53.66 4.04 5.06-16.58 16.88-31.29 32.01-39.74zm-10.57-8.34c11.42-6.22 24.04-10.64 36.84-12.87-.93 9.98-1.82 19.97-2.61 29.95-9.55-6.92-20.81-12.54-34.23-17.08zm44.36-82.08c-1.72 13.8-3.32 27.63-4.78 41.38-.62 5.92-1.22 11.86-1.8 17.8l-60.85-24.78c-11.01-4.49-22.24-9.06-33.43-13.77zm-175.03-8.53c.17-.16.29-.35.38-.55 1.33.55 2.64 1.21 3.94 1.87 15.37 7.82 31.16 15.33 46.92 22.32 4.74 2.1 9.51 4.17 14.3 6.21.38.45.93.72 1.53.72.05 0 .1-.01.15-.01 12.99 5.52 26.09 10.87 38.9 16.09l61.93 25.22c-.05.58-.1 1.17-.16 1.75-14.82 2.45-29.46 7.73-42.42 15.32-.6-.18-1.19-.37-1.8-.55-42.02-12.39-87.41-10.81-128.45 4.37 2.77-5.23 5.43-10.63 7.39-16.3 3.01-8.64 3.95-16.74 2.8-24.06-.94-6-3.29-11.6-5.57-17.02-.7-1.68-1.43-3.42-2.1-5.13-2.35-6.01-4.8-13.85-2.87-21.26.89-3.39 2.66-6.5 5.13-8.99zm-17.19 1.84c3.88-1.85 8.71-4.16 13.28-3.61.03 0 .06.01.09.01-2.45 2.79-4.23 6.13-5.18 9.74-2.25 8.62.64 17.67 3.01 23.72.69 1.76 1.43 3.52 2.15 5.23 2.28 5.44 4.44 10.57 5.3 16.09 1.05 6.67.16 14.11-2.62 22.13-2.34 6.72-5.74 13.16-9.12 19.4-2.95-2.34-6.05-4.51-9.29-6.47-.08-9-.03-18.59.16-29.03.27-14.7.78-29.64 1.27-44.09.15-4.32.3-8.64.44-12.96.17-.03.35-.08.51-.16zm-2.38-79.47c.64-7.18 2.28-14.32 4.11-21.31 1.77 7.17 1.85 14.84 1.62 22.22-.18 5.67-.58 13.12-2.04 20.5-.65 3.27-1.48 6.37-2.47 9.21-.47-3.21-.83-6.74-1.13-11.21-.37-5.37-.71-12.43-.09-19.41zm-4.74 43.19c.08-.61.38-1.29.91-2.07.66-.96 1.4-1.69 2.19-2.17.64-.38 1.13-.58 1.6-.58.09 0 .17.02.26.03.04.01.08.01.11.02.35.07.71.25 1.14.54 1.37.93 1.94 2.25 1.84 4.3-.05.88-.19 1.5-.45 1.93-.37.62-1.06 1.01-1.59 1.24-1.43.62-3.06.59-4.25-.07-1.17-.65-1.91-1.98-1.76-3.17zm.82 28.88c.7-4.9 1.41-9.81 2.14-14.7.04-.26.07-.67.12-1.19.17-2.09.38-3.39.59-4.2.18 2.09-.19 5.93-.33 7.39-.1 1.04-.18 1.86-.19 2.41-.14 5.01-.29 10.01-.45 15.01-.17 5.22-.34 10.44-.52 15.66-.5 14.47-1.01 29.43-1.28 44.15-.41 22.49-.19 41.07.68 58.28-4.52.45-9.07.48-13.59.08.07-1.01.17-2.43.31-4.25l.05-.69c1.39-19.6 3.14-39.43 5.21-58.96 2.07-19.62 4.52-39.46 7.26-58.99zm-95.82-78.52c.45-5.15 1.56-10.29 2.85-15.34 1.04 5.21 1.08 10.71.91 16.02-.14 4.51-.45 10.44-1.62 16.3-.39 1.97-.86 3.86-1.41 5.64-.26-2.09-.47-4.41-.66-7.18-.18-2.56-.35-5.59-.35-8.8 0-2.17.08-4.41.28-6.64zm-2.44 61.28c-.13 4.16-.27 8.33-.42 12.5-.39 11.55-.8 23.5-1.01 35.27-.33 17.79-.17 32.53.51 46.18-3.32.31-6.67.33-10 .06.06-.77.13-1.78.22-3.03l.04-.52c.12-1.62.25-3.25.37-4.88.07-.24.1-.5.06-.77 0-.01 0-.02 0-.02 1.04-13.79 2.28-27.69 3.73-41.39 1.66-15.66 3.61-31.5 5.8-47.11.34-2.37.68-4.74 1.02-7.11-.09 3.6-.2 7.21-.32 10.82zm-.15-24.64c-.78-.44-1.3-1.36-1.2-2.13.05-.42.27-.92.66-1.48.49-.72 1.04-1.27 1.62-1.62.46-.27.78-.4 1.08-.4.31 0 .59.14.97.4.69.47 1.39 1.2 1.29 3.08-.03.63-.13 1.07-.3 1.36-.19.31-.57.6-1.08.82-1.03.45-2.19.43-3.04-.03zm2.82 108.01c-.29-9.92-.34-20.61-.15-32.73 30.16-7.38 60.58-15.46 90.43-24.04-2.2 16.35-4.2 32.86-5.93 49.21-.96 9.08-1.85 18.23-2.67 27.38-25.47-11.76-53.65-18.6-81.68-19.82zm-2.39 102.07c-.61-2.98-1.53-6.75-3.19-10.25-1.97-4.16-4.86-7.72-7.4-10.73-4.65-5.49-9.63-10.76-14.8-15.66-6.83-6.46-15.76-13.94-26.59-17.6 8.92-1.91 17.89-3.47 26.91-4.69.26.27.59.47.99.56 6.85 1.56 12.99 5.48 18.6 9.48 9.72 6.93 17.31 13.74 23.22 20.82 6.77 8.13 11.44 16.72 13.9 25.56-10.93.44-21.47 1.27-31.64 2.51zm35.74-2.66c-2.54-9.72-7.56-19.12-14.93-27.97-6.13-7.35-13.97-14.39-23.96-21.52-4.08-2.91-8.45-5.78-13.21-7.85 9.91-1.09 19.86-1.77 29.85-2.03.06.03.12.07.19.09 6.53 2.2 12.1 6.77 17.14 11.38 8.68 7.92 14.79 15.03 19.25 22.36 2.58 4.24 4.75 8.84 6.85 13.28.52 1.08 1.14 2.26 1.79 3.51 1.5 2.86 3.18 6.04 3.88 8.68-9.2-.22-18.15-.2-26.85.07zm91.38 4.98c-11.88-1.51-23.82-2.71-35.8-3.61-8.4-.62-16.6-1.06-24.62-1.32-.63-3.38-2.65-7.24-4.45-10.66-.63-1.21-1.23-2.35-1.71-3.36-2.15-4.54-4.37-9.23-7.05-13.65-4.66-7.66-11.01-15.05-19.97-23.24-3.38-3.09-7-6.16-11.02-8.63 19.76 0 39.63 1.62 59.52 4.88-.16 2.25-.34 4.5-.5 6.73l-.05.69c-.07.88-.18 2.43-.28 3.76-.22 3.07-.31 4.35 1.62 4.56 2.9.33 5.81.5 8.72.5 3.19 0 6.38-.2 9.55-.6 1.04-.13 1.81-1.05 1.75-2.09-.21-3.88-.38-7.82-.52-11.85 30.27 5.31 59.37 19.42 82.36 39.85-19.81 4.62-38.77 10.53-57.07 17.76-.18.07-.34.17-.48.28zm70.97 12.76c-20.75-4.86-41.72-8.76-62.87-11.69 36.25-13.6 75.17-22.12 118.25-25.69-20.93 9.11-40.25 22.07-55.17 37.13-.08.08-.15.16-.21.25zm4.55 1.09c16.64-16.3 38.53-29.98 61.91-38.62.39-.15.7-.4.93-.71 7.47-.45 15.06-.77 22.78-.94 3.03.28 6.07.43 9.11.43 3.44 0 6.87-.19 10.29-.55h.08c-26.8 10.44-51.14 27.91-69.45 50-11.8-3.52-23.68-6.72-35.65-9.61zm116.55-40.19c15.74.4 32.01 1.33 48.88 2.79-14.16 4.05-28.35 11.66-42.3 22.69-15.07 11.91-28.06 26.26-40.61 40.17-14.09-5.33-28.33-10.19-42.69-14.58 20.03-23.66 47.17-41.75 76.72-51.07zm-12.44-198.49c-1.74-.97-2.84-2.97-2.62-4.77.12-.9.54-1.87 1.3-2.97.91-1.34 1.94-2.36 3.06-3.03 1.05-.63 1.87-.9 2.67-.82.14.05.28.05.42.07.51.13 1.04.38 1.63.79 2 1.35 2.83 3.25 2.67 6.16-.06 1.26-.27 2.16-.67 2.82-.56.94-1.59 1.53-2.35 1.87-2.05.88-4.38.84-6.11-.12zm27.23 128.2c-7.9.75-15.78 1.8-23.63 3.15.04-4.47.11-9.04.19-13.75.32-17.25.89-34.76 1.47-51.84l44.82-13.03.24-.06c-5.52 3.48-10.26 6.72-12.98 13.42-2.66 6.5-1.8 13.48-.97 20.24.13 1.05.26 2.1.37 3.14 1.25 11.42.69 27.28-9.09 38.02-.2.21-.33.45-.42.71zm5.4-.47c8.84-11.65 9.34-27.28 8.09-38.69-.12-1.06-.25-2.13-.38-3.2-.77-6.25-1.56-12.7.7-18.24 2.4-5.9 6.81-8.66 12.4-12.17.6-.38 1.22-.76 1.84-1.16.16-.1.29-.22.41-.35l14.65 7.24c-5.72 3.45-11.25 7.5-15.26 13.01-.5.69-.51 1.62-.02 2.32.38.55 1 .86 1.64.86.18 0 .37-.03.55-.08 7.34-2.08 14.92-4.23 21.99-7.68.91-.44 1.8-.91 2.68-1.39.21.23.47.42.78.53 5.8 2.1 11.35 4.91 16.49 8.33.21.14.44.22.68.27-1.85 13.57-3.52 27.28-4.95 40.85-.38 3.61-.75 7.24-1.1 10.87-20.35-2.45-40.82-2.89-61.19-1.32zm72.77-52.53c-.14 4.16-.28 8.33-.42 12.5-.4 11.55-.8 23.5-1.02 35.27-.32 17.79-.16 32.53.52 46.18-3.32.31-6.67.33-10 .06.05-.77.13-1.78.22-3.03l.04-.52c1.11-15.64 2.51-31.47 4.16-47.06 1.65-15.66 3.6-31.5 5.8-47.1.33-2.38.67-4.75 1.02-7.12-.1 3.6-.21 7.21-.32 10.82zm3.96-25.43c-.18.31-.56.6-1.07.82-1.03.45-2.2.44-3.04-.03-.79-.44-1.31-1.36-1.21-2.13.06-.43.27-.91.66-1.48.5-.72 1.04-1.27 1.63-1.62.94-.56 1.3-.5 2.05 0 .69.47 1.38 1.2 1.29 3.08-.04.63-.14 1.07-.31 1.36zm.62-18.87c-.39 1.97-.87 3.86-1.42 5.65-.26-2.1-.47-4.42-.66-7.19-.29-4.27-.56-9.89-.07-15.44.46-5.15 1.57-10.29 2.85-15.34 1.05 5.21 1.09 10.71.92 16.02-.14 4.51-.46 10.44-1.62 16.3z"/><path d="m457.78 504.293h5.46c13.03-13.63 29.86-23.22 45.12-31.29 1.24-.66 2.45-1.29 3.64-1.88v-4.44c-1.81.84-3.63 1.78-5.51 2.78-16.56 8.77-34.96 19.29-48.71 34.83z"/><path d="m478.93 129.613c-1.68-2.25-3.53-4-5.52-5.2-6.45-3.9-15.68-2.46-21.47 3.35-3.78 3.8-6.08 9.21-6.56 15.13-2.67-1.93-6.1-2.9-9.49-2.5-2.92.35-5.39 1.62-6.96 3.58-.95 1.18-1.51 2.58-1.67 3.98-3.09-.92-6.41-.98-9.55-.1-3.16.88-5.57 2.65-6.79 4.97-.85 1.63-1.03 3.73-.44 5.56-2.63.43-5.21 1.09-7.72 1.98-3.14 1.12-4.8 3.35-4.22 5.68.25 1 1.29 3.27 5.55 3.27.1 0 .21-.01.32-.01 2.19-.06 4.38-.23 6.5-.39 3.16-.24 6.14-.48 9.16-.38 4.02.13 8.1.03 12.05-.07 2.12-.05 4.25-.1 6.36-.12 12.43-.1 25.03-.1 37.44.03.4 0 1.73.04 3.53.09 3 .09 7.3.22 10.86.29 7.33.14 8.1.15 8.39-1.76h.01c.42-2.73 1.41-9.13-2.82-12.5-1.44-1.14-3.35-1.79-5.82-1.97-2.15-.16-4.26 0-6.33.27 1.83-7.96.09-16.58-4.81-23.18zm10.84 26.89c1.65.13 2.84.49 3.63 1.12 1.79 1.43 1.88 4.38 1.57 7.18-3.33.02-11.54-.22-15.41-.33-1.83-.06-3.19-.1-3.6-.1-12.44-.13-25.06-.13-37.51-.03-2.14.02-4.29.07-6.43.12-3.89.1-7.91.2-11.82.08-3.24-.11-6.47.14-9.6.38-2.07.16-4.21.33-6.29.38-.94.03-1.54-.12-1.8-.24.21-.23.75-.63 1.59-.93 3.27-1.16 6.69-1.9 10.15-2.18.87-.07 1.59-.69 1.79-1.55.19-.85-.19-1.73-.95-2.17-.98-.57-1.28-2.3-.62-3.56.94-1.8 3.11-2.63 4.32-2.97 3.34-.93 7.12-.45 10.12 1.3.79.46 1.81.32 2.44-.35.64-.67.74-1.68.25-2.46-.65-1-.45-2.6.44-3.71.9-1.12 2.48-1.89 4.33-2.11 3.78-.46 7.77 1.63 9.28 4.85.42.89 1.42 1.34 2.36 1.07.94-.26 1.55-1.18 1.44-2.15-.78-6.85 1.2-13.42 5.32-17.55 4.45-4.48 11.73-5.68 16.57-2.76 1.54.94 3.01 2.34 4.38 4.17 4.69 6.31 6 15.16 3.34 22.56-.24.66-.11 1.4.34 1.95.45.54 1.16.81 1.86.7 2.82-.45 5.73-.91 8.51-.71z"/><path d="m331.25 80.773c1.72 0 4.19-.02 7.35-.08 5.77-.11 12.61-.31 17.6-.46 2.94-.08 5.11-.15 5.78-.15 20.14-.21 40.58-.22 60.74-.05 3.44.03 6.95.11 10.35.2 6.38.16 12.98.32 19.46.11 4.97-.16 10.07.24 15 .62 3.42.26 6.96.54 10.48.63.18 0 .35.01.51.01 5.8 0 7.36-2.71 7.77-4.36.79-3.16-1.53-6.13-6.05-7.74-4.49-1.59-9.13-2.73-13.84-3.38 1.5-2.91 1.37-6.65-.08-9.44-1.81-3.47-5.45-6.12-10.25-7.45-5.38-1.5-11.13-1.24-16.32.68.09-2.56-.76-5.22-2.5-7.39-2.35-2.91-6.07-4.81-10.48-5.34-6-.72-12.1 1.4-16.35 5.32-.28-10.24-3.98-19.71-10.41-26.17-9-9.04-23.32-11.29-33.31-5.25-3.08 1.87-5.97 4.6-8.59 8.12-8.1 10.89-10.73 25.31-7.15 38.34-3.86-.57-7.81-.99-11.83-.7-3.76.28-6.62 1.25-8.76 2.95-5.58 4.44-5.13 12.54-4.11 19.11.29 1.84 1.86 1.85 4.99 1.87zm1.61-17.85c1.49-1.19 3.64-1.87 6.57-2.09 4.66-.34 9.46.42 14.1 1.16.69.11 1.4-.16 1.85-.7.45-.55.58-1.29.34-1.95-4.45-12.38-2.25-27.2 5.6-37.75 2.31-3.11 4.82-5.49 7.45-7.08 8.32-5.04 20.8-3 28.4 4.64 6.95 6.98 10.31 18.01 8.99 29.5-.11.97.5 1.89 1.44 2.15.94.27 1.94-.18 2.36-1.07 2.72-5.78 9.59-9.39 16.34-8.58 3.31.4 6.17 1.81 7.83 3.88 1.77 2.2 2.12 5.42.8 7.47-.49.78-.39 1.8.25 2.46.64.67 1.65.81 2.44.35 5.15-3 11.64-3.83 17.38-2.23 2.15.6 6.03 2.11 7.77 5.45 1.24 2.37.87 6.05-1.49 7.42-.75.44-1.13 1.32-.94 2.17.19.86.92 1.48 1.79 1.55 5.72.47 11.36 1.68 16.77 3.6 1.92.69 3.76 2 3.51 3.01-.26 1.04-2.47 1.37-4.29 1.31-3.42-.09-6.91-.36-10.28-.62-4.23-.33-8.58-.66-12.94-.66-.83 0-1.66.01-2.5.04-6.37.2-12.91.04-19.23-.12-3.42-.08-6.95-.17-10.41-.2-20.19-.17-40.65-.16-60.82.05-.67 0-2.87.07-5.85.15-6.75.2-21.51.62-26.1.53-.72-5.4-.74-10.98 2.87-13.84z"/><path d="m240.23 167.883c-2.67-1.93-6.1-2.9-9.49-2.5-2.92.35-5.39 1.62-6.97 3.58-.94 1.17-1.5 2.57-1.66 3.98-3.09-.93-6.41-.98-9.55-.11-3.16.88-5.57 2.65-6.79 4.98-.85 1.63-1.03 3.73-.44 5.56-2.63.42-5.21 1.09-7.72 1.98-3.14 1.12-4.8 3.35-4.22 5.68.25.99 1.29 3.26 5.55 3.26h.32c2.19-.06 4.38-.23 6.5-.39 3.16-.25 6.14-.48 9.16-.38 4.02.13 8.1.03 12.05-.07 2.12-.05 4.25-.11 6.36-.12 12.43-.11 25.03-.1 37.44.03.4 0 1.73.04 3.53.09 3 .09 7.3.21 10.86.28 7.33.14 8.1.16 8.39-1.75.17-1.05.42-2.66.42-4.42 0-2.8-.63-6.01-3.23-8.08-1.44-1.15-3.35-1.79-5.82-1.98-2.16-.16-4.27.01-6.33.28 1.83-7.96.09-16.59-4.82-23.18-1.67-2.25-3.53-4-5.51-5.2-6.45-3.91-15.68-2.47-21.47 3.35-3.78 3.8-6.08 9.21-6.56 15.13zm25.96-15.06c1.54.93 3.01 2.33 4.38 4.17 4.69 6.3 6 15.16 3.34 22.55-.24.67-.11 1.41.34 1.96.45.54 1.16.8 1.86.69 2.81-.44 5.72-.91 8.51-.7 1.65.12 2.84.49 3.63 1.12 1.79 1.43 1.88 4.38 1.57 7.17-3.32.02-11.54-.21-15.41-.33-1.83-.05-3.19-.09-3.6-.09-12.44-.13-25.06-.14-37.51-.03-2.14.01-4.28.07-6.43.12-3.89.1-7.91.2-11.82.07-3.24-.1-6.47.15-9.6.39-2.07.16-4.21.32-6.29.38-.95.02-1.54-.12-1.8-.24.21-.24.75-.63 1.59-.93 3.27-1.17 6.69-1.9 10.15-2.18.87-.07 1.59-.7 1.79-1.55.19-.85-.19-1.73-.95-2.17-.98-.57-1.28-2.3-.62-3.56.94-1.8 3.11-2.64 4.32-2.98 3.34-.93 7.12-.44 10.11 1.3.8.47 1.82.32 2.45-.34.64-.67.74-1.69.25-2.47-.65-1-.45-2.59.44-3.71.9-1.12 2.48-1.89 4.33-2.11 3.78-.46 7.77 1.63 9.28 4.86.42.88 1.42 1.33 2.36 1.07.94-.27 1.55-1.18 1.44-2.15-.79-6.86 1.2-13.42 5.32-17.56 4.45-4.47 11.73-5.68 16.57-2.75z"/><path d="m36.24 124.843c2.42.01 5.94-.03 10.43-.11 8.18-.16 17.9-.44 25-.65 4.07-.12 7.28-.21 8.21-.22 28.66-.29 57.69-.31 86.31-.07 4.89.04 9.88.17 14.71.29 9.05.22 18.42.45 27.61.16 7.11-.24 14.37.33 21.4.87 4.85.38 9.86.76 14.84.9.23 0 .46.01.69 0 5.72 0 9.34-1.95 10.23-5.54 1.21-4.83-3.37-8.33-8.05-10-6.72-2.39-13.68-4.04-20.76-4.93 2.65-3.98 2.64-9.6.51-13.69-2.46-4.72-7.45-8.33-14.04-10.17-7.91-2.2-16.4-1.66-23.95 1.44.5-3.82-.62-8.01-3.22-11.24-3.19-3.98-8.28-6.56-14.32-7.29-8.97-1.07-18.09 2.43-23.94 8.73.04-15.09-5.18-29.15-14.58-38.58-12.52-12.58-32.42-15.73-46.29-7.33-4.28 2.59-8.3 6.39-11.96 11.31-11.62 15.61-15.2 36.4-9.66 54.99-5.85-.89-11.85-1.63-17.91-1.18-5.17.39-9.09 1.7-11.99 4-7.59 6.04-6.95 17.26-5.53 26.36.29 1.91 1.92 1.92 6.26 1.95zm1.76-25.18c2.25-1.79 5.45-2.81 9.8-3.14 6.71-.5 13.58.59 20.21 1.65.7.11 1.41-.15 1.86-.7.45-.54.58-1.28.34-1.95-6.42-17.84-3.25-39.2 8.07-54.42 3.35-4.49 6.99-7.95 10.82-10.27 12.34-7.47 30.13-4.58 41.39 6.73 10.04 10.09 14.9 26.01 13 42.59-.11.97.5 1.89 1.44 2.15.95.27 1.94-.18 2.36-1.07 4.01-8.53 14.14-13.87 24.07-12.67 5 .6 9.15 2.67 11.69 5.82 2.78 3.46 3.28 8.33 1.19 11.6-.5.77-.4 1.79.24 2.46.64.66 1.65.81 2.45.34 7.5-4.36 16.97-5.57 25.33-3.24 3.19.89 8.94 3.13 11.56 8.16 1.94 3.72 1.42 9.42-2.43 11.66-.76.44-1.14 1.32-.95 2.17.2.86.92 1.48 1.79 1.55 8.2.67 16.29 2.4 24.05 5.16 2.16.77 6.11 2.87 5.51 5.26-.61 2.48-5.47 2.55-6.94 2.51-4.87-.13-9.83-.52-14.64-.89-5.99-.46-12.15-.94-18.31-.94-1.17 0-2.35.02-3.52.06-9.08.29-18.38.06-27.38-.16-4.85-.12-9.86-.25-14.77-.29-28.65-.24-57.71-.22-86.39.07-.97.01-4.04.1-8.29.22-9.99.29-32.18.94-37.84.72-1.15-8.11-1.31-16.68 4.29-21.14z"/></svg>