<svg id="Capa_1" enable-background="new 0 0 512 512" height="512" viewBox="0 0 512 512" width="512" xmlns="http://www.w3.org/2000/svg"><path d="m389.47 422.675c-.25.3-.39.66-.43 1.02-69.07-3.19-137.95-10.79-205.95-22.75.01-2.43-.18-4.91-.62-7.4-1.09-6.2-3.31-11.33-6.6-15.25-9.32-11.08-23.68-10.1-36.36-9.23-1.88.13-3.74.25-5.54.34-17.02.78-34.65 2.28-52.41 4.43-6.68.82-13.89 1.99-19.82 5.23-.89-.45-1.83-.59-2.31-.65-19.75-2.66-39.7-2.72-59.43-.23v4.03c19.01-2.44 38.22-2.46 57.26-.04-1.12.99-2.18 2.09-3.11 3.34-3.87 5.21-4.85 11.77-5.24 16.25-.62 6.98-.16 13.41 1.35 19.13 1.42 5.41 3.74 9.61 6.87 12.49 3.59 3.3 8.17 4.84 11.75 5.82 7.05 1.93 14.21 2.66 21.41 2.66 11.71 0 23.52-1.93 35.08-3.83 4.53-.74 9.22-1.51 13.78-2.14l2.19-.3c11.78-1.59 25.12-3.4 33.67-12.51 4.39-4.68 7.08-11.06 7.85-18.12 19.51 3.42 39.09 6.47 58.72 9.18-48.49 13.65-91.95 42.1-123.86 81.11h5.18c33.25-39.54 78.71-67.67 129.08-79.69 8.79 1.16 17.59 2.22 26.4 3.23-44.36 13.6-72.6 41.52-103.72 76.46h5.37c31.27-34.9 60.03-62.34 106.07-74.52.53-.14.95-.48 1.21-.92 10.06 1.1 20.13 2.09 30.21 3-20.79 8.11-40.15 19.26-57.64 33.23-15.85 12.68-27.18 25.56-34.45 39.21h4.57c7.03-12.47 17.69-24.35 32.38-36.08 19.19-15.34 40.68-27.23 63.86-35.33.16-.06.31-.14.44-.23 5.89.5 11.79.97 17.68 1.4-22.74 12.12-43.64 28.61-60.64 47.9-5.27 5.97-11.32 13.53-15.2 22.34h4.4c3.69-7.65 9.08-14.34 13.8-19.7 17.59-19.95 39.43-36.87 63.15-48.91.49-.25.84-.68 1-1.17 6.79.48 13.58.91 20.38 1.3-12.86 8.37-26.05 17.81-37.53 29.6-11.7 12.02-20.18 25.34-24.8 38.88h4.24c4.53-12.53 12.51-24.88 23.43-36.09 12.56-12.91 27.32-22.99 41.4-31.97.02-.01.03-.03.05-.04 6.52.34 13.04.64 19.57.91-5.74 4.07-12.02 9.2-17.33 14.21-10.2 9.62-17.42 18.17-22.72 26.9-5.17 8.51-8.53 17.39-9.9 26.08h4.05c1.35-7.97 4.49-16.14 9.26-24 5.12-8.42 12.12-16.7 22.05-26.07 6.62-6.25 14.77-12.67 21.35-16.86 7.09.26 14.19.48 21.28.65-17.91 20.23-29.25 43.49-32.3 66.28h4.05c3.18-22.79 14.97-46.1 33.54-66.16 11.04.22 22.09.35 33.14.35 15.98 0 31.96-.25 47.92-.73v-3.99c-5.27.16-10.53.29-15.8.39 4.62-3.29 10.02-5.51 15.8-7.29v-4.18c-8.33 2.46-16.06 5.71-22.22 11.57-.01.01-.01.02-.021.02-8.89.14-17.79.21-26.69.2 9.52-8.25 18.61-14.57 27.67-19.25 7.1-3.66 14.21-6.33 21.26-7.99v-4.1c-7.67 1.72-15.4 4.57-23.1 8.54-10.43 5.38-20.85 12.84-31.85 22.79-12.85-.05-25.71-.27-38.56-.63 26.1-23.85 58.89-40.58 93.51-47.82v-4.09c-36.96 7.56-71.9 25.74-99.2 51.74-6.38-.2-12.76-.44-19.14-.71 30.44-36.49 72.18-62.23 118.34-73.14v-4.1c-47.929 11.11-91.229 37.91-122.529 76zm-307.68 13.8c-.35.23-.6.55-.75.91-3.74-.39-7.45-1.04-11.1-2.03-4.68-1.28-7.79-2.8-10.1-4.92-2.56-2.35-4.49-5.91-5.72-10.56-1.39-5.27-1.8-11.25-1.23-17.76.56-6.35 1.98-10.87 4.47-14.21 1.26-1.7 2.81-3.09 4.54-4.25.2-.02.41-.07.6-.16.37-.16.66-.43.87-.75 1.73-.97 3.61-1.75 5.58-2.38.14-.01.29-.03.43-.06 1.82-.49 4.15.64 6.39 1.73.75.37 1.49.73 2.2 1.03 9.88 4.19 17.14 14.18 18.09 24.87.92 10.56-5.07 22.56-14.27 28.54zm90.3-16.13c-7.57 8.08-19.63 9.71-31.28 11.29l-2.2.3c-4.62.63-9.33 1.41-13.89 2.15-12.57 2.06-25.44 4.17-38 3.71 8.78-7.2 14.27-19.36 13.32-30.21-1.07-12.12-9.31-23.45-20.51-28.2-.65-.28-1.32-.61-2.01-.94 0 0-.01-.01-.02-.01 1.53-.24 3.05-.44 4.54-.62 17.67-2.15 35.2-3.64 52.11-4.42 1.83-.08 3.72-.21 5.64-.34 12.29-.84 25.01-1.71 33.02 7.82 2.83 3.37 4.76 7.87 5.72 13.36 1.78 10.15-.62 19.92-6.44 26.11z"/><path d="m497.76 90.665c-5.97 5.37-9.07 12.98-11.8 19.7-1.19 2.92-2.4 5.9-3.43 8.96-5.47-11.5-17.62-19.6-30.5-19.61h-.04c-4.18 0-8.62.77-13.58 2.36-8.01 2.56-15.69 7.39-21.08 13.25-5.29 5.76-8.06 12.11-8.15 18.59-8.53-5.68-20.36-6.42-29.34-1.38-9.47 5.31-15.11 16.69-13.98 27.44-8.02-2.09-16.5-3.75-24.96-3.23-8.75.55-16.63 3.54-22.34 8.38-.87-9.22-6.77-17.86-15.3-21.7-8.39-3.77-18.55-2.55-25.99 2.68 1.27-9.88 2.28-21.29.14-32.19-2.8-14.21-10.97-25.59-21.86-30.43-9.12-4.05-20.1-3.39-28.66 1.74-7.33 4.39-12.62 11.91-14.43 20.23-14.26-14.8-29.98-27.45-48.36-25.43-14.98 1.65-27.8 14.15-29.81 29.08-1.43 10.59 2.29 21.09 6.05 30.06-10.25-2.64-21.66-.01-29.6 7.09-8.18 7.32-12.04 18.83-10.18 29.57-12.03-3.27-25.62-.39-35.32 7.44-.9-6.12-4.44-11.78-9.68-15.16-4.87-3.14-10.91-4.13-16.51-2.9l8.05-13.77c4.43-7.59 9.94-17.04 9.42-27.32-.37-7.36-4.02-14.35-10.28-19.7-5.89-5.05-13.57-8.08-21.07-8.32-8.44-.26-17.2 2.46-25.17 7.6v4.8c7.84-5.63 16.62-8.67 25.05-8.4 12.69.41 26.76 10.24 27.47 24.22.47 9.1-4.72 17.97-8.88 25.1l-10.84 18.57c-.45.77-.33 1.75.29 2.4.62.64 1.59.79 2.39.37 5.48-2.95 12.68-2.67 17.91.71 5.23 3.37 8.46 9.81 8.04 16.02-.06.84.41 1.62 1.18 1.96.26.12.54.18.81.18.53 0 1.05-.21 1.44-.61 9.49-9.79 25.01-13.21 37.74-8.32.71.27 1.52.12 2.08-.4s.77-1.31.55-2.04c-3.02-10.07.34-22.01 8.18-29.02 7.83-7.01 20.06-9.03 29.74-4.91.75.32 1.62.15 2.2-.43.57-.58.74-1.45.42-2.2-4.02-9.32-9.02-20.9-7.52-32.05 1.75-12.95 13.29-24.22 26.28-25.64 10.55-1.16 23.66 1.33 47.85 27.18.54.58 1.37.78 2.12.52.75-.27 1.27-.95 1.33-1.74.63-8.68 5.66-16.84 13.12-21.31s17.02-5.05 24.97-1.52c9.7 4.32 17.02 14.62 19.56 27.55 2.41 12.26.58 25.53-.9 36.19-.12.87.35 1.72 1.14 2.09.8.37 1.75.18 2.33-.48 6.16-6.87 17.16-9.19 25.57-5.41s13.97 13.55 12.92 22.71c-.1.88.39 1.73 1.21 2.07.81.35 1.76.11 2.32-.57 5.01-6.1 13.42-9.95 23.08-10.54 8.95-.56 18.11 1.54 26.67 3.9.68.19 1.41 0 1.92-.49s.72-1.21.56-1.9c-2.37-9.95 2.58-21.23 11.49-26.23 8.92-5.01 21.12-3.36 28.39 3.84.62.62 1.57.76 2.35.34.77-.41 1.189-1.28 1.02-2.14-3.16-16.34 14.32-28.41 26.08-32.18 4.56-1.46 8.6-2.17 12.36-2.17h.04c13.03.01 25.67 9.94 28.77 22.6.22.89 1.02 1.52 1.94 1.52h.02c.93-.01 1.73-.65 1.93-1.56 1.12-4.91 3.08-9.74 4.98-14.4 2.57-6.32 5.48-13.48 10.77-18.23 3.28-2.95 7.35-4.86 11.56-6.2v-4.17c-5.1 1.48-10.14 3.71-14.24 7.39z"/><path d="m362.65 174.145c-9.05 1.24-17.25 5.18-25.18 8.99l-118.87 57.1c-21.01-15.43-41.6-31.43-61.64-47.9-2.32-1.91-4.96-4.07-8.21-5.07-6.32-1.95-12.6.95-18.48 4.09l-130.27 69.4v4.53l132.15-70.4c3.25-1.73 6.61-3.38 9.87-3.99-11.13 10.18-17.32 24.87-22.28 38.01l-1.16 3.08c-5.01 13.36-10.19 27.16-19.78 37.48-.17.19-.3.4-.38.62-36.64.97-68.93 5.79-98.42 14.61v5.01c5.16 1.88 10.29 5.28 16.06 10.64 11.56 10.74 20.57 24.13 26.18 38.87-5.68-.95-11.46-1.97-17.39-3.02-7.8-1.38-16.42-2.9-24.85-1.9v4.03c8.02-1.05 16.5.45 24.15 1.81 23.21 4.12 44.19 7.65 65.87 9.04 7.68.49 15.38.7 23.08.7 21.55 0 43.11-1.63 64.17-3.26.1.48.21.96.33 1.42.9 3.42 2.38 6.09 4.39 7.93 2.29 2.11 5.17 3.09 7.42 3.71 4.34 1.18 8.74 1.63 13.15 1.63 7.13 0 14.31-1.17 21.33-2.33 2.74-.45 5.57-.91 8.32-1.29l1.32-.18c7.25-.98 15.46-2.09 20.82-7.8 3.79-4.04 5.58-10.07 4.99-16.44 50.13-11.43 101.59-16.4 152.98-14.78-.05.39-.08.76-.11 1.11-.36 4-.1 7.71.78 11.01.84 3.19 2.22 5.69 4.1 7.42 2.15 1.97 4.84 2.88 6.94 3.46 4.03 1.1 8.12 1.52 12.22 1.52 6.61 0 13.27-1.09 19.78-2.16 2.53-.41 5.15-.84 7.689-1.19l1.23-.17c6.73-.91 14.37-1.95 19.37-7.27 1.76-1.89 3.06-4.24 3.86-6.85 8.01 1.39 15.99 3.24 23.82 5.52v-4.16c-7.58-2.17-15.3-3.94-23.04-5.29.22-2.1.15-4.3-.24-6.52-.64-3.62-1.939-6.63-3.89-8.94-5.5-6.55-13.78-5.99-21.08-5.49-1.05.07-2.09.14-3.09.19-9.54.44-19.44 1.28-29.41 2.49-6.17.75-12.38 2.11-15.94 6.89-1.04 1.4-1.72 2.94-2.18 4.46-.03 0-.06-.01-.09-.01-16.53-.54-33.07-.39-49.57.42-.14-.1-.3-.18-.47-.24-4.56-1.56-9.24-3.21-13.98-4.88-13.48-4.75-27.43-9.66-40.69-13.29-3.01-.82-6.04-1.62-9.09-2.41 71.68-13.47 144.93-16.49 212.76-8.8v-4.02c-57.16-6.44-118.12-5.32-178.74 3.19 2.74-9.16 4.8-19.24 6.57-32.18.27-1.93.52-3.87.77-5.82 1.3-9.99 2.64-20.33 5.95-29.88 4.64-13.41 13.32-26.07 25.79-37.63.33-.3.52-.69.6-1.09 10.1.78 20.05 4.4 29.1 7.7l109.961 40.08v-4.26l-108.59-39.58c-12.39-4.52-26.44-9.64-40.76-7.67zm98.19 130.53c1.04-.05 2.1-.12 3.18-.2 6.66-.45 13.55-.92 17.75 4.07 1.48 1.77 2.5 4.14 3.01 7.06.95 5.42-.32 10.6-3.38 13.87-4.03 4.29-10.62 5.18-16.99 6.05l-1.23.16c-2.6.36-5.24.79-7.8 1.21-6.26 1.03-12.65 2.07-18.91 2.1 4.14-4.28 6.61-10.51 6.11-16.14-.57-6.52-4.7-12.65-10.45-15.76 9.73-1.18 19.39-1.99 28.71-2.42zm-44.65 15.27c.3-3.38 1.04-5.77 2.33-7.5 1.43-1.93 3.57-3.11 5.98-3.89.09-.02.18-.02.27-.05.7-.19 1.9.4 2.97.92.43.21.85.41 1.27.59 5.24 2.22 9.09 7.52 9.59 13.19.49 5.6-2.7 11.98-7.59 15.16-.14.09-.26.2-.37.32-1.87-.22-3.73-.56-5.55-1.06-2.48-.68-4.11-1.46-5.29-2.55-1.31-1.2-2.3-3.05-2.95-5.49-.75-2.85-.97-6.1-.66-9.64zm-293.87-86.55 1.16-3.08c5.13-13.6 11.61-28.91 23.55-38.46.26-.21.45-.47.57-.76 2.48.77 4.69 2.58 6.82 4.33 41.24 33.9 84.8 65.81 129.61 94.93-34.42-8.05-71.16-13.9-109.59-17.42-25.36-2.32-48.83-3.31-70.75-2.96 8.88-10.57 13.83-23.78 18.63-36.58zm82.99 63.28c3.3 5.63 6.06 12.11 8.62 20.23-5.53.45-11.12 1.02-16.74 1.7-1.45.18-2.89.39-4.31.66-5.8-10.91-12.53-20.31-20.04-27.9-6.67-6.73-14.15-12.24-22-16.23 7.57.47 15.3 1.06 23.23 1.78 4.89.45 9.75.95 14.59 1.47.14.25.34.47.6.65 6.21 4.15 11.61 10.08 16.05 17.64zm-115.04 48.51c-14.48-.93-28.7-2.84-43.5-5.24-5.76-16.16-15.42-30.85-27.99-42.53-4.9-4.55-9.41-7.8-13.91-9.98 4.02-1.15 8.09-2.21 12.22-3.21.28.35.67.62 1.14.72 15.44 3.3 30.35 9.96 43.11 19.26 7.21 5.26 13.83 11.4 19.99 17.23 7.97 7.55 15.46 15.11 19.65 24.25-3.57-.11-7.14-.28-10.71-.5zm15.11.61c-4.32-10.62-12.54-18.96-21.3-27.26-6.26-5.93-12.98-12.16-20.39-17.56-11.6-8.46-24.92-14.8-38.82-18.54 9.54-2.06 19.38-3.74 29.58-5.05.11.05.21.09.33.12 17.2 4.52 30.32 11.13 40.13 20.21 4.46 4.12 8.41 8.97 12.23 13.66 1.05 1.28 2.1 2.57 3.17 3.85 1.15 1.38 2.32 2.77 3.5 4.15 6.84 8.06 13.9 16.38 17.36 26.14-8.59.32-17.2.44-25.79.28zm29.95-.44c-3.55-10.97-11.13-19.92-18.47-28.57-1.17-1.37-2.34-2.74-3.48-4.12-1.05-1.27-2.1-2.54-3.14-3.82-3.91-4.8-7.95-9.75-12.61-14.06-8.56-7.92-19.45-14.03-33.12-18.56 10.4-1.06 21.17-1.77 32.35-2.1 15.37 4.65 29.64 14.19 41.28 27.61 9.94 11.46 17.86 25.6 23.58 42.04-8.75.63-17.56 1.19-26.39 1.58zm41.43-9.15c-.2 2.24-.21 4.39-.05 6.44-3.61.28-7.23.56-10.87.83-5.9-17.36-14.2-32.28-24.68-44.37-9.65-11.12-21.07-19.69-33.44-25.18 10.42-.09 21.2.12 32.37.63.22.3.54.55.92.69 10.35 3.69 20.37 10.24 28.98 18.93 7.04 7.11 13.37 15.88 18.88 26.07-3.51 1.09-6.61 2.81-8.79 5.74-2.46 3.31-3.07 7.42-3.32 10.22zm20.24 20.39c-.17.1-.3.24-.42.38-2.06-.24-4.1-.61-6.11-1.16-2.7-.74-4.48-1.6-5.78-2.79-1.44-1.32-2.52-3.34-3.22-6.01-.82-3.09-1.06-6.61-.72-10.46.32-3.69 1.13-6.29 2.54-8.19 1.57-2.11 3.92-3.4 6.55-4.26.1-.01.19-.02.29-.04.81-.22 2.08.4 3.31 1 .47.22.92.44 1.37.63 5.7 2.42 9.91 8.2 10.45 14.38.54 6.1-2.94 13.05-8.26 16.52zm54.43-9.63c-4.38 4.68-11.53 5.64-18.44 6.58l-1.33.18c-2.8.39-5.65.85-8.41 1.31-6.9 1.13-13.94 2.28-20.83 2.26 4.6-4.59 7.37-11.42 6.82-17.57-.63-7.16-5.25-13.88-11.65-17.14.03 0 .06 0 .08-.01 10.66-1.29 21.24-2.19 31.44-2.66 1.12-.05 2.26-.13 3.43-.21 7.23-.49 14.71-1 19.3 4.45 1.62 1.93 2.72 4.52 3.28 7.7 1.04 5.9-.34 11.55-3.69 15.11zm55.84-46.59c13.13 3.59 27 8.48 40.42 13.2 1.85.66 3.69 1.3 5.53 1.95-31.81 2.1-63.44 6.71-94.56 13.79-.76-3.06-2.02-5.66-3.76-7.73-5.89-7.01-14.79-6.4-22.64-5.87-.03 0-.05 0-.08.01-1.1.07-2.2.15-3.25.2-3.59.16-7.24.4-10.9.67-2.73-8.83-5.69-15.85-9.27-21.94-3.62-6.17-7.86-11.33-12.65-15.43 39.27 4.59 76.58 11.68 111.16 21.15zm35.5-85.09c-3.44 9.94-4.81 20.48-6.13 30.68-.26 1.93-.51 3.86-.77 5.79-1.86 13.57-4.03 23.91-6.98 33.35-12.06 1.76-24.09 3.82-36.08 6.16-23.91-15.35-47.48-31.51-70.56-48.35l116.95-56.17c7.65-3.68 15.56-7.48 23.99-8.64 1.54-.21 3.09-.32 4.63-.36-11.99 11.55-20.42 24.17-25.05 37.54z"/><path d="m323.89 397.545c5.74 1.57 11.57 2.17 17.42 2.17 9.5 0 19.07-1.57 28.45-3.11 3.66-.6 7.45-1.22 11.13-1.73l1.77-.24c9.59-1.3 20.46-2.77 27.47-10.24 5.48-5.84 7.77-14.9 6.13-24.23-.89-5.08-2.71-9.29-5.42-12.51-7.66-9.11-19.39-8.31-29.73-7.61-1.53.11-3.02.21-4.48.28-13.77.63-28.05 1.84-42.43 3.59-8.13.99-17.24 2.63-22.43 9.6-3.19 4.29-3.99 9.67-4.32 13.34-.5 5.68-.13 10.93 1.11 15.6 1.17 4.45 3.08 7.91 5.67 10.29 2.97 2.73 6.72 4 9.66 4.8zm10.8-49.66c14.28-1.73 28.45-2.93 42.13-3.57 1.48-.07 3.01-.17 4.56-.28 9.85-.67 20.04-1.36 26.4 6.2 2.25 2.67 3.77 6.25 4.539 10.62 1.42 8.1-.49 15.88-5.11 20.8-6.03 6.44-15.72 7.75-25.08 9.02l-1.78.24c-3.74.51-7.55 1.14-11.24 1.74-9.81 1.61-19.85 3.24-29.65 3.02 6.73-5.97 10.87-15.55 10.12-24.11-.87-9.95-7.64-19.24-16.82-23.14-.16-.07-.33-.15-.5-.22.821-.12 1.631-.22 2.431-.32zm-23.25 19.32c.45-5.07 1.57-8.66 3.54-11.3 2.21-2.97 5.48-4.77 9.14-5.95.12-.01.25-.03.38-.06 1.33-.36 3.15.52 4.9 1.38.61.29 1.21.59 1.8.83 7.86 3.34 13.65 11.3 14.4 19.81.74 8.4-4.04 17.97-11.37 22.73-.26.17-.46.4-.62.65-2.92-.32-5.81-.83-8.66-1.61-3.72-1.01-6.19-2.21-8.01-3.88-2.02-1.86-3.54-4.67-4.52-8.37-1.11-4.22-1.44-9.01-.98-14.23z"/><path d="m336.82 88.215c19.7 0 35.73-16.03 35.73-35.73 0-19.71-16.03-35.74-35.73-35.74s-35.73 16.03-35.73 35.74c0 19.7 16.03 35.73 35.73 35.73zm0-67.47c17.5 0 31.73 14.24 31.73 31.74 0 17.49-14.23 31.73-31.73 31.73s-31.73-14.24-31.73-31.73c0-17.5 14.23-31.74 31.73-31.74z"/></svg>