<?xml version="1.0" encoding="iso-8859-1"?>
<!-- Generator: Adobe Illustrator 19.0.0, SVG Export Plug-In . SVG Version: 6.00 Build 0)  -->
<svg version="1.1" id="Layer_1" xmlns="http://www.w3.org/2000/svg" xmlns:xlink="http://www.w3.org/1999/xlink" x="0px" y="0px"
	 viewBox="0 0 512.001 512.001" style="enable-background:new 0 0 512.001 512.001;" xml:space="preserve">
<g>
	<g>
		<path d="M494.831,124.706c-3.605-9.039-6.497-18.292-10.036-27.339c-3.664-9.365-8.103-18.325-11.977-27.615
			c-7.512-18.015-18.48-36.06-29.952-51.858c-5.409-7.449-11.331-15.679-21.212-16.131c-3.797-0.174-7.664-0.01-11.498,0.245
			c-25.159-0.437-50.376,0.04-75.532,0.058c-26.372,0.019-52.902,0.852-79.253-0.225c-13.258-0.542-26.488,0.014-39.745-0.278
			c-12.462-0.275-24.892-0.831-37.341-1.281c-13.611-0.493-27.797-0.36-41.382,0.567C123.45,1.769,110.06,1.348,96.64,3.132
			C91.543,3.81,86.088,4.583,82.356,8.53c-1.821,1.925-2.762,4.424-3.918,6.753c-1.479,2.979-3.296,5.737-4.905,8.643
			c-4.064,7.337-7.779,14.524-10.827,22.078c-1.677,2.893-3.291,5.821-4.786,8.815c-4.577,9.164-10.475,17.847-15.511,26.792
			c-4.8,8.526-9.127,17.282-13.813,25.863c-8.132,14.891-17.46,30.71-20.977,47.483c-3.025,14.425,3.186,38.531,18.525,44.07
			c8.444,3.049,17.98,3.017,25.054-3.298c3.099-2.766,5.388-6.451,7.241-10.188c0.875,2.458,1.999,4.838,3.408,7.021
			c0.978,1.515,2.097,2.898,3.328,4.145c-1.891,9.534-1.824,19.878-1.294,29.398c0.617,11.072,0.534,22.375,0.467,33.475
			c-0.13,21.357-1.178,43.127,0.611,64.416c-1.757,0.179-3.517,0.332-5.288,0.397c-5.913,0.215-11.835,0.143-17.751,0.148
			c-4.656,0.004-9.537-0.109-13.887,1.817c-8.002,3.545-8.2,13.13-7.734,20.711c0.347,5.652-1.352,18.15,7.024,18.678
			c2.247,0.142,4.186-0.411,6.522-0.129c2.403,0.29,4.697,0.884,7.127,1.03c2.678,0.161,5.34,0.248,8.002,0.366
			c-2.229,9.786-2.518,20.363-2.319,30.255c0.219,10.911-1.507,21.763-1.607,32.677c-0.105,11.37,1.509,22.686,1.526,34.055
			c0.007,4.795,0.24,9.548,0.368,14.339c0.143,5.352-0.549,11.173,0.7,16.437c2.18,9.188,15.996,9.802,23.498,10.354
			c10.992,0.809,22.029,1.146,33.049,1.317c12.378,0.192,24.779-0.444,37.178-0.322c11.788,0.116,23.573,0.414,35.361,0.522
			c47.827,0.438,95.627,1.92,143.423,3.834c23.183,0.928,46.431,1.322,69.624,1.508c11.427,0.091,22.975-0.374,34.38-0.944
			c8.842-0.442,20.01,2.064,28.111-2.523c8.546-4.838,9.318-18.337,10.177-26.93c1.295-12.949,0.348-26.31,0.344-39.317
			c-0.004-11.98,0.347-23.968,0.987-35.915c0.323-6.027,0.311-12.072,0.771-18.093c0.221-2.891,0.532-5.924,0.297-8.822
			c-0.078-0.961-0.357-1.852-0.501-2.8c-0.174-1.138,0.34-3.696-0.795-1.089c0.626-1.439,0.638-2.836,0.25-4.068
			c0.288,0.003,0.577,0.012,0.865,0.015c6.297,0.057,17.342,2.137,22.535-2.493c5.054-4.506,4.651-13.121,6.505-19.149
			c1.736-5.645,1.966-12.956-2.194-17.695c-4.848-5.524-12.693-5.983-19.514-5.99c-9.076-0.01-18.152-0.026-27.227,0.04
			c0.202-3.587-0.104-7.311-0.068-10.819c0.062-6.047-0.378-12.157-0.549-18.202c-0.328-11.619-1.093-23.173-0.343-34.825
			c0.786-12.202,0.112-24.754-0.245-36.974c-0.179-6.124-0.85-12.082-1.303-18.178c-0.189-2.551-0.255-5.317-0.65-7.986
			c2.174-0.998,4.222-2.259,6.055-3.835c2.462-2.117,4.528-4.847,6.253-7.687c1.111,1.783,2.435,3.435,4.045,4.886
			c6.079,5.479,15.232,7.168,23.039,5.102c8.148-2.155,14.975-7.303,18.289-15.142c1.76-4.164,2.816-8.149,3.245-12.149
			C509.773,156.686,500.103,137.924,494.831,124.706z M365.718,14.481c4.667,10.806,9.092,21.884,13.675,32.754
			c5.853,13.88,9.613,28.04,13.138,42.683c3.448,14.327,7.006,29.801,7.197,44.571c0.104,8.047-0.447,16.395-2.048,24.406
			c-0.207,1.036-0.41,2.123-0.632,3.227c-0.61,3.036-1.36,6.199-2.715,8.797c-1.645,3.154-2.673,6.513-4.304,9.69
			c-2.821,5.496-7.289,8.736-13.378,9.803c-5.173,0.907-12.147,0.575-15.947-3.396c-5.504-5.753-5.589-14.829-6.155-22.3
			c-0.685-9.04-0.454-18.112-0.517-27.169c-0.1-14.534,1.188-29.499-0.173-43.969c-1.392-14.802-2.628-29.523-4.516-44.291
			c-1.534-11.997-4.053-23.483-7.364-34.979C349.889,14.368,357.803,14.434,365.718,14.481z M328.39,14.218
			c2.086,0.01,4.175,0.026,6.262,0.04c0.402,4.318,1.812,8.489,2.794,12.926c1.407,6.356,2.062,12.794,3.062,19.215
			c2.387,15.328,2.651,30.788,4.059,46.182c1.297,14.172,0.042,28.791,0.207,43.032c0.073,6.259-0.071,12.52-0.44,18.769
			c-0.337,5.699-0.09,12.635-2.028,18.015c-2.538,7.047-5.443,17.592-15.051,16.245c-6.56-0.92-9.341-7.232-10.907-12.922
			c-2.155-7.834-2.646-15.079-2.493-23.252c0.12-6.353-0.008-12.709,0.173-19.062c0.405-14.285,1.428-28.519,1.522-42.848
			c0.096-14.603-0.183-29.189-0.872-43.746c-0.358-7.563,0.008-15.36-0.979-22.846c-0.405-3.07-0.471-6.496-0.943-9.763
			C317.976,14.195,323.19,14.192,328.39,14.218z M310.618,189.548c3.373,5.737,9.318,10.382,16.025,11.295
			c7.219,0.983,15.136-2.943,19.751-8.395c0.838-0.99,1.541-2.029,2.161-3.097c0.855,1.62,1.841,3.2,2.992,4.73
			c4.987,6.634,13.853,9.006,21.915,8.778c8.08-0.228,15.953-2.658,21.764-8.484c2.086-2.091,3.69-4.475,5.045-7.02
			c0.594,1.041,1.242,2.041,1.94,2.997c-2.083,5.524-2.328,11.647-2.25,17.744c-2.63,1.29-5.911,2.213-8.408,3.199
			c-4.361,1.721-8.695,3.611-13.225,4.845c-9.614,2.62-19.354,5.091-29.125,7.061c-20.627,4.159-40.763,7.122-61.819,7.817
			c-20.431,0.674-40.926,1.383-61.336-0.132c-20.296-1.506-40.197-3.875-60.273-7.24c-10.279-1.723-20.933-3.349-31.03-5.92
			c-4.49-1.143-8.986-2.544-13.433-3.913c-5.054-2.195-9.945-4.764-15.219-6.3c0.206-4.63,0.478-9.268,0.567-13.905
			c0.215,0.421,0.423,0.842,0.66,1.258c4.211,7.384,11.621,11.622,20.188,10.567c8.096-0.997,16.542-7.188,21.463-13.5
			c1.679-2.155,2.929-4.468,3.934-6.874c0.776,2.22,1.633,4.415,2.626,6.527c3.011,6.406,8.022,12.686,15.426,13.77
			c8.88,1.301,16.263-5.721,20.059-13.074c0.907-1.757,1.623-3.597,2.243-5.475c0.481,0.984,0.985,1.954,1.531,2.886
			c3.552,6.059,8.628,10.996,16.049,10.931c9.72-0.085,18.932-6.934,24.667-15.676c2.234,7.893,7.426,14.364,16.784,15.271
			c6.457,0.626,11.717-3.157,15.258-8.285c0.511-0.739,1.019-1.505,1.517-2.294c0.628,1.484,1.324,2.934,2.122,4.273
			c3.895,6.528,10.677,11.401,18.568,10.331c10.544-1.429,15.898-9.158,19.147-18.152
			C309.424,187.29,309.981,188.465,310.618,189.548z M398.108,325.481c-4.017,0.127-7.986,0.573-11.838,1.711
			c-0.03-0.055-0.055-0.114-0.086-0.168c-2.694-4.742-8.369-6.112-13.385-6.808c-6.688-0.927-13.803-0.935-20.554-1.024
			c-14.584-0.193-29.177-0.975-43.757-0.975c-14.706,0-29.385,0.475-44.096,0.456c-32.392-0.041-64.775,0.523-97.12-0.064
			c-7.845-0.142-15.652-0.75-23.472-1.332c-6.134-0.456-13.991-2.15-20.02-0.571c-4.442,1.164-5.725,4.301-5.994,7.91
			c-3.673-0.662-6.9-0.394-11.219-0.444c-0.122-0.001-0.244-0.009-0.367-0.011c0.106-3.553-0.433-6.945-0.385-10.58
			c0.091-6.915-0.123-13.846-0.176-20.761c-0.108-14.22-0.087-28.38,0.238-42.563c0.255-11.19-0.162-22.4-0.021-33.597
			c2.511,8.115,6.313,15.784,9.672,23.634c2.276,5.32,4.343,10.791,6.136,16.294c0.996,3.057,1.383,5.662,4.19,7.54
			c1.295,0.866,3.473,0.591,4.513-0.582c4.016-4.529,5.446-11.852,8.35-17.159c2.393-4.374,4.911-8.91,7.669-13.196
			c3.482,7.295,5.827,15.355,9.204,22.585c2.133,4.566,4.511,9.031,6.527,13.645c1.132,2.59,2.185,5.832,4.911,7.207
			c7.184,3.621,10.308-9.791,12.49-13.967c2.793-5.345,5.377-10.755,7.939-16.214c0.602-1.282,1.223-2.552,1.85-3.819
			c2.74,6.041,5.975,11.965,9.346,17.511c4.197,6.903,8.502,15.679,14.991,20.759c6.941,5.433,9.965-4.236,11.526-9.177
			c2.799-8.861,5.718-18.574,9.979-27.007c0.472,2.314,0.85,4.706,1.166,5.453c1.833,4.334,3.049,8.84,4.919,13.148
			c1.985,4.569,3.903,9.217,6.05,13.706c1.422,2.973,3.093,6.576,6.858,6.814c6.802,0.43,9.349-11.832,11.161-16.439
			c1.899-4.826,4.01-9.555,5.956-14.359c0.905-2.237,1.852-4.49,2.683-6.755c0.052-0.141,0.102-0.306,0.151-0.471
			c1.274,2.186,2.448,4.495,3.764,6.359c2.513,3.557,5.188,6.998,7.802,10.48c4.82,6.421,9.972,13.12,15.963,18.487
			c1.766,1.582,4.964,1.581,6.162-0.794c3.308-6.563,5.217-13.847,8.078-20.617c1.472-3.484,2.935-6.972,4.329-10.488
			c0.615-1.552,1.211-3.111,1.801-4.673c0.174,0.425,0.343,0.826,0.521,1.152c1.268,2.325,2.924,4.392,4.487,6.518
			c3.022,4.109,6.025,8.227,9.066,12.323c2.829,3.81,5.1,7.499,8.565,10.811c2.246,2.147,4.943,5.18,8.338,3.905
			c2.974-1.117,3.748-4.584,4.791-7.264c1.968-5.057,3.724-10.172,5.393-15.335c1.941-6.003,3.476-11.926,4.767-17.928
			c1.754,3.842,3.399,7.768,5.448,11.338c2.648,4.612,5.277,12.451,9.984,15.42c1.771,1.117,4.439,0.418,5.434-1.425
			c4.378-8.107,7.272-16.511,10.738-25.026c-0.171,5.845-0.316,11.693-0.37,17.561c-0.109,11.976-0.64,23.93-0.716,35.921
			c-0.04,6.283-0.104,12.565-0.145,18.847C398.266,315.874,397.772,320.804,398.108,325.481z M329.282,367.096
			c-5.042-3.616-10.316-6.761-15.291-10.563c-1.123-0.859-2.241-1.73-3.36-2.602c8.531-6.616,17.034-13.352,25.806-19.602
			c5.066,3.83,10.405,7.331,15.485,11.147c5.081,3.817,9.749,7.836,14.588,11.893c1.943,1.628,4.449,3.63,7.015,5.203
			c-3.079,2.696-5.505,6.025-8.32,9.031c-3.717,3.969-7.869,7.658-11.94,11.272C345.218,377.668,337.1,372.702,329.282,367.096z
			 M347.436,388.07c-6.429,5.742-12.859,11.498-19.433,17.06c-3.414,2.888-6.733,5.883-10.034,8.898
			c-0.387-0.25-0.777-0.493-1.161-0.747c-15.04-9.971-30.562-19.209-45.769-28.906c10.453-8.09,20.877-16.216,31.429-24.18
			c0.831-0.627,1.658-1.264,2.486-1.896c4.793,3.8,9.456,8.017,14.568,11.341c9.091,5.913,17.858,12.331,27.171,17.961
			C346.944,387.753,347.187,387.915,347.436,388.07z M319.952,338.656c-4.903,3.685-9.774,7.413-14.649,11.135
			c-2.395-1.848-4.807-3.67-7.278-5.393c-5.754-4.012-11.342-8.182-17.378-11.77c-1.14-0.678-2.338-1.369-3.551-2.068
			c0.238-0.364,0.341-0.78,0.332-1.21c15.5-0.079,30.994-0.124,46.496,0.073c2.424,0.031,4.846,0.068,7.268,0.105
			c0.107,0.121,0.218,0.24,0.325,0.361C327.568,332.701,323.764,335.791,319.952,338.656z M288.337,345.549
			c3.732,2.889,7.49,5.74,11.24,8.605c-0.148,0.112-0.295,0.225-0.443,0.337c-11.379,8.611-22.609,17.407-33.887,26.146
			c-10.091-6.581-19.967-13.513-29.918-20.322c1.215-0.844,2.425-1.691,3.64-2.535c6.273-4.35,11.954-9.499,18.468-13.501
			c5.346-3.284,10.289-6.594,15.218-10.22C277.655,338.143,283.231,341.596,288.337,345.549z M259.703,384.929
			c-0.012,0.009-0.023,0.018-0.035,0.027c-9.762,7.526-19.581,14.948-29.246,22.583c-9.708-7.057-19.268-14.337-28.621-21.806
			c-0.453-0.362-0.911-0.718-1.365-1.078c9.752-6.808,19.487-13.612,29.238-20.402C239.679,371.151,249.588,378.211,259.703,384.929
			z M254.156,338.668c-7.044,4.347-13.175,9.967-20.012,14.617c-1.523,1.036-3.039,2.086-4.559,3.128
			c-3.716-2.505-7.449-4.982-11.22-7.397c-8.411-5.387-17.108-10.271-25.614-15.495c-1.983-1.218-3.982-2.417-5.971-3.631
			c19.501,0.052,39.004-0.354,58.533-0.393c7.307-0.015,14.609-0.053,21.91-0.093c0.182,0.173,0.37,0.339,0.556,0.508
			C263.126,332.642,258.639,335.902,254.156,338.668z M211.755,352.333c4.093,2.588,8.134,5.263,12.149,7.98
			c-9.619,6.658-19.171,13.429-28.663,20.26c-11.712-9.122-23.624-17.951-34.987-27.544c-1.015-0.857-2.023-1.72-3.033-2.581
			c2.927-3.107,5.89-6.16,9.213-8.922c4.237-3.522,8.861-6.945,12.441-11.201c2.37,2.079,4.92,3.955,7.512,5.775
			C194.611,341.873,203.267,346.964,211.755,352.333z M189.955,384.434c-11.162,8.164-22.137,16.656-32.805,25.44
			c-5.542-4.481-10.817-9.181-16.065-14.051c-4.772-4.428-9.508-11.174-15.368-14.589l-0.001-0.112
			c3.551-2.414,6.638-5.806,9.629-8.651c5.59-5.316,11.082-10.774,16.462-16.302c0.478-0.491,0.949-0.985,1.419-1.479
			c1.956,1.642,3.912,3.283,5.846,4.936C169.119,368.214,179.621,376.219,189.955,384.434z M151.817,345.785
			c-3.93-3.433-7.809-6.918-11.599-10.526c-1.886-1.796-4.188-4.853-6.733-7.435c11.587,0.644,23.152,1.598,34.764,1.853
			c0.124,0.003,0.247,0.003,0.37,0.006C162.614,334.567,157.109,340.136,151.817,345.785z M140.525,343.464
			c2.353,2.285,4.813,4.47,7.303,6.624c-0.547,0.594-1.093,1.188-1.637,1.78c-5.262,5.722-10.633,11.34-15.878,17.078
			c-1.421,1.554-3.104,3.135-4.663,4.822c-0.027-3.172-0.05-6.342-0.056-9.505c-0.009-4.8,0.222-9.592,0.405-14.386
			c0.902-3.713,1.374-7.709,1.815-11.292c0.356-2.886,0.347-5.857,0.481-8.758l0.016-0.388c1.087,1.561,2.111,3.206,2.908,4.16
			C134.119,337.07,137.28,340.311,140.525,343.464z M125.677,406.884c0.125-5.927,0.124-11.885,0.092-17.848
			c6.946,9.815,16.703,17.593,26.118,25.215c-5.08,4.27-10.118,8.587-15.208,12.838c-2.832,2.367-5.56,4.717-8.281,7.215
			c-0.861,0.791-1.859,1.489-2.712,2.294c-1.25-2.996-0.547-7.56-0.416-10.635C125.539,419.629,125.544,413.231,125.677,406.884z
			 M132.455,436.775c2.656-1.956,5.289-3.992,7.889-6.02c5.391-4.206,10.734-8.51,16.054-12.821
			c1.363,1.126,2.711,2.255,4.026,3.394c6.19,5.358,12.982,9.813,19.292,15.023c2.132,1.76,4.268,3.67,6.484,5.396
			c-5.122,0.007-10.244-0.013-15.363-0.259c-7.355-0.353-14.6-0.609-21.964-0.63c-3.297-0.01-6.504-0.382-9.774-0.731
			c-3.201-0.341-7.018,0.08-10.142-0.669c-0.383-0.092-0.722-0.226-1.038-0.382C129.432,438.344,131.161,437.727,132.455,436.775z
			 M181.135,428.099c-6.087-4.629-12.186-9.184-18.293-13.781c-0.334-0.251-0.651-0.514-0.982-0.767
			c10.779-8.661,21.885-17.03,33.166-25.052c2.018,1.633,4.028,3.276,6.02,4.941c7.695,6.432,15.731,12.553,23.894,18.482
			c-0.839,0.676-1.688,1.338-2.524,2.019c-6.064,4.938-12.415,9.534-18.343,14.641c-2.623,2.26-4.978,4.808-7.634,7.03
			c-0.911,0.762-1.837,1.44-2.724,2.132c-1.006-0.596-1.99-1.236-2.92-1.983C187.596,433.193,184.4,430.582,181.135,428.099z
			 M206.575,433.692c5.987-4.82,12.219-9.305,18.322-13.973c1.758-1.344,3.517-2.686,5.276-4.029
			c4.072,2.902,8.163,5.767,12.254,8.598c6.855,4.744,13.775,9.247,20.697,13.886c3.275,2.195,6.473,4.668,9.84,6.701
			c0.069,0.041,0.139,0.087,0.209,0.13c-10.079-0.495-20.152-1.023-30.213-1.346c-11.875-0.381-23.826-0.976-35.689-1.612
			c-2.092-0.112-4.184-0.175-6.277-0.222c-0.907-0.588-1.841-1.115-2.783-1.625C201.161,438.238,203.889,435.855,206.575,433.692z
			 M266.542,432.327c-7.207-4.819-14.401-9.517-21.546-14.438c-3.09-2.128-6.157-4.299-9.216-6.481
			c9.182-7.009,18.366-14.016,27.522-21.058c0.711-0.547,1.419-1.097,2.13-1.645c15.645,10.163,31.443,20.199,47.215,30.188
			c-3.232,2.945-6.486,5.865-9.835,8.678c-4.385,3.682-8.818,7.339-13.279,10.928c-2.012,1.619-3.924,3.352-5.843,5.065
			C278.319,439.443,272.165,436.086,266.542,432.327z M289.237,444.563c4.797-2.899,9.244-6.536,13.742-9.878
			c5.243-3.895,10.277-8.056,15.268-12.27c7.275,4.532,14.735,8.755,21.875,13.482c4.509,2.985,8.859,6.128,13.267,9.247
			c0.17,0.121,0.34,0.234,0.509,0.352c-12.397,0.204-24.787,0.548-37.204,0.692c-9.7,0.113-19.403-0.147-29.103-0.537
			C288.152,445.261,288.701,444.887,289.237,444.563z M352.383,435.157c-3.917-2.703-7.98-5.255-12.007-7.788
			c-5.406-3.4-11.02-6.452-16.521-9.708c2.205-1.872,4.412-3.74,6.638-5.585c7.804-6.472,15.366-13.221,23.045-19.839
			c3.462,2.535,6.827,5.177,10.407,7.553c3.052,2.026,6.528,4.351,10.086,5.856c-0.139,2.175-0.268,4.351-0.342,6.531
			c-0.225,6.552-0.059,13.052-1.651,19.463c-0.87,3.503-1.816,7.428-3.979,10.398c-0.446,0.612-0.952,1.104-1.497,1.518
			c-0.406-0.449-0.948-0.799-1.645-0.971C360.1,441.4,356.369,437.909,352.383,435.157z M365.76,391.6
			c-2.008-1.599-4.076-3.089-6.189-4.538c5.465-4.688,11.257-9.908,15.639-15.753c-0.207,7.107-0.301,14.215-0.473,21.356
			c-0.035,1.479-0.103,2.955-0.18,4.43C371.551,395.263,368.53,393.804,365.76,391.6z M369.516,350.229
			c-4.059-3.789-8.698-6.854-13.234-10.056c-4.738-3.346-9.516-6.622-14.47-9.638c0.271-0.244,0.486-0.509,0.646-0.791
			c7.156,0.153,14.311,0.346,21.475,0.635c2.62,0.106,5.215,0.041,7.805,0.532c3.48,0.659,4.969,0.76,5.167,4.31
			c0.332,5.932-0.349,11.958-0.8,17.866c-0.058,0.768-0.104,1.535-0.156,2.302C373.608,353.762,371.327,351.919,369.516,350.229z
			 M110.552,216.536c0.004,0.002,0.009,0.005,0.014,0.007c5.149,2.446,10.345,5.128,15.888,6.576
			c4.501,1.176,9.705,2.727,14.944,3.679c-3.216,4.723-6.062,9.879-8.815,14.804c-1.858,3.323-3.566,6.739-5.028,10.257
			c-0.022,0.052-0.041,0.114-0.062,0.169c-0.704-1.742-1.416-3.482-2.124-5.221c-1.573-3.863-3.341-7.611-5.15-11.368
			C117.143,229.052,113.83,222.795,110.552,216.536z M152.621,228.361c1.333,0.274,2.667,0.552,3.999,0.822
			c9.258,1.878,18.567,3.493,27.913,4.852c-0.26,0.684-0.526,1.395-0.871,2.132c-1.913,4.086-3.949,8.126-5.879,12.207
			c-1.935,4.089-4.083,8.062-6.11,12.104c-0.667,1.329-1.431,3.803-2.332,6.012c-0.659-1.61-1.568-3.396-1.825-3.919
			c-2.483-5.04-5.097-10.029-7.142-15.266C157.984,241.188,155.669,234.418,152.621,228.361z M194.661,235.408
			c7.32,0.909,14.66,1.656,22.014,2.224c4.601,0.355,9.21,0.649,13.822,0.898c-4.157,4.523-5.613,11.109-7.582,16.78
			c-1.233,3.55-2.819,6.958-4.041,10.509c-0.654,1.9-1.134,3.857-1.789,5.758l-0.527,1.531c-1.934-2.032-3.616-4.822-4.856-6.732
			c-2.359-3.632-4.678-7.314-6.922-11.017C201.015,249.146,197.304,242.285,194.661,235.408z M238.647,238.902
			c9.76,0.389,19.535,0.524,29.302,0.378c-0.743,1.829-1.24,3.807-1.99,5.593c-1.685,4.018-3.531,7.954-5.29,11.937
			c-2.144,4.854-3.925,9.856-6.017,14.732c-0.108,0.253-0.278,0.567-0.465,0.908c-4.064-7.96-7.108-16.365-11.145-24.292
			C241.83,245.779,240.668,241.628,238.647,238.902z M278.707,239.005c12.712-0.467,25.399-1.431,38.013-2.971
			c-2.208,3.266-3.251,8.425-4.303,11.063c-1.871,4.692-3.899,9.323-5.745,14.024c-1.34,3.414-2.371,6.994-3.643,10.46
			c-4.779-4.975-9.031-10.622-13.158-16.018c-2.644-3.458-5.337-6.899-7.723-10.543
			C280.914,243.135,279.898,240.992,278.707,239.005z M325.4,234.874c6.112-0.878,12.205-1.885,18.271-3.05
			c6.106-1.172,12.145-2.537,18.167-3.979c-1.311,7.269-2.703,14.303-4.864,21.505c-1.326,4.418-2.717,8.829-4.211,13.193
			c-0.781,2.284-1.506,4.984-2.499,7.426c-2.446-2.286-4.385-5.161-6.218-7.857c-2.842-4.181-6.003-8.213-8.973-12.312
			c-2.539-3.505-4.889-6.87-6.881-10.722C327.469,237.679,326.594,236.072,325.4,234.874z M370.151,225.817
			c2.708-0.671,5.417-1.346,8.131-2.017c5.269-1.302,10.204-3.391,15.223-5.422c1.832-0.741,3.896-1.425,5.919-2.184
			c-2.482,6.537-4.317,13.377-7.089,19.816c-2.636,6.125-4.852,12.307-7.586,18.326c-0.392-0.851-0.728-1.6-0.954-1.989
			c-1.896-3.267-3.729-6.574-5.611-9.848C375.115,237.162,373.484,230.983,370.151,225.817z M274.377,152.723
			c0.356-7.518,1.16-15.006,1.553-22.522c0.736-14.081,1.395-28.175,2.853-42.205c1.428-13.743,1.271-27.812,1.73-41.612
			c0.214-6.435,0.376-12.8,0.366-19.245c-0.007-4.426,0.643-8.757,0.323-13.051c7.959,0.117,15.928,0.128,23.889,0.121
			c-0.104,3.204,0.436,6.53,0.831,9.56c0.978,7.516,0.356,15.446,0.505,23.041c0.286,14.576,0.135,29.141-0.149,43.746
			c-0.279,14.317-1.416,28.561-1.733,42.848c-0.137,6.196,0.067,12.694,0.04,19.006c-0.024,5.82,0.223,11.927-1.844,17.363
			c-3.009,7.915-3.808,19.036-13.169,22.406c-0.631,0.227-1.286,0.42-1.95,0.52c-10.211,1.534-9.302-13.824-11.709-19.775
			C273.409,166.738,274.065,159.33,274.377,152.723z M250.189,49.893c1.314-12.042,3.453-24.584,3.07-36.788
			c0.056,0.003,0.111,0.005,0.167,0.008c6.847,0.416,13.719,0.668,20.602,0.831c-0.688,4.702-0.647,9.748-0.684,14.182
			c-0.063,7.468-0.375,14.874-0.882,22.323c-1.036,15.216-1.816,30.378-3.349,45.567c-1.523,15.086-2.273,30.239-2.746,45.366
			c-0.32,10.211,1.369,21.828-1.432,31.777c-1.366,4.853-6.11,17.362-12.928,16.135c-6.165-1.109-8.208-7.654-9.237-13.009
			c-1.494-7.778-1.711-16.076-1.341-23.975c0.276-5.901,1.285-11.765,1.746-17.654c1.111-14.186,2.269-28.368,3.335-42.558
			C247.569,78.011,248.656,63.938,250.189,49.893z M217.109,24.991c0.831-4.119,1.997-8.18,2.871-12.292
			c8.525,0.104,17.046-0.102,25.568,0.097c-1.98,26.478-5.403,52.855-7.934,79.301c-1.357,14.182-2.832,28.347-3.857,42.558
			c-0.412,5.717-1.58,11.597-1.241,17.316c0.55,9.3,0.266,17.014-4.399,25.27c-3.596,6.363-9.334,12.917-17.102,13.558
			c-5.051,0.417-7.936-4.929-9.93-8.887c-3.536-7.021-3.135-16.232-3.118-23.894c0.019-8.577,0.762-17.134,1.801-25.643
			c1.858-15.213,3.425-30.65,6.469-45.683c2.645-13.057,4.738-26.193,7.362-39.263C215.09,40.002,215.614,32.413,217.109,24.991z
			 M181.455,24.746c1.038-4.146,3.121-8.76,4.023-13.273c9.392,0.44,18.78,0.809,28.186,1.08c-1.239,4.237-2.564,8.465-3.505,12.768
			c-1.603,7.334-2.865,14.7-4.669,21.993c-1.719,6.953-2.248,14.16-4.19,21.063c-1.796,6.386-3.23,13.022-4.426,19.56
			c-2.76,15.086-4.825,30.219-6.414,45.471c-0.658,6.313-1.451,12.619-1.686,18.967c-0.2,5.397,0.05,10.828-0.671,16.195
			c-0.673,5.02-3.387,9.911-5.229,14.614c-1.755,4.481-6.488,14.326-12.702,10.812c-4.305-2.434-6.5-8.455-8.139-12.803
			c-5.025-13.327-1.805-28.124,0.436-41.792c2.532-15.441,4.918-30.898,6.645-46.453c1.69-15.225,4.867-30.339,7.768-45.371
			C178.354,39.954,179.567,32.282,181.455,24.746z M149.992,15.544c0.79-1.514,1.535-3.118,2.373-4.651
			c8.179-0.177,16.423-0.134,24.497,0.206c-1.557,4.417-3.337,8.776-4.531,13.328c-1.878,7.157-3.266,14.436-4.732,21.685
			c-2.852,14.104-5.835,28.321-7.648,42.602c-1.915,15.084-3.912,30.127-6.11,45.173c-1.201,8.224-2.393,16.756-4.229,24.983
			c-1.758,7.879-3.905,16.771-7.9,23.849c-3.072,5.441-11.022,12.186-17.61,12.033c-7.496-0.174-10.006-8.81-11.676-14.716
			c-3.771-13.336-1.77-27.15,0.428-40.541c2.628-16.016,5.714-31.965,9.301-47.819c3.559-15.731,7.408-31.933,13.927-46.738
			c2.704-6.141,5.609-12.155,8.102-18.389C145.752,22.632,148.054,19.263,149.992,15.544z M58.573,154.381
			c-1.045,6.504-4.696,12.866-6.768,19.116c-1.549,4.671-4.052,10.382-7.957,13.63c-9.587,7.973-19.84-1.076-23.077-10.418
			c-1.582-4.566-3.186-10.68-2.963-15.549c0.212-4.621,2.221-9.443,3.563-13.833c1.47-4.811,4.11-9.376,6.109-14.015
			c1.948-4.52,4.038-9.205,6.488-13.475c5.304-9.246,9.897-18.849,15.02-28.195c5.323-9.711,10.938-19.316,16.049-29.133
			c4.895-9.402,9.598-18.936,14.516-28.347c2.681-5.13,5.542-10.277,7.93-15.549c0.127-0.28,0.268-0.567,0.411-0.856
			c3.728-4.495,9.141-4.427,15.075-4.987c4.837-0.457,9.685-0.693,14.537-0.847c-2.477,4.807-4.644,9.802-7.139,14.571
			c-3.671,7.018-7.631,13.856-11.211,20.928C92.25,61.061,85.653,74.958,79.629,89.01c-6.034,14.075-12.013,28.06-16.077,42.861
			C61.518,139.272,59.793,146.801,58.573,154.381z M65.635,154.156c1.457-7.546,3.206-15.023,5.37-22.4
			c4.423-15.079,10.643-29.47,16.91-43.853c5.966-13.69,12.56-27.211,19.323-40.524c6.058-11.924,12.891-23.436,18.342-35.662
			c4.808-0.103,9.616-0.197,14.418-0.413c1.223-0.055,2.455-0.103,3.687-0.15c-0.09,0.181-0.179,0.367-0.27,0.545
			c-1.767,3.472-3.974,6.619-5.497,10.225c-2.844,6.735-5.825,13.388-8.749,20.091c-6.333,14.516-10.284,30.251-13.759,45.663
			c-3.455,15.328-7.178,30.958-8.994,46.563c-1.873,16.091-4.166,31.657-10.63,46.632c-2.95,6.835-8.301,13.877-16.662,12.321
			c-6.227-1.159-10.144-6.546-12.006-12.271C64.418,172.615,64.007,162.587,65.635,154.156z M96.965,254.205
			c-1.441,13.017-0.399,26.62-0.501,39.714c-0.076,9.732-0.905,19.844,0.207,29.556c-1.86-0.157-3.725-0.283-5.604-0.295
			c-5.262-0.034-10.573-0.301-15.832-0.109c-0.34,0.012-0.678,0.035-1.018,0.054c-0.094-2.998-0.312-6.038-0.599-8.912
			c-0.602-6.024-0.265-12.188-0.293-18.242c-0.056-12.13-0.155-24.26-0.161-36.391c-0.004-10.71-0.01-21.753-1.029-32.41
			c-0.83-8.682-0.265-17.513-1.232-26.164c3.108,1.664,6.596,2.627,10.32,2.706c8.135,0.174,14.163-3.859,18.561-9.64
			c-0.133,0.632-0.252,1.25-0.326,1.834c-0.764,6.011-1.214,12.192-1.361,18.248c-0.168,6.827-0.651,13.621-0.695,20.462
			C97.358,241.127,97.681,247.734,96.965,254.205z M43,358.367c-2.777,0.002-5.331-0.355-8.091-0.627
			c-1.498-0.148-3.808,0.335-5.087-0.07c-1.513-0.479-1.239,1.14-0.997-2.09c0.165-2.192,0.022-4.457,0.047-6.658
			c0.037-3.236-0.483-9.148,1.819-11.89c2.641-3.145,8.808-2.116,12.349-2.114c9.069,0.006,18.196,0.217,27.195-1.076
			c8.449-1.214,17.244-0.62,25.772-0.676c7.799-0.051,14.633-0.346,21.903-2.315c0.197,3.53,0.289,7.009,0.968,10.478
			c-0.122,1.369-0.24,2.715-0.321,3.999c-0.287,4.554-0.498,9.102-0.694,13.651c-7.684-1.006-15.863-0.317-23.56-0.716
			c-8.265-0.428-16.809,0.593-25.104,0.728C60.445,359.134,51.758,358.359,43,358.367z M453.126,393.338
			c-0.178,10.217-0.327,20.476-0.9,30.679c-0.577,10.267-0.447,20.505-0.582,30.805c-0.149,11.28,0.745,22.481-1.347,33.651
			c-0.567,3.029-0.818,8.693-3.689,10.492c-3.497,2.192-9.883,1.034-13.763,1.04c-10.29,0.016-20.654,0.291-30.941,0.692
			c-10.757,0.419-21.399-0.216-32.149-0.171c-11.177,0.047-22.353,0.111-33.526-0.238c-44.51-1.393-88.943-3.249-133.472-3.637
			c-22.669-0.198-45.37-0.727-68.042-1.116c-21.879-0.375-43.754,1.362-65.6-1.019c-3.082-0.336-6.069-0.777-8.975-1.901
			c-2.758-1.067-2.105-1.521-2.277-4.751c-0.302-5.686-0.34-11.409-0.576-17.103c-0.479-11.572-1.254-23.135-1.747-34.708
			c-0.495-11.581,1.083-23.148,0.569-34.688c-0.282-6.345-1.226-12.605-1.188-18.974c0.03-5.041-0.855-10.058-0.902-15.078
			c1.012,0.075,2.023,0.148,3.037,0.256c10.446,1.109,20.919,0.494,31.374,0.159c9.455-0.304,19.602,2.132,29.04,0.588
			c-0.002,0.049-0.004,0.098-0.006,0.147c-0.582,13.505-0.334,26.979-0.907,40.446c-0.273,6.428-0.413,13.009-1.048,19.4
			c-0.463,4.664-0.504,10.904,1.918,15.095c2.585,4.473,6.615,6.109,11.527,6.557c6.23,0.569,12.656,1.321,18.906,1.469
			c27.833,0.656,55.662,1.434,83.483,2.431c27.355,0.98,54.666,3.415,82.069,3.515c14.059,0.051,28.081-0.361,42.116-0.49
			c11.22-0.103,19.787-2.127,24.592-13.109c4.879-11.153,4.332-22.862,4.931-34.748c0.642-12.735,0.891-25.481,1.192-38.221
			c16.466-1.484,33.725-0.874,50.132-0.203c5.709,0.233,11.435,0.474,17.159,0.654c-0.753,2.575-0.279,4.769,0.012,7.654
			C454.036,383.75,453.21,388.497,453.126,393.338z M470.924,336.359c3.705-0.018,9.153-0.717,12.451,1.491
			c3.912,2.62,1.862,7.57,0.867,11.149c-0.788,2.836-0.748,10.703-3.225,12.595c-0.783,0.598-3.299,0.136-4.054,0.13
			c-2.735-0.023-5.469-0.022-8.205-0.012c-9.735,0.036-19.516-0.289-29.246-0.641c-9.882-0.357-19.759-0.277-29.648-0.255
			c-4.896,0.011-9.767,0.024-14.655,0.305c-2.791,0.16-5.782-0.003-8.671,0.23c0.273-5.445,0.818-10.878,1.171-16.317
			c0.227-3.496,0.704-7.818,0.277-11.798c7.755,1.326,15.899,1.352,23.64,1.899c9.883,0.698,19.585,1.164,29.494,1.149
			C451.056,336.271,460.989,336.407,470.924,336.359z M434.049,223.307c-0.371,12.666,0.201,25.444-0.582,38.085
			c-0.697,11.245-0.815,22.6,0.017,33.828c0.719,9.705,1.262,20.224,0.687,30.1c-0.226,0.273-0.406,0.568-0.548,0.881
			c-6.978-0.06-13.938-0.211-20.947-0.419c-1.324-0.039-2.653-0.091-3.982-0.143c0.319-4.369-0.082-8.953-0.089-13.144
			c-0.01-6.283-0.047-12.565-0.085-18.847c-0.074-12.353,0.308-24.692,0.192-37.03c-0.112-11.837,0.233-23.679,0.099-35.491
			c-0.064-5.64-0.947-11.242-0.861-16.873c0.044-2.865,0.127-5.511-0.086-8.071c4.201,3.245,9.427,5.36,15.665,5.885
			c3.497,0.295,7.147,0.153,10.691-0.516C433.246,208.763,434.234,216.98,434.049,223.307z M449.217,166.23
			c-0.066,0.314-0.136,0.627-0.21,0.938c-0.59,2.477-2.163,4.387-3.068,6.764c-1.226,3.222-2.542,6.391-4.636,9.163
			c-4.117,5.45-11.336,6.673-17.774,6.274c-6.194-0.384-10.643-3.409-13.599-8.882c-4.549-8.469-1.396-20.31-0.909-29.419
			c0.395-7.379,0.147-14.783-0.534-22.137c-1.359-14.688-4.43-29.16-7.974-43.458c-1.836-7.407-3.762-14.801-5.727-22.174
			c-2.072-7.777-5.74-14.736-8.776-22.146c-2.936-7.166-6.091-14.065-9.717-20.92c-0.832-1.573-1.785-3.658-2.928-5.715
			c7.877,0.029,15.753,0.021,23.625-0.043c0.097,0.212,0.193,0.422,0.288,0.611c1.57,3.124,2.826,6.389,4.4,9.512
			c3.096,6.143,6.578,12.074,9.615,18.251c6.598,13.421,13.189,27.122,18.188,41.232c4.784,13.504,9.666,27.05,13.851,40.75
			c2.159,7.067,4.23,14.292,5.688,21.537C450.286,152.663,450.577,159.77,449.217,166.23z M490.755,169.314
			c-0.111,0.473-0.208,0.939-0.28,1.404c-0.186,0.819-0.409,1.64-0.689,2.464c-1.963,5.775-4.691,9.74-10.602,11.898
			c-4.496,1.642-10.149,1.303-13.64-2.332c-3.73-3.884-4.829-10.273-5.204-15.401c-0.46-6.309-0.487-12.671-1.62-18.912
			c-1.48-8.153-4.07-16.044-6.468-23.958c-4.54-14.987-9.845-29.916-15.323-44.587c-5.345-14.313-12.226-28.346-19.304-41.872
			c-3.342-6.388-7.407-12.345-10.995-18.591c-0.977-1.701-1.893-3.405-2.884-5.023c0.541,0.884,12.046-0.24,13.732-0.133
			c4.749,0.302,7.032,1.501,10.163,5.14c3.109,3.614,5.72,7.801,8.3,11.801c9.709,15.059,19.226,30.631,26.159,47.164
			c3.42,8.155,7.448,15.973,10.566,24.243c3.237,8.583,5.805,17.285,9.34,25.775c3.368,8.088,7.135,16.542,9.132,25.057
			c0.298,1.27,0.549,2.508,0.738,3.737C491.346,161.285,491.46,165.285,490.755,169.314z"/>
	</g>
</g>
<g>
</g>
<g>
</g>
<g>
</g>
<g>
</g>
<g>
</g>
<g>
</g>
<g>
</g>
<g>
</g>
<g>
</g>
<g>
</g>
<g>
</g>
<g>
</g>
<g>
</g>
<g>
</g>
<g>
</g>
</svg>
