<?xml version="1.0" encoding="iso-8859-1"?>
<!-- Generator: Adobe Illustrator 19.0.0, SVG Export Plug-In . SVG Version: 6.00 Build 0)  -->
<svg version="1.1" id="Layer_1" xmlns="http://www.w3.org/2000/svg" xmlns:xlink="http://www.w3.org/1999/xlink" x="0px" y="0px"
	 viewBox="0 0 512.002 512.002" style="enable-background:new 0 0 512.002 512.002;" xml:space="preserve">
<g>
	<g>
		<path d="M426.138,468.926c-2.667-5.371-7.552-7.926-12.714-10.07c0.433-0.481,0.855-0.975,1.262-1.492
			c2.007-2.548,3.563-5.276,4.753-8.293c2.495-6.321,1.966-13.134,0.332-19.603c-1.714-6.786-3.767-11.906-8.124-17.594
			c-2.163-2.825-4.74-5.158-7.478-7.423c-0.739-0.611-1.636-1.17-2.561-1.727c1.982-1.941,3.401-4.13,4.032-7.818
			c1.126-6.585,1.416-12.628,0.222-19.231c-1.053-5.82-3.03-11.533-7.369-15.746c-2.789-2.708-5.695-3.976-8.812-5.124
			c0.74-1.625,1.35-3.335,1.945-5.011c0.407-1.147,0.744-2.303,1.016-3.467c1.152-4.093,1.15-8.513,0.241-12.749
			c-0.376-3.734-0.704-7.488-2.249-10.952c-0.931-2.089-2.128-4.169-3.466-6.024c-0.114-0.157-0.245-0.305-0.376-0.454
			c0.603-0.441,1.198-0.903,1.784-1.354c1.982-0.951,3.75-2.293,5.181-4.157c0.947-0.91,1.819-1.9,2.555-3.04
			c3.627-5.625,4.434-14.767,3.23-21.194c-1.195-6.381-5.395-12.642-11.549-15.11c-3.804-1.525-8.292-2.196-12.356-2.462
			c-0.397-0.026-0.792-0.026-1.185-0.022c0.074-0.176,0.149-0.354,0.223-0.529c1.542-3.668,2.352-7.445,2.089-11.443
			c-0.274-4.152-1.279-8.251-3.208-11.957c-0.924-1.778-2.111-3.186-3.372-4.505c0.739-0.523,1.456-1.102,2.155-1.687
			c1.426-0.909,2.76-2.023,3.96-3.422c0.406-0.474,0.793-0.968,1.166-1.472c1.084-1.335,2.015-2.789,2.782-4.434
			c3.304-7.078,5.311-16.5,1.391-23.794c-3.132-5.827-10.026-8.788-16.146-10.249c-3.09-0.737-6.262-0.958-9.42-1.227
			c3.117-3.124,5-6.797,5.571-11.203c0.871-6.721-2.052-15.708-7.164-21.058c0.275-0.297,0.552-0.593,0.825-0.892
			c0.893-1.028,1.827-2.075,2.57-3.216c1.937-2.974,2.883-6.513,3.268-10.017c0.71-6.47-2.133-13.269-6.971-17.591
			c-10.486-9.368-27.478-9.938-40.817-10.277c-3.238-0.082-6.452-0.22-9.662-0.352c0.927-1.809,1.701-3.719,2.365-5.668
			c1.579-3.459,3.078-6.951,3.911-10.712c1.62-7.317,2.353-14.413,2.081-21.907c-0.519-14.321-8.355-25.753-16.85-36.656
			c-4.638-5.952-9.635-11.149-13.572-17.674c-3.804-6.305-6.213-13.037-7.336-20.296c-0.758-4.903-5.843-9.313-10.197-4.493
			c-1.555,1.721-2.06,4.002-3.614,5.81c-2.444,2.847-4.651,5.853-6.828,8.906c-4.402,6.17-8.157,13.546-9.145,21.157
			c-0.422,3.254-0.727,6.894-0.757,10.575c-2.468-2.156-5.011-4.211-7.562-6.132c-3.345-2.52-7.24,1.006-7.545,4.329
			c-0.294,3.203,1.448,6.075,1.383,9.291c-0.065,3.253-0.989,7.145-1.971,10.24c-2.065,6.504-6.502,12.166-8.892,18.529
			c-0.75,1.995-1.222,4.07-1.528,6.176c-4.207,9.781-2.904,20.067,1.642,29.411c-8.067,2.051-17.316,2.41-25.648,2.431
			c-4.971,0.012-9.899,0.873-14.811,1.471c-5.246,0.639-10.497,1.315-15.614,2.746c-9.048,2.531-15.19,7.88-16.831,17.32
			c-0.622,3.581-0.571,7.71,1.438,10.885c1.201,1.899,3.204,3.25,5.035,4.473c0.656,0.438,1.336,0.865,2.024,1.266
			c-1.947,2.787-4.832,5.311-6.254,8.26c-1.984,4.116-2.972,9.278-2.77,13.843c0.131,2.941,0.999,5.442,2.011,8.179
			c0.695,1.877,1.188,4.894,2.478,6.475c-0.092,0.036-0.174,0.066-0.227,0.084c-2.281,0.745-4.527,1.621-6.685,2.677
			c-8.94,4.373-14.054,12.521-17.692,21.499c-1.634,4.032-1.396,8.126,0.719,11.973c1.044,1.899,2.695,2.987,4.113,4.537
			c0.813,0.888,1.797,1.62,2.746,2.362c-0.877,1.959-2.739,4.402-3.347,5.715c-1.313,2.837-1.949,6.66-1.931,9.766
			c0.02,3.339,1.186,6.666,2.394,9.739c0.667,1.699,1.328,3.453,2.199,5.061c0.009,0.019,0.022,0.036,0.033,0.055
			c-1.761,0.445-3.671,0.733-5.01,1.346c-2.262,1.038-4.359,2.486-6.167,4.206c-4.099,3.901-6.606,9.062-8.171,14.422
			c-1.44,4.933-1.736,11.397,0.126,16.25c1.126,2.933,2.924,4.976,5.003,6.773c1.231,1.638,2.613,2.786,4.151,3.597
			c-1.151,1.028-2.266,2.086-3.108,3.311c-2.493,3.626-4.197,8.313-5.101,12.606c-0.904,4.298-0.853,8.798,0.19,13.07
			c0.575,2.353,1.557,4.591,2.625,6.757c0.108,0.22,0.232,0.439,0.358,0.658c-0.551,0.246-1.101,0.535-1.653,0.925
			c-2.08,1.473-3.635,3.559-5.097,5.619c-3.587,5.051-5.824,10.132-6.933,16.133c-1.157,6.256-1.033,13.584,0.22,19.789
			c0.488,2.418,0.871,4.717,1.975,6.932c-3.667,3.094-6.534,7.369-8.684,11.454c-4.103,7.795-6.366,15.659-5.63,24.526
			c0.324,3.913,1.098,7.814,2.287,11.555c0.238,0.749,0.48,1.744,0.833,2.5c-0.51,0.317-0.967,0.621-1.246,0.82
			c-5.604,4-7.687,11.754-9.06,18.161c-1.475,6.886-1.318,15.733,0.311,22.635c1.756,7.443,6.607,12.107,13.949,14.149
			c8.645,2.404,18.444,1.292,27.315,1.287c9.493-0.005,18.966,0.386,28.407-0.578c8.646-0.883,17.466-0.063,26.08,0.521
			c9.407,0.638,18.902-0.204,28.33,0.245c18.592,0.888,37.153,1.088,55.767,1.138c19.103,0.052,38.174-1.365,57.289-1.43
			c9.112-0.031,18.471-0.176,27.559-0.692c7.07-0.401,14.196-1.082,21.302-1.442c11.63,1.039,25.826,2.157,37.034-1.009
			c0.247-0.027,0.493-0.057,0.74-0.082c8.865-0.901,15.279-4.976,17.81-13.939C428.589,485.868,429.726,476.154,426.138,468.926z
			 M405.747,423.951c2.84,6.039,5.295,13.65,3.332,20.253c-0.856,2.876-2.947,6.77-5.219,8.807
			c-2.914,2.613-8.175,2.923-11.859,3.14c-5.01,0.296-11.942,1.254-16.527-1.243c-2.144-1.169-4.592-4.274-3.826-6.859
			c0.635-2.14,3.069-3.291,4.425-4.914c2.17-2.595,3.565-5.811,3.889-9.185c0.394-4.096-0.58-8.104-2.083-11.889
			c-1.008-2.537-4.419-6.121-2.791-8.99c2.029-3.575,11.201-3.637,14.542-2.626C396.027,412.384,402.878,417.852,405.747,423.951z
			 M179.515,448.818c9.344,1.865,12.033-7.564,15.524-13.987c1.019-1.875,2.094-3.778,3.601-5.311
			c-0.058,0.058,3.293-3.028,3.95-2.715c0.377,0.179,0.37,1.864,0.386,2.296c0.178,4.282-1.988,8.266-1.29,12.628
			c1.257,7.849,9.692,9.486,15.047,4.316c5.636-5.442,5.791-15.944,12.855-19.906c2.269-1.272,4.397-1.324,5.216,0.952
			c0.651,1.807,0.073,4.842,0.006,6.728c-0.139,3.945-0.26,7.692,2.569,10.793c5.193,5.69,13.265,4.122,18.288-0.913
			c2.637-2.643,4.128-6.208,5.297-9.698c0.62-1.85,0.904-4.924,2.275-6.389c0.4-0.507,0.8-1.015,1.2-1.521
			c1.551,0.453,3.101,0.905,4.652,1.358c0.632,0.609,0.585,3.157,0.679,3.807c1.13,7.785,3.419,14.018,11.99,15.239
			c8.268,1.177,13.638-3.398,16.48-10.873c0.438-1.151,0.73-2.34,1.126-3.503c0.881-2.577,0.539-3.033,3.437-3.242
			c3.24-0.234,2.972,1.663,3.469,4.257c0.661,3.452,1.165,6.988,3.414,9.834c4.632,5.862,12.946,4.904,17.575-0.44
			c3.135-3.619,3.378-8.039,5.217-12.242c3.272-7.478,8.937,5.381,10.524,7.872c4.536,7.115,12.293,11.664,20.869,11.173
			c-0.021,2.088,0.717,4.379,1.558,6.07c0.048,0.099,0.105,0.195,0.158,0.293c-13.196-0.368-26.47-0.055-39.644-0.051
			c-8.054,0.003-16.105,0.047-24.157-0.064c-8.1-0.112-16.184-0.905-24.281-0.828c-15.222,0.146-30.361,0.109-45.562,0.849
			c-13.415,0.652-26.947,0.692-40.375,1.434c-12.052-0.005-24.11,0.811-36.156,0.089c-3.375-0.202-6.74-0.36-10.1-0.487
			c1.197-1.501,2.099-3.292,2.667-4.837c0.278-0.757,0.563-1.977,0.68-3.267c4.152-0.298,8.18-3.932,11.002-7.293
			c2.908-3.463,5.481-7.093,8.994-9.992c0.912-0.753,5.507-4.705,6.44-3.001c0.682,1.245-0.989,4.777-1.363,6.187
			C172.124,440.493,172.09,447.336,179.515,448.818z M353.594,439.387c-6.67-4.03-7.535-13.967-14.362-17.585
			c-5.742-3.043-11.218,1.794-13.364,6.787c-1.465,3.41-2.196,9.019-6.051,10.646c-5.736,2.421-6.293-4.904-7.173-8.538
			c-1.364-5.63-5.556-11.781-12.246-9.772c-8.366,2.513-6.337,13.678-12.78,17.602c-1.775,1.081-4.498,1.051-6.446,0.445
			c-2.855-0.889-3.522-2.569-4.305-5.136c-1.129-3.705-1.069-7.891-3.488-11.09c-3.672-4.854-9.731-4.728-13.893-0.635
			c-4.75,4.672-5.712,18.866-14.14,18.689c-7.059-0.148-2.198-15.919-6.945-20.008c-4.225-3.639-11.001-0.607-14.664,2.367
			c-2.723,2.211-4.475,5.251-6.204,8.249c-1.373,2.38-3.698,8.642-6.367,9.623c-1.121,0.413-2.201,0.321-2.839-1.478
			c-0.385-1.087,0.228-3.271,0.39-4.407c0.22-1.554,0.552-3.112,0.606-4.684c0.079-2.24-0.221-4.818-1.401-6.779
			c-3.418-5.679-10.211-2.442-13.992,1.124c-2.635,2.484-4.59,5.748-6.301,8.903c-0.915,1.688-4.538,11.412-7.65,7.319
			c-1.427-1.877,1.302-9.008,1.365-11.432c0.076-2.887-0.333-6.031-3.348-7.307c-6.687-2.831-14.974,5.72-18.901,10.054
			c-1.709,1.885-9.032,11.998-11.901,7.932c-2.324-3.294,3.859-9.297,5.813-11.385c5.019-5.364,10.002-11.931,11.81-19.283
			c16.846-0.677,33.8-0.722,50.544-0.826c14.977-0.094,29.998-0.832,44.984-1.159c15.101-0.331,30.209-0.104,45.313-0.227
			c11.981-0.098,23.971-0.318,35.955-0.57c7.01,0.704,14.035,1.477,21.066,1.915c0.034,0.111,0.066,0.221,0.109,0.334
			c2.838,7.377,9.387,14.282,9.669,22.516C372.828,442.326,360.896,443.797,353.594,439.387z M144.954,410.761
			c4.775-0.37,9.565-0.679,14.371-0.915c-1.634,3.345-4.163,6.277-6.863,9.065C151.153,415.86,148.197,413.031,144.954,410.761z
			 M339.191,194.881c-0.511,0.479-0.875,1.049-1.117,1.658c-2.992,0.898-6.13,1.144-8.837-0.08
			c-1.645-0.744-5.366-3.728-4.701-5.921c0.237-0.78,5.625-0.407,6.833-0.841c4.009-1.439,6.401-5.514,6.925-9.611
			c0.302-2.358,0.054-5.586-0.755-7.884c-0.639-1.815-4.358-5.02-1.148-5.776c3.208-0.756,6.328-0.324,9.164,1.147
			c0.022,0.022,0.042,0.045,0.064,0.067c2.546,2.627,5.006,6.294,5.782,10.13C353.189,186.602,344.462,189.933,339.191,194.881z
			 M191.875,192.899c3.974-1.724,6.851-5.981,9.567-9.036c0.479-0.539,1.305-1.646,1.937-2.112c0.298-0.313,0.595-0.625,0.893-0.938
			c2.489-1.102,3.211-0.748,2.167,1.063c0.113,2.154-1.696,4.586-1.737,6.889c-0.075,4.201,3.55,8.175,7.893,7.925
			c4.236-0.243,7.025-4.21,8.444-7.783c0.975-2.455,1.365-5.12,3.003-7.289c1.961-2.599,4.671-3.396,5.836-0.062
			c0.526,1.504,0.072,3.483,0.459,5.076c2.175,8.929,16.593,12.804,19.338,2.161c0.518-2.008,0.366-9.909,3.938-9.297
			c2.672,0.458,2.776,6.586,3.604,8.505c1.805,4.188,5.694,6.399,10.19,6.395c4.762-0.003,8.043-1.405,10.098-5.775
			c0.965-2.053,1.353-4.316,2.257-6.385c1.165-2.666,2.973-6.59,7.291-2.628c1.402,1.288,2.152,4.641,2.976,6.332
			c3.177,6.521,14.972,14.902,21.459,7.258c1.653-1.948,2.173-4.736,2.879-7.108c0.215-0.723,0.487-3.536,1.548-3.566
			c0.14-0.004,1.482,2.486,1.729,2.78c0.584,0.701,1.236,1.343,1.936,1.922c-2.182,3.347,0.625,9.484,3.063,12.348
			c-6.289,0.082-12.574,0.176-18.654,0.26c-21.091,0.295-42.182-0.532-63.254,0.349c-10.466,0.437-20.995,0.45-31.476,0.597
			c-6.586,0.093-13.098-0.293-19.621-0.688C191.523,198.176,192.565,195.769,191.875,192.899z M315.336,176.361
			c-3.577,0.027-5.776,4.456-6.936,7.213c-1.239,2.949-1.788,5.827-5.55,5.379c-2.747-0.326-5.117-2.189-6.651-4.313
			c-2.7-3.74-3.686-9.29-8.146-11.505c-8.264-4.104-13.001,4.796-15.453,11.014c-1.157,2.933-2.668,4.248-5.895,4.066
			c-4.768-0.269-4.493-4.258-5.884-7.591c-1.12-2.687-4.01-6.175-7.043-6.741c-3.075-0.574-5.426,2.029-6.78,4.438
			c-1.019,1.815-1.377,3.845-2.081,5.767c-1.062,2.897-0.854,4.563-4.398,4.529c-4.154-0.039-4.833-2.971-5.765-6.443
			c-0.806-3.003-1.526-6.254-4.957-7.293c-3.531-1.07-7.056,1.556-9.118,4.145c-1.477,1.855-4.3,10.091-6.69,10.449
			c-5.038,0.754-2.064-6.446-2.009-7.929c0.065-1.72-0.318-3.316-1.659-4.521c-2.636-2.368-6.267-1.169-8.68,0.799
			c-1.947,1.588-3.469,3.721-5.204,5.521c-1.069,1.109-2.187,2.21-3.419,3.13c-0.707,0.527-1.446,1.008-2.216,1.439l-4.116-1.935
			c-0.343-0.918,4.108-5.076,4.689-5.846c1.622-2.149,2.975-4.318,4.069-6.779c1.678-3.776,2.403-6.365,1.417-9.737
			c16.801-0.822,33.787,0.759,50.58,0.791c17.071,0.033,34.099,0.104,51.146,0.33c7.944,0.105,15.843,0.397,23.775,0.684
			c1.263,0.045,2.548,0.119,3.843,0.197c0.752,3.298,3.121,5.318,4.927,8.512c3.41,6.031-1.654,13.933-8.486,8.895
			C319.95,181.036,319.315,176.33,315.336,176.361z M186.699,163.978c1.958,0.036,3.92,0.003,5.888-0.117
			c-0.579,1.477-1.202,2.915-1.883,4.318C189.627,166.589,188.149,165.146,186.699,163.978z M231.968,85.473
			c3.436-5.74,6.888-10.911,7.243-17.878c0.072-1.401-0.028-2.766-0.225-4.113c0.397-1.744,0.778-3.513,0.986-5.286
			c0.972,0.876,1.919,1.774,2.842,2.692c0.598,0.696,1.186,1.398,1.743,2.125c2.371,3.096,3.63,6.506,7.447,8.014
			c2.447,0.966,4.353-1.434,4.608-3.51c0.503-4.105-1.55-8.983-2.651-13.203c-0.127-2.993,0.117-6.016,0.183-9.058
			c0.063-2.943,0.355-5.631,0.947-8.241c0.506-1.082,1.102-2.174,1.801-3.29c2.957-4.717,6.013-9.521,8.669-14.414
			c0.246-0.454,0.522-0.931,0.804-1.416c0.087,0.321,0.161,0.647,0.253,0.967c1.521,5.282,3.838,10.259,6.509,15.051
			c2.496,4.479,5.157,9.097,8.713,12.815c3.526,3.687,5.956,8.025,9.131,11.969c2.419,3.007,4.281,6.127,5.692,9.372
			c4.06,14.31,3.514,29.516-1.888,43.274c-0.676,1.513-1.354,3.023-1.977,4.553c-0.529,1.091-1.083,2.172-1.676,3.239
			c-1.038-0.004-2.077-0.002-3.12,0.013c-1.106,0.016-2.214,0.027-3.32,0.041c3.505-9.615,3.712-20.198,2.497-30.387
			c-0.804-6.75-1.951-13.399-4.689-19.669c-1.262-2.89-2.673-5.821-4.231-8.562c-1.645-2.895-4.224-5.726-5.463-8.793
			c-0.813-2.012-4.352-2.037-4.158,0.563c0.357,4.789,0.919,9.041-0.158,13.823c-1.238,5.496-3.539,9.936-6.25,14.801
			c-1.989,3.569-3.326,7.537-3.892,11.579c-0.087,0.622-0.108,1.311-0.1,2.035c-2.23-4.666-5.622-8.909-9.299-11.886
			c-1.242-1.004-2.941-0.353-3.074,1.274c-0.224,2.759,0.124,5.477-0.476,8.211c-0.561,2.558-1.497,4.902-2.461,7.33
			c-1.818,4.576-3.104,9.155-3.124,14.118c-0.008,1.949,0.376,4.448,1.156,6.891c-2.309,0.093-4.62,0.151-6.937,0.133
			c-0.479-0.004-0.959-0.009-1.439-0.017c-3.049-3.785-5.996-7.631-6.792-12.489c-0.081-1.482-0.179-2.959-0.208-4.396
			C225.886,97.208,228.638,91.036,231.968,85.473z M249.903,88.673c4.173,4.786,7.179,11.152,7.039,17.212
			c-0.048,2.088,2.652,2.553,3.708,1.004c2.084-3.058,1.196-6.225,1.132-9.704c-0.117-6.383,2.33-11.796,5.69-17.039
			c3.972-6.2,5.513-12.519,5.732-19.232c1.36,2.134,2.712,4.287,3.742,6.588c3.077,6.871,4.505,13.829,5.269,21.3
			c0.708,6.918,1.294,13.376-0.404,20.213c-0.89,3.579-2.43,6.905-3.882,10.256c-6.155,0.072-12.31,0.151-18.465,0.315
			c-4.546,0.122-9.068,0.434-13.59,0.691c-1.528-4.937-1.165-10.527,0.465-15.353c1.215-3.595,2.763-6.967,3.444-10.725
			C250.148,92.182,250.074,90.437,249.903,88.673z M162.442,138.74c6.702-3.988,15.522-3.168,22.99-3.698
			c16.04-1.14,32.174-1.233,48.247-1.716c13.99-0.42,27.998-0.275,42.008-0.521c0.018,0.001,0.034,0.005,0.053,0.005
			c0.026,0,0.048-0.006,0.076-0.007c3.31-0.059,6.621-0.134,9.931-0.25c7.612-0.268,15.329-0.575,23.055-0.683
			c2.883,0.206,5.767,0.42,8.657,0.637c7.426,0.556,14.985,0.666,22.175,2.76c2.251,0.656,5.652,1.318,8.038,2.569
			c0.537,0.546,1.042,1.123,1.478,1.764c1.075,1.583,1.689,3.443,1.872,5.349c-0.159,1.661-0.609,3.321-1.045,4.688
			c-2.303,7.203-9.417,8.229-16.106,8.262c-13.544,0.064-27.301-0.593-40.834-1.285c-6.375-0.326-12.811,0.084-19.197-0.009
			c-7.585-0.111-15.211,0.118-22.781,0.525c-15.212,0.822-30.562,0.818-45.794,0.791c-13.16-0.023-27.203,1.682-40.06-2.177
			c-1.086-1.32-2.756-2.264-4.511-3.115c-1.022-0.495-1.869-0.983-2.567-1.49C155.874,147.134,157.613,141.614,162.442,138.74z
			 M180.804,188.948c1.099,2.114,5.537,3.529,3.681,6.179c-2.059,2.94-7.554,3.417-10.702,3.085
			c-5.314-0.561-11.635-2.873-14.306-7.854c-2.492-4.647-2.745-11.236-0.485-16.016c1.392-2.942,3.577-6.486,6.433-8.18
			c5.469-3.242,10.664-3.561,15.504,0.964c1.684,1.575,3.289,3.505,4.239,5.621c1.11,2.469,0.832,3.225-0.922,4.942
			C180.954,180.911,178.404,184.335,180.804,188.948z M140.5,215.75c0.907-1.23,1.952-2.286,3.081-3.225
			c5.47-3,11.99-3.069,18.414-3.1c9.525-0.047,19.011,0.35,28.519,0.849c17.989,0.944,36.006-1.291,53.96-2.297
			c20.835-1.169,41.706-0.71,62.571-1.225c17.732-0.439,35.424-0.325,53.143-0.789c1.885,0.284,3.767,0.603,5.648,0.959
			c0.98,0.185,2.143,0.323,3.284,0.536c5.688,3.221,4.697,10.214,2.659,15.602c-1.134,2.998-2.592,4.971-5.058,6.99
			c-1.562,1.278-3.304,2.03-4.982,2.905c-8.432,1.245-17.135,1.189-25.633,1.231c-35.224,0.174-70.424-1.312-105.648-0.862
			c-18.806,0.24-37.724,0.021-56.514-0.758c-9.264-0.384-18.586-0.004-27.857,0.039c-1.735,0.008-4.161,0.328-6.417,0.229
			c-1.612-1.153-3.281-2.262-4.291-3.926C133.493,225.797,138.639,218.272,140.5,215.75z M182.896,266.808
			c1.435-0.742,2.726-1.715,3.752-2.929c2.258-2.669,3.446-6.005,5.495-8.797c0.469-0.639,3.492-4.351,4.21-3.465
			c0.423,0.523-0.91,2.912-1.151,3.507c-1.575,3.884-3.56,9.168,0.305,12.413c4.037,3.39,13.048,3.308,16.888-0.296
			c2.041-1.916,3.187-4.409,4.224-6.948c0.621-1.52,1.075-3.975,2.055-5.224c0.335-0.427,2.038-1.765,2.825-1.271
			c0.612,0.386-0.107,3.747-0.162,4.294c-0.578,5.766,0.834,11.33,7.558,11.951c6.55,0.605,8.594-4.796,10.234-10.085
			c0.595-1.918,1.252-6.173,3.011-7.39c4.383-3.031,3.988,8.223,4.526,10.703c1.222,5.643,7.013,8.466,12.39,6.625
			c6.456-2.21,6.022-9.125,8.714-14.238c0.872-1.656,2.681-4.385,5.096-0.575c0.44,0.696,0.285,2.418,0.391,3.259
			c0.175,1.388,0.278,2.778,0.685,4.127c0.77,2.553,2.3,4.893,4.591,6.311c5.576,3.451,11.38,0.462,14.865-4.448
			c1.757-2.476,2.424-8.276,5.255-9.469c4.734-1.995,3.768,8.115,4.937,10.956c2.026,4.925,8.023,8.049,13.086,5.944
			c2.967-1.234,4.834-3.694,6.019-6.603c1.019-2.504,2.594-12.172,5.454-6.341c2.811,5.731,2.337,13.637,10.623,14.192
			c0.379,0.025,0.757,0.029,1.134,0.026c0.189,0.751,0.486,1.491,0.723,2.127c-14.101,0.054-28.197-0.02-42.332-0.386
			c-24.622-0.638-49.196-0.896-73.827-0.691c-12.861,0.107-25.71-0.292-38.564-0.115c-2.238,0.031-4.484,0.055-6.725,0.084
			c2.015-1.716,3.493-3.929,3.752-6.447C182.962,267.324,182.944,267.057,182.896,266.808z M337.002,264.769
			c-2.102-2.138-2.598-6.358-3.789-9.074c-1.67-3.809-4.826-6.977-9.263-5.006c-5.691,2.527-4.976,9.406-8.646,13.434
			c-1.756,1.928-4.548,1.724-6.033-0.698c-0.949-1.546-0.759-3.906-1.074-5.64c-0.435-2.393-1.195-5.211-2.966-6.991
			c-2.743-2.759-8.328-2.698-11.233-0.239c-3.469,2.937-7.93,18.519-13.599,11.437c-3.438-4.295-0.692-11.916-7.253-14.16
			c-4.797-1.64-9.078,2.177-11.1,6.181c-1.232,2.438-1.698,5.526-3.247,7.767c-0.469,0.678-1.315,1.641-2.119,1.948
			c-2.03,0.773-2.351-0.14-3.395-1.615c-1.462-2.067-1.271-4.617-1.598-7.061c-0.621-4.645-3.016-8.754-8.375-8.65
			c-4.18,0.081-6.732,3.751-8.292,7.193c-0.832,1.834-1.436,3.753-2.161,5.628c-0.571,1.476-0.964,3.608-2.554,4.155
			c-2.9,0.999-3.276-2.358-3.25-4.537c0.051-4.169-0.18-11.279-5.702-12.245c-5.114-0.895-7.42,5.673-9.129,9.161
			c-1.707,3.481-2.941,7.602-7.421,7.705c-1.657,0.038-4.769,0.194-5.403-1.672c-0.32-0.941,0.775-3.12,1.083-4.026
			c1.22-3.586,3.176-9.304-1.626-11.274c-5.32-2.182-10.258,4.127-12.7,7.909c-2.492,3.859-5.305,9.229-10.988,7.665
			c-1.463-0.403-1.755,0.366-1.998-1.385c-0.228-1.646,0.426-1.317,1.303-2.403c1.061-1.317,2.523-2.38,3.622-3.701
			c3.448-4.145,6.615-9.618,6.924-15.171c13.151,0.293,26.302,0.729,39.456,0.965c20.439,0.366,40.948,0.995,61.365,1.864
			c10.437,0.444,20.883,0.719,31.335,0.766c9.4,0.043,18.959,0.557,28.373,0.151c2.007,5.889,5.695,12.608,1.936,18.52
			C345.663,264.536,340.035,267.854,337.002,264.769z M170.392,267.447c1.725,0.712,2.895,1.299,1.613,3.372
			c-0.65,1.049-2.136,1.661-3.167,2.029c-1.544,0.551-3.491,1.028-5.496,1.377c-1.924,0.335-3.844-0.285-5.743-0.373
			c-2.218-0.102-4.238,0.14-6.447-0.404c-2.579-0.637-5.083-1.862-7.094-3.621c-0.499-0.822-1.129-1.56-1.689-2.435
			c-1.29-2.014-2.211-4.314-2.954-6.604c-0.437-3.231-0.073-6.642,0.692-9.595c0.92-3.556,2.944-6.752,5.696-9.184
			c5.56-4.91,14.156-3.908,19.411,0.741c2.674,2.367,2.993,6.095,5.3,8.578c-1.111,1.077-2.207,2.169-3.186,3.397
			C163.826,259.112,165.011,265.228,170.392,267.447z M170.175,239.161c3.136,0.034,6.273,0.078,9.409,0.136
			c-1.097,2.111-2.474,4.174-3.765,6.04C174.572,242.83,172.194,240.524,170.175,239.161z M351.212,268.335
			c1.703-1.651,3.051-3.666,3.864-5.899c1.275-3.501,1.342-7.164,0.588-10.786c-0.441-2.121-2.002-4.231-1.952-6.445
			c0.056-2.411,2.282-2.888,4.491-2.543c1.722,2.151,4.105,3.499,5.608,5.873c1.838,2.905,2.772,6.52,2.706,9.944
			c-0.055,2.85-0.916,5.731-2.386,8.187c-1.268,2.118-3.352,3.4-4.693,5.535c-0.175,0.278-0.31,0.555-0.424,0.832
			c-0.039,0.044-0.08,0.088-0.118,0.132c-2.045,2.32-5.544,1.941-8.367,1.942c-1.917,0.001-3.361-0.083-3.786-2.358
			C346.372,270.765,349.977,269.531,351.212,268.335z M125.208,288.904c2.361-4.437,5.572-6.673,10.181-8.066
			c1.989-0.121,3.976-0.126,5.801-0.241c20.053-1.256,40.695-0.463,60.758,0.548c10.908,0.551,21.915,0.227,32.838,0.324
			c10.453,0.093,20.913,0.61,31.359,0.615c10.696,0.005,21.451,0.775,32.151,1.121c10.568,0.342,21.197,0.165,31.75,0.744
			c10.866,0.596,22.064,0.766,32.927,0.099c5.445-0.335,10.883-0.232,16.327-0.611c2.179-0.152,5.16-0.376,7.316,0.672
			c1.372,1.575,2.179,3.665,2.331,6.404c0.246,4.485-0.335,9.915-3.715,13.069c-2.294,2.14-4.981,3.39-7.582,4.813
			c-3.389,0.165-6.927-0.198-9.931-0.339c-3.575-0.167-7.196-0.276-10.828-0.308c-1.254-0.084-2.509-0.173-3.764-0.25
			c-10.415-0.641-20.882-1.413-31.324-1.369c-20.367,0.087-40.769,0.943-61.127,0.933c-10.352-0.005-20.702-0.105-31.055-0.079
			c-10.524,0.026-21.049,1.124-31.584,1.322c-9.752,0.183-19.48,0.547-29.22,0.84c-9.756,0.293-19.532,0.063-29.286,0.537
			c-2.847,0.138-6.904,0.723-10.166,0.117c-2.328-1.819-4.887-3.498-5.997-5.919C121.36,299.501,123.054,292.952,125.208,288.904z
			 M364.334,337.073c-0.483-3.182-2.201-6.066-4.004-8.67c-0.909-1.313-3.44-3.415-2.45-5.187c0.389-0.697,2.976-1.75,3.69-2.211
			c1.651-1.066,3.401-1.966,5.4-2.096c4.875-0.317,9.176,2.547,12.416,5.908c0.053,0.086,0.113,0.161,0.163,0.25
			c2.018,3.535,2.138,7.028,2.656,10.999c0.475,3.649,0.325,6.652-0.822,10.158c-0.865,2.643-2.098,4.368-3.472,6.358
			c-0.422,0.516-0.837,1.04-1.225,1.591c-1.616,2.288-2.098,3.393-5.043,4.147c-3.767,0.964-11.074,1.761-13.164-2.616
			c-1.692-3.544,1.662-5.812,3.418-8.366C363.959,344.34,364.882,340.682,364.334,337.073z M172.401,346.862
			c2.069-3.012,3.329-6.491,5.454-9.461c0.88-1.23,4.414-5.127,6.026-3.838c0.795,0.635-1.246,4.948-1.517,5.951
			c-1.839,6.814-0.042,13.849,7.949,14.97c8.773,1.23,11.558-7.782,14.098-14.13c0.845-2.112,6.653-11.112,7.512-5.638
			c0.627,3.998-1.76,7.931-0.136,12.102c2.347,6.024,9.639,7.129,14.588,3.719c2.803-1.932,4.758-4.752,6.067-7.851
			c0.787-1.865,1.354-3.795,1.936-5.733c0.578-1.925,1.588-6.672,3.701-3.956c1.121,1.44,0.87,4.756,1.066,6.5
			c0.331,2.919,0.954,5.847,2.986,8.106c4.554,5.063,12.253,3.44,16.208-1.494c2.408-3.004,2.934-6.908,4.096-10.466
			c0.461-1.414,1.515-4.861,3.398-4.921c1.713-0.054,1.766,3.237,2.063,4.883c1.158,6.389,2.925,14.11,10.566,15.196
			c8.961,1.273,10.658-6.987,13.832-13.028c0.763-1.453,2.942-5.205,4.702-4.249c1.395,0.759,1.259,3.931,1.554,5.396
			c0.676,3.369,1.658,6.931,4.463,9.172c5.37,4.289,11.813,3.55,15.714-1.884c1.674-2.332,2.911-4.824,4.3-7.316
			c0.462-0.83,0.792-1.639,1.41-2.382c1.233-1.482,0.904-1.462,1.888-0.576c1.23,1.109,1.953,5.14,2.657,6.747
			c0.967,2.209,2.068,4.414,3.652,6.255c4.243,4.929,11.588,6.769,17.954,5.58c0.47,1.522,1.255,2.989,1.918,4.01
			c0.135,0.207,0.298,0.391,0.445,0.586c-2.166,0.099-4.33,0.168-6.493,0.177c-12.253,0.046-24.58,0.742-36.822,0.382
			c-12.365-0.363-24.865-1.68-37.237-1.192c-12.059,0.476-24.249,0.782-36.313,0.757c-13.357-0.027-26.646-0.175-39.991,0.205
			c-8.382,0.239-16.782-0.201-25.184-0.427C173.4,355.457,174.807,349.97,172.401,346.862z M346.519,347.458
			c-10.195,0.011-10.836-8.947-14.936-16.016c-2.79-4.81-8.436-3.778-11.961-0.231c-2.551,2.567-3.964,6.06-5.914,9.06
			c-1.175,1.807-1.922,3.44-4.429,2.864c-2.934-0.676-3.804-3.341-4.564-5.915c-1.306-4.426-2.461-11.531-8.695-10.192
			c-6.411,1.377-8.737,8.254-11.719,13.132c-1.63,2.667-4.842,4.642-7.556,2.302c-1.318-1.137-1.823-3.727-2.287-5.325
			c-0.805-2.777-1.071-5.872-2.397-8.477c-2.281-4.474-7.044-5.15-11.01-2.224c-2.242,1.655-3.725,4.074-4.864,6.569
			c-1.241,2.719-2.687,9.777-6.5,10.092c-3.852,0.318-4.349-10.389-5.783-13.044c-1.997-3.7-5.634-5.215-9.599-3.564
			c-6.657,2.772-5.883,11.739-10.57,16.416c-1.85,1.845-4.395,2.898-5.445-0.516c-0.497-1.617,0.254-4.4,0.316-6.03
			c0.094-2.466-0.245-4.829-1.82-6.857c-3.22-4.144-8.773-2.604-12.106,0.505c-2.09,1.95-3.731,4.417-5.078,6.92
			c-1.367,2.539-5.405,13.633-9.175,8.118c-3.012-4.407,4.289-15.108-4.108-17.03c-6.005-1.375-11.706,5.174-14.498,9.541
			c-2.337,3.653-4.431,8.607-8.949,9.854c-4.325,1.193-7.397-2.459-5.031-6.163c1.338-2.095,3.663-3.539,5.33-5.349
			c4.504-4.886,8.575-11.508,9.247-18.292c8.198-0.333,16.391-0.612,24.607-0.747c12.502-0.205,24.947-1.34,37.445-1.344
			c26.39-0.009,52.767-0.338,79.154-0.789c10.212-0.175,20.39,0.035,30.588,0.171c0.705,6.777,4.657,10.737,8.857,16.378
			c2.253,3.027,5.056,7.248,3.216,11.105C354.593,345.93,350.181,347.454,346.519,347.458z M154.755,352.758
			c1.906,0.966,3.925,1.396,6.05,1.325c2.842-0.094,4.786,0.847,1.841,3.131c-2.103,1.631-4.728,2.021-7.326,1.908
			c-4.981-0.217-9.863,0.87-14.878,0.195c-5.168-0.695-9.291-4.569-12.067-8.802c-1.937-2.954-2.951-6.426-2.826-9.857
			c0.19-5.183,2.481-10.072,5.5-14.202c1.981-2.711,4.153-4.601,7.055-5.724c0.67-0.259,1.378-0.478,2.132-0.656
			c4.651-1.1,6.554-0.735,10.621,2.207c1.776,1.284,3.525,2.728,5.042,4.335c1.02,1.081,1.663,2.338,2.535,3.469
			c-2.46,2.102-4.869,4.187-6.635,6.539C148.055,341.612,148.794,349.735,154.755,352.758z M158.724,318.175
			c1.607-0.063,3.214-0.121,4.82-0.192c1.667-0.073,3.332-0.142,4.998-0.213c-0.774,2.497-2.212,4.643-3.967,6.603
			C163.195,321.899,161.161,319.819,158.724,318.175z M114.428,381.134c0.389-5.509,0.825-6.216,3.242-10.572
			c0.831-1.497,1.878-3.828,3.221-5.178c2.339-0.202,4.88,0.279,7.055,0.561c4.871,0.63,9.815,0.757,14.716,1.06
			c22.498,1.39,45.115,0.787,67.613,0.983c11.098,0.096,22.33,0.685,33.411-0.067c11.056-0.751,22.412-1.332,33.496-1.204
			c10.849,0.125,21.636,0.672,32.456,1.352c10.925,0.688,21.966,0.348,32.911,0.567c12.525,0.251,24.989-0.907,37.492-1.503
			c3.038-0.145,7.311-0.706,10.629,0.258c2.581,2.484,3.717,5.701,4.496,9.241c1.054,4.793,1.13,9.053,0.446,13.87
			c-0.146,1.032-0.225,2.007-0.428,2.919c-0.534,1.213-1.191,2.324-1.991,3.256c-1.145,0.931-2.556,1.589-3.721,2.538
			c-4.75,1.798-11.553,1.229-16.25,1.406c-0.729,0.027-1.459,0.039-2.19,0.059c-4.48-0.274-8.962-0.524-13.446-0.657
			c-11.332-0.334-22.707-0.167-34.042-0.094c-24.116,0.157-48.238,0.298-72.353,0.367c-22.942,0.065-45.907,0.16-68.85-0.183
			c-10.491-0.156-20.935,0.4-31.413,0.395c-4.82-0.002-9.605,0.483-14.414,0.699c-4.691,0.211-10.624,1.517-15.093-0.134
			c-2.501-0.924-4.472-2.582-5.979-4.684c-0.018-0.159-0.036-0.318-0.038-0.481C114.155,391.207,114.086,385.996,114.428,381.134z
			 M103.83,430.243c0.422-2.016,1.235-4.604,2.363-7.24c2.604-5.107,6.3-9.098,11.77-11.51c0.976-0.023,1.943-0.034,2.901-0.034
			c3.51,0.764,7.268,0.763,11.008,0.501c0.235,0.064,0.472,0.118,0.704,0.198c3.532,1.206,6.273,3.441,8.44,6.412
			c1.852,2.541,2.379,5.491,4.034,7.977c-0.378,0.433-0.747,0.867-1.097,1.306c-3.526,4.418-6.276,10.694-3.15,16.055
			c1.171,2.005,1.432,1.83,0.185,3.931c-0.585,0.986-1.063,2.101-1.685,3.056c-1.55,2.376-4.403,3.507-6.947,4.571
			c-5.092,2.131-13.328,0.7-18.432-0.917c-2.921-0.925-5.447-2.425-7.371-4.477C104.748,443.52,102.295,437.579,103.83,430.243z
			 M417.784,481.924c0.036,5.566-2.919,10.869-7.573,13.737c-1.604,0.344-3.351,0.358-5.14,0.562
			c-3.701,0.422-7.203,0.972-10.949,0.874c-8.433-0.219-16.662-0.464-25.067,0.286c-3.841,0.343-7.669,0.049-11.514,0.199
			c-4.043,0.157-7.971,0.806-12.034,0.782c-5.296-0.032-10.572,0.256-15.852,0.455c-0.952,0.027-1.904,0.055-2.856,0.095
			c-1.594,0.046-3.189,0.082-4.786,0.087c-16.454,0.055-32.85,1.214-49.288,1.393c-8,0.087-16.006-0.078-24.006-0.055
			c-8.254,0.025-16.399-0.742-24.647-0.694c-6.949,0.04-13.86-0.564-20.804-0.694c-8.49-0.159-17.068,0.552-25.518-0.383
			c-6.935-0.767-14.356-0.81-21.334-0.397c-8.456,0.501-16.741,0.73-25.238,0.726c-7.891-0.003-15.916,0.415-23.792-0.085
			c-2.693-0.172-6.81-0.376-8.979-2.296c-2.043-1.81-2.359-4.941-2.561-7.523c-0.522-6.649-0.338-13.645,1.913-19.994
			c3.651-3.891,11.48-2.954,16.377-2.972c13.777-0.049,27.501-0.491,41.283-0.362c12.178,0.114,24.29-1.337,36.439-1.954
			c10.148,0.757,20.222,1.263,30.471,1.195c12.269-0.08,24.523-0.678,36.78-0.536c24.991,0.291,49.925,0.667,74.928,0.585
			c13.115-0.043,26.305-0.6,39.412-0.217c10.543,0.308,22.224,0.051,32.747,2.32c1.096,0.465,2.203,0.915,3.374,1.323
			c2.91,1.015,5.841,2.181,7.33,5.067c0.363,0.703,0.635,1.52,0.84,2.403C417.84,477.866,417.772,479.972,417.784,481.924z"/>
	</g>
</g>
<g>
	<g>
		<path d="M326.658,31.033c-2.172-4.828-6.336-8.775-11.015-11.148c-2.637-1.338-5.521-2.25-7.988-3.913
			c-3.416-2.303-2.718-5.289-4.298-8.509c-1.432-2.918-5.247-2.197-6.842,0c-5.777,7.958-6.489,16.563-2.082,25.401
			c2.398,4.812,6.624,8.435,10.086,12.447c1.75,2.028,3.432,4.182,4.554,6.63c1.135,2.476,1.201,9.782,5.774,8.414
			c1.394-0.417,2.921-2.37,4.107-3.234c1.572-1.145,2.976-2.433,4.189-3.959C327.906,47.16,329.876,38.189,326.658,31.033z
			 M313.991,52.315c-0.958-5.782-4.717-10.818-8.171-15.621c-2.735-3.801-5.067-8.181-5.793-12.855
			c-0.264-1.705-0.101-3.261,0.284-4.752c0.38,0.37,0.783,0.725,1.221,1.063c4.015,3.094,9.016,3.529,13.343,5.907
			C326.902,32.67,319.918,44.073,313.991,52.315z"/>
	</g>
</g>
<g>
	<g>
		<path d="M209.782,27.076c-3.035-1.36-5.667,1.945-3.519,4.562c3.964,4.829-8.385,14.349-11.259,17.33
			c-4.292,4.452-8.228,9.513-9.462,15.719c-1.256,6.325-0.067,13.654,3.379,19.151c2.743,4.375,6.654,9.235,11.799,10.624
			c2.009,0.542,4.491-1.041,4.323-3.293c-0.21-2.787,0.268-5.264,0.686-7.848c0.521-0.827,1.018-1.565,1.364-2.133
			c1.813-2.969,3.956-5.523,6.128-8.225c3.684-4.583,6.505-9.407,7.916-15.166C223.661,47.491,220.348,31.812,209.782,27.076z
			 M208.933,67.647c-2.788,4.218-9.134,11.385-9.568,17.631c-3.241-3.012-5.824-7.094-6.871-11.105
			c-1.979-7.568,0.789-14.146,5.571-19.951c3.431-4.166,7.282-7.957,10.506-12.3c1.132-1.524,1.873-2.97,2.334-4.425
			c2.111,3.614,3.494,7.765,3.847,11.623C215.378,55.968,212.614,62.079,208.933,67.647z"/>
	</g>
</g>
<g>
</g>
<g>
</g>
<g>
</g>
<g>
</g>
<g>
</g>
<g>
</g>
<g>
</g>
<g>
</g>
<g>
</g>
<g>
</g>
<g>
</g>
<g>
</g>
<g>
</g>
<g>
</g>
<g>
</g>
</svg>
