<?xml version="1.0" encoding="iso-8859-1"?>
<!-- Generator: Adobe Illustrator 19.0.0, SVG Export Plug-In . SVG Version: 6.00 Build 0)  -->
<svg version="1.1" id="Layer_1" xmlns="http://www.w3.org/2000/svg" xmlns:xlink="http://www.w3.org/1999/xlink" x="0px" y="0px"
	 viewBox="0 0 512.001 512.001" style="enable-background:new 0 0 512.001 512.001;" xml:space="preserve">
<g>
	<g>
		<path d="M493.644,182.446c-0.357-7.63-1.032-15.631-3.666-22.843c-2.586-7.082-9.511-12.441-15.541-16.576
			c-6.597-4.524-13.911-8.167-21.033-11.785c-3.729-1.895-7.55-3.497-11.397-5.128c-3.807-1.614-7.425-4.151-11.359-5.397
			c-3.523-1.115-7.136-1.75-10.695-2.887c-4.246-1.357-8.746-1.808-13.093-2.758c-8.537-1.867-17.312-3.943-25.931-5.249
			c-4.93-0.747-9.677-1.079-14.518-1.175c0.655-1.158,1.312-2.316,1.927-3.498c3.435-6.598,6.8-13.245,10.897-19.466
			c4.227-6.419,8.827-12.514,12.741-19.148c3.853-6.53,7.867-13.077,11.453-19.752c3.933-7.32-1.32-17.925-5.837-23.797
			c-6.712-8.727-18.063-16.275-28.063-20.652c-5.241-2.294-11.007-3.527-16.321-0.692c-5.346,2.852-8.923,8.072-12.533,12.739
			c-17.882,23.121-34.066,47.174-49.092,72.239c-2.408,4.017-4.785,8.053-7.166,12.086c-1.994-0.251-4.141-0.12-5.776-0.228
			c-6.567-0.433-13.35,0.012-19.925,0.201c-6.912,0.199-13.798,0.541-20.703,0.873c-1.232,0.059-2.476,0.063-3.721,0.06
			c-0.222-0.013-0.444-0.018-0.666-0.032c-8.432-0.563-16.776-1.914-25.265-1.136c-9.446,0.866-18.999,1.784-28.421,2.91
			c-18.634,2.228-37.332,6.147-55.552,10.617c-17.386,4.265-35.159,7.794-52.252,13.072c-15.554,4.803-29.625,12.727-39.649,25.681
			c-10.679,13.799-14.675,28.446-14.654,45.781c0.02,16.21,2.177,32.042,15.375,42.94c3.704,3.058,7.722,5.533,11.936,7.611
			c0.133,3.791-1.026,8.349-1.09,11.273c-0.162,7.418,0.2,14.802-0.08,22.233c-0.542,14.414,0.421,29.044,0.684,43.474
			c0.272,14.888-0.007,29.872,0.769,44.739c0.737,14.128,1.388,28.837,3.919,42.768c4.542,24.999,17.054,48.54,37.551,63.784
			c20.201,15.024,44.978,21.643,69.419,25.88c12.772,2.214,25.643,4.254,38.502,5.893c13.912,1.773,28.399,3.547,42.416,3.85
			c6.947,0.15,13.833,1.024,20.788,1.049c8.086,0.028,16.149-0.672,24.21-1.223c6.517-0.446,13.037-0.557,19.555-0.924
			c7.75-0.436,15.305-1.903,23-2.719c26.859-2.85,53.277-5.465,77.399-18.758c5.657-3.118,10.736-6.528,15.701-10.632
			c4.508-3.726,8.784-6.235,12.442-11.068c7.853-10.375,13.697-23.125,17.122-35.61c2.201-8.023,5.215-15.798,7.325-23.855
			c2.007-7.663,3.264-15.489,4.332-23.331c2.186-16.054,3.101-32.24,5.144-48.307c0.958-7.537,2.291-14.861,2.768-22.425
			c0.432-6.864,2.036-13.741,1.986-20.68c-0.022-3.051,0.459-5.65,0.794-8.683c0.411-3.726-0.099-7.459,0.196-11.185
			c0.302-3.82,0.658-7.328,0.706-11.164c0.018-1.439,0.09-2.369,0.291-3.725c0.492-1.188,0.766-2.426,0.821-3.712
			c0.003-0.064,0.004-0.108,0.007-0.167c1.107-1.629,1.415-3.237,1.172-4.703c6.798-4.358,11.946-9.668,15.379-17.117
			C495.353,216.857,494.406,198.753,493.644,182.446z M381.672,62.859c-7.727,11.563-15.989,22.37-22.727,34.586
			c-6.651,12.058-15.43,22.869-22.888,34.45c-3.795,5.892-6.578,12.347-10.254,18.285c-1.584,2.558-3.571,4.835-5.262,7.321
			c-0.762,1.121-1.61,2.218-2.34,3.361c-0.618,0.967-1.962,1.944-0.258,1.652c-0.683,0.117-1.277,0.316-1.799,0.573
			c-2.54-1.05-5.255-1.702-7.976-1.696c-2.075,0.005-4.237,0.407-6.243,0.901c-2.728,0.673-2.223,0.863-4.444-0.302
			c-2.372-1.244-4.184-2.868-6.254-4.182c0.963-1.697,1.838-3.418,2.659-5.002c2.799-5.406,4.876-11.336,8.247-16.413
			c7.981-12.02,15.409-24.597,22.48-37.192c6.968-12.411,13.789-24.902,20.562-37.419c3.308-6.113,6.475-12.301,9.791-18.415
			c0.787-1.451,1.854-3.026,2.93-4.677c1.633,3.953,4.974,7.279,8.991,8.877c6.994,2.782,14.91,4.88,22.399,3.532
			C386.642,54.946,384.248,59.004,381.672,62.859z M207.834,193.284c1.848,2.177,5.805,0.428,5.665-2.346
			c-0.443-8.735,8.788-14.598,15.929-17.533c4.564-1.876,10.391-3.305,15.327-2.411c6.303,1.142,7.639,6.437,11.773,10.23
			c3.142,2.882,7.635,2.2,9.965-1.284c2.767-4.136,4.313-7.167,9.183-9.246c4.833-2.062,8.1-2.321,12.274,0.827
			c3.995,3.015,7.679,5.869,13.008,4.628c5.571-1.297,8.544-4.252,14.108-0.572c4.173,2.761,6.099,7.733,7.869,12.179
			c1.536,3.859,4.703,6.307,8.982,5.079c1.782-0.511,2.896-1.911,4.545-2.584c2.012-0.821,4.637-0.814,6.773-0.771
			c6.875,0.137,9.236,4.432,13.471,8.919c4.062,4.303,11.754-1.374,8.328-6.426c-4.674-6.895-9.262-12.055-17.97-13.4
			c-3.5-0.541-7.14-0.322-10.624,0.247c-1.45,0.237-2.859,0.505-4.232,1.057c-0.165,0.066-0.361,0.139-0.571,0.216
			c-0.699-1.758-1.369-3.567-2.277-5.05c-0.792-1.293-1.638-2.534-2.549-3.714c1.869-2.262,3.273-5.153,4.826-7.34
			c1.629-2.293,2.837-5.327,5.015-7.071c6.565-5.257,13.706-3.718,21.364-3.503c2.989,0.084,6.069,0.146,9.008,0.702
			c1.633,0.309,6.005,0.858,7.405,1.873c1.555,1.128,4.402,1.106,5.96,0c7.157-5.082,17.758-6.344,24.112,0.853
			c2.882,3.263,4.298,7.339,8.227,9.672c4.186,2.486,9.023,3.575,13.117,6.347c8.772,5.939,9.48,19.884,0.778,26.513
			c-8.555,6.516-20.797,9.165-31.137,10.829c-12.237,1.968-24.455,3.832-36.689,5.724c-12.627,1.953-25.285,4.859-38.116,5.132
			c-5.794,0.123-11.497,0.288-17.254,1.033c-5.832,0.755-11.544,0.508-17.374,1.075c-11.609,1.129-22.757,2.835-34.417,1.884
			c-11.554-0.942-23.07-1.291-34.635-2.421c-5.862-0.573-11.738-0.877-17.622-1.135c-5.834-0.256-11.401-1.337-17.181-1.969
			c-12.977-1.418-26.073-1.874-38.993-3.813c-11.537-1.731-23.537-2.715-34.906-5.293c-4.986-1.13-9.266-3.17-13.926-5.172
			c-4.699-2.018-9.976-3.661-13.186-7.996c-6.293-8.499,0.817-19.454,8.235-24.071c8.738-5.438,18.305-6.379,28.312-6.96
			c5.079-0.295,10.178-1.114,14.47-4.035c4.277-2.91,6.95-6.835,11.872-8.95c5.627-2.417,11.785-4.713,17.89-3.239
			c5.238,1.265,10.252,4.303,15.709,2.159c4.619-1.815,8.296-6.212,12.703-8.633c2.603-1.43,2.736-1.104,5.24,0.283
			c2.515,1.393,5.09,2.818,8.047,2.899c5.756,0.158,8.38-4.103,12.174-7.468c4.541-4.027,10.684-7.377,16.597-8.767
			c5.924-1.393,12.603-0.47,18.352,1.371c3.047,0.976,9.562,3.354,10.269,6.807c-2.143,3.791-4.222,7.617-6.133,11.541
			c-1.581,3.247-3.378,6.738-4.877,10.295c-1.743-0.537-3.552-0.871-5.407-1.017c-7.356-0.578-15.151,1.411-21.71,4.669
			C213.179,168.981,198.116,181.836,207.834,193.284z M365.387,31.804c2.475,0.274,4.964,1.685,7.167,2.746
			c0.815,0.393,2.729,1.085,3.338,1.787c1.136,1.31,0.684,1.724,0.199,3.29c-0.27,0.87-0.518,1.629-0.697,2.355
			c-2.939-0.901-6.042-2.191-7.935-3.899c-1.432-1.293-1.925-3.059-2.199-4.937C365.231,32.955,365.277,32.39,365.387,31.804z
			 M281.198,125.814c10.855-17.117,21.32-34.476,32.29-51.522c10.907-16.949,22.586-33.243,35-49.12
			c2.629-3.362,5.112-7.181,8.246-10.112c3.758-3.515,7.593-1.654,11.798,0.424c7.265,3.591,15.135,7.501,20.585,13.658
			c2.954,3.338,7.814,9.553,2.279,12.793c-2.005,1.173-4.927,1.585-7.687,1.541c1.139-1.944,1.758-4.23,1.71-6.378
			c-0.116-5.169-4.324-7.979-8.555-9.922c-4.25-1.951-9.145-4.633-13.981-3.57c-1.841,0.405-3.576,1.32-4.942,2.591
			c-3.407,1.868-6.02,6.795-7.959,9.598c-3.748,5.418-7.31,11.219-10.368,17.049c-6.732,12.833-14.131,25.347-21.172,38.016
			c-6.816,12.262-13.865,24.784-21.585,36.498c-3.73,5.659-6.672,11.258-9.696,17.322c-1.866,3.742-4.124,7.247-6.137,10.893
			c-2.518,0.236-5.028,0.868-7.33,1.662c-4.034,1.392-7.805,3.303-11.107,6.02c-1.311,1.079-2.305,2.193-3.149,3.361
			c-0.794-0.876-1.619-1.728-2.517-2.501c0.154-0.2,0.314-0.395,0.455-0.609c2.665-4.045,5.017-8.301,7.614-12.391
			C270.361,142.664,275.833,134.273,281.198,125.814z M455.398,270.806c-0.416,3.603,0.109,7.196-0.255,10.783
			c-1.174,11.572-2.136,23.303-2.906,34.947c-0.398,6.018-1.943,12.056-2.707,18.047c-0.909,7.138-1.541,14.313-2.22,21.475
			c-1.334,14.052-2.548,28.216-5.605,42.023c-1.453,6.563-3.455,12.981-5.541,19.365c-2.046,6.261-3.358,12.979-5.979,19.018
			c-2.4,5.53-5.277,11.059-8.357,16.245c-1.63,2.745-3.369,5.676-5.678,7.905c-1.858,1.794-4.131,2.822-6.182,4.419
			c-9.658,7.523-19.523,13.593-31.254,17.457c-12.982,4.276-25.883,6.965-39.47,8.545c-6.173,0.718-12.391,0.867-18.554,1.696
			c-7.024,0.945-13.925,2.013-21.024,2.327c-13.852,0.614-27.778,2.084-41.645,2.032c-14.156-0.053-28.371-1.689-42.469-2.893
			c-12.956-1.107-25.722-2.781-38.575-4.724c-23.497-3.554-47.933-7.234-69.155-18.561c-10.315-5.505-20.224-12.638-27.138-22.188
			c-7.093-9.796-12.087-21.584-15.249-33.259c-4.035-14.897-4.434-31.328-5.271-46.692c-0.831-15.232-0.77-30.571-1.25-45.825
			c-0.499-15.861-1.481-31.723-1.531-47.583c-0.025-7.866-1.127-15.887-2.063-23.692c-0.017-0.137-0.03-0.29-0.045-0.431
			c6.917,2.406,14.112,4.167,21.187,5.9c8.791,2.153,17.325,4.546,26.33,5.618c9.074,1.08,17.96,3.072,26.913,4.846
			c8.774,1.738,17.675,2.957,26.586,3.715c9.324,0.794,18.501,2.617,27.823,3.488c9.243,0.864,18.423,1.682,27.685,2.272
			c4.253,0.271,8.536,1.074,12.803,0.97c4.414-0.108,8.795-0.921,13.231-1.047c9.204-0.262,18.47-0.236,27.684-0.152
			c9.261,0.084,18.659,0.927,27.898,0.227c16.428-1.246,32.88-1.46,49.294-2.609c19.377-1.357,38.722-3.774,57.997-6.148
			c8.52-1.05,16.791-1.555,25.166-3.471c7.886-1.803,16.388-1.491,24.175-3.828c1.947-0.585,3.916-1.314,5.86-2.107
			c-0.032,1.245-0.022,2.438,0.006,3.512C455.991,265.303,455.726,267.962,455.398,270.806z M479.545,213.878
			c-0.976,6.941-3.565,14.531-8.403,19.716c-2.126,2.279-4.796,3.6-7.272,5.426c-4.003,2.952-7.688,5.409-12.391,7.191
			c-6.576,2.493-13.39,3.781-20.398,4.591c-8.209,0.948-16.172,2.921-24.386,3.959c-17.628,2.228-35.154,5.246-52.845,6.978
			c-14.495,1.419-29.005,2.056-43.486,3.288c-16.682,1.419-33.62,1.388-50.368,1.39c-4.267,0-8.736,0.227-12.964-0.465
			c-3.519-0.575-6.906-1.78-10.442-2.303c-4.032-0.596-7.944-0.179-11.988-0.237c-4.628-0.067-9.218-0.822-13.833-1.121
			c-7.817-0.507-15.543-1.27-23.342-1.975c-9.046-0.817-17.961-2.523-26.994-3.345c-16.556-1.507-32.501-5.096-48.901-7.543
			c-15.77-2.352-31.388-5.488-46.801-9.728c-12.98-3.57-28.529-9.679-31.684-24.281c-2.98-13.795-2.973-30.368,3.035-43.44
			c6.135-13.348,16.938-23.567,30.467-29.086c17.061-6.96,35.122-9.591,52.811-14.427c17.972-4.914,36.478-8.91,54.894-11.755
			c9.953-1.538,20.003-1.738,29.96-3.167c8.487-1.217,17.084-1.042,25.607-0.275c8.778,0.79,17.779,0.125,26.572-0.293
			c6.495-0.309,12.957,0.267,19.44,0.274c-3.187,5.44-6.371,10.882-9.546,16.329c-0.034,0.058-0.067,0.116-0.101,0.174
			c-0.122-0.157-0.224-0.305-0.354-0.467c-3.522-4.362-8.253-7.271-13.473-9.199c-12.507-4.619-25.578-2.674-37.109,3.528
			c-2.649,1.425-5.126,3.101-7.488,4.962c-0.965,0.761-1.941,1.514-2.836,2.358c-0.061,0.057-0.931,0.713-1.436,1.232
			c-0.678-0.408-1.984-0.871-2.177-0.973c-1.166-0.612-2.306-1.242-3.548-1.697c-2.974-1.091-5.922-1.126-8.959-0.206
			c-5.087,1.543-10.25,5.205-14.201,8.673c-2.582,2.267-1.726,2.05-5.692,1.292c-3.698-0.707-7.445-1.562-11.242-1.475
			c-5.699,0.129-11.078,2.525-16.252,4.716c-2.594,1.098-5.237,2.224-7.617,3.744c-2.633,1.681-4.75,4.469-7.486,5.877
			c-4.935,2.54-12.649,0.415-18.074,0.949c-5.747,0.565-11.463,1.665-16.884,3.684c-10.168,3.788-22.13,11.293-25.074,22.515
			c-2.929,11.162,3.295,23.694,11.995,30.332c4.299,3.28,9.337,4.672,14.184,6.911c5.981,2.763,12.063,4.523,18.567,5.584
			c13.759,2.244,27.75,4.38,41.612,5.837c7.291,0.766,14.614,1.215,21.902,2.008c7.312,0.796,14.358,2.729,21.665,3.542
			c13.648,1.518,27.542,3.956,41.279,4.063c6.38,0.049,12.602,0.994,18.947,1.631c7.15,0.718,14.628-0.427,21.761-1.152
			c6.495-0.661,12.876-0.712,19.354-1.135c7.402-0.483,14.584-1.686,22.042-1.83c14.485-0.279,28.654-3.567,42.926-5.616
			c14.576-2.093,29.382-3.87,43.805-6.96c12.222-2.619,28.52-8.058,35.45-19.274c7.167-11.6,6.763-28.047-4.376-37.081
			c-5.216-4.23-11.563-5.876-17.515-8.669c-5-2.347-7.246-8.977-12.086-12.225c-9.07-6.085-20.392-5.232-30.007-1.058
			c-6.121-2.98-14.741-3.232-20.782-3.387c-3.898-0.1-7.888-0.104-11.681,0.555c3.761-6.329,7.992-12.372,12.114-18.471
			c0.37,0.044,0.751,0.072,1.157,0.062c3.457-0.084,7.15-0.814,10.591-0.424c1.562,0.177,2.664,0.785,4.167,1.128
			c1.948,0.444,3.891,0.089,5.858,0.353c7.904,1.059,16.057,3.064,23.877,4.744c7.475,1.606,14.951,3.129,22.25,5.185
			c2.68,0.755,5.072,2.445,7.609,3.597c4.138,1.88,8.379,3.462,12.45,5.496c11.066,5.531,29.457,12.414,32.538,25.662
			c1.554,6.68,1.585,14.007,1.617,20.858C479.595,197.481,480.653,205.995,479.545,213.878z"/>
	</g>
</g>
<g>
	<g>
		<path d="M197.819,172.493c-9.187-6.723-18.677,2.785-20.629,12.391c-1.163-0.181-2.373-0.161-3.582,0.142
			c-1.91,0.478-3.692,1.462-5.142,2.778c-0.073,0.066-0.304,0.378-0.606,0.808c-1.181-3.381-3.003-6.24-7.252-7.577
			c-4.21-1.324-7.165-0.418-9.794,1.489c-0.729-3.325-1.6-6.619-3.671-9.236c-3.361-4.249-9.105-4.031-13.72-2.047
			c-4.869,2.094-8.516,6.515-10.476,11.361c-1.475,3.645-3.331,10.584,1.357,12.602c1.061,0.457,2.25-0.066,2.3-1.32
			c0.248-6.295,2.903-13.487,8.989-16.421c9.323-4.495,7.472,8.482,8.12,13.782c0.479,3.915,4.693,6.124,7.856,3.254
			c2.098-1.904,4.266-6.285,7.47-4.732c2.586,1.254,2.902,5.974,4.058,8.446c0.86,1.84,3.388,2.168,5.002,1.312
			c1.549-0.822,7.262-10.856,9.479-6.93c1.975,3.495,6.975,1.049,6.231-2.627c-0.76-3.756,1.635-9.26,4.492-11.712
			c2.55-2.19,5.213-1.107,8.174-0.809C199.388,177.739,199.69,173.862,197.819,172.493z"/>
	</g>
</g>
<g>
	<g>
		<path d="M305.254,200.924c-6.862-7.273-17.273-7.777-24.515-2.292c-1.984-4.05-4.442-7.503-9.891-8.044
			c-4.284-0.425-8.443,1.443-11.527,4.411c-1.252-1.978-2.858-3.641-5.36-4.744c-3.796-1.673-8.43-1.509-12.079,0.507
			c-4.347,2.405-14.033,14.502-6.371,18.34c0.509,0.255,1.231-0.047,1.2-0.689c-0.212-4.399,3.974-9.676,7.878-11.508
			c5.76-2.704,8.763,1.669,10.459,6.598c1.066,3.098,5.215,3.825,7.008,0.916c2.092-3.393,5.821-7.768,9.837-4.627
			c2.535,1.983,2.837,5.344,4.157,8.107c1.392,2.916,5.546,2.399,7.071,0c1.935-3.045,5.036-4.929,8.767-5.031
			c3.621-0.099,6.694,2.623,9.918,3.98C305.284,208.312,307.457,203.26,305.254,200.924z"/>
	</g>
</g>
<g>
</g>
<g>
</g>
<g>
</g>
<g>
</g>
<g>
</g>
<g>
</g>
<g>
</g>
<g>
</g>
<g>
</g>
<g>
</g>
<g>
</g>
<g>
</g>
<g>
</g>
<g>
</g>
<g>
</g>
</svg>
