<?xml version="1.0" encoding="iso-8859-1"?>
<!-- Generator: Adobe Illustrator 19.0.0, SVG Export Plug-In . SVG Version: 6.00 Build 0)  -->
<svg version="1.1" id="Layer_1" xmlns="http://www.w3.org/2000/svg" xmlns:xlink="http://www.w3.org/1999/xlink" x="0px" y="0px"
	 viewBox="0 0 512 512" style="enable-background:new 0 0 512 512;" xml:space="preserve">
<g>
	<g>
		<path d="M508.076,280.947c-2.215-5.568-3.931-11.365-6.078-16.971c-3.944-10.3-7.481-20.807-11.78-30.964
			c-4.498-10.628-8.696-21.396-13.353-31.954c-2.397-5.434-4.765-10.969-7.715-16.131c-2.207-3.863-4.703-7.524-6.673-11.483
			c3.26-1.65,6.49-3.358,9.714-5.04c1.254-0.654,2.693-1.488,4.036-2.482c3.751,2.835,9.142,3.283,13.292,0.791
			c6.093-3.658,5.32-11.97,1.737-17.182c-1.76-2.561-4.384-3.939-7.134-4.213c-0.071-0.009-0.144-0.01-0.216-0.017
			c-0.224-0.017-0.446-0.037-0.67-0.04c-1.028-0.032-2.078,0.109-3.13,0.439c-0.155,0.046-0.307,0.103-0.461,0.156
			c-0.154,0.057-0.307,0.106-0.46,0.171c-1.535,0.614-2.967,1.586-4.143,2.93c-0.685,0.782-1.207,1.63-1.596,2.514
			c-1.149,2.195-1.681,4.713-1.417,7.14c-0.847,0.508-1.695,1.015-2.618,1.403c-3.681,1.544-7.4,2.978-11.048,4.624
			c-8.331,3.761-16.606,6.826-25.389,9.383c-30.903,8.998-62.029,17.777-93.684,23.822c-15.782,3.014-31.625,5.588-47.662,6.678
			c-5.257,0.357-10.513,0.46-15.746,0.93c-3.169,0.285-6.357,0.533-9.542,0.721c-9.921,0.586-20.405,0.16-30.215-0.721
			c-5.232-0.47-10.488-0.573-15.746-0.93c-16.037-1.09-31.88-3.664-47.662-6.678c-31.654-6.046-62.781-14.824-93.684-23.822
			c-8.782-2.557-17.058-5.622-25.389-9.383c-3.647-1.647-7.367-3.08-11.048-4.624c-0.924-0.388-1.771-0.895-2.618-1.403
			c0.264-2.427-0.269-4.946-1.417-7.14c-0.389-0.884-0.911-1.732-1.596-2.514c-1.177-1.343-2.608-2.315-4.143-2.93
			c-0.153-0.065-0.307-0.114-0.46-0.171c-0.154-0.053-0.306-0.11-0.461-0.156c-1.052-0.33-2.102-0.471-3.13-0.439
			c-0.224,0.003-0.447,0.022-0.67,0.04c-0.072,0.007-0.144,0.008-0.216,0.017c-2.749,0.274-5.373,1.652-7.134,4.213
			c-3.583,5.212-4.356,13.524,1.736,17.182c4.15,2.492,9.541,2.044,13.292-0.791c1.343,0.995,2.782,1.828,4.036,2.482
			c3.224,1.682,6.455,3.39,9.714,5.04c-1.97,3.96-4.466,7.62-6.673,11.483c-2.949,5.162-5.318,10.697-7.715,16.131
			c-4.657,10.559-8.855,21.327-13.353,31.954c-4.299,10.157-7.836,20.664-11.78,30.964c-2.147,5.607-3.863,11.403-6.078,16.971
			c-1.443,3.627-3.907,7.571-3.93,11.559c-0.014,2.322,1.681,4.632,3.962,5.205c3.389,0.851,6.837-1.077,10.059-2.064
			c5.059-1.55,9.856-3.755,14.78-5.666c9.72-3.772,19.285-7.899,28.978-11.74c1.121-0.444,5.352-2.409,6.12-2.302
			c0.568,0.079,2.178,2.986,2.803,4.056c2.619,4.479,4.521,9.293,6.677,13.999c1.998,4.361,4.339,8.541,6.557,12.79
			c2.276,4.358,3.907,9.052,5.98,13.512c2.032,4.372,3.817,8.837,5.806,13.229c1.621,3.579,3.712,8.658,7.501,10.474
			c9.403,4.506,11.017-10.404,12.908-15.888c6.819-19.777,14.191-39.341,21.138-59.066c3.862-10.968,7.324-22.084,11.09-33.083
			c1.994-5.822,3.849-11.696,5.785-17.537c1.431-4.318,2.171-9.235,3.658-13.625c2.856,0.632,5.713,1.255,8.57,1.869
			c-1.658,4.87-4.265,9.645-5.671,14.548c-1.839,6.41-3.628,12.814-5.361,19.255c-3.451,12.822-5.891,25.784-9.72,38.53
			c-3.849,12.814-7.459,25.697-10.925,38.621c-1.783,6.648-3.332,13.374-5.298,19.97c-1.353,4.539-4.006,9.518-0.293,13.498
			c1.966,2.108,4.946,1.608,6.976,0c7.642-6.055,14.865-12.147,23.13-17.457c8.053-5.173,15.404-11.487,23.526-16.535
			c0.298-0.185,1.938-1.064,2.802-1.701c0.355,0.241,0.827,0.509,1.082,0.742c0.862,0.787,1.755,1.538,2.637,2.303
			c3.885,3.368,7.109,7.038,10.442,10.934c6.368,7.444,12.724,14.898,18.971,22.452c3.486,4.216,10.693,18.376,17.897,14.128
			c2.768-1.632,2.715-4.279,3.086-7.112c0.683-5.221,1.582-10.379,2.125-15.625c2.122-20.526,2.903-41.099,4.714-61.639
			c1.018-11.549,2.404-23.104,3.644-34.633c0.779-7.241,1.697-14.467,2.389-21.717c0.222-2.327-0.281-5.599,1.672-7.097
			c1.114-0.852,12.573-1.561,12.629-0.734c0.668,9.834,1.988,19.78,3.039,29.548c1.24,11.529,2.626,23.084,3.644,34.633
			c1.811,20.54,2.591,41.113,4.714,61.639c0.543,5.246,1.441,10.404,2.125,15.625c0.371,2.833,0.318,5.48,3.086,7.112
			c7.204,4.247,14.41-9.912,17.897-14.128c6.247-7.554,12.602-15.008,18.971-22.452c3.333-3.896,6.557-7.566,10.442-10.934
			c0.882-0.764,1.775-1.516,2.637-2.303c0.254-0.232,0.726-0.501,1.082-0.742c0.864,0.636,2.505,1.516,2.802,1.701
			c8.122,5.048,15.474,11.362,23.526,16.535c8.264,5.31,15.488,11.402,23.13,17.457c2.03,1.608,5.009,2.108,6.975,0
			c3.713-3.979,1.06-8.958-0.293-13.498c-1.966-6.597-3.515-13.322-5.298-19.97c-3.466-12.923-7.075-25.806-10.925-38.621
			c-3.829-12.746-6.269-25.708-9.72-38.53c-1.733-6.441-3.523-12.845-5.361-19.255c-1.406-4.903-4.014-9.678-5.671-14.548
			c2.857-0.613,5.714-1.237,8.57-1.869c1.487,4.39,2.227,9.306,3.658,13.625c1.936,5.841,3.791,11.716,5.785,17.537
			c3.767,10.999,7.228,22.115,11.09,33.083c6.947,19.725,14.319,39.289,21.138,59.066c1.891,5.483,3.504,20.394,12.908,15.888
			c3.789-1.816,5.88-6.894,7.501-10.474c1.989-4.392,3.774-8.857,5.806-13.229c2.073-4.46,3.704-9.154,5.98-13.512
			c2.218-4.249,4.558-8.429,6.557-12.79c2.156-4.706,4.058-9.52,6.677-13.999c0.626-1.07,2.235-3.977,2.803-4.056
			c0.768-0.107,4.999,1.857,6.12,2.302c9.693,3.841,19.258,7.968,28.978,11.74c4.925,1.911,9.721,4.117,14.78,5.666
			c3.222,0.987,6.67,2.915,10.059,2.064c2.281-0.572,3.976-2.882,3.962-5.205C511.983,288.518,509.519,284.574,508.076,280.947z
			 M54.969,176.099c2.291,1.076,4.601,2.105,6.946,3.041c5.668,2.262,11.531,3.949,17.363,5.72
			c-0.887,6.925-5.234,13.72-11.642,16.647c-7.01,3.202-15.576,0.858-20.053-5.219C50.517,189.708,53.418,183.081,54.969,176.099z
			 M32.461,233.419c0.715-1.705,1.411-3.418,2.099-5.134c9.473,2.77,12.56,12.374,9.114,21.986
			c-1.988,5.544-6.135,9.316-11.646,11.294c-3.792,1.361-6.661,0.294-9.612-1.156C25.653,251.371,28.75,242.264,32.461,233.419z
			 M105.512,319.446c-1.136,2.85-2.39,5.662-3.424,8.551c-0.23,0.641-0.436,1.535-0.665,2.503c-0.453-0.935-0.874-1.882-1.289-2.837
			c-1.338-3.082-2.504-6.237-3.911-9.289c-2.548-5.526-4.662-11.344-7.492-16.725c-0.768-1.46-1.53-2.919-2.285-4.379
			c2.751-1.003,5.775-1.752,8.657-1.997c3.633-0.309,7.479,0.393,10.52,2.534c2.498,1.758,3.815,4.854,5.156,7.58
			C109.09,310.097,107.368,314.791,105.512,319.446z M124.479,266.618c-2.14,6.29-4.351,12.542-6.578,18.789
			c-5.79-5.602-10.229-14.491-7.111-22.447c1.616-4.123,5.078-7.756,9.03-9.685c3.267-1.594,6.293-1.748,9.552-1.582
			C127.775,256.68,126.165,261.663,124.479,266.618z M136.069,230.936c-1.798,5.417-3.53,10.857-5.265,16.297
			c-9.169-2.602-20.5,6.116-23.65,14.03c-2.209,5.55-1.387,11.828,1.047,17.16c1.58,3.462,4.851,8.286,8.972,9.027
			c-1.408,3.945-2.82,7.89-4.225,11.842c-2.872-4.615-8.351-7.632-13.672-8.214c-3.026-0.331-10.611,0.339-14.381,3.145
			c-1.549-3.07-3.047-6.164-4.437-9.328c-2.332-5.308-4.716-10.927-8.467-15.425c-4.015-4.815-8.83-3.966-14.318-2.135
			c-6.185,2.063-12.124,4.985-18.206,7.342c-5.925,2.296-11.855,4.61-17.744,7.005c-2.601,1.058-5.204,2.117-7.859,3.033
			c0.246-0.583,0.482-1.17,0.693-1.767c2.014-5.684,3.793-11.44,5.886-17.103c0.285-0.772,0.564-1.546,0.845-2.319
			c2.668,1.784,6.359,2.505,9.125,2.139c6.885-0.911,13.027-5.913,16.012-12.037c5.769-11.832,1.859-25.641-10.218-29.501
			c2.965-7.558,5.82-15.16,9.057-22.607c0.272-0.626,0.551-1.251,0.827-1.877c3.451,5.745,14.39,7.736,19.863,6.528
			c9.168-2.023,16.066-10.855,17.487-20.021c1.233,0.394,2.464,0.795,3.688,1.217c8.133,2.805,16.583,5.166,24.899,7.357
			c1.662,0.438,3.33,0.863,4.995,1.291c-2.213,7.849,0.8,16.455,5.778,22.967c2.731,3.573,6.348,5.792,10.65,7.025
			c1.169,0.335,2.556,0.781,3.928,1.008C136.943,228.324,136.502,229.63,136.069,230.936z M142.233,212.234
			c-1.02,3.333-2.115,6.65-3.226,9.961c-6.673-0.57-11.902-2.957-15.595-9.494c-2.949-5.22-4.08-10.454-4.295-16.143
			c8.537,2.176,17.114,4.24,25.707,6.21C143.848,205.896,143.172,209.164,142.233,212.234z M167.706,207.772
			c10.311,2.077,20.619,3.716,30.987,5.125c-5.636,2.458-11.077,6.355-16.138,8.813c-4.588,2.228-9.204,4.413-13.779,6.665
			c-1.777,0.875-3.768,1.749-5.716,2.722C165.061,223.423,167.127,215.532,167.706,207.772z M160.822,240.042
			c0.342-1.492,0.713-3,1.097-4.517c2.15-0.8,4.226-1.867,6.237-2.881c4.555-2.296,9.309-4.22,13.914-6.423
			c4.367-2.09,8.503-4.507,12.807-6.703c4.058-2.07,8.565-3.188,12.48-5.497c2.898,0.361,5.799,0.712,8.71,1.05
			c6.222,0.721,12.464,0.669,18.661,1.215c0.577,0.051,1.18,0.115,1.792,0.183c-1.649,0.844-3.265,1.814-4.778,2.525
			c-3.282,1.543-6.368,3.52-9.602,5.165c-7.239,3.682-14.219,7.639-21.542,11.19c-8.401,4.073-16.828,8.12-25.197,12.271
			c-4.05,2.009-8.072,4.088-12.161,6.013c-1.966,0.925-3.959,1.796-5.9,2.775C158.476,250.952,159.573,245.487,160.822,240.042z
			 M228.062,344.149c-0.257,2.577-0.465,5.312-0.805,8.022c-0.175-0.24-0.348-0.474-0.517-0.687
			c-2.121-2.675-4.184-5.389-6.404-7.984c-2.045-2.39-4.095-4.765-6.126-7.157c3.279-0.902,6.518-2.307,9.462-3.533
			c1.48-0.616,3.738-1.242,5.888-2.072C229.078,335.21,228.509,339.672,228.062,344.149z M230.166,324.363
			c-0.023,0.305-0.058,0.608-0.083,0.913c-5.653,3.42-12.566,4.892-18.445,8.016c-0.99-1.188-1.973-2.383-2.944-3.589
			c-2.516-3.126-5.121-6.329-7.836-9.382c0.341-0.14,0.687-0.282,1.05-0.416c4.161-1.539,7.963-3.779,12.006-5.619
			c3.859-1.755,7.713-3.324,11.483-5.252c1.938-0.991,4.279-1.807,6.016-3.203C231.053,312.015,230.637,318.197,230.166,324.363z
			 M232.342,287.11c-0.192,4.723-0.427,9.453-0.683,14.182c-0.561-0.288-1.253-0.3-1.965,0.176
			c-5.287,3.535-11.473,5.837-17.174,8.615c-3.621,1.765-6.984,3.817-10.518,5.723c-1.083,0.584-2.388,1.159-3.542,1.895
			c-0.621-0.656-1.245-1.304-1.878-1.935c-2.274-2.268-4.82-4.232-7.197-6.387c-1.724-1.563-3.563-3.675-5.964-4.184
			c-4.416-0.935-9.033,3.253-12.345,5.657c-5.028,3.65-10.125,7.202-15.154,10.853c-5.225,3.794-10.767,7.092-15.98,10.907
			c-1.185,0.867-2.356,1.794-3.524,2.743c0.221-0.756,0.436-1.512,0.631-2.269c1.24-4.819,2.516-9.628,3.811-14.433
			c3.271-1.081,6.3-2.73,9.448-4.236c4.466-2.137,9.018-4.058,13.523-6.107c8.334-3.791,16.376-8.175,24.727-11.938
			c7.463-3.363,14.84-6.929,22.353-10.168c4.195-1.808,8.596-3.082,12.741-5.021c3.116-1.458,6.147-3.093,9.262-4.557
			C232.686,280.123,232.484,283.617,232.342,287.11z M233.261,271.714c-2.648,0.789-5.179,2.113-7.629,3.361
			c-4.396,2.24-8.765,4.076-13.384,5.822c-7.993,3.022-15.704,6.991-23.461,10.567c-8.849,4.079-17.418,8.674-26.19,12.906
			c-6.835,3.297-14.315,6.237-20.722,10.522c0.097-0.355,0.19-0.711,0.287-1.066c2.022-7.384,4.085-14.756,6.158-22.126
			c6.151-1.282,12.32-5.353,17.715-7.697c9.095-3.952,18.11-8.126,27.145-12.217c8.373-3.791,17.052-7.078,25.258-11.212
			c5.593-2.818,11.062-5.863,16.606-8.765C234.365,258.439,233.759,265.076,233.261,271.714z M235.586,246.606
			c-2.325,1.221-4.539,2.638-6.978,3.665c-3.826,1.612-7.284,3.648-10.935,5.607c-8.295,4.452-17.294,7.783-25.846,11.729
			c-9.001,4.154-17.924,8.504-26.956,12.584c-4.202,1.898-8.218,4.13-12.326,6.219c-0.92,0.468-2.008,0.895-3.115,1.349
			c1.087-3.86,2.174-7.72,3.26-11.581c1.444-5.134,2.635-10.313,3.749-15.508c2.222-0.841,4.385-1.954,6.52-2.832
			c3.721-1.531,7.34-3.271,10.961-5.021c8.535-4.125,17.356-7.843,25.759-12.215c7.23-3.763,14.428-7.403,21.581-11.306
			c3.293-1.797,6.656-3.479,9.958-5.266c2.182-1.182,4.741-2.674,7.274-3.85C237.541,228.968,236.526,237.781,235.586,246.606z
			 M344.305,207.772c0.324,4.328,1.112,8.697,2.091,13.046c-0.134-0.051-0.272-0.1-0.399-0.154c-3.158-1.32-6.075-3.082-9.199-4.427
			c-4.105-1.767-8.406-3.268-12.632-4.916C330.89,210.283,337.597,209.123,344.305,207.772z M273.147,216.739
			c1.447-0.172,2.841-0.34,4.136-0.454c2.584-0.228,5.177-0.352,7.772-0.47c-2.394,3.101-4.463,6.617-6.498,9.543
			c-1.03,1.481-2.508,3.301-3.892,5.268C274.149,225.991,273.637,221.36,273.147,216.739z M369.849,313.826
			c1.754,6.408,3.457,12.828,5.113,19.261c0.195,0.757,0.409,1.513,0.631,2.269c-1.168-0.949-2.339-1.876-3.524-2.743
			c-5.213-3.815-10.755-7.113-15.98-10.907c-5.028-3.651-10.125-7.203-15.154-10.853c-3.313-2.404-7.929-6.592-12.345-5.657
			c-2.401,0.508-4.239,2.62-5.964,4.184c-2.377,2.155-4.923,4.118-7.197,6.387c-4.3,4.288-8.303,9.206-12.113,13.936
			c-3.779,4.693-7.723,9.218-11.642,13.798c-2.22,2.595-4.283,5.31-6.404,7.984c-0.169,0.213-0.342,0.447-0.517,0.687
			c-0.34-2.71-0.548-5.445-0.805-8.022c-0.459-4.6-1.049-9.183-1.539-13.778c1.513-2.12,2.822-4.396,4.244-6.641
			c3.028-4.779,6.423-9.308,9.48-14.062c2.89-4.496,5.87-9.104,8.903-13.514c3.646-5.302,7.397-11.037,11.988-15.547
			c3.068-3.014,5.383-1.446,8.632,0.37c2.658,1.485,5.284,3.093,7.86,4.717c4.701,2.965,9.006,6.606,13.586,9.768
			c4.893,3.377,10.234,6.232,14.955,9.821c2.176,1.655,4.452,3.97,6.954,5.531C369.29,311.819,369.574,312.821,369.849,313.826z
			 M366.888,303.162c-0.532-0.459-1.031-0.883-1.477-1.23c-2.358-1.836-4.889-3.256-7.444-4.792
			c-5.119-3.077-9.95-6.6-14.785-10.093c-4.921-3.556-10.015-6.873-15.356-9.779c-4.33-2.356-7.668-4.729-12.074-1.269
			c-9.178,7.209-14.032,19.369-20.721,28.595c-3.723,5.135-7.227,10.579-10.616,15.953c-0.781,1.239-1.671,2.602-2.552,4.021
			c-0.005-0.068-0.013-0.136-0.019-0.205c-0.597-7.815-1.095-15.658-1.516-23.499c4.474-5.878,8.079-12.507,12.231-18.602
			c3.169-4.653,5.907-9.578,8.988-14.29c2.674-4.089,6.542-11.699,11.182-13.543c4.15-1.65,11.129,3.918,15.021,5.935
			c4.847,2.512,9.242,5.76,13.941,8.507c3.456,2.02,6.684,4.309,10.081,6.448c2.567,1.617,5.841,2.821,8.564,4.479
			C362.527,287.584,364.718,295.37,366.888,303.162z M358.668,273.731c-1.119-0.52-2.201-1.03-3.139-1.583
			c-4.393-2.59-8.629-5.432-12.946-8.12c-5.251-3.269-10.56-6.313-15.995-9.254c-3.782-2.046-9.819-6.437-14.388-5.345
			c-4.326,1.035-7.446,6.569-9.87,9.879c-3.811,5.203-7.049,10.748-10.366,16.27c-3.298,5.488-7.072,10.646-10.063,16.322
			c-0.528,1.002-1.19,2.031-1.874,3.084c-0.126-2.626-0.248-5.252-0.355-7.875c-0.236-5.801-0.605-11.605-1.06-17.408
			c1.446-2.226,2.707-4.599,4.122-6.808c2.504-3.908,5.174-7.763,7.548-11.748c2.51-4.212,5.542-8.162,8.25-12.26
			c1.555-2.353,3.098-5.292,5.233-7.121c2.995-2.566,4.891-2.508,8.371-1.29c9.468,3.313,17.812,7.429,26.546,12.283
			c4.054,2.253,8.217,4.337,12.303,6.539c0.807,0.435,1.664,1.058,2.557,1.645C355.124,258.567,356.661,266.19,358.668,273.731z
			 M351.19,240.042c0.367,1.601,0.719,3.204,1.066,4.807c-2.314-1.265-4.596-2.604-6.957-3.778
			c-4.431-2.204-8.594-4.949-13.053-7.074c-4.368-2.082-8.867-4.266-13.473-5.808c-3.409-1.141-8.587-3.945-12.232-3.42
			c-3.78,0.545-6.498,4.914-8.557,7.717c-3.274,4.458-6.245,9.191-9.378,13.749c-2.982,4.339-5.764,8.952-8.377,13.523
			c-0.701,1.226-1.436,2.466-2.15,3.725c-0.8-9.042-1.778-18.077-2.776-27.096c0.082-0.122,0.162-0.244,0.247-0.367
			c1.872-2.713,3.95-5.286,5.925-7.923c3.142-4.196,6.57-8.286,9.59-12.598c1.627-0.107,3.254-0.242,4.879-0.43
			c7.325-0.85,14.601-1.765,21.853-2.802c4.074,2.585,8.808,4.398,13.037,6.293c5.648,2.531,11.156,5.231,16.861,7.662
			C348.878,230.909,350.157,235.54,351.19,240.042z M470.092,214.081c3.57,7.519,2.149,16.859-3.913,22.803
			c-7.418,7.274-20.192,0.449-22.851-8.054c-1.375-4.399-0.303-9.321,1.829-13.322c0.811-1.522,2.414-4.133,4.265-5.981
			c2.943-1.6,6.418-3.124,9.542-3.175C464.742,206.256,467.682,209.005,470.092,214.081z M394.457,196.841
			c1.478-1.578,3.477-1.575,5.524-2.114c6.24-1.644,12.555-3.384,18.755-5.335c2.036,0.955,3.635,2.193,5.128,4.591
			c2.531,4.066,3.606,8.771,2.389,13.475c-1.825,7.057-7.083,14.564-14.629,16.317c-7.241,1.682-16.935-1.145-20.802-7.801
			c-2.404-4.136-2.099-9.067-0.188-13.327C391.577,200.546,392.88,198.524,394.457,196.841z M399.608,300.816
			c-1.851-5.218-3.718-10.42-5.573-15.625c8.211,0.017,15.875,5.061,18.31,13.318c2.238,7.587-1.275,14.333-6.316,19.723
			C403.762,312.47,401.678,306.653,399.608,300.816z M472.432,274.633c-6.041-2.349-11.946-5.246-18.092-7.296
			c-5.488-1.83-10.303-2.679-14.318,2.135c-3.751,4.498-6.135,10.117-8.467,15.425c-2.514,5.723-5.365,11.222-8.273,16.751
			c-2.83,5.381-4.944,11.198-7.492,16.725c-1.407,3.052-2.573,6.207-3.911,9.289c-0.415,0.955-0.836,1.903-1.289,2.837
			c-0.229-0.968-0.435-1.861-0.665-2.503c-0.654-1.827-1.397-3.623-2.141-5.418c0.561-0.651,1.122-1.344,1.764-2.02
			c2.191-2.308,4.48-4.704,6.044-7.516c2.925-5.26,2.423-12.882,0.094-18.235c-2.144-4.928-6.872-9.866-11.849-11.895
			c-2.626-1.071-7.367-1.962-11.035-1.195c-1.782-5.02-3.549-10.046-5.268-15.099c-4.027-11.837-7.651-23.816-11.59-35.682
			c-2.066-6.222-4.246-12.434-6.164-18.702c-0.939-3.07-1.615-6.338-2.59-9.466c0.049,0.156,11.094-2.598,12.11-2.842
			c2.016-0.484,4.03-0.975,6.043-1.471c0.95-0.234,4.581-1.849,4.638-0.214c0.014,0.392-0.137,0.77-0.29,1.132
			c-1.358,3.211-2.79,5.619-3.272,9.104c-0.47,3.398,0.176,6.826,1.875,9.809c4.712,8.276,17.098,11.918,25.916,8.937
			c8.901-3.009,16.414-13.326,16.87-22.675c0.257-5.268-2.287-12.85-6.847-16.964c0.214-0.073,0.434-0.139,0.648-0.213
			c8.355-2.882,16.993-4.947,25.217-8.23c2.345-0.936,4.655-1.965,6.946-3.041c1.963,8.835,6.085,17.102,9.703,25.424
			c0.413,0.951,0.814,1.907,1.216,2.862c-4.132-2.573-9.339-2.539-13.849-1.059c-2.355,0.773-4.648,1.942-6.599,3.479
			c-2.061,1.623-3.423,4.206-4.903,6.371c-3.255,4.763-4.77,11.109-3.164,16.724c3.112,10.877,16.841,18.415,27.309,12.229
			c4.65-2.748,7.807-8.672,8.992-13.739c0.245-1.049,0.41-2.076,0.513-3.089c1.071,2.716,2.159,5.426,3.289,8.118
			c2.555,6.091,4.817,12.306,7.035,18.537c-4.594,1.197-8.597,5.403-10.909,9.319C473.948,264.205,471.918,270.104,472.432,274.633z
			 M490.29,281.684c-4.189-1.704-8.4-3.36-12.615-5.005c-0.022-0.812-0.17-1.615-0.215-2.506c-0.173-3.449,0.419-7.552,2.051-10.657
			c1.951-3.71,4.908-6.147,8.3-8.115c1.238,3.49,2.476,6.978,3.757,10.446c2.093,5.663,3.872,11.419,5.887,17.103
			c0.211,0.597,0.448,1.184,0.693,1.767C495.494,283.801,492.891,282.742,490.29,281.684z"/>
	</g>
</g>
<g>
	<g>
		<path d="M110.464,224.836c-2.698-5.514-7.77-11.054-13.854-12.506c-5.844-1.394-11.815,0.156-16.417,3.924
			c-4.26,3.489-8.084,10.462-7.367,16.058c-0.011,0.056-0.028,0.11-0.038,0.166c-1.11,5.93,2.172,11.634,6.233,15.78
			c9.156,9.349,25.342,8.095,30.725-4.452C112.106,238.306,113.191,230.411,110.464,224.836z M105.764,242.098
			c-4.545,10.67-18.178,10.142-25.166,2.217c-4.036-4.577-5.662-9.606-3.488-15.492c0.958-2.592,2.435-5.111,4.096-7.504
			c3.728-4.099,8.773-6.495,15.008-4.621C106.768,219.868,109.616,233.056,105.764,242.098z"/>
	</g>
</g>
<g>
	<g>
		<path d="M419.36,235.861c-3.918-2.272-9.559-2.215-13.664-0.399c-5.223,2.311-8.064,6.824-10.465,11.777
			c-0.114,0.235-0.155,0.472-0.145,0.7c-0.069,0.157-0.155,0.298-0.22,0.46c-2.07,5.225-0.891,11.31,2.557,15.68
			c6.731,8.527,20.385,8.476,27.146,0.156C431.535,255.665,429.113,241.518,419.36,235.861z M422.552,259.714
			c-4.41,7.543-15.451,8.83-21.516,2.417c-4.235-4.478-4.411-9.87-2.307-14.592c4.359-4.825,7.145-9.772,14.955-8.989
			C422.91,239.475,426.713,252.596,422.552,259.714z"/>
	</g>
</g>
<g>
</g>
<g>
</g>
<g>
</g>
<g>
</g>
<g>
</g>
<g>
</g>
<g>
</g>
<g>
</g>
<g>
</g>
<g>
</g>
<g>
</g>
<g>
</g>
<g>
</g>
<g>
</g>
<g>
</g>
</svg>
