<svg id="Capa_1" enable-background="new 0 0 512 512" height="512" viewBox="0 0 512 512" width="512" xmlns="http://www.w3.org/2000/svg"><g><g><path d="m462.935 139.086c1.982-6.113 3.572-12.579 4.384-19.244 2.123-17.417-1.47-33.66-10.107-45.789 1.177-3.271 2.319-6.553 3.413-9.849 1.926-5.797 7.787-23.439-2.56-33.786-5.933-5.934-17.776-8.365-28.934-1.534-3.282 2.01-6.105 4.514-8.617 7.255.025-.514.046-1.029.048-1.547.049-9.909-5.849-21.815-16.876-24.364-4.746-1.099-10.028-.314-14.997 2.138-6.305-11.872-22.398-14.76-34.122-10.522-11.46 4.144-19.872 13.165-28.187 22.834-6.522 7.585-13.188 15.097-19.634 22.363-12.653 14.26-25.629 28.887-37.822 44.442 1.261-4.606 2.281-9.27 3.047-13.963.84-5.153 1.432-10.681.091-16.198-1.583-6.513-5.757-11.601-11.164-13.609-5.291-1.965-11.764-.904-17.315 2.838-4.623 3.116-8.067 7.539-11.105 11.44l-49.665 63.79c-15.011 19.281-30.533 39.218-40.926 62.082-4.391 9.662-7.84 19.827-11.175 29.657-4.226 12.456-8.612 25.299-14.876 36.934-1.126-.256-2.284-.443-3.479-.545-10.574-.902-20.083 5.313-27.029 9.845-9.295 6.065-18.907 12.336-26.986 20.517-6.478 6.56-14.594 17.215-16.471 30.717-1.749 12.574 2.817 25.075 11.653 32.225-2.552 3.95-4.6 8.452-5.125 13.422-.865 8.183 2.458 15.835 5.641 22.365 19.053 39.095 47.877 73.054 83.356 98.204 5.361 3.801 11.703 7.862 19.106 7.94.075.001.149.001.224.001 8.44 0 15.315-4.979 22.193-10.527l28.157-22.716c5.608-4.524 11.601-10.007 11.719-17.846.045-2.986-.849-5.737-2.104-8.191.203-.186.391-.394.552-.633 4.582-6.825 10.71-13.071 18.626-18.975v13.133c0 1.933 1.567 3.5 3.5 3.5h26.322v81.61c0 1.933 1.567 3.5 3.5 3.5h26.614c1.933 0 3.5-1.567 3.5-3.5v-81.609h26.333c1.933 0 3.5-1.567 3.5-3.5v-26.614c0-1.933-1.567-3.5-3.5-3.5h-26.333v-18.719c67.273-39.956 123.652-100.102 158.882-169.579 5.042-9.924 9.947-20.687 11.685-32.15 1.918-12.742-.616-24.987-6.937-33.743zm.014 32.697c-.232 1.528-.529 3.04-.876 4.545-.106.053-.216.093-.318.158-2.321 1.457-5.774 1.206-7.86-.57-2.424-2.064-3.907-6.206-2.994-8.363.148-.349.217-.708.248-1.066.414-.81.838-1.613 1.245-2.427 2.444-4.883 5.08-10.448 7.477-16.491 3.293 6.792 4.418 15.318 3.078 24.214zm-2.082-59.279c-.152.144-.297.297-.425.472l-4.761 6.493c-1.588 2.166-3.161 4.148-4.941 4.623-1.728.459-4.05-.649-5.402-2.581-1.318-1.882-2.043-4.521-2.28-8.302-.057-.909-.466-1.708-1.074-2.295 4.401-9.403 8.462-18.955 12.167-28.627 4.779 8.54 7.091 18.962 6.716 30.217zm-7.752-77.137c2.776 2.776 4.07 6.773 3.889 12.075-.674.403-1.224 1.021-1.507 1.819-1.751 4.939-3.561 10.047-6.465 14.254-2.972 4.307-6.963 7.185-10.948 7.895-4.202.751-8.682-1.248-10.196-4.549-.891-1.944-1.024-4.465-.43-8.175 1.483-9.255 5.699-18.235 11.872-25.288.336-.384.567-.822.707-1.28 4.723-.862 9.715-.115 13.078 3.249zm-40.476-7.099c-.496.329-.923.776-1.206 1.348-3.419 6.887-7.869 13.174-13.228 18.687-2.314 2.381-5.638 5.049-8.334 4.227-1.445-.438-2.726-2.051-3.189-4.012-.448-1.902-.309-4.152.451-7.297 2.097-8.686 6.838-16.841 13.347-22.963.406-.382.687-.842.869-1.332.253.042.512.065.759.123 4.293.991 8.675 5.198 10.531 11.219zm-149.807 83.025c15.156-21.292 31.669-39.903 49.152-59.607 6.464-7.285 13.148-14.819 19.706-22.444 7.683-8.934 15.396-17.249 25.259-20.815 9.146-3.308 21.667-.961 25.835 7.776-4.03 3.284-7.262 7.301-10.704 11.77-10.93 14.151-21.621 28.828-31.962 43.021l-.298.41c-15.999 21.969-32.88 43.908-49.205 65.125l-4.406 5.728c-1.394-.36-2.824-.564-4.285-.564-2.799 0-5.435.687-7.77 1.881-.076-6.655-3.397-14.576-10.718-17.455-2.944-1.159-5.923-1.295-8.816-.829 2.447-4.14 4.679-8.419 6.683-12.808.591-.242 1.13-.629 1.529-1.189zm8.951 239.751c0-5.484 4.298-9.928 9.785-10.117.12-.004.238-.014.354-.03.116.016.234.026.354.03 5.487.189 9.785 4.633 9.785 10.117 0 5.591-4.548 10.139-10.139 10.139s-10.139-4.548-10.139-10.139zm10.493-17.113c-.12.004-.238.014-.354.03-.116-.016-.234-.026-.354-.03-5.487-.189-9.785-4.633-9.785-10.117 0-5.591 4.548-10.14 10.139-10.14s10.139 4.549 10.139 10.14c0 5.483-4.298 9.927-9.785 10.117zm-.354-27.743c-5.59 0-10.139-4.548-10.139-10.139 0-5.484 4.298-9.928 9.785-10.117.12-.004.238-.014.354-.03.116.016.234.026.354.03 5.487.189 9.785 4.633 9.785 10.117 0 5.591-4.549 10.139-10.139 10.139zm.354-27.252c-.12.004-.238.014-.354.03-.116-.016-.234-.026-.354-.03-5.487-.189-9.785-4.633-9.785-10.117 0-5.59 4.548-10.139 10.139-10.139s10.139 4.549 10.139 10.139c0 5.483-4.298 9.927-9.785 10.117zm-.354-27.743c-5.59 0-10.139-4.549-10.139-10.139 0-5.484 4.298-9.928 9.785-10.117.12-.004.238-.014.354-.03.116.016.234.026.354.03 5.487.189 9.785 4.633 9.785 10.117 0 5.591-4.549 10.139-10.139 10.139zm.354-27.252c-.12.004-.238.014-.354.03-.116-.016-.234-.026-.354-.03-5.487-.189-9.785-4.633-9.785-10.117 0-5.59 4.548-10.139 10.139-10.139s10.139 4.549 10.139 10.139c0 5.483-4.298 9.927-9.785 10.117zm-.353-27.746c-5.592 0-10.143-4.545-10.143-10.131 0-5.488 4.298-9.934 9.785-10.122.121-.004.24-.015.358-.031.117.016.237.026.357.031 5.487.188 9.785 4.634 9.785 10.122.001 5.586-4.549 10.131-10.142 10.131zm-36.179-59.787c4.571-2.731 10.421-5.627 15.129-3.775 2.837 1.116 4.654 3.784 5.571 6.669-.697.161-1.353.526-1.857 1.108-3.595 4.15-7.312 8.44-11.726 11.516-4.6 3.205-9.51 4.642-13.82 4.05-4.633-.637-8.549-3.942-9.311-7.858-.045-.229-.113-.447-.198-.656 5.202-3.999 10.61-7.707 16.212-11.054zm36.537 32.538c-.121.004-.241.015-.358.031-.119-.017-.239-.027-.361-.031-2.918-.098-5.655-1.458-7.509-3.732-1.487-1.823-2.273-4.032-2.273-6.389 0-5.587 4.55-10.131 10.143-10.131 1.43 0 2.817.293 4.121.871 3.658 1.624 6.022 5.259 6.022 9.26 0 5.487-4.298 9.933-9.785 10.121zm-144.94 50.824c3.28-9.668 6.672-19.665 10.919-29.01 10.05-22.112 25.314-41.718 40.076-60.678l49.665-63.79c2.849-3.66 5.796-7.444 9.493-9.936 3.63-2.447 7.833-3.245 10.966-2.08 3.177 1.18 5.782 4.513 6.8 8.701 1.046 4.305.523 8.993-.199 13.417-2.923 17.928-9.75 35.422-19.742 50.591-.394.599-.579 1.273-.575 1.94-.895.482-1.763.979-2.592 1.474-28.849 17.24-53.048 43.272-68.139 73.301-5.301 10.549-9.571 21.679-13.701 32.443-2.758 7.188-5.61 14.622-8.724 21.756-3.204 7.337-6.518 13.848-9.996 19.655-5.332-8.51-11.36-16.395-19.134-20.588 6.301-11.913 10.661-24.75 14.883-37.196zm-88.536 96.183c1.613-11.6 8.785-20.957 14.519-26.763 7.551-7.647 16.843-13.709 25.83-19.573 7.903-5.156 15.058-9.369 22.614-8.733 10.676.904 18.41 11.332 25.178 22.466.147.243.325.453.517.646-5.568 8.094-11.583 14.572-18.275 19.712-1.048.805-1.498 2.084-1.312 3.303-2.524-1.91-5.744-3.238-9.961-2.451-5.507 1.026-10.838 4.509-15.542 7.581-.854.558-1.681 1.099-2.476 1.601-11.214 7.083-21.343 15.644-30.108 25.444-.683.764-1.384 1.571-2.084 2.412-6.817-5.658-10.301-15.576-8.9-25.645zm153.875 134.502-28.157 22.717c-5.908 4.767-11.735 9.031-17.948 8.974-5.384-.056-10.633-3.462-15.131-6.651-34.524-24.473-62.572-57.517-81.112-95.56-2.757-5.657-5.642-12.223-4.972-18.563.711-6.727 5.275-12.631 9.646-17.52 8.332-9.316 17.964-17.455 28.628-24.191.823-.52 1.681-1.081 2.566-1.659 4.155-2.714 8.864-5.79 12.996-6.56.406-.076.789-.115 1.157-.115 2.245 0 3.92 1.453 6.824 4.87 13.018 15.314 25.727 31.419 38.018 46.993 6.122 7.757 12.452 15.778 18.743 23.604l32.26 40.129c2.981 3.708 5.652 7.341 5.596 11.027-.071 4.812-4.742 8.978-9.114 12.505zm9.891-26.769c-.315-.399-.624-.785-.916-1.147l-32.26-40.129c-6.272-7.802-12.592-15.81-18.705-23.555-12.33-15.624-25.079-31.779-38.18-47.19-.457-.538-.957-1.121-1.495-1.714.103.009.203.034.306.034.744 0 1.494-.236 2.129-.724 13.704-10.524 24.683-25.955 34.553-48.561 3.178-7.279 6.059-14.788 8.845-22.05 4.068-10.604 8.275-21.569 13.42-31.806 1.756-3.493 3.645-6.928 5.65-10.3 4.404 1.579 8.318 4.481 11.073 8.265.685.941 1.751 1.441 2.833 1.441.714 0 1.436-.218 2.057-.671 1.563-1.138 1.907-3.327.77-4.89-3.279-4.504-7.817-8.059-12.954-10.2 1.23-1.886 2.505-3.743 3.81-5.582.991.895 1.964 1.766 2.92 2.62 1.84 1.644 3.743 3.344 5.7 5.165.674.627 1.53.937 2.383.937.938 0 1.874-.375 2.564-1.116 1.316-1.416 1.236-3.631-.179-4.947-2.009-1.868-3.938-3.592-5.803-5.259-1.105-.988-2.241-2.009-3.39-3.051 7.658-9.913 16.396-19.022 25.977-27.075 2.258 5.571 7.82 9.825 14.409 10.731.947.13 1.908.195 2.879.195 5.248 0 10.793-1.881 15.896-5.437 3.683-2.566 6.785-5.677 9.678-8.882-.8 3.489-2.284 6.981-3.898 10.521-13.87 30.434-31.63 58.998-52.789 84.898-1.223 1.497-1.001 3.702.496 4.925s3.702 1.001 4.925-.496c10.166-12.444 19.195-25.71 28.576-38.747.556-.773 1.113-1.547 1.669-2.32 6.517-9.057 13.353-17.838 20.079-26.764-.529 1.657-.819 3.423-.819 5.26 0 5.71 2.82 10.762 7.13 13.876-4.309 3.116-7.128 8.171-7.128 13.883 0 5.562 2.612 10.491 6.703 13.616-4.091 3.125-6.703 8.053-6.703 13.615 0 5.712 2.819 10.766 7.127 13.882-4.308 3.116-7.127 8.17-7.127 13.882 0 5.562 2.612 10.491 6.703 13.616-4.091 3.125-6.703 8.053-6.703 13.615 0 5.712 2.819 10.766 7.127 13.882-4.308 3.116-7.127 8.171-7.127 13.883 0 5.561 2.611 10.49 6.703 13.615-4.091 3.125-6.703 8.053-6.703 13.615 0 5.084 2.238 9.645 5.766 12.786h-1.357c-1.933 0-3.5 1.567-3.5 3.5v17.469c-5.346 2.715-10.801 5.517-16.104 8.478h-10.218c-1.933 0-3.5 1.567-3.5 3.5v4.888c-9.932 6.778-17.586 14.009-23.298 22.02zm109.567-23.409v19.614h-26.333c-1.933 0-3.5 1.567-3.5 3.5v81.609h-19.613v-81.609c0-1.933-1.567-3.5-3.5-3.5h-26.322v-16.335c0-.002 0-.003 0-.005v-3.274h7.612c.003 0 .005.001.007.001.003 0 .005-.001.008-.001h18.694c1.933 0 3.5-1.567 3.5-3.5v-25.947h19.613v25.947c0 1.933 1.567 3.5 3.5 3.5zm129.806-198.467c-34.033 67.117-88.14 125.38-152.759 164.658-.386-1.514-1.746-2.638-3.38-2.638h-2.509c3.528-3.142 5.766-7.702 5.766-12.786 0-5.562-2.611-10.491-6.703-13.615 4.091-3.125 6.703-8.054 6.703-13.615 0-5.712-2.819-10.766-7.127-13.883 4.308-3.116 7.127-8.171 7.127-13.882 0-5.562-2.612-10.491-6.703-13.615 4.091-3.125 6.703-8.054 6.703-13.616 0-5.712-2.819-10.766-7.127-13.882 4.308-3.116 7.127-8.171 7.127-13.882 0-5.562-2.612-10.491-6.703-13.615 4.091-3.125 6.703-8.054 6.703-13.616 0-5.711-2.819-10.765-7.127-13.882 4.311-3.115 7.132-8.167 7.132-13.878 0-5.564-2.611-10.494-6.703-13.62 4.091-3.125 6.703-8.055 6.703-13.62 0-5.287-2.448-10.188-6.468-13.392l3.564-4.634c16.352-21.253 33.261-43.229 49.315-65.272l.298-.41c10.311-14.154 20.974-28.791 31.846-42.868 3.608-4.684 6.93-8.802 11.069-11.756.342-.243.69-.454 1.037-.675-4.426 5.865-7.684 12.655-9.4 19.758-.693 2.873-1.373 6.667-.46 10.545 1.047 4.442 4.1 7.931 7.967 9.105 1.028.313 2.07.469 3.124.469 3.941 0 8.053-2.181 12.265-6.514 3.545-3.647 6.72-7.608 9.508-11.832-1.342 5.831-4.153 11.517-7.198 17.271-23.592 44.682-53.679 86.574-82.775 127.086-1.127 1.57-.769 3.757.801 4.884.618.444 1.332.658 2.039.658 1.089 0 2.162-.507 2.846-1.459 29.233-40.704 59.462-82.793 83.278-127.898 1.269-2.399 2.526-4.851 3.681-7.355.395-.258.745-.596 1.018-1.017 2.895-4.455 6.051-9.297 9.889-13.315-2.824 5.458-4.803 11.365-5.766 17.375-.556 3.473-.948 7.999.979 12.2 2.472 5.391 8.356 8.797 14.689 8.797 1.025 0 2.063-.089 3.099-.274 3.93-.701 7.68-2.646 10.956-5.613-19.298 53.22-49.542 102.987-87.908 144.52-1.312 1.42-1.224 3.634.196 4.946.673.622 1.525.929 2.374.929.942 0 1.882-.378 2.572-1.125 27.801-30.096 51.398-64.449 69.766-101.291.52 1.652 1.257 3.318 2.336 4.858 2.486 3.551 6.481 5.663 10.348 5.663.876 0 1.747-.109 2.591-.334 2.813-.75 4.933-2.573 6.563-4.424-2.77 12.999-8.246 25.055-12.972 34.497-15.609 31.19-36.067 59.469-60.806 84.052-1.371 1.363-1.378 3.579-.016 4.95.685.688 1.584 1.033 2.483 1.033.892 0 1.784-.339 2.467-1.018 21.899-21.762 40.509-46.362 55.465-73.271.985 1.798 2.242 3.391 3.628 4.572 2.479 2.11 5.697 3.191 8.913 3.191.483 0 .965-.032 1.445-.081-1.971 5.575-4.618 11.254-7.769 17.456z"/><path d="m174.052 431.136c-7.008-4.242-15.698-3.46-22.138 1.993-6.305 5.339-8.456 13.619-5.481 21.094 2.832 7.113 10.203 12.031 17.819 12.031.37 0 .741-.012 1.112-.035 8.036-.511 15.281-6.545 17.225-14.347 1.954-7.838-1.637-16.558-8.537-20.736zm1.745 19.043c-1.207 4.844-5.883 8.736-10.877 9.053-4.981.309-10.133-2.95-11.983-7.598-2.239-5.624.34-10.487 3.501-13.163 3.118-2.641 8.654-4.579 13.99-1.347 4.27 2.587 6.579 8.199 5.369 13.055z"/><path d="m397.436 143.429c.692.791 1.661 1.195 2.636 1.195.818 0 1.639-.285 2.303-.866 1.455-1.273 1.602-3.484.33-4.939l-11.608-13.267c-1.274-1.455-3.484-1.603-4.939-.33s-1.602 3.484-.33 4.939z"/><path d="m408.76 139.575c.688.724 1.611 1.088 2.537 1.088.866 0 1.734-.32 2.411-.964 1.401-1.332 1.457-3.548.125-4.948l-14.382-15.125c-1.332-1.401-3.548-1.457-4.948-.125-1.401 1.332-1.457 3.548-.125 4.948z"/><path d="m340.492 101.536c5.23 2.925 9.971 6.613 14.093 10.961.688.726 1.613 1.092 2.541 1.092.864 0 1.731-.318 2.407-.96 1.403-1.33 1.462-3.545.132-4.948-4.608-4.862-9.909-8.985-15.756-12.255-1.687-.943-3.82-.34-4.763 1.346-.944 1.687-.341 3.82 1.346 4.764z"/><path d="m363.849 104.572c.671.613 1.517.916 2.36.916.949 0 1.895-.384 2.585-1.14 1.304-1.427 1.204-3.641-.224-4.945l-12.139-11.09c-1.427-1.303-3.641-1.204-4.945.223s-1.204 3.641.223 4.945z"/><path d="m426.04 179.591c.69.75 1.631 1.13 2.576 1.13.847 0 1.697-.306 2.37-.925 1.422-1.309 1.514-3.523.204-4.945l-8.735-9.488c-1.309-1.422-3.524-1.514-4.945-.204-1.422 1.309-1.514 3.523-.204 4.945z"/><path d="m431.972 171.721c.689.74 1.624 1.113 2.561 1.113.854 0 1.711-.312 2.386-.94 1.414-1.318 1.491-3.533.173-4.947l-7.199-7.719c-1.319-1.414-3.533-1.491-4.947-.172-1.414 1.318-1.491 3.533-.172 4.947z"/><path d="m441.996 211.011-8.927-5.024c-1.684-.948-3.819-.352-4.767 1.333-.948 1.684-.352 3.818 1.333 4.767l8.926 5.025c.543.305 1.132.45 1.714.45 1.223 0 2.411-.642 3.054-1.784.948-1.684.352-3.819-1.333-4.767z"/><path d="m442.789 199.701c-1.228-1.494-3.434-1.711-4.926-.484-1.494 1.227-1.71 3.433-.484 4.926l4.634 5.645c.692.843 1.695 1.279 2.707 1.279.781 0 1.568-.26 2.219-.795 1.494-1.227 1.711-3.432.484-4.926z"/></g></g></svg>