<svg id="Capa_1" enable-background="new 0 0 512 512" height="512" viewBox="0 0 512 512" width="512" xmlns="http://www.w3.org/2000/svg"><g><g><path d="m165.173 293.29c21.086-6.584 39.329-21.891 50.051-41.996 9.686-18.162 12.905-39.594 9.31-61.977-1.492-9.289-13.073-12.662-20.737-14.895-.736-.215-1.437-.419-2.087-.616-9.21-2.8-19.131-4.398-30.331-4.884-10.32-.448-21.411.082-33.898 1.622-8.724 1.075-17.539 2.513-26.065 3.904-19.363 3.159-39.386 6.424-59.074 5.506-1.072-.05-2.089.386-2.79 1.183-.702.797-1.004 1.871-.82 2.917 3.218 18.383 7.014 37.851 14.835 56.021 8.692 20.195 21.425 35.908 36.821 45.438 12.123 7.504 26.479 11.382 40.967 11.382 8.018 0 16.077-1.187 23.818-3.605zm-52.629-111.933c8.459-1.38 17.205-2.806 25.793-3.865 12.098-1.491 22.807-2.006 32.74-1.576 10.603.46 19.958 1.961 28.598 4.588.674.205 1.401.417 2.165.639 3.732 1.088 8.658 2.523 12.019 4.647-22.987 15.446-50.774 23.936-78.466 23.936-.205 0-.414 0-.62-.001-26.675-.122-53.406-8.131-75.818-22.621 18.094.027 36.106-2.895 53.589-5.747zm-8.471 98.204c-17.902-11.082-28.411-29.095-34.075-42.254-5.897-13.699-9.443-28.341-12.217-42.688 22.975 14.164 49.991 21.982 76.961 22.105.217.001.434.001.65.001 29.079 0 58.261-8.919 82.395-25.143 3.06 20.44.056 39.926-8.738 56.417-9.864 18.496-26.616 32.568-45.961 38.608-19.826 6.191-41.887 3.556-59.015-7.046z"/><path d="m109.471 96.708h18.504v52.786c0 1.933 1.567 3.5 3.5 3.5h3.4c.386 0 .769-.064 1.133-.189 2.239-.766 4.206-1.038 5.836-.811 1.306.184 2.633.473 3.945.858.32.094.652.142.986.142h1.218c1.933 0 3.5-1.567 3.5-3.5v-52.786h18.495c1.932 0 3.5-1.567 3.5-3.5v-16.517c0-1.933-1.567-3.5-3.5-3.5h-18.495v-17.471c0-1.933-1.567-3.5-3.5-3.5h-16.518c-1.932 0-3.5 1.567-3.5 3.5v17.471h-18.504c-1.933 0-3.5 1.567-3.5 3.5v16.518c0 1.932 1.568 3.499 3.5 3.499zm3.5-16.517h18.504c1.933 0 3.5-1.567 3.5-3.5v-17.471h9.518v17.471c0 1.933 1.567 3.5 3.5 3.5h18.494v9.518h-18.494c-1.932 0-3.5 1.567-3.5 3.5v52.133c-.561-.108-1.121-.202-1.68-.28-2.427-.336-5.001-.099-7.839.73v-52.584c0-1.933-1.567-3.5-3.5-3.5h-18.504v-9.517z"/><path d="m228.377 488.888-63.223-34.006c-5.258-2.828-11.217-6.034-14.359-11.121-3.188-5.164-3.338-12.025-3.47-18.078-.405-18.579.183-37.526.75-55.849.565-18.198 1.144-37.008.762-55.558.838-.069 1.676-.149 2.512-.242 35.216-3.888 67.975-28.496 81.52-61.235 12.728-30.768 9.297-65.149 6.268-95.483l-10.506-105.272c-.977-9.786-2.191-21.966-9.425-31.157-8.344-10.602-22.128-14.226-34.513-16.374-27.745-4.81-69.849-8.204-112.853 2.944-9.342 2.422-11.011 8.521-12.779 14.978-.316 1.156-.65 2.38-1.049 3.671-2.713 8.795-5.225 17.798-7.468 26.76-4.583 18.318-8.198 37.105-10.745 55.84-2.907 21.385-4.481 43.127-4.677 64.622-.275 30.115 2.126 68.552 23.314 98.728 15.801 22.504 41.829 37.693 69.155 41.553l-.555 116.449c-.037 7.698-.315 13.985-3.472 18.995-2.656 4.216-7.424 7.263-11.63 9.952l-57.104 36.518c-1.164.745-1.781 2.104-1.575 3.471.206 1.366 1.196 2.483 2.528 2.852 24.541 6.782 50.024 10.154 75.518 10.154 32.859-.001 65.735-5.605 96.606-16.737 1.299-.469 2.201-1.657 2.303-3.035.101-1.377-.617-2.686-1.833-3.34zm-95.207-481.89c19.226 0 36.58 2.029 50.328 4.413 7.667 1.329 15.895 3.248 22.517 7.201-24.456 7.935-46.59 11.814-67.526 11.814-.448 0-.899-.001-1.348-.005-23.895-.19-46.088-5.677-64.543-15.897.314-.102.645-.198.997-.29 20.567-5.332 40.949-7.236 59.575-7.236zm-69.005 261.036c-20.042-28.546-22.308-65.573-22.042-94.641.192-21.202 1.745-42.648 4.612-63.743 2.513-18.481 6.079-37.014 10.6-55.084 2.211-8.841 4.689-17.721 7.366-26.396.421-1.367.776-2.663 1.111-3.887.521-1.905.947-3.462 1.451-4.745 19.859 11.493 43.918 17.675 69.823 17.881.469.003.934.005 1.404.005 22.44 0 46.123-4.264 72.339-13.02.552-.184 1.015-.503 1.393-.894.516.545 1.014 1.109 1.483 1.704 5.971 7.588 7.074 18.641 7.961 27.523l10.507 105.273c2.946 29.515 6.285 62.967-5.772 92.112-12.597 30.45-43.066 53.337-75.819 56.953-32.752 3.62-67.481-12.072-86.417-39.041zm1.185 229.07 50.357-32.201c4.824-3.083 10.292-6.579 13.781-12.118 4.475-7.103 4.516-15.748 4.55-22.694l.551-115.742c2.207.153 4.417.238 6.627.238.209 0 .418-.007.627-.008.371 18.319-.203 36.981-.762 55.038-.571 18.414-1.161 37.455-.752 56.218.143 6.602.322 14.819 4.512 21.604 4.127 6.684 11.263 10.523 16.997 13.608l56.179 30.217c-48.98 16.044-102.603 18.096-152.667 5.84z"/><path d="m473.501 437.054c-10.901-35.956-29.055-63.273-52.498-78.996-23.81-15.97-55.674-21.248-85.235-14.116-27.7 6.682-53.392 23.665-72.343 47.822v-.001c-8.438 10.755-15.57 22.94-21.198 36.215-5.069 11.956-8.734 23.892-10.89 35.476-1.213 6.509-.499 10.457 6.766 13.971 6.087 2.944 12.436 5.226 17.845 7.071 22.742 7.757 48.585 12.033 76.809 12.712 2.849.068 5.69.102 8.538.101 31.788-.001 63.561-4.109 95.956-8.708 14.603-2.074 29.067-5.63 35.959-17.512 6.175-10.648 3.399-23.782.291-34.035zm-37.701-56.678c6.853 7.724 12.991 16.802 18.325 27.101-.118.154-.233.313-.327.491-5.497 10.385-13.742 19.05-23.841 25.057-2.297 1.366-5.32 2.966-8.344 3.219-2.586.209-5.078-.732-6.21-2.356-1.576-2.26-.806-5.625.334-7.82 1.194-2.305 3.016-4.36 4.945-6.536.671-.757 1.341-1.514 1.99-2.284 8.938-10.614 13.327-22.994 13.128-36.872zm-73.651-32.557c8.71 0 17.348 1.071 25.626 3.161.167.422.418.819.755 1.163 8.031 8.205 13.257 18.997 14.717 30.387 1.46 11.389-.878 23.15-6.582 33.116-1.372 2.398-6.334 10.182-12.748 9.45-4.492-.502-7.717-5.137-8.922-9.508-.996-3.616-1.105-7.479-1.222-11.569-.052-1.842-.106-3.747-.247-5.648-1.468-19.799-13.11-38.429-29.886-48.926 6.139-1.088 12.341-1.626 18.509-1.626zm-61.715 20.678c18.902 6.53 35.43 19.282 46.541 35.908 2.032 3.04 4.207 6.672 4.925 10.56.666 3.61-.16 7.151-2.156 9.24-3.442 3.604-9.857 2.996-14.3 1.381-10.443-3.794-18.471-12.762-26.234-21.435l-.624-.697c-7.737-8.637-16.172-17.296-27.003-21.39 5.522-5.323 11.433-10.1 17.642-14.285.34.31.746.558 1.209.718zm166.719 99.08c-5.663 9.762-18.913 12.394-30.889 14.094-34.994 4.968-69.225 9.359-103.341 8.54-27.511-.662-52.65-4.813-74.717-12.339-5.209-1.777-11.309-3.968-17.057-6.748-3.641-1.761-3.75-2-2.933-6.387 2.064-11.087 5.582-22.535 10.455-34.026 5.386-12.707 12.204-24.357 20.261-34.626 2.297-2.928 4.699-5.743 7.193-8.442 10.772 2.872 19.367 11.686 27.246 20.482l.623.695c8.341 9.317 16.964 18.952 29.06 23.346 2.815 1.023 6.07 1.7 9.327 1.7 4.534 0 9.07-1.311 12.426-4.826 3.573-3.741 5.059-9.477 3.976-15.345-.948-5.138-3.558-9.546-5.987-13.179-11.219-16.787-27.572-29.902-46.351-37.26 8.535-4.944 17.542-8.792 26.815-11.415 18.464 8.138 31.795 26.913 33.287 47.049.129 1.742.179 3.484.23 5.329.123 4.326.249 8.799 1.471 13.23 2.715 9.854 9.718 14.026 14.89 14.605.423.047.926.082 1.496.082 4.09 0 11.665-1.754 18.107-13.011 6.455-11.28 9.1-24.591 7.449-37.482-1.232-9.611-4.835-18.843-10.355-26.769 6.104 2.409 11.911 5.406 17.269 8.999 3.938 2.642 7.718 5.646 11.334 8.983-.084.378-.119.773-.069 1.18 1.819 14.814-1.899 27.837-11.051 38.706-.61.725-1.241 1.437-1.873 2.149-2.127 2.4-4.327 4.882-5.921 7.956-2.136 4.115-3.221 10.229.138 15.045 2.362 3.389 6.565 5.385 11.186 5.385.445 0 .895-.018 1.348-.056 4.45-.372 8.398-2.428 11.34-4.178 9.944-5.915 18.262-14.156 24.273-23.989 3.396 7.465 6.404 15.49 8.994 24.034 2.697 8.894 5.174 20.173.35 28.489z"/></g></g></svg>