<?xml version="1.0" encoding="iso-8859-1"?>
<!-- Generator: Adobe Illustrator 19.0.0, SVG Export Plug-In . SVG Version: 6.00 Build 0)  -->
<svg version="1.1" id="Capa_1" xmlns="http://www.w3.org/2000/svg" xmlns:xlink="http://www.w3.org/1999/xlink" x="0px" y="0px"
	 viewBox="0 0 512 512" style="enable-background:new 0 0 512 512;" xml:space="preserve">
<g>
	<g>
		<path d="M176.698,258.292c5.058-7.73,8.654-15.827,10.98-24.469c15.773-1.581,32.056-14.755,29.708-32.225
			c-1.57-11.685-12.785-19.741-23.81-19.756c5.685-11.538-0.745-29.556-7.96-38.19c-13.209-15.807-33.348-27.385-52.717-33.776
			c-17.363-5.729-33.555-3.514-49.513,2.083c-11.816,1.995-22.722,6.676-32.772,15.196c-15.285,12.957-29.229,29.871-32.547,50.236
			c-1.026,6.298,0.119,12.746,3.149,17.349c-1.537,0.138-2.993,0.454-4.227,0.951C7.887,199.354-0.066,210.463,0,220.403
			c0.065,9.69,7.725,16.777,16.334,19.813c4.68,1.65,11.626,2.369,17.028,0.587c2.601,8.333,6.749,16.094,12.984,22.663
			c6.649,7.005,14.835,12.187,23.741,15.942c-10.744,9.151-19.789,22.101-26.776,33.459c-11.491,18.68-19.569,40.587-23.298,62.143
			c-3.91,22.6-8.07,46.064-6.519,69.075c1.164,17.28,2.241,33.538,21.483,38.451c21.61,5.517,45.045,4.553,67.115,5.464
			c10.942,0.451,21.816-0.226,32.732-1.04c11.686-0.871,23.386-0.041,34.945-0.851c15.842-1.109,30.693-3.706,35.37-21.035
			c5.442-20.167,1.278-44.452-0.116-65.01c-2.788-41.133-8.518-100.358-48.28-123.247
			C164.646,272.223,171.575,266.122,176.698,258.292z M191.806,189.92c5.62,0.564,12.04,4.053,14.476,9.326
			c5.282,11.432-5.872,21.057-16.36,23.614c0.014-0.099,0.034-0.195,0.048-0.295c1.341-9.801,1.925-22.298-0.43-32.733
			C190.295,189.83,191.05,189.844,191.806,189.92z M26.575,231.647c-5.483,0.457-12.373-1.465-15.423-6.519
			c-3.397-5.628,0.659-13.32,4.847-17.513c3.994-3.999,9.303-3.692,14.213-2.064c-0.717,8.352-0.597,16.9,0.759,25.143
			C29.534,231.1,28.08,231.522,26.575,231.647z M28.617,184.289c-1.254-1.987-1.545-4.15-1.267-6.367
			c0.63-5.03,4.188-10.334,6.055-14.476c11.418-25.327,34.922-40.686,61.097-45.444c6.357-0.96,12.769-1.426,19.202-1.016
			c14.871,0.948,28.227,7.519,40.981,14.796c12.06,6.88,25.124,16.893,28.989,30.818c2.046,7.369,2.628,8.968-4.33,12.979
			c-6.19,3.569-7.233,3.834-12.498-1.355c-3.514-3.463-4.55-8.271-8.063-11.742c-2.121-2.095-5.232-1.85-7.389,0
			c-3.982,3.413-7.32,8.719-13.561,7.404c-4.899-1.032-9.077-7.383-11.242-11.311c-3.711-6.731-2.953-15.178-7.992-21.128
			c-0.935-1.104-2.699-1.432-4.036-1.067c-7.288,1.989-11.706,10.385-16.276,15.849c-2.967,3.548-8.871,11.879-13.617,12.682
			c-5.73,0.97-4.878-3.797-6.553-7.417c-1.158-2.503-4.35-2.667-6.505-1.706c-7.244,3.232-13.601,14.324-19.22,20.103
			C46.751,181.694,36.533,196.829,28.617,184.289z M180.729,326.453c6.19,16.959,8.803,35.563,10.863,53.418
			c1.951,16.911,3.531,34.058,3.935,51.088c0.216,9.065,0.96,19.181-0.853,28.11c-2.69,13.252-11.814,14.446-23.602,15.499
			c-16.963,1.516-34.667,1.229-51.821,2.118c-18.88,0.978-38.626,0.307-57.415-1.74c-7.999-0.872-18.086-0.413-25.648-3.552
			c-11.872-4.929-11.357-18.567-11.979-29.545c-1.133-19.985,2.263-40.232,5.419-59.884c5.339-33.237,19.91-66.377,42.196-92.185
			c1.53,9.146,3.958,18.342,6.12,27.179c1.969,8.045,2.23,23.979,10.342,28.867c5.859,3.531,10.532-1.246,13.964-5.956
			c0.631-0.866,1.215-1.78,1.821-2.67c-1.165,9.133-1.404,18.495-1.538,27.565c-0.204,13.866-2.135,27.649-2.179,41.511
			c-0.043,13.676-1.796,28.846,0.834,42.302c1.478,7.557,7.063,10.957,14.934,10.536c23.309-1.247,15.976-45.903,14.638-59.991
			c-1.095-11.531-2.48-23.052-3.551-34.589c-0.704-7.586-0.677-15.319-0.915-22.985c3.582,4.653,7.831,6.348,12.645,1.256
			c7.55-7.985,7.622-23.894,10.093-33.852c1.201-4.841,4.681-12.93,5.827-20.052C166.288,299.342,175.054,310.903,180.729,326.453z
			 M142.238,304.743c-1.941,7.625-2.92,15.544-5.122,23.088c-0.285,0.978-2.112,8.64-3.27,8.796
			c-2.955,0.397-5.763-6.948-6.54-8.747c-2.468-5.716-3.569-11.612-5.175-17.452c12.35-3.88,21.847-15.57,24.573-28.473
			c0.229,0.183,0.448,0.367,0.675,0.55c0.049,0.131,0.081,0.26,0.146,0.392c0.024,0.05-2.224,9.753-1.949,8.488
			C144.595,295.895,143.376,300.273,142.238,304.743z M107.871,436.6c-0.104-5.441-0.053-10.89-0.076-16.332
			c-0.045-10.912,0.074-21.603,0.793-32.488c1.291-19.531,2.225-39.789,1.071-59.371c2.165-3.639,4.275-7.336,6.456-10.963
			c0.949,3.3,2.136,7.154,3.543,10.942c-1.233,16.701,0.168,32.518,1.457,49.211c0.781,10.116,2.146,20.222,2.575,30.346
			c0.238,5.622,0.489,11.258,0.601,16.884c0.129,6.455,1.277,17.311-3.942,22.329c-4.132,3.972-10.196,4.497-11.845-1.195
			C107.661,443.051,107.929,439.601,107.871,436.6z M110.423,301.395c-11.628-1.656-18.062-8.46-23.897-16.753
			c8.602,1.95,17.416,2.888,25.861,3.04c7.311,0.132,14.818-0.604,22.119-2.248C130.065,295.059,122.697,303.144,110.423,301.395z
			 M108.451,311.384c0.674,0.113,1.336,0.152,2.002,0.219c-3.383,4.822-6.78,9.654-9.592,14.855
			c-1.628,3.011-3.153,8.397-5.884,10.544c-5.24,4.12-5.844-4.352-6.943-8.835c-3.598-14.676-7.805-29.33-11.043-44.111
			c0.058-0.061,0.113-0.126,0.171-0.187c0.54,4.409,3.511,9.133,5.741,12.272C88.545,304.084,98.89,309.775,108.451,311.384z
			 M108.615,277.087c-20.047-0.708-42.059-6.722-56.219-21.794c-14.439-15.369-12.841-35.364-15.105-54.675
			c0.685-0.177,1.369-0.351,2.087-0.612c7.854-2.858,13.652-9.473,19.265-15.361c3.541-3.714,6.996-7.436,10.26-11.397
			c0.761-0.924,1.629-2.28,2.565-3.683c0.382,1.202,1.077,2.369,2.515,3.492c3.386,2.645,8.047,2.852,12.082,1.775
			c5.335-1.423,10.233-5.778,13.992-9.619c3.698-3.779,9.299-16.028,14.103-18.797c0.019,0.057,0.031,0.099,0.051,0.159
			c0.536,2.066,0.935,4.159,1.198,6.279c0.747,3.723,1.268,7.141,2.981,10.539c2.665,5.288,7.034,10.025,11.91,13.386
			c9.41,6.487,16.641,2.779,23.902-3.049c1.309,2.301,2.426,4.774,4.241,6.735c2.735,2.954,6.352,5.559,9.939,7.389
			c3.189,1.628,6.651,2.784,10.082,2.996c3.069,19.946,1.443,40.832-9.072,58.442C156.695,270.557,132.288,277.924,108.615,277.087z
			"/>
	</g>
</g>
<g>
	<g>
		<path d="M471.085,258.292c5.058-7.73,8.654-15.827,10.98-24.469c15.772-1.581,32.056-14.755,29.708-32.225
			c-1.57-11.685-12.785-19.741-23.81-19.756c5.685-11.538-0.745-29.556-7.96-38.19c-13.209-15.807-33.348-27.385-52.717-33.776
			c-1.104-0.364-2.203-0.695-3.297-0.996c8.23-19.876,14.793-40.246,6.703-61.81c-6.212-16.557-26.667-27.044-43.806-21.896
			c-35.922,10.789-36.345,68.191-6.665,85.961c-0.816,0.268-1.633,0.539-2.448,0.824c-11.816,1.995-22.722,6.676-32.772,15.196
			c-15.285,12.957-29.229,29.871-32.547,50.236c-1.026,6.298,0.119,12.746,3.148,17.349c-1.537,0.138-2.992,0.454-4.227,0.951
			c-9.104,3.662-17.057,14.771-16.99,24.712c0.065,9.69,7.725,16.777,16.334,19.813c4.68,1.65,11.626,2.369,17.028,0.587
			c2.601,8.333,6.749,16.094,12.984,22.663c6.649,7.005,14.835,12.187,23.741,15.942c-10.744,9.151-19.789,22.101-26.776,33.459
			c-11.491,18.68-19.569,40.587-23.298,62.143c-3.91,22.6-8.07,46.064-6.519,69.075c1.164,17.28,2.241,33.538,21.483,38.451
			c21.61,5.517,45.045,4.553,67.115,5.464c10.942,0.451,21.816-0.226,32.732-1.04c11.686-0.871,23.386-0.041,34.945-0.851
			c15.842-1.109,30.693-3.706,35.37-21.035c5.442-20.167,1.278-44.452-0.116-65.01c-2.788-41.133-8.517-100.359-48.28-123.247
			C459.033,272.223,465.961,266.122,471.085,258.292z M486.193,189.92c5.62,0.564,12.04,4.053,14.476,9.326
			c5.282,11.432-5.872,21.057-16.36,23.614c0.014-0.099,0.034-0.195,0.048-0.295c1.341-9.801,1.925-22.298-0.43-32.733
			C484.681,189.83,485.437,189.844,486.193,189.92z M371.128,76.126c-3.424-16.198,5.433-40.666,24.884-41.456
			c20.029-0.813,27.591,18.781,26.97,35.435c-0.281,7.538-2.297,14.049-4.631,20.465c-8.453-5.65-29.355-1.342-37.29,6.471
			C376.304,90.544,372.579,82.995,371.128,76.126z M415.533,98.195c-1.027,2.804-2.017,5.652-2.848,8.63
			c-7.188-0.671-14.211-0.128-21.14,1.282c-0.049-0.042-0.085-0.09-0.138-0.131c-1.981-1.544-3.927-3.376-5.794-5.395
			c3.423-1.231,6.988-3.182,9.653-3.898c4.731-1.271,9.837-2.254,14.725-1.582C412.054,97.384,413.762,97.917,415.533,98.195z
			 M320.961,231.647c-5.483,0.457-12.373-1.465-15.423-6.519c-3.397-5.628,0.659-13.32,4.847-17.513
			c3.995-3.999,9.303-3.692,14.214-2.064c-0.717,8.352-0.597,16.9,0.759,25.143C323.92,231.1,322.466,231.522,320.961,231.647z
			 M323.003,184.289c-1.254-1.987-1.545-4.15-1.267-6.367c0.63-5.03,4.188-10.334,6.055-14.476
			c11.417-25.327,34.922-40.686,61.097-45.444c6.357-0.96,12.769-1.426,19.202-1.016c14.871,0.948,28.227,7.519,40.982,14.796
			c12.06,6.88,25.124,16.893,28.989,30.818c2.046,7.369,2.628,8.968-4.33,12.979c-6.19,3.569-7.233,3.834-12.498-1.355
			c-3.514-3.463-4.55-8.271-8.063-11.742c-2.121-2.095-5.232-1.85-7.389,0c-3.982,3.413-7.32,8.719-13.561,7.404
			c-4.899-1.032-9.077-7.383-11.242-11.311c-3.711-6.731-2.953-15.178-7.992-21.128c-0.935-1.104-2.699-1.432-4.036-1.067
			c-7.288,1.989-11.706,10.385-16.276,15.849c-2.967,3.548-8.871,11.879-13.617,12.682c-5.73,0.97-4.878-3.797-6.553-7.417
			c-1.158-2.503-4.35-2.667-6.505-1.706c-7.244,3.232-13.601,14.324-19.22,20.103C341.137,181.694,330.92,196.829,323.003,184.289z
			 M452.144,291.629c10.02,9.736,17.788,20.614,22.973,34.822c6.19,16.959,8.803,35.563,10.863,53.418
			c1.951,16.911,3.531,34.058,3.935,51.088c0.215,9.068,0.958,19.184-0.854,28.113c-2.69,13.252-11.814,14.446-23.602,15.499
			c-16.963,1.516-34.667,1.229-51.821,2.118c-18.88,0.978-38.626,0.307-57.415-1.74c-7.999-0.872-18.086-0.413-25.648-3.552
			c-11.872-4.929-11.357-18.567-11.979-29.545c-1.133-19.985,2.263-40.232,5.419-59.884c5.103-31.771,18.646-63.451,39.294-88.726
			c-0.662,3.436-0.965,6.82-1.271,9.165c-1.148,8.803,0.269,18.179,6.53,24.927c6.354,6.849,14.662,7.193,23.297,5.042
			c8.157-2.032,13.068-6.291,17.223-12.264c3.416,5.116,6.729,10.175,12.601,12.91c7.375,3.434,13.36,2.484,19.335-3.097
			C448.682,322.766,454.924,304.477,452.144,291.629z M404.809,301.396c-11.627-1.657-18.062-8.461-23.897-16.754
			c8.602,1.95,17.416,2.888,25.861,3.04c7.311,0.132,14.818-0.604,22.119-2.248C424.452,295.06,417.084,303.145,404.809,301.396z
			 M440.411,284.604c0.069,0.41,0.205,0.834,0.438,1.269c5.639,10.544,4.127,24.95-2.781,34.942
			c-9.618,13.913-19.056-0.721-25.622-9.426C425.86,309.186,436.63,297.797,440.411,284.604z M402.837,311.384
			c0.814,0.137,1.616,0.195,2.419,0.264c-2.985,5.228-5.519,9.176-11.262,11.848c-7.878,3.664-17.26,4.019-22.547-4.169
			c-3.928-6.083-3.489-13.148-2.586-19.976c0.481-3.636,0.322-10.811,2.865-14.524c0.81,4.125,3.493,8.401,5.563,11.314
			C382.931,304.084,393.277,309.775,402.837,311.384z M403.001,277.088c-20.046-0.709-42.058-6.723-56.218-21.795
			c-14.439-15.369-12.841-35.364-15.105-54.675c0.685-0.177,1.369-0.351,2.087-0.612c7.854-2.858,13.652-9.473,19.265-15.361
			c3.54-3.714,6.996-7.436,10.26-11.397c0.761-0.924,1.63-2.28,2.565-3.683c0.382,1.202,1.077,2.369,2.515,3.492
			c3.386,2.645,8.047,2.852,12.082,1.775c5.335-1.423,10.233-5.778,13.992-9.619c3.698-3.779,9.299-16.028,14.103-18.797
			c0.019,0.057,0.031,0.099,0.051,0.159c0.536,2.066,0.935,4.159,1.198,6.279c0.747,3.723,1.268,7.141,2.981,10.539
			c2.665,5.288,7.034,10.025,11.91,13.386c9.41,6.487,16.641,2.779,23.902-3.049c1.309,2.301,2.426,4.774,4.242,6.735
			c2.735,2.954,6.352,5.559,9.939,7.389c3.189,1.628,6.651,2.784,10.082,2.996c3.069,19.946,1.443,40.832-9.072,58.442
			C451.081,270.559,426.674,277.926,403.001,277.088z"/>
	</g>
</g>
<g>
	<g>
		<path d="M311.922,272.139c-0.921-3.82-4.683-6.573-7.622-9.226c-1.098-1.238-2.279-2.442-3.502-3.606
			c-3.344-3.711-6.559-7.552-11.119-9.753c-5.633-2.72-12.174,4.365-7.05,9.137c2.947,2.745,8.725,6.921,12.55,11.19
			c-6.109,0.139-13.253-0.842-17.87-0.841c-9.999,0.003-20.058-0.278-30.054,0.003c-16.759,0.47-34.371-0.494-50.911,2.219
			c-4.151,0.68-4.154,7.707,0.001,8.388c18.32,3.006,37.193,1.131,55.647,0.995c10.561-0.078,21.128-0.004,31.69,0
			c3.809,0.001,8.233,0.527,12.523,0.585c-3.452,4.108-9.124,8.29-10.801,12.257c-2.799,6.621,5.565,11.895,9.801,5.729
			C300.116,292.068,314.309,282.03,311.922,272.139z"/>
	</g>
</g>
<g>
	<g>
		<path d="M303.915,330.671c-11.228-4.294-26.428-0.857-38.11-0.743c-12.011,0.118-24.625,0.891-36.807,0.674
			c0.405-0.745,0.828-1.487,1.277-2.226c0.159-0.225,0.322-0.456,0.458-0.65c1.197-1.716,2.431-3.583,3.702-5.48
			c3.539-4.785,7.463-9.347,10.56-13.503c3.958-5.311-4.446-11.255-8.943-6.9c-5.346,5.179-9.612,11.715-13.82,17.946
			c-0.115,0.167-0.227,0.335-0.341,0.503c-0.367,0.542-0.734,1.087-1.101,1.622c-3.183,4.644-9.238,9.538-7.474,15.732
			c0.699,2.453,3.635,4.303,5.181,5.963c3.602,3.867,6.657,8.124,10.476,11.797c4.14,3.981,8.012,8.964,13.87,9.673
			c3.914,0.474,7.122-5.095,4.726-8.235c-1.508-1.976-2.464-2.668-2.713-2.914c-3.954-3.924-8.156-7.478-11.954-11.549
			c11.66,0.047,23.624-0.707,35.024-1.024c11.558-0.321,26.11-0.292,36.624-5.84C306.741,334.358,305.894,331.428,303.915,330.671z"
			/>
	</g>
</g>
<g>
	<g>
		<path d="M84.38,207.137c-3.52-3.69-8.448-4.059-12.02-0.184c-2.701,2.93-4.637,8.089-2.277,11.716
			c1.538,2.363,4.17,3.82,6.9,4.073c3.833,0.977,7.791-0.315,9.664-4.121C88.654,214.541,87.403,210.305,84.38,207.137z"/>
	</g>
</g>
<g>
	<g>
		<path d="M151.516,208.543c-2.168-3.603-6.376-6.163-10.444-3.844c-0.046,0.026-0.09,0.063-0.136,0.09
			c-0.224,0.047-0.452,0.075-0.668,0.148c-3.416,1.15-6.461,5.431-6.952,8.898c-1.332,9.385,12.102,12.434,17.451,6.208
			C153.643,216.696,153.755,212.265,151.516,208.543z"/>
	</g>
</g>
<g>
	<g>
		<path d="M134.604,241.289c-0.255-0.11-0.51-0.219-0.766-0.328c-1.266-0.543-2.51-0.512-3.561,0.459
			c-1.653,1.528-2.611,3.561-3.94,5.341c-3.265,4.374-7.943,7.024-13.583,6.774c-4.173-0.185-8.066-1.888-11.395-4.396
			c-2.222-1.674-3.088-3.308-5.966-3.742c-1.338-0.202-2.648,0.535-2.664,2.029c-0.091,8.559,11.549,14.031,18.85,14.305
			c11.726,0.441,18.603-5.65,24.465-14.951C137.097,245.109,136.557,242.127,134.604,241.289z"/>
	</g>
</g>
<g>
	<g>
		<path d="M118.22,227.615c-2.227-0.082-4.271,0.918-6.465,0.826c-2.214-0.092-3.809-1.249-5.794-2.045c-1.63-0.654-3.687,1.354-3,3
			c1.184,2.836,3.592,4.843,6.592,5.625c1.661,0.433,3.616,0.47,5.3,0.145c1.557-0.301,2.717-1.135,4.158-1.704
			C122.034,232.268,121.76,227.746,118.22,227.615z"/>
	</g>
</g>
<g>
	<g>
		<path d="M376.309,207.137c-3.521-3.69-8.449-4.059-12.02-0.184c-2.701,2.93-4.637,8.089-2.277,11.716
			c1.538,2.363,4.17,3.82,6.9,4.073c3.833,0.977,7.792-0.315,9.664-4.121C380.583,214.541,379.332,210.305,376.309,207.137z"/>
	</g>
</g>
<g>
	<g>
		<path d="M443.444,208.543c-2.168-3.603-6.376-6.163-10.444-3.844c-0.046,0.026-0.09,0.063-0.136,0.09
			c-0.223,0.047-0.452,0.075-0.668,0.148c-3.416,1.15-6.461,5.431-6.952,8.898c-1.331,9.385,12.103,12.434,17.451,6.208
			C445.571,216.696,445.683,212.265,443.444,208.543z"/>
	</g>
</g>
<g>
	<g>
		<path d="M426.532,241.289c-0.255-0.11-0.51-0.219-0.766-0.328c-1.266-0.543-2.51-0.512-3.561,0.459
			c-1.653,1.528-2.611,3.561-3.94,5.341c-3.265,4.374-7.943,7.024-13.583,6.774c-4.172-0.185-8.066-1.888-11.395-4.396
			c-2.222-1.674-3.088-3.308-5.966-3.742c-1.338-0.202-2.648,0.535-2.664,2.029c-0.091,8.559,11.549,14.031,18.85,14.305
			c11.726,0.441,18.603-5.65,24.465-14.952C429.025,245.109,428.485,242.127,426.532,241.289z"/>
	</g>
</g>
<g>
	<g>
		<path d="M410.148,227.615c-2.227-0.082-4.271,0.918-6.465,0.826c-2.213-0.092-3.808-1.249-5.794-2.045
			c-1.63-0.654-3.687,1.354-3,3c1.184,2.836,3.592,4.843,6.592,5.625c1.661,0.433,3.616,0.47,5.3,0.145
			c1.557-0.301,2.717-1.135,4.158-1.704C413.962,232.268,413.688,227.746,410.148,227.615z"/>
	</g>
</g>
<g>
</g>
<g>
</g>
<g>
</g>
<g>
</g>
<g>
</g>
<g>
</g>
<g>
</g>
<g>
</g>
<g>
</g>
<g>
</g>
<g>
</g>
<g>
</g>
<g>
</g>
<g>
</g>
<g>
</g>
</svg>
