<?xml version="1.0" encoding="iso-8859-1"?>
<!-- Generator: Adobe Illustrator 19.0.0, SVG Export Plug-In . SVG Version: 6.00 Build 0)  -->
<svg version="1.1" id="Capa_1" xmlns="http://www.w3.org/2000/svg" xmlns:xlink="http://www.w3.org/1999/xlink" x="0px" y="0px"
	 viewBox="0 0 512 512" style="enable-background:new 0 0 512 512;" xml:space="preserve">
<g>
	<g>
		<path d="M511.005,75.35c-1.18-14.895-2.296-34.583-10.558-47.378c-7.185-11.128-21.868-12.15-33.771-13.928
			c-16.96-2.533-34.904-2.367-52.043-2.328c-35.881,0.082-71.51,0.048-107.384,0.072c-38.04,0.025-76.051-4.399-114.127-2.5
			c-15.351,0.766-36.883,1.422-49.912,10.899c-12.729,9.258-13.022,26.049-12.348,40.141c0.452,9.436,1.629,18.815,2.209,28.25
			c0.325,5.29,0.277,10.537,0.144,15.783c-0.45,0.331-0.742,0.765-0.955,1.239c-16.057,12.88-30.957,26.871-47.306,39.411
			c-13.776,10.567-32.46,23.27-41.775,38.125c-9.009,14.367-9.46,36.931-11.223,53.414c-2.423,22.647-4.183,45.641-4.215,68.438
			c-0.017,12.008-3.772,29.258,4.518,39.174c-4.231,0.255-8.408,0.959-12.488,2.587c-17.534,6.997-19.878,25.645-19.767,42.445
			c0.109,16.435,6.48,24.354,19.016,28.287c-1.352,15.538-1.191,31.103-1.365,46.7c-0.131,11.709-3.129,24.959,8.545,31.844
			c11.878,7.006,27.859,6.05,41.035,6.858c15.898,0.974,34.001-0.524,49.814-2.674c14.254-1.938,28.68-3.828,42.898-5.973
			c10.588-1.598,24.326-4.547,29.67-14.905c5.831-11.302,3.384-28.673,2.256-40.641c-0.721-7.646-0.677-17.846-3.076-26.377
			c10.894-3.461,20.316-9.569,21.237-21.2c1.167-14.744-1.782-39.834-15.228-48.737c-3.972-2.63-8.318-3.614-12.796-3.849
			c5.317-7.909,5.986-17.929,10.171-26.394c4.877-9.865,12.895-17.231,20.901-24.515c7.777-7.076,14.573-15.076,20.822-23.532
			c4.822-6.525,5.218-11.976,7.047-19.303c16.527-0.448,33.048-0.824,49.601-0.675c37.956,0.339,75.958,4.792,113.877,3.667
			c28.348-0.841,74.88,2.258,92.823-24.756c8.195-12.338,10.116-25.067,11.461-39.566c1.641-17.698,2.333-35.463,2.829-53.231
			C512.046,112.082,512.436,93.418,511.005,75.35z M178.89,461.557c-0.124,8.486,0.378,11.551-8.916,16.066
			c-8.302,4.033-18.67,3.72-27.71,4.767c-12.167,1.409-24.191,3.644-36.346,5c-11.041,1.232-22.65,1.993-33.766,1.977
			c-9.973-0.015-25.053,0.936-33.979-3.113c-8.357-3.791-7.175-8.466-7.153-16.857c0.018-6.681-0.052-13.405-0.245-20.084
			c-0.284-9.837-0.348-19.708-1.045-29.531c0.362,0.051,0.703,0.111,1.072,0.159c24.312,3.144,49.665,2.968,74.065,0.564
			c20.249-1.995,40.764-1.475,60.917-3.811c3.079-0.357,6.531-0.785,10.112-1.378c1.39,8.555,1.873,17.839,2.531,25.893
			C178.979,447.949,178.989,454.798,178.89,461.557z M195.042,372.924c0.791,4.969,3.482,13.521,1.696,18.19
			c-5.551,14.511-39.973,12.497-51.74,13.017c-12.282,0.542-24.532,1.401-36.775,2.681c-16.331,1.707-33.06,2.956-49.497,2.146
			c-6.74-0.332-13.525-1.591-20.26-2.069c-11.913-0.846-23.089-0.861-25.193-15.725c-0.923-6.517,0.016-14.012,1.678-20.328
			c3.944-14.986,20.201-13.981,32.647-14.691c31.359-1.79,62.511-1.266,93.823-3.475c4.339-0.306,9.023-0.524,13.685-1.06
			c6.047,0.1,12.124,0.058,18.441-0.117C188.963,351.066,192.761,358.598,195.042,372.924z M225.949,253.297
			c-1.572,2.975-5.263,6.411-7.483,9.252c-6.978,8.933-14.898,15.678-22.994,23.472c-5.907,5.686-11.015,12.049-14.893,19.331
			c-4.166,7.824-4.159,18.691-9.489,25.656c-6.352,8.301-23.177,7.707-32.523,8.321c-10.01,0.657-19.966,1.413-30.025,1.867
			c-10.636,0.48-20.844,0.985-31.447,0.688c-8.89-0.249-23.028,1.551-30.878-4.1c-8.68-6.249-4.973-26.168-4.946-35.271
			c0.033-11.299,1.132-22.476,1.606-33.755c0.945-22.473,2.803-45.582,7.913-67.559c2.955-12.708,11.982-20.637,21.67-28.575
			c8.786-7.199,17.113-14.809,26.064-21.797c12.594-9.833,24.154-20.928,34.343-33.169c-0.029,1.806-0.046,3.616-0.029,5.432
			c0.179,19.3-1.91,38.377,0.112,57.583c0.038,0.363,0.105,0.704,0.196,1.023c-4.868,4.68-9.72,9.374-14.378,14.243
			c-5.423,5.668-11.479,11.227-16.395,17.34c-5.277,6.562-6.009,12.305-9.734,19.391c-2.168,4.124,3.596,7.411,6.196,3.621
			c3.18-4.636,4.969-9.671,8.564-14.103c4.451-5.489,9.933-9.913,14.925-14.885c8.675-8.639,17.425-17.264,26.541-25.458
			c9.698-8.717,18.689-17.276,26.729-27.616c3.597-4.625,7.717-9.485,10.349-14.748c3.233-6.465,2.331-11.761,11.483-11.332
			c19.417,0.911,26.312,22.345,26.331,38.389c0.019,16.004-1.611,27.804-12.494,40.262c-9.453,10.821-20.517,20.207-30.272,30.765
			c-9.824,10.634-17.021,21.625-24.679,33.869c-2.53,4.045,2.955,7.59,6.249,4.822c7.557-6.349,12.367-14.05,19.025-21.226
			c2.377-2.562,4.862-5.048,7.376-7.508c0.441,0.103,0.902,0.179,1.4,0.202c12.375,0.569,25.051-1.746,37.522-2.496
			C227.304,248.368,226.745,251.792,225.949,253.297z M498.076,117.434c-0.019,15.105-0.241,30.459-1.447,45.507
			c-1.17,14.6-0.431,32.523-7.007,45.796c-15.099,30.48-64.862,23.93-93.554,25.646c-18.898,1.131-38.205-1.755-57.185-2.058
			c-17.751-0.283-35.448-1.916-53.24-1.904c-17.913,0.012-35.755,0.44-53.649,0.952c-9.44,0.27-19.071,1.705-28.615,2.445
			c11.111-10.465,23.283-21.262,29.473-35.487c10.931-25.12,4.762-64.295-20.915-77.815c-9.833-5.177-24.599-10.005-32.639,0.278
			c-3.794,4.852-4.667,11.673-7.794,16.932c-4.827,8.119-10.858,16.139-17.273,23.023c-3.666,3.933-7.481,7.729-11.332,11.491
			c2.853-27.682,4.963-55.987,3.351-83.659c-0.774-13.293-3.195-26.874-2.425-40.215c1.309-22.706,26.743-24.421,44.633-25.778
			c31.441-2.385,63.272,0.391,94.672,1.972c31.099,1.565,63.541,2.094,94.572,0.683c14.783-0.672,29.723-0.58,44.52-0.321
			c16.62,0.291,34.217,0.163,50.579,3.315c12.186,2.348,16.102,4.952,19.745,17.324c2.016,6.848,3.454,14.119,4.315,21.201
			C498.9,83.537,498.097,100.571,498.076,117.434z"/>
	</g>
</g>
<g>
	<g>
		<path d="M464.743,96.384c-5.333-17.963-14.289-43.626-29.071-56.28c-1.516-1.298-3.576-1.737-5.375-0.693
			c-5.491,3.187-9.228,8.319-12.059,14.242c-4.616,5.961-8.202,14.566-10.752,19.469c-4.511,8.671-12.014,19.823-12.938,29.853
			c-1.858,20.162,31.167,16.921,43.69,16.054C455.077,117.864,471.073,117.707,464.743,96.384z M456.982,101.138
			c-1.218,9.958-10.319,8.237-17.324,8.85c-7.354,0.644-14.5,0.215-21.856-0.393c-8.687-0.718-13.929-0.59-13-10.288
			c0.614-6.388,28.249-49.248,27.295-50.283c6.901,7.49,11.734,19,15.485,27.729C450.055,82.51,457.753,94.829,456.982,101.138z"/>
	</g>
</g>
<g>
	<g>
		<path d="M448.066,136.263c-18.613-4.377-40.113-2.441-59.163-2.449c-24.199-0.01-47.941-2.208-72.032,2.066
			c-2.108,0.374-2.084,3.841,0,4.235c10.452,1.978,19.705,1.603,30.249,1.124c13.169-0.599,26.222,1.133,39.351,1.096
			c19.906-0.057,41.151,1.991,60.861-0.649C450.148,141.309,451.392,137.045,448.066,136.263z"/>
	</g>
</g>
<g>
	<g>
		<path d="M448.066,155.744c-18.613-4.377-40.113-2.441-59.163-2.449c-24.199-0.01-47.941-2.208-72.032,2.067
			c-2.108,0.374-2.084,3.841,0,4.235c10.452,1.978,19.705,1.603,30.249,1.124c13.169-0.599,26.222,1.133,39.351,1.096
			c19.906-0.057,41.151,1.991,60.861-0.648C450.148,160.791,451.392,156.527,448.066,155.744z"/>
	</g>
</g>
<g>
	<g>
		<path d="M448.066,175.226c-18.613-4.377-40.113-2.441-59.163-2.449c-24.199-0.01-47.941-2.208-72.032,2.067
			c-2.108,0.374-2.084,3.841,0,4.235c10.452,1.978,19.705,1.603,30.249,1.124c13.169-0.599,26.222,1.133,39.351,1.096
			c19.906-0.057,41.151,1.991,60.861-0.648C450.148,180.273,451.392,176.008,448.066,175.226z"/>
	</g>
</g>
<g>
	<g>
		<path d="M448.066,194.707c-18.613-4.377-40.113-2.441-59.163-2.449c-24.199-0.01-47.941-2.208-72.032,2.067
			c-2.108,0.374-2.084,3.841,0,4.235c10.452,1.978,19.705,1.603,30.249,1.124c13.169-0.599,26.222,1.133,39.351,1.096
			c19.906-0.057,41.151,1.991,60.861-0.649C450.148,199.754,451.392,195.49,448.066,194.707z"/>
	</g>
</g>
<g>
	<g>
		<path d="M266.122,45.944c-7.578-7.107-27.78-3.542-36.889-2.992c-16.284,0.982-32.571-1.806-48.783-1.345
			c-12.048,0.342-16.042,5.722-15.733,17.536c0.169,6.478,0.843,10.651,3.163,13.402c1.011,2.27,2.738,4.057,5.604,4.953
			c6.892,2.155,17.827,0.527,25.018,0.637c9.75,0.15,19.335-0.94,29.05-1.038c10.155-0.103,29.641,1.727,37.62-5.867
			C270.801,65.872,271.973,51.432,266.122,45.944z M253.799,66.615c-3.816,1.379-12.071,0.948-15.92,1.314
			c-6.977,0.666-13.978,0.756-20.977,1.422c-10.804,1.028-21.42,0.688-32.26,0.774c-2.02,0.016-3.833,0.321-5.474,0.24
			c-2.833-1.749-4.88-4.298-5.697-7.087c-0.097-1.482-0.124-3.138-0.125-4.775c0.467-1.927,1.576-3.815,3.513-5.488
			c4.533-3.914,20.016-1.63,26.803-1.565c8.648,0.084,16.936,0.785,25.571,0.183c6.541-0.456,18.998-2.475,25.209-0.487
			C263.804,54.142,262.073,63.625,253.799,66.615z"/>
	</g>
</g>
<g>
	<g>
		<path d="M300.568,88.001c-10.914-1.946-22.217-1.398-33.223-0.72c-11.357,0.701-22.716,0.366-34.094,0.985
			c-20.185,1.097-41.255,3.28-61.445,1.795c-2.385-0.176-3.474,3.6-1.251,4.619c7.497,3.436,15.961,2.448,24.098,2.533
			c11.353,0.118,22.391-0.308,33.705-0.999c23.726-1.451,48.819,1.325,72.209-2.845C303.224,92.896,303.226,88.476,300.568,88.001z"
			/>
	</g>
</g>
<g>
</g>
<g>
</g>
<g>
</g>
<g>
</g>
<g>
</g>
<g>
</g>
<g>
</g>
<g>
</g>
<g>
</g>
<g>
</g>
<g>
</g>
<g>
</g>
<g>
</g>
<g>
</g>
<g>
</g>
</svg>
