<?xml version="1.0" encoding="iso-8859-1"?>
<!-- Generator: Adobe Illustrator 19.0.0, SVG Export Plug-In . SVG Version: 6.00 Build 0)  -->
<svg version="1.1" id="Capa_1" xmlns="http://www.w3.org/2000/svg" xmlns:xlink="http://www.w3.org/1999/xlink" x="0px" y="0px"
	 viewBox="0 0 512.002 512.002" style="enable-background:new 0 0 512.002 512.002;" xml:space="preserve">
<g>
	<g>
		<path d="M258.981,325.588c-3.254-5.009-9.436-7.855-15.359-8.285c-4.867-0.353-8.163,1.782-11.594,4.122
			c-1.829,0.822-3.506,1.907-4.989,3.211c-0.031,0.031-0.07,0.056-0.097,0.089c-4.782,4.26-7.451,10.759-5.997,17.837
			c2.387,11.625,19.262,20.222,29.661,13.799C260.851,350.032,265.964,336.335,258.981,325.588z M251.149,347.629
			c-3.475,3.388-7.158,5.449-12.165,4.289c-4.349-1.008-9.453-4.32-11.829-8.23c-4.519-7.435,0.399-13.847,6.735-18.026
			c4.048-1.372,7.8-3.218,12.738-1.455C256.468,327.72,258.485,340.48,251.149,347.629z"/>
	</g>
</g>
<g>
	<g>
		<path d="M509.193,259.374c-2.399-4.344-6.494-6.835-11.125-8.251c-7.184-2.195-9.514,0.03-11.555-8.151
			c-2.657-10.651-5.185-18.95-5.322-30.343c-0.339-28.112,2.722-56.142,2.418-84.253c-0.17-15.76-1.288-31.637-2.205-47.389
			c-0.535-9.186-1.093-20.437-8.32-27.195c-8.926-8.348-24.404-11.877-36.032-12.995c-14.548-1.399-29.426-2.358-44.05-2.532
			c-26.281-0.312-52.54,1.015-78.799,0.881c-26.125-0.134-52.249-1.473-78.392-1.472c-57.814,0.001-115.236,1.554-172.951,4.378
			c-21.58,1.056-45.807,4.082-53.691,27.105c-4.049,11.82-4.552,26.722-5.686,39.189c-1.162,12.774-2.43,25.468-2.895,38.305
			c-1.918,52.92,1.517,105.814,0.984,158.795c-0.12,11.924,0.485,24.77,2.317,36.579c1.77,11.404,7.62,17.518,18.053,21.917
			c23.36,9.85,53.399,8.228,78.286,8.406c22.25,0.159,44.495,0.446,66.739,0.755c-1.214,12.244-1.549,24.915-0.952,37.097
			c0.254,5.164,0.622,9.81,2.876,13.722c-2.561-0.254-5.123-0.482-7.683-0.641c-10.078-0.629-22.971-0.155-30.135,8.304
			c-6.144,7.255-3.658,18.283,4.691,22.152c11.931,5.529,27.731,4.73,40.54,4.67c34.961-0.165,70.026-1.325,104.969-1.024
			c16.8,0.144,35.461,2.367,52.016-0.582c9.958-1.774,19.083-7.539,15.914-18.986c-3.801-13.731-20.222-15.247-32.096-14.671
			c-2.154,0.105-4.285,0.234-6.407,0.377c3.527-5.393,4.045-11.742,4.079-18.806c0.047-9.604,0.847-20.345-0.514-30.194
			c14.103-0.027,28.206,0.027,42.264,0.435c0.152,8.158,0.255,16.314,0.518,24.477c0.486,15.127-0.008,30.782,1.677,45.815
			c2.59,23.113,28.416,24.139,46.518,26.951c10.366,1.611,20.995,1.107,31.45,1.858c11.435,0.822,25.223-0.297,36.57-2.481
			c7.055-1.357,9.788-6.394,12.354-12.845c5.057-12.709,7.67-26.49,9.518-39.992c3.515-25.689,4.515-52.005,4.711-77.898
			c0.091-12.091-0.257-23.882,0.989-35.947c0.715-6.921,2.565-15.556-0.063-22.296c2.812,0.171,5.603-0.055,7.647-1.587
			C514.001,276.829,512.096,264.628,509.193,259.374z M479.816,249.358c-15.931-0.454-31.871,0.024-47.803-0.618
			c-16.422-0.662-32.841-1.385-49.284-1.396c-5.848-0.004-11.678,0.157-17.512-0.049c0.914-4.719,1.87-11.004,4.262-14.236
			c2.686-3.627,11.59-2.131,16.45-2.092c14.372,0.114,28.724,0.7,43.097,0.63c12.827-0.063,26.228-0.786,38.981,0.536
			C482.376,233.622,476.952,242.913,479.816,249.358z M10.933,239.787c-0.194-22.56-1.88-45.062-1.874-67.63
			c0.007-22.658,1.49-45.1,3.88-67.623c1.24-11.682,1.663-29.248,8.793-39.072c8.289-11.421,28.156-12.572,41.129-13.308
			c57.657-3.269,115.176-5.379,172.951-5.814c48.599-0.366,96.959,2.885,145.587,1.325c23.126,1.102,48.733-1.096,70.669,6.616
			c5.307,1.866,13.035,4.88,16.101,10.138c2.751,4.718,2.69,11.328,2.968,16.57c0.697,13.099,1.311,26.167,2.088,39.25
			c1.547,26.083-1.443,52.441-1.541,78.542c-0.032,8.588-0.335,17.14-0.794,25.678c-17.281-1.002-34.744-0.163-52.059-0.386
			c-9.854-0.127-19.646-0.579-29.507-0.59c-6.029-0.007-14.837-1.442-20.751,0.521c-7.604,2.523-9.626,14.958-8.667,22.987
			c-4.237-0.409-9.811-1.334-13.587,0.622c-6.576,3.405-4.87,13.19-2.104,18.981c2.177,4.557,5.61,5.953,9.538,6.018
			c-2.916,6.828,0.507,17.204,0.691,23.665c0.065,2.279,0.188,4.545,0.296,6.814c-0.802-0.018-1.604-0.031-2.406-0.058
			c-38.585-1.286-77.201-1.112-115.807-1.63c-19.098-0.256-38.092-2.703-57.189-2.77c-21.065-0.075-42.131,0.139-63.196,0.192
			c-18.768,0.047-37.518,0.001-56.259,1.098c-16.205,0.948-32.651,3.582-48.906,3.154C10.37,282.043,11.113,260.706,10.933,239.787z
			 M329.563,432.547c3.18,0.959,10.366,2.997,10.2,7.518c-0.045,1.214-0.815,2.271-1.618,3.183
			c-5.331,6.053-9.689,4.985-17.122,4.991c-31.103,0.024-62.153,0.411-93.255,0.433c-15.359,0.011-30.678,0.063-46.025,0.515
			c-11.147,0.328-30.199,2.848-40.12-3.041c-11.66-6.921,2.824-12.817,9.539-13.63c15.499-1.875,31.167,0.759,46.491,2.93
			c14.865,2.106,29.821,2.17,44.811,1.911c11.74-0.203,23.552,0.243,35.261-0.457C294.677,435.887,312.453,428.131,329.563,432.547z
			 M174.478,373.209c34.124,0.483,68.247,1.012,102.386,1.3c8.915,0.075,17.85,0.059,26.791,0.036
			c0.187,6.535,0.675,13.112,0.791,19.64c0.218,12.198,2.673,24.615-11.21,29.712c-15.733,5.777-35.929,3.216-52.576,3.442
			c-17.413,0.237-35.768,0.684-52.704-3.894c-8.034-2.172-10.588-3.383-11.853-11.654c-0.54-3.535-0.469-7.146-0.568-10.71
			C175.276,391.798,175.28,382.468,174.478,373.209z M309.685,364.553c-0.854-0.214-1.763-0.205-2.617,0.026
			c-3.67,0.054-7.337,0.133-11.001,0.265c-51.391,1.863-103.183-1.893-154.615-1.863c-26.431,0.015-52.86-0.725-79.266-1.831
			c-12.255-0.513-27.061-1.271-38.231-7.007c-13.674-7.021-11.551-24.166-12.386-37.434c-0.135-2.145-0.225-4.301-0.323-6.455
			c14.737,1.443,30.018-1.286,44.715-2.091c18.645-1.022,37.263-1.09,55.931-1.043c21.083,0.053,42.166-0.045,63.249,0.018
			c19.854,0.059,39.559,2.445,59.4,2.868c39.271,0.837,78.541,0.475,117.795,1.852c0.965,0.034,1.929,0.052,2.893,0.074
			c0.129,1.995,0.246,3.992,0.388,5.986c-0.19,12.962-0.163,25.934,0.406,38.973c0.117,2.686,0.194,5.372,0.271,8.057
			C340.764,364.761,325.208,364.39,309.685,364.553z M481.079,437.394c-1.192,5.089-2.568,10.102-4.34,15.02
			c-2.308,6.405-3.527,8.634-10.242,9.426c-8.537,1.007-17.793,1.974-26.385,1.872c-10.363-0.124-21.793-0.246-32.058-1.702
			c-8.108-1.15-17.011-1.754-24.863-4.083c-8.325-2.47-13.5-7.437-14.361-16.176c-0.612-6.2-0.627-12.33-0.61-18.551
			c0.016-5.524-0.068-11.064-0.199-16.609c5.573,0.966,11.458,0.881,17.053,0.964c13.326,0.199,26.654,0.179,39.98,0.223
			c12.485,0.041,24.953,0.575,37.433,0.609c7.5,0.021,15.548,0.739,23.28,0.474C484.802,418.463,483.283,427.984,481.079,437.394z
			 M486.454,401.101c-7.931,0.307-16.278-0.416-23.966-0.435c-12.484-0.031-24.945-0.536-37.433-0.495
			c-19.067,0.063-38.166,0.14-57.206,0.149c-0.592-18.708-1.798-37.476-2.844-56.078c-0.069-1.224-0.118-2.449-0.181-3.673
			c2.551,0.124,5.289-0.272,6.811-0.342c14.592-0.673,29.191-1.375,43.796-1.409c15.083-0.035,30.193,0.568,45.249-0.378
			c9.41-0.591,19.306-0.209,28.739-1.373c0.004,1.258,0.021,2.514,0.007,3.776C489.206,361,487.931,381.004,486.454,401.101z
			 M489.747,312.775c-0.449,5.584-0.436,11.134-0.377,16.692c-21.02-0.461-42.346,1.904-63.387,1.999
			c-11.427,0.052-22.882,0.208-34.296,0.59c-6.63,0.222-13.455,0.889-20.051,1.616c-1.353,0.149-4.861,0.245-7.107,0.868
			c-0.51-11.442-0.868-22.876-1.602-34.284c0.009-1.325,0.009-2.65-0.028-3.978c-0.123-4.423-1.934-10.954-0.64-15.132
			c2.585-8.343,19.072-5.609,26.647-5.156c10.481,0.626,21.013,0.91,31.501,1.42c9.301,0.452,18.586-0.069,27.887,0.562
			c7.475,0.508,16.048,0.715,24.089,1.832c0.014,0.002,0.021,0.01,0.034,0.012c0.112,0.016,0.224,0.026,0.335,0.041
			c3.736,0.534,7.363,1.25,10.684,2.325C496.324,286.354,490.58,302.413,489.747,312.775z M504.657,270.66
			c-0.615,1.399-1.755,2.34-3.26,2.932c-7.68,3.02-24.878-3.03-30.46-3.602c-13.164-1.351-26.197-2.798-39.445-2.656
			c-13.479,0.144-27.121-0.649-40.594-1.223c-6.416-0.273-17.758-2.179-26.405-0.602c-4.612,0.841-12.052,1.989-14.349-2.843
			c-6.495-13.661,19.787-8.103,24.992-8.142c18.36-0.139,36.701,0.606,55.035,1.413c18.255,0.804,36.55,0.36,54.791,1.22
			C490.77,257.43,509.419,259.82,504.657,270.66z"/>
	</g>
</g>
<g>
	<g>
		<path d="M448.021,359.125c-5.089-9.332-18.468-11.866-27.313-6.552c-11.019,4.543-17.314,16.628-12.978,28.514
			c4.393,12.041,19.837,17.746,30.851,10.771C448.801,385.386,454.011,370.113,448.021,359.125z M437.066,384.566
			c-7.882,6.337-19.419,4.095-23.411-5.552c-3.103-7.5-0.31-15.112,5.331-19.981c7.475-3.307,18.867-4.943,23.328,3.429
			C446.012,369.402,442.949,379.836,437.066,384.566z"/>
	</g>
</g>
<g>
	<g>
		<path d="M203.17,95.424c-7.504-10.608-22.943-4.875-33.175-2.103c-12.267,3.323-23.526,8.661-34.681,14.417
			c-1.141-2.213-2.292-4.423-3.455-6.635c-4.727-8.991-13.29-22.96-23.853-12.988c-10.99,10.375-17.445,24.547-25.099,37.377
			c-6.029,10.108-18.637,29.762-15.521,42.469c3.174,12.944,20.508,13.462,31.19,13.746c15.227,0.406,35.729,3.098,48.972-6.27
			c5.176-3.661,6.448-9.215,6.086-15.127c10.217,6.115,29.516,18.352,42.06,15.276c12.944-3.174,13.462-20.508,13.746-31.19
			C209.847,129.169,212.538,108.667,203.17,95.424z M131.956,117.218c3.351,6.78,6.678,13.415,9.144,20.814
			c0.988,2.96,2.074,6.163,2.96,9.398c-8.678-4.179-28.091-13.138-23.782-21.822c1.107-2.231,4.501-4.222,6.46-5.495
			C128.41,119.026,130.169,118.096,131.956,117.218z M133.091,173.581c-11.478,2.516-24.254,1.569-35.976,1.148
			c-4.879-0.175-10.613-0.401-15.258-2.184c-10.733-4.119-7.448-11.941-4.511-20.021c4.357-11.984,10.969-22.38,16.886-33.554
			c3.294-6.222,13.389-31.258,23.132-26.423c2.231,1.107,4.222,4.501,5.495,6.46c2.434,3.744,4.14,7.901,6.033,11.909
			c0.021,0.045,0.043,0.089,0.064,0.134c-0.042,0.022-0.084,0.044-0.126,0.066c-5.921,3.113-20.461,11.026-16.289,19.577
			c0.78,1.598,2.457,2.904,4.242,4.126c6.949,8.905,18.565,15.23,28.922,20.97C146.501,163.984,144.114,171.165,133.091,173.581z
			 M202.462,145.858c-0.175,4.879-0.401,10.614-2.184,15.258c-4.12,10.732-11.942,7.447-20.022,4.509
			c-9.986-3.63-18.873-8.826-28.024-13.881c-0.815-3.374-1.809-6.633-2.581-9.482c-2.675-9.874-6.663-19.092-11.114-28.131
			c0.037-0.017,0.075-0.034,0.111-0.051c9.089-4.294,17.448-8.987,27.117-12.209c13.266-4.422,31.406-10.887,35.549,8.011
			C203.83,121.36,202.883,134.136,202.462,145.858z"/>
	</g>
</g>
<g>
	<g>
		<path d="M211.028,195.619c-44.915-2.273-91.054-1.344-135.991,0.361c-2.678,0.102-2.682,4.062,0,4.164
			c44.937,1.705,91.076,2.634,135.991,0.361C214.17,200.346,214.175,195.778,211.028,195.619z"/>
	</g>
</g>
<g>
	<g>
		<path d="M211.028,212.687c-44.915-2.273-91.054-1.344-135.991,0.361c-2.678,0.102-2.682,4.062,0,4.164
			c44.937,1.706,91.076,2.634,135.991,0.361C214.17,217.414,214.175,212.846,211.028,212.687z"/>
	</g>
</g>
<g>
	<g>
		<path d="M211.028,229.754c-44.915-2.273-91.054-1.344-135.991,0.361c-2.678,0.102-2.682,4.062,0,4.164
			c44.937,1.705,91.076,2.634,135.991,0.361C214.17,234.482,214.175,229.914,211.028,229.754z"/>
	</g>
</g>
<g>
	<g>
		<path d="M211.028,246.822c-44.915-2.273-91.054-1.344-135.991,0.361c-2.678,0.102-2.682,4.062,0,4.164
			c44.937,1.705,91.076,2.634,135.991,0.361C214.17,251.549,214.175,246.981,211.028,246.822z"/>
	</g>
</g>
<g>
	<g>
		<path d="M211.028,263.89c-44.915-2.273-91.054-1.344-135.991,0.361c-2.678,0.102-2.682,4.062,0,4.164
			c44.937,1.706,91.076,2.634,135.991,0.361C214.17,268.617,214.175,264.049,211.028,263.89z"/>
	</g>
</g>
<g>
	<g>
		<path d="M316.072,167.866c-1.769-5.249-7.939-9.942-12.202-13.055c-0.508-0.371-3.354-2.014-3.557-2.496
			c-1.709-0.495-1.855-0.696-0.436-0.605c1.008-1.364,1.9-2.801,2.675-4.313c5.446-9.517,4.096-14.715-6.48-18.738
			c-7.176-2.729-14.934-3.268-22.295-5.361c-7.482-2.127-14.51-5.637-22.176-7.166c-9.324-1.854-4.933,17.428-4.685,21.251
			c0.643,9.893,1.787,22.148,2.017,23.88c0.725,5.461-0.295,19.849,8.322,19.67c5.874-0.126,11.205-6.184,14.97-10.055
			c0.698,0.255,1.129,0.771,1.484,1.436c2.82,5.296,8.17,10.079,11.968,14.642c2.653,3.189,6.564,11.165,11.885,7.788
			c2.533-1.607,4.643-5.058,6.776-7.223c2.803-2.845,5.653-5.656,8.192-8.745C315.386,175.301,317.587,172.36,316.072,167.866z
			 M303.89,177.948c-2.45,2.42-5.376,6.632-8.221,8.357c-0.448,0.272-0.774,0.496-1.01,0.681c-0.1-0.133-0.275-0.277-0.575-0.427
			c-2.603-1.295-5.996-6.926-7.88-9.18c-3.409-4.08-6.904-10.6-11.573-13.505c-1.005-0.625-2.316-0.568-3.325,0
			c-3.794,2.136-7.045,7.109-11.182,8.356c-3.848,1.16-1.92,2.432-3.399-2.219c-1.155-3.632-1.399-10.197-1.866-13.406
			c-1.479-10.161-1.734-21.071-4.218-31.121c0.058-1.202,0.284-2.078,0.769-2.421c2.426-1.714,19.15,6.501,22.237,7.313
			c6.296,1.656,16.775,1.456,22.02,5.599c6.324,4.994-2.441,10.911-3.735,16.609c-0.26,1.145-0.06,2.568,0.893,3.378
			c3.895,3.312,8.792,5.006,12.389,8.983C310.515,170.807,309.038,172.864,303.89,177.948z"/>
	</g>
</g>
<g>
	<g>
		<path d="M428.546,131.389c0.017-14.196,1.481-31.016-2.747-44.71c-3.573-11.572-15.858-13.363-26.648-14.473
			c-13.606-1.399-23.285,0.426-24.411,15.025c-0.312,4.045-0.583,8.247-0.793,12.51c-0.059,0.243-0.073,0.484-0.034,0.726
			c-0.465,9.859-0.55,20.052,0.252,29.606c-1.294,17.688-2.303,35.39-2.041,53.242c0.155,10.734,0.527,23.15,11.783,28.164
			c5.173,2.304,10.809,2.008,16.32,2.082c5.609,0.076,12.016,1.83,17.305-0.748c10.618-5.176,10.67-21.396,11.453-31.393
			C430.3,164.622,428.527,148.182,428.546,131.389z M383.467,81.256c5.466-6.46,17.342-2.628,24.35-0.821
			c9.55,2.463,12.086,7.761,13.018,16.352c-6.358-1.745-14.409,0.779-20.838,0.445c-5.888-0.306-12.866-1.229-19.119-0.341
			C380.494,91.362,379.948,85.416,383.467,81.256z M381.029,102.664c0.001-0.018,0-0.037,0.002-0.055
			c5.81,0.308,11.773-0.056,17.514,0.285c7.616,0.453,15.092-0.487,22.651-0.914c0.306,6.205,0.2,12.453,0.397,18.666
			c-6.768-1.201-15.043,0.167-21.77,0.21c-6.648,0.043-13.285,0.09-19.933,0.292C380.158,114.981,380.658,108.825,381.029,102.664z
			 M379.702,129.137c-0.004-1.216,0.041-2.43,0.067-3.645c5.764,0.59,11.059,1.104,17.053,0.909
			c7.771-0.254,17.293-1.055,25.006-0.073c0.297,6.302,0.633,12.669,0.894,19.031c-0.036-0.014-0.058-0.039-0.095-0.052
			c-5.189-1.803-10.779-0.444-16.196-0.276c-9.038,0.28-17.985,0.799-26.97,1.634C379.6,140.823,379.72,134.982,379.702,129.137z
			 M421.01,191.875c-1.645,10.083-6.283,15.373-17.338,14.837c-10.293-0.499-21.451,1.775-23.924-11.987
			c-1.14-6.345-0.829-13.218-0.768-19.721c7.142,1.579,14.923,0.064,22.194,0.558c7.12,0.483,14.356,2.099,21.504,1.694
			C422.326,182.18,421.789,187.099,421.01,191.875z M423.007,171.559c-14.413-0.505-29.776-3.644-43.997-0.044
			c0.018-6.709,0.175-13.411,0.344-20.109c13.874,1.032,28.904-0.103,42.542-0.693c0.373-0.016,0.702-0.098,1-0.217
			c0.168,5.077,0.289,10.144,0.257,15.157C423.14,167.606,423.085,169.58,423.007,171.559z"/>
	</g>
</g>
<g>
</g>
<g>
</g>
<g>
</g>
<g>
</g>
<g>
</g>
<g>
</g>
<g>
</g>
<g>
</g>
<g>
</g>
<g>
</g>
<g>
</g>
<g>
</g>
<g>
</g>
<g>
</g>
<g>
</g>
</svg>
