<svg id="Capa_1" enable-background="new 0 0 512 512" height="512" viewBox="0 0 512 512" width="512" xmlns="http://www.w3.org/2000/svg"><g><g><path d="m510.958 306.317c-.672-.663-1.578-1.039-2.527-1.008l-83.341 1.65c-1.753.035-3.21 1.361-3.408 3.104l-3.349 29.393c-7.183-.218-25.291-.755-43.251-1.194-13.517-.331-24.309-.541-32.078-.626-4.634-.052-8.239-.058-10.717-.019-.401.006-.777.013-1.141.02l1.271-35.934 8.215-.122c1.804-.026 3.292-1.42 3.437-3.218l2.063-25.58c.079-.984-.261-1.957-.937-2.676-.677-.721-1.627-1.145-2.612-1.105l-169.159 2.888c-1.91.033-3.44 1.59-3.44 3.499v25.168c0 .938.376 1.836 1.044 2.493.655.646 1.538 1.007 2.456 1.007h.052l11.326-.168.254 25.355c-29.768.5-82.737 1.387-96.027 1.599l1.249-24.33c.049-.958-.297-1.894-.958-2.59-.661-.695-1.578-1.089-2.538-1.089h-82.517c-1.927 0-3.492 1.558-3.5 3.485l-.825 199.276c-.008 1.908 1.514 3.471 3.421 3.514l73.027 1.65c.023 0 .046.001.069.001h.001l112.954.274c.29.08.589.137.904.139l131.201.825h.022c.015 0 .031 0 .046-.001l93.602-1.237 91.982.825h.031c.918 0 1.801-.361 2.456-1.006.663-.653 1.038-1.542 1.044-2.472l1.24-199.276c.006-.945-.37-1.851-1.042-2.514zm-36.268 29.972.456 19.569-24.303.474-.117-19.987zm-24.005-6.945-.093-15.888 23.555-.466.38 16.299zm25.704 79.867-25.233.493-.118-20.169c8.271-.71 16.561-1.271 24.854-1.662zm6.498-21.624c7.218-.262 14.431-.408 21.626-.426l-.134 21.585c-.237-.046-.482-.071-.733-.068l-20.258.396zm-6.335 28.623.445 19.096-25.689.373-.111-18.974zm6.999-.137 20.232-.395c.19-.004.373-.034.554-.067l-.12 19.3-20.221.294zm21.006-35.912c-7.264.017-14.546.164-21.833.427l-.416-17.868 22.36-.436zm-28.828.714c-8.252.387-16.501.937-24.732 1.637l-.112-19.18 24.425-.476zm-31.729 2.259c-6.906.662-13.793 1.434-20.65 2.314l.814-21.595 19.721-.384zm-20.916 9.369c.005 0 .011.001.016.001.15 0 .301-.01.454-.029 6.802-.881 13.635-1.654 20.487-2.317l.115 19.683-21.741.425zm-.933 24.77 22.047-.431.111 18.939-22.867.332zm-1.953 51.818 24.306.232.093 15.852-25.014.225zm.263-6.998.715-18.975 23.172-.337.114 19.54zm30.887-19.414 25.811-.375.474 20.333-26.17-.249zm32.811-.477 20.014-.291-.13 20.977-19.406-.185zm20.552-86.921-22.567.44-.453-19.449 23.138-.054zm-60.867 1.187-19.416.379.51-13.529.788-6.915 18.001-.042zm-24.525 135.935 25.319-.228.069 11.85-25.817-.232zm32.319-.291 26.677-.24.29 12.457-26.897-.241zm-.041-7-.092-15.723 26.292.25.355 15.234zm33.203-15.406 19.2.183-.092 14.752-18.756.169zm20.073-140.487-23.344.054-.383-16.422 23.832-.472zm-61.28-15.624.092 15.766-17.162.04 1.766-15.503zm-31.709 190.21-22.774.301 3.539-158.388c8.788.238 17.438.488 25.165.725zm-28.771-44.626-25.705 1.581.262-18.563 25.854-1.388zm-25.085-42.495 26.022.537-.37 16.568-25.912 1.391zm26.179-6.46-26.08-.538.243-17.249 25.88 1.214c.056.002.111.004.167.004.055 0 .106-.013.16-.016zm-26.899 57.555 25.647-1.578-.344 15.396c-8.498-.758-17.068-.514-25.508.711zm27.425-81.098c-.052-.005-.101-.02-.155-.023l-26.109-1.224.212-15.031 25.901.909c.042.001.083.002.125.002.127 0 .247-.023.37-.036zm-27.729 102.716c8.353-1.306 16.851-1.583 25.271-.806.061.006.12-.004.181-.002l-.349 15.609-25.316.335zm28.648-143.865-.421 18.839c-.134-.02-.265-.05-.404-.055l-26.048-.914.261-18.496c8.191.166 17.363.385 26.612.626zm-33.611-.76-2.252 159.853-24.56.325 5.669-160.313c3.52-.108 11.253-.039 21.143.135zm-33.818 160.205-22.295-.14 9.413-202.732 20.067-.297zm-71.317-202.007 28.211-.418-6.01 202.116-22.397-.141zm-7.195 201.513-22.992-.145-.423-200.915 23.61-.35zm42.413-202.035 16.204-.24-9.406 202.585-12.813-.081zm-105.141-23.617 161.86-2.764-1.497 18.562-160.363 2.376zm32.313 24.696.423 200.767-15.854-.1-2.004-200.409zm-123.641 94.182 25.626-.768c.183 7.547.366 15.042.548 22.463.001.052.003.105.004.158l-27.312.238zm-1.493 29.094 27.842-.243c.202 8.254.405 16.582.607 24.978l-29.779 1.177zm34.843-.304 21.744-.19c.362 7.968.729 15.999 1.107 24.072l-22.25.88c-.2-8.323-.401-16.578-.601-24.762zm28.748-.25 15.05-.131c.161 7.758.323 15.572.484 23.417l-14.437.571c-.374-8-.738-15.959-1.097-23.857zm22.051-.192 16.278-.142.227 22.71-16.025.634c-.16-7.773-.32-15.515-.48-23.202zm16.207-7.142-16.353.143c-.164-7.891-.329-15.854-.494-23.85l16.605-.497zm-23.353.203-15.223.133c-.35-7.726-.706-15.524-1.069-23.361l15.801-.473c.164 7.946.328 15.859.491 23.701zm-22.227.194-21.597.188c-.002-.089-.004-.179-.007-.268-.182-7.434-.366-14.942-.549-22.501l21.09-.632c.361 7.787.715 15.535 1.063 23.213zm-57.96 40.423 30.307-1.198c.141 5.934.281 11.896.418 17.882l-31.602.409zm37.302-1.475 22.414-.886c.296 6.21.599 12.432.913 18.657l-22.904.296c-.139-6.047-.28-12.072-.423-18.067zm29.409-1.163 14.249-.563c.131 6.41.261 12.824.389 19.229l-13.715.178c-.318-6.288-.624-12.571-.923-18.844zm21.245-.84 15.951-.631.198 19.842-15.757.204c-.128-6.467-.26-12.943-.392-19.415zm15.272-68.549-16.68.5c-.172-8.398-.343-16.815-.51-25.211l16.937-.543zm-23.676.71-15.982.479c-.393-8.357-.801-16.748-1.227-25.139l16.7-.536c.166 8.391.337 16.803.509 25.196zm-17.567-31.652c-.345-6.621-.706-13.233-1.081-19.821 6.161-.103 12.165-.203 17.622-.295.122 6.489.248 13.017.377 19.574zm-6.998.224-20.104.645c-.153-6.725-.303-13.478-.449-20.249 6.188-.103 12.832-.214 19.465-.324.379 6.622.741 13.27 1.088 19.928zm.357 6.992c.425 8.384.834 16.771 1.227 25.124l-20.933.627c-.2-8.309-.399-16.681-.593-25.1zm-26.703 25.961-25.096.752 1.288-25.092 23.215-.745c.195 8.414.393 16.781.593 25.085zm-29.878 93.889 32.122-.416c.151 6.653.298 13.33.441 20.026.003.14.03.273.049.408l-33.636-.082zm39.122-.506 23.101-.299c.362 6.981.739 13.952 1.134 20.899l-23.841-.058c.027-.188.05-.378.046-.574-.143-6.678-.29-13.335-.44-19.968zm30.106-.39 13.497-.175c.14 7.106.277 14.184.41 21.212l-12.766-.031c-.398-6.98-.777-13.988-1.141-21.006zm20.497-.265 15.688-.203.216 21.56-15.492-.038c-.134-7.063-.271-14.177-.412-21.319zm14.418-127.218-17.006.546c-.128-6.521-.253-13.013-.375-19.466 8.951-.15 15.476-.26 17.189-.289zm-75.47-17.951c.146 6.808.297 13.597.451 20.358l-22.695.728 1.065-20.739c3.899-.062 11.667-.189 21.179-.347zm-36.701 166.182-14.317-.324 3.357-193.528h20.911zm-44.727-193.851h26.766l-3.354 193.369-19.243-.435c-4.629-63.946-6.028-128.835-4.169-192.934zm-20.668 0h13.666c-1.851 64.047-.459 128.876 4.143 192.776l-18.605-.42zm477.797 194.558-.293-12.582 18.55-.167-.08 12.912z"/><path d="m149.543 189.998c8.342 5.225 21.365.614 22.365-9.808l16.8.224c.016.001.032.001.048.001 1.867 0 3.409-1.468 3.495-3.338l.942-20.359c.084-1.818-1.239-3.397-3.045-3.632l-21.022-2.735-8.538-25.266c-.478-1.414-1.8-2.369-3.292-2.379l-55.235-.377c-.008 0-.016 0-.024 0-1.833 0-3.358 1.416-3.49 3.247l-1.867 25.785-21.651 2.665c-1.782.219-3.109 1.752-3.071 3.547l.378 17.909c.039 1.886 1.566 3.401 3.452 3.426l12.051.161c1.412 16.312 27.705 16.495 29.598.395l25.713.343c.453 4.337 2.705 7.977 6.393 10.191zm-55.455-17.848c.435-4.171-.089-9.024-1.402-13.247 16.285-1.523 61.352-2.2 77.912-1.303-1.301 4.867-1.919 10.608-.755 15.562zm67.809 11.889c-4.14 2.248-10.351 1.273-11.655-4.139l14.578.195c-.505 2.083-1.788 3.279-2.923 3.944zm23.518-10.669-8.216-.11c-1.633-3.911-1.037-9.838.416-14.747l8.437 1.098zm-23.76-23.263-27.387.388-.706-20.953 21.193.145zm-35.098-20.612.711 21.1-23.538.333 1.562-21.578zm-47.534 31.09 6.574-.809c1.403 3.739 1.984 8.583 1.454 12.28l-7.789-.104zm28.329 22.732c-4.35 2.45-10.867 1.572-12.386-4.155l15.353.205c-.553 2.038-1.83 3.254-2.967 3.95z"/><path d="m351.28 252 12.052.161c1.411 16.312 27.705 16.495 29.597.395l25.713.343c1.156 16.026 27.165 16.33 28.759.384l16.8.224c.016.001.032.001.048.001 1.867 0 3.409-1.468 3.495-3.338l.942-20.36c.085-1.818-1.239-3.397-3.044-3.632l-21.022-2.734-8.538-25.266c-.478-1.414-1.8-2.369-3.292-2.379l-55.235-.377c-1.842.027-3.382 1.408-3.515 3.247l-1.866 25.785-21.651 2.665c-1.782.219-3.109 1.752-3.071 3.547l.377 17.909c.038 1.885 1.565 3.4 3.451 3.425zm16.899-20.002c23.53-1.709 54.275-2.089 77.912-1.304-1.301 4.867-1.919 10.608-.755 15.562l-75.756-1.012c.435-4.17-.088-9.024-1.401-13.246zm14.666 24.413c-4.35 2.451-10.867 1.572-12.385-4.155l15.352.205c-.553 2.038-1.83 3.253-2.967 3.95zm54.545.722c-4.141 2.248-10.35 1.273-11.654-4.138l14.578.195c-.507 2.082-1.789 3.278-2.924 3.943zm23.518-10.669-8.216-.11c-1.633-3.911-1.037-9.838.416-14.747l8.437 1.097zm-23.76-23.262-26.204.371-.394-20.926 19.697.135zm-33.6-20.603.396 21.073-24.721.35 1.562-21.579zm-42.458 30.271c1.403 3.74 1.984 8.583 1.454 12.28l-7.789-.104-.239-11.367z"/><path d="m256.008 171.692h.016l14.786-.067c2.409 9.723 10.861 14.017 18.567 14.017.218 0 .436-.003.653-.01 7.61-.24 15.892-4.729 18.104-14.175l40.549-.184c1.619 10.596 10.546 15.614 18.598 15.773.133.002.265.004.398.004 8.182 0 17.303-4.966 18.949-15.949l21.458-.097c1-.004 1.95-.436 2.611-1.187s.969-1.748.847-2.74l-7.121-57.885c-.212-1.729-1.665-3.039-3.408-3.072l-109.337-2.067c-1.001-.037-1.928.377-2.605 1.089l-34.685 36.522c-.586.617-.927 1.427-.96 2.277l-.919 24.118c-.111 1.927 1.57 3.673 3.499 3.633zm33.8 6.943c-4.248.143-9.532-1.692-11.683-7.043l22.675-.103c-1.982 5.016-6.909 7.017-10.992 7.146zm77.61 1.411c-4.989-.098-10.175-2.88-11.606-8.807l23.697-.107c-1.476 6.268-6.96 9.009-12.091 8.914zm-86.351-56.05 7.192.72-4.175 13.393-15.17-1.577 11.945-12.578c.072.012.137.035.208.042zm-20.693 21.53 2.484-2.615c.365.127 22.986 2.388 23.354 2.457 1.634.176 3.212-.844 3.703-2.44l6.305-20.225c.691-2.036-.848-4.363-2.993-4.524l-6.284-.629 6.145-6.47 104.758 1.98 6.269 50.961-144.471.654z"/><path d="m325.543 117.956-16.143-.778c-1.96-.135-3.747 1.593-3.668 3.559l.389 21.589c.033 1.84 1.486 3.341 3.325 3.433l15.56.778c1.926.138 3.698-1.531 3.675-3.464l.194-21.589c.016-1.88-1.455-3.437-3.332-3.528zm-3.83 21.408-8.652-.433-.262-14.58 9.045.436z"/><path d="m353.637 119.21-16.143-.778c-1.959-.131-3.747 1.59-3.668 3.559l.389 21.588c.033 1.84 1.486 3.341 3.325 3.433l15.559.778c1.927.138 3.698-1.53 3.675-3.464l.195-21.589c.016-1.879-1.455-3.436-3.332-3.527zm-3.83 21.407-8.652-.433-.263-14.581 9.046.436z"/><path d="m382.746 118.432-16.143-.778c-1.959-.132-3.747 1.591-3.668 3.559l.389 21.589c.033 1.84 1.486 3.341 3.325 3.433l15.56.778c1.926.138 3.698-1.531 3.675-3.464l.194-21.588c.016-1.881-1.455-3.438-3.332-3.529zm-3.83 21.407-8.652-.433-.263-14.58 9.046.436z"/><path d="m42.155 75.311 21.458.167c1.611 10.989 10.715 15.984 18.897 16.011.133 0 .266 0 .398-.003 8.052-.132 16.996-5.121 18.65-15.712l40.549.316c2.181 9.454 10.449 13.97 18.058 14.235.217.007.434.012.652.012 7.705.025 16.171-4.242 18.612-13.956l14.785.115h.016c.948.003 1.858-.379 2.52-1.059.665-.684 1.023-1.609.99-2.563l-.84-24.121c-.03-.851-.368-1.661-.952-2.28l-34.567-36.635c-.675-.715-1.602-1.12-2.601-1.098l-109.343 1.71c-1.742.028-3.199 1.332-3.417 3.061l-7.31 57.861c-.125.992.18 1.99.838 2.743s1.607 1.188 2.607 1.196zm40.637 9.176c-5.117.075-10.604-2.681-12.061-8.954l23.696.185c-1.45 5.923-6.646 8.687-11.635 8.769zm77.615-1.158c-4.082-.142-9.002-2.159-10.969-7.182l22.674.177c-2.169 5.342-7.464 7.15-11.705 7.005zm9.126-54.65 11.904 12.617-15.175 1.527-4.131-13.406 7.195-.696c.072-.008.137-.031.207-.042zm-116.949-11.277 104.764-1.639 6.124 6.491-6.287.608c-2.145.154-3.691 2.475-3.007 4.514l6.239 20.246c.455 1.476 1.815 2.464 3.331 2.469.121 0 .242-.005.364-.017l23.07-2.321c.101-.01.194-.041.293-.06l2.475 2.623.667 19.152-144.469-1.126z"/><path d="m141.016 21.809-16.146.725c-1.878.085-3.354 1.637-3.343 3.517l.124 21.589c-.03 1.933 1.736 3.608 3.663 3.476l15.562-.727c1.839-.086 3.297-1.582 3.336-3.422l.46-21.587c.083-1.968-1.691-3.695-3.656-3.571zm-3.733 21.741-8.654.404-.083-14.577 9.047-.406z"/><path d="m112.918 22.971-16.145.725c-1.878.085-3.354 1.637-3.343 3.517l.124 21.59c-.03 1.933 1.736 3.608 3.663 3.476l15.562-.727c1.839-.086 3.297-1.582 3.336-3.422l.459-21.587c.021-.968-.361-1.902-1.054-2.578-.692-.678-1.629-1.036-2.602-.994zm-3.732 21.74-8.654.404-.083-14.578 9.047-.406z"/><path d="m83.812 22.098-16.145.725c-1.878.085-3.353 1.637-3.343 3.517l.124 21.589c.006.953.4 1.863 1.091 2.519.649.616 1.507.958 2.398.961.058 0 .117-.001.175-.004l15.562-.727c1.839-.086 3.297-1.582 3.336-3.422l.459-21.587c.082-1.967-1.693-3.699-3.657-3.571zm-3.732 21.74-8.654.404-.083-14.577 9.047-.406z"/><path d="m475.337 128.105c0-1.933-1.567-3.5-3.5-3.5h-46.237c-1.933 0-3.5 1.567-3.5 3.5s1.567 3.5 3.5 3.5h46.237c1.934 0 3.5-1.567 3.5-3.5z"/><path d="m487.533 130.49h.01l16.968-.05c1.933-.006 3.496-1.577 3.49-3.51-.006-1.934-1.55-3.481-3.51-3.49l-16.968.05c-1.933.006-3.496 1.577-3.49 3.51.006 1.93 1.571 3.49 3.5 3.49z"/><path d="m434.565 150.346 26.3-.424c1.933-.031 3.475-1.623 3.443-3.556-.031-1.933-1.625-3.489-3.556-3.443l-26.3.424c-1.933.031-3.475 1.623-3.443 3.556.031 1.914 1.591 3.444 3.499 3.444.019-.001.038-.001.057-.001z"/><path d="m345.428 213.952c1.916 0 3.479-1.543 3.499-3.464.02-1.933-1.531-3.516-3.464-3.536l-67.019-.692c-1.913-.006-3.516 1.53-3.536 3.464-.02 1.933 1.531 3.516 3.464 3.536l67.019.692z"/><path d="m279.254 225.563c-1.933 0-3.5 1.567-3.5 3.5s1.567 3.5 3.5 3.5h25.876c1.933 0 3.5-1.567 3.5-3.5s-1.567-3.5-3.5-3.5z"/><path d="m248.712 233.836h10.181c1.933 0 3.5-1.567 3.5-3.5s-1.567-3.5-3.5-3.5h-10.181c-1.933 0-3.5 1.567-3.5 3.5s1.567 3.5 3.5 3.5z"/><path d="m32.402 140.795 43.692-.367c1.933-.016 3.487-1.596 3.471-3.529-.016-1.923-1.58-3.471-3.499-3.471-.01 0-.02 0-.03 0l-43.692.367c-1.933.017-3.487 1.597-3.471 3.529.016 1.923 1.58 3.471 3.5 3.471z"/><path d="m17.01 150.467c.146 1.833 1.678 3.224 3.485 3.224.093 0 .186-.003.28-.011l16.54-1.31c1.927-.153 3.365-1.839 3.213-3.766-.153-1.927-1.843-3.356-3.766-3.213l-16.54 1.31c-1.926.153-3.365 1.838-3.212 3.766z"/><path d="m10.309 39.488c.069 0 .139-.002.209-.006l21.634-1.273c1.93-.114 3.402-1.77 3.288-3.7s-1.774-3.396-3.7-3.289l-21.634 1.273c-1.93.114-3.402 1.77-3.289 3.7.111 1.86 1.653 3.295 3.492 3.295z"/><path d="m9.459 52.664c.134 0 .269-.008.405-.023l14.845-1.712c1.92-.221 3.297-1.958 3.076-3.878s-1.958-3.298-3.878-3.076l-14.844 1.711c-1.92.222-3.297 1.958-3.076 3.878.205 1.784 1.719 3.1 3.472 3.1z"/><path d="m12.536 254.562c-14.601 24.839 21.641 25.148 38.942 23.531 11.062-1.034 67.892-1.386 79.89-1.819 6.508-2.152 6.29-12.264 4.955-18.308-4.995-18.597-26.022-19.088-40.989-11.524-6.877-39.737-55.525-47.253-58.12-.141-8.727-.708-19.456 1.898-24.678 8.261zm5.41 4.441c9.405-10.731 26.435-.95 26.245-8.723-.812-43.855 41.822-35.152 44.758 1.583.088 1.149.735 2.181 1.731 2.76s2.214.631 3.255.137c9.346-4.42 20.058-8.737 28.895-3.986 6.013 3.101 9.026 12.326 6.287 18.548-12.87.485-66.119 1.072-78.096 1.787-13.252.502-40.981 4.011-33.075-12.106z"/><path d="m317.915 71.604c.105.009.201.016.317.013 45.833-.221 90.787-.211 136.814 2.299 7.32.598 14.055-2.482 18.517-8.665 5.521-7.591 7.199-19.133 4.293-28.268-7.523-17.762-28.386-7.882-41.485-4.318-3.293-21.471-20.937-31.97-36.756-32.628-15.58-.658-33.748 8.077-39.117 28.545-6.813-2.684-14.615-2.22-21.677 1.443-7.347 3.812-12.323 10.275-13.857 17.759-7.546-.751-15.146 2.622-19.14 6.849-2.881 3.048-3.861 6.561-2.689 9.638 1.583 4.158 6.556 6.626 14.78 7.333zm-7.005-12.164c3.214-3.4 10.322-5.872 15.857-4.197 2.185.846 4.705-.9 4.707-3.161.244-6.614 4.195-12.537 10.57-15.844 6.33-3.285 13.394-3.129 18.926.41 2.059 1.529 5.206.113 5.48-2.328 3.031-19.67 18.705-27.878 32.873-27.29 14.175.59 29.1 10.075 30.486 29.934.094 1.912 1.922 3.459 3.822 3.241 12.405-.748 33.85-15.872 38.36 2.393.955 6.375-.535 13.649-4.09 18.536-3.095 4.255-7.247 6.205-12.346 5.801-.029-.003-.058-.004-.087-.006-35.781-1.953-70.866-2.4-106.207-2.4-10.271 0-20.566.038-30.902.087-7.593-1.131-10.487-1.867-7.449-5.176z"/></g></g></svg>