<svg id="Capa_1" enable-background="new 0 0 512 512" height="512" viewBox="0 0 512 512" width="512" xmlns="http://www.w3.org/2000/svg"><g><g><path d="m510.046 374.592-15.645-312.592c-.907-18.13-9.624-34.945-23.916-46.136l-14.749-11.549c-.947-.69-2.171-.934-3.292-.555l-197.076 67.518-189.366-71.064c-.755-.255-1.582-.298-2.344-.041l-8.558 2.875c-17.462 5.867-29.54 21.534-30.771 39.915l-22.303 333.099c-1.033 15.437 3.287 30.916 12.165 43.585 8.879 12.67 21.953 22.015 36.815 26.313l227.923 65.91c.78.219 1.609.153 2.357-.147l190.02-76.546c24.491-9.866 40.06-34.213 38.74-60.585zm-253.597-296.284 193.908-66.433 20.322 343.638c1.406 23.779-12.535 45.633-34.691 54.38l-156.493 61.791-190.888-54.637c-27.484-7.867-46.03-34.279-44.096-62.801l23.436-345.826 186.138 69.853c.76.285 1.596.297 2.364.035zm-247.438 298.221 22.302-333.099c1.041-15.54 11.253-28.786 26.017-33.746l3.596-1.209-23.4 345.297c-2.155 31.794 18.518 61.235 49.155 70.004l189.512 54.243.177 25.824-223.419-64.608c-27.364-7.913-45.843-34.285-43.94-62.706zm459.679 52.155-185.324 74.655-.175-25.589 155.367-61.346c24.977-9.862 40.693-34.498 39.108-61.304l-20.135-340.489 8.639 6.765c12.693 9.939 20.435 24.873 21.24 40.974l15.645 312.592c1.171 23.393-12.64 44.99-34.365 53.742z"/><path d="m58.883 334.493c-1.679 25.933 14.166 50.359 38.531 59.397l181.044 67.164c.871.323 1.836.287 2.682-.103l143.851-66.285c21.206-9.771 34.358-31.986 32.726-55.279l-21.324-304.39c-.076-1.086-.653-2.074-1.561-2.675-.909-.6-2.043-.745-3.073-.389l-173.716 59.961-174.96-62.188c-1.035-.367-2.181-.229-3.097.375s-1.497 1.602-1.568 2.697zm220.647 119.494-153.751-57.038.357-.513c10.436-14.995 30.155-20.557 46.89-13.226l102.541 44.923c.971.425 2.086.388 3.027-.105l68.539-35.867c15.989-8.368 35.444-4.395 46.933 9.049zm-194.426-416.133 171.749 61.047c.749.267 1.565.269 2.315.011l170.562-58.87 21.005 299.837c1.429 20.408-10.094 39.871-28.673 48.432l-21.431 9.875c-13.39-17.115-37.244-22.432-56.743-12.227l-67.05 35.088-101.001-44.25c-20.589-9.092-44.908-1.365-56.835 17.636l-19.153-7.105c-21.488-7.972-35.46-29.512-33.98-52.383z"/><path d="m138.483 171.237c24.601 0 44.615-20.014 44.615-44.615s-20.014-44.615-44.615-44.615-44.615 20.014-44.615 44.615 20.014 44.615 44.615 44.615zm0-82.23c20.741 0 37.615 16.874 37.615 37.615s-16.874 37.615-37.615 37.615-37.615-16.874-37.615-37.615 16.874-37.615 37.615-37.615z"/><path d="m112.698 119.833 23.655 18.138c.633.485 1.383.723 2.129.723.955 0 1.903-.389 2.59-1.144l22.729-24.975c1.301-1.43 1.197-3.644-.232-4.944-1.43-1.302-3.644-1.197-4.945.232l-20.564 22.596-21.102-16.18c-1.534-1.177-3.732-.887-4.907.647-1.177 1.533-.887 3.73.647 4.907z"/><path d="m191.086 119.762c14.101 9.539 30.517 15.384 47.473 16.902.106.01.212.014.316.014 1.792 0 3.319-1.369 3.482-3.188.172-1.925-1.248-3.626-3.174-3.798-15.778-1.413-31.054-6.851-44.175-15.728-1.601-1.083-3.777-.663-4.86.938s-.663 3.777.938 4.86z"/><path d="m191.086 136.077c14.101 9.539 30.517 15.384 47.473 16.902.106.01.212.014.316.014 1.792 0 3.319-1.369 3.482-3.188.172-1.925-1.248-3.626-3.174-3.798-15.778-1.413-31.054-6.851-44.175-15.728-1.601-1.083-3.777-.663-4.86.938s-.663 3.777.938 4.86z"/><path d="m191.086 152.392c14.101 9.539 30.517 15.384 47.473 16.902.106.01.212.014.316.014 1.792 0 3.319-1.369 3.482-3.188.172-1.925-1.248-3.626-3.174-3.798-15.778-1.413-31.054-6.851-44.175-15.728-1.601-1.083-3.777-.663-4.86.938s-.663 3.777.938 4.86z"/><path d="m191.086 168.707c14.101 9.539 30.517 15.384 47.473 16.902.106.01.212.014.316.014 1.792 0 3.319-1.369 3.482-3.188.172-1.925-1.248-3.626-3.174-3.798-15.778-1.413-31.054-6.851-44.175-15.728-1.601-1.083-3.777-.662-4.86.938-1.083 1.601-.663 3.777.938 4.86z"/><path d="m262.25 133.064c.911 5.127 3.972 9.64 8.398 12.383 2.928 1.814 6.284 2.749 9.668 2.749 1.73 0 3.467-.245 5.158-.741l124.876-36.651c4.854-1.425 8.807-4.685 11.129-9.18s2.694-9.605 1.048-14.389c-3.191-9.271-13.064-14.384-22.479-11.637l-124.913 36.442c-9.008 2.628-14.563 11.576-12.921 20.816zm14.846-14.303 124.912-36.442c1.063-.31 2.135-.458 3.19-.458 4.722 0 9.097 2.968 10.709 7.654 1.019 2.958.788 6.118-.647 8.897-1.436 2.779-3.88 4.795-6.882 5.676l-124.876 36.651c-3.088.907-6.43.454-9.167-1.242-2.736-1.696-4.629-4.487-5.192-7.657v-.001l-.037-.208c-1.015-5.712 2.42-11.245 7.99-12.87z"/><path d="m279.965 169.049c.311 0 .627-.042.94-.129l56.764-15.794c1.862-.519 2.952-2.448 2.434-4.311-.519-1.862-2.448-2.949-4.311-2.434l-56.763 15.794c-1.862.518-2.952 2.448-2.434 4.31.431 1.549 1.837 2.564 3.37 2.564z"/><path d="m276.595 182.8c.431 1.549 1.837 2.563 3.37 2.563.311 0 .627-.042.94-.129l56.764-15.794c1.862-.519 2.952-2.448 2.434-4.311-.519-1.862-2.448-2.948-4.311-2.434l-56.763 15.794c-1.863.519-2.952 2.449-2.434 4.311z"/><path d="m337.668 185.756c1.862-.518 2.952-2.448 2.434-4.311-.519-1.862-2.448-2.95-4.311-2.434l-56.763 15.794c-1.862.518-2.952 2.448-2.434 4.31.431 1.549 1.837 2.563 3.37 2.563.311 0 .627-.042.94-.129z"/><path d="m356.624 148.882c.31 0 .626-.042.94-.129l56.764-15.794c1.862-.519 2.952-2.448 2.434-4.311-.518-1.862-2.447-2.95-4.311-2.434l-56.763 15.794c-1.862.518-2.952 2.448-2.434 4.31.431 1.55 1.837 2.564 3.37 2.564z"/><path d="m353.254 162.634c.431 1.549 1.837 2.563 3.37 2.563.31 0 .626-.042.94-.129l56.764-15.794c1.862-.519 2.952-2.448 2.434-4.311-.518-1.862-2.447-2.949-4.311-2.434l-56.763 15.794c-1.862.519-2.952 2.449-2.434 4.311z"/><path d="m353.254 178.949c.431 1.549 1.837 2.563 3.37 2.563.31 0 .626-.042.94-.129l56.764-15.794c1.862-.519 2.952-2.448 2.434-4.311-.518-1.862-2.447-2.951-4.311-2.434l-56.763 15.794c-1.862.519-2.952 2.449-2.434 4.311z"/><path d="m107.528 234.244c28.975 8.796 41.941-35.834 12.652-40.885-11.08-2.909-22.515 2.095-25.937 13.893-3.272 11.28 1.378 23.377 13.285 26.992zm-7.471-20.836c2.42-19.576 31.986-17.146 29.202 1.049-.508 7.916-6.1 15.433-15.095 14.071-7.858-1.191-15.227-6.06-14.107-15.12z"/><path d="m167.14 204.667c-20.978-4.042-33.466 15.656-24.438 32.682 9.158 13.868 34.092 12.833 39.24-4.988 3.473-12.02-1.692-25.167-14.802-27.694zm9.078 21.098c-2.757 21.855-31.55 16.397-29.202-1.049 1.005-7.468 5.511-14.318 13.996-13.781 8.47.537 16.426 5.158 15.206 14.83z"/><path d="m199.576 256.54c11.183 4.111 24.791-.455 27.455-13.191 4.551-11.651-1.529-26.247-14.802-27.693-11.077-2.91-23.478 1.854-25.938 13.893-4.172 10.978 1.071 24.612 13.285 26.991zm6.524-34.617c22.912 1.098 18.19 31.934.112 28.901-7.928-.512-15.579-6.108-14.107-15.12 1.214-7.436 5.501-14.187 13.995-13.781z"/><path d="m96.919 285.395c11.476 3.205 24.792-.454 27.455-13.191 4.552-11.652-1.673-25.267-14.803-27.693-11.262-2.081-22.513 2.091-25.938 13.893-3.273 11.28 1.301 23.644 13.286 26.991zm-7.471-20.835c1.216-7.438 5.506-14.317 13.996-13.78 8.471.535 17.324 5.313 15.206 14.829-.507 7.915-6.101 15.433-15.095 14.071-7.858-1.191-15.58-6.111-14.107-15.12z"/><path d="m156.53 255.819c-20.974-4.042-33.467 15.655-24.439 32.682 9.158 13.869 35.738 13.229 39.241-4.988 4.555-11.654-1.691-25.168-14.802-27.694zm9.078 21.098c-2.757 21.854-32.383 16.265-29.202-1.049.646-7.507 5.511-14.318 13.996-13.781 8.471.536 16.427 5.158 15.206 14.83z"/><path d="m201.62 266.807c-11.078-2.909-23.477 1.855-25.938 13.893-4.172 10.979 1.071 24.612 13.286 26.991 11.162 4.13 23.752-.738 27.455-13.19 3.565-11.993-1.531-26.246-14.803-27.694zm9.078 21.098c-1.17 7.937-6.145 16.137-15.096 14.07-7.927-.509-16.261-6.247-14.106-15.119.646-7.508 5.51-14.318 13.996-13.781 8.47.537 16.628 5.186 15.206 14.83z"/><path d="m95.739 340.585c11.183 4.11 24.791-.455 27.455-13.192 4.551-11.652-1.673-25.267-14.803-27.693-11.263-2.081-23.477 1.856-25.937 13.893-4.173 10.979 1.071 24.613 13.285 26.992zm-7.472-20.835c.648-7.508 5.504-14.319 13.996-13.78 8.471.537 17.324 5.314 15.205 14.83-.589 8-6.15 16.137-15.095 14.069-7.927-.509-16.26-6.247-14.106-15.119z"/><path d="m155.349 311.009c-11.264-2.081-22.514 2.094-25.937 13.893-3.272 11.28 1.071 24.613 13.286 26.992 11.162 4.13 24.803-.473 27.455-13.191 4.552-11.656-1.675-25.269-14.804-27.694zm9.079 21.098c-.59 8-6.148 16.14-15.095 14.07-7.928-.509-15.58-6.109-14.106-15.119 1.216-7.437 5.508-14.318 13.996-13.78 8.47.536 17.323 5.313 15.205 14.829z"/><path d="m200.439 321.997c-11.262-2.081-23.476 1.855-25.937 13.892-4.173 10.979 1.071 24.613 13.285 26.992 11.162 4.131 24.804-.473 27.455-13.191 4.553-11.654-1.675-25.267-14.803-27.693zm9.078 21.098c-.59 7.998-6.151 16.141-15.095 14.07-11.274-.836-17.11-8.966-13.083-19.773 3.184-15.55 31.912-10.198 28.178 5.703z"/><g><path d="m414.861 212.252c-3.423-11.798-14.857-16.802-25.938-13.893-29.289 5.05-16.322 49.681 12.652 40.885 11.907-3.615 16.558-15.712 13.286-26.992zm-19.922 21.276c-8.995 1.362-14.587-6.155-15.095-14.071-2.784-18.195 26.782-20.625 29.202-1.049 1.121 9.06-6.248 13.929-14.107 15.12z"/><path d="m327.162 237.362c5.149 17.822 30.082 18.856 39.24 4.988 9.028-17.026-3.46-36.725-24.438-32.682-13.111 2.526-18.275 15.673-14.802 27.694zm20.93-21.426c8.484-.537 12.991 6.312 13.996 13.781 2.348 17.446-26.445 22.904-29.202 1.049-1.221-9.673 6.735-14.294 15.206-14.83z"/><path d="m322.813 234.549c-2.46-12.038-14.861-16.803-25.938-13.893-13.274 1.445-19.353 16.042-14.802 27.693 2.664 12.737 16.272 17.302 27.455 13.191 12.213-2.379 17.456-16.012 13.285-26.991zm-5.815 6.156c1.472 9.012-6.179 14.608-14.107 15.12-18.078 3.033-22.8-27.804.112-28.901 8.494-.407 12.781 6.345 13.995 13.781z"/><path d="m425.47 263.404c-3.424-11.801-14.675-15.974-25.938-13.893-13.13 2.426-19.355 16.042-14.803 27.693 2.663 12.737 15.98 16.396 27.455 13.191 11.985-3.347 16.559-15.711 13.286-26.991zm-19.922 21.275c-8.994 1.363-14.587-6.155-15.095-14.071-2.119-9.516 6.735-14.294 15.206-14.829 8.49-.536 12.78 6.342 13.996 13.78 1.473 9.011-6.248 13.93-14.107 15.12z"/><path d="m337.771 288.513c3.503 18.217 30.083 18.856 39.241 4.988 9.028-17.027-3.464-36.724-24.439-32.682-13.11 2.527-19.356 16.04-14.802 27.694zm20.931-21.426c8.485-.537 13.35 6.274 13.996 13.781 3.181 17.314-26.445 22.903-29.202 1.049-1.221-9.672 6.734-14.293 15.206-14.83z"/><path d="m292.681 299.502c3.702 12.452 16.293 17.32 27.455 13.19 12.214-2.379 17.458-16.012 13.286-26.991-2.461-12.038-14.861-16.802-25.938-13.893-13.273 1.448-18.369 15.7-14.803 27.694zm20.931-21.426c8.485-.537 13.349 6.273 13.996 13.781 2.155 8.872-6.179 14.61-14.106 15.119-8.951 2.067-13.926-6.134-15.096-14.07-1.422-9.645 6.735-14.294 15.206-14.83z"/><path d="m426.65 318.593c-2.46-12.037-14.674-15.973-25.937-13.893-13.13 2.426-19.355 16.041-14.803 27.693 2.664 12.737 16.272 17.302 27.455 13.192 12.214-2.379 17.457-16.013 13.285-26.992zm-19.92 21.275c-8.945 2.068-14.507-6.069-15.095-14.069-2.119-9.516 6.734-14.292 15.205-14.83 8.492-.539 13.348 6.273 13.996 13.78 2.155 8.873-6.179 14.611-14.106 15.119z"/><path d="m338.951 343.702c2.652 12.718 16.293 17.321 27.455 13.191 12.215-2.379 16.558-15.712 13.286-26.992-3.423-11.798-14.674-15.974-25.937-13.893-13.13 2.426-19.357 16.04-14.804 27.694zm20.93-21.425c8.488-.538 12.78 6.343 13.996 13.78 1.473 9.011-6.179 14.61-14.106 15.119-8.947 2.071-14.506-6.069-15.095-14.07-2.119-9.514 6.734-14.292 15.205-14.829z"/><path d="m293.861 354.691c2.652 12.717 16.293 17.321 27.455 13.191 12.214-2.379 17.458-16.013 13.285-26.992-2.461-12.037-14.676-15.973-25.937-13.892-13.128 2.425-19.355 16.038-14.803 27.693zm33.904-12.299c4.027 10.807-1.809 18.937-13.083 19.773-8.945 2.071-14.505-6.072-15.095-14.07-3.734-15.901 24.993-21.253 28.178-5.703z"/></g></g></g></svg>