<svg id="Capa_1" enable-background="new 0 0 512 512" height="512" viewBox="0 0 512 512" width="512" xmlns="http://www.w3.org/2000/svg"><g><g><path d="m477.276 428.906c-2.168-27.185-5.241-61.829-9.221-97.548-9.745-87.458-20.845-146.55-33.082-176.264-.018-.045-.024-.092-.043-.137-.017-.039-.042-.071-.06-.108-2.5-6.033-5.047-10.846-7.64-14.421-15.324-21.129-41.22-40.175-76.968-56.608-19.644-9.03-37.019-14.73-44.776-17.098 1.282-2.899 1.74-5.537 1.866-7.493 9.131-2.176 16.638-9.304 18.959-18.732l1.745-7.085c1.869-7.588.208-15.492-4.558-21.686s-11.981-9.826-19.795-9.963l-99.483-1.759c-7.235-.114-14.184 2.823-19.113 8.097-4.929 5.273-7.405 12.422-6.791 19.614l.471 5.529c.98 11.493 9.511 20.708 20.517 22.872-.296 2.551-.301 6.034.839 9.793-8.716 1.201-28.203 4.694-48.954 13.784-71.342 30.441-65.462 83.275-79.946 155.558-17.869 100.628-41.814 238.353-42.132 240.183-.166.955.071 1.936.655 2.71.583.774 1.461 1.271 2.425 1.374l66.71 7.109c1.827.192 3.459-1.027 3.809-2.807l39.345-200.131c-1.014 10.212-2.009 20.894-2.939 31.838-7.468 87.986-7.305 149.796.487 183.712.301 1.311 1.327 2.335 2.639 2.632 50.265 12.368 166.698 16.111 233.969-4.403 1.473-.387 2.527-1.682 2.608-3.203.018 3.769 2.968-69.695 3.229-95.396.918-46.683.999-102.528-1.904-148.281 14.74 63.684 36.62 171.722 31.367 232.253-.084.973.241 1.937.898 2.659.657.723 1.585 1.138 2.562 1.147l38.699.338h.001.01l23.977.209c.955.014 1.9-.386 2.568-1.089.669-.703 1.016-1.652.959-2.62-.023-.396-1.323-22.17-3.903-54.524-.002-.019-.006-.037-.006-.055zm-39.757-243.045-37.886 14.524c-2.036-3.132-4.093-6.483-6.164-10.082-2.24-3.893-4.186-7.639-5.888-11.247l42.239-18.098c2.69 7.029 5.256 15.433 7.699 24.903zm1.703 6.85c1.569 6.548 3.085 13.525 4.547 20.848l-25.684 10.291c-4.574-4.671-9.417-10.42-14.421-17.508zm5.91 27.849c1.399 7.368 2.746 15.04 4.043 22.931-4.949-1.055-14.128-4.311-25.508-14.33zm-23.572-76.019c1.909 2.632 3.765 5.982 5.569 9.949l-42.379 18.158c-4.061-9.917-6.162-18.624-7.058-26.079 5.615-2.58 21.617-9.617 33.094-14.632 3.95 3.999 7.579 8.199 10.774 12.604zm-43.74-16.151c1.339-8.842 4.35-14.853 6.278-17.968 7.475 4.941 14.667 10.363 21.196 16.27-3.615 1.582-8.787 3.848-13.967 6.131-4.717 2.078-9.433 4.166-12.968 5.754-.419.188-.818.367-1.202.541-.082-4.071.197-7.653.663-10.728zm-53.926 51.472c-6.678.247-17.328 1.003-17.348-8.478v-23.259c0-4.675 3.803-8.478 8.478-8.478h20.56c4.675 0 8.478 3.803 8.478 8.478v23.259c.192 10.511-13.368 8.387-20.168 8.478zm-3.479-76.201v28.98h-5.39c-8.537 0-15.484 6.946-15.484 15.484v23.259c-.092 10.262 9.468 16.75 19.144 15.484l-12.984 31.49h-9.542c-8.538 0-15.485 6.946-15.485 15.484v5.56h-16.963l2.8-152.138c16.544-1.802 28.301-6.622 35.038-14.406 4.918 1.46 17.63 5.447 33.391 11.98l-13.722 16.593c-.519.626-.803 1.415-.803 2.23zm4.782 153.439c.015 4.708-3.911 8.496-8.479 8.478h-20.559c-4.675 0-8.479-3.803-8.479-8.478v-23.259c-.191-10.581 13.536-8.36 20.355-8.478.033-.002 8.651.001 8.683 0 4.675 0 8.479 3.803 8.479 8.478zm-118.917-200.398 93.982 3.204c-.314 2.14-1.268 5.205-3.957 8.327-5.044 5.858-17.083 12.842-45.783 12.842-21.183 0-35.488-4.338-41.369-12.545-3.181-4.439-3.235-9.08-2.873-11.828zm62.378-4.883 1.553-43.642 21.832.386-2.653 43.962zm-7.003-.239-19.843-.676 1.991-43.193 19.4.343zm-26.844-.915-19.659-.67 1.43-42.766 20.215.358zm15.711 37.416c3.114 0 6.103-.081 8.972-.238l-7.682 417.49c-4.216-.007-8.355-.06-12.409-.154l4.526-417.255c2.132.094 4.314.157 6.593.157zm67.424-72.083c5.528 6.466 3.569 15.32 1.562 22.824-2.77 10.358-13.021 15.495-23.116 13.942l2.66-44.077c7.063-.408 14.549 1.277 18.894 7.311zm-132.177 16.65c-2.252-16.49 7.298-27.715 23.807-25.543l-1.426 42.651c-10.818.977-20.83-5.747-22.381-17.108zm-56.92 67.658c1.962 2.606 5.091 7.762 6.857 15.913 1.452 6.702 1.638 13.731.981 20.737l-31.42-12.476c6-9.07 13.876-17.135 23.582-24.174zm-46.638 113.305 17.436 5.262c-9.12 9.587-16.583 12.451-20.737 13.273 1.13-6.357 2.233-12.548 3.301-18.535zm22.466-.538-21.225-6.405c1.112-6.219 2.182-12.18 3.199-17.832l29.121 7.6c-3.827 6.717-7.552 12.186-11.095 16.637zm14.541-22.979-31.32-8.173c1.31-7.247 2.517-13.885 3.6-19.784l35.79 10.545c-2.404 5.913-5.337 12.141-8.07 17.412zm10.587-23.974-37.013-10.906c1.739-8.839 4.685-17.059 8.823-24.646l34.118 13.547c-1.308 7.663-3.468 15.153-5.928 22.005zm-85.007 260.098c2.246-.663 6.319-1.741 11.426-2.565l-9.345 50.384-10.225-1.09c1.239-7.116 4.184-24.037 8.144-46.729zm9.069 48.564 9.647-52.01c5.972-.475 12.652-.373 19.205 1.013l-10.344 52.969zm42.586 4.537-17.086-1.821 10.11-51.768c5.681 2.114 11.028 5.446 15.445 10.512zm44.651-79.384c5.413-.42 17.211-1.187 29.81-1.05 29.182.325 38.409 5.112 41.311 7.936 1.254 1.22 1.79 2.492 1.685 4.001-.112 1.644-.904 3.012-2.489 4.306-11.394 9.3-52.294 6.687-70.692 4.518.052-6.446.18-13.032.375-19.711zm4.847 95.556c-3.745-17.672-5.226-41.821-5.249-68.81 5.68.632 16.741 1.701 28.656 1.979 64.199 4.829 73.595-38.039 1.576-36.781-12.259-.132-23.76.573-29.6 1.012 3.261-91.497 18.058-196.981 18.276-198.516.266-1.879-1.014-3.629-2.885-3.946-1.863-.314-3.654.915-4.021 2.778l-46.151 234.747c-14.593-14.303-42.597-14.485-60.418-9.386 8.534-48.88 20.998-120.06 31.489-179.172 18.927.819 45.403-35.983 53.654-58.212 22.598-50.554 9.772-76.272 3.395-84.838 5.818-3.71 12.199-7.102 19.157-10.161 22.012-9.674 43.079-12.834 49.597-13.628 5.844 8.2 17.094 13.172 33.503 14.862l-4.53 417.558c-44.763-1.557-77.896-7.746-86.449-9.486zm228.584-74.541c-5.472.956-18.317 3.022-32.189 4.011-23.134 1.65-39.189-.441-45.208-5.884-2.017-1.824-2.839-3.966-2.585-6.738.279-3.044 1.743-5.522 4.475-7.574 14.319-10.751 57.173-5.964 75.953-2.658-.135 6.49-.286 12.787-.446 18.843zm-.118-223.051c-.485-1.812-2.31-2.922-4.143-2.513-1.832.406-3.017 2.183-2.69 4.031 8.237 46.477 8.767 129.529 7.537 195.613-14.49-2.448-62.444-9.27-80.297 4.132-4.346 3.263-6.785 7.482-7.247 12.539-.453 4.94 1.229 9.288 4.864 12.574 7.006 6.334 21.073 8.306 35.888 8.306 18.049-.001 37.199-2.929 46.01-4.467-.903 31.677-2.015 55.596-2.389 63.219-39.263 10.041-78.522 13.61-113.131 13.972l4.764-258.898h17.092v10.693c0 8.538 6.946 15.484 15.485 15.484h20.559c1.012 0 1.998-.104 2.957-.29l3.589 8.74c-5.124 3.308-8.532 9.056-8.532 15.596 0 10.237 8.328 18.565 18.565 18.565 10.236 0 18.564-8.328 18.564-18.565.128-11.509-10.843-20.541-22.102-18.217l-3.694-8.996c3.721-2.831 6.137-7.291 6.137-12.315v-23.259c.088-10.142-9.31-16.712-18.925-15.484l12.984-31.49h9.323c8.537 0 15.484-6.946 15.484-15.484v-23.259c0-8.538-6.946-15.484-15.484-15.484h-8.164v-27.719l14.241-17.22c11.547 5.062 24.254 11.368 36.505 18.929-5.955 9.436-18.715 38.604 9.231 87.166 27.865 48.423 53.995 55.926 62.959 57.024 9.106 57.689 15.585 125.512 19.468 173.081-23.507-7.489-43.349-1.56-52.16 2.085-7.919-95.258-41.512-221.607-43.248-228.089zm-41.119 87.171c6.373 0 11.558 5.186 11.558 11.559 0 6.374-5.185 11.559-11.558 11.559-6.374 0-11.559-5.186-11.559-11.559-.001-6.373 5.185-11.559 11.559-11.559zm117.519 142.407-.575 52.47-13.555-.118-1.855-51.416c4.698-.809 10.098-1.264 15.985-.936zm-32.585 5.928c1.949-.888 5.269-2.242 9.646-3.444l1.797 49.807-10.895-.095c.925-13.696.629-29.413-.548-46.268zm39.017 46.603.566-51.77c4.059.648 8.285 1.701 12.622 3.275 1.878 23.624 3.05 41.283 3.519 48.641z"/><path d="m419.944 52.4h14.85v16.44c0 1.935 1.569 3.503 3.503 3.503h43.121c1.934 0 3.503-1.568 3.503-3.503v-38.873c0-1.935-1.569-3.503-3.503-3.503h-18.674v-12.802c0-1.935-1.569-3.503-3.503-3.503h-39.297c-1.934 0-3.503 1.568-3.503 3.503v35.235c0 1.935 1.569 3.503 3.503 3.503zm57.971-18.93v31.868h-36.115v-12.938h17.441c1.934 0 3.503-1.568 3.503-3.503v-15.427zm-54.468-16.305h32.291v28.23h-32.291z"/><path d="m17.98 57.518h14.85v16.441c0 1.935 1.569 3.503 3.503 3.503h43.121c1.934 0 3.503-1.568 3.503-3.503v-38.874c0-1.935-1.569-3.503-3.503-3.503h-18.674v-12.802c0-1.935-1.569-3.503-3.503-3.503h-39.297c-1.934 0-3.503 1.568-3.503 3.503v35.235c0 1.935 1.569 3.503 3.503 3.503zm57.971-18.93v31.868h-36.115v-12.938h17.441c1.934 0 3.503-1.568 3.503-3.503v-15.427zm-54.468-16.305h32.292v28.229h-32.292z"/><path d="m387.538 97.985c.877 0 1.753-.326 2.434-.983l35.975-34.743c1.392-1.344 1.43-3.561.086-4.953-1.344-1.393-3.561-1.43-4.953-.087l-35.975 34.743c-1.392 1.344-1.43 3.562-.086 4.953.687.712 1.602 1.07 2.519 1.07z"/><path d="m433.81 87.887c.037 1.911 1.598 3.435 3.501 3.435.023 0 .046 0 .069-.001l60.368-1.183c1.934-.038 3.472-1.637 3.434-3.571s-1.587-3.478-3.57-3.434l-60.369 1.183c-1.934.038-3.471 1.637-3.433 3.571z"/><path d="m497.612 98.784-60.369 1.183c-1.934.038-3.472 1.637-3.434 3.571.037 1.911 1.598 3.435 3.501 3.435h.069l60.368-1.183c1.934-.038 3.472-1.637 3.434-3.571-.037-1.935-1.586-3.475-3.569-3.435z"/><path d="m92.696 25.03h.069l60.369-1.182c1.934-.038 3.472-1.637 3.434-3.571-.037-1.911-1.598-3.434-3.501-3.434-.023 0-.046 0-.069 0l-60.37 1.182c-1.934.038-3.472 1.637-3.434 3.571.038 1.911 1.599 3.434 3.502 3.434z"/><path d="m92.696 40.681h.069l60.369-1.182c1.934-.038 3.472-1.637 3.434-3.571-.037-1.911-1.598-3.435-3.501-3.435-.023 0-.046 0-.069 0l-60.37 1.182c-1.934.038-3.472 1.637-3.434 3.571.038 1.912 1.599 3.435 3.502 3.435z"/><path d="m497.612 114.435-60.369 1.183c-1.934.038-3.472 1.637-3.434 3.571.037 1.911 1.598 3.435 3.501 3.435.023 0 .046 0 .069-.001l60.368-1.183c1.934-.038 3.472-1.637 3.434-3.571-.037-1.934-1.586-3.47-3.569-3.434z"/><path d="m14.319 106.254c.023 0 .046 0 .069-.001l60.369-1.182c1.934-.038 3.472-1.637 3.434-3.571-.037-1.934-1.604-3.468-3.57-3.434l-60.368 1.182c-1.934.038-3.472 1.637-3.434 3.571.036 1.912 1.597 3.435 3.5 3.435z"/><path d="m14.319 121.904c.023 0 .046 0 .069-.001l60.369-1.182c1.934-.038 3.472-1.637 3.434-3.571-.037-1.934-1.604-3.464-3.57-3.434l-60.368 1.182c-1.934.038-3.472 1.637-3.434 3.571.036 1.912 1.597 3.435 3.5 3.435z"/><path d="m78.19 132.802c-.037-1.934-1.604-3.46-3.57-3.434l-60.368 1.183c-1.934.038-3.472 1.637-3.434 3.571.037 1.911 1.598 3.435 3.501 3.435.023 0 .046 0 .069-.001l60.369-1.183c1.934-.039 3.471-1.637 3.433-3.571z"/><path d="m116.144 90.339c.68.656 1.557.982 2.433.982.917 0 1.834-.358 2.521-1.071 1.344-1.392 1.304-3.61-.088-4.953l-27.633-26.663c-1.392-1.343-3.609-1.304-4.953.089-1.344 1.392-1.304 3.609.088 4.953z"/></g></g></svg>