<?xml version="1.0" encoding="iso-8859-1"?>
<!-- Generator: Adobe Illustrator 19.0.0, SVG Export Plug-In . SVG Version: 6.00 Build 0)  -->
<svg version="1.1" id="Capa_1" xmlns="http://www.w3.org/2000/svg" xmlns:xlink="http://www.w3.org/1999/xlink" x="0px" y="0px"
	 viewBox="0 0 512.001 512.001" style="enable-background:new 0 0 512.001 512.001;" xml:space="preserve">
<g>
	<g>
		<path d="M497.679,259.853c-2.87-6.944-5.959-13.986-10.578-19.964c-0.542-0.701-1.107-1.381-1.694-2.036
			c0.365-36.309,0.611-72.619,0.704-108.929c0.091-35.651,0.052-71.302-0.118-106.953c-0.03-6.318,0.327-13.617-5.177-17.942
			c-5.475-4.302-14.273-3.017-20.761-3.152c-17.646-0.368-35.29-0.744-52.939-0.858c-39.235-0.252-79.181,2.136-118.639,2.37
			c-62.063,0.368-124.12,1.346-186.168,2.76c-15.512,0.353-31.021,0.755-46.53,1.203c-7.509,0.217-15.109,0.14-22.6,0.694
			c-3.139,0.232-6.348,0.766-9.126,2.093c-0.234-0.258-0.467-0.517-0.701-0.775c-0.099,0.425-0.178,0.856-0.269,1.285
			c-1.672,0.955-3.153,2.24-4.311,3.99c-3.519,5.315-2.701,12.891-2.876,18.933c-0.223,7.748-0.558,15.492-0.848,23.237
			c-0.582,15.493-1.111,30.987-1.588,46.483c-1.931,62.689-3.003,125.405-3.22,188.123c-0.241,69.697-0.355,139.626,2.528,209.275
			c0.143,3.45,2.639,5.686,5.983,5.983c69.805,6.196,139.634,6.445,209.657,6.303c71.272-0.145,142.545-0.289,213.817-0.434
			c8.166-0.017,16.741,0.72,24.845-0.344c6.69-0.878,11.776-4.883,13.049-11.685c1.467-7.841,0.806-16.403,1.014-24.357
			c0.231-8.822,0.454-17.643,0.669-26.465c0.87-35.641,1.609-71.284,2.218-106.93c0.215-12.556,0.395-25.113,0.575-37.67
			c7.791-4.782,14.516-10.983,16.611-20.265C503.054,275.64,500.801,267.408,497.679,259.853z M474.123,41.031
			c0,0.083,0,0.165,0.001,0.248c-2.782-3.007-5.56-6.017-8.34-9.026c0.861-0.961,1.725-1.919,2.586-2.88
			c1.99-2.222,3.97-4.453,5.955-6.68C474.44,28.799,474.103,35.002,474.123,41.031z M428.144,381.092
			c5.231,5.493,10.458,10.989,15.696,16.475c5.007,5.245,10.03,10.475,15.045,15.713c-10.017,10.721-20.047,21.431-30.091,32.126
			c-9.228-9.607-18.44-19.228-27.644-28.856c4.347-5.92,8.196-12.242,11.506-18.851C417.82,392.165,422.991,386.636,428.144,381.092
			z M420.463,378.615c0.454-1.406,0.879-2.821,1.286-4.241c0.45,0.474,0.9,0.949,1.35,1.423
			C422.222,376.737,421.342,377.676,420.463,378.615z M426.541,329.856c1.823-0.415,3.61-1.159,5.532-1.911
			c4.08-1.597,8.138-3.249,12.183-4.935c4.695,4.96,9.389,9.921,14.093,14.873c-10.002,10.789-20.004,21.579-30.036,32.341
			c-1.458-1.529-2.912-3.061-4.367-4.593C426.49,353.819,427.419,341.724,426.541,329.856z M423.528,451.019
			c-10.038,10.68-20.093,21.343-30.159,31.997c-10.229-10.635-20.445-21.283-30.647-31.944c0.591-0.627,1.18-1.255,1.771-1.883
			c12.199-6.686,22.926-15.807,31.891-26.552c1.027,1.079,2.054,2.159,3.083,3.236C407.478,434.264,415.5,442.644,423.528,451.019z
			 M351.099,441.981c-26.387,11.919-59.532,8.714-86.783,1.309c-26.6-7.228-48.718-22.689-60.29-48.234
			c-11.224-24.778-12.706-54.377-9.681-81.069c2.99-26.382,15.15-49.721,35.312-67.032c26.755-22.972,61.271-29.159,93.717-22.355
			c13.137,3.504,25.751,8.847,37.253,16.236c23.07,14.821,40.304,37.944,48.499,64.066
			C425.403,356.786,401.921,419.025,351.099,441.981z M347.118,456.672c-8.363,8.842-16.732,17.677-25.11,26.504
			c-6.008-6.271-12.029-12.529-18.025-18.81c-0.953-0.999-1.905-1.999-2.857-2.999c10.478,0.65,20.982,0.426,31.417-1.219
			C337.557,459.356,342.417,458.18,347.118,456.672z M70.759,178.27c2.95,5.565,7.764,9.267,13.309,11.479
			c-1.022,5.374,0.142,10.707,2.785,15.305c-4.273,4.56-8.545,9.122-12.824,13.676c-10.021-10.927-20.03-21.866-30.022-32.819
			c8.032-8.601,16.058-17.207,24.077-25.82C67.052,166.23,67.748,172.591,70.759,178.27z M89.694,92.415
			c1.175,1.299,2.353,2.595,3.529,3.892c-7.339,4.294-13.958,9.709-18.46,17.07c-3.97,6.492-6.554,15.805-5.009,23.791
			c-8.417-9.255-16.83-18.514-25.226-27.788C54.745,98.362,64.95,87.333,75.141,76.29C79.991,81.665,84.836,87.046,89.694,92.415z
			 M79.905,71.127c10.192-11.053,20.369-22.12,30.533-33.199c7.867,8.735,15.742,17.463,23.629,26.18
			c2.155,2.382,4.317,4.757,6.473,7.138c-0.693,0.752-1.382,1.507-2.074,2.258c-1.817,1.974-3.641,3.942-5.461,5.913
			c-8.987,3.265-17.897,6.716-26.688,10.446c-2.237,0.949-4.48,1.955-6.695,3.034c-5.59-6.159-11.181-12.318-16.76-18.487
			C81.874,73.318,80.892,72.22,79.905,71.127z M426.285,84.159c-0.416-0.824-0.942-1.451-1.533-1.916
			c0.757-1.812,1.322-3.701,1.729-5.619c10.087,10.931,20.189,21.849,30.302,32.756c-9.995,11.041-20.007,22.066-30.031,33.08
			c-2.828-3.033-5.648-6.073-8.47-9.111c2.697-2.136,5.17-4.546,7.298-7.325C435.068,113.631,432.975,97.386,426.285,84.159z
			 M144.768,229.677c10.049,10.918,20.11,21.825,30.186,32.718c-10.185,10.864-20.381,21.718-30.595,32.556
			c-10.07-10.837-20.122-21.691-30.161-32.556c0.893-0.953,1.789-1.903,2.681-2.857C126.187,249.595,135.482,239.64,144.768,229.677
			z M143.468,217.727c0.918-0.114,1.836-0.226,2.753-0.345c-0.515,0.552-1.029,1.104-1.544,1.655
			C144.274,218.6,143.871,218.163,143.468,217.727z M210.42,224.443c-10.16,10.906-20.335,21.798-30.525,32.676
			c-10.096-10.883-20.178-21.78-30.242-32.692c2.686-2.884,5.366-5.774,8.048-8.662c12.791-1.945,25.508-4.351,38.143-7.144
			C200.7,213.897,205.555,219.175,210.42,224.443z M203.883,206.786c6.411-1.502,12.802-3.093,19.169-4.775
			c3.668-0.969,7.328-1.964,10.981-2.982c-6.233,6.717-12.461,13.439-18.704,20.147
			C211.508,215.051,207.697,210.917,203.883,206.786z M179.971,267.807c3.626,3.916,7.259,7.825,10.891,11.735
			c-1.179,2.752-2.264,5.547-3.205,8.401c-4.57,13.846-6.156,28.657-6.42,43.25c-0.517,0.549-1.033,1.098-1.551,1.647
			c-10.094-10.793-20.178-21.596-30.242-32.416c3.935-4.194,7.878-8.381,11.808-12.58
			C167.498,281.171,173.734,274.489,179.971,267.807z M109.141,256.914c-4.176-4.524-8.358-9.042-12.528-13.572
			c-5.861-6.366-11.699-12.752-17.551-19.127c4.135-4.422,8.262-8.853,12.391-13.283c1.692,1.633,3.596,3.073,5.678,4.242
			c11.249,6.315,24.91,4.899,37.193,3.608c0.134-0.014,0.268-0.03,0.402-0.045c1.687,1.841,3.374,3.682,5.064,5.52
			C129.588,235.156,119.372,246.042,109.141,256.914z M109.289,267.625c10.022,10.874,20.076,21.719,30.125,32.568
			c-10.216,10.831-20.45,21.647-30.693,32.452c-10.047-10.794-20.084-21.599-30.101-32.422
			C88.861,289.374,99.084,278.509,109.289,267.625z M108.9,343.463c10.02,10.794,20.05,21.578,30.095,32.349
			c-10.126,10.657-20.26,21.306-30.41,31.94c-0.083,0.087-0.167,0.174-0.25,0.261c-10.059-10.722-20.085-21.475-30.115-32.225
			C88.46,365.026,98.689,354.254,108.9,343.463z M113.884,338.185c10.223-10.815,20.427-21.649,30.617-32.496
			c10.042,10.833,20.097,21.655,30.165,32.465c-10.191,10.788-20.394,21.563-30.612,32.326
			C133.983,359.728,123.926,348.964,113.884,338.185z M179.801,343.661c0.533,0.572,1.067,1.144,1.601,1.716
			c0.509,12.081,2.064,24.182,5.132,35.858c1.306,4.97,2.922,9.793,4.83,14.447c-3.956,4.176-7.911,8.354-11.874,12.523
			c-10.098-10.714-20.179-21.445-30.249-32.185C159.442,365.247,169.633,354.464,179.801,343.661z M184.907,262.522
			c10.163-10.897,20.314-21.806,30.452-32.727c2.341,2.532,4.687,5.06,7.032,7.589c-11.561,9.756-21.262,21.692-28.201,35.109
			C191.094,269.171,187.997,265.85,184.907,262.522z M220.267,224.5c9.051-9.758,18.087-19.531,27.117-29.309
			c1.712-0.504,3.422-1.014,5.131-1.527c5.951,6.444,11.91,12.88,17.87,19.315c-11.079,2.679-21.8,6.937-31.813,12.879
			c-3.624,2.15-7.12,4.515-10.5,7.037C225.469,230.098,222.865,227.302,220.267,224.5z M260.143,191.343
			c15.645-4.817,31.192-9.955,46.683-15.241c3.156,3.419,6.312,6.839,9.474,10.252c-0.115,0.125-0.23,0.25-0.345,0.375
			c-7.047,7.655-14.115,15.291-21.179,22.929c-5.418,0.184-10.808,0.715-16.135,1.61
			C272.47,204.631,266.302,197.991,260.143,191.343z M314.285,173.562c6.663-2.272,13.332-4.538,20.003-6.807
			c-4.361,4.759-8.721,9.519-13.091,14.27C318.889,178.54,316.588,176.05,314.285,173.562z M321.155,191.594
			c8.364,9.023,16.741,18.034,25.123,27.041c-8.323-3.295-16.976-5.753-25.8-7.247c-5.315-0.9-10.658-1.466-15.995-1.697
			C310.042,203.66,315.605,197.633,321.155,191.594z M326.059,186.257c7.427-8.088,14.841-16.188,22.253-24.291
			c4.043-1.386,8.083-2.78,12.119-4.183c8.783,9.484,17.574,18.96,26.377,28.426c-8.816,9.619-17.643,19.229-26.481,28.828
			c-1.228,1.334-2.461,2.663-3.69,3.997C346.431,208.121,336.235,197.198,326.059,186.257z M367.877,155.178
			c9.178-3.226,18.333-6.51,27.437-9.907c5.749-2.145,11.594-4.595,16.935-7.781c3.197,3.455,6.393,6.911,9.596,10.36
			c-10.02,11-20.052,21.988-30.1,32.961C383.777,172.277,375.825,163.729,367.877,155.178z M391.652,191.413
			c10.188,10.946,20.387,21.882,30.601,32.804c-5.851,6.375-11.691,12.76-17.552,19.126c-3.328,3.614-6.664,7.222-9.998,10.831
			c-0.961-1.425-1.914-2.83-2.904-4.035c-2.973-3.619-5.992-7.218-9.53-10.306c-5.406-4.718-11.43-8.683-17.638-12.269
			c-1.034-1.104-2.072-2.204-3.105-3.309C371.582,213.321,381.624,202.372,391.652,191.413z M396.59,186.015
			c10.036-10.977,20.061-21.965,30.068-32.968c10.197,10.972,20.424,21.916,30.647,32.863c-9.995,10.957-20.004,21.9-30.027,32.831
			C417.038,207.842,406.801,196.941,396.59,186.015z M413.967,120.482c-6.52,6.892-15.896,10.705-24.649,13.872
			c-25.802,9.336-51.758,18.298-77.68,27.297c-50.348,17.48-101.396,33.917-154.124,42.507c-13.697,2.231-27.983,4.735-41.904,4.612
			c-6.152-0.054-12.629-1.154-17.356-5.407c-3.265-2.938-5.342-7.194-6.611-11.537c3.85,0.62,7.804,0.68,11.563,0.264
			c16.119-1.784,32.098-8.158,47.604-12.729c32.519-9.585,65.037-19.17,97.556-28.754c32.519-9.585,65.037-19.169,97.556-28.754
			c15.487-4.565,31.319-8.524,46.524-13.961c8.808-3.149,17.717-7.539,24.397-14.175
			C419.29,103.151,421.667,112.339,413.967,120.482z M414.317,74.861c-3.247,12.348-16.618,18.558-27.631,22.247
			c-13.816,4.629-27.961,8.403-41.931,12.539c-29.122,8.62-58.244,17.241-87.366,25.861l-87.366,25.861
			c-14.222,4.21-28.445,8.42-42.667,12.63c-12.231,3.62-28.576,11.44-41.012,4.794c-11.236-6.005-8.608-20.721-1.678-28.991
			c8.192-9.776,21.372-15.339,32.808-20.264c26.41-11.372,54.549-19.315,82.066-27.517c26.643-7.942,53.446-15.36,80.365-22.314
			c10.164-2.215,20.214-4.928,30.386-7.218c13.938-3.139,27.957-5.833,41.994-8.483c14.179-2.677,28.701-5.807,43.106-6.89
			c1.596-0.121,3.292-0.218,4.996-0.185c1.244,0.513,2.668,0.633,3.996,0.38c2.257,0.422,4.39,1.248,6.158,2.762
			C414.673,63.612,415.643,69.817,414.317,74.861z M74.197,229.421c10,10.913,20.012,21.816,30.04,32.704
			c-10.232,10.865-20.474,21.72-30.734,32.559c-7.094-7.672-14.185-15.348-21.263-23.035c-2.92-3.172-5.828-6.355-8.745-9.529
			c9.686-10.282,19.359-20.576,29.012-30.889C73.071,230.629,73.633,230.024,74.197,229.421z M73.703,305.437
			c9.998,10.833,20.009,21.654,30.033,32.463c-10.23,10.783-20.472,21.554-30.728,32.312c-10.031-10.76-20.036-21.542-30.037-32.33
			C53.232,327.082,63.473,316.266,73.703,305.437z M73.172,381.087c10.006,10.765,20.038,21.506,30.07,32.248
			c-10.231,10.709-20.477,21.403-30.736,32.084c-10.048-10.694-20.08-21.404-30.099-32.125c5.021-5.243,10.053-10.476,15.066-15.727
			C62.711,392.08,67.94,386.582,73.172,381.087z M101.844,425.874c2.207-2.312,4.409-4.63,6.615-6.943
			c3.251,3.478,6.487,6.97,9.74,10.446c6.782,7.246,13.591,14.466,20.39,21.696c-10.202,10.661-20.417,21.309-30.647,31.944
			c-10.067-10.652-20.124-21.314-30.165-31.99C85.807,442.65,93.831,434.267,101.844,425.874z M113.563,413.572
			c10.218-10.723,20.422-21.46,30.612-32.211c6.132,6.57,12.255,13.148,18.396,19.708c3.918,4.185,7.847,8.36,11.771,12.541
			c-7.124,7.487-14.249,14.972-21.385,22.448c-3.056,3.201-6.121,6.393-9.179,9.592
			C133.696,434.968,123.618,424.281,113.563,413.572z M179.548,419.158c10.07,10.718,20.153,21.424,30.257,32.112
			c-4.159,4.365-8.313,8.735-12.475,13.095c-5.996,6.281-12.016,12.54-18.023,18.811c-10.101-10.641-20.201-21.283-30.275-31.949
			C159.217,440.551,169.388,429.86,179.548,419.158z M184.698,413.727c3.352-3.534,6.696-7.077,10.041-10.617
			c6.755,13.48,16.224,25.197,28.316,34.225c-2.676,2.82-5.351,5.64-8.031,8.456C204.903,435.114,194.793,424.428,184.698,413.727z
			 M229.404,441.669c3.255,2.031,6.671,3.888,10.252,5.548c11.146,5.164,22.915,8.62,34.947,10.874
			c-7.976,8.4-15.955,16.797-23.947,25.182c-10.142-10.64-20.271-21.292-30.389-31.956
			C223.317,448.105,226.36,444.886,229.404,441.669z M399.073,259.949c9.359-10.164,18.715-20.331,28.049-30.518
			c0.561,0.6,1.121,1.201,1.682,1.8c2.329,2.489,4.668,4.97,7.003,7.453c-5.528,2.717-10.994,5.568-16.363,8.561
			c-7.119,3.969-13.521,8.22-19.98,13.113C399.332,260.232,399.205,260.083,399.073,259.949z M432.161,223.949
			c10.012-10.935,19.988-21.902,29.972-32.863c3.685,3.943,7.356,7.899,11.044,11.839c0.183,0.195,0.367,0.391,0.55,0.586
			c-0.069,8.758-0.159,17.516-0.246,26.274c-1.168-0.382-2.376-0.682-3.626-0.881c-8.444-1.344-16.561,1.668-24.138,5.087
			c-0.95,0.429-1.892,0.881-2.839,1.32C439.304,231.525,435.727,227.742,432.161,223.949z M467.126,185.613
			c2.258-2.482,4.526-4.955,6.783-7.438c-0.03,4.853-0.07,9.705-0.104,14.558C471.576,190.362,469.353,187.986,467.126,185.613z
			 M462.284,180.45c-10.248-10.924-20.482-21.862-30.701-32.815c8.145-8.963,16.281-17.933,24.407-26.914
			c1.863-2.059,3.72-4.124,5.582-6.185c4.185,4.51,8.37,9.02,12.559,13.525c-0.036,13.186-0.075,26.372-0.147,39.558
			C470.089,171.901,466.183,176.172,462.284,180.45z M466.455,109.126c2.574-2.851,5.148-5.701,7.72-8.554
			c-0.005,5.567,0.007,11.135-0.004,16.703c0,0.047,0,0.094,0,0.142C471.595,114.656,469.027,111.888,466.455,109.126z
			 M462.823,102.716c-0.383,0.424-0.768,0.846-1.151,1.27c-10.238-11.003-20.461-22.019-30.668-33.051
			c10.007-11.098,19.999-22.208,29.977-33.333c4.387,4.758,8.777,9.513,13.168,14.267c0.012,4.859,0.027,9.717,0.034,14.576
			c0.012,7.889-0.005,15.777-0.006,23.665C470.394,94.314,466.616,98.522,462.823,102.716z M453.765,12.65l2.137,0.054
			c4.152,0.106,8.304,0.189,12.456,0.295c2.362,0.06,3.888-0.162,4.764,0.713c-1.381,1.528-2.763,3.055-4.144,4.584
			c-2.652,2.936-5.293,5.882-7.941,8.821c-3.147-3.41-6.304-6.812-9.448-10.225c-1.258-1.366-2.513-2.735-3.77-4.103
			C449.802,12.744,451.784,12.704,453.765,12.65z M413.081,13.22c8.416-0.036,16.831-0.113,25.244-0.248
			c5.965,6.498,11.931,12.995,17.907,19.483c-9.822,10.917-19.647,21.83-29.48,32.738c-1.161-6.748-4.753-12.929-11.147-16.736
			c-2.473-1.472-5.141-2.467-7.936-3.097c-1.839-6.072-5.322-11.12-9.824-15.179C402.928,24.53,408.006,18.876,413.081,13.22z
			 M403.675,13.248c-3.808,4.234-7.616,8.468-11.426,12.701c-1.722-1.093-3.529-2.077-5.403-2.954
			c-2.977-3.243-5.956-6.485-8.929-9.731C386.499,13.259,395.086,13.264,403.675,13.248z M393.622,44.689
			c-8.48,0.716-17.119,2.921-24.443,4.209c-18.073,3.178-35.967,7.039-53.75,11.569c-8.284,2.111-16.613,4.183-24.835,6.577
			c-30.432,7.472-60.714,15.553-90.823,24.239c-30.456,8.786-61.588,16.862-90.59,29.844c-9.954,4.456-20.387,9.471-28.508,16.959
			c-0.942-8.053,0.322-15.482,6.138-22.389c7.142-8.481,17.906-13.174,27.966-17.194c23.148-9.25,46.972-16.751,70.925-23.608
			c50.041-14.327,100.39-28.081,150.792-41.078c12.941-3.337,27.067-6.318,40.153-2.045
			C383.989,34.169,389.874,38.571,393.622,44.689z M150.104,71.336c10.156-11.063,20.294-22.143,30.422-33.232
			c6.2,6.85,12.416,13.686,18.63,20.523c-15.967,4.452-31.86,9.155-47.56,14.348C151.098,72.428,150.6,71.883,150.104,71.336z
			 M242.743,46.867c2.639-2.892,5.279-5.781,7.913-8.677c1.602,1.762,3.208,3.519,4.813,5.278
			C251.232,44.604,246.99,45.737,242.743,46.867z M343.134,13.353c8.392-0.036,16.783-0.06,25.175-0.074
			c1.635,1.789,3.272,3.576,4.908,5.363c-5.184-0.983-10.457-1.295-15.462-0.947c-7.412,0.516-14.704,1.955-21.924,3.75
			C338.266,18.748,340.702,16.052,343.134,13.353z M333.667,13.399c-1.32,1.466-2.638,2.935-3.961,4.398
			c-2.116,2.34-4.236,4.675-6.355,7.011c-1.364,0.385-2.725,0.77-4.086,1.153c-3.775-4.132-7.551-8.262-11.322-12.398
			C316.517,13.497,325.092,13.443,333.667,13.399z M298.454,13.634c4.386,4.82,8.783,9.63,13.178,14.442
			c-13.213,3.636-26.427,7.271-39.639,10.909c-2.936,0.809-5.879,1.608-8.823,2.406c-2.577-2.822-5.156-5.643-7.729-8.469
			c5.76-6.34,11.512-12.686,17.263-19.035C281.287,13.792,289.87,13.708,298.454,13.634z M263.092,14.004
			c-4.14,4.56-8.292,9.107-12.437,13.662c-4.045-4.446-8.1-8.884-12.14-13.335C246.707,14.212,254.899,14.103,263.092,14.004z
			 M229.135,14.468c5.575,6.155,11.153,12.306,16.737,18.452c-5.262,5.779-10.535,11.548-15.806,17.32
			c-7.767,2.069-15.537,4.158-23.298,6.286c-7.167-7.874-14.332-15.749-21.483-23.637c5.464-5.987,10.937-11.965,16.392-17.96
			C210.829,14.762,219.982,14.609,229.135,14.468z M191.955,15.117c-3.808,4.175-7.622,8.345-11.433,12.516
			c-2.971-3.28-5.947-6.554-8.915-9.836c-0.668-0.739-1.334-1.481-2.001-2.222C177.054,15.413,184.504,15.261,191.955,15.117z
			 M160.365,15.776c5.13,5.691,10.261,11.38,15.4,17.063c-10.136,11.083-20.287,22.154-30.453,33.209
			c-6.029-6.646-12.06-13.29-18.078-19.945c-4.023-4.448-8.026-8.914-12.04-13.37c4.952-5.402,9.901-10.807,14.846-16.215
			C140.147,16.255,150.256,16.006,160.365,15.776z M120.172,16.784c-3.252,3.549-6.509,7.092-9.764,10.638
			c-3.031-3.368-6.068-6.732-9.098-10.102C107.598,17.134,113.885,16.955,120.172,16.784z M57.738,18.673
			c10.626-0.345,21.253-0.68,31.879-1.008c0.846-0.026,1.693-0.049,2.539-0.075c4.496,5.007,8.994,10.013,13.495,15.015
			c-3.854,4.196-7.699,8.402-11.558,12.593c-6.325,6.869-12.675,13.716-19.014,20.573C65.067,54.664,55.062,43.55,45.06,32.433
			C49.285,27.846,53.518,23.265,57.738,18.673z M45.204,19.082c0.857-0.029,1.715-0.055,2.572-0.084
			c-2.497,2.71-5.002,5.413-7.501,8.121c-2.288-2.54-4.571-5.085-6.862-7.623C37.314,19.147,41.294,19.214,45.204,19.082z
			 M28.376,24.254c1.522,1.706,3.04,3.416,4.565,5.119c0.862,0.962,1.727,1.921,2.589,2.883c-2.631,2.849-5.26,5.699-7.893,8.546
			C27.653,35.323,27.522,29.48,28.376,24.254z M27.321,51.685c4.337-4.695,8.661-9.402,12.993-14.101
			c9.983,11.131,19.981,22.247,29.993,33.351c-10.206,11.032-20.428,22.049-30.666,33.052c-0.384-0.424-0.768-0.847-1.152-1.271
			C34.317,98.102,30.16,93.475,26,88.85C26.405,76.461,26.849,64.072,27.321,51.685z M25.682,98.96
			c3.056,3.391,6.116,6.778,9.175,10.166c-3.265,3.506-6.524,7.017-9.792,10.52C25.26,112.75,25.467,105.855,25.682,98.96z
			 M24.612,136.102c0.047-1.815,0.101-3.629,0.15-5.444c4.996-5.371,9.987-10.746,14.976-16.123
			c1.862,2.061,3.719,4.126,5.583,6.186c8.126,8.981,16.263,17.952,24.408,26.915c-10.218,10.952-20.452,21.89-30.7,32.815
			c-5.025-5.513-10.056-11.021-15.074-16.541C24.158,154.64,24.373,145.371,24.612,136.102z M23.742,174.132
			c3.478,3.829,6.97,7.644,10.452,11.47c-3.627,3.863-7.252,7.729-10.882,11.589C23.442,189.504,23.586,181.818,23.742,174.132z
			 M23.13,208.257c1.669-1.777,3.339-3.552,5.005-5.332c3.69-3.942,7.364-7.901,11.051-11.846
			c9.98,10.957,19.957,21.917,29.965,32.848c-10.24,10.889-20.499,21.76-30.767,32.624c-5.221-5.687-10.445-11.37-15.659-17.064
			C22.837,229.077,22.97,218.667,23.13,208.257z M22.61,249.866c3.622,3.958,7.255,7.907,10.881,11.861
			c-3.689,3.899-7.368,7.807-11.06,11.703C22.478,265.576,22.537,257.721,22.61,249.866z M22.383,284.485
			c5.413-5.723,10.818-11.453,16.221-17.184c9.978,10.872,19.968,21.733,29.973,32.582C58.33,310.7,48.066,321.502,37.792,332.294
			c-5.158-5.569-10.33-11.125-15.48-16.702C22.311,305.223,22.338,294.854,22.383,284.485z M22.34,326.184
			c3.488,3.782,6.991,7.549,10.482,11.329c-3.453,3.624-6.903,7.251-10.359,10.873C22.401,340.986,22.361,333.585,22.34,326.184z
			 M22.559,359.329c5.15-5.403,10.295-10.812,15.439-16.221c9.985,10.803,19.961,21.615,29.972,32.394
			c-1.253,1.314-2.504,2.631-3.757,3.944c-8.999,9.427-18.03,18.823-27.054,28.227c-4.722-5.057-9.446-10.112-14.162-15.176
			C22.827,381.441,22.675,370.386,22.559,359.329z M23.166,403.339c2.976,3.205,5.968,6.395,8.947,9.598
			c-2.88,2.999-5.75,6.008-8.632,9.006C23.373,415.741,23.268,409.54,23.166,403.339z M23.67,432.853
			c4.569-4.757,9.124-9.527,13.689-14.289c9.996,10.739,19.992,21.478,30.012,32.195c-5.834,6.069-11.664,12.143-17.507,18.203
			c-4.421,4.586-8.854,9.16-13.281,13.74c-4.095-4.35-8.197-8.693-12.287-13.048C24.1,457.386,23.886,445.119,23.67,432.853z
			 M25.241,494.435c-0.194-0.021-0.388-0.038-0.581-0.059c-0.059-4.577-0.131-9.154-0.199-13.731
			c1.664,1.782,3.327,3.565,4.993,5.345c0.648,0.692,1.298,1.382,1.946,2.073C29.346,490.186,27.296,492.313,25.241,494.435z
			 M35.041,495.435c0.555-0.574,1.108-1.148,1.663-1.722c0.653,0.695,1.305,1.391,1.958,2.085
			C37.454,495.686,36.248,495.552,35.041,495.435z M92.276,499.295c-14.176-0.575-28.332-1.399-42.458-2.539
			c-2.644-2.803-5.283-5.612-7.926-8.417c2.323-2.406,4.649-4.809,6.969-7.218c7.931-8.233,15.851-16.477,23.766-24.726
			c0.401,0.428,0.799,0.859,1.2,1.287c9.614,10.271,19.252,20.518,28.899,30.758c-2.831,2.941-5.656,5.888-8.489,8.827
			C93.584,497.944,92.929,498.619,92.276,499.295z M102.606,499.663c1.801-1.873,3.595-3.754,5.396-5.627
			c1.869,1.981,3.736,3.964,5.605,5.944C109.939,499.887,106.272,499.783,102.606,499.663z M124.217,500.216
			c-3.669-3.871-7.333-7.747-10.998-11.622c10.215-10.637,20.434-21.27,30.62-31.934c10.055,10.681,20.128,21.346,30.214,31.997
			c-3.807,3.97-7.606,7.948-11.417,11.916C149.829,500.558,137.02,500.454,124.217,500.216z M173.289,500.566
			c2.018-2.107,4.034-4.216,6.051-6.324c1.984,2.093,3.963,4.192,5.948,6.284C181.289,500.545,177.29,500.559,173.289,500.566z
			 M234.468,500.23c-12.899,0.066-25.818,0.165-38.749,0.242c-3.714-3.902-7.413-7.817-11.124-11.723
			c1.997-2.089,3.998-4.173,5.993-6.263c8.162-8.55,16.315-17.109,24.46-25.676c10.102,10.674,20.221,21.331,30.351,31.978
			c-1.234,1.293-2.464,2.589-3.698,3.882C239.293,495.194,236.88,497.712,234.468,500.23z M245.066,500.183
			c1.864-1.956,3.726-3.915,5.589-5.872c1.852,1.944,3.702,3.891,5.554,5.834C252.495,500.158,248.781,500.17,245.066,500.183z
			 M266.728,500.11c-2.374-2.478-4.749-4.956-7.118-7.439c-1.234-1.293-2.465-2.589-3.698-3.882
			c9.26-9.732,18.507-19.477,27.744-29.231c1.982,0.277,3.966,0.534,5.953,0.766c7.032,7.393,14.068,14.783,21.113,22.163
			c1.995,2.09,3.996,4.175,5.993,6.264c-3.554,3.741-7.1,7.49-10.658,11.228C292.948,500.022,279.838,500.066,266.728,500.11z
			 M316.575,499.943c1.801-1.898,3.596-3.801,5.397-5.7c1.807,1.888,3.612,3.777,5.42,5.664
			C323.786,499.919,320.18,499.931,316.575,499.943z M338.008,499.871c-3.587-3.734-7.164-7.478-10.748-11.216
			c10.086-10.651,20.158-21.316,30.213-31.996c10.186,10.664,20.406,21.295,30.62,31.932c-3.515,3.717-7.031,7.433-10.55,11.147
			C364.364,499.783,351.186,499.827,338.008,499.871z M387.964,499.704c1.783-1.889,3.565-3.78,5.347-5.67
			c1.803,1.876,3.599,3.758,5.402,5.634C395.13,499.68,391.547,499.692,387.964,499.704z M448.897,499.505
			c-0.46,0-0.92-0.002-1.38,0c-12.719,0.043-25.438,0.085-38.156,0.128c-0.762-0.788-1.525-1.576-2.286-2.365
			c-2.833-2.939-5.658-5.885-8.489-8.826c9.647-10.24,19.284-20.488,28.898-30.759c0.401-0.428,0.799-0.858,1.2-1.287
			c7.915,8.249,15.835,16.493,23.766,24.725c2.319,2.407,4.644,4.809,6.965,7.214C455.91,492.059,452.406,495.785,448.897,499.505z
			 M462.337,499.455c-1.053,0.023-2.107,0.035-3.161,0.044c1.812-1.928,3.621-3.858,5.432-5.787c1.202,1.244,2.403,2.49,3.605,3.734
			C467.131,499.74,464.797,499.401,462.337,499.455z M469.143,473.036c-0.045,1.705-0.091,3.41-0.137,5.115
			c-1.426,1.517-2.855,3.031-4.282,4.547c-4.427-4.577-8.857-9.152-13.277-13.736c-5.843-6.06-11.672-12.133-17.506-18.202
			c10.018-10.715,20.019-21.446,30.012-32.184c2.122,2.215,4.24,4.432,6.363,6.646C469.95,441.16,469.562,457.098,469.143,473.036z
			 M470.556,414.368c-0.453-0.472-0.905-0.946-1.358-1.418c0.473-0.508,0.947-1.014,1.42-1.523
			C470.597,412.408,470.578,413.388,470.556,414.368z M470.85,400.468c-2.238,2.399-4.479,4.795-6.718,7.193
			c-9.018-9.399-18.038-18.794-27.032-28.216c-1.256-1.316-2.509-2.635-3.764-3.951c10.011-10.78,19.999-21.581,29.985-32.384
			c2.828,2.974,5.653,5.949,8.483,8.921C471.512,368.177,471.194,384.323,470.85,400.468z M471.994,341.187
			c-1.166-1.223-2.329-2.448-3.494-3.671c1.207-1.308,2.42-2.61,3.628-3.918C472.085,336.128,472.037,338.658,471.994,341.187z
			 M472.356,320.582c-0.012,0.75-0.027,1.499-0.04,2.249c-2.922,3.161-5.859,6.308-8.784,9.466
			c-3.944-4.143-7.88-8.294-11.818-12.444c6.154-2.654,12.267-5.402,18.329-8.263c0.808-0.382,1.629-0.768,2.457-1.16
			C472.454,313.814,472.41,317.198,472.356,320.582z M486.208,287.19c-4.545,5.508-11.576,8.645-17.869,11.674
			c-8.476,4.079-17.054,7.955-25.725,11.601c-4.275,1.797-8.576,3.534-12.894,5.224c-1.635,0.64-3.24,1.188-4.759,1.818
			c-3.252-18.093-10.398-35.127-20.5-50.086c7.303-2.383,14.022-6.659,20.843-10.151c8.186-4.19,16.392-8.379,24.771-12.175
			c7.308-3.311,16.654-7.189,23.849-1.609c5.903,4.577,9.127,12.816,11.947,19.461C489.159,270.695,492.193,279.937,486.208,287.19z
			"/>
	</g>
</g>
<g>
	<g>
		<path d="M397.452,344.517c-0.679-4.739-2.143-9.276-4.387-13.515c-0.94-1.776-2.586-3.592-3.173-5.519
			c-0.762-2.502,0.553-5.772,0.943-8.34c1.463-9.638,0.789-19.711-3.748-28.496c-3.987-7.721-11.234-14.167-19.694-16.476
			c-1.905-0.52-4.366-0.343-6.225-1.038c0.101-0.111,0.18-0.302,0.206-0.608c0.089-1.033-0.116-2.096-0.231-3.121
			c-0.501-4.474-1.742-8.718-3.746-12.756c-4.195-8.452-11.602-14.734-20.422-17.924c-4.087-1.478-8.648-2.199-12.992-2.067
			c-5.22,0.16-9.602,2.118-14.611,3.129c-4.815,0.971-10.396-2.288-15.261-2.993c-4.925-0.714-9.845-0.635-14.758,0.13
			c-9.56,1.488-18.141,6.103-24.623,13.206c-6.337,5.889-10.62,13.796-11.236,22.488c-11.378,3.976-21.365,11.941-25.841,23.415
			c-2.451,6.284-2.999,13.343-1.438,19.913c0.473,1.988,3.318,6.968,3.182,7.898c0,0-2.139,2.586-2.542,3.256
			c-0.991,1.646-1.803,3.369-2.542,5.14c-5.426,13.013-3.543,28.128,5.027,39.336c1.947,2.547,4.107,4.804,6.608,6.81
			c1.224,0.981,2.504,1.849,3.789,2.744c1.978,1.378,1.354,0.427,0.88,2.52c-1.522,6.716-1.804,13.131,0.725,19.683
			c5.189,13.444,18.044,19.907,31.547,18.453c13.358,17.137,37.979,18.225,53.132,3.218c13.098,5.085,28.125,4.639,40.153-3.33
			c11.322-7.5,18.281-19.884,19.331-33.253C390.814,378.551,399.936,361.856,397.452,344.517z M384.498,358.78
			c-2.376,7.948-8.642,14.968-16.373,18.072c-2.509,1.008-4.328,2.898-4.372,5.742c-0.353,23.11-25.229,39.458-46.269,28.417
			c-2.079-1.09-5.426-1.137-7.055,0.91c-10.582,13.304-30.599,13.964-40.323-0.785c-1.376-2.088-3.714-3.109-6.171-2.511
			c-6.267,1.525-13.757-0.832-18.134-5.517c-5.329-5.704-5.305-12.695-3.444-19.736c1.974-7.474-1.711-10.858-7.412-14.728
			c-5.813-3.947-10.076-10.124-11.626-16.987c-1.653-7.321,0.018-15.113,4.128-21.344c1.757-2.663,4.126-4.943,4.215-8.361
			c0.099-3.808-2.928-6.846-3.931-10.344c-4.451-15.529,9.508-27.305,22.673-31.625c2.068-0.679,4.335-2.871,4.033-5.297
			c-1.427-11.495,7.104-21.311,17.287-25.531c6.151-2.549,12.6-3.148,19.124-3.118c3.644,0.637,7.235,1.672,11.101,2.79
			c8.149,2.358,14.832-2.226,22.864-2.146c8.044,0.08,15.712,3.935,20.198,10.676c2.026,3.044,3.419,6.464,3.996,10.083
			c0.611,3.831-0.243,7.777,2.201,11.122c4.422,6.052,13.35,3.978,19.087,8.368c6.656,5.094,9.283,13.434,9.234,21.555
			c-0.049,8.23-4.105,16.122,0.178,23.897C384.417,340.932,387.445,348.923,384.498,358.78z"/>
	</g>
</g>
<g>
	<g>
		<path d="M396.649,75.047c-0.829-9.9-17.416-10.677-24.642-10.213c-11.401,0.733-22.146,5.118-32.245,10.19
			c-11.214,5.631-22.332,12.136-34.781,14.608c-13.172,2.616-26.477-1.959-39.651,0.911c-23.857,5.198-42.077,30.816-67.755,28.426
			c-6.601-0.614-12.935-3.1-19.649-2.531c-4.684,0.397-9.073,2.146-13.101,4.506c-8.445,4.946-15.334,13.301-24.818,16.356
			c-10.907,3.514-23.012-7.409-32.661,1.939c-6.158,5.967-2.617,12.565,3.458,16.773c6.855,4.749,15.288,6.429,23.528,6.243
			c10.857-0.246,19.47-5.289,27.835-11.74c3.862-2.978,7.698-6.097,12.033-8.377c6.165-3.242,12.535-3.128,19.287-2.331
			c10.693,1.261,20.173,1.406,30.388-2.427c18.589-6.975,33.731-21.783,53.182-26.584c12.038-2.971,23.563,1.69,35.627,0.95
			c10.736-0.659,20.881-4.584,29.307-11.249c4.485-3.547,8.542-7.876,13.699-10.478c6.072-3.064,12.902-2.248,19.459-2.209
			C382.786,87.855,397.568,86.021,396.649,75.047z M386.06,79.491c-2.466,1.184-5.446,1.334-8.141,1.416
			c-5.539,0.169-11.092-0.493-16.61,0.234c-10.572,1.394-16.87,8.704-24.99,14.719c-8.571,6.35-19.171,9.373-29.793,8.65
			c-10.26-0.698-19.733-3.185-30.007-0.944c-17.06,3.722-31.017,15.291-46.23,23.158c-9.171,4.743-18.723,7.749-29.137,6.874
			c-11.779-0.989-21.874-2.917-32.548,3.478c-8.83,5.291-15.833,13.771-25.883,16.912c-9.861,3.082-19.579,1.003-28.547-3.256
			c-2.983-2.439-4.676-5.364-0.386-7.701c5.096-2.776,11.793,0.954,17.041,1.753c7.603,1.157,14.57-1.585,20.801-5.771
			c6.4-4.3,12.021-9.849,18.975-13.299c9.855-4.89,19.46,0.264,29.674,0.37c21.885,0.227,37.966-16.854,56.703-25.366
			c11.885-5.399,23.114-3.752,35.694-3.261c10.465,0.408,20.16-2.139,29.686-6.324c18.837-8.272,40.631-25.603,62.457-18.364
			c0.687,0.228,3.208,0.868,3.748,1.529C390.75,76.971,387.739,78.685,386.06,79.491z"/>
	</g>
</g>
<g>
</g>
<g>
</g>
<g>
</g>
<g>
</g>
<g>
</g>
<g>
</g>
<g>
</g>
<g>
</g>
<g>
</g>
<g>
</g>
<g>
</g>
<g>
</g>
<g>
</g>
<g>
</g>
<g>
</g>
</svg>
