<?xml version="1.0" encoding="iso-8859-1"?>
<!-- Generator: Adobe Illustrator 19.0.0, SVG Export Plug-In . SVG Version: 6.00 Build 0)  -->
<svg version="1.1" id="Capa_1" xmlns="http://www.w3.org/2000/svg" xmlns:xlink="http://www.w3.org/1999/xlink" x="0px" y="0px"
	 viewBox="0 0 511.999 511.999" style="enable-background:new 0 0 511.999 511.999;" xml:space="preserve">
<g>
	<g>
		<path d="M490.399,330.001c-4.263-4.395-9.303-7.215-14.724-8.854c-6.682-2.802-14.284-3.801-21.309-3.74
			c-12.259,0.107-22.915-6.433-35.116-1.546c-1.928,0.772-3.746,1.758-5.427,2.915c-0.616-3.302-2.178-6.524-4.228-9.069
			c-4.567-5.67-10.296-7.236-16.913-7.961c-1.169-1.64-1.918-3.572-3.629-5.012c-1.828-1.539-3.939-2.655-6.196-3.434
			c-4.951-1.709-10.651-1.791-15.561,0.09c-2.292,0.878-4.434,2.196-6.097,4.017c-0.424,0.465-0.805,0.979-1.147,1.517
			c-1.636-3.554-5.653-5.922-8.397-8.563c-2.734-2.63-5.089-5.896-8.017-8.354c0.363-1.522,0.638-3.071,0.806-4.649
			c0.855-8.075-1.565-16.211-7.237-22.109c-3.779-3.928-10.422-7.936-16.177-6.927c-0.402-1.367-0.852-2.71-1.309-4.013
			c-2-5.701-4.273-13.329-8.75-17.993c1.807-1.996,3.237-4.409,4.179-7.145c2.004-5.821,2.315-14.987-1.818-20.214
			c0.462-0.579,0.902-1.176,1.304-1.801c5.809-9.034,4.585-27.269-6.54-31.523c7.232-11.796,8.166-27.346,6.853-40.697
			c-1.684-17.124-7.304-33.354-14.037-49.086c-6.272-14.658-12.906-29.665-22.886-42.226c-9.427-11.867-22.195-20.116-36.284-25.425
			C214.13-2.207,181.353-2.511,153.256,6.17c-28.174,8.705-51.262,27.644-64.847,53.871c-13.15,25.386-18.845,56.353-15.454,84.767
			c1.625,13.618,5.523,27.31,13.63,38.562c2.007,2.785,4.411,5.633,7.114,8.237c-4.449,4.787-5.974,13.324-4.209,19.017
			c1.17,3.775,3.452,6.866,6.378,9.182c-2.942,4.931-3.383,11.394-0.063,16.325c1.252,1.86,2.951,3.41,4.903,4.642
			c-3.947,4.168-5.994,10.027-7.955,15.405c-1.396,3.829-2.897,8.185-3.55,12.558c-8.458,0.337-19.031,9.593-22.183,15.858
			c-4.818,9.577-1.07,21.233,4.177,29.793c-3.168,1.62-5.993,4.281-8.463,6.554c-4.983,4.586-9.542,9.698-13.822,14.939
			c-3.997,4.895-7.737,10.021-11.095,15.377c-1.966,3.136-5.34,7.667-6.186,11.913c-3.635,1.671-7.029,3.971-10.032,7.066
			c-5.003,5.157-8.863,13.076-5.757,20.195c0.983,2.253,2.456,3.949,4.233,5.203c-1.981,8.881-0.505,19.093-0.014,27.898
			c0.588,10.554,1.331,21.1,2.225,31.632c1.412,16.628,1.211,36.667,20.084,42.882c8.748,2.881,18.79,2.595,27.86,2.091
			c8.174-0.454,16.618-1.376,24.326-4.283c7.006-2.643,13.385-6.703,17.512-13.094c1.49-2.307,2.526-4.78,3.251-7.347
			c7.605,2.005,16.412,2.093,24.666,0.916c7.77,15.43,25.881,23.344,41.648,28.164c21.046,6.435,43.539,8.826,65.459,6.81
			c16.821-1.548,36.168-6.39,44.571-22.706c10.154-19.716,0.89-43.145-2.8-63.351c-2.297-12.58-3.909-25.343-3.577-38.155
			c0.135-5.202,0.669-10.344,1.478-15.469c2.587-7.329,5.029-14.665,9.996-20.959c3.728-4.724,7.91-9.163,11.258-14.083
			c2.678,5.069,7.168,9.885,10.659,13.537c4.091,4.28,8.833,8.388,14.336,10.705c-0.029,0.702-0.065,1.404-0.093,2.106
			c-0.332,8.302-0.56,16.608-0.774,24.914c-0.185,7.181-1.301,15.191,0.468,22.245c3.065,12.226,16.902,20.072,28.066,23.505
			c10.831,3.331,24.737,4.557,36.002,1.586c0.725,2.568,1.761,5.04,3.251,7.347c4.127,6.39,10.506,10.451,17.512,13.094
			c7.709,2.908,16.153,3.83,24.326,4.283c9.07,0.504,19.111,0.79,27.86-2.091c18.873-6.215,18.672-26.254,20.084-42.882
			c0.895-10.533,1.637-21.078,2.225-31.632c0.491-8.806,1.966-19.017-0.014-27.898c1.776-1.254,3.25-2.95,4.233-5.203
			C499.263,343.076,495.402,335.158,490.399,330.001z M311.104,251.578c0.675,2.568,2.475,9.693-1.668,10.586
			c-4.533,0.976-6.39-7.115-7.208-10.123c-0.897-3.296-5.143-4.375-7.55-1.993c-1.67,1.652-7.012,8.524-9.317,7.793
			c-2.433-0.772,0.833-9.117,1.55-11.335c1.418-4.384,4.675-9.673,5.831-14.703c1.518,0.321,3.058,0.488,4.572,0.493
			c2.174,0.007,4.226-0.342,6.127-0.99c0.689,2.119,1.731,4.11,2.707,6.299C308.16,242.115,309.848,246.8,311.104,251.578z
			 M224.952,310.931c-1.187-5.855-3.957-15.598-9.941-18.223c-0.535-0.235-1.294-0.094-1.436,0.584
			c-1.149,5.486,1.927,12.412,2.606,17.929c0.68,5.529,0.009,10.997-0.004,16.468c-7.057,0.325-14.17-1.23-20.462-5.016
			c-14.114-8.491-16.657-26.285-22.674-40.266c-1.796-4.173-4.108-8.205-6.876-11.826c5.568-3.657,8.998-9.762,10.305-16.474
			c0.689-3.539,0.94-8.303,0.102-12.632c3.313,0.968,6.684,1.743,10.096,2.297c19.831,3.217,40.118-0.721,57.572-10.127
			c-1.47,6.489,0.142,13.998,4.363,18.883c3.393,3.926,8.68,6.521,13.619,6.103c-0.478,4.983-0.361,10.169-0.826,14.609
			c-1.855,17.705-7.75,35.325-22.582,46.345c-3.886,2.887-8.253,5.062-12.834,6.441
			C226.532,321.004,225.928,315.747,224.952,310.931z M131.03,213.22c0.488-0.784,0.936-1.626,1.344-2.504
			c3.86,5.825,8.799,10.861,14.252,15.205c6.047,4.817,12.735,8.823,19.826,11.896c-0.107,4.151,1.13,8.607,0.044,12.728
			c-1.299,4.928-4.28,8.79-7.252,12.747c-6.107-5.107-13.531-8.255-21.941-7.883c-2.005-6.823-5.064-13.407-8.165-19.089
			c1.004-1.313,1.857-2.755,2.512-4.311C133.954,226.537,134.517,218.428,131.03,213.22z M132.441,192.743
			c5.248-6.982,7.417-16.675,8.959-24.94c3.012-16.149,4.833-32.712,13.353-47.12c8.476-14.334,21.876-22.625,34.26-33.138
			c5.74-4.873,10.944-10.771,14.356-17.438c11.493,24.207,52.428,10.603,63.491,35.951c2.88,6.599,3.88,13.956,5.473,20.929
			c1.849,8.094,4.621,15.893,7.859,23.528c1.628,3.839,3.355,7.631,5.141,11.399c0.676,1.427,1.312,2.99,2.007,4.535
			c-0.088,0.108-0.183,0.202-0.266,0.321c-5.078,7.266-8.2,15.873-12.86,23.46c-4.426,7.206-9.517,13.973-15.51,19.954
			c-12.021,11.998-27.505,20.142-44.192,23.296c-16.296,3.08-33.784,0.688-48.65-6.674c-7.143-3.537-13.732-8.072-19.425-13.661
			c-2.976-2.921-5.732-6.031-7.972-9.555c-1.331-2.095-2.932-4.468-4.324-6.879C133.783,195.298,133.235,193.956,132.441,192.743z
			 M256.539,245.887c-4.609-4.257-2.856-11.464-4.178-17.151c5.617-3.79,10.847-8.179,15.55-13.115
			c4.874-5.115,9.227-10.75,13.118-16.66c0.531,0.605,1.125,1.181,1.758,1.73c-4.654,4.261-6.092,13.239-4.662,18.633
			c1.082,4.082,3.795,7.284,7.24,9.487c-2.35,2.974-3.89,6.959-5.211,10.08c-0.491,1.161-1.017,2.374-1.54,3.624
			c-4.888-2.53-10.59-0.229-13.428,4.912c-0.318,0.575-0.593,1.177-0.851,1.789c-0.023-0.011-0.042-0.022-0.065-0.032
			C261.677,247.99,258.711,247.893,256.539,245.887z M288.119,204.185c2.804,1.383,5.778,2.274,8.32,2.499
			c3.124,0.276,6.168-0.309,8.94-1.532c0.513,2.322,1.111,4.656,0.941,7.087c-0.374,5.365-3.165,10.233-9.006,10.406
			c-5.159,0.152-10.399-2.797-10.919-8.237C286.073,211.036,287.621,207.552,288.119,204.185z M306.593,191.605
			c-3.156,4.985-8.495,6.396-13.69,3.598c-2.292-1.234-4.378-3.267-6.713-4.572c3.015-5.082,5.945-10.469,7.776-16.042
			c3.545,1.43,7.217-0.63,10.097-3.585C307.26,177.707,311.3,184.17,306.593,191.605z M84.065,151.274
			c-4.881-24.655-0.889-52.185,8.286-75.389c9.521-24.078,26.755-43.571,50.271-54.65c23.749-11.189,51.999-13.401,77.617-8.541
			c13.136,2.492,25.988,6.96,36.979,14.719c11.525,8.136,19.047,20.032,25.222,32.468c12.926,26.031,26.874,57.242,21.38,87.003
			c-0.612,3.317-1.468,6.7-2.828,9.795c-0.652,1.483-1.437,2.951-2.326,4.305c-0.312,0.508-0.648,0.998-1.007,1.47
			c-1.273-2.518-3.224-5.812-3.653-6.721c-1.992-4.227-3.93-8.482-5.65-12.828c-2.922-7.383-5.027-14.88-6.618-22.652
			c-1.371-6.698-2.699-13.391-5.534-19.657c-5.957-13.168-18.119-18.963-31.583-22.031c-12.536-2.857-27.639-4.778-34.778-17.072
			c-0.706-1.216-1.736-1.866-2.833-2.091c0.519-3.028,0.631-6.163,0.243-9.389c-0.798-6.637-3.592-11.278-8.873-15.31
			c-2.184-1.668-4.784,1.484-3.58,3.58c16.292,28.359-24.342,46.296-39.383,62.65c-9.367,10.185-15.874,22.481-19.455,35.822
			c-3.613,13.458-4.134,27.738-8.452,40.995c-1.476,4.532-3.71,9.87-8.093,12.328c-6.615,3.71-14.099-1.503-18.842-5.986
			C91.361,175.384,86.489,163.519,84.065,151.274z M97.661,208.585c-1.717-3.785-0.597-8.604,1.196-12.637
			c6.925,5.018,15.135,7.779,23.525,4.558c0.46-0.176,0.905-0.369,1.341-0.57c0.166,2.24,0.166,4.475-0.74,6.751
			c-1.999,5.019-7.101,8.196-12.36,8.665C105.435,215.815,99.892,213.504,97.661,208.585z M100.619,222.642
			c2.601,1.145,5.434,1.829,8.316,1.986c5.009,0.273,10.075-1.128,14.351-3.778c0.323,1.876,0.515,3.766,0.013,5.765
			c-0.973,3.875-3.758,6.735-7.606,7.875c-3.972,1.176-9.062,0.204-12.168-2.686C100.996,229.451,100.582,226.04,100.619,222.642z
			 M98.697,272.207c0.152-10.151,6.736-19.053,8.251-28.764c2.867,0.759,5.844,0.995,8.548,0.671
			c2.077-0.249,4.076-0.828,5.94-1.676c3.301,9.402,8.764,17.977,8.513,28.394c-0.068,2.839-2.296,15.782-7.232,11.396
			c-3.748-3.331-1.684-10.44-5.243-14.212c-2.686-2.847-6.226-2.508-9.189-0.355c-2.244,1.63-4.298,3.599-6.415,5.389
			C99.191,275.315,98.624,277.115,98.697,272.207z M75.075,289.692c2.391-6.142,9.249-8.485,14.297-12.157
			c0.158,0.682,0.342,1.358,0.586,2.021c2.233,6.064,8.402,7.994,13.738,4.501c2.068-1.354,5.787-3.792,7.455-5.999
			c0.406,1.813,0.75,3.605,1.416,5.354c2.029,5.328,6.714,9.862,12.755,9.401c6.106-0.466,10.197-5.792,12.257-11.122
			c1.708,5.93,3.032,11.955,3.28,18.14c0.251,6.264-0.005,12.47-1.48,18.586c-1.197,4.963-4.091,9.32-5.673,14.055
			c-1.56,0.212-3.097,0.556-4.565,1.063c-1.23,0.425-2.41,0.96-3.531,1.599c-2.149-0.948-4.685-1.019-7.346-1.504
			c-4.892-0.891-9.751-2.227-14.354-4.12c-8.346-3.433-15.964-8.706-21.583-15.816C77.491,307.576,71.958,297.698,75.075,289.692z
			 M45.296,357.678c3.516-5.326,7.132-10.557,11.095-15.566c3.675-4.644,7.64-9.004,11.717-13.293
			c2.331-2.453,5.396-5.11,7.598-8.125c5.28,6.42,11.954,11.733,19.292,15.562c5.334,2.783,11.09,4.863,16.944,6.237
			c0.559,0.131,1.153,0.281,1.768,0.435c-4.283,1.061-8.086,3.014-11.308,7.014c-2.05,2.545-3.612,5.767-4.228,9.069
			c-1.68-1.156-3.499-2.143-5.427-2.915c-12.201-4.888-22.858,1.652-35.116,1.546c-4.26-0.037-8.729,0.324-13.079,1.232
			C44.802,358.457,45.049,358.052,45.296,357.678z M23.896,382.692c0.928-4.316,4.613-7.925,8.33-10.375
			c7.246-3.244,14.019-5.141,22.537-4.568c4.286,0.288,8.545,0.47,12.797-0.289c4.488-0.801,8.721-2.863,13.321-2.99
			c6.769-0.187,14.824,3.471,16.883,10.424c2.049,6.917-2.181,13.694-8.45,16.415c-2.623,1.139-2.378,4.706-0.836,6.488
			c7.09,8.197,4.343,24.878-3.44,31.841c-4.935,4.416-10.575,3.764-12.78-2.829c-1.931-5.773-0.795-12.39-2.064-18.372
			c-0.342-1.612-2.303-3.255-4.018-3.059c-2.995,0.342-5.966,0.614-8.921,1.237c-3.687,0.778-7.723,2.281-11.539,1.578
			c-7.481-1.378-4.417-10.21-6.557-15.569c-0.711-1.781-2.386-3.73-4.578-3.485C29.678,389.685,22.379,389.747,23.896,382.692z
			 M96.04,484.457c-12.495,7.025-30.68,7.425-44.528,5.703c-8.177-1.017-14.661-4.412-16.94-12.749
			c-2.13-7.789-2.231-16.277-2.936-24.286c-0.897-10.194-1.652-20.4-2.263-30.615c-0.454-7.582-0.101-16.283-1.744-24.065
			c1.024,0.153,2.063,0.247,3.102,0.282c0.263,3.147-0.151,6.401,0.871,9.486c1.268,3.831,4.369,6.78,7.948,8.465
			c7.457,3.511,15.823,1.467,23.323-1.357c0.714,7.32,0.122,15.026,5.132,21.022c5.375,6.433,14.122,6.391,20.682,1.799
			c6.694-4.686,10.653-12.464,11.701-20.449c0.955-7.274-0.774-13.746-3.4-20.224c1.339-0.605,2.579-1.37,3.718-2.257
			c0.953,5.913,2.108,11.811,2.876,17.735c1.14,8.8,1.985,17.64,2.562,26.494C107.107,454.224,111.445,475.796,96.04,484.457z
			 M105.916,364.334c0.341-4.208,2.381-9.024,6.079-11.34c4.137-2.591,10.44-0.269,13.602-4.006c1.403-1.659,1.74-3.766,3.518-5.201
			c1.952-1.576,4.84-2.229,7.283-2.32c2.088-0.078,4.707,0.173,6.471,1.431c2.116,1.509,1.647,3.546,2.991,5.53
			c2.966,4.377,7.484,2.152,11.724,2.611c7.476,0.808,8.077,6.634,5.098,12.48c-2.544,4.992-5.923,9.571-7.17,15.173
			c-0.57,2.559-1.152,4.018-3.275,5.562c-2.825,2.055-4.032,1.543-4.057,5.673c-0.021,3.424,4.352,13.327-3.702,10.752
			c-2.716-0.87-4.559-3.8-5.631-6.224c-1.069-2.417-1.855-5.178-2.259-7.797c-0.323-2.089-0.054-3.884-1.355-5.68
			c-2.364-3.26-6.344-3.071-9.878-2.242c-5.241,1.229-9.205,0.821-13.245-3.184c-0.925-0.917-1.799-1.684-2.585-2.411
			C107.111,370.906,105.535,369.039,105.916,364.334z M116.819,465.153c0.123-2.791,0.086-5.592,0.028-8.326
			c-0.259-12.281-1.059-24.552-2.382-36.764c-1.219-11.255-2.206-23.182-5.197-34.161c4.126,3.119,9.353,4.475,14.773,3.523
			c1.036-0.182,4.304-1.85,5.172-1.588c-0.646-0.195-0.003,2.861,0.049,3.316c0.471,4.123,1.515,8.305,3.852,11.793
			c3.799,5.672,11.604,9.674,18.265,6.664c4.439-2.006,6.776-5.668,6.396-10.434c-0.32-4.015-3.445-9.568,0.816-12.503
			c2.075-1.429,3.794-1.003,4.957-4.035c1.75-4.562,1.085-9.539,4.513-13.509c0.16,2.133,0.391,4.204,0.474,6.026
			c0.33,7.259,0.64,14.52,0.897,21.782c0.512,14.522,0.885,29.068,0.751,43.6c-0.062,6.756-1.608,11.275-6.882,15.679
			c-4.282,3.576-9.384,6.111-14.704,7.723C137.721,467.237,127.705,465.87,116.819,465.153z M301.454,325.485
			c-4.307,9.016-12.84,15.356-17.951,23.908c-3.428,5.735-5.211,12.202-5.658,18.774c-2.624,11.049-2.775,23.178-2.358,33.324
			c0.423,10.291,1.856,20.51,3.63,30.647c1.818,10.388,4.725,20.824,5.417,31.367c0.582,8.856-0.542,18.358-7.073,24.955
			c-5.543,5.599-13.331,8.144-20.881,9.669c-18.985,3.834-39.733,2.54-58.556-1.519c-9.799-2.113-19.733-4.903-28.729-9.398
			c-6.983-3.489-12.509-8.057-17.657-13.484c11.109-3.483,24.714-11.294,27.75-23.405c1.768-7.054,0.653-15.064,0.468-22.245
			c-0.214-8.306-0.443-16.611-0.774-24.914c-0.332-8.303-0.72-16.605-1.257-24.897c-0.423-6.538,0.532-16.675-4.054-21.941
			c-0.195-4.717-2.773-8.953-6.874-11.453c-3.804-2.319-9.033-3.461-13.558-2.739c-0.146-0.518-0.333-1.022-0.58-1.504
			c-0.505-1.064-1.16-2.112-1.96-2.988c-1.663-1.821-3.805-3.14-6.097-4.017c-1.036-0.397-2.113-0.687-3.205-0.913
			c2.098-2.661,3.552-6.009,4.729-8.983c2.752-6.954,4.366-14.675,4.407-22.167c0.04-7.303-1.172-14.833-3.811-21.648
			c-1.407-3.634-3.563-9.451-7.26-11.965c-0.104-2.041-0.358-4.096-0.73-6.148c6.369,2.309,12.595,5.507,17.215,10.393
			c5.393,5.702,8.317,13.109,10.809,20.422c4.777,14.019,9.249,28.532,22.078,37.332c26.355,18.079,60.097,2.32,73.672-23.677
			c4.536-8.688,6.87-18.059,8.17-27.727c0.682-5.075,1.116-10.173,1.543-15.274c0.202-2.41-0.127-12.081,3.568-13.199
			c-0.852,3.066-1.305,6.173-0.905,9.138c0.609,4.517,3.829,8.604,8.277,9.34c2.983,8.247,9.244,15.705,13.357,23.182
			C302.087,301.677,306.706,314.49,301.454,325.485z M307.286,290.782c-2.898-5.414-6.395-10.496-9.854-15.561
			c-2.012-2.945-3.866-6.073-5.922-9.03c1.453-1.04,2.814-2.309,4.094-3.658c1.635,4.22,4.286,7.854,8.95,9.586
			c6.323,2.348,12.747-0.416,15.985-6.229c1.621-2.91,2.139-6.032,2.018-9.19c3.576,1.311,6.908,2.746,9.479,6.336
			c3.927,5.483,3.78,12.559,1.625,18.702c-2.324,6.627-7.036,11.77-12.19,16.362c-2.388,2.128-5.744,4.146-8.624,6.468
			C311.575,299.786,309.624,295.15,307.286,290.782z M338.229,316.091c-4.587,5.266-3.631,15.403-4.054,21.941
			c-0.228,3.53-0.418,7.062-0.6,10.594c-3.136-2.068-6.147-4.284-8.914-7.037c-4.08-4.06-7.537-9.833-12.263-13.272
			c0.578-1.543,1.056-3.145,1.381-4.837c0.478-2.497,0.676-4.996,0.659-7.482c2.955-0.927,5.635-3.154,8.056-4.961
			c3.926-2.931,7.671-6.068,10.875-9.788c2.495-2.897,4.703-6.041,6.492-9.392c1.536,1.953,3.289,3.762,4.872,5.429
			c1.562,1.645,3.348,3.643,5.355,5.222c-1.793,0.505-3.498,1.224-4.983,2.129C341.002,307.137,338.424,311.374,338.229,316.091z
			 M397.533,379.829c-1.322,12.212-2.123,24.483-2.382,36.764c-0.058,2.734-0.096,5.535,0.028,8.326
			c-10.886,0.717-20.902,2.083-31.776-1.213c-5.32-1.613-10.422-4.147-14.704-7.723c-5.275-4.405-6.82-8.924-6.882-15.679
			c-0.154-16.706,1.76-33.638,1-50.154c-0.23-5.007,0.42-10.219,0.647-15.228c0.083-1.822,0.313-3.893,0.474-6.026
			c3.428,3.97,2.763,8.947,4.513,13.509c1.163,3.033,2.882,2.606,4.957,4.035c4.261,2.935,1.136,8.488,0.816,12.503
			c-0.38,4.766,1.956,8.428,6.396,10.434c6.661,3.01,14.466-0.992,18.265-6.664c2.336-3.488,3.381-7.67,3.852-11.793
			c0.052-0.454,0.694-3.511,0.049-3.316c0.868-0.262,4.136,1.406,5.172,1.587c5.42,0.953,10.647-0.404,14.773-3.522
			C399.739,356.647,398.752,368.574,397.533,379.829z M402.475,332.906c-0.786,0.728-1.661,1.495-2.585,2.411
			c-4.04,4.006-8.004,4.413-13.245,3.184c-3.533-0.829-7.514-1.019-9.878,2.242c-1.302,1.796-1.033,3.591-1.355,5.68
			c-0.405,2.619-1.19,5.381-2.259,7.797c-1.072,2.424-2.915,5.354-5.631,6.224c-8.054,2.576-3.68-7.328-3.702-10.752
			c-0.026-4.131-1.233-3.619-4.057-5.674c-2.123-1.544-2.705-3.003-3.275-5.562c-1.247-5.601-4.626-10.18-7.17-15.172
			c-2.979-5.846-2.378-11.672,5.098-12.48c4.239-0.458,8.758,1.767,11.724-2.611c1.344-1.984,0.875-4.022,2.991-5.53
			c1.764-1.258,4.383-1.509,6.471-1.431c2.443,0.091,5.332,0.744,7.283,2.32c1.778,1.436,2.115,3.543,3.518,5.201
			c3.161,3.737,9.464,1.415,13.602,4.006c3.698,2.316,5.738,7.132,6.079,11.34C406.464,328.805,404.887,330.672,402.475,332.906z
			 M482.625,382.276c-0.611,10.215-1.366,20.421-2.263,30.615c-0.705,8.009-0.806,16.497-2.936,24.286
			c-2.279,8.336-8.763,11.732-16.941,12.748c-13.848,1.721-32.033,1.322-44.528-5.703c-15.405-8.661-11.067-30.232-10.103-45.016
			c0.577-8.854,1.422-17.694,2.562-26.493c0.768-5.924,1.922-11.822,2.876-17.735c1.14,0.887,2.379,1.652,3.719,2.257
			c-2.626,6.479-4.354,12.95-3.4,20.225c1.048,7.986,5.007,15.763,11.701,20.449c6.56,4.593,15.308,4.635,20.682-1.799
			c5.009-5.996,4.417-13.702,5.132-21.022c7.5,2.824,15.865,4.867,23.323,1.356c3.58-1.685,6.68-4.634,7.948-8.465
			c1.021-3.085,0.608-6.339,0.871-9.487c1.038-0.035,2.077-0.129,3.102-0.282C482.726,365.992,483.079,374.693,482.625,382.276z
			 M477.415,348.905c-2.192-0.245-3.867,1.704-4.578,3.485c-2.14,5.36,0.924,14.192-6.557,15.569
			c-3.816,0.703-7.852-0.801-11.539-1.578c-2.955-0.623-5.926-0.895-8.921-1.237c-1.714-0.196-3.676,1.447-4.018,3.059
			c-1.269,5.982-0.133,12.599-2.064,18.372c-2.205,6.592-7.844,7.244-12.78,2.829c-7.783-6.963-10.53-23.644-3.44-31.841
			c1.542-1.783,1.787-5.35-0.836-6.488c-6.269-2.722-10.499-9.498-8.45-16.416c2.06-6.952,10.115-10.61,16.883-10.423
			c4.6,0.127,8.832,2.189,13.32,2.99c4.253,0.759,8.512,0.578,12.797,0.289c8.518-0.573,15.291,1.324,22.537,4.569
			c3.717,2.449,7.402,6.058,8.33,10.374C489.619,349.513,482.32,349.452,477.415,348.905z"/>
	</g>
</g>
<g>
	<g>
		<path d="M237.842,147.155c-0.23-5.475-3.625-9.793-8.554-11.97c-4.813-2.126-12.208-2.751-15.993,1.658
			c-1.555,1.811-0.411,4.126,1.823,4.402c4.215,0.521,14.488-0.84,13.806,6.37c-0.674,7.141-10.95,3.437-14.9,6.373
			c-1.357,1.009-2.109,2.743-1.138,4.341c3.242,5.335,12.293,3.845,17.083,1.638C234.975,157.66,238.075,152.711,237.842,147.155z"
			/>
	</g>
</g>
<g>
	<g>
		<path d="M263.265,166.299c0.086-1.612-1.921-2.952-3.506-2.697c-7.291,1.173-13.659,5.482-20.538,8.032
			c-6.738,2.497-13.694,4.543-20.844,5.42c-6.801,0.835-13.754,0.68-20.49-0.589c-6.709-1.264-12.899-4.118-19.559-5.534
			c-1.783-0.379-3.112,0.757-3.37,2.177c-3.253,5.279-1.627,12.565-0.282,18.296c1.601,6.826,4.414,14.129,9.312,19.295
			c9.2,9.702,25.91,11.5,38.478,9.803c13.179-1.778,24.819-8.508,32.309-19.584c3.715-5.495,6.276-11.834,7.966-18.227
			C264.178,177.255,265.453,171.482,263.265,166.299z M224.639,211.029c-10.122,2.294-25.006,1.777-33.255-5.365
			c-0.906-0.784-1.717-1.669-2.451-2.625c0.346,0.135,0.686,0.261,1.013,0.374c7.681,2.647,16.572,3.045,24.608,2.596
			c8.685-0.485,17.357-2.154,25.553-5.075c1.355-0.483,2.813-1.012,4.297-1.602C239.317,205.211,232.577,209.23,224.639,211.029z
			 M254.509,177.125c-0.68,3.027-1.491,6.017-2.537,8.923c-4.92,1.176-9.944,4.271-14.348,5.876
			c-6.564,2.393-13.45,4.046-20.409,4.708c-6.8,0.647-13.922,0.618-20.688-0.403c-2.875-0.434-5.82-1.117-8.538-2.159
			c-1.425-0.546-2.806-1.312-4.228-1.918c-0.321-1.017-0.618-2.025-0.897-3.006c-0.771-2.709-1.093-5.788-1.668-8.758
			c10.51,6.866,26.206,7.376,37.739,6.014c8.443-0.997,16.659-3.18,24.491-6.479c4.015-1.691,8.072-3.401,11.718-5.679
			C254.936,175.178,254.732,176.132,254.509,177.125z"/>
	</g>
</g>
<g>
	<g>
		<path d="M191.261,134.765c-1.667-3.472-5.607-5.591-9.43-4.693c-3.475,0.816-6.134,4.008-6.923,7.415
			c-0.258,0.5-0.479,1.008-0.616,1.517c-1.068,3.979,1.215,7.701,5.007,9.011c3.506,1.211,7.67,0.249,10.235-2.442
			C192.259,142.714,192.967,138.316,191.261,134.765z"/>
	</g>
</g>
<g>
	<g>
		<path d="M253.116,124.164c-2.737-2.459-6.445-3.125-9.699-1.231c-2.521,1.467-4.092,4.371-4.242,7.256
			c-0.245,1.718,0.12,3.541,1.036,5.097c3.632,6.17,13.969,4.626,15.915-2.171C257.071,129.812,255.588,126.385,253.116,124.164z"/>
	</g>
</g>
<g>
	<g>
		<path d="M266.905,466.41c-2.427-2.639-6.646-2.318-9.119,0.018c-0.301,0.284-0.553,0.595-0.786,0.917
			c-3.487-1.437-7.017-2.785-10.309-4.818c-4.909-3.031-9.568-6.454-14.412-9.588c3.639-2.247,7.296-4.464,11.003-6.601
			c1.959-1.129,4.893-2.278,7.526-3.73c1.093,1.983,3.023,3.128,5.299,3.23c2.452,0.111,4.776-1.205,6.05-3.276
			c0.958-1.558,1.236-3.303,0.996-5.088c-0.375-2.787-2.127-5.014-4.86-5.873c-1.779-0.559-4.113-0.039-5.469,1.298
			c-6.64-4.145-13.394-8.136-20.135-12.118c3.807-2.332,7.601-4.686,11.374-7.073c1.964-1.243,4.229-2.395,6.3-3.743
			c1.108,1.097,2.572,1.866,4.24,2.09c4.595,0.618,8.603-2.963,8.739-7.587c0.155-5.272-5.247-10.118-10.337-6.973
			c-0.288,0.178-0.546,0.378-0.781,0.592c-1.649,1.019-3.051,2.879-3.598,4.376c-0.001,0.004-0.002,0.008-0.004,0.012
			c-2.845,1.453-5.501,3.735-8.013,5.325c-4.833,3.059-9.704,6.058-14.588,9.036c-5.053-3.002-10.084-6.047-15.18-8.975
			c-2.75-1.58-5.614-3.586-8.619-5.074c-0.435-2.416-2.176-4.565-4.583-5.262c-2.414-0.699-5.054-0.087-6.889,1.644
			c-0.914,0.863-1.565,2.057-1.934,3.247c-0.263,0.847-0.314,1.66-0.2,2.435c-0.095,0.75-0.024,1.526,0.25,2.271
			c0.706,1.925,2.226,3.567,4.266,4.098c2.104,0.547,4.381,0.159,6.11-1.177c0.287-0.222,0.55-0.462,0.802-0.711
			c2.155,1.354,4.45,2.537,6.505,3.793c4.277,2.615,8.606,5.148,12.932,7.685c-3.389,2.052-6.782,4.096-10.195,6.107
			c-3.224,1.899-6.785,3.732-9.926,5.993c-0.518-0.672-1.146-1.267-1.908-1.729c-3.143-1.904-7.358-0.64-8.971,2.638
			c-0.607,1.232-0.903,2.536-0.809,3.828c-0.145,0.445-0.245,0.904-0.256,1.379c-0.117,5.028,5.929,7.678,10,5.379
			c0.93-0.525,1.674-1.233,2.242-2.05c4.197,2.634,8.377,5.19,12.871,7.535c2.165,1.129,4.321,2.284,6.47,3.452
			c-4.953,3.259-9.84,6.622-14.652,10.086c-2.462,1.773-5.024,3.531-7.442,5.447c-2.418-2.396-6.466-2.74-8.959-0.097
			c-0.275,0.292-0.509,0.607-0.713,0.934c-0.265,0.214-0.522,0.445-0.766,0.702c-2.892,3.055-2.639,8.529,1.016,10.882
			c4.112,2.647,9.028,0.064,10.77-4.064c0.221-0.523,0.378-1.062,0.496-1.605c3.909-2.5,7.578-5.559,11.291-8.151
			c5.137-3.587,10.365-7.038,15.648-10.407c1.499,0.861,2.99,1.734,4.47,2.622c5.234,3.139,10.328,6.503,15.622,9.546
			c2.953,1.698,6.267,3.626,9.695,4.854c0.035,0.185,0.065,0.37,0.115,0.557c0.469,1.74,1.628,3.184,3.172,4.093
			c2.423,1.425,5.896,1.005,7.862-1.02c1.47-1.514,2.281-3.507,2.282-5.62C268.907,469.982,268.366,467.999,266.905,466.41z
			 M225.768,448.984c-3.732-2.137-7.538-4.139-11.387-6.073c-3.963-1.992-7.876-3.452-11.882-4.832
			c3.526-1.52,6.896-3.644,10.109-5.472c4.536-2.58,9.05-5.2,13.533-7.871c6.677,3.948,13.363,7.919,20.111,11.759
			c-2.366,1.392-4.606,3.04-6.362,4.044C235.131,443.261,230.417,446.071,225.768,448.984z"/>
	</g>
</g>
<g>
</g>
<g>
</g>
<g>
</g>
<g>
</g>
<g>
</g>
<g>
</g>
<g>
</g>
<g>
</g>
<g>
</g>
<g>
</g>
<g>
</g>
<g>
</g>
<g>
</g>
<g>
</g>
<g>
</g>
</svg>
