<?xml version="1.0" ?><!DOCTYPE svg  PUBLIC '-//W3C//DTD SVG 1.1//EN'  'http://www.w3.org/Graphics/SVG/1.1/DTD/svg11.dtd'><svg enable-background="new 274.278 -202.129 37.842 33.145" height="33.145px" id="Layer_1" version="1.1" viewBox="274.278 -202.129 37.842 33.145" width="37.842px" xml:space="preserve" xmlns="http://www.w3.org/2000/svg" xmlns:xlink="http://www.w3.org/1999/xlink"><g><g><path d="M275.948-174.328c-0.054,0-0.108-0.006-0.163-0.018c-0.404-0.09-0.66-0.49-0.57-0.896c0.126-0.565,0.233-1.138,0.342-1.71    c0.241-1.278,0.49-2.602,0.938-3.862c2.237-6.3,2.186-6.567-1.903-9.537c-0.193-0.142-0.31-0.367-0.31-0.607l-0.001-1.951    c-0.002-1.487-0.003-2.977,0.003-4.465c0.011-3.3,0.967-4.328,4.089-4.399c2.385-0.056,4.771-0.088,7.155-0.123    c3.56-0.052,7.239-0.104,10.854-0.228c3.548-0.121,4.25,2.259,4.446,4.061c0.177,1.611,0.396,3.221,0.612,4.829    c0.099,0.727,0.196,1.453,0.292,2.181c0.053,0.411-0.236,0.787-0.647,0.84c-0.417,0.053-0.787-0.236-0.841-0.646    c-0.094-0.726-0.192-1.449-0.29-2.174c-0.22-1.621-0.438-3.241-0.616-4.866c-0.228-2.076-0.972-2.785-2.904-2.725    c-3.629,0.125-7.316,0.177-10.884,0.229c-2.381,0.033-4.762,0.067-7.142,0.123c-2.297,0.053-2.615,0.405-2.624,2.905    c-0.006,1.486-0.005,2.973-0.003,4.458l0.001,1.572c4.485,3.313,4.416,4.58,2.127,11.026c-0.409,1.15-0.637,2.359-0.878,3.639    c-0.111,0.587-0.222,1.175-0.351,1.756C276.601-174.566,276.292-174.328,275.948-174.328z"/></g><g><path d="M291.978-168.984h-16.644c-0.414,0-0.75-0.336-0.75-0.75v-5.039c0-0.414,0.336-0.75,0.75-0.75h13.134    c-0.608-0.629-1.132-1.368-1.537-2.189c-1.073-2.17-1.189-4.615-0.328-6.886c1.912-5.041,5.16-5.379,8.603-5.289    c4.765,0.111,7.995-1.552,9.884-5.123c-0.847-3.963-2.27-4.474-4.902-4.061c-0.408,0.062-0.793-0.218-0.856-0.625    c-0.063-0.41,0.217-0.794,0.626-0.857c3.874-0.603,5.743,0.938,6.657,5.504c0.033,0.164,0.01,0.334-0.065,0.484    c-2.156,4.3-5.886,6.313-11.381,6.178c-3.721-0.097-5.722,0.525-7.161,4.322c-0.712,1.876-0.615,3.896,0.271,5.688    c0.83,1.678,2.294,2.968,3.916,3.452c0.318,0.095,0.536,0.387,0.536,0.719v4.474C292.728-169.32,292.392-168.984,291.978-168.984z     M276.085-170.484h15.144v-3.188c-0.368-0.143-0.727-0.315-1.069-0.518c-0.129,0.104-0.292,0.166-0.471,0.166h-13.604V-170.484z"/></g><g><path d="M292.131-183.394c-0.023,0-0.05-0.001-0.074-0.004l-3.971-0.4c-0.412-0.041-0.713-0.409-0.671-0.821    c0.042-0.413,0.412-0.716,0.821-0.671l3.145,0.317v-3.541c0-0.414,0.336-0.75,0.75-0.75s0.75,0.336,0.75,0.75v4.37    c0,0.212-0.09,0.414-0.247,0.556C292.496-183.462,292.316-183.394,292.131-183.394z"/></g><g><path d="M311.37-194.482h-5.19c-0.414,0-0.75-0.336-0.75-0.75s0.336-0.75,0.75-0.75h5.19c0.414,0,0.75,0.336,0.75,0.75    S311.784-194.482,311.37-194.482z"/></g><g><path d="M282.665-192.344c-0.173,0-0.347-0.059-0.488-0.181c-0.313-0.271-0.351-0.743-0.08-1.059l3.665-4.274    c0.271-0.314,0.742-0.351,1.058-0.081c0.313,0.27,0.351,0.743,0.081,1.058l-3.665,4.275    C283.085-192.433,282.875-192.344,282.665-192.344z"/></g><g><path d="M278.999-192.956c-0.149,0-0.303-0.045-0.436-0.14c-0.337-0.241-0.414-0.709-0.174-1.046l3.055-4.275    c0.24-0.336,0.709-0.416,1.046-0.174c0.337,0.241,0.416,0.709,0.175,1.046l-3.055,4.276    C279.463-193.064,279.233-192.956,278.999-192.956z"/></g></g></svg>