<?xml version="1.0" encoding="iso-8859-1"?>
<!-- Generator: Adobe Illustrator 16.0.0, SVG Export Plug-In . SVG Version: 6.00 Build 0)  -->
<!DOCTYPE svg PUBLIC "-//W3C//DTD SVG 1.1//EN" "http://www.w3.org/Graphics/SVG/1.1/DTD/svg11.dtd">
<svg version="1.1" id="Capa_1" xmlns="http://www.w3.org/2000/svg" xmlns:xlink="http://www.w3.org/1999/xlink" x="0px" y="0px"
	 width="589.761px" height="589.761px" viewBox="0 0 589.761 589.761" style="enable-background:new 0 0 589.761 589.761;"
	 xml:space="preserve">
<g>
	<path d="M264.798,259.718c-94.554-17.441-179.01-53.243-234.396-136.17c-1.53-2.142-4.284-1.224-4.896,0.612
		c-0.612,0-1.224,0.306-1.836,1.224c-22.644,35.803-37.332,95.473-4.59,130.662c16.218,17.442,33.966,23.868,57.528,26.011
		c59.364,5.201,121.176-3.673,180.846-4.284c4.284,0,6.426-3.366,6.426-6.426C270,271.958,271.53,260.942,264.798,259.718z
		 M76.302,268.898c-75.582-1.53-69.156-89.964-48.348-138.924c38.862,75.582,116.28,119.033,197.982,135.863
		C176.058,267.062,126.18,269.816,76.302,268.898z"/>
	<path d="M547.542,107.637c-5.508-3.979-11.934,4.59-7.65,9.18l0,0c-6.731,108.018-119.033,131.58-205.938,152.388h-0.306
		c-5.202,0.612-5.509,8.568,0,8.568c50.796-1.225,101.285,5.202,152.082,4.896c28.458-0.306,67.014-1.836,85.68-26.928
		C604.458,211.37,590.688,139.767,547.542,107.637z M536.526,263.084c-46.206,17.442-102.204,7.956-154.53,5.508
		c79.56-13.464,158.508-53.855,169.83-138.617C582.732,169.448,591.912,242.276,536.526,263.084z"/>
	<path d="M532.854,383.036c-23.257-6.731-52.938-2.142-77.419-3.06c-40.086-1.53-80.478-2.142-120.563-0.918
		c-89.352,2.754-178.704,9.792-268.362,11.628c-3.672,0-4.284,4.284-2.142,6.12c-0.306,16.523,3.672,33.966,8.568,49.572
		c3.366,10.71,9.792,30.294,23.868,30.294c14.076,0,19.584-16.83,24.174-27.847c3.978-9.485,7.65-19.584,11.016-29.376
		c0.918-2.754,2.142-5.508,3.06-8.567c2.754,24.479,8.262,63.647,33.354,63.342c13.464,0,21.726-17.442,26.928-27.54
		c6.12-11.935,11.322-24.786,15.3-37.639c2.754,24.175,11.322,48.961,25.704,68.238c1.836,2.448,4.896,3.672,7.65,1.836
		c22.032-14.994,29.682-42.228,37.332-67.319c3.366,11.016,6.732,22.338,11.322,33.048c5.507,13.158,13.77,30.906,29.375,33.966
		c15.606,3.06,22.339-13.464,26.622-25.092c4.284-11.017,7.038-22.645,9.486-34.272c7.038,23.868,20.502,54.774,24.48,59.977
		c2.142,2.754,5.201,3.978,8.262,2.142c14.382-8.262,22.338-22.032,29.376-36.72c5.508-11.628,11.322-23.868,16.218-36.108
		c5.508,14.688,11.017,29.07,18.36,43.146c5.508,10.098,15.3,29.987,28.764,31.212c11.322,1.224,23.562-19.891,28.458-27.846
		c10.404-16.524,14.688-37.026,19.89-55.998c1.837-0.307,3.366-1.53,3.979-3.673l1.224-4.896
		C537.75,387.32,535.914,383.954,532.854,383.036z M117.306,425.265c-4.59,12.852-8.568,28.458-17.748,38.861
		c-7.65,8.874-20.808-26.01-21.726-29.069c-3.978-12.24-5.814-25.092-8.874-37.332c8.874,0.306,30.294,0.306,58.752-0.306
		C122.202,405.374,120.06,416.696,117.306,425.265z M192.582,425.876c-3.978,10.404-11.322,33.049-23.256,37.332
		c-19.278,7.038-26.928-54.468-29.682-65.789c18.666-0.307,39.78-0.612,62.424-0.919
		C199.314,406.292,196.254,416.085,192.582,425.876z M273.672,396.5c-7.344,23.257-12.546,52.938-31.518,69.769
		c-14.688-20.502-22.032-44.37-26.01-69.156c0-0.612-0.306-0.612-0.612-1.224c18.972-0.307,38.862-0.612,59.058-0.918
		C273.978,395.582,273.672,395.889,273.672,396.5z M320.49,465.963c-12.853-6.427-19.584-27.54-24.48-39.78
		c-3.978-9.486-7.038-19.278-10.71-29.07c0-0.918-0.306-1.53-0.612-2.142c22.338-0.307,44.982-0.612,66.708-0.918
		C347.724,409.353,337.626,474.53,320.49,465.963z M389.34,467.799c-9.792-14.076-15.605-32.437-21.114-48.042
		c-0.611-2.143-2.754-12.853-5.508-20.502c0.307-1.225,0.612-2.448,0.918-3.673c0.307-0.611,0-1.224,0-1.836
		c23.562-0.306,45.9-0.611,66.097-0.918C411.678,414.86,412.596,449.438,389.34,467.799z M507.762,431.078
		c-1.224,3.061-20.502,42.229-25.704,37.332c-20.195-19.277-29.069-48.042-41.004-73.134c0.307-0.918,0.307-1.836,0-2.754
		c38.25-0.306,67.32-0.306,78.643,0.306C516.024,405.986,512.352,418.839,507.762,431.078z"/>
</g>
<g>
</g>
<g>
</g>
<g>
</g>
<g>
</g>
<g>
</g>
<g>
</g>
<g>
</g>
<g>
</g>
<g>
</g>
<g>
</g>
<g>
</g>
<g>
</g>
<g>
</g>
<g>
</g>
<g>
</g>
</svg>
