<?xml version="1.0" encoding="iso-8859-1"?>
<!-- Generator: Adobe Illustrator 16.0.0, SVG Export Plug-In . SVG Version: 6.00 Build 0)  -->
<!DOCTYPE svg PUBLIC "-//W3C//DTD SVG 1.1//EN" "http://www.w3.org/Graphics/SVG/1.1/DTD/svg11.dtd">
<svg version="1.1" id="Capa_1" xmlns="http://www.w3.org/2000/svg" xmlns:xlink="http://www.w3.org/1999/xlink" x="0px" y="0px"
	 width="593.471px" height="593.472px" viewBox="0 0 593.471 593.472" style="enable-background:new 0 0 593.471 593.472;"
	 xml:space="preserve">
<g>
	<path d="M575.118,76.73c-47.43-84.762-190.332-44.982-268.056-47.124c-69.156-1.836-328.338-52.02-291.006,90.576
		c-2.754,114.138-29.988,238.679-6.732,350.37c15.606,75.888,92.718,93.941,158.814,100.368
		c65.484,6.426,132.191,1.224,197.676-3.979c45.899-3.672,113.832,1.836,156.06-21.726c86.599-48.042,63.036-162.792,61.506-245.412
		C581.85,230.036,611.837,142.52,575.118,76.73z M306.755,50.108c79.254,7.956,229.194-43.452,258.265,59.976
		c3.365,12.546,5.508,25.398,6.426,38.556c-1.836,0.306-3.672,1.53-4.896,3.672c-16.218,28.764-17.748-4.284-26.315-19.89
		c-2.448-4.59-11.017-5.508-13.158,0c-8.568,19.89-7.65,14.994-8.262,36.72c-2.143,54.774-29.988-22.644-34.272-43.146
		c-1.53-7.038-10.098-6.426-13.77-1.836c-8.568,14.076-20.502,25.092-35.19,33.048c-2.754-11.934-8.568-22.032-13.77-32.742
		c-2.754-5.202-9.792-4.284-12.547,0c-8.873,12.546-11.934,14.994-11.934,31.212c0,47.736-34.884-5.508-42.228-23.868
		c-2.448-6.12-12.546-7.956-14.076,0c-16.524,76.194-28.152,4.59-33.966-11.322c-2.143-5.508-9.486-7.344-12.852-1.53
		c-7.956,13.464-16.218,25.092-17.748,41.31c-4.59,49.572-34.884,2.448-44.064-18.36c-2.142-4.896-10.71-3.672-11.628,1.53
		c-14.688,25.704-23.868,24.786-27.234-2.754c-2.142-5.202-11.322-7.038-12.24,0c-3.978,26.622-3.978,16.218-0.306,43.146
		c0,0.612,0.306,1.224,0.306,1.836c-32.436,0.612-51.714-19.89-58.14-61.812c-1.53-6.732-10.404-5.508-12.24,0
		c-5.202,14.076-34.272,97.92-29.376,46.512c1.836-19.278-4.59-36.72-12.24-53.856c-2.754-5.814-10.71-3.366-12.546,1.53
		c-5.202,14.994-13.158,33.66-14.688,49.878c-2.448,25.092-9.18-13.464-12.546-43.146c1.224-1.224,2.142-2.754,1.836-4.896
		C16.668,0.536,236.682,42.764,306.755,50.108z M457.919,539.401c-95.777,11.017-193.391,18.666-289.781,12.853
		c-96.696-6.12-144.126-51.408-146.268-147.799c-1.836-77.418,6.732-153.611,6.12-230.417c3.366,7.344,7.65,14.688,12.546,22.338
		c3.672,5.814,11.628,3.06,12.546-3.366c11.322-109.242,14.688-12.546,9.486,9.486c-1.53,7.038,6.12,10.404,11.016,6.426
		c14.382-11.322,48.348-50.184,41.922-61.506c18.36,33.354,42.84,51.102,78.336,63.036c4.284,1.53,9.792-3.366,7.956-7.956
		c-22.338-54.774-15.3-45.288-3.672-16.218c1.836,4.59,6.732,6.12,10.404,2.754c19.584-16.524,14.382-36.108,24.786-14.076
		c10.098,21.42,25.398,31.824,48.042,35.802c3.978,0.612,8.874-1.836,8.568-6.426c-4.896-20.808-1.224-40.698,11.016-59.364
		c4.284,14.382,7.344,29.376,9.18,44.37c0.918,5.508,8.568,6.732,11.935,3.06c19.584-19.584,13.77-12.24,27.846-35.19
		c1.224,2.448,2.754,5.508,4.59,9.18c11.934,23.256,34.272,28.458,58.14,28.152c4.591,0,8.874-4.59,7.038-9.18
		c-4.59-12.852-2.142-41.616,5.508-7.344c0.919,4.59,7.038,7.038,10.711,4.284c12.546-8.262,18.972-11.934,28.458-24.48
		c17.747-23.562,9.18-8.262,17.747,14.382c8.874,23.256,26.622,33.966,49.572,39.474c5.508,1.224,10.71-3.672,9.18-9.18
		c-1.529-5.814-5.813-55.998,2.448-15.606c1.225,5.814,8.568,6.732,12.546,3.366c11.935-10.71,13.158-11.016,16.524-17.136
		c0.306,42.534-7.344,86.904-9.486,127.296C557.37,397.111,598.986,522.878,457.919,539.401z"/>
	<path d="M507.492,288.482c0-0.612,0-1.53-0.306-2.142c-0.307-0.918-0.307-1.53-0.307-2.448c-0.918-3.366-3.672-4.896-6.426-5.202
		c-33.354-25.398-103.122-12.852-139.842-11.322c-93.636,4.284-190.026,16.218-283.356,5.814c-3.672-0.306-5.814,2.448-6.426,5.508
		l0,0c-3.366-1.224-7.65,0.918-9.18,3.672c-18.36,33.354,20.502,82.007,42.534,103.733c27.846,27.234,68.544,37.638,97.002,14.688
		c38.556-19.277,64.872-74.052,79.56-109.547c0.306-0.306,0-0.918,0.306-1.224c4.284-0.306,8.262-0.612,12.546-0.918
		c3.366,23.868,20.501,50.183,32.13,69.767c14.688,24.786,37.332,38.862,65.483,43.146c52.021,7.956,105.57-40.698,114.444-90.576
		C507.797,303.781,508.715,296.132,507.492,288.482z M158.04,368.348c-36.414,0-79.866-42.534-75.582-80.171
		c19.584,3.978,39.474,6.12,59.364,7.038c-3.672,13.157,3.06,29.069,17.442,31.211c17.136,2.754,29.682-11.628,33.048-27.234
		c0.306-1.224,0.306-2.448,0-3.671c21.726-0.612,43.758-2.142,65.79-3.978C236.07,332.852,209.754,368.348,158.04,368.348z
		 M415.385,360.086c-53.855,18.972-81.09-30.601-95.166-73.44c21.114-1.53,42.229-2.754,63.343-2.754
		c-3.061,7.956-3.979,18.053,1.224,24.786c5.813,7.649,14.688,8.874,23.868,7.344c8.874-1.53,17.441-7.65,23.868-14.076
		c3.672-3.672,7.344-9.485,9.18-15.605c15.912,1.53,31.824,3.978,47.43,7.956C475.055,326.731,450.576,347.54,415.385,360.086z"/>
	<path d="M468.936,455.558c0.306-1.224,0.611-2.448,0.918-3.672c0.918-4.896-2.143-8.568-7.038-9.181
		c-71.604-7.344-147.187-1.836-219.096,1.837c-29.07,1.529-58.14,2.447-87.21,3.365c-7.038,0.307-25.704,3.979-37.332,3.979
		c-1.53-1.224-3.978-1.53-5.508-0.612c-0.612-0.306-1.53-0.306-1.836-0.611c-2.448-1.225-4.284,1.529-2.754,3.365
		c0.612,0.918,1.53,1.53,2.142,2.143c-4.59,35.802,28.152,43.758,45.594,22.644c12.24,22.032,40.698,20.809,55.692-1.836
		c12.546,15.3,32.742,13.771,45.594-1.836c4.896,7.956,12.852,13.77,23.562,14.994c11.322,1.224,24.173-6.732,30.293-17.442
		c1.224,8.874,7.65,15.912,19.584,16.524c8.568,0.306,16.524-3.672,22.95-8.874c1.836-1.53,3.672-3.366,5.508-5.814
		c4.896,9.792,13.158,17.442,24.48,19.891c13.77,3.06,22.031-4.896,26.622-15.301c7.956,10.404,19.89,16.83,34.271,14.076
		C463.122,489.83,476.28,472.082,468.936,455.558z M122.238,461.371c7.344,2.448,16.524,3.366,26.316,3.366
		C140.598,479.119,125.298,479.119,122.238,461.371z M167.22,464.432c13.77-0.918,26.928-2.448,37.026-3.366
		C196.29,482.18,172.422,488.3,167.22,464.432z M220.158,460.147c10.71-0.306,21.114-0.918,31.824-1.53
		C245.25,469.634,230.562,488.605,220.158,460.147z M283.806,476.365c-9.18,0.612-15.3-5.201-18.972-12.852
		c0.612-1.53,1.224-2.754,1.836-4.284c0.306-0.612,0.306-1.224,0.306-1.53c12.24-0.611,24.786-0.918,37.025-1.224
		C299.106,465.655,296.658,475.754,283.806,476.365z M348.677,467.186c-3.672,3.979-8.262,6.732-13.464,8.262
		c-13.158,3.672-13.464-10.098-11.934-19.277c8.567-0.307,19.584-0.918,32.13-1.225
		C352.961,458.924,351.738,463.819,348.677,467.186z M381.114,479.426c-7.038-3.366-11.628-9.181-14.688-16.218
		c0.918-3.061,1.225-6.12,0.612-8.874c12.546-0.307,25.398-0.918,37.638-0.918c-1.224,1.224-1.836,2.447-1.836,4.283
		C402.228,470.552,397.026,486.464,381.114,479.426z M441.089,480.649c-14.688,1.225-22.644-11.934-25.092-24.479
		c-0.306-1.225-0.612-1.836-1.224-2.754c23.256-0.307,41.616,0.611,42.534,3.06l0.306,0.306
		C457.001,469.021,457.001,479.426,441.089,480.649z"/>
</g>
<g>
</g>
<g>
</g>
<g>
</g>
<g>
</g>
<g>
</g>
<g>
</g>
<g>
</g>
<g>
</g>
<g>
</g>
<g>
</g>
<g>
</g>
<g>
</g>
<g>
</g>
<g>
</g>
<g>
</g>
</svg>
