<?xml version="1.0" encoding="iso-8859-1"?>
<!-- Generator: Adobe Illustrator 16.0.0, SVG Export Plug-In . SVG Version: 6.00 Build 0)  -->
<!DOCTYPE svg PUBLIC "-//W3C//DTD SVG 1.1//EN" "http://www.w3.org/Graphics/SVG/1.1/DTD/svg11.dtd">
<svg version="1.1" id="Capa_1" xmlns="http://www.w3.org/2000/svg" xmlns:xlink="http://www.w3.org/1999/xlink" x="0px" y="0px"
	 width="591.494px" height="591.494px" viewBox="0 0 591.494 591.494" style="enable-background:new 0 0 591.494 591.494;"
	 xml:space="preserve">
<g>
	<g>
		<path d="M42.145,289.494c75.582-42.229,70.686-173.502-32.13-160.956c0-1.836-0.306-3.979-0.306-5.814
			c-0.306-6.12-9.18-6.12-9.18,0c-1.836,50.796,1.53,101.286,3.672,151.776c0.306,4.284,0.306,8.262,0.306,12.546
			c-2.448,2.754-2.448,7.344,0,10.404c0.306,31.823-0.918,64.871,4.896,95.165c1.224,6.12,11.628,6.427,12.852,0
			c0.306-1.224,0.306-2.447,0.306-3.672c0,0,0,0.307,0.306,0.307c25.092,28.764,52.938-8.263,59.976-33.049
			C93.553,320.093,71.521,298.367,42.145,289.494z M18.277,282.456c-0.306-2.448-0.306-5.202-0.612-7.65
			c-3.06-45.899-5.202-91.188-7.344-136.782C108.241,130.067,97.225,256.445,18.277,282.456z M29.905,380.987
			c-2.142-1.224-4.284-0.918-6.12,0.307c2.448-26.011-1.224-53.856-3.978-80.479C99.061,306.323,58.975,397.511,29.905,380.987z"/>
		<path d="M242.881,161.279c-0.306-9.792-15.3-10.098-15.3,0c-0.612,45.9,5.202,92.106,5.202,138.006
			c0,24.48-15.606,161.568-57.528,89.964c-39.78-67.932-26.928-174.113-28.152-250.001c0-6.12-9.18-6.12-9.486,0
			c-1.53,53.55-2.754,107.1,1.836,160.649c3.06,38.25,7.038,98.532,44.064,121.176C269.503,473.705,243.799,189.125,242.881,161.279
			z"/>
		<path d="M382.724,152.405c-2.448-5.813-11.935-2.754-11.628,3.061c0.611,33.048,6.426,66.096,7.038,99.45
			c0.918,35.189,6.119,123.624-35.803,139.842c-57.222,22.031-52.938-197.37-53.856-228.276c-0.306-5.508-8.262-5.508-8.568,0
			c-2.142,41.922-21.114,255.204,60.588,243.271c43.758-6.427,48.349-69.463,51.103-103.429
			C395.575,261.954,401.083,195.246,382.724,152.405z"/>
		<path d="M505.43,171.99c-0.307-9.793-15.301-9.793-14.994,0c0.306,35.802,4.284,71.604,3.978,107.405
			c-0.306,20.808-2.448,41.31-7.956,61.2c-5.508,19.584-33.048,52.02-49.878,24.786c-17.136-27.847-11.322-74.358-10.098-105.264
			c1.224-30.906,4.896-62.118,4.284-93.33c0-5.509-8.263-5.509-8.568,0c-2.448,45.288-9.792,89.964-10.098,135.558
			c0,23.562-1.225,76.806,27.846,87.21C532.357,422.297,506.348,209.322,505.43,171.99z"/>
		<path d="M546.127,117.521c-0.306-5.508-8.567-5.508-8.567,0c-1.836,90.576,6.12,183.6,13.464,273.87
			c0.918,9.486,14.076,9.486,14.688,0C570.607,300.815,549.799,207.792,546.127,117.521z"/>
		<path d="M582.541,418.931c-9.485,4.896-18.054,11.628-27.233,17.442c-3.061-6.12-6.12-12.547-8.568-18.973
			c-2.448-6.12-12.24-3.672-10.098,2.754c2.447,7.65,5.508,14.994,8.567,22.338c-9.18,5.202-18.666,10.404-28.151,15.301
			c-6.427,3.365-0.918,12.546,5.508,9.485c8.874-4.284,18.666-8.567,27.846-13.158c0.612,1.225,1.225,2.755,1.836,4.284
			c3.366,7.038,7.956,21.114,17.748,19.584c1.53-0.306,2.754-1.836,3.366-3.366c1.836-7.344-6.731-16.829-10.098-22.644
			c-0.612-1.224-1.225-2.448-1.836-3.366c10.403-5.813,20.195-12.24,28.151-19.89C594.781,423.215,588.355,415.565,582.541,418.931z
			"/>
	</g>
</g>
<g>
</g>
<g>
</g>
<g>
</g>
<g>
</g>
<g>
</g>
<g>
</g>
<g>
</g>
<g>
</g>
<g>
</g>
<g>
</g>
<g>
</g>
<g>
</g>
<g>
</g>
<g>
</g>
<g>
</g>
</svg>
