<?xml version="1.0" encoding="iso-8859-1"?>
<!-- Generator: Adobe Illustrator 16.0.0, SVG Export Plug-In . SVG Version: 6.00 Build 0)  -->
<!DOCTYPE svg PUBLIC "-//W3C//DTD SVG 1.1//EN" "http://www.w3.org/Graphics/SVG/1.1/DTD/svg11.dtd">
<svg version="1.1" id="Capa_1" xmlns="http://www.w3.org/2000/svg" xmlns:xlink="http://www.w3.org/1999/xlink" x="0px" y="0px"
	 width="586.617px" height="586.618px" viewBox="0 0 586.617 586.618" style="enable-background:new 0 0 586.617 586.618;"
	 xml:space="preserve">
<g>
	<path d="M556.958,253.792c-37.332-45.288-105.569-50.796-133.109,5.508c-21.114-26.316-51.103-40.392-77.725-12.852
		c-0.612,0.612-0.918,1.224-0.918,2.142c-15.605-8.568-34.271-12.546-52.631-12.852c-10.404-29.376-2.754-60.282-5.814-90.27
		c-0.306-2.448-1.836-4.284-4.284-4.284c-12.852,0-25.704,0.306-38.25,2.142c-2.448,0.306-3.366,3.366-3.06,5.508
		c4.284,30.294,7.344,63.954,24.786,89.964c-9.486,2.142-18.666,5.202-26.928,9.486c-27.54-36.414-65.79-23.868-93.33,3.06
		c-5.508-22.95-19.584-44.982-44.676-48.348c-25.092-3.366-49.266,13.77-65.79,30.6c-30.294,30.6-60.894,108.63-0.612,127.296
		c4.284,1.225,6.426-4.284,3.366-6.731v-0.307c-4.284-7.649-7.038-19.277,1.224-25.397c3.06-2.448,6.732-2.448,10.098-1.53
		c5.202,1.53,7.65,6.732,12.24,9.486c2.448,1.529,4.59-0.612,4.59-3.061c0.306,0.612,0.918,1.225,1.224,1.836
		c1.53,1.836,4.59-0.611,3.366-2.448c-3.978-6.119-5.814-12.546-4.59-19.89c1.836-11.934,11.016-5.813,15.3,1.224
		c1.836,3.061,7.038,1.837,7.038-1.836c-0.306-9.792,4.896-18.359,11.628-25.092c2.754-2.754,6.426-5.202,10.098-6.12
		c5.202-1.53,7.344,2.754,9.486,6.732c-3.978,7.956-6.732,15.912-7.956,23.256c-5.814,31.824-4.59,66.096,18.36,90.271
		c13.77,14.382,43.758,34.577,63.954,22.644c21.42,26.928,107.711,29.376,149.328,2.754c59.67,39.168,98.838-43.758,106.488-92.105
		c1.224-7.038,0.611-15.301-1.225-23.562c0.918-0.612,1.837-1.53,3.061-2.142c3.672-2.143,8.567-1.836,12.546-0.918
		c9.486,2.142,17.136,10.403,18.054,20.195c0.307,2.754,3.366,2.754,4.284,0.918c7.956,0.612,14.688-0.306,21.114,5.202
		c7.344,5.814,5.813,15.606,1.836,22.95c-2.754,4.59,3.978,10.098,7.649,5.814c18.973-21.727,36.414,5.508,23.562,24.479
		c-0.918,1.224-0.306,2.754,0.918,3.366c0.612,1.53,2.142,2.448,4.284,1.836C607.448,369.46,589.088,292.654,556.958,253.792z
		 M254.631,185.248c-1.836-10.71-3.06-21.726-4.59-32.742c-0.306-2.754,19.278-3.06,28.152-2.754
		c2.142,28.764-4.59,58.752,4.896,86.598c-4.284,0.306-8.568,0.918-12.852,1.53C262.281,220.744,257.691,203.608,254.631,185.248z
		 M101.937,275.212c-9.792,4.896-17.442,15.912-20.196,27.233c-5.202-5.201-11.934-7.649-18.36-0.918
		c-5.508,5.814-5.508,13.771-3.06,21.114c-7.344-6.426-19.278-7.649-26.622-1.53c-7.65,6.427-8.874,15.912-6.12,24.48
		c-12.24-10.71-18.666-22.95-17.136-41.922c1.836-22.338,15.3-43.758,29.988-60.282c13.77-15.3,32.742-29.376,53.856-31.212
		c25.704-2.142,38.556,22.338,47.124,42.84c-6.732,7.344-12.852,15.3-17.748,23.868
		C119.379,272.764,109.893,271.234,101.937,275.212z M435.782,344.674c-8.568,42.534-38.556,96.39-88.434,78.03
		c8.567-6.427,14.688-14.382,17.136-23.868c1.224-4.59-5.508-7.65-7.956-3.366c-22.95,42.229-150.246,66.096-163.098,5.508
		c-0.306-1.836-3.06-1.529-3.672,0c-1.836,5.508-2.142,10.404-0.612,14.688c-20.196,4.896-38.556-8.874-52.938-22.338
		c-21.726-20.196-18.972-54.162-15.3-80.784c6.732-48.654,67.932-103.122,113.832-63.342c-6.426,3.672-12.546,7.956-17.442,13.158
		c-2.142,2.142,0.918,6.12,3.366,4.284c45.288-33.966,90.576-22.338,138.312-1.836c2.754,1.224,6.12-2.142,3.365-4.59
		c-3.365-3.06-7.037-6.12-11.016-8.568C409.772,217.99,445.269,298.468,435.782,344.674z M551.756,377.722
		c3.061-8.874,2.448-18.972-4.896-26.622c-7.65-7.956-17.136-8.567-25.398-4.59c0.307-6.12-1.529-11.934-6.426-16.83
		c-7.65-7.649-18.972-11.628-29.07-7.038c-1.529-9.486-7.956-17.748-17.136-21.42c-5.508-2.142-16.218-3.366-22.95,0
		c-3.978-12.852-10.403-26.316-18.666-37.638c16.218-18.666,32.437-35.802,58.752-36.72c23.868-0.612,45.288,14.688,60.588,31.212
		c16.524,17.748,27.847,41.31,29.988,65.791C578.685,347.428,567.975,363.646,551.756,377.722z"/>
	<path d="M275.133,325.09c-30.906-15.912-62.424-29.376-95.778-39.474c-3.366-0.918-4.59,3.978-1.53,5.202
		c28.764,9.792,55.998,23.562,82.62,37.944c-15.3,6.12-30.906,11.934-47.736,12.24c-20.196,0.306-52.326-24.174-39.78-46.206
		c2.754-4.896-3.672-9.486-7.65-5.814c-17.748,16.83,0.918,40.085,15.3,51.713c28.764,23.257,63.954,6.12,93.33-6.119
		C277.581,332.74,279.417,327.232,275.133,325.09z"/>
	<path d="M405.488,292.654c-1.53-6.732-10.71-4.896-11.628,0.612c-1.225-1.836-3.061-3.06-5.202-2.142
		c-30.906,11.934-62.118,24.174-92.412,37.333c-2.448,0.918-1.836,4.283-0.306,5.508c-2.448,0-4.284,3.06-2.448,5.508
		C330.824,385.066,419.564,354.772,405.488,292.654z M298.389,334.882c0,0-0.307,0-0.307-0.306c0.307,0,0.612,0,0.918,0
		c31.519-9.792,64.566-18.666,93.637-34.272c0.918-0.612,1.529-1.224,1.836-2.142C403.652,350.794,330.519,363.035,298.389,334.882z
		"/>
	<path d="M296.858,386.902c-5.202-13.464-12.24-25.703-21.419-37.025c-1.53-1.836-4.59-1.53-6.12,0
		c-6.426,5.813-11.016,12.852-15.3,20.195c-2.448,3.979-7.344,9.792-6.426,14.688c0,0.612,0.918,1.224,1.53,1.224
		c0.918,0,1.836-0.306,2.448-0.611c-3.06,3.365,0.306,8.262,4.59,7.344c4.896-0.918,9.18-3.366,14.076-4.284
		c6.732-0.918,13.464,0.918,19.278,4.284C293.187,394.552,298.694,391.186,296.858,386.902z M254.019,383.23
		c1.53-1.836,2.754-3.978,3.978-5.813c4.284-6.12,8.568-12.546,13.77-17.748c4.284,6.12,8.262,12.546,11.322,19.584
		C273.297,376.804,261.668,377.417,254.019,383.23z"/>
</g>
<g>
</g>
<g>
</g>
<g>
</g>
<g>
</g>
<g>
</g>
<g>
</g>
<g>
</g>
<g>
</g>
<g>
</g>
<g>
</g>
<g>
</g>
<g>
</g>
<g>
</g>
<g>
</g>
<g>
</g>
</svg>
