<?xml version="1.0" encoding="iso-8859-1"?>
<!-- Generator: Adobe Illustrator 16.0.0, SVG Export Plug-In . SVG Version: 6.00 Build 0)  -->
<!DOCTYPE svg PUBLIC "-//W3C//DTD SVG 1.1//EN" "http://www.w3.org/Graphics/SVG/1.1/DTD/svg11.dtd">
<svg version="1.1" id="Capa_1" xmlns="http://www.w3.org/2000/svg" xmlns:xlink="http://www.w3.org/1999/xlink" x="0px" y="0px"
	 width="578.536px" height="578.536px" viewBox="0 0 578.536 578.536" style="enable-background:new 0 0 578.536 578.536;"
	 xml:space="preserve">
<g>
	<g>
		<path d="M499.807,478.284c-1.53-2.448-3.979-3.366-6.426-3.366c37.638-125.46-17.748-342.415-158.202-347.922
			c0.612-2.142,1.53-4.284,2.142-6.426c7.038,0.306,13.158,1.53,20.196,4.59c4.284,1.836,8.874,0.306,10.404-4.284
			c5.813-17.442,11.321-35.19,11.321-53.856c0-3.366-3.06-7.038-6.731-6.732c-8.568,0.918-16.83,3.978-25.092,6.426
			c-5.814,1.53-11.935,3.06-17.748,4.59c-0.307,0-0.918,0.306-1.53,0.306c-0.306-0.612-0.918-0.918-1.53-0.918
			c0.307-0.612,0.612-1.224,0.918-1.836c5.202-19.584,6.12-39.168,6.12-59.364c0-3.978-3.366-7.038-7.038-7.038
			c-18.054-0.918-36.108-5.202-53.856,0.306c-3.979,1.224-5.814,4.896-4.896,8.874c3.06,15.3-1.836,30.294-4.59,45.594
			c-11.016-4.284-22.338-7.344-34.578-8.568c-3.06-0.306-6.426,2.448-7.038,5.202c-4.284,20.196-1.53,38.556,6.426,57.528
			c1.224,2.754,5.202,4.284,8.262,3.366c12.546-3.978,25.398-2.142,38.25-3.978c0.612,3.978,1.224,7.956,1.53,11.934
			c-58.446,24.174-95.166,111.384-97.308,171.667c-16.83,46.206-22.644,101.286-18.972,146.88c-2.448-0.306-4.59,0.612-6.12,3.06
			c-13.464,23.257-23.562,44.677-28.458,71.604c-0.918,5.813-63.342-29.682-72.216-33.354c-6.426-2.754-12.852,4.284-7.65,9.792
			c24.48,25.704,44.676,54.469,64.26,84.15c3.06,4.59,10.098,0.612,7.344-4.284c-12.852-22.644-26.928-44.063-42.534-64.565
			c18.054,10.098,35.19,21.113,52.938,32.13c4.59,2.754,9.486-0.918,9.792-5.508c1.53-24.48,7.956-44.37,18.054-64.566
			c2.448,17.748,5.202,35.19,3.06,52.938c-0.612,5.202,6.426,8.568,10.404,5.814c29.682-19.89,55.386-39.168,72.828-67.932
			c1.224,22.338-1.224,43.146-8.262,65.79c-2.448,7.956,8.874,12.239,13.158,5.508c12.546-19.584,26.316-34.578,45.289-48.042
			c20.196-14.076,15.606,41.922,15.912,50.184c0.306,5.814,7.956,10.404,12.24,5.202c18.972-22.338,29.682-45.594,34.578-72.828
			c15.3,22.95,22.949,47.736,28.458,75.582c1.224,6.732,9.792,6.12,13.157,1.836c8.263-11.016,14.076-16.218,19.891-19.584
			c0.611-0.306,0.918-0.611,1.529-0.918c7.65-3.978,14.688-4.59,26.011-10.403c4.896-2.448-3.061,112.302,2.447,38.556
			c-0.611,7.649,10.099,9.792,13.771,3.672c11.628-19.584,25.704-36.108,35.19-55.998c12.239,22.032,21.42,46.818,26.621,71.298
			c1.53,7.344,14.383,5.814,13.465-1.836C531.324,537.647,516.637,504.294,499.807,478.284z M405.253,514.698
			c0,0.306,0,0.611,0,0.918c-3.979,2.754-7.65,5.508-11.322,9.18c-7.344-30.6-18.054-57.222-39.168-82.008
			c-4.284-5.202-11.935-0.612-12.24,5.202c-1.53,25.397-7.956,46.206-21.114,66.096c-0.611-16.218-0.918-32.13,0.918-48.654
			c0.612-4.284-5.201-8.567-9.18-7.038c-24.174,9.792-43.146,22.95-59.058,40.393c2.754-21.114,2.142-41.616-1.53-64.261
			c-1.224-7.649-11.322-5.813-13.464,0c-12.546,33.66-35.802,53.551-64.566,73.746c0.306-0.306,0.306-1.836,0-4.59
			c3.06,1.53,7.65-0.611,6.426-4.896c-20.196-85.374-7.956-250.615,93.024-283.663c67.932-22.338,127.603,59.058,141.067,113.833
			C430.039,389.85,415.963,453.804,405.253,514.698z M460.333,499.397c0.306-5.813-6.427-8.567-11.017-6.119
			c-9.18,4.896-17.748,8.567-25.397,12.239c17.748-65.79,20.195-141.065,0.306-205.632
			c-18.054-58.14-81.702-109.242-144.126-102.816c-37.638,3.978-65.79,28.458-85.374,63.036c13.77-48.042,42.84-91.8,82.926-121.482
			c0.612,8.568,0.306,17.442-1.224,26.01c-0.918,5.202,6.732,7.65,8.262,2.142c3.366-11.628,3.672-23.562,3.366-35.496
			c0.612-0.306,0.918-0.612,1.224-0.918c4.59-3.06,2.754-10.098-1.836-11.016c-0.306-5.814-0.306-11.322,0-17.136
			c0.306-4.59-4.896-8.262-9.18-6.732c-13.158,3.978-26.928-0.306-39.474,3.672c-3.672-7.65-5.508-15.606-5.508-24.174
			c-1.836-19.278,29.376-1.836,31.824-0.918c5.202,2.448,10.404-0.612,11.016-6.12c1.53-18.054,7.65-34.272,6.426-52.02
			c11.935-2.142,24.48,0,36.721,0.918c-0.306,16.524-0.918,32.742-5.202,49.266c-1.53,5.814,3.979,9.486,8.568,8.568
			c-2.448,3.672-0.307,7.65,6.426,7.65c12.24,0,24.174-4.59,36.108-6.732c-1.53,11.934-4.591,23.562-8.263,35.19
			c-7.956-2.448-15.3-3.672-24.479-3.672c-3.366,0-5.814,2.142-6.732,5.202c-5.508,15.912-11.321,30.906-11.934,48.042
			c-0.307,9.18,13.77,9.18,14.076,0c0.611-8.568,2.447-16.83,4.896-24.786c155.754,22.644,177.48,256.734,130.968,374.238
			c-1.529,3.672,0.612,6.732,3.672,7.956c-2.142,3.366-4.59,6.426-6.731,9.792C460.026,517.758,459.721,508.884,460.333,499.397z"/>
		<path d="M276.426,381.588c-2.448-4.284-6.12-7.956-9.18-11.628c-5.202-6.426-10.71-12.546-16.218-18.666
			c10.098-7.038,19.89-16.83,17.442-29.682c-2.142-11.017-14.994-16.524-25.092-16.524c-12.546,0-22.95,8.874-25.092,21.114
			c-4.59,22.949,11.322,48.348,24.174,65.79c2.754,3.978,8.874,0.611,6.426-3.979c-9.18-16.523-21.114-36.107-19.584-55.998
			c0.306-4.284,2.142-8.262,4.59-10.71c2.142-2.142,5.814-3.366,8.262-3.366c3.672-0.306,6.426,0.612,8.568,1.53
			c2.142,1.225,1.836,0.918,3.06,2.143c0.612,0.306,1.53,2.142,1.53,2.142c0.306,0.612,0.306,1.836,0.306,2.142
			c-0.306,1.836-0.918,2.754-2.448,4.896c-3.672,5.202-10.71,9.18-16.83,12.24c-4.284,2.142-4.59,7.956-1.53,11.321
			c7.344,7.65,14.076,15.606,21.114,23.562c3.366,3.978,6.12,7.956,9.792,11.628c1.224,1.224,2.448,2.142,3.978,3.06
			c0.918,0.612,2.754,2.143,1.224,0.612c3.978,5.202,11.322-2.142,7.344-7.344C281.322,390.462,277.344,383.118,276.426,381.588z"/>
		<path d="M300.295,307.536c-9.486,19.277-17.749,42.228-19.891,63.647c-1.224,12.546,3.06,30.601,19.584,22.95
			c4.59-2.142,1.836-8.262-2.447-8.568c-16.219-1.836,6.426-65.483,9.18-74.97C307.944,306.312,302.131,303.864,300.295,307.536z"/>
		<path d="M347.725,306.924c-6.732-0.306-12.546,2.754-17.136,7.038c-0.307-1.53-0.307-3.061-0.612-4.59
			c-0.306-4.284-6.731-4.284-6.731,0c-0.307,4.59-0.307,9.485-0.307,14.076c-0.306,0.611-0.612,1.224-0.918,1.836
			c-9.18,18.972-3.366,42.228,3.366,60.894c2.754,7.344,14.382,6.732,14.076-1.836c-0.307-16.524-3.366-33.048-6.12-49.572
			c1.836-6.12,5.813-11.016,12.546-12.852c20.196-5.508-2.142,34.884-2.448,37.638c-0.918,5.508,3.979,10.099,9.486,7.344
			C373.734,355.578,378.019,308.147,347.725,306.924z"/>
	</g>
</g>
<g>
</g>
<g>
</g>
<g>
</g>
<g>
</g>
<g>
</g>
<g>
</g>
<g>
</g>
<g>
</g>
<g>
</g>
<g>
</g>
<g>
</g>
<g>
</g>
<g>
</g>
<g>
</g>
<g>
</g>
</svg>
