<?xml version="1.0" encoding="iso-8859-1"?>
<!-- Generator: Adobe Illustrator 16.0.0, SVG Export Plug-In . SVG Version: 6.00 Build 0)  -->
<!DOCTYPE svg PUBLIC "-//W3C//DTD SVG 1.1//EN" "http://www.w3.org/Graphics/SVG/1.1/DTD/svg11.dtd">
<svg version="1.1" id="Capa_1" xmlns="http://www.w3.org/2000/svg" xmlns:xlink="http://www.w3.org/1999/xlink" x="0px" y="0px"
	 width="583.538px" height="583.538px" viewBox="0 0 583.538 583.538" style="enable-background:new 0 0 583.538 583.538;"
	 xml:space="preserve">
<g>
	<g>
		<path d="M583.017,257.464c-9.792-139.23-160.038-197.676-277.849-207.162C190.725,41.734,54.249,68.05,10.185,187.39
			c-39.474,107.1,40.698,249.696,156.06,258.876c1.224,0,2.142-0.306,2.754-0.918c3.366,54.774,47.736,93.33,102.816,89.046
			c4.896-0.306,7.956-4.284,7.038-9.18c-4.284-22.95,3.672-46.512-2.142-69.769c-1.53-6.426-10.71-3.672-9.792,2.754
			c3.06,19.278,2.448,42.229-1.224,61.812c-45.288-0.306-80.478-31.212-82.008-78.336c-0.306-8.262-11.322-9.486-14.382-3.366
			c-0.612-0.612-1.224-0.918-2.142-1.224C57.003,418.726-6.339,295.102,23.955,191.368c32.742-111.69,171.054-130.662,269.28-126.99
			c115.362,4.284,234.702,51.408,270.198,172.278c21.113,71.604-24.48,136.782-84.456,171.054
			c-58.446,33.354-132.192,30.6-197.064,31.212c-10.098,0-10.098,15.3,0,15.605C408.903,455.446,594.645,424.541,583.017,257.464z"
			/>
		<path d="M133.197,131.698c-37.026,41.31-38.862,96.696-37.332,150.858c-8.874-1.224-17.442-0.306-26.01-2.142
			c-2.754-22.644-7.956-45.594-11.628-66.096c-0.612-3.06-5.508-2.448-5.202,0.612c3.672,38.25,1.224,79.254,8.568,116.892
			c0.918,4.284,7.956,4.284,8.568,0c2.448-14.382,2.448-29.682,0.918-44.981c8.262,2.142,17.136,2.448,25.398,1.53
			c0.612,19.584,1.53,39.168,1.224,57.528c0,4.896,7.038,4.59,7.344,0c6.426-74.664-7.038-141.984,35.19-209.304
			C142.376,132.616,136.257,128.026,133.197,131.698z"/>
		<path d="M145.743,300.917c-3.672-17.136-7.038-34.272-10.71-51.408c-0.918-4.284-7.038-3.672-7.956,0
			c-9.18,31.518-9.18,64.26-8.568,96.696c0,3.365,5.202,3.365,5.202,0c0-3.366,0.306-6.427,0.306-9.792
			c4.896-3.061,11.628-2.755,17.136-3.366c1.224,0,1.836-0.918,1.836-1.836c1.53,4.59,3.06,8.874,5.814,12.239
			c1.836,2.448,5.508,0.307,5.508-2.447C155.229,328.457,148.497,313.156,145.743,300.917z M141.153,328.762
			c-5.814-0.612-11.934,0-17.136,2.754c0.612-21.114,2.142-42.228,6.732-63.036c2.448,11.628,4.59,22.95,7.038,34.578
			c1.53,7.956,2.754,18.36,5.202,27.234C142.683,329.68,142.071,329.068,141.153,328.762z"/>
		<path d="M189.807,333.046c-6.426,3.366-11.934,5.813-18.666,7.344c-1.224-32.13-2.142-63.954-7.038-95.778
			c-0.612-3.06-5.508-2.448-5.202,0.612c3.672,33.354,3.978,67.014,2.754,100.674c0,2.448,2.448,5.202,4.896,4.896
			c11.016-0.918,20.502-3.672,27.54-12.546C195.927,335.495,193.173,331.21,189.807,333.046z"/>
		<path d="M212.451,307.648c-7.038-2.142-14.688-1.836-21.726-1.224c0-10.098-0.306-20.196,0-30.294c0-3.06,0.306-22.95,1.53-23.562
			c2.448-0.918,1.53-4.896-1.224-4.284c-6.426,1.53-6.12,11.628-6.732,16.524c-1.836,15.3-1.836,30.6-2.142,45.9
			c0,2.447,1.836,3.978,4.284,4.284c8.568,0.306,17.748,1.224,26.01-1.225C215.511,312.85,215.511,308.566,212.451,307.648z"/>
		<path d="M265.389,243.388c-1.836-3.366-8.262-2.142-7.65,2.142c2.142,17.748,7.038,34.272,7.956,52.326
			c0.612,11.935-0.918,23.562-3.366,35.19c-1.224,4.59-2.448,9.485-4.284,13.77c-4.59,14.076-10.098,2.143-14.994-5.202
			c-19.89-29.682-6.426-77.417,10.71-104.958c1.53-2.448-2.142-5.202-3.978-3.06c-30.294,32.436-39.168,106.488,4.284,131.886
			c2.142,1.225,5.508,0.612,6.732-1.836C278.547,329.986,283.443,277.966,265.389,243.388z"/>
		<path d="M362.391,245.224c-0.307-6.12-9.181-6.12-9.486,0c-1.836,32.436-0.918,63.954-7.038,95.472
			c-3.672-7.038-7.038-13.77-8.262-21.42c-0.612-3.672-6.12-5.202-8.568-2.142c-3.672,4.59-7.038,9.792-9.792,14.688
			c-7.344-33.048-8.874-67.625-24.786-97.919c-1.224-2.448-5.508-0.612-4.59,1.836c13.77,35.496,14.076,74.664,22.645,111.384
			c0.918,4.283,7.344,5.201,9.18,1.224c2.754-5.508,5.508-11.016,8.874-15.912c3.366,8.568,8.567,16.524,12.24,25.092
			c1.836,4.59,8.567,5.202,10.098,0C362.084,321.112,364.533,282.556,362.391,245.224z"/>
		<path d="M403.701,262.054c-6.12-1.224-12.852,0-18.972,2.448c0.306-1.224,0.306-2.754,0.306-3.979
			c0.306-2.754-4.284-3.366-4.896-0.612c-0.306,2.448-0.611,4.59-0.918,7.038c-0.918,0.612-2.142,0.918-3.06,1.53
			c-3.06,1.53-0.612,5.508,2.142,4.896c-3.672,26.01-4.283,51.714-5.508,78.03c0,3.366,3.979,5.814,7.038,3.979
			c7.038-4.59,14.688-5.202,20.809-11.016c3.672-3.366-0.919-8.568-5.202-6.427c-4.59,2.143-9.181,3.979-13.464,5.814
			c0-4.896-0.307-9.792-0.307-14.688c4.896-0.306,9.486-1.529,12.853-5.813c1.836-2.448-0.612-6.426-3.366-4.59
			c-3.366,2.447-6.12,3.672-9.486,4.283c0-17.136,0.612-34.578,2.448-51.713c2.754-0.918,5.508-1.53,8.262-1.836
			c3.979-0.306,7.65,0.612,11.628-0.306C407.067,268.174,407.067,262.666,403.701,262.054z"/>
		<path d="M462.147,337.024c-7.956,1.225-14.382,1.53-20.196,4.284c-0.918-7.344-1.836-14.382-2.448-21.726
			c0.307,1.224,0.918,2.142,1.836,3.06c1.836,1.836,5.509-0.612,3.672-3.06c-0.306-0.307-0.306-0.307-0.306-0.307h0.306
			c0.918-0.306,2.143-0.306,3.061-0.306c1.836,0,3.672,0,5.813-0.306c2.754-0.612,2.754-5.202,0-5.509
			c-3.978-0.611-8.874-0.306-12.546,1.53c-1.529,0.612-1.836,1.836-2.142,2.754c-1.53-18.666-2.143-37.638-2.754-56.304
			c6.731,3.06,15.605,3.672,22.338,2.142c2.754-0.612,2.754-5.202,0-5.508c-7.038-1.224-16.218,0.612-22.338-3.06
			c0-1.224,0-2.754,0-3.978c0-4.284-6.732-4.284-6.732,0c-0.611,33.66-0.611,67.015,3.366,100.674
			c0.612,5.202,6.426,6.732,9.486,2.448c3.672-4.896,17.136-5.813,22.95-9.18C469.796,341.92,466.737,336.106,462.147,337.024z"/>
		<path d="M448.071,180.964c-3.979,0.306-5.508,7.038-0.918,7.65c39.168,5.508,54.773,24.48,56.304,63.648
			c0.918,21.42-2.142,42.534-3.978,63.954c-6.427-13.771-12.24-27.54-16.524-41.922c-1.53-5.202-9.486-4.284-9.486,1.224
			c0.307,23.562,0.612,47.124,1.53,70.38c0.306,4.284,6.426,4.284,6.426,0c0.612-14.382,0.918-29.069,1.225-43.452
			c4.896,12.24,10.403,23.868,16.523,35.803c2.448,4.59,9.181,2.142,9.181-2.448C509.577,282.556,535.586,175.456,448.071,180.964z"
			/>
	</g>
</g>
<g>
</g>
<g>
</g>
<g>
</g>
<g>
</g>
<g>
</g>
<g>
</g>
<g>
</g>
<g>
</g>
<g>
</g>
<g>
</g>
<g>
</g>
<g>
</g>
<g>
</g>
<g>
</g>
<g>
</g>
</svg>
