<?xml version="1.0" encoding="iso-8859-1"?>
<!-- Generator: Adobe Illustrator 16.0.0, SVG Export Plug-In . SVG Version: 6.00 Build 0)  -->
<!DOCTYPE svg PUBLIC "-//W3C//DTD SVG 1.1//EN" "http://www.w3.org/Graphics/SVG/1.1/DTD/svg11.dtd">
<svg version="1.1" id="Capa_1" xmlns="http://www.w3.org/2000/svg" xmlns:xlink="http://www.w3.org/1999/xlink" x="0px" y="0px"
	 width="581.365px" height="581.366px" viewBox="0 0 581.365 581.366" style="enable-background:new 0 0 581.365 581.366;"
	 xml:space="preserve">
<g>
	<g>
		<path d="M195.722,492.078c-20.808-13.158-45.9-17.136-68.238-27.846c-3.672-1.836-8.568,0.306-8.568,4.896
			c0.918,38.862,23.562,73.135,63.954,77.725c3.978,0.612,4.896-6.12,0.918-7.038c-31.518-7.038-49.572-31.519-52.938-62.118
			c19.89,8.262,41.004,14.382,61.506,21.726C197.251,500.952,199.7,494.526,195.722,492.078z"/>
		<path d="M382.075,491.16c-12.239,5.814-26.01,6.732-39.474,8.874c0.612-15.3-3.672-29.988-0.918-45.288
			c0.612-3.978-3.366-8.874-7.344-5.813c-12.546,9.485-24.174,19.584-36.414,29.069c-24.48,18.666-44.982,8.874-63.648-12.239
			c-2.448-2.754-7.65-1.53-8.262,2.142c-4.59,25.704-4.284,48.348,7.038,71.91c1.836,3.672,7.65,0.918,6.426-2.754
			c-7.344-19.584-7.956-37.639-5.508-57.528c35.496,34.272,62.729,10.71,97.002-15.912c0,13.771,3.366,26.929,0.918,41.004
			c-0.612,3.979,2.142,7.345,6.426,6.427c14.076-3.061,26.01-3.366,38.557-7.038c-2.448,7.344-5.814,14.382-7.345,22.031
			c-0.918,5.202,5.509,7.956,8.263,3.673c6.119-9.181,9.792-22.032,11.628-32.742C390.644,492.384,386.359,489.018,382.075,491.16z"
			/>
		<path d="M578.527,201.377c-4.896-16.83-15.3-32.436-31.823-38.862c-17.137-6.732-33.354,4.284-44.37,17.136
			c1.836-5.814,1.836-12.24-0.612-19.584c-11.934-34.884-77.418-42.84-107.406-47.43c22.032-22.338,36.414-46.206,0.918-78.336
			c-7.038-6.426-16.83,3.366-10.403,10.404c25.397,27.54,13.464,46.818-5.814,65.79c-16.83-1.836-42.228-4.284-71.91-5.508l0,0
			c7.038-22.644,9.792-47.43-1.224-69.156c-3.672-7.038-15.606-2.142-12.852,5.508c7.649,22.032,4.896,42.534-0.918,63.342
			c-26.011-0.612-54.163-0.612-82.009,1.224c-0.918-22.95-7.65-44.064-28.458-56.916c-8.568-5.202-16.218,7.956-7.65,13.158
			c14.688,9.18,19.278,26.01,20.808,44.676c-82.62,7.038-154.53,29.376-134.028,87.21c-0.918,0-1.836,0.612-2.448,0.918
			c-4.896-2.448-10.404-3.366-16.83-2.142c-17.748,3.366-29.376,22.644-35.496,37.638c-6.732,15.912-9.18,36.72,0,52.02
			c10.404,17.137,34.884,18.973,52.02,11.935c9.486,71.91,75.888,147.187,136.782,167.076c-2.142,7.344-3.978,14.994-4.59,23.562
			c-0.306,3.979,6.426,4.896,7.038,0.918c4.896-23.256,13.464-42.533,29.376-60.281c8.568-9.486,19.584-16.219,30.6-22.645
			c20.502-11.934,7.956,19.278,5.202,27.54c-1.53,4.284,3.06,7.956,7.038,7.038c43.146-9.18,58.752-52.938,49.266-92.105
			c49.572,20.808,71.604,68.544,60.895,122.399c-1.225,5.508,6.12,8.262,8.874,4.59c1.224,0.612,2.754,0.612,3.978-0.611
			c11.935-14.994,27.54-23.868,38.862-38.862c14.382,38.862,6.426,76.194-24.48,106.182c-5.508,5.509,2.754,13.464,8.263,8.263
			c38.556-33.66,42.84-84.15,21.726-128.826c-2.142-4.59-8.262-2.448-9.792,1.224c-7.65,18.666-23.256,27.846-35.802,41.616
			c10.71-58.752-22.032-111.69-79.561-130.356c-3.978-1.224-8.262,2.754-6.731,6.732c11.322,32.436,4.59,72.216-28.764,85.374
			c2.448-11.016,2.754-22.032,2.754-33.966c0-3.366-3.672-7.038-7.344-5.509c-34.578,14.383-61.2,37.026-74.052,69.156
			C106.063,410.988,49.76,308.784,90.764,213.618c116.892,39.168,256.122,57.528,369.647,2.448
			c12.853-6.12,28.152-14.688,36.414-26.316c1.225,2.754,5.202,4.284,7.65,1.53c9.792-10.71,23.562-23.562,39.168-16.83
			c12.546,5.508,19.584,20.502,22.95,32.742c3.978,13.464,3.978,29.07-1.836,42.228c-7.344,16.83-21.114,18.36-36.414,22.338
			c-2.754-28.152-8.568-54.468-15.606-75.276c-2.754-7.956-14.994-4.896-12.546,3.366c20.196,71.604,34.884,201.348-49.266,238.068
			c-5.202,2.143-1.53,10.71,3.672,9.181c63.342-20.502,78.948-94.86,74.664-163.405
			C574.243,291.341,588.014,234.425,578.527,201.377z M300.985,120.593c25.398,0.918,45.9,2.448,56.916,3.06
			c2.143,0,4.284,0.306,6.426,0.612c-3.365,3.06-6.731,6.426-10.098,9.486c-11.934,11.934-19.89,25.092-20.502,39.168
			c-14.688,0-29.376-0.306-44.064-0.918C285.686,158.843,294.254,136.812,300.985,120.593z M210.41,120.593
			c26.622-1.224,53.55-1.224,77.112-0.612c-2.448,7.65-4.896,15.3-7.038,23.256c-2.754,10.098-3.672,20.196-0.306,28.458
			c-8.874-0.306-17.748-0.918-26.622-1.53c-13.464-0.918-27.234-2.448-41.004-3.06C208.268,154.253,209.798,137.423,210.41,120.593z
			 M57.104,284.916c-14.076,0.918-31.518,4.896-40.698-8.568c-7.65-11.322-4.284-27.54,0-39.474
			c4.284-12.546,12.852-25.704,25.092-31.518c12.24-5.814,23.868,6.732,30.294,16.83C60.164,241.463,55.879,262.883,57.104,284.916z
			 M76.382,215.759c-1.53-3.06-3.06-6.12-4.896-8.874c3.06,1.224,6.12,2.142,9.18,3.366
			C78.83,212.087,77.605,213.923,76.382,215.759z M471.733,193.115c-20.502,14.688-47.735,20.502-71.91,26.622
			c-114.138,27.846-218.79,7.65-328.644-23.256c0.918-1.224,1.53-2.754,0.918-4.896c-11.934-47.736,52.326-64.872,123.624-70.074
			c0.612,15.912,0.306,32.13,3.06,45.288c-21.42,0.306-41.922,3.978-60.282,17.136c-4.59,3.366-0.612,11.016,4.59,7.956
			c18.054-10.71,38.25-13.77,59.058-13.77c6.12,14.076,18.666,22.644,44.676,19.278c4.896-0.612,5.202-7.65,0-7.956
			c-13.158-0.918-22.032-4.896-27.54-10.71c20.196,1.224,40.392,4.284,59.364,4.896c4.284,0,8.568,0.306,12.853,0.306
			c0.612,0.306,1.224,0.918,1.836,1.224c1.529,0.612,2.754,0,3.365-0.918c12.853,0.306,25.704,0.612,38.557,0.306
			c1.53,5.814,4.59,11.628,9.18,17.748c3.366,4.284,10.404-1.224,7.65-5.814c-2.448-4.284-3.979-8.262-4.896-11.934
			c27.234-0.612,54.468-2.448,81.702-7.038c6.732-1.224,3.672-11.016-2.754-10.098c-26.316,3.672-52.632,5.508-79.254,5.814
			c2.448-17.136,18.054-32.13,34.271-47.124c23.257,2.448,45.9,7.038,68.544,14.076
			C474.182,147.521,503.252,170.472,471.733,193.115z"/>
	</g>
</g>
<g>
</g>
<g>
</g>
<g>
</g>
<g>
</g>
<g>
</g>
<g>
</g>
<g>
</g>
<g>
</g>
<g>
</g>
<g>
</g>
<g>
</g>
<g>
</g>
<g>
</g>
<g>
</g>
<g>
</g>
</svg>
