<?xml version="1.0" encoding="iso-8859-1"?>
<!-- Generator: Adobe Illustrator 16.0.0, SVG Export Plug-In . SVG Version: 6.00 Build 0)  -->
<!DOCTYPE svg PUBLIC "-//W3C//DTD SVG 1.1//EN" "http://www.w3.org/Graphics/SVG/1.1/DTD/svg11.dtd">
<svg version="1.1" id="Capa_1" xmlns="http://www.w3.org/2000/svg" xmlns:xlink="http://www.w3.org/1999/xlink" x="0px" y="0px"
	 width="565.762px" height="565.762px" viewBox="0 0 565.762 565.762" style="enable-background:new 0 0 565.762 565.762;"
	 xml:space="preserve">
<g>
	<path d="M406.774,385.162c-4.59-67.32-13.464-134.028-16.218-201.654c0-1.224-0.612-2.448-0.918-3.06
		c-5.814-16.83-38.25-13.77-51.408-13.77c3.979-10.098,6.426-20.196,8.262-30.906c0.918-5.508,1.836-11.628,1.53-17.748
		c0.306,0,0.612,0.306,1.225,0.306c17.441-0.918,42.533-10.71,21.113-28.458c-5.508-4.59-11.628-7.038-18.054-8.568
		c-0.918-12.24,0-23.868,2.448-35.802c2.142-10.098,7.038-20.196,5.813-30.294c-0.611-4.896-6.731-7.344-9.485-2.448
		c-0.307,0.612-0.307,1.224-0.612,1.836c-14.688-17.442-81.396-20.808-82.008-1.53c-2.142-0.306-4.59,0.612-5.202,3.366
		c-2.448,10.098-0.306,21.114,0,31.518c0.306,11.016-0.306,21.726-1.224,32.436c-12.546,0-25.092,1.53-30.6,9.18
		c-12.24,17.442,16.83,22.95,28.152,18.36c0.306,0,0.306-0.306,0.612-0.612c-6.426,15.912-0.306,39.474,3.366,56.61
		c-10.404-2.754-24.48-1.224-34.578,0c-10.71,1.53-20.502,4.896-27.234,13.158c-0.612,0.612-0.612,1.224-0.918,1.836
		c-0.918,0.306-1.836,0.918-1.836,1.836c-9.792,53.55-14.994,108.324-26.01,161.874c-8.874,44.064-21.726,86.599-26.01,131.58
		c-6.732,72.522,44.064,83.232,105.57,86.599c41.004,2.142,134.946,18.972,157.284-24.786
		C431.561,494.71,409.835,428.309,406.774,385.162z M273.358,52.234c0.306-6.732,0.918-13.77,0.612-20.808
		c3.366,1.53,7.65,3.06,10.71,0.612c3.978-3.06,3.672-9.18,2.143-13.464c-0.613-1.836-3.367-1.53-3.367,0.306
		c0,2.754,0.306,5.814-0.306,8.568c-0.918,3.978-6.12,1.836-8.568,0.918c-0.306,0-0.612,0-0.918,0
		c-0.306-4.284-0.612-8.568-1.53-12.852c3.06-0.918,5.508-3.366,8.874-4.896c6.731-2.754,14.688-2.754,22.032-2.448
		c8.262,0.306,16.523,2.142,24.174,4.59c7.344,2.142,12.852,7.344,19.584,9.792c-1.53,6.732-2.143,14.076-2.754,20.808
		c-0.307,1.53-0.307,3.06-0.307,4.59c-0.306-0.612-0.918-0.918-1.836-0.918c-3.672,0.306-7.038,1.53-10.403,1.53
		c-3.366,0-0.918-7.956-0.307-9.486c0.612-3.06-3.366-3.978-4.284-1.224c-1.836,4.284-3.978,10.71,0.307,14.688
		c3.978,3.978,12.239,1.53,16.218-1.224c0.306,0,0.306-0.306,0.306-0.306c-0.611,9.486-0.611,18.972,1.225,28.458
		c-18.666-2.142-39.78,2.754-57.223,1.836c-4.284-0.306-11.016-0.918-18.054-1.224C272.135,70.9,273.053,61.72,273.358,52.234z
		 M169.931,399.544c15.912-71.604,28.764-143.82,35.19-217.26c0.612,0,1.224-0.306,1.836-0.918
		c9.18-7.956,20.808-8.874,32.436-8.874c8.568,0,19.278,2.448,27.54-0.612c0.918-0.306,1.836-0.918,2.448-1.836
		c0.918-0.306,1.53-1.224,1.53-2.448c-0.306-11.322-1.224-22.644-1.53-33.966c-0.306-10.098,1.836-20.808,0.306-30.6
		c-0.612-3.672-5.508-3.672-7.344-0.918c-0.306,0.306-0.306,0.918-0.612,1.224c-0.306-0.612-1.224-1.53-2.754-1.53
		c-5.814-0.306-27.54-4.59-13.464-8.874c4.896-1.53,10.404-1.53,15.606-1.836c8.874-0.612,18.054,0,26.928,0.612
		c7.956,0.306,15.605,0.306,23.562-0.306c7.344-0.612,14.688-1.224,22.338-1.53c7.956-0.612,15.912,0.612,23.562,3.672
		c9.792,12.852,6.731,17.748-8.568,15.3c-0.918,0-1.53,0.306-2.142,0.612c0-0.612-0.307-1.224-0.307-1.53
		c-1.529-3.978-6.426-3.978-7.956,0c-3.06,8.262-1.836,17.748-2.754,26.316c-0.918,10.404-3.06,20.502-6.119,30.6
		c-1.225,3.672,1.836,5.508,4.896,5.202c-0.306,1.836,0.612,3.672,2.754,4.284c8.262,1.836,16.524,1.836,24.48,3.06
		c4.283,0.612,8.262,1.53,12.239,3.366c1.53,0.612,2.754,1.836,3.979,3.06l0,0c0.612,17.136,1.53,34.272,2.448,51.408
		c-0.612,0-1.225,0-1.836,0.306c-54.162,21.42-121.176,26.316-174.42,0.306c-3.672-1.836-6.732,3.366-3.06,5.508
		c51.714,33.048,125.46,28.458,180.234,4.896c3.672,60.894,9.485,122.094,16.83,182.376c-1.225,0-2.755,0.306-4.284,1.224
		c-51.408,41.311-185.13,53.244-225.216-8.874c-0.612-1.224-1.836-1.529-2.754-1.836
		C167.177,411.172,168.707,404.746,169.931,399.544z M340.066,547.954c-24.786-0.306-49.572,1.53-74.358,1.836
		c-29.682,0-60.894-1.836-88.128-14.382c-31.824-14.688-22.95-69.462-14.382-108.018c36.72,70.991,182.07,51.714,235.314,11.628
		c0.306,1.529,0.306,2.754,0.612,4.284C405.244,491.038,403.715,548.566,340.066,547.954z"/>
	<path d="M299.062,39.382c-3.978-1.53-10.71-2.754-13.771,1.53c-2.753,3.978,0.307,7.65,3.061,10.404
		c1.53,1.224,4.284-0.306,2.754-2.142c-1.224-1.53-3.672-4.284-0.612-5.508c2.448-0.918,5.509-0.612,7.956-0.612
		C300.593,42.748,300.898,39.994,299.062,39.382z"/>
	<path d="M324.154,29.896c-3.365,0.612-6.731,1.836-10.098,1.836c-3.979,0-2.754-5.202-2.142-7.65
		c0.611-2.448-3.061-4.284-4.284-1.836c-2.143,5.202-3.366,10.71,1.529,14.382c4.591,3.06,12.853,0,16.83-2.448
		C328.438,32.65,326.908,29.59,324.154,29.896z"/>
	<path d="M318.341,49.786c-8.262-0.918-14.688,0-19.891,7.344c-0.611,0.918-0.306,1.836,0,2.754c1.53,3.06,2.754,6.426,5.202,8.874
		c2.143,2.142,4.896-0.918,3.061-3.06c-2.448-3.06-3.672-7.038,0-9.486c3.365-2.142,7.956-1.836,11.628-2.142
		C320.788,53.764,320.788,50.092,318.341,49.786z"/>
	<path d="M371.891,336.814c-5.814-42.534-45.288-75.276-88.128-71.604c-41.31,3.672-66.708,41.31-69.462,79.866
		c-1.836,26.928,14.688,61.506,43.758,56.304c-1.836,1.836-3.06,3.979-3.978,6.732c-1.836,5.508,0.918,11.934,4.284,16.218
		c3.672,4.284,9.792,4.896,14.382,2.448c1.836-0.918,3.06-2.142,4.284-3.672c2.142,4.896,6.12,8.567,11.934,8.874
		c6.12,0.306,9.792-2.754,11.628-7.344c3.978,4.896,9.486,7.344,16.218,2.754c9.792-6.732,8.262-19.891,2.754-29.376
		c7.956,0.918,14.994,0.306,21.114-1.837c0.306,0.918,1.224,1.53,2.142,0.307c0.307-0.612,0.918-0.918,1.225-1.53
		C365.158,386.692,375.562,362.824,371.891,336.814z M316.198,386.08c-2.754,0-4.283,1.836-5.201,3.979
		c-2.755,0.611-4.284,3.978-2.143,6.731c4.896,5.814,11.322,14.994,5.202,22.645c-6.732,8.567-11.016-9.486-11.628-13.464
		c-0.918-5.202-8.568-3.061-7.956,2.142c0,0.612,0.306,1.224,0.306,2.142c0.612,5.202,1.225,15.301-5.202,14.076
		c-6.426-1.224-7.344-9.792-7.038-15.912c0.306-1.224,0.306-2.447,0.306-3.672h-0.306c-0.306-4.284-7.038-5.813-7.65-1.224
		c-0.918,4.896-3.366,21.42-10.71,13.77c-5.202-5.202-1.53-15.3,3.978-18.666c0.306-0.306,0.306-0.611,0-1.224
		c1.224-1.836-0.306-4.896-2.754-5.202c-28.764-0.918-39.168-20.502-37.944-47.736c1.224-31.518,22.338-59.364,53.244-66.401
		c34.578-7.956,65.79,18.359,76.806,49.266c4.59,12.853,5.508,27.54,0,40.393C350.471,385.468,332.11,385.774,316.198,386.08z"/>
	<path d="M280.396,297.34c-1.836-3.365-6.426-2.142-7.65,0.612c-25.398,5.814-35.802,54.774-21.114,73.134
		c10.098,12.546,25.398,0.918,30.906-9.792C291.413,343.853,289.271,314.782,280.396,297.34z M277.031,346.3
		c-1.224,8.263-13.77,31.519-19.89,14.688c-6.426-17.748,0.306-44.982,16.218-56.61C277.031,318.148,278.867,332.225,277.031,346.3z
		"/>
	<path d="M297.532,295.504c-2.447-0.611-4.896,1.225-5.508,3.366c0,0,0,0,0,0.306c-5.814,21.114,7.038,88.74,41.616,71.299
		C365.158,354.562,317.116,301.624,297.532,295.504z M333.641,360.376c-13.464,16.218-28.152-11.628-31.518-21.113
		c-3.673-10.404-7.038-22.95-6.12-34.272c7.344,6.12,14.688,11.628,21.42,18.666C323.849,330.389,342.209,349.973,333.641,360.376z"
		/>
</g>
<g>
</g>
<g>
</g>
<g>
</g>
<g>
</g>
<g>
</g>
<g>
</g>
<g>
</g>
<g>
</g>
<g>
</g>
<g>
</g>
<g>
</g>
<g>
</g>
<g>
</g>
<g>
</g>
<g>
</g>
</svg>
