<?xml version="1.0" encoding="iso-8859-1"?>
<!-- Generator: Adobe Illustrator 16.0.0, SVG Export Plug-In . SVG Version: 6.00 Build 0)  -->
<!DOCTYPE svg PUBLIC "-//W3C//DTD SVG 1.1//EN" "http://www.w3.org/Graphics/SVG/1.1/DTD/svg11.dtd">
<svg version="1.1" id="Capa_1" xmlns="http://www.w3.org/2000/svg" xmlns:xlink="http://www.w3.org/1999/xlink" x="0px" y="0px"
	 width="583.096px" height="583.096px" viewBox="0 0 583.096 583.096" style="enable-background:new 0 0 583.096 583.096;"
	 xml:space="preserve">
<g>
	<path d="M582.92,158.651c1.53-7.038-7.344-10.71-11.321-4.896c-3.672,5.508-76.807,2.142-86.292,2.447
		c-58.446,1.225-116.893,0-175.032-1.224c-96.696-2.142-200.43,1.53-295.29-17.442c-3.366-0.611-5.814,0.612-7.344,2.754
		c-2.448-0.306-5.508,1.225-5.508,4.591c-5.508,97.308-3.06,200.735,40.698,289.476c2.448,4.896,10.098,5.814,13.77,1.836
		c41.31-46.206,58.14-109.854,70.992-172.278c5.814,14.076,17.136,26.011,35.496,33.354c41.31,16.218,61.506-17.748,70.074-54.774
		c10.098,26.011,28.152,46.818,59.058,47.736c17.136,0.612,28.458-7.956,35.497-20.196c9.18,17.442,24.785,30.906,48.653,36.414
		c33.048,7.65,54.162-13.158,59.364-40.086c12.546,63.648,29.988,125.46,72.828,176.562c3.978,4.896,11.934,2.754,14.688-1.836
		c26.316-42.84,37.944-93.024,46.818-141.678c7.038-38.862,15.3-86.904-0.612-124.543c-0.611-1.224-1.224-1.836-2.142-2.447
		C576.188,168.443,582.002,164.159,582.92,158.651z M20.187,291.762c-6.12-46.206-5.814-93.024-8.262-139.536
		c37.944,9.486,77.724,14.994,118.116,18.054c-0.612,0.918-1.224,1.836-1.53,3.366c-18.054,74.97-28.458,154.225-64.872,223.074
		C44.36,433.134,21.716,303.695,20.187,291.762z M280.898,272.178c-33.354-7.345-40.698-55.387-42.534-84.456
		c0-2.143-0.306-3.979-0.306-5.814c-0.918-10.403-16.83-10.71-16.524,0c0,3.061,0.306,6.12,0.612,9.181
		c1.53,38.25-4.284,102.815-55.08,91.188c-26.01-6.12-33.354-28.764-32.742-52.938c3.366-16.83,6.732-33.354,10.404-49.267
		c0.612-1.224,0.918-2.448,1.53-3.672c0.612-1.53,0-2.448-1.224-3.06c-0.306-0.918-0.612-1.53-0.918-2.143
		c60.894,3.672,122.706,2.754,181.458,3.672c-2.142,0.918-3.978,2.448-4.59,4.896c-5.202,22.032-6.426,46.206-1.836,67.626
		C314.252,264.527,303.236,277.073,280.898,272.178z M420.435,246.167c5.813,38.557-26.316,53.551-57.834,37.639
		c-14.688-7.344-22.95-19.891-26.929-34.272c5.814-24.174,3.979-53.244,1.53-69.768c-0.306-2.448-1.836-3.979-3.672-4.896
		c4.896,0,9.792,0,14.688,0.307c8.567,0.306,37.332,2.447,71.604,4.284c3.672,18.666,6.732,37.638,10.098,56.609
		C425.024,235.457,419.21,239.436,420.435,246.167z M513.765,419.363c-51.714-68.85-58.446-156.978-75.582-239.292
		c44.063,1.53,93.636,1.53,121.788-5.813c-0.307,0.918-0.307,1.836-0.307,3.06C574.353,251.063,551.097,351.432,513.765,419.363z"/>
</g>
<g>
</g>
<g>
</g>
<g>
</g>
<g>
</g>
<g>
</g>
<g>
</g>
<g>
</g>
<g>
</g>
<g>
</g>
<g>
</g>
<g>
</g>
<g>
</g>
<g>
</g>
<g>
</g>
<g>
</g>
</svg>
