<?xml version="1.0" encoding="iso-8859-1"?>
<!-- Generator: Adobe Illustrator 16.0.0, SVG Export Plug-In . SVG Version: 6.00 Build 0)  -->
<!DOCTYPE svg PUBLIC "-//W3C//DTD SVG 1.1//EN" "http://www.w3.org/Graphics/SVG/1.1/DTD/svg11.dtd">
<svg version="1.1" id="Capa_1" xmlns="http://www.w3.org/2000/svg" xmlns:xlink="http://www.w3.org/1999/xlink" x="0px" y="0px"
	 width="593.139px" height="593.139px" viewBox="0 0 593.139 593.139" style="enable-background:new 0 0 593.139 593.139;"
	 xml:space="preserve">
<g>
	<g>
		<path d="M592.622,322.912c-5.814-97.614-76.194-218.79-179.01-128.826c-22.338-15.3-50.796-23.562-80.784-26.316
			c-26.316-31.518-27.846-69.768-17.442-108.63c0.918-3.366-0.918-5.814-3.978-7.038c-11.017-4.284-22.644-6.732-33.66-11.322
			c-2.142-0.918-5.202,0.612-6.426,2.448c-19.584,42.228-22.032,83.844-20.808,129.132c-15.606,3.06-30.6,7.344-44.676,12.852
			c-0.306-0.306-0.612-0.918-1.224-1.224c-58.14-38.556-119.646-26.01-161.262,31.212C4.49,268.444-5.914,316.18,2.96,380.134
			c10.098,72.828,70.38,243.271,158.814,131.58c0-0.306,0.306-0.306,0.306-0.612c73.134,46.206,193.086,60.895,257.346,7.345
			c-0.306,1.529,0.307,3.06,2.143,3.978C551.006,571.078,598.742,424.504,592.622,322.912z M262.754,105.346
			c2.142-13.158,5.814-26.01,10.098-38.556c5.814-16.83,18.666-11.322,30.294-6.12c-9.181,37.944-7.039,74.664,14.993,105.876
			c-20.196-0.612-41.003,0.918-61.2,4.284C257.858,148.798,259.388,127.072,262.754,105.346z M423.404,515.692
			c-0.307,0-0.612,0-0.918,0c14.688-13.158,26.315-30.294,33.354-51.408c1.836-5.814-7.038-9.486-10.098-4.284
			c-61.2,110.16-240.21,97.614-319.464,11.628c-3.06-3.366-7.65,1.53-4.896,4.896c8.568,10.403,19.278,19.89,31.518,28.764
			C67.832,589.744,28.97,456.939,16.118,386.56c-6.732-36.72-8.568-70.38,3.978-105.569c27.54-76.806,97.92-137.394,178.092-92.718
			c-18.972,7.956-35.802,18.054-48.654,29.682c-3.978,3.366,1.836,8.568,5.508,5.508c26.928-20.808,60.588-34.578,96.084-40.698
			c1.224,1.836,4.284,1.53,4.896-0.918c64.566-9.792,134.334,5.202,179.622,47.736c3.979,3.672,11.017-1.224,7.65-6.12
			c-5.813-8.874-13.158-16.524-21.114-23.256c37.944-26.928,79.561-41.31,115.362-2.142c31.212,33.966,40.086,88.128,42.228,132.497
			C585.278,428.176,541.214,546.904,423.404,515.692z"/>
		<path d="M226.034,357.49c-15.912-36.108-36.108-68.238-61.812-98.532c-4.284-4.896-14.076-2.448-14.994,3.978
			c-6.12,34.271-11.628,69.155-14.688,103.733c-0.306,2.448,0.918,4.284,2.754,5.202c-0.612,0.918-1.224,1.836-1.53,2.754
			c-3.978,7.038,6.732,13.464,11.016,6.426c8.262-14.076,17.136-25.397,34.272-21.42c12.546,2.754,25.092,3.366,37.026,8.262
			C224.504,370.647,228.176,362.386,226.034,357.49z M169.118,343.414c-6.426,0-12.852,4.896-18.666,10.71
			c5.202-22.95,9.486-46.206,13.158-69.461c16.83,19.278,28.764,41.616,41.004,64.259
			C192.68,345.862,179.216,343.414,169.118,343.414z"/>
		<path d="M456.146,346.78c-16.83-34.885-28.152-71.91-45.288-106.794c-2.448-5.202-9.792-3.366-11.628,1.53
			c-11.629,34.884-26.011,68.237-42.229,100.979c-1.53,3.366,1.53,6.12,4.284,5.508c-1.225,3.06,1.224,6.732,4.896,7.038
			c11.628,1.224,29.376-7.344,40.393-14.688c13.464,5.509,27.54,9.181,41.004,14.994C453.392,358.102,459.206,352.9,456.146,346.78z
			 M364.958,344.332c17.442-25.704,30.294-55.08,41.004-84.456c11.322,26.01,20.808,52.631,32.13,78.641
			c-9.792-3.365-19.89-6.426-29.682-11.016c-3.061-1.224-5.508-0.918-7.956,0.918C390.662,336.682,375.362,336.988,364.958,344.332z
			"/>
		<path d="M332.828,438.273c-6.426-30.294-16.524-60.588-34.578-85.68c-2.754-3.672-9.486-3.978-10.71,1.53
			c-5.508,25.704-21.114,48.042-26.01,73.746c-0.918,4.59,5.202,6.12,7.038,1.836c0-0.306,0.306-0.306,0.306-0.612
			c16.83,11.628,37.944,16.524,58.14,17.137C330.992,446.229,333.44,442.252,332.828,438.273z M273.158,417.771
			c7.344-16.218,15.606-31.823,21.726-48.348c11.628,19.584,18.973,41.311,23.868,63.648
			C302.534,431.236,288.152,425.728,273.158,417.771C273.464,417.771,273.464,417.771,273.158,417.771z"/>
	</g>
</g>
<g>
</g>
<g>
</g>
<g>
</g>
<g>
</g>
<g>
</g>
<g>
</g>
<g>
</g>
<g>
</g>
<g>
</g>
<g>
</g>
<g>
</g>
<g>
</g>
<g>
</g>
<g>
</g>
<g>
</g>
</svg>
