<?xml version="1.0" encoding="iso-8859-1"?>
<!-- Generator: Adobe Illustrator 16.0.0, SVG Export Plug-In . SVG Version: 6.00 Build 0)  -->
<!DOCTYPE svg PUBLIC "-//W3C//DTD SVG 1.1//EN" "http://www.w3.org/Graphics/SVG/1.1/DTD/svg11.dtd">
<svg version="1.1" id="Capa_1" xmlns="http://www.w3.org/2000/svg" xmlns:xlink="http://www.w3.org/1999/xlink" x="0px" y="0px"
	 width="582.747px" height="582.748px" viewBox="0 0 582.747 582.748" style="enable-background:new 0 0 582.747 582.748;"
	 xml:space="preserve">
<g>
	<path d="M550.118,7.21c-28.458-20.196-58.141,14.382-51.408,43.146c-71.91-8.567-150.246,1.836-222.462,4.284
		c-37.638,1.225-74.97,2.448-112.608,3.672c-15.606,0.612-37.332-2.447-54.162,2.143c1.224-20.196-4.896-44.982-23.256-55.692
		c-14.076-7.956-31.824-3.672-44.37,4.59C28.388,18.533,18.596,33.526,18.29,50.05c-0.306,19.584,14.382,33.354,30.294,42.534
		c-17.136,16.523-20.808,43.146,0.612,59.976c8.874,7.038,19.89,8.874,30.294,4.284c12.546-5.813,16.83-21.42,18.666-34.578
		c0.612,0,0.918,0.307,1.53,0.307c130.968,3.978,261.937-7.345,393.21-3.673c-2.754,12.547-0.611,26.622,8.874,35.803
		c9.181,8.874,24.174,9.18,35.496,5.202c12.853-4.284,22.95-14.688,26.316-27.847c4.284-16.523-4.59-32.742-15.3-44.981
		C569.396,64.432,579.8,28.63,550.118,7.21z M533.288,147.665c-7.345,3.06-16.83,3.366-23.256-1.53
		c-10.404-8.262-7.65-22.95-6.732-34.271c0.306-2.755-1.53-3.979-3.366-3.979c-1.224-1.836-3.06-3.366-5.813-3.366
		c-131.274-4.896-263.466,1.53-394.74,6.427c-1.836,0-3.366,0.918-4.284,1.836c-2.142-0.307-4.284,0.611-4.59,3.06
		c-2.754,15.3-13.77,42.84-33.354,27.234c-17.136-13.465-10.71-34.885,5.202-45.9c3.366-2.142,4.284-8.262,0-10.404
		c-14.688-6.426-31.212-17.441-32.13-35.189c-0.918-12.24,7.038-23.868,16.524-31.212c9.18-6.732,21.726-11.322,32.742-6.427
		c17.748,7.956,18.054,31.824,19.584,47.736c0,1.224,0.612,1.836,0.918,2.754c-0.612,0.307-1.224,0.612-1.53,0.918
		c-0.918,0.612-0.918,2.143,0,2.754c16.83,11.017,45.9,4.896,65.178,4.59c37.638-0.611,74.97-1.836,112.608-3.06
		c73.134-2.448,149.939,2.448,222.768-6.426c4.284-0.612,6.426-3.979,6.12-7.038c1.53-0.306,3.06-1.224,3.672-3.061
		c4.284-11.934,1.53-27.539,12.853-36.107c7.038-5.202,15.605-3.366,22.338,1.224c26.01,16.83,7.344,49.267-9.486,64.261
		c-2.754,2.447-2.448,6.731,0,9.18C550.118,107.884,561.134,136.648,533.288,147.665z"/>
	<path d="M138.548,175.51c-5.202-11.016-16.524-18.972-28.458-20.502c-16.524-1.836-30.6,7.65-41.616,19.278
		c-15.3-10.404-38.556-15.912-51.102,1.529c-4.284,5.814-4.896,13.771-0.306,19.584c6.732,8.568,18.972,9.486,29.07,8.874
		c-3.978,79.866-16.218,162.181-10.71,242.047c0.306,5.202,7.65,5.202,7.956,0C50.42,365.537,55.01,282.61,52.256,201.52
		c0-2.142-1.836-3.06-3.366-2.754c-7.344-0.918-33.048-5.508-22.644-17.748c10.404-11.934,29.376-3.978,39.168,4.284
		c2.142,1.836,5.508,2.448,7.65,0c14.076-16.218,40.086-30.294,54.774-6.732c3.978,6.427,5.202,14.994,1.836,21.727
		c-5.814,10.71-20.196,10.098-30.294,11.322c-4.896,0.611-6.732,7.956-1.224,9.18C126.614,227.836,151.706,203.663,138.548,175.51z"
		/>
	<path d="M95.402,225.694c-19.278,73.44-13.464,155.755-8.568,230.725c0.306,3.061,4.284,3.061,4.59,0
		c4.284-76.806,0-152.388,11.628-228.888C103.664,222.634,96.626,220.493,95.402,225.694z"/>
	<path d="M546.445,427.042c-2.447-1.224-4.896-0.612-6.426,1.224c11.628-16.523,11.322-44.369,12.24-62.117
		c2.142-40.393,1.836-83.232,0.306-123.931c1.225,0.306,2.448,0.306,3.979-0.306c24.479-11.628,34.271-40.698,18.666-63.954
		c-6.12-8.874-15.912-14.994-26.928-13.464c-11.629,1.836-19.584,11.016-25.093,21.113c-6.426-8.874-14.993-16.829-26.315-18.054
		c-10.71-1.224-20.502,4.284-26.316,13.158c-6.12,9.18-5.813,21.114-0.612,30.6c6.732,11.935,20.503,16.83,33.66,18.973
		c-5.202,63.036-6.12,126.378-12.546,189.414c-0.611-0.918-1.836-1.53-3.366-0.918c-21.726,8.262-37.638,24.174-44.37,46.817
		c-0.918,3.366,1.837,6.732,5.202,6.732c10.71,0.306,23.257,5.202,33.967,2.754c9.792-2.142,16.218-10.098,21.42-18.36
		c7.038,9.181,16.523,16.524,26.622,20.502c-16.219,3.672-29.683,18.666-35.803,33.66c-0.306,0.307-0.306,0.918-0.306,1.225
		c-61.506-3.366-122.706-7.038-183.906-12.547c-52.938-4.59-116.586-17.136-169.83-6.119
		c-11.934-22.032-40.086-43.759-62.424-20.809c-4.896,4.896-7.344,11.628-7.65,18.36c-5.202-1.836-11.016-3.061-11.322-8.874
		c-0.306-4.284-6.12-7.956-9.486-3.979c-7.344,8.874-15.3,12.853-26.01,15.912c-3.978,1.225-7.956,2.448-11.628,4.284
		c-4.284-19.584,5.202-32.13,23.256-43.452c3.06-1.836,1.224-6.731-2.448-5.813C5.132,456.113-6.19,482.428,3.296,508.438
		c1.53,3.979,6.12,5.509,9.486,2.448c6.12-5.202,14.994-6.12,22.338-8.874c6.12-2.142,11.628-5.508,16.218-9.792
		c3.978,6.12,11.628,7.65,20.808,8.568c0,0.306,0,0.306,0.306,0.611c3.978,9.181,12.24,14.383,21.114,17.748
		c-17.136,12.547-33.354,33.967-17.442,52.633c18.972,22.338,53.55-3.979,61.812-23.868c1.836-4.896-4.59-7.344-7.956-4.59
		c-8.568,7.649-31.824,39.474-45.9,20.502c-12.852-17.442,14.688-36.414,27.234-42.229c4.284-2.142,3.366-9.792-1.53-10.71
		c-13.77-2.448-37.944-13.158-23.562-29.988c14.994-17.748,35.802,0.307,46.512,13.771l0,0c-1.836,0.306-1.836,3.366,0,3.672
		c0.918,0.306,2.142,0.306,3.06,0.306c1.224,1.225,2.754,1.225,3.978,0.612c50.184,7.65,103.428,4.896,153.918,9.18
		c67.625,5.814,136.169,15.301,204.102,12.546c4.284-0.306,5.508-4.896,3.366-7.649l0,0c8.567-15.3,23.562-29.988,42.533-25.092
		c22.645,5.508,4.284,30.6-4.896,39.168c-2.754,2.448-1.836,7.344,1.224,9.18c7.038,4.284,18.054,11.017,17.748,20.502
		c0,6.732-9.486,10.099-14.688,11.628c-20.502,6.12-43.146-3.672-55.387-20.502c-2.142-2.754-5.202-3.06-7.649-1.836
		c-111.69-5.813-225.522-0.612-337.212,1.224c-4.896,0-4.896,7.345,0,7.345c111.384,1.836,224.91,7.038,336.294,1.224
		c17.136,21.42,47.735,33.354,73.746,21.114c9.18-4.284,16.218-11.628,16.523-22.032c0-10.71-8.874-19.278-17.748-25.092
		c13.464-15.606,23.256-40.086-0.611-51.408c-0.612-0.306-0.918-0.306-1.53-0.612c3.978-0.611,7.649-2.142,11.628-4.283
		C587.45,459.785,561.439,434.999,546.445,427.042z M551.036,467.741c-18.055,5.813-34.578-9.792-42.841-23.868
		c-2.142-3.366-7.037-3.366-9.18,0c-5.202,8.874-11.016,20.502-22.95,20.196c-6.731-0.307-13.464-1.53-20.195-2.448
		c6.731-16.524,19.277-26.928,34.271-37.332l0.307-0.306c0,0.918,0,1.529-0.307,2.447c-0.306,3.673,5.814,4.284,6.426,0.918
		c11.935-66.096,12.853-133.722,16.83-200.735c0.307-3.979-3.365-5.509-6.426-4.284c-16.83-3.672-38.862-15.606-27.846-35.496
		c3.366-6.12,9.485-9.18,16.218-8.874c10.71,0.918,18.36,13.158,22.95,21.42c1.836,3.366,7.956,3.978,9.485,0
		c3.979-9.18,9.792-20.808,20.196-23.868c7.038-2.142,13.464,3.366,17.137,8.874c11.934,17.442,3.365,37.638-14.076,46.512
		c-0.612-2.754-4.896-4.283-6.427-1.224c-10.71,22.644-4.283,57.222-3.06,81.396c1.224,28.151,14.076,105.876-14.382,123.93
		c-1.53,0.918-0.307,3.672,1.53,2.754c3.978-2.142,7.037-5.202,9.791-8.568c-1.224,2.143-0.918,5.202,1.837,6.732
		C552.872,442.342,574.292,460.09,551.036,467.741z"/>
</g>
<g>
</g>
<g>
</g>
<g>
</g>
<g>
</g>
<g>
</g>
<g>
</g>
<g>
</g>
<g>
</g>
<g>
</g>
<g>
</g>
<g>
</g>
<g>
</g>
<g>
</g>
<g>
</g>
<g>
</g>
</svg>
