<?xml version="1.0" encoding="iso-8859-1"?>
<!-- Generator: Adobe Illustrator 16.0.0, SVG Export Plug-In . SVG Version: 6.00 Build 0)  -->
<!DOCTYPE svg PUBLIC "-//W3C//DTD SVG 1.1//EN" "http://www.w3.org/Graphics/SVG/1.1/DTD/svg11.dtd">
<svg version="1.1" id="Capa_1" xmlns="http://www.w3.org/2000/svg" xmlns:xlink="http://www.w3.org/1999/xlink" x="0px" y="0px"
	 width="586.913px" height="586.913px" viewBox="0 0 586.913 586.913" style="enable-background:new 0 0 586.913 586.913;"
	 xml:space="preserve">
<g>
	<g>
		<path d="M579.206,288.455c-20.196-42.84-60.589-43.146-100.062-26.316c21.42-19.278,37.332-42.84,30.906-73.746
			c-11.322-52.326-55.692-75.582-106.794-76.194c-39.475-0.612-74.358,23.256-93.33,55.998
			c-12.546-41.922-66.708-65.178-105.875-69.156c-57.222-5.508-121.176,23.868-142.596,78.336
			c-11.934,30.294,4.284,72.216,32.436,86.292c-32.13,1.224-63.648,14.688-81.396,42.228c-33.354,50.49,3.978,125.767,65.79,119.034
			c2.754,16.219,13.158,30.906,31.518,29.988c9.792-0.612,13.77-5.508,14.382-12.24c5.508,4.284,12.24,7.65,19.584,9.486
			c2.142,0.612,4.59-0.612,5.202-3.061c0.918-4.896,2.142-9.18,2.754-12.852c9.486,7.956,21.42,9.792,29.682-2.448
			c8.874,7.345,19.89,11.628,33.048,11.628c-7.344,10.404-6.12,25.093,7.65,30.906c12.24,5.202,22.644,0.918,29.682-7.344
			c2.142,9.486,7.65,17.442,18.972,19.278c10.098,1.529,14.688-3.979,16.83-11.629c5.814,6.732,14.076,11.322,23.562,8.874
			c13.158-3.06,12.853-13.157,8.568-22.338c20.196,2.448,39.168-3.06,53.855-14.993c-1.529,10.71,6.427,21.726,17.442,25.397
			c12.24,4.284,20.502-2.142,25.092-11.628c3.061,4.59,7.344,7.65,13.464,7.344c3.366-0.306,5.814-1.224,7.956-2.448
			c3.366,5.509,8.874,9.486,17.442,10.099c18.972,1.836,22.95-17.442,19.584-31.824
			C544.016,443.291,609.806,353.633,579.206,288.455z M312.68,192.983c0.306-4.59,0.306-8.874,0-13.158
			c14.688-41.004,61.812-59.976,101.898-58.752c52.325,1.224,96.695,45.288,84.762,98.838
			c-6.732,29.376-42.229,47.736-64.872,64.566c0.306-0.612,0.306-1.224,0.612-1.836c1.836-5.814-7.65-8.568-9.181-2.448
			c-0.611,6.426-4.896,9.18-13.158,7.65c-2.447-2.448-4.283-5.202-5.813-8.262c-2.142-3.672-7.344-1.836-7.344,2.142
			c-0.918,17.748-10.71,3.978-13.464-3.672c-1.837-5.202-8.568-3.06-7.956,2.142c0.918,7.344,0.918,19.584-9.486,20.196
			c-6.12,0.307-12.24-6.731-15.606-11.016c-0.306-0.612-1.224,0-0.918,0.612l0,0c-29.069-14.994-43.758-41.922-44.981-71.604
			C309.619,210.731,311.762,202.469,312.68,192.983z M423.758,297.635c-15.606,13.464-28.458,28.152-35.496,40.698
			c-6.426-12.24-15.606-23.256-25.704-32.742c3.06,1.836,7.038,2.448,11.628,1.224c6.426-1.224,9.486-6.119,11.016-11.628
			c2.755,3.979,6.12,7.038,10.404,6.732c6.426-0.306,9.18-4.896,10.404-10.404C411.823,297.635,418.25,300.083,423.758,297.635z
			 M325.226,281.723c-41.31-15.606-104.958-10.71-141.677,17.748c-7.344-8.262-15.912-14.994-25.704-20.502
			c2.448-2.142,4.896-4.284,7.038-6.426c1.224,9.792,6.732,18.972,17.442,19.584c12.546,0.918,19.89-9.18,21.726-20.196
			c38.862-0.612,74.664-10.404,93.941-37.944C302.275,252.653,311.456,270.401,325.226,281.723z M96.032,143.717
			c27.234-27.846,71.298-36.414,108.324-35.496c45.594,0.918,90.27,31.824,97.614,77.418c-0.918,2.448-1.836,5.202-2.754,7.956
			c-2.754,9.486-3.672,19.89-2.448,30.6c-16.83,31.518-64.565,37.944-97.919,39.474c-4.59,0.306-5.202,6.426-1.836,7.956
			c-2.142,5.814-6.12,10.71-12.852,10.71c-9.792,0.306-10.404-13.464-11.016-19.89c-0.306-3.672-5.202-5.814-7.344-1.836
			c-3.672,6.732-9.486,9.792-14.688,14.382c-3.366-6.12-2.754-13.158-6.732-18.666c-0.918-1.53-2.754-1.53-3.672,0
			c-3.06,4.284-2.448,9.792-0.612,14.994c-4.284-1.53-8.568-2.754-12.852-3.978c2.142-0.918,1.836-4.284-0.612-4.284
			C59.312,261.833,61.148,179.519,96.032,143.717z M150.806,422.789c-0.918-2.754-2.448-5.814-4.896-9.18
			c-2.754-3.673-9.792-1.53-7.956,3.365c1.224,3.061,2.448,5.814,4.284,8.568c1.53,5.508,0.612,10.71-0.612,16.83
			c-8.262-2.754-14.994-7.344-19.584-14.076c-1.53-4.59-3.672-8.874-5.814-12.24c-2.754-3.672-9.18-1.529-7.65,3.366
			c1.53,4.896,3.366,8.874,6.12,12.853c2.448,8.262,1.53,15.911-11.016,13.77c-11.628-2.142-17.136-14.076-19.584-24.786
			c0-0.612,0-0.918-0.306-1.224c-0.306-0.918-0.306-1.53-0.612-2.448c-0.306-2.754-3.978-2.448-5.202-0.306
			C17.39,414.833-7.09,348.125,30.854,301.919c34.272-41.31,110.772-27.234,147.798,1.53c-5.202,4.896-10.098,10.098-13.77,16.218
			c-6.732,11.016-10.404,25.397-11.322,40.086c-0.918-1.224-2.142-2.448-3.06-3.978c-0.612-0.919-1.224-1.837-1.836-2.755
			c2.142-4.896,4.59-9.485,6.732-14.382c1.836-3.978,4.896-8.567,3.978-12.852c-0.612-2.754-3.672-3.366-5.814-2.448
			c-5.814,2.754-8.874,13.464-11.628,20.808c-3.672-4.896-7.344-9.485-11.628-14.075c-2.142-2.143-6.12,0.611-4.284,3.365
			c4.284,6.12,8.262,12.546,12.546,18.973c-1.53,3.06-2.754,6.426-3.978,9.485c-0.612,1.225-2.754,8.568-2.448,8.568
			c-0.612,0.306-0.918,0.918-0.918,1.836l0,0c0,1.836,1.53,3.061,3.366,2.448c4.59-1.225,7.65-8.262,10.098-13.464
			c2.754,4.59,5.814,10.098,9.486,14.688c1.836,18.973,8.568,37.639,20.196,50.796C167.33,441.148,156.926,431.663,150.806,422.789z
			 M311.149,452.165c-1.224-0.918-2.754-0.612-3.978,0c-0.307,0-0.612,0-0.918,0c-4.896,0-5.508,6.731-1.225,8.262
			c0.612,0,0.918,0.306,1.53,0.306c5.508,6.427,11.628,18.36-2.448,16.219c-9.485-1.53-14.381-9.792-16.829-18.055
			c-0.306-1.224-0.612-2.447-0.918-3.672c-1.53-5.508-9.792-3.365-8.568,2.448c1.836,6.732,5.508,23.562-7.038,22.032
			c-12.24-1.53-12.852-18.666-11.628-27.234c0.918-5.202-7.038-7.649-8.262-2.142c-5.508,27.846-40.698,22.644-29.07-4.896
			c0.612,0,0.918,0,1.53,0c2.142-0.306,1.836-3.672,0-3.978c-32.742-7.038-52.938-30.601-58.752-56.916
			c1.53-0.612,2.754-2.143,2.142-3.979c-0.918-2.754-2.448-5.508-3.978-7.956c-1.836-27.233,11.016-55.691,40.086-72.521
			c44.37-25.092,109.548-21.726,149.634,9.486c27.233,21.42,42.533,58.752,37.638,93.023
			C383.978,445.127,347.258,451.859,311.149,452.165z M470.575,434.417c-6.426,0.612-7.344,9.486-1.224,11.016
			c0.306,9.181-1.53,19.891-12.24,20.196c-7.956,0.306-10.71-5.813-11.628-12.24c0.612-4.284,0.918-8.874,0.612-13.158
			c-0.306-4.283-7.038-7.344-8.874-2.447c-2.754,6.731-3.672,14.076-2.754,20.502c-1.224,1.224-3.061,1.836-5.814,1.224
			c-4.283-0.918-6.731-5.813-8.567-10.404c0.306-2.142,0.306-4.283,0.306-6.426c0-2.142-1.53-3.366-3.672-3.672
			c-0.918,0-1.836,0-2.754-0.306c-2.142-0.307-3.979,2.142-3.979,3.978c0,3.061,0.612,7.038,1.837,10.71
			c-2.143,8.262-7.65,14.076-18.667,11.322c-12.852-3.061-10.098-14.382-7.955-23.868c0.306-1.53-0.307-2.754-1.225-3.672
			c7.344-9.18,12.546-20.196,14.994-32.742c4.284-21.42,0.306-42.84-8.568-61.812c0.307,0,0.612-0.307,1.225-0.612
			c36.414-41.004,116.586-112.608,169.218-58.752C617.456,341.087,527.491,427.991,470.575,434.417z"/>
		<path d="M148.052,222.971c-7.344-10.098-14.382-20.808-21.114-31.212c1.836-11.628,2.142-23.868,3.06-34.272
			c0.306-4.284-6.732-5.202-7.344-0.918c-1.224,7.65-2.754,15.3-4.284,22.644c-0.918-1.53-2.142-3.06-3.06-4.59
			c-2.142-3.06-7.344-0.306-5.202,3.06c2.142,3.672,4.284,7.65,6.426,11.628c-2.142,9.792-6.426,18.972-8.262,28.764
			c-0.918,5.202,5.508,7.956,8.568,3.672c3.366-5.202,5.814-11.016,7.344-17.442c4.896,8.874,10.404,17.136,18.36,22.95
			C145.298,229.703,150.5,226.643,148.052,222.971z"/>
		<path d="M237.404,214.709c-3.366-7.65-10.098-14.076-14.994-20.808c-0.612-0.918-1.224-2.142-1.836-3.06
			c2.448-8.568,6.12-19.584,4.59-28.458c-0.306-2.448-3.978-2.142-4.59,0c-1.836,6.12-3.978,12.546-6.12,18.666
			c-2.754-4.896-5.202-9.486-7.344-14.382c-1.53-3.672-7.956-0.918-6.426,2.754c3.06,7.344,6.732,14.688,10.404,21.726
			c-1.836,5.508-3.978,11.016-6.12,16.524c-1.53,3.672-3.672,7.344-1.53,11.322c0.918,1.53,2.754,2.142,4.284,1.836
			c5.508-0.918,8.262-9.486,10.098-17.442c3.672,6.12,7.65,12.546,12.852,16.524C234.65,222.665,239.546,218.993,237.404,214.709z"
			/>
		<path d="M400.195,229.091c-7.649-4.59-15.3-8.262-22.644-13.464c-2.143-1.53-3.979-3.06-6.12-4.59
			c0.918-9.792,1.836-19.89,0.612-29.376c-0.612-4.896-6.732-4.59-7.345,0c-0.918,7.65-1.529,14.994-2.142,22.644
			c-3.672-2.754-7.038-5.814-10.71-8.568c-3.061-2.448-7.344,1.53-4.284,4.284c4.59,4.284,9.486,8.874,14.382,13.158
			c0,0.306,0,0.612,0,0.612c-0.918,6.426-5.202,16.524-2.754,22.644c1.225,3.06,4.59,4.284,7.344,1.836
			c3.979-3.672,4.591-11.016,4.591-17.136c7.956,6.732,16.523,12.546,26.01,15.606C401.42,238.577,404.174,231.539,400.195,229.091z
			"/>
		<path d="M471.493,213.179c-6.426-7.344-14.688-14.076-23.256-19.89c-0.306-12.24-1.836-24.786-2.447-35.802
			c-0.307-5.814-8.874-5.814-9.181,0c-0.611,9.486-0.306,18.666-0.306,28.152c-5.814-3.672-11.935-6.732-17.442-9.792
			c-4.284-2.448-7.956,3.978-3.978,6.732c7.344,4.59,14.076,9.792,21.114,14.994c-0.612,10.098-2.448,20.196-2.755,30.294
			c-0.306,4.896,7.65,7.65,9.792,2.754c3.061-7.038,4.284-14.994,4.896-22.95c5.508,4.896,11.322,10.098,17.748,14.076
			C470.27,224.195,475.166,217.157,471.493,213.179z"/>
		<path d="M473.941,368.321c-4.59-7.345-13.77-12.853-20.502-18.055c-0.306-0.306-0.611-0.306-0.918-0.611
			c0.918-6.732,1.836-13.464,4.284-18.973c0.918-2.142-2.448-3.978-3.979-2.447c-3.978,4.896-5.813,10.403-7.344,16.523
			c-3.672-2.448-7.649-4.59-11.934-6.12c-2.448-0.918-3.979,3.061-1.836,4.284c4.59,2.142,8.567,5.202,12.239,8.568
			c-1.224,5.813-2.142,11.628-3.365,17.441c-0.612,3.979-2.143,7.65,0,11.322c0.918,1.53,3.06,2.448,4.59,1.224
			c5.813-3.978,4.896-14.993,5.813-21.42c0-0.611,0.307-1.224,0.307-1.836c0.306,0.307,0.306,0.307,0.611,0.612
			c5.202,5.508,10.404,12.546,17.442,15.3C472.718,375.053,475.472,370.769,473.941,368.321z"/>
		<path d="M539.426,359.447c-5.814-9.181-15.606-15.912-23.562-23.256c-0.306,0-0.306-0.307-0.611-0.612
			c0.918-8.262,1.836-16.83,2.447-25.092c0.307-4.591-7.344-5.509-8.262-1.225c-1.224,6.12-2.142,11.935-3.366,18.055
			c-6.731-6.427-13.464-12.853-19.584-19.585c-3.365-3.672-8.262,1.53-5.202,5.202c7.345,8.874,14.994,17.442,22.95,25.704
			c-0.306,1.53-0.306,2.754-0.611,4.284c-1.53,9.18-3.979,18.666-2.754,27.846c0.611,3.673,6.731,4.591,8.262,1.225
			c3.366-7.038,3.672-15.3,4.59-23.256c5.813,6.12,11.934,12.546,18.666,16.83C536.672,368.627,541.874,363.73,539.426,359.447z"/>
		<path d="M245.972,398.615c-5.202-13.771-12.24-26.622-19.278-39.475c3.672-10.403,6.732-20.808,7.65-31.824
			c0.306-3.365-5.202-3.978-5.814-0.918c-1.836,7.956-4.284,15.606-7.038,23.257c-3.06-5.202-5.814-10.71-8.874-15.912
			c-1.836-3.672-7.038-0.307-5.508,3.06c3.366,7.65,6.732,15.3,10.098,22.95c-4.284,9.18-10.098,18.36-11.322,28.458
			c-0.612,4.59,4.59,7.038,7.344,3.06c3.978-5.813,6.732-12.852,9.18-19.89c4.896,10.71,10.098,21.114,16.218,30.906
			C240.77,405.653,247.502,403.205,245.972,398.615z"/>
		<path d="M358.273,403.205c-4.59-10.404-11.322-20.502-18.972-29.683c3.06-7.955,6.12-15.911,8.874-23.867
			c1.53-4.591-5.508-7.65-7.65-3.366c-3.06,6.426-5.813,12.852-8.567,19.278c-4.896-5.202-10.099-9.792-15.301-14.076
			c-3.365-2.754-7.956,1.836-4.59,4.59c6.12,5.508,11.322,11.628,16.218,18.054c-0.306,0.918-0.611,1.836-1.224,2.754
			c-4.284,10.71-10.404,21.727-11.016,33.354c-0.307,3.06,4.284,5.202,6.426,2.754c6.426-8.262,8.874-18.972,12.546-28.765
			c0-0.306,0.306-0.306,0.306-0.611c5.509,7.649,10.404,15.605,16.219,23.256C354.602,411.161,360.416,407.795,358.273,403.205z"/>
		<path d="M103.988,314.465c-5.814,10.098-10.098,20.502-14.994,30.906C84.71,338.639,80.12,331.601,74,327.316
			c-2.754-1.836-6.12,1.837-4.284,4.284c4.896,7.65,10.404,14.688,15.3,22.338c-2.754,5.202-5.814,10.099-9.486,14.994
			c-1.836,2.448,2.448,5.814,4.284,3.366c3.06-3.672,6.12-7.65,9.18-11.628c4.59,8.262,9.18,16.83,16.218,22.644
			c2.448,1.837,6.12,0.307,5.202-3.06c-2.754-10.098-10.098-18.972-16.218-27.54c7.038-11.016,13.158-22.95,16.83-35.189
			C112.25,313.241,106.13,310.487,103.988,314.465z"/>
	</g>
</g>
<g>
</g>
<g>
</g>
<g>
</g>
<g>
</g>
<g>
</g>
<g>
</g>
<g>
</g>
<g>
</g>
<g>
</g>
<g>
</g>
<g>
</g>
<g>
</g>
<g>
</g>
<g>
</g>
<g>
</g>
</svg>
