<?xml version="1.0" encoding="iso-8859-1"?>
<!-- Generator: Adobe Illustrator 16.0.0, SVG Export Plug-In . SVG Version: 6.00 Build 0)  -->
<!DOCTYPE svg PUBLIC "-//W3C//DTD SVG 1.1//EN" "http://www.w3.org/Graphics/SVG/1.1/DTD/svg11.dtd">
<svg version="1.1" id="Capa_1" xmlns="http://www.w3.org/2000/svg" xmlns:xlink="http://www.w3.org/1999/xlink" x="0px" y="0px"
	 width="553.352px" height="553.352px" viewBox="0 0 553.352 553.352" style="enable-background:new 0 0 553.352 553.352;"
	 xml:space="preserve">
<g>
	<g>
		<path d="M279.783,27.206c-32.437,10.404-61.201,10.098-94.861,7.038c-3.978-0.306-4.284,5.508-0.918,6.426
			c29.07,8.568,73.134,13.77,99.451-4.896C287.738,33.021,285.291,25.676,279.783,27.206z"/>
		<path d="M465.524,368.396c-55.998-81.702-103.122-166.464-170.748-239.598c-1.224-1.224-2.447-1.836-3.672-2.142
			c3.979-25.092,2.448-49.266-2.448-74.052c22.95-1.224,55.692-8.262,36.414-35.802C307.935-7.678,249.794,1.808,224.702,1.808
			c-29.376,0-72.216-0.306-90.27,27.234c-17.748,26.928,18.36,44.37,41.616,39.474c-1.224,10.71,1.53,21.114,3.06,31.824
			c1.836,14.076,0.918,28.764-1.53,42.534c-41.922,51.714-49.572,117.81-78.642,176.255c-25.092,50.796-55.08,98.838-74.358,152.694
			c-36.72,102.51,89.658,82.926,152.694,73.746c84.762-12.546,169.83-0.306,254.898-2.448
			c43.758-0.918,85.067,12.853,100.674-37.638C548.145,457.442,489.087,402.667,465.524,368.396z M277.946,419.192
			c0.612,0.612,1.225,1.224,1.53,1.836c1.225,5.202,1.836,10.71-1.836,15.3c-6.732,8.874-12.546-11.628-13.464-15.3
			c-0.918-4.284-6.426-3.366-7.956,0c-0.306,0.918-5.508,17.748-10.404,11.016c-2.754-3.672-3.978-9.485-5.202-14.075
			c-0.612-2.755-4.896-4.284-6.732-1.837c-3.978,5.202-9.18,8.874-14.382,12.547c0-4.896,1.224-8.874,2.754-14.688
			c0-0.306,0-0.612,0-0.612c2.754,0,3.978-4.283,1.53-5.813c-44.982-27.846-46.818-94.86,10.71-106.182
			c35.496-7.038,85.681,5.813,110.16,32.741c17.748,19.584,16.219,50.185,0.612,70.074c-16.523,21.42-36.107,18.36-57.222,10.404
			c-1.225-3.979-5.202-4.284-7.956-2.754C277.641,411.236,275.804,416.438,277.946,419.192z M348.938,313.622
			c-0.611,1.836-1.836,3.366-1.836,4.896c-2.448-2.143-5.202-4.591-7.956-6.427c3.672-5.813,10.099-10.71,12.24-17.441
			c0.306-1.225-0.306-2.448-1.224-3.366c1.529-0.918,2.447-2.448,1.836-4.59c-2.448-6.12-3.366-14.381,3.978-16.523
			c8.568-2.142,6.732,11.016,4.896,16.523c-1.225,3.978,3.365,6.731,6.426,5.202c5.813-3.061,14.994-6.426,21.42-2.754
			c4.284,2.447,5.508,7.649,5.202,12.239c-0.307,4.284-2.448,7.345-5.814,7.956c-0.918,0.307-4.283-1.224-6.12-2.447
			c-3.978-2.754-7.037-6.732-10.71-10.099c-3.672-3.06-8.262,0.307-7.038,4.59c-3.06,1.836-6.119,5.202-8.262,7.65
			c-0.918,0.918-2.448,2.448-4.284,3.978C351.081,311.786,349.551,312.091,348.938,313.622z M185.228,144.098
			c0.918-1.836,0-3.672-1.53-4.896c7.65-22.338,11.628-53.244-1.224-73.134c0.306,0,0.612-0.306,0.918-0.306
			c2.142-1.224,1.224-4.896-1.224-4.59c-11.016,0.306-59.67-11.934-26.316-34.578c7.038-4.59,16.524-6.426,24.48-7.956
			c15.606-3.366,32.436-3.366,48.348-3.366s31.518-0.306,47.43,0.306c9.487,0.306,18.667,1.836,27.847,3.978
			c9.18,15.3,6.426,21.726-8.874,19.584c-4.59,0.306-9.181,0.612-13.771,0.612c-4.59,0.306-6.732,4.284-6.12,7.65
			c-0.306,0.918-0.612,2.142-0.306,3.366c5.203,26.316,8.875,52.938,8.875,79.866c0,0.306,0.306,0.306,0.306,0.612
			c-0.918,2.142-0.918,4.896,1.225,7.344c22.644,26.316,44.37,53.856,65.178,82.008c-60.282,56.304-140.455,19.278-209.917,30.6
			C153.098,214.478,165.644,177.758,185.228,144.098z M70.478,403.28c15.912-30.906,36.414-60.588,49.266-93.024
			c7.038-18.054,13.464-36.719,19.89-55.385c32.13,15.606,78.03,13.464,112.302,11.934c38.25-1.53,77.113-10.404,104.347-38.25
			c12.546,17.136,24.479,34.272,36.413,51.714c-6.731-3.366-14.075-2.448-21.113,0c0.611-10.71-2.754-22.338-15.912-20.808
			c-15.3,1.836-18.972,18.972-11.017,30.293c0.307,0.307,0.612,0.918,1.225,1.225c-4.284,5.202-7.956,11.628-11.017,17.441
			c-35.802-22.949-93.33-28.764-128.52-9.485c-25.704,14.075-31.824,43.146-24.174,68.85c-4.284,3.06-9.486,5.202-14.382,7.038
			c-1.836,0.612-3.672,1.224-5.508,1.836c-4.284-8.568-11.016-16.524-21.114-16.83c-9.486-0.306-15.912,7.956-19.278,15.606
			c-3.366,8.262-3.06,18.054,2.754,25.092c5.202,6.426,13.464,6.731,21.114,5.202c-2.142,4.896-2.754,10.403,0,15.912
			c3.366,7.649,12.546,10.71,20.196,11.628c7.344,0.918,15.912-1.53,19.89-7.956c5.202-8.874-2.754-20.502-9.792-25.398
			c-0.918-0.612-1.836-0.612-2.448-0.612c6.732-0.306,12.546-7.037,16.83-12.852c6.732,10.71,15.912,19.584,27.234,24.48
			c-7.65,8.874-9.792,16.829-3.978,27.233c1.53,2.448,4.896,2.754,7.038,0.918c4.896-4.896,10.404-8.262,15.3-12.852
			c2.142,6.731,5.814,14.994,12.546,14.994c5.508,0,9.18-3.673,11.934-8.263c3.06,7.956,8.568,14.688,18.361,13.158
			c8.262-1.224,11.321-9.18,12.239-17.442c21.42,11.017,50.49,0.612,64.872-18.054c20.809-27.233,19.278-62.118-3.06-87.21
			c1.836,0,3.672-0.611,5.202-1.836c4.283-3.366,8.874-8.262,11.934-13.464c5.202,6.426,13.158,11.016,21.42,9.792
			c7.65-1.224,11.628-9.486,12.546-16.218c0.307-2.143,0.307-4.284,0-6.426c27.54,40.392,53.856,81.396,80.479,122.094
			c-41.616,46.206-117.198,47.43-174.727,51.102c-88.128,5.814-170.136-13.464-255.51-31.518
			C59.156,424.394,65.582,412.459,70.478,403.28z M168.704,398.69c1.224,0.611,2.754,0.918,3.978,0.918
			c-3.06,0.612-5.508,4.284-3.366,7.344c2.142,3.366,4.896,6.12,6.732,9.486c0.306,0.611,0.918,2.448,0.612,2.448
			c0,0.611,0,1.224,0,1.529c0-0.918-0.306,0-0.306,0.307c-0.612,0.918-1.836,1.836-3.06,2.142c-2.448,0.918-4.284,0.918-7.038,0.918
			c-4.284-0.306-9.486-1.836-11.934-5.508c-3.672-5.202,1.224-12.24,4.59-16.524c2.448-3.06,0.306-9.485-4.59-7.649
			c-6.426,2.754-17.748,5.813-22.95,0.306c-3.366-3.366-2.754-9.792-0.918-14.688c1.53-4.591,5.814-9.792,9.792-10.099
			c6.426-0.612,11.628,5.508,15.606,11.322c-0.306,0.306-0.612,0.612-0.918,0.918c-0.918,1.836-0.612,4.896,1.53,5.813
			c5.814,2.448,11.016-1.529,16.218-4.59c3.978-2.447,7.65-5.508,11.016-8.567c0.918,2.142,1.836,3.978,3.06,6.12
			c-2.754,2.142-5.814,4.283-8.874,6.119c-3.978,2.448-8.262,2.448-10.71,7.345C166.562,395.324,166.868,397.772,168.704,398.69z
			 M459.711,529.045c-29.988-1.529-59.977-0.611-90.271-0.918c-54.773-0.918-111.078-7.956-165.546-0.611
			c-42.228,5.813-83.538,14.075-126.378,12.546C17.54,537.919,31.31,485.9,50.588,443.06c89.352,38.25,185.436,46.206,281.52,39.474
			c49.267-3.366,127.908-7.344,158.202-53.856c3.366,5.202,6.732,10.099,10.098,15.301
			C526.419,483.757,510.812,531.799,459.711,529.045z"/>
		<path d="M245.816,378.188c-7.038-13.771-6.732-29.683-8.874-44.37c-0.306-2.448-4.284-2.448-4.59,0
			c-2.448,15.912-3.672,34.271,0.306,50.184c0.918,3.061,3.978,5.508,7.038,5.508c2.142,0,3.672-0.611,5.202-2.142
			C247.04,384.614,247.346,381.554,245.816,378.188z"/>
		<path d="M304.568,376.658c-2.447-9.486,0.307-19.584,3.366-28.458c2.448-7.344-8.567-11.628-12.24-5.202
			c-10.71,17.748-14.382,56.304,9.792,65.484c3.979,1.529,9.181-2.448,8.568-6.732C313.137,392.264,307.017,385.532,304.568,376.658
			z"/>
	</g>
</g>
<g>
</g>
<g>
</g>
<g>
</g>
<g>
</g>
<g>
</g>
<g>
</g>
<g>
</g>
<g>
</g>
<g>
</g>
<g>
</g>
<g>
</g>
<g>
</g>
<g>
</g>
<g>
</g>
<g>
</g>
</svg>
