<?xml version="1.0" encoding="iso-8859-1"?>
<!-- Generator: Adobe Illustrator 18.0.0, SVG Export Plug-In . SVG Version: 6.00 Build 0)  -->
<!DOCTYPE svg PUBLIC "-//W3C//DTD SVG 1.1//EN" "http://www.w3.org/Graphics/SVG/1.1/DTD/svg11.dtd">
<svg version="1.1" id="Capa_1" xmlns="http://www.w3.org/2000/svg" xmlns:xlink="http://www.w3.org/1999/xlink" x="0px" y="0px"
	 viewBox="0 0 239.254 239.254" style="enable-background:new 0 0 239.254 239.254;" xml:space="preserve">
<g>
	<path d="M67.96,108.594C56.593,93.248,46.126,77.345,36.913,60.606c-6.837-12.421-11.332-25.431-23.023-33.994
		c-3.134-2.295-7.558,0.81-7.523,4.317c0.328,32.359-2.704,64.244-6.343,96.358c-0.257,2.276,1.537,3.628,3.484,3.845
		c2.126,1.964,6.299,2.173,8.201-0.73c6.645-10.141,12.726-20.539,18.46-31.197c9.963,6.121,20.144,11.578,30.949,16.229
		C65.075,117.137,71.325,113.138,67.96,108.594z"/>
	<path d="M225.15,18.163c-0.854-3.991-7.363-5.11-9.139-1.195c-13.475,29.714-28.961,58.28-44.287,87.054
		c-0.88,1.652-0.543,3.188,0.361,4.245c-0.943,3.533,1.437,7.966,5.79,6.415c12.121-4.321,21.773-11.279,31.245-19.418
		c6.325,10.71,13.39,20.587,21.587,30.089c2.786,3.23,8.793,0.681,8.54-3.538C237.16,86.867,232.473,52.402,225.15,18.163z"/>
	<path d="M126.756,106.31c-1.157-3.756-7.294-5.361-9.174-1.199c-8.491,18.797-16.594,38.344-20.969,58.56
		c-0.047,0.217-0.004,0.39-0.022,0.594c-2.825,2.774-0.51,8.302,3.663,8.349c10.585,0.12,21.176-0.024,31.762-0.072
		c2.524-0.011,5.276-2.297,5.019-5.019C135.083,146.828,132.899,126.256,126.756,106.31z"/>
	<path d="M166.507,217.801c-24.669-28.193-61.376-15.526-90.559-3.893c-3.49,1.391-2.225,6.446,1.571,5.694
		c14.462-2.868,28.491-9.48,43.355-10.024c16.324-0.599,27.589,6.205,40.791,14.5C165.675,226.596,169.384,221.089,166.507,217.801z
		"/>
</g>
<g>
</g>
<g>
</g>
<g>
</g>
<g>
</g>
<g>
</g>
<g>
</g>
<g>
</g>
<g>
</g>
<g>
</g>
<g>
</g>
<g>
</g>
<g>
</g>
<g>
</g>
<g>
</g>
<g>
</g>
</svg>
