<?xml version="1.0" encoding="iso-8859-1"?>
<!-- Generator: Adobe Illustrator 18.0.0, SVG Export Plug-In . SVG Version: 6.00 Build 0)  -->
<!DOCTYPE svg PUBLIC "-//W3C//DTD SVG 1.1//EN" "http://www.w3.org/Graphics/SVG/1.1/DTD/svg11.dtd">
<svg version="1.1" id="Capa_1" xmlns="http://www.w3.org/2000/svg" xmlns:xlink="http://www.w3.org/1999/xlink" x="0px" y="0px"
	 viewBox="0 0 261.922 261.922" style="enable-background:new 0 0 261.922 261.922;" xml:space="preserve">
<g>
	<path d="M250.19,46.4c-0.919-13.428-15.028-18.87-25.817-14.431c3.628-6.923,4.471-15.73-2.393-20.427
		c-6.351-4.346-13.821-1.38-18.625,3.876c-0.021-3.516-0.851-6.968-2.964-9.934c-3.817-5.358-10.664-6.731-16.617-4.375
		c-13.676,5.411-16.162,23.704-10.374,35.835c-7.882-2.411-16.226-3.791-24.719-3.933c-0.152-0.378-0.434-0.701-0.915-0.683
		C81.144,34.813,34.812,133.345,62.964,183.423c-18.071-3.944-49.598,4.254-51.215,24.905c-1.403,17.914,20.247,20.627,33.43,14.14
		c-3.463,4.432-5.508,9.789-5.595,15.644c-0.108,7.183,1.495,16.474,8.715,19.684c11.278,5.015,22.71-3.248,28.458-13.535
		c-0.172,4.31,0.522,8.553,3.27,12.149c4.588,6.002,12.385,6.844,18.986,3.77c21.636-10.076,8.487-32.71,5.195-49.548
		c4.586,0.793,9.429,1.334,14.738,1.392c50.842,0.56,93.145-54.956,102.873-100.434c3.519-16.453,0.67-31.013-6.337-43.02
		C230.262,71.074,251.37,63.626,250.19,46.4z M104.58,54.404c16.685,11.84,38.871,2.648,47.09-14.744
		c0.384-0.811,0.348-1.784,0.043-2.625c12.056,1.103,23.805,4.114,34.36,9.74c-0.052,0.094-0.13,0.154-0.173,0.259
		c-15.851,38.349-72.399,53.672-107.634,37.527c-0.204-0.093-0.378-0.028-0.568-0.031C84.981,72.973,93.996,62.683,104.58,54.404z
		 M106.897,238.681c0.231,8.111-4.545,15.777-12.561,17.715c-14.544,3.517-14.448-12.566-13.772-21.519
		c0.022-0.298-0.099-0.52-0.252-0.71c0.072-0.505,0.168-1.015,0.204-1.512c0.127-1.744-2.366-2.253-3.185-0.863
		c-4.967,8.429-10.363,25.089-23.591,22.429c-15.948-3.207-9.935-26.651-2.681-35.095c0.306-0.356,0.265-0.718,0.111-1.019
		c0.823-1.318-0.62-3.027-2.118-2.231c-5.96,3.168-12.018,5.914-18.942,5.396c-14.482-1.083-16.462-16.083-6.102-24.193
		c10.983-8.599,27.727-12.955,41.379-9.897c1.122,1.66,2.375,3.226,3.698,4.741c-2.614,1.286-5.161,2.687-8.071,3.493
		c-4.726,1.31-9.438,1.514-14.286,1.003c-1.07-0.113-1.319,1.691-0.255,1.888c7.523,1.394,18.227,0.983,25.018-3.805
		c2.611,2.601,5.518,4.975,8.754,7.073c-3.742,2.452-18.31,15.986-13.375,18.792c0.67,0.381,1.435-0.543,0.841-1.09
		c-1.925-1.773,13.267-14.432,14.551-16.036c0.065-0.081,0.05-0.171,0.095-0.257c2.238,1.305,4.603,2.5,7.137,3.543
		c-0.006,0.01-0.02,0.01-0.025,0.021c-4.083,8.033-1.356,18.887,3.552,25.911c0.824,1.179,2.721,0.128,1.96-1.146
		c-4.856-8.122-4.262-15.023-3.074-23.897c2.622,0.956,5.343,1.822,8.272,2.488C100.909,219.87,106.613,228.669,106.897,238.681z
		 M111.299,206.027c-16.165-2.351-28.246-9.051-36.704-18.431c32.736,15.982,75.238,8.354,105.408-13.412
		c0.275-0.117,0.547-0.216,0.821-0.335c0.158-0.066,0.316-0.116,0.474-0.182c-0.001-0.003-0.003-0.006-0.004-0.009
		c0.243-0.106,0.484-0.188,0.727-0.296c0.758-0.336,1.188-0.922,1.368-1.591c2.064-1.61,4-3.341,5.923-5.085
		C169.515,191.199,141.024,210.35,111.299,206.027z M213.05,123.869c-37.756,44.581-100.885,49.061-153.073,30.592
		c-1.736-12.868-0.349-26.83,3.962-40.417c52.802,25.079,118.463,6.87,145.493-46.939
		C221.047,84.237,219.502,104.333,213.05,123.869z M212.171,63.512c-1.763-2.422-3.743-4.689-5.844-6.856
		c5.229-4.117,10.797-6.253,17.524-7.252c1.197-0.178,0.767-1.867-0.266-1.967c-6.939-0.674-14.184,2.407-19.031,7.427
		c-2.466-2.359-5.185-4.483-8.009-6.494c2.72-3.502,5.009-7.343,6.691-11.426c0.384-0.934-1.09-1.477-1.586-0.669
		c-2.24,3.653-4.476,7.348-6.579,11.095c-2.15-1.456-4.447-2.732-6.752-3.994c0.57-5.526,0.624-11.05-0.278-16.544
		c-0.214-1.304-2.382-1.003-2.307,0.312c0.284,5.035,0.591,10.046,0.646,15.084c-3.066-1.568-6.256-2.956-9.57-4.122
		c-3.835-9.266-4.386-21.372,3.016-29.152c4.687-4.927,12.093-6.518,16.975-1.033c4.454,5.004,1.828,12.479,0.574,18.12
		c-0.409,1.842,2.343,3.263,3.222,1.358c0.761-1.652,1.408-3.424,1.891-5.249c3.951-6.382,13.84-13.198,18.97-4.983
		c4.561,7.302-2.713,13.903-5.634,19.938c-0.909,1.878,1.242,3.503,2.831,2.184c0.629-0.522,1.239-1.132,1.836-1.776
		c5.319-3.056,11.348-4.743,17.203-1.834c6.876,3.416,9.817,11.566,5.792,18.293C236.449,65.732,223.331,62.309,212.171,63.512z"/>
</g>
<g>
</g>
<g>
</g>
<g>
</g>
<g>
</g>
<g>
</g>
<g>
</g>
<g>
</g>
<g>
</g>
<g>
</g>
<g>
</g>
<g>
</g>
<g>
</g>
<g>
</g>
<g>
</g>
<g>
</g>
</svg>
