<?xml version="1.0" encoding="iso-8859-1"?>
<!-- Generator: Adobe Illustrator 18.0.0, SVG Export Plug-In . SVG Version: 6.00 Build 0)  -->
<!DOCTYPE svg PUBLIC "-//W3C//DTD SVG 1.1//EN" "http://www.w3.org/Graphics/SVG/1.1/DTD/svg11.dtd">
<svg version="1.1" id="Capa_1" xmlns="http://www.w3.org/2000/svg" xmlns:xlink="http://www.w3.org/1999/xlink" x="0px" y="0px"
	 viewBox="0 0 210.626 210.626" style="enable-background:new 0 0 210.626 210.626;" xml:space="preserve">
<g>
	<path d="M87.369,7.593c-1.571,0.3-3.143,1.05-4.655,2.017c-2.96,1.215-5.873,3.246-7.789,4.54
		c-3.006,2.031-8.856,6.876-7.408,11.307c3.098,9.479,22.149-6.907,24.378-10.917C93.81,11.098,91.482,6.808,87.369,7.593z"/>
	<path d="M168.508,180.187c-0.129-2.42-1.505-4.954-2.757-6.8c-1.919-2.827-11.969-11.76-13.316-5.251
		c-0.23,0.206-0.397,0.485-0.403,0.867c-0.102,6.536,4.811,13.036,10.793,15.376c1.275,0.499,2.539,0.519,3.57,0.055
		C168.63,184.139,168.985,182.144,168.508,180.187z"/>
	<path d="M186.793,187.447c-4.34-0.817-8.933-0.058-12.717-2.733c2.038-4.836-2.77-12.017-5.911-15.857
		c-2.872-3.511-6.68-8.751-10.988-10.581c-1.712-0.727-3.344-0.63-4.853-0.071c-12.953-17.783-21.38-37.565-20.561-60.047
		c0.952-26.135,15.344-75.213,49.144-74.054c1.138,0.039,1.555-1.003,1.286-1.837c0.424-0.427,0.568-1.141,0.039-1.738
		C171.756,8.681,156.22,3.573,140.899,1.392c-8.295-1.181-34.411-3.837-41.371,4.091c-1.161-1.232-2.604-2.268-4.324-2.989
		c-7.837-3.286-17.502,1.072-23.847,5.679C66.417,11.76,58.04,22.68,58.783,30.32c-0.042,0.034-0.086,0.045-0.126,0.085
		C20.35,67.78,9.448,133.122,44.63,176.283c15.803,19.387,37.052,29.465,61.5,32.585c27.201,3.472,60.328,3.865,79.702-18.784
		c0.352-0.411,0.282-0.836,0.055-1.144c0.236-0.017,0.476-0.035,0.711-0.051C187.371,188.837,187.658,187.61,186.793,187.447z
		 M43.905,169.457C12.312,124.938,28.527,72.245,59.732,33.355c1.071,1.917,3.047,3.436,6.36,4.235
		c0.723,0.175,1.056-0.745,0.486-1.153c-23.758-17.043,33.837-48.683,33.881-21.629c0.001,0.983,1.546,1.249,1.757,0.238
		c0.614-2.931,0.03-5.671-1.414-7.936c0.002-0.008,0.01-0.012,0.011-0.021c0.361-2.339,24.152-4.09,22.619-4.034
		c7.644-0.275,15.382,0.426,22.862,1.996c12.709,2.667,23.334,7.614,32.934,16.153c-28.557-0.661-43.517,35.267-48.296,59.195
		c-5.53,27.69,0.739,57.449,19.907,78.525c-1.706,1.019-3.209,2.556-4.4,4.075c-1.038,1.325,0.663,3.185,1.905,1.905
		c3.321-3.425,6.545-5.743,10.827-2.022c1.937,1.683,3.773,3.498,5.48,5.414c3.417,3.836,12.684,14.554,4.266,18.393
		c-1,0.456-0.288,2.176,0.755,1.79c1.267-0.468,2.237-1.065,2.978-1.752c3.288,2.556,7.439,2.587,11.459,2.333
		C143.616,219.997,74.041,211.921,43.905,169.457z"/>
	<path d="M63.728,91.738c-3.365-3.475-6.798-6.884-10.234-10.287c-2.166-2.144-4.928-6.394-8.303-6.253
		c-1.247,0.052-2.258,1.002-2.279,2.279c-0.04,2.415-0.172,5.128-0.009,7.753c-0.021,1.774-0.024,3.55,0.022,5.321
		c-0.535,0.644-0.408,1.811,0.593,2.094c6.108,1.732,12.351,2.393,18.666,2.821C64.14,95.6,64.974,93.024,63.728,91.738z"/>
	<path d="M108.756,76.26c-6.889,5.43-13.931,10.653-21.113,15.687c-1.788,1.253-1.364,4.631,1.212,4.474
		c6.93-0.422,14.214,0.132,21.031-1.239c0.238-0.048,0.367-0.207,0.525-0.337c0.663-0.166,1.236-0.626,1.418-1.491
		c1.053-4.996,0.978-10.313,1.017-15.4C112.863,75.688,110.297,75.045,108.756,76.26z"/>
	<path d="M113.693,108.797c-0.101-0.483-0.531-0.634-0.924-0.552c-0.452-0.349-1.065-0.497-1.714-0.178
		c-22.92,11.243-47.493,10.684-70.533-0.014c-0.695-0.323-1.272,0.198-1.354,0.767c-0.004,0.008-0.013,0.01-0.016,0.018
		c-2.402,6.562-2.071,13.826-0.586,20.566c0.234,1.065,1.542,1.222,2.266,0.598c2.093-1.806,3.217-4.007,4.617-6.341
		c1.042-1.735,2.253-3.303,3.542-4.811c-0.341,0.967-0.537,1.985-0.385,3.095c0.312,2.278,1.884,4.328,4.145,4.921
		c2.672,0.702,6.003-0.866,8.027-3.24c0.018,0.361,0.048,0.705,0.095,1.013c0.373,2.417,1.991,4.343,4.401,4.909
		c3.938,0.925,7.8-2.172,9.108-5.929c0.513,3.008,3.033,5.638,6.36,5.98c3.897,0.4,6.838-2.378,8.268-5.817
		c1.361,2.4,3.812,4.09,6.916,3.907c4.578-0.27,6.655-4.017,6.612-7.959c3.127,4.49,6.421,9.274,10.963,12.008
		c0.92,0.554,2.199-0.154,2.168-1.244C115.468,123.253,115.178,115.908,113.693,108.797z M44.536,120.066
		c-1.354,1.954-2.366,4.109-3.772,5.986c-0.812-5.308-0.649-10.479-0.23-15.866c2.932,1.61,5.927,3.003,8.971,4.188
		C47.649,116.091,45.976,117.986,44.536,120.066z M61.913,118.241c-0.078,0.009-0.164-0.025-0.227,0.015
		c-2.51,1.571-2.719,4.97-5.816,6.115c-2.344,0.866-4.615-0.215-5.215-2.702c-0.517-2.144,0.424-4.333,1.59-6.083
		c0.043-0.064,0.027-0.126,0.035-0.189c3.223,1.11,6.501,1.934,9.801,2.583C62.021,118.062,61.969,118.152,61.913,118.241z
		 M71.234,124.132c-0.97,1.634-2.468,2.898-4.447,2.973c-4.436,0.169-4.439-5.622-3.403-8.85c3.121,0.556,6.267,0.875,9.422,1.031
		C72.192,120.877,72.141,122.604,71.234,124.132z M82.927,126.824c-4.862,1.716-7.551-3.223-6.214-7.29
		c0.025-0.075-0.015-0.125-0.012-0.193c3.633-0.005,7.268-0.217,10.885-0.727C86.554,121.633,86.435,125.586,82.927,126.824z
		 M95.621,124.99c-2.992,0.15-4.875-1.904-5.729-4.416c0.088-0.717,0.117-1.432,0.063-2.124c-0.007-0.09-0.077-0.158-0.107-0.242
		c3.135-0.536,6.254-1.231,9.338-2.143c0.003,0.104-0.012,0.199,0.014,0.313C99.952,119.7,100.375,124.751,95.621,124.99z
		 M102.621,114.967c3.206-1.111,6.38-2.367,9.482-3.885c0.036,5.499,0.375,11.004,0.58,16.503
		C108.674,124.199,105.669,119.063,102.621,114.967z"/>
	<path d="M90.388,169.556c-2.348-2.113-5.96-4.298-9.165-2.695c-0.862,0.431-1.443,1.048-1.827,1.754
		c-0.379,0.134-0.731,0.405-0.88,0.768c-1.246,3.042,0.704,7.081,2.496,9.517c1.962,2.668,5.005,5.059,8.433,5.251
		c3.197,0.179,5.918-1.831,6.255-5.106C96.095,175.196,93.043,171.945,90.388,169.556z"/>
	<path d="M88.05,162.599c-3.711-2.766-10.392-1.022-12.945,2.59c-3.25,4.597-1.418,10.734,2.182,14.507
		c0.284,0.297,0.762-0.083,0.562-0.434c-2.23-3.928-4.495-8.963-1.297-13.096c3.085-3.988,7.065-2.255,11.222-2.549
		C88.341,163.577,88.484,162.922,88.05,162.599z"/>
	<path d="M100.949,173.349c-0.362-0.611-1.19-0.18-1.085,0.457c0.984,5.927,0.29,12.262-7.049,13.009
		c-4.726,0.481-8.871-1.097-12.429-4.133c-0.331-0.282-0.854,0.071-0.621,0.48c2.925,5.138,11.197,6.923,16.484,4.856
		C101.951,185.788,103.961,178.437,100.949,173.349z"/>
	<path d="M97.409,169.446c-1.032-1.908-2.948-4.625-5.222-5.028c-0.612-0.108-0.974,0.531-0.587,1.007
		c0.688,0.848,1.695,1.285,2.545,1.965c0.953,0.762,1.808,1.643,2.613,2.559C97.078,170.312,97.626,169.848,97.409,169.446z"/>
	<path d="M131.476,20.926c-0.51,0.331-0.948,0.776-1.413,1.179c-2.427,1.46-4.513,3.342-6.138,5.83
		c-1.69,2.589-4.103,7.427-1.818,10.272c5.87,7.309,15.41-8.892,15.864-13.595C138.363,20.548,134.742,18.807,131.476,20.926z"/>
	<path d="M135.032,14.941c-7.278,0.896-13.714,8.405-16.29,14.769c-0.151,0.372,0.443,0.602,0.637,0.269
		c1.975-3.417,4.186-6.431,7.31-8.877c1.314-1.029,2.665-1.965,4.165-2.704c4.937-2.433,10.471,0.451,10.728,6.186
		c0.217,4.851-2.786,9.231-5.687,12.824c-1.184,1.466-2.459,3.036-3.819,4.341c-3.628,3.484-12.064,4.865-13.547-1.512
		c-0.155-0.663-1.018-0.426-1.091,0.148c-0.852,6.652,7.092,8.266,11.86,5.754c6.488-3.418,12.29-12.555,13.346-19.702
		C143.417,21.21,141.62,14.129,135.032,14.941z"/>
	<path d="M116.761,34.108c-0.515,1.053-0.568,1.882-0.32,3.023c0.103,0.475,0.872,0.373,0.851-0.115
		c-0.038-0.883,0.069-1.715,0.243-2.581C117.625,33.993,116.985,33.651,116.761,34.108z"/>
	<path d="M76.032,60.503c-1.466,0.14-2.212,0.724-2.483,1.536c-0.027,0.062-0.078,0.098-0.1,0.164
		c-0.519,1.575,0.183,3.877,0.767,5.353c0.668,1.688,1.879,3.273,3.649,3.898c1.927,0.681,3.769-0.336,4.276-2.314
		C83.013,65.739,79.998,60.125,76.032,60.503z"/>
	<path d="M79.505,55.827c-3.235-2.472-7.764-0.666-9.609,2.635c-2.214,3.962-0.842,8.565,2.053,11.746
		c0.315,0.346,0.905-0.104,0.651-0.502c-1.72-2.694-3.083-5.961-2.015-9.176c1.287-3.874,4.897-5.302,8.527-3.773
		C79.692,57,79.916,56.141,79.505,55.827z"/>
	<path d="M86.617,63.896c-0.279-0.461-0.897-0.224-0.948,0.257c-0.126,1.207,0.16,2.392-0.003,3.615
		c-0.177,1.337-0.64,2.637-1.427,3.742c-1.679,2.36-4.792,3.404-7.574,2.79c-0.256-0.056-0.455,0.327-0.189,0.448
		c2.869,1.302,6.105,0.591,8.292-1.683C86.798,70.953,88.25,66.596,86.617,63.896z"/>
</g>
<g>
</g>
<g>
</g>
<g>
</g>
<g>
</g>
<g>
</g>
<g>
</g>
<g>
</g>
<g>
</g>
<g>
</g>
<g>
</g>
<g>
</g>
<g>
</g>
<g>
</g>
<g>
</g>
<g>
</g>
</svg>
