<?xml version="1.0" encoding="iso-8859-1"?>
<!-- Generator: Adobe Illustrator 18.0.0, SVG Export Plug-In . SVG Version: 6.00 Build 0)  -->
<!DOCTYPE svg PUBLIC "-//W3C//DTD SVG 1.1//EN" "http://www.w3.org/Graphics/SVG/1.1/DTD/svg11.dtd">
<svg version="1.1" id="Capa_1" xmlns="http://www.w3.org/2000/svg" xmlns:xlink="http://www.w3.org/1999/xlink" x="0px" y="0px"
	 viewBox="0 0 261.892 261.892" style="enable-background:new 0 0 261.892 261.892;" xml:space="preserve">
<g>
	<path d="M259.697,128.174c-1.495-5.321-2.33-10.655-2.614-16.183c-0.054-1.056-0.737-1.681-1.533-1.905
		c0.545-1.23,0.072-3.04-1.168-3.607c-9.794-4.479-19.708-8.553-29.694-12.459c2.289-2.188,6.584-4.958,7.551-5.688
		c2.375-1.79,4.807-3.512,7.287-5.152c5.399-3.571,11.283-6.213,16.775-9.575c2.804-1.717,3.748-2.227,3.811-5.361
		c0.101-5.036-2.858-12.116-4.997-16.917c0.053-1.095-0.396-2.247-1.357-2.717l-75.992-37.183c-1.518-0.743-3.912-0.245-4.256,1.731
		c-2.155,12.416-1.592,37.366-8.284,47.747c-4.669,7.243,1.763,7.247-8.987,0.208c-6.607-4.326-12.472-10.929-18.669-15.862
		c-1.759-1.4-4.025-0.898-4.822,1.273c-7.904,21.521-12.912,43.362-15.329,66.137c-0.109,1.03,0.589,1.919,1.472,2.427
		c1.335,1.717,2.976,3.264,4.466,4.832c1.641,1.728,3.197,3.576,5.101,5.014c-0.668,0.812-0.315,2.351,0.966,2.25
		c7.052-0.557,14.006-0.908,21.083-0.869c0.094,0.001,0.16-0.04,0.248-0.049c-0.245,6.223-2.968,13.245-3.85,18.604
		c-2.293,13.914-4.084,27.805-5.595,41.785c-6.717-0.803-13.537-1.041-20.387-0.705c-2.241-29.551-6.581-59.095-14.11-87.77
		c-5.363-20.427-14.01-43.102-34.399-52.918c-26.338-12.68-54.786,4.893-66.237,29.305c-23.01,33.676,23.934,101.122,48.143,131.66
		c-9.168,5.351-17.762,11.618-25.477,18.68c-0.568,0.52-0.646,1.224-0.451,1.861c-0.394,0.937-0.244,2.105,0.829,2.626
		c56.649,27.484,124.045,27.526,182.488,5.664c2.679-1.002,2.326-4.578,0.36-5.447c0.111-0.549,0.041-1.134-0.357-1.691
		c-9.052-12.65-19.942-22.129-31.944-28.884c2.277-14.97,7.577-27.358,15.269-40.484c0.096,0.288,0.263,0.566,0.572,0.787
		c9.223,6.619,18.114,13.501,26.417,21.255c0.686,0.64,1.708,0.689,2.516,0.327c0.336,0.19,0.733,0.273,1.202,0.028
		c5.498-2.881,8.994-8.94,12.777-13.687c6.034-7.571,11.991-15.206,17.94-22.843c1.855-2.381,4.995-5.431,5.407-8.632
		C262.138,133.684,260.143,129.763,259.697,128.174z M58.405,203.947C33.431,169.597-24.006,86.801,25.654,66.613
		c38.38-15.602,55.348,23.084,61.748,52.9c2.49,11.598,4.747,23.249,7.112,34.873c1.205,5.918,2.409,11.836,3.613,17.755
		c0.153,0.754,3.156,9.888,5.69,15.712C88.098,190.659,72.631,196.212,58.405,203.947z M107.168,187.326
		c-7.473-42.902-17.318-155.43-84.181-126.103c-1.906,0.836-3.649,1.758-5.29,2.732c5.592-6.429,12.744-11.558,21.366-14.686
		c30.594-11.097,50.766,12.203,59.558,38.56c10.455,31.343,14.397,65.6,16.995,98.495
		C112.797,186.577,109.98,186.894,107.168,187.326z M251.314,70.948c-4.958,3.763-11.468,6.152-16.696,9.717
		c-2.936,2.002-11.927,6.85-14.736,11.514c-3.53-1.346-7.023-2.771-10.586-4.052c14.929-10.912,29.529-22.195,43.801-33.969
		C254.214,60.257,256.814,66.773,251.314,70.948z M131.03,124.034c0.236-0.499,0.267-1.071-0.102-1.563
		c-1.805-2.401-4.222-4.367-6.393-6.437c-0.255-0.243-0.522-0.475-0.776-0.719c6.894-0.613,19.825-2.153,22.873,0.298
		c2.144,1.724,3.297,3.898,3.814,6.324C143.976,121.871,137.361,122.566,131.03,124.034z M145.343,187.21
		c3.634-24.63,7.722-49.189,12.655-73.595c0.347-1.714-0.753-3.366-2.588-3.397c-14.359-0.242-28.998,5.949-30.268-13.497
		c-0.496-7.587,3.362-17.561,5.302-24.679c1.553-5.703,2.34-16.588,9.436-17.623c4.599-0.67,20.574,18.96,23.833,22.321
		c1.411,1.455,4.455,0.906,4.834-1.276c2.339-13.465,2.6-30.78,7.538-43.404c3.367-8.605,0.663-11.294,11.423-9.434
		c6.254,1.081,15.675,7.67,21.109,10.329c7.486,3.663,33.342,11.599,34.293,19.14c1.12,8.888-34.257,29.499-41.083,34.426
		c-2.052,1.481-1.767,4.437,0.691,5.295c7.587,2.647,37.533,9.952,40.828,15.955c5.124,9.332-4.516,16.772-9.636,24.293
		c-5.267,7.738-8.671,19.081-19.456,18.555c-6.439-0.314-21.445-15.824-26.846-19.81c-1.165-0.86-3.376-0.285-3.963,1.039
		c-8.603,19.383-15.358,39.102-20.377,59.709C157.301,189.601,151.377,188.153,145.343,187.21z M192.856,155.192
		c-9.653,11.624-14.93,27.221-15.944,42.331c-2.753-1.431-5.541-2.774-8.395-3.932c3.154-13.141,5.918-31.238,13.151-42.903
		c2.454-3.958,4.19-6.15,5.85-7.153c0.898,1.968,1.806,3.934,2.722,5.892c0.872,1.864,1.747,3.81,2.736,5.668
		C192.938,155.134,192.892,155.147,192.856,155.192z M197.55,157.065c0.058-0.264,0.08-0.55-0.031-0.889
		c-0.924-2.803-2.607-5.371-4.039-7.943c-0.993-1.784-2.009-3.558-3.014-5.338c1.894,0.202,4.117,1.356,7.442,2.822
		c6.461,2.849,14.441,10.656,20.134,14.857c0.374,0.276,0.789,0.379,1.211,0.398c-0.044,4.189,0.862,8.394,1.522,12.612
		C213.667,167.24,205.949,161.561,197.55,157.065z M253.139,141.855c-3.466,5.902-8.659,11.344-12.794,16.811
		c-4.288,5.67-9.08,14.341-14.699,19.034c-0.381-5.854-0.837-12.65-3.833-17.62c-0.047-0.078-0.13-0.091-0.185-0.155
		c0.127-0.132,0.28-0.246,0.378-0.391c10.343-15.195,20.686-30.391,31.029-45.586c0.185,3.795,0.507,7.539,1.372,11.269
		C256.299,133.379,257.506,134.417,253.139,141.855z"/>
	<path d="M51.162,78.684c-2.305-0.878-4.948,0.18-7.369,0.86c-0.911-2.347-1.903-4.662-3.135-6.858
		c-1.173-2.09-4.67-0.693-3.919,1.652c0.646,2.021,1.321,4.03,1.976,6.047c-1.815,0.216-3.615,0.529-5.057,1.477
		c-1.066,0.701-1.207,2.364,0,3.033c1.966,1.09,4.3,1.021,6.58,0.736c0.611,2.727,0.985,5.671,2.526,7.948
		c1,1.477,3.78,1.529,4.17-0.545c0.519-2.769-0.286-5.505-1.196-8.165c2.57-0.368,5.136-0.955,6.68-3.102
		C53.28,80.568,52.306,79.12,51.162,78.684z"/>
</g>
<g>
</g>
<g>
</g>
<g>
</g>
<g>
</g>
<g>
</g>
<g>
</g>
<g>
</g>
<g>
</g>
<g>
</g>
<g>
</g>
<g>
</g>
<g>
</g>
<g>
</g>
<g>
</g>
<g>
</g>
</svg>
