<?xml version="1.0" encoding="iso-8859-1"?>
<!-- Generator: Adobe Illustrator 18.0.0, SVG Export Plug-In . SVG Version: 6.00 Build 0)  -->
<!DOCTYPE svg PUBLIC "-//W3C//DTD SVG 1.1//EN" "http://www.w3.org/Graphics/SVG/1.1/DTD/svg11.dtd">
<svg version="1.1" id="Capa_1" xmlns="http://www.w3.org/2000/svg" xmlns:xlink="http://www.w3.org/1999/xlink" x="0px" y="0px"
	 viewBox="0 0 253.207 253.207" style="enable-background:new 0 0 253.207 253.207;" xml:space="preserve">
<g>
	<path d="M233.87,38.803c0-0.002-0.001-0.003-0.001-0.005c1.06-1.212,0.524-3.71-1.607-3.781
		c-58.655-1.964-117.53-3.484-176.24-2.164c-0.01-2.959-0.013-5.924-0.024-8.882c10.814,2.276,24.605-12.049,13.797-20.775
		C61.462-3.533,48.964,1.18,44.078,9.759C41.376,2.947,33.115-0.949,26.541,4.401c-3.558,2.895-4.644,7.41-3.12,11.691
		c1.873,5.261,6.686,8.033,11.406,10.396c-0.938,65.845-1.333,132.01,2.196,197.787c-10.367,0.856-24.845,10.992-16.042,22.11
		c3.339,4.217,8.751,5.836,13.823,4.055c2.754-0.967,5.814-3.214,7.599-5.997c1.235,2.013,3.066,3.932,3.955,4.706
		c4.705,4.09,11.862,5.565,17.38,2.185c11.189-6.855,3.773-23.724-8.225-21.857c0.038-0.148,0.091-0.285,0.093-0.461
		c0.253-26.922,0.359-53.901,0.436-80.879c57.896,7.492,116.621,10.295,174.875,12.137c0.862,0.027,1.442-0.363,1.801-0.905
		c0.827,0.195,1.809-0.244,1.833-1.365C235.407,118.329,234.74,78.475,233.87,38.803z M61.739,247.914
		c-3.267,2.152-7.67,1.732-10.965-0.084c-1.617-0.892-7.645-5.233-6.486-7.578c0.278-0.563,0.009-1.285-0.512-1.539
		c-0.352-1.151-1.729-1.453-2.51-0.406c-2.078,2.784-3.085,5.863-6.37,7.629c-3.965,2.131-8.713,0.962-11.119-2.919
		c-5.436-8.772,8.172-14.72,14.671-15.751c0.837-0.133,1.164-0.849,1.1-1.557c0.128-0.197,0.222-0.427,0.22-0.729
		c-0.181-26.394-0.517-52.773-0.807-79.152c3.412,0.5,6.84,0.922,10.26,1.387c0.241,27.455,1.167,54.834,2.9,81.802
		c0.041,0.649,0.367,1.088,0.79,1.362c-1.182,1.243-0.141,3.709,1.962,3.288C63.182,232.005,69.693,242.673,61.739,247.914z
		 M55.001,20.622c-0.63,0.259-0.973,0.806-1.078,1.372c-0.528,0.194-0.965,0.654-1.015,1.381c-0.223,3.176-0.388,6.384-0.591,9.571
		c-4.321,0.106-8.644,0.187-12.963,0.326c-0.27,0.009-0.502,0.072-0.709,0.164c0.03-2.683,0.04-5.366,0.078-8.049
		c0.02-1.458-1.288-2.04-2.393-1.795c-4.386-2.917-12.136-8.505-8.175-14.464c4.254-6.399,12.178-1.274,12.73,4.896
		c0.179,1.993,2.553,2.489,3.603,1.394c0.555-0.11,1.082-0.447,1.357-1.1C48.671,7.6,56.215,2.884,63.556,4.95
		c5.998,1.688,7.26,7.656,2.596,11.8C62.812,19.718,58.824,19.049,55.001,20.622z M230.917,155.677
		c-58.489-1.819-116.578-6.942-174.854-11.402c0.091-35.774,0.087-71.555-0.029-107.277c57.913,0.464,115.786,0.496,173.693,2.38
		c-0.02,38.768,0.182,77.7,1.792,116.441C231.325,155.762,231.146,155.685,230.917,155.677z"/>
</g>
<g>
</g>
<g>
</g>
<g>
</g>
<g>
</g>
<g>
</g>
<g>
</g>
<g>
</g>
<g>
</g>
<g>
</g>
<g>
</g>
<g>
</g>
<g>
</g>
<g>
</g>
<g>
</g>
<g>
</g>
</svg>
