<?xml version="1.0" encoding="utf-8"?>
<svg version="1.1" id="Layer_1"
xmlns="http://www.w3.org/2000/svg"
xmlns:xlink="http://www.w3.org/1999/xlink"
width="550px" height="400px"
xml:space="preserve">
<g id="PathID_121" transform="matrix(2.28999, 0, 0, 2.28999, 27.2, 362.8)" opacity="1">
<path style="fill:#2DBCEA;fill-opacity:1" d="M24.1 1.4Q22.95 1.4 20.45 -0.8Q18.15 0.3 16.4 0.85Q14.65 1.4 13.4 1.4Q7.4 1.4 4.4 -1.8Q1.4 -5.05 1.4 -11.45Q1.4 -17.5 5.8 -21.8Q10.25 -26.1 16.45 -26.1Q18.85 -26.1 21.95 -24.75Q25.75 -23.15 25.75 -21Q25.75 -20.1 25.15 -19.45Q24.9 -18.45 24.75 -16.95Q24.65 -15.45 24.65 -13.45Q24.65 -8.7 25.3 -6.65L26.45 -4.05Q27.45 -1.9 27.45 -1.6Q27.45 -0.3 26.4 0.55Q25.4 1.4 24.1 1.4M17.9 -15.45L18 -17.3Q18.1 -18.35 18.35 -19.6Q17.85 -19.85 17.45 -19.95Q17.05 -20.1 16.8 -20.1Q13.4 -20.1 10.85 -17.4Q8.35 -14.75 8.35 -11.25Q8.35 -7.9 9.5 -6.2Q10.7 -4.55 13.1 -4.55Q14.65 -4.55 16 -5.05Q17.4 -5.55 18.65 -6.55Q17.9 -12.5 17.9 -15.45" />
</g>
<g id="PathID_122" transform="matrix(2.28999, 0, 0, 2.28999, 27.2, 362.8)" opacity="1">
</g>
<g id="PathID_123" transform="matrix(2.28999, 0, 0, 2.28999, 92.3, 362.8)" opacity="1">
<path style="fill:#2DBCEA;fill-opacity:1" d="M27.35 -21.1L18.7 -3.25Q15.5 3.25 13.85 7.55L12.2 12.15Q11.25 14.5 8.95 14.5Q7.55 14.5 6.45 13.55Q5.4 12.65 5.4 11.25Q5.4 8.95 10.7 -2.5Q7.95 -7.95 1.95 -18.5L0.75 -20.4Q0.1 -21.55 0.1 -22.5Q0.1 -23.85 1.15 -24.9Q2.25 -25.95 3.65 -25.95Q5.3 -25.95 6.25 -24.7Q9.75 -19.95 14.5 -10.45L17.75 -17.6Q19.5 -21.35 21.25 -24.15Q22.3 -26 24.2 -26Q25.6 -26 26.7 -25Q27.8 -24.05 27.8 -22.7Q27.8 -21.95 27.35 -21.1" />
</g>
<g id="PathID_124" transform="matrix(2.28999, 0, 0, 2.28999, 92.3, 362.8)" opacity="1">
</g>
<g id="PathID_125" transform="matrix(2.28999, 0, 0, 2.28999, 157.05, 362.8)" opacity="1">
<path style="fill:#2DBCEA;fill-opacity:1" d="M24.1 1.4Q22.95 1.4 20.45 -0.8Q18.15 0.3 16.4 0.85Q14.65 1.4 13.4 1.4Q7.4 1.4 4.4 -1.8Q1.4 -5.05 1.4 -11.45Q1.4 -17.5 5.8 -21.8Q10.25 -26.1 16.45 -26.1Q18.85 -26.1 21.95 -24.75Q25.75 -23.15 25.75 -21Q25.75 -20.1 25.15 -19.45Q24.9 -18.45 24.75 -16.95Q24.65 -15.45 24.65 -13.45Q24.65 -8.7 25.3 -6.65L26.45 -4.05Q27.45 -1.9 27.45 -1.6Q27.45 -0.3 26.4 0.55Q25.4 1.4 24.1 1.4M17.9 -15.45L18 -17.3Q18.1 -18.35 18.35 -19.6Q17.85 -19.85 17.45 -19.95Q17.05 -20.1 16.8 -20.1Q13.4 -20.1 10.85 -17.4Q8.35 -14.75 8.35 -11.25Q8.35 -7.9 9.5 -6.2Q10.7 -4.55 13.1 -4.55Q14.65 -4.55 16 -5.05Q17.4 -5.55 18.65 -6.55Q17.9 -12.5 17.9 -15.45" />
</g>
<g id="PathID_126" transform="matrix(2.28999, 0, 0, 2.28999, 157.05, 362.8)" opacity="1">
</g>
<g id="PathID_127" transform="matrix(2.28999, 0, 0, 2.28999, 222.15, 362.8)" opacity="1">
<path style="fill:#2DBCEA;fill-opacity:1" d="M22.2 1.8Q19.15 1.8 18.8 -1.2L18.1 -6.4Q17.75 -9.15 17.75 -11.6L17.8 -13.8L17.9 -16.05L17.95 -16.9L18 -18.1Q18 -20.2 17 -20.2Q14.85 -20.2 12.8 -17.4Q10.75 -14.65 9.55 -10.4Q9.55 -9.55 9.35 -8.15L9.25 -5.9L9.1 -3.75Q8.95 -2.3 8.95 -1.55Q8.95 -0.1 7.95 0.85Q6.95 1.8 5.45 1.8Q3.95 1.8 2.95 0.85Q2 -0.1 2 -1.55L1.85 -3.7L1.7 -5.85Q1.7 -8.3 2.05 -12.65Q2.4 -17.05 2.4 -19.5L2.3 -21.75L2.25 -24.05Q2.25 -25.45 3.25 -26.4Q4.25 -27.35 5.7 -27.35Q9 -27.35 9.2 -23.4L9.25 -23.1Q12.85 -26.8 16.9 -26.8Q21.65 -26.8 23.45 -22.8Q24.65 -20.15 24.65 -14.9L24.65 -13.1L24.6 -11.45Q24.6 -9.5 25.15 -6.4Q25.7 -3.35 25.7 -1.45Q25.7 -0.05 24.7 0.85Q23.7 1.8 22.2 1.8" />
</g>
<g id="PathID_128" transform="matrix(2.28999, 0, 0, 2.28999, 222.15, 362.8)" opacity="1">
</g>
<g id="PathID_129" transform="matrix(2.28999, 0, 0, 2.28999, 283.5, 362.8)" opacity="1">
<path style="fill:#2DBCEA;fill-opacity:1" d="M11 2.6Q9.35 2.6 8.1 1.55Q6.9 0.55 6.9 -0.75Q6.9 -2.1 8.1 -3.15Q9.35 -4.25 11 -4.25Q12.8 -4.25 13.95 -3.2Q15.1 -2.2 15.1 -0.75Q15.1 0.55 13.9 1.55Q12.7 2.6 11 2.6" />
</g>
<g id="PathID_130" transform="matrix(2.28999, 0, 0, 2.28999, 283.5, 362.8)" opacity="1">
</g>
<g id="PathID_131" transform="matrix(2.28999, 0, 0, 2.28999, 334.35, 362.8)" opacity="1">
<path style="fill:#2DBCEA;fill-opacity:1" d="M14.45 -25.7Q17.75 -26 19.2 -26Q23.9 -26 23.9 -22.75Q23.9 -19.45 18.9 -19.6Q17.35 -19.65 14.15 -19.4Q14.05 -16.75 14.1 -12.65L14.2 -5.9Q14.2 -1.35 13.6 1.3Q13.05 4 10.3 4Q8.9 4 7.85 3.1Q6.85 2.2 6.85 0.85L6.9 0.2Q7.5 -3.35 7.5 -6.5L7.5 -19.05L5.8 -18.85Q4.85 -18.7 4.35 -18.7Q2.85 -18.7 1.85 -19.55Q0.85 -20.45 0.85 -21.95Q0.85 -24.3 3.3 -25Q4.4 -25.35 7.7 -25.45L8 -28.25Q8.7 -33.85 11.05 -36.55Q13.95 -40 19.95 -40Q24.55 -40 24.55 -36.7Q24.55 -33.45 20.3 -33.45Q17.25 -33.45 15.9 -31.3Q14.85 -29.75 14.5 -26.4L14.45 -25.7" />
</g>
<g id="PathID_132" transform="matrix(2.28999, 0, 0, 2.28999, 334.35, 362.8)" opacity="1">
</g>
<g id="PathID_133" transform="matrix(2.28999, 0, 0, 2.28999, 393.95, 362.8)" opacity="1">
<path style="fill:#2DBCEA;fill-opacity:1" d="M24.45 -14.45L24.45 -9.35L24.45 -4.35L24.55 -2.75L24.65 -1.2Q24.65 0.2 23.6 1.1Q22.6 2 21.1 2Q19.05 2 18.1 0.15Q14.9 1.3 11.45 1.3Q7.9 1.3 5.5 -0.15Q2.75 -1.9 2.25 -5.15Q1.3 -11.4 1.3 -16.3Q1.3 -19.5 2.05 -23.65Q2.5 -26.5 5.4 -26.5Q6.85 -26.5 7.85 -25.55Q8.9 -24.65 8.9 -23.25Q8.9 -22.2 8.55 -19.85Q8.2 -17.5 8.2 -16.3Q8.2 -12.8 8.4 -10.15Q8.65 -7.55 9.15 -5.85Q9.75 -5.55 10.35 -5.4L11.5 -5.3Q14.25 -5.3 17.6 -6.1L17.55 -10.45L17.5 -14.65Q17.5 -19.8 18 -23.5Q18.35 -26.5 21.4 -26.5Q22.85 -26.5 23.9 -25.55Q24.95 -24.65 24.9 -23.25L24.45 -14.45" />
</g>
<g id="PathID_134" transform="matrix(2.28999, 0, 0, 2.28999, 393.95, 362.8)" opacity="1">
</g>
<g id="PathID_135" transform="matrix(2.28999, 0, 0, 2.28999, 454.9, 362.8)" opacity="1">
<path style="fill:#2DBCEA;fill-opacity:1" d="M22.2 1.8Q19.15 1.8 18.8 -1.2L18.1 -6.4Q17.75 -9.15 17.75 -11.6L17.8 -13.8L17.9 -16.05L17.95 -16.9L18 -18.1Q18 -20.2 17 -20.2Q14.85 -20.2 12.8 -17.4Q10.75 -14.65 9.55 -10.4Q9.55 -9.55 9.35 -8.15L9.25 -5.9L9.1 -3.75Q8.95 -2.3 8.95 -1.55Q8.95 -0.1 7.95 0.85Q6.95 1.8 5.45 1.8Q3.95 1.8 2.95 0.85Q2 -0.1 2 -1.55L1.85 -3.7L1.7 -5.85Q1.7 -8.3 2.05 -12.65Q2.4 -17.05 2.4 -19.5L2.3 -21.75L2.25 -24.05Q2.25 -25.45 3.25 -26.4Q4.25 -27.35 5.7 -27.35Q9 -27.35 9.2 -23.4L9.25 -23.1Q12.85 -26.8 16.9 -26.8Q21.65 -26.8 23.45 -22.8Q24.65 -20.15 24.65 -14.9L24.65 -13.1L24.6 -11.45Q24.6 -9.5 25.15 -6.4Q25.7 -3.35 25.7 -1.45Q25.7 -0.05 24.7 0.85Q23.7 1.8 22.2 1.8" />
</g>
<g id="PathID_136" transform="matrix(2.28999, 0, 0, 2.28999, 454.9, 362.8)" opacity="1">
</g>
<g id="PathID_137" transform="matrix(1, 0, 0, 1, 156, -257)" opacity="1">
</g>
<g id="PathID_138" transform="matrix(1, 0, 0, 1, 156, -257)" opacity="1">
</g>
<g id="PathID_139" transform="matrix(1, 0, 0, 1, 156, -257)" opacity="1">
</g>
<g id="PathID_140" transform="matrix(1, 0, 0, 1, 156, -257)" opacity="1">
</g>
<g id="PathID_141" transform="matrix(1, 0, 0, 1, 156, -257)" opacity="1">
</g>
<g id="PathID_142" transform="matrix(1, 0, 0, 1, 156, -257)" opacity="1">
</g>
<g id="PathID_143" transform="matrix(1.79307, 0, 0, 1.79307, -256.8, -196.8)" opacity="1">
<path style="fill:#288BC4;fill-opacity:1" d="M338.55 207.75L333.5 213.95Q330.7 217.5 328.2 220.9Q325.65 224.3 325.15 225.75Q324.6 227.15 324.15 232Q323.7 236.85 322.2 242.1Q320.7 247.3 317.6 251.45Q314.5 255.6 308.7 255.6Q307.05 255.6 305.65 254.6Q304.25 253.6 302.85 252.45Q301.5 251.25 300 250.3Q298.55 249.35 296.8 249.4Q295 249.45 293.1 250.4L289.3 252.55Q287.35 253.7 285.35 254.65Q283.35 255.6 281.25 255.6Q279.1 255.6 277.6 254.6Q276.1 253.65 274.65 252.5Q273.2 251.35 271.4 250.4Q269.65 249.4 267.05 249.4Q264.45 249.35 262.8 250.3Q261.15 251.25 259.8 252.45Q258.45 253.6 257.05 254.6Q255.7 255.6 253.7 255.6Q251.65 255.6 250.25 254.6Q248.9 253.65 247.65 252.5Q246.4 251.35 245.05 250.4Q243.7 249.4 241.7 249.4Q239.5 249.3 237.3 250.3Q235.1 251.25 232.95 252.4Q230.85 253.6 228.9 254.6Q226.95 255.6 225.3 255.6Q223.65 255.6 222.3 255Q220.95 254.4 219.95 253.45Q218.95 252.5 218.35 251.35Q217.7 250.15 217.45 249.05Q217.15 247.9 217.2 244.3Q217.2 240.7 216.35 236Q215.45 231.25 213.05 226.05Q210.7 220.8 205.65 216.4L340.8 205.05L338.55 207.75" />
</g>
<g id="PathID_144" transform="matrix(1.79307, 0, 0, 1.79307, -256.8, -196.8)" opacity="1">
</g>
<g id="PathID_145" transform="matrix(1.79307, 0, 0, 1.79307, -258.6, -196.8)" opacity="1">
<path style="fill:#13B6C6;fill-opacity:1" d="M253.35 171.95L251.65 169.75Q250.7 168.65 249.6 167.6Q248.55 166.55 247.35 165.55L243.1 162.5L250.6 162.1Q258.1 161.75 267.8 161.45Q277.45 161.15 286.55 161.15Q295.7 161.15 298.95 161.9Q303.75 162.95 307.55 165.55Q311.35 168.15 313.45 171.85Q315.5 175.55 315.5 180.15Q315.5 184.8 312.7 189.95Q311.65 191.8 310.35 193.6Q309.05 195.4 307.35 197Q305.7 198.65 303.65 200Q301.6 201.35 299.15 202.3Q296.65 203.2 285.75 203.7Q274.85 204.15 262.75 204.35Q250.6 204.55 240.95 204.55L231.3 204.55Q237.3 200.85 242.45 196.95Q247.6 193.1 251 189.2Q254.35 185.35 255.55 181.55Q256.75 177.75 254.8 174.2Q254.15 173.05 253.35 171.95" />
</g>
<g id="PathID_146" transform="matrix(1.79307, 0, 0, 1.79307, -258.6, -196.8)" opacity="1">
</g>
<g id="PathID_147" transform="matrix(1.79307, 0, 0, 1.79307, -256.8, -196.8)" opacity="1">
<path style="fill:#2DBCEA;fill-opacity:1" d="M255.8 137.05L254.85 135.85L253.75 134.75Q253.2 134.15 252.55 133.65L250.25 132L254.3 131.75L263.6 131.4Q268.8 131.25 273.75 131.25Q278.7 131.25 280.45 131.65Q283.05 132.2 285.1 133.6Q287.15 135 288.3 137Q289.4 139 289.4 141.5Q289.4 144 287.9 146.8Q287.35 147.75 286.6 148.65Q285.9 149.5 285 150.25Q284.1 151 283 151.65Q281.9 152.25 280.6 152.8Q279.25 153.3 273.5 154.15L261.35 155.75Q255 156.55 249.9 157.1L244.85 157.7Q248.05 155.65 250.7 153.1Q253.35 150.55 255 147.9Q256.65 145.2 257.15 142.7Q257.65 140.15 256.6 138.25L255.8 137.05" />
</g>
<g id="PathID_148" transform="matrix(1.79307, 0, 0, 1.79307, -256.8, -196.8)" opacity="1">
</g>
<g id="PathID_149" transform="matrix(1.79307, 0, 0, 1.79307, -256.8, -196.8)" opacity="1">
<path style="fill:#CCD62E;fill-opacity:1" d="M259 119L258.6 118.4L258.15 117.8L257.7 117.3L256.75 116.5L258.4 116.4L262.2 116.2L266.4 116.15Q268.4 116.15 269.15 116.35Q270.2 116.6 271.05 117.25Q271.9 117.9 272.35 118.85Q272.85 119.8 272.85 121Q272.85 122.2 272.25 123.6L271.7 124.5L270.9 125.3Q270.45 125.65 269.8 125.95L268.4 126.45Q267.55 126.65 265.3 126.9Q263.1 127.2 260.75 127.4L256.55 127.8L254.75 127.95Q256.05 126.95 257.1 125.9Q258.15 124.8 258.8 123.7Q259.45 122.65 259.6 121.55Q259.75 120.5 259.35 119.6L259 119" />
</g>
<g id="PathID_150" transform="matrix(1.79307, 0, 0, 1.79307, -256.8, -196.8)" opacity="1">
</g>
</svg>
